<svg width="500" height="500" viewBox="0 0 500 500" fill="none" xmlns="http://www.w3.org/2000/svg">
<path d="M435.207 115.766C435.014 114.535 434.594 113.355 433.97 112.293C433.346 111.232 432.531 110.309 431.571 109.579C430.612 108.849 429.526 108.325 428.377 108.038C427.227 107.75 426.037 107.704 424.873 107.903L354.716 119.864C353.551 120.062 352.437 120.501 351.435 121.156C350.433 121.81 349.564 122.668 348.878 123.678C348.191 124.689 347.7 125.834 347.433 127.048C347.166 128.261 347.127 129.519 347.32 130.751L364.831 242.44C365.023 243.671 365.444 244.851 366.068 245.913C366.691 246.975 367.506 247.897 368.466 248.627C369.425 249.357 370.511 249.881 371.66 250.169C372.809 250.456 374 250.502 375.164 250.304L445.323 238.343C446.487 238.144 447.602 237.705 448.604 237.051C449.605 236.396 450.474 235.539 451.161 234.528C451.847 233.517 452.338 232.372 452.605 231.159C452.872 229.946 452.91 228.687 452.717 227.456L435.207 115.766Z" fill="#22376C" style="fill:#22376C;fill:color(display-p3 0.1333 0.2157 0.4235);fill-opacity:1;"/>
<path d="M425.109 116.583L356.56 128.293C356.56 128.293 361.222 212.698 376.068 241.58C429.402 231.653 447.629 226.426 447.629 226.426C447.629 226.426 429.779 178.155 425.109 116.583Z" fill="#DEEBF8" style="fill:#DEEBF8;fill:color(display-p3 0.8706 0.9216 0.9725);fill-opacity:1;"/>
<path d="M413.31 112.509L415.2 124.567L373.056 131.751L371.166 119.694L413.31 112.509Z" fill="#63A2D8" style="fill:#63A2D8;fill:color(display-p3 0.3882 0.6353 0.8471);fill-opacity:1;"/>
<path d="M370.796 155.113C370.499 155.167 370.195 155.16 369.9 155.09C369.606 155.02 369.327 154.89 369.08 154.706C368.833 154.523 368.622 154.29 368.46 154.021C368.298 153.752 368.187 153.452 368.134 153.138C368.081 152.825 368.087 152.503 368.152 152.192C368.216 151.882 368.339 151.588 368.511 151.327C368.683 151.067 368.903 150.845 369.157 150.675C369.411 150.505 369.694 150.389 369.991 150.335L413.296 142.382C413.592 142.328 413.896 142.336 414.191 142.405C414.485 142.475 414.764 142.605 415.011 142.789C415.258 142.972 415.469 143.205 415.631 143.474C415.793 143.743 415.904 144.043 415.957 144.357C416.064 144.99 415.928 145.642 415.58 146.168C415.232 146.694 414.7 147.051 414.101 147.161L370.796 155.113ZM373.641 171.986C373.345 172.04 373.041 172.033 372.746 171.963C372.452 171.893 372.173 171.763 371.926 171.58C371.679 171.396 371.468 171.163 371.306 170.894C371.143 170.625 371.033 170.325 370.98 170.012C370.927 169.698 370.933 169.376 370.998 169.066C371.062 168.755 371.184 168.461 371.357 168.201C371.529 167.94 371.749 167.718 372.003 167.548C372.257 167.378 372.54 167.262 372.837 167.208L416.142 159.255C416.439 159.201 416.743 159.209 417.038 159.278C417.332 159.348 417.611 159.478 417.858 159.662C418.105 159.845 418.316 160.078 418.478 160.347C418.64 160.616 418.751 160.916 418.804 161.23C418.911 161.864 418.775 162.515 418.427 163.041C418.079 163.567 417.546 163.924 416.947 164.034L373.641 171.986ZM376.488 188.859C376.191 188.914 375.887 188.906 375.593 188.836C375.299 188.766 375.02 188.636 374.773 188.453C374.526 188.269 374.315 188.036 374.153 187.767C373.99 187.498 373.88 187.198 373.827 186.885C373.774 186.571 373.78 186.25 373.845 185.939C373.909 185.628 374.031 185.334 374.204 185.074C374.376 184.813 374.595 184.592 374.849 184.421C375.103 184.251 375.386 184.135 375.683 184.081L418.988 176.129C419.587 176.019 420.204 176.165 420.704 176.535C421.203 176.905 421.543 177.469 421.65 178.103C421.757 178.737 421.621 179.388 421.273 179.914C420.925 180.44 420.392 180.798 419.793 180.908L376.488 188.859ZM380.398 206.036C380.102 206.095 379.797 206.093 379.502 206.028C379.207 205.963 378.926 205.837 378.677 205.657C378.427 205.478 378.213 205.248 378.047 204.982C377.881 204.715 377.766 204.417 377.708 204.104C377.651 203.791 377.652 203.47 377.712 203.158C377.772 202.846 377.89 202.55 378.059 202.287C378.227 202.024 378.443 201.799 378.695 201.624C378.946 201.45 379.228 201.33 379.524 201.271L422.706 192.623C423.002 192.564 423.306 192.567 423.602 192.632C423.897 192.696 424.178 192.822 424.427 193.001C424.677 193.181 424.891 193.41 425.058 193.676C425.224 193.943 425.339 194.241 425.396 194.554C425.512 195.186 425.386 195.839 425.046 196.371C424.705 196.902 424.178 197.268 423.581 197.388L380.398 206.036ZM384.962 222.986C384.669 223.056 384.365 223.064 384.067 223.01C383.77 222.955 383.486 222.84 383.23 222.67C382.975 222.5 382.753 222.278 382.578 222.018C382.403 221.758 382.279 221.464 382.211 221.153C382.144 220.842 382.134 220.521 382.184 220.207C382.235 219.893 382.343 219.593 382.503 219.324C382.663 219.054 382.871 218.821 383.117 218.638C383.362 218.454 383.64 218.324 383.934 218.254L426.802 208.036C427.395 207.894 428.018 208.008 428.534 208.352C429.05 208.695 429.416 209.241 429.553 209.869C429.689 210.496 429.584 211.154 429.261 211.698C428.938 212.242 428.424 212.627 427.831 212.768L384.962 222.986Z" fill="#E95847" style="fill:#E95847;fill:color(display-p3 0.9137 0.3451 0.2784);fill-opacity:1;"/>
<path d="M302.894 314.049L311.6 475.842C311.6 475.842 308.188 492.15 250.011 492.15L237.893 463.977L225.599 492.15C167.481 492.15 162.044 475.559 162.044 475.559L170.246 396.407C171.722 369.625 171.388 342.774 169.246 316.036C167.893 308.262 144.422 230.814 176.422 215.149C187.717 209.596 221.364 208.311 221.364 208.311H254.246C254.246 208.311 287.953 209.596 299.247 215.149C322.365 226.489 308.301 287.483 308.301 287.483V292.051L306.733 302.54C306.733 302.54 310.079 307.727 308.301 308.916C305.001 311.124 302.894 314.107 302.894 314.107V314.049Z" fill="#86CFEC" style="fill:#86CFEC;fill:color(display-p3 0.5255 0.8118 0.9255);fill-opacity:1;"/>
<path d="M99.5018 370.354C95.8352 369.22 92.4142 328.436 108.773 273.834C120.469 234.798 138.071 202.169 179.308 184.475C190.434 179.7 222.703 178.076 222.703 178.076H254.421C254.421 178.076 287.036 179.016 297.817 184.475C340.234 205.954 355.251 295.8 341.365 398.03C332.52 398.03 332.891 397.589 312.961 397.333C310.747 429.591 300.535 390.453 298.661 454.329L237.446 431.872C237.446 431.872 226.546 412.769 222.703 475.426H162.019C162.019 475.426 162.019 486.678 162.019 438.832C162.073 439.221 158.328 317.407 159.204 291.134C145.111 345.294 139.608 363.059 133.374 367.522C109.448 371.475 103.168 371.489 99.5018 370.354Z" fill="#86CFEC" style="fill:#86CFEC;fill:color(display-p3 0.5255 0.8118 0.9255);fill-opacity:1;"/>
<path d="M238.541 191.485L238.524 191.488L238.508 191.485L238.541 191.485Z" fill="#136199" style="fill:#136199;fill:color(display-p3 0.0745 0.3804 0.6000);fill-opacity:1;"/>
<path d="M224.111 165.271C224.111 165.271 223.307 172.371 222.594 179.755C227.235 189.554 238.507 188.275 238.507 188.275C238.507 188.275 249.779 189.554 254.421 179.755C253.708 172.371 252.903 165.271 252.903 165.271H224.111Z" fill="#F5A257" style="fill:#F5A257;fill:color(display-p3 0.9608 0.6353 0.3412);fill-opacity:1;"/>
<path d="M237.469 166.232C174.396 166.232 180.107 121.382 180.107 121.382C180.107 121.382 162.456 122.622 162.456 100.073C162.456 77.525 180.107 83.9683 180.107 83.9683V61.6673C180.107 61.6673 179.588 40.1108 237.469 40.1108H239.546C297.427 40.1108 296.907 61.6673 296.907 61.6673V83.9683C296.907 83.9683 314.558 77.525 314.558 100.073C314.558 122.622 296.907 121.382 296.907 121.382C296.907 121.382 300.023 166.232 239.546 166.232H237.469Z" fill="#F9BF82" style="fill:#F9BF82;fill:color(display-p3 0.9765 0.7490 0.5098);fill-opacity:1;"/>
<path d="M302.236 83.1234C302.236 83.1234 299.122 82.7286 296.526 83.9688C280.647 72.1982 278.146 50.2287 278.146 50.2287C278.146 50.2287 271.763 52.9201 238.509 52.9201C205.254 52.9201 198.489 50.2287 198.489 50.2287C198.489 50.2287 195.987 72.1982 180.108 83.9688C177.513 82.7286 174.397 83.1234 174.397 83.1234C174.397 83.1234 163.939 52.109 180.533 33.4113C180.533 33.4113 191.521 10.3643 238.509 10.3643C319.343 10.3643 302.236 83.1234 302.236 83.1234Z" fill="#8E453C" style="fill:#8E453C;fill:color(display-p3 0.5569 0.2706 0.2353);fill-opacity:1;"/>
<path d="M312.535 403.574H340.345C346.474 403.574 346.408 397.974 346.408 397.974C346.408 389.446 347.277 387.622 342.663 387.622H313.677C313.808 389.51 312.697 399.616 312.536 403.574H312.535Z" fill="#DEEBF8" style="fill:#DEEBF8;fill:color(display-p3 0.8706 0.9216 0.9725);fill-opacity:1;"/>
<path d="M291.822 120.845C291.822 120.845 267.084 112.709 240.069 112.709C213.054 112.709 185.197 119.317 185.197 119.317C185.197 119.317 187.758 162.11 238.509 162.11C288.619 162.11 291.822 120.845 291.822 120.845Z" fill="white" style="fill:white;fill-opacity:1;"/>
<path d="M199.072 181.252C182.259 181.252 200.511 213.124 205.042 216.214C208.527 218.592 225.278 224.163 237.42 217.353C249.562 224.163 266.312 218.592 269.798 216.214C274.329 213.124 292.581 181.252 275.768 181.252C258.955 181.252 282.47 169.558 282.47 169.558C282.47 169.558 316 155.814 316 100.074C316 8.16768 268.412 4.79541 238.888 4.79541C238.399 4.79541 237.91 4.81558 237.42 4.84447C236.932 4.81358 236.442 4.79722 235.952 4.79541C206.429 4.79541 158.84 8.16768 158.84 100.074C158.84 155.814 192.369 169.558 192.369 169.558C192.369 169.558 215.885 181.252 199.071 181.252H199.072ZM183.135 112.709C183.135 72.2309 187.36 40.1115 235.929 40.1115C236.438 40.1115 236.927 40.1018 237.42 40.094C237.913 40.1018 238.402 40.1115 238.911 40.1115C287.481 40.1115 291.704 72.2309 291.704 112.709C291.704 153.188 271.161 164.598 239.98 164.598C239.093 164.598 238.243 164.619 237.42 164.655C236.567 164.617 235.714 164.598 234.86 164.598C203.679 164.598 183.135 153.188 183.135 112.71V112.709Z" fill="#86CFEC" style="fill:#86CFEC;fill:color(display-p3 0.5255 0.8118 0.9255);fill-opacity:1;"/>
<path d="M237.416 65.8253C212.912 65.8253 193.682 64.0234 187.447 75.9289C181.212 87.8334 182.173 105.774 182.173 105.774C182.173 105.774 180.049 118.795 209.768 114.93C227.026 112.991 226.963 101.12 238.509 101.12H237.447C248.993 101.12 248.93 112.991 266.188 114.93C295.908 118.795 293.783 105.774 293.783 105.774C293.783 105.774 294.744 87.8334 288.51 75.9289C282.275 64.0243 263.044 65.8253 238.54 65.8253H237.416Z" stroke="#10A8CB" style="stroke:#10A8CB;stroke:color(display-p3 0.0627 0.6588 0.7961);stroke-opacity:1;" stroke-width="12" stroke-miterlimit="10"/>
<path d="M237.447 162.11C237.447 162.11 244.07 139.949 238.508 117.941C235.107 126.423 234.867 140.026 237.447 162.11Z" fill="#86CFEC" style="fill:#86CFEC;fill:color(display-p3 0.5255 0.8118 0.9255);fill-opacity:1;"/>
<path d="M177.543 105.425C177.543 164.44 227.014 166.637 238.508 166.351C250.003 166.637 299.473 164.44 299.473 105.425C299.473 40.18 256.002 35.8706 239.47 35.8706C239.134 35.8706 238.815 35.8765 238.505 35.8862C238.186 35.8759 237.866 35.8705 237.546 35.8701C221.015 35.8701 177.543 40.18 177.543 105.425V105.425ZM185.473 105.425C185.473 53.7283 213.197 44.8824 236.917 44.738C260.688 44.8824 291.543 53.7283 291.543 105.425C291.543 156.692 247.569 159.333 240.468 159.425V159.422C240.468 159.422 240.29 159.427 239.971 159.427C239.669 159.427 239.501 159.422 239.501 159.422L239.499 159.426C232.154 159.344 185.474 156.806 185.474 105.425H185.473Z" fill="#10A8CB" style="fill:#10A8CB;fill:color(display-p3 0.0627 0.6588 0.7961);fill-opacity:1;"/>
<path d="M279.487 298.601C279.541 297.694 284.82 207.668 282.219 183.008L279.822 183.101C282.416 207.689 277.141 297.643 277.088 298.547C277.066 298.885 274.981 332.624 275.844 355.093C276.706 377.531 277.083 487.245 277.087 488.351L279.488 488.348C279.484 487.242 279.108 377.513 278.245 355.059C277.383 332.635 279.466 298.939 279.487 298.601V298.601ZM194.434 183.101L192.037 183.008C190.695 195.728 194.727 297.565 194.768 298.602C194.789 298.939 196.872 332.636 196.011 355.059C195.147 377.513 194.771 487.242 194.767 488.348L197.169 488.351C197.172 487.244 197.549 377.531 198.411 355.093C199.275 332.624 197.189 298.885 197.168 298.557C197.128 297.53 193.099 195.757 194.434 183.101Z" fill="#DEEBF8" style="fill:#DEEBF8;fill:color(display-p3 0.8706 0.9216 0.9725);fill-opacity:1;"/>
<path d="M159.682 348.146H314.286V365.011H160.082L159.682 348.146Z" fill="#10A8CB" style="fill:#10A8CB;fill:color(display-p3 0.0627 0.6588 0.7961);fill-opacity:1;"/>
<path d="M295.063 101.12C295.063 100.876 295.164 100.643 295.345 100.471C295.525 100.299 295.769 100.203 296.024 100.203H309.472C309.727 100.203 309.971 100.299 310.151 100.471C310.331 100.643 310.433 100.876 310.433 101.12C310.433 101.363 310.331 101.596 310.151 101.768C309.971 101.94 309.727 102.037 309.472 102.037H296.024C295.769 102.037 295.525 101.94 295.345 101.768C295.164 101.596 295.063 101.363 295.063 101.12ZM279.902 56.7051C279.805 56.7818 279.693 56.8396 279.572 56.875C279.451 56.9104 279.325 56.9228 279.199 56.9115C279.074 56.9002 278.952 56.8653 278.84 56.809C278.729 56.7527 278.63 56.6759 278.549 56.5831C278.469 56.4903 278.408 56.3833 278.371 56.2682C278.334 56.1531 278.321 56.0322 278.333 55.9123C278.345 55.7924 278.382 55.6759 278.441 55.5695C278.5 55.463 278.58 55.3687 278.677 55.292C278.795 55.1989 290.51 45.8757 295.165 36.9877C295.279 36.7701 295.479 36.6047 295.721 36.5278C295.962 36.4509 296.226 36.4688 296.454 36.5776C296.682 36.6863 296.855 36.8771 296.936 37.1078C297.016 37.3386 296.997 37.5904 296.884 37.8079C292.046 47.0445 280.395 56.3144 279.902 56.7051ZM278.787 149.104C279.004 148.977 279.264 148.937 279.512 148.993C279.759 149.049 279.974 149.197 280.107 149.403C280.127 149.433 282.141 152.47 288.203 156.465C288.31 156.532 288.402 156.619 288.473 156.72C288.545 156.822 288.594 156.936 288.619 157.056C288.643 157.176 288.643 157.299 288.616 157.419C288.59 157.539 288.539 157.652 288.466 157.753C288.394 157.854 288.3 157.939 288.192 158.005C288.084 158.071 287.964 158.115 287.837 158.136C287.711 158.156 287.582 158.152 287.457 158.125C287.332 158.097 287.215 158.045 287.111 157.973C280.667 153.728 278.557 150.497 278.47 150.361C278.338 150.154 278.297 149.905 278.356 149.67C278.416 149.434 278.57 149.231 278.787 149.104ZM292.16 127.17C292.236 127.197 299.884 129.948 307.001 132.44C307.122 132.48 307.232 132.543 307.327 132.624C307.422 132.706 307.499 132.804 307.553 132.914C307.608 133.024 307.639 133.143 307.644 133.265C307.65 133.386 307.63 133.508 307.587 133.622C307.543 133.736 307.475 133.841 307.389 133.93C307.302 134.019 307.198 134.091 307.082 134.141C306.966 134.191 306.84 134.219 306.713 134.223C306.586 134.226 306.459 134.206 306.34 134.162C299.214 131.668 291.559 128.914 291.482 128.887C291.364 128.844 291.255 128.78 291.163 128.698C291.071 128.615 290.997 128.516 290.945 128.407C290.893 128.297 290.864 128.178 290.86 128.058C290.856 127.937 290.877 127.817 290.921 127.705C290.966 127.592 291.033 127.489 291.12 127.401C291.206 127.313 291.31 127.242 291.425 127.192C291.54 127.143 291.664 127.115 291.79 127.111C291.916 127.107 292.042 127.127 292.16 127.17ZM256.07 159.182C256.195 159.164 256.322 159.169 256.445 159.197C256.567 159.226 256.683 159.277 256.785 159.348C256.886 159.419 256.972 159.509 257.038 159.612C257.103 159.715 257.146 159.83 257.165 159.949C257.337 161.014 258.675 165.262 259.969 169.37C260.581 171.311 261.2 173.277 261.725 174.997C261.762 175.114 261.775 175.236 261.762 175.356C261.749 175.477 261.712 175.594 261.651 175.701C261.591 175.808 261.509 175.902 261.41 175.978C261.311 176.054 261.197 176.111 261.075 176.145C260.953 176.179 260.825 176.189 260.699 176.176C260.573 176.162 260.45 176.125 260.339 176.066C260.228 176.007 260.13 175.927 260.052 175.832C259.973 175.737 259.915 175.627 259.881 175.511C259.305 173.638 258.721 171.767 258.129 169.899C256.756 165.538 255.459 161.419 255.267 160.229C255.228 159.988 255.291 159.743 255.441 159.547C255.592 159.351 255.818 159.22 256.07 159.183V159.182ZM292.247 78.1854C292.019 78.2886 291.758 78.3023 291.52 78.2235C291.282 78.1447 291.086 77.9797 290.974 77.7641C290.862 77.5485 290.843 77.2995 290.922 77.0709C291.001 76.8424 291.17 76.6524 291.394 76.5421C291.51 76.4876 303.018 71.0167 307.419 66.6417C307.595 66.4663 307.837 66.365 308.092 66.3601C308.347 66.3552 308.593 66.4471 308.777 66.6156C308.961 66.7841 309.067 67.0153 309.072 67.2585C309.077 67.5017 308.981 67.7368 308.804 67.9122C304.173 72.5156 292.732 77.9561 292.247 78.1854ZM261.509 43.1697C261.576 43.0234 268.32 28.3963 271.914 19.4922C272.005 19.2652 272.188 19.0823 272.421 18.9837C272.654 18.8852 272.918 18.879 273.156 18.9665C273.394 19.0541 273.585 19.2282 273.689 19.4506C273.792 19.673 273.798 19.9255 273.707 20.1524C270.096 29.096 263.335 43.762 263.267 43.9092C263.192 44.0721 263.069 44.2106 262.913 44.3078C262.756 44.405 262.574 44.4567 262.388 44.4567C262.254 44.4567 262.123 44.43 262.001 44.3783C261.885 44.3299 261.781 44.2602 261.694 44.1732C261.606 44.0862 261.538 43.9837 261.492 43.8714C261.446 43.7592 261.424 43.6394 261.427 43.519C261.43 43.3986 261.458 43.2799 261.509 43.1697ZM238.508 12.9443C238.763 12.9443 239.008 13.0409 239.188 13.2129C239.368 13.3849 239.469 13.6181 239.469 13.8613V41.0656C239.469 41.3088 239.368 41.542 239.188 41.714C239.008 41.886 238.763 41.9826 238.508 41.9826C238.254 41.9826 238.009 41.886 237.829 41.714C237.649 41.542 237.548 41.3088 237.548 41.0656V13.8613C237.548 13.6181 237.649 13.3849 237.829 13.2129C238.009 13.0409 238.254 12.9443 238.508 12.9443ZM167.544 100.203H180.993C181.247 100.203 181.492 100.299 181.672 100.471C181.852 100.643 181.953 100.876 181.953 101.12C181.953 101.363 181.852 101.596 181.672 101.768C181.492 101.94 181.247 102.037 180.993 102.037H167.544C167.29 102.037 167.045 101.94 166.865 101.768C166.685 101.596 166.584 101.363 166.584 101.12C166.584 100.876 166.685 100.643 166.865 100.471C167.045 100.299 167.29 100.203 167.544 100.203ZM197.727 56.9155C197.503 56.9158 197.287 56.8411 197.115 56.7046C196.621 56.3149 184.971 47.0445 180.133 37.8079C180.019 37.5904 180 37.3385 180.081 37.1077C180.162 36.877 180.335 36.6862 180.563 36.5773C180.791 36.4685 181.054 36.4505 181.296 36.5274C181.538 36.6043 181.738 36.7697 181.852 36.9872C186.507 45.8757 198.222 55.1989 198.34 55.292C198.492 55.4124 198.601 55.5746 198.654 55.7566C198.706 55.9386 198.698 56.1315 198.63 56.309C198.563 56.4865 198.441 56.6399 198.279 56.7484C198.117 56.8569 197.925 56.9151 197.727 56.9151V56.9155ZM188.814 156.465C194.876 152.47 196.889 149.433 196.909 149.403C197.044 149.2 197.257 149.055 197.503 149.001C197.749 148.947 198.007 148.987 198.222 149.112C198.437 149.238 198.592 149.44 198.652 149.673C198.713 149.907 198.675 150.154 198.547 150.361C198.46 150.497 196.35 153.727 189.905 157.974C189.802 158.045 189.684 158.096 189.56 158.124C189.435 158.151 189.306 158.155 189.18 158.134C189.054 158.113 188.933 158.069 188.826 158.003C188.718 157.938 188.625 157.852 188.552 157.751C188.48 157.651 188.429 157.538 188.403 157.418C188.376 157.299 188.375 157.175 188.4 157.056C188.424 156.936 188.473 156.822 188.545 156.72C188.616 156.619 188.707 156.532 188.814 156.465ZM170.015 132.44C174.97 130.702 179.917 128.945 184.857 127.17C184.975 127.127 185.101 127.107 185.227 127.111C185.353 127.115 185.477 127.143 185.592 127.192C185.707 127.242 185.811 127.313 185.897 127.401C185.984 127.489 186.051 127.592 186.095 127.705C186.14 127.817 186.161 127.937 186.157 128.058C186.153 128.178 186.124 128.297 186.072 128.407C186.02 128.516 185.946 128.615 185.854 128.698C185.761 128.78 185.653 128.844 185.535 128.887C185.458 128.914 177.802 131.668 170.676 134.162C170.557 134.206 170.431 134.226 170.303 134.223C170.176 134.219 170.051 134.191 169.935 134.141C169.819 134.091 169.714 134.019 169.628 133.93C169.541 133.841 169.474 133.736 169.43 133.622C169.386 133.508 169.366 133.386 169.372 133.265C169.378 133.143 169.409 133.024 169.463 132.914C169.518 132.804 169.595 132.706 169.689 132.624C169.784 132.543 169.895 132.48 170.015 132.44ZM217.048 169.37C218.341 165.262 219.68 161.014 219.852 159.949C219.893 159.711 220.031 159.497 220.236 159.356C220.44 159.214 220.696 159.155 220.946 159.192C221.196 159.229 221.421 159.358 221.571 159.552C221.722 159.747 221.786 159.99 221.75 160.229C221.558 161.419 220.261 165.538 218.888 169.899C218.278 171.834 217.66 173.795 217.136 175.511C217.101 175.626 217.042 175.734 216.963 175.828C216.884 175.922 216.786 176 216.676 176.058C216.565 176.116 216.444 176.152 216.318 176.165C216.193 176.178 216.066 176.168 215.945 176.134C215.824 176.1 215.711 176.044 215.612 175.969C215.514 175.893 215.432 175.8 215.372 175.695C215.311 175.589 215.273 175.473 215.259 175.353C215.245 175.234 215.256 175.113 215.292 174.997C215.817 173.277 216.436 171.311 217.048 169.37V169.37ZM186.056 77.7709C186 77.8789 185.923 77.9753 185.828 78.0547C185.733 78.134 185.623 78.1946 185.503 78.2331C185.384 78.2717 185.257 78.2873 185.131 78.2791C185.005 78.2709 184.883 78.239 184.77 78.1854C184.284 77.9561 172.843 72.5151 168.212 67.9122C168.036 67.7368 167.939 67.5017 167.944 67.2585C167.95 67.0153 168.056 66.7841 168.239 66.6156C168.423 66.4471 168.669 66.3552 168.924 66.3601C169.179 66.365 169.421 66.4663 169.598 66.6417C173.999 71.0167 185.507 76.4876 185.622 76.5421C185.735 76.5956 185.836 76.6697 185.919 76.7604C186.002 76.8511 186.066 76.9565 186.106 77.0706C186.146 77.1847 186.163 77.3053 186.154 77.4254C186.146 77.5456 186.113 77.663 186.057 77.7709H186.056ZM203.861 18.9663C204.099 18.8791 204.363 18.8856 204.596 18.9842C204.829 19.0828 205.011 19.2655 205.103 19.4922C208.697 28.3963 215.44 43.0234 215.508 43.1697C215.559 43.2798 215.586 43.3985 215.589 43.5189C215.592 43.6393 215.57 43.7591 215.524 43.8713C215.479 43.9836 215.41 44.0861 215.323 44.1731C215.236 44.2601 215.131 44.3298 215.016 44.3783C214.894 44.4298 214.762 44.4564 214.629 44.4562C214.443 44.4563 214.261 44.4046 214.104 44.3075C213.948 44.2104 213.825 44.072 213.75 43.9092C213.682 43.7625 206.921 29.096 203.31 20.152C203.265 20.0396 203.243 19.9198 203.246 19.7994C203.249 19.6789 203.277 19.5603 203.328 19.4502C203.38 19.3401 203.453 19.2407 203.544 19.1576C203.636 19.0746 203.743 19.0096 203.861 18.9663ZM306.882 218.129C306.851 218.012 306.796 217.902 306.721 217.805C306.646 217.709 306.551 217.627 306.443 217.566C306.334 217.504 306.214 217.463 306.09 217.446C305.965 217.428 305.838 217.434 305.715 217.464C305.593 217.493 305.478 217.546 305.377 217.617C305.275 217.689 305.19 217.78 305.125 217.883C305.061 217.986 305.018 218.101 305 218.22C304.981 218.339 304.988 218.461 305.019 218.578C309.13 234.119 313.974 266.32 313.708 331.46C313.549 370.454 311.598 403.195 311.578 403.521C311.564 403.764 311.651 404.002 311.82 404.184C311.99 404.365 312.228 404.475 312.482 404.489C312.501 404.49 312.519 404.491 312.538 404.491C312.783 404.491 313.019 404.401 313.197 404.24C313.375 404.08 313.483 403.86 313.497 403.626C313.516 403.3 315.469 370.518 315.629 331.476C315.896 266.138 311.02 233.774 306.882 218.129ZM237.447 159.817C236.81 159.817 236.199 160.059 235.749 160.489C235.299 160.919 235.046 161.502 235.046 162.11V383.184C235.046 383.792 235.299 384.375 235.749 384.805C236.199 385.235 236.81 385.476 237.447 385.476C238.084 385.476 238.695 385.235 239.145 384.805C239.595 384.375 239.848 383.792 239.848 383.184V162.11C239.848 161.502 239.595 160.919 239.145 160.489C238.695 160.059 238.084 159.817 237.447 159.817ZM182.1 249.076C181.86 248.993 181.596 249.005 181.365 249.108C181.135 249.211 180.956 249.397 180.869 249.625C177.776 257.744 171.418 267.305 167.349 273C172.051 259.25 177.871 239.942 181.039 220.765C181.072 220.527 181.007 220.287 180.857 220.095C180.707 219.903 180.484 219.775 180.237 219.738C179.989 219.701 179.736 219.757 179.531 219.896C179.327 220.034 179.187 220.244 179.142 220.479C173.316 255.74 158.463 291.481 158.313 291.837C158.266 291.949 158.243 292.069 158.245 292.189C158.246 292.31 158.273 292.429 158.322 292.539C158.372 292.65 158.444 292.75 158.535 292.834C158.625 292.918 158.732 292.985 158.849 293.029C158.966 293.074 159.091 293.096 159.217 293.095C159.344 293.093 159.468 293.068 159.584 293.02C159.7 292.973 159.805 292.904 159.893 292.818C159.981 292.732 160.051 292.63 160.097 292.518C160.154 292.383 162.287 287.251 165.241 279.019C166.34 277.615 177.974 262.592 182.675 250.252C182.762 250.023 182.75 249.771 182.642 249.55C182.534 249.33 182.339 249.159 182.1 249.076Z" fill="#10A8CB" style="fill:#10A8CB;fill:color(display-p3 0.0627 0.6588 0.7961);fill-opacity:1;"/>
<path d="M312.728 403.574C312.728 403.574 310.502 422.081 310.502 436.281C313.26 441.308 317.539 440.857 322.531 429.025C321.797 437.211 313.952 446.381 309.826 448.048C309.31 453.259 309.218 459.194 309.218 459.194C309.218 459.194 321.132 456.289 328.774 446.9C339.305 445.942 348.368 429.905 340.345 403.574H312.728Z" fill="#10A8CB" style="fill:#10A8CB;fill:color(display-p3 0.0627 0.6588 0.7961);fill-opacity:1;"/>
<path d="M164.991 352.958C165.076 353.85 165.509 354.673 166.198 355.249C166.887 355.826 167.776 356.11 168.673 356.04H171.434C171.882 356.009 172.319 355.888 172.718 355.686C173.119 355.483 173.473 355.203 173.762 354.861C174.051 354.519 174.268 354.122 174.4 353.695C174.532 353.269 174.576 352.819 174.53 352.375C174.445 351.483 174.011 350.66 173.323 350.083C172.634 349.507 171.745 349.222 170.848 349.292H168.087C167.2 349.397 166.386 349.834 165.81 350.515C165.236 351.196 164.942 352.069 164.991 352.958Z" fill="#22376C" style="fill:#22376C;fill:color(display-p3 0.1333 0.2157 0.4235);fill-opacity:1;"/>
<path d="M170.262 280.475C170.211 280.101 170.303 279.723 170.521 279.414C170.738 279.106 171.063 278.889 171.434 278.809C171.805 278.776 172.177 278.876 172.483 279.089C172.789 279.302 173.01 279.616 173.107 279.975C173.107 280.475 180.387 331.043 186.076 339.958C186.68 340.963 187.411 341.887 188.251 342.707C188.858 341.954 189.391 341.145 189.841 340.291C194.862 330.96 198.209 279.975 198.209 279.476C198.229 279.289 198.287 279.108 198.378 278.945C198.47 278.78 198.593 278.636 198.741 278.519C198.889 278.403 199.059 278.317 199.24 278.267C199.421 278.217 199.611 278.202 199.799 278.226C200.16 278.268 200.493 278.447 200.727 278.726C200.961 279.005 201.077 279.363 201.053 279.726C201.053 281.808 197.456 331.71 192.184 341.624C191.621 342.645 190.978 343.62 190.259 344.539C194.089 347.155 198.523 348.76 203.145 349.205C203.328 349.204 203.509 349.242 203.678 349.313C203.846 349.386 203.997 349.492 204.123 349.625C204.249 349.757 204.345 349.914 204.408 350.085C204.469 350.257 204.495 350.439 204.484 350.621C204.462 350.982 204.303 351.321 204.039 351.569C203.774 351.817 203.425 351.955 203.061 351.954C197.748 351.585 192.646 349.737 188.335 346.622C184.174 350.305 179.03 352.706 173.525 353.537C173.155 353.517 172.805 353.361 172.541 353.1C172.279 352.839 172.123 352.49 172.102 352.121C172.1 351.772 172.227 351.435 172.459 351.174C172.69 350.912 173.01 350.746 173.358 350.705C178.168 349.952 182.681 347.907 186.41 344.789C185.404 343.776 184.506 342.658 183.733 341.457C177.792 332.043 170.681 282.475 170.346 280.392L170.262 280.475Z" fill="#63A2D8" style="fill:#63A2D8;fill:color(display-p3 0.3882 0.6353 0.8471);fill-opacity:1;"/>
<path d="M211.766 350.774C211.723 351.672 211.334 352.52 210.679 353.141C210.025 353.761 209.156 354.107 208.252 354.106H205.49C205.044 354.106 204.602 354.017 204.19 353.844C203.778 353.672 203.406 353.419 203.093 353.101C202.782 352.782 202.537 352.405 202.374 351.991C202.211 351.577 202.132 351.135 202.144 350.691C202.185 349.806 202.563 348.97 203.2 348.352C203.836 347.733 204.685 347.378 205.574 347.358H208.419C209.315 347.379 210.166 347.749 210.791 348.388C211.416 349.026 211.766 349.882 211.766 350.774Z" fill="#22376C" style="fill:#22376C;fill:color(display-p3 0.1333 0.2157 0.4235);fill-opacity:1;"/>
<path d="M273.262 340.365C273.505 343.158 274.576 345.816 276.338 348.004C278.1 350.19 280.474 351.807 283.16 352.649C285.845 353.491 288.722 353.521 291.425 352.735C294.127 351.948 296.535 350.381 298.342 348.231C300.149 346.081 301.275 343.446 301.577 340.658C301.878 337.871 301.342 335.057 300.037 332.573C298.731 330.089 296.714 328.048 294.241 326.706C291.769 325.364 288.952 324.783 286.148 325.036C282.401 325.375 278.94 327.178 276.525 330.051C274.11 332.924 272.937 336.633 273.262 340.365Z" fill="#63A2D8" style="fill:#63A2D8;fill:color(display-p3 0.3882 0.6353 0.8471);fill-opacity:1;"/>
<path d="M280.21 339.777C280.331 341.191 280.872 342.536 281.761 343.643C282.652 344.75 283.852 345.57 285.211 345.997C286.569 346.425 288.024 346.441 289.391 346.045C290.759 345.648 291.977 344.856 292.893 343.77C293.808 342.683 294.379 341.35 294.533 339.94C294.688 338.531 294.418 337.107 293.759 335.85C293.099 334.592 292.08 333.558 290.83 332.878C289.58 332.198 288.155 331.903 286.737 332.03C284.84 332.199 283.089 333.11 281.866 334.561C280.643 336.014 280.047 337.889 280.21 339.777Z" fill="#22376C" style="fill:#22376C;fill:color(display-p3 0.1333 0.2157 0.4235);fill-opacity:1;"/>
<path d="M274.602 176.837C269.949 171.929 264.291 168.072 258.012 165.528C251.732 162.985 243.894 190.419 237.12 190.698C229.422 190.264 222.81 162.995 215.715 166C208.62 169.005 202.314 173.597 197.289 179.419C186.271 194.78 180.76 213.383 181.642 232.238C181.46 241.714 182.076 251.189 183.483 260.562C179.659 260.822 176.087 262.555 173.526 265.395C170.205 269.84 168.736 275.392 169.426 280.89C169.467 281.187 169.567 281.472 169.72 281.73C169.873 281.988 170.077 282.212 170.318 282.391C170.559 282.57 170.835 282.698 171.127 282.769C171.419 282.841 171.723 282.853 172.02 282.806C172.612 282.723 173.149 282.418 173.522 281.954C173.895 281.489 174.077 280.9 174.028 280.307C173.521 276.102 174.594 271.859 177.04 268.394C178.206 267.203 179.618 266.281 181.179 265.691C182.74 265.101 184.411 264.858 186.077 264.978C187.501 264.895 188.927 265.119 190.256 265.637C191.585 266.155 192.785 266.953 193.775 267.977C196.439 271.766 197.682 276.365 197.289 280.974C197.241 281.278 197.259 281.588 197.341 281.885C197.424 282.182 197.569 282.457 197.767 282.694C197.965 282.93 198.212 283.122 198.489 283.256C198.768 283.391 199.072 283.464 199.38 283.473C199.956 283.458 200.507 283.241 200.937 282.86C201.365 282.478 201.644 281.957 201.723 281.39C202.204 275.457 200.542 269.549 197.037 264.728C194.686 262.137 191.417 260.554 187.918 260.313C186.484 250.997 185.839 241.577 185.993 232.154C185.993 217.075 189.006 196.081 200.636 182.169C205.224 176.868 210.977 172.689 217.449 169.959C223.921 167.228 229.852 194.626 236.869 195.03C243.004 194.692 250.223 167.098 255.921 169.387C261.618 171.676 266.74 175.187 270.921 179.67C296.022 206.911 290.5 271.31 286.484 318.962C285.814 325.877 285.313 332.458 284.811 338.623C284.786 339.237 284.997 339.837 285.401 340.301C285.806 340.765 286.372 341.059 286.986 341.123C287.574 341.105 288.136 340.876 288.566 340.478C288.997 340.079 289.268 339.539 289.328 338.956C289.747 332.875 290.333 326.294 290.918 319.379C295.019 271.226 300.708 205.329 274.184 176.504L274.602 176.837Z" fill="#22376C" style="fill:#22376C;fill:color(display-p3 0.1333 0.2157 0.4235);fill-opacity:1;"/>
<rect x="234.979" y="178.076" width="4.88252" height="23.1569" fill="#10A8CB" style="fill:#10A8CB;fill:color(display-p3 0.0627 0.6588 0.7961);fill-opacity:1;"/>
<path d="M219.818 166.968L234.982 168.446V196.474L219.523 190.808L217.523 174.299L219.818 166.968Z" fill="#86CFEC" style="fill:#86CFEC;fill:color(display-p3 0.5255 0.8118 0.9255);fill-opacity:1;"/>
<path d="M215.742 173.488L218.787 164.055L220.782 163.81L217.562 174.187L215.742 173.488Z" fill="#10A8CB" style="fill:#10A8CB;fill:color(display-p3 0.0627 0.6588 0.7961);fill-opacity:1;"/>
<path d="M205.442 178.804C204.738 177.371 202.072 175.557 200.812 174.533L199.845 168.449L210.394 165.261H218.364L216.782 170.292L216.049 171.667L210.153 176.176C208.817 177.53 206.004 179.951 205.442 178.804Z" fill="#86CFEC" style="fill:#86CFEC;fill:color(display-p3 0.5255 0.8118 0.9255);fill-opacity:1;"/>
<path d="M251.902 166.628L239.926 178.88L239.86 191.84L239.926 204.7L243.388 197.988L247.55 195.688C247.55 195.688 247.104 190.495 247.178 189.308C247.238 188.358 250.352 181.493 251.902 178.18L258.798 171.994L256.624 165.156H256.291L251.902 166.628Z" fill="#86CFEC" style="fill:#86CFEC;fill:color(display-p3 0.5255 0.8118 0.9255);fill-opacity:1;"/>
<path d="M259.611 174.706L256.5 164.692L258.311 164.298L261.478 174.207L259.611 174.706Z" fill="#10A8CB" style="fill:#10A8CB;fill:color(display-p3 0.0627 0.6588 0.7961);fill-opacity:1;"/>
<path d="M269.961 178.69C270.192 177.833 272.735 175.426 274.486 174.14C274.865 172.695 275.624 169.686 275.624 169.22C275.624 168.638 268.54 165.476 268.331 165.435C268.165 165.401 261.76 165.07 258.578 164.909L260.552 171.381L261.636 174.023L265.338 179.943C266.802 179.811 269.776 179.376 269.961 178.69Z" fill="#86CFEC" style="fill:#86CFEC;fill:color(display-p3 0.5255 0.8118 0.9255);fill-opacity:1;"/>
<rect x="46.4355" y="409.28" width="135.048" height="85.925" rx="4.79995" fill="#E95847" style="fill:#E95847;fill:color(display-p3 0.9137 0.3451 0.2784);fill-opacity:1;"/>
<rect x="51.7798" y="415.489" width="124.36" height="77.4903" rx="4.79995" fill="#FF7666" style="fill:#FF7666;fill:color(display-p3 1.0000 0.4616 0.3985);fill-opacity:1;"/>
<path d="M147.687 394.663C148.503 394.663 149.164 395.324 149.165 396.139V416.826H142.142V401.763C142.142 400.948 141.48 400.287 140.665 400.287H87.2515C86.436 400.287 85.7749 400.948 85.7749 401.763V416.826H78.7505V396.139C78.7507 395.324 79.4116 394.663 80.2271 394.663H147.687Z" fill="black" style="fill:black;fill-opacity:1;"/>
<ellipse cx="113.96" cy="454.234" rx="22.2095" ry="21.1595" fill="white" style="fill:white;fill-opacity:1;"/>
<rect x="111.117" y="440.466" width="5.68371" height="27.5369" fill="#CA473D" style="fill:#CA473D;fill:color(display-p3 0.7922 0.2784 0.2392);fill-opacity:1;"/>
<rect x="128.412" y="450.974" width="5.41502" height="28.9033" transform="rotate(90 128.412 450.974)" fill="#CA473D" style="fill:#CA473D;fill:color(display-p3 0.7922 0.2784 0.2392);fill-opacity:1;"/>
<path d="M105.915 383.309L128.989 381.616C135.1 381.17 134.586 375.592 134.586 375.592C133.901 367.088 134.075 364.163 127.216 365.218L105.453 367.344C98.9778 367.477 99.0815 383.654 105.915 383.309Z" fill="#DEEBF8" style="fill:#DEEBF8;fill:color(display-p3 0.8706 0.9216 0.9725);fill-opacity:1;"/>
<path d="M105.089 383.113C105.089 383.113 99.6291 400.133 109.265 410.427C111.489 410.889 113.794 408.144 112.394 397.019L134.598 394.746C134.598 394.746 134.496 387.51 129.91 381.478C116.447 382.39 105.089 383.113 105.089 383.113Z" fill="#10A8CB" style="fill:#10A8CB;fill:color(display-p3 0.0627 0.6588 0.7961);fill-opacity:1;"/>
<path d="M117.464 412.569C111.251 409.754 112.43 399.902 112.215 391.24L119.499 384.853L133.469 388.97C134.469 393.987 136.572 405.077 135.458 408.888C134.066 413.652 123.676 415.384 117.464 412.569Z" fill="#10A8CB" style="fill:#10A8CB;fill:color(display-p3 0.0627 0.6588 0.7961);fill-opacity:1;"/>
</svg>
