<svg width="500" height="500" viewBox="0 0 500 500" fill="none" xmlns="http://www.w3.org/2000/svg">
<path d="M16.1775 388.526V144.845C16.9382 140.439 18.8666 136.327 21.755 132.954C24.6433 129.581 28.3818 127.074 32.5675 125.703H161.834C163.38 125.704 164.863 126.329 165.956 127.442L193.888 155.859H430.309C433.874 157.164 437.043 159.391 439.503 162.321C441.964 165.251 443.632 168.783 444.342 172.568V491.226H15.6523L16.1775 388.526Z" fill="#40A5D7" style="fill:#40A5D7;fill:color(display-p3 0.2510 0.6471 0.8431);fill-opacity:1;"/>
<path d="M26.5148 379.09L30.4922 326.803L40.0224 226.775C40.0224 226.775 44.268 213.294 53.273 212.487C62.2781 211.68 221.252 211.952 224.961 211.68C228.67 211.407 235.564 205.746 236.614 202.245C237.664 198.744 236.614 179.33 254.11 179.33C271.606 179.33 472.164 179.125 474.019 179.125C475.874 179.125 488.856 183.172 490.443 196.107C489.906 210.395 470.332 414.179 470.332 414.179L461.584 488.063L113.683 489.598H18.8281L26.5148 379.09Z" fill="#7FCAF7" style="fill:#7FCAF7;fill:color(display-p3 0.4980 0.7922 0.9686);fill-opacity:1;"/>
<path d="M323.253 322.484C323.253 326.371 322.817 336.658 313.533 352.935H272.429L262.295 313.902L245.28 365.314L231.437 315.368L219.147 353.208H181.015C171.34 337.295 172.714 320.676 172.491 318.71C172.234 316.278 176.468 292.566 199.785 285.007C223.102 277.448 238.207 292.021 248.006 302.796C254.899 293.908 263.111 280.972 291.199 283.928C319.286 286.883 323.253 318.164 323.253 322.484Z" fill="#E95847" style="fill:#E95847;fill:color(display-p3 0.9137 0.3451 0.2784);fill-opacity:1;"/>
<path d="M310.955 357.257L310.273 358.394C297.816 377.797 269.471 401.247 247.707 419.843C247.707 419.843 200.548 380.764 189.42 363.782C187.424 361.866 185.582 359.791 183.912 357.576H222.223L231.161 330.182L244.925 379.98L261.818 328.954L269.17 357.314L310.955 357.257Z" fill="#E95847" style="fill:#E95847;fill:color(display-p3 0.9137 0.3451 0.2784);fill-opacity:1;"/>
<path d="M313.534 352.937C312.741 354.335 311.88 355.767 310.953 357.256H269.157L261.805 328.896L244.912 379.922L231.148 330.124L222.21 357.518H183.944C182.827 356.097 181.899 354.653 181.017 353.21H219.148L231.438 315.37L245.236 365.315L262.252 313.903L272.385 352.937H313.534Z" fill="#40A5D7" style="fill:#40A5D7;fill:color(display-p3 0.2510 0.6471 0.8431);fill-opacity:1;"/>
<path d="M313.534 352.937C312.741 354.335 311.88 355.767 310.953 357.256H269.157L261.805 328.896L244.912 379.922L231.148 330.124L222.21 357.518H183.944C182.827 356.097 181.899 354.653 181.017 353.21H219.148L231.438 315.37L245.236 365.315L262.252 313.903L272.385 352.937H313.534Z" fill="white" style="fill:white;fill-opacity:1;"/>
<path d="M300.378 29.2543C300.378 29.2543 298.949 85.914 300.087 96.433C301.225 106.952 305.257 146.097 330.524 173.847C355.948 201.808 377.898 217.365 394.544 220.875C400.005 220.875 426.991 204.863 432.451 201.007C437.911 197.152 469.776 170.928 479.534 138.497C489.292 106.065 489.583 98.4777 489.583 83.586C489.583 68.6944 490.152 31.8532 490.443 29.5499C486.714 30.1288 454.703 37.8764 428.577 28.5276C402.45 19.1787 395.271 11 395.271 11C395.271 11 381.481 25.3128 355.076 30.5723C338.488 33.899 321.421 33.899 304.833 30.5723C303.308 30.2868 301.815 29.8453 300.378 29.2543Z" fill="#40A5D7" style="fill:#40A5D7;fill:color(display-p3 0.2510 0.6471 0.8431);fill-opacity:1;"/>
<path d="M481.252 39.0231C480.998 41.1047 480.477 73.8195 480.477 87.0607C480.477 100.302 480.223 107.052 471.458 135.874C462.692 164.697 434.144 188.063 429.193 191.438C424.241 194.813 400.136 209.089 395.173 209.089C394.773 209.015 394.374 208.916 393.962 208.818V24.2177C395.173 23.1707 395.802 22.5425 395.802 22.5425C395.802 22.5425 402.243 29.8097 425.706 38.1116C449.169 46.4135 477.898 39.5404 481.252 39.0231Z" fill="#E95847" style="fill:#E95847;fill:color(display-p3 0.9137 0.3451 0.2784);fill-opacity:1;"/>
<path d="M393.975 24.2163V208.816C379.18 205.232 359.943 191.486 337.702 167.294C315.026 142.66 311.406 107.826 310.377 98.4775C309.348 89.1287 310.644 38.7631 310.644 38.7631C311.932 39.2934 313.271 39.6856 314.639 39.9332C329.531 42.8949 344.845 42.8949 359.737 39.9332C378.151 36.3119 389.725 27.8253 393.975 24.2163Z" fill="#E95847" style="fill:#E95847;fill:color(display-p3 0.9137 0.3451 0.2784);fill-opacity:1;"/>
<path opacity="0.13" d="M393.975 24.2163V208.816C379.18 205.232 359.943 191.486 337.702 167.294C315.026 142.66 311.406 107.826 310.377 98.4775C309.348 89.1287 310.644 38.7631 310.644 38.7631C311.932 39.2934 313.271 39.6856 314.639 39.9332C329.531 42.8949 344.845 42.8949 359.737 39.9332C378.151 36.3119 389.725 27.8253 393.975 24.2163Z" fill="#0C0C0C" style="fill:#0C0C0C;fill:color(display-p3 0.0471 0.0471 0.0471);fill-opacity:1;"/>
<path d="M423.162 95.5522H375.031V143.835H423.162V95.5522Z" fill="#ECECEC" fill-opacity="0.75" style="fill:#ECECEC;fill:color(display-p3 0.9268 0.9268 0.9268);fill-opacity:0.75;"/>
<path d="M418.414 55.1765C413.578 50.255 407.415 46.9034 400.706 45.5454C393.997 44.1875 387.043 44.8843 380.723 47.5476C374.404 50.211 369.002 54.7213 365.202 60.5081C361.402 66.2949 359.374 73.0983 359.375 80.0577V102.578H428.549V80.0577C428.553 75.4358 427.661 70.8584 425.921 66.5885C424.182 62.3186 421.631 58.4404 418.414 55.1765ZM369.644 79.8845C369.644 73.4138 372.171 67.2082 376.668 62.6328C381.165 58.0574 387.265 55.4869 393.625 55.4869C399.985 55.4869 406.084 58.0574 410.582 62.6328C415.079 67.2082 417.605 73.4138 417.605 79.8845V89.733H369.644V79.8845Z" fill="white" style="fill:white;fill-opacity:1;"/>
<path d="M430.77 89.3931H357.154C354.931 89.3931 352.799 90.2915 351.227 91.8906C349.656 93.4898 348.772 95.6587 348.772 97.9203V142.686C348.772 144.948 349.656 147.117 351.227 148.716C352.799 150.315 354.931 151.214 357.154 151.214H430.77C432.993 151.214 435.125 150.315 436.697 148.716C438.269 147.117 439.152 144.948 439.152 142.686V97.9203C439.152 95.6587 438.269 93.4898 436.697 91.8906C435.125 90.2915 432.993 89.3931 430.77 89.3931ZM401.787 134.426L385.797 134.592L389.26 120.874C387.62 119.889 386.341 118.386 385.616 116.594C384.891 114.802 384.761 112.819 385.245 110.945C385.729 109.07 386.801 107.408 388.298 106.21C389.795 105.012 391.635 104.343 393.539 104.306C395.444 104.268 397.308 104.864 398.849 106.003C400.39 107.141 401.525 108.76 402.079 110.614C402.634 112.467 402.579 114.455 401.923 116.274C401.267 118.093 400.046 119.645 398.444 120.693L401.787 134.426Z" fill="#0087C9" style="fill:#0087C9;fill:color(display-p3 0.0000 0.5285 0.7901);fill-opacity:1;"/>
</svg>
