<svg width="500" height="500" viewBox="0 0 500 500" fill="none" xmlns="http://www.w3.org/2000/svg">
<path d="M268.897 311.12L277.799 479.957C277.799 479.957 274.31 496.974 214.828 496.974L202.437 467.575L189.867 496.974C130.444 496.974 126.956 479.957 126.956 479.957L133.271 397.064C134.781 369.116 134.439 341.096 132.249 313.194C130.865 305.082 106.868 224.262 139.586 207.916C151.134 202.121 185.537 200.779 185.537 200.779H219.158C219.158 200.779 253.621 202.121 265.168 207.916C288.805 219.749 316.592 311.181 316.592 311.181L384.676 247.319L405.125 271.29C405.125 271.29 329.824 376.935 306.427 374.983C284.355 373.275 268.897 311.181 268.897 311.181V311.12Z" fill="#DEEBF8" style="fill:#DEEBF8;fill:color(display-p3 0.8706 0.9216 0.9725);fill-opacity:1;"/>
<path d="M185.48 200.779H219.161L225.897 201.145C225.897 201.145 223.732 257.078 202.32 301.361C180.909 257.078 178.744 201.145 178.744 201.145L185.48 200.779Z" fill="#63A2D8" style="fill:#63A2D8;fill:color(display-p3 0.3882 0.6353 0.8471);fill-opacity:1;"/>
<path d="M190.288 224.136C190.796 220.924 192.198 217.926 194.329 215.495C196.46 213.064 199.231 211.3 202.317 210.412C205.413 211.28 208.196 213.037 210.33 215.472C212.464 217.907 213.859 220.916 214.346 224.136C213.549 225.576 212.453 226.824 211.135 227.793C209.816 228.762 208.305 229.429 206.707 229.747L210.737 280.801C210.737 280.801 203.46 298.734 202.317 301.356L194.077 280.801L198.167 229.747C196.562 229.425 195.045 228.758 193.717 227.789C192.389 226.821 191.281 225.575 190.468 224.136H190.288Z" fill="#22376C" style="fill:#22376C;fill:color(display-p3 0.1333 0.2157 0.4235);fill-opacity:1;"/>
<path d="M226.014 219.388C225.924 219.284 225.813 219.201 225.688 219.144C225.564 219.087 225.429 219.058 225.292 219.058C225.156 219.058 225.021 219.087 224.897 219.144C224.772 219.201 224.661 219.284 224.57 219.388C221.827 221.997 218.87 224.364 215.729 226.464C215.539 222.578 214.164 218.848 211.794 215.788C209.424 212.729 206.176 210.492 202.498 209.385H202.137C198.563 210.479 195.383 212.61 192.989 215.514C190.595 218.419 189.092 221.971 188.665 225.732C183.973 223.048 180.424 220.791 180.424 220.791C180.19 220.648 179.912 220.599 179.644 220.656C179.376 220.712 179.139 220.87 178.981 221.096C178.843 221.324 178.797 221.597 178.853 221.859C178.909 222.12 179.063 222.349 179.282 222.499C179.282 222.499 183.492 225.183 188.845 228.172C188.957 228.247 189.084 228.297 189.217 228.319C189.35 228.342 189.486 228.335 189.617 228.301C189.747 228.266 189.869 228.204 189.974 228.119C190.08 228.033 190.166 227.927 190.228 227.806C190.254 227.685 190.254 227.56 190.228 227.439C190.465 223.865 191.731 220.44 193.868 217.588C196.007 214.736 198.924 212.584 202.257 211.398C205.73 212.54 208.74 214.804 210.825 217.844C212.91 220.884 213.956 224.533 213.805 228.232C213.812 228.369 213.847 228.502 213.905 228.625C213.964 228.748 214.046 228.858 214.146 228.948C214.247 229.039 214.364 229.109 214.492 229.154C214.619 229.198 214.753 229.217 214.887 229.208C215.042 229.27 215.214 229.27 215.368 229.208C219.142 226.804 222.686 224.047 225.954 220.974C226.082 220.888 226.188 220.774 226.262 220.639C226.338 220.503 226.38 220.352 226.386 220.197C226.392 220.042 226.361 219.887 226.296 219.747C226.232 219.606 226.135 219.483 226.014 219.388Z" fill="#DEEBF8" style="fill:#DEEBF8;fill:color(display-p3 0.8706 0.9216 0.9725);fill-opacity:1;"/>
<path d="M246.464 465.255C237.303 464.677 228.261 462.851 219.58 459.826C219.389 459.762 219.223 459.64 219.104 459.476C218.986 459.312 218.92 459.114 218.918 458.911L216.392 424.51C216.39 424.216 216.497 423.933 216.693 423.717C216.824 423.652 216.968 423.618 217.114 423.618C217.259 423.618 217.404 423.652 217.535 423.717C219.76 423.717 222.226 423.717 224.933 423.717C237.164 423.44 249.354 422.155 261.38 419.874C261.643 419.819 261.917 419.872 262.142 420.02C262.367 420.169 262.526 420.401 262.583 420.667L264.928 452.384C265.017 452.621 265.017 452.881 264.928 453.117C259.832 458.213 253.806 462.253 247.186 465.011H246.765L246.464 465.255ZM220.843 458.118C229.057 460.889 237.586 462.59 246.224 463.181C252.34 460.52 257.957 456.805 262.824 452.201L260.599 422.13C248.802 424.294 236.857 425.518 224.872 425.791C222.587 425.791 220.421 425.791 218.437 425.791L220.843 458.118ZM194.078 453.178C194.94 453.178 195.766 453.525 196.375 454.142C196.984 454.76 197.326 455.598 197.326 456.471C197.326 457.345 196.984 458.183 196.375 458.8C195.766 459.418 194.94 459.765 194.078 459.765C193.217 459.765 192.391 459.418 191.782 458.8C191.173 458.183 190.831 457.345 190.831 456.471C190.831 455.598 191.173 454.76 191.782 454.142C192.391 453.525 193.217 453.178 194.078 453.178ZM194.078 407.492C194.721 407.492 195.349 407.685 195.883 408.047C196.417 408.409 196.833 408.923 197.079 409.525C197.325 410.127 197.389 410.789 197.264 411.428C197.138 412.067 196.829 412.654 196.375 413.115C195.92 413.575 195.342 413.889 194.712 414.016C194.082 414.143 193.429 414.078 192.835 413.829C192.242 413.579 191.735 413.157 191.378 412.615C191.021 412.074 190.831 411.437 190.831 410.786C190.831 409.912 191.173 409.074 191.782 408.457C192.391 407.839 193.217 407.492 194.078 407.492ZM194.078 368.394C193.436 368.394 192.808 368.2 192.274 367.839C191.74 367.477 191.324 366.962 191.078 366.36C190.832 365.758 190.768 365.096 190.893 364.457C191.018 363.818 191.328 363.231 191.782 362.771C192.236 362.31 192.815 361.996 193.445 361.869C194.075 361.742 194.728 361.807 195.321 362.057C195.915 362.306 196.422 362.728 196.779 363.27C197.135 363.811 197.326 364.448 197.326 365.1C197.326 365.974 196.984 366.811 196.375 367.429C195.766 368.046 194.94 368.394 194.078 368.394ZM194.078 322.646C193.433 322.646 192.803 322.452 192.268 322.087C191.732 321.722 191.317 321.204 191.073 320.599C190.829 319.993 190.768 319.328 190.898 318.688C191.028 318.047 191.344 317.46 191.804 317.002C192.264 316.544 192.848 316.235 193.483 316.115C194.116 315.995 194.771 316.069 195.364 316.328C195.956 316.586 196.459 317.018 196.808 317.568C197.158 318.117 197.338 318.76 197.326 319.414C197.31 320.277 196.961 321.099 196.354 321.704C195.746 322.308 194.929 322.647 194.078 322.646ZM158.954 465.255H158.533C151.891 462.538 145.857 458.493 140.79 453.36C140.737 453.246 140.709 453.121 140.709 452.995C140.709 452.868 140.737 452.743 140.79 452.629L143.136 420.911C143.143 420.777 143.177 420.646 143.237 420.526C143.296 420.406 143.379 420.3 143.481 420.214C143.582 420.128 143.7 420.065 143.827 420.027C143.954 419.99 144.087 419.979 144.218 419.996C156.245 422.277 168.434 423.562 180.666 423.839C183.312 423.839 185.839 423.839 188.064 423.839C188.325 423.821 188.584 423.907 188.786 424.077C188.987 424.247 189.116 424.49 189.147 424.754L186.621 459.155C186.628 459.361 186.566 459.563 186.446 459.729C186.326 459.895 186.154 460.016 185.959 460.07C177.28 463.101 168.236 464.927 159.074 465.499L158.954 465.255ZM142.594 452.201C147.421 456.828 153.022 460.546 159.134 463.181C167.791 462.585 176.339 460.884 184.575 458.118L186.921 425.546C184.936 425.546 182.771 425.546 180.546 425.546C168.561 425.274 156.616 424.05 144.82 421.887L142.594 452.201Z" fill="#63A2D8" style="fill:#63A2D8;fill:color(display-p3 0.3882 0.6353 0.8471);fill-opacity:1;"/>
<path d="M123.287 434.688C123.287 435.236 89.9065 443.776 89.9065 443.776C82.3884 385.342 80.8848 385.586 79.321 340.083C78.479 315.685 103.98 220.532 141.511 207.356C142.473 235.536 134.293 287.505 134.293 287.505C134.293 287.505 117.573 337.033 116.972 343.438C115.528 360.029 114.024 365.701 123.287 434.932V434.688Z" fill="#DEEBF8" style="fill:#DEEBF8;fill:color(display-p3 0.8706 0.9216 0.9725);fill-opacity:1;"/>
<path d="M92.8565 442.99C89.4884 448.663 82.8725 461.289 84.6768 465.864C86.4812 470.438 90.6913 470.621 90.6913 470.621C90.6913 470.621 91.1123 477.88 101.156 477.148C105.547 481.417 108.193 484.894 113.486 482.028C115.832 486.968 121.485 490.628 123.29 487.578C125.094 484.528 125.575 472.634 124.914 458.91C135.8 473.854 142.957 465.01 142.957 465.01C140.191 459.459 136.908 454.189 133.153 449.272C128.222 442.624 125.335 437.073 123.29 434.451L92.8565 442.99Z" fill="#F9BF82" style="fill:#F9BF82;fill:color(display-p3 0.9765 0.7490 0.5098);fill-opacity:1;"/>
<path d="M202.323 468.595C202.056 468.581 201.804 468.467 201.616 468.275C201.427 468.084 201.315 467.829 201.3 467.558V312.325C201.3 312.049 201.408 311.785 201.6 311.591C201.792 311.397 202.052 311.288 202.323 311.288C202.594 311.288 202.854 311.397 203.046 311.591C203.237 311.785 203.345 312.049 203.345 312.325V467.558C203.331 467.829 203.218 468.084 203.03 468.275C202.841 468.467 202.589 468.581 202.323 468.595Z" fill="#63A2D8" style="fill:#63A2D8;fill:color(display-p3 0.3882 0.6353 0.8471);fill-opacity:1;"/>
<path d="M173.448 254.024L165.749 261.77L202.317 314.41L238.945 261.892L231.247 254.146L244.719 249.998L235.818 203.641L225.894 203.031C223.695 231.912 217.625 260.354 207.85 287.571L202.197 301.235C189.122 269.983 181.198 236.766 178.74 202.91L168.817 203.58L159.915 249.937L173.448 254.024Z" fill="white" style="fill:white;fill-opacity:1;"/>
<path d="M150.233 331.684C150.294 332.337 150.606 332.939 151.101 333.361C151.596 333.784 152.235 333.991 152.88 333.94H154.865C155.186 333.918 155.5 333.829 155.788 333.681C156.075 333.533 156.33 333.327 156.538 333.077C156.746 332.827 156.902 332.536 156.997 332.224C157.091 331.911 157.123 331.582 157.09 331.257C157.029 330.604 156.717 330.001 156.222 329.579C155.727 329.157 155.088 328.949 154.443 329H152.459C151.821 329.077 151.236 329.396 150.822 329.895C150.409 330.394 150.198 331.033 150.233 331.684Z" fill="#22376C" style="fill:#22376C;fill:color(display-p3 0.1333 0.2157 0.4235);fill-opacity:1;"/>
<path d="M154.022 278.614C153.985 278.341 154.052 278.064 154.208 277.837C154.364 277.612 154.598 277.453 154.864 277.394C155.132 277.371 155.399 277.443 155.619 277.599C155.839 277.756 155.997 277.986 156.067 278.248C156.067 278.614 161.3 315.639 165.39 322.165C165.823 322.901 166.349 323.578 166.953 324.178C167.389 323.627 167.772 323.035 168.096 322.409C171.705 315.578 174.111 278.248 174.111 277.883C174.126 277.746 174.167 277.614 174.233 277.494C174.299 277.373 174.387 277.268 174.493 277.182C174.6 277.098 174.722 277.034 174.852 276.998C174.982 276.961 175.119 276.95 175.253 276.968C175.514 276.998 175.753 277.129 175.921 277.334C176.089 277.538 176.172 277.8 176.155 278.066C176.155 279.59 173.569 316.127 169.78 323.385C169.375 324.133 168.913 324.846 168.396 325.52C171.149 327.435 174.336 328.61 177.659 328.936C177.791 328.935 177.921 328.963 178.042 329.015C178.163 329.068 178.271 329.146 178.362 329.243C178.452 329.34 178.521 329.455 178.566 329.58C178.611 329.706 178.63 329.84 178.621 329.973C178.606 330.237 178.491 330.485 178.301 330.667C178.111 330.848 177.86 330.949 177.599 330.949C173.779 330.678 170.112 329.326 167.013 327.045C164.022 329.741 160.324 331.5 156.368 332.108C156.102 332.093 155.85 331.979 155.661 331.788C155.472 331.596 155.36 331.341 155.345 331.071C155.344 330.816 155.434 330.569 155.601 330.377C155.768 330.186 155.998 330.064 156.247 330.034C159.705 329.482 162.949 327.985 165.63 325.703C164.906 324.961 164.261 324.143 163.706 323.263C159.435 316.37 154.323 280.078 154.082 278.553L154.022 278.614Z" fill="#63A2D8" style="fill:#63A2D8;fill:color(display-p3 0.3882 0.6353 0.8471);fill-opacity:1;"/>
<path d="M183.856 330.085C183.825 330.743 183.545 331.363 183.075 331.818C182.605 332.272 181.98 332.526 181.33 332.525H179.345C179.024 332.525 178.706 332.46 178.41 332.333C178.114 332.207 177.847 332.022 177.622 331.789C177.398 331.556 177.222 331.279 177.105 330.976C176.988 330.673 176.931 330.349 176.939 330.024C176.969 329.376 177.241 328.764 177.698 328.312C178.156 327.859 178.766 327.599 179.405 327.584H181.45C182.094 327.6 182.705 327.87 183.155 328.338C183.604 328.805 183.856 329.432 183.856 330.085Z" fill="#22376C" style="fill:#22376C;fill:color(display-p3 0.1333 0.2157 0.4235);fill-opacity:1;"/>
<path d="M228.06 322.464C228.235 324.509 229.005 326.455 230.271 328.056C231.538 329.657 233.244 330.841 235.175 331.458C237.105 332.074 239.173 332.096 241.116 331.52C243.058 330.945 244.789 329.797 246.088 328.223C247.387 326.649 248.196 324.719 248.413 322.679C248.63 320.638 248.244 318.578 247.306 316.759C246.367 314.94 244.918 313.445 243.14 312.463C241.363 311.48 239.338 311.055 237.322 311.241C234.629 311.488 232.142 312.809 230.406 314.912C228.67 317.016 227.826 319.731 228.06 322.464Z" fill="#63A2D8" style="fill:#63A2D8;fill:color(display-p3 0.3882 0.6353 0.8471);fill-opacity:1;"/>
<path d="M233.053 322.033C233.14 323.068 233.528 324.053 234.168 324.864C234.808 325.675 235.671 326.274 236.647 326.587C237.623 326.9 238.669 326.912 239.652 326.622C240.636 326.332 241.511 325.752 242.169 324.956C242.827 324.161 243.237 323.185 243.348 322.153C243.459 321.121 243.265 320.078 242.792 319.158C242.317 318.237 241.585 317.48 240.687 316.982C239.788 316.484 238.764 316.268 237.744 316.361C236.381 316.485 235.122 317.152 234.243 318.214C233.364 319.278 232.936 320.651 233.053 322.033Z" fill="#22376C" style="fill:#22376C;fill:color(display-p3 0.1333 0.2157 0.4235);fill-opacity:1;"/>
<path d="M229.022 202.735C225.677 199.141 221.611 196.317 217.097 194.455C212.583 192.592 207.728 191.734 202.859 191.938C197.325 191.621 191.794 192.6 186.694 194.8C181.593 197 177.061 200.362 173.449 204.625C165.529 215.872 161.568 229.492 162.201 243.297C162.071 250.235 162.514 257.172 163.525 264.035C160.776 264.225 158.209 265.494 156.368 267.573C153.98 270.828 152.924 274.893 153.421 278.919C153.45 279.136 153.522 279.345 153.632 279.534C153.742 279.722 153.888 279.887 154.062 280.018C154.235 280.148 154.433 280.242 154.644 280.294C154.853 280.347 155.072 280.356 155.285 280.321C155.71 280.261 156.097 280.037 156.365 279.697C156.633 279.357 156.764 278.925 156.729 278.491C156.364 275.413 157.136 272.306 158.894 269.769C159.731 268.897 160.747 268.222 161.869 267.791C162.991 267.359 164.192 267.18 165.39 267.268C166.413 267.207 167.438 267.372 168.394 267.751C169.348 268.13 170.211 268.714 170.923 269.464C172.838 272.238 173.732 275.605 173.449 278.98C173.414 279.202 173.427 279.429 173.487 279.647C173.546 279.864 173.65 280.066 173.793 280.239C173.935 280.412 174.112 280.553 174.312 280.651C174.512 280.749 174.73 280.803 174.952 280.809C175.366 280.799 175.762 280.639 176.071 280.361C176.379 280.081 176.579 279.7 176.636 279.284C176.982 274.941 175.787 270.615 173.268 267.085C171.578 265.188 169.228 264.029 166.713 263.853C165.682 257.032 165.219 250.135 165.329 243.236C165.329 232.196 167.495 216.825 175.854 206.639C179.153 202.757 183.288 199.698 187.94 197.699C192.592 195.7 197.635 194.814 202.679 195.11C207.089 194.863 211.498 195.604 215.594 197.28C219.689 198.956 223.371 201.527 226.376 204.808C244.419 224.754 240.45 271.904 237.563 306.793C237.082 311.856 236.721 316.675 236.36 321.189C236.342 321.638 236.494 322.077 236.785 322.417C237.075 322.757 237.483 322.972 237.924 323.018C238.347 323.006 238.75 322.838 239.06 322.547C239.37 322.255 239.564 321.859 239.608 321.432C239.909 316.98 240.33 312.161 240.75 307.099C243.698 271.843 247.788 223.595 228.722 202.491L229.022 202.735Z" fill="#22376C" style="fill:#22376C;fill:color(display-p3 0.1333 0.2157 0.4235);fill-opacity:1;"/>
<path d="M217.658 184.436C217.658 184.436 218.561 192.426 219.282 200.783C217.789 203.943 215.37 206.559 212.356 208.273C209.342 209.987 205.88 210.715 202.442 210.359C198.997 210.711 195.528 209.981 192.506 208.268C189.483 206.555 187.052 203.942 185.541 200.783C186.082 195.354 186.564 189.864 187.165 184.436H217.658Z" fill="#F5A257" style="fill:#F5A257;fill:color(display-p3 0.9608 0.6353 0.3412);fill-opacity:1;"/>
<path d="M203.521 185.529C270.401 185.529 264.327 135.024 264.327 135.024C264.327 135.024 283.032 136.427 283.032 111.053C283.032 85.6789 264.327 92.7544 264.327 92.7544V67.8072C264.327 67.8072 264.868 43.4087 203.521 43.4087H201.295C139.948 43.4087 140.489 67.8072 140.489 67.8072V92.8764C140.489 92.8764 121.904 85.6178 121.904 111.053C121.904 136.488 140.609 135.024 140.609 135.024C140.609 135.024 137.362 185.529 201.415 185.529H203.521Z" fill="#F9BF82" style="fill:#F9BF82;fill:color(display-p3 0.9765 0.7490 0.5098);fill-opacity:1;"/>
<path d="M134.895 91.9586C136.945 91.7066 139.023 92.0228 140.91 92.8735C157.75 79.6374 160.397 54.8728 160.397 54.8728C160.397 54.8728 167.193 57.9226 202.498 57.9226C237.803 57.9226 244.9 54.8728 244.9 54.8728C244.9 54.8728 247.546 79.6374 264.387 92.8735C266.276 92.0318 268.352 91.7161 270.401 91.9586C270.401 91.9586 281.468 57.0077 263.905 35.9643C263.905 35.9643 252.238 9.98012 202.438 9.98012C152.638 9.98012 153.24 5.10047 142.654 0.708777C132.069 -3.68291 137.662 13.4569 150.052 21.2643C118.957 13.9449 112.161 21.2643 135.978 39.5631C135.978 39.5631 110.236 42.6738 133.452 52.3111C130.776 58.6144 129.518 65.4421 129.767 72.2999C130.017 79.1576 131.769 85.8727 134.895 91.9586Z" fill="#8E453C" style="fill:#8E453C;fill:color(display-p3 0.5569 0.2706 0.2353);fill-opacity:1;"/>
<path d="M141.091 123.251V105.379C141.091 105.379 130.686 100.865 130.686 111.479C130.596 112.937 130.797 114.399 131.275 115.778C131.754 117.157 132.5 118.425 133.47 119.506C134.441 120.586 135.615 121.459 136.924 122.071C138.234 122.682 139.65 123.021 141.091 123.067V123.251ZM263.906 123.251V105.379C263.906 105.379 274.251 100.865 274.251 111.479C274.34 112.932 274.142 114.389 273.667 115.765C273.192 117.139 272.451 118.404 271.487 119.484C270.523 120.564 269.356 121.438 268.054 122.053C266.752 122.669 265.342 123.013 263.906 123.067V123.251Z" fill="#F5A257" style="fill:#F5A257;fill:color(display-p3 0.9608 0.6353 0.3412);fill-opacity:1;"/>
<path d="M385.037 247.312C387.382 244.689 408.132 224.499 414.748 218.095C419.75 213.213 425.164 208.784 430.927 204.859C430.927 204.859 441.633 210.959 426.597 225.231L442.355 222.914L424.311 260.487L413.125 261.951L401.095 266.464L385.037 247.312Z" fill="#F5A257" style="fill:#F5A257;fill:color(display-p3 0.9608 0.6353 0.3412);fill-opacity:1;"/>
<path d="M279.244 211.56V133.12C280.528 133.12 281.8 132.862 282.986 132.362C284.172 131.862 285.249 131.128 286.154 130.204C287.06 129.28 287.776 128.184 288.263 126.978C288.749 125.772 288.995 124.48 288.987 123.178H435.499C435.499 125.815 436.533 128.344 438.371 130.208C440.209 132.073 442.703 133.12 445.303 133.12V211.56C442.703 211.56 440.209 212.608 438.371 214.472C436.533 216.337 435.499 218.866 435.499 221.503H288.987C289.003 220.198 288.762 218.903 288.279 217.693C287.796 216.483 287.08 215.384 286.173 214.458C285.266 213.532 284.185 212.799 282.996 212.302C281.806 211.804 280.53 211.552 279.244 211.56Z" fill="#FF9999" style="fill:#FF9999;fill:color(display-p3 1.0000 0.6000 0.6000);fill-opacity:1;"/>
<path d="M412.161 138.689H312.261V145.581H412.161V138.689Z" fill="white" style="fill:white;fill-opacity:1;"/>
<path d="M391.052 160.712H333.494V164.981H391.052V160.712Z" fill="white" style="fill:white;fill-opacity:1;"/>
<path d="M408.493 173.81H316.171V178.079H408.493V173.81Z" fill="white" style="fill:white;fill-opacity:1;"/>
<path d="M408.493 186.94H316.171V191.21H408.493V186.94Z" fill="white" style="fill:white;fill-opacity:1;"/>
<path d="M408.493 199.975H316.171V204.245H408.493V199.975Z" fill="white" style="fill:white;fill-opacity:1;"/>
<path d="M297.407 217.983L309.135 222.253L298.008 252.751L293.918 245.736L286.34 248.481L297.407 217.983Z" fill="#FF0000" style="fill:#FF0000;fill:color(display-p3 1.0000 0.0000 0.0000);fill-opacity:1;"/>
<g opacity="0.2">
<path d="M297.405 217.983L309.134 222.253L298.007 252.751L293.917 245.736L286.339 248.481L297.405 217.983Z" fill="#0C0C0C" style="fill:#0C0C0C;fill:color(display-p3 0.0471 0.0471 0.0471);fill-opacity:1;"/>
</g>
<path d="M318.457 217.983L306.79 222.253L317.856 252.751L322.006 245.736L329.584 248.481L318.457 217.983Z" fill="#FF0000" style="fill:#FF0000;fill:color(display-p3 1.0000 0.0000 0.0000);fill-opacity:1;"/>
<g opacity="0.08">
<path d="M318.457 217.983L306.79 222.253L317.856 252.751L322.006 245.736L329.584 248.481L318.457 217.983Z" fill="#0C0C0C" style="fill:#0C0C0C;fill:color(display-p3 0.0471 0.0471 0.0471);fill-opacity:1;"/>
</g>
<path d="M303.299 227.444C301.615 227.138 299.209 229.029 297.765 228.359C296.322 227.688 296.322 224.516 294.999 223.479C293.676 222.442 290.728 223.113 289.706 221.832C288.684 220.551 289.706 217.623 289.285 216.159C288.864 214.696 285.496 213.963 285.135 212.317C284.774 210.67 287.18 208.84 287.18 207.071C287.18 205.302 284.774 203.411 285.135 201.825C285.496 200.239 288.563 199.508 289.285 198.044C290.007 196.58 288.684 193.652 289.706 192.371C290.728 191.09 293.736 191.761 294.999 190.724C296.262 189.687 296.322 186.516 297.765 185.844C299.209 185.174 301.615 187.064 303.299 186.698C304.983 186.333 306.186 183.466 307.93 183.466C309.674 183.466 310.997 186.333 312.561 186.698C314.125 187.064 316.591 185.113 318.034 185.844C319.478 186.576 319.478 189.687 320.801 190.724C322.124 191.761 325.071 191.029 326.093 192.371C327.116 193.713 326.093 196.519 326.575 198.044C327.056 199.569 330.304 200.178 330.665 201.825C331.026 203.472 328.619 205.424 328.619 207.071C328.619 208.718 331.026 210.73 330.665 212.317C330.304 213.902 327.236 214.635 326.575 216.159C325.913 217.684 327.176 220.49 326.093 221.832C325.011 223.174 322.064 222.442 320.801 223.479C319.538 224.516 319.478 227.627 318.034 228.359C316.591 229.09 314.185 227.138 312.561 227.444C310.937 227.749 309.614 230.676 307.93 230.676C306.246 230.676 304.922 227.931 303.299 227.444Z" fill="#FF0000" style="fill:#FF0000;fill:color(display-p3 1.0000 0.0000 0.0000);fill-opacity:1;"/>
<path d="M307.93 224.5C317.431 224.5 325.132 216.689 325.132 207.055C325.132 197.42 317.431 189.61 307.93 189.61C298.431 189.61 290.729 197.42 290.729 207.055C290.729 216.689 298.431 224.5 307.93 224.5Z" fill="white" style="fill:white;fill-opacity:1;"/>
<path d="M419.62 221.636C412.282 224.503 409.155 230.48 414.869 231.639C417.264 231.964 419.69 231.964 422.086 231.639C419.139 232.493 416.372 233.408 414.267 234.201C406.869 237.128 403.802 243.106 409.516 244.204C410.457 244.267 411.401 244.267 412.342 244.204H411.681C404.885 246.888 402.057 252.377 407.29 253.353H408.553C403.561 254.818 401.276 258.355 405.065 259.88C411.018 260.944 417.077 261.272 423.108 260.856C424.253 260.798 425.371 260.48 426.378 259.924C427.384 259.369 428.255 258.591 428.925 257.647C429.596 256.704 430.048 255.62 430.248 254.476C430.449 253.331 430.393 252.155 430.085 251.036C431.368 250.796 432.577 250.258 433.62 249.463C434.662 248.668 435.508 247.639 436.091 246.457C436.674 245.274 436.978 243.97 436.98 242.648C436.981 241.325 436.68 240.02 436.1 238.837C443.016 236.214 442.475 228.406 440.189 227.613H439.407C446.685 224.808 446.084 216.939 441.392 216.268C434.078 216.784 426.881 218.408 420.041 221.087L419.62 221.636Z" fill="#F9BF82" style="fill:#F9BF82;fill:color(display-p3 0.9765 0.7490 0.5098);fill-opacity:1;"/>
</svg>
