<svg id="Layer_1" data-name="Layer 1" xmlns="http://www.w3.org/2000/svg" xmlns:xlink="http://www.w3.org/1999/xlink" viewBox="0 0 96 96"><defs><style>.cls-1{fill:none;}.cls-2{fill:#fff;}.cls-3{fill:#bc8979;}.cls-4{clip-path:url(#clip-path);}.cls-5{fill:#172755;}.cls-6{fill:#f3a088;}.cls-7{fill:#f7b690;}.cls-8{fill:#eb9078;}.cls-9{fill:#f7f6f1;}.cls-10{fill:#2e6c9e;}.cls-11{fill:#255882;}.cls-12{fill:#275c87;}.cls-13{fill:#d6956f;}.cls-14{fill:#cad9e8;}.cls-15{fill:#9f9fe6;}.cls-16{fill:#fd5d5d;}.cls-17{fill:#8888d3;}.cls-18{fill:#232b59;}.cls-19{fill:#97c4de;}.cls-20{fill:#5c5b82;}.cls-21{fill:#7285c5;}.cls-22{fill:#fa9b72;}.cls-23{fill:#2a335e;}.cls-24{fill:#c3b6b3;}.cls-25{fill:#f1ae9c;}.cls-26{fill:#d8e9fc;}.cls-27{fill:#faded1;}.cls-28{fill:#d6d2d3;}.cls-29{fill:#dc9380;}.cls-30{fill:#f4cfbd;}.cls-31{fill:#fefefe;}.cls-32{fill:#4f4e76;}.cls-33{fill:#f7d6c8;}.cls-34{fill:#f5af9d;}.cls-35{fill:#cd6257;}.cls-36{fill:#f7ae9b;}.cls-37{fill:#e69a8a;}</style><clipPath id="clip-path"><rect class="cls-1" x="10.89" y="9.58" width="43.28" height="40.41"/></clipPath></defs><title>Artboard 27assaxaac</title><rect class="cls-2" x="10.47" y="4.48" width="38.89" height="69.2"/><path class="cls-3" d="M22.45,40.73a.4.4,0,0,1,0,.34A.21.21,0,0,1,22.45,40.73Z"/><path class="cls-3" d="M22.44,43a.38.38,0,0,1,0,.36A.23.23,0,0,1,22.44,43Z"/><path d="M46.24,1.66c-8.25.07-16.49-.26-24.74.1-2.8.12-5.61,0-8.42-.09A3,3,0,0,0,10.19,4,16.48,16.48,0,0,0,10,7.58h0L9.86,50.46h0c0,1.67,0,3.34,0,5L9.77,72.25a3.4,3.4,0,0,0,3.45,3.61c.32,0,.65,0,1,0l12.73.06a15.7,15.7,0,0,0-.4-2.24c0-.3-.27-.41-.53-.45-3.92,0-7.84,0-11.75,0a2.75,2.75,0,0,1-2.73-2.7c0-5,0-10.08.05-15.12a.32.32,0,0,1,0-.09,22.19,22.19,0,0,1,0-2.94.11.11,0,0,1,0-.16l0-1.75h0V7.8l.28,0a2.88,2.88,0,0,1,3-2.3L25,5.51c6.75,0,13.5.08,20.25.1A2.92,2.92,0,0,1,47.8,6.86a2.22,2.22,0,0,1,.41,1.44,51,51,0,0,0,0,5.39c.1,1.38.08,2.76.09,4.13.5.66,1.09.39,1.68.18q0-6.27.08-12.53A3.45,3.45,0,0,0,46.24,1.66ZM37.85,3.93H24.75c-.32,0-.66.07-.84-.34.08-.5.48-.42.81-.42H37.64c.36,0,.79-.15,1,.36C38.51,4,38.17,3.92,37.85,3.93Z"/><path d="M48.24,24.58a22.46,22.46,0,0,1-.05,2.32,2.44,2.44,0,0,1,0,1,4.7,4.7,0,0,1,0,1.35c0,2.5,0,5,0,7.51q0,4.14,0,8.3c0,.32,0,.64.06,1a32.6,32.6,0,0,0,1.68-3.07q0-9.24,0-18.5C49.39,24.39,48.79,24.2,48.24,24.58Z"/><g class="cls-4"><path class="cls-5" d="M34.1,23.25c.57-.21,1.57-2.13,1.77-3.06.33-1.56,1.08-4.6-.18-6s-5.78-2.13-7,1.32c-1.83-.05-.84,3.51-.64,4.93.27,2,1.89,2.85,2.68,2.63,1.76-.51,2,.7,3.36.19Z"/></g><g class="cls-4"><path class="cls-6" d="M28.81,20.24a24.7,24.7,0,0,1-.48,7.16c-.1.65,1.05,2.06,4.08,1.91,2.4-.12,3.1-1.3,2.71-1.92-.59-.95-1-3.81-.54-6.58s-4.14,1-5.77-.57Z"/></g><g class="cls-4"><path class="cls-7" d="M28.68,19c.73-.11.61,1.29.76,1.3.33,0,.43-2.13.44-3.41.6.12,3.8.47,5.56-.39.39.38,1,6,0,7.64a2.75,2.75,0,0,1-1.9,1.27,3.82,3.82,0,0,1-3.8-2,8.58,8.58,0,0,1-.41-2c-.7.07-1.11-2.34-.68-2.41Z"/></g><g class="cls-4"><path class="cls-8" d="M33.59,25.35a3.77,3.77,0,0,0,.91-.14.14.14,0,0,0-.07-.27h0c-1.64.49-3.92-.3-4.52-1.55a4.82,4.82,0,0,1-.36-1.86.21.21,0,0,0,0-.12.22.22,0,0,0-.14-.06c-.05,0-.15,0-.29-.17a.13.13,0,0,0-.2.18.73.73,0,0,0,.38.25,5.21,5.21,0,0,0,.39,1.9,3.41,3.41,0,0,0,2.05,1.57,5.22,5.22,0,0,0,1.89.27Zm-4.5-5.1a.15.15,0,0,0,.14-.15v0c0-.15-.19-.5-.46-.54a.14.14,0,0,0-.16.12.13.13,0,0,0,.11.15h0c.1,0,.22.21.24.32a.16.16,0,0,0,.14.12Z"/></g><g class="cls-4"><path class="cls-9" d="M43.08,34.16c.7.59,2.46,11.92,3,17.36.48,4.82.48,10.73.48,10.73L37.3,51.32S37.15,29.2,43.08,34.16Z"/></g><g class="cls-4"><path class="cls-10" d="M34.77,64l-1.4-11.68,15.81.94L49,66Z"/></g><g class="cls-4"><path class="cls-11" d="M41.93,57.79a124.5,124.5,0,0,0,0,22.4c-.11.71-.23,1.41-.34,2.11-1.79,10.94-3.48,20.78-4,23.47-.21,1-3.49.56-3.63-.49-.56-4.06-3.06-12.47-2.58-16.23a35.07,35.07,0,0,1,2.32-6.7c1.06-2.54-4-16.83-.06-28,1.07-3,8.31,3.47,8.31,3.47Z"/></g><g class="cls-4"><path class="cls-12" d="M34.76,57.58s-4.62,42.29-5.5,48c-.16,1-3.83.88-4-.15-.77-4-3.71-12.3-3.43-16.07a35.13,35.13,0,0,1,2-6.82c.39-1.07-.39-4.11-1.19-8.11-1.13-5.65-.45-12.83,1.52-19.5C25,51.89,34.76,57.58,34.76,57.58Z"/></g><g class="cls-4"><path class="cls-9" d="M42.41,80l-21.25-.73s2.09-38.6-2-45.86c-1-1.78,2.5-3.93,6.24-5.34,2.67-1,5.76-.38,7.15-.24s2.7-.64,4.26.12c2.78,1.35,5.4,3.56,6.25,6.21C44.42,38.3,42.41,80,42.41,80Z"/></g><g class="cls-4"><path class="cls-9" d="M19.24,32C16,37.19,13.1,51,13.75,53.53,14.3,55.69,21,58.3,29.16,57.7c1.16-.09.35-6.26.35-6.26s-7.15-.57-7.13-2.43.6-3.22.6-5.34S19.24,32,19.24,32Z"/></g><g class="cls-4"><path class="cls-6" d="M47.24,66.38c-.55.19-.88-.54-1.05-.5s-.27.59-.52.63a5.79,5.79,0,0,1-2-.43c-.22-.25-.28-1.5.06-1.64a6.16,6.16,0,0,1,1.85-.32c.19.06.25,1,.43,1.06.41,0,0-1,.67-.92s1,2,.56,2.12Z"/></g><g class="cls-4"><path class="cls-7" d="M34.27,51.52c-.13-.37-.68-.28-1.1-.15a.65.65,0,0,0,.3-.77c0-.14-.67.11-1.24.17s-.95-.18-1.46.11a6,6,0,0,0-1.61,1.63l.32,2.23a4,4,0,0,0,4.38.28c.63-.48.63-2.94.41-3.5Z"/></g><g class="cls-4"><path class="cls-13" d="M31.05,51.88a.05.05,0,0,1-.06-.06.05.05,0,0,1,0,0,3.51,3.51,0,0,1,.89-.17,5.68,5.68,0,0,0,1.1-.22.07.07,0,0,1,.08,0,.06.06,0,0,1,0,.08h0a5.22,5.22,0,0,1-1.13.22,4.74,4.74,0,0,0-.85.16Z"/></g><g class="cls-4"><path class="cls-14" d="M29.51,51.58a.13.13,0,0,1-.13-.1c-.14-.38-3.37-.95-4.92-1.23-1.85-.33-2.12-.39-2.2-.51s-.05-.83.25-3.19c.12-1,.25-2,.33-2.89a.14.14,0,0,1,.15-.13.14.14,0,0,1,.13.15h0c-.09.89-.21,1.92-.34,2.9-.15,1.28-.33,2.72-.29,3,.2.08,1.12.25,2,.41,3.35.6,5,1,5.13,1.41a.13.13,0,0,1-.09.18Zm-7-2Zm5.39,8.34c-1.94,0-5.28-.29-5.83-.37a.14.14,0,0,1-.12-.16h0a.14.14,0,0,1,.15-.12h0c1,.15,6.46.56,7,.28s.81-1.55.9-2a.13.13,0,0,1,.16-.11h0a.14.14,0,0,1,.11.16h0c0,.19-.39,1.91-1.06,2.24a4.19,4.19,0,0,1-1.33.12ZM43.54,52.5h0a.13.13,0,0,1-.13-.15h0a95.42,95.42,0,0,0,.25-12.18.15.15,0,0,1,.12-.16h0a.15.15,0,0,1,.16.13,94.5,94.5,0,0,1-.25,12.24.14.14,0,0,1-.14.12Z"/></g><g class="cls-4"><path class="cls-15" d="M35.91,38c-1.75.74-2.48,1.06-4.24,0-1.58-.94-5.92-7.09-6.25-9.94a28.76,28.76,0,0,1,4.13-1.24,7.74,7.74,0,0,1,2.83.38c.82.09,1.63-.35,2.57,0a19.72,19.72,0,0,1,1.88.78A17.92,17.92,0,0,1,35.91,38Z"/></g><g class="cls-4"><path class="cls-16" d="M31.49,28.51s1.09,2.33,1.37,2.84-1.2,5.88-1.19,6.66a26.58,26.58,0,0,0,2.92,2.28A20,20,0,0,0,35.91,38c.13-1.77-2.26-6.46-2.09-7.23a26.73,26.73,0,0,1,.87-2.62l-1.33-.95h-.83l-1,1.3Z"/></g><g class="cls-4"><path class="cls-17" d="M27.93,25.22c-.51,0-1.42,2.33-1.34,2.66.13.5,3.25,2.41,4.08,2.41.24,0,1.91-2.78,2.34-2.82s1.66,2.48,2.11,2.32a3.65,3.65,0,0,0,.93-2.19c-.06-.6-.53-1.94-.75-2S33.72,27,33,27.1s-4.76-1.88-5.08-1.88Z"/></g><g class="cls-4"><path class="cls-14" d="M34.4,79a.14.14,0,0,1-.14-.14v0c.46-1.3.67-8.36.59-19.87-.06-9.13-.28-17.74-.37-18.11s-4.86-2.09-6.6-2.74c-.89-.32-1.28-.47-1.36-.51a.21.21,0,0,1-.1-.14c0-.18.16-.41.56-.88s.88-1,.75-1.2-1.24,0-1.91,0c-1.14.14-1.55.17-1.66,0a3.84,3.84,0,0,1-.22-.81,14.06,14.06,0,0,0-1.69-4.63.14.14,0,0,1,0-.2h0a.14.14,0,0,1,.19,0,14.29,14.29,0,0,1,1.73,4.74c.08.35.16.67.19.74a6.66,6.66,0,0,0,1.39-.09c1.21-.15,2-.21,2.17.07s-.27,1-.77,1.55a5.32,5.32,0,0,0-.48.62l1.27.47c4.88,1.81,6.66,2.57,6.77,2.92s.32,9.17.38,18.09c.06,8.21,0,18.35-.6,20.06a.16.16,0,0,1-.14.09ZM35,40.43a.14.14,0,0,1-.14-.14.16.16,0,0,1,.08-.13c1.79-.8,3.73-3.92,3.75-4.27a7.09,7.09,0,0,0-.8-.81c-.6-.56-.75-.71-.75-.85a.17.17,0,0,1,.05-.13c.11-.09.36-.06,1.33.1a7.44,7.44,0,0,0,1.43.17,11,11,0,0,0-.47-4,.14.14,0,0,1,.09-.18h0a.14.14,0,0,1,.17.09c.44,1.3.74,4.08.39,4.35-.15.12-.52.08-1.66-.11-.32-.06-.73-.13-1-.15.14.14.38.37.57.54.56.53.83.79.88,1,.12.45-2.14,3.8-3.91,4.59Z"/></g><g class="cls-4"><path class="cls-18" d="M30,41.67a.23.23,0,0,0,.14,0,.2.2,0,0,0,.05-.3C26,35.51,24.69,30.1,26.83,27.54a.21.21,0,0,0,0-.31.23.23,0,0,0-.32,0c-2.32,2.76-1.05,8.25,3.31,14.32A.21.21,0,0,0,30,41.67Zm7.32.18a.22.22,0,0,0,.23-.16c1.81-7.07.58-11.94-1.19-14.15a.23.23,0,0,0-.32,0,.21.21,0,0,0,0,.31c1.62,2,2.88,6.84,1.1,13.76a.23.23,0,0,0,.17.27Z"/></g><g class="cls-4"><path class="cls-14" d="M38.57,45.37h0a.19.19,0,0,0,.18-.2,2.39,2.39,0,0,0-1.74-2,2.82,2.82,0,0,0-3,1,.19.19,0,0,0,0,.26h0a.2.2,0,0,0,.28,0,2.4,2.4,0,0,1,2.59-.89,2,2,0,0,1,1.47,1.64.19.19,0,0,0,.19.18Z"/></g><g class="cls-4"><path class="cls-18" d="M36.42,49.54a.13.13,0,0,0,.12,0c1-1,2.7-4.27,2.34-6.3a1.84,1.84,0,0,0-1.08-1.46,2.35,2.35,0,0,0-2.25.07c-1.25.79-2,2.93-1.94,5.88a.16.16,0,0,0,.17.16.17.17,0,0,0,.17-.16c0-2.84.64-4.88,1.79-5.6a2,2,0,0,1,1.92,0,1.51,1.51,0,0,1,.88,1.21c.35,1.93-1.27,5.09-2.24,6a.17.17,0,0,0,0,.23h0a.17.17,0,0,0,.12,0ZM29.65,42.1a1.3,1.3,0,1,1,1.27,1.27A1.27,1.27,0,0,1,29.65,42.1Zm.34,0a1,1,0,1,0,1-.91A.94.94,0,0,0,30,42.11Z"/></g><rect class="cls-1" x="10.89" y="9.58" width="43.28" height="40.41"/><path class="cls-14" d="M33.62,47.83c-.56-.08-.52,1.24,0,1.22S34.06,47.9,33.62,47.83Zm3,1.42c-.41-.38-1.17.72-.77,1S37,49.55,36.66,49.25Z"/><g class="cls-4"><path class="cls-10" d="M35.88,50.08c0-.07.19,0,.17.08S35.86,50.14,35.88,50.08Z"/></g><path class="cls-19" d="M11.68,49.35H48.37v1.22H11.68Z"/><path class="cls-20" d="M44.6,84.57c-.44.06-.52-.21-.55-.57-.07-.72-.16-1.44-.24-2.15a1.14,1.14,0,0,0-.14-.77c.17-.59-.35-1.16,0-1.75a2,2,0,0,0,0-.48c-.33-1.37-.33-2.78-.62-4.16v-.38c.2-.67-.13-1.29-.18-1.94l0-.57a32.12,32.12,0,0,1,0-3.67,4,4,0,0,1,1-2.4c.14-.17.37-.27.39-.52a.73.73,0,0,0,.19-.62,16.37,16.37,0,0,1-.34-4.36c.09-1.93,1.13-3.32,3.27-3.15a5.26,5.26,0,0,1,1.74.49c2,.91,4.07,1.85,6.17,2.62.71.49,1.29,1.21,2.32,1,.2,0,.47.18.68.33a2.18,2.18,0,0,0,2.15.43,3.64,3.64,0,0,1,1,0,.47.47,0,0,0,.31.34,13.19,13.19,0,0,0,4.11.83,2,2,0,0,1,0,.85c-.46,1.63-.8,3.3-1.16,5a15.69,15.69,0,0,1-.92,3.28,10.46,10.46,0,0,1-3.53,0c-2.21-.13-4.4-.41-6.59-.71-1.26-.17-2.52-.32-3.86-.37-.33,1.61-.63,3.18-.85,4.76l0,.53-.37.29h-3c-.07.1-.17.18-.17.26a38.39,38.39,0,0,1-.53,7.42Z"/><path class="cls-21" d="M74.18,45a2.43,2.43,0,0,1,1.06,2.64,4,4,0,0,0-.11.84c-.06.08-.15.14-.16.22-.19,1.22-.56,2.4-.79,3.6-.1.5-.34.64-.78.6a40.54,40.54,0,0,1-4.13-1c0,2.1-.52,4-.74,6,0,.43-.46.51-.79.59-1.52.37-3,.67-4.55,1.1-1.81.52-3.51.57-5.06-.69l-.21-.18a4.67,4.67,0,0,1,.35-1.28,11.15,11.15,0,0,0,.45-2.62c0-.41-.16-.58-.56-.56a3.83,3.83,0,0,1,0-3.63c.47-.28.54-.55.16-.75a1.69,1.69,0,0,0-.56-.07h0l-.18-.2a.39.39,0,0,0-.06-.15c-.27-.33-.72-.49-.91-.91,0-.38.38-.64.35-1a7.43,7.43,0,0,0,.83-1.38A27.54,27.54,0,0,0,59.48,43a6,6,0,0,1,2.2-.84.34.34,0,0,0,.32-.3,2,2,0,0,0,.9.2,2.92,2.92,0,0,1,2,.36l.22,0a.82.82,0,0,0,.38.38,1.34,1.34,0,0,0,1,.42c.21.32.62,0,.87.28s0,.87.23,1.29a2.74,2.74,0,0,0,3.28,1.33A21.82,21.82,0,0,1,74.18,45Z"/><path class="cls-22" d="M82.47,61c.09.64-.14,1.35.44,1.91.15.14,0,.54-.14.79a3.35,3.35,0,0,0-.3,1.59c0,1.92,0,3.85,0,5.77,0,1.08.23,2.16.21,3.25a24.86,24.86,0,0,1-.33,3.34,5.45,5.45,0,0,0,.13,2.66,2.61,2.61,0,0,1-.39,1.54A13.54,13.54,0,0,1,79,85.51c-.44.07-.59-.24-.78-.55-.82-1.28-.73-2.72-.77-4.13a9,9,0,0,0-.4-3.21,20.87,20.87,0,0,0-1.6-3.46,9.2,9.2,0,0,1-1.1-2.7c-.4-1.5-.08-3-.36-4.58-.38-2-.6-4.08-3.08-4.74a8.42,8.42,0,0,0-1.87-.4,12.29,12.29,0,0,0-2.57.23l0-.23c.53-.55,1-1.3,1.62-1.6a13.7,13.7,0,0,1,4.08-1.3c.4,0,.92,0,1.08-.55a10.59,10.59,0,0,1,5-1.17,23.83,23.83,0,0,1,3.21,1.57,2.28,2.28,0,0,1,.69.85C82.38,60,82.11,60.56,82.47,61Z"/><path class="cls-23" d="M74.18,45a21.82,21.82,0,0,0-3.34,1.21,2.74,2.74,0,0,1-3.28-1.33c-.24-.42-.08-.88-.23-1.29s-.66,0-.87-.28c.32-.16.84.25,1-.35v0a.43.43,0,0,0,.17-.38h0a.44.44,0,0,0,.21-.36h0a.26.26,0,0,0,.18-.2l.16-.23a.4.4,0,0,0,.24-.32l0,0a1.22,1.22,0,0,0,.56-.75v0a1.12,1.12,0,0,0,.16-1.38c0-.16-.06-.32.08-.45a3.94,3.94,0,0,0,.8-.83c.42-.67.35-1-.26-1.53-.17-.16-.49-.25-.48-.55,0-1.12-.7-2-.75-3.21A2.67,2.67,0,0,1,66.48,32c-.23-.17-.48-.4-.78-.27-.73.31-1.51.62-1.79,1.46a15.75,15.75,0,0,0-1,5.35c0,1.54.25,1.85,1.68,2.42.27.1.58.16.47.57a.67.67,0,0,0-.2.95,2.92,2.92,0,0,0-2-.36,2,2,0,0,1-.9-.2,2.27,2.27,0,0,1-.69-2.61,2.78,2.78,0,0,1,.25-.62,8.65,8.65,0,0,0,1-3.21A11.44,11.44,0,0,1,64,31.21c1.23-2.36,5.65-3.75,7.87-1.15a1.69,1.69,0,0,0,.42.38c1.94,1.11,2.31,2.89,2,4.9a6.57,6.57,0,0,1-1.17,3c-.06.07-.1.16-.16.24a4,4,0,0,0,0,4.75,1.83,1.83,0,0,0,.56.49A1.23,1.23,0,0,1,74.18,45Z"/><path class="cls-3" d="M75.28,79.74a1.91,1.91,0,0,0-1.37.3c-2.22,1.35-4.46,2.67-6.71,4a2.34,2.34,0,0,0-1,1,15.54,15.54,0,0,0-1.75,7.57,1.9,1.9,0,0,1-2.14.44,2.25,2.25,0,0,1-.16-1.16,35.56,35.56,0,0,0-.54-5.45,2.15,2.15,0,0,0-2.14-2C56.33,84,53.14,83.4,50,82.86c-.41-.07-.82-.11-1.24-.16-.14-.33.21-.56.17-.87.28-.11.44-.43.78-.42a20.66,20.66,0,0,1,2.93.41l7.64,1.26a11.08,11.08,0,0,0,4.37.11,2.93,2.93,0,0,0,2.21-1.73,75,75,0,0,0,4.28-12.28,3.59,3.59,0,0,1,1-1.84c.12,0,.31,0,.31.16,0,.85.54,1.69.08,2.55-1.11,3.4-2.49,6.68-3.87,10a5.33,5.33,0,0,0-.71,1.89,35.72,35.72,0,0,0,7.48-4.71,1.91,1.91,0,0,1,.39,2.08c.11.09.34,0,.28.3S75.51,79.66,75.28,79.74Z"/><path class="cls-24" d="M78.22,57.12a10.59,10.59,0,0,0-5,1.17c-.35-.08-.77.14-1.1-.3a17,17,0,0,0,1.3-5.14c.44,0,.68-.1.78-.6.23-1.2.6-2.38.79-3.6,0-.08.1-.14.16-.22.42.13.85.27,1.28.38A3.11,3.11,0,0,1,78.77,52a10.76,10.76,0,0,1-.12,3.25,4.09,4.09,0,0,0,0,.86Z"/><path class="cls-25" d="M72.43,70.05c.46-.86-.09-1.7-.08-2.55,0-.12-.19-.13-.31-.16.1-1.07-.47-2-.44-3.12,0-.19-.19-.4-.3-.59a2.69,2.69,0,0,0-1.53-1.06,2.73,2.73,0,0,0-3,.28.9.9,0,0,1-.79.24L66.47,62A12.29,12.29,0,0,1,69,61.74a8.42,8.42,0,0,1,1.87.4c2.48.66,2.7,2.71,3.08,4.74.28,1.53,0,3.08.36,4.58a9.2,9.2,0,0,0,1.1,2.7,20.87,20.87,0,0,1,1.6,3.46,9,9,0,0,1,.4,3.21c0,1.41,0,2.85.77,4.13.19.31.34.62.78.55-.3.4-.64.7-1.17.37-.13-.71-.78-1.12-1-1.78-.39-1.1-.77-2.2-1.15-3.3-.12-.35-.52-.61-.38-1.06.23-.08.51,0,.72-.16s-.17-.21-.28-.3a1.91,1.91,0,0,0-.39-2.08,4.48,4.48,0,0,0-.76-2.5c-.47-.7-.8-1.49-1.24-2.21S72.91,70.79,72.43,70.05Z"/><path class="cls-3" d="M38.28,79.16a23.7,23.7,0,0,0,3.24.72,2,2,0,0,1,.64.56,1.85,1.85,0,0,0,1.51.64,1.14,1.14,0,0,1,.14.77c-.39,0-.74-.19-1.14-.13a2.08,2.08,0,0,0-1.86,1.56c-.46,1.5-.87,3-1.22,4.54-.28,1.21-1,1.56-2.26,1C37.65,85.63,38.34,82.43,38.28,79.16Z"/><path class="cls-26" d="M48.88,81.83c0,.31-.31.54-.17.87a1.76,1.76,0,0,0-.62,1.67,2.42,2.42,0,0,0-.77.54,5.07,5.07,0,0,0-2.57-.54A38.39,38.39,0,0,0,45.28,77c0-.08.1-.16.17-.26h3l.16.15c.19.38-.3.76,0,1.14-.08.36-.15.73-.24,1.09A3.41,3.41,0,0,0,48.88,81.83Z"/><path class="cls-26" d="M47.69,87.81c.09.61-.17,1.27.32,1.84.11.12-.23.52.22.62,0,.34-.58.22-.54.67s.48.28.59.62c-.31.1-.24.73-.84.49-.08,0-.37.47-.66.64A11.94,11.94,0,0,0,44.58,94a.93.93,0,0,1-.73.18,3.13,3.13,0,0,0-2.71-2,1.86,1.86,0,0,1,.94-1.14,6.45,6.45,0,0,0,2-2.29.68.68,0,0,1,.4-.38A2.74,2.74,0,0,0,46.88,88C47.11,87.75,47.42,87.83,47.69,87.81Z"/><path class="cls-27" d="M77.83,85.88c.53.33.87,0,1.17-.37a13.54,13.54,0,0,0,3.09-3.69,2.61,2.61,0,0,0,.39-1.54l1.09.86c-.15.6-.73,1.2-.14,1.87-.39.3-.51-.22-.79-.17s.14.41,0,.54c-.33.34-.41-.33-.69-.06-.09.4.47.7.23,1.13-.38.09-.53-.39-.88-.31,0-.09,0-.23-.12-.26-.09.15,0,.21.11.27,0,.22.06.44-.06.63s-.43-.16-.68.16.13.83-.13,1.25c-.38.06-.47-.35-.77-.4-.23.4,0,.78,0,1.11-.31.27-.54,0-.76,0-.29.22,0,.57-.27.83a4.07,4.07,0,0,1-1-1.54C77.59,86.08,77.71,86,77.83,85.88Z"/><path class="cls-24" d="M46.24,92.21a3.13,3.13,0,0,1,2.72,2c-.65,1-1.72.77-2.66.86a3.42,3.42,0,0,1-.94-.1,1,1,0,0,1-.61-1.64C45.15,92.84,45.5,92.23,46.24,92.21Z"/><path class="cls-28" d="M78.22,57.12l.41-1a5.66,5.66,0,0,1,2.93.74,2,2,0,0,1,1.15,2.5c-.1.53-.16,1.07-.24,1.6-.36-.41-.09-1-.35-1.43a2.28,2.28,0,0,0-.69-.85A23.83,23.83,0,0,0,78.22,57.12Z"/><path class="cls-28" d="M44.46,87.22c.32,0,.46.33.8.37a9.81,9.81,0,0,0,1.5-1.52c.76.21.93.39.94,1.09,0,.22,0,.43,0,.65-.27,0-.58-.06-.81.14a2.74,2.74,0,0,1-2.44.45Z"/><path class="cls-26" d="M46.77,85.88a1,1,0,0,1,.55-.57C47.59,85.84,47.57,85.86,46.77,85.88Z"/><path class="cls-28" d="M66,63.09a.9.9,0,0,0,.79-.24,2.73,2.73,0,0,1,3-.28,2.69,2.69,0,0,1,1.53,1.06c.11.19.31.4.3.59,0,1.07.54,2,.44,3.12a3.59,3.59,0,0,0-1,1.84,75,75,0,0,1-4.28,12.28,2.93,2.93,0,0,1-2.21,1.73,11.08,11.08,0,0,1-4.37-.11l-7.64-1.26a20.66,20.66,0,0,0-2.93-.41c0-.31.17-.53.29-.78a1.53,1.53,0,0,0-.35-2,.82.82,0,0,1-.36-.63c.11-.31.41-.38.66-.52a23.93,23.93,0,0,1,3.63-1.15,9.34,9.34,0,0,0,2.92-1.56,2,2,0,0,1,1.63-.63,13.32,13.32,0,0,1,3,.71,4.83,4.83,0,0,0,2.15.24,3.24,3.24,0,0,0,.51-1.55l0-1.33a15.69,15.69,0,0,0,.92-3.28c.36-1.65.7-3.32,1.16-5a2,2,0,0,0,0-.85Z"/><path class="cls-24" d="M40.78,66.4a20.1,20.1,0,0,0-.37-4.64c-.44-1.56-1-2.06-2.58-2.12-.26,0-.51,0-.77,0,.24-.6.83-.75,1.33-1A57.9,57.9,0,0,1,46.73,56c2-.54,4-1.19,6-1.57.41,0,.58.35.85.57a15.68,15.68,0,0,1,1.23,1.45,2.24,2.24,0,0,0,2.21.44c.62-.07,1.12-1.07,1.13-1.89,0-.25,0-.5,0-.76.4,0,.58.15.56.56a11.15,11.15,0,0,1-.45,2.62,4.67,4.67,0,0,0-.35,1.28c-1.09-.48-1.9,0-2.69.79v.73c-2.1-.77-4.13-1.71-6.17-2.62a5.26,5.26,0,0,0-1.74-.49c-2.14-.17-3.18,1.22-3.27,3.15a16.37,16.37,0,0,0,.34,4.36.73.73,0,0,1-.19.62c-.43-.7-.43-.69-1.13-.29-.27.16-.56.31-.84.44s-.67.38-.72.82l-.37.2Z"/><path class="cls-25" d="M55.23,60.19v-.73c.79-.77,1.6-1.27,2.69-.79l.21.18c1.55,1.26,3.25,1.21,5.06.69,1.5-.43,3-.73,4.55-1.1.33-.08.74-.16.79-.59.22-2,.69-3.88.74-6a40.54,40.54,0,0,0,4.13,1A17,17,0,0,1,72.1,58c.33.44.75.22,1.1.3-.16.56-.68.51-1.08.55A13.7,13.7,0,0,0,68,60.14c-.64.3-1.09,1-1.62,1.6-1.36,0-2.73,0-4.09,0-.3,0-.64-.12-.9.15a3.64,3.64,0,0,0-1,0,2.18,2.18,0,0,1-2.15-.43c-.21-.15-.48-.37-.68-.33C56.52,61.4,55.94,60.68,55.23,60.19Z"/><path class="cls-22" d="M63.73,72.18l0,1.33a10.57,10.57,0,0,1-2.57-.14,10.28,10.28,0,0,0-3.23-.22,3.59,3.59,0,0,0-2.2.75,8.58,8.58,0,0,1-2.37,1.55c-1,.38-2.07.6-3.07,1a2.54,2.54,0,0,1-1.62.37l-.16-.15.37-.29.14.09a.45.45,0,0,0-.09-.62c.22-1.58.52-3.15.85-4.76,1.34,0,2.6.2,3.86.37,2.19.3,4.38.58,6.59.71A10.46,10.46,0,0,0,63.73,72.18Z"/><path class="cls-22" d="M41.14,66.38l.37-.2c.3,0,.46-.18.66-.33a2,2,0,0,1,1.34-.54c-.25.38-.43.68-.62,1a3.23,3.23,0,0,0-.53,2.08c.12,1,.09,2,.13,3,0,.24,0,.45.33.49l0,.57a3.22,3.22,0,0,0-.11,1.74c0,.14.17.17.29.2v.38a2.16,2.16,0,0,0-.1,1.56,16.68,16.68,0,0,1,.34,3.07c-.12.61-.48.44-.7.14a4.28,4.28,0,0,1-.89-1.31c-.09-.35-.22-.74-.71-.78v-1.9c.16,0,.34-.08.34-.27a9.45,9.45,0,0,1,.21-2,.34.34,0,0,0-.19-.39V71c.17-.45.14-.81-.41-1l-.19-.37c0-.27-.07-.41-.35-.42s-.21-.22-.19-.39a3.78,3.78,0,0,1,.91-2.14C41.18,66.69,41.13,66.5,41.14,66.38Z"/><path class="cls-21" d="M61.43,61.93c.26-.27.6-.15.9-.15,1.36,0,2.73,0,4.09,0l0,.23L66,63.09h-.15a13.19,13.19,0,0,1-4.11-.83A.47.47,0,0,1,61.43,61.93Z"/><path class="cls-25" d="M41,77.37c.49,0,.62.43.71.78a4.28,4.28,0,0,0,.89,1.31c.22.3.58.47.7-.14h.36c-.31.59.21,1.16,0,1.75a1.85,1.85,0,0,1-1.51-.64,2,2,0,0,0-.64-.56C41.38,79,40.69,78.31,41,77.37Z"/><path class="cls-29" d="M42.82,71.8c-.29,0-.32-.25-.33-.49,0-1,0-2-.13-3a3.23,3.23,0,0,1,.53-2.08c.19-.28.37-.58.62-1a2,2,0,0,0-1.34.54c-.2.15-.36.37-.66.33.05-.44.36-.64.72-.82s.57-.28.84-.44c.7-.4.7-.41,1.13.29,0,.25-.25.35-.39.52a4,4,0,0,0-1,2.4A32.12,32.12,0,0,0,42.82,71.8Z"/><path class="cls-29" d="M43.63,79.33h-.36a16.68,16.68,0,0,0-.34-3.07,2.16,2.16,0,0,1,.1-1.56c.29,1.38.29,2.79.62,4.16A2,2,0,0,1,43.63,79.33Z"/><path class="cls-29" d="M43,74.31c-.12,0-.29-.06-.29-.2a3.22,3.22,0,0,1,.11-1.74C42.89,73,43.22,73.64,43,74.31Z"/><path class="cls-25" d="M48.9,75.87a.45.45,0,0,1,.09.62l-.14-.09Z"/><path class="cls-24" d="M57.53,49.4c-.91.06-.94.13-1.15.91a12.08,12.08,0,0,1-.62,1.52c-1.08,0-1.2-.8-1.5-1.46a2.07,2.07,0,0,1,.38-1.25,7.37,7.37,0,0,1,1.56-1.64l.77,0c0,.39-.34.65-.35,1C56.81,48.91,57.26,49.07,57.53,49.4Z"/><path class="cls-24" d="M58.18,50.58c0-.36-.22-.57-.4-.82a1.69,1.69,0,0,1,.56.07C58.72,50,58.65,50.3,58.18,50.58Z"/><path class="cls-23" d="M65,41.49v1l-.17,0A.77.77,0,0,1,65,41.49Z"/><path class="cls-24" d="M57.77,49.75a.17.17,0,0,1-.18-.2Z"/><path class="cls-20" d="M38.68,3.53c-.17.46-.51.39-.83.4H24.75c-.32,0-.66.07-.84-.34.08-.5.48-.42.81-.42H37.64C38,3.17,38.43,3,38.68,3.53Z"/><path class="cls-29" d="M41.14,66.38c0,.12,0,.31,0,.37a3.78,3.78,0,0,0-.91,2.14c-.51-.51-.1-1,0-1.51a2.89,2.89,0,0,1,.58-1Z"/><path class="cls-25" d="M41.33,72.76a.34.34,0,0,1,.19.39,9.45,9.45,0,0,0-.21,2c0,.19-.18.24-.34.27A6,6,0,0,1,41.33,72.76Z"/><path class="cls-25" d="M40.93,70.07c.55.14.58.5.41,1A2,2,0,0,1,40.93,70.07Z"/><path class="cls-29" d="M40.39,69.28c.28,0,.39.15.35.42C40.49,69.66,40.35,69.54,40.39,69.28Z"/><path class="cls-24" d="M72.43,70.05c.48.74.44,1.68.9,2.44S74.1,74,74.57,74.7a4.48,4.48,0,0,1,.76,2.5,35.72,35.72,0,0,1-7.48,4.71A5.33,5.33,0,0,1,68.56,80C69.94,76.73,71.32,73.45,72.43,70.05Z"/><path class="cls-24" d="M49.24,78a.82.82,0,0,0,.36.63,1.53,1.53,0,0,1,.35,2c-.12.25-.32.47-.29.78-.34,0-.5.31-.78.42a3.41,3.41,0,0,1-.48-2.76c.09-.36.16-.73.24-1.09A.59.59,0,0,0,49.24,78Z"/><path class="cls-30" d="M24.14,52.31a.28.28,0,0,1,0,.12l-.05,0A.11.11,0,0,1,24.14,52.31Z"/><path class="cls-25" d="M49.24,78a.59.59,0,0,1-.6,0c-.3-.38.19-.76,0-1.14a2.54,2.54,0,0,0,1.62-.37c1-.42,2.06-.64,3.07-1A8.58,8.58,0,0,0,55.7,73.9a3.59,3.59,0,0,1,2.2-.75,10.28,10.28,0,0,1,3.23.22,10.57,10.57,0,0,0,2.57.14,3.24,3.24,0,0,1-.51,1.55A4.83,4.83,0,0,1,61,74.82a13.32,13.32,0,0,0-3-.71,2,2,0,0,0-1.63.63,9.34,9.34,0,0,1-2.92,1.56,23.93,23.93,0,0,0-3.63,1.15C49.65,77.59,49.35,77.66,49.24,78Z"/><path class="cls-31" d="M81.3,84.15c-.11-.06-.2-.12-.11-.27.16,0,.1.17.12.26Z"/><path class="cls-32" d="M49.94,70.9s.94-8.37.65-9.41.56,1.22.56,1.22l5.26.39.16.39h1.8L56,63.7l-2.88.15-1.07.3-.49.86a24.64,24.64,0,0,0-.14,3.59,17.1,17.1,0,0,0,1.48,1.76l1.07.48-.45.33Z"/><path class="cls-16" d="M79.54,17.73H44.41a1.05,1.05,0,0,0-1,1.06V23.7a1,1,0,0,0,1,1.05H60.79a2.79,2.79,0,0,1,1.35,1,6,6,0,0,0,1.64,1.56,24,24,0,0,0,.29-2.55H79.54a1,1,0,0,0,1-1.05V18.79A1.05,1.05,0,0,0,79.54,17.73Z"/><path class="cls-26" d="M46.6,86.26A4.4,4.4,0,0,0,48,85.32c.18-.2.83-2.57,1-3.08s.69-.63.61-.83-1.54.35-1.54.35l-1.06,1.7Z"/><path class="cls-24" d="M45.27,87.53a20.28,20.28,0,0,0,2.11-1.94c.35-.51.1-.79.1-.79s-1.4-.42-1.85-.49a1,1,0,0,0-.73.14S44.71,86,44.75,86s.36,1.14.39,1.16A2.47,2.47,0,0,1,45.27,87.53Z"/><path class="cls-24" d="M44.75,84.37a5.07,5.07,0,0,1,2.57.54v.4a1,1,0,0,0-.55.57.4.4,0,0,0,0,.19,9.81,9.81,0,0,1-1.5,1.52c-.34,0-.48-.39-.8-.37-.42-.91.07-1.77.14-2.65Z"/><rect x="25.02" y="73.22" width="12.72" height="2.71"/><path class="cls-28" d="M38.28,79.16a.76.76,0,0,0-.22-.51,4.68,4.68,0,0,1-1.36-2.34.5.5,0,0,0-.22-.29,15.7,15.7,0,0,0-.4-2.24c0-.31-.26-.41-.53-.45a1.09,1.09,0,0,0,.32-1.07,12.2,12.2,0,0,1-.33-3.56c0-1.08-.1-2.15-.16-3.22-.1-1.85-.22-3.74.74-5.46.39.06.56-.44.94-.39s.51,0,.77,0c1.6.06,2.14.56,2.58,2.12a20.1,20.1,0,0,1,.37,4.64,2.89,2.89,0,0,0-.58,1c-.1.5-.51,1,0,1.51,0,.17,0,.32.19.39,0,.26.1.38.35.42l.19.37a2,2,0,0,0,.41,1v1.74A6,6,0,0,0,41,75.47v1.9c-.28.94.41,1.67.55,2.51A23.7,23.7,0,0,1,38.28,79.16Z"/><polygon points="50.03 55.03 48.02 55.61 47.98 42.28 49.93 42.31 50.03 55.03"/><path class="cls-33" d="M44.43,45.73c-.06.11-.16.21-.27.13s-.06-.25.08-.33Z"/><path class="cls-34" d="M43.45,44.39a5.91,5.91,0,0,0,2.71,2.55c1.07.34,1.62-.11,2.17.69l4.16,5.9a13.64,13.64,0,0,0,2.22,2.83c1,.73,1.66,1.07,2.37.52a2.9,2.9,0,0,0,1.21-1.5c.06-.41.72-.69.72-.69s.27-4.13.27-4.21,0-1,0-1l-1.71-.95-.62-.23s-.72,1.9-1,2.58a1.81,1.81,0,0,1-.49.87s-4.32-4.6-4.72-5.06a4.6,4.6,0,0,1-.6-1.95A3.49,3.49,0,0,0,49,43.08c-.44-.29-.75-.48-.81-.31s.08.44.35.77.59,1,.48,1.09-1.05-.13-1.37-.24a9.35,9.35,0,0,1-1.88-1.33,3.33,3.33,0,0,0-1-.66c-.14,0-.53.22-.53.22s-.58.05-.62.22a.8.8,0,0,1-.22.5c-.14.09-.11.47-.07.6S43.45,44.39,43.45,44.39Z"/><path class="cls-35" d="M43.45,43.73l1,.75.51.37.51.35v.06c-.21-.13-.35-.25-.53-.38l-.51-.38Z"/><path class="cls-35" d="M44,43l1,.82a9.81,9.81,0,0,0,1,.77v0a4.09,4.09,0,0,1-.52-.38l-.48-.41Z"/><polygon class="cls-35" points="44.47 42.76 46.37 44.15 46.34 44.2 44.47 42.76"/><path class="cls-35" d="M46.72,45.29a5,5,0,0,0,1.6-.09"/><path class="cls-36" d="M64.68,40.58s-.19,1.4-.26,1.58,0,.73.92,1,2,.44,2.13.25a9.26,9.26,0,0,1,1.16-2.15,5.73,5.73,0,0,0,.84-.9l-.07-.88-3.13.63Z"/><path class="cls-37" d="M64.7,40.78s-.31,1.09-.21,1.12a3,3,0,0,0,2.44-.39,14,14,0,0,0,2.49-1.75l-.16-.43a18,18,0,0,1-2.63,1.24Z"/><path class="cls-36" d="M64.08,32.4A16.66,16.66,0,0,0,63,37.13c0,1.6-.2,3.17,1.06,3.49s1.75.6,3.25,0,1.71-.9,1.71-.9-.07-.84.2-1,.33-.62.68-.89.78-.85.41-1.3a1.39,1.39,0,0,0-1-.51c-.16,0-.08-1-.1-1.34s-.45-.87-.45-1.3a10,10,0,0,0-.11-1.15,1.67,1.67,0,0,1-1,0c-.69-.32-.81-.8-1.5-1a1.82,1.82,0,0,0-1.23.24A2.1,2.1,0,0,0,64.08,32.4Z"/><path d="M47.09,22.81h-.44V19.7h.44Zm1.82-1.39H47.05V21h1.86Zm0-1.72h.44v3.11h-.44Z"/><path d="M51.23,22.83a1.4,1.4,0,0,1-.66-.15,1.12,1.12,0,0,1-.6-1.05,1.26,1.26,0,0,1,.15-.62,1.06,1.06,0,0,1,.42-.42,1.3,1.3,0,0,1,1.21,0,1.1,1.1,0,0,1,.41.42,1.28,1.28,0,0,1,.15.63.2.2,0,0,1,0,.07v.06h-2v-.3h1.78l-.18.1a.76.76,0,0,0-.09-.4.73.73,0,0,0-.27-.28.82.82,0,0,0-.4-.1.87.87,0,0,0-.39.1.78.78,0,0,0-.37.69v.07a.82.82,0,0,0,.11.42.7.7,0,0,0,.3.29.93.93,0,0,0,.45.1.92.92,0,0,0,.38-.07,1,1,0,0,0,.3-.21l.24.27a1.06,1.06,0,0,1-.4.29A1.51,1.51,0,0,1,51.23,22.83Z"/><path d="M52.9,22.81V19.52h.42v3.29Z"/><path d="M54.13,22.81V19.52h.43v3.29Z"/><path d="M56.37,22.83a1.26,1.26,0,0,1-.62-.15,1.21,1.21,0,0,1-.44-.43,1.28,1.28,0,0,1,0-1.24,1.11,1.11,0,0,1,.44-.42,1.38,1.38,0,0,1,1.25,0,1.11,1.11,0,0,1,.44.42,1.26,1.26,0,0,1,.15.62,1.24,1.24,0,0,1-.15.62,1.21,1.21,0,0,1-.44.43A1.28,1.28,0,0,1,56.37,22.83Zm0-.37a.74.74,0,0,0,.69-.39.89.89,0,0,0,.1-.44.83.83,0,0,0-.1-.43.71.71,0,0,0-.28-.29.78.78,0,0,0-.41-.1.77.77,0,0,0-.4.1.71.71,0,0,0-.28.29.83.83,0,0,0-.11.43.9.9,0,0,0,.11.44.78.78,0,0,0,.28.29A.77.77,0,0,0,56.37,22.46Z"/><path d="M59.44,22.81V19.7h1.3a1.87,1.87,0,0,1,.88.2,1.47,1.47,0,0,1,.59.54,1.69,1.69,0,0,1,0,1.63,1.47,1.47,0,0,1-.59.54,1.87,1.87,0,0,1-.88.2Zm.44-.39h.84a1.37,1.37,0,0,0,.66-.15,1,1,0,0,0,.44-.41,1.17,1.17,0,0,0,.16-.6,1.24,1.24,0,0,0-.16-.62,1,1,0,0,0-.44-.4,1.37,1.37,0,0,0-.66-.15h-.84Z"/><path d="M64,22.83a1.33,1.33,0,0,1-.63-.15,1.18,1.18,0,0,1-.43-.43A1.28,1.28,0,0,1,63,21a1.09,1.09,0,0,1,.43-.42,1.33,1.33,0,0,1,.63-.15,1.3,1.3,0,0,1,.63.15,1.09,1.09,0,0,1,.43.42,1.17,1.17,0,0,1,.16.62,1.15,1.15,0,0,1-.16.62,1.18,1.18,0,0,1-.43.43A1.3,1.3,0,0,1,64,22.83Zm0-.37a.8.8,0,0,0,.41-.1.78.78,0,0,0,.28-.29.89.89,0,0,0,.1-.44.83.83,0,0,0-.1-.43.71.71,0,0,0-.28-.29.8.8,0,0,0-.41-.1.77.77,0,0,0-.4.1.81.81,0,0,0-.29.29.83.83,0,0,0-.1.43.78.78,0,0,0,.39.73A.77.77,0,0,0,64,22.46Z"/><path d="M66.87,22.83a1.34,1.34,0,0,1-.64-.15,1.29,1.29,0,0,1-.44-.43,1.24,1.24,0,0,1-.16-.62,1.27,1.27,0,0,1,.16-.62,1.18,1.18,0,0,1,.44-.42,1.34,1.34,0,0,1,.64-.15,1.26,1.26,0,0,1,.57.12.89.89,0,0,1,.39.38l-.32.2a.74.74,0,0,0-.64-.33.8.8,0,0,0-.41.1.74.74,0,0,0-.29.29.83.83,0,0,0-.11.43.87.87,0,0,0,.11.44.77.77,0,0,0,.7.39.86.86,0,0,0,.36-.08.77.77,0,0,0,.28-.26l.32.21a.87.87,0,0,1-.39.37A1.14,1.14,0,0,1,66.87,22.83Z"/><path d="M68.08,20.81v-.35h1.49v.35Zm1.14,2a.74.74,0,0,1-.55-.19.72.72,0,0,1-.2-.54V19.94h.43v2.14a.42.42,0,0,0,.09.29.37.37,0,0,0,.28.1.47.47,0,0,0,.33-.11l.13.31a.56.56,0,0,1-.23.12A.86.86,0,0,1,69.22,22.83Z"/><path d="M71.17,22.83a1.26,1.26,0,0,1-.62-.15,1.21,1.21,0,0,1-.44-.43,1.28,1.28,0,0,1,0-1.24,1.15,1.15,0,0,1,.43-.42,1.33,1.33,0,0,1,.63-.15,1.28,1.28,0,0,1,.63.15,1.09,1.09,0,0,1,.43.42,1.17,1.17,0,0,1,.16.62,1.15,1.15,0,0,1-.16.62,1.18,1.18,0,0,1-.43.43A1.28,1.28,0,0,1,71.17,22.83Zm0-.37a.8.8,0,0,0,.41-.1.78.78,0,0,0,.28-.29.89.89,0,0,0,.1-.44.83.83,0,0,0-.1-.43.71.71,0,0,0-.28-.29.8.8,0,0,0-.41-.1.77.77,0,0,0-.4.1.71.71,0,0,0-.28.29.75.75,0,0,0-.11.43.8.8,0,0,0,.11.44.78.78,0,0,0,.28.29A.77.77,0,0,0,71.17,22.46Z"/><path d="M73,22.81V20.46h.41v.64l0-.16a.68.68,0,0,1,.33-.38,1.19,1.19,0,0,1,.56-.12v.41h-.09a.7.7,0,0,0-.54.21.77.77,0,0,0-.2.59v1.17Z"/><path d="M74.86,22.83a.33.33,0,0,1-.22-.08.31.31,0,0,1,0-.44.29.29,0,0,1,.22-.08.26.26,0,0,1,.2.08.31.31,0,0,1,0,.44A.3.3,0,0,1,74.86,22.83Z"/><path d="M75.86,22.83a.32.32,0,0,1-.21-.08.31.31,0,0,1,0-.44.32.32,0,0,1,.42,0,.34.34,0,0,1,0,.44A.32.32,0,0,1,75.86,22.83Z"/><path d="M77,22.83a.32.32,0,0,1-.21-.08.3.3,0,0,1-.08-.2.27.27,0,0,1,.29-.28.27.27,0,0,1,.28.28.26.26,0,0,1-.08.2A.28.28,0,0,1,77,22.83Zm-.17-1-.08-2.13h.5l-.09,2.13Z"/></svg>