<svg id="Layer_1" data-name="Layer 1" xmlns="http://www.w3.org/2000/svg" xmlns:xlink="http://www.w3.org/1999/xlink" viewBox="0 0 610 303"><defs><style>.cls-1,.cls-14,.cls-22,.cls-23,.cls-31,.cls-33,.cls-37{fill:none;}.cls-2{clip-path:url(#clip-path);}.cls-3{fill:#f7e2b7;opacity:0.21;}.cls-4{fill:#050505;}.cls-5,.cls-7{fill:#191818;}.cls-6{fill:#b6d5f8;opacity:0.49;}.cls-7{opacity:0.4;}.cls-8{fill:#70829b;}.cls-9{fill:#8585d6;}.cls-10{fill:#eff3f4;}.cls-11{fill:#c44418;}.cls-12{fill:#5d3e37;}.cls-13{fill:#e4977a;}.cls-14{stroke:#c16c57;}.cls-14,.cls-22,.cls-23,.cls-31,.cls-33,.cls-37{stroke-miterlimit:10;}.cls-14,.cls-22{stroke-width:0.31px;}.cls-15{fill:#303241;}.cls-16{fill:#e3987c;}.cls-17{fill:#fd5d5d;}.cls-18{fill:#2d2d3e;}.cls-19{fill:#b95f4c;}.cls-20{fill:#3e4553;}.cls-21{fill:#272b3d;}.cls-22{stroke:#dd0a00;}.cls-23{stroke:#c0644b;stroke-width:0.29px;}.cls-24{fill:#ae453f;}.cls-25{fill:#e2916f;}.cls-26{fill:#141414;}.cls-27{fill:#df906e;}.cls-28{fill:#2e2f3e;}.cls-29{fill:#f94b4b;}.cls-30{fill:#fcfcfc;}.cls-31{stroke:#44464c;}.cls-31,.cls-33,.cls-37{stroke-width:0.35px;}.cls-32{fill:#f9f9f9;}.cls-33{stroke:#be6149;}.cls-34{fill:#e54c41;}.cls-35{fill:#e5e6df;}.cls-36{fill:#e1916f;}.cls-37{stroke:#b85a4a;}.cls-38{fill:#0a0a0a;}</style><clipPath id="clip-path"><rect class="cls-1" width="610" height="303"/></clipPath></defs><title>at-home-blood-sample-collection_1</title><g class="cls-2"><path class="cls-3" d="M359.64,254.94c-16.61-52.68,19.74-103.78,31.55-119.1C396.41,128.75,425,91,466.84,77.7a159.21,159.21,0,0,1,33.88-6.36A141.24,141.24,0,0,1,540,74.56a155.15,155.15,0,0,1,37.59,13.09,234.81,234.81,0,0,1,59,35.09,221.8,221.8,0,0,1,38.2,40.13c5.41,7.49,20.5,28.81,23.2,33.34,2.26,3.8,25.93,56.88,24,66.68-1.68,5.77-41.92,24.66-73.92,34.29a64.22,64.22,0,0,1-24.66,2.11c-24.6-2.75-16.86,15.15-44.64,11.45-1.64-.22-22.87,1.24-33.17,2.16-15.62,1.39-26.87-1.5-36.14.35-8,1.61-46.92-.74-64.19-6.64-9.43-3.21-24.66,1-43.18-4.63a53.61,53.61,0,0,1-19.76-9.77,48.75,48.75,0,0,1-14.79-19.37A94,94,0,0,1,359.64,254.94Z"/><path class="cls-3" d="M99.63,5.73c17.62,42.1,1.28,81.79-34.89,87A183.91,183.91,0,0,0,19.88,105C-13.83,119.11-48.19,93.37-54.6,48.19A190.43,190.43,0,0,0-67.47,1.46c-17.61-42.11-1.27-81.8,34.89-87A183.88,183.88,0,0,0,12.29-97.86C46-111.93,80.35-86.19,86.77-41A191,191,0,0,0,99.63,5.73Z"/><path class="cls-4" d="M506.68,190.35c-.25,2-.25,5.42.22,6a.74.74,0,0,0,1.3-.14c.07-.4-.33-1.95.11-2.24s1-.54,1.08-.07-.36,1.05,0,1.05,1.48.39,2-.55,1.19-3,.5-3.39-1.26-.87-1.87-.29-.44,1.16-.87,1.16-1.08.54-1-.37-.11-1.55-.39-1.64-.71-.53-.88-.16A2.18,2.18,0,0,0,506.68,190.35Z"/><path class="cls-5" d="M449.34,145.18q0,3.07,0,6.17c0,1.16-.18,1.42-1.29,1.79a5.15,5.15,0,0,1-3.8-.16,1.32,1.32,0,0,1-.89-1.37q0-6.41,0-12.81a1.29,1.29,0,0,1,.74-1.34,4.51,4.51,0,0,1,4.4-.09,1.4,1.4,0,0,1,.85,1.4C449.31,140.91,449.33,143,449.34,145.18Zm-4.77-1.79a5,5,0,0,0,.31,2.26c.26.6.56,1.12,1.36,1.1a1.51,1.51,0,0,0,1.44-1.18,6.87,6.87,0,0,0,.13-4.16,1.56,1.56,0,0,0-1.4-1.28c-.68,0-1.11.43-1.45,1A4,4,0,0,0,444.57,143.39Z"/><path class="cls-6" d="M444.57,143.39a4,4,0,0,1,.39-2.24c.34-.59.77-1.07,1.45-1a1.56,1.56,0,0,1,1.4,1.28,6.87,6.87,0,0,1-.13,4.16,1.51,1.51,0,0,1-1.44,1.18c-.8,0-1.1-.5-1.36-1.1A5,5,0,0,1,444.57,143.39Z"/><path class="cls-7" d="M444.57,143.39a4,4,0,0,1,.39-2.24c.34-.59.77-1.07,1.45-1a1.56,1.56,0,0,1,1.4,1.28,6.87,6.87,0,0,1-.13,4.16,1.51,1.51,0,0,1-1.44,1.18c-.8,0-1.1-.5-1.36-1.1A5,5,0,0,1,444.57,143.39Z"/><rect class="cls-3" x="477.13" y="85.46" width="69.35" height="184.72"/><polygon class="cls-8" points="480.01 87.8 500.73 93.97 500.49 244.57 477.92 258.48 476.08 90.87 480.01 87.8"/><rect class="cls-9" x="458.9" y="88.39" width="8.99" height="175.63"/><polygon class="cls-8" points="480.02 262.23 476.77 263.98 476.77 90.31 480.05 90.31 480.02 262.23"/><rect class="cls-8" x="462.79" y="82.03" width="14.34" height="181.58"/><rect class="cls-8" x="543.4" y="85.17" width="9.07" height="185.17"/><polygon class="cls-9" points="480.05 87.8 500.95 94.33 500.3 255.44 479.24 267.59 480.05 87.8"/><rect class="cls-8" x="590.67" y="105.88" width="23.43" height="27.27"/><rect class="cls-10" x="593.89" y="107.63" width="18.42" height="23.69"/><rect class="cls-8" x="474.58" y="82.02" width="77.9" height="8.11"/><rect class="cls-11" x="597.85" y="111.51" width="11.74" height="7.73"/><rect class="cls-11" x="597.85" y="121.81" width="11.74" height="7.73"/><polygon class="cls-8" points="408.77 269.02 459.18 264.44 573.79 261.23 574.29 285.7 410.45 284.87 408.77 269.02"/><path class="cls-12" d="M425.13,196.84s-2.57-.44-3.45-2.31-.37-2.29-.72-3-1-1.31-.82-2.33a5.74,5.74,0,0,1,2.69-3.64,4.89,4.89,0,0,0,2.5-1.77c.12-.43.29-2.66.45-3.93s1.56-3,3.07-4.21,3.7-3.07,6.6-3.58,4.4-1.61,5.94-1.26,3,.46,4.47,1.64,3.48,1.34,4.51,2.26a11.45,11.45,0,0,1,3,3.83,6.22,6.22,0,0,0,1.9,2.72c.76.73.87,1.08.71,2.4s.12,1.47-1,2.59a9.69,9.69,0,0,0-1.4,1.65s-9.82,4.73-10.14,5-11.83.8-11.83.8l-4.55,3.84Z"/><path class="cls-13" d="M418.05,204.41c.89-.14,3.21-1.9,3.73-2.18a13,13,0,0,0,2.25-2.82c.54-.84,2.14-3.51,2.7-4.53s1.06-2.3,1.26-2.5-.16-1-.16-1.74a7.55,7.55,0,0,1,.3-3.13c.46-.92,1.22-2,1.94-2a3,3,0,0,1,2.33,1,14.26,14.26,0,0,0,1.72,2.84c.48.38,1.38.83,1.84.64s1-.22,1-.86a5.21,5.21,0,0,1,.34-1.58,19.21,19.21,0,0,0,2.55-.52,8.24,8.24,0,0,0,2.82-1.22c.76-.56,2.48-2.48,3.31-3a7.77,7.77,0,0,1,2.44-1.23,4.42,4.42,0,0,1,2.46.58c1,.47,2.59,1.07,2.79,1.61a23.57,23.57,0,0,1,.26,3.86,13.85,13.85,0,0,1-.81,4.33,19.41,19.41,0,0,1-1.52,2.68c-.62.8-1.5.34-1.5,1.8a13.61,13.61,0,0,1-.14,3.37,47.27,47.27,0,0,1-3.44,4.36c-.58.76-1.59,1.93-2.37,2.79s-.8,1.36-1.68,1.52a9.38,9.38,0,0,1-5.91-1.84c-.38,1.54-.63,3.2-.84,4.38a14.42,14.42,0,0,1-.67,2.56c-.46.85-4.56,2.54-10.68-.58-5.52-2.82-5.91-7.56-5.91-7.56Z"/><path class="cls-14" d="M428.83,189.22a1.54,1.54,0,0,1,.56-1.65c.56-.32,1.25-1,1.87-.11s1,1.81.4,1.87-1.23-.27-1.52.26,0,1,.4,1.79a3.86,3.86,0,0,0,.9,1.14"/><path class="cls-14" d="M428.14,192.18A10.78,10.78,0,0,0,430.4,195c.19.13-.07,4.79,0,5.19a12.7,12.7,0,0,0,2.53,3.91c1,.8,2.77,2.05,2.77,2.05"/><path class="cls-15" d="M440.39,275.93s7.43,7.59,9.27,8.15,13.58,1.36,16.38,3,7.43,3.19,8.47,4,2.15,2.56,3.27,7.67a91.25,91.25,0,0,1,1.52,11.67s-36.14,12.95-59.23,1.37-18.76-29.59-18.76-29.59l5.37-7.1,17.17-.08Z"/><path class="cls-16" d="M446.77,239a43.77,43.77,0,0,0,5.69,7.26,66.26,66.26,0,0,0,8.86,7,62.78,62.78,0,0,0,5.64,4.12c1.51.79,9.18,3.67,9.18,3.67s12.35,4,14.15,4.52,4.35.67,5.67,1.31,1.72.52,2.83,1.48,3.84,4.28,5,4.76,4.63,2.65,5.89,3.21a3.8,3.8,0,0,0,2.9.38,2,2,0,0,0,1-.92c0-.1.33-.14,1.21-.14a7.24,7.24,0,0,0,2.62-.46c.28-.22.52-1,1-1s1.22.22,1.58-.12a4.57,4.57,0,0,1,1-.79c.57-.38.93-.08,1-.78s0-1.66-.32-1.84-3.09-.76-4.31-1.16a23.59,23.59,0,0,1-4.43-2.72,26.24,26.24,0,0,1-2.48-1.93s-.66-.56-.56-.78.86.3,2.12.28,3.25.42,4.19-.1,1-.26,1.48-.88a1.71,1.71,0,0,0,.42-1.54c-.12-.08-4.32-.44-5.25-.5a22.87,22.87,0,0,1-3.36-.9,9.12,9.12,0,0,0-3.79-.46,30.08,30.08,0,0,1-4.76.16,30.39,30.39,0,0,1-3.89-1.3c-1.48-.54-8.11-3.75-9.33-4.47s-8.57-4.79-11-6.13-5.57-2.26-7.49-4.26-5.93-5.65-6.79-6.55-5.53-6-6.91-7.09a10.89,10.89,0,0,1-2.16-2.36l-4.65,5.72-2,2.85,0,2.5Z"/><path class="cls-17" d="M396.64,274.92a100.5,100.5,0,0,0,1.19-20.77,201.31,201.31,0,0,1,0-21s8.31-21.25,9.75-22.61a35.24,35.24,0,0,1,7-4.43c2.56-1.28,3.44-1.6,3.44-1.6a44.58,44.58,0,0,0,4.63,5.27c2.54,2.18,4.59,4.22,8.3,4.4,3.55.18,3.51.73,4.21-1.64a15.12,15.12,0,0,0,.66-2.5,27.27,27.27,0,0,0,3.21,2.53c1.39.85,4.34,1,4.85,1.25s.66-.37,2.87,2.26a88.2,88.2,0,0,1,5.92,8.21,26.57,26.57,0,0,0,3.22,4.15.6.6,0,0,1,.08.72s-6.77,4.17-7.79,6.09-1.52,3.34-1.44,3.8-.76.38-.76.38a31.89,31.89,0,0,1-.28,4.63,16.12,16.12,0,0,1-3.59,4.87c-1.76,1.76-2.44,3-2.4,3.92a23,23,0,0,1-.6,6.07c-.68,3.08-2.76,4.36-2.84,6.11s-.8,3.28,1.08,6.63a25.49,25.49,0,0,0,3.44,5s-4.4,1.95-4.72,2.11-8.94,1.6-8.94,1.6-10.67.56-15.94,1.48a47.25,47.25,0,0,1-9.11.76l-.8-.32Z"/><path class="cls-18" d="M398.92,242.41s3.21,1.73,3.57,1.79,0-2,0-2l-3.57,0Z"/><path class="cls-16" d="M402.64,242.2s1,9.65,1.3,11.41,1.62,8.11,2.1,9.65.36,2.05.62,2.73,2,2.4,3.71,3.76a154.42,154.42,0,0,0,13.58,8.8c3.8,2.06,12.07,5.76,14,6.78s3.77,1.59,4.51,2.19a6.23,6.23,0,0,0,3.71,1.52c2,.2,4.26.42,5.56.52a8.22,8.22,0,0,1,3.85.78,23.75,23.75,0,0,0,5,1.6,2.48,2.48,0,0,0,2.33-.6c.34-.48.72-.24,1.08-.14s1.66.14,1.88-.22.9-1,.36-1.64-1.2-.44-1.2-1.26a3,3,0,0,0-.48-1.62c-.14-.2-4.41-2.79-5.75-3.54s-3.88-2.42-5.08-2.66a15.36,15.36,0,0,0-4.82-.59c-2.83.06-3.46.3-4-.08s-7.32-4.36-9.83-6.2-10.46-8.68-11.88-10-5.22-4-5.14-4.74.43-7.06.43-7.06.11-5.91,0-7.14"/><path class="cls-19" d="M460.45,290c-.2-.14-3.66-2-5.94-3.25l.28-.46c.59.31,5.73,3.09,6,3.28Z"/><path class="cls-19" d="M464,289.83c-.33-.2-8.48-4.75-8.56-4.8l.31-.52,8.58,4.8Z"/><path class="cls-19" d="M463.82,287.43c-.26-.2-4.23-2.45-6.84-3.91l.31-.45c2.52,1.41,6.77,3.81,7,4Z"/><path class="cls-20" d="M419.2,225.16c-.68-9.08-5.85-12.53-5.9-12.56l.17-.26c.06,0,5.35,3.56,6,12.79Z"/><rect class="cls-20" x="418.96" y="228.95" width="0.31" height="14.14"/><path class="cls-20" d="M445.64,237.78c-.71-8.19-.27-9.87.11-11.35.09-.34.17-.67.24-1.07l.31,0c-.07.41-.16.75-.25,1.1-.38,1.45-.8,3.1-.1,11.25Z"/><path class="cls-20" d="M445.85,232.26l-.26-.17a15,15,0,0,1,3.13-3.64c1-.65,1.28-.64,1.42-.54a.24.24,0,0,1,.1.25l-.31-.07a.11.11,0,0,0,0,0,.05.05,0,0,0,0,0s-.22,0-1.09.54A15.34,15.34,0,0,0,445.85,232.26Z"/><path class="cls-21" d="M447,241.71c.13,0,3,2.74,3.09,2.74s-.29-1.38-.27-2,1.79-2.74,2.75-3.46,2.9-2.27,2.9-2.27a65.67,65.67,0,0,0-2.82,6.79c-.19,1.15-.54,3.79-.54,3.79s2.45,2.21,2.51,2.13,1.11-6.77,1.65-7.94,1.76-3.38,2.66-4a3.85,3.85,0,0,1,2.4-.94,2.55,2.55,0,0,0,1.41-.34L462.1,235l-.64-.21s.24.21.05-.69a9.93,9.93,0,0,1-.08-2.27l-1.38.4s-1.07,1.49-.86.51-.08-1-.08-1-4.42,1.81-5.56,2.79-5.51,5.3-6.05,5.86A2.19,2.19,0,0,0,447,241.71Z"/><path class="cls-22" d="M462.36,235a15.73,15.73,0,0,1,2.53-1.57c.56-.14,1.6-.22,2,.21s1.65,3.36,2.45,4.29,1.78,2.08,2.42,1.94a3.36,3.36,0,0,0,2.18-2.15c.38-1.23,2.18-7.25,2.59-8.95,2.27-9.47,11.05-3.17,11.05-3.17"/><path class="cls-23" d="M503,264.29a4.19,4.19,0,0,0,2.72,1.28,9.18,9.18,0,0,0,4.1-1.51"/><path class="cls-23" d="M507.8,272.24a9.25,9.25,0,0,1,2.22,1.23,20.14,20.14,0,0,0,3.21,1.86"/><path class="cls-23" d="M509.77,271.4A2.48,2.48,0,0,1,512,272a9.82,9.82,0,0,0,3.29,1.75c1,.13,1.65,0,2.76.22s1.83.25,2.13-.1.47-1.36.06-1.44-2.86,0-3.32-.16a10.51,10.51,0,0,1-2-1.26,4.53,4.53,0,0,0-2.24-1,15,15,0,0,0-1.92,1.21"/><path class="cls-24" d="M495.59,245.38a3.72,3.72,0,0,0,.33,2.09,2.86,2.86,0,0,0,1.16,1.08l14.63,1.31.81-2.19,3.38-4.88-1.15-1.22-.17-1L500.77,239Z"/><path class="cls-25" d="M481.66,228.1c.29,1,1.24,3.39,1.74,4.92a4.68,4.68,0,0,0,2.18,3.15c1.41,1,6.39,2.48,8.57,3a57,57,0,0,0,7.72.62,2.58,2.58,0,0,0,1.82-.8s-1.4-7.58-1.4-7.67-2.57-.75-3-.93-4.92-4.06-5.66-4.54a53.54,53.54,0,0,0-4.95-3.24,14.72,14.72,0,0,0-3.8-.91,1,1,0,0,0-1,1.39A12.71,12.71,0,0,0,486.7,225c.5.28,2.63,1,2.68,1.33s-.24.67-.56.59-3.14-1.11-4.26-1.31a4.05,4.05,0,0,0-2.24.07,1.41,1.41,0,0,0-.84,1.09A5.28,5.28,0,0,0,481.66,228.1Z"/><path class="cls-26" d="M515,149.84c.29-.92.73-5.42.94-5.92s.26,1.73,1.38,3,5.72,3,8.13,3.27,8.52.68,8.9.68,1.21-2.71,1.21-2.71l5.68,3.15a5.78,5.78,0,0,0,1.94,1.74,7.63,7.63,0,0,0,2.8,1.06c.5,0-.29.38.56,2.06s1.74,3.42,2.92,3.62,5.95.83,7.83-1.85,3.83-6.9.15-10.14-6.18-2.91-8.39-2.59c-1.39-3-5.36-12.52-13-15.7a9.5,9.5,0,0,0-6.54-.65c-2.33.59-7.63,2.42-9.67,5.1s-3.94,7.28-4.53,8.25-2.21,3.62-2.53,4.21-.51,2.3.57,2.92A2.44,2.44,0,0,0,515,149.84Z"/><path class="cls-27" d="M516,144.08c-.09,2-1.64,5.65.22,9.28s3.55,3.74,3.74,5.18a39.8,39.8,0,0,1,.17,4.35c0,.85-.13,2.94.73,4.44a14,14,0,0,0,4.74,4.22c1.21.53,4,1.23,4.92,1s2.56-.21,3.92-1.27,2.09-.94,2.09-.94,1.85,1.88,1.91,2.59a28.24,28.24,0,0,0,1,3.62c.36,1.15.77,1.86,1.09,1.83a13.4,13.4,0,0,0,3.66-1.74c1.09-.82,1.2-1.53,2.59-3.33a47.91,47.91,0,0,0,3.56-6.77,34.43,34.43,0,0,0,1.86-3.68c.09-.55-1-.65-1.4-1.12a18.12,18.12,0,0,1-2.18-2.58c-.46-.82-2.29-2.68-2.27-3.89s0-1.13-1.17-1.29a4.12,4.12,0,0,1-2.28-1.12c-.59-.49-1.23-.82-1.39-1.44s-2.67-4.51-5.19-3.29-1.81,2.58-2.19,2.85-4.77-.49-5.36-.6a47.4,47.4,0,0,1-7-1.34c-2-.73-4.89-1.53-5.11-4.58S516,144.08,516,144.08Z"/><path class="cls-28" d="M524.83,320.15l.13-13.56.58-14.63,2.07-10.6,1.81-14.85.31-3.93,1.37-9.32,1.06-2.21,1.28.62-.83,29.07,1,14.36s1.9,8.66,2.12,8.79,11.09,1.55,11.09,1.55l18.34-.18,1.37,3.19v3.18Z"/><path class="cls-29" d="M538.35,173.55c.88,1.41.71,3.76,1.63,4.24s3.19.05,4.47-1.19a9.73,9.73,0,0,1,2.6-1.81l-5.34,14.31L538,199.18s-3,7.15-2.92,7.38-1.54,4.94-1.54,4.94l-1.06-9.67L532,192s1.86-11.14,2-11.27,2-6.63,2-6.63Z"/><path class="cls-30" d="M501.57,230.05c2.36-.56,16.2-4.92,17.32-5.33s.89,0,1.92-1a12.53,12.53,0,0,0,2-2.56,81.28,81.28,0,0,0,1.59-8.13c.47-3.53,1-7.33,1-7.33s.21-6.39.53-8.55.18-7.36.62-9,1.06-4.74,2.33-6.36,4.65-4.74,5.51-5.89a39.44,39.44,0,0,0,2.38-4c.15-.29.5-.44.71-.15s.62.3.62.74.41.27-.24,2.24a100.72,100.72,0,0,0-3.12,14.46c-.38,4.13-.82,12.17-.82,12.49s0,7.31,0,7.31a40.9,40.9,0,0,1,.85-6.87c.62-2,3-10.28,4.92-14.72s5-10.49,6.72-13.44,3.5-7.27,4.38-8.72a6,6,0,0,0,1.06-2.74c0-.32-.82-.58-.88-.76s1-.86,1-.86.18-.58.83.12,4.3,4.95,6.36,7.07,6.95,3.68,8.95,6.84,3.69,4.47,4.84,7.27,2.53,3,3.68,16.26,1.32,24.44,1.41,27.4-1.46,8-1.46,8-2.12,1.33-2.25,2.92.49,18.2.49,18.2-.27,16.62-.18,21.39-.53,14-.66,15.11-.45,8.93-1.06,12-.8,4.51-1.51,4.77a46.26,46.26,0,0,1-10.42,2c-6.06.57-17.55.66-19.89.31s-7.38.13-9.1-4.07-.71-21.78-.71-21.78l.89-29.87.22-3s-2.52,32.08-3.09,37-1.14,16.87-1.6,17.75-.5,1.25-1.41,1.25a8.05,8.05,0,0,1-3.89-1.54,3.16,3.16,0,0,1-1-2.85c.09-1.62,1.34-16.11,1.75-22.29s1.59-20.8,1.65-23S526.55,245,526.7,243s.32-5,.32-5-3.54,1.15-5.9,1.86-3,.39-7.47,1.3a88.71,88.71,0,0,1-9.75,1.3s-1.3-6.87-1.62-9A22,22,0,0,0,501.57,230.05Z"/><path class="cls-31" d="M534.74,208.63s2.18-4.53,3.54-6.92a71.09,71.09,0,0,1,6-8.19,9,9,0,0,0,1.88-3c.15-.68-.59-3.21-.56-3.92s0-1.09.59-1.12a30.64,30.64,0,0,0,4.89-1.09,5.69,5.69,0,0,0,1.59-1.8s1.83-4.3,2.5-5.39,2.83-4.56,3.16-5.27.38-.82.38-.82"/><path class="cls-31" d="M533.4,206.51c-.22-.48-4.33-9.48-4.06-13.39A15.11,15.11,0,0,1,531.9,186c.2-.34.31-.89-.07-1a9.74,9.74,0,0,1-1.24-.26c-.19-.14-.39-.58.09-1.44s2.59-5.21,2.59-5.21"/><path class="cls-31" d="M534,207.4s.38,25.89-.68,30.66"/><path class="cls-31" d="M531.41,242.52l13.39-8.61c1.5-1,9.77-6.85,9.77-6.85"/><path class="cls-31" d="M538.35,254.16c.11.62.26,2.55.82,2.92a20,20,0,0,0,3.8,1,75.13,75.13,0,0,0,8.61.62,73.43,73.43,0,0,0,8.8-.27,2.31,2.31,0,0,0,1.78-.84,2.75,2.75,0,0,0,.62-1.74c0-.78-.13-1.88-.13-1.88"/><path class="cls-31" d="M560.66,253.23l-20,.35s6.75-2.88,9.75-4.12,13.23-6.45,15.5-7.57a38.42,38.42,0,0,0,5.45-3.6,16,16,0,0,0,4.3-4.15,37.6,37.6,0,0,0,1.56-4.21s.09-10.83-.18-17.19S575.82,199,575.82,199"/><path class="cls-31" d="M553.09,196.85s1.12,15.46,1.86,18.06,1.85,7.86,1.94,8"/><path class="cls-31" d="M565,228.34c-1.47-.09-5.27-1.15-5.21-3.09s7,0,7.69.79a5.91,5.91,0,0,1,.79.91"/><path class="cls-31" d="M527.92,228.8s-.37,4-.64,5.06"/><path class="cls-31" d="M522,222.79a39.58,39.58,0,0,1,4.89,1.62"/><path class="cls-30" d="M515.46,141.6c1.33.14,7,2.17,9.41,2.83s10.7,2.74,12.46,3.63a87.29,87.29,0,0,0,9.81,3.07c.29,0,.16-.36.6-1.17s1.63-1.79,1.63-2-1.12-1.08-1.12-1.08l-6-3.4s-10.91-5.83-11.69-6.34a33.91,33.91,0,0,0-7-2.47,31.58,31.58,0,0,0-3.91-.14,17.78,17.78,0,0,0-2.41,2.76A33,33,0,0,0,515.46,141.6Z"/><circle class="cls-29" cx="565.3" cy="197.63" r="7.6"/><rect class="cls-32" x="563.8" y="192.59" width="3.09" height="10.21"/><rect class="cls-32" x="563.48" y="192.48" width="3.09" height="10.21" transform="translate(762.6 -367.44) rotate(90)"/><path class="cls-33" d="M485,233.29a21.29,21.29,0,0,1,3.52-.49c.46,0,1.91,0,2.19-.35a1.81,1.81,0,0,0,0-1.74,2.86,2.86,0,0,0-1.47-.6,41.6,41.6,0,0,0-4.62.33,5.94,5.94,0,0,0-1.59.73"/><path class="cls-33" d="M488,233.3a11.11,11.11,0,0,1-1,1.43"/><path class="cls-33" d="M482.52,229.47a3.19,3.19,0,0,1,2.5-1.61,6.52,6.52,0,0,1,2.72.17c.49.25,1.77.79,1.94,1.47s.07.76.07.76"/><path class="cls-33" d="M482,228.84a8.23,8.23,0,0,1,.31-2.77,2.06,2.06,0,0,1,1.46-.4,23.89,23.89,0,0,1,4,1.05,6.06,6.06,0,0,1,2,1"/><path class="cls-32" d="M520.31,162.21a69.37,69.37,0,0,0,6.71-2.8c1.56-.85,3.3-1.56,3.51-1.74s2.47-4.5,2.47-4.5,2.06-3.83,2.24-4.19a13.69,13.69,0,0,1,.8-1.18l.5.09-1.36,2.8s-3.36,7.19-3.36,7.31a14.79,14.79,0,0,1,1,1.53,5.59,5.59,0,0,0,1.53,1.94c.68.62,1.18.83,1.47.8s1-1,1.59-1.83a38,38,0,0,0,1.86-4.24l.65-.18s-1.33,4.39-1.33,4.83a9.76,9.76,0,0,1,0,2,20.55,20.55,0,0,1-1.71,6c-.47.94-3,4.18-8.45,3.56s-8.07-5.63-8.07-5.63a9.19,9.19,0,0,1-.64-2.87A3,3,0,0,1,520.31,162.21Z"/><polygon class="cls-34" points="496.74 245.48 511.18 246.57 511 245.72 497.33 244.45 501.57 239.89 500.54 239.8 495.74 245.22 496.74 245.48"/><polygon class="cls-35" points="501.23 239.63 496.93 244.66 511 246.06 514.67 241.22 503.44 240.11 501.23 239.63"/><path class="cls-36" d="M518.05,256c1.57-.37,6.62-1.76,7.46-2.14a39.44,39.44,0,0,1,5.39-2.12,29.7,29.7,0,0,1,4.67-.73c.48-.07.15-1.5.15-1.5l-2.63-5.35-1.21-.6s.2-.53-.75-.15a7.36,7.36,0,0,1-2.52.29s-2.74-.84-3.8-1.35a26.65,26.65,0,0,0-4-1,14,14,0,0,1-3-.66c-.71-.42-3.47-2-4.16-2.56a2.06,2.06,0,0,0-2.23,0c-.37.31-.33,1.37.6,2.15s3.45,2.27,3.91,2.71a2.75,2.75,0,0,1,1.17,2.19,4.54,4.54,0,0,1-2,3,8.83,8.83,0,0,1-2.61,1.26,29.23,29.23,0,0,1-6.28-.11c-1.28-.38-2.2-.34-2.36,0a1.7,1.7,0,0,0,.77,2.1c1.11.66,6.43.44,8,.44h2.29l-3.84.53c-.33,0-1.26-.18,0,.51s3.2.72,4.24,1.65A9.09,9.09,0,0,0,518.05,256Z"/><path class="cls-37" d="M537.88,153c.1.67-.36,1.49-.38,1.9s-.09.95.32.95.82.29,1.31-.65a6.9,6.9,0,0,0,.47-3,9.54,9.54,0,0,0-.79-3.15s.67,2.18.39,2.34-.64-.69-.94-1-.81-.93-1.34-.9a1.73,1.73,0,0,0-1.4,1.06c-.23.62-.16,1.61.38,1.82S537.88,153,537.88,153Z"/><path class="cls-22" d="M487.61,225.6a11.59,11.59,0,0,1,2.92,3.18c1.83,2.55,2.4,9.61,4.76,11.78s3.65,2.4,3.65,2.4"/><path class="cls-38" d="M471.5,315.7c0-.05.13-7.36-3.22-10.28s-26.44-17-26.68-17.11l.56-.91c.95.58,23.38,14.25,26.81,17.22s10.16,9.08,10.33,9.29Z"/></g></svg>