<svg width="612" height="280" viewBox="0 0 612 280" fill="none" xmlns="http://www.w3.org/2000/svg">
<g clip-path="url(#clip0_1_430)">
<mask id="mask0_1_430" style="mask-type:luminance" maskUnits="userSpaceOnUse" x="0" y="0" width="612" height="280">
<path d="M612 0H0V280H612V0Z" fill="white" style="fill:white;fill-opacity:1;"/>
</mask>
<g mask="url(#mask0_1_430)">
<path opacity="0.21" d="M361.64 232C345.04 179.32 381.39 128.21 393.19 112.89C398.41 105.76 427 68 468.84 54.7C479.87 51.36 491.23 49.2275 502.72 48.34C515.899 47.5774 529.121 48.6613 542 51.56C555.041 54.2942 567.675 58.6972 579.59 64.66C600.869 73.4032 620.749 85.2262 638.59 99.75C652.955 111.472 665.789 124.955 676.79 139.88C682.2 147.37 697.29 168.69 699.99 173.22C702.25 177.01 725.92 230.09 723.99 239.89C722.32 245.66 682.07 264.56 650.08 274.19C642.071 276.485 633.692 277.202 625.41 276.3C600.81 273.55 608.55 291.44 580.78 287.74C579.13 287.52 557.9 288.99 547.6 289.91C531.98 291.3 520.74 288.4 511.46 290.26C503.46 291.86 464.54 289.51 447.27 283.62C437.84 280.4 422.61 284.62 404.09 278.98C396.898 277.132 390.169 273.808 384.33 269.22C377.844 264.111 372.756 257.444 369.54 249.84C366.294 244.184 363.647 238.205 361.64 232Z" fill="#F7E2B7" style="fill:#F7E2B7;fill:color(display-p3 0.9686 0.8863 0.7176);fill-opacity:1;"/>
<path opacity="0.21" d="M105 43C122.62 85.11 106.28 124.8 70.11 130C54.6793 132.181 39.5884 136.314 25.2 142.3C-8.51 156.37 -42.87 130.63 -49.28 85.44C-51.5633 69.3822 -55.8883 53.6819 -62.15 38.72C-79.76 -3.38999 -63.42 -43.08 -27.25 -48.28C-11.8355 -50.4712 3.23845 -54.611 17.61 -60.6C51.32 -74.67 85.68 -48.93 92.09 -3.73999C94.3877 12.3257 98.7261 28.0326 105 43Z" fill="#F7E2B7" style="fill:#F7E2B7;fill:color(display-p3 0.9686 0.8863 0.7176);fill-opacity:1;"/>
<path d="M508.68 167.35C508.43 169.35 508.43 172.77 508.9 173.35C508.976 173.461 509.081 173.549 509.204 173.605C509.326 173.661 509.461 173.682 509.595 173.667C509.729 173.651 509.856 173.6 509.962 173.517C510.069 173.435 510.151 173.325 510.2 173.2C510.27 172.81 509.87 171.25 510.31 170.96C510.75 170.67 511.31 170.42 511.39 170.89C511.47 171.36 511.03 171.94 511.39 171.94C511.75 171.94 512.87 172.34 513.39 171.4C513.91 170.46 514.58 168.4 513.9 168C513.22 167.6 512.63 167.14 512.02 167.71C511.41 168.28 511.58 168.87 511.15 168.87C510.72 168.87 510.07 169.41 510.15 168.51C510.23 167.61 510.05 166.96 509.76 166.87C509.47 166.78 509.05 166.34 508.88 166.71C508.779 166.911 508.712 167.127 508.68 167.35Z" fill="#050505" style="fill:#050505;fill:color(display-p3 0.0196 0.0196 0.0196);fill-opacity:1;"/>
<path d="M451.34 122.18V128.35C451.34 129.52 451.15 129.78 450.05 130.15C448.804 130.575 447.443 130.514 446.24 129.98C445.96 129.887 445.72 129.702 445.559 129.455C445.397 129.208 445.324 128.914 445.35 128.62C445.35 124.347 445.35 120.077 445.35 115.81C445.317 115.536 445.37 115.258 445.503 115.016C445.636 114.774 445.841 114.579 446.09 114.46C446.755 114.072 447.509 113.861 448.278 113.845C449.048 113.829 449.809 114.01 450.49 114.37C450.762 114.485 450.992 114.684 451.144 114.937C451.297 115.19 451.365 115.485 451.34 115.78C451.32 117.91 451.34 120.05 451.34 122.18ZM446.57 120.4C446.496 121.164 446.602 121.935 446.88 122.65C447.14 123.26 447.45 123.77 448.24 123.75C448.577 123.745 448.901 123.627 449.163 123.414C449.424 123.202 449.606 122.908 449.68 122.58C450.152 121.24 450.197 119.787 449.81 118.42C449.749 118.084 449.581 117.776 449.33 117.543C449.079 117.311 448.76 117.166 448.42 117.13C447.73 117.13 447.3 117.56 446.96 118.13C446.615 118.834 446.479 119.622 446.57 120.4Z" fill="#191818" style="fill:#191818;fill:color(display-p3 0.0980 0.0941 0.0941);fill-opacity:1;"/>
<path opacity="0.49" d="M446.57 120.4C446.483 119.628 446.619 118.848 446.96 118.15C447.3 117.56 447.73 117.08 448.42 117.15C448.76 117.186 449.079 117.331 449.33 117.563C449.581 117.796 449.749 118.104 449.81 118.44C450.197 119.807 450.152 121.26 449.68 122.6C449.606 122.928 449.424 123.222 449.163 123.434C448.901 123.647 448.576 123.765 448.24 123.77C447.45 123.77 447.14 123.28 446.88 122.67C446.599 121.948 446.493 121.171 446.57 120.4Z" fill="#B6D5F8" style="fill:#B6D5F8;fill:color(display-p3 0.7137 0.8353 0.9725);fill-opacity:1;"/>
<path opacity="0.4" d="M446.57 120.4C446.483 119.628 446.619 118.848 446.96 118.15C447.3 117.56 447.73 117.08 448.42 117.15C448.76 117.186 449.079 117.331 449.33 117.563C449.581 117.796 449.749 118.104 449.81 118.44C450.197 119.807 450.152 121.26 449.68 122.6C449.606 122.928 449.424 123.222 449.163 123.434C448.901 123.647 448.576 123.765 448.24 123.77C447.45 123.77 447.14 123.28 446.88 122.67C446.599 121.948 446.493 121.171 446.57 120.4Z" fill="#191818" style="fill:#191818;fill:color(display-p3 0.0980 0.0941 0.0941);fill-opacity:1;"/>
<path opacity="0.21" d="M548.48 62.46H479.13V247.18H548.48V62.46Z" fill="#F7E2B7" style="fill:#F7E2B7;fill:color(display-p3 0.9686 0.8863 0.7176);fill-opacity:1;"/>
<path d="M482.01 64.8L502.73 70.97L502.5 221.58L479.93 235.49L478.08 67.87L482.01 64.8Z" fill="#70829B" style="fill:#70829B;fill:color(display-p3 0.4392 0.5098 0.6078);fill-opacity:1;"/>
<path d="M469.89 65.39H460.9V241.02H469.89V65.39Z" fill="#8585D6" style="fill:#8585D6;fill:color(display-p3 0.5216 0.5216 0.8392);fill-opacity:1;"/>
<path d="M482.02 239.23L478.77 240.98V67.32H482.05L482.02 239.23Z" fill="#70829B" style="fill:#70829B;fill:color(display-p3 0.4392 0.5098 0.6078);fill-opacity:1;"/>
<path d="M479.13 59.03H464.79V240.61H479.13V59.03Z" fill="#70829B" style="fill:#70829B;fill:color(display-p3 0.4392 0.5098 0.6078);fill-opacity:1;"/>
<path d="M554.47 62.18H545.4V247.35H554.47V62.18Z" fill="#70829B" style="fill:#70829B;fill:color(display-p3 0.4392 0.5098 0.6078);fill-opacity:1;"/>
<path d="M482.05 64.8L502.95 71.33L502.3 232.44L481.24 244.59L482.05 64.8Z" fill="#8585D6" style="fill:#8585D6;fill:color(display-p3 0.5216 0.5216 0.8392);fill-opacity:1;"/>
<path d="M616.1 82.88H592.67V110.15H616.1V82.88Z" fill="#70829B" style="fill:#70829B;fill:color(display-p3 0.4392 0.5098 0.6078);fill-opacity:1;"/>
<path d="M614.31 84.64H595.89V108.33H614.31V84.64Z" fill="#EFF3F4" style="fill:#EFF3F4;fill:color(display-p3 0.9373 0.9529 0.9569);fill-opacity:1;"/>
<path d="M554.48 59.02H476.58V67.13H554.48V59.02Z" fill="#70829B" style="fill:#70829B;fill:color(display-p3 0.4392 0.5098 0.6078);fill-opacity:1;"/>
<path d="M611.59 88.52H599.85V96.25H611.59V88.52Z" fill="#C44418" style="fill:#C44418;fill:color(display-p3 0.7686 0.2667 0.0941);fill-opacity:1;"/>
<path d="M611.59 98.82H599.85V106.55H611.59V98.82Z" fill="#C44418" style="fill:#C44418;fill:color(display-p3 0.7686 0.2667 0.0941);fill-opacity:1;"/>
<path d="M410.77 246.02L461.18 241.44L575.79 238.23L576.3 262.7L412.45 261.88L410.77 246.02Z" fill="#70829B" style="fill:#70829B;fill:color(display-p3 0.4392 0.5098 0.6078);fill-opacity:1;"/>
<path d="M427.13 173.84C427.13 173.84 424.56 173.4 423.68 171.54C422.8 169.68 423.31 169.25 422.97 168.54C422.63 167.83 421.97 167.24 422.14 166.21C422.317 165.454 422.647 164.741 423.11 164.117C423.573 163.493 424.158 162.97 424.83 162.58C425.833 162.27 426.709 161.646 427.33 160.8C427.45 160.38 427.63 158.14 427.79 156.88C427.95 155.62 429.34 153.88 430.85 152.67C432.36 151.46 434.55 149.59 437.45 149.09C440.35 148.59 441.85 147.47 443.39 147.82C444.93 148.17 446.39 148.29 447.87 149.46C449.35 150.63 451.34 150.8 452.37 151.72C453.635 152.769 454.659 154.079 455.37 155.56C455.745 156.619 456.402 157.556 457.27 158.27C458.03 159.01 458.14 159.35 457.98 160.67C457.82 161.99 458.1 162.15 456.98 163.27C456.453 163.763 455.987 164.317 455.59 164.92C455.59 164.92 445.76 169.65 445.44 169.92C445.12 170.19 433.61 170.71 433.61 170.71L429.06 174.55L427.13 173.84Z" fill="#5D3E37" style="fill:#5D3E37;fill:color(display-p3 0.3647 0.2431 0.2157);fill-opacity:1;"/>
<path d="M420.05 181.42C420.94 181.27 423.26 179.51 423.78 179.23C424.661 178.406 425.419 177.46 426.03 176.42C426.57 175.58 428.17 172.9 428.73 171.88C429.29 170.86 429.79 169.59 429.99 169.39C430.19 169.19 429.83 168.39 429.83 167.65C429.709 166.594 429.811 165.524 430.13 164.51C430.59 163.59 431.35 162.51 432.07 162.51C432.508 162.496 432.943 162.579 433.346 162.752C433.748 162.925 434.108 163.183 434.4 163.51C434.861 164.52 435.438 165.474 436.12 166.35C436.6 166.73 437.5 167.19 437.96 166.99C438.42 166.79 438.96 166.77 438.96 166.13C438.99 165.589 439.105 165.056 439.3 164.55C440.161 164.436 441.013 164.262 441.85 164.03C442.858 163.804 443.815 163.39 444.67 162.81C445.43 162.26 447.15 160.34 447.99 159.81C448.717 159.251 449.541 158.831 450.42 158.57C451.279 158.52 452.134 158.721 452.88 159.15C453.88 159.63 455.48 160.23 455.68 160.77C455.872 162.044 455.959 163.332 455.94 164.62C455.905 166.102 455.628 167.568 455.12 168.96C454.685 169.889 454.177 170.782 453.6 171.63C452.98 172.43 452.1 171.97 452.1 173.43C452.193 174.558 452.146 175.694 451.96 176.81C451.72 177.49 449.1 180.4 448.52 181.16C447.94 181.92 446.93 183.1 446.15 183.96C445.37 184.82 445.35 185.31 444.47 185.47C442.35 185.542 440.268 184.897 438.56 183.64C438.18 185.18 437.94 186.84 437.72 188.02C437.574 188.892 437.35 189.749 437.05 190.58C436.59 191.42 432.49 193.12 426.37 190C420.85 187.18 420.46 182.44 420.46 182.44L420.05 181.42Z" fill="#E4977A" style="fill:#E4977A;fill:color(display-p3 0.8941 0.5922 0.4784);fill-opacity:1;"/>
<path d="M430.83 166.22C430.746 165.921 430.754 165.603 430.854 165.308C430.954 165.014 431.141 164.756 431.39 164.57C431.95 164.25 432.65 163.57 433.26 164.47C433.87 165.37 434.26 166.28 433.66 166.33C433.06 166.38 432.43 166.06 432.14 166.6C431.85 167.14 432.14 167.6 432.54 168.38C432.771 168.813 433.075 169.202 433.44 169.53" stroke="#C16C57" style="stroke:#C16C57;stroke:color(display-p3 0.7569 0.4235 0.3412);stroke-opacity:1;" stroke-width="0.31" stroke-miterlimit="10"/>
<path d="M430.14 169.18C430.723 170.256 431.492 171.221 432.41 172.03C432.59 172.16 432.33 176.82 432.41 177.22C433.001 178.673 433.859 180.003 434.94 181.14C435.94 181.94 437.71 183.19 437.71 183.19" stroke="#C16C57" style="stroke:#C16C57;stroke:color(display-p3 0.7569 0.4235 0.3412);stroke-opacity:1;" stroke-width="0.31" stroke-miterlimit="10"/>
<path d="M442.39 252.94C442.39 252.94 449.82 260.53 451.66 261.08C453.5 261.63 465.24 262.44 468.04 264.08C470.84 265.72 475.47 267.28 476.51 268.08C477.55 268.88 478.67 270.63 479.78 275.75C480.537 279.6 481.045 283.495 481.3 287.41C481.3 287.41 445.16 300.41 422.07 288.78C398.98 277.15 403.31 259.19 403.31 259.19L408.68 252.1L425.85 252.02L442.39 252.94Z" fill="#303241" style="fill:#303241;fill:color(display-p3 0.1882 0.1961 0.2549);fill-opacity:1;"/>
<path d="M448.77 216C450.406 218.614 452.313 221.047 454.46 223.26C457.213 225.841 460.18 228.182 463.33 230.26C465.129 231.733 467.009 233.106 468.96 234.37C470.48 235.17 478.15 238.05 478.15 238.05C478.15 238.05 490.49 242 492.29 242.56C494.09 243.12 496.64 243.24 497.96 243.88C499.28 244.52 499.68 244.4 500.8 245.36C501.92 246.32 504.63 249.63 505.75 250.11C506.87 250.59 510.38 252.77 511.64 253.32C512.074 253.572 512.554 253.735 513.052 253.8C513.55 253.865 514.055 253.831 514.54 253.7C514.969 253.522 515.322 253.2 515.54 252.79C515.54 252.69 515.88 252.65 516.75 252.65C517.644 252.66 518.533 252.504 519.37 252.19C519.65 251.97 519.89 251.19 520.37 251.19C520.85 251.19 521.59 251.41 521.95 251.07C522.247 250.761 522.583 250.492 522.95 250.27C523.53 249.89 523.89 250.19 523.95 249.49C524.01 248.79 523.95 247.83 523.63 247.65C523.31 247.47 520.53 246.89 519.31 246.49C517.739 245.751 516.253 244.842 514.88 243.78C514.014 243.185 513.186 242.537 512.4 241.84C512.4 241.84 511.74 241.28 511.84 241.06C511.94 240.84 512.7 241.36 513.96 241.34C515.22 241.32 517.21 241.76 518.15 241.24C519.09 240.72 519.15 240.98 519.63 240.36C519.82 240.157 519.958 239.91 520.031 239.642C520.104 239.374 520.111 239.091 520.05 238.82C519.93 238.74 515.74 238.38 514.8 238.32C513.659 238.108 512.536 237.811 511.44 237.43C510.223 237.011 508.932 236.854 507.65 236.97C506.07 237.149 504.478 237.203 502.89 237.13C501.566 236.785 500.266 236.35 499 235.83C497.52 235.29 490.89 232.07 489.67 231.35C488.45 230.63 481.1 226.56 478.67 225.22C476.24 223.88 473.09 222.97 471.17 220.97C469.25 218.97 465.24 215.32 464.38 214.42C463.52 213.52 458.85 208.42 457.47 207.33C456.639 206.656 455.914 205.86 455.32 204.97L450.66 210.68L448.66 213.54V216.03L448.77 216Z" fill="#E3987C" style="fill:#E3987C;fill:color(display-p3 0.8902 0.5961 0.4863);fill-opacity:1;"/>
<path d="M398.64 251.92C399.761 245.057 400.163 238.096 399.84 231.15C399.469 224.155 399.469 217.145 399.84 210.15C399.84 210.15 408.14 188.9 409.58 187.54C411.728 185.786 414.078 184.296 416.58 183.1C419.14 181.83 420.02 181.51 420.02 181.51C421.424 183.382 422.972 185.14 424.65 186.77C427.19 188.95 429.24 190.99 432.95 191.18C436.5 191.36 436.46 191.9 437.16 189.54C437.451 188.724 437.672 187.884 437.82 187.03C438.825 187.952 439.898 188.798 441.03 189.56C442.42 190.41 445.37 190.56 445.88 190.81C446.39 191.06 446.54 190.44 448.75 193.08C450.881 195.696 452.858 198.434 454.67 201.28C455.602 202.771 456.681 204.164 457.89 205.44C457.981 205.532 458.038 205.653 458.052 205.781C458.067 205.91 458.038 206.04 457.97 206.15C457.97 206.15 451.2 210.33 450.18 212.25C449.16 214.17 448.66 215.58 448.74 216.04C448.82 216.5 447.98 216.42 447.98 216.42C447.999 217.968 447.906 219.516 447.7 221.05C446.823 222.889 445.605 224.545 444.11 225.93C442.35 227.69 441.67 228.93 441.71 229.84C441.78 231.881 441.579 233.922 441.11 235.91C440.43 238.99 438.35 240.27 438.28 242.03C438.21 243.79 437.48 245.3 439.35 248.66C440.298 250.44 441.452 252.101 442.79 253.61C442.79 253.61 438.39 255.61 438.08 255.73C437.77 255.85 429.13 257.33 429.13 257.33C429.13 257.33 418.46 257.89 413.19 258.8C410.185 259.347 407.134 259.602 404.08 259.56L403.28 259.24L398.64 251.92Z" fill="#FD5D5D" style="fill:#FD5D5D;fill:color(display-p3 0.9922 0.3647 0.3647);fill-opacity:1;"/>
<path d="M400.92 219.41C400.92 219.41 404.13 221.15 404.49 221.21C404.85 221.27 404.49 219.21 404.49 219.21H400.92V219.41Z" fill="#2D2D3E" style="fill:#2D2D3E;fill:color(display-p3 0.1765 0.1765 0.2431);fill-opacity:1;"/>
<path d="M404.64 219.21C404.64 219.21 405.64 228.85 405.94 230.61C406.24 232.37 407.56 238.72 408.04 240.26C408.52 241.8 408.4 242.32 408.66 243C409.694 244.435 410.946 245.701 412.37 246.75C416.756 249.924 421.305 252.865 426 255.56C429.8 257.62 438.07 261.31 440 262.33C441.93 263.35 443.77 263.93 444.51 264.53C445.547 265.433 446.857 265.965 448.23 266.04C450.23 266.24 452.48 266.46 453.78 266.56C455.108 266.504 456.429 266.772 457.63 267.34C459.232 268.056 460.909 268.593 462.63 268.94C463.037 269.046 463.465 269.046 463.873 268.942C464.28 268.837 464.654 268.63 464.96 268.34C465.3 267.86 465.68 268.1 466.04 268.2C466.4 268.3 467.7 268.34 467.92 267.98C468.14 267.62 468.82 266.98 468.28 266.34C467.74 265.7 467.08 265.91 467.08 265.09C467.078 264.515 466.912 263.953 466.6 263.47C466.46 263.27 462.19 260.67 460.86 259.93C459.53 259.19 456.97 257.5 455.77 257.26C454.205 256.809 452.577 256.613 450.95 256.68C448.13 256.73 447.49 256.97 446.95 256.6C446.41 256.23 439.63 252.23 437.12 250.39C434.61 248.55 426.66 241.71 425.25 240.39C423.84 239.07 420.03 236.39 420.11 235.65C420.19 234.91 420.53 228.59 420.53 228.59C420.53 228.59 420.64 222.68 420.53 221.46" fill="#E3987C" style="fill:#E3987C;fill:color(display-p3 0.8902 0.5961 0.4863);fill-opacity:1;"/>
<path d="M462.45 267.05C462.25 266.91 458.79 265.05 456.51 263.8L456.79 263.33C457.38 263.65 462.52 266.43 462.79 266.61L462.45 267.05Z" fill="#B95F4C" style="fill:#B95F4C;fill:color(display-p3 0.7255 0.3725 0.2980);fill-opacity:1;"/>
<path d="M466 266.83C465.67 266.63 457.52 262.08 457.44 262.04L457.76 261.52C458.09 261.7 466 266.12 466.33 266.32L466 266.83Z" fill="#B95F4C" style="fill:#B95F4C;fill:color(display-p3 0.7255 0.3725 0.2980);fill-opacity:1;"/>
<path d="M465.82 264.44C465.57 264.23 461.59 261.98 458.99 260.52L459.29 260.07C461.81 261.48 466.06 263.88 466.29 264.07L465.82 264.44Z" fill="#B95F4C" style="fill:#B95F4C;fill:color(display-p3 0.7255 0.3725 0.2980);fill-opacity:1;"/>
<path d="M421.2 202.16C420.52 193.09 415.36 189.64 415.3 189.6L415.47 189.34C415.53 189.34 420.82 192.9 421.47 202.14L421.2 202.16Z" fill="#3E4553" style="fill:#3E4553;fill:color(display-p3 0.2431 0.2706 0.3255);fill-opacity:1;"/>
<path d="M421.27 205.96H420.96V220.1H421.27V205.96Z" fill="#3E4553" style="fill:#3E4553;fill:color(display-p3 0.2431 0.2706 0.3255);fill-opacity:1;"/>
<path d="M447.64 214.79C446.93 206.59 447.37 204.91 447.75 203.44C447.85 203.085 447.93 202.724 447.99 202.36H448.3C448.239 202.731 448.155 203.099 448.05 203.46C447.68 204.92 447.25 206.57 447.96 214.71L447.64 214.79Z" fill="#3E4553" style="fill:#3E4553;fill:color(display-p3 0.2431 0.2706 0.3255);fill-opacity:1;"/>
<path d="M447.85 209.26L447.59 209.1C448.437 207.728 449.493 206.496 450.72 205.45C451.72 204.8 452 204.81 452.14 204.91C452.182 204.938 452.214 204.977 452.232 205.024C452.249 205.071 452.252 205.122 452.24 205.17L451.93 205.1C451.928 205.117 451.928 205.133 451.93 205.15C451.93 205.15 451.71 205.15 450.84 205.69C449.668 206.721 448.659 207.925 447.85 209.26Z" fill="#3E4553" style="fill:#3E4553;fill:color(display-p3 0.2431 0.2706 0.3255);fill-opacity:1;"/>
<path d="M449 218.71C449.13 218.71 452 221.46 452.09 221.46C452.18 221.46 451.8 220.07 451.82 219.46C451.84 218.85 453.61 216.72 454.57 216C455.53 215.28 457.47 213.74 457.47 213.74C456.402 215.948 455.461 218.215 454.65 220.53C454.46 221.67 454.11 224.31 454.11 224.31C454.11 224.31 456.56 226.52 456.62 226.44C456.68 226.36 457.74 219.68 458.27 218.5C458.8 217.32 460.03 215.12 460.93 214.5C461.601 213.927 462.448 213.599 463.33 213.57C463.824 213.594 464.315 213.473 464.74 213.22L464.1 212L463.46 211.78C463.46 211.78 463.7 212 463.51 211.09C463.402 210.342 463.375 209.584 463.43 208.83L462.05 209.23C462.05 209.23 460.98 210.72 461.19 209.73C461.4 208.74 461.11 208.73 461.11 208.73C461.11 208.73 456.69 210.54 455.55 211.53C454.41 212.52 450.04 216.83 449.5 217.39C449.191 217.762 449.015 218.227 449 218.71Z" fill="#272B3D" style="fill:#272B3D;fill:color(display-p3 0.1529 0.1686 0.2392);fill-opacity:1;"/>
<path d="M464.36 212C465.152 211.398 465.999 210.872 466.89 210.43C467.45 210.3 468.49 210.22 468.89 210.64C469.29 211.06 470.54 214 471.34 214.93C472.14 215.86 473.12 217.01 473.76 216.88C474.268 216.715 474.73 216.433 475.11 216.058C475.49 215.683 475.778 215.225 475.95 214.72C476.32 213.49 478.12 207.48 478.53 205.77C480.8 196.31 489.58 202.61 489.58 202.61" stroke="#DD0A00" style="stroke:#DD0A00;stroke:color(display-p3 0.8667 0.0392 0.0000);stroke-opacity:1;" stroke-width="0.31" stroke-miterlimit="10"/>
<path d="M505 241.3C505.717 242.042 506.681 242.494 507.71 242.57C509.179 242.409 510.587 241.89 511.81 241.06" stroke="#C0644B" style="stroke:#C0644B;stroke:color(display-p3 0.7529 0.3922 0.2941);stroke-opacity:1;" stroke-width="0.29" stroke-miterlimit="10"/>
<path d="M509.8 249.25C510.593 249.556 511.34 249.97 512.02 250.48C513.031 251.193 514.106 251.812 515.23 252.33" stroke="#C0644B" style="stroke:#C0644B;stroke:color(display-p3 0.7529 0.3922 0.2941);stroke-opacity:1;" stroke-width="0.29" stroke-miterlimit="10"/>
<path d="M511.77 248.41C512.159 248.322 512.564 248.331 512.949 248.436C513.335 248.54 513.688 248.738 513.98 249.01C514.957 249.8 516.078 250.394 517.28 250.76C518.22 250.9 518.92 250.76 520.03 250.98C521.14 251.2 521.86 251.23 522.16 250.88C522.46 250.53 522.63 249.52 522.22 249.45C521.81 249.38 519.36 249.45 518.9 249.29C518.192 248.936 517.522 248.511 516.9 248.02C516.26 247.487 515.484 247.141 514.66 247.02C513.99 247.377 513.348 247.785 512.74 248.24" stroke="#C0644B" style="stroke:#C0644B;stroke:color(display-p3 0.7529 0.3922 0.2941);stroke-opacity:1;" stroke-width="0.29" stroke-miterlimit="10"/>
<path d="M497.59 222.38C497.495 223.094 497.61 223.82 497.92 224.47C498.197 224.932 498.599 225.306 499.08 225.55L513.71 226.86L514.52 224.67L517.9 219.79L516.76 218.58L516.58 217.58L502.77 216L497.59 222.38Z" fill="#AE453F" style="fill:#AE453F;fill:color(display-p3 0.6824 0.2706 0.2471);fill-opacity:1;"/>
<path d="M483.66 205.11C483.96 206.11 484.9 208.49 485.4 210.03C485.523 210.678 485.781 211.294 486.156 211.836C486.532 212.379 487.017 212.836 487.58 213.18C488.99 214.12 493.97 215.65 496.15 216.18C498.706 216.561 501.286 216.769 503.87 216.8C504.56 216.788 505.218 216.504 505.7 216.01C505.7 216.01 504.3 208.42 504.3 208.33C504.3 208.24 501.72 207.58 501.3 207.41C500.88 207.24 496.38 203.34 495.64 202.87C494.053 201.696 492.401 200.614 490.69 199.63C489.469 199.159 488.191 198.853 486.89 198.72C486.72 198.707 486.549 198.738 486.394 198.81C486.238 198.882 486.104 198.992 486.004 199.13C485.904 199.269 485.841 199.431 485.821 199.6C485.801 199.77 485.825 199.942 485.89 200.1C486.09 200.56 488.2 201.71 488.7 201.99C489.2 202.27 491.33 202.99 491.38 203.31C491.43 203.63 491.14 203.99 490.82 203.9C490.5 203.81 487.68 202.8 486.56 202.59C485.822 202.402 485.045 202.426 484.32 202.66C484.1 202.756 483.907 202.907 483.76 203.097C483.613 203.288 483.517 203.512 483.48 203.75C483.482 204.209 483.542 204.666 483.66 205.11Z" fill="#E2916F" style="fill:#E2916F;fill:color(display-p3 0.8863 0.5686 0.4353);fill-opacity:1;"/>
<path d="M517 126.84C517.29 125.93 517.73 121.42 517.94 120.92C518.15 120.42 518.2 122.66 519.32 123.92C520.44 125.18 525.04 126.92 527.45 127.19C529.86 127.46 535.97 127.87 536.35 127.87C536.73 127.87 537.56 125.16 537.56 125.16L543.24 128.31C543.762 129.038 544.447 129.633 545.24 130.05C546.09 130.586 547.039 130.946 548.03 131.11C548.54 131.11 547.74 131.49 548.59 133.17C549.44 134.85 550.33 136.59 551.51 136.8C552.69 137.01 557.46 137.62 559.35 134.94C561.24 132.26 563.18 128.05 559.49 124.81C555.8 121.57 553.31 121.89 551.1 122.22C549.71 119.22 545.74 109.7 538.1 106.52C536.068 105.528 533.747 105.297 531.56 105.87C529.23 106.46 523.93 108.28 521.9 110.96C519.87 113.64 517.95 118.24 517.36 119.21C516.77 120.18 515.15 122.83 514.83 123.42C514.51 124.01 514.33 125.72 515.4 126.34C516.47 126.96 517 126.84 517 126.84Z" fill="#141414" style="fill:#141414;fill:color(display-p3 0.0784 0.0784 0.0784);fill-opacity:1;"/>
<path d="M518 121.08C517.91 123.08 516.36 126.74 518.22 130.36C520.08 133.98 521.77 134.1 521.96 135.55C522.093 136.993 522.153 138.441 522.14 139.89C522.007 141.41 522.255 142.939 522.86 144.34C524.097 146.087 525.719 147.528 527.6 148.55C528.81 149.08 531.6 149.79 532.52 149.55C533.44 149.31 535.08 149.35 536.44 148.29C537.8 147.23 538.53 147.34 538.53 147.34C538.53 147.34 540.38 149.23 540.44 149.94C540.695 151.167 541.029 152.376 541.44 153.56C541.8 154.71 542.21 155.41 542.53 155.39C543.83 154.995 545.063 154.408 546.19 153.65C547.28 152.82 547.39 152.12 548.78 150.32C550.144 148.158 551.334 145.89 552.34 143.54C553.035 142.353 553.656 141.124 554.2 139.86C554.29 139.32 553.2 139.21 552.8 138.74C551.995 137.95 551.265 137.086 550.62 136.16C550.16 135.34 548.33 133.48 548.35 132.27C548.37 131.06 548.35 131.14 547.18 130.99C546.322 130.865 545.527 130.469 544.91 129.86C544.31 129.38 543.67 129.04 543.51 128.43C543.35 127.82 540.84 123.92 538.32 125.13C535.8 126.34 536.51 127.72 536.14 127.98C535.77 128.24 531.36 127.5 530.77 127.39C528.406 127.12 526.065 126.669 523.77 126.04C521.77 125.31 518.89 124.51 518.66 121.47C518.43 118.43 518 121.08 518 121.08Z" fill="#DF906E" style="fill:#DF906E;fill:color(display-p3 0.8745 0.5647 0.4314);fill-opacity:1;"/>
<path d="M526.83 297.16L526.96 283.59L527.54 268.97L529.61 258.36L531.43 243.52L531.73 239.59L533.1 230.26L534.16 228.05L535.45 228.67L534.61 257.75L535.61 272.11C535.61 272.11 537.51 280.77 537.73 280.9C537.95 281.03 548.82 282.44 548.82 282.44L567.16 282.27L568.53 285.45V288.63L526.83 297.16Z" fill="#2E2F3E" style="fill:#2E2F3E;fill:color(display-p3 0.1804 0.1843 0.2431);fill-opacity:1;"/>
<path d="M540.35 150.55C541.23 151.97 541.06 154.31 541.99 154.8C542.92 155.29 545.17 154.8 546.45 153.6C547.215 152.862 548.093 152.251 549.05 151.79L543.71 166.11L540 176.18C540 176.18 537 183.34 537.09 183.56C537.18 183.78 535.54 188.51 535.54 188.51L534.48 178.83L534 169C534 169 535.86 157.87 536 157.74C536.14 157.61 538 151.11 538 151.11L540.35 150.55Z" fill="#F94B4B" style="fill:#F94B4B;fill:color(display-p3 0.9765 0.2941 0.2941);fill-opacity:1;"/>
<path d="M503.57 207.05C505.93 206.49 519.78 202.13 520.89 201.72C522 201.31 521.78 201.72 522.81 200.72C523.582 199.955 524.255 199.095 524.81 198.16C525.476 195.478 526.006 192.765 526.4 190.03C526.87 186.49 527.4 182.69 527.4 182.69C527.4 182.69 527.61 176.3 527.93 174.15C528.25 172 528.11 166.78 528.55 165.15C528.99 163.52 529.61 160.41 530.88 158.79C532.15 157.17 535.53 154.05 536.39 152.9C537.259 151.613 538.054 150.278 538.77 148.9C538.92 148.6 539.27 148.45 539.48 148.75C539.69 149.05 540.1 149.04 540.1 149.48C540.1 149.92 540.51 149.75 539.86 151.72C538.472 156.462 537.429 161.298 536.74 166.19C536.36 170.31 535.92 178.35 535.92 178.68C535.92 179.01 535.92 185.98 535.92 185.98C536.008 183.673 536.293 181.378 536.77 179.12C537.39 177.12 539.77 168.84 541.69 164.39C543.61 159.94 546.69 153.9 548.41 150.96C550.13 148.02 551.91 143.68 552.8 142.24C553.367 141.425 553.731 140.485 553.86 139.5C553.86 139.17 553.03 138.91 552.97 138.73C552.91 138.55 553.97 137.88 553.97 137.88C553.97 137.88 554.15 137.29 554.8 138C555.45 138.71 559.1 142.94 561.16 145.07C563.22 147.2 568.11 148.75 570.16 151.9C572.21 155.05 573.84 156.38 574.99 159.18C576.14 161.98 577.52 162.18 578.67 175.44C579.82 188.7 579.99 199.87 580.08 202.83C580.17 205.79 578.62 210.83 578.62 210.83C578.62 210.83 576.5 212.15 576.37 213.74C576.24 215.33 576.86 231.95 576.86 231.95C576.86 231.95 576.59 248.56 576.68 253.33C576.77 258.1 576.15 267.33 576.02 268.44C575.89 269.55 575.58 277.37 574.96 280.44C574.34 283.51 574.16 284.95 573.45 285.21C570.066 286.28 566.569 286.951 563.03 287.21C556.97 287.79 545.49 287.88 543.14 287.52C540.79 287.16 535.77 287.65 534.04 283.46C532.31 279.27 533.34 261.67 533.34 261.67L534.22 231.81L534.44 228.81C534.44 228.81 531.92 260.89 531.35 265.81C530.78 270.73 530.21 282.67 529.76 283.55C529.31 284.43 529.26 284.81 528.34 284.81C526.93 284.645 525.588 284.11 524.45 283.26C524.059 282.908 523.763 282.463 523.589 281.967C523.414 281.471 523.366 280.939 523.45 280.42C523.54 278.8 524.79 264.31 525.21 258.12C525.63 251.93 526.8 237.32 526.85 235.12C526.9 232.92 528.55 222 528.7 220C528.85 218 529.02 215 529.02 215C529.02 215 525.48 216.15 523.12 216.85C520.76 217.55 520.12 217.24 515.65 218.16C512.426 218.767 509.171 219.198 505.9 219.45C505.9 219.45 504.61 212.59 504.28 210.45C504.133 209.3 503.896 208.163 503.57 207.05Z" fill="#FCFCFC" style="fill:#FCFCFC;fill:color(display-p3 0.9882 0.9882 0.9882);fill-opacity:1;"/>
<path d="M536.74 185.64C536.74 185.64 538.92 181.1 540.28 178.71C542.084 175.845 544.09 173.112 546.28 170.53C547.099 169.664 547.738 168.645 548.16 167.53C548.31 166.85 547.57 164.32 547.6 163.61C547.63 162.9 547.6 162.52 548.19 162.49C549.848 162.266 551.484 161.901 553.08 161.4C553.731 160.923 554.273 160.313 554.67 159.61C554.67 159.61 556.5 155.31 557.18 154.22C557.86 153.13 560 149.65 560.33 148.94L560.71 148.12" stroke="#44464C" style="stroke:#44464C;stroke:color(display-p3 0.2667 0.2745 0.2980);stroke-opacity:1;" stroke-width="0.35" stroke-miterlimit="10"/>
<path d="M535.4 183.52C535.18 183.03 531.07 174.04 531.34 170.13C531.577 167.575 532.457 165.122 533.9 163C534.1 162.67 534.21 162.12 533.83 162C533.415 161.934 533.004 161.844 532.6 161.73C532.4 161.6 532.2 161.16 532.68 160.29C533.16 159.42 535.27 155.08 535.27 155.08" stroke="#44464C" style="stroke:#44464C;stroke:color(display-p3 0.2667 0.2745 0.2980);stroke-opacity:1;" stroke-width="0.35" stroke-miterlimit="10"/>
<path d="M536 184.4C536 184.4 536.38 210.29 535.32 215.06" stroke="#44464C" style="stroke:#44464C;stroke:color(display-p3 0.2667 0.2745 0.2980);stroke-opacity:1;" stroke-width="0.35" stroke-miterlimit="10"/>
<path d="M533.41 219.53L546.8 210.91C548.3 209.91 556.57 204.06 556.57 204.06" stroke="#44464C" style="stroke:#44464C;stroke:color(display-p3 0.2667 0.2745 0.2980);stroke-opacity:1;" stroke-width="0.35" stroke-miterlimit="10"/>
<path d="M540.35 231.17C540.46 231.79 540.62 233.71 541.17 234.08C542.399 234.542 543.673 234.877 544.97 235.08C547.825 235.457 550.7 235.664 553.58 235.7C556.516 235.782 559.454 235.695 562.38 235.44C562.721 235.434 563.056 235.356 563.365 235.211C563.673 235.066 563.948 234.858 564.17 234.6C564.564 234.102 564.779 233.485 564.78 232.85C564.78 232.08 564.65 230.97 564.65 230.97" stroke="#44464C" style="stroke:#44464C;stroke:color(display-p3 0.2667 0.2745 0.2980);stroke-opacity:1;" stroke-width="0.35" stroke-miterlimit="10"/>
<path d="M562.66 230.23L542.66 230.59C542.66 230.59 549.41 227.7 552.41 226.46C555.41 225.22 565.64 220.01 567.91 218.89C569.827 217.852 571.65 216.651 573.36 215.3C575.037 214.193 576.494 212.786 577.66 211.15C578.268 209.778 578.789 208.368 579.22 206.93C579.22 206.93 579.31 196.11 579.04 189.75C578.77 183.39 577.82 176 577.82 176" stroke="#44464C" style="stroke:#44464C;stroke:color(display-p3 0.2667 0.2745 0.2980);stroke-opacity:1;" stroke-width="0.35" stroke-miterlimit="10"/>
<path d="M555.09 173.85C555.09 173.85 556.21 189.32 556.95 191.91C557.69 194.5 558.8 199.78 558.89 199.91" stroke="#44464C" style="stroke:#44464C;stroke:color(display-p3 0.2667 0.2745 0.2980);stroke-opacity:1;" stroke-width="0.35" stroke-miterlimit="10"/>
<path d="M567 205.34C565.53 205.25 561.73 204.19 561.79 202.25C561.85 200.31 568.79 202.25 569.48 203.05C569.782 203.317 570.048 203.623 570.27 203.96" stroke="#44464C" style="stroke:#44464C;stroke:color(display-p3 0.2667 0.2745 0.2980);stroke-opacity:1;" stroke-width="0.35" stroke-miterlimit="10"/>
<path d="M529.92 205.81C529.92 205.81 529.55 209.76 529.28 210.87" stroke="#44464C" style="stroke:#44464C;stroke:color(display-p3 0.2667 0.2745 0.2980);stroke-opacity:1;" stroke-width="0.35" stroke-miterlimit="10"/>
<path d="M524 199.8C525.664 200.227 527.298 200.764 528.89 201.41" stroke="#44464C" style="stroke:#44464C;stroke:color(display-p3 0.2667 0.2745 0.2980);stroke-opacity:1;" stroke-width="0.35" stroke-miterlimit="10"/>
<path d="M517.46 118.61C518.79 118.74 524.46 120.77 526.87 121.44C529.28 122.11 537.57 124.18 539.33 125.06C542.537 126.274 545.813 127.299 549.14 128.13C549.43 128.13 549.3 127.78 549.74 126.96C550.18 126.14 551.37 125.17 551.37 124.96C551.37 124.75 550.25 123.88 550.25 123.88L544.25 120.47C544.25 120.47 533.34 114.64 532.56 114.13C530.32 113.062 527.974 112.234 525.56 111.66C524.261 111.534 522.955 111.491 521.65 111.53C520.754 112.365 519.946 113.289 519.24 114.29C518.545 115.686 517.95 117.13 517.46 118.61Z" fill="#FCFCFC" style="fill:#FCFCFC;fill:color(display-p3 0.9882 0.9882 0.9882);fill-opacity:1;"/>
<path d="M567.3 182.23C571.497 182.23 574.9 178.827 574.9 174.63C574.9 170.433 571.497 167.03 567.3 167.03C563.103 167.03 559.7 170.433 559.7 174.63C559.7 178.827 563.103 182.23 567.3 182.23Z" fill="#F94B4B" style="fill:#F94B4B;fill:color(display-p3 0.9765 0.2941 0.2941);fill-opacity:1;"/>
<path d="M568.89 169.6H565.8V179.81H568.89V169.6Z" fill="#F9F9F9" style="fill:#F9F9F9;fill:color(display-p3 0.9765 0.9765 0.9765);fill-opacity:1;"/>
<path d="M572.13 176.13V173.04H561.92V176.13H572.13Z" fill="#F9F9F9" style="fill:#F9F9F9;fill:color(display-p3 0.9765 0.9765 0.9765);fill-opacity:1;"/>
<path d="M487 210.29C488.157 210.026 489.335 209.866 490.52 209.81C490.98 209.81 492.44 209.81 492.72 209.45C492.866 209.183 492.943 208.884 492.943 208.58C492.943 208.276 492.866 207.977 492.72 207.71C492.292 207.377 491.779 207.169 491.24 207.11C489.695 207.138 488.153 207.251 486.62 207.45C486.056 207.607 485.52 207.85 485.03 208.17" stroke="#BE6149" style="stroke:#BE6149;stroke:color(display-p3 0.7451 0.3804 0.2863);stroke-opacity:1;" stroke-width="0.35" stroke-miterlimit="10"/>
<path d="M490 210.3C489.708 210.807 489.373 211.289 489 211.74" stroke="#BE6149" style="stroke:#BE6149;stroke:color(display-p3 0.7451 0.3804 0.2863);stroke-opacity:1;" stroke-width="0.35" stroke-miterlimit="10"/>
<path d="M484.52 206.47C484.775 206.02 485.136 205.639 485.572 205.36C486.008 205.082 486.505 204.913 487.02 204.87C487.928 204.727 488.855 204.781 489.74 205.03C490.23 205.29 491.52 205.83 491.68 206.5C491.84 207.17 491.75 207.26 491.75 207.26" stroke="#BE6149" style="stroke:#BE6149;stroke:color(display-p3 0.7451 0.3804 0.2863);stroke-opacity:1;" stroke-width="0.35" stroke-miterlimit="10"/>
<path d="M484 205.84C483.946 204.906 484.051 203.969 484.31 203.07C484.73 202.76 485.252 202.62 485.77 202.68C487.129 202.902 488.467 203.236 489.77 203.68C490.491 203.891 491.168 204.23 491.77 204.68" stroke="#BE6149" style="stroke:#BE6149;stroke:color(display-p3 0.7451 0.3804 0.2863);stroke-opacity:1;" stroke-width="0.35" stroke-miterlimit="10"/>
<path d="M522.31 139.21C524.597 138.403 526.838 137.468 529.02 136.41C530.59 135.56 532.32 134.85 532.53 134.68C532.74 134.51 535 130.17 535 130.17C535 130.17 537.07 126.34 537.24 125.99C537.483 125.581 537.751 125.187 538.04 124.81L538.54 124.9L537.18 127.7C537.18 127.7 533.83 134.88 533.83 135C534.194 135.489 534.528 136 534.83 136.53C535.186 137.287 535.709 137.954 536.36 138.48C537.04 139.1 537.54 139.3 537.83 139.27C538.12 139.24 538.83 138.27 539.42 137.45C540.124 136.072 540.745 134.652 541.28 133.2L541.93 133.03C541.93 133.03 540.6 137.42 540.6 137.86C540.669 138.525 540.669 139.195 540.6 139.86C540.34 141.936 539.764 143.959 538.89 145.86C538.42 146.8 535.89 150.04 530.44 149.42C524.99 148.8 522.38 143.79 522.38 143.79C522.015 142.877 521.796 141.911 521.73 140.93C521.741 140.311 521.944 139.71 522.31 139.21Z" fill="#F9F9F9" style="fill:#F9F9F9;fill:color(display-p3 0.9765 0.9765 0.9765);fill-opacity:1;"/>
<path d="M498.74 222.49L513.18 223.58L513 222.72L499.33 221.46L503.57 216.89L502.54 216.8L497.74 222.22L498.74 222.49Z" fill="#E54C41" style="fill:#E54C41;fill:color(display-p3 0.8980 0.2980 0.2549);fill-opacity:1;"/>
<path d="M503.24 216.63L498.93 221.67L513 223.06L516.67 218.22L505.44 217.12L503.24 216.63Z" fill="#E5E6DF" style="fill:#E5E6DF;fill:color(display-p3 0.8980 0.9020 0.8745);fill-opacity:1;"/>
<path d="M520.05 233.05C521.62 232.67 526.68 231.28 527.51 230.9C529.257 230.065 531.062 229.357 532.91 228.78C534.441 228.413 536 228.168 537.57 228.05C538.05 227.99 537.72 226.55 537.72 226.55L535.09 221.2L533.88 220.61C533.88 220.61 534.08 220.08 533.13 220.45C532.313 220.692 531.46 220.79 530.61 220.74C530.61 220.74 527.87 219.9 526.81 219.39C525.503 218.958 524.166 218.623 522.81 218.39C521.79 218.27 520.784 218.046 519.81 217.72C519.1 217.3 516.34 215.72 515.66 215.16C515.325 214.947 514.937 214.835 514.54 214.835C514.143 214.835 513.755 214.947 513.42 215.16C513.05 215.47 513.09 216.53 514.02 217.3C514.95 218.07 517.47 219.58 517.93 220.02C518.286 220.263 518.578 220.587 518.782 220.967C518.985 221.346 519.094 221.769 519.1 222.2C518.992 222.811 518.759 223.393 518.414 223.91C518.07 224.426 517.623 224.865 517.1 225.2C516.308 225.765 515.425 226.191 514.49 226.46C512.402 226.654 510.3 226.617 508.22 226.35C506.93 225.97 506.01 226.02 505.85 226.35C505.701 226.735 505.698 227.161 505.842 227.548C505.986 227.935 506.266 228.256 506.63 228.45C507.73 229.11 513.05 228.89 514.63 228.89H516.93L513.08 229.42C512.75 229.42 511.82 229.24 513.08 229.93C514.34 230.62 516.28 230.66 517.32 231.59C518.142 232.225 519.065 232.719 520.05 233.05Z" fill="#E1916F" style="fill:#E1916F;fill:color(display-p3 0.8824 0.5686 0.4353);fill-opacity:1;"/>
<path d="M539.88 130C539.98 130.66 539.53 131.49 539.5 131.9C539.47 132.31 539.41 132.84 539.82 132.84C540.23 132.84 540.65 133.13 541.13 132.19C541.508 131.237 541.668 130.213 541.6 129.19C541.524 128.102 541.256 127.035 540.81 126.04C540.81 126.04 541.48 128.22 541.2 128.38C540.92 128.54 540.56 127.69 540.26 127.38C539.96 127.07 539.45 126.45 538.92 126.48C538.613 126.514 538.32 126.63 538.074 126.817C537.827 127.003 537.636 127.253 537.52 127.54C537.29 128.16 537.36 129.14 537.91 129.35C538.46 129.56 539.88 130 539.88 130Z" stroke="#B85A4A" style="stroke:#B85A4A;stroke:color(display-p3 0.7216 0.3529 0.2902);stroke-opacity:1;" stroke-width="0.35" stroke-miterlimit="10"/>
<path d="M489.61 202.61C490.778 203.474 491.769 204.553 492.53 205.79C494.36 208.34 494.94 215.39 497.29 217.57C499.64 219.75 500.94 219.97 500.94 219.97" stroke="#DD0A00" style="stroke:#DD0A00;stroke:color(display-p3 0.8667 0.0392 0.0000);stroke-opacity:1;" stroke-width="0.31" stroke-miterlimit="10"/>
<path d="M473.5 292.71C473.5 292.71 473.63 285.34 470.28 282.43C466.93 279.52 443.84 265.43 443.61 265.32L444.16 264.41C445.11 264.99 467.55 278.65 470.97 281.63C474.39 284.61 481.13 290.7 481.31 290.92L473.5 292.71Z" fill="#0A0A0A" style="fill:#0A0A0A;fill:color(display-p3 0.0392 0.0392 0.0392);fill-opacity:1;"/>
</g>
</g>
<defs>
<clipPath id="clip0_1_430">
<rect width="612" height="280" fill="white" style="fill:white;fill-opacity:1;"/>
</clipPath>
</defs>
</svg>
