<svg id="Layer_1" data-name="Layer 1" xmlns="http://www.w3.org/2000/svg" xmlns:xlink="http://www.w3.org/1999/xlink" viewBox="0 0 270 180"><defs><style>.cls-1,.cls-15,.cls-23,.cls-24,.cls-32,.cls-34,.cls-38{fill:none;}.cls-2{clip-path:url(#clip-path);}.cls-3{fill:#f7e2b7;opacity:0.21;}.cls-4{fill:#70829b;}.cls-5{fill:#fdfefe;}.cls-6{fill:#c44418;}.cls-7{fill:#f6a891;}.cls-8{fill:#f5b9af;}.cls-11,.cls-9{fill:#191818;}.cls-10{fill:#b6d5f8;opacity:0.49;}.cls-11{opacity:0.4;}.cls-12{fill:#8585d6;}.cls-13{fill:#5d3e37;}.cls-14{fill:#e4977a;}.cls-15{stroke:#c16c57;}.cls-15,.cls-23,.cls-24,.cls-32,.cls-34,.cls-38{stroke-miterlimit:10;}.cls-15,.cls-23{stroke-width:0.24px;}.cls-16{fill:#303241;}.cls-17{fill:#e3987c;}.cls-18{fill:#fd5d5d;}.cls-19{fill:#2d2d3e;}.cls-20{fill:#b95f4c;}.cls-21{fill:#3e4553;}.cls-22{fill:#272b3d;}.cls-23{stroke:#dd0a00;}.cls-24{stroke:#c0644b;stroke-width:0.22px;}.cls-25{fill:#ae453f;}.cls-26{fill:#e2916f;}.cls-27{fill:#141414;}.cls-28{fill:#df906e;}.cls-29{fill:#2e2f3e;}.cls-30{fill:#f94b4b;}.cls-31{fill:#fcfcfc;}.cls-32{stroke:#44464c;}.cls-32,.cls-34,.cls-38{stroke-width:0.26px;}.cls-33{fill:#f9f9f9;}.cls-34{stroke:#be6149;}.cls-35{fill:#e54c41;}.cls-36{fill:#e5e6df;}.cls-37{fill:#e1916f;}.cls-38{stroke:#b85a4a;}.cls-39{fill:#0a0a0a;}.cls-40{fill:#050505;}.cls-41{fill:#ea6a5c;}.cls-42{fill:#a5c090;}.cls-43{fill:#ec887f;}.cls-44{fill:#eca499;}.cls-45{fill:#ae6e63;}.cls-46{fill:#9e5e54;}.cls-47{fill:#f9d2c8;}.cls-48{opacity:0.29;}.cls-49{fill:#f9e4de;}.cls-50{fill:#d38c81;}.cls-51{fill:#f7d3cb;}.cls-52{fill:#eeaea3;}.cls-53{fill:#f2bcb2;}.cls-54{fill:#985845;}.cls-55{fill:#b9755d;}.cls-56{fill:#8eb671;}.cls-57{fill:#fbe5e1;}.cls-58{fill:#f3c0b6;}</style><clipPath id="clip-path"><rect class="cls-1" width="270" height="180"/></clipPath></defs><title>at-home-blood-sample-collection-small</title><g class="cls-2"><rect class="cls-3" x="-0.66" y="-0.55" width="271.32" height="181.11"/><path class="cls-4" d="M206.87,63.64V30h29c.35.43.18,1,.18,1.48q0,13.86,0,27.74a21.8,21.8,0,0,0,.16,4.13c-.27.34-.6.27-.9.27-6.65-.13-13.3.31-20,.2-2.37,0-4.73,0-7.1,0A2.44,2.44,0,0,1,206.87,63.64Zm2.06-2.19h24.93V32.07H208.93Z"/><path class="cls-5" d="M208.93,61.45V32.07h24.93V61.45ZM230.7,35.27H212.15c-.46,7.7.48,15.29,0,23.07,6.15,0,12.32,0,18.52,0Z"/><path class="cls-6" d="M230.7,35.27V58.33c-6.2,0-12.37,0-18.52,0,.45-7.78-.49-15.37,0-23.07Zm-2.59,9.55a4.79,4.79,0,0,0-.79-3A2.82,2.82,0,0,0,225,40.17a3.25,3.25,0,0,0-3.15,3,5.18,5.18,0,0,0,1.79,4.43,2.52,2.52,0,0,0,4.24-1A3.88,3.88,0,0,0,228.11,44.82Zm-7.63,6.88c-.15-2.22-.73-4.22-3-5.25a2.11,2.11,0,0,0-3.07,1.44c-.49,1.82.58,5,2.12,6.08a2.56,2.56,0,0,0,2.81.45c1-.54,1.09-1.48,1.12-2.46Zm6.85.81a2.77,2.77,0,0,0-5.09-1.85,4.24,4.24,0,0,0-.08,4.68,1.7,1.7,0,0,0,1.53.87A3.75,3.75,0,0,0,227.33,52.51ZM215.21,39.4a3.65,3.65,0,0,0,.45,2,1.68,1.68,0,0,0,2.65.53,3.68,3.68,0,0,0,.69-4.07,1.9,1.9,0,0,0-3.4-.07A2.47,2.47,0,0,0,215.21,39.4ZM221,44.25a1.61,1.61,0,0,0-1.54-1.45,1.77,1.77,0,0,0-1.59,1.42,1.77,1.77,0,0,0,1.43,1.46C219.88,45.68,221,44.77,221,44.25Z"/><path class="cls-7" d="M228.11,44.82a3.88,3.88,0,0,1-.28,1.85,2.52,2.52,0,0,1-4.24,1,5.18,5.18,0,0,1-1.79-4.43,3.25,3.25,0,0,1,3.15-3,2.82,2.82,0,0,1,2.37,1.61A4.79,4.79,0,0,1,228.11,44.82Z"/><path class="cls-8" d="M220.48,51.7V52c0,1-.09,1.92-1.12,2.46a2.56,2.56,0,0,1-2.81-.45c-1.54-1.06-2.61-4.26-2.12-6.08a2.11,2.11,0,0,1,3.07-1.44C219.75,47.48,220.33,49.48,220.48,51.7Z"/><path class="cls-8" d="M227.33,52.51a3.75,3.75,0,0,1-3.64,3.7,1.7,1.7,0,0,1-1.53-.87,4.24,4.24,0,0,1,.08-4.68,2.77,2.77,0,0,1,5.09,1.85Z"/><path class="cls-7" d="M215.21,39.4a2.47,2.47,0,0,1,.39-1.66,1.9,1.9,0,0,1,3.4.07,3.68,3.68,0,0,1-.69,4.07,1.68,1.68,0,0,1-2.65-.53A3.65,3.65,0,0,1,215.21,39.4Z"/><path class="cls-8" d="M221,44.25c0,.52-1.11,1.43-1.7,1.43a1.77,1.77,0,0,1-1.43-1.46,1.77,1.77,0,0,1,1.59-1.42A1.61,1.61,0,0,1,221,44.25Z"/><path class="cls-9" d="M96.79,62.58v4.7c0,.89-.14,1.09-1,1.37a3.89,3.89,0,0,1-2.9-.13,1,1,0,0,1-.68-1q0-4.89,0-9.77a1,1,0,0,1,.57-1,3.47,3.47,0,0,1,3.35-.07,1.08,1.08,0,0,1,.65,1.07C96.77,59.32,96.79,61,96.79,62.58Zm-3.64-1.36a3.85,3.85,0,0,0,.24,1.72c.2.46.43.85,1,.84a1.14,1.14,0,0,0,1.09-.9,5.2,5.2,0,0,0,.1-3.17,1.19,1.19,0,0,0-1.06-1c-.52,0-.85.33-1.11.78A3.1,3.1,0,0,0,93.15,61.22Z"/><path class="cls-10" d="M93.15,61.22a3.1,3.1,0,0,1,.3-1.71c.26-.45.59-.82,1.11-.78a1.19,1.19,0,0,1,1.06,1,5.2,5.2,0,0,1-.1,3.17,1.14,1.14,0,0,1-1.09.9c-.61,0-.84-.38-1-.84A3.85,3.85,0,0,1,93.15,61.22Z"/><path class="cls-11" d="M93.15,61.22a3.1,3.1,0,0,1,.3-1.71c.26-.45.59-.82,1.11-.78a1.19,1.19,0,0,1,1.06,1,5.2,5.2,0,0,1-.1,3.17,1.14,1.14,0,0,1-1.09.9c-.61,0-.84-.38-1-.84A3.85,3.85,0,0,1,93.15,61.22Z"/><rect class="cls-3" x="120.36" y="15.01" width="52.87" height="140.83"/><polygon class="cls-4" points="120.17 18.83 135.97 23.54 135.79 138.36 118.58 148.96 117.17 21.18 120.17 18.83"/><rect class="cls-12" x="104.08" y="19.28" width="6.86" height="133.9"/><polygon class="cls-4" points="120.18 151.81 117.7 153.15 117.7 20.75 120.2 20.75 120.18 151.81"/><rect class="cls-4" x="107.05" y="14.44" width="10.93" height="138.43"/><rect class="cls-4" x="168.5" y="16.83" width="6.92" height="141.17"/><polygon class="cls-12" points="120.2 18.83 136.14 23.81 135.64 146.64 119.58 155.9 120.2 18.83"/><rect class="cls-4" x="116.03" y="14.43" width="59.39" height="6.19"/><polygon class="cls-4" points="10 157.58 104.3 153.5 244.47 153.81 268.19 170.49 0.62 168.14 10 157.58"/><path class="cls-13" d="M78.34,102a3.87,3.87,0,0,1-2.63-1.75c-.67-1.43-.29-1.75-.55-2.29s-.76-1-.63-1.78a4.38,4.38,0,0,1,2-2.77A3.72,3.72,0,0,0,78.49,92c.09-.32.22-2,.34-3a6.2,6.2,0,0,1,2.34-3.21,11.28,11.28,0,0,1,5-2.73c2.22-.39,3.35-1.23,4.53-1a7.44,7.44,0,0,1,3.41,1.25c1.13.9,2.65,1,3.43,1.73A8.78,8.78,0,0,1,99.88,88a4.64,4.64,0,0,0,1.45,2.07c.58.56.66.83.54,1.83s.09,1.13-.75,2a6.6,6.6,0,0,0-1.07,1.26s-7.49,3.6-7.74,3.79-9,.61-9,.61l-3.47,2.92Z"/><path class="cls-14" d="M72.93,107.74a15.4,15.4,0,0,0,2.85-1.67,9.86,9.86,0,0,0,1.72-2.14c.41-.64,1.63-2.68,2-3.46s.81-1.75,1-1.9-.12-.77-.12-1.33a5.78,5.78,0,0,1,.23-2.39c.35-.7.93-1.51,1.48-1.51a2.32,2.32,0,0,1,1.78.79,10.49,10.49,0,0,0,1.31,2.17c.36.29,1,.64,1.4.48s.76-.16.74-.65a4.08,4.08,0,0,1,.26-1.2,15.88,15.88,0,0,0,2-.4,6.15,6.15,0,0,0,2.15-.93c.58-.42,1.89-1.89,2.53-2.27a5.72,5.72,0,0,1,1.86-.94,3.33,3.33,0,0,1,1.87.44c.76.37,2,.82,2.13,1.23a18.11,18.11,0,0,1,.2,2.94,10.24,10.24,0,0,1-.63,3.31,14.94,14.94,0,0,1-1.15,2c-.48.61-1.15.26-1.15,1.37a10.6,10.6,0,0,1-.1,2.57,35.7,35.7,0,0,1-2.62,3.32c-.44.58-1.22,1.48-1.81,2.13s-.61,1-1.28,1.16A7.18,7.18,0,0,1,87,109.5c-.29,1.17-.47,2.44-.64,3.34a11,11,0,0,1-.51,2c-.35.64-3.48,1.94-8.14-.44a7.78,7.78,0,0,1-4.51-5.76Z"/><path class="cls-15" d="M81.16,96.15a1.17,1.17,0,0,1,.42-1.25c.43-.25,1-.78,1.43-.09s.73,1.39.3,1.43-.93-.21-1.16.2,0,.77.31,1.36a2.87,2.87,0,0,0,.69.87"/><path class="cls-15" d="M80.63,98.41a7.71,7.71,0,0,0,1.73,2.17c.14.1-.07,3.66,0,4a9.55,9.55,0,0,0,1.92,3c.78.61,2.12,1.57,2.12,1.57"/><path class="cls-16" d="M90,162.26s5.66,5.79,7.06,6.22,10.36,1,12.49,2.31,5.67,2.44,6.46,3.05,1.64,1.94,2.5,5.84a69.65,69.65,0,0,1,1.15,8.9s-27.55,9.87-45.16,1-14.3-22.56-14.3-22.56l4.1-5.41,13.09-.06Z"/><path class="cls-17" d="M94.83,134.13a33.43,33.43,0,0,0,4.34,5.53,50.35,50.35,0,0,0,6.76,5.36,47.25,47.25,0,0,0,4.29,3.14c1.16.61,7,2.8,7,2.8s9.41,3,10.78,3.44,3.32.52,4.32,1a7,7,0,0,1,2.16,1.13c.86.73,2.93,3.26,3.78,3.62s3.53,2,4.49,2.45a2.9,2.9,0,0,0,2.21.29,1.47,1.47,0,0,0,.79-.7c0-.07.26-.11.93-.11a5.53,5.53,0,0,0,2-.35c.21-.16.39-.76.73-.77s.93.17,1.2-.09a3.42,3.42,0,0,1,.75-.61c.44-.29.71-.06.74-.6s0-1.26-.24-1.4-2.36-.58-3.29-.88a18.79,18.79,0,0,1-3.38-2.07,20.13,20.13,0,0,1-1.89-1.48s-.5-.42-.43-.59.66.23,1.62.21,2.48.32,3.2-.08.73-.19,1.12-.67a1.29,1.29,0,0,0,.32-1.17c-.09-.06-3.29-.33-4-.38a17.58,17.58,0,0,1-2.56-.68,6.8,6.8,0,0,0-2.89-.35,23.31,23.31,0,0,1-3.63.12,23.49,23.49,0,0,1-3-1c-1.12-.41-6.18-2.86-7.11-3.41s-6.53-3.66-8.36-4.68-4.25-1.72-5.71-3.24-4.52-4.31-5.18-5-4.21-4.55-5.26-5.4a8.33,8.33,0,0,1-1.65-1.8l-3.55,4.36-1.52,2.17,0,1.91Z"/><path class="cls-18" d="M56.61,161.49a76.37,76.37,0,0,0,.91-15.84,153.47,153.47,0,0,1,0-16s6.34-16.2,7.44-17.23A25.77,25.77,0,0,1,70.32,109a28.41,28.41,0,0,1,2.61-1.22,33.49,33.49,0,0,0,3.54,4c1.93,1.66,3.49,3.22,6.32,3.36s2.68.56,3.21-1.25a13.67,13.67,0,0,0,.51-1.91A20.82,20.82,0,0,0,89,113.94c1.06.65,3.31.73,3.7,1s.51-.28,2.19,1.73a65.46,65.46,0,0,1,4.51,6.25,19.53,19.53,0,0,0,2.46,3.17.46.46,0,0,1,.06.55s-5.17,3.18-5.94,4.64a7.48,7.48,0,0,0-1.1,2.9c.06.35-.58.29-.58.29A24.69,24.69,0,0,1,94,138a12.25,12.25,0,0,1-2.74,3.71c-1.34,1.34-1.86,2.32-1.83,3a17.55,17.55,0,0,1-.46,4.63c-.51,2.34-2.1,3.32-2.16,4.66s-.61,2.5.82,5.05a19.9,19.9,0,0,0,2.62,3.78s-3.35,1.49-3.59,1.61-6.82,1.22-6.82,1.22-8.13.43-12.15,1.13a36.21,36.21,0,0,1-7,.58l-.61-.25Z"/><path class="cls-19" d="M58.35,136.7s2.45,1.33,2.73,1.37,0-1.55,0-1.55l-2.73,0Z"/><path class="cls-17" d="M61.19,136.55s.76,7.35,1,8.69,1.23,6.19,1.6,7.36.27,1.57.47,2.08a12.9,12.9,0,0,0,2.83,2.87,117.7,117.7,0,0,0,10.36,6.71c2.89,1.57,9.19,4.39,10.66,5.16s2.87,1.22,3.44,1.68a4.75,4.75,0,0,0,2.83,1.16c1.54.15,3.24.32,4.23.39a6.29,6.29,0,0,1,2.94.6,17.84,17.84,0,0,0,3.81,1.21,1.9,1.9,0,0,0,1.78-.45c.26-.37.55-.18.82-.11s1.27.11,1.43-.17.69-.73.28-1.25-.92-.33-.92-.95a2.23,2.23,0,0,0-.36-1.24c-.11-.15-3.37-2.13-4.38-2.7a21.71,21.71,0,0,0-3.88-2,11.68,11.68,0,0,0-3.67-.45c-2.16,0-2.64.23-3-.06s-5.58-3.33-7.49-4.73-8-6.62-9.06-7.59-4-3-3.91-3.61.32-5.38.32-5.38.08-4.51,0-5.45"/><path class="cls-20" d="M105.26,173c-.15-.11-2.79-1.54-4.53-2.48l.22-.35c.44.24,4.37,2.36,4.57,2.5Z"/><path class="cls-20" d="M108,172.85l-6.53-3.65.25-.4c.25.15,6.28,3.51,6.54,3.66Z"/><path class="cls-20" d="M107.83,171c-.19-.15-3.22-1.87-5.21-3l.23-.35c1.92,1.08,5.16,2.91,5.32,3.07Z"/><path class="cls-21" d="M73.81,123.55c-.52-6.92-4.45-9.54-4.49-9.57l.13-.2s4.07,2.71,4.6,9.75Z"/><rect class="cls-21" x="73.63" y="126.45" width="0.24" height="10.78"/><path class="cls-21" d="M94,133.18c-.54-6.25-.21-7.53.08-8.66a8.06,8.06,0,0,0,.19-.81l.23,0a8.5,8.5,0,0,1-.19.83c-.28,1.11-.61,2.37-.07,8.58Z"/><path class="cls-21" d="M94.13,129l-.2-.13a11.56,11.56,0,0,1,2.39-2.78c.76-.5,1-.49,1.08-.41a.2.2,0,0,1,.08.2l-.24-.06a.08.08,0,0,0,0,0l0,0s-.17,0-.83.41A11.66,11.66,0,0,0,94.13,129Z"/><path class="cls-22" d="M95,136.17c.11,0,2.3,2.09,2.36,2.09s-.22-1-.2-1.54a7.29,7.29,0,0,1,2.09-2.64c.73-.55,2.21-1.72,2.21-1.72a50.4,50.4,0,0,0-2.15,5.17c-.14.88-.41,2.89-.41,2.89s1.87,1.68,1.91,1.62.85-5.16,1.26-6a9.68,9.68,0,0,1,2-3.05,3,3,0,0,1,1.83-.71A1.92,1.92,0,0,0,107,132l-.46-.93-.49-.17s.18.17,0-.52a7.86,7.86,0,0,1-.06-1.73l-1.06.3s-.81,1.14-.65.39-.06-.77-.06-.77a26.06,26.06,0,0,0-4.24,2.13c-.87.75-4.2,4-4.61,4.47A1.63,1.63,0,0,0,95,136.17Z"/><path class="cls-23" d="M106.72,131.06a11.91,11.91,0,0,1,1.93-1.2c.42-.1,1.22-.16,1.54.16s1.26,2.56,1.87,3.27,1.36,1.58,1.85,1.48a2.58,2.58,0,0,0,1.66-1.64c.29-.94,1.66-5.53,2-6.82,1.73-7.22,8.42-2.42,8.42-2.42"/><path class="cls-24" d="M137.72,153.39a3.19,3.19,0,0,0,2.07,1,7.14,7.14,0,0,0,3.13-1.15"/><path class="cls-24" d="M141.36,159.45a7,7,0,0,1,1.69.94,15.69,15.69,0,0,0,2.45,1.41"/><path class="cls-24" d="M142.86,158.81a1.89,1.89,0,0,1,1.69.46,7.35,7.35,0,0,0,2.51,1.33c.72.11,1.26,0,2.1.17s1.39.19,1.62-.07.36-1,.05-1.1-2.18,0-2.53-.12a8.56,8.56,0,0,1-1.5-1,3.39,3.39,0,0,0-1.71-.76,11.88,11.88,0,0,0-1.46.93"/><path class="cls-25" d="M132.05,139a2.83,2.83,0,0,0,.25,1.59,2.06,2.06,0,0,0,.89.82l11.15,1,.62-1.66,2.58-3.73-.88-.92-.13-.79L136,134.11Z"/><path class="cls-26" d="M121.43,125.8c.23.76.94,2.58,1.33,3.75a3.57,3.57,0,0,0,1.66,2.4,31.17,31.17,0,0,0,6.53,2.27,42.76,42.76,0,0,0,5.89.47,2,2,0,0,0,1.39-.6s-1.07-5.79-1.07-5.85-2-.58-2.3-.71-3.75-3.1-4.31-3.46a39,39,0,0,0-3.77-2.47,11.15,11.15,0,0,0-2.9-.7.76.76,0,0,0-.75,1.06,9.42,9.42,0,0,0,2.14,1.44c.38.21,2,.78,2,1s-.18.51-.43.45-2.39-.85-3.25-1a3.09,3.09,0,0,0-1.7,0,1.08,1.08,0,0,0-.64.83A3.79,3.79,0,0,0,121.43,125.8Z"/><path class="cls-27" d="M146.85,66.13c.23-.7.56-4.13.72-4.51s.2,1.32,1.06,2.31,4.35,2.31,6.2,2.49,6.49.52,6.78.52.92-2.07.92-2.07l4.33,2.41a4.35,4.35,0,0,0,1.48,1.32,6.05,6.05,0,0,0,2.14.81c.38,0-.23.29.42,1.57s1.33,2.61,2.23,2.76,4.53.63,6-1.41,2.92-5.26.11-7.73-4.71-2.22-6.4-2c-1.05-2.29-4.08-9.55-9.88-12a7.18,7.18,0,0,0-5-.5c-1.78.45-5.82,1.84-7.37,3.89a49.46,49.46,0,0,0-3.46,6.29c-.45.74-1.68,2.76-1.93,3.21s-.38,1.75.44,2.22S146.85,66.13,146.85,66.13Z"/><path class="cls-28" d="M147.64,61.74c-.07,1.55-1.25,4.31.17,7.07s2.7,2.86,2.85,4a29.63,29.63,0,0,1,.13,3.31,7.24,7.24,0,0,0,.55,3.39A10.75,10.75,0,0,0,155,82.68a8.72,8.72,0,0,0,3.75.74,6.86,6.86,0,0,0,3-1c1-.81,1.59-.72,1.59-.72s1.42,1.44,1.46,2a24.21,24.21,0,0,0,.76,2.77c.27.87.59,1.41.84,1.39a10.37,10.37,0,0,0,2.78-1.33c.83-.63.92-1.16,2-2.53a36.85,36.85,0,0,0,2.71-5.17A25.81,25.81,0,0,0,175.24,76c.07-.41-.74-.49-1.07-.85a15.12,15.12,0,0,1-1.66-2c-.35-.63-1.75-2-1.73-3s0-.86-.89-1a3.18,3.18,0,0,1-1.74-.86c-.45-.37-.94-.62-1.06-1.1s-2-3.43-4-2.5-1.38,2-1.66,2.17-3.64-.37-4.1-.46a35.59,35.59,0,0,1-5.3-1c-1.48-.56-3.72-1.17-3.89-3.49S147.64,61.74,147.64,61.74Z"/><path class="cls-29" d="M154.34,196l.1-10.34.44-11.15,1.58-8.09,1.39-11.32.23-3,1-7.1.8-1.69,1,.47-.64,22.17.78,10.95s1.44,6.6,1.61,6.7,8.46,1.18,8.46,1.18l14-.14,1,2.43v2.43Z"/><path class="cls-30" d="M164.65,84.21c.67,1.08.54,2.86,1.25,3.23a3.61,3.61,0,0,0,3.4-.91,7.62,7.62,0,0,1,2-1.38l-4.08,10.92-2.8,7.68s-2.25,5.45-2.22,5.62-1.18,3.77-1.18,3.77l-.81-7.37-.37-7.48s1.42-8.49,1.49-8.59,1.51-5,1.51-5Z"/><path class="cls-31" d="M136.61,127.28c1.8-.43,12.35-3.75,13.21-4.06s.67,0,1.46-.79a10.19,10.19,0,0,0,1.55-2c.06-.21.85-3.51,1.21-6.2s.79-5.59.79-5.59.15-4.88.4-6.52.13-5.61.47-6.85.81-3.61,1.78-4.85S161,86.86,161.67,86a29.07,29.07,0,0,0,1.82-3.07c.12-.23.39-.34.54-.12s.47.23.47.56.32.21-.18,1.71a79.07,79.07,0,0,0-2.38,11c-.29,3.14-.62,9.27-.62,9.52s0,5.57,0,5.57a31.36,31.36,0,0,1,.65-5.23c.48-1.51,2.25-7.84,3.75-11.23s3.84-8,5.12-10.24,2.68-5.55,3.35-6.65a4.72,4.72,0,0,0,.81-2.09c0-.25-.63-.45-.67-.58s.76-.65.76-.65.13-.45.63.09S179,78.37,180.54,80s5.3,2.8,6.83,5.21,2.8,3.41,3.68,5.54,1.93,2.33,2.81,12.4,1,18.63,1.07,20.88a25.23,25.23,0,0,1-1.11,6.1s-1.61,1-1.72,2.22.37,13.88.37,13.88-.2,12.67-.13,16.31-.4,10.64-.51,11.52-.33,6.8-.8,9.16-.61,3.44-1.15,3.64a35.16,35.16,0,0,1-7.95,1.51,113.05,113.05,0,0,1-15.16.24c-1.78-.27-5.62.1-6.94-3.1s-.54-16.61-.54-16.61l.68-22.77.17-2.25s-1.92,24.45-2.36,28.19-.87,12.86-1.21,13.53-.39.95-1.08.95a6.2,6.2,0,0,1-3-1.17,2.41,2.41,0,0,1-.76-2.17c.07-1.24,1-12.29,1.34-17s1.21-15.86,1.25-17.52,1.31-10,1.42-11.54.24-3.8.24-3.8-2.69.87-4.5,1.41-2.28.3-5.69,1a70.56,70.56,0,0,1-7.43,1s-1-5.24-1.24-6.9A17.94,17.94,0,0,0,136.61,127.28Z"/><path class="cls-32" d="M161.9,111s1.66-3.45,2.69-5.27a57.19,57.19,0,0,1,4.56-6.25,6.68,6.68,0,0,0,1.44-2.31c.11-.52-.45-2.45-.43-3s0-.83.45-.85a22.57,22.57,0,0,0,3.73-.83,4.42,4.42,0,0,0,1.21-1.37S177,87.8,177.46,87s2.16-3.48,2.4-4,.3-.63.3-.63"/><path class="cls-32" d="M160.88,109.34c-.17-.37-3.3-7.23-3.1-10.21a11.68,11.68,0,0,1,1.95-5.46c.15-.25.24-.67,0-.75a8,8,0,0,1-.94-.21c-.15-.1-.3-.43.07-1.09s2-4,2-4"/><path class="cls-32" d="M161.37,110s.28,19.74-.53,23.38"/><path class="cls-32" d="M159.36,136.79l10.21-6.57c1.14-.74,7.44-5.22,7.44-5.22"/><path class="cls-32" d="M164.65,145.67c.08.47.2,1.93.62,2.22a15,15,0,0,0,2.9.79,54.46,54.46,0,0,0,6.57.47,57.5,57.5,0,0,0,6.7-.2,1.8,1.8,0,0,0,1.37-.64,2.15,2.15,0,0,0,.47-1.33c0-.59-.1-1.43-.1-1.43"/><path class="cls-32" d="M181.66,145l-15.27.27s5.14-2.2,7.43-3.14,10.09-4.92,11.82-5.77a28.7,28.7,0,0,0,4.15-2.74,12.16,12.16,0,0,0,3.28-3.17,27.9,27.9,0,0,0,1.19-3.21s.07-8.25-.13-13.1-.91-10.48-.91-10.48"/><path class="cls-32" d="M175.89,102s.85,11.79,1.41,13.77,1.42,6,1.49,6.08"/><path class="cls-32" d="M184.94,126c-1.12-.07-4-.88-4-2.36s5.3,0,5.86.61a3.76,3.76,0,0,1,.6.69"/><path class="cls-32" d="M156.7,126.33s-.29,3-.49,3.86"/><path class="cls-32" d="M152.2,121.75a30.4,30.4,0,0,1,3.73,1.23"/><path class="cls-31" d="M147.2,59.85c1,.1,5.32,1.65,7.18,2.16s8.15,2.09,9.5,2.76a64.12,64.12,0,0,0,7.47,2.34c.22,0,.12-.27.46-.89s1.24-1.36,1.24-1.53-.85-.83-.85-.83l-4.57-2.59s-8.32-4.45-8.91-4.84a26.83,26.83,0,0,0-5.35-1.88,24.23,24.23,0,0,0-3-.1,13.82,13.82,0,0,0-1.83,2.1A25.89,25.89,0,0,0,147.2,59.85Z"/><circle class="cls-30" cx="185.2" cy="102.57" r="5.79"/><rect class="cls-33" x="184.05" y="98.73" width="2.36" height="7.78"/><rect class="cls-33" x="183.81" y="98.64" width="2.36" height="7.78" transform="translate(287.51 -82.46) rotate(90)"/><path class="cls-34" d="M124,129.75a16.54,16.54,0,0,1,2.68-.37c.35,0,1.46,0,1.67-.27s.22-1.16,0-1.32a2.2,2.2,0,0,0-1.12-.46,33,33,0,0,0-3.53.25,4.68,4.68,0,0,0-1.21.55"/><path class="cls-34" d="M126.27,129.76a7.72,7.72,0,0,1-.74,1.09"/><path class="cls-34" d="M122.09,126.84a2.37,2.37,0,0,1,1.9-1.22,4.84,4.84,0,0,1,2.07.12c.38.2,1.36.61,1.49,1.12s0,.58,0,.58"/><path class="cls-34" d="M121.67,126.36a6.29,6.29,0,0,1,.23-2.11A1.54,1.54,0,0,1,123,124a18.24,18.24,0,0,1,3,.79,5,5,0,0,1,1.49.73"/><path class="cls-33" d="M150.9,75.56A49.57,49.57,0,0,0,156,73.43c1.19-.65,2.51-1.19,2.67-1.33s1.88-3.43,1.88-3.43,1.58-2.92,1.71-3.19a10.6,10.6,0,0,1,.61-.9l.38.07-1,2.13s-2.56,5.48-2.56,5.57a11.84,11.84,0,0,1,.76,1.17A4.32,4.32,0,0,0,161.61,75a1.77,1.77,0,0,0,1.12.61c.22,0,.79-.77,1.21-1.4A28.11,28.11,0,0,0,165.36,71l.49-.13s-1,3.34-1,3.68a7.29,7.29,0,0,1,0,1.55,15.58,15.58,0,0,1-1.3,4.54c-.36.71-2.26,3.18-6.45,2.71A8.53,8.53,0,0,1,150.92,79a7.21,7.21,0,0,1-.49-2.19A2.25,2.25,0,0,1,150.9,75.56Z"/><polygon class="cls-35" points="132.93 139.05 143.93 139.88 143.8 139.23 133.38 138.26 136.61 134.78 135.83 134.71 132.17 138.85 132.93 139.05"/><polygon class="cls-36" points="136.35 134.59 133.07 138.43 143.8 139.49 146.59 135.8 138.04 134.96 136.35 134.59"/><path class="cls-37" d="M149.17,147.1c1.2-.29,5.05-1.35,5.69-1.63a29.91,29.91,0,0,1,4.11-1.62,22.27,22.27,0,0,1,3.56-.56c.37,0,.12-1.14.12-1.14l-2-4.08-.92-.45s.15-.41-.58-.12a5.58,5.58,0,0,1-1.92.22,30.3,30.3,0,0,1-2.89-1,20.17,20.17,0,0,0-3.07-.79,10.78,10.78,0,0,1-2.32-.51c-.54-.32-2.65-1.53-3.17-1.95a1.6,1.6,0,0,0-1.7,0c-.29.24-.25,1.05.45,1.64s2.63,1.73,3,2.07a2.06,2.06,0,0,1,.9,1.67,3.46,3.46,0,0,1-1.57,2.3,6.33,6.33,0,0,1-2,1,21.6,21.6,0,0,1-4.78-.08c-1-.29-1.68-.25-1.8,0a1.28,1.28,0,0,0,.59,1.6c.84.5,4.9.34,6.06.34h1.75l-2.93.4c-.25,0-1-.13,0,.39s2.44.55,3.23,1.26A6.9,6.9,0,0,0,149.17,147.1Z"/><path class="cls-38" d="M164.29,68.54c.08.51-.27,1.14-.29,1.45s-.07.72.25.72.62.23,1-.49a5.29,5.29,0,0,0,.35-2.28,7.08,7.08,0,0,0-.6-2.4s.51,1.66.3,1.78-.49-.53-.72-.75-.61-.71-1-.69a1.33,1.33,0,0,0-1.07.81c-.18.47-.12,1.23.3,1.38S164.29,68.54,164.29,68.54Z"/><path class="cls-23" d="M126,123.89a8.91,8.91,0,0,1,2.24,2.43c1.39,1.94,1.83,7.32,3.62,9a6.61,6.61,0,0,0,2.78,1.83"/><path class="cls-39" d="M113.68,192.58s.11-5.61-2.45-7.83S91.07,171.81,90.89,171.7l.42-.69c.73.44,17.83,10.86,20.45,13.13s7.74,6.92,7.88,7.08Z"/><path class="cls-40" d="M133.06,94.41c-.25,1.92-.25,5.24.21,5.8a.72.72,0,0,0,1.26-.14c.07-.39-.32-1.89.1-2.17s1-.52,1.05-.07-.35,1,0,1,1.43.38,1.95-.53,1.16-2.87.49-3.28-1.22-.84-1.82-.28-.41,1.11-.83,1.11-1,.53-1-.35-.1-1.5-.38-1.59-.69-.51-.85-.15A2.11,2.11,0,0,0,133.06,94.41Z"/><rect class="cls-41" x="19.7" y="61.47" width="10.57" height="49.91"/><path class="cls-41" d="M55.42,156.14q0-25.24,0-50.5V62.55c0-.34.11-.7-.16-1-4.67-.14-9.34-.08-14-.1a.37.37,0,0,1-.16.07,27,27,0,0,1-5.68-.08H20.68a3.1,3.1,0,0,0-.46,0c-.33,0-.47.08-.52.32a4,4,0,0,0,0,.68c0,3.15,0,6.32,0,9.49,0,.9.05,1.79.09,2.69a18.81,18.81,0,0,1-.09,2.25c0,.43-.05.87,0,1.31,0,.2,0,.39,0,.59a19.35,19.35,0,0,1,.12,2c0,.37-.08.74-.12,1.1a4.43,4.43,0,0,0,0,1.15h0a17.48,17.48,0,0,0,2.4,0,1,1,0,0,1,.09-.6,1.5,1.5,0,0,1,.76-.07H52.44a.47.47,0,0,1,.54.53c0,.11,0,.23,0,.35q0,7.41,0,14.82a.92.92,0,0,1-.12.65,5.28,5.28,0,0,1-1.25,0c-.23-.17-.15-.37-.21-.52H37.22c-.06.14-.13.3-.22.49-.53,0-1.1.21-1.64-.14h-.51c-.17.28-.45.18-.7.18-.93,0-1.87,0-2.81,0H28.9c-.26-.31-.15-.61-.17-.89s0-.56,0-.84c0-2.74,0-5.49,0-8.23,0-.21,0-.43,0-.66,0-1,0-2,0-3l-2.15,0c-.95,0-.95,0-1,.95a2.26,2.26,0,0,1,0,.26c0,2.27.11,4.53,0,6.79-.12,1.82-.1,3.64-.16,5.6H23a1.91,1.91,0,0,1-.88-.1V90.24a21.65,21.65,0,0,0-2.28,0,5.11,5.11,0,0,0,0,.55c0,3.07.14,6.14-.06,9.21,0,.3,0,.6-.06.9a2.16,2.16,0,0,0,.06.38c.14.51.46,1,.56,1.52a3.87,3.87,0,0,1-.36,2.6,2.18,2.18,0,0,0-.2.53,1.64,1.64,0,0,0,0,.38.13.13,0,0,1,0,.06c.21.25.09.57.09.85v4.17c0,5.6,0,11.18,0,16.77V159.7c.07.2-.05.46.17.66H55.31a1.09,1.09,0,0,0,.12-.64c0-.87,0-1.75,0-2.62C55.44,156.78,55.42,156.46,55.42,156.14Zm-2.49-76c-.23.23-.54.1-.82.13a5.45,5.45,0,0,1-3,0H46.72V74.56c0-1,0-1.89,0-2.83V67.34c0-.3-.06-.5-.43-.49-.61,0-1.21,0-1.82,0-.4,0-.54.23-.54.61s0,.87,0,1.31v.68l.19.2H46c.22,0,.49,0,.45.46a16.88,16.88,0,0,1-2.36,0c0,.19,0,.37,0,.55h2c.26,0,.47,0,.35.51H44.09c.09,1.32-.23,2.62-.16,3.93,0,.27-.14.58.16.8h2.43c-.24.54-.24.54-2.42.5,0,.19,0,.37,0,.56h2c.27,0,.46,0,.35.51H44.1c-.3.21-.16.52-.17.79,0,.63,0,1.26,0,1.92a11.71,11.71,0,0,1-2.27.08l-.73-.17c-.15.27-.41.17-.61.18a38.21,38.21,0,0,0-4.41.12c-.19,0-.31-.11-.36-.3-.3,0-.55.24-.85.18H30.27c-.29,0-.57,0-.85,0a.35.35,0,0,1-.45.15,4.28,4.28,0,0,0-1.62-.16H25.69c-.24-.56,0-1.14-.23-1.75H23v1.61a.76.76,0,0,1-.84,0V63.76h30.8ZM25.81,86.6h2.38c.24.17.15.36.13.6a15.82,15.82,0,0,1-2.37,0C25.69,87.08,25.78,86.88,25.81,86.6Zm.82,5c0-.87-.27-1.72-.16-2.59a2.07,2.07,0,0,1,.08-.81,2,2,0,0,1,1.05,0v7.57a1.31,1.31,0,0,1-.83,0c-.2-.18-.14-.43-.14-.65C26.62,93.94,26.59,92.79,26.63,91.63Zm-.81,5.48a19,19,0,0,1,2.39-.06.81.81,0,0,1,.09.8,21.48,21.48,0,0,1-2.39.07A.82.82,0,0,1,25.82,97.11Zm26.92,60.65H22.34V138.82h30.4ZM42.5,131.42c.42-2.29.84-4.51,1.25-6.7.37-.09.56.15.92.12-.39,2.37-.76,4.64-1.27,6.85A.78.78,0,0,1,42.5,131.42Zm10.42,4.25c-.21.22-.52.08-.8.12H48c-1,.1-2-.21-3-.18-.47.36-1,.11-1.47.15a.86.86,0,0,1-.1-.86,29.18,29.18,0,0,0,1-5c.37-2,.72-4.08,1.07-6.1,0-.19.15-.23.31-.23,0-.19,0-.37,0-.56a19.46,19.46,0,0,1-2.29-.27c-.16.79-.37,1.55-.47,2.34-.18,1.37-.55,2.71-.81,4.06q-.53,2.85-1.09,5.68c-.12.59.37.54.68.79H38.46a1.45,1.45,0,0,1-.75.15H22.15V119.43H52.92Zm0-18.45a3.69,3.69,0,0,1-2-.11H36.23a.49.49,0,0,1-.61.15,7,7,0,0,0-1.76-.17h-6v-5.74c0-.94,0-1.86,0-2.8v-4.41c0-.39-.16-.49-.53-.48-.7,0-1.39,0-2.1,0-.09.58.22,1.21-.19,1.75l0,.33h.52c0-.26.15-.36.4-.36.46,0,.92,0,1.38,0a1.14,1.14,0,0,1,.06,1c-.62,0-1.24.23-1.83-.14-.24,0-.35.12-.35.37s.14.33.36.35h1.9c.27.88.19,1-.65,1H25.78c-.28-.23-.16-.47-.2-.69h-.52c0,.24,0,.46,0,.69.29.19.17.48.17.73v2.61c0,1.57,0,3.14,0,4.71a1.26,1.26,0,0,1-.37,1H23c-.2,0-.4,0-.61,0a1,1,0,0,1-.21-.08V101H52.93Z"/><path class="cls-42" d="M35.38,51.29A16,16,0,0,1,35,47c0-.31,0-.65.35-.93,1.21.79,1.4,2.14,1.81,3.41.3-.24.26-.55.29-.85A10.78,10.78,0,0,1,38,46.18c.09-.26.18-.57.53-.64.69.49.76.72,1.44,4.53.64-.88,1-2,2.22-2.25.35,1.12-.16,2.13-.25,3.25.35-.09.61-.48,1-.18a5.56,5.56,0,0,1-1.19,3.56c-.11,0-.21.13-.32.12-.84,0-1.68-.1-2.52-.11-1.33,0-2.65,0-4,0A8.9,8.9,0,0,1,33.26,50a1.49,1.49,0,0,1,1.27.54l.82.77s0,.18.13.06Z"/><path class="cls-43" d="M41.25,61.45s-.1.07-.16.07a26.31,26.31,0,0,1-5.68-.08,10.51,10.51,0,0,1-.73-3.18c-.12-.62-.17-1.25-.25-1.88h7.78A29.07,29.07,0,0,1,41.25,61.45Z"/><path class="cls-44" d="M42.21,56.38H34.43l-.66,0a.84.84,0,0,1-.31-.54c-.09-.9,0-1.45,1.11-1.34.14,0,.29,0,.44,0,1.32,0,2.64,0,4,0,.84,0,1.68.08,2.52.11.11,0,.21-.08.32-.12h.26c1,0,1.28.44,1,1.42C42.92,56.39,42.58,56.36,42.21,56.38Z"/><path class="cls-18" d="M45.82,123a19.46,19.46,0,0,1-2.29-.27c-.16.78-.37,1.56-.47,2.34-.18,1.38-.55,2.71-.81,4.07-.35,1.89-.72,3.78-1.09,5.67-.12.59.36.54.68.78H38.46c.13-.43-.18-.56-.49-.7l.07-2.09c.23,0,.45,0,.45-.35s-.28-.34-.52-.36a1.35,1.35,0,0,0-.07-.59l-.59-.28,0-2.45c.41,0,.89,0,.57-.62a1,1,0,0,0-.18-.05H26.29a1.34,1.34,0,0,0-1.34.92,2.93,2.93,0,0,0,.47,3.08,1.79,1.79,0,0,0-1.28,2c0,.62.41,1.08.43,1.66H22.16V119.43H52.92v16.24c-.21.22-.52.08-.8.12V122H49c-.07-.21.06-.47-.24-.69-.9.14-1.85-.31-2.93-.07Z"/><path class="cls-18" d="M23,117.12h-.61a1,1,0,0,1-.21-.08V101H52.93v16.26a3.79,3.79,0,0,1-2-.1l0-.55v-2.75a3.67,3.67,0,0,0,.55-2.48c0-.78-.07-.84-.85-.84H38c-.78,0-.82.07-.85.84A8.74,8.74,0,0,1,37,113c-.4.15-.83.11-1.12.39-.05.41.22.38.45.38.1.93,0,1.87.2,2.79-.36,0-.36.27-.34.53a.48.48,0,0,1-.61.14,8.07,8.07,0,0,0-1.76-.16l1.08-.46a.79.79,0,0,0,0-.53c-.27-1.06-.52-2.13-.8-3.19-.44-1.69-.75-3.43-1.34-5.08,0-.23.07-.48-.15-.67a6.52,6.52,0,0,0-.51-2c-.62,0-1.15.39-1.71.25-.21-.4,0-.81-.26-1.24H27.85c0-.39-.17-.5-.53-.49-.69,0-1.39,0-2.09,0,0-.33,0-.68-.45-.68a4.85,4.85,0,0,0-1.78.09V108C22.9,111.05,23,114.08,23,117.12Z"/><path class="cls-18" d="M24.56,86.38c0-.41,0-.81,0-1.21a1.79,1.79,0,0,0-2-2.07l-.43,0c0-.2-.05-.41.09-.59a1.41,1.41,0,0,1,.76-.08H52.44a.47.47,0,0,1,.54.53V98.1a.92.92,0,0,1-.12.64,5.28,5.28,0,0,1-1.25.05c-.23-.18-.16-.38-.2-.54V96.87c.07-.22-.14-.37-.16-.57a6.89,6.89,0,0,0,.46-.73,1.29,1.29,0,0,0-1.22-2q-5.76,0-11.51,0c-.21,0-.48-.11-.61.18.05.25.25.29.45.36v1.51c-.44,0-.43.46-.56.65-.31.16-.5-.09-.72,0s-.56.11-.26.47l0,1.57-.23.5c-.54,0-1.1.21-1.63-.14.45-.17,1-.13,1.44-.55L33.35,85.73c-.71-.14-1.28.56-2,.23-.14-.33.08-.87-.39-.9a4.56,4.56,0,0,0-2.29.1l-2.15,0c-.95,0-.95,0-1,.95v.26Z"/><path class="cls-18" d="M46.7,67.34c0-.3-.05-.5-.42-.49-.6,0-1.21,0-1.81,0-.41,0-.56.22-.55.61s0,.86,0,1.3l-2.27-.53c.11.54-.19.93-.17,1.39l0,.52a13.53,13.53,0,0,0-.58,2.67c-.38,1.82-.78,3.64-1.08,5.48-.08.5-.42,1-.12,1.61.46,0,.84.21,1.28.21-.15.27-.4.16-.62.17a35.93,35.93,0,0,0-4.4.12c-.19,0-.31-.11-.37-.29a2,2,0,0,0,1-.31,1.74,1.74,0,0,0-.06-.73c-.39-1.5-.75-3-1.14-4.49a15.09,15.09,0,0,0-.8-2.89l-.08-.49c.06-.33-.15-.59-.21-.9a.81.81,0,0,0-.14-.5,3.24,3.24,0,0,0-.31-1.39,12.29,12.29,0,0,1-1.87.44c-.2-.47.06-1-.21-1.49H29.25a.32.32,0,0,0-.38-.35c-.34,0-.68,0-1,0-.52,0-.74.21-.69.72H25.58c0-.27.1-.58-.13-.82H23v2.22a1.19,1.19,0,0,0-.11,1.08,9.42,9.42,0,0,1,.13,2c0,1.89,0,3.78,0,5.67v2.28a.71.71,0,0,1-.84,0V63.76H52.94v16.4c-.25.23-.55.1-.83.13l0-1.07v-.49c0-3,0-6.07,0-9.11V69a7,7,0,0,0,0-1.77c-.59,0-1.13,0-1.67,0s-.85-.17-1.23.16Z"/><path class="cls-45" d="M52.74,157.76H22.34V138.82h30.4Zm-15.53-.52v-17.9H22.69v17.9Zm.61,0H52.41V139.36H37.82Z"/><path class="cls-43" d="M28.72,85.16a4.56,4.56,0,0,1,2.29-.1c.47,0,.25.57.39.9.67.33,1.24-.37,2-.23l3.46,12.34c-.47.42-1,.38-1.44.55h-.52q-1.7-6-3.38-11.94l-.16,0v1.47H28.74Z"/><path class="cls-8" d="M45.82,123v-1.81c1.08-.24,2,.21,2.93.07.3.22.17.48.24.69s-.23.61-.15.94c-.06,1.59-.26,3.17-.34,4.75-.07,1.35-.21,2.7-.25,4.06s-.18,2.7-.27,4c-1,.1-2-.21-3-.19,0-.6.1-1.21.16-1.8.1-.93.12-1.85.17-2.77.15-2.48.32-5,.48-7.43Zm1.61,10.3a13.59,13.59,0,0,1,.13-2.29c-.05-1.42.3-2.82.2-4.24a1,1,0,0,1,0-.34c.27-.89,0-1.84.28-2.74.14-.45-.16-.68-.64-.68-.7,0-.88.07-.9.61s0,1,0,1.48c-.21,1.69-.29,3.38-.37,5.08,0,.86-.14,1.72-.15,2.59,0,.52.19.76.72.71A1,1,0,0,0,47.43,133.34Z"/><path class="cls-8" d="M22.94,69.12v-.55a21.3,21.3,0,0,0,2.53,0,2.14,2.14,0,0,0,.1-.81h1.58c.32.24.16.59.16.89,0,3.89,0,7.78,0,11.67H25.69c-.24-.57,0-1.15-.22-1.76H23v-.68h2.55V69.12Z"/><path class="cls-43" d="M48.84,122.93c-.08-.33.2-.61.15-.94h3.13v13.8h-3c.13-4.18-.09-8.36-.16-12.53A.39.39,0,0,0,48.84,122.93Zm.86.52c0,1.77,0,3.48,0,5.18a.62.62,0,0,0,.37.53c.39-.07.86.11,1.27-.11v-5.6Zm0,6.46c0,1.43,0,2.79,0,4.14a.47.47,0,0,0,.54.53c.39,0,.8.12,1.15-.12V129.9A6.84,6.84,0,0,0,49.68,129.91Z"/><path class="cls-46" d="M31.31,88.16V86.69l.16,0q1.7,6,3.38,11.94c-.17.28-.45.18-.69.18H31.34l0-.89v-.85c0-2.74,0-5.48,0-8.23Z"/><path class="cls-43" d="M40.93,80.12c-.44,0-.82-.25-1.28-.21-.3-.58,0-1.11.12-1.61.3-1.84.7-3.66,1.08-5.48a13.53,13.53,0,0,1,.58-2.67l2.14.54c-.21,1.1-.39,2.2-.61,3.29-.43,2.1-.87,4.2-1.3,6.3Z"/><path class="cls-42" d="M38,132.13c.24,0,.52,0,.52.36s-.22.34-.45.35H26a1,1,0,0,0-1.12,1c0,.75.31,1.05,1.14,1.05H38c.31.14.62.27.49.7a1.29,1.29,0,0,1-.75.16H24.57c0-.58-.42-1-.43-1.66a1.79,1.79,0,0,1,1.28-2,1.62,1.62,0,0,0,.92.17H37.05A1.46,1.46,0,0,0,38,132.13Z"/><path class="cls-43" d="M23,117.12c0-3-.06-6.07,0-9.1l2.05,0c.28.18.18.47.18.71v7.32a1.28,1.28,0,0,1-.35,1.05Z"/><path class="cls-43" d="M24.56,86.38h1c0,2.26.11,4.54,0,6.79-.12,1.82-.1,3.64-.16,5.61H23c0-2.88,0-5.75,0-8.63l.88-.28V97a.94.94,0,0,0,.88-.08c0-.81,0-1.68,0-2.54a26.47,26.47,0,0,1,.14-4.08c.07-.39.26-1-.49-1.08A17.62,17.62,0,0,0,24.56,86.38Z"/><path class="cls-47" d="M32.76,107.84c.59,1.65.9,3.39,1.34,5.08.28,1.06.53,2.13.8,3.19a.79.79,0,0,1,0,.53l-1.08.46h-.7c-.17-.7-.33-1.39-.5-2.09-.55-2.26-1.18-4.5-1.64-6.78A7.45,7.45,0,0,0,32.76,107.84Z"/><path class="cls-18" d="M34.69,80.29l-2.79,0,0-2.44v-8c0-.19,0-.39.06-.57.39.2.15.69.44.93l0,.51.27.88c.09.24,0,.53.21.74a14.83,14.83,0,0,0,.64,2.77C33.89,76.81,34.43,78.52,34.69,80.29Z"/><path class="cls-47" d="M37.23,98.26l0-1.57c4.71.08,9.43-.14,14.14.18v1.38Zm2.66-1.19a7.11,7.11,0,0,0,2.89.32c1,0,1.92,0,2.88,0s1.93.21,2.83-.31Zm8.44.54h-9v.17C42.33,97.47,45.33,98.29,48.33,97.61Z"/><path class="cls-46" d="M31,108.24c.46,2.28,1.09,4.52,1.64,6.78.17.7.33,1.39.5,2.09H30.27v-11l.15,0,.4,1.45A1,1,0,0,0,31,108.24Z"/><path class="cls-43" d="M34.69,80.29c-.26-1.77-.8-3.48-1.17-5.22a14.83,14.83,0,0,1-.64-2.77,14.62,14.62,0,0,0,1.68-.6,15.09,15.09,0,0,1,.8,2.89c.39,1.49.75,3,1.14,4.49a1.74,1.74,0,0,1,.06.73,2,2,0,0,1-1,.31C35.25,80.1,35,80.35,34.69,80.29Z"/><path class="cls-45" d="M27.34,80.29c0-3.89,0-7.78,0-11.67,0-.3.16-.65-.16-.89-.05-.51.17-.75.69-.72.34,0,.68,0,1,0a.32.32,0,0,1,.38.35,17.92,17.92,0,0,1,.16,2.43v1.59l0,4.71v4.19a.36.36,0,0,1-.45.15A4.08,4.08,0,0,0,27.34,80.29Zm.43-11.13a1.77,1.77,0,0,0-.09.83v8.36c0,.36.18.52.54.53.54,0,.68-.12.68-.82,0-2.78,0-5.57,0-8.35,0-.2.06-.42-.15-.57A2.28,2.28,0,0,0,27.77,69.16Z"/><path class="cls-8" d="M30.82,107.52l-.4-1.45-.15,0v2.46l-2.41,0v-4.41h2.28c.28.43.05.84.26,1.24.56.14,1.09-.22,1.71-.25a6.52,6.52,0,0,1,.51,2A9.14,9.14,0,0,1,30.82,107.52Z"/><path class="cls-43" d="M31.31,88.82c0,2.75,0,5.49,0,8.23h-2.6V88.83Zm-.85,7.24c0-1.3,0-2.62,0-3.93a2.93,2.93,0,0,1,.28-1.68c.3-.49,0-.88-.6-.91a4.69,4.69,0,0,0-.53,0c-.45,0-.62.25-.46.7a14.12,14.12,0,0,1,.43,3.24,8.37,8.37,0,0,1-.15,1.8C29.37,96.1,29.52,96.2,30.46,96.06Z"/><path class="cls-47" d="M49.14,80.28H46.72V74.56l2.42,0v5.75Z"/><path class="cls-47" d="M30.27,111.38v5.74h-2.4v-5.74Z"/><path class="cls-18" d="M41.66,80.28c.43-2.1.87-4.2,1.3-6.3.22-1.09.4-2.19.61-3.29l.08-.69.26-.55.19.2V71.2c.09,1.32-.23,2.62-.17,3.93,0,.27-.12.58.18.79v1.57c-.3.21-.16.53-.17.8,0,.62,0,1.25,0,1.9A10.21,10.21,0,0,1,41.66,80.28Z"/><path class="cls-18" d="M45.81,123.6c-.16,2.47-.33,5-.48,7.43,0,.92-.07,1.84-.17,2.77-.06.59-.11,1.2-.16,1.8-.47.37-1,.13-1.47.16a.85.85,0,0,1-.1-.86,28.24,28.24,0,0,0,1-5c.37-2,.71-4.07,1.07-6.11C45.53,123.64,45.65,123.6,45.81,123.6Z"/><path class="cls-8" d="M46.7,67.34l2.45,0v.18c0,1.4,0,2.8,0,4.19H46.71C46.71,70.26,46.71,68.8,46.7,67.34Z"/><path class="cls-18" d="M48.84,122.93a.39.39,0,0,1,.11.32c.07,4.17.29,8.35.16,12.53H48c.09-1.35.24-2.7.27-4s.18-2.71.25-4.06C48.58,126.1,48.78,124.52,48.84,122.93Z"/><path class="cls-48" d="M45.82,123a19.46,19.46,0,0,1-2.29-.27c-.16.78-.37,1.56-.47,2.34-.18,1.38-.55,2.71-.81,4.07-.35,1.89-.72,3.78-1.09,5.67-.12.59.36.54.68.78H38.46c.13-.43-.18-.56-.49-.7l.07-2.09c.23,0,.45,0,.45-.35s-.28-.34-.52-.36a1.35,1.35,0,0,0-.07-.59l-.59-.28,0-2.45c.41,0,.89,0,.57-.62a1,1,0,0,0-.18-.05H26.29a1.34,1.34,0,0,0-1.34.92,2.93,2.93,0,0,0,.47,3.08,1.79,1.79,0,0,0-1.28,2c0,.62.41,1.08.43,1.66H22.16V119.43H52.92v16.24c-.21.22-.52.08-.8.12V122H49c-.07-.21.06-.47-.24-.69-.9.14-1.85-.31-2.93-.07Z"/><path class="cls-48" d="M23,117.12h-.61a1,1,0,0,1-.21-.08V101H52.93v16.26a3.79,3.79,0,0,1-2-.1l0-.55v-2.75a3.67,3.67,0,0,0,.55-2.48c0-.78-.07-.84-.85-.84H38c-.78,0-.82.07-.85.84A8.74,8.74,0,0,1,37,113c-.4.15-.83.11-1.12.39-.05.41.22.38.45.38.1.93,0,1.87.2,2.79-.36,0-.36.27-.34.53a.48.48,0,0,1-.61.14,8.07,8.07,0,0,0-1.76-.16l1.08-.46a.79.79,0,0,0,0-.53c-.27-1.06-.52-2.13-.8-3.19-.44-1.69-.75-3.43-1.34-5.08,0-.23.07-.48-.15-.67a6.52,6.52,0,0,0-.51-2c-.62,0-1.15.39-1.71.25-.21-.4,0-.81-.26-1.24H27.85c0-.39-.17-.5-.53-.49-.69,0-1.39,0-2.09,0,0-.33,0-.68-.45-.68a4.85,4.85,0,0,0-1.78.09V108C22.9,111.05,23,114.08,23,117.12Z"/><path class="cls-48" d="M24.56,86.38c0-.41,0-.81,0-1.21a1.79,1.79,0,0,0-2-2.07l-.43,0c0-.2-.05-.41.09-.59a1.41,1.41,0,0,1,.76-.08H52.44a.47.47,0,0,1,.54.53V98.1a.92.92,0,0,1-.12.64,5.28,5.28,0,0,1-1.25.05c-.23-.18-.16-.38-.2-.54V96.87c.07-.22-.14-.37-.16-.57a6.89,6.89,0,0,0,.46-.73,1.29,1.29,0,0,0-1.22-2q-5.76,0-11.51,0c-.21,0-.48-.11-.61.18.05.25.25.29.45.36v1.51c-.44,0-.43.46-.56.65-.31.16-.5-.09-.72,0s-.56.11-.26.47l0,1.57-.23.5c-.54,0-1.1.21-1.63-.14.45-.17,1-.13,1.44-.55L33.35,85.73c-.71-.14-1.28.56-2,.23-.14-.33.08-.87-.39-.9a4.56,4.56,0,0,0-2.29.1l-2.15,0c-.95,0-.95,0-1,.95v.26Z"/><path class="cls-48" d="M46.7,67.34c0-.3-.05-.5-.42-.49-.6,0-1.21,0-1.81,0-.41,0-.56.22-.55.61s0,.86,0,1.3l-2.27-.53c.11.54-.19.93-.17,1.39l0,.52a13.53,13.53,0,0,0-.58,2.67c-.38,1.82-.78,3.64-1.08,5.48-.08.5-.42,1-.12,1.61.46,0,.84.21,1.28.21-.15.27-.4.16-.62.17a35.93,35.93,0,0,0-4.4.12c-.19,0-.31-.11-.37-.29a2,2,0,0,0,1-.31,1.74,1.74,0,0,0-.06-.73c-.39-1.5-.75-3-1.14-4.49a15.09,15.09,0,0,0-.8-2.89l-.08-.49c.06-.33-.15-.59-.21-.9a.81.81,0,0,0-.14-.5,3.24,3.24,0,0,0-.31-1.39,12.29,12.29,0,0,1-1.87.44c-.2-.47.06-1-.21-1.49H29.25a.32.32,0,0,0-.38-.35c-.34,0-.68,0-1,0-.52,0-.74.21-.69.72H25.58c0-.27.1-.58-.13-.82H23v2.22a1.19,1.19,0,0,0-.11,1.08,9.42,9.42,0,0,1,.13,2c0,1.89,0,3.78,0,5.67v2.28a.71.71,0,0,1-.84,0V63.76H52.94v16.4c-.25.23-.55.1-.83.13l0-1.07v-.49c0-3,0-6.07,0-9.11V69a7,7,0,0,0,0-1.77c-.59,0-1.13,0-1.67,0s-.85-.17-1.23.16Z"/><path class="cls-48" d="M34.69,80.29l-2.79,0,0-2.44v-8c0-.19,0-.39.06-.57.39.2.15.69.44.93l0,.51.27.88c.09.24,0,.53.21.74a14.83,14.83,0,0,0,.64,2.77C33.89,76.81,34.43,78.52,34.69,80.29Z"/><path class="cls-48" d="M41.66,80.28c.43-2.1.87-4.2,1.3-6.3.22-1.09.4-2.19.61-3.29l.08-.69.26-.55.19.2V71.2c.09,1.32-.23,2.62-.17,3.93,0,.27-.12.58.18.79v1.57c-.3.21-.16.53-.17.8,0,.62,0,1.25,0,1.9A10.21,10.21,0,0,1,41.66,80.28Z"/><path class="cls-48" d="M45.81,123.6c-.16,2.47-.33,5-.48,7.43,0,.92-.07,1.84-.17,2.77-.06.59-.11,1.2-.16,1.8-.47.37-1,.13-1.47.16a.85.85,0,0,1-.1-.86,28.24,28.24,0,0,0,1-5c.37-2,.71-4.07,1.07-6.11C45.53,123.64,45.65,123.6,45.81,123.6Z"/><path class="cls-48" d="M48.84,122.93a.39.39,0,0,1,.11.32c.07,4.17.29,8.35.16,12.53H48c.09-1.35.24-2.7.27-4s.18-2.71.25-4.06C48.58,126.1,48.78,124.52,48.84,122.93Z"/><path class="cls-8" d="M27.6,95.75a1.51,1.51,0,0,1-.84,0c-.19-.19-.13-.44-.13-.66,0-1.16,0-2.32,0-3.48,0-.88-.28-1.72-.18-2.59a2.56,2.56,0,0,1,.08-.81,2,2,0,0,1,1.06,0Z"/><path class="cls-43" d="M50.85,116.57l0,.55H36.23c0-.26,0-.51.34-.53,3.28,0,6.56,0,9.84,0C47.89,116.6,49.37,116.58,50.85,116.57Z"/><path class="cls-46" d="M23,90.16c0,2.88,0,5.75,0,8.63a1.87,1.87,0,0,1-.87-.11V90.24Z"/><path class="cls-8" d="M42.49,131.41c.43-2.28.85-4.5,1.26-6.69.37-.08.56.15.92.12-.39,2.37-.77,4.65-1.28,6.85C43,131.84,42.75,131.65,42.49,131.41Z"/><path class="cls-43" d="M46.71,71.72h2.44v2.79h0l-2.42,0Z"/><path class="cls-43" d="M30.27,111.38h-2.4c0-.93,0-1.87,0-2.81l2.41,0Z"/><path class="cls-43" d="M29.42,80.29V77.83h2.43l0,2.44Z"/><path class="cls-43" d="M23,105.44V103.1a4.85,4.85,0,0,1,1.78-.09c.44,0,.45.35.45.68-.09.58.21,1.2-.2,1.75Z"/><path class="cls-43" d="M49.14,80.28v-.87c1,0,2-.25,2.94-.19l0,1.07A5.55,5.55,0,0,1,49.14,80.28Z"/><path class="cls-43" d="M43.91,69.45l-.26.55a10.15,10.15,0,0,0-2.18-.37c0-.46.28-.85.17-1.39l2.27.53Z"/><path class="cls-43" d="M31.32,97.9l0,.89H28.89c-.25-.32-.14-.62-.16-.89Z"/><path class="cls-44" d="M28.22,97.05a.83.83,0,0,1,.08.8,19.25,19.25,0,0,1-2.39.07.85.85,0,0,1-.08-.81A21,21,0,0,1,28.22,97.05Z"/><path class="cls-8" d="M31.32,97.9H28.73v-.85h2.6Z"/><path class="cls-8" d="M25.05,108,23,108v-1c.53,0,1.07,0,1.6,0,.26,0,.44.05.46.35Z"/><path class="cls-8" d="M23,105.44h2l0,.33c0,.22.07.47-.19.67H23Z"/><path class="cls-8" d="M25.6,107h1.9c.27.87.19,1-.65,1-.37,0-.75,0-1.07,0-.27-.22-.17-.47-.21-.69Z"/><path class="cls-8" d="M25.58,105.77c0-.25.15-.34.4-.34h1.38a1.11,1.11,0,0,1,.05,1c-.61,0-1.23.23-1.83-.13Z"/><path class="cls-8" d="M31.31,88.82H28.73v-.67h2.57Z"/><path class="cls-8" d="M25.81,86.6h2.38c.24.17.15.36.12.6a15.64,15.64,0,0,1-2.36,0C25.7,87.07,25.78,86.87,25.81,86.6Z"/><path class="cls-43" d="M25.58,105.77v.52a.32.32,0,0,0-.35.36c0,.26.15.34.37.36l0,.33h-.51c0-.3-.2-.35-.46-.35-.53,0-1.07,0-1.6,0v-.58h1.86c.26-.2.15-.45.19-.67Z"/><path class="cls-8" d="M44.11,70.14v-.49H46c.22,0,.5,0,.45.46A18.53,18.53,0,0,1,44.11,70.14Z"/><path class="cls-44" d="M44.09,71.2v-.51h2c.26,0,.48,0,.35.51Z"/><path class="cls-8" d="M44.1,76.43v-.51h2.42C46.28,76.47,46.28,76.47,44.1,76.43Z"/><path class="cls-8" d="M44.1,77.49V77h2c.26,0,.46,0,.35.51Z"/><path class="cls-8" d="M24.37,89.19c.75.08.56.69.49,1.08a26.47,26.47,0,0,0-.14,4.08c0,.86,0,1.73,0,2.54a.94.94,0,0,1-.88.08V89.88Z"/><path class="cls-49" d="M35.38,51.29l.1.09c-.1.12-.1,0-.13-.06Z"/><path class="cls-47" d="M37.28,128.81l0,2.45c-.21.3-.53.18-.8.19-.87,0-1.75,0-2.61.05-2.2.19-4.4.08-6.6.05-.28,0-.57-.12-.86-.1a.85.85,0,0,1-.84-.49,1.34,1.34,0,0,1,1.23-2.14Z"/><path class="cls-47" d="M38,134.93H26c-.83,0-1.14-.3-1.14-1.05a1,1,0,0,1,1.12-1H38Z"/><path class="cls-43" d="M37.28,128.81H26.83A1.34,1.34,0,0,0,25.6,131a.85.85,0,0,0,.84.49c.29,0,.58.1.86.1,2.2,0,4.4.14,6.6-.05.86-.08,1.74,0,2.61-.05.27,0,.59.11.8-.19l.59.28a1.35,1.35,0,0,1,.07.59,1.46,1.46,0,0,1-.92.16H26.34a1.62,1.62,0,0,1-.92-.17,2.93,2.93,0,0,1-.47-3.08,1.34,1.34,0,0,1,1.34-.92H37.67a1,1,0,0,1,.18.05C38.17,128.85,37.69,128.8,37.28,128.81Z"/><path class="cls-47" d="M50.85,116.57c-1.48,0-3,0-4.44,0-3.28,0-6.56,0-9.84,0-.18-.92-.1-1.86-.2-2.79h6.16c2.78,0,5.55,0,8.33,0Zm-1.68-.88,0-.08H37.8v.08ZM48,114.81v-.09H38.45v.09Z"/><path class="cls-43" d="M50.86,113.82c-2.78,0-5.55,0-8.33,0H36.37c-.23,0-.5,0-.45-.38.29-.28.72-.24,1.12-.39a8.74,8.74,0,0,0,.06-1.7c0-.77.07-.83.85-.84H50.56c.78,0,.82.06.85.84A3.67,3.67,0,0,1,50.86,113.82Zm-7.16-2.93H37.8a5.84,5.84,0,0,0,.11,1.8h5.78A7.23,7.23,0,0,0,43.7,110.89Z"/><path class="cls-50" d="M30.82,107.52a9.14,9.14,0,0,0,1.79-.35c.22.19.1.44.15.67a7.45,7.45,0,0,1-1.74.4A1,1,0,0,1,30.82,107.52Z"/><path class="cls-47" d="M38.81,95.61V94.1c.21-.3.52-.18.8-.19a19.44,19.44,0,0,0,2.85.14,32,32,0,0,1,3.38-.15c1.44-.15,2.86.37,4.32,0a1,1,0,0,1,1.06.73,1.06,1.06,0,0,1-.56,1.08,1.48,1.48,0,0,1-.69.08H39.61C39.34,95.81,39,95.91,38.81,95.61Z"/><path class="cls-44" d="M38.81,95.61c.21.3.53.2.8.2H50a1.48,1.48,0,0,0,.69-.08,1.06,1.06,0,0,0,.56-1.08,1,1,0,0,0-1.06-.73c-1.46.34-2.88-.18-4.32,0a32,32,0,0,0-3.38.15,19.44,19.44,0,0,1-2.85-.14c-.28,0-.59-.11-.8.19-.2-.07-.4-.11-.45-.36.13-.29.4-.18.61-.18q5.75,0,11.51,0a1.29,1.29,0,0,1,1.22,2,6.89,6.89,0,0,1-.46.73c0,.2.23.35.16.57-4.71-.32-9.43-.1-14.14-.18-.3-.36,0-.42.26-.47s.41.2.72,0C38.38,96.07,38.37,95.64,38.81,95.61Z"/><path class="cls-50" d="M22.94,69.12h2.58v8.73H23c0-1.89,0-3.78,0-5.67a9.42,9.42,0,0,0-.13-2A1.19,1.19,0,0,1,22.94,69.12Z"/><path class="cls-43" d="M49.15,78.71V74.53h0c.3-.22.16-.53.17-.81,0-1.36,0-2.73,0-4.1h2.76c0,3,0,6.07,0,9.11-.65,0-1.31,0-2,0C49.8,78.72,49.48,78.45,49.15,78.71Zm2-.93V70.36c-.35,0-.63-.1-.91.07v7.35A1.57,1.57,0,0,0,51.17,77.78Z"/><path class="cls-43" d="M29.41,69.8a17.92,17.92,0,0,0-.16-2.43h2.49c.27.5,0,1,.21,1.49a12.29,12.29,0,0,0,1.87-.44,3.24,3.24,0,0,1,.31,1.39c-.61,0-1.15.36-1.77.36-.29-.24,0-.73-.44-.93-.1.18,0,.38-.06.57Z"/><path class="cls-43" d="M49.16,67.54v-.18c.38-.33.82-.13,1.23-.16s1.08,0,1.67,0a7,7,0,0,1,0,1.77H49.34C49.23,68.5,49.49,68,49.16,67.54Z"/><path class="cls-50" d="M25.58,67.72a2.14,2.14,0,0,1-.1.81,21.3,21.3,0,0,1-2.53,0V66.9h2.5C25.68,67.14,25.54,67.45,25.58,67.72Z"/><path class="cls-8" d="M49.34,69h2.74v.66H49.33Z"/><path class="cls-8" d="M49.15,78.71c.33-.26.65,0,1,0,.65,0,1.31,0,2,0v.49c-1-.06-2,.16-2.94.19Z"/><path class="cls-43" d="M32.67,71.56l-.27-.88c.68.14,1.24-.31,1.87-.37.06.31.27.57.21.9A9.2,9.2,0,0,0,32.67,71.56Z"/><path class="cls-44" d="M41.47,69.63a10.15,10.15,0,0,1,2.18.37l-.08.69-2.14-.54Z"/><path class="cls-8" d="M32.67,71.56a9.2,9.2,0,0,1,1.81-.35l.08.49a14.62,14.62,0,0,1-1.68.6C32.66,72.09,32.76,71.8,32.67,71.56Z"/><path class="cls-8" d="M34.27,70.31c-.63.06-1.19.51-1.87.37l0-.51c.62,0,1.16-.37,1.77-.36A.81.81,0,0,1,34.27,70.31Z"/><path class="cls-50" d="M37.21,157.24H22.69v-17.9H37.21Zm-2.74-7.41c.92.13,1.05.08,1.06-.52,0-1.45,0-2.9,0-4.35,0-.32-.1-.57-.47-.6a.63.63,0,0,0-.68.43,2.49,2.49,0,0,0-.07.68C34.2,146.92,34.59,148.34,34.47,149.83Z"/><path class="cls-50" d="M37.82,157.2V139.36H52.41V157.2Zm2.49-7.32a1.2,1.2,0,0,0,.28-.77c0-1.31,0-2.61,0-3.92,0-.53-.27-.84-.68-.83s-.53.41-.53.8c0,1.33,0,2.67,0,4C39.38,149.88,39.45,149.93,40.31,149.88Z"/><path class="cls-47" d="M47.43,133.34a1,1,0,0,1-.71.18c-.53,0-.73-.19-.72-.71,0-.87.11-1.73.15-2.59.08-1.7.16-3.39.37-5.08.06-.48,0-1,0-1.48s.2-.62.9-.61c.48,0,.78.23.64.68-.27.9,0,1.85-.28,2.74a1,1,0,0,0,0,.34c.1,1.42-.25,2.82-.2,4.24A13.59,13.59,0,0,0,47.43,133.34Z"/><path class="cls-47" d="M49.7,123.45h1.65v5.6c-.41.22-.88,0-1.27.11a.62.62,0,0,1-.37-.53C49.7,126.93,49.7,125.22,49.7,123.45Z"/><path class="cls-8" d="M49.68,129.91a6.84,6.84,0,0,1,1.69,0v4.56c-.35.24-.76.1-1.15.12a.47.47,0,0,1-.54-.53C49.67,132.7,49.68,131.34,49.68,129.91Z"/><path class="cls-43" d="M29.43,77.14v-.35h1.65c.4,0,.67-.13.53-.68H29.43l0-4.71h2.46v5.77Z"/><path class="cls-44" d="M29.43,77.14h2.44v.68H29.43Z"/><path class="cls-44" d="M31.87,71.38H29.41v-.54h2.45Z"/><path class="cls-43" d="M31.86,70.86H29.41v-.51h2.45Z"/><path class="cls-44" d="M31.86,70.33H29.41V69.8h2.45Z"/><path class="cls-8" d="M39.89,97.07h8.6c-.9.52-1.89.27-2.83.31s-1.92,0-2.88,0A7.11,7.11,0,0,1,39.89,97.07Z"/><path class="cls-8" d="M48.33,97.61c-3,.68-6-.14-9,.17v-.17Z"/><path class="cls-8" d="M27.77,69.16a2.28,2.28,0,0,1,1,0c.21.15.15.37.15.57,0,2.78,0,5.57,0,8.35,0,.7-.14.85-.68.82-.36,0-.54-.17-.54-.53V70A1.77,1.77,0,0,1,27.77,69.16Z"/><path class="cls-8" d="M29.43,76.1h2.18c.14.55-.13.68-.53.68H29.43Z"/><path class="cls-8" d="M30.46,96.06c-.94.14-1.09,0-1-.78a8.37,8.37,0,0,0,.15-1.8,14.12,14.12,0,0,0-.43-3.24c-.16-.45,0-.67.46-.7a4.69,4.69,0,0,1,.53,0c.59,0,.9.42.6.91a2.93,2.93,0,0,0-.28,1.68C30.45,93.44,30.46,94.76,30.46,96.06Z"/><path class="cls-50" d="M49.34,69v.65c0,1.37,0,2.74,0,4.1,0,.28.13.59-.17.81V71.73c0-1.39,0-2.79,0-4.19C49.49,68,49.23,68.5,49.34,69Z"/><path class="cls-44" d="M49.17,115.69H37.8v-.08H49.15Z"/><ellipse class="cls-8" cx="43.21" cy="114.76" rx="6.74" ry="0.06"/><path class="cls-8" d="M43.7,110.89a7.23,7.23,0,0,1,0,1.8H37.91a5.84,5.84,0,0,1-.11-1.8Z"/><path class="cls-8" d="M51.17,77.78a1.57,1.57,0,0,1-.91,0V70.43c.28-.17.56-.07.91-.07Z"/><path class="cls-45" d="M34.47,149.83c.12-1.49-.27-2.91-.16-4.36a2.49,2.49,0,0,1,.07-.68.63.63,0,0,1,.68-.43c.37,0,.47.28.47.6,0,1.45,0,2.9,0,4.35C35.52,149.91,35.39,150,34.47,149.83Z"/><path class="cls-45" d="M40.31,149.88c-.86.05-.93,0-.94-.72,0-1.33,0-2.67,0-4,0-.39,0-.8.53-.8s.68.3.68.83c0,1.31,0,2.61,0,3.92A1.2,1.2,0,0,1,40.31,149.88Z"/></g><polygon class="cls-51" points="197.97 140.75 196.71 141.33 195.82 144.36 199.79 144.81 201.73 144.77 202.09 141.23 201.61 139.65 199.61 139.77 197.97 140.75"/><path class="cls-52" d="M196,134.12s.18,5.32.23,6,.34,1.3.94,1.23,4.17-1.41,4.17-1.41l1.39-2.24,0-4-.44-1.45-.37-.51Z"/><path class="cls-53" d="M239.54,114.56a6.88,6.88,0,0,1,2.39,1,2.87,2.87,0,0,0-1.6,2.1c-.15.74-.22,1.5-.34,2.25-.27,1.76-.36,3.54-.59,5.31a22.88,22.88,0,0,1-.65,3.86,18.55,18.55,0,0,0-2,.09c-1.15.2-2.24.57-3.35.87-1.64.46-3.28.93-4.91,1.43a3.46,3.46,0,0,0-2.49,2.11,27.82,27.82,0,0,0-1.12,4.09,20.1,20.1,0,0,0-3.55-.16H217c-.26,0-.52,0-.78-.05a15,15,0,0,0-4.34,0A3.36,3.36,0,0,0,212,137c.22-1.2.43-2.41.66-3.62a16.55,16.55,0,0,0,.16-3,1,1,0,0,0-.32-.88,2.08,2.08,0,0,0-.61,0c-1.63.49-3.31.73-4.95,1.17l-5.23,1.36a1.67,1.67,0,0,1,.14-1.1,32.33,32.33,0,0,0,3.78-.73c1.77-.36,3.54-.75,5.32-1a2,2,0,0,0,1.77-1.47,26.79,26.79,0,0,0,.74-2.9,21.56,21.56,0,0,0,.64-3.39l.47,0h21.67c2.14,0,3.25-1.12,3.27-3.28C239.51,116.94,239.53,115.75,239.54,114.56Z"/><path class="cls-52" d="M238.75,129a22.88,22.88,0,0,0,.65-3.86c.23-1.77.32-3.55.59-5.31.12-.75.19-1.51.34-2.25a2.87,2.87,0,0,1,1.6-2.1c.73.2,1,.82,1.24,1.42a12.31,12.31,0,0,1,.66,3c.19,1.46.24,2.93.36,4.4.23,2.69.05,5.38.12,8.07a6.55,6.55,0,0,1-.15.77,4.26,4.26,0,0,1-.69.15c-1.58,0-3.15.2-4.73.31a41.36,41.36,0,0,0-5.08.7,5.41,5.41,0,0,0-1.95.61c-.32.21-.72.42-.45.93,0,1.23,0,1.31,1.19,1.69a25.47,25.47,0,0,0,5.26,1c1.23.14,2.45.25,3.72.37-.52,3.46-1,6.86-1.53,10.32-.36,0-.68,0-1,0s-.8-.13-1.15.15h-9.71a6.24,6.24,0,0,1-1.22-.13c-.11-.51.36-.79.48-1.22a13.53,13.53,0,0,0,.27-2.18c.15-1.65.34-3.29.49-4.94s.27-3.13.5-4.69c.1-.67.2-1.35.36-2,.4-1.68,1.68-2.37,3.2-2.8,2.05-.58,4.06-1.27,6.07-2A.74.74,0,0,0,238.75,129Z"/><path class="cls-54" d="M237.76,149.4c.35-.28.77-.11,1.15-.15s.63,0,1,0c.51-3.46,1-6.86,1.53-10.32-1.27-.12-2.49-.23-3.72-.37a25.47,25.47,0,0,1-5.26-1c-1.17-.38-1.21-.46-1.19-1.69a21.68,21.68,0,0,0,4.49,1.11c1.59.22,3.19.39,4.78.47,1.82.1,3.63.29,5.44.3,2.83,0,5.66.12,8.49-.08,2-.15,4-.19,5.92-.32a40.71,40.71,0,0,0,5.62-.7,5.53,5.53,0,0,0,2.65-.93c.22,1.26.12,1.47-1.08,1.86a26.33,26.33,0,0,1-5.21,1c-1.28.14-2.57.25-3.9.38.24,1.6.46,3.16.7,4.73.5,3.34,1,6.69,1.52,10,.05.37.13.73.19,1.09l.49,3.18,0,.18a9.32,9.32,0,0,0,.27,1.58,9.19,9.19,0,0,0,.17,1.48c0,.31,0,.61-.39.66s-.51-.19-.58-.51a2.67,2.67,0,0,0-.14-.36.29.29,0,0,0,0-.16l-.33-1.43a4.42,4.42,0,0,0-.26-1.3.21.21,0,0,0,0-.12,21.47,21.47,0,0,0-.65-3.19c0-.13,0-.27,0-.4q-1.31-6.36-2.62-12.73a21.87,21.87,0,0,0-.6-2.65c-1.68.07-3.34,0-5,.18-.06,1.31-.12,2.58-.16,3.84s-.07,2.54-.1,3.81c-.06,2.65-.12,5.29-.17,7.94a28.12,28.12,0,0,0,0,3.18v.8a15,15,0,0,0-.14,2.84c0,.34-.15.57-.49.57a.45.45,0,0,1-.51-.48.81.81,0,0,0,0-.16c0-.18-.08-.36-.11-.54a.29.29,0,0,0,0-.16l0-2.23V158a15.91,15.91,0,0,0-.1-3.16c0-1.77-.05-3.55-.11-5.32-.11-3.17-.17-6.35-.25-9.52,0-.25.08-.53-.17-.77-1.63-.07-3.29-.17-5-.15-.29,1.05-.38,2.1-.6,3.13-.69,3.22-1.42,6.43-2.09,9.66a13.48,13.48,0,0,0-.5,3,1.58,1.58,0,0,0,0,.53,22.93,22.93,0,0,1,.24,2.47c-.28.3-.69.17-1.06.26,0,1-.42,1.85-.39,2.8l0,.12c-.12.12-.12.28-.17.43a.48.48,0,0,1-.59.38c-.33,0-.44-.24-.43-.55,0-.07,0-.15,0-.23a.7.7,0,0,0,0-.14c.22-.89.26-1.81.41-2.72V158a2.39,2.39,0,0,0,.16-1.12,4.36,4.36,0,0,0,.12-2.06Z"/><path class="cls-55" d="M268.65,135.71a5.53,5.53,0,0,1-2.65.93,40.71,40.71,0,0,1-5.62.7c-2,.13-3.95.17-5.92.32-2.83.2-5.66.11-8.49.08-1.81,0-3.62-.2-5.44-.3-1.59-.08-3.19-.25-4.78-.47a21.68,21.68,0,0,1-4.49-1.11c-.27-.51.13-.72.45-.93a5.41,5.41,0,0,1,1.95-.61,41.36,41.36,0,0,1,5.08-.7c1.58-.11,3.15-.29,4.73-.31a4.26,4.26,0,0,0,.69-.15,21,21,0,0,0,2.38,0c.25.52.19,1.17.66,1.6a1.36,1.36,0,0,0,1.34.8h3.08a1.26,1.26,0,0,0,1.2-.75,6.91,6.91,0,0,0,.56-1.64c3.27.08,6.53.28,9.78.67a21.62,21.62,0,0,1,4.63.94C268.22,134.92,268.75,135,268.65,135.71Z"/><path class="cls-56" d="M247.69,129a21.36,21.36,0,0,0-2.17-3,3.67,3.67,0,0,1-.85-3.07.35.35,0,0,1,.52.15,6.07,6.07,0,0,1,.48.82,2.71,2.71,0,0,0,1.64,1.4c-.12-1.06-.79-1.91-.75-2.92a7.54,7.54,0,0,1,.66-2.87c.59.39.59,1,.7,1.49a3.19,3.19,0,0,0,1.2,2.23,7.2,7.2,0,0,1,.72-3.42c.45-1,.32-2.24.93-3.36a3.53,3.53,0,0,1,1.19,2.31,4.91,4.91,0,0,1-.19,2.12,2.7,2.7,0,0,0,.12,1.86,4.62,4.62,0,0,1,.25,1,7.75,7.75,0,0,0,1.47-1.57c.43-.55.55-1.31,1.11-1.86a2.54,2.54,0,0,1,.33,2.1,2.86,2.86,0,0,1-.58,1.29,3.62,3.62,0,0,0-.85,2.6c.7-.06.94-.81,1.52-1,.23.24.13.47.07.69a3.25,3.25,0,0,1-1.22,1.8,5.86,5.86,0,0,0-1.43,1.24l-.15.14-3.89,0A1.82,1.82,0,0,1,247.69,129Z"/><path class="cls-57" d="M247.69,129a1.82,1.82,0,0,0,.83.2l3.89,0a4.68,4.68,0,0,1,0,2.82,3.69,3.69,0,0,1-1.79,2.18,6.82,6.82,0,0,1-3.44.61c-.47-.43-.41-1.08-.66-1.6a12.52,12.52,0,0,1,.38-3.86C247.14,129.08,247.53,129.33,247.69,129Z"/><path class="cls-51" d="M247.2,134.75a6.82,6.82,0,0,0,3.44-.61,3.69,3.69,0,0,0,1.79-2.18,4.68,4.68,0,0,0,0-2.82l.15-.14c.12.24.37.15.65.28a9.7,9.7,0,0,1,.17,3.88,6.91,6.91,0,0,1-.56,1.64,1.26,1.26,0,0,1-1.2.75h-3.08A1.36,1.36,0,0,1,247.2,134.75Z"/><path class="cls-58" d="M200.41,149.22l.48-5.24,8.24.12c4.38.07,8.77.21,13.16-.11,1.26-.09,1.27,0,1.56-1.22,0-.13.08-.25.1-.38l1-4.77a27.82,27.82,0,0,1,1.12-4.09,3.46,3.46,0,0,1,2.49-2.11c1.63-.5,3.27-1,4.91-1.43,1.11-.3,2.2-.67,3.35-.87a18.55,18.55,0,0,1,2-.09.74.74,0,0,1-.55.42c-2,.7-4,1.39-6.07,2-1.52.43-2.8,1.12-3.2,2.8-.16.66-.26,1.34-.36,2-.23,1.56-.35,3.13-.5,4.69s-.34,3.29-.49,4.94a13.53,13.53,0,0,1-.27,2.18c-.12.43-.59.71-.48,1.22l-1.09.15-.16,0h-9.16a5.32,5.32,0,0,1-1.26,0c-.71-.16-1.44,0-2.16-.09a15.16,15.16,0,0,0-2.6.13,11.57,11.57,0,0,1-2.27-.12c-2,0-3.91,0-5.87,0Z"/><path class="cls-51" d="M224.91,137.62l-1,4.77c0,.13-.07.25-.1.38-.29,1.2-.3,1.13-1.56,1.22-4.39.32-8.78.18-13.16.11l-8.24-.12c0-1.25.26-2.48.17-3.72a.29.29,0,0,1,.15-.26,28.25,28.25,0,0,1,10.65-2.55,15,15,0,0,1,4.34,0c.26,0,.52.05.78.05h4.38A20.1,20.1,0,0,1,224.91,137.62Z"/><path class="cls-52" d="M211.86,137.45A28.25,28.25,0,0,0,201.21,140c0-1.31.23-2.61.28-3.92s.26-2.68.22-4l5.23-1.36c1.64-.44,3.32-.68,4.95-1.17a2.08,2.08,0,0,1,.61,0,1,1,0,0,1,.32.88,16.55,16.55,0,0,1-.16,3c-.23,1.21-.44,2.42-.66,3.62A3.36,3.36,0,0,1,211.86,137.45Z"/><path class="cls-54" d="M228.05,149.39c-.28,1.8-.57,3.6-.85,5.39l-.09.17a.3.3,0,0,1-.29-.21,6.26,6.26,0,0,1-.48-2c0-.73-.19-.93-.73-1.09l.08-2.06a.24.24,0,0,0,.05-.14l1.09-.15A6.24,6.24,0,0,0,228.05,149.39Z"/><path class="cls-55" d="M199.43,156.54c.12-.78.48-1.5.54-2.29.1-1.09.23-2.19.34-3.28a.72.72,0,0,1,.59.73,10.91,10.91,0,0,1,.18,1.2c.16.19.37.14.53.2l-.22,1.69a2.11,2.11,0,0,0-.18,1l-.44,2.22,0,.17a1.46,1.46,0,0,1-.6.58c-.56-.05-.72-.41-.7-.91Z"/><path class="cls-54" d="M213,149.24c.72.1,1.45-.07,2.16.09.07,1.83.31,3.65.52,5.47l0,.63a7.49,7.49,0,0,0,.13,1.33c0,.4-.1.68-.5.79a.7.7,0,0,1-.81-.58c-.13-.45-.2-.92-.3-1.38a3.08,3.08,0,0,0-.17-.8c-.28-1.36-.57-2.72-.82-4.09A3.82,3.82,0,0,1,213,149.24Z"/><path class="cls-54" d="M226.69,158l0,.17c-.08.14-.15.28-.24.41a.6.6,0,0,1-.71.19.5.5,0,0,1-.35-.55c0-.87,0-1.74,0-2.6v-.8l.24-3.18c.54.16.69.36.73,1.09a6.26,6.26,0,0,0,.48,2,.3.3,0,0,0,.29.21c0,.32-.19.62-.09,1Z"/><path class="cls-54" d="M201.61,153.1c-.16-.06-.37,0-.53-.2a10.91,10.91,0,0,0-.18-1.2.72.72,0,0,0-.59-.73l.1-1.75,1.85,0Z"/><path class="cls-53" d="M214.1,121.42a29.11,29.11,0,0,1,2.52-5.46c1.38-2.07,10.39-2.86,12.09-2.65s9.5.41,10.12.69a2,2,0,0,1,.9.83l0,3.71-1.35,3.94-11.63,3-10.07-3Z"/><path class="cls-53" d="M201.94,132.05s-5,2.27-5.77,2.45h-.06c-.48,0-.61-.77-.34-1.09a29.65,29.65,0,0,1,5.3-2.28,9,9,0,0,1,2-.31l-.45.63Z"/><path class="cls-58" d="M201.06,144H196c-.12,0-.24.48-.44,1.32s-.31,2.87.25,3.37,4.64.57,4.64.57l1-2.12,0-2.37Z"/></svg>