<svg id="Layer_1" data-name="Layer 1" xmlns="http://www.w3.org/2000/svg" xmlns:xlink="http://www.w3.org/1999/xlink" viewBox="0 0 270 180"><defs><style>.cls-1{fill:none;}.cls-2{clip-path:url(#clip-path);}.cls-3{fill:#f7e2b7;opacity:0.21;}.cls-4{fill:#eddddf;}.cls-5{fill:#fcf0ed;}.cls-6{fill:#e05763;}.cls-7{fill:#ec8286;}.cls-8{fill:#e46168;}.cls-9{fill:#e2535e;}.cls-10{fill:#c73b48;}.cls-11{fill:#fdfdfd;}.cls-12{fill:#f6f0f0;}.cls-13{fill:#ecdadc;}.cls-14{fill:#70829b;}.cls-15{fill:#fff;}.cls-16{fill:#bc8979;}.cls-17{clip-path:url(#clip-path-2);}.cls-18{fill:#172755;}.cls-19{fill:#f3a088;}.cls-20{fill:#f7b690;}.cls-21{fill:#eb9078;}.cls-22{fill:#f7f6f1;}.cls-23{fill:#2e6c9e;}.cls-24{fill:#255882;}.cls-25{fill:#275c87;}.cls-26{fill:#d6956f;}.cls-27{fill:#cad9e8;}.cls-28{fill:#9f9fe6;}.cls-29{fill:#fd5d5d;}.cls-30{fill:#8888d3;}.cls-31{fill:#232b59;}.cls-32{fill:#97c4de;}.cls-33{fill:#5c5b82;}.cls-34{fill:#7285c5;}.cls-35{fill:#fa9b72;}.cls-36{fill:#2a335e;}.cls-37{fill:#c3b6b3;}.cls-38{fill:#f1ae9c;}.cls-39{fill:#d8e9fc;}.cls-40{fill:#faded1;}.cls-41{fill:#d6d2d3;}.cls-42{fill:#dc9380;}.cls-43{fill:#f4cfbd;}.cls-44{fill:#fefefe;}.cls-45{fill:#4f4e76;}.cls-46{fill:#f7d6c8;}.cls-47{fill:#f5af9d;}.cls-48{fill:#cd6257;}.cls-49{fill:#f7ae9b;}.cls-50{fill:#e69a8a;}.cls-51{fill:#fdfefe;}.cls-52{fill:#c44418;}.cls-53{fill:#f6a891;}.cls-54{fill:#f5b9af;}</style><clipPath id="clip-path"><rect class="cls-1" width="270" height="180"/></clipPath><clipPath id="clip-path-2"><rect class="cls-1" x="59.76" y="29.18" width="74.72" height="69.76"/></clipPath></defs><title>tele-consultation-small</title><g class="cls-2"><rect class="cls-3" x="-0.66" y="-0.55" width="271.32" height="181.11"/><rect class="cls-4" x="229.55" y="106.41" width="24.62" height="2.67"/><rect class="cls-5" x="225.32" y="69.62" width="26.32" height="36.94"/><path class="cls-5" d="M251.69,91.31a.73.73,0,0,0-.27.61,8.79,8.79,0,0,0-2.52,6.94,4.7,4.7,0,0,0,1.59,3.4h0l0,.06a.52.52,0,0,0,.11.1l0,.08-.05.24c-.76,1.1-.79,2.44-1.17,3.67a2.35,2.35,0,0,0-1.4.26,2.33,2.33,0,0,1-.11-1.17s.07-.06.07-.07a.89.89,0,0,0-.08-.17,22.5,22.5,0,0,0-.51-4.85l-.06-.66a14.29,14.29,0,0,0-.24-2.06l.11-.21c.61-.21.83-.77,1.11-1.25,2.05-3.53,1.19-8.34-1.17-11.27-.06-.08-.19-.11-.33-.19l-2.48,1.11c-.09-1-.16-2-.26-3a1.29,1.29,0,0,0-.58-1.06,13.08,13.08,0,0,0-4.23-2,1.48,1.48,0,0,0-1.31.1.84.84,0,0,0-.73.47,2.59,2.59,0,0,0-.22,2.4,8.55,8.55,0,0,0,1.77,2.78,4.38,4.38,0,0,1,.89,4.06,3.28,3.28,0,0,0-.17,2,4.17,4.17,0,0,0,.25,1.67c.94,2.59,4.26,5,7,4.5l0,0a13.27,13.27,0,0,0,.36,1.88l.09,1.11c0,.42,0,.83.06,1.24.1,1.42.22,2.85.33,4.27h-1.81a7.26,7.26,0,0,0,0-3.73,7,7,0,0,0-2.46-3.86c-1.79-2.76-4.59-4.15-7.44-5.45a10.78,10.78,0,0,0-2.61-.85,5.38,5.38,0,0,0-.9-.09,1.52,1.52,0,0,0-1.65,2,14,14,0,0,0,2,3.82c.19.34.61.25,1,.27a7.68,7.68,0,0,1,2.7.39,20.15,20.15,0,0,1-1.54,1.53,2.22,2.22,0,0,0-.58,2.79A8,8,0,0,0,236,106a4.84,4.84,0,0,1,.33.46c-2.6,0-5.22-.18-7.8,0-1.47.13-2.85-.21-4.25-.09a2.47,2.47,0,0,1-.17-1.42q0-28.81,0-57.65c0-1.08-.08-2.16-.15-3.24a1,1,0,0,1,.35-.81h27a19.14,19.14,0,0,1,.34,2.59c0,2.53.05,5.06,0,7.58,0,1.21.07,2.41,0,3.61-.29,8.79-.21,17.59-.22,26.38A57.75,57.75,0,0,0,251.69,91.31Z"/><path class="cls-5" d="M194.8,106.34a3.06,3.06,0,0,1-.11-1.24q0-30.21,0-60.41v-.46c0-.89.12-1,1-1h26c.15,0,.29,0,.53.06v63.05Z"/><path class="cls-4" d="M249.32,144.36c0,1.63,0,1.76-2.1,2.4a30.42,30.42,0,0,1-5.44,1.06,38.28,38.28,0,0,1-6.63.45c.3,1.39.57,2.68.89,4q1.68,6.75,3.41,13.52a2.2,2.2,0,0,0,.45,1.13,9.38,9.38,0,0,0,.92,3.68c0,.4-.3.5-.56.63a2.17,2.17,0,0,0-1.26,1.53c-.11.57-.67.92-.71,1.52a11.62,11.62,0,0,0-4.59-1.16c-.08-.61.31-.83.79-.9a8.85,8.85,0,0,0,2.28-1,.62.62,0,0,0,.37-.65,13.87,13.87,0,0,0,2.54-.13c-.5-1.2-.6-2.44-1.15-3.55-.5-2.6-1.33-5.12-2-7.67s-1.32-5-2-7.46a11.74,11.74,0,0,0-1-3.16h-5.17v22h2.75c0,.73-.31,1.14-1.06,1.15a2.83,2.83,0,0,0-.87.14.77.77,0,0,1-1.06-.54c-.14-.46-.35-.85-.93-.76,0-1.22,0-2.45,0-3.66a24.32,24.32,0,0,0-.23-3.41c0-4.54,0-9.09,0-13.63a2.26,2.26,0,0,0-.19-1.34h-4.62c-.46,0-.6.27-.72.71-1.26,4.71-2.59,9.4-3.8,14.12a12.22,12.22,0,0,0-.79,3.53c-.65.64-.45,1.61-.9,2.31l-.93.23c-.06-.88.46-1.66.46-2.53a32.79,32.79,0,0,0,1.1-4.11c1.11-4.44,2.17-8.89,3.37-13.31a2.13,2.13,0,0,0,.07-1,5.29,5.29,0,0,0-1.9-.15,42.84,42.84,0,0,1-10.47-1.73c-1.57-.53-1.59-.56-1.59-2.18a23.79,23.79,0,0,0,2.19,1c3.67,1.08,7.46,1.24,11.24,1.55,2.84.22,5.71-.15,8.57.23a13.15,13.15,0,0,0,3.06-.18c1.75-.16,3.5,0,5.25-.2s3.55-.3,5.33-.49A23.2,23.2,0,0,0,249.32,144.36Z"/><path class="cls-4" d="M254.24,87.94a2.73,2.73,0,0,0,.16-1.35q0-35.78,0-71.55a1.85,1.85,0,0,0-.13-1.13H192V109a1.23,1.23,0,0,0,.85.16H239c.32,0,.71.15.94-.24a16.77,16.77,0,0,1-3.56-2.44l-.06,0h-.57s0,0,0,0h-.62l-2.42,0h-.18c-.51,0-1,0-1.52,0a0,0,0,0,0-.05,0,2.67,2.67,0,0,0-.4,0c-.33,0-.67,0-1,0l-.72,0-.33,0h-.05a10.09,10.09,0,0,1-1.65,0l-.92-.06a11.34,11.34,0,0,0-1.16,0s0,0,0,0l-.44,0a.72.72,0,0,1-.09-.2,1.59,1.59,0,0,1-.07-.2.59.59,0,0,1,0-.14,4.56,4.56,0,0,1,0-.64.93.93,0,0,0,0-.24V92.41c0-1.36,0-2.72,0-4.09h0v-6q0-17.5,0-35c0-1.08-.07-2.16-.14-3.25a.93.93,0,0,1,.36-.79h27a17.38,17.38,0,0,1,.35,2.58c0,2.53.06,5.06,0,7.58,0,1.21.06,2.41,0,3.61-.29,8.79-.2,17.59-.21,26.38a57.55,57.55,0,0,0,.26,7.88c1-.88,1.74-2,2.77-2.79A.4.4,0,0,1,254.24,87.94ZM194.77,16.65h27.39V41.59H194.77Zm27.39,89.69H194.81a2.91,2.91,0,0,1-.12-1.24V44.69c0-.16,0-.31,0-.47,0-.88.1-1,1-1h25.95a4.45,4.45,0,0,1,.52.07Zm2-64.81V16.68h27.15c.23.23.15.55.15.85,0,1.91,0,3.82,0,5.74a7.39,7.39,0,0,0,.18,2.38c.19.59-.17,1.2-.17,1.79,0,1.52-.07,3,.07,4.57a4,4,0,0,1,0,.85v0c0,.3-.05.6-.07.91,0,.15,0,.31,0,.47s0,.24,0,.36c0,.62,0,1.25,0,1.88,0,1.25,0,2.51,0,3.79h0c0,.1,0,.2,0,.3h0v.91Z"/><path class="cls-4" d="M249.32,144.36a23.66,23.66,0,0,1-7.55,1.88c-1.78.18-3.55.31-5.33.48s-3.5,0-5.24.21a13.26,13.26,0,0,1-3.07.17c-2.85-.38-5.73,0-8.57-.23-3.77-.31-7.57-.46-11.24-1.55a21.35,21.35,0,0,1-2.19-1c0-.73.41-1.09,1-1.37a15.38,15.38,0,0,1,4.38-1.14,48.1,48.1,0,0,1,5.05-.65,49.35,49.35,0,0,1,5.7-.29l.45,2.08c0,.55.35.81.8,1a4.31,4.31,0,0,0,1.66.36c1.65,0,3.29,0,4.94,0a7,7,0,0,0,1-.14,1.55,1.55,0,0,0,1.44-1.52c.06-.61.2-1.2.3-1.8,1.86.09,3.73.14,5.58.31,2.1.18,4.21.39,6.29.78a15.15,15.15,0,0,1,3.8,1.08A1.14,1.14,0,0,1,249.32,144.36Z"/><path class="cls-6" d="M219.69,125.06a17.32,17.32,0,0,1-3.63-2.49,4.84,4.84,0,0,0-.33-.46,8,8,0,0,1-1.82-2.74,2.22,2.22,0,0,1,.58-2.79,20.15,20.15,0,0,0,1.54-1.53,7.68,7.68,0,0,0-2.7-.39c-.34,0-.76.07-1-.27a13.77,13.77,0,0,1-2-3.82,1.52,1.52,0,0,1,1.65-2,5.49,5.49,0,0,1,.9.09,10.78,10.78,0,0,1,2.61.85c2.85,1.3,5.65,2.69,7.43,5.45-.44,0-.64.32-.92.58-.5.49-.9,1.13-1.66,1.27a2.49,2.49,0,0,1-.92-.84c-1.06-1.57-2.66-2.59-4-3.92-.14-.15-.3-.38-.56-.11,0,.43.42.61.67.87.8.82,1.76,1.45,2.53,2.31a11.09,11.09,0,0,0,2.26,2.38h0a2.71,2.71,0,0,0,1.15,1.62h0l2.13,4.27a2.41,2.41,0,0,1,.42,1.28c-1.07,1-2.35.79-3.62.61C220.19,125.21,219.94,125.12,219.69,125.06Z"/><path class="cls-7" d="M245.91,114.23a1.73,1.73,0,0,0-.45-.27l0,0a4.66,4.66,0,0,0-2.46-.26,10.71,10.71,0,0,0-1.28.24,21.38,21.38,0,0,0-2.74,1,8,8,0,0,1-4.89,4,4.36,4.36,0,0,1-1,.12l-.36,0-.19,0c-.22.85-.9,1.46-1.15,2.31l-.09.36c-.05.17-.09.33-.13.5s-.08.33-.11.5a4.13,4.13,0,0,0-.07.49,3.8,3.8,0,0,0,.05,1.3,2,2,0,0,0,.14.44,3.33,3.33,0,0,0,.21.48c.46,0,.61-.31.84-.62l.22-.3a10.56,10.56,0,0,1,1-1.4,1.45,1.45,0,0,1,.18-.17,1.93,1.93,0,0,1,.35-.29,2.09,2.09,0,0,1,.14-.3.76.76,0,0,1,.12-.19,1.4,1.4,0,0,1,.12-.18,1.9,1.9,0,0,1,.19-.21s0,0,0,0a1.57,1.57,0,0,1,.33-.3.08.08,0,0,1,.05,0,2.75,2.75,0,0,1,.33-.23c.15-.1.31-.18.47-.27a4.63,4.63,0,0,1-.56.91,2.43,2.43,0,0,1-.26.29,3.06,3.06,0,0,1-.53.42l-.34.17c0,.42-.27.68-.47,1s-.37.53-.56.8l-.15.21-.16.24a3.54,3.54,0,0,0-.19.33c-.06.11-.11.22-.16.33h0a3,3,0,0,0-.12.36c0,.13-.06.26-.08.4,1.38,1.55,3.07,1.32,4.73.76a9.62,9.62,0,0,0,4.4-3.18,2.63,2.63,0,0,0,.43-3.07,3.18,3.18,0,0,1-.51-1.59c.87-.26,1.86-.09,2.54-.66.24-.21.49-.43.71-.65a7.74,7.74,0,0,0,1.41-1.91,4.37,4.37,0,0,0,.23-.49,1.19,1.19,0,0,0,.08-.2A1,1,0,0,0,245.91,114.23Zm-9,5.53a.69.69,0,0,1,.7-.69.71.71,0,0,1,.12-.13c.13.13,0,.13-.08.18a.7.7,0,0,1-.7.69.71.71,0,0,1-.12.13C236.68,119.81,236.84,119.81,236.89,119.76Zm-1,.82,0,.06,0-.06Zm2.19-1.7c0-.5.21-.61.52-.67C238.78,118.68,238.51,118.75,238.11,118.88Zm3-2.06c-.19.39-.6.47-.94.66a2.51,2.51,0,0,1-1,.68c.18-.62.18-.62,1-.91a.84.84,0,0,1,.9-.48c.21-.28.39-.61.91-.59C241.87,116.78,241.47,116.8,241.07,116.82Z"/><path class="cls-8" d="M232.86,140.86c-.1.6-.24,1.19-.3,1.8a1.55,1.55,0,0,1-1.44,1.52,7,7,0,0,1-1,.14c-1.65,0-3.29,0-4.94,0a4.31,4.31,0,0,1-1.66-.36c-.45-.18-.81-.44-.8-1a8.74,8.74,0,0,0,2.3-1.79,21.9,21.9,0,0,0,3.84-4.32c.69-1,1.69-1.85,2.1-3.06l2.85,0C233.69,136.16,233,138.48,232.86,140.86Z"/><path class="cls-8" d="M238.27,102a5.76,5.76,0,0,1,3.66-1.06,1.59,1.59,0,0,1,1.57,2.11,4.12,4.12,0,0,1-1.08,1.86,12.49,12.49,0,0,0-1.49,1.84,5.42,5.42,0,0,0-.86,2.8c0,.83-.12,1.67-.15,2.5,0,.46-.21.74-.66.79a24,24,0,0,1-3.27.43c-.1-1-1-1.43-1.61-2v-.68h0a.39.39,0,0,0,.46-.46h0c.64-.78,1.49-1.42,1.61-2.53h0c.63,0,.69-.54.92-.92h0c.48-.37,1-.69,1.15-1.38h0a7.5,7.5,0,0,0,1.9-2c-.67,0-.82.52-1.2.64A2.11,2.11,0,0,1,238.27,102Z"/><path class="cls-9" d="M231,133.82c-.41,1.21-1.41,2-2.1,3.06A21.9,21.9,0,0,1,225,141.2a8.74,8.74,0,0,1-2.3,1.79l-.45-2.08c-.12-1.86-.57-3.67-.83-5.51-.08-.53-.14-1.05-.17-1.58Z"/><path class="cls-10" d="M231,133.82h-9.69l-.84-.22-.16-2.32c1.59,0,3.09,0,4.6,0,.4,0,.84.17,1.18-.2h.27c.24.41.64.2,1,.24a.56.56,0,0,0,.91,0l1.3-.05.52.06h4.71a5.75,5.75,0,0,1-.13,2.31l-.79.18Z"/><path class="cls-9" d="M234.38,111.28c.65.58,1.51,1,1.61,2l-.77.18c1.33.6,2.6.85,3.72,1.45a8,8,0,0,1-4.89,4c-.53.15-1.05.07-1.56.2a5.49,5.49,0,0,1-1.93-.25l-.31,0,.05-.23c.5,0,.41-.38.41-.68.56-.22.46-.71.47-1.15a1.6,1.6,0,0,0,.69-1.6c.48-.2.52-.71.75-1.08A15.65,15.65,0,0,1,234.38,111.28Z"/><path class="cls-6" d="M238.27,102a2.11,2.11,0,0,0,1,1.92c-.22.47-.86.72-.7,1.37h0a1.29,1.29,0,0,0-1.15,1.38h0a.93.93,0,0,0-.92.92h0c-.71.73-1.56,1.38-1.61,2.53h0c-.32,0-.47.15-.46.46h0l-.45.23q-1.06-.75-2.13-1.47a1.27,1.27,0,0,1-.64-1.31.73.73,0,0,1,.27-.6c1-.89,1.74-2,2.77-2.8a30.32,30.32,0,0,1,3.23-2.28A2.88,2.88,0,0,1,238.27,102Z"/><path class="cls-10" d="M224.07,124.64a2.41,2.41,0,0,0-.42-1.28l-2.13-4.27a.6.6,0,0,1,.53.36,17.07,17.07,0,0,1,1.59,2.87,2.87,2.87,0,0,0,1,1.61c-.17.76.39,1.35.46,2h-.29C224.55,125.53,224.49,125,224.07,124.64Z"/><path class="cls-8" d="M224.77,126h.29a17.51,17.51,0,0,1,1.25,5.08H226Z"/><path class="cls-8" d="M230,131.28l-.52-.06a13.83,13.83,0,0,1,1.89-4.82l.21.27a26.08,26.08,0,0,0-1.43,3.51A2.17,2.17,0,0,0,230,131.28Z"/><path class="cls-9" d="M231.59,126.67l-.21-.27a1.52,1.52,0,0,0,0-.87c.46,0,.61-.31.84-.61a7.9,7.9,0,0,1,1.72-2.18l.06.07c0,.42-.26.68-.46,1a6.25,6.25,0,0,0-1.41,2.68A.38.38,0,0,0,231.59,126.67Z"/><path class="cls-11" d="M235.93,167.45a20,20,0,0,1,7.66,1.94c.19,1.06-.5,1.48-1.32,1.8a25.54,25.54,0,0,1-5.52,1.26c-3,.46-6.09.22-9.12.45-2.85.21-5.67-.07-8.49-.14a38.25,38.25,0,0,1-8.41-1.25,12.76,12.76,0,0,1-1.42-.52c-.5-.19-.94-.46-.92-1.07s.52-.84,1-1a13.08,13.08,0,0,1,1.79-.62,40.11,40.11,0,0,1,9.38-1.18c1.45,0,2.85-.75,4.37-.25C225.42,167.34,233.05,166.84,235.93,167.45Z"/><path class="cls-5" d="M222.16,41.58H194.78V16.65h27.38Z"/><path class="cls-5" d="M224.12,41.52V16.68h27.16c.24.23.14.55.15.84,0,1.92,0,3.83,0,5.74a8.05,8.05,0,0,0,.19,2.39c.19.59-.17,1.2-.17,1.79,0,1.53-.07,3,.07,4.58.08.84-.13,1.73-.09,2.6.13,2.27,0,4.54,0,6.9Z"/><path class="cls-8" d="M222.94,115a6.94,6.94,0,0,1,2.47,3.86,7.37,7.37,0,0,1,0,3.73c-.37.41-.3,1.07-.81,1.39a2.87,2.87,0,0,1-1-1.61,17.07,17.07,0,0,0-1.59-2.87.6.6,0,0,0-.53-.36h0a1.67,1.67,0,0,0-1.15-1.62h0l0-.69c.76-.14,1.16-.78,1.66-1.27C222.3,115.27,222.5,114.94,222.94,115Z"/><path class="cls-10" d="M220.36,116.8l0,.69a11.09,11.09,0,0,1-2.26-2.38c-.77-.86-1.73-1.49-2.53-2.31-.25-.26-.63-.44-.67-.87.26-.27.42,0,.56.11,1.3,1.33,2.9,2.35,4,3.92A2.49,2.49,0,0,0,220.36,116.8Z"/><path class="cls-10" d="M220.38,117.48a1.67,1.67,0,0,1,1.15,1.62A2.71,2.71,0,0,1,220.38,117.48Z"/><path class="cls-12" d="M231.34,125.53a1.52,1.52,0,0,1,0,.87,13.83,13.83,0,0,0-1.89,4.82l-1.3.05a7.66,7.66,0,0,1,.22-2,53.09,53.09,0,0,1,2.15-10.34,5.49,5.49,0,0,0,1.93.25c-.22.85-.91,1.46-1.15,2.31C231,122.83,230.6,124.17,231.34,125.53Z"/><path class="cls-9" d="M233.9,122.74a3.49,3.49,0,0,1,1.75-1.72,3.33,3.33,0,0,1-1.69,1.79Z"/><path class="cls-9" d="M240.13,117.49a2.54,2.54,0,0,1-1,.68c.18-.63.18-.63,1-.92Z"/><path class="cls-6" d="M241,116.78c.21-.3.39-.62.9-.6-.06.6-.46.62-.86.64Z"/><path class="cls-6" d="M240.13,117.49v-.24c.17-.41.52-.47.9-.47l0,0C240.88,117.21,240.47,117.3,240.13,117.49Z"/><path class="cls-9" d="M237.63,119.12a.7.7,0,0,1-.69.69l-.05,0a.71.71,0,0,1,.7-.69Z"/><path class="cls-9" d="M238.11,118.87c0-.49.21-.6.52-.66C238.78,118.68,238.51,118.75,238.11,118.87Z"/><path class="cls-9" d="M237.59,119.07l.12-.13c.13.12,0,.13-.08.18Z"/><path class="cls-9" d="M236.94,119.81l-.12.13c-.14-.12,0-.13.07-.18Z"/><polygon class="cls-9" points="235.88 120.64 235.86 120.57 235.92 120.58 235.88 120.64"/><path class="cls-10" d="M233.94,110.83l.45-.23v.68a15.65,15.65,0,0,0-1.76,2.84c-.23.37-.27.88-.75,1.08h0a2.36,2.36,0,0,1,.36-1.18C232.67,112.88,233.47,111.94,233.94,110.83Z"/><path class="cls-10" d="M238.53,105.31c-.16-.65.48-.9.7-1.37.38-.12.53-.64,1.2-.64A7.5,7.5,0,0,1,238.53,105.31Z"/><path class="cls-10" d="M234.85,110.14c.05-1.15.9-1.8,1.61-2.53C236.34,108.72,235.49,109.36,234.85,110.14Z"/><path class="cls-10" d="M237.38,106.69a1.29,1.29,0,0,1,1.15-1.38C238.42,106,237.86,106.32,237.38,106.69Z"/><path class="cls-10" d="M236.46,107.61a.93.93,0,0,1,.92-.92C237.15,107.07,237.09,107.62,236.46,107.61Z"/><path class="cls-10" d="M234.39,110.6c0-.31.14-.48.46-.46A.39.39,0,0,1,234.39,110.6Z"/><path class="cls-4" d="M224.6,123.93c.51-.32.44-1,.81-1.39h1.81c.08,2.92.1,5.85.06,8.77-.33,0-.73.17-1-.24a17.51,17.51,0,0,0-1.25-5.08C225,125.28,224.43,124.69,224.6,123.93Z"/><path class="cls-8" d="M227.28,131.3c0-2.92,0-5.85-.06-8.77-.12-1.42-.23-2.85-.34-4.27,0-.41,0-.83,0-1.24.21-.1.2-.3.23-.48a23.15,23.15,0,0,1,.51,4.85v.24a2.22,2.22,0,0,0,.11,1.17V130a5.4,5.4,0,0,0,.4-1.69c.22-1.93.69-3.82,1-5.73.38-1.23.41-2.57,1.16-3.68l.31,0a53.09,53.09,0,0,0-2.15,10.34,7.66,7.66,0,0,0-.22,2A.56.56,0,0,1,227.28,131.3Z"/><path class="cls-10" d="M231.87,115.2a1.6,1.6,0,0,1-.69,1.6h0a2.32,2.32,0,0,1,.69-1.61Z"/><path class="cls-10" d="M231.18,116.8c0,.44.09.93-.47,1.15h0a1.32,1.32,0,0,1,.46-1.15Z"/><path class="cls-10" d="M230.71,118c0,.3.09.67-.41.68v-.08a.2.2,0,0,0-.07-.16h0l.47-.45Z"/><path class="cls-9" d="M230.71,118l-.47.45a4.66,4.66,0,0,1-1.59-3.4,8.83,8.83,0,0,1,2.52-7,1.27,1.27,0,0,0,.64,1.31q1.06.72,2.13,1.47c-.47,1.11-1.27,2-1.72,3.18a2.36,2.36,0,0,0-.36,1.18,2.32,2.32,0,0,0-.69,1.61A1.32,1.32,0,0,0,230.71,118Z"/><path class="cls-6" d="M224,102l2.48-1.12c.14.09.27.12.33.2,2.36,2.93,3.22,7.74,1.17,11.27-.29.48-.5,1-1.11,1.25-.08-.08-.22-.15-.23-.23a28.77,28.77,0,0,0-1.66-6.06,4.82,4.82,0,0,0-.93-1.78h0a.29.29,0,0,0-.23-.23h0a1.83,1.83,0,0,0-.33-1.13,2,2,0,0,1-.37-1.14C223.23,102.55,223.68,102.33,224,102Z"/><path class="cls-6" d="M219.16,107.84a3.2,3.2,0,0,1,.17-2,4.4,4.4,0,0,0-.89-4.07A8.41,8.41,0,0,1,216.67,99a2.59,2.59,0,0,1,.21-2.4.85.85,0,0,1,.74-.47c0,.49.4.69.65,1s.74.55.73,1.08c0,.31.15.46.46.45h0c0,.19,0,.38.23.46h0a.29.29,0,0,0,.23.23h0c0,.31.13.47.46.46h0a.28.28,0,0,0,.23.23h0a1,1,0,0,0,.69,1.14h0a1,1,0,0,0,.69.91h0a.64.64,0,0,0,.46.69h0a5.71,5.71,0,0,0,1.38,2.53h0a.3.3,0,0,0,.23.23h0c-.17.69.4,1.2.46,1.84a5.09,5.09,0,0,1-3.06.43A6.52,6.52,0,0,0,219.16,107.84Z"/><path class="cls-9" d="M219.16,107.84a6.52,6.52,0,0,1,2.29,0,5.09,5.09,0,0,0,3.06-.43,23.54,23.54,0,0,1,1.85,6.63c-2.7.49-6-1.91-7-4.5A4.17,4.17,0,0,1,219.16,107.84Z"/><path class="cls-8" d="M219,98.2c0-.53-.45-.74-.73-1.08s-.67-.51-.65-1a1.48,1.48,0,0,1,1.31-.1,13.08,13.08,0,0,1,4.23,2,1.28,1.28,0,0,1,.58,1.05c.09,1,.17,2,.26,3-.32.32-.77.54-.88,1-.22-.1-.4-.29-.68-.26h0c0-.33,0-.69-.46-.69h0c0-.49-.08-.9-.69-.91h0a1.07,1.07,0,0,0-.69-1.14h0a.29.29,0,0,0-.23-.23h0c0-.31-.15-.47-.46-.46h0a.28.28,0,0,0-.23-.23h0c0-.2,0-.38-.23-.46h0A.69.69,0,0,0,219,98.2Z"/><path class="cls-4" d="M229.09,122.54c-.31,1.91-.78,3.8-1,5.73a5.4,5.4,0,0,1-.4,1.69V122.8A2.34,2.34,0,0,1,229.09,122.54Z"/><path class="cls-10" d="M226.36,114a23.54,23.54,0,0,0-1.85-6.63c-.06-.64-.63-1.15-.46-1.84a4.82,4.82,0,0,1,.93,1.78,28.77,28.77,0,0,1,1.66,6.06c0,.08.15.15.23.23l-.11.21-.39.21Z"/><path class="cls-6" d="M226.37,114l.39-.21a14.29,14.29,0,0,1,.24,2.06l-.26,0A15.23,15.23,0,0,1,226.37,114Z"/><path class="cls-9" d="M226.74,115.91l.26,0,.06.66c0,.18,0,.38-.23.48Z"/><path class="cls-8" d="M230.22,118.39a.2.2,0,0,1,.07.16l-.12-.1Z"/><path class="cls-13" d="M227.58,121.63v-.24a.89.89,0,0,1,.08.17Z"/><path class="cls-10" d="M222.44,102.78c.28,0,.46.16.68.26a2,2,0,0,0,.37,1.14,1.83,1.83,0,0,1,.33,1.13A5.71,5.71,0,0,1,222.44,102.78Z"/><path class="cls-10" d="M224.05,105.54a.3.3,0,0,1-.23-.23A.29.29,0,0,1,224.05,105.54Z"/><path class="cls-10" d="M220.61,100a1.07,1.07,0,0,1,.69,1.14A1,1,0,0,1,220.61,100Z"/><path class="cls-10" d="M221.3,101.18c.61,0,.71.42.69.91A1,1,0,0,1,221.3,101.18Z"/><path class="cls-10" d="M222,102.09c.5,0,.46.36.46.69A.64.64,0,0,1,222,102.09Z"/><path class="cls-10" d="M219.92,99.34c.31,0,.46.15.46.46C220.05,99.81,219.91,99.65,219.92,99.34Z"/><path class="cls-10" d="M219,98.2a.69.69,0,0,1,.46.45C219.15,98.66,219,98.51,219,98.2Z"/><path class="cls-10" d="M219.46,98.65c.21.08.23.26.23.46C219.47,99,219.45,98.84,219.46,98.65Z"/><path class="cls-10" d="M219.69,99.11a.28.28,0,0,1,.23.23A.29.29,0,0,1,219.69,99.11Z"/><path class="cls-10" d="M220.38,99.8a.29.29,0,0,1,.23.23A.28.28,0,0,1,220.38,99.8Z"/><rect class="cls-4" x="251.5" y="87.64" width="2.85" height="21.41"/><ellipse class="cls-14" cx="124.53" cy="166.11" rx="73.28" ry="10.69"/><rect class="cls-15" x="59.03" y="20.38" width="67.14" height="119.47"/><path class="cls-16" d="M79.72,83a.68.68,0,0,1,0,.59A.35.35,0,0,1,79.72,83Z"/><path class="cls-16" d="M79.71,87a.68.68,0,0,1,0,.62A.38.38,0,0,1,79.71,87Z"/><path d="M120.79,15.52c-14.24.12-28.47-.45-42.71.17-4.84.21-9.7,0-14.54-.16a5.23,5.23,0,0,0-5,4,27.71,27.71,0,0,0-.29,6.17l0,0-.3,74h0c0,2.89,0,5.77-.06,8.66q0,14.47-.09,29a5.86,5.86,0,0,0,6,6.22c.55,0,1.11,0,1.66,0l22,.1c0-1.34-.55-2.57-.68-3.88-.06-.52-.47-.7-.93-.77-6.76,0-13.52,0-20.28,0a4.75,4.75,0,0,1-4.71-4.66c0-8.7.05-17.4.09-26.1a.94.94,0,0,1,0-.16,37.3,37.3,0,0,1,0-5.07.19.19,0,0,1,0-.28c0-1,0-2-.07-3h0V26.11l.48,0a5,5,0,0,1,5.21-4q8.75,0,17.49,0c11.66.06,23.31.15,35,.19a5.05,5.05,0,0,1,4.44,2.14,3.88,3.88,0,0,1,.7,2.49,87.8,87.8,0,0,0,0,9.32c.18,2.38.13,4.74.16,7.12.86,1.14,1.88.67,2.9.31q.07-10.81.13-21.63C127.4,17.9,125,15.48,120.79,15.52Zm-14.48,3.91H83.68c-.54,0-1.14.12-1.44-.58.13-.87.82-.72,1.4-.73,2,0,4,0,6,0,5.44,0,10.87,0,16.31,0,.62,0,1.37-.26,1.8.61C107.45,19.54,106.85,19.43,106.31,19.43Z"/><path d="M124.24,55.08c-.07,1.34.12,2.68-.08,4a4.27,4.27,0,0,1,0,1.67,7.59,7.59,0,0,1,0,2.33q0,6.48,0,13c0,4.77,0,9.55,0,14.33,0,.55.06,1.1.1,1.65a53,53,0,0,0,2.9-5.28l.09-31.94C126.22,54.76,125.18,54.44,124.24,55.08Z"/><g class="cls-17"><path class="cls-18" d="M99.83,52.79c1-.36,2.71-3.67,3-5.28.57-2.7,1.86-7.94-.31-10.38-2-2.22-10-3.67-12.07,2.28-3.16-.08-1.44,6.06-1.1,8.52.47,3.43,3.25,4.92,4.63,4.53,3-.88,3.41,1.22,5.8.33Z"/></g><g class="cls-17"><path class="cls-19" d="M90.69,47.59A42.87,42.87,0,0,1,89.87,60c-.18,1.13,1.82,3.56,7,3.3,4.15-.2,5.35-2.24,4.68-3.32-1-1.64-1.76-6.57-.93-11.36s-7.14,1.76-10-1Z"/></g><g class="cls-17"><path class="cls-20" d="M90.48,45.46c1.25-.19,1,2.22,1.3,2.24.57,0,.74-3.68.75-5.89,1,.2,6.57.82,9.62-.68.66.66,1.72,10.38,0,13.21a4.8,4.8,0,0,1-3.29,2.18c-4.1.2-6-2.21-6.55-3.39a14.47,14.47,0,0,1-.72-3.52c-1.2.13-1.92-4-1.16-4.15Z"/></g><g class="cls-17"><path class="cls-21" d="M99,56.42a6.61,6.61,0,0,0,1.57-.25.23.23,0,0,0,.16-.29.24.24,0,0,0-.29-.17h0c-2.83.84-6.77-.52-7.81-2.68A8.35,8.35,0,0,1,92,49.82a.32.32,0,0,0-.06-.2.33.33,0,0,0-.23-.11.72.72,0,0,1-.51-.29.23.23,0,0,0-.33,0,.23.23,0,0,0,0,.32,1.21,1.21,0,0,0,.66.43,9.07,9.07,0,0,0,.67,3.27A5.91,5.91,0,0,0,95.69,56a8.66,8.66,0,0,0,3.26.47ZM91.19,47.6a.22.22,0,0,0,.22-.24v0c0-.26-.33-.86-.81-.93a.24.24,0,1,0-.07.47h0c.17,0,.37.35.41.55a.24.24,0,0,0,.25.19Z"/></g><g class="cls-17"><path class="cls-22" d="M115.34,71.63c1.2,1,4.23,20.58,5.17,30,.83,8.33.83,18.53.83,18.53l-16-18.87S105.1,63.06,115.34,71.63Z"/></g><g class="cls-17"><path class="cls-23" d="M101,123.21l-2.42-20.15,27.3,1.61-.27,22Z"/></g><g class="cls-17"><path class="cls-24" d="M113.34,112.41a214.84,214.84,0,0,0,0,38.69c-.2,1.21-.39,2.43-.59,3.64-3.09,18.88-6,35.86-7,40.52-.37,1.78-6,1-6.27-.85-1-7-5.28-21.53-4.46-28,.37-2.89,2.56-8.07,4-11.58,1.82-4.38-6.94-29-.11-48.39,1.85-5.23,14.34,6,14.34,6Z"/></g><g class="cls-17"><path class="cls-25" d="M101,112.06s-8,73-9.49,82.94c-.28,1.8-6.6,1.52-6.94-.27-1.33-6.95-6.4-21.22-5.92-27.74.22-2.91,2.13-8.19,3.41-11.77.66-1.86-.68-7.1-2.06-14-1.95-9.75-.78-22.15,2.62-33.67C84.16,102.23,101,112.06,101,112.06Z"/></g><g class="cls-17"><path class="cls-22" d="M114.17,150.77l-36.69-1.26s3.61-66.65-3.41-79.17c-1.71-3.07,4.31-6.79,10.77-9.23,4.62-1.75,9.94-.66,12.34-.41s4.66-1.1,7.36.21c4.79,2.33,9.33,6.14,10.8,10.72,2.3,7.15-1.17,79.14-1.17,79.14Z"/></g><g class="cls-17"><path class="cls-22" d="M74.17,67.87c-5.62,9-10.6,32.76-9.47,37.2,1,3.73,12.51,8.23,26.6,7.19,2-.15.6-10.8.6-10.8s-12.34-1-12.31-4.19,1-5.56,1-9.23-6.46-20.17-6.46-20.17Z"/></g><g class="cls-17"><path class="cls-19" d="M122.52,127.25c-1,.33-1.53-.94-1.82-.85s-.46,1-.89,1.08a10,10,0,0,1-3.47-.75c-.36-.43-.48-2.58.11-2.83a11.71,11.71,0,0,1,3.19-.56c.33.11.43,1.83.75,1.84.7,0-.06-1.71,1.16-1.58s1.7,3.39,1,3.65Z"/></g><g class="cls-17"><path class="cls-20" d="M100.13,101.59c-.24-.63-1.18-.48-1.9-.25a1.11,1.11,0,0,0,.51-1.33c-.07-.24-1.16.19-2.14.29-.8.09-1.64-.31-2.52.19a10.68,10.68,0,0,0-2.78,2.81l.54,3.86c2.61,2.29,6.55,1.26,7.57.48s1.09-5.07.72-6Z"/></g><g class="cls-17"><path class="cls-26" d="M94.56,102.22a.1.1,0,0,1-.11-.1.1.1,0,0,1,.06-.09,6.63,6.63,0,0,1,1.54-.3,9.07,9.07,0,0,0,1.89-.37.11.11,0,0,1,.14,0,.11.11,0,0,1,0,.14h0a8.89,8.89,0,0,1-2,.38,7.26,7.26,0,0,0-1.46.28Z"/></g><g class="cls-17"><path class="cls-27" d="M91.9,101.7a.25.25,0,0,1-.23-.17c-.23-.65-5.81-1.64-8.49-2.12-3.19-.57-3.65-.68-3.79-.88s-.08-1.43.42-5.51c.21-1.71.43-3.47.58-5a.24.24,0,0,1,.48,0h0c-.15,1.54-.37,3.31-.58,5a46.32,46.32,0,0,0-.5,5.17c.34.14,1.93.42,3.47.69,5.8,1,8.61,1.67,8.87,2.45a.24.24,0,0,1-.15.3l-.08,0ZM79.8,98.28h0Zm9.3,14.41c-3.35,0-9.1-.51-10.07-.65a.24.24,0,0,1-.2-.27h0a.25.25,0,0,1,.27-.21h0c1.77.24,11.14,1,12.09.48.8-.4,1.4-2.69,1.56-3.54a.25.25,0,0,1,.28-.19h0a.25.25,0,0,1,.2.29h0c-.07.33-.67,3.29-1.83,3.87a7.36,7.36,0,0,1-2.3.21Zm27-9.39h0a.25.25,0,0,1-.23-.26h0c0-.15,1.13-14.21.43-21a.25.25,0,0,1,.22-.27h0a.24.24,0,0,1,.26.22c.71,6.88-.41,21-.42,21.13a.25.25,0,0,1-.25.22Z"/></g><g class="cls-17"><path class="cls-28" d="M103,78.28c-3,1.28-4.28,1.82-7.32,0C92.9,76.65,85.42,66,84.84,61.11A49.1,49.1,0,0,1,92,59c1.93-.41,3.77.54,4.89.66,1.42.14,2.82-.62,4.43-.07a26.11,26.11,0,0,1,3.24,1.34A30.81,30.81,0,0,1,103,78.28Z"/></g><g class="cls-17"><path class="cls-29" d="M95.31,61.88s1.89,4,2.37,4.9-2.07,10.16-2.05,11.5a45.6,45.6,0,0,0,5,3.93A35.3,35.3,0,0,0,103,78.28c.23-3.07-3.9-11.16-3.61-12.49s1.5-4.52,1.5-4.52l-2.29-1.63H97.12l-1.81,2.24Z"/></g><g class="cls-17"><path class="cls-30" d="M89.18,56.2c-.88,0-2.45,4-2.31,4.59.21.85,5.61,4.15,7,4.15.41,0,3.29-4.79,4-4.86s2.86,4.27,3.64,4c.51-.17,1.71-2.78,1.6-3.8s-.91-3.34-1.29-3.41-2.72,2.38-4,2.55c-1.44.2-8.22-3.23-8.77-3.23Z"/></g><g class="cls-17"><path class="cls-27" d="M100.35,149a.25.25,0,0,1-.24-.25s0-.05,0-.08c.79-2.24,1.15-14.42,1-34.3-.1-15.76-.49-30.62-.63-31.25-.4-.67-8.4-3.62-11.41-4.73-1.52-.57-2.2-.82-2.34-.9a.31.31,0,0,1-.17-.23c-.06-.31.27-.71,1-1.52.49-.58,1.51-1.79,1.31-2.07s-2.16-.08-3.31.06c-2,.23-2.67.28-2.87-.09a8.12,8.12,0,0,1-.38-1.4c-.46-2-1.32-5.77-2.91-8a.24.24,0,0,1,.06-.33h0a.25.25,0,0,1,.34,0c1.64,2.32,2.52,6.13,3,8.18a11.07,11.07,0,0,0,.32,1.28,11.32,11.32,0,0,0,2.39-.16c2.09-.25,3.39-.37,3.75.13s-.46,1.65-1.32,2.67a8.36,8.36,0,0,0-.83,1.06c.3.13,1.18.45,2.18.82,8.44,3.12,11.5,4.44,11.7,5s.55,15.84.65,31.23c.1,14.17,0,31.69-1,34.63a.25.25,0,0,1-.23.17Zm1.06-66.58a.24.24,0,0,1-.24-.24.24.24,0,0,1,.14-.22c3.08-1.38,6.44-6.76,6.47-7.38a11.67,11.67,0,0,0-1.37-1.4c-1-.95-1.29-1.23-1.31-1.46a.32.32,0,0,1,.1-.22c.18-.17.63-.12,2.28.16A12.87,12.87,0,0,0,110,72c.26-.54,0-4.59-.82-7a.23.23,0,0,1,.15-.31h0a.25.25,0,0,1,.31.15c.75,2.25,1.27,7,.66,7.51-.25.2-.9.13-2.87-.2-.55-.09-1.24-.21-1.64-.25.23.24.64.63,1,.94,1,.9,1.44,1.36,1.52,1.65.21.78-3.7,6.56-6.74,7.92a.18.18,0,0,1-.1,0Z"/></g><g class="cls-17"><path class="cls-31" d="M92.7,84.6a.35.35,0,0,0,.23-.07A.37.37,0,0,0,93,84c-7.19-10-9.45-19.38-5.75-23.8a.37.37,0,0,0-.06-.54.4.4,0,0,0-.55.05c-4,4.77-1.8,14.24,5.71,24.72A.4.4,0,0,0,92.7,84.6Zm12.64.31a.39.39,0,0,0,.39-.29c3.13-12.2,1-20.61-2-24.41a.4.4,0,0,0-.55-.07.36.36,0,0,0-.07.53c2.79,3.5,5,11.81,1.9,23.77a.38.38,0,0,0,.29.46Z"/></g><g class="cls-17"><path class="cls-27" d="M107.55,91h0a.34.34,0,0,0,.31-.35,4.13,4.13,0,0,0-3-3.41A4.85,4.85,0,0,0,99.68,89a.31.31,0,0,0,0,.44h0a.33.33,0,0,0,.47,0,4.15,4.15,0,0,1,4.48-1.53,3.47,3.47,0,0,1,2.54,2.83.34.34,0,0,0,.33.31Z"/></g><g class="cls-17"><path class="cls-31" d="M103.83,98.18a.3.3,0,0,0,.21-.08c1.76-1.65,4.67-7.38,4-10.88a3.18,3.18,0,0,0-1.86-2.52,4,4,0,0,0-3.89.12C100.17,86.17,99,89.87,99,95a.3.3,0,0,0,.59,0c0-4.89,1.1-8.41,3.09-9.66a3.39,3.39,0,0,1,3.32-.07,2.6,2.6,0,0,1,1.51,2.09c.6,3.33-2.18,8.79-3.86,10.37a.28.28,0,0,0,0,.4h0a.34.34,0,0,0,.21.08ZM92.14,85.34a2.24,2.24,0,1,1,2.21,2.19A2.2,2.2,0,0,1,92.14,85.34Zm.6,0a1.64,1.64,0,0,0,3.28,0,1.63,1.63,0,0,0-1.62-1.61A1.61,1.61,0,0,0,92.74,85.35Z"/></g><rect class="cls-1" x="59.76" y="29.18" width="74.72" height="69.76"/><path class="cls-27" d="M99,95.23c-1-.14-.91,2.14-.1,2.11S99.76,95.35,99,95.23Zm5.23,2.45c-.71-.66-2,1.24-1.33,1.66S104.79,98.19,104.24,97.68Z"/><g class="cls-17"><path class="cls-23" d="M102.89,99.1c0-.11.34,0,.3.15S102.86,99.22,102.89,99.1Z"/></g><path class="cls-32" d="M61.13,97.86h63.33v15.93H61.13Z"/><path class="cls-33" d="M118,158.66c-.76.09-.89-.37-.94-1-.12-1.24-.28-2.48-.43-3.72a1.82,1.82,0,0,0-.23-1.31c.29-1-.61-2-.07-3a3.18,3.18,0,0,0,0-.81c-.56-2.37-.56-4.82-1.06-7.19l0-.65c.35-1.16-.22-2.23-.3-3.35l0-1a58.14,58.14,0,0,1,.05-6.33,7,7,0,0,1,1.67-4.15c.23-.29.62-.47.67-.9a1.3,1.3,0,0,0,.33-1.06,28.09,28.09,0,0,1-.59-7.54c.16-3.32,1.95-5.73,5.64-5.43a9.38,9.38,0,0,1,3,.84c3.52,1.58,7,3.2,10.66,4.52,1.21.85,2.23,2.1,4,1.78.35-.06.81.32,1.17.57a3.77,3.77,0,0,0,3.72.75,6,6,0,0,1,1.81-.09.83.83,0,0,0,.54.59c2.34.61,4.6,1.58,7.08,1.42a3.37,3.37,0,0,1-.06,1.48c-.79,2.82-1.38,5.69-2,8.55a27.16,27.16,0,0,1-1.6,5.65c-2,.57-4.05.14-6.08,0-3.81-.23-7.6-.72-11.38-1.23-2.18-.29-4.35-.56-6.66-.64-.57,2.79-1.1,5.48-1.48,8.21l-.07.92-.65.49h-5.24c-.11.18-.28.32-.28.46a68,68,0,0,1-.91,12.82Z"/><path class="cls-34" d="M169,90.26c1.73,1.07,2.08,2.7,1.83,4.55a7.21,7.21,0,0,0-.19,1.46c-.1.13-.26.24-.28.38-.32,2.1-.95,4.13-1.36,6.21-.16.86-.58,1.1-1.34,1-2.45-.16-4.71-1.25-7.13-1.69-.09,3.63-.89,7-1.29,10.32-.09.75-.78.89-1.36,1-2.61.64-5.26,1.16-7.85,1.9-3.12.88-6.06,1-8.73-1.19l-.37-.33a8.36,8.36,0,0,1,.61-2.2,19.8,19.8,0,0,0,.77-4.52c0-.72-.27-1-1-1a6.56,6.56,0,0,1,0-6.26c.82-.49.93-1,.28-1.3a3,3,0,0,0-1-.13h0l-.31-.35a.82.82,0,0,0-.1-.26c-.48-.56-1.24-.84-1.57-1.56,0-.65.65-1.11.6-1.79a12.15,12.15,0,0,0,1.43-2.37,51.16,51.16,0,0,0,2.91-5.28,10.56,10.56,0,0,1,3.79-1.46A.6.6,0,0,0,148,85a3.39,3.39,0,0,0,1.55.35,5.1,5.1,0,0,1,3.39.62l.37,0a1.48,1.48,0,0,0,.66.65,2.27,2.27,0,0,0,1.72.72c.37.56,1.08,0,1.51.49.26.7,0,1.5.4,2.23a4.74,4.74,0,0,0,5.65,2.29A38.18,38.18,0,0,1,169,90.26Z"/><path class="cls-35" d="M183.33,117.91c.16,1.11-.23,2.32.77,3.29.26.25,0,1-.24,1.38a5.7,5.7,0,0,0-.53,2.73c0,3.32-.07,6.65,0,10,0,1.87.39,3.73.36,5.62a44.42,44.42,0,0,1-.58,5.76,9.4,9.4,0,0,0,.24,4.59,4.58,4.58,0,0,1-.68,2.65,23.73,23.73,0,0,1-5.33,6.38c-.76.12-1-.42-1.36-.95-1.4-2.21-1.25-4.7-1.32-7.14a15.17,15.17,0,0,0-.69-5.54,35.08,35.08,0,0,0-2.77-6,15.84,15.84,0,0,1-1.9-4.67c-.68-2.59-.13-5.27-.62-7.9-.65-3.52-1-7.05-5.32-8.19a13.5,13.5,0,0,0-3.21-.68,22.05,22.05,0,0,0-4.45.38l-.09-.39c.93-.94,1.69-2.24,2.81-2.75a22.68,22.68,0,0,1,7-2.25c.7-.07,1.59,0,1.88-.95a18.26,18.26,0,0,1,8.67-2,41,41,0,0,1,5.52,2.72,3.78,3.78,0,0,1,1.2,1.46C183.17,116.24,182.72,117.2,183.33,117.91Z"/><path class="cls-36" d="M169,90.26a38.18,38.18,0,0,0-5.77,2.08,4.74,4.74,0,0,1-5.65-2.29c-.43-.73-.14-1.53-.4-2.23-.43-.46-1.14.07-1.51-.49.56-.26,1.45.45,1.75-.59v-.07a.76.76,0,0,0,.3-.67h0a.8.8,0,0,0,.36-.63v0a.42.42,0,0,0,.3-.35l.29-.4a.71.71,0,0,0,.41-.55l0,0a2.12,2.12,0,0,0,1-1.31v-.06a1.92,1.92,0,0,0,.28-2.39c0-.27-.1-.55.15-.77a7.15,7.15,0,0,0,1.37-1.43c.72-1.16.6-1.73-.44-2.65-.3-.27-.84-.42-.83-1,0-1.93-1.21-3.52-1.29-5.54a4.59,4.59,0,0,1-3.6-1.11c-.4-.28-.83-.69-1.34-.47-1.27.55-2.61,1.09-3.1,2.53a27.21,27.21,0,0,0-1.72,9.24c.05,2.66.42,3.2,2.89,4.17.47.18,1,.28.82,1a1.15,1.15,0,0,0-.34,1.64,5.1,5.1,0,0,0-3.39-.62A3.39,3.39,0,0,1,148,85c-1.56-1.19-1.62-2.79-1.2-4.5a4.81,4.81,0,0,1,.44-1.08,15.28,15.28,0,0,0,1.66-5.53,19.53,19.53,0,0,1,2.57-7.31c2.12-4.07,9.75-6.46,13.57-2a3.08,3.08,0,0,0,.74.66c3.35,1.92,4,5,3.47,8.46a11.2,11.2,0,0,1-2,5.21c-.1.14-.17.29-.26.43a6.84,6.84,0,0,0,0,8.2,2.86,2.86,0,0,0,1,.84A2.14,2.14,0,0,1,169,90.26Z"/><path class="cls-16" d="M170.92,150.31a3.32,3.32,0,0,0-2.36.53q-5.76,3.48-11.58,6.87a4,4,0,0,0-1.65,1.79,26.91,26.91,0,0,0-3,13.07,3.24,3.24,0,0,1-3.7.75,3.75,3.75,0,0,1-.27-2,60.25,60.25,0,0,0-.94-9.4c-.51-2.31-1.42-3-3.68-3.39-5.51-.93-11-1.9-16.52-2.84-.71-.12-1.43-.19-2.15-.28-.24-.57.37-1,.3-1.5.47-.19.75-.74,1.34-.72a33.31,33.31,0,0,1,5.06.71l13.19,2.17a19.13,19.13,0,0,0,7.54.19,5,5,0,0,0,3.81-3,128.41,128.41,0,0,0,7.4-21.21,6.22,6.22,0,0,1,1.64-3.17c.2.05.54.07.53.27,0,1.48.94,2.92.14,4.41-1.91,5.86-4.3,11.53-6.67,17.21a9,9,0,0,0-1.24,3.26A61.37,61.37,0,0,0,171,145.93a3.36,3.36,0,0,1,.68,3.59c.18.16.58.08.47.53C171.8,150.38,171.32,150.18,170.92,150.31Z"/><path class="cls-37" d="M176,111.26a18.26,18.26,0,0,0-8.67,2c-.61-.14-1.34.24-1.9-.52a29.88,29.88,0,0,0,2.24-8.88c.76.07,1.18-.17,1.34-1,.41-2.08,1-4.11,1.36-6.21,0-.14.18-.25.28-.38.74.22,1.47.46,2.21.65,2.87.74,3.93,2.87,4.09,5.53a19.21,19.21,0,0,1-.22,5.61,7.38,7.38,0,0,0,0,1.49Z"/><path class="cls-38" d="M166,133.59c.8-1.49-.16-2.93-.14-4.41,0-.2-.33-.22-.53-.27.17-1.85-.81-3.54-.76-5.38,0-.34-.32-.69-.52-1a4.63,4.63,0,0,0-2.65-1.83c-1.73-.64-3.55-1-5.13.48a1.6,1.6,0,0,1-1.37.41l.81-1.94a22.05,22.05,0,0,1,4.45-.38,13.5,13.5,0,0,1,3.21.68c4.28,1.14,4.67,4.67,5.32,8.19.49,2.63-.06,5.31.62,7.9a15.84,15.84,0,0,0,1.9,4.67,35.08,35.08,0,0,1,2.77,6,15.17,15.17,0,0,1,.69,5.54c.07,2.44-.08,4.93,1.32,7.14.34.53.6,1.07,1.36.95-.53.69-1.11,1.2-2,.64-.23-1.22-1.34-1.93-1.75-3.08-.68-1.89-1.34-3.79-2-5.69-.21-.61-.88-1.05-.65-1.84.4-.13.88.07,1.24-.26.11-.45-.29-.37-.47-.53a3.36,3.36,0,0,0-.68-3.59,7.64,7.64,0,0,0-1.31-4.31c-.82-1.21-1.38-2.58-2.14-3.83S166.83,134.87,166,133.59Z"/><path class="cls-16" d="M107.05,149.32a40.87,40.87,0,0,0,5.58,1.24,3.42,3.42,0,0,1,1.11,1,3.21,3.21,0,0,0,2.61,1.12,1.82,1.82,0,0,1,.23,1.31,17.62,17.62,0,0,0-2-.22,3.59,3.59,0,0,0-3.21,2.7c-.8,2.59-1.51,5.19-2.12,7.83-.48,2.09-1.77,2.7-3.89,1.78C106,160.49,107.14,155,107.05,149.32Z"/><path class="cls-39" d="M125.35,153.92c.07.54-.54.93-.3,1.5a3.06,3.06,0,0,0-1.07,2.9,3.88,3.88,0,0,0-1.32.93c-1.46-.43-2.82-1.3-4.44-.93a68,68,0,0,0,.91-12.82c0-.14.17-.28.28-.46h5.24l.28.27c.33.65-.53,1.31,0,2-.14.63-.26,1.26-.42,1.89A5.87,5.87,0,0,0,125.35,153.92Z"/><path class="cls-39" d="M123.3,164.25a4.42,4.42,0,0,0,1.33,2.59A16,16,0,0,1,126,168.5a5.69,5.69,0,0,0,.15,1.18,3,3,0,0,1-1.21,1c-.54.17-1.41,1.18-1.94,1.28a9.38,9.38,0,0,0-1.24.67,22.49,22.49,0,0,0-3.81,2.26,1.55,1.55,0,0,1-1.24.32,5.43,5.43,0,0,0-4.7-3.4,3.21,3.21,0,0,1,1.64-2,11.07,11.07,0,0,0,3.37-4,1.27,1.27,0,0,1,.69-.66c1.5.26,3,.32,4.22-.77C122.29,164.15,122.82,164.28,123.3,164.25Z"/><path class="cls-40" d="M175.32,160.92c.92.56,1.5.05,2-.64a23.73,23.73,0,0,0,5.33-6.38,4.58,4.58,0,0,0,.68-2.65l1.88,1.48c-.27,1-1.26,2.08-.25,3.22-.67.54-.87-.37-1.37-.28-.33.31.25.71,0,.92-.56.6-.71-.56-1.19-.09-.15.69.82,1.2.4,2-.66.15-.91-.68-1.52-.54,0-.17.08-.4-.21-.45-.15.25,0,.36.2.46,0,.37.09.77-.11,1.09-.35.42-.75-.27-1.18.27s.22,1.44-.22,2.16c-.65.11-.8-.6-1.32-.68-.41.68,0,1.34.08,1.9-.54.47-.92-.07-1.31,0-.5.37-.07,1-.47,1.43-.94-.66-1.24-1.75-1.77-2.67C174.92,161.26,175.11,161,175.32,160.92Z"/><path class="cls-41" d="M176,111.26l.7-1.71a9.89,9.89,0,0,1,5,1.28c1.93,1,2.42,2.16,2,4.33-.18.91-.28,1.83-.42,2.75-.61-.71-.16-1.67-.6-2.47a3.78,3.78,0,0,0-1.2-1.46A41,41,0,0,0,176,111.26Z"/><path class="cls-41" d="M117.72,163.22c.54,0,.78.58,1.38.64a16,16,0,0,0,2.58-2.62c1.32.36,1.61.69,1.63,1.89,0,.37,0,.74,0,1.12-.48,0-1-.1-1.41.24-1.27,1.09-2.72,1-4.22.77Z"/><path class="cls-39" d="M121.69,160.92a1.66,1.66,0,0,1,1-1C123.11,160.85,123.08,160.88,121.69,160.92Z"/><path class="cls-41" d="M154.9,121.57a1.6,1.6,0,0,0,1.37-.41c1.58-1.43,3.4-1.12,5.13-.48a4.63,4.63,0,0,1,2.65,1.83c.2.33.53.68.52,1,0,1.84.93,3.53.76,5.38a6.22,6.22,0,0,0-1.64,3.17,128.41,128.41,0,0,1-7.4,21.21,5,5,0,0,1-3.81,3,19.13,19.13,0,0,1-7.54-.19l-13.19-2.17a33.31,33.31,0,0,0-5.06-.71c0-.53.3-.92.5-1.35a2.63,2.63,0,0,0-.6-3.5,1.4,1.4,0,0,1-.63-1.08c.2-.54.71-.67,1.14-.9,2-1.05,4.19-1.27,6.27-2a16,16,0,0,0,5-2.68,3.4,3.4,0,0,1,2.83-1.09,23.24,23.24,0,0,1,5.11,1.23,8.44,8.44,0,0,0,3.71.4c.7-.8.64-1.78.87-2.67l0-2.3a27.16,27.16,0,0,0,1.6-5.65c.62-2.86,1.21-5.73,2-8.55a3.37,3.37,0,0,0,.06-1.48Z"/><path class="cls-37" d="M111.35,127.29c-.1-2.68.1-5.37-.64-8s-1.69-3.55-4.45-3.66c-.44,0-.88,0-1.32,0,.42-1,1.43-1.29,2.29-1.67a101.25,101.25,0,0,1,14.41-4.65c3.43-.94,6.82-2.06,10.33-2.7.71,0,1,.6,1.47,1a30.46,30.46,0,0,1,2.13,2.5c1.25,1.26,2.53.93,3.81.77,1.08-.13,1.94-1.84,2-3.26,0-.44,0-.88,0-1.32.69,0,1,.25,1,1a19.8,19.8,0,0,1-.77,4.52,8.36,8.36,0,0,0-.61,2.2c-1.88-.82-3.29,0-4.64,1.38v1.25c-3.63-1.32-7.14-2.94-10.66-4.52a9.38,9.38,0,0,0-3-.84c-3.69-.3-5.48,2.11-5.64,5.43a28.09,28.09,0,0,0,.59,7.54,1.3,1.3,0,0,1-.33,1.06c-.74-1.2-.74-1.2-2-.5-.48.28-1,.53-1.46.77s-1.16.65-1.23,1.41l-.65.34Z"/><path class="cls-38" d="M136.31,116.56v-1.25c1.35-1.34,2.76-2.2,4.64-1.38l.37.33c2.67,2.17,5.61,2.07,8.73,1.19,2.59-.74,5.24-1.26,7.85-1.9.58-.14,1.27-.28,1.36-1,.4-3.37,1.2-6.69,1.29-10.32,2.42.44,4.68,1.53,7.13,1.69a29.88,29.88,0,0,1-2.24,8.88c.56.76,1.29.38,1.9.52-.29,1-1.18.88-1.88.95a22.68,22.68,0,0,0-7,2.25c-1.12.51-1.88,1.81-2.81,2.75-2.35,0-4.7,0-7.05.07-.52,0-1.1-.2-1.56.26a6,6,0,0,0-1.81.09,3.77,3.77,0,0,1-3.72-.75c-.36-.25-.82-.63-1.17-.57C138.54,118.66,137.52,117.41,136.31,116.56Z"/><path class="cls-35" d="M151,137.26l0,2.3a17.85,17.85,0,0,1-4.43-.24,18.33,18.33,0,0,0-5.58-.38,6.16,6.16,0,0,0-3.8,1.3,15.16,15.16,0,0,1-4.1,2.67c-1.74.66-3.57,1-5.3,1.76a4.34,4.34,0,0,1-2.79.64l-.28-.27.65-.49.23.15a.78.78,0,0,0-.16-1.07c.38-2.73.91-5.42,1.48-8.21,2.31.08,4.48.35,6.66.64,3.78.51,7.57,1,11.38,1.23C146.92,137.4,149,137.83,151,137.26Z"/><path class="cls-35" d="M112,127.25l.65-.34c.51.07.78-.31,1.13-.57a3.54,3.54,0,0,1,2.31-.94L115,127.07a5.55,5.55,0,0,0-.92,3.59c.21,1.71.15,3.4.23,5.1,0,.42.05.78.56.85l0,1c-.52,1-.23,2-.19,3,0,.24.29.28.49.35l0,.65a3.67,3.67,0,0,0-.18,2.68,27.93,27.93,0,0,1,.58,5.31c-.2,1-.82.77-1.2.25a7.34,7.34,0,0,1-1.53-2.26c-.17-.61-.39-1.29-1.22-1.35V143c.27,0,.58-.15.58-.46a15.53,15.53,0,0,1,.36-3.54.61.61,0,0,0-.33-.69c0-1,0-2,0-3,.29-.77.25-1.39-.7-1.64l-.34-.64c.07-.46-.12-.71-.59-.73-.32-.12-.36-.38-.34-.67.34-1.31.48-2.71,1.59-3.7C112.05,127.78,112,127.46,112,127.25Z"/><path class="cls-34" d="M147,119.57c.46-.46,1-.25,1.56-.26,2.35,0,4.7,0,7.05-.07l.09.39-.81,1.94h-.27c-2.48.16-4.74-.81-7.08-1.42A.83.83,0,0,1,147,119.57Z"/><path class="cls-38" d="M111.7,146.23c.83.06,1,.74,1.22,1.35a7.34,7.34,0,0,0,1.53,2.26c.38.52,1,.8,1.2-.25h.63c-.54,1,.36,2,.07,3a3.21,3.21,0,0,1-2.61-1.12,3.42,3.42,0,0,0-1.11-1C112.4,149.1,111.21,147.85,111.7,146.23Z"/><path class="cls-42" d="M114.88,136.61c-.51-.07-.54-.43-.56-.85-.08-1.7,0-3.39-.23-5.1a5.55,5.55,0,0,1,.92-3.59l1.06-1.67a3.54,3.54,0,0,0-2.31.94c-.35.26-.62.64-1.13.57.07-.76.61-1.11,1.23-1.41s1-.49,1.46-.77c1.21-.7,1.21-.7,2,.5,0,.43-.44.61-.67.9a7,7,0,0,0-1.67,4.15A58.14,58.14,0,0,0,114.88,136.61Z"/><path class="cls-42" d="M116.28,149.6h-.63a27.93,27.93,0,0,0-.58-5.31,3.67,3.67,0,0,1,.18-2.68c.5,2.37.5,4.82,1.06,7.19A3.18,3.18,0,0,1,116.28,149.6Z"/><path class="cls-42" d="M115.22,141c-.2-.07-.49-.11-.49-.35,0-1-.33-2,.19-3C115,138.72,115.57,139.79,115.22,141Z"/><path class="cls-38" d="M125.37,143.63a.78.78,0,0,1,.16,1.07l-.23-.15Z"/><path class="cls-37" d="M140.28,97.93c-1.57.11-1.62.23-2,1.58a20.24,20.24,0,0,1-1.07,2.62c-1.86.06-2.06-1.38-2.58-2.52a3.65,3.65,0,0,1,.64-2.16,13,13,0,0,1,2.7-2.83l1.33,0c.05.68-.59,1.14-.6,1.79C139,97.09,139.8,97.37,140.28,97.93Z"/><path class="cls-37" d="M141.4,100c.08-.63-.38-1-.69-1.43a3,3,0,0,1,1,.13C142.33,99,142.22,99.49,141.4,100Z"/><path class="cls-36" d="M153.18,84.28l0,1.68-.3,0A1.32,1.32,0,0,1,153.18,84.28Z"/><path class="cls-37" d="M140.69,98.54a.29.29,0,0,1-.31-.35Z"/><path class="cls-33" d="M107.74,18.74c-.29.8-.89.69-1.43.69H83.68c-.54,0-1.14.12-1.44-.58.13-.87.82-.72,1.4-.73,2,0,4,0,6,0,5.44,0,10.87,0,16.31,0C106.56,18.13,107.31,17.87,107.74,18.74Z"/><path class="cls-42" d="M112,127.25c0,.21.07.53,0,.63-1.11,1-1.25,2.39-1.59,3.7-.87-.87-.16-1.74,0-2.6a5,5,0,0,1,1-1.69Z"/><path class="cls-38" d="M112.31,138.26a.61.61,0,0,1,.33.69,15.53,15.53,0,0,0-.36,3.54c0,.31-.31.41-.58.46A10.13,10.13,0,0,1,112.31,138.26Z"/><path class="cls-38" d="M111.62,133.62c.95.25,1,.87.7,1.64A3.44,3.44,0,0,1,111.62,133.62Z"/><path class="cls-42" d="M110.69,132.25c.47,0,.66.27.59.73C110.86,132.92,110.62,132.71,110.69,132.25Z"/><path class="cls-37" d="M166,133.59c.83,1.28.75,2.89,1.56,4.2s1.32,2.62,2.14,3.83a7.64,7.64,0,0,1,1.31,4.31,61.37,61.37,0,0,1-12.92,8.13,9,9,0,0,1,1.24-3.26C161.7,145.12,164.09,139.45,166,133.59Z"/><path class="cls-37" d="M126,147.27a1.4,1.4,0,0,0,.63,1.08,2.63,2.63,0,0,1,.6,3.5c-.2.43-.55.82-.5,1.35-.59,0-.87.53-1.34.72a5.87,5.87,0,0,1-.84-4.75c.16-.63.28-1.26.42-1.89A1,1,0,0,0,126,147.27Z"/><path class="cls-43" d="M82.64,103a1.59,1.59,0,0,1,.07.2s-.06.06-.09.08A.19.19,0,0,1,82.64,103Z"/><path class="cls-38" d="M126,147.27a1,1,0,0,1-1,0c-.53-.66.33-1.32,0-2a4.34,4.34,0,0,0,2.79-.64c1.73-.72,3.56-1.1,5.3-1.76a15.16,15.16,0,0,0,4.1-2.67,6.16,6.16,0,0,1,3.8-1.3,18.33,18.33,0,0,1,5.58.38,17.85,17.85,0,0,0,4.43.24c-.23.89-.17,1.87-.87,2.67a8.44,8.44,0,0,1-3.71-.4,23.24,23.24,0,0,0-5.11-1.23,3.4,3.4,0,0,0-2.83,1.09,16,16,0,0,1-5,2.68c-2.08.73-4.31.95-6.27,2C126.67,146.6,126.16,146.73,126,147.27Z"/><path class="cls-44" d="M181.32,157.93c-.2-.1-.35-.21-.2-.46.29.05.17.28.21.45Z"/><path class="cls-45" d="M127.17,135.06s1.63-14.45,1.13-16.26,1,2.12,1,2.12l9.08.67.29.67h3.1l-4.18.36-5,.26-1.87.51-.84,1.5s-.51,5.57-.23,6.19a28.51,28.51,0,0,0,2.54,3l1.86.82-.79.57Z"/><path class="cls-29" d="M178.27,43.27H117.63a1.82,1.82,0,0,0-1.82,1.82v8.48a1.83,1.83,0,0,0,1.82,1.82h28.28a4.71,4.71,0,0,1,2.32,1.71,10.49,10.49,0,0,0,2.83,2.68c.55-1.45.14-2.91.51-4.39h26.7a1.82,1.82,0,0,0,1.82-1.82V45.09A1.81,1.81,0,0,0,178.27,43.27Z"/><path class="cls-39" d="M121.4,161.57a7.36,7.36,0,0,0,2.45-1.62c.32-.35,1.44-4.44,1.79-5.32s1.18-1.09,1-1.43-2.65.61-2.65.61l-1.83,2.94Z"/><path class="cls-37" d="M119.12,163.77a34.07,34.07,0,0,0,3.63-3.35c.61-.88.18-1.38.18-1.38s-2.42-.72-3.19-.83a1.84,1.84,0,0,0-1.27.24s-.32,2.71-.26,2.74.62,2,.68,2A3.09,3.09,0,0,1,119.12,163.77Z"/><path class="cls-37" d="M118.22,158.32c1.62-.37,3,.5,4.44.93v.69a1.66,1.66,0,0,0-1,1,1.13,1.13,0,0,0,0,.32,16,16,0,0,1-2.58,2.62c-.6-.06-.84-.67-1.38-.64-.73-1.56.11-3,.23-4.56Z"/><rect x="84.16" y="139.06" width="21.95" height="4.68"/><path class="cls-41" d="M107.05,149.32a1.34,1.34,0,0,0-.39-.88,8.25,8.25,0,0,1-2.35-4,.77.77,0,0,0-.37-.5c0-1.34-.56-2.57-.69-3.88,0-.52-.46-.7-.92-.77a1.88,1.88,0,0,0,.55-1.86,21.45,21.45,0,0,1-.57-6.13c0-1.86-.17-3.71-.27-5.57-.18-3.19-.38-6.46,1.28-9.43.68.11,1-.74,1.62-.66.44,0,.88,0,1.32,0,2.76.11,3.71,1,4.45,3.66s.54,5.34.64,8a5,5,0,0,0-1,1.69c-.17.86-.88,1.73,0,2.6,0,.29,0,.55.34.67-.07.46.17.67.59.73l.34.64a3.44,3.44,0,0,0,.7,1.64c0,1,0,2,0,3a10.13,10.13,0,0,0-.61,4.69v3.28c-.49,1.62.7,2.87.93,4.33A40.87,40.87,0,0,1,107.05,149.32Z"/><polygon points="127.33 107.66 123.87 108.65 123.78 85.65 127.16 85.7 127.33 107.66"/><path class="cls-46" d="M117.66,91.59c-.1.2-.28.37-.46.23s-.11-.42.13-.57Z"/><path class="cls-47" d="M116,89.28c1,1.66,2.84,3.84,4.69,4.42s2.79-.2,3.75,1.18l7.18,10.18s2.17,3.62,3.83,4.89,2.87,1.84,4.08.91a5.09,5.09,0,0,0,2.1-2.6c.11-.71,1.24-1.18,1.24-1.18s.47-7.15.47-7.29-.06-1.71-.06-1.71l-3-1.65L139.22,96s-1.24,3.29-1.63,4.44a3.29,3.29,0,0,1-.86,1.52s-7.44-7.94-8.13-8.74-.89-2.51-1-3.37a6.1,6.1,0,0,0-2-2.87c-.78-.49-1.3-.83-1.41-.52s.14.74.61,1.32,1,1.66.82,1.88-1.82-.22-2.37-.42A16.38,16.38,0,0,1,119.92,87a6.22,6.22,0,0,0-1.73-1.14c-.26-.09-.92.39-.92.39s-1,.07-1.07.37a1.35,1.35,0,0,1-.39.86c-.23.17-.18.81-.12,1S116,89.28,116,89.28Z"/><path class="cls-48" d="M116,88.15l1.76,1.29.89.64.87.61v.09c-.36-.21-.61-.42-.92-.64l-.87-.66Z"/><path class="cls-48" d="M116.87,86.89l1.67,1.42.85.69a6.47,6.47,0,0,0,.87.64l0,.09a7.66,7.66,0,0,1-.89-.67l-.83-.71Z"/><polygon class="cls-48" points="117.73 86.47 121 88.87 120.95 88.95 117.73 86.47"/><path class="cls-48" d="M121.61,90.85a8.36,8.36,0,0,0,2.77-.17"/><path class="cls-49" d="M152.63,82.7s-.34,2.42-.46,2.74,0,1.25,1.6,1.71,3.44.77,3.67.42,1.2-3,2-3.7a9.51,9.51,0,0,0,1.46-1.56l-.12-1.51-5.41,1.08Z"/><path class="cls-50" d="M152.66,83.06s-.55,1.87-.37,1.92a5.19,5.19,0,0,0,4.22-.67,23.78,23.78,0,0,0,4.3-3l-.29-.74A30.14,30.14,0,0,1,156,82.68C155.1,82.8,152.66,83.06,152.66,83.06Z"/><path class="cls-49" d="M151.58,68.59a29.36,29.36,0,0,0-1.86,8.16c-.06,2.77-.35,5.47,1.84,6s3,1,5.6,0,3-1.55,3-1.55-.13-1.45.34-1.7.57-1.07,1.17-1.53,1.35-1.46.71-2.24a2.45,2.45,0,0,0-1.71-.89c-.28,0-.14-1.78-.17-2.31s-.79-1.49-.79-2.24a19.2,19.2,0,0,0-.17-2,2.82,2.82,0,0,1-1.71,0c-1.2-.54-1.41-1.38-2.6-1.64a3.09,3.09,0,0,0-2.11.41A3.78,3.78,0,0,0,151.58,68.59Z"/><path d="M122.25,52h-.76V46.67h.76Zm3.15-2.39h-3.22V49h3.22Zm-.07-3h.76V52h-.76Z"/><path d="M129.4,52.07a2.32,2.32,0,0,1-1.14-.27,1.94,1.94,0,0,1-.77-.73,2.1,2.1,0,0,1-.27-1.07,2.17,2.17,0,0,1,.26-1.07,1.9,1.9,0,0,1,.73-.73,2,2,0,0,1,1-.27,2.12,2.12,0,0,1,1.05.26,1.89,1.89,0,0,1,.7.73,2.29,2.29,0,0,1,.26,1.1v.11s0,.08,0,.11h-3.45v-.53h3.07l-.3.19a1.36,1.36,0,0,0-.16-.7,1.25,1.25,0,0,0-.46-.48,1.47,1.47,0,0,0-1.37,0,1.21,1.21,0,0,0-.46.49,1.35,1.35,0,0,0-.17.7V50a1.34,1.34,0,0,0,.19.72,1.23,1.23,0,0,0,.52.49,1.59,1.59,0,0,0,.77.18,1.76,1.76,0,0,0,.66-.12,1.55,1.55,0,0,0,.51-.37l.41.47a1.64,1.64,0,0,1-.69.49A2.21,2.21,0,0,1,129.4,52.07Z"/><path d="M132.28,52V46.35H133V52Z"/><path d="M134.41,52V46.35h.74V52Z"/><path d="M138.28,52.07a2.16,2.16,0,0,1-1.08-.27,1.91,1.91,0,0,1-.75-.74,2.17,2.17,0,0,1,0-2.13,2,2,0,0,1,.75-.73,2.14,2.14,0,0,1,1.08-.27,2.18,2.18,0,0,1,1.09.27,2,2,0,0,1,.75.73,2.07,2.07,0,0,1,.27,1.07,2,2,0,0,1-1,1.8A2.18,2.18,0,0,1,138.28,52.07Zm0-.64a1.35,1.35,0,0,0,.7-.18,1.18,1.18,0,0,0,.49-.5,1.76,1.76,0,0,0,0-1.51,1.28,1.28,0,0,0-.49-.49,1.35,1.35,0,0,0-.7-.18,1.31,1.31,0,0,0-.69.18,1.28,1.28,0,0,0-.49.49,1.6,1.6,0,0,0,0,1.51,1.18,1.18,0,0,0,.49.5A1.31,1.31,0,0,0,138.28,51.43Z"/><path d="M143.57,52V46.67h2.26a3.2,3.2,0,0,1,1.51.34,2.5,2.5,0,0,1,1,.94,2.9,2.9,0,0,1,0,2.8,2.64,2.64,0,0,1-1,.94,3.32,3.32,0,0,1-1.51.34Zm.77-.67h1.44a2.41,2.41,0,0,0,1.15-.25,1.86,1.86,0,0,0,.76-.71,2.27,2.27,0,0,0,0-2.11,1.84,1.84,0,0,0-.76-.7,2.41,2.41,0,0,0-1.15-.26h-1.44Z"/><path d="M151.52,52.07a2.16,2.16,0,0,1-1.08-.27,2,2,0,0,1-.76-.74,2.24,2.24,0,0,1,0-2.13,2.1,2.1,0,0,1,.75-.73,2.32,2.32,0,0,1,2.17,0,1.88,1.88,0,0,1,.75.73,2.07,2.07,0,0,1,.27,1.07,2.1,2.1,0,0,1-.27,1.07,2,2,0,0,1-.75.73A2.16,2.16,0,0,1,151.52,52.07Zm0-.64a1.38,1.38,0,0,0,.7-.18,1.18,1.18,0,0,0,.49-.5,1.76,1.76,0,0,0,0-1.51,1.28,1.28,0,0,0-.49-.49,1.45,1.45,0,0,0-1.4,0,1.44,1.44,0,0,0-.49.49,1.67,1.67,0,0,0,0,1.51,1.31,1.31,0,0,0,.49.5A1.38,1.38,0,0,0,151.52,51.43Z"/><path d="M156.41,52.07a2.28,2.28,0,0,1-1.11-.27,2,2,0,0,1-.76-.73,2.1,2.1,0,0,1-.27-1.07,2.07,2.07,0,0,1,.27-1.07,2,2,0,0,1,.76-.73,2.28,2.28,0,0,1,1.11-.27,2.08,2.08,0,0,1,1,.22,1.56,1.56,0,0,1,.67.65l-.56.36a1.18,1.18,0,0,0-.48-.44,1.32,1.32,0,0,0-.62-.15,1.41,1.41,0,0,0-.71.18,1.31,1.31,0,0,0-.5.49A1.55,1.55,0,0,0,155,50a1.49,1.49,0,0,0,.18.75,1.2,1.2,0,0,0,.5.5,1.41,1.41,0,0,0,.71.18,1.44,1.44,0,0,0,.62-.14,1.26,1.26,0,0,0,.48-.44l.56.35a1.61,1.61,0,0,1-.67.65A2.08,2.08,0,0,1,156.41,52.07Z"/><path d="M158.48,48.57V48h2.59v.6Zm2,3.5a1.29,1.29,0,0,1-1-.33,1.23,1.23,0,0,1-.34-.94V47.08h.74v3.69a.73.73,0,0,0,.16.51.64.64,0,0,0,.47.17.84.84,0,0,0,.57-.19l.23.53a1,1,0,0,1-.4.21A1.51,1.51,0,0,1,160.46,52.07Z"/><path d="M163.83,52.07a2.16,2.16,0,0,1-1.08-.27,2,2,0,0,1-.76-.74,2.24,2.24,0,0,1,0-2.13,2.1,2.1,0,0,1,.75-.73,2.32,2.32,0,0,1,2.17,0,1.88,1.88,0,0,1,.75.73,2.07,2.07,0,0,1,.27,1.07,2.1,2.1,0,0,1-.27,1.07,2,2,0,0,1-.75.73A2.16,2.16,0,0,1,163.83,52.07Zm0-.64a1.38,1.38,0,0,0,.7-.18,1.18,1.18,0,0,0,.49-.5,1.76,1.76,0,0,0,0-1.51,1.28,1.28,0,0,0-.49-.49,1.45,1.45,0,0,0-1.4,0,1.44,1.44,0,0,0-.49.49,1.67,1.67,0,0,0,0,1.51,1.31,1.31,0,0,0,.49.5A1.38,1.38,0,0,0,163.83,51.43Z"/><path d="M167,52V48h.71v1.1l-.07-.27a1.27,1.27,0,0,1,.56-.65,2.12,2.12,0,0,1,1-.22v.71H169A1.22,1.22,0,0,0,168,49a1.38,1.38,0,0,0-.34,1v2Z"/><path d="M170.19,52.07a.51.51,0,0,1-.37-.15.5.5,0,0,1-.15-.38.5.5,0,0,1,.15-.37.51.51,0,0,1,.37-.15.45.45,0,0,1,.35.15.5.5,0,0,1,.15.37.5.5,0,0,1-.15.38A.45.45,0,0,1,170.19,52.07Z"/><path d="M171.93,52.07a.5.5,0,0,1-.37-.15.5.5,0,0,1-.15-.38.51.51,0,0,1,.52-.52.49.49,0,0,1,.35.15.5.5,0,0,1,.15.37.5.5,0,0,1-.15.38A.49.49,0,0,1,171.93,52.07Z"/><path d="M173.82,52.07a.52.52,0,0,1-.36-.14.52.52,0,0,1-.14-.35.48.48,0,0,1,.14-.35.52.52,0,0,1,.36-.14.51.51,0,0,1,.36.14.48.48,0,0,1,.13.35.46.46,0,0,1-.49.49Zm-.29-1.74-.14-3.66h.86l-.14,3.66Z"/><path class="cls-37" d="M112.19,171.44a2.09,2.09,0,0,0-.43,2.43,3.89,3.89,0,0,0,2.2,2.37,25.87,25.87,0,0,0,3-.67c.25,0,.66-.61.66-.61l-1.67-2.26Z"/></g><path class="cls-14" d="M14.44,67.24V33.6h29c.34.42.17,1,.18,1.47q0,13.88,0,27.75a22.53,22.53,0,0,0,.15,4.12c-.27.35-.59.28-.89.27-6.66-.13-13.31.32-20,.2-2.37,0-4.74,0-7.11,0A2.4,2.4,0,0,1,14.44,67.24Zm2-2.2H41.42V35.66H16.49Z"/><path class="cls-51" d="M16.49,65V35.66H41.42V65ZM38.27,38.86H19.72c-.46,7.7.48,15.29,0,23.07,6.14,0,12.32,0,18.52,0Z"/><path class="cls-52" d="M38.27,38.86V61.93c-6.2,0-12.38,0-18.52,0,.45-7.78-.49-15.37,0-23.07Zm-2.6,9.55a4.76,4.76,0,0,0-.79-3,2.81,2.81,0,0,0-2.36-1.62,3.26,3.26,0,0,0-3.15,3,5.15,5.15,0,0,0,1.79,4.42,2.52,2.52,0,0,0,4.24-.95A3.81,3.81,0,0,0,35.67,48.41ZM28.05,55.3c-.16-2.23-.74-4.22-3-5.25A2.1,2.1,0,0,0,22,51.48c-.5,1.82.58,5,2.12,6.08a2.54,2.54,0,0,0,2.8.46c1-.54,1.09-1.49,1.13-2.46Zm6.84.8a3.08,3.08,0,0,0-2-3.05,3.07,3.07,0,0,0-3.1,1.21,4.24,4.24,0,0,0-.09,4.68,1.72,1.72,0,0,0,1.53.87A3.76,3.76,0,0,0,34.89,56.1ZM22.78,43a3.75,3.75,0,0,0,.44,2,1.69,1.69,0,0,0,2.66.52,3.67,3.67,0,0,0,.68-4.07,1.91,1.91,0,0,0-3.4-.07A2.49,2.49,0,0,0,22.78,43Zm5.77,4.85A1.58,1.58,0,0,0,27,46.4a1.74,1.74,0,0,0-1.58,1.42,1.77,1.77,0,0,0,1.43,1.46C27.45,49.28,28.54,48.36,28.55,47.85Z"/><path class="cls-53" d="M35.67,48.41a3.81,3.81,0,0,1-.27,1.86,2.52,2.52,0,0,1-4.24.95,5.15,5.15,0,0,1-1.79-4.42,3.26,3.26,0,0,1,3.15-3,2.81,2.81,0,0,1,2.36,1.62A4.76,4.76,0,0,1,35.67,48.41Z"/><path class="cls-54" d="M28.05,55.3v.26c0,1-.1,1.92-1.13,2.46a2.54,2.54,0,0,1-2.8-.46C22.58,56.51,21.5,53.3,22,51.48a2.1,2.1,0,0,1,3.07-1.43C27.31,51.08,27.89,53.07,28.05,55.3Z"/><path class="cls-54" d="M34.89,56.1a3.76,3.76,0,0,1-3.64,3.71,1.72,1.72,0,0,1-1.53-.87,4.24,4.24,0,0,1,.09-4.68,3.07,3.07,0,0,1,3.1-1.21A3.08,3.08,0,0,1,34.89,56.1Z"/><path class="cls-53" d="M22.78,43a2.49,2.49,0,0,1,.38-1.67,1.91,1.91,0,0,1,3.4.07,3.67,3.67,0,0,1-.68,4.07A1.69,1.69,0,0,1,23.22,45,3.75,3.75,0,0,1,22.78,43Z"/><path class="cls-54" d="M28.55,47.85c0,.51-1.1,1.43-1.69,1.43a1.77,1.77,0,0,1-1.43-1.46A1.74,1.74,0,0,1,27,46.4,1.58,1.58,0,0,1,28.55,47.85Z"/></svg>