<svg xmlns="http://www.w3.org/2000/svg" id="doctor-wearing-ppe-kit" viewBox="0 0 649.049 1530.823">
  <path d="M593.054 1001.326h-66.316l-9.657 255.104h87.707l-11.734-255.104z" style="fill:#22376c"></path>
  <path d="M269.194 1472.385s-58.357 1.158-58.357 43.431v14.577s60.814 3.152 72.425-7.598c0 3.51.247 7.598.247 7.598h51.962v-58.15c-37.658 0-66.277.142-66.277.142ZM491.39 1472.385s58.357 1.158 58.357 43.431v14.577s-60.813 3.152-72.426-7.598c0 3.51-.244 7.598-.244 7.598h-51.965v-58.15c37.66 0 66.277.142 66.277.142Z"></path>
  <path d="M89.148 841.094c-7.634-2.46-13.155-133.411 20.906-251.83 24.351-84.659 61-155.424 146.857-193.798 23.167-10.355 90.353-13.877 90.353-13.877h66.038s67.908 2.038 90.353 13.877c88.316 46.583 119.583 241.438 90.671 463.151-18.416 0-17.643-.957-59.14-1.512-4.61 69.96-11.712 192.012-15.614 330.543-6.1 216.53-23.214 284.737-23.214 284.737h-71.334s-27.06-158.393-31.141-253.309c-4.082-94.918-15.924-287.064-15.924-287.064s-6.371 152.873-14.371 288.761c-8 135.887-27.816 251.612-27.816 251.612h-71.336s-30.555-123.469-43.522-525.28c.114.844-7.683-263.341-5.86-320.32-29.342 117.46-42.402 198.486-55.382 208.166-49.816 8.574-62.89 8.604-70.524 6.143Z" style="fill:#86cfec"></path>
  <path d="m380.233 407.17-.033.007-.031-.006Z" style="fill:#136199"></path>
  <path d="M350.196 349.997s-1.676 15.486-3.16 31.592c9.664 21.37 33.133 18.582 33.133 18.582s23.468 2.789 33.133-18.582c-1.485-16.106-3.16-31.592-3.16-31.592Z" style="fill:#f5a257"></path>
  <path d="M378.007 352.097c-131.323 0-119.432-97.817-119.432-97.817s-36.75 2.703-36.75-46.476c0-49.178 36.75-35.125 36.75-35.125V124.04s-1.08-47.015 119.432-47.015h4.324c120.512 0 119.431 47.015 119.431 47.015v48.639s36.75-14.053 36.75 35.125c0 49.18-36.75 46.476-36.75 46.476s6.487 97.817-119.431 97.817Z" style="fill:#f9bf82"></path>
  <path d="M429.887 197.654a12.43 12.43 0 0 0 12.43 12.43 12.43 12.43 0 0 0 12.43-12.43v-9.726a12.429 12.429 0 0 0-12.43-12.428 12.429 12.429 0 0 0-12.43 12.428ZM466.12 158.188s-18.666-9.16-41.727 2.672c-6.617 3.67-10.287-2.947-4.412-6.734 3.393-2.188 23.608-11.88 47.77.088 2.162 1.822.205 4.724-1.631 3.974Z"></path>
  <path d="M512.854 170.835s-6.484-.861-11.888 1.844c-33.063-25.672-38.27-73.588-38.27-73.588s-13.289 5.87-82.527 5.87-83.324-5.87-83.324-5.87-5.208 47.916-38.27 73.588c-5.404-2.705-11.89-1.844-11.89-1.844S224.91 103.192 259.46 62.412c0 0 22.877-50.266 120.709-50.266 168.303 0 132.685 158.689 132.685 158.689Z" style="fill:#8e453c"></path>
  <path d="M330.45 197.654a12.43 12.43 0 0 1-12.43 12.43 12.43 12.43 0 0 1-12.43-12.43v-9.726a12.429 12.429 0 0 1 12.43-12.428 12.429 12.429 0 0 1 12.43 12.428ZM294.218 158.188s18.666-9.16 41.728 2.672c6.615 3.67 10.285-2.947 4.41-6.734-3.392-2.188-23.605-11.88-47.77.088-2.161 1.822-.204 4.724 1.632 3.974Z"></path>
  <path d="M534.303 869.742h57.902c12.76 0 12.623-12.213 12.623-12.213 0-18.6 1.81-22.578-7.797-22.578H536.68c.274 4.117-2.04 26.158-2.376 34.791Z" style="fill:#deebf8"></path>
  <path d="M534.705 869.742s-4.635 40.363-4.635 71.334c5.744 10.965 14.652 9.98 25.045-15.826-1.527 17.855-17.861 37.855-26.451 41.49-1.076 11.365-1.267 24.309-1.267 24.309s24.806-6.334 40.718-26.813c21.926-2.088 40.796-37.066 24.09-94.494Z" style="fill:#10a8cb"></path>
  <path d="M491.169 253.105s-51.505-17.745-107.753-17.745c-56.247 0-114.247 14.412-114.247 14.412s5.333 93.333 111 93.333c104.333 0 111-90 111-90Z" style="fill:#fff"></path>
  <path d="M298.06 384.855c-35.006 0 2.996 69.514 12.43 76.254 7.257 5.186 42.133 17.335 67.413 2.483 25.28 14.852 60.156 2.703 67.414-2.483 9.433-6.74 47.436-76.254 12.43-76.254s13.954-25.504 13.954-25.504 69.811-29.977 69.811-151.547C541.512 7.355 442.43 0 380.96 0c-1.018 0-2.037.044-3.056.107A49.145 49.145 0 0 0 374.847 0c-61.47 0-160.553 7.355-160.553 207.804 0 121.57 69.811 151.547 69.811 151.547s48.96 25.504 13.954 25.504Zm-33.181-149.493c0-88.284 8.795-158.337 109.92-158.337 1.06 0 2.078-.021 3.104-.038 1.026.017 2.044.038 3.104.038 101.126 0 109.92 70.053 109.92 158.337s-42.773 113.171-107.694 113.171c-1.846 0-3.617.045-5.33.123a116.711 116.711 0 0 0-5.33-.123c-64.92 0-107.694-24.887-107.694-113.17Z" style="fill:#86cfec"></path>
  <path d="M377.894 133.105c-51.02 0-91.058-3.93-104.039 22.036-12.981 25.964-10.981 65.092-10.981 65.092s-4.423 28.4 57.455 19.97c35.933-4.228 35.802-30.12 59.84-30.12h-2.21c24.039 0 23.907 25.892 59.84 30.12 61.879 8.43 57.455-19.97 57.455-19.97s2-39.128-10.98-65.092-53.02-22.036-104.04-22.036Z" style="fill:none;stroke:#10a8cb;stroke-miterlimit:10;stroke-width:12px"></path>
  <path d="M377.959 343.105s13.79-48.333 2.21-96.333c-7.081 18.5-7.581 48.167-2.21 96.333Z" style="fill:#86cfec"></path>
  <path d="M253.236 219.473c0 128.712 103 133.505 126.933 132.88 23.933.625 126.932-4.168 126.932-132.88 0-142.301-90.51-151.7-124.93-151.7-.7 0-1.364.013-2.008.034a61.58 61.58 0 0 0-1.997-.035c-34.42 0-124.93 9.4-124.93 151.7Zm16.51 0c0-112.752 57.724-132.045 107.11-132.36 49.493.315 113.735 19.608 113.735 132.36 0 111.814-91.558 117.573-106.341 117.774v-.007s-.371.012-1.035.013c-.63-.001-.979-.013-.979-.013l-.004.009c-15.294-.178-112.485-5.713-112.485-117.776Z" style="fill:#10a8cb"></path>
  <path d="M419.998 1437.594h80.812c9.608 0 10.34 3.978 10.34 22.58 0 0 .135 12.21-12.625 12.21h-76.242c-12.76 0-12.624-12.21-12.624-12.21 0-18.602.731-22.58 10.339-22.58ZM259.332 1437.594h80.812c9.608 0 10.338 3.978 10.338 22.58 0 0 .137 12.21-12.623 12.21h-76.243c-12.759 0-12.624-12.21-12.624-12.21 0-18.602.732-22.58 10.34-22.58Z" style="fill:#deebf8"></path>
  <path d="M465.49 785.77c.112-3.116 11.103-312.375 5.687-397.085l-4.99.318c5.4 84.464-5.582 393.476-5.693 396.58-.044 1.163-4.387 117.065-2.589 194.249 1.795 77.08 2.58 453.969 2.587 457.768l5-.01c-.008-3.799-.792-380.74-2.589-457.875-1.794-77.03 2.543-192.782 2.587-193.946ZM288.403 389.003l-4.99-.318c-2.794 43.695 5.6 393.526 5.686 397.088.044 1.16 4.381 116.913 2.587 193.942-1.797 77.135-2.58 454.076-2.589 457.875l5 .01c.008-3.8.792-380.688 2.587-457.768 1.798-77.184-2.545-193.086-2.588-194.213-.084-3.527-8.473-353.138-5.693-396.616Z" style="fill:#deebf8"></path>
  <path d="M216.047 748.855h321.895v36.782H216.879l-.832-36.782z" style="fill:#10a8cb"></path>
  <path d="M17.55 921.113a19.996 19.996 0 0 0-17.397 22.3l19.395 157.099a20 20 0 0 0 22.3 17.4l236.474-29.197a19.997 19.997 0 0 0 17.398-22.299l-19.395-157.103a19.996 19.996 0 0 0-22.3-17.397Z" style="fill:#22376c"></path>
  <path d="m102.534 874.857 48.041-3.691c12.723-.973 11.653-13.139 11.653-13.139-1.425-18.547-1.063-24.926-15.344-22.627l-45.313 4.637c-13.481.291-13.265 35.574.963 34.82Z" style="fill:#deebf8"></path>
  <path d="M497.92 210.084a2 2 0 0 1 2-2h28a2 2 0 0 1 0 4h-28a2 2 0 0 1-2-2ZM466.353 113.215a2 2 0 0 1-2.55-3.082c.245-.203 24.636-20.537 34.329-39.922A2 2 0 0 1 501.71 72c-10.073 20.145-34.33 40.363-35.357 41.215ZM464.031 314.738a2.003 2.003 0 0 1 2.75.653c.041.065 4.233 6.689 16.855 15.402a2 2 0 1 1-2.273 3.29c-13.418-9.26-17.811-16.307-17.992-16.603a1.998 1.998 0 0 1 .66-2.742ZM491.875 266.9c.158.06 16.082 6.06 30.901 11.495a2 2 0 1 1-1.377 3.755c-14.837-5.44-30.776-11.446-30.936-11.505a2 2 0 0 1 1.412-3.745ZM416.733 336.72a1.992 1.992 0 0 1 2.28 1.672c.358 2.322 3.144 11.587 5.838 20.547 1.274 4.234 2.563 8.522 3.657 12.274a2 2 0 1 1-3.84 1.119 1647.528 1647.528 0 0 0-3.647-12.24c-2.859-9.51-5.56-18.493-5.96-21.09a2 2 0 0 1 1.672-2.281ZM492.056 160.064a2 2 0 0 1-1.775-3.584c.24-.119 24.201-12.051 33.364-21.593a2 2 0 0 1 2.885 2.771c-9.642 10.04-33.464 21.906-34.474 22.406ZM428.057 83.694c.141-.319 14.181-32.221 21.664-51.641a2 2 0 0 1 3.733 1.44c-7.518 19.506-21.595 51.493-21.736 51.814a2 2 0 0 1-1.831 1.194 1.978 1.978 0 0 1-.805-.171 1.998 1.998 0 0 1-1.025-2.636ZM380.169 17.772a2 2 0 0 1 2 2v59.333a2 2 0 0 1-4 0V19.772a2 2 0 0 1 2-2ZM232.417 208.084h28a2 2 0 0 1 0 4h-28a2 2 0 0 1 0-4ZM295.259 113.674a1.991 1.991 0 0 1-1.275-.46c-1.027-.85-25.283-21.069-35.356-41.214a2 2 0 1 1 3.578-1.79c9.692 19.386 34.084 39.72 34.329 39.923a2 2 0 0 1-1.276 3.54ZM276.702 330.793c12.621-8.713 16.813-15.337 16.854-15.402a2 2 0 0 1 3.41 2.09c-.18.295-4.574 7.341-17.992 16.603a2 2 0 1 1-2.272-3.291ZM237.561 278.394a4200.912 4200.912 0 0 0 30.902-11.494 2 2 0 1 1 1.412 3.745c-.16.06-16.1 6.065-30.937 11.505a2 2 0 1 1-1.377-3.755ZM335.486 358.94c2.694-8.96 5.48-18.226 5.838-20.548a2 2 0 0 1 3.953.61c-.4 2.597-3.101 11.58-5.96 21.09-1.27 4.222-2.555 8.499-3.647 12.24a2 2 0 1 1-3.84-1.12c1.094-3.751 2.383-8.04 3.656-12.273ZM270.96 159.16a1.996 1.996 0 0 1-2.679.904c-1.01-.5-24.832-12.367-34.474-22.406a2 2 0 0 1 2.885-2.771c9.163 9.542 33.124 21.474 33.364 21.593a2 2 0 0 1 .905 2.68ZM308.031 30.906a2.002 2.002 0 0 1 2.585 1.147c7.483 19.42 21.523 51.322 21.664 51.641a1.998 1.998 0 0 1-1.024 2.636 1.978 1.978 0 0 1-.805.17 2 2 0 0 1-1.831-1.193c-.142-.32-14.219-32.308-21.736-51.815a2 2 0 0 1 1.147-2.586ZM522.527 465.283a2 2 0 1 0-3.879.979c8.559 33.897 18.645 104.126 18.091 246.199-.331 85.047-4.393 156.455-4.434 157.166a2 2 0 0 0 1.882 2.111c.04.002.078.004.117.004a2.001 2.001 0 0 0 1.996-1.885c.04-.712 4.107-72.21 4.44-157.361.555-142.503-9.598-213.09-18.213-247.213ZM377.959 338.105a5 5 0 0 0-5 5v482.166a5 5 0 0 0 10 0V343.105a5 5 0 0 0-5-5ZM262.722 532.78a2.003 2.003 0 0 0-2.563 1.197c-6.439 17.708-19.676 38.56-28.148 50.982 9.79-29.99 21.907-72.1 28.503-113.927a2 2 0 0 0-3.95-.623c-12.13 76.904-43.055 154.856-43.367 155.634a2 2 0 1 0 3.715 1.484c.117-.293 4.558-11.486 10.709-29.441 2.288-3.063 26.512-35.828 36.298-62.742a2.001 2.001 0 0 0-1.197-2.564Z" style="fill:#10a8cb"></path>
  <path d="M623.41 1238.828a20 20 0 0 1-22.257 17.455l-35.406-4.281a20.001 20.001 0 0 1-17.455-22.256l25.492-210.82a20 20 0 0 1 22.256-17.453l35.408 4.28a20 20 0 0 1 17.454 22.257ZM585.846 1001.326s6.209-79.809-27.791-91.244c-5.476 21.043-7.166 24.49-7.166 24.49s17.214 14.258 12.272 66.754Z" style="fill:#0b7fc2"></path>
  <path d="m18.437 943.644 19 153.5s178-3 240-33.5c-16.5-119.5-26-160.5-26-160.5s-103.047 35.49-233 40.5Z" style="fill:#deebf8"></path>
  <path d="M14.622 967.603h25.723v95.087H14.622z" style="fill:#63a2d8" transform="rotate(-7.037 27.484 1015.146)"></path>
  <path d="M102.534 874.857s-11.05 41.536 8.45 66.66c4.5 1.127 9.166-5.572 6.333-32.722l44.934-5.549s-.206-17.66-9.487-32.38c-27.246 2.226-50.23 3.991-50.23 3.991Z" style="fill:#10a8cb"></path>
  <path d="M95.045 1067.826a5.107 5.107 0 0 1-4.374 5.748 5.106 5.106 0 0 1-5.747-4.375l-13.17-97.02a5.106 5.106 0 0 1 4.374-5.747 5.108 5.108 0 0 1 5.749 4.373ZM130.786 1062.969a5.107 5.107 0 0 1-4.374 5.748 5.106 5.106 0 0 1-5.747-4.375l-13.17-97.022a5.107 5.107 0 0 1 4.374-5.748 5.111 5.111 0 0 1 5.749 4.375ZM166.527 1058.111a5.105 5.105 0 0 1-4.374 5.746 5.105 5.105 0 0 1-5.747-4.373l-13.169-97.021a5.107 5.107 0 0 1 4.373-5.748 5.11 5.11 0 0 1 5.75 4.375ZM202.995 1050.914a5.105 5.105 0 0 1-4.287 5.813 5.103 5.103 0 0 1-5.813-4.286l-14.642-96.808a5.105 5.105 0 0 1 4.284-5.815 5.108 5.108 0 0 1 5.814 4.286ZM239.038 1042.24a5.108 5.108 0 0 1-4.083 5.96 5.107 5.107 0 0 1-5.958-4.085l-17.974-96.246a5.108 5.108 0 0 1 4.083-5.959 5.11 5.11 0 0 1 5.96 4.084Z" style="fill:#0b7fc2"></path>
</svg>
