<svg id="Layer_1" data-name="Layer 1" xmlns="http://www.w3.org/2000/svg" viewBox="0 0 600 400"><defs><style>.cls-1{fill:#e22c2a;}.cls-2{fill:#db2727;}.cls-3,.cls-34,.cls-4{fill:none;}.cls-3{stroke:#000;}.cls-3,.cls-4{stroke-linecap:round;stroke-linejoin:round;stroke-width:0.94px;}.cls-4{stroke:#db2727;}.cls-5{fill:#050505;}.cls-6{fill:#0a0a0a;}.cls-7{fill:#070808;}.cls-8{fill:#db2e2a;}.cls-9{fill:#0f0f10;}.cls-10{fill:#db2d2a;}.cls-11{fill:#db2b29;}.cls-12{fill:#db2f2c;}.cls-13{fill:#ec1c2c;}.cls-13,.cls-33{opacity:0.13;}.cls-14{fill:#e4d4cf;}.cls-15{fill:#7890c0;}.cls-16{fill:#fdfefd;}.cls-17{fill:#c48b70;}.cls-18{fill:#73422e;}.cls-19{fill:#f4e4d1;}.cls-20{fill:#f6a589;}.cls-21{fill:#8ab574;}.cls-22{fill:#eac2b6;}.cls-23{fill:#5e74a2;}.cls-24{fill:#f05d5f;}.cls-25{fill:#eeddd0;}.cls-26{fill:#c2b4cd;}.cls-27{fill:#d8cacf;}.cls-28{fill:#737375;}.cls-29{fill:#828384;}.cls-30,.cls-33{fill:#070707;}.cls-30{opacity:0.36;}.cls-31{fill:#b296b4;}.cls-32{fill:#d2999c;}</style></defs><title>how-our-at-home-geriatric-support-works</title><polygon class="cls-1" points="79.07 205.21 65.32 212.09 82.41 219.67 79.07 205.21"/><path class="cls-1" d="M65.6,228.16a124.22,124.22,0,0,1,4.61-16.06l8.43,3a115.28,115.28,0,0,0-6.34,50.19l-8.92.87A123.06,123.06,0,0,1,65.6,228.16Z"/><polygon class="cls-1" points="192.52 48.39 177.79 43.93 185 61.18 192.52 48.39"/><path class="cls-1" d="M167,55.79a126.14,126.14,0,0,1,14.4-8.49l4,8a115.14,115.14,0,0,0-39.11,32.08l-7.07-5.5A123.3,123.3,0,0,1,167,55.79Z"/><polygon class="cls-1" points="453.57 87.88 454.26 72.52 439.31 83.75 453.57 87.88"/><path class="cls-1" d="M440.09,64.93a124.4,124.4,0,0,1,11.78,11.86l-6.77,5.88a115.09,115.09,0,0,0-40.72-30L408,44.46A122.87,122.87,0,0,1,440.09,64.93Z"/><polygon class="cls-1" points="536.22 264.5 546.36 252.93 527.67 252.36 536.22 264.5"/><path class="cls-1" d="M540,238.15a125.44,125.44,0,0,1,1.78,16.62l-9,.36a117.42,117.42,0,0,0-1.66-15.42,114.5,114.5,0,0,0-11.4-33.44l7.93-4.18A123.25,123.25,0,0,1,540,238.15Z"/><path d="M43.52,338.77a5.86,5.86,0,0,1-1.84-.29,3.92,3.92,0,0,1-1.38-.76l.44-.94a4,4,0,0,0,1.23.7,4.47,4.47,0,0,0,1.55.27,3.27,3.27,0,0,0,1.18-.17,1.39,1.39,0,0,0,.68-.46,1.1,1.1,0,0,0,.21-.66.91.91,0,0,0-.28-.7,2.08,2.08,0,0,0-.73-.43,9.91,9.91,0,0,0-1-.28c-.36-.08-.73-.17-1.09-.28a5.54,5.54,0,0,1-1-.41,2,2,0,0,1-.73-.68,2,2,0,0,1-.28-1.1,2.18,2.18,0,0,1,.35-1.19,2.32,2.32,0,0,1,1-.88,4.36,4.36,0,0,1,1.82-.33,6,6,0,0,1,1.45.19,4.08,4.08,0,0,1,1.25.55l-.4,1a3.9,3.9,0,0,0-1.14-.52,4.32,4.32,0,0,0-1.16-.16,3.17,3.17,0,0,0-1.16.18,1.4,1.4,0,0,0-.67.48,1.13,1.13,0,0,0-.21.67.92.92,0,0,0,.28.71,1.92,1.92,0,0,0,.73.42,9.91,9.91,0,0,0,1,.28l1.09.28a5,5,0,0,1,1,.41,2.1,2.1,0,0,1,.72.67,1.88,1.88,0,0,1,.28,1.08,2.2,2.2,0,0,1-.35,1.19,2.42,2.42,0,0,1-1.07.87A4.47,4.47,0,0,1,43.52,338.77Z"/><path d="M51.12,338.75a3.52,3.52,0,0,1-1.73-.42,3.09,3.09,0,0,1-1.2-1.15,3.33,3.33,0,0,1-.43-1.68,3.28,3.28,0,0,1,.43-1.68,3.09,3.09,0,0,1,1.2-1.15,3.51,3.51,0,0,1,1.73-.41,3.4,3.4,0,0,1,1.55.34,2.49,2.49,0,0,1,1,1l-.88.57a1.85,1.85,0,0,0-.76-.69,2.16,2.16,0,0,0-1-.23,2.3,2.3,0,0,0-1.12.28,2,2,0,0,0-.77.77,2.28,2.28,0,0,0-.29,1.19,2.25,2.25,0,0,0,.29,1.18,2,2,0,0,0,.77.78,2.19,2.19,0,0,0,1.12.28,2.15,2.15,0,0,0,1-.22,2,2,0,0,0,.76-.69l.88.55a2.49,2.49,0,0,1-1,1A3.28,3.28,0,0,1,51.12,338.75Z"/><path d="M58.52,332.26a3,3,0,0,1,1.37.3,2.15,2.15,0,0,1,.93.91,3.24,3.24,0,0,1,.33,1.55v3.66H60v-3.53a1.92,1.92,0,0,0-.45-1.39,1.64,1.64,0,0,0-1.26-.47,2.25,2.25,0,0,0-1.07.24,1.55,1.55,0,0,0-.7.71,2.4,2.4,0,0,0-.25,1.16v3.28H55.12v-8.91h1.15V334l-.23-.45a2.27,2.27,0,0,1,1-1A3.19,3.19,0,0,1,58.52,332.26Z"/><path d="M66.12,338.75a3.7,3.7,0,0,1-1.79-.42,3,3,0,0,1-1.2-1.15,3.33,3.33,0,0,1-.43-1.68,3.27,3.27,0,0,1,.42-1.68,2.93,2.93,0,0,1,1.14-1.15,3.19,3.19,0,0,1,1.63-.41,3.24,3.24,0,0,1,1.64.4,3,3,0,0,1,1.11,1.15,3.64,3.64,0,0,1,.4,1.72,1,1,0,0,1,0,.17c0,.06,0,.12,0,.18H63.6v-.83h4.82l-.47.29a2.17,2.17,0,0,0-.26-1.09,1.86,1.86,0,0,0-.72-.75,2.11,2.11,0,0,0-1.08-.27,2.06,2.06,0,0,0-1.06.27,1.88,1.88,0,0,0-.73.75,2.28,2.28,0,0,0-.27,1.11v.2a2.15,2.15,0,0,0,.3,1.13,2,2,0,0,0,.82.77,2.49,2.49,0,0,0,1.21.28,2.58,2.58,0,0,0,1-.19A2.32,2.32,0,0,0,68,337l.63.75a2.83,2.83,0,0,1-1.07.76A3.7,3.7,0,0,1,66.12,338.75Z"/><path d="M73.26,338.75a3.36,3.36,0,0,1-1.65-.41,3,3,0,0,1-1.14-1.14,3.37,3.37,0,0,1-.42-1.7,3.32,3.32,0,0,1,.42-1.7,3,3,0,0,1,1.14-1.14,3.36,3.36,0,0,1,1.65-.4,3,3,0,0,1,1.46.36,2.62,2.62,0,0,1,1,1.08,3.75,3.75,0,0,1,.39,1.8,3.87,3.87,0,0,1-.37,1.8,2.62,2.62,0,0,1-1,1.08A2.9,2.9,0,0,1,73.26,338.75Zm.1-1a2.07,2.07,0,0,0,1.08-.28,1.93,1.93,0,0,0,.77-.78,2.57,2.57,0,0,0,0-2.37,2,2,0,0,0-.77-.77,2.24,2.24,0,0,0-2.17,0,2,2,0,0,0-.77.77,2.57,2.57,0,0,0,0,2.37,2,2,0,0,0,.77.78A2.08,2.08,0,0,0,73.36,337.74Zm2.17.94V337l.07-1.48L75.48,334v-4.24h1.16v8.91Z"/><path d="M81.49,338.75a3.23,3.23,0,0,1-1.43-.3,2.19,2.19,0,0,1-1-.92,3.15,3.15,0,0,1-.34-1.55v-3.66h1.15v3.52a2,2,0,0,0,.45,1.41,1.68,1.68,0,0,0,1.27.47,2.16,2.16,0,0,0,1-.25,1.58,1.58,0,0,0,.68-.72,2.41,2.41,0,0,0,.25-1.15v-3.28h1.15v6.36h-1.1V337l.19.46a2.28,2.28,0,0,1-.94,1A2.86,2.86,0,0,1,81.49,338.75Z"/><path d="M86.94,338.68v-8.91H88.1v8.91Z"/><path d="M93.12,338.75a3.7,3.7,0,0,1-1.79-.42,3,3,0,0,1-1.2-1.15,3.33,3.33,0,0,1-.43-1.68,3.27,3.27,0,0,1,.42-1.68,2.93,2.93,0,0,1,1.14-1.15,3.19,3.19,0,0,1,1.63-.41,3.27,3.27,0,0,1,1.64.4,3,3,0,0,1,1.11,1.15,3.64,3.64,0,0,1,.4,1.72,1,1,0,0,1,0,.17c0,.06,0,.12,0,.18H90.6v-.83h4.81l-.46.29a2.17,2.17,0,0,0-.26-1.09,1.86,1.86,0,0,0-.72-.75,2.11,2.11,0,0,0-1.08-.27,2.06,2.06,0,0,0-1.06.27,1.88,1.88,0,0,0-.73.75,2.28,2.28,0,0,0-.27,1.11v.2a2.24,2.24,0,0,0,.29,1.13,2,2,0,0,0,.83.77,2.49,2.49,0,0,0,1.21.28,2.58,2.58,0,0,0,1-.19A2.2,2.2,0,0,0,95,337l.64.75a2.83,2.83,0,0,1-1.07.76A3.7,3.7,0,0,1,93.12,338.75Z"/><path d="M102.72,338.75a3,3,0,0,1-1.24-.24,1.83,1.83,0,0,1-.82-.67,1.67,1.67,0,0,1-.29-1,1.76,1.76,0,0,1,.25-.94,1.69,1.69,0,0,1,.8-.67,3.68,3.68,0,0,1,1.51-.25h2v.82h-2a1.73,1.73,0,0,0-1.16.29.94.94,0,0,0-.3.7.89.89,0,0,0,.37.75,1.66,1.66,0,0,0,1,.28,2.22,2.22,0,0,0,1.14-.29,1.62,1.62,0,0,0,.7-.84l.23.79a1.79,1.79,0,0,1-.8.9A2.92,2.92,0,0,1,102.72,338.75Zm2.09-.07v-1.35l-.06-.25v-2.29a1.48,1.48,0,0,0-.43-1.14,1.82,1.82,0,0,0-1.27-.4,3.24,3.24,0,0,0-1.11.19,2.75,2.75,0,0,0-.91.5l-.48-.87a3.55,3.55,0,0,1,1.18-.6,5,5,0,0,1,1.45-.21,2.92,2.92,0,0,1,2,.63,2.47,2.47,0,0,1,.71,1.95v3.84Z"/><path d="M42.27,353.08h-1.2v-8.4h1.2Zm4.93-3.75H42.15v-1H47.2Zm-.11-4.65h1.2v8.4h-1.2Z"/><path d="M53.37,353.15a3.4,3.4,0,0,1-1.7-.42,3.06,3.06,0,0,1-1.18-1.16,3.48,3.48,0,0,1,0-3.35,3.12,3.12,0,0,1,1.17-1.14,3.44,3.44,0,0,1,1.71-.42,3.38,3.38,0,0,1,1.69.41,3,3,0,0,1,1.18,1.15,3.28,3.28,0,0,1,.43,1.68,3.33,3.33,0,0,1-.43,1.68,3.1,3.1,0,0,1-1.18,1.15A3.39,3.39,0,0,1,53.37,353.15Zm0-1a2.17,2.17,0,0,0,1.1-.28,2,2,0,0,0,.76-.78,2.74,2.74,0,0,0,0-2.37,2.08,2.08,0,0,0-.76-.77,2.28,2.28,0,0,0-1.1-.28,2.25,2.25,0,0,0-1.1.28,2.08,2.08,0,0,0-.76.77,2.57,2.57,0,0,0,0,2.37,2,2,0,0,0,.76.78A2.14,2.14,0,0,0,53.37,352.14Z"/><path d="M66.22,346.66a2.92,2.92,0,0,1,1.35.3,2.07,2.07,0,0,1,.92.91,3.24,3.24,0,0,1,.33,1.55v3.66H67.67v-3.53a2,2,0,0,0-.43-1.39,1.54,1.54,0,0,0-1.21-.47,2,2,0,0,0-1,.24,1.59,1.59,0,0,0-.67.71,2.66,2.66,0,0,0-.23,1.16v3.28H63v-3.53a2,2,0,0,0-.43-1.39,1.53,1.53,0,0,0-1.22-.47,2,2,0,0,0-1,.24,1.61,1.61,0,0,0-.68.71,2.53,2.53,0,0,0-.23,1.16v3.28H58.26v-6.36h1.11v1.69l-.18-.43a2.18,2.18,0,0,1,.92-1,3,3,0,0,1,1.45-.34,2.77,2.77,0,0,1,1.58.45,2.17,2.17,0,0,1,.86,1.36l-.47-.19a2.4,2.4,0,0,1,1-1.18A3.1,3.1,0,0,1,66.22,346.66Z"/><path d="M73.78,353.15a3.74,3.74,0,0,1-1.8-.42,3.16,3.16,0,0,1-1.2-1.15,3.33,3.33,0,0,1-.42-1.68,3.37,3.37,0,0,1,.41-1.68,3.07,3.07,0,0,1,1.14-1.15,3.5,3.5,0,0,1,3.27,0,3,3,0,0,1,1.11,1.15,3.52,3.52,0,0,1,.4,1.72v.17c0,.06,0,.12,0,.18H71.26v-.83h4.81l-.47.29a2.07,2.07,0,0,0-.25-1.09,1.88,1.88,0,0,0-.73-.75,2,2,0,0,0-1.07-.27,2.1,2.1,0,0,0-1.07.27,2,2,0,0,0-.73.75,2.27,2.27,0,0,0-.26,1.11v.2a2.14,2.14,0,0,0,.29,1.13,2,2,0,0,0,.82.77,2.51,2.51,0,0,0,1.21.28,2.63,2.63,0,0,0,1-.19,2.2,2.2,0,0,0,.81-.58l.64.75a2.79,2.79,0,0,1-1.08.76A3.64,3.64,0,0,1,73.78,353.15Z"/><path d="M84.11,353.08l-3.7-8.4h1.3l3.4,7.75h-.75l3.42-7.75H89l-3.68,8.4Z"/><path d="M90.34,345.49a.78.78,0,0,1-.56-.21.71.71,0,0,1-.22-.53.7.7,0,0,1,.22-.54.75.75,0,0,1,.56-.22.79.79,0,0,1,.56.21.73.73,0,0,1,.22.52.74.74,0,0,1-.22.55A.73.73,0,0,1,90.34,345.49Zm-.58,7.59v-6.36h1.15v6.36Z"/><path d="M94.93,353.15a5,5,0,0,1-1.5-.22,3.34,3.34,0,0,1-1.12-.53l.48-.91a3.72,3.72,0,0,0,1,.47,4,4,0,0,0,1.23.19,2.17,2.17,0,0,0,1.16-.23.72.72,0,0,0,.35-.63.55.55,0,0,0-.22-.47,1.37,1.37,0,0,0-.57-.25,6.78,6.78,0,0,0-.78-.15,8.17,8.17,0,0,1-.86-.17,3.3,3.3,0,0,1-.8-.29,1.41,1.41,0,0,1-.57-.51,1.56,1.56,0,0,1-.22-.89,1.64,1.64,0,0,1,.32-1,2.14,2.14,0,0,1,.92-.67,3.79,3.79,0,0,1,1.41-.23,5.57,5.57,0,0,1,1.27.15,3.19,3.19,0,0,1,1,.42l-.49.91a2.74,2.74,0,0,0-.9-.39,4.38,4.38,0,0,0-.94-.11,2,2,0,0,0-1.13.25.72.72,0,0,0-.37.63.57.57,0,0,0,.22.49,1.49,1.49,0,0,0,.58.27,7,7,0,0,0,.78.17c.29,0,.58.1.87.16a3.41,3.41,0,0,1,.78.29,1.38,1.38,0,0,1,.8,1.36,1.56,1.56,0,0,1-.33,1,2.15,2.15,0,0,1-.95.65A4,4,0,0,1,94.93,353.15Z"/><path d="M99.7,345.49a.78.78,0,0,1-.56-.21.71.71,0,0,1-.22-.53.7.7,0,0,1,.22-.54.75.75,0,0,1,.56-.22.79.79,0,0,1,.56.21.73.73,0,0,1,.22.52.74.74,0,0,1-.22.55A.73.73,0,0,1,99.7,345.49Zm-.58,7.59v-6.36h1.15v6.36Z"/><path d="M101.56,347.66v-.94h4v.94Zm3.09,5.49a2,2,0,0,1-1.48-.52,1.92,1.92,0,0,1-.53-1.47v-5.84h1.15v5.79a1.12,1.12,0,0,0,.26.79,1,1,0,0,0,.74.28,1.36,1.36,0,0,0,.9-.3l.36.82a1.61,1.61,0,0,1-.63.34A2.81,2.81,0,0,1,104.65,353.15Z"/><path d="M37.55,167.13v-8.4h3.28a4.64,4.64,0,0,1,1.88.35,2.66,2.66,0,0,1,1.2,1,3.14,3.14,0,0,1,0,3.14,2.7,2.7,0,0,1-1.2,1,4.64,4.64,0,0,1-1.88.34H38.21l.54-.55v3.11Zm1.2-3-.54-.59h2.58a2.68,2.68,0,0,0,1.75-.49,1.74,1.74,0,0,0,.59-1.4,1.72,1.72,0,0,0-.59-1.39,2.68,2.68,0,0,0-1.75-.5H38.21l.54-.6Zm4.42,3-2.14-3h1.29l2.16,3Z"/><path d="M48.94,167.2a3.67,3.67,0,0,1-1.79-.42,3,3,0,0,1-1.2-1.15,3.23,3.23,0,0,1-.43-1.68,3.43,3.43,0,0,1,.41-1.68,3,3,0,0,1,1.14-1.14,3.43,3.43,0,0,1,3.27,0,2.83,2.83,0,0,1,1.11,1.14,3.57,3.57,0,0,1,.41,1.73s0,.1,0,.16a.9.9,0,0,1,0,.18H46.42v-.82h4.81l-.47.28a2.09,2.09,0,0,0-.25-1.09,1.92,1.92,0,0,0-.72-.75,2.28,2.28,0,0,0-2.15,0,1.91,1.91,0,0,0-.73.76,2.33,2.33,0,0,0-.26,1.11V164a2.27,2.27,0,0,0,.29,1.14,2.1,2.1,0,0,0,.82.77,2.67,2.67,0,0,0,1.22.27,2.61,2.61,0,0,0,1-.19,2.17,2.17,0,0,0,.81-.57l.64.74a2.81,2.81,0,0,1-1.08.77A3.8,3.8,0,0,1,48.94,167.2Z"/><path d="M56.22,167.2a3.54,3.54,0,0,1-1.73-.42,3,3,0,0,1-1.19-1.15,3.43,3.43,0,0,1,0-3.36,2.91,2.91,0,0,1,1.19-1.14,3.54,3.54,0,0,1,1.73-.42,3.4,3.4,0,0,1,1.55.34,2.46,2.46,0,0,1,1,1l-.88.56a2,2,0,0,0-.76-.69,2.13,2.13,0,0,0-1-.22,2.25,2.25,0,0,0-1.11.27,2.09,2.09,0,0,0-.78.78A2.22,2.22,0,0,0,54,164a2.28,2.28,0,0,0,.29,1.19,2,2,0,0,0,.78.78,2.25,2.25,0,0,0,1.11.27,2.13,2.13,0,0,0,1-.22,2,2,0,0,0,.76-.69l.88.55a2.58,2.58,0,0,1-1,1A3.4,3.4,0,0,1,56.22,167.2Z"/><path d="M63,167.2a3.67,3.67,0,0,1-1.79-.42,3,3,0,0,1-1.2-1.15,3.23,3.23,0,0,1-.43-1.68,3.43,3.43,0,0,1,.41-1.68,3,3,0,0,1,1.14-1.14,3.43,3.43,0,0,1,3.27,0,2.77,2.77,0,0,1,1.11,1.14A3.57,3.57,0,0,1,66,164s0,.1,0,.16a.9.9,0,0,1,0,.18H60.52v-.82h4.81l-.47.28a2.09,2.09,0,0,0-.25-1.09,1.92,1.92,0,0,0-.72-.75,2.28,2.28,0,0,0-2.15,0,1.91,1.91,0,0,0-.73.76,2.33,2.33,0,0,0-.26,1.11V164a2.27,2.27,0,0,0,.29,1.14,2.1,2.1,0,0,0,.82.77,2.67,2.67,0,0,0,1.22.27,2.61,2.61,0,0,0,1-.19,2.17,2.17,0,0,0,.81-.57l.64.74a2.81,2.81,0,0,1-1.08.77A3.8,3.8,0,0,1,63,167.2Z"/><path d="M68.13,159.55a.75.75,0,0,1-.56-.22.69.69,0,0,1-.22-.53.73.73,0,0,1,.22-.54.78.78,0,0,1,.56-.21.79.79,0,0,1,.56.21.75.75,0,0,1,0,1.06A.74.74,0,0,1,68.13,159.55Zm-.58,7.58v-6.36H68.7v6.36Z"/><path d="M72.57,167.13l-2.79-6.36H71l2.48,5.76h-.58l2.52-5.76h1.13l-2.79,6.36Z"/><path d="M80.26,167.2a3.67,3.67,0,0,1-1.79-.42,3,3,0,0,1-1.2-1.15,3.23,3.23,0,0,1-.43-1.68,3.43,3.43,0,0,1,.41-1.68,3,3,0,0,1,1.14-1.14,3.43,3.43,0,0,1,3.27,0,2.77,2.77,0,0,1,1.11,1.14,3.57,3.57,0,0,1,.41,1.73s0,.1,0,.16a.9.9,0,0,1,0,.18H77.74v-.82h4.81l-.47.28a2.09,2.09,0,0,0-.25-1.09,1.88,1.88,0,0,0-.73-.75,2,2,0,0,0-1.07-.27A2.1,2.1,0,0,0,79,162a1.91,1.91,0,0,0-.73.76,2.33,2.33,0,0,0-.26,1.11V164a2.17,2.17,0,0,0,.29,1.14,2.1,2.1,0,0,0,.82.77,2.64,2.64,0,0,0,1.22.27,2.61,2.61,0,0,0,1-.19,2.17,2.17,0,0,0,.81-.57l.64.74a2.81,2.81,0,0,1-1.08.77A3.8,3.8,0,0,1,80.26,167.2Z"/><path d="M88.17,167.13v-8.4h3.27a4.66,4.66,0,0,1,1.89.35,2.66,2.66,0,0,1,1.2,1,3.14,3.14,0,0,1,0,3.14,2.7,2.7,0,0,1-1.2,1,4.49,4.49,0,0,1-1.89.36H88.83l.54-.57v3.11Zm1.2-3-.54-.6h2.58a2.64,2.64,0,0,0,1.74-.49,1.91,1.91,0,0,0,0-2.78,2.64,2.64,0,0,0-1.74-.5H88.83l.54-.6Z"/><path d="M96.43,167.13v-6.36h1.11v1.73l-.11-.43a2,2,0,0,1,.89-1,3.12,3.12,0,0,1,1.53-.35v1.12l-.13,0h-.13a1.94,1.94,0,0,0-1.46.56,2.17,2.17,0,0,0-.54,1.59v3.17Z"/><path d="M104,167.2a3.7,3.7,0,0,1-1.79-.42,3,3,0,0,1-1.2-1.15,3.53,3.53,0,0,1,0-3.36,2.84,2.84,0,0,1,1.14-1.14,3.19,3.19,0,0,1,1.63-.42,3.27,3.27,0,0,1,1.64.41,2.9,2.9,0,0,1,1.11,1.14A3.68,3.68,0,0,1,107,164a1,1,0,0,1,0,.16.9.9,0,0,1,0,.18h-5.41v-.82h4.82l-.47.28a2.2,2.2,0,0,0-.26-1.09,1.86,1.86,0,0,0-.72-.75,2.11,2.11,0,0,0-1.08-.27,2.09,2.09,0,0,0-1.06.27,1.79,1.79,0,0,0-.73.76,2.23,2.23,0,0,0-.27,1.11V164a2.18,2.18,0,0,0,.3,1.14,2,2,0,0,0,.82.77,2.84,2.84,0,0,0,2.23.08,2.29,2.29,0,0,0,.82-.57l.63.74a2.85,2.85,0,0,1-1.07.77A3.89,3.89,0,0,1,104,167.2Z"/><path d="M108.27,164.33v-1h3.23v1Z"/><path d="M115.59,167.13l-3.7-8.4h1.3l3.39,7.75h-.74l3.42-7.75h1.2l-3.69,8.4Z"/><path d="M121.81,159.55a.72.72,0,0,1-.55-.22.7.7,0,0,1-.23-.53.74.74,0,0,1,.23-.54.75.75,0,0,1,.55-.21.78.78,0,0,1,.56.21.68.68,0,0,1,.23.52.77.77,0,0,1-.79.77Zm-.57,7.58v-6.36h1.15v6.36Z"/><path d="M126.41,167.2a5.35,5.35,0,0,1-1.51-.21,3.77,3.77,0,0,1-1.12-.53l.48-.91a3.79,3.79,0,0,0,1,.46,4,4,0,0,0,1.22.2,2.22,2.22,0,0,0,1.16-.23.72.72,0,0,0,.36-.64.56.56,0,0,0-.22-.46,1.37,1.37,0,0,0-.57-.26l-.79-.15c-.28,0-.57-.1-.86-.17a3.21,3.21,0,0,1-.79-.28,1.41,1.41,0,0,1-.79-1.4,1.67,1.67,0,0,1,.32-1,2.08,2.08,0,0,1,.92-.67,4,4,0,0,1,1.41-.23,5.42,5.42,0,0,1,1.26.15,3,3,0,0,1,1,.43l-.49.91a2.89,2.89,0,0,0-.9-.4,4.22,4.22,0,0,0-.93-.11,2.1,2.1,0,0,0-1.13.25.72.72,0,0,0-.37.63.59.59,0,0,0,.22.5,1.65,1.65,0,0,0,.58.27,6.67,6.67,0,0,0,.78.16,8.17,8.17,0,0,1,.86.17,3.68,3.68,0,0,1,.79.28,1.5,1.5,0,0,1,.58.51,1.46,1.46,0,0,1,.22.86,1.49,1.49,0,0,1-.34,1,2.11,2.11,0,0,1-.95.66A4,4,0,0,1,126.41,167.2Z"/><path d="M131.18,159.55a.75.75,0,0,1-.56-.22.7.7,0,0,1-.23-.53.74.74,0,0,1,.23-.54.84.84,0,0,1,1.11,0,.67.67,0,0,1,.22.52.75.75,0,0,1-.21.54A.74.74,0,0,1,131.18,159.55Zm-.58,7.58v-6.36h1.15v6.36Z"/><path d="M133,161.72v-.95h4.06v.95Zm3.1,5.48a2.06,2.06,0,0,1-1.49-.51,2,2,0,0,1-.53-1.48v-5.83h1.16v5.78a1.15,1.15,0,0,0,.25.8,1,1,0,0,0,.74.27,1.36,1.36,0,0,0,.9-.3l.36.83a1.58,1.58,0,0,1-.63.33A2.41,2.41,0,0,1,136.13,167.2Z"/><path d="M51.83,181.53v-8.4H53v8.4Z"/><path d="M58.78,175.11a3,3,0,0,1,1.37.3,2.1,2.1,0,0,1,.93.91,3.15,3.15,0,0,1,.34,1.55v3.66H60.27V178a1.94,1.94,0,0,0-.45-1.39,1.68,1.68,0,0,0-1.27-.47,2.28,2.28,0,0,0-1.07.24,1.71,1.71,0,0,0-.7.71,2.52,2.52,0,0,0-.24,1.16v3.28H55.38v-6.36h1.11v1.72l-.18-.46a2.19,2.19,0,0,1,1-1A3.15,3.15,0,0,1,58.78,175.11Z"/><path d="M65.38,181.6a5.35,5.35,0,0,1-1.51-.21,3.66,3.66,0,0,1-1.12-.53l.48-.91a3.79,3.79,0,0,0,1,.46,4,4,0,0,0,1.22.2,2.22,2.22,0,0,0,1.16-.23.72.72,0,0,0,.36-.64.59.59,0,0,0-.22-.47,1.51,1.51,0,0,0-.57-.25l-.79-.15c-.28,0-.57-.1-.86-.17a3.21,3.21,0,0,1-.79-.28,1.68,1.68,0,0,1-.47-2.41,2.08,2.08,0,0,1,.92-.67,3.93,3.93,0,0,1,1.41-.23,5.49,5.49,0,0,1,1.26.15,3,3,0,0,1,1,.43l-.49.91a2.77,2.77,0,0,0-.9-.4,4.22,4.22,0,0,0-.93-.11,2.1,2.1,0,0,0-1.13.25.72.72,0,0,0-.37.63.59.59,0,0,0,.22.5,1.89,1.89,0,0,0,.57.27,7.33,7.33,0,0,0,.79.16,8.17,8.17,0,0,1,.86.17,3.68,3.68,0,0,1,.79.28,1.56,1.56,0,0,1,.58.5,1.6,1.6,0,0,1,.22.87,1.49,1.49,0,0,1-.34,1,2.11,2.11,0,0,1-1,.66A4.18,4.18,0,0,1,65.38,181.6Z"/><path d="M68.66,176.12v-1h4v1Zm3.09,5.48a2.07,2.07,0,0,1-1.49-.51,2,2,0,0,1-.52-1.48v-5.83h1.15v5.78a1.06,1.06,0,0,0,.26.79.92.92,0,0,0,.73.28,1.36,1.36,0,0,0,.9-.3l.36.83a1.58,1.58,0,0,1-.63.33A2.37,2.37,0,0,1,71.75,181.6Z"/><path d="M74.54,181.53v-6.36h1.1v1.73l-.11-.43a2,2,0,0,1,.89-1,3.16,3.16,0,0,1,1.54-.35v1.12l-.14,0h-.13a2,2,0,0,0-1.46.56,2.17,2.17,0,0,0-.54,1.59v3.17Z"/><path d="M82.13,181.6a3.23,3.23,0,0,1-1.43-.3,2.08,2.08,0,0,1-1-.92,3.15,3.15,0,0,1-.35-1.55v-3.66h1.16v3.53a2,2,0,0,0,.45,1.4,1.67,1.67,0,0,0,1.26.47,2.09,2.09,0,0,0,1-.25,1.64,1.64,0,0,0,.68-.72,2.46,2.46,0,0,0,.24-1.14v-3.29h1.15v6.36H84.29v-1.72l.18.46a2.26,2.26,0,0,1-.93,1A2.78,2.78,0,0,1,82.13,181.6Z"/><path d="M90.35,181.6a3.52,3.52,0,0,1-1.73-.42,3.09,3.09,0,0,1-1.2-1.15,3.5,3.5,0,0,1,0-3.36,3.09,3.09,0,0,1,1.2-1.15,3.62,3.62,0,0,1,1.73-.41,3.32,3.32,0,0,1,1.54.34,2.41,2.41,0,0,1,1,1l-.87.56a2.07,2.07,0,0,0-.76-.69,2.15,2.15,0,0,0-1-.22,2.29,2.29,0,0,0-1.12.27,2.16,2.16,0,0,0-.78.78,2.32,2.32,0,0,0-.29,1.18,2.38,2.38,0,0,0,.29,1.19,2.09,2.09,0,0,0,.78.78,2.29,2.29,0,0,0,1.12.27,2.15,2.15,0,0,0,1-.22,2.07,2.07,0,0,0,.76-.69l.87.55a2.52,2.52,0,0,1-1,1A3.33,3.33,0,0,1,90.35,181.6Z"/><path d="M93.6,176.12v-1h4.06v1Zm3.1,5.48a2.06,2.06,0,0,1-1.49-.51,2,2,0,0,1-.53-1.48v-5.83h1.16v5.78a1.1,1.1,0,0,0,.25.79,1,1,0,0,0,.74.28,1.36,1.36,0,0,0,.9-.3l.36.83a1.65,1.65,0,0,1-.63.33A2.41,2.41,0,0,1,96.7,181.6Z"/><path d="M100.06,174a.75.75,0,0,1-.56-.22.69.69,0,0,1-.22-.53.73.73,0,0,1,.22-.54.78.78,0,0,1,.56-.21.79.79,0,0,1,.56.21.67.67,0,0,1,.22.52.72.72,0,0,1-.22.54A.74.74,0,0,1,100.06,174Zm-.58,7.58v-6.36h1.16v6.36Z"/><path d="M105.56,181.6a3.4,3.4,0,0,1-1.7-.42,3,3,0,0,1-1.18-1.16,3.23,3.23,0,0,1-.44-1.67,3.18,3.18,0,0,1,.44-1.67,3,3,0,0,1,1.17-1.15,3.41,3.41,0,0,1,1.71-.42,3.49,3.49,0,0,1,1.69.41,3.1,3.1,0,0,1,1.18,1.15,3.57,3.57,0,0,1,0,3.36,3.1,3.1,0,0,1-1.18,1.15A3.39,3.39,0,0,1,105.56,181.6Zm0-1a2.2,2.2,0,0,0,1.09-.27,1.93,1.93,0,0,0,.76-.79,2.37,2.37,0,0,0,.28-1.18,2.32,2.32,0,0,0-.28-1.18,2,2,0,0,0-.76-.78,2.15,2.15,0,0,0-3,.78,2.32,2.32,0,0,0-.28,1.18,2.37,2.37,0,0,0,.28,1.18,2.16,2.16,0,0,0,.77.79A2.21,2.21,0,0,0,105.56,180.59Z"/><path d="M113.85,175.11a3,3,0,0,1,1.37.3,2.1,2.1,0,0,1,.93.91,3.26,3.26,0,0,1,.34,1.55v3.66h-1.16V178a1.94,1.94,0,0,0-.45-1.39,1.67,1.67,0,0,0-1.26-.47,2.25,2.25,0,0,0-1.07.24,1.65,1.65,0,0,0-.7.71,2.4,2.4,0,0,0-.25,1.16v3.28h-1.15v-6.36h1.1v1.72l-.18-.46a2.19,2.19,0,0,1,1-1A3.22,3.22,0,0,1,113.85,175.11Z"/><path d="M120.45,181.6a5.35,5.35,0,0,1-1.51-.21,3.54,3.54,0,0,1-1.12-.53l.48-.91a3.79,3.79,0,0,0,1,.46,3.9,3.9,0,0,0,1.22.2,2.25,2.25,0,0,0,1.16-.23.73.73,0,0,0,.35-.64.58.58,0,0,0-.21-.47,1.67,1.67,0,0,0-.57-.25l-.79-.15a8.17,8.17,0,0,1-.86-.17,3.44,3.44,0,0,1-.8-.28,1.51,1.51,0,0,1-.57-.52,1.78,1.78,0,0,1,.11-1.89,2,2,0,0,1,.92-.67,3.93,3.93,0,0,1,1.41-.23,5.55,5.55,0,0,1,1.26.15,3,3,0,0,1,1,.43l-.49.91a2.77,2.77,0,0,0-.9-.4,4.31,4.31,0,0,0-.94-.11,2.13,2.13,0,0,0-1.13.25.74.74,0,0,0-.37.63.62.62,0,0,0,.22.5,1.84,1.84,0,0,0,.58.27,7.33,7.33,0,0,0,.79.16c.28,0,.57.1.86.17a3.68,3.68,0,0,1,.79.28,1.61,1.61,0,0,1,.57.5,1.52,1.52,0,0,1,.22.87,1.54,1.54,0,0,1-.33,1,2.16,2.16,0,0,1-1,.66A4.22,4.22,0,0,1,120.45,181.6Z"/><path d="M233.28,68.59a4.84,4.84,0,0,1-1.77-.32,4,4,0,0,1-1.4-.9,4.12,4.12,0,0,1-.93-1.36,4.35,4.35,0,0,1,.93-4.8,4.48,4.48,0,0,1,1.41-.9,5.14,5.14,0,0,1,3.57,0,3.68,3.68,0,0,1,1.39,1l-.78.76a3,3,0,0,0-1.08-.75,3.39,3.39,0,0,0-1.28-.25,3.51,3.51,0,0,0-1.31.24A3,3,0,0,0,231,62a2.88,2.88,0,0,0-.69,1,3.26,3.26,0,0,0-.25,1.29,3.19,3.19,0,0,0,.25,1.29,2.92,2.92,0,0,0,.69,1,3,3,0,0,0,1.05.67,3.51,3.51,0,0,0,1.31.24,3.21,3.21,0,0,0,1.28-.25,2.92,2.92,0,0,0,1.08-.76l.78.76a3.7,3.7,0,0,1-1.39,1A4.63,4.63,0,0,1,233.28,68.59Z"/><path d="M238,68.49v-8.9h1.15v8.9Z"/><path d="M242,60.91a.75.75,0,0,1-.56-.22.69.69,0,0,1-.22-.53.73.73,0,0,1,.22-.54.78.78,0,0,1,.56-.21.75.75,0,0,1,.55.21.68.68,0,0,1,.23.52.78.78,0,0,1-.22.55A.77.77,0,0,1,242,60.91Zm-.58,7.58V62.13h1.15v6.36Z"/><path d="M248.12,62.07a3,3,0,0,1,1.38.3,2.26,2.26,0,0,1,.93.91,3.26,3.26,0,0,1,.33,1.55v3.66h-1.15V65a1.94,1.94,0,0,0-.45-1.39,1.67,1.67,0,0,0-1.26-.47,2.25,2.25,0,0,0-1.07.24,1.6,1.6,0,0,0-.7.71,2.41,2.41,0,0,0-.25,1.17v3.27h-1.15V62.13h1.1v1.72l-.18-.46a2.25,2.25,0,0,1,1-1A3.18,3.18,0,0,1,248.12,62.07Z"/><path d="M253.48,60.91a.75.75,0,0,1-.56-.22.69.69,0,0,1-.22-.53.73.73,0,0,1,.22-.54.78.78,0,0,1,.56-.21.75.75,0,0,1,.55.21.68.68,0,0,1,.23.52.78.78,0,0,1-.22.55A.77.77,0,0,1,253.48,60.91Zm-.58,7.58V62.13h1.15v6.36Z"/><path d="M259,68.56a3.49,3.49,0,0,1-1.73-.42,3.09,3.09,0,0,1-1.2-1.15,3.5,3.5,0,0,1,0-3.36,3.06,3.06,0,0,1,1.2-1.14,3.49,3.49,0,0,1,1.73-.42,3.45,3.45,0,0,1,1.54.34,2.46,2.46,0,0,1,1.05,1l-.87.56a2,2,0,0,0-.77-.69,2.11,2.11,0,0,0-1-.22,2.19,2.19,0,0,0-1.12.28,2,2,0,0,0-.78.77,2.34,2.34,0,0,0-.29,1.18,2.38,2.38,0,0,0,.29,1.19,2,2,0,0,0,.78.78,2.3,2.3,0,0,0,1.12.28,2.12,2.12,0,0,0,1-.23,1.87,1.87,0,0,0,.77-.69l.87.56a2.55,2.55,0,0,1-1.05,1A3.21,3.21,0,0,1,259,68.56Z"/><path d="M263.59,60.91a.76.76,0,0,1-.56-.22.73.73,0,0,1-.22-.53.77.77,0,0,1,.22-.54.79.79,0,0,1,.56-.21.78.78,0,0,1,.56.21.67.67,0,0,1,.22.52.77.77,0,0,1-.21.55A.81.81,0,0,1,263.59,60.91ZM263,68.49V62.13h1.15v6.36Z"/><path d="M268.22,68.56a3,3,0,0,1-1.24-.24,1.94,1.94,0,0,1-.82-.66,1.71,1.71,0,0,1-.29-1,1.75,1.75,0,0,1,.25-.93,1.71,1.71,0,0,1,.8-.68,3.89,3.89,0,0,1,1.51-.25h2v.83h-2a1.74,1.74,0,0,0-1.17.29.92.92,0,0,0-.3.69.89.89,0,0,0,.37.75,1.69,1.69,0,0,0,1,.29,2.18,2.18,0,0,0,1.13-.29,1.62,1.62,0,0,0,.7-.84l.23.79a1.77,1.77,0,0,1-.8.89A2.92,2.92,0,0,1,268.22,68.56Zm2.09-.07V67.15l-.06-.25V64.6a1.5,1.5,0,0,0-.42-1.13,1.8,1.8,0,0,0-1.28-.4,3.49,3.49,0,0,0-1.11.18,2.94,2.94,0,0,0-.91.5l-.48-.86a3.39,3.39,0,0,1,1.18-.61,5,5,0,0,1,1.45-.21,2.92,2.92,0,0,1,2,.64,2.48,2.48,0,0,1,.7,1.94v3.84Z"/><path d="M276.94,62.07a3,3,0,0,1,1.37.3,2.15,2.15,0,0,1,.93.91,3.26,3.26,0,0,1,.34,1.55v3.66h-1.16V65a1.94,1.94,0,0,0-.45-1.39,1.67,1.67,0,0,0-1.26-.47,2.25,2.25,0,0,0-1.07.24,1.65,1.65,0,0,0-.7.71,2.41,2.41,0,0,0-.25,1.17v3.27h-1.15V62.13h1.1v1.72l-.18-.46a2.25,2.25,0,0,1,1-1A3.22,3.22,0,0,1,276.94,62.07Z"/><path d="M286.31,68.49h-1.2v-8.4h1.2Zm4.93-3.74h-5.05v-1h5.05Zm-.11-4.66h1.2v8.4h-1.2Z"/><path d="M297.41,68.56a3.43,3.43,0,0,1-1.7-.42A3.1,3.1,0,0,1,294.53,67a3.26,3.26,0,0,1-.43-1.68,3.14,3.14,0,0,1,1.6-2.82,3.67,3.67,0,0,1,3.41,0,3,3,0,0,1,1.17,1.14,3.5,3.5,0,0,1,0,3.36,3,3,0,0,1-1.17,1.15A3.43,3.43,0,0,1,297.41,68.56Zm0-1a2.25,2.25,0,0,0,1.1-.28,2,2,0,0,0,.76-.79,2.48,2.48,0,0,0,.27-1.18,2.45,2.45,0,0,0-.27-1.18,2,2,0,0,0-.76-.77,2.14,2.14,0,0,0-1.1-.28,2.08,2.08,0,0,0-1.09.28,2,2,0,0,0-.77.77,2.34,2.34,0,0,0-.29,1.18,2.37,2.37,0,0,0,.29,1.18,2,2,0,0,0,.77.79A2.18,2.18,0,0,0,297.41,67.56Z"/><path d="M310.26,62.07a3,3,0,0,1,1.36.3,2.16,2.16,0,0,1,.91.91,3.26,3.26,0,0,1,.33,1.55v3.66h-1.15V65a2,2,0,0,0-.43-1.39,1.57,1.57,0,0,0-1.21-.47,2,2,0,0,0-1,.24,1.65,1.65,0,0,0-.67.71,2.68,2.68,0,0,0-.23,1.17v3.27H307V65a2,2,0,0,0-.43-1.39,1.57,1.57,0,0,0-1.22-.47,2,2,0,0,0-1,.24,1.65,1.65,0,0,0-.67.71,2.54,2.54,0,0,0-.24,1.17v3.27H302.3V62.13h1.11v1.69l-.18-.43a2.21,2.21,0,0,1,.92-1,3,3,0,0,1,1.45-.35,2.74,2.74,0,0,1,1.58.45,2.16,2.16,0,0,1,.86,1.36l-.47-.19a2.34,2.34,0,0,1,1-1.17A3.1,3.1,0,0,1,310.26,62.07Z"/><path d="M317.82,68.56a3.67,3.67,0,0,1-1.79-.42,3,3,0,0,1-1.2-1.15,3.23,3.23,0,0,1-.43-1.68,3.43,3.43,0,0,1,.41-1.68A3,3,0,0,1,316,62.49a3.43,3.43,0,0,1,3.27,0,2.74,2.74,0,0,1,1.11,1.15,3.5,3.5,0,0,1,.41,1.72c0,.05,0,.1,0,.17a1.1,1.1,0,0,1,0,.18H315.3v-.83h4.81l-.47.29a2.1,2.1,0,0,0-.25-1.1,1.92,1.92,0,0,0-.72-.75,2.28,2.28,0,0,0-2.15,0,2,2,0,0,0-.73.76,2.33,2.33,0,0,0-.26,1.11v.19a2.27,2.27,0,0,0,.29,1.14,2,2,0,0,0,.82.77,2.67,2.67,0,0,0,1.22.28,2.61,2.61,0,0,0,1-.2,2.17,2.17,0,0,0,.81-.57l.64.74a2.71,2.71,0,0,1-1.08.77A3.61,3.61,0,0,1,317.82,68.56Z"/><path d="M328.15,68.49l-3.69-8.4h1.29l3.4,7.75h-.75l3.42-7.75H333l-3.68,8.4Z"/><path d="M334.38,60.91a.76.76,0,0,1-.56-.22.69.69,0,0,1-.22-.53.73.73,0,0,1,.22-.54.85.85,0,0,1,1.12,0,.67.67,0,0,1,.22.52.74.74,0,0,1-.22.55A.77.77,0,0,1,334.38,60.91Zm-.58,7.58V62.13H335v6.36Z"/><path d="M339,68.56a5.35,5.35,0,0,1-1.51-.21,3.54,3.54,0,0,1-1.12-.53l.48-.91a4.13,4.13,0,0,0,1,.47,4.2,4.2,0,0,0,1.22.19,2.25,2.25,0,0,0,1.16-.23.72.72,0,0,0,.35-.64.55.55,0,0,0-.21-.46,1.5,1.5,0,0,0-.57-.26l-.79-.15c-.29,0-.58-.1-.86-.16a3.78,3.78,0,0,1-.8-.29,1.51,1.51,0,0,1-.57-.52,1.53,1.53,0,0,1-.22-.88,1.63,1.63,0,0,1,.33-1,2,2,0,0,1,.91-.66,3.78,3.78,0,0,1,1.41-.24,5.57,5.57,0,0,1,1.27.15,3,3,0,0,1,1,.43l-.49.91a3,3,0,0,0-.9-.4,4.29,4.29,0,0,0-.94-.1,2.13,2.13,0,0,0-1.13.24.76.76,0,0,0-.37.63.62.62,0,0,0,.22.5,1.49,1.49,0,0,0,.58.27,7.33,7.33,0,0,0,.79.16c.28,0,.57.1.86.17a3.68,3.68,0,0,1,.79.28,1.55,1.55,0,0,1,.57.51,1.46,1.46,0,0,1,.22.86,1.58,1.58,0,0,1-.33,1,2.23,2.23,0,0,1-.95.65A4,4,0,0,1,339,68.56Z"/><path d="M343.74,60.91a.76.76,0,0,1-.56-.22.69.69,0,0,1-.22-.53.73.73,0,0,1,.22-.54.85.85,0,0,1,1.12,0,.67.67,0,0,1,.22.52.74.74,0,0,1-.22.55A.77.77,0,0,1,343.74,60.91Zm-.58,7.58V62.13h1.16v6.36Z"/><path d="M345.6,63.08v-.95h4.06v.95Zm3.1,5.48a2.06,2.06,0,0,1-1.49-.51,2,2,0,0,1-.53-1.48V60.74h1.15v5.78a1.15,1.15,0,0,0,.26.8,1,1,0,0,0,.74.27,1.36,1.36,0,0,0,.9-.3l.36.83a1.91,1.91,0,0,1-.63.34A2.78,2.78,0,0,1,348.7,68.56Z"/><path d="M468.23,345.88v-8.4h3.28a4.61,4.61,0,0,1,1.88.34,2.72,2.72,0,0,1,1.2,1,3.08,3.08,0,0,1,0,3.14,2.64,2.64,0,0,1-1.2,1,4.61,4.61,0,0,1-1.88.35h-2.62l.54-.55v3.11Zm1.2-3-.54-.59h2.58a2.68,2.68,0,0,0,1.75-.5,1.71,1.71,0,0,0,.59-1.4,1.69,1.69,0,0,0-.59-1.39,2.68,2.68,0,0,0-1.75-.49h-2.58l.54-.6Zm4.42,3-2.14-3.05H473l2.16,3.05Z"/><path d="M479.62,346a3.67,3.67,0,0,1-1.79-.42,3,3,0,0,1-1.2-1.15,3.23,3.23,0,0,1-.43-1.68,3.27,3.27,0,0,1,.42-1.68,2.93,2.93,0,0,1,1.14-1.15,3.19,3.19,0,0,1,1.63-.41,3.27,3.27,0,0,1,1.64.4,3,3,0,0,1,1.11,1.15,3.64,3.64,0,0,1,.4,1.72,1,1,0,0,1,0,.17,1.1,1.1,0,0,1,0,.18H477.1v-.83h4.81l-.46.29a2.17,2.17,0,0,0-.26-1.09,1.86,1.86,0,0,0-.72-.75,2.11,2.11,0,0,0-1.08-.27,2.06,2.06,0,0,0-1.06.27,1.91,1.91,0,0,0-.74.75,2.39,2.39,0,0,0-.26,1.11v.2a2.24,2.24,0,0,0,.29,1.13,2,2,0,0,0,.83.77,2.49,2.49,0,0,0,1.21.28,2.58,2.58,0,0,0,1-.19,2.2,2.2,0,0,0,.81-.58l.64.75a2.83,2.83,0,0,1-1.07.76A3.7,3.7,0,0,1,479.62,346Z"/><path d="M486,346a5,5,0,0,1-1.51-.22,3.44,3.44,0,0,1-1.12-.53l.48-.91a3.79,3.79,0,0,0,1,.47A3.93,3.93,0,0,0,486,345a2.15,2.15,0,0,0,1.16-.23.7.7,0,0,0,.35-.63.57.57,0,0,0-.21-.47,1.49,1.49,0,0,0-.57-.25,7.43,7.43,0,0,0-.79-.15c-.29-.05-.57-.1-.86-.17a3.22,3.22,0,0,1-.79-.29,1.44,1.44,0,0,1-.58-.51,1.65,1.65,0,0,1-.22-.89,1.58,1.58,0,0,1,.33-1,2,2,0,0,1,.92-.67,3.72,3.72,0,0,1,1.41-.23,5.55,5.55,0,0,1,1.26.15,3.19,3.19,0,0,1,1.05.42l-.49.91a2.74,2.74,0,0,0-.9-.39,4.24,4.24,0,0,0-.94-.11,2,2,0,0,0-1.12.25.73.73,0,0,0-.38.63.58.58,0,0,0,.23.49,1.44,1.44,0,0,0,.57.27,7.23,7.23,0,0,0,.79.17c.29,0,.57.1.86.16a3.69,3.69,0,0,1,.79.29,1.45,1.45,0,0,1,.57.5,1.48,1.48,0,0,1,.23.86,1.57,1.57,0,0,1-.34,1,2.09,2.09,0,0,1-.95.65A4,4,0,0,1,486,346Z"/><path d="M492.82,346a3.23,3.23,0,0,1-1.43-.3,2.19,2.19,0,0,1-1-.92,3.15,3.15,0,0,1-.34-1.55v-3.66h1.15V343a2,2,0,0,0,.45,1.41,1.67,1.67,0,0,0,1.26.47,2.2,2.2,0,0,0,1.05-.25,1.64,1.64,0,0,0,.68-.72,2.54,2.54,0,0,0,.24-1.15v-3.28h1.15v6.36H495v-1.72l.18.46a2.26,2.26,0,0,1-.93,1A2.89,2.89,0,0,1,492.82,346Z"/><path d="M498.27,345.88V337h1.15v8.91Z"/><path d="M500.86,340.46v-.94h4.06v.94ZM504,346a2,2,0,0,1-1.49-.52,2,2,0,0,1-.53-1.47v-5.84h1.15v5.79a1.12,1.12,0,0,0,.26.79,1,1,0,0,0,.74.28,1.36,1.36,0,0,0,.9-.3l.36.82a1.61,1.61,0,0,1-.63.34A2.74,2.74,0,0,1,504,346Z"/><path d="M508.57,346a5,5,0,0,1-1.51-.22,3.34,3.34,0,0,1-1.12-.53l.48-.91a3.79,3.79,0,0,0,1,.47,3.89,3.89,0,0,0,1.22.19,2.15,2.15,0,0,0,1.16-.23.72.72,0,0,0,.35-.63.57.57,0,0,0-.21-.47,1.49,1.49,0,0,0-.57-.25,7.43,7.43,0,0,0-.79-.15c-.29-.05-.58-.1-.86-.17a3.3,3.3,0,0,1-.8-.29,1.41,1.41,0,0,1-.57-.51,1.56,1.56,0,0,1-.22-.89,1.58,1.58,0,0,1,.33-1,2,2,0,0,1,.91-.67,3.79,3.79,0,0,1,1.41-.23,5.57,5.57,0,0,1,1.27.15,3.19,3.19,0,0,1,1.05.42l-.49.91a2.74,2.74,0,0,0-.9-.39,4.31,4.31,0,0,0-.94-.11,2,2,0,0,0-1.13.25.74.74,0,0,0-.37.63.6.6,0,0,0,.22.49,1.49,1.49,0,0,0,.58.27,7.23,7.23,0,0,0,.79.17c.28,0,.57.1.86.16a3.69,3.69,0,0,1,.79.29,1.52,1.52,0,0,1,.57.5,1.48,1.48,0,0,1,.22.86,1.56,1.56,0,0,1-.33,1,2.15,2.15,0,0,1-1,.65A4,4,0,0,1,508.57,346Z"/><path d="M518.37,346a4,4,0,0,1-1.51-.27,2.61,2.61,0,0,1-1.05-.77,1.84,1.84,0,0,1-.38-1.14,2.09,2.09,0,0,1,.25-1,2.94,2.94,0,0,1,.81-.91,9.49,9.49,0,0,1,1.45-.91,9.62,9.62,0,0,0,1.14-.67,2.12,2.12,0,0,0,.59-.54,1,1,0,0,0,.18-.56.87.87,0,0,0-.29-.67,1.21,1.21,0,0,0-.83-.26,1.26,1.26,0,0,0-.88.29.93.93,0,0,0-.32.73,1.27,1.27,0,0,0,.08.44,1.67,1.67,0,0,0,.29.47c.14.17.34.39.6.65l4.44,4.42-.65.77-4.71-4.69a6.55,6.55,0,0,1-.66-.75,2.45,2.45,0,0,1-.35-.65,1.94,1.94,0,0,1-.11-.63,1.73,1.73,0,0,1,1.08-1.65,2.75,2.75,0,0,1,1.19-.24,2.67,2.67,0,0,1,1.1.21,1.62,1.62,0,0,1,.73.6,1.71,1.71,0,0,1,.26,1,1.69,1.69,0,0,1-.24.88,2.52,2.52,0,0,1-.75.8,9.28,9.28,0,0,1-1.39.82,8.25,8.25,0,0,0-1.13.69,2.52,2.52,0,0,0-.58.63,1.47,1.47,0,0,0-.17.69,1.15,1.15,0,0,0,.23.7,1.56,1.56,0,0,0,.66.47,2.57,2.57,0,0,0,1,.17,2.91,2.91,0,0,0,1.45-.35,2.85,2.85,0,0,0,1.09-1,5,5,0,0,0,.64-1.73l.93.3a5.36,5.36,0,0,1-.83,2.05,3.92,3.92,0,0,1-1.43,1.29A4.18,4.18,0,0,1,518.37,346Z"/><path d="M528.81,345.88h-1.2v-8.4h5.93v1h-4.73Zm-.12-4.43H533v1h-4.33Z"/><path d="M537.58,346a3.43,3.43,0,0,1-1.7-.42,3.13,3.13,0,0,1-1.18-1.16,3.48,3.48,0,0,1,0-3.35,3.15,3.15,0,0,1,1.18-1.14,3.37,3.37,0,0,1,1.7-.42,3.42,3.42,0,0,1,1.7.41,3.1,3.1,0,0,1,1.18,1.15,3.27,3.27,0,0,1,.42,1.68,3.33,3.33,0,0,1-.42,1.68,3.18,3.18,0,0,1-1.18,1.15A3.43,3.43,0,0,1,537.58,346Zm0-1a2.14,2.14,0,0,0,1.1-.28,1.9,1.9,0,0,0,.76-.78,2.65,2.65,0,0,0,0-2.37,1.94,1.94,0,0,0-.76-.77,2.25,2.25,0,0,0-1.1-.28,2.18,2.18,0,0,0-1.09.28,2,2,0,0,0-.77.77,2.57,2.57,0,0,0,0,2.37,2,2,0,0,0,.77.78A2.08,2.08,0,0,0,537.58,344.94Z"/><path d="M542.48,345.88V337h1.15v8.91Z"/><path d="M545.83,345.88V337H547v8.91Z"/><path d="M551.9,346a3.43,3.43,0,0,1-1.7-.42,3.13,3.13,0,0,1-1.18-1.16,3.24,3.24,0,0,1,1.17-4.49,3.71,3.71,0,0,1,3.41,0,3,3,0,0,1,1.17,1.15,3.18,3.18,0,0,1,.43,1.68,3.23,3.23,0,0,1-.43,1.68,3.08,3.08,0,0,1-1.17,1.15A3.43,3.43,0,0,1,551.9,346Zm0-1a2.14,2.14,0,0,0,1.1-.28,2,2,0,0,0,.76-.78,2.74,2.74,0,0,0,0-2.37,2,2,0,0,0-.76-.77,2.25,2.25,0,0,0-1.1-.28,2.15,2.15,0,0,0-1.09.28,2,2,0,0,0-.77.77,2.57,2.57,0,0,0,0,2.37,1.93,1.93,0,0,0,.77.78A2.06,2.06,0,0,0,551.9,344.94Z"/><path d="M558,345.88l-2.37-6.36h1.09l2.1,5.76h-.51l2.18-5.76h1l2.13,5.76h-.5l2.14-5.76h1l-2.38,6.36h-1.1l-2-5.26h.34l-2,5.26Z"/><path d="M566.84,343.08v-1h3.22v1Z"/><path d="M575.49,346a3.48,3.48,0,0,1-2.6-1,3.71,3.71,0,0,1-.95-2.77v-4.77h1.2v4.72a2.89,2.89,0,0,0,.62,2.06,2.29,2.29,0,0,0,1.74.64,2.32,2.32,0,0,0,1.76-.64,2.93,2.93,0,0,0,.62-2.06v-4.72H579v4.77a3.75,3.75,0,0,1-.94,2.77A3.49,3.49,0,0,1,575.49,346Z"/><path d="M581.33,348.2v-8.68h1.11v1.71l-.08,1.48.12,1.47v4ZM584.7,346a2.83,2.83,0,0,1-1.44-.37,2.53,2.53,0,0,1-1-1.08,3.63,3.63,0,0,1-.4-1.8,3.87,3.87,0,0,1,.38-1.8,2.56,2.56,0,0,1,1-1.08,3,3,0,0,1,1.47-.36,3.32,3.32,0,0,1,1.66.4A3,3,0,0,1,587.5,341a3.32,3.32,0,0,1,.42,1.7,3.37,3.37,0,0,1-.42,1.7,3,3,0,0,1-1.14,1.14A3.32,3.32,0,0,1,584.7,346Zm-.09-1a2.14,2.14,0,0,0,1.1-.28,1.9,1.9,0,0,0,.76-.78,2.57,2.57,0,0,0,0-2.37,1.94,1.94,0,0,0-.76-.77,2.28,2.28,0,0,0-2.19,0,1.94,1.94,0,0,0-.76.77,2.57,2.57,0,0,0,0,2.37,1.9,1.9,0,0,0,.76.78A2.13,2.13,0,0,0,584.61,344.94Z"/><path d="M471.76,166.1a6,6,0,0,1-1.84-.29,3.78,3.78,0,0,1-1.38-.77l.45-.93a3.75,3.75,0,0,0,1.22.69,4.3,4.3,0,0,0,1.55.28,3.57,3.57,0,0,0,1.19-.17,1.41,1.41,0,0,0,.67-.46,1.13,1.13,0,0,0,.21-.67.89.89,0,0,0-.28-.69,2.08,2.08,0,0,0-.73-.43,7.8,7.8,0,0,0-1-.28c-.36-.08-.72-.17-1.09-.28a4.91,4.91,0,0,1-1-.42,1.83,1.83,0,0,1-1-1.77,2.23,2.23,0,0,1,.34-1.2,2.42,2.42,0,0,1,1.05-.87,4.39,4.39,0,0,1,1.82-.33,5.5,5.5,0,0,1,1.45.19,4.08,4.08,0,0,1,1.25.55l-.39,1a3.9,3.9,0,0,0-1.14-.52,4.39,4.39,0,0,0-1.17-.16,3.17,3.17,0,0,0-1.16.18,1.4,1.4,0,0,0-.67.48,1.13,1.13,0,0,0-.21.67,1,1,0,0,0,.28.71,2.28,2.28,0,0,0,.74.42,9.91,9.91,0,0,0,1,.28c.36.08.72.18,1.08.28a4.76,4.76,0,0,1,1,.41,2,2,0,0,1,.72.67,1.88,1.88,0,0,1,.28,1.08,2.15,2.15,0,0,1-.35,1.18,2.37,2.37,0,0,1-1.07.88A4.47,4.47,0,0,1,471.76,166.1Z"/><path d="M479.43,166.08a3.74,3.74,0,0,1-1.8-.42,3.11,3.11,0,0,1-1.2-1.16,3.27,3.27,0,0,1-.42-1.68,3.32,3.32,0,0,1,.41-1.68,3,3,0,0,1,1.14-1.14,3.43,3.43,0,0,1,3.27,0,2.93,2.93,0,0,1,1.11,1.15,3.5,3.5,0,0,1,.4,1.72V163c0,.06,0,.12,0,.18h-5.41v-.83h4.81l-.47.29a2.17,2.17,0,0,0-.25-1.09,2,2,0,0,0-.73-.75,2.07,2.07,0,0,0-1.07-.27,2.1,2.1,0,0,0-1.07.27,1.88,1.88,0,0,0-.73.75,2.28,2.28,0,0,0-.27,1.11v.19a2.16,2.16,0,0,0,.3,1.14,2,2,0,0,0,.82.77,2.51,2.51,0,0,0,1.21.28,2.82,2.82,0,0,0,1-.19,2.2,2.2,0,0,0,.81-.58l.63.74a2.61,2.61,0,0,1-1.07.77A3.68,3.68,0,0,1,479.43,166.08Z"/><path d="M486.71,166.08a3.49,3.49,0,0,1-1.73-.42,3.11,3.11,0,0,1-1.2-1.16,3.18,3.18,0,0,1-.43-1.68,3.23,3.23,0,0,1,.43-1.68A3.06,3.06,0,0,1,485,160a3.49,3.49,0,0,1,1.73-.42,3.33,3.33,0,0,1,1.54.35,2.38,2.38,0,0,1,1.05,1l-.87.56a2,2,0,0,0-.77-.69,2.25,2.25,0,0,0-1-.22,2.19,2.19,0,0,0-1.12.28,2,2,0,0,0-.78.77,2.57,2.57,0,0,0,0,2.37,2,2,0,0,0,.78.78,2.19,2.19,0,0,0,1.12.28,2.25,2.25,0,0,0,1-.22,2,2,0,0,0,.77-.69l.87.55a2.49,2.49,0,0,1-1.05,1A3.21,3.21,0,0,1,486.71,166.08Z"/><path d="M493.47,166.08a3.25,3.25,0,0,1-1.44-.3,2.19,2.19,0,0,1-1-.92,3.16,3.16,0,0,1-.34-1.56v-3.66h1.15v3.53a2,2,0,0,0,.45,1.41,1.68,1.68,0,0,0,1.27.46,2.13,2.13,0,0,0,1-.24,1.71,1.71,0,0,0,.69-.72,2.54,2.54,0,0,0,.24-1.15v-3.29h1.15V166h-1.09v-1.71l.18.45a2.2,2.2,0,0,1-.94,1A2.85,2.85,0,0,1,493.47,166.08Z"/><path d="M498.91,166v-6.36H500v1.73l-.11-.43a2,2,0,0,1,.89-1,3.12,3.12,0,0,1,1.53-.35v1.12h-.26a1.93,1.93,0,0,0-1.46.55,2.2,2.2,0,0,0-.54,1.6V166Z"/><path d="M506.52,166.08a3.67,3.67,0,0,1-1.79-.42,3,3,0,0,1-1.2-1.16,3.18,3.18,0,0,1-.43-1.68,3.33,3.33,0,0,1,.42-1.68,2.91,2.91,0,0,1,1.14-1.14,3.19,3.19,0,0,1,1.63-.42,3.27,3.27,0,0,1,1.64.41,2.93,2.93,0,0,1,1.11,1.15,3.61,3.61,0,0,1,.4,1.72,1.09,1.09,0,0,1,0,.17,1.1,1.1,0,0,1,0,.18H504v-.83h4.81l-.46.29a2.17,2.17,0,0,0-.26-1.09,1.86,1.86,0,0,0-.72-.75,2.11,2.11,0,0,0-1.08-.27,2.06,2.06,0,0,0-1.06.27,1.91,1.91,0,0,0-.74.75,2.39,2.39,0,0,0-.26,1.11v.19a2.25,2.25,0,0,0,.29,1.14,2,2,0,0,0,.83.77,2.49,2.49,0,0,0,1.21.28,2.77,2.77,0,0,0,1-.19,2.2,2.2,0,0,0,.81-.58l.64.74a2.75,2.75,0,0,1-1.07.77A3.7,3.7,0,0,1,506.52,166.08Z"/><path d="M516.88,166.1a6,6,0,0,1-1.84-.29,3.78,3.78,0,0,1-1.38-.77l.45-.93a3.75,3.75,0,0,0,1.22.69,4.3,4.3,0,0,0,1.55.28,3.57,3.57,0,0,0,1.19-.17,1.41,1.41,0,0,0,.67-.46,1.13,1.13,0,0,0,.21-.67.89.89,0,0,0-.28-.69,2.08,2.08,0,0,0-.73-.43,7.8,7.8,0,0,0-1-.28c-.36-.08-.72-.17-1.09-.28a4.91,4.91,0,0,1-1-.42,1.83,1.83,0,0,1-1-1.77,2.23,2.23,0,0,1,.34-1.2,2.42,2.42,0,0,1,1-.87,4.39,4.39,0,0,1,1.82-.33,5.5,5.5,0,0,1,1.45.19,4.08,4.08,0,0,1,1.25.55l-.39,1a3.9,3.9,0,0,0-1.14-.52,4.39,4.39,0,0,0-1.17-.16,3.17,3.17,0,0,0-1.16.18,1.4,1.4,0,0,0-.67.48,1.13,1.13,0,0,0-.21.67,1,1,0,0,0,.28.71,2.28,2.28,0,0,0,.74.42,9.91,9.91,0,0,0,1,.28c.36.08.72.18,1.08.28a4.76,4.76,0,0,1,1,.41,2,2,0,0,1,.72.67,1.88,1.88,0,0,1,.28,1.08,2.15,2.15,0,0,1-.35,1.18,2.37,2.37,0,0,1-1.07.88A4.47,4.47,0,0,1,516.88,166.1Z"/><path d="M523.57,166.08a3,3,0,0,1-1.24-.24,1.9,1.9,0,0,1-.82-.67,1.71,1.71,0,0,1-.29-1,1.75,1.75,0,0,1,.25-.93,1.64,1.64,0,0,1,.8-.67,3.69,3.69,0,0,1,1.51-.26h2v.83h-2a1.74,1.74,0,0,0-1.17.29,1,1,0,0,0,.07,1.45,1.76,1.76,0,0,0,1,.28,2.18,2.18,0,0,0,1.13-.29,1.62,1.62,0,0,0,.7-.84l.23.79a1.79,1.79,0,0,1-.8.9A2.92,2.92,0,0,1,523.57,166.08Zm2.09-.08v-1.34l-.06-.25v-2.29a1.51,1.51,0,0,0-.42-1.14,1.8,1.8,0,0,0-1.28-.4,3.24,3.24,0,0,0-1.11.19,2.92,2.92,0,0,0-.91.49l-.48-.86a3.56,3.56,0,0,1,1.18-.61,5,5,0,0,1,1.45-.21,3,3,0,0,1,2,.64,2.48,2.48,0,0,1,.7,1.94V166Z"/><path d="M536.85,159.58a2.92,2.92,0,0,1,1.35.3,2.15,2.15,0,0,1,.92.92,3.19,3.19,0,0,1,.33,1.54V166H538.3v-3.52a2.06,2.06,0,0,0-.43-1.4,1.59,1.59,0,0,0-1.22-.46,2,2,0,0,0-1,.24,1.62,1.62,0,0,0-.67.7,2.57,2.57,0,0,0-.23,1.17V166h-1.16v-3.52a2.05,2.05,0,0,0-.42-1.4,1.58,1.58,0,0,0-1.22-.46,2,2,0,0,0-1,.24,1.68,1.68,0,0,0-.67.7,2.57,2.57,0,0,0-.24,1.17V166h-1.15v-6.36H530v1.7l-.18-.44a2.18,2.18,0,0,1,.93-1,2.94,2.94,0,0,1,1.45-.35,2.71,2.71,0,0,1,1.57.45,2.17,2.17,0,0,1,.87,1.37l-.47-.2a2.33,2.33,0,0,1,1-1.17A3.1,3.1,0,0,1,536.85,159.58Z"/><path d="M541.57,168.33v-8.69h1.11v1.72l-.08,1.48.12,1.47v4Zm3.38-2.25a3,3,0,0,1-1.45-.37,2.61,2.61,0,0,1-1-1.09,3.75,3.75,0,0,1-.39-1.8,3.87,3.87,0,0,1,.37-1.8,2.62,2.62,0,0,1,1-1.08,3,3,0,0,1,1.48-.36,3.31,3.31,0,0,1,1.65.41,3,3,0,0,1,1.14,1.14,3.31,3.31,0,0,1,.42,1.69,3.39,3.39,0,0,1-.42,1.71,3,3,0,0,1-1.14,1.14A3.31,3.31,0,0,1,545,166.08Zm-.1-1a2.14,2.14,0,0,0,1.1-.28,2,2,0,0,0,.77-.78,2.52,2.52,0,0,0,.28-1.19,2.45,2.45,0,0,0-.28-1.18,2,2,0,0,0-.77-.77,2.28,2.28,0,0,0-2.19,0,1.94,1.94,0,0,0-.76.77,2.34,2.34,0,0,0-.29,1.18A2.41,2.41,0,0,0,543,164a1.9,1.9,0,0,0,.76.78A2.13,2.13,0,0,0,544.85,165.07Z"/><path d="M549.76,166v-8.9h1.15V166Z"/><path d="M555.94,166.08a3.74,3.74,0,0,1-1.8-.42,3.11,3.11,0,0,1-1.2-1.16,3.27,3.27,0,0,1-.42-1.68,3.32,3.32,0,0,1,.41-1.68,3,3,0,0,1,1.14-1.14,3.43,3.43,0,0,1,3.27,0,2.93,2.93,0,0,1,1.11,1.15,3.5,3.5,0,0,1,.4,1.72V163c0,.06,0,.12,0,.18h-5.41v-.83h4.81l-.47.29a2.17,2.17,0,0,0-.25-1.09,2,2,0,0,0-.73-.75,2.07,2.07,0,0,0-1.07-.27,2.1,2.1,0,0,0-1.07.27,2,2,0,0,0-.73.75,2.28,2.28,0,0,0-.27,1.11v.19a2.16,2.16,0,0,0,.3,1.14,2,2,0,0,0,.82.77,2.51,2.51,0,0,0,1.21.28,2.82,2.82,0,0,0,1-.19,2.2,2.2,0,0,0,.81-.58l.63.74a2.61,2.61,0,0,1-1.07.77A3.64,3.64,0,0,1,555.94,166.08Z"/><path d="M566.06,166.1a3.8,3.8,0,0,1-1.51-.28,2.56,2.56,0,0,1-1-.76,1.78,1.78,0,0,1-.38-1.14,2.16,2.16,0,0,1,.25-1,3,3,0,0,1,.8-.9,9.22,9.22,0,0,1,1.45-.91,10.82,10.82,0,0,0,1.15-.67,2.12,2.12,0,0,0,.59-.55,1,1,0,0,0,.17-.55.86.86,0,0,0-.29-.67,1.2,1.2,0,0,0-.82-.26,1.35,1.35,0,0,0-.89.28,1,1,0,0,0-.32.74,1.32,1.32,0,0,0,.08.44,1.67,1.67,0,0,0,.29.47,7.85,7.85,0,0,0,.61.65l4.44,4.42-.65.77-4.72-4.7a6.55,6.55,0,0,1-.66-.75,2.35,2.35,0,0,1-.34-.64,1.74,1.74,0,0,1-.11-.63,1.72,1.72,0,0,1,.28-1,1.77,1.77,0,0,1,.79-.66,2.79,2.79,0,0,1,1.2-.24,2.67,2.67,0,0,1,1.1.21,1.73,1.73,0,0,1,.73.6,1.69,1.69,0,0,1,.25.94,1.82,1.82,0,0,1-.23.89,2.75,2.75,0,0,1-.75.79,9.41,9.41,0,0,1-1.39.83,7.67,7.67,0,0,0-1.13.69,2.08,2.08,0,0,0-.58.63,1.37,1.37,0,0,0-.18.69,1.12,1.12,0,0,0,.24.7,1.44,1.44,0,0,0,.66.47,2.7,2.7,0,0,0,1,.17,3,3,0,0,0,1.45-.35,3,3,0,0,0,1.09-1,5.25,5.25,0,0,0,.64-1.73l.92.3a5.35,5.35,0,0,1-.82,2.05,4,4,0,0,1-1.44,1.29A4.12,4.12,0,0,1,566.06,166.1Z"/><path d="M476.25,180.4V172h3.54a5.11,5.11,0,0,1,2.37.53,3.88,3.88,0,0,1,1.6,1.48,4.51,4.51,0,0,1,0,4.39,4,4,0,0,1-1.6,1.48,5.11,5.11,0,0,1-2.37.52Zm1.2-1h2.27a3.81,3.81,0,0,0,1.81-.4,2.87,2.87,0,0,0,1.18-1.11,3.45,3.45,0,0,0,0-3.3,3,3,0,0,0-1.18-1.11,3.93,3.93,0,0,0-1.81-.39h-2.27Z"/><path d="M487.86,180.48a3,3,0,0,1-1.25-.24,2,2,0,0,1-.82-.67,1.71,1.71,0,0,1-.29-1,1.85,1.85,0,0,1,.25-.93,1.64,1.64,0,0,1,.8-.67,3.73,3.73,0,0,1,1.51-.26h2v.83h-2a1.74,1.74,0,0,0-1.17.29.92.92,0,0,0-.3.7.9.9,0,0,0,.38.75,1.7,1.7,0,0,0,1,.28,2.18,2.18,0,0,0,1.13-.29,1.57,1.57,0,0,0,.7-.84l.23.79a1.79,1.79,0,0,1-.8.9A2.91,2.91,0,0,1,487.86,180.48Zm2.08-.08v-1.34l-.06-.25v-2.29a1.51,1.51,0,0,0-.42-1.14,1.8,1.8,0,0,0-1.28-.4,3.18,3.18,0,0,0-1.1.19,3,3,0,0,0-.92.49l-.48-.86a3.62,3.62,0,0,1,1.19-.61,4.92,4.92,0,0,1,1.44-.21,3,3,0,0,1,2,.64,2.48,2.48,0,0,1,.71,1.94v3.84Z"/><path d="M492.26,175v-1h4.06v1Zm3.1,5.49a2.06,2.06,0,0,1-1.49-.52,2,2,0,0,1-.53-1.48v-5.83h1.15v5.79a1.14,1.14,0,0,0,.26.79,1,1,0,0,0,.74.27,1.36,1.36,0,0,0,.9-.3l.36.83a1.75,1.75,0,0,1-.63.34A2.79,2.79,0,0,1,495.36,180.48Z"/><path d="M500,180.48a3,3,0,0,1-1.24-.24,1.9,1.9,0,0,1-.82-.67,1.63,1.63,0,0,1-.29-1,1.84,1.84,0,0,1,.24-.93,1.71,1.71,0,0,1,.81-.67,3.64,3.64,0,0,1,1.5-.26h2v.83h-2a1.73,1.73,0,0,0-1.16.29.92.92,0,0,0-.3.7.89.89,0,0,0,.37.75,1.73,1.73,0,0,0,1,.28,2.25,2.25,0,0,0,1.14-.29,1.67,1.67,0,0,0,.7-.84l.23.79a1.81,1.81,0,0,1-.81.9A2.88,2.88,0,0,1,500,180.48Zm2.09-.08v-1.34l-.06-.25v-2.29a1.48,1.48,0,0,0-.43-1.14,1.79,1.79,0,0,0-1.28-.4,3.22,3.22,0,0,0-1.1.19,2.92,2.92,0,0,0-.91.49l-.48-.86a3.56,3.56,0,0,1,1.18-.61,4.94,4.94,0,0,1,1.45-.21,2.92,2.92,0,0,1,2,.64,2.48,2.48,0,0,1,.71,1.94v3.84Z"/><path d="M509.91,180.4h-1.2V172h1.2Zm4.93-3.74h-5.05v-1h5.05Zm-.1-4.66h1.2v8.4h-1.2Z"/><path d="M520.15,180.48a3,3,0,0,1-1.24-.24,2,2,0,0,1-.83-.67,1.7,1.7,0,0,1-.28-1,1.84,1.84,0,0,1,.24-.93,1.66,1.66,0,0,1,.81-.67,3.64,3.64,0,0,1,1.5-.26h2v.83h-2a1.69,1.69,0,0,0-1.16.29.93.93,0,0,0-.31.7.9.9,0,0,0,.38.75,1.73,1.73,0,0,0,1,.28,2.18,2.18,0,0,0,1.13-.29,1.64,1.64,0,0,0,.71-.84l.22.79a1.79,1.79,0,0,1-.8.9A2.88,2.88,0,0,1,520.15,180.48Zm2.09-.08v-1.34l-.06-.25v-2.29a1.51,1.51,0,0,0-.43-1.14,1.79,1.79,0,0,0-1.28-.4,3.22,3.22,0,0,0-1.1.19,2.81,2.81,0,0,0-.91.49l-.48-.86a3.47,3.47,0,0,1,1.18-.61,4.92,4.92,0,0,1,1.44-.21,3,3,0,0,1,2,.64,2.48,2.48,0,0,1,.71,1.94v3.84Z"/><path d="M528.86,174a3,3,0,0,1,1.37.3,2.12,2.12,0,0,1,.93.92,3.08,3.08,0,0,1,.34,1.54v3.66h-1.15v-3.52a2,2,0,0,0-.45-1.4,1.68,1.68,0,0,0-1.27-.46,2.28,2.28,0,0,0-1.07.24,1.69,1.69,0,0,0-.7.7,2.57,2.57,0,0,0-.24,1.17v3.27h-1.16V174h1.11v1.72l-.18-.46a2.25,2.25,0,0,1,1-1A3.15,3.15,0,0,1,528.86,174Z"/><path d="M536.26,180.48a3.36,3.36,0,0,1-1.65-.41,3,3,0,0,1-1.14-1.14,3.39,3.39,0,0,1-.42-1.71,3.31,3.31,0,0,1,.42-1.69,3,3,0,0,1,1.14-1.14,3.36,3.36,0,0,1,1.65-.41,3,3,0,0,1,1.46.36,2.62,2.62,0,0,1,1,1.08,3.75,3.75,0,0,1,.39,1.8,3.87,3.87,0,0,1-.37,1.8,2.65,2.65,0,0,1-1,1.09A3,3,0,0,1,536.26,180.48Zm.1-1a2.13,2.13,0,0,0,1.09-.28,2,2,0,0,0,.76-.78,2.41,2.41,0,0,0,.29-1.19,2.34,2.34,0,0,0-.29-1.18,2,2,0,0,0-.76-.77,2.13,2.13,0,0,0-1.09-.28,2.08,2.08,0,0,0-1.09.28,2,2,0,0,0-.77.77,2.34,2.34,0,0,0-.29,1.18,2.41,2.41,0,0,0,.29,1.19,2,2,0,0,0,.77.78A2.08,2.08,0,0,0,536.36,179.47Zm2.17.93v-1.71l.07-1.48-.12-1.47V171.5h1.16v8.9Z"/><path d="M541.82,180.4v-8.9H543v8.9Z"/><path d="M545.74,172.82a.76.76,0,0,1-.56-.22.73.73,0,0,1-.22-.52.74.74,0,0,1,.22-.54.76.76,0,0,1,.56-.22.78.78,0,0,1,.56.21.67.67,0,0,1,.22.52.74.74,0,0,1-.78.77Zm-.57,7.58V174h1.15v6.36Z"/><path d="M551.91,174a3,3,0,0,1,1.38.3,2.23,2.23,0,0,1,.93.92,3.19,3.19,0,0,1,.33,1.54v3.66H553.4v-3.52a2,2,0,0,0-.45-1.4,1.68,1.68,0,0,0-1.27-.46,2.28,2.28,0,0,0-1.07.24,1.69,1.69,0,0,0-.7.7,2.57,2.57,0,0,0-.24,1.17v3.27h-1.15V174h1.1v1.72l-.18-.46a2.25,2.25,0,0,1,1-1A3.18,3.18,0,0,1,551.91,174Z"/><path d="M559.33,180.14a3.41,3.41,0,0,1-1.65-.39,3,3,0,0,1-1.16-1.09,3.3,3.3,0,0,1,0-3.22,2.92,2.92,0,0,1,1.16-1.07,3.41,3.41,0,0,1,1.65-.39,3.28,3.28,0,0,1,1.48.33,2.52,2.52,0,0,1,1.08,1,3.9,3.9,0,0,1,0,3.44,2.61,2.61,0,0,1-1.08,1A3.16,3.16,0,0,1,559.33,180.14Zm.14,2.66a6.07,6.07,0,0,1-1.7-.24,3.69,3.69,0,0,1-1.34-.7L557,181a3.17,3.17,0,0,0,1.09.6,4.07,4.07,0,0,0,1.35.23,2.26,2.26,0,0,0,1.66-.53,2.2,2.2,0,0,0,.53-1.61v-1.34l.12-1.26-.06-1.28V174h1.09v5.5a3.25,3.25,0,0,1-.84,2.47A3.45,3.45,0,0,1,559.47,182.8Zm0-3.67a2.44,2.44,0,0,0,1.13-.26,2,2,0,0,0,.77-.73,2.07,2.07,0,0,0,.28-1.08,2,2,0,0,0-.28-1.08,1.87,1.87,0,0,0-.77-.73,2.44,2.44,0,0,0-1.13-.26,2.41,2.41,0,0,0-1.13.26,1.78,1.78,0,0,0-.78.73,2,2,0,0,0-.29,1.08,2.08,2.08,0,0,0,.29,1.08,1.9,1.9,0,0,0,.78.73A2.41,2.41,0,0,0,559.46,179.13Z"/><g id="SvgjsG1068"><path d="M550.87,290.25a.59.59,0,0,0-.59.59.6.6,0,0,0,.59.6,1.79,1.79,0,0,1,1.79,1.78v16.06h-4.17v-23.2a.59.59,0,0,0-.59-.59H525.29a.6.6,0,0,0-.59.59v23.2h-4.16V293.22a1.78,1.78,0,0,1,1.78-1.78.6.6,0,0,0,.6-.6.59.59,0,0,0-.6-.59,3,3,0,0,0-3,3v17.85a3,3,0,0,0,3,3h10.11v3.57h-.59a3,3,0,0,0-3,3,.6.6,0,0,0,.6.6h14.27a.6.6,0,0,0,.6-.6,3,3,0,0,0-3-3h-.59V314h10.11a3,3,0,0,0,3-3V293.22A3,3,0,0,0,550.87,290.25Zm-25-3.57H547.3v22.6H525.89Zm15.46,32.12A1.8,1.8,0,0,1,543,320H530.15a1.8,1.8,0,0,1,1.69-1.19Zm-7.73-1.19V314h6v3.57Zm19-6.54a1.79,1.79,0,0,1-1.79,1.78H522.32a1.78,1.78,0,0,1-1.78-1.78v-.6h32.12Z"/><path class="cls-2" d="M534.81,296.2a.6.6,0,0,0,.6.59h2.38a.6.6,0,0,0,.59-.59v-1.79h1.79a.6.6,0,0,0,.59-.59v-2.38a.6.6,0,0,0-.59-.6h-1.79v-1.78a.6.6,0,0,0-.59-.6h-2.38a.6.6,0,0,0-.6.6v1.78H533a.6.6,0,0,0-.6.6v2.38a.6.6,0,0,0,.6.59h1.78Zm-1.19-3V292h1.79a.6.6,0,0,0,.59-.59v-1.79h1.19v1.79a.6.6,0,0,0,.6.59h1.78v1.19h-1.78a.6.6,0,0,0-.6.6v1.78H536v-1.78a.6.6,0,0,0-.59-.6Zm-2.26,5L530,300.05l-.7-.7a.59.59,0,1,0-.84.84l1.19,1.19a.59.59,0,0,0,.42.17h0a.58.58,0,0,0,.43-.24l1.79-2.38a.59.59,0,0,0-1-.71Zm13,.95H534.22a.6.6,0,1,0,0,1.19h10.11a.6.6,0,0,0,0-1.19Zm-13,4.42L530,305.42l-.7-.7a.59.59,0,1,0-.84.84l1.19,1.19a.59.59,0,0,0,.42.17h0a.58.58,0,0,0,.43-.24l1.79-2.38a.59.59,0,0,0-1-.71Zm13,1H534.22a.6.6,0,1,0,0,1.19h10.11a.6.6,0,0,0,0-1.19Z"/></g><g id="SvgjsG1045"><path d="M518.08,126.76a3.08,3.08,0,0,0-1.3-1.23,3.15,3.15,0,0,0-3,.08l-7.86,4.54a3.09,3.09,0,0,0-1-1.75,3.18,3.18,0,0,0-2.08-.78h-6.39a.79.79,0,0,1-.56-.23l-.19-.19a3.89,3.89,0,0,0-2.77-1.15h-6l-.4,0a3.92,3.92,0,0,0-2.38,1.13l-2.05,2-.73-.73a.8.8,0,0,0-1.11,0l-6,6a.79.79,0,0,0,0,1.11h0l11.07,11.08a.78.78,0,0,0,1.11,0h0l6-6a.8.8,0,0,0,0-1.11l-.63-.62.17-.16a.75.75,0,0,1,.55-.23h10.26a3.87,3.87,0,0,0,2-.53l12.15-7a3.13,3.13,0,0,0,1.15-4.28ZM485.91,145l-10-10,4.89-4.89,10,10Zm30.24-15.36-12.16,7a2.31,2.31,0,0,1-1.17.32H492.56a2.3,2.3,0,0,0-1.66.68l-.16.17-7.51-7.51,2-2.06a2.36,2.36,0,0,1,1.42-.67H493a2.33,2.33,0,0,1,1.66.68l.19.2a2.31,2.31,0,0,0,1.67.68h6.39a1.58,1.58,0,0,1,1.05.4,1.53,1.53,0,0,1,.52,1,1.52,1.52,0,0,1-.11.73,1.47,1.47,0,0,1-.35.55,1.57,1.57,0,0,1-1.11.46h-5.15a.78.78,0,0,0,0,1.56h5.15a3.12,3.12,0,0,0,2.22-.92,3,3,0,0,0,.61-.87l8.88-5.12a1.54,1.54,0,0,1,1.5,0,1.48,1.48,0,0,1,.64.6,1.57,1.57,0,0,1-.57,2.14Z"/><path class="cls-2" d="M513.84,100.21H501.31a.78.78,0,0,0-.78.78v4.7a.78.78,0,0,0,.78.78h1.56v15.67a4.7,4.7,0,0,0,9.4,0V106.47h1.57a.78.78,0,0,0,.78-.78V101A.78.78,0,0,0,513.84,100.21Zm-10.18,4.7h-1.57v-3.14h1.57Zm4.7-3.14h1.56v3.14h-1.56Zm-3.14,0h1.57v3.14h-1.57Zm5.49,20.37a3.14,3.14,0,0,1-6.27,0v-9.41l6.27,0Zm0-11-6.27,0v-4.69h6.27Zm2.35-6.22h-1.57v-3.14h1.57Z"/></g><g id="SvgjsG1038"><path d="M302.6,38.87a62.26,62.26,0,0,1-11.08,6.8c-2-.88-13.55-6.77-17.66-14h4.58a.73.73,0,0,0,.69-.48l1.47-3.9,1.46,3.9a.73.73,0,0,0,.69.48h1.64l2,5.25a.73.73,0,0,0,.94.43.76.76,0,0,0,.43-.43l3.62-9.62,1.46,3.89a.73.73,0,0,0,.69.48h3.15a.74.74,0,1,0,0-1.47H294l-2-5.25a.73.73,0,0,0-.69-.48h0a.72.72,0,0,0-.68.48l-3.62,9.62-1.47-3.9a.74.74,0,0,0-.69-.47h-1.64l-2-5.25a.73.73,0,0,0-.94-.43.7.7,0,0,0-.43.43l-2,5.25h-4.79a8.85,8.85,0,0,1-.73-3.8c.22-9.76,11.76-13.88,18.65-7.23a.75.75,0,0,0,.92,0l1.15-.92c6-5,15.8-1.59,17.27,6a.73.73,0,0,0,1.44-.29,12,12,0,0,0-7.77-8.84,12.38,12.38,0,0,0-12.55,2.48l-.7-.55c-7.82-6.37-20-.66-19.88,9.5a9.73,9.73,0,0,0,.63,3.62.71.71,0,0,0-.63.71.74.74,0,0,0,.73.74h.53c4.29,8.44,18.11,15.33,19.32,15.51a52.71,52.71,0,0,0,12-7.19.73.73,0,1,0-.91-1.15Z"/><path class="cls-2" d="M305.48,24.35A6.62,6.62,0,1,0,312.1,31h0A6.63,6.63,0,0,0,305.48,24.35Zm0,11.76A5.15,5.15,0,1,1,310.63,31a5.15,5.15,0,0,1-5.15,5.15Z"/><path class="cls-2" d="M307.54,28.73l-2.92,2.91-1.19-1.2a.74.74,0,1,0-1,1l1.72,1.72a.74.74,0,0,0,1,0h0l3.43-3.43a.73.73,0,0,0,0-1,.72.72,0,0,0-1,0Z"/></g><g id="SvgjsG1015"><path class="cls-3" d="M103.57,139.91l-16.07-.78a1.93,1.93,0,0,1-1.83-2l1.46-30.28a1.92,1.92,0,0,1,2-1.83l4.72.22a1.28,1.28,0,0,0,1.23,1.25l10,.48a1.27,1.27,0,0,0,1.34-1.12l4.72.23a1.91,1.91,0,0,1,1.83,2L112.14,125"/><path class="cls-3" d="M106.42,105.72s0,.07,0,.11a1.27,1.27,0,0,1-1.34,1.12l-10-.48a1.28,1.28,0,0,1-1.23-1.25.17.17,0,0,1,0-.1,1.29,1.29,0,0,1,1.35-1.23l2.67.13a2.54,2.54,0,0,1-.14-1,2.5,2.5,0,1,1,4.77,1.18l2.67.13a1.28,1.28,0,0,1,.89.43A1.27,1.27,0,0,1,106.42,105.72Z"/><circle class="cls-3" cx="100.38" cy="114.33" r="4.42"/><polygon class="cls-4" points="103.03 113.58 101.3 113.49 101.38 111.76 99.63 111.68 99.55 113.41 97.82 113.32 97.73 115.08 99.47 115.16 99.38 116.89 101.13 116.97 101.21 115.25 102.94 115.33 103.03 113.58"/><path class="cls-4" d="M94.19,121.9a2.23,2.23,0,1,1-2.11-2.33A2.22,2.22,0,0,1,94.19,121.9Z"/><line class="cls-3" x1="96.22" y1="120.86" x2="108.98" y2="121.47"/><line class="cls-3" x1="96.11" y1="123.14" x2="102.2" y2="123.43"/><path class="cls-4" d="M93.91,127.85a2.23,2.23,0,1,1-2.12-2.34A2.25,2.25,0,0,1,93.91,127.85Z"/><line class="cls-3" x1="95.93" y1="126.8" x2="100.89" y2="127.04"/><line class="cls-3" x1="95.82" y1="129.08" x2="99.42" y2="129.26"/><path class="cls-3" d="M119.35,140.67l-16-.77a1.05,1.05,0,0,1-1-1.09l.47-9.71a1,1,0,0,1,1.1-1l16,.77a1,1,0,0,1,1,1.09l-.47,9.71A1,1,0,0,1,119.35,140.67Z"/><circle class="cls-3" cx="111.62" cy="134.39" r="4.06"/><path class="cls-3" d="M114.63,128.62l-5.46-.26.09-1.94a1.46,1.46,0,0,1,1.53-1.38l2.54.12a1.46,1.46,0,0,1,1.38,1.53l-.09,1.93Z"/><rect class="cls-3" x="117.02" y="126.31" width="1.82" height="3.13" transform="translate(-15.48 239.5) rotate(-87.24)"/><rect class="cls-3" x="105.05" y="125.73" width="1.82" height="3.13" transform="translate(-26.3 226.99) rotate(-87.24)"/><polygon class="cls-4" points="113.84 133.69 112.47 133.62 112.53 132.24 110.91 132.16 110.84 133.54 109.47 133.47 109.39 135.09 110.77 135.16 110.7 136.53 112.32 136.61 112.39 135.23 113.77 135.3 113.84 133.69"/><path class="cls-4" d="M93.62,133.79a2.23,2.23,0,1,1-2.12-2.33A2.23,2.23,0,0,1,93.62,133.79Z"/><line class="cls-3" x1="95.65" y1="132.74" x2="100.35" y2="132.97"/><line class="cls-3" x1="95.54" y1="135.03" x2="99.14" y2="135.2"/></g><path class="cls-5" d="M51.28,284.24h.77c.19.21.44.13.66.13h23.8c.23,0,.48.08.67-.13h.64c1.85.63,2.41,2,2.34,3.83s0,3.93,0,5.9c0,.42,0,.67.56.66s.66-.18.6-.64a2.54,2.54,0,0,1,0-.39c0-.36.1-.64.52-.66s.59.25.63.65c.09,1,.1,1,1.13,1h.26c1.42.06,2.06.7,2.06,2.12v12c0,1.4-.61,2-2,2.08-1,0-2.09,0-3.14,0-.49,0-.61.13-.6.61q0,3.34,0,6.67A3,3,0,0,1,77,321.17H52a3.26,3.26,0,0,1-1.59-.4A4,4,0,0,1,49,319v-.9c.21-.19.12-.44.12-.67q0-14.71,0-29.44c0-.23.09-.48-.12-.67v-.9A3.7,3.7,0,0,1,51.28,284.24ZM64.55,320H76.86A1.87,1.87,0,0,0,79,317.91c0-1,0-1.92,0-2.88,0-.58-.14-.76-.75-.75-7,0-14.1,0-21.15,0a2.28,2.28,0,0,1-.82-.09.54.54,0,0,1-.37-.6.48.48,0,0,1,.44-.47,6.8,6.8,0,0,1,.9-.06H77.37c1.67,0,1.65,0,1.63-1.66,0-.48-.16-.61-.63-.61q-3.75,0-7.5,0c-1.69,0-2.28-.61-2.29-2.28V297c0-1.8.58-2.38,2.38-2.39,1,0,1,0,1.08-1a1.09,1.09,0,0,1,0-.25.52.52,0,0,1,.64-.39.47.47,0,0,1,.46.51,4.34,4.34,0,0,1,0,.51c-.06.5.15.66.66.65,1.49,0,3,0,4.48,0,.56,0,.69-.19.68-.7,0-2.12,0-4.23,0-6.35,0-1.53-.66-2.18-2.19-2.18-8.16,0-16.32,0-24.48,0a2.05,2.05,0,0,0-2.22,2.23c0,8,0,16.07,0,24.11,0,1.36,0,1.36,1.38,1.36.88,0,1.75,0,2.63,0a.54.54,0,0,1,.58.49.51.51,0,0,1-.3.57,1.77,1.77,0,0,1-.75.13c-1,0-2,0-3,0-.42,0-.55.14-.54.56,0,1,0,2.05,0,3.07A1.86,1.86,0,0,0,52.24,320Zm12.68-10.39h6.4c1,0,1.12-.1,1.12-1.08v-7.82c0-1.45,0-1.45-1.44-1.49-.44,0-.87-.06-.85-.62s.45-.52.85-.52c1.56,0,1.65-.12,1.44-1.7,0-.21-.09-.41-.28-.47a3.39,3.39,0,0,0-1.89-.06c-.33.08-.06.66-.14,1,0,.06,0,.13,0,.19-.07.34-.32.42-.62.41a.46.46,0,0,1-.5-.47,4.56,4.56,0,0,1,0-.64c0-.42-.12-.56-.55-.56q-3.48,0-7,0c-.45,0-.63.14-.59.59a3.42,3.42,0,0,1,0,.64.47.47,0,0,1-.52.44c-.29,0-.52-.08-.58-.38a1.59,1.59,0,0,1,0-.57c.12-.63-.17-.74-.74-.72-1.58.05-1.55,0-1.58,1.59,0,.57.16.72.72.72,3.25,0,6.49,0,9.74,0a4.34,4.34,0,0,1,.51,0c.34,0,.57.2.58.55s-.25.53-.58.57a5.42,5.42,0,0,1-.57,0c-3.25,0-6.5,0-9.74,0-.5,0-.66.12-.66.64,0,2.9,0,5.81,0,8.71,0,.94.12,1.05,1.09,1.05Z"/><path class="cls-6" d="M49,287.32c.21.19.12.44.12.67q0,14.72,0,29.44c0,.23.09.48-.12.67Z"/><path class="cls-6" d="M77.18,284.24c-.19.21-.44.13-.67.13H52.71c-.22,0-.47.08-.66-.13Z"/><path class="cls-7" d="M65.61,304.82c.51.46.94.83,1.35,1.23s.63.53.37,1-.66.28-1,.18c-2.11-.61-4.22-1.21-6.33-1.84a7.13,7.13,0,0,0-2.38-.36c-1.11,0-2.22,0-3.34,0a2.78,2.78,0,0,1-2.94-2.68c-.08-.93-.05-1.88-.05-2.82v-7.37a3.08,3.08,0,0,1,1.73-3,2.76,2.76,0,0,1,1.24-.25c3.4,0,6.79,0,10.19,0a3,3,0,0,1,3,3c0,2.37,0,4.74,0,7.11,0,.73,0,1.46,0,2.18C67.49,302.63,67.29,304,65.61,304.82Zm-1.11.66.07-.15c-.12-.14-.25-.27-.36-.42-.41-.5-.24-.93.4-1.05a1.78,1.78,0,0,0,1.68-2V292a1.78,1.78,0,0,0-2-2H54.47c-1.39,0-2,.65-2,2,0,3.23,0,6.46,0,9.68a2,2,0,0,0,2.16,2.15,17.37,17.37,0,0,1,7.56.91C62.89,305.08,63.71,305.25,64.5,305.48Z"/><path class="cls-7" d="M58.78,310.81H54.69a3.2,3.2,0,0,1-.7-.07.49.49,0,0,1-.4-.57.51.51,0,0,1,.47-.52h9.22c.44,0,.71.18.67.64s-.45.52-.81.52c-1.22,0-2.44,0-3.65,0Z"/><path class="cls-8" d="M64.57,318.85a1.74,1.74,0,0,1-1.75-1.67,1.73,1.73,0,1,1,3.45,0A1.73,1.73,0,0,1,64.57,318.85Zm.53-1.64c0-.43-.15-.64-.52-.65a.57.57,0,1,0,0,1.14A.49.49,0,0,0,65.1,317.21Z"/><path class="cls-5" d="M60.46,308.48H57.78c-.41,0-.74-.09-.73-.59s.35-.58.75-.58h5.44c.4,0,.72.11.72.61s-.35.56-.74.56Z"/><path class="cls-6" d="M67.37,287.71h-1.6c-.36,0-.62-.15-.64-.56s.25-.58.61-.58c1.13,0,2.26,0,3.38,0a.56.56,0,0,1,.62.59c0,.4-.28.55-.64.56Z"/><path class="cls-9" d="M62.81,287.72a5.27,5.27,0,0,1-.7,0,.49.49,0,0,1-.44-.54.49.49,0,0,1,.42-.55,4.3,4.3,0,0,1,1.34,0,.53.53,0,0,1,.53.59c0,.38-.24.52-.58.54a5.42,5.42,0,0,1-.57,0Z"/><path class="cls-10" d="M81.82,303.86c-1.78,0-1.7.22-1.69-1.68a7.69,7.69,0,0,0,0-1c0-.57.19-.84.76-.84h2c.46,0,.71.22.7.71,0,.68,0,1.37,0,2,0,.51-.19.75-.72.71C82.51,303.83,82.17,303.86,81.82,303.86Zm.59-1.74c.12-.48-.12-.55-.55-.57s-.6.16-.6.63.17.55.59.56S82.53,302.61,82.41,302.12Z"/><path class="cls-11" d="M72.65,308.48c-1.65,0-1.78.43-1.78-1.76,0-1.91,0-1.71,1.7-1.72,2,0,1.77,0,1.79,1.81S74.4,308.48,72.65,308.48Zm-.58-1.74c-.1.49.1.63.58.63s.58-.14.58-.58-.12-.63-.61-.61S72,306.27,72.07,306.74Z"/><path class="cls-10" d="M77.22,303.85h-.83c-.74,0-.87-.12-.88-.83s0-1.24,0-1.86.2-.76.71-.76h2c.55,0,.75.29.74.81s0,1.19,0,1.79-.15.85-.87.85Zm0-1.14c.41.07.63,0,.62-.52s-.08-.65-.59-.64-.63.14-.63.62S76.79,302.8,77.23,302.71Z"/><path class="cls-10" d="M77.24,308.48c-1.78,0-1.75.25-1.74-1.72,0-1.81-.2-1.76,1.78-1.76s1.7,0,1.71,1.71C79,308.79,79,308.46,77.24,308.48Zm0-2.28c-.48-.11-.63.1-.63.58s.15.59.59.59.64-.14.63-.62S77.73,306.1,77.26,306.2Z"/><path class="cls-11" d="M72.63,303.85c-1.75,0-1.75,0-1.75-1.76s0-1.7,1.72-1.71c2.07,0,1.74,0,1.76,1.77C74.38,304.1,74.44,303.85,72.63,303.85Zm0-1.15c.44.12.55-.08.56-.53s-.12-.61-.61-.62-.56.21-.57.64S72.21,302.8,72.67,302.7Z"/><path class="cls-12" d="M83.58,307.87a.61.61,0,0,1-.86.52,1,1,0,0,1-.38-.33c-.35-.48-.67-.42-1,0a1.18,1.18,0,0,1-.33.3.49.49,0,0,1-.69-.06.52.52,0,0,1-.09-.74.81.81,0,0,1,.21-.24c.6-.4.56-.78,0-1.21-.31-.24-.49-.58-.12-.92s.69-.18.93.14c.44.58.8.55,1.23,0,.23-.3.53-.53.91-.15a.54.54,0,0,1-.1.92c-.61.45-.56.85,0,1.27A.63.63,0,0,1,83.58,307.87Z"/><path class="cls-8" d="M53.6,296.9c0-.51,0-1,0-1.53s.23-.7.68-.71c.71,0,1.41,0,2.12,0,.47,0,.69-.1.66-.64-.06-.7,0-1.41,0-2.11,0-.53.23-.78.78-.77,1,0,2,0,3.07,0,.59,0,.81.25.79.82s0,1.45,0,2.17c0,.39.11.54.5.52.75,0,1.5,0,2.24,0,.48,0,.73.2.73.68v3.2c0,.51-.27.71-.78.69-.73,0-1.46,0-2.18,0-.39,0-.53.12-.51.52,0,.74,0,1.49,0,2.24a.65.65,0,0,1-.74.75c-1,0-2.09,0-3.13,0-.56,0-.77-.28-.77-.79,0-.69,0-1.37,0-2.05s-.18-.7-.7-.67c-.68,0-1.36,0-2.05,0-.53,0-.72-.22-.71-.73S53.6,297.44,53.6,296.9Zm8.75-1.14v0h-1c-.78,0-.87-.11-.87-.91s0-1.36,0-2.05c0-.37-.09-.55-.5-.53a9.11,9.11,0,0,1-1.28,0c-.42,0-.57.14-.56.55,0,.75,0,1.5,0,2.25,0,.47-.2.71-.69.69-.71,0-1.42,0-2.12,0-.5,0-.7.11-.63.63s-.24,1.27.14,1.58,1,.1,1.54.1c2,0,1.75,0,1.76,1.76s0,1.79,1.82,1.73c.39,0,.54-.12.52-.52,0-.7,0-1.41,0-2.11s.14-.85.87-.86,1.24,0,1.86,0,.8-.08.71-.68.23-1.22-.13-1.53S62.86,295.79,62.35,295.76Z"/><ellipse class="cls-13" cx="453.87" cy="203.63" rx="12.44" ry="26.34" transform="translate(-43.47 214.57) rotate(-25.42)"/><ellipse class="cls-13" cx="230.55" cy="114.59" rx="39.71" ry="18.75" transform="matrix(0.97, -0.26, 0.26, 0.97, -21.82, 63.66)"/><path class="cls-13" d="M118.87,303.3c.19,9.43-.79,31.12,21.68,56.61s43.93,33.37,54.83,35.72,39.24,8.38,73.95-.34,52.48-5,65.39-5,36.22,5.37,64.73-4.36,39.24-19.79,44.6-26,36.89-39.07,18.28-103.46c-20.88-33.45-32.45-43.51-36-80.24s-45.77-73.69-93.82-70.42-52.82,21.12-79,29.93-25.66,8.55-59.62,5-56.34,31.94-58.1,51.06-2.26,31.94,1,42.51S124.78,267.77,122,278.08,118.87,303.3,118.87,303.3Z"/><rect class="cls-14" x="260.32" y="170.9" width="89.86" height="4.98"/><rect class="cls-14" x="303.57" y="128.4" width="3.22" height="54.11"/><path class="cls-15" d="M230.33,234.2a9.67,9.67,0,0,1,4.59-1.69c2.89,3.13,14.33,13.25,15.91,14a38.32,38.32,0,0,0-.23-5.06c-.27-1.8-.64-3.66.2-5.44.46.58,1.34.68,1.65,1.43-.17.19-.47.37-.47.56a50.58,50.58,0,0,0,.17,8.87c.28,1.67.78,3.44-.4,5.1-.57.8.09,1.12,1.21,1.26V237.9a9.24,9.24,0,0,1,4.56,4.64c-.16,3.68,1,7.16,1.74,10.69,1.16,5.34,2.83,10.58,2.89,16.12,0,2.32-.74,4.48-1,6.73-.82,1.57-1.67,3.13-2.47,4.71-.44.87-.93,1.7-2,1.68-3.37-.1-6.71.42-9.91.56-1.76-1.86-1.76-4.41-3.37-6.2l-1.19.6a.63.63,0,0,0-.57.47h0a3.25,3.25,0,0,0-1.46.33,50.83,50.83,0,0,1-12.76,3.86,2.61,2.61,0,0,0-1,0c-1.68.87-2.29.17-2.91-1.46a162.27,162.27,0,0,1-4.89-16c-.31-1.13-.16-2.48-1.4-3.28,1.69,7.5,3.24,15,6.52,22.2l3.65-1.07c.34.53.41,1.21,1,1.59a42.18,42.18,0,0,0,4.74,9.79c1.73,2.59,3.94,4.77,7.3,4.95a31.22,31.22,0,0,0,6.32-.27c2.58-.38,5.08-1.36,7.73-1.23a25.64,25.64,0,0,0-1.33,7.17,32.84,32.84,0,0,0,.24,10.37,68.25,68.25,0,0,0,3.27,9.83c.55,1.43,1.19,2.82.87,4.4a6.5,6.5,0,0,0-3.44.74c-6.92,2.69-14.23,3.62-21.51,4.25a75.09,75.09,0,0,1-14.92.16c-1.32-.15-2.16-.46-2.05-1.92a14.06,14.06,0,0,0-.71-4.73c-.44-1.61.29-3.47-1.16-4.95-1.92,3.52-3,7.34-4.45,10.84-3.29-.23-6.18-1.18-9.14-1.81a3.43,3.43,0,0,1-2.88-1.35,8.84,8.84,0,0,0,.33-1.5c.19-6.69,2.14-13,4.39-19.19.48-1.34,1.38-2.56,1.33-4.07l.48-1.05c.72-.56.76-1.48,1.13-2.22a66.8,66.8,0,0,0,7-24.31c.57-6.84,1.13-13.68,2.13-20.48.88-6,2-11.89,5.68-17a30,30,0,0,1,7.78-5.47,4.91,4.91,0,0,1,2.38-.75c.09.1.18.29.26.28C230.36,234.63,230.32,234.39,230.33,234.2Zm13.35,11.48a.68.68,0,0,0,.1.21s.11,0,.16,0l-.26-.25a.64.64,0,0,0-.5-.52.66.66,0,0,0-.52-.51.65.65,0,0,0-.51-.51.68.68,0,0,0-.1-.21s-.11,0-.17,0l.26.26a.65.65,0,0,0,.52.51.67.67,0,0,0,.51.51A.67.67,0,0,0,243.68,245.68ZM237,240a.62.62,0,0,0-.51-.5.9.9,0,0,0-1-1l-.28-.25.26.28c0,.69.34,1,1,1a.64.64,0,0,0,.5.51l.29.25Zm11.26,9.22L248,249l.26.27a.68.68,0,0,0,.51.51.89.89,0,0,0,1,1,.74.74,0,0,0,.1.22s.11,0,.17,0l-.26-.25a.89.89,0,0,0-1-1ZM234,237.5l.28.25-.26-.27c-.05-.42-.06-.87-.67-.82-.07,0-.17.11-.18.17C233.07,237.44,233.53,237.45,234,237.5Zm-2-1.54a.81.81,0,0,0,.1.21s.11,0,.16,0l-.26-.26c0-.42,0-.87-.66-.82a.23.23,0,0,0-.17.17C231,235.91,231.49,235.9,231.91,236Zm6.66,5.1-.28-.24.26.27a1.42,1.42,0,0,0,1.54,1.53l.28.25-.26-.27A1.42,1.42,0,0,0,238.57,241.06Zm8.18,7.19a.68.68,0,0,0,.1.21s.11,0,.17,0l-.26-.27a1.41,1.41,0,0,0-1.54-1.53.68.68,0,0,0-.1-.21s-.11,0-.17,0l.26.26A1.42,1.42,0,0,0,246.75,248.25ZM234.7,305.1c.65,1.83.06,2.65-1.49,3-4.67,1.16-9.24,2.68-14,3.64-.48.1-1.09.16-1.18,1,5.58-1.09,11-2.82,16.41-4.22a1.27,1.27,0,0,0,1-1.33,4,4,0,0,0-.49-2.76c-5.77,1.06-11.37,3-17,4.75l.16.61ZM245.61,275c-1.94-7.69-4.9-15.05-7.67-22.46C240.19,260.13,242.32,267.76,245.61,275Zm3.95,37c-3.19,2.68-7,4.48-10.12,7.26A21.55,21.55,0,0,0,249.56,312Z"/><path class="cls-16" d="M346.08,174c1.25.14,2.53-.18,3.82.25.56,1.28,0,2.68.44,4.12,1.59.44,3.4.29,5,1,.17.08.61-.45.93-.7a3.53,3.53,0,0,0,0,.46c.41,1.11,1.52,1.26,2.4,1.68a16.68,16.68,0,0,1,9.43,11.13c.44.63.25,1.56,1,2.05,0,1.27.36,2.54.39,3.75.15,5.84-.73,11.43-5,15.94-.81.86-1.69,1.67-2.51,2.52a2,2,0,0,1-2,.78c.11-1.82-.54-3.74.65-5.37,4-.63,6-4,4.34-6.94a2.48,2.48,0,0,0-4.06-.77c-.71.57-1.06,1.55-2.21,1.91a40.05,40.05,0,0,1-4.26-8.21c-6.11-1.08-12.26-2.36-17.1-6.94-2.93,2.87-4.67,5.92-4.62,9.71a108.91,108.91,0,0,0,.47,12.5c.69,5.56,3.09,9.44,8.75,10.85-.46,1.15-1.46,1-2.38,1H308.42c-.58,0-1.21.13-1.69-.49-.16-14.64-.85-29.33-.59-44V174Zm-5.64,8.74a.81.81,0,0,0-.1-.21s-.1,0-.16,0l.25.26a3,3,0,0,0,2.71,2.49C342.38,183.81,341.76,182.88,340.44,182.71Zm-2.07,6.68c.32.58.65,1.1,1.45.71-.21-.94-.89-.67-1.41-.76a4.26,4.26,0,0,0-3.09-3.05c-.06-.25.12-.61-.32-.69-.24.39,0,.56.31.7A4.21,4.21,0,0,0,338.37,189.39Zm2.6,1.49-.3-.24.26.28a1.87,1.87,0,0,0,1.1,1c4.93,2.12,10.13,1.65,15.27,1.4.8,0,2.24.13,2.83-1.16a3.2,3.2,0,0,0-2.07,0c-5,1-10,1.11-14.9-.68A4.49,4.49,0,0,0,341,190.88Zm2.79-5.45c3.57,3.32,13.05,4,16.71,1.37C354.75,188.33,349.15,188.43,343.76,185.43Z"/><path class="cls-16" d="M260.53,189V174.23h43.8c.57,1.9.11,3.94.29,5.93V224.7h-40a4.88,4.88,0,0,1,.35-2.19,14.24,14.24,0,0,0,1.19-5c.16-2.1.31-4.2,1.51-6a15,15,0,0,0,2.57-4.1c3.11-6.81.68-13.43-6.06-16.67A17.83,17.83,0,0,1,260.53,189Z"/><path class="cls-16" d="M337.35,141.28c2.67,3.28,5.53,6.44,7.42,10.26,2.5,5,4.61,10.19,4.9,15.9,0,.84.61,1.6.5,2.48a4,4,0,0,1-.27,1.83l-3.84.71c-13-.1-26,0-39.1,0a20.59,20.59,0,0,1-.81-4.51q0-18.67,0-37.35c0-.41.07-.83.11-1.38a22,22,0,0,1,9,.49A47.87,47.87,0,0,1,333,137.81C334.49,138.87,335.71,140.35,337.35,141.28Z"/><path class="cls-16" d="M304.47,128.47v43.22a8,8,0,0,1-3.11.28c-5.17.23-10.37-.46-15.53.47-1.87.34-3.65-.66-5.55-.47a159.8,159.8,0,0,1-16.81.49c-.51,0-1,0-1.53,0a1.23,1.23,0,0,1-1.27-1.54c.59-4.26.94-8.55,2.48-12.64,5-13.16,13.93-22.33,27.16-27.16A51.42,51.42,0,0,1,304.47,128.47Z"/><path class="cls-17" d="M179.18,296.84c6.72.41,13.45.75,20.07,2.09.5.1,1,.18,1.48.32,3,.87,3,.93,3,4v1.27l-.48,1.05c-3.46,1.82-7.3,2-11.06,2.59-2,0-4,.78-6,.47-4.76,1-9.62.2-14.6.73-.09,4.34-.23,8.56-.53,12.77-.36,5-.28,10-.42,15-.24,8.74-.56,17.49-.67,26.24,0,1-.06,2,0,3a2.38,2.38,0,0,1-1.39,2.48,1.7,1.7,0,0,1-1.71-2c.07-1.18,0-2.37,0-3.56a78,78,0,0,0-.39-9.16c-.31-4.23-.31-8.49-.4-12.73-.18-7.91-.75-15.81-.72-23.73,0-2.79-.68-5.51-.54-8.58H150.5c-2-.73-4.1-.6-6.13-1a27.46,27.46,0,0,1-5.11-.48c-1.62-.4-3.26-.77-4.88-1.22a2.35,2.35,0,0,1-1.81-2.63c0-3.66-.07-3.67,3.51-4.57,1.22-.31,2.45-.55,3.67-.82,5-.48,9.92-1,14.88-1.41,1.86-.16,3.74-.11,5.61-.16.69.59.77,1.48,1.13,2.23a3.74,3.74,0,0,0,3.77,2.47c3.15-.11,6.3-.06,9.45,0a3.15,3.15,0,0,0,3.15-2.1C178.14,298.54,178.07,297.35,179.18,296.84Z"/><path class="cls-18" d="M260.53,189a17.83,17.83,0,0,0,3.67,1.73c6.74,3.24,9.17,9.86,6.06,16.67a15,15,0,0,1-2.57,4.1c-.91-1.87-3.09-1.26-4.68-2.23,1.73-2.24,2.9.19,4.3.41.37-4.35-.1-8.25-3.43-11.46-2.12,3.8-5.42,6-9,7.9-.56.29-1.37.35-1.47,1.22l0,0c-3.48.41-6.85,1.54-10.37,1.71a2.55,2.55,0,0,0-1.42-.18,3,3,0,0,0-3.71-1.29c-1.5.61-1.85,2.05-1.86,3.57a5.34,5.34,0,0,0,3.9,5.46l.15,2.47c-.87,1.05-.25,2.7-1.49,3.59-5.87-4-8.23-9.75-7.8-16.64-6-2.56-8.27-5.65-8.06-10.6.19-4.69,3.83-9.5,8.45-11.18,4.14-1.5,7.89-.32,11.41,3.69,5.73-2.63,11.37-1.7,16.92.84A6.11,6.11,0,0,0,260.53,189Z"/><path class="cls-19" d="M179.18,296.84c-1.11.51-1,1.7-1.44,2.59a3.15,3.15,0,0,1-3.15,2.1c-3.15,0-6.3-.08-9.45,0a3.74,3.74,0,0,1-3.77-2.47c-.36-.75-.44-1.64-1.13-2.23-.61-3.55-1.77-7-1.54-10.69h21.52a26,26,0,0,1-.94,8.68A7.34,7.34,0,0,0,179.18,296.84Z"/><path class="cls-14" d="M264.64,224.7h40V180.16h1.52c-.26,14.7.43,29.39.59,44,.48.62,1.11.49,1.69.49h31.15c.92,0,1.92.18,2.38-1l3.06.52c0,.69-.07,1.37-.11,2.06l-37,0a1.38,1.38,0,0,0-1.3.61c-.06,4.43.22,9.1-.51,13.71h-1.49V226.24h-3.23l-37.77-.06A1.48,1.48,0,0,1,264.64,224.7Z"/><path class="cls-20" d="M238.63,222.6c1.24-.89.62-2.54,1.49-3.59,1.46.77,1.8,2.34,2.57,3.61a6.71,6.71,0,0,0,1.34,4.73c1.72,2.79,3.49,5.55,6.9,6.59,0,.69-.09,1.38-.13,2.07-.84,1.78-.47,3.64-.2,5.44a38.32,38.32,0,0,1,.23,5.06c-1.58-.75-13-10.87-15.91-14A25.06,25.06,0,0,0,238.63,222.6Z"/><path class="cls-21" d="M166.47,281.42a16.61,16.61,0,0,0-.59-3c-.18-1.29-.91-1.81-2.17-2.08a15.28,15.28,0,0,1-9.93-6.89,26.35,26.35,0,0,1-3.69-10.07,1.89,1.89,0,0,1,2-.3c6.48,2.1,11.56,5.88,13.37,12.71a96.7,96.7,0,0,1,1.86,9.65Z"/><path class="cls-21" d="M176.6,258a32.56,32.56,0,0,1-5.08,5.15l-1-.07c-.11-1.87-1-3.54-1.19-5.43-.81-7.38,2.48-12.84,7.73-17.47.1-.09.33,0,.65,0,1.18,1,1.28,2.67,1.38,4.09.3,4.32.44,8.67-2.1,12.56A5,5,0,0,0,176.6,258Z"/><path class="cls-21" d="M186.76,267.67a5.26,5.26,0,0,0-1,2c-1.76,4.14-4.46,7.34-8.86,8.89a11.45,11.45,0,0,1-4.16.31c.28-6.42,4.08-10.37,8.88-13.67.54-.38,1.28-.47,1.68-1.08,1.06-.13,2.05-.89,3.32-.32C187.14,265,186.78,266.35,186.76,267.67Z"/><path class="cls-16" d="M166.47,281.42l.89.05h.58l1,0h11.88c.73,1.37.39,2.72.36,4,0,.47-.54.57-1,.64H158.7l-1.31-.18a11.43,11.43,0,0,1,0-4.57Z"/><path class="cls-21" d="M167.49,265.76a15.92,15.92,0,0,1-8.07-6.95,19.61,19.61,0,0,1-3-10.3C162.65,248,169.24,258.08,167.49,265.76Z"/><path class="cls-22" d="M170.47,281.49h-1c-.35-6.2.43-12.33,1.06-18.46l1,.07c.25,1.46-.33,2.83-.56,4.23C170.17,272,170.63,276.77,170.47,281.49Z"/><path class="cls-22" d="M168.94,281.5l-1,0c-.12-5,.21-10-.38-15A52.62,52.62,0,0,1,168.94,281.5Z"/><path class="cls-23" d="M230.33,234.2c0,.19,0,.43-.24.44-.08,0-.17-.18-.26-.28Z"/><path class="cls-24" d="M361.89,227.23c3.16,0,5.88,1.4,8.63,2.69.92.43,1.81.92,2.71,1.38a21.42,21.42,0,0,1,9,9.78,64.64,64.64,0,0,1,4.8,16.79c.69,4,.89,8.07,1.22,12.12a37.48,37.48,0,0,1-2.46,17.9,5.61,5.61,0,0,0-.25,4.37,21.51,21.51,0,0,0-3.77.07c-1.69.33-3.8.12-4.42,2.45-2.46,0-4.86.77-7.35.58-3.32-.25-6.59.71-9.91.52a3.52,3.52,0,0,0-1.92.61c-1.41.78-2.16,2.19-1.75,3.34.48,1.34,1.66,1.6,2.9,1.62,1.45,0,2.9,0,4.34,0a12.16,12.16,0,0,1,3.72.18,6.74,6.74,0,0,1,.06,3.15c-.88,4.83-1.36,9.72-2,14.58a37.06,37.06,0,0,1-14-2c-2.58-.81-3.35-2-3.38-4.69a70.88,70.88,0,0,1,1.22-10.89c1.21-.61,2.44.08,3.91-.79-1.72,0-3,0-4.25,0-2.19-.06-4.42.33-6.54-.56-.46-3-1.76-5.73-2.58-8.61.06-.41.05-.89.42-1.14a33.47,33.47,0,0,1,9.32-4.55.68.68,0,0,0,.55-.5,5.09,5.09,0,0,0,2.7-.56c2.47-1.12,5-2.11,7.45-3.28a33.61,33.61,0,0,0,6.21-3.34c-.79-.72-1.27-.08-1.73.14-2.06,1-4.16,1.92-6.22,2.92-2.81,1.36-5.91,2.13-8.41,4.12l-.49,0c0-6-.07-12.08,0-18.12a38.07,38.07,0,0,1,.69-6.29,115.37,115.37,0,0,1,6.67-21.78c1.05-2.65,2.56-5.16,2.83-8.1h0a.53.53,0,0,0,.49-.53h0c.53-.18.54-.61.51-1.06l.54-1.45A.94.94,0,0,0,361.89,227.23ZM367.38,278a3,3,0,0,0,1.21-2.63c.05-1.62-.39-3.21-.44-4.78-.17-4.83-1.22-9.55-1.72-14.33-.13-1.19-.09-2.62-1-3.72C365.77,261,368.11,269.19,367.38,278Z"/><path class="cls-19" d="M385.51,292.26a5.61,5.61,0,0,1,.25-4.37,37.48,37.48,0,0,0,2.46-17.9c-.33-4.05-.53-8.11-1.22-12.12a64.64,64.64,0,0,0-4.8-16.79,21.42,21.42,0,0,0-9-9.78c.66-.83,1.58-.44,2.37-.44,4.23,0,8.45.18,12.68.4,5.93.32,11.89,0,17.83.13,3.88.1,7.75.7,11.65.43l7.65,0v.51a12,12,0,0,0-7.17,5.31,15.75,15.75,0,0,0-2,5.71c-.84,4.2-1.41,8.46-2.11,12.69-.5,3-1.05,6-1.53,8.95-.79,5-1.59,10-2.31,15-.62,4.25-1.58,8.44-1.8,12.75a13.21,13.21,0,0,0-6.59-1.52,116.74,116.74,0,0,0-12.68.47A18.17,18.17,0,0,0,385.51,292.26Z"/><path class="cls-20" d="M361.42,228.3l-.54,1.45a1,1,0,0,0-.51,1.06h0a.62.62,0,0,0-.49.53h0c-.53.13-.81.58-1.2.9-3.06,2.5-6.35,4.43-10.51,4.21a4.43,4.43,0,0,1-4.49-4,11.73,11.73,0,0,1,.38-2.72,3.36,3.36,0,0,0,.51-1.6l.45-.41a26.47,26.47,0,0,0,4.42-2c2.15-1.33,4.33-2.66,5.35-5.18l.24-.27-.27.24c-1.1,0-1.79.89-2.63,1.4-2.21,1.32-4.79,1.35-7.12,2.24L342,223.7c-5.66-1.41-8.06-5.29-8.75-10.85a108.91,108.91,0,0,1-.47-12.5c-.05-3.79,1.69-6.84,4.62-9.71,4.84,4.58,11,5.86,17.1,6.94a40.05,40.05,0,0,0,4.26,8.21c1.15-.36,1.5-1.34,2.21-1.91a2.48,2.48,0,0,1,4.06.77c1.68,2.93-.38,6.31-4.34,6.94-1.19,1.63-.54,3.55-.65,5.37-.12,3.51-.14,7,1.46,10.28ZM344,216a17.21,17.21,0,0,1-4.72-.34c2.13,1.82,3,1.84,4.8.43.23-.09.62.07.65-.38C344.34,215.44,344.15,215.67,344,216Zm-3.53-11.52c-.51,1.78-1.28,3.41-1.91,5.1a2.11,2.11,0,0,0,3.32,2.37c-.68-.91-1.83-.07-2.35-1C339.45,208.7,341.54,206.83,340.46,204.43Zm3.33-3.39c2.44-.09,4.22,1.09,6.4,1.56C348.44,199.58,345.46,198.73,343.79,201Zm-10.27,1c1.58-.54,3.28-.27,4.88-.77C337.28,199.17,335.24,199.48,333.52,202Zm3.05,5.31c1.39-1.76,1.39-1.76-.2-3.12C334.94,205.69,334.94,205.69,336.57,207.34Zm9.54.12c1.34-2,1.33-2.11-.47-3.35C344.85,205.29,344.62,206.31,346.11,207.46Z"/><path class="cls-25" d="M369.09,194c-.72-.49-.53-1.42-1-2.05.82,0,.87-.36.69-1.16-1.46-6.19-5.63-10.62-12.52-11.65a3.53,3.53,0,0,1,0-.46,7.32,7.32,0,0,1,6.37-4.65,10.07,10.07,0,0,1,9.63,4c3.08,3.92,3.45,11-.55,14.65A4.41,4.41,0,0,1,369.09,194Z"/><path class="cls-26" d="M361.42,228.3l0-1.06h.44A.94.94,0,0,1,361.42,228.3Z"/><path class="cls-22" d="M408.52,292.75c.22-4.31,1.18-8.5,1.8-12.75.72-5,1.52-10,2.31-15,.48-3,1-6,1.53-8.95.7-4.23,1.27-8.49,2.11-12.69a15.75,15.75,0,0,1,2-5.71,12,12,0,0,1,7.17-5.31l.53,0c2.61-.13,5,.24,7.05,2.17,2.81,2.6,3.06,5.85,2.53,9.16-1,6.15-2,12.29-3,18.44-.81,5-1.72,10-2.57,14.94-.66,3.9-1.35,7.79-1.93,11.7-.2,1.33-.78,2.62-.55,4a5.21,5.21,0,0,0-2.93-.52c-5,0-10,.59-15,1C409.07,293.29,408.69,293.21,408.52,292.75Z"/><path class="cls-22" d="M426.41,297.84c-1.12,6.63-2.11,13.27-3.41,19.87-1.07,5.43-1.79,10.94-2.73,16.41-.35,2-.89,3.93-1.33,5.9a6.67,6.67,0,0,1-3.4,4.52c-1.1-2.28-.67-4.94-1.82-7.2-.34-8.16.23-16.32-.5-24.49-.36-4-.51-7.93-1.13-11.86v-2.1C416.84,298.26,421.64,298.19,426.41,297.84Z"/><path class="cls-17" d="M413.72,337.34c1.15,2.26.72,4.92,1.82,7.2.52,5.27,1.25,10.52,2.11,15.75.17,1-.34,2.23.54,3.16.07,4.07.92,8.05,1.45,12.07.21,1.59.48,3.18.63,4.77.1,1.1.23,2.34-1.35,2.57-1.37.19-2.67-.05-3.13-1.53s-.77-3.28-1.12-4.94q-1.28-6.06-2.53-12.13a1.26,1.26,0,0,0-.49-.86c0-2.61-1.15-5-1.13-7.65l.05-1c1.19-1.08-.12-2.8,1-4,1.95.72.39,2.86,1.78,4.06.6-2.4.21-4.56.28-6.7Z"/><path class="cls-17" d="M426.41,297.84c-4.77.35-9.57.42-14.32,1.05a50.88,50.88,0,0,1-2.6-5.61c5-.45,10-1,15-1a5.21,5.21,0,0,1,2.93.52C428.44,294.73,428.26,296.46,426.41,297.84Z"/><path class="cls-27" d="M426,232.34l-.53,0v-.51A.67.67,0,0,1,426,232.34Z"/><path class="cls-15" d="M264.2,386.81c-1.7.38-2.88,1.72-4.52,2.29-4.07,1.43-8.26,1.21-12.35.79a132.22,132.22,0,0,1-17.2-2.89c-6.57-1.56-13.18-2.94-19.72-4.66-4.24-1.13-8.52-2.1-12.78-3.14a32.24,32.24,0,0,0-8.73-2.45c-1.5-.78-1.44-2.23-1.55-3.61.09-.24.28-.48.27-.71a38.06,38.06,0,0,1,2.28-13.61c.44-1.15,1.52-.95,2.42-1.13,2.15,1.12,4.58.28,6.8.92,2.39.14,4.74.81,7.16.71a7.05,7.05,0,0,0,2.45.55c4.14.65,8.35.93,12.43,2a1.33,1.33,0,0,0,.09.21.43.43,0,0,0,.17,0l-.26-.26c-1.84-2.74-4.63-4.43-7.11-6.47-1.91-2.82-4.69-4.84-6.75-7.56-3.32-4.38-5.89-9.06-6.7-14.57l9.42,2c1.73-2.57,1.44-5.88,3.5-8.77-.24,2.46.49,4.31.55,6.28.07,2.6.72,3.07,3.33,3,4.24-.14,8.47.07,12.73-.37a96.48,96.48,0,0,0,11.06-1.3c2.72-.61,3.86.5,5.15,2.37,4.31,6.28,8.95,12.35,12.7,19,3,5.4,6.15,10.76,7.79,16.82,1,3.77,1.38,7.42-.55,11.09C265.65,384.58,264.4,385.39,264.2,386.81Zm-40-22.88c-.41-.7-.81-1.4-2-1.38.16,1.36,1,1.41,1.94,1.39a1.3,1.3,0,0,0,.46,1.14c4.62,3.12,9.18,6.34,14.37,8.5.25.1.67.21.76-.53a89.46,89.46,0,0,1-9.19-5.12C228.55,366.52,226.64,364.82,224.24,363.93Z"/><path class="cls-23" d="M264.2,386.81c.2-1.42,1.45-2.23,2.08-3.42,1.93-3.67,1.57-7.32.55-11.09-1.64-6.06-4.74-11.42-7.79-16.82-3.75-6.66-8.39-12.73-12.7-19-1.29-1.87-2.43-3-5.15-2.37a96.48,96.48,0,0,1-11.06,1.3c-4.26.44-8.49.23-12.73.37-2.61.08-3.26-.39-3.33-3-.06-2-.79-3.82-.55-6.28-2.06,2.89-1.77,6.2-3.5,8.77l-9.42-2c-.52-.41-.38-1-.52-1.57,3,.63,5.85,1.58,9.14,1.81,1.43-3.5,2.53-7.32,4.45-10.84,1.45,1.48.72,3.34,1.16,4.95a14.06,14.06,0,0,1,.71,4.73c-.11,1.46.73,1.77,2.05,1.92a75.09,75.09,0,0,0,14.92-.16c7.28-.63,14.59-1.56,21.51-4.25a6.5,6.5,0,0,1,3.44-.74A202.63,202.63,0,0,1,276.68,356c1.45,2.48,2.35,5.27,4.26,7.48.21,2.29,1.45,4.27,2,6.5,1,4.51.73,8.67-2.46,12.29a1.4,1.4,0,0,0-.4,1.15l0,0c-.45,0-.87,0-1.05.54l0,0a.68.68,0,0,0-.54.54l0,0a.6.6,0,0,0-.55.54l0,0c-2.19.17-4.11,1.31-6.29,1.64A34.53,34.53,0,0,1,264.2,386.81Z"/><path class="cls-18" d="M325.5,379.34c1,2.2.67,4.53.47,6.79-.13,1.55-1.49,2.33-2.91,2.9-2.57,1-5.37.73-8,1.46-4.6,1.3-9.37,1.48-14.09,2a15.88,15.88,0,0,1-4-.47c-1.65-.27-3.12-.89-3.33-3a51.17,51.17,0,0,1-11.16,1,19.57,19.57,0,0,1-2-.09c-3.38-.5-4.08-2-2.43-5l0,0a.68.68,0,0,0,.55-.54l0,0c.3-.07.51-.2.54-.54l0,0a.91.91,0,0,0,1.05-.54l0,0c1.08-.11,1.76-1,2.7-1.37s1.77-1.11,2.87-.6c1,1.34,2.46,1.41,3.87,1.33a35.49,35.49,0,0,0,17.66-5.59c1.13.35.85,1.43,1.15,2.22-.91,1.45-2.58,1.85-3.87,2.78-.72.52-1.78.72-1.8,2A3.36,3.36,0,0,0,305,385.4a20.6,20.6,0,0,0,5.6-.15A44.55,44.55,0,0,0,325.5,379.34Z"/><path class="cls-18" d="M174,363.44a28,28,0,0,1,1.86-5.22,3.44,3.44,0,0,1,3.25-2,17.65,17.65,0,0,1,5.65,1.18c.35.13.43.48.46.83-2.37,1.75-3.33,4.44-4.43,7-1.52,3.5-2.75,7.15-2.62,11,.06,1.7.14,3.66,2.41,4.23a29.12,29.12,0,0,1-4.72,8.67,3.45,3.45,0,0,1-3.52,1.52c-1.61-.31-2.06-1.5-2.43-2.9-.84-3.08-.11-6.07.41-9.06C171.26,373.57,173.22,368.64,174,363.44Z"/><path class="cls-17" d="M149.83,313.64c-.09,3.31-1.14,6.47-1.62,9.72-.84,5.69-1.87,11.35-2.83,17-1.08,6.42-2.12,12.85-3.28,19.26a30.46,30.46,0,0,0-.33,3.79c-.81,1-.42,2.27-.93,3.34-.2.43-.1,1-.48,1.41s-1,1-1.75.75a1.36,1.36,0,0,1-.89-1.4c0-1.37,0-2.73,0-4.1.82-1.26.48-2.78.91-4.13.57-5.22,1.05-10.45,1.76-15.65.43-3.19.77-6.38,1.08-9.59.38-3.95.89-7.9,1.36-11.84.38-3.2.39-6.43,1.13-9.58C145.87,313.32,147.89,313.26,149.83,313.64Z"/><path class="cls-20" d="M180.62,380.51c-2.27-.57-2.35-2.53-2.41-4.23-.13-3.88,1.1-7.53,2.62-11,1.1-2.53,2.06-5.22,4.43-7,1.59-.15,3,.78,4.64.54a38.06,38.06,0,0,0-2.28,13.61c0,.23-.18.47-.27.71-2.07-.1-2.91,1.6-3.92,2.86A42.53,42.53,0,0,0,180.62,380.51Z"/><path class="cls-28" d="M188.9,376.75a32.24,32.24,0,0,1,8.73,2.45c-.6,1.22-1.21,2.44-1.79,3.67a6.82,6.82,0,0,1-1.7,2.21c-1.82,1.65-3.72,1.23-4.62-1S188.94,379.2,188.9,376.75Z"/><path class="cls-29" d="M342.45,300.41c2.12.89,4.35.5,6.54.56,1.27,0,2.53,0,4.25,0-1.47.87-2.7.18-3.91.79a70.88,70.88,0,0,0-1.22,10.89c0,2.73.8,3.88,3.38,4.69a37.06,37.06,0,0,0,14,2,24.9,24.9,0,0,0-.54,5.3c-6.25.55-12.5,1-18.78,1-3.72,0-7.43.35-11.06.54a4.88,4.88,0,0,0-.8,2.51c-.45,3.44-1,6.87-1.4,10.31s-.78,7.06-1.16,10.59a125.68,125.68,0,0,0-2,13.8c-.74,4.12-1.49,8.23-2.27,12.51-.33.64-1.45,0-1.86.79a127.42,127.42,0,0,1-13.24-.89,3.29,3.29,0,0,1-2-1c-.54-2.41.54-5.05-1.13-7.26-.26-1.63.63-3.12.51-4.77-.17-2.36-.2-4.71-.48-7.08-.39-3.34-.25-6.74-.47-10.13-.42-6.25.09-12.55-.63-18.81-.22-1.89.73-3.64.53-5.54-.33-3.11.56-6,1.54-8.92,1.26-3.68,8.09-10.14,12.87-9.33a19.94,19.94,0,0,0,2.57,3.23,1.4,1.4,0,0,0,2-.09c.49-.39.88-.68,1.57-.28,1.13.66,1.78-.06,2.52-.92,1.62-1.87,3.51-3.35,6.19-3.55A30.11,30.11,0,0,0,342.45,300.41Z"/><path class="cls-17" d="M364.92,324.66a24.9,24.9,0,0,1,.54-5.3c.59-4.86,1.07-9.75,2-14.58a6.74,6.74,0,0,0-.06-3.15,12.16,12.16,0,0,0-3.72-.18c-1.44,0-2.89,0-4.34,0-1.24,0-2.42-.28-2.9-1.62-.41-1.15.34-2.56,1.75-3.34a3.52,3.52,0,0,1,1.92-.61c3.32.19,6.59-.77,9.91-.52,2.49.19,4.89-.55,7.35-.58,3.55.08,4.72,1.08,5.09,4.41a10.58,10.58,0,0,1,0,1.26c-1.19.21-2.48-.42-3.59.42-.91.15-1.86-.13-2.78.3a16.91,16.91,0,0,0-1,4.87c-.57,4.32-2,8.52-1.88,12.94-.82,1.29-.37,2.73-.49,4.1a3.69,3.69,0,0,0-.51,2.47,5.87,5.87,0,0,0-.52,1.95c-.4,2.84-1,5.65-1.34,8.5-.51,4.37-1.65,8.65-1.75,13.06-1.17,4.73-1.71,9.56-2.49,14.36-1.19,7.05-2.45,14.09-3.51,21.15-.22,1.5-.44,3-.65,4.51s-1.31,2.2-3,2c-1.37-.18-1.93-.86-1.55-2.6,1-4.79,1.1-9.7,1.9-14.52.57-3.48.71-7,1-10.55.7-4.57,1.16-9.17,1.58-13.77q.62-5.26,1.24-10.52c.53-4.34,1.19-8.67,1.36-13.05Z"/><path class="cls-20" d="M312.34,375.81a127.42,127.42,0,0,0,13.24.89c0,.88-.05,1.76-.08,2.64a44.55,44.55,0,0,1-14.86,5.91,20.6,20.6,0,0,1-5.6.15,3.36,3.36,0,0,1-2.42-1.25c0-1.24,1.08-1.44,1.8-2,1.29-.93,3-1.33,3.87-2.78C310.16,378.79,312,378.17,312.34,375.81Z"/><path class="cls-17" d="M349.64,363.42c-.46-4-1.45-7.81-2.29-11.7a4,4,0,0,1-.16-1.49h2.47c1.16.47,2.31-.36,3.47,0,.69,4.4,1.19,8.83,2.21,13.18-.2,2,.46,4,.72,6,.14,1.09.23,2.17.28,3.26,0,.89-.09,1.75-1.13,2a2.31,2.31,0,0,1-2.53-.72,5.33,5.33,0,0,1-1-2.27c-.55-2.54-1.26-5-1.58-7.63C350.06,363.79,349.8,363.61,349.64,363.42Z"/><path class="cls-20" d="M276,290.73l-21.56,6.63c-2.65-.13-5.15.85-7.73,1.23a31.22,31.22,0,0,1-6.32.27c-3.36-.18-5.57-2.36-7.3-4.95a42.18,42.18,0,0,1-4.74-9.79,41,41,0,0,0,13.2-6s.06-.15.08-.23h0a.68.68,0,0,0,.57-.47l1.19-.6c1.61,1.79,1.61,4.34,3.37,6.2,3.2-.14,6.54-.66,9.91-.56,1.09,0,1.58-.81,2-1.68.8-1.58,1.65-3.14,2.47-4.71,1.82-.3,3.38-1.31,5.11-1.85,1,1.39.94,3.21,2,4.75,2.37-.26,4.78-.51,7.19-.8,3.42-.4,6.84-.84,10.25-1.26l.11,1.58c-3.34,2.65-7.4,1.78-11.25,2.06C274,284.25,275.21,287.46,276,290.73Z"/><path class="cls-23" d="M266.24,274.23c-1.73.54-3.29,1.55-5.11,1.85.28-2.25,1-4.41,1-6.73-.06-5.54-1.73-10.78-2.89-16.12-.76-3.53-1.9-7-1.74-10.69,1.36,1.58,1.72,3.7,2.88,5.39l6.69,21.91.57,3.2Z"/><path class="cls-14" d="M260.4,247.93c-1.16-1.69-1.52-3.81-2.88-5.39A9.24,9.24,0,0,0,253,237.9l-.51-.46c-.31-.75-1.19-.85-1.65-1.43,0-.69.09-1.38.13-2.07a7.52,7.52,0,0,0,.94-2.6,14.78,14.78,0,0,0,8.66-1.54C260.56,235.85,260.78,241.89,260.4,247.93Z"/><path class="cls-23" d="M234.7,305.1l-16.61,4.73-.16-.61c5.68-1.72,11.28-3.69,17-4.75a4,4,0,0,1,.49,2.76,1.27,1.27,0,0,1-1,1.33c-5.46,1.4-10.83,3.13-16.41,4.22.09-.85.7-.91,1.18-1,4.72-1,9.29-2.48,14-3.64C234.76,307.75,235.35,306.93,234.7,305.1Z"/><path class="cls-23" d="M227.34,282.53l-3.65,1.07c-3.28-7.16-4.83-14.7-6.52-22.2,1.24.8,1.09,2.15,1.4,3.28a162.27,162.27,0,0,0,4.89,16c.62,1.63,1.23,2.33,2.91,1.46a2.61,2.61,0,0,1,1,0A2.28,2.28,0,0,0,227.34,282.53Z"/><path class="cls-17" d="M227.34,282.53a2.28,2.28,0,0,1,0-.45,50.83,50.83,0,0,0,12.76-3.86,3.25,3.25,0,0,1,1.46-.33c0,.08,0,.2-.08.23a41,41,0,0,1-13.2,6C227.75,283.74,227.68,283.06,227.34,282.53Z"/><path class="cls-23" d="M245.61,275c-3.29-7.24-5.42-14.87-7.67-22.46C240.71,260,243.67,267.31,245.61,275Z"/><path class="cls-23" d="M252.45,237.44l.51.46v15.33c-1.12-.14-1.78-.46-1.21-1.26,1.18-1.66.68-3.43.4-5.1A50.58,50.58,0,0,1,252,238C252,237.81,252.28,237.63,252.45,237.44Z"/><path class="cls-23" d="M249.56,312a21.55,21.55,0,0,1-10.12,7.26C242.56,316.47,246.37,314.67,249.56,312Z"/><path class="cls-23" d="M245.22,246.7a1.41,1.41,0,0,1,1.54,1.53v0a1.42,1.42,0,0,1-1.54-1.54Z"/><path class="cls-23" d="M240.09,242.62a1.42,1.42,0,0,1-1.54-1.53l0,0a1.42,1.42,0,0,1,1.54,1.54Z"/><path class="cls-23" d="M236.51,239.55c-.69,0-1-.33-1-1l0,0a.9.9,0,0,1,1,1Z"/><path class="cls-23" d="M249.82,250.8a.89.89,0,0,1-1-1l0,0a.89.89,0,0,1,1,1Z"/><path class="cls-23" d="M231.91,236c-.42-.06-.88-.05-.83-.66a.23.23,0,0,1,.17-.17c.62,0,.62.4.66.82Z"/><path class="cls-23" d="M234,237.5c-.42-.05-.88-.06-.83-.67,0-.06.11-.17.18-.17.61,0,.62.4.67.82Z"/><path class="cls-23" d="M248.79,249.79a.68.68,0,0,1-.51-.51l0,0,.51.52Z"/><path class="cls-23" d="M242.14,244.15l-.26-.26c.06,0,.14,0,.17,0a.68.68,0,0,1,.1.21Z"/><path class="cls-23" d="M248.28,249.28,248,249l.28.24Z"/><path class="cls-23" d="M246.76,248.23l.26.27c-.06,0-.14,0-.17,0a.68.68,0,0,1-.1-.21Z"/><path class="cls-23" d="M242.66,244.66a.65.65,0,0,1-.52-.51h0a.65.65,0,0,1,.51.51Z"/><path class="cls-23" d="M240.11,242.6l.26.27-.28-.25Z"/><path class="cls-23" d="M238.55,241.09l-.26-.27.28.24Z"/><path class="cls-23" d="M237,240l.26.28-.29-.25Z"/><path class="cls-23" d="M242.66,244.65a.66.66,0,0,1,.52.51h0a.67.67,0,0,1-.51-.51Z"/><path class="cls-23" d="M243.18,245.16a.64.64,0,0,1,.5.52h0a.67.67,0,0,1-.51-.51Z"/><path class="cls-23" d="M236.53,239.53a.62.62,0,0,1,.51.5l0,0a.64.64,0,0,1-.5-.51Z"/><path class="cls-23" d="M245.21,246.71l-.26-.26c.06,0,.14,0,.17,0a.68.68,0,0,1,.1.21Z"/><path class="cls-23" d="M235.48,238.53l-.26-.28.28.25Z"/><path class="cls-23" d="M243.68,245.68l.26.25c-.05,0-.13,0-.16,0a.68.68,0,0,1-.1-.21Z"/><path class="cls-23" d="M234,237.48l.26.27-.28-.25Z"/><path class="cls-17" d="M242.17,277.43a.68.68,0,0,1-.57.47A.63.63,0,0,1,242.17,277.43Z"/><path class="cls-23" d="M249.83,250.8l.26.25c-.06,0-.14,0-.17,0a.74.74,0,0,1-.1-.22Z"/><path class="cls-23" d="M231.91,236l.26.26s-.13,0-.16,0a.81.81,0,0,1-.1-.21Z"/><path class="cls-27" d="M356.29,179.11c6.89,1,11.06,5.46,12.52,11.65.18.8.13,1.12-.69,1.16a16.68,16.68,0,0,0-9.43-11.13C357.81,180.37,356.7,180.22,356.29,179.11Z"/><path class="cls-25" d="M341,190.88a4.49,4.49,0,0,1,2.19.53c4.9,1.79,9.88,1.66,14.9.68a3.2,3.2,0,0,1,2.07,0c-.59,1.29-2,1.13-2.83,1.16-5.14.25-10.34.72-15.27-1.4a1.87,1.87,0,0,1-1.1-1Z"/><path class="cls-19" d="M343.76,185.43c5.39,3,11,2.9,16.71,1.37C356.81,189.45,347.33,188.75,343.76,185.43Z"/><path class="cls-25" d="M338.37,189.39a4.21,4.21,0,0,1-3.06-3.09h0a4.26,4.26,0,0,1,3.09,3.05Z"/><path class="cls-19" d="M340.44,182.71c1.32.17,1.94,1.1,2.7,2.5a3,3,0,0,1-2.71-2.49Z"/><path class="cls-25" d="M338.41,189.34c.52.09,1.2-.18,1.41.76-.8.39-1.13-.13-1.45-.71Z"/><path class="cls-25" d="M335.31,186.3c-.29-.14-.55-.31-.31-.7.44.08.26.44.32.69Z"/><path class="cls-25" d="M340.93,190.92l-.26-.28.3.24Z"/><path class="cls-19" d="M340.43,182.72l-.25-.26c.06,0,.13,0,.16,0a.81.81,0,0,1,.1.21Z"/><path class="cls-27" d="M260.53,229.8a14.78,14.78,0,0,1-8.66,1.54c-.34-.78-1.16-.92-1.77-1.33-2.41-1.66-4.86-3.29-6-6.17l.1-1.17a1,1,0,0,0,1-.6,41.75,41.75,0,0,0,2-6.56l1.21-.12,12.21.06c.48.26.91.63,1.52.48a5.18,5.18,0,0,0,4.06,1.56,14.24,14.24,0,0,1-1.19,5,4.88,4.88,0,0,0-.35,2.19,1.48,1.48,0,0,0-1,1.48C262.17,227,261.49,228.53,260.53,229.8Z"/><path class="cls-20" d="M260.6,215.45l-12.21-.06c-.82-.74-1.24-2-2.65-1.95l0,0c0-.34-.15-.5-.49-.5h0c.12-.48,0-.86-.5-1h0c-.26-1.14-1.43-1.76-1.65-2.92,3.52-.17,6.89-1.3,10.37-1.71,0,.46-.78.76-.18,1.39l2.41-.31c.76-.11,1.65.32,2.4-.47-.59-1.17-1.56-1-2.43-.92a7.68,7.68,0,0,1-2.23.34c.1-.87.91-.93,1.47-1.22,3.59-1.88,6.89-4.1,9-7.9,3.33,3.21,3.8,7.11,3.43,11.46-1.4-.22-2.57-2.65-4.3-.41,1.59,1,3.77.36,4.68,2.23-1.2,1.83-1.35,3.93-1.51,6a5.18,5.18,0,0,1-4.06-1.56c-.73-1.32,0-3.1-1.34-4.42A14,14,0,0,0,260.6,215.45ZM255.44,214c1.77-1.95,1.77-2.13,0-3.41C254.37,211.66,253.86,212.66,255.44,214Zm9.35-2c-1.55.5-1.92.92-1.64,1.87.18.62.61,1.13,1.27.87,1-.39.92-1.3.75-2.15C265.13,212.42,264.92,212.24,264.79,212.05Z"/><path class="cls-18" d="M192.19,308.19c.19,1.79.39,3.59.58,5.39-1.9.15-3.74,1-5.71.55l-.86-5.47C188.23,309,190.18,308.21,192.19,308.19Z"/><path class="cls-18" d="M144,312.64c-.19-1.53.53-3,.4-4.49,2,.41,4.15.28,6.13,1l-.67,4.48C147.89,313.26,145.87,313.32,144,312.64Z"/><path class="cls-20" d="M247.18,215.51a41.75,41.75,0,0,1-2,6.56,1,1,0,0,1-1,.6,23.65,23.65,0,0,1-3.05-5.44,1,1,0,0,0-1.16-.69,5.34,5.34,0,0,1-3.9-5.46c0-1.52.36-3,1.86-3.57a3,3,0,0,1,3.71,1.29,4,4,0,0,0,3.07,3.1h0c-.1.48-.05.88.5,1h0a.48.48,0,0,0,.49.5l0,0C245.7,214.49,246.5,215,247.18,215.51Z"/><path class="cls-19" d="M240,216.54a1,1,0,0,1,1.16.69,23.65,23.65,0,0,0,3.05,5.44l-.1,1.17-1.39-1.22c-.77-1.27-1.11-2.84-2.57-3.61Z"/><path class="cls-25" d="M244.71,211.9a4,4,0,0,1-3.07-3.1,2.55,2.55,0,0,1,1.42.18C243.28,210.14,244.45,210.76,244.71,211.9Z"/><path class="cls-16" d="M260.53,229.8c1-1.27,1.64-2.78,3.11-3.62l37.77.06h3.23v14.33c0,9.68,0,19.35-.07,29.15-6.37,0-12.33,0-18.3,0-6.39,0-12.79.07-19.18.11l-6.69-21.91C260.78,241.89,260.56,235.85,260.53,229.8Z"/><path class="cls-16" d="M345,227.76l-.45.41c-6.85,2.25-12.19,6.31-15.39,12.91a4.74,4.74,0,0,0-1.08,1.69A111.47,111.47,0,0,0,321,259.3c-1.19,3.42-2.16,6.93-4,10.12a25.75,25.75,0,0,0-7.59.16c-2.72.59-3.33.08-3.33-2.73q0-13.14,0-26.29c.73-4.61.45-9.28.51-13.71a1.38,1.38,0,0,1,1.3-.61l37,0Z"/><path class="cls-27" d="M306.13,240.56q0,13.16,0,26.29c0,2.81.61,3.32,3.33,2.73a25.75,25.75,0,0,1,7.59-.16c-.47,1.2-1.65,1.41-2.65,1.79-1.66.63-3.38,1.1-5.07,1.64-4.93-1.3-9.7-1.44-14.4,1.11a20.88,20.88,0,0,1-5.85,2.28c-1.14.24-2.41-.17-3.43.68-3.41.42-6.83.86-10.25,1.26-2.41.29-4.82.54-7.19.8-1.05-1.54-1-3.36-2-4.75l1.42-1.19-.57-3.2c6.39,0,12.79-.09,19.18-.11,6,0,11.93,0,18.3,0,0-9.8.05-19.47.07-29.15Z"/><path class="cls-17" d="M345,227.76l-.12-1.48c0-.69.07-1.37.11-2.06,2.33-.89,4.91-.92,7.12-2.24.84-.51,1.53-1.37,2.63-1.4l0,0c-1,2.52-3.2,3.85-5.35,5.18A26.47,26.47,0,0,1,345,227.76Z"/><path class="cls-17" d="M242.69,222.62l1.39,1.22c1.16,2.88,3.61,4.51,6,6.17.61.41,1.43.55,1.77,1.33a7.52,7.52,0,0,1-.94,2.6c-3.41-1-5.18-3.8-6.9-6.59A6.71,6.71,0,0,1,242.69,222.62Z"/><path class="cls-26" d="M344.06,229.77a11.73,11.73,0,0,0-.38,2.72,4.43,4.43,0,0,0,4.49,4c4.16.22,7.45-1.71,10.51-4.21.39-.32.67-.77,1.2-.9-.27,2.94-1.78,5.45-2.83,8.1a115.37,115.37,0,0,0-6.67,21.78,38.07,38.07,0,0,0-.69,6.29c-.09,6,0,12.08,0,18.12a3.93,3.93,0,0,0-.06.48,33.47,33.47,0,0,0-9.32,4.55c-.37.25-.36.73-.42,1.14a30.39,30.39,0,0,0-9.75,2c2.07-6.92,2.41-14,2.13-21.17-.06-1.79,0-3.59,0-5.38a42.2,42.2,0,0,1,2.37-14.47c2-6.48,4.95-12.63,7.44-18.94C342.57,232.41,342.87,230.86,344.06,229.77Z"/><path class="cls-26" d="M382.42,300.45a10.58,10.58,0,0,0,0-1.26c-.37-3.33-1.54-4.33-5.09-4.41.62-2.33,2.73-2.12,4.42-2.45a21.51,21.51,0,0,1,3.77-.07,18.17,18.17,0,0,1,3.74-.56,116.74,116.74,0,0,1,12.68-.47,13.21,13.21,0,0,1,6.59,1.52c.17.46.55.54,1,.53a50.88,50.88,0,0,0,2.6,5.61V301c-1.37.24-2.77-.88-3.95-.41-1.94.78-4.1.89-5.87,2.18-2,1.48-4.61,1.66-6.87,1.94-1.76.21-3.57.57-5.38.67-2.52.15-4.48,1.72-6.63,2.81-.8-1.66-.29-3.44-.49-5.16C382.8,302.16,383.27,301.17,382.42,300.45Z"/><path class="cls-20" d="M330.12,293.76a30.39,30.39,0,0,1,9.75-2c.82,2.88,2.12,5.62,2.58,8.61a30.11,30.11,0,0,1-4.44,1c-2.68.2-4.57,1.68-6.19,3.55-.74.86-1.39,1.58-2.52.92-.69-.4-1.08-.11-1.57.28a1.4,1.4,0,0,1-2,.09,19.94,19.94,0,0,1-2.57-3.23c-.27-2.07,1.37-3.4,2-5.14A14.92,14.92,0,0,1,330.12,293.76Z"/><path class="cls-24" d="M367.38,278c.73-8.81-1.61-17.05-1.93-25.46.89,1.1.85,2.53,1,3.72.5,4.78,1.55,9.5,1.72,14.33.05,1.57.49,3.16.44,4.78A3,3,0,0,1,367.38,278Z"/><path class="cls-24" d="M350.16,285.61c2.5-2,5.6-2.76,8.41-4.12,2.06-1,4.16-1.92,6.22-2.92.46-.22.94-.86,1.73-.14a33.61,33.61,0,0,1-6.21,3.34c-2.45,1.17-5,2.16-7.45,3.28a5.09,5.09,0,0,1-2.7.56Z"/><path class="cls-30" d="M367.38,278c.73-8.81-1.61-17.05-1.93-25.46.89,1.1.85,2.53,1,3.72.5,4.78,1.55,9.5,1.72,14.33.05,1.57.49,3.16.44,4.78A3,3,0,0,1,367.38,278Z"/><path class="cls-30" d="M350.16,285.61c2.5-2,5.6-2.76,8.41-4.12,2.06-1,4.16-1.92,6.22-2.92.46-.22.94-.86,1.73-.14a33.61,33.61,0,0,1-6.21,3.34c-2.45,1.17-5,2.16-7.45,3.28a5.09,5.09,0,0,1-2.7.56Z"/><path class="cls-26" d="M360.37,230.81a1,1,0,0,1,.51-1.06C360.91,230.2,360.9,230.63,360.37,230.81Z"/><path class="cls-23" d="M349.61,286.11a3.93,3.93,0,0,1,.06-.48l.49,0h0A.68.68,0,0,1,349.61,286.11Z"/><path class="cls-26" d="M359.88,231.34a.62.62,0,0,1,.49-.53A.53.53,0,0,1,359.88,231.34Z"/><path class="cls-24" d="M330.12,293.76a14.92,14.92,0,0,0-5,4.09,45.28,45.28,0,0,0-6.56.44c-1.54.3-3.1.94-4.74.61.37-1.41,2-1.68,2.57-2.93a3.72,3.72,0,0,0,2-1.37,23.44,23.44,0,0,0,3.54-4.86l.06-.54c3.27-5.22,3.42-11,2.83-16.84a44.68,44.68,0,0,1,0-11.38,39.42,39.42,0,0,1,4.29-12.12c1.39-2.64,1.76-5.18,0-7.78,3.2-6.6,8.54-10.66,15.39-12.91a3.36,3.36,0,0,1-.51,1.6c-1.19,1.09-1.49,2.64-2,4-2.49,6.31-5.4,12.46-7.44,18.94a42.2,42.2,0,0,0-2.37,14.47c.08,1.79,0,3.59,0,5.38C332.53,279.75,332.19,286.84,330.12,293.76Z"/><path class="cls-17" d="M340.46,204.43c1.08,2.4-1,4.27-.94,6.49.52.91,1.67.07,2.35,1a2.11,2.11,0,0,1-3.32-2.37C339.18,207.84,340,206.21,340.46,204.43Z"/><path class="cls-19" d="M343.79,201c1.67-2.31,4.65-1.46,6.4,1.56C348,202.13,346.23,201,343.79,201Z"/><path class="cls-16" d="M333.52,202c1.72-2.55,3.76-2.86,4.88-.77C336.8,201.76,335.1,201.49,333.52,202Z"/><path class="cls-18" d="M336.57,207.34c-1.63-1.65-1.63-1.65-.2-3.12C338,205.58,338,205.58,336.57,207.34Z"/><path class="cls-18" d="M346.11,207.46c-1.49-1.15-1.26-2.17-.47-3.35C347.44,205.35,347.45,205.43,346.11,207.46Z"/><path class="cls-17" d="M344.07,216c-1.81,1.41-2.67,1.39-4.8-.43A17.21,17.21,0,0,0,344,216Z"/><path class="cls-17" d="M344,216c.16-.28.35-.51.73-.29,0,.45-.42.29-.65.38Z"/><path class="cls-17" d="M354.76,220.58l.27-.24-.24.27Z"/><path class="cls-31" d="M383.39,308.18c2.15-1.09,4.11-2.66,6.63-2.81,1.81-.1,3.62-.46,5.38-.67,2.26-.28,4.86-.46,6.87-1.94,1.77-1.29,3.93-1.4,5.87-2.18,1.18-.47,2.58.65,3.95.41.62,3.93.77,7.91,1.13,11.86.73,8.17.16,16.33.5,24.49l-.12,10.72c-.42,0-.84,0-1.26,0-2.1.1-2.22.23-2.26,2.39,0,1.26,0,2.51,0,3.77-1.27-1.43-.92-3.32-1.17-5.13-2.16.39-1.39,1.83-1.19,2.76a5.43,5.43,0,0,1,.07,3.14c-.86.32-1.25,0-1.29-.74s0-1.71,0-2.56c-.09-1.12-.12-1.12-1.57-2.09-1.25,1.83.45,4.4-1.43,6.58-1-2.17-.28-4-.7-5.64-.52-.55-1.05-.5-1.94,0v5.6c-2.13,0-1.36-1.37-1.5-2.18-.16-1,.17-2-.2-3-.48-.47-1-.35-1.58-.17-.66,1.81.08,3.82-.43,5.68-1.47-.12-1.47-.12-1.6-5.06-.54-.4-1.07-.38-1.84.19V357c-1.47.45-2-.2-2-1.3s0-2,0-3.07c0-.77-.42-1.06-1.27-.78-.63,1.64.11,3.49-.46,5.22-1.3.35-1.77-.29-1.82-1.4,0-.94,0-1.88,0-2.82,0-.66-.16-1.16-1.15-1.13-1,1.67.3,3.92-.86,5.61-1.49-.48-1-1.49-1-2.25-.17-1.5.34-3.08-.53-4.5,0-2.87-.31-5.74-.4-8.59-.2-6.26-.88-12.51-.67-18.79C383.55,318.21,383.4,313.19,383.39,308.18Z"/><path class="cls-32" d="M410.06,354.24c0-1.26,0-2.51,0-3.77,0-2.16.16-2.29,2.26-2.39.42,0,.84,0,1.26,0-.07,2.14.32,4.3-.28,6.7-1.39-1.2.17-3.34-1.78-4.06-1.09,1.21.22,2.93-1,4a4.19,4.19,0,0,1-.5,0C410.06,354.54,410.06,354.39,410.06,354.24Z"/><path class="cls-31" d="M410.07,354.68a4.19,4.19,0,0,0,.5,0l-.05,1C410.07,355.52,410.06,355.11,410.07,354.68Z"/><path class="cls-23" d="M206.88,355.28a2,2,0,0,1,1.9-.44c1.72.58,3.52.29,5.27.57,2.48,2,5.27,3.73,7.11,6.47h0c-4.08-1.09-8.29-1.37-12.43-2a7.05,7.05,0,0,1-2.45-.55Z"/><path class="cls-18" d="M197.07,352.19c.93.73,2.13.45,3.15.85.85.33,1.83.37,2.44,1.19a11.19,11.19,0,0,0-3.54,4.38c-2.22-.64-4.65.2-6.8-.92a9.22,9.22,0,0,1,1.37-3.45A5.73,5.73,0,0,1,197.07,352.19Z"/><path class="cls-20" d="M199.12,358.61a11.19,11.19,0,0,1,3.54-4.38,11.4,11.4,0,0,0,4.22,1l-.6,4C203.86,359.42,201.51,358.75,199.12,358.61Z"/><path class="cls-23" d="M224.24,363.93c2.4.89,4.31,2.59,6.38,4a89.46,89.46,0,0,0,9.19,5.12c-.09.74-.51.63-.76.53-5.19-2.16-9.75-5.38-14.37-8.5a1.3,1.3,0,0,1-.46-1.14Z"/><path class="cls-23" d="M224.22,363.94c-.91,0-1.78,0-1.94-1.39,1.15,0,1.55.68,2,1.38Z"/><path class="cls-23" d="M221.16,361.88l.26.26a.43.43,0,0,1-.17,0,1.33,1.33,0,0,1-.09-.21Z"/><path class="cls-32" d="M280.94,363.48l6.26-.05a37,37,0,0,1-.07,4.83,86,86,0,0,0-1,11.55c-.69.38-.43,1.08-.55,1.64-1.1-.51-1.95.21-2.87.6s-1.62,1.26-2.7,1.37a1.4,1.4,0,0,1,.4-1.15c3.19-3.62,3.47-7.78,2.46-12.29C282.39,367.75,281.15,365.77,280.94,363.48Z"/><path class="cls-32" d="M280.06,383.4a.91.91,0,0,1-1.05.54C279.19,383.43,279.61,383.37,280.06,383.4Z"/><path class="cls-32" d="M279,383.91c0,.34-.24.47-.54.54A.68.68,0,0,1,279,383.91Z"/><path class="cls-32" d="M278.53,384.42a.68.68,0,0,1-.55.54A.6.6,0,0,1,278.53,384.42Z"/><path class="cls-17" d="M197.07,352.19a5.73,5.73,0,0,0-3.38,2.05c-1.16-7-2.34-14-3.45-20.95-1-6.4-2.44-12.72-3.18-19.16,2,.45,3.81-.4,5.71-.55,1,4.56,1.16,9.24,1.75,13.85.49,3.86,1,7.73,1.31,11.61C196.14,343.43,197.36,347.74,197.07,352.19Z"/><path class="cls-20" d="M285.61,381.45c.12-.56-.14-1.26.55-1.64a20.35,20.35,0,0,0,5.14-3.05c1.63-.7,2.86-1.72,3.07-3.62l12.82,1.06c0,1,0,2-.05,3a35.49,35.49,0,0,1-17.66,5.59C288.07,382.86,286.59,382.79,285.61,381.45Z"/><path class="cls-31" d="M307.14,377.19c0-1,0-2,.05-3,.86-.06,1.54-.44,1.48-1.37-.12-1.8.71-3.47.58-5.26,1.67,2.21.59,4.85,1.13,7.26a3.29,3.29,0,0,0,2,1c-.31,2.36-2.18,3-4,3.6C308,378.62,308.27,377.54,307.14,377.19Z"/><path class="cls-28" d="M309.25,367.57c.13,1.79-.7,3.46-.58,5.26.06.93-.62,1.31-1.48,1.37l-12.82-1.06c-.7-.82-1.72-.32-2.55-.6,0-6.68,0-13.36,0-20.05,0-2.53.89-5,.4-7.54,0-7.45.46-14.89.63-22.33,0-.91.28-1.88-.42-2.68a5.9,5.9,0,0,0,.9-2.82c0-.92.29-1.83.37-2.72.48-5,3.49-8.18,7.32-10.86a101.41,101.41,0,0,1,12.77-4.64c1.64.33,3.2-.31,4.74-.61a45.28,45.28,0,0,1,6.56-.44c-.59,1.74-2.23,3.07-2,5.14-4.78-.81-11.61,5.65-12.87,9.33-1,2.9-1.87,5.81-1.54,8.92.2,1.9-.75,3.65-.53,5.54.72,6.26.21,12.56.63,18.81.22,3.39.08,6.79.47,10.13.28,2.37.31,4.72.48,7.08C309.88,364.45,309,365.94,309.25,367.57Z"/><path class="cls-19" d="M349.66,350.22h-2.47c-5.17.06-10.29-.86-15.47-.63.38-3.53.73-7.07,1.16-10.59s.95-6.87,1.4-10.31a4.88,4.88,0,0,1,.8-2.51c3.63-.19,7.34-.53,11.06-.54,6.28,0,12.53-.44,18.78-1l-.42,1.39c-3,.08-6.1-.29-9.09.53s-5.63,2.21-6.94,5.05C345.54,338,345.22,344.28,349.66,350.22Z"/><path class="cls-22" d="M349.66,350.22c-4.44-5.94-4.12-12.24-1.19-18.59,1.31-2.84,4-4.25,6.94-5.05s6-.45,9.09-.53c-.17,4.38-.83,8.71-1.36,13.05q-.63,5.25-1.24,10.52c-2.89.77-5.85.35-8.77.58C352,349.86,350.82,350.69,349.66,350.22Z"/><path class="cls-29" d="M383.39,308.18c0,5,.16,10,0,15-.21,6.28.47,12.53.67,18.79.09,2.85.36,5.72.4,8.59-2.25.32-3.5-1.24-4.87-2.58-.2-3.31-.71-6.59-.69-9.91,0-4.18,0-8.36,0-12.53V320c-2.23,1.27-3.9,2.82-6.19,3.09.12-1.37-.33-2.81.49-4.1a18.83,18.83,0,0,0,5.67-1V300.87c1.11-.84,2.4-.21,3.59-.42.85.72.38,1.71.48,2.57C383.1,304.74,382.59,306.52,383.39,308.18Z"/><path class="cls-22" d="M378.86,325.57c0,4.17,0,8.35,0,12.53,0,3.32.49,6.6.69,9.91a90.67,90.67,0,0,1-11,1.05c.1-4.41,1.24-8.69,1.75-13.06.34-2.85.94-5.66,1.34-8.5a5.87,5.87,0,0,1,.52-1.95Z"/><path class="cls-24" d="M378.83,300.87V318a18.83,18.83,0,0,1-5.67,1c-.08-4.42,1.31-8.62,1.88-12.94a16.91,16.91,0,0,1,1-4.87C377,300.74,377.92,301,378.83,300.87Z"/><path class="cls-19" d="M378.86,325.57l-6.7,0a3.69,3.69,0,0,1,.51-2.47c2.29-.27,4-1.82,6.19-3.09Z"/><path class="cls-17" d="M301,303.54c-3.83,2.68-6.84,5.87-7.32,10.86-.08.89-.34,1.8-.37,2.72a5.9,5.9,0,0,1-.9,2.82l-.66.08c.51-5,1-10.1,1.5-15.16.22-2.35.35-4.72.54-7.45-2.91,0-5.69,0-8.47,0-2.1-.05-3-1.15-2.74-3.06a2.54,2.54,0,0,1,1.91-2.12,14.32,14.32,0,0,1,4.55-.44,22.21,22.21,0,0,0,3.82-.16l1.45,0a1.45,1.45,0,0,0,1.66-.22l1.94-.15a32.25,32.25,0,0,0,3.81,0c6.71-.84,13.49-.68,20.21-1.43a23.44,23.44,0,0,1-3.54,4.86,3.72,3.72,0,0,1-2,1.37c-4.87.36-9.77.31-14.69,1.14C301.68,299.36,300.85,301.39,301,303.54Z"/><path class="cls-16" d="M294.32,291.58l-1.45,0a62.49,62.49,0,0,0-8.64-2.87,4.78,4.78,0,0,0-3.68.65,8.05,8.05,0,0,1-4.58,1.34c-.76-3.27-2-6.48-1.44-10.17,3.85-.28,7.91.59,11.25-2.06l7.13-.09a9.5,9.5,0,0,0,4.34,1,4,4,0,0,1,3.24,1.37c-2.26,2.3-5,.7-7.5.94,1.9,3.15,5,4.4,8.73,3.7,1.71-.33,3.42-1,5.19-.32l.42.52c-.51.56-1.47.61-1.71,1.49-.25,0-.55-.09-.75,0a70.34,70.34,0,0,1-6.73,3.36c-.14.06-.15.46-.22.7l-1.94.15C295.4,291.22,294.82,291.08,294.32,291.58Z"/><path class="cls-19" d="M291.76,320l.66-.08c.7.8.44,1.77.42,2.68-.17,7.44-.68,14.88-.63,22.33l-2.87.09c-5.47-1.14-6.56-4.7-7.23-9.67a17.08,17.08,0,0,1,.75-6.76c1.13-4.24,4.08-6.7,8-8.15C291.21,320.35,291.56,320.35,291.76,320Z"/><path class="cls-17" d="M289.34,345l2.87-.09c.49,2.54-.41,5-.4,7.54,0,6.69,0,13.37,0,20.05a10.6,10.6,0,0,0-.52,4.22,20.35,20.35,0,0,1-5.14,3.05,86,86,0,0,1,1-11.55,37,37,0,0,0,.07-4.83c1.14-1.82.51-3.92.86-5.87C288.79,353.44,289,349.22,289.34,345Z"/><path class="cls-19" d="M292.91,278.41l-7.13.09-.11-1.58c1-.85,2.29-.44,3.43-.68A20.88,20.88,0,0,0,295,274c4.7-2.55,9.47-2.41,14.4-1.11.89,1.13,2.85.95,3.35,2.57-.46.54-1,.39-1.47.55a11.51,11.51,0,0,1-4.14.07c-1.29-.24-2.79-.83-4,.35C299.54,276.37,296.05,276.49,292.91,278.41Z"/><path class="cls-17" d="M260.6,215.45a14,14,0,0,1,.18-3.94c1.35,1.32.61,3.1,1.34,4.42C261.51,216.08,261.08,215.71,260.6,215.45Z"/><path class="cls-25" d="M247.18,215.51c-.68-.56-1.48-1-1.44-2.07,1.41-.06,1.83,1.21,2.65,1.95Z"/><path class="cls-18" d="M253.4,207.3a7.68,7.68,0,0,0,2.23-.34c.87-.07,1.84-.25,2.43.92-.75.79-1.64.36-2.4.47l-2.41.31c-.6-.63.21-.93.18-1.39Z"/><path class="cls-18" d="M255.44,214c-1.58-1.37-1.07-2.37,0-3.41C257.21,211.9,257.21,212.08,255.44,214Z"/><path class="cls-18" d="M264.79,212.05c.13.19.34.37.38.59.17.85.22,1.76-.75,2.15-.66.26-1.09-.25-1.27-.87C262.87,213,263.24,212.55,264.79,212.05Z"/><path class="cls-25" d="M245.21,212.91c-.55-.14-.6-.54-.5-1C245.23,212.05,245.33,212.43,245.21,212.91Z"/><path class="cls-25" d="M245.72,213.42a.48.48,0,0,1-.49-.5C245.57,212.92,245.73,213.08,245.72,213.42Z"/><path class="cls-24" d="M311.23,276c.45-.16,1,0,1.47-.55-.5-1.62-2.46-1.44-3.35-2.57,1.69-.54,3.41-1,5.07-1.64,1-.38,2.18-.59,2.65-1.79,1.81-3.19,2.78-6.7,4-10.12a111.47,111.47,0,0,1,7.06-16.53,4.74,4.74,0,0,1,1.08-1.69c1.73,2.6,1.36,5.14,0,7.78A39.42,39.42,0,0,0,324.86,261a44.68,44.68,0,0,0,0,11.38c.59,5.86.44,11.62-2.83,16.84a23.81,23.81,0,0,0-3.05.08c-4.68.69-9-.55-13.33-2.14.24-.88,1.2-.93,1.71-1.49,1.76.45,1.54-1.1,1.81-1.94.43-1.3-.36-2.6-.35-3.94,1.43-.72,3.07.18,4.44-.65C313.29,277.51,311.8,277,311.23,276Z"/><path class="cls-33" d="M311.23,276c.45-.16,1,0,1.47-.55-.5-1.62-2.46-1.44-3.35-2.57,1.69-.54,3.41-1,5.07-1.64,1-.38,2.18-.59,2.65-1.79,1.81-3.19,2.78-6.7,4-10.12a111.47,111.47,0,0,1,7.06-16.53,4.74,4.74,0,0,1,1.08-1.69c1.73,2.6,1.36,5.14,0,7.78A39.42,39.42,0,0,0,324.86,261a44.68,44.68,0,0,0,0,11.38c.59,5.86.44,11.62-2.83,16.84a23.81,23.81,0,0,0-3.05.08c-4.68.69-9-.55-13.33-2.14.24-.88,1.2-.93,1.71-1.49,1.76.45,1.54-1.1,1.81-1.94.43-1.3-.36-2.6-.35-3.94,1.43-.72,3.07.18,4.44-.65C313.29,277.51,311.8,277,311.23,276Z"/><path class="cls-32" d="M291.3,376.76a10.6,10.6,0,0,1,.52-4.22c.83.28,1.85-.22,2.55.6C294.16,375,292.93,376.06,291.3,376.76Z"/><path class="cls-27" d="M294.32,291.58c.5-.5,1.08-.36,1.66-.22A1.45,1.45,0,0,1,294.32,291.58Z"/><path class="cls-20" d="M292.91,278.41c3.14-1.92,6.63-2,10.16-2,1.56,1,2.54,2.63,4.24,3.57s1.18,3.9-.4,5.17c-1.77-.64-3.48,0-5.19.32-3.74.7-6.83-.55-8.73-3.7,2.51-.24,5.24,1.36,7.5-.94a4,4,0,0,0-3.24-1.37A9.5,9.5,0,0,1,292.91,278.41Z"/><path class="cls-28" d="M306.91,285.13c1.58-1.27,2-4.31.4-5.17s-2.68-2.58-4.24-3.57c1.23-1.18,2.73-.59,4-.35a11.51,11.51,0,0,0,4.14-.07c.57,1.06,2.06,1.54,2,3.15-1.37.83-3-.07-4.44.65,0,1.34.78,2.64.35,3.94-.27.84-.05,2.39-1.81,1.94Z"/><path class="cls-20" d="M252.4,207.89l1.22-.72,4.11-1.22s5.62,1.35,5.93,1.35,3.48,1.57,3.48,1.57l.44,2.22.11.37-2,3.85-2.22.83-2.05-.17-1.83-1.22H254.2l-3-3.31Z"/><path class="cls-20" d="M333.89,197.67l-.65,6.14.08,1.57s2.79,10.72,2.92,11a35.94,35.94,0,0,0,5,3.31,23.46,23.46,0,0,0,4.27-.13c.48-.17,5.4-6.62,5.4-6.62l1-5.8-.08-5.22-1.88-3.4L345.61,197Z"/><path class="cls-34" d="M333.12,196.57c-1.09-4,.94-17.79,18.25-18.28"/></svg>