<svg id="Layer_1" data-name="Layer 1" xmlns="http://www.w3.org/2000/svg" viewBox="0 0 64 150"><defs><style>.cls-1{fill:#22376c;}.cls-2{fill:#deebf8;}.cls-3{fill:#63a2d8;}.cls-4{fill:#136199;}.cls-5{fill:#f9bf82;}.cls-6{fill:#fff;}.cls-7{fill:#f5a257;}.cls-8{fill:#8e453c;}.cls-9{fill:#f99;}.cls-10{fill:red;}.cls-11{opacity:0.2;}.cls-12{fill:#0c0c0c;}.cls-13{opacity:0.08;}</style></defs><title>Artboard 18</title><path class="cls-1" d="M11.82,85.35l.75,57.36h6l3-51.05h1.52l3,51.05h6L33,85.35Z"/><path d="M13,142.71S8,142.81,8,146.39v1.23s5.14.27,6.13-.64c0,.29,0,.64,0,.64h4.4V142.7Zm18.81,0s4.94.1,4.94,3.68v1.23s-5.15.27-6.14-.64c0,.29,0,.64,0,.64h-4.4V142.7Z"/><path class="cls-2" d="M33.44,68.46l1.48,27.68s-.58,2.79-10.47,2.79l-2.06-4.82h0L20.3,98.93c-9.88,0-10.46-2.79-10.46-2.79l1.05-13.59a102.56,102.56,0,0,0-.17-13.75c-.23-1.33-4.22-14.58,1.22-17.26,1.92-.95,7.64-1.17,7.64-1.17h5.59s5.73.22,7.65,1.17c3.93,1.94,8.55,16.93,8.55,16.93L52.69,58l3.4,3.93s-12.52,17.32-16.41,17c-3.67-.28-6.24-10.46-6.24-10.46Z"/><path class="cls-3" d="M19.57,50.37h5.6l1.12.06s-.36,9.17-3.92,16.43c-3.56-7.26-3.92-16.43-3.92-16.43Z"/><path class="cls-1" d="M20.37,54.2a2.8,2.8,0,0,1,2-2.25,2.77,2.77,0,0,1,2,2.25,1.87,1.87,0,0,1-1.27.92l.67,8.37s-1.21,2.94-1.4,3.37L21,63.49l.68-8.37a1.9,1.9,0,0,1-1.28-.92Z"/><path class="cls-4" d="M22.37,67.46h0Zm0-14.93h0Z"/><path class="cls-2" d="M26.31,53.42a.16.16,0,0,0-.24,0,11,11,0,0,1-1.47,1.16,3.08,3.08,0,0,0-2.2-2.8h-.06a3.18,3.18,0,0,0-2.24,2.68c-.78-.44-1.37-.81-1.37-.81a.18.18,0,0,0-.24.05.17.17,0,0,0,.05.23h0s.7.44,1.59.93a.16.16,0,0,0,.23-.06.14.14,0,0,0,0-.06,3,3,0,0,1,2-2.63,2.78,2.78,0,0,1,1.92,2.76.17.17,0,0,0,.18.16.11.11,0,0,0,.08,0,11.9,11.9,0,0,0,1.76-1.35A.16.16,0,0,0,26.31,53.42Z"/><path class="cls-3" d="M29.71,93.73h0a17,17,0,0,1-4.47-.89.16.16,0,0,1-.11-.15l-.42-5.64a.19.19,0,0,1,.05-.13.16.16,0,0,1,.14,0c.37,0,.78,0,1.23,0a37.52,37.52,0,0,0,6.06-.63.17.17,0,0,1,.2.13v0l.39,5.2a.17.17,0,0,1,0,.12,9.16,9.16,0,0,1-2.95,1.95l-.07,0Zm-4.26-1.17a17,17,0,0,0,4.22.83,9.59,9.59,0,0,0,2.76-1.8l-.37-4.93a38.18,38.18,0,0,1-5.94.6c-.38,0-.74,0-1.07,0ZM21,91.75a.54.54,0,0,1,.54.54.54.54,0,0,1-1.08,0h0A.54.54,0,0,1,21,91.75Zm0-7.49a.54.54,0,1,1-.54.54h0a.54.54,0,0,1,.54-.54Zm0-6.41a.54.54,0,1,1,.54-.54.54.54,0,0,1-.54.54Zm0-7.5a.54.54,0,1,1,.54-.53h0a.54.54,0,0,1-.54.53ZM15.16,93.73l-.07,0a8.87,8.87,0,0,1-2.95-1.95.14.14,0,0,1,0-.12l.39-5.2a.16.16,0,0,1,.18-.15h0a37.52,37.52,0,0,0,6.06.63c.44,0,.86,0,1.23,0a.17.17,0,0,1,.18.15v0l-.42,5.64a.15.15,0,0,1-.11.15,16.92,16.92,0,0,1-4.47.89Zm-2.72-2.14a9.3,9.3,0,0,0,2.75,1.8,17.15,17.15,0,0,0,4.23-.83l.39-5.34c-.33,0-.69,0-1.06,0a38.18,38.18,0,0,1-5.94-.6Z"/><path class="cls-2" d="M9.23,88.72c0,.09-5.55,1.49-5.55,1.49-1.25-9.58-1.5-9.54-1.76-17-.14-4,4.1-19.6,10.34-21.76.16,4.62-1.2,13.14-1.2,13.14s-2.78,8.12-2.88,9.17c-.24,2.72-.49,3.65,1.05,15Z"/><path class="cls-5" d="M4.17,90.08c-.56.93-1.66,3-1.36,3.75s1,.78,1,.78.07,1.19,1.74,1.07c.73.7,1.17,1.27,2.05.8.39.81,1.33,1.41,1.63.91s.38-2.45.27-4.7c1.81,2.45,3,1,3,1a16,16,0,0,0-1.63-2.58c-.82-1.09-1.3-2-1.64-2.43Z"/><path class="cls-3" d="M22.37,94.28a.18.18,0,0,1-.17-.17V68.66a.17.17,0,1,1,.34,0V94.11a.18.18,0,0,1-.17.17Z"/><path class="cls-6" d="M17.57,59.1l-1.28,1.27L22.37,69l6.09-8.61-1.28-1.27,2.24-.68-1.48-7.6-1.65-.1a52.26,52.26,0,0,1-3,13.86l-.94,2.24a50.82,50.82,0,0,1-3.9-16.12l-1.65.11-1.48,7.6Zm4.7,7.7.08.06,0,0Z"/><path class="cls-1" d="M13.71,71.83a.41.41,0,0,0,.44.37h0l.33,0a.4.4,0,0,0,.37-.44h0a.41.41,0,0,0-.44-.37h0l-.33,0a.42.42,0,0,0-.37.44Z"/><path class="cls-3" d="M14.34,63.13a.18.18,0,0,1,.14-.2.19.19,0,0,1,.2.14h0c0,.06.87,6.13,1.55,7.2a1.64,1.64,0,0,0,.26.33,1.81,1.81,0,0,0,.19-.29c.6-1.12,1-7.24,1-7.3a.17.17,0,0,1,.19-.15.17.17,0,0,1,.15.18c0,.25-.43,6.24-1.06,7.43a2.64,2.64,0,0,1-.23.35,3.28,3.28,0,0,0,1.54.56.16.16,0,0,1,.16.17.17.17,0,0,1-.17.16h0a3.4,3.4,0,0,1-1.76-.64,3.44,3.44,0,0,1-1.77.83h0a.18.18,0,0,1-.17-.17.17.17,0,0,1,.15-.17,3.2,3.2,0,0,0,1.56-.71,2.44,2.44,0,0,1-.32-.4c-.71-1.13-1.56-7.08-1.6-7.33Z"/><path class="cls-1" d="M19.3,71.57a.42.42,0,0,1-.42.4h-.33a.4.4,0,0,1-.4-.41h0a.42.42,0,0,1,.41-.4h.34a.41.41,0,0,1,.4.41Z"/><path class="cls-3" d="M26.65,70.32a1.7,1.7,0,1,0,1.54-1.84A1.7,1.7,0,0,0,26.65,70.32Z"/><path class="cls-1" d="M27.48,70.25a.86.86,0,1,0,.78-.93.86.86,0,0,0-.78.93Z"/><path class="cls-1" d="M26.81,50.69a5.66,5.66,0,0,0-4.35-1.77A6,6,0,0,0,17.57,51a10.1,10.1,0,0,0-1.87,6.34,20.37,20.37,0,0,0,.22,3.4,1.76,1.76,0,0,0-1.19.58,2.58,2.58,0,0,0-.49,1.86.27.27,0,0,0,.31.23.28.28,0,0,0,.24-.3,2.06,2.06,0,0,1,.36-1.43,1.37,1.37,0,0,1,1.08-.41h0a1.18,1.18,0,0,1,.92.36,2.37,2.37,0,0,1,.42,1.56.26.26,0,0,0,.25.3h0a.29.29,0,0,0,.28-.25,3,3,0,0,0-.56-2,1.62,1.62,0,0,0-1.09-.53,20.15,20.15,0,0,1-.23-3.38c0-1.81.36-4.33,1.75-6a5.47,5.47,0,0,1,4.46-1.89,5,5,0,0,1,3.94,1.59c3,3.27,2.34,11,1.86,16.72-.08.83-.14,1.62-.2,2.36a.29.29,0,0,0,.26.3h0a.29.29,0,0,0,.28-.26c.05-.73.12-1.52.19-2.35.49-5.78,1.17-13.69-2-17.15Z"/><path class="cls-7" d="M24.92,47.69s.15,1.31.27,2.68a2.79,2.79,0,0,1-2.8,1.57,2.81,2.81,0,0,1-2.81-1.57c.09-.89.17-1.79.27-2.68Z"/><path class="cls-5" d="M22.57,47.87c11.12,0,10.11-8.28,10.11-8.28s3.11.23,3.11-3.93-3.11-3-3.11-3V28.57s.09-4-10.11-4H22.2c-10.2,0-10.11,4-10.11,4v4.11S9,31.49,9,35.66s3.11,3.93,3.11,3.93-.54,8.28,10.11,8.28Z"/><path d="M18.18,35.66a1,1,0,0,1-1.05,1.05h0a1.06,1.06,0,0,1-1.06-1.05h0v-.83a1.06,1.06,0,0,1,2.11,0Zm-3.07-4.2a4.13,4.13,0,0,1,3.53.22c.56.31.87-.25.38-.57a4.39,4.39,0,0,0-4,0c-.18.15,0,.4.14.34Z"/><path class="cls-8" d="M11.16,32.53a1.9,1.9,0,0,1,1,.15c2.8-2.17,3.24-6.23,3.24-6.23s1.13.5,7,.5,7.05-.5,7.05-.5.44,4.06,3.24,6.23a1.93,1.93,0,0,1,1-.15s1.84-5.73-1.08-9.18c0,0-1.94-4.26-10.22-4.26s-8.18-.8-9.94-1.52-.83,2.09,1.23,3.37c-5.17-1.2-6.3,0-2.34,3,0,0-4.28.51-.42,2.09A7.58,7.58,0,0,0,11.16,32.53Z"/><path d="M26.6,35.66a1,1,0,0,0,1,1.05h0a1,1,0,0,0,1.05-1.05h0v-.83a1,1,0,0,0-2.1,0Zm3.06-4.2a4.13,4.13,0,0,0-3.53.22c-.56.31-.87-.25-.37-.57a4.37,4.37,0,0,1,4,0c.18.15,0,.4-.14.34Z"/><path class="cls-7" d="M12.19,37.66V34.73s-1.73-.74-1.73,1a1.79,1.79,0,0,0,1.73,1.9Zm20.42,0V34.73s1.72-.74,1.72,1a1.79,1.79,0,0,1-1.72,1.9Z"/><path class="cls-8" d="M25.27,40.14a.21.21,0,0,0-.28.09s-.5.86-2.44.86h-.36c-2,0-2.44-.85-2.44-.86a.21.21,0,0,0-.28-.09.21.21,0,0,0-.09.28s.59,1.09,2.81,1.09h.36c2.22,0,2.79-1,2.81-1.09A.21.21,0,0,0,25.27,40.14Z"/><path class="cls-7" d="M52.75,58c.39-.43,3.84-3.74,4.94-4.79a19.79,19.79,0,0,1,2.69-2.17s1.78,1-.72,3.34L62.28,54l-3,6.16-1.86.24-2,.74Z"/><path class="cls-9" d="M35.16,52.14V39.28a1.62,1.62,0,0,0,1.62-1.63H61.14a1.63,1.63,0,0,0,1.63,1.63V52.14a1.63,1.63,0,0,0-1.63,1.63H36.78A1.61,1.61,0,0,0,35.16,52.14Z"/><rect class="cls-6" x="40.65" y="40.19" width="16.61" height="1.13"/><rect class="cls-6" x="44.18" y="43.8" width="9.57" height="0.7"/><rect class="cls-6" x="41.3" y="45.95" width="15.35" height="0.7"/><rect class="cls-6" x="41.3" y="48.1" width="15.35" height="0.7"/><rect class="cls-6" x="41.3" y="50.24" width="15.35" height="0.7"/><polygon class="cls-10" points="38.18 53.19 40.13 53.89 38.28 58.89 37.6 57.74 36.34 58.19 38.18 53.19"/><g class="cls-11"><polygon class="cls-12" points="38.18 53.19 40.13 53.89 38.28 58.89 37.6 57.74 36.34 58.19 38.18 53.19"/></g><polygon class="cls-10" points="41.68 53.19 39.74 53.89 41.58 58.89 42.27 57.74 43.53 58.19 41.68 53.19"/><g class="cls-13"><polygon class="cls-12" points="41.68 53.19 39.74 53.89 41.58 58.89 42.27 57.74 43.53 58.19 41.68 53.19"/></g><path class="cls-10" d="M39.16,54.74c-.28-.05-.68.26-.92.15s-.24-.63-.46-.8-.71-.06-.88-.27,0-.69-.07-.93-.63-.36-.69-.63.34-.57.34-.86-.4-.6-.34-.86.57-.38.69-.62-.1-.72.07-.93.67-.1.88-.27.22-.69.46-.8.64.2.92.14.48-.53.77-.53.51.47.77.53.67-.26.91-.14.24.63.46.8.71.05.88.27,0,.68.08.93.62.35.68.62-.34.59-.34.86.4.6.34.86-.57.38-.68.63.1.71-.08.93-.67.1-.88.27-.22.68-.46.8-.64-.2-.91-.15-.49.53-.77.53S39.43,54.82,39.16,54.74Z"/><circle class="cls-6" cx="39.93" cy="51.4" r="2.86"/><path class="cls-5" d="M58.5,53.79c-1.22.47-1.74,1.45-.79,1.64a4.52,4.52,0,0,0,1.2,0c-.49.14-.95.29-1.3.42-1.23.48-1.74,1.46-.79,1.64a3.59,3.59,0,0,0,.47,0l-.11,0c-1.13.44-1.6,1.34-.73,1.5l.21,0c-.83.24-1.21.82-.58,1.07a12.43,12.43,0,0,0,3,.16,1.27,1.27,0,0,0,1.16-1.61,1.4,1.4,0,0,0,1-2c1.15-.43,1.06-1.71.68-1.84l-.13,0c1.21-.46,1.11-1.75.33-1.86a12.2,12.2,0,0,0-3.55.79Z"/></svg>