<svg width="670" height="1531" viewBox="0 0 670 1531" fill="none" xmlns="http://www.w3.org/2000/svg">
<g clip-path="url(#clip0_942_59)">
<path d="M101.41 808.82L109.544 1473.85H174.619L207.156 881.978H223.641L256.178 1473.85H321.252L331.122 808.82H101.41Z" fill="#22376C"/>
<path d="M114.206 1473.82C114.206 1473.82 59.978 1474.98 59.978 1516.48V1530.75C59.978 1530.75 115.725 1533.88 126.462 1523.33C126.462 1526.69 126.462 1530.75 126.462 1530.75H174.183V1473.7L114.206 1473.82ZM318.214 1473.82C318.214 1473.82 371.792 1474.98 371.792 1516.48V1530.75C371.792 1530.75 315.936 1533.88 305.199 1523.33C305.199 1526.69 305.199 1530.75 305.199 1530.75H257.478V1473.7L318.214 1473.82Z" fill="black"/>
<path d="M335.893 591.371L351.945 912.291C351.945 912.291 345.654 944.638 238.391 944.638L216.048 888.756L193.381 944.638C86.2255 944.638 79.935 912.291 79.935 912.291L91.323 754.73C94.0453 701.607 93.4294 648.348 89.4793 595.313C86.9847 579.893 43.7104 426.273 102.711 395.202C123.535 384.187 185.572 381.637 185.572 381.637H246.199C246.199 381.637 308.345 384.187 329.169 395.202C371.792 417.694 421.9 591.487 421.9 591.487L544.673 470.098L581.548 515.663C581.548 515.663 445.76 716.47 403.57 712.76C363.767 709.513 335.893 591.487 335.893 591.487V591.371Z" fill="#DEEBF8"/>
<path d="M185.469 381.637H246.205L258.352 382.332C258.352 382.332 254.448 488.649 215.837 572.821C177.227 488.649 173.322 382.332 173.322 382.332L185.469 381.637Z" fill="#63A2D8"/>
<path d="M194.141 426.032C195.057 419.927 197.585 414.228 201.428 409.607C205.27 404.986 210.268 401.634 215.832 399.945C221.415 401.595 226.434 404.935 230.282 409.564C234.131 414.192 236.645 419.911 237.523 426.032C236.087 428.77 234.111 431.141 231.733 432.983C229.355 434.825 226.631 436.092 223.749 436.698L231.016 533.739C231.016 533.739 217.893 567.826 215.832 572.811L200.973 533.739L208.348 436.698C205.455 436.086 202.719 434.817 200.324 432.976C197.929 431.136 195.931 428.768 194.466 426.032H194.141Z" fill="#22376C"/>
<path d="M258.564 417.006C258.401 416.809 258.201 416.651 257.977 416.543C257.752 416.434 257.509 416.378 257.263 416.378C257.017 416.378 256.773 416.434 256.549 416.543C256.324 416.651 256.124 416.809 255.961 417.006C251.014 421.966 245.681 426.465 240.018 430.455C239.675 423.069 237.195 415.979 232.921 410.164C228.647 404.349 222.79 400.096 216.158 397.992H215.507C209.063 400.072 203.329 404.122 199.012 409.643C194.695 415.165 191.984 421.915 191.213 429.064C182.753 423.963 176.354 419.673 176.354 419.673C175.932 419.4 175.429 419.308 174.946 419.416C174.463 419.523 174.036 419.822 173.751 420.253C173.502 420.686 173.42 421.205 173.521 421.702C173.622 422.199 173.899 422.635 174.293 422.919C174.293 422.919 181.885 428.021 191.538 433.702C191.741 433.844 191.97 433.94 192.21 433.982C192.449 434.025 192.695 434.012 192.93 433.947C193.165 433.881 193.385 433.764 193.575 433.602C193.765 433.439 193.921 433.237 194.032 433.006C194.079 432.777 194.079 432.539 194.032 432.31C194.459 425.516 196.742 419.005 200.597 413.584C204.453 408.164 209.713 404.073 215.724 401.818C221.987 403.99 227.414 408.293 231.174 414.071C234.934 419.85 236.821 426.785 236.548 433.817C236.561 434.076 236.623 434.33 236.729 434.563C236.834 434.797 236.982 435.006 237.163 435.178C237.345 435.351 237.556 435.483 237.786 435.568C238.015 435.653 238.258 435.688 238.5 435.672C238.779 435.789 239.088 435.789 239.367 435.672C246.172 431.102 252.563 425.862 258.456 420.021C258.686 419.858 258.877 419.64 259.012 419.383C259.148 419.126 259.224 418.838 259.235 418.543C259.245 418.249 259.19 417.955 259.073 417.688C258.957 417.421 258.782 417.187 258.564 417.006Z" fill="#DEEBF8"/>
<path d="M295.44 884.346C278.92 883.248 262.614 879.777 246.96 874.027C246.616 873.906 246.317 873.674 246.103 873.362C245.889 873.05 245.771 872.674 245.767 872.288L241.212 806.898C241.208 806.34 241.401 805.802 241.754 805.391C241.991 805.268 242.25 805.204 242.513 805.204C242.776 805.204 243.036 805.268 243.272 805.391C247.285 805.391 251.732 805.391 256.613 805.391C278.67 804.865 300.651 802.422 322.338 798.087C322.812 797.983 323.305 798.083 323.711 798.365C324.117 798.647 324.403 799.089 324.507 799.594L328.736 859.882C328.895 860.331 328.895 860.825 328.736 861.274C319.546 870.96 308.679 878.639 296.742 883.882H295.983L295.44 884.346ZM249.238 870.781C264.051 876.047 279.431 879.28 295.006 880.404C306.036 875.346 316.164 868.285 324.941 859.534L320.928 802.376C299.656 806.489 278.116 808.815 256.504 809.333C252.383 809.333 248.478 809.333 244.899 809.333L249.238 870.781ZM200.974 861.39C202.528 861.39 204.017 862.049 205.116 863.223C206.214 864.397 206.831 865.99 206.831 867.65C206.831 869.311 206.214 870.903 205.116 872.077C204.017 873.251 202.528 873.911 200.974 873.911C199.421 873.911 197.931 873.251 196.833 872.077C195.735 870.903 195.118 869.311 195.118 867.65C195.118 865.99 195.735 864.397 196.833 863.223C197.931 862.049 199.421 861.39 200.974 861.39ZM200.974 774.551C202.133 774.551 203.265 774.918 204.228 775.606C205.191 776.294 205.942 777.272 206.385 778.416C206.828 779.56 206.944 780.819 206.718 782.033C206.492 783.248 205.935 784.363 205.116 785.239C204.296 786.114 203.253 786.71 202.117 786.952C200.981 787.194 199.803 787.07 198.733 786.596C197.663 786.122 196.748 785.319 196.105 784.29C195.461 783.26 195.118 782.05 195.118 780.812C195.118 779.151 195.735 777.559 196.833 776.385C197.931 775.211 199.421 774.551 200.974 774.551ZM200.974 700.234C199.816 700.234 198.684 699.867 197.72 699.179C196.757 698.491 196.007 697.513 195.563 696.369C195.12 695.225 195.004 693.966 195.23 692.752C195.456 691.537 196.014 690.422 196.833 689.546C197.652 688.67 198.696 688.074 199.832 687.833C200.968 687.591 202.145 687.715 203.215 688.189C204.286 688.663 205.2 689.465 205.844 690.495C206.487 691.524 206.831 692.735 206.831 693.973C206.831 695.634 206.214 697.226 205.116 698.4C204.017 699.574 202.528 700.234 200.974 700.234ZM200.974 613.279C199.811 613.279 198.675 612.909 197.709 612.216C196.744 611.522 195.994 610.538 195.554 609.387C195.114 608.236 195.004 606.971 195.239 605.754C195.474 604.536 196.043 603.421 196.873 602.55C197.703 601.68 198.756 601.093 199.9 600.864C201.043 600.636 202.224 600.777 203.292 601.268C204.36 601.76 205.267 602.581 205.897 603.625C206.527 604.67 206.852 605.892 206.831 607.135C206.802 608.775 206.173 610.338 205.078 611.487C203.982 612.636 202.509 613.28 200.974 613.279ZM137.635 884.346H136.876C124.9 879.182 114.019 871.493 104.881 861.737C104.785 861.52 104.735 861.282 104.735 861.042C104.735 860.801 104.785 860.564 104.881 860.346L109.111 800.058C109.124 799.803 109.186 799.554 109.293 799.326C109.4 799.099 109.55 798.897 109.733 798.734C109.916 798.57 110.129 798.449 110.358 798.378C110.587 798.307 110.827 798.286 111.063 798.318C132.75 802.654 154.731 805.097 176.788 805.623C181.56 805.623 186.116 805.623 190.129 805.623C190.6 805.59 191.066 805.752 191.43 806.075C191.793 806.399 192.026 806.86 192.081 807.362L187.526 872.752C187.539 873.143 187.428 873.527 187.212 873.843C186.995 874.158 186.685 874.387 186.333 874.491C170.682 880.252 154.374 883.723 137.852 884.809L137.635 884.346ZM108.135 859.534C116.839 868.329 126.939 875.395 137.961 880.404C153.571 879.271 168.985 876.038 183.838 870.781L188.068 808.869C184.489 808.869 180.584 808.869 176.571 808.869C154.96 808.351 133.42 806.025 112.148 801.913L108.135 859.534Z" fill="#63A2D8"/>
<path d="M73.3185 826.243C73.3185 827.286 13.1249 843.518 13.1249 843.518C-0.43219 732.448 -3.14361 732.912 -5.96349 646.421C-7.48189 600.045 38.5038 419.18 106.181 394.137C107.916 447.701 93.1661 546.481 93.1661 546.481C93.1661 546.481 63.0151 640.624 61.9305 652.797C59.3276 684.333 56.6161 695.115 73.3185 826.707V826.243Z" fill="#DEEBF8"/>
<path d="M18.4449 842.024C12.3713 852.807 0.441067 876.806 3.69478 885.502C6.94849 894.197 14.5405 894.545 14.5405 894.545C14.5405 894.545 15.2997 908.342 33.412 906.951C41.3293 915.066 46.1015 921.675 55.6457 916.226C59.8755 925.617 70.0704 932.573 73.3241 926.776C76.5779 920.979 77.4455 898.371 76.2525 872.285C95.8832 900.69 108.79 883.879 108.79 883.879C103.802 873.328 97.882 863.312 91.1111 853.966C82.2176 841.329 77.0117 830.778 73.3241 825.793L18.4449 842.024Z" fill="#F9BF82"/>
<path d="M215.84 890.695C215.359 890.667 214.905 890.451 214.565 890.087C214.225 889.723 214.022 889.238 213.996 888.724V593.659C213.996 593.136 214.19 592.634 214.536 592.265C214.882 591.895 215.351 591.688 215.84 591.688C216.329 591.688 216.798 591.895 217.144 592.265C217.489 592.634 217.684 593.136 217.684 593.659V888.724C217.658 889.238 217.455 889.723 217.115 890.087C216.774 890.451 216.32 890.667 215.84 890.695Z" fill="#63A2D8"/>
<path d="M163.771 482.841L149.888 497.565L215.83 597.621L281.88 497.797L267.998 483.073L292.292 475.189L276.241 387.075L258.345 385.915C254.38 440.811 243.434 494.873 225.808 546.607L215.613 572.578C192.036 513.176 177.746 450.037 173.315 385.684L155.42 386.959L139.368 475.073L163.771 482.841Z" fill="white"/>
<path d="M121.909 630.456C122.019 631.697 122.581 632.842 123.474 633.644C124.367 634.447 125.519 634.842 126.681 634.745H130.261C130.841 634.702 131.407 634.534 131.925 634.252C132.444 633.97 132.904 633.58 133.278 633.104C133.653 632.628 133.934 632.076 134.105 631.482C134.276 630.888 134.333 630.263 134.274 629.644C134.163 628.403 133.601 627.258 132.709 626.455C131.816 625.653 130.664 625.257 129.501 625.354H125.922C124.772 625.5 123.717 626.108 122.971 627.056C122.226 628.004 121.846 629.219 121.909 630.456Z" fill="#22376C"/>
<path d="M128.741 529.583C128.675 529.063 128.795 528.536 129.077 528.106C129.358 527.677 129.78 527.376 130.26 527.264C130.742 527.219 131.224 527.357 131.62 527.654C132.017 527.951 132.303 528.388 132.429 528.887C132.429 529.583 141.865 599.958 149.24 612.364C150.022 613.763 150.97 615.049 152.059 616.19C152.845 615.142 153.536 614.016 154.12 612.827C160.628 599.842 164.966 528.887 164.966 528.192C164.993 527.932 165.068 527.681 165.186 527.453C165.305 527.224 165.464 527.023 165.656 526.861C165.848 526.7 166.068 526.58 166.303 526.51C166.538 526.44 166.784 526.42 167.027 526.453C167.496 526.511 167.927 526.76 168.23 527.149C168.533 527.537 168.684 528.035 168.653 528.54C168.653 531.438 163.99 600.886 157.157 614.683C156.427 616.104 155.593 617.46 154.662 618.74C159.626 622.38 165.373 624.614 171.365 625.233C171.602 625.232 171.837 625.284 172.055 625.384C172.273 625.485 172.469 625.632 172.632 625.817C172.795 626.001 172.92 626.22 173.001 626.458C173.081 626.697 173.115 626.951 173.1 627.204C173.072 627.706 172.866 628.178 172.523 628.523C172.18 628.868 171.727 629.06 171.256 629.059C164.369 628.545 157.756 625.974 152.168 621.639C146.774 626.764 140.106 630.106 132.971 631.262C132.491 631.234 132.037 631.017 131.696 630.654C131.356 630.29 131.153 629.805 131.127 629.291C131.124 628.806 131.288 628.337 131.589 627.973C131.889 627.609 132.304 627.377 132.754 627.32C138.989 626.272 144.839 623.426 149.673 619.088C148.368 617.677 147.204 616.122 146.203 614.451C138.502 601.349 129.284 532.366 128.85 529.467L128.741 529.583Z" fill="#63A2D8"/>
<path d="M182.54 627.418C182.484 628.668 181.979 629.848 181.131 630.712C180.283 631.575 179.156 632.057 177.984 632.055H174.405C173.826 632.055 173.253 631.932 172.72 631.691C172.186 631.451 171.703 631.099 171.298 630.656C170.894 630.213 170.577 629.688 170.365 629.112C170.154 628.536 170.052 627.92 170.067 627.302C170.121 626.071 170.611 624.907 171.436 624.047C172.261 623.186 173.361 622.692 174.514 622.664H178.201C179.362 622.694 180.465 623.208 181.276 624.097C182.086 624.985 182.54 626.177 182.54 627.418Z" fill="#22376C"/>
<path d="M262.253 612.933C262.568 616.82 263.956 620.519 266.24 623.563C268.524 626.606 271.601 628.856 275.082 630.028C278.563 631.2 282.292 631.242 285.795 630.147C289.298 629.053 292.419 626.871 294.761 623.879C297.104 620.887 298.563 617.22 298.954 613.341C299.345 609.462 298.65 605.546 296.958 602.089C295.265 598.632 292.651 595.791 289.446 593.923C286.241 592.056 282.59 591.248 278.955 591.6C274.098 592.071 269.613 594.581 266.482 598.579C263.352 602.577 261.831 607.739 262.253 612.933Z" fill="#63A2D8"/>
<path d="M271.257 612.115C271.414 614.082 272.115 615.954 273.268 617.495C274.422 619.036 275.978 620.176 277.739 620.771C279.499 621.366 281.385 621.389 283.158 620.837C284.931 620.285 286.51 619.183 287.697 617.671C288.883 616.159 289.623 614.304 289.823 612.342C290.023 610.38 289.673 608.399 288.819 606.649C287.964 604.899 286.643 603.46 285.023 602.514C283.402 601.567 281.556 601.156 279.717 601.333C277.259 601.569 274.989 602.836 273.404 604.856C271.818 606.877 271.046 609.487 271.257 612.115Z" fill="#22376C"/>
<path d="M263.989 385.351C257.957 378.52 250.624 373.153 242.485 369.613C234.345 366.073 225.59 364.442 216.81 364.83C206.831 364.226 196.856 366.087 187.659 370.269C178.462 374.451 170.289 380.842 163.775 388.945C149.493 410.322 142.35 436.211 143.493 462.451C143.258 475.639 144.056 488.825 145.879 501.87C140.923 502.231 136.293 504.643 132.973 508.595C128.668 514.782 126.764 522.508 127.659 530.16C127.712 530.573 127.841 530.97 128.04 531.329C128.238 531.688 128.502 532 128.815 532.249C129.128 532.497 129.485 532.676 129.864 532.775C130.242 532.875 130.636 532.892 131.021 532.826C131.788 532.711 132.485 532.286 132.968 531.64C133.452 530.993 133.687 530.173 133.624 529.348C132.967 523.496 134.358 517.591 137.528 512.769C139.039 511.112 140.87 509.829 142.893 509.008C144.917 508.187 147.083 507.848 149.242 508.015C151.088 507.899 152.936 508.212 154.659 508.932C156.381 509.653 157.937 510.764 159.22 512.189C162.673 517.462 164.285 523.862 163.775 530.276C163.713 530.699 163.736 531.131 163.843 531.544C163.95 531.957 164.138 532.341 164.395 532.67C164.651 532.999 164.971 533.266 165.331 533.453C165.692 533.64 166.086 533.742 166.486 533.754C167.232 533.734 167.946 533.431 168.503 532.901C169.059 532.37 169.42 531.645 169.523 530.855C170.146 522.599 167.992 514.377 163.449 507.667C160.401 504.061 156.164 501.859 151.628 501.523C149.769 488.558 148.934 475.449 149.133 462.335C149.133 441.35 153.038 412.133 168.113 392.772C174.061 385.394 181.518 379.579 189.906 375.779C198.295 371.979 207.389 370.296 216.485 370.859C224.437 370.389 232.388 371.797 239.774 374.983C247.159 378.169 253.798 383.055 259.217 389.293C291.754 427.205 284.596 516.827 279.39 583.144C278.522 592.767 277.872 601.926 277.221 610.506C277.189 611.36 277.463 612.195 277.987 612.841C278.511 613.487 279.245 613.896 280.041 613.984C280.803 613.96 281.531 613.641 282.089 613.087C282.648 612.532 282.999 611.78 283.077 610.969C283.62 602.506 284.379 593.347 285.138 583.724C290.453 516.711 297.828 425.003 263.447 384.888L263.989 385.351Z" fill="#22376C"/>
<path d="M243.494 350.57C243.494 350.57 245.121 365.758 246.422 381.642C243.73 387.65 239.368 392.622 233.933 395.88C228.497 399.138 222.254 400.522 216.055 399.845C209.842 400.513 203.587 399.126 198.137 395.87C192.686 392.615 188.302 387.648 185.578 381.642C186.554 371.323 187.422 360.889 188.506 350.57H243.494Z" fill="#F5A257"/>
<path d="M218.003 352.647C338.607 352.647 327.653 256.649 327.653 256.649C327.653 256.649 361.383 259.315 361.383 211.085C361.383 162.854 327.653 176.303 327.653 176.303V128.884C327.653 128.884 328.629 82.5078 218.003 82.5078H213.99C103.364 82.5078 104.34 128.884 104.34 128.884V176.535C104.34 176.535 70.8271 162.738 70.8271 211.085C70.8271 259.431 104.557 256.649 104.557 256.649C104.557 256.649 98.7006 352.647 214.207 352.647H218.003Z" fill="#F9BF82"/>
<path d="M170.387 211.091C170.465 212.712 170.224 214.332 169.679 215.847C169.134 217.361 168.298 218.737 167.225 219.884C166.151 221.032 164.865 221.926 163.448 222.508C162.031 223.09 160.515 223.348 158.999 223.265C155.969 223.265 153.061 221.986 150.908 219.706C148.755 217.427 147.531 214.331 147.503 211.091V201.468C147.78 198.43 149.105 195.61 151.22 193.559C153.335 191.507 156.089 190.371 158.945 190.371C161.801 190.371 164.555 191.507 166.67 193.559C168.785 195.61 170.11 198.43 170.387 201.468V211.091ZM137.091 162.397C143.251 159.765 149.881 158.628 156.502 159.069C163.123 159.51 169.57 161.518 175.376 164.947C181.45 168.541 184.812 162.049 179.498 158.339C172.783 154.666 165.349 152.75 157.806 152.75C150.264 152.75 142.829 154.666 136.115 158.339C134.163 160.078 136.115 162.976 137.633 162.281L137.091 162.397Z" fill="black"/>
<path d="M94.2523 174.793C97.9481 174.314 101.696 174.915 105.098 176.532C135.466 151.373 140.238 104.301 140.238 104.301C140.238 104.301 152.494 110.098 216.158 110.098C279.822 110.098 292.62 104.301 292.62 104.301C292.62 104.301 297.392 151.373 327.76 176.532C331.166 174.932 334.91 174.332 338.606 174.793C338.606 174.793 358.562 108.359 326.892 68.3602C326.892 68.3602 305.852 18.97 216.049 18.97C126.247 18.97 127.332 9.69486 108.243 1.34723C89.1548 -7.0004 99.2413 25.5786 121.583 40.4188C65.5112 26.5061 53.2556 40.4188 96.2045 75.2006C96.2045 75.2006 49.785 81.1135 91.6493 99.4319C86.8243 111.413 84.5546 124.391 85.0048 137.426C85.455 150.461 88.6139 163.225 94.2523 174.793Z" fill="#8E453C"/>
<path d="M261.711 211.077C261.638 212.648 261.864 214.218 262.376 215.692C262.888 217.166 263.675 218.514 264.69 219.653C265.704 220.791 266.925 221.698 268.277 222.316C269.63 222.935 271.086 223.253 272.557 223.251C274.073 223.334 275.589 223.076 277.006 222.494C278.422 221.911 279.709 221.018 280.783 219.87C281.856 218.723 282.692 217.347 283.237 215.832C283.782 214.318 284.023 212.698 283.945 211.077V201.454C283.945 198.225 282.745 195.129 280.61 192.846C278.474 190.563 275.577 189.28 272.557 189.28C269.537 189.28 266.64 190.563 264.504 192.846C262.369 195.129 261.169 198.225 261.169 201.454L261.711 211.077ZM294.899 162.382C288.739 159.75 282.109 158.614 275.488 159.055C268.867 159.496 262.42 161.504 256.614 164.933C250.54 168.527 247.178 162.035 252.601 158.325C259.31 154.633 266.747 152.707 274.292 152.707C281.838 152.707 289.275 154.633 295.984 158.325C297.936 160.064 295.984 162.962 294.465 162.267L294.899 162.382Z" fill="black"/>
<path d="M105.424 234.271V200.301C105.424 200.301 86.6613 191.721 86.6613 211.895C86.5003 214.668 86.8618 217.447 87.7244 220.068C88.587 222.689 89.9332 225.098 91.683 227.153C93.4329 229.207 95.5508 230.865 97.9113 232.028C100.272 233.191 102.827 233.835 105.424 233.923V234.271ZM326.893 234.271V200.301C326.893 200.301 345.548 191.721 345.548 211.895C345.709 214.658 345.351 217.428 344.495 220.042C343.639 222.655 342.302 225.059 340.564 227.112C338.826 229.165 336.721 230.825 334.373 231.995C332.025 233.165 329.482 233.82 326.893 233.923V234.271Z" fill="#F5A257"/>
<path d="M247.286 263.016C246.753 262.73 246.136 262.68 245.568 262.875C245 263.07 244.527 263.495 244.249 264.06C244.249 264.06 238.826 274.03 217.786 274.03H213.881C192.19 274.03 187.418 264.175 187.418 264.06C187.14 263.495 186.666 263.07 186.099 262.875C185.531 262.68 184.914 262.73 184.381 263.016C183.853 263.313 183.455 263.819 183.272 264.426C183.09 265.033 183.137 265.692 183.405 266.262C183.405 266.262 189.804 278.9 213.881 278.9H217.786C241.863 278.9 248.045 267.306 248.262 266.262C248.529 265.692 248.577 265.033 248.394 264.426C248.212 263.819 247.814 263.313 247.286 263.016Z" fill="#8E453C"/>
<path d="M545.323 470.084C549.553 465.099 586.971 426.723 598.901 414.549C607.921 405.27 617.683 396.851 628.076 389.391C628.076 389.391 647.381 400.985 620.267 428.114L648.683 423.709L616.146 495.127L595.973 497.91L574.281 506.489L545.323 470.084Z" fill="#F5A257"/>
<path d="M354.55 402.129V253.031C356.866 253.031 359.16 252.541 361.299 251.59C363.437 250.639 365.379 249.245 367.012 247.489C368.645 245.732 369.937 243.648 370.814 241.356C371.69 239.064 372.134 236.609 372.12 234.133H636.321C636.321 239.145 638.184 243.952 641.499 247.496C644.814 251.04 649.311 253.031 654 253.031V402.129C649.311 402.129 644.814 404.12 641.499 407.664C638.184 411.208 636.321 416.015 636.321 421.027H372.12C372.149 418.547 371.715 416.085 370.843 413.786C369.972 411.486 368.681 409.396 367.045 407.636C365.409 405.877 363.461 404.484 361.316 403.538C359.171 402.592 356.87 402.113 354.55 402.129Z" fill="#FF9999"/>
<path d="M594.237 263.617H414.09V276.718H594.237V263.617Z" fill="white"/>
<path d="M556.171 305.477H452.378V313.592H556.171V305.477Z" fill="white"/>
<path d="M587.621 330.371H421.14V338.487H587.621V330.371Z" fill="white"/>
<path d="M587.621 355.332H421.14V363.448H587.621V355.332Z" fill="white"/>
<path d="M587.621 380.109H421.14V388.225H587.621V380.109Z" fill="white"/>
<path d="M387.303 414.336L408.452 422.452L388.387 480.421L381.012 467.088L367.347 472.306L387.303 414.336Z" fill="#FF0000"/>
<g opacity="0.2">
<path d="M387.301 414.336L408.45 422.452L388.385 480.421L381.01 467.088L367.345 472.306L387.301 414.336Z" fill="#0C0C0C"/>
</g>
<path d="M425.263 414.336L404.223 422.452L424.179 480.421L431.662 467.088L445.328 472.306L425.263 414.336Z" fill="#FF0000"/>
<g opacity="0.08">
<path d="M425.263 414.336L404.223 422.452L424.179 480.421L431.662 467.088L445.328 472.306L425.263 414.336Z" fill="#0C0C0C"/>
</g>
<path d="M397.928 432.319C394.891 431.739 390.553 435.333 387.95 434.058C385.347 432.783 385.347 426.754 382.961 424.783C380.575 422.812 375.26 424.087 373.417 421.652C371.573 419.218 373.417 413.653 372.657 410.87C371.898 408.088 365.825 406.696 365.174 403.566C364.523 400.436 368.861 396.957 368.861 393.595C368.861 390.233 364.523 386.639 365.174 383.624C365.825 380.61 371.356 379.219 372.657 376.436C373.959 373.654 371.573 368.088 373.417 365.654C375.26 363.219 380.683 364.494 382.961 362.523C385.238 360.552 385.347 354.524 387.95 353.248C390.553 351.973 394.891 355.567 397.928 354.871C400.965 354.176 403.134 348.727 406.279 348.727C409.424 348.727 411.81 354.176 414.63 354.871C417.45 355.567 421.897 351.857 424.5 353.248C427.103 354.639 427.103 360.552 429.489 362.523C431.875 364.494 437.189 363.103 439.033 365.654C440.877 368.204 439.033 373.538 439.901 376.436C440.768 379.335 446.625 380.494 447.276 383.624C447.927 386.755 443.588 390.465 443.588 393.595C443.588 396.725 447.927 400.551 447.276 403.566C446.625 406.58 441.094 407.972 439.901 410.87C438.708 413.769 440.985 419.102 439.033 421.652C437.081 424.203 431.767 422.812 429.489 424.783C427.211 426.754 427.103 432.667 424.5 434.058C421.897 435.449 417.559 431.739 414.63 432.319C411.702 432.899 409.316 438.464 406.279 438.464C403.242 438.464 400.856 433.246 397.928 432.319Z" fill="#FF0000"/>
<path d="M406.279 426.724C423.411 426.724 437.298 411.878 437.298 393.565C437.298 375.252 423.411 360.406 406.279 360.406C389.148 360.406 375.261 375.252 375.261 393.565C375.261 411.878 389.148 426.724 406.279 426.724Z" fill="white"/>
<path d="M607.687 421.281C594.455 426.73 588.815 438.092 599.119 440.295C603.438 440.913 607.814 440.913 612.133 440.295C606.819 441.918 601.83 443.657 598.034 445.164C584.694 450.729 579.163 462.091 589.466 464.178C591.163 464.297 592.866 464.297 594.563 464.178H593.37C581.115 469.28 576.017 479.714 585.453 481.569H587.731C578.729 484.352 574.607 491.076 581.44 493.975C592.176 495.997 603.101 496.62 613.977 495.83C616.042 495.72 618.057 495.115 619.873 494.059C621.688 493.003 623.259 491.524 624.467 489.731C625.676 487.938 626.491 485.878 626.853 483.702C627.215 481.527 627.114 479.292 626.558 477.164C628.871 476.708 631.052 475.685 632.932 474.175C634.811 472.664 636.337 470.708 637.388 468.46C638.44 466.212 638.988 463.733 638.991 461.22C638.994 458.706 638.451 456.226 637.404 453.976C649.876 448.99 648.9 434.15 644.779 432.643H643.369C656.492 427.31 655.408 412.353 646.948 411.078C633.758 412.058 620.78 415.145 608.446 420.237L607.687 421.281Z" fill="#F9BF82"/>
</g>
<defs>
<clipPath id="clip0_942_59">
<rect width="670" height="1531" fill="white"/>
</clipPath>
</defs>
</svg>
