<svg id="Layer_1" data-name="Layer 1" xmlns="http://www.w3.org/2000/svg" xmlns:xlink="http://www.w3.org/1999/xlink" viewBox="0 0 610 303"><defs><style>.cls-1,.cls-6{fill:none;}.cls-2{clip-path:url(#clip-path);}.cls-3{fill:#f7e2b7;}.cls-3,.cls-32{opacity:0.21;}.cls-4{fill:#5d56d5;}.cls-5{fill:#2e2c41;}.cls-6{stroke:#fff;stroke-linecap:round;stroke-linejoin:round;stroke-width:0.22px;}.cls-27,.cls-35,.cls-7{fill:#fff;}.cls-8{fill:#d3d3f4;}.cls-9{fill:#e4636b;}.cls-10{fill:#fbb749;}.cls-11{fill:#9f9fe6;}.cls-12{fill:#eb9367;}.cls-13{fill:#705d80;}.cls-14,.cls-17,.cls-43{fill:#1a1a1a;}.cls-15{fill:#744948;}.cls-16{fill:#4c3333;}.cls-17,.cls-22,.cls-33,.cls-35,.cls-40{opacity:0.5;}.cls-17,.cls-22,.cls-27,.cls-33,.cls-35,.cls-40,.cls-43{isolation:isolate;}.cls-18{fill:#91a9bc;}.cls-19{fill:#333;}.cls-20{fill:#f1404c;}.cls-21,.cls-22{fill:#c31e21;}.cls-23{fill:#aec0d3;}.cls-24{fill:#6d4e4e;}.cls-25{fill:#4b3333;}.cls-26{fill:#5b71cc;}.cls-27{opacity:0.35;}.cls-28{fill:#f94b4b;}.cls-29{fill:#f1f1f1;}.cls-30{fill:#86282c;}.cls-31{fill:#fd5d5d;}.cls-33{fill:#191919;}.cls-34{fill:#ce4545;}.cls-36{fill:#d0754e;}.cls-37{fill:#e5e5e5;}.cls-38{fill:#c4c4c4;}.cls-39{fill:#dd7c56;}.cls-40{fill:#6d6d6d;}.cls-41{fill:#e8c6a3;}.cls-42{fill:#d7a178;}.cls-43{opacity:0.3;}.cls-44{fill:#f4f4f9;}.cls-45{fill:#a191bf;}.cls-46{fill:#e367aa;}</style><clipPath id="clip-path"><rect class="cls-1" width="610" height="303"/></clipPath></defs><title>prescription-medication-delivery_1</title><g class="cls-2"><path class="cls-3" d="M99.63,5.73c17.62,42.1,1.28,81.79-34.89,87A183.91,183.91,0,0,0,19.88,105C-13.83,119.11-48.19,93.37-54.6,48.19A190.43,190.43,0,0,0-67.47,1.46c-17.61-42.11-1.27-81.8,34.89-87A183.88,183.88,0,0,0,12.29-97.86C46-111.93,80.35-86.19,86.77-41A191,191,0,0,0,99.63,5.73Z"/><path class="cls-3" d="M368.66,251.63c-16.65-52.2,19.95-102.9,31.84-118.1,5.25-7,34-44.53,76.13-57.72a162.68,162.68,0,0,1,34.07-6.33,144.24,144.24,0,0,1,39.45,3.15,157.83,157.83,0,0,1,37.78,12.94,236.53,236.53,0,0,1,59.25,34.73,220,220,0,0,1,38.37,39.75c5.43,7.41,20.59,28.54,23.3,33,2.26,3.76,26,56.36,24,66.07-1.69,5.73-42.18,24.5-74.35,34.08a65.73,65.73,0,0,1-24.81,2.12c-24.73-2.71-17,15-44.89,11.38-1.65-.21-23,1.26-33.36,2.18-15.71,1.4-27-1.46-36.34.39-8.05,1.6-47.18-.69-64.54-6.52-9.48-3.18-24.79,1-43.41-4.55a54.15,54.15,0,0,1-19.86-9.66,48.53,48.53,0,0,1-14.86-19.19A92,92,0,0,1,368.66,251.63Z"/><path class="cls-4" d="M422.11,227.36,406,129.57a5.58,5.58,0,0,1,5.67-6.45l55.72,1.73a5.56,5.56,0,0,1,5.32,4.65L489,225.6a5.57,5.57,0,0,1-5.5,6.47l-55.9,0a5.57,5.57,0,0,1-5.49-4.68Z"/><path class="cls-5" d="M425.09,224.87,409,127.09a5.56,5.56,0,0,1,5.66-6.45l55.72,1.72a5.58,5.58,0,0,1,5.32,4.66L492,223.11a5.57,5.57,0,0,1-5.49,6.48l-55.9,0a5.57,5.57,0,0,1-5.5-4.67Z"/><path class="cls-6" d="M425.17,224.64l-16.11-97.78a5.57,5.57,0,0,1,5.67-6.45"/><path class="cls-7" d="M430.66,226.6l55.9,0a2.6,2.6,0,0,0,2.58-3l-16.29-96.09a2.59,2.59,0,0,0-2.36-2.18l-55.85-1.74a2.62,2.62,0,0,0-2.67,3l16.11,97.78a2.59,2.59,0,0,0,2.37,2.19Z"/><path class="cls-8" d="M444.91,165H425.83a2.06,2.06,0,0,1-1.94-1.64l-3.44-19.08a1.33,1.33,0,0,1,1.34-1.64h19.09a2,2,0,0,1,1.93,1.64l3.44,19.08A1.33,1.33,0,0,1,444.91,165Zm28.42,0H454.24a2.05,2.05,0,0,1-1.93-1.64l-3.44-19.08a1.33,1.33,0,0,1,1.34-1.64h19.08a2,2,0,0,1,1.94,1.64l3.44,19.08a1.33,1.33,0,0,1-1.34,1.64Z"/><path class="cls-8" d="M449.82,192.31H430.74a2.05,2.05,0,0,1-1.94-1.64l-3.44-19.08a1.33,1.33,0,0,1,1.35-1.64h19.08a2,2,0,0,1,1.94,1.64l3.44,19.08a1.33,1.33,0,0,1-1.35,1.64Zm28.43,0H459.16a2,2,0,0,1-1.93-1.64l-3.44-19.08a1.33,1.33,0,0,1,1.34-1.64h19.08a2,2,0,0,1,1.94,1.64l3.44,19.08a1.33,1.33,0,0,1-1.34,1.64Z"/><path class="cls-8" d="M454.74,219.65H435.66a2.06,2.06,0,0,1-1.94-1.64l-3.44-19.09a1.34,1.34,0,0,1,1.35-1.64h19.08a2.06,2.06,0,0,1,1.94,1.64L456.09,218A1.34,1.34,0,0,1,454.74,219.65Zm28.43,0H464.08a2.05,2.05,0,0,1-1.93-1.64l-3.44-19.09a1.33,1.33,0,0,1,1.34-1.64h19.08a2.06,2.06,0,0,1,1.94,1.64L484.51,218A1.33,1.33,0,0,1,483.17,219.65Z"/><path class="cls-9" d="M438.66,160.51H431.1a1.44,1.44,0,0,1-1.36-1.16l-1.82-10.12a.93.93,0,0,1,.94-1.15h7.56a1.44,1.44,0,0,1,1.36,1.15l1.83,10.12a.94.94,0,0,1-.95,1.16Z"/><path class="cls-7" d="M434.17,146.09h-3.83a.51.51,0,0,0-.51.62l.25,1.37h5.07l-.25-1.37A.77.77,0,0,0,434.17,146.09Z"/><path class="cls-8" d="M430.87,147.83h0a.11.11,0,0,1-.1-.09l-.2-1.1a.07.07,0,0,1,.07-.08h0a.12.12,0,0,1,.11.08l.2,1.1A.08.08,0,0,1,430.87,147.83Zm-.47,0h0a.11.11,0,0,1-.1-.09l-.2-1.1a.07.07,0,0,1,.07-.08h0a.12.12,0,0,1,.11.08l.2,1.1A.08.08,0,0,1,430.4,147.83Zm1,0h0a.11.11,0,0,1-.1-.09l-.2-1.1a.07.07,0,0,1,.07-.08h0a.12.12,0,0,1,.11.08l.2,1.1A.08.08,0,0,1,431.35,147.83Zm.48,0h0a.12.12,0,0,1-.11-.09l-.2-1.1s0-.08.08-.08h0a.11.11,0,0,1,.1.08l.2,1.1A.07.07,0,0,1,431.83,147.83Zm.47,0h0a.11.11,0,0,1-.1-.09l-.2-1.1a.07.07,0,0,1,.07-.08h0a.12.12,0,0,1,.11.08l.19,1.1A.07.07,0,0,1,432.3,147.83Zm.48,0h0a.12.12,0,0,1-.11-.09l-.2-1.1s0-.08.08-.08h0a.11.11,0,0,1,.1.08l.2,1.1A.07.07,0,0,1,432.78,147.83Zm.47,0h0a.12.12,0,0,1-.11-.09l-.19-1.1a.07.07,0,0,1,.07-.08h0a.11.11,0,0,1,.1.08l.2,1.1A.07.07,0,0,1,433.25,147.83Zm.48,0h0a.12.12,0,0,1-.11-.09l-.2-1.1s0-.08.08-.08h0a.11.11,0,0,1,.1.08l.2,1.1A.07.07,0,0,1,433.73,147.83Zm.47,0h0a.12.12,0,0,1-.11-.09l-.19-1.1a.07.07,0,0,1,.07-.08h0a.11.11,0,0,1,.1.08l.2,1.1A.07.07,0,0,1,434.2,147.83Zm.48,0h0a.12.12,0,0,1-.11-.09l-.2-1.1s0-.08.08-.08h0a.11.11,0,0,1,.1.08l.2,1.1A.07.07,0,0,1,434.68,147.83Z"/><polygon class="cls-4" points="437.37 158.02 431.38 158.02 430.57 153.55 436.56 153.55 437.37 158.02"/><polygon class="cls-4" points="436.32 151.56 430.12 151.56 430.28 152.56 436.48 152.56 436.32 151.56"/><polygon class="cls-7" points="434.82 157.03 433.66 157.03 433.12 154.05 434.29 154.05 434.82 157.03"/><polygon class="cls-7" points="432.79 156.03 432.61 155.04 435.16 155.04 435.34 156.03 432.79 156.03"/><path class="cls-7" d="M464.7,162.19l-9.16-3.13a.68.68,0,0,1-.47-.72l2.28-12.45a.49.49,0,0,1,.67-.34l9.16,3.13a.68.68,0,0,1,.47.72l-2.28,12.45A.48.48,0,0,1,464.7,162.19Z"/><path class="cls-7" d="M461.07,149.29l-2.07-.7a.62.62,0,0,1-.41-.64h0a.42.42,0,0,1,.58-.3l2.06.71a.61.61,0,0,1,.42.64h0A.42.42,0,0,1,461.07,149.29Z"/><path class="cls-4" d="M459.88,149l-1.05-.36a.6.6,0,0,1-.41-.63h0a.42.42,0,0,1,.58-.3l1.05.36-.17.93Z"/><path class="cls-7" d="M460.63,151.63l-2.06-.7a.61.61,0,0,1-.41-.64h0a.42.42,0,0,1,.58-.3l2.06.71a.59.59,0,0,1,.41.64h0A.42.42,0,0,1,460.63,151.63Z"/><path class="cls-4" d="M459.39,151.29l-1.05-.36a.62.62,0,0,1-.42-.64h0a.43.43,0,0,1,.59-.3l1,.36-.16.93Z"/><path class="cls-7" d="M460.21,154l-2.07-.71a.6.6,0,0,1-.41-.63h0a.42.42,0,0,1,.58-.3l2.06.71a.6.6,0,0,1,.42.63h0A.42.42,0,0,1,460.21,154Z"/><path class="cls-4" d="M459.39,153.62l-1.05-.36a.6.6,0,0,1-.42-.63h0a.43.43,0,0,1,.59-.3l1,.36-.16.93Z"/><path class="cls-7" d="M459.78,156.31l-2.06-.71a.61.61,0,0,1-.42-.64h0a.42.42,0,0,1,.58-.29l2.07.7a.62.62,0,0,1,.41.64h0A.42.42,0,0,1,459.78,156.31Z"/><path class="cls-4" d="M458.89,156l-1.05-.36a.6.6,0,0,1-.41-.64h0a.42.42,0,0,1,.58-.29l1.05.35-.17.93Z"/><path class="cls-7" d="M459.35,158.64l-2.06-.7a.6.6,0,0,1-.41-.64h0a.42.42,0,0,1,.58-.3l2.06.71a.6.6,0,0,1,.41.63h0A.42.42,0,0,1,459.35,158.64Z"/><path class="cls-4" d="M458.39,158.3l-1.05-.36a.61.61,0,0,1-.41-.63h0a.42.42,0,0,1,.58-.3l1.05.35-.17.93Z"/><path class="cls-7" d="M465.27,150.73l-2.06-.71a.6.6,0,0,1-.42-.63h0a.43.43,0,0,1,.59-.3l2.06.71a.59.59,0,0,1,.41.63h0A.42.42,0,0,1,465.27,150.73Z"/><path class="cls-4" d="M464.36,150.39l-1.05-.36a.62.62,0,0,1-.42-.64h0a.42.42,0,0,1,.59-.29l1,.35-.16.93Z"/><path class="cls-7" d="M464.84,153.07l-2.06-.7a.61.61,0,0,1-.41-.64h0a.42.42,0,0,1,.58-.3l2.06.71a.59.59,0,0,1,.41.63h0A.42.42,0,0,1,464.84,153.07Z"/><path class="cls-4" d="M463.86,152.72l-1.05-.35a.61.61,0,0,1-.41-.64h0a.42.42,0,0,1,.58-.3l1,.36-.17.93Z"/><path class="cls-7" d="M464.41,155.41l-2.06-.71a.61.61,0,0,1-.42-.64h0a.43.43,0,0,1,.59-.29l2.06.7a.61.61,0,0,1,.41.64h0A.42.42,0,0,1,464.41,155.41Z"/><path class="cls-4" d="M463.36,155.06l-1.05-.36a.61.61,0,0,1-.41-.64h0a.42.42,0,0,1,.58-.29l1,.35-.17.93Z"/><path class="cls-7" d="M464,157.74l-2.06-.7a.61.61,0,0,1-.41-.64h0a.42.42,0,0,1,.58-.3l2.06.71a.6.6,0,0,1,.41.63h0A.42.42,0,0,1,464,157.74Z"/><path class="cls-4" d="M462.86,157.39l-1-.35a.62.62,0,0,1-.42-.64h0a.42.42,0,0,1,.58-.3l1,.36-.17.93Z"/><path class="cls-7" d="M463.56,160.08l-2.07-.71a.61.61,0,0,1-.41-.63h0a.42.42,0,0,1,.58-.3l2.06.7a.62.62,0,0,1,.42.64h0A.42.42,0,0,1,463.56,160.08Z"/><path class="cls-4" d="M462.37,159.74l-1.05-.36a.61.61,0,0,1-.41-.64h0a.42.42,0,0,1,.58-.3l1.05.36-.17.93Z"/><path class="cls-7" d="M445.32,186.76l-7,2.72a.62.62,0,0,1-.74-.32l-6.8-12.52a.47.47,0,0,1,.2-.68l7-2.72a.63.63,0,0,1,.73.32l6.8,12.52a.47.47,0,0,1-.19.68Z"/><path class="cls-8" d="M435.05,177.43a.59.59,0,0,1,0,.08.93.93,0,0,1-.44,1.32,1.29,1.29,0,0,1-1.49-.58l0-.07s0-.05,0-.08a1,1,0,0,1,.44-1.33,1.29,1.29,0,0,1,1.48.58Z"/><path class="cls-10" d="M434.88,177.49l0,.07a.78.78,0,0,1-.37,1.1,1.05,1.05,0,0,1-1.22-.49l0-.06,0-.07a.78.78,0,0,1,.37-1.09,1,1,0,0,1,1.22.48A.21.21,0,0,1,434.88,177.49Z"/><path class="cls-5" d="M434.88,177.49l0,.07-1.59.61,0-.06,0-.07,1.59-.61Z"/><path class="cls-8" d="M436.58,180.26a.2.2,0,0,1,0,.08.92.92,0,0,1-.44,1.32,1.28,1.28,0,0,1-1.48-.58l0-.07a.3.3,0,0,1,0-.08.93.93,0,0,1,.44-1.33,1.29,1.29,0,0,1,1.48.58Z"/><path class="cls-10" d="M436.41,180.32a.24.24,0,0,1,0,.07.77.77,0,0,1-.36,1.09,1.06,1.06,0,0,1-1.23-.48l0-.06s0-.05,0-.07a.78.78,0,0,1,.37-1.1,1.05,1.05,0,0,1,1.22.49S436.4,180.3,436.41,180.32Z"/><path class="cls-5" d="M436.41,180.32a.24.24,0,0,1,0,.07l-1.59.61,0-.06s0-.05,0-.07l1.59-.61Z"/><path class="cls-8" d="M438.12,183.08s0,0,0,.08a1,1,0,0,1-.44,1.33,1.29,1.29,0,0,1-1.48-.58l-.05-.08,0-.08a.93.93,0,0,1,.44-1.32,1.28,1.28,0,0,1,1.48.58Z"/><path class="cls-10" d="M438,183.15a.16.16,0,0,1,0,.06.77.77,0,0,1-.37,1.1,1,1,0,0,1-1.22-.48l0-.07s0,0,0-.06a.79.79,0,0,1,.36-1.1,1.07,1.07,0,0,1,1.23.48Z"/><path class="cls-5" d="M438,183.15a.16.16,0,0,1,0,.06l-1.59.62,0-.07s0,0,0-.06l1.59-.62Z"/><path class="cls-8" d="M439.66,185.91s0,.05,0,.08a.93.93,0,0,1-.44,1.33,1.3,1.3,0,0,1-1.48-.58l0-.08a.2.2,0,0,1,0-.08.92.92,0,0,1,.44-1.32,1.28,1.28,0,0,1,1.48.58Z"/><path class="cls-10" d="M439.49,186l0,.06a.79.79,0,0,1-.37,1.1,1.06,1.06,0,0,1-1.22-.48.16.16,0,0,1,0-.07l0-.06a.78.78,0,0,1,.37-1.1,1.06,1.06,0,0,1,1.22.48A.16.16,0,0,1,439.49,186Z"/><path class="cls-5" d="M439.49,186l0,.06-1.59.62a.32.32,0,0,1,0-.07l0-.06,1.59-.62A.32.32,0,0,1,439.49,186Z"/><path class="cls-8" d="M438.56,176.07a.2.2,0,0,1,0,.08.92.92,0,0,1-.44,1.32,1.28,1.28,0,0,1-1.48-.58l-.05-.07s0,0,0-.08a.94.94,0,0,1,.45-1.33,1.3,1.3,0,0,1,1.48.58Z"/><path class="cls-10" d="M438.39,176.13a.24.24,0,0,1,0,.07.76.76,0,0,1-.37,1.09,1,1,0,0,1-1.22-.48l0-.06s0-.05,0-.07a.78.78,0,0,1,.37-1.1,1.06,1.06,0,0,1,1.22.49Z"/><path class="cls-5" d="M438.39,176.13a.24.24,0,0,1,0,.07l-1.59.61,0-.06s0-.05,0-.07l1.59-.61Z"/><path class="cls-8" d="M440.1,178.89l0,.08a.94.94,0,0,1-.45,1.33,1.3,1.3,0,0,1-1.48-.58l0-.08a.25.25,0,0,1,0-.07.94.94,0,0,1,.44-1.33,1.28,1.28,0,0,1,1.48.58Z"/><path class="cls-10" d="M439.93,179l0,.06a.78.78,0,0,1-.37,1.1,1,1,0,0,1-1.22-.48.16.16,0,0,1,0-.07l0-.06a.78.78,0,0,1,.37-1.1,1.06,1.06,0,0,1,1.22.48A.16.16,0,0,1,439.93,179Z"/><path class="cls-5" d="M439.93,179l0,.06-1.59.62a.32.32,0,0,1,0-.07l0-.06,1.59-.62A.32.32,0,0,1,439.93,179Z"/><path class="cls-8" d="M441.63,181.72a.3.3,0,0,1,0,.08.93.93,0,0,1-.44,1.33,1.29,1.29,0,0,1-1.48-.58l-.05-.08,0-.08a.92.92,0,0,1,.44-1.32,1.29,1.29,0,0,1,1.48.58Z"/><path class="cls-10" d="M441.46,181.79a.16.16,0,0,1,0,.06.78.78,0,0,1-.36,1.1,1.07,1.07,0,0,1-1.23-.48l0-.07s0,0,0-.06a.78.78,0,0,1,.37-1.1,1.07,1.07,0,0,1,1.22.48Z"/><path class="cls-5" d="M441.46,181.79a.16.16,0,0,1,0,.06l-1.59.62,0-.07s0,0,0-.06l1.59-.62Z"/><path class="cls-8" d="M443.16,184.55a.2.2,0,0,1,0,.08.93.93,0,0,1-.44,1.33,1.29,1.29,0,0,1-1.48-.59l0-.07a.2.2,0,0,1,0-.08.93.93,0,0,1,.44-1.33,1.27,1.27,0,0,1,1.48.59Z"/><path class="cls-10" d="M443,184.61l0,.07a.78.78,0,0,1-.37,1.1,1.06,1.06,0,0,1-1.22-.48.16.16,0,0,1,0-.07l0-.06a.79.79,0,0,1,.37-1.1,1.06,1.06,0,0,1,1.23.48Z"/><path class="cls-5" d="M443,184.61l0,.07-1.59.62a.32.32,0,0,1,0-.07l0-.06,1.6-.62Z"/><path class="cls-4" d="M463.54,179.39H467l-1.3-4.81a.89.89,0,0,0-.83-.66h-1.17a.58.58,0,0,0-.59.66l.44,4.81Z"/><path class="cls-5" d="M463.61,189.33h7.11s-1.33-5.11-2.14-9.17a22.22,22.22,0,0,0-.65-2.9,2.34,2.34,0,0,0-1.29-.62,7.45,7.45,0,0,0-3.81,0c-.54.15-1,.36-1.06.62a19.54,19.54,0,0,0,.38,2.87l1.47,9.2Z"/><path class="cls-4" d="M468.37,183.8a1.77,1.77,0,0,1-1.78,2.18A2.71,2.71,0,0,1,464,183.8a1.76,1.76,0,0,1,1.79-2.17A2.71,2.71,0,0,1,468.37,183.8Z"/><polygon class="cls-7" points="467 185.35 465.93 185.35 465.39 182.37 466.47 182.37 467 185.35"/><polygon class="cls-7" points="464.9 184.36 464.73 183.37 467.49 183.37 467.66 184.36 464.9 184.36"/><path class="cls-5" d="M462.14,180a10.94,10.94,0,0,1,6.44,0,22.69,22.69,0,0,0-.65-2.9,2.37,2.37,0,0,0-1.29-.62,7.45,7.45,0,0,0-3.81,0c-.54.15-1,.36-1.07.62A23.32,23.32,0,0,0,462.14,180Z"/><path class="cls-7" d="M443.53,217.16h-4a1.53,1.53,0,0,1-1.44-1.21l-1.57-8.73H443l1.58,8.73a1,1,0,0,1-1,1.21Z"/><polygon class="cls-7" points="440.56 204.24 437.86 204.24 436.63 207.22 442.86 207.22 440.56 204.24"/><polygon class="cls-7" points="440.44 204.24 437.93 204.24 437.48 201.76 440 201.76 440.44 204.24"/><path class="cls-5" d="M440.42,203.74h-2.71a.68.68,0,0,1-.64-.53l-.52-2.91a.43.43,0,0,1,.44-.53h2.71a.66.66,0,0,1,.63.53l.53,2.91A.44.44,0,0,1,440.42,203.74Z"/><path class="cls-7" d="M442.3,215.17H440a.69.69,0,0,1-.65-.55l-1.14-6.35a.45.45,0,0,1,.45-.55H441a.7.7,0,0,1,.65.55l1.14,6.35A.45.45,0,0,1,442.3,215.17Z"/><polygon class="cls-10" points="440.97 212.19 440.29 212.19 439.97 210.7 440.66 210.7 440.97 212.19"/><polygon class="cls-10" points="439.67 211.69 439.54 211.2 441.27 211.2 441.4 211.69 439.67 211.69"/><path class="cls-10" d="M450.41,217.16H447.2a1.21,1.21,0,0,1-1.15-1l-1.26-7H450l1.26,7a.78.78,0,0,1-.79,1Z"/><polygon class="cls-10" points="448.03 206.73 445.78 206.73 444.76 209.21 449.96 209.21 448.03 206.73"/><polygon class="cls-10" points="448.04 206.73 445.76 206.73 445.36 204.24 447.64 204.24 448.04 206.73"/><path class="cls-5" d="M448,205.73h-2.38a.58.58,0,0,1-.55-.47l-.46-2.54a.39.39,0,0,1,.39-.47h2.37a.58.58,0,0,1,.55.47l.46,2.54A.38.38,0,0,1,448,205.73Z"/><path class="cls-7" d="M449.42,215.67h-1.79a.55.55,0,0,1-.53-.45l-.92-5.07a.36.36,0,0,1,.37-.44h1.79a.56.56,0,0,1,.53.44l.92,5.08A.37.37,0,0,1,449.42,215.67Z"/><polygon class="cls-10" points="448.39 213.19 447.8 213.19 447.53 211.69 448.12 211.69 448.39 213.19"/><polygon class="cls-10" points="447.28 212.69 447.19 212.19 448.63 212.19 448.74 212.69 447.28 212.69"/><path class="cls-4" d="M475.85,216.67h-7.56a1.44,1.44,0,0,1-1.35-1.16l-1.51-8.37a2.35,2.35,0,0,1,2.37-2.9h4.06a3.63,3.63,0,0,1,3.42,2.9l1.51,8.37a.94.94,0,0,1-.94,1.16Z"/><polygon class="cls-4" points="471.33 201.76 467.58 201.76 467.94 203.74 471.69 203.74 471.33 201.76"/><path class="cls-5" d="M471.66,201.76h-4.42a.52.52,0,0,1-.49-.41l-.3-1.67a.34.34,0,0,1,.34-.41h4.43a.5.5,0,0,1,.48.4l.3,1.68A.34.34,0,0,1,471.66,201.76Z"/><polygon class="cls-4" points="474.56 213.68 468.57 213.68 467.77 209.21 473.76 209.21 474.56 213.68"/><polygon class="cls-7" points="472.02 212.69 470.85 212.69 470.32 209.71 471.48 209.71 472.02 212.69"/><polygon class="cls-7" points="469.98 211.69 469.8 210.7 472.35 210.7 472.53 211.69 469.98 211.69"/><polygon class="cls-11" points="432.37 130.39 420.33 129.88 411.45 122.62 423.51 123.12 432.37 130.39"/><polygon class="cls-8" points="435.55 123.63 444.41 130.9 432.37 130.39 423.51 123.12 435.55 123.63"/><polygon class="cls-11" points="456.76 131.7 444.37 131.18 444.37 131.18 435.25 123.71 447.63 124.23 447.64 124.23 456.76 131.7"/><polygon class="cls-8" points="468.5 131.9 456.46 131.4 447.59 124.13 459.62 124.64 468.5 131.9"/><polygon class="cls-11" points="480.55 132.41 468.5 131.9 459.62 124.64 471.67 125.15 480.55 132.41"/><path class="cls-4" d="M426.09,137h0a6,6,0,0,1-6-6v-1.16l11.93.47V131A6,6,0,0,1,426.09,137Z"/><path class="cls-11" d="M438.52,137.52h0a6,6,0,0,1-6-6V130.4l11.93.47v.58a6,6,0,0,1-6,6.07Z"/><path class="cls-4" d="M450.44,138h0a6,6,0,0,1-6-6V130.9l11.92.48V132a6,6,0,0,1-6,6.07Zm23.86,1h0a6,6,0,0,1-6-6v-1.15l11.93.47V133a6,6,0,0,1-6,6.07Z"/><path class="cls-11" d="M462.37,138.54h0a6,6,0,0,1-6-6v-1.16l11.93.47h0a5.77,5.77,0,0,1-3.2,5.27Z"/><path class="cls-12" d="M573.34,279.74s.53,4.23-.42,6,2.33,4.75,2.33,4.75l7.7-2.86a18.17,18.17,0,0,1-1.37-3.58c-.22-1.27-1.06-6-1.06-6Z"/><path class="cls-13" d="M596.07,294.62l-35.71.45s-4.46-.26-4.62,1.38,10.92,1,10.92,1h9.67c1.94,0,3.89,0,5.83,0s4.05,0,6.07-.05,3.78,0,5.67-.08c1.55,0,3.1-.07,4.64-.13,1,0,2-.08,3-.19a2.49,2.49,0,0,0,.69-.21c.36-.16.91-.44.8-.9a1.48,1.48,0,0,0-.71-.83,5.51,5.51,0,0,0-2.22-.41C598.74,294.55,597.41,294.61,596.07,294.62Z"/><path class="cls-12" d="M598.11,280.36l-6-3.51a59.49,59.49,0,0,0-1.29,6,24.27,24.27,0,0,0,.62,4.94l5.37,1.11a7.8,7.8,0,0,0,1.06-4.59,9.7,9.7,0,0,1,.16-3.83A.66.66,0,0,0,598.11,280.36Z"/><path class="cls-14" d="M589,296s-1.27.37-.38,1.69,2.65,2.1,5.18,2.2,6.73-2.1,6.95-3.53-2.1-2.32-2.1-2.32Z"/><path class="cls-15" d="M590.51,287a3.77,3.77,0,0,1,3.86-2.54c3.09.11,3.31,2.09,3.53,3.3a31.09,31.09,0,0,0,2,4.86c.56,1.21.34,3.09-.54,3.53s-3.86,2.21-7.28,1.77-3.54-2.42-3.21-3.31a9.92,9.92,0,0,0,1.1-4A15.08,15.08,0,0,1,590.51,287Z"/><path class="cls-16" d="M599,293.25a4.44,4.44,0,0,0-2.08-.66,11.63,11.63,0,0,0-2.28-.18,12.12,12.12,0,0,0-4.48,1c-.34.13-.21.67.15.55a12.4,12.4,0,0,1,4.23-.62,11.63,11.63,0,0,1,2.12.21,11.15,11.15,0,0,0,2,.47C599.07,294,599.35,293.51,599,293.25ZM592.76,286a13.62,13.62,0,0,0-.42,1.87q-.08.48-.12,1a4.64,4.64,0,0,1-.07.92c-.08.2-.37.31-.55.43s-.41.29-.61.45a4.74,4.74,0,0,0-1.12,1.2.47.47,0,0,0,.74.57c.45-.39.83-.86,1.3-1.23s.89-.5,1.07-1a7.22,7.22,0,0,0,.16-1.81,18.17,18.17,0,0,1,.36-2.19A.38.38,0,0,0,592.76,286Zm5.6,5a5.21,5.21,0,0,0-2.64-1.15c-.23-.05-.38,0-.45-.16a2.68,2.68,0,0,1,0-.85c0-.61-.06-1.22-.08-1.83a.29.29,0,0,0-.57,0c-.05.71-.14,1.42-.19,2.14,0,.48-.12,1,.3,1.38s1.08.32,1.55.49,1.07.57,1.63.8S598.69,291.29,598.36,291Z"/><path class="cls-11" d="M556.46,197.16c.07.53.06,1.05.11,1.61.08,1,.08,2.08.12,3.12A224.59,224.59,0,0,0,561,233.2c1.67,7.82,4.3,19.2,6.2,27a111.52,111.52,0,0,0,3.37,12.48,11.29,11.29,0,0,1,.51,1.62,2.47,2.47,0,0,1,0,.9c0,.25-.14.49-.2.74a1.26,1.26,0,0,0,.54,1.4,1.55,1.55,0,0,1,.36.19c.2.19.13.53,0,.79a4.69,4.69,0,0,0-.24,2,8,8,0,0,0,.4,1.88c.42,1,1.42,1.17,2.4,1.35a10.75,10.75,0,0,0,6.88-.94,4.13,4.13,0,0,0,1.58-1.22c.59-.85.18-1.84,0-2.77-.1-.63-.38-1.09-.11-1.74a2.14,2.14,0,0,0,.16-.42,1.17,1.17,0,0,0-.15-.65,4.83,4.83,0,0,0-.51-.84,1.62,1.62,0,0,1-.28-.45A1.47,1.47,0,0,1,582,274c0-1.65-.07-3.25-.26-4.88-.59-4.94-1.12-10.2-1.88-15.11,0-.24-.07-.47-.11-.7-.79-4.74-1.27-6.17-1.27-7.11s-1.91-19.39-1.91-19.39a28.23,28.23,0,0,1,1.27,4.12c.38,1.51.73,3,1.08,4.56q.71,3.15,1.39,6.32.81,3.74,1.61,7.47c.57,2.66,1.14,5.33,1.7,8s1.13,5.27,1.7,7.9a43.86,43.86,0,0,0,2.15,7.73,1.21,1.21,0,0,1,.14.55,1.14,1.14,0,0,1-.1.36,2.32,2.32,0,0,0-.1,1.73c.24.53.81.86,1,1.41a2.22,2.22,0,0,1,.07.68,7.27,7.27,0,0,0,.12,2.19c.26.74.41,1.53.63,2.28a2.53,2.53,0,0,0,.68,1.43,1.59,1.59,0,0,0,1.14.18,19.5,19.5,0,0,0,5.57-1.69,7.39,7.39,0,0,0,2.93-2,1,1,0,0,0,.24-1.06,10.16,10.16,0,0,1,0-1.56,2.56,2.56,0,0,0-.46-1.15,1.71,1.71,0,0,1-.29-.43,1.39,1.39,0,0,1,0-.41c0-1.05.08-2.1,0-3.15s-.16-1.89-.26-2.83q-.6-5.37-1.18-10.73c-.5-4.41-1-7-1.56-11.44-.46-4-1.31-11.18-1.82-15.13-4.26-32.9-10.08-52.56-10.08-52.56l-9-2.43c-.4-.19-2,.42-2.38.51l-5.49,1.17c-1.88.41-3.74.87-5.61,1.3-.79.17-.44-2.2-1.16-1.84s-1.2,1.6-1.44,2.2c-.39,1-.72,2.14-1.06,3.2q-1.07,3.34-1.86,6.76a23.52,23.52,0,0,0-.53,2.88,3.88,3.88,0,0,0,.07,1.48,7.49,7.49,0,0,0,.52,1.16A4.16,4.16,0,0,1,556.46,197.16Z"/><path class="cls-7" d="M578.15,232.23c-.37-1.59-1.13-4.68-1.66-6.23s-1.12-3.21-1.7-4.81C573.63,218,572,210.07,570.71,207a.47.47,0,0,0-.9.25c.82,3.59,2.54,10.4,3.54,13.19.67,1.88,1.42,3.72,2.12,5.58s1.42,4.88,2.15,6.67C577.88,233.29,578.31,232.94,578.15,232.23Z"/><path class="cls-14" d="M558.51,293.19a1.14,1.14,0,0,0-.69.83c-.05.55,1,1.31,2.71,2a10.49,10.49,0,0,0,6,.76c4.1-.4,5.19-1.49,7.23-1.69s2.27-.22,2.29,0-.18.93.27,1.11,7.44-.08,8-1.11-1-3.94-1-3.94Z"/><path class="cls-15" d="M583.73,292.05a17.56,17.56,0,0,1-7.42,1.56c-4.88.15-5.67.83-7.35,1.43a11.2,11.2,0,0,1-5.63.33,12.8,12.8,0,0,1-4.92-2.06c-.13-.21.19-1.67,1.89-2.17s3.63.37,5.87-1.16,5.37-5.21,6.14-5.17,1.66.87,2.43,2.1a4.45,4.45,0,0,0,5,1.52c1.77-.83,1.9-2.51,2.58-2.25S583.73,292.05,583.73,292.05Z"/><path class="cls-16" d="M570.12,292.25a8.65,8.65,0,0,0-1.35-1.15,24.31,24.31,0,0,1,4.61-3.55c.38-.2.41-.71,0-.53a22.81,22.81,0,0,0-5.87,3.82.54.54,0,0,0,.08.76,19.26,19.26,0,0,1,1.74,1.39C569.79,293.38,570.54,292.72,570.12,292.25Z"/><path class="cls-14" d="M570.2,195c-.1-1.18-.38-2.35-.51-3.53s-.24-2.5-.29-3.75a.41.41,0,0,0-.81,0,40.68,40.68,0,0,0,.49,6.43,3.4,3.4,0,0,1-.4,2.75,6.68,6.68,0,0,1-1.73,1.44,56.63,56.63,0,0,1-1-10.71.51.51,0,0,0-1,0,47.94,47.94,0,0,0,2.12,14.07.29.29,0,0,0,.55-.15c-.06-.29-.38-1.78-.44-2.08l.06,0C568.88,198.49,570.37,197.07,570.2,195Zm15,2.56a3.65,3.65,0,0,0-.86-1.06q-.5-.52-1-1.08a21.93,21.93,0,0,1-1.6-2.22,23.23,23.23,0,0,1-2.38-5.1.51.51,0,0,0-1,.27,21.43,21.43,0,0,0,2.36,5.42,21.88,21.88,0,0,0,1.64,2.34c.31.4.65.79,1,1.17a3.23,3.23,0,0,0,1.11.94A.56.56,0,0,0,585.22,197.57Z"/><path class="cls-17" d="M578,260c-1.23-7.26-2.58-14.82-3.28-22.16a96.4,96.4,0,0,1-.46-12.37.19.19,0,0,0-.38,0,115.69,115.69,0,0,0,1.6,21.66c1.1,7.25,2.52,14.75,3.54,22,.58,4.15,1,8.32,1.2,12.51,0,.27.44.27.42,0A173.39,173.39,0,0,0,578,260Z"/><path class="cls-14" d="M593.19,234.34a16.25,16.25,0,0,1-3.77.93c-.41,0-1.36.27-1.69,0-.14-.14-.18-.65-.25-.86-.11-.39-.21-.77-.32-1.15-.72-2.48-1.43-5-2.14-7.45-.36-1.25-.71-2.49-1.07-3.73-.09-.34-.21-.69-.32-1a3.33,3.33,0,0,0,2.63,2.23,10.27,10.27,0,0,0,2.8-.38c1.12-.21,2.25-.4,3.37-.65.71-.15.4-1.2-.3-1.08-1.65.29-3.28.7-4.93,1a2.25,2.25,0,0,1-2.08-.5,6.57,6.57,0,0,1-1.29-1.84.29.29,0,0,0-.32-.16c.16-.3.55-.39,1-.51,2.48-.72,5-1.12,7.51-1.72a.4.4,0,0,0-.1-.78,31.52,31.52,0,0,0-7,1.24c-.83.22-2,.35-2.43,1.21a3.67,3.67,0,0,0,.21,2.56l2.07,7.32c.34,1.19.67,2.39,1,3.59a19.89,19.89,0,0,0,1,3.33c.5,1,2.06.67,3,.56a17.09,17.09,0,0,0,3.81-.92C594.24,235.23,593.92,234.07,593.19,234.34ZM583.75,280c-.06-.51-.55-.73-.61-1.18s.19-1-.15-1.48a1.13,1.13,0,0,0-1.2-.45.56.56,0,0,0-.28.13.56.56,0,0,0-.34,0c-.74.17-1.45.46-2.2.63a13.48,13.48,0,0,1-2.37.3,9.78,9.78,0,0,1-4.46-.6.49.49,0,0,0-.57.07,1.33,1.33,0,0,0-.75,1.95,4.51,4.51,0,0,0,.37.39,1,1,0,0,1,.21.87,2.64,2.64,0,0,0,.11,1.42c.86,2,4.09,2,5.91,1.88,2-.17,4.85-.87,6-2.69A1.93,1.93,0,0,0,583.75,280Zm16.73.17c-.07-.16-.23-.27-.27-.43a.83.83,0,0,1,0-.44,1.11,1.11,0,0,0-.32-1.21,1.53,1.53,0,0,0-1.4.12,14.28,14.28,0,0,1-8.59.72,9.91,9.91,0,0,0-1.4-.28c-.86-.09-.76,1-.49,1.46a3.77,3.77,0,0,0,.63.8.89.89,0,0,1,.24.47,1.06,1.06,0,0,1-.06.34,1.88,1.88,0,0,0,.15,1,2.57,2.57,0,0,0,.58.91,2.68,2.68,0,0,0,1.61.64,7.4,7.4,0,0,0,1.75-.15l1.26-.2a15.35,15.35,0,0,0,3.48-.83,5.17,5.17,0,0,0,2.68-2.27A.79.79,0,0,0,600.48,280.15Z"/><path class="cls-13" d="M520.79,293.66c-.15,0-18.23,0-18.61,1.33s8.37,1.32,8.37,1.32,28.75.17,29.51-1.17S540.16,292.91,520.79,293.66Z"/><path class="cls-14" d="M513.39,278.8s.05,7.35,5,12.71,10.45.6,12.35-2.83A24.3,24.3,0,0,0,533,276.5c-.39-2.86-9.91-4.94-9.91-4.94Z"/><path class="cls-18" d="M522.34,278s0,5.33,2.48,7.42,6.28-1.53,6.08-7.24-7.42-2.66-7.42-2.66Z"/><path class="cls-19" d="M530.05,277.74a8.43,8.43,0,0,0-.43-2.38c-2.12-1.5-6.14.19-6.14.19L522.34,278a17.11,17.11,0,0,0,.4,3.35c.54,1.47,1.58,3.33,3.32,3.21C528.91,284.4,530.05,279.45,530.05,277.74Z"/><path class="cls-14" d="M533.94,266.41s4.95-.39,5.14-1.91-2.29-6.28-2.29-6.28l-10.66,3.44,3.81,5.7Z"/><path class="cls-19" d="M527.08,263.56c.19,0,2.48-.19,3.62.57a5.73,5.73,0,0,1,1.52,1.33,5.8,5.8,0,0,1,3,.18c1.14.57,2.86,2.86,2.67,6.28a7.53,7.53,0,0,1-5.13,6.48,4.43,4.43,0,0,1-3.62-.57,12.7,12.7,0,0,1-3.62.58,7.34,7.34,0,0,1-3-.57l.18-11Z"/><path class="cls-14" d="M529.19,277.83a4.43,4.43,0,0,0,3.62.57,6.65,6.65,0,0,0,2.18-1.14,1.56,1.56,0,0,1-1.33-.67c-.19-.19-.95.38-2.28.19s-3-3.42-3.62-3.23a6.05,6.05,0,0,1-1.9,0l-3.27.63-.06,3.66a7.34,7.34,0,0,0,3,.57A12.7,12.7,0,0,0,529.19,277.83Zm7.51-10.11c-1.86-1-2.39,1.89-2.49,3.12a9.69,9.69,0,0,0,.31,3.17c.21.76.43,1.62,1.25,1.89.6.19.86-.75.26-.95s-.85-2.58-.87-3.15c0-.73,0-3.57,1.24-3.37C536.8,268.49,537.13,267.94,536.7,267.72Z"/><path class="cls-14" d="M532.21,275.35a10.44,10.44,0,0,1-1.05-4.36,8.89,8.89,0,0,1,.56-4.32.18.18,0,0,0-.3-.18c-1.75,2.73-1.49,6.53-.09,9.38C531.62,276.45,532.51,275.94,532.21,275.35Z"/><path class="cls-19" d="M502.16,279.19c-.19,0,.39,2.86,1,3.24s4,.37,4,.56a13.89,13.89,0,0,0-2.08,5.14c-.57,3.24-.38,4.95-.57,5.14s-1.33.39-1.52,1,.95.76,1.52.95a2.61,2.61,0,0,0,2.09-.19c.38-.39.38-8.76,2.66-11.24a5.28,5.28,0,0,1,7.61-.58c1.91,1.91,1.72,3.05,1.72,4.95s-.76,4.76.58,6.47,5.71,1.14,7.8.76,7.23-1.91,8.38-1.72.57,1.14,1.14,1.14,1.9.38,1.9,0,.76-1.53-.19-2.67-3.52-.47-5-.28-7.24,1.34-8.76,1.72-4.19,0-3.81-2.09,1.14-4.95.57-6.85-2.48-2.86-2.29-3.24,2.47-.95,2.85-1.33.19-2.48.19-2.48Z"/><path class="cls-20" d="M521.32,202.08s2.26-21.32,3.59-22.27,23.61.35,24.94.73,2.86,3.05,3.24,3.81-2.27,22.08-3,22.46-8.18-.37-8.18-.37Z"/><path class="cls-21" d="M550.06,206.81c.76-.38,3.41-21.7,3-22.46s-1.65-3-2.89-3.66v.24c-.09,1.88-.51,10.5-1.18,14.56-.76,4.57-1.52,8.75-1.71,8.95a16.21,16.21,0,0,1-3,0l.39,2.25C546.84,206.87,549.61,207,550.06,206.81Z"/><path class="cls-21" d="M547.11,183.51a.29.29,0,0,0-.11-.11s-18.85-1.12-19.8-.36-2.37,14.78-2.47,17.17a.36.36,0,0,0,0,.23c0,.07,0,.11,0,.11h.06a.31.31,0,0,0,.19.1,61.74,61.74,0,0,0,9.32.49,79.74,79.74,0,0,1,9.65.74c.34,0,.42-.54.08-.6a55.3,55.3,0,0,0-9.17-.88,76,76,0,0,1-8.93-.38c.32-2.78,1.8-15.59,2.31-15.93s15.06.67,18.24.75a108,108,0,0,1-1,13.91c-.07.51.7.74.79.21A94.68,94.68,0,0,0,547.55,184,.5.5,0,0,0,547.11,183.51Z"/><path class="cls-22" d="M545.39,201.58s2.46-16.56,1.51-17.32-19.23-1.13-19.61-.36-2.26,16.18-1.88,16.37,13.51.56,13.51.56Z"/><path class="cls-21" d="M533.41,180.91l-9,.16c-.33,1.19-.69,3.1-1,5.3A34.46,34.46,0,0,0,533.41,180.91Z"/><path class="cls-14" d="M529.05,228.63c.19,0,9.36.68,9.25,1.19S527.91,233,527.91,233Z"/><path class="cls-18" d="M539.77,229.56c-.35-.82-1.49-.85-2.23-1A33.24,33.24,0,0,0,530,228c-.57,0-.57.91,0,.9a22.68,22.68,0,0,1,4.51.43c.72.12,1.51,0,2.22.2,0,0,.29.17.38.19-1.66.31-3.61.72-5.25,1.16l-.66.15a30.44,30.44,0,0,0-3.53,1,8.93,8.93,0,0,0-3.29,1.64.65.65,0,0,0,.63,1.08,27.89,27.89,0,0,0,3.38-1.38,32.55,32.55,0,0,1,3.2-.94c2.35-.58,4.75-.9,7.1-1.44C539.39,230.83,540.1,230.34,539.77,229.56Z"/><path class="cls-20" d="M510.87,228.55c-.19-.19-1-24.94-.21-26.08s24.93-.78,26.45-.6,9.33,1.33,9.91,2.47-1.12,23.6-1.89,24.37-8.94,1.15-9.7,1S510.87,228.55,510.87,228.55Z"/><path class="cls-21" d="M537.11,201.87l-.3,0-.87,27.86c2,.06,8.52-.33,9.19-1s2.46-23.23,1.89-24.37S538.64,202.06,537.11,201.87Z"/><path class="cls-23" d="M528.63,221.56a8.56,8.56,0,0,0-2.93-.6c-1.2-.13-2.42-.2-3.62-.27s-2.3-.13-3.44-.15a10.32,10.32,0,0,0-2.83.15c-1.95.54-2.08,2.35-1.63,4,.15.58,1.16.48,1.08-.15s-.25-1.54.24-2.08a2.46,2.46,0,0,1,1.87-.48c1.51,0,3,.08,4.53.18a43.42,43.42,0,0,1,4.69.4c.58.09,1.54.07,1.54.8a6.35,6.35,0,0,1-.75,2.22c-.32.78.81,1,1.19.26C529.26,224.54,530.42,222.47,528.63,221.56Z"/><path class="cls-20" d="M491.75,279.07c.19.19,2.29.76,15.23.33s17.7-1,18.84-2.73.74-5.33.55-6.09-.58-2.28-.58-2.28.74-3.81,1.12-4.2,4.38-.77,6.85-1.73,7.6-5.74,8-6.31-2.52-15.22-5.58-18.07-9.35-5.67-11.06-5.67-21.5,3.69-21.5,3.69Z"/><path class="cls-21" d="M536.22,238.75c-3.32-2-6.29,1-7,4.16-1,4.18,0,8.53.93,12.65.15.65.92.63.77,0a34.66,34.66,0,0,1-1-10.49,8.23,8.23,0,0,1,1.53-4.61c1-1.29,3-2.19,4.55-1.29A.23.23,0,0,0,536.22,238.75Zm-5.84,20.67a13.25,13.25,0,0,1-1.88.47c-.63.11-1.28.1-1.91.23a.39.39,0,0,0,0,.74,9.12,9.12,0,0,0,4.07-.45C531.29,260.23,531,259.22,530.38,259.42Zm.36,1.68a12.27,12.27,0,0,1-2.82.5.46.46,0,0,0,0,.91,8.57,8.57,0,0,0,3.1-.4A.52.52,0,0,0,530.74,261.1Z"/><path class="cls-22" d="M540.45,251.65c-1.85.83-3.53,2.13-5.31,3.11a18.81,18.81,0,0,1-5.67,2.37,20.08,20.08,0,0,1-6.38-.1c-1-.14-2.07-.39-3.13-.47-.13-.47-.3-1.12-.4-1.66-.19-1-2.1-7-1.16-11.61a14.06,14.06,0,0,1,4.57-7.42l-20.67,4.72-.07,8.81a23,23,0,0,0,.71,5.23,21.12,21.12,0,0,0,3.77,7.44,24,24,0,0,1,3.06,5.8,10.74,10.74,0,0,0,1,2.33,1.08,1.08,0,0,0,1.11.61,12.39,12.39,0,0,0,4.49-1.34,4,4,0,0,0,1.45-1,5,5,0,0,0,.8-1.72,16.36,16.36,0,0,0,.5-2.41,43.86,43.86,0,0,0,.54-4.85,14.53,14.53,0,0,1,.13-2c.07-.47.49-.26.84-.2s.73.16,1.09.21c.77.1,1.53.22,2.3.31a18,18,0,0,0,6.13-.19,20.67,20.67,0,0,0,5.31-2.36,24.67,24.67,0,0,0,5.21-3.39C540.84,251.79,540.63,251.57,540.45,251.65Z"/><path class="cls-24" d="M501.88,243.2s2.82,1.44,8.72-.28,12.37-7,13.7-8,3.8-2.09,4.37-2.48,2.28-4.76.57-6.66-17.52-2.08-20.56-1.5a56.71,56.71,0,0,0-8.18,2.67Z"/><path class="cls-25" d="M524.3,234.91c1.33-.95,3.8-2.09,4.37-2.48s2.28-4.76.57-6.66a1.4,1.4,0,0,0-.39-.28h0c1,1-7,3.71-12.74,4.67s-13.52-2.08-13.52-2.08l-1.08-1.54-1,.4,1.38,16.26s2.82,1.44,8.72-.28S523,235.87,524.3,234.91Z"/><path class="cls-7" d="M537.42,243.16a3.87,3.87,0,0,0-1.56-1.36c-1.94-.75-3.45,1.46-3.82,3a6.9,6.9,0,0,0,.83,5.15,3.25,3.25,0,0,0,.92,1,2.68,2.68,0,0,0,3.24-.56,5.34,5.34,0,0,0,1.27-3.25,6.53,6.53,0,0,0-.47-3.33A4.36,4.36,0,0,0,537.42,243.16Z"/><path class="cls-26" d="M537.19,244.56a6.47,6.47,0,0,0-.85.37,3.65,3.65,0,0,0-.62-1.47c-.55-.37-1.83.74-1.83.74s.22.77.48,1.71a12.55,12.55,0,0,0-1.21.67s.18,1.84.55,2c.13.06.63-.2,1.24-.57.1.4.19.74.23.93.18.92,1.28.19,1.65-.18a4.39,4.39,0,0,0-.08-2c.43-.31.75-.56.81-.61A2.51,2.51,0,0,0,537.19,244.56Z"/><path class="cls-27" d="M529.87,238.78c.2-.28-.23-.58-.47-.36a10.34,10.34,0,0,0-3.14,6.33,18.79,18.79,0,0,0,0,4.24c.13,1.29.18,3.06.86,4.18a.66.66,0,0,0,1.22-.33,6,6,0,0,0-.25-1.77c-.14-.69-.26-1.39-.34-2.09a18.25,18.25,0,0,1-.09-3.84A13,13,0,0,1,529.87,238.78Z"/><path class="cls-23" d="M462.36,181.22a6,6,0,0,0,5,5.44c2.23.41,4.17-.84,5.62-2.39s1.24-3.83.28-5.63a6.2,6.2,0,0,0-4.62-3.18A5.48,5.48,0,0,0,462.36,181.22Z"/><path class="cls-18" d="M485.71,201.34c-2.5-3.14-5.27-6.08-7.86-9.15s-5.18-6.13-7.75-9.22c-.38-.47-1,.2-.66.66,2.5,3.16,5,6.29,7.61,9.36s5.1,6.25,7.88,9.12C485.44,202.63,486.13,201.87,485.71,201.34Z"/><path class="cls-23" d="M520.18,200.21a4.31,4.31,0,0,0,.45,3.35,4.5,4.5,0,0,0,4.68,1.74,5.47,5.47,0,0,0,3.61-2.78,6.13,6.13,0,0,0,.58-1.72,4.09,4.09,0,0,0-.15-2.4,3.3,3.3,0,0,0-1.82-1.7,6.64,6.64,0,0,0-5,.36A4.58,4.58,0,0,0,520.18,200.21Z"/><path class="cls-18" d="M523.69,201a180.57,180.57,0,0,1-19.51,6.36.56.56,0,0,0,.3,1.08,104.54,104.54,0,0,0,19.58-6.56C524.55,201.65,524.2,200.81,523.69,201Z"/><path class="cls-14" d="M510.58,212.24S521.92,217,522.3,218s-.52,2.76-1.32,2.85-10.89-4.38-11.66-5.25S509.71,213,510.58,212.24Z"/><path class="cls-23" d="M512.56,214.33c1.14.91,4,3.24,5,3.84A.83.83,0,0,1,518,218a1.15,1.15,0,0,1,1,.44,1.08,1.08,0,0,1-.83,1.73,1,1,0,0,1-.93-.61,1,1,0,0,1-.11-.65,1.36,1.36,0,0,1,0-.17,23.61,23.61,0,0,1-4-2.17,7.18,7.18,0,0,0-2.05-1.41c-.56-.21-1.92-.2-2.06-.32s.16-1,.52-1.41A5,5,0,0,1,512.56,214.33Z"/><path class="cls-14" d="M510.59,211.87c.43-.21.65.4.36.67a3.75,3.75,0,0,0-1.25,1.94c-.11.54.06,1-.24,1.52a.38.38,0,0,1-.53.06c-.59-.51-.35-1.54-.12-2.19A3.48,3.48,0,0,1,510.59,211.87Z"/><path class="cls-21" d="M497.72,213.9s9.33,3.61,11.24,3.23,3.23-5.14,2.47-6.47-7.59-5-7.59-5Z"/><path class="cls-28" d="M472.65,273.32s-6.3-17.7-5.93-31.79,4.93-21.51,7.4-24,7.61-3.81,7.61-3.81-.19-.57.57-.95a22.63,22.63,0,0,1,4-.77s-.19-2.66-2.1-3.23-8.95-2.09-9.71-3-.38-6.85,1.33-7.42,11,2.08,11.61,1.89,4.95-3.43,10.47-3.06,7.24,5.9,7.43,9.32-1.42,5.81-3.51,6.57a11.62,11.62,0,0,1-3.62.77s7.23,1.51,8.19,8.94-2.08,12-.74,24.36a125.2,125.2,0,0,0,5.17,23.6l-4.19,5.72-15.79,1.91Z"/><path class="cls-21" d="M476.64,264l-4-.19a28.53,28.53,0,0,1-2.16,2.45c1.17,4.26,2.17,7.07,2.17,7.07l1.09.3,4.24-3.35Zm20.7-50.66a7.14,7.14,0,0,1-4-1.52,9.14,9.14,0,0,1-2.71-4.13,7.36,7.36,0,0,1-.54-4.71,10.27,10.27,0,0,1,2.43-4.07c.23-.28-.07-.78-.42-.55a7.87,7.87,0,0,0-2.87,4.08,8.23,8.23,0,0,0,.48,5.69,11,11,0,0,0,2,3.42,10.23,10.23,0,0,0-4.67.08.31.31,0,0,0,.09.6,16.19,16.19,0,0,1,6.34,1,.64.64,0,0,0-.13.15c-1.59,2.52-2.34,5.54-3.23,8.35-.95,3-2.34,5.82-3.41,8.77-.5,1.37-.72,3-2,3.9s-3.31.67-4.93.35c-.89-.18-1.83-.32-1.95-1.42a12,12,0,0,1,.07-2.39,35.52,35.52,0,0,1,.86-5.22c.41-1.78.92-3.53,1.42-5.28.54-1.9.95-3.84,1.48-5.74a.34.34,0,0,0-.65-.18c-.56,1.89-1.24,3.76-1.8,5.66s-1.08,3.73-1.52,5.62a36.62,36.62,0,0,0-.88,5.5c-.09,1.28-.34,3.07.89,3.92a5.28,5.28,0,0,0,2,.62,12.15,12.15,0,0,0,2.87.32,5.19,5.19,0,0,0,3.61-1.49c1-1.13,1.28-2.81,1.8-4.19.64-1.74,1.45-3.41,2.12-5.13,1.49-3.82,2.39-7.77,4.17-11.47a.52.52,0,0,0,0-.38.36.36,0,0,0,.21-.05,6.91,6.91,0,0,0,3.3.43C498.37,213.85,498,213.39,497.34,213.33Z"/><path class="cls-21" d="M486.08,225.75a19.89,19.89,0,0,0-5.86.36c-.5.12-.4.95.12.9a36.68,36.68,0,0,1,5.74-.17C486.78,226.88,486.77,225.8,486.08,225.75ZM485,227.31c-1.71.07-3.42.2-5.13.33-.57,0-.59.92,0,.91,1.71-.05,3.43-.09,5.13-.19C485.69,228.32,485.7,227.29,485,227.31Zm-.83,1.5a18.65,18.65,0,0,0-4.53.41c-.5.1-.39.95.12.89,1.48-.14,2.93-.21,4.41-.29A.51.51,0,0,0,484.19,228.81Zm-.17,1.75a30.09,30.09,0,0,0-4.74.21c-.58.06-.6,1,0,.93,1.58-.11,3.16-.1,4.74-.13A.51.51,0,0,0,484,230.56Zm-1,1.66c-1.21.06-2.41.08-3.63,0-.6,0-.59.9,0,.94a24.3,24.3,0,0,0,3.62,0C483.65,233.16,483.66,232.18,483,232.22Z"/><path class="cls-22" d="M487,201.4a.17.17,0,0,0-.33,0c-.09,1.94-.13,6.11-2.51,6.74a.36.36,0,0,0,.2.7C487.23,208.18,487.14,203.62,487,201.4Z"/><path class="cls-7" d="M503.81,206.47a8.81,8.81,0,0,0-2.67-6.47,5.78,5.78,0,0,0-8.95,1.16c-1.9,3,0,7.8,2.29,9.7s6.48,1.71,8-.39A6.33,6.33,0,0,0,503.81,206.47Z"/><path class="cls-14" d="M503.81,206.47a8.81,8.81,0,0,0-2.67-6.47,5.75,5.75,0,0,0-6.65-1,5.33,5.33,0,0,1,5.12,1.31,8.14,8.14,0,0,1,2.48,6,5.83,5.83,0,0,1-1.23,3.7c-1.09,1.5-3.66,2-5.74,1.27,2.35,1.4,6,1.08,7.36-.84A6.33,6.33,0,0,0,503.81,206.47Z"/><path class="cls-29" d="M495,201.11c-.08-.61-1-.63-1,0a8,8,0,0,1-1.26,5.2c-.36.56.53,1.07.89.52A8.5,8.5,0,0,0,495,201.11Z"/><path class="cls-29" d="M496.3,200c-.2-.48-1-.28-.81.23,1.07,2.89-.32,5.47-1.37,8.11-.2.49.58.8.83.35C496.4,206.12,497.46,202.87,496.3,200Zm2.09,3.3c-.07-.5-1-.39-.9.13.26,2.12-1,3.87-1.68,5.8-.21.6.73.84.95.26C497.55,207.46,498.71,205.56,498.39,203.3Zm1.23-2c-.35-.46-1.13,0-.79.46,1.38,2,.8,4.22-.11,6.28-.24.55.51,1,.83.48C500.81,206.31,501.21,203.41,499.62,201.28Z"/><path class="cls-14" d="M475.91,199.93s-11.8-3.41-12.75-2.84-1.33,2.48-.76,3,11.23,3.41,12.38,3.22S476.11,201.08,475.91,199.93Z"/><path class="cls-23" d="M473.06,200.32c-1.46,0-5.17,0-6.33-.16a.79.79,0,0,0-.22-.41,1.16,1.16,0,0,0-1.09-.31,1.09,1.09,0,0,0-.44,1.87,1.06,1.06,0,0,0,1.11.11,1,1,0,0,0,.49-.44.8.8,0,0,0,.08-.16,23.8,23.8,0,0,0,4.5.83,7.23,7.23,0,0,1,2.47.19c.57.19,1.62,1,1.81,1s.48-.85.48-1.42A5.08,5.08,0,0,0,473.06,200.32Z"/><path class="cls-14" d="M476.14,199.63c-.21-.42-.76-.09-.7.3a3.78,3.78,0,0,1-.25,2.3c-.25.49-.7.78-.76,1.34a.36.36,0,0,0,.37.37c.78,0,1.24-1,1.47-1.63A3.51,3.51,0,0,0,476.14,199.63Z"/><path class="cls-23" d="M506.65,253.91s1.88,14.33,3.79,18.13,5.14,2.28,8.75,1.33,9.14-1.91,9.33-3.06-2.86-2.47-2.86-2.47-12.18,3.82-13.13,3.44-2.86-7.42-3.82-10.46S507.06,253.66,506.65,253.91Z"/><path class="cls-27" d="M477.36,217.25a14.42,14.42,0,0,0-5.15,5.95,38.25,38.25,0,0,0-2.78,9c-.19.89,1.2,1.29,1.36.4,1-5.38,2.61-11.13,6.85-14.92C477.84,217.46,477.59,217.1,477.36,217.25Zm-7.69,17.1a.72.72,0,1,0,0,1.43.72.72,0,1,0,0-1.43Zm19.84-34.82c-1.37.51-1.86,2.05-1.87,3.41a.55.55,0,0,0,1.09,0,4.51,4.51,0,0,1,1.1-2.94C490.16,199.68,490,199.34,489.51,199.53Z"/><path class="cls-13" d="M478,298.82s-9.9-.18-9.71,1,8.95.94,8.95.94,8.56.38,8.18-1S478,298.82,478,298.82Z"/><path class="cls-30" d="M492.45,276.72s4.95-.38,6.85-6.47,1.51-14.85-.4-19.61-7.24-6.27-11.24-6.08-13.32-.56-15.79,2.11-1.14,8.18,1.15,13.13,10.21,15.6,10.21,15.6Z"/><path class="cls-14" d="M469,265.84c0,.25-.34.63.23,1s5.44,1.9,6.15,2.56,8.47-10.05,8.47-10.05l-6.07-4.7L473,257l-2.85,5.9Z"/><path class="cls-19" d="M470.75,276s-3.61,10.86-2.65,16.76,4.58,8,10.1,7.79,12.93-13.72,14.63-23-1.34-15.8-3.25-17.7-10.09-1-13.7,4.58A43,43,0,0,0,470.75,276Z"/><path class="cls-18" d="M480.85,282.45s2.46-6.67,2.27-12.38c-.22-6.3-2.86-6.09-4.57-4.75s-4.38,5.33-6.84,13.9-1.33,11.8-.18,13.13S477.43,293.11,480.85,282.45Z"/><path class="cls-14" d="M480.46,281.3c.05-.18,2.85-8.94,1.7-12.75s-4-1.14-5.51,1.53-4.56,10.47-4.75,16.18,2.48,5.71,4.19,3.61A26.08,26.08,0,0,0,480.46,281.3Z"/><path class="cls-23" d="M481.68,267.44c-1.33-2.05-3.7.29-5,2.64-.23.39-.48.89-.75,1.47a7.72,7.72,0,0,0,.08,1.29c.19,1.33,0,3.23-.38,3.42a4.65,4.65,0,0,1-1.59.05,49,49,0,0,0-1.45,5.17c.24.3.56.67.77.88.38.38.19.38.19.57a10.48,10.48,0,0,0-1.55,2.29c0,.36-.06.7-.07,1-.15,4.59,1.55,5.49,3.11,4.58a8.37,8.37,0,0,1-.16-2.58c.19-1.91.76-3.81.95-3.81A9.82,9.82,0,0,0,477,287.3c.17.26.33.49.47.69a29,29,0,0,0,2.59-5.21c-.49-.43-1.93-1.76-1.93-2.71s2.72-3.77,3.82-4.49a26,26,0,0,0,.54-4.83,7.92,7.92,0,0,0-1.7,1.32c-1.14,1.15-1.71,2.1-1.9,1.72s.76-3.81,2.09-5.52A6.22,6.22,0,0,1,481.68,267.44Z"/><path class="cls-18" d="M477.11,277.23a.34.34,0,0,0-.19-.15.84.84,0,0,0-.85,0A.28.28,0,0,0,476,277a.28.28,0,0,0-.34,0,.13.13,0,0,0-.12,0,1.06,1.06,0,0,0-.43.68.45.45,0,0,0,.12.44,3.23,3.23,0,0,0-.24,1,.23.23,0,0,0-.12.06.16.16,0,0,0-.21.06c-.2.3-.42.95-.06,1.23s.43,0,.55-.22a1.33,1.33,0,0,0,.84.78.46.46,0,0,0,.56-.29.43.43,0,0,0,.18-.15A3.5,3.5,0,0,0,477.11,277.23Zm.12-2.2a.25.25,0,0,0-.35,0,.72.72,0,0,0-.24.5,1.06,1.06,0,0,0-.09.72.34.34,0,0,0,.47.27c.24-.1.33-.46.4-.69A.61.61,0,0,0,477.23,275Zm1.37,1.37c-.32-.1-.54.22-.63.58a1,1,0,0,0-.08.7.37.37,0,0,0,.59.16C478.81,277.58,479.19,276.58,478.6,276.4Zm-1.26,4.44c-.14-.21-.39-.13-.55,0a.15.15,0,0,0-.14,0,1.21,1.21,0,0,0-.34.77c0,.22.05.5.33.49s.49-.27.6-.5S477.49,281.06,477.34,280.84Zm-2,.52a.27.27,0,0,0-.37,0,.11.11,0,0,0-.14,0,1.45,1.45,0,0,0-.33.64,1,1,0,0,0,0,.65c.33.47.77-.43.84-.66S475.51,281.52,475.35,281.36Z"/><path class="cls-14" d="M471.37,295.51a2,2,0,0,1-.43,0c-1.13-.23-1.77-1.39-2.27-3.49,0-.16-.12-.34,0-.38s.13.22.16.38c.44,1.87,1.3,2.75,2.2,2.93,1.27.26,3.14-1.2,5.26-4.11,2.93-4,4.31-7.25,5.92-13.79,1.56-6.38.86-13.5-1.42-14.38s-3.73,1.25-3.8,1.36-.31.42-.44.33,0-.2.06-.33,1.72-2.91,4.38-1.89c2.82,1.08,3.26,9,1.77,15-1.62,6.63-3,9.9-6,14C474.66,294,472.84,295.51,471.37,295.51Z"/><path class="cls-20" d="M469.22,266.85s2.09-5.71,2.85-7.05,2.28-2.47,5.14-1.33a151.11,151.11,0,0,0,14.09,5.69c7.42,2.47,7.42,2.28,7.61,1.9s1.33-10.47-.39-13.52-8.57-8.17-15.61-7-8.76,6.48-11.22,12.57S468.27,266.47,469.22,266.85Z"/><path class="cls-21" d="M484.09,251.44c-.3-2-1.37-4.2-3.48-4.7a.21.21,0,0,0-.17.39c4.17,2.93,2.61,8.67,2.23,13-.06.66,1,.65,1,0C484,257.28,484.52,254.26,484.09,251.44Z"/><path class="cls-27" d="M498.13,255.27a8.87,8.87,0,0,0-3.24-4.74c-.36-.29-.88.22-.52.52a8.21,8.21,0,0,1,2.46,4.87,23.42,23.42,0,0,1-.05,6.74c-.11,1.07,1.6,1.08,1.68,0A22.36,22.36,0,0,0,498.13,255.27Z"/><path class="cls-31" d="M586.11,164.55s-.79,6-1.39,8.39-.6,2.4-.4,3.2a5.23,5.23,0,0,1,0,1.79c0,.4,1.2,1,1,2a3.68,3.68,0,0,1-1.2,1.8,22.69,22.69,0,0,1-8.19,1.61c-3.8-.2-6.39-.8-7.79-.6a6.59,6.59,0,0,1-1.77-.1c-.92-.12-1.84-.28-2.75-.46s-2.09-.42-3.13-.67l-1.19-.31a1.82,1.82,0,0,1-1.17-1.36c-.16-.67.66-.89.66-1.49a1,1,0,0,0-.08-.4,10.38,10.38,0,0,1-.57-2.19c-.2-2,.6-3.4.2-5.39a35.8,35.8,0,0,0-1-3.8s-6.79,2.41-8.39,2.81a16.37,16.37,0,0,1-12-3,21.24,21.24,0,0,1-7.2-8.58s-1.6-3.2,1.59-6.59,5.4.39,6.4,1.39,4.89,2.29,6.29,3.89a3.64,3.64,0,0,1,1.8,0c1.4.19,7.19-2.81,10.18-5.21a29.75,29.75,0,0,1,8.94-5.14c4.44-1.86,11.83-.87,12.83-.67s3.8,2.59,4.6,2.39a2.18,2.18,0,0,1,2.2.4c.6.6.6.8,1.4,1a17.43,17.43,0,0,1,5.07,3.64C592.19,154.26,586.11,164.55,586.11,164.55Z"/><path class="cls-32" d="M544.2,156.57a.44.44,0,0,0-.72.42,13.62,13.62,0,0,1,.13,1.42.38.38,0,0,0,.76,0v-.09a7.08,7.08,0,0,1,1,3.27c0,.66.6.68.59,0C545.94,159.56,545.85,157.94,544.2,156.57Z"/><path class="cls-33" d="M555.4,162.32a33.13,33.13,0,0,1-1.37-4.08,18.36,18.36,0,0,1-.24-4.56c0-.43-.59-.4-.64,0-.36,2.78.15,6.5,1.84,8.81C555.12,162.68,555.48,162.58,555.4,162.32Zm12.88,13.76a4.19,4.19,0,0,0,.29-2.5c-.09-1.21-.19-2.43-.28-3.65a78.38,78.38,0,0,1,0-14.37c0-.25-.4-.31-.45-.06-1,5-.59,10.15-.23,15.2.09,1.26.22,2.53.26,3.79,0,1.11-.82,1.9-1.07,2.94s.44,1.88.15,2.86c-.2.66-.42,1.11.07,1.7.32.39.88-.17.55-.56s.29-1.09.37-1.52a1.61,1.61,0,0,0-.1-.78c-.19-.61-.44-1-.24-1.63A6.73,6.73,0,0,1,568.28,176.08Z"/><path class="cls-34" d="M586.65,163.62l0,0a22.24,22.24,0,0,0-5.13-3.8h0l0,0a.31.31,0,0,0-.43.13.25.25,0,0,0,0,.15v0h0s0,0,0,0c.44,3.34,1.65,6.86,4.49,8.87.36-2.25.65-4.43.65-4.43S586.32,164.2,586.65,163.62ZM579,158.91s-7.59-.23-7.73.18a4.94,4.94,0,0,0,0,1.47s7.59.3,7.73,0A6.56,6.56,0,0,0,579,158.91Z"/><path class="cls-19" d="M564.46,153.66s-.66,8.13-.53,10.2l.16,2.37s-.72,9.42-.41,9.69,1.5.05,1.5.05.25-9.68.65-10.45,7.19-12.38,7.32-12.9-1.29-.61-1.29-.61-5.71,10.44-6.16,10.47.11-10.19.11-10.19Z"/><path class="cls-31" d="M574.49,142.55s2.73-.4,3.76,1.46-.29,4.34-.78,5.86-1.7,5.33-2.46,5.09-3.81-3.31-4.54-3.1a11.25,11.25,0,0,0-2.28,1.35l-.45,0s-1-1.57-1.72-1.22-2.36,2.4-3,2.15.76-8.09,3-10.33S574.49,142.55,574.49,142.55Z"/><path class="cls-14" d="M574.73,143.1s3.44-.12,1.66,1.94a3.52,3.52,0,0,1-3.78,1.31Z"/><path class="cls-34" d="M570,152c1.07-.51,1.6-.07,2.48.53l1.64,1.11c.18.13.58.52.78.53s.46-.51.57-.71a31.29,31.29,0,0,0,1.38-3.34,33.7,33.7,0,0,0,1.31-3.9c.11-.43.61-.18.52.26a26.81,26.81,0,0,1-1,3.75,22.49,22.49,0,0,1-1.57,3.83c-.54.93-1.07,1.28-2,.65-.59-.39-1.17-.8-1.75-1.19s-1.39-1.26-2.19-.88C569.71,152.92,569.53,152.28,570,152Zm-7.38-.55a14.4,14.4,0,0,1,.55-2.22,4.66,4.66,0,0,1,1-1.89.38.38,0,0,1,.16-.12.15.15,0,0,1,.18.06.16.16,0,0,1,0,.12,3.64,3.64,0,0,1-.29.94c-.12.35-.22.71-.31,1.07q-.27,1.09-.45,2.22a5.78,5.78,0,0,0-.16,2l.08-.05.46-.38.92-.73c.58-.46,1.61-1.23,2-.18.12.28-.22.26-.39,0-.26-.4-2.77,2.5-3.44,2.35C562.05,154.43,562.55,152.15,562.66,151.48Z"/><path class="cls-12" d="M566.4,142a78.85,78.85,0,0,0,.68,8.19c.51,3.09.74,4.12.88,4.11s2.27-3.74,2.7-3.92a24,24,0,0,0,5.73-5.31,4.8,4.8,0,0,1-1.85-3,18.45,18.45,0,0,1-.23-3.25Z"/><path class="cls-14" d="M565.25,175.81a3.32,3.32,0,0,1-1.5-.14c-.31-.11-.54.33-.24.47a2.7,2.7,0,0,0,1.85.2A.27.27,0,0,0,565.25,175.81Zm.22-5.84a12.46,12.46,0,0,1-1.73.05c-.22,0-.29.29-.18.44a.23.23,0,0,0,.12.4,3.27,3.27,0,0,0,1.46,0,.28.28,0,0,0,.25-.32h.12A.29.29,0,0,0,565.47,170Zm.13-2.35a.26.26,0,0,0-.08-.43,5.49,5.49,0,0,0-1.62-.11.27.27,0,0,0-.25.42.26.26,0,0,0,.22.42,5.5,5.5,0,0,1,1.46.16A.29.29,0,0,0,565.6,167.62Z"/><path class="cls-35" d="M566.82,178.39s-4.75.17-4.86.77-.33,8.5,0,8.93,4.76,0,5-.33S567.12,178.38,566.82,178.39Z"/><path class="cls-20" d="M566.82,178.39s-4.75.17-4.86.77c0,.15-.06.72-.09,1.52.81-.19,4.17-.6,5.15-.72A4.57,4.57,0,0,0,566.82,178.39Z"/><path class="cls-7" d="M562.16,182.12s.05,5.35.36,5.48,4,0,4.15-.27.37-5.68.06-5.81S562.29,181.82,562.16,182.12Z"/><path class="cls-23" d="M564.54,177.22a1.33,1.33,0,0,0,.79-.37.52.52,0,0,0-.2-.76c-.12-.08-.26.12-.14.21.54.41-.42.63-.71.67h0l0,0a2.87,2.87,0,0,1-.48-.28c-.08-.07-.18-.14-.18-.26a.26.26,0,0,1,.11-.21c.12-.07,0-.28-.11-.22a.5.5,0,0,0-.23.66,1.35,1.35,0,0,0,.67.52.15.15,0,0,0,0,.16.64.64,0,0,0,0,.63l0,0c-.41.22-.4.85-.25,1.26.07.2.16.49.4.53s.4-.21.46-.42-.2-.24-.26-.09-.1.14-.23.11l0-.11a1.08,1.08,0,0,1-.13-.43.6.6,0,0,1,.34-.69h0a.71.71,0,0,1,.1.14c0,.07,0,.15.09.22a.11.11,0,0,0,.2,0,.62.62,0,0,0-.16-.46.21.21,0,0,0,0-.19.43.43,0,0,0-.11-.52h0Zm-.27.19,0,0a.19.19,0,0,1,.05.29.13.13,0,0,0,0,.06s0,0-.07,0a.1.1,0,0,1,0-.09A.65.65,0,0,1,564.27,177.41Z"/><path class="cls-22" d="M564.88,179.15a.37.37,0,0,0-.25-.28.33.33,0,0,0-.34.07.28.28,0,0,0-.08.35.14.14,0,0,0,.25,0s0-.07,0-.09.06,0,.09,0,.09.22.07.31.1.12.15.05A.45.45,0,0,0,564.88,179.15Z"/><path class="cls-36" d="M571.05,146.27c1.67-.34,3-2.49,3.38-3.39-.08-.51-.09-.15-.09-.15l-6.21-1.16-1.78.16c0,.39.09,1,.11,1.51C567.09,144.13,569.1,146.67,571.05,146.27Z"/><path class="cls-14" d="M562.88,131.48a2.49,2.49,0,0,0-2,1.82c-.42,1.64,1.37,2.5,1.37,2.5l2.7,1.59,12.75-1.09,1-1.8a1.59,1.59,0,0,0,.42-1.79,1.88,1.88,0,0,0-1.21-1.17.57.57,0,0,0-.16-1,3.6,3.6,0,0,1-1.36-1.17l-6.14-3.61-5.75,2.61Z"/><path class="cls-12" d="M564.06,131.32a14.77,14.77,0,0,0-.1,3c.16.88.32,1.33.17,1.33s-.92-2.06-2.11-1.75-.95,5.51,2.16,5a6.77,6.77,0,0,0,6.77,5.24c5.19-.08,5.84-5.73,5.84-5.73a2.3,2.3,0,0,0,2.2-2.11c.26-2.09-.81-4.3-2.4-1.15,0,0-.14.15-.15-.45a12.4,12.4,0,0,0-1.12-4.73,28.77,28.77,0,0,0-2-3.23l-7-.64Z"/><path class="cls-14" d="M566.61,126.75s.27.77.73.74a1,1,0,0,0,.68-.24s.65,2.26,2.51,2.17,1.63-1,1.63-1,2,1,2.42.24-.18-3-.18-3l-7.35-2.43Z"/><path class="cls-31" d="M562.73,131.49s.16,1,1,.57,2.16-4.34,6.31-4.7,5.7,4.07,6.59,4.2,1.18-.91,1.18-.91-.09-5.64-1.61-7.54-5.09-2.89-7.46-2.41a7.24,7.24,0,0,0-5.57,4.1C562.22,127.19,562.73,131.49,562.73,131.49Z"/><path class="cls-34" d="M563,131.26l-.09,0c-.12-.05,0-.24.09-.35s1.57-4,7.35-4.42c2.51-.17,5.21,1.25,7.33,3.89.08.09.16.17.07.26s-.42-.17-.51-.26c-1.81-1.75-3.87-3.44-6.87-3.23-5.44.38-7.21,3.87-7.22,3.9S563.11,131.26,563,131.26Z"/><path class="cls-34" d="M563.9,129a9.32,9.32,0,0,1-.25-4.57.08.08,0,0,0-.15,0,8.2,8.2,0,0,0,.13,4.68A.14.14,0,0,0,563.9,129Zm12.54-5.23c0-.12-.21-.06-.18.06a13,13,0,0,1,.29,5.19c0,.18.26.26.29.07A12.13,12.13,0,0,0,576.44,123.72Z"/><path class="cls-37" d="M600.09,157.74a8.69,8.69,0,0,1,0,7.2c-1.79,3.59-7.78,3.6-9.58,3.2s-2.4-2.19-3-2.19a5.54,5.54,0,0,1-2.4-1,19.25,19.25,0,0,1-4.2-5c-.2-.8-.81-8.79.59-10s10.79,3.79,10.79,3.79Z"/><path class="cls-38" d="M593.47,154.37a6.53,6.53,0,0,0-7.56,3.61c-.16.37.39.61.61.3a7.11,7.11,0,0,1,2.78-2.47c.17-.08.33-.14.49-.2a6.1,6.1,0,0,0-1.43,1.48.28.28,0,0,0,.46.31,6.4,6.4,0,0,1,3-2.08,14.06,14.06,0,0,1,1.42.09A.54.54,0,0,0,593.47,154.37Z"/><path class="cls-14" d="M592.69,155.35s-.39,3.8,2.81,5.19,4.39-.8,4.79-2-.81-4.39-.81-4.39Z"/><path class="cls-12" d="M592.23,155.46a1.38,1.38,0,0,0,.5.32.65.65,0,0,1,.23.13.51.51,0,0,1,.1.21,1.69,1.69,0,0,0,.55.83,2.32,2.32,0,0,0,1.06.37,2.46,2.46,0,0,0,1.45-.11.75.75,0,0,1,.38-.13.64.64,0,0,1,.21.09,2.12,2.12,0,0,0,2.39-.08,2.16,2.16,0,0,0,.64-2.15,1.78,1.78,0,0,1-.09-.33c0-.28.19-.51.34-.75a1.74,1.74,0,0,0,0-1.7c-.18-.31-.45-.59-.44-.94a2.33,2.33,0,0,1,.26-.66,1.46,1.46,0,0,0-.31-1.59c-.19-.19-.43-.32-.63-.5a.88.88,0,0,1-.38-.68,2,2,0,0,1,.09-.42,1.52,1.52,0,0,0-.69-1.48,3.65,3.65,0,0,0-1.62-.53c-.42-.06-1.4.26-1.41-.16a3.28,3.28,0,0,1-.19-2.67c.57-1.5.84-3,.23-4s-1.94-.56-2.65,1.23.21,3.86-.07,4.76-1.45,2.54-.68,4a4,4,0,0,0-.44,1,1.36,1.36,0,0,0,.15,1,1.16,1.16,0,0,1,.14.24.94.94,0,0,1-.11.63,1.75,1.75,0,0,0,.43,1.78.56.56,0,0,1,.18.25c.07.41-.16.85-.07,1.28A1.39,1.39,0,0,0,592.23,155.46Z"/><path class="cls-39" d="M597.28,154.92c.2-.09.34-.23.29-.45-.16-.66-2.66.25-3.09.41s-1,.56-1.42.33a1.25,1.25,0,0,1-.57-1.39,7.8,7.8,0,0,0,1.69-.56c.9-.31,1.8-.58,2.71-.81a.44.44,0,0,0-.24-.85c-1,.25-1.91.53-2.84.85a5,5,0,0,1-1.26.45c-1,0-.85-1.19-.59-1.78a5.36,5.36,0,0,0,1.73-.43,28.58,28.58,0,0,0,3.79-1.58c.51-.25,0-1-.45-.75a26.87,26.87,0,0,1-2.58,1.13c-.42.15-2.4,1.11-2.71.55s.68-1.77,1.06-2.15a16.31,16.31,0,0,1,2.25-1.63.32.32,0,0,0-.33-.55,7.67,7.67,0,0,0-3.08,2.19c-.51.67-1.11,1.81-.64,2.66a1.48,1.48,0,0,0,.23.3c-.4.87-.43,2.32.5,2.81a4.48,4.48,0,0,0-.08.79,1.35,1.35,0,0,0,.24.61,1.94,1.94,0,0,0,1.06.83,3,3,0,0,0,1.69-.25c.58-.2,1.17-.37,1.76-.52A6,6,0,0,0,597.28,154.92Z"/><path class="cls-40" d="M582.52,148.61a6.19,6.19,0,0,0-1.46,4.12,19.43,19.43,0,0,0,.58,5.73c.06.24.48.2.46-.07-.25-2.9-1.34-6.88.91-9.29C583.32,148.77,582.83,148.29,582.52,148.61Z"/><path class="cls-14" d="M529.76,149.62a.9.9,0,0,1,1.2-.8c1,.2,2.8,3,2.8,3.59a6.25,6.25,0,0,1-1.79,3.8c-1.4,1.4-5.72.39-6-.5s1.73-5.45,1.73-5.45Z"/><path class="cls-12" d="M519.54,149.76a1,1,0,0,0,.44,1.07c.6.4,1,.2,1,.59a1.27,1.27,0,0,0,.8,1.2c.6.2.8-.2,1,.2s0,1,.6,1.2,1.2-.2,1.4.2a4.23,4.23,0,0,0,2.8.79c.6-.2,1.2-3.59,1.2-3.59l-2.4-2.8-2.6-2H522l-1.77.88-.63,1.72Z"/><path class="cls-39" d="M521.57,150l2.51-1.64-.51-1.56-.15-.2H522l-1.77.88-.63,1.72,0,.53a.45.45,0,0,0,0,.1Z"/><path class="cls-24" d="M517,156.72h-.1a.32.32,0,0,1-.18-.39s1.2-3.42,2-6c.45-1.47,1-2.91,2.18-3.47a3.18,3.18,0,0,1,2.61.08c2.76,1.06,2.41,8.75,2.39,9.08a.29.29,0,0,1-.31.28.3.3,0,0,1-.29-.31c.11-2.11,0-7.74-2-8.49a2.63,2.63,0,0,0-2.13-.1c-1,.46-1.48,1.83-1.87,3.11-.79,2.57-2,6-2,6A.3.3,0,0,1,517,156.72Z"/><path class="cls-24" d="M518.38,156.52h0a.3.3,0,0,1-.28-.32s.4-4.62.6-6.6a3.55,3.55,0,0,1,1.64-2.73,3,3,0,0,1,2.75-.16c2.09.87,2.24,5.66,2,9.52a.3.3,0,1,1-.59,0c.31-5.12-.28-8.37-1.64-8.93a2.42,2.42,0,0,0-2.21.11,3,3,0,0,0-1.36,2.28c-.19,2-.59,6.54-.59,6.59A.3.3,0,0,1,518.38,156.52Z"/><path class="cls-12" d="M520.27,148.53c.16-.13,2.6-.8,3.6-.4s0,1.39,0,1.39-2.6,1.6-3.6,1.21S519.27,149.33,520.27,148.53Z"/><path class="cls-12" d="M526.37,150.62a17.28,17.28,0,0,1-2-2.53c-.43-.86-1.66-.2-2.95-1.33s-.48-1.73.32-1.73a9.85,9.85,0,0,1,3.39.4c.8.4,5,4.19,5.6,4.39s0,2.59-.59,3.59a4.19,4.19,0,0,1-2.6,1.6C527.17,155,526.37,150.62,526.37,150.62Z"/><path class="cls-39" d="M524,149.42a4.89,4.89,0,0,1-1.51,1.2,6.76,6.76,0,0,1-1.4.32c-.22.05-.28.4,0,.47a3.22,3.22,0,0,0,3.18-1.33C524.48,149.73,524.24,149.06,524,149.42Z"/><path class="cls-39" d="M526.73,150.8a7.41,7.41,0,0,1-1.21-1.23,15.27,15.27,0,0,1-.78-1.5c-.41-.69-1.59-.76-2.32-.73a.31.31,0,0,0-.08.6c.51.19,1.13.09,1.61.3s.54.76.76,1.11a5.14,5.14,0,0,0,1.75,1.81C526.68,151.28,526.93,151,526.73,150.8Zm-1.31.73c0,.18.05.35.07.53h0a1,1,0,0,1,.94.06c.39.24.38.52.08.86a2.57,2.57,0,0,1-.95.68c0,.24,0,.49,0,.74a2.66,2.66,0,0,0,1-.55c.37-.31.86-.78.85-1.31C527.44,151.6,526.17,151.17,525.42,151.53Z"/><path class="cls-24" d="M525,151.19a25.15,25.15,0,0,1,.24,4.81.3.3,0,0,0,.29.31.29.29,0,0,0,.31-.28,26.8,26.8,0,0,0-.25-4.93A2.34,2.34,0,0,0,525,151.19Z"/><path class="cls-41" d="M510.79,155.43s7.19,1.39,12,.79,9.18-2.21,10-1.81,3.82,17.58,4.42,20,1.6,3.8,1,5.4-9.39,3.2-14.58,4-9.39.41-10,0a13,13,0,0,1-2.6-3.19c-.2-.6-.3-6.49-.9-10.29s-.62-12.38-.22-13.38A4.76,4.76,0,0,1,510.79,155.43Z"/><path class="cls-7" d="M526.42,164.61a7.24,7.24,0,0,0-4.71,0,6.82,6.82,0,0,0-3.3,2.42,7.27,7.27,0,0,0-1.19,2.75,8,8,0,0,0,.09,3.86,7.58,7.58,0,0,0,7,5.34,6,6,0,0,0,2.32-.41,9,9,0,0,0,3.55-2.88,6.63,6.63,0,0,0,1.29-4.08,11.17,11.17,0,0,0-.95-3.16,7.52,7.52,0,0,0-2-2.58A5.47,5.47,0,0,0,526.42,164.61Z"/><path class="cls-26" d="M529,169a16.23,16.23,0,0,0-2.92.52c-.4-1.86-.78-3.4-1-3.48-.56-.19-3.67.79-3.63,1.06,0,0,.25,1.5.59,3.36l-3.25.79c-.26,0,.68,2.88,1,3.37.12.18,1.39,0,3-.35.36,1.72.71,3.07.91,3.05.53-.08,3.71-.53,3.63-1.06,0-.18-.23-1.41-.51-3a16.65,16.65,0,0,0,2.68-.84A7.81,7.81,0,0,0,529,169Z"/><path class="cls-42" d="M510.67,155.57a5.15,5.15,0,0,0-.78,1.36c-.4,1-.39,9.59.22,13.38s.7,9.69.9,10.29a13,13,0,0,0,2.6,3.19,1.45,1.45,0,0,0,.34.14c.08-1.73-1.68-10.8-2.65-15.42C510.46,164.5,510.6,157.68,510.67,155.57Z"/><path class="cls-43" d="M512.83,155.8c0,.23-.43,10.22,0,12.21s2,10,3,10.79,9-.41,9-1-2.8-6-2.8-6Z"/><path class="cls-7" d="M512.79,155.23s0,9.39.61,11.78,2,9.39,2.8,9.79S524,175,524,175s-3-8-3.4-10.58c-.61-4.19-.41-8.79-1-8.79S512.79,155.23,512.79,155.23Z"/><path class="cls-29" d="M518.12,157.05a41.06,41.06,0,0,0-4.29-.2.33.33,0,0,0,0,.66c1.43.06,2.86.2,4.29.25C518.59,157.77,518.56,157.1,518.12,157.05Zm-2.45,1.18c-.54,0-1.08.06-1.61.06a.35.35,0,0,0,0,.69,12.36,12.36,0,0,0,1.61,0C516.12,158.91,516.13,158.21,515.67,158.23Zm1.57,1.52c-1.07,0-2.15,0-3.22.05a.33.33,0,0,0,0,.66c1.07,0,2.15,0,3.22,0A.38.38,0,0,0,517.24,159.75Zm.92,1.27c-.49.34-1.51.16-2.08.18s-1.4.05-2.1.1a.34.34,0,0,0,0,.67c1,0,2,0,3,0,.59,0,1.21.09,1.67-.32S518.52,160.78,518.16,161Zm-1.3,1.76c-.78,0-1.59.07-2.38.1a.36.36,0,0,0,0,.71,9.29,9.29,0,0,0,2.47-.16A.33.33,0,0,0,516.86,162.78Zm2,1.83c-1.31.57-3.17.41-4.58.44a.33.33,0,0,0,0,.65c1.55,0,3.5.21,4.93-.49C519.63,165,519.27,164.44,518.87,164.61Zm-2.52,2.19a9.74,9.74,0,0,1-1.62.13.33.33,0,0,0,0,.66,9.27,9.27,0,0,0,1.82-.1C517,167.43,516.81,166.72,516.35,166.8Zm2.49-.28a3.33,3.33,0,0,1-1.09.09c-.44,0-.43.64,0,.69a4.3,4.3,0,0,0,1.29-.08C519.49,167.13,519.3,166.41,518.84,166.52Zm.33,1.72c-1.4.27-2.82.49-4.23.7-.38.05-.3.71.09.67,1.46-.14,2.91-.36,4.35-.64C519.86,168.88,519.65,168.14,519.17,168.24Zm-.26,1.9a23.64,23.64,0,0,1-3.55.67c-.38.05-.27.65.09.65a12.68,12.68,0,0,0,3.66-.59A.38.38,0,0,0,518.91,170.14Zm1.08,1.47c-1.36.38-2.7.72-4.08,1-.33.07-.26.64.08.6a19.4,19.4,0,0,0,4.19-.94A.35.35,0,0,0,520,171.61Zm2,2.25a13,13,0,0,1-1.87.41c-.39.06-.3.74.1.7a12,12,0,0,0,2-.39A.37.37,0,0,0,522,173.86Z"/><path class="cls-19" d="M506.18,171.86c3.24-2.3,5.18-6.41,6.23-10.58s1.37-8.54,2.16-12.78,2.23-8.43,5-11.45l-27,.84a10.11,10.11,0,0,0-3,5.53,35.75,35.75,0,0,0-.39,6.13c-.35,8.5-4.42,16.91-10.75,21.46Z"/><path class="cls-44" d="M505.31,170.68c3.24-2.31,5.18-6.41,6.24-10.58s1.36-8.54,2.15-12.78,2.23-8.43,5-11.45l-27,.84a10.11,10.11,0,0,0-3,5.53,35.75,35.75,0,0,0-.39,6.13c-.34,8.5-4.41,16.91-10.74,21.46Z"/><path class="cls-45" d="M497.07,146.38h-6.51a.6.6,0,0,1,0-1.19h6.51a.6.6,0,0,1,0,1.19Zm-.44,4.77h-6.5a.56.56,0,0,1-.52-.59.55.55,0,0,1,.52-.59h6.5a.56.56,0,0,1,.53.59A.57.57,0,0,1,496.63,151.15Zm12.54,0H498.24a.57.57,0,0,1-.52-.59.56.56,0,0,1,.52-.59h10.93a.59.59,0,0,1,0,1.18Zm-2.39-2.56H490.39a.59.59,0,0,1,0-1.18h16.39a.59.59,0,0,1,0,1.18Zm4.64-2.21H499.5a.6.6,0,0,1,0-1.19h11.92a.6.6,0,0,1,0,1.19Zm-5.57,14.75-.18.05a4.44,4.44,0,0,0-5.3-2.87,5.19,5.19,0,0,0-3.44,5.42l-.22.06.45,2,.26-.08a4.43,4.43,0,0,0,5.22,2.67,5.16,5.16,0,0,0,3.45-5.19l.21-.06Zm-5.28-1.9a3.64,3.64,0,0,1,4.28,2.19l-.22.07a3.4,3.4,0,0,0-4-2,4,4,0,0,0-2.66,3.95l-.22.07a4.23,4.23,0,0,1,2.82-4.26Zm-1.95,4a3.23,3.23,0,0,1,2.17-3.06,2.75,2.75,0,0,1,3.19,1.5Zm5.75.47a3.17,3.17,0,0,1-2.15,2.81,2.72,2.72,0,0,1-3.08-1.29Zm-1.94,3.77a3.59,3.59,0,0,1-4.17-2l.22-.07a3.37,3.37,0,0,0,3.9,1.81,3.94,3.94,0,0,0,2.65-3.71l.22-.07a4.2,4.2,0,0,1-2.82,4Z"/><ellipse class="cls-46" cx="492.64" cy="140.99" rx="1.84" ry="2.09"/><path class="cls-7" d="M492.62,142.36h0a.33.33,0,0,1-.3-.35l0-2.11a.31.31,0,1,1,.61,0l0,2.11A.32.32,0,0,1,492.62,142.36Z"/><path class="cls-7" d="M493.58,141.25h-1.91a.34.34,0,0,1,0-.68h1.91a.34.34,0,0,1,0,.68Z"/><path class="cls-45" d="M503.36,154.75H489.48a.56.56,0,0,1-.52-.59.55.55,0,0,1,.52-.59h13.88a.56.56,0,0,1,.52.59A.57.57,0,0,1,503.36,154.75Zm-9.8,3h-4.3a.57.57,0,0,1-.52-.59.55.55,0,0,1,.52-.59h4.3a.56.56,0,0,1,.52.59A.57.57,0,0,1,493.56,157.75Z"/><path class="cls-19" d="M488.63,167.73a.34.34,0,0,1-.17-.11.57.57,0,0,1-.09-.32,4.83,4.83,0,0,1,1.09-3.41.9.9,0,0,1,.47-.34.57.57,0,0,1,.42.08c.07-.2.14-.39.2-.59a7.23,7.23,0,0,0,.55-2.73l-2.77,4.34a.12.12,0,0,1-.16,0h0a.15.15,0,0,1,0-.2l3-4.63a.12.12,0,0,1,.13-.06.16.16,0,0,1,.1.11,7,7,0,0,1-.52,3.25l-.24.66a.74.74,0,0,1,.16.27,1.72,1.72,0,0,1,.12.63l.58-.68c.09-.09.33-.37.59-.25a.48.48,0,0,1,.25.35,1.32,1.32,0,0,1,1.23.65,1.18,1.18,0,0,1,.49-.54.4.4,0,0,1,.38,0,.83.83,0,0,1,.31.47,1.59,1.59,0,0,0,.12.27q.32.45,1.29-.15a7.48,7.48,0,0,1,2.57-1c.39-.08.67,0,.78.29a.16.16,0,0,1-.06.19.12.12,0,0,1-.16-.06h0c-.08-.19-.38-.16-.51-.13a7.43,7.43,0,0,0-2.49,1c-.28.17-1.17.71-1.61.07a1.66,1.66,0,0,1-.15-.33.73.73,0,0,0-.2-.34.19.19,0,0,0-.18,0,1.12,1.12,0,0,0-.44.63.12.12,0,0,1-.15.08.11.11,0,0,1-.08-.08,1.13,1.13,0,0,0-1.11-.73,1.68,1.68,0,0,1-1.06,1.5.14.14,0,0,1-.11,0,.16.16,0,0,1-.05-.11,1.58,1.58,0,0,1,.95-1.6.19.19,0,0,0-.09-.14c-.07,0-.18,0-.32.19l-.8.93a.12.12,0,0,1-.14,0,.13.13,0,0,1-.07-.14,2.44,2.44,0,0,0-.09-.85l-.05-.09c-.39,1.07-.81,2.14-1.26,3.17a.75.75,0,0,1-.46.45A.14.14,0,0,1,488.63,167.73Zm1.47-3.9a.24.24,0,0,0-.12,0,.74.74,0,0,0-.34.25,4.57,4.57,0,0,0-1,3.2.27.27,0,0,0,0,.15l0,0c.08,0,.2-.15.26-.29.47-1.07.9-2.16,1.3-3.26a.35.35,0,0,0-.15-.07Zm1.91.65a1.27,1.27,0,0,0-.71,1.09,1.45,1.45,0,0,0,.71-1.09Zm4.64-23.74a.62.62,0,0,1-.1.35.48.48,0,0,1-.24.2,1.14,1.14,0,0,1-.33.05h-.2v.72h-.4v-1.9H496a.74.74,0,0,1,.48.13A.54.54,0,0,1,496.65,140.74Zm-.41,0c0-.14-.09-.21-.28-.21h-.18V141H496c.2,0,.29-.07.29-.23Zm2,1.32h-.47l-.36-.76h-.14v.76h-.4v-1.9h.64a.65.65,0,0,1,.24,0,.75.75,0,0,1,.2.1.38.38,0,0,1,.15.18.52.52,0,0,1,.05.27.55.55,0,0,1-.09.33.53.53,0,0,1-.25.19Zm-.49-1.32c0-.15-.09-.22-.27-.22h-.21V141h.19c.2,0,.29-.08.29-.23Zm1.86,1.32h-1.17v-1.9h1.13v.38h-.74v.36h.7v.37h-.7v.4h.78Zm1.41-1.72-.25.31a.41.41,0,0,0-.14-.12.29.29,0,0,0-.16,0,.33.33,0,0,0-.17,0,.18.18,0,0,0-.07.15.31.31,0,0,0,0,.08l.05.06.08,0,.11,0,.14.06.14.07a.42.42,0,0,1,.2.25.43.43,0,0,1,0,.19.63.63,0,0,1-.19.48.67.67,0,0,1-.45.16A1,1,0,0,1,500,142a.74.74,0,0,1-.28-.21l.26-.3a.46.46,0,0,0,.17.14.36.36,0,0,0,.2.06.28.28,0,0,0,.16,0,.2.2,0,0,0,.07-.16.24.24,0,0,0,0-.08l0-.05-.07,0-.1,0-.12-.05-.15-.07a.71.71,0,0,1-.14-.1.44.44,0,0,1-.1-.16.72.72,0,0,1,0-.48.58.58,0,0,1,.15-.19,1.06,1.06,0,0,1,.21-.11l.23,0a.73.73,0,0,1,.3.06A.74.74,0,0,1,501,140.34Zm1.73,1.46a.77.77,0,0,1-.65.31.8.8,0,0,1-.64-.28,1.14,1.14,0,0,1,0-1.45.88.88,0,0,1,.65-.28.85.85,0,0,1,.35.08.63.63,0,0,1,.28.2l-.27.32a.4.4,0,0,0-.15-.14.58.58,0,0,0-.19,0,.46.46,0,0,0-.35.17.59.59,0,0,0-.13.41.66.66,0,0,0,.13.43.44.44,0,0,0,.34.16.41.41,0,0,0,.36-.2Zm1.55.26h-.47l-.37-.76h-.13v.76H503v-1.9h.64a.58.58,0,0,1,.23,0,.68.68,0,0,1,.21.1.54.54,0,0,1,.15.18.86.86,0,0,1,.05.27.63.63,0,0,1-.09.33.61.61,0,0,1-.26.19Zm-.49-1.32c0-.15-.09-.22-.27-.22h-.22V141h.2C503.73,141,503.83,140.89,503.83,140.74Zm1.09,1.32h-.4v-1.9h.4Zm1.62-1.32a.61.61,0,0,1-.09.35.55.55,0,0,1-.25.2,1.14,1.14,0,0,1-.33.05h-.2v.72h-.4v-1.9h.62a.76.76,0,0,1,.47.13A.54.54,0,0,1,506.54,140.74Zm-.4,0c0-.14-.1-.21-.29-.21h-.18V141h.18c.19,0,.29-.07.29-.23Zm1.82-.19h-.47v1.51h-.41v-1.51h-.47v-.39H508Zm.6,1.51h-.41v-1.9h.41Zm2.09-1a1,1,0,0,1-.26.73.9.9,0,0,1-1.27,0l0,0a1,1,0,0,1-.25-.73,1,1,0,0,1,.25-.72.92.92,0,0,1,1.31,0h0A1,1,0,0,1,510.65,141.1Zm-.43,0a.71.71,0,0,0-.14-.42.45.45,0,0,0-.63-.06l-.06.06a.7.7,0,0,0,0,.84.43.43,0,0,0,.62.07.46.46,0,0,0,.07-.07.64.64,0,0,0,.13-.42Zm2.22,1H512l-.67-1.25h0v1.25h-.39v-1.9h.46l.67,1.23h0v-1.24h.39Z"/></g></svg>