<svg id="Layer_1" data-name="Layer 1" xmlns="http://www.w3.org/2000/svg" xmlns:xlink="http://www.w3.org/1999/xlink" viewBox="0 0 610 303"><defs><style>.cls-1{fill:none;}.cls-2{clip-path:url(#clip-path);}.cls-3{fill:#f7e2b7;opacity:0.21;}.cls-4{fill:#fff;}.cls-5{fill:#bc8979;}.cls-6{clip-path:url(#clip-path-2);}.cls-7{fill:#172755;}.cls-8{fill:#f3a088;}.cls-9{fill:#f7b690;}.cls-10{fill:#eb9078;}.cls-11{fill:#f7f6f1;}.cls-12{fill:#2e6c9e;}.cls-13{fill:#255882;}.cls-14{fill:#275c87;}.cls-15{fill:#d6956f;}.cls-16{fill:#cad9e8;}.cls-17{fill:#9f9fe6;}.cls-18{fill:#fd5d5d;}.cls-19{fill:#8888d3;}.cls-20{fill:#232b59;}.cls-21{fill:#97c4de;}.cls-22{fill:#5c5b82;}.cls-23{fill:#7285c5;}.cls-24{fill:#fa9b72;}.cls-25{fill:#2a335e;}.cls-26{fill:#c3b6b3;}.cls-27{fill:#f1ae9c;}.cls-28{fill:#d8e9fc;}.cls-29{fill:#faded1;}.cls-30{fill:#d6d2d3;}.cls-31{fill:#dc9380;}.cls-32{fill:#f4cfbd;}.cls-33{fill:#fefefe;}.cls-34{fill:#4f4e76;}.cls-35{fill:#f7d6c8;}.cls-36{fill:#f5af9d;}.cls-37{fill:#cd6257;}.cls-38{fill:#f7ae9b;}.cls-39{fill:#e69a8a;}</style><clipPath id="clip-path"><rect class="cls-1" width="610" height="303"/></clipPath><clipPath id="clip-path-2"><rect class="cls-1" x="432.81" y="108.03" width="101.96" height="95.19"/></clipPath></defs><title>tele-consultation_1</title><g class="cls-2"><path class="cls-3" d="M99.63,5.73c17.62,42.1,1.28,81.79-34.89,87A183.91,183.91,0,0,0,19.88,105C-13.83,119.11-48.19,93.37-54.6,48.19A190.43,190.43,0,0,0-67.47,1.46c-17.61-42.11-1.27-81.8,34.89-87A183.88,183.88,0,0,0,12.29-97.86C46-111.93,80.35-86.19,86.77-41A191,191,0,0,0,99.63,5.73Z"/><path class="cls-3" d="M368.26,245.06C351.61,192.24,388.06,141,399.9,125.62c5.23-7.1,33.87-45,75.86-58.3a160,160,0,0,1,34-6.38,142.36,142.36,0,0,1,39.35,3.23A155.82,155.82,0,0,1,586.78,77.3a235.4,235.4,0,0,1,59.12,35.19,222.14,222.14,0,0,1,38.32,40.25c5.42,7.51,20.56,28.89,23.26,33.43,2.27,3.81,26,57,24,66.86-1.68,5.79-42,24.74-74.12,34.4a64.43,64.43,0,0,1-24.74,2.11c-24.67-2.76-16.9,15.19-44.76,11.48-1.65-.22-22.94,1.25-33.27,2.17-15.66,1.39-26.94-1.51-36.24.35-8,1.61-47-.75-64.37-6.66-9.46-3.22-24.73,1-43.3-4.65a53.57,53.57,0,0,1-19.82-9.79A49,49,0,0,1,376.08,263,93.58,93.58,0,0,1,368.26,245.06Z"/><rect class="cls-4" x="431.81" y="96.02" width="91.62" height="163.03"/><path class="cls-5" d="M460,181.42a.94.94,0,0,1,0,.82A.51.51,0,0,1,460,181.42Z"/><path class="cls-5" d="M460,186.88a.92.92,0,0,1,0,.84A.51.51,0,0,1,460,186.88Z"/><path d="M516.09,89.38c-19.43.18-38.85-.6-58.28.24-6.6.29-13.23,0-19.84-.22a7.15,7.15,0,0,0-6.81,5.5,38.36,38.36,0,0,0-.39,8.43h0l-.4,101h0q0,5.89-.08,11.81-.06,19.76-.12,39.52c0,5,3.18,8.27,8.13,8.49.75,0,1.51,0,2.27,0l30,.14c.08-1.83-.75-3.5-.93-5.29-.07-.71-.63-.95-1.26-1.06-9.23,0-18.46.07-27.68,0a6.47,6.47,0,0,1-6.42-6.36c0-11.87.06-23.75.12-35.62a.8.8,0,0,1,.05-.21,53.26,53.26,0,0,1,0-6.92.26.26,0,0,1,0-.39l-.09-4.11h0V103.85l.66,0c.86-3.46,3.38-5.41,7.1-5.41q11.94,0,23.87.06c15.91.07,31.81.19,47.72.24a6.88,6.88,0,0,1,6,2.93,5.24,5.24,0,0,1,1,3.39,119.93,119.93,0,0,0,0,12.72c.24,3.25.18,6.48.22,9.72,1.17,1.55,2.57.92,4,.42.06-9.84.14-19.68.18-29.52C525.11,92.63,521.85,89.33,516.09,89.38Zm-19.76,5.34q-15.43,0-30.88,0c-.73,0-1.55.17-2-.79.17-1.18,1.12-1,1.91-1h8.18c7.41,0,14.83,0,22.25,0,.85,0,1.86-.35,2.46.83C497.89,94.87,497.07,94.72,496.33,94.72Z"/><path d="M520.8,143.38c-.09,1.82.16,3.66-.11,5.48a5.6,5.6,0,0,1,0,2.27,10.59,10.59,0,0,1,0,3.18c0,5.9.05,11.79.05,17.69,0,6.52,0,13-.05,19.55,0,.76.08,1.51.13,2.26a70,70,0,0,0,4-7.21l.12-43.59C523.5,142.93,522.09,142.49,520.8,143.38Z"/><g class="cls-6"><path class="cls-7" d="M487.49,140.25c1.34-.5,3.7-5,4.16-7.21.78-3.68,2.55-10.83-.42-14.16-2.72-3-13.62-5-16.47,3.11-4.31-.12-2,8.27-1.5,11.62.64,4.69,4.44,6.72,6.32,6.18,4.14-1.19,4.66,1.67,7.91.46Z"/></g><g class="cls-6"><path class="cls-8" d="M475,133.15A58.9,58.9,0,0,1,473.91,150c-.25,1.54,2.47,4.85,9.59,4.5,5.67-.27,7.3-3.06,6.39-4.53-1.4-2.24-2.4-9-1.26-15.5s-9.75,2.41-13.6-1.34Z"/></g><g class="cls-6"><path class="cls-9" d="M474.73,130.24c1.7-.25,1.44,3,1.78,3.06.78,0,1-5,1-8,1.43.27,8.95,1.11,13.12-.93.9.9,2.34,14.16.07,18a6.52,6.52,0,0,1-4.5,3c-5.59.27-8.17-3-8.93-4.62s-.79-4.1-1-4.8c-1.65.17-2.62-5.51-1.59-5.67Z"/></g><g class="cls-6"><path class="cls-10" d="M486.29,145.21a9.77,9.77,0,0,0,2.14-.35.33.33,0,0,0-.17-.63h0c-3.87,1.13-9.25-.72-10.66-3.67a11.39,11.39,0,0,1-.84-4.38.38.38,0,0,0-.08-.27.43.43,0,0,0-.32-.14,1,1,0,0,1-.69-.41.32.32,0,0,0-.47.43,1.75,1.75,0,0,0,.9.59,12.34,12.34,0,0,0,.91,4.46,8.06,8.06,0,0,0,4.84,3.71,12.21,12.21,0,0,0,4.45.65Zm-10.59-12a.33.33,0,0,0,.31-.34.07.07,0,0,1,0-.05c-.07-.35-.44-1.17-1.1-1.26a.32.32,0,0,0-.37.27.33.33,0,0,0,.27.37h0c.24,0,.51.48.56.75a.33.33,0,0,0,.34.26Z"/></g><g class="cls-6"><path class="cls-11" d="M508.65,166c1.65,1.37,5.78,28.08,7.06,40.88,1.14,11.37,1.14,25.28,1.14,25.28L495,206.37S494.68,154.26,508.65,166Z"/></g><g class="cls-6"><path class="cls-12" d="M489.06,236.34l-3.3-27.5L523,211.05l-.37,30Z"/></g><g class="cls-6"><path class="cls-13" d="M505.93,221.61a293.51,293.51,0,0,0,.05,52.78l-.81,5c-4.2,25.76-8.19,48.94-9.51,55.29-.5,2.43-8.22,1.3-8.55-1.16-1.31-9.56-7.2-29.38-6.08-38.23.5-3.94,3.48-11,5.48-15.79,2.49-6-9.47-39.64-.15-66,2.52-7.13,19.57,8.17,19.57,8.17Z"/></g><g class="cls-6"><path class="cls-14" d="M489,221.12s-10.89,99.63-13,113.18c-.37,2.45-9,2.08-9.47-.36-1.81-9.48-8.72-29-8.07-37.86.29-4,2.9-11.17,4.64-16.06.9-2.53-.92-9.69-2.81-19.11-2.66-13.3-1.05-30.22,3.59-45.93C466.1,207.72,489,221.12,489,221.12Z"/></g><g class="cls-6"><path class="cls-11" d="M507.06,274,457,272.22s4.92-90.94-4.65-108C450,160,458.22,154.93,467,151.6c6.31-2.39,13.57-.9,16.84-.56s6.37-1.5,10,.29c6.55,3.17,12.74,8.38,14.75,14.63,3.13,9.75-1.6,108-1.6,108Z"/></g><g class="cls-6"><path class="cls-11" d="M452.47,160.82c-7.66,12.26-14.46,44.71-12.91,50.76,1.29,5.09,17.07,11.24,36.29,9.82,2.74-.2.82-14.75.82-14.75s-16.83-1.32-16.8-5.71,1.42-7.58,1.42-12.59-8.82-27.53-8.82-27.53Z"/></g><g class="cls-6"><path class="cls-8" d="M518.45,241.85c-1.3.45-2.08-1.28-2.48-1.16s-.63,1.37-1.21,1.47a13.26,13.26,0,0,1-4.74-1c-.5-.58-.66-3.52.15-3.86.35-.15,3.68-1,4.36-.76.45.15.59,2.49,1,2.51,1,0-.08-2.34,1.58-2.16s2.33,4.63,1.33,5Z"/></g><g class="cls-6"><path class="cls-9" d="M487.9,206.84c-.33-.86-1.61-.66-2.59-.34a1.5,1.5,0,0,0,.69-1.81c-.09-.34-1.57.25-2.91.39-1.1.12-2.25-.42-3.44.26a14.43,14.43,0,0,0-3.8,3.83l.74,5.27c3.56,3.12,8.94,1.72,10.34.66s1.48-6.93,1-8.26Z"/></g><g class="cls-6"><path class="cls-15" d="M480.3,207.7a.14.14,0,0,1-.14-.14.12.12,0,0,1,.07-.12,9.07,9.07,0,0,1,2.1-.41,13.46,13.46,0,0,0,2.59-.5.14.14,0,0,1,.18.07.13.13,0,0,1-.07.18h0a12.27,12.27,0,0,1-2.66.52,10.31,10.31,0,0,0-2,.38l-.07,0Z"/></g><g class="cls-6"><path class="cls-16" d="M476.67,207a.32.32,0,0,1-.31-.22c-.32-.89-7.93-2.25-11.59-2.9-4.35-.77-5-.92-5.17-1.2s-.11-1.95.58-7.52c.29-2.33.58-4.73.78-6.82a.33.33,0,0,1,.36-.3.34.34,0,0,1,.3.36h0c-.2,2.1-.5,4.51-.79,6.84a62.23,62.23,0,0,0-.68,7c.46.19,2.63.58,4.74,1,7.91,1.41,11.74,2.27,12.09,3.34a.33.33,0,0,1-.2.42Zm-16.51-4.66h0ZM472.86,222c-4.58,0-12.43-.69-13.74-.88a.34.34,0,0,1-.29-.37h0a.33.33,0,0,1,.37-.28h0c2.41.34,15.2,1.3,16.49.66,1.09-.55,1.91-3.67,2.13-4.82a.34.34,0,0,1,.39-.27h0a.33.33,0,0,1,.26.39h0c-.09.46-.91,4.5-2.48,5.29a10.35,10.35,0,0,1-3.14.28Zm36.87-12.81h0a.33.33,0,0,1-.3-.36h0c0-.19,1.54-19.38.58-28.71a.33.33,0,0,1,.3-.36h0a.33.33,0,0,1,.36.3c1,9.38-.57,28.63-.58,28.82a.34.34,0,0,1-.33.31Z"/></g><g class="cls-6"><path class="cls-17" d="M491.75,175c-4.13,1.74-5.84,2.48-10,0C478,172.81,467.83,158.31,467,151.6a67.89,67.89,0,0,1,9.74-2.91c2.63-.55,5.14.74,6.68.9,1.93.2,3.84-.84,6-.1a37.78,37.78,0,0,1,4.43,1.84A42,42,0,0,1,491.75,175Z"/></g><g class="cls-6"><path class="cls-18" d="M481.33,152.65s2.58,5.47,3.23,6.68-2.82,13.86-2.8,15.7c1.41,1.6,6.88,5.36,6.88,5.36a46.4,46.4,0,0,0,3.11-5.36c.32-4.19-5.31-15.23-4.93-17a64.1,64.1,0,0,1,2.05-6.17l-3.13-2.23h-1.95l-2.46,3.06Z"/></g><g class="cls-6"><path class="cls-19" d="M473,144.9c-1.21,0-3.35,5.48-3.15,6.27.29,1.16,7.65,5.66,9.6,5.66.56,0,4.5-6.55,5.52-6.64s3.9,5.83,5,5.48c.69-.24,2.32-3.79,2.18-5.18s-1.24-4.56-1.77-4.66-3.71,3.25-5.38,3.48c-2,.27-11.22-4.41-12-4.41Z"/></g><g class="cls-6"><path class="cls-16" d="M488.21,271.57a.33.33,0,0,1-.33-.33.37.37,0,0,1,0-.11c1.08-3.06,1.57-19.68,1.39-46.81-.14-21.51-.66-41.79-.86-42.65-.55-.9-11.46-4.94-15.56-6.45-2.09-.78-3-1.12-3.2-1.22a.48.48,0,0,1-.24-.33c-.07-.41.37-1,1.31-2.07.67-.79,2.07-2.44,1.79-2.83s-2.94-.1-4.52.09c-2.68.32-3.64.38-3.91-.13a9.48,9.48,0,0,1-.51-1.9c-.63-2.75-1.8-7.88-4-10.93a.33.33,0,0,1,.07-.46h0a.33.33,0,0,1,.46.08c2.25,3.16,3.44,8.36,4.08,11.16a15.13,15.13,0,0,0,.45,1.74,15.15,15.15,0,0,0,3.25-.22c2.86-.33,4.62-.49,5.13.18s-.63,2.25-1.81,3.65a11.54,11.54,0,0,0-1.13,1.45c.41.17,1.61.61,3,1.12,11.51,4.26,15.69,6.06,16,6.88s.75,21.61.89,42.6c.13,19.34,0,43.24-1.42,47.27a.33.33,0,0,1-.31.22Zm1.44-90.85a.32.32,0,0,1-.33-.32.36.36,0,0,1,.19-.31c4.21-1.88,8.79-9.23,8.83-10.07a15.39,15.39,0,0,0-1.87-1.9c-1.41-1.31-1.76-1.68-1.78-2a.39.39,0,0,1,.13-.3c.25-.23.85-.16,3.12.22a16.8,16.8,0,0,0,3.39.4c.35-.72,0-6.26-1.12-9.51a.33.33,0,0,1,.2-.42h0a.33.33,0,0,1,.41.21c1,3.07,1.73,9.6.91,10.25-.34.27-1.23.18-3.91-.28-.75-.12-1.71-.28-2.25-.33.31.32.88.86,1.33,1.27,1.33,1.24,2,1.86,2.07,2.26.29,1.06-5,8.94-9.2,10.81l-.13,0Z"/></g><g class="cls-6"><path class="cls-20" d="M477.77,183.65a.56.56,0,0,0,.31-.09.51.51,0,0,0,.14-.73c-9.82-13.7-12.9-26.44-7.85-32.48a.51.51,0,0,0-.08-.73.55.55,0,0,0-.76.08c-5.45,6.5-2.46,19.42,7.8,33.73A.53.53,0,0,0,477.77,183.65Zm17.24.43a.54.54,0,0,0,.53-.4c4.28-16.65,1.36-28.13-2.79-33.31a.56.56,0,0,0-.76-.1.53.53,0,0,0-.09.74c3.81,4.76,6.78,16.11,2.6,32.42a.51.51,0,0,0,.39.63l.12,0Z"/></g><g class="cls-6"><path class="cls-16" d="M498,192.36h0a.44.44,0,0,0,.42-.47,5.62,5.62,0,0,0-4.11-4.65,6.61,6.61,0,0,0-7.09,2.37.43.43,0,0,0,0,.61h0a.47.47,0,0,0,.65-.06,5.64,5.64,0,0,1,6.11-2.08,4.7,4.7,0,0,1,3.46,3.86.47.47,0,0,0,.46.42Z"/></g><g class="cls-6"><path class="cls-20" d="M493,202.19a.41.41,0,0,0,.28-.11c2.4-2.26,6.37-10.07,5.51-14.85a4.36,4.36,0,0,0-2.54-3.44,5.47,5.47,0,0,0-5.3.17c-3,1.84-4.62,6.89-4.58,13.84a.41.41,0,0,0,.81,0c0-6.67,1.5-11.48,4.21-13.18a4.64,4.64,0,0,1,4.53-.1,3.57,3.57,0,0,1,2.07,2.86c.82,4.54-3,12-5.27,14.15a.37.37,0,0,0,0,.54h0a.45.45,0,0,0,.29.12Zm-16-17.52a3.05,3.05,0,1,1,3,3A3,3,0,0,1,477,184.67Zm.81,0a2.24,2.24,0,1,0,2.27-2.14A2.21,2.21,0,0,0,477.81,184.68Z"/></g><rect class="cls-1" x="432.81" y="108.03" width="101.96" height="95.19"/><path class="cls-16" d="M486.37,198.16c-1.33-.19-1.24,2.92-.13,2.88S487.4,198.32,486.37,198.16Zm7.14,3.34c-1-.9-2.74,1.7-1.81,2.27S494.27,202.2,493.51,201.5Z"/><g class="cls-6"><path class="cls-12" d="M491.67,203.44c.05-.16.47,0,.41.21S491.63,203.61,491.67,203.44Z"/></g><path class="cls-21" d="M434.68,201.75h86.43v2.86H434.68Z"/><path class="cls-22" d="M512.22,284.72c-1,.12-1.21-.52-1.29-1.35-.16-1.7-.38-3.39-.57-5.08a2.55,2.55,0,0,0-.33-1.79c.4-1.39-.82-2.75-.09-4.15a3.79,3.79,0,0,0,0-1.11c-.77-3.22-.77-6.57-1.44-9.81l-.05-.89c.49-1.58-.29-3-.41-4.57l-.05-1.34a77.85,77.85,0,0,1,.07-8.64,9.56,9.56,0,0,1,2.27-5.67c.33-.39.86-.64.92-1.23a1.72,1.72,0,0,0,.45-1.44,37.88,37.88,0,0,1-.8-10.29c.21-4.54,2.66-7.82,7.69-7.41a12.52,12.52,0,0,1,4.1,1.15c4.8,2.15,9.59,4.36,14.54,6.17,1.66,1.15,3,2.86,5.46,2.43.48-.08,1.11.43,1.6.78,1.55,1.09,3.11,1.74,5.07,1a8.46,8.46,0,0,1,2.48-.12,1.11,1.11,0,0,0,.74.8c3.18.83,6.27,2.15,9.66,1.94a4.57,4.57,0,0,1-.09,2c-1.08,3.85-1.89,7.76-2.73,11.67a37,37,0,0,1-2.18,7.71c-2.76.78-5.53.2-8.3,0-5.2-.31-10.37-1-15.53-1.67a90.9,90.9,0,0,0-9.09-.88c-.78,3.8-1.5,7.48-2,11.21l-.1,1.24-.89.68h-7.14c-.16.24-.39.43-.39.62a91.59,91.59,0,0,1-1.25,17.5Z"/><path class="cls-23" d="M581.91,191.38c2.36,1.45,2.84,3.69,2.49,6.21a10.23,10.23,0,0,0-.26,2c-.13.17-.35.33-.38.52-.44,2.86-1.3,5.64-1.85,8.47a1.47,1.47,0,0,1-1.83,1.41c-3.34-.23-6.42-1.72-9.73-2.3-.12,4.95-1.22,9.47-1.76,14.07-.12,1-1.06,1.21-1.85,1.41-3.57.87-7.19,1.58-10.72,2.59-4.26,1.21-8.27,1.34-11.91-1.63l-.5-.44a10.86,10.86,0,0,1,.83-3,27.29,27.29,0,0,0,1-6.16c0-1-.38-1.38-1.31-1.32a9,9,0,0,1,0-8.55c1.11-.67,1.27-1.31.38-1.77a4.32,4.32,0,0,0-1.33-.18h0l-.41-.48a1.78,1.78,0,0,0-.14-.36c-.65-.76-1.69-1.14-2.14-2.12,0-.9.88-1.51.82-2.44.94-.9,1.25-2.19,2-3.24a68.24,68.24,0,0,0,4-7.21c1.67-.81,3.24-1.86,5.18-2a.81.81,0,0,0,.75-.71,4.63,4.63,0,0,0,2.11.48c1.6-.09,3.22-.15,4.63.85l.51,0a2.06,2.06,0,0,0,.91.89,3.09,3.09,0,0,0,2.33,1c.51.77,1.49,0,2.07.67.35.95,0,2,.55,3,1.38,2.34,4.42,4.37,7.7,3.12A52.48,52.48,0,0,1,581.91,191.38Z"/><path class="cls-24" d="M601.44,229.11c.21,1.52-.32,3.17,1,4.49.34.34,0,1.29-.33,1.88a7.74,7.74,0,0,0-.73,3.73c0,4.53-.09,9.07,0,13.6.07,2.56.54,5.09.5,7.67a59.12,59.12,0,0,1-.79,7.86,12.66,12.66,0,0,0,.32,6.26,6.21,6.21,0,0,1-.93,3.63,32,32,0,0,1-7.27,8.69c-1,.17-1.38-.56-1.85-1.29-1.91-3-1.7-6.41-1.81-9.74-.08-2.55.09-5.08-.93-7.56a49.32,49.32,0,0,0-3.78-8.14,21.73,21.73,0,0,1-2.59-6.36c-.93-3.55-.18-7.2-.85-10.79-.89-4.8-1.42-9.62-7.26-11.18a19.17,19.17,0,0,0-4.39-.93,30.76,30.76,0,0,0-6.06.53l-.12-.54c1.26-1.29,2.3-3.06,3.83-3.76a31.18,31.18,0,0,1,9.59-3.06c1-.1,2.16,0,2.56-1.3A24.93,24.93,0,0,1,591.44,220a56,56,0,0,1,7.54,3.7,5.18,5.18,0,0,1,1.63,2C601.22,226.83,600.6,228.14,601.44,229.11Z"/><path class="cls-25" d="M581.91,191.38a52.48,52.48,0,0,0-7.88,2.83c-3.28,1.25-6.32-.78-7.7-3.12-.59-1-.2-2.09-.55-3-.58-.64-1.56.1-2.07-.67.77-.36,2,.61,2.4-.81v-.1c.35-.2.38-.55.41-.9h0a1,1,0,0,0,.49-.85v0a.56.56,0,0,0,.4-.48l.4-.54a1,1,0,0,0,.56-.76l0,0a3,3,0,0,0,1.31-1.79V181a2.62,2.62,0,0,0,.37-3.26c-.05-.37-.13-.75.21-1.05a9.41,9.41,0,0,0,1.87-2c1-1.58.82-2.35-.6-3.62-.42-.37-1.15-.57-1.14-1.29.06-2.63-1.65-4.81-1.76-7.55a6.26,6.26,0,0,1-4.9-1.52c-.55-.39-1.14-.95-1.84-.64-1.72.75-3.56,1.48-4.23,3.45a36.88,36.88,0,0,0-2.34,12.61c.06,3.62.57,4.36,4,5.69.63.25,1.37.38,1.11,1.35a1.58,1.58,0,0,0-.47,2.24c-1.41-1-3-.94-4.63-.85a4.63,4.63,0,0,1-2.11-.48c-2.13-1.63-2.21-3.81-1.64-6.14a7.82,7.82,0,0,1,.6-1.47,20.6,20.6,0,0,0,2.27-7.54c.3-3.63,1.9-6.9,3.51-10,2.9-5.55,13.31-8.81,18.52-2.71a4.07,4.07,0,0,0,1,.9c4.58,2.63,5.45,6.81,4.74,11.54a15.29,15.29,0,0,1-2.77,7.12c-.13.18-.23.39-.36.58-2.5,3.73-2.44,7.43,0,11.19a4,4,0,0,0,1.32,1.14A2.93,2.93,0,0,1,581.91,191.38Z"/><path class="cls-5" d="M584.5,273.32a4.47,4.47,0,0,0-3.22.72q-7.87,4.75-15.81,9.38a5.46,5.46,0,0,0-2.24,2.44,36.71,36.71,0,0,0-4.12,17.83,4.41,4.41,0,0,1-5.05,1c-.56-.9-.31-1.83-.37-2.72-.29-4.29-.33-8.61-1.28-12.83-.7-3.14-1.95-4.11-5-4.63-7.52-1.26-15-2.58-22.54-3.86-1-.17-2-.26-2.93-.39-.34-.77.5-1.31.4-2,.65-.26,1-1,1.83-1a47.29,47.29,0,0,1,6.91,1c6,1,12,2,18,3,3.42.57,6.8,1.06,10.29.26a6.84,6.84,0,0,0,5.2-4.06,175.26,175.26,0,0,0,10.09-28.94,8.46,8.46,0,0,1,2.24-4.33c.28.07.74.09.73.37,0,2,1.28,4,.18,6-2.6,8-5.86,15.74-9.1,23.5-.55,1.33-1.56,2.51-1.69,4.44a83.59,83.59,0,0,0,17.63-11.1,4.56,4.56,0,0,1,.93,4.9c.24.22.79.12.64.72C585.71,273.42,585.05,273.14,584.5,273.32Z"/><path class="cls-26" d="M591.44,220a24.93,24.93,0,0,0-11.83,2.76c-.83-.19-1.83.33-2.59-.7A40.83,40.83,0,0,0,580.08,210a1.47,1.47,0,0,0,1.83-1.41c.55-2.83,1.41-5.61,1.85-8.47,0-.19.25-.35.38-.52,1,.29,2,.62,3,.89,3.9,1,5.35,3.91,5.57,7.55a25.87,25.87,0,0,1-.3,7.65,9.15,9.15,0,0,0,0,2C592.08,218.48,591.76,219.26,591.44,220Z"/><path class="cls-27" d="M577.78,250.5c1.1-2-.21-4-.18-6,0-.28-.45-.3-.73-.37.23-2.53-1.1-4.83-1-7.35,0-.45-.44-.94-.71-1.39a6.4,6.4,0,0,0-3.61-2.49c-2.37-.88-4.86-1.29-7,.65a2.13,2.13,0,0,1-1.86.56l1.11-2.64a30.76,30.76,0,0,1,6.06-.53,19.17,19.17,0,0,1,4.39.93c5.84,1.56,6.37,6.38,7.26,11.18.67,3.59-.08,7.24.85,10.79a21.73,21.73,0,0,0,2.59,6.36,49.32,49.32,0,0,1,3.78,8.14c1,2.48.85,5,.93,7.56.11,3.33-.1,6.72,1.81,9.74.47.73.81,1.46,1.85,1.29-.71.95-1.51,1.65-2.76.88-.32-1.67-1.83-2.64-2.39-4.21q-1.39-3.87-2.73-7.76c-.28-.83-1.2-1.44-.89-2.51.55-.18,1.21.1,1.69-.36.15-.6-.4-.5-.64-.72a4.56,4.56,0,0,0-.93-4.9,10.3,10.3,0,0,0-1.79-5.88c-1.11-1.64-1.87-3.52-2.92-5.22S578.92,252.26,577.78,250.5Z"/><path class="cls-5" d="M497.34,272a56.63,56.63,0,0,0,7.62,1.69,4.61,4.61,0,0,1,1.51,1.3A4.39,4.39,0,0,0,510,276.5a2.55,2.55,0,0,1,.33,1.79c-.91,0-1.73-.43-2.68-.3a4.9,4.9,0,0,0-4.37,3.68q-1.63,5.29-2.89,10.69c-.66,2.86-2.41,3.68-5.31,2.43C495.86,287.21,497.47,279.67,497.34,272Z"/><path class="cls-28" d="M522.31,278.25c.1.73-.74,1.27-.4,2a4.17,4.17,0,0,0-1.46,4,5.09,5.09,0,0,0-1.8,1.27c-2-.58-3.85-1.78-6.07-1.27a91.59,91.59,0,0,0,1.25-17.5c0-.19.23-.38.39-.62h7.14l.39.36c.44.9-.72,1.8,0,2.69-.19.86-.34,1.73-.57,2.58A8.09,8.09,0,0,0,522.31,278.25Z"/><path class="cls-28" d="M519.51,292.34c.21,1.44-.42,3,.74,4.33.26.29-.54,1.22.52,1.47-.07.79-1.36.51-1.25,1.58.09.92,1.12.65,1.38,1.46-.74.23-.56,1.71-2,1.15-.21-.08-.88,1.11-1.57,1.5-1.74,1-3.65,1.73-5.19,3.09a2.16,2.16,0,0,1-1.7.43c-1.16-2.89-3.45-4.22-6.41-4.63a4.43,4.43,0,0,1,2.24-2.7,15.19,15.19,0,0,0,4.6-5.39,1.71,1.71,0,0,1,.94-.91c2,.36,4,.43,5.75-1C518.14,292.21,518.86,292.38,519.51,292.34Z"/><path class="cls-29" d="M590.51,287.8c1.25.77,2,.07,2.76-.88a32,32,0,0,0,7.27-8.69,6.21,6.21,0,0,0,.93-3.63l2.57,2c-.37,1.43-1.72,2.84-.33,4.4-.92.73-1.2-.51-1.87-.39-.46.43.34,1,0,1.27-.77.81-1-.78-1.63-.13-.21.94,1.12,1.63.55,2.67-.9.21-1.24-.93-2.07-.74-.06-.22.1-.55-.29-.61-.21.34,0,.5.27.63-.05.51.13,1-.14,1.48-.49.58-1-.37-1.61.37-.42.76.3,2-.31,2.95-.88.15-1.1-.82-1.81-.93-.55.93,0,1.83.12,2.6-.73.64-1.26-.1-1.78,0-.69.51-.1,1.34-.65,1.95-1.28-.9-1.69-2.38-2.41-3.64C590,288.26,590.22,288,590.51,287.8Z"/><path class="cls-26" d="M516.1,302.72c2.95.41,5.24,1.74,6.4,4.63-1.53,2.37-4.06,1.82-6.27,2a8.17,8.17,0,0,1-2.21-.24c-2-.39-2.8-2.31-1.44-3.86C513.53,304.19,514.35,302.77,516.1,302.72Z"/><path class="cls-30" d="M591.44,220c.32-.78.64-1.56,1-2.34a13.46,13.46,0,0,1,6.88,1.75c2.64,1.41,3.3,2.94,2.72,5.9-.24,1.24-.38,2.51-.57,3.76-.84-1-.22-2.28-.83-3.37a5.18,5.18,0,0,0-1.63-2A56,56,0,0,0,591.44,220Z"/><path class="cls-30" d="M511.9,290.94c.74,0,1.08.78,1.89.87a21.27,21.27,0,0,0,3.51-3.58c1.81.5,2.2.94,2.24,2.58,0,.51,0,1,0,1.53-.65,0-1.37-.13-1.92.34-1.72,1.47-3.71,1.4-5.75,1Z"/><path class="cls-28" d="M517.33,287.79a2.26,2.26,0,0,1,1.31-1.33C519.26,287.7,519.21,287.75,517.33,287.79Z"/><path class="cls-30" d="M562.64,234.1a2.13,2.13,0,0,0,1.86-.56c2.16-1.94,4.65-1.53,7-.65a6.4,6.4,0,0,1,3.61,2.49c.27.45.72.94.71,1.39-.07,2.52,1.26,4.82,1,7.35a8.46,8.46,0,0,0-2.24,4.33,175.26,175.26,0,0,1-10.09,28.94,6.84,6.84,0,0,1-5.2,4.06c-3.49.8-6.87.31-10.29-.26-6-1-12-2-18-3a47.29,47.29,0,0,0-6.91-1,3.6,3.6,0,0,1,.69-1.84c.84-1.79.81-3.4-.82-4.77a1.91,1.91,0,0,1-.86-1.48c.27-.73,1-.91,1.56-1.23,2.67-1.43,5.72-1.73,8.55-2.72a21.9,21.9,0,0,0,6.88-3.66c1.11-.92,2.26-1.77,3.85-1.49a31.06,31.06,0,0,1,7,1.68,11.75,11.75,0,0,0,5.06.55c1-1.1.88-2.44,1.2-3.65,0-1,0-2.09,0-3.14a37,37,0,0,0,2.18-7.71c.84-3.91,1.65-7.82,2.73-11.67a4.57,4.57,0,0,0,.09-2Z"/><path class="cls-26" d="M503.22,241.91c-.14-3.66.13-7.33-.87-10.94s-2.31-4.85-6.08-5c-.6,0-1.2,0-1.81,0,.57-1.4,2-1.76,3.13-2.28,6.33-2.8,13-4.52,19.66-6.34,4.69-1.28,9.31-2.8,14.1-3.69,1,0,1.38.82,2,1.33,1.18.95,1.84,2.33,2.92,3.41,1.69,1.72,3.45,1.27,5.19,1.05,1.47-.18,2.64-2.51,2.66-4.44,0-.6,0-1.2.06-1.8.93-.06,1.36.34,1.31,1.32a27.29,27.29,0,0,1-1,6.16,10.86,10.86,0,0,0-.83,3c-2.57-1.12-4.49,0-6.34,1.88v1.71c-4.95-1.81-9.74-4-14.54-6.17a12.52,12.52,0,0,0-4.1-1.15c-5-.41-7.48,2.87-7.69,7.41a37.88,37.88,0,0,0,.8,10.29,1.72,1.72,0,0,1-.45,1.44c-1-1.63-1-1.62-2.66-.67-.65.37-1.32.72-2,1-.84.41-1.58.89-1.68,1.93l-.89.46Z"/><path class="cls-27" d="M537.27,227.27v-1.71c1.85-1.83,3.77-3,6.34-1.88l.5.44c3.64,3,7.65,2.84,11.91,1.63,3.53-1,7.15-1.72,10.72-2.59.79-.2,1.73-.39,1.85-1.41.54-4.6,1.64-9.12,1.76-14.07,3.31.58,6.39,2.07,9.73,2.3A40.83,40.83,0,0,1,577,222.1c.76,1,1.76.51,2.59.7-.4,1.33-1.6,1.2-2.56,1.3a31.18,31.18,0,0,0-9.59,3.06c-1.53.7-2.57,2.47-3.83,3.76-3.21,0-6.42,0-9.63.1-.71,0-1.5-.27-2.12.36a8.46,8.46,0,0,0-2.48.12c-2,.72-3.52.07-5.07-1-.49-.35-1.12-.86-1.6-.78C540.31,230.13,538.93,228.42,537.27,227.27Z"/><path class="cls-24" d="M557.28,255.51c0,1.05,0,2.09,0,3.14a24.23,24.23,0,0,1-6.06-.33,24.52,24.52,0,0,0-7.6-.51,8.43,8.43,0,0,0-5.2,1.77,20.47,20.47,0,0,1-5.59,3.64c-2.36.9-4.86,1.42-7.23,2.4-1.16.48-2.39,1.24-3.8.87l-.39-.36.89-.68.31.22a1.06,1.06,0,0,0-.21-1.46c.51-3.73,1.23-7.41,2-11.21a90.9,90.9,0,0,1,9.09.88c5.16.69,10.33,1.36,15.53,1.67C551.75,255.71,554.52,256.29,557.28,255.51Z"/><path class="cls-24" d="M504.07,241.85l.89-.46c.7.1,1.06-.43,1.54-.78a4.85,4.85,0,0,1,3.15-1.28c-.58.91-1,1.6-1.45,2.27a7.69,7.69,0,0,0-1.25,4.9c.29,2.34.21,4.65.31,7,0,.57.08,1.06.77,1.17l.05,1.34c-.71,1.33-.31,2.73-.26,4.1,0,.33.39.39.67.47l.05.89c-.73,1.18-.45,2.48-.26,3.67a38.22,38.22,0,0,1,.81,7.23c-.28,1.44-1.13,1.05-1.65.35-.73-1-1.72-1.81-2.08-3.09-.23-.82-.54-1.76-1.68-1.83v-4.48c.38-.07.8-.21.8-.64a21.82,21.82,0,0,1,.49-4.83.83.83,0,0,0-.44-.93c0-1.37,0-2.73,0-4.1.4-1.05.33-1.9-1-2.23l-.47-.87c.1-.63-.16-1-.81-1-.44-.17-.49-.52-.46-.92.46-1.79.65-3.69,2.17-5C504.17,242.58,504.06,242.15,504.07,241.85Z"/><path class="cls-23" d="M551.88,231.38c.62-.63,1.41-.35,2.12-.36,3.21-.06,6.42-.07,9.63-.1l.12.54-1.11,2.64-.36,0c-3.39.21-6.48-1.11-9.66-1.94A1.11,1.11,0,0,1,551.88,231.38Z"/><path class="cls-27" d="M503.68,267.76c1.14.07,1.45,1,1.68,1.83.36,1.28,1.35,2.1,2.08,3.09.52.7,1.37,1.09,1.65-.35l.85,0c-.73,1.4.49,2.76.09,4.15a4.39,4.39,0,0,1-3.56-1.53,4.61,4.61,0,0,0-1.51-1.3C504.65,271.67,503,270,503.68,267.76Z"/><path class="cls-31" d="M508,254.63c-.69-.11-.74-.6-.77-1.17-.1-2.31,0-4.62-.31-7a7.69,7.69,0,0,1,1.25-4.9c.45-.67.87-1.36,1.45-2.27a4.85,4.85,0,0,0-3.15,1.28c-.48.35-.84.88-1.54.78.1-1,.84-1.52,1.68-1.93.67-.32,1.34-.67,2-1,1.65-.95,1.65-1,2.66.67-.06.59-.59.84-.92,1.23A9.56,9.56,0,0,0,508.1,246,77.85,77.85,0,0,0,508,254.63Z"/><path class="cls-31" d="M509.94,272.35l-.85,0a38.22,38.22,0,0,0-.81-7.23c-.19-1.19-.47-2.49.26-3.67.67,3.24.67,6.59,1.44,9.81A3.79,3.79,0,0,1,509.94,272.35Z"/><path class="cls-31" d="M508.49,260.54c-.28-.08-.66-.14-.67-.47-.05-1.37-.45-2.77.26-4.1C508.2,257.5,509,259,508.49,260.54Z"/><path class="cls-27" d="M522.35,264.21a1.06,1.06,0,0,1,.21,1.46l-.31-.22Z"/><path class="cls-26" d="M542.69,201.84c-2.15.16-2.22.31-2.71,2.16a28.51,28.51,0,0,1-1.46,3.58c-2.54.07-2.82-1.89-3.52-3.45a4.93,4.93,0,0,1,.87-2.95,18.22,18.22,0,0,1,3.68-3.86l1.82,0c.06.93-.81,1.54-.82,2.44C541,200.7,542,201.08,542.69,201.84Z"/><path class="cls-26" d="M544.22,204.64c.1-.86-.52-1.36-1-1.95a4.32,4.32,0,0,1,1.33.18C545.49,203.33,545.33,204,544.22,204.64Z"/><path class="cls-25" d="M560.29,183.22l0,2.29-.41,0A1.79,1.79,0,0,1,560.29,183.22Z"/><path class="cls-26" d="M543.24,202.68a.4.4,0,0,1-.41-.48Z"/><path class="cls-22" d="M498.29,93.78c-.4,1.09-1.22.94-2,.94q-15.43,0-30.88,0c-.73,0-1.55.17-2-.79.17-1.18,1.12-1,1.91-1h8.18c7.41,0,14.83,0,22.25,0C496.68,93,497.69,92.6,498.29,93.78Z"/><path class="cls-31" d="M504.07,241.85c0,.3.1.73-.05.87-1.52,1.35-1.71,3.25-2.17,5-1.19-1.18-.21-2.37,0-3.54a6.53,6.53,0,0,1,1.36-2.31Z"/><path class="cls-27" d="M504.53,256.88a.83.83,0,0,1,.44.93,21.82,21.82,0,0,0-.49,4.83c0,.43-.42.57-.8.64A14,14,0,0,1,504.53,256.88Z"/><path class="cls-27" d="M503.59,250.55c1.28.33,1.35,1.18,1,2.23A4.59,4.59,0,0,1,503.59,250.55Z"/><path class="cls-31" d="M502.31,248.68c.65,0,.91.37.81,1C502.55,249.59,502.22,249.3,502.31,248.68Z"/><path class="cls-26" d="M577.78,250.5c1.14,1.76,1,3.95,2.13,5.74s1.81,3.58,2.92,5.22a10.3,10.3,0,0,1,1.79,5.88A83.59,83.59,0,0,1,567,278.44c.13-1.93,1.14-3.11,1.69-4.44C571.92,266.24,575.18,258.5,577.78,250.5Z"/><path class="cls-26" d="M523.15,269.17a1.91,1.91,0,0,0,.86,1.48c1.63,1.37,1.66,3,.82,4.77a3.6,3.6,0,0,0-.69,1.84c-.81,0-1.18.73-1.83,1a8.09,8.09,0,0,1-1.14-6.49c.23-.85.38-1.72.57-2.58A1.4,1.4,0,0,0,523.15,269.17Z"/><path class="cls-32" d="M464,208.71a2.29,2.29,0,0,1,.09.28s-.08.07-.12.1A.25.25,0,0,1,464,208.71Z"/><path class="cls-27" d="M523.15,269.17a1.4,1.4,0,0,1-1.41,0c-.71-.89.45-1.79,0-2.69,1.41.37,2.64-.39,3.8-.87,2.37-1,4.87-1.5,7.23-2.4a20.47,20.47,0,0,0,5.59-3.64,8.43,8.43,0,0,1,5.2-1.77,24.52,24.52,0,0,1,7.6.51,24.23,24.23,0,0,0,6.06.33c-.32,1.21-.24,2.55-1.2,3.65a11.75,11.75,0,0,1-5.06-.55,31.06,31.06,0,0,0-7-1.68c-1.59-.28-2.74.57-3.85,1.49a21.9,21.9,0,0,1-6.88,3.66c-2.83,1-5.88,1.29-8.55,2.72C524.11,268.26,523.42,268.44,523.15,269.17Z"/><path class="cls-33" d="M598.69,283.72c-.26-.13-.48-.29-.27-.63.39.06.23.39.29.61Z"/><path class="cls-34" d="M524.8,252.51s2.23-19.72,1.54-22.18,1.31,2.88,1.31,2.88l12.4.92.38.91h4.24l-5.7.5-6.78.35-2.54.7-1.16,2s-.69,7.61-.3,8.45a38.27,38.27,0,0,0,3.46,4.16l2.54,1.12-1.07.78Z"/><path class="cls-18" d="M594.53,127.25H511.78a2.48,2.48,0,0,0-2.48,2.48v11.58a2.48,2.48,0,0,0,2.48,2.48h38.59a6.49,6.49,0,0,1,3.17,2.33,14.28,14.28,0,0,0,3.87,3.67c.73-2,.18-4,.69-6h36.43a2.48,2.48,0,0,0,2.48-2.48V129.73A2.48,2.48,0,0,0,594.53,127.25Z"/><path class="cls-28" d="M516.93,288.68a10.33,10.33,0,0,0,3.35-2.2c.42-.49,2-6.06,2.44-7.26s1.61-1.49,1.42-2-3.61.84-3.61.84l-2.5,4Z"/><path class="cls-26" d="M513.81,291.68a46.9,46.9,0,0,0,5-4.56c.83-1.2.25-1.88.25-1.88s-3.31-1-4.36-1.14a2.55,2.55,0,0,0-1.74.33s-.42,3.69-.35,3.73.86,2.69.93,2.75A4.42,4.42,0,0,1,513.81,291.68Z"/><path class="cls-26" d="M512.58,284.25c2.22-.51,4.08.69,6.07,1.27v.94a2.26,2.26,0,0,0-1.31,1.33,1.66,1.66,0,0,0,0,.44,21.27,21.27,0,0,1-3.51,3.58c-.81-.09-1.15-.91-1.89-.87-1-2.13.16-4.15.32-6.22Z"/><rect x="466.11" y="257.97" width="29.96" height="6.39"/><path class="cls-30" d="M497.34,272a1.86,1.86,0,0,0-.52-1.21,11.16,11.16,0,0,1-3.21-5.51,1.1,1.1,0,0,0-.51-.69c.07-1.83-.76-3.5-.93-5.29-.08-.71-.64-.95-1.27-1a2.59,2.59,0,0,0,.76-2.53,29.2,29.2,0,0,1-.79-8.38c.05-2.54-.23-5.06-.37-7.59-.23-4.36-.52-8.81,1.76-12.87.92.15,1.3-1,2.2-.91.61,0,1.21,0,1.81,0,3.77.15,5.06,1.32,6.08,5s.73,7.28.87,10.94a6.53,6.53,0,0,0-1.36,2.31c-.22,1.17-1.2,2.36,0,3.54,0,.4,0,.75.46.92-.09.62.24.91.81,1l.47.87a4.59,4.59,0,0,0,1,2.23c0,1.37,0,2.73,0,4.1a14,14,0,0,0-.85,6.4v4.48c-.66,2.2,1,3.91,1.28,5.91A56.63,56.63,0,0,1,497.34,272Z"/><polygon points="525.02 215.12 520.3 216.48 520.18 185.09 524.78 185.15 525.02 215.12"/><path class="cls-35" d="M511.82,193.2c-.13.27-.38.5-.63.3s-.15-.57.19-.77Z"/><path class="cls-36" d="M509.51,190.05c1.35,2.25,3.87,5.23,6.4,6s3.8-.26,5.11,1.62l9.79,13.89s3,4.93,5.23,6.66,3.92,2.52,5.58,1.24,2.71-2.56,2.86-3.54,1.69-1.61,1.69-1.61.64-9.75.64-9.94-.08-2.34-.08-2.34l-4-2.25-1.47-.53s-1.7,4.48-2.22,6.06a4.48,4.48,0,0,1-1.17,2.07s-10.16-10.84-11.1-11.93-1.21-3.43-1.43-4.6a8.3,8.3,0,0,0-2.79-3.91c-1-.68-1.77-1.13-1.92-.72s.19,1,.83,1.81,1.39,2.26,1.13,2.56-2.49-.3-3.24-.56a23.4,23.4,0,0,1-4.43-3.13,7.92,7.92,0,0,0-2.36-1.55c-.35-.13-1.25.52-1.25.52s-1.38.1-1.46.5a1.87,1.87,0,0,1-.52,1.18c-.33.23-.26,1.11-.18,1.41S509.51,190.05,509.51,190.05Z"/><path class="cls-37" d="M509.52,188.5l2.4,1.76,1.21.87c.39.28.84.6,1.19.83v.13a14.36,14.36,0,0,1-1.25-.88l-1.19-.9Z"/><path class="cls-37" d="M510.75,186.79l2.28,1.93,1.15.94a10.29,10.29,0,0,0,1.19.87l0,.12a8.69,8.69,0,0,1-1.21-.91l-1.13-1Z"/><polygon class="cls-37" points="511.91 186.21 516.39 189.48 516.32 189.59 511.91 186.21"/><path class="cls-37" d="M517.21,192.18A11.62,11.62,0,0,0,521,192"/><path class="cls-38" d="M559.54,181.07s-.47,3.3-.62,3.73,0,1.71,2.17,2.33,4.71,1.05,5,.58,1.63-4.16,2.72-5.05a13.18,13.18,0,0,0,2-2.14l-.16-2.06-7.38,1.48Z"/><path class="cls-39" d="M559.58,181.56s-.74,2.54-.5,2.61,2.42.9,5.76-.91a32.62,32.62,0,0,0,5.87-4.12l-.4-1s-5,2.75-6.19,2.91S559.58,181.56,559.58,181.56Z"/><path class="cls-38" d="M558.11,161.8a40.11,40.11,0,0,0-2.54,11.14c-.08,3.79-.48,7.47,2.51,8.23s4.11,1.42,7.64,0,4-2.12,4-2.12-.17-2,.46-2.31.78-1.46,1.6-2.09,1.85-2,1-3.06a3.32,3.32,0,0,0-2.33-1.21c-.39,0-.2-2.43-.25-3.16s-1.06-2-1.06-3a24.59,24.59,0,0,0-.25-2.72,3.81,3.81,0,0,1-2.33,0c-1.63-.74-1.92-1.88-3.54-2.23a4.32,4.32,0,0,0-2.89.55A5.18,5.18,0,0,0,558.11,161.8Z"/><path d="M518.09,139.2h-1v-7.31h1Zm4.29-3.25H518V135h4.39Zm-.09-4.06h1v7.31h-1Z"/><path d="M527.84,139.27a3.27,3.27,0,0,1-1.56-.37,2.57,2.57,0,0,1-1-1,2.83,2.83,0,0,1-.37-1.46,3,3,0,0,1,.36-1.47,2.61,2.61,0,0,1,1-1,3,3,0,0,1,2.84,0,2.46,2.46,0,0,1,1,1,3.13,3.13,0,0,1,.35,1.5v.14c0,.06,0,.11,0,.16h-4.71v-.72h4.19l-.41.25a1.88,1.88,0,0,0-.22-1,1.58,1.58,0,0,0-.63-.65,1.8,1.8,0,0,0-.94-.24,1.78,1.78,0,0,0-.92.24,1.51,1.51,0,0,0-.64.66,2,2,0,0,0-.23,1v.17a1.92,1.92,0,0,0,.25,1,1.79,1.79,0,0,0,.72.67,2.26,2.26,0,0,0,1,.24,2.37,2.37,0,0,0,.9-.17,2,2,0,0,0,.7-.5l.56.65a2.65,2.65,0,0,1-.94.67A3.31,3.31,0,0,1,527.84,139.27Z"/><path d="M531.77,139.2v-7.74h1v7.74Z"/><path d="M534.68,139.2v-7.74h1v7.74Z"/><path d="M540,139.27a3,3,0,0,1-1.47-.37,2.63,2.63,0,0,1-1-1,3,3,0,0,1,0-2.91,2.8,2.8,0,0,1,1-1,3.22,3.22,0,0,1,3,0,2.65,2.65,0,0,1,1,1,3,3,0,0,1,.37,1.47,2.93,2.93,0,0,1-.37,1.46,2.68,2.68,0,0,1-1,1A3,3,0,0,1,540,139.27Zm0-.88a1.9,1.9,0,0,0,1-.24,1.69,1.69,0,0,0,.66-.69,2.31,2.31,0,0,0,0-2.05,1.73,1.73,0,0,0-.66-.68,2,2,0,0,0-1.91,0,1.8,1.8,0,0,0-.66.68,2.23,2.23,0,0,0,0,2.05,1.76,1.76,0,0,0,.66.69A1.89,1.89,0,0,0,540,138.39Z"/><path d="M547.18,139.2v-7.31h3.08a4.5,4.5,0,0,1,2.06.46,3.4,3.4,0,0,1,1.39,1.29,3.9,3.9,0,0,1,0,3.82,3.31,3.31,0,0,1-1.39,1.28,4.37,4.37,0,0,1-2.06.46Zm1-.91h2a3.37,3.37,0,0,0,1.57-.34,2.53,2.53,0,0,0,1-1,3,3,0,0,0,0-2.87,2.58,2.58,0,0,0-1-1,3.37,3.37,0,0,0-1.57-.35h-2Z"/><path d="M558,139.27a3,3,0,0,1-1.48-.37,2.63,2.63,0,0,1-1-1,2.83,2.83,0,0,1,1-3.91,3.24,3.24,0,0,1,3,0,2.69,2.69,0,0,1,1,1,2.87,2.87,0,0,1,.37,1.47,2.83,2.83,0,0,1-.37,1.46,2.72,2.72,0,0,1-1,1A3,3,0,0,1,558,139.27Zm0-.88a1.89,1.89,0,0,0,1-.24,1.65,1.65,0,0,0,.67-.69,2.31,2.31,0,0,0,0-2.05,1.69,1.69,0,0,0-.67-.68,1.89,1.89,0,0,0-1-.24,1.86,1.86,0,0,0-.95.24,1.82,1.82,0,0,0-.67.68,2.23,2.23,0,0,0,0,2.05,1.78,1.78,0,0,0,.67.69A1.86,1.86,0,0,0,558,138.39Z"/><path d="M564.7,139.27a3.13,3.13,0,0,1-1.51-.37,2.7,2.7,0,0,1-1-1,2.83,2.83,0,0,1-.37-1.46,2.87,2.87,0,0,1,.37-1.47,2.68,2.68,0,0,1,1-1,3.12,3.12,0,0,1,1.51-.36,3,3,0,0,1,1.34.29,2.11,2.11,0,0,1,.91.89l-.76.49a1.71,1.71,0,0,0-.66-.6,1.86,1.86,0,0,0-.84-.2,1.94,1.94,0,0,0-1,.24,1.78,1.78,0,0,0-.68.68,2,2,0,0,0-.25,1,2,2,0,0,0,.25,1,1.78,1.78,0,0,0,.68.68,1.94,1.94,0,0,0,1,.24,2,2,0,0,0,.84-.19,1.71,1.71,0,0,0,.66-.6l.76.48a2.21,2.21,0,0,1-.91.88A2.91,2.91,0,0,1,564.7,139.27Z"/><path d="M567.53,134.49v-.82h3.53v.82Zm2.69,4.78a1.76,1.76,0,0,1-1.29-.45,1.71,1.71,0,0,1-.46-1.29v-5.07h1v5a1,1,0,0,0,.23.69.83.83,0,0,0,.64.24,1.2,1.2,0,0,0,.78-.26l.31.72a1.41,1.41,0,0,1-.54.29A2.53,2.53,0,0,1,570.22,139.27Z"/><path d="M574.83,139.27a3,3,0,0,1-1.48-.37,2.63,2.63,0,0,1-1-1,2.83,2.83,0,0,1,1-3.91,3,3,0,0,1,1.49-.36,3,3,0,0,1,1.47.36,2.65,2.65,0,0,1,1,1,3,3,0,0,1,.37,1.47,2.93,2.93,0,0,1-.37,1.46,2.68,2.68,0,0,1-1,1A3,3,0,0,1,574.83,139.27Zm0-.88a1.89,1.89,0,0,0,.95-.24,1.78,1.78,0,0,0,.67-.69,2.31,2.31,0,0,0,0-2.05,1.82,1.82,0,0,0-.67-.68,1.89,1.89,0,0,0-.95-.24,1.8,1.8,0,0,0-1.62.92,2.23,2.23,0,0,0,0,2.05,1.78,1.78,0,0,0,.67.69A1.84,1.84,0,0,0,574.83,138.39Z"/><path d="M579.09,139.2v-5.53h1v1.5l-.1-.37a1.68,1.68,0,0,1,.78-.88,2.7,2.7,0,0,1,1.33-.3v1h-.23a1.7,1.7,0,0,0-1.27.48,1.92,1.92,0,0,0-.47,1.39v2.75Z"/><path d="M583.5,139.27a.69.69,0,0,1-.5-.21.68.68,0,0,1-.21-.51A.7.7,0,0,1,583,138a.71.71,0,0,1,.5-.19.67.67,0,0,1,.69.71.7.7,0,0,1-.69.72Z"/><path d="M585.87,139.27a.69.69,0,0,1-.5-.21.68.68,0,0,1-.21-.51.7.7,0,0,1,.21-.52.71.71,0,0,1,.5-.19.69.69,0,0,1,.49.19.73.73,0,0,1,.2.52.71.71,0,0,1-.2.51A.67.67,0,0,1,585.87,139.27Z"/><path d="M588.46,139.27a.68.68,0,0,1-.49-.2.65.65,0,0,1-.2-.47.63.63,0,0,1,.2-.48.67.67,0,0,1,.49-.19.65.65,0,0,1,.67.67.64.64,0,0,1-.19.47A.63.63,0,0,1,588.46,139.27Zm-.4-2.37-.19-5h1.18l-.2,5Z"/></g></svg>