<svg width="36" height="36" viewBox="0 0 36 36" fill="none" xmlns="http://www.w3.org/2000/svg">
<rect x="15.875" y="0.955566" width="25" height="25" rx="4.94859" transform="rotate(36.6196 15.875 0.955566)" fill="#FFE0E0" style="fill:#FFE0E0;fill:color(display-p3 1.0000 0.8771 0.8771);fill-opacity:1;"/>
<path d="M18.4244 19.88L22.6586 23.0711C22.9706 23.3062 23.4127 23.2427 23.6466 22.9292C23.8806 22.6158 23.8174 22.1715 23.5055 21.9365L19.5853 18.9545V12.9269C19.5853 12.5351 19.2694 12.2178 18.8795 12.2178C18.4896 12.2178 18.1738 12.5351 18.1738 12.9269V19.3091C18.1738 19.5445 18.2719 19.7566 18.4244 19.88Z" fill="#DC2626" style="fill:#DC2626;fill:color(display-p3 0.8627 0.1490 0.1490);fill-opacity:1;"/>
<path d="M19.2325 8.31787C14.0671 8.31787 9.65601 12.0642 8.79504 17.182L8.52687 16.7814C8.30845 16.4563 7.8695 16.3704 7.54593 16.5899C7.22236 16.8094 7.13697 17.2505 7.35539 17.5756L8.76681 19.703C8.8829 19.8803 9.07203 19.9962 9.28198 20.0186H9.35255C9.53957 20.0179 9.71847 19.9427 9.85008 19.8094L11.6144 18.0366C11.8899 17.7596 11.8899 17.31 11.6144 17.0331C11.3388 16.7562 10.8914 16.7562 10.6158 17.0331L10.1782 17.4763C10.9909 12.4507 15.704 9.03906 20.705 9.85563C25.706 10.6722 29.1019 15.4078 28.2893 20.4334C27.5677 24.896 23.7318 28.1743 19.2325 28.1736C16.3949 28.2254 13.711 26.8802 12.0448 24.5712C11.8187 24.2521 11.3779 24.1773 11.0604 24.4046C10.7428 24.6319 10.6684 25.0747 10.8945 25.3938C12.824 28.0786 15.9376 29.6461 19.2325 29.5919C25.079 29.5919 29.8182 24.8297 29.8182 18.9549C29.8182 13.0801 25.079 8.31787 19.2325 8.31787Z" fill="black" style="fill:black;fill-opacity:1;"/>
</svg>
