<svg width="36" height="36" viewBox="0 0 36 36" fill="none" xmlns="http://www.w3.org/2000/svg">
<rect x="15.875" y="0.977783" width="25" height="25" rx="4.94859" transform="rotate(36.6196 15.875 0.977783)" fill="#FFE0E0" style="fill:#FFE0E0;fill:color(display-p3 1.0000 0.8771 0.8771);fill-opacity:1;"/>
<path d="M27.6246 9.58693H26.2438V7.98626C26.2438 7.7502 26.0522 7.55884 25.8158 7.55884H23.5472C23.3108 7.55884 23.1191 7.7502 23.1191 7.98626V9.58693H20.4225V7.98626C20.4225 7.7502 20.2309 7.55884 19.9945 7.55884H17.7259C17.4894 7.55884 17.2978 7.7502 17.2978 7.98626V9.58693H14.6012V7.98626C14.6012 7.7502 14.4095 7.55884 14.1731 7.55884H11.9045C11.6681 7.55884 11.4765 7.7502 11.4765 7.98626V9.58693H10.0957C8.88628 9.58693 7.90234 10.5695 7.90234 11.7771V26.9709C7.90234 28.1786 8.88628 29.1611 10.0957 29.1611H27.6246C28.8341 29.1611 29.818 28.1786 29.818 26.9709V11.7771C29.818 10.5695 28.834 9.58693 27.6246 9.58693ZM23.9752 8.41369H25.3878V11.5766H23.9752V8.41369ZM18.1539 8.41369H19.5664V11.5766H18.1539V8.41369ZM12.3326 8.41369H13.7451V11.5766H12.3326V8.41369ZM10.0957 10.4418H11.4765V12.0041C11.4765 12.2401 11.6681 12.4315 11.9045 12.4315H14.1731C14.4095 12.4315 14.6012 12.2401 14.6012 12.0041V10.4418H17.2978V12.0041C17.2978 12.2401 17.4894 12.4315 17.7259 12.4315H19.9945C20.2309 12.4315 20.4225 12.2401 20.4225 12.0041V10.4418H23.1191V12.0041C23.1191 12.2401 23.3108 12.4315 23.5472 12.4315H25.8158C26.0522 12.4315 26.2438 12.2401 26.2438 12.0041V10.4418H27.6246C28.362 10.4418 28.9619 11.0408 28.9619 11.7771V13.4927H8.75842V11.7771C8.75842 11.0408 9.35832 10.4418 10.0957 10.4418ZM27.6246 28.3063H10.0957C9.35832 28.3063 8.75842 27.7072 8.75842 26.9709V14.3476H28.9619V26.9709C28.9619 27.7072 28.362 28.3063 27.6246 28.3063ZM23.1405 19.1925H20.9977V17.0527C20.9977 16.8166 20.806 16.6253 20.5696 16.6253H17.1507C16.9143 16.6253 16.7227 16.8166 16.7227 17.0527V19.1925H14.5798C14.3434 19.1925 14.1517 19.3839 14.1517 19.62V23.0339C14.1517 23.27 14.3434 23.4614 14.5798 23.4614H16.7227V25.6012C16.7227 25.8373 16.9143 26.0286 17.1507 26.0286H20.5696C20.806 26.0286 20.9976 25.8373 20.9976 25.6012V23.4614H23.1405C23.377 23.4614 23.5686 23.27 23.5686 23.0339V19.62C23.5686 19.3839 23.3769 19.1925 23.1405 19.1925ZM22.7125 22.6065H20.5696C20.3332 22.6065 20.1416 22.7979 20.1416 23.0339V25.1738H17.5788V23.0339C17.5788 22.7979 17.3871 22.6065 17.1507 22.6065H15.0078V20.0474H17.1507C17.3871 20.0474 17.5787 19.856 17.5787 19.62V17.4801H20.1415V19.62C20.1415 19.856 20.3332 20.0474 20.5696 20.0474H22.7125V22.6065Z" fill="black" style="fill:black;fill-opacity:1;"/>
<mask id="mask0_832_952" style="mask-type:alpha" maskUnits="userSpaceOnUse" x="7" y="7" width="23" height="23">
<path d="M27.6246 9.58693H26.2438V7.98626C26.2438 7.7502 26.0522 7.55884 25.8158 7.55884H23.5472C23.3108 7.55884 23.1191 7.7502 23.1191 7.98626V9.58693H20.4225V7.98626C20.4225 7.7502 20.2309 7.55884 19.9945 7.55884H17.7259C17.4894 7.55884 17.2978 7.7502 17.2978 7.98626V9.58693H14.6012V7.98626C14.6012 7.7502 14.4095 7.55884 14.1731 7.55884H11.9045C11.6681 7.55884 11.4765 7.7502 11.4765 7.98626V9.58693H10.0957C8.88628 9.58693 7.90234 10.5695 7.90234 11.7771V26.9709C7.90234 28.1786 8.88628 29.1611 10.0957 29.1611H27.6246C28.8341 29.1611 29.818 28.1786 29.818 26.9709V11.7771C29.818 10.5695 28.834 9.58693 27.6246 9.58693ZM23.9752 8.41369H25.3878V11.5766H23.9752V8.41369ZM18.1539 8.41369H19.5664V11.5766H18.1539V8.41369ZM12.3326 8.41369H13.7451V11.5766H12.3326V8.41369ZM10.0957 10.4418H11.4765V12.0041C11.4765 12.2401 11.6681 12.4315 11.9045 12.4315H14.1731C14.4095 12.4315 14.6012 12.2401 14.6012 12.0041V10.4418H17.2978V12.0041C17.2978 12.2401 17.4894 12.4315 17.7259 12.4315H19.9945C20.2309 12.4315 20.4225 12.2401 20.4225 12.0041V10.4418H23.1191V12.0041C23.1191 12.2401 23.3108 12.4315 23.5472 12.4315H25.8158C26.0522 12.4315 26.2438 12.2401 26.2438 12.0041V10.4418H27.6246C28.362 10.4418 28.9619 11.0408 28.9619 11.7771V13.4927H8.75842V11.7771C8.75842 11.0408 9.35832 10.4418 10.0957 10.4418ZM27.6246 28.3063H10.0957C9.35832 28.3063 8.75842 27.7072 8.75842 26.9709V14.3476H28.9619V26.9709C28.9619 27.7072 28.362 28.3063 27.6246 28.3063ZM23.1405 19.1925H20.9977V17.0527C20.9977 16.8166 20.806 16.6253 20.5696 16.6253H17.1507C16.9143 16.6253 16.7227 16.8166 16.7227 17.0527V19.1925H14.5798C14.3434 19.1925 14.1517 19.3839 14.1517 19.62V23.0339C14.1517 23.27 14.3434 23.4614 14.5798 23.4614H16.7227V25.6012C16.7227 25.8373 16.9143 26.0286 17.1507 26.0286H20.5696C20.806 26.0286 20.9976 25.8373 20.9976 25.6012V23.4614H23.1405C23.377 23.4614 23.5686 23.27 23.5686 23.0339V19.62C23.5686 19.3839 23.3769 19.1925 23.1405 19.1925ZM22.7125 22.6065H20.5696C20.3332 22.6065 20.1416 22.7979 20.1416 23.0339V25.1738H17.5788V23.0339C17.5788 22.7979 17.3871 22.6065 17.1507 22.6065H15.0078V20.0474H17.1507C17.3871 20.0474 17.5787 19.856 17.5787 19.62V17.4801H20.1415V19.62C20.1415 19.856 20.3332 20.0474 20.5696 20.0474H22.7125V22.6065Z" fill="black" style="fill:black;fill-opacity:1;"/>
</mask>
<g mask="url(#mask0_832_952)">
<rect x="13.5117" y="16.5059" width="11.185" height="10.6094" fill="#DC2626" style="fill:#DC2626;fill:color(display-p3 0.8627 0.1490 0.1490);fill-opacity:1;"/>
</g>
</svg>
