<svg width="35" height="36" viewBox="0 0 35 36" fill="none" xmlns="http://www.w3.org/2000/svg">
<mask id="mask0_1072_365" style="mask-type:alpha" maskUnits="userSpaceOnUse" x="0" y="0" width="35" height="36">
<rect y="0.919922" width="34.98" height="34.98" fill="#D9D9D9" style="fill:#D9D9D9;fill:color(display-p3 0.8510 0.8510 0.8510);fill-opacity:1;"/>
</mask>
<g mask="url(#mask0_1072_365)">
<rect x="14.9121" y="0.919922" width="25" height="25" rx="4.94859" transform="rotate(36.6196 14.9121 0.919922)" fill="#FFE0E0" style="fill:#FFE0E0;fill:color(display-p3 1.0000 0.8771 0.8771);fill-opacity:1;"/>
<path d="M25.9126 8.24648H22.9844V7.23493C22.9844 7.0619 22.8424 6.91992 22.6694 6.91992C22.4964 6.91992 22.35 7.0619 22.35 7.23493V8.24648H18.5832V7.23493C18.5832 7.0619 18.4413 6.91992 18.2682 6.91992C18.0952 6.91992 17.9488 7.0619 17.9488 7.23493V8.24648H14.1821V7.23493C14.1821 7.0619 14.0401 6.91992 13.8626 6.91992C13.6851 6.91992 13.5432 7.0619 13.5432 7.23493V8.24648H9.77201V7.23493C9.78088 7.0619 9.63891 6.91992 9.46588 6.91992C9.28841 6.91992 9.15087 7.0619 9.15087 7.23493V8.24648H7.72671C6.72402 8.24648 5.91211 9.05839 5.91211 10.0611V26.9293C5.91211 27.9275 6.72402 28.7439 7.72671 28.7439H22.7448C22.9178 28.7439 23.0643 28.6019 23.0643 28.4289C23.0643 28.3446 23.0332 28.2647 22.9755 28.207C22.9134 28.1449 22.8335 28.1094 22.7448 28.1094H7.72671C7.07895 28.1094 6.55099 27.5815 6.55099 26.9337V13.8189H27.0927V24.7243C27.0927 24.8973 27.2347 25.0393 27.4122 25.0393C27.5852 25.0393 27.7272 24.8973 27.7272 24.7243V10.0611C27.7272 9.05839 26.9153 8.24648 25.9126 8.24648ZM22.665 11.3078C22.8158 11.3078 22.94 11.1836 22.94 11.0327V10.4426C23.1619 10.5447 23.3216 10.7709 23.3216 11.0283C23.3216 11.3876 23.0288 11.6805 22.6694 11.6805C22.31 11.6805 22.0172 11.3876 22.0172 11.0283C22.0172 10.7709 22.1725 10.5447 22.3988 10.4426V11.0327C22.3943 11.1836 22.5185 11.3078 22.665 11.3078ZM18.2682 11.3078C18.4191 11.3078 18.5433 11.1836 18.5433 11.0327V10.4426C18.7651 10.5447 18.9248 10.7709 18.9248 11.0283C18.9248 11.3876 18.632 11.6805 18.2727 11.6805C17.9133 11.6805 17.6205 11.3876 17.6205 11.0283C17.6205 10.7665 17.7758 10.5447 18.002 10.4426V11.0327C17.9931 11.1836 18.1174 11.3078 18.2682 11.3078ZM13.592 10.4426V11.0327C13.592 11.1836 13.7118 11.3078 13.8626 11.3078C14.0135 11.3078 14.1332 11.1836 14.1332 11.0327V10.4426C14.3551 10.5447 14.5148 10.7709 14.5148 11.0283C14.5148 11.3876 14.222 11.6805 13.8626 11.6805C13.5032 11.6805 13.2104 11.3876 13.2104 11.0283C13.2149 10.7709 13.3701 10.5447 13.592 10.4426ZM9.1908 10.4426V11.0327C9.1908 11.1836 9.31059 11.3078 9.46144 11.3078C9.61229 11.3078 9.73208 11.1836 9.73208 11.0327V10.4426C9.95391 10.5447 10.1136 10.7709 10.1136 11.0283C10.1136 11.3876 9.82081 11.6805 9.46144 11.6805C9.10207 11.6805 8.80925 11.3876 8.80925 11.0283C8.81369 10.7709 8.96897 10.5447 9.1908 10.4426ZM27.1061 13.1801H6.55099V10.0611C6.55099 9.41333 7.07895 8.88536 7.72671 8.88536H9.15087V9.83481C8.60516 9.98122 8.22361 10.4648 8.22361 11.0327C8.22361 11.7204 8.78263 12.2794 9.47031 12.2794C10.158 12.2794 10.717 11.7204 10.717 11.0327C10.717 10.4737 10.331 9.97678 9.78975 9.83481V8.88536H13.552V9.83481C13.0063 9.98122 12.6292 10.4648 12.6292 11.0327C12.6292 11.7204 13.1882 12.2794 13.8759 12.2794C14.5636 12.2794 15.1226 11.7204 15.1226 11.0327C15.1226 10.4737 14.7366 9.97678 14.1998 9.83481V8.88536H17.9621V9.83481C17.4164 9.98122 17.0393 10.4648 17.0393 11.0327C17.0393 11.7204 17.5983 12.2794 18.286 12.2794C18.9736 12.2794 19.5327 11.7204 19.5327 11.0327C19.5327 10.4737 19.1467 9.97678 18.6054 9.83481V8.88536H22.3677V9.83481C21.822 9.98122 21.4404 10.4648 21.4404 11.0327C21.4404 11.7204 21.9995 12.2794 22.6871 12.2794C23.3748 12.2794 23.9338 11.7204 23.9338 11.0327C23.9338 10.4737 23.5479 9.97678 23.0066 9.83481V8.88536H25.9348C26.5825 8.88536 27.1105 9.41333 27.1105 10.0611V13.1801H27.1061Z" fill="black" style="fill:black;fill-opacity:1;"/>
<path d="M28.2102 27.08C27.7621 26.6319 26.3734 25.6469 25.1045 25.0302C26.4089 22.7986 26.0496 19.9813 24.2261 18.1578C23.1568 17.0886 21.7327 16.4985 20.2198 16.4985C18.7202 16.4985 17.3138 17.0753 16.249 18.1224C16.2357 18.1357 16.2268 18.1445 16.2135 18.1578C16.1292 18.2466 16.0449 18.3353 15.965 18.424C15.0555 19.4578 14.5586 20.7755 14.5586 22.1686C14.5586 23.6859 15.1487 25.1101 16.2179 26.1793C17.2871 27.2486 18.7069 27.8387 20.2242 27.8387C21.2269 27.8387 22.2163 27.568 23.0859 27.0578C23.6937 28.3267 24.6831 29.7154 25.1312 30.1635C25.5438 30.5761 26.0939 30.8023 26.6751 30.8023C27.2608 30.8023 27.8065 30.5761 28.2191 30.1635C28.6317 29.7509 28.858 29.2051 28.858 28.6195C28.8491 28.0383 28.6228 27.4926 28.2102 27.08ZM20.2109 27.2086C18.871 27.2086 17.6066 26.6851 16.6527 25.7312C15.6988 24.7774 15.1753 23.5173 15.1753 22.173C15.1753 20.8287 15.6988 19.5643 16.6527 18.6148C17.6021 17.6654 18.8666 17.1419 20.2109 17.1419C21.5552 17.1419 22.8197 17.6654 23.7691 18.6148C24.723 19.5687 25.2465 20.8287 25.2465 22.173C25.2465 23.5218 24.723 24.7818 23.7691 25.7312C22.8197 26.6851 21.5552 27.2086 20.2109 27.2086ZM27.7887 29.7509C27.4782 30.0614 27.07 30.2167 26.6663 30.2167C26.2625 30.2167 25.8499 30.0614 25.5438 29.7509C25.1489 29.356 24.1418 27.9407 23.5606 26.694C23.7824 26.5298 23.9998 26.3524 24.1995 26.1527C24.4036 25.9486 24.5766 25.7357 24.7407 25.5138C25.9874 26.0906 27.4072 27.1066 27.7976 27.5015C28.0993 27.8032 28.2635 28.2025 28.2635 28.6239C28.2546 29.0499 28.0904 29.4492 27.7887 29.7509Z" fill="#DC2626" style="fill:#DC2626;fill:color(display-p3 0.8627 0.1490 0.1490);fill-opacity:1;"/>
<path d="M22.9179 19.4711C22.1948 18.7479 21.2364 18.353 20.216 18.353C19.2 18.353 18.2373 18.7479 17.5141 19.4711C16.7909 20.1942 16.3916 21.157 16.3916 22.173C16.3916 23.189 16.7909 24.1517 17.5141 24.8749C18.2373 25.5981 19.2 25.9974 20.216 25.9974C21.2364 25.9974 22.1948 25.5981 22.9179 24.8749C23.6411 24.1517 24.036 23.1934 24.036 22.173C24.036 21.1526 23.6367 20.1898 22.9179 19.4711ZM22.4654 24.4313C21.8664 25.0346 21.0678 25.3674 20.2116 25.3674C19.3597 25.3674 18.5611 25.0346 17.9577 24.4313C17.3544 23.8279 17.0216 23.0293 17.0216 22.1774C17.0216 21.3256 17.3544 20.527 17.9577 19.9236C18.5611 19.3202 19.3597 18.9875 20.2116 18.9875C21.0634 18.9875 21.862 19.3202 22.4654 19.9236C23.0688 20.527 23.3971 21.3256 23.3971 22.1774C23.4015 23.0293 23.0688 23.8279 22.4654 24.4313Z" fill="#DC2626" style="fill:#DC2626;fill:color(display-p3 0.8627 0.1490 0.1490);fill-opacity:1;"/>
<path d="M10.7304 14.9858H8.32128C7.92642 14.9858 7.60254 15.3097 7.60254 15.7046V17.5857C7.60254 17.9806 7.92642 18.3045 8.32128 18.3045H10.7304C11.1253 18.3045 11.4491 17.9806 11.4491 17.5857V15.7046C11.4491 15.3097 11.1253 14.9858 10.7304 14.9858ZM10.8102 17.5857C10.8102 17.6301 10.7748 17.6656 10.7304 17.6656H8.32128C8.27691 17.6656 8.24142 17.6301 8.24142 17.5857V15.7046C8.24142 15.6602 8.27691 15.6247 8.32128 15.6247H10.7304C10.7748 15.6247 10.8102 15.6602 10.8102 15.7046V17.5857Z" fill="black" style="fill:black;fill-opacity:1;"/>
<path d="M15.5883 14.9858H13.1836C12.7887 14.9858 12.4648 15.3097 12.4648 15.7046V17.5857C12.4648 17.9806 12.7887 18.3045 13.1836 18.3045H15.5971C15.6859 18.3045 15.7702 18.2867 15.85 18.2601C15.8855 18.2468 15.9166 18.229 15.9476 18.2113C16.0719 18.1403 16.1695 18.0383 16.2316 17.9096C16.2493 17.8741 16.2626 17.8431 16.2759 17.8076C16.2981 17.7366 16.3114 17.6656 16.3114 17.5857V15.7046C16.3114 15.3053 15.9876 14.9858 15.5883 14.9858ZM15.6726 17.5857C15.6726 17.6301 15.6371 17.6656 15.5927 17.6656H13.188H13.1836C13.1437 17.6656 13.1082 17.6301 13.1082 17.5857V15.7046C13.1082 15.6602 13.1437 15.6247 13.188 15.6247H15.5927C15.6371 15.6247 15.6726 15.6602 15.6726 15.7046V17.5857Z" fill="black" style="fill:black;fill-opacity:1;"/>
<path d="M21.1259 15.7087V15.8241C21.1259 15.9971 20.984 16.1435 20.8109 16.1435C20.6379 16.1435 20.4959 16.006 20.4871 15.8285V15.7131C20.4871 15.691 20.4693 15.6776 20.4516 15.6776H18.0469C18.0247 15.6776 18.0114 15.6954 18.0114 15.7131V16.1967C18.0114 16.3698 17.8694 16.5162 17.692 16.5162C17.5145 16.5162 17.377 16.3742 17.377 16.1967V15.7131C17.377 15.3405 17.6786 15.0388 18.0513 15.0388H20.4604C20.8242 15.0299 21.1259 15.336 21.1259 15.7087Z" fill="black" style="fill:black;fill-opacity:1;"/>
<path d="M25.9922 15.7042V17.5853C25.9922 17.958 25.6905 18.2597 25.3179 18.2597H25.0029C24.8298 18.2597 24.6834 18.1177 24.6834 17.9402C24.6834 17.7628 24.8254 17.6252 25.0029 17.6252H25.3179C25.3267 17.6252 25.3356 17.6208 25.3445 17.6164C25.3489 17.6119 25.3534 17.6031 25.3534 17.5897V15.7042C25.3534 15.6864 25.3356 15.6687 25.3179 15.6687H22.9043C22.8866 15.6687 22.8688 15.6864 22.8688 15.7042V16.0857C22.8688 16.2587 22.7268 16.4007 22.5494 16.4007C22.3719 16.4007 22.2344 16.2587 22.2344 16.0857V15.7042C22.2344 15.3315 22.5361 15.0298 22.9087 15.0298H25.3134C25.6905 15.0298 25.9922 15.3315 25.9922 15.7042Z" fill="black" style="fill:black;fill-opacity:1;"/>
<path d="M10.7304 19.1562H8.32128C7.92642 19.1562 7.60254 19.4801 7.60254 19.875V21.7561C7.60254 22.151 7.92642 22.4749 8.32128 22.4749H10.7304C11.1253 22.4749 11.4491 22.151 11.4491 21.7561V19.875C11.4491 19.4801 11.1253 19.1562 10.7304 19.1562ZM10.8102 21.7561C10.8102 21.8005 10.7748 21.836 10.7304 21.836H8.32128C8.27691 21.836 8.24142 21.8005 8.24142 21.7561V19.8706C8.24142 19.8262 8.27691 19.7907 8.32128 19.7907H10.7304C10.7748 19.7907 10.8102 19.8262 10.8102 19.8706V21.7561Z" fill="black" style="fill:black;fill-opacity:1;"/>
<path d="M14.4928 19.5245C14.4928 19.7241 14.3331 19.8883 14.1335 19.8883H13.1973V21.7561H13.6543C13.854 21.7561 14.0137 21.9203 14.0137 22.1199C14.0137 22.3196 13.8495 22.4793 13.6543 22.4793H13.1885C12.7936 22.4793 12.4697 22.1554 12.4697 21.7606V19.875C12.4697 19.4801 12.7936 19.1562 13.1885 19.1562H14.1335C14.3331 19.1562 14.4928 19.316 14.4928 19.5245Z" fill="black" style="fill:black;fill-opacity:1;"/>
<path d="M10.7304 23.3218H8.32128C7.92642 23.3218 7.60254 23.6457 7.60254 24.0405V25.9261C7.60254 26.321 7.92642 26.6448 8.32128 26.6448H10.7304C11.1253 26.6448 11.4491 26.321 11.4491 25.9261V24.0405C11.4491 23.6412 11.1253 23.3218 10.7304 23.3218ZM10.8102 25.9217C10.8102 25.966 10.7748 26.0015 10.7304 26.0015H8.32128C8.27691 26.0015 8.24142 25.966 8.24142 25.9217V24.0361C8.24142 23.9917 8.27691 23.9562 8.32128 23.9562H10.7304C10.7748 23.9562 10.8102 23.9917 10.8102 24.0361V25.9217Z" fill="black" style="fill:black;fill-opacity:1;"/>
<path d="M15.4641 26.2855C15.4641 26.4585 15.3221 26.6005 15.1446 26.6005H13.188C12.8154 26.6005 12.5137 26.2988 12.5137 25.9261V24.045C12.5137 23.6723 12.8154 23.3706 13.188 23.3706H13.9778C14.1508 23.3706 14.2928 23.5126 14.2928 23.6856C14.2928 23.8586 14.1508 24.005 13.9778 24.005H13.188C13.1747 24.005 13.1659 24.0095 13.1614 24.0184C13.1526 24.0272 13.1526 24.0361 13.1526 24.0494V25.935C13.1526 25.9527 13.1703 25.9705 13.188 25.9705H15.1446C15.3176 25.9661 15.4641 26.108 15.4641 26.2855Z" fill="black" style="fill:black;fill-opacity:1;"/>
<path d="M22.2126 20.7799C22.0751 20.5803 21.8754 20.4516 21.6447 20.4205C21.5959 20.4117 21.5471 20.4072 21.4983 20.4072C21.3164 20.4072 21.1389 20.4649 20.9881 20.5758L19.4707 21.6939L19.4308 21.6451C19.2888 21.4543 19.0847 21.3345 18.854 21.3034C18.8097 21.2946 18.7697 21.2946 18.7254 21.2946C18.539 21.2946 18.3571 21.3567 18.2063 21.472C18.0155 21.614 17.8957 21.8181 17.8647 22.0488C17.8292 22.2795 17.8868 22.5102 18.0333 22.701L18.5923 23.4286C18.7609 23.6504 19.0226 23.7835 19.2933 23.7835H19.3332C19.5062 23.7747 19.6704 23.717 19.8079 23.6194L22.0174 22.0044C22.2082 21.8713 22.3324 21.6672 22.3723 21.4365C22.4034 21.2014 22.3501 20.9707 22.2126 20.7799ZM21.7867 21.3212C21.7689 21.401 21.729 21.4676 21.6669 21.512L19.4574 23.1269C19.4131 23.1624 19.3598 23.1801 19.3066 23.1801C19.209 23.1801 19.1202 23.1402 19.0626 23.0604L18.5035 22.3327C18.4592 22.2751 18.4414 22.1952 18.4503 22.1242C18.4636 22.0488 18.5035 21.9867 18.5612 21.9379C18.61 21.9024 18.6677 21.8802 18.7298 21.8802C18.7431 21.8802 18.7564 21.8802 18.7697 21.8846C18.8452 21.8979 18.9117 21.9379 18.965 22.0044L19.2001 22.2972C19.2533 22.3638 19.3332 22.3993 19.4131 22.3993C19.4707 22.3993 19.5284 22.3815 19.5772 22.346L21.343 21.0505C21.3918 21.015 21.4451 20.9973 21.5027 20.9973C21.5205 20.9973 21.5382 20.9973 21.5515 21.0017C21.627 21.015 21.6935 21.055 21.7379 21.1171C21.7822 21.1748 21.8 21.2458 21.7867 21.3212Z" fill="#DC2626" style="fill:#DC2626;fill:color(display-p3 0.8627 0.1490 0.1490);fill-opacity:1;"/>
</g>
</svg>
