<svg width="35" height="36" viewBox="0 0 35 36" fill="none" xmlns="http://www.w3.org/2000/svg">
<mask id="mask0_1070_312" style="mask-type:alpha" maskUnits="userSpaceOnUse" x="0" y="0" width="35" height="36">
<rect y="0.959961" width="34.98" height="34.98" fill="#D9D9D9" style="fill:#D9D9D9;fill:color(display-p3 0.8510 0.8510 0.8510);fill-opacity:1;"/>
</mask>
<g mask="url(#mask0_1070_312)">
<rect x="14.9121" y="0.959961" width="25" height="25" rx="4.94859" transform="rotate(36.6196 14.9121 0.959961)" fill="#FFE0E0" style="fill:#FFE0E0;fill:color(display-p3 1.0000 0.8771 0.8771);fill-opacity:1;"/>
<path d="M28.4405 19.97L25.0285 18.5496V17.529C25.9805 16.9845 26.6469 16.0553 26.864 14.9815H26.9401C27.5723 14.9891 28.094 14.4826 28.1016 13.8505C28.1092 13.2183 27.6027 12.6966 26.9706 12.689L27.3438 11.8208C28.014 10.2747 27.321 8.48112 25.7901 7.78425L24.7239 7.30063C23.4367 6.72942 21.944 6.88936 20.813 7.72332L20.2189 8.17267C19.6135 8.3288 19.088 8.71722 18.7643 9.25415C18.4025 9.85583 18.3263 10.587 18.5548 11.2496C18.7947 11.3372 19.3736 11.5238 19.5525 11.5847L19.3621 11.2039C18.9623 10.4042 19.286 9.43313 20.0857 9.03329C20.2075 8.97236 20.3332 8.92666 20.4665 8.90001C20.5198 8.88858 20.5731 8.86573 20.615 8.83146L21.2738 8.33261C22.1839 7.6662 23.3796 7.53673 24.4078 7.99369L25.474 8.47731C26.6241 9.00282 27.1458 10.3509 26.6431 11.5123L26.2052 12.5291C26.1823 12.5786 26.1747 12.6281 26.1747 12.6814L26.1785 13.0622C26.1785 13.2755 26.3499 13.443 26.5593 13.443H26.9401C27.1496 13.443 27.321 13.6144 27.321 13.8238C27.321 14.0371 27.1496 14.2046 26.9401 14.2046H26.5365C26.3423 14.2046 26.1785 14.3493 26.1557 14.5435C26.0414 15.5793 25.4093 16.4856 24.4725 16.9426C24.3431 17.0073 24.2593 17.1406 24.2593 17.2853V18.8047C24.2593 18.9609 24.3507 19.098 24.4954 19.1589L28.1435 20.6783C28.57 20.8573 28.848 21.2724 28.848 21.7369V26.4513H26.5555L26.5593 27.2167H29.2288C29.4382 27.2167 29.6096 27.0454 29.6096 26.8359V21.7369C29.6172 20.9639 29.1526 20.267 28.4405 19.97ZM15.0857 7.78425L14.0194 7.29682C12.7323 6.72561 11.2396 6.88936 10.1086 7.72332L9.51071 8.17267C8.23502 8.50016 7.46579 9.7949 7.79328 11.0706C7.83517 11.2343 7.8961 11.3943 7.97226 11.5466L8.54347 12.689C7.91133 12.7004 7.40867 13.2259 7.4201 13.8581C7.43152 14.4902 7.95703 14.9929 8.58917 14.9815H8.66533C8.88239 16.0553 9.5526 16.9807 10.5008 17.529V18.5496L7.0888 19.97C6.37669 20.267 5.91211 20.9639 5.91211 21.7369V26.8359C5.91211 27.0492 6.08347 27.2167 6.29291 27.2167H8.95855L8.97378 26.5693L8.96236 26.4513H6.67753V21.7369C6.67753 21.2724 6.95551 20.8573 7.38202 20.6783L11.0301 19.1589C11.1748 19.098 11.2662 18.9609 11.2662 18.8047V17.3006C11.2624 17.152 11.1786 17.0188 11.0454 16.954C10.1162 16.4933 9.48787 15.5907 9.37362 14.5588C9.35078 14.3646 9.18703 14.2198 8.99282 14.2198H8.58917C8.37972 14.2198 8.20836 14.0485 8.20836 13.839C8.20836 13.6296 8.37972 13.4582 8.58917 13.4582H8.96997C9.17941 13.4582 9.35078 13.2869 9.35078 13.0774V13.0736L9.34697 12.6928C9.34697 12.6357 9.33174 12.5786 9.30508 12.5253L8.6539 11.2039C8.25406 10.4042 8.58155 9.43313 9.37743 9.0371C9.49929 8.97617 9.62496 8.93047 9.75824 8.90381C9.81155 8.89239 9.86486 8.86954 9.90675 8.83527L10.5655 8.33642C11.4757 7.67001 12.6714 7.54053 13.6996 7.9975L14.7696 8.48112C15.9197 9.00663 16.4414 10.3547 15.9387 11.5161L15.8892 11.6304C16.0529 11.5542 16.1291 11.4857 16.4452 11.4019C16.6203 11.3562 16.7574 11.3105 16.8602 11.2762C16.845 11.28 16.826 11.2838 16.8107 11.2877C17.1458 9.85963 16.4223 8.39354 15.0857 7.78425Z" fill="#DC2626" style="fill:#DC2626;fill:color(display-p3 0.8627 0.1490 0.1490);fill-opacity:1;"/>
<path d="M14.6432 24.646V25.2172H20.4886V24.646H14.6432ZM25.1725 30.0344H24.8869V25.7808C24.8869 24.665 24.2281 23.6559 23.2075 23.2028L21.7033 22.5592C22.0689 22.445 22.4002 22.2355 22.6706 21.9499C23.078 21.5196 23.3103 20.9332 23.3103 20.3429C23.3103 19.8022 23.1199 19.2919 22.762 18.8654C22.3126 18.3323 22.0689 17.6582 22.0689 16.9614V15.5943C22.0689 14.3947 21.6005 13.2676 20.7551 12.4222C19.9059 11.573 18.7826 11.1084 17.583 11.1084C15.1078 11.1084 13.0971 13.1229 13.0971 15.5943V16.9195C13.0971 17.6392 12.8154 18.3246 12.3546 18.8806C11.7758 19.5775 11.6577 20.5181 12.0423 21.3368C12.3279 21.9461 12.842 22.3802 13.4589 22.5668L11.9624 23.218C10.9151 23.6597 10.2373 24.6803 10.2373 25.8189V29.1814C10.2373 29.3375 10.3668 29.467 10.5229 29.467C10.679 29.467 10.8085 29.3375 10.8085 29.1814V25.8189C10.8085 24.9126 11.3493 24.0976 12.187 23.7435L14.0606 22.9286V24.646H14.0454V25.2172H21.0674V24.646H21.0636V22.9057L22.979 23.7283C23.7901 24.09 24.3157 24.8973 24.3157 25.7846V30.0382H22.5906V30.0306L22.5754 30.0382H10.5534C10.3934 30.0382 10.2678 30.1677 10.2678 30.3238C10.2678 30.4799 10.3934 30.6094 10.5534 30.6094H25.1725C25.3286 30.6094 25.4581 30.4799 25.4581 30.3238C25.4581 30.1677 25.3286 30.0344 25.1725 30.0344ZM21.4939 15.6438C20.7056 15.7504 19.8184 15.5372 19.2091 15.065C19.0834 14.9698 18.9044 14.9926 18.8092 15.1145C18.714 15.2401 18.7369 15.4191 18.8587 15.5143C19.2586 15.8228 19.7384 16.0398 20.2601 16.1503V17.7039C20.2563 17.7077 20.2563 17.7154 20.2525 17.7192C20.2601 18.0048 20.2639 18.5912 20.222 18.7854C20.0278 19.825 19.1177 20.6133 18.021 20.6133H17.0918C15.858 20.6133 14.8527 19.608 14.8527 18.3742V16.1655C15.8237 16.0132 16.7376 15.6857 17.5792 15.1868C18.8587 14.429 19.6813 13.4389 20.1763 12.6583C21.0255 13.4237 21.5091 14.5052 21.4939 15.6438ZM20.4924 23.3018C19.567 23.5759 18.6112 23.7245 17.6478 23.7435C16.6272 23.7625 15.6105 23.6331 14.628 23.3589V22.6772L14.7118 22.643L15.222 22.4221C15.7894 22.1746 16.1893 21.6719 16.3111 21.0817C16.5587 21.154 16.8214 21.1921 17.0956 21.1921H18.0248C18.2989 21.1921 18.5617 21.154 18.8092 21.0779C18.9349 21.6643 19.3385 22.167 19.9059 22.4107L20.4505 22.643L20.4924 22.662V23.3018ZM13.6607 15.5943C13.6607 13.4351 15.4162 11.6796 17.5754 11.6796C18.3484 11.6796 19.091 11.9043 19.7232 12.3194C19.2662 13.0505 18.5008 13.9911 17.2898 14.7032C16.4597 15.1944 15.5495 15.5067 14.5861 15.6324H14.5671H13.6569V15.5943H13.6607ZM14.1253 22.0946C13.4437 22.0946 12.842 21.71 12.5526 21.0931C12.2632 20.4762 12.3546 19.7679 12.7887 19.2424C13.3332 18.5836 13.6645 17.7725 13.6607 16.9195V16.2074H14.2853V18.3818C14.2853 19.4518 14.8869 20.3848 15.7666 20.857C15.7133 21.314 15.4201 21.71 14.9936 21.8966L14.5404 22.0946H14.1253ZM14.628 24.646V23.9491C15.5533 24.1929 16.5054 24.3147 17.4612 24.3147C17.5259 24.3147 17.5906 24.3147 17.6554 24.3147C18.615 24.2995 19.567 24.1586 20.4886 23.8958V24.646H14.628ZM20.9912 22.0946H20.618L20.1306 21.8852C19.7041 21.7024 19.4109 21.3102 19.35 20.857C20.2296 20.381 20.8313 19.4518 20.8313 18.3818V16.234C20.9151 16.2378 20.9988 16.2416 21.0826 16.2416C21.2197 16.2416 21.3568 16.234 21.4939 16.2188V16.9614C21.4939 17.7915 21.7871 18.5988 22.324 19.231C22.5944 19.5508 22.7353 19.9355 22.7353 20.3391C22.7353 20.7846 22.5601 21.2264 22.2517 21.5539C21.9242 21.9042 21.4787 22.0946 20.9912 22.0946Z" fill="black" style="fill:black;fill-opacity:1;"/>
<path d="M14.6446 24.6348V30.1602H14.043V24.6157L14.0582 24.6195L14.3971 24.7033L14.6294 24.6424L14.6446 24.6348Z" fill="black" style="fill:black;fill-opacity:1;"/>
<path d="M21.13 30.2482H20.4902V24.6504H20.494C20.494 24.6504 20.6578 24.6618 20.6616 24.6618C20.6654 24.6618 21.0196 24.5856 21.0576 24.5742C21.0614 24.5742 21.0614 24.5742 21.0614 24.5742V24.6504V25.2216L21.0691 30.0388V30.1949L21.13 30.2482Z" fill="black" style="fill:black;fill-opacity:1;"/>
</g>
</svg>
