<svg width="46" height="45" viewBox="0 0 46 45" fill="none" xmlns="http://www.w3.org/2000/svg">
<mask id="mask0_420_1285" style="mask-type:alpha" maskUnits="userSpaceOnUse" x="0" y="0" width="46" height="45">
<rect x="0.652344" y="0.0908203" width="44.7178" height="44.7178" fill="#D9D9D9" style="fill:#D9D9D9;fill:color(display-p3 0.8510 0.8510 0.8510);fill-opacity:1;"/>
</mask>
<g mask="url(#mask0_420_1285)">
<path d="M30.5527 13.3997C30.5527 12.5667 29.8774 11.8914 29.0444 11.8914H9.4365C8.60352 11.8914 7.9282 12.5667 7.9282 13.3997C7.9282 14.2326 8.60352 14.908 9.4365 14.908H29.0444C29.8774 14.908 30.5527 14.2326 30.5527 13.3997ZM9.4365 20.9412H36.5859C37.4189 20.9412 38.0942 21.6165 38.0942 22.4495C38.0942 23.2825 37.4189 23.9578 36.5859 23.9578H9.4365C8.60352 23.9578 7.9282 23.2825 7.9282 22.4495C7.9282 21.6165 8.60352 20.9412 9.4365 20.9412ZM9.4365 29.991H23.0112C23.8441 29.991 24.5195 30.6663 24.5195 31.4993C24.5195 32.3322 23.8441 33.0076 23.0112 33.0076H9.4365C8.60352 33.0076 7.9282 32.3322 7.9282 31.4993C7.9282 30.6663 8.60352 29.991 9.4365 29.991Z" fill="black" style="fill:black;fill-opacity:1;"/>
</g>
</svg>
