<svg width="45" height="45" viewBox="0 0 45 45" fill="none" xmlns="http://www.w3.org/2000/svg">
<mask id="mask0_263_42" style="mask-type:alpha" maskUnits="userSpaceOnUse" x="0" y="0" width="45" height="45">
<rect x="0.258789" y="0.0952148" width="44.709" height="44.709" fill="#D9D9D9" style="fill:#D9D9D9;fill:color(display-p3 0.8510 0.8510 0.8510);fill-opacity:1;"/>
</mask>
<g mask="url(#mask0_263_42)">
<path d="M34.0116 32.2076L29.6742 27.8701C33.3083 23.2982 32.6049 16.6161 28.033 12.982C23.461 9.34795 16.779 10.1685 13.1449 14.6232C9.51079 19.1952 10.3314 25.8772 14.7861 29.5113C18.6546 32.5593 24.1644 32.5593 28.033 29.5113L32.3704 33.8488C32.8393 34.3177 33.5427 34.3177 34.0116 33.8488C34.4805 33.3799 34.4805 32.6765 34.0116 32.2076ZM21.4681 29.5113C16.8962 29.5113 13.2621 25.8772 13.2621 21.3053C13.2621 16.7334 16.8962 13.0993 21.4681 13.0993C26.0401 13.0993 29.6742 16.7334 29.6742 21.3053C29.6742 25.8772 26.0401 29.5113 21.4681 29.5113Z" fill="black" style="fill:black;fill-opacity:1;"/>
</g>
</svg>
