<svg width="35" height="36" viewBox="0 0 35 36" fill="none" xmlns="http://www.w3.org/2000/svg">
<mask id="mask0_1073_459" style="mask-type:alpha" maskUnits="userSpaceOnUse" x="0" y="0" width="35" height="36">
<rect y="0.819824" width="34.98" height="34.98" fill="#D9D9D9" style="fill:#D9D9D9;fill:color(display-p3 0.8510 0.8510 0.8510);fill-opacity:1;"/>
</mask>
<g mask="url(#mask0_1073_459)">
<rect x="14.9121" y="0.819824" width="25" height="25" rx="4.94859" transform="rotate(36.6196 14.9121 0.819824)" fill="#FFE0E0" style="fill:#FFE0E0;fill:color(display-p3 1.0000 0.8771 0.8771);fill-opacity:1;"/>
<path fill-rule="evenodd" clip-rule="evenodd" d="M9.88704 6.81982C8.79631 6.81982 7.91211 7.70403 7.91211 8.79475V16.0362C7.91211 17.1269 8.79631 18.0111 9.88704 18.0111H15.1535C16.2442 18.0111 17.1284 17.1269 17.1284 16.0362V8.79475C17.1284 7.70403 16.2442 6.81982 15.1535 6.81982H9.88704ZM9.22873 8.79475C9.22873 8.43118 9.52346 8.13644 9.88704 8.13644H15.1535C15.5171 8.13644 15.8118 8.43118 15.8118 8.79475V16.0362C15.8118 16.3997 15.5171 16.6945 15.1535 16.6945H9.88704C9.52346 16.6945 9.22873 16.3997 9.22873 16.0362V8.79475Z" fill="#DC2626" style="fill:#DC2626;fill:color(display-p3 0.8627 0.1490 0.1490);fill-opacity:1;"/>
<path fill-rule="evenodd" clip-rule="evenodd" d="M20.6736 29.9112C19.6668 29.9112 18.8506 28.759 18.8506 27.3376V17.9008C18.8506 16.4794 19.6668 15.3271 20.6736 15.3271H25.535C26.5418 15.3271 27.358 16.4794 27.358 17.9008V27.3376C27.358 28.759 26.5418 29.9112 25.535 29.9112H20.6736ZM20.0659 27.3376C20.0659 27.8114 20.338 28.1955 20.6736 28.1955H25.535C25.8706 28.1955 26.1426 27.8114 26.1426 27.3376V17.9008C26.1426 17.427 25.8706 17.0429 25.535 17.0429H20.6736C20.338 17.0429 20.0659 17.427 20.0659 17.9008V27.3376Z" fill="black" style="fill:black;fill-opacity:1;"/>
<path fill-rule="evenodd" clip-rule="evenodd" d="M7.91211 21.9567C7.91211 20.3092 8.8449 18.9736 9.99555 18.9736H15.5514C16.702 18.9736 17.6348 20.3092 17.6348 21.9567V26.9286C17.6348 28.5761 16.702 29.9117 15.5514 29.9117H9.99555C8.8449 29.9117 7.91211 28.5761 7.91211 26.9286V21.9567ZM9.99555 20.4099C9.612 20.4099 9.30107 20.8551 9.30107 21.4043V27.481C9.30107 28.0302 9.612 28.4754 9.99555 28.4754H15.5514C15.935 28.4754 16.2459 28.0302 16.2459 27.481V21.4043C16.2459 20.8551 15.935 20.4099 15.5514 20.4099H9.99555Z" fill="black" style="fill:black;fill-opacity:1;"/>
<path fill-rule="evenodd" clip-rule="evenodd" d="M20.4202 14.0612C19.3295 14.0612 18.4453 13.177 18.4453 12.0863V8.79475C18.4453 7.70403 19.3295 6.81982 20.4202 6.81982H25.6867C26.7774 6.81982 27.6616 7.70403 27.6616 8.79475V12.0863C27.6616 13.177 26.7774 14.0612 25.6867 14.0612H20.4202ZM19.7619 12.0863C19.7619 12.4499 20.0567 12.7446 20.4202 12.7446H25.6867C26.0503 12.7446 26.345 12.4499 26.345 12.0863V8.79475C26.345 8.43118 26.0503 8.13644 25.6867 8.13644H20.4202C20.0567 8.13644 19.7619 8.43118 19.7619 8.79475V12.0863Z" fill="black" style="fill:black;fill-opacity:1;"/>
</g>
</svg>
