<svg width="158" height="168" viewBox="0 0 158 168" fill="none" xmlns="http://www.w3.org/2000/svg">
<path d="M157.471 167.016C157.471 157.208 155.446 147.496 151.51 138.435C147.575 129.374 141.807 121.141 134.536 114.206C127.264 107.271 118.632 101.77 109.131 98.0163C99.6309 94.2631 89.4483 92.3313 79.165 92.3313C68.8817 92.3313 58.6991 94.2631 49.1985 98.0163C39.698 101.77 31.0656 107.271 23.7942 114.206C16.5228 121.141 10.7548 129.374 6.81958 138.435C2.88433 147.496 0.858886 157.208 0.858887 167.016H157.471Z" fill="#FFDADA" style="fill:#FFDADA;fill:color(display-p3 1.0000 0.8549 0.8549);fill-opacity:1;"/>
<path d="M154.226 165.419L15.0552 165.555L15.0565 166.969L154.228 166.833L154.226 165.419Z" fill="black" style="fill:black;fill-opacity:1;"/>
<path d="M16.5749 165.541L16.4058 165.541L16.4073 167.152L16.5764 167.152L16.5749 165.541Z" fill="black" style="fill:black;fill-opacity:1;"/>
<path d="M88.7729 0.979671L88.9278 165.47L16.5737 165.541L16.5752 167.152L16.4064 167.152L16.25 1.05078L88.7729 0.979671Z" fill="black" style="fill:black;fill-opacity:1;"/>
<path d="M105.094 26.9481C105.094 26.9481 107.756 22.6291 114.746 28.2544C119.78 32.3322 121.01 32.3679 121.01 32.3679C120.466 32.9152 119.795 33.3149 119.06 33.5304C118.325 33.7459 117.548 33.7704 116.802 33.6018C116.802 33.6018 121.122 35.0487 118.918 39.1827C116.714 43.3168 113.879 42.6801 112.892 44.6241C111.904 46.5681 114.453 50.3778 109.52 51.3787C104.587 52.3796 94.1176 53.4105 92.5031 42.6765C90.9492 32.2252 101.88 21.0362 105.094 26.9481Z" fill="black" style="fill:black;fill-opacity:1;"/>
<path d="M98.906 26.5611C94.928 29.5902 91.3638 36.4064 92.2986 42.6772C92.8934 46.6487 94.7175 49.4261 97.8191 50.8988C100.764 52.3224 104.721 52.5399 109.581 51.5636C113.199 50.8345 113.016 48.6089 112.918 46.8258C112.813 46.1072 112.879 45.3734 113.109 44.6859C113.539 43.9891 114.19 43.4634 114.953 43.1961C116.735 42.4068 118.195 41.0156 119.087 39.2569C119.392 38.7714 119.595 38.2265 119.681 37.6568C119.768 37.0871 119.737 36.5052 119.591 35.9484C119.28 35.0908 118.687 34.3699 117.912 33.9087C119.118 33.8712 120.267 33.3743 121.132 32.5159C121.156 32.4795 121.168 32.4367 121.168 32.3929C121.168 32.3491 121.155 32.3063 121.131 32.27C121.114 32.2318 121.087 32.1991 121.053 32.1754C121.019 32.1516 120.979 32.1376 120.938 32.1349C120.695 32.0816 120.459 31.995 120.238 31.8773C118.323 30.7917 116.519 29.5121 114.855 28.0581C113.868 27.239 112.796 26.5348 111.656 25.9584C107.77 24.093 105.745 25.8166 105.118 26.5304C104.812 26.0032 104.364 25.5768 103.827 25.302C102.511 24.7253 100.762 25.1574 98.906 26.5611ZM99.1717 26.9298C101.583 25.0582 103.814 25.056 104.89 27.0595C104.912 27.091 104.941 27.1171 104.974 27.1362C105.008 27.1553 105.045 27.1668 105.083 27.1699C105.121 27.1721 105.158 27.1641 105.192 27.1468C105.226 27.1295 105.255 27.1035 105.276 27.0714C105.348 26.9483 107.083 24.2781 111.463 26.4013C112.578 26.9577 113.627 27.6415 114.59 28.4396C116.38 30.0582 118.383 31.4139 120.541 32.4673C120.029 32.8943 119.428 33.1955 118.784 33.3476C118.139 33.4996 117.47 33.4984 116.826 33.344C116.77 33.3323 116.712 33.3423 116.663 33.3719C116.614 33.4015 116.578 33.4486 116.561 33.5042C116.549 33.5595 116.557 33.6174 116.583 33.6672C116.61 33.7169 116.654 33.7551 116.706 33.7746L117.104 33.9463C118.025 34.3614 118.75 35.1292 119.121 36.0841C119.249 36.5822 119.274 37.1021 119.193 37.6105C119.113 38.1189 118.929 38.6045 118.653 39.036C117.793 40.6913 116.402 41.9952 114.712 42.729C113.857 43.0385 113.134 43.6385 112.663 44.4281C112.393 45.183 112.315 45.9954 112.436 46.7894C112.534 48.5724 112.632 50.4047 109.436 51.0596C104.756 52.011 100.787 51.7936 97.9634 50.4313C95.0308 49.02 93.255 46.3655 92.6844 42.5416C91.8223 36.5413 95.2902 29.8727 99.1717 26.9298Z" fill="black" style="fill:black;fill-opacity:1;"/>
<path d="M96.6708 35.6385L93.4066 40.7451C93.0552 39.9611 92.924 39.0932 93.0276 38.2377C93.1311 37.3822 93.4653 36.5728 93.9931 35.8994C94.9929 34.435 96.6708 35.6385 96.6708 35.6385Z" fill="#F6AF9A" style="fill:#F6AF9A;fill:color(display-p3 0.9647 0.6863 0.6039);fill-opacity:1;"/>
<path d="M96.8025 35.4545C96.8336 35.4689 96.861 35.4901 96.883 35.5166C96.9049 35.5432 96.9208 35.5744 96.9294 35.608C96.9381 35.6416 96.9392 35.6767 96.9329 35.7108C96.9265 35.7449 96.9128 35.7772 96.8927 35.8052C96.8726 35.8332 96.8466 35.8563 96.8166 35.8728C96.7866 35.8893 96.7534 35.8988 96.7194 35.9006C96.6854 35.9023 96.6514 35.8963 96.6199 35.883C96.5885 35.8697 96.5603 35.8495 96.5375 35.8237C96.5375 35.8237 95.0769 34.7675 94.1251 36.0351C93.619 36.6714 93.2971 37.439 93.1956 38.2516C93.094 39.0642 93.2169 39.8896 93.5504 40.6349C93.5763 40.6889 93.5807 40.751 93.5628 40.8083C93.5448 40.8656 93.506 40.9136 93.4542 40.9424C93.4253 40.961 93.3919 40.9709 93.3577 40.9709C93.3236 40.971 93.2901 40.9612 93.2612 40.9426C93.2158 40.9285 93.1772 40.8979 93.1525 40.8566C92.7849 40.0328 92.6474 39.1216 92.7551 38.2232C92.8628 37.3249 93.2116 36.4742 93.763 35.7649C93.9353 35.5307 94.1533 35.3356 94.4034 35.1918C94.6535 35.048 94.9302 34.9587 95.2159 34.9295C95.5016 34.9003 95.7901 34.9319 96.0633 35.0223C96.3364 35.1127 96.5881 35.2598 96.8025 35.4545Z" fill="black" style="fill:black;fill-opacity:1;"/>
<path d="M88.1458 52.6794C91.0409 52.6766 97.9563 56.2114 100.939 59.8486C103.922 63.4857 101.296 66.9315 97.874 71.2759C94.4522 75.6202 85.6025 80.4618 80.8829 90.083C76.1632 99.7042 70.8555 112.486 70.8555 112.486L52.7527 103.736C52.7527 103.736 68.6427 68.5253 82.7215 57.038C85.4817 54.6865 86.469 52.681 88.1458 52.6794Z" fill="#E2D6CC" style="fill:#E2D6CC;fill:color(display-p3 0.8863 0.8392 0.8000);fill-opacity:1;"/>
<path d="M82.5286 56.8043C68.5823 68.1931 52.668 103.219 52.4995 103.564C52.4874 103.591 52.4806 103.619 52.4796 103.649C52.4785 103.678 52.4832 103.707 52.4934 103.735C52.5035 103.762 52.5189 103.787 52.5386 103.809C52.5583 103.83 52.582 103.847 52.6083 103.859L70.7111 112.622C70.7661 112.639 70.8251 112.639 70.88 112.621C70.9369 112.597 70.9837 112.554 71.0126 112.498C71.0125 112.363 76.3685 99.6054 81.0279 90.0949C84.1463 83.7464 89.0519 79.5113 93.0054 76.1133C94.8037 74.6746 96.4734 73.0762 97.995 71.337C101.332 67.1034 104.2 63.4606 101.06 59.6269C98.8787 57.2422 96.2521 55.3258 93.3344 53.9899C91.7103 53.1042 89.9306 52.5543 88.0975 52.3718C86.8912 52.373 86.132 53.2346 84.9872 54.4162C84.2164 55.2628 83.3953 56.0604 82.5286 56.8043ZM82.8063 57.1607C83.699 56.3897 84.548 55.5677 85.3493 54.6987C86.458 53.554 87.1932 52.7908 88.1461 52.7899C89.911 52.976 91.6239 53.5089 93.19 54.359C96.0487 55.6696 98.6251 57.5436 100.771 59.8731C103.536 63.2522 101.404 66.304 97.6931 71.0176C96.1944 72.7391 94.5444 74.3172 92.7638 75.7323C88.7862 79.1672 83.8323 83.427 80.7141 89.8616C76.3918 98.6953 71.4931 110.333 70.7709 112.007L53.0301 103.416C54.3303 100.672 69.4869 68.0323 82.8063 57.1607Z" fill="black" style="fill:black;fill-opacity:1;"/>
<path d="M111.108 47.2456C110.746 48.0333 110.177 48.7035 109.464 49.1817C108.751 49.66 107.922 49.9276 107.069 49.9549L110.08 44.6887C110.08 44.6887 111.891 45.6338 111.108 47.2456Z" fill="#F6AF9A" style="fill:#F6AF9A;fill:color(display-p3 0.9647 0.6863 0.6039);fill-opacity:1;"/>
<path d="M107.13 49.7214C107.934 49.6887 108.713 49.4298 109.381 48.9733C110.05 48.5168 110.581 47.8806 110.916 47.1352C111.614 45.7572 110.093 44.9225 110.033 44.8857C109.981 44.857 109.942 44.809 109.924 44.7518C109.906 44.6945 109.911 44.6324 109.936 44.5783C109.966 44.5276 110.014 44.4897 110.069 44.4715C110.124 44.4534 110.184 44.4563 110.238 44.4797C110.497 44.5909 110.731 44.7547 110.926 44.9609C111.12 45.1671 111.272 45.4115 111.372 45.6794C111.471 45.9472 111.516 46.2328 111.504 46.5189C111.492 46.8051 111.424 47.0857 111.302 47.3439C110.934 48.1791 110.341 48.8908 109.592 49.3965C108.843 49.9022 107.969 50.1811 107.071 50.2011C107.03 50.1838 106.996 50.1547 106.973 50.1174C106.949 50.0802 106.937 50.0365 106.938 49.9921C106.933 49.9614 106.933 49.9299 106.94 49.8996C106.947 49.8692 106.96 49.8406 106.978 49.8153C106.996 49.7901 107.019 49.7688 107.045 49.7527C107.071 49.7365 107.1 49.7259 107.13 49.7214Z" fill="black" style="fill:black;fill-opacity:1;"/>
<path d="M92.9672 48.8375L100.415 53.6877C99.7489 54.9806 99.2553 56.3582 98.9469 57.7842C96.858 57.5796 94.8182 57.0161 92.9138 56.1176C91.8343 55.4432 91.0155 54.4105 90.5949 53.1931C91.4929 51.8047 92.2859 50.3486 92.9672 48.8375Z" fill="white" style="fill:white;fill-opacity:1;"/>
<path d="M90.4009 53.0695C90.3829 53.1013 90.3734 53.1374 90.3735 53.1741C90.3735 53.2107 90.383 53.2468 90.401 53.2786C90.8456 54.54 91.6973 55.6102 92.8165 56.3137C92.9948 56.4282 93.1803 56.5307 93.3717 56.6205C95.1669 57.341 97.0507 57.8067 98.9703 58.0047C99.0224 58.0089 99.0743 57.9937 99.1164 57.9621C99.1584 57.9304 99.1879 57.8843 99.1993 57.8323C99.5054 56.4287 99.9908 55.0722 100.643 53.7973C100.67 53.748 100.678 53.6899 100.664 53.635C100.651 53.5802 100.617 53.5326 100.57 53.5022L93.1229 48.5906C93.095 48.5755 93.0639 48.5677 93.0324 48.5677C93.0008 48.5677 92.9698 48.5756 92.9419 48.5908C92.9095 48.601 92.8797 48.6184 92.8547 48.6419C92.8297 48.6653 92.8101 48.6941 92.7973 48.7262C92.1033 50.2315 91.3023 51.6831 90.4009 53.0695ZM90.8353 53.2166C91.6661 51.9218 92.4143 50.5737 93.0752 49.1809L100.124 53.7732C99.5243 54.9836 99.0718 56.2643 98.7769 57.5867C96.973 57.381 95.204 56.9319 93.5161 56.2515C93.3422 56.1714 93.173 56.0813 93.0092 55.9814C92.0038 55.3311 91.2391 54.3585 90.8353 53.2166Z" fill="black" style="fill:black;fill-opacity:1;"/>
<path d="M98.6083 32.39C98.998 31.7824 99.5125 31.2683 100.116 30.8831C100.72 30.4979 101.398 30.2509 102.104 30.159C102.811 30.0671 103.528 30.1326 104.208 30.3509C104.887 30.5692 105.511 30.9351 106.038 31.4235C111.564 32.5002 113.282 37.4544 112.753 39.2873C111.619 42.308 110.17 45.1954 108.43 47.8997C106.912 50.004 104.998 53.9288 101.657 54.9527C99.9449 55.4955 98.121 52.8902 96.3494 54.6505C93.5855 53.1406 91.4244 51.1751 90.6012 48.1016C89.9959 45.8026 92.0316 42.7508 93.2359 40.5607C94.8821 37.7411 96.6754 35.0136 98.6083 32.39Z" fill="#F6AF9A" style="fill:#F6AF9A;fill:color(display-p3 0.9647 0.6863 0.6039);fill-opacity:1;"/>
<path d="M92.479 41.3861C91.2747 43.5024 89.7693 46.1232 90.3262 48.2009C91.0767 51.004 92.9364 53.1174 96.183 54.8973C96.22 54.9243 96.2643 54.9388 96.3097 54.9387C96.3552 54.9387 96.3995 54.9241 96.4364 54.8971C97.3644 53.9738 98.2695 54.3665 99.3194 54.8327C100.025 55.2537 100.855 55.4054 101.66 55.2609C104.422 54.4096 106.192 51.6902 107.614 49.4998C107.939 48.9953 108.252 48.5277 108.541 48.1216C110.303 45.3812 111.765 42.4518 112.9 39.3862C113.393 37.8239 112.279 33.9021 108.381 32.0122C107.644 31.6601 106.865 31.4047 106.065 31.252C105.697 30.9354 105.291 30.6672 104.857 30.4538C103.47 29.7788 100.779 29.1297 98.4055 32.2925C96.4698 34.9423 94.6725 37.6943 93.0211 40.537L92.479 41.3861ZM92.8653 41.6193C93.0459 41.3117 93.2145 41.0041 93.3711 40.7211C95.0161 37.8985 96.8012 35.1632 98.7193 32.5258C100.792 29.7692 103.084 30.0621 104.629 30.823C105.064 31.0238 105.47 31.284 105.836 31.5965L105.944 31.5964C106.725 31.7468 107.483 31.9981 108.201 32.3444C111.821 34.087 112.935 37.7629 112.49 39.1652C111.36 42.1809 109.923 45.0674 108.203 47.7776C107.902 48.1837 107.589 48.6759 107.252 49.1805C105.878 51.3093 104.156 53.9426 101.539 54.7568C100.832 54.8636 100.112 54.7165 99.4999 54.3407C98.4982 53.8989 97.3638 53.4082 96.2549 54.3438C93.2134 52.6621 91.4262 50.6593 90.7603 48.0161C90.2519 46.1842 91.6971 43.6496 92.8653 41.607L92.8653 41.6193Z" fill="black" style="fill:black;fill-opacity:1;"/>
<path d="M93.1772 40.6106C91.9729 42.8008 89.9372 45.8525 90.5425 48.1515C91.3657 51.2251 93.5268 53.1906 96.2907 54.7004C98.0623 52.9402 99.9104 55.5454 101.599 55.0027C104.65 54.0651 106.516 50.7061 107.974 48.528C107.054 48.5963 106.133 48.4103 105.307 47.9895C103.942 47.2724 102.872 46.0834 102.289 44.6353C101.618 43.4721 100.532 42.6183 99.2585 42.2525C98.1495 42.1367 97.0568 41.8944 96.0008 41.5302C95.0985 41.1102 94.3322 40.437 93.7914 39.5894C93.5385 39.9831 93.3338 40.3768 93.1772 40.6106ZM96.4366 43.1653C96.6795 43.0022 96.9751 42.9416 97.261 42.9964C97.5468 43.0512 97.8007 43.217 97.9689 43.4589C98.1622 43.7785 98.3796 44.0857 98.5971 44.3806C98.5971 44.4544 98.7058 44.5281 98.7661 44.5895C98.8869 44.7124 98.9956 44.8353 99.1163 44.9458L99.4906 45.2898L99.6958 45.4371L99.8286 45.5354L99.9371 45.5353L100.179 45.6703C100.347 45.7685 100.529 45.8544 100.71 45.9403C100.971 46.068 101.174 46.2953 101.273 46.5734C101.373 46.8514 101.362 47.1582 101.242 47.4278C101.112 47.6936 100.886 47.8974 100.611 47.9964C100.337 48.0953 100.035 48.0816 99.7705 47.958C99.0032 47.6232 98.2971 47.1582 97.6823 46.5828C97.1231 46.0239 96.6287 45.4013 96.2089 44.7273C96.0455 44.4861 95.9781 44.1905 96.0203 43.9005C96.0626 43.6105 96.2114 43.3477 96.4366 43.1653Z" fill="black" style="fill:black;fill-opacity:1;"/>
<path d="M92.4793 41.3863C91.275 43.5027 89.7696 46.1235 90.3265 48.2012C91.077 51.0043 92.9367 53.1176 96.1833 54.8976C96.2203 54.9246 96.2646 54.9391 96.31 54.939C96.3555 54.939 96.3998 54.9244 96.4367 54.8973C97.3646 53.9741 98.2697 54.3667 99.3197 54.833C100.025 55.254 100.855 55.4057 101.66 55.2611C104.422 54.4099 106.193 51.6904 107.614 49.5001L108.144 48.7003C108.165 48.6628 108.176 48.6204 108.176 48.5772C108.176 48.5341 108.165 48.4917 108.144 48.4543C108.12 48.4188 108.087 48.3901 108.049 48.3708C108.011 48.3515 107.969 48.3422 107.927 48.3438C107.047 48.3998 106.169 48.2183 105.381 47.8175C104.12 47.1654 103.124 46.0826 102.567 44.7582L102.471 44.5616C101.755 43.3678 100.627 42.4912 99.3077 42.1052C98.9123 41.9997 98.5086 41.9301 98.1012 41.8973C97.4232 41.8481 96.7583 41.6825 96.1344 41.4073C95.2647 41.0071 94.5238 40.3641 93.9975 39.5525C93.9811 39.5182 93.9553 39.4894 93.9231 39.4698C93.891 39.4502 93.8539 39.4405 93.8165 39.442C93.7778 39.4424 93.7397 39.4527 93.706 39.4721C93.6723 39.4915 93.6439 39.5193 93.6236 39.5529C93.3827 39.9467 93.1779 40.2912 93.0214 40.5742L92.4793 41.3863ZM92.8656 41.6196C93.0462 41.312 93.2148 41.0044 93.3714 40.7214C93.5279 40.4384 93.6243 40.2784 93.7929 40.0077C94.3443 40.7557 95.0706 41.351 95.9055 41.7396C96.5771 42.0425 97.2962 42.2208 98.0291 42.2663C98.4369 42.2963 98.8409 42.366 99.2356 42.4742C100.451 42.8255 101.488 43.6387 102.133 44.7464L102.242 44.9307C102.831 46.3471 103.897 47.502 105.248 48.1866C105.977 48.5555 106.776 48.7562 107.589 48.7746L107.288 49.2176C105.915 51.3464 104.192 53.9797 101.575 54.7939C100.869 54.9007 100.148 54.7536 99.5364 54.3778C98.5347 53.9361 97.4003 53.4453 96.2914 54.381C93.2499 52.6992 91.4627 50.6965 90.7968 48.0532C90.2522 46.1845 91.6974 43.6498 92.8655 41.6073L92.8656 41.6196Z" fill="black" style="fill:black;fill-opacity:1;"/>
<path d="M96.3281 42.9683C96.1905 43.0557 96.0716 43.1705 95.9784 43.3058C95.8853 43.4411 95.8199 43.5942 95.7861 43.7559C95.7424 43.9414 95.7361 44.1339 95.7673 44.322C95.7986 44.51 95.8669 44.6897 95.968 44.8502C96.4188 45.5914 96.9584 46.2724 97.5743 46.8777C98.1529 47.4196 98.8131 47.8632 99.5298 48.1916L99.7349 48.2898C100.05 48.4321 100.407 48.4463 100.732 48.3294C101.057 48.2124 101.326 47.9733 101.483 47.6609C101.551 47.504 101.587 47.3343 101.586 47.1627C101.586 46.9912 101.551 46.8216 101.483 46.6648C101.431 46.4927 101.345 46.3332 101.231 46.1959C101.117 46.0586 100.976 45.9464 100.818 45.8661C100.637 45.7903 100.459 45.7042 100.287 45.6084L100.07 45.4856L99.9856 45.4857L99.8048 45.6211L99.9253 45.4366L99.8286 45.2891L99.6355 45.1417C99.5068 45.045 99.3857 44.9382 99.2733 44.8223L99.0559 44.6135L98.9231 44.4661L98.7181 44.5646L98.8869 44.4292L98.7299 44.2203C98.5246 43.9623 98.3313 43.6673 98.1017 43.3109C97.8996 43.0409 97.6067 42.8566 97.2793 42.7933C96.9519 42.7301 96.6132 42.7924 96.3281 42.9683ZM96.5577 43.3616C96.75 43.24 96.9796 43.1953 97.2024 43.2359C97.4251 43.2766 97.6252 43.3998 97.7642 43.5818C98.0058 43.9505 98.2112 44.2577 98.4165 44.528C98.4692 44.6006 98.5257 44.6704 98.5856 44.7369L98.5857 44.8107L98.7185 44.9459L98.9359 45.1793L99.3342 45.5232L99.5395 45.6829L99.6481 45.7566L99.7205 45.7565L99.8049 45.7564L100.046 45.8915C100.225 45.9976 100.411 46.0919 100.601 46.1738L100.71 45.9769L100.614 46.1737C100.717 46.2271 100.81 46.3015 100.884 46.3923C100.959 46.4831 101.015 46.5886 101.048 46.7021C101.091 46.8053 101.112 46.9161 101.112 47.0279C101.113 47.1398 101.091 47.2505 101.049 47.3539C100.945 47.5739 100.76 47.743 100.534 47.8239C100.307 47.9048 100.059 47.891 99.843 47.7855L99.7103 47.7487C99.0427 47.4337 98.4245 47.02 97.8756 46.5207C97.2873 45.9409 96.7721 45.2887 96.3417 44.5793C96.2747 44.4706 96.2295 44.3494 96.2086 44.2228C96.1878 44.0961 96.1918 43.9666 96.2204 43.8415C96.2663 43.6424 96.3875 43.4699 96.5577 43.3616Z" fill="black" style="fill:black;fill-opacity:1;"/>
<path d="M100.855 59.4673C100.855 59.4673 107.6 62.3137 110.583 65.9509C113.566 69.588 113.75 72.8835 110.317 77.2279C106.883 81.5722 98.0451 86.4014 93.3375 96.0226C88.6299 105.644 83.2981 118.438 83.2981 118.438L65.1952 109.676C65.1952 109.676 81.4485 75.8419 95.5273 64.3546C98.2996 62.0646 100.855 59.4673 100.855 59.4673Z" fill="white" style="fill:white;fill-opacity:1;"/>
<path d="M95.346 64.1825C81.3998 75.559 65.1223 109.27 64.9055 109.577C64.8878 109.638 64.8878 109.702 64.9057 109.762C64.9289 109.817 64.9721 109.861 65.0264 109.885L83.1292 118.647C83.1873 118.671 83.2522 118.671 83.3102 118.647C83.3377 118.637 83.3628 118.62 83.3836 118.599C83.4044 118.578 83.4204 118.552 83.4307 118.524C83.4306 118.401 88.7986 105.631 93.4581 96.133C96.5644 89.7845 101.482 85.5494 105.436 82.1514C107.234 80.7088 108.904 79.1063 110.425 77.3629C113.763 73.1293 113.844 69.6613 110.68 65.803C108.506 63.1489 104.414 60.8902 102.17 59.8594C101.373 59.4667 100.866 59.2581 100.866 59.2581C100.831 59.2338 100.789 59.2209 100.746 59.2209C100.703 59.221 100.661 59.234 100.625 59.2584C100.625 59.2584 98.1184 61.9171 95.346 64.1825ZM65.4604 109.577C66.8449 106.723 82.3164 75.3859 95.5755 64.5266C97.9862 62.5198 100.397 60.2547 100.855 59.7377L102.061 60.2653C104.282 61.333 108.301 63.5057 110.415 66.0861C113.47 69.7724 113.389 72.9944 110.16 77.0803C108.658 78.8029 107.009 80.3849 105.23 81.8073C101.253 85.2299 96.2987 89.5019 93.1804 95.9242C88.8461 104.758 83.9595 116.408 83.2372 118.069L65.4604 109.577Z" fill="black" style="fill:black;fill-opacity:1;"/>
<path d="M55.8639 75.6575C57.2286 76.3957 58.3629 77.509 59.1382 78.8711C59.9135 80.2333 60.2987 81.7897 60.2501 83.3637C59.9266 85.7128 54.4769 88.6327 51.8944 87.5653C49.3119 86.498 48.3446 84.1624 49.5867 83.6693C50.3463 83.3734 52.338 84.7365 52.338 84.7365C51.3322 83.9254 50.3989 83.0251 49.5489 82.0461C49.0607 81.5501 48.7655 80.8903 48.7183 80.1893C48.671 79.4883 48.8749 78.7936 49.292 78.2341L55.8639 75.6575Z" fill="white" style="fill:white;fill-opacity:1;"/>
<path d="M49.1112 78.0984C48.6608 78.7048 48.4401 79.4565 48.4896 80.2154C48.5391 80.9744 48.8554 81.6897 49.3804 82.2301C49.8997 82.7952 50.3585 83.2621 50.7449 83.6429C50.3731 83.4487 49.9465 83.3926 49.5384 83.4842C49.3432 83.5585 49.1745 83.6909 49.0542 83.8643C48.9338 84.0377 48.8675 84.244 48.8638 84.4564C48.9833 85.1802 49.292 85.8579 49.7575 86.4179C50.2229 86.978 50.8279 87.3997 51.5086 87.6388L51.8586 87.7984C53.5119 88.4854 55.984 87.6222 57.5875 86.6737C58.2602 86.3663 58.8639 85.9215 59.3613 85.3668C59.8588 84.8122 60.2394 84.1594 60.4796 83.4489C60.5391 81.8223 60.1449 80.2119 59.3429 78.8044C58.5409 77.3969 57.3639 76.2501 55.9484 75.4969C55.9219 75.4847 55.8931 75.4785 55.864 75.4785C55.8349 75.4785 55.8061 75.4849 55.7796 75.4971L49.1955 78.0245C49.1624 78.0425 49.1336 78.0677 49.1112 78.0984ZM49.4251 78.4178L55.8644 75.952L55.9971 75.9519C57.2564 76.6996 58.2954 77.7785 59.0055 79.0759C59.7155 80.3732 60.0704 81.8413 60.0331 83.3264C59.7981 83.9738 59.4381 84.5666 58.9744 85.0698C58.5108 85.5729 57.9529 85.9762 57.3338 86.2558C55.6941 87.2166 53.3907 87.9321 51.9788 87.3432C50.241 86.6194 49.2385 85.2677 49.2739 84.4437C49.2701 84.3197 49.3055 84.1976 49.3749 84.0957C49.4443 83.9938 49.5441 83.9173 49.6594 83.8776C49.768 83.8775 50.1057 83.7788 50.9867 84.2084C51.4006 84.4202 51.8035 84.6538 52.1936 84.9081C52.2129 84.9294 52.2362 84.9463 52.2622 84.9579C52.2881 84.9694 52.3162 84.9754 52.3445 84.9754C52.3728 84.9753 52.4009 84.9693 52.4268 84.9577C52.4527 84.9461 52.476 84.9291 52.4952 84.9078C52.5343 84.8665 52.556 84.8114 52.556 84.7541C52.5559 84.6967 52.534 84.6416 52.4949 84.6004C51.5035 83.7946 50.5788 82.9071 49.73 81.9469C49.2645 81.4985 48.9764 80.8917 48.9202 80.2414C48.864 79.591 49.0437 78.9422 49.4251 78.4178Z" fill="black" style="fill:black;fill-opacity:1;"/>
<path d="M66.1645 49.43C72.1243 48.4055 78.2324 48.7312 84.0548 50.384L64.7698 67.152C62.8764 67.7318 53.6603 67.7531 53.6603 67.7531C54.9251 70.5156 56.0393 73.3473 56.9977 76.2351C51.8115 77.2116 45.9431 83.9195 45.9431 83.9195C45.9431 83.9195 37.3991 67.56 40.7347 61.3342C43.7931 55.3547 58.6989 50.9499 66.1645 49.43Z" fill="white" style="fill:white;fill-opacity:1;"/>
<path d="M66.1294 49.2087C72.1382 48.2097 78.2883 48.5561 84.1526 50.224C84.1803 50.2329 84.206 50.2472 84.2283 50.2662C84.2506 50.2852 84.269 50.3085 84.2825 50.3348C84.296 50.361 84.3042 50.3897 84.3068 50.4192C84.3094 50.4487 84.3063 50.4785 84.2976 50.5067C84.2889 50.535 84.2748 50.5613 84.2562 50.584C84.2376 50.6067 84.2147 50.6255 84.189 50.6392C84.1632 50.6529 84.1351 50.6614 84.1061 50.664C84.0772 50.6666 84.048 50.6634 84.0203 50.6546C78.2299 49.0315 72.1627 48.7102 66.2385 49.7128C58.8211 51.2203 43.9636 55.6128 40.9172 61.4816C37.9791 67.1044 44.9529 81.3872 46.0528 83.6119C47.1614 82.3811 52.1385 77.1744 56.7698 76.1492C55.834 73.3533 54.7482 70.612 53.5171 67.9377C53.499 67.906 53.4895 67.8699 53.4895 67.8332C53.4895 67.7965 53.4989 67.7605 53.5169 67.7287C53.5352 67.6933 53.5632 67.6641 53.5974 67.6444C53.6316 67.6248 53.6706 67.6155 53.7098 67.6178C53.7942 67.6177 62.9139 67.6088 64.759 67.0167C64.7892 67.0016 64.8223 66.9935 64.8559 66.9929C64.8895 66.9924 64.9229 66.9994 64.9536 67.0134C64.9843 67.0274 65.0115 67.0482 65.0335 67.0742C65.0554 67.1002 65.0715 67.1308 65.0805 67.1638C65.0895 67.1968 65.0913 67.2315 65.0858 67.2653C65.0802 67.2991 65.0674 67.3313 65.0482 67.3595C65.0291 67.3877 65.0041 67.4112 64.975 67.4285C64.9459 67.4457 64.9135 67.4563 64.88 67.4593C63.1796 67.9898 55.8092 68.0585 54.0238 68.0602C55.2254 70.733 56.2948 73.4654 57.2283 76.2471C57.2514 76.3106 57.2515 76.3804 57.2284 76.4439C57.191 76.4966 57.1347 76.532 57.0717 76.5424C52.0303 77.4943 46.2221 84.0914 46.1498 84.1529C46.1255 84.1798 46.0954 84.2004 46.0619 84.2133C46.0284 84.2261 45.9924 84.2308 45.9568 84.2269L45.8845 84.227C45.8409 84.2083 45.8062 84.1731 45.7879 84.1287C45.4374 83.465 37.2196 67.5971 40.5069 61.3222C43.6254 55.1827 58.6397 50.7286 66.1294 49.2087Z" fill="black" style="fill:black;fill-opacity:1;"/>
<path d="M88.905 52.5549C88.905 52.5549 77.6224 61.4324 68.0517 82.0892C58.4811 102.746 56.7105 105.588 56.7105 105.588L44.8351 99.8571C44.8351 99.8571 65.5573 59.243 72.089 52.4607C78.6208 45.6785 88.905 52.5549 88.905 52.5549Z" fill="white" style="fill:white;fill-opacity:1;"/>
<path d="M65.3442 62.2936C65.3918 62.3262 65.4258 62.3759 65.4392 62.4328C65.4527 62.4898 65.4447 62.5498 65.4168 62.601C57.3472 75.9885 46.3418 97.4213 45.1377 99.7713L56.6149 105.306C57.1086 104.433 59.5531 99.8064 67.8476 81.9301C76.5516 63.1926 86.7965 54.021 88.5201 52.5682C86.8666 51.5861 77.9112 46.7128 72.2471 52.5842C72.2056 52.6266 72.1492 52.6505 72.0904 52.6506C72.0315 52.6506 71.9751 52.6268 71.9335 52.5845C71.8919 52.5421 71.8684 52.4846 71.8684 52.4247C71.8683 52.3647 71.8916 52.3072 71.9332 52.2648C78.4167 45.5194 88.9179 52.2481 89.0266 52.3218C89.0563 52.342 89.0807 52.3694 89.0976 52.4016C89.1145 52.4338 89.1233 52.4697 89.1232 52.5062C89.1258 52.5417 89.1194 52.5773 89.1046 52.6096C89.0899 52.6419 89.0673 52.6698 89.039 52.6907C88.9305 52.7769 77.6962 61.7773 68.2459 82.1019C58.7956 102.426 56.9168 105.65 56.9047 105.687C56.8749 105.735 56.8291 105.77 56.7759 105.786C56.7227 105.802 56.6656 105.797 56.6153 105.774L44.7399 100.042C44.7115 100.03 44.686 100.011 44.6652 99.988C44.6443 99.9647 44.6286 99.9371 44.6191 99.9071C44.6071 99.8801 44.6009 99.8507 44.6008 99.821C44.6008 99.7914 44.607 99.762 44.6189 99.7349C44.7273 99.5012 56.5032 76.4443 65.0064 62.3308C65.0239 62.3027 65.0474 62.279 65.0751 62.2614C65.1028 62.2438 65.134 62.2328 65.1665 62.2292C65.1989 62.2257 65.2318 62.2296 65.2625 62.2407C65.2933 62.2519 65.3212 62.27 65.3442 62.2936Z" fill="black" style="fill:black;fill-opacity:1;"/>
<path d="M54.445 68.2935C53.8786 69.0197 52.031 67.2012 52.031 67.2012L51.8242 65.4426C51.8242 65.4426 55.0114 67.5796 54.445 68.2935Z" fill="white" style="fill:white;fill-opacity:1;"/>
<path d="M115.706 60.8172C116.153 61.8374 118.047 61.2453 118.047 61.2453C118.047 61.2453 123.456 54.0583 124.216 53.4304C124.686 53.0364 125.566 53.097 125.423 54.2531C124.288 56.6205 122.997 58.9062 121.557 61.0943C121.557 61.0943 123.715 59.8009 124.176 62.3214C124.518 62.5509 124.785 62.8797 124.942 63.2653C125.1 63.6509 125.14 64.0757 125.058 64.4849C125.058 64.4849 126.06 64.816 125.989 66.759C125.895 67.4047 125.654 68.019 125.286 68.5531C124.918 69.0871 124.433 69.5263 123.869 69.8355C123.869 69.8355 123.51 72.2953 121.954 73.2437C119.145 74.8697 114.509 83.089 114.509 83.089L107.916 76.2334C107.916 76.2334 114.943 70.4222 114.749 68.9836C114.494 67.1392 113.818 66.5988 113.37 65.1604C112.922 63.7221 112.871 60.6847 112.061 59.013C111.614 58.0296 114.038 57.0558 115.706 60.8172Z" fill="#F6AF9A" style="fill:#F6AF9A;fill:color(display-p3 0.9647 0.6863 0.6039);fill-opacity:1;"/>
<path d="M112.047 58.2269C111.929 58.3418 111.851 58.4929 111.825 58.6573C111.799 58.8216 111.827 58.9901 111.903 59.137C112.368 60.3814 112.666 61.6842 112.788 63.0099C112.873 63.7648 113.011 64.5126 113.2 65.2476C113.356 65.7358 113.554 66.2089 113.792 66.6612C114.186 67.3936 114.445 68.1937 114.555 69.0216C114.688 69.9806 110.482 73.8584 107.806 76.0623C107.781 76.0832 107.76 76.1094 107.746 76.1391C107.731 76.1688 107.723 76.2014 107.722 76.2345C107.705 76.2907 107.705 76.3506 107.722 76.4067L114.339 83.2622L114.411 83.2621C114.45 83.2752 114.493 83.2752 114.532 83.262C114.567 83.2598 114.601 83.2485 114.63 83.2291C114.66 83.2097 114.684 83.1828 114.701 83.1511C114.7 83.0651 119.337 74.9196 122.062 73.306C123.154 72.4692 123.876 71.2264 124.073 69.8485C124.652 69.522 125.148 69.0612 125.521 68.5032C125.893 67.9453 126.132 67.306 126.217 66.6367C126.276 65.0257 125.624 64.4238 125.31 64.1781C125.361 63.7624 125.3 63.3404 125.134 62.9572C124.968 62.574 124.703 62.2439 124.367 62.0024C124.335 61.6969 124.231 61.4037 124.065 61.1472C123.899 60.8907 123.676 60.6783 123.413 60.5277C122.992 60.3689 122.53 60.3693 122.11 60.5289C123.416 58.5058 124.575 56.3879 125.578 54.1924C125.698 53.3806 125.348 53.0735 125.131 52.9631C124.952 52.8883 124.756 52.8648 124.564 52.8954C124.373 52.9259 124.193 53.0092 124.045 53.1363C123.286 53.7519 118.443 60.2005 117.888 60.9389C117.342 61.1088 116.758 61.1093 116.212 60.9405C116.136 60.9111 116.068 60.8665 116.01 60.8096C115.952 60.7526 115.905 60.6843 115.874 60.6088C115.486 59.5028 114.724 58.5744 113.724 57.9916C113.455 57.8502 113.149 57.7969 112.849 57.839C112.549 57.8811 112.269 58.0166 112.047 58.2269ZM112.361 58.5463C112.54 58.4245 112.75 58.3594 112.964 58.3592C113.179 58.359 113.389 58.4237 113.568 58.5451C114.482 59.0995 115.168 59.9725 115.5 61.0027C115.614 61.2491 115.811 61.4454 116.055 61.5556C116.728 61.7663 117.446 61.7655 118.118 61.5535C118.164 61.5405 118.203 61.5095 118.227 61.4673C120.094 59.006 123.769 54.1818 124.359 53.6894C124.441 53.6133 124.541 53.5615 124.65 53.5397C124.758 53.5179 124.871 53.5269 124.974 53.5658C125.228 53.6885 125.216 54.0821 125.18 54.3034C124.071 56.637 122.811 58.8935 121.411 61.0584C121.379 61.0982 121.361 61.1482 121.361 61.1999C121.361 61.2515 121.379 61.3015 121.411 61.3413C121.448 61.3733 121.495 61.3908 121.544 61.3908C121.593 61.3907 121.64 61.3731 121.677 61.341C121.909 61.2029 122.167 61.1142 122.435 61.0801C122.702 61.0461 122.973 61.0674 123.232 61.1427C123.442 61.2738 123.618 61.4534 123.746 61.667C123.874 61.8806 123.951 62.1221 123.97 62.3717C123.982 62.435 124.016 62.4917 124.066 62.5315C124.373 62.7312 124.614 63.0219 124.754 63.3647C124.894 63.7075 124.929 64.0859 124.852 64.4491C124.841 64.506 124.85 64.5653 124.879 64.6153C124.908 64.6653 124.955 64.7024 125.009 64.7195C125.166 64.7932 125.842 65.2106 125.783 66.7601C125.687 67.3654 125.457 67.9404 125.111 68.4415C124.764 68.9426 124.31 69.3566 123.783 69.652C123.754 69.6691 123.728 69.692 123.707 69.7195C123.686 69.747 123.671 69.7784 123.663 69.812C123.492 71.0909 122.845 72.2539 121.856 73.0603C119.276 74.5508 115.29 81.3428 114.471 82.7824L108.301 76.2586C109.819 75.0273 115.219 70.3859 115.025 68.9596C114.901 68.0973 114.627 67.2645 114.214 66.5009C113.983 66.0697 113.793 65.6169 113.646 65.1488C113.465 64.4374 113.332 63.7144 113.246 62.9848C113.127 61.611 112.817 60.2615 112.325 58.9768C112.28 58.9124 112.259 58.8337 112.265 58.7548C112.272 58.6759 112.306 58.6019 112.361 58.5463Z" fill="black" style="fill:black;fill-opacity:1;"/>
<path d="M118.744 72.3247C118.764 72.3031 118.789 72.286 118.816 72.2742C118.843 72.2624 118.872 72.2564 118.901 72.2563C118.93 72.2563 118.959 72.2623 118.986 72.274C119.013 72.2857 119.037 72.3029 119.058 72.3244C119.095 72.3689 119.116 72.4256 119.116 72.4842C119.116 72.5429 119.095 72.5996 119.058 72.6442L116.178 76.0165C116.139 76.0446 116.093 76.0597 116.045 76.0597C115.998 76.0598 115.952 76.0448 115.913 76.0167C115.892 75.9961 115.875 75.9713 115.863 75.9438C115.852 75.9164 115.846 75.8868 115.846 75.8569C115.846 75.8271 115.852 75.7975 115.863 75.77C115.874 75.7425 115.891 75.7177 115.912 75.697L118.744 72.3247ZM120.833 61.9314C121.762 61.9305 122.463 63.1595 122.487 63.1595C122.502 63.1852 122.512 63.2136 122.515 63.2432C122.519 63.2728 122.517 63.3028 122.509 63.3315C122.501 63.3603 122.488 63.3871 122.47 63.4103C122.451 63.4336 122.429 63.4529 122.403 63.467C122.378 63.4822 122.35 63.492 122.321 63.4959C122.292 63.4998 122.262 63.4976 122.234 63.4896C122.206 63.4816 122.18 63.4679 122.157 63.4493C122.134 63.4306 122.115 63.4075 122.101 63.3812C121.944 63.1108 121.401 62.3858 120.894 62.3986C120.532 62.399 120.183 62.7436 119.858 63.3834C119.412 64.2693 119.449 65.0071 119.944 65.4124C120.374 65.6469 120.867 65.7315 121.348 65.6533C121.829 65.5751 122.272 65.3384 122.609 64.9794C123.291 64.2021 123.76 63.256 123.97 62.2357C123.976 62.2063 123.987 62.1784 124.004 62.1536C124.02 62.1288 124.041 62.1077 124.066 62.0916C124.091 62.0754 124.119 62.0646 124.148 62.0598C124.177 62.0549 124.207 62.0561 124.235 62.0633C124.264 62.0691 124.291 62.0807 124.316 62.0976C124.34 62.1145 124.361 62.1363 124.377 62.1615C124.392 62.1868 124.403 62.2151 124.408 62.2447C124.413 62.2743 124.411 62.3046 124.404 62.3337C124.146 63.4537 123.597 64.4822 122.815 65.3112C122.436 65.6822 121.964 65.9387 121.451 66.0522C120.938 66.1656 120.403 66.1314 119.908 65.9535C119.799 65.8953 119.695 65.8297 119.594 65.7571C119.262 65.4206 119.059 64.9744 119.021 64.4988C118.983 64.0232 119.113 63.5494 119.387 63.1625C119.82 62.3628 120.351 61.9564 120.833 61.9314Z" fill="black" style="fill:black;fill-opacity:1;"/>
<path d="M120.356 65.6828C120.407 65.7115 120.446 65.7594 120.464 65.8167C120.482 65.8739 120.478 65.936 120.452 65.9901C120.276 66.253 120.206 66.5756 120.258 66.8898C120.31 67.204 120.48 67.4854 120.731 67.6746C121.173 67.9427 121.69 68.054 122.201 67.9912C122.711 67.9284 123.187 67.695 123.554 67.3275C124.245 66.554 124.712 65.5999 124.902 64.5716C124.907 64.5425 124.917 64.5147 124.933 64.4896C124.948 64.4646 124.968 64.4429 124.991 64.4258C125.015 64.4086 125.042 64.3964 125.07 64.3897C125.098 64.383 125.127 64.382 125.156 64.3869C125.184 64.3917 125.211 64.4022 125.236 64.4177C125.26 64.4333 125.282 64.4537 125.299 64.4776C125.315 64.5016 125.327 64.5287 125.334 64.5574C125.34 64.5861 125.341 64.6159 125.337 64.6449C125.141 65.7836 124.617 66.8372 123.832 67.6716C123.429 68.0493 122.931 68.3032 122.393 68.4038C121.855 68.5045 121.3 68.4478 120.792 68.2402C120.678 68.1807 120.569 68.1109 120.466 68.0315C120.142 67.7736 119.922 67.404 119.846 66.992C119.77 66.58 119.844 66.154 120.054 65.7938C120.082 65.7408 120.129 65.7003 120.184 65.6799C120.24 65.6594 120.301 65.6604 120.356 65.6828ZM122.771 69.0868C123.207 69.9103 123.821 69.6269 123.894 69.5899C123.92 69.5776 123.948 69.5706 123.977 69.5695C124.006 69.5684 124.034 69.5731 124.061 69.5833C124.088 69.5936 124.113 69.6092 124.134 69.6293C124.155 69.6494 124.172 69.6735 124.183 69.7003C124.198 69.7258 124.207 69.7541 124.209 69.7833C124.212 69.8125 124.209 69.8419 124.2 69.8698C124.191 69.8976 124.176 69.9232 124.157 69.9449C124.137 69.9666 124.114 69.9838 124.087 69.9955C123.925 70.0744 123.748 70.1154 123.569 70.1155C123.389 70.1157 123.212 70.0751 123.05 69.9965C122.756 69.8374 122.52 69.588 122.374 69.284C122.348 69.2317 122.344 69.1715 122.362 69.1162C122.38 69.0609 122.419 69.0151 122.47 68.9887C122.496 68.974 122.524 68.9648 122.554 68.9618C122.583 68.9588 122.613 68.962 122.641 68.9712C122.67 68.9804 122.696 68.9954 122.718 69.0153C122.741 69.0352 122.759 69.0595 122.771 69.0868Z" fill="black" style="fill:black;fill-opacity:1;"/>
<path d="M120.649 69.7528L117.507 64.0745C117.507 64.0745 120.899 66.174 120.649 69.7528Z" fill="white" style="fill:white;fill-opacity:1;"/>
<path d="M117.626 63.8898C117.771 63.9758 121.127 66.1491 120.865 69.7648C120.865 69.7945 120.859 69.8238 120.847 69.851C120.835 69.8781 120.818 69.9023 120.797 69.9221C120.775 69.9419 120.749 69.9568 120.722 69.9658C120.694 69.9747 120.665 69.9776 120.636 69.9741L120.551 69.9742C120.511 69.9581 120.477 69.9288 120.455 69.8909C120.434 69.8531 120.425 69.8088 120.43 69.7652C120.669 66.4201 117.422 64.3204 117.385 64.2959C117.338 64.2632 117.304 64.2135 117.29 64.1566C117.277 64.0997 117.285 64.0397 117.313 63.9885C117.325 63.9595 117.344 63.9335 117.367 63.9124C117.39 63.8913 117.418 63.8756 117.447 63.8662C117.477 63.8568 117.508 63.8541 117.539 63.8582C117.57 63.8623 117.6 63.873 117.626 63.8898Z" fill="black" style="fill:black;fill-opacity:1;"/>
<path d="M110.941 72.4676L118.442 82.8269C118.442 82.8269 109.036 98.5154 103.053 99.2591C95.732 100.176 92.3462 91.596 94.1267 86.4416L107.628 76.1723L110.941 72.4676Z" fill="white" style="fill:white;fill-opacity:1;"/>
<path d="M94.1966 86.2214C94.225 86.2309 94.2512 86.2463 94.2735 86.2666C94.2958 86.2869 94.3138 86.3117 94.3263 86.3394C94.3388 86.3671 94.3455 86.3971 94.3461 86.4276C94.3466 86.458 94.341 86.4883 94.3296 86.5164C93.8587 88.1596 93.7791 89.8935 94.0975 91.5743C94.4159 93.2551 95.123 94.8342 96.1602 96.1804C96.9506 97.238 98.0041 98.0608 99.2115 98.5634C100.419 99.0661 101.736 99.2303 103.027 99.039C108.551 98.3572 117.259 84.342 118.175 82.8408L110.927 72.8255L107.794 76.321C107.752 76.3617 107.696 76.3844 107.638 76.3844C107.579 76.3845 107.523 76.3619 107.481 76.3213C107.44 76.276 107.417 76.2168 107.417 76.1554C107.417 76.0939 107.44 76.0347 107.48 75.9893L110.794 72.2968C110.818 72.2723 110.846 72.2531 110.877 72.2404C110.908 72.2276 110.942 72.2217 110.975 72.2229C111.009 72.2237 111.042 72.2331 111.072 72.2502C111.101 72.2674 111.126 72.2917 111.144 72.3211L118.645 82.6681C118.669 82.7069 118.681 82.7516 118.681 82.7972C118.681 82.8428 118.669 82.8876 118.645 82.9264C118.26 83.5662 109.106 98.7133 103.088 99.4694C101.586 99.6676 100.059 99.4304 98.6838 98.785C97.5694 98.232 96.5915 97.4302 95.8227 96.439C94.7283 95.0364 93.9844 93.3838 93.6549 91.6234C93.3255 89.8629 93.4203 88.0472 93.9313 86.3324C93.9548 86.2842 93.9946 86.2463 94.0435 86.2259C94.0923 86.2055 94.1467 86.2039 94.1966 86.2214Z" fill="black" style="fill:black;fill-opacity:1;"/>
<path d="M100.855 59.4668C100.108 60.23 94.6687 61.6372 94.2581 61.2195C94.2941 59.5261 93.9587 57.8459 93.2764 56.3015C95.1913 56.8863 97.1926 57.1217 99.1879 56.9967L100.855 59.4668Z" fill="white" style="fill:white;fill-opacity:1;"/>
<path d="M93.1086 56.2035C93.0875 56.241 93.0764 56.2834 93.0764 56.3265C93.0764 56.3697 93.0876 56.4121 93.1088 56.4495C93.7632 57.9458 94.09 59.5695 94.0663 61.2077C94.0535 61.2345 94.0469 61.2639 94.0469 61.2938C94.047 61.3236 94.0536 61.353 94.0665 61.3798L94.1751 61.4535C94.9354 61.8217 100.206 60.4023 100.977 59.6268C101.01 59.5851 101.028 59.533 101.028 59.4792C101.028 59.4254 101.01 59.3733 100.977 59.3317L99.3096 56.8738C99.2891 56.842 99.2599 56.8169 99.2256 56.8017C99.1913 56.7864 99.1534 56.7816 99.1165 56.7879C97.1494 56.9005 95.1779 56.6653 93.2894 56.0927C93.2528 56.095 93.2172 56.1063 93.1858 56.1256C93.1543 56.1449 93.1278 56.1717 93.1086 56.2035ZM93.664 56.6949C95.4278 57.1809 97.2562 57.3784 99.0808 57.2799L100.555 59.4182C98.6514 60.315 96.6122 60.8743 94.5246 61.0719C94.5251 59.5692 94.2325 58.0813 93.664 56.6949Z" fill="black" style="fill:black;fill-opacity:1;"/>
<path d="M90.7636 52.8361C91.0079 53.9352 91.5333 54.9487 92.2863 55.7737C90.4909 55.9267 88.7208 56.3043 87.0159 56.8979C87.3067 55.3204 87.9537 53.8336 88.9057 52.5551C89.5383 52.4298 90.1939 52.5289 90.7636 52.8361Z" fill="white" style="fill:white;fill-opacity:1;"/>
<path d="M88.7246 52.4077C87.7589 53.7237 87.1003 55.2468 86.7988 56.8613C86.7945 56.9024 86.7999 56.9439 86.8146 56.9824C86.8294 57.0209 86.853 57.0553 86.8834 57.0826C86.9455 57.1072 87.0144 57.1071 87.0764 57.0824C88.756 56.5043 90.4968 56.1311 92.2625 55.9705C92.3063 55.9719 92.3493 55.958 92.3843 55.9311C92.4194 55.9043 92.4444 55.8661 92.4553 55.8228C92.4777 55.7858 92.4896 55.7432 92.4895 55.6998C92.4895 55.6563 92.4776 55.6137 92.4551 55.5768C91.7387 54.7822 91.2351 53.8128 90.9928 52.7621C90.9901 52.7264 90.9772 52.6923 90.9558 52.6639C90.9343 52.6356 90.9052 52.6142 90.872 52.6024C90.2553 52.2656 89.5417 52.1618 88.8572 52.3092C88.8047 52.3283 88.7586 52.3625 88.7246 52.4077ZM89.0265 52.7518C89.5537 52.6764 90.0909 52.7614 90.5708 52.9962C90.7953 53.9398 91.2066 54.8265 91.7796 55.6021C90.2607 55.7524 88.7611 56.0629 87.3051 56.5288C87.5959 55.1638 88.166 53.8767 88.9783 52.7518L89.0265 52.7518ZM83.5647 81.2256C83.7667 81.3265 83.9224 81.5033 83.9991 81.7188C84.0758 81.9343 84.0675 82.1718 83.9759 82.3812C83.9283 82.4843 83.861 82.5767 83.778 82.6531C83.695 82.7295 83.598 82.7883 83.4926 82.8261C83.3871 82.864 83.2753 82.8801 83.1637 82.8736C83.0521 82.8671 82.9429 82.838 82.8424 82.7881C82.7417 82.7408 82.6513 82.6734 82.5765 82.5899C82.5017 82.5065 82.444 82.4086 82.4068 82.3021C82.3696 82.1956 82.3537 82.0826 82.3599 81.9697C82.3662 81.8569 82.3945 81.7464 82.4432 81.6448C82.5398 81.4398 82.711 81.2813 82.9204 81.2031C83.1299 81.1248 83.361 81.1329 83.5647 81.2256Z" fill="black" style="fill:black;fill-opacity:1;"/>
<path d="M82.2384 81.5472C82.1463 81.7428 82.1134 81.9618 82.1437 82.1765C82.174 82.3912 82.2662 82.5919 82.4086 82.7531C82.551 82.9143 82.7372 83.0287 82.9435 83.0818C83.1498 83.1349 83.3669 83.1243 83.5673 83.0514C83.7677 82.9784 83.9423 82.8464 84.069 82.6721C84.1957 82.4978 84.2687 82.2891 84.2787 82.0724C84.2888 81.8558 84.2355 81.6409 84.1256 81.4552C84.0156 81.2695 83.8541 81.1212 83.6613 81.0293C83.4046 80.9103 83.1126 80.8978 82.847 80.9945C82.5814 81.0912 82.3631 81.2894 82.2384 81.5472ZM82.6487 81.7435C82.7011 81.6316 82.7848 81.5379 82.8894 81.4745C82.994 81.4111 83.1147 81.3807 83.2362 81.3872C83.3577 81.3937 83.4746 81.4367 83.5721 81.511C83.6696 81.5852 83.7434 81.6872 83.784 81.8042C83.8246 81.9211 83.8303 82.0477 83.8003 82.1679C83.7703 82.2882 83.706 82.3966 83.6156 82.4796C83.5251 82.5626 83.4126 82.6164 83.2922 82.6342C83.1717 82.6519 83.0488 82.6329 82.939 82.5795C82.865 82.5453 82.7985 82.4963 82.7436 82.4353C82.6886 82.3743 82.6463 82.3026 82.6192 82.2245C82.5921 82.1465 82.5807 82.0636 82.5858 81.981C82.5909 81.8983 82.6123 81.8176 82.6487 81.7435ZM77.0252 92.2633C77.1341 92.3056 77.2333 92.3704 77.3164 92.4537C77.3995 92.5369 77.4649 92.6368 77.5083 92.7471C77.5517 92.8574 77.5723 92.9756 77.5687 93.0944C77.5651 93.2131 77.5374 93.3298 77.4874 93.4371C77.4374 93.5445 77.3662 93.6401 77.2781 93.718C77.1901 93.7958 77.0872 93.8543 76.9759 93.8896C76.8647 93.925 76.7474 93.9365 76.6316 93.9234C76.5157 93.9103 76.4038 93.8729 76.3029 93.8135C76.1939 93.7712 76.0948 93.7064 76.0116 93.6232C75.9285 93.5399 75.8631 93.44 75.8197 93.3297C75.7763 93.2195 75.7557 93.1012 75.7593 92.9825C75.7629 92.8637 75.7906 92.747 75.8406 92.6397C75.8906 92.5324 75.9619 92.4368 76.0499 92.3589C76.1379 92.281 76.2408 92.2226 76.3521 92.1872C76.4634 92.1519 76.5806 92.1404 76.6964 92.1535C76.8123 92.1666 76.9242 92.204 77.0252 92.2633Z" fill="black" style="fill:black;fill-opacity:1;"/>
<path d="M75.7472 92.5717C75.6526 92.7688 75.6183 92.9903 75.6487 93.2075C75.6791 93.4247 75.7728 93.6276 75.9177 93.7898C76.0626 93.952 76.252 94.0661 76.4613 94.1173C76.6705 94.1684 76.8901 94.1542 77.0914 94.0766C77.2927 93.999 77.4664 93.8615 77.5901 93.6819C77.7138 93.5024 77.7817 93.2891 77.785 93.0697C77.7883 92.8503 77.7268 92.635 77.6086 92.4517C77.4904 92.2683 77.3208 92.1255 77.1219 92.0416C76.8696 91.9352 76.587 91.9308 76.3317 92.0293C76.0763 92.1278 75.8673 92.3217 75.7472 92.5717ZM76.1455 92.7681C76.216 92.615 76.3432 92.4966 76.4991 92.4388C76.655 92.381 76.8271 92.3886 76.9776 92.4599C77.1174 92.5379 77.2229 92.6673 77.2726 92.8217C77.3222 92.9762 77.3123 93.1441 77.2448 93.2914C77.1774 93.4387 77.0575 93.5542 76.9094 93.6146C76.7614 93.6749 76.5964 93.6756 76.4479 93.6163C76.3693 93.5854 76.2976 93.5386 76.2371 93.4788C76.1766 93.4189 76.1286 93.3473 76.0959 93.2682C76.0631 93.189 76.0464 93.1039 76.0466 93.018C76.0469 92.9321 76.0641 92.8471 76.0973 92.7681L76.1455 92.7681ZM71.053 103.595C71.2563 103.692 71.4132 103.868 71.4892 104.084C71.5651 104.3 71.554 104.537 71.4582 104.744C71.4108 104.847 71.344 104.939 71.2617 105.015C71.1794 105.091 71.0831 105.15 70.9784 105.189C70.767 105.266 70.534 105.255 70.3307 105.157C70.1275 105.06 69.9706 104.884 69.8946 104.668C69.8186 104.453 69.8298 104.215 69.9255 104.008C70.0213 103.801 70.1939 103.641 70.4054 103.563C70.6168 103.486 70.8498 103.497 71.053 103.595Z" fill="black" style="fill:black;fill-opacity:1;"/>
<path d="M69.7262 103.916C69.6654 104.044 69.6304 104.183 69.6231 104.326C69.6158 104.468 69.6364 104.61 69.6837 104.744C69.731 104.878 69.8041 105.001 69.8986 105.106C69.9932 105.211 70.1073 105.295 70.2343 105.354C70.4243 105.446 70.6366 105.478 70.8444 105.446C71.0522 105.414 71.2461 105.321 71.4015 105.177C71.557 105.032 71.667 104.845 71.7177 104.637C71.7684 104.429 71.7575 104.21 71.6863 104.009C71.6152 103.807 71.487 103.632 71.3179 103.505C71.1489 103.378 70.9467 103.304 70.7368 103.294C70.5269 103.284 70.3189 103.338 70.139 103.449C69.9591 103.559 69.8154 103.722 69.7262 103.916ZM70.1245 104.1C70.1995 103.951 70.3277 103.838 70.4826 103.782C70.6375 103.727 70.8072 103.735 70.9567 103.804C71.065 103.859 71.155 103.945 71.2154 104.052C71.2757 104.159 71.3038 104.282 71.2962 104.405C71.2885 104.528 71.2454 104.646 71.1722 104.745C71.099 104.843 70.9991 104.917 70.8848 104.958C70.7705 104.998 70.6471 105.004 70.5298 104.973C70.4125 104.943 70.3067 104.877 70.2256 104.786C70.1444 104.694 70.0916 104.58 70.0736 104.458C70.0556 104.336 70.0733 104.212 70.1245 104.1Z" fill="black" style="fill:black;fill-opacity:1;"/>
<path d="M82.3097 67.8104C85.6699 63.694 89.293 59.8083 93.1555 56.1787C93.1769 56.1585 93.2019 56.1428 93.2293 56.1324C93.2566 56.1221 93.2857 56.1174 93.3148 56.1185C93.3439 56.1196 93.3725 56.1265 93.399 56.1389C93.4255 56.1513 93.4493 56.1689 93.4692 56.1907C93.489 56.2125 93.5044 56.238 93.5145 56.2659C93.5247 56.2937 93.5293 56.3234 93.5282 56.3531C93.5271 56.3827 93.5203 56.4119 93.5082 56.4389C93.496 56.4659 93.4788 56.4902 93.4574 56.5104C89.5965 60.1242 85.9734 63.9934 82.6116 68.0929C78.291 73.5957 74.5184 79.5232 71.3493 85.7876C68.7969 90.9919 61.7171 105.104 61.6448 105.239C61.6334 105.266 61.6165 105.29 61.5953 105.31C61.5741 105.33 61.549 105.345 61.5217 105.354C61.4944 105.364 61.4655 105.367 61.4368 105.364C61.4082 105.361 61.3804 105.353 61.3554 105.338C61.3036 105.309 61.2646 105.261 61.2466 105.204C61.2286 105.147 61.2329 105.085 61.2586 105.031C61.3309 104.895 68.3986 90.7833 70.8907 85.579C74.1064 79.2829 77.9318 73.3304 82.3097 67.8104Z" fill="black" style="fill:black;fill-opacity:1;"/>
<path d="M16.8764 165.233L16.7312 11.1342L82.6264 5.60965L82.7768 165.168L16.8764 165.233Z" fill="#E36E0E" style="fill:#E36E0E;fill:color(display-p3 0.8884 0.4295 0.0541);fill-opacity:1;"/>
<path d="M82.3228 5.95434L82.4726 164.861L17.1754 164.925L17.0308 11.4292L82.3228 5.95434ZM82.9254 5.28969L16.4271 10.8518L16.5728 165.541L83.0522 165.476L82.9012 5.27742L82.9254 5.28969Z" fill="black" style="fill:black;fill-opacity:1;"/>
<path d="M76.4618 82.6473C75.8773 82.6478 75.306 82.8251 74.8203 83.1566C74.3346 83.4881 73.9562 83.9591 73.7331 84.5098C73.5099 85.0606 73.4519 85.6664 73.5665 86.2507C73.6811 86.8351 73.9631 87.3716 74.3768 87.7926C74.7906 88.2135 75.3174 88.5 75.8908 88.6157C76.4643 88.7313 77.0584 88.6711 77.5983 88.4425C78.1381 88.214 78.5993 87.8274 78.9236 87.3316C79.2479 86.8358 79.4206 86.2531 79.4201 85.6572C79.4197 85.2616 79.3429 84.8699 79.194 84.5045C79.0451 84.1391 78.8271 83.8072 78.5524 83.5277C78.2777 83.2482 77.9517 83.0265 77.593 82.8755C77.2343 82.7244 76.8499 82.6469 76.4618 82.6473Z" fill="#DC2626" style="fill:#DC2626;fill:color(display-p3 0.8627 0.1490 0.1490);fill-opacity:1;"/>
<path d="M76.957 84.184L65.9917 84.1947L65.9936 86.1623L76.9589 86.1515L76.957 84.184Z" fill="#DC2626" style="fill:#DC2626;fill:color(display-p3 0.8627 0.1490 0.1490);fill-opacity:1;"/>
<path d="M31.3438 42.4659C42.7477 42.84 54.1478 43.3781 65.544 44.0802L65.5312 30.467L31.3341 32.136L31.3438 42.4659Z" fill="white" style="fill:white;fill-opacity:1;"/>
<path d="M65.5301 30.0618L31.333 31.8292C31.2475 31.829 31.1651 31.862 31.1024 31.9214C31.0398 31.9808 31.0016 32.0622 30.9956 32.1492L31.0053 42.4422C31.0115 42.5292 31.0498 42.6105 31.1126 42.6698C31.1753 42.7291 31.2578 42.7619 31.3434 42.7616C42.7473 43.1521 54.1474 43.7189 65.5437 44.462C65.5922 44.464 65.6407 44.4553 65.6857 44.4365C65.7306 44.4177 65.7711 44.3892 65.8043 44.353C65.8374 44.3167 65.8626 44.2736 65.8779 44.2266C65.8932 44.1796 65.8984 44.1297 65.8931 44.0805L65.8803 30.4426C65.8836 30.3938 65.8769 30.3447 65.8608 30.2986C65.8446 30.2525 65.8194 30.2102 65.7865 30.1745C65.7537 30.1388 65.7139 30.1103 65.6698 30.0909C65.6257 30.0715 65.5781 30.0616 65.5301 30.0618ZM65.193 43.5892C54.0381 42.9361 42.8713 42.4429 31.6926 42.1095L31.6834 32.4314L65.181 30.886L65.193 43.5892Z" fill="black" style="fill:black;fill-opacity:1;"/>
<path d="M119.425 128.683C119.425 128.683 135.771 129.282 128.914 85.9648C128.914 85.9648 119.026 102.392 119.425 128.683Z" fill="#DC2626" stroke="black" style="fill:#DC2626;fill:color(display-p3 0.8627 0.1490 0.1490);fill-opacity:1;stroke:black;stroke-opacity:1;" stroke-width="0.499644"/>
<path d="M121.025 123.16C121.025 123.16 125.84 112.42 115.221 95.7549C115.221 95.7549 114.166 115.272 121.025 123.16Z" fill="#DC2626" stroke="black" style="fill:#DC2626;fill:color(display-p3 0.8627 0.1490 0.1490);fill-opacity:1;stroke:black;stroke-opacity:1;" stroke-width="0.499644"/>
<path d="M124.024 118.73C122.238 119.885 120.844 121.575 120.034 123.567C119.225 125.56 119.038 127.759 119.499 129.864C119.499 129.864 116.138 134.933 125.194 131.321C134.25 127.709 133.024 106.608 133.024 106.608C133.024 106.608 130.329 114.53 124.024 118.73Z" fill="#DC2626" stroke="black" style="fill:#DC2626;fill:color(display-p3 0.8627 0.1490 0.1490);fill-opacity:1;stroke:black;stroke-opacity:1;" stroke-width="0.499644"/>
<path d="M118.138 119.117C114.031 114.202 112.951 106.518 112.951 106.518C112.951 106.518 109.88 125.323 115.989 130.261C122.097 135.198 120.223 129.998 120.223 129.998C120.768 128.149 120.863 126.191 120.5 124.295C120.137 122.399 119.326 120.622 118.138 119.117Z" fill="#DC2626" stroke="black" style="fill:#DC2626;fill:color(display-p3 0.8627 0.1490 0.1490);fill-opacity:1;stroke:black;stroke-opacity:1;" stroke-width="0.499644"/>
<path d="M109.592 165.535C108.908 165.042 108.328 164.413 107.886 163.687C107.444 162.961 107.149 162.152 107.019 161.307C106.97 159.164 107.743 157.085 109.173 155.513C111.727 152.363 114.737 145.572 114.857 145.289L114.857 145.227L114.844 131.7L112.888 129.71L129.221 129.694L127.269 131.688L127.282 145.215L127.282 145.276C127.415 145.559 130.437 152.344 132.985 155.49C134.424 157.056 135.201 159.135 135.15 161.28C135.024 162.124 134.734 162.933 134.295 163.661C133.856 164.388 133.279 165.018 132.597 165.513L109.592 165.535Z" fill="white" style="fill:white;fill-opacity:1;"/>
<path d="M128.498 129.966L127.148 131.345L126.968 131.529L126.98 145.278L126.981 145.401C127.114 145.684 130.148 152.506 132.732 155.688C134.116 157.19 134.867 159.185 134.824 161.245C134.702 162.035 134.426 162.793 134.012 163.473C133.598 164.154 133.056 164.743 132.416 165.207L109.713 165.229C109.072 164.766 108.528 164.178 108.113 163.499C107.698 162.819 107.421 162.062 107.297 161.272C107.254 159.21 108.006 157.214 109.39 155.711C111.957 152.523 114.99 145.695 115.111 145.412L115.171 145.289L115.158 131.541L114.977 131.357L113.624 129.981L128.498 129.966ZM129.945 129.35L112.212 129.367L114.627 131.824L114.64 145.179C114.64 145.179 111.546 152.18 108.992 155.343C106.438 158.505 105.307 162.491 109.533 165.869L132.754 165.846C136.973 162.46 135.751 158.378 133.275 155.319C130.799 152.259 127.608 145.167 127.608 145.167L127.595 131.787L130.005 129.325L129.945 129.35Z" fill="black" style="fill:black;fill-opacity:1;"/>
</svg>
