<svg width="37" height="36" viewBox="0 0 37 36" fill="none" xmlns="http://www.w3.org/2000/svg">
<rect x="18.6396" y="0.119873" width="25" height="25" rx="4.95" transform="rotate(45 18.6396 0.119873)" fill="#FFE0E0" style="fill:#FFE0E0;fill:color(display-p3 1.0000 0.8771 0.8771);fill-opacity:1;"/>
<path d="M24.1349 28.1262C26.5965 28.3145 26.4775 26.5078 26.4271 24.7529C26.4946 22.8344 26.504 21.3856 24.1056 21.4015C23.0959 21.4093 22.2448 21.0494 21.2505 20.8909C20.7893 20.8513 20.3311 20.9945 19.9745 21.2895C19.3735 21.7485 18.7998 22.1987 18.1841 22.6431C16.8161 21.9158 15.6245 20.897 14.6934 19.6587C14.6345 19.5804 14.5469 19.5286 14.4499 19.5148C14.3528 19.501 14.2543 19.5262 14.1758 19.585C14.0973 19.6437 14.0454 19.7312 14.0313 19.8282C14.0173 19.9252 14.0423 20.0239 14.1008 20.1025C15.0967 21.427 16.371 22.5169 17.8339 23.2953C17.959 23.3738 18.1061 23.41 18.2534 23.3985C18.4006 23.387 18.5403 23.3284 18.6517 23.2313C19.2385 22.771 19.8442 22.3325 20.4306 21.8723C20.6357 21.6962 20.902 21.6079 21.1717 21.6266C22.1186 21.7955 23.0927 22.1548 24.0818 22.1411C24.626 22.1585 25.0959 22.1737 25.3946 22.4823C25.9605 23.1805 25.5775 24.4901 25.6931 25.3998C25.7229 26.486 25.6885 27.1646 24.9673 27.359C16.7688 28.052 8.69903 20.0296 9.03127 11.8705C9.06311 10.8187 9.73703 10.7186 11.1662 10.7533C12.034 10.8622 13.3022 10.5071 13.9554 11.0434C14.2804 11.3665 14.2958 11.8543 14.3135 12.4191C14.3265 13.0789 14.4301 13.7338 14.6215 14.3654C14.8326 15.0996 14.9437 15.5719 14.5767 16.0174C14.114 16.6075 13.6789 17.2091 13.2148 17.8007C13.1187 17.912 13.061 18.0513 13.0501 18.1979C13.0391 18.3445 13.0756 18.4908 13.1541 18.6152C13.1774 18.6585 13.209 18.6967 13.2472 18.7276C13.2854 18.7586 13.3293 18.7816 13.3765 18.7954C13.4237 18.8092 13.4731 18.8134 13.5219 18.8079C13.5708 18.8023 13.618 18.7871 13.6609 18.7631C13.7038 18.7391 13.7415 18.7068 13.7718 18.6681C13.802 18.6294 13.8243 18.585 13.8372 18.5376C13.8502 18.4902 13.8536 18.4407 13.8472 18.392C13.8408 18.3432 13.8248 18.2963 13.8 18.2538C14.2565 17.6717 14.7002 17.0602 15.1536 16.481C15.7809 15.7193 15.5428 14.8915 15.3327 14.1608C15.2403 13.8792 15.1764 13.5891 15.1419 13.2947C14.9337 12.3724 15.2595 11.3036 14.4658 10.508C13.6414 9.77308 12.615 10.0834 11.6655 10.0205C10.3675 10.0285 8.40131 9.70961 8.29124 11.8522C7.96226 20.1218 15.8091 28.2818 24.1349 28.1262Z" fill="black" stroke="black" style="fill:black;fill-opacity:1;stroke:black;stroke-opacity:1;" stroke-width="0.24743"/>
<path d="M25.6182 20.2784C25.5424 20.3386 25.4932 20.4261 25.4811 20.5222C25.4691 20.6183 25.4951 20.7153 25.5538 20.7923C25.6124 20.8694 25.6989 20.9204 25.7948 20.9345C25.8906 20.9485 25.9881 20.9244 26.0663 20.8673C31.7266 16.5745 28.6342 7.45965 21.5345 7.45564C20.3818 7.45067 19.2438 7.71482 18.2111 8.22708C17.1784 8.73934 16.2795 9.48556 15.586 10.4064C15.5267 10.4846 15.5008 10.5831 15.5142 10.6804C15.5275 10.7776 15.579 10.8656 15.6572 10.9249C15.7354 10.9842 15.8339 11.0101 15.9312 10.9967C16.0284 10.9834 16.1164 10.9319 16.1757 10.8537C16.8005 10.0242 17.6103 9.35196 18.5406 8.8905C19.471 8.42905 20.4962 8.19111 21.5347 8.19563C27.9316 8.19954 30.7172 16.4118 25.6182 20.2784Z" fill="#DC2626" stroke="#DC2626" style="fill:#DC2626;fill:color(display-p3 0.8627 0.1490 0.1490);fill-opacity:1;stroke:#DC2626;stroke:color(display-p3 0.8627 0.1490 0.1490);stroke-opacity:1;" stroke-width="0.24743"/>
<path d="M21.0096 18.4449H22.0581C22.2952 18.4447 22.5225 18.3503 22.6901 18.1827C22.8577 18.015 22.952 17.7877 22.9522 17.5506V16.348H24.1548C24.3919 16.3478 24.6192 16.2534 24.7868 16.0858C24.9544 15.9181 25.0487 15.6908 25.0489 15.4537V14.4054C25.0487 14.1683 24.9544 13.941 24.7868 13.7733C24.6192 13.6057 24.3919 13.5114 24.1548 13.5111H22.9522V12.3085C22.9519 12.0715 22.8576 11.8442 22.69 11.6767C22.5223 11.5091 22.2951 11.4148 22.0581 11.4146H21.0096C20.7726 11.4148 20.5453 11.5091 20.3777 11.6767C20.2101 11.8442 20.1158 12.0715 20.1155 12.3085V13.5111H18.9129C18.6758 13.5113 18.4485 13.6057 18.2808 13.7733C18.1131 13.941 18.0188 14.1683 18.0186 14.4054V15.4537C18.0188 15.6908 18.1131 15.9181 18.2808 16.0858C18.4485 16.2534 18.6758 16.3478 18.9129 16.348H20.1155V17.5506C20.1157 17.7877 20.2099 18.015 20.3776 18.1827C20.5452 18.3503 20.7725 18.4447 21.0096 18.4449ZM18.9129 15.608C18.872 15.6079 18.8328 15.5916 18.8039 15.5627C18.7749 15.5338 18.7587 15.4946 18.7586 15.4537V14.4054C18.7587 14.3645 18.7749 14.3253 18.8039 14.2964C18.8328 14.2675 18.872 14.2512 18.9129 14.2511H20.4855C20.5341 14.2511 20.5822 14.2416 20.6271 14.223C20.672 14.2044 20.7128 14.1771 20.7471 14.1428C20.7815 14.1084 20.8088 14.0676 20.8274 14.0227C20.8459 13.9778 20.8555 13.9297 20.8555 13.8811V12.3085C20.8556 12.2677 20.8718 12.2285 20.9007 12.1997C20.9296 12.1708 20.9688 12.1546 21.0096 12.1546H22.0581C22.0989 12.1546 22.138 12.1708 22.1669 12.1997C22.1958 12.2285 22.2121 12.2677 22.2122 12.3085V13.8811C22.2122 13.9297 22.2217 13.9778 22.2403 14.0227C22.2589 14.0676 22.2862 14.1084 22.3205 14.1428C22.3549 14.1771 22.3957 14.2044 22.4406 14.223C22.4855 14.2416 22.5336 14.2511 22.5822 14.2511H24.1548C24.1956 14.2512 24.2348 14.2675 24.2637 14.2964C24.2926 14.3254 24.3088 14.3645 24.3089 14.4054V15.4537C24.3088 15.4946 24.2926 15.5337 24.2637 15.5627C24.2348 15.5916 24.1956 15.6079 24.1548 15.608H22.5822C22.5336 15.608 22.4855 15.6175 22.4406 15.6361C22.3957 15.6547 22.3549 15.682 22.3205 15.7163C22.2862 15.7507 22.2589 15.7915 22.2403 15.8364C22.2217 15.8813 22.2122 15.9294 22.2122 15.978V17.5506C22.2121 17.5915 22.1959 17.6306 22.167 17.6596C22.1381 17.6885 22.0989 17.7048 22.0581 17.7049H21.0096C20.9687 17.7048 20.9296 17.6885 20.9007 17.6596C20.8718 17.6306 20.8556 17.5915 20.8555 17.5506V15.978C20.8555 15.9294 20.8459 15.8813 20.8274 15.8364C20.8088 15.7915 20.7815 15.7507 20.7471 15.7163C20.7128 15.682 20.672 15.6547 20.6271 15.6361C20.5822 15.6175 20.5341 15.608 20.4855 15.608H18.9129Z" fill="#DC2626" stroke="#DC2626" style="fill:#DC2626;fill:color(display-p3 0.8627 0.1490 0.1490);fill-opacity:1;stroke:#DC2626;stroke:color(display-p3 0.8627 0.1490 0.1490);stroke-opacity:1;" stroke-width="0.24743"/>
</svg>
