<svg width="171" height="157" viewBox="0 0 171 157" fill="none" xmlns="http://www.w3.org/2000/svg">
<path d="M170.937 156.508C170.937 147.34 169.049 138.262 165.38 129.793C161.711 121.323 156.333 113.627 149.553 107.145C142.774 100.662 134.725 95.5199 125.868 92.0116C117.01 88.5033 107.516 86.6976 97.9283 86.6976C88.3406 86.6976 78.8469 88.5033 69.989 92.0116C61.1312 95.5199 53.0827 100.662 46.3032 107.145C39.5237 113.627 34.1459 121.323 30.4769 129.793C26.8079 138.262 24.9194 147.34 24.9194 156.508L170.937 156.508Z" fill="#FFDADA" style="fill:#FFDADA;fill:color(display-p3 1.0000 0.8549 0.8549);fill-opacity:1;"/>
<path d="M59.2007 28.9912H57.8569C56.1906 28.9912 54.8398 30.3717 54.8398 32.0747V36.2255C54.8398 37.9285 56.1906 39.309 57.8569 39.309H59.2007C60.8669 39.309 62.2177 37.9285 62.2177 36.2255V32.0747C62.2177 30.3717 60.8669 28.9912 59.2007 28.9912Z" fill="#353535" style="fill:#353535;fill:color(display-p3 0.2089 0.2089 0.2089);fill-opacity:1;"/>
<path d="M59.2007 40.844H57.8569C56.1906 40.844 54.8398 42.2245 54.8398 43.9275V48.0783C54.8398 49.7812 56.1906 51.1618 57.8569 51.1618H59.2007C60.8669 51.1618 62.2177 49.7812 62.2177 48.0783V43.9275C62.2177 42.2245 60.8669 40.844 59.2007 40.844Z" fill="#353535" style="fill:#353535;fill:color(display-p3 0.2089 0.2089 0.2089);fill-opacity:1;"/>
<path d="M127.17 0.688477H67.151C61.4118 0.688477 56.7593 5.44354 56.7593 11.3092V145.288C56.7593 151.153 61.4118 155.909 67.151 155.909H127.17C132.909 155.909 137.561 151.153 137.561 145.288V11.3092C137.561 5.44354 132.909 0.688477 127.17 0.688477Z" fill="#353535" style="fill:#353535;fill:color(display-p3 0.2089 0.2089 0.2089);fill-opacity:1;"/>
<mask id="mask0_486_655" style="mask-type:luminance" maskUnits="userSpaceOnUse" x="57" y="0" width="82" height="156">
<path d="M127.715 0.688477H67.6965C61.9572 0.688477 57.3047 5.44354 57.3047 11.3092V145.288C57.3047 151.153 61.9572 155.909 67.6965 155.909H127.715C133.454 155.909 138.107 151.153 138.107 145.288V11.3092C138.107 5.44354 133.454 0.688477 127.715 0.688477Z" fill="white" style="fill:white;fill-opacity:1;"/>
</mask>
<g mask="url(#mask0_486_655)">
<path d="M97.8558 -1.95354C87.6786 5.49537 133.644 -5.41159 138.107 11.3159C142.57 28.0434 142.438 3.28081 142.438 3.28081L119.157 -3.36279" fill="#292929" style="fill:#292929;fill:color(display-p3 0.1619 0.1619 0.1619);fill-opacity:1;"/>
</g>
<path d="M127.17 0.688477H67.151C61.4118 0.688477 56.7593 5.44354 56.7593 11.3092V145.288C56.7593 151.153 61.4118 155.909 67.151 155.909H127.17C132.909 155.909 137.561 151.153 137.561 145.288V11.3092C137.561 5.44354 132.909 0.688477 127.17 0.688477Z" stroke="#060606" style="stroke:#060606;stroke:color(display-p3 0.0235 0.0235 0.0235);stroke-opacity:1;" stroke-width="0.870693" stroke-linecap="round" stroke-linejoin="round"/>
<path d="M123.923 4.48584H118.634C116.931 4.48584 115.55 5.92493 115.55 7.70012C115.55 9.47532 114.169 10.9144 112.466 10.9144H81.8531C80.1497 10.9144 78.7689 9.47532 78.7689 7.70012C78.7689 5.92493 77.388 4.48584 75.6847 4.48584H70.3961C65.1666 4.48584 60.9272 8.90394 60.9272 14.3539V139.948C60.9272 145.398 65.1666 149.817 70.3961 149.817H123.923C129.152 149.817 133.392 145.398 133.392 139.948V14.3539C133.392 8.90394 129.152 4.48584 123.923 4.48584Z" fill="white" style="fill:white;fill-opacity:1;"/>
<path d="M123.923 4.48584H118.634C116.931 4.48584 115.55 5.92493 115.55 7.70012C115.55 9.47532 114.169 10.9144 112.466 10.9144H81.8531C80.1497 10.9144 78.7689 9.47532 78.7689 7.70012C78.7689 5.92493 77.388 4.48584 75.6847 4.48584H70.3961C65.1666 4.48584 60.9272 8.90394 60.9272 14.3539V139.948C60.9272 145.398 65.1666 149.817 70.3961 149.817H123.923C129.152 149.817 133.392 145.398 133.392 139.948V14.3539C133.392 8.90394 129.152 4.48584 123.923 4.48584Z" stroke="#060606" style="stroke:#060606;stroke:color(display-p3 0.0235 0.0235 0.0235);stroke-opacity:1;" stroke-width="0.870693" stroke-linecap="round" stroke-linejoin="round"/>
<path d="M79.8585 31.6779C78.1628 32.718 76.7378 34.1611 75.7046 35.8846M115.868 124.711L109.912 126.978" stroke="#060606" style="stroke:#060606;stroke:color(display-p3 0.0235 0.0235 0.0235);stroke-opacity:1;" stroke-width="0.870693" stroke-linecap="round" stroke-linejoin="round"/>
<path d="M82.8909 22.2177H25.6732C24.3753 22.2177 23.3232 23.2929 23.3232 24.6193V38.4422C23.3232 39.7686 24.3753 40.8439 25.6732 40.8439H82.8909C84.1888 40.8439 85.2409 39.7686 85.2409 38.4422V24.6193C85.2409 23.2929 84.1888 22.2177 82.8909 22.2177Z" fill="#F30101" style="fill:#F30101;fill:color(display-p3 0.9525 0.0051 0.0051);fill-opacity:1;"/>
<path d="M76.657 27.863H40.0486C39.5949 27.863 39.2271 28.239 39.2271 28.7027V29.6527C39.2271 30.1165 39.5949 30.4924 40.0486 30.4924H76.657C77.1107 30.4924 77.4785 30.1165 77.4785 29.6527V28.7027C77.4785 28.239 77.1107 27.863 76.657 27.863Z" fill="white" style="fill:white;fill-opacity:1;"/>
<path d="M52.389 31.8386H40.0486C39.5949 31.8386 39.2271 32.2146 39.2271 32.6783V33.5886C39.2271 34.0524 39.5949 34.4283 40.0486 34.4283H52.389C52.8427 34.4283 53.2105 34.0524 53.2105 33.5886V32.6783C53.2105 32.2146 52.8427 31.8386 52.389 31.8386Z" fill="white" style="fill:white;fill-opacity:1;"/>
<path d="M67.9124 31.8386H55.5721C55.1183 31.8386 54.7505 32.2146 54.7505 32.6783V33.5886C54.7505 34.0524 55.1183 34.4283 55.5721 34.4283H67.9124C68.3661 34.4283 68.734 34.0524 68.734 33.5886V32.6783C68.734 32.2146 68.3661 31.8386 67.9124 31.8386Z" fill="white" style="fill:white;fill-opacity:1;"/>
<path d="M32.4474 26.4319C31.5351 26.4307 30.6431 26.7062 29.884 27.2233C29.125 27.7405 28.5331 28.4761 28.1832 29.3371C27.8333 30.1982 27.7412 31.1459 27.9185 32.0605C28.0958 32.9751 28.5345 33.8153 29.1792 34.475C29.8238 35.1347 30.6454 35.5841 31.5401 35.7664C32.4347 35.9487 33.3621 35.8557 34.205 35.4992C35.0479 35.1427 35.7684 34.5386 36.2754 33.7635C36.7823 32.9884 37.0529 32.077 37.0529 31.1446C37.0533 30.5261 36.9344 29.9136 36.7032 29.342C36.4719 28.7705 36.1328 28.251 35.7051 27.8134C35.2775 27.3758 34.7697 27.0285 34.2107 26.7915C33.6517 26.5545 33.0525 26.4323 32.4474 26.4319Z" fill="white" style="fill:white;fill-opacity:1;"/>
<mask id="mask1_486_655" style="mask-type:alpha" maskUnits="userSpaceOnUse" x="29" y="4" width="116" height="146">
<path d="M127.448 4.48584H122.159C120.456 4.48584 119.075 5.92493 119.075 7.70012C119.075 9.47532 117.694 10.9144 115.991 10.9144H85.3782C83.6748 10.9144 82.2939 9.47532 82.2939 7.70012C82.2939 5.92493 80.913 4.48584 79.2097 4.48584H73.9211C68.6916 4.48584 64.4523 8.90394 64.4523 14.3539L29.6592 139.311C29.6592 144.761 68.6916 149.817 73.9211 149.817H127.448C132.677 149.817 144.954 144.761 144.954 139.311L136.917 14.3539C136.917 8.90394 132.677 4.48584 127.448 4.48584Z" fill="black" style="fill:black;fill-opacity:1;"/>
</mask>
<g mask="url(#mask1_486_655)">
<path d="M60.1124 53.4819H58.1279L68.8586 85.8177C69.0981 86.541 69.4826 87.2053 69.9875 87.7682C70.4925 88.331 71.1067 88.7801 71.791 89.0866C72.4754 89.3931 73.2147 89.5503 73.9619 89.5482C74.709 89.5461 75.4475 89.3848 76.1302 89.0745C76.821 88.7597 77.4391 88.2997 77.9443 87.7245C78.4496 87.1493 78.8305 86.4717 79.0623 85.7359C79.2942 85.0001 79.3718 84.2226 79.29 83.4542C79.2082 82.6857 78.9689 81.9435 78.5876 81.2759L64.1333 55.9546L60.1124 53.4819Z" fill="#F6AF9A" style="fill:#F6AF9A;fill:color(display-p3 0.9647 0.6863 0.6039);fill-opacity:1;"/>
<path d="M59.7277 53.4796H57.7432L68.4739 85.8154C68.7134 86.5387 69.0979 87.203 69.6028 87.7659C70.1077 88.3287 70.7219 88.7777 71.4063 89.0842C72.0906 89.3907 72.8299 89.548 73.5771 89.5459C74.3242 89.5438 75.0628 89.3825 75.7454 89.0722C76.4362 88.7574 77.0544 88.2974 77.5596 87.7222C78.0648 87.1469 78.4457 86.4693 78.6776 85.7336C78.9094 84.9978 78.987 84.2203 78.9052 83.4519C78.8234 82.6834 78.5841 81.9412 78.2029 81.2736L63.7486 55.9522L59.7277 53.4796Z" stroke="#060606" style="stroke:#060606;stroke:color(display-p3 0.0235 0.0235 0.0235);stroke-opacity:1;" stroke-width="0.870693" stroke-linecap="round" stroke-linejoin="round"/>
<path d="M58.1942 54.5803C57.7154 53.8012 57.4765 52.8967 57.9794 52.025C59.2692 49.7894 63.5663 44.547 64.0837 44.5606C65.1826 44.5893 64.4532 47.6994 62.2803 49.8432C64.5967 47.5806 65.2811 49.6816 63.3332 51.9981C65.3864 50.4897 65.7549 52.483 64.4712 54.5301C64.237 54.9036 64.1026 56.0057 63.9288 56.5754" fill="#F6AF9A" style="fill:#F6AF9A;fill:color(display-p3 0.9647 0.6863 0.6039);fill-opacity:1;"/>
<path d="M58.1942 54.5803C57.7154 53.8012 57.4765 52.8967 57.9794 52.025C59.2692 49.7894 63.5663 44.547 64.0837 44.5606C65.1826 44.5893 64.4532 47.6994 62.2803 49.8432C64.5967 47.5806 65.2811 49.6816 63.3332 51.9981C65.3864 50.4897 65.7549 52.483 64.4712 54.5301C64.237 54.9036 64.1026 56.0057 63.9288 56.5754" stroke="#060606" style="stroke:#060606;stroke:color(display-p3 0.0235 0.0235 0.0235);stroke-opacity:1;" stroke-width="0.870693" stroke-linecap="round" stroke-linejoin="round"/>
<path d="M85.5631 180.421C96.5634 184.074 118.581 176.564 118.581 176.564L112.01 157.687L99.5621 130.83M58.999 72.0858C61.8346 63.1245 66.6712 58.2098 66.6712 58.2098L77.2335 73.5531C65.9495 76.5277 82.0803 53.8206 83.5213 53.2308C84.9622 52.641 86.1743 54.4486 89.6899 77.2167C89.7957 77.9024 85.813 99.665 75.9991 98.5637C70.4952 97.9461 58.999 72.0858 58.999 72.0858Z" fill="white" style="fill:white;fill-opacity:1;"/>
<mask id="mask2_486_655" style="mask-type:luminance" maskUnits="userSpaceOnUse" x="58" y="53" width="32" height="46">
<path d="M58.999 72.0858C61.8346 63.1245 66.6712 58.2098 66.6712 58.2098L77.2335 73.5531C65.9495 76.5277 82.0803 53.8206 83.5213 53.2308C84.9622 52.641 86.1743 54.4486 89.6899 77.2167C89.7957 77.9024 85.813 99.665 75.9991 98.5637C70.4952 97.9461 58.999 72.0858 58.999 72.0858Z" fill="white" style="fill:white;fill-opacity:1;"/>
</mask>
<g mask="url(#mask2_486_655)">
<path d="M83.9221 70.421C80.3361 111.623 70.0281 88.1932 68.3397 90.1382C64.7635 94.2581 74.943 102.098 74.943 102.098L83.9221 102.043L85.564 82.8902L84.2 74.4845" fill="white" style="fill:white;fill-opacity:1;"/>
<path d="M68.7246 63.097C62.8492 68.87 60.6597 84.8194 60.6597 84.8194L68.7246 63.097Z" fill="white" style="fill:white;fill-opacity:1;"/>
<path d="M68.7246 63.097C62.8492 68.87 60.6597 84.8194 60.6597 84.8194" stroke="#060606" style="stroke:#060606;stroke:color(display-p3 0.0235 0.0235 0.0235);stroke-opacity:1;" stroke-width="0.472889" stroke-linecap="round" stroke-linejoin="round"/>
</g>
<path d="M58.999 72.0858C61.8346 63.1245 66.6712 58.2098 66.6712 58.2098L77.2335 73.5531C65.9495 76.5277 82.0803 53.8206 83.5213 53.2308C84.9622 52.641 86.1743 54.4486 89.6899 77.2167C89.7957 77.9024 85.813 99.665 75.9991 98.5637C70.4952 97.9461 58.999 72.0858 58.999 72.0858Z" stroke="#060606" style="stroke:#060606;stroke:color(display-p3 0.0235 0.0235 0.0235);stroke-opacity:1;" stroke-width="0.630518" stroke-linecap="round" stroke-linejoin="round"/>
<path d="M68.7246 236.108C68.7246 236.108 70.039 231.184 76.9397 231.184C83.8403 231.184 87.9479 224.882 87.9479 224.882V154.376L90.5767 85.052L105.364 93.3236C105.364 105.928 94.9724 225.405 94.9724 225.405C94.9724 225.405 96.3272 236.108 96.1629 236.108L68.7246 236.108Z" fill="white" style="fill:white;fill-opacity:1;"/>
<path d="M68.7246 236.108C68.7246 236.108 70.039 231.184 76.9397 231.184C83.8403 231.184 87.9479 224.882 87.9479 224.882V154.376L90.5767 85.052L105.364 93.3236C105.364 105.928 94.9724 225.405 94.9724 225.405C94.9724 225.405 96.3272 236.108 96.1629 236.108L68.7246 236.108Z" stroke="#060606" style="stroke:#060606;stroke:color(display-p3 0.0235 0.0235 0.0235);stroke-opacity:1;" stroke-width="0.870693" stroke-linecap="round" stroke-linejoin="round"/>
<path d="M99.7778 105.009L111.279 150.174L126.942 227.113C126.942 227.113 128.139 236.304 128.577 237.092H154.134C148.568 227.113 139.429 234.466 135.924 226.457L117.084 97.9186L99.7778 105.009Z" fill="white" style="fill:white;fill-opacity:1;"/>
<path d="M99.7778 105.009L111.279 150.174L126.942 227.113C126.942 227.113 128.139 236.304 128.577 237.092H154.134C148.568 227.113 139.429 234.466 135.924 226.457L117.084 97.9186L99.7778 105.009Z" stroke="#060606" style="stroke:#060606;stroke:color(display-p3 0.0235 0.0235 0.0235);stroke-opacity:1;" stroke-width="0.870693" stroke-linecap="round" stroke-linejoin="round"/>
<path d="M83.1846 146.339C102.024 151.065 121.466 151.75 125.847 148.599L114.826 86.455L89.499 90.681L83.1846 146.339Z" fill="white" style="fill:white;fill-opacity:1;"/>
<mask id="mask3_486_655" style="mask-type:luminance" maskUnits="userSpaceOnUse" x="83" y="86" width="43" height="65">
<path d="M83.1846 146.339C102.024 151.065 121.466 151.75 125.847 148.599L114.826 86.455L89.499 90.681L83.1846 146.339Z" fill="white" style="fill:white;fill-opacity:1;"/>
</mask>
<g mask="url(#mask3_486_655)">
<path d="M93.1063 122.302C98.0453 122.601 92.6715 95.4785 100.7 95.2104C108.729 94.9423 102.255 89.7948 102.255 89.7948L88.4878 91.4893L87.5396 92.9186" fill="white" style="fill:white;fill-opacity:1;"/>
</g>
<path d="M83.1846 146.339C102.024 151.065 121.466 151.75 125.847 148.599L114.826 86.455L89.499 90.681L83.1846 146.339Z" stroke="#060606" style="stroke:#060606;stroke:color(display-p3 0.0235 0.0235 0.0235);stroke-opacity:1;" stroke-width="0.870693" stroke-linecap="round" stroke-linejoin="round"/>
<path d="M90.6045 50.4894C90.6045 50.4894 103.871 43.2167 119.823 50.4894C123.298 59.7015 113.09 81.4733 116.349 89.1156C116.349 89.1156 97.6501 97.4573 88.4896 91.1543C85.6467 88.2452 92.0949 80.0694 87.2877 72.1459C81.9877 63.4102 90.6045 50.4894 90.6045 50.4894Z" fill="white" style="fill:white;fill-opacity:1;"/>
<mask id="mask4_486_655" style="mask-type:luminance" maskUnits="userSpaceOnUse" x="85" y="47" width="36" height="47">
<path d="M90.6045 50.4894C90.6045 50.4894 103.871 43.2167 119.823 50.4894C123.298 59.7015 113.09 81.4733 116.349 89.1156C116.349 89.1156 97.6501 97.4573 88.4896 91.1543C85.6467 88.2452 92.0949 80.0694 87.2877 72.1459C81.9877 63.4102 90.6045 50.4894 90.6045 50.4894Z" fill="white" style="fill:white;fill-opacity:1;"/>
</mask>
<g mask="url(#mask4_486_655)">
<path d="M93.8965 48.4393C90.6042 61.6855 105.455 54.8069 111.41 47.2563C117.366 39.7057 110.918 41.2585 110.918 41.2585L93.3545 46.3778" fill="#F6AF9A" style="fill:#F6AF9A;fill:color(display-p3 0.9647 0.6863 0.6039);fill-opacity:1;"/>
<path d="M93.8965 48.4393C90.6042 61.6855 105.455 54.8069 111.41 47.2563C117.366 39.7057 110.918 41.2585 110.918 41.2585L93.3545 46.3778" stroke="#060606" style="stroke:#060606;stroke:color(display-p3 0.0235 0.0235 0.0235);stroke-opacity:1;" stroke-width="0.870693" stroke-linecap="round" stroke-linejoin="round"/>
<path d="M116.129 68.5276C116.208 79.8407 115.26 92.9584 95.2546 92.6756C75.2489 92.3929 85.9986 98.0348 85.9986 98.0348L116.103 97.1336L117.471 96.3794L125.847 77.7397L124.085 66.8862L117.557 65.1636C118.483 78.6521 108.527 74.3954 108.527 74.3954" fill="#F6AF9A" style="fill:#F6AF9A;fill:color(display-p3 0.9647 0.6863 0.6039);fill-opacity:1;"/>
</g>
<path d="M90.6045 50.4894C90.6045 50.4894 103.871 43.2167 119.823 50.4894C123.298 59.7015 113.09 81.4733 116.349 89.1156C116.349 89.1156 97.6501 97.4573 88.4896 91.1543C85.6467 88.2452 92.0949 80.0694 87.2877 72.1459C81.9877 63.4102 90.6045 50.4894 90.6045 50.4894Z" stroke="#060606" style="stroke:#060606;stroke:color(display-p3 0.0235 0.0235 0.0235);stroke-opacity:1;" stroke-width="0.870693" stroke-linecap="round" stroke-linejoin="round"/>
<path d="M110.836 29.5603C111.146 28.9142 111.353 28.2215 111.448 27.5085C112.106 22.3673 108.14 18.1996 102.59 18.1996C100.671 18.2093 98.7833 18.697 97.0902 19.6204C96.2483 19.0242 95.181 18.6679 93.9744 18.6679C90.8505 18.6679 88.018 21.0139 87.6477 23.9076C87.3345 26.3542 88.8919 28.392 91.2654 28.9688C91.2819 32.1272 92.8409 34.2211 95.7242 35.0733C95.6262 35.2469 95.5369 35.4207 95.4488 35.5948C94.8792 35.4419 94.2946 35.3553 93.706 35.3368C93.5535 35.326 93.4104 35.294 93.2536 35.294C92.7262 35.3012 92.2012 35.3696 91.6889 35.4979C88.4806 36.0905 85.1627 38.2676 83.0608 41.4891C79.8914 46.3472 80.6886 51.7179 84.8416 53.4849C88.9946 55.2519 94.9306 52.7463 98.1002 47.8883C98.3637 47.4795 98.6049 47.0561 98.8224 46.6199C102.9 47.7343 108.256 45.2537 111.21 40.7254C113.981 36.4789 113.72 31.8408 110.836 29.5603Z" fill="#060606" stroke="#060606" style="fill:#060606;fill:color(display-p3 0.0235 0.0235 0.0235);fill-opacity:1;stroke:#060606;stroke:color(display-p3 0.0235 0.0235 0.0235);stroke-opacity:1;" stroke-width="0.870693" stroke-linecap="round" stroke-linejoin="round"/>
<path d="M106.956 49.8186L105.95 33.8127L97.3085 38.863C97.5213 39.4197 95.2842 49.2868 94.0552 52.9386" fill="#F6AF9A" style="fill:#F6AF9A;fill:color(display-p3 0.9647 0.6863 0.6039);fill-opacity:1;"/>
<mask id="mask5_486_655" style="mask-type:luminance" maskUnits="userSpaceOnUse" x="93" y="37" width="14" height="20">
<path d="M106.536 53.3947L105.53 37.3889L96.8881 42.4392C97.1008 42.9959 94.8638 52.863 93.6348 56.5148" fill="white" style="fill:white;fill-opacity:1;"/>
</mask>
<g mask="url(#mask5_486_655)">
<path d="M89.9902 53.1953C99.6277 54.0916 97.5888 45.2079 100.452 42.6796C103.315 40.1513 92.5839 43.0417 92.5839 43.0417L89.916 46.3123L90.2515 50.934" fill="#F6A992" style="fill:#F6A992;fill:color(display-p3 0.9653 0.6636 0.5744);fill-opacity:1;"/>
</g>
<path d="M106.956 49.8186L105.95 33.8127L97.3085 38.863C97.5213 39.4197 95.2842 49.2868 94.0552 52.9386" stroke="#060606" style="stroke:#060606;stroke:color(display-p3 0.0235 0.0235 0.0235);stroke-opacity:1;" stroke-width="0.870693" stroke-linecap="round" stroke-linejoin="round"/>
<path d="M107.116 32.4764C98.7023 33.2966 97.7308 23.2006 97.7308 23.2006C97.7308 23.2006 95.9105 28.0831 90.7602 28.2873C88.1719 42.3917 95.1342 43.1372 100.852 39.6498" fill="#F6AF9A" style="fill:#F6AF9A;fill:color(display-p3 0.9647 0.6863 0.6039);fill-opacity:1;"/>
<path d="M107.115 32.4764C98.701 33.2966 97.7296 23.2006 97.7296 23.2006C97.7296 23.2006 95.9092 28.0831 90.759 28.2873C88.1706 42.3917 95.1329 43.1372 100.851 39.6498M103.254 23.5425C103.211 23.8974 103.262 24.2575 103.4 24.5859C103.538 24.9143 103.76 25.1993 104.041 25.4118M89.7144 44.6204L89.0552 45.6323" stroke="#060606" style="stroke:#060606;stroke:color(display-p3 0.0235 0.0235 0.0235);stroke-opacity:1;" stroke-width="0.870693" stroke-linecap="round" stroke-linejoin="round"/>
<path d="M101.395 38.4055C101.243 37.4848 101.587 35.9008 101.67 34.8399L105.492 32.8844L105.774 32.2896C105.774 32.2896 101.484 33.7828 101.431 33.7713C95.9809 35.0471 94.8302 33.0549 94.8302 33.0549C94.8302 33.0549 90.7171 33.7191 90.0094 32.2896C87.8256 39.6482 92.8106 46.9419 101.895 39.1223C101.874 39.1179 105.774 36.9541 105.774 36.9541L101.395 38.4055Z" fill="white" stroke="#060606" style="fill:white;fill-opacity:1;stroke:#060606;stroke:color(display-p3 0.0235 0.0235 0.0235);stroke-opacity:1;" stroke-width="0.472889" stroke-linecap="round" stroke-linejoin="round"/>
<path d="M105.275 32.4708C113.956 29.1381 109.163 39.1545 103.729 36.796L105.275 32.4708Z" fill="#F6AF9A" style="fill:#F6AF9A;fill:color(display-p3 0.9647 0.6863 0.6039);fill-opacity:1;"/>
<path d="M105.275 32.4708C113.956 29.1381 109.163 39.1545 103.729 36.796" stroke="#060606" style="stroke:#060606;stroke:color(display-p3 0.0235 0.0235 0.0235);stroke-opacity:1;" stroke-width="0.870693" stroke-linecap="round" stroke-linejoin="round"/>
<path d="M105.444 189.86C117.662 193.488 131.723 180.026 131.723 180.026C131.723 180.026 121.433 71.5141 121.05 50.4898C117.624 48.5346 113.624 47.1358 107.035 47.2575L103.006 64.3175C103.006 64.3175 96.912 157 105.444 189.86Z" fill="white" style="fill:white;fill-opacity:1;"/>
<mask id="mask6_486_655" style="mask-type:luminance" maskUnits="userSpaceOnUse" x="100" y="47" width="32" height="144">
<path d="M105.444 189.86C117.662 193.488 131.723 180.026 131.723 180.026C131.723 180.026 121.433 71.5141 121.05 50.4898C117.624 48.5346 113.624 47.1358 107.035 47.2575L103.006 64.3175C103.006 64.3175 96.912 157 105.444 189.86Z" fill="white" style="fill:white;fill-opacity:1;"/>
</mask>
<g mask="url(#mask6_486_655)">
<path d="M104.208 89.0333C99.2094 92.6488 127.414 101.512 127.613 105.446C127.811 109.379 129.096 82.8896 129.096 82.8896L122.649 66.8804L116.526 67.0617C116.526 67.0617 120.972 77.0705 106.884 74.2082C92.7961 71.3459 107.753 87.3355 107.753 87.3355" fill="white" style="fill:white;fill-opacity:1;"/>
</g>
<path d="M105.444 189.86C117.662 193.488 131.723 180.026 131.723 180.026C131.723 180.026 121.433 71.5141 121.05 50.4898C117.624 48.5346 113.624 47.1358 107.035 47.2575L103.006 64.3175C103.006 64.3175 96.912 157 105.444 189.86Z" stroke="#060606" style="stroke:#060606;stroke:color(display-p3 0.0235 0.0235 0.0235);stroke-opacity:1;" stroke-width="0.315259" stroke-linecap="round" stroke-linejoin="round"/>
<path d="M83.5281 62.0007C83.2303 105.625 78.141 131.629 79.6984 183.765C91.311 187.887 100.461 189.461 100.461 189.461C100.461 189.461 91.8709 52.1091 95.4258 48.5355C95.4258 48.5355 87.3545 49.1391 83.5221 53.231" fill="white" style="fill:white;fill-opacity:1;"/>
<mask id="mask7_486_655" style="mask-type:luminance" maskUnits="userSpaceOnUse" x="79" y="48" width="22" height="142">
<path d="M83.5281 62.0007C83.2303 105.625 78.141 131.629 79.6984 183.765C91.311 187.887 100.461 189.461 100.461 189.461C100.461 189.461 91.8709 52.1091 95.4258 48.5355C95.4258 48.5355 87.3545 49.1391 83.5221 53.231" fill="white" style="fill:white;fill-opacity:1;"/>
</mask>
<g mask="url(#mask7_486_655)">
<path d="M72.6797 105.689L73.085 121.07L86.179 121.835L87.4309 105.599L72.6797 105.689Z" fill="white" stroke="#060606" style="fill:white;fill-opacity:1;stroke:#060606;stroke:color(display-p3 0.0235 0.0235 0.0235);stroke-opacity:1;" stroke-width="0.472889" stroke-linecap="round" stroke-linejoin="round"/>
<path d="M71.744 104.97C71.6523 105.528 71.373 109.808 71.373 109.808L87.8782 109.881L88.0219 104.996L71.744 104.97Z" fill="white" stroke="#060606" style="fill:white;fill-opacity:1;stroke:#060606;stroke:color(display-p3 0.0235 0.0235 0.0235);stroke-opacity:1;" stroke-width="0.472889" stroke-linecap="round" stroke-linejoin="round"/>
</g>
<path d="M83.5281 62.0007C83.2303 105.625 78.141 131.629 79.6984 183.765C91.311 187.887 100.461 189.461 100.461 189.461C100.461 189.461 91.8709 52.1091 95.4258 48.5355C95.4258 48.5355 87.3545 49.1391 83.5221 53.231" stroke="#060606" style="stroke:#060606;stroke:color(display-p3 0.0235 0.0235 0.0235);stroke-opacity:1;" stroke-width="0.472889" stroke-linecap="round" stroke-linejoin="round"/>
<path d="M101.759 81.8293C101.759 81.8293 101.217 53.9291 106.668 46.4453L111.256 47.9486L106.885 60.1441L108.577 65.3581L101.759 81.8293ZM95.3839 80.7559L90.5298 65.3169L93.1098 60.3122L90.4897 49.4638C90.4897 49.4638 92.6326 47.2499 95.7299 47.254C95.7299 47.254 94.1593 73.843 95.3839 80.7559Z" fill="white" stroke="#060606" style="fill:white;fill-opacity:1;stroke:#060606;stroke:color(display-p3 0.0235 0.0235 0.0235);stroke-opacity:1;" stroke-width="0.315259" stroke-linecap="round" stroke-linejoin="round"/>
<path d="M98.3048 74.4669C98.3048 74.4669 94.9176 71.3022 91.8248 70.2473C88.7321 69.1924 89.9103 69.9961 89.9103 69.9961L90.9903 73.412L98.3048 74.4669Z" fill="white" stroke="#060606" style="fill:white;fill-opacity:1;stroke:#060606;stroke:color(display-p3 0.0235 0.0235 0.0235);stroke-opacity:1;" stroke-width="0.870693" stroke-linecap="round" stroke-linejoin="round"/>
<path d="M98.4255 84.8185H81.4625C79.8377 84.8185 77.884 83.6734 77.099 82.2609L65.1523 60.7662C64.3673 59.3537 65.0481 58.2086 66.6729 58.2086H83.6358C85.2607 58.2086 87.2143 59.3537 87.9994 60.7662L99.946 82.2609C100.731 83.6734 100.05 84.8185 98.4255 84.8185Z" fill="#4F4F4F" style="fill:#4F4F4F;fill:color(display-p3 0.3114 0.3114 0.3114);fill-opacity:1;"/>
<mask id="mask8_486_655" style="mask-type:luminance" maskUnits="userSpaceOnUse" x="67" y="66" width="36" height="28">
<path d="M101.137 93.5108H84.1744C82.5496 93.5108 80.596 92.3657 79.8109 90.9532L67.8642 69.4584C67.0792 68.0459 67.76 66.9009 69.3848 66.9009H86.3477C87.9726 66.9009 89.9262 68.0459 90.7113 69.4584L102.658 90.9532C103.443 92.3657 102.762 93.5108 101.137 93.5108Z" fill="white" style="fill:white;fill-opacity:1;"/>
</mask>
<g mask="url(#mask8_486_655)">
<path d="M94.1129 74.6586C91.9615 75.8687 93.1596 75.901 93.2559 79.128C93.3522 82.3551 81.0913 85.5889 81.0913 85.5889L110.711 84.3953L106.048 74.8603L99.3449 74.0099" fill="#181818" style="fill:#181818;fill:color(display-p3 0.0935 0.0935 0.0935);fill-opacity:1;"/>
</g>
<path d="M98.4255 84.8185H81.4625C79.8377 84.8185 77.884 83.6734 77.099 82.2609L65.1523 60.7662C64.3673 59.3537 65.0481 58.2086 66.6729 58.2086H83.6358C85.2607 58.2086 87.2143 59.3537 87.9994 60.7662L99.946 82.2609C100.731 83.6734 100.05 84.8185 98.4255 84.8185Z" stroke="#060606" style="stroke:#060606;stroke:color(display-p3 0.0235 0.0235 0.0235);stroke-opacity:1;" stroke-width="0.870693" stroke-linecap="round" stroke-linejoin="round"/>
<path d="M85.8417 73.0872C86.5811 71.7291 85.3287 69.5751 83.0444 68.2762C80.7602 66.9773 78.3091 67.0253 77.5697 68.3834C76.8303 69.7415 78.0827 71.8955 80.367 73.1945C82.6512 74.4934 85.1024 74.4454 85.8417 73.0872Z" fill="white" stroke="#060606" style="fill:white;fill-opacity:1;stroke:#060606;stroke:color(display-p3 0.0235 0.0235 0.0235);stroke-opacity:1;" stroke-width="0.870693" stroke-linecap="round" stroke-linejoin="round"/>
<path d="M93.9854 73.1104C93.9854 73.1104 89.5344 73.1774 89.2072 73.1104C88.8799 73.0435 85.2144 71.1011 84.8217 72.7756C84.8217 72.7756 83.3162 73.1105 84.1999 74.4835L85.8035 75.8231C85.8035 75.8231 84.6908 75.5887 84.789 76.4594C84.8871 77.3301 89.1601 79.1966 89.5201 79.3306C89.8801 79.4645 94.5745 79.2725 97.2581 79.9423C99.9417 80.612 106.029 82.8893 106.029 82.8893L107.796 75.8566L93.9854 73.1104Z" fill="#F6AF9A" style="fill:#F6AF9A;fill:color(display-p3 0.9647 0.6863 0.6039);fill-opacity:1;"/>
<path d="M93.9854 73.1104C93.9854 73.1104 89.5344 73.1774 89.2072 73.1104C88.8799 73.0435 85.2144 71.1011 84.8217 72.7756C84.8217 72.7756 83.3162 73.1105 84.1999 74.4835L85.8035 75.8231C85.8035 75.8231 84.6908 75.5887 84.789 76.4594C84.8871 77.3301 89.1601 79.1966 89.5201 79.3306C89.8801 79.4645 94.5745 79.2725 97.2581 79.9423C99.9418 80.612 106.029 82.8893 106.029 82.8893L107.796 75.8566L93.9854 73.1104Z" stroke="#060606" style="stroke:#060606;stroke:color(display-p3 0.0235 0.0235 0.0235);stroke-opacity:1;" stroke-width="0.870693" stroke-linecap="round" stroke-linejoin="round"/>
<path d="M101.519 74.63C101.519 74.63 99.1451 78.8471 100.506 80.9315L127.644 90.4435C131.381 91.2745 134.971 88.5625 135.153 84.77C135.306 81.5982 132.982 78.839 129.807 78.4202L101.519 74.63Z" fill="white" style="fill:white;fill-opacity:1;"/>
<mask id="mask9_486_655" style="mask-type:luminance" maskUnits="userSpaceOnUse" x="100" y="74" width="36" height="17">
<path d="M101.519 74.63C101.519 74.63 99.1451 78.8471 100.506 80.9315L127.644 90.4435C131.381 91.2745 134.971 88.5625 135.153 84.77C135.306 81.5982 132.982 78.839 129.807 78.4202L101.519 74.63Z" fill="white" style="fill:white;fill-opacity:1;"/>
</mask>
<g mask="url(#mask9_486_655)">
<path d="M120.555 75.7736C133.439 78.3205 135.564 85.0365 135.161 88.8103C134.757 92.584 139.786 78.8613 139.786 78.8613L135.161 74.4674H125.848" fill="white" style="fill:white;fill-opacity:1;"/>
</g>
<path d="M101.519 74.63C101.519 74.63 99.1451 78.8471 100.506 80.9315L127.644 90.4435C131.381 91.2745 134.971 88.5625 135.153 84.77C135.306 81.5982 132.982 78.839 129.807 78.4202L101.519 74.63Z" stroke="#060606" style="stroke:#060606;stroke:color(display-p3 0.0235 0.0235 0.0235);stroke-opacity:1;" stroke-width="0.870693" stroke-linecap="round" stroke-linejoin="round"/>
<path d="M116.525 67.0619L120.555 75.7735L99.0378 73.3102C94.9917 78.344 98.2602 87.908 98.2602 87.908C98.2602 87.908 126.956 100.454 135.16 95.4876C143.165 90.6421 126.97 51.7552 119.484 49.6624" fill="white" style="fill:white;fill-opacity:1;"/>
<mask id="mask10_486_655" style="mask-type:luminance" maskUnits="userSpaceOnUse" x="97" y="49" width="41" height="48">
<path d="M116.525 67.0619L120.555 75.7735L99.0378 73.3102C94.9917 78.344 98.2602 87.908 98.2602 87.908C98.2602 87.908 126.956 100.454 135.16 95.4876C143.165 90.6421 126.97 51.7552 119.484 49.6624" fill="white" style="fill:white;fill-opacity:1;"/>
</mask>
<g mask="url(#mask10_486_655)">
<path d="M117.016 74.949L120.555 75.7736C120.555 75.7736 124.77 76.4482 125.847 76.5253C126.924 76.6025 119.723 74.5971 119.078 73.7328C118.433 72.8685 117.938 74.6298 117.938 74.6298" fill="url(#paint0_linear_486_655)" style=""/>
<path d="M103.786 73.384C100.271 77.8326 102.157 87.1251 103.564 91.0553L103.786 73.384Z" fill="white" style="fill:white;fill-opacity:1;"/>
<path d="M103.786 73.384C100.271 77.8326 102.157 87.1251 103.564 91.0553" stroke="#060606" style="stroke:#060606;stroke:color(display-p3 0.0235 0.0235 0.0235);stroke-opacity:1;" stroke-width="0.472889" stroke-linecap="round" stroke-linejoin="round"/>
</g>
<path d="M116.525 67.0619L120.555 75.7735L99.0378 73.3102C94.9917 78.344 98.2602 87.908 98.2602 87.908C98.2602 87.908 126.956 100.454 135.16 95.4876C143.165 90.6421 126.97 51.7552 119.484 49.6624" stroke="#060606" style="stroke:#060606;stroke:color(display-p3 0.0235 0.0235 0.0235);stroke-opacity:1;" stroke-width="0.315259" stroke-linecap="round" stroke-linejoin="round"/>
<path d="M102.984 94.6828C103.83 94.6828 104.516 93.9808 104.516 93.115C104.516 92.2492 103.83 91.5472 102.984 91.5472C102.138 91.5472 101.452 92.2492 101.452 93.115C101.452 93.9808 102.138 94.6828 102.984 94.6828Z" fill="white" stroke="#060606" style="fill:white;fill-opacity:1;stroke:#060606;stroke:color(display-p3 0.0235 0.0235 0.0235);stroke-opacity:1;" stroke-width="0.472889" stroke-linecap="round" stroke-linejoin="round"/>
<path d="M102.984 114.35C103.83 114.35 104.516 113.649 104.516 112.783C104.516 111.917 103.83 111.215 102.984 111.215C102.138 111.215 101.452 111.917 101.452 112.783C101.452 113.649 102.138 114.35 102.984 114.35Z" fill="white" stroke="#060606" style="fill:white;fill-opacity:1;stroke:#060606;stroke:color(display-p3 0.0235 0.0235 0.0235);stroke-opacity:1;" stroke-width="0.472889" stroke-linecap="round" stroke-linejoin="round"/>
<path d="M109.203 107.892L109.609 123.273L122.702 124.038L123.954 107.802L109.203 107.892Z" fill="white" stroke="#060606" style="fill:white;fill-opacity:1;stroke:#060606;stroke:color(display-p3 0.0235 0.0235 0.0235);stroke-opacity:1;" stroke-width="0.472889" stroke-linecap="round" stroke-linejoin="round"/>
<path d="M108.269 107.173C108.178 107.732 107.898 112.012 107.898 112.012L124.404 112.084L124.547 107.199L108.269 107.173Z" fill="white" stroke="#060606" style="fill:white;fill-opacity:1;stroke:#060606;stroke:color(display-p3 0.0235 0.0235 0.0235);stroke-opacity:1;" stroke-width="0.472889" stroke-linecap="round" stroke-linejoin="round"/>
<path d="M126.57 76.6186L115.923 75.2432" stroke="#060606" style="stroke:#060606;stroke:color(display-p3 0.0235 0.0235 0.0235);stroke-opacity:1;" stroke-width="0.472889" stroke-linecap="round" stroke-linejoin="round"/>
<path d="M107.417 33.7239C107.415 33.9041 107.357 34.079 107.252 34.224C107.147 34.3689 107.001 34.4766 106.833 34.5318M74.4932 63.2788L76.2507 62.8271" stroke="#060606" style="stroke:#060606;stroke:color(display-p3 0.0235 0.0235 0.0235);stroke-opacity:1;" stroke-width="0.870693" stroke-linecap="round" stroke-linejoin="round"/>
</g>
<path d="M96.0511 46.989C95.638 46.989 96.4442 47.0591 96.0511 46.989V46.989Z" fill="white" stroke="#060606" style="fill:white;fill-opacity:1;stroke:#060606;stroke:color(display-p3 0.0235 0.0235 0.0235);stroke-opacity:1;" stroke-width="0.808458" stroke-linecap="round" stroke-linejoin="round"/>
<defs>
<linearGradient id="paint0_linear_486_655" x1="127.575" y1="81.8618" x2="119.406" y2="73.9833" gradientUnits="userSpaceOnUse">
<stop offset="0.102" stop-color="white" style="stop-color:white;stop-opacity:1;"/>
<stop offset="0.885" stop-color="#D8E0FD" style="stop-color:#D8E0FD;stop-color:color(display-p3 0.8471 0.8784 0.9922);stop-opacity:1;"/>
</linearGradient>
</defs>
</svg>
