<svg width="35" height="36" viewBox="0 0 35 36" fill="none" xmlns="http://www.w3.org/2000/svg">
<mask id="mask0_1068_295" style="mask-type:alpha" maskUnits="userSpaceOnUse" x="0" y="0" width="35" height="36">
<rect y="0.97998" width="34.98" height="34.98" fill="#D9D9D9" style="fill:#D9D9D9;fill:color(display-p3 0.8510 0.8510 0.8510);fill-opacity:1;"/>
</mask>
<g mask="url(#mask0_1068_295)">
<rect x="15" y="0.97998" width="25" height="25" rx="4.94859" transform="rotate(36.6196 15 0.97998)" fill="#FFE0E0" style="fill:#FFE0E0;fill:color(display-p3 1.0000 0.8771 0.8771);fill-opacity:1;"/>
<path fill-rule="evenodd" clip-rule="evenodd" d="M15.5605 7.53319C13.8256 7.53319 11.991 8.18569 11.6532 8.99939C11.6378 9.04545 11.6071 9.08383 11.5688 9.11453C11.208 9.39089 10.9854 9.82077 10.9239 10.3504C10.8318 11.1718 11.1466 12.1237 11.7837 13.0218C12.0447 11.7552 12.0984 10.8187 11.9372 10.243C11.9065 10.1278 11.9526 10.005 12.0524 9.93591C12.1522 9.86682 12.2903 9.88218 12.3825 9.95894C13.7796 11.1258 14.9617 11.6631 16.0518 11.6094C15.7524 11.2639 15.4684 10.8187 15.2151 10.289C15.169 10.1892 15.1844 10.0664 15.2611 9.98197C15.3379 9.89753 15.453 9.86682 15.5605 9.90521C15.7294 9.96662 15.8829 10.0204 16.0364 10.0741C17.257 10.504 17.9248 10.7419 18.278 11.2409C18.5159 11.5787 18.5773 11.9855 18.5313 12.592C18.9842 11.8243 19.1915 11.0413 19.1147 10.3504C19.0533 9.81309 18.8383 9.39089 18.4699 9.11453C18.4161 9.06848 18.3778 9.00707 18.3624 8.93798C18.2089 7.94772 17.0037 7.65601 16.3051 7.57925C16.0671 7.54854 15.8138 7.53319 15.5605 7.53319ZM18.1091 13.9277C18.0707 13.9277 18.0323 13.92 17.9939 13.9046C17.8788 13.8509 17.8174 13.7281 17.8404 13.6052C18.0246 12.4922 18.0707 11.9011 17.8251 11.5556C17.5871 11.2256 17.0421 11.0106 16.0595 10.6652C16.3051 11.0567 16.5584 11.3637 16.8271 11.5863C16.9116 11.6554 16.9423 11.7629 16.9192 11.8627C16.8962 11.9625 16.8118 12.0469 16.712 12.07C16.451 12.1314 16.1823 12.1621 15.9136 12.1621C14.885 12.1621 13.8026 11.7245 12.5821 10.811C12.6128 11.5326 12.4899 12.4922 12.1982 13.7127C12.1752 13.8125 12.0984 13.8969 11.991 13.92C11.8912 13.943 11.7837 13.9123 11.7146 13.8279C10.7474 12.6918 10.2561 11.4021 10.3789 10.289C10.448 9.63653 10.732 9.08383 11.1773 8.71536C11.776 7.47946 14.4321 6.78858 16.3742 7.02655C17.7943 7.19543 18.6848 7.80187 18.8921 8.74607C19.322 9.11454 19.5983 9.65956 19.6674 10.2967C19.7902 11.4098 19.2989 12.6994 18.324 13.8355C18.2626 13.8893 18.1858 13.9277 18.1091 13.9277Z" fill="black" style="fill:black;fill-opacity:1;"/>
<path fill-rule="evenodd" clip-rule="evenodd" d="M15.0305 18.2575C13.2956 18.2575 11.8294 17.0599 11.246 15.1869C10.2097 14.7417 9.84123 13.8205 10.0331 13.145C10.1867 12.5846 10.6933 12.2852 11.2921 12.408C11.4456 12.4387 11.5377 12.5846 11.507 12.7304C11.4763 12.884 11.3305 12.9761 11.1846 12.9454C10.8699 12.884 10.6473 13.0068 10.5705 13.2908C10.44 13.7591 10.747 14.4192 11.5761 14.7186C11.6605 14.7493 11.722 14.8184 11.745 14.9029C12.2286 16.607 13.5182 17.7048 15.0382 17.7048C15.0458 17.7048 15.0458 17.7048 15.0535 17.7048C16.5658 17.6971 17.8401 16.5994 18.3083 14.9105C18.3314 14.8261 18.3928 14.757 18.4772 14.7263C19.36 14.4039 19.598 13.69 19.4751 13.2831C19.3984 13.0068 19.1758 12.884 18.861 12.9454C18.7152 12.9761 18.5617 12.884 18.5309 12.7304C18.5002 12.5846 18.5924 12.4311 18.7459 12.4003C19.337 12.2775 19.8436 12.5616 20.0048 13.1219C20.2044 13.8051 19.8359 14.734 18.7919 15.1792C18.2316 17.0446 16.773 18.2421 15.0458 18.2498C15.0458 18.2575 15.0382 18.2575 15.0305 18.2575Z" fill="black" style="fill:black;fill-opacity:1;"/>
<path fill-rule="evenodd" clip-rule="evenodd" d="M20.6586 20.9665C20.6126 20.9665 20.5665 20.9588 20.5281 20.9358C20.0675 20.6825 20.3899 20.8437 19.914 20.6211C19.7067 20.529 19.5072 20.4292 19.3152 20.3371C19.1771 20.268 19.1233 20.1068 19.1847 19.9686C19.2538 19.8304 19.415 19.7767 19.5532 19.8381C19.7451 19.9302 19.9447 20.0223 20.152 20.1221C20.6356 20.3447 20.3132 20.1912 20.7891 20.4445C20.9196 20.5136 20.9734 20.6825 20.8966 20.8207C20.8582 20.9205 20.7584 20.9665 20.6586 20.9665ZM6.6645 29.0575C6.21926 29.0575 5.69727 28.8425 5.69727 27.8369V24.4516C5.69727 22.095 7.93111 21.0433 9.89627 20.1221C10.0959 20.03 10.2954 19.9302 10.495 19.8381C10.6332 19.769 10.7944 19.8304 10.8635 19.9686C10.9326 20.1068 10.8712 20.268 10.733 20.3371C10.5334 20.4292 10.3338 20.529 10.1342 20.6211C8.22281 21.5192 6.24997 22.4404 6.24997 24.4516V27.8369C6.24997 28.451 6.45723 28.5048 6.6645 28.5048H20.5588C20.7124 28.5048 20.8352 28.6276 20.8352 28.7811C20.8352 28.9347 20.7124 29.0575 20.5588 29.0575H6.6645Z" fill="black" style="fill:black;fill-opacity:1;"/>
<path fill-rule="evenodd" clip-rule="evenodd" d="M12.5365 19.1012L11.055 19.6309C10.9552 19.6693 10.8938 19.7384 10.8631 19.8382C10.8324 19.938 10.8554 20.0301 10.9245 20.1145L12.099 21.5347C12.1604 21.6037 12.1758 21.6959 12.1527 21.788C12.1297 21.8724 12.0606 21.9415 11.9762 21.9722L10.8631 22.356C10.771 22.3867 10.7096 22.4482 10.6712 22.5479C10.6405 22.6401 10.6481 22.7322 10.7019 22.8166L13.711 27.5607L12.5365 19.1012ZM14.1716 29.0576C14.0795 29.0576 13.9874 29.0115 13.9413 28.9271L10.249 23.1007C10.1031 22.8704 10.0724 22.6094 10.1645 22.356C10.2566 22.1027 10.4409 21.9185 10.6942 21.8264L11.4311 21.573L10.51 20.46C10.3257 20.2373 10.2643 19.961 10.3411 19.6846C10.4179 19.4083 10.6098 19.201 10.8784 19.1012L12.6824 18.4564C12.7592 18.4257 12.8513 18.4334 12.9204 18.4794C12.9895 18.5255 13.0432 18.5946 13.0509 18.679L14.4557 28.7428C14.471 28.8733 14.4019 28.9961 14.2791 29.0422C14.233 29.0499 14.2023 29.0576 14.1716 29.0576Z" fill="black" style="fill:black;fill-opacity:1;"/>
<path fill-rule="evenodd" clip-rule="evenodd" d="M17.5035 19.1012L16.3214 27.553L19.3305 22.8089C19.3843 22.7245 19.3919 22.6401 19.3612 22.5403C19.3305 22.4482 19.2691 22.3867 19.1693 22.3484L18.0562 21.9645C17.9718 21.9338 17.9027 21.8647 17.8797 21.7803C17.8566 21.6959 17.872 21.5961 17.9334 21.527L19.1079 20.1068C19.177 20.0224 19.1923 19.9303 19.1693 19.8305C19.1386 19.7307 19.0772 19.6616 18.9774 19.6232L17.5035 19.1012ZM15.8685 29.0576C15.8377 29.0576 15.807 29.0499 15.7763 29.0422C15.6535 28.9961 15.5767 28.8733 15.5998 28.7428L17.0046 18.679C17.0122 18.5946 17.066 18.5255 17.1351 18.4794C17.2041 18.4334 17.2963 18.4257 17.373 18.4564L19.177 19.1012C19.4457 19.201 19.6376 19.4083 19.7143 19.6846C19.7911 19.961 19.7297 20.2373 19.5455 20.46L18.6243 21.573L19.3612 21.8264C19.6145 21.9108 19.8065 22.1027 19.8909 22.356C19.983 22.6094 19.9523 22.8704 19.8065 23.1007L16.1141 28.9271C16.0527 29.0115 15.9606 29.0576 15.8685 29.0576Z" fill="black" style="fill:black;fill-opacity:1;"/>
<path fill-rule="evenodd" clip-rule="evenodd" d="M15.0156 21.3814C14.1866 21.3814 13.3959 21.0436 12.7818 20.4218C12.6743 20.3143 12.6743 20.1378 12.7818 20.0303C12.8892 19.9228 13.0658 19.9228 13.1733 20.0303C13.6876 20.5446 14.3401 20.8287 15.0156 20.8287C15.6988 20.8287 16.3513 20.5446 16.8656 20.0303C16.9731 19.9228 17.1497 19.9228 17.2571 20.0303C17.3646 20.1378 17.3646 20.3143 17.2571 20.4218C16.643 21.0436 15.8447 21.3814 15.0156 21.3814Z" fill="black" style="fill:black;fill-opacity:1;"/>
<path fill-rule="evenodd" clip-rule="evenodd" d="M12.7656 19.0012C12.6121 19.0012 12.4893 18.8784 12.4893 18.7248V17.1128C12.4893 16.9592 12.6121 16.8364 12.7656 16.8364C12.9191 16.8364 13.042 16.9592 13.042 17.1128V18.7248C13.042 18.8784 12.9191 19.0012 12.7656 19.0012Z" fill="black" style="fill:black;fill-opacity:1;"/>
<path fill-rule="evenodd" clip-rule="evenodd" d="M17.2734 19.0015C17.1199 19.0015 16.9971 18.8786 16.9971 18.7251V17.1284C16.9971 16.9749 17.1199 16.8521 17.2734 16.8521C17.4269 16.8521 17.5498 16.9749 17.5498 17.1284V18.7251C17.5498 18.8786 17.4269 19.0015 17.2734 19.0015Z" fill="black" style="fill:black;fill-opacity:1;"/>
<path fill-rule="evenodd" clip-rule="evenodd" d="M10.4709 27.2539H9.80304C9.64951 27.2539 9.52669 27.1311 9.52669 26.9775C9.52669 26.824 9.64951 26.7012 9.80304 26.7012H10.1945V25.6265C10.1945 25.2043 9.8491 24.8589 9.41922 24.8589H8.88187C8.45967 24.8589 8.11423 25.2043 8.11423 25.6342V26.7089H8.50572C8.65925 26.7089 8.78208 26.8317 8.78208 26.9852C8.78208 27.1388 8.65925 27.2616 8.50572 27.2616H7.83787C7.68435 27.2616 7.56152 27.1388 7.56152 26.9852V25.6342C7.56152 24.9049 8.15261 24.3062 8.88955 24.3062H9.4269C10.1562 24.3062 10.7549 24.8972 10.7549 25.6342V26.9852C10.7472 27.1234 10.6244 27.2539 10.4709 27.2539Z" fill="black" style="fill:black;fill-opacity:1;"/>
<path fill-rule="evenodd" clip-rule="evenodd" d="M9.15916 24.8512C9.00564 24.8512 8.88281 24.7284 8.88281 24.5749V20.7827C8.88281 20.6292 9.00564 20.5063 9.15916 20.5063C9.31269 20.5063 9.43552 20.6292 9.43552 20.7827V24.5749C9.43552 24.7284 9.31269 24.8512 9.15916 24.8512Z" fill="black" style="fill:black;fill-opacity:1;"/>
<path fill-rule="evenodd" clip-rule="evenodd" d="M30.369 29.8257H21.5795C21.3646 29.8257 20.9961 29.7336 20.9961 29.1118V27.3308C20.9961 26.0719 22.3088 25.1354 24.5042 24.8207C24.6194 24.8053 24.7345 24.8897 24.7499 25.0049C24.7652 25.12 24.6808 25.2352 24.5656 25.2505C23.6445 25.381 22.8615 25.6344 22.3088 25.9875C21.7254 26.3559 21.426 26.8088 21.426 27.3308V29.1118C21.426 29.3881 21.5027 29.3881 21.5718 29.3881H30.3613C30.4304 29.3881 30.5072 29.3881 30.5072 29.1118V27.3308C30.5072 25.8186 28.1045 25.358 27.3675 25.2505C27.2524 25.2352 27.1679 25.1277 27.1833 25.0049C27.1986 24.8897 27.3061 24.8053 27.4289 24.8207C28.2503 24.9358 30.9371 25.4655 30.9371 27.3308V29.1118C30.9447 29.7336 30.584 29.8257 30.369 29.8257Z" fill="#DC2626" stroke="#DC2626" style="fill:#DC2626;fill:color(display-p3 0.8627 0.1490 0.1490);fill-opacity:1;stroke:#DC2626;stroke:color(display-p3 0.8627 0.1490 0.1490);stroke-opacity:1;" stroke-width="0.3"/>
<path fill-rule="evenodd" clip-rule="evenodd" d="M23.7131 21.1739C23.6133 21.1739 23.5442 21.2277 23.5135 21.3275C23.4521 21.5347 23.5826 21.8955 24.0432 22.0644C24.1122 22.0874 24.1583 22.1412 24.1813 22.2102C24.4884 23.3387 25.3021 23.7379 25.9546 23.7455H25.9623C26.7913 23.7455 27.4975 23.1468 27.7585 22.2102C27.7739 22.1412 27.8276 22.0874 27.889 22.0644C28.3727 21.8878 28.4725 21.5194 28.4187 21.3351C28.3957 21.243 28.3266 21.1432 28.1424 21.1816C28.0579 21.197 27.9735 21.1662 27.9274 21.0972C27.8814 21.0281 27.8737 20.936 27.9121 20.8669C28.3189 20.153 28.3343 19.5388 27.9581 19.0476C27.3594 18.2569 25.9009 17.9729 24.9643 18.2108C24.688 18.2799 24.212 18.4641 24.1429 18.8787C24.1353 18.9324 24.1046 18.9861 24.0585 19.0168C23.6133 19.3546 23.5979 20.1146 24.0201 20.8669C24.0585 20.9436 24.0585 21.0358 24.0048 21.1048C23.951 21.1739 23.8666 21.2046 23.7822 21.1893C23.7668 21.1739 23.7438 21.1739 23.7131 21.1739ZM25.9623 24.1754H25.9546C24.9643 24.1677 24.1276 23.4922 23.7975 22.4252C23.1987 22.1565 22.9915 21.6038 23.1066 21.2046C23.168 20.9897 23.3139 20.8362 23.5058 20.7748C23.1527 19.9611 23.2371 19.1627 23.7438 18.7175C23.8512 18.2646 24.2504 17.9345 24.8722 17.7809C25.9623 17.5046 27.605 17.8424 28.3189 18.7789C28.626 19.1781 28.8716 19.8382 28.4571 20.7748C28.649 20.8438 28.7949 20.9974 28.8563 21.2123C28.9714 21.6115 28.7642 22.1565 28.1654 22.4252C27.8046 23.4922 26.9602 24.1754 25.9623 24.1754Z" fill="#DC2626" stroke="#DC2626" style="fill:#DC2626;fill:color(display-p3 0.8627 0.1490 0.1490);fill-opacity:1;stroke:#DC2626;stroke:color(display-p3 0.8627 0.1490 0.1490);stroke-opacity:1;" stroke-width="0.3"/>
<path fill-rule="evenodd" clip-rule="evenodd" d="M25.9707 25.5032C25.4641 25.5032 24.9498 25.4187 24.4662 25.2499C24.3817 25.2191 24.3203 25.1347 24.3203 25.0426V23.3231C24.3203 23.2002 24.4201 23.1081 24.5353 23.1081C24.6581 23.1081 24.7502 23.2079 24.7502 23.3231V24.8814C25.5409 25.127 26.3929 25.127 27.1836 24.8814V23.3077C27.1836 23.1849 27.2834 23.0928 27.3986 23.0928C27.5214 23.0928 27.6135 23.1926 27.6135 23.3077V25.0349C27.6135 25.127 27.5521 25.2115 27.4676 25.2422C26.9917 25.4187 26.4851 25.5032 25.9707 25.5032Z" fill="#DC2626" stroke="#DC2626" style="fill:#DC2626;fill:color(display-p3 0.8627 0.1490 0.1490);fill-opacity:1;stroke:#DC2626;stroke:color(display-p3 0.8627 0.1490 0.1490);stroke-opacity:1;" stroke-width="0.3"/>
<path fill-rule="evenodd" clip-rule="evenodd" d="M7.0629 13.7199C5.6274 13.7199 4.46059 14.8944 4.46059 16.3298C4.46059 17.7653 5.6274 18.9322 7.0629 18.9322C8.49839 18.9322 9.6652 17.7653 9.6652 16.3298C9.6652 14.8944 8.49839 13.7199 7.0629 13.7199ZM7.0629 19.3851C5.37408 19.3851 4 18.011 4 16.3222C4 14.6334 5.37408 13.2593 7.0629 13.2593C8.75171 13.2593 10.1258 14.6334 10.1258 16.3222C10.1181 18.011 8.75171 19.3851 7.0629 19.3851Z" fill="#DC2626" stroke="#DC2626" style="fill:#DC2626;fill:color(display-p3 0.8627 0.1490 0.1490);fill-opacity:1;stroke:#DC2626;stroke:color(display-p3 0.8627 0.1490 0.1490);stroke-opacity:1;" stroke-width="0.1"/>
<path fill-rule="evenodd" clip-rule="evenodd" d="M7.0633 18.0345C6.94048 18.0345 6.83301 17.9347 6.83301 17.8042V14.8411C6.83301 14.7183 6.9328 14.6108 7.0633 14.6108C7.18612 14.6108 7.29359 14.7106 7.29359 14.8411V17.8042C7.28592 17.9347 7.18612 18.0345 7.0633 18.0345Z" fill="#DC2626" stroke="#DC2626" style="fill:#DC2626;fill:color(display-p3 0.8627 0.1490 0.1490);fill-opacity:1;stroke:#DC2626;stroke:color(display-p3 0.8627 0.1490 0.1490);stroke-opacity:1;" stroke-width="0.2"/>
<path fill-rule="evenodd" clip-rule="evenodd" d="M8.54398 16.5529H5.58088C5.45806 16.5529 5.35059 16.4531 5.35059 16.3226C5.35059 16.1998 5.45038 16.0923 5.58088 16.0923H8.54398C8.6668 16.0923 8.77427 16.1921 8.77427 16.3226C8.7666 16.4531 8.6668 16.5529 8.54398 16.5529Z" fill="#DC2626" stroke="#DC2626" style="fill:#DC2626;fill:color(display-p3 0.8627 0.1490 0.1490);fill-opacity:1;stroke:#DC2626;stroke:color(display-p3 0.8627 0.1490 0.1490);stroke-opacity:1;" stroke-width="0.2"/>
<path d="M29.9694 10.1582H21.8478C21.0034 10.1582 20.3125 10.8414 20.3125 11.6781V28.3667C20.3125 29.2034 20.9957 29.8866 21.8478 29.8866H29.9694C30.8139 29.8789 31.4894 29.2034 31.5047 28.3667V11.6781C31.5047 10.8337 30.8215 10.1582 29.9694 10.1582ZM20.9343 24.4978V11.6781C20.9343 11.1792 21.3411 10.7723 21.8478 10.7723H29.9694C30.4761 10.7723 30.8829 11.1792 30.8829 11.6781V24.4364C30.8753 24.421 30.8599 24.398 30.8522 24.3826C30.8369 24.3519 30.8522 24.6436 30.8369 24.6667L30.8292 24.6743L30.7908 26.0331C30.8139 26.1636 30.8369 26.2941 30.8522 26.4246C30.8753 26.6011 30.8829 26.7777 30.8829 26.9542V28.4281C30.8829 28.8503 30.4607 29.2648 29.9771 29.2648H21.8478C21.3411 29.2648 20.9343 28.858 20.9343 28.359V27.054C20.9343 26.8161 20.9036 26.5551 20.9343 26.3171" fill="black" style="fill:black;fill-opacity:1;"/>
<path d="M24.9799 12.0238H26.8453C27.0142 12.0238 27.1523 11.8856 27.1523 11.7167C27.1523 11.5478 27.0142 11.4097 26.8453 11.4097H24.9799C24.811 11.4097 24.6729 11.5478 24.6729 11.7167C24.6729 11.8856 24.8034 12.0238 24.9799 12.0238Z" fill="#DC2626" stroke="#DC2626" style="fill:#DC2626;fill:color(display-p3 0.8627 0.1490 0.1490);fill-opacity:1;stroke:#DC2626;stroke:color(display-p3 0.8627 0.1490 0.1490);stroke-opacity:1;" stroke-width="0.2"/>
</g>
</svg>
