<svg width="467" height="200" viewBox="0 0 467 200" fill="none" xmlns="http://www.w3.org/2000/svg">
<g opacity="0.37">
<path d="M369.704 134.294C370.634 134.262 371.515 133.881 372.161 133.232C372.806 132.583 373.167 131.715 373.167 130.813C373.167 129.906 372.795 129.036 372.134 128.394C371.473 127.753 370.576 127.393 369.641 127.393C368.707 127.393 367.81 127.753 367.149 128.394C366.488 129.036 366.116 129.906 366.116 130.813C366.108 131.272 366.195 131.729 366.372 132.155C366.549 132.581 366.813 132.968 367.148 133.293C367.483 133.618 367.882 133.874 368.321 134.046C368.76 134.218 369.231 134.302 369.704 134.294Z" fill="#FD5D5D" style="fill:#FD5D5D;fill:color(display-p3 0.9922 0.3647 0.3647);fill-opacity:1;"/>
<path d="M369.453 120.064C372.403 120.031 375.248 121.128 377.37 123.118C379.491 125.107 380.718 127.828 380.784 130.69H384.372C384.347 128.813 383.942 126.96 383.179 125.235C382.416 123.51 381.31 121.948 379.925 120.638C378.539 119.328 376.901 118.296 375.105 117.6C373.308 116.904 371.388 116.558 369.453 116.582V120.064Z" fill="#FD5D5D" style="fill:#FD5D5D;fill:color(display-p3 0.9922 0.3647 0.3647);fill-opacity:1;"/>
<path d="M369.576 125.622C370.287 125.614 370.993 125.742 371.653 125.999C372.313 126.255 372.914 126.635 373.423 127.117C373.931 127.599 374.337 128.174 374.617 128.808C374.896 129.442 375.044 130.124 375.053 130.813H378.641C378.608 128.492 377.629 126.277 375.919 124.652C374.209 123.027 371.906 122.125 369.513 122.141L369.576 125.622Z" fill="#FD5D5D" style="fill:#FD5D5D;fill:color(display-p3 0.9922 0.3647 0.3647);fill-opacity:1;"/>
<path d="M369.579 105.102C363.102 105.159 356.879 107.553 352.123 111.819C347.367 116.085 344.418 121.916 343.852 128.176C343.287 134.436 345.144 140.676 349.062 145.68C352.981 150.684 358.679 154.093 365.047 155.242C362.188 161.658 358.029 167.452 352.817 172.278C347.605 177.104 341.446 180.864 334.706 183.335C297.629 198.42 272.198 189.442 226.182 172.586C185.81 157.187 144.237 144.934 101.858 135.943C90.4194 133.332 78.6573 132.304 66.9216 132.89V113.835L72.8388 112.37C75.1888 111.745 77.4509 110.842 79.5743 109.682C83.6035 107.363 86.9099 104.029 89.1425 100.033L104.88 72.1843C105.154 71.6547 105.209 71.0431 105.034 70.4753C104.858 69.9075 104.465 69.4264 103.935 69.1307L100.221 67.1764C99.6849 66.9134 99.0642 66.8618 98.4893 67.0326C97.9145 67.2033 97.4299 67.5831 97.137 68.0925L81.3998 96.0023C80.2936 97.9774 78.7769 99.7082 76.9457 101.085C75.1146 102.462 73.0087 103.456 70.7615 104.003L66.9845 104.919L62.4522 106.018L57.9829 105.041L54.143 104.186C51.8803 103.698 49.7454 102.763 47.8718 101.439C45.9981 100.115 44.4257 98.4306 43.2528 96.4909L26.7602 69.0086C26.446 68.5041 25.941 68.1388 25.353 67.9904C24.765 67.8421 24.1405 67.9226 23.6128 68.2147L20.0247 70.2911C19.5091 70.5844 19.1338 71.0634 18.9806 71.6239C18.8273 72.1844 18.9085 72.7809 19.2064 73.2836L35.699 100.766C38.0631 104.689 41.4783 107.918 45.5819 110.11C47.7143 111.267 50.0025 112.13 52.3804 112.675L58.6753 113.957V134.111C50.6812 135.561 43.2414 139.086 37.1468 144.31C30.9845 149.839 27.2672 157.467 26.7744 165.596C26.2815 173.725 29.0512 181.724 34.5029 187.915L35.3213 188.832C37.8691 191.606 41.2263 193.564 44.9474 194.444C48.6684 195.324 52.5775 195.086 56.1559 193.761C59.7343 192.436 62.8127 190.087 64.9828 187.025C67.1529 183.963 68.3121 180.333 68.3065 176.617L67.0475 142.112C78.0839 141.442 89.1612 142.389 99.9067 144.921C141.872 153.71 183.045 165.739 223.035 180.892C253.565 191.946 276.226 200.13 299.58 199.824C312.903 199.564 326.041 196.741 338.231 191.519C346.667 188.453 354.304 183.625 360.603 177.377C366.901 171.13 371.707 163.614 374.678 155.364C381.096 154.207 386.832 150.757 390.753 145.694C394.674 140.631 396.494 134.325 395.853 128.023C395.212 121.721 392.157 115.882 387.292 111.66C382.427 107.439 376.106 105.142 369.579 105.224V105.102ZM58.5494 176.678C58.6119 178.643 58.0383 180.577 56.9092 182.21C55.7801 183.842 54.1523 185.09 52.2545 185.778C50.406 186.508 48.3685 186.66 46.427 186.211C44.4855 185.762 42.7374 184.735 41.4273 183.274L40.7349 182.541C36.7857 178.076 34.7703 172.302 35.1106 166.428C35.4508 160.554 38.1204 155.035 42.5604 151.028C47.0045 147.263 52.35 144.639 58.1087 143.394L58.5494 176.678ZM376.756 145.532C374.765 146.375 372.631 146.851 370.461 146.936C369.581 146.996 368.697 146.996 367.817 146.936C363.742 146.371 360.016 144.396 357.325 141.374C354.633 138.353 353.159 134.489 353.173 130.496C353.187 126.503 354.688 122.649 357.401 119.646C360.113 116.642 363.853 114.691 367.932 114.153C372.01 113.615 376.152 114.525 379.593 116.716C383.034 118.908 385.542 122.232 386.655 126.077C387.768 129.921 387.411 134.026 385.65 137.635C383.888 141.244 380.841 144.114 377.07 145.715L376.756 145.532Z" fill="#2E2E2E" style="fill:#2E2E2E;fill:color(display-p3 0.1804 0.1804 0.1804);fill-opacity:1;"/>
<path d="M47.7193 6.16571C47.7377 7.08656 47.4874 7.99372 46.9973 8.78253C46.5073 9.57134 45.7974 10.2097 44.9496 10.624C44.0338 11.064 43.0052 11.2339 41.991 11.1126H40.3543L32.4857 10.1354C32.1771 10.1102 31.8809 10.0067 31.6267 9.83514C31.3726 9.6636 31.1695 9.43016 31.0378 9.15827C24.6556 10.5109 18.536 12.8404 12.9086 16.0594C8.9662 18.384 6.10707 22.1018 4.93298 26.4303C3.75889 30.7588 4.36141 35.3605 6.61372 39.2667L23.1692 68.8255L19.5182 70.8408L2.71088 40.7935C-0.0324302 35.9366 -0.725583 30.2363 0.777419 24.8934C2.28042 19.5505 5.86225 14.9822 10.7683 12.1508C16.976 8.62182 23.7384 6.1048 30.7861 4.7C30.7798 4.26264 30.935 3.83753 31.2236 3.50151C31.5122 3.16548 31.9152 2.94069 32.3598 2.86783L41.8651 1.40212H42.5575C43.2271 1.39405 43.8918 1.51403 44.5136 1.75521C45.1354 1.99638 45.7021 2.35403 46.1815 2.80772C46.6608 3.26141 47.0433 3.80225 47.3072 4.39938C47.571 4.99651 47.7111 5.63824 47.7193 6.28788V6.16571Z" fill="#FD5D5D" style="fill:#FD5D5D;fill:color(display-p3 0.9922 0.3647 0.3647);fill-opacity:1;"/>
<path d="M119.547 39.4492L103.621 69.9851L99.9703 68.0308L115.833 37.4949C117.938 33.5015 118.366 28.8727 117.028 24.5799C115.69 20.287 112.69 16.6638 108.657 14.4707C102.952 11.3806 96.7642 9.2146 90.3392 8.05823C90.2118 8.32686 90.0193 8.56158 89.7782 8.74237C89.537 8.92317 89.2544 9.04465 88.9543 9.09644L81.0857 10.2568H79.512H78.7566C77.994 10.2539 77.2416 10.087 76.5534 9.76824C75.6934 9.36726 74.963 8.74547 74.4415 7.97031C73.9199 7.19515 73.6271 6.29622 73.5948 5.37106C73.5801 4.66158 73.723 3.95737 74.0137 3.30619C74.3043 2.65501 74.736 2.0721 75.2794 1.59707C75.8228 1.12204 76.4651 0.765989 77.1628 0.553084C77.8606 0.340178 78.5973 0.275417 79.3231 0.363166L88.8284 1.52355C89.2855 1.59311 89.7039 1.81318 90.0135 2.14684C90.323 2.48049 90.5047 2.90736 90.528 3.35567V3.66105C97.601 4.89679 104.423 7.22683 110.735 10.5622C115.837 13.2731 119.627 17.8317 121.278 23.2434C122.929 28.6551 122.307 34.4807 119.547 39.4492Z" fill="#FD5D5D" style="fill:#FD5D5D;fill:color(display-p3 0.9922 0.3647 0.3647);fill-opacity:1;"/>
<path d="M81.7767 9.89069L61.6331 50.5035L40.2305 10.6236H41.9301C42.9647 10.7463 44.0139 10.5767 44.9516 10.135L61.5071 40.6709L77.1814 9.4021C77.9093 9.72942 78.7096 9.87631 79.5105 9.8296H80.2029L81.7767 9.89069Z" fill="#D26A75" style="fill:#D26A75;fill:color(display-p3 0.8235 0.4157 0.4588);fill-opacity:1;"/>
</g>
<path d="M156.095 41.2017L151.407 67.7406H144.943L146.871 56.7394H136.815L134.887 67.7406H128.422L133.11 41.2017H139.575L137.722 51.6358H147.778L149.631 41.2017H156.095ZM166.319 46.3053L165.374 51.8248H174.032L173.162 56.7016H164.505L163.446 62.637H173.238L172.33 67.7406H156.074L160.762 41.2017H177.018L176.111 46.3053H166.319ZM193.88 63.0528H183.975L181.555 67.7406H174.788L189.078 41.2017H196.564L201.478 67.7406H194.636L193.88 63.0528ZM193.123 58.1382L191.573 48.309L186.508 58.1382H193.123ZM211.735 62.826H220.203L219.334 67.7406H204.401L209.089 41.2017H215.553L211.735 62.826ZM246.196 41.2017L245.327 46.3053H238.257L234.477 67.7406H228.012L231.793 46.3053H224.761L225.668 41.2017H246.196ZM272.426 41.2017L267.738 67.7406H261.274L263.202 56.7394H253.146L251.218 67.7406H244.753L249.441 41.2017H255.905L254.053 51.6358H264.109L265.961 41.2017H272.426ZM273.69 54.4333C274.144 51.8122 275.114 49.4809 276.601 47.4395C278.113 45.3728 279.979 43.7724 282.196 42.6383C284.414 41.4789 286.809 40.8993 289.379 40.8993C292.53 40.8993 295.075 41.731 297.016 43.3944C298.982 45.0578 300.091 47.3261 300.343 50.1992H293.235C292.908 49.1155 292.303 48.2964 291.421 47.7419C290.564 47.1622 289.505 46.8724 288.245 46.8724C286.254 46.8724 284.528 47.5655 283.066 48.9517C281.604 50.3126 280.672 52.1399 280.268 54.4333C280.142 55.139 280.079 55.7565 280.079 56.2858C280.079 58.05 280.571 59.4488 281.554 60.4821C282.537 61.5154 283.885 62.0321 285.599 62.0321C286.834 62.0321 287.981 61.7423 289.039 61.1626C290.123 60.5829 291.03 59.7512 291.761 58.6675H298.868C297.608 61.5406 295.705 63.8089 293.16 65.4723C290.614 67.1105 287.766 67.9296 284.616 67.9296C282.348 67.9296 280.369 67.4886 278.681 66.6065C276.992 65.7243 275.694 64.4768 274.787 62.8638C273.879 61.2508 273.426 59.3732 273.426 57.2309C273.426 56.2732 273.514 55.3407 273.69 54.4333ZM318.554 63.0528H308.649L306.23 67.7406H299.463L313.753 41.2017H321.238L326.153 67.7406H319.31L318.554 63.0528ZM317.798 58.1382L316.248 48.309L311.182 58.1382H317.798ZM344.613 41.2017C347.36 41.2017 349.452 41.8318 350.888 43.0919C352.325 44.3269 353.043 45.9399 353.043 47.9309C353.043 48.5106 352.993 49.0525 352.892 49.5565C352.59 51.3208 351.821 52.896 350.586 54.2821C349.351 55.6683 347.7 56.6512 345.634 57.2309L349.906 67.7406H342.609L338.867 57.7224H337.317L335.54 67.7406H329.075L333.763 41.2017H344.613ZM346.276 49.8212C346.327 49.4179 346.352 49.1533 346.352 49.0273C346.352 48.2208 346.087 47.6033 345.558 47.1748C345.054 46.7212 344.298 46.4944 343.29 46.4944H339.282L338.11 53.148H342.118C343.302 53.148 344.235 52.8581 344.915 52.2785C345.621 51.6988 346.075 50.8797 346.276 49.8212ZM363.982 46.3053L363.037 51.8248H371.694L370.825 56.7016H362.167L361.109 62.637H370.9L369.993 67.7406H353.737L358.425 41.2017H374.681L373.773 46.3053H363.982ZM400.292 63.0528H390.387L387.967 67.7406H381.2L395.491 41.2017H402.976L407.891 67.7406H401.048L400.292 63.0528ZM399.536 58.1382L397.986 48.309L392.92 58.1382H399.536ZM434.592 41.2017L433.723 46.3053H426.653L422.873 67.7406H416.408L420.189 46.3053H413.157L414.064 41.2017H434.592ZM150.387 85.2017L149.479 90.3053H138.667L137.684 96.0138H145.775L144.867 100.928H136.777L134.887 111.741H128.422L133.11 85.2017H150.387ZM160.249 85.2017L155.561 111.741H149.097L153.784 85.2017H160.249ZM183.987 111.741H177.523L169.622 95.3712L166.711 111.741H160.246L164.934 85.2017H171.398L179.3 101.647L182.211 85.2017H188.675L183.987 111.741ZM189.959 98.4333C190.412 95.8122 191.383 93.4809 192.87 91.4395C194.382 89.3728 196.26 87.7724 198.503 86.6383C200.746 85.4789 203.178 84.8993 205.799 84.8993C208.975 84.8993 211.52 85.668 213.436 87.2053C215.376 88.7427 216.435 90.8724 216.611 93.5943H209.504C209.176 92.7122 208.597 92.0443 207.765 91.5907C206.958 91.1118 205.963 90.8724 204.778 90.8724C202.686 90.8724 200.884 91.5655 199.372 92.9517C197.885 94.3126 196.94 96.1399 196.537 98.4333C196.411 99.1894 196.348 99.8447 196.348 100.399C196.348 102.264 196.89 103.701 197.973 104.709C199.057 105.717 200.595 106.221 202.586 106.221C204.199 106.221 205.623 105.818 206.858 105.011C208.092 104.18 209.088 103.008 209.844 101.496H201.678L202.472 96.7699H216.536L215.477 102.781C214.721 104.394 213.637 105.893 212.226 107.28C210.84 108.666 209.189 109.787 207.273 110.644C205.358 111.501 203.291 111.93 201.073 111.93C198.78 111.93 196.764 111.489 195.025 110.606C193.311 109.699 191.988 108.439 191.055 106.826C190.148 105.213 189.694 103.335 189.694 101.193C189.694 100.462 189.782 99.5423 189.959 98.4333ZM227.715 90.3053L226.77 95.8248H235.427L234.558 100.702H225.9L224.842 106.637H234.633L233.726 111.741H217.47L222.158 85.2017H238.414L237.507 90.3053H227.715ZM253.461 85.2017C256.208 85.2017 258.3 85.8318 259.736 87.0919C261.173 88.3269 261.891 89.9399 261.891 91.9309C261.891 92.5106 261.841 93.0525 261.74 93.5565C261.437 95.3208 260.669 96.896 259.434 98.2821C258.199 99.6683 256.548 100.651 254.481 101.231L258.753 111.741H251.457L247.714 101.722H246.164L244.388 111.741H237.923L242.611 85.2017H253.461ZM255.124 93.8212C255.174 93.4179 255.2 93.1533 255.2 93.0273C255.2 92.2208 254.935 91.6033 254.406 91.1748C253.902 90.7212 253.146 90.4944 252.138 90.4944H248.13L246.958 97.148H250.966C252.15 97.148 253.083 96.8581 253.763 96.2785C254.469 95.6988 254.922 94.8797 255.124 93.8212ZM286.364 85.2017L285.494 90.3053H278.425L274.644 111.741H268.18L271.96 90.3053H264.929L265.836 85.2017H286.364ZM296.073 85.2017L291.385 111.741H284.92L289.608 85.2017H296.073ZM319.471 93.7456C319.219 95.283 318.627 96.6943 317.694 97.9797C316.762 99.2398 315.489 100.261 313.876 101.042C312.288 101.823 310.41 102.214 308.243 102.214H304.236L302.534 111.741H296.07L300.758 85.2017H311.23C314.002 85.2017 316.094 85.8192 317.505 87.0541C318.916 88.2639 319.622 89.9147 319.622 92.0065C319.622 92.6366 319.572 93.2163 319.471 93.7456ZM308.621 97.148C311.04 97.148 312.464 96.0138 312.893 93.7456C312.943 93.3423 312.969 93.0525 312.969 92.8761C312.969 92.0696 312.704 91.4521 312.175 91.0236C311.671 90.57 310.889 90.3431 309.831 90.3431H306.315L305.143 97.148H308.621ZM330.208 112.005C327.335 112.005 324.991 111.388 323.177 110.153C321.387 108.893 320.493 107.116 320.493 104.822C320.493 104.596 320.518 104.255 320.568 103.802H327.297C327.222 104.759 327.449 105.515 327.978 106.07C328.507 106.624 329.314 106.902 330.397 106.902C331.38 106.902 332.149 106.687 332.703 106.259C333.283 105.83 333.573 105.226 333.573 104.444C333.573 103.638 333.208 102.983 332.477 102.478C331.771 101.974 330.662 101.407 329.15 100.777C327.688 100.172 326.491 99.6053 325.558 99.076C324.651 98.5216 323.857 97.7781 323.177 96.8455C322.496 95.913 322.156 94.7411 322.156 93.3297C322.131 91.5907 322.559 90.0785 323.441 88.7931C324.323 87.5078 325.546 86.5249 327.108 85.8444C328.671 85.1639 330.46 84.8236 332.477 84.8236C334.291 84.8236 335.904 85.1135 337.316 85.6932C338.727 86.2476 339.823 87.0667 340.605 88.1505C341.386 89.209 341.777 90.4692 341.777 91.9309C341.777 92.309 341.764 92.5862 341.739 92.7626H334.858C334.884 92.6618 334.896 92.5106 334.896 92.309C334.896 91.6033 334.644 91.0362 334.14 90.6078C333.661 90.1541 332.993 89.9273 332.136 89.9273C331.229 89.9273 330.486 90.1541 329.906 90.6078C329.351 91.0362 329.074 91.6285 329.074 92.3846C329.074 93.1407 329.427 93.7834 330.133 94.3126C330.838 94.8167 331.935 95.409 333.422 96.0895C334.909 96.7699 336.119 97.4 337.051 97.9797C338.009 98.5594 338.828 99.3407 339.508 100.324C340.189 101.281 340.529 102.466 340.529 103.877C340.529 105.44 340.113 106.839 339.282 108.074C338.45 109.308 337.253 110.279 335.69 110.985C334.127 111.665 332.3 112.005 330.208 112.005Z" fill="#BBBBBB" fill-opacity="0.53" style="fill:#BBBBBB;fill:color(display-p3 0.7345 0.7345 0.7345);fill-opacity:0.53;"/>
</svg>
