<svg width="35" height="36" viewBox="0 0 35 36" fill="none" xmlns="http://www.w3.org/2000/svg">
<mask id="mask0_1071_333" style="mask-type:alpha" maskUnits="userSpaceOnUse" x="0" y="0" width="35" height="36">
<rect y="0.939941" width="34.98" height="34.98" fill="#D9D9D9" style="fill:#D9D9D9;fill:color(display-p3 0.8510 0.8510 0.8510);fill-opacity:1;"/>
</mask>
<g mask="url(#mask0_1071_333)">
<rect x="14.9121" y="0.939941" width="25" height="25" rx="4.94859" transform="rotate(36.6196 14.9121 0.939941)" fill="#FFE0E0" style="fill:#FFE0E0;fill:color(display-p3 1.0000 0.8771 0.8771);fill-opacity:1;"/>
<path d="M28.8562 18.7601C28.219 17.9645 27.3366 17.3914 26.3563 17.1274L25.7416 15.5852L26.6202 14.3598C27.2688 13.451 27.6119 12.3802 27.6119 11.2641C27.6081 8.33052 25.2175 5.93994 22.284 5.93994C20.9303 5.93994 19.6068 6.18126 18.3399 6.65636L17.7177 6.89014C17.5179 6.77702 17.2879 6.70915 17.0428 6.70915H15.8023C14.6937 6.70915 13.7887 7.61033 13.7887 8.72267C13.7887 8.83202 13.7963 8.94136 13.8151 9.04694L13.7887 9.0658C13.3061 9.3863 13.0195 9.9255 13.0195 10.5024C13.0195 11.3847 13.6794 12.12 14.5542 12.218L16.1906 12.399C16.2057 12.4481 16.2246 12.5008 16.2434 12.5499L16.3792 12.8892C16.1982 13.0514 16.0888 13.2814 16.0888 13.534C16.0888 13.6433 16.1077 13.7527 16.1492 13.8507L16.7789 15.4231C16.9033 15.7285 17.1936 15.9283 17.5254 15.9283C17.5481 15.9283 17.5707 15.9283 17.5933 15.9246L17.7592 16.3431C18.2192 17.4894 19.3127 18.2322 20.5495 18.2322H20.7606C21.4016 18.2322 22.0087 18.0324 22.5178 17.6666L23.2266 18.8468C22.5856 19.6839 22.2312 20.717 22.2312 21.7728V25.1325H19.1657C19.1581 25.1325 19.1506 25.1325 19.143 25.1325C19.1393 25.1325 19.1317 25.1325 19.128 25.1325C19.128 25.1287 19.1317 25.1211 19.1317 25.1136H18.4002V26.094L17.2389 26.1468C17.0994 26.0902 16.8505 26.1128 16.6959 26.1128C16.4885 26.1128 16.2887 26.1694 16.1114 26.2712L16.1001 26.275L16.0964 26.2787C15.7306 26.554 15.4667 26.9612 15.3724 27.425H15.3498C15.3272 27.5532 15.3121 27.6852 15.3121 27.8209C15.3121 27.9491 15.3234 28.0735 15.346 28.1904H15.3724C15.429 28.4732 15.5496 28.7334 15.7193 28.9597L15.7872 29.0464C16.0398 29.4008 16.2887 29.5366 16.6997 29.5366C17.1107 29.5366 17.4802 29.3141 17.7366 28.9597H17.254C16.6205 28.9597 16.1039 28.4431 16.1039 27.8096C16.1039 27.1761 16.6205 26.6596 17.254 26.6596H18.404V28.9634L18.3361 29.7326H29.912V21.7615C29.912 20.6756 29.5387 19.6085 28.8562 18.7601ZM16.6884 10.5477C16.4697 10.5477 16.2698 10.427 16.1718 10.2271L16.0549 9.9896L15.3686 10.3327L15.4855 10.5703C15.6326 10.8644 15.8739 11.0831 16.1605 11.2075C16.1265 11.3395 16.1039 11.4752 16.0964 11.611L14.6409 11.4488C14.1545 11.396 13.7887 10.985 13.7887 10.4949C13.7887 10.2234 13.9019 9.97075 14.0979 9.78976C14.1771 9.91419 14.2714 10.0348 14.377 10.1404L14.6673 10.4308L15.2103 9.88779L14.9199 9.59745C14.6862 9.36368 14.5542 9.05071 14.5542 8.7189C14.5542 8.03264 15.1122 7.47459 15.7985 7.47459H17.039C17.3633 7.47459 17.6272 7.73853 17.6272 8.05904C17.6272 8.372 17.3746 8.62463 17.0616 8.62463C16.8467 8.62463 16.6506 8.50397 16.5564 8.31167L16.4357 8.07035L15.7495 8.41348L15.8701 8.65857C16.0964 9.11104 16.5526 9.39384 17.0616 9.39384C17.7969 9.39384 18.3927 8.79431 18.3927 8.06281C18.3927 7.86296 18.3474 7.67066 18.2683 7.50098L18.6038 7.37655C19.784 6.93539 21.0208 6.70915 22.2802 6.70915C24.7952 6.70915 26.8389 8.75283 26.8389 11.2678C26.8389 12.2218 26.5448 13.1381 25.9905 13.9186L25.1346 15.1139C24.2975 14.9442 23.5848 14.454 23.1286 13.7451C23.5283 13.4209 23.7658 12.9345 23.7658 12.4028C23.7658 12.1351 23.7017 11.8674 23.5811 11.6298L23.566 11.5959C23.6942 11.4488 23.7658 11.2565 23.7658 11.0567V11.0378C23.7658 10.9096 23.7357 10.7814 23.6791 10.6645L23.468 10.2385C23.3247 9.95566 23.0419 9.77844 22.7214 9.77844C22.5932 9.77844 22.465 9.80861 22.3481 9.86517L21.8277 10.1253C21.4394 9.66533 20.8624 9.39384 20.2516 9.39384H20.2365C19.9877 9.39384 19.7426 9.43909 19.5088 9.52581L16.8882 10.5099C16.8241 10.5326 16.7562 10.5477 16.6884 10.5477ZM21.1113 10.4873L17.0616 12.5122L16.9598 12.2595C16.892 12.0936 16.858 11.9164 16.858 11.7354C16.858 11.5846 16.8844 11.4338 16.9297 11.2905C17.0051 11.2754 17.0805 11.2565 17.1559 11.2264L19.7765 10.2422C19.9236 10.1894 20.0782 10.1593 20.2328 10.1593H20.2478C20.5721 10.163 20.8775 10.2799 21.1113 10.4873ZM17.5443 15.1478C17.5254 15.1554 17.5028 15.1478 17.4953 15.129L16.8656 13.5604C16.8618 13.5491 16.858 13.5378 16.858 13.5265C16.858 13.4925 16.8769 13.4624 16.9071 13.4473L22.6912 10.5552C22.6987 10.5514 22.7101 10.5477 22.7214 10.5477C22.7478 10.5477 22.7704 10.5627 22.7817 10.5854L22.9929 11.0114C22.9966 11.019 23.0004 11.0303 23.0004 11.0416V11.0605C23.0004 11.0831 22.9891 11.1057 22.9665 11.117L20.3119 12.6328V12.8553C20.3119 13.4209 19.999 13.9261 19.4937 14.1788L17.5443 15.1478ZM22.695 16.4525L22.3481 16.7994C21.9258 17.2217 21.3639 17.4555 20.7644 17.4555H20.5533C19.6332 17.4555 18.8188 16.9049 18.4756 16.049L18.306 15.6267L19.8406 14.8613C20.5382 14.5106 20.9944 13.8432 21.0698 13.0815L22.9212 12.022C22.974 12.1426 23.0004 12.2708 23.0004 12.4028C23.0004 12.7723 22.7968 13.1004 22.4687 13.2663L22.103 13.451L22.2764 13.7942C22.8156 14.8763 23.8073 15.6342 24.9951 15.8718L25.029 15.8793L25.5607 17.2066C24.897 17.4215 24.2862 17.7797 23.7734 18.2548L22.695 16.4525ZM19.9311 28.971H19.1657V25.9017H19.9349V28.971H19.9311ZM29.1428 28.971H27.0878C27.8721 28.3375 28.3735 27.3684 28.3735 26.2825V21.0677C28.3735 20.6152 28.1963 20.1892 27.8758 19.8687L27.3329 20.4116C27.5101 20.5851 27.6043 20.8189 27.6043 21.0677V26.2825C27.6043 27.7644 26.3977 28.971 24.9159 28.971H20.6928V25.9017H24.7575C25.0064 25.9017 25.2364 25.9997 25.4136 26.1732L25.9566 25.6302C25.6361 25.3097 25.21 25.1325 24.7575 25.1325H24.5313V22.3799C24.5313 21.1318 25.1949 19.9592 26.2658 19.3181L25.8774 18.6621C24.5765 19.4426 23.7734 20.8679 23.7734 22.3799V25.1325H23.0042V21.7615C23.0042 19.8875 24.2636 18.2925 26.0735 17.8514C27.8871 18.2925 29.1428 19.8875 29.1428 21.7615V28.971Z" fill="black" style="fill:black;fill-opacity:1;"/>
<path d="M13.0228 17.5083V17.4555C13.0228 17.3763 13.019 17.3009 13.0114 17.2218L15.5415 16.3771C15.8696 16.2678 16.0921 15.9624 16.0921 15.6155C16.0921 15.5137 16.0732 15.4118 16.0355 15.3176L15.402 13.7377C15.2776 13.4323 14.9873 13.2324 14.6554 13.2324H14.6441C14.531 13.2324 14.4217 13.255 14.3161 13.3003L11.2393 14.669C10.8471 14.4843 10.4097 14.3825 9.9497 14.3825C8.53571 14.3825 7.31025 15.3591 6.9709 16.7014C6.73335 16.7504 6.52973 16.9088 6.41661 17.1313L6.19415 17.5762C6.13759 17.6893 6.10742 17.8137 6.10742 17.9382C6.10742 18.1833 6.21677 18.4133 6.40153 18.5641L6.16398 19.1561C6.12628 19.2504 6.10742 19.3522 6.10742 19.454V19.4954C6.10742 19.8009 6.2771 20.0761 6.55236 20.2156L6.99729 20.4381C7.11041 20.4947 7.23484 20.5248 7.3555 20.5248C7.46485 20.5248 7.57043 20.5022 7.66469 20.4645C7.72125 20.687 7.87208 20.8793 8.08323 20.9848L8.52817 21.2073C8.63752 21.2639 8.76572 21.294 8.88638 21.294C8.99573 21.294 9.1013 21.2714 9.19557 21.2337C9.25213 21.4562 9.40295 21.6485 9.61411 21.7541L10.059 21.9765C10.1722 22.0331 10.2966 22.0632 10.4173 22.0632C10.7491 22.0632 11.0432 21.8634 11.1638 21.558L11.6201 20.4155C11.7181 20.3589 11.8011 20.2797 11.8652 20.1855L12.1178 20.2119C13.6751 20.3665 14.9986 21.3958 15.5491 22.8325H6.8804C6.45809 22.8325 6.11119 23.1793 6.11119 23.6017V24.3709C6.11119 24.7932 6.45432 25.1401 6.8804 25.1401H15.3643C15.4586 25.6076 15.7263 26.0149 16.0958 26.2901L16.1071 26.2864C16.2844 26.1845 16.4917 26.1506 16.6991 26.1506C16.8537 26.1506 17.178 26.1657 17.178 26.1657L18.3997 26.1883V25.125H19.1274C19.15 25.0043 19.1651 24.8837 19.1651 24.7555C19.1651 21.1508 16.5445 18.089 13.0228 17.5083ZM14.6328 14.0054C14.6366 14.0016 14.6441 14.0016 14.6479 14.0016H14.6592C14.6743 14.0016 14.6856 14.0092 14.6932 14.0243L15.3266 15.6041C15.3266 15.6079 15.3304 15.6117 15.3304 15.6192C15.3304 15.6343 15.3191 15.6494 15.304 15.6532L14.6291 15.8794L13.9579 14.3071L14.6328 14.0054ZM13.2528 14.6162L13.8975 16.1207L12.8606 16.4676C12.6909 15.9661 12.3931 15.5212 12.0047 15.1743L13.2528 14.6162ZM9.9497 15.1517C11.2204 15.1517 12.2536 16.1848 12.2536 17.4555H9.18426L7.72879 16.8485C7.99651 15.8643 8.90523 15.1517 9.9497 15.1517ZM7.39698 19.7368C7.38944 19.7556 7.36681 19.7669 7.34796 19.7556L6.90303 19.5331C6.89171 19.5256 6.88417 19.5143 6.88417 19.4992V19.4577C6.88417 19.454 6.88417 19.4502 6.88794 19.4427L7.10664 18.8921L7.64961 19.1184L7.39698 19.7368ZM8.93163 20.5022C8.92408 20.5211 8.90146 20.5324 8.88261 20.5211L8.43767 20.2986C8.42636 20.291 8.41882 20.2797 8.41882 20.2647V20.2232C8.41882 20.2194 8.41882 20.2156 8.42259 20.2081L8.68653 19.5482L9.22951 19.7745L8.93163 20.5022ZM10.4663 21.2714C10.4587 21.2903 10.4361 21.3016 10.4173 21.2903L9.97232 21.0678C9.96101 21.0603 9.95347 21.0489 9.95347 21.0339V20.9924C9.95347 20.9886 9.95347 20.9848 9.95724 20.9773L10.2664 20.2081L10.8094 20.4343L10.4663 21.2714ZM11.4806 19.2918L11.2581 19.7368C11.2506 19.7518 11.2355 19.7594 11.2204 19.7594H11.1865C11.1789 19.7594 11.1752 19.7594 11.1714 19.7556L6.9068 17.9796C6.89171 17.9721 6.8804 17.957 6.8804 17.9419C6.8804 17.9344 6.8804 17.9306 6.88417 17.9231L7.10664 17.4782C7.11418 17.4631 7.12926 17.4555 7.14435 17.4555H7.18205C7.18582 17.4555 7.19336 17.4555 7.19713 17.4593L11.4617 19.2353C11.4768 19.2428 11.4881 19.2579 11.4881 19.273C11.4881 19.2805 11.4843 19.2881 11.4806 19.2918ZM15.3643 24.3633H6.8804V23.5941H15.7112C15.5415 23.8204 15.4209 24.0805 15.3643 24.3633ZM12.2347 19.4464C12.246 19.3899 12.2536 19.3295 12.2536 19.273C12.2536 18.9449 12.0575 18.6508 11.7558 18.5264L11.0243 18.221H12.6118L12.6344 18.2247C15.3455 18.5641 17.5023 20.5324 18.1734 23.07C17.8982 22.9154 17.5777 22.8249 17.2383 22.8249H16.3749C15.7979 20.9924 14.169 19.65 12.2347 19.4464ZM17.3703 25.8942C16.6388 25.9734 16.0242 25.3588 16.0996 24.6235C16.1562 24.0881 16.586 23.662 17.1177 23.6054C17.8492 23.5262 18.4638 24.1409 18.3884 24.8761C18.3318 25.4078 17.902 25.8376 17.3703 25.8942Z" fill="#DC2626" style="fill:#DC2626;fill:color(display-p3 0.8627 0.1490 0.1490);fill-opacity:1;"/>
<path d="M16.5824 29.7255L16.6917 29.5445C16.2807 29.5445 15.9904 29.3296 15.734 28.9751L6.88054 28.9676V28.1984H15.3381C15.3154 28.0777 15.3041 27.9571 15.3041 27.8289C15.3041 27.6931 15.3154 27.5574 15.3418 27.4329H12.2537V26.6637C12.2537 26.2414 11.9106 25.8945 11.4845 25.8945H9.18062C8.75831 25.8945 8.41141 26.2377 8.41141 26.6637V27.4329H6.88054C6.45823 27.4329 6.11133 27.7761 6.11133 28.2022V28.9714C6.11133 29.3937 6.45446 29.7406 6.88054 29.7406H16.2091L16.5824 29.7255ZM9.18439 26.6675H11.4882V27.4367H9.18439V26.6675Z" fill="#DC2626" style="fill:#DC2626;fill:color(display-p3 0.8627 0.1490 0.1490);fill-opacity:1;"/>
<path d="M17.242 25.132C17.4544 25.132 17.6266 24.9598 17.6266 24.7474C17.6266 24.535 17.4544 24.3628 17.242 24.3628C17.0296 24.3628 16.8574 24.535 16.8574 24.7474C16.8574 24.9598 17.0296 25.132 17.242 25.132Z" fill="#DC2626" style="fill:#DC2626;fill:color(display-p3 0.8627 0.1490 0.1490);fill-opacity:1;"/>
<path d="M18.814 28.937H16.6572V29.5403H18.814V28.937Z" fill="black" style="fill:black;fill-opacity:1;"/>
</g>
</svg>
