<svg width="37" height="35" viewBox="0 0 37 35" fill="none" xmlns="http://www.w3.org/2000/svg">
<rect width="25" height="25" rx="4.94859" transform="matrix(0.817172 0.576394 -0.616533 0.787329 16.3232 0.756104)" fill="#FFE0E0" style="fill:#FFE0E0;fill:color(display-p3 1.0000 0.8771 0.8771);fill-opacity:1;"/>
<path d="M18.9902 12.687H22.6325V13.3784H18.9902V12.687Z" fill="#DC2626" style="fill:#DC2626;fill:color(display-p3 0.8627 0.1490 0.1490);fill-opacity:1;"/>
<path d="M18.9902 14.0696H22.6325V14.7609H18.9902V14.0696Z" fill="#DC2626" style="fill:#DC2626;fill:color(display-p3 0.8627 0.1490 0.1490);fill-opacity:1;"/>
<path d="M18.9902 15.4521H22.6325V16.1435H18.9902V15.4521Z" fill="#DC2626" style="fill:#DC2626;fill:color(display-p3 0.8627 0.1490 0.1490);fill-opacity:1;"/>
<path d="M18.9902 16.8357H22.6325V17.527H18.9902V16.8357Z" fill="#DC2626" style="fill:#DC2626;fill:color(display-p3 0.8627 0.1490 0.1490);fill-opacity:1;"/>
<path d="M14.9365 13.3157C15.2033 13.3996 15.4915 13.3996 15.7582 13.3157C15.8228 13.5321 15.9598 13.7227 16.1485 13.8587C16.3372 13.9948 16.5673 14.0689 16.8043 14.07H17.1685C17.2651 14.07 17.3577 14.1064 17.426 14.1712C17.4943 14.2361 17.5327 14.324 17.5327 14.4157V15.4527H18.2612V14.4157C18.2612 14.1406 18.146 13.8769 17.9411 13.6824C17.7362 13.4879 17.4583 13.3786 17.1685 13.3786H16.8043C16.7077 13.3786 16.615 13.3422 16.5467 13.2774C16.4784 13.2126 16.44 13.1246 16.44 13.033V12.9009C16.6735 12.6514 16.803 12.3296 16.8043 11.9959V11.3046C16.8043 10.9379 16.6508 10.5862 16.3776 10.3269C16.1043 10.0676 15.7338 9.92188 15.3474 9.92188C14.961 9.92188 14.5904 10.0676 14.3172 10.3269C14.044 10.5862 13.8905 10.9379 13.8905 11.3046V11.9959C13.8918 12.3296 14.0213 12.6514 14.2547 12.9009V13.033C14.2547 13.1246 14.2163 13.2126 14.148 13.2774C14.0797 13.3422 13.9871 13.3786 13.8905 13.3786H13.5263C13.2365 13.3786 12.9585 13.4879 12.7536 13.6824C12.5487 13.8769 12.4336 14.1406 12.4336 14.4157V15.4527H13.162V14.4157C13.162 14.324 13.2004 14.2361 13.2687 14.1712C13.337 14.1064 13.4297 14.07 13.5263 14.07H13.8905C14.1274 14.0689 14.3576 13.9948 14.5463 13.8587C14.735 13.7227 14.8719 13.5321 14.9365 13.3157ZM14.6189 11.3046C14.6189 11.1212 14.6957 10.9454 14.8323 10.8157C14.9689 10.6861 15.1542 10.6132 15.3474 10.6132C15.5406 10.6132 15.7259 10.6861 15.8625 10.8157C15.9991 10.9454 16.0758 11.1212 16.0758 11.3046V11.9959C16.0758 12.1793 15.9991 12.3551 15.8625 12.4848C15.7259 12.6145 15.5406 12.6873 15.3474 12.6873C15.1542 12.6873 14.9689 12.6145 14.8323 12.4848C14.6957 12.3551 14.6189 12.1793 14.6189 11.9959V11.3046Z" fill="#DC2626" style="fill:#DC2626;fill:color(display-p3 0.8627 0.1490 0.1490);fill-opacity:1;"/>
<path d="M19.3545 11.9959H22.2682C22.3648 11.9959 22.4575 11.9595 22.5258 11.8947C22.5941 11.8299 22.6325 11.7419 22.6325 11.6503V10.2676C22.6325 10.1759 22.5941 10.0879 22.5258 10.0231C22.4575 9.95829 22.3648 9.92188 22.2682 9.92188H19.3545C19.2579 9.92188 19.1652 9.95829 19.0969 10.0231C19.0286 10.0879 18.9902 10.1759 18.9902 10.2676V11.6503C18.9902 11.7419 19.0286 11.8299 19.0969 11.8947C19.1652 11.9595 19.2579 11.9959 19.3545 11.9959ZM19.7187 10.6132H21.904V11.3046H19.7187V10.6132Z" fill="#DC2626" style="fill:#DC2626;fill:color(display-p3 0.8627 0.1490 0.1490);fill-opacity:1;"/>
<path d="M29.9169 17.5267C29.9163 16.9768 29.6859 16.4495 29.2762 16.0607C28.8665 15.6718 28.3109 15.4532 27.7315 15.4526H25.5462V10.2674C25.5462 10.1758 25.5078 10.0878 25.4395 10.023C25.3712 9.95819 25.2786 9.92177 25.182 9.92177H24.0893V8.88474C24.0893 8.79306 24.0509 8.70514 23.9826 8.64031C23.9143 8.57548 23.8217 8.53906 23.7251 8.53906H11.3415C11.2449 8.53906 11.1522 8.57548 11.0839 8.64031C11.0156 8.70514 10.9773 8.79306 10.9773 8.88474V16.4896H9.88459C9.40178 16.4902 8.93891 16.6725 8.59751 16.9965C8.25611 17.3205 8.06405 17.7598 8.06348 18.218V27.5513C8.06405 28.0095 8.25611 28.4488 8.59751 28.7729C8.93891 29.0969 9.40178 29.2791 9.88459 29.2797H25.182C25.6504 29.2781 26.1002 29.1053 26.4379 28.7971C26.7756 28.489 26.9751 28.0691 26.9951 27.6249L29.9038 17.6186C29.9125 17.5887 29.9169 17.5577 29.9169 17.5267ZM24.8177 10.6131V18.218H24.0893V10.6131H24.8177ZM11.7057 9.23042H23.3609V18.218H16.2272L14.5128 16.5909C14.4445 16.5261 14.3519 16.4897 14.2553 16.4896H11.7057V9.23042ZM26.2746 27.5513C26.2746 27.8263 26.1595 28.0901 25.9546 28.2846C25.7497 28.4791 25.4718 28.5883 25.182 28.5883H9.88459C9.5948 28.5883 9.31687 28.4791 9.11196 28.2846C8.90704 28.0901 8.79192 27.8263 8.79192 27.5513V18.218C8.79192 17.943 8.90704 17.6792 9.11196 17.4847C9.31687 17.2903 9.5948 17.181 9.88459 17.181H14.1045L15.8189 18.8081C15.8872 18.8729 15.9798 18.9094 16.0764 18.9094H25.182C25.4718 18.9094 25.7497 19.0186 25.9546 19.2131C26.1595 19.4076 26.2746 19.6714 26.2746 19.9464V27.5513ZM27.0031 24.9985V19.9464C27.0026 19.5481 26.8574 19.1622 26.592 18.8536C26.3266 18.5451 25.9573 18.3328 25.5462 18.2526V16.144H27.7315C28.11 16.1438 28.4737 16.2834 28.7456 16.5332C29.0175 16.783 29.1763 17.1234 29.1884 17.4824L27.0031 24.9985Z" fill="black" style="fill:black;fill-opacity:1;"/>
<path d="M21.176 22.0204H19.3549V20.292C19.3549 20.2003 19.3165 20.1124 19.2482 20.0475C19.1799 19.9827 19.0873 19.9463 18.9907 19.9463H16.0769C15.9803 19.9463 15.8877 19.9827 15.8194 20.0475C15.7511 20.1124 15.7127 20.2003 15.7127 20.292V22.0204H13.8916C13.795 22.0204 13.7023 22.0568 13.634 22.1216C13.5657 22.1864 13.5273 22.2744 13.5273 22.366V25.1314C13.5273 25.2231 13.5657 25.3111 13.634 25.3759C13.7023 25.4407 13.795 25.4771 13.8916 25.4771H15.7127V27.2055C15.7127 27.2972 15.7511 27.3851 15.8194 27.4499C15.8877 27.5148 15.9803 27.5512 16.0769 27.5512H18.9907C19.0873 27.5512 19.1799 27.5148 19.2482 27.4499C19.3165 27.3851 19.3549 27.2972 19.3549 27.2055V25.4771H21.176C21.2726 25.4771 21.3653 25.4407 21.4336 25.3759C21.5019 25.3111 21.5403 25.2231 21.5403 25.1314V22.366C21.5403 22.2744 21.5019 22.1864 21.4336 22.1216C21.3653 22.0568 21.2726 22.0204 21.176 22.0204ZM20.8118 24.7858H18.9907C18.8941 24.7858 18.8015 24.8222 18.7331 24.887C18.6648 24.9518 18.6265 25.0398 18.6265 25.1314V26.8598H16.4411V25.1314C16.4411 25.0398 16.4028 24.9518 16.3345 24.887C16.2661 24.8222 16.1735 24.7858 16.0769 24.7858H14.2558V22.7117H16.0769C16.1735 22.7117 16.2661 22.6753 16.3345 22.6105C16.4028 22.5456 16.4411 22.4577 16.4411 22.366V20.6376H18.6265V22.366C18.6265 22.4577 18.6648 22.5456 18.7331 22.6105C18.8015 22.6753 18.8941 22.7117 18.9907 22.7117H20.8118V24.7858Z" fill="#DC2626" style="fill:#DC2626;fill:color(display-p3 0.8627 0.1490 0.1490);fill-opacity:1;"/>
</svg>
