<svg width="201" height="218" viewBox="0 0 201 218" fill="none" xmlns="http://www.w3.org/2000/svg">
<path d="M190.734 0.535685L90.7155 0.182207C85.0572 0.160725 80.4524 4.5913 80.4303 10.0781L79.6358 207.268C79.6137 212.755 84.1827 217.22 89.841 217.242L189.859 217.595C195.517 217.617 200.122 213.186 200.144 207.699L200.939 10.5092C200.961 5.02237 196.392 0.557092 190.734 0.535685Z" fill="#212851" style="fill:#212851;fill:color(display-p3 0.1294 0.1569 0.3176);fill-opacity:1;"/>
<path d="M161.47 7.31316H121.218C120.559 7.31316 120.025 6.76937 120.025 6.09859C120.025 5.42781 120.559 4.88403 121.218 4.88403H161.47C162.129 4.88403 162.663 5.42781 162.663 6.09859C162.663 6.76937 162.129 7.31316 161.47 7.31316Z" fill="#2A3266" style="fill:#2A3266;fill:color(display-p3 0.1647 0.1961 0.4000);fill-opacity:1;"/>
<path d="M186.187 210.001L93.5528 209.676C88.6919 209.658 84.7667 205.821 84.7857 201.108L85.545 20.1954C85.564 15.4818 89.5199 11.6755 94.3809 11.6939L187.015 12.0195C191.876 12.0379 195.801 15.8739 195.782 20.5876L195.023 201.5C195.004 206.214 191.048 210.02 186.187 210.001Z" fill="url(#paint0_linear_480_273)" style=""/>
<path d="M114.882 169.399C113.712 169.284 112.512 169.566 111.413 170.215C110.355 170.839 109.461 171.769 108.813 172.914C107.593 172.462 106.322 172.336 105.118 172.551C103.867 172.775 102.77 173.345 101.946 174.2C101.224 174.95 100.753 175.892 100.585 176.922C100.403 178.042 100.571 179.229 101.084 180.45C101.625 181.738 102.655 182.944 104.143 184.037C105.316 184.898 106.777 185.692 108.487 186.398C111.385 187.595 114.043 188.134 114.069 188.139C114.129 188.151 114.191 188.146 114.249 188.125C114.306 188.104 114.357 188.067 114.395 188.018C114.397 188.015 114.432 187.971 114.495 187.889C114.88 187.384 116.311 185.45 117.571 183.026C118.435 181.365 119.053 179.799 119.407 178.372C119.858 176.559 119.885 174.961 119.487 173.62C119.109 172.349 118.489 171.33 117.643 170.591C116.864 169.912 115.909 169.5 114.882 169.399ZM116.983 182.696C115.778 185.016 114.413 186.877 113.999 187.425C112.937 187.188 107.9 185.964 104.498 183.453L107.643 182.285C107.711 182.26 107.769 182.213 107.809 182.15C107.849 182.088 107.867 182.015 107.863 181.941L107.65 178.678L110.743 184.715C110.776 184.78 110.829 184.832 110.893 184.864C110.958 184.896 111.03 184.906 111.101 184.893C111.171 184.88 111.236 184.844 111.285 184.791C111.334 184.737 111.365 184.67 111.374 184.597L111.827 180.731L112.809 180.367C112.88 180.34 112.94 180.291 112.979 180.225C113.019 180.16 113.036 180.082 113.027 180.006L112.893 178.825L114.938 182.744C114.974 182.814 115.033 182.868 115.105 182.899C115.177 182.929 115.257 182.933 115.331 182.911C115.405 182.888 115.469 182.839 115.513 182.774C115.556 182.708 115.576 182.629 115.568 182.55L115.275 179.451L118.765 178.155C118.366 179.783 117.664 181.385 116.983 182.696ZM118.844 173.818C119.17 174.915 119.152 176.135 118.932 177.365L114.801 178.899C114.731 178.925 114.672 178.973 114.632 179.038C114.593 179.102 114.575 179.177 114.582 179.253L114.738 180.905L112.65 176.904C112.613 176.834 112.554 176.779 112.481 176.748C112.409 176.718 112.329 176.715 112.254 176.738C112.179 176.762 112.115 176.812 112.072 176.878C112.03 176.945 112.011 177.025 112.02 177.104L112.33 179.816L111.403 180.161C111.345 180.182 111.293 180.22 111.255 180.27C111.216 180.319 111.192 180.379 111.184 180.441L110.836 183.418L107.508 176.92C107.472 176.851 107.414 176.796 107.343 176.765C107.272 176.733 107.193 176.728 107.119 176.749C107.045 176.77 106.98 176.817 106.936 176.881C106.891 176.945 106.87 177.023 106.875 177.101L107.176 181.73L103.87 182.958C102.916 182.153 102.142 181.23 101.701 180.181C100.899 178.272 101.043 176.443 102.082 175.079C102.189 174.939 102.304 174.805 102.425 174.679C103.965 173.081 106.482 172.68 108.838 173.657C108.916 173.689 109.002 173.691 109.08 173.662C109.158 173.633 109.223 173.575 109.262 173.5C110.45 171.208 112.63 169.865 114.818 170.08C116.727 170.267 118.194 171.63 118.844 173.818ZM110.859 195.006C110.402 195.006 109.938 194.986 109.482 194.946C109.412 194.939 109.344 194.919 109.282 194.887C109.22 194.854 109.165 194.809 109.12 194.754C109.075 194.7 109.041 194.637 109.02 194.569C108.999 194.501 108.991 194.429 108.997 194.359C109.022 194.06 109.28 193.838 109.573 193.865C110.697 193.963 111.828 193.932 112.945 193.772C113.236 193.73 113.506 193.937 113.547 194.233C113.556 194.304 113.553 194.376 113.535 194.445C113.518 194.514 113.487 194.578 113.445 194.635C113.403 194.692 113.35 194.74 113.29 194.776C113.23 194.813 113.163 194.836 113.094 194.846C112.353 194.952 111.607 195.006 110.859 195.006ZM106.103 194.247C106.049 194.247 105.994 194.238 105.94 194.221C104.79 193.845 103.685 193.339 102.645 192.714C102.392 192.561 102.308 192.229 102.457 191.971C102.607 191.713 102.933 191.627 103.186 191.779C104.158 192.364 105.191 192.836 106.265 193.187C106.4 193.231 106.511 193.328 106.576 193.456C106.641 193.584 106.653 193.733 106.61 193.87C106.575 193.979 106.508 194.074 106.416 194.142C106.325 194.21 106.216 194.247 106.103 194.247ZM116.403 193.963C116.295 193.963 116.189 193.929 116.101 193.867C116.012 193.804 115.944 193.716 115.905 193.613C115.88 193.547 115.869 193.476 115.871 193.404C115.873 193.333 115.888 193.263 115.917 193.198C115.946 193.133 115.987 193.074 116.037 193.026C116.088 192.977 116.148 192.939 116.213 192.913C117.271 192.503 118.281 191.974 119.215 191.342C119.332 191.264 119.475 191.237 119.612 191.266C119.749 191.295 119.87 191.378 119.947 191.496C120.025 191.615 120.053 191.761 120.027 191.901C120 192.041 119.92 192.165 119.804 192.245C118.805 192.922 117.724 193.488 116.592 193.927C116.532 193.951 116.467 193.963 116.403 193.963ZM100.125 190.648C99.9887 190.648 99.8578 190.595 99.759 190.499C98.8815 189.653 98.1006 188.709 97.431 187.684C97.3923 187.625 97.3654 187.558 97.3519 187.488C97.3384 187.419 97.3385 187.347 97.3523 187.277C97.3661 187.207 97.3932 187.141 97.4321 187.081C97.4711 187.022 97.5211 186.971 97.5793 186.932C97.6375 186.893 97.7027 186.865 97.7713 186.851C97.8399 186.838 97.9105 186.838 97.979 186.852C98.0475 186.866 98.1127 186.893 98.1707 186.933C98.2288 186.973 98.2786 187.024 98.3173 187.083C98.9424 188.04 99.6715 188.921 100.491 189.711C100.568 189.786 100.622 189.882 100.645 189.989C100.668 190.095 100.659 190.205 100.619 190.306C100.58 190.407 100.512 190.493 100.424 190.554C100.335 190.615 100.231 190.648 100.125 190.648ZM122.181 190.043C122.044 190.043 121.914 189.99 121.815 189.894C121.764 189.845 121.723 189.787 121.695 189.722C121.666 189.657 121.651 189.586 121.649 189.515C121.647 189.444 121.659 189.373 121.684 189.307C121.709 189.24 121.746 189.179 121.794 189.127C122.569 188.292 123.25 187.371 123.824 186.381C123.896 186.257 124.013 186.167 124.15 186.132C124.287 186.096 124.432 186.117 124.553 186.19C124.675 186.263 124.763 186.383 124.798 186.522C124.833 186.661 124.813 186.809 124.741 186.933C124.126 187.993 123.397 188.979 122.567 189.873C122.518 189.927 122.458 189.97 122.391 189.999C122.325 190.028 122.253 190.043 122.181 190.043ZM96.2722 184.757C96.0598 184.757 95.8606 184.627 95.7798 184.413L95.7743 184.398C95.3467 183.252 95.0456 182.061 94.8765 180.847C94.8667 180.776 94.8707 180.704 94.8881 180.635C94.9056 180.566 94.9362 180.502 94.9782 180.445C95.0202 180.388 95.0729 180.34 95.1331 180.304C95.1933 180.267 95.2599 180.244 95.3291 180.234C95.3984 180.224 95.4688 180.228 95.5365 180.246C95.6042 180.263 95.6678 180.295 95.7237 180.337C95.7795 180.38 95.8266 180.434 95.8621 180.495C95.8976 180.557 95.9209 180.624 95.9307 180.695C96.0872 181.823 96.3698 182.941 96.7708 184.016C96.8751 184.296 96.7392 184.614 96.4649 184.72C96.4034 184.744 96.338 184.757 96.2722 184.757ZM125.714 183.952C125.659 183.952 125.604 183.943 125.551 183.926C125.484 183.904 125.423 183.869 125.369 183.823C125.316 183.777 125.272 183.721 125.24 183.658C125.208 183.594 125.189 183.525 125.183 183.454C125.177 183.383 125.185 183.312 125.207 183.244C125.552 182.149 125.775 181.018 125.873 179.873C125.898 179.574 126.156 179.353 126.449 179.379C126.589 179.392 126.719 179.46 126.81 179.57C126.901 179.681 126.945 179.823 126.933 179.966C126.829 181.193 126.59 182.403 126.221 183.575C126.186 183.685 126.118 183.78 126.027 183.848C125.936 183.916 125.827 183.952 125.714 183.952ZM95.3088 177.754C95.235 177.754 95.162 177.739 95.0944 177.709C95.0268 177.679 94.9662 177.634 94.9162 177.579C94.8663 177.524 94.8282 177.458 94.8044 177.387C94.7806 177.316 94.7715 177.24 94.7778 177.166C94.8815 175.939 95.1198 174.728 95.4882 173.556C95.5095 173.488 95.5437 173.425 95.5889 173.371C95.634 173.317 95.6893 173.272 95.7514 173.239C95.8136 173.207 95.8815 173.187 95.9511 173.181C96.0208 173.175 96.0909 173.183 96.1575 173.205C96.2919 173.249 96.4038 173.345 96.4684 173.473C96.533 173.601 96.5452 173.75 96.5021 173.887C96.158 174.982 95.9354 176.113 95.8386 177.258C95.8272 177.394 95.7664 177.52 95.6683 177.611C95.5703 177.703 95.442 177.754 95.3088 177.754ZM126.309 176.903C126.181 176.903 126.057 176.856 125.96 176.77C125.863 176.684 125.8 176.566 125.783 176.436C125.626 175.304 125.343 174.184 124.941 173.105L124.935 173.088C124.884 172.954 124.888 172.804 124.945 172.673C125.003 172.542 125.109 172.439 125.241 172.387C125.373 172.336 125.519 172.34 125.648 172.398C125.777 172.457 125.878 172.565 125.929 172.699L125.937 172.721C126.367 173.874 126.67 175.073 126.837 176.285C126.847 176.362 126.842 176.44 126.82 176.515C126.798 176.589 126.761 176.658 126.711 176.717C126.661 176.775 126.599 176.822 126.53 176.855C126.461 176.887 126.385 176.903 126.309 176.903ZM97.4238 171.016C97.33 171.015 97.2378 170.99 97.1567 170.942C97.0756 170.894 97.0084 170.825 96.9619 170.742C96.9154 170.659 96.8912 170.565 96.8919 170.469C96.8926 170.373 96.9181 170.28 96.9658 170.197C97.5796 169.137 98.308 168.15 99.1375 167.255C99.2345 167.151 99.3683 167.09 99.5094 167.086C99.6505 167.082 99.7874 167.135 99.89 167.234C99.9926 167.333 100.052 167.469 100.056 167.613C100.06 167.757 100.008 167.896 99.9111 168.001C99.1364 168.837 98.456 169.758 97.8828 170.749C97.8357 170.83 97.7686 170.897 97.6881 170.944C97.6076 170.991 97.5165 171.016 97.4238 171.016ZM123.833 170.272C123.745 170.272 123.659 170.25 123.581 170.208C123.504 170.166 123.438 170.105 123.389 170.03C122.764 169.074 122.034 168.193 121.214 167.403C121.113 167.304 121.055 167.168 121.052 167.026C121.049 166.883 121.101 166.745 121.197 166.641C121.294 166.537 121.426 166.476 121.566 166.471C121.706 166.466 121.842 166.518 121.945 166.615C122.823 167.46 123.605 168.404 124.275 169.428C124.328 169.51 124.359 169.605 124.364 169.703C124.368 169.801 124.347 169.899 124.302 169.985C124.256 170.072 124.189 170.144 124.106 170.195C124.023 170.245 123.929 170.272 123.833 170.272ZM102.195 165.876C102.081 165.876 101.969 165.839 101.877 165.77C101.786 165.7 101.718 165.602 101.685 165.491C101.652 165.38 101.655 165.26 101.693 165.15C101.732 165.041 101.804 164.947 101.899 164.882C102.898 164.204 103.979 163.637 105.11 163.198C105.242 163.146 105.389 163.151 105.518 163.21C105.646 163.268 105.747 163.377 105.797 163.511C105.848 163.646 105.843 163.795 105.786 163.926C105.728 164.058 105.621 164.16 105.489 164.212C104.432 164.622 103.423 165.152 102.489 165.785C102.402 165.845 102.3 165.876 102.195 165.876ZM118.787 165.412C118.692 165.412 118.599 165.386 118.517 165.337C117.545 164.753 116.512 164.282 115.438 163.931C115.303 163.887 115.191 163.791 115.126 163.663C115.062 163.535 115.05 163.386 115.093 163.249C115.136 163.112 115.23 162.998 115.356 162.932C115.481 162.866 115.627 162.854 115.762 162.898C116.912 163.273 118.018 163.778 119.058 164.403C119.159 164.463 119.237 164.555 119.281 164.666C119.325 164.776 119.332 164.898 119.301 165.013C119.27 165.128 119.203 165.229 119.111 165.301C119.018 165.374 118.904 165.413 118.787 165.412ZM108.682 163.356C108.547 163.356 108.418 163.304 108.319 163.21C108.221 163.116 108.161 162.988 108.152 162.852C108.143 162.715 108.184 162.58 108.269 162.473C108.353 162.366 108.474 162.296 108.608 162.277C109.351 162.17 110.102 162.116 110.853 162.115C111.307 162.115 111.767 162.136 112.22 162.175C112.36 162.187 112.491 162.256 112.582 162.366C112.673 162.476 112.717 162.618 112.705 162.762C112.68 163.06 112.421 163.28 112.129 163.256C111.005 163.158 109.874 163.19 108.757 163.351C108.732 163.355 108.707 163.356 108.682 163.356Z" fill="#99D1FF" style="fill:#99D1FF;fill:color(display-p3 0.6000 0.8196 1.0000);fill-opacity:1;"/>
<path d="M173.482 43.6126C173.457 43.6126 173.432 43.6109 173.406 43.6072C172.224 43.4365 171.072 43.0932 169.986 42.5878C169.86 42.527 169.762 42.4177 169.713 42.2836C169.665 42.1495 169.671 42.0015 169.729 41.8716C169.787 41.7417 169.893 41.6404 170.024 41.5897C170.155 41.539 170.301 41.543 170.429 41.6009C171.422 42.0629 172.475 42.3768 173.556 42.5329C173.689 42.5522 173.81 42.6223 173.895 42.729C173.98 42.8357 174.021 42.9711 174.012 43.108C174.003 43.2448 173.943 43.373 173.844 43.4666C173.746 43.5602 173.616 43.6124 173.482 43.6126ZM176.891 43.6106C176.756 43.6102 176.627 43.5579 176.529 43.4644C176.431 43.3708 176.371 43.2429 176.361 43.1062C176.352 42.9696 176.394 42.8343 176.478 42.7276C176.562 42.621 176.683 42.5507 176.816 42.531C177.897 42.3737 178.949 42.0586 179.942 41.5955C180.07 41.5356 180.217 41.5302 180.349 41.5803C180.481 41.6305 180.589 41.7321 180.647 41.863C180.706 41.9938 180.712 42.143 180.662 42.2779C180.613 42.4127 180.513 42.5222 180.385 42.5821C179.3 43.0885 178.148 43.433 176.967 43.6051C176.941 43.6089 176.916 43.6106 176.891 43.6106ZM167.338 40.7575C167.21 40.7576 167.086 40.7106 166.99 40.6251C166.088 39.8292 165.301 38.9065 164.654 37.8848C164.615 37.8249 164.589 37.7578 164.576 37.6874C164.562 37.6169 164.563 37.5445 164.578 37.4744C164.592 37.4042 164.62 37.3376 164.66 37.2786C164.7 37.2195 164.751 37.169 164.81 37.1302C164.869 37.0913 164.935 37.0647 165.004 37.052C165.074 37.0394 165.145 37.0408 165.213 37.0563C165.282 37.0718 165.347 37.101 165.405 37.1422C165.462 37.1834 165.511 37.2359 165.549 37.2965C166.141 38.2318 166.861 39.0764 167.687 39.8049C167.769 39.8773 167.827 39.9736 167.854 40.0808C167.881 40.188 167.875 40.301 167.837 40.4046C167.799 40.5083 167.731 40.5977 167.642 40.6608C167.553 40.7238 167.447 40.7576 167.338 40.7575ZM183.031 40.749C182.922 40.7491 182.816 40.7153 182.727 40.6523C182.638 40.5893 182.57 40.5 182.532 40.3964C182.494 40.2928 182.488 40.1799 182.515 40.0727C182.541 39.9655 182.6 39.8693 182.682 39.7968C183.507 39.0674 184.226 38.222 184.817 37.2861C184.893 37.1651 185.014 37.08 185.152 37.0495C185.29 37.019 185.434 37.0457 185.553 37.1235C185.671 37.2014 185.755 37.3241 185.785 37.4647C185.815 37.6053 185.789 37.7523 185.712 37.8733C185.066 38.8958 184.281 39.8194 183.379 40.6163C183.283 40.702 183.159 40.7491 183.031 40.749ZM163.68 34.9737C163.45 34.9737 163.238 34.8205 163.17 34.5842C162.835 33.4224 162.664 32.2137 162.663 30.9917C162.665 30.8497 162.722 30.7145 162.822 30.615C162.921 30.5155 163.055 30.4597 163.194 30.4596C163.334 30.4595 163.468 30.515 163.567 30.6143C163.667 30.7135 163.724 30.8487 163.727 30.9906C163.728 32.1094 163.884 33.2154 164.191 34.2781C164.215 34.359 164.219 34.4443 164.204 34.5274C164.19 34.6104 164.156 34.6888 164.107 34.7563C164.057 34.8238 163.993 34.8786 163.919 34.9164C163.845 34.9541 163.763 34.9737 163.68 34.9737ZM186.682 34.961C186.6 34.961 186.518 34.9414 186.444 34.9037C186.37 34.866 186.306 34.8112 186.256 34.7438C186.207 34.6763 186.173 34.598 186.158 34.515C186.144 34.432 186.148 34.3467 186.171 34.2658C186.477 33.2029 186.632 32.0968 186.632 30.9781V30.952C186.632 30.6524 186.87 30.4096 187.164 30.4096C187.458 30.4096 187.697 30.6524 187.697 30.952V30.9781C187.697 32.2002 187.527 33.409 187.193 34.5709C187.161 34.6834 187.093 34.7822 187.001 34.8525C186.909 34.9228 186.797 34.9609 186.682 34.961ZM163.674 28.0929C163.591 28.0929 163.509 28.0733 163.435 28.0356C163.361 27.998 163.297 27.9433 163.248 27.8759C163.198 27.8084 163.164 27.7302 163.15 27.6473C163.135 27.5644 163.139 27.4791 163.162 27.3982C163.497 26.2304 163.995 25.1177 164.64 24.0943C164.717 23.9741 164.837 23.8898 164.974 23.8596C165.112 23.8295 165.255 23.8561 165.374 23.9335C165.492 24.011 165.576 24.133 165.606 24.2729C165.636 24.4129 165.611 24.5594 165.536 24.6804C164.946 25.6165 164.49 26.6341 164.184 27.7021C164.152 27.8148 164.085 27.9137 163.993 27.9842C163.901 28.0546 163.789 28.0928 163.674 28.0929ZM186.675 28.0551C186.56 28.055 186.448 28.017 186.356 27.947C186.264 27.8769 186.197 27.7784 186.164 27.6662C185.855 26.5992 185.397 25.5831 184.804 24.6491C184.766 24.5893 184.74 24.5224 184.727 24.4524C184.714 24.3823 184.716 24.3104 184.73 24.2407C184.745 24.1711 184.773 24.1051 184.813 24.0464C184.852 23.9878 184.903 23.9377 184.962 23.899C185.02 23.8603 185.086 23.8338 185.155 23.8209C185.223 23.8081 185.294 23.8092 185.362 23.8241C185.431 23.8391 185.495 23.8676 185.553 23.908C185.61 23.9485 185.66 24.0001 185.698 24.0599C186.346 25.0812 186.847 26.1922 187.186 27.3588C187.209 27.4397 187.214 27.5252 187.199 27.6082C187.184 27.6913 187.151 27.7698 187.101 27.8374C187.052 27.905 186.987 27.9599 186.913 27.9977C186.839 28.0355 186.758 28.0551 186.675 28.0551ZM167.319 22.3007C167.211 22.3008 167.105 22.2671 167.016 22.2041C166.927 22.1411 166.858 22.0519 166.82 21.9484C166.782 21.8449 166.776 21.732 166.803 21.6248C166.83 21.5177 166.888 21.4214 166.97 21.3489C167.87 20.5505 168.878 19.8874 169.962 19.3797C170.026 19.3487 170.095 19.331 170.165 19.3275C170.236 19.324 170.306 19.3348 170.373 19.3593C170.439 19.3838 170.5 19.4215 170.552 19.4702C170.604 19.5189 170.646 19.5777 170.675 19.643C170.704 19.7084 170.721 19.779 170.723 19.8509C170.726 19.9228 170.714 19.9944 170.689 20.0617C170.664 20.1289 170.626 20.1904 170.578 20.2426C170.529 20.2948 170.471 20.3366 170.406 20.3657C169.414 20.8303 168.492 21.4371 167.668 22.1676C167.572 22.2535 167.448 22.3009 167.319 22.3007ZM183.011 22.2751C182.883 22.2753 182.76 22.2284 182.663 22.1431C181.837 21.4152 180.913 20.8115 179.919 20.3501C179.793 20.2893 179.695 20.1801 179.646 20.0462C179.598 19.9122 179.604 19.7643 179.662 19.6345C179.72 19.5046 179.826 19.4033 179.956 19.3524C180.087 19.3015 180.232 19.3051 180.36 19.3626C181.447 19.8668 182.456 20.5266 183.359 21.322C183.412 21.3686 183.456 21.4253 183.487 21.489C183.518 21.5526 183.537 21.622 183.542 21.693C183.547 21.7641 183.539 21.8355 183.517 21.9031C183.495 21.9707 183.46 22.0333 183.414 22.0872C183.364 22.1463 183.302 22.1936 183.233 22.2261C183.163 22.2585 183.088 22.2752 183.011 22.2751ZM173.454 19.4324C173.32 19.432 173.191 19.3798 173.093 19.2863C172.994 19.1928 172.935 19.0649 172.925 18.9283C172.916 18.7917 172.957 18.6565 173.041 18.5497C173.125 18.443 173.246 18.3727 173.379 18.3529C174.55 18.1809 175.768 18.1789 176.94 18.347C177.009 18.357 177.076 18.3807 177.136 18.4169C177.196 18.453 177.249 18.5009 177.291 18.5579C177.333 18.6148 177.363 18.6796 177.381 18.7485C177.398 18.8175 177.402 18.8893 177.393 18.9599C177.383 19.0304 177.36 19.0984 177.324 19.1597C177.289 19.2211 177.242 19.2748 177.186 19.3177C177.13 19.3605 177.066 19.3918 176.999 19.4096C176.931 19.4274 176.861 19.4314 176.791 19.4214C175.719 19.2676 174.603 19.2694 173.531 19.4268C173.506 19.4305 173.48 19.4324 173.454 19.4324ZM181.031 27.0946C180.896 27.0946 180.762 27.061 180.638 26.9949L175.757 24.3735C175.557 24.2663 175.41 24.0862 175.344 23.8666C175.277 23.647 175.298 23.4139 175.403 23.2105L176.043 21.9736C176.26 21.5537 176.772 21.3919 177.184 21.6133L182.066 24.2347C182.478 24.456 182.636 24.9777 182.419 25.3977L181.78 26.6346C181.728 26.7348 181.658 26.8237 181.572 26.8959C181.487 26.9682 181.388 27.0225 181.282 27.0556C181.2 27.0816 181.115 27.0946 181.031 27.0946ZM176.79 22.0697C176.736 22.0696 176.682 22.0848 176.635 22.1135C176.589 22.1422 176.55 22.1834 176.525 22.2326L175.885 23.4695C175.848 23.5416 175.841 23.6243 175.864 23.7021C175.888 23.7799 175.94 23.8438 176.011 23.8818L180.892 26.5033C180.927 26.522 180.965 26.5336 181.004 26.5373C181.044 26.541 181.083 26.5368 181.121 26.5248C181.158 26.5131 181.193 26.4938 181.224 26.4682C181.254 26.4426 181.279 26.4111 181.297 26.3756L181.937 25.1386C181.974 25.067 181.981 24.9834 181.958 24.9061C181.934 24.8288 181.881 24.7641 181.811 24.7263L176.93 22.1049C176.887 22.0817 176.839 22.0696 176.79 22.0697Z" fill="white" style="fill:white;fill-opacity:1;"/>
<path d="M172.015 40.4424C171.574 40.4424 171.136 40.333 170.734 40.1173C169.39 39.3955 168.872 37.6936 169.581 36.3237L175.887 24.1286C175.904 24.0963 175.927 24.0677 175.954 24.0443C175.982 24.021 176.013 24.0035 176.048 23.9927C176.082 23.9819 176.118 23.978 176.153 23.9814C176.189 23.9848 176.224 23.9953 176.255 24.0123L180.649 26.3714C180.713 26.4058 180.761 26.4647 180.783 26.535C180.804 26.6054 180.797 26.6816 180.764 26.7468L174.457 38.942C174.114 39.6056 173.538 40.0934 172.834 40.3154C172.569 40.3994 172.293 40.4422 172.015 40.4424ZM176.242 24.6333L170.063 36.5827C169.495 37.6816 169.91 39.0466 170.988 39.6257C171.511 39.9062 172.109 39.9626 172.673 39.7845C173.237 39.6065 173.699 39.2153 173.975 38.6829L180.154 26.7335L176.242 24.6333Z" fill="white" style="fill:white;fill-opacity:1;"/>
<path d="M171.451 38.7346C170.685 38.3234 170.391 37.3575 170.795 36.5772L174.687 29.0498L177.461 30.5388L173.568 38.0662C173.165 38.8465 172.217 39.1457 171.451 38.7346Z" fill="white" style="fill:white;fill-opacity:1;"/>
<path d="M118.752 152.102L102.109 131.75H84.8175V130.52H102.674L117.546 148.706V96.1896C117.546 93.3083 115.246 90.9642 112.418 90.9642H84.8174V89.7346H112.418C115.911 89.7346 118.752 92.6304 118.752 96.1896V152.102Z" fill="#A6D7FF" style="fill:#A6D7FF;fill:color(display-p3 0.6510 0.8431 1.0000);fill-opacity:1;"/>
<path d="M141.45 76.7092H85.0371V75.4795H141.45C144.277 75.4795 146.577 73.1354 146.577 70.2541V41.1489C146.577 38.2676 144.277 35.9235 141.45 35.9235H85.0371V34.6938H141.45C144.943 34.6938 147.784 37.5896 147.784 41.1489V70.2541C147.784 73.8134 144.943 76.7092 141.45 76.7092Z" fill="#A1D4FF" style="fill:#A1D4FF;fill:color(display-p3 0.6314 0.8314 1.0000);fill-opacity:1;"/>
<path d="M120.965 80.6699H22.5203C19.3553 80.6699 16.7896 83.2847 16.7896 86.5101V115.615C16.7896 118.841 19.3553 121.455 22.5203 121.455H110.938L126.696 140.725V86.5101C126.696 83.2847 124.13 80.6699 120.965 80.6699Z" fill="white" style="fill:white;fill-opacity:1;"/>
<path d="M81.0861 93.9125H115.722C116.506 93.9125 117.142 93.2648 117.142 92.4658V90.3441C117.142 89.5452 116.506 88.8975 115.722 88.8975H81.0861C80.3021 88.8975 79.6665 89.5452 79.6665 90.3441V92.4658C79.6665 93.2649 80.3021 93.9125 81.0861 93.9125ZM26.5768 93.9125H71.0548C71.8388 93.9125 72.4744 93.2648 72.4744 92.4658V90.3441C72.4744 89.5452 71.8388 88.8975 71.0548 88.8975H26.5768C25.7928 88.8975 25.1572 89.5452 25.1572 90.3441V92.4658C25.1573 93.2649 25.7929 93.9125 26.5768 93.9125ZM94.3488 103.714H115.722C116.506 103.714 117.142 103.067 117.142 102.268V100.146C117.142 99.3469 116.506 98.6992 115.722 98.6992H94.3488C93.5648 98.6992 92.9293 99.3469 92.9293 100.146V102.268C92.9293 103.067 93.5648 103.714 94.3488 103.714ZM74.438 103.714H84.8672C85.6512 103.714 86.2867 103.067 86.2867 102.268V100.146C86.2867 99.3469 85.6512 98.6992 84.8672 98.6992H74.438C73.654 98.6992 73.0184 99.3469 73.0184 100.146V102.268C73.0184 103.067 73.654 103.714 74.438 103.714ZM26.5768 103.714H65.3531C66.1371 103.714 66.7726 103.067 66.7726 102.268V100.146C66.7726 99.3469 66.1371 98.6992 65.3531 98.6992H26.5768C25.7928 98.6992 25.1572 99.3469 25.1572 100.146V102.268C25.1573 103.067 25.7929 103.714 26.5768 103.714ZM103.339 113.516H115.722C116.506 113.516 117.142 112.868 117.142 112.069V109.947C117.142 109.149 116.506 108.501 115.722 108.501H103.339C102.555 108.501 101.92 109.149 101.92 109.947V112.069C101.92 112.868 102.555 113.516 103.339 113.516ZM26.5768 113.516H94.7434C95.5274 113.516 96.1629 112.868 96.1629 112.069V109.947C96.1629 109.149 95.5274 108.501 94.7434 108.501H26.5768C25.7928 108.501 25.1572 109.149 25.1572 109.947V112.069C25.1573 112.868 25.7929 113.516 26.5768 113.516Z" fill="#DC2626" fill-opacity="0.38" style="fill:#DC2626;fill:color(display-p3 0.8627 0.1490 0.1490);fill-opacity:0.38;"/>
<path d="M70.8516 122.379H22.5207C18.8608 122.379 15.8833 119.344 15.8833 115.614V86.5091C15.8833 82.7793 18.8608 79.7449 22.5207 79.7449H75.4967C75.9974 79.7449 76.4034 80.1585 76.4034 80.6689C76.4034 81.1792 75.9975 81.5929 75.4967 81.5929H22.5207C19.8607 81.5929 17.6966 83.7983 17.6966 86.5091V115.614C17.6966 118.325 19.8607 120.53 22.5207 120.53H70.8516C71.3523 120.53 71.7583 120.944 71.7583 121.454C71.7583 121.965 71.3523 122.379 70.8516 122.379Z" fill="#DC2626" style="fill:#DC2626;fill:color(display-p3 0.8627 0.1490 0.1490);fill-opacity:1;"/>
<path d="M105.126 26.998H6.68188C3.51688 26.998 0.951172 29.6128 0.951172 32.8383V87.0528L16.709 67.7836H105.126C108.291 67.7836 110.857 65.1689 110.857 61.9434V32.8383C110.857 29.6128 108.291 26.998 105.126 26.998Z" fill="white" style="fill:white;fill-opacity:1;"/>
<path d="M66.9263 40.3248H12.1568C11.3729 40.3248 10.7373 39.6772 10.7373 38.8782V36.7565C10.7373 35.9575 11.3729 35.3098 12.1568 35.3098H66.9263C67.7103 35.3098 68.3459 35.9575 68.3459 36.7565V38.8782C68.3459 39.6772 67.7103 40.3248 66.9263 40.3248ZM101.302 40.3248H76.9575C76.1735 40.3248 75.538 39.6772 75.538 38.8782V36.7565C75.538 35.9575 76.1735 35.3098 76.9575 35.3098H101.302C102.086 35.3098 102.722 35.9575 102.722 36.7565V38.8782C102.722 39.6772 102.086 40.3248 101.302 40.3248ZM32.8581 50.1266H12.1568C11.3729 50.1266 10.7373 49.4789 10.7373 48.6799V46.5582C10.7373 45.7592 11.3729 45.1115 12.1568 45.1115H32.858C33.642 45.1115 34.2776 45.7592 34.2776 46.5582V48.6799C34.2776 49.4789 33.642 50.1266 32.8581 50.1266ZM85.1276 50.1266H43.0118C42.2278 50.1266 41.5923 49.4789 41.5923 48.6799V46.5582C41.5923 45.7592 42.2278 45.1115 43.0118 45.1115H85.1276C85.9116 45.1115 86.5472 45.7592 86.5472 46.5582V48.6799C86.5472 49.4789 85.9116 50.1266 85.1276 50.1266ZM101.302 50.1266H94.2125C93.4285 50.1266 92.7929 49.4789 92.7929 48.6799V46.5582C92.7929 45.7592 93.4285 45.1115 94.2125 45.1115H101.302C102.086 45.1115 102.722 45.7592 102.722 46.5582V48.6799C102.722 49.4789 102.086 50.1266 101.302 50.1266ZM56.0198 59.9282H12.1568C11.3729 59.9282 10.7373 59.2805 10.7373 58.4815V56.3598C10.7373 55.5609 11.3729 54.9132 12.1568 54.9132H56.0198C56.8037 54.9132 57.4393 55.5609 57.4393 56.3598V58.4815C57.4393 59.2806 56.8037 59.9282 56.0198 59.9282ZM101.302 59.9282H64.6156C63.8316 59.9282 63.1961 59.2805 63.1961 58.4815V56.3598C63.1961 55.5609 63.8316 54.9132 64.6156 54.9132H101.302C102.086 54.9132 102.722 55.5609 102.722 56.3598V58.4815C102.722 59.2806 102.086 59.9282 101.302 59.9282Z" fill="#DC2626" fill-opacity="0.38" style="fill:#DC2626;fill:color(display-p3 0.8627 0.1490 0.1490);fill-opacity:0.38;"/>
<path d="M0.951481 87.9756C0.71102 87.9755 0.480423 87.8781 0.310412 87.7048C0.140401 87.5315 0.0449023 87.2965 0.0449219 87.0515V32.837C0.0449219 29.1071 3.02242 26.0728 6.68234 26.0728H75.5445C76.0453 26.0728 76.4512 26.4864 76.4512 26.9968C76.4512 27.5072 76.0453 27.9208 75.5445 27.9208H6.68241C4.02243 27.9208 1.85834 30.1262 1.85834 32.8371V84.4995L16.0129 67.1908C16.098 67.0868 16.2045 67.0031 16.3249 66.9456C16.4452 66.8882 16.5765 66.8584 16.7094 66.8584H75.5445C76.0453 66.8584 76.4512 67.272 76.4512 67.7824C76.4512 68.2928 76.0453 68.7065 75.5445 68.7065H17.1341L1.64813 87.6432C1.56301 87.7472 1.45649 87.831 1.3361 87.8884C1.21571 87.9458 1.08441 87.9756 0.951481 87.9756Z" fill="#DC2626" style="fill:#DC2626;fill:color(display-p3 0.8627 0.1490 0.1490);fill-opacity:1;"/>
<path d="M178.429 179.065C178.429 179.065 178.76 184.067 180.631 193.01C180.631 193.01 169.369 199.134 153.128 199.134C136.887 199.134 128.006 193.01 128.006 193.01C129.876 184.067 129.34 177.419 129.34 177.419C129.34 177.419 138.255 171.759 153.128 171.759C168.001 171.759 178.429 179.065 178.429 179.065Z" fill="#F6AF9A" style="fill:#F6AF9A;fill:color(display-p3 0.9647 0.6863 0.6039);fill-opacity:1;"/>
<path d="M180.631 193.01C169.757 188.129 138.88 188.129 128.006 193.01C128.006 193.01 123.329 200.194 120.46 210.001H177.159C181.193 210.001 184.981 209.81 188.534 209.441C185.477 199.294 180.631 193.01 180.631 193.01Z" fill="#F6AF9A" style="fill:#F6AF9A;fill:color(display-p3 0.9647 0.6863 0.6039);fill-opacity:1;"/>
<path d="M184.071 195.868C181.597 192.339 181.102 191.129 181.102 191.129C181.102 191.129 180.806 188.911 180.379 186.894C179.952 184.877 179.202 184.989 179.202 184.989C179.202 184.989 173.39 186.692 153.947 186.692C134.504 186.692 129.184 184.989 129.184 184.989C129.184 184.989 128.433 184.877 128.006 186.894C127.58 188.911 127.283 191.129 127.283 191.129C127.283 191.129 126.788 192.339 124.315 195.868C122.65 198.243 119.82 202.811 117.815 210.001H177.159C181.888 210.001 186.28 209.738 190.35 209.235C188.363 202.485 185.675 198.158 184.071 195.868Z" fill="#323C7A" style="fill:#323C7A;fill:color(display-p3 0.1961 0.2353 0.4784);fill-opacity:1;"/>
<path d="M180.378 186.894C179.952 184.877 179.201 184.989 179.201 184.989C179.201 184.989 173.389 186.692 153.946 186.692C134.504 186.692 129.183 184.989 129.183 184.989C129.183 184.989 128.432 184.877 128.006 186.894C127.579 188.911 127.282 191.129 127.282 191.129C127.282 191.129 150.128 195.061 181.102 191.129C181.102 191.129 180.805 188.911 180.378 186.894Z" fill="#283169" style="fill:#283169;fill:color(display-p3 0.1569 0.1922 0.4118);fill-opacity:1;"/>
<path d="M133.246 185.716C133.246 185.716 131.176 186.915 130.335 192.822L133.246 193.194C133.246 193.194 134.475 187.572 136.544 186.067C136.544 186.067 134.928 185.355 133.246 185.716Z" fill="#D86749" style="fill:#D86749;fill:color(display-p3 0.8471 0.4039 0.2863);fill-opacity:1;"/>
<path d="M142.816 186.47L141.522 193.721L145.402 194.052C145.402 194.052 146.502 188.977 146.631 186.539C146.631 186.539 144.174 186.005 142.816 186.47Z" fill="#323C7A" style="fill:#323C7A;fill:color(display-p3 0.1961 0.2353 0.4784);fill-opacity:1;"/>
<path d="M176.874 185.446C176.874 185.446 179.023 187.791 179.799 192.074L176.874 192.414C176.874 192.414 175.79 187.723 174.108 185.813C174.108 185.813 175.501 185.342 176.874 185.446Z" fill="#D86749" style="fill:#D86749;fill:color(display-p3 0.8471 0.4039 0.2863);fill-opacity:1;"/>
<path d="M169.025 186.258C169.025 186.258 170.783 189.449 171.522 193.195H167.771C167.771 193.195 167.121 188.704 165.894 186.436C165.894 186.436 167.886 185.845 169.025 186.258Z" fill="#323C7A" style="fill:#323C7A;fill:color(display-p3 0.1961 0.2353 0.4784);fill-opacity:1;"/>
<path d="M178.483 210.002C175.002 204.643 173.362 197.617 173.362 197.617L173.356 197.939C173.352 198.248 173.124 204.207 175.972 210.002H178.483Z" fill="#CC6245" style="fill:#CC6245;fill:color(display-p3 0.8000 0.3843 0.2706);fill-opacity:1;"/>
<path d="M158.179 210.002C158.289 203.905 158.348 197.565 158.256 192.823L149.642 192.845C149.642 192.845 149.918 201.03 150.435 210.002H158.179Z" fill="#2C356B" style="fill:#2C356B;fill:color(display-p3 0.1725 0.2078 0.4196);fill-opacity:1;"/>
<path d="M155.746 198.543C156.536 197.737 156.535 196.432 155.746 195.627C154.956 194.822 153.675 194.822 152.885 195.627C152.095 196.432 152.095 197.738 152.885 198.543C153.675 199.348 154.956 199.348 155.746 198.543Z" fill="#303A75" style="fill:#303A75;fill:color(display-p3 0.1882 0.2275 0.4588);fill-opacity:1;"/>
<path d="M132.798 79.0054C132.798 79.0054 132.086 87.5107 132.612 94.7257C133.139 101.941 132.959 103.522 132.419 106.29C131.878 109.057 133.278 114.665 135.957 116.752C138.636 118.84 145.651 116.062 145.651 116.062L148.85 103.522C148.85 103.522 138.955 82.6569 132.798 79.0054Z" fill="#8C4949" style="fill:#8C4949;fill:color(display-p3 0.5490 0.2863 0.2863);fill-opacity:1;"/>
<path d="M136.727 113.263C136.777 113.263 136.825 113.249 136.868 113.222C136.911 113.196 136.945 113.158 136.969 113.113C136.992 113.068 137.002 113.017 136.999 112.967C136.996 112.916 136.979 112.867 136.95 112.826C135.115 110.142 135.597 106.796 136.221 104.181C136.912 101.288 136.252 97.8784 136.223 97.7347C136.194 97.5842 136.049 97.4872 135.902 97.5171C135.831 97.5317 135.769 97.5743 135.729 97.6357C135.689 97.6971 135.674 97.7722 135.688 97.8444C135.695 97.8785 136.353 101.278 135.691 104.049C135.039 106.778 134.543 110.278 136.503 113.144C136.528 113.18 136.561 113.21 136.6 113.231C136.639 113.252 136.683 113.263 136.727 113.263ZM139.701 113.929C139.749 113.929 139.795 113.916 139.836 113.892C139.877 113.868 139.911 113.834 139.936 113.793C139.96 113.751 139.973 113.704 139.974 113.656C139.975 113.608 139.964 113.56 139.941 113.518C139.332 112.373 139.449 110.969 140.333 108.823C141.195 106.73 140.012 102.927 139.961 102.766C139.95 102.732 139.932 102.699 139.909 102.671C139.886 102.644 139.858 102.621 139.826 102.604C139.794 102.587 139.759 102.577 139.723 102.574C139.688 102.571 139.652 102.576 139.618 102.587C139.584 102.598 139.552 102.616 139.525 102.639C139.497 102.663 139.475 102.692 139.459 102.724C139.442 102.757 139.432 102.792 139.429 102.829C139.426 102.865 139.431 102.902 139.442 102.936C139.453 102.974 140.614 106.704 139.83 108.607C138.875 110.926 138.765 112.474 139.461 113.783C139.485 113.827 139.519 113.864 139.562 113.89C139.604 113.915 139.652 113.929 139.701 113.929Z" fill="#7A3D3D" style="fill:#7A3D3D;fill:color(display-p3 0.4784 0.2392 0.2392);fill-opacity:1;"/>
<path d="M171.404 66.6028C171.404 66.6028 175.844 73.6987 176.119 84.0643C176.394 94.4299 174.012 95.9084 174.912 100.111C175.812 104.313 178.414 105.138 178.277 109.766C178.14 114.395 180.364 115.975 178.282 123.388C176.2 130.802 175.185 136.147 176.953 143.556C178.721 150.964 179.769 154.473 178.277 158.673C178.277 158.673 175.53 153.302 171.404 151.046C167.278 148.79 160.788 144.243 162.093 136.732C163.398 129.22 163.282 115.19 161.982 113.508C160.683 111.825 158.524 93.9755 158.524 93.9755L171.404 66.6028Z" fill="#8C4949" style="fill:#8C4949;fill:color(display-p3 0.5490 0.2863 0.2863);fill-opacity:1;"/>
<path d="M183.208 118.296C182.005 117.869 181.061 117.763 180.071 117.555C166.026 114.602 163.036 113.12 153.928 113.12C148.437 113.12 142.356 114.066 130.853 118.293C128.74 119.069 126.391 120.403 123.736 121.577C121.623 122.512 121.485 129.462 123.536 134.189C125.723 139.231 128.027 143.832 127.033 147.612C122.987 163.002 128.913 164.338 129.227 175.022C129.285 176.986 129.663 177.575 129.663 180.186C129.663 187.416 139.621 189.342 146.63 182.722C150.504 179.064 150.105 178.918 153.928 178.693C157.752 178.918 159.525 179.027 163.398 182.685C170.408 189.306 178.43 186.295 178.43 179.065C178.43 176.454 178.572 176.986 178.63 175.022C178.944 164.338 182.913 161.188 178.867 145.798C177.873 142.018 182.134 136.456 184.321 131.413C186.372 126.686 185.384 119.067 183.208 118.296Z" fill="#F6AF9A" style="fill:#F6AF9A;fill:color(display-p3 0.9647 0.6863 0.6039);fill-opacity:1;"/>
<path d="M161.981 113.507L160.992 101.327C160.817 90.7974 145.439 90.7902 145.264 101.328C145.192 102.118 144.167 114.67 144.152 115.004C144.516 128.011 163.713 126.402 161.981 113.507Z" fill="#F6AF9A" style="fill:#F6AF9A;fill:color(display-p3 0.9647 0.6863 0.6039);fill-opacity:1;"/>
<path d="M153.127 112.39C154.02 112.331 157.693 111.987 161.579 108.57C161.107 102.232 161.621 93.5512 153.126 93.313C144.634 93.5496 145.144 102.239 144.674 108.57C148.56 111.987 152.234 112.331 153.127 112.39Z" fill="#EA9A88" style="fill:#EA9A88;fill:color(display-p3 0.9176 0.6039 0.5333);fill-opacity:1;"/>
<path d="M129.183 184.988C124.64 184.2 128.563 174.693 127.165 167.836C126.556 164.846 125.007 163.702 124.611 158.257C124.215 152.812 127.032 146.429 127.032 146.429C128.266 145.463 129.459 143.536 129.666 138.192C129.873 132.848 129.33 118.92 129.33 118.92C130.229 117.25 144.212 114.213 144.212 114.213C144.212 114.213 144.153 122.438 153.246 122.438C163.283 122.438 161.982 113.506 161.982 113.506C164.844 113.033 171.601 115.676 171.601 115.676C169.912 137.224 176.258 143.636 177.347 144.645C178.435 145.653 178.866 145.798 178.866 145.798C178.866 145.798 180.413 147.697 181.601 153.652C182.789 159.608 181.403 164.811 180.68 166.727C179.957 168.643 180.315 177.617 180.63 180.743C180.946 183.868 179.201 184.988 179.201 184.988C179.201 184.988 172.432 187.33 165.836 187.666C159.24 188.002 155.417 187.435 151.457 187.666C149.941 187.755 148.438 187.774 146.972 187.739C144.01 187.671 140.318 188.138 137.836 187.776C132.214 186.956 129.183 184.988 129.183 184.988Z" fill="#E2D6CC" style="fill:#E2D6CC;fill:color(display-p3 0.8863 0.8392 0.8000);fill-opacity:1;"/>
<path d="M129.182 184.988C129.182 184.988 132.212 186.956 137.835 187.776C140.316 188.138 144.008 187.67 146.97 187.739C148.437 187.774 149.94 187.755 151.456 187.666C155.415 187.435 159.239 188.002 165.835 187.666C172.431 187.33 179.2 184.988 179.2 184.988C179.2 184.988 180.795 183.962 180.657 181.136L127.077 177.638C126.746 181.468 126.677 184.554 129.182 184.988Z" fill="#D9C6B6" style="fill:#D9C6B6;fill:color(display-p3 0.8510 0.7765 0.7137);fill-opacity:1;"/>
<path d="M161.58 134.156C160.158 141.541 160.469 144.309 164.17 147.746C164.17 147.746 166.544 159.209 165.768 171.6C165.345 178.359 166.258 183.916 167.176 187.572C173.318 187.024 179.201 184.988 179.201 184.988C179.201 184.988 180.946 183.868 180.63 180.743C180.315 177.617 179.957 168.643 180.68 166.727C181.403 164.811 182.789 159.608 181.601 153.652C180.413 147.697 178.866 145.798 178.866 145.798C178.866 145.798 178.435 145.653 177.346 144.645C176.258 143.636 169.912 137.224 171.601 115.676C171.601 115.676 164.844 113.033 161.981 113.506C161.981 113.506 162.024 113.795 162.034 114.268C162.224 117.189 162.799 127.829 161.58 134.156ZM142.923 137.034C143.789 130.011 141.757 114.774 141.757 114.774C137.704 115.731 129.99 117.694 129.33 118.919C129.33 118.919 129.873 132.847 129.666 138.192C129.459 143.536 128.266 145.463 127.032 146.429C127.032 146.429 124.215 152.812 124.611 158.257C125.007 163.702 126.556 164.846 127.165 167.836C128.563 174.693 124.64 184.2 129.183 184.988C129.183 184.988 132.214 186.956 137.836 187.776C138.148 187.821 138.479 187.854 138.825 187.876C140.78 179.405 139.256 165.941 139.256 165.941C139.256 165.941 138.766 161.351 139.013 156.853C139.261 152.356 142.057 144.057 142.923 137.034Z" fill="#D9C6B6" style="fill:#D9C6B6;fill:color(display-p3 0.8510 0.7765 0.7137);fill-opacity:1;"/>
<path d="M129.263 164.428C129.263 164.428 138.365 170.397 147.765 164.428C147.765 164.428 139.405 166.894 129.263 164.428Z" fill="#D9C6B6" style="fill:#D9C6B6;fill:color(display-p3 0.8510 0.7765 0.7137);fill-opacity:1;"/>
<path d="M147.342 152.014C147.123 149.655 146.59 147.584 145.757 145.857C145.083 144.461 144.213 143.285 143.171 142.363C141.377 140.777 139.699 140.494 139.628 140.482C139.592 140.477 139.555 140.475 139.518 140.478C139.453 140.484 137.912 140.631 136.141 141.972C134.537 143.186 132.418 145.662 131.429 150.566C130.549 154.925 131.453 158.465 132.366 160.668C133.236 162.767 134.262 164.064 134.535 164.39C134.618 165.088 135.419 166.056 135.929 166.374C136.559 166.767 137.382 166.565 137.767 165.923C138.153 165.281 137.955 164.442 137.325 164.049C136.857 163.758 135.799 163.493 135.127 163.639C134.779 163.196 133.927 162.02 133.204 160.265C132.35 158.192 131.507 154.86 132.335 150.756C133.066 147.135 134.556 144.372 136.643 142.767C138.032 141.699 139.269 141.466 139.541 141.426C139.831 141.489 141.186 141.839 142.608 143.115C144.733 145.021 146.051 148.129 146.421 152.103C146.815 156.347 145.924 159.3 145.108 161.03C144.433 162.459 143.697 163.312 143.382 163.639C142.711 163.493 141.652 163.758 141.184 164.05C140.554 164.442 140.356 165.281 140.741 165.923C141.127 166.565 141.95 166.767 142.58 166.374C143.095 166.053 143.907 165.068 143.976 164.369C144.31 164.034 145.146 163.105 145.916 161.494C146.797 159.649 147.76 156.507 147.342 152.014ZM159.775 164.428C169.175 170.397 178.277 164.428 178.277 164.428C178.277 164.428 173.545 165.755 169.026 165.755C164.508 165.755 159.775 164.428 159.775 164.428Z" fill="#D9C6B6" style="fill:#D9C6B6;fill:color(display-p3 0.8510 0.7765 0.7137);fill-opacity:1;"/>
<path d="M123.719 144.748C122.846 149.641 121.621 151.663 122.519 167.766C123.518 185.673 116.12 194.731 111.416 210.001H130.484C130.984 206.658 131.523 203.922 132.106 202.122C135.707 191.003 141.508 183.334 138.344 165.754C136.233 154.025 139.909 146.096 141.185 140.292C143.008 131.999 141.757 114.774 141.757 114.774C129.871 115.237 122.071 120.019 122.071 120.019C118.797 127.024 124.592 139.856 123.719 144.748Z" fill="white" style="fill:white;fill-opacity:1;"/>
<path d="M136.686 189.822C138.879 183.461 140.267 176.438 138.344 165.755C138.229 165.114 138.129 164.47 138.044 163.824L122.388 165.192C122.426 166.008 122.469 166.866 122.519 167.767C123.07 177.638 121.069 184.82 118.375 191.836C122.241 191.453 130.675 190.596 136.686 189.822Z" fill="#D4E8FC" style="fill:#D4E8FC;fill:color(display-p3 0.8314 0.9098 0.9882);fill-opacity:1;"/>
<path d="M183.031 167.767C183.929 151.663 182.703 149.641 181.83 144.749C180.958 139.856 189.544 126.203 184.241 117.608C184.241 117.608 175.463 114.391 163.577 113.928C163.577 113.928 162.542 131.999 164.365 140.293C165.641 146.096 168.054 155.238 167.031 165.255C166.008 175.272 168.644 191.197 172.244 202.316C172.827 204.116 174.566 206.658 175.066 210.001H177.16C183.23 210.001 188.745 209.568 193.737 208.749C189.027 194.225 182.06 185.178 183.031 167.767Z" fill="white" style="fill:white;fill-opacity:1;"/>
<path d="M186.602 190.31C185.038 186.04 183.777 181.642 183.231 176.557L167.04 175.76C167.361 180.002 168.003 184.543 168.863 188.976C173.669 189.586 182.981 190.659 186.602 190.31Z" fill="#D4E8FC" style="fill:#D4E8FC;fill:color(display-p3 0.8314 0.9098 0.9882);fill-opacity:1;"/>
<path d="M169.621 150.541C168.308 146.296 168.038 143.832 168.622 131.109C168.793 127.365 168.567 124.103 167.949 121.414C167.449 119.234 166.69 117.418 165.695 116.015C163.952 113.559 162.078 113.211 161.999 113.197C161.985 113.195 161.971 113.193 161.957 113.192L161.982 113.507C162.012 113.733 162.036 113.96 162.054 114.188C162.545 114.354 163.805 114.923 165.004 116.653C166.439 118.723 168.071 122.904 167.697 131.065C167.106 143.939 167.385 146.451 168.738 150.825C170.913 157.855 171.167 165.358 170.997 170.414C170.813 175.905 170.103 179.778 170.096 179.816C170.073 179.939 170.099 180.066 170.168 180.17C170.237 180.273 170.344 180.344 170.464 180.368C170.585 180.391 170.71 180.364 170.811 180.294C170.913 180.224 170.983 180.115 171.005 179.992C171.013 179.953 171.734 176.023 171.922 170.464C172.095 165.33 171.837 157.706 169.621 150.541Z" fill="#323C7A" style="fill:#323C7A;fill:color(display-p3 0.1961 0.2353 0.4784);fill-opacity:1;"/>
<path d="M172.545 180.356C172.237 182.863 170.207 184.982 170.207 184.982C170.207 184.982 169.345 184.992 169.216 184.975C167.714 184.783 166.771 182.405 167.108 179.662C167.445 176.919 168.936 174.851 170.437 175.043C170.478 175.048 171.172 175.037 171.172 175.037C171.172 175.037 172.873 177.689 172.545 180.356Z" fill="#293263" style="fill:#293263;fill:color(display-p3 0.1608 0.1961 0.3882);fill-opacity:1;"/>
<path d="M173.33 180.375C173.667 177.632 172.723 175.253 171.222 175.062C169.72 174.87 168.23 176.938 167.893 179.681C167.556 182.423 168.499 184.802 170.001 184.994C171.502 185.185 172.992 183.117 173.33 180.375Z" fill="#323C7A" style="fill:#323C7A;fill:color(display-p3 0.1961 0.2353 0.4784);fill-opacity:1;"/>
<path d="M174.958 127.414C175.18 122.156 179.543 118.077 184.702 118.303C188.733 118.479 192.058 121.231 193.214 124.933C193.214 124.933 194.931 127.81 194.255 139.615C193.578 151.42 192.652 157.007 193.288 162.823C193.923 168.64 195.008 175.372 194.285 178.396C194.1 182.795 190.45 186.208 186.133 186.019C182.27 185.85 179.182 182.852 178.71 179.071L178.612 179.075C178.612 179.075 178.165 171.045 178.041 161.572C177.923 152.548 175.673 136.491 175.199 130.02C175.006 129.187 174.921 128.312 174.958 127.414Z" fill="#F6AF9A" style="fill:#F6AF9A;fill:color(display-p3 0.9647 0.6863 0.6039);fill-opacity:1;"/>
<path d="M186.401 118.073C186.401 118.073 191.333 119.414 193.396 123.965C195.46 128.516 195.052 140.31 194.771 150.129C194.491 159.948 195.242 173.909 195.015 179.293C194.788 184.677 189.944 186.734 186.381 187.047C182.817 187.361 178.387 184.3 177.3 179.131C176.213 173.963 176.534 152.061 176.02 146.781C175.506 141.502 173.272 127.636 175.122 123.54C176.972 119.445 181.773 116.426 186.401 118.073Z" fill="white" style="fill:white;fill-opacity:1;"/>
<path d="M176.483 165.041C176.526 167.113 176.577 169.145 176.647 171.015L186.533 169.898C183.913 166.894 177.042 165.176 176.483 165.041Z" fill="#D4E8FC" style="fill:#D4E8FC;fill:color(display-p3 0.8314 0.9098 0.9882);fill-opacity:1;"/>
<path d="M180.34 135.828C180.34 135.828 179.355 142.017 179.296 145.837C179.238 149.657 178.702 164.688 177.773 170.905H174.558C174.558 170.905 177.449 158.872 177.261 149.475C177.173 145.095 178.317 140.099 180.34 135.828Z" fill="#D4E8FC" style="fill:#D4E8FC;fill:color(display-p3 0.8314 0.9098 0.9882);fill-opacity:1;"/>
<path d="M133.109 129.854C133.109 124.591 128.922 120.324 123.758 120.324C119.723 120.324 116.286 122.928 114.974 126.576C114.974 126.576 113.138 129.376 113.316 141.199C113.495 153.022 114.184 158.645 113.304 164.428C112.424 170.212 111.057 176.89 111.651 179.943C111.651 184.346 115.153 187.916 119.474 187.916C123.341 187.916 126.552 185.056 127.184 181.299L127.282 181.307C127.282 181.307 128.066 173.304 128.589 163.845C129.087 154.835 132.012 138.891 132.758 132.447C132.986 131.623 133.109 130.753 133.109 129.854Z" fill="#F6AF9A" style="fill:#F6AF9A;fill:color(display-p3 0.9647 0.6863 0.6039);fill-opacity:1;"/>
<path d="M122.071 120.02C122.071 120.02 117.088 121.145 114.834 125.601C112.581 130.058 112.492 141.858 112.358 151.681C112.224 161.503 110.885 175.418 110.885 180.807C110.885 186.196 115.638 188.463 119.185 188.932C122.732 189.402 127.287 186.537 128.59 181.421C129.894 176.305 130.497 154.409 131.233 149.157C131.969 143.905 134.786 130.149 133.11 125.977C131.434 121.804 126.765 118.577 122.071 120.02Z" fill="white" style="fill:white;fill-opacity:1;"/>
<path d="M128.549 135.828C128.549 135.828 129.534 142.017 129.592 145.837C129.65 149.657 127.434 164.688 128.363 170.905H132.141C132.141 170.905 131.107 153.303 131.342 149.951C131.576 146.598 130.571 140.099 128.549 135.828Z" fill="#D4E8FC" style="fill:#D4E8FC;fill:color(display-p3 0.8314 0.9098 0.9882);fill-opacity:1;"/>
<path d="M129.768 170.906C129.899 169.042 130.022 167.079 130.139 165.118C126.065 166.834 121.191 170.906 121.191 170.906H129.768Z" fill="#D4E8FC" style="fill:#D4E8FC;fill:color(display-p3 0.8314 0.9098 0.9882);fill-opacity:1;"/>
<path d="M176.952 143.555C178.72 150.964 179.767 154.473 178.275 158.673C178.275 158.673 175.529 153.302 171.402 151.045C167.276 148.789 160.786 144.243 162.091 136.731C163.163 130.564 162.545 119.904 162.048 114.486C161.995 113.914 161.893 113.412 161.936 112.95L163.391 111.408L178.543 112.985C179.018 115.651 179.808 117.95 178.281 123.388C176.198 130.801 175.184 136.147 176.952 143.555Z" fill="#8C4949" style="fill:#8C4949;fill:color(display-p3 0.5490 0.2863 0.2863);fill-opacity:1;"/>
<path d="M173.366 142.545C173.412 142.545 173.457 142.533 173.497 142.51C173.538 142.488 173.572 142.455 173.596 142.416C173.621 142.376 173.635 142.331 173.638 142.284C173.641 142.237 173.632 142.19 173.612 142.148C171.605 137.835 173.118 129.327 174.741 122.95C175.379 120.44 175.096 118.24 174.797 115.909C174.536 113.883 174.267 111.788 174.628 109.397C175.045 106.636 174.315 104.97 173.609 103.359C172.965 101.889 172.356 100.501 172.571 98.2964C173.024 93.6421 174.59 90.1342 174.606 90.0993C174.635 90.0326 174.636 89.9571 174.611 89.889C174.586 89.8209 174.535 89.7657 174.47 89.7352C174.405 89.7048 174.331 89.7014 174.264 89.726C174.197 89.7506 174.141 89.8011 174.11 89.8666C174.094 89.9023 172.49 93.4896 172.028 98.2416C171.799 100.593 172.466 102.114 173.11 103.585C173.815 105.194 174.481 106.713 174.088 109.313C173.716 111.782 173.99 113.917 174.256 115.982C174.548 118.257 174.824 120.406 174.213 122.81C172.568 129.277 171.042 137.923 173.119 142.386C173.141 142.434 173.176 142.474 173.22 142.502C173.264 142.53 173.314 142.545 173.366 142.545ZM166.666 130.765C166.714 130.765 166.76 130.752 166.802 130.728C166.843 130.704 166.877 130.669 166.901 130.627C166.925 130.586 166.938 130.538 166.939 130.49C166.939 130.442 166.928 130.394 166.905 130.352C165.644 128.036 166.381 124.058 169.094 118.529C170.631 115.398 169.875 113.886 168.624 111.381C168.299 110.732 167.931 109.996 167.559 109.143C165.876 105.284 168.573 103.164 168.688 103.075C168.746 103.031 168.784 102.965 168.795 102.892C168.805 102.82 168.786 102.745 168.743 102.686C168.7 102.627 168.636 102.588 168.564 102.578C168.493 102.567 168.42 102.586 168.362 102.63C168.33 102.654 165.196 105.095 167.06 109.369C167.438 110.235 167.81 110.978 168.137 111.633C169.391 114.141 170.02 115.4 168.606 118.281C165.807 123.984 165.074 128.135 166.427 130.621C166.451 130.665 166.486 130.701 166.528 130.726C166.57 130.751 166.617 130.765 166.666 130.765Z" fill="#7A3D3D" style="fill:#7A3D3D;fill:color(display-p3 0.4784 0.2392 0.2392);fill-opacity:1;"/>
<path d="M176.007 152.167C176.046 152.167 176.084 152.158 176.12 152.142C176.155 152.126 176.186 152.102 176.212 152.073C176.238 152.043 176.257 152.008 176.268 151.971C176.28 151.933 176.283 151.893 176.278 151.854C175.938 149.078 173.244 146.776 170.868 144.745C169.763 143.8 168.719 142.908 168.071 142.092C166.258 139.805 167.942 137.103 169.428 134.719L169.667 134.335C171.275 131.738 170.733 126.449 170.709 126.225C170.706 126.188 170.695 126.153 170.678 126.121C170.661 126.089 170.637 126.061 170.61 126.038C170.582 126.015 170.549 125.997 170.515 125.987C170.481 125.977 170.444 125.974 170.409 125.977C170.373 125.981 170.338 125.992 170.307 126.01C170.275 126.028 170.248 126.051 170.225 126.08C170.203 126.109 170.186 126.141 170.176 126.177C170.166 126.212 170.163 126.248 170.167 126.285C170.173 126.338 170.712 131.605 169.205 134.038L168.967 134.421C167.383 136.963 165.587 139.844 167.647 142.441C168.328 143.299 169.391 144.208 170.517 145.171C172.817 147.136 175.423 149.364 175.737 151.923C175.745 151.99 175.777 152.052 175.827 152.097C175.877 152.142 175.941 152.167 176.007 152.167Z" fill="#7A3D3D" style="fill:#7A3D3D;fill:color(display-p3 0.4784 0.2392 0.2392);fill-opacity:1;"/>
<path d="M153.246 57.6477C153.246 57.6477 174.232 56.2259 171.325 82.6481C168.419 109.07 155.048 110.374 153.246 110.492C151.444 110.374 138.074 109.07 135.167 82.6481C132.261 56.2259 153.246 57.6477 153.246 57.6477Z" fill="#F6AF9A" style="fill:#F6AF9A;fill:color(display-p3 0.9647 0.6863 0.6039);fill-opacity:1;"/>
<path d="M168.473 85.4542C168.473 85.4542 170.18 82.4413 172.485 83.1943C174.463 83.8402 173.726 91.4414 170.259 94.926C166.599 98.604 166.773 89.7937 168.473 85.4542Z" fill="#F6AF9A" style="fill:#F6AF9A;fill:color(display-p3 0.9647 0.6863 0.6039);fill-opacity:1;"/>
<path d="M171.94 85.8799C171.884 85.6895 171.686 85.5815 171.5 85.639C169.39 86.2862 169.057 91.4095 169.026 91.9915C169.021 92.0868 169.053 92.1803 169.116 92.2514C169.178 92.3225 169.266 92.3654 169.359 92.3706C169.565 92.3711 169.721 92.2226 169.732 92.0307C169.758 91.5398 169.816 90.9699 169.906 90.3837C170.213 89.9034 170.818 89.1542 171.248 89.0389C171.339 89.0146 171.416 88.9546 171.464 88.8721C171.511 88.7896 171.524 88.6914 171.5 88.5991C171.451 88.407 171.257 88.2919 171.069 88.3426C170.77 88.4227 170.473 88.6366 170.209 88.8873C170.536 87.6195 171.03 86.5353 171.704 86.3286C171.793 86.301 171.869 86.2382 171.913 86.1541C171.957 86.07 171.967 85.9713 171.94 85.8799Z" fill="#E57E73" style="fill:#E57E73;fill:color(display-p3 0.8980 0.4941 0.4510);fill-opacity:1;"/>
<path d="M137.705 85.4542C137.705 85.4542 135.998 82.4413 133.693 83.1943C131.715 83.8402 132.452 91.4414 135.919 94.926C139.579 98.604 139.405 89.7937 137.705 85.4542Z" fill="#F6AF9A" style="fill:#F6AF9A;fill:color(display-p3 0.9647 0.6863 0.6039);fill-opacity:1;"/>
<path d="M137.153 91.9915C137.122 91.4095 136.788 86.2862 134.679 85.639C134.492 85.5815 134.295 85.6895 134.239 85.8799C134.225 85.9252 134.221 85.9727 134.225 86.0197C134.23 86.0668 134.244 86.1124 134.266 86.1541C134.288 86.1957 134.317 86.2326 134.353 86.2625C134.389 86.2924 134.431 86.3149 134.475 86.3285C135.149 86.5353 135.643 87.6194 135.97 88.8873C135.706 88.6365 135.409 88.4226 135.11 88.3425C135.019 88.3183 134.923 88.3317 134.842 88.3798C134.761 88.4279 134.702 88.5067 134.678 88.599C134.655 88.6914 134.668 88.7896 134.715 88.8721C134.762 88.9545 134.84 89.0145 134.93 89.0389C135.36 89.1541 135.966 89.9034 136.272 90.3836C136.363 90.9698 136.421 91.5398 136.447 92.0306C136.452 92.1225 136.491 92.209 136.557 92.2723C136.622 92.3357 136.709 92.371 136.799 92.3711C137.014 92.3597 137.163 92.19 137.153 91.9915Z" fill="#E57E73" style="fill:#E57E73;fill:color(display-p3 0.8980 0.4941 0.4510);fill-opacity:1;"/>
<path d="M135.285 67.3603C139.213 56.4636 152.197 56.686 152.197 56.686C178.491 55.1294 172.94 83.5153 172.94 83.5153C169.988 82.4084 168.406 86.2817 167.798 88.2961C167.867 88.6881 167.928 89.0816 167.98 89.4764C168.417 92.8122 167.435 93.0345 166.016 94.8135C164.598 96.5926 165.471 98.4829 165.471 98.4829C163.944 96.9262 164.38 93.8129 165.471 92.4786C166.562 91.1443 166.78 86.4743 165.907 84.6953C165.39 83.6409 165.409 82.157 165.624 80.6833C165.519 80.6029 165.409 80.5328 165.289 80.4807C162.998 79.4799 158.852 76.589 156.888 75.4771C154.924 74.3652 153.178 72.9198 151.76 69.9177C150.342 66.9155 150.014 62.8015 150.014 62.8015C148.487 67.9162 142.486 70.14 141.286 71.919C140.58 72.9655 139.874 74.6278 139.413 76.4755C139.644 77.8649 139.831 79.5191 139.604 80.3859C139.168 82.0538 138.731 82.4986 139.277 83.8329C139.822 85.1672 140.913 85.6119 140.477 88.1693C140.041 90.7267 138.513 92.3945 139.713 93.7288C140.913 95.0631 140.259 98.3988 139.386 98.7324C139.386 98.7324 140.15 95.9526 138.731 94.3959C137.313 92.8393 136.986 90.1707 137.968 88.5028C138.199 88.1094 138.17 87.4891 138.123 86.718C136.485 82.3709 133.238 83.5153 133.238 83.5153C133.238 83.5153 131.357 78.2569 135.285 67.3603Z" fill="#8C4949" style="fill:#8C4949;fill:color(display-p3 0.5490 0.2863 0.2863);fill-opacity:1;"/>
<path d="M150.014 63.0805C150.061 63.0804 150.107 63.0681 150.147 63.0447C150.188 63.0213 150.222 62.9876 150.247 62.9469C150.271 62.9061 150.285 62.8597 150.286 62.812C150.288 62.7644 150.277 62.7171 150.256 62.6747C150.241 62.6459 148.791 59.7626 148.476 57.0908C148.471 57.0545 148.46 57.0195 148.443 56.9877C148.425 56.9559 148.401 56.9279 148.373 56.9053C148.345 56.8828 148.313 56.8661 148.278 56.8563C148.244 56.8464 148.208 56.8436 148.172 56.8479C148.137 56.8523 148.102 56.8637 148.071 56.8816C148.04 56.8995 148.012 56.9235 147.99 56.9522C147.968 56.9809 147.952 57.0138 147.942 57.0489C147.932 57.0841 147.93 57.1208 147.934 57.1571C148.261 59.9307 149.71 62.8089 149.771 62.9302C149.794 62.9755 149.829 63.0135 149.872 63.04C149.915 63.0665 149.964 63.0805 150.014 63.0805ZM137.357 77.1046C137.393 77.1045 137.429 77.0973 137.462 77.0832C137.495 77.0691 137.525 77.0485 137.551 77.0225C137.576 76.9965 137.596 76.9657 137.61 76.9318C137.623 76.8979 137.63 76.8616 137.63 76.825C137.61 73.4447 139.684 69.7018 142.453 68.1185C145.135 66.5854 147.268 63.0963 147.358 62.9485C147.396 62.8857 147.408 62.8102 147.391 62.7384C147.374 62.6667 147.331 62.6046 147.269 62.5659C147.207 62.5271 147.133 62.5149 147.063 62.5319C146.992 62.5489 146.932 62.5936 146.894 62.6564C146.872 62.6914 144.743 66.1717 142.186 67.6336C139.257 69.3083 137.063 73.2612 137.085 76.8283C137.085 76.9017 137.114 76.972 137.165 77.0238C137.216 77.0755 137.285 77.1046 137.357 77.1046Z" fill="#7A3D3D" style="fill:#7A3D3D;fill:color(display-p3 0.4784 0.2392 0.2392);fill-opacity:1;"/>
<path d="M134.223 79.6185C134.292 79.6185 134.359 79.5914 134.409 79.5429C134.46 79.4944 134.49 79.4281 134.495 79.3575C134.981 71.2327 138.082 66.7555 140.599 64.4303C143.324 61.9117 145.972 61.3005 145.999 61.2946C146.069 61.2789 146.131 61.2353 146.17 61.1733C146.209 61.1113 146.222 61.036 146.207 60.964C146.2 60.9283 146.185 60.8945 146.165 60.8645C146.144 60.8345 146.118 60.8089 146.088 60.7892C146.058 60.7694 146.025 60.7559 145.989 60.7494C145.954 60.7429 145.918 60.7436 145.883 60.7513C145.77 60.7762 143.088 61.3899 140.257 63.9959C137.655 66.3902 134.449 70.993 133.95 79.3236C133.948 79.3615 133.953 79.3995 133.966 79.4352C133.979 79.4708 133.998 79.5035 134.024 79.5311C134.049 79.5588 134.08 79.5808 134.114 79.5958C134.149 79.6108 134.185 79.6185 134.223 79.6185ZM166.666 79.948C166.716 79.948 166.764 79.9341 166.807 79.9079C166.85 79.8817 166.884 79.8442 166.907 79.7993C166.93 79.7545 166.941 79.704 166.938 79.6535C166.935 79.6029 166.919 79.5541 166.89 79.5124C166.26 78.579 165.247 77.7311 163.407 76.1917C162.44 75.3827 161.237 74.3758 159.746 73.0679C155.562 69.3986 152.064 60.9996 152.029 60.9152C152.001 60.8473 151.947 60.7934 151.88 60.7656C151.814 60.7377 151.738 60.7382 151.672 60.7667C151.605 60.7953 151.552 60.8497 151.525 60.918C151.498 60.9862 151.498 61.0628 151.526 61.1307C151.67 61.4802 155.109 69.7341 159.39 73.4892C160.886 74.8013 162.092 75.8104 163.061 76.6213C164.862 78.1286 165.855 78.9588 166.441 79.8275C166.466 79.8647 166.5 79.8951 166.539 79.9161C166.578 79.9371 166.622 79.9481 166.666 79.948ZM172.772 79.6185C172.946 79.6042 173.057 79.4696 173.044 79.3166C172.657 74.747 171.422 70.7945 169.373 67.5691C167.73 64.9836 165.566 62.8589 162.94 61.254C158.472 58.524 154.279 58.2519 154.103 58.2416C153.954 58.2332 153.824 58.3499 153.815 58.5032C153.811 58.5768 153.836 58.649 153.884 58.7041C153.932 58.7591 153.999 58.7924 154.072 58.7966C154.114 58.7992 158.325 59.0756 162.679 61.7432C166.687 64.1984 171.643 69.2486 172.501 79.3645C172.507 79.4338 172.538 79.4983 172.588 79.5453C172.638 79.5923 172.704 79.6184 172.772 79.6185ZM169.605 80.8705C169.649 80.8705 169.692 80.8596 169.731 80.8387C169.77 80.8178 169.804 80.7876 169.829 80.7506C169.854 80.7136 169.87 80.671 169.875 80.6264C169.881 80.5817 169.875 80.5365 169.86 80.4944C169.845 80.4538 168.323 76.39 165.295 72.3842C162.285 68.4033 157.187 62.5445 157.136 62.4858C157.112 62.4578 157.084 62.435 157.051 62.4185C157.019 62.402 156.984 62.3922 156.948 62.3898C156.911 62.3873 156.875 62.3922 156.841 62.4041C156.807 62.4161 156.775 62.4348 156.748 62.4593C156.721 62.4837 156.699 62.5135 156.683 62.5467C156.668 62.5799 156.659 62.616 156.657 62.6528C156.655 62.6896 156.66 62.7264 156.673 62.7611C156.685 62.7958 156.704 62.8276 156.728 62.8548C156.779 62.9134 161.864 68.758 164.863 72.7235C167.839 76.6608 169.335 80.6509 169.349 80.6907C169.369 80.7435 169.404 80.789 169.449 80.8211C169.495 80.8533 169.549 80.8705 169.605 80.8705Z" fill="#7A3D3D" style="fill:#7A3D3D;fill:color(display-p3 0.4784 0.2392 0.2392);fill-opacity:1;"/>
<path d="M187.139 185.951C187.139 185.951 180.559 186.634 170.241 184.237C159.923 181.841 139.339 175.031 136.996 174.927C134.652 174.823 133.294 167.262 139.335 167.738C145.376 168.213 155.513 169.212 160.996 169.272C166.479 169.331 181.663 168.963 185.756 171.22C189.85 173.477 192.117 182.916 187.139 185.951Z" fill="#F6AF9A" style="fill:#F6AF9A;fill:color(display-p3 0.9647 0.6863 0.6039);fill-opacity:1;"/>
<path d="M140.763 167.853C140.763 167.853 138.11 167.308 137.348 166.004C136.586 164.699 132.723 159.325 132.198 158.862C131.674 158.398 128.404 155.762 127.756 155.445C127.107 155.127 122.964 153.725 122.122 153.344C121.279 152.963 119.946 152.495 119.696 152.766C119.446 153.036 119.742 154.063 120.905 154.709C122.068 155.354 124.277 156.243 124.277 156.243L127.891 159.31C127.891 159.31 124.645 158.359 123.903 158.276C123.161 158.193 118.778 160.784 118.578 161.12C118.377 161.456 118.873 162.013 119.342 162.07C119.342 162.07 117.36 163.224 117.213 163.691C117.067 164.157 117.819 164.794 119.508 164.454C120.993 164.154 122.471 163.713 122.471 163.713L126.3 165.032C126.3 165.032 126.152 165.18 125.487 165.273C124.823 165.367 122.249 165.722 121.819 165.942C121.389 166.162 120.158 167.756 120.183 168.118C120.208 168.481 121.375 168.534 122.87 167.514C122.87 167.514 124.065 167.277 124.573 167.514C125.082 167.751 126.443 168.076 127.219 168.294C127.994 168.511 129.761 171.21 131.451 172.775C133.142 174.339 134.467 175.11 136.995 174.927C139.522 174.744 146.396 170.582 140.763 167.853Z" fill="#F6AF9A" style="fill:#F6AF9A;fill:color(display-p3 0.9647 0.6863 0.6039);fill-opacity:1;"/>
<path d="M130.611 160.601C129.719 160.119 128.72 159.915 127.892 159.309C128.466 159.123 129.161 159.63 129.683 159.926C129.961 160.135 130.474 160.359 130.611 160.601ZM129.068 163.295C127.437 162.142 125.546 161.48 123.611 161.1C122.198 161.419 120.766 161.891 119.342 162.069C119.92 161.781 120.561 161.598 121.178 161.383C121.971 161.138 122.767 160.88 123.594 160.776C125.517 161.227 127.646 162.002 129.068 163.295ZM128.619 165.85C127.889 165.437 127.008 165.484 126.301 165.031C126.764 164.662 128.369 165.448 128.619 165.85ZM122.861 167.528C122.713 167.509 122.518 167.41 122.47 167.26C122.49 167.054 122.648 167.029 122.8 167.135C122.831 167.247 122.817 167.381 122.879 167.498C122.887 167.512 122.877 167.53 122.861 167.528ZM122.455 163.72C122.314 163.559 122.135 163.397 122.051 163.2C122.046 163.118 122.059 162.954 122.15 162.925C122.329 162.966 122.431 163.086 122.425 163.266C122.428 163.334 122.539 163.734 122.455 163.72Z" fill="#EA9A88" style="fill:#EA9A88;fill:color(display-p3 0.9176 0.6039 0.5333);fill-opacity:1;"/>
<path d="M123.619 160.949C123.526 160.887 123.441 160.806 123.369 160.722C123.335 160.68 123.271 160.648 123.274 160.585C123.276 160.511 123.32 160.385 123.403 160.367C123.536 160.385 123.657 160.452 123.625 160.603C123.621 160.659 123.692 160.959 123.619 160.949ZM124.26 156.248C124.163 156.117 124.035 155.954 124.041 155.787C124.133 155.576 124.297 155.618 124.392 155.793C124.397 155.824 124.3 156.311 124.26 156.248ZM123.918 158.285C123.886 158.487 123.815 158.685 123.79 158.887C123.761 159.028 123.674 159.082 123.527 159.16C123.42 159.13 123.414 158.949 123.422 158.859C123.411 158.788 123.89 158.182 123.918 158.285Z" fill="#EA9A88" style="fill:#EA9A88;fill:color(display-p3 0.9176 0.6039 0.5333);fill-opacity:1;"/>
<path d="M123.65 160.95C123.541 161.233 123.461 161.543 123.329 161.813C123.253 161.89 123.027 162.156 123.003 161.914C122.931 161.642 123.14 161.454 123.293 161.268C123.356 161.219 123.605 160.871 123.65 160.95ZM121.837 165.946C121.869 166.108 121.948 166.254 121.994 166.401C121.954 166.519 121.895 166.688 121.738 166.577C121.524 166.533 121.73 165.906 121.837 165.946ZM121.018 166.75C121.2 166.946 121.462 167.338 121.227 167.58C121.032 167.771 120.998 167.518 120.963 167.399C121 167.192 121.029 166.984 120.987 166.767C120.983 166.75 121.005 166.737 121.018 166.75ZM118.722 162.459C118.912 162.859 118.922 163.885 118.304 163.741C118.365 163.445 118.475 163.312 118.581 163.063C118.641 162.869 118.675 162.671 118.687 162.465C118.688 162.446 118.715 162.441 118.722 162.459ZM120.192 160.039C120.307 160.467 120.295 161.559 119.662 161.362C119.769 161.046 119.906 160.873 120.016 160.58C120.081 160.491 120.119 160.006 120.192 160.039ZM121.888 153.251C121.634 153.583 120.852 154.085 120.622 153.543C120.901 153.379 121.113 153.443 121.396 153.382C121.497 153.395 121.88 153.174 121.888 153.251ZM125.472 154.596C125.371 154.731 125.237 154.837 125.13 154.965C125.05 155.051 124.867 155.034 124.79 154.946C124.783 154.774 124.891 154.638 125.061 154.638C125.125 154.63 125.478 154.511 125.472 154.596Z" fill="#EA9A88" style="fill:#EA9A88;fill:color(display-p3 0.9176 0.6039 0.5333);fill-opacity:1;"/>
<path d="M188.847 186.584C188.847 186.584 183.768 188.265 173.208 186.96C162.649 185.654 136.555 179.95 136.555 179.95C136.555 179.95 134.921 170.358 141.78 165.255C141.78 165.255 165.794 166.622 170.799 167.012C175.805 167.402 186.673 168.326 190.581 172.42C194.418 176.439 193.315 183.818 188.847 186.584Z" fill="white" style="fill:white;fill-opacity:1;"/>
<path d="M170.799 167.012C165.794 166.622 141.78 165.255 141.78 165.255C134.921 170.358 136.555 179.95 136.555 179.95C136.555 179.95 146.252 182.07 156.215 184.021L172.63 179.306C172.63 179.306 173.142 175.85 172.903 173.576C172.903 173.576 176.722 172.873 177.772 170.905C178.489 169.562 179.31 168.566 179.758 168.069C176.365 167.461 173.01 167.184 170.799 167.012Z" fill="#D4E8FC" style="fill:#D4E8FC;fill:color(display-p3 0.8314 0.9098 0.9882);fill-opacity:1;"/>
<path d="M170.55 180.375C170.482 180.375 170.415 180.359 170.353 180.33C170.292 180.3 170.237 180.257 170.193 180.204C170.15 180.15 170.119 180.088 170.102 180.021C170.085 179.953 170.082 179.883 170.095 179.815C170.107 179.749 171.313 173.146 170.983 164.878C170.978 164.753 171.022 164.631 171.105 164.539C171.188 164.447 171.304 164.393 171.426 164.387C171.68 164.375 171.897 164.579 171.908 164.84C172.242 173.222 171.017 179.924 171.005 179.991C170.985 180.098 170.928 180.196 170.845 180.266C170.762 180.336 170.658 180.374 170.55 180.375Z" fill="#323C7A" style="fill:#323C7A;fill:color(display-p3 0.1961 0.2353 0.4784);fill-opacity:1;"/>
<path d="M172.545 180.356C172.237 182.863 170.207 184.982 170.207 184.982C170.207 184.982 169.345 184.992 169.216 184.975C167.714 184.783 166.771 182.405 167.108 179.662C167.445 176.919 168.936 174.851 170.437 175.043C170.478 175.048 171.172 175.037 171.172 175.037C171.172 175.037 172.873 177.689 172.545 180.356Z" fill="#293263" style="fill:#293263;fill:color(display-p3 0.1608 0.1961 0.3882);fill-opacity:1;"/>
<path d="M173.33 180.375C173.667 177.632 172.723 175.253 171.222 175.062C169.72 174.87 168.23 176.938 167.893 179.681C167.556 182.423 168.499 184.802 170.001 184.994C171.502 185.185 172.992 183.117 173.33 180.375Z" fill="#323C7A" style="fill:#323C7A;fill:color(display-p3 0.1961 0.2353 0.4784);fill-opacity:1;"/>
<path d="M119.658 187.882C119.658 187.882 126.463 188.095 136.883 184.869C147.303 181.643 167.947 173.125 170.345 172.845C172.743 172.564 173.597 164.702 167.43 165.638C161.263 166.574 150.928 168.352 145.304 168.82C139.68 169.288 124.067 170.037 120.026 172.657C115.985 175.278 114.332 185.135 119.658 187.882Z" fill="#F6AF9A" style="fill:#F6AF9A;fill:color(display-p3 0.9647 0.6863 0.6039);fill-opacity:1;"/>
<path d="M165.277 165.971C165.277 165.971 168.852 164.785 169.569 163.332C170.286 161.878 174.017 155.834 174.543 155.298C175.069 154.762 178.369 151.691 179.039 151.301C179.708 150.911 184.034 149.093 184.906 148.62C185.778 148.148 187.169 147.544 187.456 147.814C187.743 148.084 187.504 149.205 186.308 149.985C185.113 150.765 182.817 151.886 182.817 151.886L179.182 155.444C179.182 155.444 182.581 154.177 183.369 154.031C184.156 153.884 189.035 156.316 189.274 156.66C189.513 157.004 189.024 157.637 188.527 157.735C188.527 157.735 190.733 158.815 190.924 159.303C191.115 159.79 190.358 160.529 188.527 160.296C186.917 160.091 185.304 159.733 185.304 159.733L181.308 161.439C181.308 161.439 181.478 161.585 182.195 161.634C182.913 161.683 185.691 161.864 186.167 162.066C186.643 162.268 188.078 163.876 188.078 164.266C188.078 164.656 186.525 164.656 184.851 163.681C184.851 163.681 183.895 163.681 183.369 163.974C182.842 164.266 181.382 164.705 180.569 164.997C179.756 165.29 178.069 168.312 176.377 170.115C174.686 171.919 172.701 172.914 169.985 172.914C167.27 172.914 159.458 169.324 165.277 165.971Z" fill="#F6AF9A" style="fill:#F6AF9A;fill:color(display-p3 0.9647 0.6863 0.6039);fill-opacity:1;"/>
<path d="M176.35 157.004C177.168 156.392 178.149 155.326 179.183 155.444C178.667 155.926 178.046 156.146 177.442 156.462C177.081 156.645 176.726 156.838 176.371 157.036C176.353 157.047 176.332 157.019 176.35 157.004ZM178.198 159.767C178.871 159.201 179.559 158.644 180.305 158.179C181.417 157.572 182.594 157.116 183.785 156.698C184.469 156.658 185.164 156.863 185.834 156.984C186.736 157.208 187.698 157.394 188.544 157.741C186.999 157.645 185.429 157.265 183.892 157.028C182.653 157.391 181.396 157.826 180.24 158.421C179.545 158.78 178.8 159.459 178.198 159.767ZM178.868 162.464C179.503 161.925 180.491 161.14 181.309 161.439C180.866 161.811 180.308 161.888 179.79 162.084C179.48 162.197 179.177 162.328 178.891 162.495C178.873 162.506 178.852 162.479 178.868 162.464ZM184.843 163.664C184.921 163.534 185.024 163.415 185.049 163.264C185.058 163.203 185.104 163.193 185.158 163.168C185.24 163.137 185.325 163.069 185.381 163.182C185.535 163.425 185.25 163.578 185.063 163.652C185.009 163.659 184.845 163.746 184.843 163.664ZM185.287 159.726C185.303 159.497 185.287 159.241 185.36 159.026C185.416 158.96 185.525 158.849 185.625 158.877C185.749 159.028 185.741 159.226 185.603 159.358C185.558 159.412 185.34 159.804 185.287 159.726Z" fill="#EA9A88" style="fill:#EA9A88;fill:color(display-p3 0.9176 0.6039 0.5333);fill-opacity:1;"/>
<path d="M183.837 156.85C183.831 156.733 183.832 156.613 183.839 156.497C183.844 156.444 183.812 156.379 183.855 156.335C184.011 156.172 184.185 156.216 184.214 156.451C184.241 156.5 183.857 156.951 183.837 156.85ZM182.818 151.886C182.781 151.726 182.68 151.567 182.661 151.414C182.713 151.302 182.848 151.158 182.968 151.291C183.024 151.339 183.065 151.404 183.04 151.475C182.974 151.591 182.95 151.836 182.818 151.886ZM183.411 154.026C183.605 154.2 183.813 154.379 183.927 154.617C184.008 155.181 183.539 154.894 183.507 154.548C183.498 154.473 183.32 154.015 183.411 154.026Z" fill="#EA9A88" style="fill:#EA9A88;fill:color(display-p3 0.9176 0.6039 0.5333);fill-opacity:1;"/>
<path d="M183.868 156.845C184.091 157.012 184.283 157.23 184.48 157.425C184.596 157.543 184.678 157.862 184.539 157.969C184.314 157.883 184.17 157.707 184.109 157.477C184.089 157.392 183.769 156.838 183.868 156.845ZM186.186 162.06C186.295 162.227 186.481 162.5 186.351 162.692C186.177 162.878 186.083 162.746 186.015 162.568C186.053 162.408 186.127 162.246 186.149 162.07C186.152 162.053 186.175 162.046 186.186 162.06ZM187.11 162.883C187.04 163.237 187.282 163.474 187.117 163.818C186.96 163.887 186.771 163.65 186.804 163.493C186.843 163.315 186.94 162.883 187.11 162.883ZM189.252 158.111C189.285 158.358 189.349 158.591 189.451 158.816C189.599 159.031 189.671 159.16 189.762 159.44C189.592 159.583 189.254 159.329 189.21 159.123C189.137 158.927 189.079 158.164 189.252 158.111ZM187.503 155.635C187.615 156.167 187.901 156.516 188.134 157.003C187.96 157.175 187.598 156.902 187.548 156.69C187.477 156.394 187.343 155.836 187.503 155.635ZM185.173 148.48C185.629 148.701 186.06 148.523 186.525 148.716C186.532 148.921 186.166 149.051 185.982 148.99C185.72 148.898 185.221 148.724 185.173 148.48ZM181.432 150.196C181.613 150.192 181.792 150.225 181.97 150.241C182.094 150.254 182.21 150.457 182.155 150.569C182.05 150.623 181.905 150.676 181.811 150.585C181.755 150.491 181.371 150.277 181.432 150.196Z" fill="#EA9A88" style="fill:#EA9A88;fill:color(display-p3 0.9176 0.6039 0.5333);fill-opacity:1;"/>
<path d="M117.95 188.658C117.95 188.658 123.284 190.008 134.03 187.884C144.777 185.76 171.502 177.833 171.502 177.833C171.502 177.833 173.914 167.603 166.51 162.874C166.51 162.874 140.189 166.456 135.078 167.228C129.968 168 118.878 169.755 115.158 174.248C111.507 178.658 113.166 186.151 117.95 188.658Z" fill="white" style="fill:white;fill-opacity:1;"/>
<path d="M144.296 113.192C144.257 113.189 144.219 113.191 144.181 113.197C144.102 113.21 142.229 113.558 140.485 116.015C139.49 117.418 138.731 119.234 138.231 121.413C137.613 124.103 137.387 127.365 137.559 131.108C137.741 135.082 137.827 138 137.831 140.294C137.834 140.417 137.883 140.535 137.97 140.622C138.057 140.709 138.174 140.757 138.295 140.757C138.417 140.757 138.533 140.708 138.62 140.621C138.706 140.534 138.756 140.416 138.757 140.292C138.753 137.984 138.666 135.052 138.483 131.064C138.109 122.903 139.741 118.722 141.176 116.652C142.461 114.8 143.816 114.278 144.219 114.158C144.24 113.888 144.266 113.562 144.296 113.192Z" fill="#323C7A" style="fill:#323C7A;fill:color(display-p3 0.1961 0.2353 0.4784);fill-opacity:1;"/>
<path d="M142.236 163.967C142.141 163.967 142.049 163.938 141.971 163.882C141.893 163.827 141.834 163.749 141.801 163.659C141.769 163.568 141.764 163.47 141.788 163.376C141.812 163.283 141.863 163.199 141.935 163.137C141.944 163.129 142.934 162.245 143.818 160.373C144.634 158.643 145.525 155.69 145.131 151.446C144.661 146.389 142.774 143.746 141.274 142.419C139.855 141.164 138.536 140.829 138.252 140.769C137.982 140.808 136.744 141.04 135.353 142.11C133.266 143.715 131.776 146.478 131.045 150.099C130.217 154.203 131.06 157.535 131.914 159.608C132.843 161.865 133.987 163.165 133.998 163.178C134.17 163.371 134.156 163.669 133.967 163.844C133.876 163.928 133.756 163.972 133.634 163.967C133.511 163.961 133.396 163.905 133.314 163.813C133.263 163.757 132.069 162.405 131.076 160.012C130.163 157.809 129.259 154.268 130.138 149.909C131.128 145.005 133.247 142.529 134.851 141.315C136.622 139.974 138.163 139.827 138.228 139.822C138.265 139.819 138.302 139.82 138.338 139.826C138.409 139.837 140.087 140.12 141.881 141.707C142.923 142.628 143.793 143.804 144.467 145.201C145.3 146.927 145.833 148.998 146.052 151.357C146.47 155.85 145.507 158.992 144.626 160.837C143.657 162.865 142.582 163.815 142.536 163.854C142.453 163.927 142.346 163.967 142.236 163.967Z" fill="#323C7A" style="fill:#323C7A;fill:color(display-p3 0.1961 0.2353 0.4784);fill-opacity:1;"/>
<path d="M136.477 165.265C136.092 165.907 135.269 166.109 134.639 165.716C134.009 165.323 132.933 163.938 133.319 163.296C133.704 162.654 135.404 162.999 136.034 163.391C136.664 163.784 136.863 164.623 136.477 165.265ZM139.452 165.265C139.837 165.907 140.66 166.109 141.29 165.716C141.92 165.323 142.996 163.938 142.61 163.296C142.225 162.654 140.525 162.999 139.895 163.391C139.265 163.784 139.066 164.623 139.452 165.265Z" fill="#323C7A" style="fill:#323C7A;fill:color(display-p3 0.1961 0.2353 0.4784);fill-opacity:1;"/>
<defs>
<linearGradient id="paint0_linear_480_273" x1="140.284" y1="11.6938" x2="140.284" y2="210.002" gradientUnits="userSpaceOnUse">
<stop stop-color="#B5DDFF" style="stop-color:#B5DDFF;stop-color:color(display-p3 0.7098 0.8667 1.0000);stop-opacity:1;"/>
<stop offset="0.503" stop-color="#B2DCFF" style="stop-color:#B2DCFF;stop-color:color(display-p3 0.6980 0.8627 1.0000);stop-opacity:1;"/>
<stop offset="0.823" stop-color="#AAD8FF" style="stop-color:#AAD8FF;stop-color:color(display-p3 0.6667 0.8471 1.0000);stop-opacity:1;"/>
<stop offset="1" stop-color="#A1D4FF" style="stop-color:#A1D4FF;stop-color:color(display-p3 0.6314 0.8314 1.0000);stop-opacity:1;"/>
</linearGradient>
</defs>
</svg>
