<svg width="37" height="37" viewBox="0 0 37 37" fill="none" xmlns="http://www.w3.org/2000/svg">
<rect x="16.1982" y="0.38208" width="25.5432" height="25.5432" rx="4.94859" transform="rotate(36.6196 16.1982 0.38208)" fill="#DC2626" fill-opacity="0.17" style="fill:#DC2626;fill:color(display-p3 0.8627 0.1490 0.1490);fill-opacity:0.17;"/>
<path d="M28.7203 30.4398H8.94154C8.79923 30.4398 8.66307 30.3818 8.56437 30.2794C8.46573 30.1768 8.41291 30.0386 8.41835 29.8963L9.19408 9.50896C9.20484 9.22774 9.43593 9.00537 9.71727 9.00537H27.9447C28.2261 9.00537 28.4572 9.22774 28.468 9.50896L29.2435 29.8963C29.249 30.0386 29.1962 30.1768 29.0975 30.2794C28.9988 30.3818 28.8627 30.4398 28.7203 30.4398ZM9.48534 29.3927H28.1765L27.4408 10.0525H10.2212L9.48534 29.3927Z" fill="black" style="fill:black;fill-opacity:1;"/>
<path d="M22.3539 12.0346C22.0646 12.0346 21.8304 11.8003 21.8304 11.5111V7.60069C21.8304 5.94694 20.4849 4.60148 18.8312 4.60148C17.1774 4.60148 15.8321 5.94694 15.8321 7.60069V11.5111C15.8321 11.8003 15.5978 12.0346 15.3086 12.0346C15.0194 12.0346 14.7852 11.8003 14.7852 11.5111V7.60069C14.7851 5.36957 16.6002 3.55444 18.8312 3.55444C21.0623 3.55444 22.8774 5.36957 22.8774 7.60069V11.5111C22.8774 11.8003 22.6431 12.0346 22.3539 12.0346Z" fill="black" style="fill:black;fill-opacity:1;"/>
<path d="M21.0121 27.1598H16.6499C16.3607 27.1598 16.1264 26.9254 16.1264 26.6363V24.2023H13.6925C13.4033 24.2023 13.1689 23.968 13.1689 23.6788V19.3164C13.1689 19.0272 13.4033 18.7929 13.6925 18.7929H16.1264V16.359C16.1264 16.0698 16.3607 15.8354 16.6499 15.8354H21.0121C21.3013 15.8354 21.5356 16.0698 21.5356 16.359V18.7929H23.9695C24.2587 18.7929 24.493 19.0272 24.493 19.3164V23.6788C24.493 23.968 24.2587 24.2023 23.9695 24.2023H21.5356V26.6363C21.5356 26.9254 21.3013 27.1598 21.0121 27.1598ZM17.1734 26.1127H20.4886V23.6788C20.4886 23.3895 20.7229 23.1553 21.0121 23.1553H23.446V19.8399H21.0121C20.7229 19.8399 20.4886 19.6056 20.4886 19.3164V16.8825H17.1734V19.3164C17.1734 19.6056 16.9391 19.8399 16.6499 19.8399H14.216V23.1553H16.6499C16.9391 23.1553 17.1734 23.3896 17.1734 23.6788V26.1127Z" fill="#DC2626" style="fill:#DC2626;fill:color(display-p3 0.8627 0.1490 0.1490);fill-opacity:1;"/>
<path d="M11.9477 14.4378C11.6363 14.4252 11.4121 14.1812 11.4243 13.8921L11.4685 12.8461C11.4807 12.5573 11.7196 12.3362 12.0136 12.3452C12.3025 12.3573 12.5268 12.6014 12.5145 12.8904L12.4704 13.9364C12.4586 14.2177 12.2267 14.4378 11.9477 14.4378Z" fill="#DC2626" style="fill:#DC2626;fill:color(display-p3 0.8627 0.1490 0.1490);fill-opacity:1;"/>
<path d="M11.8285 17.2694C11.5171 17.2567 11.2929 17.0127 11.3052 16.7237L11.3493 15.6777C11.3614 15.389 11.6029 15.168 11.8944 15.1768C12.1833 15.1888 12.4076 15.4329 12.3953 15.7219L12.3512 16.768C12.3394 17.0492 12.1074 17.2694 11.8285 17.2694Z" fill="#DC2626" style="fill:#DC2626;fill:color(display-p3 0.8627 0.1490 0.1490);fill-opacity:1;"/>
</svg>
