<svg width="166" height="168" viewBox="0 0 166 168" fill="none" xmlns="http://www.w3.org/2000/svg">
<path d="M156.651 167.148C156.651 157.527 154.625 148.001 150.69 139.112C146.755 130.224 140.987 122.148 133.715 115.345C126.444 108.542 117.812 103.145 108.311 99.4636C98.8106 95.7819 88.628 93.887 78.3447 93.887C68.0613 93.887 57.8787 95.7819 48.3782 99.4636C38.8777 103.145 30.2453 108.542 22.9739 115.345C15.7025 122.148 9.93452 130.224 5.99927 139.112C2.06402 148.001 0.0385733 157.527 0.0385742 167.148L156.651 167.148Z" fill="#FFDADA" style="fill:#FFDADA;fill:color(display-p3 1.0000 0.8549 0.8549);fill-opacity:1;"/>
<path d="M114.361 8.71477C113.032 0.843892 100.911 -2.70939 101.149 2.42779L45.5849 2.75322C41.7364 2.77572 38.6158 6.23796 38.6124 10.4902L38.4971 156.624C38.4936 161.029 41.6684 164.631 45.5908 164.665L102.313 165.151C102.665 165.89 103.324 166.563 104.362 167.125C110.867 167.263 113.987 164.051 115.127 160.419C115.498 159.444 115.7 158.367 115.691 157.231C115.464 155.329 114.772 10.5603 114.361 8.71477Z" fill="#F30101" style="fill:#F30101;fill:color(display-p3 0.9529 0.0039 0.0039);fill-opacity:1;"/>
<path d="M103.599 167.149L38.4904 166.729C34.4274 166.703 31.1412 163.004 31.1484 158.471L31.3928 8.18563C31.3998 3.81479 34.6343 0.264365 38.6185 0.251443L102.462 0.0439812C106.478 0.0309396 109.763 3.57633 109.796 7.96703L110.953 158.947C110.988 163.501 107.695 167.175 103.599 167.149Z" fill="white" style="fill:white;fill-opacity:1;"/>
<path d="M104.498 166.055C104.228 166.091 103.951 166.109 103.675 166.107L38.5865 165.614C35.0953 165.588 32.2417 162.345 32.2476 158.388L32.4725 8.26797C32.4782 4.45229 35.2867 1.33823 38.7112 1.32339L102.551 1.04569C102.651 1.04534 102.752 1.04737 102.851 1.05203C104.457 1.12657 105.959 1.85833 107.081 3.1108C108.228 4.39091 108.866 6.08728 108.879 7.89024L110.021 159.024C110.048 162.605 107.682 165.629 104.498 166.055Z" fill="black" style="fill:black;fill-opacity:1;"/>
<path d="M106.64 8.64966L107.738 159.257L34.4131 158.818L34.6001 8.64966H106.64Z" fill="white" style="fill:white;fill-opacity:1;"/>
<path d="M96.0623 62.0161H45.3055C43.6446 62.0161 42.2856 60.6572 42.2856 58.9962C42.2856 57.3353 43.6446 55.9763 45.3055 55.9763H96.0623C97.7233 55.9763 99.0822 57.3353 99.0822 58.9962C99.0822 60.6572 97.7233 62.0161 96.0623 62.0161Z" fill="black" style="fill:black;fill-opacity:1;"/>
<path d="M96.0623 71.7424H45.3055C43.6446 71.7424 42.2856 70.3835 42.2856 68.7225C42.2856 67.0616 43.6446 65.7026 45.3055 65.7026H96.0623C97.7233 65.7026 99.0822 67.0616 99.0822 68.7225C99.0822 70.3835 97.7233 71.7424 96.0623 71.7424Z" fill="black" style="fill:black;fill-opacity:1;"/>
<path d="M54.7834 68.991C54.7834 69.5783 54.3074 70.0543 53.7201 70.0543C53.1328 70.0543 52.6567 69.5783 52.6567 68.991C52.6567 68.4036 53.1329 67.9276 53.7201 67.9276C54.3074 67.9276 54.7834 68.4036 54.7834 68.991Z" fill="white" style="fill:white;fill-opacity:1;"/>
<path d="M58.3995 69.2122C58.5216 68.6378 58.155 68.0731 57.5806 67.951C57.0062 67.8288 56.4415 68.1955 56.3193 68.7699C56.1972 69.3443 56.5638 69.909 57.1382 70.0311C57.7126 70.1533 58.2773 69.7866 58.3995 69.2122Z" fill="white" style="fill:white;fill-opacity:1;"/>
<path d="M61.7596 69.7418C62.1749 69.3265 62.1749 68.6532 61.7596 68.238C61.3443 67.8227 60.6711 67.8227 60.2558 68.238C59.8405 68.6532 59.8405 69.3265 60.2558 69.7418C60.6711 70.157 61.3443 70.157 61.7596 69.7418Z" fill="white" style="fill:white;fill-opacity:1;"/>
<path d="M65.4061 69.7418C65.8213 69.3265 65.8214 68.6532 65.4061 68.238C64.9908 67.8227 64.3175 67.8227 63.9023 68.238C63.487 68.6532 63.487 69.3265 63.9023 69.7418C64.3175 70.157 64.9908 70.157 65.4061 69.7418Z" fill="white" style="fill:white;fill-opacity:1;"/>
<path d="M68.7138 69.9732C69.2564 69.7485 69.514 69.1264 69.2893 68.5838C69.0645 68.0412 68.4425 67.7836 67.8999 68.0083C67.3573 68.2331 67.0997 68.8551 67.3244 69.3977C67.5492 69.9403 68.1712 70.198 68.7138 69.9732Z" fill="white" style="fill:white;fill-opacity:1;"/>
<path d="M72.9815 69.2489C73.1165 68.6774 72.7626 68.1046 72.1911 67.9697C71.6195 67.8347 71.0468 68.1887 70.9118 68.7602C70.7769 69.3317 71.1308 69.9044 71.7023 70.0394C72.2739 70.1744 72.8466 69.8204 72.9815 69.2489Z" fill="white" style="fill:white;fill-opacity:1;"/>
<path d="M76.3426 69.7418C76.7579 69.3265 76.7579 68.6532 76.3426 68.238C75.9274 67.8227 75.2541 67.8227 74.8388 68.238C74.4235 68.6532 74.4235 69.3265 74.8388 69.7418C75.2541 70.157 75.9273 70.157 76.3426 69.7418Z" fill="white" style="fill:white;fill-opacity:1;"/>
<path d="M79.9876 69.7418C80.4029 69.3265 80.4029 68.6532 79.9876 68.238C79.5724 67.8227 78.8991 67.8227 78.4838 68.238C78.0686 68.6532 78.0686 69.3265 78.4838 69.7418C78.8991 70.157 79.5724 70.157 79.9876 69.7418Z" fill="white" style="fill:white;fill-opacity:1;"/>
<path d="M83.2949 69.9732C83.8375 69.7484 84.0951 69.1264 83.8704 68.5838C83.6456 68.0412 83.0236 67.7836 82.481 68.0083C81.9384 68.2331 81.6807 68.8551 81.9055 69.3977C82.1302 69.9403 82.7523 70.1979 83.2949 69.9732Z" fill="white" style="fill:white;fill-opacity:1;"/>
<path d="M78.9493 44.1088C83.5058 39.5524 83.5058 32.1649 78.9493 27.6084C74.3929 23.052 67.0054 23.052 62.4489 27.6084C57.8925 32.1649 57.8925 39.5524 62.4489 44.1088C67.0054 48.6653 74.3929 48.6653 78.9493 44.1088Z" fill="#F30101" style="fill:#F30101;fill:color(display-p3 0.9529 0.0039 0.0039);fill-opacity:1;"/>
<path d="M70.7181 35.388C71.857 35.388 72.9088 34.8332 73.5806 33.986C74.0769 33.3727 74.3693 32.584 74.3693 31.7076C74.3693 29.6922 72.7334 28.0271 70.7181 28.0271C68.6735 28.0271 67.0376 29.6922 67.0376 31.7076C67.0376 32.584 67.3293 33.3727 67.8263 33.986C68.4981 34.8332 69.5492 35.388 70.7181 35.388Z" fill="white" style="fill:white;fill-opacity:1;"/>
<path d="M77.184 41.9469C77.184 44.2695 64.2139 44.2695 64.2139 41.9469L64.218 39.2403C64.7306 35.5402 76.1299 35.3848 77.1865 39.2403L77.184 41.9469Z" fill="white" style="fill:white;fill-opacity:1;"/>
<path d="M47.8224 68.1662V68.0043C47.8224 67.3492 47.2894 66.8159 46.634 66.8159C45.9786 66.8159 45.4456 67.3492 45.4456 68.0043V68.1662H45.2651V70.3082C45.2651 70.6783 48.0104 70.6783 48.0104 70.3082V68.1662H47.8224ZM45.8692 68.0043C45.8692 67.5932 46.1228 67.2198 46.634 67.2198C47.145 67.2198 47.4069 67.5693 47.4069 68.0043V68.1662H45.8692V68.0043ZM46.8362 69.2451V69.8638C46.8362 69.975 46.741 70.0542 46.6298 70.0542C46.5186 70.0542 46.4397 69.975 46.4397 69.8638V69.2451C46.3285 69.1816 46.249 69.0704 46.249 68.9277C46.249 68.7214 46.4237 68.5469 46.6298 68.5469C46.8362 68.5469 47.0106 68.7214 47.0106 68.9277C47.0105 69.0706 46.9311 69.1817 46.8362 69.2451Z" fill="white" style="fill:white;fill-opacity:1;"/>
<path d="M46.6386 58.7779C46.879 58.7779 47.101 58.6607 47.2428 58.4819C47.3475 58.3525 47.4092 58.186 47.4092 58.0011C47.4092 57.5758 47.064 57.2244 46.6386 57.2244C46.207 57.2244 45.8618 57.5758 45.8618 58.0011C45.8618 58.1861 45.9233 58.3526 46.0283 58.4819C46.1701 58.6608 46.3919 58.7779 46.6386 58.7779Z" fill="white" style="fill:white;fill-opacity:1;"/>
<path d="M48.0028 60.1614C48.0028 60.6516 45.2515 60.6516 45.2515 60.1614L45.2664 59.5901C45.3746 58.8092 47.7805 58.7764 48.0034 59.5901L48.0028 60.1614Z" fill="white" style="fill:white;fill-opacity:1;"/>
<path d="M64.4163 59.8822H53.2933C52.8059 59.8822 52.4072 59.4834 52.4072 58.996C52.4072 58.5085 52.806 58.1099 53.2933 58.1099H64.4163C64.9038 58.1099 65.3026 58.5086 65.3026 58.996C65.3026 59.4834 64.9038 59.8822 64.4163 59.8822Z" fill="white" style="fill:white;fill-opacity:1;"/>
<path d="M79.0869 59.8822H67.9639C67.4764 59.8822 67.0776 59.4834 67.0776 58.996C67.0776 58.5085 67.4764 58.1099 67.9639 58.1099H79.0869C79.5743 58.1099 79.973 58.5086 79.973 58.996C79.9731 59.4834 79.5743 59.8822 79.0869 59.8822Z" fill="white" style="fill:white;fill-opacity:1;"/>
<path d="M55.7251 115.59V137.593C55.7251 140.038 85.6428 140.038 85.6428 137.593V115.59H55.7251Z" fill="#F30101" style="fill:#F30101;fill:color(display-p3 0.9529 0.0039 0.0039);fill-opacity:1;"/>
<path d="M74.2768 124.768C74.7456 122.782 73.5163 120.793 71.531 120.324C69.5457 119.856 67.5563 121.085 67.0876 123.07C66.6188 125.055 67.8481 127.045 69.8334 127.514C71.8187 127.982 73.8081 126.753 74.2768 124.768Z" fill="white" style="fill:white;fill-opacity:1;"/>
<path d="M70.6844 135.026C69.8483 135.026 69.1704 134.348 69.1704 133.512V125.04H72.1983V133.512C72.1983 134.348 71.5205 135.026 70.6844 135.026Z" fill="white" style="fill:white;fill-opacity:1;"/>
<path d="M83.0204 114.023H79.9924V112.542C79.9924 107.409 75.8163 103.232 70.684 103.232C65.5508 103.232 61.3746 107.409 61.3746 112.542V114.023H58.3467V112.542C58.3467 105.739 63.8811 100.204 70.684 100.204C77.486 100.204 83.0204 105.739 83.0204 112.542V114.023Z" fill="#F30101" style="fill:#F30101;fill:color(display-p3 0.9529 0.0039 0.0039);fill-opacity:1;"/>
<path d="M95.7026 89.0563C95.7031 88.939 95.7034 88.8873 95.7035 88.8754C95.7034 88.8971 95.7026 89.0563 95.7026 89.0563Z" fill="#D9FFFF" style="fill:#D9FFFF;fill:color(display-p3 0.8510 1.0000 1.0000);fill-opacity:1;"/>
<path d="M95.7026 89.0563C95.7031 88.939 95.7034 88.8873 95.7035 88.8754C95.7034 88.8971 95.7026 89.0563 95.7026 89.0563Z" fill="#D9FFFF" style="fill:#D9FFFF;fill:color(display-p3 0.8510 1.0000 1.0000);fill-opacity:1;"/>
<path d="M165.383 89.3678C165.383 89.3678 165.384 89.2087 165.384 89.1869C165.384 89.1988 165.383 89.2505 165.383 89.3678Z" fill="#D9FFFF" style="fill:#D9FFFF;fill:color(display-p3 0.8510 1.0000 1.0000);fill-opacity:1;"/>
<path d="M165.383 89.3678C165.383 89.3678 165.384 89.2087 165.384 89.1869C165.384 89.1988 165.383 89.2505 165.383 89.3678Z" fill="#D9FFFF" style="fill:#D9FFFF;fill:color(display-p3 0.8510 1.0000 1.0000);fill-opacity:1;"/>
<path d="M130.672 72.6818C122.959 80.944 110.651 87.7153 97.4811 90.6003C97.4771 91.4799 97.4553 96.3533 97.355 118.816C97.221 148.78 125.738 163.423 130.165 165.67C134.455 163.695 163.332 149.075 163.466 119.111C163.566 96.6488 163.588 91.7754 163.592 90.8958C150.448 87.8932 138.311 81.0127 130.672 72.6818Z" fill="white" style="fill:white;fill-opacity:1;"/>
<path d="M130.602 75.9324C122.65 83.2266 111.634 88.9597 99.5209 92.0845L99.4013 118.811C99.3467 131.04 104.205 142.103 113.842 151.694C120.174 157.996 126.831 161.905 130.209 163.662C130.354 163.588 130.514 163.505 130.671 163.423V75.9946C130.648 75.9738 130.624 75.9536 130.602 75.9324Z" fill="#80B2FF" style="fill:#80B2FF;fill:color(display-p3 0.5020 0.6980 1.0000);fill-opacity:1;"/>
<path d="M130.672 75.9945V163.423C134.185 161.596 140.57 157.818 146.684 151.841C156.406 142.337 161.363 131.317 161.418 119.088L161.537 92.3612C149.487 89.1379 138.552 83.3297 130.672 75.9945Z" fill="#4D93FF" style="fill:#4D93FF;fill:color(display-p3 0.3020 0.5765 1.0000);fill-opacity:1;"/>
<path d="M154.943 102.783C145.721 104.205 133.163 112.616 125.241 122.73C124.13 117.961 119.142 113.608 116.532 112.656L108.625 120.604C113.562 122.829 118.957 129.133 119.672 135.586L127.571 136.811C130.901 130.232 139.502 114.497 156.613 106.036C156.284 104.748 155.075 102.967 154.943 102.783Z" fill="#0046B3" style="fill:#0046B3;fill:color(display-p3 0.0000 0.2745 0.7020);fill-opacity:1;"/>
</svg>
