<svg width="37" height="36" viewBox="0 0 37 36" fill="none" xmlns="http://www.w3.org/2000/svg">
<rect x="18.6396" y="0.0266113" width="25" height="25" rx="4.95" transform="rotate(45 18.6396 0.0266113)" fill="#FFE0E0" style="fill:#FFE0E0;fill:color(display-p3 1.0000 0.8771 0.8771);fill-opacity:1;"/>
<path d="M18.7077 9.85803C18.6543 9.64905 18.4419 9.52284 18.2326 9.57619C17.3901 9.79135 16.6894 10.32 16.2594 11.0647C16.1516 11.2515 16.2156 11.4904 16.4024 11.5983C16.4639 11.6338 16.5311 11.6507 16.5973 11.6507C16.7323 11.6507 16.8637 11.5806 16.936 11.4553C17.2598 10.8943 17.789 10.4957 18.4259 10.3331C18.6349 10.2798 18.761 10.0671 18.7077 9.85803Z" fill="#DC2626" style="fill:#DC2626;fill:color(display-p3 0.8627 0.1490 0.1490);fill-opacity:1;"/>
<path d="M19.5603 9.51998C19.5545 9.51893 19.5486 9.51795 19.5423 9.51702C19.3294 9.48436 19.1314 9.63041 19.0984 9.8433C19.0654 10.0558 19.2117 10.255 19.4237 10.2891C19.4462 10.2931 19.4687 10.2949 19.4909 10.2949C19.676 10.2949 19.8405 10.1627 19.8748 9.97416C19.9133 9.7619 19.7726 9.55858 19.5603 9.51998Z" fill="#DC2626" style="fill:#DC2626;fill:color(display-p3 0.8627 0.1490 0.1490);fill-opacity:1;"/>
<path d="M26.6461 19.5323C26.3585 19.4502 26.0475 19.3774 25.7179 19.3144C25.6993 19.3096 25.6802 19.3061 25.661 19.3041C24.7 19.1249 23.5842 19.0285 22.4209 19.0285C21.7764 19.0285 21.1469 19.0585 20.5496 19.1152L22.9633 14.9348C23.5691 13.8854 23.729 12.6588 23.4133 11.4808C23.0977 10.3028 22.3459 9.32047 21.2965 8.71465C19.122 7.45926 16.3316 8.20683 15.0763 10.3812L12.1629 15.4273C12.1626 15.4277 12.1623 15.428 12.1621 15.4285C12.1618 15.4289 12.1616 15.4293 12.1614 15.4298L9.24797 20.476C8.64207 21.5254 8.48226 22.752 8.79789 23.93C9.11351 25.108 9.86531 26.0904 10.9147 26.6962C11.6091 27.097 12.3888 27.3031 13.1796 27.3031C13.5129 27.3031 13.8481 27.2666 14.1796 27.1925C15.062 26.9955 15.8553 26.5484 16.4704 25.9111C16.7796 26.2634 17.3549 26.5611 18.1923 26.8004C19.327 27.1245 20.8287 27.3031 22.4207 27.3031C24.0128 27.3031 25.5145 27.1245 26.6491 26.8004C27.9698 26.423 28.6395 25.9005 28.6395 25.2473V21.0867C28.6395 21.0859 28.6396 21.0852 28.6396 21.0843C28.6396 20.4324 27.9689 19.9102 26.6461 19.5323ZM22.4209 19.8097C23.0358 19.8097 23.6348 19.8378 24.2018 19.891L19.2396 22.0811C18.9453 22.0239 18.6673 21.9587 18.4104 21.8853C17.2397 21.5508 16.9834 21.1937 16.9834 21.0843C16.9834 20.9749 17.2398 20.6178 18.4104 20.2833C19.4794 19.9779 20.9037 19.8097 22.4209 19.8097ZM15.7528 10.7719C16.7928 8.97051 19.1045 8.35117 20.9059 9.39117C21.7745 9.89269 22.3971 10.7066 22.6587 11.683C22.9204 12.6594 22.7883 13.6755 22.2868 14.5443L19.578 19.2359C19.5674 19.2376 19.557 19.2394 19.5464 19.2411L13.0339 15.4809L15.7528 10.7719ZM16.2021 21.0823C16.2021 21.083 16.202 21.0837 16.202 21.0844V25.0238C15.0691 26.5241 12.9431 26.9653 11.3054 26.0196C10.4367 25.5181 9.81414 24.7042 9.5525 23.7278C9.29086 22.7514 9.42301 21.7353 9.92449 20.8666L12.6434 16.1573L18.3946 19.4781C18.3273 19.4957 18.2607 19.5137 18.1957 19.5323C16.8743 19.9098 16.2036 20.4314 16.2021 21.0823ZM27.8584 25.2473C27.8584 25.3572 27.6026 25.7156 26.4347 26.0493C25.3678 26.3541 23.9423 26.522 22.4209 26.522C20.8994 26.522 19.4739 26.3541 18.407 26.0493C17.239 25.7156 16.9833 25.3572 16.9833 25.2473V22.151C17.295 22.3326 17.6995 22.4946 18.1957 22.6364C18.5022 22.724 18.8359 22.8006 19.1898 22.8663C19.207 22.8706 19.2244 22.8739 19.2421 22.8758C20.1891 23.0477 21.2821 23.1402 22.4209 23.1402C24.0087 23.1402 25.5092 22.9613 26.6461 22.6365C27.1422 22.4947 27.5467 22.3327 27.8584 22.1511V25.2473ZM27.8584 21.0844V21.0855C27.8568 21.1961 27.5985 21.5519 26.4315 21.8854C25.3625 22.1907 23.9382 22.359 22.4209 22.359C21.8325 22.359 21.2585 22.3334 20.7134 22.2846L25.6632 20.0999C25.9348 20.1541 26.1925 20.2152 26.4314 20.2834C27.6 20.6173 27.8575 20.9737 27.8584 21.0838C27.8584 21.084 27.8584 21.0842 27.8584 21.0844Z" fill="black" style="fill:black;fill-opacity:1;"/>
<mask id="mask0_832_996" style="mask-type:alpha" maskUnits="userSpaceOnUse" x="8" y="8" width="21" height="20">
<path d="M26.6461 19.5323C26.3585 19.4502 26.0475 19.3774 25.7179 19.3144C25.6993 19.3096 25.6802 19.3061 25.661 19.3041C24.7 19.1249 23.5842 19.0285 22.4209 19.0285C21.7764 19.0285 21.1469 19.0585 20.5496 19.1152L22.9633 14.9348C23.5691 13.8854 23.729 12.6588 23.4133 11.4808C23.0977 10.3028 22.3459 9.32047 21.2965 8.71465C19.122 7.45926 16.3316 8.20683 15.0763 10.3812L12.1629 15.4273C12.1626 15.4277 12.1623 15.428 12.1621 15.4285C12.1618 15.4289 12.1616 15.4293 12.1614 15.4298L9.24797 20.476C8.64207 21.5254 8.48226 22.752 8.79789 23.93C9.11351 25.108 9.86531 26.0904 10.9147 26.6962C11.6091 27.097 12.3888 27.3031 13.1796 27.3031C13.5129 27.3031 13.8481 27.2666 14.1796 27.1925C15.062 26.9955 15.8553 26.5484 16.4704 25.9111C16.7796 26.2634 17.3549 26.5611 18.1923 26.8004C19.327 27.1245 20.8287 27.3031 22.4207 27.3031C24.0128 27.3031 25.5145 27.1245 26.6491 26.8004C27.9698 26.423 28.6395 25.9005 28.6395 25.2473V21.0867C28.6395 21.0859 28.6396 21.0852 28.6396 21.0843C28.6396 20.4324 27.9689 19.9102 26.6461 19.5323ZM22.4209 19.8097C23.0358 19.8097 23.6348 19.8378 24.2018 19.891L19.2396 22.0811C18.9453 22.0239 18.6673 21.9587 18.4104 21.8853C17.2397 21.5508 16.9834 21.1937 16.9834 21.0843C16.9834 20.9749 17.2398 20.6178 18.4104 20.2833C19.4794 19.9779 20.9037 19.8097 22.4209 19.8097ZM15.7528 10.7719C16.7928 8.97051 19.1045 8.35117 20.9059 9.39117C21.7745 9.89269 22.3971 10.7066 22.6587 11.683C22.9204 12.6594 22.7883 13.6755 22.2868 14.5443L19.578 19.2359C19.5674 19.2376 19.557 19.2394 19.5464 19.2411L13.0339 15.4809L15.7528 10.7719ZM16.2021 21.0823C16.2021 21.083 16.202 21.0837 16.202 21.0844V25.0238C15.0691 26.5241 12.9431 26.9653 11.3054 26.0196C10.4367 25.5181 9.81414 24.7042 9.5525 23.7278C9.29086 22.7514 9.42301 21.7353 9.92449 20.8666L12.6434 16.1573L18.3946 19.4781C18.3273 19.4957 18.2607 19.5137 18.1957 19.5323C16.8743 19.9098 16.2036 20.4314 16.2021 21.0823ZM27.8584 25.2473C27.8584 25.3572 27.6026 25.7156 26.4347 26.0493C25.3678 26.3541 23.9423 26.522 22.4209 26.522C20.8994 26.522 19.4739 26.3541 18.407 26.0493C17.239 25.7156 16.9833 25.3572 16.9833 25.2473V22.151C17.295 22.3326 17.6995 22.4946 18.1957 22.6364C18.5022 22.724 18.8359 22.8006 19.1898 22.8663C19.207 22.8706 19.2244 22.8739 19.2421 22.8758C20.1891 23.0477 21.2821 23.1402 22.4209 23.1402C24.0087 23.1402 25.5092 22.9613 26.6461 22.6365C27.1422 22.4947 27.5467 22.3327 27.8584 22.1511V25.2473ZM27.8584 21.0844V21.0855C27.8568 21.1961 27.5985 21.5519 26.4315 21.8854C25.3625 22.1907 23.9382 22.359 22.4209 22.359C21.8325 22.359 21.2585 22.3334 20.7134 22.2846L25.6632 20.0999C25.9348 20.1541 26.1925 20.2152 26.4314 20.2834C27.6 20.6173 27.8575 20.9737 27.8584 21.0838C27.8584 21.084 27.8584 21.0842 27.8584 21.0844Z" fill="black" style="fill:black;fill-opacity:1;"/>
</mask>
<g mask="url(#mask0_832_996)">
<rect x="16.125" y="4.19678" width="11.8152" height="11.8907" rx="1" transform="rotate(32.2887 16.125 4.19678)" fill="#DF3C3C" style="fill:#DF3C3C;fill:color(display-p3 0.8745 0.2353 0.2353);fill-opacity:1;"/>
</g>
</svg>
