<svg width="35" height="36" viewBox="0 0 35 36" fill="none" xmlns="http://www.w3.org/2000/svg">
<mask id="mask0_1074_632" style="mask-type:alpha" maskUnits="userSpaceOnUse" x="0" y="0" width="35" height="36">
<rect y="0.859863" width="34.98" height="34.98" fill="#D9D9D9" style="fill:#D9D9D9;fill:color(display-p3 0.8510 0.8510 0.8510);fill-opacity:1;"/>
</mask>
<g mask="url(#mask0_1074_632)">
<rect x="14.9131" y="0.859863" width="25" height="25" rx="4.94859" transform="rotate(36.6196 14.9131 0.859863)" fill="#FFE0E0" style="fill:#FFE0E0;fill:color(display-p3 1.0000 0.8771 0.8771);fill-opacity:1;"/>
<path d="M20.0396 10.9557C19.6063 10.5592 18.9381 10.5812 18.5122 11.0071L16.8527 12.6666L16.6471 12.461C16.2286 12.0351 15.5236 12.0424 15.0977 12.461C14.6718 12.8869 14.6718 13.5845 15.0977 14.0104L15.9055 14.8181C16.1551 15.0677 16.4929 15.2073 16.8527 15.2073C17.2125 15.2073 17.5429 15.0677 17.8 14.8181L20.0763 12.5418C20.5095 12.1085 20.4875 11.3669 20.0396 10.9557ZM19.5623 12.0278L17.2859 14.3041C17.1685 14.4216 17.0216 14.4803 16.8601 14.4803C16.6985 14.4803 16.5443 14.4142 16.4268 14.3041L15.6191 13.4963C15.4796 13.3568 15.4796 13.1219 15.6191 12.9823C15.7586 12.8428 15.9936 12.8428 16.1331 12.9823L16.4929 13.3421C16.5884 13.4376 16.7205 13.489 16.8527 13.489C16.9849 13.489 17.1171 13.4376 17.2125 13.3421L19.0262 11.5284C19.1731 11.3816 19.4007 11.3742 19.5402 11.4991C19.6944 11.6312 19.7018 11.8809 19.5623 12.0278Z" fill="#DC2626" style="fill:#DC2626;fill:color(display-p3 0.8627 0.1490 0.1490);fill-opacity:1;"/>
<path d="M20.0396 10.9557C19.6063 10.5592 18.9381 10.5812 18.5122 11.0071L16.8527 12.6666L16.6471 12.461C16.2286 12.0351 15.5236 12.0424 15.0977 12.461C14.6718 12.8869 14.6718 13.5845 15.0977 14.0104L15.9055 14.8181C16.1551 15.0677 16.4929 15.2073 16.8527 15.2073C17.2125 15.2073 17.5429 15.0677 17.8 14.8181L20.0763 12.5418C20.5095 12.1085 20.4875 11.3669 20.0396 10.9557ZM19.5623 12.0278L17.2859 14.3041C17.1685 14.4216 17.0216 14.4803 16.8601 14.4803C16.6985 14.4803 16.5443 14.4142 16.4268 14.3041L15.6191 13.4963C15.4796 13.3568 15.4796 13.1219 15.6191 12.9823C15.7586 12.8428 15.9936 12.8428 16.1331 12.9823L16.4929 13.3421C16.5884 13.4376 16.7205 13.489 16.8527 13.489C16.9849 13.489 17.1171 13.4376 17.2125 13.3421L19.0262 11.5284C19.1731 11.3816 19.4007 11.3742 19.5402 11.4991C19.6944 11.6312 19.7018 11.8809 19.5623 12.0278Z" fill="#DC2626" style="fill:#DC2626;fill:color(display-p3 0.8627 0.1490 0.1490);fill-opacity:1;"/>
<path d="M20.0396 10.9557C19.6063 10.5592 18.9381 10.5812 18.5122 11.0071L16.8527 12.6666L16.6471 12.461C16.2286 12.0351 15.5236 12.0424 15.0977 12.461C14.6718 12.8869 14.6718 13.5845 15.0977 14.0104L15.9055 14.8181C16.1551 15.0677 16.4929 15.2073 16.8527 15.2073C17.2125 15.2073 17.5429 15.0677 17.8 14.8181L20.0763 12.5418C20.5095 12.1085 20.4875 11.3669 20.0396 10.9557ZM19.5623 12.0278L17.2859 14.3041C17.1685 14.4216 17.0216 14.4803 16.8601 14.4803C16.6985 14.4803 16.5443 14.4142 16.4268 14.3041L15.6191 13.4963C15.4796 13.3568 15.4796 13.1219 15.6191 12.9823C15.7586 12.8428 15.9936 12.8428 16.1331 12.9823L16.4929 13.3421C16.5884 13.4376 16.7205 13.489 16.8527 13.489C16.9849 13.489 17.1171 13.4376 17.2125 13.3421L19.0262 11.5284C19.1731 11.3816 19.4007 11.3742 19.5402 11.4991C19.6944 11.6312 19.7018 11.8809 19.5623 12.0278Z" fill="#DC2626" style="fill:#DC2626;fill:color(display-p3 0.8627 0.1490 0.1490);fill-opacity:1;"/>
<path d="M20.0396 10.9557C19.6063 10.5592 18.9381 10.5812 18.5122 11.0071L16.8527 12.6666L16.6471 12.461C16.2286 12.0351 15.5236 12.0424 15.0977 12.461C14.6718 12.8869 14.6718 13.5845 15.0977 14.0104L15.9055 14.8181C16.1551 15.0677 16.4929 15.2073 16.8527 15.2073C17.2125 15.2073 17.5429 15.0677 17.8 14.8181L20.0763 12.5418C20.5095 12.1085 20.4875 11.3669 20.0396 10.9557ZM19.5623 12.0278L17.2859 14.3041C17.1685 14.4216 17.0216 14.4803 16.8601 14.4803C16.6985 14.4803 16.5443 14.4142 16.4268 14.3041L15.6191 13.4963C15.4796 13.3568 15.4796 13.1219 15.6191 12.9823C15.7586 12.8428 15.9936 12.8428 16.1331 12.9823L16.4929 13.3421C16.5884 13.4376 16.7205 13.489 16.8527 13.489C16.9849 13.489 17.1171 13.4376 17.2125 13.3421L19.0262 11.5284C19.1731 11.3816 19.4007 11.3742 19.5402 11.4991C19.6944 11.6312 19.7018 11.8809 19.5623 12.0278Z" fill="#DC2626" style="fill:#DC2626;fill:color(display-p3 0.8627 0.1490 0.1490);fill-opacity:1;"/>
<path d="M20.0396 10.9557C19.6063 10.5592 18.9381 10.5812 18.5122 11.0071L16.8527 12.6666L16.6471 12.461C16.2286 12.0351 15.5236 12.0424 15.0977 12.461C14.6718 12.8869 14.6718 13.5845 15.0977 14.0104L15.9055 14.8181C16.1551 15.0677 16.4929 15.2073 16.8527 15.2073C17.2125 15.2073 17.5429 15.0677 17.8 14.8181L20.0763 12.5418C20.5095 12.1085 20.4875 11.3669 20.0396 10.9557ZM19.5623 12.0278L17.2859 14.3041C17.1685 14.4216 17.0216 14.4803 16.8601 14.4803C16.6985 14.4803 16.5443 14.4142 16.4268 14.3041L15.6191 13.4963C15.4796 13.3568 15.4796 13.1219 15.6191 12.9823C15.7586 12.8428 15.9936 12.8428 16.1331 12.9823L16.4929 13.3421C16.5884 13.4376 16.7205 13.489 16.8527 13.489C16.9849 13.489 17.1171 13.4376 17.2125 13.3421L19.0262 11.5284C19.1731 11.3816 19.4007 11.3742 19.5402 11.4991C19.6944 11.6312 19.7018 11.8809 19.5623 12.0278Z" fill="#DC2626" style="fill:#DC2626;fill:color(display-p3 0.8627 0.1490 0.1490);fill-opacity:1;"/>
<path d="M17.5871 8.27588C15.0097 8.27588 12.917 10.3686 12.917 12.946C12.917 15.5234 15.0097 17.6161 17.5871 17.6161C20.1645 17.6161 22.2572 15.5234 22.2572 12.946C22.2572 10.3686 20.1572 8.27588 17.5871 8.27588ZM17.5871 16.8818C15.4136 16.8818 13.6513 15.1122 13.6513 12.9387C13.6513 10.7651 15.4209 9.00283 17.5871 9.00283C19.7606 9.00283 21.5229 10.7725 21.5229 12.9387C21.5229 15.1122 19.7606 16.8818 17.5871 16.8818Z" fill="#DC2626" style="fill:#DC2626;fill:color(display-p3 0.8627 0.1490 0.1490);fill-opacity:1;"/>
<path d="M20.0396 10.9557C19.6063 10.5592 18.9381 10.5812 18.5122 11.0071L16.8527 12.6666L16.6471 12.461C16.2286 12.0351 15.5236 12.0424 15.0977 12.461C14.6718 12.8869 14.6718 13.5845 15.0977 14.0104L15.9055 14.8181C16.1551 15.0677 16.4929 15.2073 16.8527 15.2073C17.2125 15.2073 17.5429 15.0677 17.8 14.8181L20.0763 12.5418C20.5095 12.1085 20.4875 11.3669 20.0396 10.9557ZM19.5623 12.0278L17.2859 14.3041C17.1685 14.4216 17.0216 14.4803 16.8601 14.4803C16.6985 14.4803 16.5443 14.4142 16.4268 14.3041L15.6191 13.4963C15.4796 13.3568 15.4796 13.1219 15.6191 12.9823C15.7586 12.8428 15.9936 12.8428 16.1331 12.9823L16.4929 13.3421C16.5884 13.4376 16.7205 13.489 16.8527 13.489C16.9849 13.489 17.1171 13.4376 17.2125 13.3421L19.0262 11.5284C19.1731 11.3816 19.4007 11.3742 19.5402 11.4991C19.6944 11.6312 19.7018 11.8809 19.5623 12.0278Z" fill="#DC2626" style="fill:#DC2626;fill:color(display-p3 0.8627 0.1490 0.1490);fill-opacity:1;"/>
<path d="M20.0396 10.9557C19.6063 10.5592 18.9381 10.5812 18.5122 11.0071L16.8527 12.6666L16.6471 12.461C16.2286 12.0351 15.5236 12.0424 15.0977 12.461C14.6718 12.8869 14.6718 13.5845 15.0977 14.0104L15.9055 14.8181C16.1551 15.0677 16.4929 15.2073 16.8527 15.2073C17.2125 15.2073 17.5429 15.0677 17.8 14.8181L20.0763 12.5418C20.5095 12.1085 20.4875 11.3669 20.0396 10.9557ZM19.5623 12.0278L17.2859 14.3041C17.1685 14.4216 17.0216 14.4803 16.8601 14.4803C16.6985 14.4803 16.5443 14.4142 16.4268 14.3041L15.6191 13.4963C15.4796 13.3568 15.4796 13.1219 15.6191 12.9823C15.7586 12.8428 15.9936 12.8428 16.1331 12.9823L16.4929 13.3421C16.5884 13.4376 16.7205 13.489 16.8527 13.489C16.9849 13.489 17.1171 13.4376 17.2125 13.3421L19.0262 11.5284C19.1731 11.3816 19.4007 11.3742 19.5402 11.4991C19.6944 11.6312 19.7018 11.8809 19.5623 12.0278Z" fill="#DC2626" style="fill:#DC2626;fill:color(display-p3 0.8627 0.1490 0.1490);fill-opacity:1;"/>
<path d="M20.0396 10.9557C19.6063 10.5592 18.9381 10.5812 18.5122 11.0071L16.8527 12.6666L16.6471 12.461C16.2286 12.0351 15.5236 12.0424 15.0977 12.461C14.6718 12.8869 14.6718 13.5845 15.0977 14.0104L15.9055 14.8181C16.1551 15.0677 16.4929 15.2073 16.8527 15.2073C17.2125 15.2073 17.5429 15.0677 17.8 14.8181L20.0763 12.5418C20.5095 12.1085 20.4875 11.3669 20.0396 10.9557ZM19.5623 12.0278L17.2859 14.3041C17.1685 14.4216 17.0216 14.4803 16.8601 14.4803C16.6985 14.4803 16.5443 14.4142 16.4268 14.3041L15.6191 13.4963C15.4796 13.3568 15.4796 13.1219 15.6191 12.9823C15.7586 12.8428 15.9936 12.8428 16.1331 12.9823L16.4929 13.3421C16.5884 13.4376 16.7205 13.489 16.8527 13.489C16.9849 13.489 17.1171 13.4376 17.2125 13.3421L19.0262 11.5284C19.1731 11.3816 19.4007 11.3742 19.5402 11.4991C19.6944 11.6312 19.7018 11.8809 19.5623 12.0278Z" fill="#DC2626" style="fill:#DC2626;fill:color(display-p3 0.8627 0.1490 0.1490);fill-opacity:1;"/>
<path d="M20.0396 10.9557C19.6063 10.5592 18.9381 10.5812 18.5122 11.0071L16.8527 12.6666L16.6471 12.461C16.2286 12.0351 15.5236 12.0424 15.0977 12.461C14.6718 12.8869 14.6718 13.5845 15.0977 14.0104L15.9055 14.8181C16.1551 15.0677 16.4929 15.2073 16.8527 15.2073C17.2125 15.2073 17.5429 15.0677 17.8 14.8181L20.0763 12.5418C20.5095 12.1085 20.4875 11.3669 20.0396 10.9557ZM19.5623 12.0278L17.2859 14.3041C17.1685 14.4216 17.0216 14.4803 16.8601 14.4803C16.6985 14.4803 16.5443 14.4142 16.4268 14.3041L15.6191 13.4963C15.4796 13.3568 15.4796 13.1219 15.6191 12.9823C15.7586 12.8428 15.9936 12.8428 16.1331 12.9823L16.4929 13.3421C16.5884 13.4376 16.7205 13.489 16.8527 13.489C16.9849 13.489 17.1171 13.4376 17.2125 13.3421L19.0262 11.5284C19.1731 11.3816 19.4007 11.3742 19.5402 11.4991C19.6944 11.6312 19.7018 11.8809 19.5623 12.0278Z" fill="#DC2626" style="fill:#DC2626;fill:color(display-p3 0.8627 0.1490 0.1490);fill-opacity:1;"/>
<path d="M22.1468 21.8159C22.1468 22.0141 21.9853 22.183 21.7797 22.183H13.3867C13.1884 22.183 13.0195 22.0215 13.0195 21.8159C13.0195 21.6103 13.1811 21.4487 13.3867 21.4487H21.787C21.9853 21.4487 22.1468 21.6103 22.1468 21.8159Z" fill="#DC2626" style="fill:#DC2626;fill:color(display-p3 0.8627 0.1490 0.1490);fill-opacity:1;"/>
<path d="M22.1468 19.6279C22.1468 19.8262 21.9853 19.995 21.7797 19.995H13.3867C13.1884 19.995 13.0195 19.8335 13.0195 19.6279C13.0195 19.4223 13.1811 19.2607 13.3867 19.2607H21.787C21.9853 19.2607 22.1468 19.4223 22.1468 19.6279Z" fill="#DC2626" style="fill:#DC2626;fill:color(display-p3 0.8627 0.1490 0.1490);fill-opacity:1;"/>
<path d="M22.1468 19.6279C22.1468 19.8262 21.9853 19.995 21.7797 19.995H13.3867C13.1884 19.995 13.0195 19.8335 13.0195 19.6279C13.0195 19.4223 13.1811 19.2607 13.3867 19.2607H21.787C21.9853 19.2607 22.1468 19.4223 22.1468 19.6279Z" fill="#DC2626" style="fill:#DC2626;fill:color(display-p3 0.8627 0.1490 0.1490);fill-opacity:1;"/>
<path d="M22.1468 21.8159C22.1468 22.0141 21.9853 22.183 21.7797 22.183H13.3867C13.1884 22.183 13.0195 22.0215 13.0195 21.8159C13.0195 21.6103 13.1811 21.4487 13.3867 21.4487H21.787C21.9853 21.4487 22.1468 21.6103 22.1468 21.8159Z" fill="#DC2626" style="fill:#DC2626;fill:color(display-p3 0.8627 0.1490 0.1490);fill-opacity:1;"/>
<path d="M20.0396 10.9557C19.6063 10.5592 18.9381 10.5812 18.5122 11.0071L16.8527 12.6666L16.6471 12.461C16.2286 12.0351 15.5236 12.0424 15.0977 12.461C14.6718 12.8869 14.6718 13.5845 15.0977 14.0104L15.9055 14.8181C16.1551 15.0677 16.4929 15.2073 16.8527 15.2073C17.2125 15.2073 17.5429 15.0677 17.8 14.8181L20.0763 12.5418C20.5095 12.1085 20.4875 11.3669 20.0396 10.9557ZM19.5623 12.0278L17.2859 14.3041C17.1685 14.4216 17.0216 14.4803 16.8601 14.4803C16.6985 14.4803 16.5443 14.4142 16.4268 14.3041L15.6191 13.4963C15.4796 13.3568 15.4796 13.1219 15.6191 12.9823C15.7586 12.8428 15.9936 12.8428 16.1331 12.9823L16.4929 13.3421C16.5884 13.4376 16.7205 13.489 16.8527 13.489C16.9849 13.489 17.1171 13.4376 17.2125 13.3421L19.0262 11.5284C19.1731 11.3816 19.4007 11.3742 19.5402 11.4991C19.6944 11.6312 19.7018 11.8809 19.5623 12.0278Z" fill="#DC2626" style="fill:#DC2626;fill:color(display-p3 0.8627 0.1490 0.1490);fill-opacity:1;"/>
<path d="M20.0396 10.9557C19.6063 10.5592 18.9381 10.5812 18.5122 11.0071L16.8527 12.6666L16.6471 12.461C16.2286 12.0351 15.5236 12.0424 15.0977 12.461C14.6718 12.8869 14.6718 13.5845 15.0977 14.0104L15.9055 14.8181C16.1551 15.0677 16.4929 15.2073 16.8527 15.2073C17.2125 15.2073 17.5429 15.0677 17.8 14.8181L20.0763 12.5418C20.5095 12.1085 20.4875 11.3669 20.0396 10.9557ZM19.5623 12.0278L17.2859 14.3041C17.1685 14.4216 17.0216 14.4803 16.8601 14.4803C16.6985 14.4803 16.5443 14.4142 16.4268 14.3041L15.6191 13.4963C15.4796 13.3568 15.4796 13.1219 15.6191 12.9823C15.7586 12.8428 15.9936 12.8428 16.1331 12.9823L16.4929 13.3421C16.5884 13.4376 16.7205 13.489 16.8527 13.489C16.9849 13.489 17.1171 13.4376 17.2125 13.3421L19.0262 11.5284C19.1731 11.3816 19.4007 11.3742 19.5402 11.4991C19.6944 11.6312 19.7018 11.8809 19.5623 12.0278Z" fill="#DC2626" style="fill:#DC2626;fill:color(display-p3 0.8627 0.1490 0.1490);fill-opacity:1;"/>
<path d="M20.0396 10.9557C19.6063 10.5592 18.9381 10.5812 18.5122 11.0071L16.8527 12.6666L16.6471 12.461C16.2286 12.0351 15.5236 12.0424 15.0977 12.461C14.6718 12.8869 14.6718 13.5845 15.0977 14.0104L15.9055 14.8181C16.1551 15.0677 16.4929 15.2073 16.8527 15.2073C17.2125 15.2073 17.5429 15.0677 17.8 14.8181L20.0763 12.5418C20.5095 12.1085 20.4875 11.3669 20.0396 10.9557ZM19.5623 12.0278L17.2859 14.3041C17.1685 14.4216 17.0216 14.4803 16.8601 14.4803C16.6985 14.4803 16.5443 14.4142 16.4268 14.3041L15.6191 13.4963C15.4796 13.3568 15.4796 13.1219 15.6191 12.9823C15.7586 12.8428 15.9936 12.8428 16.1331 12.9823L16.4929 13.3421C16.5884 13.4376 16.7205 13.489 16.8527 13.489C16.9849 13.489 17.1171 13.4376 17.2125 13.3421L19.0262 11.5284C19.1731 11.3816 19.4007 11.3742 19.5402 11.4991C19.6944 11.6312 19.7018 11.8809 19.5623 12.0278Z" fill="#DC2626" style="fill:#DC2626;fill:color(display-p3 0.8627 0.1490 0.1490);fill-opacity:1;"/>
<path d="M17.5871 8.27588C15.0097 8.27588 12.917 10.3686 12.917 12.946C12.917 15.5234 15.0097 17.6161 17.5871 17.6161C20.1645 17.6161 22.2572 15.5234 22.2572 12.946C22.2572 10.3686 20.1572 8.27588 17.5871 8.27588ZM17.5871 16.8818C15.4136 16.8818 13.6513 15.1122 13.6513 12.9387C13.6513 10.7651 15.4209 9.00283 17.5871 9.00283C19.7606 9.00283 21.5229 10.7725 21.5229 12.9387C21.5229 15.1122 19.7606 16.8818 17.5871 16.8818Z" fill="#DC2626" style="fill:#DC2626;fill:color(display-p3 0.8627 0.1490 0.1490);fill-opacity:1;"/>
<path d="M20.0396 10.9557C19.6063 10.5592 18.9381 10.5812 18.5122 11.0071L16.8527 12.6666L16.6471 12.461C16.2286 12.0351 15.5236 12.0424 15.0977 12.461C14.6718 12.8869 14.6718 13.5845 15.0977 14.0104L15.9055 14.8181C16.1551 15.0677 16.4929 15.2073 16.8527 15.2073C17.2125 15.2073 17.5429 15.0677 17.8 14.8181L20.0763 12.5418C20.5095 12.1085 20.4875 11.3669 20.0396 10.9557ZM19.5623 12.0278L17.2859 14.3041C17.1685 14.4216 17.0216 14.4803 16.8601 14.4803C16.6985 14.4803 16.5443 14.4142 16.4268 14.3041L15.6191 13.4963C15.4796 13.3568 15.4796 13.1219 15.6191 12.9823C15.7586 12.8428 15.9936 12.8428 16.1331 12.9823L16.4929 13.3421C16.5884 13.4376 16.7205 13.489 16.8527 13.489C16.9849 13.489 17.1171 13.4376 17.2125 13.3421L19.0262 11.5284C19.1731 11.3816 19.4007 11.3742 19.5402 11.4991C19.6944 11.6312 19.7018 11.8809 19.5623 12.0278Z" fill="#DC2626" style="fill:#DC2626;fill:color(display-p3 0.8627 0.1490 0.1490);fill-opacity:1;"/>
<path d="M20.0396 10.9557C19.6063 10.5592 18.9381 10.5812 18.5122 11.0071L16.8527 12.6666L16.6471 12.461C16.2286 12.0351 15.5236 12.0424 15.0977 12.461C14.6718 12.8869 14.6718 13.5845 15.0977 14.0104L15.9055 14.8181C16.1551 15.0677 16.4929 15.2073 16.8527 15.2073C17.2125 15.2073 17.5429 15.0677 17.8 14.8181L20.0763 12.5418C20.5095 12.1085 20.4875 11.3669 20.0396 10.9557ZM19.5623 12.0278L17.2859 14.3041C17.1685 14.4216 17.0216 14.4803 16.8601 14.4803C16.6985 14.4803 16.5443 14.4142 16.4268 14.3041L15.6191 13.4963C15.4796 13.3568 15.4796 13.1219 15.6191 12.9823C15.7586 12.8428 15.9936 12.8428 16.1331 12.9823L16.4929 13.3421C16.5884 13.4376 16.7205 13.489 16.8527 13.489C16.9849 13.489 17.1171 13.4376 17.2125 13.3421L19.0262 11.5284C19.1731 11.3816 19.4007 11.3742 19.5402 11.4991C19.6944 11.6312 19.7018 11.8809 19.5623 12.0278Z" fill="#DC2626" style="fill:#DC2626;fill:color(display-p3 0.8627 0.1490 0.1490);fill-opacity:1;"/>
<path d="M20.0396 10.9557C19.6063 10.5592 18.9381 10.5812 18.5122 11.0071L16.8527 12.6666L16.6471 12.461C16.2286 12.0351 15.5236 12.0424 15.0977 12.461C14.6718 12.8869 14.6718 13.5845 15.0977 14.0104L15.9055 14.8181C16.1551 15.0677 16.4929 15.2073 16.8527 15.2073C17.2125 15.2073 17.5429 15.0677 17.8 14.8181L20.0763 12.5418C20.5095 12.1085 20.4875 11.3669 20.0396 10.9557ZM19.5623 12.0278L17.2859 14.3041C17.1685 14.4216 17.0216 14.4803 16.8601 14.4803C16.6985 14.4803 16.5443 14.4142 16.4268 14.3041L15.6191 13.4963C15.4796 13.3568 15.4796 13.1219 15.6191 12.9823C15.7586 12.8428 15.9936 12.8428 16.1331 12.9823L16.4929 13.3421C16.5884 13.4376 16.7205 13.489 16.8527 13.489C16.9849 13.489 17.1171 13.4376 17.2125 13.3421L19.0262 11.5284C19.1731 11.3816 19.4007 11.3742 19.5402 11.4991C19.6944 11.6312 19.7018 11.8809 19.5623 12.0278Z" fill="#DC2626" style="fill:#DC2626;fill:color(display-p3 0.8627 0.1490 0.1490);fill-opacity:1;"/>
<path d="M20.0396 10.9557C19.6063 10.5592 18.9381 10.5812 18.5122 11.0071L16.8527 12.6666L16.6471 12.461C16.2286 12.0351 15.5236 12.0424 15.0977 12.461C14.6718 12.8869 14.6718 13.5845 15.0977 14.0104L15.9055 14.8181C16.1551 15.0677 16.4929 15.2073 16.8527 15.2073C17.2125 15.2073 17.5429 15.0677 17.8 14.8181L20.0763 12.5418C20.5095 12.1085 20.4875 11.3669 20.0396 10.9557ZM19.5623 12.0278L17.2859 14.3041C17.1685 14.4216 17.0216 14.4803 16.8601 14.4803C16.6985 14.4803 16.5443 14.4142 16.4268 14.3041L15.6191 13.4963C15.4796 13.3568 15.4796 13.1219 15.6191 12.9823C15.7586 12.8428 15.9936 12.8428 16.1331 12.9823L16.4929 13.3421C16.5884 13.4376 16.7205 13.489 16.8527 13.489C16.9849 13.489 17.1171 13.4376 17.2125 13.3421L19.0262 11.5284C19.1731 11.3816 19.4007 11.3742 19.5402 11.4991C19.6944 11.6312 19.7018 11.8809 19.5623 12.0278Z" fill="#DC2626" style="fill:#DC2626;fill:color(display-p3 0.8627 0.1490 0.1490);fill-opacity:1;"/>
<path d="M20.0396 10.9557C19.6063 10.5592 18.9381 10.5812 18.5122 11.0071L16.8527 12.6666L16.6471 12.461C16.2286 12.0351 15.5236 12.0424 15.0977 12.461C14.6718 12.8869 14.6718 13.5845 15.0977 14.0104L15.9055 14.8181C16.1551 15.0677 16.4929 15.2073 16.8527 15.2073C17.2125 15.2073 17.5429 15.0677 17.8 14.8181L20.0763 12.5418C20.5095 12.1085 20.4875 11.3669 20.0396 10.9557ZM19.5623 12.0278L17.2859 14.3041C17.1685 14.4216 17.0216 14.4803 16.8601 14.4803C16.6985 14.4803 16.5443 14.4142 16.4268 14.3041L15.6191 13.4963C15.4796 13.3568 15.4796 13.1219 15.6191 12.9823C15.7586 12.8428 15.9936 12.8428 16.1331 12.9823L16.4929 13.3421C16.5884 13.4376 16.7205 13.489 16.8527 13.489C16.9849 13.489 17.1171 13.4376 17.2125 13.3421L19.0262 11.5284C19.1731 11.3816 19.4007 11.3742 19.5402 11.4991C19.6944 11.6312 19.7018 11.8809 19.5623 12.0278Z" fill="#DC2626" style="fill:#DC2626;fill:color(display-p3 0.8627 0.1490 0.1490);fill-opacity:1;"/>
<path d="M20.0396 10.9557C19.6063 10.5592 18.9381 10.5812 18.5122 11.0071L16.8527 12.6666L16.6471 12.461C16.2286 12.0351 15.5236 12.0424 15.0977 12.461C14.6718 12.8869 14.6718 13.5845 15.0977 14.0104L15.9055 14.8181C16.1551 15.0677 16.4929 15.2073 16.8527 15.2073C17.2125 15.2073 17.5429 15.0677 17.8 14.8181L20.0763 12.5418C20.5095 12.1085 20.4875 11.3669 20.0396 10.9557ZM19.5623 12.0278L17.2859 14.3041C17.1685 14.4216 17.0216 14.4803 16.8601 14.4803C16.6985 14.4803 16.5443 14.4142 16.4268 14.3041L15.6191 13.4963C15.4796 13.3568 15.4796 13.1219 15.6191 12.9823C15.7586 12.8428 15.9936 12.8428 16.1331 12.9823L16.4929 13.3421C16.5884 13.4376 16.7205 13.489 16.8527 13.489C16.9849 13.489 17.1171 13.4376 17.2125 13.3421L19.0262 11.5284C19.1731 11.3816 19.4007 11.3742 19.5402 11.4991C19.6944 11.6312 19.7018 11.8809 19.5623 12.0278Z" fill="#DC2626" style="fill:#DC2626;fill:color(display-p3 0.8627 0.1490 0.1490);fill-opacity:1;"/>
<path d="M20.0396 10.9557C19.6063 10.5592 18.9381 10.5812 18.5122 11.0071L16.8527 12.6666L16.6471 12.461C16.2286 12.0351 15.5236 12.0424 15.0977 12.461C14.6718 12.8869 14.6718 13.5845 15.0977 14.0104L15.9055 14.8181C16.1551 15.0677 16.4929 15.2073 16.8527 15.2073C17.2125 15.2073 17.5429 15.0677 17.8 14.8181L20.0763 12.5418C20.5095 12.1085 20.4875 11.3669 20.0396 10.9557ZM19.5623 12.0278L17.2859 14.3041C17.1685 14.4216 17.0216 14.4803 16.8601 14.4803C16.6985 14.4803 16.5443 14.4142 16.4268 14.3041L15.6191 13.4963C15.4796 13.3568 15.4796 13.1219 15.6191 12.9823C15.7586 12.8428 15.9936 12.8428 16.1331 12.9823L16.4929 13.3421C16.5884 13.4376 16.7205 13.489 16.8527 13.489C16.9849 13.489 17.1171 13.4376 17.2125 13.3421L19.0262 11.5284C19.1731 11.3816 19.4007 11.3742 19.5402 11.4991C19.6944 11.6312 19.7018 11.8809 19.5623 12.0278Z" fill="#DC2626" style="fill:#DC2626;fill:color(display-p3 0.8627 0.1490 0.1490);fill-opacity:1;"/>
<path d="M17.5871 8.27588C15.0097 8.27588 12.917 10.3686 12.917 12.946C12.917 15.5234 15.0097 17.6161 17.5871 17.6161C20.1645 17.6161 22.2572 15.5234 22.2572 12.946C22.2572 10.3686 20.1572 8.27588 17.5871 8.27588ZM17.5871 16.8818C15.4136 16.8818 13.6513 15.1122 13.6513 12.9387C13.6513 10.7651 15.4209 9.00283 17.5871 9.00283C19.7606 9.00283 21.5229 10.7725 21.5229 12.9387C21.5229 15.1122 19.7606 16.8818 17.5871 16.8818Z" fill="#DC2626" style="fill:#DC2626;fill:color(display-p3 0.8627 0.1490 0.1490);fill-opacity:1;"/>
<path d="M20.0396 10.9557C19.6063 10.5592 18.9381 10.5812 18.5122 11.0071L16.8527 12.6666L16.6471 12.461C16.2286 12.0351 15.5236 12.0424 15.0977 12.461C14.6718 12.8869 14.6718 13.5845 15.0977 14.0104L15.9055 14.8181C16.1551 15.0677 16.4929 15.2073 16.8527 15.2073C17.2125 15.2073 17.5429 15.0677 17.8 14.8181L20.0763 12.5418C20.5095 12.1085 20.4875 11.3669 20.0396 10.9557ZM19.5623 12.0278L17.2859 14.3041C17.1685 14.4216 17.0216 14.4803 16.8601 14.4803C16.6985 14.4803 16.5443 14.4142 16.4268 14.3041L15.6191 13.4963C15.4796 13.3568 15.4796 13.1219 15.6191 12.9823C15.7586 12.8428 15.9936 12.8428 16.1331 12.9823L16.4929 13.3421C16.5884 13.4376 16.7205 13.489 16.8527 13.489C16.9849 13.489 17.1171 13.4376 17.2125 13.3421L19.0262 11.5284C19.1731 11.3816 19.4007 11.3742 19.5402 11.4991C19.6944 11.6312 19.7018 11.8809 19.5623 12.0278Z" fill="#DC2626" style="fill:#DC2626;fill:color(display-p3 0.8627 0.1490 0.1490);fill-opacity:1;"/>
<path d="M20.0396 10.9557C19.6063 10.5592 18.9381 10.5812 18.5122 11.0071L16.8527 12.6666L16.6471 12.461C16.2286 12.0351 15.5236 12.0424 15.0977 12.461C14.6718 12.8869 14.6718 13.5845 15.0977 14.0104L15.9055 14.8181C16.1551 15.0677 16.4929 15.2073 16.8527 15.2073C17.2125 15.2073 17.5429 15.0677 17.8 14.8181L20.0763 12.5418C20.5095 12.1085 20.4875 11.3669 20.0396 10.9557ZM19.5623 12.0278L17.2859 14.3041C17.1685 14.4216 17.0216 14.4803 16.8601 14.4803C16.6985 14.4803 16.5443 14.4142 16.4268 14.3041L15.6191 13.4963C15.4796 13.3568 15.4796 13.1219 15.6191 12.9823C15.7586 12.8428 15.9936 12.8428 16.1331 12.9823L16.4929 13.3421C16.5884 13.4376 16.7205 13.489 16.8527 13.489C16.9849 13.489 17.1171 13.4376 17.2125 13.3421L19.0262 11.5284C19.1731 11.3816 19.4007 11.3742 19.5402 11.4991C19.6944 11.6312 19.7018 11.8809 19.5623 12.0278Z" fill="#DC2626" style="fill:#DC2626;fill:color(display-p3 0.8627 0.1490 0.1490);fill-opacity:1;"/>
<path d="M22.1468 21.8159C22.1468 22.0141 21.9853 22.183 21.7797 22.183H13.3867C13.1884 22.183 13.0195 22.0215 13.0195 21.8159C13.0195 21.6103 13.1811 21.4487 13.3867 21.4487H21.787C21.9853 21.4487 22.1468 21.6103 22.1468 21.8159Z" fill="#DC2626" style="fill:#DC2626;fill:color(display-p3 0.8627 0.1490 0.1490);fill-opacity:1;"/>
<path d="M22.1468 19.6279C22.1468 19.8262 21.9853 19.995 21.7797 19.995H13.3867C13.1884 19.995 13.0195 19.8335 13.0195 19.6279C13.0195 19.4223 13.1811 19.2607 13.3867 19.2607H21.787C21.9853 19.2607 22.1468 19.4223 22.1468 19.6279Z" fill="#DC2626" style="fill:#DC2626;fill:color(display-p3 0.8627 0.1490 0.1490);fill-opacity:1;"/>
<path d="M22.1468 19.6279C22.1468 19.8262 21.9853 19.995 21.7797 19.995H13.3867C13.1884 19.995 13.0195 19.8335 13.0195 19.6279C13.0195 19.4223 13.1811 19.2607 13.3867 19.2607H21.787C21.9853 19.2607 22.1468 19.4223 22.1468 19.6279Z" fill="#DC2626" style="fill:#DC2626;fill:color(display-p3 0.8627 0.1490 0.1490);fill-opacity:1;"/>
<path d="M22.1468 21.8159C22.1468 22.0141 21.9853 22.183 21.7797 22.183H13.3867C13.1884 22.183 13.0195 22.0215 13.0195 21.8159C13.0195 21.6103 13.1811 21.4487 13.3867 21.4487H21.787C21.9853 21.4487 22.1468 21.6103 22.1468 21.8159Z" fill="#DC2626" style="fill:#DC2626;fill:color(display-p3 0.8627 0.1490 0.1490);fill-opacity:1;"/>
<path d="M20.0396 10.9557C19.6063 10.5592 18.9381 10.5812 18.5122 11.0071L16.8527 12.6666L16.6471 12.461C16.2286 12.0351 15.5236 12.0424 15.0977 12.461C14.6718 12.8869 14.6718 13.5845 15.0977 14.0104L15.9055 14.8181C16.1551 15.0677 16.4929 15.2073 16.8527 15.2073C17.2125 15.2073 17.5429 15.0677 17.8 14.8181L20.0763 12.5418C20.5095 12.1085 20.4875 11.3669 20.0396 10.9557ZM19.5623 12.0278L17.2859 14.3041C17.1685 14.4216 17.0216 14.4803 16.8601 14.4803C16.6985 14.4803 16.5443 14.4142 16.4268 14.3041L15.6191 13.4963C15.4796 13.3568 15.4796 13.1219 15.6191 12.9823C15.7586 12.8428 15.9936 12.8428 16.1331 12.9823L16.4929 13.3421C16.5884 13.4376 16.7205 13.489 16.8527 13.489C16.9849 13.489 17.1171 13.4376 17.2125 13.3421L19.0262 11.5284C19.1731 11.3816 19.4007 11.3742 19.5402 11.4991C19.6944 11.6312 19.7018 11.8809 19.5623 12.0278Z" fill="#DC2626" style="fill:#DC2626;fill:color(display-p3 0.8627 0.1490 0.1490);fill-opacity:1;"/>
<path d="M17.5871 8.27588C15.0097 8.27588 12.917 10.3686 12.917 12.946C12.917 15.5234 15.0097 17.6161 17.5871 17.6161C20.1645 17.6161 22.2572 15.5234 22.2572 12.946C22.2572 10.3686 20.1572 8.27588 17.5871 8.27588ZM17.5871 16.8818C15.4136 16.8818 13.6513 15.1122 13.6513 12.9387C13.6513 10.7651 15.4209 9.00283 17.5871 9.00283C19.7606 9.00283 21.5229 10.7725 21.5229 12.9387C21.5229 15.1122 19.7606 16.8818 17.5871 16.8818Z" fill="#DC2626" style="fill:#DC2626;fill:color(display-p3 0.8627 0.1490 0.1490);fill-opacity:1;"/>
<path d="M20.0396 10.9557C19.6063 10.5592 18.9381 10.5812 18.5122 11.0071L16.8527 12.6666L16.6471 12.461C16.2286 12.0351 15.5236 12.0424 15.0977 12.461C14.6718 12.8869 14.6718 13.5845 15.0977 14.0104L15.9055 14.8181C16.1551 15.0677 16.4929 15.2073 16.8527 15.2073C17.2125 15.2073 17.5429 15.0677 17.8 14.8181L20.0763 12.5418C20.5095 12.1085 20.4875 11.3669 20.0396 10.9557ZM19.5623 12.0278L17.2859 14.3041C17.1685 14.4216 17.0216 14.4803 16.8601 14.4803C16.6985 14.4803 16.5443 14.4142 16.4268 14.3041L15.6191 13.4963C15.4796 13.3568 15.4796 13.1219 15.6191 12.9823C15.7586 12.8428 15.9936 12.8428 16.1331 12.9823L16.4929 13.3421C16.5884 13.4376 16.7205 13.489 16.8527 13.489C16.9849 13.489 17.1171 13.4376 17.2125 13.3421L19.0262 11.5284C19.1731 11.3816 19.4007 11.3742 19.5402 11.4991C19.6944 11.6312 19.7018 11.8809 19.5623 12.0278Z" fill="#DC2626" style="fill:#DC2626;fill:color(display-p3 0.8627 0.1490 0.1490);fill-opacity:1;"/>
<path d="M20.0396 10.9557C19.6063 10.5592 18.9381 10.5812 18.5122 11.0071L16.8527 12.6666L16.6471 12.461C16.2286 12.0351 15.5236 12.0424 15.0977 12.461C14.6718 12.8869 14.6718 13.5845 15.0977 14.0104L15.9055 14.8181C16.1551 15.0677 16.4929 15.2073 16.8527 15.2073C17.2125 15.2073 17.5429 15.0677 17.8 14.8181L20.0763 12.5418C20.5095 12.1085 20.4875 11.3669 20.0396 10.9557ZM19.5623 12.0278L17.2859 14.3041C17.1685 14.4216 17.0216 14.4803 16.8601 14.4803C16.6985 14.4803 16.5443 14.4142 16.4268 14.3041L15.6191 13.4963C15.4796 13.3568 15.4796 13.1219 15.6191 12.9823C15.7586 12.8428 15.9936 12.8428 16.1331 12.9823L16.4929 13.3421C16.5884 13.4376 16.7205 13.489 16.8527 13.489C16.9849 13.489 17.1171 13.4376 17.2125 13.3421L19.0262 11.5284C19.1731 11.3816 19.4007 11.3742 19.5402 11.4991C19.6944 11.6312 19.7018 11.8809 19.5623 12.0278Z" fill="#DC2626" style="fill:#DC2626;fill:color(display-p3 0.8627 0.1490 0.1490);fill-opacity:1;"/>
<path d="M27.9847 7.37251H24.1296C23.9901 6.51339 23.2411 5.85986 22.3379 5.85986H12.3882C11.485 5.85986 10.7361 6.51339 10.5892 7.37251H6.73414C5.72815 7.37251 4.91309 8.19493 4.91309 9.20091V23.7694C4.91309 24.7753 5.72815 25.5904 6.73414 25.5904H14.8408V27.3747H14.8114C13.6365 27.3747 12.6746 28.3293 12.6746 29.5116V30.1577C12.6746 30.4882 12.9463 30.7599 13.2767 30.7599H21.4348C21.7652 30.7599 22.0369 30.4882 22.0369 30.1577V29.5042C22.0369 28.3293 21.0823 27.3674 19.9001 27.3674H19.8707V25.5831H24.2031C24.4013 25.5831 24.5702 25.4215 24.5702 25.2159C24.5702 25.0103 24.4087 24.8488 24.2031 24.8488H6.73414C6.13202 24.8488 5.64004 24.3568 5.64004 23.7547V9.20091C5.64004 8.59879 6.13202 8.10681 6.73414 8.10681H10.5598V8.83376H6.9324C6.624 8.83376 6.37434 9.08342 6.37434 9.39183V23.5711C6.37434 23.8795 6.624 24.1292 6.9324 24.1292H27.7938C28.1022 24.1292 28.3518 23.8795 28.3518 23.5711V9.39183C28.3518 9.08342 28.1022 8.83376 27.7938 8.83376H24.1663V8.10681H27.992C28.5941 8.10681 29.0861 8.59879 29.0861 9.20091V23.7694C29.0861 24.3715 28.5941 24.8635 27.992 24.8635H25.914C25.7084 24.8635 25.5468 25.025 25.5468 25.2306C25.5468 25.4289 25.7084 25.5978 25.914 25.5978H27.992C28.998 25.5978 29.8131 24.7827 29.8131 23.7767V9.20091C29.8131 8.19493 28.9907 7.37251 27.9847 7.37251ZM15.5751 25.5904H19.1438V27.3747H15.5751V25.5904ZM15.2153 28.1017H19.5182H19.9148C20.6858 28.1017 21.3173 28.7332 21.3173 29.5042V30.0256H13.4089V29.5042C13.4089 28.7332 14.0404 28.1017 14.8114 28.1017H15.2153ZM23.432 23.4022H11.2941V12.6007C11.2941 12.3951 11.1326 12.2336 10.927 12.2336C10.7287 12.2336 10.5598 12.3951 10.5598 12.6007V23.4022H7.10129V9.56072H10.5598V10.8971C10.5598 11.0954 10.7214 11.2643 10.927 11.2643C11.1252 11.2643 11.2941 11.1027 11.2941 10.8971V7.68092C11.2941 7.0788 11.7861 6.58682 12.3882 6.58682H22.3379C22.9401 6.58682 23.432 7.0788 23.432 7.68092V23.4022ZM27.6249 9.56072V23.4022H24.1663V9.56072H27.6249Z" fill="black" style="fill:black;fill-opacity:1;"/>
<path d="M22.1468 19.6279C22.1468 19.8262 21.9853 19.995 21.7797 19.995H13.3867C13.1884 19.995 13.0195 19.8335 13.0195 19.6279C13.0195 19.4223 13.1811 19.2607 13.3867 19.2607H21.787C21.9853 19.2607 22.1468 19.4223 22.1468 19.6279Z" fill="#DC2626" style="fill:#DC2626;fill:color(display-p3 0.8627 0.1490 0.1490);fill-opacity:1;"/>
<path d="M22.1468 21.8159C22.1468 22.0141 21.9853 22.183 21.7797 22.183H13.3867C13.1884 22.183 13.0195 22.0215 13.0195 21.8159C13.0195 21.6103 13.1811 21.4487 13.3867 21.4487H21.787C21.9853 21.4487 22.1468 21.6103 22.1468 21.8159Z" fill="#DC2626" style="fill:#DC2626;fill:color(display-p3 0.8627 0.1490 0.1490);fill-opacity:1;"/>
<path d="M20.0396 10.9557C19.6063 10.5592 18.9381 10.5812 18.5122 11.0071L16.8527 12.6666L16.6471 12.461C16.2286 12.0351 15.5236 12.0424 15.0977 12.461C14.6718 12.8869 14.6718 13.5845 15.0977 14.0104L15.9055 14.8181C16.1551 15.0677 16.4929 15.2073 16.8527 15.2073C17.2125 15.2073 17.5429 15.0677 17.8 14.8181L20.0763 12.5418C20.5095 12.1085 20.4875 11.3669 20.0396 10.9557ZM19.5623 12.0278L17.2859 14.3041C17.1685 14.4216 17.0216 14.4803 16.8601 14.4803C16.6985 14.4803 16.5443 14.4142 16.4268 14.3041L15.6191 13.4963C15.4796 13.3568 15.4796 13.1219 15.6191 12.9823C15.7586 12.8428 15.9936 12.8428 16.1331 12.9823L16.4929 13.3421C16.5884 13.4376 16.7205 13.489 16.8527 13.489C16.9849 13.489 17.1171 13.4376 17.2125 13.3421L19.0262 11.5284C19.1731 11.3816 19.4007 11.3742 19.5402 11.4991C19.6944 11.6312 19.7018 11.8809 19.5623 12.0278Z" fill="#DC2626" style="fill:#DC2626;fill:color(display-p3 0.8627 0.1490 0.1490);fill-opacity:1;"/>
<path d="M17.5871 8.27588C15.0097 8.27588 12.917 10.3686 12.917 12.946C12.917 15.5234 15.0097 17.6161 17.5871 17.6161C20.1645 17.6161 22.2572 15.5234 22.2572 12.946C22.2572 10.3686 20.1572 8.27588 17.5871 8.27588ZM17.5871 16.8818C15.4136 16.8818 13.6513 15.1122 13.6513 12.9387C13.6513 10.7651 15.4209 9.00283 17.5871 9.00283C19.7606 9.00283 21.5229 10.7725 21.5229 12.9387C21.5229 15.1122 19.7606 16.8818 17.5871 16.8818Z" fill="#DC2626" style="fill:#DC2626;fill:color(display-p3 0.8627 0.1490 0.1490);fill-opacity:1;"/>
<path d="M20.0396 10.9557C19.6063 10.5592 18.9381 10.5812 18.5122 11.0071L16.8527 12.6666L16.6471 12.461C16.2286 12.0351 15.5236 12.0424 15.0977 12.461C14.6718 12.8869 14.6718 13.5845 15.0977 14.0104L15.9055 14.8181C16.1551 15.0677 16.4929 15.2073 16.8527 15.2073C17.2125 15.2073 17.5429 15.0677 17.8 14.8181L20.0763 12.5418C20.5095 12.1085 20.4875 11.3669 20.0396 10.9557ZM19.5623 12.0278L17.2859 14.3041C17.1685 14.4216 17.0216 14.4803 16.8601 14.4803C16.6985 14.4803 16.5443 14.4142 16.4268 14.3041L15.6191 13.4963C15.4796 13.3568 15.4796 13.1219 15.6191 12.9823C15.7586 12.8428 15.9936 12.8428 16.1331 12.9823L16.4929 13.3421C16.5884 13.4376 16.7205 13.489 16.8527 13.489C16.9849 13.489 17.1171 13.4376 17.2125 13.3421L19.0262 11.5284C19.1731 11.3816 19.4007 11.3742 19.5402 11.4991C19.6944 11.6312 19.7018 11.8809 19.5623 12.0278Z" fill="#DC2626" style="fill:#DC2626;fill:color(display-p3 0.8627 0.1490 0.1490);fill-opacity:1;"/>
<path d="M20.0396 10.9557C19.6063 10.5592 18.9381 10.5812 18.5122 11.0071L16.8527 12.6666L16.6471 12.461C16.2286 12.0351 15.5236 12.0424 15.0977 12.461C14.6718 12.8869 14.6718 13.5845 15.0977 14.0104L15.9055 14.8181C16.1551 15.0677 16.4929 15.2073 16.8527 15.2073C17.2125 15.2073 17.5429 15.0677 17.8 14.8181L20.0763 12.5418C20.5095 12.1085 20.4875 11.3669 20.0396 10.9557ZM19.5623 12.0278L17.2859 14.3041C17.1685 14.4216 17.0216 14.4803 16.8601 14.4803C16.6985 14.4803 16.5443 14.4142 16.4268 14.3041L15.6191 13.4963C15.4796 13.3568 15.4796 13.1219 15.6191 12.9823C15.7586 12.8428 15.9936 12.8428 16.1331 12.9823L16.4929 13.3421C16.5884 13.4376 16.7205 13.489 16.8527 13.489C16.9849 13.489 17.1171 13.4376 17.2125 13.3421L19.0262 11.5284C19.1731 11.3816 19.4007 11.3742 19.5402 11.4991C19.6944 11.6312 19.7018 11.8809 19.5623 12.0278Z" fill="#DC2626" style="fill:#DC2626;fill:color(display-p3 0.8627 0.1490 0.1490);fill-opacity:1;"/>
<path d="M20.0396 10.9557C19.6063 10.5592 18.9381 10.5812 18.5122 11.0071L16.8527 12.6666L16.6471 12.461C16.2286 12.0351 15.5236 12.0424 15.0977 12.461C14.6718 12.8869 14.6718 13.5845 15.0977 14.0104L15.9055 14.8181C16.1551 15.0677 16.4929 15.2073 16.8527 15.2073C17.2125 15.2073 17.5429 15.0677 17.8 14.8181L20.0763 12.5418C20.5095 12.1085 20.4875 11.3669 20.0396 10.9557ZM19.5623 12.0278L17.2859 14.3041C17.1685 14.4216 17.0216 14.4803 16.8601 14.4803C16.6985 14.4803 16.5443 14.4142 16.4268 14.3041L15.6191 13.4963C15.4796 13.3568 15.4796 13.1219 15.6191 12.9823C15.7586 12.8428 15.9936 12.8428 16.1331 12.9823L16.4929 13.3421C16.5884 13.4376 16.7205 13.489 16.8527 13.489C16.9849 13.489 17.1171 13.4376 17.2125 13.3421L19.0262 11.5284C19.1731 11.3816 19.4007 11.3742 19.5402 11.4991C19.6944 11.6312 19.7018 11.8809 19.5623 12.0278Z" fill="#DC2626" style="fill:#DC2626;fill:color(display-p3 0.8627 0.1490 0.1490);fill-opacity:1;"/>
<path d="M20.0396 10.9557C19.6063 10.5592 18.9381 10.5812 18.5122 11.0071L16.8527 12.6666L16.6471 12.461C16.2286 12.0351 15.5236 12.0424 15.0977 12.461C14.6718 12.8869 14.6718 13.5845 15.0977 14.0104L15.9055 14.8181C16.1551 15.0677 16.4929 15.2073 16.8527 15.2073C17.2125 15.2073 17.5429 15.0677 17.8 14.8181L20.0763 12.5418C20.5095 12.1085 20.4875 11.3669 20.0396 10.9557ZM19.5623 12.0278L17.2859 14.3041C17.1685 14.4216 17.0216 14.4803 16.8601 14.4803C16.6985 14.4803 16.5443 14.4142 16.4268 14.3041L15.6191 13.4963C15.4796 13.3568 15.4796 13.1219 15.6191 12.9823C15.7586 12.8428 15.9936 12.8428 16.1331 12.9823L16.4929 13.3421C16.5884 13.4376 16.7205 13.489 16.8527 13.489C16.9849 13.489 17.1171 13.4376 17.2125 13.3421L19.0262 11.5284C19.1731 11.3816 19.4007 11.3742 19.5402 11.4991C19.6944 11.6312 19.7018 11.8809 19.5623 12.0278Z" fill="#DC2626" style="fill:#DC2626;fill:color(display-p3 0.8627 0.1490 0.1490);fill-opacity:1;"/>
<path d="M20.0396 10.9557C19.6063 10.5592 18.9381 10.5812 18.5122 11.0071L16.8527 12.6666L16.6471 12.461C16.2286 12.0351 15.5236 12.0424 15.0977 12.461C14.6718 12.8869 14.6718 13.5845 15.0977 14.0104L15.9055 14.8181C16.1551 15.0677 16.4929 15.2073 16.8527 15.2073C17.2125 15.2073 17.5429 15.0677 17.8 14.8181L20.0763 12.5418C20.5095 12.1085 20.4875 11.3669 20.0396 10.9557ZM19.5623 12.0278L17.2859 14.3041C17.1685 14.4216 17.0216 14.4803 16.8601 14.4803C16.6985 14.4803 16.5443 14.4142 16.4268 14.3041L15.6191 13.4963C15.4796 13.3568 15.4796 13.1219 15.6191 12.9823C15.7586 12.8428 15.9936 12.8428 16.1331 12.9823L16.4929 13.3421C16.5884 13.4376 16.7205 13.489 16.8527 13.489C16.9849 13.489 17.1171 13.4376 17.2125 13.3421L19.0262 11.5284C19.1731 11.3816 19.4007 11.3742 19.5402 11.4991C19.6944 11.6312 19.7018 11.8809 19.5623 12.0278Z" fill="#DC2626" style="fill:#DC2626;fill:color(display-p3 0.8627 0.1490 0.1490);fill-opacity:1;"/>
<path d="M17.5871 8.27588C15.0097 8.27588 12.917 10.3686 12.917 12.946C12.917 15.5234 15.0097 17.6161 17.5871 17.6161C20.1645 17.6161 22.2572 15.5234 22.2572 12.946C22.2572 10.3686 20.1572 8.27588 17.5871 8.27588ZM17.5871 16.8818C15.4136 16.8818 13.6513 15.1122 13.6513 12.9387C13.6513 10.7651 15.4209 9.00283 17.5871 9.00283C19.7606 9.00283 21.5229 10.7725 21.5229 12.9387C21.5229 15.1122 19.7606 16.8818 17.5871 16.8818Z" fill="#DC2626" style="fill:#DC2626;fill:color(display-p3 0.8627 0.1490 0.1490);fill-opacity:1;"/>
<path d="M20.0396 10.9557C19.6063 10.5592 18.9381 10.5812 18.5122 11.0071L16.8527 12.6666L16.6471 12.461C16.2286 12.0351 15.5236 12.0424 15.0977 12.461C14.6718 12.8869 14.6718 13.5845 15.0977 14.0104L15.9055 14.8181C16.1551 15.0677 16.4929 15.2073 16.8527 15.2073C17.2125 15.2073 17.5429 15.0677 17.8 14.8181L20.0763 12.5418C20.5095 12.1085 20.4875 11.3669 20.0396 10.9557ZM19.5623 12.0278L17.2859 14.3041C17.1685 14.4216 17.0216 14.4803 16.8601 14.4803C16.6985 14.4803 16.5443 14.4142 16.4268 14.3041L15.6191 13.4963C15.4796 13.3568 15.4796 13.1219 15.6191 12.9823C15.7586 12.8428 15.9936 12.8428 16.1331 12.9823L16.4929 13.3421C16.5884 13.4376 16.7205 13.489 16.8527 13.489C16.9849 13.489 17.1171 13.4376 17.2125 13.3421L19.0262 11.5284C19.1731 11.3816 19.4007 11.3742 19.5402 11.4991C19.6944 11.6312 19.7018 11.8809 19.5623 12.0278Z" fill="#DC2626" style="fill:#DC2626;fill:color(display-p3 0.8627 0.1490 0.1490);fill-opacity:1;"/>
<path d="M20.0396 10.9557C19.6063 10.5592 18.9381 10.5812 18.5122 11.0071L16.8527 12.6666L16.6471 12.461C16.2286 12.0351 15.5236 12.0424 15.0977 12.461C14.6718 12.8869 14.6718 13.5845 15.0977 14.0104L15.9055 14.8181C16.1551 15.0677 16.4929 15.2073 16.8527 15.2073C17.2125 15.2073 17.5429 15.0677 17.8 14.8181L20.0763 12.5418C20.5095 12.1085 20.4875 11.3669 20.0396 10.9557ZM19.5623 12.0278L17.2859 14.3041C17.1685 14.4216 17.0216 14.4803 16.8601 14.4803C16.6985 14.4803 16.5443 14.4142 16.4268 14.3041L15.6191 13.4963C15.4796 13.3568 15.4796 13.1219 15.6191 12.9823C15.7586 12.8428 15.9936 12.8428 16.1331 12.9823L16.4929 13.3421C16.5884 13.4376 16.7205 13.489 16.8527 13.489C16.9849 13.489 17.1171 13.4376 17.2125 13.3421L19.0262 11.5284C19.1731 11.3816 19.4007 11.3742 19.5402 11.4991C19.6944 11.6312 19.7018 11.8809 19.5623 12.0278Z" fill="#DC2626" style="fill:#DC2626;fill:color(display-p3 0.8627 0.1490 0.1490);fill-opacity:1;"/>
<path d="M22.1468 21.8159C22.1468 22.0141 21.9853 22.183 21.7797 22.183H13.3867C13.1884 22.183 13.0195 22.0215 13.0195 21.8159C13.0195 21.6103 13.1811 21.4487 13.3867 21.4487H21.787C21.9853 21.4487 22.1468 21.6103 22.1468 21.8159Z" fill="#DC2626" style="fill:#DC2626;fill:color(display-p3 0.8627 0.1490 0.1490);fill-opacity:1;"/>
<path d="M22.1468 19.6279C22.1468 19.8262 21.9853 19.995 21.7797 19.995H13.3867C13.1884 19.995 13.0195 19.8335 13.0195 19.6279C13.0195 19.4223 13.1811 19.2607 13.3867 19.2607H21.787C21.9853 19.2607 22.1468 19.4223 22.1468 19.6279Z" fill="#DC2626" style="fill:#DC2626;fill:color(display-p3 0.8627 0.1490 0.1490);fill-opacity:1;"/>
<path d="M22.1468 19.6279C22.1468 19.8262 21.9853 19.995 21.7797 19.995H13.3867C13.1884 19.995 13.0195 19.8335 13.0195 19.6279C13.0195 19.4223 13.1811 19.2607 13.3867 19.2607H21.787C21.9853 19.2607 22.1468 19.4223 22.1468 19.6279Z" fill="#DC2626" style="fill:#DC2626;fill:color(display-p3 0.8627 0.1490 0.1490);fill-opacity:1;"/>
<path d="M22.1468 21.8159C22.1468 22.0141 21.9853 22.183 21.7797 22.183H13.3867C13.1884 22.183 13.0195 22.0215 13.0195 21.8159C13.0195 21.6103 13.1811 21.4487 13.3867 21.4487H21.787C21.9853 21.4487 22.1468 21.6103 22.1468 21.8159Z" fill="#DC2626" style="fill:#DC2626;fill:color(display-p3 0.8627 0.1490 0.1490);fill-opacity:1;"/>
<path d="M20.0396 10.9557C19.6063 10.5592 18.9381 10.5812 18.5122 11.0071L16.8527 12.6666L16.6471 12.461C16.2286 12.0351 15.5236 12.0424 15.0977 12.461C14.6718 12.8869 14.6718 13.5845 15.0977 14.0104L15.9055 14.8181C16.1551 15.0677 16.4929 15.2073 16.8527 15.2073C17.2125 15.2073 17.5429 15.0677 17.8 14.8181L20.0763 12.5418C20.5095 12.1085 20.4875 11.3669 20.0396 10.9557ZM19.5623 12.0278L17.2859 14.3041C17.1685 14.4216 17.0216 14.4803 16.8601 14.4803C16.6985 14.4803 16.5443 14.4142 16.4268 14.3041L15.6191 13.4963C15.4796 13.3568 15.4796 13.1219 15.6191 12.9823C15.7586 12.8428 15.9936 12.8428 16.1331 12.9823L16.4929 13.3421C16.5884 13.4376 16.7205 13.489 16.8527 13.489C16.9849 13.489 17.1171 13.4376 17.2125 13.3421L19.0262 11.5284C19.1731 11.3816 19.4007 11.3742 19.5402 11.4991C19.6944 11.6312 19.7018 11.8809 19.5623 12.0278Z" fill="#DC2626" style="fill:#DC2626;fill:color(display-p3 0.8627 0.1490 0.1490);fill-opacity:1;"/>
<path d="M20.0396 10.9557C19.6063 10.5592 18.9381 10.5812 18.5122 11.0071L16.8527 12.6666L16.6471 12.461C16.2286 12.0351 15.5236 12.0424 15.0977 12.461C14.6718 12.8869 14.6718 13.5845 15.0977 14.0104L15.9055 14.8181C16.1551 15.0677 16.4929 15.2073 16.8527 15.2073C17.2125 15.2073 17.5429 15.0677 17.8 14.8181L20.0763 12.5418C20.5095 12.1085 20.4875 11.3669 20.0396 10.9557ZM19.5623 12.0278L17.2859 14.3041C17.1685 14.4216 17.0216 14.4803 16.8601 14.4803C16.6985 14.4803 16.5443 14.4142 16.4268 14.3041L15.6191 13.4963C15.4796 13.3568 15.4796 13.1219 15.6191 12.9823C15.7586 12.8428 15.9936 12.8428 16.1331 12.9823L16.4929 13.3421C16.5884 13.4376 16.7205 13.489 16.8527 13.489C16.9849 13.489 17.1171 13.4376 17.2125 13.3421L19.0262 11.5284C19.1731 11.3816 19.4007 11.3742 19.5402 11.4991C19.6944 11.6312 19.7018 11.8809 19.5623 12.0278Z" fill="#DC2626" style="fill:#DC2626;fill:color(display-p3 0.8627 0.1490 0.1490);fill-opacity:1;"/>
<path d="M20.0396 10.9557C19.6063 10.5592 18.9381 10.5812 18.5122 11.0071L16.8527 12.6666L16.6471 12.461C16.2286 12.0351 15.5236 12.0424 15.0977 12.461C14.6718 12.8869 14.6718 13.5845 15.0977 14.0104L15.9055 14.8181C16.1551 15.0677 16.4929 15.2073 16.8527 15.2073C17.2125 15.2073 17.5429 15.0677 17.8 14.8181L20.0763 12.5418C20.5095 12.1085 20.4875 11.3669 20.0396 10.9557ZM19.5623 12.0278L17.2859 14.3041C17.1685 14.4216 17.0216 14.4803 16.8601 14.4803C16.6985 14.4803 16.5443 14.4142 16.4268 14.3041L15.6191 13.4963C15.4796 13.3568 15.4796 13.1219 15.6191 12.9823C15.7586 12.8428 15.9936 12.8428 16.1331 12.9823L16.4929 13.3421C16.5884 13.4376 16.7205 13.489 16.8527 13.489C16.9849 13.489 17.1171 13.4376 17.2125 13.3421L19.0262 11.5284C19.1731 11.3816 19.4007 11.3742 19.5402 11.4991C19.6944 11.6312 19.7018 11.8809 19.5623 12.0278Z" fill="#DC2626" style="fill:#DC2626;fill:color(display-p3 0.8627 0.1490 0.1490);fill-opacity:1;"/>
<path d="M17.5871 8.27588C15.0097 8.27588 12.917 10.3686 12.917 12.946C12.917 15.5234 15.0097 17.6161 17.5871 17.6161C20.1645 17.6161 22.2572 15.5234 22.2572 12.946C22.2572 10.3686 20.1572 8.27588 17.5871 8.27588ZM17.5871 16.8818C15.4136 16.8818 13.6513 15.1122 13.6513 12.9387C13.6513 10.7651 15.4209 9.00283 17.5871 9.00283C19.7606 9.00283 21.5229 10.7725 21.5229 12.9387C21.5229 15.1122 19.7606 16.8818 17.5871 16.8818Z" fill="#DC2626" style="fill:#DC2626;fill:color(display-p3 0.8627 0.1490 0.1490);fill-opacity:1;"/>
<path d="M20.0396 10.9557C19.6063 10.5592 18.9381 10.5812 18.5122 11.0071L16.8527 12.6666L16.6471 12.461C16.2286 12.0351 15.5236 12.0424 15.0977 12.461C14.6718 12.8869 14.6718 13.5845 15.0977 14.0104L15.9055 14.8181C16.1551 15.0677 16.4929 15.2073 16.8527 15.2073C17.2125 15.2073 17.5429 15.0677 17.8 14.8181L20.0763 12.5418C20.5095 12.1085 20.4875 11.3669 20.0396 10.9557ZM19.5623 12.0278L17.2859 14.3041C17.1685 14.4216 17.0216 14.4803 16.8601 14.4803C16.6985 14.4803 16.5443 14.4142 16.4268 14.3041L15.6191 13.4963C15.4796 13.3568 15.4796 13.1219 15.6191 12.9823C15.7586 12.8428 15.9936 12.8428 16.1331 12.9823L16.4929 13.3421C16.5884 13.4376 16.7205 13.489 16.8527 13.489C16.9849 13.489 17.1171 13.4376 17.2125 13.3421L19.0262 11.5284C19.1731 11.3816 19.4007 11.3742 19.5402 11.4991C19.6944 11.6312 19.7018 11.8809 19.5623 12.0278Z" fill="#DC2626" style="fill:#DC2626;fill:color(display-p3 0.8627 0.1490 0.1490);fill-opacity:1;"/>
<path d="M20.0396 10.9557C19.6063 10.5592 18.9381 10.5812 18.5122 11.0071L16.8527 12.6666L16.6471 12.461C16.2286 12.0351 15.5236 12.0424 15.0977 12.461C14.6718 12.8869 14.6718 13.5845 15.0977 14.0104L15.9055 14.8181C16.1551 15.0677 16.4929 15.2073 16.8527 15.2073C17.2125 15.2073 17.5429 15.0677 17.8 14.8181L20.0763 12.5418C20.5095 12.1085 20.4875 11.3669 20.0396 10.9557ZM19.5623 12.0278L17.2859 14.3041C17.1685 14.4216 17.0216 14.4803 16.8601 14.4803C16.6985 14.4803 16.5443 14.4142 16.4268 14.3041L15.6191 13.4963C15.4796 13.3568 15.4796 13.1219 15.6191 12.9823C15.7586 12.8428 15.9936 12.8428 16.1331 12.9823L16.4929 13.3421C16.5884 13.4376 16.7205 13.489 16.8527 13.489C16.9849 13.489 17.1171 13.4376 17.2125 13.3421L19.0262 11.5284C19.1731 11.3816 19.4007 11.3742 19.5402 11.4991C19.6944 11.6312 19.7018 11.8809 19.5623 12.0278Z" fill="#DC2626" style="fill:#DC2626;fill:color(display-p3 0.8627 0.1490 0.1490);fill-opacity:1;"/>
<path d="M20.0396 10.9557C19.6063 10.5592 18.9381 10.5812 18.5122 11.0071L16.8527 12.6666L16.6471 12.461C16.2286 12.0351 15.5236 12.0424 15.0977 12.461C14.6718 12.8869 14.6718 13.5845 15.0977 14.0104L15.9055 14.8181C16.1551 15.0677 16.4929 15.2073 16.8527 15.2073C17.2125 15.2073 17.5429 15.0677 17.8 14.8181L20.0763 12.5418C20.5095 12.1085 20.4875 11.3669 20.0396 10.9557ZM19.5623 12.0278L17.2859 14.3041C17.1685 14.4216 17.0216 14.4803 16.8601 14.4803C16.6985 14.4803 16.5443 14.4142 16.4268 14.3041L15.6191 13.4963C15.4796 13.3568 15.4796 13.1219 15.6191 12.9823C15.7586 12.8428 15.9936 12.8428 16.1331 12.9823L16.4929 13.3421C16.5884 13.4376 16.7205 13.489 16.8527 13.489C16.9849 13.489 17.1171 13.4376 17.2125 13.3421L19.0262 11.5284C19.1731 11.3816 19.4007 11.3742 19.5402 11.4991C19.6944 11.6312 19.7018 11.8809 19.5623 12.0278Z" fill="#DC2626" style="fill:#DC2626;fill:color(display-p3 0.8627 0.1490 0.1490);fill-opacity:1;"/>
<path d="M20.0396 10.9557C19.6063 10.5592 18.9381 10.5812 18.5122 11.0071L16.8527 12.6666L16.6471 12.461C16.2286 12.0351 15.5236 12.0424 15.0977 12.461C14.6718 12.8869 14.6718 13.5845 15.0977 14.0104L15.9055 14.8181C16.1551 15.0677 16.4929 15.2073 16.8527 15.2073C17.2125 15.2073 17.5429 15.0677 17.8 14.8181L20.0763 12.5418C20.5095 12.1085 20.4875 11.3669 20.0396 10.9557ZM19.5623 12.0278L17.2859 14.3041C17.1685 14.4216 17.0216 14.4803 16.8601 14.4803C16.6985 14.4803 16.5443 14.4142 16.4268 14.3041L15.6191 13.4963C15.4796 13.3568 15.4796 13.1219 15.6191 12.9823C15.7586 12.8428 15.9936 12.8428 16.1331 12.9823L16.4929 13.3421C16.5884 13.4376 16.7205 13.489 16.8527 13.489C16.9849 13.489 17.1171 13.4376 17.2125 13.3421L19.0262 11.5284C19.1731 11.3816 19.4007 11.3742 19.5402 11.4991C19.6944 11.6312 19.7018 11.8809 19.5623 12.0278Z" fill="#DC2626" style="fill:#DC2626;fill:color(display-p3 0.8627 0.1490 0.1490);fill-opacity:1;"/>
<path d="M20.0396 10.9557C19.6063 10.5592 18.9381 10.5812 18.5122 11.0071L16.8527 12.6666L16.6471 12.461C16.2286 12.0351 15.5236 12.0424 15.0977 12.461C14.6718 12.8869 14.6718 13.5845 15.0977 14.0104L15.9055 14.8181C16.1551 15.0677 16.4929 15.2073 16.8527 15.2073C17.2125 15.2073 17.5429 15.0677 17.8 14.8181L20.0763 12.5418C20.5095 12.1085 20.4875 11.3669 20.0396 10.9557ZM19.5623 12.0278L17.2859 14.3041C17.1685 14.4216 17.0216 14.4803 16.8601 14.4803C16.6985 14.4803 16.5443 14.4142 16.4268 14.3041L15.6191 13.4963C15.4796 13.3568 15.4796 13.1219 15.6191 12.9823C15.7586 12.8428 15.9936 12.8428 16.1331 12.9823L16.4929 13.3421C16.5884 13.4376 16.7205 13.489 16.8527 13.489C16.9849 13.489 17.1171 13.4376 17.2125 13.3421L19.0262 11.5284C19.1731 11.3816 19.4007 11.3742 19.5402 11.4991C19.6944 11.6312 19.7018 11.8809 19.5623 12.0278Z" fill="#DC2626" style="fill:#DC2626;fill:color(display-p3 0.8627 0.1490 0.1490);fill-opacity:1;"/>
<path d="M20.0396 10.9557C19.6063 10.5592 18.9381 10.5812 18.5122 11.0071L16.8527 12.6666L16.6471 12.461C16.2286 12.0351 15.5236 12.0424 15.0977 12.461C14.6718 12.8869 14.6718 13.5845 15.0977 14.0104L15.9055 14.8181C16.1551 15.0677 16.4929 15.2073 16.8527 15.2073C17.2125 15.2073 17.5429 15.0677 17.8 14.8181L20.0763 12.5418C20.5095 12.1085 20.4875 11.3669 20.0396 10.9557ZM19.5623 12.0278L17.2859 14.3041C17.1685 14.4216 17.0216 14.4803 16.8601 14.4803C16.6985 14.4803 16.5443 14.4142 16.4268 14.3041L15.6191 13.4963C15.4796 13.3568 15.4796 13.1219 15.6191 12.9823C15.7586 12.8428 15.9936 12.8428 16.1331 12.9823L16.4929 13.3421C16.5884 13.4376 16.7205 13.489 16.8527 13.489C16.9849 13.489 17.1171 13.4376 17.2125 13.3421L19.0262 11.5284C19.1731 11.3816 19.4007 11.3742 19.5402 11.4991C19.6944 11.6312 19.7018 11.8809 19.5623 12.0278Z" fill="#DC2626" style="fill:#DC2626;fill:color(display-p3 0.8627 0.1490 0.1490);fill-opacity:1;"/>
<path d="M20.0396 10.9557C19.6063 10.5592 18.9381 10.5812 18.5122 11.0071L16.8527 12.6666L16.6471 12.461C16.2286 12.0351 15.5236 12.0424 15.0977 12.461C14.6718 12.8869 14.6718 13.5845 15.0977 14.0104L15.9055 14.8181C16.1551 15.0677 16.4929 15.2073 16.8527 15.2073C17.2125 15.2073 17.5429 15.0677 17.8 14.8181L20.0763 12.5418C20.5095 12.1085 20.4875 11.3669 20.0396 10.9557ZM19.5623 12.0278L17.2859 14.3041C17.1685 14.4216 17.0216 14.4803 16.8601 14.4803C16.6985 14.4803 16.5443 14.4142 16.4268 14.3041L15.6191 13.4963C15.4796 13.3568 15.4796 13.1219 15.6191 12.9823C15.7586 12.8428 15.9936 12.8428 16.1331 12.9823L16.4929 13.3421C16.5884 13.4376 16.7205 13.489 16.8527 13.489C16.9849 13.489 17.1171 13.4376 17.2125 13.3421L19.0262 11.5284C19.1731 11.3816 19.4007 11.3742 19.5402 11.4991C19.6944 11.6312 19.7018 11.8809 19.5623 12.0278Z" fill="#DC2626" style="fill:#DC2626;fill:color(display-p3 0.8627 0.1490 0.1490);fill-opacity:1;"/>
<path d="M20.0396 10.9557C19.6063 10.5592 18.9381 10.5812 18.5122 11.0071L16.8527 12.6666L16.6471 12.461C16.2286 12.0351 15.5236 12.0424 15.0977 12.461C14.6718 12.8869 14.6718 13.5845 15.0977 14.0104L15.9055 14.8181C16.1551 15.0677 16.4929 15.2073 16.8527 15.2073C17.2125 15.2073 17.5429 15.0677 17.8 14.8181L20.0763 12.5418C20.5095 12.1085 20.4875 11.3669 20.0396 10.9557ZM19.5623 12.0278L17.2859 14.3041C17.1685 14.4216 17.0216 14.4803 16.8601 14.4803C16.6985 14.4803 16.5443 14.4142 16.4268 14.3041L15.6191 13.4963C15.4796 13.3568 15.4796 13.1219 15.6191 12.9823C15.7586 12.8428 15.9936 12.8428 16.1331 12.9823L16.4929 13.3421C16.5884 13.4376 16.7205 13.489 16.8527 13.489C16.9849 13.489 17.1171 13.4376 17.2125 13.3421L19.0262 11.5284C19.1731 11.3816 19.4007 11.3742 19.5402 11.4991C19.6944 11.6312 19.7018 11.8809 19.5623 12.0278Z" fill="#DC2626" style="fill:#DC2626;fill:color(display-p3 0.8627 0.1490 0.1490);fill-opacity:1;"/>
<path d="M20.0396 10.9557C19.6063 10.5592 18.9381 10.5812 18.5122 11.0071L16.8527 12.6666L16.6471 12.461C16.2286 12.0351 15.5236 12.0424 15.0977 12.461C14.6718 12.8869 14.6718 13.5845 15.0977 14.0104L15.9055 14.8181C16.1551 15.0677 16.4929 15.2073 16.8527 15.2073C17.2125 15.2073 17.5429 15.0677 17.8 14.8181L20.0763 12.5418C20.5095 12.1085 20.4875 11.3669 20.0396 10.9557ZM19.5623 12.0278L17.2859 14.3041C17.1685 14.4216 17.0216 14.4803 16.8601 14.4803C16.6985 14.4803 16.5443 14.4142 16.4268 14.3041L15.6191 13.4963C15.4796 13.3568 15.4796 13.1219 15.6191 12.9823C15.7586 12.8428 15.9936 12.8428 16.1331 12.9823L16.4929 13.3421C16.5884 13.4376 16.7205 13.489 16.8527 13.489C16.9849 13.489 17.1171 13.4376 17.2125 13.3421L19.0262 11.5284C19.1731 11.3816 19.4007 11.3742 19.5402 11.4991C19.6944 11.6312 19.7018 11.8809 19.5623 12.0278Z" fill="#DC2626" style="fill:#DC2626;fill:color(display-p3 0.8627 0.1490 0.1490);fill-opacity:1;"/>
<path d="M17.5871 8.27588C15.0097 8.27588 12.917 10.3686 12.917 12.946C12.917 15.5234 15.0097 17.6161 17.5871 17.6161C20.1645 17.6161 22.2572 15.5234 22.2572 12.946C22.2572 10.3686 20.1572 8.27588 17.5871 8.27588ZM17.5871 16.8818C15.4136 16.8818 13.6513 15.1122 13.6513 12.9387C13.6513 10.7651 15.4209 9.00283 17.5871 9.00283C19.7606 9.00283 21.5229 10.7725 21.5229 12.9387C21.5229 15.1122 19.7606 16.8818 17.5871 16.8818Z" fill="#DC2626" style="fill:#DC2626;fill:color(display-p3 0.8627 0.1490 0.1490);fill-opacity:1;"/>
<path d="M20.0396 10.9557C19.6063 10.5592 18.9381 10.5812 18.5122 11.0071L16.8527 12.6666L16.6471 12.461C16.2286 12.0351 15.5236 12.0424 15.0977 12.461C14.6718 12.8869 14.6718 13.5845 15.0977 14.0104L15.9055 14.8181C16.1551 15.0677 16.4929 15.2073 16.8527 15.2073C17.2125 15.2073 17.5429 15.0677 17.8 14.8181L20.0763 12.5418C20.5095 12.1085 20.4875 11.3669 20.0396 10.9557ZM19.5623 12.0278L17.2859 14.3041C17.1685 14.4216 17.0216 14.4803 16.8601 14.4803C16.6985 14.4803 16.5443 14.4142 16.4268 14.3041L15.6191 13.4963C15.4796 13.3568 15.4796 13.1219 15.6191 12.9823C15.7586 12.8428 15.9936 12.8428 16.1331 12.9823L16.4929 13.3421C16.5884 13.4376 16.7205 13.489 16.8527 13.489C16.9849 13.489 17.1171 13.4376 17.2125 13.3421L19.0262 11.5284C19.1731 11.3816 19.4007 11.3742 19.5402 11.4991C19.6944 11.6312 19.7018 11.8809 19.5623 12.0278Z" fill="#DC2626" style="fill:#DC2626;fill:color(display-p3 0.8627 0.1490 0.1490);fill-opacity:1;"/>
<path d="M20.0396 10.9557C19.6063 10.5592 18.9381 10.5812 18.5122 11.0071L16.8527 12.6666L16.6471 12.461C16.2286 12.0351 15.5236 12.0424 15.0977 12.461C14.6718 12.8869 14.6718 13.5845 15.0977 14.0104L15.9055 14.8181C16.1551 15.0677 16.4929 15.2073 16.8527 15.2073C17.2125 15.2073 17.5429 15.0677 17.8 14.8181L20.0763 12.5418C20.5095 12.1085 20.4875 11.3669 20.0396 10.9557ZM19.5623 12.0278L17.2859 14.3041C17.1685 14.4216 17.0216 14.4803 16.8601 14.4803C16.6985 14.4803 16.5443 14.4142 16.4268 14.3041L15.6191 13.4963C15.4796 13.3568 15.4796 13.1219 15.6191 12.9823C15.7586 12.8428 15.9936 12.8428 16.1331 12.9823L16.4929 13.3421C16.5884 13.4376 16.7205 13.489 16.8527 13.489C16.9849 13.489 17.1171 13.4376 17.2125 13.3421L19.0262 11.5284C19.1731 11.3816 19.4007 11.3742 19.5402 11.4991C19.6944 11.6312 19.7018 11.8809 19.5623 12.0278Z" fill="#DC2626" style="fill:#DC2626;fill:color(display-p3 0.8627 0.1490 0.1490);fill-opacity:1;"/>
<path d="M20.0396 10.9557C19.6063 10.5592 18.9381 10.5812 18.5122 11.0071L16.8527 12.6666L16.6471 12.461C16.2286 12.0351 15.5236 12.0424 15.0977 12.461C14.6718 12.8869 14.6718 13.5845 15.0977 14.0104L15.9055 14.8181C16.1551 15.0677 16.4929 15.2073 16.8527 15.2073C17.2125 15.2073 17.5429 15.0677 17.8 14.8181L20.0763 12.5418C20.5095 12.1085 20.4875 11.3669 20.0396 10.9557ZM19.5623 12.0278L17.2859 14.3041C17.1685 14.4216 17.0216 14.4803 16.8601 14.4803C16.6985 14.4803 16.5443 14.4142 16.4268 14.3041L15.6191 13.4963C15.4796 13.3568 15.4796 13.1219 15.6191 12.9823C15.7586 12.8428 15.9936 12.8428 16.1331 12.9823L16.4929 13.3421C16.5884 13.4376 16.7205 13.489 16.8527 13.489C16.9849 13.489 17.1171 13.4376 17.2125 13.3421L19.0262 11.5284C19.1731 11.3816 19.4007 11.3742 19.5402 11.4991C19.6944 11.6312 19.7018 11.8809 19.5623 12.0278Z" fill="#DC2626" style="fill:#DC2626;fill:color(display-p3 0.8627 0.1490 0.1490);fill-opacity:1;"/>
<path d="M20.0396 10.9557C19.6063 10.5592 18.9381 10.5812 18.5122 11.0071L16.8527 12.6666L16.6471 12.461C16.2286 12.0351 15.5236 12.0424 15.0977 12.461C14.6718 12.8869 14.6718 13.5845 15.0977 14.0104L15.9055 14.8181C16.1551 15.0677 16.4929 15.2073 16.8527 15.2073C17.2125 15.2073 17.5429 15.0677 17.8 14.8181L20.0763 12.5418C20.5095 12.1085 20.4875 11.3669 20.0396 10.9557ZM19.5623 12.0278L17.2859 14.3041C17.1685 14.4216 17.0216 14.4803 16.8601 14.4803C16.6985 14.4803 16.5443 14.4142 16.4268 14.3041L15.6191 13.4963C15.4796 13.3568 15.4796 13.1219 15.6191 12.9823C15.7586 12.8428 15.9936 12.8428 16.1331 12.9823L16.4929 13.3421C16.5884 13.4376 16.7205 13.489 16.8527 13.489C16.9849 13.489 17.1171 13.4376 17.2125 13.3421L19.0262 11.5284C19.1731 11.3816 19.4007 11.3742 19.5402 11.4991C19.6944 11.6312 19.7018 11.8809 19.5623 12.0278Z" fill="#DC2626" style="fill:#DC2626;fill:color(display-p3 0.8627 0.1490 0.1490);fill-opacity:1;"/>
<path d="M22.1468 21.8159C22.1468 22.0141 21.9853 22.183 21.7797 22.183H13.3867C13.1884 22.183 13.0195 22.0215 13.0195 21.8159C13.0195 21.6103 13.1811 21.4487 13.3867 21.4487H21.787C21.9853 21.4487 22.1468 21.6103 22.1468 21.8159Z" fill="#DC2626" style="fill:#DC2626;fill:color(display-p3 0.8627 0.1490 0.1490);fill-opacity:1;"/>
<path d="M22.1468 19.6279C22.1468 19.8262 21.9853 19.995 21.7797 19.995H13.3867C13.1884 19.995 13.0195 19.8335 13.0195 19.6279C13.0195 19.4223 13.1811 19.2607 13.3867 19.2607H21.787C21.9853 19.2607 22.1468 19.4223 22.1468 19.6279Z" fill="#DC2626" style="fill:#DC2626;fill:color(display-p3 0.8627 0.1490 0.1490);fill-opacity:1;"/>
<path d="M22.1468 19.6279C22.1468 19.8262 21.9853 19.995 21.7797 19.995H13.3867C13.1884 19.995 13.0195 19.8335 13.0195 19.6279C13.0195 19.4223 13.1811 19.2607 13.3867 19.2607H21.787C21.9853 19.2607 22.1468 19.4223 22.1468 19.6279Z" fill="#DC2626" style="fill:#DC2626;fill:color(display-p3 0.8627 0.1490 0.1490);fill-opacity:1;"/>
<path d="M22.1468 21.8159C22.1468 22.0141 21.9853 22.183 21.7797 22.183H13.3867C13.1884 22.183 13.0195 22.0215 13.0195 21.8159C13.0195 21.6103 13.1811 21.4487 13.3867 21.4487H21.787C21.9853 21.4487 22.1468 21.6103 22.1468 21.8159Z" fill="#DC2626" style="fill:#DC2626;fill:color(display-p3 0.8627 0.1490 0.1490);fill-opacity:1;"/>
<path d="M20.0396 10.9557C19.6063 10.5592 18.9381 10.5812 18.5122 11.0071L16.8527 12.6666L16.6471 12.461C16.2286 12.0351 15.5236 12.0424 15.0977 12.461C14.6718 12.8869 14.6718 13.5845 15.0977 14.0104L15.9055 14.8181C16.1551 15.0677 16.4929 15.2073 16.8527 15.2073C17.2125 15.2073 17.5429 15.0677 17.8 14.8181L20.0763 12.5418C20.5095 12.1085 20.4875 11.3669 20.0396 10.9557ZM19.5623 12.0278L17.2859 14.3041C17.1685 14.4216 17.0216 14.4803 16.8601 14.4803C16.6985 14.4803 16.5443 14.4142 16.4268 14.3041L15.6191 13.4963C15.4796 13.3568 15.4796 13.1219 15.6191 12.9823C15.7586 12.8428 15.9936 12.8428 16.1331 12.9823L16.4929 13.3421C16.5884 13.4376 16.7205 13.489 16.8527 13.489C16.9849 13.489 17.1171 13.4376 17.2125 13.3421L19.0262 11.5284C19.1731 11.3816 19.4007 11.3742 19.5402 11.4991C19.6944 11.6312 19.7018 11.8809 19.5623 12.0278Z" fill="#DC2626" style="fill:#DC2626;fill:color(display-p3 0.8627 0.1490 0.1490);fill-opacity:1;"/>
<path d="M20.0396 10.9557C19.6063 10.5592 18.9381 10.5812 18.5122 11.0071L16.8527 12.6666L16.6471 12.461C16.2286 12.0351 15.5236 12.0424 15.0977 12.461C14.6718 12.8869 14.6718 13.5845 15.0977 14.0104L15.9055 14.8181C16.1551 15.0677 16.4929 15.2073 16.8527 15.2073C17.2125 15.2073 17.5429 15.0677 17.8 14.8181L20.0763 12.5418C20.5095 12.1085 20.4875 11.3669 20.0396 10.9557ZM19.5623 12.0278L17.2859 14.3041C17.1685 14.4216 17.0216 14.4803 16.8601 14.4803C16.6985 14.4803 16.5443 14.4142 16.4268 14.3041L15.6191 13.4963C15.4796 13.3568 15.4796 13.1219 15.6191 12.9823C15.7586 12.8428 15.9936 12.8428 16.1331 12.9823L16.4929 13.3421C16.5884 13.4376 16.7205 13.489 16.8527 13.489C16.9849 13.489 17.1171 13.4376 17.2125 13.3421L19.0262 11.5284C19.1731 11.3816 19.4007 11.3742 19.5402 11.4991C19.6944 11.6312 19.7018 11.8809 19.5623 12.0278Z" fill="#DC2626" style="fill:#DC2626;fill:color(display-p3 0.8627 0.1490 0.1490);fill-opacity:1;"/>
<path d="M20.0396 10.9557C19.6063 10.5592 18.9381 10.5812 18.5122 11.0071L16.8527 12.6666L16.6471 12.461C16.2286 12.0351 15.5236 12.0424 15.0977 12.461C14.6718 12.8869 14.6718 13.5845 15.0977 14.0104L15.9055 14.8181C16.1551 15.0677 16.4929 15.2073 16.8527 15.2073C17.2125 15.2073 17.5429 15.0677 17.8 14.8181L20.0763 12.5418C20.5095 12.1085 20.4875 11.3669 20.0396 10.9557ZM19.5623 12.0278L17.2859 14.3041C17.1685 14.4216 17.0216 14.4803 16.8601 14.4803C16.6985 14.4803 16.5443 14.4142 16.4268 14.3041L15.6191 13.4963C15.4796 13.3568 15.4796 13.1219 15.6191 12.9823C15.7586 12.8428 15.9936 12.8428 16.1331 12.9823L16.4929 13.3421C16.5884 13.4376 16.7205 13.489 16.8527 13.489C16.9849 13.489 17.1171 13.4376 17.2125 13.3421L19.0262 11.5284C19.1731 11.3816 19.4007 11.3742 19.5402 11.4991C19.6944 11.6312 19.7018 11.8809 19.5623 12.0278Z" fill="#DC2626" style="fill:#DC2626;fill:color(display-p3 0.8627 0.1490 0.1490);fill-opacity:1;"/>
<path d="M20.0396 10.9557C19.6063 10.5592 18.9381 10.5812 18.5122 11.0071L16.8527 12.6666L16.6471 12.461C16.2286 12.0351 15.5236 12.0424 15.0977 12.461C14.6718 12.8869 14.6718 13.5845 15.0977 14.0104L15.9055 14.8181C16.1551 15.0677 16.4929 15.2073 16.8527 15.2073C17.2125 15.2073 17.5429 15.0677 17.8 14.8181L20.0763 12.5418C20.5095 12.1085 20.4875 11.3669 20.0396 10.9557ZM19.5623 12.0278L17.2859 14.3041C17.1685 14.4216 17.0216 14.4803 16.8601 14.4803C16.6985 14.4803 16.5443 14.4142 16.4268 14.3041L15.6191 13.4963C15.4796 13.3568 15.4796 13.1219 15.6191 12.9823C15.7586 12.8428 15.9936 12.8428 16.1331 12.9823L16.4929 13.3421C16.5884 13.4376 16.7205 13.489 16.8527 13.489C16.9849 13.489 17.1171 13.4376 17.2125 13.3421L19.0262 11.5284C19.1731 11.3816 19.4007 11.3742 19.5402 11.4991C19.6944 11.6312 19.7018 11.8809 19.5623 12.0278Z" fill="#DC2626" style="fill:#DC2626;fill:color(display-p3 0.8627 0.1490 0.1490);fill-opacity:1;"/>
<path d="M20.0396 10.9557C19.6063 10.5592 18.9381 10.5812 18.5122 11.0071L16.8527 12.6666L16.6471 12.461C16.2286 12.0351 15.5236 12.0424 15.0977 12.461C14.6718 12.8869 14.6718 13.5845 15.0977 14.0104L15.9055 14.8181C16.1551 15.0677 16.4929 15.2073 16.8527 15.2073C17.2125 15.2073 17.5429 15.0677 17.8 14.8181L20.0763 12.5418C20.5095 12.1085 20.4875 11.3669 20.0396 10.9557ZM19.5623 12.0278L17.2859 14.3041C17.1685 14.4216 17.0216 14.4803 16.8601 14.4803C16.6985 14.4803 16.5443 14.4142 16.4268 14.3041L15.6191 13.4963C15.4796 13.3568 15.4796 13.1219 15.6191 12.9823C15.7586 12.8428 15.9936 12.8428 16.1331 12.9823L16.4929 13.3421C16.5884 13.4376 16.7205 13.489 16.8527 13.489C16.9849 13.489 17.1171 13.4376 17.2125 13.3421L19.0262 11.5284C19.1731 11.3816 19.4007 11.3742 19.5402 11.4991C19.6944 11.6312 19.7018 11.8809 19.5623 12.0278Z" fill="#DC2626" style="fill:#DC2626;fill:color(display-p3 0.8627 0.1490 0.1490);fill-opacity:1;"/>
<path d="M17.5871 8.27588C15.0097 8.27588 12.917 10.3686 12.917 12.946C12.917 15.5234 15.0097 17.6161 17.5871 17.6161C20.1645 17.6161 22.2572 15.5234 22.2572 12.946C22.2572 10.3686 20.1572 8.27588 17.5871 8.27588ZM17.5871 16.8818C15.4136 16.8818 13.6513 15.1122 13.6513 12.9387C13.6513 10.7651 15.4209 9.00283 17.5871 9.00283C19.7606 9.00283 21.5229 10.7725 21.5229 12.9387C21.5229 15.1122 19.7606 16.8818 17.5871 16.8818Z" fill="#DC2626" style="fill:#DC2626;fill:color(display-p3 0.8627 0.1490 0.1490);fill-opacity:1;"/>
<path d="M20.0396 10.9557C19.6063 10.5592 18.9381 10.5812 18.5122 11.0071L16.8527 12.6666L16.6471 12.461C16.2286 12.0351 15.5236 12.0424 15.0977 12.461C14.6718 12.8869 14.6718 13.5845 15.0977 14.0104L15.9055 14.8181C16.1551 15.0677 16.4929 15.2073 16.8527 15.2073C17.2125 15.2073 17.5429 15.0677 17.8 14.8181L20.0763 12.5418C20.5095 12.1085 20.4875 11.3669 20.0396 10.9557ZM19.5623 12.0278L17.2859 14.3041C17.1685 14.4216 17.0216 14.4803 16.8601 14.4803C16.6985 14.4803 16.5443 14.4142 16.4268 14.3041L15.6191 13.4963C15.4796 13.3568 15.4796 13.1219 15.6191 12.9823C15.7586 12.8428 15.9936 12.8428 16.1331 12.9823L16.4929 13.3421C16.5884 13.4376 16.7205 13.489 16.8527 13.489C16.9849 13.489 17.1171 13.4376 17.2125 13.3421L19.0262 11.5284C19.1731 11.3816 19.4007 11.3742 19.5402 11.4991C19.6944 11.6312 19.7018 11.8809 19.5623 12.0278Z" fill="#DC2626" style="fill:#DC2626;fill:color(display-p3 0.8627 0.1490 0.1490);fill-opacity:1;"/>
<path d="M20.0396 10.9557C19.6063 10.5592 18.9381 10.5812 18.5122 11.0071L16.8527 12.6666L16.6471 12.461C16.2286 12.0351 15.5236 12.0424 15.0977 12.461C14.6718 12.8869 14.6718 13.5845 15.0977 14.0104L15.9055 14.8181C16.1551 15.0677 16.4929 15.2073 16.8527 15.2073C17.2125 15.2073 17.5429 15.0677 17.8 14.8181L20.0763 12.5418C20.5095 12.1085 20.4875 11.3669 20.0396 10.9557ZM19.5623 12.0278L17.2859 14.3041C17.1685 14.4216 17.0216 14.4803 16.8601 14.4803C16.6985 14.4803 16.5443 14.4142 16.4268 14.3041L15.6191 13.4963C15.4796 13.3568 15.4796 13.1219 15.6191 12.9823C15.7586 12.8428 15.9936 12.8428 16.1331 12.9823L16.4929 13.3421C16.5884 13.4376 16.7205 13.489 16.8527 13.489C16.9849 13.489 17.1171 13.4376 17.2125 13.3421L19.0262 11.5284C19.1731 11.3816 19.4007 11.3742 19.5402 11.4991C19.6944 11.6312 19.7018 11.8809 19.5623 12.0278Z" fill="#DC2626" style="fill:#DC2626;fill:color(display-p3 0.8627 0.1490 0.1490);fill-opacity:1;"/>
<path d="M20.0396 10.9557C19.6063 10.5592 18.9381 10.5812 18.5122 11.0071L16.8527 12.6666L16.6471 12.461C16.2286 12.0351 15.5236 12.0424 15.0977 12.461C14.6718 12.8869 14.6718 13.5845 15.0977 14.0104L15.9055 14.8181C16.1551 15.0677 16.4929 15.2073 16.8527 15.2073C17.2125 15.2073 17.5429 15.0677 17.8 14.8181L20.0763 12.5418C20.5095 12.1085 20.4875 11.3669 20.0396 10.9557ZM19.5623 12.0278L17.2859 14.3041C17.1685 14.4216 17.0216 14.4803 16.8601 14.4803C16.6985 14.4803 16.5443 14.4142 16.4268 14.3041L15.6191 13.4963C15.4796 13.3568 15.4796 13.1219 15.6191 12.9823C15.7586 12.8428 15.9936 12.8428 16.1331 12.9823L16.4929 13.3421C16.5884 13.4376 16.7205 13.489 16.8527 13.489C16.9849 13.489 17.1171 13.4376 17.2125 13.3421L19.0262 11.5284C19.1731 11.3816 19.4007 11.3742 19.5402 11.4991C19.6944 11.6312 19.7018 11.8809 19.5623 12.0278Z" fill="#DC2626" style="fill:#DC2626;fill:color(display-p3 0.8627 0.1490 0.1490);fill-opacity:1;"/>
<path d="M20.0396 10.9557C19.6063 10.5592 18.9381 10.5812 18.5122 11.0071L16.8527 12.6666L16.6471 12.461C16.2286 12.0351 15.5236 12.0424 15.0977 12.461C14.6718 12.8869 14.6718 13.5845 15.0977 14.0104L15.9055 14.8181C16.1551 15.0677 16.4929 15.2073 16.8527 15.2073C17.2125 15.2073 17.5429 15.0677 17.8 14.8181L20.0763 12.5418C20.5095 12.1085 20.4875 11.3669 20.0396 10.9557ZM19.5623 12.0278L17.2859 14.3041C17.1685 14.4216 17.0216 14.4803 16.8601 14.4803C16.6985 14.4803 16.5443 14.4142 16.4268 14.3041L15.6191 13.4963C15.4796 13.3568 15.4796 13.1219 15.6191 12.9823C15.7586 12.8428 15.9936 12.8428 16.1331 12.9823L16.4929 13.3421C16.5884 13.4376 16.7205 13.489 16.8527 13.489C16.9849 13.489 17.1171 13.4376 17.2125 13.3421L19.0262 11.5284C19.1731 11.3816 19.4007 11.3742 19.5402 11.4991C19.6944 11.6312 19.7018 11.8809 19.5623 12.0278Z" fill="#DC2626" style="fill:#DC2626;fill:color(display-p3 0.8627 0.1490 0.1490);fill-opacity:1;"/>
<path d="M20.0396 10.9557C19.6063 10.5592 18.9381 10.5812 18.5122 11.0071L16.8527 12.6666L16.6471 12.461C16.2286 12.0351 15.5236 12.0424 15.0977 12.461C14.6718 12.8869 14.6718 13.5845 15.0977 14.0104L15.9055 14.8181C16.1551 15.0677 16.4929 15.2073 16.8527 15.2073C17.2125 15.2073 17.5429 15.0677 17.8 14.8181L20.0763 12.5418C20.5095 12.1085 20.4875 11.3669 20.0396 10.9557ZM19.5623 12.0278L17.2859 14.3041C17.1685 14.4216 17.0216 14.4803 16.8601 14.4803C16.6985 14.4803 16.5443 14.4142 16.4268 14.3041L15.6191 13.4963C15.4796 13.3568 15.4796 13.1219 15.6191 12.9823C15.7586 12.8428 15.9936 12.8428 16.1331 12.9823L16.4929 13.3421C16.5884 13.4376 16.7205 13.489 16.8527 13.489C16.9849 13.489 17.1171 13.4376 17.2125 13.3421L19.0262 11.5284C19.1731 11.3816 19.4007 11.3742 19.5402 11.4991C19.6944 11.6312 19.7018 11.8809 19.5623 12.0278Z" fill="#DC2626" style="fill:#DC2626;fill:color(display-p3 0.8627 0.1490 0.1490);fill-opacity:1;"/>
<path d="M22.1468 21.8159C22.1468 22.0141 21.9853 22.183 21.7797 22.183H13.3867C13.1884 22.183 13.0195 22.0215 13.0195 21.8159C13.0195 21.6103 13.1811 21.4487 13.3867 21.4487H21.787C21.9853 21.4487 22.1468 21.6103 22.1468 21.8159Z" fill="#DC2626" style="fill:#DC2626;fill:color(display-p3 0.8627 0.1490 0.1490);fill-opacity:1;"/>
<path d="M22.1468 19.6279C22.1468 19.8262 21.9853 19.995 21.7797 19.995H13.3867C13.1884 19.995 13.0195 19.8335 13.0195 19.6279C13.0195 19.4223 13.1811 19.2607 13.3867 19.2607H21.787C21.9853 19.2607 22.1468 19.4223 22.1468 19.6279Z" fill="#DC2626" style="fill:#DC2626;fill:color(display-p3 0.8627 0.1490 0.1490);fill-opacity:1;"/>
<path d="M22.1468 21.8159C22.1468 22.0141 21.9853 22.183 21.7797 22.183H13.3867C13.1884 22.183 13.0195 22.0215 13.0195 21.8159C13.0195 21.6103 13.1811 21.4487 13.3867 21.4487H21.787C21.9853 21.4487 22.1468 21.6103 22.1468 21.8159Z" fill="#DC2626" style="fill:#DC2626;fill:color(display-p3 0.8627 0.1490 0.1490);fill-opacity:1;"/>
<path d="M22.1468 19.6279C22.1468 19.8262 21.9853 19.995 21.7797 19.995H13.3867C13.1884 19.995 13.0195 19.8335 13.0195 19.6279C13.0195 19.4223 13.1811 19.2607 13.3867 19.2607H21.787C21.9853 19.2607 22.1468 19.4223 22.1468 19.6279Z" fill="#DC2626" style="fill:#DC2626;fill:color(display-p3 0.8627 0.1490 0.1490);fill-opacity:1;"/>
<path d="M20.0396 10.9557C19.6063 10.5592 18.9381 10.5812 18.5122 11.0071L16.8527 12.6666L16.6471 12.461C16.2286 12.0351 15.5236 12.0424 15.0977 12.461C14.6718 12.8869 14.6718 13.5845 15.0977 14.0104L15.9055 14.8181C16.1551 15.0677 16.4929 15.2073 16.8527 15.2073C17.2125 15.2073 17.5429 15.0677 17.8 14.8181L20.0763 12.5418C20.5095 12.1085 20.4875 11.3669 20.0396 10.9557ZM19.5623 12.0278L17.2859 14.3041C17.1685 14.4216 17.0216 14.4803 16.8601 14.4803C16.6985 14.4803 16.5443 14.4142 16.4268 14.3041L15.6191 13.4963C15.4796 13.3568 15.4796 13.1219 15.6191 12.9823C15.7586 12.8428 15.9936 12.8428 16.1331 12.9823L16.4929 13.3421C16.5884 13.4376 16.7205 13.489 16.8527 13.489C16.9849 13.489 17.1171 13.4376 17.2125 13.3421L19.0262 11.5284C19.1731 11.3816 19.4007 11.3742 19.5402 11.4991C19.6944 11.6312 19.7018 11.8809 19.5623 12.0278Z" fill="#DC2626" style="fill:#DC2626;fill:color(display-p3 0.8627 0.1490 0.1490);fill-opacity:1;"/>
</g>
</svg>
