<svg width="17" height="17" viewBox="0 0 17 17" fill="none" xmlns="http://www.w3.org/2000/svg">
<mask id="mask0_480_26" style="mask-type:alpha" maskUnits="userSpaceOnUse" x="0" y="0" width="17" height="17">
<rect x="0.657227" y="0.648682" width="16.3341" height="16.3341" fill="#D9D9D9" style="fill:#D9D9D9;fill:color(display-p3 0.8510 0.8510 0.8510);fill-opacity:1;"/>
</mask>
<g mask="url(#mask0_480_26)">
<path d="M8.87938 14.163C11.8272 14.163 14.226 11.7642 14.226 8.81639C14.226 5.8686 11.8272 3.46973 8.87938 3.46973C5.93156 3.46973 3.53271 5.8686 3.53271 8.81639C3.53271 11.7642 5.93159 14.163 8.87938 14.163ZM8.87938 4.1826C11.4351 4.1826 13.5132 6.26066 13.5132 8.81639C13.5132 11.3721 11.4351 13.4502 8.87938 13.4502C6.32365 13.4502 4.24559 11.3721 4.24559 8.81639C4.24559 6.26066 6.32368 4.1826 8.87938 4.1826Z" fill="black" style="fill:black;fill-opacity:1;"/>
<path d="M10.4383 10.52C10.5043 10.5734 10.5827 10.5984 10.6611 10.5984C10.7663 10.5984 10.8696 10.552 10.9391 10.4647C11.0621 10.3114 11.0371 10.0869 10.8839 9.9639L9.23534 8.64505V5.96459C9.23534 5.76855 9.07495 5.60815 8.8789 5.60815C8.68285 5.60815 8.52246 5.76855 8.52246 5.96459V8.81616C8.52246 8.92488 8.57237 9.02646 8.65613 9.09417L10.4383 10.52Z" fill="#DC2626" style="fill:#DC2626;fill:color(display-p3 0.8627 0.1490 0.1490);fill-opacity:1;"/>
</g>
</svg>
