<svg width="35" height="35" viewBox="0 0 35 35" fill="none" xmlns="http://www.w3.org/2000/svg">
<mask id="mask0_1066_267" style="mask-type:alpha" maskUnits="userSpaceOnUse" x="0" y="0" width="35" height="35">
<rect width="34.98" height="34.98" fill="#D9D9D9" style="fill:#D9D9D9;fill:color(display-p3 0.8510 0.8510 0.8510);fill-opacity:1;"/>
</mask>
<g mask="url(#mask0_1066_267)">
<rect x="14.9131" width="25" height="25" rx="4.94859" transform="rotate(36.6196 14.9131 0)" fill="#FFE0E0" style="fill:#FFE0E0;fill:color(display-p3 1.0000 0.8771 0.8771);fill-opacity:1;"/>
<path d="M18.942 21.3774L18.9357 21.3837V21.4149L18.942 21.3837V21.3774Z" fill="black" style="fill:black;fill-opacity:1;"/>
<path d="M18.9418 21.3716V21.3841L18.9355 21.4153V21.3841C18.9355 21.3778 18.9418 21.3778 18.9418 21.3716Z" fill="black" style="fill:black;fill-opacity:1;"/>
<path d="M20.3092 3.90839H19.0854V2.68467C19.0854 2.47863 18.9169 2.31006 18.7108 2.31006H16.844C16.638 2.31006 16.4694 2.47863 16.4694 2.68467V3.90839H15.2457C15.0397 3.90839 14.8711 4.07696 14.8711 4.283V6.14979C14.8711 6.35583 15.0397 6.5244 15.2457 6.5244H16.4694V7.74812C16.4694 7.95416 16.638 8.12273 16.844 8.12273H18.7108C18.9169 8.12273 19.0854 7.95416 19.0854 7.74812V6.5244H20.3092C20.5152 6.5244 20.6838 6.35583 20.6838 6.14979V4.283C20.6838 4.07696 20.5152 3.90839 20.3092 3.90839ZM19.9345 5.77519H18.7108C18.5048 5.77519 18.3362 5.94376 18.3362 6.14979V7.37352H17.2186V6.14979C17.2186 5.94376 17.0501 5.77519 16.844 5.77519H15.6203V4.6576H16.844C17.0501 4.6576 17.2186 4.48903 17.2186 4.283V3.05928H18.3362V4.283C18.3362 4.48903 18.5048 4.6576 18.7108 4.6576H19.9345V5.77519Z" fill="black" style="fill:black;fill-opacity:1;"/>
<path d="M20.3092 3.90839H19.0854V2.68467C19.0854 2.47863 18.9169 2.31006 18.7108 2.31006H16.844C16.638 2.31006 16.4694 2.47863 16.4694 2.68467V3.90839H15.2457C15.0397 3.90839 14.8711 4.07696 14.8711 4.283V6.14979C14.8711 6.35583 15.0397 6.5244 15.2457 6.5244H16.4694V7.74812C16.4694 7.95416 16.638 8.12273 16.844 8.12273H18.7108C18.9169 8.12273 19.0854 7.95416 19.0854 7.74812V6.5244H20.3092C20.5152 6.5244 20.6838 6.35583 20.6838 6.14979V4.283C20.6838 4.07696 20.5152 3.90839 20.3092 3.90839ZM19.9345 5.77519H18.7108C18.5048 5.77519 18.3362 5.94376 18.3362 6.14979V7.37352H17.2186V6.14979C17.2186 5.94376 17.0501 5.77519 16.844 5.77519H15.6203V4.6576H16.844C17.0501 4.6576 17.2186 4.48903 17.2186 4.283V3.05928H18.3362V4.283C18.3362 4.48903 18.5048 4.6576 18.7108 4.6576H19.9345V5.77519Z" fill="black" style="fill:black;fill-opacity:1;"/>
<path d="M18.9418 21.3774V21.3837L18.9355 21.4149V21.3837C18.9355 21.3774 18.9418 21.3774 18.9418 21.3774Z" fill="black" style="fill:black;fill-opacity:1;"/>
<path d="M26.4751 20.2695C26.3315 20.2695 26.2128 20.3881 26.2128 20.5317V20.7939C26.2128 20.9375 26.3315 21.0561 26.4751 21.0561C26.6187 21.0561 26.7373 20.9375 26.7373 20.7939V20.5317C26.7373 20.3881 26.6187 20.2695 26.4751 20.2695ZM26.4751 21.5806C26.3315 21.5806 26.2128 21.6992 26.2128 21.8428V22.1051C26.2128 22.2486 26.3315 22.3673 26.4751 22.3673C26.6187 22.3673 26.7373 22.2486 26.7373 22.1051V21.8428C26.7373 21.6992 26.6187 21.5806 26.4751 21.5806ZM26.4751 22.8917C26.3315 22.8917 26.2128 23.0104 26.2128 23.154V23.4162C26.2128 23.5598 26.3315 23.6784 26.4751 23.6784C26.6187 23.6784 26.7373 23.5598 26.7373 23.4162V23.154C26.7373 23.0104 26.6187 22.8917 26.4751 22.8917ZM30.4022 20.5317H28.3044C28.1608 20.5317 28.0422 20.6503 28.0422 20.7939V21.8428C28.0422 21.9864 28.1608 22.1051 28.3044 22.1051H30.4022C30.5458 22.1051 30.6644 21.9864 30.6644 21.8428V20.7939C30.6644 20.6503 30.552 20.5317 30.4022 20.5317ZM30.14 21.5806H28.5666V21.0561H30.14V21.5806ZM30.4022 20.5317H28.3044C28.1608 20.5317 28.0422 20.6503 28.0422 20.7939V21.8428C28.0422 21.9864 28.1608 22.1051 28.3044 22.1051H30.4022C30.5458 22.1051 30.6644 21.9864 30.6644 21.8428V20.7939C30.6644 20.6503 30.552 20.5317 30.4022 20.5317ZM30.14 21.5806H28.5666V21.0561H30.14V21.5806ZM26.4751 22.8917C26.3315 22.8917 26.2128 23.0104 26.2128 23.154V23.4162C26.2128 23.5598 26.3315 23.6784 26.4751 23.6784C26.6187 23.6784 26.7373 23.5598 26.7373 23.4162V23.154C26.7373 23.0104 26.6187 22.8917 26.4751 22.8917ZM26.4751 21.5806C26.3315 21.5806 26.2128 21.6992 26.2128 21.8428V22.1051C26.2128 22.2486 26.3315 22.3673 26.4751 22.3673C26.6187 22.3673 26.7373 22.2486 26.7373 22.1051V21.8428C26.7373 21.6992 26.6187 21.5806 26.4751 21.5806ZM26.4751 20.2695C26.3315 20.2695 26.2128 20.3881 26.2128 20.5317V20.7939C26.2128 20.9375 26.3315 21.0561 26.4751 21.0561C26.6187 21.0561 26.7373 20.9375 26.7373 20.7939V20.5317C26.7373 20.3881 26.6187 20.2695 26.4751 20.2695ZM26.4751 20.2695C26.3315 20.2695 26.2128 20.3881 26.2128 20.5317V20.7939C26.2128 20.9375 26.3315 21.0561 26.4751 21.0561C26.6187 21.0561 26.7373 20.9375 26.7373 20.7939V20.5317C26.7373 20.3881 26.6187 20.2695 26.4751 20.2695ZM26.4751 21.5806C26.3315 21.5806 26.2128 21.6992 26.2128 21.8428V22.1051C26.2128 22.2486 26.3315 22.3673 26.4751 22.3673C26.6187 22.3673 26.7373 22.2486 26.7373 22.1051V21.8428C26.7373 21.6992 26.6187 21.5806 26.4751 21.5806ZM26.4751 22.8917C26.3315 22.8917 26.2128 23.0104 26.2128 23.154V23.4162C26.2128 23.5598 26.3315 23.6784 26.4751 23.6784C26.6187 23.6784 26.7373 23.5598 26.7373 23.4162V23.154C26.7373 23.0104 26.6187 22.8917 26.4751 22.8917ZM29.2721 12.5838C29.2721 12.5775 29.2721 12.5713 29.2721 12.565C28.9912 11.5411 28.0609 10.8356 26.9995 10.8356H25.9506C24.8892 10.8356 23.9652 11.5473 23.678 12.565C23.678 12.5713 23.678 12.5775 23.678 12.5838C23.6218 12.7835 23.5968 12.9896 23.5906 13.1956V15.0312C23.5906 15.4745 23.6967 15.9115 23.8965 16.3049C23.5843 16.7294 23.6905 17.3975 24.1587 17.872C24.421 18.1467 24.7831 18.3028 25.1639 18.3153C25.4137 18.3215 25.6509 18.2279 25.832 18.0593C25.8882 18.0031 25.9319 17.9407 25.9693 17.8657C26.1379 17.8969 26.3065 17.9157 26.4751 17.9157H26.4813C28.0859 17.8657 29.3595 16.5546 29.3595 14.95V13.2019C29.3533 12.9833 29.3283 12.7835 29.2721 12.5838ZM25.9506 11.36H26.9995C27.705 11.36 28.3543 11.7721 28.654 12.4089H24.2898C24.5958 11.7659 25.2389 11.36 25.9506 11.36ZM25.4574 17.6847C25.2576 17.8845 24.833 17.8033 24.5333 17.4974C24.2337 17.1914 24.1462 16.7731 24.346 16.5733C24.4272 16.4984 24.5333 16.461 24.6395 16.461C24.883 16.4734 25.1077 16.5796 25.2701 16.7606C25.5698 17.0603 25.6572 17.4786 25.4574 17.6847ZM26.4751 17.385C26.3439 17.3787 26.2128 17.3663 26.0817 17.3475C26.063 16.9854 25.9069 16.6358 25.6447 16.386C25.3075 16.0239 24.8018 15.8678 24.3211 15.9927C24.1837 15.693 24.115 15.3621 24.115 15.0312H25.4636C25.6697 15.0312 25.8694 14.95 26.0193 14.8002L26.4751 14.3507L26.9246 14.8002C27.0744 14.95 27.2742 15.0312 27.4803 15.0312H28.8288C28.7914 16.3111 27.7612 17.3475 26.4751 17.385ZM28.8351 14.5067H27.4803C27.4116 14.5067 27.3429 14.4755 27.293 14.4256L26.8434 13.976C26.6374 13.77 26.3065 13.77 26.1067 13.976L25.6509 14.4256C25.601 14.4755 25.5323 14.5067 25.4636 14.5067H24.115V13.1956C24.115 13.1082 24.1213 13.0208 24.1338 12.9334H28.8101C28.8226 13.0208 28.8288 13.1082 28.8288 13.1956V14.5067H28.8351ZM30.4022 20.5317H28.3044C28.1608 20.5317 28.0422 20.6503 28.0422 20.7939V21.8428C28.0422 21.9864 28.1608 22.1051 28.3044 22.1051H30.4022C30.5458 22.1051 30.6644 21.9864 30.6644 21.8428V20.7939C30.6644 20.6503 30.552 20.5317 30.4022 20.5317ZM30.14 21.5806H28.5666V21.0561H30.14V21.5806ZM30.4022 20.5317H28.3044C28.1608 20.5317 28.0422 20.6503 28.0422 20.7939V21.8428C28.0422 21.9864 28.1608 22.1051 28.3044 22.1051H30.4022C30.5458 22.1051 30.6644 21.9864 30.6644 21.8428V20.7939C30.6644 20.6503 30.552 20.5317 30.4022 20.5317ZM30.14 21.5806H28.5666V21.0561H30.14V21.5806ZM29.2721 12.5838C29.2721 12.5775 29.2721 12.5713 29.2721 12.565C28.9912 11.5411 28.0609 10.8356 26.9995 10.8356H25.9506C24.8892 10.8356 23.9652 11.5473 23.678 12.565C23.678 12.5713 23.678 12.5775 23.678 12.5838C23.6218 12.7835 23.5968 12.9896 23.5906 13.1956V15.0312C23.5906 15.4745 23.6967 15.9115 23.8965 16.3049C23.5843 16.7294 23.6905 17.3975 24.1587 17.872C24.421 18.1467 24.7831 18.3028 25.1639 18.3153C25.4137 18.3215 25.6509 18.2279 25.832 18.0593C25.8882 18.0031 25.9319 17.9407 25.9693 17.8657C26.1379 17.8969 26.3065 17.9157 26.4751 17.9157H26.4813C28.0859 17.8657 29.3595 16.5546 29.3595 14.95V13.2019C29.3533 12.9833 29.3283 12.7835 29.2721 12.5838ZM25.9506 11.36H26.9995C27.705 11.36 28.3543 11.7721 28.654 12.4089H24.2898C24.5958 11.7659 25.2389 11.36 25.9506 11.36ZM25.4574 17.6847C25.2576 17.8845 24.833 17.8033 24.5333 17.4974C24.2337 17.1914 24.1462 16.7731 24.346 16.5733C24.4272 16.4984 24.5333 16.461 24.6395 16.461C24.883 16.4734 25.1077 16.5796 25.2701 16.7606C25.5698 17.0603 25.6572 17.4786 25.4574 17.6847ZM26.4751 17.385C26.3439 17.3787 26.2128 17.3663 26.0817 17.3475C26.063 16.9854 25.9069 16.6358 25.6447 16.386C25.3075 16.0239 24.8018 15.8678 24.3211 15.9927C24.1837 15.693 24.115 15.3621 24.115 15.0312H25.4636C25.6697 15.0312 25.8694 14.95 26.0193 14.8002L26.4751 14.3507L26.9246 14.8002C27.0744 14.95 27.2742 15.0312 27.4803 15.0312H28.8288C28.7914 16.3111 27.7612 17.3475 26.4751 17.385ZM28.8351 14.5067H27.4803C27.4116 14.5067 27.3429 14.4755 27.293 14.4256L26.8434 13.976C26.6374 13.77 26.3065 13.77 26.1067 13.976L25.6509 14.4256C25.601 14.4755 25.5323 14.5067 25.4636 14.5067H24.115V13.1956C24.115 13.1082 24.1213 13.0208 24.1338 12.9334H28.8101C28.8226 13.0208 28.8288 13.1082 28.8288 13.1956V14.5067H28.8351ZM26.4751 22.8917C26.3315 22.8917 26.2128 23.0104 26.2128 23.154V23.4162C26.2128 23.5598 26.3315 23.6784 26.4751 23.6784C26.6187 23.6784 26.7373 23.5598 26.7373 23.4162V23.154C26.7373 23.0104 26.6187 22.8917 26.4751 22.8917ZM26.4751 21.5806C26.3315 21.5806 26.2128 21.6992 26.2128 21.8428V22.1051C26.2128 22.2486 26.3315 22.3673 26.4751 22.3673C26.6187 22.3673 26.7373 22.2486 26.7373 22.1051V21.8428C26.7373 21.6992 26.6187 21.5806 26.4751 21.5806ZM26.4751 20.2695C26.3315 20.2695 26.2128 20.3881 26.2128 20.5317V20.7939C26.2128 20.9375 26.3315 21.0561 26.4751 21.0561C26.6187 21.0561 26.7373 20.9375 26.7373 20.7939V20.5317C26.7373 20.3881 26.6187 20.2695 26.4751 20.2695ZM26.4751 20.2695C26.3315 20.2695 26.2128 20.3881 26.2128 20.5317V20.7939C26.2128 20.9375 26.3315 21.0561 26.4751 21.0561C26.6187 21.0561 26.7373 20.9375 26.7373 20.7939V20.5317C26.7373 20.3881 26.6187 20.2695 26.4751 20.2695ZM26.4751 21.5806C26.3315 21.5806 26.2128 21.6992 26.2128 21.8428V22.1051C26.2128 22.2486 26.3315 22.3673 26.4751 22.3673C26.6187 22.3673 26.7373 22.2486 26.7373 22.1051V21.8428C26.7373 21.6992 26.6187 21.5806 26.4751 21.5806ZM26.4751 22.8917C26.3315 22.8917 26.2128 23.0104 26.2128 23.154V23.4162C26.2128 23.5598 26.3315 23.6784 26.4751 23.6784C26.6187 23.6784 26.7373 23.5598 26.7373 23.4162V23.154C26.7373 23.0104 26.6187 22.8917 26.4751 22.8917ZM29.2721 12.5838C29.2721 12.5775 29.2721 12.5713 29.2721 12.565C28.9912 11.5411 28.0609 10.8356 26.9995 10.8356H25.9506C24.8892 10.8356 23.9652 11.5473 23.678 12.565C23.678 12.5713 23.678 12.5775 23.678 12.5838C23.6218 12.7835 23.5968 12.9896 23.5906 13.1956V15.0312C23.5906 15.4745 23.6967 15.9115 23.8965 16.3049C23.5843 16.7294 23.6905 17.3975 24.1587 17.872C24.421 18.1467 24.7831 18.3028 25.1639 18.3153C25.4137 18.3215 25.6509 18.2279 25.832 18.0593C25.8882 18.0031 25.9319 17.9407 25.9693 17.8657C26.1379 17.8969 26.3065 17.9157 26.4751 17.9157H26.4813C28.0859 17.8657 29.3595 16.5546 29.3595 14.95V13.2019C29.3533 12.9833 29.3283 12.7835 29.2721 12.5838ZM25.9506 11.36H26.9995C27.705 11.36 28.3543 11.7721 28.654 12.4089H24.2898C24.5958 11.7659 25.2389 11.36 25.9506 11.36ZM25.4574 17.6847C25.2576 17.8845 24.833 17.8033 24.5333 17.4974C24.2337 17.1914 24.1462 16.7731 24.346 16.5733C24.4272 16.4984 24.5333 16.461 24.6395 16.461C24.883 16.4734 25.1077 16.5796 25.2701 16.7606C25.5698 17.0603 25.6572 17.4786 25.4574 17.6847ZM26.4751 17.385C26.3439 17.3787 26.2128 17.3663 26.0817 17.3475C26.063 16.9854 25.9069 16.6358 25.6447 16.386C25.3075 16.0239 24.8018 15.8678 24.3211 15.9927C24.1837 15.693 24.115 15.3621 24.115 15.0312H25.4636C25.6697 15.0312 25.8694 14.95 26.0193 14.8002L26.4751 14.3507L26.9246 14.8002C27.0744 14.95 27.2742 15.0312 27.4803 15.0312H28.8288C28.7914 16.3111 27.7612 17.3475 26.4751 17.385ZM28.8351 14.5067H27.4803C27.4116 14.5067 27.3429 14.4755 27.293 14.4256L26.8434 13.976C26.6374 13.77 26.3065 13.77 26.1067 13.976L25.6509 14.4256C25.601 14.4755 25.5323 14.5067 25.4636 14.5067H24.115V13.1956C24.115 13.1082 24.1213 13.0208 24.1338 12.9334H28.8101C28.8226 13.0208 28.8288 13.1082 28.8288 13.1956V14.5067H28.8351ZM30.4022 20.5317H28.3044C28.1608 20.5317 28.0422 20.6503 28.0422 20.7939V21.8428C28.0422 21.9864 28.1608 22.1051 28.3044 22.1051H30.4022C30.5458 22.1051 30.6644 21.9864 30.6644 21.8428V20.7939C30.6644 20.6503 30.552 20.5317 30.4022 20.5317ZM30.14 21.5806H28.5666V21.0561H30.14V21.5806ZM30.4022 20.5317H28.3044C28.1608 20.5317 28.0422 20.6503 28.0422 20.7939V21.8428C28.0422 21.9864 28.1608 22.1051 28.3044 22.1051H30.4022C30.5458 22.1051 30.6644 21.9864 30.6644 21.8428V20.7939C30.6644 20.6503 30.552 20.5317 30.4022 20.5317ZM30.14 21.5806H28.5666V21.0561H30.14V21.5806ZM29.2721 12.5838C29.2721 12.5775 29.2721 12.5713 29.2721 12.565C28.9912 11.5411 28.0609 10.8356 26.9995 10.8356H25.9506C24.8892 10.8356 23.9652 11.5473 23.678 12.565C23.678 12.5713 23.678 12.5775 23.678 12.5838C23.6218 12.7835 23.5968 12.9896 23.5906 13.1956V15.0312C23.5906 15.4745 23.6967 15.9115 23.8965 16.3049C23.5843 16.7294 23.6905 17.3975 24.1587 17.872C24.421 18.1467 24.7831 18.3028 25.1639 18.3153C25.4137 18.3215 25.6509 18.2279 25.832 18.0593C25.8882 18.0031 25.9319 17.9407 25.9693 17.8657C26.1379 17.8969 26.3065 17.9157 26.4751 17.9157H26.4813C28.0859 17.8657 29.3595 16.5546 29.3595 14.95V13.2019C29.3533 12.9833 29.3283 12.7835 29.2721 12.5838ZM25.9506 11.36H26.9995C27.705 11.36 28.3543 11.7721 28.654 12.4089H24.2898C24.5958 11.7659 25.2389 11.36 25.9506 11.36ZM25.4574 17.6847C25.2576 17.8845 24.833 17.8033 24.5333 17.4974C24.2337 17.1914 24.1462 16.7731 24.346 16.5733C24.4272 16.4984 24.5333 16.461 24.6395 16.461C24.883 16.4734 25.1077 16.5796 25.2701 16.7606C25.5698 17.0603 25.6572 17.4786 25.4574 17.6847ZM26.4751 17.385C26.3439 17.3787 26.2128 17.3663 26.0817 17.3475C26.063 16.9854 25.9069 16.6358 25.6447 16.386C25.3075 16.0239 24.8018 15.8678 24.3211 15.9927C24.1837 15.693 24.115 15.3621 24.115 15.0312H25.4636C25.6697 15.0312 25.8694 14.95 26.0193 14.8002L26.4751 14.3507L26.9246 14.8002C27.0744 14.95 27.2742 15.0312 27.4803 15.0312H28.8288C28.7914 16.3111 27.7612 17.3475 26.4751 17.385ZM28.8351 14.5067H27.4803C27.4116 14.5067 27.3429 14.4755 27.293 14.4256L26.8434 13.976C26.6374 13.77 26.3065 13.77 26.1067 13.976L25.6509 14.4256C25.601 14.4755 25.5323 14.5067 25.4636 14.5067H24.115V13.1956C24.115 13.1082 24.1213 13.0208 24.1338 12.9334H28.8101C28.8226 13.0208 28.8288 13.1082 28.8288 13.1956V14.5067H28.8351ZM26.4751 22.8917C26.3315 22.8917 26.2128 23.0104 26.2128 23.154V23.4162C26.2128 23.5598 26.3315 23.6784 26.4751 23.6784C26.6187 23.6784 26.7373 23.5598 26.7373 23.4162V23.154C26.7373 23.0104 26.6187 22.8917 26.4751 22.8917ZM26.4751 21.5806C26.3315 21.5806 26.2128 21.6992 26.2128 21.8428V22.1051C26.2128 22.2486 26.3315 22.3673 26.4751 22.3673C26.6187 22.3673 26.7373 22.2486 26.7373 22.1051V21.8428C26.7373 21.6992 26.6187 21.5806 26.4751 21.5806ZM26.4751 20.2695C26.3315 20.2695 26.2128 20.3881 26.2128 20.5317V20.7939C26.2128 20.9375 26.3315 21.0561 26.4751 21.0561C26.6187 21.0561 26.7373 20.9375 26.7373 20.7939V20.5317C26.7373 20.3881 26.6187 20.2695 26.4751 20.2695ZM26.4751 20.2695C26.3315 20.2695 26.2128 20.3881 26.2128 20.5317V20.7939C26.2128 20.9375 26.3315 21.0561 26.4751 21.0561C26.6187 21.0561 26.7373 20.9375 26.7373 20.7939V20.5317C26.7373 20.3881 26.6187 20.2695 26.4751 20.2695ZM26.4751 21.5806C26.3315 21.5806 26.2128 21.6992 26.2128 21.8428V22.1051C26.2128 22.2486 26.3315 22.3673 26.4751 22.3673C26.6187 22.3673 26.7373 22.2486 26.7373 22.1051V21.8428C26.7373 21.6992 26.6187 21.5806 26.4751 21.5806ZM26.4751 22.8917C26.3315 22.8917 26.2128 23.0104 26.2128 23.154V23.4162C26.2128 23.5598 26.3315 23.6784 26.4751 23.6784C26.6187 23.6784 26.7373 23.5598 26.7373 23.4162V23.154C26.7373 23.0104 26.6187 22.8917 26.4751 22.8917ZM29.2721 12.5838C29.2721 12.5775 29.2721 12.5713 29.2721 12.565C28.9912 11.5411 28.0609 10.8356 26.9995 10.8356H25.9506C24.8892 10.8356 23.9652 11.5473 23.678 12.565C23.678 12.5713 23.678 12.5775 23.678 12.5838C23.6218 12.7835 23.5968 12.9896 23.5906 13.1956V15.0312C23.5906 15.4745 23.6967 15.9115 23.8965 16.3049C23.5843 16.7294 23.6905 17.3975 24.1587 17.872C24.421 18.1467 24.7831 18.3028 25.1639 18.3153C25.4137 18.3215 25.6509 18.2279 25.832 18.0593C25.8882 18.0031 25.9319 17.9407 25.9693 17.8657C26.1379 17.8969 26.3065 17.9157 26.4751 17.9157H26.4813C28.0859 17.8657 29.3595 16.5546 29.3595 14.95V13.2019C29.3533 12.9833 29.3283 12.7835 29.2721 12.5838ZM25.9506 11.36H26.9995C27.705 11.36 28.3543 11.7721 28.654 12.4089H24.2898C24.5958 11.7659 25.2389 11.36 25.9506 11.36ZM25.4574 17.6847C25.2576 17.8845 24.833 17.8033 24.5333 17.4974C24.2337 17.1914 24.1462 16.7731 24.346 16.5733C24.4272 16.4984 24.5333 16.461 24.6395 16.461C24.883 16.4734 25.1077 16.5796 25.2701 16.7606C25.5698 17.0603 25.6572 17.4786 25.4574 17.6847ZM26.4751 17.385C26.3439 17.3787 26.2128 17.3663 26.0817 17.3475C26.063 16.9854 25.9069 16.6358 25.6447 16.386C25.3075 16.0239 24.8018 15.8678 24.3211 15.9927C24.1837 15.693 24.115 15.3621 24.115 15.0312H25.4636C25.6697 15.0312 25.8694 14.95 26.0193 14.8002L26.4751 14.3507L26.9246 14.8002C27.0744 14.95 27.2742 15.0312 27.4803 15.0312H28.8288C28.7914 16.3111 27.7612 17.3475 26.4751 17.385ZM28.8351 14.5067H27.4803C27.4116 14.5067 27.3429 14.4755 27.293 14.4256L26.8434 13.976C26.6374 13.77 26.3065 13.77 26.1067 13.976L25.6509 14.4256C25.601 14.4755 25.5323 14.5067 25.4636 14.5067H24.115V13.1956C24.115 13.1082 24.1213 13.0208 24.1338 12.9334H28.8101C28.8226 13.0208 28.8288 13.1082 28.8288 13.1956V14.5067H28.8351ZM30.4022 20.5317H28.3044C28.1608 20.5317 28.0422 20.6503 28.0422 20.7939V21.8428C28.0422 21.9864 28.1608 22.1051 28.3044 22.1051H30.4022C30.5458 22.1051 30.6644 21.9864 30.6644 21.8428V20.7939C30.6644 20.6503 30.552 20.5317 30.4022 20.5317ZM30.14 21.5806H28.5666V21.0561H30.14V21.5806ZM30.4022 20.5317H28.3044C28.1608 20.5317 28.0422 20.6503 28.0422 20.7939V21.8428C28.0422 21.9864 28.1608 22.1051 28.3044 22.1051H30.4022C30.5458 22.1051 30.6644 21.9864 30.6644 21.8428V20.7939C30.6644 20.6503 30.552 20.5317 30.4022 20.5317ZM30.14 21.5806H28.5666V21.0561H30.14V21.5806ZM29.2721 12.5838C29.2721 12.5775 29.2721 12.5713 29.2721 12.565C28.9912 11.5411 28.0609 10.8356 26.9995 10.8356H25.9506C24.8892 10.8356 23.9652 11.5473 23.678 12.565C23.678 12.5713 23.678 12.5775 23.678 12.5838C23.6218 12.7835 23.5968 12.9896 23.5906 13.1956V15.0312C23.5906 15.4745 23.6967 15.9115 23.8965 16.3049C23.5843 16.7294 23.6905 17.3975 24.1587 17.872C24.421 18.1467 24.7831 18.3028 25.1639 18.3153C25.4137 18.3215 25.6509 18.2279 25.832 18.0593C25.8882 18.0031 25.9319 17.9407 25.9693 17.8657C26.1379 17.8969 26.3065 17.9157 26.4751 17.9157H26.4813C28.0859 17.8657 29.3595 16.5546 29.3595 14.95V13.2019C29.3533 12.9833 29.3283 12.7835 29.2721 12.5838ZM25.9506 11.36H26.9995C27.705 11.36 28.3543 11.7721 28.654 12.4089H24.2898C24.5958 11.7659 25.2389 11.36 25.9506 11.36ZM25.4574 17.6847C25.2576 17.8845 24.833 17.8033 24.5333 17.4974C24.2337 17.1914 24.1462 16.7731 24.346 16.5733C24.4272 16.4984 24.5333 16.461 24.6395 16.461C24.883 16.4734 25.1077 16.5796 25.2701 16.7606C25.5698 17.0603 25.6572 17.4786 25.4574 17.6847ZM26.4751 17.385C26.3439 17.3787 26.2128 17.3663 26.0817 17.3475C26.063 16.9854 25.9069 16.6358 25.6447 16.386C25.3075 16.0239 24.8018 15.8678 24.3211 15.9927C24.1837 15.693 24.115 15.3621 24.115 15.0312H25.4636C25.6697 15.0312 25.8694 14.95 26.0193 14.8002L26.4751 14.3507L26.9246 14.8002C27.0744 14.95 27.2742 15.0312 27.4803 15.0312H28.8288C28.7914 16.3111 27.7612 17.3475 26.4751 17.385ZM28.8351 14.5067H27.4803C27.4116 14.5067 27.3429 14.4755 27.293 14.4256L26.8434 13.976C26.6374 13.77 26.3065 13.77 26.1067 13.976L25.6509 14.4256C25.601 14.4755 25.5323 14.5067 25.4636 14.5067H24.115V13.1956C24.115 13.1082 24.1213 13.0208 24.1338 12.9334H28.8101C28.8226 13.0208 28.8288 13.1082 28.8288 13.1956V14.5067H28.8351ZM26.4751 22.8917C26.3315 22.8917 26.2128 23.0104 26.2128 23.154V23.4162C26.2128 23.5598 26.3315 23.6784 26.4751 23.6784C26.6187 23.6784 26.7373 23.5598 26.7373 23.4162V23.154C26.7373 23.0104 26.6187 22.8917 26.4751 22.8917ZM26.4751 21.5806C26.3315 21.5806 26.2128 21.6992 26.2128 21.8428V22.1051C26.2128 22.2486 26.3315 22.3673 26.4751 22.3673C26.6187 22.3673 26.7373 22.2486 26.7373 22.1051V21.8428C26.7373 21.6992 26.6187 21.5806 26.4751 21.5806ZM26.4751 20.2695C26.3315 20.2695 26.2128 20.3881 26.2128 20.5317V20.7939C26.2128 20.9375 26.3315 21.0561 26.4751 21.0561C26.6187 21.0561 26.7373 20.9375 26.7373 20.7939V20.5317C26.7373 20.3881 26.6187 20.2695 26.4751 20.2695ZM26.4751 20.2695C26.3315 20.2695 26.2128 20.3881 26.2128 20.5317V20.7939C26.2128 20.9375 26.3315 21.0561 26.4751 21.0561C26.6187 21.0561 26.7373 20.9375 26.7373 20.7939V20.5317C26.7373 20.3881 26.6187 20.2695 26.4751 20.2695ZM26.4751 21.5806C26.3315 21.5806 26.2128 21.6992 26.2128 21.8428V22.1051C26.2128 22.2486 26.3315 22.3673 26.4751 22.3673C26.6187 22.3673 26.7373 22.2486 26.7373 22.1051V21.8428C26.7373 21.6992 26.6187 21.5806 26.4751 21.5806ZM26.4751 22.8917C26.3315 22.8917 26.2128 23.0104 26.2128 23.154V23.4162C26.2128 23.5598 26.3315 23.6784 26.4751 23.6784C26.6187 23.6784 26.7373 23.5598 26.7373 23.4162V23.154C26.7373 23.0104 26.6187 22.8917 26.4751 22.8917ZM29.2721 12.5838C29.2721 12.5775 29.2721 12.5713 29.2721 12.565C28.9912 11.5411 28.0609 10.8356 26.9995 10.8356H25.9506C24.8892 10.8356 23.9652 11.5473 23.678 12.565C23.678 12.5713 23.678 12.5775 23.678 12.5838C23.6218 12.7835 23.5968 12.9896 23.5906 13.1956V15.0312C23.5906 15.4745 23.6967 15.9115 23.8965 16.3049C23.5843 16.7294 23.6905 17.3975 24.1587 17.872C24.421 18.1467 24.7831 18.3028 25.1639 18.3153C25.4137 18.3215 25.6509 18.2279 25.832 18.0593C25.8882 18.0031 25.9319 17.9407 25.9693 17.8657C26.1379 17.8969 26.3065 17.9157 26.4751 17.9157H26.4813C28.0859 17.8657 29.3595 16.5546 29.3595 14.95V13.2019C29.3533 12.9833 29.3283 12.7835 29.2721 12.5838ZM25.9506 11.36H26.9995C27.705 11.36 28.3543 11.7721 28.654 12.4089H24.2898C24.5958 11.7659 25.2389 11.36 25.9506 11.36ZM25.4574 17.6847C25.2576 17.8845 24.833 17.8033 24.5333 17.4974C24.2337 17.1914 24.1462 16.7731 24.346 16.5733C24.4272 16.4984 24.5333 16.461 24.6395 16.461C24.883 16.4734 25.1077 16.5796 25.2701 16.7606C25.5698 17.0603 25.6572 17.4786 25.4574 17.6847ZM26.4751 17.385C26.3439 17.3787 26.2128 17.3663 26.0817 17.3475C26.063 16.9854 25.9069 16.6358 25.6447 16.386C25.3075 16.0239 24.8018 15.8678 24.3211 15.9927C24.1837 15.693 24.115 15.3621 24.115 15.0312H25.4636C25.6697 15.0312 25.8694 14.95 26.0193 14.8002L26.4751 14.3507L26.9246 14.8002C27.0744 14.95 27.2742 15.0312 27.4803 15.0312H28.8288C28.7914 16.3111 27.7612 17.3475 26.4751 17.385ZM28.8351 14.5067H27.4803C27.4116 14.5067 27.3429 14.4755 27.293 14.4256L26.8434 13.976C26.6374 13.77 26.3065 13.77 26.1067 13.976L25.6509 14.4256C25.601 14.4755 25.5323 14.5067 25.4636 14.5067H24.115V13.1956C24.115 13.1082 24.1213 13.0208 24.1338 12.9334H28.8101C28.8226 13.0208 28.8288 13.1082 28.8288 13.1956V14.5067H28.8351ZM30.4022 20.5317H28.3044C28.1608 20.5317 28.0422 20.6503 28.0422 20.7939V21.8428C28.0422 21.9864 28.1608 22.1051 28.3044 22.1051H30.4022C30.5458 22.1051 30.6644 21.9864 30.6644 21.8428V20.7939C30.6644 20.6503 30.552 20.5317 30.4022 20.5317ZM30.14 21.5806H28.5666V21.0561H30.14V21.5806ZM30.4022 20.5317H28.3044C28.1608 20.5317 28.0422 20.6503 28.0422 20.7939V21.8428C28.0422 21.9864 28.1608 22.1051 28.3044 22.1051H30.4022C30.5458 22.1051 30.6644 21.9864 30.6644 21.8428V20.7939C30.6644 20.6503 30.552 20.5317 30.4022 20.5317ZM30.14 21.5806H28.5666V21.0561H30.14V21.5806ZM29.2721 12.5838C29.2721 12.5775 29.2721 12.5713 29.2721 12.565C28.9912 11.5411 28.0609 10.8356 26.9995 10.8356H25.9506C24.8892 10.8356 23.9652 11.5473 23.678 12.565C23.678 12.5713 23.678 12.5775 23.678 12.5838C23.6218 12.7835 23.5968 12.9896 23.5906 13.1956V15.0312C23.5906 15.4745 23.6967 15.9115 23.8965 16.3049C23.5843 16.7294 23.6905 17.3975 24.1587 17.872C24.421 18.1467 24.7831 18.3028 25.1639 18.3153C25.4137 18.3215 25.6509 18.2279 25.832 18.0593C25.8882 18.0031 25.9319 17.9407 25.9693 17.8657C26.1379 17.8969 26.3065 17.9157 26.4751 17.9157H26.4813C28.0859 17.8657 29.3595 16.5546 29.3595 14.95V13.2019C29.3533 12.9833 29.3283 12.7835 29.2721 12.5838ZM25.9506 11.36H26.9995C27.705 11.36 28.3543 11.7721 28.654 12.4089H24.2898C24.5958 11.7659 25.2389 11.36 25.9506 11.36ZM25.4574 17.6847C25.2576 17.8845 24.833 17.8033 24.5333 17.4974C24.2337 17.1914 24.1462 16.7731 24.346 16.5733C24.4272 16.4984 24.5333 16.461 24.6395 16.461C24.883 16.4734 25.1077 16.5796 25.2701 16.7606C25.5698 17.0603 25.6572 17.4786 25.4574 17.6847ZM26.4751 17.385C26.3439 17.3787 26.2128 17.3663 26.0817 17.3475C26.063 16.9854 25.9069 16.6358 25.6447 16.386C25.3075 16.0239 24.8018 15.8678 24.3211 15.9927C24.1837 15.693 24.115 15.3621 24.115 15.0312H25.4636C25.6697 15.0312 25.8694 14.95 26.0193 14.8002L26.4751 14.3507L26.9246 14.8002C27.0744 14.95 27.2742 15.0312 27.4803 15.0312H28.8288C28.7914 16.3111 27.7612 17.3475 26.4751 17.385ZM28.8351 14.5067H27.4803C27.4116 14.5067 27.3429 14.4755 27.293 14.4256L26.8434 13.976C26.6374 13.77 26.3065 13.77 26.1067 13.976L25.6509 14.4256C25.601 14.4755 25.5323 14.5067 25.4636 14.5067H24.115V13.1956C24.115 13.1082 24.1213 13.0208 24.1338 12.9334H28.8101C28.8226 13.0208 28.8288 13.1082 28.8288 13.1956V14.5067H28.8351ZM26.4751 22.8917C26.3315 22.8917 26.2128 23.0104 26.2128 23.154V23.4162C26.2128 23.5598 26.3315 23.6784 26.4751 23.6784C26.6187 23.6784 26.7373 23.5598 26.7373 23.4162V23.154C26.7373 23.0104 26.6187 22.8917 26.4751 22.8917ZM26.4751 21.5806C26.3315 21.5806 26.2128 21.6992 26.2128 21.8428V22.1051C26.2128 22.2486 26.3315 22.3673 26.4751 22.3673C26.6187 22.3673 26.7373 22.2486 26.7373 22.1051V21.8428C26.7373 21.6992 26.6187 21.5806 26.4751 21.5806ZM26.4751 20.2695C26.3315 20.2695 26.2128 20.3881 26.2128 20.5317V20.7939C26.2128 20.9375 26.3315 21.0561 26.4751 21.0561C26.6187 21.0561 26.7373 20.9375 26.7373 20.7939V20.5317C26.7373 20.3881 26.6187 20.2695 26.4751 20.2695ZM26.4751 20.2695C26.3315 20.2695 26.2128 20.3881 26.2128 20.5317V20.7939C26.2128 20.9375 26.3315 21.0561 26.4751 21.0561C26.6187 21.0561 26.7373 20.9375 26.7373 20.7939V20.5317C26.7373 20.3881 26.6187 20.2695 26.4751 20.2695ZM26.4751 21.5806C26.3315 21.5806 26.2128 21.6992 26.2128 21.8428V22.1051C26.2128 22.2486 26.3315 22.3673 26.4751 22.3673C26.6187 22.3673 26.7373 22.2486 26.7373 22.1051V21.8428C26.7373 21.6992 26.6187 21.5806 26.4751 21.5806ZM26.4751 22.8917C26.3315 22.8917 26.2128 23.0104 26.2128 23.154V23.4162C26.2128 23.5598 26.3315 23.6784 26.4751 23.6784C26.6187 23.6784 26.7373 23.5598 26.7373 23.4162V23.154C26.7373 23.0104 26.6187 22.8917 26.4751 22.8917ZM29.2721 12.5838C29.2721 12.5775 29.2721 12.5713 29.2721 12.565C28.9912 11.5411 28.0609 10.8356 26.9995 10.8356H25.9506C24.8892 10.8356 23.9652 11.5473 23.678 12.565C23.678 12.5713 23.678 12.5775 23.678 12.5838C23.6218 12.7835 23.5968 12.9896 23.5906 13.1956V15.0312C23.5906 15.4745 23.6967 15.9115 23.8965 16.3049C23.5843 16.7294 23.6905 17.3975 24.1587 17.872C24.421 18.1467 24.7831 18.3028 25.1639 18.3153C25.4137 18.3215 25.6509 18.2279 25.832 18.0593C25.8882 18.0031 25.9319 17.9407 25.9693 17.8657C26.1379 17.8969 26.3065 17.9157 26.4751 17.9157H26.4813C28.0859 17.8657 29.3595 16.5546 29.3595 14.95V13.2019C29.3533 12.9833 29.3283 12.7835 29.2721 12.5838ZM25.9506 11.36H26.9995C27.705 11.36 28.3543 11.7721 28.654 12.4089H24.2898C24.5958 11.7659 25.2389 11.36 25.9506 11.36ZM25.4574 17.6847C25.2576 17.8845 24.833 17.8033 24.5333 17.4974C24.2337 17.1914 24.1462 16.7731 24.346 16.5733C24.4272 16.4984 24.5333 16.461 24.6395 16.461C24.883 16.4734 25.1077 16.5796 25.2701 16.7606C25.5698 17.0603 25.6572 17.4786 25.4574 17.6847ZM26.4751 17.385C26.3439 17.3787 26.2128 17.3663 26.0817 17.3475C26.063 16.9854 25.9069 16.6358 25.6447 16.386C25.3075 16.0239 24.8018 15.8678 24.3211 15.9927C24.1837 15.693 24.115 15.3621 24.115 15.0312H25.4636C25.6697 15.0312 25.8694 14.95 26.0193 14.8002L26.4751 14.3507L26.9246 14.8002C27.0744 14.95 27.2742 15.0312 27.4803 15.0312H28.8288C28.7914 16.3111 27.7612 17.3475 26.4751 17.385ZM28.8351 14.5067H27.4803C27.4116 14.5067 27.3429 14.4755 27.293 14.4256L26.8434 13.976C26.6374 13.77 26.3065 13.77 26.1067 13.976L25.6509 14.4256C25.601 14.4755 25.5323 14.5067 25.4636 14.5067H24.115V13.1956C24.115 13.1082 24.1213 13.0208 24.1338 12.9334H28.8101C28.8226 13.0208 28.8288 13.1082 28.8288 13.1956V14.5067H28.8351ZM30.4022 20.5317H28.3044C28.1608 20.5317 28.0422 20.6503 28.0422 20.7939V21.8428C28.0422 21.9864 28.1608 22.1051 28.3044 22.1051H30.4022C30.5458 22.1051 30.6644 21.9864 30.6644 21.8428V20.7939C30.6644 20.6503 30.552 20.5317 30.4022 20.5317ZM30.14 21.5806H28.5666V21.0561H30.14V21.5806ZM30.4022 20.5317H28.3044C28.1608 20.5317 28.0422 20.6503 28.0422 20.7939V21.8428C28.0422 21.9864 28.1608 22.1051 28.3044 22.1051H30.4022C30.5458 22.1051 30.6644 21.9864 30.6644 21.8428V20.7939C30.6644 20.6503 30.552 20.5317 30.4022 20.5317ZM30.14 21.5806H28.5666V21.0561H30.14V21.5806ZM29.2721 12.5838C29.2721 12.5775 29.2721 12.5713 29.2721 12.565C28.9912 11.5411 28.0609 10.8356 26.9995 10.8356H25.9506C24.8892 10.8356 23.9652 11.5473 23.678 12.565C23.678 12.5713 23.678 12.5775 23.678 12.5838C23.6218 12.7835 23.5968 12.9896 23.5906 13.1956V15.0312C23.5906 15.4745 23.6967 15.9115 23.8965 16.3049C23.5843 16.7294 23.6905 17.3975 24.1587 17.872C24.421 18.1467 24.7831 18.3028 25.1639 18.3153C25.4137 18.3215 25.6509 18.2279 25.832 18.0593C25.8882 18.0031 25.9319 17.9407 25.9693 17.8657C26.1379 17.8969 26.3065 17.9157 26.4751 17.9157H26.4813C28.0859 17.8657 29.3595 16.5546 29.3595 14.95V13.2019C29.3533 12.9833 29.3283 12.7835 29.2721 12.5838ZM25.9506 11.36H26.9995C27.705 11.36 28.3543 11.7721 28.654 12.4089H24.2898C24.5958 11.7659 25.2389 11.36 25.9506 11.36ZM25.4574 17.6847C25.2576 17.8845 24.833 17.8033 24.5333 17.4974C24.2337 17.1914 24.1462 16.7731 24.346 16.5733C24.4272 16.4984 24.5333 16.461 24.6395 16.461C24.883 16.4734 25.1077 16.5796 25.2701 16.7606C25.5698 17.0603 25.6572 17.4786 25.4574 17.6847ZM26.4751 17.385C26.3439 17.3787 26.2128 17.3663 26.0817 17.3475C26.063 16.9854 25.9069 16.6358 25.6447 16.386C25.3075 16.0239 24.8018 15.8678 24.3211 15.9927C24.1837 15.693 24.115 15.3621 24.115 15.0312H25.4636C25.6697 15.0312 25.8694 14.95 26.0193 14.8002L26.4751 14.3507L26.9246 14.8002C27.0744 14.95 27.2742 15.0312 27.4803 15.0312H28.8288C28.7914 16.3111 27.7612 17.3475 26.4751 17.385ZM28.8351 14.5067H27.4803C27.4116 14.5067 27.3429 14.4755 27.293 14.4256L26.8434 13.976C26.6374 13.77 26.3065 13.77 26.1067 13.976L25.6509 14.4256C25.601 14.4755 25.5323 14.5067 25.4636 14.5067H24.115V13.1956C24.115 13.1082 24.1213 13.0208 24.1338 12.9334H28.8101C28.8226 13.0208 28.8288 13.1082 28.8288 13.1956V14.5067H28.8351ZM26.4751 22.8917C26.3315 22.8917 26.2128 23.0104 26.2128 23.154V23.4162C26.2128 23.5598 26.3315 23.6784 26.4751 23.6784C26.6187 23.6784 26.7373 23.5598 26.7373 23.4162V23.154C26.7373 23.0104 26.6187 22.8917 26.4751 22.8917ZM26.4751 21.5806C26.3315 21.5806 26.2128 21.6992 26.2128 21.8428V22.1051C26.2128 22.2486 26.3315 22.3673 26.4751 22.3673C26.6187 22.3673 26.7373 22.2486 26.7373 22.1051V21.8428C26.7373 21.6992 26.6187 21.5806 26.4751 21.5806ZM26.4751 20.2695C26.3315 20.2695 26.2128 20.3881 26.2128 20.5317V20.7939C26.2128 20.9375 26.3315 21.0561 26.4751 21.0561C26.6187 21.0561 26.7373 20.9375 26.7373 20.7939V20.5317C26.7373 20.3881 26.6187 20.2695 26.4751 20.2695ZM30.4022 18.2279V12.4089C30.4022 10.5297 28.8726 9 26.9933 9H25.9444C24.0651 9 22.5354 10.5234 22.5354 12.4089V18.2279C20.9995 18.5962 19.9194 19.9635 19.9132 21.5431L19.9131 23L19.9257 22.3923C19.9319 22.3923 19.9319 22.3923 19.9381 22.3985L19.9631 22.411C19.9694 22.411 19.9756 22.4172 19.9881 22.4172L19.9131 23C19.9193 23 20.4132 23.3899 20.4132 23L20.3315 22.5483C20.3377 22.5483 20.4132 23 20.3565 22.5608L20.4002 22.5796C20.4064 22.5796 20.4126 22.5858 20.4189 22.5858L20.4132 23L20.4376 21.5494C20.4376 20.1758 21.4054 18.9958 22.7477 18.7211L22.7789 18.7148L25.4199 19.6576V24.2091H23.0599V22.898C23.0599 22.7544 22.9413 22.6357 22.7977 22.6357C22.6541 22.6357 22.5354 22.7544 22.5354 22.898V24.2091H22.2732L22.7102 24.4026C22.8975 24.4838 23.0536 24.5962 23.1723 24.7336H32.7622C32.9058 24.7336 33.0245 24.6149 33.0245 24.4713V21.5431C33.0245 19.9635 31.9381 18.5962 30.4022 18.2279ZM26.9995 24.2029H25.9506V19.745H26.9995V24.2029ZM25.7883 19.2206L23.0661 18.2466V12.4089C23.0661 10.8169 24.3585 9.52445 25.9506 9.52445H26.9995C28.5916 9.52445 29.884 10.8169 29.884 12.4089V18.2528L27.2118 19.2206H25.7883ZM32.5 24.2029H30.4022V22.8917C30.4022 22.7481 30.2836 22.6295 30.14 22.6295C29.9964 22.6295 29.8778 22.7481 29.8778 22.8917V24.2029H27.5177V19.6701L30.1587 18.7086L30.1837 18.7148C31.526 18.9896 32.4938 20.1696 32.4938 21.5431V24.2029H32.5ZM30.4022 20.5317H28.3044C28.1608 20.5317 28.0422 20.6503 28.0422 20.7939V21.8428C28.0422 21.9864 28.1608 22.1051 28.3044 22.1051H30.4022C30.5458 22.1051 30.6644 21.9864 30.6644 21.8428V20.7939C30.6644 20.6503 30.552 20.5317 30.4022 20.5317ZM30.14 21.5806H28.5666V21.0561H30.14V21.5806ZM29.2721 12.565C28.9912 11.5411 28.0609 10.8356 26.9995 10.8356H25.9506C24.8892 10.8356 23.9652 11.5473 23.678 12.565C23.678 12.5713 23.678 12.5775 23.678 12.5838C23.6218 12.7835 23.5968 12.9896 23.5906 13.1956V15.0312C23.5906 15.4745 23.6967 15.9115 23.8965 16.3049C23.5843 16.7294 23.6905 17.3975 24.1587 17.872C24.421 18.1467 24.7831 18.3028 25.1639 18.3153C25.4137 18.3215 25.6509 18.2279 25.832 18.0593C25.8882 18.0031 25.9319 17.9407 25.9693 17.8657C26.1379 17.8969 26.3065 17.9157 26.4751 17.9157H26.4813C28.0859 17.8657 29.3595 16.5546 29.3595 14.95V13.2019C29.3595 12.9958 29.3283 12.7898 29.2784 12.59C29.2721 12.5775 29.2721 12.5713 29.2721 12.565ZM25.9506 11.36H26.9995C27.705 11.36 28.3543 11.7721 28.654 12.4089H24.2898C24.5958 11.7659 25.2389 11.36 25.9506 11.36ZM25.4574 17.6847C25.2576 17.8845 24.833 17.8033 24.5333 17.4974C24.2337 17.1914 24.1462 16.7731 24.346 16.5733C24.4272 16.4984 24.5333 16.461 24.6395 16.461C24.883 16.4734 25.1077 16.5796 25.2701 16.7606C25.5698 17.0603 25.6572 17.4786 25.4574 17.6847ZM26.4751 17.385C26.3439 17.3787 26.2128 17.3663 26.0817 17.3475C26.063 16.9854 25.9069 16.6358 25.6447 16.386C25.3075 16.0239 24.8018 15.8678 24.3211 15.9927C24.1837 15.693 24.115 15.3621 24.115 15.0312H25.4636C25.6697 15.0312 25.8694 14.95 26.0193 14.8002L26.4751 14.3507L26.9246 14.8002C27.0744 14.95 27.2742 15.0312 27.4803 15.0312H28.8288C28.7914 16.3111 27.7612 17.3475 26.4751 17.385ZM28.8351 14.5067H27.4803C27.4116 14.5067 27.3429 14.4755 27.293 14.4256L26.8434 13.976C26.6374 13.77 26.3065 13.77 26.1067 13.976L25.6509 14.4256C25.601 14.4755 25.5323 14.5067 25.4636 14.5067H24.115V13.1956C24.115 13.1082 24.1213 13.0208 24.1338 12.9334H28.8101C28.8226 13.0208 28.8288 13.1082 28.8288 13.1956V14.5067H28.8351ZM26.4751 23.6784C26.6187 23.6784 26.7373 23.5598 26.7373 23.4162V23.154C26.7373 23.0104 26.6187 22.8917 26.4751 22.8917C26.3315 22.8917 26.2128 23.0104 26.2128 23.154V23.4162C26.2128 23.566 26.3252 23.6784 26.4751 23.6784ZM26.4751 22.3673C26.6187 22.3673 26.7373 22.2486 26.7373 22.1051V21.8428C26.7373 21.6992 26.6187 21.5806 26.4751 21.5806C26.3315 21.5806 26.2128 21.6992 26.2128 21.8428V22.1051C26.2128 22.2549 26.3252 22.3673 26.4751 22.3673ZM26.4751 21.0561C26.6187 21.0561 26.7373 20.9375 26.7373 20.7939V20.5317C26.7373 20.3881 26.6187 20.2695 26.4751 20.2695C26.3315 20.2695 26.2128 20.3881 26.2128 20.5317V20.7939C26.2128 20.9438 26.3252 21.0561 26.4751 21.0561ZM26.4751 20.2695C26.3315 20.2695 26.2128 20.3881 26.2128 20.5317V20.7939C26.2128 20.9375 26.3315 21.0561 26.4751 21.0561C26.6187 21.0561 26.7373 20.9375 26.7373 20.7939V20.5317C26.7373 20.3881 26.6187 20.2695 26.4751 20.2695ZM26.4751 21.5806C26.3315 21.5806 26.2128 21.6992 26.2128 21.8428V22.1051C26.2128 22.2486 26.3315 22.3673 26.4751 22.3673C26.6187 22.3673 26.7373 22.2486 26.7373 22.1051V21.8428C26.7373 21.6992 26.6187 21.5806 26.4751 21.5806ZM26.4751 22.8917C26.3315 22.8917 26.2128 23.0104 26.2128 23.154V23.4162C26.2128 23.5598 26.3315 23.6784 26.4751 23.6784C26.6187 23.6784 26.7373 23.5598 26.7373 23.4162V23.154C26.7373 23.0104 26.6187 22.8917 26.4751 22.8917ZM29.2721 12.5838C29.2721 12.5775 29.2721 12.5713 29.2721 12.565C28.9912 11.5411 28.0609 10.8356 26.9995 10.8356H25.9506C24.8892 10.8356 23.9652 11.5473 23.678 12.565C23.678 12.5713 23.678 12.5775 23.678 12.5838C23.6218 12.7835 23.5968 12.9896 23.5906 13.1956V15.0312C23.5906 15.4745 23.6967 15.9115 23.8965 16.3049C23.5843 16.7294 23.6905 17.3975 24.1587 17.872C24.421 18.1467 24.7831 18.3028 25.1639 18.3153C25.4137 18.3215 25.6509 18.2279 25.832 18.0593C25.8882 18.0031 25.9319 17.9407 25.9693 17.8657C26.1379 17.8969 26.3065 17.9157 26.4751 17.9157H26.4813C28.0859 17.8657 29.3595 16.5546 29.3595 14.95V13.2019C29.3533 12.9833 29.3283 12.7835 29.2721 12.5838ZM25.9506 11.36H26.9995C27.705 11.36 28.3543 11.7721 28.654 12.4089H24.2898C24.5958 11.7659 25.2389 11.36 25.9506 11.36ZM25.4574 17.6847C25.2576 17.8845 24.833 17.8033 24.5333 17.4974C24.2337 17.1914 24.1462 16.7731 24.346 16.5733C24.4272 16.4984 24.5333 16.461 24.6395 16.461C24.883 16.4734 25.1077 16.5796 25.2701 16.7606C25.5698 17.0603 25.6572 17.4786 25.4574 17.6847ZM26.4751 17.385C26.3439 17.3787 26.2128 17.3663 26.0817 17.3475C26.063 16.9854 25.9069 16.6358 25.6447 16.386C25.3075 16.0239 24.8018 15.8678 24.3211 15.9927C24.1837 15.693 24.115 15.3621 24.115 15.0312H25.4636C25.6697 15.0312 25.8694 14.95 26.0193 14.8002L26.4751 14.3507L26.9246 14.8002C27.0744 14.95 27.2742 15.0312 27.4803 15.0312H28.8288C28.7914 16.3111 27.7612 17.3475 26.4751 17.385ZM28.8351 14.5067H27.4803C27.4116 14.5067 27.3429 14.4755 27.293 14.4256L26.8434 13.976C26.6374 13.77 26.3065 13.77 26.1067 13.976L25.6509 14.4256C25.601 14.4755 25.5323 14.5067 25.4636 14.5067H24.115V13.1956C24.115 13.1082 24.1213 13.0208 24.1338 12.9334H28.8101C28.8226 13.0208 28.8288 13.1082 28.8288 13.1956V14.5067H28.8351ZM30.4022 20.5317H28.3044C28.1608 20.5317 28.0422 20.6503 28.0422 20.7939V21.8428C28.0422 21.9864 28.1608 22.1051 28.3044 22.1051H30.4022C30.5458 22.1051 30.6644 21.9864 30.6644 21.8428V20.7939C30.6644 20.6503 30.552 20.5317 30.4022 20.5317ZM30.14 21.5806H28.5666V21.0561H30.14V21.5806ZM30.4022 20.5317H28.3044C28.1608 20.5317 28.0422 20.6503 28.0422 20.7939V21.8428C28.0422 21.9864 28.1608 22.1051 28.3044 22.1051H30.4022C30.5458 22.1051 30.6644 21.9864 30.6644 21.8428V20.7939C30.6644 20.6503 30.552 20.5317 30.4022 20.5317ZM30.14 21.5806H28.5666V21.0561H30.14V21.5806ZM29.2721 12.5838C29.2721 12.5775 29.2721 12.5713 29.2721 12.565C28.9912 11.5411 28.0609 10.8356 26.9995 10.8356H25.9506C24.8892 10.8356 23.9652 11.5473 23.678 12.565C23.678 12.5713 23.678 12.5775 23.678 12.5838C23.6218 12.7835 23.5968 12.9896 23.5906 13.1956V15.0312C23.5906 15.4745 23.6967 15.9115 23.8965 16.3049C23.5843 16.7294 23.6905 17.3975 24.1587 17.872C24.421 18.1467 24.7831 18.3028 25.1639 18.3153C25.4137 18.3215 25.6509 18.2279 25.832 18.0593C25.8882 18.0031 25.9319 17.9407 25.9693 17.8657C26.1379 17.8969 26.3065 17.9157 26.4751 17.9157H26.4813C28.0859 17.8657 29.3595 16.5546 29.3595 14.95V13.2019C29.3533 12.9833 29.3283 12.7835 29.2721 12.5838ZM25.9506 11.36H26.9995C27.705 11.36 28.3543 11.7721 28.654 12.4089H24.2898C24.5958 11.7659 25.2389 11.36 25.9506 11.36ZM25.4574 17.6847C25.2576 17.8845 24.833 17.8033 24.5333 17.4974C24.2337 17.1914 24.1462 16.7731 24.346 16.5733C24.4272 16.4984 24.5333 16.461 24.6395 16.461C24.883 16.4734 25.1077 16.5796 25.2701 16.7606C25.5698 17.0603 25.6572 17.4786 25.4574 17.6847ZM26.4751 17.385C26.3439 17.3787 26.2128 17.3663 26.0817 17.3475C26.063 16.9854 25.9069 16.6358 25.6447 16.386C25.3075 16.0239 24.8018 15.8678 24.3211 15.9927C24.1837 15.693 24.115 15.3621 24.115 15.0312H25.4636C25.6697 15.0312 25.8694 14.95 26.0193 14.8002L26.4751 14.3507L26.9246 14.8002C27.0744 14.95 27.2742 15.0312 27.4803 15.0312H28.8288C28.7914 16.3111 27.7612 17.3475 26.4751 17.385ZM28.8351 14.5067H27.4803C27.4116 14.5067 27.3429 14.4755 27.293 14.4256L26.8434 13.976C26.6374 13.77 26.3065 13.77 26.1067 13.976L25.6509 14.4256C25.601 14.4755 25.5323 14.5067 25.4636 14.5067H24.115V13.1956C24.115 13.1082 24.1213 13.0208 24.1338 12.9334H28.8101C28.8226 13.0208 28.8288 13.1082 28.8288 13.1956V14.5067H28.8351ZM26.4751 22.8917C26.3315 22.8917 26.2128 23.0104 26.2128 23.154V23.4162C26.2128 23.5598 26.3315 23.6784 26.4751 23.6784C26.6187 23.6784 26.7373 23.5598 26.7373 23.4162V23.154C26.7373 23.0104 26.6187 22.8917 26.4751 22.8917ZM26.4751 21.5806C26.3315 21.5806 26.2128 21.6992 26.2128 21.8428V22.1051C26.2128 22.2486 26.3315 22.3673 26.4751 22.3673C26.6187 22.3673 26.7373 22.2486 26.7373 22.1051V21.8428C26.7373 21.6992 26.6187 21.5806 26.4751 21.5806ZM26.4751 20.2695C26.3315 20.2695 26.2128 20.3881 26.2128 20.5317V20.7939C26.2128 20.9375 26.3315 21.0561 26.4751 21.0561C26.6187 21.0561 26.7373 20.9375 26.7373 20.7939V20.5317C26.7373 20.3881 26.6187 20.2695 26.4751 20.2695ZM26.4751 20.2695C26.3315 20.2695 26.2128 20.3881 26.2128 20.5317V20.7939C26.2128 20.9375 26.3315 21.0561 26.4751 21.0561C26.6187 21.0561 26.7373 20.9375 26.7373 20.7939V20.5317C26.7373 20.3881 26.6187 20.2695 26.4751 20.2695ZM26.4751 21.5806C26.3315 21.5806 26.2128 21.6992 26.2128 21.8428V22.1051C26.2128 22.2486 26.3315 22.3673 26.4751 22.3673C26.6187 22.3673 26.7373 22.2486 26.7373 22.1051V21.8428C26.7373 21.6992 26.6187 21.5806 26.4751 21.5806ZM26.4751 22.8917C26.3315 22.8917 26.2128 23.0104 26.2128 23.154V23.4162C26.2128 23.5598 26.3315 23.6784 26.4751 23.6784C26.6187 23.6784 26.7373 23.5598 26.7373 23.4162V23.154C26.7373 23.0104 26.6187 22.8917 26.4751 22.8917ZM29.2721 12.5838C29.2721 12.5775 29.2721 12.5713 29.2721 12.565C28.9912 11.5411 28.0609 10.8356 26.9995 10.8356H25.9506C24.8892 10.8356 23.9652 11.5473 23.678 12.565C23.678 12.5713 23.678 12.5775 23.678 12.5838C23.6218 12.7835 23.5968 12.9896 23.5906 13.1956V15.0312C23.5906 15.4745 23.6967 15.9115 23.8965 16.3049C23.5843 16.7294 23.6905 17.3975 24.1587 17.872C24.421 18.1467 24.7831 18.3028 25.1639 18.3153C25.4137 18.3215 25.6509 18.2279 25.832 18.0593C25.8882 18.0031 25.9319 17.9407 25.9693 17.8657C26.1379 17.8969 26.3065 17.9157 26.4751 17.9157H26.4813C28.0859 17.8657 29.3595 16.5546 29.3595 14.95V13.2019C29.3533 12.9833 29.3283 12.7835 29.2721 12.5838ZM25.9506 11.36H26.9995C27.705 11.36 28.3543 11.7721 28.654 12.4089H24.2898C24.5958 11.7659 25.2389 11.36 25.9506 11.36ZM25.4574 17.6847C25.2576 17.8845 24.833 17.8033 24.5333 17.4974C24.2337 17.1914 24.1462 16.7731 24.346 16.5733C24.4272 16.4984 24.5333 16.461 24.6395 16.461C24.883 16.4734 25.1077 16.5796 25.2701 16.7606C25.5698 17.0603 25.6572 17.4786 25.4574 17.6847ZM26.4751 17.385C26.3439 17.3787 26.2128 17.3663 26.0817 17.3475C26.063 16.9854 25.9069 16.6358 25.6447 16.386C25.3075 16.0239 24.8018 15.8678 24.3211 15.9927C24.1837 15.693 24.115 15.3621 24.115 15.0312H25.4636C25.6697 15.0312 25.8694 14.95 26.0193 14.8002L26.4751 14.3507L26.9246 14.8002C27.0744 14.95 27.2742 15.0312 27.4803 15.0312H28.8288C28.7914 16.3111 27.7612 17.3475 26.4751 17.385ZM28.8351 14.5067H27.4803C27.4116 14.5067 27.3429 14.4755 27.293 14.4256L26.8434 13.976C26.6374 13.77 26.3065 13.77 26.1067 13.976L25.6509 14.4256C25.601 14.4755 25.5323 14.5067 25.4636 14.5067H24.115V13.1956C24.115 13.1082 24.1213 13.0208 24.1338 12.9334H28.8101C28.8226 13.0208 28.8288 13.1082 28.8288 13.1956V14.5067H28.8351ZM30.4022 20.5317H28.3044C28.1608 20.5317 28.0422 20.6503 28.0422 20.7939V21.8428C28.0422 21.9864 28.1608 22.1051 28.3044 22.1051H30.4022C30.5458 22.1051 30.6644 21.9864 30.6644 21.8428V20.7939C30.6644 20.6503 30.552 20.5317 30.4022 20.5317ZM30.14 21.5806H28.5666V21.0561H30.14V21.5806ZM30.4022 20.5317H28.3044C28.1608 20.5317 28.0422 20.6503 28.0422 20.7939V21.8428C28.0422 21.9864 28.1608 22.1051 28.3044 22.1051H30.4022C30.5458 22.1051 30.6644 21.9864 30.6644 21.8428V20.7939C30.6644 20.6503 30.552 20.5317 30.4022 20.5317ZM30.14 21.5806H28.5666V21.0561H30.14V21.5806ZM29.2721 12.5838C29.2721 12.5775 29.2721 12.5713 29.2721 12.565C28.9912 11.5411 28.0609 10.8356 26.9995 10.8356H25.9506C24.8892 10.8356 23.9652 11.5473 23.678 12.565C23.678 12.5713 23.678 12.5775 23.678 12.5838C23.6218 12.7835 23.5968 12.9896 23.5906 13.1956V15.0312C23.5906 15.4745 23.6967 15.9115 23.8965 16.3049C23.5843 16.7294 23.6905 17.3975 24.1587 17.872C24.421 18.1467 24.7831 18.3028 25.1639 18.3153C25.4137 18.3215 25.6509 18.2279 25.832 18.0593C25.8882 18.0031 25.9319 17.9407 25.9693 17.8657C26.1379 17.8969 26.3065 17.9157 26.4751 17.9157H26.4813C28.0859 17.8657 29.3595 16.5546 29.3595 14.95V13.2019C29.3533 12.9833 29.3283 12.7835 29.2721 12.5838ZM25.9506 11.36H26.9995C27.705 11.36 28.3543 11.7721 28.654 12.4089H24.2898C24.5958 11.7659 25.2389 11.36 25.9506 11.36ZM25.4574 17.6847C25.2576 17.8845 24.833 17.8033 24.5333 17.4974C24.2337 17.1914 24.1462 16.7731 24.346 16.5733C24.4272 16.4984 24.5333 16.461 24.6395 16.461C24.883 16.4734 25.1077 16.5796 25.2701 16.7606C25.5698 17.0603 25.6572 17.4786 25.4574 17.6847ZM26.4751 17.385C26.3439 17.3787 26.2128 17.3663 26.0817 17.3475C26.063 16.9854 25.9069 16.6358 25.6447 16.386C25.3075 16.0239 24.8018 15.8678 24.3211 15.9927C24.1837 15.693 24.115 15.3621 24.115 15.0312H25.4636C25.6697 15.0312 25.8694 14.95 26.0193 14.8002L26.4751 14.3507L26.9246 14.8002C27.0744 14.95 27.2742 15.0312 27.4803 15.0312H28.8288C28.7914 16.3111 27.7612 17.3475 26.4751 17.385ZM28.8351 14.5067H27.4803C27.4116 14.5067 27.3429 14.4755 27.293 14.4256L26.8434 13.976C26.6374 13.77 26.3065 13.77 26.1067 13.976L25.6509 14.4256C25.601 14.4755 25.5323 14.5067 25.4636 14.5067H24.115V13.1956C24.115 13.1082 24.1213 13.0208 24.1338 12.9334H28.8101C28.8226 13.0208 28.8288 13.1082 28.8288 13.1956V14.5067H28.8351ZM26.4751 22.8917C26.3315 22.8917 26.2128 23.0104 26.2128 23.154V23.4162C26.2128 23.5598 26.3315 23.6784 26.4751 23.6784C26.6187 23.6784 26.7373 23.5598 26.7373 23.4162V23.154C26.7373 23.0104 26.6187 22.8917 26.4751 22.8917ZM26.4751 21.5806C26.3315 21.5806 26.2128 21.6992 26.2128 21.8428V22.1051C26.2128 22.2486 26.3315 22.3673 26.4751 22.3673C26.6187 22.3673 26.7373 22.2486 26.7373 22.1051V21.8428C26.7373 21.6992 26.6187 21.5806 26.4751 21.5806ZM26.4751 20.2695C26.3315 20.2695 26.2128 20.3881 26.2128 20.5317V20.7939C26.2128 20.9375 26.3315 21.0561 26.4751 21.0561C26.6187 21.0561 26.7373 20.9375 26.7373 20.7939V20.5317C26.7373 20.3881 26.6187 20.2695 26.4751 20.2695ZM26.4751 20.2695C26.3315 20.2695 26.2128 20.3881 26.2128 20.5317V20.7939C26.2128 20.9375 26.3315 21.0561 26.4751 21.0561C26.6187 21.0561 26.7373 20.9375 26.7373 20.7939V20.5317C26.7373 20.3881 26.6187 20.2695 26.4751 20.2695ZM26.4751 21.5806C26.3315 21.5806 26.2128 21.6992 26.2128 21.8428V22.1051C26.2128 22.2486 26.3315 22.3673 26.4751 22.3673C26.6187 22.3673 26.7373 22.2486 26.7373 22.1051V21.8428C26.7373 21.6992 26.6187 21.5806 26.4751 21.5806ZM26.4751 22.8917C26.3315 22.8917 26.2128 23.0104 26.2128 23.154V23.4162C26.2128 23.5598 26.3315 23.6784 26.4751 23.6784C26.6187 23.6784 26.7373 23.5598 26.7373 23.4162V23.154C26.7373 23.0104 26.6187 22.8917 26.4751 22.8917ZM29.2721 12.5838C29.2721 12.5775 29.2721 12.5713 29.2721 12.565C28.9912 11.5411 28.0609 10.8356 26.9995 10.8356H25.9506C24.8892 10.8356 23.9652 11.5473 23.678 12.565C23.678 12.5713 23.678 12.5775 23.678 12.5838C23.6218 12.7835 23.5968 12.9896 23.5906 13.1956V15.0312C23.5906 15.4745 23.6967 15.9115 23.8965 16.3049C23.5843 16.7294 23.6905 17.3975 24.1587 17.872C24.421 18.1467 24.7831 18.3028 25.1639 18.3153C25.4137 18.3215 25.6509 18.2279 25.832 18.0593C25.8882 18.0031 25.9319 17.9407 25.9693 17.8657C26.1379 17.8969 26.3065 17.9157 26.4751 17.9157H26.4813C28.0859 17.8657 29.3595 16.5546 29.3595 14.95V13.2019C29.3533 12.9833 29.3283 12.7835 29.2721 12.5838ZM25.9506 11.36H26.9995C27.705 11.36 28.3543 11.7721 28.654 12.4089H24.2898C24.5958 11.7659 25.2389 11.36 25.9506 11.36ZM25.4574 17.6847C25.2576 17.8845 24.833 17.8033 24.5333 17.4974C24.2337 17.1914 24.1462 16.7731 24.346 16.5733C24.4272 16.4984 24.5333 16.461 24.6395 16.461C24.883 16.4734 25.1077 16.5796 25.2701 16.7606C25.5698 17.0603 25.6572 17.4786 25.4574 17.6847ZM26.4751 17.385C26.3439 17.3787 26.2128 17.3663 26.0817 17.3475C26.063 16.9854 25.9069 16.6358 25.6447 16.386C25.3075 16.0239 24.8018 15.8678 24.3211 15.9927C24.1837 15.693 24.115 15.3621 24.115 15.0312H25.4636C25.6697 15.0312 25.8694 14.95 26.0193 14.8002L26.4751 14.3507L26.9246 14.8002C27.0744 14.95 27.2742 15.0312 27.4803 15.0312H28.8288C28.7914 16.3111 27.7612 17.3475 26.4751 17.385ZM28.8351 14.5067H27.4803C27.4116 14.5067 27.3429 14.4755 27.293 14.4256L26.8434 13.976C26.6374 13.77 26.3065 13.77 26.1067 13.976L25.6509 14.4256C25.601 14.4755 25.5323 14.5067 25.4636 14.5067H24.115V13.1956C24.115 13.1082 24.1213 13.0208 24.1338 12.9334H28.8101C28.8226 13.0208 28.8288 13.1082 28.8288 13.1956V14.5067H28.8351ZM30.4022 20.5317H28.3044C28.1608 20.5317 28.0422 20.6503 28.0422 20.7939V21.8428C28.0422 21.9864 28.1608 22.1051 28.3044 22.1051H30.4022C30.5458 22.1051 30.6644 21.9864 30.6644 21.8428V20.7939C30.6644 20.6503 30.552 20.5317 30.4022 20.5317ZM30.14 21.5806H28.5666V21.0561H30.14V21.5806ZM30.4022 20.5317H28.3044C28.1608 20.5317 28.0422 20.6503 28.0422 20.7939V21.8428C28.0422 21.9864 28.1608 22.1051 28.3044 22.1051H30.4022C30.5458 22.1051 30.6644 21.9864 30.6644 21.8428V20.7939C30.6644 20.6503 30.552 20.5317 30.4022 20.5317ZM30.14 21.5806H28.5666V21.0561H30.14V21.5806ZM29.2721 12.5838C29.2721 12.5775 29.2721 12.5713 29.2721 12.565C28.9912 11.5411 28.0609 10.8356 26.9995 10.8356H25.9506C24.8892 10.8356 23.9652 11.5473 23.678 12.565C23.678 12.5713 23.678 12.5775 23.678 12.5838C23.6218 12.7835 23.5968 12.9896 23.5906 13.1956V15.0312C23.5906 15.4745 23.6967 15.9115 23.8965 16.3049C23.5843 16.7294 23.6905 17.3975 24.1587 17.872C24.421 18.1467 24.7831 18.3028 25.1639 18.3153C25.4137 18.3215 25.6509 18.2279 25.832 18.0593C25.8882 18.0031 25.9319 17.9407 25.9693 17.8657C26.1379 17.8969 26.3065 17.9157 26.4751 17.9157H26.4813C28.0859 17.8657 29.3595 16.5546 29.3595 14.95V13.2019C29.3533 12.9833 29.3283 12.7835 29.2721 12.5838ZM25.9506 11.36H26.9995C27.705 11.36 28.3543 11.7721 28.654 12.4089H24.2898C24.5958 11.7659 25.2389 11.36 25.9506 11.36ZM25.4574 17.6847C25.2576 17.8845 24.833 17.8033 24.5333 17.4974C24.2337 17.1914 24.1462 16.7731 24.346 16.5733C24.4272 16.4984 24.5333 16.461 24.6395 16.461C24.883 16.4734 25.1077 16.5796 25.2701 16.7606C25.5698 17.0603 25.6572 17.4786 25.4574 17.6847ZM26.4751 17.385C26.3439 17.3787 26.2128 17.3663 26.0817 17.3475C26.063 16.9854 25.9069 16.6358 25.6447 16.386C25.3075 16.0239 24.8018 15.8678 24.3211 15.9927C24.1837 15.693 24.115 15.3621 24.115 15.0312H25.4636C25.6697 15.0312 25.8694 14.95 26.0193 14.8002L26.4751 14.3507L26.9246 14.8002C27.0744 14.95 27.2742 15.0312 27.4803 15.0312H28.8288C28.7914 16.3111 27.7612 17.3475 26.4751 17.385ZM28.8351 14.5067H27.4803C27.4116 14.5067 27.3429 14.4755 27.293 14.4256L26.8434 13.976C26.6374 13.77 26.3065 13.77 26.1067 13.976L25.6509 14.4256C25.601 14.4755 25.5323 14.5067 25.4636 14.5067H24.115V13.1956C24.115 13.1082 24.1213 13.0208 24.1338 12.9334H28.8101C28.8226 13.0208 28.8288 13.1082 28.8288 13.1956V14.5067H28.8351ZM26.4751 22.8917C26.3315 22.8917 26.2128 23.0104 26.2128 23.154V23.4162C26.2128 23.5598 26.3315 23.6784 26.4751 23.6784C26.6187 23.6784 26.7373 23.5598 26.7373 23.4162V23.154C26.7373 23.0104 26.6187 22.8917 26.4751 22.8917ZM26.4751 21.5806C26.3315 21.5806 26.2128 21.6992 26.2128 21.8428V22.1051C26.2128 22.2486 26.3315 22.3673 26.4751 22.3673C26.6187 22.3673 26.7373 22.2486 26.7373 22.1051V21.8428C26.7373 21.6992 26.6187 21.5806 26.4751 21.5806ZM26.4751 20.2695C26.3315 20.2695 26.2128 20.3881 26.2128 20.5317V20.7939C26.2128 20.9375 26.3315 21.0561 26.4751 21.0561C26.6187 21.0561 26.7373 20.9375 26.7373 20.7939V20.5317C26.7373 20.3881 26.6187 20.2695 26.4751 20.2695ZM26.4751 20.2695C26.3315 20.2695 26.2128 20.3881 26.2128 20.5317V20.7939C26.2128 20.9375 26.3315 21.0561 26.4751 21.0561C26.6187 21.0561 26.7373 20.9375 26.7373 20.7939V20.5317C26.7373 20.3881 26.6187 20.2695 26.4751 20.2695ZM26.4751 21.5806C26.3315 21.5806 26.2128 21.6992 26.2128 21.8428V22.1051C26.2128 22.2486 26.3315 22.3673 26.4751 22.3673C26.6187 22.3673 26.7373 22.2486 26.7373 22.1051V21.8428C26.7373 21.6992 26.6187 21.5806 26.4751 21.5806ZM26.4751 22.8917C26.3315 22.8917 26.2128 23.0104 26.2128 23.154V23.4162C26.2128 23.5598 26.3315 23.6784 26.4751 23.6784C26.6187 23.6784 26.7373 23.5598 26.7373 23.4162V23.154C26.7373 23.0104 26.6187 22.8917 26.4751 22.8917ZM29.2721 12.5838C29.2721 12.5775 29.2721 12.5713 29.2721 12.565C28.9912 11.5411 28.0609 10.8356 26.9995 10.8356H25.9506C24.8892 10.8356 23.9652 11.5473 23.678 12.565C23.678 12.5713 23.678 12.5775 23.678 12.5838C23.6218 12.7835 23.5968 12.9896 23.5906 13.1956V15.0312C23.5906 15.4745 23.6967 15.9115 23.8965 16.3049C23.5843 16.7294 23.6905 17.3975 24.1587 17.872C24.421 18.1467 24.7831 18.3028 25.1639 18.3153C25.4137 18.3215 25.6509 18.2279 25.832 18.0593C25.8882 18.0031 25.9319 17.9407 25.9693 17.8657C26.1379 17.8969 26.3065 17.9157 26.4751 17.9157H26.4813C28.0859 17.8657 29.3595 16.5546 29.3595 14.95V13.2019C29.3533 12.9833 29.3283 12.7835 29.2721 12.5838ZM25.9506 11.36H26.9995C27.705 11.36 28.3543 11.7721 28.654 12.4089H24.2898C24.5958 11.7659 25.2389 11.36 25.9506 11.36ZM25.4574 17.6847C25.2576 17.8845 24.833 17.8033 24.5333 17.4974C24.2337 17.1914 24.1462 16.7731 24.346 16.5733C24.4272 16.4984 24.5333 16.461 24.6395 16.461C24.883 16.4734 25.1077 16.5796 25.2701 16.7606C25.5698 17.0603 25.6572 17.4786 25.4574 17.6847ZM26.4751 17.385C26.3439 17.3787 26.2128 17.3663 26.0817 17.3475C26.063 16.9854 25.9069 16.6358 25.6447 16.386C25.3075 16.0239 24.8018 15.8678 24.3211 15.9927C24.1837 15.693 24.115 15.3621 24.115 15.0312H25.4636C25.6697 15.0312 25.8694 14.95 26.0193 14.8002L26.4751 14.3507L26.9246 14.8002C27.0744 14.95 27.2742 15.0312 27.4803 15.0312H28.8288C28.7914 16.3111 27.7612 17.3475 26.4751 17.385ZM28.8351 14.5067H27.4803C27.4116 14.5067 27.3429 14.4755 27.293 14.4256L26.8434 13.976C26.6374 13.77 26.3065 13.77 26.1067 13.976L25.6509 14.4256C25.601 14.4755 25.5323 14.5067 25.4636 14.5067H24.115V13.1956C24.115 13.1082 24.1213 13.0208 24.1338 12.9334H28.8101C28.8226 13.0208 28.8288 13.1082 28.8288 13.1956V14.5067H28.8351ZM30.4022 20.5317H28.3044C28.1608 20.5317 28.0422 20.6503 28.0422 20.7939V21.8428C28.0422 21.9864 28.1608 22.1051 28.3044 22.1051H30.4022C30.5458 22.1051 30.6644 21.9864 30.6644 21.8428V20.7939C30.6644 20.6503 30.552 20.5317 30.4022 20.5317ZM30.14 21.5806H28.5666V21.0561H30.14V21.5806ZM30.4022 20.5317H28.3044C28.1608 20.5317 28.0422 20.6503 28.0422 20.7939V21.8428C28.0422 21.9864 28.1608 22.1051 28.3044 22.1051H30.4022C30.5458 22.1051 30.6644 21.9864 30.6644 21.8428V20.7939C30.6644 20.6503 30.552 20.5317 30.4022 20.5317ZM30.14 21.5806H28.5666V21.0561H30.14V21.5806ZM29.2721 12.5838C29.2721 12.5775 29.2721 12.5713 29.2721 12.565C28.9912 11.5411 28.0609 10.8356 26.9995 10.8356H25.9506C24.8892 10.8356 23.9652 11.5473 23.678 12.565C23.678 12.5713 23.678 12.5775 23.678 12.5838C23.6218 12.7835 23.5968 12.9896 23.5906 13.1956V15.0312C23.5906 15.4745 23.6967 15.9115 23.8965 16.3049C23.5843 16.7294 23.6905 17.3975 24.1587 17.872C24.421 18.1467 24.7831 18.3028 25.1639 18.3153C25.4137 18.3215 25.6509 18.2279 25.832 18.0593C25.8882 18.0031 25.9319 17.9407 25.9693 17.8657C26.1379 17.8969 26.3065 17.9157 26.4751 17.9157H26.4813C28.0859 17.8657 29.3595 16.5546 29.3595 14.95V13.2019C29.3533 12.9833 29.3283 12.7835 29.2721 12.5838ZM25.9506 11.36H26.9995C27.705 11.36 28.3543 11.7721 28.654 12.4089H24.2898C24.5958 11.7659 25.2389 11.36 25.9506 11.36ZM25.4574 17.6847C25.2576 17.8845 24.833 17.8033 24.5333 17.4974C24.2337 17.1914 24.1462 16.7731 24.346 16.5733C24.4272 16.4984 24.5333 16.461 24.6395 16.461C24.883 16.4734 25.1077 16.5796 25.2701 16.7606C25.5698 17.0603 25.6572 17.4786 25.4574 17.6847ZM26.4751 17.385C26.3439 17.3787 26.2128 17.3663 26.0817 17.3475C26.063 16.9854 25.9069 16.6358 25.6447 16.386C25.3075 16.0239 24.8018 15.8678 24.3211 15.9927C24.1837 15.693 24.115 15.3621 24.115 15.0312H25.4636C25.6697 15.0312 25.8694 14.95 26.0193 14.8002L26.4751 14.3507L26.9246 14.8002C27.0744 14.95 27.2742 15.0312 27.4803 15.0312H28.8288C28.7914 16.3111 27.7612 17.3475 26.4751 17.385ZM28.8351 14.5067H27.4803C27.4116 14.5067 27.3429 14.4755 27.293 14.4256L26.8434 13.976C26.6374 13.77 26.3065 13.77 26.1067 13.976L25.6509 14.4256C25.601 14.4755 25.5323 14.5067 25.4636 14.5067H24.115V13.1956C24.115 13.1082 24.1213 13.0208 24.1338 12.9334H28.8101C28.8226 13.0208 28.8288 13.1082 28.8288 13.1956V14.5067H28.8351ZM26.4751 22.8917C26.3315 22.8917 26.2128 23.0104 26.2128 23.154V23.4162C26.2128 23.5598 26.3315 23.6784 26.4751 23.6784C26.6187 23.6784 26.7373 23.5598 26.7373 23.4162V23.154C26.7373 23.0104 26.6187 22.8917 26.4751 22.8917ZM26.4751 21.5806C26.3315 21.5806 26.2128 21.6992 26.2128 21.8428V22.1051C26.2128 22.2486 26.3315 22.3673 26.4751 22.3673C26.6187 22.3673 26.7373 22.2486 26.7373 22.1051V21.8428C26.7373 21.6992 26.6187 21.5806 26.4751 21.5806ZM26.4751 20.2695C26.3315 20.2695 26.2128 20.3881 26.2128 20.5317V20.7939C26.2128 20.9375 26.3315 21.0561 26.4751 21.0561C26.6187 21.0561 26.7373 20.9375 26.7373 20.7939V20.5317C26.7373 20.3881 26.6187 20.2695 26.4751 20.2695ZM26.4751 20.2695C26.3315 20.2695 26.2128 20.3881 26.2128 20.5317V20.7939C26.2128 20.9375 26.3315 21.0561 26.4751 21.0561C26.6187 21.0561 26.7373 20.9375 26.7373 20.7939V20.5317C26.7373 20.3881 26.6187 20.2695 26.4751 20.2695ZM26.4751 21.5806C26.3315 21.5806 26.2128 21.6992 26.2128 21.8428V22.1051C26.2128 22.2486 26.3315 22.3673 26.4751 22.3673C26.6187 22.3673 26.7373 22.2486 26.7373 22.1051V21.8428C26.7373 21.6992 26.6187 21.5806 26.4751 21.5806ZM26.4751 22.8917C26.3315 22.8917 26.2128 23.0104 26.2128 23.154V23.4162C26.2128 23.5598 26.3315 23.6784 26.4751 23.6784C26.6187 23.6784 26.7373 23.5598 26.7373 23.4162V23.154C26.7373 23.0104 26.6187 22.8917 26.4751 22.8917ZM30.4022 20.5317H28.3044C28.1608 20.5317 28.0422 20.6503 28.0422 20.7939V21.8428C28.0422 21.9864 28.1608 22.1051 28.3044 22.1051H30.4022C30.5458 22.1051 30.6644 21.9864 30.6644 21.8428V20.7939C30.6644 20.6503 30.552 20.5317 30.4022 20.5317ZM30.14 21.5806H28.5666V21.0561H30.14V21.5806ZM30.4022 20.5317H28.3044C28.1608 20.5317 28.0422 20.6503 28.0422 20.7939V21.8428C28.0422 21.9864 28.1608 22.1051 28.3044 22.1051H30.4022C30.5458 22.1051 30.6644 21.9864 30.6644 21.8428V20.7939C30.6644 20.6503 30.552 20.5317 30.4022 20.5317ZM30.14 21.5806H28.5666V21.0561H30.14V21.5806ZM26.4751 22.8917C26.3315 22.8917 26.2128 23.0104 26.2128 23.154V23.4162C26.2128 23.5598 26.3315 23.6784 26.4751 23.6784C26.6187 23.6784 26.7373 23.5598 26.7373 23.4162V23.154C26.7373 23.0104 26.6187 22.8917 26.4751 22.8917ZM26.4751 21.5806C26.3315 21.5806 26.2128 21.6992 26.2128 21.8428V22.1051C26.2128 22.2486 26.3315 22.3673 26.4751 22.3673C26.6187 22.3673 26.7373 22.2486 26.7373 22.1051V21.8428C26.7373 21.6992 26.6187 21.5806 26.4751 21.5806ZM26.4751 20.2695C26.3315 20.2695 26.2128 20.3881 26.2128 20.5317V20.7939C26.2128 20.9375 26.3315 21.0561 26.4751 21.0561C26.6187 21.0561 26.7373 20.9375 26.7373 20.7939V20.5317C26.7373 20.3881 26.6187 20.2695 26.4751 20.2695ZM30.4022 20.5317H28.3044C28.1608 20.5317 28.0422 20.6503 28.0422 20.7939V21.8428C28.0422 21.9864 28.1608 22.1051 28.3044 22.1051H30.4022C30.5458 22.1051 30.6644 21.9864 30.6644 21.8428V20.7939C30.6644 20.6503 30.552 20.5317 30.4022 20.5317ZM30.14 21.5806H28.5666V21.0561H30.14V21.5806ZM30.4022 20.5317H28.3044C28.1608 20.5317 28.0422 20.6503 28.0422 20.7939V21.8428C28.0422 21.9864 28.1608 22.1051 28.3044 22.1051H30.4022C30.5458 22.1051 30.6644 21.9864 30.6644 21.8428V20.7939C30.6644 20.6503 30.552 20.5317 30.4022 20.5317ZM30.14 21.5806H28.5666V21.0561H30.14V21.5806Z" fill="black" style="fill:black;fill-opacity:1;"/>
<path d="M17.7801 0C14.9018 0 12.5605 2.3413 12.5605 5.21954C12.5605 8.09778 14.9018 10.4391 17.7801 10.4391C20.6583 10.4391 22.9996 8.09778 22.9996 5.21954C22.9996 2.3413 20.6521 0 17.7801 0ZM17.7801 9.68363C15.3139 9.68363 13.3098 7.67947 13.3098 5.2133C13.3098 2.74713 15.3139 0.742973 17.7801 0.742973C20.2463 0.742973 22.2504 2.74713 22.2504 5.2133C22.2442 7.67947 20.24 9.68363 17.7801 9.68363Z" fill="#DC2626" style="fill:#DC2626;fill:color(display-p3 0.8627 0.1490 0.1490);fill-opacity:1;"/>
<path d="M20.3092 3.90839H19.0854V2.68467C19.0854 2.47863 18.9169 2.31006 18.7108 2.31006H16.844C16.638 2.31006 16.4694 2.47863 16.4694 2.68467V3.90839H15.2457C15.0397 3.90839 14.8711 4.07696 14.8711 4.283V6.14979C14.8711 6.35583 15.0397 6.5244 15.2457 6.5244H16.4694V7.74812C16.4694 7.95416 16.638 8.12273 16.844 8.12273H18.7108C18.9169 8.12273 19.0854 7.95416 19.0854 7.74812V6.5244H20.3092C20.5152 6.5244 20.6838 6.35583 20.6838 6.14979V4.283C20.6838 4.07696 20.5152 3.90839 20.3092 3.90839ZM19.9345 5.77519H18.7108C18.5048 5.77519 18.3362 5.94376 18.3362 6.14979V7.37352H17.2186V6.14979C17.2186 5.94376 17.0501 5.77519 16.844 5.77519H15.6203V4.6576H16.844C17.0501 4.6576 17.2186 4.48903 17.2186 4.283V3.05928H18.3362V4.283C18.3362 4.48903 18.5048 4.6576 18.7108 4.6576H19.9345V5.77519Z" fill="#DC2626" style="fill:#DC2626;fill:color(display-p3 0.8627 0.1490 0.1490);fill-opacity:1;"/>
<path d="M24.8164 29.4567L24.2108 26.4599L24.0735 25.7793L23.9923 25.3673C23.9736 25.2611 23.9424 25.1612 23.9111 25.0676L23.8112 24.9365L23.4179 24.412H22.8685V23.9375C22.8498 23.9313 22.8373 23.9188 22.8185 23.9125L22.344 23.7065L20.446 22.8761L20.2525 22.7887L20.1963 22.7637C20.19 22.7637 20.1838 22.7575 20.1775 22.7575L19.7592 22.6014L19.7218 22.5889L19.4783 22.4953C19.4533 22.489 19.4283 22.4828 19.3971 22.4828C19.3846 22.4828 19.3659 22.4765 19.3534 22.4765C19.3284 22.4703 19.2972 22.4703 19.2722 22.464C19.2473 22.4578 19.2223 22.4578 19.1973 22.4516C19.0974 22.4391 18.9975 22.4266 18.8976 22.4203L18.9289 21.3902L18.9226 21.4214V21.3902L18.9289 21.3839V21.284C18.985 21.2341 19.035 21.1779 19.0912 21.1217C19.1162 21.0967 19.1474 21.0655 19.1723 21.0405C19.1848 21.0281 19.1973 21.0156 19.2098 21.0031C19.241 20.9719 19.2722 20.9344 19.3035 20.9032C19.3971 20.8033 19.4845 20.7034 19.5657 20.5972C19.5907 20.566 19.6156 20.5348 19.6406 20.5036C19.7592 20.3538 19.8716 20.2039 19.9653 20.0666C19.9965 20.0229 20.0215 19.9791 20.0464 19.9417C20.2525 19.5296 20.4086 19.0676 20.5022 18.5806C20.958 18.3933 21.2826 17.9375 21.2826 17.4256C21.2826 17.1821 21.2077 16.9448 21.0766 16.7388C21.395 14.6472 20.6833 12.5432 19.3159 11.5817C18.4793 10.9948 17.0496 10.5515 14.9393 11.7065C14.0527 11.4256 13.4658 11.6753 13.1287 11.9438C12.3919 12.5307 12.1422 13.6982 12.086 14.7658C12.0298 13.6608 11.599 12.6306 10.881 11.8689L11.6177 10.6639C11.6739 10.5702 11.6864 10.4516 11.6552 10.3455C11.6177 10.2393 11.5366 10.1582 11.4367 10.1145L8.34616 8.9282C8.25875 8.89698 8.1651 8.89698 8.07769 8.9282L4.98717 10.1145C4.88104 10.1519 4.79987 10.2393 4.76865 10.3455C4.73119 10.4516 4.74368 10.564 4.80611 10.6639L5.55533 11.8626C4.8623 12.5994 4.44399 13.5796 4.36283 14.6472C4.3441 14.6909 4.33785 14.7346 4.33785 14.7783C4.33785 14.8657 4.33785 14.9532 4.35034 15.0343C4.35034 15.5962 4.45024 16.1457 4.63754 16.6639V18.8428C4.63754 19.1737 4.79987 19.4672 5.05585 19.6545L3.48874 20.335C2.98926 20.5535 2.65211 20.9719 2.54598 21.5026L1.92163 24.618C1.89665 24.7304 1.92787 24.8428 1.99655 24.9302C2.06523 25.0176 2.17137 25.0676 2.28375 25.0676H9.35761C9.32639 25.1675 9.29517 25.2674 9.27644 25.3673L8.4523 29.4567C8.43357 29.5691 8.45855 29.6815 8.52722 29.7689C8.5959 29.8563 8.70204 29.9063 8.81442 29.9063H24.4543C24.5667 29.9063 24.6728 29.8563 24.7415 29.7689C24.8102 29.6753 24.8414 29.5629 24.8164 29.4567ZM13.6157 12.5244C13.7842 12.3933 13.9778 12.3246 14.215 12.3246C14.4086 12.3246 14.6271 12.3684 14.8643 12.462C14.9705 12.4995 15.0891 12.4932 15.1828 12.437C16.65 11.5942 17.9361 11.5068 18.9039 12.1935C20.0277 12.9865 20.6146 14.7409 20.3711 16.5265C20.2712 16.539 20.1713 16.5327 20.1089 16.4828C20.0652 16.4453 19.9153 16.2768 19.9528 15.6462C19.959 15.5276 19.9091 15.4089 19.8154 15.334C19.7218 15.2591 19.5969 15.2279 19.4845 15.2591C17.343 15.8272 15.7634 15.4089 14.6583 13.9854C14.5647 13.8605 14.3961 13.8106 14.2525 13.8605C14.1026 13.9105 13.9965 14.0416 13.9903 14.1977C13.9278 15.4526 13.6032 16.1144 12.8914 16.3704C12.7416 14.8345 12.8977 13.0926 13.6157 12.5244ZM12.7728 17.1758C14.0152 16.9261 14.471 16.0021 14.6396 15.078C15.7946 16.1457 17.3305 16.4828 19.2036 16.0957C19.241 16.5452 19.3846 16.8699 19.6406 17.0697C19.8154 17.207 20.0339 17.2757 20.2837 17.2757C20.3586 17.2757 20.4398 17.2695 20.5272 17.257C20.5459 17.3069 20.5584 17.3631 20.5584 17.4193C20.5584 17.6628 20.3773 17.8751 20.1338 17.9126C19.9715 17.9375 19.8466 18.0686 19.8217 18.231C19.6656 19.3548 19.1286 20.2913 18.3857 20.8657C18.3545 20.8845 18.3295 20.9032 18.3107 20.9219C17.8175 21.2778 17.2494 21.4838 16.6375 21.4838C16.0319 21.4838 15.4575 21.2778 14.9705 20.9282C14.9455 20.9032 14.9205 20.8844 14.8956 20.872C14.1526 20.2976 13.6094 19.3548 13.4533 18.231C13.4284 18.0686 13.3035 17.9375 13.1412 17.9126C12.9039 17.8751 12.7166 17.6628 12.7166 17.4193C12.7104 17.3319 12.7291 17.2507 12.7728 17.1758ZM18.2233 21.8459L18.1859 22.3704V22.4016C17.624 23.0197 17.087 23.3319 16.5813 23.3256C16.0943 23.3194 15.5886 23.0135 15.0766 22.4141V21.8772C15.5574 22.1144 16.0818 22.2455 16.6313 22.2455C17.1807 22.2455 17.7114 22.1144 18.1859 21.8772C18.1984 21.8647 18.2109 21.8584 18.2233 21.8459ZM11.8238 18.8366V16.6639C11.9611 16.283 12.0485 15.8834 12.086 15.4714C12.0922 16.0021 12.136 16.4516 12.1672 16.7263C12.0298 16.9323 11.9549 17.1696 11.9549 17.4193C11.9549 17.9313 12.2733 18.3871 12.7353 18.5744C12.9538 19.7419 13.5345 20.7284 14.3212 21.3839V22.283L14.0902 22.3704L13.9153 21.4963C13.8092 20.9594 13.4721 20.5473 12.9726 20.3288L11.4055 19.6482C11.6614 19.4672 11.8238 19.1737 11.8238 18.8366ZM11.3118 14.385C10.2629 14.1415 9.88206 13.6857 9.80714 12.6805C9.88206 12.6993 9.95074 12.718 10.0257 12.743C10.0631 12.7554 10.1006 12.7617 10.138 12.7617C10.2629 12.7617 10.3878 12.693 10.4565 12.5806L10.4877 12.5244C10.9185 13.0489 11.2057 13.692 11.3118 14.385ZM8.22754 9.67742L10.7624 10.6514L10.1006 11.7253L9.96322 11.95C9.49496 11.8252 9.02046 11.7565 8.53347 11.7378C8.57717 11.6753 8.5959 11.6066 8.5959 11.5255V11.2008H8.92056C9.1266 11.2008 9.29517 11.0322 9.29517 10.8262C9.29517 10.6202 9.1266 10.4516 8.92056 10.4516H8.5959V10.1269C8.5959 9.92091 8.42733 9.75234 8.22129 9.75234C8.01526 9.75234 7.84668 9.92091 7.84668 10.1269V10.4516H7.52202C7.31599 10.4516 7.14742 10.6202 7.14742 10.8262C7.14742 11.0322 7.31599 11.2008 7.52202 11.2008H7.84668V11.5255C7.84668 11.6066 7.87166 11.6753 7.91536 11.7378C7.44086 11.7627 6.96636 11.8314 6.48561 11.95L6.34825 11.719L5.68644 10.6452L8.22754 9.67742ZM5.96116 12.5307L5.99237 12.5869C6.07978 12.7305 6.2546 12.7992 6.41693 12.7492C7.32223 12.4932 8.21505 12.4245 9.07665 12.5369C8.15262 14.0416 6.8727 14.4037 5.13702 14.41C5.24316 13.7045 5.53036 13.0551 5.96116 12.5307ZM9.22649 13.6046C9.58237 14.6098 10.4128 14.9781 11.3305 15.1592C11.2619 15.6337 11.0184 16.0208 10.6188 16.3142C10.5564 16.3642 10.5064 16.4266 10.4814 16.5015C10.1256 17.6191 9.21401 18.3621 8.22129 18.3621C7.22234 18.3621 6.31703 17.6066 5.96116 16.4828C5.93618 16.4079 5.89248 16.3392 5.83004 16.2955C5.43046 16.0021 5.19321 15.6212 5.11204 15.1592C6.79778 15.1592 8.17135 14.8408 9.22649 13.6046ZM11.0746 17.0572V18.8366C11.0746 18.9739 10.9622 19.0863 10.8248 19.0863H10.0694L10.0756 18.4183C10.4939 18.0749 10.8436 17.6066 11.0746 17.0572ZM9.32015 18.8865V19.2299C8.92681 19.6607 8.5522 19.8793 8.20256 19.8793H8.19008C7.85293 19.873 7.49705 19.6607 7.13493 19.2424V18.8928C7.47832 19.0426 7.84668 19.1175 8.22754 19.1175C8.60839 19.1113 8.97675 19.0301 9.32015 18.8865ZM6.38571 18.4308V19.0926H5.63025C5.4929 19.0926 5.38051 18.9802 5.38051 18.8428V17.0634C5.61152 17.6129 5.96116 18.0811 6.38571 18.4308ZM2.73328 24.3121L3.27022 21.6462C3.32641 21.3527 3.50747 21.1342 3.77594 21.0156L5.76761 20.1477L6.5855 19.8355H6.66667C7.14742 20.3475 7.65314 20.616 8.17759 20.6222C8.71453 20.6285 9.25147 20.3662 9.77592 19.8355H9.86333L10.6875 20.1477L12.6791 21.0156C12.9538 21.1342 13.1287 21.3527 13.1911 21.6462L13.3909 22.6389L13.085 22.7512C13.0787 22.7512 13.0725 22.7575 13.0662 22.7575L10.4377 23.9125C10.2067 24.0124 10.0007 24.1498 9.83211 24.3121H2.73328ZM9.26395 29.1508L9.99444 25.5046C10.0818 25.0801 10.3316 24.7679 10.7312 24.5931L13.01 23.6004C12.9913 23.744 12.9851 23.8938 12.9851 24.0374C12.9851 24.618 13.1224 25.1862 13.3846 25.6982C13.2535 25.898 13.1786 26.1415 13.1786 26.3974C13.1786 27.1029 13.753 27.6836 14.4648 27.6836C15.1765 27.6836 15.7509 27.1092 15.7509 26.3974C15.7509 25.6919 15.1765 25.1113 14.4648 25.1113C14.2962 25.1113 14.1339 25.1425 13.984 25.2049C13.8217 24.8366 13.7405 24.4432 13.7405 24.0374C13.7405 23.7752 13.778 23.513 13.8467 23.2632L14.5896 22.9823C15.2202 23.6878 15.8883 24.0561 16.5688 24.0686C17.2681 24.0811 17.9736 23.7127 18.6666 22.9823L19.4158 23.2695C19.4408 23.3569 19.4595 23.4505 19.4783 23.5379C19.2285 23.4755 18.9601 23.513 18.7353 23.6441C18.4981 23.7814 18.3295 23.9999 18.2608 24.2559L17.6052 26.6722C17.4554 27.2091 17.7801 27.771 18.317 27.9208C18.5168 27.977 18.7228 27.8584 18.779 27.6586C18.8352 27.4588 18.7166 27.2528 18.5168 27.1966C18.3732 27.1591 18.292 27.0093 18.3295 26.8719L18.985 24.4557C19.0038 24.387 19.0475 24.3308 19.1099 24.2934C19.1723 24.2559 19.2473 24.2497 19.3097 24.2684L19.728 24.3808L19.7655 24.3933L20.2837 24.5369C20.3586 24.5556 20.4148 24.6056 20.446 24.668C20.4772 24.7242 20.4897 24.7991 20.471 24.8678L20.4523 24.9365L20.446 24.9614L20.0402 26.4599L19.8154 27.2903C19.7967 27.3589 19.753 27.4151 19.6906 27.4526C19.6281 27.49 19.5594 27.4963 19.4908 27.4776C19.291 27.4214 19.0849 27.54 19.0287 27.7398C18.9726 27.9396 19.0912 28.1456 19.291 28.2018C19.3784 28.2268 19.472 28.2393 19.5594 28.2393C19.7343 28.2393 19.9091 28.1956 20.0652 28.1019C20.3024 27.9646 20.471 27.7523 20.5397 27.49L20.8144 26.4724L21.0017 25.7918L21.1952 25.0801C21.2077 25.0364 21.214 24.9927 21.2202 24.949C21.2452 24.7679 21.2202 24.5868 21.1515 24.4245C21.0329 24.1435 20.7956 23.9188 20.4772 23.8314L20.446 23.8251L20.2587 23.7752C20.2587 23.7564 20.2587 23.7377 20.2525 23.719C20.2525 23.6878 20.2462 23.6566 20.24 23.6253L20.2525 23.6316L20.446 23.719L22.088 24.4307L22.5251 24.6243C22.7124 24.7055 22.8685 24.8178 22.9871 24.9552C23.1245 25.1175 23.2181 25.3111 23.2618 25.5358L23.318 25.7981L23.4554 26.4786L23.9986 29.1758H9.26395V29.1508ZM13.9278 26.3974C13.9278 26.104 14.1651 25.8605 14.4648 25.8605C14.7582 25.8605 15.0017 26.0977 15.0017 26.3974C15.0017 26.6971 14.7645 26.9344 14.4648 26.9344C14.1713 26.9344 13.9278 26.6971 13.9278 26.3974Z" fill="black" style="fill:black;fill-opacity:1;"/>
<path d="M25.4199 19.6572V24.209H23.0596V22.8984C23.0596 22.773 22.9692 22.6665 22.8506 22.6416L22.7979 22.6357C22.6543 22.6357 22.5352 22.7548 22.5352 22.8984V24.209H22.2734L22.71 24.4023C22.8971 24.4835 23.0533 24.5962 23.1719 24.7334H32.7627C32.8883 24.7332 32.9951 24.6424 33.0195 24.5234L33.0244 24.4717V21.543C33.0243 19.9635 31.9382 18.5959 30.4023 18.2275V12.4092C30.4023 10.5299 28.8724 9 26.9932 9V8.90039C28.9277 8.90039 30.502 10.4747 30.502 12.4092V18.1523C32.0416 18.558 33.1239 19.9434 33.124 21.543V24.4717C33.1238 24.6702 32.9612 24.8337 32.7627 24.834H23.127L23.0967 24.7988C22.9889 24.6741 22.8458 24.57 22.6709 24.4941L22.2324 24.3008L22.2734 24.1094H22.4355V22.8984C22.4355 22.6996 22.599 22.5361 22.7979 22.5361C22.9966 22.5362 23.1602 22.6997 23.1602 22.8984V24.1094H25.3203V19.7275L22.7715 18.8174L22.7676 18.8193C21.4717 19.0846 20.5381 20.224 20.5381 21.5498L20.5127 23.002C20.5123 23.1171 20.4735 23.2178 20.3721 23.2578C20.2878 23.2908 20.1941 23.2648 20.1289 23.2393C20.0577 23.2113 19.9888 23.1705 19.9395 23.1387C19.916 23.1235 19.8963 23.1097 19.8818 23.0996H19.8135V21.543C19.8198 19.944 20.8958 18.5582 22.4355 18.1523V12.4092C22.4355 10.4683 24.01 8.90041 25.9443 8.90039V9C24.0651 9.00001 22.5352 10.5237 22.5352 12.4092V18.2275C20.9994 18.596 19.9194 19.9635 19.9131 21.543V23L19.9258 22.3926C19.9319 22.3926 19.9323 22.3922 19.9385 22.3984L19.9629 22.4111C19.9691 22.4111 19.9758 22.417 19.9883 22.417L19.9131 23C19.9193 23 20.4131 23.3899 20.4131 23V22.998L20.4375 21.5498C20.4375 20.262 21.2884 19.1441 22.501 18.7832L22.748 18.7207L22.7793 18.7148L25.4199 19.6572ZM26.999 19.7451V24.2031H25.9502V19.7451H26.999ZM32.3936 21.543C32.3935 20.2176 31.4603 19.0782 30.165 18.8125L27.6182 19.7393V24.1025H29.7773V22.8916C29.7774 22.6929 29.941 22.5295 30.1396 22.5293C30.3384 22.5293 30.5019 22.6928 30.502 22.8916V24.1025H32.3936V21.543ZM26.0508 24.1025H26.8994V19.8447H26.0508V24.1025ZM26.7373 23.1543C26.7373 23.0107 26.6182 22.8916 26.4746 22.8916C26.3312 22.8918 26.2129 23.0108 26.2129 23.1543V23.416L26.2178 23.4707C26.238 23.5751 26.3165 23.6527 26.4209 23.6729L26.4746 23.6787C26.6002 23.6787 26.7067 23.5876 26.7314 23.4688L26.7373 23.416V23.1543ZM20.4004 22.5791C20.4066 22.5792 20.4128 22.5859 20.4189 22.5859L20.4131 22.998L20.3672 22.7197C20.3797 22.7774 20.3847 22.7797 20.3564 22.5605L20.4004 22.5791ZM26.7373 21.8428C26.7373 21.6992 26.6182 21.5811 26.4746 21.5811C26.3312 21.5813 26.2129 21.6993 26.2129 21.8428V22.1055L26.2178 22.1592C26.2412 22.281 26.3436 22.367 26.4746 22.3672C26.6003 22.3672 26.7069 22.2762 26.7314 22.1572L26.7373 22.1055V21.8428ZM27.9922 21.8428V20.7939C27.9922 20.6227 28.1335 20.4814 28.3047 20.4814V20.5312C28.1611 20.5312 28.042 20.6503 28.042 20.7939V21.8428C28.042 21.9684 28.133 22.075 28.252 22.0996L28.3047 22.1055H30.4023C30.5459 22.1054 30.6641 21.9863 30.6641 21.8428V20.7939C30.6641 20.6682 30.5782 20.5616 30.4561 20.5371L30.4023 20.5312V20.4814C30.5805 20.4815 30.7148 20.6236 30.7148 20.7939V21.8428C30.7148 22.0139 30.5735 22.1552 30.4023 22.1553H28.3047C28.1335 22.1553 27.9922 22.014 27.9922 21.8428ZM30.1396 21.0557V21.5811H28.5664V21.0557H30.1396ZM28.6162 21.5303H30.0898V21.1064H28.6162V21.5303ZM26.7373 20.5312C26.7371 20.3879 26.6181 20.2695 26.4746 20.2695C26.3314 20.2698 26.2131 20.388 26.2129 20.5312V20.7939L26.2178 20.8486C26.2414 20.9702 26.3438 21.0555 26.4746 21.0557C26.6001 21.0557 26.7066 20.9654 26.7314 20.8467L26.7373 20.7939V20.5312ZM30.4023 20.4814V20.5312H28.3047V20.4814H30.4023ZM29.7842 12.4092C29.7842 10.8723 28.5359 9.62402 26.999 9.62402H25.9502C24.4135 9.62425 23.166 10.8725 23.166 12.4092V18.1758L25.8057 19.1201H27.1963L29.7842 18.1826V12.4092ZM29.3594 14.9502V13.1943C29.3586 12.9908 29.3277 12.7872 29.2783 12.5898L29.2725 12.5654C29.0091 11.6056 28.1749 10.9252 27.1973 10.8438L26.999 10.8359V10.7852C28.0828 10.7852 29.0333 11.506 29.3203 12.5518L29.3242 12.5654H29.3721C29.372 12.5642 29.372 12.5602 29.3711 12.5557C29.3698 12.5491 29.3682 12.5449 29.3682 12.5449L29.373 12.5547L29.375 12.5654C29.4264 12.7712 29.46 12.9862 29.46 13.2021H29.4092V14.9502C29.4091 16.5818 28.1139 17.915 26.4824 17.9658H26.4746C26.3138 17.9658 26.1537 17.9479 25.9941 17.9199C25.9583 17.9849 25.919 18.043 25.8672 18.0947L25.8662 18.0957C25.676 18.2728 25.4262 18.3717 25.1631 18.3652C24.7698 18.3523 24.3946 18.1907 24.123 17.9062C23.6527 17.4292 23.5301 16.7515 23.8389 16.3008C23.6442 15.9075 23.541 15.4725 23.541 15.0312V13.1943C23.5473 12.9877 23.5717 12.7796 23.6279 12.5771V12.5508H23.6299C23.9232 11.5124 24.8664 10.7853 25.9502 10.7852V10.8359C24.889 10.8361 23.9649 11.5479 23.6777 12.5654V12.584C23.6216 12.7836 23.5971 12.9895 23.5908 13.1953V15.0312L23.5957 15.1973C23.6188 15.5831 23.7217 15.9606 23.8965 16.3047C23.5843 16.7292 23.6909 17.3976 24.1592 17.8721C24.4214 18.1466 24.7833 18.3029 25.1641 18.3154C25.3825 18.3209 25.5916 18.2499 25.7617 18.1191L25.832 18.0596C25.8882 18.0034 25.9323 17.941 25.9697 17.8662C26.054 17.8818 26.1384 17.8938 26.2227 17.9023L26.4746 17.916H26.4814C27.9857 17.8691 29.199 16.7134 29.3447 15.2471L29.3594 14.9502ZM24.6396 16.4609C24.8831 16.4735 25.1082 16.5797 25.2705 16.7607C25.57 17.0604 25.6568 17.4786 25.457 17.6846C25.2572 17.8842 24.8328 17.8029 24.5332 17.4971C24.2337 17.1912 24.1461 16.773 24.3457 16.5732C24.4269 16.4983 24.5335 16.4609 24.6396 16.4609ZM24.6377 16.5107C24.5441 16.5112 24.4515 16.5446 24.3809 16.6094C24.2975 16.6933 24.2695 16.8277 24.3018 16.9854C24.3339 17.1426 24.4254 17.315 24.5693 17.4619C24.7128 17.6084 24.8851 17.7 25.043 17.7314C25.2014 17.7629 25.3379 17.7333 25.4219 17.6494L25.4746 17.5752C25.5166 17.4925 25.5261 17.3857 25.502 17.2676C25.4697 17.1105 25.378 16.9395 25.2344 16.7959L25.2324 16.7939C25.0793 16.6233 24.8677 16.5227 24.6377 16.5107ZM26.9248 14.7998C27.0559 14.9309 27.225 15.0097 27.4033 15.0273L27.4805 15.0312H28.8291L28.8105 15.2686C28.6616 16.437 27.6802 17.3497 26.4746 17.3848C26.3438 17.3785 26.2129 17.3663 26.082 17.3477C26.0633 16.9855 25.9068 16.6355 25.6445 16.3857C25.3074 16.0238 24.8019 15.8684 24.3213 15.9932C24.1839 15.6935 24.1152 15.3621 24.1152 15.0312H25.4639L25.54 15.0273C25.693 15.0124 25.8396 14.9529 25.9609 14.8535L26.0195 14.7998L26.4746 14.3506L26.9248 14.7998ZM26.0547 14.8359C25.8955 14.995 25.6829 15.081 25.4639 15.0811H24.168C24.1742 15.3752 24.2346 15.6674 24.3516 15.9355C24.8377 15.8257 25.3424 15.9872 25.6816 16.3516C25.9419 16.6003 26.0979 16.9436 26.127 17.3018C26.2429 17.3172 26.3587 17.3284 26.4746 17.334C27.7165 17.2973 28.7131 16.3105 28.7754 15.0811H27.4805C27.2614 15.0811 27.0489 14.9949 26.8896 14.8359L26.4746 14.4209L26.0547 14.8359ZM26.0713 13.9404C26.2911 13.7145 26.6539 13.7155 26.8789 13.9404L27.3281 14.3906C27.3698 14.4322 27.4266 14.457 27.4805 14.457V14.5068C27.429 14.5068 27.3776 14.4888 27.334 14.459L27.293 14.4258L26.8438 13.9756C26.6377 13.7697 26.3062 13.7697 26.1064 13.9756L25.6514 14.4258C25.6139 14.4633 25.5653 14.4899 25.5146 14.501L25.4639 14.5068V14.457C25.5177 14.457 25.5746 14.4313 25.6162 14.3896L26.0713 13.9404ZM28.7793 13.1953C28.7793 13.1247 28.774 13.0541 28.7656 12.9834H24.1787C24.1703 13.0541 24.1651 13.1247 24.165 13.1953V14.457H25.4639V14.5068H24.1152V13.1953C24.1152 13.1081 24.1213 13.0208 24.1338 12.9336H28.8105C28.823 13.0208 28.8291 13.1081 28.8291 13.1953V14.5068H27.4805V14.457H28.7793V13.1953ZM27.1309 11.3652C27.7847 11.4128 28.3733 11.8121 28.6543 12.4092H24.29C24.5769 11.8062 25.16 11.4121 25.8184 11.3652L25.9502 11.3604H26.999L27.1309 11.3652ZM25.9502 11.4102C25.2847 11.4103 24.6821 11.7755 24.3721 12.3594H28.5723C28.2671 11.7808 27.6585 11.4102 26.999 11.4102H25.9502ZM26.999 10.7852V10.8359H25.9502V10.7852H26.999ZM26.9932 8.90039V9H25.9443V8.90039H26.9932ZM26.7871 23.416C26.7871 23.5872 26.6458 23.7285 26.4746 23.7285V23.7783C26.2698 23.7781 26.1133 23.6209 26.1133 23.416H26.1631V23.1543C26.1631 22.9832 26.3036 22.842 26.4746 22.8418C26.6458 22.8418 26.7871 22.9831 26.7871 23.1543V23.416ZM26.7871 22.1055C26.7869 22.2765 26.6457 22.417 26.4746 22.417V22.4668C26.2699 22.4666 26.1135 22.3102 26.1133 22.1055H26.1631V21.8428C26.1631 21.6717 26.3036 21.5305 26.4746 21.5303C26.6458 21.5303 26.7871 21.6716 26.7871 21.8428V22.1055ZM32.4941 24.2031H30.4023V22.8916C30.4023 22.766 30.3113 22.6594 30.1924 22.6348L30.1396 22.6299C29.9962 22.6301 29.878 22.7482 29.8779 22.8916V24.2031H27.5176V19.6699L30.1592 18.709L30.1836 18.7148C31.5259 18.9895 32.4941 20.1695 32.4941 21.543V24.2031ZM26.7871 20.7939C26.7871 20.9651 26.6458 21.1064 26.4746 21.1064V21.1562C26.2698 21.156 26.1133 20.9989 26.1133 20.7939H26.1631V20.5312C26.1633 20.3604 26.3037 20.22 26.4746 20.2197C26.6457 20.2197 26.7869 20.3602 26.7871 20.5312V20.7939ZM29.8838 18.2529L27.2119 19.2207H25.7881L23.0664 18.2471V12.4092C23.0664 10.8172 24.3583 9.52464 25.9502 9.52441H26.999C28.5911 9.52441 29.8838 10.8171 29.8838 12.4092V18.2529Z" fill="black" style="fill:black;fill-opacity:1;"/>
</g>
</svg>
