<svg width="238" height="206" viewBox="0 0 238 206" fill="none" xmlns="http://www.w3.org/2000/svg">
<path d="M69.6787 30.235C50.1637 46.3682 25.7806 77.3661 25.7806 77.3661C25.7806 77.3661 0.886751 114.329 3.65421 138.804C6.8721 167.263 29.1551 179.334 55.6558 192.811C88.9322 209.733 115.448 207.01 152.063 198.378C187.316 190.068 218.983 185.545 232.11 153.28C239.781 134.427 237.597 121.035 232.11 101.501C225.663 78.5454 214.045 68.175 197.637 50.2787C175.688 26.3376 163.217 1.24422 129.86 0.72645C103.432 0.316236 89.6435 13.7299 69.6787 30.235Z" fill="#DC2626" fill-opacity="0.36" style="fill:#DC2626;fill:color(display-p3 0.8627 0.1490 0.1490);fill-opacity:0.36;"/>
<mask id="mask0_263_59" style="mask-type:alpha" maskUnits="userSpaceOnUse" x="3" y="0" width="235" height="206">
<path d="M69.6787 30.235C50.1637 46.3682 25.7806 77.3661 25.7806 77.3661C25.7806 77.3661 0.886751 114.329 3.65421 138.804C6.8721 167.263 29.1551 179.334 55.6558 192.811C88.9322 209.733 115.448 207.01 152.063 198.378C187.316 190.068 218.983 185.545 232.11 153.28C239.781 134.427 237.597 121.035 232.11 101.501C225.663 78.5454 214.045 68.175 197.637 50.2787C175.688 26.3376 163.217 1.24422 129.86 0.72645C103.432 0.316236 89.6435 13.7299 69.6787 30.235Z" fill="#DC2626" style="fill:#DC2626;fill:color(display-p3 0.8627 0.1490 0.1490);fill-opacity:1;"/>
</mask>
<g mask="url(#mask0_263_59)">
<path d="M196.706 195.775H116.029C111.958 195.775 108.657 192.472 108.657 188.399V38.4354C108.657 34.3617 111.957 31.0593 116.029 31.0593H196.706C200.777 31.0593 204.077 34.3617 204.077 38.4354V188.399C204.077 192.472 200.777 195.775 196.706 195.775Z" fill="#303033" style="fill:#303033;fill:color(display-p3 0.1868 0.1878 0.2003);fill-opacity:1;"/>
<path d="M193.916 191.459H118.818C115.439 191.459 112.7 188.718 112.7 185.336V41.4982C112.7 38.1167 115.439 35.3755 118.818 35.3755H193.916C197.295 35.3755 200.035 38.1167 200.035 41.4982V185.336C200.035 188.718 197.296 191.459 193.916 191.459Z" fill="#F5F9FF" style="fill:#F5F9FF;fill:color(display-p3 0.9626 0.9782 1.0000);fill-opacity:1;"/>
<path d="M181.971 191.458L200.035 151.754V70.4763L144.992 191.458H181.971Z" fill="#DAE9FF" style="fill:#DAE9FF;fill:color(display-p3 0.8558 0.9146 1.0000);fill-opacity:1;"/>
<path d="M198.379 37.3112C197.262 36.1204 195.677 35.3755 193.916 35.3755H176.148L112.7 174.831V185.336C112.7 188.718 115.439 191.459 118.819 191.459H128.246L198.379 37.3112Z" fill="#DAE9FF" style="fill:#DAE9FF;fill:color(display-p3 0.8558 0.9146 1.0000);fill-opacity:1;"/>
<path d="M112.7 49.7517V131.029L156.219 35.3755H119.24L112.7 49.7517Z" fill="#DAE9FF" style="fill:#DAE9FF;fill:color(display-p3 0.8558 0.9146 1.0000);fill-opacity:1;"/>
<path d="M180.206 54.197H112.7V176.056H180.206C184.436 176.056 187.865 172.625 187.865 168.393V61.8606C187.865 57.6281 184.436 54.197 180.206 54.197Z" fill="#94C0FF" style="fill:#94C0FF;fill:color(display-p3 0.5804 0.7529 1.0000);fill-opacity:1;"/>
<path d="M152 176.056H180.206C184.436 176.056 187.865 172.625 187.865 168.393V97.2271L152 176.056ZM135.254 176.056L187.767 60.6368C187.181 56.9861 184.019 54.197 180.206 54.197H167.585L112.7 174.831V176.056L135.254 176.056Z" fill="#A6CBFF" style="fill:#A6CBFF;fill:color(display-p3 0.6510 0.7961 1.0000);fill-opacity:1;"/>
<path d="M193.916 191.7H118.818C115.311 191.7 112.458 188.845 112.458 185.336V41.4978C112.458 37.9885 115.311 35.1335 118.818 35.1335H193.916C197.423 35.1335 200.276 37.9885 200.276 41.4978V185.336C200.276 188.845 197.423 191.7 193.916 191.7ZM118.818 35.6166C115.577 35.6166 112.941 38.2549 112.941 41.4978V185.336C112.941 188.579 115.577 191.217 118.818 191.217H193.916C197.157 191.217 199.793 188.579 199.793 185.336V41.4978C199.793 38.2549 197.157 35.6166 193.916 35.6166H118.818Z" fill="white" style="fill:white;fill-opacity:1;"/>
<path d="M173.298 38.4332H139.436C137.36 38.4332 135.677 36.7489 135.677 34.6713V33.8855H177.057V34.6713C177.057 36.7489 175.374 38.4332 173.298 38.4332Z" fill="#3C3D3E" style="fill:#3C3D3E;fill:color(display-p3 0.2371 0.2375 0.2431);fill-opacity:1;"/>
<path d="M173.298 38.6745H139.437C137.516 38.6745 135.863 37.306 135.506 35.4206C135.481 35.2895 135.567 35.1631 135.698 35.1383C135.829 35.1134 135.955 35.1996 135.98 35.3306C136.294 36.9883 137.748 38.1914 139.437 38.1914H173.298C174.993 38.1914 176.447 36.9836 176.757 35.3195C176.781 35.1883 176.907 35.1017 177.038 35.1262C177.169 35.1506 177.256 35.2767 177.231 35.4079C176.879 37.3007 175.225 38.6745 173.298 38.6745Z" fill="white" style="fill:white;fill-opacity:1;"/>
<g filter="url(#filter0_d_263_59)">
<path d="M183.872 171.498H37.5147C33.2849 171.498 29.856 168.067 29.856 163.835V57.3027C29.856 53.0703 33.2849 49.6392 37.5147 49.6392H183.872C188.102 49.6392 191.531 53.0703 191.531 57.3027V163.835C191.531 168.067 188.102 171.498 183.872 171.498Z" fill="white" style="fill:white;fill-opacity:1;"/>
</g>
<path d="M73.0332 128.702C71.7281 132.114 66.049 160.305 63.8188 171.499H173.001C170.585 162.513 165.133 142.662 161.95 134.394C157.772 123.544 144.351 119.631 137.507 119.041C130.663 118.451 126.694 116.149 126.694 116.149L126.872 113.049C130.922 109.911 130.799 104.244 130.799 104.244C133.748 102.999 136.382 96.6842 136.56 94.4607C136.737 92.2373 135.014 89.6212 135.014 89.6212C137.645 80.4236 132.619 70.8919 131.24 69.6468C129.861 68.4016 127.22 67.9539 127.22 67.9539C127.22 67.9539 124.886 63.0758 116.759 62.5729C108.631 62.0701 101.776 65.4771 98.0238 68.5011C94.2712 71.525 95.4818 77.9758 95.4818 77.9758C95.0538 79.8123 95.2877 90.4784 95.2877 90.4784C94.3104 91.2097 94.6656 95.2612 95.3768 98.3805C96.0877 101.5 99.1633 104.945 99.1633 104.945C99.7562 108.563 103.141 113.049 103.141 113.049L103.538 116.149C103.538 116.149 103.538 116.149 100.51 116.655C89.7337 118.837 74.6671 124.433 73.0332 128.702Z" fill="#EDEDED" style="fill:#EDEDED;fill:color(display-p3 0.9294 0.9294 0.9294);fill-opacity:1;"/>
<path d="M60.1623 101.431H40.8339C39.3135 101.431 38.0811 100.198 38.0811 98.6766V82.8542C38.0811 81.3329 39.3136 80.0996 40.8339 80.0996H60.1623C61.6827 80.0996 62.9152 81.3329 62.9152 82.8542V98.6766C62.9152 100.198 61.6827 101.431 60.1623 101.431ZM90.437 101.431H71.1085C69.5881 101.431 68.3557 100.198 68.3557 98.6766V82.8542C68.3557 81.3329 69.5882 80.0996 71.1085 80.0996H90.437C91.9574 80.0996 93.1899 81.3329 93.1899 82.8542V98.6766C93.1899 100.198 91.9574 101.431 90.437 101.431Z" fill="#FD5D5D" fill-opacity="0.57" style="fill:#FD5D5D;fill:color(display-p3 0.9922 0.3647 0.3647);fill-opacity:0.57;"/>
<path d="M120.711 101.431H101.383C99.8624 101.431 98.6299 100.198 98.6299 98.6766V82.8542C98.6299 81.3329 99.8624 80.0996 101.383 80.0996H120.711C122.232 80.0996 123.464 81.3329 123.464 82.8542V98.6766C123.464 100.198 122.232 101.431 120.711 101.431Z" fill="#A6CFFF" style="fill:#A6CFFF;fill:color(display-p3 0.6510 0.8118 1.0000);fill-opacity:1;"/>
<path d="M60.1623 132.519H40.8339C39.3135 132.519 38.0811 131.286 38.0811 129.764V113.942C38.0811 112.421 39.3136 111.187 40.8339 111.187H60.1623C61.6827 111.187 62.9152 112.421 62.9152 113.942V129.764C62.9152 131.286 61.6827 132.519 60.1623 132.519ZM60.1623 163.606H40.8339C39.3135 163.606 38.0811 162.373 38.0811 160.852V145.029C38.0811 143.508 39.3136 142.275 40.8339 142.275H60.1623C61.6827 142.275 62.9152 143.508 62.9152 145.029V160.852C62.9152 162.373 61.6827 163.606 60.1623 163.606Z" fill="#FD5D5D" fill-opacity="0.57" style="fill:#FD5D5D;fill:color(display-p3 0.9922 0.3647 0.3647);fill-opacity:0.57;"/>
<path d="M120.711 163.606H101.383C99.8624 163.606 98.6299 162.373 98.6299 160.851V145.029C98.6299 143.508 99.8624 142.274 101.383 142.274H120.711C122.232 142.274 123.464 143.508 123.464 145.029V160.851C123.464 162.373 122.232 163.606 120.711 163.606ZM150.986 163.606H131.657C130.137 163.606 128.905 162.373 128.905 160.851V145.029C128.905 143.508 130.137 142.274 131.657 142.274H150.986C152.506 142.274 153.739 143.508 153.739 145.029V160.851C153.739 162.373 152.506 163.606 150.986 163.606Z" fill="#A6CFFF" style="fill:#A6CFFF;fill:color(display-p3 0.6510 0.8118 1.0000);fill-opacity:1;"/>
<path d="M181.261 101.431H161.933C160.412 101.431 159.18 100.198 159.18 98.6763V82.854C159.18 81.3326 160.412 80.0994 161.933 80.0994H181.261C182.781 80.0994 184.014 81.3327 184.014 82.854V98.6763C184.014 100.198 182.781 101.431 181.261 101.431ZM125.002 74.179H40.2993C39.0742 74.179 38.0811 73.1853 38.0811 71.9594V64.7428C38.0811 63.5169 39.0742 62.5232 40.2993 62.5232H125.002C126.227 62.5232 127.22 63.5169 127.22 64.7428V71.9594C127.22 73.1853 126.227 74.179 125.002 74.179Z" fill="#FD5D5D" fill-opacity="0.57" style="fill:#FD5D5D;fill:color(display-p3 0.9922 0.3647 0.3647);fill-opacity:0.57;"/>
<path d="M125.002 74.179C126.227 74.179 127.22 73.1851 127.22 71.9593V67.9537C127.219 67.951 124.883 63.0756 116.758 62.5729C108.631 62.0701 101.776 65.4771 98.0234 68.501C96.2073 69.9645 95.5549 72.2297 95.3643 74.179H125.002Z" fill="#FD5D5D" style="fill:#FD5D5D;fill:color(display-p3 0.9922 0.3647 0.3647);fill-opacity:1;"/>
<path d="M90.4368 132.519H71.1083C69.5879 132.519 68.3555 131.286 68.3555 129.764V113.942C68.3555 112.421 69.588 111.187 71.1083 111.187H90.4368C91.9571 111.187 93.1896 112.421 93.1896 113.942V129.764C93.1896 131.286 91.9571 132.519 90.4368 132.519Z" fill="#FD5D5D" fill-opacity="0.57" style="fill:#FD5D5D;fill:color(display-p3 0.9922 0.3647 0.3647);fill-opacity:0.57;"/>
<path d="M90.4364 132.518C91.957 132.518 93.1894 131.285 93.1894 129.764V118.475C83.9094 121.168 74.3176 125.345 73.0329 128.702C72.8058 129.296 72.4454 130.643 71.9946 132.518H90.4364V132.518Z" fill="#FD5D5D" style="fill:#FD5D5D;fill:color(display-p3 0.9922 0.3647 0.3647);fill-opacity:1;"/>
<path d="M120.711 132.519H101.383C99.8624 132.519 98.6299 131.286 98.6299 129.764V113.942C98.6299 112.421 99.8624 111.187 101.383 111.187H120.711C122.232 111.187 123.464 112.421 123.464 113.942V129.764C123.464 131.286 122.232 132.519 120.711 132.519Z" fill="#FEA3A3" style="fill:#FEA3A3;fill:color(display-p3 0.9961 0.6392 0.6392);fill-opacity:1;"/>
<path d="M101.383 132.519H120.711C122.232 132.519 123.464 131.286 123.464 129.764V113.942C123.464 112.42 122.232 111.187 120.711 111.187H101.879C102.582 112.309 103.14 113.049 103.14 113.049L103.537 116.149C103.537 116.149 103.537 116.149 100.51 116.655C99.8966 116.779 99.2676 116.916 98.6299 117.061V129.764C98.6299 131.286 99.8623 132.519 101.383 132.519Z" fill="#FD5D5D" style="fill:#FD5D5D;fill:color(display-p3 0.9922 0.3647 0.3647);fill-opacity:1;"/>
<path d="M150.987 132.519H131.658C130.138 132.519 128.905 131.286 128.905 129.764V113.942C128.905 112.421 130.138 111.187 131.658 111.187H150.987C152.507 111.187 153.739 112.421 153.739 113.942V129.764C153.739 131.286 152.507 132.519 150.987 132.519Z" fill="#FD5D5D" fill-opacity="0.57" style="fill:#FD5D5D;fill:color(display-p3 0.9922 0.3647 0.3647);fill-opacity:0.57;"/>
<path d="M131.658 132.518H150.986C152.507 132.518 153.739 131.285 153.739 129.764V124.627C148.269 120.993 141.672 119.399 137.507 119.041C133.674 118.71 130.742 117.843 128.905 117.143V129.764C128.905 131.285 130.138 132.518 131.658 132.518Z" fill="#FD5D5D" style="fill:#FD5D5D;fill:color(display-p3 0.9922 0.3647 0.3647);fill-opacity:1;"/>
<path d="M150.987 101.431H131.658C130.138 101.431 128.905 100.198 128.905 98.6766V82.8542C128.905 81.3329 130.138 80.0996 131.658 80.0996H150.987C152.507 80.0996 153.739 81.3329 153.739 82.8542V98.6766C153.739 100.198 152.507 101.431 150.987 101.431Z" fill="#FD5D5D" fill-opacity="0.57" style="fill:#FD5D5D;fill:color(display-p3 0.9922 0.3647 0.3647);fill-opacity:0.57;"/>
<path d="M128.905 82.8543V98.6767C128.905 100.198 130.138 101.431 131.658 101.431H133.71C135.301 99.0487 136.445 95.8994 136.56 94.461C136.738 92.2376 135.014 89.6215 135.014 89.6215C135.947 86.3608 135.915 83.0601 135.426 80.0996H131.658C130.138 80.0997 128.905 81.333 128.905 82.8543Z" fill="#FD5D5D" fill-opacity="0.57" style="fill:#FD5D5D;fill:color(display-p3 0.9922 0.3647 0.3647);fill-opacity:0.57;"/>
<path d="M181.261 163.606H161.933C160.412 163.606 159.18 162.373 159.18 160.851V145.029C159.18 143.508 160.412 142.274 161.933 142.274H181.261C182.781 142.274 184.014 143.508 184.014 145.029V160.851C184.014 162.373 182.781 163.606 181.261 163.606Z" fill="#FD5D5D" fill-opacity="0.57" style="fill:#FD5D5D;fill:color(display-p3 0.9922 0.3647 0.3647);fill-opacity:0.57;"/>
<path d="M164.635 142.275H161.932C160.412 142.275 159.18 143.508 159.18 145.03V160.852C159.18 162.373 160.412 163.607 161.932 163.607H170.85C169.01 156.947 166.694 148.802 164.635 142.275Z" fill="#FD5D5D" fill-opacity="0.57" style="fill:#FD5D5D;fill:color(display-p3 0.9922 0.3647 0.3647);fill-opacity:0.57;"/>
<path d="M90.4368 163.606H71.1083C69.5879 163.606 68.3555 162.373 68.3555 160.851V145.029C68.3555 143.508 69.588 142.274 71.1083 142.274H90.4368C91.9571 142.274 93.1896 143.508 93.1896 145.029V160.851C93.1896 162.373 91.9571 163.606 90.4368 163.606Z" fill="#FD5D5D" fill-opacity="0.57" style="fill:#FD5D5D;fill:color(display-p3 0.9922 0.3647 0.3647);fill-opacity:0.57;"/>
<path d="M71.1082 163.606H90.4365C91.9571 163.606 93.1895 162.373 93.1895 160.851V145.029C93.1895 143.508 91.9571 142.274 90.4365 142.274H71.1082C70.6071 142.274 70.1382 142.411 69.7333 142.645C69.287 144.733 68.8226 146.937 68.3555 149.179V160.851C68.3555 162.373 69.5878 163.606 71.1082 163.606Z" fill="#FD5D5D" fill-opacity="0.57" style="fill:#FD5D5D;fill:color(display-p3 0.9922 0.3647 0.3647);fill-opacity:0.57;"/>
<path d="M181.261 132.519H161.933C160.412 132.519 159.18 131.286 159.18 129.764V113.942C159.18 112.421 160.412 111.187 161.933 111.187H181.261C182.781 111.187 184.014 112.421 184.014 113.942V129.764C184.014 131.286 182.781 132.519 181.261 132.519Z" fill="#FD5D5D" fill-opacity="0.57" style="fill:#FD5D5D;fill:color(display-p3 0.9922 0.3647 0.3647);fill-opacity:0.57;"/>
<path d="M161.016 132.359C160.482 131.359 159.863 130.429 159.18 129.56V129.764C159.18 130.964 159.947 131.981 161.016 132.359Z" fill="#FD5D5D" fill-opacity="0.57" style="fill:#FD5D5D;fill:color(display-p3 0.9922 0.3647 0.3647);fill-opacity:0.57;"/>
<path d="M103.803 50.3643H97.2737C96.8737 50.3643 96.5495 50.0399 96.5495 49.6397C96.5495 49.2395 96.8737 48.915 97.2737 48.915H103.803C104.203 48.915 104.527 49.2395 104.527 49.6397C104.527 50.0399 104.203 50.3643 103.803 50.3643ZM82.529 50.3643H76.8043C76.4044 50.3643 76.0802 50.0399 76.0802 49.6397C76.0802 49.2395 76.4044 48.915 76.8043 48.915H82.529C82.929 48.915 83.2532 49.2395 83.2532 49.6397C83.2532 50.0399 82.929 50.3643 82.529 50.3643ZM62.3378 50.3643H55.1175C54.7176 50.3643 54.3934 50.0399 54.3934 49.6397C54.3934 49.2395 54.7176 48.915 55.1175 48.915H62.3379C62.7378 48.915 63.0621 49.2395 63.0621 49.6397C63.0621 50.0399 62.7378 50.3643 62.3378 50.3643ZM29.8555 78.7006C29.4556 78.7006 29.1313 78.3762 29.1313 77.976V57.3033C29.1313 52.678 32.8919 48.915 37.5142 48.915H41.502C41.9019 48.915 42.2262 49.2395 42.2262 49.6397C42.2262 50.0399 41.9019 50.3643 41.502 50.3643H37.5142C33.6905 50.3643 30.5797 53.4771 30.5797 57.3033V77.976C30.5797 78.3762 30.2555 78.7006 29.8555 78.7006Z" fill="#DC2626" style="fill:#DC2626;fill:color(display-p3 0.8627 0.1490 0.1490);fill-opacity:1;"/>
<path d="M48.2408 55.8845C46.0623 55.8845 44.2964 54.1174 44.2964 51.9376V47.3419C44.2964 45.1621 46.0623 43.395 48.2408 43.395C50.4192 43.395 52.1852 45.1621 52.1852 47.3419V51.9376C52.1852 54.1173 50.4192 55.8845 48.2408 55.8845ZM69.0889 55.8845C66.9104 55.8845 65.1445 54.1174 65.1445 51.9376V47.3419C65.1445 45.1621 66.9104 43.395 69.0889 43.395C71.2673 43.395 73.0333 45.1621 73.0333 47.3419V51.9376C73.0333 54.1173 71.2673 55.8845 69.0889 55.8845ZM89.9369 55.8845C87.7584 55.8845 85.9924 54.1174 85.9924 51.9376V47.3419C85.9924 45.1621 87.7584 43.395 89.9368 43.395C92.1153 43.395 93.8812 45.1621 93.8812 47.3419V51.9376C93.8813 54.1173 92.1153 55.8845 89.9369 55.8845ZM110.785 55.8845C108.606 55.8845 106.84 54.1174 106.84 51.9376V47.3419C106.84 45.1621 108.606 43.395 110.785 43.395C112.963 43.395 114.729 45.1621 114.729 47.3419V51.9376C114.729 54.1173 112.963 55.8845 110.785 55.8845ZM131.633 55.8845C129.455 55.8845 127.689 54.1174 127.689 51.9376V47.3419C127.689 45.1621 129.455 43.395 131.633 43.395C133.811 43.395 135.577 45.1621 135.577 47.3419V51.9376C135.577 54.1173 133.811 55.8845 131.633 55.8845ZM152.481 55.8845C150.303 55.8845 148.537 54.1174 148.537 51.9376V47.3419C148.537 45.1621 150.302 43.395 152.481 43.395C154.659 43.395 156.425 45.1621 156.425 47.3419V51.9376C156.425 54.1173 154.659 55.8845 152.481 55.8845ZM173.329 55.8845C171.151 55.8845 169.385 54.1174 169.385 51.9376V47.3419C169.385 45.1621 171.151 43.395 173.329 43.395C175.507 43.395 177.273 45.1621 177.273 47.3419V51.9376C177.273 54.1173 175.507 55.8845 173.329 55.8845Z" fill="#DC2626" style="fill:#DC2626;fill:color(display-p3 0.8627 0.1490 0.1490);fill-opacity:1;"/>
<path d="M134.805 138.463C133.596 132.38 137.545 126.467 143.624 125.257C149.704 124.047 155.613 127.998 156.822 134.082C156.87 134.325 156.909 134.568 156.941 134.81L168.967 181.629C169.747 185.554 167.199 189.369 163.277 190.149C159.355 190.93 155.542 188.381 154.762 184.456L135.701 141.151C135.299 140.315 134.994 139.415 134.805 138.463Z" fill="#F6AF9A" style="fill:#F6AF9A;fill:color(display-p3 0.9647 0.6863 0.6039);fill-opacity:1;"/>
<path d="M154.289 127.322C154.289 127.322 157.039 129.561 159.974 141.533C162.91 153.504 169.781 173.437 170.381 179.575C170.98 185.713 168.134 191.901 162.841 192.172C157.549 192.442 151.658 185.676 146.525 174.267C141.391 162.859 132.393 141.039 132.622 134.929C132.852 128.819 141.274 117.928 154.289 127.322Z" fill="white" style="fill:white;fill-opacity:1;"/>
<path d="M158.089 175.503C153.555 175.266 156.287 169.82 155.734 160.332C155.253 152.069 152.265 138.247 152.265 138.247L138.003 152.838C137.945 153.007 137.891 153.177 137.84 153.347C140.651 160.785 144.041 168.746 146.525 174.268C148.925 179.601 151.491 183.92 154.084 186.98C154.189 186.986 154.295 186.991 154.402 186.993C157.833 181.996 160.902 175.65 158.089 175.503Z" fill="#D4E8FC" style="fill:#D4E8FC;fill:color(display-p3 0.8314 0.9098 0.9882);fill-opacity:1;"/>
<path d="M97.9457 137.454C98.6744 131.295 94.2749 125.71 88.119 124.981C81.9632 124.252 76.3821 128.654 75.6534 134.814C75.6243 135.06 75.6043 135.305 75.5913 135.549L71.4489 184.577C70.9787 188.551 73.8171 192.154 77.7886 192.624C81.76 193.095 85.3607 190.254 85.8309 186.28L97.2634 140.204C97.5986 139.339 97.8316 138.418 97.9457 137.454Z" fill="#F6AF9A" style="fill:#F6AF9A;fill:color(display-p3 0.9647 0.6863 0.6039);fill-opacity:1;"/>
<path d="M91.8219 173.369C89.26 183.181 85.6992 190.068 81.6392 192.654C80.6903 193.259 79.7139 193.628 78.7166 193.745C77.2325 193.918 75.8611 193.595 74.6481 192.904C71.5597 191.145 69.4938 186.999 69.184 182.582C68.753 176.43 72.2065 155.63 73.1066 143.336C74.0067 131.042 77.1026 129.626 77.1026 129.626C88.3706 118.192 97.7309 126.275 98.9756 132.262C100.22 138.247 94.9828 161.264 91.8219 173.369Z" fill="white" style="fill:white;fill-opacity:1;"/>
<path d="M86.0677 171.29C86.0414 172.194 85.8814 173.069 85.6023 173.897C85.2835 174.846 84.8085 175.735 84.2014 176.533C83.9013 176.927 83.5696 177.299 83.2079 177.646C83.2068 177.648 83.2052 177.649 83.2041 177.65C82.7307 178.104 82.2074 178.513 81.6395 178.872V192.654C80.6905 193.259 79.7142 193.629 78.7169 193.745C77.2328 193.919 75.8614 193.596 74.6484 192.905C74.6441 192.427 74.6403 191.949 74.6376 191.47C74.599 185.404 74.6672 179.27 74.8078 173.707C74.8234 173.09 74.84 172.48 74.8572 171.878C74.8583 171.835 74.8598 171.793 74.8609 171.75C75.1003 165.94 76.2226 157.694 77.5516 149.499C78.0664 146.326 78.6117 143.161 79.149 140.148C79.1496 140.143 79.1507 140.14 79.1512 140.136C79.2022 139.851 79.2527 139.568 79.3031 139.286C80.1383 134.632 80.9439 130.383 81.5714 127.086C81.5719 127.082 81.573 127.079 81.573 127.076C81.5826 127.027 81.5918 126.978 81.6009 126.93C81.6181 126.842 81.6342 126.755 81.6508 126.669L81.66 126.861C81.66 126.864 81.6616 126.904 81.6653 126.976V126.982C81.7447 128.686 82.6406 147.917 82.6444 148.01C82.3669 149.489 82.3373 151.007 82.4683 152.543C82.7651 156.016 83.8804 159.58 84.7956 163.001C85.5749 165.916 86.2082 168.726 86.0677 171.29Z" fill="#D4E8FC" style="fill:#D4E8FC;fill:color(display-p3 0.8314 0.9098 0.9882);fill-opacity:1;"/>
<path d="M85.2062 180.369C85.1934 183.364 84.9631 186.462 84.5788 189.575C84.5617 189.716 84.5439 189.858 84.5257 189.999C83.9723 194.331 83.1269 198.682 82.1618 202.817C82.1613 202.821 82.1602 202.823 82.1597 202.826C81.9895 203.556 81.8156 204.278 81.639 204.992C81.6213 205.064 81.6036 205.135 81.5853 205.207H70.5385C70.3142 199.697 70.3464 193.047 70.4741 187.904C70.8757 181.537 70.0362 178.454 72.1853 175.852C72.787 175.123 73.6237 174.431 74.788 173.716L74.8073 173.706C76.3059 172.954 77.9151 172.809 79.4094 173.133C80.8457 173.444 82.1763 174.188 83.2004 175.241C83.2015 175.243 83.2026 175.244 83.2037 175.245C83.5815 175.634 83.917 176.065 84.2009 176.532C84.8724 177.638 85.2519 178.945 85.2062 180.369Z" fill="#F6AF9A" style="fill:#F6AF9A;fill:color(display-p3 0.9647 0.6863 0.6039);fill-opacity:1;"/>
<path d="M87.808 183.588C87.6727 184.223 87.53 184.88 87.3808 185.554C85.9906 191.834 84.0648 199.579 82.7733 205.206H68.9021C68.9945 199.016 68.053 190.05 69.1968 182.747C69.7148 179.442 70.6595 176.479 72.3197 174.266C73.0276 173.322 73.866 172.515 74.8574 171.877C76.1182 171.064 77.6265 170.524 79.4284 170.323C80.8137 170.428 82.0584 170.877 83.1421 171.573C83.1432 171.573 83.1443 171.574 83.1448 171.574C84.0906 172.182 84.9144 172.978 85.6026 173.896C86.6293 175.266 87.3545 176.91 87.734 178.61C88.108 180.284 88.1467 182.012 87.808 183.588Z" fill="white" style="fill:white;fill-opacity:1;"/>
<path d="M85.6023 173.896C85.2835 174.845 84.8085 175.734 84.2014 176.532C83.9013 176.926 83.5696 177.298 83.2079 177.645C83.2068 177.647 83.2052 177.648 83.2041 177.649C82.7307 178.103 82.2074 178.513 81.6395 178.871V205.206H74.9361C74.7788 201.31 74.6871 197.136 74.6484 192.904C74.6441 192.426 74.6403 191.948 74.6376 191.469C74.599 185.403 74.6672 179.269 74.8078 173.706C74.8234 173.089 74.84 172.479 74.8572 171.877C76.118 171.064 77.6263 170.524 79.4282 170.323C80.8135 170.428 82.0582 170.877 83.1419 171.573C83.1429 171.573 83.144 171.574 83.1446 171.574C84.0903 172.182 84.9141 172.978 85.6023 173.896Z" fill="#D4E8FC" style="fill:#D4E8FC;fill:color(display-p3 0.8314 0.9098 0.9882);fill-opacity:1;"/>
<path d="M141.796 177.996C143.921 171.43 145.346 156.962 145.346 156.962C145.346 156.962 139.344 153.668 114.761 153.668C90.3513 153.634 83.9727 156.981 84.089 156.962C84.089 156.962 85.5137 171.43 87.6393 177.996C89.7649 184.562 86.9999 189.378 86.353 193.817C84.2085 204.955 145.237 204.953 143.082 193.815C142.435 189.378 139.67 184.562 141.796 177.996Z" fill="#F6AF9A" style="fill:#F6AF9A;fill:color(display-p3 0.9647 0.6863 0.6039);fill-opacity:1;"/>
<path d="M100.157 120.655C94.4364 123.266 84.7064 125.136 83.0428 125.876C81.3793 126.616 74.0948 132.862 85.0001 159.218C92.9865 175.834 107.859 167.764 118.538 169.273C134.563 171.597 139.603 168.838 144.324 159.218C155.229 132.862 149.222 125.834 147.559 125.094C145.895 124.354 134.794 123.463 129.168 120.655C118.464 116.167 111.075 116.735 100.157 120.655Z" fill="#F6AF9A" style="fill:#F6AF9A;fill:color(display-p3 0.9647 0.6863 0.6039);fill-opacity:1;"/>
<path d="M123.686 118.365C123.765 129.685 106.06 129.573 106.085 118.357C106.243 117.083 106.428 103.603 107.969 102.889C110.446 96.8995 119.431 96.8555 121.938 102.889C123.484 103.778 123.569 115.676 123.686 118.365Z" fill="#F6AF9A" style="fill:#F6AF9A;fill:color(display-p3 0.9647 0.6863 0.6039);fill-opacity:1;"/>
<path d="M123.54 114.86C117.398 120.269 112.711 119.758 106.34 114.622C106.468 111.307 106.584 104.118 107.969 102.889C110.446 96.8986 119.432 96.8564 121.938 102.889C123.414 104.471 123.421 111.133 123.54 114.86Z" fill="#EA9A88" style="fill:#EA9A88;fill:color(display-p3 0.9176 0.6039 0.5333);fill-opacity:1;"/>
<path d="M114.878 67.9656C114.878 67.9656 134.365 66.6692 131.666 90.7607C128.967 114.852 116.551 116.041 114.878 116.149C113.204 116.041 100.788 114.852 98.0891 90.7607C95.39 66.6692 114.878 67.9656 114.878 67.9656Z" fill="#F6AF9A" style="fill:#F6AF9A;fill:color(display-p3 0.9647 0.6863 0.6039);fill-opacity:1;"/>
<path d="M129.366 93.3191C129.366 93.3191 130.95 90.5721 133.091 91.2586C134.927 91.8475 134.243 98.7782 131.023 101.955C127.625 105.309 127.787 97.2757 129.366 93.3191Z" fill="#F6AF9A" style="fill:#F6AF9A;fill:color(display-p3 0.9647 0.6863 0.6039);fill-opacity:1;"/>
<path d="M100.793 93.3191C100.793 93.3191 99.2089 90.5721 97.068 91.2586C95.2317 91.8475 95.9161 98.7782 99.1356 101.955C102.534 105.309 102.371 97.2757 100.793 93.3191Z" fill="#F6AF9A" style="fill:#F6AF9A;fill:color(display-p3 0.9647 0.6863 0.6039);fill-opacity:1;"/>
<path d="M114.369 103.648C111.076 103.648 108.406 105.009 108.406 106.688C108.406 107.749 109.474 108.683 111.092 109.227C111.322 109.304 111.568 109.308 111.802 109.245C112.949 108.935 113.341 108.1 113.475 107.544C113.551 107.229 113.841 107.013 114.165 107.013H114.574C114.898 107.013 115.188 107.229 115.264 107.544C115.398 108.1 115.79 108.935 116.937 109.245C117.171 109.308 117.417 109.304 117.647 109.227C119.264 108.683 120.333 107.749 120.333 106.688C120.333 105.009 117.663 103.648 114.369 103.648Z" fill="#F6AF9A" style="fill:#F6AF9A;fill:color(display-p3 0.9647 0.6863 0.6039);fill-opacity:1;"/>
<path d="M96.9905 91.2894C96.9905 91.2894 96.2508 83.6981 97.8124 77.5299C96.2902 73.8125 102.518 66.6296 112.976 66.0156C121.311 65.7031 124.98 67.6517 125.917 68.2629C126.361 68.4526 126.384 69.7648 126.538 70.1281C126.991 69.8345 127.683 69.1152 128.212 69.6853C133.94 74.0431 132.626 87.8503 132.271 91.1498C132.271 91.1498 130.329 90.9612 128.796 96.9518L127.745 96.5505C127.745 96.5505 129.691 86.9673 127.745 81.8477C125.09 81.3196 124.923 81.5829 124.747 78.4243L123.683 79.2495C122.463 80.5045 120.492 77.6729 116.891 78.5787C113.655 79.3187 111.71 80.9841 106.796 80.7991C103.123 80.6758 102.621 81.1075 102.621 81.1075C99.7754 84.1239 100.446 92.231 101.44 95.2654L100.232 94.9088C99.9342 94.0035 99.9943 91.0911 96.9905 91.2894Z" fill="#8C4949" style="fill:#8C4949;fill:color(display-p3 0.5490 0.2863 0.2863);fill-opacity:1;"/>
<path d="M97.813 77.5291C99.3925 78.7756 100.923 80.0302 102.621 81.1066C100.599 80.7429 98.8163 79.2949 97.813 77.5291Z" fill="#7A4040" style="fill:#7A4040;fill:color(display-p3 0.4784 0.2510 0.2510);fill-opacity:1;"/>
<path d="M150.12 126.943C149.933 143.722 145.183 160.382 144.683 177.173C144.621 179.262 144.63 181.372 144.731 183.443C144.624 186.771 144.791 190.097 145.134 193.389C145.546 197.356 146.213 201.288 146.966 205.207H82.0132C82.3004 200.602 82.5904 195.992 82.813 191.349C83.2672 181.868 83.4456 172.335 82.6944 162.864C82.4017 159.052 81.92 155.299 81.3037 151.56C80.2152 144.475 76.1829 133.515 81.5919 127.052C82.195 126.443 82.9164 126.102 83.7035 125.641C83.9332 125.472 84.17 125.31 84.4147 125.157C87.064 123.506 90.3059 122.774 93.3177 122.151C97.1913 121.172 101.146 120.037 104.973 118.896C105.899 130.595 123.936 130.254 125.138 119.04C129.192 120.224 133.348 121.366 137.482 122.28C139.891 122.934 142.619 123.03 145.048 123.663C147.066 124.171 148.977 125.128 150.12 126.943Z" fill="#5274C7" style="fill:#5274C7;fill:color(display-p3 0.3216 0.4549 0.7804);fill-opacity:1;"/>
<path d="M148.839 125.455C147.738 124.528 146.378 124.009 144.981 123.662C143.066 123.185 141.094 123.026 139.206 122.633C135.782 121.968 132.404 121.073 129.041 120.153C130.368 132.084 130.751 143.975 130.915 156.126C130.918 156.35 130.921 156.574 130.923 156.798C130.925 156.889 130.926 156.981 130.927 157.073C131.121 173.111 130.853 189.184 131.465 205.207H146.965C146.213 201.289 145.546 197.356 145.134 193.39C144.791 190.098 144.624 186.772 144.73 183.443C144.63 181.373 144.621 179.262 144.682 177.174C145.182 160.383 149.933 143.721 150.12 126.943C149.759 126.356 149.327 125.866 148.839 125.455ZM100.51 120.201C99.7357 125.951 99.2606 132.01 98.9873 137.961C97.9516 160.297 99.4359 183 97.9224 205.207H82.0122C82.2965 200.596 82.5889 195.982 82.8125 191.349C83.272 181.865 83.4481 172.339 82.6939 162.865C82.3984 159.074 81.9187 155.309 81.3032 151.561C80.2598 144.479 75.4537 131.157 82.9344 125.928C83.3053 125.682 83.682 125.454 84.0648 125.239C84.9154 124.762 85.7951 124.356 86.698 123.998C91.1466 122.246 95.9882 121.727 100.51 120.201ZM104.484 119.959C103.022 122.032 101.949 127.823 102.331 135.992C102.508 139.775 102.596 142.609 102.609 144.862C102.609 144.986 102.61 145.109 102.61 145.229C102.61 145.49 102.399 145.702 102.138 145.702C101.878 145.702 101.667 145.492 101.666 145.231C101.666 145.097 101.665 144.962 101.665 144.824C101.652 142.592 101.563 139.783 101.388 136.036C101.213 132.289 100.889 123.34 103.78 119.322C103.803 119.291 103.825 119.26 103.847 119.23C104.551 119.022 104.972 118.896 104.972 118.896C104.973 118.921 104.974 118.946 104.976 118.971C104.981 119.081 104.99 119.189 105 119.298C104.829 119.497 104.656 119.716 104.484 119.959Z" fill="#405FAD" style="fill:#405FAD;fill:color(display-p3 0.2510 0.3725 0.6784);fill-opacity:1;"/>
<path d="M106.157 168.927C105.735 168.939 105.515 168.366 105.851 168.096C111.311 163.296 110.003 147.293 102.095 145.705C98.4569 146.308 95.5514 150.473 94.7486 155.045C93.5306 160.366 95.6094 165.649 97.7595 168.137C97.9342 168.33 97.9199 168.629 97.7272 168.804C97.5345 168.979 97.2366 168.965 97.0612 168.773C91.9808 163.53 92.3757 150.666 98.6284 146.252C101.968 144.185 102.451 144.235 105.795 146.644C111.65 151.419 111.385 165.301 106.157 168.927ZM132.395 173.433C132.21 178.802 131.501 182.596 131.494 182.634C131.448 182.882 131.203 183.044 130.962 182.996C130.715 182.95 130.552 182.712 130.599 182.464C130.606 182.427 131.305 178.687 131.486 173.384C131.653 168.502 131.402 161.257 129.264 154.468C127.934 150.244 127.66 147.818 128.24 135.386C128.469 126.756 127.454 122.106 125.127 119.413C125.134 119.29 125.138 119.166 125.138 119.041C125.294 119.088 125.644 119.19 126.297 119.379C127.47 120.832 128.095 123.785 128.641 126.044C129.248 128.642 129.318 131.813 129.15 135.428C128.576 147.715 128.841 150.094 130.132 154.194C132.311 161.112 132.565 168.475 132.395 173.433Z" fill="#405FAD" style="fill:#405FAD;fill:color(display-p3 0.2510 0.3725 0.6784);fill-opacity:1;"/>
<path d="M114.947 130.012C110.191 130.012 105.752 127.283 103.577 122.995C103.487 122.819 103.558 122.603 103.734 122.513C103.91 122.424 104.126 122.494 104.216 122.671C106.312 126.803 110.632 129.403 115.227 129.292C119.689 129.185 123.704 126.614 125.706 122.582C125.794 122.405 126.009 122.332 126.186 122.42C126.364 122.508 126.436 122.724 126.348 122.901C124.227 127.172 119.973 129.895 115.245 130.008C115.145 130.011 115.046 130.012 114.947 130.012Z" fill="#405FAD" style="fill:#405FAD;fill:color(display-p3 0.2510 0.3725 0.6784);fill-opacity:1;"/>
<path d="M98.7003 120.518C96.6343 130.634 96.9018 141.35 96.8222 151.69C96.6529 169.49 96.1774 187.408 95.6715 205.208H78.1885C78.8073 193.685 79.3936 181.886 79.4284 170.325C79.43 169.622 79.4295 168.921 79.4273 168.223C80.2913 156.476 76.5607 135.278 78.0956 131.74C79.0275 129.354 80.8375 127.103 82.8721 125.612C87.2099 122.737 91.3659 121.577 98.7003 120.518ZM152.292 138.377C152.351 133.217 152.165 129.041 150.75 125.226C150.691 125.187 150.627 125.146 150.556 125.102C149.628 124.526 147.543 123.484 141.46 122.063C133.959 120.349 130.665 120.518 130.665 120.518C130.669 120.544 130.673 120.571 130.676 120.598C132.199 130.667 132.657 143.285 132.834 155.659C133.096 172.151 132.737 188.764 133.681 205.208H151.119C150.628 195.402 150.104 185.399 149.968 175.546C149.361 162.988 151.607 154.579 152.292 138.377Z" fill="white" style="fill:white;fill-opacity:1;"/>
<path d="M151.147 205.208H133.692C133.631 203.172 133.573 201.132 133.515 199.095C138.97 197.964 145.122 196.688 150.675 195.536C150.817 198.581 150.971 202.066 151.147 205.208Z" fill="#D4E8FC" style="fill:#D4E8FC;fill:color(display-p3 0.8314 0.9098 0.9882);fill-opacity:1;"/>
<path d="M131.019 153.729C129.728 149.629 129.463 147.25 130.037 134.963C130.205 131.348 129.983 128.198 129.375 125.601C128.883 123.496 128.137 121.742 127.158 120.388C125.802 118.51 124.278 117.879 123.663 117.691L123.681 118.659C124.299 118.917 125.469 119.572 126.479 121.003C127.89 123.002 129.495 127.04 129.127 134.921C128.546 147.353 128.821 149.779 130.151 154.003C132.289 160.792 132.539 168.037 132.373 172.919C132.192 178.222 131.493 181.962 131.486 181.999C131.439 182.246 131.602 182.485 131.849 182.532C131.877 182.537 131.906 182.54 131.934 182.54C132.148 182.54 132.339 182.387 132.381 182.169C132.388 182.131 133.097 178.336 133.282 172.968C133.452 168.01 133.198 160.647 131.019 153.729Z" fill="#323C7A" style="fill:#323C7A;fill:color(display-p3 0.1961 0.2353 0.4784);fill-opacity:1;"/>
<path d="M131.934 182.54C131.906 182.54 131.877 182.537 131.849 182.532C131.602 182.485 131.439 182.246 131.486 181.999C131.498 181.936 132.684 175.56 132.359 167.575C132.349 167.324 132.544 167.112 132.795 167.101C133.045 167.09 133.258 167.286 133.268 167.538C133.598 175.632 132.393 182.105 132.381 182.169C132.339 182.388 132.148 182.54 131.934 182.54Z" fill="#323C7A" style="fill:#323C7A;fill:color(display-p3 0.1961 0.2353 0.4784);fill-opacity:1;"/>
<path d="M133.894 182.521C133.591 184.942 131.595 186.989 131.595 186.989C131.595 186.989 130.748 186.998 130.621 186.982C129.145 186.797 128.217 184.499 128.548 181.851C128.88 179.202 130.345 177.205 131.822 177.39C131.863 177.395 132.544 177.385 132.544 177.385C132.544 177.385 134.217 179.946 133.894 182.521Z" fill="#293263" style="fill:#293263;fill:color(display-p3 0.1608 0.1961 0.3882);fill-opacity:1;"/>
<path d="M134.668 182.536C134.999 179.888 134.071 177.59 132.595 177.405C131.118 177.22 129.653 179.217 129.321 181.866C128.99 184.515 129.918 186.812 131.394 186.997C132.87 187.182 134.336 185.185 134.668 182.536Z" fill="#323C7A" style="fill:#323C7A;fill:color(display-p3 0.1961 0.2353 0.4784);fill-opacity:1;"/>
<path d="M152.022 200.39C148.919 187.664 145.808 174.888 142.713 162.191C141.968 159.131 141.283 156.323 140.568 153.392C140.374 152.577 139.691 152.009 138.918 151.901C138.385 151.827 137.927 152.012 137.382 152.126C126.49 154.725 114.514 157.825 103.584 160.381C102.525 160.64 101.875 161.709 102.134 162.77C102.528 164.357 103.327 167.696 103.874 169.915C106.536 180.818 109.767 194.081 112.475 205.207H140.618C140.824 205.156 140.974 205.119 140.978 205.119C141.639 204.945 142.257 204.793 142.998 204.616C145.392 204.038 148.825 203.28 150.989 202.616C151.799 202.236 152.241 201.292 152.022 200.39Z" fill="#303C72" style="fill:#303C72;fill:color(display-p3 0.1882 0.2353 0.4471);fill-opacity:1;"/>
<path d="M151.032 202.604C148.8 203.19 144.062 204.352 141.365 205.019C141.095 205.085 140.837 205.149 140.6 205.207H112.476C111.831 202.565 110.866 198.6 110.319 196.356C120.712 190.411 132.11 183.883 142.488 177.949L143.058 177.621C143.895 177.392 145.362 176.985 146.258 176.74C147.515 181.892 148.918 187.658 150.198 192.903C150.66 194.803 150.994 196.17 151.43 197.96C151.591 198.619 151.751 199.279 151.912 199.936C152.284 200.939 152.001 202.112 151.032 202.604Z" fill="#183261" style="fill:#183261;fill:color(display-p3 0.0941 0.1961 0.3804);fill-opacity:1;"/>
<path d="M147.677 196.574L115.903 204.326L115.897 204.328L112.258 189.396L105.653 162.292L127.93 156.856L137.411 154.542L137.433 154.537L147.677 196.574Z" fill="#DEECFA" style="fill:#DEECFA;fill:color(display-p3 0.8706 0.9255 0.9804);fill-opacity:1;"/>
<path d="M137.433 154.537L127.804 167.869L112.258 189.396L105.653 162.292L137.433 154.537Z" fill="#FCFFFF" style="fill:#FCFFFF;fill:color(display-p3 0.9882 1.0000 1.0000);fill-opacity:1;"/>
<path d="M109.975 161.236C109.577 164.07 108.601 166.608 107.086 168.172L106.823 167.094C107.924 165.651 108.643 163.665 108.983 161.478L109.975 161.236Z" fill="#DEECFA" style="fill:#DEECFA;fill:color(display-p3 0.8706 0.9255 0.9804);fill-opacity:1;"/>
<path d="M128.995 157.142L114.844 160.594C114.489 160.681 114.131 160.463 114.045 160.108L113.594 158.258C113.453 157.681 113.806 157.099 114.382 156.957L114.437 156.944L127.732 153.7C128.308 153.559 128.889 153.912 129.03 154.489L129.481 156.342C129.568 156.697 129.35 157.055 128.995 157.142Z" fill="#B3D2FF" style="fill:#B3D2FF;fill:color(display-p3 0.7020 0.8235 1.0000);fill-opacity:1;"/>
<path d="M122.467 158.735C121.555 158.957 119.529 159.451 118.636 159.669L114.438 156.944C115.324 156.728 117.365 156.23 118.27 156.009L122.467 158.735ZM126.567 157.734C126.252 157.811 124.866 158.149 124.525 158.232L120.326 155.507C120.676 155.421 122.046 155.087 122.369 155.008L126.567 157.734Z" fill="#C2DBFF" style="fill:#C2DBFF;fill:color(display-p3 0.7608 0.8588 1.0000);fill-opacity:1;"/>
<path d="M157.715 176.72C161.9 176.299 165.633 179.352 166.054 183.54C166.475 187.727 163.424 191.463 159.239 191.885C159.239 191.885 150.786 192.967 141.224 193.719C131.661 194.472 120.546 194.544 120.546 194.544C118.244 194.776 116.191 193.097 115.959 190.794C115.728 188.49 117.406 186.436 119.708 186.204C119.708 186.204 127.945 184.039 135.126 181.622C142.307 179.205 151.401 177.236 157.715 176.72Z" fill="#F6AF9A" style="fill:#F6AF9A;fill:color(display-p3 0.9647 0.6863 0.6039);fill-opacity:1;"/>
<path d="M120.818 184.372C120.818 184.372 115.78 181.45 114.711 180.813C113.643 180.176 111.224 180.493 110.493 180.813C109.762 181.132 108.464 183.048 108.464 183.048C108.464 183.048 118.196 185.149 120.818 184.372Z" fill="#EA9A88" style="fill:#EA9A88;fill:color(display-p3 0.9176 0.6039 0.5333);fill-opacity:1;"/>
<path d="M125.594 184.569C125.594 184.569 121.256 184.423 119.175 184.044C117.094 183.665 113.494 181.959 112.088 181.827C110.682 181.695 105.114 183.84 104.271 184.371C103.427 184.903 103.99 186.702 104.833 186.731C104.833 186.731 103.841 189.518 105.743 190.137C105.743 190.137 105.227 192.833 107.027 193.286C107.027 193.286 106.802 194.626 108.601 195.786C109.167 196.15 109.786 196.434 110.369 196.651L110.343 195.623C110.343 195.623 112.932 195.314 113.832 195.455C114.732 195.595 118.275 196.491 120.412 196.1C122.549 195.708 124.164 195.328 126.348 194.99C128.532 194.653 125.594 184.569 125.594 184.569Z" fill="#F6AF9A" style="fill:#F6AF9A;fill:color(display-p3 0.9647 0.6863 0.6039);fill-opacity:1;"/>
<path d="M104.833 186.731C107.005 186.034 110.653 183.623 112.646 184.974C109.989 184.872 107.245 186.325 104.833 186.731ZM105.744 190.137C108.253 189.533 111.185 187.66 113.661 188.616C111.117 188.856 108.13 189.835 105.744 190.137ZM107.027 193.286C109.505 192.708 112.437 190.741 114.84 191.965C112.194 191.947 109.47 193.011 107.027 193.286Z" fill="#E57E73" style="fill:#E57E73;fill:color(display-p3 0.8980 0.4941 0.4510);fill-opacity:1;"/>
<path d="M167.314 190.117C167.314 190.117 165.461 192.951 155.263 194.699C145.974 196.29 126.664 197.025 126.664 197.025C126.664 197.025 125.671 192.733 125.394 189.81C125.118 186.887 125.394 183.612 125.394 183.612C125.394 183.612 126.487 182.995 130.23 181.896C133.973 180.797 146.561 176.526 154.121 174.265C157.3 173.314 160.828 173.82 163.626 175.297C167.485 177.333 169.06 185.658 167.314 190.117Z" fill="white" style="fill:white;fill-opacity:1;"/>
<path d="M106.12 117.678C105.445 117.914 104.065 118.582 102.768 120.377C101.753 121.782 100.98 123.6 100.47 125.781C99.8398 128.474 99.6093 131.739 99.7842 135.486C99.97 139.464 100.058 142.385 100.062 144.681C100.063 144.941 100.274 145.152 100.534 145.152C100.796 145.152 101.007 144.94 101.006 144.679C101.002 142.369 100.913 139.434 100.727 135.442C100.345 127.273 102.009 123.088 103.472 121.015C104.449 119.632 105.466 118.989 106.09 118.703L106.12 117.678Z" fill="#323C7A" style="fill:#323C7A;fill:color(display-p3 0.1961 0.2353 0.4784);fill-opacity:1;"/>
<path d="M106.205 177.478C105.621 177.494 105.317 176.701 105.781 176.327C113.336 169.687 111.526 147.545 100.585 145.349C95.5512 146.183 91.5314 151.946 90.4207 158.271C88.7355 165.633 91.6116 172.943 94.5863 176.385C94.828 176.652 94.8082 177.065 94.5416 177.307C94.275 177.55 93.8628 177.531 93.6202 177.264C86.5912 170.01 87.1376 152.213 95.7885 146.106C100.408 143.246 101.077 143.316 105.704 146.648C113.805 153.255 113.437 172.461 106.205 177.478Z" fill="#323C7A" style="fill:#323C7A;fill:color(display-p3 0.1961 0.2353 0.4784);fill-opacity:1;"/>
<path d="M98.0829 179.277C97.5393 180.166 96.3784 180.446 95.4899 179.902C94.6014 179.358 93.0848 177.439 93.6284 176.55C94.1719 175.661 96.5699 176.138 97.4584 176.682C98.3469 177.226 98.6264 178.388 98.0829 179.277ZM102.278 179.277C102.821 180.166 103.982 180.446 104.871 179.902C105.759 179.358 107.276 177.439 106.732 176.55C106.189 175.661 103.791 176.138 102.902 176.682C102.014 177.226 101.734 178.388 102.278 179.277Z" fill="#323C7A" style="fill:#323C7A;fill:color(display-p3 0.1961 0.2353 0.4784);fill-opacity:1;"/>
</g>
<mask id="mask1_263_59" style="mask-type:alpha" maskUnits="userSpaceOnUse" x="0" y="0" width="232" height="196">
<rect x="0.28418" y="0.717285" width="231.062" height="195.188" fill="#D9D9D9" style="fill:#D9D9D9;fill:color(display-p3 0.8510 0.8510 0.8510);fill-opacity:1;"/>
</mask>
<g mask="url(#mask1_263_59)">
<path d="M196.663 196.144H115.986C111.915 196.144 108.614 192.842 108.614 188.768V38.805C108.614 34.7314 111.915 31.429 115.986 31.429H196.663C200.734 31.429 204.034 34.7313 204.034 38.805V188.768C204.034 192.842 200.734 196.144 196.663 196.144Z" fill="#303033" style="fill:#303033;fill:color(display-p3 0.1868 0.1878 0.2003);fill-opacity:1;"/>
<path d="M193.874 191.829H118.776C115.397 191.829 112.658 189.088 112.658 185.706V41.8685C112.658 38.4871 115.397 35.7458 118.776 35.7458H193.874C197.253 35.7458 199.993 38.4871 199.993 41.8685V185.706C199.993 189.088 197.254 191.829 193.874 191.829Z" fill="#F5F9FF" style="fill:#F5F9FF;fill:color(display-p3 0.9626 0.9782 1.0000);fill-opacity:1;"/>
<path d="M181.928 191.828L199.992 152.124V70.8462L144.949 191.828H181.928Z" fill="#DAE9FF" style="fill:#DAE9FF;fill:color(display-p3 0.8558 0.9146 1.0000);fill-opacity:1;"/>
<path d="M198.337 37.681C197.22 36.4903 195.635 35.7454 193.874 35.7454H176.106L112.658 175.201V185.706C112.658 189.087 115.397 191.829 118.777 191.829H128.204L198.337 37.681Z" fill="#DAE9FF" style="fill:#DAE9FF;fill:color(display-p3 0.8558 0.9146 1.0000);fill-opacity:1;"/>
<path d="M112.658 50.1216V131.399L156.177 35.7454H119.198L112.658 50.1216Z" fill="#DAE9FF" style="fill:#DAE9FF;fill:color(display-p3 0.8558 0.9146 1.0000);fill-opacity:1;"/>
<path d="M180.164 54.5667H112.658V176.426H180.164C184.394 176.426 187.823 172.995 187.823 168.762V62.2302C187.823 57.9977 184.394 54.5667 180.164 54.5667Z" fill="#94C0FF" style="fill:#94C0FF;fill:color(display-p3 0.5804 0.7529 1.0000);fill-opacity:1;"/>
<path d="M151.958 176.426H180.164C184.394 176.426 187.823 172.995 187.823 168.762V97.5967L151.958 176.426ZM135.212 176.426L187.725 61.0064C187.139 57.3557 183.977 54.5667 180.164 54.5667H167.543L112.658 175.201V176.426L135.212 176.426Z" fill="#A6CBFF" style="fill:#A6CBFF;fill:color(display-p3 0.6510 0.7961 1.0000);fill-opacity:1;"/>
<path d="M193.873 192.07H118.775C115.268 192.07 112.415 189.215 112.415 185.706V41.8682C112.415 38.3589 115.268 35.5039 118.775 35.5039H193.873C197.38 35.5039 200.233 38.3589 200.233 41.8682V185.706C200.233 189.215 197.38 192.07 193.873 192.07ZM118.775 35.987C115.534 35.987 112.898 38.6253 112.898 41.8682V185.706C112.898 188.949 115.534 191.587 118.775 191.587H193.873C197.114 191.587 199.75 188.949 199.75 185.706V41.8682C199.75 38.6253 197.114 35.987 193.873 35.987H118.775Z" fill="white" style="fill:white;fill-opacity:1;"/>
<path d="M173.256 38.803H139.394C137.318 38.803 135.635 37.1188 135.635 35.0411V34.2554H177.015V35.0411C177.015 37.1188 175.332 38.803 173.256 38.803Z" fill="#3C3D3E" style="fill:#3C3D3E;fill:color(display-p3 0.2371 0.2375 0.2431);fill-opacity:1;"/>
<path d="M173.255 39.0447H139.394C137.473 39.0447 135.82 37.6762 135.463 35.7907C135.438 35.6596 135.524 35.5332 135.655 35.5084C135.786 35.4835 135.912 35.5697 135.937 35.7007C136.251 37.3584 137.705 38.5616 139.394 38.5616H173.255C174.95 38.5616 176.404 37.3537 176.714 35.6896C176.738 35.5584 176.864 35.4719 176.995 35.4963C177.126 35.5207 177.213 35.6469 177.188 35.778C176.836 37.6708 175.182 39.0447 173.255 39.0447Z" fill="white" style="fill:white;fill-opacity:1;"/>
<g filter="url(#filter1_d_263_59)">
<path d="M183.829 171.869H37.4717C33.2419 171.869 29.813 168.437 29.813 164.205V57.6729C29.813 53.4404 33.2419 50.0093 37.4717 50.0093H183.829C188.059 50.0093 191.488 53.4404 191.488 57.6729V164.205C191.488 168.438 188.059 171.869 183.829 171.869Z" fill="white" style="fill:white;fill-opacity:1;"/>
</g>
<path d="M72.9912 129.072C71.6861 132.484 66.007 160.675 63.7769 171.869H172.959C170.543 162.883 165.091 143.032 161.908 134.765C157.73 123.914 144.309 120.001 137.465 119.411C130.621 118.821 126.652 116.519 126.652 116.519L126.83 113.419C130.88 110.281 130.757 104.614 130.757 104.614C133.706 103.369 136.34 97.0543 136.518 94.8309C136.695 92.6074 134.972 89.9913 134.972 89.9913C137.603 80.7937 132.577 71.262 131.198 70.0169C129.819 68.7717 127.178 68.324 127.178 68.324C127.178 68.324 124.844 63.4459 116.717 62.943C108.589 62.4402 101.734 65.8472 97.9818 68.8712C94.2292 71.8951 95.4399 78.3459 95.4399 78.3459C95.0118 80.1824 95.2457 90.8485 95.2457 90.8485C94.2684 91.5798 94.6236 95.6314 95.3348 98.7506C96.0457 101.87 99.1213 105.316 99.1213 105.316C99.7142 108.933 103.099 113.419 103.099 113.419L103.496 116.519C103.496 116.519 103.496 116.519 100.468 117.025C89.6917 119.207 74.6251 124.803 72.9912 129.072Z" fill="#EDEDED" style="fill:#EDEDED;fill:color(display-p3 0.9294 0.9294 0.9294);fill-opacity:1;"/>
<path d="M60.1203 101.801H40.7919C39.2715 101.801 38.0391 100.567 38.0391 99.0459V83.2236C38.0391 81.7022 39.2716 80.469 40.7919 80.469H60.1203C61.6407 80.469 62.8733 81.7023 62.8733 83.2236V99.0459C62.8733 100.567 61.6407 101.801 60.1203 101.801ZM90.395 101.801H71.0665C69.5461 101.801 68.3137 100.567 68.3137 99.0459V83.2236C68.3137 81.7022 69.5462 80.469 71.0665 80.469H90.395C91.9154 80.469 93.1479 81.7023 93.1479 83.2236V99.0459C93.1479 100.567 91.9154 101.801 90.395 101.801Z" fill="#FD5D5D" fill-opacity="0.57" style="fill:#FD5D5D;fill:color(display-p3 0.9922 0.3647 0.3647);fill-opacity:0.57;"/>
<path d="M120.669 101.801H101.341C99.8204 101.801 98.5879 100.567 98.5879 99.0459V83.2236C98.5879 81.7022 99.8204 80.469 101.341 80.469H120.669C122.19 80.469 123.422 81.7023 123.422 83.2236V99.0459C123.422 100.567 122.19 101.801 120.669 101.801Z" fill="#A6CFFF" style="fill:#A6CFFF;fill:color(display-p3 0.6510 0.8118 1.0000);fill-opacity:1;"/>
<path d="M60.1203 132.888H40.7919C39.2715 132.888 38.0391 131.655 38.0391 130.134V114.311C38.0391 112.79 39.2716 111.557 40.7919 111.557H60.1203C61.6407 111.557 62.8733 112.79 62.8733 114.311V130.134C62.8733 131.655 61.6407 132.888 60.1203 132.888ZM60.1203 163.976H40.7919C39.2715 163.976 38.0391 162.742 38.0391 161.221V145.399C38.0391 143.877 39.2716 142.644 40.7919 142.644H60.1203C61.6407 142.644 62.8733 143.877 62.8733 145.399V161.221C62.8733 162.742 61.6407 163.976 60.1203 163.976Z" fill="#FD5D5D" fill-opacity="0.57" style="fill:#FD5D5D;fill:color(display-p3 0.9922 0.3647 0.3647);fill-opacity:0.57;"/>
<path d="M120.669 163.975H101.341C99.8204 163.975 98.5879 162.742 98.5879 161.221V145.398C98.5879 143.877 99.8204 142.644 101.341 142.644H120.669C122.19 142.644 123.422 143.877 123.422 145.398V161.221C123.422 162.742 122.19 163.975 120.669 163.975ZM150.944 163.975H131.615C130.095 163.975 128.863 162.742 128.863 161.221V145.398C128.863 143.877 130.095 142.644 131.615 142.644H150.944C152.464 142.644 153.697 143.877 153.697 145.398V161.221C153.697 162.742 152.464 163.975 150.944 163.975Z" fill="#A6CFFF" style="fill:#A6CFFF;fill:color(display-p3 0.6510 0.8118 1.0000);fill-opacity:1;"/>
<path d="M181.219 101.801H161.891C160.37 101.801 159.138 100.568 159.138 99.0465V83.2241C159.138 81.7028 160.37 80.4695 161.891 80.4695H181.219C182.739 80.4695 183.972 81.7028 183.972 83.2241V99.0465C183.972 100.568 182.739 101.801 181.219 101.801ZM124.96 74.5491H40.2573C39.0322 74.5491 38.0391 73.5554 38.0391 72.3295V65.1129C38.0391 63.8871 39.0322 62.8933 40.2573 62.8933H124.96C126.185 62.8933 127.178 63.8871 127.178 65.1129V72.3295C127.178 73.5554 126.185 74.5491 124.96 74.5491Z" fill="#FD5D5D" fill-opacity="0.57" style="fill:#FD5D5D;fill:color(display-p3 0.9922 0.3647 0.3647);fill-opacity:0.57;"/>
<path d="M124.96 74.5491C126.185 74.5491 127.178 73.5553 127.178 72.3294V68.3238C127.177 68.3211 124.841 63.4457 116.716 62.943C108.589 62.4402 101.734 65.8472 97.9814 68.8711C96.1653 70.3346 95.513 72.5998 95.3223 74.5491H124.96Z" fill="#FD5D5D" style="fill:#FD5D5D;fill:color(display-p3 0.9922 0.3647 0.3647);fill-opacity:1;"/>
<path d="M90.3948 132.888H71.0663C69.5459 132.888 68.3135 131.655 68.3135 130.134V114.311C68.3135 112.79 69.546 111.557 71.0663 111.557H90.3948C91.9152 111.557 93.1477 112.79 93.1477 114.311V130.134C93.1477 131.655 91.9152 132.888 90.3948 132.888Z" fill="#FD5D5D" fill-opacity="0.57" style="fill:#FD5D5D;fill:color(display-p3 0.9922 0.3647 0.3647);fill-opacity:0.57;"/>
<path d="M90.3944 132.888C91.9151 132.888 93.1474 131.655 93.1474 130.134V118.845C83.8674 121.538 74.2756 125.715 72.9909 129.072C72.7638 129.666 72.4034 131.013 71.9526 132.888H90.3944V132.888Z" fill="#FD5D5D" style="fill:#FD5D5D;fill:color(display-p3 0.9922 0.3647 0.3647);fill-opacity:1;"/>
<path d="M120.669 132.888H101.341C99.8204 132.888 98.5879 131.655 98.5879 130.134V114.311C98.5879 112.79 99.8204 111.557 101.341 111.557H120.669C122.19 111.557 123.422 112.79 123.422 114.311V130.134C123.422 131.655 122.19 132.888 120.669 132.888Z" fill="#FEA3A3" style="fill:#FEA3A3;fill:color(display-p3 0.9961 0.6392 0.6392);fill-opacity:1;"/>
<path d="M101.341 132.888H120.669C122.19 132.888 123.422 131.655 123.422 130.134V114.311C123.422 112.79 122.19 111.557 120.669 111.557H101.837C102.54 112.678 103.098 113.419 103.098 113.419L103.495 116.519C103.495 116.519 103.495 116.519 100.468 117.024C99.8546 117.149 99.2257 117.285 98.5879 117.431V130.134C98.5879 131.655 99.8203 132.888 101.341 132.888Z" fill="#FD5D5D" style="fill:#FD5D5D;fill:color(display-p3 0.9922 0.3647 0.3647);fill-opacity:1;"/>
<path d="M150.944 132.888H131.615C130.095 132.888 128.862 131.655 128.862 130.134V114.311C128.862 112.79 130.095 111.557 131.615 111.557H150.944C152.464 111.557 153.696 112.79 153.696 114.311V130.134C153.696 131.655 152.464 132.888 150.944 132.888Z" fill="#FD5D5D" fill-opacity="0.57" style="fill:#FD5D5D;fill:color(display-p3 0.9922 0.3647 0.3647);fill-opacity:0.57;"/>
<path d="M131.615 132.888H150.943C152.464 132.888 153.696 131.655 153.696 130.133V124.996C148.226 121.363 141.629 119.769 137.464 119.41C133.631 119.08 130.699 118.212 128.862 117.513V130.133C128.862 131.655 130.095 132.888 131.615 132.888Z" fill="#FD5D5D" style="fill:#FD5D5D;fill:color(display-p3 0.9922 0.3647 0.3647);fill-opacity:1;"/>
<path d="M150.944 101.801H131.615C130.095 101.801 128.862 100.567 128.862 99.0459V83.2236C128.862 81.7022 130.095 80.469 131.615 80.469H150.944C152.464 80.469 153.696 81.7023 153.696 83.2236V99.0459C153.696 100.567 152.464 101.801 150.944 101.801Z" fill="#FD5D5D" fill-opacity="0.57" style="fill:#FD5D5D;fill:color(display-p3 0.9922 0.3647 0.3647);fill-opacity:0.57;"/>
<path d="M128.862 83.2236V99.046C128.862 100.567 130.095 101.801 131.615 101.801H133.667C135.258 99.4181 136.402 96.2688 136.517 94.8304C136.695 92.607 134.971 89.9908 134.971 89.9908C135.904 86.7302 135.872 83.4295 135.384 80.469H131.615C130.095 80.469 128.862 81.7023 128.862 83.2236Z" fill="#FD5D5D" fill-opacity="0.57" style="fill:#FD5D5D;fill:color(display-p3 0.9922 0.3647 0.3647);fill-opacity:0.57;"/>
<path d="M181.218 163.975H161.89C160.369 163.975 159.137 162.742 159.137 161.221V145.398C159.137 143.877 160.369 142.644 161.89 142.644H181.218C182.738 142.644 183.971 143.877 183.971 145.398V161.221C183.971 162.742 182.738 163.975 181.218 163.975Z" fill="#FD5D5D" fill-opacity="0.57" style="fill:#FD5D5D;fill:color(display-p3 0.9922 0.3647 0.3647);fill-opacity:0.57;"/>
<path d="M164.592 142.644H161.889C160.369 142.644 159.137 143.878 159.137 145.399V161.221C159.137 162.743 160.369 163.976 161.889 163.976H170.807C168.967 157.316 166.651 149.172 164.592 142.644Z" fill="#FD5D5D" fill-opacity="0.57" style="fill:#FD5D5D;fill:color(display-p3 0.9922 0.3647 0.3647);fill-opacity:0.57;"/>
<path d="M90.3948 163.975H71.0663C69.5459 163.975 68.3135 162.742 68.3135 161.221V145.398C68.3135 143.877 69.546 142.644 71.0663 142.644H90.3948C91.9152 142.644 93.1477 143.877 93.1477 145.398V161.221C93.1477 162.742 91.9152 163.975 90.3948 163.975Z" fill="#FD5D5D" fill-opacity="0.57" style="fill:#FD5D5D;fill:color(display-p3 0.9922 0.3647 0.3647);fill-opacity:0.57;"/>
<path d="M71.0662 163.975H90.3945C91.9151 163.975 93.1475 162.742 93.1475 161.221V145.399C93.1475 143.877 91.9151 142.644 90.3945 142.644H71.0662C70.5651 142.644 70.0963 142.78 69.6913 143.014C69.245 145.102 68.7806 147.307 68.3135 149.548V161.221C68.3135 162.742 69.5458 163.975 71.0662 163.975Z" fill="#FD5D5D" fill-opacity="0.57" style="fill:#FD5D5D;fill:color(display-p3 0.9922 0.3647 0.3647);fill-opacity:0.57;"/>
<path d="M181.218 132.888H161.89C160.369 132.888 159.137 131.655 159.137 130.134V114.311C159.137 112.79 160.369 111.557 161.89 111.557H181.218C182.738 111.557 183.971 112.79 183.971 114.311V130.134C183.971 131.655 182.738 132.888 181.218 132.888Z" fill="#FD5D5D" fill-opacity="0.57" style="fill:#FD5D5D;fill:color(display-p3 0.9922 0.3647 0.3647);fill-opacity:0.57;"/>
<path d="M160.973 132.729C160.439 131.728 159.82 130.798 159.137 129.929V130.134C159.137 131.333 159.904 132.35 160.973 132.729Z" fill="#FD5D5D" fill-opacity="0.57" style="fill:#FD5D5D;fill:color(display-p3 0.9922 0.3647 0.3647);fill-opacity:0.57;"/>
<path d="M103.761 50.7337H97.2317C96.8318 50.7337 96.5075 50.4093 96.5075 50.0091C96.5075 49.6089 96.8318 49.2844 97.2317 49.2844H103.761C104.161 49.2844 104.485 49.6089 104.485 50.0091C104.485 50.4093 104.161 50.7337 103.761 50.7337ZM82.487 50.7337H76.7624C76.3624 50.7337 76.0382 50.4093 76.0382 50.0091C76.0382 49.6089 76.3624 49.2844 76.7624 49.2844H82.487C82.887 49.2844 83.2112 49.6089 83.2112 50.0091C83.2112 50.4093 82.887 50.7337 82.487 50.7337ZM62.2958 50.7337H55.0755C54.6756 50.7337 54.3514 50.4093 54.3514 50.0091C54.3514 49.6089 54.6756 49.2844 55.0755 49.2844H62.2959C62.6958 49.2844 63.0201 49.6089 63.0201 50.0091C63.0201 50.4093 62.6958 50.7337 62.2958 50.7337ZM29.8135 79.07C29.4136 79.07 29.0894 78.7455 29.0894 78.3453V57.6727C29.0894 53.0474 32.8499 49.2844 37.4723 49.2844H41.46C41.8599 49.2844 42.1842 49.6089 42.1842 50.0091C42.1842 50.4093 41.8599 50.7337 41.46 50.7337H37.4723C33.6485 50.7337 30.5377 53.8465 30.5377 57.6727V78.3454C30.5377 78.7456 30.2135 79.07 29.8135 79.07Z" fill="#DC2626" style="fill:#DC2626;fill:color(display-p3 0.8627 0.1490 0.1490);fill-opacity:1;"/>
<path d="M48.1988 56.2541C46.0203 56.2541 44.2544 54.487 44.2544 52.3072V47.7116C44.2544 45.5317 46.0203 43.7646 48.1988 43.7646C50.3772 43.7646 52.1432 45.5317 52.1432 47.7116V52.3072C52.1432 54.487 50.3772 56.2541 48.1988 56.2541ZM69.0469 56.2541C66.8684 56.2541 65.1025 54.487 65.1025 52.3072V47.7116C65.1025 45.5317 66.8684 43.7646 69.0469 43.7646C71.2253 43.7646 72.9913 45.5317 72.9913 47.7116V52.3072C72.9913 54.487 71.2253 56.2541 69.0469 56.2541ZM89.8949 56.2541C87.7164 56.2541 85.9504 54.487 85.9504 52.3072V47.7116C85.9504 45.5317 87.7164 43.7646 89.8948 43.7646C92.0733 43.7646 93.8392 45.5317 93.8392 47.7116V52.3072C93.8393 54.487 92.0733 56.2541 89.8949 56.2541ZM110.743 56.2541C108.564 56.2541 106.798 54.487 106.798 52.3072V47.7116C106.798 45.5317 108.564 43.7646 110.743 43.7646C112.921 43.7646 114.687 45.5317 114.687 47.7116V52.3072C114.687 54.487 112.921 56.2541 110.743 56.2541ZM131.591 56.2541C129.413 56.2541 127.647 54.487 127.647 52.3072V47.7116C127.647 45.5317 129.413 43.7646 131.591 43.7646C133.769 43.7646 135.535 45.5317 135.535 47.7116V52.3072C135.535 54.487 133.769 56.2541 131.591 56.2541ZM152.439 56.2541C150.261 56.2541 148.495 54.487 148.495 52.3072V47.7116C148.495 45.5317 150.26 43.7646 152.439 43.7646C154.617 43.7646 156.383 45.5317 156.383 47.7116V52.3072C156.383 54.487 154.617 56.2541 152.439 56.2541ZM173.287 56.2541C171.109 56.2541 169.343 54.487 169.343 52.3072V47.7116C169.343 45.5317 171.109 43.7646 173.287 43.7646C175.465 43.7646 177.231 45.5317 177.231 47.7116V52.3072C177.231 54.487 175.465 56.2541 173.287 56.2541Z" fill="#DC2626" style="fill:#DC2626;fill:color(display-p3 0.8627 0.1490 0.1490);fill-opacity:1;"/>
<path d="M134.763 138.833C133.554 132.75 137.502 126.837 143.582 125.627C149.662 124.417 155.57 128.368 156.779 134.452C156.828 134.695 156.867 134.938 156.899 135.18L168.924 181.999C169.704 185.924 167.157 189.739 163.234 190.519C159.312 191.3 155.5 188.751 154.72 184.826L135.658 141.521C135.256 140.685 134.952 139.785 134.763 138.833Z" fill="#F6AF9A" style="fill:#F6AF9A;fill:color(display-p3 0.9647 0.6863 0.6039);fill-opacity:1;"/>
<path d="M154.246 127.692C154.246 127.692 156.996 129.932 159.931 141.903C162.867 153.874 169.738 173.807 170.338 179.945C170.937 186.083 168.091 192.271 162.798 192.542C157.506 192.812 151.615 186.046 146.482 174.638C141.349 163.229 132.35 141.409 132.58 135.299C132.809 129.189 141.231 118.298 154.246 127.692Z" fill="white" style="fill:white;fill-opacity:1;"/>
<path d="M158.047 175.873C153.513 175.636 156.245 170.19 155.692 160.701C155.211 152.438 152.223 138.617 152.223 138.617L137.961 153.208C137.903 153.377 137.849 153.547 137.798 153.717C140.609 161.155 143.999 169.116 146.483 174.637C148.883 179.971 151.449 184.29 154.042 187.35C154.147 187.356 154.253 187.361 154.36 187.363C157.791 182.366 160.86 176.02 158.047 175.873Z" fill="#D4E8FC" style="fill:#D4E8FC;fill:color(display-p3 0.8314 0.9098 0.9882);fill-opacity:1;"/>
<path d="M97.9027 137.825C98.6315 131.665 94.2319 126.08 88.0761 125.351C81.9202 124.622 76.3392 129.024 75.6104 135.184C75.5813 135.43 75.5613 135.675 75.5484 135.919L71.4059 184.947C70.9357 188.921 73.7741 192.524 77.7456 192.995C81.717 193.465 85.3177 190.625 85.7879 186.651L97.2204 140.575C97.5557 139.71 97.7886 138.789 97.9027 137.825Z" fill="#F6AF9A" style="fill:#F6AF9A;fill:color(display-p3 0.9647 0.6863 0.6039);fill-opacity:1;"/>
<path d="M91.7799 173.74C89.218 183.552 85.6572 190.439 81.5973 193.024C80.6483 193.629 79.6719 193.999 78.6747 194.115C77.1905 194.289 75.8191 193.966 74.6061 193.275C71.5177 191.516 69.4518 187.369 69.142 182.952C68.711 176.801 72.1645 156 73.0646 143.707C73.9647 131.413 77.0606 129.996 77.0606 129.996C88.3286 118.562 97.6889 126.646 98.9336 132.632C100.178 138.618 94.9408 161.634 91.7799 173.74Z" fill="white" style="fill:white;fill-opacity:1;"/>
<path d="M86.0247 171.659C85.9984 172.563 85.8384 173.439 85.5593 174.267C85.2405 175.216 84.7655 176.104 84.1584 176.903C83.8584 177.297 83.5267 177.669 83.1649 178.016C83.1638 178.018 83.1622 178.019 83.1612 178.02C82.6877 178.473 82.1644 178.883 81.5965 179.242V193.024C80.6476 193.629 79.6712 193.999 78.6739 194.115C77.1898 194.289 75.8184 193.966 74.6054 193.275C74.6011 192.797 74.5973 192.319 74.5947 191.839C74.556 185.774 74.6242 179.64 74.7649 174.077C74.7804 173.46 74.7971 172.85 74.8142 172.248C74.8153 172.205 74.8169 172.163 74.818 172.12C75.0573 166.31 76.1797 158.064 77.5087 149.869C78.0234 146.696 78.5687 143.531 79.1061 140.518C79.1066 140.513 79.1077 140.509 79.1082 140.506C79.1592 140.221 79.2097 139.937 79.2601 139.656C80.0953 135.002 80.901 130.753 81.5284 127.456C81.5289 127.452 81.53 127.449 81.53 127.445C81.5397 127.397 81.5488 127.348 81.5579 127.3C81.5751 127.212 81.5912 127.125 81.6078 127.039L81.617 127.231C81.617 127.234 81.6186 127.274 81.6223 127.346V127.351C81.7018 129.056 82.5976 148.287 82.6014 148.379C82.3239 149.859 82.2944 151.377 82.4253 152.913C82.7222 156.386 83.8375 159.949 84.7527 163.371C85.5319 166.286 86.1653 169.096 86.0247 171.659Z" fill="#D4E8FC" style="fill:#D4E8FC;fill:color(display-p3 0.8314 0.9098 0.9882);fill-opacity:1;"/>
<path d="M85.1642 180.74C85.1514 183.735 84.9211 186.833 84.5368 189.945C84.5197 190.087 84.5019 190.229 84.4837 190.37C83.9303 194.701 83.0849 199.052 82.1198 203.187C82.1193 203.191 82.1182 203.194 82.1177 203.197C81.9475 203.926 81.7736 204.648 81.597 205.362C81.5793 205.434 81.5616 205.505 81.5433 205.577H70.4965C70.2722 200.068 70.3044 193.418 70.4322 188.274C70.8337 181.907 69.9942 178.825 72.1433 176.222C72.745 175.493 73.5817 174.802 74.746 174.086L74.7653 174.077C76.2639 173.325 77.8731 173.18 79.3674 173.503C80.8037 173.814 82.1343 174.558 83.1584 175.611C83.1595 175.613 83.1606 175.614 83.1617 175.615C83.5395 176.004 83.875 176.435 84.1589 176.902C84.8304 178.008 85.2099 179.315 85.1642 180.74Z" fill="#F6AF9A" style="fill:#F6AF9A;fill:color(display-p3 0.9647 0.6863 0.6039);fill-opacity:1;"/>
<path d="M87.766 183.958C87.6308 184.594 87.488 185.251 87.3388 185.924C85.9486 192.204 84.0228 199.95 82.7313 205.577H68.8602C68.9525 199.387 68.011 190.421 69.1549 183.117C69.6728 179.812 70.6175 176.849 72.2777 174.636C72.9856 173.692 73.824 172.885 74.8154 172.247C76.0762 171.435 77.5845 170.895 79.3864 170.694C80.7717 170.798 82.0164 171.247 83.1001 171.943C83.1012 171.944 83.1023 171.944 83.1028 171.945C84.0486 172.553 84.8724 173.348 85.5606 174.267C86.5874 175.637 87.3125 177.28 87.692 178.98C88.066 180.654 88.1047 182.383 87.766 183.958Z" fill="white" style="fill:white;fill-opacity:1;"/>
<path d="M85.5593 174.267C85.2405 175.216 84.7655 176.104 84.1584 176.902C83.8584 177.296 83.5267 177.669 83.1649 178.015C83.1638 178.017 83.1622 178.018 83.1612 178.019C82.6877 178.473 82.1644 178.883 81.5965 179.242V205.577H74.8931C74.7359 201.681 74.6441 197.506 74.6054 193.274C74.6011 192.797 74.5973 192.318 74.5947 191.839C74.556 185.774 74.6242 179.64 74.7649 174.076C74.7804 173.459 74.7971 172.849 74.8142 172.247C76.075 171.435 77.5833 170.895 79.3852 170.694C80.7705 170.798 82.0152 171.247 83.0989 171.943C83.1 171.944 83.1011 171.944 83.1016 171.945C84.0473 172.553 84.8712 173.348 85.5593 174.267Z" fill="#D4E8FC" style="fill:#D4E8FC;fill:color(display-p3 0.8314 0.9098 0.9882);fill-opacity:1;"/>
<path d="M141.754 178.366C143.88 171.801 145.304 157.333 145.304 157.333C145.304 157.333 139.302 154.039 114.719 154.039C90.3093 154.004 83.9307 157.351 84.047 157.333C84.047 157.333 85.4717 171.801 87.5973 178.366C89.723 184.932 86.9579 189.748 86.311 194.187C84.1665 205.325 145.195 205.323 143.04 194.186C142.393 189.748 139.628 184.932 141.754 178.366Z" fill="#F6AF9A" style="fill:#F6AF9A;fill:color(display-p3 0.9647 0.6863 0.6039);fill-opacity:1;"/>
<path d="M100.115 121.024C94.3944 123.635 84.6644 125.505 83.0008 126.245C81.3373 126.985 74.0529 133.231 84.9581 159.587C92.9446 176.204 107.818 168.133 118.496 169.642C134.521 171.966 139.561 169.207 144.282 159.587C155.187 133.231 149.18 126.203 147.517 125.463C145.853 124.723 134.752 123.832 129.126 121.024C118.422 116.536 111.033 117.104 100.115 121.024Z" fill="#F6AF9A" style="fill:#F6AF9A;fill:color(display-p3 0.9647 0.6863 0.6039);fill-opacity:1;"/>
<path d="M123.644 118.735C123.723 130.055 106.018 129.943 106.043 118.727C106.201 117.453 106.386 103.974 107.927 103.259C110.404 97.2697 119.389 97.2256 121.896 103.259C123.442 104.148 123.527 116.046 123.644 118.735Z" fill="#F6AF9A" style="fill:#F6AF9A;fill:color(display-p3 0.9647 0.6863 0.6039);fill-opacity:1;"/>
<path d="M123.498 115.23C117.356 120.639 112.669 120.128 106.298 114.992C106.426 111.678 106.542 104.488 107.927 103.259C110.404 97.2687 119.39 97.2265 121.896 103.259C123.372 104.841 123.379 111.503 123.498 115.23Z" fill="#EA9A88" style="fill:#EA9A88;fill:color(display-p3 0.9176 0.6039 0.5333);fill-opacity:1;"/>
<path d="M114.836 68.3357C114.836 68.3357 134.323 67.0394 131.624 91.1308C128.925 115.222 116.509 116.411 114.836 116.519C113.162 116.411 100.746 115.222 98.0471 91.1308C95.348 67.0393 114.836 68.3357 114.836 68.3357Z" fill="#F6AF9A" style="fill:#F6AF9A;fill:color(display-p3 0.9647 0.6863 0.6039);fill-opacity:1;"/>
<path d="M129.325 93.6894C129.325 93.6894 130.909 90.9424 133.05 91.629C134.886 92.2178 134.202 99.1486 130.982 102.326C127.584 105.679 127.746 97.6461 129.325 93.6894Z" fill="#F6AF9A" style="fill:#F6AF9A;fill:color(display-p3 0.9647 0.6863 0.6039);fill-opacity:1;"/>
<path d="M100.752 93.6894C100.752 93.6894 99.1674 90.9424 97.0265 91.629C95.1902 92.2178 95.8746 99.1486 99.0941 102.326C102.492 105.679 102.33 97.6461 100.752 93.6894Z" fill="#F6AF9A" style="fill:#F6AF9A;fill:color(display-p3 0.9647 0.6863 0.6039);fill-opacity:1;"/>
<path d="M114.328 104.018C111.035 104.018 108.365 105.379 108.365 107.058C108.365 108.12 109.433 109.053 111.051 109.597C111.281 109.674 111.527 109.678 111.761 109.615C112.908 109.306 113.3 108.47 113.434 107.914C113.51 107.599 113.8 107.384 114.124 107.384H114.533C114.857 107.384 115.147 107.599 115.223 107.914C115.357 108.47 115.749 109.305 116.896 109.615C117.13 109.678 117.376 109.674 117.606 109.597C119.223 109.053 120.292 108.119 120.292 107.058C120.292 105.379 117.622 104.018 114.328 104.018Z" fill="#F6AF9A" style="fill:#F6AF9A;fill:color(display-p3 0.9647 0.6863 0.6039);fill-opacity:1;"/>
<path d="M96.9485 91.6593C96.9485 91.6593 96.2088 84.068 97.7704 77.8998C96.2482 74.1823 102.476 66.9995 112.934 66.3855C121.269 66.073 124.938 68.0215 125.875 68.6328C126.319 68.8225 126.342 70.1347 126.496 70.4979C126.949 70.2043 127.641 69.4851 128.17 70.0552C133.898 74.413 132.584 88.2202 132.229 91.5196C132.229 91.5196 130.287 91.3311 128.754 97.3217L127.703 96.9203C127.703 96.9203 129.649 87.3371 127.703 82.2175C125.048 81.6894 124.881 81.9528 124.705 78.7942L123.641 79.6194C122.421 80.8744 120.45 78.0428 116.849 78.9485C113.613 79.6886 111.668 81.354 106.754 81.169C103.081 81.0456 102.579 81.4774 102.579 81.4774C99.7334 84.4937 100.404 92.6008 101.398 95.6353L100.19 95.2787C99.8922 94.3733 99.9523 91.4609 96.9485 91.6593Z" fill="#8C4949" style="fill:#8C4949;fill:color(display-p3 0.5490 0.2863 0.2863);fill-opacity:1;"/>
<path d="M97.771 77.8992C99.3505 79.1457 100.881 80.4003 102.579 81.4767C100.557 81.113 98.7743 79.6651 97.771 77.8992Z" fill="#7A4040" style="fill:#7A4040;fill:color(display-p3 0.4784 0.2510 0.2510);fill-opacity:1;"/>
<path d="M150.078 127.313C149.891 144.092 145.141 160.752 144.641 177.544C144.579 179.632 144.588 181.742 144.689 183.813C144.582 187.141 144.749 190.467 145.092 193.759C145.504 197.726 146.171 201.658 146.924 205.577H81.9713C82.2584 200.972 82.5484 196.362 82.771 191.719C83.2253 182.238 83.4036 172.705 82.6524 163.234C82.3597 159.422 81.878 155.669 81.2617 151.93C80.1732 144.845 76.1409 133.885 81.5499 127.422C82.153 126.813 82.8744 126.472 83.6615 126.011C83.8912 125.842 84.128 125.68 84.3727 125.527C87.022 123.876 90.2639 123.144 93.2757 122.521C97.1493 121.542 101.104 120.407 104.931 119.266C105.857 130.965 123.894 130.624 125.096 119.41C129.15 120.594 133.306 121.736 137.44 122.65C139.849 123.304 142.577 123.4 145.006 124.033C147.024 124.541 148.935 125.498 150.078 127.313Z" fill="#5274C7" style="fill:#5274C7;fill:color(display-p3 0.3216 0.4549 0.7804);fill-opacity:1;"/>
<path d="M148.797 125.825C147.696 124.898 146.336 124.379 144.939 124.031C143.024 123.555 141.053 123.396 139.164 123.003C135.741 122.337 132.363 121.443 128.999 120.523C130.326 132.454 130.71 144.345 130.874 156.496C130.876 156.72 130.88 156.944 130.882 157.168C130.883 157.259 130.884 157.351 130.885 157.443C131.079 173.481 130.811 189.554 131.424 205.577H146.924C146.171 201.658 145.504 197.726 145.092 193.76C144.749 190.468 144.582 187.141 144.689 183.813C144.588 181.743 144.579 179.632 144.641 177.544C145.141 160.753 149.891 144.091 150.078 127.313C149.717 126.726 149.285 126.236 148.797 125.825ZM100.468 120.57C99.6942 126.321 99.2191 132.38 98.9458 138.331C97.9101 160.667 99.3944 183.37 97.8809 205.577H81.9707C82.255 200.966 82.5474 196.352 82.771 191.719C83.2305 182.235 83.4066 172.708 82.6524 163.235C82.3569 159.444 81.8772 155.679 81.2617 151.93C80.2183 144.849 75.4122 131.527 82.8929 126.298C83.2637 126.052 83.6405 125.824 84.0233 125.609C84.8739 125.132 85.7536 124.726 86.6565 124.368C91.1051 122.616 95.9467 122.097 100.468 120.57ZM104.443 120.329C102.98 122.402 101.908 128.193 102.289 136.362C102.466 140.145 102.555 142.979 102.567 145.232C102.568 145.356 102.568 145.478 102.568 145.599C102.569 145.86 102.358 146.071 102.096 146.072C101.836 146.072 101.625 145.861 101.625 145.601C101.625 145.467 101.624 145.331 101.623 145.194C101.61 142.962 101.521 140.152 101.346 136.406C101.171 132.659 100.847 123.71 103.739 119.691C103.761 119.661 103.783 119.63 103.805 119.6C104.51 119.392 104.93 119.266 104.93 119.266C104.932 119.291 104.933 119.316 104.934 119.341C104.94 119.451 104.948 119.559 104.959 119.667C104.787 119.866 104.614 120.086 104.443 120.329Z" fill="#405FAD" style="fill:#405FAD;fill:color(display-p3 0.2510 0.3725 0.6784);fill-opacity:1;"/>
<path d="M106.115 169.297C105.693 169.308 105.473 168.736 105.809 168.466C111.269 163.666 109.961 147.663 102.053 146.075C98.4149 146.678 95.5094 150.843 94.7066 155.415C93.4886 160.736 95.5674 166.019 97.7175 168.507C97.8922 168.7 97.8779 168.999 97.6852 169.174C97.4925 169.349 97.1946 169.335 97.0192 169.143C91.9388 163.9 92.3337 151.036 98.5864 146.622C101.926 144.555 102.409 144.605 105.753 147.014C111.608 151.789 111.343 165.671 106.115 169.297ZM132.353 173.803C132.168 179.171 131.459 182.966 131.452 183.004C131.406 183.252 131.161 183.414 130.92 183.366C130.673 183.319 130.51 183.081 130.557 182.834C130.564 182.797 131.263 179.057 131.444 173.754C131.611 168.872 131.36 161.627 129.222 154.837C127.892 150.614 127.618 148.188 128.198 135.756C128.427 127.126 127.412 122.476 125.085 119.783C125.092 119.66 125.096 119.536 125.096 119.41C125.252 119.457 125.603 119.56 126.255 119.749C127.428 121.202 128.053 124.155 128.599 126.414C129.206 129.012 129.276 132.183 129.108 135.798C128.534 148.085 128.799 150.464 130.09 154.564C132.269 161.482 132.523 168.845 132.353 173.803Z" fill="#405FAD" style="fill:#405FAD;fill:color(display-p3 0.2510 0.3725 0.6784);fill-opacity:1;"/>
<path d="M114.905 130.383C110.149 130.383 105.71 127.654 103.535 123.366C103.445 123.189 103.516 122.973 103.692 122.884C103.868 122.794 104.084 122.865 104.174 123.041C106.27 127.174 110.59 129.773 115.185 129.662C119.647 129.555 123.662 126.984 125.664 122.952C125.752 122.775 125.967 122.703 126.144 122.791C126.322 122.879 126.394 123.094 126.306 123.271C124.185 127.542 119.931 130.266 115.203 130.379C115.103 130.381 115.004 130.383 114.905 130.383Z" fill="#405FAD" style="fill:#405FAD;fill:color(display-p3 0.2510 0.3725 0.6784);fill-opacity:1;"/>
<path d="M98.6573 120.887C96.5914 131.004 96.8588 141.719 96.7792 152.059C96.6099 169.859 96.1344 187.778 95.6285 205.577H78.1456C78.7643 194.055 79.3506 182.255 79.3854 170.694C79.387 169.992 79.3865 169.291 79.3843 168.592C80.2483 156.845 76.5177 135.647 78.0526 132.109C78.9845 129.723 80.7946 127.473 82.8292 125.981C87.167 123.107 91.3229 121.946 98.6573 120.887ZM152.249 138.746C152.309 133.586 152.122 129.41 150.707 125.595C150.648 125.557 150.584 125.515 150.513 125.471C149.585 124.896 147.5 123.853 141.417 122.432C133.916 120.718 130.622 120.887 130.622 120.887C130.626 120.914 130.63 120.94 130.633 120.967C132.156 131.037 132.614 143.654 132.791 156.029C133.054 172.52 132.694 189.133 133.638 205.577H151.076C150.585 195.772 150.061 185.768 149.925 175.915C149.318 163.357 151.564 154.949 152.249 138.746Z" fill="white" style="fill:white;fill-opacity:1;"/>
<path d="M130.977 154.099C129.686 149.999 129.421 147.62 129.995 135.333C130.163 131.718 129.941 128.568 129.333 125.97C128.841 123.866 128.095 122.112 127.116 120.758C125.76 118.88 124.236 118.249 123.621 118.061L123.639 119.029C124.257 119.287 125.427 119.942 126.437 121.373C127.848 123.372 129.453 127.41 129.085 135.29C128.505 147.723 128.779 150.149 130.109 154.372C132.247 161.162 132.497 168.407 132.331 173.289C132.15 178.592 131.451 182.332 131.444 182.369C131.397 182.616 131.56 182.855 131.807 182.901C131.835 182.907 131.864 182.909 131.892 182.909C132.106 182.909 132.297 182.757 132.339 182.539C132.346 182.501 133.055 178.706 133.24 173.338C133.41 168.38 133.156 161.017 130.977 154.099Z" fill="#323C7A" style="fill:#323C7A;fill:color(display-p3 0.1961 0.2353 0.4784);fill-opacity:1;"/>
<path d="M131.892 182.909C131.864 182.909 131.835 182.907 131.807 182.901C131.56 182.854 131.397 182.616 131.444 182.369C131.456 182.306 132.642 175.929 132.317 167.945C132.307 167.693 132.502 167.481 132.753 167.471C133.003 167.459 133.216 167.656 133.226 167.907C133.556 176.002 132.351 182.474 132.339 182.539C132.297 182.757 132.106 182.909 131.892 182.909Z" fill="#323C7A" style="fill:#323C7A;fill:color(display-p3 0.1961 0.2353 0.4784);fill-opacity:1;"/>
<path d="M133.852 182.89C133.549 185.311 131.553 187.358 131.553 187.358C131.553 187.358 130.706 187.367 130.579 187.351C129.103 187.166 128.175 184.869 128.506 182.22C128.838 179.572 130.303 177.575 131.78 177.76C131.821 177.765 132.502 177.754 132.502 177.754C132.502 177.754 134.175 180.315 133.852 182.89Z" fill="#293263" style="fill:#293263;fill:color(display-p3 0.1608 0.1961 0.3882);fill-opacity:1;"/>
<path d="M134.626 182.906C134.957 180.257 134.029 177.96 132.553 177.775C131.076 177.59 129.611 179.587 129.279 182.236C128.948 184.884 129.876 187.181 131.352 187.366C132.828 187.551 134.294 185.554 134.626 182.906Z" fill="#323C7A" style="fill:#323C7A;fill:color(display-p3 0.1961 0.2353 0.4784);fill-opacity:1;"/>
<path d="M151.98 200.76C148.877 188.034 145.766 175.258 142.671 162.561C141.926 159.501 141.241 156.692 140.526 153.761C140.332 152.947 139.649 152.379 138.876 152.271C138.343 152.197 137.885 152.382 137.34 152.496C126.448 155.095 114.472 158.195 103.542 160.751C102.483 161.01 101.833 162.079 102.092 163.14C102.486 164.727 103.285 168.066 103.832 170.285C106.494 181.188 109.725 194.451 112.433 205.576H140.576C140.782 205.525 140.932 205.489 140.936 205.489C141.597 205.315 142.215 205.163 142.956 204.986C145.35 204.408 148.783 203.65 150.947 202.986C151.757 202.606 152.199 201.662 151.98 200.76Z" fill="#303C72" style="fill:#303C72;fill:color(display-p3 0.1882 0.2353 0.4471);fill-opacity:1;"/>
<path d="M150.99 202.973C148.758 203.56 144.02 204.722 141.323 205.388C141.053 205.455 140.795 205.518 140.558 205.576H112.434C111.789 202.934 110.824 198.97 110.277 196.725C120.67 190.78 132.068 184.252 142.446 178.319L143.016 177.991C143.853 177.762 145.32 177.355 146.216 177.109C147.473 182.262 148.876 188.028 150.156 193.273C150.618 195.173 150.952 196.539 151.388 198.33C151.549 198.989 151.709 199.648 151.87 200.306C152.242 201.308 151.959 202.482 150.99 202.973Z" fill="#183261" style="fill:#183261;fill:color(display-p3 0.0941 0.1961 0.3804);fill-opacity:1;"/>
<path d="M147.634 196.944L115.86 204.696L115.854 204.698L112.215 189.766L105.61 162.662L127.887 157.226L137.369 154.913L137.39 154.907L147.634 196.944Z" fill="#DEECFA" style="fill:#DEECFA;fill:color(display-p3 0.8706 0.9255 0.9804);fill-opacity:1;"/>
<path d="M137.39 154.907L127.762 168.239L112.215 189.766L105.61 162.662L137.39 154.907Z" fill="#FCFFFF" style="fill:#FCFFFF;fill:color(display-p3 0.9882 1.0000 1.0000);fill-opacity:1;"/>
<path d="M109.932 161.607C109.534 164.44 108.558 166.978 107.043 168.542L106.78 167.464C107.881 166.022 108.6 164.035 108.94 161.849L109.932 161.607Z" fill="#DEECFA" style="fill:#DEECFA;fill:color(display-p3 0.8706 0.9255 0.9804);fill-opacity:1;"/>
<path d="M128.953 157.512L114.802 160.965C114.447 161.051 114.089 160.833 114.003 160.478L113.552 158.628C113.411 158.051 113.764 157.47 114.34 157.328L114.395 157.314L127.69 154.07C128.266 153.929 128.847 154.282 128.988 154.859L129.439 156.712C129.526 157.068 129.308 157.426 128.953 157.512Z" fill="#B3D2FF" style="fill:#B3D2FF;fill:color(display-p3 0.7020 0.8235 1.0000);fill-opacity:1;"/>
<path d="M122.424 159.105C121.513 159.327 119.486 159.821 118.593 160.039L114.395 157.314C115.281 157.098 117.322 156.6 118.227 156.379L122.424 159.105ZM126.524 158.104C126.209 158.181 124.823 158.519 124.482 158.602L120.283 155.877C120.633 155.791 122.003 155.457 122.326 155.378L126.524 158.104Z" fill="#C2DBFF" style="fill:#C2DBFF;fill:color(display-p3 0.7608 0.8588 1.0000);fill-opacity:1;"/>
<path d="M157.673 177.09C161.858 176.668 165.591 179.722 166.012 183.909C166.433 188.097 163.382 191.833 159.197 192.254C159.197 192.254 150.744 193.336 141.182 194.089C131.619 194.841 120.504 194.914 120.504 194.914C118.202 195.146 116.149 193.466 115.917 191.163C115.686 188.86 117.364 186.805 119.666 186.573C119.666 186.573 127.903 184.408 135.084 181.992C142.265 179.575 151.359 177.605 157.673 177.09Z" fill="#F6AF9A" style="fill:#F6AF9A;fill:color(display-p3 0.9647 0.6863 0.6039);fill-opacity:1;"/>
<path d="M120.777 184.742C120.777 184.742 115.739 181.82 114.67 181.182C113.601 180.545 111.183 180.863 110.452 181.182C109.721 181.502 108.423 183.417 108.423 183.417C108.423 183.417 118.155 185.519 120.777 184.742Z" fill="#EA9A88" style="fill:#EA9A88;fill:color(display-p3 0.9176 0.6039 0.5333);fill-opacity:1;"/>
<path d="M125.552 184.94C125.552 184.94 121.214 184.794 119.133 184.415C117.052 184.035 113.452 182.33 112.046 182.198C110.64 182.066 105.072 184.21 104.229 184.742C103.385 185.273 103.948 187.073 104.791 187.102C104.791 187.102 103.799 189.888 105.701 190.507C105.701 190.507 105.185 193.204 106.985 193.656C106.985 193.656 106.76 194.996 108.559 196.156C109.125 196.521 109.744 196.804 110.327 197.022L110.301 195.994C110.301 195.994 112.89 195.685 113.79 195.825C114.69 195.966 118.233 196.862 120.37 196.47C122.507 196.079 124.122 195.698 126.306 195.361C128.49 195.023 125.552 184.94 125.552 184.94Z" fill="#F6AF9A" style="fill:#F6AF9A;fill:color(display-p3 0.9647 0.6863 0.6039);fill-opacity:1;"/>
<path d="M104.792 187.101C106.963 186.404 110.611 183.993 112.604 185.344C109.947 185.242 107.203 186.695 104.792 187.101ZM105.702 190.507C108.211 189.903 111.143 188.03 113.619 188.986C111.075 189.226 108.088 190.205 105.702 190.507ZM106.985 193.656C109.463 193.078 112.395 191.111 114.798 192.335C112.152 192.317 109.428 193.381 106.985 193.656Z" fill="#E57E73" style="fill:#E57E73;fill:color(display-p3 0.8980 0.4941 0.4510);fill-opacity:1;"/>
<path d="M167.272 190.487C167.272 190.487 165.419 193.322 155.221 195.069C145.932 196.661 126.622 197.396 126.622 197.396C126.622 197.396 125.629 193.103 125.352 190.18C125.076 187.257 125.352 183.982 125.352 183.982C125.352 183.982 126.445 183.366 130.188 182.266C133.931 181.167 146.519 176.897 154.079 174.635C157.258 173.685 160.786 174.19 163.584 175.667C167.443 177.704 169.018 186.028 167.272 190.487Z" fill="white" style="fill:white;fill-opacity:1;"/>
<path d="M106.077 118.049C105.402 118.285 104.022 118.952 102.725 120.748C101.71 122.152 100.937 123.97 100.427 126.151C99.7969 128.844 99.5663 132.109 99.7412 135.856C99.927 139.834 100.015 142.756 100.019 145.051C100.02 145.312 100.231 145.522 100.491 145.522C100.753 145.522 100.964 145.31 100.963 145.049C100.959 142.739 100.87 139.804 100.684 135.812C100.302 127.643 101.966 123.458 103.429 121.386C104.406 120.002 105.423 119.36 106.047 119.073L106.077 118.049Z" fill="#323C7A" style="fill:#323C7A;fill:color(display-p3 0.1961 0.2353 0.4784);fill-opacity:1;"/>
<path d="M106.164 177.848C105.579 177.864 105.275 177.071 105.739 176.698C113.294 170.057 111.485 147.916 100.543 145.72C95.5097 146.554 91.4899 152.316 90.3792 158.642C88.6939 166.003 91.5701 173.313 94.5448 176.756C94.7865 177.022 94.7667 177.435 94.5001 177.678C94.2335 177.92 93.8213 177.901 93.5787 177.634C86.5497 170.38 87.0961 152.583 95.747 146.476C100.367 143.616 101.035 143.686 105.663 147.018C113.763 153.625 113.396 172.831 106.164 177.848Z" fill="#323C7A" style="fill:#323C7A;fill:color(display-p3 0.1961 0.2353 0.4784);fill-opacity:1;"/>
<path d="M98.0409 179.647C97.4973 180.536 96.3364 180.816 95.4479 180.272C94.5595 179.728 93.0428 177.809 93.5864 176.92C94.13 176.031 96.5279 176.509 97.4164 177.053C98.3049 177.596 98.5844 178.758 98.0409 179.647ZM102.236 179.647C102.779 180.536 103.94 180.816 104.829 180.272C105.717 179.728 107.234 177.809 106.69 176.92C106.147 176.031 103.749 176.509 102.86 177.053C101.972 177.596 101.692 178.758 102.236 179.647Z" fill="#323C7A" style="fill:#323C7A;fill:color(display-p3 0.1961 0.2353 0.4784);fill-opacity:1;"/>
</g>
<defs>
<filter id="filter0_d_263_59" x="27.9463" y="47.7295" width="165.494" height="125.679" filterUnits="userSpaceOnUse" color-interpolation-filters="sRGB">
<feFlood flood-opacity="0" result="BackgroundImageFix"/>
<feColorMatrix in="SourceAlpha" type="matrix" values="0 0 0 0 0 0 0 0 0 0 0 0 0 0 0 0 0 0 127 0" result="hardAlpha"/>
<feOffset/>
<feGaussianBlur stdDeviation="0.954821"/>
<feComposite in2="hardAlpha" operator="out"/>
<feColorMatrix type="matrix" values="0 0 0 0 0 0 0 0 0 0 0 0 0 0 0 0 0 0 0.25 0"/>
<feBlend mode="normal" in2="BackgroundImageFix" result="effect1_dropShadow_263_59"/>
<feBlend mode="normal" in="SourceGraphic" in2="effect1_dropShadow_263_59" result="shape"/>
</filter>
<filter id="filter1_d_263_59" x="27.9033" y="48.0996" width="165.494" height="125.679" filterUnits="userSpaceOnUse" color-interpolation-filters="sRGB">
<feFlood flood-opacity="0" result="BackgroundImageFix"/>
<feColorMatrix in="SourceAlpha" type="matrix" values="0 0 0 0 0 0 0 0 0 0 0 0 0 0 0 0 0 0 127 0" result="hardAlpha"/>
<feOffset/>
<feGaussianBlur stdDeviation="0.954821"/>
<feComposite in2="hardAlpha" operator="out"/>
<feColorMatrix type="matrix" values="0 0 0 0 0 0 0 0 0 0 0 0 0 0 0 0 0 0 0.25 0"/>
<feBlend mode="normal" in2="BackgroundImageFix" result="effect1_dropShadow_263_59"/>
<feBlend mode="normal" in="SourceGraphic" in2="effect1_dropShadow_263_59" result="shape"/>
</filter>
</defs>
</svg>
