<svg width="35" height="36" viewBox="0 0 35 36" fill="none" xmlns="http://www.w3.org/2000/svg">
<mask id="mask0_1073_484" style="mask-type:alpha" maskUnits="userSpaceOnUse" x="0" y="0" width="35" height="36">
<rect y="0.839844" width="34.98" height="34.98" fill="#D9D9D9" style="fill:#D9D9D9;fill:color(display-p3 0.8510 0.8510 0.8510);fill-opacity:1;"/>
</mask>
<g mask="url(#mask0_1073_484)">
<rect x="15.001" y="0.839844" width="25" height="25" rx="4.94859" transform="rotate(36.6196 15.001 0.839844)" fill="#FFE0E0" style="fill:#FFE0E0;fill:color(display-p3 1.0000 0.8771 0.8771);fill-opacity:1;"/>
<path d="M3.41164 12.3771C3.63721 12.3771 3.82229 12.192 3.82229 11.9664V9.55453C3.82229 9.17857 4.12884 8.86624 4.51058 8.86624H24.1702C24.3957 8.86624 24.5808 8.68115 24.5808 8.45558C24.5808 8.23001 24.3957 8.04492 24.1702 8.04492H4.51058C3.6777 8.04492 3.00098 8.72164 3.00098 9.55453V11.9664C3.00098 12.192 3.18606 12.3771 3.41164 12.3771Z" fill="#DC2626" style="fill:#DC2626;fill:color(display-p3 0.8627 0.1490 0.1490);fill-opacity:1;"/>
<path d="M13.1344 19.1963C13.1344 18.9707 12.9493 18.7856 12.7238 18.7856H4.51058C4.13463 18.7856 3.82229 18.4791 3.82229 18.0974V13.7305C3.82229 13.5049 3.63721 13.3198 3.41164 13.3198C3.18606 13.3198 3.00098 13.5049 3.00098 13.7305V18.0974C3.00098 18.9302 3.6777 19.607 4.51058 19.607H12.718C12.9493 19.607 13.1344 19.4219 13.1344 19.1963Z" fill="#DC2626" style="fill:#DC2626;fill:color(display-p3 0.8627 0.1490 0.1490);fill-opacity:1;"/>
<path d="M28.2929 12.4868C28.0674 12.4868 27.8823 12.6719 27.8823 12.8975V18.0914C27.8823 18.4674 27.5757 18.7797 27.194 18.7797H18.5181C18.2925 18.7797 18.1074 18.9648 18.1074 19.1904C18.1074 19.416 18.2925 19.6011 18.5181 19.6011H27.1882C28.0211 19.6011 28.6978 18.9243 28.6978 18.0914V12.8975C28.7036 12.6719 28.5185 12.4868 28.2929 12.4868Z" fill="#DC2626" style="fill:#DC2626;fill:color(display-p3 0.8627 0.1490 0.1490);fill-opacity:1;"/>
<path d="M21.2139 12.6201V15.0262C21.2139 15.2518 21.399 15.4369 21.6245 15.4369C21.8501 15.4369 22.0352 15.2518 22.0352 15.0262V12.6201C22.0352 12.3946 21.8501 12.2095 21.6245 12.2095C21.399 12.2095 21.2139 12.3946 21.2139 12.6201Z" fill="black" style="fill:black;fill-opacity:1;"/>
<path d="M25.5513 15.4426H26.5577C26.7833 15.4426 26.9683 15.2575 26.9683 15.0319C26.9683 14.8063 26.7833 14.6213 26.5577 14.6213H25.9619V14.2511H26.4825C26.7081 14.2511 26.8932 14.066 26.8932 13.8404C26.8932 13.6149 26.7081 13.4298 26.4825 13.4298H25.9619V13.0596H26.5577C26.7833 13.0596 26.9683 12.8745 26.9683 12.6489C26.9683 12.4234 26.7833 12.2383 26.5577 12.2383H25.5513C25.3257 12.2383 25.1406 12.4234 25.1406 12.6489V15.0377C25.1406 15.2575 25.3257 15.4426 25.5513 15.4426Z" fill="black" style="fill:black;fill-opacity:1;"/>
<path d="M11.6066 12.2095H10.9068C10.6812 12.2095 10.4961 12.3946 10.4961 12.6201V15.0262C10.4961 15.1361 10.5424 15.2403 10.6176 15.3154C10.6927 15.3906 10.7969 15.4369 10.9068 15.4369C10.9068 15.4369 11.5488 15.4369 11.7281 15.4369C12.3122 15.4369 12.7865 14.9626 12.7865 14.3784C12.7865 14.0777 12.6593 13.8116 12.4626 13.615C12.532 13.4819 12.5725 13.3316 12.5725 13.1754C12.5725 12.6433 12.1387 12.2095 11.6066 12.2095ZM11.6066 13.0308C11.6876 13.0308 11.7512 13.0944 11.7512 13.1754C11.7512 13.2564 11.6876 13.32 11.6066 13.32C11.5546 13.32 11.4562 13.32 11.3521 13.32H11.3232V13.0366L11.6066 13.0308ZM11.7281 14.6156C11.6529 14.6156 11.4794 14.6156 11.3174 14.6156V14.1413C11.329 14.1413 11.3405 14.1413 11.3521 14.1413H11.7281C11.8611 14.1413 11.9652 14.2454 11.9652 14.3784C11.9652 14.5115 11.8553 14.6156 11.7281 14.6156Z" fill="black" style="fill:black;fill-opacity:1;"/>
<path d="M23.6144 12.2095H22.9146C22.689 12.2095 22.5039 12.3946 22.5039 12.6201V15.0262C22.5039 15.1361 22.5502 15.2403 22.6254 15.3154C22.7006 15.3906 22.8047 15.4369 22.9146 15.4369C22.9146 15.4369 23.5566 15.4369 23.7359 15.4369C24.3201 15.4369 24.7943 14.9626 24.7943 14.3784C24.7943 14.0777 24.6671 13.8116 24.4704 13.615C24.5399 13.4819 24.5803 13.3316 24.5803 13.1754C24.5803 12.6433 24.1465 12.2095 23.6144 12.2095ZM23.6144 13.0308C23.6954 13.0308 23.759 13.0944 23.759 13.1754C23.759 13.2564 23.6954 13.32 23.6144 13.32C23.5624 13.32 23.464 13.32 23.3599 13.32H23.331V13.0366L23.6144 13.0308ZM23.7359 14.6156C23.6607 14.6156 23.4872 14.6156 23.3252 14.6156V14.1413C23.3368 14.1413 23.3484 14.1413 23.3599 14.1413H23.7359C23.8689 14.1413 23.973 14.2454 23.973 14.3784C23.973 14.5115 23.8689 14.6156 23.7359 14.6156Z" fill="black" style="fill:black;fill-opacity:1;"/>
<path d="M17.0894 13.0307C17.2455 13.0307 17.4017 13.077 17.5347 13.1637C17.7256 13.291 17.9801 13.2389 18.1074 13.0539C18.2346 12.863 18.1825 12.6085 17.9975 12.4812C17.7314 12.3019 17.4191 12.2036 17.0952 12.2036C16.2044 12.2036 15.4814 12.9266 15.4814 13.8173C15.4814 14.7081 16.2044 15.431 17.0952 15.431C17.4538 15.431 17.7777 15.3096 18.0322 15.0898C18.0842 15.0435 18.1305 14.9973 18.171 14.9452C18.3156 14.7717 18.2924 14.5114 18.1189 14.3668C17.9454 14.2222 17.6851 14.2453 17.5405 14.4189C17.5232 14.442 17.5058 14.4593 17.4827 14.4767C17.3844 14.5635 17.2513 14.6097 17.0952 14.6097C16.6556 14.6097 16.3028 14.2569 16.3028 13.8173C16.297 13.3893 16.6556 13.0307 17.0894 13.0307Z" fill="black" style="fill:black;fill-opacity:1;"/>
<path d="M5.98491 14.6147C5.77669 14.6147 5.57425 14.5337 5.45279 14.3949C5.30241 14.2272 5.04213 14.2156 4.86861 14.366C4.70088 14.5164 4.68931 14.7766 4.83969 14.9502C5.1231 15.2625 5.53955 15.4418 5.98491 15.4418C6.54595 15.4418 7.02023 15.0774 7.10699 14.58C7.1764 14.1983 7.00867 13.7066 6.33773 13.4579C6.0601 13.3538 5.80561 13.2439 5.70728 13.2034C5.7015 13.1918 5.69571 13.1803 5.69571 13.1571C5.7015 13.1109 5.74199 13.0762 5.81139 13.053C6.08902 12.9663 6.36087 13.1745 6.37243 13.1861C6.54595 13.3307 6.80623 13.3075 6.95083 13.134C7.09543 12.9605 7.07229 12.7002 6.89877 12.5556C6.6732 12.3647 6.14108 12.0929 5.57425 12.2664C5.1983 12.3763 4.93223 12.6771 4.88018 13.0415C4.82812 13.3885 4.97851 13.7182 5.27349 13.9091C5.29084 13.9206 5.30819 13.9322 5.33133 13.938C5.34289 13.9438 5.67836 14.0941 6.0601 14.233C6.21627 14.2908 6.31459 14.3718 6.30303 14.4354C6.28567 14.5106 6.17 14.6147 5.98491 14.6147Z" fill="black" style="fill:black;fill-opacity:1;"/>
<path d="M14.1861 14.6147C13.9779 14.6147 13.7754 14.5337 13.654 14.3949C13.5036 14.2272 13.2433 14.2156 13.0698 14.366C12.902 14.5164 12.8905 14.7766 13.0409 14.9502C13.3243 15.2625 13.7407 15.4418 14.1861 15.4418C14.7471 15.4418 15.2214 15.0774 15.3082 14.58C15.3776 14.1983 15.2098 13.7066 14.5389 13.4579C14.2613 13.3538 14.0068 13.2439 13.9085 13.2034C13.9027 13.1918 13.8969 13.1803 13.8969 13.1571C13.9027 13.1109 13.9432 13.0762 14.0126 13.053C14.2902 12.9663 14.562 13.1745 14.5736 13.1861C14.7471 13.3307 15.0074 13.3075 15.152 13.134C15.2966 12.9605 15.2735 12.7002 15.0999 12.5556C14.8744 12.3647 14.3422 12.0929 13.7754 12.2664C13.3995 12.3763 13.1334 12.6771 13.0814 13.0415C13.0293 13.3885 13.1797 13.7182 13.4747 13.9091C13.492 13.9206 13.5094 13.9322 13.5325 13.938C13.5441 13.9438 13.8795 14.0941 14.2613 14.233C14.4174 14.2908 14.5158 14.3718 14.5042 14.4354C14.4868 14.5106 14.3712 14.6147 14.1861 14.6147Z" fill="black" style="fill:black;fill-opacity:1;"/>
<path d="M7.96828 12.2095C7.7427 12.2095 7.55762 12.3946 7.55762 12.6201V14.2801C7.55762 14.685 7.74849 15.0089 8.12444 15.2518C8.3211 15.3791 8.54667 15.4427 8.78959 15.4427C8.99782 15.4427 9.19447 15.3964 9.37377 15.3097C9.81335 15.0899 10.0563 14.7255 10.0563 14.2801V12.6259C10.0563 12.4003 9.87119 12.2153 9.64562 12.2153C9.42004 12.2153 9.23496 12.4003 9.23496 12.6259V14.2801C9.23496 14.3437 9.23496 14.4594 9.00938 14.5751C8.94576 14.604 8.87635 14.6214 8.79538 14.6214C8.70862 14.6214 8.63921 14.5982 8.56981 14.5577C8.39629 14.4479 8.38472 14.3669 8.38472 14.2801V12.6201C8.38472 12.3946 8.19963 12.2095 7.96828 12.2095Z" fill="black" style="fill:black;fill-opacity:1;"/>
<path d="M20.7457 13.2448C20.7457 12.6722 20.2656 12.2095 19.6699 12.2095H19.0278C18.8023 12.2095 18.6172 12.3946 18.6172 12.6201V15.0262C18.6172 15.2518 18.8023 15.4369 19.0278 15.4369C19.2534 15.4369 19.4385 15.2518 19.4385 15.0262V14.6387L20.0169 15.2981C20.0979 15.3906 20.2136 15.4369 20.3234 15.4369C20.4218 15.4369 20.5143 15.4022 20.5953 15.3328C20.7688 15.1824 20.7804 14.9221 20.63 14.7486L20.121 14.1702C20.497 14.0141 20.7457 13.6612 20.7457 13.2448ZM19.6756 13.0308C19.8087 13.0308 19.9244 13.1291 19.9244 13.2448C19.9244 13.3605 19.8087 13.4588 19.6756 13.4588C19.6178 13.4588 19.5368 13.4588 19.4501 13.4588C19.4501 13.3778 19.4501 13.2969 19.4501 13.2448C19.4501 13.1985 19.4501 13.1175 19.4501 13.0308H19.6756Z" fill="black" style="fill:black;fill-opacity:1;"/>
<path d="M31.0342 9.1842L30.7798 8.76197C30.693 8.61737 30.6467 8.45542 30.6467 8.28769V6.35007C30.6467 5.28004 29.7791 4.41245 28.7091 4.41245H28.6686V4.2505C28.6686 4.02493 28.4835 3.83984 28.258 3.83984C28.0324 3.83984 27.8473 4.02493 27.8473 4.2505V4.41245H27.8126C26.7426 4.41245 25.875 5.28004 25.875 6.35007V8.2819C25.875 8.44964 25.8287 8.61159 25.7419 8.75619L25.4875 9.17841C25.3776 9.3635 25.3776 9.58907 25.4817 9.77416C25.5858 9.95924 25.7824 10.0749 25.9964 10.0749H26.9739V10.1212C26.9739 10.8326 27.5523 11.4168 28.2695 11.4168C28.981 11.4168 29.5651 10.8384 29.5651 10.1212C29.5651 10.1038 29.5651 10.0923 29.5651 10.0749H30.5253C30.7393 10.0749 30.9359 9.95924 31.04 9.77416C31.1441 9.59486 31.1441 9.3635 31.0342 9.1842ZM28.7438 10.1212C28.7438 10.3815 28.5298 10.5897 28.2753 10.5897C28.0208 10.5897 27.8068 10.3757 27.8068 10.1212V10.0749H28.7496C28.7438 10.0923 28.7438 10.1096 28.7438 10.1212ZM26.4071 9.2536L26.4534 9.17841C26.6153 8.90657 26.7021 8.60002 26.7021 8.2819V6.35007C26.7021 5.73697 27.1995 5.23377 27.8184 5.23377H28.7207C29.3338 5.23377 29.837 5.73119 29.837 6.35007V8.2819C29.837 8.60002 29.9237 8.90657 30.0857 9.17841L30.132 9.2536H26.4071Z" fill="#DC2626" style="fill:#DC2626;fill:color(display-p3 0.8627 0.1490 0.1490);fill-opacity:1;"/>
<path d="M21.1557 22.3429C20.9475 22.3371 20.7508 22.3776 20.5658 22.4586C20.4154 21.8975 19.9006 21.4811 19.2875 21.4811C19.0966 21.4811 18.9173 21.5216 18.7554 21.591C18.6166 21.0068 18.096 20.5672 17.4656 20.5672C17.2921 20.5672 17.1185 20.6019 16.9682 20.6656V18.3404C16.9682 17.976 16.8236 17.6406 16.5633 17.3919C16.303 17.1432 15.9618 17.0101 15.5974 17.0217C14.8917 17.0448 14.3191 17.6464 14.3191 18.3693V27.1436L14.0531 26.8775C13.5094 26.3338 12.6302 26.3338 12.0865 26.8775C11.8262 27.1378 11.6816 27.4906 11.6816 27.8608C11.6816 28.231 11.8262 28.578 12.0865 28.844L14.7645 31.522C15.0479 31.8054 15.4296 31.9616 15.8345 31.9616H21.4681C22.0002 31.9616 22.4282 31.5278 22.4282 31.0015V23.6906C22.434 22.9734 21.8614 22.366 21.1557 22.3429ZM21.6069 30.9957C21.6069 31.0709 21.5432 31.1345 21.4681 31.1345H15.8403C15.6552 31.1345 15.4817 31.0651 15.3544 30.932L12.6765 28.2541C12.5724 28.15 12.5087 28.0054 12.5087 27.855C12.5087 27.7046 12.5666 27.56 12.6765 27.4559C12.7864 27.346 12.931 27.2882 13.0756 27.2882C13.2202 27.2882 13.3648 27.346 13.4747 27.4559L14.4406 28.4218C14.5563 28.5375 14.7356 28.5722 14.8917 28.5086C15.0479 28.445 15.1462 28.2946 15.1462 28.1268V18.3636C15.1462 18.0859 15.3602 17.8488 15.6263 17.843C15.7651 17.8372 15.8923 17.8893 15.9907 17.9818C16.089 18.0744 16.1411 18.2016 16.1411 18.3404V21.8918V25.4894C16.1411 25.7149 16.3261 25.9 16.5517 25.9C16.7773 25.9 16.9624 25.7149 16.9624 25.4894V21.8918C16.9624 21.6141 17.1879 21.3943 17.4598 21.3943C17.7374 21.3943 17.9572 21.6199 17.9572 21.8918V22.7998V25.4836C17.9572 25.7092 18.1423 25.8942 18.3679 25.8942C18.5934 25.8942 18.7785 25.7092 18.7785 25.4836V22.7998C18.7785 22.5222 19.0041 22.3024 19.2759 22.3024C19.5478 22.3024 19.7734 22.528 19.7734 22.7998V23.6616V25.4836C19.7734 25.7092 19.9584 25.8942 20.184 25.8942C20.4096 25.8942 20.5947 25.7092 20.5947 25.4836V23.6616C20.5947 23.5228 20.6467 23.3956 20.7451 23.303C20.8434 23.2105 20.9706 23.1584 21.1095 23.1642C21.3755 23.1758 21.5895 23.4072 21.5895 23.6848L21.6069 30.9957Z" fill="black" style="fill:black;fill-opacity:1;"/>
</g>
</svg>
