<svg width="17" height="17" viewBox="0 0 17 17" fill="none" xmlns="http://www.w3.org/2000/svg">
<mask id="mask0_480_19" style="mask-type:alpha" maskUnits="userSpaceOnUse" x="0" y="0" width="17" height="17">
<rect x="0.657227" y="0.13208" width="16.3341" height="16.3341" fill="#D9D9D9" style="fill:#D9D9D9;fill:color(display-p3 0.8510 0.8510 0.8510);fill-opacity:1;"/>
</mask>
<g mask="url(#mask0_480_19)">
<path d="M5.36816 11.5138C5.36816 11.6473 5.40895 11.7777 5.48537 11.8887C5.56179 11.9996 5.6704 12.0861 5.79748 12.1372C5.92455 12.1882 6.06438 12.2016 6.19929 12.1756C6.33419 12.1495 6.45811 12.0853 6.55537 11.9909C6.65263 11.8966 6.71887 11.7763 6.7457 11.6455C6.77253 11.5146 6.75876 11.3789 6.70612 11.2556C6.65349 11.1323 6.56435 11.027 6.44999 10.9528C6.33562 10.8787 6.20116 10.8391 6.06361 10.8391C5.87917 10.8391 5.70228 10.9102 5.57186 11.0367C5.44143 11.1633 5.36816 11.3349 5.36816 11.5138ZM6.36076 11.5138C6.36076 11.5708 6.34333 11.6266 6.31068 11.674C6.27803 11.7214 6.23162 11.7584 6.17733 11.7802C6.12303 11.802 6.06328 11.8077 6.00564 11.7966C5.948 11.7855 5.89506 11.758 5.8535 11.7177C5.81194 11.6774 5.78364 11.626 5.77218 11.5701C5.76071 11.5142 5.7666 11.4562 5.78909 11.4035C5.81158 11.3508 5.84966 11.3058 5.89853 11.2741C5.94739 11.2425 6.00484 11.2255 6.06361 11.2255C6.10263 11.2255 6.14128 11.233 6.17733 11.2475C6.21338 11.262 6.24614 11.2832 6.27373 11.31C6.30132 11.3368 6.32321 11.3685 6.33814 11.4035C6.35308 11.4385 6.36076 11.476 6.36076 11.5138Z" fill="#DC2626" style="fill:#DC2626;fill:color(display-p3 0.8627 0.1490 0.1490);fill-opacity:1;"/>
<path d="M14.1201 7.33815C14.2212 7.2817 14.3052 7.20038 14.3636 7.10242C14.422 7.00446 14.4527 6.89331 14.4527 6.78015C14.4527 6.667 14.422 6.55584 14.3636 6.45788C14.3052 6.35992 14.2212 6.27861 14.1201 6.22216C14.0685 6.19702 14.0279 6.15467 14.0059 6.10286C13.9838 6.05106 13.9818 5.99327 14.0001 5.9401C14.0416 5.82994 14.0497 5.71054 14.0234 5.59605C13.9971 5.48156 13.9375 5.37678 13.8517 5.29415C13.7659 5.21153 13.6574 5.15454 13.5392 5.12991C13.421 5.10529 13.298 5.11407 13.1848 5.15523C13.1291 5.17002 13.07 5.16592 13.0171 5.14361C12.9642 5.1213 12.9208 5.08213 12.894 5.03259C12.8358 4.93452 12.752 4.85306 12.6511 4.79641C12.5501 4.73977 12.4355 4.70996 12.3189 4.70996C12.2022 4.70996 12.0877 4.73977 11.9867 4.79641C11.8857 4.85306 11.8019 4.93452 11.7437 5.03259C11.717 5.08213 11.6735 5.1213 11.6206 5.14361C11.5678 5.16592 11.5086 5.17002 11.453 5.15523C11.3398 5.11407 11.2168 5.10529 11.0986 5.12991C10.9804 5.15454 10.8719 5.21153 10.7861 5.29415C10.7003 5.37678 10.6407 5.48156 10.6144 5.59605C10.5881 5.71054 10.5962 5.82994 10.6377 5.9401C10.6535 5.99336 10.6502 6.05024 10.6284 6.10146C10.6066 6.15268 10.5675 6.19522 10.5176 6.22216C10.4165 6.27861 10.3326 6.35992 10.2742 6.45788C10.2158 6.55584 10.1851 6.667 10.1851 6.78015C10.1851 6.89331 10.2158 7.00446 10.2742 7.10242C10.3326 7.20038 10.4165 7.2817 10.5176 7.33815C10.5675 7.36509 10.6066 7.40763 10.6284 7.45885C10.6502 7.51007 10.6535 7.56694 10.6377 7.62021C10.6068 7.72978 10.6063 7.84534 10.6363 7.95516C10.6663 8.06498 10.7257 8.16516 10.8085 8.24549C10.8913 8.32583 10.9946 8.38347 11.1077 8.41258C11.2209 8.44168 11.3401 8.44121 11.453 8.41121C11.5079 8.39591 11.5665 8.39909 11.6193 8.42025C11.6721 8.44141 11.716 8.47929 11.7437 8.52772C11.8019 8.62579 11.8857 8.70725 11.9867 8.76389C12.0877 8.82053 12.2022 8.85034 12.3189 8.85034C12.4355 8.85034 12.5501 8.82053 12.6511 8.76389C12.752 8.70725 12.8358 8.62579 12.894 8.52772C12.9218 8.47929 12.9656 8.44141 13.0184 8.42025C13.0712 8.39909 13.1299 8.39591 13.1848 8.41121C13.2977 8.44121 13.4168 8.44168 13.53 8.41258C13.6432 8.38347 13.7464 8.32583 13.8292 8.24549C13.9121 8.16516 13.9715 8.06498 14.0015 7.95516C14.0315 7.84534 14.031 7.72978 14.0001 7.62021C13.9843 7.56694 13.9876 7.51007 14.0094 7.45885C14.0312 7.40763 14.0702 7.36509 14.1201 7.33815ZM13.9179 7.00091C13.7922 7.07242 13.6939 7.18175 13.6381 7.31232C13.5822 7.4429 13.5717 7.58758 13.6082 7.72445C13.621 7.76726 13.6218 7.81257 13.6106 7.85578C13.5993 7.89899 13.5765 7.93852 13.5443 7.97034C13.5122 8.00216 13.4719 8.02512 13.4276 8.03686C13.3833 8.04861 13.3366 8.0487 13.2922 8.03716C13.1513 7.99496 12.9996 8.0019 12.8634 8.05677C12.7272 8.11165 12.6151 8.211 12.5464 8.33763C12.5228 8.37573 12.4895 8.40724 12.4496 8.42912C12.4097 8.451 12.3647 8.46252 12.3189 8.46252C12.2731 8.46252 12.228 8.451 12.1882 8.42912C12.1483 8.40724 12.1149 8.37573 12.0913 8.33763C12.0227 8.211 11.9106 8.11165 11.7744 8.05677C11.6382 8.0019 11.4865 7.99496 11.3456 8.03716C11.301 8.04807 11.2543 8.04757 11.21 8.03572C11.1657 8.02387 11.1254 8.00109 11.0929 7.96957C11.0604 7.93806 11.0369 7.8989 11.0247 7.85593C11.0125 7.81297 11.012 7.76767 11.0232 7.72445C11.0667 7.58774 11.0596 7.44057 11.003 7.30843C10.9465 7.17629 10.8441 7.06751 10.7135 7.00091C10.6743 6.97802 10.6418 6.94565 10.6192 6.90697C10.5967 6.86829 10.5848 6.8246 10.5848 6.78015C10.5848 6.73571 10.5967 6.69202 10.6192 6.65334C10.6418 6.61465 10.6743 6.58231 10.7135 6.55942C10.8439 6.49401 10.9467 6.38664 11.0043 6.25575C11.062 6.12485 11.0709 5.97857 11.0295 5.84199C11.0145 5.79901 11.012 5.75281 11.0224 5.70855C11.0328 5.66428 11.0556 5.62369 11.0884 5.59128C11.1211 5.55886 11.1625 5.53591 11.2079 5.52496C11.2533 5.51401 11.301 5.51549 11.3456 5.52926C11.4866 5.56574 11.6362 5.55607 11.771 5.50175C11.9058 5.44744 12.0184 5.3515 12.0913 5.22881C12.1136 5.18914 12.1465 5.15603 12.1866 5.13296C12.2266 5.10989 12.2723 5.09773 12.3189 5.09773C12.3654 5.09773 12.4111 5.10989 12.4512 5.13296C12.4912 5.15603 12.5241 5.18914 12.5464 5.22881C12.6193 5.3515 12.7319 5.44744 12.8668 5.50175C13.0016 5.55607 13.1511 5.56574 13.2922 5.52926C13.3361 5.51614 13.3829 5.51489 13.4275 5.52563C13.4721 5.53638 13.5129 5.55872 13.5454 5.59025C13.5779 5.62178 13.6009 5.66131 13.612 5.70458C13.623 5.74786 13.6217 5.79324 13.6082 5.83585C13.5706 5.97271 13.5806 6.11779 13.6366 6.2486C13.6926 6.37941 13.7914 6.48866 13.9179 6.55942C13.9601 6.57874 13.9962 6.60877 14.0223 6.64634C14.0484 6.68391 14.0635 6.72763 14.0661 6.77285C14.0687 6.81808 14.0586 6.86314 14.037 6.90328C14.0154 6.94343 13.9829 6.97716 13.9432 7.00091H13.9179Z" fill="#DC2626" style="fill:#DC2626;fill:color(display-p3 0.8627 0.1490 0.1490);fill-opacity:1;"/>
<path d="M14.8672 4.85422C14.8322 4.82111 14.786 4.80141 14.7372 4.7988C14.6884 4.79618 14.6402 4.81082 14.6017 4.84C14.5631 4.86918 14.5368 4.91092 14.5275 4.9575C14.5182 5.00408 14.5267 5.05234 14.5512 5.09335C14.9536 5.56927 15.1765 6.16411 15.1833 6.7796C15.1958 7.51141 14.9082 8.2181 14.3838 8.74419C13.8593 9.27029 13.1409 9.5727 12.3866 9.5849C11.6323 9.5971 10.9038 9.31808 10.3616 8.80924C9.81932 8.30039 9.50761 7.60338 9.49504 6.87157L10.0828 6.29518C10.1807 6.17929 10.2343 6.03417 10.2345 5.88436C10.2295 5.77388 10.1991 5.66589 10.1455 5.56828C10.0919 5.47068 10.0165 5.38592 9.92482 5.32023C10.1338 4.99948 10.4088 4.72411 10.7327 4.51139C11.0566 4.29867 11.4223 4.15319 11.8069 4.0841C12.1914 4.01501 12.5866 4.02379 12.9675 4.10989C13.3484 4.19598 13.7068 4.35755 14.0203 4.58442C14.0411 4.59972 14.0647 4.61091 14.0899 4.61734C14.1151 4.62377 14.1414 4.62532 14.1672 4.6219C14.1931 4.61849 14.2179 4.61017 14.2404 4.59743C14.263 4.58468 14.2827 4.56776 14.2984 4.54763C14.3142 4.5275 14.3257 4.50455 14.3324 4.4801C14.339 4.45564 14.3406 4.43015 14.3371 4.4051C14.3335 4.38004 14.325 4.35592 14.3118 4.33408C14.2987 4.31224 14.2813 4.29313 14.2605 4.27783C13.9105 4.02082 13.5099 3.83602 13.0835 3.73483C12.6571 3.63363 12.2139 3.61817 11.7811 3.68939C11.3483 3.76062 10.9351 3.91702 10.567 4.14898C10.1988 4.38094 9.8835 4.68355 9.64041 5.03817L9.49504 4.90327C9.3981 4.80147 9.26848 4.73455 9.1273 4.71339C8.98613 4.69223 8.84173 4.71809 8.71765 4.78676L6.22747 2.37083C6.05068 2.20085 5.81853 2.09571 5.57069 2.07334C5.32286 2.05097 5.0747 2.11278 4.86862 2.24821L4.47676 1.86802C4.40804 1.80091 4.32631 1.74765 4.23628 1.7113C4.14625 1.67496 4.0497 1.65625 3.95219 1.65625C3.85467 1.65625 3.75812 1.67496 3.66809 1.7113C3.57806 1.74765 3.49633 1.80091 3.42761 1.86802L2.8967 2.38309C2.82772 2.44924 2.77295 2.52803 2.73557 2.61487C2.69819 2.7017 2.67895 2.79487 2.67895 2.88897C2.67895 2.98308 2.69819 3.07624 2.73557 3.16308C2.77295 3.24991 2.82772 3.3287 2.8967 3.39485L3.29488 3.78116C3.18198 3.95005 3.1219 4.14704 3.1219 4.34834C3.1219 4.54964 3.18198 4.74663 3.29488 4.91553C2.69942 5.56605 2.30665 6.36728 2.16231 7.22595C2.01797 8.08462 2.12799 8.96541 2.47957 9.76578C2.50165 9.8127 2.54188 9.84929 2.59155 9.86765C2.64123 9.88601 2.69636 9.88466 2.74502 9.86389C2.76932 9.8546 2.79138 9.84055 2.80982 9.82261C2.82825 9.80466 2.84267 9.78321 2.85216 9.7596C2.86166 9.736 2.86602 9.71076 2.86499 9.68544C2.86395 9.66013 2.85754 9.63528 2.84614 9.61248C2.52671 8.88768 2.42428 8.09022 2.5506 7.31153C2.67692 6.53283 3.02687 5.80443 3.56033 5.20986L4.60317 6.2216C4.3596 6.51498 4.18008 6.85336 4.07553 7.21617C3.97098 7.57897 3.94359 7.95861 3.99503 8.33201C4.04646 8.7054 4.17564 9.06474 4.37472 9.38817C4.57379 9.71161 4.8386 9.99238 5.15303 10.2134C4.80542 10.4771 4.72957 10.7223 4.28084 11.36C3.8573 11.068 3.49125 10.7045 3.20008 10.287C3.16946 10.2454 3.12378 10.2166 3.0722 10.2064C3.02062 10.1962 2.96696 10.2052 2.92198 10.2318C2.89948 10.2455 2.88007 10.2634 2.86493 10.2846C2.84979 10.3057 2.83924 10.3296 2.83393 10.3549C2.82861 10.3801 2.82863 10.4061 2.83399 10.4313C2.83935 10.4566 2.84993 10.4805 2.8651 10.5016C3.17919 10.9604 3.57514 11.3612 4.03435 11.685L3.3644 12.7397C3.06657 12.7658 2.78966 12.8993 2.58838 13.1139C2.38711 13.3285 2.27611 13.6085 2.27732 13.8986V14.3278C2.27732 14.4905 2.34391 14.6464 2.46244 14.7614C2.58096 14.8764 2.74172 14.941 2.90935 14.941H12.08C12.2918 14.9394 12.4943 14.8566 12.6435 14.7108C12.7927 14.5649 12.8764 14.3678 12.8764 14.1623C12.8731 13.787 12.7184 13.428 12.4455 13.162C12.1726 12.8961 11.8032 12.7445 11.4164 12.7397H7.77593V12.0039H10.7465C10.8281 12.009 10.91 11.9976 10.987 11.9705C11.0639 11.9435 11.1343 11.9013 11.1936 11.8466C11.2529 11.7919 11.3 11.7259 11.3318 11.6527C11.3636 11.5795 11.3795 11.5008 11.3785 11.4214C11.3785 11.1059 11.2493 10.8033 11.0194 10.5802C10.7894 10.3571 10.4775 10.2318 10.1523 10.2318H7.16287C6.87164 10.0022 6.50794 9.87662 6.13267 9.87615C5.91553 9.87428 5.70034 9.91604 5.50065 9.99879C5.20788 9.82087 4.95693 9.58523 4.76408 9.30717C4.57122 9.0291 4.44077 8.71482 4.38117 8.38468C4.32158 8.05455 4.33418 7.71595 4.41815 7.39085C4.50213 7.06574 4.6556 6.76139 4.86862 6.49754L5.91146 7.50928C5.84447 7.63168 5.81997 7.77178 5.8416 7.90876C5.86324 8.04575 5.92985 8.1723 6.03155 8.26962L6.57509 8.79696C6.70048 8.91716 6.86966 8.98456 7.04595 8.98456C7.22223 8.98456 7.39141 8.91716 7.51681 8.79696L9.12215 7.22109C9.23635 8.00788 9.65438 8.72319 10.2916 9.22227C10.9289 9.72134 11.7378 9.96691 12.5546 9.90925C13.3714 9.85159 14.1352 9.49501 14.6913 8.91169C15.2473 8.32837 15.5542 7.56189 15.5498 6.76734C15.555 6.06884 15.3142 5.38956 14.8672 4.84195V4.85422ZM12.4719 14.1378C12.4719 14.2392 12.4308 14.3365 12.3575 14.4088C12.2842 14.481 12.1845 14.5224 12.08 14.5241H2.90302C2.84268 14.5241 2.78481 14.5008 2.74214 14.4594C2.69947 14.418 2.67549 14.3618 2.67549 14.3033V13.8741C2.67549 13.6676 2.76006 13.4695 2.91059 13.3234C3.06112 13.1774 3.26529 13.0953 3.47817 13.0953H11.4164C11.6981 13.1002 11.9665 13.2121 12.1639 13.4071C12.3613 13.6021 12.4719 13.8644 12.4719 14.1378ZM10.1523 10.6181C10.3719 10.6181 10.5825 10.7027 10.7378 10.8534C10.8931 11.004 10.9803 11.2083 10.9803 11.4214C10.9803 11.4734 10.959 11.5233 10.9211 11.5601C10.8831 11.5969 10.8317 11.6176 10.778 11.6176H7.80754C7.83079 11.2664 7.74018 10.9169 7.5484 10.6181H10.1523ZM7.40936 11.4643V12.6907H3.8321C5.16567 10.6672 5.09615 10.7591 5.17831 10.6672C5.34794 10.4908 5.56742 10.3669 5.80928 10.3109C6.05114 10.255 6.30463 10.2695 6.53804 10.3526C6.77145 10.4357 6.97441 10.5838 7.12152 10.7782C7.26864 10.9727 7.35337 11.2049 7.36512 11.4459L7.40936 11.4643ZM5.98099 2.64677L8.43956 5.03817L6.94798 6.4914L6.16427 7.22109C3.51609 4.65186 3.7057 4.82968 3.68042 4.80516C3.61727 4.7478 3.56693 4.67848 3.53252 4.60149C3.4981 4.52449 3.48035 4.44145 3.48035 4.35753C3.48035 4.27361 3.4981 4.19059 3.53252 4.11359C3.56693 4.0366 3.61727 3.96728 3.68042 3.90992L4.94447 2.68356C5.072 2.56259 5.24328 2.49486 5.42164 2.49486C5.6 2.49486 5.77128 2.56259 5.89882 2.68356L5.98099 2.64677ZM3.21271 2.64677L3.74362 2.13782C3.80753 2.07641 3.89384 2.04198 3.98379 2.04198C4.07373 2.04198 4.16005 2.07641 4.22396 2.13782L4.60317 2.50573L3.59193 3.48683L3.21271 3.11891C3.14917 3.05776 3.1124 2.97518 3.11004 2.88837C3.10769 2.80156 3.13994 2.71721 3.20008 2.65289L3.21271 2.64677ZM7.26399 8.51489C7.21325 8.56283 7.14522 8.58966 7.07439 8.58966C7.00355 8.58966 6.93552 8.56283 6.88478 8.51489L6.34124 7.98756C6.31601 7.96358 6.29597 7.93496 6.28229 7.90337C6.26861 7.87179 6.26157 7.83788 6.26157 7.80361C6.26157 7.76935 6.26861 7.73542 6.28229 7.70384C6.29597 7.67225 6.31601 7.64363 6.34124 7.61965L7.18183 6.80413L8.86302 5.16693C8.91376 5.11899 8.98179 5.09216 9.05262 5.09216C9.12346 5.09216 9.19148 5.11899 9.24223 5.16693L9.78577 5.69428C9.83519 5.74351 9.86284 5.8095 9.86284 5.87822C9.86284 5.94694 9.83519 6.01294 9.78577 6.06217L7.26399 8.51489Z" fill="black" style="fill:black;fill-opacity:1;"/>
</g>
</svg>
