<svg width="36" height="35" viewBox="0 0 36 35" fill="none" xmlns="http://www.w3.org/2000/svg">
<rect x="15.8745" width="25" height="25" rx="4.94859" transform="rotate(36.6196 15.8745 0)" fill="#FFE0E0" style="fill:#FFE0E0;fill:color(display-p3 1.0000 0.8771 0.8771);fill-opacity:1;"/>
<path d="M28.6274 15.2093V11.6313C28.6274 10.418 27.7998 9.43133 26.7541 9.33565L23.8319 3.53187C23.5611 2.99511 23.1238 2.61146 22.6006 2.45215C22.0798 2.29393 21.5352 2.37703 21.0691 2.6855L11.0515 9.31699H9.29214C8.16966 9.31699 7.25684 10.3549 7.25684 11.6313V25.517C7.25684 26.7933 8.16962 27.8313 9.29214 27.8313H26.5921C27.7146 27.8313 28.6274 26.7934 28.6274 25.517V21.939C29.2184 21.6993 29.6451 21.0631 29.6451 20.3098V16.8384C29.6451 16.0851 29.2184 15.4489 28.6274 15.2093ZM25.5716 9.31699H21.1367L24.4629 7.11503L25.5716 9.31699ZM23.9574 6.11087L19.1142 9.31699H17.1053L23.455 5.11332L23.9574 6.11087ZM21.5814 3.68554C21.8115 3.53242 22.0803 3.49173 22.3372 3.56973C22.5971 3.64882 22.8137 3.8398 22.9484 4.10704L22.9495 4.10916L15.0829 9.31699H13.0741L21.5814 3.68554ZM27.6098 25.517C27.6098 26.1548 27.1531 26.6741 26.5921 26.6741H9.29214C8.73117 26.6741 8.27451 26.1548 8.27451 25.517V11.6313C8.27451 10.9934 8.73117 10.4742 9.29214 10.4742H26.5921C27.1531 10.4742 27.6098 10.9934 27.6098 11.6313V15.1027H24.5568C22.8733 15.1027 21.5039 16.6599 21.5039 18.5741C21.5039 20.4884 22.8733 22.0455 24.5568 22.0455H27.6098V25.517ZM28.6274 20.3098C28.6274 20.629 28.3994 20.8884 28.1186 20.8884H24.5568C23.4343 20.8884 22.5215 19.8505 22.5215 18.5741C22.5215 17.2978 23.4343 16.2598 24.5568 16.2598H28.1186C28.3993 16.2598 28.6274 16.5192 28.6274 16.8384V20.3098Z" fill="black" style="fill:black;fill-opacity:1;"/>
<path d="M24.5396 17.4165C23.9883 17.4165 23.5396 17.8652 23.5396 18.4165C23.5396 18.9678 23.9883 19.4165 24.5396 19.4165C25.0908 19.4165 25.5396 18.9678 25.5396 18.4165C25.5396 17.8652 25.0909 17.4165 24.5396 17.4165Z" fill="#DC2626" style="fill:#DC2626;fill:color(display-p3 0.8627 0.1490 0.1490);fill-opacity:1;"/>
<mask id="mask0_420_1249" style="mask-type:alpha" maskUnits="userSpaceOnUse" x="7" y="2" width="23" height="26">
<path d="M28.6274 15.2093V11.6313C28.6274 10.418 27.7998 9.43133 26.7541 9.33565L23.8319 3.53187C23.5611 2.99511 23.1238 2.61146 22.6006 2.45215C22.0798 2.29393 21.5352 2.37703 21.0691 2.6855L11.0515 9.31699H9.29214C8.16966 9.31699 7.25684 10.3549 7.25684 11.6313V25.517C7.25684 26.7933 8.16962 27.8313 9.29214 27.8313H26.5921C27.7146 27.8313 28.6274 26.7934 28.6274 25.517V21.939C29.2184 21.6993 29.6451 21.0631 29.6451 20.3098V16.8384C29.6451 16.0851 29.2184 15.4489 28.6274 15.2093ZM25.5716 9.31699H21.1367L24.4629 7.11503L25.5716 9.31699ZM23.9574 6.11087L19.1142 9.31699H17.1053L23.455 5.11332L23.9574 6.11087ZM21.5814 3.68554C21.8115 3.53242 22.0803 3.49173 22.3372 3.56973C22.5971 3.64882 22.8137 3.8398 22.9484 4.10704L22.9495 4.10916L15.0829 9.31699H13.0741L21.5814 3.68554ZM27.6098 25.517C27.6098 26.1548 27.1531 26.6741 26.5921 26.6741H9.29214C8.73117 26.6741 8.27451 26.1548 8.27451 25.517V11.6313C8.27451 10.9934 8.73117 10.4742 9.29214 10.4742H26.5921C27.1531 10.4742 27.6098 10.9934 27.6098 11.6313V15.1027H24.5568C22.8733 15.1027 21.5039 16.6599 21.5039 18.5741C21.5039 20.4884 22.8733 22.0455 24.5568 22.0455H27.6098V25.517ZM28.6274 20.3098C28.6274 20.629 28.3994 20.8884 28.1186 20.8884H24.5568C23.4343 20.8884 22.5215 19.8505 22.5215 18.5741C22.5215 17.2978 23.4343 16.2598 24.5568 16.2598H28.1186C28.3993 16.2598 28.6274 16.5192 28.6274 16.8384V20.3098Z" fill="#DC2626" style="fill:#DC2626;fill:color(display-p3 0.8627 0.1490 0.1490);fill-opacity:1;"/>
<path d="M24.5396 17.4165C23.9883 17.4165 23.5396 17.8652 23.5396 18.4165C23.5396 18.9678 23.9883 19.4165 24.5396 19.4165C25.0908 19.4165 25.5396 18.9678 25.5396 18.4165C25.5396 17.8652 25.0909 17.4165 24.5396 17.4165Z" fill="#DC2626" style="fill:#DC2626;fill:color(display-p3 0.8627 0.1490 0.1490);fill-opacity:1;"/>
</mask>
<g mask="url(#mask0_420_1249)">
<rect x="5.91406" y="-3.02441" width="25.0732" height="12.3248" fill="#DC2626" style="fill:#DC2626;fill:color(display-p3 0.8627 0.1490 0.1490);fill-opacity:1;"/>
</g>
</svg>
