<svg width="35" height="36" viewBox="0 0 35 36" fill="none" xmlns="http://www.w3.org/2000/svg">
<mask id="mask0_1072_419" style="mask-type:alpha" maskUnits="userSpaceOnUse" x="0" y="0" width="35" height="36">
<rect y="0.899902" width="34.98" height="34.98" fill="#D9D9D9" style="fill:#D9D9D9;fill:color(display-p3 0.8510 0.8510 0.8510);fill-opacity:1;"/>
</mask>
<g mask="url(#mask0_1072_419)">
<rect x="15.9131" y="0.899902" width="25" height="25" rx="4.94859" transform="rotate(36.6196 15.9131 0.899902)" fill="#FFE0E0" style="fill:#FFE0E0;fill:color(display-p3 1.0000 0.8771 0.8771);fill-opacity:1;"/>
<path d="M11.0943 27.5518C10.9112 27.5111 10.7485 27.4195 10.6213 27.2924L10.5959 27.2771C10.2399 27.0788 9.81264 27.0584 9.44136 27.211C9.53799 27.506 9.70583 27.7705 9.91945 27.9841C10.0059 27.979 10.0975 27.9993 10.1788 28.0451L11.1045 28.5486C11.1706 28.5537 11.2418 28.5588 11.313 28.5588H12.9405L11.0943 27.5518ZM30.0143 17.8222V14.7808C30.0143 13.7483 29.2158 12.9142 28.2088 12.8278C28.2037 12.8278 28.2037 12.8278 28.2037 12.8278H28.1935H28.1833L27.0644 12.8125H22.7362L21.3121 12.8176H21.2002H20.89H20.8798H20.8493H20.8137H18.8708H18.8505L17.3349 12.8227H17.0348H17.0195H16.9585H16.9127H14.9699H14.8631L14.3748 12.8176H14.3036L13.2711 12.8125L13.0168 12.8176H11.313C10.2297 12.8176 9.34473 13.7026 9.34473 14.7859V17.2119L9.49222 16.9017C9.56851 16.7186 9.75161 16.5965 9.95505 16.5965C10.1025 16.5965 10.2399 16.6626 10.3314 16.7694V14.7859C10.3314 14.2417 10.7739 13.7992 11.313 13.7992H28.0511C28.5953 13.7992 29.0378 14.2417 29.0378 14.7859V17.7409H26.0828C24.4553 17.7409 23.1278 19.0632 23.1278 20.6958C23.1278 22.3284 24.4553 23.6508 26.0828 23.6508H29.0378V26.6058C29.0378 27.15 28.5953 27.5874 28.0511 27.5874H13.8255L13.9069 28.0807C13.9374 28.2587 13.8916 28.4367 13.7746 28.5741H28.046C29.1293 28.5741 30.0143 27.6891 30.0143 26.6058V23.5593C30.5839 23.3558 31.001 22.8167 31.001 22.1708V19.2107C31.001 18.5699 30.589 18.0257 30.0143 17.8222ZM30.0143 22.1657C30.0143 22.4352 29.7956 22.659 29.521 22.659H26.0777C24.9893 22.659 24.1094 21.7741 24.1094 20.6907C24.1094 19.6074 24.9944 18.7225 26.0777 18.7225H29.521C29.7905 18.7225 30.0143 18.9412 30.0143 19.2158V22.1657Z" fill="black" style="fill:black;fill-opacity:1;"/>
<path d="M28.2087 12.8274L27.0593 12.8121L25.9862 10.9354L22.7972 12.8121H20.8391L25.4928 10.0809L25.0045 9.23156L18.9166 12.8121H16.9534L24.5214 8.37711C24.3891 8.14824 24.1806 7.98548 23.9314 7.91937C23.6822 7.85325 23.4228 7.88885 23.199 8.016L15.0207 12.807H13.0117L22.7057 7.16664C23.1583 6.90216 23.6822 6.83096 24.1857 6.96828C24.6943 7.1056 25.1164 7.43111 25.3758 7.88885L28.2087 12.8274Z" fill="#DC2626" style="fill:#DC2626;fill:color(display-p3 0.8627 0.1490 0.1490);fill-opacity:1;"/>
<path d="M26.0775 19.7041C25.5333 19.7041 25.0908 20.1466 25.0908 20.6908C25.0908 21.235 25.5333 21.6775 26.0775 21.6775C26.6217 21.6775 27.0642 21.235 27.0642 20.6908C27.0642 20.1415 26.6217 19.7041 26.0775 19.7041Z" fill="#DC2626" style="fill:#DC2626;fill:color(display-p3 0.8627 0.1490 0.1490);fill-opacity:1;"/>
<path d="M10.6164 27.2923C10.7436 27.4194 10.9063 27.511 11.0894 27.5517L10.6164 27.2923ZM16.4755 22.4097C16.8621 22.013 16.9943 21.4332 16.8163 20.9093C16.6586 20.4058 16.2263 20.0345 15.7075 19.9532L14.3343 19.7446C14.2835 19.7497 13.4188 19.6073 13.4188 19.6073L12.8594 19.5209C12.6864 19.4903 12.5389 19.3784 12.4677 19.2157L11.1861 16.515C11.0182 16.1437 10.6978 15.8742 10.3214 15.7674C10.1994 15.7318 10.0722 15.7114 9.94508 15.7114C9.73147 15.7114 9.52294 15.7623 9.33984 15.8538C9.0652 15.9912 8.83633 16.22 8.70409 16.515L7.42241 19.2208C7.35121 19.3784 7.20371 19.4954 7.03079 19.5259L4.18771 19.9532C3.66893 20.0345 3.23662 20.4058 3.07895 20.9093C2.90094 21.4332 3.03318 22.013 3.41972 22.4097L5.45921 24.4746C5.55585 24.5713 5.61179 24.7035 5.62196 24.8357H5.61688L5.62705 24.851L5.49481 25.7055H5.4999L5.13371 27.928C5.03707 28.4773 5.26594 29.0368 5.7186 29.3623C6.14074 29.6624 6.69511 29.698 7.14777 29.4488L9.71621 28.045C9.78233 28.0094 9.84844 27.9891 9.91965 27.984C10.0061 27.9789 10.0977 27.9992 10.179 28.045L11.1047 28.5485L12.7475 29.4488C13.2001 29.698 13.7596 29.6624 14.1766 29.3623C14.4564 29.1639 14.6496 28.8791 14.7361 28.5587C14.7921 28.3553 14.8022 28.1417 14.7666 27.928L14.7107 27.5771L14.2835 24.9985C14.2529 24.8103 14.3089 24.617 14.4411 24.4746L16.4755 22.4097ZM13.4239 25.1409L13.8257 27.5771L13.9071 28.0704C13.9376 28.2485 13.8918 28.4265 13.7748 28.5638C13.7443 28.5994 13.7138 28.6299 13.6731 28.6553C13.5256 28.7672 13.3222 28.7774 13.1645 28.6859L12.9407 28.5638L11.0945 27.5517L10.6215 27.2923L10.5961 27.277C10.2401 27.0787 9.81284 27.0583 9.44156 27.2109C9.39579 27.2313 9.34493 27.2516 9.29915 27.277L6.73072 28.6808C6.56796 28.7723 6.36961 28.7621 6.22211 28.6503C6.03902 28.518 5.94747 28.2891 5.99324 28.0654L6.47133 25.1307C6.54762 24.6679 6.40012 24.1949 6.07462 23.8592L4.03513 21.7943C3.87746 21.6315 3.8266 21.3925 3.8978 21.1789C3.95375 20.9856 4.1165 20.8432 4.31486 20.8076L7.15794 20.3804C7.61568 20.3092 8.00731 20.0142 8.20057 19.5921L9.33476 17.2016L9.48225 16.8914C9.55854 16.7083 9.74164 16.5862 9.94508 16.5862C10.0926 16.5862 10.2299 16.6523 10.3214 16.7591C10.357 16.7998 10.3825 16.8456 10.4028 16.8914L11.6845 19.5921C11.8778 20.0142 12.2694 20.3092 12.7271 20.3804L15.5702 20.8076C15.7686 20.8432 15.9313 20.9856 15.9873 21.1789C16.0636 21.3925 16.0076 21.6315 15.8499 21.7943L13.8105 23.8592C13.49 24.2051 13.3425 24.6781 13.4239 25.1409ZM10.6164 27.2923C10.7436 27.4194 10.9063 27.511 11.0894 27.5517L10.6164 27.2923Z" fill="#DC2626" style="fill:#DC2626;fill:color(display-p3 0.8627 0.1490 0.1490);fill-opacity:1;"/>
</g>
</svg>
