<svg id="Layer_1" data-name="Layer 1" xmlns="http://www.w3.org/2000/svg" viewBox="0 0 144 144"><defs><style>.cls-1{fill:#fcebea;}.cls-2{fill:#dd4e4e;}.cls-3{fill:#bf3f3c;}.cls-4{fill:#e64d4a;}.cls-5{fill:#393c42;}.cls-6{fill:#100505;}.cls-7{fill:#1b2e4e;}.cls-8{fill:#c04c4f;}.cls-9{fill:#fcfcfb;}.cls-10{fill:#fff;}.cls-11{fill:#90202b;}.cls-12{fill:#ebecf0;}.cls-13{fill:#ebebef;}.cls-14{fill:#c34e51;}.cls-15{fill:#b4e9eb;}.cls-16{fill:#2d2a2a;}.cls-17{fill:#dcdde3;}.cls-18{fill:#e0a4a6;}.cls-19{fill:none;}</style></defs><title>Access Reports &amp;amp; Manage Care</title><ellipse class="cls-1" cx="69.14" cy="71.36" rx="68.45" ry="49.83"/><path class="cls-2" d="M132.93,44.32a41.17,41.17,0,0,1,2.47,23.61,57.72,57.72,0,0,1-9.3,21.9,78.84,78.84,0,0,1-16.32,17.3,93.32,93.32,0,0,1-43.3,18.68,78.4,78.4,0,0,1-23.74,0,57.4,57.4,0,0,1-22.21-8.23A41.17,41.17,0,0,1,5,99.79,41,41,0,0,1,2.5,76.27a57.33,57.33,0,0,1,9.25-21.86A79.59,79.59,0,0,1,28,37.09,93.36,93.36,0,0,1,71.26,18.24a78.8,78.8,0,0,1,23.8-.08,57.61,57.61,0,0,1,22.34,8.19A41.13,41.13,0,0,1,132.93,44.32Zm-1.2.52a40,40,0,0,0-15-17.42,56.54,56.54,0,0,0-21.84-8.09,77.46,77.46,0,0,0-23.45,0A92.15,92.15,0,0,0,28.58,37.81a76.44,76.44,0,0,0-16.1,17.1A56.63,56.63,0,0,0,3.42,76.43,39.15,39.15,0,0,0,20.88,117a56.7,56.7,0,0,0,22,8,77.47,77.47,0,0,0,23.5-.08,92.44,92.44,0,0,0,42.8-18.65,76.92,76.92,0,0,0,16-17.13,56.43,56.43,0,0,0,9-21.49A39.9,39.9,0,0,0,131.73,44.84Z"/><path class="cls-3" d="M27.7,70.43h5.47V93h3.51V98.4H33.17v5.15H27V98.4H13.16L12,92.7ZM27,93V79.88L17.94,93Z"/><path class="cls-4" d="M141.4,62.7c-2.87-.71-5.78-1.28-8.68-1.83a4.1,4.1,0,0,1-1-.26c-1.11-.13-2.17-.48-3.26-.69-1.94-.4-3.89-.78-5.83-1.19a20.78,20.78,0,0,0-3.42-.62,17,17,0,0,0-2.63-.61l-10.18-2.18c-.88-.18-1-.14-1.14.73-.13.65-.24,1.3-.36,1.94a1.68,1.68,0,0,1-.26.76c-.14,1.47-.55,2.89-.82,4.34-.07.36-.16.71-.25,1.06-.63,2.54-1.11,5.11-1.6,7.68,0,.18-.11.26-.28.28a5.92,5.92,0,0,1-.17,1.73,3.17,3.17,0,0,0,.77,3,1.58,1.58,0,0,1,.24.44c.36-.08.58.21.86.31a15.8,15.8,0,0,0,2.44.6l2,.44c1,.1,1.91.39,2.87.58L126,82.38l6.46,1.35c.21,0,.44.07.57.28a10.22,10.22,0,0,1,2.18.47,3.42,3.42,0,0,1,1-.13,3.41,3.41,0,0,0,2.62-2.82c.34-1.69.74-3.36,1.07-5,.51-2.54,1.13-5.06,1.64-7.6.3-1.53.69-3,1-4.55C142.68,63.39,142.36,62.94,141.4,62.7Zm-14,3.61q.33-1.73.72-3.45c.09-.38.42-.45.76-.38l3.09.66a.68.68,0,0,1,.63.77c-.06.25-.13.58-.2.92-.16.74-.31,1.48-.49,2.22a.69.69,0,0,1-.92.6c-1-.21-2.05-.45-3.08-.66C127.5,66.91,127.29,66.67,127.37,66.31Zm-7.12-3.82c.31-.28.59-.14.85.09a7,7,0,0,1,1.06,1.11,1.51,1.51,0,0,0,.59.55,10.23,10.23,0,0,1,2.35-2.11.57.57,0,0,1,.13-.08c.59-.38.92-.38,1.13,0s.07.64-.47,1a10.72,10.72,0,0,0-2.67,2.49c-.48.61-.86.58-1.26-.12a7.27,7.27,0,0,0-1.28-1.59c-.12-.12-.26-.22-.38-.35A.65.65,0,0,1,120.25,62.49Zm-6.52-.15c.17-.74.32-1.48.49-2.21s.38-.73,1-.61l2.71.59c.79.17.92.38.76,1.18s-.37,1.77-.55,2.65c-.11.53-.26.68-.8.69l-2.41-.51C113.5,63.84,113.4,63.86,113.73,62.34ZM109,72.79c-.2,1-.42,2-.64,3.08-.09.41-.36.56-.87.49-1-.2-2-.41-3.11-.66a.6.6,0,0,1-.48-.78c.22-1.08.45-2.15.7-3.22a.59.59,0,0,1,.79-.45c1,.22,2,.44,3.07.68C109,72.05,109.11,72.29,109,72.79Zm1.41-6.63c-.22,1-.41,2-.65,3-.13.56-.32.7-.9.58-1-.2-2.05-.43-3.08-.67a.52.52,0,0,1-.47-.63c.21-1.13.44-2.25.69-3.37.07-.33.36-.45.76-.43,1,.21,2.08.42,3.15.67A.63.63,0,0,1,110.42,66.16Zm-.22-3c-1-.2-1.92-.4-2.87-.62-.54-.12-.73-.36-.62-.88.2-1,.43-2,.64-3.08a.63.63,0,0,1,.7-.55c.78.17,1.6.32,2.4.51,1.31.31,1.58.11,1.18,1.83-.16.71-.28,1.44-.45,2.15S110.81,63.29,110.2,63.16Zm5.65,11.34c-.19.88-.37,1.77-.57,2.65-.13.57-.39.75-1,.65-1-.18-2-.38-2.94-.59-.54-.12-.71-.36-.59-.9.2-1,.43-2,.67-3,.13-.54.36-.68.91-.57,1,.2,2,.43,2.93.64a.67.67,0,0,1,.6.79S115.88,74.36,115.85,74.5Zm1.48-6.94c-.22,1-.45,2.16-.7,3.28a.56.56,0,0,1-.74.43c-1.08-.23-2.15-.46-3.22-.72-.44-.11-.58-.35-.49-.83.21-1,.44-2.06.66-3.08a.64.64,0,0,1,.82-.54c1.06.22,2.1.45,3.15.69C117.17,66.87,117.36,67.09,117.33,67.56Zm5.45,8.22c-.21.93-.45,2-.71,3.07a.59.59,0,0,1-.78.47c-1.05-.22-2.1-.44-3.14-.68a.6.6,0,0,1-.49-.77c.21-1.07.43-2.15.66-3.22a.58.58,0,0,1,.71-.49c1.12.23,2.24.48,3.35.74C122.77,75,122.84,75.29,122.78,75.78Zm0-3c-1.1-.23-2.2-.45-3.29-.71a.56.56,0,0,1-.44-.73c.22-1,.43-2.11.68-3.16.11-.5.36-.65.86-.55,1,.21,2.05.44,3.08.68.5.12.64.36.53.87-.2,1-.44,2-.64,3A.64.64,0,0,1,122.79,72.75Zm7.43,4.76a11.37,11.37,0,0,0-3,2.7c-.36.45-.78.46-1.06,0a8.89,8.89,0,0,0-1.78-2.13l-.11-.1a.54.54,0,0,1,0-.79.51.51,0,0,1,.79,0c.41.38.8.78,1.19,1.18a1.78,1.78,0,0,0,.58.5L128,77.71a8.3,8.3,0,0,1,1.59-1.18.58.58,0,0,1,.89.17A.56.56,0,0,1,130.22,77.51Zm.69-6c-.15.69-.29,1.38-.45,2.07s-.35.72-.94.6c-1-.2-2-.4-2.93-.62-.61-.14-.72-.34-.59-.94.18-.93.36-1.86.56-2.79.16-.74.34-.86,1.06-.71l2.93.62a.66.66,0,0,1,.6.75C131.08,70.82,131,71.17,130.91,71.53Zm5.61,7.2c-.2,1-.42,2-.63,2.93a.62.62,0,0,1-.7.57c-.79-.16-1.63-.31-2.46-.5-1.36-.31-1.36-.32-1.1-1.68.15-.77.31-1.53.48-2.3.13-.58.37-.73.95-.61.95.2,1.91.41,2.86.63C136.49,77.9,136.64,78.14,136.52,78.73Zm1.22-5.56c-.13.59-.26,1.19-.4,1.78s-.36.82-1,.68L133.47,75c-.55-.12-.68-.32-.57-.89.2-1,.41-2,.63-3,.12-.51.34-.65.85-.55,1,.19,2,.39,2.93.6.52.12.69.31.69.72S137.84,72.74,137.74,73.17Zm1.66-7.73c0,.14-.09.4-.14.66-.17.79-.32,1.58-.5,2.37-.13.57-.37.72-.95.6l-2.94-.64c-.51-.12-.67-.31-.58-.84.2-1,.43-2.1.68-3.15.1-.44.37-.58.83-.48,1,.21,2,.44,3,.66A.67.67,0,0,1,139.4,65.44Z"/><path class="cls-5" d="M104.61,58.75c-.14,1.47-.55,2.89-.82,4.34-.07.36-.16.71-.25,1.06a1,1,0,0,1-.27-.73c-.11-.8-.22-1.6-.35-2.39-.46-3-.94-5.94-1.41-8.9-.43-2.73-.85-5.45-1.28-8.18-.36-2.26-.72-4.53-1.09-6.79a24.09,24.09,0,0,0-.52-3,5.71,5.71,0,0,0-6.33-4.1c-2,.24-3.91.58-5.86.89a.84.84,0,0,0-.79,1,3.72,3.72,0,0,0,.08.57A2.15,2.15,0,0,1,84,35.08c-.67.14-1.35.22-2,.33-3.42.54-6.84,1.12-10.26,1.68a2.16,2.16,0,0,1-2.67-2c-.12-1-.34-1.16-1.27-1-1.89.28-3.77.56-5.64.89a5.72,5.72,0,0,0-4.59,5.31A24.35,24.35,0,0,0,58,44.76c.39,2.68.85,5.35,1.27,8,.47,3,.92,6.08,1.39,9.12s.94,5.93,1.41,8.9l1.32,8.24c.17,1.11.38,2.22.46,3.34a11.34,11.34,0,0,0-2.27.73c-.21-1.48-.42-3-.64-4.43-.33-2.1-.68-4.2-1-6.3-.37-2.41-.74-4.83-1.12-7.24-.26-1.62-.55-3.23-.8-4.85-.22-1.37-.41-2.76-.62-4.13q-.42-2.72-.86-5.43c-.28-1.77-.59-3.52-.83-5.29a45.47,45.47,0,0,1-.6-4.65,17.72,17.72,0,0,1,.29-2.91c.14-.08.17-.22.23-.36a6.85,6.85,0,0,1,3.78-3.87A11.36,11.36,0,0,1,62.18,33c2.28-.36,4.57-.74,6.85-1.12l3.67-.6A7.16,7.16,0,0,0,75,30.86h-.16l6.15-1c1.18-.12,2.35-.3,3.51-.53,2.58-.49,5.19-.87,7.79-1.22a10.36,10.36,0,0,1,3.14.13.74.74,0,0,0,.43.12c0,.06.07.1.14.08A6.79,6.79,0,0,1,100.42,33h0c.08.36.3,1.36.35,1.66,0,0,0,0,0,0,.44,2.48.78,5,1.17,7.45.18,1.16.28,2.33.57,3.47a17.19,17.19,0,0,0,.39,2.67c.35,2.26.72,4.52,1.09,6.77C104.22,56.3,104.33,57.54,104.61,58.75Z"/><path class="cls-6" d="M141.06,56.13c-.22-.08-.49-.07-.66-.31,0-.13,0-.28,0-.42s.09-.33.11-.5c.06-.5-.1-.79-.47-.85s-.63.13-.76.62c-.08.33,0,.69-.3,1a10.67,10.67,0,0,1-1.8-.39c-.11-.44.15-.8.14-1.2s-.07-.54-.4-.61a.6.6,0,0,0-.74.31,1.62,1.62,0,0,0-.16.57.89.89,0,0,1-.29.63,6.31,6.31,0,0,1-1.8-.41c0-.44.19-.83.15-1.25a.58.58,0,0,0-.42-.54.54.54,0,0,0-.59.19,1.22,1.22,0,0,0-.25.61,1.1,1.1,0,0,1-.31.78L130.77,54a4.17,4.17,0,0,1,.14-1.15c0-.38-.07-.7-.49-.78s-.62.2-.71.57-.14.71-.2,1c-.23.1-.37,0-.54-.06l-1.57-.25a6.06,6.06,0,0,0,.27-1.68,1.11,1.11,0,0,0-.43-.43l-.77.45a2.89,2.89,0,0,1-.22,1.17,4.89,4.89,0,0,1-1.88-.22.9.9,0,0,1,0-.7,5.4,5.4,0,0,0,.09-.58c0-.33-.07-.59-.43-.65a.59.59,0,0,0-.7.5c-.09.33-.15.66-.24,1a5.79,5.79,0,0,1-1.85-.31,1.85,1.85,0,0,1,0-1c.08-.49-.12-.86-.48-.93s-.62.22-.73.68a2.72,2.72,0,0,1-.25.88,6.24,6.24,0,0,1-1.93-.32,3.69,3.69,0,0,1,.13-.95c.1-.54,0-.86-.43-.92s-.64.17-.76.71c0,.24-.1.47-.16.71,0,0-.06.08-.11.14a13.63,13.63,0,0,1-1.8-.35,2.11,2.11,0,0,1,.09-1c.07-.5-.08-.8-.44-.87s-.71.21-.79.68a1.86,1.86,0,0,1-.26.88,6.15,6.15,0,0,1-1.79-.33c-.16-.42.07-.76.08-1.12s0-.7-.47-.77-.62.17-.71.57a2.78,2.78,0,0,1-.25,1,3.6,3.6,0,0,1-.92-.1c-.2,0-.34.15-.55.17a2.87,2.87,0,0,0-2.66,2.3c-.12.47-.23.94-.33,1.42s0,.8.61.92c3.7.78,7.4,1.55,11.09,2.34a6.7,6.7,0,0,1,.76.24,10,10,0,0,1,2.43.47c3.24.67,6.48,1.37,9.72,2l1,.26,1.28.19c.5.12,1,.25,1.5.36,2.64.57,5.29,1.15,7.94,1.71.54.12.78,0,.91-.56s.22-.95.3-1.43A3.28,3.28,0,0,0,141.06,56.13Zm.79,4.47-4.75-1-5.35-1.16a4.62,4.62,0,0,1-1.15-.29,15,15,0,0,1-2.58-.48c-3.79-.77-7.57-1.58-11.36-2.38a1.76,1.76,0,0,1-.2-.09,5.6,5.6,0,0,1-1.57-.3l-7.79-1.66c-.11-1.91,1.14-3,2.86-2.45a4.86,4.86,0,0,1-.19,1.13c-.07.5.06.73.42.79s.59-.11.71-.57a5.21,5.21,0,0,1,.26-1.07c.66,0,1.15.48,1.77.63,0,.25.14.51.07.82s-.1.65.27.83.64-.07.87-.34c-.09-.41.16-.75.17-1.18a9.2,9.2,0,0,1,2,.32c.11.42-.14.78-.13,1.17s.15.69.53.73.56-.24.65-.56a2.42,2.42,0,0,1,.31-1.07l1.83.39c.18.51-.13.94-.09,1.4,0,.27.11.48.4.54a.53.53,0,0,0,.66-.32,5.15,5.15,0,0,0,.16-.56,1.87,1.87,0,0,1,.25-.73,9.38,9.38,0,0,1,1.88.39,3,3,0,0,1-.15,1c-.11.54,0,.87.4,1s.62-.16.78-.7c.08-.28,0-.59.24-.87a5.54,5.54,0,0,1,1.86.3,1.56,1.56,0,0,1-.07.92,1.14,1.14,0,0,0,0,.66.56.56,0,0,0,.49.38.48.48,0,0,0,.57-.36c.13-.41.23-.84.34-1.28a2.38,2.38,0,0,1,1.36.27,1,1,0,0,1,.56,1c-.07,1-.05,1,.89,1a3.62,3.62,0,0,1,.4-1.05.88.88,0,0,1,.15-.57,9.46,9.46,0,0,1,1.73.32c.17.27.06.48,0,.69s-.08.43-.1.65a.54.54,0,0,0,.49.62.54.54,0,0,0,.63-.39c.12-.37.19-.75.29-1.15.7-.14,1.29.22,1.9.21.2.45,0,.79,0,1.15s-.06.71.39.82.63-.1.76-.6a5.21,5.21,0,0,1,.27-1,11.64,11.64,0,0,1,1.83.32c.19.21.1.4.07.59s-.1.33-.12.5c-.06.55.06.81.42.89s.66-.19.77-.69c.07-.28.13-.57.2-.88a1.61,1.61,0,0,1,1.64.74A2.4,2.4,0,0,1,141.85,60.6Z"/><path class="cls-7" d="M129,53.6l-1.57-.25a6.06,6.06,0,0,0,.27-1.68A9,9,0,0,1,129,53.6Z"/><path class="cls-8" d="M96,28.4c-.07,0-.11,0-.14-.08Z"/><path class="cls-9" d="M107.49,108.3c-.21-1.47-.49-2.93-.73-4.4l-.84-5.07-1.26-7.74-2-12.6a4.68,4.68,0,0,1-.15-1.24,1.58,1.58,0,0,0-.24-.44,3.17,3.17,0,0,1-.77-3,5.92,5.92,0,0,0,.17-1.73c-.28-1.09-.41-2.2-.6-3.31-.53-3.21-1.06-6.42-1.55-9.63-.6-3.94-1.35-7.85-1.88-11.8-.24-1.82-.56-3.63-.87-5.44a2.46,2.46,0,0,0-3.14-2.25c-2.77.44-5.54.93-8.31,1.37-3,.48-6,.93-8.92,1.41l-4.63.75-7.82,1.28a3.08,3.08,0,0,0-1.25.38,2.13,2.13,0,0,0-1,2.11c.13,1.14.31,2.28.49,3.41Q63.06,56.3,64,62.21c.68,4.2,1.37,8.4,2,12.6q.6,3.73,1.17,7.47a6.4,6.4,0,0,1,.05.88,2.74,2.74,0,0,1,1.29,2c.57.06.91.48,1.33.79.16-.08.29-.17.27-.39-.1-1-.35-1.91-.47-2.87a35.19,35.19,0,0,1-.67-4.9,1.7,1.7,0,0,1,1.36-1.68c1.63-.27,3.26-.5,4.89-.76,1.25-.2,2.48-.45,3.73-.64s2.29-.4,3.45-.54,2.59-.42,3.88-.64l4.09-.67c1.72-.29,3.44-.58,5.17-.85.62-.09,1.25-.2,1.87-.31A1.75,1.75,0,0,1,99.28,73c.3,1.82.67,3.62.91,5.45.14,1.13.34,2.26.55,3.38.28,1.49-.28,2.2-1.85,2.4-1,.12-2,.32-2.94.48l-4.17.68c-2,.33-4.06.7-6.1,1-1.37.19-2.74.41-4.1.63-1.73.27-3.45.58-5.17.84a26.74,26.74,0,0,1-4.62.63c-.26,0-.42.1-.45.36a1,1,0,0,1,.07.15,2.21,2.21,0,0,1,2.64,1c0,.07.16.09.25.13a.33.33,0,0,1,.23-.15c2.15-.23,4.27-.62,6.38-1A1.68,1.68,0,0,1,83,90.4c.11.94.37,1.85.49,2.79.18,1.41.45,2.82.69,4.23,0,.14,0,.28.07.43.26,1.44,0,2.39-1.81,2.63s-3.59.51-5.37.86a7.36,7.36,0,0,1-.81.06c.05.53.33,1,.36,1.56a3.2,3.2,0,0,1-2.13,3.39c-1.06.42-2.13.82-3.17,1.31.32,2,.63,4,1,6a2.44,2.44,0,0,0,3.1,2.21c1.74-.27,3.47-.57,5.21-.85l7.75-1.27,6.8-1.09L105.19,111a2.82,2.82,0,0,0,1.43-.52A2.28,2.28,0,0,0,107.49,108.3ZM94.74,48.51a.47.47,0,0,1-.44.5c-.86.17-1.71.36-2.58.45-1,.11-2,.37-3.08.51s-2.3.35-3.45.54c-1.62.26-3.25.53-4.87.81a5.17,5.17,0,0,0-1.17.22c-.42,0-.68-.18-.71-.55a.54.54,0,0,1,.52-.65c.79-.12,1.58-.28,2.37-.42l4.94-.83,4-.64,3.37-.55a1.62,1.62,0,0,1,.58,0A.61.61,0,0,1,94.74,48.51Zm-8.42,4.37a1.3,1.3,0,0,1-.7.12h-.29c-.14.2-.29.2-.44,0h-.44c-.06.31-.2.39-.44.14h-.59c-.06.31-.2.39-.44.14H82.4c0,.19-.07.38-.3.15h-.58c-.07.31-.21.39-.45.15h-.44c0,.4-.36.26-.59.28h-.29c-.3.2-.57.33-.74-.14a.29.29,0,0,1-.15-.29c-.38-.19-.38-.28,0-.59h0c.14-.36.45-.29.73-.29h.29c.15-.2.29-.2.44,0h.44c.1-.48.48-.22.74-.28h.29c.43-.15.85-.43,1.33-.15h.29c.1-.42.33-.35.59-.15h.29c.1-.42.33-.34.59-.14l.59-.14c.1-.19.28-.15.44-.15h.29a.6.6,0,0,1,.59.61A.72.72,0,0,1,86.32,52.88Zm2.54-6.64h.29c0-.27.2-.27.41-.3a3.49,3.49,0,0,1,1.07-.13h.29c.14-.2.29-.2.44,0h.43c.06-.41.37-.26.6-.28h.44A1.38,1.38,0,0,1,94,45.4c.41.07.52.67.22,1a1.67,1.67,0,0,1-1.4.44h-.29c-.15.23-.38.13-.59.14h-.29c-.1.19-.28.15-.45.15h-.43c-.15.23-.39.13-.59.15h-.29c-.48.15-.94.47-1.47.15h-.29c-.06.32-.2.4-.45.15h-.43c-.11.42-.34.35-.6.15h-.29c0,.4-.36.26-.59.28h-.44c-.15.24-.39.13-.59.15h-.29A2.13,2.13,0,0,1,83,48.3h-.29c-.11.42-.33.34-.59.14h-.59c-.06.31-.2.38-.44.14h-.29c0,.4-.37.26-.6.28h-.29a3.89,3.89,0,0,1-1.31.28.39.39,0,0,1-.45-.28c-.42-.47-.27-1.06.35-1.14a4.86,4.86,0,0,1,1.42-.18h.29a3.87,3.87,0,0,1,2.2-.3h.44c0-.31.23-.29.45-.28l.58.13c0-.31.23-.29.45-.28h.29a.34.34,0,0,1,.58,0h.44c0-.27.21-.27.41-.3a3.53,3.53,0,0,1,1.07-.13h.29c.15-.24.39-.13.59-.15h.29A.35.35,0,0,1,88.86,46.24Zm-11-.84a1.32,1.32,0,0,1,.55-.18c1.74-.18,3.44-.56,5.17-.82,1.29-.2,2.58-.4,3.87-.64.58-.11.75.05,1,.76-.14.39-.52.46-.84.51-1.43.24-2.87.41-4.31.63s-2.63.43-3.94.67a11.48,11.48,0,0,0-1.15.19.56.56,0,0,1-.7-.39C77.45,45.8,77.64,45.57,77.91,45.4ZM65.34,55.89c-.14-1.55-.48-3.07-.68-4.6a24.09,24.09,0,0,1-.49-3.68,1.52,1.52,0,0,1,1.2-1.52,14.57,14.57,0,0,1,2.36-.41c1.09-.14,2.15-.39,3.23-.55.82-.12,1.63-.29,2.45-.34,1.46-.1,2,.3,2.21,1.86s.57,3.3.82,5c.14,1,.34,2,.37,2.62,0,1.43-.42,1.87-1.49,2-1.63.24-3.25.58-4.88.8-1.09.14-2.15.4-3.23.52A1.64,1.64,0,0,1,65.34,55.89ZM97,69c-2.66.43-5.32.81-8,1.29-2.29.42-4.6.71-6.9,1.08-1.94.3-3.87.66-5.81,1-1.38.22-2.78.43-4.17.63-.74.11-1.48.24-2.23.34A1.52,1.52,0,0,1,68,71.88c-.16-1.1-.4-2.19-.58-3.29-.21-1.27-.39-2.54-.6-3.81a16.15,16.15,0,0,1-.28-2.09,1.88,1.88,0,0,1,1.64-1.89c1.86-.29,3.73-.59,5.6-.87,2.35-.36,4.71-.64,7-1.07,1.93-.35,3.88-.61,5.81-.94,1.41-.25,2.82-.48,4.24-.66,1.06-.14,2.11-.32,3.16-.52a9.07,9.07,0,0,1,1.37-.13A1.7,1.7,0,0,1,96.91,58c.13.62.22,1.24.32,1.86.22,1.29.45,2.58.66,3.88s.37,2.39.52,3.4A1.66,1.66,0,0,1,97,69ZM96.5,90.34a9,9,0,0,1,2.36-.44h.29a6.7,6.7,0,0,1,2.17-.43c.45,0,.62.34.73.69s-.11.45-.4.47a.27.27,0,0,1-.31.29h-.43c-.1.19-.28.14-.45.14h-.58c-.1.19-.28.14-.45.14H99c-.15.24-.39.13-.59.15h-.29c-.11.19-.28.14-.45.14h-.58c-.15.2-.29.2-.44,0h-.44c0,.31-.23.29-.45.28h-.44c-.1.19-.28.15-.44.15h-.44c-.14.2-.29.2-.44,0h-.43c0,.31-.24.29-.46.28h-.43a.35.35,0,0,1-.59,0h-.44c-.06.32-.2.39-.44.15h-.44c0,.4-.36.26-.59.28h-.29a.5.5,0,0,1-.74,0h-.29c-.1.42-.33.35-.59.15H88c-.11.42-.33.34-.59.14H87.1c-.11.42-.34.34-.59.14-.3,0-.63.13-.89-.15-.21,0-.29-.12-.28-.33s.12-.24.28-.26l.15-.14c0-.17.08-.29.26-.29.41,0,.8-.23,1.22-.15h.29c.15-.23.38-.13.59-.14h.29c.15-.23.38-.12.59-.14h.44c.14-.2.29-.2.44,0h.29c0-.41.36-.26.59-.28h.29c.21-.26.49-.11.74-.14h.29c.15-.2.29-.21.44,0h.29c.05-.41.37-.26.6-.29h.29c.15-.23.39-.12.59-.14h.29a3.91,3.91,0,0,1,1.62-.29Zm-10.92-.87q.83-.18,1.65-.3c2.45-.34,4.9-.69,7.33-1.15a4.74,4.74,0,0,1,.63,0c.31,0,.64-.1.82.24a.64.64,0,0,1-.52.93c-1,.16-2,.3-2.95.45l-6.11,1c-.24,0-.49,0-.73,0s-.74-.08-.77-.49S85.22,89.54,85.58,89.47Zm13,19.19c-2.73.54-5.49.93-8.24,1.38,0,0-.09,0-.14,0a6.2,6.2,0,0,1-1.76.31.23.23,0,0,1-.3,0,5.59,5.59,0,0,1-1.47.25,28.35,28.35,0,0,1-3.67.6,5.15,5.15,0,0,1-1.91.28.35.35,0,0,1-.44,0,3.71,3.71,0,0,1-3.4-2.29.26.26,0,0,1-.12-.22,3.36,3.36,0,0,1-.21-2.49,3.1,3.1,0,0,1,1.07-2,2.66,2.66,0,0,1,1.63-1,.25.25,0,0,1,.29-.12,7.36,7.36,0,0,1,1.91-.33c1.54-.38,3.12-.57,4.68-.85,2.81-.5,5.63-1,8.44-1.41.75-.13,1.5-.25,2.25-.32a4.22,4.22,0,0,1,4.47,3.31A4.09,4.09,0,0,1,98.56,108.66ZM86.79,97c1.45-.24,2.9-.51,4.36-.72a12,12,0,0,1,2.23-.31h.07c.38,0,.7,0,.82.45s-.31.65-.77.73l-6.23,1a2.16,2.16,0,0,1-.44,0,.56.56,0,0,1-.6-.52C86.19,97.22,86.42,97,86.79,97Zm15-3.68L97.44,94c-1.72.28-3.44.62-5.17.83-1.42.18-2.82.52-4.25.65a11.24,11.24,0,0,0-1.14.18c-.69.14-.69.15-1.07-.51a1.31,1.31,0,0,1,1.11-.7c2.61-.44,5.21-.88,7.82-1.3,1.94-.32,3.88-.61,5.83-.91a6.25,6.25,0,0,1,1.15-.16.63.63,0,0,1,.62.6C102.4,93.05,102.13,93.22,101.82,93.27Z"/><path class="cls-10" d="M101.66,72.11c-.28-1.09-.41-2.2-.6-3.31-.52-3.21-1.06-6.42-1.55-9.63-.6-3.94-1.35-7.85-1.88-11.8-.24-1.82-.56-3.63-.87-5.44a2.46,2.46,0,0,0-3.14-2.25c-2.77.44-5.54.93-8.31,1.37-3,.48-6,.93-8.92,1.41l-4.63.75-7.82,1.28a3.08,3.08,0,0,0-1.25.38,2.13,2.13,0,0,0-1,2.11c.13,1.14.31,2.28.49,3.41Q63.06,56.3,64,62.21c.68,4.2,1.37,8.4,2,12.6q.6,3.73,1.17,7.47a6.4,6.4,0,0,1,.05.88A6.27,6.27,0,0,0,65.64,83c-.44-.62-1.11-.59-1.76-.62-.08-1.12-.29-2.23-.46-3.34L62.1,70.81c-.47-3-1-5.93-1.41-8.9s-.92-6.08-1.39-9.12c-.42-2.68-.88-5.35-1.27-8a24.35,24.35,0,0,1-.52-4.51,5.73,5.73,0,0,1,4.59-5.31c1.87-.33,3.76-.6,5.64-.89.93-.14,1.14.05,1.27,1a2.16,2.16,0,0,0,2.67,2c3.42-.56,6.83-1.14,10.26-1.68.67-.11,1.35-.19,2-.33a2.15,2.15,0,0,0,1.76-2.55,3.72,3.72,0,0,1-.08-.57.85.85,0,0,1,.79-1c1.95-.3,3.9-.64,5.86-.88a5.71,5.71,0,0,1,6.33,4.1,24.26,24.26,0,0,1,.52,2.95q.56,3.41,1.09,6.8c.43,2.73.85,5.45,1.28,8.18.47,3,.95,5.93,1.41,8.9.13.79.24,1.59.35,2.39a1,1,0,0,0,.27.73c-.63,2.54-1.11,5.11-1.6,7.68C101.9,72,101.83,72.09,101.66,72.11Z"/><path class="cls-10" d="M71.3,107.66c.32,2,.63,4,1,6a2.44,2.44,0,0,0,3.1,2.21c1.74-.27,3.48-.57,5.21-.86l7.75-1.26,6.8-1.09L105.19,111a2.82,2.82,0,0,0,1.43-.52,2.28,2.28,0,0,0,.87-2.22c-.21-1.47-.49-2.93-.73-4.4l-.84-5.07-1.26-7.74-2-12.6a4.68,4.68,0,0,1-.15-1.24c.36-.08.58.21.86.31a15.8,15.8,0,0,0,2.44.6,2.31,2.31,0,0,0,0,.87c.33,1.93.65,3.85,1,5.78.42,2.6.81,5.21,1.24,7.81s.83,5,1.24,7.44c.48,3,1,5.93,1.43,8.9a24.15,24.15,0,0,1,.52,4.57,5.6,5.6,0,0,1-4.53,5.33c-3.62.67-7.27,1.19-10.91,1.77-3.09.49-6.17,1-9.25,1.49-3.35.56-6.7,1.1-10.05,1.65a6,6,0,0,1-6.33-3.69,16.52,16.52,0,0,1-.63-3c-.46-2.68-1-5.34-1.31-8a1,1,0,0,1,.47-.32Z"/><path class="cls-5" d="M68.22,109.05c.36,2.69.85,5.35,1.31,8a16.52,16.52,0,0,0,.63,3,6,6,0,0,0,6.33,3.69c3.35-.55,6.7-1.09,10.05-1.65,3.08-.51,6.16-1,9.25-1.49,3.64-.58,7.29-1.1,10.91-1.77a5.6,5.6,0,0,0,4.53-5.33,24.15,24.15,0,0,0-.52-4.57c-.45-3-.95-5.93-1.43-8.9-.41-2.48-.84-5-1.24-7.44s-.82-5.21-1.24-7.81c-.31-1.93-.63-3.85-1-5.78a2.31,2.31,0,0,1,0-.87l2,.45c.32,2,.69,4,1,5.93.3,2.18.68,4.35,1,6.52.44,2.78.9,5.55,1.35,8.33.41,2.53.8,5.07,1.2,7.61.25,1.59.52,3.18.76,4.78a9.12,9.12,0,0,1-.23,4.28,7.29,7.29,0,0,1-4.41,4.42,13.07,13.07,0,0,1-3.26.8c-1.87.26-3.72.58-5.58.88l-5.07.81c-2.49.39-5,.77-7.45,1.2-2.17.38-4.35.67-6.52,1-1.23.2-2.46.42-3.69.61a8.3,8.3,0,0,1-6.36-1.34,7.09,7.09,0,0,1-2.94-4.57c-.38-1.84-.65-3.71-1-5.56l-.75-4.41A6.49,6.49,0,0,1,68.22,109.05Z"/><path class="cls-6" d="M131.94,63.14l-3.09-.66c-.34-.07-.67,0-.76.38q-.39,1.73-.72,3.45c-.08.36.13.6.51.68,1,.21,2.05.45,3.08.66a.69.69,0,0,0,.92-.6c.18-.74.33-1.48.49-2.22.07-.34.14-.67.2-.92A.68.68,0,0,0,131.94,63.14Zm-1.09,3.25a13.71,13.71,0,0,1-2.17-.49,10.1,10.1,0,0,1,.41-2.14,15,15,0,0,1,2.08.46A13.24,13.24,0,0,1,130.85,66.39Z"/><path class="cls-6" d="M130.55,69.76l-2.93-.62c-.72-.15-.9,0-1.06.71-.2.93-.38,1.86-.56,2.79-.13.6,0,.8.59.94,1,.22,1.95.42,2.93.62.59.12.81,0,.94-.6s.3-1.38.45-2.07c.08-.36.17-.71.24-1A.66.66,0,0,0,130.55,69.76ZM129.35,73a13.43,13.43,0,0,1-2.1-.52,13.57,13.57,0,0,1,.48-2.16l2.11.47A15.46,15.46,0,0,1,129.35,73Z"/><path class="cls-6" d="M116.81,66.79c-1-.24-2.09-.47-3.15-.69a.64.64,0,0,0-.82.54c-.22,1-.45,2-.66,3.08-.09.48,0,.72.49.83,1.07.26,2.14.49,3.22.72a.56.56,0,0,0,.74-.43c.25-1.12.48-2.24.7-3.28C117.36,67.09,117.17,66.87,116.81,66.79ZM115.61,70l-2.16-.45a19.15,19.15,0,0,1,.44-2.13,9.27,9.27,0,0,1,2.16.42A14.26,14.26,0,0,1,115.61,70Z"/><path class="cls-6" d="M138.8,64.62c-1-.22-2-.45-3-.66-.46-.1-.73,0-.83.48-.25,1-.48,2.1-.68,3.15-.09.53.07.72.58.84l2.94.64c.58.12.82,0,.95-.6.18-.79.33-1.58.5-2.37.05-.26.11-.52.14-.66A.67.67,0,0,0,138.8,64.62Zm-1.13,3.22-2.08-.48a11.67,11.67,0,0,1,.42-2.15l2.07.44A13.84,13.84,0,0,1,137.67,67.84Z"/><path class="cls-6" d="M110.45,58.54c-.8-.19-1.62-.34-2.4-.51a.63.63,0,0,0-.7.55c-.21,1-.44,2.05-.64,3.08-.11.52.08.76.62.88,1,.22,1.91.42,2.87.62.61.13.84,0,1-.64s.29-1.44.45-2.15C112,58.65,111.76,58.85,110.45,58.54Zm-.4,3.31a8.79,8.79,0,0,1-2-.38c0-.74.29-1.38.35-2.11a16.93,16.93,0,0,1,2.09.39A5.17,5.17,0,0,1,110.05,61.85Z"/><path class="cls-6" d="M122.38,74.9c-1.11-.26-2.23-.51-3.35-.74a.58.58,0,0,0-.71.49c-.23,1.07-.45,2.15-.66,3.22a.6.6,0,0,0,.49.77c1,.24,2.09.46,3.14.68a.59.59,0,0,0,.78-.47c.26-1.06.5-2.14.71-3.07C122.84,75.29,122.77,75,122.38,74.9Zm-1.26,3a2,2,0,0,1-1.06-.09L119,77.63a10.85,10.85,0,0,1,.32-2.17,14.52,14.52,0,0,1,2.18.41A17.57,17.57,0,0,1,121.12,78Z"/><path class="cls-6" d="M109.92,65.32c-1.07-.25-2.15-.46-3.15-.67-.4,0-.69.1-.76.43-.25,1.12-.48,2.24-.69,3.37a.52.52,0,0,0,.47.63c1,.24,2,.47,3.08.67.58.12.77,0,.9-.58.24-1,.43-2,.65-3A.63.63,0,0,0,109.92,65.32Zm-1.16,3.05a1.57,1.57,0,0,1-1.06-.07,5,5,0,0,1-1.08-.26A10.54,10.54,0,0,1,107,66a9.12,9.12,0,0,1,2.14.39C109.11,67.08,108.83,67.72,108.76,68.37Z"/><path class="cls-6" d="M117.88,60.11l-2.71-.59c-.57-.12-.81,0-1,.61s-.32,1.47-.49,2.21c-.33,1.52-.23,1.5,1.15,1.78l2.41.51c.54,0,.69-.16.8-.69.18-.88.37-1.76.55-2.65S118.67,60.28,117.88,60.11ZM117,63.34a9.8,9.8,0,0,1-2.1-.44,10.38,10.38,0,0,1,.38-2.08,14.92,14.92,0,0,1,2.12.36A10.55,10.55,0,0,1,117,63.34Z"/><path class="cls-6" d="M137.31,71.17c-1-.21-1.95-.41-2.93-.6-.51-.1-.73,0-.85.55-.22,1-.43,2-.63,3-.11.57,0,.77.57.89l2.86.61c.65.14.86,0,1-.68s.27-1.19.4-1.78c.1-.43.18-.86.26-1.28S137.83,71.29,137.31,71.17Zm-1.05,3.3-2.1-.48a11,11,0,0,1,.42-2.1,2.12,2.12,0,0,1,1,.13,3.22,3.22,0,0,1,1.07.3A13.56,13.56,0,0,1,136.26,74.47Z"/><path class="cls-6" d="M123.68,68.28c-1-.24-2.05-.47-3.08-.68-.5-.1-.75.05-.86.55-.25,1-.46,2.11-.68,3.16a.56.56,0,0,0,.44.73c1.09.26,2.19.48,3.29.71a.64.64,0,0,0,.78-.59c.2-1,.44-2,.64-3C124.32,68.64,124.18,68.4,123.68,68.28Zm-1.19,3.23-2.14-.45a16,16,0,0,1,.43-2.17,15.68,15.68,0,0,1,2.22.42C122.82,70.11,122.66,70.79,122.49,71.51Z"/><path class="cls-6" d="M115.31,73.37c-1-.21-2-.44-2.93-.64-.55-.11-.78,0-.91.57-.24,1-.47,2-.67,3-.12.54,0,.78.59.9,1,.21,2,.41,2.94.59.56.1.82-.08,1-.65.2-.88.38-1.77.57-2.65,0-.14.05-.29.06-.34A.67.67,0,0,0,115.31,73.37Zm-1.14,3.18a13.86,13.86,0,0,1-2.08-.4A11.33,11.33,0,0,1,112.5,74a13.6,13.6,0,0,1,2.12.4A13.48,13.48,0,0,1,114.17,76.55Z"/><path class="cls-6" d="M108.47,71.93c-1-.24-2-.46-3.07-.68a.59.59,0,0,0-.79.45c-.25,1.07-.48,2.14-.7,3.22a.6.6,0,0,0,.48.78c1.07.25,2.15.46,3.11.66.51.07.78-.08.87-.49.22-1,.44-2.05.64-3.08C109.11,72.29,109,72.05,108.47,71.93Zm-1.15,3.12a8.62,8.62,0,0,1-2.11-.39,13.18,13.18,0,0,1,.4-2.12,9.26,9.26,0,0,1,2.16.48A14.15,14.15,0,0,1,107.32,75.05Z"/><path class="cls-6" d="M135.92,77.77c-.95-.22-1.91-.43-2.86-.63-.58-.12-.82,0-.95.61-.17.77-.33,1.53-.48,2.3-.26,1.36-.26,1.37,1.1,1.68.83.19,1.67.34,2.46.5a.62.62,0,0,0,.7-.57c.21-1,.43-2,.63-2.93C136.64,78.14,136.49,77.9,135.92,77.77Zm-1.07,3.17a10.9,10.9,0,0,1-2.16-.44c.16-.73.3-1.38.45-2a9.87,9.87,0,0,1,2.14.37A15,15,0,0,1,134.85,80.94Z"/><path class="cls-6" d="M122.75,64.24a10.23,10.23,0,0,1,2.35-2.11l.12-.08c.6-.38.93-.38,1.14,0s.07.64-.47,1a10.5,10.5,0,0,0-2.66,2.49c-.49.61-.87.58-1.27-.12a7.27,7.27,0,0,0-1.28-1.59c-.12-.12-.26-.22-.38-.35-.31-.34-.33-.73,0-1s.59-.14.85.09a7,7,0,0,1,1.06,1.11A1.58,1.58,0,0,0,122.75,64.24Z"/><path class="cls-6" d="M126.86,78.83,128,77.71a7.9,7.9,0,0,1,1.59-1.18.58.58,0,0,1,.89.18.55.55,0,0,1-.27.8,11.37,11.37,0,0,0-3,2.7c-.36.45-.78.46-1.06,0a8.89,8.89,0,0,0-1.78-2.13l-.11-.1a.55.55,0,0,1,0-.79.51.51,0,0,1,.79,0c.41.38.8.78,1.19,1.18A1.78,1.78,0,0,0,126.86,78.83Z"/><path class="cls-11" d="M76.6,103c0-.55-.31-1-.36-1.56a10.56,10.56,0,0,1-.73-1.86c-.12-.29-.23-.58-.34-.87a14.85,14.85,0,0,0-2.75,1c-1.19.44-2.34,1-3.53,1.43a4.69,4.69,0,0,1-5.63-1.91c-.35-.6-.31-.77.23-1.12a3.61,3.61,0,0,1,2.15-4.5c1.92-.85,3.87-1.62,5.81-2.43l.68-.28c-.13-.71-.55-1.28-.72-1.94a1,1,0,0,0-.07-.15A13.72,13.72,0,0,1,70.49,87c-.18-.36-.4-.72-.61-1.07-.42-.31-.76-.73-1.33-.79-.69.28-.69.28-1.17-.27a6.94,6.94,0,0,0-1.95.62L42.11,94.76a7.71,7.71,0,0,1-1.11.39,1,1,0,0,1-1.28-.61c-.38-.67-.3-.92.42-1.22l6.92-2.8,7.6-3.07c2.51-1,5-2,7.55-3,1.15-.46,2.29-1,3.43-1.44-.44-.62-1.11-.59-1.76-.62a11.34,11.34,0,0,0-2.27.73l-2.61,1L44.73,89.51c-1.66.64-3.33,1.27-5,2a3,3,0,0,0-1.67,4.11c1.34,3.38,2.66,6.77,4,10.16,1.09,2.8,2.19,5.6,3.27,8.41a3.79,3.79,0,0,0,4.78,2.11q5.81-2.38,11.61-4.72c1.39-.56,2.78-1.09,4.16-1.64a6.49,6.49,0,0,1,2.33-.86,1,1,0,0,1,.47-.32l2.61-1.07c1-.49,2.11-.89,3.17-1.31A3.2,3.2,0,0,0,76.6,103ZM47.88,113.81a.53.53,0,0,1-.72-.34c-.21-.49-.4-1-.6-1.5q-2-5-4-10.09c-.27-.67-.56-1.35-.8-2-.16-.46.1-.86.55-.82s.49.38.61.7c.4,1,.78,2,1.18,3.07,1.05,2.66,2,5.33,3.17,8,.29.67.53,1.36.8,2,0,.09.05.18.08.28A.55.55,0,0,1,47.88,113.81ZM58,91.5,47.24,95.78l-5.79,2.3a4,4,0,0,1-.54.15c-.59-.53-.53-.91.23-1.22l3.47-1.36c3.17-1.27,6.34-2.56,9.51-3.82l11.24-4.41c.3-.12.6-.2.89-.29.6.55.55.87-.17,1.16C63.38,89.36,60.68,90.42,58,91.5Z"/><path class="cls-11" d="M75,30.86a7.16,7.16,0,0,1-2.34.37v0l2.18-.36Z"/><path class="cls-12" d="M97.89,63.72c-.21-1.3-.44-2.59-.66-3.88-.1-.62-.19-1.24-.32-1.86a1.7,1.7,0,0,0-1.52-1.37,9.07,9.07,0,0,0-1.37.13c-1,.2-2.1.38-3.16.52-1.42.18-2.83.41-4.24.66-1.93.33-3.88.59-5.81.94-2.34.43-4.7.71-7,1.07-1.87.28-3.74.58-5.6.87a1.88,1.88,0,0,0-1.64,1.89,16.15,16.15,0,0,0,.28,2.09c.21,1.27.39,2.54.6,3.81.18,1.1.42,2.19.58,3.29a1.52,1.52,0,0,0,1.9,1.45c.75-.1,1.49-.23,2.23-.34,1.39-.2,2.79-.41,4.17-.63,1.94-.31,3.87-.67,5.81-1,2.3-.37,4.61-.66,6.9-1.08,2.65-.48,5.31-.86,8-1.29a1.66,1.66,0,0,0,1.45-1.9C98.26,66.11,98.08,64.91,97.89,63.72Zm-29.6,3.8a2.45,2.45,0,0,1,.57-2c.31-.21.72-.09,1.08.33.16.2.23.52.65.38.16-.78.34-1.59.49-2.39,0-.3.16-.54.45-.6s.42.19.56.4a22,22,0,0,1,1.24,1.89c.07.14.13.33.41.3a2.27,2.27,0,0,0,.29-.91c.15-.59.3-1.18.48-1.76.08-.28.21-.55.59-.54a.75.75,0,0,1,.68.47c.2.3.21.77.72.86a1.49,1.49,0,0,0,.4-.76c.13-.3.33-.52.67-.38s.21.42.1.68q-.3.75-.57,1.5c-.11.3-.26.54-.61.53s-.46-.22-.55-.5a2.49,2.49,0,0,0-.5-.92c-.31,0-.36.2-.43.39a14.61,14.61,0,0,0-.59,2,2.11,2.11,0,0,1-.17.48c-.22.44-.51.48-.85.12a12,12,0,0,1-1.07-1.66c-.14-.22-.22-.5-.57-.54-.52,1.1-.09,2.51-1,3.53-.75-.41-.8-1.27-1.4-1.67C68.89,66.87,68.85,67.53,68.29,67.52Zm10.19,1.19-2.66.44c-1.36.24-2.72.5-4.09.68a17.4,17.4,0,0,1-2.92.34c-.13-.45,0-.63.38-.69l2.51-.43,6-1a3.57,3.57,0,0,1,.73,0,.34.34,0,0,1,.36.3C78.85,68.56,78.7,68.67,78.48,68.71ZM80,61.65c0-.42.17-.61.73-.71.17,0,.33-.1.49-.13,1.11-.16,2.21-.29,3.32-.46,1.31-.2,2.63-.4,3.94-.65A8.58,8.58,0,0,0,90,59.49a.55.55,0,0,1,.7.39c.13.33-.07.56-.34.73a1.45,1.45,0,0,1-.62.19c-1.54.15-3.07.42-4.6.66l-4.23.67C80.51,62.1,80.08,62.22,80,61.65Zm.32,2.63c-.09-.35.15-.53.41-.69a3,3,0,0,1,1.28-.26c1.11-.15,2.2-.34,3.3-.51.91-.14,1.81-.33,2.72-.46,1.51-.22,3-.51,4.52-.7,1-.11,1.91-.32,2.87-.49a.78.78,0,0,1,.88.53c.08.36-.18.64-.64.71-1.39.23-2.77.49-4.16.7s-3,.41-4.53.63c-1,.15-2,.34-3,.51l-2.91.51A.62.62,0,0,1,80.36,64.28Zm8.46,4.08a1,1,0,0,1-.55.19,17.81,17.81,0,0,0-1.94.31c-1.41.13-2.77.45-4.16.71a.74.74,0,0,1-.8-.18.66.66,0,0,1,.37-1.09c.52-.1,1.05-.16,1.58-.25L88,67.27a1.5,1.5,0,0,1,.3,0h0a1.45,1.45,0,0,1,.36,0,.6.6,0,0,1,.5.47A.55.55,0,0,1,88.82,68.36Zm7.49-3.6a7.59,7.59,0,0,1-1.65.28c-1.61.3-3.25.54-4.87.81-1.1.17-2.21.34-3.3.53-1.46.25-2.94.36-4.38.71a1.39,1.39,0,0,1-.32,0c-.22,0-.32,0-.41,0a.58.58,0,0,1-.59-.54.56.56,0,0,1,.43-.61,2.33,2.33,0,0,1,.63-.16c1.86-.2,3.69-.58,5.54-.85,1.46-.2,2.92-.48,4.38-.67a34.17,34.17,0,0,0,3.73-.63,1,1,0,0,1,1,.12C96.92,64.16,96.87,64.52,96.31,64.76Z"/><path class="cls-13" d="M100.74,81.78c-.21-1.12-.41-2.25-.55-3.38-.24-1.83-.61-3.63-.91-5.45a1.75,1.75,0,0,0-1.83-1.26c-.62.11-1.25.22-1.87.31-1.73.27-3.45.56-5.17.85l-4.09.67c-1.29.22-2.58.47-3.88.64s-2.3.36-3.45.54-2.48.44-3.73.64c-1.63.26-3.26.49-4.89.76A1.7,1.7,0,0,0,69,77.78a35.19,35.19,0,0,0,.67,4.9c.12,1,.37,1.9.47,2.87,0,.22-.11.31-.27.39.21.35.43.71.61,1.07a13.72,13.72,0,0,0,.85,1.77c0-.26.19-.36.45-.36a26.74,26.74,0,0,0,4.62-.63c1.72-.26,3.44-.57,5.17-.84,1.36-.22,2.73-.44,4.1-.63,2-.28,4.07-.65,6.1-1L96,84.66c1-.16,2-.36,2.94-.48C100.46,84,101,83.27,100.74,81.78Zm-29.15,4c-.44.07-.6-.21-.67-.58s-.19-.8-.26-1.2a.63.63,0,0,1,.51-.82c.47-.1.67,0,.81.55a7.31,7.31,0,0,1,.27,1.14C72.26,85.48,72.11,85.65,71.59,85.74Zm2.29-.5a.57.57,0,0,1-.72-.45,12.1,12.1,0,0,1-.31-1.57c-.15-.89-.35-1.77-.51-2.65,0-.26-.13-.55.07-.78a.72.72,0,0,1,.65-.25.56.56,0,0,1,.47.5c.19.93.38,1.86.56,2.79.12.57.21,1.14.32,1.72A.6.6,0,0,1,73.88,85.24Zm2.68-.36c-.27.29-.63.15-1,.16s-.37-.17-.42-.42a7.09,7.09,0,0,0-.22-.91.3.3,0,0,1,.18-.41.39.39,0,0,0,0-.3c-.31,0-.47-.14-.22-.44,0-.19,0-.39,0-.58s.07-.32.29-.33l.12-.05c0-.19.17-.24.32-.27s0-.2.16-.2.14.12.15.21l.17.17c.17,0,.35.07.14.29l0,.45c.28.07.31.22.12.44a2,2,0,0,0,0,.73A1.67,1.67,0,0,1,76.56,84.88Zm.9-1.11c-.22-1.13-.46-2.25-.68-3.37-.12-.6.14-.91.71-.88.39,0,.48.29.55.58.15.64.29,1.29.4,1.93s.21,1.44.32,2.16C78,84.79,77.63,84.67,77.46,83.77Zm2.88.44c-.38.09-.6-.12-.73-.45a8.17,8.17,0,0,1-.2-1.3c-.33-1.63-.6-3.26-.89-4.89,0-.12,0-.24,0-.36,0-.29,0-.55.36-.62s.72,0,.81.41c.17.69.29,1.39.42,2.08.25,1.36.44,2.74.76,4.1,0,.11,0,.24,0,.5S80.67,84.13,80.34,84.21Zm9.77-9c1.1-.31,2.25-.28,3.36-.56.94-.22,1.91-.32,2.85-.52.5-.11,1,0,1.52-.2a.57.57,0,0,1,.71.54c0,.38-.28.52-.55.57-1,.19-2,.33-2.94.48-.74.11-1.5.15-2.22.33s-1.62.29-2.42.5c-.44.12-.7-.06-.8-.51S89.72,75.28,90.11,75.18ZM82.7,76.89c0-.38.19-.56.54-.67.61-.18,1.25-.13,1.87-.27s1-.12,1.52-.21a5.39,5.39,0,0,0,1.4-.22c.55.72.48,1-.33,1.2a16.07,16.07,0,0,1-2.29.37,6.9,6.9,0,0,0-1.44.26,2.24,2.24,0,0,1-.58.05A.6.6,0,0,1,82.7,76.89Zm.43,2.41c0-.34.28-.52.79-.58,1.63-.19,3.26-.49,4.88-.78s3.43-.63,5.17-.85c1.24-.15,2.48-.43,3.72-.65a1.66,1.66,0,0,0,.21-.06c.5-.07.87.12.94.48s-.17.59-.74.7c-2.15.39-4.29.78-6.45,1.11-2.49.39-5,.78-7.46,1.22a.81.81,0,0,1-.22,0C83.44,79.91,83.12,79.68,83.13,79.3Zm7.78,4.44c-1.89.31-3.77.66-5.66,1a3.23,3.23,0,0,1-.44,0c-.69,0-.81-.09-.81-.62,0-.36.17-.49.53-.55,1.33-.26,2.68-.42,4-.67a13.81,13.81,0,0,1,2.23-.35c.55,0,.87.18.87.55S91.32,83.67,90.91,83.74ZM98.76,80c-1.27.2-2.54.38-3.81.6-1.67.28-3.35.53-5,.82-1.31.23-2.63.39-3.94.66a15.53,15.53,0,0,0-2.11.3c-.48-.77-.22-1.27.58-1.35a34.86,34.86,0,0,0,3.53-.5c1-.22,2.1-.35,3.15-.52l3.16-.52,4-.65a2.17,2.17,0,0,1,.36,0c.42,0,.55.33.58.64S99.05,80,98.76,80Z"/><path class="cls-14" d="M101.64,103.85a4.22,4.22,0,0,0-4.47-3.31c-.75.07-1.5.19-2.25.32-2.81.46-5.63.91-8.44,1.41-1.56.28-3.14.47-4.68.85a3.78,3.78,0,0,0,1.6,1,1.84,1.84,0,0,1,1.08.75l.46,0,.51-.06c.12-.2.32-.19.55-.18l.48,2.55a.38.38,0,0,0,.36-.23,4.23,4.23,0,0,1,0-.5,1.1,1.1,0,0,1,.87-1.11,1.19,1.19,0,0,1,1.2.48,1.24,1.24,0,0,1-.14,1.42,3.94,3.94,0,0,1-.45.36c-.11.61.35.92.73,1.22a3.88,3.88,0,0,0,.94.66c.23.08.25.26.24.47,0,0,.1,0,.14,0,2.75-.45,5.51-.84,8.24-1.38A4.09,4.09,0,0,0,101.64,103.85Zm-9.76,3a.3.3,0,0,1-.25.24.32.32,0,0,1-.37-.18,3.52,3.52,0,0,0-.52-.86c-.19.44-.07.84-.28,1.17-.2.11-.43.16-.57-.08-.31-.57-.6-1.16-.9-1.76.33-.25.52-.18.67.13a1.53,1.53,0,0,0,.48.72c.07-.35.14-.67.21-1a.27.27,0,0,1,.23-.25c.17,0,.27,0,.36.19s.17.61.48.88a2.86,2.86,0,0,0,.17-.83c.07-.29.08-.61.57-.48A17.81,17.81,0,0,1,91.88,106.8Zm4.31-1.37c0,.62-.43,1-1.12,1.06a1.08,1.08,0,0,1-1.24-.78,17,17,0,0,1-.38-2c.37-.22.58-.14.65.25s.19,1,.28,1.44a.58.58,0,0,0,.73.52c.37,0,.55-.29.49-.75s-.16-1-.24-1.45.06-.56.59-.54A14.71,14.71,0,0,1,96.19,105.43Zm2.71-.13a1,1,0,0,1-1,.73,1.72,1.72,0,0,1-.23,0c-.43.24.3,1-.55,1-.17-1-.34-2-.5-2.92.25-.25.55-.1.79-.25a.88.88,0,0,1,1.19.2A1.13,1.13,0,0,1,98.9,105.3Z"/><path class="cls-13" d="M76.44,51.6c-.25-1.65-.61-3.29-.82-5s-.75-2-2.21-1.86c-.82.05-1.63.22-2.45.34-1.08.16-2.14.41-3.23.55a14.57,14.57,0,0,0-2.36.41,1.52,1.52,0,0,0-1.2,1.52,24.09,24.09,0,0,0,.49,3.68c.2,1.53.54,3.05.68,4.6a1.64,1.64,0,0,0,1.87,1.68c1.08-.12,2.14-.38,3.23-.52,1.63-.22,3.25-.56,4.88-.8,1.07-.16,1.49-.6,1.49-2C76.78,53.56,76.58,52.58,76.44,51.6Zm-3.32,2.91a2.25,2.25,0,0,1-.35.09c-1.12.09-2.2.4-3.31.58a5.24,5.24,0,0,1-.56,0c-1.31,0-1.63-.27-1.8-1.41s-.43-2.58-.65-3.88a2.86,2.86,0,0,1-.07-.28c-.16-1.19.1-1.63,1.3-1.84a40,40,0,0,1,4.61-.68c.93-.06,1.24.28,1.43,1.2.3,1.42.5,2.87.72,4.31C74.63,53.88,74.37,54.25,73.12,54.51Z"/><path class="cls-15" d="M76.26,95.49c-.21-.67-.5-1.31-.74-2-.1-.28-.16-.56-.23-.84a.34.34,0,0,1-.11-.28,5.94,5.94,0,0,1-.88-2.34c-.09,0-.21-.06-.25-.13a2.21,2.21,0,0,0-2.64-1c.17.66.59,1.23.72,1.94l-.68.28c-1.94.81-3.89,1.58-5.81,2.43a3.61,3.61,0,0,0-2.15,4.5c.31,0,.45.21.61.45a3.52,3.52,0,0,0,4.49,1.53c2.12-.81,4.22-1.68,6.32-2.53a.85.85,0,0,1,.83-.06A1.71,1.71,0,0,0,76.26,95.49ZM67.2,99.06A2.15,2.15,0,0,1,65,96.81a2.11,2.11,0,0,1,2.21-2.22,2.24,2.24,0,0,1,0,4.47Z"/><path class="cls-12" d="M75.18,92.4a5.94,5.94,0,0,1-.88-2.34.33.33,0,0,1,.23-.15c2.15-.23,4.27-.62,6.38-1A1.68,1.68,0,0,1,83,90.4c.11.94.37,1.85.49,2.79.19,1.41.45,2.82.69,4.23,0,.14,0,.28.07.43.26,1.44,0,2.39-1.81,2.63s-3.59.51-5.37.86a7.36,7.36,0,0,1-.81.06,10.56,10.56,0,0,1-.73-1.86c-.12-.29-.23-.58-.34-.87.13-.11.25-.26.45-.25a.65.65,0,0,1,.28.08,3.18,3.18,0,0,0,3.24.36,4.63,4.63,0,0,0,2.54-3.65c0-.38-.39-.63-.32-1a2,2,0,0,0-1.17-2.1,2.38,2.38,0,0,0-2.72-.28c-.24-.44-.6-.27-.94-.14A6.29,6.29,0,0,0,75.18,92.4Z"/><path class="cls-8" d="M86.48,107.24a.34.34,0,0,0,.35-.22c.27.7.85.67,1.44.65-.11.61.35.92.73,1.22a3.88,3.88,0,0,0,.94.66c.23.08.25.26.24.47a6.2,6.2,0,0,1-1.76.31c-.13-.2-.22-.16-.3,0a5.59,5.59,0,0,1-1.47.25c-.15-.51-.37-.9-1-1a2.4,2.4,0,0,1-1-.42,1.18,1.18,0,0,1-.68-1,1.42,1.42,0,0,0,.32-.65,1.12,1.12,0,0,0-.44-1.17,1.17,1.17,0,0,0-1.25,0c-.26.12-.35.39-.51.6h-.36c-.38-.31-.8.09-1.21-.06a.74.74,0,0,1-.14-.62c.39-.28.88-.13,1.22-.34.06-.26,0-.46-.21-.42a9.75,9.75,0,0,0-1.66.29c-.14.26,0,.47,0,.69h-.21a.76.76,0,0,0-.74.66c0,.39.37.52.69.63a1.38,1.38,0,0,0,.5,0,1,1,0,0,1,.11.59.63.63,0,0,0-.58.45c.37.31.37.31.72,0l.55-.08a.79.79,0,0,0,.26.57,7.5,7.5,0,0,0,1.3.93c.37.2.72.43.68.94a5.15,5.15,0,0,1-1.91.28c-.15-.2-.3-.2-.44,0a3.71,3.71,0,0,1-3.4-2.29.21.21,0,0,0-.12-.21,3.39,3.39,0,0,1-.21-2.5,3.44,3.44,0,0,0,1.88-.49c.59-.22.62-.39.23-1-.36-.14-1,.2-1-.51a2.66,2.66,0,0,1,1.63-1c.21.22.26.07.29-.12a7.36,7.36,0,0,1,1.91-.33,3.88,3.88,0,0,0,1.6,1,1.84,1.84,0,0,1,1.08.75,14.32,14.32,0,0,0,.49,3.19c.35,0,.46-.12.4-.43-.17-.9-.29-1.82-.43-2.72l.51-.06a14.51,14.51,0,0,1,.35,2.54c0,.47.08.5.68.4Z"/><path class="cls-16" d="M68.55,85.14c-.69.29-.69.29-1.17-.26a1.15,1.15,0,0,0-1.66-.7l-.34.14-6.87,2.76c-5.39,2.17-10.78,4.35-16.18,6.5a12,12,0,0,1-2.61,1c-.38-.67-.3-.92.42-1.22l6.92-2.8,7.6-3.07c2.51-1,5-2,7.55-3,1.15-.46,2.29-1,3.43-1.44a6.27,6.27,0,0,1,1.62.15A2.71,2.71,0,0,1,68.55,85.14Z"/><path class="cls-17" d="M85.81,95.17a1.3,1.3,0,0,1,1.11-.71c2.61-.44,5.21-.88,7.82-1.3,1.94-.32,3.88-.61,5.83-.92a6.24,6.24,0,0,1,1.15-.15.63.63,0,0,1,.62.6c.06.36-.21.53-.52.58L97.44,94c-1.72.28-3.44.62-5.17.83-1.42.18-2.82.52-4.24.65a11,11,0,0,0-1.15.18C86.19,95.81,86.2,95.82,85.81,95.17Z"/><path class="cls-17" d="M79.15,51.54c-.42,0-.68-.18-.71-.55a.54.54,0,0,1,.52-.65c.79-.12,1.58-.28,2.37-.42l4.94-.83,4-.64,3.37-.55a1.88,1.88,0,0,1,.58,0,.61.61,0,0,1,.5.63.47.47,0,0,1-.44.5c-.86.17-1.71.36-2.58.45-1,.11-2,.37-3.08.51s-2.3.35-3.45.54c-1.62.26-3.25.53-4.87.81A5.17,5.17,0,0,0,79.15,51.54Z"/><path class="cls-17" d="M90.18,92.68h-.29a.51.51,0,0,0-.74,0h-.29c-.2,0-.44-.08-.59.15H88c-.2,0-.44-.09-.59.14H87.1c-.21,0-.44-.09-.59.14-.3,0-.63.13-.89-.15v-.59l.15-.14a3.88,3.88,0,0,0,1.07-.14c.2,0,.39,0,.41-.3h.29c.25.2.48.27.59-.14h.29c.25.2.48.27.59-.14h.44c.15.19.29.19.44,0h.29c.23,0,.54.12.59-.28h.29c.3.19.58.31.74-.14h.29c.15.19.3.19.44,0h.29c.23,0,.55.11.6-.29h.29c.26.2.48.27.59-.14h.29c.56.3,1.07,0,1.58-.16,0,0,0-.08,0-.13h.29a.31.31,0,0,0,.31.14l1.91-.34c.11,0,.12-.14.14-.24h.29c.5.32,1,0,1.45-.09.9-.13,1-.08,1.05.82h0c-.2,0-.3.09-.3.29h-.44c-.24-.24-.38-.17-.45.14h-.58c-.24-.25-.38-.17-.45.14H99c-.26-.19-.49-.27-.59.15h-.29c-.24-.24-.38-.17-.45.14h-.58c-.15-.19-.3-.19-.44,0h-.44c-.21,0-.43,0-.45.28h-.44c-.24-.24-.38-.16-.44.15h-.44c-.15-.19-.29-.19-.44,0h-.43c-.22,0-.44,0-.46.28h-.43a.35.35,0,0,0-.59,0h-.44c-.16,0-.34,0-.44.15h-.44C90.54,92.42,90.23,92.28,90.18,92.68Z"/><path class="cls-17" d="M82.1,48.45h-.59c-.16,0-.34-.05-.44.14h-.29c-.23,0-.55-.12-.6.28h-.29a.48.48,0,0,0-.6-.1,3.52,3.52,0,0,1-1.16.11h0c.05-.71.07-.72.74-.91a2,2,0,0,1,.69-.12.29.29,0,0,0,.34-.29h.29a3.88,3.88,0,0,0,2.2-.3h.44c.21,0,.43,0,.45-.28l.58.13c.21,0,.43,0,.45-.28h.29a.35.35,0,0,0,.58,0h.44c.44.05.84-.19,1.28-.17.14,0,.18-.14.2-.26h.29c.26.19.48.27.59-.15h.29a.35.35,0,0,0,.59,0h.29c.44,0,.84-.19,1.28-.17.14,0,.18-.14.2-.26h.29c.15.19.29.19.44,0h.43c.24,0,.55.12.6-.28h.44c.21.26.5.11.75.15a.39.39,0,0,1,.39.28c.06.19-.06.32-.18.44a.69.69,0,0,1-.55.16c-.21,0-.4,0-.42.29h-.29c-.26-.2-.48-.27-.59.14h-.29c-.24-.24-.38-.16-.45.15h-.43c-.26-.2-.49-.27-.59.15h-.29a2.07,2.07,0,0,0-1.47.15h-.29c-.17,0-.34,0-.45.15h-.43c-.21,0-.44-.08-.6.15h-.29c-.23,0-.54-.12-.59.28h-.44c-.26-.19-.48-.27-.59.15h-.29c-.53-.31-1,0-1.47.15h-.29C82.48,48.33,82.25,48.22,82.1,48.45Z"/><path class="cls-17" d="M95.18,88c.32,0,.65-.1.83.24a.64.64,0,0,1-.52.93c-1,.16-2,.3-2.95.45l-6.11,1c-.24,0-.49,0-.73,0s-.74-.08-.77-.49.29-.6.65-.67q.83-.18,1.65-.3c2.45-.34,4.9-.69,7.33-1.15A4.7,4.7,0,0,1,95.18,88Z"/><path class="cls-17" d="M88.52,44.52c-.14.39-.52.46-.83.51-1.44.24-2.88.41-4.32.63s-2.63.43-3.94.67c-.38.07-.77.09-1.15.19a.57.57,0,0,1-.7-.39c-.13-.33.06-.56.33-.73a1.32,1.32,0,0,1,.55-.18c1.74-.18,3.44-.56,5.17-.82,1.29-.2,2.58-.4,3.87-.64C88.08,43.65,88.25,43.81,88.52,44.52Z"/><path class="cls-14" d="M84,108.2a1.18,1.18,0,0,0,.68,1,2.4,2.4,0,0,0,1,.42c.63.07.85.46,1,1a28.35,28.35,0,0,1-3.67.6c0-.51-.31-.74-.68-.94a7.5,7.5,0,0,1-1.3-.93.79.79,0,0,1-.26-.57c.06-.41-.23-.79-.08-1.2a1.33,1.33,0,0,1,.69-.21c.24,0,.41-.14.39-.42h.36C82.09,108.27,82.77,108.72,84,108.2Z"/><path class="cls-17" d="M93.39,95.92h.06c.37,0,.7,0,.82.45s-.31.65-.77.73l-6.23,1a2.16,2.16,0,0,1-.44,0,.56.56,0,0,1-.6-.52c0-.38.19-.58.56-.65,1.45-.24,2.9-.51,4.36-.72A12,12,0,0,1,93.39,95.92Z"/><path class="cls-17" d="M79.6,52.57h.29c.15.19.3.19.44,0h.44c.26-.06.64.19.74-.28h.29c.48.29.9,0,1.33-.15h.29c.2,0,.44.08.59-.15h.29c.2,0,.44.09.59-.14l.59-.14c.24.24.38.16.44-.15h.29c0,.29.34.42.27.75a.64.64,0,0,1-.59.42c-.18,0-.25.13-.27.29h-.29c-.15-.19-.3-.19-.44,0h-.44c-.16,0-.34,0-.44.14h-.59c-.16,0-.34,0-.44.14H82.4c-.13,0-.24,0-.3.15h-.59c-.16,0-.34,0-.44.15h-.44c-.23,0-.54-.12-.6.28h-.28c-.21-.25-.49-.1-.74-.14a.29.29,0,0,1-.15-.29v-.59h0C79.12,52.79,79.51,53,79.6,52.57Z"/><path class="cls-14" d="M78,104.56c.08.71.68.37,1,.51.39.56.36.73-.23,1a3.44,3.44,0,0,1-1.88.49A3.1,3.1,0,0,1,78,104.56Z"/><path class="cls-12" d="M92.82,46.83c0-.27.21-.3.42-.29a.69.69,0,0,0,.55-.16c.12-.12.24-.25.18-.44a.39.39,0,0,0-.39-.28c-.25,0-.54.11-.75-.15A1.38,1.38,0,0,1,94,45.4c.41.07.52.67.22,1A1.67,1.67,0,0,1,92.82,46.83Z"/><path class="cls-12" d="M101.65,90.63c0-.9-.15-.95-1.05-.82-.47.06-.95.41-1.45.09a6.65,6.65,0,0,1,2.17-.43c.45,0,.62.34.73.69S101.94,90.61,101.65,90.63Z"/><path class="cls-12" d="M79.9,47.57a.29.29,0,0,1-.34.29,2,2,0,0,0-.69.12c-.67.19-.69.2-.74.91-.42-.47-.27-1.06.35-1.14A4.86,4.86,0,0,1,79.9,47.57Z"/><path class="cls-12" d="M85.62,53c0-.16.09-.28.27-.29a.64.64,0,0,0,.59-.42c.07-.33-.3-.46-.27-.75a.6.6,0,0,1,.59.61.72.72,0,0,1-.48.73A1.3,1.3,0,0,1,85.62,53Z"/><path class="cls-12" d="M98.86,89.9c0,.1,0,.22-.14.24l-1.91.34a.31.31,0,0,1-.31-.14A9,9,0,0,1,98.86,89.9Z"/><path class="cls-12" d="M82.39,47.27a3.88,3.88,0,0,1-2.2.3A3.85,3.85,0,0,1,82.39,47.27Z"/><path class="cls-12" d="M78.13,48.89a3.52,3.52,0,0,0,1.16-.11.48.48,0,0,1,.6.1,3.67,3.67,0,0,1-1.31.29A.39.39,0,0,1,78.13,48.89Z"/><path class="cls-12" d="M96.21,90.34s0,.13,0,.13c-.51.17-1,.46-1.58.16A3.91,3.91,0,0,1,96.21,90.34Z"/><path class="cls-12" d="M87.25,91.81c0,.27-.21.27-.41.3a3.88,3.88,0,0,1-1.07.14c0-.17.08-.29.26-.29C86.44,92,86.82,91.73,87.25,91.81Z"/><path class="cls-12" d="M83,48.3c.48-.15.94-.46,1.47-.15A2.13,2.13,0,0,1,83,48.3Z"/><path class="cls-12" d="M88.42,47.42a2.07,2.07,0,0,1,1.47-.15C89.41,47.42,89,47.74,88.42,47.42Z"/><path class="cls-12" d="M90.63,45.81c0,.12-.06.27-.2.26-.44,0-.84.22-1.28.17,0-.27.21-.27.41-.3A3.49,3.49,0,0,1,90.63,45.81Z"/><path class="cls-12" d="M87.1,46.4c0,.12-.06.27-.2.26-.44,0-.84.22-1.28.17,0-.27.21-.27.41-.3A3.53,3.53,0,0,1,87.1,46.4Z"/><path class="cls-12" d="M83.13,52.12c-.43.15-.85.44-1.33.15C82.23,52.12,82.65,51.84,83.13,52.12Z"/><path class="cls-12" d="M81.51,52.28c-.1.47-.48.22-.74.28C80.87,52.08,81.25,52.34,81.51,52.28Z"/><path class="cls-12" d="M91.8,91.08c-.16.45-.44.33-.74.14C91.27,91,91.55,91.11,91.8,91.08Z"/><path class="cls-12" d="M89.15,92.69a.51.51,0,0,1,.74,0A.5.5,0,0,1,89.15,92.69Z"/><path class="cls-12" d="M79,53.74c.25,0,.53-.11.74.14C79.45,54.08,79.17,54.21,79,53.74Z"/><path class="cls-12" d="M79.6,52.57c-.09.47-.48.22-.73.29C79,52.5,79.32,52.57,79.6,52.57Z"/><path class="cls-12" d="M87.39,93c.15-.23.39-.12.59-.14C87.87,93.26,87.65,93.18,87.39,93Z"/><path class="cls-12" d="M86.51,93.13c.15-.23.38-.12.59-.14C87,93.41,86.76,93.33,86.51,93.13Z"/><path class="cls-12" d="M91.94,47c.11-.41.33-.34.59-.14C92.38,47.06,92.15,47,91.94,47Z"/><path class="cls-12" d="M85.18,46.83a.35.35,0,0,1-.58,0A.34.34,0,0,1,85.18,46.83Z"/><path class="cls-12" d="M88,46.25c-.11.42-.33.34-.59.15C87.54,46.16,87.78,46.27,88,46.25Z"/><path class="cls-12" d="M88.86,46.24a.35.35,0,0,1-.59,0A.35.35,0,0,1,88.86,46.24Z"/><path class="cls-12" d="M84,52c-.15.23-.39.13-.59.15C83.52,51.7,83.75,51.77,84,52Z"/><path class="cls-12" d="M90.18,47.27c.1-.42.33-.35.59-.15C90.62,47.35,90.38,47.25,90.18,47.27Z"/><path class="cls-12" d="M84.89,51.83c-.15.23-.39.12-.59.14C84.4,51.55,84.63,51.63,84.89,51.83Z"/><path class="cls-12" d="M80,53.88c.06-.4.37-.26.6-.28C80.58,54,80.27,53.86,80,53.88Z"/><path class="cls-12" d="M80.18,48.88c0-.4.37-.25.6-.28C80.73,49,80.41,48.86,80.18,48.88Z"/><path class="cls-12" d="M82.1,48.45c.15-.23.38-.12.59-.14C82.58,48.73,82.36,48.65,82.1,48.45Z"/><path class="cls-12" d="M84.74,48.15c.11-.42.33-.34.59-.15C85.18,48.24,84.94,48.13,84.74,48.15Z"/><path class="cls-12" d="M94.3,90.64c-.11.41-.33.34-.59.14C93.86,90.55,94.1,90.65,94.3,90.64Z"/><path class="cls-12" d="M93.42,90.78c0,.4-.37.26-.6.29C92.87,90.66,93.19,90.81,93.42,90.78Z"/><path class="cls-12" d="M98.41,91.36c.1-.42.33-.34.59-.15C98.85,91.45,98.61,91.34,98.41,91.36Z"/><path class="cls-12" d="M90.77,91.23c0,.4-.36.25-.59.28C90.23,91.1,90.54,91.25,90.77,91.23Z"/><path class="cls-12" d="M85.77,48c0-.4.36-.26.59-.28C86.31,48.12,86,48,85.77,48Z"/><path class="cls-12" d="M89,91.52c-.11.41-.34.34-.59.14C88.57,91.43,88.81,91.54,89,91.52Z"/><path class="cls-12" d="M88.13,91.67c-.11.41-.34.34-.59.14C87.69,91.58,87.92,91.68,88.13,91.67Z"/><path class="cls-12" d="M86.65,47.72c.16-.23.39-.13.6-.15C87.14,48,86.91,47.92,86.65,47.72Z"/><path class="cls-12" d="M92.39,45.52c0,.4-.36.25-.6.28C91.85,45.39,92.16,45.54,92.39,45.52Z"/><path class="cls-12" d="M92.09,92.25a.35.35,0,0,1,.59,0A.35.35,0,0,1,92.09,92.25Z"/><path class="cls-12" d="M85.62,92.39V93c-.21,0-.29-.12-.28-.33S85.46,92.41,85.62,92.39Z"/><path class="cls-12" d="M90.18,92.68c0-.4.36-.26.59-.28C90.72,92.8,90.41,92.66,90.18,92.68Z"/><path class="cls-12" d="M88.27,92.84c.15-.23.39-.13.59-.15C88.76,93.11,88.53,93,88.27,92.84Z"/><path class="cls-12" d="M78.87,52.86v.59C78.48,53.26,78.48,53.17,78.87,52.86Z"/><path class="cls-12" d="M80.33,52.56c-.14.2-.29.2-.44,0C80,52.37,80.18,52.37,80.33,52.56Z"/><path class="cls-12" d="M84.89,53c.14-.2.29-.2.44,0C85.19,53.2,85,53.2,84.89,53Z"/><path class="cls-14" d="M80.63,111.51c.14-.21.29-.21.44,0A.35.35,0,0,1,80.63,111.51Z"/><path class="cls-12" d="M87.68,47.57c.11-.19.28-.14.45-.15C88.07,47.74,87.93,47.82,87.68,47.57Z"/><path class="cls-12" d="M94.88,92c.06-.31.2-.39.44-.15C95.22,92,95,92,94.88,92Z"/><path class="cls-12" d="M85.92,51.54c-.06.31-.2.39-.44.15C85.58,51.5,85.76,51.54,85.92,51.54Z"/><path class="cls-12" d="M91.2,47.12c.07-.31.21-.39.45-.15C91.55,47.16,91.37,47.12,91.2,47.12Z"/><path class="cls-12" d="M84.31,46.84c0,.31-.24.29-.45.28C83.87,46.81,84.09,46.83,84.31,46.84Z"/><path class="cls-12" d="M91.21,92.4c.1-.19.28-.15.44-.15C91.59,92.57,91.45,92.64,91.21,92.4Z"/><path class="cls-12" d="M89.89,91.51c-.15.2-.29.2-.44,0C89.59,91.32,89.74,91.32,89.89,91.51Z"/><path class="cls-12" d="M94,92c.15-.2.29-.2.44,0C94.3,92.15,94.15,92.15,94,92Z"/><path class="cls-12" d="M95.76,91.8c0-.31.24-.29.45-.28C96.19,91.83,96,91.81,95.76,91.8Z"/><path class="cls-12" d="M97.67,91.5c.07-.31.21-.38.45-.14C98,91.55,97.84,91.51,97.67,91.5Z"/><path class="cls-12" d="M96.65,91.51c.14-.19.29-.19.44,0C96.94,91.71,96.8,91.71,96.65,91.51Z"/><path class="cls-12" d="M91.36,45.8c-.15.2-.29.2-.44,0C91.06,45.61,91.21,45.61,91.36,45.8Z"/><path class="cls-12" d="M99.43,91.21c.07-.31.21-.39.45-.14C99.78,91.26,99.6,91.21,99.43,91.21Z"/><path class="cls-12" d="M92.53,91.07c-.14.2-.29.2-.44,0C92.24,90.88,92.38,90.87,92.53,91.07Z"/><path class="cls-12" d="M100.46,91.06c.07-.31.21-.38.45-.14C100.81,91.11,100.63,91.06,100.46,91.06Z"/><path class="cls-12" d="M81.07,53.6c.1-.19.28-.15.44-.15C81.45,53.76,81.31,53.84,81.07,53.6Z"/><path class="cls-12" d="M81.07,48.6c.1-.19.28-.14.44-.14C81.45,48.77,81.31,48.84,81.07,48.6Z"/><path class="cls-12" d="M83.28,47c0,.3-.24.29-.45.28C82.85,47,83.06,47,83.28,47Z"/><path class="cls-12" d="M83,53.3c.1-.19.28-.14.44-.14C83.36,53.47,83.22,53.55,83,53.3Z"/><path class="cls-12" d="M93.11,92.24c0-.31.24-.29.46-.28C93.55,92.27,93.33,92.25,93.11,92.24Z"/><path class="cls-12" d="M84,53.15c.1-.18.28-.14.44-.14C84.39,53.32,84.25,53.4,84,53.15Z"/><path class="cls-12" d="M101.35,90.92c0-.2.1-.29.3-.29C101.64,90.83,101.54,90.93,101.35,90.92Z"/><path class="cls-12" d="M82.1,53.45c.06-.13.17-.15.3-.15C82.36,53.49,82.33,53.68,82.1,53.45Z"/><path class="cls-14" d="M88.12,110.37c.08-.2.17-.24.3,0A.23.23,0,0,1,88.12,110.37Z"/><path class="cls-14" d="M79.89,103.45c0,.19-.08.34-.29.12A.25.25,0,0,1,79.89,103.45Z"/><path class="cls-14" d="M77.11,109a.21.21,0,0,1,.12.21A.26.26,0,0,1,77.11,109Z"/><path class="cls-4" d="M130.85,66.39a14.91,14.91,0,0,1-2.17-.48,10.07,10.07,0,0,1,.41-2.15,15,15,0,0,1,2.08.46A14.41,14.41,0,0,1,130.85,66.39Z"/><path class="cls-4" d="M127.73,70.32l2.11.47a15.46,15.46,0,0,1-.49,2.21,13.43,13.43,0,0,1-2.1-.52A13.57,13.57,0,0,1,127.73,70.32Z"/><path class="cls-4" d="M116.05,67.85a14.26,14.26,0,0,1-.44,2.16l-2.16-.45a19.15,19.15,0,0,1,.44-2.13A9.27,9.27,0,0,1,116.05,67.85Z"/><path class="cls-4" d="M137.67,67.84l-2.08-.48a11.67,11.67,0,0,1,.42-2.15l2.07.44A13.63,13.63,0,0,1,137.67,67.84Z"/><path class="cls-4" d="M108.35,59.36a16.93,16.93,0,0,1,2.09.39,5.2,5.2,0,0,1-.39,2.1,8.79,8.79,0,0,1-2-.38C108,60.73,108.29,60.09,108.35,59.36Z"/><path class="cls-4" d="M119.31,75.46a14.52,14.52,0,0,1,2.18.41,17.57,17.57,0,0,1-.37,2.08,1.86,1.86,0,0,1-1.06-.1L119,77.63A10.85,10.85,0,0,1,119.31,75.46Z"/><path class="cls-4" d="M106.62,68A10.54,10.54,0,0,1,107,66a9.21,9.21,0,0,1,2.14.39c0,.71-.32,1.35-.39,2a1.57,1.57,0,0,1-1.06-.07A5,5,0,0,1,106.62,68Z"/><path class="cls-4" d="M114.9,62.9a10.38,10.38,0,0,1,.38-2.08,14.92,14.92,0,0,1,2.12.36,10.77,10.77,0,0,1-.4,2.17A10.46,10.46,0,0,1,114.9,62.9Z"/><path class="cls-4" d="M136.26,74.48l-2.1-.49a11,11,0,0,1,.42-2.1,2.12,2.12,0,0,1,1,.13,3.22,3.22,0,0,1,1.07.3A13.88,13.88,0,0,1,136.26,74.48Z"/><path class="cls-4" d="M123,69.31l-.51,2.2-2.14-.45a16,16,0,0,1,.43-2.17A15.68,15.68,0,0,1,123,69.31Z"/><path class="cls-4" d="M114.62,74.4a13.48,13.48,0,0,1-.45,2.15,13.86,13.86,0,0,1-2.08-.4A11.33,11.33,0,0,1,112.5,74,13.6,13.6,0,0,1,114.62,74.4Z"/><path class="cls-4" d="M105.61,72.54a9.26,9.26,0,0,1,2.16.48,14.15,14.15,0,0,1-.45,2,8.62,8.62,0,0,1-2.11-.39A13.18,13.18,0,0,1,105.61,72.54Z"/><path class="cls-4" d="M135.28,78.82a14.74,14.74,0,0,1-.43,2.12,11.66,11.66,0,0,1-2.16-.44c.16-.73.3-1.38.45-2A9.87,9.87,0,0,1,135.28,78.82Z"/><path class="cls-15" d="M39.72,94.54a12,12,0,0,0,2.61-1c5.4-2.15,10.79-4.33,16.18-6.5l6.87-2.76.34-.14a1.15,1.15,0,0,1,1.66.7,6.94,6.94,0,0,0-1.95.62L42.11,94.76a7.71,7.71,0,0,1-1.11.39A1,1,0,0,1,39.72,94.54Z"/><path class="cls-16" d="M66.25,87.13c.6.55.55.87-.17,1.16-2.7,1.07-5.4,2.13-8.1,3.21L47.24,95.78l-5.79,2.3a3.63,3.63,0,0,1-.54.15c-.59-.53-.53-.91.23-1.22l3.47-1.36c3.17-1.27,6.34-2.56,9.51-3.82l11.24-4.41C65.66,87.3,66,87.22,66.25,87.13Z"/><path class="cls-16" d="M42.35,99c.36,0,.5.38.62.7.4,1,.78,2,1.18,3.07,1.05,2.66,2,5.33,3.17,8,.29.67.53,1.36.8,2,0,.09.05.18.08.28a.55.55,0,0,1-.32.72.53.53,0,0,1-.72-.34c-.21-.49-.4-1-.6-1.5q-2-5-4-10.09c-.26-.67-.56-1.34-.8-2C41.65,99.39,41.91,99,42.35,99Z"/><path class="cls-16" d="M75.62,98.42c-.2,0-.32.14-.45.25a14.85,14.85,0,0,0-2.75,1c-1.19.44-2.34,1-3.53,1.43a4.69,4.69,0,0,1-5.63-1.91c-.35-.6-.31-.77.23-1.12.31,0,.45.21.61.45a3.52,3.52,0,0,0,4.49,1.53c2.12-.81,4.22-1.68,6.32-2.53a.85.85,0,0,1,.83-.06,1.17,1.17,0,0,1,.16.73C75.81,98.27,75.64,98.25,75.62,98.42Z"/><path class="cls-17" d="M81.1,64.76a.64.64,0,0,1-.75-.48c-.08-.35.16-.53.42-.69a3,3,0,0,1,1.28-.26c1.11-.15,2.2-.34,3.3-.51.91-.14,1.81-.33,2.72-.46,1.51-.22,3-.51,4.52-.7,1-.11,1.91-.32,2.87-.49a.78.78,0,0,1,.88.53c.08.36-.18.64-.64.71-1.39.23-2.77.49-4.16.7s-3,.41-4.53.63c-1,.15-2,.34-3,.51Z"/><path class="cls-17" d="M81.79,67.11c-.22,0-.32,0-.41,0a.58.58,0,0,1-.59-.54.56.56,0,0,1,.43-.61,2.33,2.33,0,0,1,.63-.16c1.86-.2,3.69-.58,5.54-.85,1.46-.2,2.91-.48,4.38-.67a34.17,34.17,0,0,0,3.73-.63,1,1,0,0,1,1,.12c.45.4.4.75-.16,1a7.61,7.61,0,0,1-1.64.28c-1.62.3-3.26.54-4.88.81-1.1.17-2.21.34-3.3.53-1.46.25-2.94.36-4.38.71A1.39,1.39,0,0,1,81.79,67.11Z"/><path class="cls-18" d="M76.5,63.9a1.49,1.49,0,0,0,.4-.76c.13-.3.33-.52.67-.38s.21.42.1.68q-.3.75-.57,1.5c-.11.3-.26.54-.61.53s-.46-.22-.55-.5a2.37,2.37,0,0,0-.5-.91c-.31,0-.36.19-.43.38a14.61,14.61,0,0,0-.59,2,2.11,2.11,0,0,1-.17.48c-.22.44-.51.48-.85.12a12,12,0,0,1-1.07-1.66c-.14-.22-.22-.5-.57-.54-.52,1.1-.09,2.51-1,3.53-.75-.41-.8-1.27-1.4-1.67-.45.22-.49.88-1,.87a2.45,2.45,0,0,1,.57-2c.31-.21.72-.09,1.08.33.16.2.23.52.65.38.16-.78.34-1.59.49-2.39,0-.3.16-.54.45-.6s.42.19.56.4a22,22,0,0,1,1.24,1.89c.07.14.13.33.41.3a2.27,2.27,0,0,0,.29-.91c.15-.59.3-1.18.48-1.76.08-.28.21-.55.59-.54a.75.75,0,0,1,.68.47C76,63.34,76,63.81,76.5,63.9Z"/><path class="cls-17" d="M80.94,62.13c-.43,0-.86.09-.9-.48s.17-.61.73-.71c.17,0,.33-.1.49-.13,1.11-.16,2.21-.29,3.32-.46,1.31-.2,2.63-.4,3.94-.66a7.72,7.72,0,0,0,1.51-.2.55.55,0,0,1,.7.39c.13.33-.07.56-.34.73a1.45,1.45,0,0,1-.62.19c-1.54.15-3.07.42-4.6.66Z"/><path class="cls-17" d="M88.28,67.27a1.45,1.45,0,0,1,.36,0,.58.58,0,0,1,.5.47.55.55,0,0,1-.32.61,1,1,0,0,1-.55.19,17.81,17.81,0,0,0-1.94.31c-1.4.13-2.77.45-4.16.71a.74.74,0,0,1-.8-.18.65.65,0,0,1,.37-1.08c.52-.11,1.05-.17,1.58-.26L88,67.27a1.5,1.5,0,0,1,.3,0Z"/><path class="cls-18" d="M68.81,70.17c-.13-.45,0-.63.38-.69l2.51-.43,6-1a3.57,3.57,0,0,1,.73,0c.19,0,.34.09.36.3s-.12.35-.34.39l-2.66.44c-1.36.23-2.72.5-4.09.68A18.5,18.5,0,0,1,68.81,70.17Z"/><path class="cls-17" d="M83.88,82.42c-.48-.77-.22-1.27.59-1.35a35.07,35.07,0,0,0,3.52-.5c1-.22,2.1-.35,3.15-.52l3.16-.52,4-.65a2.17,2.17,0,0,1,.36,0c.42,0,.55.33.58.64s-.21.48-.5.53c-1.27.2-2.54.38-3.81.6-1.67.28-3.35.53-5,.82-1.31.23-2.63.39-3.94.66A15.53,15.53,0,0,0,83.88,82.42Z"/><path class="cls-17" d="M84,79.9c-.53,0-.85-.22-.84-.6s.28-.52.79-.58c1.63-.19,3.26-.49,4.88-.78s3.43-.63,5.16-.85c1.25-.15,2.49-.43,3.73-.65a1.66,1.66,0,0,0,.21-.06c.5-.07.87.12.94.48s-.17.59-.74.7c-2.15.39-4.3.78-6.45,1.11-2.49.39-5,.78-7.46,1.22A.81.81,0,0,1,84,79.9Z"/><path class="cls-14" d="M80.88,83.68c.05.27-.21.45-.54.53s-.6-.12-.73-.45a8.17,8.17,0,0,1-.2-1.3c-.33-1.62-.6-3.26-.89-4.89,0-.12,0-.24,0-.36,0-.29,0-.55.36-.62s.72,0,.82.41c.16.69.28,1.39.41,2.08.25,1.37.44,2.74.76,4.1C80.85,83.3,80.85,83.42,80.88,83.68Z"/><path class="cls-17" d="M98.55,74.44c0,.39-.28.52-.55.57-1,.18-2,.33-2.94.48-.74.11-1.5.15-2.22.33s-1.62.29-2.42.5c-.44.12-.7-.06-.8-.51s.1-.53.49-.63c1.1-.31,2.25-.28,3.36-.56.94-.22,1.91-.32,2.85-.52.5-.11,1,0,1.52-.2A.57.57,0,0,1,98.55,74.44Z"/><path class="cls-17" d="M84.81,84.74c-.69,0-.81-.09-.81-.62,0-.36.17-.49.53-.56,1.33-.25,2.68-.41,4-.66a13.81,13.81,0,0,1,2.23-.35c.55,0,.87.18.87.55s-.32.57-.73.64c-1.89.31-3.77.66-5.66,1A3.23,3.23,0,0,1,84.81,84.74Z"/><path class="cls-14" d="M74.41,84.55a.6.6,0,0,1-.53.69.57.57,0,0,1-.72-.45,12.1,12.1,0,0,1-.31-1.57c-.15-.89-.35-1.77-.51-2.65,0-.26-.13-.55.07-.78a.72.72,0,0,1,.65-.25.56.56,0,0,1,.47.5c.19.93.38,1.86.56,2.79C74.21,83.4,74.3,84,74.41,84.55Z"/><path class="cls-14" d="M78.76,84.19c-.78.6-1.13.48-1.3-.42-.22-1.13-.46-2.25-.68-3.37-.12-.6.14-.91.71-.88.39,0,.48.29.55.58.15.64.29,1.29.4,1.93S78.65,83.47,78.76,84.19Z"/><path class="cls-17" d="M88,75.52c.55.72.48,1-.33,1.2a16.07,16.07,0,0,1-2.29.37,6.9,6.9,0,0,0-1.44.26,2.24,2.24,0,0,1-.58.05.6.6,0,0,1-.69-.51c0-.38.19-.56.54-.67.61-.18,1.25-.13,1.87-.27s1-.12,1.52-.21A5.39,5.39,0,0,0,88,75.52Z"/><path class="cls-18" d="M72.25,84.83c0,.65-.14.82-.66.91s-.6-.2-.67-.58-.19-.79-.26-1.2a.63.63,0,0,1,.5-.82c.48-.1.67,0,.82.55A7.31,7.31,0,0,1,72.25,84.83Z"/><path class="cls-14" d="M75.14,83.3a.39.39,0,0,0,0-.3.52.52,0,0,0,0-.42,2.65,2.65,0,0,0,.05-.93l.12-.05a.7.7,0,0,1,.54.59,9.66,9.66,0,0,1,.24,1.41c0,.2,0,.39.26.44,0,.31.09.67-.39.7s-.38-.29-.5-.55S75.5,83.5,75.14,83.3Z"/><path class="cls-17" d="M75.14,83.3c.36.2.17.6.31.89s.1.58.5.55.39-.39.39-.7l.09-.62a1.74,1.74,0,0,1,.14,1.46c-.28.29-.64.15-1,.16s-.37-.17-.41-.42a9.32,9.32,0,0,0-.23-.91A.3.3,0,0,1,75.14,83.3Z"/><path class="cls-18" d="M76.43,83.42l-.09.62c-.24-.05-.26-.24-.26-.44a9.66,9.66,0,0,0-.24-1.41.7.7,0,0,0-.54-.59c0-.19.17-.24.32-.27h.31l.17.17c0,.13,0,.24.14.29l0,.45c0,.16-.08.33.12.44A2,2,0,0,0,76.43,83.42Z"/><path class="cls-18" d="M75.18,81.65a2.65,2.65,0,0,1-.05.93l-.26,0c0-.19,0-.39,0-.58S75,81.66,75.18,81.65Z"/><path class="cls-17" d="M74.87,82.56l.26,0a.52.52,0,0,1,0,.42C74.78,83,74.62,82.86,74.87,82.56Z"/><path class="cls-17" d="M76.39,82.69c-.2-.11-.16-.28-.12-.44C76.56,82.32,76.58,82.47,76.39,82.69Z"/><path class="cls-17" d="M75.93,81.34h-.31c0-.1,0-.2.16-.2S75.92,81.25,75.93,81.34Z"/><path class="cls-17" d="M76.24,81.8c-.14,0-.16-.16-.14-.29C76.27,81.55,76.45,81.58,76.24,81.8Z"/><path class="cls-17" d="M96,103.17a14.84,14.84,0,0,1,.24,2.26c0,.62-.43,1-1.12,1.06a1.09,1.09,0,0,1-1.24-.78,17,17,0,0,1-.38-2c.37-.22.58-.14.65.25s.19,1,.28,1.44a.58.58,0,0,0,.73.52c.37,0,.55-.29.49-.76s-.16-1-.24-1.44S95.42,103.15,96,103.17Z"/><path class="cls-17" d="M90.74,106c-.19.44-.07.84-.28,1.17-.2.11-.43.16-.57-.08-.31-.57-.6-1.16-.9-1.76.33-.25.52-.18.67.13a1.53,1.53,0,0,0,.48.72c.07-.35.14-.67.21-1a.28.28,0,0,1,.23-.25c.17,0,.27,0,.36.19s.17.61.48.88a2.86,2.86,0,0,0,.17-.83c.07-.29.08-.61.57-.48a17.81,17.81,0,0,1-.28,2.09.3.3,0,0,1-.25.24.32.32,0,0,1-.37-.18A3.52,3.52,0,0,0,90.74,106Z"/><path class="cls-17" d="M98.61,104.09a.88.88,0,0,0-1.19-.2c-.24.15-.54,0-.79.25.16,1,.33,1.92.5,2.92.85-.08.12-.79.55-1a1.72,1.72,0,0,0,.23,0,1,1,0,0,0,1-.73A1.13,1.13,0,0,0,98.61,104.09Zm-.25.89c0,.31-.16.58-.53.59s-.53-.32-.52-.85c0-.23.2-.39.51-.4A.58.58,0,0,1,98.36,105Z"/><path class="cls-17" d="M88.86,105.89a1.19,1.19,0,0,0-1.2-.48,1.1,1.1,0,0,0-.87,1.11,4.23,4.23,0,0,0,0,.5c.26.7.84.67,1.43.65a3.94,3.94,0,0,0,.45-.36A1.24,1.24,0,0,0,88.86,105.89Zm-1,1.25c-.33,0-.55-.26-.54-.72a.48.48,0,0,1,.51-.51.63.63,0,0,1,.55.66A.51.51,0,0,1,87.91,107.14Z"/><path class="cls-17" d="M86.48,107.24v.58c-.6.1-.69.07-.68-.4a14.51,14.51,0,0,0-.35-2.54c.12-.2.32-.19.55-.18Z"/><path class="cls-17" d="M84.94,104.94c.14.9.26,1.82.43,2.72.06.31-.05.4-.4.43a14.32,14.32,0,0,1-.49-3.19Z"/><path class="cls-18" d="M74.44,52.64c-.22-1.44-.42-2.89-.72-4.31-.19-.92-.5-1.26-1.43-1.2a40,40,0,0,0-4.61.68c-1.2.21-1.46.65-1.3,1.84a2.86,2.86,0,0,0,.07.28c.22,1.3.46,2.59.65,3.88s.49,1.43,1.8,1.41a5.24,5.24,0,0,0,.56,0c1.11-.18,2.19-.49,3.31-.58a2.25,2.25,0,0,0,.35-.09C74.37,54.25,74.63,53.88,74.44,52.64Zm-.86,1.44a7.06,7.06,0,0,1-1.51.22c-1.11.15-2.2.43-3.3.6l-.24,0a.85.85,0,0,1-.94-.8c-.23-1.14-.43-2.29-.64-3.44-.09-.43-.17-.86-.25-1.28-.12-.63.09-1,.72-1.13,1.6-.3,3.21-.58,4.82-.83a.88.88,0,0,1,1.06.83c.13.9.43,1.75.52,2.65s.23,1.64.3,2.46C74.15,53.73,73.93,54,73.58,54.08Z"/><path class="cls-14" d="M75.9,98.2a1.17,1.17,0,0,0-.16-.73,1.71,1.71,0,0,0,.52-2c-.21-.67-.5-1.31-.75-2-.09-.27-.15-.56-.22-.84.56-.2,1-.74,1.64-.67a1.13,1.13,0,0,1,.34.73c.09.61.19,1.21.29,1.81.15.81.41,1,1.2.82a4.43,4.43,0,0,1,.87-.16c.52,0,1-.36,1.57-.09,0,.11,0,.2,0,.3.18,1-1.22,2.79-2.39,3.15A3.62,3.62,0,0,1,75.9,98.2Z"/><path class="cls-17" d="M81.68,95.21c0-.38-.39-.63-.32-1a2,2,0,0,0-1.17-2.1,2.38,2.38,0,0,0-2.72-.28c-.24-.44-.6-.27-.94-.14a6.29,6.29,0,0,0-1.35.73.34.34,0,0,0,.11.28c.56-.2,1-.74,1.64-.67a1.13,1.13,0,0,1,.34.74c.09.6.19,1.2.29,1.8.15.81.41,1,1.2.82a4.47,4.47,0,0,1,.86-.16c.53,0,1-.36,1.58-.09,0,.11,0,.2,0,.3.18,1-1.22,2.79-2.39,3.15a3.66,3.66,0,0,1-3-.36c-.09.06-.26,0-.28.21a.61.61,0,0,1,.28.08,3.18,3.18,0,0,0,3.24.36A4.65,4.65,0,0,0,81.68,95.21Zm-1.3-1a2.87,2.87,0,0,1-1,.15c-.88,0-.94-.06-1.1-.87a7.24,7.24,0,0,0-.22-.92c-.1-.34,0-.51.36-.57a2.84,2.84,0,0,1,2.48,1.26A.62.62,0,0,1,80.38,94.16Z"/><path class="cls-16" d="M67.21,94.59A2.11,2.11,0,0,0,65,96.81a2.15,2.15,0,0,0,2.2,2.25,2.24,2.24,0,0,0,0-4.47Zm0,3.41A1.2,1.2,0,0,1,66,96.81a1.18,1.18,0,0,1,1.2-1.21,1.2,1.2,0,1,1,0,2.4Z"/><path class="cls-17" d="M81.74,107c0,.28-.15.38-.39.42a1.33,1.33,0,0,0-.69.21c-.15.41.14.79.08,1.2l-.55.08-.14-.45a1,1,0,0,0-.11-.59,3.77,3.77,0,0,0-.24-1.33c0-.22-.1-.43,0-.69a9.75,9.75,0,0,1,1.66-.29c.2,0,.27.16.21.42-.34.21-.83.06-1.22.34a.74.74,0,0,0,.14.62C80.94,107,81.36,106.64,81.74,107Z"/><path class="cls-17" d="M83.86,106.38a1.17,1.17,0,0,0-1.25,0c-.26.12-.35.39-.51.6,0,1.33.67,1.78,1.88,1.26a1.42,1.42,0,0,0,.32-.65A1.12,1.12,0,0,0,83.86,106.38Zm-.16,1.28a.45.45,0,0,1-.11.17l0,0s0,0,0,0l0,0h0l-.06,0h-.06c-.33,0-.67-.31-.68-.69a.55.55,0,0,1,.57-.61.41.41,0,0,1,.16,0l.07,0,.06,0,0,0,0,0a.33.33,0,0,1,.09.11s0,0,0,0l0,0a1,1,0,0,1,0,.18.66.66,0,0,1,0,.14,1.69,1.69,0,0,1,0,.23A.83.83,0,0,1,83.7,107.66Z"/><path class="cls-14" d="M79.7,106.49a3.77,3.77,0,0,1,.24,1.33,1.38,1.38,0,0,1-.5,0c-.32-.11-.72-.24-.69-.63a.76.76,0,0,1,.74-.66Z"/><path class="cls-14" d="M80.05,108.41l.14.45c-.35.31-.35.31-.72,0A.63.63,0,0,1,80.05,108.41Z"/><path class="cls-14" d="M97.31,104.72c0-.23.2-.39.51-.4a.58.58,0,0,1,.54.66c0,.31-.16.58-.53.59S97.3,105.25,97.31,104.72Z"/><path class="cls-14" d="M87.37,106.42a.48.48,0,0,1,.51-.51.63.63,0,0,1,.55.66.49.49,0,0,1-.52.56C87.58,107.15,87.36,106.88,87.37,106.42Z"/><path class="cls-14" d="M74.12,53.39c-.07-.82-.23-1.64-.3-2.46s-.39-1.75-.52-2.65a.88.88,0,0,0-1.06-.83c-1.61.25-3.22.53-4.82.83-.63.12-.84.5-.72,1.13.08.42.16.85.25,1.28.21,1.15.41,2.3.64,3.44a.85.85,0,0,0,.94.8l.24,0c1.1-.17,2.19-.45,3.3-.6a7.06,7.06,0,0,0,1.51-.22C73.93,54,74.15,53.73,74.12,53.39Zm-.89-1.84a.4.4,0,0,1-.26.23l-.43.1c-.92.22-.92.22-.77,1.17.1.65-.15,1-.87,1.1s-1,0-1.14-.66c0,0,0-.05,0-.07-.16-.28,0-.66-.26-.9s-.6,0-.9,0c-.61,0-.75-.1-.94-.7a2.57,2.57,0,0,1-.08-.87.42.42,0,0,1,.4-.44l1.19-.23c0-.54-.17-1-.13-1.45,0-.3.12-.51.46-.55a1.28,1.28,0,0,0,.28-.07c.81-.19,1.11,0,1.32.81s.24.88,1.17.88A1.09,1.09,0,0,1,73.23,51.55Z"/><path class="cls-18" d="M79.36,94.31c-.87,0-.94-.06-1.1-.87a7.24,7.24,0,0,0-.22-.92c-.1-.34,0-.51.36-.57a2.84,2.84,0,0,1,2.48,1.26.62.62,0,0,1-.5,1A2.87,2.87,0,0,1,79.36,94.31Z"/><path class="cls-13" d="M67.22,98A1.21,1.21,0,0,1,66,96.81a1.18,1.18,0,0,1,1.2-1.21,1.21,1.21,0,0,1,1.24,1.18A1.2,1.2,0,0,1,67.22,98Z"/><path class="cls-14" d="M83.75,107.28c0,.31,0,.6-.42.66s-.67-.31-.68-.69a.55.55,0,0,1,.57-.61C83.54,106.65,83.74,106.89,83.75,107.28Z"/><path class="cls-18" d="M72.25,49.93c-.93,0-.93,0-1.17-.88s-.51-1-1.32-.81a1.28,1.28,0,0,1-.28.07c-.34,0-.43.25-.46.55,0,.47.16.91.13,1.45L68,50.54a.42.42,0,0,0-.4.44,2.57,2.57,0,0,0,.08.87c.19.6.33.69.94.7.3,0,.61-.31.9,0s.1.62.26.9c0,0,0,0,0,.07.16.63.45.79,1.14.66s1-.45.87-1.1c-.15-.95-.15-.95.77-1.17l.43-.1a.4.4,0,0,0,.26-.23A1.09,1.09,0,0,0,72.25,49.93Zm.33,1.59-.36,0c-1,.21-1,.26-.87,1.25,0,.26.1.56-.1.78a.78.78,0,0,1-.72.27.57.57,0,0,1-.47-.5c0-.12,0-.24-.08-.36-.22-.92-.36-1-1.27-.86-.59.1-.72,0-.83-.56s.09-.67.63-.78l.5-.11a.52.52,0,0,0,.46-.63,3,3,0,0,0-.1-.79c-.15-.43.09-.65.47-.76s.69-.08.84.34a4.25,4.25,0,0,1,.23.77.62.62,0,0,0,.8.61,4.51,4.51,0,0,1,.52,0A.69.69,0,0,1,73,51C73,51.28,72.89,51.48,72.58,51.52Z"/><path class="cls-17" d="M73,51c0,.28-.08.48-.39.52l-.36,0c-1,.21-1,.26-.87,1.25,0,.26.1.56-.1.78a.78.78,0,0,1-.72.27.57.57,0,0,1-.47-.5c0-.12,0-.24-.08-.36-.22-.92-.36-1-1.27-.86-.59.1-.72,0-.83-.56s.08-.67.63-.78c.17,0,.33-.09.5-.11a.52.52,0,0,0,.46-.63,2.64,2.64,0,0,0-.1-.79c-.15-.43.09-.65.47-.76s.69-.08.84.34a4.25,4.25,0,0,1,.23.77.62.62,0,0,0,.8.61,4.51,4.51,0,0,1,.52,0A.69.69,0,0,1,73,51Z"/><polyline class="cls-19" points="69.03 31.83 72.7 31.21 74.88 30.85 81.03 29.82 86.16 28.96"/><path class="cls-18" d="M100.79,34.71,100.42,33h0v0s0,0,0,.06c.08.36.3,1.36.35,1.66C100.78,34.69,100.79,34.7,100.79,34.71Z"/></svg>