<svg id="Layer_1" data-name="Layer 1" xmlns="http://www.w3.org/2000/svg" viewBox="0 0 700 500"><defs><style>.cls-1,.cls-17{fill:#fff;}.cls-1{opacity:0.1;}.cls-2{fill:#944534;}.cls-3{fill:#f1404c;}.cls-4{fill:#c31e21;}.cls-5{fill:#f1f1f1;}.cls-6{fill:#e5e5e5;}.cls-23,.cls-7{fill:#4b3333;}.cls-8{fill:#6d4e4e;}.cls-9{fill:#8e6b68;}.cls-10,.cls-11{fill:#694043;}.cls-11,.cls-20,.cls-23,.cls-28{opacity:0.5;}.cls-12{fill:#333;}.cls-13{fill:#d5ebf4;}.cls-14{fill:#1a1a1a;}.cls-15{fill:#b4dbe5;}.cls-16{fill:#666;}.cls-18{fill:#ed9262;}.cls-19,.cls-20{fill:#373248;}.cls-20,.cls-23,.cls-28{isolation:isolate;}.cls-21,.cls-28{fill:#e28152;}.cls-22{fill:#fd5d5d;}.cls-24{opacity:0.16;}.cls-25{fill:#9f9fe6;}.cls-26{fill:#713535;}.cls-27{fill:#3d54a5;}.cls-29{fill:#d99b2b;}.cls-30{fill:#5ab7af;}.cls-31{fill:#298c80;}.cls-32{fill:#aec0d3;}.cls-33{fill:#91a9bc;}.cls-34{fill:#823500;}.cls-35{fill:#2e2e2e;}.cls-36{fill:#d26a75;}</style></defs><title>access-healthcare 2</title><path class="cls-1" d="M111.64,433.05S48.38,346.9,63.78,295.71s107-59.09,114.45-83.65-57-87.39-11.65-146.07,172.71-10,203.5,4.58,50.78,11.23,58.68,2.49S556.53,66,556.53,66l-25.39,386.2Z"/><path class="cls-1" d="M92.28,418c-1-2.92-2.73-5.28-4.36-7.86q-2.61-4.14-5-8.41-4.45-7.89-8.32-16.08C69.27,374.5,64.47,363,60.23,351.42c-4-10.84-6.95-22-6.85-33.62a77.85,77.85,0,0,1,6.39-30.08A89.21,89.21,0,0,1,79.59,259c1.48-1.42-.53-4.21-2.25-2.92-17.67,13.26-28,34.1-29.94,55.94-1,11.85.9,23.58,4.47,34.87A338.77,338.77,0,0,0,66.2,383.16c2.94,6.54,6.08,13,9.52,19.29q2.63,4.8,5.48,9.46c1.88,3,3.67,6.51,6.51,8.77C89.65,422.24,93.21,420.88,92.28,418ZM395.46,64.48C382.19,62.1,370.14,57,358,51.3c-6-2.82-12-5.6-18.26-8a99.68,99.68,0,0,0-19.45-5c-1.45-.24-2.1,1.86-.62,2.26,6.38,1.7,12.56,4.53,18.53,7.3,6.13,2.84,12.13,5.94,18.17,9,11.77,5.87,24.19,12.07,37.36,13.93a3.34,3.34,0,0,0,4-2.27A3.26,3.26,0,0,0,395.46,64.48Zm8.88,2.44c-3.52,0-3.52,5.47,0,5.47S407.87,66.92,404.34,66.92Z"/><path class="cls-2" d="M118.1,462.89s-46.83-1.12-31.85,13,75,7.57,75,7.57l-23-14.23Zm317,10,1.95,7.58s128.81,11.35,130.78,10.67,3-8.1,3-8.1S435.27,472.41,435.14,472.91Z"/><path class="cls-3" d="M428.35,428.89c0,1.25-251.79-11.65-267.18-2.91s-58.68,50.35-54.11,52.85,328.36,16.23,331.69,12.07S428.35,428.89,428.35,428.89Z"/><path class="cls-4" d="M437.92,490.48l-130.41-3.91c-42.86-1.28-85.74-2.21-128.57-4-11.89-.5-23.76-1.15-35.62-2.05s-23.89-2.44-35.85-3.55a.86.86,0,0,0-.23,1.69c10.27,1.92,20.78,2.86,31.18,3.78,10.62.95,21.26,1.63,31.91,2.17,21.38,1.08,42.78,1.61,64.17,2.25l129.42,3.89c24.34.73,49.86,1,73.58,1C439.1,491.73,439.52,490.53,437.92,490.48Zm.39-12.56c-.3-2.09-.67-4.34-1.07-6.69-7.65-.55-16.11-1.14-17.22-1.14-2.08,0-10.82,2.5-7.49,4.58s25.52,3.38,25.52,3.38Z"/><path class="cls-4" d="M240.54,424.46s-83.93,5.92-84.92,7.9,31.94,22.26,46.95,22.75c6.51.21,130.19-16.79,129.7-23.23S240.54,424.46,240.54,424.46Z"/><path class="cls-5" d="M200.4,445.2a1.36,1.36,0,0,0-1-.63,9,9,0,0,0,.65-1.32,1.43,1.43,0,0,0,.11-.93,1.45,1.45,0,0,0-.77-.73,17.25,17.25,0,0,0-3.25-1.38,27.08,27.08,0,0,0-.07-3.12,1.69,1.69,0,0,0-.31-1,1.73,1.73,0,0,0-1.43-.32c-1.2.11-2.4.24-3.59.39a7.58,7.58,0,0,0-3,.84.79.79,0,0,0-.43.5,1,1,0,0,0,0,.38c.2.68.39,1.36.59,2a7.2,7.2,0,0,0-3.8.67,2.13,2.13,0,0,0-1.39,2.21,4.62,4.62,0,0,0,.19,1.61,6,6,0,0,0,1.31,1.93,8.12,8.12,0,0,0,1.59,1.45,3.35,3.35,0,0,0,1.45.53h-.43a9.61,9.61,0,0,0,3.21.19,4.61,4.61,0,0,0,1.61-.26,6.25,6.25,0,0,0,1-.61,14.38,14.38,0,0,1,1.29-.79,1.4,1.4,0,0,1,1-.24,1.53,1.53,0,0,1,.57.32,15.33,15.33,0,0,0,2.6,1.59,10.3,10.3,0,0,0,1.94-2.07A1.34,1.34,0,0,0,200.4,445.2Z"/><path class="cls-6" d="M196.34,445.54a3.56,3.56,0,0,0-3.15-.9c-.73.14-1.32.57-2,.77a4.4,4.4,0,0,1-1.69.22c-.89-.12-1.46-.09-.88-1.21,1-1.94,3.86-1.92,5.59-3,.91-.56.62-1.13.28-2.07-.27-.74-1.43-.45-1.19.33.32,1.08-1.45,1.21-2.27,1.53a18.42,18.42,0,0,0-2.35,1.07,3,3,0,0,0-1.74,3.34c.33,1.49,1.58,1.44,2.86,1.36a8.07,8.07,0,0,0,2.08-.26c.7-.24,1.18-.73,2-.75a3.56,3.56,0,0,1,1.73.57C196.18,446.9,196.89,446.06,196.34,445.54Z"/><path class="cls-7" d="M160.29,408.15c0,1.18-2.35,24.13-1.18,25.3s4.71.59,5.3,0,9.41-24.12,9.41-24.12Zm75.9,3.53s.59,16.48,2.35,17.07,7.06,0,7.06-.59,3-19.42,3-19.42Z"/><path class="cls-8" d="M308,401.09s6.47,28.83,7.65,30,6.47,0,7.06-.59,0-34.12,0-34.12Zm-113.55,15.3s.58,33.54,2.94,34.71,6.47.59,7.06-1.17,5.29-34.72,5.29-34.72Z"/><path class="cls-9" d="M267.08,409.62s-53.54,10-67.66,9.42-40-7.06-44.13-12.36S98.22,257.24,103.51,241.94s17.07-18.24,21.19-15.88,3.53,8.82,3.53,8.82,48.24,5.88,77.66,1.18,38.24-12.36,45.3-11.77,11.77,8.24,9.42,18.83-11.18,51.19-6.48,69.42,17.07,12.95,25.89,10,46.48-11.77,53.54-1.77,0,68.84-4.11,74.72S267.08,409.62,267.08,409.62Z"/><path class="cls-10" d="M199.05,330.15c-4.83-4.47-10.59-5.74-17-5-7.57.89-15.14,2-22.79,1.48-4.14-.29-7.3-1.68-9.62-5.22a62.37,62.37,0,0,1-5.18-10.69,188,188,0,0,1-6.85-20.84c-2.23-8.26-4.9-18.59-6.12-27.07-1.31-9.14-1.76-16.48-2.35-25.89-.08-1.24-1-.91-1.07.35-.66,7.74.14,15.71,1,23.41a215.77,215.77,0,0,0,3.61,21.87,210,210,0,0,0,6.11,22.06c2.19,6.47,4.56,13.59,8.5,19.24,3.77,5.4,9.42,6.17,15.6,6.2q5.37,0,10.73-.49c4.1-.39,8.23-1.38,12.36-1.34,17,.13,19.39,21.67,19.71,34.4.45,17.56-1.28,35.6-.08,53.16.15,2.1,1.82,1.61,1.74-.53-.6-15.55,1.54-31,1.78-46.49C209.31,356.13,209.11,339.46,199.05,330.15Z"/><path class="cls-10" d="M182.06,333.43c-8.83-7.06-28.83,2.35-39.42.59l-1-.21c-2.84-.65-6.78-2.4-8.86-4.54-2.95-3-5.2-7.87-6.72-11.77A286.45,286.45,0,0,1,116,285.9a314.17,314.17,0,0,1-6.61-32,119.57,119.57,0,0,1-1.42-15,36.28,36.28,0,0,1-.08-5.42,31.79,31.79,0,0,0-4.33,8.43c-5.29,15.3,47.66,159.45,51.78,164.74,3.93,5.05,27.67,11.17,42.11,12.24,1.75-6.21-4.89-37.8-6.51-51.36C189.12,352.85,190.89,340.49,182.06,333.43Z"/><path class="cls-10" d="M306.9,361.31q-24.87,5.37-50.1,8.74-12.26,1.62-24.58,2.74-6.3.58-12.61,1.07c-3.83.3-7.74.8-11.57.33-.9-.11-1.08,1.38-.21,1.57,3.73.85,7.42.6,11.21.36q6.32-.39,12.61-1,12.89-1.16,25.72-2.86,25.25-3.35,50.15-8.73C309,363.25,308.37,361,306.9,361.31Zm-3.72-40.75c-10.14.72-19.92,3.24-29.64,6.09-9.19,2.7-19.35,4-27.3-2.6-8.1-6.75-8.56-18.46-6.78-28,1.93-10.32,5.57-20.3,8.83-30.25,1.8-5.51,3.54-11,4.91-16.68,1.28-5.28,2.2-10.47,1.13-15.87-.16-.82-1.59-.64-1.48.21.75,5.87-.75,11.62-2.31,17.25-1.51,5.41-3.25,10.75-5,16.07-3.44,10.37-7.35,20.9-8.83,31.77-1.21,8.91-.13,18.79,6.26,25.63,5.66,6.06,14.52,8,22.5,6.86,6.24-.93,12.25-3.27,18.34-4.84a110.68,110.68,0,0,1,19.38-3.35C304.62,322.71,304.63,320.45,303.18,320.56Z"/><path class="cls-11" d="M313.85,361.08s-1.17-37.65-6.47-38.83-19.61.48-24.07,2.45-26.23,10.2-36.82.79-10.59-22.36-7.06-34.71,13.53-39.43,14.12-50.6c.56-10.73-1.88-14.48-8.17-15-5.54,1.7-13.47,5.44-28.07,8.69,3.4.26,8.66,2.18,9.47,11.89.33,4.07.34,8.17.4,12.26.08,6.28.1,12.57.14,18.85q0,10.78.18,21.56c.1,6.79.24,13.58.55,20.36.2,4.46.81,8.94.94,13.39.21,7.58,2.92,14.68,9.84,18.6-2.35-.92-5-.05-7.41.57a24.58,24.58,0,0,1-8.3,1c-2.41-.26-4.91.36-7.34.63-2.8.31-5.61.64-8.42,1v21.77s3.53,0,25.3-2.35S315,363.44,313.85,361.08Z"/><path class="cls-10" d="M313.15,359.62c-16.85-5-34.32-7.05-51.78-8.52-9-.76-18.07-1.6-27.13-1.4A148.25,148.25,0,0,0,208,352.79c-1,.2-.77,1.85.24,1.76,8.67-.85,17.25-2.32,26-2.51s17.74.62,26.57,1.36c17.44,1.46,34.88,3.52,51.71,8.48A1.17,1.17,0,0,0,313.15,359.62Z"/><path class="cls-12" d="M426.6,477.15s132.32,14.13,142.17,14.13,22.72-5.38,25.69-13.27c1.83-4.84,1.29-20.56,1.29-20.56L598.32,45.5s-.86-12-8.57-16.71-18.41-8.56-25.26-8.13-133.61,17.56-137,18.41-16.71,6.85-17.56,21.84-1.29,386.69-1.29,386.69S406.47,467.3,426.6,477.15Z"/><path class="cls-13" d="M580.29,48.28c-.15,79.39-.62,335-.77,415a20.24,20.24,0,0,1-23.84,19.88L430.76,472.59a21.18,21.18,0,0,1-17.42-20.86l.39-382.58c0-11.53,4.21-21.47,19.41-23.79L557.05,29.3A19.35,19.35,0,0,1,580.29,48.28Z"/><path class="cls-14" d="M569.64,489.53c-.1-.58.26-.72.84-.82a16,16,0,0,0,11.22-9.61c2.82-6.85,3.32-15.41,3.34-15.9,0-5.46,2.13-410.31.87-421.66-1.21-10.88-8.49-15.7-8.57-15.74-.52-.29-1.44-.64-1.16-1.16s1.06,0,1.58.3S586.7,29.33,588,41.31c1.28,11.49-.76,405.18-.85,421.93v0a63.45,63.45,0,0,1-3.5,16.63c-2.92,7.52-11.25,9.41-12.77,9.66C570.85,489.58,569.73,490.06,569.64,489.53Zm16.47-26.3h0Zm9.66-360.87-.06-8.42c0-5.59.19-11.29-.38-16.85a2,2,0,0,0-4,0c-.57,5.56-.34,11.26-.38,16.85,0,2.67,0,5.33-.05,8a55.21,55.21,0,0,0,.16,8.63c.35,2.23,4.17,2.23,4.51,0A51.11,51.11,0,0,0,595.77,102.36Zm0,39.83-.06-8.43c0-5.58.19-11.28-.38-16.84a2,2,0,0,0-4,0c-.57,5.56-.34,11.26-.38,16.84,0,2.67,0,5.34-.05,8a55.08,55.08,0,0,0,.16,8.62c.35,2.23,4.17,2.24,4.51,0A51,51,0,0,0,595.77,142.19Z"/><path class="cls-15" d="M495.61,56.55c0-.58,0-1.17,0-1.75.08-1.4-2-1.44-2.16,0q-.08.87-.09,1.74a4.82,4.82,0,0,0,.13,1.78,1,1,0,0,0,2,0A6.54,6.54,0,0,0,495.61,56.55Zm4.79-5.83a1.05,1.05,0,0,0-2.1,0c-.14,2.41-.24,4.83-.34,7.25a1.2,1.2,0,0,0,2.4.06C500.39,55.56,500.42,53.14,500.4,50.72Zm4.71-3.51a1.1,1.1,0,0,0-2.2-.06c-.12,3.34-.29,6.69-.23,10a1.19,1.19,0,0,0,2.38.06C505.21,53.91,505.13,50.55,505.11,47.21Zm5.71-3.48a1.05,1.05,0,0,0-2.1-.06c-.3,4.45-.58,8.91-.6,13.36a1.22,1.22,0,0,0,2.43.07C510.67,52.64,510.68,48.18,510.82,43.73Zm16.86,10.74a1.59,1.59,0,0,0-.75-.68,1.45,1.45,0,0,0-.58-.14,1.37,1.37,0,0,0-.88.35.92.92,0,0,0-.34.68,1.49,1.49,0,0,0-.07,1,1.39,1.39,0,0,0,2,.83A1.5,1.5,0,0,0,527.68,54.47Zm2.51-2.85c-.19-1.67-2.31-2.41-3.76-2.17-1.84.31-3.07,1.74-4,3.24-.49.77.64,1.42,1.18.73a5,5,0,0,1,2.57-2c1.2-.29,1.64.33,2.35,1.11S530.3,52.53,530.19,51.62Z"/><path class="cls-15" d="M533.18,49.09a8,8,0,0,0-7.38-5.48c-3.47-.14-7.13,3.46-8,6.65a1.13,1.13,0,0,0,2.17.66c.95-2.29,3.45-5.19,6.15-5.07A7.31,7.31,0,0,1,532,49.56C532.29,50.21,533.45,49.79,533.18,49.09Z"/><path class="cls-15" d="M536.35,46.17c-.67-4.71-7.09-7.4-11.26-7a11.88,11.88,0,0,0-10.29,9,.67.67,0,0,0,1.29.39c1.58-3.9,5.1-7.3,9.52-7.34A9.39,9.39,0,0,1,531,42.92c1.68,1.14,2.38,2.7,3.57,4.25C535.25,48.12,536.48,47.1,536.35,46.17Zm31.53-3.92a1.16,1.16,0,0,0-1.78-1c-.87,0-1.73.11-2.59.18q0-1.76-.15-3.51A1.14,1.14,0,0,0,562,36.83c-3.29.54-6.6,1-9.91,1.46s-6.66.65-9.89,1.36a.67.67,0,0,0-.51.81.67.67,0,0,0-.11.27,70.7,70.7,0,0,0-1,9.84c-.05,1.68-.23,4.19,1.88,4.5,3.08.47,6.67-.11,9.76-.4,3.3-.32,6.57-.8,9.83-1.43a1.14,1.14,0,0,0,.86-1.06,13.45,13.45,0,0,1,.09-2.09c1.42-.05,3.4.53,4.25-.69a5.34,5.34,0,0,0,.41-2.51C567.75,45.35,567.83,43.8,567.88,42.25Zm-2.76,5.56a20.79,20.79,0,0,1-2.37,0c-2,.15-2.08,1.7-2.1,3.35a102.21,102.21,0,0,1-14.79,1.66c-.54,0-1.08,0-1.61.05-.75,0-1.2.3-1.5-.14-.53-.79-.17-2.72-.13-3.67.1-2.69.34-5.36.56-8a84.11,84.11,0,0,0,9.51-.8c2.85-.3,5.69-.68,8.52-1.09,0,1.16,0,2.31,0,3.48a1.16,1.16,0,0,0,1.12,1.17c1-.07,2.08-.14,3.12-.23a11.5,11.5,0,0,0-.11,3.23c-.29.62-.14.94.47,1Z"/><path class="cls-15" d="M544.82,43.18c-.29,2.31-.62,4.63-.81,7-.13,1.56,2.25,1.59,2.42.06.25-2.31.37-4.63.53-6.95C547.06,41.84,545,41.84,544.82,43.18Zm3.25-.14c-.3,2.31-.57,4.62-.76,6.94-.12,1.57,2.34,1.63,2.44.07.15-2.32.31-4.64.53-6.95C550.41,41.67,548.25,41.66,548.07,43Zm5.56-.32c.14-1.45-2-1.45-2.23-.06a54.68,54.68,0,0,0-.55,6.88,1.22,1.22,0,0,0,2.44.06C553.33,47.3,553.42,45,553.63,42.72Z"/><path class="cls-12" d="M431.43,51.86a10.39,10.39,0,0,0-8.63,3.84c-1.8,2.29-2.37,6.88-.59,9.36a8.92,8.92,0,0,0,6.21,3.39,8.87,8.87,0,0,0,8.4-13.4A6.5,6.5,0,0,0,435,53,7,7,0,0,0,431.43,51.86Z"/><path class="cls-14" d="M431.88,64.61a4.43,4.43,0,0,0,1.7-1.23,4.82,4.82,0,0,0,1.11-4.11c-.78-3.71-6-4.14-7.92-1.12a5,5,0,0,0,.61,5.33A4.21,4.21,0,0,0,431.88,64.61Z"/><path class="cls-16" d="M427.37,59.71a2.44,2.44,0,0,0,1.92-1.19,1.86,1.86,0,0,0,.18-1.68,2.44,2.44,0,0,0-3.66-.45A2,2,0,0,0,427.37,59.71Zm.91,1a.73.73,0,0,0,0,1.46A.73.73,0,0,0,428.28,60.75Z"/><path class="cls-15" d="M552.3,465.25c-.45-2.26-4-1.78-5.74-2s-5.5-1.47-6.44.86a9.6,9.6,0,0,0-.26,3.43c0,1.79,0,3.57.11,5.36a.86.86,0,0,0,.38.68A1.21,1.21,0,0,0,541.5,475c2.94.16,5.87.34,8.8.67a1.2,1.2,0,0,0,1.16-.88c.29-1.72.53-3.44.67-5.18A16.45,16.45,0,0,0,552.3,465.25Zm-10.33,0a3.45,3.45,0,0,1,1.83,0c.78,0,1.57.22,2.35.32a12.89,12.89,0,0,0,2.87.36c.56.31.87.26.92-.15,0,.47,0,.95,0,1.42a54.5,54.5,0,0,1-.61,6c-2.51-.28-5-.49-7.57-.55,0-1.94,0-3.88.15-5.82C541.9,466.28,541.93,465.77,542,465.26Zm-42.31-1a7.3,7.3,0,0,0-7.38-6,1,1,0,0,0-1,.62.72.72,0,0,0-.59,0,6.71,6.71,0,0,0-3.3,8.27,6.5,6.5,0,0,0,7.73,4.11A6.27,6.27,0,0,0,499.66,464.26Zm-5.52,5a4.44,4.44,0,0,1-5-3.29c-.61-2.21.62-4.38,2.31-5.75a1.11,1.11,0,0,0,.82.39,5.17,5.17,0,0,1,5,3.43A4,4,0,0,1,494.14,469.23ZM443.3,455.41a1,1,0,0,0-1.57-.66,1.13,1.13,0,0,0-1.32-.19,51.3,51.3,0,0,0-8,5.15,1.12,1.12,0,0,0-.18,1.37c2.47,3.29,6,5,9.92,6.06a1.12,1.12,0,0,0,1.4-1.07C443.59,462.51,443.49,459,443.3,455.41Zm-8.52,5.29a47.31,47.31,0,0,1,6.69-4.12c0,2.67,0,5.34-.12,8A15,15,0,0,1,434.78,460.7Z"/><path class="cls-15" d="M434.59,110.52s-2.08,49.94.83,54.1,124.44-.83,125.68-3.75.84-60.76-1.24-62.42S435,107.19,434.59,110.52Z"/><path class="cls-17" d="M431.26,108.44s-2.08,49.94.83,54.1,124.44-.83,125.69-3.75.83-60.76-1.25-62.42S431.68,105.11,431.26,108.44Z"/><path class="cls-3" d="M438.51,137.69c.07-.46.14-1.13.19-2l.06-.61,0-.53a7.83,7.83,0,0,1,.07-.82,24.05,24.05,0,0,1,1.21-4.54,20.29,20.29,0,0,1,1.59-3.26,7.58,7.58,0,0,1,3.28-3,10.14,10.14,0,0,1,2.62-.84l.43-.07.51-.07h.92l.74,0a2.46,2.46,0,0,0,.47,0l.34,0h.55l.57.09a15.65,15.65,0,0,1,2.91.89,10.2,10.2,0,0,1,3.25,2.25,8.47,8.47,0,0,1,1.39,2.2,20.06,20.06,0,0,1,1.35,4.51,13.76,13.76,0,0,1,.17,3.73c0,.3-.07.92-.1,1.87a11.66,11.66,0,0,1-.36,2.38,11.53,11.53,0,0,1-1.76,3.64l-.2.33-.12.17-.17.22-.88,1-.29.3-.32.35c-.27.26-.52.49-.76.69l-.76.61-.71.61a8.27,8.27,0,0,1-3.48,1.83l-2.53.51a6.28,6.28,0,0,1-4.87-1.18l-.61-.46-.6-.49c-.2-.15-.41-.33-.64-.53l-.3-.23-.22-.23a9.44,9.44,0,0,1-2.12-3.41,12.85,12.85,0,0,1-.85-4.3,1.84,1.84,0,0,1,0-.77l0-.86Zm16.29-2.88,0-.41a4.4,4.4,0,0,0,0-.81l-.26-1.57a4.37,4.37,0,0,0-3.39-3.62,2.72,2.72,0,0,0-.74,0,7.49,7.49,0,0,0-1.24.19l-.47.15-.47.19a5.94,5.94,0,0,0-2.33,2.41,15.86,15.86,0,0,0-1.47,4.11,4.78,4.78,0,0,0-.07,1.06,6,6,0,0,0,.34,2.17,4.61,4.61,0,0,0,2.29,3.12,4.05,4.05,0,0,0,2.73.58,4.77,4.77,0,0,0,2-.85,8.22,8.22,0,0,0,2.48-3.19,9.23,9.23,0,0,0,.65-3.13ZM470,142.38a6.65,6.65,0,0,0,0,.77c0,.25,0,.5,0,.78l-.06,1.54-.07,1a4.45,4.45,0,0,1-.07.74.76.76,0,0,1-.68.81l-1.21.07-.66.08-.5,0-.55.07-.62.07-.54,0c-.36.05-.65.08-.86.09-.51,0-.79-.23-.82-.8q0-.57-.06-1.62l0-.78v-1.62l0-.82c.06-1.46.15-2.67.29-3.63l0-1.42c0-.06,0-.38,0-1a54.52,54.52,0,0,1,.19-6.3v-.37l.24-4.57c0-.13.06-.88.16-2.24l.1-.57a.83.83,0,0,1,.53-.68,5.34,5.34,0,0,1,1.88-.64l3.58-.53.5,0h.46l.82,0a3.53,3.53,0,0,1,.73,0,35.43,35.43,0,0,1,3.91.06,21.27,21.27,0,0,1,2.62.38,2.73,2.73,0,0,1,1.07.51,7.06,7.06,0,0,1,2.09,3.09,9.17,9.17,0,0,1,.55,4.19,12.13,12.13,0,0,1-3.08,6.88,5.17,5.17,0,0,1-2.1,1.51c-.34.12-.52.27-.52.43s.06.28.29.51l1.15,1.28a10.26,10.26,0,0,0,.83.76l.75.69c.27.23.65.57,1.12,1a10.26,10.26,0,0,1,1.08,1c.1.1.45.49,1.05,1.16l.48.62.52.58.11.16a.53.53,0,0,1-.22.78l-1.1.39q-.51.15-2.34.54l-2.38.5-.23,0-.24.05a.61.61,0,0,1-.72-.36l-.48-.67-.7-.89c-.52-.68-.93-1.18-1.23-1.52-.71-.88-1.38-1.66-2-2.36l-.6-.57-.64-.58-1.05-.95-.11-.12-.15-.11a.37.37,0,0,0-.31,0c-.13.06-.2.27-.21.62Zm.66-14.17-.24,6.59c0,.46.2.65.64.57a.16.16,0,0,0,.12,0h.08a8.33,8.33,0,0,0,3.51-1.91,4.09,4.09,0,0,0,1.1-1.4,4.14,4.14,0,0,0,.12-3.5,2.14,2.14,0,0,0-1.77-1.44l-.73-.08-.39,0-.42,0a7.6,7.6,0,0,0-1.41.33A.82.82,0,0,0,470.67,128.21Zm29.85-9.85.46.1.42.18.38.18A7.31,7.31,0,0,1,504,120.6a10.49,10.49,0,0,1,1.42,2.31l.69,1.38a5.08,5.08,0,0,1,.53,1.44,13.76,13.76,0,0,1,.44,5,14.27,14.27,0,0,1-.31,2.09l-.09.41c0,.19-.07.36-.1.49l-.18.91a19.09,19.09,0,0,1-.8,2.69l-.29.66-.26.67c-.11.19-.23.43-.37.71l-.17.29-.16.3-.08.08-.09.17a9.58,9.58,0,0,1-1.31,2.07l-.4.43-.41.47-.88.86a8.87,8.87,0,0,1-1.51,1.22l-.8.54-.83.49a10.2,10.2,0,0,1-2.43,1,21.13,21.13,0,0,1-3.2.75l-.74,0-.7.08-.74.08-.7,0a.72.72,0,0,1-.83-.56c0-.16-.08-.29-.1-.4l0-.2-.07-.2a19.34,19.34,0,0,1-.39-3.14c0-.17,0-.44,0-.81l-.06-.45,0-.52c-.1-.87-.19-1.69-.26-2.47,0-.3,0-.69-.07-1.17V137.1c0-1.95,0-3.08,0-3.38l.09-1.22.12-1.23V131a37.58,37.58,0,0,1,.29-3.75l.22-2,.19-2a13.41,13.41,0,0,0,.17-1.51c.05-.68.11-1.19.17-1.52a1.19,1.19,0,0,1,.82-1.06l.63-.24.58-.24a13.3,13.3,0,0,1,4.91-.89,10.89,10.89,0,0,1,4.17.45Zm-6.63,12.08h0q.09,1.74,0,4.47c0,.46,0,.94,0,1.46s.07,1.31.12,2l.09.73a.46.46,0,0,0,.57.41l.58-.11.55-.11c.52-.14.9-.26,1.13-.35l1.11-.51a4.39,4.39,0,0,0,1.75-1.32,9.7,9.7,0,0,0,2-4.67,3.35,3.35,0,0,0-.13-1.7l-.1-.48-.14-.48a6.76,6.76,0,0,0-1.55-3l-.26-.23a.55.55,0,0,0-.34-.22l-.42-.18-.38-.18a4.63,4.63,0,0,0-.81-.32,5.47,5.47,0,0,0-2.85-.21,1.08,1.08,0,0,0-.86,1.19v.08c0,.08,0,.56,0,1.42Zm30.2-7.79v.25a.75.75,0,0,1-.56.68,4.32,4.32,0,0,1-.63.08c-.36.07-1,.16-1.79.26l-1.78.15-1,.13-1,.18a.85.85,0,0,0-.65.89q-.06.78-.06,1.59l0,.65a3.6,3.6,0,0,0,0,.69.46.46,0,0,0,.49.5.81.81,0,0,0,.35,0l2.17-.12c.88-.06,1.45-.07,1.7-.06,1,0,2,0,3,.07.47,0,.71.27.75.81l.11,3.16c0,.49,0,.79,0,.89a.71.71,0,0,1-.53.73l-.55.11-.5.15a4,4,0,0,1-1,.14h-.2l-.15,0-.35,0a12.15,12.15,0,0,0-2.14.25l-1.09.18-1.05.22-1,.18c-.31.13-.47.31-.48.56-.08.87-.13,1.35-.13,1.43a7.42,7.42,0,0,0-.07.94c0,.35.2.54.64.57a5.56,5.56,0,0,0,1.71-.18,13.15,13.15,0,0,1,2.48-.31l1.79-.1h.85l.89,0a1.91,1.91,0,0,1,.47,0,.58.58,0,0,1,.48.59l0,.53,0,1.17v1.18a10.12,10.12,0,0,1-.09,1.43l0,.49a.73.73,0,0,1-.56.68,11.91,11.91,0,0,1-2,.31l-.7,0-.74.09L520,145a19.82,19.82,0,0,1-2.64.28,14.73,14.73,0,0,0-4.67.59,6.48,6.48,0,0,1-2.14.29.85.85,0,0,0-.54,0l-.55.07c-.51.06-.75-.17-.71-.69A9.79,9.79,0,0,1,509,144l.13-3.46c.08-1.6.2-3,.34-4.12s.21-2.35.36-3.52l.52-4.82.28-2.29c.09-1.15.14-1.89.16-2.25s.12-1,.17-1.59l.21-1.52.15-1.1a1,1,0,0,1,1-1l.58,0a13.13,13.13,0,0,1,1.32-.12l.66,0h.66l1.17-.15a6,6,0,0,1,.66-.08l.54,0a13.89,13.89,0,0,1,1.74-.06,16.24,16.24,0,0,0,2.63,0,7.22,7.22,0,0,1,1.17,0,.6.6,0,0,1,.71.57,4.39,4.39,0,0,1,.06.6l0,1.06-.06.49Zm10.53,16c0,.24,0,.5,0,.77a6.51,6.51,0,0,1,0,.77l0,1.55-.08,1a4.61,4.61,0,0,1-.06.73.77.77,0,0,1-.69.81l-1.2.07-.66.08-.51,0-.54.07-.62.08-.55,0c-.36.05-.64.08-.85.09-.52,0-.79-.24-.82-.81q0-.57-.06-1.62l0-.77V139.9l0-.81c0-1.47.15-2.68.28-3.64l.06-1.42c0-.05,0-.38-.05-1a59.68,59.68,0,0,1,.19-6.31v-.37l.25-4.56c0-.14,0-.89.16-2.25L529,119a.87.87,0,0,1,.53-.68,5.86,5.86,0,0,1,1.88-.64l3.58-.53.51,0,.46,0,.81,0a4.18,4.18,0,0,1,.74,0,31.15,31.15,0,0,1,3.91.06,21.76,21.76,0,0,1,2.62.37,2.76,2.76,0,0,1,1.06.51,7,7,0,0,1,2.1,3.09,9.33,9.33,0,0,1,.54,4.2,12.15,12.15,0,0,1-3.07,6.88,5.21,5.21,0,0,1-2.11,1.5c-.34.13-.51.27-.52.44s.07.28.29.51l1.16,1.27c.25.26.52.51.82.77l.75.69c.28.22.65.57,1.13,1a13.13,13.13,0,0,1,1.08,1c.1.11.45.49,1,1.16l.48.62.52.58.12.16a.53.53,0,0,1-.23.78l-1.09.39c-.34.1-1.12.28-2.35.54l-2.38.51h-.23l-.23.05a.6.6,0,0,1-.72-.36l-.48-.66c-.25-.31-.49-.61-.71-.9-.51-.67-.92-1.18-1.22-1.51q-1.08-1.32-2-2.37l-.59-.57-.64-.57-1-1-.11-.11-.15-.12a.42.42,0,0,0-.31,0c-.13.06-.21.27-.22.62Zm.67-14.18-.24,6.59c0,.47.2.66.64.58a.16.16,0,0,0,.11,0h.08a8.52,8.52,0,0,0,3.52-1.9,4.35,4.35,0,0,0,1.22-4.91,2.17,2.17,0,0,0-1.77-1.44l-.73-.08-.39,0-.42,0a7.42,7.42,0,0,0-1.41.33A.82.82,0,0,0,535.29,124.49Z"/><path class="cls-4" d="M303.86,484.79s73.43.22,74-4.33-9.85-5.79-9.85-5.79-87,2.49-88.23,5-1.46,6.59,6.35,6.21S303.86,484.79,303.86,484.79Z"/><path class="cls-18" d="M305.57,453.16a71.77,71.77,0,0,0-.45,12.77c.45,5.92-.46,8.66-.46,8.66L291,471.85s-.91-9.12-.46-12.76,2.74-11.85,2.74-11.85Z"/><path class="cls-7" d="M284.27,479.36s-2.91,1.45,0,4.85,14.07,4.85,20.86,2.91,8.4-5.3,4.93-7S284.27,479.36,284.27,479.36Z"/><path class="cls-8" d="M298.58,485.42s-13.09,0-14.55-5.34,2.43-8.24,3.4-11.63,13.57-6.79,18.42-3.4,2.43,6.79,3.4,11.16S313.61,484.93,298.58,485.42Z"/><path class="cls-7" d="M335.66,475s-3.65,0-3.19,2.28,8.66,3.19,12.76,3.65,18.24,5,29.63,5.47,12.31-2.74,10-5S335.66,475,335.66,475Z"/><path class="cls-18" d="M338.4,445s.91,10.94,0,14.13-4.56,10-4.11,13.67,5.26,4.62,12.2,5.05,17.43-12.34,17.43-12.34-7.29-4.1-8.66-8.21,5-30.54,5-30.54Z"/><path class="cls-8" d="M345.69,477.78s10.48-14.13,15.95-15.5,10,6.84,14.14,10,8.66,5,9.11,7.75,0,4.1-9.57,4.1S349.79,479.14,345.69,477.78Z"/><path class="cls-19" d="M368.94,294.53C365.29,254.87,358,231.62,358,231.62s-59.72-5.93-61.54,10.48-5.7,67.7-6.16,96.42-8.43,107.8-7.06,111,9.57,9.12,16.86,10,14.14-4.56,15-5.92.45-10,.45-18.24,5.36-45.16,7.5-68.75c1.84-20.22,8.52-62.63,9.44-62.18s2.57,37.31,3.86,57.89c1.2,19.2-1.65,84.9-1.19,86.26s4.1,3.65,12.76,4.56,18.69-.45,20.06-2.73,1.82-51.51,2.28-63.82S372.58,334.18,368.94,294.53Z"/><path class="cls-19" d="M338.78,273.26a1,1,0,0,0-2.06,0c-.1,4.77-1.51,12.57-2.24,17.29q-.53,3.42-1.29,6.8a40.17,40.17,0,0,0-1.35,6.3,1.4,1.4,0,0,0,2.6.7c2-3.91,2.4-9.09,3-13.41C338,286.05,338.93,278.18,338.78,273.26Zm5.4-39.61c-.44-1.88-3.23-1.08-2.87.79.8,4.21,1.86,8.35,2.33,12.63a15.32,15.32,0,0,1,.08,5.23c-.52,2.06-2.62,2.9-4.45,3.64a57.58,57.58,0,0,0-2.95-17.59,1,1,0,0,0-1.95.53,86.6,86.6,0,0,1,2.89,23.22c0,1.17,1.7,1.13,1.8,0,.11-1.37.18-2.74.2-4.12l.16,0c4.12-1,6.44-3.95,6.75-8.24C346.54,244.44,345.39,238.76,344.18,233.65Zm-34.35,16.6c-2,8.58-6.33,16.08-11.19,23.3-1,1.42,1.3,3.21,2.4,1.85,5.76-7.08,8.94-15.78,10.81-24.59C312.12,249.5,310.14,248.93,309.83,250.25Z"/><path class="cls-20" d="M344.65,382.14c-.07-18-.72-36.14-1.86-54.12-.64-10.06-1.53-20.12-3.08-30.08-.09-.62-1.17-.48-1.09.15,2.05,18,3.1,36.05,3.71,54.15.3,8.93.64,17.85.67,26.78,0,9.13-.51,31-1.1,40.09-.66,10.17-1.19,20.36-.32,30.53.1,1.05,1.76,1.06,1.66,0C341.67,431.39,344.78,417.15,344.65,382.14Z"/><path class="cls-21" d="M461.19,123.8c-1.87-2.23-5.28-2.93-8.16-2.88-.12-.25.32-.92,0-.92-4.73,0-13.05,8.27-8.72,12.95a4.24,4.24,0,0,0,3.31,1.32,13.53,13.53,0,0,1,6.27,1.26,3.75,3.75,0,0,0,1.66.52A1.61,1.61,0,0,0,457,134c-.22-.76-1-1.27-1.27-2a25.21,25.21,0,0,0,2.88.38,4.07,4.07,0,0,0,2-.13,1.86,1.86,0,0,0,1-1.21,13.56,13.56,0,0,0-.05-1.77C463.49,127.81,462.75,125.66,461.19,123.8Z"/><path class="cls-18" d="M377.56,184s15.44,4.29,28.3-.43,27.45-27,30.45-32.16,4.59-8.52,5.87-9.38a26.78,26.78,0,0,0,4.85-3.48c1.71-1.72.86-3.44,3-3.86s7.72-.86,8.58-3.43.42-3.44-1.72-3.44-6.43,3.44-8.58,2.15-.85-3.43,1.29-5.58,11.79-10.45,11.79-12.22-.85-2.57-2.57-1.71-3.43,3.43-8.58,7.29-6.86,4.71-8.57,8.15-5.58,8.57-7.72,11.57S423.23,147.72,417.23,152s-20.59,11.58-21.45,12.87-11.08-2.31-10.9-2S377.56,184,377.56,184Z"/><path class="cls-21" d="M400.47,173.83c-.68-3-2.07-6.32-5.3-7.29a.62.62,0,0,0-.69.9,16.25,16.25,0,0,1,1.76,5.23c.1.64,1,.36.95-.26a19.3,19.3,0,0,0-.86-3.64,10.08,10.08,0,0,1,2.65,5.47C399.18,175.21,400.69,174.8,400.47,173.83Zm51.59-46.61a10.14,10.14,0,0,1-5.95,2.09c-.51,0-.67.8-.13.93a8.3,8.3,0,0,0,7.23-1.88C454,127.68,452.86,126.59,452.06,127.22Z"/><path class="cls-22" d="M275.77,192.44a80.07,80.07,0,0,0,1.45-11.05c0-3.86.43-19.3,4.29-25.3s21-10.29,25.73-12.44,31.73,3,31.73,3,11.15,3,15.86,3.86,14.15,8.15,18.44,9,14.15,3.43,14.58,4.29-1.28,9-5.14,16.72S375.42,193,374.56,193s-2.36-2.35-5.36-2.35-10.29-2.58-10.72-1.72-2.15,18.44-1.29,24.87,5.15,16.3,4.72,18-4.72,5.58-11.15,6.43-26.59.43-29.16,1.72-13.72,5.57-19.3,6-7.71.86-8.57-1.71,1.71-14.15,2.14-20.59-3.43-26.15-3.43-26.15L283,189.75S275.61,193.29,275.77,192.44Z"/><path class="cls-22" d="M299.32,165.64c-.45-1.15-2.29-.71-1.9.52a68.81,68.81,0,0,1,3.09,20c0,2,3.19,2,3.12,0A61.39,61.39,0,0,0,299.32,165.64Zm61.1,5.45a82.33,82.33,0,0,0-3.16,17c-.12,1.55,2.53,1.94,2.75.37.82-5.7,1.52-11.42,2.15-17.13C362.27,170.31,360.7,170.17,360.42,171.09Z"/><path class="cls-23" d="M367.27,158c-.33-1-2-.59-1.63.45,1,3.3.09,7.67-.58,11a85.13,85.13,0,0,1-3,9.88.52.52,0,0,0,.95.4,36.85,36.85,0,0,0,3.76-11C367.45,165.39,368.32,161.31,367.27,158Zm-68.7,14.26a31.69,31.69,0,0,0-8-12.46c-2.57-2.43-7.09-4.37-9.77-1-.23.3.07.81.44.57,7.06-4.58,13.88,8.31,15.71,13.37C297.32,173.73,298.93,173.3,298.57,172.27Z"/><path class="cls-22" d="M295.87,223.62c-.06,1-.18,2.11-.33,3.3,3.12-1.32,6.87-3.53,8.69-6.94,3.43-6.43,7.29-22.73,7.29-22.73l-17.44,9.4C295.07,212.7,296.11,220.13,295.87,223.62Z"/><path class="cls-24" d="M299.32,165.64c-.45-1.15-2.29-.71-1.9.52a68.81,68.81,0,0,1,3.09,20c0,2,3.19,2,3.12,0A61.39,61.39,0,0,0,299.32,165.64Zm61.1,5.45a82.33,82.33,0,0,0-3.16,17c-.12,1.55,2.53,1.94,2.75.37.82-5.7,1.52-11.42,2.15-17.13C362.27,170.31,360.7,170.17,360.42,171.09Z"/><path class="cls-24" d="M295.87,223.62c-.06,1-.18,2.11-.33,3.3,3.12-1.32,6.87-3.53,8.69-6.94,3.43-6.43,7.29-22.73,7.29-22.73l-17.44,9.4C295.07,212.7,296.11,220.13,295.87,223.62Z"/><path class="cls-25" d="M340.68,144.94a10.45,10.45,0,0,1,3,7.72c0,5.14-6,9-6,9s5.15,11.15,4.29,22.73-3.43,10.72-2.14,22.72,3,21,3,21-18,2.14-21.87,2.14-5.58-22.3-3.43-32.16,3-12.86,2.57-18.44-4.72-18.87-4.72-18.87l12.32-14.66Z"/><path class="cls-25" d="M314.87,134.52c.08.13-2.92-.3-5.06,1s-.43,1.29-2.57,3-4.72,2.57-4.29,8.14a20.6,20.6,0,0,0,11.58,17.16c8.14,3.85,13.29-1.72,13.29-1.72l.43-15Z"/><path class="cls-14" d="M314.1,136.79s-6.86-.43-3,5.15a8.68,8.68,0,0,0,9.86,3.43l-1.72-8.15Z"/><path class="cls-18" d="M316,147.38a21.21,21.21,0,0,0,3.39,1.65c1.21.33,2.47.53,3.59.72a15.32,15.32,0,0,0,7.13-.5c-.32-1.17-.87-2.34-1.25-3.76a2.12,2.12,0,0,1-.07-.65c-.18-.33-.36-.65-.56-1l-3.66-3.48-11.3-14.47s3.71,11.41-2.4,15.83A14.6,14.6,0,0,0,316,147.38Z"/><path class="cls-26" d="M345.78,120.33s5.67-8.31,5.16-11.86-2.15-4.45-2.15-4.45,4.52-4.77-1.62-9.08-14.45-1.45-17.92-.13c0,0,.38-2.82-3.23-2.06s-11,6.72-12.64,13.75c0,0-1.08-1-1.9,1.41s1.28,10.59,1.28,10.59l15.12,10.05Z"/><path class="cls-18" d="M313.86,129.83s.89,4.28.24,7c.94.9,1.47-.14,2.49.53a65.54,65.54,0,0,0,6,3.34q2.56,1.29,5.19,2.39L316.6,120.17s-.42-5.12-3.66-4.8-5,4.41-4.26,8.27S313.86,129.83,313.86,129.83Z"/><path class="cls-26" d="M343.57,134.57s.45,7.69-.76,9.53-2.22,1.6-2.22,1.6a11.47,11.47,0,0,1-10.24,5.58c-7.06-.29-9.39-4-9.39-4s-2.6,1-4.83-4.27-.59-19.4.1-22.41,2.14-8.22,2.14-8.22Z"/><path class="cls-18" d="M343.35,135.38a10,10,0,0,1-4.79-.43,26,26,0,0,0-8.7-1.2c-3.18.07-5.13-.64-7.32-3.78s-3.32-9.73-3-11.24,5.05-3.6,4.87-6.28-3-5.43-2.14-6.82,2.12,0,5.27,1.2,11.12,3.33,13.91,2.65,4.44.22,5,1.14a6.68,6.68,0,0,1,1.13,3.16c0,1.07-1.95,6.82-2.39,9.89S344.48,134.45,343.35,135.38Z"/><path class="cls-21" d="M335.07,132.5a.75.75,0,0,1,.83-.67l1.19.14a.75.75,0,0,1-.16,1.5l-1.2-.14A.76.76,0,0,1,335.07,132.5Z"/><path class="cls-27" d="M338.36,160.69a13.48,13.48,0,0,0-6.85-7.89l-.05,0-.2-.1a.82.82,0,0,0-.82,1.41,19.82,19.82,0,0,1,6.38,6.47c.12.21.23.42.34.64A.66.66,0,0,0,338.36,160.69Zm7.31,72.72c-.88-1.92-2-3.64-2.76-5.64a.82.82,0,0,0-1-.53.75.75,0,0,0-.87-.18.94.94,0,0,0-1.18.09.83.83,0,0,0-.8.26c0-.07,0-.14,0-.22-.05-1-1.64-1-1.61,0,0,.09,0,.17,0,.25a.75.75,0,0,0-.78.49.85.85,0,0,0-.82.15.79.79,0,0,0-1.42.48v.11a.73.73,0,0,0-.65-.37.6.6,0,0,0-.22,0l0-.21c-.17-.95-1.51-.64-1.58.22a.86.86,0,0,0-1.41,0,.8.8,0,0,0-1.48.42l.06,1c-.11-.6-.22-1.19-.35-1.77-.21-1-1.74-.58-1.53.42,0,.13,0,.26.07.39a.9.9,0,0,0-.79.13l-.06-.15a.9.9,0,0,0-1.39-.33c-.46-.3-1.34,0-1.26.65l.09.75c-.14-.6-.29-1.2-.44-1.79a.77.77,0,0,0-1.47,0,.73.73,0,0,0-1.29.17c-.36-.5-1.31-.4-1.22.33,0,.12,0,.24.05.35a.75.75,0,0,0-.46.65,31.64,31.64,0,0,0,0,6.67.75.75,0,0,0,1.49,0c0-.42,0-.85,0-1.27.11.45.21.91.33,1.37a.76.76,0,0,0,1.48-.15.85.85,0,0,0,1-.19.82.82,0,0,0,1.5-.13c.39.67,1.6.23,1.45-.68-.22-1.34-.45-2.69-.66-4,.53,1.38,1.05,2.77,1.64,4.13a.63.63,0,0,0,.67.39c0,.16,0,.31,0,.47a.82.82,0,0,0,1.64,0c0-.7,0-1.41,0-2.11a16.09,16.09,0,0,0,.41,1.59c.26.8,1.67.72,1.55-.21,0,0,0-.08,0-.12.06.24.1.48.16.71a.84.84,0,0,0,1.62-.44q-.64-2.53-1-5.11a44.53,44.53,0,0,0,1.54,5.65.86.86,0,0,0,1.66-.1.73.73,0,0,0,.79-.75c0-.43,0-.86,0-1.28.11.62.22,1.24.36,1.86.23,1,1.77.59,1.58-.44-.23-1.28-.45-2.56-.63-3.85a.66.66,0,0,0,.2-.06,21.44,21.44,0,0,0,1,3.88.81.81,0,0,0,1.56-.43c-.06-.23-.12-.46-.17-.68a.83.83,0,0,0,.82-1c0-.14-.06-.29-.08-.43a12.23,12.23,0,0,0,1.15,2.25.8.8,0,0,0,1.39-.81c-.45-.94-.85-1.87-1.2-2.81a.7.7,0,0,0,.19-.26,14.51,14.51,0,0,0,1.91,3.19C345,235.1,346,234.16,345.67,233.41Z"/><path class="cls-27" d="M340,208.53a2.88,2.88,0,0,0-1.55-.08c-2.16.47-4,3.13-5.28,4.79a35,35,0,0,0-2.25,3.44c-1.27-1.58-2.55-3.16-3.91-4.65s-3.3-2.69-5.4-1.72c-1.94.9-3.24,3.41-4.31,5.15-.15.24-.29.48-.43.72.16,2.24.41,4.38.72,6.29.55-1.08,1.14-2.13,1.77-3.16.53-.86,1.1-1.71,1.7-2.53.39-.53,1.15-1.89,1.77-2.2.17-.07.22-.18.16-.32a7.37,7.37,0,0,1,1,1.17l1.66,2.15,4,5c1,1.22,3.06.74,3.75-.48,1.39-2.47,3.08-6.26,5.53-8.27a29.1,29.1,0,0,1,2,3.49c.12.2.23.4.34.6C340.79,215.19,340.37,212,340,208.53Z"/><path class="cls-27" d="M321.51,196.9a7.83,7.83,0,0,0-4.33,3.16,59.29,59.29,0,0,0-.57,7.39c.72-1,1.48-2,2.28-2.9s2.31-3.29,3.58-3.24c1.44.05,2.87,3.32,3.54,4.32.85,1.26,1.71,3.13,3.19,3.75,3,1.28,4.74-3.61,6.27-5.31a8.32,8.32,0,0,1,1.66-1.53c1-.6,1.06-.38,1.78.44.22.26.43.51.63.77a30.22,30.22,0,0,1,.2-6.23,4.31,4.31,0,0,0-2.41-.26,9.67,9.67,0,0,0-5,3.18,24,24,0,0,0-2,2.52c-.13.17-.24.35-.36.53C327.77,200.31,326.14,196,321.51,196.9Z"/><path class="cls-14" d="M282.27,187.81s-6.55,2.37-6.55,4.94,9.53-.6,9.53-.6Z"/><path class="cls-18" d="M280.22,188.68s0,5.57-.43,9.86-1.71,12.43,2.57,19.72,16.3,1.72,21.87-5.57,17.59-43.74,20.59-45.88,10.72-8.58,12-11.15a11.64,11.64,0,0,0,1.29-4.72,10.41,10.41,0,0,0,2.57-4.29c.43-2.14-.43-2.14,0-3s1.29-3.86-1.28-4.29c0,0-.94-2.48-3-1.45s-10.84,6.66-10.84,6.66.59-3.49-1.12-5.21-2.95-1-3.4.6-.26,4.09-2,6.14-2.56,2.48-3.42,4.63-.86,8.14-1.29,10.29-4.29,7.29-9,13.29A73,73,0,0,1,294.59,185S289,183.74,280.22,188.68Z"/><path class="cls-21" d="M324.37,143.68a5.78,5.78,0,0,0-2.86,1.56,21.48,21.48,0,0,0-2.39,2.38.9.9,0,0,0,1.28,1.27c.76-.62,1.51-1.28,2.31-1.85a23,23,0,0,0,2.42-1.53A1.08,1.08,0,0,0,324.37,143.68Zm13.83-3.49c-1,2.44-3.45,3.56-5.55,4.88a47.88,47.88,0,0,0-4.78,3.49c-.59.49.19,1.51.83,1.07,2.24-1.55,4.48-3,6.83-4.38a9.44,9.44,0,0,0,4.3-4.61C340.24,139.63,338.61,139.19,338.2,140.19Z"/><path class="cls-28" d="M332.09,157.92c-.42-.25-.85-1-1.26-1.41a16.28,16.28,0,0,1-1.73-2.2,9.42,9.42,0,0,1-1.56-2.79c-.1-.34-.08-.7-.19-1a5.78,5.78,0,0,0-.51-.6,2.91,2.91,0,0,1-.75-2.49c.05-.75-1.18-.93-1.32-.18-.32,1.73.32,2.32,1,3.76.28.63.24,1.25.54,1.87s.55,1.24.86,1.74,1,1,1.38,1.68a4.62,4.62,0,0,0,.69,1.2c.39.4.88.69,1.27,1.1a2.26,2.26,0,0,0,1,.78C332.32,159.67,332.82,158.36,332.09,157.92Z"/><path class="cls-21" d="M293,184.53c-7.13,3.8-11.24,11.23-12.89,18.9-.12.58.72,1,1,.43,3.2-6.62,6.36-13.55,13.17-17.14C295.72,186,294.44,183.76,293,184.53Z"/><path class="cls-17" d="M420.22,313c0,13.08-.07,26.12-.09,38.59,15.72.63,131.25,5.3,151.63,7,.06-12.5.1-25.54.15-38.65C555.73,319.24,434.83,314.21,420.22,313Zm122.43,36.62a1.84,1.84,0,0,1-3.68,0V325a1.84,1.84,0,0,1,3.68,0Zm-122.53,9.56c0,14.22,0,27.52,0,39.06,16.11,1,135.81,8.56,151.36,11.11.07-12,.14-25.74.21-40.47Zm121.49,38.18a1.85,1.85,0,0,1-3.69,0V376.93a1.85,1.85,0,0,1,3.69,0ZM420.39,267c-.05,12.75-.11,26.13-.15,39.55,14.45.42,131.67,3.92,151.69,5.42,0-14.08.08-28.13.1-41.57Zm122.79,37.25a1.85,1.85,0,0,1-3.69,0v-29.1a1.85,1.85,0,0,1,3.69,0ZM572,219.57c-19.56.1-135.35.63-151.41-.22-.06,11.49-.12,24.83-.19,39.15,10,0,134.43.56,151.61,1.6C572.05,245.37,572.05,231.59,572,219.57Zm-29,33a1.85,1.85,0,0,1-3.69,0V225.88a1.85,1.85,0,0,1,3.69,0ZM420.18,405.69c.09,20.61.3,34.06.68,34.44,1.66,1.66,149.82,15.81,150.23,13.31.1-.56.23-14.71.37-36.36Zm120.56,39.54a1.85,1.85,0,0,1-3.69,0V423.45a1.85,1.85,0,0,1,3.69,0Zm30.77-270.62c-1.25-2.5-151.07,1.25-150.65,5,0,0-.09,13-.2,33.27,14.64-.23,134.41-2.11,151.35-1.42C571.94,189.52,571.79,175.17,571.51,174.61ZM543,206.19a1.85,1.85,0,0,1-3.69,0V180.4a1.85,1.85,0,0,1,3.69,0Z"/><path class="cls-13" d="M423.77,181.27s-1.25,28.71,0,29.13,30.38-.42,30.8-1.25.83-29.55-.42-30S424.18,180.43,423.77,181.27Zm-.42,41.61s-.83,32.47.42,32.88,30.38.83,30.8,0,1.24-32.46,0-32.88S423.77,222.05,423.35,222.88Zm-.41,47s-1.25,34.13,0,34.54,31.21,1.25,31.63.42,1.24-33.71,0-34.13S423.35,269.08,422.94,269.91Zm0,46.61s-1.25,32.05,0,32.46,31.21,1.67,31.63.84.83-32.05-.42-32.47S423.35,315.69,422.94,316.52Zm0,46.61s-1.25,32.05,0,32.46,31.21,2.5,31.63,1.67.41-32.05-.84-32.46S423.35,362.3,422.94,363.13Zm0,45.78s-1.25,29.13,0,29.55,30.38,3.33,30.79,2.5,1.25-30,0-30.38S423.35,408.08,422.94,408.91ZM503,183c-11.68-.46-23.42-.51-35.09.12-3.09.17-3.14,4.85,0,4.85,11.71,0,23.39,0,35.09.42C506.46,188.52,506.45,183.15,503,183ZM480,193.51a58.09,58.09,0,0,0-12.7.72c-2.52.45-1.61,3.9.56,4.13a56,56,0,0,0,12.14-.23C482.93,197.79,483.08,193.65,480,193.51Zm41,.39c-10.9.43-21.8.38-32.71.58-2.91.05-2.86,4.29,0,4.48,10.87.73,21.82.62,32.71.38C524.54,199.26,524.54,193.76,521,193.9Zm.3,33.79c-9.07-1.06-18.52-.27-27.62,0-4.53.12-9.07.25-13.61.28-2.2,0-4.39,0-6.59,0s-4.57-.5-6.48.61a1.44,1.44,0,0,0-.29,2.25c1.61,1.28,3.53,1.29,5.53,1.44,2.33.17,4.67.27,7,.36,4.67.17,9.34.19,14,.18s9.07-.05,13.61,0c4.81.05,9.62.43,14.42.47C525,233.24,524.79,228.08,521.34,227.69Zm-31.87,13.47a101.39,101.39,0,0,0-20.53-.79c-3.1.14-3.14,4.87,0,4.85,6.65-.05,13.21.6,19.83,1.08C491.67,246.52,492.39,241.63,489.47,241.16Zm26.68,37.45c-4.11-.4-8.33-.27-12.47-.37s-8.31-.21-12.46-.29l-12.47-.24a110.37,110.37,0,0,0-12.47,0c-2.26.21-3.25,3.92-.59,4.33a104,104,0,0,0,12.23.77l12.88.51c4.16.16,8.31.29,12.47.43s8.61.54,12.88.38C519.76,284,519.65,278.94,516.15,278.61Zm15.4,1a36.3,36.3,0,0,0-6.51,0c-3.22.19-3.28,5.07,0,5.05,2.18,0,4.34.22,6.51.24a2.66,2.66,0,0,0,0-5.31ZM505.2,291.3q-9.46.19-18.94.17c-6.28,0-12.69-.5-18.94,0-2.18.17-3.05,3.73-.56,4.11,6.25,1,12.77.86,19.08,1q9.69.24,19.36.23C508.75,296.81,508.75,291.23,505.2,291.3Zm7.14,35.09c-7.64-.69-15.41-.3-23.07-.35s-15.33-.33-23-1.07c-2.6-.25-3.23,4.16-.62,4.61a156.48,156.48,0,0,0,23.19,1.83c7.82.15,15.66.43,23.48.46C515.92,331.88,515.8,326.7,512.34,326.39Zm-26.67,46.19a71.36,71.36,0,0,0-19.69-.53c-3,.32-3.15,4.69,0,4.8,6.11.22,12.16-.14,18.21,1.09C487.7,378.65,489.16,373.21,485.67,372.58Zm43.08,3.07c-5.65-.83-11.44-1-17.13-1.42s-11.48-.64-17.22-.84c-3.25-.11-3.19,4.79,0,5,5.6.38,11.21.82,16.81,1.27s11.19,1.25,16.79,1.5C531.1,381.31,531.92,376.12,528.75,375.65Zm-28,11.53c-5.35-.66-10.78-.86-16.15-1.34s-10.74-1.06-16.12-1.57c-2.51-.24-3.13,4.07-.6,4.44,5.42.81,10.87,1.45,16.31,2.06s11,1.41,16.56,1.6C504.18,392.49,504,387.58,500.76,387.18Zm14.47,35a31.15,31.15,0,0,0-6.41-.7l-5.72-.39-12.66-.89q-6.12-.43-12.25-.9c-4.16-.31-8.47-.9-12.65-.71-2.2.1-2.88,3.47-.54,4a95.92,95.92,0,0,0,12,1.48l12.65,1.21,12.26,1.13L508,427a31.94,31.94,0,0,0,6.54.35C517.28,426.93,518.28,423.07,515.23,422.18Zm-31,9c-6-.62-12.07-.93-18.07-1.07-3.06-.07-2.85,4.24,0,4.62,6,.78,12.06,1.4,18.07,1.71C487.62,436.62,487.49,431.53,484.19,431.19Zm40.38,4.14c-2.55-.77-5.49-.67-8.14-.89s-5.23-.45-7.84-.64c-5.37-.4-10.74-.7-16.11-1.11-3.13-.24-3.06,4.54,0,4.85,5.24.53,10.46,1.16,15.69,1.7,2.48.25,5,.48,7.44.71,2.65.24,5.61.9,8.25.59C526.7,440.21,527.62,436.26,524.57,435.33Z"/><path class="cls-17" d="M438.45,184.62c-.47.23-10.48,11.61-11.23,12.73s-.38,4.12-.38,4.12,11.24,6,12.36,6,11.61-13.11,12.36-13.85.75-4.5.75-4.5S439.2,184.24,438.45,184.62Z"/><path class="cls-13" d="M450.4,190c-3.51,3.61-8.3,8-11.1,12.17h0c-3.72-1.25-7.1-3.44-10.89-4.45-.62-.16-1.06.77-.45,1.07a110.58,110.58,0,0,0,10.38,4.78c0,.48-.08,1-.11,1.43a3.75,3.75,0,0,0,.06,1.42.67.67,0,0,0,1.28,0,4.5,4.5,0,0,0,.07-1.42q0-.72,0-1.44v0a.54.54,0,0,0,.11-.18c3.58-3.85,7.41-8.31,11.07-12.11C451.49,190.57,451.07,189.32,450.4,190Z"/><path class="cls-13" d="M435.42,190.84s8.74,3.33,8.74,3.74-2.91,3.75-3.33,3.75-9.15-3.33-8.74-4.16A25.05,25.05,0,0,1,435.42,190.84Z"/><path class="cls-17" d="M437.5,368.13c-.52.26-11.65,12.9-12.48,14.15s-.42,4.58-.42,4.58,12.49,6.65,13.73,6.65,12.91-14.56,13.74-15.39.83-5,.83-5S438.33,367.71,437.5,368.13Z"/><path class="cls-13" d="M450.78,374.12c-3.9,4-9.23,8.83-12.34,13.52h0c-4.13-1.39-7.89-3.82-12.11-4.94-.68-.18-1.17.85-.49,1.18a121.46,121.46,0,0,0,11.53,5.32q-.07.8-.12,1.59a3.94,3.94,0,0,0,.07,1.57.74.74,0,0,0,1.41,0,4.58,4.58,0,0,0,.09-1.57c0-.53,0-1.07,0-1.6v0a1.37,1.37,0,0,0,.13-.2c4-4.29,8.22-9.24,12.29-13.46C452,374.74,451.52,373.35,450.78,374.12Z"/><path class="cls-13" d="M434.13,375s9.71,3.7,9.71,4.16-3.23,4.17-3.7,4.17-10.17-3.7-9.71-4.63S434.13,375,434.13,375Z"/><path class="cls-17" d="M446.54,244.7q-.14-8.22-.43-16.44A.6.6,0,0,0,445,228a1.18,1.18,0,0,0-.27-.06l-2.79,0c0-1-.12-1.69-.27-1.69-.41,0-6.65-.83-7.07.42-.28.84,0,3.35.22,4.92l-.53,0a.74.74,0,0,0,0,1.47l1.74.07c0,.37,0,.74,0,1.11-1.63.19-2.95.65-3.11,1.57,0,0-1.66,14.14-.41,15.39s10,1.67,10.82.42,0-15.81-.42-16.65c-.12-.24-1-.48-2.12-.64v-1.17h1.39a.83.83,0,0,0,0-1.65h-.43a18,18,0,0,0,.17-1.94c.93,0,1.87,0,2.8.05l.2,0c0,5.1,0,10.19,0,15.3a1.27,1.27,0,0,0-.21.29,2.58,2.58,0,0,0-.05,1.58.68.68,0,0,0,.47.49.6.6,0,0,1,.08.08l.2.18c.41.36,1.23.28,1.34-.35S447.15,245.21,446.54,244.7Z"/><path class="cls-13" d="M431.72,246.84s6.61,1.43,7,.18.92-8.06-.33-8.48-7.08,0-7.08,0Z"/><path class="cls-17" d="M445,282.81c-.41-2.08-4.57-4.16-5-4.58-.18-.17-.13-.64,0-1.18.36,0,.72,0,1.08.06,1,.1,1.05-1.35.18-1.62,0-1.21-.08-3.59-.41-3.91s-5.83-.42-6.24.41a10,10,0,0,0-.08,3.46h0c-.81-.07-1,1.23-.2,1.41a8.48,8.48,0,0,0,1.11.16,2,2,0,0,1,0,1.21c-.42.84-4.58,2.09-5.41,3.75s-1.25,18.73,0,20,7.49.83,7.49.83,6.24,0,7.08-.83S445.41,284.89,445,282.81Z"/><path class="cls-13" d="M444.07,286c-.28-.8-2.24-.48-2.89-.51-1.71-.09-3.43-.16-5.15-.15a17.58,17.58,0,0,0-2,.09,1.85,1.85,0,0,0-1.06.28c-.83.83-1.24,7.9-.41,8.74.32.32,1.16.26,1.57.27,1,0,2,0,3-.06,1.54-.08,3.08-.2,4.61-.35.66-.06,2.3.16,2.36-.77a64.54,64.54,0,0,0,0-7.36A.57.57,0,0,0,444.07,286Z"/><path class="cls-17" d="M450.4,328.59c0-.2-.35-.37-.9-.51a.9.9,0,0,0-.07-.27c.84-.1.78-1.53-.19-1.62l-.47,0a3.86,3.86,0,0,0,0-2.7,1.6,1.6,0,0,0-1.54-.6c0-.41,0-.81-.07-1.21-.05-1-1.61-1-1.57,0l.06,1.42a1.65,1.65,0,0,0-1.36,1.28,3.63,3.63,0,0,0,0,1.64h-.35a.74.74,0,0,0,0,1.47H444v0h0a2.8,2.8,0,0,0,0,.4c-.8.13-1.38.35-1.48.67-.42,1.25-.84,15,0,15,0,0,5.41,1.25,7.07,0S450.4,329,450.4,328.59Zm-10.4,0c0-.2-.35-.37-.9-.51a.92.92,0,0,0-.08-.27c.84-.1.79-1.53-.18-1.62l-.48,0a3.81,3.81,0,0,0,0-2.7,1.6,1.6,0,0,0-1.53-.6c0-.41-.05-.81-.07-1.21-.06-1-1.61-1-1.57,0,0,.47,0,1,0,1.42a1.64,1.64,0,0,0-1.35,1.28,3.63,3.63,0,0,0,0,1.64h-.35a.74.74,0,0,0,0,1.47h.07v0h0c0,.14,0,.27,0,.4-.8.13-1.38.35-1.49.67-.41,1.25-.83,15,0,15,0,0,5.41,1.25,7.08,0S440,329,440,328.59Z"/><path class="cls-17" d="M430,339.64c-.2,0-.3.41-.33,1a1.15,1.15,0,0,0-.25.12c-.26-.8-1.65-.48-1.55.49,0,.16,0,.32,0,.48a3.74,3.74,0,0,0-2.65.47,1.6,1.6,0,0,0-.31,1.62l-1.17.29c-1,.25-.7,1.78.29,1.55l1.39-.33A1.63,1.63,0,0,0,427,346.4a3.49,3.49,0,0,0,1.62-.27c0,.11.05.23.08.34a.73.73,0,0,0,1.44-.28v-.07h.05l.4-.05c.28.76.6,1.29.93,1.33,1.31.18,14.87-2,14.72-2.83,0,0,.2-5.55-1.34-6.95S430.45,339.56,430,339.64Z"/><path class="cls-13" d="M443.56,335.7a8.64,8.64,0,0,0-2.41.18,2,2,0,0,0,.14-.64.77.77,0,0,0-.55-.74.5.5,0,0,1,0-.13,1.46,1.46,0,0,0-.13-.25c.8-.11.7-1.42-.19-1.53s-2.64-.44-3.19.58a4.49,4.49,0,0,0-.26,1.75,7.27,7.27,0,0,0,0,1.92c-2.11.43-4.24.83-6.29,1.45-.67.2-.58,1.36.17,1.28,2.9-.31,5.78-1,8.63-1.57,1.66-.33,4.09-1.28,5.53,0s1.27,3.42,1.29,5.13a.79.79,0,0,0,1.57,0C448.07,340.11,447.24,336,443.56,335.7Z"/><path class="cls-13" d="M442.91,340.68c-.67-.61-1.61-.35-2.42-.22a23,23,0,0,0-4.22,1.09.8.8,0,0,0-.55,1c.59,1.63,1.16,3.5-.28,4.86-.5.48.16,1.37.75,1a3.43,3.43,0,0,0,1.32-1.61.76.76,0,0,0,1.45-.08.81.81,0,0,0,.85,0,.69.69,0,0,0,.39.23c.17.68,1.33.61,1.61-.09,0-.11.08-.23.13-.35l0,0a.76.76,0,0,0,1.19-.22C444,344.69,444.36,342,442.91,340.68Zm8.47-8.2.05,0c.59-.28.13-1-.42-1-.82.11-2.35.12-2.82.95a3.92,3.92,0,0,0-.15,1.74c0,1,0,1.95,0,2.92s-.4,3,.36,3.78,2.06.12,2.78-.27.22-1.66-.58-1.48a24.45,24.45,0,0,0,.69-5.24A.79.79,0,0,0,451.38,332.48Z"/><path class="cls-17" d="M446.33,413.46c-1.77-1.34-5.31-1.4-7.46-1.52-1.49-.09-3-.08-4.49-.05a9.43,9.43,0,0,0-3.19.23c-1.95.79-1.51,4.28-1.32,5.91a.75.75,0,0,0,.84.67.87.87,0,0,0,.31.11l.25,0c.07,2.36.48,16,1.24,17.12s8.74,1.67,9.57.84,2.32-13.14,2.53-17.11l1.08,0a.74.74,0,0,0,.55-.19.65.65,0,0,0,.81-.58C447.29,417.3,447.87,414.63,446.33,413.46Zm-.81,4.61-.89,0a10.39,10.39,0,0,0,.09-2.16.73.73,0,0,0-1.45,0,18.48,18.48,0,0,1-.12,2.1l-.86,0c.08-.74.1-1.49.14-2.24.05-1-1.47-1-1.55,0-.05.72-.15,1.45-.16,2.17l-2.44-.13a20.19,20.19,0,0,0,.11-2.33.76.76,0,0,0-1.52,0c0,.75-.12,1.5-.17,2.24l-.91,0c.12-.74,0-1.51.15-2.26s-1.37-1-1.5-.2a6.58,6.58,0,0,0-.1,2.38l-.76,0c0-.81,0-1.63,0-2.44s-1.37-.92-1.45,0a17.16,17.16,0,0,0-.09,2.38l-.8,0a16.23,16.23,0,0,1,.08-2.09c.13-1.22.31-1.52,1.54-1.72a26.3,26.3,0,0,1,4.86,0,28.7,28.7,0,0,1,5.31.6c.47.11,1.77.22,2.14.6C445.88,415.42,445.68,417,445.52,418.07Z"/><path class="cls-13" d="M431.05,421.19s10.82,0,10.82.83-.83,8.33-1.25,8.74-10-.42-10-.42Z"/><path class="cls-4" d="M161.18,482.4c29-5.57,36.6-11.49,25-18.55-8.36-5.08-54.1-3.51-65.62-3-8.69,8.88-14.79,16.3-13.65,17.83,8.42,1.07,25.22,2.16,37.9,2.89Z"/><path class="cls-7" d="M106.77,390.4c.21.62-13.27,73.17-12,74.62s3.52,1.25,5,.42,16.38-73.79,16.38-73.79Zm36.48-.41c.21.62,8.08,69.23,9.33,70.68s3.52,1.24,5,.41-4.77-71.51-4.77-71.51Z"/><path class="cls-8" d="M159.42,392.48s17,84.77,18.44,85,4.77-.62,5.6-1.66-12-85.81-12-85.81Zm-38.14-.63s-11.4,91-9.54,92.66,5.81,1.65,6.22,0,14.3-92.66,14.3-92.66Z"/><path class="cls-7" d="M190.51,377.86c0-5.21-23.71-9.43-53-9.43s-53,4.22-53,9.43c0,1.53.62,6.85.62,8.29,0,5.21,23.71,9.43,53,9.43s53-4.22,53-9.43C191.13,384.62,190.51,379.31,190.51,377.86Z"/><ellipse class="cls-8" cx="137.55" cy="377.86" rx="52.96" ry="9.43"/><path class="cls-17" d="M112.84,374.11a2.82,2.82,0,0,1-.35-1.43c-.32-2.78-.59-5.57-.74-8.36a41.87,41.87,0,0,1,0-4.19,4.76,4.76,0,0,1,.5-2.45c1.42-1.89,7.56-1.89,8,.48a11.88,11.88,0,0,1,.17,2.07c.11,3,0,6,0,8.94l-.09,3.73a6.5,6.5,0,0,1,0,1.25c-.31,1-2.08,1.25-2.94,1.28a9.94,9.94,0,0,1-2.31-.15,4.53,4.53,0,0,1-1.78-.79A1.57,1.57,0,0,1,112.84,374.11Z"/><path class="cls-3" d="M120.43,361.23c-1.64,0-6.66.08-7.05.47s0,9.45,1,9.45c.69,0,4.2-.25,6-.39C120.4,368,120.48,364,120.43,361.23Z"/><path class="cls-4" d="M120,363.15a23.8,23.8,0,0,1-3.16,0c-.53,0-.52.78,0,.83a15.88,15.88,0,0,0,3.16,0C120.55,364,120.56,363.11,120,363.15Zm.44,2.32a43,43,0,0,0-4.83.32c-.48,0-.5.78,0,.77a45.72,45.72,0,0,0,4.82-.14C120.42,366.1,120.43,365.78,120.43,365.47Z"/><path class="cls-29" d="M119.4,367.22l-1.37,0a.42.42,0,0,0,0,.84c.46,0,.91,0,1.37,0A.45.45,0,0,0,119.4,367.22Z"/><path class="cls-12" d="M128.38,350.07a.46.46,0,0,0-.44-.45.37.37,0,0,0-.27-.15,5.91,5.91,0,0,0-2.14.06.79.79,0,0,0-.54.54c-3.34-.19-14.75-.76-15.16.05s-.47.95.48,1.42,4.72-.47,4.72-.47h.35v.78a2.52,2.52,0,0,0-1.29.62c-.54.55-.32,1.6-.17,2.26s.29,1.93,1.06,2.28a2.05,2.05,0,0,0,.78.16,6.33,6.33,0,0,0,1.79-.12c.55-.12.43-1,.48-1.37a14.36,14.36,0,0,0,0-1.61,3.77,3.77,0,0,0-.21-1.6,1.64,1.64,0,0,0-1.34-.68c0-.23,0-.45,0-.68,2.25.09,6.51.22,8.42.12a.73.73,0,0,0,.71.57c.77.08,1.55.1,2.32.15a.48.48,0,0,0,.47-.47C128.43,351,128.41,350.54,128.38,350.07Z"/><path class="cls-30" d="M118.72,379.78s-1.67-14.57-.42-15.81c.59-.6,37.45-4.58,37.45-4.58s22.46,3.92,22.89,4.58c.84,1.24-.41,16.23-.41,16.23l-33.3,5.41Z"/><path class="cls-31" d="M178.64,364c-.42-.64-16,3.47-32,4.77l-.08,0c-9.24-1.9-16.95-3.8-26.35-4.68a.61.61,0,0,0-.16,1.19c8.86,1.74,16.14,3.08,25,4.86-.15,4-.43,12.47-.16,15.71l33.34-5.6S179.48,365.21,178.64,364Z"/><path class="cls-31" d="M159.92,361.88c-3.27.92-6.81.53-10.19.88a67.83,67.83,0,0,0-9.37,2c-.89.22-.39.78.53.75,6.31-.19,13.32-.36,19.34-2.41C161.59,362.67,161.33,361.49,159.92,361.88Z"/><path class="cls-17" d="M157.43,363.94a8.88,8.88,0,0,0-.16-1.19h0c0-.18-.08-.36-.13-.54v0c0-.18-.1-.36-.16-.54v0h0a5.26,5.26,0,0,0-1.39-2.33,22.51,22.51,0,0,1-2.64-1.88c-1.11-1.2-1.21-3-1.89-4.5a7.7,7.7,0,0,0-5.11-4,15.36,15.36,0,0,0-6.68,0c-.65.12-1.44.41-1.52,1.07s.61,1.11,1.19,1.44a16.18,16.18,0,0,1,3.5,2.66,4.38,4.38,0,0,1,1.49,2.64c.08,1.2-.7,2.26-1.23,3.34a5,5,0,0,0,.26,3.49h0c.07.19.14.37.22.54v0l.24.5v0c.06.1.11.2.17.29h0a4.48,4.48,0,0,0,.38.58A68.21,68.21,0,0,0,157.43,363.94Z"/><path class="cls-5" d="M147.52,359.94c-.52-2.12-.41-3.91-1.44-5.93-.22-.45-1-.13-.81.34,1,2.37.37,5,1.4,7.3a18.14,18.14,0,0,0,2.78,3.5c.6,0,1.21-.11,1.81-.18C149.71,363.41,147.84,361.22,147.52,359.94Z"/><path class="cls-32" d="M108.61,380c0,.41,3.07,3.36,12.33,2.28s12.56-1.54,15.21-3.59,3.37-3,2.84-3.75-7.59-.21-8.35.32-3.43,4-5.38,5.16-7.4-3.39-8.4-4.51S108.55,379.62,108.61,380Z"/><path class="cls-33" d="M130.11,375.3a30.62,30.62,0,0,1-4.44,4.45,10.52,10.52,0,0,1-6.73,2,.26.26,0,0,0-.07.52c5,.92,9-2.78,11.88-6.45C131.07,375.37,130.45,374.93,130.11,375.3Zm-17.36,3.37c-.39,0-.4.69,0,.7.2,0,.47,0,.52.18s-.25.55-.41.66c-.36.26-1.79.41-1.46-.39a.26.26,0,0,0-.47-.2,1,1,0,0,0,.4,1.29,1.85,1.85,0,0,0,1.82-.06,1.64,1.64,0,0,0,.85-1.51C113.93,378.71,113.27,378.63,112.75,378.67Zm5-.92c-.18-.64-1.12-.73-1.66-.67a.33.33,0,0,0,0,.64,2.33,2.33,0,0,1,.88.15c.33.22-.11.65-.32.8-.48.33-2.1.24-1.64-.68.11-.22-.24-.42-.36-.21a1,1,0,0,0,.37,1.41,1.86,1.86,0,0,0,1.89.06C117.43,379,118,378.36,117.78,377.75Zm-1.17,2.82a.31.31,0,0,0,.08.62c.11,0,.92,0,.92,0a.25.25,0,0,0-.28.18.91.91,0,0,1-.37.18,2.75,2.75,0,0,1-.9.08l-.39,0c-.21,0-.33-.08-.33-.34.26-.16.08-.6-.19-.45s-.75.64-.34,1a2.92,2.92,0,0,0,2.19.33c.53-.11,1.3-.52,1.26-1.16S117.06,380.45,116.61,380.57Z"/><path class="cls-33" d="M119.71,379a.32.32,0,0,0-.08.6c.39.14,1.33.29.48.73a1.4,1.4,0,0,1-.88.1,3,3,0,0,1-.43-.11c-.16-.06-.83-.36-.35-.67.15-.1,0-.32-.16-.26a.68.68,0,0,0-.15,1.17,2.31,2.31,0,0,0,1.93.48c.53-.13,1.19-.65,1.12-1.27S120.19,379,119.71,379Zm12.56-3.24a.31.31,0,0,0,0,.61,2.42,2.42,0,0,1,.66.13c.33.22.2.54,0,.78a2.15,2.15,0,0,1-1.31.7c-.58.1-1.34,0-.8-.76a2.6,2.6,0,0,1,1-.83c.22-.09.07-.4-.15-.33a1.84,1.84,0,0,0-1.36,1.74c0,.73,1.11.76,1.65.68a2.09,2.09,0,0,0,1.79-1.46C134,376.12,133.08,375.66,132.27,375.8Zm3.2.22a2,2,0,0,0-1.2,1,.21.21,0,0,0,.32.24,5.3,5.3,0,0,1,1.1-.71C136,376.41,135.81,375.9,135.47,376Z"/><path class="cls-33" d="M137.56,376.23a1,1,0,0,0-1-.34c-.35,0-.36.63,0,.64s.53,0,.23.29a3.14,3.14,0,0,1-.51.39,3.3,3.3,0,0,1-1.36.47c-.28,0-.21.42,0,.41a3.36,3.36,0,0,0,2.51-1A.66.66,0,0,0,137.56,376.23ZM130,379.29c-.65.11-2.52.52-2.06,1.56a.21.21,0,0,0,.38-.17c-.17-.49,1-.67,1.3-.72l.37-.07c.23-.06.25,0,.06.08s-.19.15-.26.33a.23.23,0,0,0,.18.32c.43.08.86-.41.86-.83S130.43,379.22,130,379.29Zm2.84-.2c-.48.12-1.53.46-1.23,1.14a.27.27,0,0,0,.5-.21s1.5-.58,1.55-.38.59.37.61,0C134.34,378.84,133.41,379,132.88,379.09Z"/><path class="cls-17" d="M205.8,465.63a4.09,4.09,0,0,1-1.36-.79,3.92,3.92,0,0,1-.48-2,4.47,4.47,0,0,0-3.27-3.28,11.6,11.6,0,0,0-4.84-.11c-1.21.15-2.56.43-3.19,1.47-1.11,1.84,1,4,.87,6.19a5.21,5.21,0,0,1-3.12-1.22,9.93,9.93,0,0,0-1.3-1.13,1.51,1.51,0,0,0-1.62-.09,2,2,0,0,0-.64,1.52c-.31,3.54,1.38,8.25,5.13,9.38a17,17,0,0,0,5.08.22c1,0,2.37.17,3.25-.4s1.09-1.35,2.39-1.73a6.81,6.81,0,0,0,4.32-3.2C207.84,468.83,207.42,466.5,205.8,465.63Z"/><path class="cls-5" d="M200.06,469.15c-1.88,1.14-3.09,4.47-5.61,3.91a3.72,3.72,0,0,1-2.56-2.3c-.44-.87-1.16-1.26-1.68-2.05a.71.71,0,0,0-1.23.72,5.25,5.25,0,0,0,1,1.09,12.56,12.56,0,0,1,1.2,2.06,5.22,5.22,0,0,0,2.92,1.87c3.34,1,4.38-2.64,6.66-4.17C201.41,469.82,200.78,468.71,200.06,469.15Zm-3.16-6.21a.71.71,0,0,0-1.36-.38c-.39,1.09.45,1.91.2,2.94a7.73,7.73,0,0,0-.19.8.82.82,0,0,0,0,.32s0,0-.14,0a5.6,5.6,0,0,1-2-.33c-.83-.17-1.19,1.08-.35,1.28,1.05.26,3,1.05,3.68-.25a7.34,7.34,0,0,0,.57-2.22C197.4,464.3,196.78,463.73,196.9,462.94Z"/><path class="cls-5" d="M146.7,456.47a4.12,4.12,0,0,1-1.35-.78c-.45-.53-.37-1.3-.49-2a4.5,4.5,0,0,0-3.26-3.28,11.81,11.81,0,0,0-4.85-.11c-1.2.15-2.56.44-3.19,1.48-1.11,1.83,1,4,.88,6.18a5.1,5.1,0,0,1-3.12-1.22,11.47,11.47,0,0,0-1.3-1.12,1.54,1.54,0,0,0-1.62-.1,2,2,0,0,0-.65,1.52c-.3,3.55,1.38,8.25,5.14,9.38a16.89,16.89,0,0,0,5.07.23c1,0,2.37.16,3.25-.41s1.1-1.35,2.39-1.73a6.78,6.78,0,0,0,4.32-3.2A3.72,3.72,0,0,0,146.7,456.47Z"/><path class="cls-6" d="M141,460c-1.87,1.14-3.09,4.47-5.61,3.9a3.7,3.7,0,0,1-2.55-2.3c-.45-.86-1.17-1.26-1.68-2.05a.72.72,0,0,0-1.24.72,6,6,0,0,0,1,1.1,13.66,13.66,0,0,1,1.2,2.06,5.17,5.17,0,0,0,2.92,1.86c3.33,1,4.38-2.63,6.65-4.16C142.31,460.66,141.69,459.55,141,460Zm-3.16-6.22a.71.71,0,0,0-1.36-.38c-.38,1.09.45,1.92.2,3-.06.26-.15.53-.19.8a1.16,1.16,0,0,0,0,.32s-.05,0-.14,0a5.85,5.85,0,0,1-2-.32c-.83-.17-1.19,1.07-.35,1.28,1.05.25,3.05,1.05,3.69-.25a7.77,7.77,0,0,0,.56-2.23C138.31,455.14,137.69,454.57,137.8,453.78Z"/><path class="cls-17" d="M106.8,376.46a1.39,1.39,0,0,0-1-.63,8.46,8.46,0,0,0,.66-1.31,1.12,1.12,0,0,0-.66-1.67,17.25,17.25,0,0,0-3.25-1.38,27.08,27.08,0,0,0-.07-3.12,1.63,1.63,0,0,0-.32-1,1.67,1.67,0,0,0-1.42-.31c-1.2.1-2.4.23-3.59.38a7.58,7.58,0,0,0-3,.84.82.82,0,0,0-.43.5,1,1,0,0,0,0,.39c.2.68.39,1.36.59,2a7.21,7.21,0,0,0-3.8.68,2.11,2.11,0,0,0-1.39,2.2,4.59,4.59,0,0,0,.19,1.61,5.85,5.85,0,0,0,1.31,1.93,7.54,7.54,0,0,0,1.59,1.45,3.2,3.2,0,0,0,1.45.54h-.43a9.61,9.61,0,0,0,3.21.2,4.76,4.76,0,0,0,1.6-.27,5.94,5.94,0,0,0,1-.61c.41-.28.85-.55,1.29-.79a1.51,1.51,0,0,1,1-.24,1.7,1.7,0,0,1,.57.32,15.7,15.7,0,0,0,2.59,1.6,10.4,10.4,0,0,0,2-2.08A1.34,1.34,0,0,0,106.8,376.46Z"/><path class="cls-5" d="M102.32,377.22a3.56,3.56,0,0,0-3.15-.9c-.72.14-1.31.57-2,.77a4.45,4.45,0,0,1-1.7.22c-.89-.12-1.45-.09-.88-1.21,1-1.94,3.86-1.92,5.59-3,.91-.56.63-1.13.29-2.06-.27-.74-1.43-.45-1.2.33.32,1.08-1.45,1.2-2.26,1.53A15.66,15.66,0,0,0,94.64,374a3,3,0,0,0-1.74,3.34c.34,1.49,1.58,1.44,2.86,1.36a7.66,7.66,0,0,0,2.08-.27c.7-.24,1.18-.72,2-.74a3.43,3.43,0,0,1,1.74.57C102.17,378.58,102.87,377.74,102.32,377.22Z"/><path class="cls-17" d="M73.47,446a1.39,1.39,0,0,0-1-.63,8.46,8.46,0,0,0,.66-1.31,1.12,1.12,0,0,0-.66-1.67A17.82,17.82,0,0,0,69.21,441a27.08,27.08,0,0,0-.07-3.12,1.63,1.63,0,0,0-.32-1,1.67,1.67,0,0,0-1.42-.31c-1.2.1-2.4.23-3.6.38a7.54,7.54,0,0,0-3,.84.82.82,0,0,0-.43.5.88.88,0,0,0,0,.39l.59,2a7.21,7.21,0,0,0-3.8.68,2.5,2.5,0,0,0-1,.75,2.59,2.59,0,0,0-.39,1.45,4.59,4.59,0,0,0,.19,1.61,5.85,5.85,0,0,0,1.31,1.93,8,8,0,0,0,1.58,1.45,3.29,3.29,0,0,0,1.46.54H59.9a9.87,9.87,0,0,0,3.21.2,4.8,4.8,0,0,0,1.6-.27,5.86,5.86,0,0,0,1-.61c.42-.28.85-.55,1.3-.79a1.51,1.51,0,0,1,1-.24,1.7,1.7,0,0,1,.57.32,15,15,0,0,0,2.59,1.59,10.09,10.09,0,0,0,2-2.07A1.34,1.34,0,0,0,73.47,446Z"/><path class="cls-5" d="M69,446.79a3.56,3.56,0,0,0-3.15-.9c-.72.14-1.31.57-2,.77a4.48,4.48,0,0,1-1.7.22c-.89-.12-1.45-.09-.88-1.21,1-1.94,3.86-1.92,5.59-3,.91-.56.63-1.13.29-2.06-.27-.74-1.43-.45-1.2.33.32,1.08-1.45,1.2-2.26,1.53a15.66,15.66,0,0,0-2.36,1.07,3,3,0,0,0-1.74,3.34c.33,1.49,1.58,1.44,2.86,1.36a7.66,7.66,0,0,0,2.08-.27c.7-.24,1.18-.72,2-.74a3.36,3.36,0,0,1,1.73.57C68.84,448.15,69.54,447.31,69,446.79Z"/><path class="cls-34" d="M434.39,83.45h-.21l0-.53q0-.2-.12-.18a.13.13,0,0,0-.12.08.56.56,0,0,0,0,.23v.42l-.2,0,0-1.26.21,0v.26a1,1,0,0,1,0,.14v.08h0a.22.22,0,0,1,.21-.14.2.2,0,0,1,.2.07.38.38,0,0,1,.06.24v.59Z"/><path class="cls-34" d="M435.33,83.39a.29.29,0,0,1-.27-.1A.41.41,0,0,1,435,83a.57.57,0,0,1,.1-.36.33.33,0,0,1,.26-.14.25.25,0,0,1,.24.09.45.45,0,0,1,.08.3V83l-.48,0a.25.25,0,0,0,.05.16.14.14,0,0,0,.13,0l.12,0a.31.31,0,0,0,.13-.06v.19l-.12.06-.15,0Zm0-.76a.21.21,0,0,0-.1.06.33.33,0,0,0,0,.15l.28,0a.24.24,0,0,0,0-.14A.14.14,0,0,0,435.32,82.63Z"/><path class="cls-34" d="M436.68,83.28l0-.12h0a.68.68,0,0,1-.11.12l-.14,0a.24.24,0,0,1-.17-.06.28.28,0,0,1-.05-.21.31.31,0,0,1,.08-.22.44.44,0,0,1,.25-.09l.13,0v0c0-.09,0-.13-.11-.13a.56.56,0,0,0-.21.08l-.06-.16a.56.56,0,0,1,.28-.1.27.27,0,0,1,.23.06.29.29,0,0,1,.07.24v.6Zm-.05-.41h-.08a.22.22,0,0,0-.13,0,.17.17,0,0,0-.05.12c0,.06,0,.1.1.09a.14.14,0,0,0,.11-.06.22.22,0,0,0,.05-.13v-.07Z"/><path class="cls-34" d="M437.63,83.21l-.2,0,0-1.26.21,0Z"/><path class="cls-34" d="M438.57,83l.13,0v.18a.35.35,0,0,1-.18,0,.18.18,0,0,1-.18-.06.42.42,0,0,1-.05-.22v-.43h-.09v-.1l.11-.09.06-.2h.13v.2l.21,0v.19h-.21v.44a.12.12,0,0,0,0,.07.08.08,0,0,0,.07,0Z"/><path class="cls-34" d="M439.93,83l-.2,0v-.53c0-.13,0-.19-.11-.19a.17.17,0,0,0-.13.08.63.63,0,0,0,0,.23v.43h-.2l0-1.26h.2v.47h0a.27.27,0,0,1,.22-.15.24.24,0,0,1,.19.07.36.36,0,0,1,.07.24l0,.59Z"/><path class="cls-34" d="M440.84,83c-.23,0-.34-.13-.33-.44a.58.58,0,0,1,.1-.35.37.37,0,0,1,.28-.15.4.4,0,0,1,.22,0l-.06.19-.09,0h-.08c-.11,0-.16.11-.16.29s0,.26.15.25l.11,0,.1-.07v.21a.27.27,0,0,1-.1.06l-.13,0Z"/><path class="cls-34" d="M442.12,82.88l0-.12h0a.33.33,0,0,1-.11.12.29.29,0,0,1-.14,0,.18.18,0,0,1-.17-.06.28.28,0,0,1-.05-.21.31.31,0,0,1,.08-.22.44.44,0,0,1,.25-.09h.13v0c0-.1,0-.14-.11-.13a.43.43,0,0,0-.21.08l-.06-.16A.61.61,0,0,1,442,82a.3.3,0,0,1,.23.07.27.27,0,0,1,.07.23v.6l-.14,0Zm-.05-.41H442a.22.22,0,0,0-.13,0,.13.13,0,0,0-.05.11c0,.07,0,.1.1.1a.24.24,0,0,0,.11-.06.29.29,0,0,0,.05-.14v-.07Z"/><path class="cls-34" d="M443.31,81.88h.07l0,.23h-.06a.22.22,0,0,0-.16.07.29.29,0,0,0-.05.17l0,.46-.2,0,0-.91h.16l0,.15h0a.64.64,0,0,1,.1-.13.21.21,0,0,1,.13-.05Z"/><path class="cls-34" d="M444.23,82.75a.34.34,0,0,1-.28-.1.55.55,0,0,1-.09-.34A.64.64,0,0,1,444,82a.38.38,0,0,1,.26-.14.24.24,0,0,1,.24.09.4.4,0,0,1,.08.3v.12l-.48,0a.23.23,0,0,0,.05.16.13.13,0,0,0,.13,0l.13,0,.13-.07v.19a.24.24,0,0,1-.11.06l-.15,0Zm0-.76a.12.12,0,0,0-.1.05.33.33,0,0,0-.05.15l.29,0a.26.26,0,0,0,0-.14A.1.1,0,0,0,444.22,82Z"/><path class="cls-34" d="M446.33,82.58l0-.12h0a.38.38,0,0,1-.11.11.26.26,0,0,1-.14.05.18.18,0,0,1-.16-.07.28.28,0,0,1-.06-.2.27.27,0,0,1,.09-.22.48.48,0,0,1,.25-.1h.13v0c0-.09,0-.14-.12-.13a.51.51,0,0,0-.21.08l-.06-.16a.51.51,0,0,1,.29-.1.25.25,0,0,1,.22.06.28.28,0,0,1,.08.23l0,.61Zm-.05-.42h-.08a.22.22,0,0,0-.13,0,.14.14,0,0,0,0,.11c0,.07,0,.1.09.1a.11.11,0,0,0,.11-.06.19.19,0,0,0,0-.13v-.08Z"/><path class="cls-34" d="M447.4,82.32a.38.38,0,0,0,.13,0v.19a.59.59,0,0,1-.19,0,.18.18,0,0,1-.18-.06.42.42,0,0,1-.05-.22l0-.44H447V81.7l.11-.09.07-.19h.13v.19h.21v.18l-.2,0v.43s0,.06,0,.08l.06,0Z"/><path class="cls-34" d="M449.27,81.65h-.18l0,.72h-.2l0-.72h-.11v-.12l.11-.07v-.07a.37.37,0,0,1,.06-.23.26.26,0,0,1,.2-.08.39.39,0,0,1,.19,0l-.06.18h-.11a.05.05,0,0,0-.06,0,.15.15,0,0,0,0,.08v0h.17v.19Z"/><path class="cls-34" d="M449.79,81.19a.12.12,0,0,1,.11-.13c.08,0,.11,0,.11.11a.12.12,0,0,1,0,.09.09.09,0,0,1-.08,0C449.82,81.31,449.79,81.27,449.79,81.19Zm.18,1.12-.2,0,0-.91h.2Z"/><path class="cls-34" d="M451.27,82.22h-.2V81.7a.2.2,0,0,0,0-.14.08.08,0,0,0-.09,0,.13.13,0,0,0-.12.07.62.62,0,0,0-.05.24v.42l-.2,0,0-.91h.16l0,.11h0a.32.32,0,0,1,.1-.1.29.29,0,0,1,.13,0,.22.22,0,0,1,.2.08.38.38,0,0,1,.06.24l0,.59Z"/><path class="cls-34" d="M452.55,81.22v.13l-.12,0a.28.28,0,0,1,0,.13.32.32,0,0,1-.09.24.33.33,0,0,1-.23.1h-.06s0,.05,0,.07,0,0,.11,0h.13a.21.21,0,0,1,.18.05.24.24,0,0,1,.06.18.31.31,0,0,1-.11.25.51.51,0,0,1-.32.11.32.32,0,0,1-.23,0,.22.22,0,0,1-.08-.18.22.22,0,0,1,.05-.14.27.27,0,0,1,.12-.09l-.05,0a.11.11,0,0,1,0-.08.19.19,0,0,1,0-.08l.08-.08a.13.13,0,0,1-.09-.09.35.35,0,0,1,0-.16.36.36,0,0,1,.08-.23.33.33,0,0,1,.23-.1h.13ZM452,82.29a.08.08,0,0,0,0,.08.12.12,0,0,0,.11,0,.29.29,0,0,0,.17,0,.11.11,0,0,0,.06-.1.08.08,0,0,0,0-.07h-.22a.1.1,0,0,0-.09,0,.09.09,0,0,0,0,.08Zm.09-.74a.37.37,0,0,0,0,.12.1.1,0,0,0,.09,0,.14.14,0,0,0,.08,0,.21.21,0,0,0,0-.12c0-.11,0-.16-.11-.16S452.05,81.44,452.05,81.55Z"/><path class="cls-34" d="M453.39,82.08a.32.32,0,0,1-.27-.1.45.45,0,0,1-.09-.34.54.54,0,0,1,.1-.35.34.34,0,0,1,.26-.15.28.28,0,0,1,.24.09.45.45,0,0,1,.08.3v.12l-.48,0a.23.23,0,0,0,0,.16.12.12,0,0,0,.13,0l.13,0,.12-.07V82l-.12,0a.57.57,0,0,1-.15,0Zm0-.76a.13.13,0,0,0-.11.06.26.26,0,0,0,0,.14l.28,0a.26.26,0,0,0,0-.14A.13.13,0,0,0,453.39,81.32Z"/><path class="cls-34" d="M454.7,81.05h.07l0,.23h-.06a.21.21,0,0,0-.15.07.24.24,0,0,0-.06.17V82l-.2,0,0-.91h.15l0,.15h0a.38.38,0,0,1,.09-.13.24.24,0,0,1,.13,0Z"/><path class="cls-34" d="M455.61,81.72a.24.24,0,0,0,.12,0v.19a.36.36,0,0,1-.19,0,.16.16,0,0,1-.17-.06.34.34,0,0,1-.05-.22V81.2h-.1v-.1l.12-.09.06-.2h.13V81h.21v.18l-.21,0v.44a.12.12,0,0,0,0,.07.07.07,0,0,0,.06,0Z"/><path class="cls-34" d="M456.3,80.71c0-.08,0-.12.12-.12s.11,0,.1.11a.12.12,0,0,1,0,.09s0,0-.08,0S456.3,80.8,456.3,80.71Zm.19,1.13h-.21l0-.9.2,0Z"/><path class="cls-34" d="M457.51,81.78a.2.2,0,0,1-.2-.1h0a1.09,1.09,0,0,0,0,.13v.37h-.21l0-1.3h.16l0,.11h0a.25.25,0,0,1,.21-.15.2.2,0,0,1,.2.11.64.64,0,0,1,.07.34,1.64,1.64,0,0,1,0,.25.36.36,0,0,1-.11.17.21.21,0,0,1-.15.07Zm0-.74a.14.14,0,0,0-.11.07.32.32,0,0,0,0,.19v0a.31.31,0,0,0,0,.21.09.09,0,0,0,.11,0c.09,0,.14-.1.14-.28a.49.49,0,0,0,0-.2.1.1,0,0,0-.1-.06Z"/><path class="cls-34" d="M458.89,81.39a.29.29,0,0,1-.08.22.43.43,0,0,1-.24.09h-.14l-.1,0v-.21l.13.05h.12c.07,0,.11,0,.11-.08a.07.07,0,0,0,0,0l-.05,0-.1,0a.35.35,0,0,1-.12-.07.24.24,0,0,1-.06-.08.41.41,0,0,1,0-.12.26.26,0,0,1,.08-.19.36.36,0,0,1,.22-.08.48.48,0,0,1,.26,0l-.07.19-.1,0-.1,0c-.06,0-.09,0-.09.07a.05.05,0,0,0,0,0l.12.07a.5.5,0,0,1,.13.07.22.22,0,0,1,.05.08.2.2,0,0,1,0,.11Z"/><path class="cls-22" d="M461.49,88.64a.52.52,0,0,0,.41-.52.4.4,0,0,0-.39-.46.52.52,0,0,0-.41.52A.4.4,0,0,0,461.49,88.64Z"/><path class="cls-22" d="M461.54,86.6a1.27,1.27,0,0,1,1.22,1.46l.41,0a1.69,1.69,0,0,0-1.62-1.93Z"/><path class="cls-22" d="M461.52,87.4a.61.61,0,0,1,.6.7l.41,0a1,1,0,0,0-1-1.17Z"/><path class="cls-35" d="M461.63,84.46c-1.63.12-3,1.84-3.05,3.83a3.14,3.14,0,0,0,2.28,3.38,7.93,7.93,0,0,1-3.59,4.21C453,98.28,450.15,97.12,445,95a73.21,73.21,0,0,0-13.91-4.41,11.07,11.07,0,0,0-3.94-.22l.07-2.73.67-.24a3,3,0,0,0,.78-.43,3.93,3.93,0,0,0,1.14-1.44l1.92-4.09a.34.34,0,0,0-.08-.43h0l-.41-.26-.12,0a.29.29,0,0,0-.23.18L428.94,85a2.32,2.32,0,0,1-1.25,1.22l-.43.15-.52.19-.51-.11-.43-.1a1.76,1.76,0,0,1-1.19-1l-1.73-3.83a.22.22,0,0,0-.35-.1l-.42.32,0,0a.38.38,0,0,0-.1.44L423.7,86a3,3,0,0,0,1.08,1.28,2.53,2.53,0,0,0,.76.31l.66.15-.07,2.89a5.28,5.28,0,0,0-3,7.85l.09.12a1.75,1.75,0,0,0,2.34.57A2.93,2.93,0,0,0,427,96.62l.13-5a10.22,10.22,0,0,1,3.71.19,72.63,72.63,0,0,1,13.77,4.37c3.41,1.39,5.94,2.42,8.59,2.22A10.51,10.51,0,0,0,457.63,97a9.15,9.15,0,0,0,4.32-5.4,3.92,3.92,0,0,0,2.54-3.75c.05-2-1.23-3.52-2.86-3.4ZM426,96.69a1.53,1.53,0,0,1-.76,1.34.9.9,0,0,1-1.22-.29.61.61,0,0,1-.07-.1,3.86,3.86,0,0,1,.36-4.52,4.19,4.19,0,0,1,1.81-1.19Zm36.25-6.49a1.55,1.55,0,0,1-.75.24,1.5,1.5,0,0,1-.3,0,2,2,0,0,1-1.57-2.22,2.46,2.46,0,0,1,2-2.51,2,2,0,0,1,1.87,2.23,2.7,2.7,0,0,1-1.24,2.26Z"/><path class="cls-22" d="M425.63,72.35a.79.79,0,0,1-.34.66.55.55,0,0,1-.33.09l-.19,0-.89-.09a.18.18,0,0,1-.15-.13,6.88,6.88,0,0,0-2.09,1.1,3,3,0,0,0-.86,3.36l1.74,4.18-.42.32-1.75-4.2a3.65,3.65,0,0,1,1.06-4.15,7.49,7.49,0,0,1,2.31-1.2v0a.27.27,0,0,1,.19-.27l1.08-.27h.08c.32,0,.57.27.56.67Z"/><path class="cls-22" d="M433.58,76.66l-2,4.46-.41-.26,2-4.44a2.63,2.63,0,0,0-.69-3.25,5.48,5.48,0,0,0-2-.8.25.25,0,0,1-.17.16l-.89.21-.19.05h-.08a.43.43,0,0,1-.25,0,.65.65,0,0,1-.31-.62.71.71,0,0,1,.68-.75l1.07.11a.23.23,0,0,1,.18.25v0a6.15,6.15,0,0,1,2.25.86,3.25,3.25,0,0,1,.86,4Z"/><path class="cls-22" d="M436.65,79a2.31,2.31,0,0,1-.41,1.36,1.38,1.38,0,0,1-1.06.55,1.07,1.07,0,0,1-1-.41,1.89,1.89,0,0,1-.35-1.29,2.21,2.21,0,0,1,.41-1.35,1.42,1.42,0,0,1,1.06-.55,1.19,1.19,0,0,1,.73.17,1.16,1.16,0,0,1,.49.59,2.59,2.59,0,0,1,.15.93Zm-1.85.14a1.93,1.93,0,0,0,.08.67.31.31,0,0,0,.33.21.37.37,0,0,0,.33-.25,2.36,2.36,0,0,0,.11-.69,1.93,1.93,0,0,0-.08-.67.29.29,0,0,0-.32-.2.36.36,0,0,0-.33.25,1.84,1.84,0,0,0-.12.68Z"/><path class="cls-22" d="M439.11,77.07a.74.74,0,0,1,.73.43,2.56,2.56,0,0,1,.24,1.29,3,3,0,0,1-.31,1.35,1,1,0,0,1-.77.54.89.89,0,0,1-.29,0,.67.67,0,0,1-.21-.09,1,1,0,0,1-.22-.23h-.06l-.16.35-.77.06.12-4.77,1-.08,0,1.08c0,.13,0,.36-.05.67h0a1.1,1.1,0,0,1,.33-.41.94.94,0,0,1,.43-.16Zm-.38,1a.34.34,0,0,0-.3.2,1.15,1.15,0,0,0-.11.56V79a1.5,1.5,0,0,0,.08.61.29.29,0,0,0,.31.16.31.31,0,0,0,.27-.23,1.78,1.78,0,0,0,.11-.65C439.09,78.29,439,78,438.73,78Z"/><path class="cls-22" d="M440.81,76.15a.61.61,0,0,1,.13-.41.55.55,0,0,1,.4-.16.47.47,0,0,1,.4.1.52.52,0,0,1,.11.39.51.51,0,0,1-.53.57C441,76.66,440.8,76.5,440.81,76.15Zm.9,4.27-1,.07.08-3.48,1-.07Z"/><path class="cls-35" d="M443.22,80.31l.11-4.49,1-.07-.09,3.51,1.42-.11,0,1-2.4.18Z"/><path class="cls-35" d="M448.13,80,448,79.5h0a1.37,1.37,0,0,1-.42.44,1.07,1.07,0,0,1-.53.15.7.7,0,0,1-.63-.24,1.23,1.23,0,0,1-.21-.82,1.16,1.16,0,0,1,.34-.85,1.66,1.66,0,0,1,.92-.37l.48,0v-.05c0-.29-.11-.42-.34-.4a1.92,1.92,0,0,0-.79.31l-.27-.77a2.48,2.48,0,0,1,1.26-.4,1,1,0,0,1,.84.27,1.18,1.18,0,0,1,.28.9l-.06,2.28-.68,0Zm-.7-.73a.47.47,0,0,0,.3-.16.55.55,0,0,0,.14-.37v-.27l-.23,0c-.32,0-.49.19-.5.47s.09.31.28.3Z"/><path class="cls-35" d="M451.43,76.18a.74.74,0,0,1,.73.42,2.58,2.58,0,0,1,.24,1.3,2.91,2.91,0,0,1-.31,1.34,1,1,0,0,1-.78.54.84.84,0,0,1-.28,0,.68.68,0,0,1-.21-.1,1,1,0,0,1-.22-.23h-.06l-.17.36-.76,0,.12-4.77,1-.07,0,1.08c0,.12,0,.35-.05.66h0a1.2,1.2,0,0,1,.34-.41.83.83,0,0,1,.43-.15Zm-.38,1a.34.34,0,0,0-.3.2,1.15,1.15,0,0,0-.11.56v.17a1.48,1.48,0,0,0,.08.6.28.28,0,0,0,.31.16.31.31,0,0,0,.27-.23,1.72,1.72,0,0,0,.11-.64C451.41,77.4,451.3,77.13,451.05,77.14Z"/><path class="cls-35" d="M455.52,79.41l-2.66.19,0-.79.92-1.18c.26-.34.44-.58.52-.7a2.08,2.08,0,0,0,.17-.32.87.87,0,0,0,.05-.28.35.35,0,0,0-.08-.27.32.32,0,0,0-.26-.08.7.7,0,0,0-.35.15,3.34,3.34,0,0,0-.41.38l-.53-.74a4,4,0,0,1,.49-.47,1.76,1.76,0,0,1,.42-.24,2.08,2.08,0,0,1,.52-.11,1.31,1.31,0,0,1,.63.11,1,1,0,0,1,.42.41,1.16,1.16,0,0,1,.14.62,2.43,2.43,0,0,1-.06.49,2,2,0,0,1-.18.46,3.79,3.79,0,0,1-.31.47c-.13.17-.41.49-.82,1v0l1.38-.1,0,1Z"/><path class="cls-35" d="M458.21,79.21l-.12-.42h0a1,1,0,0,1-.87.56.81.81,0,0,1-.73-.28,1.43,1.43,0,0,1-.23-.92l.05-2.26,1-.08,0,1.9a1.18,1.18,0,0,0,.06.51.24.24,0,0,0,.26.16.42.42,0,0,0,.37-.27,2.56,2.56,0,0,0,.12-.83l0-1.52,1-.08L459,79.16l-.74,0Z"/><path class="cls-36" d="M429.49,72.67,427,78.59,424.76,73l.19,0a.49.49,0,0,0,.35-.09L427,77.25,429,72.67a.36.36,0,0,0,.25.06h.09Z"/></svg>