<svg width="209" height="385" viewBox="0 0 209 385" fill="none" xmlns="http://www.w3.org/2000/svg">
<g opacity="0.13">
<path opacity="0.34" d="M14.8663 192.928C30.5623 177.232 38.4103 169.384 41.845 161.476C42.4641 160.052 46.844 149.568 44.0283 137.366C42.078 128.952 37.5649 123.428 28.7185 112.83C18.7337 100.915 17.6754 102.846 12.3635 95.4704C8.86219 90.6311 -2.09438 75.4011 1.23386 57.5884C2.99117 48.1096 8.09003 41.6461 12.3102 36.2877C16.0445 31.5549 21.9155 25.4243 32.6857 18.8943C56.9486 4.19012 82.6492 1.64734 93.4127 1.10151C111.317 0.224855 129.228 2.70835 146.219 8.42364C147.55 8.80305 160.956 12.7903 165.449 25.8436C167.251 31.2938 167.27 37.1764 165.502 42.6379C162.483 50.3297 158.471 57.5936 153.567 64.2449C144.415 76.6326 139.629 76.6658 138.071 82.8164C134.503 96.8283 157.648 103.451 165.622 128.746C172.279 149.894 159.964 157.529 168.032 173.171C178.529 193.534 204.702 190.831 207.971 204.51C209.648 211.506 205.521 223.568 173.876 244.802C163.705 252.177 157.109 252.47 152.828 251.085C142.651 247.797 142.844 234.111 131.175 225.571C122.282 219.048 111.206 219.001 103.511 219.893C96.7809 221.484 87.2422 223.661 75.7265 226.03C53.8733 230.53 49.1006 230.743 44.9603 230.57C37.9244 230.264 26.7415 228.533 13.3952 220.692C12.1172 219.72 8.22316 216.498 7.40442 211.14C7.05261 208.469 7.38708 205.752 8.37627 203.245C9.71578 199.352 11.9369 195.821 14.8663 192.928Z" fill="#ED0028" style="fill:#ED0028;fill:color(display-p3 0.9294 0.0000 0.1569);fill-opacity:1;"/>
<path opacity="0.34" d="M109.827 358.194C116.959 349.984 125.691 343.316 135.49 338.599C144.651 334.217 170.197 320.231 180.9 334.551C186.518 342.071 192.46 350.781 190.495 359.213C187.33 372.801 170.035 377.599 155.391 381.674C148.177 383.676 128.826 388.798 114.651 379.961C111.946 378.257 107.374 375.326 106.328 369.988C105.21 364.244 108.871 359.384 109.827 358.194Z" fill="#ED0028" style="fill:#ED0028;fill:color(display-p3 0.9294 0.0000 0.1569);fill-opacity:1;"/>
<path opacity="0.34" d="M79.756 268.592C82.5613 257.194 91.8362 241.199 106.144 228.708C107.83 227.233 109.69 225.869 111.701 224.633C115.433 222.339 123.782 217.25 132.305 218.176C140.251 219.042 145.016 224.721 145.499 225.312C158.116 240.815 127.164 267.913 122.117 272.333C122.117 272.333 110.346 282.639 95.5005 285.06C92.8411 285.616 90.0038 285.498 87.447 284.725C82.1854 282.924 80.5882 278.091 80.0378 276.408C79.2025 273.846 79.1065 271.184 79.756 268.592Z" fill="#ED0028" style="fill:#ED0028;fill:color(display-p3 0.9294 0.0000 0.1569);fill-opacity:1;"/>
</g>
</svg>
