<svg id="Layer_1" data-name="Layer 1" xmlns="http://www.w3.org/2000/svg" viewBox="0 0 144 144"><defs><style>.cls-1{fill:#fcebea;}.cls-2{fill:#dd4e4e;}.cls-3{fill:#fbfafa;}.cls-4{fill:#3b546c;}.cls-5{opacity:0.25;}.cls-6{fill:#1b1c1e;}.cls-7{fill:#232323;}.cls-8{fill:#040404;}.cls-9{fill:#6c4029;}.cls-10{opacity:0.43;}.cls-11{fill:#3a4868;}.cls-12{fill:#13181c;}.cls-13{fill:#1d304f;}.cls-14{fill:#3abcc6;}.cls-15{fill:#d44c46;}.cls-16{fill:#edb115;}.cls-17{fill:#f6eae9;}.cls-18{fill:#fff;}.cls-19{fill:#e25f5d;}.cls-20{font-size:5.01px;fill:#ba0606;font-family:AltoneTrial-Bold, Altone Trial;font-weight:700;}.cls-21{fill:#bf3f3c;}</style></defs><title>Book Your Service</title><ellipse class="cls-1" cx="72" cy="67.14" rx="71.4" ry="51.99"/><path class="cls-2" d="M138.55,38.94a43,43,0,0,1,2.57,24.63,60,60,0,0,1-9.7,22.84,82.18,82.18,0,0,1-17,18A97.13,97.13,0,0,1,93.06,117.1,97.46,97.46,0,0,1,69.23,124a82,82,0,0,1-24.77,0,59.94,59.94,0,0,1-23.17-8.59A42.93,42.93,0,0,1,5.08,96.81a42.8,42.8,0,0,1-2.6-24.54,59.88,59.88,0,0,1,9.65-22.8,83,83,0,0,1,17-18.08A97.5,97.5,0,0,1,74.21,11.73,82,82,0,0,1,99,11.65a60.18,60.18,0,0,1,23.31,8.54A42.94,42.94,0,0,1,138.55,38.94Zm-1.25.54a41.63,41.63,0,0,0-15.68-18.17,58.83,58.83,0,0,0-22.77-8.44,81,81,0,0,0-24.47,0,96.28,96.28,0,0,0-44.7,19.27A79.68,79.68,0,0,0,12.9,50,59,59,0,0,0,3.44,72.44a40.84,40.84,0,0,0,18.22,42.34,59.14,59.14,0,0,0,22.92,8.4,80.63,80.63,0,0,0,24.52-.09,96.36,96.36,0,0,0,44.65-19.45,80.66,80.66,0,0,0,16.73-17.87,59,59,0,0,0,9.41-22.42A41.66,41.66,0,0,0,137.3,39.48Z"/><ellipse class="cls-3" cx="92.97" cy="21.63" rx="2.98" ry="4.33"/><path class="cls-4" d="M110.26,124.51l-.75,0c0-.17,0-.35-.16-.45,0-.15.07-.34-.13-.44-.83-1.52-1.37-3.18-2.07-4.76-.63-1.4-1.23-2.83-1.83-4.24-.68-1.61-1.42-3.19-2.09-4.8-1.16-2.8-2.36-5.59-3.6-8.35a23.33,23.33,0,0,1-2.12-6.76c-.16-1.42-.44-2.82-.68-4.23q-.78-4.71-1.59-9.42c-.29-1.71-.61-3.41-.91-5.12a1.17,1.17,0,0,0-.41-.85c-.12-.12-.28-.25,0-.41a6.94,6.94,0,0,0,3.15,1,37.32,37.32,0,0,0,7.62,0,6.92,6.92,0,0,0,1.81-.24.42.42,0,0,0,.31,0,6.6,6.6,0,0,0,1.09-.11c.06,1.89-.07,3.78-.19,5.66-.17,2.88-.39,5.75-.51,8.63a34,34,0,0,1-.22,3.9,2.84,2.84,0,0,0,.3,1.63c.75,1.62,1.37,3.29,2,5,.84,2.25,1.53,4.55,2.28,6.82a1.23,1.23,0,0,0,.37.91,6.56,6.56,0,0,0,.53,2.09c.38,1,.71,2.07,1,3.11.84,2.53,1.54,5.09,2.28,7.65.18.63.27,1.19-.42,1.58-.07,0-.08.18-.12.27a1,1,0,0,0-.35.1A11,11,0,0,1,110.26,124.51Z"/><path class="cls-4" d="M97.91,104.43a1,1,0,0,0,0,1.18c0,.13,0,.26,0,.39,0,.79-.06,1.59-.1,2.38-.1,2.29-.19,4.57-.29,6.86a2.49,2.49,0,0,0,0,1c-.13,1.11-.09,2.23-.18,3.34-.12,1.46-.13,2.94-.16,4.41,0,.84-.21,1.66-.15,2.49-.44.24-.9.05-1.3.2a41.32,41.32,0,0,1-5.78-.32,3.08,3.08,0,0,1-.89-.23c0-2-.08-4.15-.12-6.24a1.1,1.1,0,0,0,0-.92c0-.92,0-1.84,0-2.75a.27.27,0,0,0,0-.46l-.13-3.38a.28.28,0,0,0,0-.46c0-.48,0-1,0-1.45,0-.21,0-.43,0-.64v-.1a.13.13,0,0,1,0-.06.73.73,0,0,0-.08-.25.37.37,0,0,0,0-.11,1.21,1.21,0,0,0,0-.18h0a1.87,1.87,0,0,0,0-.34l0-.27c-.12-2.39-.23-4.77-.35-7.15S88,96.45,87.84,94c-.18-3.52-.37-7-.55-10.56a13.61,13.61,0,0,0-.33-3c.28-.17.17-.44.13-.66a1.11,1.11,0,0,1-.06-.51A25.19,25.19,0,0,0,86.92,75c1.3-.23,1.74-1.14,1.91-2.33s.18-2.18.26-3.27c.12-1.86.15-3.73.21-5.59a1.26,1.26,0,0,1,.11-.6l2.79.31c.06,2.21.1,4.42.18,6.62a10.1,10.1,0,0,0,.47,3c-.41.39,0,.72.13,1a4.86,4.86,0,0,1,.61,1.54c.26,1.65.43,3.3.73,4.94.45,2.44.69,4.9,1.14,7.33.39,2.12.66,4.24,1.05,6.35a19.34,19.34,0,0,0,.76,3.47c.09.23.1.53.45.53a.13.13,0,0,1,0,.12.92.92,0,0,1,0,.33.64.64,0,0,0,.18.63l0,1.82a.58.58,0,0,0,0,1,.37.37,0,0,1,0,.11Z"/><path class="cls-5" d="M97.91,104.43a1,1,0,0,0,0,1.18c0,.13,0,.26,0,.39,0,.79-.06,1.59-.1,2.38-.1,2.29-.19,4.57-.29,6.86a2.49,2.49,0,0,0,0,1c-.13,1.11-.09,2.23-.18,3.34-.12,1.46-.13,2.94-.16,4.41,0,.84-.21,1.66-.15,2.49-.44.24-.9.05-1.3.2a41.32,41.32,0,0,1-5.78-.32,3.08,3.08,0,0,1-.89-.23c0-2-.08-4.15-.12-6.24a1.1,1.1,0,0,0,0-.92c0-.92,0-1.84,0-2.75a.27.27,0,0,0,0-.46l-.13-3.38a.28.28,0,0,0,0-.46c0-.48,0-1,0-1.45,0-.21,0-.43,0-.64v-.1a.13.13,0,0,1,0-.06.73.73,0,0,0-.08-.25.37.37,0,0,0,0-.11,1.21,1.21,0,0,0,0-.18h0a1.87,1.87,0,0,0,0-.34l0-.27c-.12-2.39-.23-4.77-.35-7.15S88,96.45,87.84,94c-.18-3.52-.37-7-.55-10.56a13.61,13.61,0,0,0-.33-3c.28-.17.17-.44.13-.66a1.11,1.11,0,0,1-.06-.51A25.19,25.19,0,0,0,86.92,75c1.3-.23,1.74-1.14,1.91-2.33s.18-2.18.26-3.27c.12-1.86.15-3.73.21-5.59a1.26,1.26,0,0,1,.11-.6l2.79.31c.06,2.21.1,4.42.18,6.62a10.1,10.1,0,0,0,.47,3c-.41.39,0,.72.13,1a4.86,4.86,0,0,1,.61,1.54c.26,1.65.43,3.3.73,4.94.45,2.44.69,4.9,1.14,7.33.39,2.12.66,4.24,1.05,6.35a19.34,19.34,0,0,0,.76,3.47c.09.23.1.53.45.53a.13.13,0,0,1,0,.12.92.92,0,0,1,0,.33.64.64,0,0,0,.18.63l0,1.82a.58.58,0,0,0,0,1,.37.37,0,0,1,0,.11Z"/><path class="cls-6" d="M31.15,32.76A5,5,0,0,1,33.37,30a4.31,4.31,0,0,1,1.94-.59c-.18.35-.62.22-.88.61a4.4,4.4,0,0,0-.37,3.86c.44,1.51.93,3,1.38,4.5.78,2.59,1.51,5.2,2.34,7.77s1.56,5.19,2.36,7.77c.55,1.79,1.13,3.58,1.67,5.37.38,1.26.73,2.53,1.13,3.79.65,2,1.17,4,1.78,6,.67,2.21,1.43,4.39,2,6.61.83,3,1.79,5.91,2.66,8.88.44,1.47.87,3,1.34,4.42.59,1.8,1.14,3.62,1.6,5.46.25,1,.62,2,.89,3,.5,1.8,1.14,3.56,1.61,5.38s1.08,3.58,1.62,5.37c.39,1.3.74,2.63,1.17,3.92s.83,2.76,1.3,4.12a26.7,26.7,0,0,0,1.34,4A3.75,3.75,0,0,0,62,122c.38.17.78.33,1.16.51a4.42,4.42,0,0,1-2.78.64,3.06,3.06,0,0,1-2.69-1.86,17.91,17.91,0,0,1-.68-2q-2.91-9.54-5.83-19.1-2.64-8.62-5.27-17.26-2.54-8.26-5.08-16.53L36,50.59c-1.29-4.22-2.58-8.44-3.84-12.66a15.45,15.45,0,0,1-1-4.07Z"/><path class="cls-7" d="M63.13,122.53c-.38-.18-.78-.34-1.16-.51a3.75,3.75,0,0,1-1.68-1.79,26.7,26.7,0,0,1-1.34-4c-.47-1.36-.84-2.75-1.3-4.12s-.78-2.62-1.17-3.92c-.54-1.79-1.16-3.56-1.62-5.37s-1.11-3.58-1.61-5.38c-.27-1-.64-2-.89-3-.46-1.84-1-3.66-1.6-5.46-.47-1.46-.9-3-1.34-4.42-.87-3-1.83-5.91-2.66-8.88-.61-2.22-1.37-4.4-2-6.61-.61-2-1.13-4-1.78-6-.4-1.26-.75-2.53-1.13-3.79-.54-1.79-1.12-3.58-1.67-5.37-.8-2.58-1.52-5.19-2.36-7.77s-1.56-5.18-2.34-7.77c-.45-1.5-.94-3-1.38-4.5A4.4,4.4,0,0,1,34.43,30c.26-.39.7-.26.88-.61a.35.35,0,0,1,.33,0A3.39,3.39,0,0,0,37.76,29l.14-.09.31,0c.21.25.37.24.48-.09a1.5,1.5,0,0,1,.6-.06c.12.23.34.15.52.16s.4,0,.41.29c-1.18.16-2.35.35-3.54.47a2.1,2.1,0,0,0-2,1.59,5,5,0,0,0,.09,2.93c.22.62.43,1.25.62,1.88,1,3.48,2.07,7,3.12,10.43.63,2.07,1.36,4.1,2,6.18,1,3.69,2.22,7.34,3.32,11,.61,2,1.31,4,1.88,6,1,3.57,2.18,7.08,3.25,10.63.53,1.75,1,3.51,1.59,5.24a35.47,35.47,0,0,0,1.18,3.66,2.57,2.57,0,0,0,.22,1c.52,1.61,1.06,3.22,1.56,4.83.29.91.46,1.87.8,2.76.5,1.33.83,2.7,1.26,4,.37,1.12.71,2.24,1.08,3.41l.26-.27a1,1,0,0,1,.22.77l-.32-.1.25.89c.15-.26,0-.46.11-.62a2.54,2.54,0,0,1,.39,1.2c-.17,0-.13-.28-.43-.25.29.48.14,1.07.59,1.47,0,.43-.14.94.51,1.06a1.77,1.77,0,0,1,.24.64c.87,3,1.73,5.91,2.62,8.87a2.23,2.23,0,0,0,3.33,1.54L71.88,117q5.3-2.48,10.59-4.93c2-.94,4-1.94,6-2.79.23.36.11.77.14,1.16a1.26,1.26,0,0,0-.57.17c-1,.49-2.09,1-3.12,1.46q-6.27,3-12.53,6c-2.54,1.22-5.1,2.43-7.65,3.63A9.26,9.26,0,0,1,63.13,122.53Z"/><path class="cls-8" d="M101.43,13.77a2.53,2.53,0,0,1,.25,1.38,2.71,2.71,0,0,0,0,1.82l0,.64-.11.28c-.19.09-.26.19,0,.32v.42l-.12.18c-.19.09-.24.2,0,.32a.64.64,0,0,1-.07.45c-.39.2-.28.48-.12.77v1.24c-.2.18-.09.26.1.31a1,1,0,0,1,.14.5c-.06.17-.08.33.13.42a2.7,2.7,0,0,1,.36.9c.08.2,0,.34-.23.37s-.3-.38-.38-.6c-.18-.47-.3-1-.48-1.44a2.34,2.34,0,0,0-1.12-1.33c0-.14,0-.29-.17-.36a3.27,3.27,0,0,0,.61-2.38,1.05,1.05,0,0,0-2.1-.2,4.15,4.15,0,0,0-.2,1c0,.35-.11.67-.53.71s-.64-.24-.73-.62l-.42-2a1.61,1.61,0,0,0-2.3-1.37c-1.65.49-3.24,1.22-5.09,1a16.58,16.58,0,0,0,.49,4.59c-.17.24,0,.32.15.43.21-.12.15-.28.15-.43H90c.06,1-.42,1.86-.36,2.79a1.31,1.31,0,0,0,.79.17.66.66,0,0,1,.64.45c.24.65.8,1.33,1.1,1.94-.19,0-.07.47-.25.48a6.33,6.33,0,0,1-1-1.58,1.15,1.15,0,0,0-1.11-.85c-.08-.17-.18-.23-.31,0a.25.25,0,0,1-.31-.12c0-.21.1-.45-.13-.61a1,1,0,0,1,.11-.62c.17-.07.23-.17.06-.3,0-.77-.43-1.42-.48-2.16.21-.16.13-.25-.07-.31a.35.35,0,0,1-.06-.31c.19-.14.11-.23-.06-.31a.8.8,0,0,1-.12-.6c.22-.16.13-.25-.07-.32a.6.6,0,0,1-.08-.45c.21-.14.14-.23,0-.31-.17-.34,0-.72-.18-1.06.06-.63-.53-.65-.86-.91a3.47,3.47,0,0,1-1.3-2c-.19-1.33.51-2.25,1.84-2.18a7.39,7.39,0,0,0,3.47-.75A19.2,19.2,0,0,1,94.47,10a5.31,5.31,0,0,1,1.59-.15,2.65,2.65,0,0,1,2.07,1,1.12,1.12,0,0,0,.81.48A2.64,2.64,0,0,1,101.11,13,.76.76,0,0,0,101.43,13.77Z"/><path class="cls-9" d="M79.47,132.44a2.62,2.62,0,0,1,1.7-1.81,10.55,10.55,0,0,1,1.31-.43,23.34,23.34,0,0,0,6.59-3.13,3.3,3.3,0,0,1,.76-.36c1.63,2,3.61,2.31,5.72.86,0,0,.09,0,.14,0,.29.1.33.37.4.61a12.43,12.43,0,0,1,.28,4.86.82.82,0,0,1-.26.51c-1.38.1-2.86,0-4.24,0-.35-.17-.16-.48-.36-.66a.6.6,0,0,0-.2,0c-1.27.08-2.5.44-3.76.61a3.65,3.65,0,0,1-.46.07,36.73,36.73,0,0,1-7-.25c-.28-.05-.81.07-.62-.55a1.66,1.66,0,0,0,.73.17c.71,0,1.42.11,2.13.18a26,26,0,0,0,7.21-.3,16.09,16.09,0,0,1,3.4-.36c.79,0,1.58,0,2.37,0a2.76,2.76,0,0,0,.9-.17c.14-.05.15-.18.1-.35a1,1,0,0,0-.79-.06,13.32,13.32,0,0,1-2.82.11,13.34,13.34,0,0,0-2.28.21,33.34,33.34,0,0,1-7.12.57C82,132.69,80.75,132.44,79.47,132.44Z"/><path class="cls-9" d="M103.69,132.78c-.09-.39.2-.6.42-.83a1.78,1.78,0,0,1,.78-.46,5.4,5.4,0,0,0,3.59-3.25c.38-.85.9-1.65,1.34-2.47a1,1,0,0,1,.58-.56c.28.44.78.4,1.2.54,1.59.53,4-1,3.93-2.85a1.55,1.55,0,0,1,1.19.73,15.53,15.53,0,0,1,1.66,2.7.51.51,0,0,0-.35.13,25.77,25.77,0,0,1-2.23,2.08c-1.24,1.14-2.23,2.5-3.36,3.73a3,3,0,0,1-2.31,1A44.78,44.78,0,0,1,103.69,132.78Z"/><path class="cls-4" d="M97.73,98.37a.13.13,0,0,0,0-.12c-.14-.65-.26-1.32-.37-2C96.67,92.12,96,88,95.26,83.82a58.88,58.88,0,0,0-1.35-7.2.81.81,0,0,1,.06-.69l.36,0c.3,1.71.62,3.41.91,5.12q.81,4.71,1.59,9.42c.24,1.41.52,2.81.68,4.23a23.33,23.33,0,0,0,2.12,6.76c1.24,2.76,2.44,5.55,3.6,8.35.67,1.61,1.41,3.19,2.09,4.8.6,1.41,1.2,2.84,1.83,4.24.7,1.58,1.24,3.24,2.07,4.76,0,.15-.08.34.13.44s.16.28.16.45h-.28c-.26-.26-.15-.77-.6-.91a4.29,4.29,0,0,1-.36-1c.12-.19,0-.34-.08-.5-.65-1.51-1.3-3-2-4.54a8.66,8.66,0,0,0-1-2.12,5.92,5.92,0,0,1-.78-1.76,6,6,0,0,0-.3-.56,5.7,5.7,0,0,0-.55-1.3c-.24-.58-.46-1.16-.71-1.73q-2.37-5.48-4.73-10.93C98.19,98.8,97.85,98.64,97.73,98.37Z"/><path class="cls-4" d="M97.73,98.37a.13.13,0,0,0,0-.12c-.14-.65-.26-1.32-.37-2C96.67,92.12,96,88,95.26,83.82a58.88,58.88,0,0,0-1.35-7.2.81.81,0,0,1,.06-.69l.36,0c.3,1.71.62,3.41.91,5.12q.81,4.71,1.59,9.42c.24,1.41.52,2.81.68,4.23a23.33,23.33,0,0,0,2.12,6.76c1.24,2.76,2.44,5.55,3.6,8.35.67,1.61,1.41,3.19,2.09,4.8.6,1.41,1.2,2.84,1.83,4.24.7,1.58,1.24,3.24,2.07,4.76,0,.15-.08.34.13.44s.16.28.16.45h-.28c-.26-.26-.15-.77-.6-.91a4.29,4.29,0,0,1-.36-1c.12-.19,0-.34-.08-.5-.65-1.51-1.3-3-2-4.54a8.66,8.66,0,0,0-1-2.12,5.92,5.92,0,0,1-.78-1.76,6,6,0,0,0-.3-.56,5.7,5.7,0,0,0-.55-1.3c-.24-.58-.46-1.16-.71-1.73q-2.37-5.48-4.73-10.93C98.19,98.8,97.85,98.64,97.73,98.37Z"/><path class="cls-10" d="M97.73,98.37a.13.13,0,0,0,0-.12c-.14-.65-.26-1.32-.37-2C96.67,92.12,96,88,95.26,83.82a58.88,58.88,0,0,0-1.35-7.2.81.81,0,0,1,.06-.69l.36,0c.3,1.71.62,3.41.91,5.12q.81,4.71,1.59,9.42c.24,1.41.52,2.81.68,4.23a23.33,23.33,0,0,0,2.12,6.76c1.24,2.76,2.44,5.55,3.6,8.35.67,1.61,1.41,3.19,2.09,4.8.6,1.41,1.2,2.84,1.83,4.24.7,1.58,1.24,3.24,2.07,4.76,0,.15-.08.34.13.44s.16.28.16.45h-.28c-.26-.26-.15-.77-.6-.91a4.29,4.29,0,0,1-.36-1c.12-.19,0-.34-.08-.5-.65-1.51-1.3-3-2-4.54a8.66,8.66,0,0,0-1-2.12,5.92,5.92,0,0,1-.78-1.76,6,6,0,0,0-.3-.56,5.7,5.7,0,0,0-.55-1.3c-.24-.58-.46-1.16-.71-1.73q-2.37-5.48-4.73-10.93C98.19,98.8,97.85,98.64,97.73,98.37Z"/><path class="cls-9" d="M118.47,126.57a.58.58,0,0,1,.24.37c.38.92.39.93-.37,1.54a20.1,20.1,0,0,1-1.68,1.4c-.33,0-.42-.31-.77-.35a5,5,0,0,0-1.06,1.09c-.43.57-.84,1.15-1.26,1.73a4,4,0,0,1-3.63,1.85c-1-.08-2,0-3.06,0a16.29,16.29,0,0,1-2.86-.41c-.23,0-.45-.12-.35-.44,1.45,0,2.89.26,4.35.2a1.59,1.59,0,0,1,.53.05,5.67,5.67,0,0,0,2,0,2.7,2.7,0,0,0,1.7-.59,13.26,13.26,0,0,0,1.23-1.26,36.48,36.48,0,0,1,3.66-3.9A8.49,8.49,0,0,0,118.47,126.57Z"/><path class="cls-8" d="M115.53,122.9c.09,1.86-2.34,3.38-3.93,2.85-.42-.14-.92-.1-1.2-.54l-.14-.7a11,11,0,0,0,4.59-1.94,1,1,0,0,1,.35-.1C115.29,122.63,115.57,122.65,115.53,122.9Z"/><path class="cls-8" d="M95.69,127.54s-.11,0-.14,0c-2.11,1.45-4.09,1.15-5.72-.86l0-.37a41.32,41.32,0,0,0,5.78.32Z"/><path class="cls-8" d="M79.47,132.44c1.28,0,2.53.25,3.8.32a33.34,33.34,0,0,0,7.12-.57,13.34,13.34,0,0,1,2.28-.21,13.32,13.32,0,0,0,2.82-.11,1,1,0,0,1,.79.06c0,.17,0,.3-.1.35a2.76,2.76,0,0,1-.9.17c-.79,0-1.58,0-2.37,0a16.09,16.09,0,0,0-3.4.36,26,26,0,0,1-7.21.3c-.71-.07-1.42-.15-2.13-.18a1.66,1.66,0,0,1-.73-.17A.29.29,0,0,1,79.47,132.44Z"/><path class="cls-8" d="M118.47,126.57a8.49,8.49,0,0,1-1.36,1.32,36.48,36.48,0,0,0-3.66,3.9,13.26,13.26,0,0,1-1.23,1.26,2.7,2.7,0,0,1-1.7.59,5.67,5.67,0,0,1-2,0,1.59,1.59,0,0,0-.53-.05c-1.46.06-2.9-.19-4.35-.2a.59.59,0,0,1,0-.56,44.78,44.78,0,0,0,6.44.45,3,3,0,0,0,2.31-1c1.13-1.23,2.12-2.59,3.36-3.73a25.77,25.77,0,0,0,2.23-2.08.51.51,0,0,1,.35-.13Z"/><path class="cls-11" d="M105.24,115.44a8.66,8.66,0,0,1,1,2.12c.68,1.5,1.33,3,2,4.54.07.16.2.31.08.5a18,18,0,0,1-1.13-2.39c-.57-1.29-1.12-2.6-1.66-3.91A1.62,1.62,0,0,1,105.24,115.44Z"/><path class="cls-11" d="M37.76,29a3.39,3.39,0,0,1-2.12.34A6.92,6.92,0,0,1,37.76,29Z"/><path class="cls-12" d="M101.68,17a2.71,2.71,0,0,1,0-1.82A4.65,4.65,0,0,1,101.68,17Z"/><path class="cls-11" d="M108.63,123.56c.45.14.34.65.6.91C108.67,124.4,108.8,123.89,108.63,123.56Z"/><path class="cls-12" d="M101.43,13.77a.76.76,0,0,1-.32-.8A1.07,1.07,0,0,1,101.43,13.77Z"/><path class="cls-12" d="M109,54.94c0-.12,0-.26-.15-.33s-.12,0-.14,0c-.92,1.17-2.2,1-3.38.76a36.58,36.58,0,0,1-6.19-2.07c-1.86-.69-3.7-1.42-5.55-2.13-1-.41-2.07-.84-3.11-1.23-.4-.15-.38-.39-.33-.72a25,25,0,0,1,.8-3.09c.23-.85.45-1.71.69-2.56a.88.88,0,0,1,.32-.54L105,47.24c0-.51,0-.51-.61-.71l-.94-.33c.41-3.35,1-6.65,1.21-10-.35-.12-.46,0-.48.2-.11.93-.21,1.86-.32,2.79s-.19,1.91-.33,2.86-.34,2.2-.44,3.31c0,.51-.21.66-.68.51q-3.12-1-6.22-2a2.14,2.14,0,0,1-.28-.16l6.18-9.62c-.35-.47-.66-.89-1-1.38.57-.24,1.09-.49,1.62-.7a.57.57,0,0,0,.4-.41c.27-.89.54-1.79.85-2.67a11.62,11.62,0,0,0,.59-2.66l0,0,0,0c-.35.09-.42.36-.52.67-.41,1.31-.74,2.63-1.17,3.94a1.25,1.25,0,0,1-.9.92,9,9,0,0,1-1.07.39c-.41.07-.5.36-.27.75s.55.84.86,1.29c-2,3.13-4.08,6.21-6,9.4-.34.06-.56-.17-.8-.31,1-2.66,1.93-5.25,3-7.78.6-1.38,1.36-2.68,2-4.05.87-2,2.13-3.82,3.12-5.76l-.27-.15a19.51,19.51,0,0,0-1.66,2.64c-.53.9-1,1.84-1.53,2.74-.17.29-.3.69-.79.55l-.31.06a.83.83,0,0,0,.55.69,88.34,88.34,0,0,0-4.56,11c-1.21-.14-2.14-.86-3.22-.74a1.33,1.33,0,0,1,.06-1c.86-3,1.8-6,2.79-8.91A1.18,1.18,0,0,0,94,32c-.4,0-.55.23-.65.53-.64,2-1.28,3.95-1.9,5.93A26.72,26.72,0,0,0,90.49,42c0,.15-.11.29-.31.27s-.14-.33-.12-.49c.13-1.18.28-2.35.41-3.53a17.25,17.25,0,0,0,.18-1.89c0-.54.19-1,.17-1.58,0-.2.13-.31.29-.42.35-.24.69-.52,1-.75a.94.94,0,0,0,.5-.55c0-.39-.49-.51-.61-.9a.68.68,0,0,1,.07-.25A23.52,23.52,0,0,1,94.19,29c0-.07.09-.35.31-.18.17-.45.52-.85.46-1.38a.34.34,0,0,0-.31.05.51.51,0,0,1-.11.44c0,.43-.51.41-.66.72v0a.16.16,0,0,1,0,.07.14.14,0,0,1-.13,0h0a.19.19,0,0,1,0,.07s0,0,0,0h0a.1.1,0,0,1-.05,0h-.11l-.06,0a.73.73,0,0,1-.18.56,13.27,13.27,0,0,0-1.31,1.77c-.62.88-.61.88,0,1.71-.11.53-.65.68-1,1a1.19,1.19,0,0,0-.53,1c0,1-.31,2-.4,3.08a2.38,2.38,0,0,0-.06.37,14.85,14.85,0,0,1-.24,3.31,7.92,7.92,0,0,1-1.26-1.18c.16-1.87.86-3.57.78-5.4A43.21,43.21,0,0,0,88,40.25c-.47,0-.93-.2-1.4-.1a1,1,0,0,1-.46.21,2.88,2.88,0,0,1-1.6.92,20.86,20.86,0,0,1-4.45.57,3,3,0,0,0-.66.11c-.07-.65-.07-.65-.58-.52a3.52,3.52,0,0,0-.56,1c-.16.72,0,1,.7,1.26l.32.12c-.19.73-.09,1.33.71,1.59,0,0,.11.06.11.1.08.7.71,1,1.06,1.54a1.16,1.16,0,0,1,.24.92,2,2,0,0,0,.17,1.26c.07,0,.2,0,.22,0,.27.66.69.4,1.09.18a4,4,0,0,0,1.53-1.34,1.4,1.4,0,0,1,1.13-.69,11.7,11.7,0,0,1,1.45,0c.31,0,.5.16.43.48-.31,1.34-.34,2.71-.54,4.05A12.54,12.54,0,0,0,86.69,55h0c.49-.15.41-.57.44-.93.22-2,.42-4.07.63-6.11,0-.46.28-.56.69-.31.09.36-.25.72,0,1.09s.65.27.93.56c-.08.27-.19.56.1.82a.47.47,0,0,1,.07.5,9,9,0,0,0-.13,2.13c-.13,1.59-.16,3.19-.28,4.78C89,59.28,89,61,88.94,62.79a19.35,19.35,0,0,1-.25,3.48,2.35,2.35,0,0,0,0,.53c.09,1.61-.14,3.2-.19,4.81a5.41,5.41,0,0,1-.4,1.92,1.28,1.28,0,0,1-1.6.91,7.19,7.19,0,0,0-1.21-.12v.15a.74.74,0,0,1,0,.14c.13,0,.3,0,.41.09.38.18.83,0,1.19.25,1.3-.23,1.74-1.14,1.91-2.33s.18-2.18.26-3.27c.12-1.86.15-3.73.21-5.59a1.26,1.26,0,0,1,.11-.6c0-1.89.16-3.77.22-5.65.07-2.22.22-4.44.34-6.66a.6.6,0,0,1,.12-.41,14.84,14.84,0,0,1,2.21.77,1.59,1.59,0,0,1,.1.85c-.13,3.68-.17,7.35-.17,11,0,.13,0,.25,0,.38.06,2.21.1,4.42.18,6.62a10.1,10.1,0,0,0,.47,3,6.7,6.7,0,0,0,1,1.56,6.94,6.94,0,0,0,3.15,1,37.32,37.32,0,0,0,7.62,0,6.92,6.92,0,0,0,1.81-.24c.09-.16.19-.17.31,0a6.71,6.71,0,0,0,1.09-.11l.41-.23a7.24,7.24,0,0,0-2.5,0,18.7,18.7,0,0,1-2,.17,39.61,39.61,0,0,1-5.34.18,11.66,11.66,0,0,1-3.06-.5A3.3,3.3,0,0,1,93,71.73c-.25-1.75,0-3.52-.18-5.27a49.69,49.69,0,0,1-.09-6.34c.09-2.11,0-4.23.14-6.34,0-.72.1-1.46.13-2.22a15.22,15.22,0,0,1,2.68,1c2.24.83,4.46,1.7,6.71,2.5a14.94,14.94,0,0,0,2.46.77,4.92,4.92,0,0,0,3.48-.16s.14,0,.19,0c.32.23-.1.71.34.87v-.82C108.83,55.45,108.7,55.16,109,54.94ZM78.74,43c-.12-.15-.06-.33.22-.78.27.21.13.58.42.79C79.07,43.25,78.88,43.23,78.74,43Zm1.08,1.69a.67.67,0,0,1,0-.92c.35.23.22.78.74.88C80.25,44.94,80,45,79.82,44.72ZM81.22,46c-.36,0-.53-.12-.52-.45a.22.22,0,0,1,.29-.16C81.27,45.49,81.32,45.7,81.22,46Zm.23.46a2.9,2.9,0,0,1,1.71.86c-.23.22-.4.46-.63.3C82.1,47.33,81.59,47.1,81.45,46.45Zm1.62,2.34c-.44.35-.53.32-1-.34.9,0,1.26-1,2.26-1.05A7.2,7.2,0,0,1,83.07,48.79Zm5.11-1.86a5.78,5.78,0,0,0-2.65-.11,14,14,0,0,1-1.6.14,1.55,1.55,0,0,1-.82-.2c.34-.29.71-.14,1-.31a2.7,2.7,0,0,1,0-.28H82a1.28,1.28,0,0,1-.25-.77A16.85,16.85,0,0,0,84.9,45a.49.49,0,0,0-.56-.22,16.87,16.87,0,0,1-2.66,0c-.5,0-.75-.36-1-.72-.09-.15,0-.22.17-.27s.29-.19.44,0a.4.4,0,0,0,.3-.05c0-.11,0-.22,0-.34A2.12,2.12,0,0,1,80.09,43a.94.94,0,0,1-.4-.69,1.07,1.07,0,0,1,.68-.07c1.64.23,3.17-.35,4.74-.61a1.84,1.84,0,0,0,.92-.49,1.53,1.53,0,0,1,2.2,0c.57.58,1.08,1.22,1.7,1.93-.33,1.14-.72,2.5-1.11,3.83A.74.74,0,0,1,88.18,46.93Zm1.59,1.51a.4.4,0,0,1-.18.24c-.67-.15-.75-.21-.62-.68.48-1.69,1-3.37,1.49-5,0-.05.07-.07.15-.15.34.05.7.11.56.63C90.72,45.11,90.32,46.8,89.77,48.44Z"/><path class="cls-4" d="M92.85,73.09a7.21,7.21,0,0,0,1,1.55c-.24.16-.08.29,0,.41a1.17,1.17,0,0,1,.41.85l-.36,0a.81.81,0,0,0-.06.69,58.88,58.88,0,0,1,1.35,7.2c.73,4.14,1.41,8.3,2.09,12.45.11.66.23,1.33.37,2-.35,0-.37-.3-.45-.53a19.53,19.53,0,0,1-.76-3.47c-.39-2.11-.66-4.24-1.05-6.35-.45-2.43-.69-4.89-1.14-7.33-.3-1.64-.47-3.29-.73-4.94A5.11,5.11,0,0,0,93,74.09C92.83,73.8,92.44,73.47,92.85,73.09Z"/><path class="cls-11" d="M109.35,124c-.21-.1-.11-.29-.13-.44C109.42,123.68,109.31,123.87,109.35,124Z"/><path class="cls-13" d="M106.46,75.4c.09-.16.19-.17.31,0A.42.42,0,0,1,106.46,75.4Z"/><path class="cls-3" d="M88.57,108.5c-.12-2.39-.23-4.77-.35-7.15S88,96.45,87.84,94c-.18-3.52-.37-7-.55-10.56a26.06,26.06,0,0,1-1.14-3.54q-1.92-6.11-3.79-12.21c-1.37-4.43-2.72-8.87-4.08-13.31q-1.74-5.67-3.49-11.33a2.43,2.43,0,0,0-.32-.78c-4.28.91-8.54,1.92-12.81,2.91L46.71,48.63l-6,1.39a25.77,25.77,0,0,0,.91,3.31c1.06,3.56,2.14,7.12,3.2,10.68,1.62,5.44,3.2,10.9,4.85,16.33.81,2.63,1.54,5.28,2.33,7.92a1.86,1.86,0,0,1,.16.81.1.1,0,0,1,0,.14l0,0c.13.09.12.21.07.34l.09.25c.09,0,.11.11.07.21l.12.36a.83.83,0,0,1,.21.71l.09.37a.29.29,0,0,1,.14.41l.16.52a.16.16,0,0,1,.06.23c0,.13.08.25.11.37a.39.39,0,0,1,.1.38h0l0,0,0,0s0,0,0,0,0,0,0,.06.11.35.16.53c.21.13.21.33.18.55.18.6.37,1.19.55,1.79a.13.13,0,0,1,.06.2c0,.13.07.27.1.41a.28.28,0,0,1,.12.35c0,.32.22.58.17.91.07.1.33.11.19.34a.59.59,0,0,1,.13.39.5.5,0,0,1,.16.53c.07.22.13.44.2.66a.19.19,0,0,1,.07.24,3.89,3.89,0,0,1,.34,1.34,1.25,1.25,0,0,1,.33,1,4,4,0,0,1,.33,1.09.41.41,0,0,1,.12.43,1.47,1.47,0,0,1,.23.76,1,1,0,0,1,.22.77c0,.06,0,.11,0,.17a2.54,2.54,0,0,1,.39,1.2.22.22,0,0,1,0,.22.31.31,0,0,1,.13.41.39.39,0,0,1,.1.3.45.45,0,0,1,.14.45,2.65,2.65,0,0,1,.26.9,1.77,1.77,0,0,1,.24.64c.87,3,1.73,5.91,2.62,8.87a2.23,2.23,0,0,0,3.33,1.54L71.88,117q5.3-2.48,10.59-4.93c2-.94,4-1.94,6-2.79a1.21,1.21,0,0,0,0-.18h0a1.87,1.87,0,0,0,0-.34ZM46.47,64.32c-1.12-3.63-2.23-7.26-3.21-10.94-.27-1-.06-1.33,1-1.57,4.69-1.12,9.38-2.22,14.07-3.33l14-3.3c.93-.22,1.31,0,1.6.93.69,2.21,1.36,4.43,2,6.65.33,1.07.64,2.15,1,3.23a2.58,2.58,0,0,1,.18.78c0,.58-.24.84-.89,1l-5.93,1.51-11.62,3L47.88,65.06C47.13,65.26,46.69,65.05,46.47,64.32ZM51.21,80c-1.06-3.59-2.13-7.18-3.18-10.78-.29-1-.05-1.36.92-1.61l10.14-2.67L71.3,61.76l5.56-1.45c1-.26,1.34-.08,1.64.91q1.52,5,3,10c.06.19.1.39.13.48a1,1,0,0,1-.8,1.17L60.2,78.74l-7.42,2.12C51.87,81.13,51.49,80.91,51.21,80Zm6.14,16.49c-.92.28-1.26.09-1.54-.82-.7-2.34-1.4-4.69-2.07-7-.34-1.18-.76-2.33-1-3.52-.24-1,0-1.39,1-1.68l12.78-3.68,13.68-3.91c.49-.14,1-.29,1.47-.42a1.09,1.09,0,0,1,1.55.87c.3,1,.58,1.95.87,2.93.67,2.22,1.35,4.43,2,6.65a2.68,2.68,0,0,1,.2.93.88.88,0,0,1-.71,1l-8.69,2.67-9.48,3Q62.36,94.95,57.35,96.46Zm28.33,6.22c-.36.14-.73.25-1.09.37l-15,5.1c-1.32.45-2.66.89-4,1.32a1.09,1.09,0,0,1-1.56-.76c-.49-1.56-.94-3.13-1.38-4.7a1.19,1.19,0,0,1,.92-1.59L68.16,101l12.65-4.14L83.35,96a1.18,1.18,0,0,1,1.63.82c.43,1.36.84,2.73,1.27,4.09a2.69,2.69,0,0,1,.13.82A1,1,0,0,1,85.68,102.68Z"/><path class="cls-6" d="M87,80.46a9.51,9.51,0,0,1-.73-2.08c-.08-.23.07-.38.33-.36a2.67,2.67,0,0,0-.31-1.1c-.16,0-.33.06-.44-.09s.21-.19.34-.21a1.67,1.67,0,0,0-.25-.75l-.34.15c-.1-.48-.58-.85-.24-1.41a.74.74,0,0,0,0-.14c-.48.12-.5-.29-.55-.54a47.8,47.8,0,0,0-1.51-5,7,7,0,0,1-.53-2.12.27.27,0,0,1-.07-.08l0,0s0,0,0,.06H83c.11-.24-.16-.39-.15-.61l-.29.25a.75.75,0,0,1,0-1,5,5,0,0,0-.5-2.07c-.43.16-.07.48-.17.91-.27-.69-.54-1.21-.69-1.76-.74-2.66-1.62-5.28-2.42-7.92-1.18-3.85-2.26-7.73-3.5-11.56a1,1,0,0,1-.1-.56c0-.11.16-.18.43-.18a4.54,4.54,0,0,0-.16-.75l-.12-.42c-.06-.18-.13-.35-.19-.53a.24.24,0,0,1-.1-.28c0-.06,0-.11,0-.17s-.13-.17-.12-.29l0-.17a.17.17,0,0,1-.08-.22l-.07-.24c-.5-.09-.17.31-.27.45.25.16.13.41.15.62a.23.23,0,0,1,.1.36c-.16-.09-.06-.24-.1-.36a.29.29,0,0,1-.12-.13.16.16,0,0,1,0-.09h0c0-.12,0-.26,0-.38a1.86,1.86,0,0,1-.21-.28A2.09,2.09,0,0,1,74,39a4.41,4.41,0,0,1-.21-1.16,1.63,1.63,0,0,1-.4-1.25,2.05,2.05,0,0,1,.4,1.25.75.75,0,0,1,.3.62c0,.28.19.29.4.29a5.76,5.76,0,0,0-.35-1.21c-.32-.13-.18-.41-.19-.64a2.86,2.86,0,0,0-.27-.89c-.2,0-.31.09-.46.22a6.21,6.21,0,0,1-.51-1.92.23.23,0,0,1-.09-.36c.16.1.06.25.09.36a.37.37,0,0,0,.37-.24,1,1,0,0,0-.16-.52c-.33-.12-.18-.4-.2-.63,0-.05,0-.1,0-.14a.18.18,0,0,1-.07-.24,3.27,3.27,0,0,0-.29-1,.55.55,0,0,1-.25-.77c-.27-1-.54-1.93-.83-2.88l-.12-.41A4.83,4.83,0,0,0,69,24.74a2.34,2.34,0,0,0-2-.27c-.12.23-.28.24-.46.07a4.92,4.92,0,0,0-1.38.23c-.08.19-.17.25-.32.06a1.12,1.12,0,0,0-.6.07,1,1,0,0,1-1.24.22l-.45,0c-.2.4-.48.3-.77.14a1.16,1.16,0,0,0-.61.08c-.33.24-.65.49-1.08.21a1.27,1.27,0,0,0-.61.07c-.1.27.16.35.28.51a16.55,16.55,0,0,0,2.62-.38,2.26,2.26,0,0,1,.82,0c-1.47.53-3,.46-4.5.89-.2-.35.15-.35.16-.52-.29-.26-.61-.14-.91-.07s-.63.18-.92,0l-.31,0c-.09.38-.44.15-.66.28,0,.14.17.13.18.25.51.06,1-.24,1.5-.14.14,0,.31,0,.52.21a45,45,0,0,1-6.31,1c-1.43.28-2.86.56-4.3.79a16.59,16.59,0,0,0-3.82.76c.07.22.36.07.45.27,1-.08,1-.08,1.27.87a11.64,11.64,0,0,0,.43,1.3A2.1,2.1,0,0,0,48.38,33c3.34-.59,6.68-1.15,10-1.72.4-.07.8-.2,1.2-.23a2,2,0,0,0,1.59-2.38c-.09-.45-.2-.89-.33-1.33a.52.52,0,0,1,.06-.5c0-.1.08-.14.16,0l.77-.12c.08-.15.18-.17.3,0a.79.79,0,0,0,.47-.1c.08-.17.18-.19.3,0a1.13,1.13,0,0,0,.6-.08c.08-.19.17-.27.31-.06a1.16,1.16,0,0,0,.61-.09c.07-.18.16-.29.31-.07.8-.13,1.6-.25,2.4-.39a2.4,2.4,0,0,1,2.71,1.49c.67,1.76,1.17,3.57,1.73,5.37.91,2.91,1.78,5.83,2.67,8.75.09.29.15.59.22.88a2.43,2.43,0,0,1,.32.78q1.74,5.67,3.49,11.33c1.36,4.44,2.71,8.88,4.08,13.31q1.88,6.11,3.79,12.21a26.06,26.06,0,0,0,1.14,3.54A13.61,13.61,0,0,0,87,80.46ZM49.3,30.28c-.28,0-.36-.2-.3-.5.3-.11.48,0,.53.25A.24.24,0,0,1,49.3,30.28ZM50.42,30c-.14-.41,0-.56.32-.61L55,28.79a10.6,10.6,0,0,1,1.94-.31c.37,0,.37,0,.39.56C55,29.28,52.73,29.9,50.42,30ZM74.87,41.56v-.2l-.08,0a.19.19,0,0,1-.06-.2l0-.11c.16.1.06.25.09.36.21.11.14.3.15.46a.18.18,0,0,1,.12.22c-.15,0-.1-.14-.12-.22a.22.22,0,0,1-.09-.07A.31.31,0,0,1,74.87,41.56ZM82,64.6s0,0,0,0a.6.6,0,0,1,.06-.11l0,0Zm.11.33c.19.11.08.25.13.4C82,65.2,82.17,65.05,82.11,64.93Zm4,12.73a.09.09,0,0,1-.11,0,.16.16,0,0,1,0-.07s0,0,0,0,0-.07,0-.08a.11.11,0,0,1,.15.1A.14.14,0,0,1,86.11,77.66Z"/><path class="cls-3" d="M89.41,63.16c0-1.89.16-3.77.22-5.65.07-2.22.22-4.44.34-6.66a.6.6,0,0,1,.12-.41,14.84,14.84,0,0,1,2.21.77,1.59,1.59,0,0,1,.1.85c-.13,3.68-.17,7.35-.17,11,0,.13,0,.25,0,.38Z"/><path class="cls-11" d="M86.56,78,87,79.3a1,1,0,0,0,0,.5c0,.22.15.49-.13.66a9.51,9.51,0,0,1-.73-2.08C86.15,78.15,86.3,78,86.56,78Z"/><path class="cls-14" d="M97.91,104.43l0,1.18A1,1,0,0,1,97.91,104.43Z"/><path class="cls-14" d="M98,101.63v.42h0s0,0,0,0a.58.58,0,0,1,0-1,.49.49,0,0,1,0,.11h0Z"/><path class="cls-8" d="M51.86,27.71c-1.43.28-2.86.56-4.3.79a16.59,16.59,0,0,0-3.82.76l-.6,0c-.22,0-.46-.12-.63.13a6.44,6.44,0,0,0-.76,0c-1.66.27-3.29.61-5,.75A1.87,1.87,0,0,0,35,31.81a5.07,5.07,0,0,0,0,1.6c.22,1.07.63,2.09,1,3.13.65,2.11,1.24,4.23,1.88,6.35,1,3.1,1.94,6.19,2.89,9.3,1.23,4,2.43,8,3.65,12Q46.54,71,48.63,77.84q1.51,5,3,10a3.15,3.15,0,0,0,.49,1.25s0,.08,0,.14h-.45a35.47,35.47,0,0,1-1.18-3.66c-.57-1.73-1.06-3.49-1.59-5.24-1.07-3.55-2.25-7.06-3.25-10.63-.57-2-1.27-4-1.88-6-1.1-3.67-2.27-7.32-3.32-11-.59-2.08-1.32-4.11-2-6.18-1-3.47-2.07-7-3.12-10.43-.19-.63-.4-1.26-.62-1.88a5,5,0,0,1-.09-2.93,2.1,2.1,0,0,1,2-1.59c1.19-.12,2.36-.31,3.54-.47a5.59,5.59,0,0,0,1.67-.3,7.07,7.07,0,0,0,1.94-.3c1.48-.2,3-.44,4.43-.65,1.2-.17,2.4-.34,3.61-.42C51.87,27.61,51.86,27.66,51.86,27.71Z"/><path class="cls-12" d="M51.71,89.21h.48a.25.25,0,0,0,.07.33l.09.25a.15.15,0,0,0,.07.21l.12.36a.68.68,0,0,0,.21.71l.09.37c-.07.18-.05.32.14.41l.16.52a.15.15,0,0,0,.06.23l.11.37c-.07.16-.09.3.1.38h0s0,0,0,.06a.34.34,0,0,0,.07.11l.15.53a.44.44,0,0,0,.18.55l.55,1.79a.15.15,0,0,0,.06.2l.1.41a.27.27,0,0,0,.12.35c0,.32.22.58.17.91,0,.17,0,.31.19.34a.59.59,0,0,1,.13.39c0,.2-.09.41.16.53l.2.66a.15.15,0,0,0,.07.24,3.89,3.89,0,0,1,.34,1.34.9.9,0,0,0,.33,1,4,4,0,0,1,.33,1.09c-.08.18-.1.34.12.43a1.47,1.47,0,0,1,.23.76l-.26.27c-.37-1.17-.71-2.29-1.08-3.41-.43-1.34-.76-2.71-1.26-4-.34-.89-.51-1.85-.8-2.76-.5-1.61-1-3.22-1.56-4.83A2.57,2.57,0,0,1,51.71,89.21Z"/><path class="cls-11" d="M41.89,28.93a5.59,5.59,0,0,1-1.67.3c0-.27-.19-.29-.41-.29s-.4.07-.52-.16c.26-.25.64,0,.92-.22l3.38-.47c-.28.39-.73.34-1.13.38S41.91,28.56,41.89,28.93Z"/><path class="cls-12" d="M57.71,107.78a.39.39,0,0,1,.1.3c-.13.06-.11.18-.12.3h0c-.45-.4-.3-1-.59-1.47.3,0,.26.24.43.25a.22.22,0,0,1,0,.22C57.53,107.54,57.52,107.69,57.71,107.78Z"/><path class="cls-12" d="M58,108.53a2.65,2.65,0,0,1,.26.9c-.65-.12-.49-.63-.51-1.06h0Z"/><path class="cls-12" d="M57.11,105.78l0,.17c-.13.16,0,.36-.11.62l-.25-.89Z"/><path class="cls-11" d="M38.21,28.93a.41.41,0,0,1,.48-.09C38.58,29.17,38.42,29.18,38.21,28.93Z"/><path class="cls-3" d="M101.71,24.09c-.3-.09-.3-.38-.38-.6-.18-.48-.3-1-.48-1.44a2.34,2.34,0,0,0-1.12-1.33.38.38,0,0,1-.47,0c-.08-.27.09-.35.3-.4a3.27,3.27,0,0,0,.61-2.38,1.05,1.05,0,0,0-2.1-.2,4.15,4.15,0,0,0-.2,1c0,.35-.11.67-.53.71s-.64-.24-.73-.62l-.42-2a1.61,1.61,0,0,0-2.3-1.37c-1.65.49-3.24,1.22-5.09,1a17,17,0,0,0,.49,4.59h.3a.2.2,0,0,1,.22-.21c.11,0,.14.1.14.2.06,1-.42,1.86-.36,2.79a1.31,1.31,0,0,0,.79.17l.15,0a.62.62,0,0,1,.49.43l0,.12a5.08,5.08,0,0,0,.33.66c.2.34.42.67.59,1a.09.09,0,0,1,.08.09l0,0,.71.67.92.36h.92a.34.34,0,0,1,.31-.05,5.49,5.49,0,0,0,3.27-2.87l.37-.66c.17-.79.17-.79.63-.8a.7.7,0,0,1-.14.69A.32.32,0,0,1,99,24c0,.05,0,.1,0,.15A7,7,0,0,1,96.5,27.6,1.17,1.17,0,0,0,96,28.69l0,.15A.09.09,0,0,1,96,29l.2.37a31.93,31.93,0,0,1,4.86-3.82.13.13,0,0,1,.15-.11,1.33,1.33,0,0,0,.5-1.3Zm-9.95,1.17c.23-.62.88-.32,1.26-.57s.56-.8,1.18-.82A1.89,1.89,0,0,1,91.76,25.26Zm-1.11-5.33c0-.28.13-.48.45-.49a.56.56,0,0,1,.55.6c0,.26-.14.47-.46.48A.53.53,0,0,1,90.65,19.93Z"/><path class="cls-12" d="M101.33,19.58a1.46,1.46,0,0,1-.12.77C101.05,20.06,100.94,19.78,101.33,19.58Z"/><path class="cls-13" d="M99.73,20.72a.38.38,0,0,1-.47,0c-.08-.27.09-.35.3-.4S99.71,20.58,99.73,20.72Z"/><path class="cls-12" d="M89.13,24.35c-.3-.15-.26-.37-.13-.61C89.23,23.9,89.1,24.14,89.13,24.35Z"/><path class="cls-12" d="M89.29,21.12h.3c0,.15.06.31-.15.43C89.31,21.44,89.12,21.36,89.29,21.12Z"/><path class="cls-12" d="M89.11,23.12a.21.21,0,0,1,.06-.3C89.34,23,89.28,23.05,89.11,23.12Z"/><path class="cls-12" d="M89.75,24.51a.26.26,0,0,1-.31,0C89.57,24.28,89.67,24.34,89.75,24.51Z"/><path class="cls-12" d="M101.59,17.89a.23.23,0,0,1,0,.32C101.33,18.08,101.4,18,101.59,17.89Z"/><path class="cls-12" d="M101.45,22.4a.36.36,0,0,1,.13.42C101.37,22.73,101.39,22.57,101.45,22.4Z"/><path class="cls-12" d="M101.21,21.59a.28.28,0,0,1,.1.31C101.12,21.85,101,21.77,101.21,21.59Z"/><path class="cls-12" d="M88.23,18.36a.26.26,0,0,1,0-.31C88.37,18.13,88.44,18.22,88.23,18.36Z"/><path class="cls-12" d="M88.69,20.66a.26.26,0,0,1-.07-.31C88.82,20.41,88.9,20.5,88.69,20.66Z"/><path class="cls-12" d="M88.56,20a.26.26,0,0,1-.06-.31C88.67,19.81,88.75,19.9,88.56,20Z"/><path class="cls-12" d="M101.42,18.81a.27.27,0,0,1,0,.32C101.18,19,101.23,18.9,101.42,18.81Z"/><path class="cls-12" d="M88.38,19.13a.3.3,0,0,1-.07-.32C88.51,18.88,88.6,19,88.38,19.13Z"/><path class="cls-12" d="M89.59,21.12a.2.2,0,0,1,.22-.21c.11,0,.14.1.14.2Z"/><path class="cls-15" d="M109,54.94c0-.12,0-.26-.15-.33s-.12,0-.14,0c-.92,1.17-2.2,1-3.38.76a36.58,36.58,0,0,1-6.19-2.07c-1.86-.69-3.7-1.42-5.55-2.13-1-.41-2.07-.84-3.11-1.23-.4-.15-.38-.39-.33-.72a25,25,0,0,1,.8-3.09c.23-.85.45-1.71.69-2.56a.88.88,0,0,1,.32-.54L105,47.24c0-.51,0-.51-.61-.71l-.94-.33c.41-3.35,1-6.65,1.21-10-.35-.12-.46,0-.48.2-.11.93-.21,1.86-.32,2.79s-.19,1.91-.33,2.86-.33,2.2-.43,3.31c0,.51-.22.66-.69.51q-3.12-1-6.22-2a1.39,1.39,0,0,1-.28-.16l6.18-9.62-1-1.37c.57-.25,1.09-.5,1.62-.71a.57.57,0,0,0,.4-.41c.27-.89.54-1.79.85-2.67a12.17,12.17,0,0,0,.59-2.66l3.77,1.25a13.58,13.58,0,0,1,2,.89,4.86,4.86,0,0,1,2.57,4,34.2,34.2,0,0,1-.07,7.5,65.19,65.19,0,0,1-1.93,10.83A9.36,9.36,0,0,1,109,54.94Z"/><path class="cls-15" d="M110.35,72.22c-.38-4-.76-7.93-1.18-11.89-.14-1.26-.21-2.54-.34-3.8-.44-.16,0-.64-.34-.87,0,0-.14,0-.19,0a4.92,4.92,0,0,1-3.48.16,14.94,14.94,0,0,1-2.46-.77c-2.25-.8-4.47-1.67-6.71-2.5a15.22,15.22,0,0,0-2.68-1c0,.76-.09,1.5-.13,2.22-.11,2.11,0,4.23-.14,6.34a49.69,49.69,0,0,0,.09,6.34c.13,1.75-.07,3.52.18,5.27A3.3,3.3,0,0,0,95.4,74.9a11.66,11.66,0,0,0,3.06.5,39.61,39.61,0,0,0,5.34-.18,18.7,18.7,0,0,0,2-.17,7.24,7.24,0,0,1,2.5,0,.68.68,0,0,0,.66-.1c.07-.12.16-.15.26,0a2.92,2.92,0,0,0,1.18-.16A9.17,9.17,0,0,0,110.35,72.22Zm-3.81-9.9a1.58,1.58,0,0,1-.38,0c-2.18-.06-4.36.25-6.55.16-.83,0-1-.15-1-1v-.89a12,12,0,0,1,2.91-.29c1.5-.12,3-.15,4.49-.13.35,0,.69-.33,1,0s.13.67.2,1C107.44,62,107.35,62.15,106.54,62.32Z"/><path class="cls-15" d="M104.52,26.27c-.35.09-.42.36-.52.67-.41,1.31-.75,2.63-1.17,3.94a1.25,1.25,0,0,1-.9.92,9,9,0,0,1-1.07.39c-.41.07-.5.36-.27.75s.55.84.86,1.29c-2,3.13-4.08,6.21-6,9.4-.34.06-.56-.17-.8-.31,1-2.66,1.93-5.25,3-7.78.6-1.38,1.36-2.68,2-4.05.87-2,2.13-3.82,3.12-5.77l.17-.29c.13,0,.25,0,.29-.18A4,4,0,0,1,104.52,26.27Z"/><path class="cls-8" d="M101.2,25.4a1.32,1.32,0,0,0,.5-1.29c.25-.12.42-.08.47.22s.11.35.35.27l0,0,0,0-.06.55c-.53-.16-.68.43-1.06.55v-.05A.24.24,0,0,0,101.2,25.4Z"/><path class="cls-12" d="M102.46,25.15l.06-.55c.32.14.4.53.72.65,0,.15-.16.17-.29.18-.08-.19-.25-.16-.41-.16Z"/><path class="cls-12" d="M108.93,74.93c.07-.12.16-.15.26,0A.17.17,0,0,1,108.93,74.93Z"/><path class="cls-12" d="M102.52,24.6c-.24.08-.36,0-.35-.27C102.3,24.41,102.46,24.44,102.52,24.6Z"/><path class="cls-15" d="M85.25,72.07a1.59,1.59,0,0,1-.07-1,46.93,46.93,0,0,0,.54-5.29c.37-3.57.65-7.15,1-10.73.49-.15.41-.58.44-.93.22-2,.42-4.07.63-6.11,0-.46.28-.56.69-.31.09.36-.25.72,0,1.09s.66.27.93.56c-.08.27-.19.56.1.81a.5.5,0,0,1,.07.51,9,9,0,0,0-.13,2.13c-.13,1.59-.16,3.19-.28,4.78C89,59.28,89,61,88.94,62.79a19.35,19.35,0,0,1-.25,3.48,2.35,2.35,0,0,0,0,.53c.09,1.61-.14,3.2-.19,4.81a5.41,5.41,0,0,1-.4,1.92,1.28,1.28,0,0,1-1.6.91,7.19,7.19,0,0,0-1.21-.12.9.9,0,0,1-.08-.72A3,3,0,0,0,85.25,72.07Z"/><path class="cls-3" d="M98.22,31.57a.83.83,0,0,0,.55.69,88.34,88.34,0,0,0-4.56,11c-1.21-.14-2.14-.86-3.22-.74a1.33,1.33,0,0,1,.06-1c.86-3,1.8-6,2.79-8.91A1.18,1.18,0,0,0,94,32l-.06-.06a.23.23,0,0,0,0-.3h0c.55-.2.64-.77.95-1.16.22,0,.28-.38.55-.3s.2.59.51.7c.16-.08.23-.17.23-.31v0c.3-.19.21-.67.57-.83a4.69,4.69,0,0,1,1,1.14A1.53,1.53,0,0,0,98.22,31.57Z"/><path class="cls-3" d="M84.06,46.17H82a1.23,1.23,0,0,1-.26-.77A16.85,16.85,0,0,0,84.9,45a.49.49,0,0,0-.56-.22,16.87,16.87,0,0,1-2.66,0c-.5,0-.75-.36-1-.72-.09-.15,0-.22.17-.27.15.17.29.2.44,0a.4.4,0,0,0,.3-.05c2.28-.11,3-.25,3.33-.68,0,0-.07-.11-.09-.11-1.08.13-2.16.22-3.23.45A2.12,2.12,0,0,1,80.09,43a.94.94,0,0,1-.4-.69,1.07,1.07,0,0,1,.68-.07c1.64.23,3.17-.35,4.74-.61a1.84,1.84,0,0,0,.92-.49,1.53,1.53,0,0,1,2.2,0c.57.58,1.08,1.22,1.7,1.93L88.82,47a.74.74,0,0,1-.64,0,5.78,5.78,0,0,0-2.65-.11,14,14,0,0,1-1.6.14,1.55,1.55,0,0,1-.82-.2c.33-.29.71-.14,1-.31.41,0,.84.06,1.14-.45C84.76,45.81,84.43,46.12,84.06,46.17Z"/><path class="cls-16" d="M78.81,41.44a14.09,14.09,0,0,0-1.61-1.3c-.28-.25-.66-.42-.51-.92a1.26,1.26,0,0,1,1-.89,9.65,9.65,0,0,1,1.06-.15c.86-.13,1.73-.2,2.57-.39a2.66,2.66,0,0,1,2.35.63l2.47,1.94a2.88,2.88,0,0,1-1.6.92,20.86,20.86,0,0,1-4.45.57,3,3,0,0,0-.66.11C79.32,41.31,79.32,41.31,78.81,41.44Z"/><path class="cls-15" d="M86.56,40.15C87.3,37.56,88.12,35,89,32.43a3.66,3.66,0,0,1,1.33-1.73,13.77,13.77,0,0,1,3.1-1.76.72.72,0,0,1-.18.56,13.27,13.27,0,0,0-1.31,1.77c-.62.88-.61.88,0,1.71-.1.53-.64.68-1,1a1.19,1.19,0,0,0-.53,1c0,1-.31,2-.4,3.08,0,.12,0,.25-.06.37a14.85,14.85,0,0,1-.24,3.31,7.92,7.92,0,0,1-1.26-1.18c.16-1.87.86-3.57.78-5.4A43.21,43.21,0,0,0,88,40.25C87.49,40.3,87,40.05,86.56,40.15Z"/><path class="cls-15" d="M86.69,55a5.8,5.8,0,0,1-2-1.66c-1-1.2-2-2.44-2.95-3.66a.71.71,0,0,1-.23-.47c.07,0,.2,0,.22,0,.27.66.69.4,1.1.18a4,4,0,0,0,1.52-1.34,1.4,1.4,0,0,1,1.13-.69,11.7,11.7,0,0,1,1.45,0c.31,0,.5.16.43.48-.31,1.34-.34,2.71-.54,4.05A12.54,12.54,0,0,0,86.69,55Z"/><path class="cls-15" d="M93.92,31.93,94,32c-.39,0-.55.23-.65.53-.64,2-1.28,3.95-1.9,5.93A26.72,26.72,0,0,0,90.49,42c0,.15-.11.29-.31.27s-.14-.33-.12-.49c.13-1.18.28-2.35.41-3.53a17.25,17.25,0,0,0,.18-1.89c0-.54.19-1,.17-1.58,0-.2.13-.31.29-.42.35-.24.69-.52,1-.75a.94.94,0,0,0,.5-.55c0-.39-.49-.51-.61-.9a.68.68,0,0,1,.07-.25A22.79,22.79,0,0,1,94.19,29c0-.07.09-.35.31-.18a.75.75,0,0,1,0,.3c-.28.58-.22,1.26-.52,1.85a.57.57,0,0,0,.05.69h0c-.07,0-.15-.06-.19,0S93.82,31.86,93.92,31.93Z"/><path class="cls-15" d="M102.46,25.15l.08.12,0,.31a19.51,19.51,0,0,0-1.66,2.64c-.53.9-1,1.84-1.53,2.74-.17.29-.3.69-.79.55,0-.38-.28-.63-.47-.93-.26-.57-.84-.93-1-1.48,1.45-1.17,3-2.13,4.39-3.4C101.78,25.58,101.93,25,102.46,25.15Z"/><path class="cls-8" d="M94,31.63a.57.57,0,0,1-.05-.69c.3-.59.24-1.27.52-1.85a.75.75,0,0,0,0-.3c.17-.46.52-.85.46-1.38a5.47,5.47,0,0,0,3.27-2.87l.37-.66c.17,0,.31-.15.49-.11A.32.32,0,0,1,99,24c-.11,0-.2,0,0,.15A7,7,0,0,1,96.5,27.6,1.17,1.17,0,0,0,96,28.69l-.35-.05c-.09-.19,0-.46-.31-.6a5.3,5.3,0,0,0-.51,1.48c-.06.19-.22.42,0,.61a.05.05,0,0,0,0,.08l.12.12a.35.35,0,0,0,0,.14C94.65,30.86,94.56,31.43,94,31.63Z"/><path class="cls-17" d="M89.59,48.68c-.67-.15-.75-.21-.62-.68.48-1.69,1-3.37,1.49-5,0-.05.07-.07.15-.15.34.05.7.11.56.63-.45,1.68-.85,3.37-1.4,5A.4.4,0,0,1,89.59,48.68Z"/><path class="cls-11" d="M81.61,43.39c1.07-.23,2.15-.32,3.23-.45,0,0,.06.07.09.11-.35.43-1.05.57-3.33.68Z"/><path class="cls-17" d="M82.06,48.45c.9,0,1.26-1,2.26-1.05a7.2,7.2,0,0,1-1.25,1.39C82.63,49.14,82.54,49.11,82.06,48.45Z"/><path class="cls-17" d="M83.16,47.31c-.23.22-.4.46-.63.3-.43-.28-.94-.51-1.08-1.16A2.9,2.9,0,0,1,83.16,47.31Z"/><path class="cls-3" d="M80.6,44.68c-.35.26-.58.27-.78,0a.67.67,0,0,1,0-.92C80.21,44,80.08,44.59,80.6,44.68Z"/><path class="cls-8" d="M93.73,27.47h.92a.51.51,0,0,1-.11.44,1.06,1.06,0,0,1-.8,0c0-.23-.28-.13-.39-.26C93.45,27.51,93.65,27.62,93.73,27.47Z"/><path class="cls-3" d="M79.38,43c-.31.21-.5.19-.64,0s-.06-.33.22-.78C79.23,42.46,79.09,42.83,79.38,43Z"/><path class="cls-11" d="M84.06,46.17c.37-.05.7-.36,1.17-.17-.3.51-.73.45-1.14.45Z"/><path class="cls-15" d="M98.06,30.58c.19.3.46.55.47.93l-.31.06a1.53,1.53,0,0,1-.44-.73A.41.41,0,0,0,98.06,30.58Z"/><path class="cls-3" d="M81.22,46c-.36,0-.53-.12-.52-.45a.22.22,0,0,1,.29-.16C81.27,45.49,81.32,45.7,81.22,46Z"/><path class="cls-8" d="M102.51,25.58l0-.31c.16,0,.33,0,.41.16l-.17.29Z"/><path class="cls-11" d="M81.3,43.78c-.15.2-.29.17-.44,0C81,43.6,81.15,43.59,81.3,43.78Z"/><path class="cls-12" d="M93.69,28.75c0-.1.1-.13.19-.13A.15.15,0,0,1,93.69,28.75Z"/><path class="cls-12" d="M93.49,28.91a.23.23,0,0,1,.21-.16C93.69,28.88,93.62,28.93,93.49,28.91Z"/><path class="cls-18" d="M74.25,41.39c-.89-2.92-1.76-5.84-2.67-8.75-.56-1.8-1.06-3.61-1.73-5.37a2.4,2.4,0,0,0-2.71-1.49c-.8.14-1.6.26-2.4.39a.2.2,0,0,1-.31.07,1.16,1.16,0,0,1-.61.09.2.2,0,0,1-.31.06,1.13,1.13,0,0,1-.6.08l-.3,0a.79.79,0,0,1-.47.1l-.3,0-.77.12-.16,0a.52.52,0,0,0-.06.5c.13.44.24.88.33,1.33A2,2,0,0,1,59.59,31c-.4,0-.8.16-1.2.23-3.33.57-6.67,1.13-10,1.72a2.1,2.1,0,0,1-2.49-1.25,11.64,11.64,0,0,1-.43-1.3c-.31-.95-.32-.95-1.27-.87-1.17.25-2.37.3-3.55.47s-2.57.29-3.86.46A1.43,1.43,0,0,0,35.44,32a5.36,5.36,0,0,0,.24,1.65q2.37,7.91,4.75,15.79c.06.19.06.41.25.55l6-1.39,14.95-3.45c4.27-1,8.53-2,12.81-2.91C74.4,42,74.34,41.68,74.25,41.39ZM46.18,45.72a6.14,6.14,0,0,1-1.83.37,15.45,15.45,0,0,1-1.14-4.53c.49-.07,1-.18,1.49-.22,1.32-.1,1.88.57,1.55,1.94a1.29,1.29,0,0,1,.69,1.07A1,1,0,0,1,46.18,45.72Zm4.48-1.94A1.52,1.52,0,0,1,48.43,45a2.15,2.15,0,0,1-1.32-1.81c0-.25-.11-.49-.15-.74a1.66,1.66,0,0,1,1.64-2,1.37,1.37,0,0,1,1.18.54A3.6,3.6,0,0,1,50.66,43.78Zm3,.35a1.63,1.63,0,0,1-1.78-.26,3.37,3.37,0,0,1-1-2.53A1.7,1.7,0,0,1,52,39.59a1.92,1.92,0,0,1,2,1,5.25,5.25,0,0,1,.6,2A1.57,1.57,0,0,1,53.64,44.13Zm3.52-1.39c-.28-.28-.55-.58-.86-.91-.33.57.16,1.08,0,1.66l-.7.28a37.06,37.06,0,0,1-1.28-4.51A.89.89,0,0,1,55.1,39c.41.36.22,1,.68,1.46.14-.42.27-.79.41-1.16.24-.68.28-.71,1.15-.73A2.94,2.94,0,0,1,57,40a1.08,1.08,0,0,0,.34,1.4,18.43,18.43,0,0,1,1.37,1.42C57.88,43.34,57.73,43.33,57.16,42.74Zm2,.08c-.51-1.42-.86-2.91-1.27-4.36a1,1,0,0,1,.84-.13,13.17,13.17,0,0,1,.66,2.16,10.3,10.3,0,0,1,.61,2.1A.8.8,0,0,1,59.11,42.82ZM63,42.07c-.79-.54-1.2-1.49-2.06-2.1,0,.84.46,1.51.54,2.25-.19.26-.45.23-.79.21a26.71,26.71,0,0,1-1.21-4.28c.47-.29.78-.23,1,.08s.62.69.92,1a2.11,2.11,0,0,0,.67.61,14.12,14.12,0,0,0-.4-2.11.5.5,0,0,1,.66-.21,16.88,16.88,0,0,1,1.28,4.29A1.41,1.41,0,0,1,63,42.07Zm4-1.2a1.71,1.71,0,0,1-2.51.18,3.48,3.48,0,0,1-.91-3.21,1.39,1.39,0,0,1,1.38-1c.75,0,1.19.34,1.47,1.21-.32.27-.64.4-1,0a.59.59,0,0,0-.75-.18.6.6,0,0,0-.31.65,3.42,3.42,0,0,0,.63,1.77.59.59,0,0,0,.73.28c.2-.07.37-.17.35-.42s-.08-.4-.34-.44c-.1,0-.2,0-.3,0a.38.38,0,0,1-.24-.36.32.32,0,0,1,.25-.35c.37,0,.72-.26,1.18-.17a6.3,6.3,0,0,1,.5,1.54A.57.57,0,0,1,67,40.87Z"/><path class="cls-19" d="M76.88,56c-.32-1.08-.63-2.16-1-3.23-.68-2.22-1.35-4.44-2-6.65-.29-.93-.67-1.15-1.6-.93l-14,3.3c-4.69,1.11-9.38,2.21-14.07,3.33-1,.24-1.23.57-1,1.57,1,3.68,2.09,7.31,3.21,10.94.22.73.66.94,1.41.74l10.74-2.77,11.62-3,5.93-1.51c.65-.17.88-.43.89-1A2.58,2.58,0,0,0,76.88,56ZM54.71,59.3c0,.45-.29.64-.71.66a1.77,1.77,0,0,1-.68.15c-.09.14-.19.27-.38.14a15.81,15.81,0,0,1-1.92.47c-.09.14-.19.27-.39.16a1.3,1.3,0,0,1-1,.17c-.63-.18-.9-.71-.68-1.54s.44-1.62.68-2.43a3,3,0,0,0-.64-2.9.39.39,0,0,1,.2-.66,14.59,14.59,0,0,1,1.7-.43c.34-.07.51.17.45.52a3.1,3.1,0,0,0,1.06,2.87,22.48,22.48,0,0,1,1.85,1.67A1.07,1.07,0,0,1,54.71,59.3ZM58,56.89a8.14,8.14,0,0,1-.48-2.32c.7.34.43,1.21.93,1.68l.72-.16c.18-.36.37-.72,0-1a.76.76,0,0,1,.45-.54c.32-.16.62-.06.69.24a9.3,9.3,0,0,0,.46,1.38C59.79,56.58,58.86,56.54,58,56.89Zm3.44-.83c-.37.06-.57,0-.64-.44a7.87,7.87,0,0,0-.61-2c.5,0,.5,0,.73.47.8.11,1.14.42,1.21,1.09A.76.76,0,0,1,61.41,56.06Zm2.3-2.53c-.08.66.56,1.23.19,2-.63-.54-.37-1.31-.79-1.8h0l0,0,0,0-.08,0h-.11a1,1,0,0,1-.21,0h0l-.06,0a.7.7,0,0,1-.18-.17A2.88,2.88,0,0,1,64,52.86C64.29,53.36,63.8,53.34,63.71,53.53Zm3.55-.19c-.14-.12-.3,0-.44,0a.65.65,0,0,0-.48.08c.24.34,1.06.17.84.91a.51.51,0,0,1-.49.4c-.31,0-.61,0-.71-.35.22-.28.51.18.74-.17l-.08-.08,0,0,0,0,0,0a2,2,0,0,0-.54-.18l0,0-.06,0-.06,0h0v0c-.15.41-.15.41-.74.63.19.29.57,0,.73.24a.71.71,0,0,1-.9.33,1.15,1.15,0,0,1-.39-1.46.62.62,0,0,1,1-.08c.1.1.18.23.27.34h0a3.18,3.18,0,0,1,0-.48v-.07s0,0,0,0,0,0,0-.05l0,0v0c.07-.09.2-.12.42-.13h.34c.24,0,.33-.12.47-.67.44-.2.52.28.85.42-.49.63.11,1,.29,1.51C67.73,54.38,67.73,54.38,67.26,53.34Z"/><path class="cls-19" d="M86.05,85.84c-.67-2.22-1.35-4.43-2-6.65-.29-1-.57-2-.87-2.93a1.09,1.09,0,0,0-1.55-.87c-.5.13-1,.28-1.47.42L66.46,79.72,53.68,83.4c-1,.29-1.22.67-1,1.68.28,1.19.7,2.34,1,3.52.67,2.35,1.37,4.7,2.07,7,.28.91.62,1.1,1.54.82q5-1.51,10-3.06l9.48-3,8.69-2.67a.88.88,0,0,0,.71-1A2.68,2.68,0,0,0,86.05,85.84Zm-27.86.38a7.27,7.27,0,0,1,4.12-1,.87.87,0,0,1,.23.88c-1.7-.16-3.14.7-4.64,1.31C57.57,86.62,57.58,86.53,58.19,86.22Zm6,3.75a9.62,9.62,0,0,0-5.47,1.78,13.31,13.31,0,0,1-1.93-2.52c-.19-.27,0-.49.21-.66a9.62,9.62,0,0,1,4.07-2,9.08,9.08,0,0,1,2.44-.13,1.3,1.3,0,0,1,.87.27A15.57,15.57,0,0,1,64.22,90Zm2.9-3c-.31.28.34.81-.3,1A14.91,14.91,0,0,1,66,85.83a.28.28,0,0,1,.12-.34.32.32,0,0,1,.42,0c.22.19.35.51.69.49.34-.22-.41-.87.41-.91a9.82,9.82,0,0,1,.7,2.35C67.66,88,67.58,87,67.12,86.92Zm2.69,0s-.07.09-.11.11c-1,.46-1,.45-1.33-.68-.06-.26-.24-.52.06-.83.54.27.27.91.66,1.29.33-.54-.09-1,0-1.54C69.68,85.49,69.85,85.94,69.81,86.91Zm2-.48a.59.59,0,0,1-.69-.2c-.15-.22,0-.31.21-.35l.09-.1c-.32-.07-.51-.58-.84-.38s-.06.64,0,1,.11.41-.25.49a3.74,3.74,0,0,1-.47-1.54c0-.23.2-.34.41-.36a1.23,1.23,0,0,0,.82-.27.55.55,0,0,1,.83.18.08.08,0,0,1,0,0v0h0v0s0,0,0,0h0l0,0h0a1.87,1.87,0,0,1-.25,0h0l0,0s0,0,0,0l0,0a.39.39,0,0,0,.11.06h.29l.07,0a.59.59,0,0,1,.38.61C72.26,86.23,72,86.35,71.78,86.43Zm.47-2.09c.7.36.51,1.11.8,1.72C72.45,86,72.4,85.86,72.25,84.34Zm1.75.83c-.08-.25-.06-.55-.39-.74-.29.48.28,1-.13,1.47-.45-.5-.39-1.11-.6-1.65a1.82,1.82,0,0,1,.18-.17c1-.32,1-.27,1.3.7.07.26.13.53.2.83C74.11,85.74,74.07,85.42,74,85.17Zm1.76.86c-.24.13-.49.16-.59-.13s.55-.16.43-.57c-.21-.16-.42.18-.7,0a1.77,1.77,0,0,1-.4-1,.66.66,0,0,1,.48-.76c.54-.19.65-.16.83.39a9.49,9.49,0,0,1,.35,1.49C76.22,85.72,76,85.89,75.76,86Zm4.71-2.4,0,0a.47.47,0,0,1-.28,0h-.07l-.1.12-.09.1,0,0a.71.71,0,0,1-.13.12l0,0-.06,0,0,0,0,0a.17.17,0,0,1-.1,0l-.1,0H79l-.18-.06-.19-.09L78.55,84c-.2,0-.14.25-.23.36a.79.79,0,0,1-1.25.08,1.77,1.77,0,0,1-.46-1.62.81.81,0,0,1,.67-.66.75.75,0,0,1,.73.33.25.25,0,0,1,0,.39c-.29.14-.34-.3-.6-.23-.51.54-.4,1.09.34,1.55.29-.19.33-.61.77-.73s0-.48,0-.71c.63-.67,1-.59,1.29.24a2.47,2.47,0,0,1,.06.29l0,.1a.69.69,0,0,0,0,.13l0,0s0,0,0,0a.56.56,0,0,0,.14.1h0a2,2,0,0,0-.19-.89.75.75,0,0,0-.05-.16l0-.08c0-.06,0-.11,0-.17l0-.08c.16-.24.43-.29.74-.41a4.49,4.49,0,0,0,0,1.68Zm.84-.26a1.2,1.2,0,0,1-.54-1.1c.1-.35.29-.68.71-.69a.65.65,0,0,1,.71.65c0,.3.14.57.18.87A.76.76,0,0,1,81.31,83.37Z"/><path class="cls-19" d="M81.52,71.17q-1.5-5-3-10c-.3-1-.62-1.17-1.64-.91L71.3,61.76,59.09,64.91,49,67.58c-1,.25-1.21.62-.92,1.61,1,3.6,2.12,7.19,3.18,10.78.28.94.66,1.16,1.57.89l7.42-2.12,20.65-5.92a1,1,0,0,0,.8-1.17C81.62,71.56,81.58,71.36,81.52,71.17ZM53,70.94c.34-.09.67-.22,1-.32A1.9,1.9,0,0,1,56.06,69a.88.88,0,0,1,.62.41.66.66,0,0,0,.93.23,2.83,2.83,0,0,1,.52-.13c.84-.2,1.16.08,1.18,1-2.35.51-4.63,1.3-7,1.91C51.9,71.5,52,71.19,53,70.94Zm7,4.1c-1.82.49-3.63,1-5.44,1.54a.77.77,0,0,1-1.08-.45,21.71,21.71,0,0,1-.93-3.2l7-2a20.76,20.76,0,0,1,1,3.35A.67.67,0,0,1,59.91,75Zm7.16-3.85c-.48.23-.75-.14-1-.53-.08.45-.14.86-.64.92s-.77-.3-1.06-.83c0,1-.59,1.34-1.43,1.55-.22-.86-.43-1.64-.62-2.37.91-.61,1.46-.13,2,.5.26-.26.34-.67.78-.69a.86.86,0,0,1,.85.59c.18-.91.25-1,1-1,.23.12.2.37.29.56-.21.29-.42-.16-.68.07s0,.49.18.7.39-.33.72-.22A.57.57,0,0,1,67.07,71.19Zm.67-.67a6.11,6.11,0,0,0-.46-1.19.57.57,0,0,1,.16-.76c.28,0,.4.29.68.39a1.44,1.44,0,0,0,.51,1.75C68.15,71,67.85,70.91,67.74,70.52Zm2.93-.45c-.55.31-.48-.21-.65-.48-.2.35-.17.83-.64,1a.57.57,0,0,1-.43,0A1.21,1.21,0,0,1,68.52,69c.29-.41.67-.4,1.23,0l.1-.08v-.42c.14-.17.31-.13.45-.17s.21-.15.41,0A2,2,0,0,0,70.67,70.07Zm2.1-.42c-.3.1-.39-.13-.51-.33-.36-.61-.73-1.21-1.11-1.83.43-.12.43-.12,1.31,1.06V67c.5.33.62-.28,1-.27.37.55-.21.5-.46.67v1.68C73,69.3,73.06,69.55,72.77,69.65Zm1-.55a7.34,7.34,0,0,1-.38-1.63c.43.21.43.21.72,1.57C74,69.12,73.89,69.13,73.73,69.1Zm1.87-.57a.8.8,0,0,1-.92.47c-.19-.06-.41-.12-.4-.38.21-.31.46,0,.72-.06,0-.29-.29-.24-.43-.31s-.48-.33-.43-.64a.53.53,0,0,1,.54-.46.53.53,0,0,1,.62.46c-.14.15-.26.08-.37,0a.24.24,0,0,0-.31,0c.08.22.3.17.46.24S75.67,68.13,75.6,68.53Zm.37.07a4,4,0,0,1-.47-1.72c.21,0,.33,0,.34.09.06.54.43,1,.43,1.52C76.15,68.61,76,68.68,76,68.6Zm.79-.27a3.26,3.26,0,0,1-.63-1.83c0-.12.11-.16.21-.22.3,0,.43.31.61.49-.11.63-.11.63.38,1.41C77.19,68.41,76.94,68.63,76.76,68.33Z"/><path class="cls-19" d="M86.25,100.92c-.43-1.36-.84-2.73-1.27-4.09A1.18,1.18,0,0,0,83.35,96l-2.54.83L68.16,101l-4.59,1.44a1.19,1.19,0,0,0-.92,1.59c.44,1.57.89,3.14,1.38,4.7a1.09,1.09,0,0,0,1.56.76c1.33-.43,2.67-.87,4-1.32l15-5.1c.36-.12.73-.23,1.09-.37a1,1,0,0,0,.7-.94A2.69,2.69,0,0,0,86.25,100.92Zm-13.52,3.92c-.43.22-.61.15-1.19-.53a1,1,0,0,0-.05.2,1,1,0,0,1-.58,1c-.42.15-.66-.16-.91-.41a.84.84,0,0,0-.19-.09h0a2.49,2.49,0,0,0-.17.31c-.12.86-.81.8-1.47,1a14.17,14.17,0,0,1-.67-2.51c.2-.31.52-.31.77-.39.65-.2,1,.06,1.06.76,0,.28,0,.49.33.57h0a5.65,5.65,0,0,1,0-.59.81.81,0,0,1,.69-.73.69.69,0,0,1,.82.51c0,.08.06.13.23.15.08-.54.07-1.2.84-1.25.41,0,.77.42.88,1A.85.85,0,0,1,72.73,104.84Zm1.42-1h0l-.06.18a1.35,1.35,0,0,1-.15.26l-.07.09-.08.09-.05,0,0,0a13.89,13.89,0,0,1-.81-2.57c0-.17.12-.26.24-.36.52.23.26.81.62,1.13.23-.16.19-.73.73-.63.13.31-.19.51-.19.79a5.17,5.17,0,0,0,.77,1C74.66,104.27,74.44,103.8,74.15,103.83Zm7.27-2c-.58.37-.49-.39-.81-.43-.17.25,0,.56-.12.8-.38.15-.51-.12-.64-.36a.2.2,0,0,1,0-.08s0,0,0-.05,0,0,0-.06,0,0,0-.05l0-.07,0-.06,0,0s0,0,0-.05l0,0h-.1c0,.19,0,.39,0,.59a.81.81,0,0,1-.55.88c-.41.15-.65-.09-.88-.38-.09-.11-.11-.28-.26-.34h0c-.09.32.09.65,0,1-.66.27-.81-.52-1.28-.67-.2.37.19.73,0,1.08-.25.16-.42.07-.5-.15-.24-.71-.47-1.44-.7-2.14.3-.38.54-.35.85-.07s.31.61.71.63h0c0-.39-.21-.72-.24-1.09.42-.32.54-.3.68.1,0,0,0,.11,0,.17h0c0,.05,0,.11,0,.17l0,.14c0,.07,0,.15,0,.22s0,.08,0,.12v0l0,.08a.14.14,0,0,0,0,.06.41.41,0,0,0,0,.09.08.08,0,0,0,0,0l.07.11.06.07h0a1.91,1.91,0,0,1,.16-.94A.64.64,0,0,1,79.1,101c.11.12.14.32.37.3h0s0,0,0,0h0v-.06c0-.23-.22-.43-.15-.68.45-.26.48.18.67.4.17-.23,0-.55.16-.74s.29.07.39.18.1.24.25.27c.12-.26-.13-.7.42-.8A7.24,7.24,0,0,1,81.42,101.83Z"/><path class="cls-11" d="M44.19,29.53c-1.17.25-2.36.3-3.55.47s-2.57.29-3.86.46A1.43,1.43,0,0,0,35.44,32a5.36,5.36,0,0,0,.24,1.65q2.37,7.91,4.75,15.79c.06.19.06.41.25.55a25.77,25.77,0,0,0,.91,3.31c1.06,3.56,2.14,7.12,3.2,10.68,1.62,5.44,3.2,10.9,4.85,16.33.81,2.63,1.54,5.28,2.33,7.92a1.86,1.86,0,0,1,.16.81,3.15,3.15,0,0,1-.49-1.25q-1.5-5-3-10Q46.55,71,44.45,64.22c-1.22-4-2.42-8-3.65-12-.95-3.11-1.94-6.2-2.89-9.3-.64-2.12-1.23-4.24-1.88-6.35-.32-1-.73-2.06-1-3.13a5.07,5.07,0,0,1,0-1.6,1.87,1.87,0,0,1,1.75-1.62c1.68-.14,3.31-.48,5-.75a6.44,6.44,0,0,1,.76,0c.26.21.5.29.63-.13l.6,0C43.81,29.48,44.1,29.33,44.19,29.53Z"/><path class="cls-11" d="M56.21,102.73a.9.9,0,0,1-.33-1A1.25,1.25,0,0,1,56.21,102.73Z"/><path class="cls-11" d="M52.75,91.06a.68.68,0,0,1-.21-.71A.83.83,0,0,1,52.75,91.06Z"/><path class="cls-11" d="M55.27,99.51c-.25-.12-.21-.33-.16-.53A.51.51,0,0,1,55.27,99.51Z"/><path class="cls-11" d="M53.79,94.59a.44.44,0,0,1-.18-.55C53.82,94.17,53.82,94.37,53.79,94.59Z"/><path class="cls-13" d="M58,108.53l-.26-.15c0-.12,0-.24.12-.3A.45.45,0,0,1,58,108.53Z"/><path class="cls-11" d="M53,91.84c-.19-.09-.21-.23-.14-.41A.29.29,0,0,1,53,91.84Z"/><path class="cls-11" d="M55,98.59c-.22,0-.24-.17-.19-.34C54.86,98.35,55.12,98.36,55,98.59Z"/><path class="cls-13" d="M56.66,104.25c-.22-.09-.2-.25-.12-.43A.41.41,0,0,1,56.66,104.25Z"/><path class="cls-13" d="M57.71,107.78c-.19-.09-.18-.24-.13-.41A.31.31,0,0,1,57.71,107.78Z"/><path class="cls-11" d="M53.41,93.34c-.19-.08-.17-.22-.1-.38A.39.39,0,0,1,53.41,93.34Z"/><path class="cls-11" d="M52.26,89.53a.25.25,0,0,1-.07-.33C52.32,89.28,52.31,89.4,52.26,89.53Z"/><path class="cls-11" d="M54.62,97.34A.27.27,0,0,1,54.5,97,.28.28,0,0,1,54.62,97.34Z"/><path class="cls-11" d="M52.42,90a.15.15,0,0,1-.07-.21C52.44,89.82,52.46,89.89,52.42,90Z"/><path class="cls-11" d="M55.54,100.41a.15.15,0,0,1-.07-.24A.19.19,0,0,1,55.54,100.41Z"/><path class="cls-11" d="M54.4,96.58a.15.15,0,0,1-.06-.2A.13.13,0,0,1,54.4,96.58Z"/><path class="cls-11" d="M53.46,93.51a.34.34,0,0,1-.07-.11s0,0,0-.06a.44.44,0,0,1,.08.11S53.47,93.49,53.46,93.51Z"/><path class="cls-11" d="M53.2,92.59a.15.15,0,0,1-.06-.23A.16.16,0,0,1,53.2,92.59Z"/><path class="cls-6" d="M75.59,42.29a13.21,13.21,0,0,1,.92,2.65c1.22,4.26,2.61,8.47,3.87,12.71q.78,2.64,1.58,5.27a.86.86,0,0,1,.08.44c-.43.16-.07.48-.17.91-.27-.69-.54-1.21-.69-1.76-.74-2.66-1.62-5.28-2.42-7.92-1.18-3.85-2.26-7.73-3.5-11.56C75.16,42.72,74.93,42.28,75.59,42.29Z"/><path class="cls-8" d="M57.33,29c-2.36.24-4.6.86-6.91,1-.14-.41,0-.56.32-.61L55,28.79a10.74,10.74,0,0,1,1.94-.31C57.31,28.5,57.31,28.51,57.33,29Z"/><path class="cls-12" d="M51.86,27.71c0-.05,0-.1,0-.15.47-.43,1.09-.22,1.64-.37l.06-.38a8.64,8.64,0,0,0,1.51-.13c.31-.08.71.14,1.07-.05.51.06,1-.24,1.5-.14.14,0,.31,0,.52.21A45,45,0,0,1,51.86,27.71Z"/><path class="cls-11" d="M56.15,26.63c-.36.19-.76,0-1.07.05a8.64,8.64,0,0,1-1.51.13,1.33,1.33,0,0,0-.68.08c-.18.08-.39.14-.55-.06a5.8,5.8,0,0,1,1.83-.38,13.63,13.63,0,0,1,2.46-.35c-.1.38-.44.15-.66.28C55.92,26.52,56.14,26.51,56.15,26.63Z"/><path class="cls-12" d="M59.67,26.17a16.55,16.55,0,0,0,2.62-.38,2.26,2.26,0,0,1,.82,0c-1.47.53-3,.46-4.5.89-.2-.35.15-.35.16-.52Z"/><path class="cls-6" d="M73.09,34.07a6.07,6.07,0,0,1,.6,1.94c-.2,0-.31.08-.46.22a6.21,6.21,0,0,1-.51-1.92h0A.37.37,0,0,0,73.09,34.07Z"/><path class="cls-11" d="M59.67,26.17h-.9c-.29-.26-.61-.14-.91-.07a1,1,0,0,1-.92,0,12.65,12.65,0,0,1,2.45-.4C59.29,25.93,59.55,26,59.67,26.17Z"/><path class="cls-6" d="M74.5,38.75a.42.42,0,0,1,.18.47c-.5-.09-.17.31-.27.45h0a3,3,0,0,1-.61-1.84h0a.75.75,0,0,1,.3.62C74.11,38.74,74.3,38.75,74.5,38.75Z"/><path class="cls-11" d="M82.54,65.43a.78.78,0,0,1,.3.78l-.29.25A.75.75,0,0,1,82.54,65.43Z"/><path class="cls-11" d="M62.91,25.12a2.93,2.93,0,0,1,1.24-.22A1,1,0,0,1,62.91,25.12Z"/><path class="cls-11" d="M60,25.59a1.85,1.85,0,0,1,1.08-.21C60.75,25.62,60.43,25.87,60,25.59Z"/><path class="cls-11" d="M73.8,37.84a1.62,1.62,0,0,1-.4-1.25,2.05,2.05,0,0,1,.4,1.25Z"/><path class="cls-12" d="M49,29.78c.3-.11.48,0,.52.25a.22.22,0,0,1-.22.25C49,30.27,48.94,30.08,49,29.78Z"/><path class="cls-11" d="M61.69,25.3a1,1,0,0,1,.77-.14C62.26,25.56,62,25.46,61.69,25.3Z"/><path class="cls-6" d="M72.08,30.79a1.27,1.27,0,0,1,.25.77A.55.55,0,0,1,72.08,30.79Z"/><path class="cls-11" d="M86.15,76.62a.35.35,0,0,1,.1.3c-.16,0-.33.06-.44-.09S86,76.64,86.15,76.62Z"/><path class="cls-11" d="M66.45,24.54a.38.38,0,0,1,.46-.07C66.79,24.7,66.63,24.71,66.45,24.54Z"/><path class="cls-6" d="M72.73,32.92a.75.75,0,0,1,.2.63C72.6,33.43,72.75,33.15,72.73,32.92Z"/><path class="cls-11" d="M74,36.91a.76.76,0,0,1,.19.63C73.83,37.41,74,37.13,74,36.91Z"/><path class="cls-11" d="M86,77.57s0-.1.06-.11a.1.1,0,0,1,.15.09.14.14,0,0,1-.06.11C86,77.69,86,77.65,86,77.57Z"/><path class="cls-11" d="M64.74,26.17a.2.2,0,0,1-.31.07C64.5,26.06,64.59,26,64.74,26.17Z"/><path class="cls-11" d="M63.82,26.33a.2.2,0,0,1-.31.06C63.59,26.2,63.68,26.11,63.82,26.33Z"/><path class="cls-11" d="M64.75,24.83a.28.28,0,0,1,.32-.06C65,25,64.9,25,64.75,24.83Z"/><path class="cls-11" d="M82.11,64.93c.19.11.08.25.13.4C82,65.2,82.17,65.05,82.11,64.93Z"/><path class="cls-6" d="M74.41,39.67c.25.16.13.41.16.62h0c-.25-.15-.12-.4-.15-.61Z"/><path class="cls-11" d="M72.72,34.31a.23.23,0,0,1-.09-.36c.16.1.06.25.09.36Z"/><path class="cls-6" d="M74.87,41.36c.21.11.14.3.15.46h0c-.2-.1-.14-.29-.15-.46Z"/><path class="cls-6" d="M74.57,40.29a.23.23,0,0,1,.09.36c-.16-.09-.06-.24-.1-.36Z"/><path class="cls-6" d="M74.87,41.36a.22.22,0,0,1-.09-.36c.16.09.06.25.09.36Z"/><path class="cls-11" d="M62.14,26.6l-.3,0C61.92,26.48,62,26.46,62.14,26.6Z"/><path class="cls-11" d="M82.05,64.49l0,.11s0,0,0,0a.6.6,0,0,1,.06-.11Z"/><path class="cls-11" d="M62.91,26.47l-.3,0C62.69,26.33,62.79,26.31,62.91,26.47Z"/><path class="cls-6" d="M75,40.1a.08.08,0,0,1,0,0c-.12-.06-.13-.17-.12-.29a.2.2,0,0,1,.07.06Z"/><path class="cls-6" d="M75,41.82a.18.18,0,0,1,.12.22c-.15,0-.1-.14-.12-.22Z"/><path class="cls-6" d="M75.08,40.37h0L75,40.31a.24.24,0,0,0,.1.28.43.43,0,0,0,0-.05h0Z"/><path class="cls-11" d="M61.07,26.75l-.16,0C60.94,26.7,61,26.65,61.07,26.75Z"/><path class="cls-11" d="M82.69,66.82l-.07-.08,0,0s0,0,0,.06Z"/><path class="cls-6" d="M72.62,32.54a.2.2,0,0,1,.07.24A.18.18,0,0,1,72.62,32.54Z"/><path class="cls-6" d="M74.75,39.46a.16.16,0,0,1,.08.22A.17.17,0,0,1,74.75,39.46Z"/><path class="cls-13" d="M52.34,26.83c.16.2.37.14.55.06a1.33,1.33,0,0,1,.68-.08l-.06.38c-.55.15-1.17-.06-1.64.37-1.21.08-2.41.25-3.61.42-1.48.21-2.95.45-4.43.65a7.07,7.07,0,0,1-1.94.3c0-.37.26-.42.57-.46s.85,0,1.13-.38a.81.81,0,0,1,.46,0,4,4,0,0,0,2.44-.34s0-.05,0-.07a.73.73,0,0,1,.46-.05,2,2,0,0,0,1.84-.25.66.66,0,0,1,.46,0,5,5,0,0,0,2-.17c.2,0,.49.07.57-.26A.8.8,0,0,1,52.34,26.83Z"/><path class="cls-6" d="M43.14,29.28c-.13.42-.37.34-.63.13C42.68,29.16,42.92,29.27,43.14,29.28Z"/><path class="cls-11" d="M51.88,26.87c-.08.33-.37.23-.57.26a5,5,0,0,1-2,.17A9.63,9.63,0,0,1,51.88,26.87Z"/><path class="cls-11" d="M46.51,27.64s0,.06,0,.07a4,4,0,0,1-2.44.34A10.81,10.81,0,0,1,46.51,27.64Z"/><path class="cls-8" d="M91.68,26.66c.17,0,.34-.05.39-.25l.74.7a1,1,0,0,0-.16.48A2.08,2.08,0,0,1,91.68,26.66Z"/><path class="cls-11" d="M48.81,27.34a2,2,0,0,1-1.84.25A5,5,0,0,1,48.81,27.34Z"/><path class="cls-12" d="M92.65,27.59a1,1,0,0,1,.16-.48l.92.36c-.08.15-.28,0-.38.17.11.13.36,0,.39.26A1.52,1.52,0,0,1,92.65,27.59Z"/><path class="cls-13" d="M83.48,68l-.26.08c-.13-.18,0-.42-.17-.62s.09-.19.22-.21A1.62,1.62,0,0,1,83.48,68Z"/><path class="cls-8" d="M98.06,30.58a.41.41,0,0,1-.28.26,4.69,4.69,0,0,0-1-1.14c-.36.16-.27.64-.57.83-.08-.28.14-.6-.2-.87A.58.58,0,0,1,96,29l.2.37a31.93,31.93,0,0,1,4.86-3.82c.07.17.17.24.35.14v.05C100.05,27,98.46,27.93,97,29.1,97.22,29.65,97.8,30,98.06,30.58Z"/><path class="cls-8" d="M96,29a.58.58,0,0,0,.07.7c.34.27.12.59.2.87v0c-.14-.07-.32-.08-.37-.25-.14-.43-.47-.48-.85-.45.08-.1.15-.26.24-.27.48-.05.41-.38.38-.7l.33-.05A.11.11,0,0,1,96,29Z"/><path class="cls-12" d="M99.09,23.77c-.18,0-.32.08-.49.11.17-.79.17-.79.64-.8A.72.72,0,0,1,99.09,23.77Z"/><path class="cls-12" d="M101.4,25.65c-.18.1-.28,0-.35-.14a.13.13,0,0,1,.15-.11A.24.24,0,0,1,101.4,25.65Z"/><path class="cls-8" d="M96,28.84l-.33.05a.23.23,0,0,1-.05-.25l.35.05Z"/><path class="cls-12" d="M98.93,24.19c-.15-.11-.06-.13,0-.15Z"/><path class="cls-12" d="M107.26,61.19c-.07-.34.13-.74-.2-1s-.67,0-1,0c-1.5,0-3,0-4.49.13a12,12,0,0,0-2.91.29v.89c0,.84.14,1,1,1,2.19.09,4.37-.22,6.55-.16a1.58,1.58,0,0,0,.38,0C107.35,62.15,107.44,62,107.26,61.19Zm-.91.72c-2.26,0-4.51.27-6.78.16l-.39,0a2.65,2.65,0,0,1-.05-1.13l7.52-.32a.87.87,0,0,1,.27.72C106.94,61.71,106.78,61.92,106.35,61.91Z"/><path class="cls-15" d="M95,29.86c.38,0,.71,0,.85.45.05.17.23.18.37.25s-.07.23-.23.31c-.31-.11-.28-.49-.51-.7s-.33.27-.55.3a.35.35,0,0,1,0-.14c0-.09,0-.14-.12-.12a.05.05,0,0,1,0-.08C94.81,30,94.92,29.92,95,29.86Z"/><path class="cls-8" d="M93.92,31.93c-.1-.07-.21-.14-.14-.28s.12,0,.19,0A.23.23,0,0,1,93.92,31.93Z"/><path class="cls-15" d="M95,29.86c-.11.06-.22.13-.23.27-.24-.19-.08-.42,0-.61A5.3,5.3,0,0,1,95.29,28c.28.14.22.41.31.6a.23.23,0,0,0,.05.25c0,.32.1.65-.38.7C95.18,29.6,95.11,29.76,95,29.86Z"/><path class="cls-12" d="M94.81,30.21c.1,0,.13,0,.12.12Z"/><path class="cls-18" d="M46.94,44.35a1.29,1.29,0,0,0-.69-1.07c.33-1.37-.23-2-1.55-1.94-.51,0-1,.15-1.49.22a15.45,15.45,0,0,0,1.14,4.53,6.14,6.14,0,0,0,1.83-.37A1,1,0,0,0,46.94,44.35Zm-2.49-1.16-.19-.86a.76.76,0,0,1,1,0,.44.44,0,0,1,.14.54C45.19,43.19,44.86,43.22,44.45,43.19ZM46,44.68c-.18.41-.54.37-.9.35a1.33,1.33,0,0,1-.24-1,1,1,0,0,1,1.06,0A.47.47,0,0,1,46,44.68Z"/><path class="cls-18" d="M63.64,41.84a1.41,1.41,0,0,1-.66.23c-.79-.54-1.19-1.49-2.06-2.1,0,.84.46,1.51.54,2.25-.19.26-.45.23-.79.21a26.71,26.71,0,0,1-1.21-4.28c.47-.29.78-.23,1,.08s.62.69.92,1a2.11,2.11,0,0,0,.67.61,14.12,14.12,0,0,0-.4-2.11.5.5,0,0,1,.66-.21A16.88,16.88,0,0,1,63.64,41.84Z"/><path class="cls-18" d="M56.27,43.49l-.7.28a37.06,37.06,0,0,1-1.28-4.51.9.9,0,0,1,.82-.27c.4.36.21,1,.67,1.46.14-.42.27-.79.41-1.16.24-.68.28-.71,1.16-.73A3.06,3.06,0,0,1,57,40a1.08,1.08,0,0,0,.34,1.4,18.43,18.43,0,0,1,1.37,1.42c-.79.53-.94.52-1.51-.07-.28-.28-.55-.58-.86-.91C56,42.4,56.46,42.91,56.27,43.49Z"/><path class="cls-18" d="M54.57,42.52a5.25,5.25,0,0,0-.6-2,1.92,1.92,0,0,0-2-1,1.7,1.7,0,0,0-1.18,1.75,3.37,3.37,0,0,0,1,2.53,1.63,1.63,0,0,0,1.78.26A1.57,1.57,0,0,0,54.57,42.52Zm-1.51.84c-.37.1-.62-.13-.81-.43a3.51,3.51,0,0,1-.48-1.6.72.72,0,0,1,.52-.84.7.7,0,0,1,.82.52,4.21,4.21,0,0,1,.47,1.61A.65.65,0,0,1,53.06,43.36Z"/><path class="cls-18" d="M66.69,38.78a6.3,6.3,0,0,1,.5,1.54.57.57,0,0,1-.18.55,1.71,1.71,0,0,1-2.51.18,3.48,3.48,0,0,1-.91-3.21,1.39,1.39,0,0,1,1.38-1c.75,0,1.19.34,1.47,1.21-.32.27-.64.4-1,0a.59.59,0,0,0-.75-.18.6.6,0,0,0-.31.65,3.42,3.42,0,0,0,.63,1.77.59.59,0,0,0,.73.28c.2-.07.37-.17.35-.42s-.08-.4-.34-.44a1,1,0,0,1-.3,0,.36.36,0,0,1-.24-.35.32.32,0,0,1,.25-.35C65.89,38.92,66.23,38.69,66.69,38.78Z"/><path class="cls-18" d="M49.78,41a1.37,1.37,0,0,0-1.18-.54,1.66,1.66,0,0,0-1.64,2c0,.25.13.49.15.74A2.15,2.15,0,0,0,48.43,45a1.52,1.52,0,0,0,2.23-1.17A3.6,3.6,0,0,0,49.78,41Zm-.12,2.79c-.17.56-.64.69-1,.27a2.77,2.77,0,0,1-.67-2.2c0-.57.63-.73,1.08-.32s.53,1.17.71,1.71A2.84,2.84,0,0,1,49.66,43.75Z"/><path class="cls-18" d="M57.84,38.46a1,1,0,0,1,.84-.13,13.17,13.17,0,0,1,.66,2.16,10.3,10.3,0,0,1,.61,2.1.8.8,0,0,1-.84.23C58.6,41.4,58.25,39.91,57.84,38.46Z"/><path class="cls-3" d="M52.93,60.25a15.21,15.21,0,0,1-1.91.47c-.17,0-.32,0-.39.16a1.3,1.3,0,0,1-1,.17c-.63-.18-.89-.71-.68-1.54s.44-1.62.68-2.43a3,3,0,0,0-.64-2.9.4.4,0,0,1,.2-.66,14.59,14.59,0,0,1,1.7-.43c.34-.07.51.17.45.52a3.1,3.1,0,0,0,1.06,2.87,22.48,22.48,0,0,1,1.85,1.67,1.07,1.07,0,0,1,.41,1.15h-.45a.81.81,0,0,0-.31-.87l-1.31-1.1a1.75,1.75,0,0,0-.8.29h0A5.92,5.92,0,0,0,50.3,58a.43.43,0,0,0-.35.27A13.33,13.33,0,0,0,49.47,60c-.1.52.32.82.81.64a36.79,36.79,0,0,1,3.73-1V60a1.77,1.77,0,0,1-.68.15C53.16,60.07,53,60.05,52.93,60.25Z"/><path class="cls-17" d="M60.23,54.79c-.07-.3-.37-.4-.69-.24a.76.76,0,0,0-.45.54c.42.28.23.64,0,1l-.72.16c-.5-.47-.23-1.34-.93-1.68A8.14,8.14,0,0,0,58,56.89c.89-.35,1.82-.31,2.72-.72A9.3,9.3,0,0,1,60.23,54.79Zm-.45.35-.07-.06,0,0,.05,0Z"/><path class="cls-17" d="M65.83,53.79c0-.81,0-.81.85-.82.24,0,.33-.12.47-.66.44-.21.52.27.85.4-.49.64.11,1,.29,1.52-.56.15-.56.15-1-.89-.14-.12-.3,0-.44,0a.65.65,0,0,0-.48.08c.24.34,1.06.17.84.91a.51.51,0,0,1-.49.4c-.31,0-.61,0-.7-.35.21-.28.5.18.73-.17-.23-.28-.62-.25-.9-.41Z"/><path class="cls-17" d="M62.1,55.14c-.07-.67-.41-1-1.21-1.09-.23-.48-.23-.48-.73-.47a7.87,7.87,0,0,1,.61,2c.07.4.27.5.64.44A.76.76,0,0,0,62.1,55.14Zm-.7.5a1.09,1.09,0,0,1-.24-1.1C61.75,55.08,61.76,55.13,61.4,55.64Z"/><path class="cls-17" d="M62.37,53.38A2.88,2.88,0,0,1,64,52.86c.25.5-.25.48-.33.67-.08.66.56,1.23.19,2-.63-.54-.38-1.31-.79-1.8C62.94,53.53,62.65,53.74,62.37,53.38Z"/><path class="cls-17" d="M65.82,53.78c-.15.41-.15.41-.74.63.19.29.57,0,.73.24a.71.71,0,0,1-.9.33,1.15,1.15,0,0,1-.39-1.46.62.62,0,0,1,1-.08,3.07,3.07,0,0,1,.28.35Z"/><path class="cls-17" d="M54.26,59.29h.45c0,.45-.29.64-.71.66v-.38Z"/><path class="cls-17" d="M50.63,60.88c.07-.21.22-.2.39-.16C50.93,60.86,50.83,61,50.63,60.88Z"/><path class="cls-17" d="M52.93,60.25c.08-.2.23-.18.39-.14C53.23,60.25,53.13,60.38,52.93,60.25Z"/><path class="cls-3" d="M64.41,86.73a1.3,1.3,0,0,0-.87-.27,9.08,9.08,0,0,0-2.44.13,9.62,9.62,0,0,0-4.07,2c-.21.17-.4.39-.21.66a13.31,13.31,0,0,0,1.93,2.52A9.62,9.62,0,0,1,64.22,90,15.57,15.57,0,0,0,64.41,86.73Zm-3,2.37v.74c-.68.4-.54-.35-.81-.56s-.41.18-.65,0c-.28-.54-.28-.54.35-.89,0-.65,0-.65.37-.83a.43.43,0,0,1,.24.27c0,.09.07.19.1.25.24.18.48,0,.7.09C62,88.37,61.93,88.73,61.37,89.1Z"/><path class="cls-17" d="M80.08,83.68c-.48.64-.82.71-1.53.31-.19,0-.14.25-.23.36a.79.79,0,0,1-1.25.08,1.77,1.77,0,0,1-.46-1.62.81.81,0,0,1,.67-.66.75.75,0,0,1,.73.33.25.25,0,0,1,0,.39c-.29.13-.34-.3-.6-.23-.51.54-.4,1.09.34,1.55.29-.19.33-.61.77-.73s0-.48,0-.71c.63-.67,1-.59,1.29.24.08.25,0,.56.35.7Z"/><path class="cls-17" d="M57.9,87.42c-.33-.8-.32-.89.29-1.2a7.29,7.29,0,0,1,4.12-1,.87.87,0,0,1,.23.88C60.84,86,59.4,86.81,57.9,87.42Z"/><path class="cls-17" d="M67.68,85.1c-.82,0-.07.69-.41.91-.34,0-.47-.3-.69-.49a.32.32,0,0,0-.42,0,.28.28,0,0,0-.12.34A14.91,14.91,0,0,0,66.82,88c.64-.24,0-.77.3-1,.46,0,.54,1,1.26.53A9.82,9.82,0,0,0,67.68,85.1ZM67,86.7l0,0v0Zm.48-.32c-.08-.07-.11-.15,0-.23C67.5,86.23,67.53,86.31,67.43,86.38Z"/><path class="cls-17" d="M71.39,85.78c-.32-.07-.51-.58-.84-.38s-.06.64,0,1,.11.41-.25.49a3.74,3.74,0,0,1-.47-1.54c0-.23.2-.34.41-.36a1.23,1.23,0,0,0,.82-.27.55.55,0,0,1,.83.18c-.07.32-.39.1-.5.29.14.15.34.08.5.15a.59.59,0,0,1,.38.61c0,.31-.22.43-.48.51a.59.59,0,0,1-.69-.2c-.15-.22,0-.31.21-.35.13.14.26.23.43.07C71.69,85.73,71.52,85.79,71.39,85.78Z"/><path class="cls-17" d="M76.16,85.37a9.49,9.49,0,0,0-.35-1.49c-.18-.55-.29-.58-.83-.39a.66.66,0,0,0-.48.76,1.77,1.77,0,0,0,.4,1c.28.22.49-.12.7,0,.12.41-.45.21-.43.57s.35.26.59.13S76.22,85.72,76.16,85.37Zm-.74-.54c-.54-.26-.59-.43-.21-1C75.41,84.2,75.57,84.47,75.42,84.83Z"/><path class="cls-17" d="M82.19,82.23a.65.65,0,0,0-.71-.65c-.42,0-.61.34-.71.69a1.2,1.2,0,0,0,.54,1.1.76.76,0,0,0,1.06-.27C82.33,82.8,82.2,82.53,82.19,82.23Zm-.66.63a.24.24,0,0,1,.37,0A.22.22,0,0,1,81.53,82.86Z"/><path class="cls-17" d="M68.43,85.51c.54.27.27.9.66,1.29.33-.54-.09-1,0-1.54.54.23.71.68.67,1.65,0,0-.07.09-.11.11-1,.46-1,.45-1.33-.68C68.31,86.08,68.13,85.82,68.43,85.51Z"/><path class="cls-17" d="M72.88,84.25a1.82,1.82,0,0,1,.18-.17c1-.32,1-.27,1.3.7.07.26.13.53.2.83-.45.13-.49-.19-.56-.44s-.06-.55-.39-.74c-.29.48.28,1-.13,1.48C73,85.4,73.09,84.78,72.88,84.25Z"/><path class="cls-17" d="M72.25,84.34c.7.36.51,1.11.8,1.72C72.45,86,72.4,85.86,72.25,84.34Z"/><path class="cls-17" d="M80.09,83.69a5.4,5.4,0,0,0-.33-1.39c.16-.24.43-.29.74-.41a4.11,4.11,0,0,0,0,1.68.49.49,0,0,1-.47.11Z"/><path class="cls-3" d="M60.46,74.24a20.76,20.76,0,0,0-1-3.35l-7,2a21.71,21.71,0,0,0,.93,3.2.77.77,0,0,0,1.08.45c1.81-.55,3.62-1,5.44-1.54A.67.67,0,0,0,60.46,74.24Zm-2.84-.74c-.14.27-.5.15-.69.52-.07.15.29.41,0,.71-.58.18-.41-.52-.71-.66s-.89.33-.87-.43c.07-.3.48-.16.56-.4s-.13-.53,0-.78c.45-.06.45-.06.8.5h0l0,0,.08,0h0l.23,0,.35,0C57.56,73.17,57.66,73.32,57.62,73.5Z"/><path class="cls-3" d="M58.13,69.53a2.83,2.83,0,0,0-.52.13.66.66,0,0,1-.93-.23.88.88,0,0,0-.62-.41,1.9,1.9,0,0,0-2.13,1.6c-.31.1-.64.23-1,.32-.92.25-1.05.56-.59,1.53,2.32-.61,4.6-1.4,7-1.91C59.29,69.61,59,69.33,58.13,69.53Zm-3.55,1c-.21-.5.1-.6.38-.71.85-.34,1.09-.32,1.46.14A7.85,7.85,0,0,1,54.58,70.51Z"/><path class="cls-17" d="M67.39,70.42c-.33-.11-.41.28-.72.22s-.34-.43-.18-.7.47.22.68-.07c-.09-.19-.06-.44-.29-.56-.74,0-.81.11-1,1a.86.86,0,0,0-.85-.59c-.44,0-.52.43-.78.69-.53-.63-1.08-1.11-2-.5.19.73.4,1.51.62,2.37.84-.21,1.44-.52,1.43-1.55.29.53.53.89,1.06.83s.56-.47.64-.92c.3.39.57.76,1,.53A.57.57,0,0,0,67.39,70.42Zm-4,1.23c-.4-.43-.34-.93-.49-1.38.48-.2.74,0,.85.36S64,71.42,63.36,71.65Zm1.92-.43c-.48-.43-.49-.53-.08-1C65.51,70.53,65.68,70.84,65.28,71.22Z"/><path class="cls-17" d="M72.46,68.55V67c.5.33.62-.28,1-.27.37.55-.21.5-.46.67v1.67c0,.23,0,.48-.24.58s-.39-.13-.51-.33c-.36-.61-.73-1.21-1.11-1.83C71.58,67.37,71.58,67.37,72.46,68.55Z"/><path class="cls-17" d="M70.71,68.33c-.2-.14-.3,0-.41,0s-.31,0-.45.17v.42a.4.4,0,0,1,.09.47c-.2-.09-.15-.26-.19-.39-.56-.44-.94-.45-1.23,0A1.21,1.21,0,0,0,69,70.5a.57.57,0,0,0,.43,0c.47-.13.44-.61.64-1,.17.27.1.79.65.48A2,2,0,0,1,70.71,68.33ZM69.18,70.1a.7.7,0,0,1-.19-1C69.51,69.43,69.55,69.6,69.18,70.1Z"/><path class="cls-17" d="M74.28,68.62c.21-.31.46,0,.72-.06,0-.29-.29-.24-.43-.31s-.48-.33-.44-.65a.55.55,0,0,1,.54-.45.53.53,0,0,1,.63.46c-.14.15-.26.08-.37,0a.26.26,0,0,0-.31,0c.08.22.3.17.46.24s.59.24.52.64a.8.8,0,0,1-.92.47C74.49,68.94,74.27,68.88,74.28,68.62Z"/><path class="cls-17" d="M68.63,70.71c-.48.29-.78.2-.89-.19a6.11,6.11,0,0,0-.46-1.19.56.56,0,0,1,.16-.76c.28,0,.4.29.68.39A1.44,1.44,0,0,0,68.63,70.71Z"/><path class="cls-17" d="M76.34,66.28c.3,0,.43.31.61.49-.11.63-.11.63.38,1.41-.14.23-.39.45-.57.15a3.26,3.26,0,0,1-.63-1.83C76.14,66.38,76.24,66.34,76.34,66.28Z"/><path class="cls-17" d="M75.49,66.89c.22-.06.34,0,.35.08.06.54.43,1,.43,1.52-.12.12-.26.19-.3.11A4.18,4.18,0,0,1,75.49,66.89Z"/><path class="cls-17" d="M74.07,69a.35.35,0,0,1-.34.06,7.34,7.34,0,0,1-.38-1.63C73.78,67.68,73.78,67.68,74.07,69Z"/><path class="cls-17" d="M69.65,104.69h0Zm.16.31h0Zm3.35-1.2c-.11-.6-.47-1-.88-1-.77,0-.76.71-.84,1.25-.17,0-.21-.07-.23-.15a.69.69,0,0,0-.82-.51.81.81,0,0,0-.69.73,5.65,5.65,0,0,0,0,.59h0l0,0h0l0,0s0,0,0,0,0,0,0,0h0s0,0,0,0a.34.34,0,0,1,0,.1.13.13,0,0,1,0,.06.84.84,0,0,1,.19.09c.25.25.49.56.91.41a1,1,0,0,0,.58-1,1,1,0,0,1,.05-.2c.58.68.76.75,1.19.53A.85.85,0,0,0,73.16,103.8Zm-2.39,1.13c-.57-.22-.55-.58-.42-1C70.93,104.08,71,104.13,70.77,104.93Zm1.67-.54c-.44-.22-.37-.62-.45-.94.21-.22.44-.21.51,0S72.84,104.09,72.44,104.39Z"/><path class="cls-17" d="M76.87,101.78c0-.39-.21-.72-.24-1.09.42-.32.54-.3.68.1a3.2,3.2,0,0,0,.48,1.3h0c-.09.32.09.65,0,1-.66.27-.81-.52-1.28-.67-.2.37.19.73,0,1.08-.25.16-.42.07-.5-.15-.24-.71-.47-1.44-.7-2.14.3-.38.54-.35.85-.07s.31.61.71.63c0,.08,0,.17.08.21C77,101.89,77,101.83,76.87,101.78Z"/><path class="cls-17" d="M69.76,105a.16.16,0,0,1-.08-.06,0,0,0,0,1,0,0,.14.14,0,0,1,0-.07s0,0,0,0v0a.28.28,0,0,1,0-.09c-.3-.08-.32-.29-.33-.57,0-.7-.41-1-1.06-.76-.25.08-.57.08-.77.39a14.17,14.17,0,0,0,.67,2.51c.66-.15,1.35-.09,1.47-1a2.49,2.49,0,0,1,.17-.31h0Zm-1.39-1.14a.26.26,0,0,1,.36.19c.06.34-.22.38-.49.47C68.1,104.2,68.05,104,68.37,103.85Zm.25,1.76c-.13-.23-.33-.47,0-.68a.32.32,0,0,1,.51.22C69.22,105.51,69,105.61,68.62,105.61Zm1-.92h0Zm.16.31h0Z"/><path class="cls-17" d="M79.48,101.33c.11-.29-.21-.52-.13-.81.45-.26.48.18.67.4.17-.23,0-.55.16-.74s.29.07.39.18.1.24.25.27c.12-.26-.13-.7.42-.8a7.24,7.24,0,0,1,.18,2c-.58.37-.49-.39-.81-.43-.17.25,0,.56-.12.8-.38.15-.51-.12-.64-.36s-.1-.47-.38-.52Z"/><path class="cls-17" d="M73.12,101.62c.52.23.26.81.62,1.13.23-.16.19-.73.73-.63.13.31-.19.51-.19.79a5.58,5.58,0,0,0,.77,1c-.39.32-.61-.15-.9-.13a1.42,1.42,0,0,1-.46.73,13.89,13.89,0,0,1-.81-2.57C72.84,101.81,73,101.72,73.12,101.62Z"/><path class="cls-17" d="M77.78,102.08Zm1.69-.76h0Zm0,0c-.23,0-.26-.18-.37-.3a.64.64,0,0,0-1.15.11,1.91,1.91,0,0,0-.16.94c.15.06.17.23.26.34.23.29.47.53.88.38a.81.81,0,0,0,.55-.88C79.48,101.72,79.47,101.52,79.47,101.33Zm-.57.78a.2.2,0,0,1-.31.11c-.31-.23-.25-.55-.14-.87l.16,0A.55.55,0,0,1,78.9,102.11Z"/><path class="cls-15" d="M99.13,60.9l7.52-.32a.86.86,0,0,1,.27.72c0,.41-.14.62-.57.61-2.26,0-4.52.27-6.78.16l-.39,0A2.65,2.65,0,0,1,99.13,60.9Z"/><path class="cls-18" d="M45.07,45a1.32,1.32,0,0,1-.24-1,.93.93,0,0,1,1.05,0,.46.46,0,0,1,.09.57C45.79,45.09,45.43,45.05,45.07,45Z"/><path class="cls-18" d="M44.45,43.19l-.19-.86a.77.77,0,0,1,1,0,.44.44,0,0,1,.14.55C45.19,43.19,44.86,43.22,44.45,43.19Z"/><path class="cls-18" d="M53.58,42.62a.65.65,0,0,1-.52.74c-.37.1-.62-.13-.81-.43a3.51,3.51,0,0,1-.48-1.6.72.72,0,0,1,.52-.84.7.7,0,0,1,.82.52A4.21,4.21,0,0,1,53.58,42.62Z"/><path class="cls-18" d="M49.74,43.21a2.84,2.84,0,0,1-.08.54c-.17.56-.64.69-1,.27a2.77,2.77,0,0,1-.67-2.2c0-.57.63-.73,1.08-.32S49.56,42.67,49.74,43.21Z"/><path class="cls-19" d="M54,58.42l-1.31-1.1-.44.1h0l-.09,0a.76.76,0,0,0-.18.09l-.08.05h0A6.36,6.36,0,0,0,50.3,58a.46.46,0,0,0-.35.28A13.33,13.33,0,0,0,49.47,60c-.1.52.32.82.81.64a36.79,36.79,0,0,1,3.73-1l.25-.29A.81.81,0,0,0,54,58.42Zm-3.53,1.13a.26.26,0,0,1-.23-.33c0-.17.17-.23.33-.23a.24.24,0,0,1,.27.24C50.75,59.47,50.61,59.58,50.42,59.55Zm2-1.27a.42.42,0,0,1-.51.22.49.49,0,0,1-.36-.58l0-.05s0,0,0,0,0,0,0,0l0,0c.05,0,.13-.09.18-.14a1.71,1.71,0,0,1,.34.13C52.39,57.86,52.57,58,52.42,58.28Z"/><path class="cls-17" d="M51.84,57.61a2,2,0,0,1,.34.13c.21.12.39.28.24.54a.42.42,0,0,1-.51.22.49.49,0,0,1-.36-.58c0-.16.19-.22.3-.32Z"/><path class="cls-19" d="M59.81,55.09l0,0-.07-.06,0,0Z"/><path class="cls-19" d="M61.16,54.54c.59.54.6.59.24,1.1A1.09,1.09,0,0,1,61.16,54.54Z"/><path class="cls-19" d="M61.37,89.1v.74c-.68.4-.54-.35-.81-.56s-.41.18-.65,0c-.28-.55-.28-.55.35-.9,0-.65,0-.65.37-.83a.43.43,0,0,1,.24.27c0,.09.08.19.1.25.24.18.48,0,.7.08C62,88.37,61.93,88.73,61.37,89.1Z"/><path class="cls-19" d="M67.42,86.15c.08.08.11.16,0,.23S67.32,86.23,67.42,86.15Z"/><polygon class="cls-19" points="66.98 86.66 66.99 86.71 66.95 86.7 66.98 86.66"/><path class="cls-19" d="M71.39,85.78c.13,0,.3,0,.34.17-.17.16-.3.07-.43-.07Z"/><path class="cls-19" d="M75.21,83.83c.2.37.36.64.21,1C74.88,84.57,74.83,84.4,75.21,83.83Z"/><path class="cls-19" d="M81.9,82.84a.22.22,0,0,1-.37,0A.24.24,0,0,1,81.9,82.84Z"/><path class="cls-19" d="M57.45,73c.11.2.21.35.17.53s-.5.15-.69.52c-.07.15.29.41,0,.71-.58.18-.41-.52-.71-.66s-.89.33-.87-.43c.07-.3.48-.16.56-.4s-.13-.53,0-.78c.45-.06.45-.06.79.5a.62.62,0,0,0,.38,0Z"/><path class="cls-19" d="M56.41,69.94a7.63,7.63,0,0,1-1.83.57c-.21-.5.1-.6.38-.71C55.81,69.47,56.05,69.49,56.41,69.94Z"/><path class="cls-19" d="M63.36,71.65c-.4-.43-.34-.93-.49-1.38.48-.2.74,0,.85.36S64,71.42,63.36,71.65Z"/><path class="cls-19" d="M65.2,70.21c.31.32.48.63.08,1C64.8,70.79,64.79,70.7,65.2,70.21Z"/><path class="cls-19" d="M69.18,70.1a.7.7,0,0,1-.19-1C69.51,69.43,69.55,69.6,69.18,70.1Z"/><path class="cls-19" d="M69.85,68.93a.4.4,0,0,1,.09.47c-.2-.09-.15-.26-.19-.39Z"/><path class="cls-19" d="M72.44,104.39c-.44-.22-.37-.62-.45-1,.21-.21.44-.2.51,0S72.84,104.09,72.44,104.39Z"/><path class="cls-19" d="M70.77,104.93c-.57-.22-.55-.58-.42-1C70.93,104.08,71,104.13,70.77,104.93Z"/><path class="cls-19" d="M69.81,105c-.17-.05-.19-.17-.16-.32C69.86,104.72,69.84,104.86,69.81,105Z"/><path class="cls-19" d="M76.87,101.78c.1,0,.14.11.07.22-.12,0-.1-.13-.08-.21Z"/><path class="cls-19" d="M68.62,105.61c-.13-.24-.33-.47,0-.68a.32.32,0,0,1,.51.22C69.22,105.51,69,105.61,68.62,105.61Z"/><path class="cls-19" d="M68.23,104.51c-.13-.31-.18-.55.15-.66a.26.26,0,0,1,.35.19C68.79,104.38,68.51,104.42,68.23,104.51Z"/><path class="cls-19" d="M78.45,101.35c.11,0,.14,0,.16,0a.55.55,0,0,1,.29.79.2.2,0,0,1-.31.11C78.28,102,78.34,101.67,78.45,101.35Z"/><path class="cls-17" d="M50.79,59.23c0,.24-.18.35-.37.32a.26.26,0,0,1-.23-.33c0-.17.17-.23.33-.23A.24.24,0,0,1,50.79,59.23Z"/><path class="cls-4" d="M89,126.11l-.45-17.61,1.47-.23.84,9.66s-.41,4.6-.41,4.66-1.17,3.23-1.17,3.23Z"/><path class="cls-5" d="M89,126.11l-.45-17.61,1.47-.23.84,9.66s-.41,4.6-.41,4.66-1.17,3.23-1.17,3.23Z"/><polygon class="cls-4" points="97.98 101.63 97.97 102.05 97.97 102.06 97.96 102.22 97.91 104.43 97.88 105.61 97.78 108.38 96.63 108.43 93.81 106.53 95.78 99.88 97.64 98.55 97.72 98.7 97.92 99.07 97.92 99.32 97.97 101.26 97.97 101.26 97.98 101.63"/><polygon class="cls-5" points="97.98 101.63 97.97 102.05 97.97 102.06 97.96 102.22 97.91 104.43 97.88 105.61 97.78 108.38 96.63 108.43 93.81 106.53 95.78 99.88 97.64 98.55 97.72 98.7 97.92 99.07 97.92 99.32 97.97 101.26 97.97 101.26 97.98 101.63"/><path class="cls-8" d="M88,16.54A22.61,22.61,0,0,0,88.69,21c.34.69.48.72.48.72L89,20.37l-.58-4.26Z"/><path class="cls-8" d="M89.14,22.63a9.19,9.19,0,0,0-.29,1.51c.06.19.21.52.57.47a3.45,3.45,0,0,1,.61-.09c.27,0,0-.14,0-.14l-.42-.12-.25-.21-.07-.6.08-.72s0-.57,0-.57-.29-.17-.3-.1,0,.56,0,.56Z"/><path class="cls-6" d="M35.31,29.36s31.45-5.26,32.33-5.08.58.66.58.66L62.8,26.1S46.17,29,43.39,29.27a63,63,0,0,1-7.36.64C35.22,29.78,35.31,29.36,35.31,29.36Z"/><polygon class="cls-6" points="77.56 48.5 76.92 48.15 75.16 42.47 74.93 41.75 74.87 41.56 74.8 41.31 74.73 41.11 74.44 40.16 74.41 40.07 74.41 40.06 74.2 39.4 74.16 39.25 74.01 39 73.19 37.6 71.47 31.69 70.32 27.29 71.25 27.91 71.27 27.91 72.22 31.03 72.31 31.34 72.31 31.34 72.84 33.07 72.93 33.35 73.29 34.52 73.64 35.66 74.07 37.07 74.16 37.38 74.61 38.86 74.69 39.12 74.82 39.52 74.82 39.52 74.84 39.6 74.84 39.6 74.93 39.91 74.99 40.1 75.08 40.37 75.13 40.54 75.31 41.12 75.43 41.54 75.78 42.66 77.56 48.5"/><path class="cls-6" d="M60.85,27.29c0-.36,0-.37.43-.46s2.72-.37,3.19-.47,1.11-.25,2.13-.45a3.48,3.48,0,0,0,1.1-.29l-1.62-.14-1.78.2s-3.8.53-3.82.56-.69.71-.69.74.08.26.12.27Z"/><path class="cls-6" d="M40.25,30.05s3.25-.34,4-.52.42-.55.42-.55H41.42l-5.49.69-1.34.87Z"/><polygon class="cls-6" points="82.04 63.36 85.51 74.54 87.27 79.96 86.96 80.59 85.19 76.01 82.59 67.86 81.38 63.38 82.04 63.36"/><text class="cls-20" transform="matrix(0.92, -0.17, 0.34, 0.94, 44.34, 41.89)">Book Your <tspan x="3.8" y="5.36">Service</tspan></text><polygon class="cls-19" points="55.21 54.28 57.16 59.29 74.16 54.36 71.26 49.04 55.21 54.28"/><polygon class="cls-19" points="60.45 69.39 62.41 74.4 79.4 69.47 76.5 64.15 60.45 69.39"/><polygon class="cls-19" points="65 84.69 66.95 89.7 83.94 84.76 81.05 79.44 65 84.69"/><path class="cls-18" d="M57.21,54.07l.48-.12L58.43,56l.87-.21.19.55-1.34.32Z"/><path class="cls-18" d="M59.66,54.05a.67.67,0,0,1,.62.19l-.1-.28.46-.11.74,2-.46.11-.1-.27a.42.42,0,0,1-.12.27.56.56,0,0,1-.28.16.74.74,0,0,1-.33,0,.93.93,0,0,1-.32-.18,1.22,1.22,0,0,1-.25-.26l-.16-.25-.09-.23a1.41,1.41,0,0,1-.1-.43.79.79,0,0,1,0-.35.53.53,0,0,1,.16-.27A.56.56,0,0,1,59.66,54.05Zm.31.52a.36.36,0,0,0-.15.08.34.34,0,0,0-.09.14.9.9,0,0,0,0,.18,1,1,0,0,0,0,.21.36.36,0,0,0,0,.09.75.75,0,0,0,.21.26.37.37,0,0,0,.32.06.36.36,0,0,0,.15-.08.3.3,0,0,0,.09-.13.57.57,0,0,0,0-.18.8.8,0,0,0-.05-.21l0-.1a.78.78,0,0,0-.22-.26A.37.37,0,0,0,60,54.57Z"/><path class="cls-18" d="M62,53.5a.7.7,0,0,1,.32,0,1,1,0,0,1,.32.17,1.67,1.67,0,0,1,.48.71,1.64,1.64,0,0,1,.11.45,1.09,1.09,0,0,1,0,.37.61.61,0,0,1-.15.26.63.63,0,0,1-.28.15.69.69,0,0,1-.35,0,.82.82,0,0,1-.29-.17l.1.27-.46.11-1-2.79.46-.11.37,1a.61.61,0,0,1,.13-.28A.52.52,0,0,1,62,53.5Zm.07.58a.36.36,0,0,0-.15.08.34.34,0,0,0-.09.14.9.9,0,0,0,0,.18.91.91,0,0,0,.05.21.66.66,0,0,0,.24.34.42.42,0,0,0,.34.07.22.22,0,0,0,.14-.08.3.3,0,0,0,.09-.13.37.37,0,0,0,0-.18.52.52,0,0,0,0-.21.62.62,0,0,0-.24-.34A.39.39,0,0,0,62,54.08Z"/><path class="cls-18" d="M64.21,53l-.65.15-.19-.52,1.78-.42.19.52-.65.15.75,2.08-.48.12Z"/><path class="cls-18" d="M66.15,53.82v0a.6.6,0,0,0,.22.25.39.39,0,0,0,.3,0,.33.33,0,0,0,.18-.11.29.29,0,0,0,0-.19l.45-.11a.89.89,0,0,1-.08.6.68.68,0,0,1-.44.3.73.73,0,0,1-.36,0,1,1,0,0,1-.35-.16,1.41,1.41,0,0,1-.28-.26c-.07-.1-.12-.19-.17-.27a1.8,1.8,0,0,1-.08-.21,1.48,1.48,0,0,1-.1-.43.88.88,0,0,1,0-.37.61.61,0,0,1,.19-.26.65.65,0,0,1,.32-.16.78.78,0,0,1,.34,0,1,1,0,0,1,.32.12,1.38,1.38,0,0,1,.26.23,1.26,1.26,0,0,1,.19.28l0,.08c0,.11.09.22.13.32Zm.59-.51v0a.48.48,0,0,0-.2-.22.33.33,0,0,0-.28,0,.26.26,0,0,0-.19.15.51.51,0,0,0,0,.31Z"/><path class="cls-18" d="M67.35,52.91a.59.59,0,0,1,0-.52.63.63,0,0,1,.43-.28.83.83,0,0,1,.57,0,.79.79,0,0,1,.37.46l-.46.11a.3.3,0,0,0-.12-.16.26.26,0,0,0-.2,0,.17.17,0,0,0-.15.24.21.21,0,0,0,.13.13l.21,0h.24a1.15,1.15,0,0,1,.26,0,.75.75,0,0,1,.24.14.7.7,0,0,1,.18.3c.15.42,0,.68-.46.79a.83.83,0,0,1-.61,0,.75.75,0,0,1-.38-.45l.46-.1a.28.28,0,0,0,.36.17c.16,0,.22-.12.17-.25a.16.16,0,0,0-.06-.08.19.19,0,0,0-.09-.05l-.12,0h-.38a.86.86,0,0,1-.23-.06.8.8,0,0,1-.21-.15A.87.87,0,0,1,67.35,52.91Z"/><path class="cls-18" d="M69.18,51.19l.21.58.38-.09.17.47-.38.09.3.84a.4.4,0,0,0,.14.21.38.38,0,0,0,.25,0s0,0,0,0h0l.18.49,0,0,0,0-.06,0h0a.64.64,0,0,1-.53,0,1,1,0,0,1-.34-.49l-.34-.94-.28.06L68.66,52l.27-.07-.21-.58Z"/><path class="cls-18" d="M62.31,72.3l-.82-2.41.78-.22a.81.81,0,0,1,.41,0,1,1,0,0,1,.39.16,1.3,1.3,0,0,1,.32.34,1.72,1.72,0,0,1,.24.49,1.59,1.59,0,0,1,.1.5.93.93,0,0,1-.06.42.77.77,0,0,1-.22.32,1,1,0,0,1-.37.19Zm.27-.64.33-.09a.42.42,0,0,0,.18-.11.4.4,0,0,0,.11-.19.88.88,0,0,0,0-.24,1.67,1.67,0,0,0-.06-.29,1.46,1.46,0,0,0-.13-.28.81.81,0,0,0-.18-.19.4.4,0,0,0-.2-.09.42.42,0,0,0-.22,0l-.33.09Z"/><path class="cls-18" d="M65,71.57a.78.78,0,0,1-.34,0,.87.87,0,0,1-.31-.14.92.92,0,0,1-.25-.23A2.29,2.29,0,0,1,64,71s-.05-.11-.07-.17a1.72,1.72,0,0,1-.08-.42,1,1,0,0,1,.05-.35.64.64,0,0,1,.18-.27.81.81,0,0,1,.3-.17.79.79,0,0,1,.34,0,.75.75,0,0,1,.32.13,1.06,1.06,0,0,1,.24.23,1,1,0,0,1,.15.25.77.77,0,0,1,.07.16,1.35,1.35,0,0,1,.08.42.83.83,0,0,1,0,.36.8.8,0,0,1-.18.27A.72.72,0,0,1,65,71.57Zm-.49-1.45a.27.27,0,0,0-.13.07.26.26,0,0,0-.08.13.32.32,0,0,0,0,.17.75.75,0,0,0,0,.2.36.36,0,0,1,0,.09.62.62,0,0,0,.19.23.33.33,0,0,0,.29,0A.35.35,0,0,0,65,71a.41.41,0,0,0,.08-.13.88.88,0,0,0,0-.17.65.65,0,0,0,0-.19s0-.08,0-.11a.67.67,0,0,0-.19-.22A.3.3,0,0,0,64.51,70.12Z"/><path class="cls-18" d="M65.61,70.32a1.74,1.74,0,0,1-.09-.43,1,1,0,0,1,0-.35.68.68,0,0,1,.18-.26.64.64,0,0,1,.29-.16.84.84,0,0,1,.31,0,.91.91,0,0,1,.29.1,1.16,1.16,0,0,1,.24.2,1.24,1.24,0,0,1,.17.27.08.08,0,0,1,0,0l-.43.13a.46.46,0,0,0-.19-.2.26.26,0,0,0-.23,0,.3.3,0,0,0-.21.2.64.64,0,0,0,0,.38.36.36,0,0,0,0,.11.5.5,0,0,0,.19.22.3.3,0,0,0,.28,0,.29.29,0,0,0,.17-.14.47.47,0,0,0,0-.25l.43-.12a1,1,0,0,1,0,.65.66.66,0,0,1-.44.35.7.7,0,0,1-.35,0,.8.8,0,0,1-.32-.13.85.85,0,0,1-.24-.22,1.79,1.79,0,0,1-.15-.24A1.34,1.34,0,0,1,65.61,70.32Z"/><path class="cls-18" d="M67.42,68.17l.18.54.35-.1.14.43-.35.1.27.78c0,.11.07.17.12.19a.29.29,0,0,0,.23,0h0l0,0,.15.46,0,0,0,0,0,0,0,0a.53.53,0,0,1-.48,0,.81.81,0,0,1-.31-.44l-.29-.88-.26.07-.14-.43.25-.07L67,68.29Z"/><path class="cls-18" d="M69.53,70.28a.78.78,0,0,1-.34,0,.76.76,0,0,1-.31-.13,1.1,1.1,0,0,1-.25-.23,2.36,2.36,0,0,1-.15-.25l-.06-.16a1.76,1.76,0,0,1-.09-.42,1,1,0,0,1,.06-.36.8.8,0,0,1,.18-.27.72.72,0,0,1,.3-.16.77.77,0,0,1,.34,0,1,1,0,0,1,.31.14,1.1,1.1,0,0,1,.25.23,2.36,2.36,0,0,1,.15.25l.06.16a1.35,1.35,0,0,1,.08.42.85.85,0,0,1,0,.36.68.68,0,0,1-.18.26A.74.74,0,0,1,69.53,70.28ZM69,68.82a.29.29,0,0,0-.13.08.35.35,0,0,0-.08.13.32.32,0,0,0,0,.17.51.51,0,0,0,0,.2l0,.09a.63.63,0,0,0,.2.23.3.3,0,0,0,.28,0,.33.33,0,0,0,.13-.07.35.35,0,0,0,.08-.13.47.47,0,0,0,0-.17.65.65,0,0,0,0-.19.36.36,0,0,0,0-.11.51.51,0,0,0-.19-.22A.3.3,0,0,0,69,68.82Z"/><path class="cls-18" d="M69.9,68.06l.42-.12.11.34a.7.7,0,0,1,.14-.35.5.5,0,0,1,.27-.18l.18.53a.53.53,0,0,0-.2.09.4.4,0,0,0-.14.15.52.52,0,0,0-.06.2.75.75,0,0,0,0,.24l.3.87-.42.12Z"/><path class="cls-18" d="M71.89,66.93,73,68.56l-.11-1.91.48-.14.13,2.6-.53.15-1.5-2.21Z"/><path class="cls-18" d="M73.5,66.46a.25.25,0,0,1,0-.12.43.43,0,0,1,0-.11.22.22,0,0,1,0-.08.2.2,0,0,1,.09-.05.21.21,0,0,1,.2,0,.37.37,0,0,1,.14.18.33.33,0,0,1,0,.24.2.2,0,0,1-.14.13.21.21,0,0,1-.2,0A.34.34,0,0,1,73.5,66.46Zm.2.51.42-.12.65,1.9-.42.12Z"/><path class="cls-18" d="M74.6,67.32a.61.61,0,0,1,0-.48.62.62,0,0,1,.4-.28.66.66,0,0,1,.52,0,.69.69,0,0,1,.32.41l-.41.12a.24.24,0,0,0-.12-.14.23.23,0,0,0-.3.07.14.14,0,0,0,0,.14.15.15,0,0,0,.11.12.58.58,0,0,0,.19,0h.22a.85.85,0,0,1,.23,0,.65.65,0,0,1,.22.11.67.67,0,0,1,.16.28c.13.39,0,.64-.43.76a.79.79,0,0,1-.55,0,.67.67,0,0,1-.34-.41l.41-.12a.24.24,0,0,0,.33.15c.15,0,.2-.12.16-.23a.19.19,0,0,0,0-.09.19.19,0,0,0-.08,0l-.11,0h-.35a.54.54,0,0,1-.21,0,.38.38,0,0,1-.18-.13A.66.66,0,0,1,74.6,67.32Z"/><path class="cls-18" d="M75.73,65.82a.5.5,0,0,1,0-.12.43.43,0,0,1,0-.11l.06-.08.08-.05a.21.21,0,0,1,.2,0,.3.3,0,0,1,.14.19.37.37,0,0,1,0,.23.22.22,0,0,1-.14.13.24.24,0,0,1-.2,0A.38.38,0,0,1,75.73,65.82Zm.21.51.42-.12.64,1.9-.42.12Z"/><path class="cls-18" d="M77.05,65.43l.18.53.35-.1.15.44-.35.1.26.77a.29.29,0,0,0,.12.19.28.28,0,0,0,.23,0s0,0,0,0h0l.16.45,0,0,0,0-.06,0h0a.53.53,0,0,1-.48,0,.77.77,0,0,1-.31-.44L77,66.51l-.25.08-.15-.43.25-.08-.18-.54Z"/><path class="cls-18" d="M65,86.08l.54-.2,1,1.28-.36-1.54.43-.17.53,2.32-.52.2-1.05-1.28.35,1.54-.43.16Z"/><path class="cls-18" d="M68.87,87.12l-.42.16,0-.24a1.08,1.08,0,0,1-.16.28.54.54,0,0,1-.24.16.42.42,0,0,1-.22,0,.5.5,0,0,1-.2-.08.55.55,0,0,1-.15-.18,1,1,0,0,1-.1-.27l-.27-1.16.42-.16.24,1a.36.36,0,0,0,.12.23.2.2,0,0,0,.2,0,.23.23,0,0,0,.11-.08.29.29,0,0,0,.08-.13.75.75,0,0,0,0-.16.55.55,0,0,0,0-.18l-.21-1,.41-.15Z"/><path class="cls-18" d="M68.76,85.18l.42-.16.07.33a.86.86,0,0,1,.17-.36.61.61,0,0,1,.28-.2l.12.51a.7.7,0,0,0-.21.11.46.46,0,0,0-.15.16.59.59,0,0,0-.07.2.66.66,0,0,0,0,.24l.19.84-.41.15Z"/><path class="cls-18" d="M70,85.29a.64.64,0,0,1,.06-.48.8.8,0,0,1,.41-.32.67.67,0,0,1,.5,0,.56.56,0,0,1,.27.38l-.41.16a.2.2,0,0,0-.1-.13s-.09,0-.17,0a.34.34,0,0,0-.13.1.14.14,0,0,0,0,.14.12.12,0,0,0,.09.11.51.51,0,0,0,.18,0l.21,0a.6.6,0,0,1,.23,0,.37.37,0,0,1,.19.09.53.53,0,0,1,.13.26c.08.38-.08.64-.5.8a.71.71,0,0,1-.53,0,.52.52,0,0,1-.28-.38l.41-.15c0,.14.14.17.3.11s.21-.13.18-.24a.15.15,0,0,0,0-.08.11.11,0,0,0-.08,0H70.7l-.22,0a.43.43,0,0,1-.2,0,.38.38,0,0,1-.16-.12A.45.45,0,0,1,70,85.29Z"/><path class="cls-18" d="M71.26,83.7a.49.49,0,0,1,0-.12l0-.11.06-.09a.47.47,0,0,1,.09-.06.21.21,0,0,1,.19,0,.29.29,0,0,1,.12.18.37.37,0,0,1,0,.23.23.23,0,0,1-.15.14.19.19,0,0,1-.19,0A.27.27,0,0,1,71.26,83.7Zm.14.48.42-.15.41,1.82-.41.16Z"/><path class="cls-18" d="M72.13,83.91l.42-.16,0,.24a.85.85,0,0,1,.16-.28.57.57,0,0,1,.23-.16.42.42,0,0,1,.42,0,.69.69,0,0,1,.16.18.79.79,0,0,1,.1.27l.27,1.16-.42.16-.24-1.05a.31.31,0,0,0-.12-.22.18.18,0,0,0-.2,0,.32.32,0,0,0-.12.08.54.54,0,0,0-.07.13.75.75,0,0,0,0,.16.55.55,0,0,0,0,.18l.21,1-.41.16Z"/><path class="cls-18" d="M75.21,84.38a.65.65,0,0,1-.15.27.64.64,0,0,1-.25.18.55.55,0,0,1-.28,0,.59.59,0,0,1-.26-.1,1.12,1.12,0,0,1-.18-.2,1.59,1.59,0,0,1-.09-.2,1.06,1.06,0,0,1-.06-.19,1.36,1.36,0,0,1,0-.39,1.14,1.14,0,0,1,.07-.34.72.72,0,0,1,.16-.25.73.73,0,0,1,.26-.17.45.45,0,0,1,.3,0,.41.41,0,0,1,.23.13l0-.25.41-.16.39,1.71a1.05,1.05,0,0,1,0,.71,1,1,0,0,1-.83.49.45.45,0,0,1-.24,0,.39.39,0,0,1-.17-.14.51.51,0,0,1-.09-.18l0-.07.41-.15a.21.21,0,0,0,.14.12.35.35,0,0,0,.2,0c.22-.09.3-.29.23-.6Zm-.59-.92a.3.3,0,0,0-.13.09.38.38,0,0,0-.09.13.33.33,0,0,0,0,.17.62.62,0,0,0,0,.19l0,.08a.38.38,0,0,0,.15.2.28.28,0,0,0,.27,0,.3.3,0,0,0,.13-.09.64.64,0,0,0,.1-.13.75.75,0,0,0,0-.16.65.65,0,0,0,0-.19.31.31,0,0,0,0-.08.42.42,0,0,0-.16-.21A.28.28,0,0,0,74.62,83.46Z"/><path class="cls-18" d="M76.38,83a1.76,1.76,0,0,1,0-.51,1.35,1.35,0,0,1,.11-.45,1.23,1.23,0,0,1,.25-.36,1,1,0,0,1,.36-.23.74.74,0,0,1,.35-.06.69.69,0,0,1,.32.08.93.93,0,0,1,.27.22,1.22,1.22,0,0,1,.18.34v0l-.46.17A.49.49,0,0,0,77.5,82a.4.4,0,0,0-.32,0,.59.59,0,0,0-.19.13.86.86,0,0,0-.13.2.7.7,0,0,0,0,.25.86.86,0,0,0,0,.28.57.57,0,0,0,0,.14l.07.15a.47.47,0,0,0,.14.14.36.36,0,0,0,.19.08.38.38,0,0,0,.21,0,.55.55,0,0,0,.26-.22.66.66,0,0,0,.1-.37l.47-.18a2,2,0,0,1,0,.43,1.18,1.18,0,0,1-.14.37,1.09,1.09,0,0,1-.23.29,1.12,1.12,0,0,1-.33.2.79.79,0,0,1-.4,0,.93.93,0,0,1-.36-.14,1.06,1.06,0,0,1-.25-.27,1.15,1.15,0,0,1-.15-.29Z"/><path class="cls-18" d="M78.94,81.31a.46.46,0,0,1,.52.11l-.06-.25.42-.16.42,1.83-.42.16-.06-.25a.5.5,0,0,1-.14.28.74.74,0,0,1-.25.17.49.49,0,0,1-.29,0,.66.66,0,0,1-.27-.12,1,1,0,0,1-.19-.22,1.5,1.5,0,0,1-.11-.22,1.33,1.33,0,0,1-.05-.19,1.36,1.36,0,0,1,0-.39,1.14,1.14,0,0,1,.07-.34,1,1,0,0,1,.17-.27A.88.88,0,0,1,78.94,81.31Zm.21.45a.39.39,0,0,0-.23.23.47.47,0,0,0,0,.17.69.69,0,0,0,0,.2l0,.08a.37.37,0,0,0,.16.21.28.28,0,0,0,.27,0,.34.34,0,0,0,.14-.09.64.64,0,0,0,.1-.13,1,1,0,0,0,0-.18.65.65,0,0,0,0-.19.24.24,0,0,0,0-.08.52.52,0,0,0-.17-.22A.28.28,0,0,0,79.15,81.76Z"/><path class="cls-18" d="M80.13,80.89l.42-.15.07.33a.76.76,0,0,1,.17-.36.63.63,0,0,1,.28-.21l.12.52a.68.68,0,0,0-.21.1.75.75,0,0,0-.15.16.48.48,0,0,0-.07.2.71.71,0,0,0,0,.25l.19.84-.41.15Z"/><path class="cls-18" d="M81.88,81.38v0a.41.41,0,0,0,.17.21.33.33,0,0,0,.26,0,.35.35,0,0,0,.24-.31l.41-.15a1,1,0,0,1-.14.56.83.83,0,0,1-.42.34.72.72,0,0,1-.32,0,.61.61,0,0,1-.29-.11.7.7,0,0,1-.21-.21.73.73,0,0,1-.12-.23l-.06-.18a1.38,1.38,0,0,1,0-.4,1.21,1.21,0,0,1,.08-.34.8.8,0,0,1,.2-.28,1.09,1.09,0,0,1,.3-.18.79.79,0,0,1,.3,0,.61.61,0,0,1,.26.08.6.6,0,0,1,.21.18.7.7,0,0,1,.13.24l0,.07A2.46,2.46,0,0,1,83,81Zm.58-.56v0a.28.28,0,0,0-.39-.19.39.39,0,0,0-.19.17.54.54,0,0,0-.05.29Z"/><path class="cls-21" d="M32.48,70.05V104.6H26.06V77.46l-6.41,4.09V75l8.25-4.9Z"/></svg>