<svg id="Layer_1" data-name="Layer 1" xmlns="http://www.w3.org/2000/svg" viewBox="0 0 144 144"><defs><style>.cls-1{fill:#70829b;}.cls-2{fill:#f7eae2;}.cls-3{fill:#d8a280;}.cls-4{fill:#c68f6e;}.cls-5{fill:#9f9fe6;}.cls-6{fill:#6f5453;}.cls-7{fill:#9aa6b5;}.cls-8{fill:#786565;}.cls-9{fill:#f7b2a0;}.cls-10{fill:#262626;}.cls-11{fill:#c5b0ad;}.cls-12{fill:#f1404c;}.cls-13{fill:#c1d4e8;}.cls-14{fill:#f7ae9b;}.cls-15{fill:#ea9c8f;}.cls-16{fill:#141414;}.cls-17,.cls-18{fill:#050505;}.cls-17{opacity:0.43;}.cls-18{opacity:0.2;}.cls-19{fill:#dcd2c8;}.cls-20{fill:#fff;opacity:0.19;}.cls-21{fill:#faf6f2;}.cls-22{fill:#ea0a0a;}.cls-23{fill:#fdfefe;}.cls-24{fill:#b1aab0;}.cls-25{fill:#e2cfca;}.cls-26{fill:#f4dcd3;}.cls-27{fill:none;}</style></defs><title>chronic-wound-care</title><path class="cls-1" d="M24.53,101.93s3.66-.4,5.74-.52a30.94,30.94,0,0,1,6.08-.21c2.09.27,2.3.89,2.3.89l-6.29,3.49-4.54,1.14Z"/><polygon class="cls-2" points="75.33 54.87 75.82 53.83 80.04 55 81.37 56.2 81.37 56.95 78.24 56.78 75.33 54.87"/><path class="cls-1" d="M68.85,130.8c-3,0-5.93-.1-8.89-.22-5.46-.24-10.91,0-16.36-.18a41.9,41.9,0,0,1-5-.28c-1-.17-2-.06-3-.19-1.48-.19-3-.34-4.42-.53a66.89,66.89,0,0,1-7.93-1.67,44.1,44.1,0,0,1-6.07-2.12,34.54,34.54,0,0,1-7.79-4.55c-1.83-1.42-5.51-2.2-7-4-.6-.75-1.13-2.57-.6-3,.11-.15.35-.38.35-.53a1.45,1.45,0,0,1,.44-.64c1.86-1.43,3.86-2.61,5.81-3.94a71.52,71.52,0,0,1,7.15-4.37c.25-.13.48-.26.49-.58.3,0,.65-.17.89.17-.31.48-.62.95-.94,1.42a61.31,61.31,0,0,0-3.77,5.76,9.34,9.34,0,0,0-1.2,4.35,1,1,0,0,0-.59.19c-1.19.77-1.21,1.52-.08,2.24a12.5,12.5,0,0,0,3.49,1.35,77.9,77.9,0,0,0,9.1,1.68c2.48.35,5,.57,7.44.84,1.42.15,2.85.26,4.27.35,1.93.13,3.87.22,5.8.38,1.16.09,2.33.09,3.49.15,2,.11,4.07.15,6.1.2a54.58,54.58,0,0,1,8.57.54c2.95.55,5.89,1.14,8.86,1.54,1.8.25,3.6.44,5.4.62s3.39.25,5.08.36,3.59,0,5.39.19c2.57.21,5.14-.23,7.72-.17.89,0,1.79-.08,2.68-.13,2.11-.11,4.23-.28,6.34-.38,1.64-.08,3.27-.29,4.9-.42,2-.17,4.06-.55,6.08-.87,2.35-.36,4.69-.74,7-1.28a39.55,39.55,0,0,0,5.48-1.59,8.63,8.63,0,0,0,2.9-1.75,1.1,1.1,0,0,0-.07-1.77,6.75,6.75,0,0,0-3.28-1.55,6.05,6.05,0,0,0,0-1.7c-.22-2-.47-3.91-.68-5.86-.24-2.16-.45-4.32-.68-6.49,1.56.26,3.73-.17,5.2,0,.34.16.84.65,1.29.64a3.15,3.15,0,0,1,1.95.67,16.4,16.4,0,0,1,3.22,2.11c1.73,1.37,2.34,3,4,4.46a6.41,6.41,0,0,0,1.31,1.34c.15.31.82.67,1.06.9a33.77,33.77,0,0,1,3,3.57,8,8,0,0,1-.59,2,38,38,0,0,1-9.41,8.09,33.51,33.51,0,0,1-8.35,3.63,1.52,1.52,0,0,0-1.36-.1,4.5,4.5,0,0,1-.89.1c-1.58.07-3.16,0-4.75.15s-3.34,0-5,.18c-2.36.2-4.72,0-7.09.18-2.86.23-5.74,0-8.62.17-5.24.23-10.49,0-15.73.19-3.72.16-7.44,0-11.17,0C69.47,130.63,69.11,130.48,68.85,130.8Z"/><path class="cls-1" d="M68.85,130.8c.26-.32.62-.17.92-.17,3.73,0,7.45.12,11.17,0,5.24-.23,10.49,0,15.73-.19,2.88-.13,5.76.06,8.62-.17,2.37-.19,4.73,0,7.09-.18,1.67-.14,3.36,0,5-.18s3.17-.08,4.75-.15a4.5,4.5,0,0,0,.89-.1,1.52,1.52,0,0,1,1.36.1,18.2,18.2,0,0,1-3.33.9c-1.5.4-3,.58-4.56.85-1.17.21-2.36.3-3.55.41a167.89,167.89,0,0,1-17.52.34c-2.72,0-5.44-.22-8.16-.37-1.87-.1-3.75-.25-5.63-.35l-7-.38c-1.1-.07-2.21-.12-3.31-.13A17.42,17.42,0,0,0,68.85,130.8Z"/><path class="cls-3" d="M122.4,45.56a4.64,4.64,0,0,1,1.48.24,1.79,1.79,0,0,1,1.41,1.84A29.15,29.15,0,0,1,125,52c-.1.8-.1,1.61-.19,2.41-.3,2.67-.48,5.35-.78,8-.21,1.87-.34,3.75-.53,5.62-.27,2.61-.61,5.21-.85,7.83-.16,1.75-.36,3.5-.56,5.25a4.44,4.44,0,0,0,.12,1.69,4.51,4.51,0,0,1,0,2,2.59,2.59,0,0,1-1.61,2c-.24.11-.55.09-.71.35a17.33,17.33,0,0,0-2.26.68,4.49,4.49,0,0,0-1.53.6,1.44,1.44,0,0,0-.79.1l-4.68,1.51a1,1,0,0,0-.61.34,2.12,2.12,0,0,0-.61.11q-2.58.87-5.16,1.71a1.15,1.15,0,0,0-.5.28,18.06,18.06,0,0,0-.26,4.39,4.45,4.45,0,0,0-.18,1.4c0,1.1,0,2.2,0,3.29a10.29,10.29,0,0,0-.16,2.41c0,.9,0,1.81-.05,2.7-.2,2-.15,4-.3,6.08-.06,1.4-.12,2.81-.16,4.21,0,1.85-.21,3.7-.23,5.56a1.09,1.09,0,0,1-1.16,1.21,1.12,1.12,0,0,1-1.17-1.21c0-1.1-.08-2.21-.14-3.31-.11-2.27,0-4.55-.22-6.82.09-3.63-.22-7.26-.22-10.89,0,0,0-.06,0-.09a40.25,40.25,0,0,1-.14-4.53A38.45,38.45,0,0,0,99.1,93a7.2,7.2,0,0,0-2.32-.28c-.14,0-.28-.17-.41-.16a16.06,16.06,0,0,1-3.18-.37c-.55.08-1.06-.22-1.6-.2-.11-1,.26-2,.15-3l.2,0,5.6-1c0,.08,0,.22.1.23a10.13,10.13,0,0,0,3.64.17,52.45,52.45,0,0,0,5.5-1.47C110.87,85.64,115,84.39,119,83c.46-.15,1-.24,1.23-.81a5.54,5.54,0,0,0-2.2-.66c.13-1,.3-2,.39-3,.11-1.28.31-2.55.42-3.82.16-1.9.44-3.78.66-5.68.18-1.47.39-3,.5-4.43a10.86,10.86,0,0,0,.2-2.67.8.8,0,0,0,.9-.7,8.49,8.49,0,0,0,.21-1.14c.2-1.41.47-2.8.61-4.22.11-1.21.34-2.41.47-3.62s.27-2.54.43-3.81A3.92,3.92,0,0,0,122.4,45.56Z"/><path class="cls-4" d="M114.11,44.4h.54a61.41,61.41,0,0,1,7.75,1.17,3.92,3.92,0,0,1,.43,2.89c-.16,1.27-.3,2.54-.43,3.81s-.36,2.41-.47,3.62c-.14,1.42-.41,2.81-.61,4.22a8.49,8.49,0,0,1-.21,1.14.8.8,0,0,1-.9.7,10.92,10.92,0,0,1-1.15-.12c-1.47-.23-2.94-.4-4.41-.6A5.83,5.83,0,0,0,113,61a26.66,26.66,0,0,0-.16-3.68,10.78,10.78,0,0,1,0-2c0-.15,0-.37.11-.41.61-.2.52-.76.6-1.18a36.34,36.34,0,0,0,.55-6.5Z"/><path class="cls-4" d="M116.08,88.45a4.49,4.49,0,0,1,1.53-.6,17.33,17.33,0,0,1,2.26-.68,25,25,0,0,1,.37,2.6c0,.22,0,.48.17.65.11,2.17.44,4.32.73,6.48.14,1.36.25,2.73.45,4.09a11.75,11.75,0,0,0,.14,1.33c.23,2.17.44,4.33.68,6.49.21,2,.46,3.9.68,5.86a6.05,6.05,0,0,1,0,1.7c-.8.58-1.68.58-2-.05a4.89,4.89,0,0,1-.29-1L118.43,102c-.29-1.68-.59-3.36-.89-5a1.7,1.7,0,0,0,0-.45c-.29-1.33-.49-2.67-.74-4a5.73,5.73,0,0,0-.51-2A8.63,8.63,0,0,0,116.08,88.45Z"/><path class="cls-5" d="M33.5,58a23.83,23.83,0,0,0-.33-3.27,4.34,4.34,0,0,1,0-.72V47.31a9.28,9.28,0,0,1,2.26-5.85,7.87,7.87,0,0,1,3.14-2.27.59.59,0,0,0,.37-.35A7,7,0,0,0,40,38.48a18.22,18.22,0,0,1,3.06-1.08,15.19,15.19,0,0,0,7.08,7.1,7.27,7.27,0,0,0,2-2.25c.09.25.14.39.18.53.58,2.09,1.2,4.18,1.72,6.28A26.92,26.92,0,0,1,55,56a11.82,11.82,0,0,0-.2,1.69,11.77,11.77,0,0,1-.24,2.12c-.13,1.42-.41,2.83-.48,4.25a17.28,17.28,0,0,1-2.49-.18c-1.71-.24-3.44-.32-5.15-.53a1.2,1.2,0,0,1-1.16-.91c-.33-1-.62-2-.92-3.08.91-.32,1.1-.51,1-1-.28-1.67-.54-3.34-.86-5s-.71-3.25-1.07-4.87c-.06-.25-.08-.54-.41-.61a.31.31,0,0,0-.09.34c.68,2.34,1,4.76,1.55,7.13.14.65,0,.78-.68,1a42,42,0,0,1-6.29,1.19A22.34,22.34,0,0,1,33.5,58Z"/><path class="cls-6" d="M41.81,17a5.34,5.34,0,0,1,4.32-4.36l.26,0A3.8,3.8,0,0,1,50.1,14.5a.32.32,0,0,0,.36.19,9.25,9.25,0,0,1,3.55-.3,9.42,9.42,0,0,1,4.33,2.09,9.68,9.68,0,0,0,1.54,1.08c2.33,1.22,3.25,4.47,2.94,6.51a6.92,6.92,0,0,1-2.31,4.36c-.28-.22,0-.53-.13-.78h0c.19,0,.19-.2.22-.34a8.07,8.07,0,0,0,0-3.56,5.86,5.86,0,0,0-.95-2.37A7.83,7.83,0,0,1,56.48,24a14.21,14.21,0,0,1-6.93,1.5L49,25.11c-.92-.92-1.86-.77-2.38.39a2.48,2.48,0,0,0,.53,2.71c.22.23.56.36.61.73v.32c-.19.52-.07,1.15-.58,1.54a7.15,7.15,0,0,1-3.68-5.25,8.51,8.51,0,0,1,.37-3.81c.12-.43.09-.69-.38-.8A4.46,4.46,0,0,1,41.81,17Z"/><path class="cls-7" d="M120.77,115.29a4.89,4.89,0,0,0,.29,1c.34.63,1.22.63,2,.05a6.75,6.75,0,0,1,3.28,1.55,1.1,1.1,0,0,1,.07,1.77,8.63,8.63,0,0,1-2.9,1.75,39.55,39.55,0,0,1-5.48,1.59c-2.31.54-4.65.92-7,1.28-2,.32-4,.7-6.08.87-1.63.13-3.26.34-4.9.42-2.11.1-4.23.27-6.34.38-.89,0-1.79.15-2.68.13-2.58-.06-5.15.38-7.72.17-1.8-.15-3.6-.07-5.39-.19s-3.39-.19-5.08-.36-3.6-.37-5.4-.62c-3-.4-5.91-1-8.86-1.54A54.58,54.58,0,0,0,50,123c-2,0-4.07-.09-6.1-.2-1.16-.06-2.33-.06-3.49-.15-1.93-.16-3.87-.25-5.8-.38-1.42-.09-2.85-.2-4.27-.35-2.48-.27-5-.49-7.44-.84a77.9,77.9,0,0,1-9.1-1.68,12.5,12.5,0,0,1-3.49-1.35c-1.13-.72-1.11-1.47.08-2.24a1,1,0,0,1,.59-.19c.45.95.94,1.16,1.93.78a12.73,12.73,0,0,0,2.62-1.53,14.73,14.73,0,0,1,1.85-1.4l1.24-.11A27.29,27.29,0,0,1,21.9,113a1.67,1.67,0,0,0,1.15-.36,29.6,29.6,0,0,1,3.47,1.4,128.67,128.67,0,0,0,14.75,5,32.89,32.89,0,0,0,4.88,1,16.87,16.87,0,0,0,4.26,0,5.11,5.11,0,0,0,4.19-3.06H55a31.91,31.91,0,0,0,5.78.38,5.49,5.49,0,0,0,2.69-.8A5.21,5.21,0,0,0,65.79,113h2.86c.26,0,.55.11.74-.18.43.34,1,.27,1.45.55v1.07c-.8.64-1.42,1.45-2.23,2.08-1.45,1.12-3,2-4.52,3.11a4.78,4.78,0,0,0-1.34,1.31.75.75,0,0,0,.39,1.23,2.83,2.83,0,0,0,.69.19,17.44,17.44,0,0,0,4.21-.09c1.66-.24,3.27-.73,4.91-1.06.88-.17,1.78-.23,2.65-.47a2.16,2.16,0,0,0,1.87-2.11,20.56,20.56,0,0,0,0-3.42,1.53,1.53,0,0,0-.44-1.23v-.79c.54,0,1-.09,1.08-.74h4a6.16,6.16,0,0,0,.17,1.29,1.07,1.07,0,0,0,1,1.06,3.34,3.34,0,0,1,.5.18v1.44a3.08,3.08,0,0,0-.85.8,16.05,16.05,0,0,1-2.65,2.56c-.67.55-1.38,1.06-2,1.62a9.3,9.3,0,0,0-2,2.08c-.44.73-.23,1.26.59,1.51a3.09,3.09,0,0,0,.53.09,14.63,14.63,0,0,0,5.76-.75c1.78-.61,3.52-1.35,5.35-1.83a4.57,4.57,0,0,0,1.16-.5,1.9,1.9,0,0,0,1-1.48,15.22,15.22,0,0,0-.16-3.57,3.43,3.43,0,0,0-.43-1.46v-.68A1.79,1.79,0,0,0,91,112.7a.42.42,0,0,1,.18-.47h3.56a6.2,6.2,0,0,0,.16,1,1.2,1.2,0,0,0,1.71.55c.51-.31.53-.82.56-1.32h2.49c.21,2.27.11,4.55.22,6.82.06,1.1.1,2.21.14,3.31a1.12,1.12,0,0,0,1.17,1.21,1.09,1.09,0,0,0,1.16-1.21c0-1.86.18-3.71.23-5.56,0-1.4.1-2.81.16-4.21,1.64.31,3.3.32,5,.51,2,.24,4,.47,6,.74s4,.66,5.93,1.12A3.69,3.69,0,0,0,120.77,115.29Z"/><path class="cls-8" d="M17.41,113.5a14.73,14.73,0,0,0-1.85,1.4,12.73,12.73,0,0,1-2.62,1.53c-1,.38-1.48.17-1.93-.78a9.34,9.34,0,0,1,1.2-4.35A61.31,61.31,0,0,1,16,105.54c.32-.47.63-.94.94-1.42.21-.12.27-.35.39-.53,1.17-1.44,1.8-1.63,3.59-1.1a2.11,2.11,0,0,0,.26,0c.67.42,1.43.67,2.07,1.14.23.16.54.26.53.63a2,2,0,0,0-1.34,1,5.6,5.6,0,0,0-1,5.35l-.88.59A18.48,18.48,0,0,0,17.41,113.5Z"/><path class="cls-5" d="M55.28,91.34c-.56-2.4-.91-4.84-1.35-7.26a17,17,0,0,1-.22-2c-.25-2.86-.18-5.74-.19-8.62a19.85,19.85,0,0,0,.18-2.67c-1.53,0-3,.29-4.56.34-1.86.06-3.72,0-5.58,0a10,10,0,0,1-2-.28A5,5,0,0,1,38,67.62a54.77,54.77,0,0,1-2.19-6.06c-.45.06-.49.42-.52.76s0,.7,0,1a17.15,17.15,0,0,1-.56,3.7c-.35,1.77-.82,3.52-1.22,5.28-.06.24-.11.4-.38.4A1.5,1.5,0,0,1,33,73.82a4.8,4.8,0,0,1-.44,1.75c-.07,1.1-.41,2.14-.57,3.23-.22,1.43-.51,2.85-.68,4.29A43.36,43.36,0,0,0,31,89.33c0,.36-.24.67-.17,1,.29.43.13.92.15,1.38.05,1.12.19,1.32,1.28,1.62a10.11,10.11,0,0,1,1.8.46,31.2,31.2,0,0,1,3.2.3c1,.09,2.08.15,3.12.21a38.12,38.12,0,0,0,4.14,0c2.26-.12,4.52-.17,6.77-.5a8.12,8.12,0,0,1,1,0h.36c.58-.33,1.24-.16,1.86-.33.32-.08.68-.15,1-.21A5.1,5.1,0,0,0,55.28,91.34Zm-8.59-7.08c-.65,2.57-1.87,3.28-4.2,3.6a7.4,7.4,0,0,1-4.26-.74A3.63,3.63,0,0,1,36,83.8a25.89,25.89,0,0,1,.48-6.14,14.65,14.65,0,0,1,.31-1.61,6.23,6.23,0,0,1,2.11,0,10.9,10.9,0,0,0,2,.23,53.71,53.71,0,0,0,5.52.4,1.29,1.29,0,0,1,.88.31A26.86,26.86,0,0,1,46.69,84.26Z"/><path class="cls-9" d="M53.7,70.75c-1.53,0-3,.29-4.56.34-1.86.06-3.72,0-5.58,0a10.78,10.78,0,0,1-2-.28A5,5,0,0,1,38,67.62a52.08,52.08,0,0,1-2.18-6.06,1.41,1.41,0,0,1-.16-.72c1.28-.07,2.53-.29,3.79-.46,1.65-.23,3.23-.75,4.84-1.14a.41.41,0,0,0,0,.16c.3,1,.59,2.06.92,3.08a1.2,1.2,0,0,0,1.16.91c1.71.21,3.44.29,5.15.53a17.28,17.28,0,0,0,2.49.18.3.3,0,0,0,.37.13,25.26,25.26,0,0,1,2.76.24,23.38,23.38,0,0,1,2.65.32A13.26,13.26,0,0,0,60,70c-2,.26-3.93.44-5.9.59C53.93,70.59,53.79,70.58,53.7,70.75Z"/><path class="cls-5" d="M44.31,59.24c-1.61.39-3.19.91-4.84,1.14-1.26.17-2.51.39-3.79.46H34.23a6.08,6.08,0,0,1-.3-2.49,77.27,77.27,0,0,0,10.58-1.72C45.07,58,45,58.61,44.31,59.24Z"/><path class="cls-5" d="M44.31,59.24c.7-.63.76-1.24.2-2.61a77.27,77.27,0,0,1-10.58,1.72,6.08,6.08,0,0,0,.3,2.49c-.44,0-.47-.39-.54-.7A8.05,8.05,0,0,1,33.5,58a22.34,22.34,0,0,0,4-.42,42,42,0,0,0,6.29-1.19c.67-.18.82-.31.68-1C44,53,43.6,50.59,42.92,48.25a.31.31,0,0,1,.09-.34c.33.07.35.36.41.61.36,1.62.75,3.24,1.07,4.87s.58,3.33.86,5c.09.5-.1.69-1,1A.41.41,0,0,1,44.31,59.24Z"/><path class="cls-10" d="M112.46,76.14a20.36,20.36,0,0,1-1.23,4.67,10.56,10.56,0,0,1-5.7,4.94,29.32,29.32,0,0,1-5.13,1.59,18.41,18.41,0,0,1-2.86.61l-5.6,1c-.09-.87.23-1.81-.5-2.57a11.83,11.83,0,0,0,.3,2.59c.11,1-.26,2-.15,3v4.9h0l0,4.13v.37a17.53,17.53,0,0,1-.15,2c.09,2.94-.21,5.86-.2,8.79a.42.42,0,0,0-.18.47,1.8,1.8,0,0,1-1.09,2.07,4.5,4.5,0,0,0-.9,0,13.78,13.78,0,0,1-5.39.15,3.34,3.34,0,0,0-.5-.18,1.06,1.06,0,0,1-1-1.06,6.25,6.25,0,0,1-.17-1.29c-.19-.93-.27-1.88-.39-2.82-.25-1.92-.46-3.84-.72-5.75a8,8,0,0,0-.41-2.46L80,96.75l0,0c-.13-1.55-.31-3.12-.56-4.69v-.9c0-.93-.07-1.85-.16-2.77a27,27,0,0,1,0-3.6,7.43,7.43,0,0,1,2-4.77,8.77,8.77,0,0,1,3.43-2.22c.53-.21,1.24-.32,1.41-1.06a1,1,0,0,0,.52-.09,21.76,21.76,0,0,1,3.45-1.46.75.75,0,0,0,.54-.44,4.64,4.64,0,0,0,2.69-1.27.5.5,0,0,1,.55-.53c.07.06.14.15.21.16,2.21.27,4.38.78,6.56,1.23a37.05,37.05,0,0,0,8.59,1c1.08,0,2.14-.17,3.22-.21A7.47,7.47,0,0,1,112.46,76.14Z"/><path class="cls-1" d="M120.77,115.29a3.69,3.69,0,0,1-1.14-.15c-2-.46-3.93-.84-5.93-1.12s-4-.5-6-.74c-1.65-.19-3.31-.2-5-.51.15-2,.1-4.06.3-6.08.09-.89,0-1.8.05-2.7a10.29,10.29,0,0,1,.16-2.41c2.9.11,5.8-.1,8.71.16,2.13.19,4.3-.1,6.44.21Z"/><path class="cls-4" d="M97.2,112.4c0,.51,0,1-.56,1.33a1.2,1.2,0,0,1-1.71-.55,6.2,6.2,0,0,1-.16-1c-.19-1.06-.16-2.14-.27-3.2-.27-2.53-.42-5.06-.62-7.6-.13-1.5-.36-3-.35-4.5s-.23-3.14-.34-4.7a16.06,16.06,0,0,0,3.18.37c.13,0,.27.11.41.17,0,1.38,0,2.77,0,4.16-.13,1.56.16,3.11.15,4.67C96.91,105.2,97.21,108.8,97.2,112.4Z"/><path class="cls-4" d="M111.24,80.81l6.8.74a5.54,5.54,0,0,1,2.2.66c-.25.57-.77.66-1.23.81-4.05,1.37-8.14,2.62-12.23,3.86a52.45,52.45,0,0,1-5.5,1.47,10.13,10.13,0,0,1-3.64-.17s-.07-.15-.1-.23a17.33,17.33,0,0,0,2.86-.61,29.32,29.32,0,0,0,5.13-1.59A10.57,10.57,0,0,0,111.24,80.81Z"/><path class="cls-1" d="M97.2,112.41c0-3.61-.29-7.21-.22-10.82a22.78,22.78,0,0,0,2.48-.16s0,.06,0,.09c0,3.63.31,7.26.22,10.89Z"/><path class="cls-2" d="M116.27,90.41H110a1,1,0,0,1,.61-.34l4.68-1.51a1.44,1.44,0,0,1,.79-.1A8.63,8.63,0,0,1,116.27,90.41Z"/><path class="cls-11" d="M91.74,89a11.83,11.83,0,0,1-.3-2.59c.73.75.41,1.7.5,2.57Z"/><path class="cls-12" d="M113.24,63.72c0,1.69.17,3.38.28,5.07a17.52,17.52,0,0,1,0,3.83,2.73,2.73,0,0,0-.06.8,1.49,1.49,0,0,1-.92,1.66c-1.07,0-2.14.17-3.22.2a37,37,0,0,1-8.59-1c-2.18-.46-4.35-1-6.56-1.23-.08,0-.14-.11-.21-.16a.46.46,0,0,1,.29-.19,65.67,65.67,0,0,0,11.34-5.37,9.5,9.5,0,0,0,4-4A36,36,0,0,0,111.93,55a6.33,6.33,0,0,0-2.24-.36,36.14,36.14,0,0,1-5.26-1c-.45-.15-.7,0-.79.55-.27,1.64-.57,3.28-.91,4.91a2.83,2.83,0,0,1-.93,1.8c-.51.41-1,.78-1.58,1.17-2.56,1.87-5.16,3.68-7.66,5.62a19.06,19.06,0,0,1-7.12,3.22.58.58,0,0,0-.36-.37,2.36,2.36,0,0,1,0-2A13.88,13.88,0,0,0,86,63.74c0-.08.13-.16.13-.23a62,62,0,0,0-.22-8.62c-.06-.53.11-1.15-.28-1.63,0-.35-.3-.44-.54-.51a5.94,5.94,0,0,1-.82-.35A28.16,28.16,0,0,1,78.78,49c-.79-.32-.42-.92-.36-1.45a9.66,9.66,0,0,0,1.27-2.34c1-1.52,1.75-3.2,2.79-4.7A32.16,32.16,0,0,1,85.09,37a12.26,12.26,0,0,1,2.73-1.67A18.16,18.16,0,0,1,93,34.17a2.39,2.39,0,0,0-.23,1.53,3.36,3.36,0,0,0,3.67,2.37,6.49,6.49,0,0,0,4.28-2,3.15,3.15,0,0,0,1.14-2.26,20.76,20.76,0,0,1,5,1.16c.73.23,1.44.55,2.16.82.45.3.9.58,1.34.89a8.63,8.63,0,0,1,3.37,5.63,10,10,0,0,0,.35,2.11v2.88a36.34,36.34,0,0,1-.55,6.5c-.08.42,0,1-.6,1.18-.14,0-.12.26-.11.41a10.78,10.78,0,0,0,0,2A26.66,26.66,0,0,1,113,61Z"/><path class="cls-5" d="M65.67,54.25a2.53,2.53,0,0,1-.08-.79c-.35-.28-.37-.74-.52-1.11-.68-1.61-1.32-3.23-2-4.85A22.73,22.73,0,0,0,62,45.15a9.63,9.63,0,0,0-6.86-6.67A19.34,19.34,0,0,1,55,42.57c-.1.39-.05.93-.49,1.07s-.8-.25-1.13-.56a1.84,1.84,0,0,0-.54-.46,11.44,11.44,0,0,0,.67,2.77,57.36,57.36,0,0,1,1.64,6.85,21.55,21.55,0,0,1,.08,5.62c-.18,1.68-.52,3.35-.59,5,0,.44-.27.86-.16,1.32a25.3,25.3,0,0,1,2.75.24,23.38,23.38,0,0,1,2.65.32,1.07,1.07,0,0,1,.55-.19c-.68-1.17-.32-2.38-.11-3.57.17-1,.53-1.9.65-2.88a8.42,8.42,0,0,1,.37-2.28,14.72,14.72,0,0,0-.45-6.19c-.3-1.19-.89-2.27-1.13-3.48,0-.09-.07-.18.11-.27.3.17.34.57.44.85a41.86,41.86,0,0,1,1.36,4.9,11.46,11.46,0,0,1-.25,5.49,2.14,2.14,0,0,0-.09.79h0a3.25,3.25,0,0,0,1.32-.51c1-.41,1.82-1,2.82-1.34A1.43,1.43,0,0,0,65.67,54.25Zm-5.82-4.31c-.31.31-.69.12-1.05.32-.07.32.17.6,0,1a2.52,2.52,0,0,1-1,.18c-.32-.24-.22-.66-.4-1s-.66,0-1-.11a1.55,1.55,0,0,1-.12-1c.26-.26.63-.07.88-.33V48c.36-.2.76-.11,1.15-.24.16.37.1.76.32,1.09.31.11.68-.14,1,.06S59.78,49.61,59.85,49.94Z"/><path class="cls-6" d="M87.25,21.53a3.27,3.27,0,0,1-2.71-3.35c0-.21,0-.42,0-.62a8.76,8.76,0,0,1,.57-1.8,3.45,3.45,0,0,1,2.76-1.45,3.73,3.73,0,0,0,2.07-.79A8.48,8.48,0,0,1,92.58,12a6.45,6.45,0,0,1,3.29-.19,4.51,4.51,0,0,1,2.69,1.85,1.36,1.36,0,0,0,.82.64,4,4,0,0,1,3.31,3.88,14.62,14.62,0,0,1-.84,7.17,5.71,5.71,0,0,1-2,2.63,1.86,1.86,0,0,1,.73-2,2.25,2.25,0,0,0,.6-2.64,1.21,1.21,0,0,0-1.07-1,1.29,1.29,0,0,0-1.21.9c-.14.32-.19.71-.59.85a1.51,1.51,0,0,1-.79-1.4,11,11,0,0,0-.21-1.42c-.12-.71-.44-1-1.14-1a2.46,2.46,0,0,1-1.84-.79,1.19,1.19,0,0,0-1.48-.21A4.22,4.22,0,0,0,91.8,20,6.33,6.33,0,0,1,87.25,21.53Z"/><path class="cls-13" d="M59.46,30.87a7.71,7.71,0,0,1-2.07,4,4.38,4.38,0,0,1-4,1.47c-.18-.37-.59-.37-.89-.55a10,10,0,0,1-3.23-3.27c0-.57-.55-1-.52-1.63.54.18.54.89,1.16.92.45-.77.93-1.56,1.4-2.35a1.09,1.09,0,0,0,.08-.69l.4,0a44.88,44.88,0,0,1,5.37,1.11l.34.09A9.65,9.65,0,0,0,59.46,30.87Z"/><path class="cls-14" d="M60.59,27.32a7.92,7.92,0,0,0,0-3.56,5.86,5.86,0,0,0-.95-2.37A7.76,7.76,0,0,1,56.48,24a14.33,14.33,0,0,1-6.93,1.51c.53,1,1.39,1.76,2,2.73a1.83,1.83,0,0,1,.24.46,44.88,44.88,0,0,1,5.37,1.11,2.57,2.57,0,0,1,.59-2.1,5.4,5.4,0,0,1-.25,2.19,9.65,9.65,0,0,0,2,1,4.59,4.59,0,0,1,1-2.44c-.28-.22,0-.53-.13-.77C60.55,27.61,60.56,27.46,60.59,27.32Zm-5.84,1a.94.94,0,0,1,.2-1.22c.36-.05.54.13.51.39S55.34,28.31,54.75,28.36Zm-.67-2.42a1.25,1.25,0,0,1,2.24.23C55.55,26.22,54.88,25.59,54.08,25.94ZM59,29.47a.69.69,0,0,1-.25.1c-.08-.05-.19-.08-.22-.15a.7.7,0,0,1,.17-1,.34.34,0,0,1,.54.06A.7.7,0,0,1,59,29.47ZM58.77,27c.06-.38.28-.48.52-.4.49.19,1,.36,1.08,1C59.74,27.67,59.38,27.06,58.77,27Z"/><path class="cls-5" d="M43.42,37.21a6.75,6.75,0,0,1,2.33-1.62c0,.3.24.47.43.66.76.77,1.5,1.56,2.29,2.29a21.85,21.85,0,0,0,3.64,2.8,7.2,7.2,0,0,0,1.16-4.15h0a3.87,3.87,0,0,1,1.46,1.1,2.34,2.34,0,0,0,0,.53,10.19,10.19,0,0,1-.19,3.61,1,1,0,0,1-.36.7c-.89-.25-1.23-1.3-2.18-1.49-.32.49-.62,1-1,1.48-.65.9-1.09,1-2,.37a15.59,15.59,0,0,1-4.24-3.93A7.16,7.16,0,0,1,43.42,37.21Z"/><path class="cls-5" d="M43.42,37.21a7.16,7.16,0,0,0,1.41,2.36,15.59,15.59,0,0,0,4.24,3.93c.93.6,1.37.53,2-.37.35-.48.65-1,1-1.48.95.19,1.29,1.24,2.18,1.49a1,1,0,0,0,.36-.7,10.19,10.19,0,0,0,.19-3.61,2.34,2.34,0,0,1,0-.53l.36.18A19.34,19.34,0,0,1,55,42.57c-.09.39-.05.92-.49,1.07s-.8-.25-1.13-.56a1.6,1.6,0,0,0-.54-.46l0-.07-.06,0,.09.09a11.44,11.44,0,0,0,.67,2.77,57.66,57.66,0,0,1,1.64,6.84,21.64,21.64,0,0,1,.08,5.63c-.19,1.68-.51,3.35-.59,5,0,.44-.27.86-.17,1.32a.3.3,0,0,1-.37-.13c.07-1.42.35-2.83.48-4.25a11.77,11.77,0,0,0,.24-2.12A11.82,11.82,0,0,1,55,56a26.92,26.92,0,0,0-.93-7c-.52-2.1-1.14-4.19-1.72-6.28,0-.14-.09-.28-.18-.53a7.27,7.27,0,0,1-2,2.25,15.19,15.19,0,0,1-7.08-7.1C43.13,37.23,43.27,37.21,43.42,37.21Z"/><path class="cls-15" d="M49.24,32.49a10,10,0,0,0,3.23,3.27c.3.18.71.18.89.55l0,.89h0c-.12,0-.25,0-.35,0a7.54,7.54,0,0,1-3.87-4.24A.32.32,0,0,1,49.24,32.49Z"/><path class="cls-14" d="M52.92,37.17a7.57,7.57,0,0,1-3.87-4.24.32.32,0,0,1,.19-.44c0-.57-.55-1-.52-1.63.54.18.55.89,1.15.91.46-.76.94-1.54,1.41-2.34a1.1,1.1,0,0,0,.08-.69c-.53-.37-.73-1-1.14-1.46s-.68-1-1.07-1.43c-.14-.17-.51-.43-.13-.74-.92-.92-1.87-.76-2.38.39a2.49,2.49,0,0,0,.52,2.71c.23.23.57.36.62.73.49.1.48.57.67.89,0,.16,0,.31-.16.36-.35-.21-.24-.67-.51-.92-.19.51-.07,1.13-.58,1.53a17.1,17.1,0,0,1-1.44,4.79c0,.3.23.47.42.66.76.77,1.5,1.56,2.29,2.29a21.85,21.85,0,0,0,3.64,2.8,7.16,7.16,0,0,0,1.16-4.15C53.15,37.18,53,37.22,52.92,37.17Zm-4.8-9.48c-.39-.49,0-.82,0-1.2s-.52-.52-.73-.95a1.23,1.23,0,0,1,1.17.86C48.75,26.9,48.48,27.27,48.12,27.69Z"/><path class="cls-2" d="M51.36,28.74c-.53-.37-.73-1-1.14-1.46s-.68-1-1.07-1.43c-.14-.17-.5-.42-.13-.74l.53.39c.53,1,1.39,1.77,2,2.74a1.58,1.58,0,0,1,.25.46Z"/><path class="cls-2" d="M47.78,28.94c.49.1.48.57.67.89-.16.07-.15.22-.16.35-.34-.21-.24-.66-.51-.92Z"/><path class="cls-5" d="M34,93.84a31.2,31.2,0,0,1,3.2.3c1,.09,2.08.15,3.12.21a38.12,38.12,0,0,0,4.14,0c2.26-.12,4.52-.17,6.77-.5a6.52,6.52,0,0,1,1,0A17.81,17.81,0,0,0,52.81,97c.44,2.42,1,4.82,1.37,7.24.24,1.37.44,2.75.64,4.13.12.8.08,1.6.21,2.39a15.1,15.1,0,0,1,0,3.74c-.08.84-.43,1.61-.45,2.44A5.11,5.11,0,0,1,50.41,120a16.87,16.87,0,0,1-4.26,0,32.89,32.89,0,0,1-4.88-1,128.67,128.67,0,0,1-14.75-5,29.6,29.6,0,0,0-3.47-1.4,1.37,1.37,0,0,1-.73-1.53,3.23,3.23,0,0,0,0-.44A12.1,12.1,0,0,1,24,105a1.21,1.21,0,0,0,.29-.73,3.36,3.36,0,0,1,1.77-.17c.81.13,1.62.33,2.43.51.43-.08.8.23,1.22.18a51.56,51.56,0,0,0,5,1.08c.31.35.72.13,1.08.2.23.44.69.45,1.08.52a15,15,0,0,1,1.89.49,1.52,1.52,0,0,1,.84.61,21,21,0,0,0,2.5,3.14c.14.12.26.37.55.09-.31-.39-.58-.82-.92-1.18a13.85,13.85,0,0,1-2.3-3.28c-.72-1.41-1.42-2.82-2.19-4.2a1.13,1.13,0,0,0-.54-.9c-.51-1.54-1.21-3-1.81-4.5,0-.23-.13-.4-.2-.59A8.74,8.74,0,0,1,34,93.84Z"/><path class="cls-16" d="M85.44,70.93c-.58.47-1.17.9-1.73,1.4a6.06,6.06,0,0,0-1.83,3.1A1.67,1.67,0,0,0,82,76.9c.07.41-.18.87.18,1.25l.18.18a2.54,2.54,0,0,1-.78.85,7.54,7.54,0,0,0-2.42,3.76c-.18.66-.12,1.37-.27,2-.37,1.62.2,3.2.12,4.8,0,.3.11.64.11,1s.09.4.36.41V92a1.53,1.53,0,0,0-.36,1A23.11,23.11,0,0,1,79,96.9v4.33a.34.34,0,0,0-.17.3c0,1.07-.13,2.14-.16,3.21,0,1.68-.21,3.34-.27,5a8.81,8.81,0,0,1-.29,2.65c-.09.65-.54.77-1.08.74a7.77,7.77,0,0,0-1,.08,8.44,8.44,0,0,1-2.54.22c-.89-.12-1.76-.08-2.64-.12-.45-.28-1-.21-1.45-.55-.23-1-.07-2-.22-2.93-.27-1.92-.24-3.85-.48-5.77a22.73,22.73,0,0,0-.2-2.84c.13-1.45-.27-2.88-.18-4.34.13-2.17-.26-4.33-.19-6.5a66.58,66.58,0,0,1,.38-7.6,8,8,0,0,1,1.38-4,12,12,0,0,1,4.36-3.51,75.51,75.51,0,0,1,10.84-4.7A.58.58,0,0,1,85.44,70.93Z"/><path class="cls-5" d="M52.62,93.83c.58-.33,1.24-.16,1.86-.32a8.39,8.39,0,0,1,1-.22c.15,0,.3,0,.36-.18a7.18,7.18,0,0,0,2.21-.29,42.42,42.42,0,0,1,4.64-.8c.36,1.63.73,3.25,1.09,4.88a35.58,35.58,0,0,1,.91,4.34c.14,1,.25,2,.42,3a42.88,42.88,0,0,1,.65,5.75c0,1,0,2,0,3a5.21,5.21,0,0,1-2.36,3.54,5.49,5.49,0,0,1-2.69.8,31.91,31.91,0,0,1-5.78-.38,10.13,10.13,0,0,0,.55-3.86c0-1.11.09-2.23,0-3.32-.19-1.47-.43-2.93-.65-4.39-.31-2-.69-4.09-1.09-6.12-.24-1.22-.49-2.44-.75-3.65A4.7,4.7,0,0,1,52.62,93.83Z"/><path class="cls-17" d="M52.62,93.83c.58-.33,1.24-.16,1.86-.32a8.39,8.39,0,0,1,1-.22c.15,0,.3,0,.36-.18a7.18,7.18,0,0,0,2.21-.29,42.42,42.42,0,0,1,4.64-.8c.36,1.63.73,3.25,1.09,4.88a35.58,35.58,0,0,1,.91,4.34c.14,1,.25,2,.42,3a42.88,42.88,0,0,1,.65,5.75c0,1,0,2,0,3a5.21,5.21,0,0,1-2.36,3.54,5.49,5.49,0,0,1-2.69.8,31.91,31.91,0,0,1-5.78-.38,10.13,10.13,0,0,0,.55-3.86c0-1.11.09-2.23,0-3.32-.19-1.47-.43-2.93-.65-4.39-.31-2-.69-4.09-1.09-6.12-.24-1.22-.49-2.44-.75-3.65A4.7,4.7,0,0,1,52.62,93.83Z"/><path class="cls-8" d="M90,115.45a3.43,3.43,0,0,1,.43,1.46,15.22,15.22,0,0,1,.16,3.57,1.9,1.9,0,0,1-1,1.48,4.57,4.57,0,0,1-1.16.5c-1.83.48-3.57,1.22-5.35,1.83a14.63,14.63,0,0,1-5.76.75,3.09,3.09,0,0,1-.53-.09c-.82-.25-1-.78-.59-1.51a9.3,9.3,0,0,1,2-2.08c.66-.56,1.37-1.07,2-1.62a16.05,16.05,0,0,0,2.65-2.56,3.08,3.08,0,0,1,.85-.8,5.57,5.57,0,0,0,4.67-.27A3.34,3.34,0,0,1,90,115.45Z"/><path class="cls-8" d="M77,113.93a1.53,1.53,0,0,1,.44,1.23,20.56,20.56,0,0,1,0,3.42,2.16,2.16,0,0,1-1.87,2.11c-.87.24-1.77.3-2.65.47-1.64.33-3.25.82-4.91,1.06a17.44,17.44,0,0,1-4.21.09,2.83,2.83,0,0,1-.69-.19.75.75,0,0,1-.39-1.23,4.78,4.78,0,0,1,1.34-1.31c1.48-1.08,3.07-2,4.52-3.11.81-.63,1.43-1.44,2.23-2.08.12,0,.24.06.34.1a5.38,5.38,0,0,0,4.41,0C76,114.28,76.52,114.11,77,113.93Z"/><path class="cls-1" d="M65.79,113c0-1,0-2,0-3a42.88,42.88,0,0,0-.65-5.75c-.17-1-.28-2-.42-3h3.78a24.8,24.8,0,0,1,.2,2.84c.24,1.92.22,3.85.49,5.77a29.06,29.06,0,0,0,.21,2.93c-.19.29-.48.17-.74.18Z"/><path class="cls-1" d="M93.88,101.42c.2,2.53.35,5.07.62,7.6.11,1.06.08,2.14.27,3.2H91.21c0-2.93.29-5.85.2-8.79a20,20,0,0,0,.16-2Z"/><path class="cls-1" d="M82,112.41h-4a8.81,8.81,0,0,0,.29-2.65c.06-1.67.23-3.33.27-5,0-1.07.16-2.14.16-3.21a.34.34,0,0,1,.17-.3h1.46l.08.15a8,8,0,0,1,.41,2.46c.26,1.91.47,3.83.72,5.75C81.74,110.53,81.82,111.48,82,112.41Z"/><path class="cls-5" d="M52.62,93.83A4.7,4.7,0,0,0,53,95.57c.26,1.21.51,2.43.75,3.65.4,2,.78,4.07,1.09,6.12.22,1.46.46,2.92.65,4.39.14,1.09,0,2.21,0,3.32a10.13,10.13,0,0,1-.55,3.86H54.6c0-.83.37-1.6.45-2.44a15.1,15.1,0,0,0,0-3.74c-.13-.79-.09-1.59-.21-2.39-.2-1.38-.4-2.76-.64-4.13-.41-2.42-.93-4.82-1.37-7.24a17.81,17.81,0,0,1-.55-3.14Z"/><path class="cls-18" d="M52.62,93.83A4.7,4.7,0,0,0,53,95.57c.26,1.21.51,2.43.75,3.65.4,2,.78,4.07,1.09,6.12.22,1.46.46,2.92.65,4.39.14,1.09,0,2.21,0,3.32a10.13,10.13,0,0,1-.55,3.86H54.6c0-.83.37-1.6.45-2.44a15.1,15.1,0,0,0,0-3.74c-.13-.79-.09-1.59-.21-2.39-.2-1.38-.4-2.76-.64-4.13-.41-2.42-.93-4.82-1.37-7.24a17.81,17.81,0,0,1-.55-3.14Z"/><path class="cls-9" d="M90,115.45a3.34,3.34,0,0,0-1.64.66,5.57,5.57,0,0,1-4.67.27v-1.44a13.78,13.78,0,0,0,5.39-.15,4.5,4.5,0,0,1,.9,0Z"/><path class="cls-9" d="M77,113.93c-.47.18-.95.35-1.41.55a5.38,5.38,0,0,1-4.41,0c-.1,0-.22-.06-.34-.1v-1.07c.88,0,1.76,0,2.64.12a8.44,8.44,0,0,0,2.54-.22,6.22,6.22,0,0,1,1-.08Z"/><path class="cls-1" d="M22.32,110.62a3.23,3.23,0,0,1,0,.44,1.37,1.37,0,0,0,.73,1.53,1.67,1.67,0,0,1-1.15.36,27.29,27.29,0,0,0-3.25.44l-1.24.11a18.48,18.48,0,0,1,3.1-2.33l.88-.59Z"/><path class="cls-1" d="M21.16,102.51A7.19,7.19,0,0,1,24,102c1.3,0,2.59-.24,3.89-.22a14.77,14.77,0,0,1,.59,2.87c-.81-.18-1.62-.38-2.43-.51a3.36,3.36,0,0,0-1.77.17l-.53,0c0-.37-.3-.47-.53-.63C22.59,103.18,21.83,102.93,21.16,102.51Z"/><path class="cls-9" d="M23.76,104.28l.53,0A1.21,1.21,0,0,1,24,105a12.1,12.1,0,0,0-1.68,5.58l-.93,0a5.6,5.6,0,0,1,1-5.35A2,2,0,0,1,23.76,104.28Z"/><path class="cls-5" d="M47.38,77a1.29,1.29,0,0,0-.88-.31,53.71,53.71,0,0,1-5.52-.4,10.9,10.9,0,0,1-2-.23,6.23,6.23,0,0,0-2.11,0,14.65,14.65,0,0,0-.31,1.61A25.89,25.89,0,0,0,36,83.8a3.63,3.63,0,0,0,2.19,3.32,7.4,7.4,0,0,0,4.26.74c2.33-.32,3.55-1,4.2-3.6A26.86,26.86,0,0,0,47.38,77Zm-.58,3.81a23.41,23.41,0,0,1-.63,3.68,3.66,3.66,0,0,1-2.79,2.74,6.78,6.78,0,0,1-5.63-.92,2.12,2.12,0,0,1-1-1.14,5.59,5.59,0,0,1-.29-3,3.55,3.55,0,0,0,.06-.8,26.44,26.44,0,0,1,.48-4.07c.05-.29.08-.59.13-1a6.73,6.73,0,0,1,.78,0c2.89.43,5.8.63,8.71.82.1,0,.2.11.37.21C47,78.52,46.94,79.7,46.8,80.83Z"/><path class="cls-18" d="M47.38,77a1.29,1.29,0,0,0-.88-.31,53.71,53.71,0,0,1-5.52-.4,10.9,10.9,0,0,1-2-.23,6.23,6.23,0,0,0-2.11,0,14.65,14.65,0,0,0-.31,1.61A25.89,25.89,0,0,0,36,83.8a3.63,3.63,0,0,0,2.19,3.32,7.4,7.4,0,0,0,4.26.74c2.33-.32,3.55-1,4.2-3.6A26.86,26.86,0,0,0,47.38,77Zm-.58,3.81a23.41,23.41,0,0,1-.63,3.68,3.66,3.66,0,0,1-2.79,2.74,6.78,6.78,0,0,1-5.63-.92,2.12,2.12,0,0,1-1-1.14,5.59,5.59,0,0,1-.29-3,3.55,3.55,0,0,0,.06-.8,26.44,26.44,0,0,1,.48-4.07c.05-.29.08-.59.13-1a6.73,6.73,0,0,1,.78,0c2.89.43,5.8.63,8.71.82.1,0,.2.11.37.21C47,78.52,46.94,79.7,46.8,80.83Z"/><path class="cls-5" d="M55.86,93.11c-.06.17-.21.19-.36.18a5.1,5.1,0,0,0-.22-2c-.56-2.4-.91-4.84-1.35-7.26a19.57,19.57,0,0,1-.22-2c-.25-2.87-.18-5.74-.19-8.62a21.64,21.64,0,0,0,.18-2.67c.09-.17.23-.16.38-.12-.1,1.94.1,3.88-.17,5.81A14.86,14.86,0,0,0,54,79c.08,1.67.2,3.32.38,5,.25,2.24.75,4.43,1.15,6.65A10.69,10.69,0,0,1,55.86,93.11Z"/><path class="cls-5" d="M55.86,93.11a10.69,10.69,0,0,0-.31-2.46c-.4-2.22-.9-4.41-1.15-6.65-.18-1.66-.3-3.31-.38-5a14.86,14.86,0,0,1-.11-2.58c.27-1.93.07-3.87.17-5.81,2-.15,3.94-.33,5.9-.59l0,.35c-.39.7-.1,1.44-.17,2.16,0,.25-.11.55.18.73,0,.3-.23.47-.41.67a4.06,4.06,0,0,0-1.06,2.2,6.52,6.52,0,0,0-1.1,2,9.11,9.11,0,0,0-1.2,3.5c-.07.28,0,.65.29.68.63.09.58.69.92,1.07.65,0,1.34-.38,2,0,.15.08.33-.1.47-.22l.61-.53c.23.11.35.46.69.37.22.07.37-.09.55-.16s.12.08.13.12l1,4.88c.17.86.35,1.72.53,2.58,0,.64.21,1.38-.72,1.61a42.42,42.42,0,0,0-4.64.8A7.18,7.18,0,0,1,55.86,93.11Z"/><path class="cls-19" d="M74.59,67.33c-.26,0-.43-.18-.64-.26a.78.78,0,0,1,.3-.82.52.52,0,0,0-.35-.55h0c-.42.45-.85,0-1.27,0a19.77,19.77,0,0,1-5-.8,7.53,7.53,0,0,1,2-1.55,1.92,1.92,0,0,0-.2-1.08,38.73,38.73,0,0,0-5.76,2.17,3.23,3.23,0,0,1-2.44.24,4.15,4.15,0,0,0-.79-.08,1.07,1.07,0,0,0-.55.19A13.26,13.26,0,0,0,60,70l0,.35a3,3,0,0,0,1.39-.2,4,4,0,0,1,2.42,0,18.69,18.69,0,0,0,5.42.72c.48,0,.93-.19,1.4-.19,1-.37,1.61-1.37,2.64-1.69.07-.84,1.29-.71,1.34-1.57Zm-4.12-.24a.36.36,0,0,1,0-.09h2.93v.09Z"/><path class="cls-14" d="M100.8,32.45c-.34-1.47-.61-3-.92-4.43a1.86,1.86,0,0,1,.73-2,2.25,2.25,0,0,0,.6-2.63,1.21,1.21,0,0,0-1.07-1,1.3,1.3,0,0,0-1.21.9c-.14.33-.19.71-.59.85a1.51,1.51,0,0,1-.79-1.4,11,11,0,0,0-.21-1.42c-.12-.71-.44-1-1.14-1a2.42,2.42,0,0,1-1.84-.78,1.18,1.18,0,0,0-1.48-.21A4.22,4.22,0,0,0,91.8,20a6.33,6.33,0,0,1-4.55,1.57,14.27,14.27,0,0,0,.54,3.61,20.21,20.21,0,0,0,1.7,5.24,4.52,4.52,0,0,0,3.85,2.52,10.36,10.36,0,0,0,2.42-.84,4.36,4.36,0,0,0,1-.63c.16-.16.34-.24.63,0-1.08,1.26-2.21,2.37-4,2.33-.13.11-.11.33-.3.39a2.37,2.37,0,0,0-.24,1.54,3.35,3.35,0,0,0,3.67,2.37,6.49,6.49,0,0,0,4.28-2,3.15,3.15,0,0,0,1.14-2.26C101,33.73,100.93,33,100.8,32.45ZM89.63,25.87a.34.34,0,0,1-.53.1c-.31-.22-.3-.61,0-1.17l.16,0C89.67,25.09,89.9,25.41,89.63,25.87Zm-1.8-1.75c.52-1,1.17-1.2,2-.61Zm2.53,3.33a29.36,29.36,0,0,1,.29-3,16,16,0,0,1,.24,3.06l.63.19c0,.11,0,.23-.06.26C91,28.26,90.31,28,90.36,27.45Zm.78,2.09a4.17,4.17,0,0,0,2.3-.6A1.55,1.55,0,0,1,91.14,29.54Zm2.46-3.9c-.54-.22-.77-.68-.55-1.05a.34.34,0,0,1,.29-.17.34.34,0,0,1,.34.23A1,1,0,0,1,93.6,25.64Zm-1.1-2.39c.39-.84,1.36-.81,2.08.13A18,18,0,0,0,92.5,23.25Zm5.36,7.48c0,.08-.11.12-.26.1-.09-.31.16-.43.4-.59A.67.67,0,0,1,97.86,30.73Zm1.47-5.5a1.4,1.4,0,0,1,1.12-1.65c-.29.61-1.3,1-.49,1.83C99.59,25.66,99.4,25.6,99.33,25.23Z"/><path class="cls-9" d="M82,76.89a1.65,1.65,0,0,1-.13-1.46,6.06,6.06,0,0,1,1.83-3.1c.55-.5,1.15-.93,1.73-1.39a19.06,19.06,0,0,0,7.12-3.22c2.5-1.94,5.1-3.75,7.66-5.62.53-.39,1.07-.76,1.58-1.17a2.83,2.83,0,0,0,.93-1.8c.34-1.63.64-3.27.91-4.91.09-.53.34-.7.79-.55a36.14,36.14,0,0,0,5.26,1,6.33,6.33,0,0,1,2.24.36,36,36,0,0,1-2.36,8.37,9.5,9.5,0,0,1-4,4A65.67,65.67,0,0,1,94.2,72.73a.46.46,0,0,0-.29.19.5.5,0,0,0-.55.53H93.2c-.18-.24-.37-.25-.55,0h0c-.15,0-.29,0-.36.18a14.71,14.71,0,0,0-1.62,1.08h0A24.55,24.55,0,0,0,87,76a1.43,1.43,0,0,0-.87.71h0c-.65.12-1.08.79-1.8.72l1-2.07-.18-.09a3.06,3.06,0,0,0-1,2.18,2.17,2.17,0,0,1-1.28.7A10.84,10.84,0,0,1,85,73.91a5.27,5.27,0,0,0-2.24,4.24c-.07.16-.22.17-.36.18l-.19-.18a7.32,7.32,0,0,1,1.72-4.51.77.77,0,0,0,.27-.54l.09-.09-.1.08a.9.9,0,0,0-.71.47,7.07,7.07,0,0,0-.92,1.6A12.39,12.39,0,0,1,82,76.89Z"/><path class="cls-10" d="M84.36,77.43c.72.07,1.15-.6,1.8-.72-.17.74-.88.85-1.41,1.06A8.77,8.77,0,0,0,81.32,80a7.38,7.38,0,0,0-2,4.77,24,24,0,0,0,0,3.6c.08.92.15,1.84.15,2.77-.27,0-.36-.15-.36-.4s-.12-.67-.11-1c.08-1.6-.49-3.18-.12-4.8.15-.65.09-1.36.27-2a7.56,7.56,0,0,1,2.42-3.75,2.68,2.68,0,0,0,.79-.85c.14,0,.29,0,.36-.18h.17a2.17,2.17,0,0,0,1.28-.7Z"/><path class="cls-20" d="M84.36,77.43c.72.07,1.15-.6,1.8-.72-.17.74-.88.85-1.41,1.06A8.77,8.77,0,0,0,81.32,80a7.38,7.38,0,0,0-2,4.77,24,24,0,0,0,0,3.6c.08.92.15,1.84.15,2.77-.27,0-.36-.15-.36-.4s-.12-.67-.11-1c.08-1.6-.49-3.18-.12-4.8.15-.65.09-1.36.27-2a7.56,7.56,0,0,1,2.42-3.75,2.68,2.68,0,0,0,.79-.85c.14,0,.29,0,.36-.18h.17a2.17,2.17,0,0,0,1.28-.7Z"/><path class="cls-11" d="M86.16,76.71A1.43,1.43,0,0,1,87,76a24.55,24.55,0,0,1,3.64-1.28.75.75,0,0,1-.54.44,21.76,21.76,0,0,0-3.45,1.46A1.14,1.14,0,0,1,86.16,76.71Z"/><path class="cls-11" d="M93.2,73.45h.16a4.55,4.55,0,0,1-2.69,1.27,14.71,14.71,0,0,1,1.62-1.08c.15,0,.3,0,.36-.18h.55Z"/><path class="cls-9" d="M78.05,50.54c0-.63.68-1,.73-1.59a28.16,28.16,0,0,0,5.49,3.45,5.94,5.94,0,0,0,.82.35c.24.07.53.16.54.51l-.91,1.8h-.19A12.83,12.83,0,0,0,78.05,50.54Z"/><path class="cls-21" d="M84.72,55.06l.91-1.8c.39.48.22,1.1.28,1.63a62,62,0,0,1,.22,8.62c0,.07-.08.15-.13.23-1.1-.43-1.1-.43-1.1-1.69,0-1.67,0-3.34,0-5v-.89a4.11,4.11,0,0,0,.17-.6C85.11,55.29,85.06,55.07,84.72,55.06Z"/><path class="cls-9" d="M80,61.93a4.9,4.9,0,0,1-1.28,1.44,2.92,2.92,0,0,1-.21-.28,11.6,11.6,0,0,0-5.11-4.47c-.31-.15-.67-.26-.92,0-.42.41-1,.71-1.14,1.34a5.76,5.76,0,0,0-1.65,1.79.59.59,0,0,0-.35.54h0a39.27,39.27,0,0,0-5.77,2.17,3.2,3.2,0,0,1-2.43.24,4.17,4.17,0,0,0-.8-.08c-.67-1.17-.31-2.38-.1-3.57.17-1,.53-1.9.65-2.88l.18,0a.18.18,0,0,0,.18-.15h0a3.14,3.14,0,0,0,1.32-.51c1-.41,1.82-1,2.81-1.34.17.67.44,1.3.67,1.94s.43.67,1,.52C69.56,57.92,72,57,74.39,56.2a3.9,3.9,0,0,0,.78-.43,7.52,7.52,0,0,1,2.88,1.37,35.51,35.51,0,0,1,2.7,2.5c.32.32.47.61.1,1a2.9,2.9,0,0,0-.63,1l0,0A.18.18,0,0,0,80,61.93Z"/><path class="cls-22" d="M58.8,50.26c-.07.32.17.6,0,1a2.81,2.81,0,0,1-1,.18c-.32-.24-.22-.66-.4-1s-.66,0-1-.11a1.55,1.55,0,0,1-.12-1c.26-.25.63-.07.88-.33V48c.36-.21.76-.11,1.15-.24.16.37.1.76.32,1.09.31.1.68-.14,1,.06s.13.72.21,1C59.54,50.25,59.16,50.06,58.8,50.26Z"/><path class="cls-5" d="M61.11,58.11l-.18,0a8.05,8.05,0,0,1,.37-2.28,14.87,14.87,0,0,0-.45-6.19c-.3-1.19-.89-2.27-1.12-3.48,0-.09-.08-.18.1-.27.3.17.34.56.44.85a42.41,42.41,0,0,1,1.36,4.9,11.46,11.46,0,0,1-.25,5.49,2.19,2.19,0,0,0-.09.8h0A.18.18,0,0,0,61.11,58.11Z"/><path class="cls-18" d="M44.31,59.24c.7-.63.76-1.24.2-2.61a77.27,77.27,0,0,1-10.58,1.72,6.08,6.08,0,0,0,.3,2.49c-.44,0-.47-.39-.54-.7A8.05,8.05,0,0,1,33.5,58a22.34,22.34,0,0,0,4-.42,42,42,0,0,0,6.29-1.19c.67-.18.82-.31.68-1C44,53,43.6,50.59,42.92,48.25a.31.31,0,0,1,.09-.34c.33.07.35.36.41.61.36,1.62.75,3.24,1.07,4.87s.58,3.33.86,5c.09.5-.1.69-1,1A.41.41,0,0,1,44.31,59.24Z"/><path class="cls-18" d="M43.42,37.21a7.16,7.16,0,0,0,1.41,2.36,15.59,15.59,0,0,0,4.24,3.93c.93.6,1.37.53,2-.37.35-.48.65-1,1-1.48.95.19,1.29,1.24,2.18,1.49a1,1,0,0,0,.36-.7,10.19,10.19,0,0,0,.19-3.61,2.34,2.34,0,0,1,0-.53l.36.18A19.34,19.34,0,0,1,55,42.57c-.09.39-.05.92-.49,1.07s-.8-.25-1.13-.56a1.6,1.6,0,0,0-.54-.46l0-.07-.06,0,.09.09a11.44,11.44,0,0,0,.67,2.77,57.66,57.66,0,0,1,1.64,6.84,21.64,21.64,0,0,1,.08,5.63c-.19,1.68-.51,3.35-.59,5,0,.44-.27.86-.17,1.32a.3.3,0,0,1-.37-.13c.07-1.42.35-2.83.48-4.25a11.77,11.77,0,0,0,.24-2.12A11.82,11.82,0,0,1,55,56a26.92,26.92,0,0,0-.93-7c-.52-2.1-1.14-4.19-1.72-6.28,0-.14-.09-.28-.18-.53a7.27,7.27,0,0,1-2,2.25,15.19,15.19,0,0,1-7.08-7.1C43.13,37.23,43.27,37.21,43.42,37.21Z"/><path class="cls-18" d="M55.86,93.11c-.06.17-.21.19-.36.18a5.1,5.1,0,0,0-.22-2c-.56-2.4-.91-4.84-1.35-7.26a19.57,19.57,0,0,1-.22-2c-.25-2.87-.18-5.74-.19-8.62a21.64,21.64,0,0,0,.18-2.67c.09-.17.23-.16.38-.12-.1,1.94.1,3.88-.17,5.81A14.86,14.86,0,0,0,54,79c.08,1.67.2,3.32.38,5,.25,2.24.75,4.43,1.15,6.65A10.69,10.69,0,0,1,55.86,93.11Z"/><path class="cls-18" d="M61.11,58.11l-.18,0a8.05,8.05,0,0,1,.37-2.28,14.87,14.87,0,0,0-.45-6.19c-.3-1.19-.89-2.27-1.12-3.48,0-.09-.08-.18.1-.27.3.17.34.56.44.85a42.41,42.41,0,0,1,1.36,4.9,11.46,11.46,0,0,1-.25,5.49,2.19,2.19,0,0,0-.09.8h0A.18.18,0,0,0,61.11,58.11Z"/><path class="cls-15" d="M93.34,32.9a10.36,10.36,0,0,0,2.42-.84,4.14,4.14,0,0,0,1-.63c.15-.16.34-.24.63,0-1.08,1.26-2.21,2.37-4,2.33Z"/><path class="cls-3" d="M57.13,29.81a2.58,2.58,0,0,1,.59-2.1,5.4,5.4,0,0,1-.25,2.19Z"/><path class="cls-8" d="M54.08,25.94a1.25,1.25,0,0,1,2.24.23C55.55,26.22,54.87,25.59,54.08,25.94Z"/><path class="cls-6" d="M58.71,29.58c-.08-.06-.19-.09-.22-.15a.71.71,0,0,1,.17-1,.33.33,0,0,1,.54.07.69.69,0,0,1-.24.94A1.45,1.45,0,0,1,58.71,29.58Z"/><path class="cls-8" d="M60.38,27.65c-.64,0-1-.6-1.61-.63.06-.38.28-.48.52-.4.5.19,1,.37,1.08,1Z"/><path class="cls-6" d="M54.75,28.36a.94.94,0,0,1,.2-1.22c.36-.05.54.13.51.39S55.34,28.31,54.75,28.36Z"/><path class="cls-23" d="M52.8,42.62l-.09-.09.06,0,0,.07Z"/><path class="cls-15" d="M48.13,27.69c-.4-.49,0-.83,0-1.2s-.52-.52-.73-.95a1.23,1.23,0,0,1,1.17.86C48.75,26.9,48.48,27.27,48.13,27.69Z"/><path class="cls-23" d="M48.29,30.18c0-.13,0-.28.16-.35C48.48,30,48.5,30.14,48.29,30.18Z"/><path class="cls-8" d="M31.18,101.8a2.66,2.66,0,0,1,3-.58,4,4,0,0,0,1.36.37c.29.27.77.29.94.72a2.2,2.2,0,0,0-1.08,1.46c-.24.7-.4,1.43-.59,2.14a51.56,51.56,0,0,1-5-1.08,1.48,1.48,0,0,1,.19-.71Z"/><path class="cls-5" d="M37.29,102.3c.77,1.38,1.47,2.79,2.19,4.2a13.85,13.85,0,0,0,2.3,3.28c.34.36.61.79.92,1.18-.29.28-.41,0-.55-.09a21,21,0,0,1-2.5-3.14,1.52,1.52,0,0,0-.84-.61,15,15,0,0,0-1.89-.49c-.39-.07-.85-.08-1.08-.52a7.72,7.72,0,0,1,.71-2.84,1.85,1.85,0,0,0,.2-1Z"/><path class="cls-17" d="M37.29,102.3c.77,1.38,1.47,2.79,2.19,4.2a13.85,13.85,0,0,0,2.3,3.28c.34.36.61.79.92,1.18-.29.28-.41,0-.55-.09a21,21,0,0,1-2.5-3.14,1.52,1.52,0,0,0-.84-.61,15,15,0,0,0-1.89-.49c-.39-.07-.85-.08-1.08-.52a7.72,7.72,0,0,1,.71-2.84,1.85,1.85,0,0,0,.2-1Z"/><path class="cls-9" d="M36.75,102.32a1.85,1.85,0,0,1-.2,1,7.72,7.72,0,0,0-.71,2.84c-.36-.07-.77.15-1.08-.2.19-.71.35-1.44.59-2.14a2.2,2.2,0,0,1,1.08-1.46Z"/><path class="cls-2" d="M36.75,102.32h-.32c-.17-.43-.65-.45-.94-.72.38-.35.84-.1,1.26-.19a1.13,1.13,0,0,1,.54.9Z"/><path class="cls-3" d="M82,76.89a12.39,12.39,0,0,0,.53-1.73,7.07,7.07,0,0,1,.92-1.6.9.9,0,0,1,.71-.47h0a.77.77,0,0,1-.27.54,7.32,7.32,0,0,0-1.72,4.51C81.83,77.78,82.08,77.31,82,76.89Z"/><path class="cls-1" d="M31.18,101.8l-1.28,2.32a6.68,6.68,0,0,1-.36-2.35C30.09,101.68,30.65,101.33,31.18,101.8Z"/><path class="cls-5" d="M37.18,76.35a6.73,6.73,0,0,1,.78,0c2.89.43,5.8.62,8.71.82.1,0,.2.11.37.21-.07,1.14-.1,2.32-.24,3.45a23.41,23.41,0,0,1-.63,3.68,3.65,3.65,0,0,1-2.79,2.74,6.78,6.78,0,0,1-5.63-.92,2.12,2.12,0,0,1-1-1.14,5.7,5.7,0,0,1-.3-3,2.68,2.68,0,0,0,.06-.8,27.75,27.75,0,0,1,.49-4.07C37.1,77.05,37.13,76.75,37.18,76.35Z"/><path class="cls-9" d="M69.24,71a18.69,18.69,0,0,1-5.42-.72c-.23.63-.81.94-1.3,1.32-.8.61-1.66,1.15-2.5,1.72,0,.3-.24.47-.41.67a4.06,4.06,0,0,0-1.06,2.2.45.45,0,0,1,.15.63,4.8,4.8,0,0,0-.12,1.71c.16.25.36.18.53.2a.21.21,0,0,1,.18-.18A26.84,26.84,0,0,1,60.39,76c1.66.28,2.72-.72,3.77-1.65.24.28,0,.4-.06.52a3.82,3.82,0,0,1-3,1.47.63.63,0,0,0-.72.51,10.82,10.82,0,0,1-.61,1.29c-.09.19-.18.39-.45.37a.21.21,0,0,1-.18.18c-.09.52-.59.48-.88.7-.43-.36-.19-1.06-.78-1.26a9.28,9.28,0,0,0-1.2,3.5c-.07.28,0,.65.29.68.63.08.57.69.92,1.07.65,0,1.34-.38,2,0,.15.08.33-.1.47-.22l.6-.53a1.44,1.44,0,0,1,.85-1.31A3,3,0,0,0,61.26,83c.22.07.37-.1.55-.16a12.06,12.06,0,0,0,1.92-2A14.9,14.9,0,0,0,66.6,75.5a5.19,5.19,0,0,1,1.92-2.8,10.82,10.82,0,0,0,2.12-1.93C70.17,70.77,69.72,70.92,69.24,71ZM57.62,81.69a4.15,4.15,0,0,1,1.05-2A3.35,3.35,0,0,1,57.62,81.69ZM61,79.56s-.05,0-.07,0a.24.24,0,0,1-.18.18c0,.12,0,.27,0,.35a12.74,12.74,0,0,1-1.91,2.59,9.73,9.73,0,0,1,1.93-2.94.25.25,0,0,1,.18-.18h0L61,79.5S61,79.55,61,79.56ZM61.64,81l-.09.1s0,0,0-.06l.07,0c.28-.62.32-.66,1.07-1.07A1.44,1.44,0,0,1,61.64,81Z"/><path class="cls-2" d="M63.82,70.23c-.23.64-.81,1-1.3,1.33-.8.61-1.66,1.15-2.5,1.72-.29-.18-.2-.48-.18-.73.07-.72-.22-1.46.17-2.16a3,3,0,0,0,1.39-.2A4.16,4.16,0,0,1,63.82,70.23Z"/><path class="cls-3" d="M59.11,78.69c-.09.53-.59.48-.88.7-.43-.36-.19-1.06-.78-1.26a6.52,6.52,0,0,1,1.1-2,.45.45,0,0,1,.15.63,4.8,4.8,0,0,0-.12,1.71c.16.25.36.18.53.2Z"/><path class="cls-3" d="M60.57,82.62a1.41,1.41,0,0,1,.84-1.31A3,3,0,0,0,61.26,83C60.92,83.08,60.8,82.73,60.57,82.62Z"/><path class="cls-23" d="M69.73,61.73a5.76,5.76,0,0,1,1.65-1.79h0a.75.75,0,0,0,.34.4,15.08,15.08,0,0,1,2.7,2.35,6,6,0,0,0,1.11,1h0a9.22,9.22,0,0,0,1.08,1.81,4.41,4.41,0,0,1-2,2l0-.18a1,1,0,0,0-.34-1.08.52.52,0,0,0-.35-.55h0a.74.74,0,0,0-.22-.66c-.52-.49-1-1-1.54-1.5C71.38,62.88,70.44,62.46,69.73,61.73Z"/><path class="cls-9" d="M72.62,65.69a19.39,19.39,0,0,1-5-.79,7.74,7.74,0,0,1,2-1.55A7.45,7.45,0,0,1,72.62,65.69Z"/><path class="cls-21" d="M72.62,65.69a7.45,7.45,0,0,0-3-2.34,1.77,1.77,0,0,0-.2-1.08h0c.79.07,1.29.67,1.89,1.07,1,.66,1.7,1.64,2.63,2.37h0C73.47,66.16,73.05,65.71,72.62,65.69Z"/><path class="cls-24" d="M70.43,67h2.93v.09H70.47Z"/><path class="cls-25" d="M74.25,66.25a1,1,0,0,1,.34,1.08c-.26,0-.43-.18-.64-.26A.8.8,0,0,1,74.25,66.25Z"/><path class="cls-3" d="M90.88,27.55l.64.19c0,.1,0,.23-.07.26-.42.26-1.14,0-1.09-.55a27,27,0,0,1,.3-3A16,16,0,0,1,90.88,27.55Z"/><path class="cls-6" d="M94.58,23.38a18,18,0,0,0-2.08-.13C92.89,22.41,93.86,22.44,94.58,23.38Z"/><path class="cls-6" d="M87.83,24.13c.52-1,1.17-1.21,2-.62Z"/><path class="cls-3" d="M100,25.41c-.37.25-.55.19-.63-.18a1.41,1.41,0,0,1,1.12-1.65C100.16,24.19,99.15,24.59,100,25.41Z"/><path class="cls-3" d="M93.44,28.94a1.54,1.54,0,0,1-2.3.59A4.08,4.08,0,0,0,93.44,28.94Z"/><path class="cls-8" d="M89.14,24.8l.16,0c.37.26.6.58.33,1a.34.34,0,0,1-.53.1C88.79,25.75,88.8,25.36,89.14,24.8Z"/><path class="cls-6" d="M93.6,25.63c-.54-.2-.77-.66-.54-1a.32.32,0,0,1,.28-.17.35.35,0,0,1,.34.23A1,1,0,0,1,93.6,25.63Z"/><path class="cls-15" d="M98,30.24a.67.67,0,0,1-.14.49c0,.08-.11.12-.26.1C97.51,30.52,97.76,30.4,98,30.24Z"/><path class="cls-3" d="M82.91,78.15h-.17A5.27,5.27,0,0,1,85,73.91,10.84,10.84,0,0,0,82.91,78.15Z"/><path class="cls-3" d="M84.36,77.43l-.17,0a3.06,3.06,0,0,1,1-2.18l.18.09Z"/><path class="cls-19" d="M93.2,73.45h-.55C92.83,73.2,93,73.21,93.2,73.45Z"/><path class="cls-19" d="M92.65,73.46c-.06.17-.21.18-.36.18C92.36,73.48,92.5,73.46,92.65,73.46Z"/><path class="cls-3" d="M84.17,73.09l.1-.08-.09.09Z"/><path class="cls-23" d="M71.38,59.94c.16-.63.72-.93,1.14-1.34.25-.24.61-.13.92,0a11.6,11.6,0,0,1,5.11,4.47,2.92,2.92,0,0,0,.21.28,3.9,3.9,0,0,1-2,2.15,2.42,2.42,0,0,0-1.28-1.8h0a.79.79,0,0,0-.27-.72c-.71-.7-1.36-1.45-2.12-2.08a3,3,0,0,0-1.76-1Z"/><path class="cls-19" d="M80.22,61.73a2.9,2.9,0,0,1,.63-1c.37-.44.22-.73-.1-1V59c0-.55.19-.91.82-.93-.29-.4,0-.82-.11-1.21a1.09,1.09,0,0,0,0-.18,1.91,1.91,0,0,1,1.5-.06c.21-.25,0-.57.34-.85h1a.52.52,0,0,0,.53.37V57c-.22.12-.47.28-.48.5a4.15,4.15,0,0,1-.77,1.77A4,4,0,0,1,80.22,61.73Z"/><path class="cls-26" d="M75.52,63.72a2.42,2.42,0,0,1,1.28,1.8h-.2A9.22,9.22,0,0,1,75.52,63.72Z"/><path class="cls-19" d="M80,61.93a.18.18,0,0,1,.16-.18C80.2,61.85,80.13,61.9,80,61.93Z"/><path class="cls-23" d="M78.06,50.54c-.53.27-.65.82-.92,1.28,0,.44.33.49.65.6A14.86,14.86,0,0,1,82,54.83c.1.08.15.18,0,.37a6.64,6.64,0,0,1-1.46-.89,11.46,11.46,0,0,0-3.85-1.78c-.43.17-.46.73-.88.92a.72.72,0,0,1,0,.38.88.88,0,0,0,0,.56c.44.1.93.18,1.4.32a18.93,18.93,0,0,1,2.07.75,6.69,6.69,0,0,1,1.83,1.23h.36a1.91,1.91,0,0,1,1.5-.06c.21-.25,0-.57.34-.85h1l.18-.71A12.91,12.91,0,0,0,78.06,50.54Zm4.53,5a.25.25,0,0,1,0-.07l-.09-.1.06,0s0,0,0,.07,0,.07.09.09Z"/><path class="cls-2" d="M77.14,51.82c0,.44.33.49.65.6A15.24,15.24,0,0,1,82,54.83a.26.26,0,0,1,0,.37,6.35,6.35,0,0,1-1.45-.89,11.6,11.6,0,0,0-3.86-1.78C76.77,52.22,76.81,52,77.14,51.82Z"/><path class="cls-2" d="M84.36,55.78l.17-.71h.19c.34,0,.39.23.34.49a4.11,4.11,0,0,1-.17.6A.52.52,0,0,1,84.36,55.78Z"/><path class="cls-23" d="M81.46,56.87c.08.39-.18.81.11,1.21-.63,0-.84.38-.82.93v.63a35.51,35.51,0,0,0-2.7-2.5,7.52,7.52,0,0,0-2.88-1.37c0-.12,0-.24,0-.36.06-.65.23-.8.84-.64A15.89,15.89,0,0,1,79.4,56a3.67,3.67,0,0,0,1.71.69h0C81.17,56.85,81.31,56.87,81.46,56.87Z"/><path class="cls-19" d="M73.9,65.71C73,65,72.26,64,71.27,63.34c-.6-.4-1.1-1-1.89-1.07a.59.59,0,0,1,.35-.54c.71.73,1.65,1.15,2.41,1.82.54.48,1,1,1.54,1.5A.74.74,0,0,1,73.9,65.71Z"/><path class="cls-23" d="M61.11,58.11a.18.18,0,0,1,.18-.15A.18.18,0,0,1,61.11,58.11Z"/><path class="cls-3" d="M59.29,78.51A26.84,26.84,0,0,1,60.39,76c1.66.28,2.72-.72,3.77-1.65.24.28,0,.4-.06.52a3.82,3.82,0,0,1-3,1.47.62.62,0,0,0-.72.5,10.26,10.26,0,0,1-.61,1.3c-.09.19-.18.39-.45.37Z"/><path class="cls-3" d="M60.74,79.77c0,.12,0,.27,0,.35a12.74,12.74,0,0,1-1.91,2.59,9.73,9.73,0,0,1,1.93-2.94Z"/><path class="cls-3" d="M58.67,79.72a3.3,3.3,0,0,1-1.05,2A4.08,4.08,0,0,1,58.67,79.72Z"/><path class="cls-3" d="M61.63,81c.29-.62.32-.66,1.07-1.07A1.45,1.45,0,0,1,61.64,81Z"/><path class="cls-3" d="M60.91,79.59,61,79.5s0,0,0,.06l-.08,0Z"/><path class="cls-3" d="M59.29,78.51a.21.21,0,0,1-.18.18h0a.24.24,0,0,1,.18-.18Z"/><path class="cls-3" d="M61.64,81l-.09.09s0,0,0-.06l.07,0Z"/><path class="cls-3" d="M60.73,79.77a.24.24,0,0,1,.18-.18h0a.21.21,0,0,1-.17.18Z"/><path class="cls-26" d="M71.37,59.94a3,3,0,0,1,1.76,1c.76.63,1.41,1.38,2.12,2.08a.79.79,0,0,1,.27.72,6,6,0,0,1-1.11-1,15.08,15.08,0,0,0-2.7-2.35A.75.75,0,0,1,71.37,59.94Z"/><path class="cls-2" d="M81.46,56.87c-.15,0-.29,0-.35-.18h.36A1.09,1.09,0,0,1,81.46,56.87Z"/><path class="cls-2" d="M82.55,55.43l-.09-.09h.06s0,0,0,.07Z"/><path class="cls-2" d="M82.56,55.42l.08.09h0a.25.25,0,0,1,0-.07Z"/><polyline class="cls-27" points="91.55 101.75 91.56 101.05 91.6 96.92 91.6 96.78 91.6 96.36"/><polyline class="cls-27" points="92.08 102.33 91.56 101.42 91.56 101.05 91.52 97.26 91.59 96.85 91.6 96.78 91.72 96.06"/><path class="cls-24" d="M70.47,68.61c1,0,2-.22,3.08-.22h0a13.26,13.26,0,0,1-1.53.17c-.52,0-1,.06-1.55.05Z"/><path class="cls-24" d="M69.56,69.54c1,0,2-.21,3.08-.21h0a13.26,13.26,0,0,1-1.53.17c-.52,0-1,.06-1.55,0Z"/><polyline class="cls-27" points="80.56 102.09 80.49 101.38 80 96.75 79.98 96.61"/><path class="cls-18" d="M103.67,54c.1-.07.37-9.06.48-8.78s0,8.37,0,8.37-.24.18-.32.22A1.06,1.06,0,0,0,103.67,54Z"/><polygon class="cls-18" points="85.63 53.26 86.49 43.93 85.85 53.65 85.63 53.26"/><path class="cls-18" d="M91.63,51.13a11.4,11.4,0,0,1,6.13-.28c1.47.54,1.21.67,1.21.67s-8-.08-8.62,0S91.63,51.13,91.63,51.13Z"/><path class="cls-14" d="M60.55,26.92l-.25,1-.87,1.94-.49.18-1.51-.18-.88-.25-2.7-.82s-1.18-1.88-1.19-1.93.66-1.56.66-1.56,1.39-.13,1.71-.19.84-.5,1.27-.46,1.57-.27,1.89.13S60.55,26.92,60.55,26.92Z"/><path class="cls-14" d="M96.78,22.9s1.93,4.26,1.93,4.56-1.8,1.64-1.8,1.64a16.14,16.14,0,0,1-2.07,2,38.71,38.71,0,0,1-3.94.07l-1.46-2-1-2.88-.72-2L88,23a12.68,12.68,0,0,1,2.79-1.31c.57,0,3.2-.44,3.48-.33s2.44,1.46,2.44,1.46Z"/></svg>