<svg id="Layer_1" data-name="Layer 1" xmlns="http://www.w3.org/2000/svg" viewBox="0 0 144 144"><defs><style>.cls-1{fill:#fcebea;}.cls-2{fill:#dd4e4e;}.cls-3{fill:#bf3f3c;}.cls-4{fill:#fefefe;}.cls-5{fill:#232323;}.cls-6{fill:#892327;}.cls-7{fill:#162646;}.cls-8{fill:#1b1c1e;}.cls-9{fill:#ca3d3b;}.cls-10{fill:#0a0f1f;}.cls-11{fill:#fb7970;}.cls-12{fill:#fc6f65;}.cls-13{fill:#bd3f3d;}.cls-14{fill:#fce3df;}.cls-15{fill:#fb7d78;}.cls-16{fill:#fb877f;}.cls-17{fill:#0f0e0e;}.cls-18{fill:#fbada5;}.cls-19{fill:#fba79f;}.cls-20{fill:#fbb2ab;}.cls-21{fill:#8c282a;}.cls-22{fill:#f2fbfb;}</style></defs><title>Get Connected with Licensed Doctors</title><ellipse class="cls-1" cx="72" cy="69.8" rx="71.19" ry="51.83"/><path class="cls-2" d="M138.35,41.68a42.87,42.87,0,0,1,2.56,24.56A60.08,60.08,0,0,1,131.25,89a81.71,81.71,0,0,1-17,18,97,97,0,0,1-45,19.43,81.49,81.49,0,0,1-24.7,0,59.57,59.57,0,0,1-23.1-8.56A42.81,42.81,0,0,1,5.28,99.37,42.61,42.61,0,0,1,2.69,74.91a59.78,59.78,0,0,1,9.62-22.74,83.13,83.13,0,0,1,16.91-18,97.27,97.27,0,0,1,45-19.6A81.82,81.82,0,0,1,99,14.47,60,60,0,0,1,122.2,23,42.8,42.8,0,0,1,138.35,41.68Zm-1.25.54A41.56,41.56,0,0,0,121.48,24.1a58.72,58.72,0,0,0-22.72-8.41,80.68,80.68,0,0,0-24.38,0A96.21,96.21,0,0,0,29.81,34.9,79.87,79.87,0,0,0,13.07,52.69,59,59,0,0,0,3.64,75.08a40.76,40.76,0,0,0,18.17,42.21,59.17,59.17,0,0,0,22.85,8.38,80.82,80.82,0,0,0,24.45-.09,96,96,0,0,0,44.52-19.4A80.32,80.32,0,0,0,130.3,88.37,58.75,58.75,0,0,0,139.68,66,41.51,41.51,0,0,0,137.1,42.22Z"/><path class="cls-3" d="M34.09,70.59c5.43,0,9.5,3.2,10.56,7.39,1.37,4.71,0,10.47-5.12,14.49L32,99H45.52v6.4h-23v-6L35.77,87.46c1.78-1.62,3.2-3.66,3.2-5.93A4.62,4.62,0,0,0,34.09,77c-3.09,0-6,2.62-7.41,5.65l-4.52-4.43C24.7,73.33,28.56,70.59,34.09,70.59Z"/><path class="cls-4" d="M105.88,49.76a5.1,5.1,0,0,0,1-1.06c.34-.54,2.75-.9,2.75-.9a14.39,14.39,0,0,1,1.7.17c0,.08,1.08,2.09,1.08,2.09a10.18,10.18,0,0,1-1.19,1.46c-.16,0-5.29-.88-5.29-.88Z"/><path class="cls-5" d="M91,118.56c.05.52.11,1,.17,1.56C91.07,119.6,91,119.08,91,118.56Zm5.94-5.92q-.06-10.08-.11-20.15a3.89,3.89,0,0,0-.05-.9v0a1.23,1.23,0,0,0,0-.63s0-.07,0-.07a7.42,7.42,0,0,1-1-1.19c-.08-.1-.14-.19-.28-.15-.08.89,0,1.77,0,2.66,0,.2,0,.39,0,.59,0,2.91,0,5.81,0,8.72a4.52,4.52,0,0,1,0,.9c0,.16,0,.33,0,.49,0,3.6,0,7.2,0,10.8,0,.11,0,.21,0,.32v.63l0,3.49a5.9,5.9,0,0,1,0,1.26,4,4,0,0,1-1.06,2,1.66,1.66,0,0,1-.95.5l-2.22.32v0l-5.25.69a.4.4,0,0,1-.44.06h0l-1.45.19c0,.1-.09.09-.16.08l-.09,0s-.05,0-.08,0l-3.18.5-.55.08c-.67.11-1.35.2-2,.29l-.15,0-.41.06-.65.1c-1.13.18-2.26.3-3.37.55,0,0,0,.06-.09,0s-.3,0-.46.08-.11.09-.17,0l-.6.07a.23.23,0,0,1-.15,0,.12.12,0,0,1-.05,0l-4.88.74,0,0a.38.38,0,0,1-.29,0h-.07l-1.7.25,0,0a1.4,1.4,0,0,1-.34.08l-2.72.4-3.78.59c-.71.12-1.42.21-2.14.27a2.5,2.5,0,0,1-1.83-.64,5.18,5.18,0,0,1-1.2-1.72.86.86,0,0,1,0-.36c-.12-.08-.12-.18,0-.27-.15-2.16,0-4.33-.08-6.49,0-.16,0-.33,0-.49v-.18c0-1-.05-2.11,0-3.17a.23.23,0,0,1,0-.18c-.05-1,0-2.06,0-3.09a9.9,9.9,0,0,1,0-1.22v-8c0-2.58,0-5.15,0-7.73,0-.13,0-.27,0-.4-.23-.16-.24-.29,0-.46a6.53,6.53,0,0,0,0-1.17c-.11,0-.15.08-.15.18s0,.32,0,.46a.72.72,0,0,1-.46.08h-.35c-.24.25-.38,0-.54-.12s-.13-.34-.37-.32v4.62q.19.13,0,.27c0,9.21,0,18.41,0,27.62a5.1,5.1,0,0,0,1.5,3.69,4.65,4.65,0,0,0,1.92,1.27l.19,0s.06,0,.09,0a5.25,5.25,0,0,0,1.53-.08l3.84-.63,4.6-.7c1.47-.23,2.94-.52,4.42-.7s2.83-.43,4.25-.63c2.25-.31,4.49-.7,6.74-1.06,0,0,0-.06.08,0a.4.4,0,0,0,.28-.06c0-.1.13-.09.22-.05l.24,0c0-.09.1-.11.16,0a.76.76,0,0,0,.39-.05h.08a1.86,1.86,0,0,0,.62-.09h.09a.8.8,0,0,0,.37-.08c.08-.12.16-.14.26,0a9,9,0,0,0,1.47-.23c.09-.05.15-.19.26,0l.19,0c.12,0,.21-.19.35-.06l1.38-.22.09,0a1.34,1.34,0,0,0,.53-.08c0-.1.1-.13.18,0l.55-.07c.08-.12.17-.13.26,0a.66.66,0,0,0,.14,0c1.61-.29,3.24-.51,4.87-.73a3.9,3.9,0,0,0,3-2,5.88,5.88,0,0,0,.78-3.17C96.93,116.68,96.91,114.66,96.9,112.64ZM91,118.56c.05.52.11,1,.17,1.56C91.07,119.6,91,119.08,91,118.56Z"/><path class="cls-6" d="M86.15,122.91l0,0c-.08-.43-.14-.86-.23-1.29-.58-2.82-1.18-5.64-1.74-8.47-.71-3.55-1.41-7.1-2.16-10.64-.46-2.22-.87-4.44-1.4-6.64-.41-1.67-.64-3.38-1.08-5a.25.25,0,0,0,0-.22c0-.1,0-.21,0-.32s.08-.24.24-.16.08.29.11.44a.08.08,0,0,0,0,.08c0,.13,0,.28.12.39.85,0,1.72,0,2.59,0a.86.86,0,0,0,.45,0l1.46,0a22.77,22.77,0,0,0,3.09,0h.17l.35.06h0c0,.8.14,1.59.23,2.38.13,1.13.29,2.26.42,3.4.08.72.1,1.44.21,2.15.18,1.22.28,2.45.41,3.67s.23,2.19.31,3.28c.1,1.27.28,2.54.42,3.81s.27,2.63.41,3.94c.16,1.58.31,3.16.48,4.74.05.52.11,1,.17,1.56,0,.36.09.72.13,1.08s.09.68.14,1Z"/><path class="cls-6" d="M84.26,123.16c.07-.16-.06-.3-.05-.46s.1-.24-.09-.26c0-.18,0-.36-.08-.54-.15-.54-.27-1.09-.39-1.64-.15-.7-.28-1.41-.43-2.12s-.28-1.24-.38-1.86c-.13-.83-.25-1.66-.42-2.48-.38-1.84-.74-3.68-1.13-5.52a17.87,17.87,0,0,0-.51-2.28,8.64,8.64,0,0,1-.27-1.52s0-.06,0-.08a.32.32,0,0,0,0-.14,20.28,20.28,0,0,1-.58-2.54c-.14-.88-.3-1.75-.47-2.62-.4-1.95-.79-3.91-1.13-5.88a9.67,9.67,0,0,0-.44-1.84.73.73,0,0,0-.87-.49c-.38,0-.5.14-.61.58a2.61,2.61,0,0,0-.06.27l-.54,4.52c-.17,1.48-.35,2.95-.52,4.43v.09l0,.36c0,.12-.09.23-.07.36l0,.55a6.27,6.27,0,0,0-.17,1c-.1.77-.22,1.54-.3,2.32s-.22,1.55-.32,2.32c-.18,1.28-.37,2.56-.51,3.84s-.39,2.31-.43,3.49c-.11.14-.06.3-.07.46s0,.12,0,.18a28.37,28.37,0,0,0-.43,2.89c-.09.61-.17,1.22-.25,1.82-.11,0-.16.1,0,.18-.11.91-.19,1.82-.35,2.72-.07,0-.08,0,0,.09a12,12,0,0,1-.17,1.36c-.1.06-.11.11,0,.18a.34.34,0,0,0,0,.12l-4.88.74,0,0a7.25,7.25,0,0,1,0-1.32q0-3.47,0-6.93c0-1.45,0-2.9,0-4.35,0,0,0,0,0,0s0,0,0-.06a1.63,1.63,0,0,1,0-.54q.09,0,0-.09a1.79,1.79,0,0,1,0-.23q0-6.5,0-13c0-2.45,0-4.89,0-7.34,0-.07,0-.15-.1-.21s-.25,0-.35.16c0,11.32.14,22.66.13,34l0,0-1.7.25a.28.28,0,0,0,.1-.09c-.05-1.13,0-2.29-.08-3.45-.08-2,0-4-.1-6.06,0-1.15,0-2.29,0-3.44,0-2.63,0-5.25,0-7.88v-.19c0-.27,0-.54,0-.81a3.21,3.21,0,0,0,.07-.53c0-.95,0-1.9.08-2.85.06-2.06.11-4.12.2-6.18,0-.46,0-.93.07-1.4a3.43,3.43,0,0,0,0-1.06,1.3,1.3,0,0,0-.36-.13,4.56,4.56,0,0,1-1.58-.73c-.31-.23-.6-.46-.92-.66a4.48,4.48,0,0,1-1.82-2.92c-.21-.79-.24-1.6-.37-2.39a1.61,1.61,0,0,0-.11-.84.77.77,0,0,1,.46-.15c0,.42.07.84.11,1.26a10,10,0,0,0,.52,2.55A2.84,2.84,0,0,0,62,89.38s0,.07,0,.11a1,1,0,0,0,.55.68c0,.2.13.3.36.36-.06-.24-.16-.34-.36-.36a1.48,1.48,0,0,0-.43-.72.83.83,0,0,0-.08-.12c0-.15-.08-.31,0-.46.4.23.56.65.84,1,0,0,0,.09.09.09h0a3.74,3.74,0,0,0,1.23,1.24,9.31,9.31,0,0,0-1.13-1.62h0L63,89.46c0-.19-.18-.35-.14-.55.27-.08.4,0,.52.26a8.72,8.72,0,0,0,1.19,1.58,2.85,2.85,0,0,0,.89.69.51.51,0,0,0,.53,0c0-.06,0-.1,0-.12l-.29-.28a6.61,6.61,0,0,1-1.56-2c-.06-.13-.17-.29,0-.4s.28,0,.36.16l.44.64A8.41,8.41,0,0,0,66.17,91c.14.12.27.29.51.14l-.07-.18c-.32-.83-.75-1.62-1-2.47a11.22,11.22,0,0,1-.43-1.8c0-.37.17-.53.49-.36a3.5,3.5,0,0,1,.81.49,4.82,4.82,0,0,0,1.1.63.21.21,0,0,0,.3,0,1.24,1.24,0,0,0-.34-.51A34.81,34.81,0,0,1,65,84a6.56,6.56,0,0,1-.54-.83c-.07-.12-.13-.24,0-.37s.26-.09.42,0A3.83,3.83,0,0,0,65.67,84c.76.9,1.54,1.78,2.3,2.67a1.4,1.4,0,0,1,.39.65c.08.36,0,.52-.39.55a1.91,1.91,0,0,1-1-.27,11.16,11.16,0,0,0-1.34-.69,16.29,16.29,0,0,0,1.12,3.15c.06.19.07.43.36.43.09-.15,0-.28,0-.41l.32,0h6.16c.13,0,.27.05.39,0a.44.44,0,0,0,.06-.31l-.15-5.25c0-.47,0-.94,0-1.4l-.12-5.3,6.62,0c0,.81,0,1.63-.07,2.45a.32.32,0,0,0,0,.27c0,.09,0,.18,0,.27a1,1,0,0,0,0,.45c0,.42,0,.85-.07,1.27a.28.28,0,0,0,0,.18c0,.06,0,.12,0,.18a.87.87,0,0,0,0,.36l-.06,1.46a.22.22,0,0,0,0,.18v.27a1.09,1.09,0,0,1,0,.18.5.5,0,0,0,0,.27c0,.54-.09,1.09-.08,1.64a.72.72,0,0,0,0,.54A10.63,10.63,0,0,0,79.86,89v.28a.11.11,0,0,0,0,.18.91.91,0,0,1-.09.36l-.29.09c-.39,0-.45,0-.42.35a7,7,0,0,0,.14.9c.7,3.33,1.42,6.67,2.12,10q1.5,7.29,3,14.59c.49,2.41,1,4.82,1.43,7.23Z"/><path class="cls-7" d="M100.16,127.42a2.5,2.5,0,0,1,0-.82c.18-.09.1-.25.08-.38s-.07,0-.11,0c-.1-1.15-.12-2.29-.17-3.44-.21-4.72-.34-9.45-.48-14.17-.17-5.6-.2-11.2,0-16.81,0-.61,0-1.23.07-1.85v-.58c0-.24.07-.48.08-.72,0-.87.09-1.74.15-2.61.11-1.43.2-2.86.3-4.29a1.47,1.47,0,0,1,.08-.35c.17-.46.38-.91.54-1.38.39-1.15.94-2.23,1.35-3.37.19-.52.46-1,.6-1.55,0-.19.13-.38.4-.35a.3.3,0,0,0,.3-.16c.07-.14.2-.13.31-.11.43.09.86.13,1.29.19a19.29,19.29,0,0,0,3,.26,2.69,2.69,0,0,1,.4,0,10.62,10.62,0,0,0,2.39,0c.56-.05,1.13-.08,1.7-.14.73-.06,1.45-.19,2.18-.26.39,0,.75-.19,1.14-.21.21,0,.37,0,.44.28s.37.54.4.89c0,.08.11.09.18.1a22.46,22.46,0,0,1,1.79,5.77,20.54,20.54,0,0,1,0,4.57c-.28,2.82-.46,5.65-.62,8.49s-.33,5.67-.31,8.51c0,2.49.1,5,.14,7.47,0,3.55-.09,7.09-.37,10.63q-.25,3-.53,6.09c0,.14,0,.27-.05.41s-.15.2-.3.17-.07-.07-.09,0a.5.5,0,0,1-.27,0c0-.1-.13-.11-.23-.11-1.35.06-2.69-.14-4-.09-.13,0-.28,0-.37.1-.16,0-.1-.2-.11-.3-.08-1.24-.15-2.47-.22-3.71-.15-2.39-.29-4.79-.44-7.19-.16-2.62-.32-5.24-.5-7.86-.16-2.32-.31-4.64-.39-7-.07-1.75-.17-3.5-.13-5.25.1,0,.17-.06.17-.17a2.23,2.23,0,0,1,0-.45c.24-1.16.49-2.31.75-3.46q.57-2.53,1.15-5.07c.05-.22.06-.49.29-.63a6.6,6.6,0,0,0,1.1-1,5.28,5.28,0,0,0,1-1.55c.07-.16.08-.34-.11-.42s-.3.07-.36.2a6.72,6.72,0,0,1-2.06,2.4.86.86,0,0,0-.33.57,22.59,22.59,0,0,1-.55,2.67c-.15.6-.31,1.21-.43,1.82-.2,1.07-.49,2.12-.69,3.19-.08.39-.3.79,0,1.17-.14,0-.15.12-.17.23-.62,3.06-1.16,6.13-1.67,9.21-.34,2-.4,4-.56,6-.21,2.71-.47,5.41-.74,8.11s-.59,5.43-.9,8.15c0,.08,0,.17,0,.25-.2.15-.42.09-.63.12-.13-.18-.33-.09-.5-.09A21.46,21.46,0,0,1,100.16,127.42Z"/><path class="cls-8" d="M51,92.17v4.62q-.18.13,0,.27c0,9.21,0,18.41,0,27.62a5.11,5.11,0,0,0,1.5,3.69,4.65,4.65,0,0,0,1.92,1.27,11,11,0,0,1-2.92-.19,5.15,5.15,0,0,1-4-3.87,7.69,7.69,0,0,1-.22-2.19q.06-3.37,0-6.75c0-2.34,0-4.69,0-7,0-3.15,0-6.29,0-9.43q0-15.15,0-30.31l0-48.2q0-3,0-6.07a5.92,5.92,0,0,1,.2-1.52,5.16,5.16,0,0,1,6-3.83.4.4,0,0,1-.28.32A3.17,3.17,0,0,0,51.78,12a4.86,4.86,0,0,0-.84,2.66c0,12.85-.11,25.7.07,38.55A43.45,43.45,0,0,1,51,57.58c-.08.92,0,1.85,0,2.77a1.79,1.79,0,0,0,0,.4,5.47,5.47,0,0,1,0,1.76,30.2,30.2,0,0,0,0,3.43,2.7,2.7,0,0,1,0,.75,2.51,2.51,0,0,0-.06.72c.05,6.2-.12,12.4.09,18.61,0,.39-.12.77-.1,1.16s.09.65.1,1c0,1.17-.14,2.32-.1,3.48A1.08,1.08,0,0,0,51,92.17Z"/><path class="cls-9" d="M119,61c.23,1.18.41,2.38.55,3.57.18,1.51.33,3,.42,4.55a8.35,8.35,0,0,1-.07,1.8,3.83,3.83,0,0,1-.63,1.63,9.89,9.89,0,0,1-2.4,2.43c-.33,0-.4-.08-.5-.6.5-.28.54-.34.44-.84-.21-1-.42-2-.58-3a19.45,19.45,0,0,1-.2-4.82c.18-2,.6-3.93.85-5.9.07-.58.15-1.16.22-1.75,0-.21,0-.4-.3-.37a1.07,1.07,0,0,0-.13.38c-.23,2-.62,3.87-.87,5.81a22.31,22.31,0,0,0-.3,3.83,28.42,28.42,0,0,0,.49,4,21.26,21.26,0,0,1,.38,2.15,31.71,31.71,0,0,1-12.8.28c.19-.62.38-1.18.56-1.76a53.56,53.56,0,0,0,1.55-8.25c.2-1.4.39-2.8.59-4.2.08-.57.15-1.14.22-1.7,0-.2,0-.37-.28-.34a.49.49,0,0,0-.13.28c-.16,1.07-.34,2.14-.46,3.22-.21,1.82-.5,3.64-.77,5.46a40.24,40.24,0,0,1-1.24,5.64,13.24,13.24,0,0,1-.67,1.83.86.86,0,0,1-.45,0,19.64,19.64,0,0,1-3.69-1,1,1,0,0,0-.57-.11l-.1,0a.32.32,0,0,0-.29-.13c-.22-.06-.18-.23-.16-.4,0-.74.23-1.46.35-2.19.34-2.11.62-4.23.87-6.36.26-2.29.53-4.58.88-6.86,0-.05,0-.11,0-.17a2.21,2.21,0,0,0,.3-.77c.14-.1.26.1.4,0a2.67,2.67,0,0,0,.72-.91.4.4,0,0,1,.54-.26c.26.09.36,0,.52-.2s.15-.47.37-.54A.73.73,0,0,0,103,54c.28-.42.64-.47,1.06-.11a3.7,3.7,0,0,0,1.36-1.55.92.92,0,0,0,.76-.31c0-.23-.3-.17-.33-.36.54-.36.6-.36,1.1,0a.62.62,0,0,0,.68,0c.14-.06.26-.16.44,0a2.56,2.56,0,0,0,.24,1c.42.28.94.15,1.35.28.15.19-.16.23,0,.41a1.25,1.25,0,0,1,.81,0,.22.22,0,0,0,.27-.12c0-.09.08-.2.27-.22.26.31.37.84,1,.84.39-.38.68.33,1.06.16.12.14,0,.31.17.43a1,1,0,0,1,.9.1,2.48,2.48,0,0,0,.44.2,1.7,1.7,0,0,1,.68.41c.29.41.38.44.89.32a10.27,10.27,0,0,0,1.42.94A.77.77,0,0,1,118,57c.06.32.39.56.21.94,0,.07.06.2.14.27a.26.26,0,0,1,.11.23,4.59,4.59,0,0,0,.24,1.32.5.5,0,0,1-.15.49c.19.09.3.18.21.4A.25.25,0,0,0,119,61Z"/><path class="cls-5" d="M51,92.17a1.08,1.08,0,0,1-.09-.53c0-1.16.14-2.31.1-3.48,0-.33-.08-.65-.1-1S51,86.41,51,86c-.21-6.21,0-12.41-.09-18.61a2.51,2.51,0,0,1,.06-.72,2.7,2.7,0,0,0,0-.75,30.2,30.2,0,0,1,0-3.43,5.47,5.47,0,0,0,0-1.76,1.79,1.79,0,0,1,0-.4c0-.92-.07-1.85,0-2.77A43.45,43.45,0,0,0,51,53.16c-.18-12.85,0-25.7-.07-38.55A4.86,4.86,0,0,1,51.78,12a3.17,3.17,0,0,1,1.5-1.37.4.4,0,0,0,.28-.32,12.44,12.44,0,0,1,1.93.26c3.33.56,6.69,1,10,1.45l9.59,1.36c2.62.38,5.23.76,7.85,1.12,1.94.27,3.89.52,5.83.78,1.26.16,2.51.35,3.77.48A4.24,4.24,0,0,1,96,18.17a5.12,5.12,0,0,1,.61,2.43q0,5.59,0,11.19l.09,30.39a.69.69,0,0,0,0,.35l0,13.31c0,.54,0,1.09,0,1.63a5.35,5.35,0,0,1-1.32.1v-.76c-.05-6.25,0-12.49-.06-18.73,0-.93.09-1.86,0-2.8,0-.18,0-.36,0-.54q0-14.1-.06-28.21c0-1.83,0-3.66,0-5.48a6,6,0,0,0-.11-1,2.62,2.62,0,0,0-2.24-2.28L90,17.36c-1.45-.2-2.89-.4-4.34-.58a1.52,1.52,0,0,0-.87,0c0,.81-.07,1.6-.08,2.4a2.44,2.44,0,0,1-.38,1.24,1.48,1.48,0,0,1-1,.7,7.57,7.57,0,0,1-1.07,0,.2.2,0,0,0-.28,0,1.43,1.43,0,0,0-.54-.06c0-.08-.11-.1-.18,0l-.49-.07-2.72-.34-3.67-.43a.89.89,0,0,0-.46-.05,6.08,6.08,0,0,0-1.27-.18.12.12,0,0,0-.19,0,6.58,6.58,0,0,0-1.26-.16.14.14,0,0,0-.19,0,2,2,0,0,0-.54-.06.12.12,0,0,0-.18,0,2,2,0,0,0-.54-.06.13.13,0,0,0-.19,0,1.57,1.57,0,0,0-.53-.05,4.7,4.7,0,0,0-1-.12,2.14,2.14,0,0,1-1.78-.93,3.56,3.56,0,0,1-.66-2.15c0-.52,0-1,0-1.58s-.2-.76-.62-.83l-2-.3c-.87-.13-1.76-.18-2.63-.36,0-.08,0-.18.07-.24s.48.2.63-.12c-.15-.18-.47.07-.53-.25a1.14,1.14,0,0,1,.45,0,11.16,11.16,0,0,0,1.64.23c.83.1,1.66.25,2.49.33.55.06,1.09.18,1.65.23s1.18.15,1.78.23,1,.15,1.55.21l2.36.31c.79.1,1.57.22,2.36.33l1.65.21,2.88.42,2.18.31c1.11.16,2.21.35,3.33.43.44,0,.87.06,1.3.11l1.87.24c.58.07,1.16.11,1.74.21s1.42.18,2.14.23c.44,0,.89.12,1.33.16.26,0,.52.22.82.05-.12-.15-.27-.09-.39-.12a18,18,0,0,0-3.09-.51c-.83-.09-1.65-.25-2.48-.36a12,12,0,0,0-1.79-.2,5.91,5.91,0,0,1-1-.12c-.77-.11-1.54-.19-2.31-.32s-1.83-.28-2.75-.4-2-.26-3.06-.42c-.74-.12-1.49-.17-2.23-.31-1-.17-1.92-.24-2.88-.42-.65-.12-1.31-.17-2-.29-.39-.07-.77-.11-1.16-.16-.78-.09-1.57-.22-2.35-.33l-2.13-.31c-.73-.11-1.45-.22-2.18-.31s-1.14-.22-1.73-.24c-.39,0-.77-.14-1.16-.15s-1-.18-1.51-.22a10.84,10.84,0,0,1-1.37-.22,17.73,17.73,0,0,0-1.91-.22.9.9,0,0,0-.4,0,3.12,3.12,0,0,0-1.78,1.44,4.59,4.59,0,0,0-.66,2.63c0,4.55-.08,9.11.06,13.67.06,1.88.07,3.77,0,5.65a20.53,20.53,0,0,0,0,2.35c.06,1.53,0,3.08,0,4.62,0,.27-.15.53-.08.8a3.32,3.32,0,0,1,.07.94q0,12.61,0,25.24V92a.87.87,0,0,0,.09.57c-.24.25-.38,0-.54-.12S51.26,92.15,51,92.17Zm29-74.34c.16-.34.13-.51-.14-.65a.94.94,0,0,0-.43-.13c-.85,0-1.69-.18-2.54-.28l-2.22-.29-2.93-.42c-.22,0-.29.12-.35.28s-.06.33.14.41a.73.73,0,0,0,.35.09A5.64,5.64,0,0,1,73.1,17c.43.06.86,0,1.29.14s.92.14,1.38.21c.73.11,1.47.23,2.21.33A7.18,7.18,0,0,0,80.06,17.83Zm-9.47-1.5a.52.52,0,0,0-.45-.47c-.21,0-.35.05-.36.29a.57.57,0,0,0,.41.52A.37.37,0,0,0,70.59,16.33Z"/><path class="cls-10" d="M112.2,49.9c-.07-.1-.14-.19-.2-.29a.4.4,0,0,0-.42-.2,18.08,18.08,0,0,1-4.47-.19,3,3,0,0,1-1.19-.41,2.12,2.12,0,0,0-1-.3,4.61,4.61,0,0,1-1.16-.19,1.6,1.6,0,0,1-1.27-2.08c.08-.32.16-.65.26-1a.49.49,0,0,0,0-.48,3.86,3.86,0,0,1-.61-2.09c0-.15,0-.3,0-.45a.53.53,0,0,0-.36-.52l-.2-.1a.45.45,0,0,1-.14-.73c.17-.23.35-.45.52-.69a3.4,3.4,0,0,0,.63-1.63,1.57,1.57,0,0,0-.22-1.21,1,1,0,0,1-.13-.38,3.24,3.24,0,0,1,1.24-3.37,4.17,4.17,0,0,1,1.88-.84,17.49,17.49,0,0,1,4.45-.34,5.79,5.79,0,0,1,4.71,2.88,5.41,5.41,0,0,1,.77,2.3,10.86,10.86,0,0,1,0,2.35,4.77,4.77,0,0,0,.75,3.2,6.87,6.87,0,0,1,.9,1.77A3.54,3.54,0,0,1,117,46.6a2.71,2.71,0,0,1-1.57,2.08,6.86,6.86,0,0,1-2.44.62,2.7,2.7,0,0,0-.63.07c0,.19.12.27.23.36C112.46,49.76,112.38,50,112.2,49.9Zm-7.68-11.3,0,0a1.38,1.38,0,0,0-.37-.61,8.81,8.81,0,0,1-.87-1.67,4.29,4.29,0,0,0-.32,1.76,1.66,1.66,0,0,0-.1.53,4.25,4.25,0,0,1-1,2.35c-.07.08-.18.16-.17.31a.66.66,0,0,0,.35.33.67.67,0,0,1,.43.79,1.22,1.22,0,0,0,0,.27c0,.44.25.58.67.44a3.84,3.84,0,0,0,.63-.42h.17c-.21.66-.84.67-1.38.85a2.29,2.29,0,0,0,1.39,2,5.82,5.82,0,0,0,1.68.22,19.32,19.32,0,0,0,.7-3.41c.12-.14.24-.07.33-.13a2.22,2.22,0,0,0,.92-2.25.7.7,0,0,0-1.13-.48c-.14.1-.25.22-.38.33a.29.29,0,0,1-.47,0,11.65,11.65,0,0,1-.83-.89A.26.26,0,0,0,104.52,38.6Z"/><path class="cls-9" d="M112.2,49.9c.18.05.26-.14.41-.17a6.83,6.83,0,0,1,4.39,3.5,11.44,11.44,0,0,1,.87,2.08A31.35,31.35,0,0,1,119,61a.25.25,0,0,1-.23-.38c.09-.22,0-.31-.21-.4a.5.5,0,0,0,.15-.49,4.59,4.59,0,0,1-.24-1.32.26.26,0,0,0-.11-.23c-.08-.07-.18-.2-.14-.27.18-.38-.15-.62-.21-.94a.77.77,0,0,0-.46-.53,10.27,10.27,0,0,1-1.42-.94c-.51.12-.6.09-.89-.32a1.7,1.7,0,0,0-.68-.41,2.48,2.48,0,0,1-.44-.2,1,1,0,0,0-.9-.1c-.15-.12,0-.29-.17-.43-.38.17-.67-.54-1.06-.16-.61,0-.72-.53-1-.84-.19,0-.22.13-.27.22a.22.22,0,0,1-.27.12,1.25,1.25,0,0,0-.81,0c-.11-.18.2-.22,0-.41-.41-.13-.93,0-1.35-.28a2.56,2.56,0,0,1-.24-1c-.18-.11-.3,0-.44,0a.62.62,0,0,1-.68,0c-.5-.37-.56-.37-1.1,0,0,.19.31.13.33.36a.92.92,0,0,1-.76.31,3.7,3.7,0,0,1-1.36,1.55c-.42-.36-.78-.31-1.06.11a.73.73,0,0,1-.38.35c-.22.07-.21.36-.37.54s-.26.29-.52.2a.4.4,0,0,0-.54.26,2.67,2.67,0,0,1-.72.91c-.14.1-.26-.1-.4,0a2.21,2.21,0,0,1-.3.77,10.13,10.13,0,0,1,1.7-4.71,5.9,5.9,0,0,1,1.84-1.64,14.29,14.29,0,0,1,2.87-1.17c.09.29.13.31.3.13a17.32,17.32,0,0,1,1.71.6s0,.07.07,0l.18.05s0,.1.1,0l.27.06c.09,0,.16.18.27,0l.28,0a.32.32,0,0,0,.27,0l.37,0c.25.19.49,0,.74,0s.62-.06.92-.23A2.48,2.48,0,0,0,112.2,49.9Zm-4.73.89A1.87,1.87,0,0,1,108,51c.28.18.37.13.54-.3-.2-.1-.46-.16-.54-.41C107.63,50.44,107.63,50.44,107.47,50.79Z"/><path class="cls-10" d="M98.21,73.15a1,1,0,0,1,.57.11,19.64,19.64,0,0,0,3.69,1,.86.86,0,0,0,.45,0,13.24,13.24,0,0,0,.67-1.83,40.24,40.24,0,0,0,1.24-5.64c.27-1.82.56-3.64.77-5.46.12-1.08.3-2.15.46-3.22a.49.49,0,0,1,.13-.28c.28,0,.31.14.28.34-.07.56-.14,1.13-.22,1.7-.2,1.4-.39,2.8-.59,4.2a53.56,53.56,0,0,1-1.55,8.25c-.18.58-.37,1.14-.56,1.76a31.71,31.71,0,0,0,12.8-.28,21.26,21.26,0,0,0-.38-2.15,28.42,28.42,0,0,1-.49-4,22.31,22.31,0,0,1,.3-3.83c.25-1.94.64-3.86.87-5.81a1.07,1.07,0,0,1,.13-.38c.31,0,.33.16.3.37-.07.59-.15,1.17-.22,1.75-.25,2-.67,3.92-.85,5.9a19.45,19.45,0,0,0,.2,4.82c.16,1,.37,2,.58,3,.1.5.06.56-.44.84.1.52.17.61.5.6-.15.08-.25.18-.18.37a2.13,2.13,0,0,1,.11.33c-.07,0-.18,0-.18-.1,0-.35-.31-.58-.4-.89s-.23-.29-.44-.28c-.39,0-.75.18-1.14.21-.73.07-1.45.2-2.18.26-.57.06-1.14.09-1.7.14a10.62,10.62,0,0,1-2.39,0,2.69,2.69,0,0,0-.4,0,19.29,19.29,0,0,1-3-.26c-.43-.06-.86-.1-1.29-.19-.11,0-.24,0-.31.11a.3.3,0,0,1-.3.16c-.27,0-.35.16-.4.35-.14.54-.41,1-.6,1.55-.41,1.14-1,2.22-1.35,3.37-.16.47-.37.92-.54,1.38a1.47,1.47,0,0,0-.08.35,9.15,9.15,0,0,0-.61,1.44,1.47,1.47,0,0,0-.13.88A6,6,0,0,1,99,87q-.13.36-.24.72a1.25,1.25,0,0,0,.76,1.65V90c-.36,0-.64.3-1,.28.17.67-.19,1-1,.84A4.06,4.06,0,0,1,97,90.9c-.09,0-.17-.05-.24,0s0-.07,0-.07a7.42,7.42,0,0,1-1-1.19c-.08-.1-.14-.19-.28-.15v-.16a.13.13,0,0,0,.07-.12,4.15,4.15,0,0,0-.33-.89,3.44,3.44,0,0,1,0-2.22c.42-1.4.88-2.79,1.17-4.23a7.12,7.12,0,0,0,.34-2,.16.16,0,0,0,.16-.13c.17-.69.34-1.37.46-2.07.3-1,.5-2,.72-3.06.08-.34.15-.68.24-1A.47.47,0,0,0,98.21,73.15Zm4.07,1.43a19.76,19.76,0,0,1-3.55-1c-.18.85-.33,1.67-.53,2.47-.85,3.4-1.5,6.84-2.58,10.17a2.63,2.63,0,0,0-.16,1.38,6.43,6.43,0,0,0,1.28,2.67,1,1,0,0,0,.61.37,7.3,7.3,0,0,1-1-2.8c.32,0,.34.26.39.44a10.94,10.94,0,0,0,.55,1.48,2.1,2.1,0,0,0,.41.65c.24.22.35.21.64,0-1.09-2.31-1.09-2.31-.88-2.73.17.08.15.25.19.39a4,4,0,0,0,.7,1.55c.28.33.42.35.81.11a2,2,0,0,1-.67-2.6,4.93,4.93,0,0,0,.36-3.1,1,1,0,0,1,0-.58c.67-1.52,1.24-3.07,1.82-4.62C101.18,77.42,101.82,76.07,102.28,74.58Z"/><path class="cls-10" d="M100.16,127.42a21.46,21.46,0,0,0,4.38.28c.17,0,.37-.09.5.09a10.81,10.81,0,0,0-.05,2.84,19.78,19.78,0,0,1,.14,2c0,.77-.28,1.06-1,1.14a16.56,16.56,0,0,1-2.44,0c-1.66-.07-3.32-.11-5-.28a3.18,3.18,0,0,1-1-.2.61.61,0,0,1-.29-1,1.63,1.63,0,0,1,.88-.6l1.86-.58a5.75,5.75,0,0,0,2.08-1.15,1.73,1.73,0,0,0,.64-1.39,3.92,3.92,0,0,1,0-.59c0-.15-.06-.21-.18-.26s-.31-.07-.46-.09S100.15,127.5,100.16,127.42Zm4.34.57c-1.1,0-2.18,0-3.28,0,0,.27,0,.5,0,.74a1.67,1.67,0,0,1-.51,1.31,5.08,5.08,0,0,1-1,.85,1.28,1.28,0,0,0-.53.53,32.55,32.55,0,0,0,5.36-.85C104.45,129.66,104.47,128.84,104.5,128Z"/><path class="cls-10" d="M111.55,127.7c.09-.15.24-.09.37-.1,1.35,0,2.69.15,4,.09.1,0,.18,0,.23.11a.91.91,0,0,0-.12.56,19.61,19.61,0,0,0,.25,3.51,3.3,3.3,0,0,1,0,1.13.8.8,0,0,1-.73.68,6.12,6.12,0,0,1-1.13.06c-2-.13-4-.22-6-.43a6.61,6.61,0,0,1-.89-.15.67.67,0,0,1-.45-1,1.4,1.4,0,0,1,.9-.71c.48-.16,1-.3,1.47-.44a5.38,5.38,0,0,0,2.06-1.18,1.46,1.46,0,0,0,.55-1.14c0-.28,0-.56,0-.84C111.91,127.72,111.71,127.82,111.55,127.7Zm4.08.29H112.5c0,.3,0,.57-.06.84a1.73,1.73,0,0,1-.63,1.25c-.3.26-.6.51-.91.74-.1.07-.22.12-.19.33a25.67,25.67,0,0,0,4.92-.68C115.61,129.63,115.59,128.83,115.63,128Z"/><path class="cls-11" d="M97.33,77.76c-.12.7-.29,1.38-.46,2.07a.16.16,0,0,1-.16.13,7.22,7.22,0,0,1-.34-1.37L90.62,79c-.12,0-.27,0-.43-.1a2.13,2.13,0,0,1,0-.79,1.84,1.84,0,0,1,.49-.12c.8,0,1.6-.09,2.39-.12a7.76,7.76,0,0,0,1.52-.15c.27,0,.55.06.8-.11a5.35,5.35,0,0,0,1.32-.1A1.76,1.76,0,0,0,97.33,77.76Z"/><path class="cls-10" d="M109.75,95.69c-.34-.38-.12-.78,0-1.17.2-1.07.49-2.12.69-3.19.12-.61.28-1.22.43-1.82a22.59,22.59,0,0,0,.55-2.67.86.86,0,0,1,.33-.57,6.72,6.72,0,0,0,2.06-2.4c.06-.13.18-.27.36-.2s.18.26.11.42a5.28,5.28,0,0,1-1,1.55,6.6,6.6,0,0,1-1.1,1c-.23.14-.24.41-.29.63q-.59,2.53-1.15,5.07c-.26,1.15-.51,2.3-.75,3.46a2.23,2.23,0,0,0,0,.45c0,.11-.07.16-.17.17A3.05,3.05,0,0,1,109.75,95.69Z"/><path class="cls-12" d="M110.77,50.46c-.25,0-.49.22-.74,0A1.17,1.17,0,0,1,110.77,50.46Z"/><path class="cls-9" d="M106.51,49.61c-.17.18-.21.16-.3-.13C106.43,49.27,106.46,49.46,106.51,49.61Z"/><path class="cls-10" d="M100.1,126.24s.1-.06.11,0,.1.29-.08.38A.56.56,0,0,1,100.1,126.24Z"/><path class="cls-7" d="M100.23,127.61c.15,0,.33-.08.46.09A.45.45,0,0,1,100.23,127.61Z"/><path class="cls-13" d="M82.65,125.44c.08-.12.16-.14.26,0A.3.3,0,0,1,82.65,125.44Z"/><path class="cls-10" d="M97.82,73a.32.32,0,0,1,.29.13A.55.55,0,0,1,97.82,73Z"/><path class="cls-13" d="M84.83,125.1c.12,0,.21-.19.35-.06A.36.36,0,0,1,84.83,125.1Z"/><path class="cls-13" d="M87.91,124.62c.08-.12.17-.13.26,0A.21.21,0,0,1,87.91,124.62Z"/><path class="cls-13" d="M84.38,125.18c.09,0,.15-.19.26,0A.27.27,0,0,1,84.38,125.18Z"/><path class="cls-12" d="M109.11,50.4c-.11.14-.18,0-.27,0A.23.23,0,0,1,109.11,50.4Z"/><path class="cls-11" d="M96.71,62.53a.69.69,0,0,1,0-.35A.32.32,0,0,1,96.71,62.53Z"/><path class="cls-13" d="M87.18,124.72c0-.1.1-.13.18,0A.12.12,0,0,1,87.18,124.72Z"/><path class="cls-13" d="M80.94,125.7c0-.09.1-.11.16,0A.1.1,0,0,1,80.94,125.7Z"/><path class="cls-12" d="M109.66,50.47a.32.32,0,0,1-.27,0A.23.23,0,0,1,109.66,50.47Z"/><path class="cls-13" d="M80.48,125.79c0-.1.13-.09.22-.05A.22.22,0,0,1,80.48,125.79Z"/><path class="cls-12" d="M108.57,50.3c0,.08-.07,0-.1,0S108.54,50.26,108.57,50.3Z"/><path class="cls-12" d="M108.29,50.23c0,.05-.06,0-.07,0S108.27,50.2,108.29,50.23Z"/><path class="cls-13" d="M86.56,124.82l.09,0S86.6,124.86,86.56,124.82Z"/><path class="cls-13" d="M82.19,125.53h.09S82.22,125.56,82.19,125.53Z"/><path class="cls-13" d="M81.49,125.63h.08S81.52,125.67,81.49,125.63Z"/><path class="cls-13" d="M80.12,125.86s0-.06.08,0l0,0Z"/><path class="cls-10" d="M96.74,91.59v0Z"/><path class="cls-10" d="M116.46,127.78q0-.11.09,0Z"/><path class="cls-13" d="M54.65,129.66s.06,0,.09,0Z"/><path class="cls-14" d="M74,89.73l-.15-5.25c0-.47,0-.94,0-1.4l-.12-5.3a1.79,1.79,0,0,1,0-.23c0-2-.08-4-.12-6,0-1.19,0-2.38-.09-3.57-.06-.92,0-1.84-.08-2.76-.12-2.3-.13-4.61-.19-6.91,0-1.52-.17-3-.15-4.56a5.54,5.54,0,0,0-1.63-.86.47.47,0,0,0-.35,0,1.28,1.28,0,0,0-.71.47A7,7,0,0,0,69,58.68,9.76,9.76,0,0,0,70.92,63a1.77,1.77,0,0,0,.82.68.88.88,0,0,1,.47.4.81.81,0,0,1,0,.9.52.52,0,0,1-.65.16.8.8,0,0,1-.64-.67.22.22,0,0,1,0-.14c.24-.5-.11-.8-.37-1.15a9.26,9.26,0,0,1-2-6.24,6.7,6.7,0,0,1,1.34-3.65,2.75,2.75,0,0,1,.83-.75,9.42,9.42,0,0,1-.79-2.21,7,7,0,0,1,.29-4.83c-.07-.11-.15-.1-.26-.07a1.17,1.17,0,0,1-.52.12,12.55,12.55,0,0,0-1.85.54c-.94.29-1.91.49-2.83.86a4.51,4.51,0,0,1-.53.09,2.87,2.87,0,0,0-1,.5l-.63.64a.11.11,0,0,1-.08.11,18.41,18.41,0,0,0-1.82,3.12c-.28.58-.62,1.12-.87,1.71-.58,1.35-1.17,2.7-1.72,4.07s-1.2,3-1.71,4.46a21.06,21.06,0,0,0-.93,3.57c-.09.64-.11,1.29-.14,1.93A18.14,18.14,0,0,0,56,72.57c.68,2.58,1.43,5.12,2.17,7.68a1.33,1.33,0,0,1,.07.48.12.12,0,0,1,.08.11V81c.18.55.4,1.08.54,1.63s.54,1.25.74,1.87c.28.13.47-.08.69-.07a.77.77,0,0,1,.46-.15,12.42,12.42,0,0,1,1.66-.65c.61-.24,1.23-.43,1.83-.71.1-.05.15-.14.24-.18s.26-.09.42,0A3.83,3.83,0,0,0,65.67,84c.76.9,1.54,1.78,2.3,2.67a1.4,1.4,0,0,1,.39.65c.08.36,0,.52-.39.55a1.91,1.91,0,0,1-1-.27,11.16,11.16,0,0,0-1.34-.69,16.29,16.29,0,0,0,1.12,3.15l.37,0,.32,0h6.16c.13,0,.27.05.39,0A.44.44,0,0,0,74,89.73ZM65.94,58.42c-.17.55-.35,1.09-.51,1.64s-.27,1-.42,1.43a19.31,19.31,0,0,0-.62,1.91,16,16,0,0,0-.45,5.09q.5,4,1.22,8c.06.34.18.66.21,1-.38.14-.41.12-.48-.24-.33-1.71-.63-3.41-.89-5.13s-.48-3.43-.63-5.18c-.8-.12-1.35.39-2,.67-.18-.3,0-.44.16-.56A3.33,3.33,0,0,1,63,66.44a.57.57,0,0,0,.35-.09,29.57,29.57,0,0,1,1-4.25c.4-1.4.82-2.79,1.24-4.21C66,58,66,58.18,65.94,58.42Z"/><path class="cls-14" d="M90.73,78l2.38-.12a7.76,7.76,0,0,0,1.52-.15,30.78,30.78,0,0,0-.28-3.18c-.09-.91-.09-1.83-.2-2.73s-.14-2-.24-3c0-.49-.09-1-.12-1.48-.05-.91-.16-1.82-.25-2.72,0-.41-.06-.81-.08-1.21,0-1-.18-1.92-.22-2.88,0-.59-.18-1.18-.23-1.77s-.12-1.25-.21-1.88a16.92,16.92,0,0,0-1.32-5.38,5.54,5.54,0,0,0-1.66-2.16,3.52,3.52,0,0,1-.74-1,4.83,4.83,0,0,0-1.68-1.53,13.18,13.18,0,0,0-2.15-.8c-.4-.13-.8-.25-1.19-.39-.13,0-.25-.12-.35,0a13,13,0,0,1,1.14,2.88c0,.15.05.29.08.44a1.68,1.68,0,0,1,.15.83v.17a3.84,3.84,0,0,1,0,.83.39.39,0,0,1,0,.26v.28l.07.07c.78.11,1,.84,1,1.47,0,.48-.55.88-1.17.9a1.82,1.82,0,0,1-1.5-.5,1,1,0,0,1-.27-1.12,1.2,1.2,0,0,1,.94-.81,4,4,0,0,1,.51-.06,14.22,14.22,0,0,0,.05-1.59A22.62,22.62,0,0,0,84,47.39a7.82,7.82,0,0,0-1.09-2.06,1.47,1.47,0,0,0-.22-.21c-.35.1-.6-.19-.92-.22a1.89,1.89,0,0,0-.53,0l.06,2.43c0,.18,0,.36,0,.54.08,1,0,2.1,0,3.16,0,.84,0,1.69,0,2.53,0,1.37-.06,2.74-.12,4.11,0,1,0,2.05-.07,3.07-.06,1.44-.14,2.89-.2,4.33,0,.57-.07,1.14-.06,1.71,0,1.16-.07,2.32-.12,3.48s0,2.08-.09,3.11c0,1.42-.11,2.83-.17,4.24a.25.25,0,0,1-.06.17c0,.81,0,1.63-.07,2.45a.19.19,0,0,1,0,.27c0,.09,0,.18,0,.27a.35.35,0,0,1,0,.45c0,.42,0,.85-.07,1.27q.12.09,0,.18c0,.06,0,.12,0,.18a.24.24,0,0,1,0,.36l-.06,1.46c.07.06.07.12,0,.18V85s0,0,0,.06l0,0a1.09,1.09,0,0,1,0,.18c.11.09.11.18,0,.27,0,.54-.09,1.09-.08,1.64a.42.42,0,0,1,0,.54A10.63,10.63,0,0,0,79.86,89c.06,0,.06.07,0,.1v.18c.1.06.09.12,0,.18a.91.91,0,0,1-.09.36c0,.1,0,.2,0,.29s.08.29.11.44.08,0,0,.08,0,.28.12.39c.85,0,1.72,0,2.59,0a.39.39,0,0,1,.45,0l1.46,0a.22.22,0,0,1,.2-.08h2.62c.11,0,.22,0,.27.11h.17c.13-.06.26-.1.35.06h0a8.55,8.55,0,0,1,2,.07c.09,0,.15,0,.14-.16a4.59,4.59,0,0,1,0-1,2,2,0,0,1-.06-.72c.17.18.27.32.4.44a.33.33,0,0,0,.41.07.27.27,0,0,0,.14-.34,11.08,11.08,0,0,0-.51-1.79.37.37,0,0,0-.17-.2c-.22-.1-.19-.28-.16-.46a1,1,0,0,1-.1-.57c0-1.65,0-3.31,0-5,0-.69-.14-1.37-.1-2.06a1.29,1.29,0,0,1,0-.44c.14-.14.36,0,.5-.13-.13,0-.27,0-.43-.1a2.13,2.13,0,0,1,0-.79A1.82,1.82,0,0,1,90.73,78Zm-1.41,11c-.11.14-.25.1-.39.07s0-.29-.07-.43a.48.48,0,0,1,0-.45c0-1.56,0-3.12,0-4.68l0-2.12,0,0a9.78,9.78,0,0,1,0-2.23c0-.67,0-1.33-.06-2a.22.22,0,0,1,0-.36c0-.18,0-.36,0-.54a.39.39,0,0,1,0-.46c0-1,0-2.11-.08-3.17a2,2,0,0,1,0-1.09c0-.39,0-.78,0-1.18a1,1,0,0,1,0-.81c0-.18,0-.36,0-.54s0-.14,0-.22,0-.34,0-.51-.11-.12,0-.18l-.09-2.72c-.1-.06-.1-.12,0-.18,0-1.17-.08-2.34-.12-3.51,0-1-.1-1.89-.15-2.83-.06,0-.07-.06,0-.1L88,57.28a.08.08,0,0,1,.06-.1.37.37,0,0,1,.29,0c.12.07.11.16,0,.27.22,3.43.37,6.86.5,10.3.18,4.48.25,9,.37,13.44.1.07.09.18.08.28A7.22,7.22,0,0,1,89.29,83c0,1.57,0,3.14,0,4.7a2.14,2.14,0,0,1,0,.94v.13A.08.08,0,0,1,89.32,88.9Zm.46-19.07a.39.39,0,0,1,.19-.55,4.92,4.92,0,0,1,2.58-.53c.2,0,.4.07.34.39A5.28,5.28,0,0,0,89.78,69.83Z"/><path class="cls-12" d="M65.18,126a.28.28,0,0,1-.1.09l0,0a1.4,1.4,0,0,1-.34.08l-2.72.4-3.78.59c-.71.12-1.42.21-2.14.27a2.5,2.5,0,0,1-1.83-.64,5.18,5.18,0,0,1-1.2-1.72.86.86,0,0,1,0-.36c0-.09,0-.18,0-.27-.15-2.16,0-4.33-.08-6.49,0-.16,0-.33,0-.49s.12,0,.12-.09-.06-.08-.12-.09c0-1-.05-2.11,0-3.17.07,0,.19,0,.19-.09s-.12-.08-.2-.09c-.05-1,0-2.06,0-3.09.18,0,.24-.06.24-.23a1.44,1.44,0,0,1,.22-.82,2.18,2.18,0,0,0,.32-1.14c.06-.43-.14-.83-.08-1.22s.49-.3.79-.33c0-.39.07-.69.49-.81s.64-.36,1-.1c.12.08.23,0,.36-.08a1,1,0,0,0,.42-.67c.41.75,1.17,1.07,1.52,1.76a6.79,6.79,0,0,0-.14.92c-.08.27.46.83.75.82.06,0,.15,0,.17,0,.16-.32.53-.23.77-.41a.35.35,0,0,1,.55.07.73.73,0,0,0,.22.16,1.58,1.58,0,0,1,.81,1.89c-.05.16,0,.25.14.34a.21.21,0,0,0,.29,0c.21-.21.37-.1.53.05,0,.21-.2.42,0,.6.07,0,.14,0,.21,0s.49,0,.53.22.23.44.22.66.21.52.41.71.59.17.7,0,.33-.17.52-.18c0,1.15,0,2.29,0,3.44.08,2,0,4,.1,6.06C65.15,123.67,65.13,124.83,65.18,126Z"/><path class="cls-15" d="M81.22,51c0,.84,0,1.69,0,2.53,0,1.37-.06,2.74-.12,4.11,0,1,0,2.05-.07,3.07-.06,1.44-.14,2.89-.2,4.33,0,.57-.07,1.14-.06,1.71,0,1.16-.07,2.32-.12,3.48s0,2.08-.09,3.11c0,1.42-.11,2.83-.17,4.24a.25.25,0,0,1-.06.17l-6.62,0a1.79,1.79,0,0,1,0-.23c0-2-.08-4-.12-6,0-1.19,0-2.38-.09-3.57-.06-.92,0-1.84-.08-2.76-.12-2.3-.13-4.61-.19-6.91,0-1.52-.17-3-.15-4.56a5,5,0,0,1,1,.74,8.3,8.3,0,0,1,2.51,8,.61.61,0,0,1-.26.4,1,1,0,0,0-.39.64.65.65,0,0,0,.89.75.86.86,0,0,0,.47-1.12,4.4,4.4,0,0,0-.37-.55,7.12,7.12,0,0,0,.24-1.07A8.86,8.86,0,0,0,75.84,56,9.22,9.22,0,0,0,73,53.13c0-.29,0-.58,0-.86A36.82,36.82,0,0,1,73,48.48a.33.33,0,0,1,.27.21,3,3,0,0,0,.23.44,16.31,16.31,0,0,1,1.2,2c0,.08.07.17.21.18.69-1,1.22-2,1.94-3a1,1,0,0,1,.41.41,23.32,23.32,0,0,1,1.27,2.43.28.28,0,0,0,.32.22,26.11,26.11,0,0,1,1.61-2.47,3.2,3.2,0,0,1,.84-1C81.35,48.9,81.24,50,81.22,51Z"/><path class="cls-15" d="M65.41,92.11a1.3,1.3,0,0,0-.36-.13,4.56,4.56,0,0,1-1.58-.73c-.31-.23-.6-.46-.92-.66a4.48,4.48,0,0,1-1.82-2.92c-.21-.79-.24-1.6-.37-2.39a1,1,0,0,1-.39,0c-.18-.14-.11-.47-.46-.49-.19.34-.4.71-.9.68a.31.31,0,0,1,0-.42.22.22,0,0,0,0-.29c-.38-.42-.36-1-.54-1.47a.58.58,0,0,1,.17-.75c.06,0,.07-.13.1-.19-.16-.43-.41-.84-.15-1.31v-.17a.11.11,0,0,1-.08-.11,1.33,1.33,0,0,0-.07-.48c-.74-2.56-1.49-5.1-2.17-7.68a18.14,18.14,0,0,1-.69-5.39c0-.64.05-1.29.14-1.93a21.06,21.06,0,0,1,.93-3.57c.51-1.51,1.11-3,1.71-4.46s1.14-2.72,1.72-4.07c.25-.59.59-1.13.87-1.71a18.41,18.41,0,0,1,1.82-3.12.12.12,0,0,1,.08-.11l.63-.64a.23.23,0,0,0-.4-.1,6.11,6.11,0,0,0-1,.84,3.76,3.76,0,0,0-.42.93,3,3,0,0,1-.76,1.09c-.21.18-.35.44-.61.6s-.17.36-.11.57c-.09.11-.17,0-.29,0-.05.31-.33.39-.61.5l-.41-.32c-.09-.15.2-.37-.16-.48-.27.66-1.12.56-1.44,1.17-.22-.1-.21-.29-.29-.43a1.57,1.57,0,0,1-.53-.11l-.22.25a5,5,0,0,1-1.08-.56c0-.19.35-.21.21-.47s-.3.14-.47.21a4.08,4.08,0,0,1-.45-.1c-.17-.06-.32-.1-.43,0a5.62,5.62,0,0,1-.18,1.7c-.08.22-.08.22.2.65a1,1,0,0,0,0,.65c.11.39.05.49-.31.62l-.39.1a1.16,1.16,0,0,0,0,.64c.09,0,.22,0,.23.11s-.12.15-.23.15c0,.58,0,1.15,0,1.72q0,14.17,0,28.34a8.09,8.09,0,0,1,.06.85c.42,0,.53-.4.68-.7a2.65,2.65,0,0,0,.14-.45.79.79,0,0,0,.51-.51.37.37,0,0,1,.38-.27c.11-.15,0-.25,0-.4a.6.6,0,0,1,.73,0,.5.5,0,0,0,.67,0c0-.2-.22-.24-.23-.41.33-.11.33-.11.43.18a.76.76,0,0,0,.94.56c.06.24.11.51.48.45a1.38,1.38,0,0,0,.16.53c0,.09.09.21,0,.26-.29.36,0,.74-.08,1.11,0,.22,0,.46-.22.61a.7.7,0,0,1,.22.61c0,.43,0,.85,0,1.27a1.34,1.34,0,0,1-.06.44c-.15.43-.14.44-.55.57,0,.16.18.27.17.45s.09.18.2.22l.42.16c.5.17.5.18.38.71a.54.54,0,0,0,0,.31.48.48,0,0,0,.22.15c.08,0,.18,0,.27.09a1.06,1.06,0,0,1,0,.5c-.15.13-.39,0-.5.23a.39.39,0,0,0,.56.12c.29-.16.32-.13.43.18a1.39,1.39,0,0,1,.06.13c.19.74.19.74.94.78.11.15.26.27.27.49a.67.67,0,0,0,.15.32,4,4,0,0,1,.67,1.58,2.32,2.32,0,0,0,.32.59c.48-.12.58.27.74.62l-.17.42c0,.18.19.26.29.37s.16.16.15.22c-.06.38.17.58.45.75a.5.5,0,0,1,.2.47,2.6,2.6,0,0,0,.23,1.23.43.43,0,0,1,0,.35.46.46,0,0,0,.24.64,1,1,0,0,1,.53.87.68.68,0,0,0,.55.67,3.21,3.21,0,0,0,.07-.53c0-.95,0-1.9.08-2.85.06-2.06.11-4.12.2-6.18,0-.46,0-.93.07-1.4A3.43,3.43,0,0,0,65.41,92.11ZM54.3,84.71s-.06,0-.07,0a.07.07,0,0,1,0-.1s.06,0,.07,0A.06.06,0,0,1,54.3,84.71Zm-.15-.7c0-.18-.16-.31-.11-.48.21-.14.33,0,.4.16S54.4,84,54.15,84Zm7.47,12A.25.25,0,0,1,62,96,.27.27,0,0,1,61.62,96Z"/><path class="cls-11" d="M65,104.94c0-.27,0-.54,0-.81a.68.68,0,0,1-.55-.67,1,1,0,0,0-.53-.87.46.46,0,0,1-.24-.64.43.43,0,0,0,0-.35,2.6,2.6,0,0,1-.23-1.23.5.5,0,0,0-.2-.47c-.28-.17-.51-.37-.45-.75,0-.06-.1-.15-.15-.22s-.24-.19-.29-.37l.17-.42c-.16-.35-.26-.74-.74-.62a2.32,2.32,0,0,1-.32-.59,4,4,0,0,0-.67-1.58.67.67,0,0,1-.15-.32c0-.22-.16-.34-.27-.49-.75,0-.75,0-.94-.78a1.39,1.39,0,0,0-.06-.13c-.11-.31-.14-.34-.43-.18a.39.39,0,0,1-.56-.12c.11-.25.35-.1.5-.23a1.06,1.06,0,0,0,0-.5c-.09-.09-.19,0-.27-.09a.48.48,0,0,1-.22-.15.54.54,0,0,1,0-.31c.12-.53.12-.54-.38-.71l-.42-.16c-.11,0-.21-.1-.2-.22s-.15-.29-.17-.45c.41-.13.4-.14.55-.57a1.34,1.34,0,0,0,.06-.44c0-.42,0-.84,0-1.27a.7.7,0,0,0-.22-.61c.25-.15.2-.39.22-.61,0-.37-.21-.75.08-1.11.05-.05,0-.17,0-.26a1.38,1.38,0,0,1-.16-.53c-.37.06-.42-.21-.48-.45a.76.76,0,0,1-.94-.56c-.1-.29-.1-.29-.43-.18,0,.17.23.21.23.41a.5.5,0,0,1-.67,0,.6.6,0,0,0-.73,0c0,.15.11.25,0,.4a.37.37,0,0,0-.38.27.79.79,0,0,1-.51.51,2.65,2.65,0,0,1-.14.45c-.15.3-.26.65-.68.7a1.37,1.37,0,0,0,0,.53v4.19l0,.45a6.53,6.53,0,0,1,0,1.17,1.77,1.77,0,0,1,0,.46c0,.13,0,.27,0,.4,0,2.58,0,5.15,0,7.73v8a9.9,9.9,0,0,0,0,1.22c.18,0,.24-.06.24-.23a1.44,1.44,0,0,1,.22-.82,2.18,2.18,0,0,0,.32-1.14c.06-.43-.14-.83-.08-1.22s.49-.3.79-.33c0-.39.07-.69.49-.81s.64-.36,1-.1c.12.08.23,0,.36-.08a1,1,0,0,0,.42-.67c.41.75,1.17,1.07,1.52,1.76a6.79,6.79,0,0,0-.14.92c-.08.27.46.83.75.82.06,0,.15,0,.17,0,.16-.32.53-.23.77-.41a.35.35,0,0,1,.55.07.73.73,0,0,0,.22.16,1.58,1.58,0,0,1,.81,1.89c-.05.16,0,.25.14.34a.21.21,0,0,0,.29,0c.21-.21.37-.1.53.05,0,.21-.2.42,0,.6.07,0,.14,0,.21,0s.49,0,.53.22.23.44.22.66.21.52.41.71.59.17.7,0,.33-.17.52-.18c0-2.63,0-5.25,0-7.88C64.87,105.07,64.87,105,65,104.94Zm-6.27,3.42c-.25-.17-.25-.17-.16-.48A.71.71,0,0,1,58.71,108.36Z"/><path class="cls-15" d="M84.26,123.16H84.1c0-.35-.29-.54-.44-.8s.12-.25,0-.43l-.09-.11c-.21-.22-.4-.42-.29-.79a.51.51,0,0,0-.3-.57c-.18.05-.42.18-.54-.08a2.73,2.73,0,0,0-.44-.68,3.39,3.39,0,0,0-.65-.66.71.71,0,0,1-.38-.71.38.38,0,0,0-.23-.4c-.09-.06-.2-.09-.2-.22s.22-.21.24-.38a.43.43,0,0,0-.17-.35.7.7,0,0,1-.38-.74c0-.19-.08-.43-.36-.4s0,.32-.16.42a.48.48,0,0,1-.39-.05,1.46,1.46,0,0,0-.76-.22.79.79,0,0,1-.7-1,.48.48,0,0,0,0-.39,1.06,1.06,0,0,1-.17-.68,1.26,1.26,0,0,0-.17-1l-.16,0q-.51-.15-.39.33c0,.13.07.26.11.38s.37-.19.47.1c-.13.34-.13.34-.5.44,0,.42-.36.51-.69.57s-.28-.36-.44-.47c-.46-.24-.48.23-.73.43-.29-.54-.89-.29-1.3-.59a2.81,2.81,0,0,0-.3.74c0,.14-.09.18-.21.17,0-1.18.29-2.33.43-3.49s.33-2.56.51-3.84c.1-.77.24-1.55.32-2.32s.2-1.55.3-2.32a6.27,6.27,0,0,1,.17-1c.27-.16.28-.34,0-.55,0-.13.06-.24.07-.36.22,0,.26-.13.29-.33a1.37,1.37,0,0,1,.26-.77,1.66,1.66,0,0,0,.83.48c-.19.32,0,.45.22.62s.66.44,1,.67.33.43.62.51a1.12,1.12,0,0,1,.74,1.29,1,1,0,0,0,.24,1.17l.23.2a1.51,1.51,0,0,1,.6.86c.07.33.22.36.56.16a17.87,17.87,0,0,1,.51,2.28c.39,1.84.75,3.68,1.13,5.52.17.82.29,1.65.42,2.48.1.62.26,1.24.38,1.86s.28,1.42.43,2.12c.12.55.24,1.1.39,1.64,0,.18,0,.36.08.54s-.06.22.09.26C84.2,122.86,84.33,123,84.26,123.16Z"/><path class="cls-16" d="M95.6,114.28v.36c-.11,0-.19.1-.33,0a13.61,13.61,0,0,0-.83-2c.18-.38.18-.38,0-.84a.39.39,0,0,1-.06-.17.92.92,0,0,0-.77-.85,1,1,0,0,1-.88.36c-.15.14-.15.34-.35.43a.85.85,0,0,0-.75-.15,1.78,1.78,0,0,1-.17.3,2,2,0,0,0-.63,1.6.75.75,0,0,1-.09.34c0,.11-.14.09-.23.09-.14-1.31-.27-2.63-.41-3.94s-.32-2.54-.42-3.81c-.08-1.09-.19-2.18-.31-3.28s-.23-2.45-.41-3.67c-.11-.71-.13-1.43-.21-2.15-.13-1.14-.29-2.27-.42-3.4-.09-.79-.2-1.58-.23-2.38a8.55,8.55,0,0,1,2,.07,3.52,3.52,0,0,0,.57,1.4,18.39,18.39,0,0,1,.86,1.72c.57,1.22,1.17,2.44,1.76,3.66.37.78.76,1.55,1.13,2.33.29.59.56,1.19.85,1.78.06.13.1.3.31.25,0,.16,0,.33,0,.49,0,3.6,0,7.2,0,10.8,0,.11,0,.21,0,.32a.4.4,0,0,0-.33.18C95.36,114.33,95.49,114.26,95.6,114.28Z"/><path class="cls-11" d="M84.1,123.16v.08l-.09,0a.06.06,0,0,0-.08,0l-3.18.5-.55.08c-.67.11-1.35.2-2,.29l-.15,0-.41.06-.65.1c-1.13.18-2.26.3-3.37.55a.1.1,0,0,0-.09,0c-.16,0-.3,0-.46.08h-.17l-.6.07a.23.23,0,0,1-.15,0,.12.12,0,0,1-.05,0,.34.34,0,0,1,0-.12c0-.06,0-.12,0-.18a12,12,0,0,0,.17-1.36.28.28,0,0,0,0-.09c.16-.9.24-1.81.35-2.72a.12.12,0,0,0,0-.18c.08-.6.16-1.21.25-1.82a28.37,28.37,0,0,1,.43-2.89c.06,0,.16,0,.16-.09s-.08-.08-.15-.09,0-.32.07-.46c.12,0,.19,0,.21-.17a2.81,2.81,0,0,1,.3-.74c.41.3,1,0,1.3.59.25-.2.27-.67.73-.43.16.11,0,.55.44.47s.66-.15.69-.57c.37-.1.37-.1.5-.44-.1-.29-.32,0-.47-.1s-.08-.25-.11-.38q-.12-.48.39-.33l.16,0a1.26,1.26,0,0,1,.17,1,1.06,1.06,0,0,0,.17.68.48.48,0,0,1,0,.39.79.79,0,0,0,.7,1,1.46,1.46,0,0,1,.76.22.48.48,0,0,0,.39.05c.16-.1,0-.3.16-.42s.36.21.36.4a.7.7,0,0,0,.38.74.43.43,0,0,1,.17.35c0,.17-.2.23-.24.38s.11.16.2.22a.38.38,0,0,1,.23.4.71.71,0,0,0,.38.71,3.39,3.39,0,0,1,.65.66,2.73,2.73,0,0,1,.44.68c.12.26.36.13.54.08a.51.51,0,0,1,.3.57c-.11.37.08.57.29.79l.09.11c.07.18-.09.28,0,.43S84.11,122.81,84.1,123.16Z"/><path class="cls-17" d="M51.93,92.61a.87.87,0,0,1-.09-.57V68.62q0-12.62,0-25.24a3.32,3.32,0,0,0-.07-.94c-.07-.27.08-.53.08-.8,0-1.54,0-3.09,0-4.62a20.53,20.53,0,0,1,0-2.35c.12-1.88.11-3.77,0-5.65-.14-4.56,0-9.12-.06-13.67a4.59,4.59,0,0,1,.66-2.63,3.12,3.12,0,0,1,1.78-1.44.9.9,0,0,1,.4,0,17.73,17.73,0,0,1,1.91.22,10.84,10.84,0,0,0,1.37.22c.51,0,1,.22,1.51.22s.77.13,1.16.15c.59,0,1.15.17,1.73.24s1.45.2,2.18.31l2.13.31c.78.11,1.57.24,2.35.33.39,0,.77.09,1.16.16.64.12,1.3.17,2,.29,1,.18,1.93.25,2.88.42.74.14,1.49.19,2.23.31,1,.16,2,.28,3.06.42s1.84.25,2.75.4,1.54.21,2.31.32a5.91,5.91,0,0,0,1,.12,12,12,0,0,1,1.79.2c.83.11,1.65.27,2.48.36a18,18,0,0,1,3.09.51c.12,0,.27,0,.39.12-.3.17-.56,0-.82-.05-.44,0-.89-.12-1.33-.16-.72-.05-1.43-.12-2.14-.23s-1.16-.14-1.74-.21L86.15,16c-.43-.05-.86-.09-1.3-.11-1.12-.08-2.22-.27-3.33-.43l-2.18-.31-2.88-.42-1.65-.21c-.79-.11-1.57-.23-2.36-.33l-2.36-.31c-.52-.06-1-.14-1.55-.21s-1.19-.18-1.78-.23-1.1-.17-1.65-.23c-.83-.08-1.66-.23-2.49-.33A11.16,11.16,0,0,1,61,12.63a1.14,1.14,0,0,0-.45,0h-.17c-.07-.14-.18-.1-.29-.07l-.44,0c-.06-.13-.18-.09-.28-.07-.34,0-.65-.13-1-.11,0-.1-.11-.09-.19-.06l-.53,0c-.1-.16-.24-.08-.38-.07l-.35,0c-.06-.13-.17-.09-.28-.07h-.26c-.3-.22-.67-.12-1-.17a2.86,2.86,0,0,0-1.3,0A2.63,2.63,0,0,0,52.38,14a6.53,6.53,0,0,0-.09,1.71q0,25.07,0,50.14c0,1.41,0,2.83.07,4.24,0,.68-.06,1.36-.06,2q0,7.32,0,14.64c0,.48.05,1,.05,1.44a29.81,29.81,0,0,1-.07,4.43Z"/><path class="cls-5" d="M52.28,92.62a29.81,29.81,0,0,0,.07-4.43c0-.48-.05-1-.05-1.44q0-7.32,0-14.64c0-.67.1-1.35.06-2-.09-1.41-.07-2.83-.07-4.24q0-25.08,0-50.14A6.53,6.53,0,0,1,52.38,14a2.63,2.63,0,0,1,1.7-2.06,2.86,2.86,0,0,1,1.3,0c.32,0,.69-.05,1,.17-.19.17-.44,0-.66.11a1,1,0,0,1-.25.32H55.1a.52.52,0,0,0-.54,0,1.65,1.65,0,0,0-1,.67,3.4,3.4,0,0,0-.68,2.29q0,9.33,0,18.66c0,6.93-.07,13.86.06,20.79a1.16,1.16,0,0,0,0,.64v.26c0,.58,0,1.15,0,1.72q0,14.17,0,28.34a8.09,8.09,0,0,1,.06.85,1.37,1.37,0,0,0,0,.53c0,1.4,0,2.8,0,4.19,0,.15,0,.3,0,.45s-.15.08-.15.18,0,.32,0,.46A.76.76,0,0,1,52.28,92.62Z"/><path class="cls-15" d="M95.63,119.39a4,4,0,0,1-1.06,2,1.66,1.66,0,0,1-.95.5l-2.22.32v0c-.05-.34-.09-.68-.14-1s-.09-.72-.13-1.08c-.06-.52-.12-1-.17-1.56-.17-1.58-.32-3.16-.48-4.74.09,0,.19,0,.23-.09a.75.75,0,0,0,.09-.34,2,2,0,0,1,.63-1.6,1.78,1.78,0,0,0,.17-.3.85.85,0,0,1,.75.15c.2-.09.2-.29.35-.43a1,1,0,0,0,.88-.36.92.92,0,0,1,.77.85.39.39,0,0,0,.06.17c.21.46.21.46,0,.84a13.61,13.61,0,0,1,.83,2c.14,0,.22-.07.33,0l0,3.49A5.9,5.9,0,0,1,95.63,119.39Z"/><path class="cls-18" d="M95.57,102.4c-.21,0-.25-.12-.31-.25-.29-.59-.56-1.19-.85-1.78-.37-.78-.76-1.55-1.13-2.33-.59-1.22-1.19-2.44-1.76-3.66a18.39,18.39,0,0,0-.86-1.72,3.52,3.52,0,0,1-.57-1.4c.09,0,.15,0,.14-.16a4.59,4.59,0,0,1,0-1c.4.29.8.42,1.18,0,.57.37.9.27,1.21-.14.49,0,1.06.07,1.17-.65a8.9,8.9,0,0,1,1.63-.07l.06.1v.16c-.08.89,0,1.77,0,2.66,0,.2,0,.39,0,.59,0,2.91,0,5.81,0,8.72A4.52,4.52,0,0,1,95.57,102.4Z"/><path class="cls-16" d="M80.78,106c-.34.2-.49.17-.56-.16a1.51,1.51,0,0,0-.6-.86l-.23-.2a1,1,0,0,1-.24-1.17,1.12,1.12,0,0,0-.74-1.29c-.29-.08-.4-.35-.62-.51s-.65-.45-1-.67-.41-.3-.22-.62a1.66,1.66,0,0,1-.83-.48,1.37,1.37,0,0,0-.26.77c0,.2-.07.33-.29.33l0-.36s0,0,0,0a.14.14,0,0,0,0-.06c.17-1.48.35-3,.52-4.43l.54-4.52a2.61,2.61,0,0,1,.06-.27c.11-.44.23-.56.61-.58a.73.73,0,0,1,.87.49,9.67,9.67,0,0,1,.44,1.84c.34,2,.73,3.93,1.13,5.88.17.87.33,1.74.47,2.62a20.28,20.28,0,0,0,.58,2.54.32.32,0,0,1,0,.14l0,.08A8.64,8.64,0,0,0,80.78,106Z"/><path class="cls-4" d="M67.87,87.38a.21.21,0,0,1-.3,0,4.82,4.82,0,0,1-1.1-.63,3.5,3.5,0,0,0-.81-.49c-.32-.17-.53,0-.49.36a11.22,11.22,0,0,0,.43,1.8c.26.85.69,1.64,1,2.47l.07.18c-.24.15-.37,0-.51-.14a8.41,8.41,0,0,1-1.26-1.53l-.44-.64c-.08-.13-.2-.26-.36-.16s-.07.27,0,.4a6.61,6.61,0,0,0,1.56,2l.29.28s0,.06,0,.12a.51.51,0,0,1-.53,0,2.85,2.85,0,0,1-.89-.69,8.72,8.72,0,0,1-1.19-1.58c-.12-.21-.25-.34-.52-.26,0,.2.15.36.14.55s0,.08.07.09h0c0,.13.06.29-.1.38h0q0-.09-.09-.09c-.28-.31-.44-.73-.84-1-.09.15,0,.31,0,.46l-.06,0a2.84,2.84,0,0,1-.62-1.28,10,10,0,0,1-.52-2.55c0-.42-.07-.84-.11-1.26a12.42,12.42,0,0,1,1.66-.65c.61-.24,1.23-.43,1.83-.71.1-.05.15-.14.24-.18-.09.13,0,.25,0,.37A6.56,6.56,0,0,0,65,84a34.81,34.81,0,0,0,2.51,2.92A1.24,1.24,0,0,1,67.87,87.38Z"/><path class="cls-14" d="M67.22,125.7l0,0,0,0a.38.38,0,0,1-.29,0h-.07l0,0c0-11.36-.15-22.7-.13-34,.1-.15.25-.1.35-.16s.09.14.1.21c0,2.45,0,4.89,0,7.34q0,6.5,0,13a1.79,1.79,0,0,0,0,.23v.09a1.63,1.63,0,0,0,0,.54v.09c0,1.45,0,2.9,0,4.35q0,3.47,0,6.93A7.25,7.25,0,0,0,67.22,125.7Z"/><path class="cls-14" d="M86.18,122.89l0,0a.4.4,0,0,1-.44.06h0c-.48-2.41-.94-4.82-1.43-7.23q-1.48-7.29-3-14.59c-.7-3.33-1.42-6.67-2.12-10a7,7,0,0,1-.14-.9c0-.33,0-.37.42-.35.08.12-.17.26,0,.36,0,.11,0,.22,0,.32s-.06.17,0,.22c.44,1.67.67,3.38,1.08,5,.53,2.2.94,4.42,1.4,6.64.75,3.54,1.45,7.09,2.16,10.64.56,2.83,1.16,5.65,1.74,8.47C86,122,86.1,122.46,86.18,122.89Z"/><path class="cls-11" d="M60.36,85.28a1,1,0,0,1-.39,0c-.18-.14-.11-.47-.46-.49-.19.34-.4.71-.9.68a.31.31,0,0,1,0-.42.22.22,0,0,0,0-.29c-.38-.42-.36-1-.54-1.47a.58.58,0,0,1,.17-.75c.06,0,.07-.13.1-.19-.16-.43-.41-.84-.15-1.31.18.55.4,1.08.54,1.63s.54,1.25.74,1.87c.28.13.47-.08.69-.07A1.61,1.61,0,0,1,60.36,85.28Z"/><path class="cls-19" d="M64.2,91.17A3.74,3.74,0,0,1,63,89.93c.16-.09.09-.25.1-.38A9.31,9.31,0,0,1,64.2,91.17Z"/><path class="cls-20" d="M87.56,91.11a22.77,22.77,0,0,1-3.09,0,.22.22,0,0,1,.2-.08h2.62C87.4,91,87.51,91,87.56,91.11Z"/><path class="cls-12" d="M62.53,90.17h0a1,1,0,0,1-.55-.68l.12,0A1.48,1.48,0,0,1,62.53,90.17Z"/><path class="cls-19" d="M67.07,90.51c-.29,0-.3-.24-.36-.43l.37,0C67,90.23,67.16,90.36,67.07,90.51Z"/><path class="cls-20" d="M79.75,89.81c0,.1,0,.2,0,.29-.16-.08-.15.12-.24.16s.05-.24,0-.36Z"/><path class="cls-20" d="M79.92,87.73a.72.72,0,0,1,0-.54A.42.42,0,0,1,79.92,87.73Z"/><path class="cls-16" d="M75.11,102.05l0-.55C75.39,101.71,75.38,101.89,75.11,102.05Z"/><path class="cls-13" d="M62.89,90.53c-.23-.06-.34-.16-.36-.36h0C62.73,90.19,62.83,90.29,62.89,90.53Z"/><path class="cls-15" d="M95.6,114.28c-.11,0-.24,0-.33-.09a.4.4,0,0,1,.33-.18Z"/><path class="cls-5" d="M52.91,93.07a1.77,1.77,0,0,1,0,.46C52.68,93.37,52.67,93.24,52.91,93.07Z"/><path class="cls-11" d="M53,113.92c.08,0,.2,0,.2.09s-.12.07-.19.09A.23.23,0,0,1,53,113.92Z"/><path class="cls-5" d="M51,97.06q-.18-.14,0-.27Q51.22,96.92,51,97.06Z"/><path class="cls-21" d="M84.21,122.7c-.15,0-.1-.16-.09-.26C84.31,122.46,84.33,122.56,84.21,122.7Z"/><path class="cls-20" d="M80.21,81.2a1,1,0,0,1,0-.45A.35.35,0,0,1,80.21,81.2Z"/><path class="cls-20" d="M83,91.05a.86.86,0,0,1-.45,0A.39.39,0,0,1,83,91.05Z"/><path class="cls-15" d="M73.46,115.55c0,.1-.1.08-.16.09s0-.12,0-.18S73.47,115.45,73.46,115.55Z"/><path class="cls-20" d="M88.08,91.18l-.35-.06C87.86,91.06,88,91,88.08,91.18Z"/><path class="cls-20" d="M79.84,89.45a.11.11,0,0,1,0-.18C80,89.33,79.94,89.39,79.84,89.45Z"/><path class="cls-11" d="M53,117.27c.06,0,.12,0,.12.09s-.06.08-.12.09Z"/><path class="cls-20" d="M80.12,83.19a.87.87,0,0,1,0-.36A.24.24,0,0,1,80.12,83.19Z"/><path class="cls-21" d="M72.58,120.53c-.12-.08-.07-.14,0-.18A.12.12,0,0,1,72.58,120.53Z"/><path class="cls-20" d="M80,85.55a.5.5,0,0,1,0-.27C80.14,85.37,80.14,85.46,80,85.55Z"/><path class="cls-13" d="M53,124.43v.27C52.9,124.62,52.9,124.52,53,124.43Z"/><path class="cls-20" d="M80.23,80.48a.32.32,0,0,1,0-.27A.19.19,0,0,1,80.23,80.48Z"/><path class="cls-12" d="M84.1,123.24v-.08h.16C84.24,123.26,84.17,123.25,84.1,123.24Z"/><path class="cls-20" d="M80.05,84.83a.22.22,0,0,1,0-.18C80.13,84.71,80.13,84.77,80.05,84.83Z"/><path class="cls-15" d="M65,104.94v.19C64.87,105.07,64.87,105,65,104.94Z"/><path class="cls-21" d="M72.05,124.7c0,.06,0,.12,0,.18S72,124.76,72.05,124.7Z"/><path class="cls-20" d="M80.14,82.65a.28.28,0,0,1,0-.18Q80.26,82.56,80.14,82.65Z"/><path class="cls-20" d="M79.57,90.8c-.1,0-.08-.13,0-.22A.25.25,0,0,1,79.57,90.8Z"/><path class="cls-21" d="M72.87,125H73C73,125.07,72.93,125.08,72.87,125Z"/><path class="cls-20" d="M80.08,85.07l0,0V85S80.09,85,80.08,85.07Z"/><path class="cls-21" d="M83.93,123.28a.08.08,0,0,1,.08,0S84,123.33,83.93,123.28Z"/><path class="cls-21" d="M73.5,124.91a.1.1,0,0,1,.09,0S73.54,125,73.5,124.91Z"/><path class="cls-12" d="M80.51,104.48l0-.08S80.54,104.44,80.51,104.48Z"/><path class="cls-21" d="M72.22,123.34c-.07,0-.06-.06,0-.09A.28.28,0,0,1,72.22,123.34Z"/><path class="cls-21" d="M67.17,112.47v-.09Q67.26,112.43,67.17,112.47Z"/><path class="cls-20" d="M79.85,90.62a.08.08,0,0,1,0-.08C79.91,90.56,79.92,90.59,79.85,90.62Z"/><path class="cls-19" d="M63,89.92c-.06,0-.08,0-.09-.09S63,89.86,63,89.92Z"/><path class="cls-19" d="M63.06,89.55c-.06,0-.08,0-.07-.09Z"/><path class="cls-4" d="M62.1,89.45l-.12,0s0-.08,0-.11l.06,0A.83.83,0,0,1,62.1,89.45Z"/><path class="cls-21" d="M67.21,113.07s0,0,0,0V113S67.22,113.05,67.21,113.07Z"/><path class="cls-20" d="M79.85,89.09V89C79.92,89,79.92,89.06,79.85,89.09Z"/><path class="cls-12" d="M75.27,100.75s0,0,0,0v-.09A.14.14,0,0,1,75.27,100.75Z"/><path class="cls-14" d="M99.51,89.39a1.25,1.25,0,0,1-.76-1.65q.1-.36.24-.72a6,6,0,0,0,.31-2.93,1.47,1.47,0,0,1,.13-.88,9.15,9.15,0,0,1,.61-1.44c-.1,1.43-.19,2.86-.3,4.29-.06.87-.13,1.74-.15,2.61C99.58,88.91,99.54,89.15,99.51,89.39Z"/><path class="cls-20" d="M74.41,20.17l3.67.43,2.72.34.49.07c0,.1.11.13.18,0a1.43,1.43,0,0,1,.54.06c.07.14.17.15.28,0a7.57,7.57,0,0,0,1.07,0,1.48,1.48,0,0,0,1-.7,2.44,2.44,0,0,0,.38-1.24c0-.8,0-1.59.08-2.4a1.52,1.52,0,0,1,.87,0c1.45.18,2.89.38,4.34.58l2.87.37A2.62,2.62,0,0,1,95.15,20a6,6,0,0,1,.11,1c0,1.82,0,3.65,0,5.48q0,14.1.06,28.21c0,.18,0,.36,0,.54-.12,0-.2-.05-.2-.18a1,1,0,0,0-.19-.57,2.41,2.41,0,0,1-.85.27c-.24-.38-.26-.4-.59-.42a1.09,1.09,0,0,1-.92-.91c-.07-.4-.11-.84-.55-1.09.32-.41.18-.92.33-1.31.25-.11.55.08.67-.23-.12-.31-.44-.08-.6-.25,0-.57,0-.59.51-.49a.44.44,0,0,0,.51-.66,1,1,0,0,1-.12-.88c-.13-.07-.22-.16-.34-.16a.28.28,0,0,1-.3-.23c.52-.36.51-1.08,1-1.53a2.27,2.27,0,0,1-.41-.84c0-.28-.23-.33-.43-.39s-.24,0-.38-.07c.05-.51-.43-.54-.75-.72a4.55,4.55,0,0,1,0-.53.49.49,0,0,0-.29-.51c-.36-.21-.36-.28,0-.56-.11-.24-.06-.54-.31-.76.14-.17.25-.33.38-.47s.11-.31,0-.47-.24-.06-.32-.2V39.7c0-.14,0-.29-.08-.39-.29-.26-.47-.61-.74-.88-.43.24-.51.22-.63-.23a.27.27,0,0,0-.34-.22c-.11,0-.21.13-.41,0-.2-.29-.21-.85-.8-.93a1.2,1.2,0,0,1-.49.45c-.05-.2-.1-.38-.34-.36s-.35-.17-.42-.41c.34-.11.51-.4.71-.68A.77.77,0,0,1,87.68,35c.56-.47.11-1,.19-1.52,0-.11-.16-.16-.27-.2s-.26-.27-.22-.48.11-.19,0-.33-.29-.33-.59-.32A2.3,2.3,0,0,1,85.64,32a.44.44,0,0,0-.34,0,3.45,3.45,0,0,0-.85.3c-.37.21-.68.62-1.19.55a.19.19,0,0,0-.15.08c-.3.42-.8.48-1.22.67a3.93,3.93,0,0,0-.37-1.38L81.7,32l.28-.14a3.65,3.65,0,0,0,1.92-2.35A1.59,1.59,0,0,0,83,27.47a.09.09,0,0,0-.13-.07,5.52,5.52,0,0,0-1.22,0c-.11-.15-.16-.08-.19,0-.57.19-1.11.27-1.51-.31h0c-.34-.33-.81-.44-1.17-.73,0-.07,0-.17.12-.15s.18.07.29,0,.4-.11.61,0,.36.28.57.22a5.9,5.9,0,0,1,.72-.09c.18,0,.41-.05.46-.28a2.08,2.08,0,0,0,.11-.84,4.6,4.6,0,0,0-.16-1c.72-.34.72-.34.68-.79a1.47,1.47,0,0,0-1.33.52c-.16,0-.31-.11-.3-.22,0-.4-.39-.51-.54-.8s-.38-.15-.51.1,0,.27-.15.35-.15-.25-.3-.3a.39.39,0,0,1-.52.1c-.29-.21,0-.42.06-.61a.54.54,0,0,0-.41-.31.82.82,0,0,1-.62-.4c-.22-.31-.37-.67-.81-.74a.19.19,0,0,1-.13-.17.21.21,0,0,0-.17-.19,5.55,5.55,0,0,0-1.22-.2A.69.69,0,0,1,74.41,20.17Zm4.65,2.43c-.09.09-.09.09,0,.22C79.12,22.74,79.13,22.67,79.06,22.6ZM91.89,40.67s.06,0,.07,0a.07.07,0,0,0-.06-.09s-.06,0-.06,0S91.84,40.65,91.89,40.67Z"/><path class="cls-18" d="M81.89,33.53c.42-.19.92-.25,1.22-.67a.19.19,0,0,1,.15-.08c.51.07.82-.34,1.19-.55a3.45,3.45,0,0,1,.85-.3.44.44,0,0,1,.34,0,2.3,2.3,0,0,0,1.18.21c.3,0,.39.27.59.32s0,.23,0,.33,0,.39.22.48.29.09.27.2c-.08.5.37,1-.19,1.52a.77.77,0,0,0-.05,1.06c-.2.28-.37.57-.71.68.07.24.14.43.42.41s.29.16.34.36a1.2,1.2,0,0,0,.49-.45c.59.08.6.64.8.93.2.11.3,0,.41,0a.27.27,0,0,1,.34.22c.12.45.2.47.63.23.27.27.45.62.74.88.12.1.08.25.08.39v1.42c.08.14.23.11.32.2s.2.29,0,.47-.24.3-.38.47c.25.22.2.52.31.76-.38.28-.38.35,0,.56a.49.49,0,0,1,.29.51,4.55,4.55,0,0,0,0,.53c.32.18.8.21.75.72.14.09.27,0,.38.07s.38.11.43.39a2.27,2.27,0,0,0,.41.84c-.45.45-.44,1.17-1,1.53a.28.28,0,0,0,.3.23c.12,0,.21.09.34.16a1,1,0,0,0,.12.88.44.44,0,0,1-.51.66c-.53-.1-.55-.08-.51.49.16.17.48-.06.6.25-.12.31-.42.12-.67.23-.15.39,0,.9-.33,1.31.44.25.48.69.55,1.09a1.09,1.09,0,0,0,.92.91c.33,0,.35,0,.59.42a2.41,2.41,0,0,0,.85-.27,1,1,0,0,1,.19.57c0,.13.08.18.2.18.1.94,0,1.87,0,2.8.1,6.24,0,12.48.06,18.73v.76c-.25.17-.53.07-.8.11a30.78,30.78,0,0,0-.28-3.18c-.09-.91-.09-1.83-.2-2.73s-.14-2-.24-3c0-.49-.09-1-.12-1.48-.05-.91-.17-1.82-.25-2.72,0-.41-.06-.81-.08-1.21,0-1-.18-1.92-.22-2.88,0-.59-.19-1.18-.23-1.77s-.12-1.25-.21-1.88a16.92,16.92,0,0,0-1.32-5.38,5.54,5.54,0,0,0-1.66-2.16,3.47,3.47,0,0,1-.74-1,4.83,4.83,0,0,0-1.68-1.53,13.18,13.18,0,0,0-2.15-.8c-.4-.13-.8-.25-1.19-.39-.13,0-.25-.12-.35,0A8,8,0,0,0,81.13,43a1.39,1.39,0,0,1-.55-.94.26.26,0,0,1,.09-.28,3.68,3.68,0,0,0,1.08-2.33A25.71,25.71,0,0,0,82,35.52c0-.45-.09-.9,0-1.35.08,0,.15,0,.16-.12s-.08-.15-.17-.16Z"/><path class="cls-18" d="M74.41,20.17a.69.69,0,0,0,.79.36,5.55,5.55,0,0,1,1.22.2.21.21,0,0,1,.17.19.19.19,0,0,0,.13.17c.44.07.59.43.81.74a.82.82,0,0,0,.62.4.54.54,0,0,1,.41.31c0,.19-.35.4-.06.61a.39.39,0,0,0,.52-.1c.15.05.07.31.3.3s.09-.23.15-.35.39-.33.51-.1.54.4.54.8c0,.11.14.22.3.22a1.47,1.47,0,0,1,1.33-.52c0,.45,0,.45-.68.79a4.6,4.6,0,0,1,.16,1,2.08,2.08,0,0,1-.11.84c0,.23-.28.25-.46.28a5.9,5.9,0,0,0-.72.09c-.21.06-.4-.1-.57-.22s-.41-.2-.61,0-.19,0-.29,0-.1.08-.12.15l-.37-.13c0-.22-.08-.31-.3-.32s-.24.1-.23.27a1.61,1.61,0,0,0-1.3.69,1.06,1.06,0,0,1-.24-.12,1.89,1.89,0,0,0-1.41-.38,4,4,0,0,0-3,1.5,1.5,1.5,0,0,0-.27.6,2.63,2.63,0,0,0,0,1.15A4.64,4.64,0,0,0,71,30c-.24,0-.24-.15-.17-.35s.08-.45-.26-.49-.32-.26-.34-.47c0-.7-.28-1.37-.28-2.08a.22.22,0,0,0-.21-.25c-.32,0-.45-.25-.63-.54.78,0,1-.6,1.3-1.11-.09-.11-.14-.22-.28-.24s-.2.2-.39.13c-.12-.28-.49-.25-.65-.49-.19,0-.28.27-.5.07.21-.21.55-.33.49-.67.14-.13.28.1.4-.05-.17-.49-.47-.14-.65-.11s-.21-.23-.39-.26a3.38,3.38,0,0,1-.63.23c-.06.65-.06.65-.67.85a.61.61,0,0,0-.13,0c-.47.21-.8-.12-1.16-.29-.08,0-.09-.16,0-.26a1.94,1.94,0,0,0,1.66-.44.93.93,0,0,1-.71-.57c-.48,0-.53.58-1,.61l-.1-.07a.57.57,0,0,0-.75-.29c-.25.09-.55.06-.61-.32,0-.07-.1-.11-.24-.11-.14.26-.41.21-.65.14s-.29-.2-.45-.29a.35.35,0,0,1-.15-.52.62.62,0,0,0-.21-.76c-.23.05-.09.44-.4.42-.18-.22-.18-.22-.39-.18.12.19.28.38.12.61-.24,0-.29-.32-.55-.3,0,.28-.14.56.13.77.21,0,.26-.27.46-.3a.84.84,0,0,1-.87.8c0-.27.27-.61-.12-.84a.54.54,0,0,0-.11.64c.13.28.28.57,0,.88a.19.19,0,0,0,0,.13c.15.43-.18.71-.3,1.05l-.35-.08c-.1-.24-.31-.43-.28-.72s0-.4-.27-.46A6.76,6.76,0,0,1,59.27,22c0-.21,0-.44-.27-.46a1,1,0,0,1-.19-.45.27.27,0,0,0,.24-.11.69.69,0,0,1,.61-.27,1.09,1.09,0,0,0,.14-.83c-.7-.38-.78-.6-.47-1.27-.07-.08-.22-.14-.1-.29.63-.1.67-.12.62-.56-.31-.12-.58.25-.89.12-.2-.37.29-.46.29-.72A.33.33,0,0,0,59,17a.85.85,0,0,1-.54-1,.35.35,0,0,0-.06-.45,8.31,8.31,0,0,1-.71-.75c-.07-.06-.14-.13-.23-.12a.8.8,0,0,1-.6-.19c-.08.27,0,.55-.26.74.26.12.42.23.15.43-.31-.05-.45-.19-.32-.51l-.26,0a4.07,4.07,0,0,0-.28-.55,1.77,1.77,0,0,1-.27-.8.46.46,0,0,0-.08-.34,6.81,6.81,0,0,1-.46-.94h.36l.11.05a.17.17,0,0,0,.17,0,5.46,5.46,0,0,0,1.14.13c.58.12,1.17.17,1.75.3a12.38,12.38,0,0,0,1.73.2c.87.18,1.76.23,2.63.36l2,.3c.42.07.61.32.62.83s0,1.06,0,1.58a3.56,3.56,0,0,0,.66,2.15,2.14,2.14,0,0,0,1.78.93,4.7,4.7,0,0,1,1,.12.55.55,0,0,0,.6.44,4.29,4.29,0,0,1,.71.08.63.63,0,0,0,.69-.17h.17s0,.11,0,.12a5.14,5.14,0,0,1,1,.71c.22-.11.49,0,.69-.14a1.52,1.52,0,0,1,.88-.24c.11,0,.14-.08.15-.17A.89.89,0,0,1,74.41,20.17Zm-3.8,3.39a2.69,2.69,0,0,1,.08.65c0,.48,0,.47.45.64.22.08.41.12.57-.09s.22-.09.32-.15.3-.1.28-.3c-.38-.35-.38-.35-.7,0-.1.11-.2.19-.35.15a.41.41,0,0,1-.3-.31,1.91,1.91,0,0,1,0-.63C70.8,23.46,70.71,23.45,70.61,23.56Zm-2-.88c0,.21,0,.21.2.18C68.76,22.75,68.71,22.7,68.56,22.68Z"/><path class="cls-22" d="M80.06,17.83A7.18,7.18,0,0,1,78,17.64c-.74-.1-1.48-.22-2.21-.33-.46-.07-.93-.1-1.38-.21S73.53,17,73.1,17a5.64,5.64,0,0,0-1.16-.12.73.73,0,0,1-.35-.09c-.2-.08-.21-.24-.14-.41s.13-.31.35-.28l2.93.42,2.22.29c.85.1,1.69.26,2.54.28a.94.94,0,0,1,.43.13C80.19,17.32,80.22,17.49,80.06,17.83Z"/><path class="cls-5" d="M55.57,12.55l-.11-.05a1,1,0,0,0,.25-.32c.22-.1.47.06.66-.11h.26c0,.19.14.21.28.07l.35,0c.08.23.22.18.38.07l.53,0c0,.11.07.21.19.06.34,0,.65.12,1,.11,0,.19.14.22.28.07l.44,0c.06.18.15.2.29.07h.17c.06.32.38.07.53.25-.15.32-.41.15-.63.12s-.07.16-.07.24a12.38,12.38,0,0,1-1.73-.2c-.58-.13-1.17-.18-1.75-.3a5.46,5.46,0,0,1-1.14-.13A.13.13,0,0,0,55.57,12.55Z"/><path class="cls-20" d="M74,20.12c0,.09,0,.18-.15.17a1.52,1.52,0,0,0-.88.24c-.2.11-.47,0-.69.14a5.14,5.14,0,0,0-1-.71s0-.08,0-.12v-.09a6.58,6.58,0,0,1,1.26.16c.05.1.1.16.19,0A6.08,6.08,0,0,1,74,20.12Z"/><path class="cls-20" d="M71.06,19.84a.63.63,0,0,1-.69.17,4.29,4.29,0,0,0-.71-.08.55.55,0,0,1-.6-.44,1.57,1.57,0,0,1,.53.05c0,.11.1.17.19,0a2,2,0,0,1,.54.06c.05.11.1.17.18,0a2,2,0,0,1,.54.06Z"/><path class="cls-22" d="M70.59,16.33a.37.37,0,0,1-.4.34.57.57,0,0,1-.41-.52c0-.24.15-.31.36-.29A.52.52,0,0,1,70.59,16.33Z"/><path class="cls-16" d="M82.29,21.12c-.11.12-.21.11-.28,0A.2.2,0,0,1,82.29,21.12Z"/><path class="cls-16" d="M81.47,21c-.07.11-.13.08-.18,0S81.42,21,81.47,21Z"/><path class="cls-16" d="M72.68,19.94c-.09.13-.14.07-.19,0A.12.12,0,0,1,72.68,19.94Z"/><path class="cls-16" d="M71.06,19.84l0-.12a.14.14,0,0,1,.19,0v.09Z"/><path class="cls-16" d="M70.5,19.66c-.08.14-.13.08-.18,0A.12.12,0,0,1,70.5,19.66Z"/><path class="cls-16" d="M69.78,19.57c-.09.14-.14.08-.19,0A.13.13,0,0,1,69.78,19.57Z"/><path class="cls-4" d="M103.77,42.66a3.84,3.84,0,0,1-.63.42c-.42.14-.64,0-.67-.44a1.22,1.22,0,0,1,0-.27.67.67,0,0,0-.43-.79.66.66,0,0,1-.35-.33c0-.15.1-.23.17-.31a4.25,4.25,0,0,0,1-2.35,1.66,1.66,0,0,1,.1-.53h.16a1.35,1.35,0,0,0,.74.28,1.53,1.53,0,0,1,.66.23l0,0a.36.36,0,0,0,.25.27,11.65,11.65,0,0,0,.83.89.29.29,0,0,0,.47,0c.13-.11.24-.23.38-.33a.7.7,0,0,1,1.13.48,2.22,2.22,0,0,1-.92,2.25c-.09.06-.21,0-.33.13a19.32,19.32,0,0,1-.7,3.41A5.82,5.82,0,0,1,104,45.5a2.29,2.29,0,0,1-1.39-2c.54-.18,1.17-.19,1.38-.85.06-.05,0-.12,0-.14S103.81,42.59,103.77,42.66Zm0-3.22c0-.22,0-.44-.26-.42s-.29.23-.3.43,0,.39.27.38S103.76,39.61,103.76,39.44Z"/><path class="cls-4" d="M103.1,38.07h-.16a4.29,4.29,0,0,1,.32-1.76,8.81,8.81,0,0,0,.87,1.67c-.21.08-.32-.12-.49-.16C103.32,37.72,103.17,37.79,103.1,38.07Z"/><path class="cls-7" d="M103.1,38.07c.07-.28.22-.35.54-.26.17,0,.28.24.49.16a1.38,1.38,0,0,1,.37.61,1.53,1.53,0,0,0-.66-.23A1.35,1.35,0,0,1,103.1,38.07Z"/><path class="cls-7" d="M104.77,38.87a.36.36,0,0,1-.25-.27A.26.26,0,0,1,104.77,38.87Z"/><path class="cls-21" d="M103.77,42.66c0-.07.06-.17.17-.13s.06.09,0,.14Z"/><path class="cls-9" d="M107.47,50.79c.16-.35.16-.35.56-.49.08.25.34.31.54.41-.17.43-.26.48-.54.3A1.87,1.87,0,0,0,107.47,50.79Z"/><path class="cls-4" d="M90.27,87.12a1,1,0,0,1-.1-.57c0-1.65,0-3.3,0-5,0-.69-.14-1.37-.1-2.06a1.29,1.29,0,0,1,0-.44c.14-.14.36,0,.5-.13l5.75-.37A7.22,7.22,0,0,0,96.71,80a7.12,7.12,0,0,1-.34,2c-.29,1.44-.75,2.83-1.17,4.23a3.44,3.44,0,0,0,0,2.22,5.79,5.79,0,0,0-1.5,0,4.9,4.9,0,0,0-.43-1.18c-.37-.58-.77-.64-1.25-.2l-.09,0c-.5-.33-.54-.33-1,.1a.36.36,0,0,1-.4.12Z"/><path class="cls-4" d="M102.28,74.58c-.46,1.49-1.1,2.84-1.62,4.24-.58,1.55-1.15,3.1-1.82,4.62a1,1,0,0,0,0,.58,4.93,4.93,0,0,1-.36,3.1,2,2,0,0,0,.67,2.6c-.39.24-.53.22-.81-.11a4,4,0,0,1-.7-1.55c0-.14,0-.31-.19-.39-.21.42-.21.42.88,2.73-.29.25-.4.26-.64,0a2.1,2.1,0,0,1-.41-.65,10.94,10.94,0,0,1-.55-1.48c0-.18-.07-.39-.39-.44a7.3,7.3,0,0,0,1,2.8,1,1,0,0,1-.61-.37,6.43,6.43,0,0,1-1.28-2.67,2.63,2.63,0,0,1,.16-1.38c1.08-3.33,1.73-6.77,2.58-10.17.2-.8.35-1.62.53-2.47A19.76,19.76,0,0,0,102.28,74.58Z"/><path class="cls-11" d="M93.71,88.36a5.79,5.79,0,0,1,1.5,0,4.15,4.15,0,0,1,.33.89c-.06-.1-.09,0-.13,0a8.9,8.9,0,0,0-1.63.07C93.83,89,93.68,88.69,93.71,88.36Z"/><path class="cls-6" d="M95.41,89.27c0-.06.07-.12.13,0a.13.13,0,0,1-.07.12Z"/><path class="cls-4" d="M104.5,128c0,.85,0,1.67,0,2.53a32.55,32.55,0,0,1-5.36.85,1.28,1.28,0,0,1,.53-.53,5.08,5.08,0,0,0,1-.85,1.67,1.67,0,0,0,.51-1.31c0-.24,0-.47,0-.74C102.32,128,103.4,128,104.5,128Z"/><path class="cls-4" d="M115.63,128c0,.84,0,1.64,0,2.48a25.67,25.67,0,0,1-4.92.68c0-.21.09-.26.19-.33.31-.23.61-.48.91-.74a1.73,1.73,0,0,0,.63-1.25c0-.27,0-.54.06-.84Z"/><path class="cls-16" d="M55.64,13.78a1.77,1.77,0,0,0,.27.8,4.07,4.07,0,0,1,.28.55.66.66,0,0,0,.1.44,17.61,17.61,0,0,1,.84,1.82,8.13,8.13,0,0,1,.42.9,25.43,25.43,0,0,0,1.26,2.83,1,1,0,0,0,.19.45c.06.17,0,.4.27.46a6.76,6.76,0,0,0,.54,1.44c0,.21,0,.4.27.46,0,.29.18.48.28.72s.26.57.36.86c.2.53.41,1.06.63,1.58.55,1.29,1.1,2.58,1.67,3.87.25.57.45,1.17.75,1.72a8.41,8.41,0,0,1,.5,1.1c.21.57.42,1.15.67,1.71s.5,1,.7,1.5c.45,1.11,1,2.18,1.41,3.29s1,2.27,1.49,3.42a5.82,5.82,0,0,0,.61,1.19c.13.19.34.39.27.69a13.61,13.61,0,0,0-1.86.54c-.94.29-1.91.49-2.83.86a3.09,3.09,0,0,1-.53.09,2.87,2.87,0,0,0-1,.5.23.23,0,0,0-.4-.1,6.11,6.11,0,0,0-1,.84,3.86,3.86,0,0,0-.42.92,3,3,0,0,1-.76,1.1c-.21.18-.35.44-.61.6s-.17.36-.11.57c-.09.11-.17,0-.29,0-.05.31-.33.39-.61.5l-.41-.32c-.09-.15.2-.37-.16-.48-.27.66-1.12.56-1.44,1.17-.22-.1-.21-.29-.29-.43a1.57,1.57,0,0,1-.53-.11l-.22.25a5,5,0,0,1-1.08-.56c0-.19.35-.21.21-.47s-.3.14-.47.21a4.08,4.08,0,0,1-.45-.1c-.17-.06-.32-.1-.43,0a5.62,5.62,0,0,1-.18,1.7c-.08.22-.08.22.2.65a1,1,0,0,0,0,.65c.11.39.05.49-.31.62l-.39.1c-.13-6.93-.05-13.86-.06-20.79q0-9.33,0-18.66a3.4,3.4,0,0,1,.68-2.29,1.65,1.65,0,0,1,1-.67A3,3,0,0,0,55.64,13.78Z"/><path class="cls-19" d="M69.42,45.58c.07-.3-.14-.5-.27-.69a5.82,5.82,0,0,1-.61-1.19c-.49-1.15-1-2.27-1.49-3.42s-1-2.18-1.41-3.29c-.2-.51-.47-1-.7-1.5s-.46-1.14-.67-1.71a8.41,8.41,0,0,0-.5-1.1c-.3-.55-.5-1.15-.75-1.72-.57-1.29-1.12-2.58-1.67-3.87-.22-.52-.43-1.05-.63-1.58-.1-.29-.35-.53-.36-.86l.35.08c.12-.34.45-.62.3-1.05a.19.19,0,0,1,0-.13c.23-.31.08-.6,0-.88a.54.54,0,0,1,.11-.64c.39.23.09.57.12.84a.84.84,0,0,0,.87-.8c-.2,0-.25.26-.46.3-.27-.21-.13-.49-.13-.77.26,0,.31.3.55.3.16-.23,0-.42-.12-.61.21,0,.21,0,.39.18.31,0,.17-.37.4-.42a.62.62,0,0,1,.21.76.35.35,0,0,0,.15.52c.16.09.29.25.45.29s.51.12.65-.14c.14,0,.23,0,.24.11.06.38.36.41.61.32a.57.57,0,0,1,.75.29l.1.07c.43,0,.48-.64,1-.61a.93.93,0,0,0,.71.57,1.94,1.94,0,0,1-1.66.44c-.09.1-.08.22,0,.26.36.17.69.5,1.16.29a.61.61,0,0,1,.13,0c.61-.2.61-.2.67-.85a3.38,3.38,0,0,0,.63-.23c.18,0,.18.23.39.26s.48-.38.65.11c-.12.15-.26-.08-.4.05.06.34-.28.46-.49.67.22.2.31-.08.5-.07.16.24.53.21.65.49.19.07.26-.12.39-.13s.19.13.28.24c-.3.51-.52,1.09-1.3,1.11.18.29.31.51.63.54a.22.22,0,0,1,.21.25c0,.71.23,1.38.28,2.08,0,.21.07.44.34.47s.33.27.26.49-.07.32.17.35a.85.85,0,0,0-.13.6,5.68,5.68,0,0,0,.35,1.77,1.78,1.78,0,0,1,.19.53c-.12.12-.22.24-.33.34a1.47,1.47,0,0,0-.48,1A4.19,4.19,0,0,0,71,36.42a2.77,2.77,0,0,0,1.81,1.64c.11.23.06.51.2.73a.46.46,0,0,0,.15.32,2,2,0,0,1,.2,1.26,16.26,16.26,0,0,0-.08,1.85,2.68,2.68,0,0,1,0,.63l-.33.14a1.11,1.11,0,0,0-.52.23,6,6,0,0,0-2.15,2.31c-.07-.11-.15-.1-.27-.07A1.08,1.08,0,0,1,69.42,45.58Z"/><path class="cls-21" d="M70.19,45.53a6,6,0,0,1,2.15-2.31,1.11,1.11,0,0,1,.52-.23c0,.15.1.27.09.42l-.44.29a3.8,3.8,0,0,0-1.21,1.15,1.78,1.78,0,0,0-.56.69,6.17,6.17,0,0,0-.65,3.58A10.1,10.1,0,0,0,71,52.17c0,.09,0,.18.11.18l1.33.54c.21.08.38.24.62.24A9.22,9.22,0,0,1,75.84,56,8.86,8.86,0,0,1,77.1,61.5a7.12,7.12,0,0,1-.24,1.07,4.4,4.4,0,0,1,.37.55.86.86,0,0,1-.47,1.12.65.65,0,0,1-.89-.75,1,1,0,0,1,.39-.64.61.61,0,0,0,.26-.4,8.3,8.3,0,0,0-2.51-8,5,5,0,0,0-1-.74,5.54,5.54,0,0,0-1.63-.86.47.47,0,0,0-.35,0,1.18,1.18,0,0,0-.7.47A7,7,0,0,0,69,58.68,9.76,9.76,0,0,0,70.92,63a1.77,1.77,0,0,0,.82.68.88.88,0,0,1,.47.4.81.81,0,0,1,0,.9.52.52,0,0,1-.65.16.8.8,0,0,1-.64-.67.22.22,0,0,1,0-.14c.24-.5-.11-.8-.37-1.15a9.2,9.2,0,0,1-2-6.24,6.61,6.61,0,0,1,1.33-3.65,2.75,2.75,0,0,1,.83-.75,9.42,9.42,0,0,1-.79-2.21A7,7,0,0,1,70.19,45.53Zm1.25,18.55c-.21.35-.22.54,0,.63a.41.41,0,0,0,.47-.15C71.94,64.37,71.79,64.2,71.44,64.08Zm5.14-1c-.36.38-.37.52-.09.77C76.85,63.59,76.87,63.46,76.58,63.09Z"/><path class="cls-21" d="M63.37,66.91c-.8-.12-1.35.39-2,.67-.18-.3,0-.44.16-.56A3.33,3.33,0,0,1,63,66.44a.57.57,0,0,0,.35-.09,30.91,30.91,0,0,1,1-4.25c.41-1.4.83-2.79,1.25-4.21.37.09.38.29.31.53-.17.55-.35,1.09-.51,1.64s-.27,1-.42,1.43a19.31,19.31,0,0,0-.62,1.91,16,16,0,0,0-.45,5.09q.5,4,1.22,8c.06.34.18.66.21,1-.38.14-.41.12-.48-.24-.33-1.71-.63-3.41-.89-5.13S63.52,68.66,63.37,66.91Z"/><path class="cls-11" d="M58.27,80.84a.11.11,0,0,1-.08-.11A.12.12,0,0,1,58.27,80.84Z"/><path class="cls-16" d="M62.45,48.32a.12.12,0,0,1,.08-.11A.11.11,0,0,1,62.45,48.32Z"/><path class="cls-6" d="M72.77,38.06A2.77,2.77,0,0,1,71,36.42a4.19,4.19,0,0,1-.35-2.12,1.47,1.47,0,0,1,.48-1c.11-.1.21-.22.33-.34a1.78,1.78,0,0,0-.19-.53,5.68,5.68,0,0,1-.35-1.77A.85.85,0,0,1,71,30a4.64,4.64,0,0,1,.59-.39,2.63,2.63,0,0,1,0-1.15,1.5,1.5,0,0,1,.27-.6,4,4,0,0,1,3-1.5,1.89,1.89,0,0,1,1.41.38,1.06,1.06,0,0,0,.24.12,1.61,1.61,0,0,1,1.3-.69l.53,0,.37.13c.36.29.83.4,1.17.73h0c.4.58.94.5,1.51.31a.14.14,0,0,0,.19,0,5.52,5.52,0,0,1,1.22,0l.13.07a1.59,1.59,0,0,1,.89,2.06A3.65,3.65,0,0,1,82,31.88L81.7,32l-.18.13a3.93,3.93,0,0,1,.37,1.38l0,.36v.28c0,.45,0,.9,0,1.35a25.71,25.71,0,0,1-.24,3.92,3.68,3.68,0,0,1-1.08,2.33.26.26,0,0,0-.09.28,1.39,1.39,0,0,0,.55.94,8,8,0,0,1,2.58,2.62,13,13,0,0,1,1.14,2.88c0,.15.06.29.08.44-.21.2-.09.53-.28.73A22.62,22.62,0,0,0,84,47.39a7.53,7.53,0,0,0-1.09-2.06,1.47,1.47,0,0,0-.22-.21,1.68,1.68,0,0,0-.58-.78,4.46,4.46,0,0,0-1.15-1A1.52,1.52,0,0,0,81,44c-.11.08-.18.22-.35.19a3.07,3.07,0,0,1-.19-.78,8.27,8.27,0,0,0-.29-1.31,5.41,5.41,0,0,1-5-.53c0-.15,0-.28.21-.29a2.52,2.52,0,0,1,.29.12,5.8,5.8,0,0,0,3.06.64,2.74,2.74,0,0,0,1.79-.78,2.89,2.89,0,0,0,.81-2c.15-1.56.19-3.13.19-4.69a7.53,7.53,0,0,0-.19-1.71A2.24,2.24,0,0,0,81,32.1a.61.61,0,0,0-1-.18,1.76,1.76,0,0,1-.85.37c-.32,0-.63.08-1,.1a5,5,0,0,1-3-.64c-.9-.57-1.35-.39-1.72.59-.19.48-.42.95-.62,1.42a.41.41,0,0,1-.31-.14.81.81,0,0,0-1.42.32,2.14,2.14,0,0,0-.1,1.12c.18,1.29.75,2.42,2,2.66a.57.57,0,0,1,.07.34Z"/><path class="cls-12" d="M80.66,44.22c.17,0,.24-.11.35-.19l.22.85.06,2.43c0,.18,0,.36,0,.54a3.2,3.2,0,0,0-.84,1,26.11,26.11,0,0,0-1.61,2.47.28.28,0,0,1-.32-.22,23.32,23.32,0,0,0-1.27-2.43,1,1,0,0,0-.41-.41c-.72,1-1.25,2-1.94,3-.14,0-.17-.1-.21-.18a16.31,16.31,0,0,0-1.2-2,3.68,3.68,0,0,1-.23-.44.33.33,0,0,0-.27-.21c-.11-1.29-.12-2.59-.11-3.89a3.24,3.24,0,0,0,.32-.92c.07.1,0,.24.1.33s.2,0,.3,0c0,.19.09.3.21.43,1,1,1.9,2.09,2.82,3.17.11.13.15.34.39.38.56-.7,1.26-1.28,1.85-2S80.11,44.88,80.66,44.22Z"/><path class="cls-21" d="M88.59,71.41l0-1.18a3.14,3.14,0,0,0,0-.81l0-.54a.2.2,0,0,0,0-.22l0-.51V68l-.09-2.72v-.18c0-1.17-.08-2.34-.12-3.51,0-1-.1-1.89-.15-2.83v-.1L88,57.28a.1.1,0,0,0,.06-.1.37.37,0,0,1,.29,0l0,.27c.22,3.43.37,6.86.5,10.3.18,4.48.25,9,.37,13.44a13.82,13.82,0,0,0,0,1.82v4.7a2.13,2.13,0,0,0,0,.94v.13a.07.07,0,0,0,0,.11c-.11.14-.25.1-.39.07s0-.29-.07-.43a.69.69,0,0,0,0-.45c0-1.56,0-3.12,0-4.68l0-2.12a18.94,18.94,0,0,0,0-2.26c0-.67,0-1.33-.06-2a.73.73,0,0,0,0-.36v-.54a1,1,0,0,0,0-.46l-.08-3.17A5,5,0,0,0,88.59,71.41Z"/><path class="cls-21" d="M93.71,88.36c0,.33.12.64.07,1-.11.72-.68.63-1.17.65-.31.41-.64.51-1.21.14-.38.41-.78.28-1.18,0a2,2,0,0,1-.06-.72c.17.18.27.32.4.44a.33.33,0,0,0,.41.07.27.27,0,0,0,.14-.34,11.08,11.08,0,0,0-.51-1.79.37.37,0,0,0-.17-.2c-.22-.1-.19-.28-.16-.46l.31,0a.36.36,0,0,0,.4-.12c.42-.43.46-.43,1-.1L92,87c.48-.44.88-.38,1.25.2A4.9,4.9,0,0,1,93.71,88.36Zm-2.49-1.07a.31.31,0,0,0-.08.24,10.27,10.27,0,0,0,.32,1.92,1.34,1.34,0,0,0,.12.24.61.61,0,0,0,.68.22c.24-.11.18-.33.15-.52a5.64,5.64,0,0,0-.74-1.88A.37.37,0,0,0,91.22,87.29Zm1.16,0a1.1,1.1,0,0,0,0,.48c.11.5.22,1,.34,1.49.06.22.18.38.45.34s.27-.28.26-.49a5.41,5.41,0,0,0-.55-1.66A.34.34,0,0,0,92.38,87.34Z"/><path class="cls-21" d="M84.65,49.66c.19-.2.07-.53.28-.73a1.68,1.68,0,0,1,.15.83c-.08.06-.08.12,0,.17a3.84,3.84,0,0,1,0,.83.16.16,0,0,0,0,.26v.28c0,.1,0,.07.07.07.78.11,1,.84,1,1.47,0,.48-.55.88-1.17.9a1.82,1.82,0,0,1-1.5-.5,1,1,0,0,1-.27-1.12,1.2,1.2,0,0,1,.94-.81,4,4,0,0,1,.51-.06A14.22,14.22,0,0,0,84.65,49.66Zm1,3c.08-.5-.32-.76-.52-1.1a6.66,6.66,0,0,0-.9,0,.57.57,0,0,0-.59.52c-.27.13-.09.39-.2.56.18.15.33.28.49.39a1.71,1.71,0,0,0,1.1.27A.61.61,0,0,0,85.65,52.68Z"/><path class="cls-21" d="M89.78,69.83a.39.39,0,0,1,.19-.55,4.92,4.92,0,0,1,2.58-.53c.2,0,.4.07.34.39A5.28,5.28,0,0,0,89.78,69.83Z"/><path class="cls-18" d="M81.23,44.88,81,44a1.52,1.52,0,0,1-.06-.65,4.46,4.46,0,0,1,1.15,1,1.68,1.68,0,0,1,.58.78c-.35.1-.6-.19-.92-.22A1.89,1.89,0,0,0,81.23,44.88Z"/><path class="cls-20" d="M88.78,79a18.94,18.94,0,0,1,0,2.26l0,0A9.78,9.78,0,0,1,88.78,79Z"/><path class="cls-20" d="M89.29,83a13.82,13.82,0,0,1,0-1.82c.1.07.09.18.08.28A7.22,7.22,0,0,1,89.29,83Z"/><path class="cls-20" d="M88.59,71.41a5,5,0,0,1,0,1.09A2,2,0,0,1,88.59,71.41Z"/><path class="cls-20" d="M89.34,88.66a2.13,2.13,0,0,1,0-.94A2.14,2.14,0,0,1,89.34,88.66Z"/><path class="cls-20" d="M88.52,69.42a3.14,3.14,0,0,1,0,.81A1,1,0,0,1,88.52,69.42Z"/><path class="cls-20" d="M88.7,75.67a1,1,0,0,1,0,.46A.38.38,0,0,1,88.7,75.67Z"/><path class="cls-20" d="M88.86,88.09a.69.69,0,0,1,0,.45A.48.48,0,0,1,88.86,88.09Z"/><path class="cls-20" d="M88.72,76.67a.73.73,0,0,1,0,.36A.22.22,0,0,1,88.72,76.67Z"/><path class="cls-13" d="M85.06,51a.16.16,0,0,1,0-.26A.39.39,0,0,1,85.06,51Z"/><path class="cls-20" d="M88.4,57.46l0-.27C88.48,57.26,88.47,57.35,88.4,57.46Z"/><path class="cls-20" d="M88.45,68v.18C88.36,68.09,88.35,68,88.45,68Z"/><path class="cls-13" d="M85.09,49.93c-.09,0-.09-.11,0-.17Z"/><path class="cls-20" d="M88.35,65.07v.18C88.26,65.19,88.26,65.13,88.35,65.07Z"/><path class="cls-20" d="M88.48,68.66a.2.2,0,0,1,0,.22A.2.2,0,0,1,88.48,68.66Z"/><path class="cls-13" d="M85.13,51.37s-.12,0-.07-.07Z"/><path class="cls-20" d="M88.07,57.18a.1.1,0,0,1-.06.1A.08.08,0,0,1,88.07,57.18Z"/><path class="cls-20" d="M88.07,58.63v.1C88,58.7,88,58.67,88.07,58.63Z"/><path class="cls-20" d="M89.32,88.9a.07.07,0,0,1,0-.11A.08.08,0,0,1,89.32,88.9Z"/><path class="cls-14" d="M72.86,44.59c0,1.3,0,2.6.11,3.89A36.82,36.82,0,0,0,73,52.27c0,.28,0,.57,0,.86-.24,0-.41-.16-.62-.24l-1.33-.54a.29.29,0,0,0-.11-.18,10.1,10.1,0,0,1-.89-3.05,6.17,6.17,0,0,1,.65-3.58,1.78,1.78,0,0,1,.56-.69,1.7,1.7,0,0,0,.74-.09A3.73,3.73,0,0,1,72.86,44.59Z"/><path class="cls-11" d="M54.15,84c0-.18-.16-.31-.11-.48.21-.14.33,0,.4.16S54.4,84,54.15,84Z"/><path class="cls-16" d="M53,55.82v-.26c.09,0,.22,0,.23.11S53.06,55.82,53,55.82Z"/><path class="cls-11" d="M62,96a.27.27,0,0,1-.38,0A.25.25,0,0,1,62,96Z"/><path class="cls-11" d="M54.27,84.58s.06,0,.07,0a.06.06,0,0,1,0,.09s-.06,0-.07,0A.07.07,0,0,1,54.27,84.58Z"/><path class="cls-12" d="M58.55,107.88a.71.71,0,0,1,.16.48C58.46,108.19,58.46,108.19,58.55,107.88Z"/><path class="cls-5" d="M57.64,12.24c-.16.11-.3.16-.38-.07C57.4,12.16,57.54,12.08,57.64,12.24Z"/><path class="cls-5" d="M59.63,12.51c-.14.15-.23.12-.28-.07C59.45,12.42,59.57,12.38,59.63,12.51Z"/><path class="cls-5" d="M60.36,12.61c-.14.13-.23.11-.29-.07C60.18,12.51,60.29,12.47,60.36,12.61Z"/><path class="cls-5" d="M56.91,12.15c-.14.14-.23.12-.28-.07C56.74,12.06,56.85,12,56.91,12.15Z"/><path class="cls-5" d="M58.36,12.33c-.12.15-.16.05-.19-.06S58.32,12.23,58.36,12.33Z"/><path class="cls-19" d="M55.64,13.78a3,3,0,0,1-1.08-1.27.52.52,0,0,1,.54,0,6.81,6.81,0,0,0,.46.94A.46.46,0,0,1,55.64,13.78Z"/><path class="cls-18" d="M79.06,22.6c.07.07.06.14,0,.22C79,22.69,79,22.69,79.06,22.6Z"/><path class="cls-16" d="M81.66,27.38a.14.14,0,0,1-.19,0C81.5,27.3,81.55,27.23,81.66,27.38Z"/><path class="cls-18" d="M91.89,40.67s-.07-.05,0-.09,0,0,.06,0a.07.07,0,0,1,.06.09S91.91,40.65,91.89,40.67Z"/><path class="cls-16" d="M83,27.47l-.13-.07A.09.09,0,0,1,83,27.47Z"/><path class="cls-20" d="M81.94,34.17v-.28c.09,0,.18,0,.17.16S82,34.16,81.94,34.17Z"/><path class="cls-19" d="M58.81,21.12a25.43,25.43,0,0,1-1.26-2.83,8.13,8.13,0,0,0-.42-.9,17.61,17.61,0,0,0-.84-1.82.66.66,0,0,1-.1-.44l.26,0c-.13.32,0,.46.32.51.27-.2.11-.31-.15-.43.24-.19.18-.47.26-.74a.8.8,0,0,0,.6.19c.09,0,.16.06.23.12a8.31,8.31,0,0,0,.71.75.35.35,0,0,1,.06.45A.85.85,0,0,0,59,17a.33.33,0,0,1,.23.16c0,.26-.49.35-.29.72.31.13.58-.24.89-.12,0,.44,0,.46-.62.56-.12.15,0,.21.1.29-.31.67-.23.89.47,1.27a1.09,1.09,0,0,1-.14.83.69.69,0,0,0-.61.27A.27.27,0,0,1,58.81,21.12Z"/><path class="cls-19" d="M70.61,23.56c.1-.11.19-.1.33,0a1.91,1.91,0,0,0,0,.63.41.41,0,0,0,.3.31c.15,0,.25,0,.35-.15.32-.35.32-.35.7,0,0,.2-.15.23-.28.3s-.24.05-.32.15-.35.17-.57.09c-.44-.17-.46-.16-.45-.64A2.69,2.69,0,0,0,70.61,23.56Z"/><path class="cls-20" d="M78.38,26.24l-.53,0c0-.17,0-.28.23-.27S78.41,26,78.38,26.24Z"/><path class="cls-19" d="M59.27,22c-.25-.06-.21-.29-.27-.46C59.32,21.59,59.27,21.82,59.27,22Z"/><path class="cls-19" d="M60.08,23.93c-.25-.06-.27-.25-.27-.46C60.07,23.53,60.09,23.72,60.08,23.93Z"/><path class="cls-19" d="M68.56,22.68c.15,0,.2.07.2.18C68.57,22.89,68.57,22.89,68.56,22.68Z"/><path class="cls-19" d="M55.57,12.55a.13.13,0,0,1,.17,0A.17.17,0,0,1,55.57,12.55Z"/><path class="cls-7" d="M103.76,39.44c0,.17-.05.38-.29.39s-.28-.18-.27-.38.06-.41.3-.43S103.75,39.22,103.76,39.44Z"/><path class="cls-21" d="M72.77,38.06h.35a12.64,12.64,0,0,0,.48,1.39c0,.17,0,.35.22.32A.31.31,0,0,1,74,40c-.18.21,0,.15.12.17a7.58,7.58,0,0,0,1.36,1.17c-.2,0-.22.14-.21.29a.87.87,0,0,1-.4-.26c.08,0,.2,0,.18-.16s-.22,0-.23.13a1,1,0,0,1-.42-.35c.06,0,.14,0,.11-.09s-.16-.07-.26-.07h0c0-.06,0-.09-.1-.1s-.18-.25-.36-.2c-.17-.12,0-.38-.23-.49.13.35,0,.73.19,1.06a.31.31,0,0,1,0,.25c-.06,0-.16,0-.17.09s.1.08.16.1a2.89,2.89,0,0,1,0,.72c-.1,0-.17.05-.17.16s0,.2.16.2a.45.45,0,0,1,0,.28l-.47,0a2.68,2.68,0,0,0,0-.63,16.26,16.26,0,0,1,.08-1.85,2,2,0,0,0-.2-1.26c0-.13.08-.3-.15-.32C72.83,38.57,72.88,38.29,72.77,38.06Z"/><path class="cls-6" d="M73.19,42.85l.47,0a1.53,1.53,0,0,1-.06.82c-.14,0-.22-.22-.4-.19s-.15-.1-.25-.09c0-.15-.12-.27-.09-.42Z"/><path class="cls-6" d="M73,38.79c.23,0,.15.19.15.32A.46.46,0,0,1,73,38.79Z"/><path class="cls-20" d="M73,43.41c.1,0,.2,0,.25.09l0,.17a3.24,3.24,0,0,1-.32.92,3.73,3.73,0,0,0-.82.17,1.7,1.7,0,0,1-.74.09,3.8,3.8,0,0,1,1.21-1.15Z"/><path class="cls-14" d="M71.44,64.08c.35.12.5.29.42.48a.41.41,0,0,1-.47.15C71.22,64.62,71.23,64.43,71.44,64.08Z"/><path class="cls-19" d="M76.58,63.09c.29.37.27.5-.09.77C76.21,63.61,76.22,63.47,76.58,63.09Z"/><path class="cls-13" d="M71,52.17a.29.29,0,0,1,.11.18C71,52.35,71,52.26,71,52.17Z"/><path class="cls-4" d="M73.6,39.45a12.64,12.64,0,0,1-.48-1.39.57.57,0,0,0-.07-.34c-1.25-.24-1.82-1.37-2-2.66a2.14,2.14,0,0,1,.1-1.12.81.81,0,0,1,1.42-.32.41.41,0,0,0,.31.14c.2-.47.43-.94.62-1.42.37-1,.82-1.16,1.72-.59a5,5,0,0,0,3,.64c.32,0,.63-.06,1-.1a1.76,1.76,0,0,0,.85-.37.61.61,0,0,1,1,.18,2.24,2.24,0,0,1,.34.83,7.53,7.53,0,0,1,.19,1.71c0,1.56,0,3.13-.19,4.69a2.89,2.89,0,0,1-.81,2,2.74,2.74,0,0,1-1.79.78,5.8,5.8,0,0,1-3.06-.64,2.52,2.52,0,0,0-.29-.12,7.58,7.58,0,0,1-1.36-1.17A.22.22,0,0,0,74,40a.31.31,0,0,0-.13-.2A.77.77,0,0,0,73.6,39.45Zm6,.4c-.36,0-.55.36-.89.3s-.66-.08-.87-.41a.33.33,0,0,1,.24-.06l1.53-.08c.28,0,.54-.08.62-.42-.06,0-.1-.07-.13-.07a11.65,11.65,0,0,1-2.83,0,.72.72,0,0,0,.09.8,2.58,2.58,0,0,0,.57.52,1.37,1.37,0,0,0,1.49,0C79.57,40.26,79.73,40.13,79.6,39.85Zm-.53-4.53c-.33.09-.34.28-.27.48s.2.63.32.94a.91.91,0,0,1-.06,1A.39.39,0,0,0,79,38c0,.16.12.25.29.18a1.08,1.08,0,0,0,.57-.95A7.74,7.74,0,0,0,79.07,35.32Zm-2.63-.4a.5.5,0,0,0,.47-.45.44.44,0,0,0-.44-.47.4.4,0,0,0-.43.41A.49.49,0,0,0,76.44,34.92Zm4.19-.6c0-.16,0-.33-.28-.34a.39.39,0,0,0-.41.39.4.4,0,0,0,.33.42C80.47,34.8,80.63,34.62,80.63,34.32Z"/><path class="cls-4" d="M73.6,43.69a1.53,1.53,0,0,0,.06-.82.45.45,0,0,0,0-.28.87.87,0,0,0,0-.36,2.89,2.89,0,0,0,0-.72v-.19a.31.31,0,0,0,0-.25,1.57,1.57,0,0,0,0-.57c.18,0,.23.15.36.2a.12.12,0,0,0,.1.1h0a.26.26,0,0,0,.15.16,1,1,0,0,0,.42.35s0,0,0,0a.87.87,0,0,0,.4.26,5.41,5.41,0,0,0,5,.53,8.27,8.27,0,0,1,.29,1.31,3.07,3.07,0,0,0,.19.78c-.55.66-1.24,1.18-1.81,1.83S77.56,47.31,77,48c-.24,0-.28-.25-.39-.38-.92-1.08-1.86-2.13-2.82-3.17-.12-.13-.23-.24-.21-.43Z"/><path class="cls-21" d="M73.6,43.69l0,.34c-.1,0-.2,0-.3,0s0-.23-.1-.33l0-.17C73.38,43.47,73.46,43.64,73.6,43.69Z"/><path class="cls-14" d="M91.22,87.29a.37.37,0,0,1,.45.22,5.64,5.64,0,0,1,.74,1.88c0,.19.09.41-.15.52a.61.61,0,0,1-.68-.22,1.34,1.34,0,0,1-.12-.24,10.27,10.27,0,0,1-.32-1.92A.31.31,0,0,1,91.22,87.29Z"/><path class="cls-14" d="M92.38,87.34a.34.34,0,0,1,.51.16,5.41,5.41,0,0,1,.55,1.66c0,.21,0,.44-.26.49s-.39-.12-.45-.34c-.12-.49-.23-1-.34-1.49A1.1,1.1,0,0,1,92.38,87.34Z"/><path class="cls-13" d="M83.64,52.13a.57.57,0,0,1,.59-.52,6.66,6.66,0,0,1,.9,0c.2.34.6.6.52,1.1A1.24,1.24,0,0,1,83.64,52.13Z"/><path class="cls-14" d="M83.64,52.13a1.24,1.24,0,0,0,2,.55.61.61,0,0,1-.62.67,1.71,1.71,0,0,1-1.1-.27c-.16-.11-.31-.24-.49-.39C83.55,52.52,83.37,52.26,83.64,52.13Z"/><path class="cls-6" d="M73.75,40.5a1.57,1.57,0,0,1,0,.57c-.24-.33-.06-.71-.19-1.06C73.79,40.12,73.58,40.38,73.75,40.5Z"/><path class="cls-6" d="M73.67,42.23a.87.87,0,0,1,0,.36c-.13,0-.17-.08-.16-.2S73.57,42.24,73.67,42.23Z"/><path class="cls-6" d="M74.82,41.34s0,0,0,0,.1-.18.23-.13S74.9,41.32,74.82,41.34Z"/><path class="cls-6" d="M74.35,41a.26.26,0,0,1-.15-.16c.1,0,.22-.07.26.07S74.41,41,74.35,41Z"/><path class="cls-6" d="M73.6,39.45a.77.77,0,0,1,.22.32C73.55,39.8,73.59,39.62,73.6,39.45Z"/><path class="cls-6" d="M73.7,41.32v.19c-.06,0-.16,0-.16-.1S73.64,41.34,73.7,41.32Z"/><path class="cls-6" d="M74,40a.22.22,0,0,1,.12.17C74,40.12,73.77,40.18,74,40Z"/><path class="cls-6" d="M74.21,40.8a.12.12,0,0,1-.1-.1C74.17,40.71,74.21,40.74,74.21,40.8Z"/><path class="cls-21" d="M79.6,39.85c.13.28,0,.41-.18.53a1.37,1.37,0,0,1-1.49,0,2.58,2.58,0,0,1-.57-.52.72.72,0,0,1-.09-.8,11.65,11.65,0,0,0,2.83,0s.07,0,.13.07c-.08.34-.34.4-.62.42l-1.53.08a.33.33,0,0,0-.24.06c.21.33.55.35.87.41S79.24,39.82,79.6,39.85Z"/><path class="cls-6" d="M79.07,35.32a7.74,7.74,0,0,1,.74,2,1.08,1.08,0,0,1-.57.95c-.17.07-.26,0-.29-.18a.39.39,0,0,1,.11-.29.91.91,0,0,0,.06-1c-.12-.31-.22-.63-.32-.94S78.74,35.41,79.07,35.32Z"/><path class="cls-6" d="M76.44,34.92a.49.49,0,0,1-.4-.51.4.4,0,0,1,.43-.41.44.44,0,0,1,.44.47A.5.5,0,0,1,76.44,34.92Z"/><path class="cls-21" d="M80.63,34.32c0,.3-.16.48-.36.47a.4.4,0,0,1-.33-.42.39.39,0,0,1,.41-.39C80.59,34,80.63,34.16,80.63,34.32Z"/><polygon class="cls-6" points="92.55 122.07 91.4 122.24 80.75 123.79 78.17 124.17 78.02 124.19 77.61 124.25 72.12 125.05 67.14 125.77 66.85 125.81 66.85 125.81 65.05 126.08 61.65 126.57 65.08 126.05 66.78 125.8 67.19 125.74 72.07 125 73.34 124.81 84.1 123.18 84.26 123.16 85.71 122.97 86.15 122.91 91.4 122.22 92.55 122.07"/><path class="cls-5" d="M53.38,13.44a2.08,2.08,0,0,1,1.07-.87c.41-.1-.17-.21,1.6.06s5.23.73,6.76.95,2.29.36,2.46.37,0-.28,0-.28l-.88-.32-5-.63-4-.42L54,12.21s-.77.85-.77.85Z"/><path class="cls-5" d="M66.7,18.91c.75.48.52.45,1.24.55s14.58,1.76,15,1.79a1.58,1.58,0,0,0,1.41-.75,3.39,3.39,0,0,0,.36-1.05l-.18-.18L83,19.53l-8.59-.7-6-.81-1.56-.34-1-.48s-.06,0-.05.07a3.27,3.27,0,0,0,.34.91Z"/><path class="cls-5" d="M54.46,129.64a3.55,3.55,0,0,0,1.46,0c.63-.09,37.46-5.78,37.76-5.85A4.09,4.09,0,0,0,96.6,121a9,9,0,0,0,.36-1.64l-.45.74-1.34,2-1.23,1-7.62,1.22-5.34.56-6.18,1-5.38.46-6.26,1.06L54,129.15Z"/><path class="cls-4" d="M73.7,32.78l1.76,5.86S77,41.2,77.34,41.26a12.61,12.61,0,0,0,1.57,0s2-1.48,2-1.57.52-3.49.52-3.49l-.12-1.51-.56-1.45Z"/><path class="cls-4" d="M104,37.91a8.18,8.18,0,0,1,.81,1c.39.48.35.48.52.62s-.12.47-.12.47l-.73,2.95-.87,1s-1.07-.27-1.06-.39a6.67,6.67,0,0,1-.1-.8,5,5,0,0,1,.23-.75l.09-.93,0-.81.3-1.56v-.95s.12-.47.24-.43A6.15,6.15,0,0,1,104,37.91Z"/></svg>