<svg id="Layer_1" data-name="Layer 1" xmlns="http://www.w3.org/2000/svg" viewBox="0 0 60 60"><defs><style>.cls-1{fill:#fff;}.cls-2{fill:#5f7ab3;}.cls-3{fill:#464c7b;}.cls-4{fill:#1a1a1a;}.cls-5{fill:#4a3333;}.cls-6{fill:#ff9e94;}.cls-7{fill:#dd7f5b;}.cls-8{fill:#cd6f51;}.cls-9{fill:#4e0c09;}.cls-10{fill:#fd5d5d;}.cls-11{fill:#161616;}.cls-12{fill:#424157;}.cls-13{fill:#252533;}.cls-14{fill:#ec9369;}.cls-15{fill:#d57540;}.cls-16{fill:#acbeda;}.cls-17{fill:#edf1f7;}.cls-18{fill:#e9946b;}.cls-19{fill:#a54b22;}.cls-20{fill:#8585d6;}.cls-21{fill:#5858a0;}.cls-22{fill:#a7c0d5;}.cls-23{fill:#333a74;}.cls-24{fill:#de8257;}.cls-25{fill:#5a475a;}.cls-26{fill:#b1afac;}.cls-27{fill:#ebf3f7;}.cls-28{fill:#8b8883;}.cls-29{fill:#2e2c3f;}.cls-30{fill:#f6af9a;}.cls-31{fill:#564756;}.cls-32{fill:#ffded9;}.cls-33{fill:#6b6bb2;}.cls-34{fill:#f2a68f;}.cls-35{fill:#e57e73;}.cls-36{fill:#ea9a88;}.cls-37{fill:#efa18f;}.cls-38{fill:#8c4949;}.cls-39{fill:#7a4040;}.cls-40{fill:#9ccff4;}.cls-41{fill:#b2d7ed;}.cls-42{fill:#acdcf9;}.cls-43{fill:#c3dff4;}</style></defs><title>Doctor &amp;amp; Nurse Home Visits-</title><path class="cls-1" d="M60.42,30a29.46,29.46,0,0,1-1,7.68q-.09.38-.21.75a.83.83,0,0,1-.06.21,28.36,28.36,0,0,1-1.6,4.14,29.24,29.24,0,0,1-4.33,6.63c-.21.26-.44.52-.68.77a29.76,29.76,0,0,1-39.94,3.52,0,0,0,0,1,0,0l-.29-.23h0a2.33,2.33,0,0,1-.32-.25h0l-.49-.4h0c-.39-.33-.76-.66-1.13-1l-.05-.06a26.86,26.86,0,0,1-3.1-3.39c-.17-.2-.33-.41-.48-.62a.18.18,0,0,1-.05-.07c-.23-.3-.45-.61-.66-.92s-.61-.92-.89-1.4a28.51,28.51,0,0,1-2.63-5.65,1.43,1.43,0,0,1-.09-.27,19,19,0,0,1-.58-2,29.75,29.75,0,0,1,4.8-25c0-.07.1-.14.15-.21l.15-.2a29.85,29.85,0,0,1,8.25-7.46l.26-.15a2.2,2.2,0,0,1,.26-.15A29.78,29.78,0,0,1,60.42,30Z"/><path class="cls-2" d="M6.87,40.57A.57.57,0,0,1,6.5,40c0-1.4-.6-3.92-.6-6.07,0-1.36.68-4.37.55-4.86a.51.51,0,0,1,.45-.64A28.5,28.5,0,0,1,12.23,28a79,79,0,0,1,9.56.28c.53.07.38.27.28.8a3.67,3.67,0,0,0,.09,1.78A31.18,31.18,0,0,1,23,39.21c0,.24.5.67.45.85C23.2,40.91,13.11,42,11,41.67a19.36,19.36,0,0,1-4.09-1.1Z"/><path class="cls-2" d="M54.73,27.64c0-.51-1.07.17-2.2.29s-5.86-1.11-11.17-.71c-.36,0-.67.05-.94.09.08-.42.07-.75-.93-.6a45.58,45.58,0,0,0-5.74-.65c-4.24-.17-11.88.73-12.84.73s-1.55-.59-1.3.68c0,.16.07.38.11.64-2.5-.15-5.57-.13-7.49-.1a28.5,28.5,0,0,0-5.33.44.51.51,0,0,0-.45.64c.13.49-.55,3.5-.55,4.86,0,2.15.65,4.67.6,6.07a.57.57,0,0,0,.37.55A19.36,19.36,0,0,0,11,41.67c2.15.28,12.24-.76,12.47-1.61,0-.1-.12-.28-.26-.46,4.3,1.2,14,3.57,16.9,1.39a4.22,4.22,0,0,0,1.82.06c3.45-.63,12.45-.85,13.07-3.17s-.23-9.73-.23-10.24Z"/><path class="cls-2" d="M59.9,37.94s0,3.11-1.13,4.07a13.72,13.72,0,0,1-1.23.81c-1.34.81-3.21,1.85-3.21,1.85l-.09.1-1.63,1.76-9.67.79-1.85,0-2.35,0-2.1,0-2.32,0-4.55-.08h-.84L24.73,47h-.68l-1.82,0H18.48l-1.22,0-2.55,0h-.38l-2.42,0h-.25L6,46.77c-.31-.45-.61-.92-.89-1.4a28.51,28.51,0,0,1-2.63-5.65,1.43,1.43,0,0,1-.09-.27,19,19,0,0,1-.58-2,10.31,10.31,0,0,1,2.74-.24,11.84,11.84,0,0,1,1.72.26l.2,0a35.37,35.37,0,0,1,5.78,1.85,3.35,3.35,0,0,1,1.11.8h0a1.43,1.43,0,0,1,.22.3h0l0-.06a1.22,1.22,0,0,1,.28-.42l0-.05.21-.19.19-.13a4.92,4.92,0,0,1,2.52-.76.21.21,0,0,1,.11,0l.18,0,.66,0H18c1.05,0,2.25,0,3.45,0h.09l1.45,0h.45l1.82,0,2.07,0h.31l.17,0,.25,0a3,3,0,0,1,1.81,1.1S30.36,39,33,39h.2l1.9,0h.2l.85,0h.19l.54,0,.64,0h.28l2.15.06H40l.82,0H41c1.41,0,2.61.07,3.22.07a2.34,2.34,0,0,1,2.11,1.06.28.28,0,0,1,0,.07l0-.06a3.25,3.25,0,0,1,.69-.69A4.59,4.59,0,0,1,48.2,39c.35-.16,1-.41,1.74-.7l.22-.08L50.7,38c1.18-.43,2.52-.89,3.5-1.18.38-.11.7-.19.95-.24l.23,0c.94-.13,3.06.76,4,1.2Z"/><path class="cls-3" d="M13.59,40.65a.08.08,0,0,1-.08,0,2.77,2.77,0,0,0-1.32-1.09A36.76,36.76,0,0,0,6.5,37.68a.09.09,0,0,1-.06-.1.08.08,0,0,1,.1-.06,36.63,36.63,0,0,1,5.73,1.84,3.24,3.24,0,0,1,1.31,1c.21-.39,1-1.4,3.57-1.54,2.28-.12,5.8-.06,8.13,0l2,0A3.23,3.23,0,0,1,29.87,40c.21-.31,1-1.11,3.29-1.06l4.69.12c2.63.08,5.35.16,6.39.16a2.43,2.43,0,0,1,2.16,1.06,4.73,4.73,0,0,1,1.77-1.33,59.31,59.31,0,0,1,6-2.14.09.09,0,0,1,.1.06.08.08,0,0,1-.06.1c-1.92.57-5,1.71-5.93,2.13a4.68,4.68,0,0,0-1.78,1.38.09.09,0,0,1-.12,0l0,0a2.21,2.21,0,0,0-2.07-1.08c-1,0-3.76-.08-6.39-.16l-4.7-.12C30.49,39,30,40.14,30,40.15a.08.08,0,0,1-.11,0s0,0,0,0A3.08,3.08,0,0,0,27.33,39l-2,0c-2.33,0-5.85-.09-8.12,0-3,.16-3.49,1.57-3.49,1.58a.08.08,0,0,1-.08.06Z"/><path class="cls-3" d="M59.36,38.5a.08.08,0,0,0-.11,0l0,0c-.81.33-11.15,4.54-12.74,4.61h-.18c-.51,0-2.21,0-4.54-.06h-.83l-3.59,0h-.1a4.34,4.34,0,0,1-.51,0H36l-2.65,0H21.65a.21.21,0,0,0-.11,0h0a.06.06,0,0,0-.06,0,.06.06,0,0,0-.06,0,.54.54,0,0,0-.18,0h-5a.17.17,0,0,0-.1,0,0,0,0,0,1,0,0h0a.33.33,0,0,0-.14,0l-1.83,0h-.63c-.16,0-.17,0-.18,0l-.23,0h-.28A25.53,25.53,0,0,1,10,42.71,15.22,15.22,0,0,1,5.2,41.29c-1.09-.65-2.07-1.3-2.83-1.84a1.43,1.43,0,0,0,.09.27c.73.51,1.65,1.11,2.65,1.71a15.41,15.41,0,0,0,5,1.46,24.92,24.92,0,0,0,2.69.27h.52l.12,0h0l.47,0h.41l1.4,0H30.51l2.81,0h4.06l3.56,0h.84c2.37,0,4.06,0,4.55.06h.19A45.28,45.28,0,0,0,53.26,41c2.65-1,5.19-2,5.88-2.32l.17-.07a.08.08,0,0,0,.06-.08A0,0,0,0,0,59.36,38.5Z"/><path class="cls-3" d="M48.56,46.18a4.18,4.18,0,0,1-.3-.3,16.63,16.63,0,0,1-1.55-2.25c-.05-.12-.13-.28-.19-.39l-.05-.1a.13.13,0,0,1,0-.06,20.91,20.91,0,0,1,0-2.6.34.34,0,0,0,0-.09v0a.06.06,0,0,0,0-.06h0l-.07.09a.48.48,0,0,1,0-.08l0,0a.32.32,0,0,1,0,.08v.06a20.08,20.08,0,0,0,0,2.58.81.81,0,0,0,0,.11.14.14,0,0,0,0,.06,2.93,2.93,0,0,0,.22.43A6,6,0,0,1,47,45a3,3,0,0,1-.26.87l-.07.17a.08.08,0,0,0,0,.11.09.09,0,0,0,.11,0,3.07,3.07,0,0,1,1.62.2l.06,0a.09.09,0,0,0,.08-.09A.09.09,0,0,0,48.56,46.18ZM30.55,43h0a.71.71,0,0,1-.45-.8c0-.17,0-.55-.05-.93,0-.07,0-.14,0-.21,0-.39,0-.76-.05-.87v0a.08.08,0,0,0-.05-.07l0,.07-.05-.06a.08.08,0,0,0,0,.07v0c0,.12,0,.58.07,1s0,.8,0,1v0c0,.13,0,.71-.31.77h0a.1.1,0,0,0-.08.07.09.09,0,0,0,0,.09s.3.21.3.88a5.81,5.81,0,0,1-.2,1.89q0,.1-.09.12a.1.1,0,0,0-.05.11.08.08,0,0,0,.11,0c.12,0,.58-.16.6-.18a.09.09,0,0,0,0-.1,0,0,0,0,0,0,0c-.16-.11-.2-.43-.2-.81s0-.57,0-.86v-.11a1.21,1.21,0,0,1,.5-1h0a.1.1,0,0,0,0-.07A.09.09,0,0,0,30.55,43ZM13.72,45.9l0,0c-.36-.17-.38-.7-.33-1.14a7,7,0,0,0,.08-1.61v-.07a.23.23,0,0,0,0-.1,2.72,2.72,0,0,0,.08-.44v0c0-.19,0-.41,0-.63a1.21,1.21,0,0,0,0-.19c0-.29,0-.57,0-.79v0a1.7,1.7,0,0,0,0-.21v-.09a.14.14,0,0,0,0-.06,0,0,0,0,1,0,0l0,.07v0h0a.23.23,0,0,0-.05-.07.08.08,0,0,0,0,.08v.28h0c0,.22,0,.47,0,.71v.14c0,.2,0,.39,0,.56h0a2.66,2.66,0,0,1-.11.74v0a.08.08,0,0,0,0,.05v.1c0,.43,0,2.13-.56,2.69,0,0,0,0,0,0s0,.06,0,.09a.09.09,0,0,0,.06,0,.07.07,0,0,0,.06,0c.15-.14.53-.06.82.09a.1.1,0,0,0,.12,0s0,0,0,0A.09.09,0,0,0,13.72,45.9Zm16.35-3.75c0-.17,0-.55-.05-.93,0-.07,0-.14,0-.21,0-.39,0-.76-.05-.87v0a.08.08,0,0,0-.05-.07l0,.07-.05-.06a.08.08,0,0,0,0,.07v0c0,.12,0,.58.07,1s0,.8,0,1v0c0,.13,0,.71-.31.77h.93A.71.71,0,0,1,30.07,42.15Zm20.11-7.1a2.11,2.11,0,0,0,0-.25h0v0c0-.45-.11-.89-.18-1.34l0-.15c-.12-.74-.28-1.48-.46-2.21,0-.05,0-.11,0-.16a.74.74,0,0,0,0-.14c-.07-.29-.15-.58-.22-.87s-.1-.38-.16-.56a.58.58,0,0,0-.3-.4,1.75,1.75,0,0,0-.32-.12l-.15-.05,0,0c-.53-.17-1.07-.33-1.62-.46-.36-.08-.71-.16-1.07-.21l-.09,0c-.31-.06-.62-.1-.93-.13l-.13,0a14.87,14.87,0,0,0-1.76-.12h-.46l-.63,0H41l-.37,0-.69.06a18.38,18.38,0,0,0-2.22.38c-.46.1-.91.23-1.36.37-.08,0-.21,0-.26.11a.81.81,0,0,0-.11.48,1,1,0,0,0,.07.34c-.47-.2-.95-.39-1.43-.57-.93-.34-1.87-.62-2.83-.89a12.75,12.75,0,0,1-2.08-.71,0,0,0,0,1,0,0s0,0,0,0a2.53,2.53,0,0,1-.37-.18L29,27.06l-.14-.1a1.1,1.1,0,0,1-.14-.09c-.18-.13-.34-.28-.52-.41a.56.56,0,0,0-.64-.07,4,4,0,0,0-.55.39l-.33.26a9.58,9.58,0,0,0-.76.67l-.27.26-.17.16c-.11.12-.22.23-.32.35l-.14.15-.24.28h0a1.43,1.43,0,0,0-.2.23l-.28.36s0,0,0,0l-.19.26s0,0,0,.05l0,0a.08.08,0,0,0,0,0,2,2,0,0,0-.18.25l-.1.15c-.12.17-.22.35-.33.52l-.24.42c-.29-.55-.59-1.1-.91-1.64l-.2-.34h0a.41.41,0,0,1-.07-.11c-.06-.09-.11-.19-.17-.27a.24.24,0,0,0-.08-.09s0,0,0-.05a.62.62,0,0,0-.59-.16.54.54,0,0,0-.22,0,.5.5,0,0,0-.13,0,3.28,3.28,0,0,0-.58.25L20,29l-.15.08a5.63,5.63,0,0,1-.95.4,1.22,1.22,0,0,1-.26.06h0a7.37,7.37,0,0,1-.79.16l-.33.05h0l-.8.13h0l-.41.07-1.34.22-1,.16-.07,0h0l-.4.06h-.14l-1.21.2-.58.09a.11.11,0,0,0-.08.11.15.15,0,0,0,0,.09,9.29,9.29,0,0,0,.16,2.68,18.65,18.65,0,0,0,.76,2.62c.09.23.49,1,.91,1.77l.25.48c.29.53.54,1,.67,1.29l0,.06,0,.07s0,0,0,0h0a.12.12,0,0,0,.13.07.12.12,0,0,0,.08-.14l0-.07a.42.42,0,0,0,0-.1.09.09,0,0,0,0-.06,15.69,15.69,0,0,0-.91-1.76c-.08-.14-.16-.28-.23-.43h0a11.39,11.39,0,0,1-1-2.39,13.62,13.62,0,0,1-.55-2.61,8.69,8.69,0,0,1,0-1.35,2.11,2.11,0,0,1,.56.42c.2.21.39.43.58.65l.35.42h0a.16.16,0,0,1,.06.08l.09.09h0c.19.25.37.51.54.77a11.49,11.49,0,0,1,1.46,3.11,9.93,9.93,0,0,1,.37,1.88.12.12,0,0,0,.11.11.12.12,0,0,0,.12-.11,10.67,10.67,0,0,0-.93-3.41,13.08,13.08,0,0,0-1.66-2.69l0-.05a.69.69,0,0,0-.11-.13h0L13,32.12c-.21-.25-.43-.5-.66-.74a2.08,2.08,0,0,0-.59-.47l1.52-.24h.09l.31,0,.66-.11h0l1-.16h0l.77-.12.49-.08.31,0,.16,0,.73-.12s0,0,0,0l.5-.09a3.54,3.54,0,0,0,.44-.11h.05a3.17,3.17,0,0,0,.41-.12h0l.1,0a4.85,4.85,0,0,0,.61-.29l.16-.08.14-.07,0,0a3.62,3.62,0,0,1,.83-.31h0a.41.41,0,0,1,.41.1,1.92,1.92,0,0,1,.23.35l0,.05c.08.13.16.26.23.39q.43.7.81,1.44c.51,1,1,1.93,1.39,2.92q.2.45.36.9c.1.25.2.51.29.77s.17.48.25.72a1.39,1.39,0,0,1,.14.48c0,.16-.13.25-.24.34l-.34.28-.11.09-.88.73,0,0h0l0,0-.36.3a.09.09,0,0,0,0,.07.14.14,0,0,0,0,.06h0a.11.11,0,0,0,.15,0h0v0l.07-.05,1.26-1,.44-.37a.61.61,0,0,0,.26-.4,1.29,1.29,0,0,0-.1-.51c-.12-.34-.23-.67-.36-1v0h0c-.17-.45-.34-.88-.53-1.32-.36-.88-.76-1.75-1.19-2.6h0c.23-.41.47-.82.73-1.2h0l.07-.11.18-.25h0l0-.07,0,0,.09-.11a.79.79,0,0,1,.12-.15.47.47,0,0,1,.06-.09l.11-.14L25,29l.18-.21c.1-.12.21-.23.32-.34l.07-.09.09-.09c.1-.1.2-.2.31-.29l.15-.15.46-.42.12-.1L27.1,27a5.17,5.17,0,0,1,.53-.39.36.36,0,0,1,.3,0,.88.88,0,0,1,.25.18,5.12,5.12,0,0,0,.52.4l.15.09.14.08a1.69,1.69,0,0,0,.29.17l.38.18a11.22,11.22,0,0,0,1.41.5c.88.27,1.78.49,2.65.79s1.9.7,2.82,1.1l1.4.61.33.16A7.75,7.75,0,0,0,36,32.67c-.35.4-.68.81-1,1.23-.09.12-.19.24-.27.36-.26.33-.52.66-.76,1A8.62,8.62,0,0,0,33,37a.12.12,0,0,0,.08.14.11.11,0,0,0,.14-.08A11.72,11.72,0,0,1,35,34.24l0-.05a15.2,15.2,0,0,1,2.07-2.32,6,6,0,0,1,1.4-.92l0,0a.61.61,0,0,1,0,.3c0,.1,0,.21,0,.31a8,8,0,0,1-.09.84c0,.33-.1.66-.17,1,0,.1,0,.2-.08.3l0,.09c0,.1,0,.19-.08.29l0,.07h0a10.83,10.83,0,0,1-1,2.25c-.15.25-.31.49-.47.72s-.38.5-.57.74L36,38l-.08.08-.36.38a4.57,4.57,0,0,1-.45.43.11.11,0,0,0,0,.07.14.14,0,0,0,0,.06h0a.09.09,0,0,0,.16,0l0,0,0-.06a7.49,7.49,0,0,0,.63-.63.18.18,0,0,0,.07-.08.19.19,0,0,0,.08-.1,6,6,0,0,0,.42-.48,3.55,3.55,0,0,0,.21.44h0a4,4,0,0,0,.7.9l.06.06.08.08a.11.11,0,0,0,.08,0,.12.12,0,0,0,.12-.1.14.14,0,0,0,0-.06s0,0,0,0a3.59,3.59,0,0,1-1-1.45.13.13,0,0,0-.06-.07c.1-.13.2-.27.29-.41a10.78,10.78,0,0,0,1.2-2.34,3.59,3.59,0,0,0,.12-.35c0-.11.08-.22.11-.33a3.18,3.18,0,0,0,.08-.33h0a1.42,1.42,0,0,0,0-.22,9.12,9.12,0,0,0,.22-1.16s0-.1,0-.15c0-.21,0-.42,0-.64a1.19,1.19,0,0,0,0-.65c-.11-.21-.38-.28-.58-.37l-.72-.32c-.38-.18-.76-.34-1.15-.51a.08.08,0,0,0,0-.08.76.76,0,0,1-.05-.7,19.32,19.32,0,0,1,4-.82h.08c.14,0,.27,0,.41,0h.16q.38,0,.75,0h1a15.75,15.75,0,0,1,1.82.13h.09l.14,0a3.23,3.23,0,0,1,.53.08.63.63,0,0,1,.19,0h.05a17.29,17.29,0,0,1,2.85.74l.16,0,.07,0a.64.64,0,0,1,.18.1.63.63,0,0,1,.1.2c0,.18.09.36.14.54s.17.64.25,1l0,.12h0c.18.72.34,1.44.47,2.18l0,.16c0,.19.06.36.08.55h0s0,0,0,0h0c.05.35.09.69.12,1s.07.91.08,1.37h0c0,.27,0,.53,0,.8l0,.47c0,.18,0,.35,0,.53h0a.09.09,0,0,0,0,0,.11.11,0,0,0,.1.07.12.12,0,0,0,.12-.12v0a.17.17,0,0,0,0-.07q0-.42.06-.84c0-.22,0-.43,0-.65C50.25,36.09,50.23,35.57,50.18,35.05Zm-20.11,7.1c0-.17,0-.55-.05-.93,0-.07,0-.14,0-.21,0-.39,0-.76-.05-.87v0a.08.08,0,0,0-.05-.07l0,.07-.05-.06a.08.08,0,0,0,0,.07v0c0,.12,0,.58.07,1s0,.8,0,1v0c0,.13,0,.71-.31.77h.93A.71.71,0,0,1,30.07,42.15Z"/><path class="cls-4" d="M48.14,47.58l-21.37-.47v0H25.24v0l-11.65.47A4.4,4.4,0,0,0,11,51.09a1.46,1.46,0,0,0,.9,0s.51-2.54,2.72-3H47.13c2.2.46,2.71,3,2.71,3a1.48,1.48,0,0,0,.91,0,4.41,4.41,0,0,0-2.61-3.51Z"/><path class="cls-5" d="M53.42,47.3a8.39,8.39,0,0,1-1.91.45,14.28,14.28,0,0,1-1.54.06H8a13.12,13.12,0,0,1-1.35-.05H6.51l.13-.06c-.23-.3-.45-.61-.66-.92s-.61-.92-.89-1.4a15.86,15.86,0,0,0,2.73.51H50.2s2.95-.27,4-1.11l.09-.07a.85.85,0,0,1,.79.67C55.29,46.05,54.84,46.79,53.42,47.3Z"/><path class="cls-5" d="M53.75,51.09a1.46,1.46,0,0,1-.9,0,4.37,4.37,0,0,0-.32-.92,3.5,3.5,0,0,0-2.4-2.08H7.88a3,3,0,0,0-.71.24c-.17-.2-.33-.41-.48-.62H6.51l.13-.06.22-.11,4.61-.1h.28l2.29,0h.45l4-.09h1l.9,0h1.71l1.79,0h.85l2.73-.06.74,0v0h1.53v0l4.56.1,2.3,0,2.12.05,2.35,0,10,.22a2.83,2.83,0,0,1,.36.17,4.43,4.43,0,0,1,1.7,1.7A4.29,4.29,0,0,1,53.75,51.09Z"/><path class="cls-6" d="M42.47,26.79s-.94,2.87-1.13,3.81-4.06,2.3-4.06,2.3a10.31,10.31,0,0,0,.94,1.45c.58.72,5.1-1.69,5.1-1.69l-.85-5.87Z"/><path class="cls-7" d="M37.93,33.72s-.36-.85-.65-.82-1.05.67-1.24.75-.39.58-.48.7.28.38.28.38a1.89,1.89,0,0,1,.91-.72,6.1,6.1,0,0,1,1.18-.29Z"/><path class="cls-2" d="M41.54,30.77a.08.08,0,0,0-.09-.05,4.75,4.75,0,0,0-.77.41c-.07.05,0,.17.07.12a4.36,4.36,0,0,1,.74-.39.09.09,0,0,0,0-.09Z"/><path class="cls-8" d="M37.32,33.4a.07.07,0,0,0-.09,0,2.12,2.12,0,0,1-.4.14.91.91,0,0,0-.39.17c-.08.07-.16.24-.06.34a.39.39,0,0,0,.38,0,1.88,1.88,0,0,1,.46-.14s.07,0,.07-.07,0-.08-.07-.07a1.49,1.49,0,0,0-.46.12.56.56,0,0,1-.21.06l-.07,0s0-.05,0-.07.23-.16.35-.19a2.51,2.51,0,0,0,.46-.16.08.08,0,0,0,0-.1Z"/><path class="cls-9" d="M43.41,26.76a2.69,2.69,0,0,1-1.31-1.7c-.12-1,.41-1.94.33-3,0-.45-.24-.94-.26-1.33s.18-.9.49-.95c.55-.09.7.11,1.08-.24a1.84,1.84,0,0,1,1.89-.3c.43.21.59.73.78.88s1.33.6,1.53,1.73-.17,1.39.08,1.95,1.36,1.09.66,2-3.76,2-5.27,1Z"/><path class="cls-10" d="M46.78,24.67a12.77,12.77,0,0,1,2.59,1c.56.42,2,4.91,2,6s-1.74,1.76-1.74,1.76.72,1.83,1,2.58a1.64,1.64,0,0,1,0,1.37l-8.67-2.75a9.23,9.23,0,0,1,.32-1.27c.57-1.68,0-1.92-.51-2.68a1.37,1.37,0,0,1,0-1.7,17,17,0,0,0,.88-2.7c.24-.65,1.13-1.06,1.62-1.3A11.89,11.89,0,0,1,46.78,24.67Z"/><path class="cls-11" d="M47.06,24.75a11.31,11.31,0,0,1-1.88,1.16c-.48.22-1.31.52-1.57.11-.15-.25.12-.66.28-.87l-.19.1h0c-.16.24-.31.57-.17.81a.62.62,0,0,0,.55.24A2.79,2.79,0,0,0,45.22,26a13.06,13.06,0,0,0,2-1.2Zm2.3.89-.07-.05a4.06,4.06,0,0,0-1.5,1.2s0,.05,0,.06h0l0,0a4,4,0,0,1,1.5-1.19ZM42.8,26a1.65,1.65,0,0,0,0,.3,3.76,3.76,0,0,0,0,.44s0,.05,0,.05a0,0,0,0,0,0-.05s0-.15,0-.36h0c0-.16,0-.34.09-.52A1,1,0,0,0,42.8,26Zm7.39,8.91,0-.07h0v0l-.06-.12c-.05-.14-.11-.27-.16-.41s-.08-.18-.11-.27h0s0,0,0,0h0l-.2-.5a9.7,9.7,0,0,1-2.52.87c.42.42,1.81.55,2.85.71l.23,0h.09C50.24,35,50.22,34.93,50.19,34.87Zm-.5-4.28-.28.18-.2.14-.31.19c-.17-.67-.31-1.34-.43-2l-.06-.26v0c0-.23-.08-.45-.12-.67a.07.07,0,0,0-.14,0c0,.21.07.41.11.61a2,2,0,0,0,.05.26c.09.51.2,1,.31,1.51l.15.63a14.62,14.62,0,0,1-1.4.77c-.23.12-.46.23-.7.33-.08,0,0,.16.07.13a19.26,19.26,0,0,0,2.37-1.27,1,1,0,0,0,.13-.09,1.2,1.2,0,0,0,.21-.13,3.28,3.28,0,0,0,.31-.2C49.83,30.66,49.76,30.54,49.69,30.59Z"/><path class="cls-12" d="M36.85,43.64s.35-.12.38-.34S37,41.11,37,40.56s-.75-6.21-.75-6.21-2.18-.55-2.94.69-.18,6.12-.13,6.66a12.45,12.45,0,0,1,.14,1.68,5.13,5.13,0,0,0,0,1Z"/><path class="cls-12" d="M38.36,44.86s-.37.17-.53-.34S35.26,36.87,35.65,35s4.52-1.46,7.76-.7,5.25,1.08,6.28,1.78a1.82,1.82,0,0,1,.92,1.27A2.24,2.24,0,0,1,49.5,40c-1.68.84-7.43-.22-8.6-.73L42,44l-3.62.83Z"/><path class="cls-13" d="M37.18,42.62a.1.1,0,0,1-.09-.06c-.84-2.76-1.8-6.3-1.54-7.55a.11.11,0,0,1,.12-.07h0a.09.09,0,0,1,.07.11c-.27,1.27.85,5.21,1.54,7.45a.11.11,0,0,1-.07.12Z"/><path class="cls-2" d="M41.18,39.67l-.69-2.19c0-.11-.22-.07-.18.05L41,39.72C41,39.84,41.22,39.79,41.18,39.67Z"/><path class="cls-13" d="M48.45,38.13a.11.11,0,0,1-.09-.05c-.71-1.59.25-2.11.26-2.12a.1.1,0,0,1,.13,0,.1.1,0,0,1,0,.12s-.81.46-.18,1.87a.08.08,0,0,1,0,.12Z"/><path class="cls-13" d="M49.58,37.09a0,0,0,0,0-.06,0,1.67,1.67,0,0,1-1,.88l-.17.07a3.77,3.77,0,0,1-1,.17c-1.42.06-4.41-1.09-5.85-1.65-.44-.17-.72-.28-.82-.3a.54.54,0,0,0-.46.05c-.11.09-.11.25-.1.42a.17.17,0,0,1,0,.1s-.13,0-.23,0a1.52,1.52,0,0,0-.21,0,.27.27,0,0,0-.08.45c.27.24.36.41.13.78-.09.15,0,.39.17.92l0,.06a.49.49,0,0,0,0,.11c.15.43.34,1,.55,1.82.14.54.28,1.18.42,1.94l0,.17,0,.15a.05.05,0,0,0,.05,0h0s0,0,0,0a.68.68,0,0,1,0-.14A.51.51,0,0,1,41,43c-.15-.75-.29-1.39-.43-1.93-.2-.8-.4-1.38-.55-1.82,0,0,0-.08,0-.12v0c-.16-.49-.26-.76-.19-.88a.59.59,0,0,0-.15-.9.18.18,0,0,1,0-.16.16.16,0,0,1,.1-.13.55.55,0,0,1,.19,0,.4.4,0,0,0,.29-.08.21.21,0,0,0,0-.16.46.46,0,0,1,.07-.35c.07-.06.2-.06.38,0a7.42,7.42,0,0,1,.81.29c1.44.56,4.44,1.72,5.88,1.66,1.86-.07,2.24-1.15,2.25-1.19A0,0,0,0,0,49.58,37.09Zm-13,4.78c0-.34-.06-.74-.1-1.1,0-.19,0-.35,0-.5h0c0-.33-.06-.55-.06-.56s0,0,0,0h0a0,0,0,0,0,0,0h0s.14,1.28.21,2.16c0,.2,0,.38,0,.52a0,0,0,0,0,0,0s0,0,0,0S36.59,42.07,36.57,41.87Z"/><path class="cls-2" d="M46.3,40.41a.3.3,0,0,0,0-.11h0a1.23,1.23,0,0,0-.87-.7l-.07,0a2.58,2.58,0,0,0-.43-.07c-1.23-.09-3.61-.11-3.79-.11h0l.51,1,1.83.4h0l2.8.6.06-.93v-.09ZM51,38l-.32.12-.31.11-.92.35L48.38,39a8.69,8.69,0,0,0-1,.48l-.21.15a2.52,2.52,0,0,0-.6.69l0,.06v.11l.05.83s4.26-1,4.33-1.1a1.47,1.47,0,0,0,.07-.37c.08-.61.19-1.77.2-1.9h0Z"/><path class="cls-14" d="M42.82,29.34a.91.91,0,0,1-.51-.83c-.06-.66.28-.73.37-1a1.13,1.13,0,0,1,.79-.74,2,2,0,0,1,1.69.42,1.48,1.48,0,0,1,.16,1.41,1.42,1.42,0,0,1-.34.47.37.37,0,0,1,.32.11,7.69,7.69,0,0,1,.61.69,4.12,4.12,0,0,0,.59-.68c.08-.2.33-.07.33-.07a.47.47,0,0,1,.31-.16c.16,0,.14.19.21.21a.35.35,0,0,1,.18.29c0,.14.13.11.13.25a.91.91,0,0,1-.46.54c-.19.07-1.1,1.29-1.31,1.4a2.27,2.27,0,0,1,.2.85,4,4,0,0,1-3.35.14.77.77,0,0,1-.5-.33,13.33,13.33,0,0,1-.18-1.74,2.51,2.51,0,0,1-1-.85,5.61,5.61,0,0,1-.38-1.23s-.24.08-.3,0,0-.19-.09-.22-.17-.22,0-.29l.32-.15c.1-.05-.26-.08-.18-.24s.7,0,.91,0,.23.28.35.53.27.7.32.82c.11.3.36.17.83.37Z"/><path class="cls-7" d="M44,29.24a1.85,1.85,0,0,1-1.16.09c-.09,0,0,.1.1.12a1.61,1.61,0,0,0,1.1-.07C44.1,29.35,44.07,29.21,44,29.24Z"/><path class="cls-6" d="M46.17,29.43a4.4,4.4,0,0,0-.35.39c-.1.11-.19.23-.28.35s.07.16.12.08.19-.25.29-.37a.71.71,0,0,1,.12-.13l.1-.1a.44.44,0,0,1,.09-.11.09.09,0,0,0,0-.1A.08.08,0,0,0,46.17,29.43Zm-.09,2.09h0s0,0,0,0A.78.78,0,0,1,45,31.44a.07.07,0,0,0-.1.11,1.05,1.05,0,0,0,.63.29.68.68,0,0,0,.4-.06.83.83,0,0,0,.23-.15C46.21,31.58,46.14,31.5,46.08,31.52Z"/><path class="cls-7" d="M41.13,28.11a.57.57,0,0,1-.24-.05.05.05,0,0,1,0,0s0-.08.11-.1h.23a.07.07,0,0,0,.07-.07.06.06,0,0,0,0-.06h0l-.2,0h0a.31.31,0,0,0-.2.09.16.16,0,0,0-.06.08.11.11,0,0,0,0,.08.09.09,0,0,0,0,.07.64.64,0,0,0,.18.1.62.62,0,0,0,.23,0,.08.08,0,0,0,.07-.07A.08.08,0,0,0,41.13,28.11ZM47.06,30,47,30h0a.1.1,0,0,1,0,0l0-.05a.14.14,0,0,0-.1-.07.18.18,0,0,1-.08,0,.12.12,0,0,1-.05-.1.36.36,0,0,0,.25,0c.08,0,.18-.09.18-.19a.33.33,0,0,0-.09-.23,1.45,1.45,0,0,0-.18-.17h0a.07.07,0,0,0-.1,0s0,0,0,0a0,0,0,0,0,0,.06,1.37,1.37,0,0,1,.18.16l0,.08a.43.43,0,0,0,0,.05h0a.2.2,0,0,1-.2,0,1,1,0,0,1-.2-.15c-.06-.07-.16,0-.1.1a.39.39,0,0,0,.1.08.26.26,0,0,0,0,.23.3.3,0,0,0,.2.14h0a.1.1,0,0,1,0,0,.23.23,0,0,0,.07.1s.07,0,.1.05.06.05.07.08a.07.07,0,1,0,.14,0A.44.44,0,0,0,47.06,30Z"/><path class="cls-7" d="M42.35,30.75h-.07l0,0h0s0,0,0,0v.06l0,0h.07l0,0h0l0,0v-.05Zm1.88.1h-.11v0a0,0,0,0,0,0,0v0l0,0v0h.1v0a0,0,0,0,0,0,0v0A.05.05,0,0,0,44.23,30.85Z"/><path class="cls-15" d="M45.18,27.25a0,0,0,0,1,0,0,.05.05,0,0,1,0,0l0,0a.05.05,0,0,1,0,0h0a.09.09,0,0,0,0-.09.08.08,0,0,0-.09-.05.32.32,0,0,0-.18.12c-.2-.37-.5-.39-.42-.18a2,2,0,0,0-.73-.38c-.15,0,0,.19,0,.19a2.12,2.12,0,0,0-.56-.06s0,0,0,0,.06.05.06.05a1.31,1.31,0,0,0-.3.14c0,.06,0,.08,0,.08h0a.23.23,0,0,0,.11,0c.16,0,.2.08.34.11a2.49,2.49,0,0,0,.47.05h.05c.27,0,.27.14.23.24s0,.23.11.25.06.15.07.29h0a.71.71,0,0,0,0,.21s0,0,0,.06,0,.09.13,0l.08-.07s.33-.23.44.07a.11.11,0,0,1,0,.08.63.63,0,0,1-.45.63c-.22,0-.1.14-.06.21a.1.1,0,0,0,.08,0,.25.25,0,0,0,.23-.07l0,0a.77.77,0,0,1,.1-.12h0l.11-.16,0-.1a1.93,1.93,0,0,0,.14-.36.73.73,0,0,0,.06-.21A.83.83,0,0,0,45.18,27.25Z"/><path class="cls-1" d="M40.82,33.32a11.63,11.63,0,0,1,1.32-.66,2.57,2.57,0,0,1,1.72-.1,2.21,2.21,0,0,0,.72.19,4.28,4.28,0,0,0,1.51-.22A3.86,3.86,0,0,1,46.42,34c0,.92-.65.83-.65.83s-2.57-.56-3-.67c-.22-.06-1.13.56-1.13.56l-.8-1.42Z"/><path class="cls-1" d="M43.86,32.56a6.18,6.18,0,0,0-2-.28,21.35,21.35,0,0,0-2.77,1.43c-.06,0-.73-.33-.94-.33s.07.54.32.76.58.82.84.88,1-.64,1.16-.7,2.06-.34,2.77-.58.64-1.18.64-1.18Z"/><path class="cls-14" d="M40.25,33.94a5.48,5.48,0,0,0-.35-.49l-.13-.15-.7.41c-.06,0-.73-.33-.94-.33s.07.54.32.76.57.82.84.88,1-.64,1.16-.7h0c-.07-.13-.15-.26-.23-.38Z"/><path class="cls-7" d="M40.25,33.94a5.48,5.48,0,0,0-.35-.49l-.13-.15-.46.27.09.22a6.37,6.37,0,0,1,.23.61c0,.13.1.27.14.4.28-.19.57-.44.68-.48h0c-.07-.13-.15-.26-.23-.38Z"/><path class="cls-16" d="M40.92,33.53s-.16-.17-.1-.21.21.16.21.16l-.11.05Z"/><path class="cls-14" d="M41.45,34.84a4.33,4.33,0,0,1-.92.31c-.24,0-.44-.29-.48-.64a4.21,4.21,0,0,0-.55-1c-.09-.2-.11-.42.09-.38s.2-.07.44-.05.37,0,.49.14a2.17,2.17,0,0,1,.3.41l.21-.11s.36.41.6.75S41.72,34.74,41.45,34.84Z"/><path class="cls-7" d="M41.15,34.24a4.76,4.76,0,0,0-.29-.65.07.07,0,0,0-.13.07,4.85,4.85,0,0,1,.29.61.06.06,0,0,0,.08,0S41.17,34.27,41.15,34.24Z"/><path class="cls-17" d="M41,33.29a.07.07,0,0,1-.07-.07.08.08,0,0,1,0-.07,12.39,12.39,0,0,1,1.51-.72,3,3,0,0,1,2,.26.08.08,0,0,1,0,.1.08.08,0,0,1-.1,0,2.89,2.89,0,0,0-2-.25,12.51,12.51,0,0,0-1.48.71Z"/><path class="cls-4" d="M47,33.62s.23.6.06.69-.53-.44-.6-.69S46.86,33.25,47,33.62Z"/><path class="cls-7" d="M46.62,32.41s-.53-.42-.64-.47a2.08,2.08,0,0,0-.61-.08c-.26,0-.35.09-.32.21s.25.12.39.14a1.27,1.27,0,0,1,.4.23s-.08,0-.23,0a5.78,5.78,0,0,0-.9.14.15.15,0,0,0-.11.13s0,0,0,0a.2.2,0,0,0,.07.15h0c.1.06,0,.14.08.25s.33.15.46.11a1.85,1.85,0,0,1,.64.09s.06.09-.08.09-.43,0-.39.17.18.16.32.15a2.9,2.9,0,0,1,.67.07h0a.39.39,0,0,0,.15,0,1.19,1.19,0,0,0,.44-.24A10.16,10.16,0,0,0,46.62,32.41Zm-.53-8.14a2.07,2.07,0,0,1-.4-1.68.56.56,0,0,0,.67-.53.52.52,0,0,0-.32-.54.43.43,0,0,0-.48.2c0,.06-.08.14-.12.09a1.22,1.22,0,0,0-.27-.53,1.4,1.4,0,0,0-.26-.16c-.13-.06-.48-.54-.6-.58a.84.84,0,0,0-.82-.18c-.35.11-.52.61-.56.71-.34,1-.61,2.33.12,3.06a1,1,0,0,0,.63.22,1.1,1.1,0,0,0,.5-.12l0,.68a.78.78,0,0,1,0,.09.41.41,0,0,1,0,.09c-.15.16-.38.41-.36.59.12.89,3-1,3-1A1.76,1.76,0,0,1,46.09,24.27Z"/><path class="cls-4" d="M45.15,23.57a3.08,3.08,0,0,1-.93,1.34l0-.68A3,3,0,0,0,45.15,23.57Z"/><path class="cls-4" d="M34,43.58h0c-.07,0-.65.38-.68.68,0,0,0,0,0,.07s.38.15.75.07a1.43,1.43,0,0,0,.83-.39l0,0C35.11,43.68,34.57,43.4,34,43.58Z"/><path class="cls-7" d="M30,50.51s-.16-.11,0-.36.42-.24.72-.21a1.42,1.42,0,0,0,.64,0c.37-.12.06.5-.3.59A3.6,3.6,0,0,1,30,50.51Z"/><path class="cls-18" d="M34.25,45.82s.11,1.87.13,2-.5.75-.68.87,0,1.39.46,1.57a17.47,17.47,0,0,0,2.86.16s.16-.12,0-.64-.44-1.66-.46-1.8c-.09-.66.44-2.31.5-4.56,0-1.26-3.07.12-3.07.12l.23,2.23Z"/><path class="cls-19" d="M37.12,50.44c0,.07,0,.53-.19.64a18.92,18.92,0,0,1-2.39.07,12.69,12.69,0,0,1-2.07.12A23.85,23.85,0,0,1,30,51.15c-.16,0-.39-.64-.23-.71s.23,0,.93,0c.21,0,.43-.41.48-.54s1.93-1,2.48-1.39,1.07,1.18,1.3,1.43a1.05,1.05,0,0,0,1,.41A10.1,10.1,0,0,1,37.12,50.44Z"/><path class="cls-4" d="M40.84,44.5l.19-.68s.82,0,.95.21-.9.41-1.14.47Z"/><path class="cls-7" d="M38.35,44.67s.48,3.06.51,3.32-.79,1.4-.79,1.4,2,1,2.41,1.11a5.69,5.69,0,0,0,1.17,0s.16.05.18-.31a7.38,7.38,0,0,0-.6-2,22.41,22.41,0,0,1-.2-4.4s-2.68.11-2.68.85Z"/><path class="cls-19" d="M36.19,50.2a6.31,6.31,0,0,0,1.46-.72c.46-.39.58-.91,1.1-.86a3.27,3.27,0,0,1,1.69.92c.44.44.38.86.57.89a5.22,5.22,0,0,0,.75,0c.09,0,0,.54,0,.61a9.27,9.27,0,0,1-1.25.08,3.22,3.22,0,0,1-1.86.33,14.88,14.88,0,0,1-2.37-.09c-.15,0-.48-1-.08-1.19Z"/><path class="cls-7" d="M36.21,50.86s-.33-.21-.29-.46.29-.26.66-.27a6.16,6.16,0,0,1,1.8-.09c.65.16.73.5.68.66s-.4.23-1.13.25a11.06,11.06,0,0,1-1.72-.09Z"/><path class="cls-14" d="M20.74,44.85a2.41,2.41,0,0,1-.88,1.06c-.48.29-.87.49-.67,1.55s1.89,4.88,2.85,4.65-.38-3.19.05-4.74a10.4,10.4,0,0,1,1.36-2.72l-2.71.2Z"/><path class="cls-1" d="M19.86,45.91a1.87,1.87,0,0,0,.63-.62c.76,1.62,1.37,2,1.61,2v0c-.37,1.49.49,3.94-.52,4.18s-1.81-2.94-2-4S19.38,46.2,19.86,45.91Z"/><path class="cls-4" d="M19.86,45.91,20,45.8a1.61,1.61,0,0,0,.11,1.13,1.24,1.24,0,0,0,1.55.53c.2-.05.28.15.32.33-.14,1.61.95,4.1,0,4.32s-2.66-3.58-2.85-4.65S19.38,46.2,19.86,45.91Z"/><path class="cls-20" d="M29.36,36c-.07.25-.33.87-.7,1.7l-.15.32h0c-.86,1.91-2.2,4.73-3.3,6.87a13.63,13.63,0,0,1-1.8,3c-1.28.38-2.75-3-2.75-3,.2-.5,1.85-4.06,3.16-6.89.91-2,1.67-3.56,1.67-3.56L25,26.54,25,25.34v-.21l4.19.07s0,.53.08,1.37c.14,2.67.41,8.45.12,9.38Z"/><path class="cls-21" d="M24.37,36.84c.74,1.73,1.51,3.44,2.28,5.16-1.41,2.92-2.9,5.81-3.24,5.9-1.27.38-2.74-3-2.74-3C20.9,44.3,23,39.74,24.37,36.84Z"/><path class="cls-4" d="M23,34.72s-2.54-.34-2.4-1.09,2.74-.5,3.24.13S23,34.72,23,34.72Z"/><path class="cls-20" d="M21.59,25.41c0,.36,0,.73,0,1.11A82.39,82.39,0,0,0,22.86,38c.44,2.61.94,5,1.38,6.9.56,2.41,1.08,4.95,1.21,5.15.37.62,3.86-1.11,3.86-1.11A110.1,110.1,0,0,1,27.54,38c0-.24-.05-.48-.07-.73-.38-4.11-.69-8.56-.83-10.7l-.08-1.29L24,25.34l-2.42.07Z"/><path class="cls-22" d="M27.88,39.37l-.15.33c-.16-1.18-.65-4.6-.83-5.87-.32-2.26-.65-4.6-.74-5.89a.08.08,0,0,1,.08-.1.1.1,0,0,1,.11.09c.09,1.28.42,3.61.74,5.87.16,1.17.62,4.42.79,5.57Z"/><path class="cls-23" d="M23.91,27a.09.09,0,0,0-.12,0,3,3,0,0,1-.14.28.09.09,0,0,1,0,.05s0,0,0,0a2.66,2.66,0,0,1-.35.49h0a1.06,1.06,0,0,1-.15.15l-.06,0a0,0,0,0,1,0,0l-.12.1a.91.91,0,0,1-.16.11.08.08,0,0,0,0,.08.09.09,0,0,0,.1.09h0l.14-.1a.05.05,0,0,0,0,0,1.1,1.1,0,0,0,.18-.14l0,0h0a3,3,0,0,0,.56-.73l0-.06,0-.06a.9.9,0,0,0,.1-.22A.09.09,0,0,0,23.91,27Zm3.16,1.24a.07.07,0,0,0-.1,0l0,.07h0l-.14.17-.33.42-.11.14a.08.08,0,0,0,0,0,.07.07,0,0,0,.07.07l.06,0,0,0,.33-.41h0l.25-.32v0l0,0A.06.06,0,0,0,27.07,28.27Z"/><path class="cls-1" d="M25.55,17.06S23,20.61,22.23,22s-1.62,11.63-1.62,11.63a4,4,0,0,1,2.46.1,34.72,34.72,0,0,0,5.11,1.12c.06-.1.47-2.49.47-2.49a26.17,26.17,0,0,0,.44,2.6c.1.06.48-.11.48-.11.06-3.3.17-5.67.05-10.62,0-.79-4.07-7.16-4.07-7.16Z"/><path class="cls-1" d="M33,18.1s-.79,3.44-.86,3.61A34.62,34.62,0,0,0,36,23.5c.23.1-1.54,1.81-1.81,2.17s-3.8-1.64-4.65-2.26S33,18.1,33,18.1Z"/><path class="cls-4" d="M35,24.1s-1,1.26-.89,1.56h0c.36.06.87-.5,1.29-1.06h0c.29-.66-.43-.51-.43-.51Z"/><path class="cls-18" d="M35.86,23.46s1.63.57,1.79.68a1.15,1.15,0,0,1,.53.5c.18.33.67.7.37.81s-.65-.36-.65-.36a.58.58,0,0,0-.28-.05,3.35,3.35,0,0,0-.16.89c.27-.06.48.05.43.14a2.64,2.64,0,0,1-.39.31l0,0,.26.2h0c.19.14.34.37.28.46s-.34-.09-.34-.09c.14.37,0,.5,0,.49a11.3,11.3,0,0,1-.89-1.21.66.66,0,0,1-.28-.29,4.25,4.25,0,0,0-.27-.83,7.88,7.88,0,0,0-1.57-.46c.82-1.37,1.26-1.21,1.26-1.21Z"/><path class="cls-24" d="M36.92,24.06c-.07-.06-.18.05-.11.12a.63.63,0,0,1,.26.57,4,4,0,0,1-.21.67.08.08,0,0,0,.15.06,2.31,2.31,0,0,0,.24-.88A.8.8,0,0,0,36.92,24.06Zm1,1.91a.47.47,0,0,0-.42-.06l-.16,0a.55.55,0,0,1-.22,0c-.07,0-.07-.05-.1-.1a.37.37,0,0,0-.16-.21s-.1,0,0,.07a.43.43,0,0,1,.11.12s0,.08,0,.13,0,0,.09.07a.72.72,0,0,0,.25,0,1.89,1.89,0,0,0,.23-.05c.07,0,.26,0,.31,0s0,.1-.09.13l-.11.07c-.1.07-.17.14-.3.12l-.33,0h0a0,0,0,0,0,0,.07,3.27,3.27,0,0,0,.42.06l.09,0h0l0,0,.11-.08.16-.1.12-.09A.11.11,0,0,0,37.88,26Zm-.19,1h0s0,0,0,0l-.5-.26c-.05,0-.08.06,0,.08s.33.17.5.25h0s0,0,0,0Z"/><path class="cls-25" d="M36.16,14.85a.1.1,0,0,0,0,.07,2.4,2.4,0,0,0,.57.18,1,1,0,0,0,1-.33.07.07,0,0,0,0-.1.08.08,0,0,0-.1,0c-.47.57-1.38.11-1.39.1a.08.08,0,0,0-.1,0,0,0,0,0,0,0,0Z"/><path class="cls-25" d="M36.19,14.9c.24,0,.41.16.68.11a1.14,1.14,0,0,0,.81-.74,4,4,0,0,0,.11-.58,1.39,1.39,0,0,0-.06-.73,1.8,1.8,0,0,0-.5-.74,1,1,0,0,0-.4-.27,1.22,1.22,0,0,0-.6,0,2.85,2.85,0,0,0-.21-.31.94.94,0,0,0-.33-.2,1,1,0,0,0-.79,0c-.25.15-.32,0-.56-.12a.47.47,0,0,0-.4.07,1.87,1.87,0,0,0-.84.85.52.52,0,0,1-.06.13.41.41,0,0,1-.1.13,1.48,1.48,0,0,0-.4,1,.67.67,0,0,0,.27.44,4.42,4.42,0,0,0,1,.66l.45.2a.48.48,0,0,0,.18.08l.49,0,1.09,0Z"/><path class="cls-18" d="M31.51,13.57s-.27,2.71-.21,2.77a6,6,0,0,0,1.12-.68l0,0,0,0,0,0h0c.22-.14.44-.25.56-.33s.07-.2.07-.2l.17-2.16-.36.24a4.26,4.26,0,0,1-1.08.42,1.12,1.12,0,0,1-.37,0Z"/><path class="cls-18" d="M33.7,12.15a.84.84,0,0,0-.79,1c0,.08.1,0,.1,0a1.76,1.76,0,0,0-.7,1.43,2,2,0,0,0,.26.87l.09.15a1.89,1.89,0,0,0,1,.83h0c.74,0,2.7-1.72,2.7-1.72a1.09,1.09,0,0,0-.06-.64,2.49,2.49,0,0,0-.33-.58,1.75,1.75,0,0,1-1-.35,1.63,1.63,0,0,0-.2-.17c-.12-.07-.21,0-.35,0a.82.82,0,0,0-.31.11.26.26,0,0,1-.16.07c-.08,0-.18-.13-.17-.18s0,0,0,0c.37-.66.06-.88-.16-.84Z"/><path class="cls-4" d="M33,13.57a1.52,1.52,0,0,0-.73.8c-.25.52.41,1.45.68,1.65a3.07,3.07,0,0,1-.41-1.18A2.42,2.42,0,0,1,33,13.57Z"/><path class="cls-26" d="M33.25,12.77s0,.22.19.19.27-.13.25-.23a.45.45,0,0,0-.24-.23A.2.2,0,0,0,33.25,12.77Z"/><path class="cls-1" d="M30.58,13.23h.63c.25,0,.29.29.3.34s-.27,2.71-.21,2.77a8,8,0,0,0,1.22-.75,1.36,1.36,0,0,1,.15.32c0,.15,0,.39,0,.46s.13,1,.28,1.61-2.72,5.86-3,6.13S27,22.38,26.93,20.37s2-8,2-8l1.61.83Z"/><path class="cls-27" d="M30.63,16a.47.47,0,0,1-.1-.09c0-.43,0-1.06.07-1.6s0-1,0-1,0,0-.05,0a0,0,0,0,0-.05,0s-.07,1.7-.11,2.56c0,.06.06.1.14.17s.14.11.15.15l-.12.06c-.1,0-.2.07-.21.15-.1,1.4-.35,4.07-.41,4.55v0a0,0,0,0,0,0,0,.08.08,0,0,0,0,0,.05.05,0,0,0,.05,0h0s0,0,0-.07,0-.21.06-.49a.17.17,0,0,1,0-.07h0c0-.39.07-.79.11-1.18.1-1.08.2-2.2.25-2.86,0,0,.1-.06.14-.08s.18-.07.18-.13S30.72,16.09,30.63,16Zm2,.39-.5.57-.14.17-.05.06h0l-.52.59-.2.21-.18.21-.26.28-.12.13a.14.14,0,0,0,0,.06.07.07,0,0,0,0,0l0,0h0s.16-.16.31-.33a1.8,1.8,0,0,0,.18-.2l.08-.09.45-.52c.13-.15.26-.29.37-.43h0l0,0h0l.07-.08,0,0h0l.41-.48s0-.05,0-.06A0,0,0,0,0,32.6,16.4Z"/><path class="cls-27" d="M31.2,16.53h0s0,0-.05,0l-.08.33s0,0,0,.06c-.1.38-.26,1-.43,1.69a.14.14,0,0,0,0,.06c-.17.64-.34,1.3-.47,1.81h0c-.06.19-.1.36-.15.49v0a0,0,0,0,0,.05,0h0s0,0,0,0c.14-.51.39-1.45.61-2.34h0a1.94,1.94,0,0,0,0-.2c.1-.36.18-.71.26-1s.12-.48.17-.64c0,0,0,0,0,0l0-.23s0,0,0,0v0S31.22,16.54,31.2,16.53Zm-1.54,9.59c0-.24,0-.46,0-.63v-.08a0,0,0,0,0,0,0h0l-.05,0c-.61-.68-3.35-3.5-3.52-3.61a2.39,2.39,0,0,0-.38-.13.53.53,0,0,1-.31-.4,10.21,10.21,0,0,1-.07-1.48h0c0-.69,0-1.36,0-1.36s0,.28-.06.4c-.56,3.52-.16,2.77.23,3.25a6.6,6.6,0,0,1,.87,1.66,8.52,8.52,0,0,0,1.17,1.5c.3.34.63.69.94,1,.13.13.26.27.39.39a.67.67,0,0,0,.14.15l.25.26.38.4,0,0h0v0C29.68,27.15,29.67,26.61,29.66,26.12Z"/><path class="cls-1" d="M31.61,23.71s-.17.25-.73.94a2.43,2.43,0,0,1-1.3.82,39,39,0,0,1-3.92-3.91c-.27-.48,0-.74-.2-1.12a11,11,0,0,1,.19-5c.57-1.5,1.53-3.42,3-3.15.83.16,1.28,1.05,1,2.39s-.58,3.76-.73,4.27,0,.71.07.73,0,.24-.08.33.35.36.35.36l2.36,3.37Z"/><path class="cls-27" d="M31.14,23.11a.09.09,0,0,1-.06,0L29.2,20.4c-.11-.08-.36-.24-.38-.37a.14.14,0,0,1,0-.09.38.38,0,0,0,.1-.22.22.22,0,0,1-.13-.11c-.06-.1-.1-.3,0-.71s.23-1.21.38-2.18c.05-.29.09-.57.14-.86a.08.08,0,0,1,.08-.06s.07,0,.06.08h0c-.05.29-.09.58-.14.86-.15,1-.29,1.9-.38,2.2s-.07.55,0,.6l0,0a.14.14,0,0,1,.1.08A.52.52,0,0,1,29,20a.94.94,0,0,0,.32.26l0,0L31.2,23a.08.08,0,0,1,0,.1Z"/><path class="cls-4" d="M30.44,25.07,30,24.88l-.06,0a2.7,2.7,0,0,0-.32.41h0a.35.35,0,0,0-.05.08s0,.09,0,.12,0,0,.06,0h0a3.23,3.23,0,0,0,.79-.39h0l0,0Zm5,.68c-.08-.11-.3,0-.49.15h0l-.22.19a2.29,2.29,0,0,0-.17.19l0,0c-.08.09-.24.32-.15.45s.56-.22.8-.43a1,1,0,0,0,.17-.21C35.41,26,35.46,25.83,35.4,25.75Z"/><path class="cls-28" d="M34.63,25.67a2.87,2.87,0,0,0,.31.24c.08,0,.17-.06.22,0s-.4.59-.54.65-.17,0-.12-.1-.09-.25-.26-.41.18-.54.39-.38Z"/><path class="cls-18" d="M31.63,23.74l.58.55s1.57-.24,1.67-.26a3.75,3.75,0,0,1,1,.57c.18.14.08.72.14.89s-.09.53-.34.2c0-.06-.13.21-.26.25s-.25.24-.33.24-.18-.17-.19-.2,0,.23-.16.25-.31-.15-.4-.35-.76.05-1.11,0a18.15,18.15,0,0,1-2.23-1S31.2,23.32,31.63,23.74Z"/><path class="cls-24" d="M34.73,25.66c0-.17,0-.34,0-.51a.48.48,0,0,0,0-.23.46.46,0,0,0-.16-.15.07.07,0,0,0-.07.13.2.2,0,0,1,.11.11.46.46,0,0,1,0,.2c0,.16,0,.31,0,.46s.15.08.14,0Z"/><path class="cls-28" d="M31.23,16.62a.05.05,0,0,1,0-.05s.11-.81.26-1.61.66-2.35,1.15-2.59a.72.72,0,0,1,.84.22,0,0,0,0,1,0,.07.06.06,0,0,1-.07,0,.61.61,0,0,0-.73-.19c-.44.21-.94,1.73-1.09,2.52s-.27,1.59-.27,1.6a0,0,0,0,1-.05,0Z"/><path class="cls-24" d="M34,15.78s0,0-.05,0a.18.18,0,0,1,0-.07l0,0h0l0-.1a.06.06,0,0,0-.09,0,.06.06,0,0,0,0,.08.6.6,0,0,0,.2.34.07.07,0,1,0,.09-.11Z"/><path class="cls-28" d="M33.51,16.44c-.7.33-1.41.59-1.42.6a0,0,0,0,0,0,.06,0,0,0,0,0,0,0h0c.05,0,.81-.3,1.54-.66l-.15,0Z"/><path class="cls-28" d="M31.45,17.27a.31.31,0,0,1-.13-.06c-.25-.2-.12-.72-.11-.74s0,0,0,0,0,0,0,0-.13.51.1.69.76-.1.76-.11,0,0,0,0,0,0,0,0a1.16,1.16,0,0,1-.69.17Z"/><path class="cls-4" d="M32.59,23.5c-.07-.19-.15-.41-.24-.62A9.76,9.76,0,0,1,32,21.81c0-.14-.06-.27-.09-.36a5.26,5.26,0,0,1-.13-.57h0c0-.2-.09-.42-.14-.64s-.07-.35-.1-.51-.08-.38-.12-.54a1.74,1.74,0,0,1,.15-1.4,1.69,1.69,0,0,1,.66-.67.07.07,0,0,0,0-.05.11.11,0,0,0,0-.08l0,0s0,0,0,0h0a.11.11,0,0,0-.08,0l-.07,0c-.06.05-.15.11-.26.21l-.06.06s0,0,0,0a1.76,1.76,0,0,0-.34.44.54.54,0,0,0-.05.11,1.39,1.39,0,0,0-.12.28,1.51,1.51,0,0,0-.07.37,2.72,2.72,0,0,1,0-.28V18a7.64,7.64,0,0,1,.05-.91h0a.28.28,0,0,1,0-.09h0a6.44,6.44,0,0,1,.11-.66h0a.1.1,0,0,0,0-.05s0-.08,0-.09h0l0,0h-.06a.06.06,0,0,0-.06.05,3.4,3.4,0,0,0-.13.67s0,0,0,.06,0,.35-.05.56,0,.3,0,.47a2.18,2.18,0,0,0,0,.25.38.38,0,0,0,0,.15,2.35,2.35,0,0,0,0,.26A9.85,9.85,0,0,0,31.27,20l0,.1a5.17,5.17,0,0,1,.21,1.06,1.57,1.57,0,0,0,0,.27h0a13.72,13.72,0,0,0,1,2.86l.33-.05A7.08,7.08,0,0,1,32.59,23.5ZM27.12,49.82l-.1-.46-.13,0-.18,0c-.46.12-1.27.36-1.27.56a.06.06,0,0,0,0,0h0c.17.17.65.12,1.2,0a4.27,4.27,0,0,0,.48-.13Z"/><path class="cls-1" d="M28.46,51.81c-1.16-.05-1.75.44-1.85-.21v0a4.92,4.92,0,0,1,0-1.25,6.82,6.82,0,0,0,.08-.87h0a11.17,11.17,0,0,1,2.6-.55,2,2,0,0,0,.14.34,4.72,4.72,0,0,0,2.08,1.71l.08,0,.08,0c.84.32,1.14.33,1.09.68s-3.16.18-4.32.13Z"/><path class="cls-4" d="M26.47,51.56a.06.06,0,0,0,0,0c.1.65.74.51,1.9.56s4.93,0,5.05-.36c.23-.67-.87-.64-1.71-1l-.08,0-.08,0c-1.34-.56-1.49-1.15-2-1.41-.19-.12-.33,0-.48.16a2,2,0,0,1-1.31,1,2.81,2.81,0,0,1-1.11-.18,6.79,6.79,0,0,0-.16,1.25Z"/><path class="cls-29" d="M19.86,45.91,20,45.8a1.61,1.61,0,0,0,.11,1.13,1.24,1.24,0,0,0,1.55.53c.2-.05.28.15.32.33-.14,1.61.95,4.1,0,4.32s-2.66-3.58-2.85-4.65S19.38,46.2,19.86,45.91Z"/><path class="cls-4" d="M21.64,51.74a6.82,6.82,0,0,1-1-1.49c-.15-.26-.28-.54-.42-.8s-.24-.49-.35-.73a5.44,5.44,0,0,1-.57-2.37,1.37,1.37,0,0,0-.11,1.11c.19,1.06,1.88,4.84,2.84,4.66a3.5,3.5,0,0,1-.39-.38Z"/><path class="cls-29" d="M26.47,51.56a.06.06,0,0,0,0,0c.1.65.74.51,1.9.56s4.93,0,5.05-.36c.23-.67-.87-.64-1.71-1l-.08,0-.08,0c-1.34-.56-1.49-1.15-2-1.41-.19-.12-.33,0-.48.16a2,2,0,0,1-1.31,1,2.81,2.81,0,0,1-1.11-.18,6.79,6.79,0,0,0-.16,1.25Z"/><path class="cls-4" d="M33.26,51.7l-.45,0-.48.05c-.59,0-1.18.07-1.77.08h-1.5a12.87,12.87,0,0,1-1.52,0,5.73,5.73,0,0,1-.7-.13l-.37-.11v0c.1.65.74.51,1.9.56s4.93,0,5.05-.36l0-.11Z"/><path class="cls-27" d="M29,25.13a.08.08,0,0,0-.15,0q0,3.5-.26,7c0,.1.13.09.14,0Q29,28.63,29,25.13Z"/><path class="cls-30" d="M21.6,42A1.3,1.3,0,0,0,19,41.78a15.58,15.58,0,0,0-.41,2.73c-.15,2,.45,4.78.41,6.81a.65.65,0,0,0,1.29,0s1-7,1.24-8.92A1.29,1.29,0,0,0,21.6,42Z"/><path class="cls-20" d="M20.2,40.44a1.13,1.13,0,0,0-1.44,1,58,58,0,0,0-.22,8.78,3.75,3.75,0,0,0,2.44.09s.63-7.26.74-8.19A1.49,1.49,0,0,0,20.2,40.44Z"/><path class="cls-30" d="M21.6,42c0-.33-.06-2.35-.27-4.76-.19-2.21-.47-4.66-.56-5.41a2.11,2.11,0,0,0-4.21.06V32h0A50.21,50.21,0,0,0,19,42a1.31,1.31,0,1,0,2.61,0Z"/><path class="cls-20" d="M18.07,29.57s-1.87.12-1.68,2.78a49.82,49.82,0,0,0,2,8.48c.34,1.06.82,2.81,2.08,2.68A1.59,1.59,0,0,0,21.74,42c0-.89-.62-8.79-.93-10.57A2.25,2.25,0,0,0,18.07,29.57Z"/><path class="cls-21" d="M17.94,32.48a10.31,10.31,0,0,1-.54-1.36l-1,1.61a35.16,35.16,0,0,0,1,4.85c.25-1.59.59-4.08.66-4.32.11-.43,1.09-1.26,1.37-2C19.48,31.3,18.29,32.77,17.94,32.48Z"/><path class="cls-30" d="M22.79,52.62a17.76,17.76,0,0,1-1.67-.8,4.31,4.31,0,0,1-.82-.5.65.65,0,0,0-1.29,0,1.27,1.27,0,0,1-.23.47,1.2,1.2,0,0,0-.18,1c.13.31.61.34,1.08.31a7.65,7.65,0,0,1,1.71.19,6,6,0,0,0,1.81,0C23.3,53.22,23.27,52.82,22.79,52.62Z"/><path class="cls-31" d="M18.44,53a.77.77,0,0,0,0,.32,2.88,2.88,0,0,0,1.27.17,3.55,3.55,0,0,1,.8,0,15.58,15.58,0,0,0,1.56.27,6.12,6.12,0,0,0,1.36-.12c.13-.07.2-.22.13-.28S18.44,53,18.44,53Z"/><path class="cls-32" d="M18.92,51.57s-.06,0-.14.1-.36.37-.34,1.32c0,.14.43.22,1.07.26a12.51,12.51,0,0,1,1.57.14,4.36,4.36,0,0,0,2.45,0c.12-.07.14-.42,0-.61A17.27,17.27,0,0,0,21.69,52a6.17,6.17,0,0,0-1-.48c-.1,0-.13.5-.22.63s-1,0-1.18-.1S19.1,51.66,18.92,51.57Z"/><path class="cls-30" d="M19.57,28.2a5.44,5.44,0,0,1-.17-.86s-.33-1-2.51-1c-1.93,0-2.07.56-2.07.56-.17.62-.65,1.49-.88,2.07a6.15,6.15,0,0,0-.68,2.88c.08,1,2.86,1.51,4.14,1.12a6.43,6.43,0,0,0,3.08-2.18S19.89,29.33,19.57,28.2Z"/><path class="cls-20" d="M14.7,27.26s3.51.63,4.78.24c0,0,.66,1.93.84,2.35s.39,1.14.39,1.14a25.44,25.44,0,0,1-2.08,1.85c-.63.43-3.11,1.16-4.46.33a2.36,2.36,0,0,1-.92-2.35,6.27,6.27,0,0,1,.36-1.69C13.9,28.51,14.29,28,14.7,27.26Z"/><path class="cls-21" d="M19.14,31.69a1.14,1.14,0,0,0-.11.11,4,4,0,0,1-.71.62l-.18.09a.22.22,0,0,1-.2,0,6.29,6.29,0,0,1-.42-1s0,0,0-.06l-.1-.3,0,.07-.75,1.23h0l-.18.29h0c0,.05,0,.09,0,.14l0,.22h0a1,1,0,0,1,0,.17.06.06,0,0,1,0,0s0,0,0,0,0,.07,0,.1,0,0,0,.05h0l.09,0h0l.13,0,.08,0,.45-.09.07,0,.21-.06.27-.09.35-.13c.07-.11.17-.24.28-.38l.3-.35h0a3.7,3.7,0,0,0,.68-1Zm-.35-1.94a0,0,0,0,0,0,0l-.15-.19h0c-.19-.24-.41-.51-.66-.77a5.42,5.42,0,0,0-.71-.65L17.14,28h0a2.48,2.48,0,0,0-.88-.43H16.2a4.44,4.44,0,0,0-1.26-.09l-.3,0h-.1l-.15.23a1.76,1.76,0,0,1-.14.23c-.12.19-.24.38-.34.57s-.21.38-.3.57l-.09.24-.08.26c0,.18-.08.37-.11.53s0,.19-.05.27,0,.18,0,.24a.77.77,0,0,0,0,.15,2.85,2.85,0,0,0,0,.76.39.39,0,0,0,0,.14v.09l0,.13a2.77,2.77,0,0,1,.19-.5.64.64,0,0,1,.11-.16.38.38,0,0,1,.11-.11c.56-.33,1.35-.19,2.62-.21h.44l.48,0h.12c.5-.06,1-.13,1.37-.2l.63-.11S19.14,30.22,18.79,29.75Z"/><path class="cls-30" d="M17.47,31.84a2.11,2.11,0,0,0-4.21,0,37.32,37.32,0,0,0,.1,5.56c.29,3.37.35,4.6.35,4.6a1.31,1.31,0,0,0,2.59.24A24.33,24.33,0,0,0,17,37.89c.28-2.71.43-5,.48-5.79A2.26,2.26,0,0,0,17.47,31.84Z"/><path class="cls-20" d="M15.49,29.43s-1.88-.19-2.24,1.39-.14,5.54,0,7.51c0,0,.2,3.83.36,4.32A1.47,1.47,0,0,0,15,43.5c.61-.08,1.1-.25,1.45-1.41s.81-6,.91-7.12S18.43,29.71,15.49,29.43Z"/><path class="cls-33" d="M15.49,29.43s-1.88-.19-2.24,1.39a12.11,12.11,0,0,0-.2,2.29c.12-.79.33-1.74.65-1.94.57-.33,1.36-.19,2.62-.21a9.74,9.74,0,0,0,1.05-.07A2.07,2.07,0,0,0,15.49,29.43Z"/><path class="cls-30" d="M16.3,42.24a1.94,1.94,0,0,0,0-.24,1.31,1.31,0,0,0-2.46-.62,15.75,15.75,0,0,0-1.32,3.12c-.48,1.68-1.64,6.32-1.64,6.32a2,2,0,0,0-.11.44c0,.35.36.41.71.41a.64.64,0,0,0,.61-.43s3.65-7,4.15-8.86a.74.74,0,0,0,0-.14Z"/><path class="cls-20" d="M15.49,40.18s-1.5-1-1.94.4c-.38,1.19-2.07,6.72-2.69,9.1a2.91,2.91,0,0,0,2.45.7s2.55-6.31,3.1-8.08S15.49,40.18,15.49,40.18Z"/><path class="cls-30" d="M14.42,53.17a19.59,19.59,0,0,0-2.22-1.56c-.23-.19-.12-.37-.12-.37A.78.78,0,0,0,12,51a.65.65,0,0,0-.83-.39c-.26.1-.31.25-.42.62a.94.94,0,0,1-.21.26,1.39,1.39,0,0,0-.45.88c0,.37,1.28.62,1.73.8a22.56,22.56,0,0,0,2.24.55C14.38,53.81,14.76,53.58,14.42,53.17Z"/><path class="cls-31" d="M10,52.48s-.11.27-.05.36a2.75,2.75,0,0,0,1,.4c.48.09.37,0,.78.15a9.86,9.86,0,0,0,1.36.52,3,3,0,0,0,1.55,0c.14-.06,0-.34,0-.34Z"/><path class="cls-32" d="M10.74,51.34s-.08,0-.29.21a1.49,1.49,0,0,0-.45,1c.05.29.74.49,1,.53a5.42,5.42,0,0,1,1.33.43,4.15,4.15,0,0,0,2.31.32c.2-.08.18-.51.08-.68s-1-.52-1.5-.89-.91-.71-1-.67-.25.56-.39.61a1,1,0,0,1-.91-.32C10.77,51.71,10.82,51.49,10.74,51.34Z"/><path class="cls-30" d="M24.05,26.83s-1.62-4.51-2.12-5.43a1.1,1.1,0,0,0-1.16-.63,1.21,1.21,0,0,0-1.11,1.3,1.59,1.59,0,0,0,.1.39.59.59,0,0,1,0,.08c.27.53,1.72,3.47,2.83,5.21a.85.85,0,0,0,.84.49.86.86,0,0,0,.78-.93A.77.77,0,0,0,24.05,26.83Z"/><path class="cls-20" d="M20.25,20.79s-1.07.51-.52,2a20.55,20.55,0,0,0,1.63,3.15,7.09,7.09,0,0,0,2.17-1.12s-1.1-3.54-2-4A1.39,1.39,0,0,0,20.25,20.79Z"/><path class="cls-21" d="M19.85,23.06a20.68,20.68,0,0,0,1.42,2.72c.45-.5.15-1.27.05-2A12.19,12.19,0,0,1,21.25,22Z"/><path class="cls-30" d="M28,29.71A.47.47,0,0,0,28,29a.43.43,0,0,0-.17-.13c-1.27-.9-4-2.4-4-2.4a.86.86,0,0,0-1,1.33A.92.92,0,0,0,23,28c.7.75,4.38,1.69,4.38,1.69A.47.47,0,0,0,28,29.71Z"/><path class="cls-30" d="M25.94,29.08a5.51,5.51,0,0,1,.91.69c.55.5,1,1,1.07,1a6.39,6.39,0,0,0,.93.24.76.76,0,0,0,.26-.09,3.27,3.27,0,0,0,.51,0c.07,0-.06-.19-.06-.19s.28.06.34,0-.18-.27-.18-.27.14-.07.07-.16a2.46,2.46,0,0,0-.62-.37,2.72,2.72,0,0,1-.68-.32c-.11-.14-.37-.43-.35-.49s.17-.05.49.08.45.07.46,0-.29-.19-.52-.38a1.6,1.6,0,0,0-.78-.33,2.08,2.08,0,0,1-1.09-.24c-.38-.27-.78-.36-1-.12S25.51,28.78,25.94,29.08Z"/><path class="cls-34" d="M27.56,30.3a.18.18,0,0,0,.25,0l.11-.1a2.92,2.92,0,0,0,.52-.66c-.13-.15-.32-.37-.3-.42h0a1,1,0,0,0-.28,0,.89.89,0,0,1-.83,0,.5.5,0,0,0-.09.19c0,.09.06.22.06.33a.34.34,0,0,0,.09.19C27.27,30,27.43,30.16,27.56,30.3Z"/><path class="cls-35" d="M29.41,30.31l-.53-.23-.13,0-.42-.17s.07.06.08.06a.51.51,0,0,0,.16.09l.18.07.13.06.53.21.25.09Zm0,.38a5.87,5.87,0,0,0-.56-.25l-.13-.06-.62-.27a1.25,1.25,0,0,0,.53.29l.09,0,.13.05.56.22.14.05Zm-.58.09-.13-.06,0,0a5.08,5.08,0,0,1-.78-.37c.18.25.52.31.82.42l.13.05a.92.92,0,0,1,.27.16A.75.75,0,0,0,28.84,30.78Zm-.77-1.65H28c-.29,0-.38.18-1,0,0,0-.07,0-.08,0l0,0c.42.27.64.06,1,0h0Z"/><path class="cls-36" d="M27.66,30.4a3.87,3.87,0,0,0,.69-.71,1.4,1.4,0,0,1-.69.71Z"/><path class="cls-30" d="M20.07,26a1.26,1.26,0,0,0,.82-.63,23.47,23.47,0,0,0,.26-3c.11-.83.65-.7.83-1.09a4.24,4.24,0,0,0-2.53-1.75,8.19,8.19,0,0,0-2.29-.27,3,3,0,0,0-1.75.6,2.91,2.91,0,0,0-.21,1.82,9.62,9.62,0,0,1,0,2.57,21,21,0,0,1-.48,3s0,.22,2,1.16,2.53-.4,2.53-.4C19.52,27.22,20.07,26,20.07,26Z"/><path class="cls-30" d="M20.46,20.34l.61-2.08a1,1,0,0,0-.39-1.13,1,1,0,0,0-1.38.27.87.87,0,0,0-.1.19l-1,2.13,0,0a1.17,1.17,0,0,0,2,1.12A1.15,1.15,0,0,0,20.46,20.34Z"/><path class="cls-36" d="M21.07,18.26a1,1,0,0,0-.39-1.13,1,1,0,0,0-1.38.27.87.87,0,0,0-.1.19l-.05.11a3.22,3.22,0,0,0,1.34,2.52l.58-2Z"/><path class="cls-20" d="M18.41,19.33S19,20.9,19.82,21s.66-.68.67-.74l.07-.21V20a8.88,8.88,0,0,1,1.1.83,1.14,1.14,0,0,1,.37.61s-.63.27-.73.65a12.07,12.07,0,0,0-.16,2c0,1,0,1.74-1,2,0,0-.23.9-.31,1.28a14.73,14.73,0,0,0,.72,2.76s-.55.82-4.66.64A7.58,7.58,0,0,1,13.05,30a20.77,20.77,0,0,0,1.06-2.66,36,36,0,0,0,.82-4.46c0-.78,0-2.54.51-3.18s3-.54,3-.54Z"/><path class="cls-21" d="M19.84,27.34,20,26.6a16.11,16.11,0,0,1-1.67-.77c-.18-.16-.12-.56-.12-.56l.42-.12s-.29-4.15-.93-4.87a3.39,3.39,0,0,0-2.13-.61.3.3,0,0,0-.08.08c-.52.59-.56,2.38-.57,3.16a36,36,0,0,1-.82,4.46A20.77,20.77,0,0,1,13.05,30a7.58,7.58,0,0,0,2.85.71c.41,0,.79,0,1.13,0-.71-.12-2.4-.48-2.65-1-.31-.7.56-3.27.8-3.94a.85.85,0,0,1,.47,0s.33,1.36.48,1.69a6.49,6.49,0,0,0,2.53,1.09c.46.11,1.07.21,1.5.27A5.62,5.62,0,0,1,19.84,27.34Z"/><path class="cls-30" d="M21.48,13.71A2.07,2.07,0,0,0,19,15.38c-.64,2.11.57,4.39,2.22,4.44.54,0,1.2-1,1.75-2.64S23.13,14.17,21.48,13.71Z"/><path class="cls-37" d="M21.39,19a.51.51,0,0,0-.23,0,0,0,0,0,0,0,.06s0,0,.06,0a.5.5,0,0,1,.29,0,.05.05,0,0,0,.07,0,0,0,0,0,0,0-.06A.35.35,0,0,0,21.39,19Z"/><path class="cls-38" d="M18.19,16.27s-.34,0-.45.22-.24.14-.29.39a1.89,1.89,0,0,0,0,.39c0,.19-.1.42.09.56a1.69,1.69,0,0,1,.32.36.58.58,0,0,0,.46.15c.11,0,.21.07.34-.08S18.7,16.76,18.19,16.27Z"/><path class="cls-39" d="M18,17.36a2.49,2.49,0,0,1,.14-1.08Z"/><path class="cls-38" d="M22.52,15.21A2.86,2.86,0,0,1,23,16.29a4.77,4.77,0,0,1-.28,1.28,2.72,2.72,0,0,0-.07.63c0,.21-.08.29-.24.51a.57.57,0,0,0,0,.7.6.6,0,0,1,.09-.53c.19-.2.38-.34.37-.54a1,1,0,0,1,.13-.75,3.58,3.58,0,0,0,.56-2A2.38,2.38,0,0,0,22,13.8a2.59,2.59,0,0,0-1.94-.29,2.91,2.91,0,0,0-1.73,1.94A3.67,3.67,0,0,0,18.44,18c.24.35.35.49.38.46a2.88,2.88,0,0,0,.34-.56,4.54,4.54,0,0,1,.63-1.25c.09,0,.14.54.07.68s-.31.35-.26.59.23.36.09.6-.26.55-.13.66a.52.52,0,0,1,.15-.35c.14-.14.27-.35.23-.5s-.26-.56-.09-.69.33-.1.49-.46.16-.71.28-.86a1,1,0,0,1,.75-.26C21.75,16.07,22.15,15.71,22.52,15.21Z"/><path class="cls-39" d="M22.3,14.09h0A.86.86,0,0,0,22,13.8a.8.8,0,0,1,.15.21,2,2,0,0,1,.33,1.2A1.32,1.32,0,0,0,22.3,14.09Zm-1.25,1.6a1.14,1.14,0,0,1-.57.13.79.79,0,0,0-.56.53.85.85,0,0,1,.49-.44c.25-.07.44,0,.68-.15.5-.32.44-.63,1.13-.76C21.53,15,21.54,15.38,21.05,15.69Zm-.16-.83c-.47.32-1.15.57-1.28,1.19.21-.58.86-.79,1.32-1.13a1.44,1.44,0,0,1,1-.31A1.29,1.29,0,0,0,20.89,14.86Z"/><path class="cls-39" d="M22.05,14.21a2,2,0,0,0-1.77,0,2,2,0,0,0-.69.54.94.94,0,0,0-.2.35l-.09.24a3.59,3.59,0,0,0-.42,1.23,8.7,8.7,0,0,1,.58-1.46,1.89,1.89,0,0,1,1.12-.95A2.25,2.25,0,0,1,22.05,14.21Z"/><path class="cls-30" d="M19.54,16.26s-.27-.06-.41.35-.05.94.27,1c.1,0,.29-.32.41-.63S19.85,16.36,19.54,16.26Z"/><path class="cls-35" d="M19.45,17.26c.29-.51.06-.75.05-.76a0,0,0,0,0,0,0s0,0,0,0a.49.49,0,0,1,.05.42.45.45,0,0,0-.18-.19s0,0,0,0,0,0,0,0a.27.27,0,0,1,.17.25l-.08.15a.06.06,0,0,0,0,0A0,0,0,0,0,19.45,17.26Z"/><path class="cls-30" d="M22.71,28.15s-1.32-.56-2.39-1.1a19.39,19.39,0,0,0-2.87-1.18,1,1,0,0,0-.21-.07.86.86,0,0,0-.86.39.87.87,0,0,0,.27,1.19.77.77,0,0,0,.25.1l5.53,1.58h.05a.45.45,0,0,0,.5-.21.47.47,0,0,0-.14-.66Z"/><path class="cls-36" d="M25.06,29.41s.32-.32.42-.29.08.14,0,.27a5.29,5.29,0,0,1-.56.79,2.46,2.46,0,0,1-.72,0s-.19.1-.32.15-.44-.2-.44-.2Z"/><path class="cls-40" d="M24.44,29.81l-.43,0a1.14,1.14,0,0,1-1-1.3l.48-2.56,2.12.15.1,2.61A1.15,1.15,0,0,1,24.44,29.81Z"/><path class="cls-41" d="M25.45,27.55l-2.1-.16-.19,1a1,1,0,0,0,.9,1.12l.37,0a1,1,0,0,0,1.06-1Z"/><path class="cls-42" d="M25.58,26.08a4.27,4.27,0,0,1-1.07,0,3.87,3.87,0,0,1-1.06-.15,4,4,0,0,1,1.07,0A4.1,4.1,0,0,1,25.58,26.08Z"/><path class="cls-43" d="M25.45,27.55a3.65,3.65,0,0,1-1.05,0,3.84,3.84,0,0,1-1-.15,4.22,4.22,0,0,1,1.06,0A3.72,3.72,0,0,1,25.45,27.55Z"/><path class="cls-30" d="M25.64,29.42c-.12-.08-.5,0-.5,0-.17-.19-.71.07-.75.07a1.87,1.87,0,0,1-.39-.11c-.2-.06-.46-.17-.36-.3s.5,0,.81,0,.44-.06.41-.16-.39-.19-.66-.3-.75-.39-1.08-.5a4.24,4.24,0,0,0-1-.14.46.46,0,0,0-.43.28.45.45,0,0,0,.24.6l.15,0a1.94,1.94,0,0,1,.6.41c.16.13.64.73.77.76a6.09,6.09,0,0,0,1.12,0,4.54,4.54,0,0,0,.53-.3l.42-.21C25.61,29.62,25.75,29.5,25.64,29.42Z"/><path class="cls-35" d="M25.14,29.46c0,.16-.14.24-.27.27l-.4.14a1,1,0,0,1-.63,0,1.29,1.29,0,0,1-.21-.06c.14,0,.29,0,.42,0a1.87,1.87,0,0,0,.81-.14C25,29.66,25.14,29.62,25.14,29.46Z"/><path class="cls-30" d="M17.55,20.22a1.23,1.23,0,0,0-.14-.31,1.21,1.21,0,0,0-2.18,1l1,5.81a1,1,0,0,0,.12.33.86.86,0,0,0,1.54-.73,50.77,50.77,0,0,0-.33-5.94A.9.9,0,0,0,17.55,20.22Z"/><path class="cls-20" d="M16.27,19.34S14.65,19.4,15.1,22s.52,3.26.52,3.26a10.58,10.58,0,0,0,2.72-.42,35.23,35.23,0,0,0-.63-4.57C17.41,19.48,17.05,19.25,16.27,19.34Z"/></svg>