<svg id="Layer_1" data-name="Layer 1" xmlns="http://www.w3.org/2000/svg" viewBox="0 0 144 144"><defs><style>.cls-1{fill:#70829b;}.cls-2{fill:#9aa6b5;}.cls-3{fill:#fff;}.cls-22,.cls-23,.cls-4{fill:#efefef;}.cls-5{fill:#3b546c;}.cls-6{fill:#9f9fe6;}.cls-7{fill:#6e4c37;}.cls-8{fill:#f5ab91;}.cls-9{fill:#afc2cd;}.cls-10{fill:#6e94a0;}.cls-11{fill:#a88263;}.cls-12{fill:#bc9473;}.cls-13{fill:#9db1be;}.cls-14{fill:#aad8dd;}.cls-15{fill:#dff0f3;}.cls-16{fill:#ef8467;}.cls-17{fill:#eff9fb;}.cls-18{fill:#f1404c;}.cls-19,.cls-26{fill:#050505;}.cls-19{opacity:0.2;}.cls-20{fill:#1b2833;}.cls-21{fill:#fcfdfd;}.cls-22,.cls-27{opacity:0.74;}.cls-23{opacity:0.89;}.cls-24{fill:#c6c6c6;}.cls-25{fill:#ee8a71;}.cls-27{fill:#e2e2e2;}</style></defs><title>doctor-nurse-home-visits</title><path class="cls-1" d="M16,127.74s-3.34,3.43-1.24,7.57,48.8,4.93,60.15,4.14S110,137.68,119,136.1s14.16-5.32,14.16-7.69-2.81-5.72-4.68-6.9-46.93-.2-60-1.38-45.12,3.85-47.69,5A45.36,45.36,0,0,0,16,127.74Z"/><path class="cls-2" d="M22.12,135.06a2.48,2.48,0,0,0,1.52.49l11.29-.3s15.69,0,25-.66,49.54-.33,58.32-1.65,10.64-4.39,11.1-5-4-7.14-39.37-4.94-69.27,3.84-70.43,4.28-4.27,2-3,3.4A46.41,46.41,0,0,0,22.12,135.06Z"/><polygon class="cls-1" points="53.43 116.89 91.78 116.89 97.75 121.47 98.6 123.65 58.51 124.13 52.95 123.05 53.43 116.89"/><rect class="cls-3" x="57.28" y="106.66" width="36.86" height="12.7"/><path class="cls-4" d="M37.09,36.75s-7.53.3-7,9.53S31,59.34,31,59.34l.29,12.43S30.13,97.38,30.82,98s4.69.63,4.69.63,4.38.65,4.87.27.27-3.67.27-3.67l.77-36.76-.18-9.11A47.88,47.88,0,0,0,40.79,44c-.23-.28-1.63-4.45-1.84-5A15.51,15.51,0,0,0,37.09,36.75Z"/><path class="cls-1" d="M58.8,124.22c-.47-.16-.41-.42-.57-.63a4.7,4.7,0,0,1-.43-.79,1.06,1.06,0,0,1,.34-.08c1.24-.21,1.26-.21,1.24-.78a16.51,16.51,0,0,1,.25-2,19.36,19.36,0,0,0,.35-2.37,1,1,0,0,1,.2-.69H63c.08.67.09,1.34.15,2,.08,1,.26,1.92.26,2.88,0,.62,0,.62,1.22.83a5.46,5.46,0,0,0-.26,1.42c0,.07-.07.11-.18.15Z"/><path class="cls-1" d="M80.88,124.22a13.46,13.46,0,0,1,2.32-.43,11.16,11.16,0,0,0,1.2-.18c.58-.12.91-.3.88-.61a1.21,1.21,0,0,0-.25-.81,1.09,1.09,0,0,1-.18-.62c.46-.12.68-.29.61-.53a.59.59,0,0,1,0-.35c.41-1.25.51-2.51.8-3.76h2.33c.27,1.11.46,2.22.8,3.33a4.68,4.68,0,0,1,.21,1c0,.22.25.31.64.38l-.05.61c-1,.57-.68,1.21.82,1.45a12.53,12.53,0,0,1,2.59.49,1.32,1.32,0,0,1-.64.07H81.51A1.16,1.16,0,0,1,80.88,124.22Z"/><path class="cls-1" d="M71.53,116.93h8.33c.37,1.16.4,2.33.8,3.49a5.5,5.5,0,0,0,.18.86c.09.19.3.28.64.34,0,.17-.18.28-.41.38a13,13,0,0,1-1.95.73,2.88,2.88,0,0,0-1.07.43,4.51,4.51,0,0,0-2.66.85,17,17,0,0,1-5.45-1.29,1.25,1.25,0,0,1,.23-.07c1-.17.94-.17,1-.59.05-1.12.19-2.23.25-3.35C71.41,118.12,71.49,117.53,71.53,116.93Z"/><path class="cls-5" d="M33.75,98.25c1.46.12,2.88.47,4.35.46h2.25a1.79,1.79,0,0,0,.21-1.2c.17-6.37.11-12.73.19-19.1,0-1.82.07-3.64.11-5.47,1.39,0,2.76.32,4.15.21s2.55-.25,3.82-.38c0,.24,0,.47,0,.7q0,11.9,0,23.78A2.69,2.69,0,0,0,49,98.44a2.74,2.74,0,0,0,1.27-.11c.38.37.15.82.12,1.22q-.45,6.4-.92,12.8c-.23,3.07-.48,6.14-.68,9.22a.94.94,0,0,1-.67,1,38.24,38.24,0,0,1-3.86,0c-.47-.09-.58-.38-.62-.85q-.53-6-1.12-12a39.63,39.63,0,0,1,.1-8.91A19.93,19.93,0,0,0,43,96.87a8.43,8.43,0,0,0-.13-2.35c-.11-1.61-.28-3.22-.42-4.82A20.39,20.39,0,0,0,41.91,94a12.85,12.85,0,0,0-.19,2.84c0,.13-.06.26-.08.39-.36,2.9-.53,5.81-.82,8.71-.53,5.17-.92,10.35-1.34,15.53,0,.6-.18,1-.78,1.18a24.88,24.88,0,0,1-3.56,0c-.22-.2-.59-.14-.79-.49-.1-.86-.19-1.78-.3-2.7-.46-3.65-.83-7.31-1.07-11A41.22,41.22,0,0,1,33.75,98.25Z"/><path class="cls-6" d="M48.83,72.77c-1.27.13-2.55.27-3.82.38s-2.76-.19-4.15-.21q0-10.76,0-21.53a15.59,15.59,0,0,0,.18-1.66c-.15-1.34-.27-2.68-.41-4,0-.17-.17-.19-.3-.22l0-.23c.18-.08.19-.23.17-.4-.27-1.68-.54-3.36-.89-5A14.89,14.89,0,0,1,39,36.29v-.07c1.73,1.49,3.13,3.29,4.71,4.93.16.16.27.38.63.31.61-1.65,1.14-3.37,1.6-5.12l.31.19a4.09,4.09,0,0,0,.11,1c.42,1.45.8,2.92,1.2,4.38a32.24,32.24,0,0,1,1.3,7.68C49,53,48.68,56.49,48.79,60,48.93,64.23,48.83,68.5,48.83,72.77Z"/><path class="cls-7" d="M34.14,37.59l-1,.45c-1-.86-1-3.36-.08-4.61.45-.61.91-1.22,1.4-1.8a4.8,4.8,0,0,0,1.13-4A14.18,14.18,0,0,1,35.71,22a6.66,6.66,0,0,1,8.3-5,13.38,13.38,0,0,0,1.64.37,5.47,5.47,0,0,1,4.59,5.25A7.42,7.42,0,0,1,49,27.58c-.22-.22-.11-.5-.11-.76,0-.82.05-1.66,0-2.48a4.88,4.88,0,0,0-2-3.57,8,8,0,0,1-3.14,3.9c.29.27.85.1.77.66-.17.12-.34.07-.5.09a9.21,9.21,0,0,0-2.05.26c-.62.22-1.23.5-1.83.77a1.05,1.05,0,0,1-1,0c-.89-.46-1.56,0-1.54,1a2.11,2.11,0,0,0,1.84,2.2,20.82,20.82,0,0,1,0,5.74,1.3,1.3,0,0,0-1.07.32c-.33.26-.63.54-.95.81-.1.05-.29,0-.22.24h0A6.42,6.42,0,0,0,34.14,37.59Z"/><path class="cls-5" d="M37.31,36.51c.32-.27.62-.55.95-.81a1.3,1.3,0,0,1,1.07-.32c.08.36-.28.54-.34.84v.07c-.12-.25-.33-.19-.5-.09a2,2,0,0,0-.81,1,9.43,9.43,0,0,0-.26,5.69A3,3,0,0,1,40.21,45l.09.34,0,.23c-.23.35-.43.22-.58-.06s-.26-.61-.42-.89a1.78,1.78,0,0,0-2.54-.92,1.61,1.61,0,0,0-.87,1.45l-.22,1.2H35.3a3,3,0,0,1,1.53-3.38,14.88,14.88,0,0,1-.16-4.32c.09-.64.49-1.2.43-1.87h0C37.32,36.82,37.32,36.66,37.31,36.51Z"/><path class="cls-8" d="M37.18,71.19c-1.57,0-3,0-4.34-.09-.17,0-.27-.18-.27-.49a21.83,21.83,0,0,0,2.84-1.73A8.71,8.71,0,0,1,37.18,71.19Z"/><path class="cls-9" d="M36.27,49.68a2.49,2.49,0,0,0,1.1,1.66l-.17.34a3.23,3.23,0,0,1-1.65-2.93,14.32,14.32,0,0,1-.25-2.44h.41A12.29,12.29,0,0,0,35.92,49,.93.93,0,0,0,36.27,49.68Z"/><path class="cls-5" d="M37.2,51.68l.17-.34a1,1,0,0,1,1,.34C38,52.2,37.82,52.2,37.2,51.68Z"/><path class="cls-10" d="M39.3,51.51c.28-.5.63-.76,1.25-.49C40.05,51.9,40,51.94,39.3,51.51Z"/><path class="cls-11" d="M121.27,117.38a5.08,5.08,0,0,1,0,.78c0,2,0,4.09,0,6.13l-2.93-.06h0c.08-1.52-.24-3-.24-4.55,0-1.26.23-2.5.22-3.75,0-2.45,0-4.9-.19-7.34-.13-1.29.2-2.56.19-3.85,0-1.66,0-3.32,0-5q0-39.11,0-78.2a2.09,2.09,0,0,0-.16-1.31H67.71c0-.55.06-1.09.1-1.64.17,0,.3-.07.32-.27a3.79,3.79,0,0,1,.33-1.07h51.23c1.61,0,1.61,0,1.61,1.65V98.28c0,.33,0,.66,0,1l0,.18a7.35,7.35,0,0,0-.2,3.58,10.5,10.5,0,0,1,.2,1.27c0,.12,0,.24,0,.36,0,.7,0,1.4,0,2.1V107c-.39,0-.6-.44-1.1-.36a1.51,1.51,0,0,0-.63,1.67,10.5,10.5,0,0,0,.72,2.56c.35.8.67,1.61,1,2.42v3.34A3.66,3.66,0,0,0,121.27,117.38Z"/><path class="cls-8" d="M39,36.22c.06-.3.42-.48.34-.84a20.82,20.82,0,0,0,0-5.74,2.11,2.11,0,0,1-1.84-2.2c0-1,.65-1.47,1.54-1a1.05,1.05,0,0,0,1,0c.6-.27,1.21-.55,1.83-.77A9.21,9.21,0,0,1,44,25.42c.16,0,.33,0,.5-.09.08-.56-.48-.39-.77-.66a8,8,0,0,0,3.14-3.9,4.88,4.88,0,0,1,2,3.57c.08.82,0,1.66,0,2.48,0,.26-.11.54.11.76a4.64,4.64,0,0,0-.21,1.53,21.76,21.76,0,0,1-.64,2.65c-.49.21-.64.72-.94,1.09a2.65,2.65,0,0,1-2,1.21,6.45,6.45,0,0,1-2.79-.83,9.63,9.63,0,0,0-1.87-1.07l0,0c-.1-.07-.06,0,0,0a5.12,5.12,0,0,0,4.58,2.76l.16.44a.35.35,0,0,0,0,.14c-.12.1-.09.19,0,.27l.71.56c-.46,1.75-1,3.47-1.6,5.12-.36.07-.47-.15-.63-.31C42.12,39.51,40.72,37.71,39,36.22Zm7.86-5.83a11.46,11.46,0,0,1-2.6-.21,1.49,1.49,0,0,0,1.46,1.13A1,1,0,0,0,46.85,30.39Zm-.15-5.18c.35.37.69.15,1,.16s.57.34.92.12C47.94,24.73,47.64,24.69,46.7,25.21Zm1,1c-.5.17-.73.43-.48.94.12.23.34.35.55.17C48.18,27,48,26.61,47.66,26.22Zm-3.92-.09a.87.87,0,0,0-.14,1.23.3.3,0,0,0,.44,0C44.35,26.93,44.38,26.52,43.74,26.13Z"/><path class="cls-7" d="M64.34,9a2,2,0,0,0,.88,0,4.93,4.93,0,0,1,2,.09,2.8,2.8,0,0,1,2,4.17,1.59,1.59,0,0,0-.46,1.41,14.2,14.2,0,0,1-.23,2.6,3.79,3.79,0,0,0-.33,1.07c0,.2-.15.26-.32.27a11.88,11.88,0,0,0-.39-3.89c-3.34.82-3.66.55-6.43.22-1.33-.16-2,.28-2.21,1.61a16.62,16.62,0,0,0-.2,3.07c0,.2.12.47-.22.59-.34-.13-.39-.5-.56-.76a.88.88,0,0,0-1-.5.94.94,0,0,0-.8.89c0,.33,0,.66,0,1-.48-.2-.48-.69-.58-1.08-.21-.85-.34-1.73-.51-2.59a12.25,12.25,0,0,1-.13-3,2.9,2.9,0,0,1,1.69-2.61.9.9,0,0,0,.5-.44c1-2.13,2.9-2.49,5-2.37A20.72,20.72,0,0,0,64.34,9Z"/><path class="cls-6" d="M48.35,33.25a9,9,0,0,1,4-2.67A4.87,4.87,0,0,0,53.6,30l.8-.07c0,.13,0,.27,0,.4A71.26,71.26,0,0,1,55.35,40a35,35,0,0,1-.94,9c-.39-.08-.36-.41-.43-.69-.45-2.12-.9-4.24-1.39-6.35s-1.54-4.06-3.78-5C49.08,35.73,48.56,34.51,48.35,33.25Z"/><path class="cls-11" d="M54.4,30l-.8.07V17.47c.46-.39.94-.14,1.32-.32.17.86.3,1.74.51,2.59.1.39.1.88.58,1.08h0c0,.15,0,.32.19.41v0c0,.15,0,.31.21.38v0c-.1.44.26.7.41,1a2,2,0,0,0-.17.56c0,2,0,4,0,5.95-.23.33-.72.13-.95.46A4.2,4.2,0,0,0,54.4,30Z"/><path class="cls-7" d="M48.35,33.25c.21,1.26.73,2.48.46,3.8-.47,0-.86-.45-1.37-.31h0c0-.19-.11-.19-.21-.24a8,8,0,0,0-2-1.14l-.16-.44.08-.87a2.65,2.65,0,0,0,2-1.21c.3-.37.45-.88.94-1.09A6.24,6.24,0,0,0,48.35,33.25Z"/><path class="cls-12" d="M115.07,20.25h3.05a2.09,2.09,0,0,1,.16,1.31q0,39.11,0,78.2c0,1.66,0,3.32,0,5,0,1.29-.32,2.56-.19,3.85.24,2.44.18,4.89.19,7.34,0,1.25-.22,2.49-.22,3.75,0,1.53.32,3,.24,4.55l-.43,0a20.25,20.25,0,0,0-2.31-.39c-3.47-.57-6.93-1.18-10.39-1.78l-10-1.76a6.17,6.17,0,0,1-1.07-1,1.15,1.15,0,0,1-.52-1.06,1.1,1.1,0,0,0,.6-1c0-1.52.27-3,.44-4.53a72.37,72.37,0,0,0,.57-10.19,22.93,22.93,0,0,0-.08-2.49,20.83,20.83,0,0,1-.09-5c.23-2.36.63-4.71,1-7.06a51.61,51.61,0,0,0,.74-10.16,2.34,2.34,0,0,0,0-2l0-.36c.56-.51.31-1.21.42-1.82,2.44-.06,4.87.35,7.31.2.34,0,.73.16,1-.2a19.28,19.28,0,0,0,3,3.28.7.7,0,0,0,1.14,0l.68.38c1.07,0,1.4-.84,2-1.4-.45-.74-1.19-1.18-1.66-1.85,1,0,1.94.4,2.92.06v-47a23.55,23.55,0,0,0-4.92.22,15.6,15.6,0,0,0-2.36.16,18.37,18.37,0,0,1-3.13.33c-1.22,0-2.43.2-3.64.29a8,8,0,0,0-2.3.25c-.52,7.23-.12,14.41-.28,21.58a6.94,6.94,0,0,0-2.73-2.56c-.36-.19-.85-.16-1-.63l0-5.77a1.33,1.33,0,0,1,.21-.75,7.62,7.62,0,0,0,1-4.06A8.39,8.39,0,0,0,94,32.65c.21-.23.38-.39.53-.57a3.88,3.88,0,0,0,.78-4,4.41,4.41,0,0,0-2.18-2.43c.15-1-.09-2.11.14-3.09a18.76,18.76,0,0,1,3.89-.46c2.13-.26,4.27-.38,6.4-.6,2.78-.29,5.58-.42,8.38-.65.85-.06,1.7-.22,2.56-.2A.5.5,0,0,0,115.07,20.25Zm-1.41,65.06c-1.48.07-2.83-.34-4.23-.21a4.1,4.1,0,0,1-1,0c-1.69-.27-3.41-.21-5.12-.37-1.53-.15-3.08-.15-4.62-.37a2.88,2.88,0,0,0-1.62.08,3.79,3.79,0,0,0-.08,1c-.13,1.72.19,3.43.19,5.14q0,11.09,0,22.18a2.2,2.2,0,0,0,.17,1.21l16.29,2.36Z"/><path class="cls-12" d="M100,126.11c1.36,0,2.72,0,4.08,0a27.88,27.88,0,0,0,3.54,0c1.32-.1,2.64.27,4,.14a1,1,0,0,1,.86.4c1.8,1.81,3.5,3.71,5.22,5.59,1,1.13,2.17,2.15,3.12,3.35.07.09.2.17.16.38H53.82c1.23-1.31,2.37-2.53,3.51-3.77.26-.28.65-.48.68-.93h.19a3.57,3.57,0,0,0,.74-.66c1.28-1.19,2.31-2.62,3.61-3.8.27-.24.48-.56.91-.53,2.06.12,4.13-.47,6.2,0a.92.92,0,0,0,.86-.12l.58,0a17.14,17.14,0,0,0,5.76-.13c.27.37.67.22,1,.22q10.59,0,21.17,0C99.36,126.28,99.71,126.4,100,126.11Zm-41.56,8.61c1.78.25,57.32.17,58-.05a.76.76,0,0,0-.11-.26l-5-6.23a2.72,2.72,0,0,0-2.37-1.12c-3.61.08-7.23,0-10.85,0s-7.29,0-10.94,0-7.19,0-10.79,0c-1.89,0-3.78,0-5.67,0H65C62.78,129.61,60.62,132.06,58.42,134.72Z"/><path class="cls-13" d="M70.52,126.15a.92.92,0,0,1-.86.12c-2.07-.45-4.14.14-6.2,0-.43,0-.64.29-.91.53-1.3,1.18-2.33,2.61-3.61,3.8a3.57,3.57,0,0,1-.74.66c-.07-.15-.14-.17-.2,0h0c-1.06.21-2,.83-3.07,1-1.59.28-3.16.6-4.76.75a64,64,0,0,1-8.3.37,48.41,48.41,0,0,1-8.33-.84A9.89,9.89,0,0,1,29.34,131c-.79-.61-1-1.08-.66-1.75a1.27,1.27,0,0,1,.53-.57,14.45,14.45,0,0,1,5.1-1.75,5.77,5.77,0,0,1-.27,1.66,2,2,0,0,0,.83,2.18,3.57,3.57,0,0,0,2.8.74,2.37,2.37,0,0,0,2.24-2.73c0-.83-.44-1.59-.46-2.43a19.42,19.42,0,0,1,4.1-.22,3.23,3.23,0,0,1,.08,1c0,1.25.06,1.29,1.27,1.6a3.4,3.4,0,0,0,1.16.19,3.6,3.6,0,0,1,1.73.3,12.93,12.93,0,0,0,2.59.65,12.27,12.27,0,0,0,3.26,0c1.2-.13,1.44-.81.72-1.81,0,0,0,0,0-.1a1.29,1.29,0,0,1,.58.07,5.49,5.49,0,0,0,3.1-.38c.92-.37,1.12-.87,1-1.87a7.77,7.77,0,0,1-.26-1.65h5.35c.12.77.28,1.51,1.27,1.56a19.79,19.79,0,0,0,2.56.22A6.82,6.82,0,0,1,70.52,126.15Z"/><path class="cls-13" d="M100,126.11c-.27.29-.62.17-.94.17q-10.59,0-21.17,0c-.34,0-.74.15-1-.22.42-.45.26-1,.11-1.55a14.52,14.52,0,0,0,3.91-.4c.16.24.4.19.63.19H93c.23,0,.47,0,.64-.18a16.43,16.43,0,0,0,1.8.47,4.79,4.79,0,0,0,3.35-.3l2,0C101,125.13,100.36,125.56,100,126.11Z"/><path class="cls-1" d="M100.78,124.31l-2,0c.18-.29.35-.63.11-.91a3.67,3.67,0,0,0-2.2-1.63c-.41-.56-1.14-.79-1.48-1.42l10,1.76c3.46.6,6.92,1.21,10.39,1.78a20.25,20.25,0,0,1,2.31.39l-12.33,0Z"/><path class="cls-8" d="M34.94,124.3c.32-.51.09-1.08.2-1.61a24.88,24.88,0,0,0,3.56,0l.2,1.62a2.46,2.46,0,0,0,.16,1.11c0,.29,0,.59,0,.89,0,1.65-.87,2.43-2.48,2.18a1.82,1.82,0,0,1-1.69-2c0-.56,0-1.12,0-1.68Z"/><path class="cls-13" d="M45.64,135.45a13.84,13.84,0,0,1,3.34.2,1.51,1.51,0,0,1,.38.08c.47.2.9.43.87,1.06a1,1,0,0,1-.85,1,7.15,7.15,0,0,1-2.83.26,5.9,5.9,0,0,0-1.73,0,12.92,12.92,0,0,1-2.54-.2,1,1,0,0,1-.8-1,1,1,0,0,1,.83-1.09,4,4,0,0,1,1.35-.25C44.32,135.48,45,135.45,45.64,135.45Z"/><path class="cls-5" d="M34.92,124.83c0,.56,0,1.12,0,1.68a1.82,1.82,0,0,0,1.69,2c1.61.25,2.5-.53,2.48-2.18,0-.3,0-.6,0-.89.27.24.13.66.39.91,0,.84.42,1.6.46,2.43a2.37,2.37,0,0,1-2.24,2.73,3.57,3.57,0,0,1-2.8-.74,2,2,0,0,1-.83-2.18,5.77,5.77,0,0,0,.27-1.66C34.59,126.23,34.6,125.48,34.92,124.83Z"/><path class="cls-13" d="M32.89,134.45H31.83a.62.62,0,0,1-.71-.63.59.59,0,0,1,.53-.7,13.58,13.58,0,0,1,2.85,0c.24,0,.38.23.4.49a.65.65,0,0,1-.35.65A3.24,3.24,0,0,1,32.89,134.45Z"/><path class="cls-4" d="M47.44,36.74c.51-.14.9.28,1.37.31,2.24.92,3.27,2.76,3.78,5s.94,4.23,1.39,6.35c.07.28,0,.61.43.69a1,1,0,0,0-.09.66c.2.86.35,1.73.49,2.61.18,1.23.32,2.47.5,3.7.22,1.59.47,3.18.69,4.77s.43,3.34.66,5.17a2.08,2.08,0,0,0,.13-1c0-1.09.05-1.12,1.12-1.12q5.16,0,10.34,0c.28,0,.6-.09.89.24,0,1.49.07,3,0,4.6a6.86,6.86,0,0,1-.94,3.19,5.68,5.68,0,0,1-6.71,2.44,6,6,0,0,1-3.32-2.2,8.41,8.41,0,0,0-1-1.68l.37,2.68-.72.85-2.63.83c-.23,0-.42-.22-.74-.07-.09.79.14,1.62,0,2.46-.3,1.69.3,3.34.3,5,0,1.16,0,2.35.08,3.53a24.85,24.85,0,0,0,.1,3.34c.16,2.61.08,5.22.11,7.82A8.07,8.07,0,0,1,51.42,98c0-.46,0-1-.67-1s-.5.56-.52,1c0,.1,0,.2,0,.29a2.74,2.74,0,0,1-1.27.11,2.69,2.69,0,0,1-.09-1.19q0-11.9,0-23.78c0-.23,0-.46,0-.7,0-4.27.1-8.54,0-12.81-.11-3.47.16-6.93.06-10.39a32.24,32.24,0,0,0-1.3-7.68c-.4-1.46-.78-2.93-1.2-4.38a4.09,4.09,0,0,1-.11-1,4,4,0,0,1,1.35,1.56,20.52,20.52,0,0,1,2.32,7.61c-1,1-1.17,1.84-.45,2.47A1.34,1.34,0,0,0,51.4,48c.57-.72.23-1.55-1-2.34A21,21,0,0,0,47.44,36.74Z"/><path class="cls-8" d="M48.09,122.52c.12.61-.08,1.32.54,1.78a11,11,0,0,0,3.59,2.64c-.09.7-.67.56-1.07.54A12.24,12.24,0,0,1,44,124.73v-.43a7.51,7.51,0,0,0,.2-1.77A38.24,38.24,0,0,0,48.09,122.52Z"/><path class="cls-4" d="M40.21,45a3,3,0,0,0-2.79-2.08,9.43,9.43,0,0,1,.26-5.69,2,2,0,0,1,.81-1c.17-.1.38-.16.5.09a14.89,14.89,0,0,0,.59,3.57c.35,1.67.62,3.35.89,5Z"/><path class="cls-5" d="M47.44,36.74a21,21,0,0,1,3,8.92c1.2.79,1.54,1.62,1,2.34a1.34,1.34,0,0,1-1.94.17c-.72-.63-.57-1.51.45-2.47a20.52,20.52,0,0,0-2.32-7.61,4,4,0,0,0-1.35-1.56l-.31-.19-.71-.56,0-.27a.35.35,0,0,1,0-.14,8,8,0,0,1,2,1.14.2.2,0,0,0,.21.24Zm3.79,10.39a.87.87,0,0,0-.89-.86.86.86,0,0,0-.87.87,1,1,0,0,0,.9.89A.88.88,0,0,0,51.23,47.13Z"/><path class="cls-14" d="M40.21,45l.26-.06c0,.17,0,.32-.17.4Z"/><path class="cls-15" d="M37.31,36.51c0,.15,0,.31-.22.24C37,36.53,37.21,36.56,37.31,36.51Z"/><path class="cls-3" d="M115.07,20.25a.5.5,0,0,1-.54.35c-.86,0-1.71.14-2.56.2-2.8.23-5.6.36-8.38.65-2.13.22-4.27.34-6.4.6a18.76,18.76,0,0,0-3.89.46c-.23,1,0,2-.14,3.09-2-.44-3.75-.29-4.89,1.79a10,10,0,0,0-3.68.4,6.56,6.56,0,0,0-3.65,2.38,7.26,7.26,0,0,0-1,5.23,3.18,3.18,0,0,0,.87,2.15c0,.69,0,1.39.06,2.07a5.42,5.42,0,0,0,1.73,4,9.27,9.27,0,0,0,2,1V45.9a19.36,19.36,0,0,0-3.73,1.49,5,5,0,0,0-2.26,2,18.41,18.41,0,0,0-2.16,4.86c-.15.46-.23,1-.76,1.21a16.13,16.13,0,0,1-.4-1.93c-.18-2-.3-4-.45-6,.53-.44,1.35-.37,1.78-1-.93-3.54-1.86-7-3.12-10.44-.64-1.7-1.16-3.5-2.86-4.5-1-.62-2-1.48-3.3-1.45a1.57,1.57,0,0,0-1.29-.42,2.17,2.17,0,0,0-1.49-.57,3.3,3.3,0,0,1-.17-1.91A5.34,5.34,0,0,0,66,26.19a7.48,7.48,0,0,0,1.39-3.54,13.18,13.18,0,0,1,.34-2.42Z"/><path class="cls-8" d="M67.71,20.23a13.18,13.18,0,0,0-.34,2.42A7.48,7.48,0,0,1,66,26.19a5.34,5.34,0,0,1-1.56,1.09,3.3,3.3,0,0,0,.17,1.91,2.82,2.82,0,0,1-.27,1.53c-.64,1.39-1.22,2.8-2,4.21a47.36,47.36,0,0,0-4.21-4.74c-.29-.29-.68-.54-.74-1a1.63,1.63,0,0,0,.38-1.09,33.07,33.07,0,0,0-.06-4.34,4.55,4.55,0,0,0,0-1.47,2.21,2.21,0,0,1-1.27-.68v0a.56.56,0,0,0-.21-.38v0a.59.59,0,0,0-.19-.41h0c0-.33,0-.66,0-1a.94.94,0,0,1,.8-.89.88.88,0,0,1,1,.5c.17.26.22.63.56.76.34-.12.22-.39.22-.59a16.62,16.62,0,0,1,.2-3.07c.22-1.33.88-1.77,2.21-1.61,2.77.33,3.09.6,6.43-.22a11.88,11.88,0,0,1,.39,3.89Zm-2.55,3.24-2.65-.23c.23.76.6,1.11,1.22,1.17A1.32,1.32,0,0,0,65.16,23.47Zm-2.22-5.36,0-.24a1.66,1.66,0,0,0-2.44.45Zm2.15,0c.77.24,1.53,0,2.31.33-.08-.77-.6-.77-1-.87A1,1,0,0,0,65.09,18.08Zm1.11,2.25c.47-.27.46-.7.21-1.13-.13-.25-.38-.24-.58-.05s-.23.69.22,1.16ZM62,20.27c.67-.67.66-.81-.05-1.33C61.48,19.58,61.48,19.58,62,20.27Z"/><path class="cls-16" d="M45.14,34.06l-.08.87a5.12,5.12,0,0,1-4.58-2.76h0a9.63,9.63,0,0,1,1.87,1.07A6.45,6.45,0,0,0,45.14,34.06Z"/><path class="cls-17" d="M46.85,30.39a1,1,0,0,1-1.14.92,1.49,1.49,0,0,1-1.46-1.13A11.46,11.46,0,0,0,46.85,30.39Z"/><path class="cls-7" d="M46.7,25.21c.94-.52,1.24-.48,1.91.28-.35.22-.62-.11-.92-.12S47.05,25.58,46.7,25.21Z"/><path class="cls-7" d="M47.66,26.22c.3.39.52.75.07,1.11-.21.18-.43.06-.55-.17C46.93,26.65,47.16,26.39,47.66,26.22Z"/><path class="cls-7" d="M43.74,26.13c.64.39.61.8.3,1.21a.3.3,0,0,1-.44,0A.87.87,0,0,1,43.74,26.13Z"/><path class="cls-12" d="M40.48,32.17s-.07-.05,0,0l0,0Z"/><path class="cls-11" d="M45.19,35.51l0,.27C45.1,35.7,45.07,35.61,45.19,35.51Z"/><path class="cls-4" d="M66.08,29.76a1.57,1.57,0,0,1,1.29.42,54.62,54.62,0,0,1,2.15,12,57.44,57.44,0,0,0,.83,7.17,16.79,16.79,0,0,0,1.56,4.77c0,1.85.15,3.69.25,5.53s.37,3.86.57,5.8a13.42,13.42,0,0,0,0,1.68c.31,2.43.35,4.88.52,7.31.12,1.68,0,3.38,0,5.07,0,.38-.1.81.3,1.09l1.07,0a19.4,19.4,0,0,0,4,.07c1.84.07,3.68-.09,5.52.07a6,6,0,0,1,.41,2.71c0,3.12,0,6.24,0,9.35a4.62,4.62,0,0,1-.2,1.66c-1.85.14-3.71,0-5.56,0-1.32,0-2.64,0-4,0a15.57,15.57,0,0,0-3-.1l-1.76-.1c-.1-.49.15-.94.15-1.43a6.27,6.27,0,0,0-.74-.29,3.6,3.6,0,0,0-.58,0v-.59a.81.81,0,0,0,.8-.45c.44-.66.55-1.45,1-2.14-.66-.37-1.24-.64-1.82,0-2.26.08-4.51.42-6.78.38l-1,0c-1.57-.24-3.16-.12-4.73-.35a9.58,9.58,0,0,0-2.56-.22,24.85,24.85,0,0,1-.1-3.34c-.07-1.18-.09-2.37-.08-3.53,0-1.71-.6-3.36-.3-5,.15-.84-.08-1.67,0-2.46.32-.15.51.1.74.07,0,.55.1,1.1.2,1.65a7.16,7.16,0,0,1-.11,4.15,2.18,2.18,0,0,0,.35,1.84.27.27,0,0,0,.11.1c.08.27,0,.63.49.62s.38-.65.7-.86c.22.3.44.29.59,0a7.77,7.77,0,0,0,1-4.43c-.17-1.3-.48-2.57-.73-3.86l.72-.85-.37-2.68a8.41,8.41,0,0,1,1,1.68,6,6,0,0,0,3.32,2.2,5.68,5.68,0,0,0,6.71-2.44,6.86,6.86,0,0,0,.94-3.19c.1-1.55,0-3.11,0-4.6-.29-.33-.61-.24-.89-.24q-5.18,0-10.34,0c-1.07,0-1.1,0-1.12,1.12a2.08,2.08,0,0,1-.13,1c-.23-1.83-.43-3.5-.66-5.17s-.47-3.18-.69-4.77c-.18-1.23-.32-2.47-.5-3.7-.14-.88-.29-1.75-.49-2.61a1,1,0,0,1,.09-.66,35,35,0,0,0,.94-9,71.26,71.26,0,0,0-.91-9.66c0-.13,0-.27,0-.4a4.2,4.2,0,0,1,1.34-.34,71,71,0,0,1,1.34,10.45c1.13.37,9.65.36,10.67,0A47.32,47.32,0,0,0,66.08,29.76ZM77,83.68a3.86,3.86,0,0,0-3.76,3.83A3.82,3.82,0,1,0,77,83.68ZM62.85,44.52a3.66,3.66,0,0,0-3.61,3.62,3.63,3.63,0,1,0,7.26,0A3.69,3.69,0,0,0,62.85,44.52Z"/><path class="cls-6" d="M66.08,29.76a47.32,47.32,0,0,1,1.67,10.29c-1,.38-9.54.39-10.67,0a71,71,0,0,0-1.34-10.45c.23-.33.72-.13.95-.46l.7,0c.06.47.45.72.74,1a47.36,47.36,0,0,1,4.21,4.74c.76-1.41,1.34-2.82,2-4.21a2.82,2.82,0,0,0,.27-1.53A2.17,2.17,0,0,1,66.08,29.76Z"/><path class="cls-3" d="M57.39,29.18l-.7,0c0-2,0-4,0-5.95a2,2,0,0,1,.17-.56c.43.26.51.81.9,1.1a33.07,33.07,0,0,1,.06,4.34A1.63,1.63,0,0,1,57.39,29.18Z"/><path class="cls-7" d="M57.71,23.75c-.39-.29-.47-.84-.9-1.1-.15-.35-.51-.61-.41-1a2.21,2.21,0,0,0,1.27.68A4.55,4.55,0,0,1,57.71,23.75Z"/><path class="cls-7" d="M56,20.81a.59.59,0,0,1,.19.41C56,21.13,56,21,56,20.81Z"/><path class="cls-7" d="M56.2,21.24a.56.56,0,0,1,.21.38C56.24,21.55,56.23,21.39,56.2,21.24Z"/><path class="cls-15" d="M47.46,36.75a.2.2,0,0,1-.21-.24C47.35,36.56,47.51,36.56,47.46,36.75Z"/><path class="cls-18" d="M75.72,55.45c.53-.23.61-.75.76-1.21a18.41,18.41,0,0,1,2.16-4.86,5,5,0,0,1,2.26-2,19.36,19.36,0,0,1,3.73-1.49,2.56,2.56,0,0,0,2.7,1.38A2.83,2.83,0,0,0,90,45.5a32.26,32.26,0,0,0,3.2,1.19c.2.47.69.44,1,.63A6.94,6.94,0,0,1,97,49.88c.21.59.41,1.18.62,1.76.78,2.1,1.28,4.27,2,6.39l1.08,3.78a3.85,3.85,0,0,0,.83,1.44c1.54,1.75,3,3.55,4.45,5.4a5.91,5.91,0,0,1,1.14,2.14.57.57,0,0,0,0,.13A4.28,4.28,0,0,0,105,72.76a.91.91,0,0,1-1.09-.08c-.89-.57-1.57-1.4-2.5-1.92a5,5,0,0,0-1.6-1.4c-1.15-1.27-2.38-2.45-3.62-3.63,0-.07-.07-.07-.09,0s0,0,0,0c.12.48.09,1,.17,1.47a39.52,39.52,0,0,1,.93,6.31c-.11.61.14,1.31-.42,1.82a9.61,9.61,0,0,0-1.86.17A76.84,76.84,0,0,1,86,76a14.66,14.66,0,0,1-1.88,0c-1.33-.23-2.69-.15-4-.35a8.3,8.3,0,0,1-1.42-3.11c-.39-2.8-.77-5.61-1.22-8.4S76.43,58.29,75.72,55.45Z"/><path class="cls-5" d="M84.26,80.73c-1.84-.16-3.68,0-5.52-.07a1.51,1.51,0,0,1-.08-.67,1.33,1.33,0,0,0,1.23-.94c-.76-.46-.76-.46-.38-1.33h1a5.62,5.62,0,0,0,1.39.38l.22,0,1.37.19.42,0,1.37.16.43,0h3.58l1.36,0a.38.38,0,0,0,.43-.08l1.39-.06.4,0,1.39-.18.2,0,1.19-.18a.4.4,0,0,0,.4-.12l.76,0A51.61,51.61,0,0,1,96,87.94c-.35,2.35-.75,4.7-1,7.06a20.83,20.83,0,0,0,.09,5,22.93,22.93,0,0,1,.08,2.49,72.37,72.37,0,0,1-.57,10.19c-.17,1.5-.4,3-.44,4.53a1.1,1.1,0,0,1-.6,1,13.91,13.91,0,0,1-3.35,0,.86.86,0,0,1-.64-.87,23.24,23.24,0,0,0-.21-2.36c-.34-2.51-.53-5-.8-7.55-.15-1.11-.11-2.24-.21-3.35-.3-3.32-.68-6.63-.82-10a2.35,2.35,0,0,0,.66-1.81c0-2.31,0-4.62,0-6.94,0-1,0-2,0-3,0-1.25-.58-1.82-1.81-1.84a6.81,6.81,0,0,0-.78,0A4.63,4.63,0,0,0,84.26,80.73Z"/><path class="cls-11" d="M107.11,70.92a.57.57,0,0,1,0-.13c1.25-.07,2.5.07,3.75-.08V29.92c-3.75.29-7.39.64-11.07,1.06v1.25q0,12.33,0,24.66c0,.38.16.8-.18,1.14-.7-2.12-1.2-4.29-2-6.39-.21-.58-.41-1.17-.62-1.76.16-7.17-.24-14.35.28-21.58a8,8,0,0,1,2.3-.25c1.21-.09,2.42-.25,3.64-.29a18.37,18.37,0,0,0,3.13-.33,15.6,15.6,0,0,1,2.36-.16,23.55,23.55,0,0,1,4.92-.22V74c-1,.34-1.95-.05-2.92-.06a3.76,3.76,0,0,1-1.48-1.38c1.56-.07,1.56-.07,1.83-.56A33,33,0,0,1,107.11,70.92Z"/><path class="cls-11" d="M113.66,85.31v31L97.37,114a2.2,2.2,0,0,1-.17-1.21q0-11.09,0-22.18c0-1.71-.32-3.42-.19-5.14a3.79,3.79,0,0,1,.08-1,2.88,2.88,0,0,1,1.62-.08c1.54.22,3.09.22,4.62.37,1.71.16,3.43.1,5.12.37a4.1,4.1,0,0,0,1,0C110.83,85,112.18,85.38,113.66,85.31ZM110.79,113c.25-1.47.18-24.41-.06-25.16a22.64,22.64,0,0,1-4.72-.22,42,42,0,0,1-4.33-.32,3.23,3.23,0,0,0-1.82.08v24.11Z"/><path class="cls-9" d="M80.83,37.55A3.18,3.18,0,0,1,80,35.4a7.26,7.26,0,0,1,1-5.23,6.56,6.56,0,0,1,3.65-2.38,10,10,0,0,1,3.68-.4c1.14-2.08,2.91-2.23,4.89-1.79A4.41,4.41,0,0,1,95.34,28a3.88,3.88,0,0,1-.78,4c-.15.18-.32.34-.53.57a8.39,8.39,0,0,1,.39,3.46,7.62,7.62,0,0,1-1,4.06,1.33,1.33,0,0,0-.21.75.8.8,0,0,0-.65.38,4.43,4.43,0,0,1-2.5,1.42c.15-1.12.42-2.14,1.72-2.47a1.36,1.36,0,0,0,.66-.43,1.93,1.93,0,0,0,.08-2.23c-.46-.52-1-.19-1.45,0-.07,0-.12,0-.21-.07a2.21,2.21,0,0,0-.83-1c-.73-.37-1.44-.8-2.18-1.18a14.86,14.86,0,0,1-3.62-2.73c-.41-.41-.6-1-1.07-1.4a6.73,6.73,0,0,0-2.08,3.47A18.3,18.3,0,0,0,80.83,37.55Z"/><path class="cls-11" d="M101.4,70.76c.93.52,1.61,1.35,2.5,1.92a.91.91,0,0,0,1.09.08c.32.16.41.51.57.79-.28.36-.67.18-1,.2-2.44.15-4.87-.26-7.31-.2a39.52,39.52,0,0,0-.93-6.31c-.08-.49,0-1-.17-1.47l0,0c1.24,1.18,2.47,2.36,3.62,3.63a2.3,2.3,0,0,0,.1,1.13A4.06,4.06,0,0,0,101.4,70.76Z"/><path class="cls-8" d="M105.56,73.55c-.16-.28-.25-.63-.57-.79a4.28,4.28,0,0,1,2.12-1.84,33,33,0,0,0,4,1.12c-.27.49-.27.49-1.83.56A3.76,3.76,0,0,0,110.71,74c.47.67,1.21,1.11,1.66,1.85-.62.56-1,1.37-2,1.4l-.68-.38a.7.7,0,0,1-1.14,0A19.28,19.28,0,0,1,105.56,73.55Z"/><path class="cls-18" d="M83.87,78.33l-.42,0a7.14,7.14,0,0,1,.18-1.88,1.9,1.9,0,0,0-1.33,0c0,.58-.3,1.09-.22,1.66l-.22,0a5.05,5.05,0,0,0-.12-1.93A5.93,5.93,0,0,1,80.27,76a.4.4,0,0,1-.18-.39c1.33.2,2.69.12,4,.35A14.66,14.66,0,0,0,86,76a76.84,76.84,0,0,0,9-.42,9.61,9.61,0,0,1,1.86-.17l0,.36c-.24,0-.52-.06-.79.23v1.86a.4.4,0,0,1-.4.12A6.54,6.54,0,0,0,95.5,76a1.3,1.3,0,0,0-1.08.1v2l-.2,0v-.89c0-1.13-.12-1.22-1.36-1a12.62,12.62,0,0,0,0,2l-.4,0a7,7,0,0,0-.11-1.94,2,2,0,0,0-1.24,0,11.67,11.67,0,0,0,0,2,.38.38,0,0,1-.43.08,5.94,5.94,0,0,0-.1-2.1,2.19,2.19,0,0,0-1.26.09v2h-.42a7,7,0,0,0-.1-2.09c-.73-.11-.73-.11-1.27.34,0,.12,0,.25,0,.38,0,.46,0,.92,0,1.37H87c-.15-.64.45-1.26.06-2a6.21,6.21,0,0,1-1.39-.13,10.59,10.59,0,0,0,0,2.1l-.43,0a10.92,10.92,0,0,0,0-2.06,2,2,0,0,0-1.35,0Z"/><path class="cls-19" d="M83.87,78.33l-.42,0a7.14,7.14,0,0,1,.18-1.88,1.9,1.9,0,0,0-1.33,0c0,.58-.3,1.09-.22,1.66l-.22,0a5.05,5.05,0,0,0-.12-1.93A5.93,5.93,0,0,1,80.27,76a.4.4,0,0,1-.18-.39c1.33.2,2.69.12,4,.35A14.66,14.66,0,0,0,86,76a76.84,76.84,0,0,0,9-.42,9.61,9.61,0,0,1,1.86-.17l0,.36c-.24,0-.52-.06-.79.23v1.86a.4.4,0,0,1-.4.12A6.54,6.54,0,0,0,95.5,76a1.3,1.3,0,0,0-1.08.1v2l-.2,0v-.89c0-1.13-.12-1.22-1.36-1a12.62,12.62,0,0,0,0,2l-.4,0a7,7,0,0,0-.11-1.94,2,2,0,0,0-1.24,0,11.67,11.67,0,0,0,0,2,.38.38,0,0,1-.43.08,5.94,5.94,0,0,0-.1-2.1,2.19,2.19,0,0,0-1.26.09v2h-.42a7,7,0,0,0-.1-2.09c-.73-.11-.73-.11-1.27.34,0,.12,0,.25,0,.38,0,.46,0,.92,0,1.37H87c-.15-.64.45-1.26.06-2a6.21,6.21,0,0,1-1.39-.13,10.59,10.59,0,0,0,0,2.1l-.43,0a10.92,10.92,0,0,0,0-2.06,2,2,0,0,0-1.35,0Z"/><path class="cls-8" d="M90.26,118.35a13.91,13.91,0,0,0,3.35,0,1.15,1.15,0,0,0,.52,1.06,6.17,6.17,0,0,0,1.07,1c.34.63,1.07.86,1.48,1.42a1.47,1.47,0,0,1-1.67.48,8.83,8.83,0,0,1-4.8-2.49Z"/><path class="cls-3" d="M90.05,42.72a4.43,4.43,0,0,0,2.5-1.42.8.8,0,0,1,.65-.38l0,5.77A32.26,32.26,0,0,1,90,45.5Z"/><path class="cls-18" d="M96,77.82V76c.27-.29.55-.19.79-.23a2.34,2.34,0,0,1,0,2Z"/><path class="cls-5" d="M80.88,124.11a14.52,14.52,0,0,1-3.91.4c.15.58.31,1.1-.11,1.55a17.14,17.14,0,0,1-5.76.13l-.58,0a6.82,6.82,0,0,0-2.54-.26,19.79,19.79,0,0,1-2.56-.22c-1,0-1.15-.79-1.27-1.56a.38.38,0,0,0,.18-.33,26.87,26.87,0,0,1,.26-3.23,17.61,17.61,0,0,0,3.4.37,9.1,9.1,0,0,1,2-.21c1.45,1.69,3.43,2.35,5.45,2.93a3.4,3.4,0,0,1,2.66-1.93c.63.65,1.41.44,2.13.29A9.91,9.91,0,0,0,85,119.51a5.4,5.4,0,0,1,.25,1.83,1.37,1.37,0,0,1-.88,1.4,6.23,6.23,0,0,1-1.2.39A7.31,7.31,0,0,0,80.88,124.11Z"/><path class="cls-11" d="M58.42,134.72c2.2-2.66,4.36-5.11,6.55-7.63h5.72c1.89,0,3.78,0,5.67,0,3.6,0,7.19,0,10.79,0s7.3,0,10.94,0,7.24,0,10.85,0a2.72,2.72,0,0,1,2.37,1.12l5,6.23a.76.76,0,0,1,.11.26C115.74,134.89,60.2,135,58.42,134.72Zm1-.33c6.23-.12,12.43.08,18.63.07s12.47,0,18.7,0h18.71a2.21,2.21,0,0,0-.52-1c-1.5-1.75-3-3.48-4.45-5.29a1.56,1.56,0,0,0-1.41-.66H79.29a3.54,3.54,0,0,0-1.43.31,3.09,3.09,0,0,1-2.44.4c-.15-.21.19-.48-.19-.7-3.1,0-6.28,0-9.46,0a1,1,0,0,0-.88.49c-.67.78-1.28,1.6-2,2.31A16.07,16.07,0,0,0,61,132.43,10.41,10.41,0,0,0,59.47,134.39Z"/><path class="cls-9" d="M58,131.29c.06-.18.13-.16.2,0Z"/><path class="cls-5" d="M44,124.73a12.24,12.24,0,0,0,7.12,2.75c.4,0,1,.16,1.07-.54l.37-2.65a21.73,21.73,0,0,0,.84-3.36,20,20,0,0,0,4.37-.05,18.32,18.32,0,0,0,.43,1.81c.16.48.1,1.06.57,1.42a7.77,7.77,0,0,0,.26,1.65c.09,1-.11,1.5-1,1.87a5.49,5.49,0,0,1-3.1.38,1.29,1.29,0,0,0-.58-.07s0,.08,0,.1c.72,1,.48,1.68-.72,1.81a12.27,12.27,0,0,1-3.26,0,12.93,12.93,0,0,1-2.59-.65,3.6,3.6,0,0,0-1.73-.3,3.4,3.4,0,0,1-1.16-.19c-1.21-.31-1.23-.35-1.27-1.6a3.23,3.23,0,0,0-.08-1C43.76,125.65,43.58,125.08,44,124.73Z"/><path class="cls-9" d="M44,124.73c-.45.35-.27.92-.48,1.36a19.42,19.42,0,0,0-4.1.22c-.26-.25-.12-.67-.39-.91a2.46,2.46,0,0,1-.16-1.11H44Z"/><path class="cls-5" d="M93.62,124.12A7,7,0,0,0,91,123a1.93,1.93,0,0,1-.82-3.28,8.83,8.83,0,0,0,4.8,2.49,1.47,1.47,0,0,0,1.67-.48,3.67,3.67,0,0,1,2.2,1.63c.24.28.07.62-.11.91a4.79,4.79,0,0,1-3.35.3A16.43,16.43,0,0,1,93.62,124.12Z"/><path class="cls-6" d="M60.18,107.59a4.5,4.5,0,0,0-.2,1.55c0,1.81-.27,3.59-.35,5.39-.06,1.47-.27,2.94-.25,4.42,0,1.29,0,1.29-1.24,1.76a.61.61,0,0,0-.34.17,20,20,0,0,1-4.37.05c-2.22-.86-1.71-.44-1.85-2.65-.24-3.5-.1-7-.24-10.52-.08-2-.1-4-.09-6,0-1.26.11-2.51.17-3.77A8.07,8.07,0,0,0,54,96.89c0-2.6,0-5.21-.11-7.82a9.58,9.58,0,0,1,2.56.22c1.57.23,3.16.11,4.73.35,0,2-.26,3.94-.39,5.91s-.31,4.14-.39,6.21A56.71,56.71,0,0,0,60.18,107.59Z"/><path class="cls-8" d="M54.62,82.4a2.18,2.18,0,0,1-.35-1.84,7.16,7.16,0,0,0,.11-4.15c-.1-.55-.15-1.1-.2-1.65l2.63-.83c.25,1.29.56,2.56.73,3.86a7.77,7.77,0,0,1-1,4.43c-.15.33-.37.34-.59,0-.32.21-.29.73-.7.86s-.41-.35-.49-.62C54.75,82.41,54.73,82.36,54.62,82.4Z"/><path class="cls-9" d="M52.59,124.29l-.37,2.65a11,11,0,0,1-3.59-2.64Z"/><path class="cls-20" d="M51.23,47.13a.88.88,0,0,1-.86.9,1,1,0,0,1-.9-.89.86.86,0,0,1,.87-.87A.87.87,0,0,1,51.23,47.13Z"/><path class="cls-8" d="M80.09,75.56a.4.4,0,0,0,.18.39c0,.6.3,1.16.2,1.77h-1c-.38.87-.38.87.38,1.33a1.33,1.33,0,0,1-1.23.94c-.49,0-1,0-1.47-.09a2.09,2.09,0,0,1-2-1.06,3,3,0,0,0,0-1.08l.23-.25c.89-.05,1.82-.29,2.61.41,0-1.15,0-1.15-1-1.18a5.29,5.29,0,0,0-1.54.19c0-.75,0-1.51,0-2.27a5.51,5.51,0,0,0-.12-1.76c-.8-2.53-1.7-5-2.65-7.5-.2-1.94-.47-3.86-.57-5.8s-.3-3.68-.25-5.53l0-4.73a1.49,1.49,0,0,1,.2-1h0c1,0,1.8-.59,2.73-.77.15,2,.27,4,.45,6a16.13,16.13,0,0,0,.4,1.93c.71,2.84,1.27,5.71,1.73,8.6s.83,5.6,1.22,8.4A8.3,8.3,0,0,0,80.09,75.56Z"/><path class="cls-8" d="M90.05,42.72l0,2.78a2.83,2.83,0,0,1-2.69,1.78,2.56,2.56,0,0,1-2.7-1.38V44.59a9.27,9.27,0,0,1-2-1,5.42,5.42,0,0,1-1.73-4c-.06-.68,0-1.38-.06-2.07a18.3,18.3,0,0,1,.24-2.86,6.73,6.73,0,0,1,2.08-3.47c.47.39.66,1,1.07,1.4a14.86,14.86,0,0,0,3.62,2.73c.74.38,1.45.81,2.18,1.18a2.21,2.21,0,0,1,.83,1c.09.11.14.1.21.07.48-.21,1-.54,1.45,0a1.93,1.93,0,0,1-.08,2.23,1.36,1.36,0,0,1-.66.43C90.47,40.58,90.2,41.6,90.05,42.72ZM85.73,35.9a4.34,4.34,0,0,1,1.87.39C87.05,35.26,86.47,35.13,85.73,35.9Zm-3.46.77c-.21.43-.55.76-.13,1.18a.36.36,0,0,0,.59-.06C83,37.36,82.92,37,82.27,36.67Zm3.84,1.46c.52-.35.68-.67.51-1a.34.34,0,0,0-.41-.19c-.49.2-.4.6-.3,1C85.92,38,86,38,86.11,38.13Zm-2.52-2.19c-.83-.79-1.35-.75-1.91,0C82.23,35.54,82.8,35.85,83.59,35.94ZM85.32,41a3.39,3.39,0,0,1-2.08.13C84.39,41.84,84.42,41.84,85.32,41Z"/><path class="cls-6" d="M74.87,47.53c-.93.18-1.74.8-2.73.77,0-1.94,0-3.89,0-5.84a6,6,0,0,0-.35-2.14c0,2.48,0,5,0,7.43,0,.31.08.52.41.56a1.49,1.49,0,0,0-.2,1l0,4.73a16.79,16.79,0,0,1-1.56-4.77,57.44,57.44,0,0,1-.83-7.17,54.62,54.62,0,0,0-2.15-12c1.32,0,2.26.83,3.3,1.45,1.7,1,2.22,2.8,2.86,4.5,1.26,3.39,2.19,6.9,3.12,10.44C76.22,47.16,75.4,47.09,74.87,47.53Z"/><path class="cls-21" d="M65.16,23.47a1.32,1.32,0,0,1-1.43.94c-.62-.06-1-.41-1.22-1.17Z"/><path class="cls-7" d="M62.94,18.11l-2.47.21a1.66,1.66,0,0,1,2.44-.45Z"/><path class="cls-7" d="M65.09,18.08a1,1,0,0,1,1.31-.54c.4.1.92.1,1,.87C66.62,18,65.86,18.32,65.09,18.08Z"/><path class="cls-7" d="M66.2,20.33l-.15,0c-.45-.47-.53-.88-.22-1.16s.45-.2.58.05C66.66,19.63,66.67,20.06,66.2,20.33Z"/><path class="cls-7" d="M62,20.27c-.54-.69-.54-.69-.05-1.33C62.68,19.46,62.69,19.6,62,20.27Z"/><path class="cls-6" d="M64.59,120.55c-1.22-.48-1.22-.48-1.22-1.89,0-2.18-.18-4.36-.26-6.53-.06-1.52-.07-3-.15-4.55a7.4,7.4,0,0,0-.19-1.56c0-3-.28-5.91-.36-8.86-.07-2.5-.24-5-.25-7.5,2.27,0,4.52-.3,6.78-.38l0,2.59v.59c0,1.05.24,1.38,1.17,1.76l1.76.1a6.61,6.61,0,0,1-.17,1.77c0,2.27,0,4.55-.17,6.83-.15,1.54,0,3.11,0,4.67,0,1.34-.12,2.69-.15,4-.06,2.53-.2,5.06-.25,7.6,0,.94,0,.94-1,1.32a.76.76,0,0,0-.23.17,9.1,9.1,0,0,0-2,.21A17.61,17.61,0,0,1,64.59,120.55Z"/><path class="cls-5" d="M86.28,107.58c-.29,2.84-.39,5.7-.8,8.53a3,3,0,0,0,0,.79,1.13,1.13,0,0,1-.61,1.21,11.9,11.9,0,0,1-3.37.12,1,1,0,0,1-.64-.78c-.14-.65-.09-1.31-.18-2-.4-2.62-.43-5.29-.8-7.92-.15-2.07-.24-4.14-.46-6.21-.09-.82-.13-1.64-.21-2.46a24.32,24.32,0,0,1-.29-4.43c1.85-.06,3.71.12,5.56,0a3.88,3.88,0,0,0,1.4,0l0,0H86a2.26,2.26,0,0,1,0,1.36,12.94,12.94,0,0,0,.14,4.12,36.36,36.36,0,0,1,.22,5.52A20.35,20.35,0,0,0,86.28,107.58Z"/><path class="cls-3" d="M78.9,94.47a24.32,24.32,0,0,0,.29,4.43c.08.82.12,1.64.21,2.46.22,2.07.31,4.14.46,6.21l-8.33,0c0-1.56-.12-3.13,0-4.67.22-2.28.12-4.56.17-6.83a6.61,6.61,0,0,0,.17-1.77,15.57,15.57,0,0,1,3,.1C76.26,94.5,77.58,94.46,78.9,94.47Z"/><path class="cls-3" d="M62.16,89.66c0,2.5.18,5,.25,7.5.08,3,.35,5.9.36,8.86a7.4,7.4,0,0,1,.19,1.56H60.18a56.71,56.71,0,0,1,.24-5.83c.08-2.07.26-4.14.39-6.21s.35-3.93.39-5.91Z"/><path class="cls-18" d="M77,83.68a3.87,3.87,0,1,1-3.76,3.83A3.86,3.86,0,0,1,77,83.68ZM76.39,85c-.2.56,0,1.12-.22,1.66l-1.58.1a2.9,2.9,0,0,0,0,1.44c.55.17,1.09,0,1.58.17.19.54,0,1.08.19,1.63a3.76,3.76,0,0,0,1.34,0c.25-.55-.08-1.15.2-1.62.53-.21,1,.06,1.53-.22a3.08,3.08,0,0,0-.06-1.32c-.52-.17-1,.05-1.48-.2-.16-.54,0-1.09-.19-1.61A3.6,3.6,0,0,0,76.39,85Z"/><path class="cls-18" d="M62.85,44.52a3.69,3.69,0,0,1,3.65,3.59,3.63,3.63,0,1,1-7.26,0A3.66,3.66,0,0,1,62.85,44.52Zm-2.26,3a2.79,2.79,0,0,0,0,1.19c.48.23,1,0,1.45.21.22.47,0,1,.21,1.46a2.48,2.48,0,0,0,1.15,0c.28-.49,0-1.06.25-1.52.47-.2,1,.09,1.45-.19a2.74,2.74,0,0,0,0-1.14c-.51-.27-1,0-1.51-.25-.18-.49.08-1-.17-1.53a3,3,0,0,0-1.19,0c-.27.47,0,1-.26,1.46A8.08,8.08,0,0,0,60.59,47.56Z"/><path class="cls-15" d="M85.86,94.47a3.88,3.88,0,0,1-1.4,0,4.62,4.62,0,0,0,.2-1.66c0-3.11,0-6.23,0-9.35a6,6,0,0,0-.41-2.71,4.63,4.63,0,0,1,1.39,0,5.34,5.34,0,0,1,.61,2.94c0,2.52,0,5,0,7.56A8.57,8.57,0,0,1,85.86,94.47Z"/><path class="cls-3" d="M75.46,77.51l-.23.25a1.49,1.49,0,0,0-1.53,1.43c0,.45,0,.91-.06,1.36-.4-.28-.29-.71-.3-1.09,0-1.69.07-3.39,0-5.07-.17-2.43-.21-4.88-.52-7.31a13.42,13.42,0,0,1,0-1.68c1,2.47,1.85,5,2.65,7.5a5.51,5.51,0,0,1,.12,1.76c0,.76,0,1.52,0,2.27Z"/><path class="cls-3" d="M75.23,78.84a2.09,2.09,0,0,0,2,1.06c.49,0,1,.07,1.47.09a1.51,1.51,0,0,0,.08.67,19.4,19.4,0,0,1-4-.07c0-.33,0-.66,0-1A.73.73,0,0,1,75.23,78.84Z"/><path class="cls-15" d="M69,91.87l0-2.59c.58-.64,1.16-.37,1.82,0-.43.69-.54,1.48-1,2.14A.81.81,0,0,1,69,91.87Z"/><path class="cls-5" d="M75.23,78.84a.73.73,0,0,0-.51.76c0,.33,0,.66,0,1l-1.07,0c0-.45,0-.91.06-1.36a1.49,1.49,0,0,1,1.53-1.43A3,3,0,0,1,75.23,78.84Z"/><path class="cls-15" d="M70.14,94.22c-.93-.38-1.15-.71-1.17-1.76a3.6,3.6,0,0,1,.58,0,6.27,6.27,0,0,1,.74.29C70.29,93.28,70,93.73,70.14,94.22Z"/><path class="cls-15" d="M54.62,82.4c.11,0,.13,0,.11.1A.27.27,0,0,1,54.62,82.4Z"/><path class="cls-12" d="M99.6,58c.34-.34.18-.76.18-1.14q0-12.33,0-24.66V31c3.68-.42,7.32-.77,11.07-1.06V70.71c-1.25.15-2.5,0-3.75.08A5.91,5.91,0,0,0,106,68.65c-1.42-1.85-2.91-3.65-4.45-5.4a3.85,3.85,0,0,1-.83-1.44Z"/><path class="cls-12" d="M101.4,70.76a4.06,4.06,0,0,1-1.5-.27,2.3,2.3,0,0,1-.1-1.13A5,5,0,0,1,101.4,70.76Z"/><path class="cls-13" d="M96.14,65.77s-.06,0,0,0,0-.06.09,0Z"/><path class="cls-5" d="M85.86,94.47a8.57,8.57,0,0,0,.39-3.22c0-2.52,0-5,0-7.56a5.34,5.34,0,0,0-.61-2.94,6.81,6.81,0,0,1,.78,0c1.23,0,1.79.59,1.81,1.84,0,1,0,2,0,3,0,2.32,0,4.63,0,6.94a2.35,2.35,0,0,1-.66,1.81c-.49.37-1.08.12-1.6.25h-.07Z"/><path class="cls-22" d="M85.86,94.47a8.57,8.57,0,0,0,.39-3.22c0-2.52,0-5,0-7.56a5.34,5.34,0,0,0-.61-2.94,6.81,6.81,0,0,1,.78,0c1.23,0,1.79.59,1.81,1.84,0,1,0,2,0,3,0,2.32,0,4.63,0,6.94a2.35,2.35,0,0,1-.66,1.81c-.49.37-1.08.12-1.6.25h-.07Z"/><path class="cls-3" d="M86,94.51c.52-.13,1.11.12,1.6-.25.14,3.33.52,6.64.82,10,.1,1.11.06,2.24.21,3.35H86.28a20.35,20.35,0,0,1,.1-2.07,36.36,36.36,0,0,0-.22-5.52A12.94,12.94,0,0,1,86,95.87,2.26,2.26,0,0,0,86,94.51Z"/><path class="cls-18" d="M89.25,78.51v-2a2.19,2.19,0,0,1,1.26-.09,5.94,5.94,0,0,1,.1,2.1Z"/><path class="cls-18" d="M85.67,78.51a10.59,10.59,0,0,1,0-2.1,6.21,6.21,0,0,0,1.39.13c.39.72-.21,1.34-.06,2Z"/><path class="cls-18" d="M87.46,78.51c0-.45,0-.91,0-1.37,0-.13,0-.26,0-.38.54-.45.54-.45,1.27-.34a7,7,0,0,1,.1,2.09Z"/><path class="cls-18" d="M92.83,78.32a12.62,12.62,0,0,1,0-2c1.24-.25,1.35-.16,1.36,1v.89Z"/><path class="cls-18" d="M83.87,78.33V76.47a2,2,0,0,1,1.35,0,10.92,10.92,0,0,1,0,2.06Z"/><path class="cls-18" d="M91,78.41a11.67,11.67,0,0,1,0-2,2,2,0,0,1,1.24,0,7,7,0,0,1,.11,1.94Z"/><path class="cls-18" d="M80.47,77.72c.1-.61-.23-1.17-.2-1.77a5.93,5.93,0,0,0,1.47.22,5.05,5.05,0,0,1,.12,1.93A5.62,5.62,0,0,1,80.47,77.72Z"/><path class="cls-18" d="M94.42,78.12v-2A1.3,1.3,0,0,1,95.5,76a6.54,6.54,0,0,1,.11,1.93Z"/><path class="cls-18" d="M82.08,78.12c-.08-.57.26-1.08.22-1.66a1.9,1.9,0,0,1,1.33,0,7.14,7.14,0,0,0-.18,1.88Z"/><path class="cls-12" d="M110.79,113l-10.93-1.51V87.41a3.23,3.23,0,0,1,1.82-.08,42,42,0,0,0,4.33.32,22.64,22.64,0,0,0,4.72.22C111,88.62,111,111.56,110.79,113Z"/><path class="cls-8" d="M78.05,121.71a2.51,2.51,0,0,1,1.07-1,11.49,11.49,0,0,0,1.95-1.66,1.06,1.06,0,0,0,.41-.85,11.9,11.9,0,0,0,3.37-.12,5.08,5.08,0,0,0,.18,1.4A9.91,9.91,0,0,1,80.18,122C79.46,122.15,78.68,122.36,78.05,121.71Z"/><path class="cls-12" d="M59.47,134.39a10.41,10.41,0,0,1,1.49-2,16.07,16.07,0,0,1,1.91-2.14c.74-.71,1.35-1.53,2-2.31a1,1,0,0,1,.88-.49c3.18,0,6.36,0,9.46,0,.38.22,0,.49.19.7a3.09,3.09,0,0,0,2.44-.4,3.54,3.54,0,0,1,1.43-.31h29.84a1.56,1.56,0,0,1,1.41.66c1.43,1.81,2.95,3.54,4.45,5.29a2.21,2.21,0,0,1,.52,1H96.8c-6.23,0-12.47,0-18.7,0S65.7,134.27,59.47,134.39Zm5.33-2.7,0,.28a3.61,3.61,0,0,0,.46.17c1.88.44,3.77.89,5.66,1.31a1.28,1.28,0,0,0,.76.11,38.39,38.39,0,0,1,4.25-.82,9.4,9.4,0,0,1,3.31-.45c2.06.41,4.15.67,6.2,1.09a9.8,9.8,0,0,0,4.21,0c2.21-.5,4.48-.65,6.69-1.12a2.05,2.05,0,0,1,.89,0c1.89.46,3.82.66,5.71,1.08a3.47,3.47,0,0,0,1.47,0c1.87-.39,3.71-.89,5.59-1.16.24,0,.45-.14.38-.45-1.6-.6-3.33-.62-5.1-1.17,1.37-.58,2.74-.61,4-1.09,0-.28-.19-.39-.35-.42q-2.54-.39-5-1a1.52,1.52,0,0,0-.6,0l-3.77.71a10.74,10.74,0,0,1-3.11.42c-2.24-.28-4.46-.79-6.7-1.1a8.2,8.2,0,0,0-2.15-.24c-1.1.16-2.2.35-3.31.49a34.76,34.76,0,0,1-5.67.72c-.83,0-1.62-.29-2.43-.38-.57-.06-1.1-.09-1.4-.61-1.5.39-3-.19-4.44.29s-2.89.44-4.28,1c1.39.68,3,.59,4.33,1.2C68.53,131,66.62,131.18,64.8,131.69Z"/><path class="cls-12" d="M75.46,77.51l0-.58A5.29,5.29,0,0,1,77,76.74c1,0,1,0,1,1.18C77.28,77.22,76.35,77.46,75.46,77.51Z"/><path class="cls-9" d="M85.73,35.9c.74-.77,1.32-.64,1.87.39A4.34,4.34,0,0,0,85.73,35.9Z"/><path class="cls-7" d="M82.27,36.67c.65.31.71.69.46,1.12a.36.36,0,0,1-.59.06C81.72,37.43,82.06,37.1,82.27,36.67Z"/><path class="cls-7" d="M86.11,38.13c-.11-.1-.19-.14-.2-.19-.1-.39-.19-.79.3-1a.34.34,0,0,1,.41.19C86.79,37.46,86.63,37.78,86.11,38.13Z"/><path class="cls-9" d="M83.59,35.94c-.79-.09-1.36-.4-1.91,0C82.24,35.19,82.76,35.15,83.59,35.94Z"/><path class="cls-12" d="M85.32,41c-.9.81-.93.81-2.08.13A3.39,3.39,0,0,0,85.32,41Z"/><path class="cls-6" d="M72.14,48.31c-.33,0-.41-.25-.41-.56,0-2.47,0-5,0-7.43a6,6,0,0,1,.35,2.14c0,1.95,0,3.9,0,5.84Z"/><path class="cls-19" d="M72.14,48.31c-.33,0-.41-.25-.41-.56,0-2.47,0-5,0-7.43a6,6,0,0,1,.35,2.14c0,1.95,0,3.9,0,5.84Z"/><path class="cls-17" d="M76.39,85a3.6,3.6,0,0,1,1.35,0c.24.52,0,1.07.19,1.61.44.25,1,0,1.48.2a3.08,3.08,0,0,1,.06,1.32c-.48.28-1,0-1.53.22-.28.47,0,1.07-.2,1.62a3.76,3.76,0,0,1-1.34,0c-.21-.55,0-1.09-.19-1.63-.49-.22-1,0-1.58-.17a2.9,2.9,0,0,1,0-1.44l1.58-.1C76.42,86.15,76.19,85.59,76.39,85Z"/><path class="cls-17" d="M60.59,47.56A8.08,8.08,0,0,1,62,47.28c.29-.45,0-1,.26-1.46a3,3,0,0,1,1.19,0c.25.49,0,1,.17,1.53.47.27,1,0,1.51.25a2.74,2.74,0,0,1,0,1.14c-.45.28-1,0-1.45.19-.3.46,0,1-.25,1.52a2.48,2.48,0,0,1-1.15,0c-.26-.46,0-1-.21-1.46-.44-.25-1,0-1.45-.21A2.79,2.79,0,0,1,60.59,47.56Z"/><path class="cls-11" d="M64.8,131.69c1.82-.51,3.73-.66,5.58-1.09-1.38-.61-2.94-.52-4.33-1.2,1.39-.56,2.91-.55,4.28-1s2.94.1,4.44-.29c.3.52.83.55,1.4.61.81.09,1.6.35,2.43.38a34.76,34.76,0,0,0,5.67-.72c1.11-.14,2.21-.33,3.31-.49a8.2,8.2,0,0,1,2.15.24c2.24.31,4.46.82,6.7,1.1a10.74,10.74,0,0,0,3.11-.42l3.77-.71a1.52,1.52,0,0,1,.6,0q2.49.6,5,1c.16,0,.3.14.35.42-1.21.48-2.58.51-4,1.09,1.77.55,3.5.57,5.1,1.17.07.31-.14.42-.38.45-1.88.27-3.72.77-5.59,1.16a3.47,3.47,0,0,1-1.47,0c-1.89-.42-3.82-.62-5.71-1.08a2.05,2.05,0,0,0-.89,0c-2.21.47-4.48.62-6.69,1.12a9.8,9.8,0,0,1-4.21,0c-2-.42-4.14-.68-6.2-1.09a9.4,9.4,0,0,0-3.31.45,38.39,38.39,0,0,0-4.25.82,1.28,1.28,0,0,1-.76-.11c-1.89-.42-3.78-.87-5.66-1.31a3.61,3.61,0,0,1-.46-.17Zm16.5.26c.49.5,1,.27,1.49.37,1.56.34,3.14.63,4.72.92a1.32,1.32,0,0,0,.68-.05c1.36-.39,2.78-.43,4.15-.74a5.25,5.25,0,0,0,2-.47c-1.48-.25-2.76-.56-4-.68a11.38,11.38,0,0,0-3.59-.25c-.44.09-.89.19-1.35.24C84,131.45,82.71,131.71,81.3,132Zm13.36-2.6-6-.87a3.91,3.91,0,0,0-1.06-.14c-2.12.32-4.23.67-6.28,1C85.65,130.77,90.05,130.51,94.66,129.35Zm-4.33,1.28c0,.23.17.22.3.24,1.92.41,3.9.49,5.82,1a1.48,1.48,0,0,0,.88,0,24.07,24.07,0,0,1,3.37-.73,4.24,4.24,0,0,0,1.42-.39C98.15,129.27,94.24,129.71,90.33,130.63Zm-16.86.14c1.54.26,2.92.55,4.29.85a3.3,3.3,0,0,0,1.55.21c2-.59,4.14-.64,6.4-1.06C81.55,129.73,77.6,129.22,73.47,130.77Zm3.25,1.29a11.32,11.32,0,0,0-2.87-.73c-1.07-.17-2.12-.67-3.28-.28a31.43,31.43,0,0,1-4.1.74,15.16,15.16,0,0,0,2.55.69,6.93,6.93,0,0,0,4.43.21A27,27,0,0,1,76.72,132.06Zm31.94-.06c-.15-.11-.19-.17-.25-.19-1.45-.39-3-.49-4.41-.92a.82.82,0,0,0-.49,0c-1.56.47-3.2.58-4.77,1a.5.5,0,0,0,.41.26c1.14.13,2.25.4,3.38.6a3.48,3.48,0,0,0,1.55.19C105.57,132.65,107.07,132.34,108.66,132Zm-1-2.65-3.31-.67a2.65,2.65,0,0,0-1.15-.18,40.94,40.94,0,0,1-4.33.86C101.85,130.15,104.72,130.75,107.68,129.35Zm-38.19.41a4.28,4.28,0,0,0,2.85.48,23.45,23.45,0,0,0,4.36-.92C74.15,128.69,71.84,129.53,69.49,129.76Z"/><path class="cls-12" d="M81.3,132c1.41-.24,2.71-.5,4-.66.46,0,.91-.15,1.35-.24a11.38,11.38,0,0,1,3.59.25c1.29.12,2.57.43,4,.68a5.25,5.25,0,0,1-2,.47c-1.37.31-2.79.35-4.15.74a1.32,1.32,0,0,1-.68.05c-1.58-.29-3.16-.58-4.72-.92C82.33,132.22,81.79,132.45,81.3,132Z"/><path class="cls-12" d="M94.66,129.35c-4.61,1.16-9,1.42-13.35,0,2-.33,4.16-.68,6.28-1a3.91,3.91,0,0,1,1.06.14Z"/><path class="cls-12" d="M90.33,130.63c3.91-.92,7.82-1.36,11.79.05a4.24,4.24,0,0,1-1.42.39,24.07,24.07,0,0,0-3.37.73,1.48,1.48,0,0,1-.88,0c-1.92-.48-3.9-.56-5.82-1C90.5,130.85,90.36,130.86,90.33,130.63Z"/><path class="cls-12" d="M73.47,130.77c4.13-1.55,8.08-1,12.24,0-2.26.42-4.37.47-6.4,1.06a3.3,3.3,0,0,1-1.55-.21C76.39,131.32,75,131,73.47,130.77Z"/><path class="cls-12" d="M76.72,132.06a27,27,0,0,0-3.27.63,6.93,6.93,0,0,1-4.43-.21,15.16,15.16,0,0,1-2.55-.69,31.43,31.43,0,0,0,4.1-.74c1.16-.39,2.21.11,3.28.28A11.32,11.32,0,0,1,76.72,132.06Z"/><path class="cls-12" d="M108.66,132c-1.59.34-3.09.65-4.58,1a3.48,3.48,0,0,1-1.55-.19c-1.13-.2-2.24-.47-3.38-.6a.5.5,0,0,1-.41-.26c1.57-.46,3.21-.57,4.77-1a.82.82,0,0,1,.49,0c1.44.43,3,.53,4.41.92C108.47,131.83,108.51,131.89,108.66,132Z"/><path class="cls-12" d="M107.68,129.35c-3,1.4-5.83.8-8.79,0a40.94,40.94,0,0,0,4.33-.86,2.65,2.65,0,0,1,1.15.18Z"/><path class="cls-12" d="M69.49,129.76c2.35-.23,4.66-1.07,7.21-.44a23.45,23.45,0,0,1-4.36.92A4.28,4.28,0,0,1,69.49,129.76Z"/><rect class="cls-11" x="118.34" y="88.43" width="2.94" height="35.86"/><path class="cls-4" d="M30.74,41.45s-5.06,12.8-5.34,14.09A6.12,6.12,0,0,0,26,59.85C26.81,61.58,31.72,70,31.72,70l.44.61.41,0,2.84-1.73-3.3-9.76,2.12-9.59"/><path class="cls-5" d="M32.33,71.21c.42,2.26.08,5.11,1.68,5.63a4.71,4.71,0,0,0,3.57-.18c.42-.29.61-2.78.61-3.78s0-1.85,0-1.85h-6Z"/><path class="cls-23" d="M32.33,71.21c.42,2.26.08,5.11,1.68,5.63a4.71,4.71,0,0,0,3.57-.18c.42-.29.61-2.78.61-3.78s0-1.85,0-1.85h-6Z"/><path class="cls-24" d="M34.26,49.54,32.48,59.2v-.09c.54,1.58,1.11,3.15,1.6,4.75s1,3.2,1.34,4.84h0c-.65-1.55-1.2-3.13-1.75-4.7s-1-3.19-1.51-4.79v-.09l2.09-9.6Z"/><path class="cls-8" d="M41.1,26.32s1.79-1,2.25-1.35,2.19-1.85,2.25-1.87l1.72-.26,1,1.24.24.85.06,1.39s-.4,2.88-.52,3.24A7.22,7.22,0,0,1,47,31.47a27.61,27.61,0,0,1-4.1.46L41.6,27.67Z"/><polygon class="cls-8" points="59.92 17.02 59.5 20.16 60.5 23.78 63.73 25.56 65.12 25.26 65.9 24.2 67.14 20.55 67.65 18.11 66.93 16.57 61.46 16.57 59.92 17.02"/><path class="cls-25" d="M64.66,27.08A9.65,9.65,0,0,1,61.73,27c-1-.32-1-.22-1-.22l2.07,1.13,1.62.51a1.85,1.85,0,0,1-.05-.43,2.56,2.56,0,0,1,.15-.62c0-.13.25-.22.25-.22l.1-.06Z"/><path class="cls-8" d="M88.12,37.43S87.07,41.81,87,42.14s-2.23,1.33-2.65,1-3.23-4.37-3.23-4.37.24-3.11.3-3.26a4.8,4.8,0,0,1,1.66-.76l3.65.12,1.57,1Z"/><path class="cls-16" d="M84.24,44.2a8.78,8.78,0,0,0,4.15-.76c1.12-.45-2.45,1.6-3.08,1.66a3.77,3.77,0,0,1-.69,0s0-.49,0-.54-.59-.24-.72-.32S84.24,44.2,84.24,44.2Z"/><path class="cls-24" d="M54.21,48.92l2,12.42q.53,3.1.9,6.22c.06.53.12,1,.19,1.56a8.61,8.61,0,0,1,.07,1.6c0,1-.14,2.1-.27,3.14h0a17.35,17.35,0,0,0-.34-6.22c-.4-2.06-.72-4.14-1-6.22L54.16,48.92Z"/><path class="cls-26" d="M96.09,65.72s-3.27-7.28-3.43-9.17"/><path class="cls-26" d="M77.31,62.82l1-4.44c.15-.74.32-1.48.49-2.22s.38-1.46.63-2.19h0c-.11.75-.28,1.49-.42,2.24s-.34,1.47-.54,2.21l-1.11,4.41Z"/><path class="cls-27" d="M69,89.59s-.44-7.5,0-7.94.6-1,1.05-1.09,3.42-.06,3.42-.06l7.36.25,1.66.63-6.91,1.84-1.51.66-2.9,4.59-.57,5.32s-.24.51-.34.47A1.49,1.49,0,0,1,69,92.89C69,91.75,69,89.59,69,89.59Z"/></svg>