<svg id="Layer_1" data-name="Layer 1" xmlns="http://www.w3.org/2000/svg" viewBox="0 0 144 144"><defs><style>.cls-1{fill:#70829b;}.cls-2{fill:#9aa6b5;}.cls-3{fill:#fbf3e2;}.cls-4{fill:#9f9fe6;}.cls-15,.cls-5{fill:#050505;}.cls-5{opacity:0.2;}.cls-6{fill:#945843;}.cls-7{fill:#f1404c;}.cls-8{fill:#c1d4e8;}.cls-9{fill:#efa895;}.cls-10{fill:#ed9e85;}.cls-11{fill:#e48772;}.cls-12{fill:#ea9c8f;}.cls-13{fill:#fdfefe;}.cls-14{fill:#f7e6d5;}.cls-15{opacity:0.52;}.cls-16{fill:#cf7762;}.cls-17{fill:#d69d82;}.cls-18{fill:#9bbfe0;}.cls-19{fill:#bb6453;}.cls-20{fill:#7ca4cb;}.cls-21{fill:#f7ae9b;}.cls-22{fill:#8c8c8c;}.cls-23{fill:#1c1c1c;}.cls-24{fill:#744948;}.cls-25{fill:#ccc;}.cls-26{fill:#f9e4cc;}.cls-27{fill:#f3c7a4;}.cls-28{fill:#e7b89e;}.cls-29{fill:none;}</style></defs><title>geriatric-support</title><path class="cls-1" d="M4.3,117.34s-4,2.81-1.47,6.2,57.77,4,71.2,3.39,41.56-1.45,52.23-2.74,16.76-4.36,16.76-6.3-3.32-4.68-5.54-5.65-55.55-.16-71.07-1.13S13,114.26,10,115.23,4.3,117.34,4.3,117.34Z"/><path class="cls-2" d="M11.57,123.34a3.91,3.91,0,0,0,1.8.4l13.36-.25s18.57,0,29.6-.54,58.65-.27,69-1.35,12.59-3.6,13.15-4.14-4.69-5.84-46.61-4-82,3.14-83.38,3.5S3.47,118.54,5,119.71A58.64,58.64,0,0,0,11.57,123.34Z"/><path class="cls-3" d="M134.52,105c1.45-.58,1.73-.49,2.58.74a7.64,7.64,0,0,1,.77,1.4.94.94,0,0,0,.53.63,1.61,1.61,0,0,0,.18,1.14,22.94,22.94,0,0,1,2.58,6.52c0,.14.05.28.19.37a22.79,22.79,0,0,1,0,3.2c-.23,0-.37.32-.64.26a1.25,1.25,0,0,1-.12-.3,17.8,17.8,0,0,0-2.21-8c-.71-1.37-1.43-2.74-2.12-4.12A3.73,3.73,0,0,0,134.52,105Z"/><path class="cls-4" d="M91.59,61.88Zm31.12,22.39c-.82-3.86-2.15-7.62-2.47-11.58-.21-2.68-1-5.34-.2-8,0,0,0-.07,0-.1a54.67,54.67,0,0,0,.22-6.65,15.59,15.59,0,0,0-.81-4.94c-1.12-3.54-3.7-5.48-7.18-6.39a6.73,6.73,0,0,1-1.69,1.59c-1,.83-2,1.69-3,2.54a.71.71,0,0,1-.49.18c-.31.47-.62.93-1.29.86,0,.43-.3.64-.56.87A24.12,24.12,0,0,1,102.41,55a2.4,2.4,0,0,1-1.1-1.59A30.5,30.5,0,0,1,100,48.9c0-.19-.09-.34-.28-.41a6.13,6.13,0,0,0-2.53,2.36,36,36,0,0,0-3.48,6.61,24.94,24.94,0,0,1-2.12,4.42.43.43,0,0,1,0,.19c-.11.51.33.76.53,1.12.36.07.73.15.82.6h0c.54,0,1,.36,1.47.45a19.49,19.49,0,0,1,1.52-8.79,4.32,4.32,0,0,1,.3-.56s.13,0,.28-.05a8.38,8.38,0,0,1-.57,2.24,33.68,33.68,0,0,0-1.09,4.67c-.1.56.2,1,.2,1.58s0,.79,0,1.19a34.37,34.37,0,0,1,1.11,4.9c4.11-.14,8.22.51,12.34,0a17.64,17.64,0,0,0,.89-3.93.3.3,0,0,1,.08-.14,0,0,0,0,1,0,0c.05-.05.1,0,.15,0a.64.64,0,0,1,.1.13h0a27.79,27.79,0,0,1,3.1.71,26.31,26.31,0,0,0,5.09.35,1.42,1.42,0,0,1,1,0,8,8,0,0,1-.45,3.33,20.25,20.25,0,0,1-1.93,5.52,10.79,10.79,0,0,1-1.26,1.73,6,6,0,0,1-4.77,2,34.88,34.88,0,0,1-9.67-1.38c-1.44-.38-2.83-.93-4.3-1.19A48.5,48.5,0,0,1,95.12,88c-.14.59-.21,1.13.4,1.5a21.74,21.74,0,0,1,3.24,1A42.87,42.87,0,0,0,105,91.67a64.83,64.83,0,0,0,8.36.13,13.09,13.09,0,0,0,4-.51c.19-1.67.38-3.42.57-5.16l.22-.07,1.74,4.68c.71,0,1.24-.53,1.9-.45.48-.47,1.3-.43,1.71-1.14A21.18,21.18,0,0,0,122.71,84.27ZM100.89,66.61c-.26,0-.25-.29-.16-.63a19.55,19.55,0,0,1,4.1,1.8C103.38,67.84,102.23,66.9,100.89,66.61Zm7.21-7.43a7.63,7.63,0,0,1-2.19.1c-.79,0-1.58,0-2.37,0-.52,0-.6-.27-.45-.78H108C108.23,58.71,108.18,58.92,108.1,59.18Zm2-2.31A70.31,70.31,0,0,1,109,64.11c-.26-2.8.43-5.48.81-8.42A1.22,1.22,0,0,1,110.11,56.87ZM97.94,85.51a32.38,32.38,0,0,1,5,2.74C101.89,88.32,98.9,86.68,97.94,85.51Zm2.8.13a6.85,6.85,0,0,1,3.9-.33A6.59,6.59,0,0,1,100.74,85.64Zm13-3.29-6.22,0s-.09-.1-.3-.34c2.47-.16,4.79.12,7.11-.23C114.35,82.27,114.08,82.35,113.78,82.35Z"/><path class="cls-4" d="M95.52,89.49a20.6,20.6,0,0,1,3.24,1A42.87,42.87,0,0,0,105,91.67a64.83,64.83,0,0,0,8.36.13,13.09,13.09,0,0,0,4-.51c.19-1.67.38-3.42.57-5.17l.22-.06,1.74,4.68c.71,0,1.24-.54,1.9-.45l0,1.13c-.44.15-.87.31-1.32.45-1,.32-1.15.24-1.41-.78a9.65,9.65,0,0,0-.72-2.12,12.12,12.12,0,0,1,0,1.94c-.14.71,0,1.7-1.19,1.65a25,25,0,0,1-1.78,5.65c-1.21,3.06-2.65,6-4,9a26.34,26.34,0,0,0-1.9,5,2.35,2.35,0,0,0,.28,1.86,10.3,10.3,0,0,0,3.46-3.64,22.19,22.19,0,0,1,2.09-3.47c1.52-.2,3-.42,4.55-.6a14.44,14.44,0,0,1,2.79,0l.51,1a14.91,14.91,0,0,1-3.17.67c-1.61.4-3.28.57-4.87,1.07-.4.13-.86.2-1,.69a21.75,21.75,0,0,1-1.72,3.32A10.37,10.37,0,0,1,110.2,116c-.24.23-.46.58-.89.24.08-.53.64-.54.89-.87a2.32,2.32,0,0,0,.58-1.12.27.27,0,0,0,.21-.22l.09,0a.17.17,0,0,0,0-.07l-.1.11a.27.27,0,0,0-.22.2c-.76,0-1.27.6-1.89.93-.23.13-.43.27-.64-.06.07-.44.68-.4.76-.8a5.06,5.06,0,0,1,.08-3.08c.48-1.27,1-2.54,1.54-3.76,1.57-3.37,3.15-6.74,4.52-10.19a23.23,23.23,0,0,0,1.45-4.75,41.28,41.28,0,0,1-13.22-.07c-.67,1.82-1.05,3.62-1.55,5.39-1.49,5.2-3.21,10.33-3.83,15.74a8.24,8.24,0,0,0,1,5c.23.44.66.76.83,1.24a4.84,4.84,0,0,1-1.37.21c-2.35,0-4.64-.28-6.55-1.88a1.23,1.23,0,0,0-.41-.12,12.13,12.13,0,0,1-1.63-3,12.38,12.38,0,0,1-.39-3.88,7.84,7.84,0,0,0,.4-2.2c.34-1.49.63-3,1-4.49.58-2.24,1.23-4.47,1.86-6.71C93.73,95.09,94.65,92.29,95.52,89.49Z"/><path class="cls-5" d="M95.52,89.49a20.6,20.6,0,0,1,3.24,1A42.87,42.87,0,0,0,105,91.67a64.83,64.83,0,0,0,8.36.13,13.09,13.09,0,0,0,4-.51c.19-1.67.38-3.42.57-5.17l.22-.06,1.74,4.68c.71,0,1.24-.54,1.9-.45l0,1.13c-.44.15-.87.31-1.32.45-1,.32-1.15.24-1.41-.78a9.65,9.65,0,0,0-.72-2.12,12.12,12.12,0,0,1,0,1.94c-.14.71,0,1.7-1.19,1.65a25,25,0,0,1-1.78,5.65c-1.21,3.06-2.65,6-4,9a26.34,26.34,0,0,0-1.9,5,2.35,2.35,0,0,0,.28,1.86,10.3,10.3,0,0,0,3.46-3.64,22.19,22.19,0,0,1,2.09-3.47c1.52-.2,3-.42,4.55-.6a14.44,14.44,0,0,1,2.79,0l.51,1a14.91,14.91,0,0,1-3.17.67c-1.61.4-3.28.57-4.87,1.07-.4.13-.86.2-1,.69a21.75,21.75,0,0,1-1.72,3.32A10.37,10.37,0,0,1,110.2,116c-.24.23-.46.58-.89.24.08-.53.64-.54.89-.87a2.32,2.32,0,0,0,.58-1.12.27.27,0,0,0,.21-.22l.09,0a.17.17,0,0,0,0-.07l-.1.11a.27.27,0,0,0-.22.2c-.76,0-1.27.6-1.89.93-.23.13-.43.27-.64-.06.07-.44.68-.4.76-.8a5.06,5.06,0,0,1,.08-3.08c.48-1.27,1-2.54,1.54-3.76,1.57-3.37,3.15-6.74,4.52-10.19a23.23,23.23,0,0,0,1.45-4.75,41.28,41.28,0,0,1-13.22-.07c-.67,1.82-1.05,3.62-1.55,5.39-1.49,5.2-3.21,10.33-3.83,15.74a8.24,8.24,0,0,0,1,5c.23.44.66.76.83,1.24a4.84,4.84,0,0,1-1.37.21c-2.35,0-4.64-.28-6.55-1.88a1.23,1.23,0,0,0-.41-.12,12.13,12.13,0,0,1-1.63-3,12.38,12.38,0,0,1-.39-3.88,7.84,7.84,0,0,0,.4-2.2c.34-1.49.63-3,1-4.49.58-2.24,1.23-4.47,1.86-6.71C93.73,95.09,94.65,92.29,95.52,89.49Z"/><path class="cls-6" d="M114.89,27.38a5,5,0,0,1-.93,3.93,5.16,5.16,0,0,1-2.7,1.6c.54,4.12-.45,6.57-3.28,8.13-.65-.34-.43-1.14-.85-1.6l0-.42a2.41,2.41,0,0,0,1.84-3c-.25-1.11-1-1.54-2.35-1.27-.26,0-.44,0-.41.35h0c-.16,0-.26.07-.39.12a4.5,4.5,0,0,0-.92-.25,19,19,0,0,1-4.3-.72h0c-1.83-1-3.73-1.86-4.78-3.86A6.25,6.25,0,0,0,94.44,35c1.34-.58,1.58-.54,1.89.31a3.35,3.35,0,0,0-1.94.49,5.4,5.4,0,0,1-1.3-6.56,4.12,4.12,0,0,1,2.5-2.07,3,3,0,0,0,1.25-.58,8.1,8.1,0,0,1,7.5-1.89c.47.15.94.29,1.4.45s.83.06.94-.49a4,4,0,0,1,4.18-1.51A5.48,5.48,0,0,1,113.77,25,10.08,10.08,0,0,1,114.89,27.38Z"/><path class="cls-7" d="M81.88,65.32v.23a1.07,1.07,0,0,0-.31,0,2.78,2.78,0,0,0-1.59,2,1.88,1.88,0,0,0,.48,2.29,1,1,0,0,1,.18.26,3.37,3.37,0,0,1-2.57.8,22.63,22.63,0,0,1-6.34-.73c-1.33-.29-2.55-.89-3.86-1.2a22.59,22.59,0,0,1-1.26-5.25A4.21,4.21,0,0,1,67,61a6.69,6.69,0,0,0,.57-1.72,5.67,5.67,0,0,0,.31-2.3,17.52,17.52,0,0,0-1-3.47,23.83,23.83,0,0,1-1.09-3,.3.3,0,0,1,.1-.37c.31,0,.25.42.62.44a3.66,3.66,0,0,1,1-1l.2,0c0,.37,0,.7.45.83h0c0,.19,0,.37.22.43h0c0,.21,0,.39.23.48a4,4,0,0,1,.45.84c.93,2.43,1.88,4.86,2.86,7.27a4.11,4.11,0,0,0,1.4,2c0,.47.41.52.73.65,2.62,1.07,5.32,1.93,7.91,3.07A.92.92,0,0,1,81.88,65.32Z"/><path class="cls-5" d="M81.88,65.32v.23a1.07,1.07,0,0,0-.31,0,2.78,2.78,0,0,0-1.59,2,1.88,1.88,0,0,0,.48,2.29,1,1,0,0,1,.18.26,3.37,3.37,0,0,1-2.57.8,22.63,22.63,0,0,1-6.34-.73c-1.33-.29-2.55-.89-3.86-1.2a22.59,22.59,0,0,1-1.26-5.25A4.21,4.21,0,0,1,67,61a6.69,6.69,0,0,0,.57-1.72,5.67,5.67,0,0,0,.31-2.3,17.52,17.52,0,0,0-1-3.47,23.83,23.83,0,0,1-1.09-3,.3.3,0,0,1,.1-.37c.31,0,.25.42.62.44a3.66,3.66,0,0,1,1-1l.2,0c0,.37,0,.7.45.83h0c0,.19,0,.37.22.43h0c0,.21,0,.39.23.48a4,4,0,0,1,.45.84c.93,2.43,1.88,4.86,2.86,7.27a4.11,4.11,0,0,0,1.4,2c0,.47.41.52.73.65,2.62,1.07,5.32,1.93,7.91,3.07A.92.92,0,0,1,81.88,65.32Z"/><path class="cls-4" d="M115.23,107a22.19,22.19,0,0,0-2.09,3.47,10.3,10.3,0,0,1-3.46,3.64,2.35,2.35,0,0,1-.28-1.86,26.34,26.34,0,0,1,1.9-5c1.38-3,2.82-6,4-9a25,25,0,0,0,1.78-5.65c1.21,0,1-.94,1.19-1.65a12.12,12.12,0,0,0,0-1.94,9.65,9.65,0,0,1,.72,2.12c.26,1,.42,1.1,1.41.78.45-.14.88-.3,1.32-.45a5.93,5.93,0,0,1-.38,1.86,44.13,44.13,0,0,1-3.43,8.36,3.16,3.16,0,0,0-.53,1.38A22.39,22.39,0,0,0,115.23,107Z"/><path class="cls-8" d="M101.68,45.26a7.59,7.59,0,0,1-2.52.14A5,5,0,0,1,96,42.77a7.66,7.66,0,0,1-1.15-3.93c.17,0,.39,0,.52,0,1.35-.8,2.82-.62,4.27-.61a10.77,10.77,0,0,0,4.7-.69c.13.43-.4.57-.42,1a12.91,12.91,0,0,1,.66,2.52c0,.34.16.64.62.53l0,.49A8.54,8.54,0,0,1,101.68,45.26Z"/><path class="cls-9" d="M107.13,39.44c.42.46.2,1.26.85,1.6A16.15,16.15,0,0,0,109.54,46c-.07.39-.38.6-.63.84-1.65,1.64-3.48,3.08-5.25,4.58a1,1,0,0,1-.76.33,10.76,10.76,0,0,1-1.39-4.54l.26-.62a1.51,1.51,0,0,0,.72-.15A7,7,0,0,0,105.77,43a1.36,1.36,0,0,0,0-1.51A6.08,6.08,0,0,1,107.13,39.44Z"/><path class="cls-9" d="M104.93,35a19,19,0,0,1-4.3-.72h0L100,34a12.57,12.57,0,0,1-3.1-2.08,3.58,3.58,0,0,1-.26-.29,5.8,5.8,0,0,1-.8-1.16A6.24,6.24,0,0,0,94.44,35c1.34-.57,1.58-.53,1.89.32a3.35,3.35,0,0,0-1.94.49,10.26,10.26,0,0,1,.43,3c.17,0,.39,0,.52,0,1.34-.8,2.82-.62,4.27-.61a10.77,10.77,0,0,0,4.7-.69,1.74,1.74,0,0,1,0-.34.3.3,0,0,1,0-.1.69.69,0,0,1,0-.13.75.75,0,0,1,.07-.12,1.46,1.46,0,0,1,.16-.21l.09-.1a1.8,1.8,0,0,1,.2-.19l.2-.17c.15-.12.29-.23.42-.35h0a.31.31,0,0,1,.2-.23l.06-.31A4.5,4.5,0,0,0,104.93,35Zm-9.24,2.95a.69.69,0,0,1-.69-.73c0-.35-.07-.77.43-.82s.59.35.66.69A.85.85,0,0,1,95.69,37.94Zm1.17-.19a1.46,1.46,0,0,1,0-1A1.16,1.16,0,0,1,96.86,37.75Zm2.71,0a1,1,0,0,1-.63-1.33.51.51,0,0,1,.55-.4.49.49,0,0,1,.45.39C100,36.85,100.16,37.36,99.57,37.72Zm1.5-2.57a5.35,5.35,0,0,0-2.59-.2c.12-.78.58-.85,1.1-.81l.79.1.27,0a.44.44,0,0,0,.13.2l0,0a.78.78,0,0,1,.25.34l0,.06A1,1,0,0,1,101.07,35.15Z"/><path class="cls-4" d="M101.51,47.17a10.76,10.76,0,0,0,1.39,4.54,1,1,0,0,0,.76-.33c1.77-1.5,3.6-2.94,5.25-4.58.25-.24.56-.45.63-.84a3.62,3.62,0,0,1,2.33.55c-1.27,1.05-2.56,2.09-3.82,3.16-.38.33-.9.59-.94,1.21h0c-.67-.08-1,.39-1.3.86h0c-.42,0-.6.34-.88.55a18.71,18.71,0,0,1-2.66,2.05A32,32,0,0,1,100.2,48a2,2,0,0,0,.89-.76Z"/><path class="cls-5" d="M101.51,47.17a10.76,10.76,0,0,0,1.39,4.54,1,1,0,0,0,.76-.33c1.77-1.5,3.6-2.94,5.25-4.58.25-.24.56-.45.63-.84a3.62,3.62,0,0,1,2.33.55c-1.27,1.05-2.56,2.09-3.82,3.16-.38.33-.9.59-.94,1.21h0c-.67-.08-1,.39-1.3.86h0c-.42,0-.6.34-.88.55a18.71,18.71,0,0,1-2.66,2.05A32,32,0,0,1,100.2,48a2,2,0,0,0,.89-.76Z"/><path class="cls-10" d="M80.63,70.1a1,1,0,0,0-.18-.26A1.88,1.88,0,0,1,80,67.55a2.78,2.78,0,0,1,1.59-2,1.07,1.07,0,0,1,.31,0,5.59,5.59,0,0,0,3,.15,2.93,2.93,0,0,1,2.1.45,1,1,0,0,0,.69.24,1.2,1.2,0,0,1,0,.2c-.61.32-1.37-.59-2,.24.55.73,1.53.77,2.17,1.43a5.62,5.62,0,0,1-2.57.29c-.49-.73-1-.83-2.29-.47-.05.34.33.45.37.74-.18.25-.52.17-.75.35a.57.57,0,0,0-.1.91l.07.21a1.21,1.21,0,0,1-.09.2C81.87,70.55,81.31,70,80.63,70.1Z"/><path class="cls-11" d="M87.72,66.59a1.2,1.2,0,0,0,0-.2,1.34,1.34,0,0,0,0-.2l.24-.18,3,.29c.2.15.33.1.4-.13a.62.62,0,0,1,0-.19,6.39,6.39,0,0,0,2.9,1.49c.29-1.5.16-2.7-1.24-3.41-.07,0-.08-.19-.12-.28.55,0,1,.35,1.48.45l.62.28a34.37,34.37,0,0,1,1.11,4.9h-1c-.25-.47-.71-.44-1.13-.41a2.85,2.85,0,0,1-2.07-.65A9.15,9.15,0,0,0,87.72,66.59Z"/><path class="cls-4" d="M101.09,47.22a2,2,0,0,1-.89.76.61.61,0,0,0-.48.51,6.09,6.09,0,0,0-2.53,2.37,35.55,35.55,0,0,0-3.48,6.6,24.94,24.94,0,0,1-2.12,4.42,8,8,0,0,1,.92-3,69.42,69.42,0,0,1,2.9-6.76,12.74,12.74,0,0,1,4.64-4.75C100.31,47.17,100.7,46.8,101.09,47.22Z"/><path class="cls-5" d="M101.09,47.22a2,2,0,0,1-.89.76.61.61,0,0,0-.48.51,6.09,6.09,0,0,0-2.53,2.37,35.55,35.55,0,0,0-3.48,6.6,24.94,24.94,0,0,1-2.12,4.42,8,8,0,0,1,.92-3,69.42,69.42,0,0,1,2.9-6.76,12.74,12.74,0,0,1,4.64-4.75C100.31,47.17,100.7,46.8,101.09,47.22Z"/><path class="cls-10" d="M92.92,63.78c0,.09,0,.24.12.28,1.4.71,1.53,1.91,1.24,3.41A6.39,6.39,0,0,1,91.38,66a14.19,14.19,0,0,1,.69-2.39c.29,0,.51.28.83.2Z"/><path class="cls-12" d="M105.78,41.51a1.36,1.36,0,0,1,0,1.51,7,7,0,0,1-3.28,3.38,1.51,1.51,0,0,1-.72.15l-.09-1.29a8.54,8.54,0,0,0,3.51-3.2Z"/><path class="cls-4" d="M107.11,50.88c0-.62.56-.88.94-1.21,1.26-1.07,2.55-2.11,3.82-3.16l.41.06a6.73,6.73,0,0,1-1.69,1.59c-1,.83-2,1.69-3,2.54A.71.71,0,0,1,107.11,50.88Z"/><path class="cls-11" d="M92.9,63.79c-.32.08-.54-.21-.83-.2v-.4C92.45,63.26,92.81,63.34,92.9,63.79Z"/><path class="cls-10" d="M87.92,66l-.24.18C87.51,65.81,87.82,66,87.92,66Z"/><path class="cls-10" d="M91.36,66.17c-.07.23-.2.28-.4.13Z"/><path class="cls-13" d="M91.59,61.87a.45.45,0,0,1,0,.2C91.37,62,91.46,61.92,91.59,61.87Z"/><path class="cls-4" d="M128.54,116.62a4.79,4.79,0,0,0-2.07.51,94.41,94.41,0,0,1-15.64,4.41A30.79,30.79,0,0,1,107,122a9.84,9.84,0,0,1-7.22-2.13c-.17-.48-.6-.8-.83-1.24a8.24,8.24,0,0,1-1-5c.62-5.41,2.34-10.54,3.83-15.74.5-1.77.88-3.57,1.55-5.39a41.28,41.28,0,0,0,13.22.07,23.23,23.23,0,0,1-1.45,4.75c-1.37,3.45-3,6.82-4.52,10.19-.58,1.22-1.06,2.49-1.54,3.76a5.06,5.06,0,0,0-.08,3.08c-.08.4-.69.36-.76.8.21.33.41.19.64.06.62-.33,1.13-.89,1.89-.93v0a2.32,2.32,0,0,1-.58,1.12c-.25.33-.81.34-.89.87.43.34.65,0,.89-.24a10.37,10.37,0,0,0,2.11-2.94,21.75,21.75,0,0,0,1.72-3.32c.15-.49.61-.56,1-.69,1.59-.5,3.26-.67,4.87-1.07a14.91,14.91,0,0,0,3.17-.67,2.67,2.67,0,0,0,1.74-.2,12,12,0,0,0,3.31-.49c.43.06.86.22,1.22-.18a2.72,2.72,0,0,1,1.23.73,16,16,0,0,1,1.76,6c-.37.55-.19,1.15-.18,1.74a31.86,31.86,0,0,1-3.16,1.24C128.78,116.26,128.48,116.25,128.54,116.62Z"/><path class="cls-6" d="M140.44,119.67a1.51,1.51,0,0,1-2.2,0c-.54-.47-1-1-1.55-1.48-.72-1.22-1.62-2.3-2.43-3.44a2.71,2.71,0,0,1-.4-1.52c.36-.37,1-.44,1.06-1.11a5,5,0,0,0-.69-3.18,10.38,10.38,0,0,0-2.23-2.16c.29-1,1.26-1.07,1.94-1.52a4.35,4.35,0,0,1,.58-.27,3.73,3.73,0,0,1,1.73,1.84c.69,1.38,1.41,2.75,2.12,4.12a17.8,17.8,0,0,1,2.21,8,1.25,1.25,0,0,0,.12.3h0C140.41,119.22,140.52,119.5,140.44,119.67Z"/><path class="cls-10" d="M132,106.74a10.38,10.38,0,0,1,2.23,2.16,5,5,0,0,1,.69,3.18c0,.67-.7.74-1.06,1.11h-1.52a16,16,0,0,0-1.76-6C130.88,106.51,131.49,106.77,132,106.74Z"/><path class="cls-6" d="M128.13,106.65a12,12,0,0,1-3.31.49,1.64,1.64,0,0,0-1.11-1.06c0-.25,0-.49.21-.66a5.51,5.51,0,0,1,2.38-1.09A4.93,4.93,0,0,1,128.13,106.65Z"/><path class="cls-14" d="M128.13,106.65a4.93,4.93,0,0,0-1.83-2.32c.72-.54,1.2-.57,1.76,0a4.56,4.56,0,0,1,1.29,2.17C129,106.87,128.56,106.71,128.13,106.65Z"/><path class="cls-11" d="M123.71,106.08a1.64,1.64,0,0,1,1.11,1.06,2.67,2.67,0,0,1-1.74.2l-.51-1C123,106.31,123.29,106,123.71,106.08Z"/><path class="cls-9" d="M95.1,69.41h1c4.11-.13,8.22.51,12.34,0a17.64,17.64,0,0,0,.89-3.93h.35c.24.56.82.65,1.29.86a25.11,25.11,0,0,0,6.65,1.75c-.07.31-.12.63-.2.94a22.16,22.16,0,0,1-2,5.74,4.7,4.7,0,0,1-4.33,2.62A44,44,0,0,1,100.63,76a34.54,34.54,0,0,0-4.26-1,4.78,4.78,0,0,0-2-.65h0A16.8,16.8,0,0,0,95.1,69.41Z"/><path class="cls-4" d="M96.37,75a34.54,34.54,0,0,1,4.26,1,44,44,0,0,0,10.47,1.43,4.7,4.7,0,0,0,4.33-2.62,22.16,22.16,0,0,0,2-5.74c.08-.31.13-.63.2-.94a3.56,3.56,0,0,0,.25-1.55,1.53,1.53,0,0,1,1,0,8,8,0,0,1-.45,3.33,20.43,20.43,0,0,1-1.93,5.53,10.62,10.62,0,0,1-1.26,1.71,6,6,0,0,1-4.77,2,34.88,34.88,0,0,1-9.67-1.38c-1.44-.38-2.83-.93-4.3-1.19Z"/><path class="cls-11" d="M117.9,66.58a3.56,3.56,0,0,1-.25,1.55A25.11,25.11,0,0,1,111,66.38c-.47-.21-1-.3-1.29-.86a27.79,27.79,0,0,1,3.1.71A26.31,26.31,0,0,0,117.9,66.58Z"/><path class="cls-4" d="M99.72,48.49a.61.61,0,0,1,.48-.51,32,32,0,0,0,2.08,6.36,18.71,18.71,0,0,0,2.66-2.05c.28-.21.46-.57.88-.55,0,.43-.3.64-.56.87A24.12,24.12,0,0,1,102.41,55a2.4,2.4,0,0,1-1.1-1.59A30.5,30.5,0,0,1,100,48.9C100,48.71,99.91,48.56,99.72,48.49Z"/><path class="cls-4" d="M95,64.51l-.62-.28a19.35,19.35,0,0,1,1.51-8.79,4.32,4.32,0,0,1,.3-.56s.13,0,.28-.05a8.38,8.38,0,0,1-.57,2.24,33.68,33.68,0,0,0-1.09,4.67c-.1.56.2,1,.2,1.58S95,64.11,95,64.51Z"/><path class="cls-13" d="M108,58.5c.21.21.16.42.08.68a7.63,7.63,0,0,1-2.19.1c-.79,0-1.58,0-2.37,0-.52,0-.6-.27-.45-.78Z"/><path class="cls-4" d="M109,64.11c-.26-2.8.43-5.48.82-8.42a1.23,1.23,0,0,1,.31,1.18A70.31,70.31,0,0,1,109,64.11Z"/><path class="cls-4" d="M107.26,82c2.47-.16,4.79.11,7.11-.23,0,.52-.29.6-.59.6-2.07,0-4.15,0-6.22,0C107.52,82.32,107.47,82.23,107.26,82Z"/><path class="cls-4" d="M97.94,85.51a32.38,32.38,0,0,1,5,2.74C101.89,88.32,98.9,86.68,97.94,85.51Z"/><path class="cls-4" d="M104.83,67.78c-1.45.06-2.6-.88-3.94-1.17-.26,0-.25-.29-.16-.63A19.55,19.55,0,0,1,104.83,67.78Z"/><path class="cls-5" d="M96.37,75a34.54,34.54,0,0,1,4.26,1,44,44,0,0,0,10.47,1.43,4.7,4.7,0,0,0,4.33-2.62,22.16,22.16,0,0,0,2-5.74c.08-.31.13-.63.2-.94a3.56,3.56,0,0,0,.25-1.55,1.53,1.53,0,0,1,1,0,8,8,0,0,1-.45,3.33,20.43,20.43,0,0,1-1.93,5.53,10.62,10.62,0,0,1-1.26,1.71,6,6,0,0,1-4.77,2,34.88,34.88,0,0,1-9.67-1.38c-1.44-.38-2.83-.93-4.3-1.19Z"/><path class="cls-5" d="M95,64.51l-.62-.28a19.35,19.35,0,0,1,1.51-8.79,4.32,4.32,0,0,1,.3-.56s.13,0,.28-.05a8.38,8.38,0,0,1-.57,2.24,33.68,33.68,0,0,0-1.09,4.67c-.1.56.2,1,.2,1.58S95,64.11,95,64.51Z"/><path class="cls-5" d="M109,64.11c-.26-2.8.43-5.48.82-8.42a1.23,1.23,0,0,1,.31,1.18A70.31,70.31,0,0,1,109,64.11Z"/><path class="cls-5" d="M104.83,67.78c-1.45.06-2.6-.88-3.94-1.17-.26,0-.25-.29-.16-.63A19.55,19.55,0,0,1,104.83,67.78Z"/><path class="cls-4" d="M100.74,85.64a6.85,6.85,0,0,1,3.9-.33A6.59,6.59,0,0,1,100.74,85.64Z"/><path class="cls-5" d="M107.26,82c2.47-.16,4.79.11,7.11-.23,0,.52-.29.6-.59.6-2.07,0-4.15,0-6.22,0C107.52,82.32,107.47,82.23,107.26,82Z"/><path class="cls-5" d="M97.94,85.51a32.38,32.38,0,0,1,5,2.74C101.89,88.32,98.9,86.68,97.94,85.51Z"/><path class="cls-5" d="M100.74,85.64a6.85,6.85,0,0,1,3.9-.33A6.59,6.59,0,0,1,100.74,85.64Z"/><path class="cls-4" d="M105.81,51.74c.32-.47.63-.94,1.3-.86C106.8,51.35,106.49,51.81,105.81,51.74Z"/><path class="cls-15" d="M107.11,50.88c0-.62.56-.88.94-1.21,1.26-1.07,2.55-2.11,3.82-3.16l.41.06a6.73,6.73,0,0,1-1.69,1.59c-1,.83-2,1.69-3,2.54A.71.71,0,0,1,107.11,50.88Z"/><path class="cls-15" d="M99.72,48.49a.61.61,0,0,1,.48-.51,32,32,0,0,0,2.08,6.36,18.71,18.71,0,0,0,2.66-2.05c.28-.21.46-.57.88-.55,0,.43-.3.64-.56.87A24.12,24.12,0,0,1,102.41,55a2.4,2.4,0,0,1-1.1-1.59A30.5,30.5,0,0,1,100,48.9C100,48.71,99.91,48.56,99.72,48.49Z"/><path class="cls-15" d="M105.81,51.74c.32-.47.63-.94,1.3-.86C106.8,51.35,106.49,51.81,105.81,51.74Z"/><path class="cls-11" d="M109.71,65.52h-.35C109.47,65.24,109.59,65.33,109.71,65.52Z"/><path class="cls-16" d="M94.39,74.38c1,1.92.56,3.93.37,5.9-.22,2.28-.51,4.55-.79,6.82-.32,2.62-.67,5.24-1,7.87-.12,1-.18,1.92-.27,2.88-.63,2.24-1.28,4.47-1.86,6.71-.39,1.49-.68,3-1,4.49-.54.22-.91.82-1.6.71-1.11.22-2.24.27-3.36.38.09-1.64.33-3.27.42-4.9.18-3.07.31-6.14.44-9.21.1-2.47,0-5,0-7.43a15.67,15.67,0,0,0-1.54-7.68c0-.68,0-1.36,0-2a11.22,11.22,0,0,1,.61-3.44c.2-.63.8-1,.9-1.67,1.47-.12,2.92.27,4.4.22,1.24,0,2.51-.27,3.69.38.14.08.36,0,.54,0Z"/><path class="cls-17" d="M88.6,115.12h1.22a12.13,12.13,0,0,0,1.63,3l-.12.12a15.56,15.56,0,0,1-2.55-1.51C88.82,116.16,88.45,115.67,88.6,115.12Z"/><path class="cls-18" d="M111,114.06l.1-.11a.17.17,0,0,1,0,.07l-.09,0Z"/><path class="cls-18" d="M111,114.06a.27.27,0,0,1-.21.22v0a.27.27,0,0,1,.22-.2Z"/><path class="cls-9" d="M105.59,35.79h0Zm.64-.66h0Zm2.76.92c-.25-1.11-1-1.54-2.35-1.27a1,1,0,0,1-.08.11,1,1,0,0,1-.08.11l-.06.06-.11,0-.07,0c-.07.15-.15.29-.22.44l0,0-.06.09a.32.32,0,0,1-.23.09h-.1a3.15,3.15,0,0,1-.09.42l-.05.14a6134925831678.7,6134925831678.7,0,0,0-.1.24,1.69,1.69,0,0,1-.41.55,1.41,1.41,0,0,1-.18.14,1.78,1.78,0,0,1-.46.21c.13.43-.4.57-.42,1a12.91,12.91,0,0,1,.66,2.52c0,.34.16.64.62.53a19.18,19.18,0,0,1,1.25-2c.19-.28.36-.52.73-.51A2.41,2.41,0,0,0,109,36.05Zm-1.11,0v0s0,0,0,0,0,0,0,0a.55.55,0,0,1-.23.11.25.25,0,0,0-.09,0,.1.1,0,0,0,0,0c-.14.52.7,1.11-.13,1.63a1.14,1.14,0,0,1-.58-1.6.75.75,0,0,1,1.1-.46A.3.3,0,0,1,107.88,36Z"/><path class="cls-14" d="M105.17,41.57a19.18,19.18,0,0,1,1.25-2c.19-.28.36-.52.73-.51l0,.42a6.08,6.08,0,0,0-1.35,2.07l-.59.55Z"/><path class="cls-14" d="M106.64,34.78c-.11.15-.19.33-.41.35C106.2,34.82,106.38,34.75,106.64,34.78Z"/><path class="cls-14" d="M106.24,35.12l-.22.45-.23,0,.06-.31C106,35.19,106.08,35.07,106.24,35.12Z"/><path class="cls-7" d="M67.86,69a22.71,22.71,0,0,1-1.26-5.25A4.21,4.21,0,0,1,67,61a6.69,6.69,0,0,0,.57-1.72,5.67,5.67,0,0,0,.31-2.3,17.52,17.52,0,0,0-1-3.47,23.83,23.83,0,0,1-1.09-3,.32.32,0,0,1,.09-.37c.32,0,.26.42.63.44a3.66,3.66,0,0,1,1-1c0-.15,0-.3,0-.45-.42-.1-.48-.5-.64-.8a10.37,10.37,0,0,0-6.28-5.41c-.44-.13-.81-.46-1.29-.46a4.58,4.58,0,0,1-.3,2.1,1.82,1.82,0,0,1-1.66,1.15,7.5,7.5,0,0,1-4.5-1.44,8.77,8.77,0,0,1-2.18-2,23.59,23.59,0,0,0-5.71,2.31A11.48,11.48,0,0,0,41,48.28a5.63,5.63,0,0,1-.37.62l0,.06,0,0-.08.07s0,0,0,0l-.13,0-.07,0c0,.32.08.65-.41.66a.14.14,0,0,0,0,.15c.06.22.33.51-.2.5a28.5,28.5,0,0,0-1.86,6.45A37,37,0,0,0,37,63.37,11.53,11.53,0,0,0,39.25,71a3.59,3.59,0,0,0,2.23.54c1.39.08,2.75.32,4.13.51.09,0,.18.1.27.16A5.59,5.59,0,0,1,50,75.3c.23.4.41.83.61,1.24a7.36,7.36,0,0,1,2,.52,11.32,11.32,0,0,0,2.83.36A2.08,2.08,0,0,0,56.87,77a30.65,30.65,0,0,1,1.72-3.89c0-.14,0-.28,0-.43a11.4,11.4,0,0,0-3.67-2.9c-2.09-1.29-4.28-2.41-6.37-3.72a2.26,2.26,0,0,1-1.21-2.18,48.15,48.15,0,0,1,.58-5.08A30.09,30.09,0,0,0,48.48,55a8.07,8.07,0,0,1,.28-1.47c.94,0,.33.79.64,1.08.23,0,.07-.45.46-.38a1.64,1.64,0,0,1-.61,1.52,1.45,1.45,0,0,0-.38.71c-.44,2.22-.74,4.47-1,6.72a2.3,2.3,0,0,0,1.29,2.65C51.56,67.14,54,68.48,56.31,70A6.29,6.29,0,0,1,59,72.65c0,.13,0,.27,0,.4a20.62,20.62,0,0,1,4.11.81,6.17,6.17,0,0,0,.62.09,36.23,36.23,0,0,1,4.77-1.52A27.12,27.12,0,0,0,67.86,69Zm-21-4.07c-1.08.2-2.19.25-3.27.51A3.48,3.48,0,0,1,46.85,64.9Zm-1.94,1.84c.34-1,1.18-1.23,2.06-1.35C46.24,65.77,45.64,66.36,44.91,66.74Zm9.91-3.09c2.06-.33,4-1.11,6-1.49C59.63,63.2,55.63,64.15,54.82,63.65Z"/><path class="cls-19" d="M68.54,72.43A29,29,0,0,0,67.86,69c1.31.31,2.53.91,3.86,1.2a22.63,22.63,0,0,0,6.34.73,3.37,3.37,0,0,0,2.57-.8c.68-.09,1.24.45,1.91.39,0,.37,0,.72.39.9l.27.39a3.54,3.54,0,0,0,2.56,2c-.1.66-.7,1-.9,1.67a11.22,11.22,0,0,0-.61,3.44c0,.68,0,1.36,0,2a16.16,16.16,0,0,0-3.94-3.28A88,88,0,0,0,68.54,72.43Z"/><path class="cls-3" d="M73.25,61.44l2.6.69c1.44.69,3,1,4.49,1.63.53.24,1,.58,1.5.82.25.12.36.36,0,.58C79.3,64,76.6,63.16,74,62.09,73.66,62,73.26,61.91,73.25,61.44Z"/><path class="cls-7" d="M67.69,49.3a1.58,1.58,0,0,1,.4,1.14c-.42-.13-.46-.46-.45-.83Z"/><path class="cls-7" d="M68.09,50.44c.23.06.22.25.22.43C68.08,50.81,68.08,50.63,68.09,50.44Z"/><path class="cls-7" d="M67.69,49.3l0,.31-.2,0v-.46C67.6,49.1,67.64,49.2,67.69,49.3Z"/><path class="cls-7" d="M68.31,50.86c.21.09.2.29.23.48C68.32,51.25,68.29,51.07,68.31,50.86Z"/><path class="cls-5" d="M67.69,49.3a1.58,1.58,0,0,1,.4,1.14c-.42-.13-.46-.46-.45-.83Z"/><path class="cls-5" d="M68.09,50.44c.23.06.22.25.22.43C68.08,50.81,68.08,50.63,68.09,50.44Z"/><path class="cls-5" d="M67.69,49.3l0,.31-.2,0v-.46C67.6,49.1,67.64,49.2,67.69,49.3Z"/><path class="cls-5" d="M68.31,50.86c.21.09.2.29.23.48C68.32,51.25,68.29,51.07,68.31,50.86Z"/><path class="cls-6" d="M100.63,34.27c.1.3.57.37.44.88a5.35,5.35,0,0,0-2.59-.2c.12-.78.58-.85,1.1-.81.36,0,.71.09,1.07.14Z"/><path class="cls-6" d="M99.57,37.72a1,1,0,0,1-.63-1.33.51.51,0,0,1,.55-.4.49.49,0,0,1,.45.39C100,36.86,100.16,37.36,99.57,37.72Z"/><path class="cls-6" d="M95.69,37.94a.68.68,0,0,1-.68-.73c0-.35-.08-.77.42-.81s.59.34.66.68A.85.85,0,0,1,95.69,37.94Z"/><path class="cls-3" d="M105.6,35.78a1.89,1.89,0,0,1-1.29,1.72C104.34,36.62,105.07,36.28,105.6,35.78Z"/><path class="cls-19" d="M96.86,37.75a1.52,1.52,0,0,1,0-1A1.16,1.16,0,0,1,96.86,37.75Z"/><path class="cls-3" d="M105.79,35.55l.23,0a.36.36,0,0,1-.43.22A.29.29,0,0,1,105.79,35.55Z"/><path class="cls-18" d="M82.93,71.39c-.41-.18-.43-.53-.39-.9a1.21,1.21,0,0,0,.09-.2c1.35-.13,2.75.27,4.28-.4-1.61-.14-3,.32-4.35.19a.57.57,0,0,1,.1-.91c.23-.18.57-.1.75-.35a7.3,7.3,0,0,0,1.92-.27,5.62,5.62,0,0,0,2.57-.29c-.64-.66-1.62-.7-2.17-1.43.62-.83,1.38.08,2-.24a9.15,9.15,0,0,1,4.18,1.76A2.85,2.85,0,0,0,94,69c.42,0,.88-.06,1.13.41a16.8,16.8,0,0,1-.71,5c-.18,0-.4.06-.54,0-1.18-.65-2.45-.42-3.69-.38-1.48.05-2.93-.34-4.4-.22a3.54,3.54,0,0,1-2.56-2,7.85,7.85,0,0,0,3.59-.54C85.45,70.92,84.2,71.49,82.93,71.39Z"/><path class="cls-11" d="M85.33,68.55a7.3,7.3,0,0,1-1.92.27c0-.29-.42-.4-.37-.74C84.35,67.72,84.84,67.82,85.33,68.55Z"/><path class="cls-20" d="M82.56,70.08c1.38.13,2.74-.33,4.35-.19-1.53.67-2.93.27-4.28.4Z"/><path class="cls-21" d="M63.88,28.51a6.32,6.32,0,0,0-1.49-2.62.5.5,0,0,0-.44.19c-1.79,2.1-4.24,2.68-6.83,2.78-1,0-1.67.26-1.95,1.33a3.6,3.6,0,0,1-1,1.64c-.35,0-.39-.39-.57-.58-.64-.67-1.09-.82-1.69-.51a1.76,1.76,0,0,0-.78,1.75,2.5,2.5,0,0,0,2.2,2.32c.12.57.22,1.09.33,1.6a15.51,15.51,0,0,1-.47,4.18c0,.25-.14.57-.51.59l-.09,1.07a8.77,8.77,0,0,0,2.18,2,7.5,7.5,0,0,0,4.5,1.44,1.82,1.82,0,0,0,1.66-1.15,4.58,4.58,0,0,0,.3-2.1L59,42.24a7.84,7.84,0,0,1-5.62-3.16.74.74,0,0,1-.18-.49l-.11-.12.08,0a.32.32,0,0,1,0,.09c.33,0,.51.22.72.4a7.28,7.28,0,0,0,3.68,1.79l.36,0,.08,0,.11,0,.09,0h0l.1,0-.09,0A6.31,6.31,0,0,0,60,40.7h.12s.09,0,.13,0l.12,0c.4,0,.59-.37,1-.55h0c1.67-1,2-3.27,2.24-4.33s.6-3.71.68-4.33A9.23,9.23,0,0,0,63.88,28.51Zm-14,3.75c.21-.5.21-.5.9-.51C50.44,32,50.27,32.29,49.86,32.26Zm1.51,1.09c-.39-.32-.45-.62-.07-1.05C51.51,32.68,51.89,33,51.37,33.35Zm6.71-4c.47,0,.47,0,.77.65a7.57,7.57,0,0,0-2.78.35C56.47,29.37,57.27,29.31,58.08,29.31Zm-.58,3.47a.57.57,0,0,1-.44-.64A1.08,1.08,0,0,1,57.71,31c.61.31.54.83.43,1.31A.54.54,0,0,1,57.5,32.78Zm2,4.91A1.88,1.88,0,0,1,57.76,36l3.11.51A1.28,1.28,0,0,1,59.5,37.69Zm1.15-2.56c-.35.28-.38.28-1-.23.3-.13.5.1.77-.1a16.32,16.32,0,0,1-.11-3.21c.34,0,.4.1.4.24a9.32,9.32,0,0,0,.21,2.23A1,1,0,0,1,60.65,35.13Zm1.81-3.47A1.09,1.09,0,0,1,62.81,33c-.09.23-.21.48-.53.45a.5.5,0,0,1-.47-.5C61.76,32.39,61.74,31.88,62.46,31.66Zm.78,3c.19.19-.35.55-.73.34a1,1,0,0,1-.24-.21c-.15-.16-.28-.32-.42-.48a1,1,0,0,1,1.33-.66C63.53,34.08,62.84,34.28,63.24,34.69ZM61.8,30.32c.45-.8,1.45-.49,2.08.62A18.44,18.44,0,0,0,61.8,30.32Z"/><path class="cls-22" d="M65.29,24.12c-.11.19-.27.27-.4.06a4.18,4.18,0,0,0-3.45-2,2,2,0,0,1-1-.37,10.14,10.14,0,0,0-3-1.34c-1.08-.34-2.18-.06-3.25-.24,0-.3.25-.38.28-.6a14.42,14.42,0,0,1,3-.2,7.36,7.36,0,0,1,3.22,1.48.78.78,0,0,0,.66.26,5.49,5.49,0,0,1,3.76,2.58A2.58,2.58,0,0,1,65.29,24.12Z"/><path class="cls-7" d="M67.45,49.13h0c-.42-.1-.48-.5-.64-.8a10.37,10.37,0,0,0-6.28-5.41c-.44-.13-.81-.46-1.29-.46L59,42.24V41.6h.45l1.91.69,2,1a12.49,12.49,0,0,1,3.75,4.54C67.3,48.25,67.59,48.63,67.45,49.13Z"/><path class="cls-23" d="M88.78,116.69a15.56,15.56,0,0,0,2.55,1.51c.51.62,1.28,1.1,1.12,2.09a3.82,3.82,0,0,1-2.11.69,26.54,26.54,0,0,1-6.83-.55c-1.61-.32-3.18-.86-4.82-1,0-.12-.12-.17-.23-.05l.17.11a9.09,9.09,0,0,0,1.29,1.34v.94a8.66,8.66,0,0,1-5.44.64,44.93,44.93,0,0,1-11.13-3,6,6,0,0,1,.2-2.76,19.45,19.45,0,0,0,6.94,2.67c.64.08,1.07,0,1.29-.6a3.48,3.48,0,0,1,1.7-1.82c.87-.08,1.44.71,2.27.81.31-.61.12-1.33.52-1.9A9.11,9.11,0,0,0,78.66,117a15.75,15.75,0,0,0,4.19,1.17c1,.13,1.77.08,2.23-1.14a6.78,6.78,0,0,1,.7-1.18,1.87,1.87,0,0,1,1.33.21A5.3,5.3,0,0,0,88.78,116.69Z"/><path class="cls-6" d="M20,116.65c.23-1.52.24-3.06.33-4.59a41.15,41.15,0,0,0,.47-4.42l0-.26c.34-.06.72.11,1-.16a9.66,9.66,0,0,0-.14-3c0-1.49-.08-3-.15-4.49-.1-2.1-.37-4.2-.29-6.31a6.85,6.85,0,0,0-.17-2.34A1.16,1.16,0,0,1,21.23,90h3a3,3,0,0,1,.12,1.23c.15,3.66-.24,7.3-.22,11,0,1.85.07,3.7-.07,5.58.21.14.58,0,.73.3a23.77,23.77,0,0,0-.79,3.82A30.11,30.11,0,0,0,23.9,116c0,1-.08,2,0,3s-.23,2-.2,3a.59.59,0,0,1-.65.68.6.6,0,0,1-.65-.69c0-1.21,0-2.43,0-3.69-.67,0-1.24.48-1.88,0S20,117.23,20,116.65Z"/><path class="cls-6" d="M6.29,112.75c-.49,2.36-.83,4.74-1.17,7.13-.13.76-.28,1.52-.39,2.28-.09.57-.4.83-1,.72a.77.77,0,0,1-.57-1,8.91,8.91,0,0,0,.21-2,8.57,8.57,0,0,0,.33-2.42c.24-1.35.28-2.73.4-4.1a26.11,26.11,0,0,0,.5-5.78.44.44,0,0,0,.24-.44c0-1.37.33-2.7.26-4.07.26-.27.16-.61.19-.92.16-1.64.3-3.28.48-4.91.32-2.74.6-5.47.81-8.22,1,.09,2,.17,3,.27.08,0,.15.13.23.2-.12.78-.23,1.55-.36,2.33-.59,3.73-1.28,7.45-1.72,11.21a17,17,0,0,0-.54,4.54c-.31.16-.27.49-.32.75C6.72,109.8,6.51,111.28,6.29,112.75Z"/><path class="cls-6" d="M38.58,115.12c.16,1.59.29,3.18.5,4.76a22.91,22.91,0,0,1,.11,2.34.57.57,0,0,1-.54.67.72.72,0,0,1-.77-.45,7.4,7.4,0,0,1-.37-2.09c-.32-1.63-.47-3.29-.7-4.94a1.23,1.23,0,0,0-.13-.29,34.48,34.48,0,0,0-.59-3.91,4.5,4.5,0,0,0-.36-1.88,19.88,19.88,0,0,0-.4-3.27c-.2-2.23-.6-4.43-1-6.63-.54-3.28-1-6.56-1.59-9.89,1-.48,2.09-.17,3.09-.51a23.29,23.29,0,0,1,.49,3c.08,2.31.46,4.59.64,6.89.19,2.59.57,5.16.72,7.75a19.91,19.91,0,0,0,.28,3.07l.18,1.48C38.34,112.52,38.32,113.83,38.58,115.12Z"/><path class="cls-10" d="M73.48,116.88a3.48,3.48,0,0,0-1.7,1.82c-.22.59-.65.68-1.29.6a19.45,19.45,0,0,1-6.94-2.67,14.48,14.48,0,0,1,.43-2.16v-.84h1.07c.28.33.67.2,1,.2,1.68,0,3.36,0,5,0,0,.37,0,.72.43.87,0,.41.32.58.52.86C72.45,116.09,73.11,116.32,73.48,116.88Z"/><path class="cls-6" d="M50.72,111.08c-.15,1.22-.55,2.39-.6,3.62a40.69,40.69,0,0,0-1,4.76c-.19.9-.47,1.14-1.37,1.08s-1.2-.41-1.21-1.31c0-1.5,0-3,0-4.49a20.81,20.81,0,0,0,.18-3.7l0-.44c.77,0,1.51.41,2.29.13A1.66,1.66,0,0,1,50.72,111.08Z"/><path class="cls-24" d="M63.35,119.39a44.93,44.93,0,0,0,11.13,3,8.66,8.66,0,0,0,5.44-.64c.41.68-.22.9-.58,1.1a4.63,4.63,0,0,1-2,.5,29.24,29.24,0,0,1-9.39-1.19,23.46,23.46,0,0,1-3.85-1.27C63.28,120.52,63.18,120.26,63.35,119.39Z"/><path class="cls-24" d="M78.69,119.4c1.64.17,3.21.71,4.82,1a26.54,26.54,0,0,0,6.83.55,3.82,3.82,0,0,0,2.11-.69c.2.65,0,1-.72,1.3a8.56,8.56,0,0,1-2.41.45,31.35,31.35,0,0,1-6.9-.73c-.84-.15-1.67-.34-2.5-.51a9.09,9.09,0,0,1-1.29-1.34Z"/><path class="cls-6" d="M60,114.69,59.42,111l0-.41.4,0a3.52,3.52,0,0,0,1.47-.12.71.71,0,0,1,.95.2,1.67,1.67,0,0,0,.18.79,9.52,9.52,0,0,0-.11,3C61.71,115.55,61.12,115.61,60,114.69Z"/><path class="cls-6" d="M128.54,116.62c-.06-.37.24-.36.46-.44a31.86,31.86,0,0,0,3.16-1.24,6.36,6.36,0,0,1,.23,3.64,1.5,1.5,0,0,1-1.93,0C129.63,118.11,129.24,117.22,128.54,116.62Z"/><path class="cls-1" d="M134.26,114.71c.81,1.14,1.71,2.22,2.43,3.44l-3.27-.64a19.51,19.51,0,0,1,.07-2.75Z"/><path class="cls-14" d="M134.26,114.71l-.77.05a19.51,19.51,0,0,0-.07,2.75,1.35,1.35,0,0,1-1,1.07,6.36,6.36,0,0,0-.23-3.64c0-.59-.19-1.19.18-1.74h1.52A2.71,2.71,0,0,0,134.26,114.71Z"/><path class="cls-14" d="M140.44,119.67c.08-.17,0-.45.29-.45C140.81,119.48,140.67,119.61,140.44,119.67Z"/><path class="cls-19" d="M38,109.74a19.91,19.91,0,0,1-.28-3.07c-.15-2.59-.53-5.16-.72-7.75-.18-2.3-.56-4.58-.64-6.89a23.29,23.29,0,0,0-.49-3c-1,.34-2.08,0-3.09.51.55,3.33,1,6.61,1.59,9.89.36,2.2.76,4.4,1,6.63a19.88,19.88,0,0,1,.4,3.27c-1.6-.18-3.2-.35-4.8-.54-2.06-.24-4.1-.65-6.18-.76-.15-.33-.52-.16-.73-.3.14-1.88.07-3.73.07-5.58,0-3.65.37-7.29.22-11A3,3,0,0,0,24.19,90h-3a1.16,1.16,0,0,0-.12,1.12,6.85,6.85,0,0,1,.17,2.34c-.08,2.11.19,4.21.29,6.31.07,1.5.1,3,.15,4.49a9.66,9.66,0,0,1,.14,3c-.3.27-.68.1-1,.16A3.24,3.24,0,0,1,18.36,105a6.63,6.63,0,0,0-.73-2q-1.12-4.84-2.26-9.67a27.13,27.13,0,0,0-.88-3.7c-1.56.16-3.06-.29-4.6-.18-.08-.07-.15-.2-.23-.2-1-.1-2-.18-3-.27L3.55,88.4c-.41-.09-.78-.36-1.22-.25,0,0,0-.07-.07-.08A1.76,1.76,0,0,1,1,85.8c.66.17,1.25.5,1.92.67A51.74,51.74,0,0,0,14.7,87.91a146.42,146.42,0,0,0,15-.14c2.27-.18,4.55-.31,6.8-.67a14.65,14.65,0,0,0,5.1-1.5c-.09.76.24,1.58-.36,2.27-.07.08,0,.27,0,.41.66,3.37,1.19,6.76,1.73,10.15q.69,4.25,1.48,8.48c.25,1.3.57,2.59,1.83,3.35.07,0,.05.2.08.3-.85-.09-1.7-.21-2.55-.28C41.83,110.11,39.93,109.73,38,109.74Z"/><path class="cls-11" d="M41.56,85.6a14.65,14.65,0,0,1-5.1,1.5c-2.25.36-4.53.49-6.8.67a146.42,146.42,0,0,1-15,.14A51.74,51.74,0,0,1,3,86.47C2.29,86.3,1.7,86,1,85.8c-.21-.74.12-1.14.8-1.36a18.64,18.64,0,0,1,4.54-1l0,.22,0,1.47c-.15.06-.38,0-.37.37l1.6.32c2.42.41,4.83.87,7.26,1.19,1.06.14,2.13.52,3.25,0,1.65-.7,3.34-1.27,5-1.91a3,3,0,0,0,1.3-.74c-.06-.32-.11-.64-.49-.74a1.61,1.61,0,0,1,0-.87l.21-.24c.67.07,1.35.11,2,.18a3,3,0,0,0,2.26-.19.72.72,0,0,1,.27.58c-.73.38-1.79.11-2.26,1,.08.38.35.45.57.53a13.55,13.55,0,0,0,8.65.08c.66-.2.61-.6.28-1.06.39-.43.84-.21,1.28-.13l3.25.56c.1.25.32.34.53.47A1,1,0,0,1,41.56,85.6Z"/><path class="cls-14" d="M6.42,83.65l0-.22,1.3-.66c.58.13,1-.21,1.52-.38,1.05-.35,2.09-.67,3.11-1.1.17-.07.32-.12.38-.31,2,.45,4,.48,6,.74,1.65.22,3.32.3,5,.63-1.41.57-2.82,1.12-4.22,1.7s-2.87,1.18-4.51.7a26.88,26.88,0,0,0-4.2-.59A34.64,34.64,0,0,0,6.42,83.65Z"/><path class="cls-4" d="M68.54,72.43a88,88,0,0,1,11.75,5.21,16.16,16.16,0,0,1,3.94,3.28,15.67,15.67,0,0,1,1.54,7.68c0,2.48.06,5,0,7.43-.13,3.07-.26,6.14-.44,9.21-.09,1.63-.33,3.26-.42,4.9-.28.35-.17.76-.15,1.14,0,.57.13,1.13.2,1.7-.45,0-.86-.32-1.33-.21a11.56,11.56,0,0,1-3,.21H76.49c-.87-.37-1-1.15-1.08-1.94v-.93c-.07-.39-.16-.77-.2-1.15q-.45-3.9-.87-7.8a30.79,30.79,0,0,1,.5-5c.23-1.76.39-3.53.55-5.29a19.13,19.13,0,0,0-.18-5,7.76,7.76,0,0,0-2.53-4.59,17.52,17.52,0,0,0-4.16-2.6,1.41,1.41,0,0,0-1-.18A4.62,4.62,0,0,0,65.39,75a11.6,11.6,0,0,1-1.62-1A36.23,36.23,0,0,1,68.54,72.43Z"/><path class="cls-5" d="M68.54,72.43a88,88,0,0,1,11.75,5.21,16.16,16.16,0,0,1,3.94,3.28,15.67,15.67,0,0,1,1.54,7.68c0,2.48.06,5,0,7.43-.13,3.07-.26,6.14-.44,9.21-.09,1.63-.33,3.26-.42,4.9-.28.35-.17.76-.15,1.14,0,.57.13,1.13.2,1.7-.45,0-.86-.32-1.33-.21a11.56,11.56,0,0,1-3,.21H76.49c-.87-.37-1-1.15-1.08-1.94v-.93c-.07-.39-.16-.77-.2-1.15q-.45-3.9-.87-7.8a30.79,30.79,0,0,1,.5-5c.23-1.76.39-3.53.55-5.29a19.13,19.13,0,0,0-.18-5,7.76,7.76,0,0,0-2.53-4.59,17.52,17.52,0,0,0-4.16-2.6,1.41,1.41,0,0,0-1-.18A4.62,4.62,0,0,0,65.39,75a11.6,11.6,0,0,1-1.62-1A36.23,36.23,0,0,1,68.54,72.43Z"/><path class="cls-6" d="M84.92,113c-.07-.57-.17-1.13-.2-1.7,0-.38-.13-.79.15-1.14,1.12-.11,2.25-.16,3.36-.38a2.55,2.55,0,0,0,.09,1.52,29.05,29.05,0,0,0,.28,3.84c-.15.55.22,1,.18,1.57a5.3,5.3,0,0,1-1.67-.68,1.87,1.87,0,0,0-1.33-.21c0-.39-.32-.57-.44-.88A5.86,5.86,0,0,0,84.92,113Z"/><path class="cls-11" d="M107.35,37.93a1.14,1.14,0,0,1-.58-1.6.75.75,0,0,1,1.1-.46c.09.4-.28.28-.39.43C107.34,36.82,108.18,37.41,107.35,37.93Z"/><path class="cls-19" d="M45.61,72.06c-1.38-.19-2.74-.43-4.13-.51A3.59,3.59,0,0,1,39.25,71a.58.58,0,0,1-.8.33,9.63,9.63,0,0,0-2.88-.19,7.71,7.71,0,0,1-2.34-.2,1,1,0,0,0-.64,0,5.2,5.2,0,0,1-2.6-.11,19.34,19.34,0,0,1-2.74-.33c-.32-.09-.51-.23-.56-.56q-.54-3.24-1.09-6.5c-.41-2.37-.93-4.73-1.22-7.12-.27-2.22-.86-4.39-1-6.64-.08-1.7-.41-3.38-.62-5.07a5.64,5.64,0,0,0-5.15-.11,2.74,2.74,0,0,1-.89.34.41.41,0,0,1-.41.24.27.27,0,0,1-.22.2.28.28,0,0,1-.2.23.47.47,0,0,1-.21.45l-.93,2.74c.17.68-.24,1.29-.17,2,.27.17.19.42.15.66s0,.42,0,.63a55.87,55.87,0,0,0,1,6.3,1.69,1.69,0,0,1,.06.63c.12,1.29.46,2.55.48,3.86a41.82,41.82,0,0,1,.84,4.6,22.48,22.48,0,0,1,.41,2.9,2.06,2.06,0,0,1-.36.2,6.84,6.84,0,0,0-5,8.34,7.51,7.51,0,0,1,.46,2.2c2,.46,4,.48,6,.74,1.65.22,3.32.3,5,.63a.45.45,0,0,1,.49.2c.67.07,1.35.11,2,.18a3,3,0,0,0,2.26-.19,15.2,15.2,0,0,1-.89-4.06,3.64,3.64,0,0,1,2.23-.77,18.74,18.74,0,0,1,4,.05c1.19.12,1.95.94,2.9,1.45.66.35.58,1.6,0,2.32a3.11,3.11,0,0,1-1.65,1c-.38.12-.79.17-.89.71.65,0,1.21.4,1.86.48.39-.43.84-.21,1.28-.13l3.25.56a41.74,41.74,0,0,1-.67-5.92,6,6,0,0,1,2.62-4.88,3.52,3.52,0,0,1,2.67-.87c.27,0,.59.1.78-.21C45.79,72.16,45.7,72.07,45.61,72.06Zm-14.94,5c-.08-.67.5-1.17.37-1.85a16.9,16.9,0,0,0-.75-1.76,1.65,1.65,0,0,1,.42-1.75,5.68,5.68,0,0,0,.77,3.22C31.92,75.9,31.07,76.39,30.67,77.06Zm1.64-.59A9.48,9.48,0,0,0,32.45,74,1.61,1.61,0,0,1,32.31,76.47Z"/><path class="cls-16" d="M40.48,84.1a41.9,41.9,0,0,1-.67-5.92,6,6,0,0,1,2.62-4.88,3.52,3.52,0,0,1,2.67-.87c.27,0,.59.1.78-.21A5.59,5.59,0,0,1,50,75.3c.23.4.41.83.61,1.24a1,1,0,0,0,.11.65c.23,2.3.24,4.61.54,6.9v.64c-.05,1.2.3,2.38.24,3.58,0,.16.12.32.19.48,0,1.19,0,1.31,1.19,1.69,1.75.57,3.53,1.07,5.3,1.58.22.06.44.09.54.3a4.18,4.18,0,0,1,.74,2.09c0,.75,0,1.51,0,2.26a3.82,3.82,0,0,1-.16,1.8c-2.38.08-4.76-.15-7.15.37.19.5.46.74.91.72a6.93,6.93,0,0,0,1.29,0,29.35,29.35,0,0,1,4.9-.14c0,1.06,0,2,0,3,0,1.46,0,2.91.15,4.38.17,1.26.42,2.52.47,3.8l-.4,0-.21-.18c-.32-.3-.62-.47-.87.08-.35,0-.71.07-1.06.07-1.9,0-3.8,0-5.69,0-.3,0-.78-.21-.79.4l-.13,0a1.66,1.66,0,0,0-1.66-.35c-.78.28-1.52-.14-2.29-.13l-.47,0c0-.1,0-.26-.08-.3-1.26-.76-1.58-2.05-1.83-3.35q-.8-4.23-1.48-8.48c-.54-3.39-1.07-6.78-1.73-10.15,0-.14,0-.33,0-.41.6-.69.27-1.51.36-2.27a1,1,0,0,0-.55-1C40.8,84.44,40.58,84.35,40.48,84.1Z"/><path class="cls-16" d="M39.25,71a.58.58,0,0,1-.8.33,9.63,9.63,0,0,0-2.88-.19,7.71,7.71,0,0,1-2.34-.2,1,1,0,0,0-.64,0,5.2,5.2,0,0,1-2.6-.11,19.34,19.34,0,0,1-2.74-.33c-.32-.09-.51-.23-.56-.56q-.54-3.24-1.09-6.5c-.41-2.37-.93-4.73-1.22-7.12-.27-2.22-.86-4.39-1-6.64C23.34,48,23,46.3,22.8,44.61a4.14,4.14,0,0,1,2.68-1.78,19.87,19.87,0,0,1,2.64-.34c1.67-.14,3.35-.05,5-.19,2.52-.22,5.07,0,7.61-.23,1.92-.17,3.87,0,5.81,0,.26,0,.58-.14.78.18a12.05,12.05,0,0,0-4.84,3.11,8.22,8.22,0,0,0-2.27,3.81h0c-.33.1-.37.38-.41.66a.16.16,0,0,0,0,.15.66.66,0,0,0-.2.5,29,29,0,0,0-1.86,6.45A37.93,37.93,0,0,0,37,63.37,11.48,11.48,0,0,0,39.25,71Z"/><path class="cls-10" d="M67.49,78.51A4.62,4.62,0,0,0,65.39,75a11.6,11.6,0,0,1-1.62-1,6.17,6.17,0,0,1-.62-.09A20.62,20.62,0,0,0,59,73.05l-.45,0A30.65,30.65,0,0,0,56.87,77l.21.22a7,7,0,0,0,2.71.88,8.23,8.23,0,0,1,3.47,1.5c.33.2.65.42.88.57.47.11.5-.37.89-.37.51.26,1.07.76,1.76.25a1.85,1.85,0,0,0,0-.24l-.1-.12s.06,0,.07,0a.25.25,0,0,1,0,.09A.25.25,0,0,1,67,80C67.71,79.67,67.29,79,67.49,78.51Zm-4.07-1.89a.16.16,0,0,1,.1-.24c.21,0,.3.09.35.28A.29.29,0,0,1,63.42,76.62ZM64,78.7a.28.28,0,0,1-.22-.22l-.11-.11.12.1a.28.28,0,0,1,.22.22l.11.12Zm.8-2.94c.26,0,.27.16.3.33l.29.07c-.16.25-.23.06-.32,0s-.37,0-.34-.29A.08.08,0,0,1,64.78,75.76Zm-.06,3.72v-.06l0,0Zm.77-1.43-.22-.21-.22-.21a2.28,2.28,0,0,0-.22-.22l-.21-.22L64.4,77l-.1-.12.12.1.22.21.22.22.21.22.22.21.21.22.1.12Zm.93,1.21c-.26,0-.26-.17-.29-.35L66,78.8l.12.1c.17,0,.37,0,.34.29A.12.12,0,0,1,66.42,79.26Zm-.15-1.66a.24.24,0,0,1,0-.37.33.33,0,0,1,.35.18.84.84,0,0,1,.08.27C66.51,77.86,66.38,77.72,66.27,77.6Z"/><path class="cls-7" d="M56.31,70c-2.31-1.55-4.75-2.89-7.19-4.22a2.3,2.3,0,0,1-1.29-2.65c.3-2.25.6-4.5,1-6.72a1.45,1.45,0,0,1,.38-.71,1.64,1.64,0,0,0,.61-1.52c-.39-.07-.23.37-.46.38-.31-.29.3-1.07-.64-1.08A8.07,8.07,0,0,0,48.48,55a30.09,30.09,0,0,1-.55,3.79,48.15,48.15,0,0,0-.58,5.08A2.26,2.26,0,0,0,48.56,66c2.09,1.31,4.28,2.43,6.37,3.72a11.4,11.4,0,0,1,3.67,2.9H59A6.29,6.29,0,0,0,56.31,70Zm-7.1-15a.51.51,0,0,1,.07.15s0,.05-.06.07a.56.56,0,0,1-.07-.16S49.19,55.1,49.21,55.08Z"/><path class="cls-7" d="M40.24,49.14a8.22,8.22,0,0,1,2.27-3.81,12.05,12.05,0,0,1,4.84-3.11l3-1h.3l-.09,1.07a23.59,23.59,0,0,0-5.71,2.31A11.48,11.48,0,0,0,41,48.28C40.78,48.58,40.7,49,40.24,49.14Z"/><path class="cls-5" d="M67.45,49.13h0c-.42-.1-.48-.5-.64-.8a10.37,10.37,0,0,0-6.28-5.41c-.44-.13-.81-.46-1.29-.46L59,42.24V41.6h.45l1.91.69,2,1a12.49,12.49,0,0,1,3.75,4.54C67.3,48.25,67.59,48.63,67.45,49.13Z"/><path class="cls-5" d="M40.24,49.14a8.22,8.22,0,0,1,2.27-3.81,12.05,12.05,0,0,1,4.84-3.11l3-1h.3l-.09,1.07a23.59,23.59,0,0,0-5.71,2.31A11.48,11.48,0,0,0,41,48.28C40.78,48.58,40.7,49,40.24,49.14Z"/><path class="cls-7" d="M56.87,77l.21.22c-.84,1.17-2,.86-3.19.76s-2.08-.64-3.17-.76a1,1,0,0,1-.11-.65,7.36,7.36,0,0,1,2,.52,11.82,11.82,0,0,0,2.84.36A2,2,0,0,0,56.87,77Z"/><path class="cls-5" d="M56.87,77l.21.22c-.84,1.17-2,.86-3.19.76s-2.08-.64-3.17-.76a1,1,0,0,1-.11-.65,7.36,7.36,0,0,1,2,.52,11.82,11.82,0,0,0,2.84.36A2,2,0,0,0,56.87,77Z"/><path class="cls-7" d="M60.86,62.16c-1.23,1-5.23,2-6,1.5C56.88,63.32,58.82,62.54,60.86,62.16Z"/><path class="cls-7" d="M43.58,65.41a3.48,3.48,0,0,1,3.27-.51C45.77,65.1,44.66,65.15,43.58,65.41Z"/><path class="cls-7" d="M47,65.39c-.73.38-1.33,1-2.06,1.35C45.25,65.74,46.09,65.51,47,65.39Z"/><path class="cls-5" d="M56.31,70c-2.31-1.55-4.75-2.89-7.19-4.22a2.3,2.3,0,0,1-1.29-2.65c.3-2.25.6-4.5,1-6.72a1.45,1.45,0,0,1,.38-.71,1.64,1.64,0,0,0,.61-1.52c-.39-.07-.23.37-.46.38-.31-.29.3-1.07-.64-1.08A8.07,8.07,0,0,0,48.48,55a30.09,30.09,0,0,1-.55,3.79,48.15,48.15,0,0,0-.58,5.08A2.26,2.26,0,0,0,48.56,66c2.09,1.31,4.28,2.43,6.37,3.72a11.4,11.4,0,0,1,3.67,2.9H59A6.29,6.29,0,0,0,56.31,70Zm-7.1-15a.51.51,0,0,1,.07.15s0,.05-.06.07a.56.56,0,0,1-.07-.16S49.19,55.1,49.21,55.08Z"/><path class="cls-5" d="M60.86,62.16c-1.23,1-5.23,2-6,1.5C56.88,63.32,58.82,62.54,60.86,62.16Z"/><path class="cls-5" d="M43.58,65.41a3.48,3.48,0,0,1,3.27-.51C45.77,65.1,44.66,65.15,43.58,65.41Z"/><path class="cls-5" d="M47,65.39c-.73.38-1.33,1-2.06,1.35C45.25,65.74,46.09,65.51,47,65.39Z"/><path class="cls-7" d="M39.84,49.8c0-.28.08-.56.41-.66C40.27,49.45,40.33,49.79,39.84,49.8Z"/><path class="cls-7" d="M58.6,72.65H59l0,.4-.45,0Z"/><path class="cls-5" d="M58.6,72.65H59l0,.4-.45,0Z"/><path class="cls-7" d="M39.61,50.45a.66.66,0,0,1,.2-.5C39.87,50.17,40.14,50.47,39.61,50.45Z"/><path class="cls-20" d="M82.93,71.39c1.27.1,2.52-.47,3.86-.15a7.85,7.85,0,0,1-3.59.54Z"/><path class="cls-25" d="M65.29,24.12c-.11.19-.27.27-.4.06a4.18,4.18,0,0,0-3.45-2,2,2,0,0,1-1-.37,10.14,10.14,0,0,0-3-1.34c-1.08-.34-2.18-.06-3.25-.24,0-.3.25-.38.28-.6a1.11,1.11,0,0,0-.21-.64c-.8,0-1.42-.58-2.2-.72a4.7,4.7,0,0,0-4,1A4.35,4.35,0,0,0,46.29,23c0,.3.14.65-.21.89,0,.25.15.43.22.65a7.21,7.21,0,0,0,1.53,1.73,16.13,16.13,0,0,0,0,5.67,6.85,6.85,0,0,0,2.65,4.13,1.44,1.44,0,0,0,1.22.3c-.11-.51-.21-1-.33-1.6a2.5,2.5,0,0,1-2.2-2.32,1.76,1.76,0,0,1,.78-1.75c.6-.31,1-.16,1.69.51.18.19.22.55.57.58a3.6,3.6,0,0,0,1-1.64c.28-1.07.92-1.29,1.95-1.33,2.59-.1,5-.68,6.83-2.78a.5.5,0,0,1,.44-.19,6.32,6.32,0,0,1,1.49,2.62,9.23,9.23,0,0,1,.37,2.91,2,2,0,0,0,0,.23C66.3,29.92,66.77,26,65.29,24.12ZM49.45,26c.33-2.38,3.76-4.48,5.79-3.34C52.36,22.39,50.71,23.83,49.45,26Zm.84,2.8a.94.94,0,0,1-.06-.15s0,0,.07-.06l.06.16Zm.33-.74-.11.1a.52.52,0,0,1,.1-.11c0-.1,0-.2,0-.31C50.91,27.88,50.73,27.94,50.62,28ZM61,24.36c0,.54-.46.78-.83,1.06a7.15,7.15,0,0,1-4.22,1.31c-.5,0-1,0-1.51,0a5.9,5.9,0,0,0-2.93.45l-.11.1.1-.12c.34-.8,1.11-.79,1.78-.84a20.66,20.66,0,0,1,2.36,0,6.09,6.09,0,0,0,4.86-1.76.67.67,0,0,1,.48-.2L61,24C61.27,24.21,61.08,24.28,61,24.36Zm.43-.86-.11.1.1-.11.11-.11Z"/><path class="cls-16" d="M59,41.6v.64a7.84,7.84,0,0,1-5.62-3.16.74.74,0,0,1-.18-.49h0c.33,0,.51.22.72.4a7.28,7.28,0,0,0,3.68,1.79l.36,0,.08,0,.11,0,.1,0h0l.09,0,.1,0,.08,0,.08,0a.71.71,0,0,1,.13.12l.05.05,0,0,0,.06h0a1.09,1.09,0,0,1,.08.15Z"/><path class="cls-13" d="M57.76,36l3.11.52a1.28,1.28,0,0,1-1.37,1.19A1.88,1.88,0,0,1,57.76,36Z"/><path class="cls-11" d="M59.67,34.9c.3-.13.5.1.77-.1a16.32,16.32,0,0,1-.11-3.21c.34,0,.4.09.41.24a8.82,8.82,0,0,0,.2,2.23,1,1,0,0,1-.29,1.07C60.3,35.41,60.27,35.41,59.67,34.9Z"/><path class="cls-14" d="M58.84,30a7.73,7.73,0,0,0-2.77.34c.4-.93,1.2-1,2-1C58.55,29.31,58.55,29.32,58.84,30Z"/><path class="cls-11" d="M63.18,33.69c.35.39-.34.59.06,1,.19.19-.35.55-.73.34a1,1,0,0,1-.24-.21c-.15-.16-.28-.32-.42-.48A1,1,0,0,1,63.18,33.69Z"/><path class="cls-6" d="M62.46,31.66A1.09,1.09,0,0,1,62.81,33c-.09.23-.21.48-.53.45a.5.5,0,0,1-.47-.5C61.76,32.39,61.74,31.88,62.46,31.66Z"/><path class="cls-6" d="M57.71,31c.61.31.54.82.43,1.31a.54.54,0,0,1-.64.45.57.57,0,0,1-.44-.64A1.07,1.07,0,0,1,57.71,31Z"/><path class="cls-3" d="M63.88,30.94a19.08,19.08,0,0,0-2.08-.62C62.25,29.52,63.25,29.83,63.88,30.94Z"/><path class="cls-11" d="M51.3,32.3c.21.38.59.66.07,1.05C51,33,50.92,32.73,51.3,32.3Z"/><path class="cls-11" d="M50.76,31.75c-.32.2-.49.53-.9.51C50.07,31.76,50.07,31.76,50.76,31.75Z"/><path class="cls-16" d="M53.2,38.59l-.1-.12.07,0s0,.06,0,.09Z"/><path class="cls-22" d="M47.18,18.13A17.75,17.75,0,0,1,49.68,17a4.15,4.15,0,0,1,4.1,1.15l.47.44,0,.4c-.8,0-1.42-.58-2.2-.72a4.7,4.7,0,0,0-4,1A4.35,4.35,0,0,0,46.29,23c0,.3.14.66-.2.89A3.09,3.09,0,0,1,45.6,21,9.52,9.52,0,0,1,47.18,18.13Z"/><path class="cls-10" d="M85.34,114.92c.12.31.48.49.44.88a6.78,6.78,0,0,0-.7,1.18c-.46,1.22-1.21,1.27-2.23,1.14A15.75,15.75,0,0,1,78.66,117a9.11,9.11,0,0,1-2.39-1.16V114.7c.45-.52.11-1.15.22-1.72h4.05a11.56,11.56,0,0,0,3-.21C83.69,114.05,84.06,114.5,85.34,114.92Z"/><path class="cls-17" d="M76.27,114.7v1.09c-.4.57-.21,1.29-.52,1.9-.83-.1-1.4-.89-2.27-.81-.37-.56-1-.79-1.43-1.32-.2-.28-.55-.45-.52-.86Z"/><path class="cls-6" d="M78.63,119.46l-.17-.11c.11-.12.18-.07.23.05Z"/><path class="cls-4" d="M50.72,77.19c1.09.12,2.08.66,3.17.76s2.35.41,3.19-.76a7,7,0,0,0,2.71.88,8.28,8.28,0,0,1,3.47,1.5c.33.2.65.42.88.57.47.11.5-.37.89-.37.51.26,1.07.76,1.76.25L67,80c.71-.31.29-1,.49-1.47a1.41,1.41,0,0,1,1,.18,17.52,17.52,0,0,1,4.16,2.6,7.76,7.76,0,0,1,2.53,4.59,19.13,19.13,0,0,1,.18,5c-.16,1.76-.32,3.53-.55,5.29a30.79,30.79,0,0,0-.5,5c-.21.08-.2.27-.22.45-.18,1.16-.36,2.33-.53,3.49-.26,1.7-.52,3.39-.77,5.09-.34.22-.16.57-.2.86a13.48,13.48,0,0,1-.75,2.46c-.23.2-.6,0-.76.32-1.68,0-3.36,0-5,0-.33,0-.72.13-1-.2a26.47,26.47,0,0,0-.26-4.17c-.12-1.92-.42-3.83-.38-5.76.06-2.82-.15-5.65.18-8.48a35.85,35.85,0,0,0,0-4.52,3.46,3.46,0,0,0-2.69-3.65c-.4-.14-.81-.27-1.22-.38a83.53,83.53,0,0,1-9.45-2.58C51,81.8,51,79.49,50.72,77.19Z"/><path class="cls-4" d="M51.7,88.79c-.07-.16-.2-.32-.19-.48.06-1.2-.29-2.38-.24-3.58a2.43,2.43,0,0,1,1.15.21c1.14.39,2.27.81,3.45,1.09,2,.48,4,1,6,1.48a2.44,2.44,0,0,1,2,2.07,12,12,0,0,1,.31,2.32c0,.89-.14,1.78-.19,2.66-.12,2.07,0,4.14-.24,6.21a23.11,23.11,0,0,0,.17,2.76,51.73,51.73,0,0,0,.89,10.09H64a2.06,2.06,0,0,1-1.09-1.82c0-.28-.21-.34-.43-.37a1.67,1.67,0,0,1-.18-.79c.32-.26.19-.6.13-.9a49.52,49.52,0,0,1-.82-8.42c-.06-3,0-6,0-9A2,2,0,0,0,61.46,91,64.13,64.13,0,0,1,51.7,88.79Z"/><path class="cls-4" d="M64.84,113.62A51.73,51.73,0,0,1,64,103.53a23.11,23.11,0,0,1-.17-2.76c.24-2.07.12-4.14.24-6.21,0-.88.16-1.77.19-2.66a12,12,0,0,0-.31-2.32,2.44,2.44,0,0,0-2-2.07c-2-.48-4-1-6-1.48-1.18-.28-2.31-.7-3.45-1.09a2.43,2.43,0,0,0-1.15-.21v-.64a83.53,83.53,0,0,0,9.45,2.58c.41.11.82.24,1.22.38a3.46,3.46,0,0,1,2.69,3.65,35.85,35.85,0,0,1,0,4.52c-.33,2.83-.12,5.66-.18,8.48,0,1.93.26,3.84.38,5.76a26.47,26.47,0,0,1,.26,4.17Z"/><path class="cls-5" d="M64.84,113.62A51.73,51.73,0,0,1,64,103.53a23.11,23.11,0,0,1-.17-2.76c.24-2.07.12-4.14.24-6.21,0-.88.16-1.77.19-2.66a12,12,0,0,0-.31-2.32,2.44,2.44,0,0,0-2-2.07c-2-.48-4-1-6-1.48-1.18-.28-2.31-.7-3.45-1.09a2.43,2.43,0,0,0-1.15-.21v-.64a83.53,83.53,0,0,0,9.45,2.58c.41.11.82.24,1.22.38a3.46,3.46,0,0,1,2.69,3.65,35.85,35.85,0,0,1,0,4.52c-.33,2.83-.12,5.66-.18,8.48,0,1.93.26,3.84.38,5.76a26.47,26.47,0,0,1,.26,4.17Z"/><path class="cls-19" d="M51.7,88.79A64.13,64.13,0,0,0,61.46,91a2,2,0,0,1,.18,1.33c0,3-.1,6,0,9a49.52,49.52,0,0,0,.82,8.42c.06.3.19.64-.13.9a.71.71,0,0,0-.95-.2,3.52,3.52,0,0,1-1.47.12c0-1.28-.3-2.54-.47-3.8-.19-1.47-.1-2.92-.15-4.38,0-1,0-1.92,0-3a29.35,29.35,0,0,0-4.9.14,6.93,6.93,0,0,1-1.29,0c-.45,0-.72-.22-.91-.72,2.39-.52,4.77-.29,7.15-.37a3.82,3.82,0,0,0,.16-1.8c0-.75,0-1.51,0-2.26a4.18,4.18,0,0,0-.74-2.09c-.1-.21-.32-.24-.54-.3-1.77-.51-3.55-1-5.3-1.58C51.72,90.1,51.7,90,51.7,88.79Z"/><path class="cls-26" d="M36.64,79.21c-1-.51-1.71-1.33-2.9-1.45a18.74,18.74,0,0,0-4-.05,3.64,3.64,0,0,0-2.23.77,15.2,15.2,0,0,0,.89,4.06.72.72,0,0,1,.27.58c-.73.38-1.79.11-2.26,1,.08.38.35.45.57.53a13.55,13.55,0,0,0,8.65.08c.66-.2.61-.6.28-1.06-.65-.08-1.21-.45-1.86-.48.1-.54.51-.59.89-.71a3.11,3.11,0,0,0,1.65-1C37.22,80.81,37.3,79.56,36.64,79.21Zm-8.59-.52a9.23,9.23,0,0,1,7,.1A15.26,15.26,0,0,1,28.05,78.69Zm6.69,3.2a15.64,15.64,0,0,1,.68-2.33c.61-.13.92.09,1,.67C36.48,81,36.05,81.48,34.74,81.89Z"/><path class="cls-27" d="M23.67,82.35a.45.45,0,0,1,.49.2l-.21.24c-2.1.83-4.19,1.7-6.34,2.4a.57.57,0,0,0-.42.56l0,1a26.62,26.62,0,0,1-4.53-.58c-2.07-.29-4.13-.66-6.19-1l0-1.47a34.64,34.64,0,0,1,4.32.51,26.88,26.88,0,0,1,4.2.59c1.64.48,3.06-.11,4.51-.7S22.26,82.92,23.67,82.35Z"/><path class="cls-19" d="M6.44,85.12c2.06.34,4.12.71,6.19,1a26.62,26.62,0,0,0,4.53.58c2.22-.56,4.31-1.51,6.48-2.22.43-.15.26-.54.35-.82.38.1.43.42.49.74a3,3,0,0,1-1.3.74c-1.66.64-3.35,1.21-5,1.91-1.12.47-2.19.09-3.25,0-2.43-.32-4.84-.78-7.26-1.19l-1.6-.32C6.06,85.14,6.29,85.18,6.44,85.12Z"/><path class="cls-3" d="M24,83.66c-.09.28.08.67-.35.82-2.17.71-4.26,1.66-6.48,2.22l0-1a.57.57,0,0,1,.42-.56c2.15-.7,4.24-1.57,6.34-2.4A1.61,1.61,0,0,0,24,83.66Z"/><path class="cls-19" d="M72.81,110.19c.25-1.7.51-3.39.77-5.09.17-1.16.35-2.33.53-3.49,0-.18,0-.37.22-.45q.42,3.9.87,7.8c0,.38.13.76.2,1.15A20.38,20.38,0,0,1,72.81,110.19Z"/><path class="cls-28" d="M25.17,41.61c3.57-.28,7.16,0,10.73-.27,3.29-.22,6.58-.05,9.87-.17A29.05,29.05,0,0,1,49.5,41c.3,0,.66-.14.89.21l-3,1c-.2-.32-.52-.18-.78-.18-1.94,0-3.89-.14-5.81,0-2.54.23-5.09,0-7.61.23-1.68.14-3.36.05-5,.19a19.87,19.87,0,0,0-2.64.34,4.14,4.14,0,0,0-2.68,1.78,5.64,5.64,0,0,0-5.15-.11,2.74,2.74,0,0,1-.89.34h0c0-.54.44-.78.8-1.05a23.65,23.65,0,0,1,2.85-1.53c.61.11,1.15-.23,1.74-.23a7.85,7.85,0,0,1,2.32-.21A1.58,1.58,0,0,0,25.17,41.61Z"/><path class="cls-28" d="M30.67,77.06c-.09-.67.5-1.17.37-1.85a16.9,16.9,0,0,0-.75-1.76,1.64,1.64,0,0,1,.42-1.75,5.61,5.61,0,0,0,.78,3.22C31.92,75.9,31.07,76.39,30.67,77.06Z"/><path class="cls-10" d="M32.31,76.47A9.48,9.48,0,0,0,32.45,74,1.61,1.61,0,0,1,32.31,76.47Z"/><path class="cls-28" d="M16.76,44.84a.41.41,0,0,1-.41.24l0,0c.08-.2.25-.21.43-.21Z"/><path class="cls-28" d="M15.72,46l0-.28a.26.26,0,0,1,.22-.19l0,0A.49.49,0,0,1,15.72,46Z"/><path class="cls-28" d="M16.35,45.08a.27.27,0,0,1-.22.2h0a.29.29,0,0,1,.22-.22Z"/><path class="cls-28" d="M16.13,45.28a.28.28,0,0,1-.2.23l0,0a.28.28,0,0,1,.21-.22Z"/><path class="cls-19" d="M59.26,110.43a1.3,1.3,0,0,1-.87.08C58.64,110,58.94,110.13,59.26,110.43Z"/><path class="cls-11" d="M66.3,77.23a.34.34,0,0,1,.35.18.77.77,0,0,1,.08.27c-.22.18-.35,0-.46-.08A.24.24,0,0,1,66.3,77.23Z"/><path class="cls-11" d="M63.87,76.66a.29.29,0,0,1-.45,0,.16.16,0,0,1,.1-.24C63.73,76.34,63.83,76.47,63.87,76.66Z"/><path class="cls-11" d="M66.15,78.9c.17,0,.37,0,.34.29a.12.12,0,0,1-.07.07c-.26,0-.26-.17-.29-.35Z"/><path class="cls-11" d="M65.05,76.12c-.17,0-.36,0-.34-.29a.08.08,0,0,1,.07-.07c.26,0,.27.16.29.33Z"/><path class="cls-11" d="M65.07,76.09l.31.07c-.17.25-.24.06-.33,0Z"/><path class="cls-11" d="M67,80l-.21,0v-.25h0A.25.25,0,0,1,67,80Z"/><path class="cls-11" d="M66.78,79.77l-.1-.11s.06,0,.07,0a.25.25,0,0,1,0,.09Z"/><path class="cls-11" d="M65.49,78.05l-.22-.21,0,0,.21.22Z"/><path class="cls-11" d="M64.86,77.39l.21.22,0,0-.22-.22Z"/><path class="cls-11" d="M64.64,77.17l.22.22,0,0-.21-.22Z"/><path class="cls-11" d="M65.5,78l.1.12-.11-.11Z"/><path class="cls-27" d="M63.76,78.48l-.11-.11.12.1Z"/><path class="cls-27" d="M64,78.7a.28.28,0,0,1-.22-.22h0a.28.28,0,0,1,.22.22Z"/><path class="cls-11" d="M64.62,77.19,64.4,77l0,0,.22.21Z"/><path class="cls-11" d="M64.4,77l-.1-.12.12.1Z"/><path class="cls-11" d="M65.07,77.61l.22.21,0,0-.22-.21Z"/><path class="cls-27" d="M64,78.69l.11.12L64,78.7Z"/><path class="cls-11" d="M66.13,78.91,66,78.8l.12.1Z"/><polygon class="cls-26" points="64.78 79.46 64.72 79.47 64.73 79.42 64.78 79.46"/><path class="cls-26" d="M49.22,55.3a.71.71,0,0,1-.07-.16s0,0,.06-.06a.51.51,0,0,1,.07.15S49.24,55.28,49.22,55.3Z"/><path class="cls-22" d="M51.47,27.15c.34-.8,1.11-.79,1.78-.84a20.66,20.66,0,0,1,2.36,0,6.1,6.1,0,0,0,4.86-1.77.71.71,0,0,1,.48-.19l0,0c0,.54-.46.78-.83,1.06a7.06,7.06,0,0,1-4.22,1.31c-.5,0-1,0-1.51,0a5.9,5.9,0,0,0-2.93.45Z"/><path class="cls-22" d="M49.45,26c.34-2.38,3.76-4.48,5.79-3.34C52.36,22.39,50.71,23.83,49.45,26Z"/><path class="cls-22" d="M61,24.34,61,24c.25.17.06.24-.05.32Z"/><path class="cls-22" d="M50.36,28.72l-.07.05a.94.94,0,0,1-.06-.15s0,0,.07-.06Z"/><path class="cls-22" d="M50.61,28l.06-.3c.24.17.06.24-.05.32Z"/><path class="cls-14" d="M61.4,23.5l-.11.1.1-.12Z"/><path class="cls-14" d="M61.39,23.48l.11-.1-.1.12Z"/><path class="cls-22" d="M50.62,28l-.11.1.1-.12Z"/><path class="cls-14" d="M51.48,27.17l-.11.1.1-.12Z"/><path class="cls-11" d="M35,78.79a15.26,15.26,0,0,1-7-.1A9.23,9.23,0,0,1,35,78.79Z"/><path class="cls-19" d="M34.74,81.89a16,16,0,0,1,.68-2.33c.61-.13.92.09,1,.68C36.48,81,36.05,81.48,34.74,81.89Z"/><path class="cls-29" d="M58.66,41.38l.22-.05a3.17,3.17,0,0,0,.87-.33l.61-.34h0l.15-.09.79-.48"/><path class="cls-29" d="M64.26,31.29s0,0,0,.13"/><path class="cls-11" d="M58.25,40.89,60,40.7a6.31,6.31,0,0,1-1.68.2h0Z"/><path class="cls-11" d="M62,77.05a12.72,12.72,0,0,1,2.92,2.67"/><path class="cls-11" d="M62.8,76.25a8.56,8.56,0,0,1,2.78,2.2c1.26,1.53,1.34,1.65,1.34,1.65"/><path class="cls-11" d="M63.86,75.49a19.58,19.58,0,0,1,3.57,3.15"/><path class="cls-21" d="M56.7,29.42a6.51,6.51,0,0,0-1.39.39c0,.1.28,2.77.36,3S57,34.45,57,34.5s-.38,2.48.26,3.14,2.69.52,2.69.52l1.23-.59,2.25-2.12.07-1.35.26-.43.16-2.15.22-.71-.35-.8-2.53-1.4s-2.55.13-2.56.17S56.7,29.42,56.7,29.42Z"/><path class="cls-9" d="M94.44,34.93s0,.37,0,.58a1.19,1.19,0,0,0,0,.31v.06s.3.86.3.88.48,1.5.48,1.5l.82-.13s.87-.08,1-.08.5,0,1-.06,1.06-.12,1.34-.09a3.88,3.88,0,0,0,.73-.06c.09,0,.21-.24.28-.31s1.54-2.36,1.54-2.36l-1.2-.88,0,0-.9-.31-.35-.06-.57-.26H95.87C95.81,33.65,94.44,34.93,94.44,34.93Z"/><path class="cls-19" d="M17.56,70.31S14.44,51.21,14.46,51s.41-4.86,1.27-5.63a10.24,10.24,0,0,1,1.17-1s1.5,6.26,1.5,6.34,2.26,15.76,2.26,15.76Z"/><path class="cls-28" d="M16.86,44.36a10.84,10.84,0,0,1,2.35-1.84c1-.44,7.71-1.25,11.3-1.18s10.72-.19,10.72-.19l8.84-.23.67.11h.16l-4.56.38-3.61.18L38,41.93l-3.92-.19-5.56.46H26l-3.33,1.31-2.49.3Z"/></svg>