<svg id="Layer_1" data-name="Layer 1" xmlns="http://www.w3.org/2000/svg" viewBox="0 0 60 60"><defs><style>.cls-1{fill:#fff;}.cls-2{fill:#d3d3f4;}.cls-3{opacity:0.5;isolation:isolate;}.cls-4{fill:#2e2c3f;}.cls-14,.cls-16,.cls-17,.cls-18,.cls-19,.cls-5,.cls-8,.cls-9{fill:none;}.cls-16,.cls-17,.cls-18,.cls-19,.cls-5,.cls-8{stroke:#2e2c3f;}.cls-5,.cls-9{stroke-miterlimit:10;}.cls-5{stroke-width:0.08px;}.cls-6{fill:#fba190;}.cls-7{fill:#8585d6;}.cls-14,.cls-16,.cls-17,.cls-18,.cls-19,.cls-8{stroke-linecap:round;stroke-linejoin:round;}.cls-8{stroke-width:0.06px;}.cls-9{stroke:#d3d3f4;stroke-width:0.04px;}.cls-10{fill:#f2aa7f;}.cls-11{fill:#9e604a;}.cls-12{opacity:0.2;}.cls-13{fill:#424157;}.cls-14{stroke:#fff;}.cls-14,.cls-16{stroke-width:0.05px;}.cls-15{fill:#fd5d5d;}.cls-17{stroke-width:0.61px;}.cls-18{stroke-width:0.05px;}.cls-19{stroke-width:0.15px;}</style></defs><title>Geriatric Support-</title><path class="cls-1" d="M59.94,30.07a29.64,29.64,0,0,1-6,17.93c-.31.41-.63.82-1,1.21a29.78,29.78,0,0,1-39.91,5.26c-.59-.41-1.16-.84-1.71-1.3a29.14,29.14,0,0,1-5.47-5.84c-.48-.65-.91-1.32-1.32-2A29.79,29.79,0,0,1,36.15.89a6,6,0,0,1,.61.14q.33.06.66.15h0a28.15,28.15,0,0,1,3,.93,25.67,25.67,0,0,1,3,1.33,22.45,22.45,0,0,1,2.3,1.28l.15.1.15.09A29.73,29.73,0,0,1,59.94,30.07Z"/><path class="cls-2" d="M46,4.83l-.15-.1V28.6H26.32V1.18h11.1q-.33-.09-.66-.15a6,6,0,0,0-.61-.14H26v28H46.1v-24Zm-10,23.77v.3h6.87v-.15h2.33V28.6Z"/><g class="cls-3"><polygon class="cls-2" points="38.77 2.08 27.22 13.63 27.22 10.64 35.77 2.08 38.77 2.08"/></g><g class="cls-3"><path class="cls-2" d="M43.5,3.45l-7.29,7.29-.3.3-8.64,8.64-.05.05V15.36l8.69-8.69.3-.3,4.25-4.25A25.67,25.67,0,0,1,43.5,3.45Z"/></g><path class="cls-2" d="M46,4.83V28.75H26.32V1.19h11.1q-.33-.09-.66-.15H26.17V28.9H46.1v-24ZM42.13,28.75H36.78c0,.05,0,.1,0,.15h5.4A.76.76,0,0,0,42.13,28.75Z"/><rect class="cls-2" x="35.91" y="1.04" width="0.3" height="27.87"/><path class="cls-4" d="M47,46.73l-.14-.82-.47-2.85L44,43.47l.93,3.29,1.52,5.41a.76.76,0,0,0,.85.54.75.75,0,0,0,.61-.86ZM53.94,48l-.56-3.38L52.6,40l-.05-.33L50.1,40l1.52,5.39.93,3.31a.7.7,0,0,0,.42.48.74.74,0,0,0,1-.81ZM6.77,39.6l-1.22-.2L5,42.81l-.42,2.52-.47,2.85A.74.74,0,0,0,4.7,49a.76.76,0,0,0,.85-.54l.33-1.17,1.18-4.21L8,39.8Zm7.09-2-.52,3.1-.52,3.12-.43,2.56a.75.75,0,0,0,.62.86.73.73,0,0,0,.84-.53L14.61,44l.87-3.09L16.31,38Z"/><path class="cls-2" d="M56.79,42.2c2.05-2.24,3.6-13.67.7-16.26s-38.75-4.75-41.95-4.45S3.77,26.18,2.47,28.08s-.7,13.77,1.8,14.57,39,4.34,42.15,4.14S54.8,44.4,56.79,42.2Z"/><path class="cls-5" d="M16.39,33.32s0-.4,0-1.09v-.55h0a33.4,33.4,0,0,0-1-8.22m39.16,3.79s-4.25,3.07-5.82,5.31h0a4.17,4.17,0,0,0-.38.65h0a10.77,10.77,0,0,0-.59,2.45h0c-.55,3.42-.83,8.84-.9,10.23,0,.21,0,.33,0,.33"/><path class="cls-5" d="M48.37,33.22h0s.16-.09.35-.17c.82-.37,2.84-1,3.6,1.23A17.09,17.09,0,0,1,52.6,40c-.19,2.56-.57,4.87-.57,4.87M2.15,28.7l.07,0c.46-.12,3.06-.64,3.68,2.57a80.07,80.07,0,0,1,.87,8.35c.08,1.25.12,2.1.12,2.1M6.79,39s2.32-4,8.46-5.31l.67-.12.13,0h.05a29.2,29.2,0,0,1,3.23-.15h0l1.81,0c1.49,0,3.13.13,4.85.25h0l.72.05h0l3.64.31h0l4.07.41.27,0,.66.07.59.06.24,0h.06l.19,0,1.05.12.21,0,1.57.17h.08l1.2.15.22,0,.3,0,.54.07,3.69.48h.07l1.79.23h0l.3.05M8.26,40.15l5.08.55,2.14.23,3,.32,2.31.23,1.82.18h.05l2.5.24,1.72.16,2.91.27,1.08.1c2,.17,3.85.33,5.59.46l1.72.13a51.41,51.41,0,0,0,7.06.17"/><path class="cls-6" d="M14.4,52.47s.14-.19.48-.74a3.7,3.7,0,0,0,.57-1.12s3.1-3.36,3.28-3.62l-1.84-1.12c-.12.26-3.05,3.17-3.12,3.34-.35.46-.76,1-1,1.29A3.17,3.17,0,0,0,12,52.09s-.2-.08-.07.29a3.37,3.37,0,0,0,1.52,1.17c.31,0,.94-1.08.94-1.08Z"/><path class="cls-4" d="M14.45,52.47S13.7,53.52,13,53a1.56,1.56,0,0,1-.74-.92c-.08-.53,1.17-2.25,1.38-2.58a1.2,1.2,0,0,0-.45.41c-.31.42-.47.61-.78,1A12.58,12.58,0,0,0,11.57,52a2,2,0,0,0-.19,1.29c.15.21,1.32,1.22,1.58,1.19s.66-.61,1-1a4.17,4.17,0,0,0,.52-1Z"/><path class="cls-7" d="M25.89,33.3s1.37,3.91,1.66,5.39,0,3-1.08,3.76c-1.7,1.1-9.61,7.91-9.61,7.91a3.13,3.13,0,0,1-1.51-1,3.73,3.73,0,0,1-.72-1.53l7.1-7.27s-.65-7.28-.56-7.25,4.72,0,4.72,0Z"/><path class="cls-6" d="M20.58,55.08s0-.23-.09-.88A3.88,3.88,0,0,0,20.25,53s.33-4.56.31-4.88l-2.15.27c.07.28-.4,4.38-.35,4.56,0,.58,0,1.24,0,1.66a3.08,3.08,0,0,0,.42,1.69s-.21.07.13.27a3.26,3.26,0,0,0,1.91,0c.27-.17.07-1.43.07-1.43Z"/><path class="cls-4" d="M20.58,55s.07,1.28-.82,1.33a1.58,1.58,0,0,1-1.15-.26c-.39-.37-.49-2.49-.53-2.88a1.17,1.17,0,0,0-.1.6c0,.52,0,.77,0,1.29,0,0,0,.43,0,1.36,0,.26.41,1,.66,1.13a5,5,0,0,0,2-.06c.2-.19.13-.88.12-1.39A4,4,0,0,0,20.58,55Z"/><path class="cls-7" d="M16.39,32.21a5.81,5.81,0,0,0-.31,4.54,24.3,24.3,0,0,0,2.46,4.34s-.39,2.35-.5,4.11-.44,6.1-.44,6.1,2.37,1.11,3.54.5c0,0,.92-6.92,1.27-8.48a11.63,11.63,0,0,0,.09-5.22c-.44-2-.87-4.31-.87-4.31L17.49,33l-1.1-.77Z"/><path class="cls-5" d="M22,45.34c.14-.88.27-1.63.36-2a11.6,11.6,0,0,0,.08-5.21c-.43-2-.62-3.1-.62-3.1"/><path class="cls-4" d="M21.94,18.32a40.81,40.81,0,0,0,4.88.3c.62-.16.06-3.76.06-3.76l-1.41-1.65A8.68,8.68,0,0,0,24,13c-.06.08-1.93,2-1.93,2s-.51,1.81-.48,1.92.37,1.38.37,1.38Z"/><path class="cls-6" d="M22.64,17.29a7.63,7.63,0,0,1,.08,1.49,1.6,1.6,0,0,1-.57.83,4.38,4.38,0,0,1-.64.33l1.2,1.7c1.16,8.21,3-1.22,2.85-2.05,0,0-.08.06-.06-.3s.06-.48.06-.48l-2.93-1.52Z"/><path class="cls-1" d="M22.56,20.56a5.61,5.61,0,0,0,2.93.07c1.41-.42-1.28,4.12-1.4,4a20.58,20.58,0,0,1-2-1.47c0-.13.48-2.6.48-2.6Z"/><path class="cls-6" d="M25.26,12.72a3.44,3.44,0,0,1,1.51,2.63c.2,1.9-.45,3.59-1.32,3.69s-2.38-.95-2.92-1.75A4.15,4.15,0,0,1,22,13.63c.57-1.22,2.17-1.3,3.25-.91Z"/><path class="cls-4" d="M21.33,17.37a5.7,5.7,0,0,0,.07,1.43,2.15,2.15,0,0,0,.7,0,5.59,5.59,0,0,1,0-.69,1.6,1.6,0,0,0,.22.68l.24,0a4.32,4.32,0,0,1-.22-1.82,1.87,1.87,0,0,1,1.49-1.61,2.53,2.53,0,0,0,1.72-1.69,3,3,0,0,1,1.14,1.53,7.41,7.41,0,0,1,.1,3.8l.12,0,.12,0a.64.64,0,0,0,.22-.19,6.24,6.24,0,0,0,.21-3.46c-.36-1.6-1.69-3.85-3.83-2.91a2,2,0,0,0-2.19,1.45c-.63,1.75-.13,2.61-.1,3.57Z"/><path class="cls-8" d="M25.45,19a3.6,3.6,0,0,1-2.24-1"/><path class="cls-6" d="M22.61,17.37c-.53,0-1.13-1.14-.81-1.4s.57.13.57.13Z"/><path class="cls-8" d="M22.41,16.78s-.15-.62-.33-.62-.14.25-.14.25"/><path class="cls-8" d="M22.26,16.36s-.14-.15-.23,0"/><path class="cls-9" d="M23.62,12.41l.39.1a3,3,0,0,1,1.1.64h0a2.15,2.15,0,0,1,.32.35M22.5,15.64c.15-.32.34-.65,1.2-.86a1.53,1.53,0,0,0,1.08-1"/><path class="cls-9" d="M24.11,14.27a1.3,1.3,0,0,1-.73.34,1.12,1.12,0,0,0-.67.33"/><path class="cls-10" d="M28.79,20.39a3.94,3.94,0,0,1,1.76,1.71c.81,1.36,2.35,4,2.35,4l3-1.68L37,26.33s-2.93,3.33-4,3.33-4.69-5.45-4.69-5.45l-.32-2.66Z"/><path class="cls-1" d="M31.48,23.61S32.86,26,32.91,26s2.74-1.49,2.74-1.49l1.09,2.14s-2.87,3.21-3.85,3.09S29,25.42,29,25.42L30.65,24l.83-.4Z"/><path class="cls-7" d="M28.58,19.86a4.73,4.73,0,0,1,2.07,2.06,7.82,7.82,0,0,1,.89,1.7,8,8,0,0,0-2.31,2.13l-1-1.15.43-3.05-.1-1.69Z"/><path class="cls-7" d="M22.08,19.6a26.91,26.91,0,0,0-3.75,1.17c-.29.29.5,3.94.29,5.74a13.65,13.65,0,0,1-1.94,4.66c-.55,1-1,2.12-1,2.12a3.66,3.66,0,0,0,2.69.4c1.6-.35,2.52.38,3.94.49a19.33,19.33,0,0,0,3.84-.32A6.05,6.05,0,0,1,26,31.29c.26-1.25,2-3.13,2.29-4.58A44.54,44.54,0,0,0,28.62,22a8.19,8.19,0,0,0-.11-2.13,17.54,17.54,0,0,0-3-.27L24.32,24l-2.24-4.41Z"/><path class="cls-4" d="M20.52,23.12h.24l.2-1.62a2.2,2.2,0,0,1,1.42-2.11l.05,0,.12-.16a2.39,2.39,0,0,0-1.84,2.32l-.18,1.61Z"/><circle class="cls-1" cx="20.65" cy="23.36" r="0.43"/><circle class="cls-4" cx="20.65" cy="23.36" r="0.25"/><path class="cls-4" d="M25.49,19.54v.06c.05,0,1.05.36,1.22,2.35l.22,0c-.19-2.17-1.39-2.49-1.43-2.5l0,.11Z"/><path class="cls-1" d="M27.71,25.37h-.06l0-.1a.39.39,0,0,0,.28-.08.36.36,0,0,0,.12-.27,5,5,0,0,0-.17-1.28l.1,0a4.63,4.63,0,0,1,.17,1.32.5.5,0,0,1-.15.35.53.53,0,0,1-.31.1Z"/><circle class="cls-1" cx="27.66" cy="25.24" r="0.13"/><path class="cls-1" d="M26.47,25.46a.44.44,0,0,1-.45-.41,5.33,5.33,0,0,1,0-1.33l.11,0a5,5,0,0,0,0,1.29.34.34,0,0,0,.15.26.42.42,0,0,0,.28.05l0,.1h-.12Z"/><circle class="cls-1" cx="26.56" cy="25.32" r="0.13"/><path class="cls-4" d="M26.09,23.86h0a.11.11,0,0,1-.11-.11c0-.19.06-1.86.8-1.92s1.25,1.63,1.3,1.82a.11.11,0,0,1-.07.13.11.11,0,0,1-.14-.07c-.19-.66-.65-1.69-1.07-1.66s-.59,1.27-.6,1.7a.11.11,0,0,1-.11.11Z"/><path class="cls-5" d="M15.71,33.29a3.66,3.66,0,0,0,2.69.4c1.59-.35,2.52.38,3.94.5a19.87,19.87,0,0,0,3.84-.33"/><path class="cls-6" d="M18.4,20.71s-1,.23-1.14,2.92,0,7.47,1.42,8.49,6.69.06,6.69.06l.26-1.74-5.1-.52s-.41-3.19-.78-5.62a7.78,7.78,0,0,0-1.35-3.59Z"/><path class="cls-1" d="M17.13,26.41s.22,4.79,1.42,5.76,5.45.37,5.45.37.65-1.58.08-2.25l-3.46-.41L20,26l-2.36-.12-.52.52Z"/><path class="cls-11" d="M37.86,22.06c2.54,2.38,4.28,1.72,5.29-1.37l-.57-3.44s0-.17,0-.21l-2.87,1.22a8,8,0,0,1-.5,1.79,14.34,14.34,0,0,1-1.33,2Z"/><path class="cls-2" d="M43.23,14.77h0s0,0,0,0a.35.35,0,0,0-.1-.11.18.18,0,0,0-.14,0c-.12.06,0,.51,0,.7,0,0,0,0,0,.06v0h0l0,0,.37.21a1.78,1.78,0,0,0,0-.2h0A1.12,1.12,0,0,0,43.23,14.77Zm-5-.47h0l-.08.07-.1.12a0,0,0,0,1,0,0,.61.61,0,0,0-.1.42c0,.41-.14.55-.14.82s.17.76.38.82a.14.14,0,0,0,.09,0C38.51,16.49,38.22,14.3,38.22,14.3Z"/><path class="cls-11" d="M38.11,15.75c0-.22,0-.44,0-.66a2.62,2.62,0,0,1,1-2.43,3.11,3.11,0,0,1,2.33-.4c1.33.29,1.61,1.64,1.55,2.83,0,0,0,.07,0,.09l0,.09s0,.19,0,.48a8.81,8.81,0,0,1-.27,1.47,3.51,3.51,0,0,1-2.89,2.38c-1.29,0-1.43-1.42-1.53-2.38-.05-.49-.11-1-.13-1.47Z"/><path class="cls-2" d="M38.29,17.14c.09,1.27.3,2.52,1.63,2.59a2.86,2.86,0,0,0,2.65-2.12.7.7,0,0,0-.19-.28s-.1-.18-.12-.19,0-1.11,0-1.11l-.6.24v0c0,.19.11,1.35-.48,1.43s-.67-.28-1.42-.22c-.58,0-.62.46-.88.37a1.14,1.14,0,0,1-.63-.74Z"/><path class="cls-11" d="M42.55,15.48s1-.62,1,.37a1.65,1.65,0,0,1-.87,1.36l-.08-1.73Z"/><path class="cls-2" d="M42.45,15.88a.58.58,0,0,0,.55-.53s.46-.25.12-.81c0,0,.1-.45-.25-.56s-.48.14-.48.14a.51.51,0,0,0-.55-.11c-.19.07-.22.53-.22.53s-.23,0-.34.53a.73.73,0,0,0,.2.55s-.14.37,0,.53.63.43,1-.27Z"/><g class="cls-12"><path class="cls-4" d="M40.83,14.23l-.08,0-.22.05-.32,0-.37,0h-.7l-.23,0-.08,0h.31l.32,0,.37,0,.37,0,.32,0,.23,0Z"/></g><g class="cls-12"><path class="cls-4" d="M40.56,14l-.06,0-.16,0-.24,0a2,2,0,0,1-.27,0h-.51l-.16,0-.07,0h.23l.24,0,.27,0,.26,0h.47Z"/></g><path class="cls-2" d="M43.08,15.24s.42-1.82,0-2.3a1.62,1.62,0,0,0-1-.51,1.94,1.94,0,0,0-.94-.29,4.92,4.92,0,0,0-1.69.12c-.47.12-.47.45-.42.49.38.36.12.54.43.64s.68-.42.84-.48A2.93,2.93,0,0,1,41,12.7a.92.92,0,0,1,1,.5c.25.46-.06.85,0,1.38s-.19,1.13.06,1.2a2.71,2.71,0,0,1,1.07-.54Z"/><path class="cls-2" d="M38.17,14.48a4.81,4.81,0,0,1,.5-1.36.67.67,0,0,1,.47-.3l0-.42a2.41,2.41,0,0,0-.76.93c-.17.43-.43,1.34-.43,1.34l.17-.17Z"/><path class="cls-11" d="M27.92,50.46s-.13,1.71-.1,2.14.2,2.12-.84,2.28a12.26,12.26,0,0,0-2.43.36,5.6,5.6,0,0,1-2.43.56c-.93,0-1.54-.23-1.18-.76s1.34-.44,2.18-1.09,2.18-1.4,2.3-2a18.84,18.84,0,0,0,0-2.48s2.07.35,2.08.38.4.64.4.64Z"/><path class="cls-13" d="M34.8,34.65s-7.3.75-8.8,2.86c-.67,1-1.65,12.59-1.65,12.59a14.74,14.74,0,0,0,4,.57s1.6-8.57,1.63-9.21c0,0,3.62-1.48,5.23-2.24s5.56-2,5.56-2l.12-2.88-6.06.29Z"/><path class="cls-4" d="M33.07,52.19c-.1.63-4.62.37-4.09-1.54a.82.82,0,0,1,1.27-.57l2.34.56.3.46s.32.21.18,1.09Z"/><path class="cls-11" d="M32.27,50s-.54,1.28-.75,1.87-.36,1.29-.55,1.72.08,1-.44,1.57-.86,1.91-1.87,2.12-2.14.28-2.35-.1.44-1.08.77-1.89,1.2-1.9,1.46-2.5S29.9,50,29.9,50l2.37,0Z"/><path class="cls-13" d="M36.68,42.37l-3.61,9.82a2.64,2.64,0,0,0-.71-.66c-.72-.55-2.12-1.44-3.38-.88,0,0,1.64-7,2-8.46s.67-3.58,2.89-4.28a23.14,23.14,0,0,0,3.34-1.28l.7-2.25L45.4,35.7s.23,4.93-1.39,5.58-7.33,1.09-7.33,1.09Z"/><path class="cls-14" d="M31,42.19c.34-1.42.67-3.58,2.89-4.28a23.14,23.14,0,0,0,3.34-1.28"/><path class="cls-11" d="M37.21,20.94s-1.16-.09-2.76,2.62a75.52,75.52,0,0,0-3.4,6.86,15.18,15.18,0,0,0-3.62,2.72,5.2,5.2,0,0,1-1.5,1l1.47,1.47s5-2.62,5.7-3.28,3.61-6.7,3.61-6.7L38,22.47l-.83-1.53Z"/><path class="cls-15" d="M36.39,21a2.84,2.84,0,0,0-1,.94c-.89,1.23-2.7,4.58-2.7,4.58s1.72,1.76,2.66,1.74,2.62-5.72,2.62-5.72L36.39,21Z"/><path class="cls-4" d="M31.22,29.87a2.32,2.32,0,0,1,.32-1.42c.44-.84,1-2,1.19-2s2.41,1,2.66,1.66-1.5,3.28-1.68,3.38-.27-.79-1.19-1.39a2.19,2.19,0,0,0-1.3-.21Z"/><path class="cls-14" d="M33.15,26.6a1,1,0,0,1,.17.88c-.16.43-.31.6-.46,1s-.33,1.07-1,1.21"/><path class="cls-16" d="M31.05,30.42a1.5,1.5,0,0,1,1.14.61"/><path class="cls-11" d="M26.82,33.94s-.88-.13-1-.17a1,1,0,0,0-.62.1c-.14.08-.71.3-.45.47a6.78,6.78,0,0,0-.55.89.34.34,0,0,0,.3.36.44.44,0,0,0,.18.51.52.52,0,0,0,.52,0s0,.41.33.46.72-.33.72-.33-.11.34.16.38.59-.32.86-.55a1,1,0,0,0,.31-.62L26.82,34Z"/><path class="cls-16" d="M26.63,36.56h0s-.07-.06,0-.29a2,2,0,0,0,.13-.34.1.1,0,0,0,0-.13s0,0,0,0c-.18-.1-.47.46-.47.46M25.73,35c0-.08.23-.46.05-.58a.39.39,0,0,0-.37,0s.16-.21,0-.3-.6.23-.68.3h0m1.12,2.13s-.27.05-.09-.37.46-.91.27-1a.62.62,0,0,0-.29-.11h0"/><path class="cls-16" d="M25.41,34.35a8.18,8.18,0,0,0-.94,1.24M25.72,35a6.57,6.57,0,0,0-.55,1.12"/><path class="cls-1" d="M42.9,19.88A17.53,17.53,0,0,1,47.4,22a10.67,10.67,0,0,0-1.55,5c-.06,2.7-.49,8.69-.49,8.69s-6-.79-7.59-.76a13.26,13.26,0,0,1-3-.31,39.56,39.56,0,0,1,.45-4.5c.34-1.7.86-6.65.86-6.74s.38-2.42.38-2.42l2.71-.89S38.83,22,40,21.94s2.88-2.07,2.88-2.07Z"/><path class="cls-15" d="M38.46,20.32a17.75,17.75,0,0,0-2,.66l-.06,0h0a2.09,2.09,0,0,1,0,.28c0,.17-.08.42-.13.72s-.06.36-.08.56c-.08.54-.17,1.18-.22,1.83a.15.15,0,0,1,0,.07h0c0,.14,0,.27,0,.41v0c0,.08,0,.16,0,.25l0,.34c0,.12,0,.25,0,.39a2.11,2.11,0,0,0,0,.25.09.09,0,0,0,0,0l-.06.5c-.05.37-.1.74-.15,1.09h0a.17.17,0,0,1,0,.07v0l0,.16v0s0,0,0,.08h0l-.06.41,0,.15a.77.77,0,0,0,0,.15c0,.15,0,.28-.07.39,0,.28-.12.8-.2,1.41,0,0,0,.09,0,.13-.06.48-.13,1-.18,1.49-.11.83-.19,1.54-.22,1.74a.53.53,0,0,1-.2.33,2.76,2.76,0,0,1-.53.36.72.72,0,0,0-.18.11h0c.23,0,.31.91,1,.91a1.55,1.55,0,0,1,.43.07h0a1.57,1.57,0,0,1,.3.12,3.59,3.59,0,0,1,.65.44l0,0a.18.18,0,0,1,0,0c0-.12.06-.44.12-.88,0-.11,0-.24,0-.37l0-.24,0-.2h0a.22.22,0,0,1,0-.08.06.06,0,0,1,0,0,4,4,0,0,1,.06-.47c.06-.49.12-1,.18-1.5.11-.9.21-1.75.25-2.27a13.3,13.3,0,0,1,.2-1.43l0-.15a.77.77,0,0,1,0-.15,13.83,13.83,0,0,0,.34-3A15,15,0,0,1,38,22.74a.51.51,0,0,1,0-.13c0-.06,0-.12,0-.18a1.38,1.38,0,0,0,0-.2c.05-.19.09-.38.13-.56h0c.18-.79.33-1.35.33-1.35ZM36.74,28.9s0,0,0,0c-.35,1.11-.34,3.31-.66,5.29,0,.11,0,.23,0,.34l.24,0h.26a4,4,0,0,1,.06-.47c.06-.49.12-1,.18-1.5.11-.9.21-1.75.25-2.27a13.3,13.3,0,0,1,.2-1.43Zm9.36-7.81L46,21l-.15-.07A7.44,7.44,0,0,0,44,20.24a0,0,0,0,1,0,0,24.48,24.48,0,0,0-1.21,2.94,13,13,0,0,0-.52,1.85,12.59,12.59,0,0,0-.09,3.55v.15a.76.76,0,0,1,0,.15,10.1,10.1,0,0,1-.08,2.31c-.1.63-.28,1.42-.49,2.25h0c-.12.5-.25,1-.38,1.49a1.05,1.05,0,0,1,0,.19.09.09,0,0,1,0,.05c-.14.56-.27,1.08-.37,1.54v0a1.62,1.62,0,0,0,0,.19.11.11,0,0,0,0,0c0,.09,0,.18-.05.26a2.3,2.3,0,0,0-.06,1c.28.59,1.54.2,2.76.63.9.31,1.5.38,1.85.14a.7.7,0,0,0,.28-.38,10,10,0,0,0,0-2.32c0-.19,0-.39,0-.59l0-.57h0c0-.87-.1-1.78-.1-2.57a2,2,0,0,1,0-.25c0-.26,0-.49,0-.71,0-.68.08-1.63.15-2.7,0,0,0-.1,0-.15s0-.1,0-.15c.06-.81.15-1.67.29-2.5q.06-.41.15-.78l.15-.62a7.35,7.35,0,0,1,.37-1.09,4.78,4.78,0,0,1,.85-1.45s0,0,0,0l.07-.08,0,0A7.68,7.68,0,0,0,46.1,21.09Zm-9.37,7.83c-.35,1.11-.34,3.31-.66,5.29,0,.11,0,.23,0,.34l.24,0h.26a4,4,0,0,1,.06-.47c.06-.49.12-1,.18-1.5.11-.9.21-1.75.25-2.27a13.3,13.3,0,0,1,.2-1.43h-.47S36.73,28.91,36.73,28.92Z"/><path class="cls-16" d="M44.39,20.58a27.29,27.29,0,0,0-1,2.68,11,11,0,0,0-.64,3.44c0,.63,0,1.27,0,1.9a.75.75,0,0,1,0,.15v.15a17.07,17.07,0,0,1-.41,3.75l-.18.65h0c-.14.5-.31,1.12-.47,1.74,0,.06,0,.12,0,.17s0,0,0,0c-.14.57-.27,1.13-.36,1.62,0,0,0,0,0,.07a3.71,3.71,0,0,0-.08,1.17M37.88,20.63s-.12.44-.26,1.07a4.47,4.47,0,0,1-.09.45c0,.17-.07.35-.1.54h0c-.1.57-.19,1.2-.23,1.77h0a.34.34,0,0,0,0,.1,2.26,2.26,0,0,0,0,.26h0a16.36,16.36,0,0,1-.36,3.75.83.83,0,0,1,0,.15c0,.05,0,.1,0,.15s0,0,0,0c-.35,1.11-.34,3.31-.66,5.29,0,.11,0,.23,0,.34a.06.06,0,0,0,0,0l-.06.25a.36.36,0,0,1,0,.1,6.8,6.8,0,0,1-.24.94"/><path class="cls-17" d="M37.53,32.21a1.68,1.68,0,0,0-1.3,2l5.24,23.3"/><polygon class="cls-11" points="37.49 34.49 40.41 33.96 40.81 36.11 38.03 36.37 37.49 34.49"/><path class="cls-11" d="M39.46,34.53a6.29,6.29,0,0,0-1.7-.55,6.93,6.93,0,0,0-1.76.25,2.77,2.77,0,0,0-1,.6.63.63,0,0,0,.21.71s0,.41.24.51a4.13,4.13,0,0,1-.16.4.58.58,0,0,0,0,.37s-.19.1-.1.27.81-.1,1.25-.22a16.11,16.11,0,0,1,1.69-.4c.33,0,1.22-.26,1.22-.26l.16-1.68Z"/><path class="cls-18" d="M35.23,35.54a.71.71,0,0,1,.27-.39l.43-.21.17-.08h0l.24-.1.15-.06h0l.13,0m-1.15,1.41.1-.08a2.38,2.38,0,0,1,.39-.25l.42-.21.12-.06.34-.17m-1.57,1.54a2.07,2.07,0,0,1,.6-.27l.35-.14,0,0,.41-.19.49-.26"/><path class="cls-15" d="M47.4,22s1.14,1.31,1.19,4.86.82,8.43-1.28,9a75,75,0,0,1-7.94,1.18,4.25,4.25,0,0,0-.38-3l5.63-1.43s.34-.37.57-.36c0,0-.07-.47.08-.54,0,0-.19-3.1-.23-5a9.21,9.21,0,0,1,1-3.9L47.4,22Z"/><path class="cls-16" d="M45.46,36.28h0l-.3.08h0A31.8,31.8,0,0,1,41.3,37l-.55,0h0c-.77.07-1.29.1-1.29.1m-.38-3,2.53-.64.62-.16,2.48-.63h0a4,4,0,0,1,.55-.35h0s0-.22,0-.48,0-.94,0-1.57c0-.09,0-.18,0-.27,0-.35,0-.72,0-1.09v-.15a.76.76,0,0,0,0-.15c0-.68,0-1.33,0-1.86"/><path class="cls-7" d="M17.06,26.52a4.72,4.72,0,0,1,3.08-.09s-.27-2.59-.55-3.76a3.89,3.89,0,0,0-1.19-1.9s-1,.38-1.16,2.1-.18,3.65-.18,3.65Z"/><path class="cls-5" d="M20.14,26.43s-.27-2.59-.55-3.76"/><ellipse class="cls-4" cx="27.56" cy="30.46" rx="1.43" ry="0.66" transform="translate(-10.22 46.59) rotate(-70.97)"/><path class="cls-6" d="M24.8,30.9a3.54,3.54,0,0,0,.67-.46,1.62,1.62,0,0,1,1-.54,4,4,0,0,1,1.15,0,6.42,6.42,0,0,1,1,.55c.09.06,0,.19-.1.22s.45.23.39.34-.53.07-.53.07.48.16.4.31-.4.11-.4.11.2.25-.31.26a5.83,5.83,0,0,0-1.6.19,2,2,0,0,1-1.2.32L24.8,30.9Z"/><path class="cls-16" d="M28.52,30.62l-.28-.11a4.25,4.25,0,0,0-.9-.23,2.68,2.68,0,0,0-.39,0h-.38m1.81.77-.3-.06a5.41,5.41,0,0,0-.87-.16l-.39,0h-.14m1.69.66-.52-.08a7.29,7.29,0,0,0-1,0h-.12"/><line class="cls-5" x1="18.05" y1="44.32" x2="17.67" y2="49.17"/><path class="cls-5" d="M28.55,24.92a12.29,12.29,0,0,1,0-2.13,6.22,6.22,0,0,0,.09-1"/><path class="cls-19" d="M31.83,28.11a6.41,6.41,0,0,0-3.77,1.09"/><path class="cls-16" d="M35.54,27.92v0a.17.17,0,0,0,0-.07h0c.05-.35.1-.72.15-1.09l.06-.5a.09.09,0,0,1,0,0,2.11,2.11,0,0,1,0-.25c0-.14,0-.27,0-.39l0-.34c0-.09,0-.17,0-.25h0v0m9.36,7.41h.08a1.2,1.2,0,0,1,.27,0,2.17,2.17,0,0,1,1,.27m-1.95.1h0a3.39,3.39,0,0,1,.62-.11,1.22,1.22,0,0,1,.27,0,.65.65,0,0,1,.21,0"/><path class="cls-14" d="M36.68,42.37A3.14,3.14,0,0,0,36.34,41"/></svg>