<svg id="Layer_1" data-name="Layer 1" xmlns="http://www.w3.org/2000/svg" viewBox="0 0 144 144"><defs><style>.cls-1{fill:#fcebea;}.cls-2{fill:#dd4e4e;}.cls-3{fill:#e0e0e0;}.cls-4{fill:#bf3f3c;}.cls-5{fill:#fbfafa;}.cls-6{fill:#0f0a0b;}.cls-7{fill:#3b546c;}.cls-8{fill:#fff;}.cls-9{fill:#dd4747;}.cls-10{fill:#0c0708;}.cls-11{fill:#88292b;}.cls-12{fill:#f5b282;}.cls-13{fill:#eef5f6;}.cls-14{fill:#d84545;}.cls-15{fill:#f7ba17;}.cls-16{fill:#1d3050;}.cls-17{fill:#394864;}.cls-18{fill:#b9baba;}.cls-19{fill:#e04846;}.cls-20{fill:#eeada8;}.cls-21{fill:#495973;}.cls-22{fill:#6c4029;}.cls-23{fill:#fdfcfc;}.cls-24{opacity:0.39;}.cls-25{opacity:0.37;}.cls-26,.cls-27,.cls-28,.cls-29,.cls-30,.cls-31{fill:none;}.cls-27{stroke:#020202;}.cls-27,.cls-28,.cls-29,.cls-30,.cls-31{stroke-miterlimit:10;stroke-width:0.14px;}.cls-28{stroke:#050505;}.cls-29{stroke:#000;}.cls-30{stroke:#0a0a0a;}.cls-31{stroke:#0f0e0e;}</style></defs><title>Healthcare at Your Doorstep</title><ellipse class="cls-1" cx="72" cy="67.5" rx="71.08" ry="51.75"/><path class="cls-2" d="M138.24,39.43A42.73,42.73,0,0,1,140.8,64a59.89,59.89,0,0,1-9.65,22.73,81.7,81.7,0,0,1-17,18A97,97,0,0,1,93,117.23,96.43,96.43,0,0,1,69.24,124a81.49,81.49,0,0,1-24.65,0,59.74,59.74,0,0,1-23.07-8.55A42.88,42.88,0,0,1,5.38,97,42.65,42.65,0,0,1,2.8,72.61a59.66,59.66,0,0,1,9.6-22.7,82.91,82.91,0,0,1,16.89-18A96.8,96.8,0,0,1,74.2,12.35a81.56,81.56,0,0,1,24.71-.09,60,60,0,0,1,23.21,8.51A42.78,42.78,0,0,1,138.24,39.43ZM137,40a41.5,41.5,0,0,0-15.6-18.09,58.74,58.74,0,0,0-22.68-8.4,80.48,80.48,0,0,0-24.35,0A96,96,0,0,0,29.88,32.66,79.43,79.43,0,0,0,13.17,50.43,58.78,58.78,0,0,0,3.75,72.78a40.66,40.66,0,0,0,18.14,42.14,58.94,58.94,0,0,0,22.82,8.36,80.81,80.81,0,0,0,24.4-.08,96.18,96.18,0,0,0,44.45-19.37A80.37,80.37,0,0,0,130.21,86a58.87,58.87,0,0,0,9.37-22.31A41.53,41.53,0,0,0,137,40Z"/><path class="cls-3" d="M103.54,61s-1.13,6.05-1.17,7a2.32,2.32,0,0,0,.13,1.18l1.61-.38,2.08-6.06V61.11Z"/><path class="cls-4" d="M44.68,68.64V74l-7.3,8.13c5.12,0,8.82,4.54,8.82,9.59.1,5.81-4.46,11.62-12.67,11.62-5,0-9.83-2.56-12-7.09l4.05-4.47c1.83,2.9,4.46,5.17,7.91,5.17,3.75,0,6.23-2.62,6.18-5.7a5.94,5.94,0,0,0-6.18-5.69H31.3l-1.47-2.79L37.08,75H23.19V68.64Z"/><path class="cls-5" d="M45,68.05l-.34-.28-.14-.27s-.09-.1,0-.12H45l.55.33-.28.3Z"/><path class="cls-5" d="M44.58,66.61l.6.51s.41.45.42.45a.49.49,0,0,0,.17-.06,3.38,3.38,0,0,0-.08-.34l.17-.38-.19-.57-.84-.47-.36-.12-.24.09-.11.13a1.19,1.19,0,0,0,.08.22S44.58,66.61,44.58,66.61Z"/><path class="cls-5" d="M46.23,64.6l-.5-.6s0-.3,0-.3l.28-.16h.29s.43.49.45.49a3.82,3.82,0,0,1-.21.46Z"/><path class="cls-5" d="M108.41,30.46A14.76,14.76,0,0,0,108.7,32c.09.15,1.53-.17,1.62-.19S113,28.93,113,28.93l.12-1.06-.19-.73s-.8.25-.8.34-1.64,2.27-1.64,2.27Z"/><ellipse class="cls-6" cx="81.67" cy="125.94" rx="4.93" ry="6.69"/><ellipse class="cls-7" cx="81.8" cy="125.55" rx="3.42" ry="5.65"/><path class="cls-7" d="M84.19,129.7H79.47a8.11,8.11,0,0,1-.29-7.23c.74,1,1.41,2,2.08,3a11,11,0,0,0,.64,1,1,1,0,0,0,1.65-.25,1.16,1.16,0,0,0-.12-.93q-.84-2.27-1.7-4.53c-.09-.23-.24-.45-.13-.72a2.24,2.24,0,0,1,2.1.94,5,5,0,0,1,1,1.86,9,9,0,0,1-.43,6.33C84.2,129.32,84,129.48,84.19,129.7Z"/><path class="cls-6" d="M84.19,129.7c-.21-.22,0-.38.09-.54a9,9,0,0,0,.43-6.33,5,5,0,0,0-1-1.86,2.24,2.24,0,0,0-2.1-.94,1.67,1.67,0,0,1-.47-1c.12,0,.23,0,.28-.14H82c.07.14.16.18.27,0a3.81,3.81,0,0,1,2,.93,7.78,7.78,0,0,1,1.84,2.69,11.13,11.13,0,0,1,.51,3.29,4.39,4.39,0,0,0-.06,1,17.86,17.86,0,0,1-.83,2.94Z"/><path class="cls-6" d="M79.18,122.47a8.11,8.11,0,0,0,.29,7.23h-1.8l-.43-.85a11.72,11.72,0,0,1-.22-5.1,11,11,0,0,1,1.11-2.65C78.78,121.33,78.91,122,79.18,122.47Z"/><path class="cls-8" d="M117.89,31.36c.74.22,1.49.38,2.21.67a8.93,8.93,0,0,1,2.19,1.13,9.32,9.32,0,0,1,2.4,3.23,9.93,9.93,0,0,0,.7,1.76l.06.24c0,.09,0,.14.07.18l.19.52a.13.13,0,0,0,.08.18,5.66,5.66,0,0,0,.57,1.09,2.44,2.44,0,0,0,.07.89,50.35,50.35,0,0,1,1.2,5.58c.14.91.22,1.83.29,2.74a7.75,7.75,0,0,1-.66,4.83,1,1,0,0,0-.08.53c-.26.1-.37.45-.7.43-.17,0-.34,0-.44.14a9.83,9.83,0,0,1-1.73,1.68c-.72.68-1.49,1.3-2.26,1.92q-2.51,2-5.18,3.78c-.2.13-.45.25-.45.57.21.13.34,0,.5-.11l2.3-1.53a.92.92,0,0,1,.56-.24,14.28,14.28,0,0,0,2.06-.15,24.61,24.61,0,0,0,3.08-.35.44.44,0,0,1,.42.07c.07.61.13,1.25.23,1.88a25.59,25.59,0,0,1,.39,4.53c0,.89-.29,1.28-1.13,1.51a10.26,10.26,0,0,1-3.07.43,2.18,2.18,0,0,1-2.36-2.09c-.22-1.34-.42-2.68-.55-4,0-.15-.09-.26-.32-.22a1,1,0,0,0-.07.83c.18,1.27.28,2.55.53,3.82a2.56,2.56,0,0,0,2.55,2.1,11.85,11.85,0,0,0,1.46,0,8.56,8.56,0,0,0,2.28-.51,1.62,1.62,0,0,0,1.11-1.29,7.13,7.13,0,0,0,0-2.26c-.16-1.32-.27-2.65-.48-4-.06-.4,0-.89-.39-1.28-1.64.1-3.31.42-5,.38l3.73-3.1c.75-.63,1.37-1.38,2.14-2a.31.31,0,0,1,.14.22c.24,1.45.24,2.92.4,4.37.11,1,.24,2.09.34,3.14s.21,2.27.36,3.41.34,2.3.51,3.45c.14,1,.35,1.88.46,2.83.16,1.34.45,2.66.61,4s.48,2.65.63,4,.33,2.49.56,3.73,0,1.67-1.1,2a20.33,20.33,0,0,1-4.24.79c-.16,0-.33,0-.47.08a.32.32,0,0,0-.41,0,1.29,1.29,0,0,0-.7.06,1.07,1.07,0,0,0-.82.08c-.84,0-1.68,0-2.52,0a1.58,1.58,0,0,0-1-.1.54.54,0,0,0-.43,0,.56.56,0,0,0-.54-.11c-.2-.1-.47,0-.66-.23-.23-1.18-.31-2.4-.44-3.62-.5-5-1-10.11-1.29-15.18,0-.8-.14-1.6-.21-2.4a30.47,30.47,0,0,0-.2-3.31,1.28,1.28,0,0,0-.19-1.45c-.54-.78-1-1.61-1.52-2.43-.08-.12-.11-.31-.32-.29a.41.41,0,0,0-.08-.29.74.74,0,0,1,.17-.57.13.13,0,0,0,.13-.15l.13-.14c.1,0,.14,0,.14-.13h0c.1,0,.14-.05.13-.14l.13-.13c.11,0,.16,0,.16-.15l.12-.12c.1,0,.15,0,.15-.14h0c.29.06.41-.17.57-.32,1.35-1.26,2.7-2.52,4-3.84a15.36,15.36,0,0,0,1.69-1.63,1.36,1.36,0,0,1,1.56-.5c.62.11,1.21.39,1.93.47-.08-.63-.59-.55-.92-.69s-.83-.11-1.22-.33a2.1,2.1,0,0,1,1.09-.22c.34,0,.74.08.91-.46-1-.26-1.78.25-2.65.31a2,2,0,0,1-.12-.29c-.62-3.08-1.35-6.15-2.09-9.21a.69.69,0,0,0-.39-.6,2.67,2.67,0,0,0,0,1c.69,3,1.35,6,2,9a.94.94,0,0,1-.3,1c-.72.68-1.43,1.37-2.16,2-1.06,1-2.07,2-3.11,3.06-.16.16-.27.39-.55.37-.11-2.23-.19-4.47-.35-6.71-.1-1.47-.11-2.95-.18-4.42-.1-2.59-.11-5.18,0-7.76.06-1.15.1-2.31.16-3.46a5.51,5.51,0,0,0,0-1.72c.19-.11.18-.31.22-.49a.21.21,0,0,0,.2.18,13.35,13.35,0,0,1,1.11,3.86.16.16,0,0,0,0,.26,17.4,17.4,0,0,1,.1,3.06c-.24,0-.35.18-.49.32-.44.42-.44.53,0,1,.14.15.29.29.27.52a1.49,1.49,0,0,0-.94,1.71c.13.65.61,1,1.46,1.07a1.45,1.45,0,0,1,0,.62c-.41,1.26-.69,2.57-1,3.86a17.31,17.31,0,0,0-.58,2.63c.4.1.46-.11.52-.39.48-2.1.93-4.22,1.61-6.27a.86.86,0,0,0,0-.55c1-1.06.93-1.91-.28-2.68a1.24,1.24,0,0,1-.13-.15l.1-1.81a5.6,5.6,0,0,0,1.07-.94.65.65,0,0,0,.18-.74c-.37-1.43-.76-2.86-1.2-4.28-.19-.61-.37-1.22-.55-1.83A16.4,16.4,0,0,0,117.89,31.36Z"/><path class="cls-9" d="M126.77,111.21c0-2.15,0-4.31,0-6.46,0-1,0-2-.09-2.93-.07-1.49-.15-3-.23-4.47a.79.79,0,0,1,0-.3l-.16-1.58h0v0a1.67,1.67,0,0,0-.06-.59l0-.1c-.23-.11-.22-.25,0-.41a1.15,1.15,0,0,0,0-.26v0a.81.81,0,0,0-.08-.25c-.29-.14-.25-.34-.07-.55a.68.68,0,0,0,0-.42c-.34-.12-.25-.33-.11-.54a.8.8,0,0,0-.07-.57c-.17-.06-.24-.14-.06-.27a.83.83,0,0,0-.09-.56c-.16-.06-.23-.14-.06-.27a.52.52,0,0,0-.06-.42c-.18-.06-.25-.14-.07-.27a.33.33,0,0,0,0-.29c-.28-.08-.28-.22-.09-.41a.52.52,0,0,0-.07-.42c-.18,0-.26-.13-.07-.28a1.29,1.29,0,0,0,0-.55l0-.11c-.16,0-.33,0-.47.08s-.25.21-.41,0a1.29,1.29,0,0,0-.7.06c-.25.32-.53.24-.82.08-.84,0-1.68,0-2.52,0-.34.12-.68.27-1-.1a.54.54,0,0,0-.43,0c-.21.13-.42.22-.54-.11-.2-.1-.47,0-.66-.23-.23-1.18-.31-2.4-.44-3.62-.5-5-1-10.11-1.29-15.18,0-.8-.14-1.6-.21-2.4-1.14.07-2.27-.22-3.41-.15-.23,0-.33.25-.54.28s-.57.05-.51-.38c-.3.12-.5.38-.79.52-.77.35-1,.19-1-.66l0,0-.52.16c-.06.07-.13.14-.09.25-.12,2.56-.21,5.12-.37,7.68-.21,3.44-.38,6.87-.75,10.3-.11,1-.17,2-.3,3a.56.56,0,0,1-.14.4c-.2.13-.43,0-.66,0a25,25,0,0,1-4.78-.74,2.28,2.28,0,0,0-.27,0c0,.84,0,1.67,0,2.51a3.52,3.52,0,0,0,.78.76,12.2,12.2,0,0,1,1.92,2.14.41.41,0,0,1,.07.32,16.16,16.16,0,0,1,3.07,6.8,46.79,46.79,0,0,1,.85,6.35,19.1,19.1,0,0,0,.75-3.07c.57-2.73,1.11-5.47,1.5-8.23a47.34,47.34,0,0,0,.4-6.83,3.19,3.19,0,0,1,.15-1.3c.46-2.39,1.15-4.73,1.71-7.1.5-2.11,1.11-4.18,1.47-6.32a.62.62,0,0,1,.33-.47c.07.64.17,1.23.19,1.83.09,2.23.37,4.45.46,6.68.07,1.8.24,3.58.37,5.37.13.78.25,1.55.37,2.32.31,1.87.8,3.69,1.29,5.52.79,3,1.58,6,2.41,9a2.1,2.1,0,0,1,.06.33l.31,1.3a.43.43,0,0,1,.09.39s0,.06,0,.09.09.26.13.38c.36,1.14.61,2.3.93,3.44.25.89.46,1.77.76,2.64.09.26.2.39.48.36,0,0,.07-.08.11-.08,1.31,0,2.6-.25,3.91-.31C126.74,112,126.77,111.63,126.77,111.21ZM114.21,72.48a.79.79,0,0,1-.31-.71,1.2,1.2,0,0,0-.44-.82l-1.12-1.12a1,1,0,0,1-.37-.67c.26-.16.4,0,.5.14a10,10,0,0,0,1.62,1.57A1.39,1.39,0,0,1,114.21,72.48Z"/><path class="cls-6" d="M107.2,99.65a16.16,16.16,0,0,0-3.07-6.8l-.76-.69a4.93,4.93,0,0,0-6.68-.55,17,17,0,0,0-4.16,4.14l-.22.26c0,.09,0,.17-.11.17a.08.08,0,0,1-.06.08.38.38,0,0,1,0,.1v0a.12.12,0,0,1,0,.08l-.06,0-.08,0h0v0a.08.08,0,0,0,0,0v0a0,0,0,0,1,0,0v0s0,0,0,0l0,0h0l0,0,0,0v.07s0,.06,0,.08,0,0,0,0h0a.14.14,0,0,1-.1.06v0c-.23.74-.71,1.36-.93,2.1a3,3,0,0,1-.37,1A23.78,23.78,0,0,0,88.75,106c0,.32-.06.63-.51.54,0,.4-.06.81-.1,1.21.41,0,.38.31.37.6a35.22,35.22,0,0,0,.1,4.36,30,30,0,0,0,1.6,8.06,2.11,2.11,0,0,1,.21.73c.46.77.8,1.61,1.31,2.35a4.44,4.44,0,0,1,.67.82c.13.11.29.2.29.41.13,0,.19.08.25.18s0,0,.07,0c2.52,2.07,5.41,1.22,7.34-.1l.21-.17h0c.08-.06.14-.12.22-.17a1.36,1.36,0,0,1,.46-.28h0v0s0,0,0,0l0,0s0,0,0,0h.08s0,0,0,0a.12.12,0,0,1,0-.07h0l.07,0a21.5,21.5,0,0,0,2.47-2.83,4.18,4.18,0,0,1,.66-1.09c.69-1.17,1.26-2.4,1.84-3.62a1.42,1.42,0,0,0,0-.2,6.45,6.45,0,0,1,.46-1.43c.26-1.14.6-2.26.78-3.42a37.6,37.6,0,0,0,.28-5.71A46.79,46.79,0,0,0,107.2,99.65ZM90,105.05a23,23,0,0,1,1.88-5.63c.05-.1.13-.19.19-.29a15.11,15.11,0,0,1,5.78-6.85c-.2,2.28.07,4.55-.28,6.81a1,1,0,0,1-.58.09c-.1,2.06-.19,4.11-.28,6.17,0,.15,0,.33-.1.46a3.74,3.74,0,0,0-1,1.8l-5.83-.86A5.84,5.84,0,0,1,90,105.05ZM106.87,110a21.54,21.54,0,0,1-5,12.31,9.86,9.86,0,0,1-3.23,2.58,4.07,4.07,0,0,1-2.54.49A3.8,3.8,0,0,1,93.45,124a1.44,1.44,0,0,1-.58-.66,7.43,7.43,0,0,1-1.25-2.21,16.73,16.73,0,0,1-1.34-4.2,35.89,35.89,0,0,1-.68-8.4.65.65,0,0,1,.16-.54l5.73.85c.13.44.25.83.36,1.23a2.19,2.19,0,0,0,.37.73,1.61,1.61,0,0,0,2.78.06,4.12,4.12,0,0,0,0-4.73,3.05,3.05,0,0,0-.45-.43,4.66,4.66,0,0,0-.53-.32,3.17,3.17,0,0,1,0-1q.28-5.85.56-11.69c0-1,.06-1,1.15-1a4.17,4.17,0,0,1,3.13,1.4,10.81,10.81,0,0,1,2.61,4.44A30.44,30.44,0,0,1,106.87,110Zm-5.49,14.44Zm-.14.13h0Zm-8.58.52h0ZM92,96.55h0Zm-.15.26Z"/><path class="cls-6" d="M88.24,106.54l-.1,1.21a2.43,2.43,0,0,0-.08.76,31.42,31.42,0,0,0,.14,5.31,29.84,29.84,0,0,0,1.36,6.75,2.25,2.25,0,0,0,.59,1.08l.13.23A7.28,7.28,0,0,0,91.54,124a.9.9,0,0,0,.65.67c.08.25.19.45.5.39h0c0,.17.16.17.28.18l.07,0c2.52,2.07,5.41,1.22,7.34-.1a3.7,3.7,0,0,1,.9-.62A4.34,4.34,0,0,1,99.93,126a11.31,11.31,0,0,1-3.16,2,6,6,0,0,1-7.1-1.81c-.13-.16-.22-.37-.46-.39a.84.84,0,0,0-.46-.71,21.1,21.1,0,0,1-1.37-2.73c-.28-.93-.59-1.84-.83-2.77a38.7,38.7,0,0,1-1.08-10.88,5.79,5.79,0,0,0,.06-1.38l.14-1.17a23.14,23.14,0,0,1,.73-3.5c.38-1.16.78-2.31,1.18-3.46.09-.18.2-.36.28-.55a22,22,0,0,1,6.31-8.36,8.58,8.58,0,0,1,3.35-1.56h1l0,0,0,0a.27.27,0,0,1,.12,0,9.9,9.9,0,0,1,2.65.91,3.52,3.52,0,0,0,.78.76,12.2,12.2,0,0,1,1.92,2.14.41.41,0,0,1,.07.32l-.76-.69a5,5,0,0,0-6.69-.55,17.32,17.32,0,0,0-4.15,4.13,2.88,2.88,0,0,1-.22.27l-.11.17s0,.07-.06.08l-.19.29h0a.41.41,0,0,0-.16.27h0c-.1.06-.12.16-.16.25v0a9.64,9.64,0,0,0-1.12,2.07,17.62,17.62,0,0,0-1.72,4.34A11.79,11.79,0,0,0,88.24,106.54Z"/><path class="cls-5" d="M113.76,23.69a.68.68,0,0,0-.63-.54.82.82,0,0,0-.77.49,2.25,2.25,0,0,0-.2.51.42.42,0,0,1-.31.32c-.36-.09-.38-.45-.45-.74s-.1-.78-.15-1.17a1.39,1.39,0,0,0-2-1.32c-.24.07-.47.17-.71.25a5.2,5.2,0,0,1-2.43.41.81.81,0,0,0-.55.08,8.72,8.72,0,0,0,0,3.56,9.33,9.33,0,0,1,.47,1.7,8.22,8.22,0,0,0,1.32,2.92,2.38,2.38,0,0,0,1.08.51,2.84,2.84,0,0,0,1.29-.08l.37-.12a4.54,4.54,0,0,0,.45-.21h0A4.11,4.11,0,0,0,111,30h0l.51-.35a4.35,4.35,0,0,0,1.16-2.12c0-.21.17-.25.35-.19s.17-.26.17-.42c-.46-.44-.48-.58,0-.92a3.61,3.61,0,0,0,.47-.49,5.07,5.07,0,0,0,.25-1.5C113.83,23.91,113.8,23.8,113.76,23.69Zm-7,.92c0,.17-.08.33-.29.31a.34.34,0,0,1-.34-.42c0-.16.12-.3.27-.29S106.84,24.38,106.81,24.61Zm2-.6a.33.33,0,0,1,.33-.35c.22.07.39.19.34.44a.35.35,0,0,1-.39.31C108.92,24.38,108.84,24.22,108.86,24Zm-1.07.64a.71.71,0,0,1,.33.83c-.08.59-.21,1.19.5,1.56-.5.16-.9,0-1-.37A4.52,4.52,0,0,1,107.79,24.65Zm-.16,3.91a5.23,5.23,0,0,1,1.2-.2c.33-.06.61-.42,1-.23A1.8,1.8,0,0,1,107.63,28.56Z"/><path class="cls-10" d="M113.86,24c0-.11-.06-.22-.1-.33a.68.68,0,0,0-.63-.54.82.82,0,0,0-.77.49,2.25,2.25,0,0,0-.2.51.42.42,0,0,1-.31.32c-.36-.09-.38-.45-.45-.74s-.1-.78-.15-1.17a1.38,1.38,0,0,0-2-1.32c-.25.07-.48.17-.72.25a5.2,5.2,0,0,1-2.43.41.81.81,0,0,0-.55.08,8.72,8.72,0,0,0,0,3.56h-.31l-.06-.13-.2-.72a.75.75,0,0,0-.07-.42c-.09-.63-.19-1.27-.26-1.91a.84.84,0,0,0-.53-.81,3.71,3.71,0,0,1-.81-.52,1.06,1.06,0,0,1-.53-1.17c.13-.49.54-.59,1-.62a.32.32,0,0,0,.28-.13c0-.22-.13-.44-.15-.69a.84.84,0,0,1,.92-1.07,3.17,3.17,0,0,1,1.51.45.6.6,0,0,0,.79-.15,2.08,2.08,0,0,1,2.54-.41,4.37,4.37,0,0,1,.61.31,1.61,1.61,0,0,0,1.6.22c.82-.32,1.3,0,1.43.82-.23.15-.17.42-.21.62s.11.38.38.26a.71.71,0,0,1,.38.23l.43.84a1.34,1.34,0,0,1,.08.56,3.33,3.33,0,0,0,0,1.63,4.78,4.78,0,0,1-.1,1c-.19.1-.09.32-.19.47Z"/><path class="cls-9" d="M127.6,119.63a15,15,0,0,0-1.4-5.3,4.6,4.6,0,0,0-3.84-.11,4.7,4.7,0,0,1-1.71,2.88,4.74,4.74,0,0,0-1.75,3.46,28.13,28.13,0,0,0,4,.1c1.07-.1,2.15,0,3.23-.22a9.64,9.64,0,0,1,1.52,0C127.8,120.16,127.63,119.9,127.6,119.63ZM121.54,118c-.08-.37.12-.48.37-.49.5,0,1,0,1.52,0,.27,0,.27,0,.54.49Zm2.68-.71c-.79-.11-1.58,0-2.41-.09,0-.35.22-.51.46-.5.71,0,1.47-.25,2.11.27C124.37,117.19,124.29,117.29,124.22,117.28Zm.25-.79a10.09,10.09,0,0,0-2-.13.67.67,0,0,1-.24-.1,2.13,2.13,0,0,1,2.6-.05C124.77,116.4,124.64,116.54,124.47,116.49Zm.33-1a.34.34,0,0,1-.39.08,3.26,3.26,0,0,0-1.64,0c-.19,0-.34,0-.39-.16s.1-.31.28-.32a4.06,4.06,0,0,1,1.77,0C124.67,115.08,124.87,115.13,124.8,115.44Z"/><path class="cls-5" d="M114.79,31.62c0,.18,0,.38-.22.49L111,37c-.69-.73-1-1.6-1.56-2.24a4.43,4.43,0,0,0-.7-1.45l0-.74c0-.14-.08-.19-.21-.19l-.06-.18c.2,0,.29-.13.21-.34.07,0,.14,0,.15-.06a5.46,5.46,0,0,0,3-2.08A3.68,3.68,0,0,0,112.94,28a.54.54,0,0,1,.38.35,1.46,1.46,0,0,0,.84,1.56,3.3,3.3,0,0,1,1.26.86.94.94,0,0,1-.55.05h-.14a.17.17,0,0,0-.16-.15l-.15-.11c-.15-.11-.29-.26-.54-.15a.91.91,0,0,0,.56.64l.38.45Z"/><path class="cls-11" d="M118.9,120.56a28.13,28.13,0,0,0,4,.1c1.07-.1,2.16,0,3.23-.22a9.64,9.64,0,0,1,1.52,0c.11.34-.07.61-.17,1-.81,0-1.59.15-2.39.08a.71.71,0,0,0-.81,0H120.1a.69.69,0,0,0-.81,0C118.71,121.37,118.91,120.92,118.9,120.56Z"/><path class="cls-12" d="M126.2,114.33a4.64,4.64,0,0,0-3.84-.12c0-.38,0-.76,0-1.14a1.26,1.26,0,0,0-.14-.72s.07-.08.11-.08c1.31,0,2.6-.25,3.91-.31Z"/><path class="cls-9" d="M104.65,120.37c.69-1.16,1.26-2.39,1.84-3.61.34.37.27.85.36,1.29a6.69,6.69,0,0,1,.15,2.52l-1.72,0C105.06,120.54,104.82,120.6,104.65,120.37Z"/><path class="cls-11" d="M104.65,120.37c.17.23.41.17.63.18l1.72,0a2.53,2.53,0,0,1-.21.92c-.94,0-1.87.06-2.8,0A4.4,4.4,0,0,1,104.65,120.37Z"/><path class="cls-13" d="M119.91,105.44l-.09-.39A.43.43,0,0,1,119.91,105.44Z"/><path class="cls-6" d="M113.17,26.93c-.46-.44-.48-.58,0-.92a3.11,3.11,0,0,0,.47-.49l.18.18A5.68,5.68,0,0,1,113.17,26.93Z"/><path class="cls-10" d="M113.79,25.7l-.18-.18a5.07,5.07,0,0,0,.25-1.5l.24.19c.1-.15,0-.37.19-.47A3.46,3.46,0,0,1,113.79,25.7Z"/><path class="cls-10" d="M114.39,22.74a3.33,3.33,0,0,1,0-1.63A2.67,2.67,0,0,1,114.39,22.74Z"/><path class="cls-10" d="M113.5,19.48c-.27.12-.44,0-.38-.26s0-.47.21-.62c.12.12.06.25,0,.37A.39.39,0,0,0,113.5,19.48Z"/><path class="cls-10" d="M114.31,20.55l-.43-.84C114.28,19.86,114.32,20.19,114.31,20.55Z"/><path class="cls-14" d="M124.28,121.49a.71.71,0,0,1,.81,0A.61.61,0,0,1,124.28,121.49Z"/><path class="cls-14" d="M119.29,121.48a.69.69,0,0,1,.81,0A.62.62,0,0,1,119.29,121.48Z"/><path class="cls-15" d="M101.38,124.43a.14.14,0,0,1,.14-.13A.16.16,0,0,1,101.38,124.43Z"/><path class="cls-15" d="M101.24,124.57a.15.15,0,0,1,.15-.15A.19.19,0,0,1,101.24,124.57Z"/><path class="cls-6" d="M109.14,64.26a.94.94,0,0,1-.68.19c-.15-.18,0-.33,0-.48a4,4,0,0,1-1.22-.63.32.32,0,0,1-.37-.14l-.37-.18a1.92,1.92,0,0,1-.54-.26,6,6,0,0,0-2.27-.71,2.31,2.31,0,0,0-2.53.83,3.22,3.22,0,0,0-.46,1.42c-.16,1.24-.32,2.47-.49,3.7a.56.56,0,0,1-.19.43A11.41,11.41,0,0,1,99.7,71c-.24,1.71-.53,3.4-.8,5.11-.31,1.93-.62,3.85-.92,5.78-.09.57-.14,1.15-.2,1.72a1,1,0,0,1-.15.65,2.68,2.68,0,0,1-1.1,0c-.76,0-1.53,0-2.28,0-2.81.16-5.62.12-8.42.12-.28,0-.55,0-.83,0a10.93,10.93,0,0,1-2.14,0,3.63,3.63,0,0,0-2.27,1.45,5.38,5.38,0,0,0-.53,2.46c-.07,1.26,0,2.53-.17,3.79.17.29-.07.57,0,.86,0,.72-.09,1.44-.14,2.16s0,1.4-.08,2.11L79.5,99.6a.54.54,0,0,1,0,.69,3.76,3.76,0,0,1-.15.8c-.29.14-.63,0-.92.17-.09.12-.18.18-.3,0-1.83.28-2.46,1.6-2.69,3.22a5.68,5.68,0,0,1-1.77-.15c-.57-.06-1.13-.17-1.64-.25-.22-.19-.18-.39-.21-.57a2.56,2.56,0,0,0-.65-1.49,1.06,1.06,0,0,1-.25-1.07c.25-1.1.46-2.22.68-3.32h-1.3c-.14,1.07-.42,2.1-.63,3.16,0,.25-.14.42-.41.47.18,2.08.13,4.16.13,6.24,1.55.12,2-1,2.44-2.18,1.1.06,2.13.32,3.14.43.16.22.07.4,0,.58q-1.58,7.44-3.16,14.9c-.06.3-.1.59-.16.89,0,.5-.12.54-.63.33l-.57-.09c-.12.14-.22.08-.29-.06l-1.38-.21c0,.28-.11.57-.17.86-.1.8-.2.92-.93,1a28.17,28.17,0,0,1-6.68-.14c-.64-.08-.8-.36-.64-1a2.69,2.69,0,0,1,1.08-1.6c.11-.11.36-.17.19-.42-.48.07-.38-.31-.4-.55a8,8,0,0,0-.61-2.68,6,6,0,0,0-2-2.59,3.8,3.8,0,0,0-2.56-.69.71.71,0,0,0-.13.53c.26.17,0,.56.29.71l.64,0a2.17,2.17,0,0,1,1.71,1,4.88,4.88,0,0,1,1.08,2.63,3,3,0,0,1,.12,1.36.44.44,0,0,1-.56,0c-.49-.12-1,0-1.48-.33a8.07,8.07,0,0,1-1.9-.2c-.06.2-.13.4-.19.61a1,1,0,0,1-.26.71,72.33,72.33,0,0,1-12.59-1.14c0-.4.05-.65.07-.9a2.2,2.2,0,0,0-.88-.14c-.45.45-1.15.58-1.53,1.19.26.41.29.95.95,1,1.9.3,3.78.64,5.67,1l4.65.81a.65.65,0,0,1,.18.41,6.76,6.76,0,0,0,.76,2.14,4.06,4.06,0,0,0,2.51,2.13,3.91,3.91,0,0,0,3.71-1,6.52,6.52,0,0,0,1.53-2.09,2,2,0,0,1,.85.09,28.4,28.4,0,0,0,6.43.83c1.29-.07,2.59,0,3.88-.06H72a.9.9,0,0,0,.83-.86c0-.3,0-.6,0-.9a1.75,1.75,0,0,1,0-1.15q1.23-5.94,2.48-11.87c.31-1.45.63-2.89.94-4.33a.73.73,0,0,1,.23-.51l2.55.35a.45.45,0,0,1,.13.43c-.18,3-.35,6-.54,9.07a4.2,4.2,0,0,1-.08.47,8.56,8.56,0,0,0,1.34,0,15.85,15.85,0,0,1,.08-2.07l.39-7.19c0-.13,0-.27,0-.48l5.21.7c0-.39.09-.78.14-1.17l-5.29-.79c.12-2.07.24-4.11.36-6.15a7.5,7.5,0,0,0,.11-1.64c.06-2,.26-4.08.32-6.13a14.18,14.18,0,0,1,.12-1.58,14.51,14.51,0,0,1,.1-2.55,1.81,1.81,0,0,1,1.77-1.61c1.41,0,2.82,0,4.22,0h10.2c.17,1.05-.19,2-.06,3h1l0,0h0a.27.27,0,0,1,.12,0c.08-1.36.2-2.72.21-4.08a29.5,29.5,0,0,1,.53-4c.24-1.69.53-3.38.79-5.06.42-2.63.84-5.25,1.24-7.87.18-1.17.3-2.34.49-3.5.14-.85.49-1.06,1.37-.94.15.19.11.43.14.66a7.68,7.68,0,0,0,1.7,1.06l.53.29.53.25c.32.14.64.26,1,.42a3.87,3.87,0,0,0,1.48.46c0-.11,0-.18.09-.25a.34.34,0,0,0-.19-.3.14.14,0,0,1,0-.25l.62-.77a.06.06,0,0,1,0-.08l.11-.15C109.25,64.51,109.2,64.38,109.14,64.26Zm-53,62.52c-.16,0-.33,0-.42-.18l-.36-.18c-.08,0-.13,0-.14-.07a5.22,5.22,0,0,1-1.73-2.83c1,.06,1.88.32,2.78.45q.09-.1.15,0l1.55.27c.05-.09.09-.07.1,0l.28.06c.06,0,.14,0,.19,0s.3.1.45.15A3,3,0,0,1,56.15,126.78Zm23-21.62a17.27,17.27,0,0,1-2.49-.4c0-1.41.65-2.41,2.65-2.3C79.32,103.34,79.21,104.22,79.14,105.16Z"/><path class="cls-16" d="M78.13,121.1c.11-.48-.3-.74-.49-1.09a2,2,0,0,1-.27-.91c0-.57,0-1.15,0-1.72,0-.82.23-1,1.1-1a8.56,8.56,0,0,0,1.34,0c.91,0,1.07.17,1.07,1.07a3.56,3.56,0,0,0,.12,1.34l.14.23a1.67,1.67,0,0,0,.47,1c-.11.27,0,.49.13.72q.85,2.27,1.7,4.53a1.16,1.16,0,0,1,.12.93,1,1,0,0,1-1.65.25,11,11,0,0,1-.64-1c-.67-1-1.34-2-2.08-3C78.91,122,78.78,121.33,78.13,121.1Z"/><path class="cls-17" d="M81,118.77c.13,0,.29,0,.42.09,0,.13-.16.14-.28.14Z"/><path class="cls-17" d="M82,118.86c.1-.1.19-.06.27,0C82.13,119,82,119,82,118.86Z"/><path class="cls-9" d="M114.38,57.13l-.12.12-.16.15-.13.13a.16.16,0,0,0-.13.14h0a.16.16,0,0,0-.14.13l-.13.14a.17.17,0,0,0-.13.15.74.74,0,0,0-.17.57,1.73,1.73,0,0,0-.92.21,18.11,18.11,0,0,0-2.82,2,.53.53,0,0,0-.24.4l-.26.22c0-.08-.07-.16-.16-.18q0-5,0-10a8.72,8.72,0,0,0,0-2.55s-.06-.05-.1-.08l-.07-2.5a.54.54,0,0,0,0-.7l0-.68a13.26,13.26,0,0,0,.12-5.06,4.82,4.82,0,0,0-.4-1.83.51.51,0,0,0,.07-.45,15.63,15.63,0,0,1,0-2.37c.24.12.31.39.51.54a7.48,7.48,0,0,0,1.93,2.49.49.49,0,0,0,.41-.24c.33-.46.68-.93,1-1.39.68-.92,1.53-1.71,2.16-2.68-.06,1.15-.1,2.31-.16,3.46-.14,2.58-.13,5.17,0,7.76.07,1.47.08,3,.18,4.42.16,2.24.24,4.48.35,6.71,0,.34-.26.52-.34.8h0C114.45,57,114.41,57.05,114.38,57.13Z"/><path class="cls-5" d="M109.14,64.26a.94.94,0,0,1-.68.19c-.15-.18,0-.33,0-.48a.43.43,0,0,1,.26-.3,7.11,7.11,0,0,0,1.72-1.37c1-.7,1.28-.95,1.41-1.41a9,9,0,0,1-2.36.9l-.08-.09.24-.38c.21-.06.32-.25.47-.38a8.77,8.77,0,0,1,3.23-2c.21,0,.24.17.32.29.51.82,1,1.65,1.52,2.43a1.28,1.28,0,0,1,.19,1.45c-.23,0-.3.15-.42.3a13.55,13.55,0,0,1-1.85,1.86,4.06,4.06,0,0,0-.94,1c-.23,0-.33.25-.54.28s-.57.05-.52-.38c1.12-1,1.31-1.17,1.33-1.72-.92.68-1.56,1.67-2.78,2,.46-1,1.39-1.53,2-2.32-.42-.2-.6.09-.78.25a10.5,10.5,0,0,1-1.69,1.19c-.21.12-.44.28-.68,0l.62-.77.08,0,0,0,.11-.15a3.64,3.64,0,0,0,1.51-1.35A6.37,6.37,0,0,0,109.14,64.26Z"/><path class="cls-18" d="M126.48,55.36a.69.69,0,0,1-.13.54c-.77.59-1.39,1.34-2.14,2L120.48,61c1.7,0,3.37-.28,5-.38.43.39.33.88.39,1.28.21,1.32.32,2.65.48,4a7.13,7.13,0,0,1,0,2.26,1.62,1.62,0,0,1-1.11,1.29,8.56,8.56,0,0,1-2.28.51,11.85,11.85,0,0,1-1.46,0A2.56,2.56,0,0,1,119,67.8c-.25-1.27-.35-2.55-.53-3.82a1,1,0,0,1,.07-.83c.23,0,.3.07.32.22.13,1.35.33,2.69.55,4a2.18,2.18,0,0,0,2.36,2.09,10.26,10.26,0,0,0,3.07-.43c.84-.23,1.09-.62,1.13-1.51a25.59,25.59,0,0,0-.39-4.53c-.1-.63-.16-1.27-.23-1.88a.44.44,0,0,0-.42-.07,24.61,24.61,0,0,1-3.08.35,14.28,14.28,0,0,1-2.06.15.92.92,0,0,0-.56.24l-2.3,1.53c-.16.1-.29.24-.5.11,0-.32.25-.44.45-.57q2.67-1.77,5.18-3.78c.77-.62,1.54-1.24,2.26-1.92A9.83,9.83,0,0,0,126,55.5C126.14,55.34,126.31,55.34,126.48,55.36Z"/><path class="cls-18" d="M114.53,57c.08-.28.39-.46.34-.8.28,0,.39-.21.55-.37,1-1,2-2.07,3.11-3.06.73-.68,1.44-1.37,2.16-2a.94.94,0,0,0,.3-1c-.7-3-1.36-6-2-9a2.67,2.67,0,0,1,0-1,.69.69,0,0,1,.39.6c.74,3.06,1.47,6.13,2.09,9.21a2,2,0,0,0,.12.29c.87-.06,1.7-.57,2.65-.31-.17.54-.57.45-.91.46a2.1,2.1,0,0,0-1.09.22c.39.22.84.16,1.22.33s.84.06.92.69c-.72-.08-1.31-.36-1.93-.47a1.36,1.36,0,0,0-1.56.5,15.36,15.36,0,0,1-1.69,1.63c-1.3,1.32-2.65,2.58-4,3.84C114.94,56.81,114.82,57,114.53,57Z"/><path class="cls-6" d="M116.74,40.82a1.24,1.24,0,0,1-.13-.15c0-.57.06-1.19.1-1.81a.63.63,0,0,1,0-.45,21.48,21.48,0,0,0-.57-4.79,8.53,8.53,0,0,0-1.26-2.82h-.14a.17.17,0,0,1-.16-.15l-.15-.11c0,.17,0,.33,0,.49l.38.45a.27.27,0,0,1,.17.33,13.44,13.44,0,0,1,1.11,3.86c.12.08.16.16,0,.26a17.4,17.4,0,0,1,.1,3.06,5.67,5.67,0,0,1,0,1.54c0,.18-.06.31-.27.3a1.49,1.49,0,0,0-.94,1.71c.13.65.61,1,1.46,1.07l.53-.1C118,42.44,118,41.59,116.74,40.82Zm.49,1.48a.87.87,0,0,1-.92.82.88.88,0,0,1-.86-1,.91.91,0,0,1,1-.85A.84.84,0,0,1,117.23,42.3Z"/><path class="cls-11" d="M114.53,33.83c-.63,1-1.48,1.76-2.16,2.68-.34.46-.69.93-1,1.39a.49.49,0,0,1-.41.24A7.48,7.48,0,0,1,109,35.65l.45-.91c.59.64.87,1.51,1.56,2.24l3.55-4.87A5.51,5.51,0,0,1,114.53,33.83Z"/><path class="cls-14" d="M112.16,66.29a4.06,4.06,0,0,1,.94-1A13.55,13.55,0,0,0,115,63.43c.12-.15.19-.32.42-.3a30.47,30.47,0,0,1,.2,3.31C114.43,66.51,113.3,66.22,112.16,66.29Z"/><path class="cls-18" d="M116.49,43.6l.53-.1a.86.86,0,0,1,0,.55c-.68,2.05-1.13,4.17-1.61,6.27-.06.28-.12.49-.52.39a17.31,17.31,0,0,1,.58-2.63c.32-1.29.6-2.6,1-3.86A1.45,1.45,0,0,0,116.49,43.6Z"/><path class="cls-18" d="M116.71,38.86a.63.63,0,0,1,0-.45,1.21,1.21,0,0,0,.76-1.57c-.4-1.7-.94-3.35-1.44-5a.68.68,0,0,1,.11-.76.05.05,0,0,1,.08,0c.18.61.36,1.22.55,1.83.44,1.42.83,2.85,1.2,4.28a.65.65,0,0,1-.18.74A5.6,5.6,0,0,1,116.71,38.86Z"/><path class="cls-11" d="M113.34,59a8.77,8.77,0,0,0-3.23,2c-.15.13-.26.32-.47.38l-.36,0a.53.53,0,0,1,.24-.4,18.11,18.11,0,0,1,2.82-2,1.73,1.73,0,0,1,.92-.21A.41.41,0,0,1,113.34,59Z"/><path class="cls-18" d="M116.22,39a5.67,5.67,0,0,1,0,1.54c0,.18-.06.31-.27.3,0-.23-.13-.37-.27-.52-.41-.47-.41-.58,0-1C115.87,39.16,116,39,116.22,39Z"/><path class="cls-19" d="M120.1,88.12c-.34.12-.68.28-1-.1A1.58,1.58,0,0,1,120.1,88.12Z"/><path class="cls-19" d="M123.44,88c-.25.31-.53.24-.82.08A1.07,1.07,0,0,1,123.44,88Z"/><path class="cls-19" d="M118.71,88c-.21.13-.42.22-.54-.11A.56.56,0,0,1,118.71,88Z"/><path class="cls-19" d="M124.55,87.92c-.11.22-.25.21-.41,0A.32.32,0,0,1,124.55,87.92Z"/><path class="cls-16" d="M114.82,31.47a.27.27,0,0,1,.17.33.21.21,0,0,1-.2-.18Z"/><path class="cls-17" d="M116.1,35.66c.12.08.16.16,0,.26A.16.16,0,0,1,116.1,35.66Z"/><path class="cls-20" d="M125.45,38.39a.16.16,0,0,1,.07.18C125.44,38.53,125.41,38.48,125.45,38.39Z"/><path class="cls-18" d="M113.43,58.1a.17.17,0,0,1,.13-.15A.13.13,0,0,1,113.43,58.1Z"/><path class="cls-18" d="M113.84,57.67a.16.16,0,0,1,.13-.14C114,57.62,113.94,57.67,113.84,57.67Z"/><path class="cls-18" d="M114.1,57.4l.16-.15C114.26,57.35,114.21,57.4,114.1,57.4Z"/><path class="cls-20" d="M125.71,39.09a.18.18,0,0,1,.08.18A.13.13,0,0,1,125.71,39.09Z"/><path class="cls-18" d="M114.38,57.13c0-.08.07-.13.15-.14S114.48,57.13,114.38,57.13Z"/><path class="cls-18" d="M113.69,57.81a.16.16,0,0,1,.14-.13C113.83,57.77,113.79,57.82,113.69,57.81Z"/><path class="cls-3" d="M106.24,65.55c.32.14.64.26,1,.42a3.87,3.87,0,0,0,1.48.46c-.12,2.56-.21,5.12-.37,7.68-.21,3.44-.38,6.87-.75,10.3-.11,1-.17,2-.3,3a.56.56,0,0,1-.14.4c-.2.13-.43,0-.66,0a25,25,0,0,1-4.78-.74,2.28,2.28,0,0,0-.27,0c-.39-.07-.73-.27-1.11-.36s-.64-.43-.56-1c.14-1,.35-2,.48-3s.36-1.79.47-2.69c.13-1.09.37-2.16.54-3.24.14-.88.33-1.75.43-2.63.18-1.46.52-2.88.57-4.35,0-.21.13-.28.3-.3a3.43,3.43,0,0,1,.34.06c1.45.32,2.75-.17,3-1.85C106,67.07,106.11,66.31,106.24,65.55Z"/><path class="cls-18" d="M115.38,86.56a20.18,20.18,0,0,1-4.53,0c.46-2.39,1.15-4.73,1.71-7.1.5-2.11,1.11-4.18,1.47-6.32a.62.62,0,0,1,.33-.47c.07.64.17,1.23.19,1.83.09,2.23.37,4.45.46,6.68C115.08,83,115.25,84.77,115.38,86.56Z"/><path class="cls-11" d="M108.52,65.63c.24.25.47.09.68,0a10.5,10.5,0,0,0,1.69-1.19c.18-.16.36-.45.78-.25-.63.79-1.56,1.27-2,2.32,1.22-.34,1.86-1.33,2.78-2,0,.55-.21.77-1.33,1.72-.29.12-.49.38-.78.52-.77.35-1,.19-1-.66.06,0,.16,0,.16-.11s-.15,0-.19.08l-.52.16a.33.33,0,0,0-.19-.3A.14.14,0,0,1,108.52,65.63Z"/><path class="cls-11" d="M114.22,72.48a.78.78,0,0,1-.32-.71,1.2,1.2,0,0,0-.44-.82l-1.12-1.12a1,1,0,0,1-.37-.67c.26-.16.4,0,.5.14a10,10,0,0,0,1.62,1.57A1.4,1.4,0,0,1,114.22,72.48Z"/><path class="cls-19" d="M125.77,92.26a.58.58,0,0,1,.11.54C125.54,92.68,125.63,92.47,125.77,92.26Z"/><path class="cls-19" d="M125.92,93.22a.57.57,0,0,1,.07.55C125.7,93.63,125.74,93.43,125.92,93.22Z"/><path class="cls-19" d="M125.23,89.2a.41.41,0,0,1,.09.41C125,89.53,125,89.38,125.23,89.2Z"/><path class="cls-19" d="M126.06,94.33a.34.34,0,0,1,0,.41C125.88,94.63,125.89,94.49,126.06,94.33Z"/><path class="cls-19" d="M125.64,91.42a.18.18,0,0,1,0,.27C125.53,91.63,125.46,91.55,125.64,91.42Z"/><path class="cls-19" d="M125.09,88.51a.21.21,0,0,1,.07.27C125,88.73,124.9,88.65,125.09,88.51Z"/><path class="cls-19" d="M125.36,89.9a.19.19,0,0,1,.06.27C125.25,90.11,125.18,90,125.36,89.9Z"/><path class="cls-19" d="M125.49,90.59a.17.17,0,0,1,.06.27C125.39,90.8,125.32,90.72,125.49,90.59Z"/><path class="cls-6" d="M101.37,93.45c-.21-.66-.8-1-1.26-1.41-.14-.12-.33-.17-.43-.34a4.17,4.17,0,0,1,3.13,1.4,10.81,10.81,0,0,1,2.61,4.44A30.44,30.44,0,0,1,106.87,110a21.54,21.54,0,0,1-5,12.31,9.86,9.86,0,0,1-3.23,2.58,4.07,4.07,0,0,1-2.54.49c.27-.33.72-.39,1-.65a17.72,17.72,0,0,0,3-3.08,2.24,2.24,0,0,0,.7-.94,3.61,3.61,0,0,0,.33-.35,21.13,21.13,0,0,0,1.86-3.52,5.2,5.2,0,0,0,.56-1.68,13.79,13.79,0,0,0,.93-3.18,18.8,18.8,0,0,0,.31-3.08,40.45,40.45,0,0,0-.54-7.69,21.16,21.16,0,0,0-2.16-6.72A2.57,2.57,0,0,0,101.37,93.45Z"/><path class="cls-17" d="M97,99.18l-4.91,0a15,15,0,0,1,5.77-6.86c-.2,2.28.07,4.55-.28,6.82A1.13,1.13,0,0,1,97,99.18Z"/><path class="cls-18" d="M90.7,99.18l-.19,0a9.64,9.64,0,0,1,1.12-2.07C91.4,97.82,90.92,98.44,90.7,99.18Z"/><path class="cls-18" d="M92,96.55l.19-.29C92.18,96.42,92.1,96.51,92,96.55Z"/><path class="cls-18" d="M92.2,96.18l.11-.17C92.33,96.1,92.33,96.18,92.2,96.18Z"/><path class="cls-18" d="M91.64,97.06c0-.09.06-.19.16-.25A.21.21,0,0,1,91.64,97.06Z"/><path class="cls-18" d="M91.8,96.81a.41.41,0,0,1,.16-.27A.25.25,0,0,1,91.8,96.81Z"/><path class="cls-17" d="M80.74,99.21a8.18,8.18,0,0,0,.12-1.64c0-2,.25-4.08.3-6.13,0-.52.06-1,.13-1.58l5.8,0c2,0,4,0,6.08,0,.37,0,.79-.08,1,.38a22,22,0,0,0-6.31,8.36c-.08.19-.19.37-.28.55C85.3,99.16,83,99.13,80.74,99.21Z"/><path class="cls-21" d="M94.17,90.28c-.21-.46-.63-.38-1-.38-2,0-4,0-6.08,0a14.24,14.24,0,0,0,.29-4.17h10.2c.17,1.05-.19,2-.06,3A8.58,8.58,0,0,0,94.17,90.28Z"/><polygon class="cls-21" points="98.53 88.71 98.55 88.68 98.59 88.69 98.57 88.73 98.53 88.71"/><path class="cls-11" d="M107.79,24.65a.71.71,0,0,1,.33.83c-.08.59-.21,1.19.5,1.56-.5.16-.9,0-1-.37A4.52,4.52,0,0,1,107.79,24.65Z"/><path class="cls-16" d="M107.63,28.56a4.73,4.73,0,0,1,1.2-.2c.33-.06.61-.42,1-.23A1.8,1.8,0,0,1,107.63,28.56Z"/><path class="cls-16" d="M109.19,23.66c.22.07.39.19.34.44a.35.35,0,0,1-.39.31.33.33,0,0,1-.29-.39A.35.35,0,0,1,109.19,23.66Z"/><path class="cls-6" d="M106.45,24.21c.25.06.39.17.36.4s-.08.33-.29.31a.34.34,0,0,1-.34-.42A.29.29,0,0,1,106.45,24.21Z"/><path class="cls-11" d="M122.18,116.26a2.13,2.13,0,0,1,2.6-.05c0,.19-.14.33-.31.28a10.09,10.09,0,0,0-2-.13A.67.67,0,0,1,122.18,116.26Z"/><path class="cls-11" d="M124.38,117c0,.23-.09.33-.16.32-.79-.11-1.58,0-2.41-.09,0-.35.22-.51.46-.5C123,116.72,123.74,116.44,124.38,117Z"/><path class="cls-11" d="M124,118h-2.43c-.08-.38.12-.49.37-.5.5,0,1,0,1.52,0C123.7,117.51,123.7,117.53,124,118Z"/><path class="cls-11" d="M124.8,115.44a.34.34,0,0,1-.39.08,3.26,3.26,0,0,0-1.64,0c-.19,0-.34,0-.39-.16s.1-.31.28-.32a4.06,4.06,0,0,1,1.77,0C124.67,115.08,124.87,115.13,124.8,115.44Z"/><path class="cls-13" d="M108.5,35.11a15.63,15.63,0,0,0,0,2.37.51.51,0,0,1-.07.45,2.38,2.38,0,0,0-1.53-1.26,4.53,4.53,0,0,1,.08-1.61,5.12,5.12,0,0,1,1.38-3l.11.1.06.18,0,.94A7.83,7.83,0,0,0,108.5,35.11Z"/><path class="cls-13" d="M116.13,31.06a.68.68,0,0,0-.11.76c.5,1.67,1,3.32,1.44,5a1.21,1.21,0,0,1-.76,1.57,21.48,21.48,0,0,0-.57-4.79,8.53,8.53,0,0,0-1.26-2.82.94.94,0,0,0,.55-.05Z"/><path class="cls-14" d="M108.5,35.11a7.83,7.83,0,0,1,0-1.81h.27a4.43,4.43,0,0,1,.7,1.45l-.45.91C108.81,35.5,108.74,35.23,108.5,35.11Z"/><path class="cls-9" d="M108.76,33.29h-.27l0-.94c.13,0,.21,0,.21.19Z"/><path class="cls-16" d="M114.42,30.53l0,.49a.91.91,0,0,1-.56-.64C114.13,30.27,114.27,30.42,114.42,30.53Z"/><path class="cls-13" d="M108.67,31.84c.08.21,0,.31-.21.34l-.11-.1a.53.53,0,0,1,.31-.24Z"/><path class="cls-16" d="M114.73,30.79a.17.17,0,0,1-.16-.15A.17.17,0,0,1,114.73,30.79Z"/><path class="cls-13" d="M108.74,31.73l.08.05c0,.1-.08.09-.15.06h0A.44.44,0,0,1,108.74,31.73Z"/><path class="cls-9" d="M88.84,65.66a10.76,10.76,0,0,1-.49-1.83.52.52,0,0,1-.3-.55c-.18-.09-.17-.26-.16-.43a.62.62,0,0,1-.25-.63.29.29,0,0,1-.2-.34c-.3-.19-.36-.51-.48-.8a.43.43,0,0,1-.13-.45c-.25-.07-.3-.28-.33-.5-.19-.11-.2-.25,0-.34.38-.16.76-.3,1.14-.44-.17-.23-.48-.22-.67-.39-.45.06-.62-.25-.68-.59s-.13-.42-.42-.38c-.16.24-.19.57-.49.75-1.76-1.29-3.84-1.5-5.91-1.75a6.84,6.84,0,0,1-2.41,3.31,2.89,2.89,0,0,1-2.1.76,1.16,1.16,0,0,1-1-.67,3.26,3.26,0,0,1-.11-2.3c0-.18.1-.36.15-.53-.08,0-.15,0-.18-.11a11.43,11.43,0,0,0-3.6,1.38c0,.21-.13.27-.32.23-.41.14-.55.68-1,.66a10.55,10.55,0,0,1-1.33,2c-1,1.42-2,2.81-3,4.13,0,.57.52.75.54,1.19.62.23,1,.81,1.51,1.16.37.26.65.65,1.11.78a7,7,0,0,1,.71-3.2,13.67,13.67,0,0,0,.67-1.89c.1-.34.11-.33.47-.43.15.15,0,.29,0,.44a27.27,27.27,0,0,1-1,2.66,5.77,5.77,0,0,0,.35,5.06c.12.23.3.43,0,.66a8.8,8.8,0,0,0,.18,2.46A11.3,11.3,0,0,1,69,78.11c-.12.9-.33,1.79-.5,2.68,0,.15,0,.34-.18.44,0,.07,0,.13,0,.19a.21.21,0,0,1,0,.28c-.06.24-.11.47-.17.71l-.12,1.09c.08,0,.18.11.13.19s0,.36,0,.54a.25.25,0,0,0,.23.13c.17,0,.3,0,.32.2a.58.58,0,0,0,.44.19.13.13,0,0,1,.09,0l.4.2a7.42,7.42,0,0,1,4.67-3.52,8,8,0,0,0,2.45-1.25l6.42-4.46a7.18,7.18,0,0,0,1.1-.75c-.16-1.66-.64-3.32-1-5a.51.51,0,0,1,.43-.31,36,36,0,0,0,4.84-1.57l.21,0,.57-.33A4.79,4.79,0,0,0,88.84,65.66Zm-6,4.36a13.69,13.69,0,0,1-1.61-5.3c.18-.06.27,0,.31.19.42,1.58.84,3.15,1.39,4.69A.34.34,0,0,1,82.81,70Z"/><path class="cls-3" d="M108.91,51.33c-.14,0-.15-.17-.16-.3-.24.07-.36-.07-.4-.27q-.66-2.61-1.53-5.16a.17.17,0,0,1,.08-.23l0-.41c-.21.06-.28-.07-.33-.24-.22-.8-.46-1.6-.66-2.4a1.13,1.13,0,0,1,.25-1.08,5.58,5.58,0,0,0,1.11-1.45l-2-1.76a.43.43,0,0,1,0,.07c.11.19,0,.29-.16.34a9.32,9.32,0,0,0-.47,1.47c.1,1.07-.23,2.13-.11,3.2,0,.23,0,.46.06.68a.88.88,0,0,0,.72.82l.13,0c.3,0,.6,0,.76.3a.33.33,0,0,1-.07.44.77.77,0,0,1-.89-.08.64.64,0,0,1-.13-.15,1.15,1.15,0,0,1-.94-1,7.26,7.26,0,0,1-.08-2.75c.11-.48,0-1,.27-1.47a3.65,3.65,0,0,1,1.41-3,3.08,3.08,0,0,1,.79-1.79l.54-1.86-.18-.39A8.51,8.51,0,0,0,104.74,34c-.39.27-.63.74-1.13.84,0,.46-.47.68-.61,1.07a27,27,0,0,0-.91,2.62c-.38,1.5-.68,3-1,4.54s-.6,3.32-1,5a10,10,0,0,0-.42,1.86,8.84,8.84,0,0,1,2,.2c.24.08.43.16.31.5-.48,0-.9-.37-1.45-.17.44.45,1.07.62,1.35,1.17-.22.24-.36.09-.49,0a8.88,8.88,0,0,0-1.85-1.2.58.58,0,0,0-.37.15c-1.15.75-2.23,1.6-3.34,2.4-1.57,1.13-3.12,2.31-4.63,3.52-.28.22-.6.46-.55.89.64,1.15,1.14,2.36,1.71,3.53a1,1,0,0,1,.1.6c.67.65.66.65,1.57.27a47.51,47.51,0,0,0,6.62-3.49c.9-.56,1.76-1.15,2.6-1.79a.35.35,0,0,1,.41,0c.18,1.47-.24,3-.09,4.51.85,0,1.67.21,2.51.27.33,0,.41.24.41.53s0,.87,0,1.31l.37.18c.18-.09.31-.06.37.14a4,4,0,0,0,1.22.63.43.43,0,0,1,.26-.3c0-.09.05-.19.07-.28l0-1.34c0-.07,0-.13.07-.16a.11.11,0,0,0,0-.12v-.43Q108.89,56.33,108.91,51.33ZM104,55.54c0,.21,0,.21-.28.45-.18-.1-.12-.28-.12-.43,0-.46,0-.92,0-1.39.05-2.24-.16-4.46-.29-6.69-.11-1.79-.3-3.58-.42-5.37a6.67,6.67,0,0,1-.06-1.84c.28,0,.34.08.35.24.09,1.12.19,2.24.28,3.36.14,1.63.29,3.26.39,4.89C104,51,104.08,53.27,104,55.54Z"/><path class="cls-7" d="M69.18,84.8l.4.2a.53.53,0,0,1,0,.46A2.89,2.89,0,0,0,69.34,87,26,26,0,0,0,66,88.07a24.63,24.63,0,0,0-3.7,1.67,4,4,0,0,0-1.91,2.35,9.59,9.59,0,0,0-.18,3.16.44.44,0,0,0,.39.49,10.91,10.91,0,0,1,.1,2c-.37,0-.2.3-.22.46a27,27,0,0,1-.5,3.48c-.45,1.91-1.13,3.74-1.69,5.62s-1.16,4-1.73,6c-.08.29-.1.62-.52.62l-4.18-.32c-.36,0-.28-.3-.27-.52.15-2,.28-4,.45-5.93.24-2.74.64-5.45,1-8.17l.16-1.35c.19-1.09.39-2.17.57-3.26a19.2,19.2,0,0,1,.87-3,5.63,5.63,0,0,0,.81-1.35A11.74,11.74,0,0,1,58,88.2a20.42,20.42,0,0,0,2.15-1.06,3.08,3.08,0,0,0,.65-.21c.84-.36,1.69-.71,2.54-1.05,1.55-.63,3.17-1.07,4.74-1.65a.25.25,0,0,0,.23.13.32.32,0,0,0,.32.2.58.58,0,0,0,.44.19S69.12,84.85,69.18,84.8Z"/><path class="cls-10" d="M69.86,59.06c-.41.14-.55.68-1,.66a3.24,3.24,0,0,1,.67-3.35,1.69,1.69,0,0,0,.19-2.27,4.27,4.27,0,0,1-.33-.68,2.8,2.8,0,0,1,.15-2.72c.2-.31.38-.63.57-1a2.44,2.44,0,0,0,.19-2.2A5.67,5.67,0,0,1,69.81,46a3.5,3.5,0,0,1,1.89-3.37A10.8,10.8,0,0,1,73.22,42a24.25,24.25,0,0,1,3.27-.88,5.08,5.08,0,0,1,6,4.6,10.77,10.77,0,0,1,0,1.39,3.73,3.73,0,0,0,1.72,3.42,6.38,6.38,0,0,1,.8.66,2.61,2.61,0,0,1,.63,3.65,1.66,1.66,0,0,0-.09,1.81A2.61,2.61,0,0,1,85.87,58c-.16.24-.19.57-.49.75-1.76-1.29-3.84-1.5-5.91-1.75a.62.62,0,0,1-.31-.42,29.43,29.43,0,0,1-.43-3.49.69.69,0,0,1,.45-.76,2,2,0,0,0,1.14-2.22c-.09-.73-.51-1-1.21-.74a.42.42,0,0,1-.37,0c-.08-.4-.41-.58-.79-.71a7.16,7.16,0,0,1-4.4-3.6c-.5.48-1,.9-1.43,1.35a2.08,2.08,0,0,0-.6,1.22,12.06,12.06,0,0,0,.54,5.72,3,3,0,0,0,2.24,2l0,1c-.16.29,0,.66-.26.94a.21.21,0,0,0-.28.07,11.43,11.43,0,0,0-3.6,1.38A.35.35,0,0,0,69.86,59.06Z"/><path class="cls-5" d="M68.24,71.17A5.33,5.33,0,0,1,67.67,69c-.46-.13-.74-.52-1.11-.78-.53-.35-.89-.93-1.51-1.16-.86,1.28-1.7,2.57-2.63,3.8-.42.56-.43.57-1.06.35-2.5-.85-5-1.71-7.51-2.55A1.17,1.17,0,0,1,53.1,68a5.76,5.76,0,0,0-1.26-1.88,17.92,17.92,0,0,0-2.47-1.77.84.84,0,0,0-.77-.17c-.08.33.15.52.27.76.24.47.8.69.92,1.25a.5.5,0,0,1-.37-.15c-.77-.59-1.53-1.18-2.32-1.75a2,2,0,0,0-1.31-.56,2,2,0,0,0,.47.8,1.57,1.57,0,0,1,.5.8.18.18,0,0,1,.19.09c-.1.12-.16,0-.23-.05a12.8,12.8,0,0,1-1.42-.83,1.53,1.53,0,0,0-.85-.23,2.37,2.37,0,0,0,1.18,1.49,4.63,4.63,0,0,1,1.77,1.51c-.79-.14-1.12-.83-1.69-1.15-.5.06-.89-.47-1.43-.32a1.22,1.22,0,0,0,.46.78,5,5,0,0,1,.89,1c.06,0,.09,0,.07.08s-.08,0-.08-.07c-.29.15-.66-.32-.95.11a1.71,1.71,0,0,0,.82.71A23.47,23.47,0,0,0,51.25,71a3.62,3.62,0,0,1,1,.4c2.12,1.39,4.26,2.76,6.49,4A16.65,16.65,0,0,0,62,76.86a2.3,2.3,0,0,0,2.08-.42A14.59,14.59,0,0,0,66,74.84,29.47,29.47,0,0,0,68.52,72,1.52,1.52,0,0,0,68.24,71.17Zm-21.47-3-.1,0h0l-.11,0-.08,0-.15-.09,0,0-.07-.06a.12.12,0,0,1-.05,0h0l-.07-.07a1.64,1.64,0,0,1-.14-.22l0-.07h0l0,0,0,0H46l.08,0h.08l.16.06.13.06,0,0,.05,0,.12.1,0,0,.06,0,.06.07a3.33,3.33,0,0,1,.24.34Zm3.09-1.91h0a.14.14,0,0,1,0-.06C49.85,66.17,49.87,66.19,49.86,66.24Zm-2.65-.6a.93.93,0,0,1,.8.65C47.57,66.31,47.5,66.25,47.21,65.64Zm1,2c-.28.43-.23,1-.61,1.42-.31-.83.62-2.42,1.65-2.73C49.05,67,48.53,67.23,48.24,67.68ZM51.14,70c-.45-.46-.42-1-.73-1.47s-.86-.48-1.08-1A2.25,2.25,0,0,1,51.14,70Z"/><path class="cls-22" d="M55.8,120.07l-.19.61c-.3,0-.6,0-.9,0-2.87-.15-5.74-.35-8.6-.7a12.93,12.93,0,0,1-2.84-.52.72.72,0,0,1,.47-.75,10.32,10.32,0,0,1,2.4-.94c.14.11.26.14.34-.07a1.82,1.82,0,0,1,.72-.21.48.48,0,0,0,.4-.32,2.44,2.44,0,0,0,1.62-.41,3.9,3.9,0,0,1,2.07-.66,4.59,4.59,0,0,1,.52.33,3.34,3.34,0,0,0,2.46.64,11.26,11.26,0,0,1,1.4-.3,1.41,1.41,0,0,1,.22.91A13.66,13.66,0,0,1,55.8,120.07Z"/><path class="cls-6" d="M47.6,117.17a.48.48,0,0,1-.4.32,1.82,1.82,0,0,0-.72.21l-.27,0,.11-.85a.25.25,0,0,0,.07-.3l0-.26a.2.2,0,0,0,.06-.3l.09-.39a.43.43,0,0,0,.11-.43l.18-.82A.22.22,0,0,0,47,114q1.42-6.33,2.86-12.67a10.11,10.11,0,0,1,.35-1.19,3.51,3.51,0,0,1,3.07-2.51L53.08,99a2.21,2.21,0,0,0-1.76,1.58,10.11,10.11,0,0,0-.34,1.34c-.82,3.62-1.66,7.24-2.45,10.87C48.2,114.24,47.8,115.68,47.6,117.17Z"/><path class="cls-6" d="M55.49,90.05a5.63,5.63,0,0,1-.81,1.35c.15-2.17.31-4.33.67-6.48a4,4,0,0,1,.78-1.75,2.35,2.35,0,0,1,1.74-1,8.22,8.22,0,0,0,2.16.07c2,0,4,0,5.94.17.69,0,1.39,0,2.08,0l-.12,1.09a10.69,10.69,0,0,1-2.19,0,.5.5,0,0,0-.69,0l-6.7-.05a1.36,1.36,0,0,0-1.62,1.14,8.85,8.85,0,0,0-.41,2.51.88.88,0,0,0-.7.14C55.72,88.17,55.4,89.1,55.49,90.05Z"/><path class="cls-23" d="M90.69,57.33c.64,1.14,1.14,2.35,1.71,3.52a1,1,0,0,1,.1.6,18,18,0,0,1-4.15,2.38.5.5,0,0,1-.29-.55,7.14,7.14,0,0,0,1.3-.73c-.14-.34-.32-.25-.48-.17l-1,.47a.62.62,0,0,1-.25-.63c.36-.2.82-.23,1.2-.72a2.26,2.26,0,0,0-1.4.38c-.3-.19-.36-.51-.48-.8a2.88,2.88,0,0,0,1.43-.46c-.11-.27-.25-.25-.43-.22a4.28,4.28,0,0,1-1.13.23c-.25-.07-.3-.28-.33-.5A24.86,24.86,0,0,1,90,59c-.11-.38-.31-.31-.51-.26a10.19,10.19,0,0,0-1.87.6c-.17-.23-.48-.22-.67-.39,0-.31.29-.42.49-.54A6.8,6.8,0,0,1,90.69,57.33Z"/><path class="cls-16" d="M68.05,82.41c-.69,0-1.39,0-2.08,0-2-.12-4-.12-5.94-.17a2.12,2.12,0,0,0,0-1.71c.13-.09.27,0,.41-.05s.32.05.45-.1a7.46,7.46,0,0,1,1.25,0c.09.28.33.19.52.19.77,0,1.54,0,2.32.12a2.55,2.55,0,0,0,1.47-.08,3.86,3.86,0,0,1,1,0c.06.25.27.21.44.2a.41.41,0,0,1,.47.37l0,.19c-.15.08-.19.17,0,.28Z"/><path class="cls-21" d="M43.27,119.46a12.93,12.93,0,0,0,2.84.52c2.86.35,5.73.55,8.6.7.3,0,.6,0,.9,0a1,1,0,0,1-.26.71,72.33,72.33,0,0,1-12.59-1.14l.07-.9C43,119.33,43.1,119.52,43.27,119.46Z"/><path class="cls-21" d="M60.87,80.36c-.13.15-.3.08-.45.1s-.28,0-.41.05a2.12,2.12,0,0,1,0,1.71,8.22,8.22,0,0,1-2.16-.07c0-.39,0-.78.06-1.17s.32-.83.77-.8A9.27,9.27,0,0,1,60.87,80.36Z"/><path class="cls-9" d="M68.52,72a1.52,1.52,0,0,0-.28-.82A5.33,5.33,0,0,1,67.67,69a7.09,7.09,0,0,1,.71-3.2,13.67,13.67,0,0,0,.67-1.89c.09-.34.11-.33.47-.43.15.15,0,.29,0,.44a27.27,27.27,0,0,1-1,2.66,5.77,5.77,0,0,0,.35,5.06c.12.23.3.43,0,.67Z"/><path class="cls-18" d="M99.72,49.89a8.84,8.84,0,0,1,2,.2c.24.08.43.16.31.5-.48,0-.9-.37-1.45-.17.44.45,1.07.62,1.35,1.17-.22.24-.36.09-.49,0a8.88,8.88,0,0,0-1.85-1.2A.52.52,0,0,1,99.72,49.89Z"/><path class="cls-21" d="M66.43,80.62A2.55,2.55,0,0,1,65,80.7c-.78-.11-1.55-.08-2.32-.12-.19,0-.43.09-.52-.19a23.51,23.51,0,0,1,3.56.14A1.6,1.6,0,0,1,66.43,80.62Z"/><path class="cls-5" d="M45.63,65.78a4.63,4.63,0,0,1,1.77,1.51c-.79-.14-1.12-.83-1.69-1.15Z"/><path class="cls-21" d="M68.3,81.23a.41.41,0,0,0-.47-.37c-.17,0-.38,0-.44-.2a1.47,1.47,0,0,1,1.09.13C68.43,80.94,68.46,81.13,68.3,81.23Z"/><path class="cls-18" d="M46.7,115.12a.43.43,0,0,1-.11.43C46.4,115.35,46.43,115.2,46.7,115.12Z"/><path class="cls-18" d="M46.21,117.65l.27,0c-.08.21-.2.18-.34.07Z"/><path class="cls-18" d="M47,114a.22.22,0,0,1-.08.29C46.69,114.14,46.78,114.06,47,114Z"/><path class="cls-18" d="M46.5,115.94a.2.2,0,0,1-.06.3C46.26,116.1,46.35,116,46.5,115.94Z"/><path class="cls-18" d="M46.39,116.5a.25.25,0,0,1-.07.3C46.14,116.65,46.22,116.57,46.39,116.5Z"/><path class="cls-7" d="M60.71,97.72a10.91,10.91,0,0,0-.1-2,.33.33,0,0,0,.11-.38,4.78,4.78,0,0,1-.12-1.51,4.09,4.09,0,0,1,2.47-4,45.38,45.38,0,0,1,5.13-2.06,6.12,6.12,0,0,1,1.57-.5c0,.3-.09.63,0,.89.29.11.32-.11.43-.21h.32c.41.37.52-.08.72-.27h.48c.33.3.45,0,.58-.21a6.86,6.86,0,0,1,1.3-1.59,12,12,0,0,0,2,.14c1.65,0,3.3-.09,5-.15a5.38,5.38,0,0,0-.53,2.46c-.07,1.26,0,2.53-.17,3.79a.82.82,0,0,1-.66.48c-.52.08-1,.15-1.56.25a57.57,57.57,0,0,1-6.28.77,29.54,29.54,0,0,1-3.52.18c-.55,0-.59.07-.62.66a11.44,11.44,0,0,0,.2,2.19,48.26,48.26,0,0,1,.48,5.21c.11,3.53.06,7.07-.12,10.59,0,.14-.07.27-.08.41a5.75,5.75,0,0,0,0,1.71c.29,0,.33-.12.34-.26.09-1.24.24-2.48.26-3.72.05-2.61,0-5.22,0-7.83a31.66,31.66,0,0,0-.18-3.24c0-.53-.07-1.06-.14-1.58-.12-1.05-.26-2.09-.37-3.14,0-.48,0-.59.53-.59,2,0,4-.23,6-.42,1.24-.11,2.45-.32,3.68-.51a10,10,0,0,1,2-.3l-.14,2.16a7.67,7.67,0,0,0-.81.15,37.78,37.78,0,0,1-8.79,1.15A3.56,3.56,0,0,0,69,96.6a3.45,3.45,0,0,0,0,1.06,15.4,15.4,0,0,0,0,1.8,7.13,7.13,0,0,0,.22,1.84c.18,2.08.13,4.16.13,6.24a2,2,0,0,0-.11.47c0,1.13-.11,2.25-.19,3.38-.11,1.67-.26,3.34-.38,5,0,.3-.14.42-.41.44a32.78,32.78,0,0,1-4.32,0c-.32,0-.32-.3-.36-.51-.39-2-.79-3.93-1.15-5.9-.38-2.13-.75-4.26-1.07-6.41S60.85,99.81,60.71,97.72Z"/><path class="cls-21" d="M88.74,68.1l.57-.33c2.28.12,4.57.24,6.85.38,1.28.07,2.57.18,3.85.28A11.41,11.41,0,0,1,99.7,71c-.24,1.7-.53,3.4-.8,5.11-.31,1.93-.62,3.85-.92,5.78-.09.57-.14,1.15-.2,1.72a1,1,0,0,1-.15.65,2.86,2.86,0,0,1-1.1.06c0-1.3-.37-1.67-1.67-1.67l-7.38,0a19.39,19.39,0,0,0-.58-3,5.69,5.69,0,0,1,1.17-.84,2.8,2.8,0,0,0,1.36-2.13,23.54,23.54,0,0,0,0-3.66C89.25,71.36,89,69.72,88.74,68.1Z"/><path class="cls-9" d="M86.9,79.64a19.39,19.39,0,0,1,.58,3c-.82.07-1.64-.07-2.46,0a5.2,5.2,0,0,0-1.42,0c-.46,0-.67.28-.7.76,0,.32,0,.64,0,1a3.6,3.6,0,0,0-2.27,1.45c-1.65.06-3.3.18-5,.15a12,12,0,0,1-2-.14c.19-.38.6-.4.93-.52a4.89,4.89,0,0,0,2-1.22,2.44,2.44,0,0,1,1.12-.67c.66-.2,1.3-.46,1.94-.71a53.93,53.93,0,0,0,7-3.07C86.7,79.63,86.81,79.65,86.9,79.64Z"/><path class="cls-24" d="M86.9,79.64a19.39,19.39,0,0,1,.58,3c-.82.07-1.64-.07-2.46,0a5.2,5.2,0,0,0-1.42,0c-.46,0-.67.28-.7.76,0,.32,0,.64,0,1a3.6,3.6,0,0,0-2.27,1.45c-1.65.06-3.3.18-5,.15a12,12,0,0,1-2-.14c.19-.38.6-.4.93-.52a4.89,4.89,0,0,0,2-1.22,2.44,2.44,0,0,1,1.12-.67c.66-.2,1.3-.46,1.94-.71a53.93,53.93,0,0,0,7-3.07C86.7,79.63,86.81,79.65,86.9,79.64Z"/><path class="cls-22" d="M68.21,118.87a6.41,6.41,0,0,1,.42,1.83,3.29,3.29,0,0,1,.14,1.43l-.17.86a3.6,3.6,0,0,1-.86.21,31.77,31.77,0,0,1-5.77-.07,4.27,4.27,0,0,1-1.62-.26,2.69,2.69,0,0,1,1.08-1.6c.11-.11.36-.17.19-.42a1.69,1.69,0,0,0,.79-.52l1.53-1.76a1,1,0,0,0,.35,0,2.24,2.24,0,0,1,2.29.55.82.82,0,0,0,1.12.08Z"/><path class="cls-14" d="M87.38,85.71a14.24,14.24,0,0,1-.29,4.17l-5.8,0a14.51,14.51,0,0,1,.1-2.55,1.81,1.81,0,0,1,1.77-1.61C84.57,85.68,86,85.7,87.38,85.71Z"/><path class="cls-16" d="M85,82.71c.82-.12,1.64,0,2.46,0l7.38,0c1.3,0,1.67.37,1.67,1.67-.76,0-1.53,0-2.29,0-2.8.16-5.61.12-8.41.12-.28,0-.55,0-.83,0Z"/><path class="cls-21" d="M79.62,97.24a.51.51,0,0,0-.44-.14c-2.4.21-4.81.37-7.21.5a2.7,2.7,0,0,0-.41.06H69a3.45,3.45,0,0,1,0-1.06,3.56,3.56,0,0,1,1.13-.17,37.78,37.78,0,0,0,8.79-1.15,7.67,7.67,0,0,1,.81-.15Z"/><path class="cls-7" d="M79.84,93a10,10,0,0,0-2,.3c-1.23.19-2.44.4-3.68.51-2,.19-4,.42-6,.42-.49,0-.58.11-.53.59.11,1,.25,2.09.37,3.14.07.52.1,1,.14,1.58a31.66,31.66,0,0,1,.18,3.24c0,2.61,0,5.22,0,7.83,0,1.24-.17,2.48-.26,3.72,0,.14,0,.27-.34.26a5.75,5.75,0,0,1,0-1.71c0-.14.07-.27.08-.41.18-3.52.23-7.06.12-10.59a48.26,48.26,0,0,0-.48-5.21,11.44,11.44,0,0,1-.2-2.19c0-.59.07-.69.62-.66a29.54,29.54,0,0,0,3.52-.18,57.57,57.57,0,0,0,6.28-.77c.52-.1,1-.17,1.56-.25a.82.82,0,0,0,.66-.48C80.06,92.4,79.82,92.68,79.84,93Z"/><path class="cls-3" d="M102.5,69.23a2.6,2.6,0,0,1,0-1.61c.17-1,.23-2.05.37-3.06,0-.35.12-.65.57-.61a7.68,7.68,0,0,0,1.7,1.06l.53.29a12.49,12.49,0,0,1-.32,2.59,1.5,1.5,0,0,1-1.65,1.35C103.33,69.21,102.91,69.23,102.5,69.23Z"/><path class="cls-5" d="M56.05,113.93l0,.41a.71.71,0,0,0-.13.53,5.57,5.57,0,0,0-.23,1.9,11.26,11.26,0,0,0-1.4.3,3.34,3.34,0,0,1-2.46-.64,4.59,4.59,0,0,0-.52-.33,1.65,1.65,0,0,1,.2-.64,4.21,4.21,0,0,0,.38-1.85Z"/><path class="cls-7" d="M58.08,124.29l.28.06a.5.5,0,0,1,0,.34c-.59,1-1.26,1.93-2.62,1.91l-.36-.18-.14-.07a5.22,5.22,0,0,1-1.73-2.83c1,.06,1.88.32,2.78.45a.11.11,0,0,0,.15,0l1.56.27,0,0Z"/><path class="cls-7" d="M59.18,120.6c-.49-.12-1,0-1.48-.33a2.3,2.3,0,0,0-.24-.85c-.36-1-.74-1.93-1.09-2.91a1.49,1.49,0,0,1-.18-.93l.64,0c.07.25.27.35.46.49A5,5,0,0,1,59.18,120.6Z"/><path class="cls-21" d="M60.35,122.87a4.27,4.27,0,0,0,1.62.26,31.77,31.77,0,0,0,5.77.07,3.6,3.6,0,0,0,.86-.21c-.1.8-.2.92-.93,1a28.17,28.17,0,0,1-6.68-.14C60.35,123.78,60.19,123.5,60.35,122.87Z"/><path class="cls-16" d="M56.19,115.58a1.49,1.49,0,0,0,.18.93c.35,1,.73,1.94,1.09,2.91a2.3,2.3,0,0,1,.24.85,8.07,8.07,0,0,1-1.9-.2,13.66,13.66,0,0,0,.09-2.39,1.41,1.41,0,0,0-.22-.91,5.57,5.57,0,0,1,.23-1.9C56.16,115,55.88,115.43,56.19,115.58Z"/><path class="cls-17" d="M85,82.71l0,1.73a10.93,10.93,0,0,1-2.14,0c0-.31,0-.63,0-1,0-.48.24-.74.7-.76A5.2,5.2,0,0,1,85,82.71Z"/><path class="cls-18" d="M102.5,69.23c.41,0,.83,0,1.24,0a1.5,1.5,0,0,0,1.65-1.35,12.49,12.49,0,0,0,.32-2.59l.53.25c-.13.76-.29,1.52-.4,2.28-.23,1.68-1.53,2.17-3,1.85a3.43,3.43,0,0,0-.34-.06Z"/><path class="cls-7" d="M59.18,120.6a5,5,0,0,0-1.89-4.51c-.19-.14-.39-.24-.46-.49a2.17,2.17,0,0,1,1.71,1,4.88,4.88,0,0,1,1.08,2.63,3,3,0,0,1,.12,1.36A.44.44,0,0,1,59.18,120.6Z"/><path class="cls-18" d="M106,62.76a1.79,1.79,0,0,0,.1-1.1,10.28,10.28,0,0,0-1.93-.22c-.36,0-.57-.13-.51-.53.85,0,1.67.21,2.51.28.33,0,.41.23.4.52l0,1.31A1.92,1.92,0,0,1,106,62.76Z"/><path class="cls-7" d="M55.73,126.6c1.36,0,2-.88,2.62-1.91a.5.5,0,0,0,0-.34.46.46,0,0,1,.2,0c.15,0,.29.1.44.15a3,3,0,0,1-2.85,2.3C56,126.76,55.82,126.78,55.73,126.6Z"/><path class="cls-25" d="M59.18,120.6a5,5,0,0,0-1.89-4.51c-.19-.14-.39-.24-.46-.49a2.17,2.17,0,0,1,1.71,1,4.88,4.88,0,0,1,1.08,2.63,3,3,0,0,1,.12,1.36A.44.44,0,0,1,59.18,120.6Z"/><path class="cls-25" d="M55.73,126.6c1.36,0,2-.88,2.62-1.91a.5.5,0,0,0,0-.34.46.46,0,0,1,.2,0c.15,0,.29.1.44.15a3,3,0,0,1-2.85,2.3C56,126.76,55.82,126.78,55.73,126.6Z"/><path class="cls-11" d="M109.14,64.26a6.37,6.37,0,0,1,1.67-1,3.64,3.64,0,0,1-1.51,1.35Z"/><path class="cls-21" d="M71,122.49a.89.89,0,0,0,.63-.33C71.59,122.66,71.52,122.7,71,122.49Z"/><path class="cls-21" d="M79.46,100.29a.73.73,0,0,1,0-.69A.54.54,0,0,1,79.46,100.29Z"/><path class="cls-21" d="M70.15,122.34a.19.19,0,0,1,.29.06C70.32,122.54,70.22,122.48,70.15,122.34Z"/><path class="cls-18" d="M106.86,63.2c.17-.09.31-.06.37.14A.32.32,0,0,1,106.86,63.2Z"/><path class="cls-21" d="M78.09,101.29a.21.21,0,0,1,.3,0C78.3,101.38,78.2,101.44,78.09,101.29Z"/><path class="cls-11" d="M109.19,64.78l0,0-.08,0A.06.06,0,0,1,109.19,64.78Z"/><path class="cls-11" d="M58.08,124.29l0,0,0,0C58,124.18,58.06,124.2,58.08,124.29Z"/><path class="cls-11" d="M55.23,126.35l.14.07C55.29,126.47,55.24,126.44,55.23,126.35Z"/><path class="cls-11" d="M56.43,124a.11.11,0,0,1-.15,0Q56.37,123.87,56.43,124Z"/><path class="cls-6" d="M104.26,39.87a3.65,3.65,0,0,1,1.41-3c.25-.1.54-.06.79-.23V35.08l.54-1.86a.87.87,0,0,0,.23-.47,5.36,5.36,0,0,1,.73-1,1,1,0,0,1,.77-.37v.32a.44.44,0,0,0-.08.11.53.53,0,0,0-.31.24,5.12,5.12,0,0,0-1.38,3,4.53,4.53,0,0,0-.08,1.61,2.38,2.38,0,0,1,1.53,1.26,4.82,4.82,0,0,1,.4,1.83l-.37.07a2.16,2.16,0,0,1-.14-.67,3.5,3.5,0,0,0-.46-1.29,1.4,1.4,0,0,0-2.06-.46,1,1,0,0,0-.58.62.43.43,0,0,1,0,.07.3.3,0,0,0-.16.34,9.32,9.32,0,0,0-.47,1.47Z"/><path class="cls-23" d="M108.75,46.2l.07,2.5c-.17.24,0,.52-.08.78s.09.45-.14.62c-.27-1.26-.69-2.47-1.08-3.69a1.85,1.85,0,0,1-.16-1c.22-.06.48,0,.59-.3.28,0,.42-.4.75-.28l0,.68A.53.53,0,0,0,108.75,46.2Z"/><path class="cls-18" d="M108.7,44.82c-.33-.12-.47.25-.75.28l-.1-.36a1.16,1.16,0,0,0,.57-.75,10,10,0,0,0,.13-2.11c-.06-.68-.06-1.37-.1-2.05l.37-.07A13.26,13.26,0,0,1,108.7,44.82Z"/><path class="cls-16" d="M108.82,61.89a.11.11,0,0,0,0-.12.3.3,0,0,0,.16-.25l.26-.22.36,0-.24.38s-.08.08-.07.09.1.05.15,0a9,9,0,0,0,2.36-.9c-.13.46-.39.71-1.41,1.41l-.31-.15c-.08,0-.15,0-.14.14h0c-.38-.1-.88.21-1.12-.34C108.87,61.92,108.85,61.9,108.82,61.89Z"/><path class="cls-20" d="M108.6,50.1c.23-.17.11-.41.14-.62s-.09-.54.08-.78c0,0,.1,0,.1.08a8.72,8.72,0,0,1,0,2.55c-.14,0-.15-.17-.16-.3C108.8,50.71,108.58,50.42,108.6,50.1Z"/><path class="cls-20" d="M108.75,46.2a.53.53,0,0,1,0-.7A.54.54,0,0,1,108.75,46.2Z"/><path class="cls-12" d="M109,61.52a.3.3,0,0,1-.16.25v-.43C109,61.36,109,61.44,109,61.52Z"/><path class="cls-11" d="M110.12,62.15l.31.15a7.11,7.11,0,0,1-1.72,1.37l.07-.28L110,62.28h0Z"/><path class="cls-18" d="M116.42,41.31a.84.84,0,0,1,.81,1,.87.87,0,0,1-.92.82.88.88,0,0,1-.86-1A.91.91,0,0,1,116.42,41.31Z"/><path class="cls-9" d="M109.28,66c0-.07.1-.13.19-.08s-.1.09-.16.11Z"/><path class="cls-9" d="M101.37,93.45a2.57,2.57,0,0,1,.79,1,21.16,21.16,0,0,1,2.16,6.72,40.45,40.45,0,0,1,.54,7.69,18.8,18.8,0,0,1-.31,3.08,13.56,13.56,0,0,1-2.2-.15.19.19,0,0,0-.31,0l-.46-.13a1,1,0,0,1,0-.21c0-5.88-.21-11.76-.18-17.64C101.35,93.68,101.36,93.56,101.37,93.45Z"/><path class="cls-14" d="M103.62,115.15a5.2,5.2,0,0,1-.56,1.68,21.13,21.13,0,0,1-1.86,3.52,3.61,3.61,0,0,1-.33.35H94.09a3.51,3.51,0,0,1-1.16-.13c.08-.67.59-1,1-1.4a8.43,8.43,0,0,1,1.77-.9c.37.25.74.5,1.19.24,0-.35-.34-.33-.39-.56a.26.26,0,0,1,.21-.17c.68.59,1,.65,1.25.21-.11-.29-.54-.15-.64-.47a1,1,0,0,1,.51-.34l0,0c0,.42.32.45.57.54s.44-.09.4-.4h0a1.09,1.09,0,0,1,.47.09c.37.1.5-.07.46-.43l-.39-.17c-.14-.06-.33,0-.4-.22a.19.19,0,0,1,.21-.11,3.51,3.51,0,0,0,.53.15c.27,0,.47.45.8.16s-.18-.5-.1-.79c.33-.13.67.24,1,0,.09-.17.12-.35-.11-.44s-.34-.14-.4-.34a1.77,1.77,0,0,1,1.11-.67A5.9,5.9,0,0,1,103.62,115.15Z"/><path class="cls-11" d="M92.93,120.56a3.51,3.51,0,0,0,1.16.13h6.78a2.24,2.24,0,0,1-.7.94,20.56,20.56,0,0,0-2.22,0,18.5,18.5,0,0,0-2,0,17.18,17.18,0,0,1-2.38-.13c-.47-.07-.75-.24-.81-.72Z"/><path class="cls-12" d="M103.62,115.15a5.9,5.9,0,0,0-1.56-.59c0-.88.22-1.74.17-2.62l.12-.12a13.56,13.56,0,0,0,2.2.15A13.79,13.79,0,0,1,103.62,115.15Z"/><path class="cls-11" d="M101,115.23c.06.2.22.27.4.34s.2.27.11.44c-.32.26-.66-.11-1,0-.08.29.45.49.1.79s-.53-.13-.8-.16a3.51,3.51,0,0,1-.53-.15c.27-.52.9-.57,1.26-1A2,2,0,0,1,101,115.23Z"/><path class="cls-11" d="M99,116.62c.07.18.26.16.4.22l.39.17c0,.36-.09.53-.46.43a1.09,1.09,0,0,0-.47-.09c0-.26-.34-.3-.33-.57A.63.63,0,0,1,99,116.62Z"/><path class="cls-11" d="M97.37,117.51c.1.32.53.18.64.47-.26.44-.57.38-1.25-.21A.59.59,0,0,1,97.37,117.51Z"/><path class="cls-11" d="M96.55,117.94c0,.23.43.21.39.56-.45.26-.82,0-1.19-.24C95.92,117.92,96.23,117.93,96.55,117.94Z"/><path class="cls-14" d="M98.56,116.78c0,.27.34.31.33.57h0c-.34,0-.62-.27-1-.14l0,0C98.07,117,98.35,116.94,98.56,116.78Z"/><path class="cls-20" d="M102.35,111.82l-.12.12a.29.29,0,0,1-.19-.17A.19.19,0,0,1,102.35,111.82Z"/><path class="cls-18" d="M107.23,32.75a.87.87,0,0,1-.23.47l-.18-.39C106.94,32.7,107.09,32.75,107.23,32.75Z"/><path class="cls-5" d="M86.9,79.64c-.09,0-.2,0-.27,0a53.93,53.93,0,0,1-7,3.07c-.64.25-1.28.51-1.94.71a2.44,2.44,0,0,0-1.12.67,4.89,4.89,0,0,1-2,1.22c-.33.12-.74.14-.93.52a6.86,6.86,0,0,0-1.3,1.59c-.13.17-.25.51-.58.21a8.8,8.8,0,0,1,.72-1.48c.12-.18.27-.41-.11-.57a6.75,6.75,0,0,0-1.09,2c-.2.19-.31.64-.72.27.29-1,.83-2,1.18-3a5.44,5.44,0,0,0-1.5,3c-.11.1-.14.32-.43.21-.14-.26,0-.59,0-.89a16,16,0,0,1,1.38-2.86c-.39-.13-.47.11-.58.26a7.45,7.45,0,0,0-.83,1.73c-.09.22-.06.53-.4.58a2.89,2.89,0,0,1,.21-1.51.53.53,0,0,0,0-.46,7.42,7.42,0,0,1,4.67-3.52,8,8,0,0,0,2.45-1.25l6.42-4.46a7.18,7.18,0,0,0,1.1-.75c-.16-1.66-.63-3.32-1-5a.51.51,0,0,1,.43-.3,36,36,0,0,0,4.84-1.57.76.76,0,0,1,.21,0c.3,1.62.51,3.26.66,4.91a23.54,23.54,0,0,1,0,3.66,2.8,2.8,0,0,1-1.36,2.13A5.69,5.69,0,0,0,86.9,79.64Z"/><path class="cls-5" d="M79.17,52.32a2,2,0,0,0,1.15-2.22c-.09-.73-.51-1-1.21-.74a.42.42,0,0,1-.37,0c-.09-.4-.41-.58-.79-.71a7.16,7.16,0,0,1-4.4-3.6c-.5.48-1,.9-1.43,1.35a2.08,2.08,0,0,0-.6,1.22,12.06,12.06,0,0,0,.54,5.72,3,3,0,0,0,2.24,2,4,4,0,0,1,.67-.14,3.56,3.56,0,0,0,2.47-1.2,1.28,1.28,0,0,1,.23-.14s0-.08.07,0,0,.07,0,.08a3.33,3.33,0,0,1-1.45,1.67,3.52,3.52,0,0,1-1.93.81c-.16.29,0,.66-.26.93,0,.08,0,.15-.1.19s-.11.35-.15.53a3.26,3.26,0,0,0,.11,2.3,1.16,1.16,0,0,0,1,.67,2.89,2.89,0,0,0,2.1-.76A6.84,6.84,0,0,0,79.47,57a.62.62,0,0,1-.31-.42,29.43,29.43,0,0,1-.43-3.49A.7.7,0,0,1,79.17,52.32ZM74.9,48.81a.32.32,0,0,1,.52-.07c.3.31.07.52-.2.74C74.88,49.31,74.7,49.12,74.9,48.81Zm-2.5-.12a.33.33,0,0,1,.32.37.4.4,0,0,1-.32.38A.41.41,0,0,1,72,49C72.06,48.82,72.17,48.65,72.4,48.69Zm.15,1.52c-.21.09-.44.19-.6-.24A1.6,1.6,0,0,0,73,49.45.65.65,0,0,1,72.55,50.21Zm.38,1.2a4.05,4.05,0,0,1,.45-1.53.48.48,0,0,1,.19.67A1.18,1.18,0,0,0,73.68,52C73.11,52.06,72.91,51.91,72.93,51.41ZM74.82,53c-.43.84-.94,1-1.58.39,0-.27.29-.16.39-.31-.19-.07-.42,0-.62-.15.24-.43.68-.24,1-.28s.69-.27,1.06-.14C75.31,52.82,74.93,52.81,74.82,53Zm.36-2.72c-.38,0-.59-.28-.75-.74a1.87,1.87,0,0,0,1.3.32A.43.43,0,0,1,75.18,50.24Z"/><path class="cls-9" d="M82.81,70a13.79,13.79,0,0,1-1.61-5.31c.18-.06.27,0,.31.19.42,1.58.84,3.15,1.39,4.69A.36.36,0,0,1,82.81,70Z"/><path class="cls-24" d="M68.52,72a1.52,1.52,0,0,0-.28-.82A5.33,5.33,0,0,1,67.67,69a7.09,7.09,0,0,1,.71-3.2,13.67,13.67,0,0,0,.67-1.89c.09-.34.11-.33.47-.43.15.15,0,.29,0,.44a27.27,27.27,0,0,1-1,2.66,5.77,5.77,0,0,0,.35,5.06c.12.23.3.43,0,.67Z"/><path class="cls-24" d="M82.81,70a13.79,13.79,0,0,1-1.61-5.31c.18-.06.27,0,.31.19.42,1.58.84,3.15,1.39,4.69A.36.36,0,0,1,82.81,70Z"/><path class="cls-17" d="M87.64,59.35a10.19,10.19,0,0,1,1.87-.6c.2,0,.4-.12.51.26a24.86,24.86,0,0,0-3.52,1.12c-.19-.11-.2-.25,0-.34C86.88,59.63,87.26,59.49,87.64,59.35Z"/><path class="cls-11" d="M87.89,62.85l1-.47c.16-.08.34-.17.48.17a7.14,7.14,0,0,1-1.3.73C87.87,63.19,87.88,63,87.89,62.85Z"/><path class="cls-11" d="M86.83,60.63A4.28,4.28,0,0,0,88,60.4c.18,0,.32,0,.43.22a2.88,2.88,0,0,1-1.43.46A.42.42,0,0,1,86.83,60.63Z"/><path class="cls-11" d="M87.44,61.88a2.26,2.26,0,0,1,1.4-.38c-.38.49-.84.52-1.2.72A.29.29,0,0,1,87.44,61.88Z"/><path class="cls-13" d="M68.65,84.56a.32.32,0,0,1-.32-.2C68.5,84.33,68.63,84.36,68.65,84.56Z"/><path class="cls-9" d="M74.06,57.38c0,.07,0,.15-.1.18s-.15,0-.18-.11A.21.21,0,0,1,74.06,57.38Z"/><path class="cls-9" d="M69.86,59.06a.35.35,0,0,1,.32-.23C70.16,59,70.05,59.1,69.86,59.06Z"/><path class="cls-21" d="M68.22,81.7c-.15-.11-.11-.2,0-.28A.21.21,0,0,1,68.22,81.7Z"/><path class="cls-13" d="M69.18,84.8c-.06,0-.08,0-.09,0A.19.19,0,0,1,69.18,84.8Z"/><path class="cls-18" d="M102.83,40.27c.28,0,.33.08.35.23.09,1.13.19,2.25.28,3.37.14,1.63.29,3.26.39,4.89.13,2.25.23,4.51.15,6.78,0,.21,0,.21-.28.45-.18-.1-.12-.28-.12-.43,0-.46,0-.92,0-1.39.05-2.24-.16-4.46-.29-6.69-.11-1.79-.3-3.58-.42-5.37A6.67,6.67,0,0,1,102.83,40.27Z"/><path class="cls-18" d="M105.21,38a1,1,0,0,1,.58-.62c-.07.55.3.83.66,1.12a13.32,13.32,0,0,1,1.31,1.13,1.19,1.19,0,0,1-.34.72c-.32.39-.62.79-1,1.17a.78.78,0,0,0-.15.82c.23.76.41,1.54.62,2.31l-.08.28c-.21.06-.28-.07-.33-.25-.22-.79-.46-1.59-.66-2.39a1.13,1.13,0,0,1,.25-1.08,5.58,5.58,0,0,0,1.11-1.45Z"/><path class="cls-18" d="M104.26,39.87l.28,0c.1,1.07-.23,2.13-.11,3.2,0,.23,0,.46.06.68a.88.88,0,0,0,.72.82,1.16,1.16,0,0,0-.2.47,1.15,1.15,0,0,1-.94-1,7.26,7.26,0,0,1-.08-2.75C104.1,40.86,104,40.32,104.26,39.87Z"/><path class="cls-18" d="M108.6,50.1c0,.32.2.61.15.93-.24.07-.36-.07-.4-.27q-.66-2.61-1.53-5.16a.17.17,0,0,1,.08-.23l.46,0a1.85,1.85,0,0,0,.16,1C107.91,47.63,108.33,48.84,108.6,50.1Z"/><path class="cls-6" d="M105,45.08a1.16,1.16,0,0,1,.2-.47l.13,0c.3,0,.6,0,.76.3a.33.33,0,0,1-.07.44.77.77,0,0,1-.89-.08A.64.64,0,0,1,105,45.08Z"/><path class="cls-18" d="M106.46,35.08v1.56c-.25.17-.54.13-.79.23A3.14,3.14,0,0,1,106.46,35.08Z"/><path class="cls-9" d="M110,62.28l-1.21,1.11,0-1.34.12-.11C109.11,62.49,109.61,62.18,110,62.28Z"/><path class="cls-6" d="M107.36,45.4l-.46,0,0-.41.08-.28c.3,0,.62-.24.91.06l.1.36C107.84,45.36,107.58,45.34,107.36,45.4Z"/><path class="cls-18" d="M105,38.44a.3.3,0,0,1,.16-.34C105.28,38.29,105.22,38.39,105,38.44Z"/><path class="cls-13" d="M108.87,61.94l-.12.11c0-.07,0-.13.07-.16S108.87,61.92,108.87,61.94Z"/><path class="cls-7" d="M69.34,87c.34,0,.31-.36.4-.58a7.45,7.45,0,0,1,.83-1.73c.11-.15.19-.39.58-.26a16,16,0,0,0-1.38,2.86,6.12,6.12,0,0,0-1.57.5,45.38,45.38,0,0,0-5.13,2.06,4.09,4.09,0,0,0-2.47,4,4.78,4.78,0,0,0,.12,1.51.33.33,0,0,1-.11.38.44.44,0,0,1-.39-.49,9.59,9.59,0,0,1,.18-3.16,4,4,0,0,1,1.91-2.35A24.63,24.63,0,0,1,66,88.07,26,26,0,0,1,69.34,87Z"/><path class="cls-25" d="M79.84,93a10,10,0,0,0-2,.3c-1.23.19-2.44.4-3.68.51-2,.19-4,.42-6,.42-.49,0-.58.11-.53.59.11,1,.25,2.09.37,3.14.07.52.1,1,.14,1.58a31.66,31.66,0,0,1,.18,3.24c0,2.61,0,5.22,0,7.83,0,1.24-.17,2.48-.26,3.72,0,.14,0,.27-.34.26a5.75,5.75,0,0,1,0-1.71c0-.14.07-.27.08-.41.18-3.52.23-7.06.12-10.59a48.26,48.26,0,0,0-.48-5.21,11.44,11.44,0,0,1-.2-2.19c0-.59.07-.69.62-.66a29.54,29.54,0,0,0,3.52-.18,57.57,57.57,0,0,0,6.28-.77c.52-.1,1-.17,1.56-.25a.82.82,0,0,0,.66-.48C80.06,92.4,79.82,92.68,79.84,93Z"/><path class="cls-25" d="M69.34,87c.34,0,.31-.36.4-.58a7.45,7.45,0,0,1,.83-1.73c.11-.15.19-.39.58-.26a16,16,0,0,0-1.38,2.86,6.12,6.12,0,0,0-1.57.5,45.38,45.38,0,0,0-5.13,2.06,4.09,4.09,0,0,0-2.47,4,4.78,4.78,0,0,0,.12,1.51.33.33,0,0,1-.11.38.44.44,0,0,1-.39-.49,9.59,9.59,0,0,1,.18-3.16,4,4,0,0,1,1.91-2.35A24.63,24.63,0,0,1,66,88.07,26,26,0,0,1,69.34,87Z"/><path class="cls-17" d="M56.32,87.11c1.29,0,2.57-.06,3.85,0A20.42,20.42,0,0,1,58,88.2a11.74,11.74,0,0,0-2.53,1.85c-.09-1,.23-1.88.13-2.8A.88.88,0,0,1,56.32,87.11Z"/><path class="cls-5" d="M77.7,54a3.33,3.33,0,0,1-1.45,1.67,3.52,3.52,0,0,1-1.93.81l0-1a4,4,0,0,1,.67-.14,3.56,3.56,0,0,0,2.47-1.2.86.86,0,0,1,.23-.13Z"/><path class="cls-5" d="M51.14,70c-.45-.46-.42-1-.73-1.47s-.86-.48-1.08-1A2.25,2.25,0,0,1,51.14,70Z"/><path class="cls-5" d="M49.28,66.37c-.23.59-.75.86-1,1.3s-.23,1-.62,1.43C47.32,68.27,48.25,66.68,49.28,66.37Z"/><path class="cls-5" d="M45.9,67.42a1.36,1.36,0,0,1,1.13.8,1.37,1.37,0,0,1-1.12-.8Z"/><path class="cls-5" d="M47.21,65.64a.93.93,0,0,1,.8.65C47.57,66.31,47.5,66.25,47.21,65.64Z"/><path class="cls-5" d="M46.76,65.31a.18.18,0,0,1,.19.09c-.1.12-.16,0-.23-.05Z"/><path class="cls-5" d="M49.79,66.17c.06,0,.08,0,.07.07h0a.14.14,0,0,1,0-.06Z"/><path class="cls-5" d="M45.63,67.55c.06,0,.09,0,.07.07s-.08,0-.08-.06Z"/><polygon class="cls-5" points="45.91 67.42 45.88 67.39 45.9 67.42 45.91 67.42"/><path class="cls-17" d="M65.74,83.52a.76.76,0,0,1-.69,0A.5.5,0,0,1,65.74,83.52Z"/><path class="cls-5" d="M68.21,118.87l-.51.34a.82.82,0,0,1-1.12-.08,2.24,2.24,0,0,0-2.29-.55,1,1,0,0,1-.35,0v-1.78a32.78,32.78,0,0,0,4.32,0Z"/><path class="cls-11" d="M70.25,87.94a5.44,5.44,0,0,1,1.5-3c-.35,1-.89,2-1.18,3Z"/><path class="cls-14" d="M71.29,87.67a6.75,6.75,0,0,1,1.09-2c.38.16.23.39.11.57a8.8,8.8,0,0,0-.72,1.48Z"/><path class="cls-23" d="M107.85,44.74c-.29-.3-.61-.1-.91-.06-.21-.77-.39-1.55-.62-2.31a.78.78,0,0,1,.15-.82c.33-.38.63-.78,1-1.17a1.19,1.19,0,0,0,.34-.72,13.32,13.32,0,0,0-1.31-1.13c-.36-.29-.73-.57-.66-1.12a1.4,1.4,0,0,1,2.06.46,3.5,3.5,0,0,1,.46,1.29,2.16,2.16,0,0,0,.14.67c0,.68,0,1.37.1,2.05a10,10,0,0,1-.13,2.11A1.16,1.16,0,0,1,107.85,44.74Z"/><path class="cls-12" d="M109.48,61.79c0,.05-.1.08-.15,0s0-.06.07-.09Z"/><path class="cls-9" d="M110.12,62.15l-.14.14C110,62.18,110,62.16,110.12,62.15Z"/><path class="cls-11" d="M97.92,117.22c.35-.13.63.15,1,.14,0,.31-.06.51-.4.4S97.87,117.64,97.92,117.22Z"/><path class="cls-11" d="M73.38,49.88a.48.48,0,0,1,.19.67A1.18,1.18,0,0,0,73.68,52c-.57.06-.77-.09-.75-.59A4.05,4.05,0,0,1,73.38,49.88Z"/><path class="cls-11" d="M73.63,53c-.19-.07-.42,0-.62-.15.24-.43.68-.24,1-.28s.69-.27,1.06-.14c.22.35-.15.34-.28.49Z"/><path class="cls-13" d="M73.63,53,74.81,53c-.42.84-.93,1-1.57.39C73.24,53.08,73.53,53.19,73.63,53Z"/><path class="cls-6" d="M75.22,49.48c-.34-.17-.52-.36-.32-.67a.32.32,0,0,1,.52-.07C75.72,49.05,75.49,49.26,75.22,49.48Z"/><path class="cls-6" d="M72.4,49.45A.43.43,0,0,1,72,49c0-.19.13-.35.36-.31a.33.33,0,0,1,.32.37A.41.41,0,0,1,72.4,49.45Z"/><path class="cls-11" d="M75.73,49.82a.43.43,0,0,1-.55.42c-.38,0-.59-.28-.75-.74A1.87,1.87,0,0,0,75.73,49.82Z"/><path class="cls-11" d="M72,50A1.6,1.6,0,0,0,73,49.45a.65.65,0,0,1-.46.76C72.34,50.3,72.11,50.4,72,50Z"/><path class="cls-14" d="M77.67,53.94c0-.06,0-.09.08-.06s0,.07,0,.08Z"/><path class="cls-17" d="M57.84,82.23c0-.9,0-1.88.27-2s9.28.33,9.71.38a1.39,1.39,0,0,1,.66.22l-.85,1.59Z"/><path class="cls-5" d="M108.46,30.66s0,.45.09.58-.16.54.3.58a9.31,9.31,0,0,0,2.88-1.59l.36-.4a2,2,0,0,0-1,.14,3.89,3.89,0,0,1-2,.72A4.68,4.68,0,0,1,108.46,30.66Z"/><polyline class="cls-26" points="119.43 103.39 119.51 103.75 119.82 105.05 119.91 105.44 120.02 105.92 120.4 107.5"/><polygon class="cls-5" points="105.98 23.44 105.98 26.84 107.9 29.5 110.41 28.58 111.26 24.89 110.38 22.66 105.98 23.44"/><path class="cls-27" d="M105.57,25.4a25.45,25.45,0,0,0,1.26,4,4,4,0,0,0,.76.91,2.05,2.05,0,0,0,2.55-.14,6,6,0,0,0,2.06-2.14"/><path class="cls-5" d="M71.7,48.2l0,2.37,1.63,4s2.23-.22,2.33-.25,2-4.43,2-4.43L75.92,48Z"/><path class="cls-27" d="M74.41,55.45c.73-.29,2.38-.69,3-1.73L78,52.49"/><path class="cls-28" d="M68.57,72c-.27.43-2.65,3-2.65,3A13.08,13.08,0,0,1,64,76.5a2.19,2.19,0,0,1-2.36.25,24,24,0,0,1-3.15-1.46c-.68-.37-5.18-3.13-5.18-3.13s-1.24-.79-1.67-1-1.91-.66-2.46-.82A20.84,20.84,0,0,1,44.82,68c-.12-.12-.73-.78,0-.58a4.78,4.78,0,0,1,1.23.44c.3.14.68.52.76.54s-1.13-.66-1.28-.84S44,66.1,44.12,65.86s.44-.27,1.11.1a18.69,18.69,0,0,1,1.62,1.29c.09,0-1.21-1.27-1.34-1.42s-1.41-1.37-1.09-1.57,1.77.54,2.06.92.8,1.1.9,1.19a4.4,4.4,0,0,0-.5-1.05c-.27-.47-1.2-1.2-1.19-1.49a.42.42,0,0,1,.74-.17,30.53,30.53,0,0,0,2.75,2.22c.45.27.84.54.62.16s-1.27-1.43-1.27-1.7.2-.52.51-.31a25.85,25.85,0,0,1,2.8,2A10.76,10.76,0,0,1,53,67.82c.36.6.38.65,1,.85s7.63,2.65,7.88,2.65A47.13,47.13,0,0,0,65.05,67"/><path class="cls-28" d="M69.34,87a3.1,3.1,0,0,1,0-1.53,4.36,4.36,0,0,1,.67-1.3,7.56,7.56,0,0,1,2.5-2c1.29-.5,2.06-.73,2.39-.84s4.92-3.3,5.9-3.94S84.1,75,84.16,75s-.84-4.58-.85-5"/><path class="cls-28" d="M69.75,87.3c0,.36-.11.71.07.85a.27.27,0,0,0,.43-.17,5.62,5.62,0,0,1,.5-1.71,13.41,13.41,0,0,1,.78-1.13c.18-.13.16-.12.09.06s-.81,1.72-.88,2.09-.36.54-.17.68a.5.5,0,0,0,.59,0c.16-.13,0-.45.2-.66a15.58,15.58,0,0,1,1-1.71c.19-.06.45-.1.28.26s-.86,1.41-.81,1.66,0,.28.2.27,1-1.54,1.37-1.72,0-.36.61-.56a4.22,4.22,0,0,0,2-.94,5.26,5.26,0,0,1,1.69-1.15c.47-.14,6.38-2.43,7.49-3a12.43,12.43,0,0,0,2.37-1.27c.63-.5,1.25-.69,1.65-1.63a10.15,10.15,0,0,0,.29-4c-.12-1-.53-4.27-.6-4.85a2.19,2.19,0,0,0-.14-.69"/><path class="cls-29" d="M86.66,59c0-.44,1.53-1.35,2.38-1.45l1.65-.22,1.89,3.72,0,.52s-3.82,2.26-4.1,2.3-.59-.43-.59-.43l.25-.25,1.29-.63s-1.17.21-1.41.28-.57-.48-.57-.55a3.45,3.45,0,0,1,1-.49c.55-.22,0-.38-.09-.32s-.69.51-1,.4-1-.93-.6-1,1.65-.43,1.79-.43-1.79.25-1.88.23-.59-.35-.25-.55,1.39-.64,1.21-.76-.2-.1-.52-.1A.74.74,0,0,1,86.66,59Z"/><path class="cls-30" d="M113.24,58.4c.29.28,3,4.67,3,4.67l.32.5-1-.71a12.27,12.27,0,0,0-2.09,2c-.75,1-1.81,2.09-2.13,1.81s.23-1.22.89-1.75"/><line class="cls-31" x1="108.46" y1="30.66" x2="108.67" y2="32.7"/><path class="cls-31" d="M116,30.93c-.47-.12-.81-.62-1.09-.71s-1.8-.58-1.54-1.73c-.19-.4-.39-.34-.36-.68s-.12-.47,0-.67-.06-.55-.06-.55"/><path class="cls-9" d="M126.72,104.75a3.57,3.57,0,0,1-1.15,2.42l-3.66-2.9-.54-12.7,2.17-2.81,1.51-.81.27-.14.13-.07v.06l.55,5.58,0,.21h0l0,.43v0l0,.32,0,.29,0,.16.06.59v0l.16,1.58,0,.3s.32,3.87.37,6.4A6.31,6.31,0,0,1,126.72,104.75Z"/></svg>