<svg id="Layer_1" data-name="Layer 1" xmlns="http://www.w3.org/2000/svg" xmlns:xlink="http://www.w3.org/1999/xlink" viewBox="0 0 60 60"><defs><style>.cls-1{fill:#ddd;}.cls-2{fill:#fff;}.cls-3{fill:#fba190;}.cls-4{fill:#424159;}.cls-5{fill:#9f9fe6;}.cls-6{fill:#efefef;}.cls-7{fill:#dbdbdb;}.cls-8{clip-path:url(#clip-path);}.cls-9{fill:#cecdce;}.cls-10{fill:#b4b4b5;}.cls-11{opacity:0.29;}.cls-12{fill:#070707;}.cls-13{fill:#161616;}.cls-14{fill:#dfdfdf;}.cls-15{fill:#ff9b72;}.cls-16,.cls-24{fill:none;}.cls-16{stroke:#2e2c3f;stroke-miterlimit:10;stroke-width:0.13px;}.cls-17{fill:#dfecf4;}.cls-18{fill:#e4636b;}.cls-19,.cls-20,.cls-23{fill:#2e2c3f;}.cls-19,.cls-21{opacity:0.2;}.cls-19,.cls-22,.cls-23{isolation:isolate;}.cls-23{font-size:1.77px;font-family:Poppins-Bold, Poppins;font-weight:700;}.cls-24{stroke:#fff;stroke-linecap:round;stroke-linejoin:round;stroke-width:0.36px;}</style><clipPath id="clip-path"><path class="cls-1" d="M11,18.39h1.34a39.43,39.43,0,0,1,1.72,6.34,13.19,13.19,0,0,0-4-5.67Z"/></clipPath></defs><title>At-Home Blood Sample Collection-</title><circle class="cls-2" cx="30.19" cy="30.04" r="29.79"/><polygon class="cls-3" points="13.72 53.97 14.2 48.4 11.88 47.96 11.75 54.27 13.72 53.97"/><path id="SVGID" class="cls-4" d="M11,55.41l7,0-4.2-2.51c-.64,1.18-2.14.37-2.14.37Z"/><rect class="cls-4" x="14.16" y="52.17" width="0.68" height="6.99" transform="translate(-41.26 69.78) rotate(-89.61)"/><polygon class="cls-3" points="7.76 54.06 8.94 48.58 6.69 47.87 5.78 54.11 7.76 54.06"/><path id="SVGID-2" data-name="SVGID" class="cls-4" d="M5.18,55.41l7,0L8,52.94c-.65,1.18-2.15.37-2.15.37Z"/><rect class="cls-4" x="8.33" y="52.17" width="0.68" height="6.99" transform="translate(-47.05 63.96) rotate(-89.61)"/><path class="cls-5" d="M11.54,29.3,9,29.62,5.36,52.42l3.42.07,3.11-17.91-.84,17.91h3.28l.91-17.34c0-.67,0-1.6,0-2.28-.11-3.27-.82-3.25-.82-3.25Z"/><path class="cls-6" d="M13.64,19l4.54,2.48.7,2.92c-2.1-.16-4.85-1.91-6.28-2.45a8.73,8.73,0,0,1-2.67-1.8Z"/><path class="cls-3" d="M22.83,17.54a.73.73,0,0,0,0-1.12l.44-.24a.29.29,0,0,0,.11-.4h0a.3.3,0,0,0-.34-.14l-.91.27a.39.39,0,0,0-.27.33l-.11.76Z"/><path class="cls-3" d="M22.94,16l.74-1.45a.23.23,0,0,0-.05-.28h0a.22.22,0,0,0-.33,0l-1.19,1.61Z"/><path class="cls-3" d="M22.65,16.39l.75.55.58-1a.31.31,0,0,0-.08-.39l-.1-.09a.35.35,0,0,0-.28-.06l-.45.16Z"/><path class="cls-3" d="M23.06,16.8l.65.48.74-1a.3.3,0,0,0,.06-.18h0a.29.29,0,0,0-.09-.22l-.14-.14a.29.29,0,0,0-.22-.09H23.9Z"/><path class="cls-3" d="M23.33,17.22h0a.81.81,0,0,0,1.13-.16l.26-.35a.34.34,0,0,0,.07-.19h0a.32.32,0,0,0-.1-.22l-.14-.14a.31.31,0,0,0-.21-.09h-.17Z"/><path class="cls-3" d="M23.71,16.73l-.65-.44h-.74l-.59.75.76.69a.9.9,0,0,0,1.27-.06l.35-.38Z"/><polygon class="cls-3" points="23.18 17.65 21.88 19.81 20.46 18.75 21.73 17 23.18 17.65"/><path class="cls-6" d="M18,24h0a1.41,1.41,0,0,0,2.08-.38L23,19.14l-2.06-1.59-3.3,4.33C16.85,22.46,17.44,23.56,18,24Z"/><path class="cls-6" d="M7.76,22.81l1.65,4.64L7.35,32.83a20.09,20.09,0,0,0,4.85.35c1.84-.22,2.18-2.41,2.18-2.41,0,1.61,1,1.71,1,1.71s.2-11.17-.77-12.56a3.89,3.89,0,0,0-2.31-1.61H11L8.39,20.21A2.55,2.55,0,0,0,7.76,22.81Z"/><path class="cls-7" d="M13.24,18.68a3.1,3.1,0,0,0-.91-.35l-.14.33,1.87,6a9.06,9.06,0,0,0,.4-3.8L14,20.3h.4l-.79-1.39"/><path id="SVGID-3" data-name="SVGID" class="cls-1" d="M11,18.39h1.34a39.43,39.43,0,0,1,1.72,6.34,13.19,13.19,0,0,0-4-5.67Z"/><path class="cls-1" d="M11,18.39h1.34a39.43,39.43,0,0,1,1.72,6.34,13.19,13.19,0,0,0-4-5.67Z"/><g class="cls-8"><path class="cls-1" d="M9.28,18.93l.16-.5.55-.74L12.21,17l.93,1.81c.12,2.11-2.94.79-2.94.79Z"/></g><path class="cls-7" d="M14.06,24.66a40.43,40.43,0,0,0-3.52-3.12l.59-.59h-.85l-.86-1.48.65-.47A11.57,11.57,0,0,1,14.06,24.66Z"/><path class="cls-6" d="M10,23.38,7.06,27.6l-3,.35c.4-2.06,2.55-5.28,3.26-6.64a3.71,3.71,0,0,1,2-1.75Z"/><polygon class="cls-9" points="15.77 27.56 11.03 25.71 11.52 24.55 16.37 26.5 15.77 27.56"/><polygon class="cls-2" points="15.92 27.2 16.19 26.65 11.65 24.78 11.39 25.33 15.92 27.2"/><polygon class="cls-9" points="11.07 24.86 8.37 31.53 13.16 33.55 15.95 26.86 11.07 24.86"/><polygon class="cls-10" points="13.16 33.55 13.61 33.17 16.37 26.5 15.95 26.86 13.16 33.55"/><polygon class="cls-3" points="8.33 30.61 11.88 31.83 12.26 30.52 8.88 28.69 8.33 30.61"/><path class="cls-3" d="M11.88,31.83c2.17,2,2.6,0,2.69-.88s-2.31-.43-2.31-.43Z"/><path class="cls-3" d="M13.19,30.7l.71-.47A.25.25,0,0,0,14,29.9h0a.25.25,0,0,0-.29-.14l-.5.11a1.35,1.35,0,0,0-.69.4l-.33.35Z"/><path class="cls-6" d="M4.13,27.79h0a1.41,1.41,0,0,0,1,1.88l5.64,2.38,1-2.52L6.41,26.66C5.63,26.1,4.42,27.08,4.13,27.79Z"/><polygon class="cls-3" points="12.25 15.98 12.37 19.25 10.48 19.25 10.69 15.38 12.25 15.98"/><path class="cls-3" d="M13.7,16.14c.81.29,1.36-1.2.83-1.4s-.85.7-.85.7Z"/><g class="cls-11"><path class="cls-12" d="M12.25,16l-1.56-.59,0,.56c.32,1.45,1.06,2.43,1.66,2.12Z"/></g><path class="cls-3" d="M13.93,13.48A2,2,0,0,0,12.19,12c-1,0-1.75,1.37-1.71,3s1.06,2.86,2,2.83,1.58-1.32,1.53-2.94A4.3,4.3,0,0,0,13.93,13.48Z"/><path class="cls-12" d="M10.68,14a3.53,3.53,0,0,1,0,1.82,1,1,0,0,0-.43-.9c0-.81-.32-1.09-.31-1.44,0-.19.22-.31.22-.31a.91.91,0,0,1-.11-.85.45.45,0,0,1,.64-.2c.23-.78,1.42-1.76,1.85-1.56a.81.81,0,0,1,.4.74c.38-.14,1.52-.24,1.67.63.14.72-.31.93-.31.93s.85.32.41.84-1.8-.31-1.8-.31a.66.66,0,0,1-.21.61c-.28.25-1.33-.41-1.33-.41C11.34,14.13,10.68,14,10.68,14Z"/><path class="cls-3" d="M10.63,15.16c-.11-.26-.35-.68-.73-.57-.18.06-.25.26-.23.51,0,.48.43,1.1,1,.94A5.4,5.4,0,0,0,10.63,15.16Z"/><polygon class="cls-12" points="13.97 13.6 14.04 15.54 14.29 13.83 13.97 13.6"/><path class="cls-6" d="M13.33,21.68,9.81,19.26a5.59,5.59,0,0,1,2.11-.53,3.1,3.1,0,0,1,1.46,0Z"/><polygon class="cls-13" points="12.75 19.24 12.45 19.89 11.72 19.66 12 18.87 12.75 19.24"/><polygon class="cls-13" points="12.43 19.6 13.31 20.8 14.07 24.72 12.51 21.65 12.23 19.66 12.43 19.6"/><path class="cls-14" d="M11.63,20l-.9-.08a0,0,0,0,1,0-.08l.88.08.06-.22s0,0,.05,0,0,0,0,.05l-.06.25s0,0,0,0Z"/><path class="cls-14" d="M13,19.38l-.24-.11a0,0,0,0,1,0-.05,0,0,0,0,1,.06,0l.2.1.29-.43s0,0,.06,0,0,0,0,.05l-.31.46,0,0Z"/><polygon class="cls-6" points="10.07 19.46 9.69 19.23 10.58 18.07 11.89 18.73 10.07 19.46"/><polygon class="cls-6" points="11.89 18.73 12.19 18.96 13.35 18.77 12.33 18.06 11.89 18.73"/><path class="cls-15" d="M59.14,36.3l-9-4.52S46.91,23,46.33,22.23s-5-2.74-8.7-4.5C36,17,27.15,19.65,26.6,20.34a1.45,1.45,0,0,0,.69,2.42s-2.06,1.16-1.77,2.3a1.88,1.88,0,0,0,1.18,1.38s-.92,1.48-.45,2.38a1.65,1.65,0,0,0,1.13,1s-.1,1.39,1.57,1.41,3-.63,4.93-.55a8.58,8.58,0,0,1,3.14.67s1.68,4,3.67,7.53c1.26,2.26,13.88,7.59,13.88,7.59A20.44,20.44,0,0,0,59.15,36.3Z"/><path class="cls-16" d="M27.29,22.76A44.65,44.65,0,0,1,33,21.31c1.43-.09,6.17,1.8,6.17,1.8M26.7,26.44s5.1-1.64,7.7-1.29m-7,4.65s5.78-1.7,8.73-.8"/><line class="cls-16" x1="41.66" y1="27.45" x2="44.77" y2="27.92"/><path class="cls-17" d="M37.87,21.83l-11.81,22a3.14,3.14,0,0,1-2.55,1.64,3.08,3.08,0,0,1-1.71-.36,3.15,3.15,0,0,1-1.27-4.26l11.81-22,5.53,3Z"/><path class="cls-18" d="M28.61,25.81l5.53,3-8.08,15a3.16,3.16,0,0,1-4.26,1.28h0a3.15,3.15,0,0,1-1.27-4.26l8.08-15Z"/><rect class="cls-2" x="18.04" y="29.78" width="21.78" height="4.13" transform="translate(-12.82 42.24) rotate(-61.73)"/><path class="cls-19" d="M37.87,21.83l-11.81,22a3.14,3.14,0,0,1-2.55,1.64L36.59,21.14l1.28.69Z"/><path class="cls-20" d="M41.51,15.62l-2.74,5.1-6-3.22,2.74-5.1a.55.55,0,0,1,.74-.23l5,2.71a.53.53,0,0,1,.22.74Z"/><g class="cls-21"><rect class="cls-17" x="33.44" y="15.18" width="4.05" height="0.45" rx="0.23" transform="translate(5.1 39.34) rotate(-61.73)"/><rect class="cls-17" x="34.63" y="15.82" width="4.05" height="0.45" rx="0.23" transform="translate(5.16 40.73) rotate(-61.73)"/><rect class="cls-17" x="35.82" y="16.46" width="4.05" height="0.45" rx="0.23" transform="translate(5.22 42.11) rotate(-61.73)"/><path class="cls-17" d="M40,15.54h0a.23.23,0,0,1,.09.31L38.38,19a.23.23,0,0,1-.31.09h0a.22.22,0,0,1-.09-.3l1.71-3.18A.22.22,0,0,1,40,15.54Z"/></g><rect class="cls-20" x="34.74" y="15.98" width="1.4" height="7.49" rx="0.33" transform="translate(1.28 41.6) rotate(-61.73)"/><g class="cls-22"><text class="cls-23" transform="translate(24.96 39.62) rotate(-61.73)">BLOOD TEST SAMPLE</text></g><path class="cls-15" d="M37,31.33s-3.92-6.66-4.71-7.69-1.71-2.91-.39-4.1,3,1,4.82,3.11a29.37,29.37,0,0,0,4.92,4.8c1.4,1,2.8,1.6,3.49,3.09L37,31.33Z"/><path class="cls-16" d="M36.74,22.65a29.37,29.37,0,0,0,4.92,4.8c1.4,1,2.8,1.6,3.49,3.09M37,31.33s-1.33-2.44-2.11-3.48"/><path class="cls-2" d="M32.25,19.87c.64-.73,2.24.95,2.4,1.15s-2,1.45-2,1.45-1.47-1.39-.41-2.6Z"/><path class="cls-18" d="M25,27.41a2.94,2.94,0,1,1-5.87,0c0-1.62,2.93-6.54,2.93-6.54S25,25.79,25,27.41Z"/><path class="cls-24" d="M21.12,24.24a6,6,0,0,0-1,3.85"/><polygon class="cls-18" points="31.59 44.51 31.58 44.51 31.58 44.51 31.59 44.51"/></svg>