<svg id="Layer_1" data-name="Layer 1" xmlns="http://www.w3.org/2000/svg" viewBox="0 0 60 60"><defs><style>.cls-1,.cls-18,.cls-20,.cls-21{fill:#fff;}.cls-2{fill:#5d56d5;}.cls-3{fill:#2e2c41;}.cls-12,.cls-13,.cls-16,.cls-17,.cls-19,.cls-22,.cls-23,.cls-24,.cls-4,.cls-9{fill:none;}.cls-12,.cls-4{stroke:#fff;}.cls-13,.cls-16,.cls-17,.cls-18,.cls-19,.cls-20,.cls-21,.cls-22,.cls-23,.cls-24,.cls-4{stroke-linecap:round;stroke-linejoin:round;}.cls-4{stroke-width:0.07px;}.cls-5{fill:#d3d3f4;}.cls-6{fill:#e4636b;}.cls-7{fill:#fbb749;}.cls-8{fill:#9f9fe6;}.cls-19,.cls-9{stroke:#d3d3f4;}.cls-9{stroke-miterlimit:10;stroke-width:0.11px;}.cls-10{fill:#f94b4b;}.cls-11{fill:#fdb096;}.cls-12{stroke-miterlimit:10;stroke-width:0.1px;}.cls-13,.cls-16,.cls-17,.cls-18,.cls-20,.cls-21,.cls-22,.cls-23,.cls-24{stroke:#2e2c41;}.cls-13{stroke-width:0.04px;}.cls-14{fill:#e5e5e5;}.cls-15{fill:#fd5d5d;}.cls-16{stroke-width:0.04px;}.cls-17,.cls-18{stroke-width:0.12px;}.cls-19{stroke-width:0.11px;}.cls-20{stroke-width:0.12px;}.cls-21{stroke-width:0.12px;}.cls-22{stroke-width:0.06px;}.cls-23{stroke-width:0.06px;}.cls-24{stroke-width:0.08px;}</style></defs><title>Medication Delivery-</title><circle class="cls-1" cx="29.97" cy="30.04" r="29.79"/><path class="cls-1" d="M59.77,30a29.48,29.48,0,0,1-1.72,10,.07.07,0,0,1,0,.06s0,0,0,0a25.84,25.84,0,0,1-1.41,3.29c-.23.47-.47.94-.74,1.39-.42.75-.88,1.47-1.36,2.17a2.27,2.27,0,0,1-.18.25c-.51.73-1,1.43-1.63,2.11a25.09,25.09,0,0,1-1.79,1.92,4,4,0,0,1-.3.29A29.78,29.78,0,1,1,59.77,30Z"/><path class="cls-2" d="M6.37,38.05,1.18,6.55A1.79,1.79,0,0,1,3,4.47L21,5a1.8,1.8,0,0,1,1.71,1.5l5.25,31a1.8,1.8,0,0,1-1.77,2.09h-18a1.79,1.79,0,0,1-1.77-1.51Z"/><path class="cls-3" d="M7.33,37.25,2.14,5.75A1.79,1.79,0,0,1,4,3.67l18,.55a1.8,1.8,0,0,1,1.71,1.5l5.25,31a1.8,1.8,0,0,1-1.77,2.09H9.1a1.79,1.79,0,0,1-1.77-1.51Z"/><path class="cls-4" d="M7.35,37.18,2.16,5.67A1.8,1.8,0,0,1,4,3.59"/><path class="cls-1" d="M9.12,37.81h18a.86.86,0,0,0,.65-.3.83.83,0,0,0,.18-.68l-5.24-31a.85.85,0,0,0-.77-.7L4,4.62a.81.81,0,0,0-.66.29.8.8,0,0,0-.2.69L8.29,37.1a.84.84,0,0,0,.76.7Z"/><path class="cls-5" d="M13.71,18H7.56a.65.65,0,0,1-.62-.52L5.83,11.28a.43.43,0,0,1,.43-.53h6.15a.67.67,0,0,1,.63.53l1.11,6.15A.43.43,0,0,1,13.71,18Zm9.16,0H16.72a.65.65,0,0,1-.62-.52L15,11.28a.43.43,0,0,1,.43-.53h6.15a.66.66,0,0,1,.62.53l1.11,6.15a.42.42,0,0,1-.43.52Z"/><path class="cls-5" d="M15.3,26.76H9.15a.68.68,0,0,1-.63-.53L7.41,20.08a.44.44,0,0,1,.44-.53H14a.66.66,0,0,1,.62.53l1.11,6.15a.43.43,0,0,1-.43.53Zm9.15,0H18.3a.66.66,0,0,1-.62-.53l-1.11-6.15a.43.43,0,0,1,.44-.53h6.14a.66.66,0,0,1,.63.53l1.11,6.15a.44.44,0,0,1-.44.53Z"/><path class="cls-5" d="M16.88,35.57H10.73a.66.66,0,0,1-.62-.53L9,28.89a.43.43,0,0,1,.43-.53h6.15a.68.68,0,0,1,.63.53L17.31,35A.43.43,0,0,1,16.88,35.57Zm9.16,0H19.89a.66.66,0,0,1-.62-.53l-1.11-6.15a.43.43,0,0,1,.43-.53h6.15a.66.66,0,0,1,.62.53L26.47,35A.43.43,0,0,1,26,35.57Z"/><path class="cls-6" d="M11.7,16.51H9.26a.45.45,0,0,1-.43-.37l-.59-3.26a.3.3,0,0,1,.3-.37H11a.48.48,0,0,1,.44.37L12,16.14a.3.3,0,0,1-.3.37Z"/><path class="cls-1" d="M10.25,11.87H9a.16.16,0,0,0-.16.2l.07.44h1.64l-.08-.44A.26.26,0,0,0,10.25,11.87Z"/><path class="cls-5" d="M9.19,12.43h0a0,0,0,0,1,0,0l-.07-.35a0,0,0,0,1,0,0h0a0,0,0,0,1,0,0l.06.35S9.21,12.43,9.19,12.43Zm-.15,0H9s0,0,0,0l-.06-.35s0,0,0,0H9s0,0,0,0l.06.35S9.05,12.43,9,12.43Zm.3,0h0a0,0,0,0,1,0,0l-.06-.35s0,0,0,0h0a0,0,0,0,1,0,0l.07.35A0,0,0,0,1,9.34,12.43Zm.16,0h0s0,0,0,0l-.06-.35s0,0,0,0h0s0,0,0,0l.06.35S9.51,12.43,9.5,12.43Zm.15,0h0a0,0,0,0,1,0,0l-.07-.35a0,0,0,0,1,0,0h0a0,0,0,0,1,0,0l.06.35S9.67,12.43,9.65,12.43Zm.15,0h0a0,0,0,0,1,0,0l-.06-.35s0,0,0,0h0a0,0,0,0,1,0,0l.07.35A0,0,0,0,1,9.8,12.43Zm.16,0h0s0,0,0,0l-.06-.35s0,0,0,0h0s0,0,0,0l.06.35S10,12.43,10,12.43Zm.15,0h0a0,0,0,0,1,0,0L10,12.05a0,0,0,0,1,0,0h0a0,0,0,0,1,0,0l.06.35S10.13,12.43,10.11,12.43Zm.15,0h0a0,0,0,0,1,0,0l-.07-.35a0,0,0,0,1,0,0h0a0,0,0,0,1,0,0l.07.35A0,0,0,0,1,10.26,12.43Zm.16,0h0s0,0,0,0l-.06-.35s0,0,0,0h0s0,0,0,0l.06.35S10.43,12.43,10.42,12.43Z"/><polygon class="cls-2" points="11.28 15.71 9.35 15.71 9.09 14.27 11.02 14.27 11.28 15.71"/><polygon class="cls-2" points="10.95 13.63 8.95 13.63 9 13.95 10.99 13.95 10.95 13.63"/><polygon class="cls-1" points="10.46 15.39 10.09 15.39 9.91 14.43 10.29 14.43 10.46 15.39"/><polygon class="cls-1" points="9.81 15.07 9.75 14.75 10.57 14.75 10.63 15.07 9.81 15.07"/><path class="cls-1" d="M20.09,17.06l-2.95-1a.22.22,0,0,1-.15-.24l.73-4a.16.16,0,0,1,.22-.11l2.95,1a.22.22,0,0,1,.15.24l-.74,4A.15.15,0,0,1,20.09,17.06Z"/><path class="cls-1" d="M18.92,12.9l-.67-.23a.19.19,0,0,1-.13-.2h0a.13.13,0,0,1,.19-.1l.66.23a.18.18,0,0,1,.13.2h0A.13.13,0,0,1,18.92,12.9Z"/><path class="cls-2" d="M18.54,12.79l-.34-.12a.18.18,0,0,1-.13-.2h0a.13.13,0,0,1,.18-.1l.34.12-.05.3Z"/><path class="cls-1" d="M18.78,13.65l-.67-.22a.21.21,0,0,1-.13-.21h0a.14.14,0,0,1,.19-.09l.66.22a.21.21,0,0,1,.14.21h0A.14.14,0,0,1,18.78,13.65Z"/><path class="cls-2" d="M18.38,13.54,18,13.43a.19.19,0,0,1-.13-.21h0a.13.13,0,0,1,.18-.09l.34.11-.05.3Z"/><path class="cls-1" d="M18.64,14.41,18,14.18a.2.2,0,0,1-.14-.21h0a.14.14,0,0,1,.19-.09l.66.23a.2.2,0,0,1,.14.2h0A.14.14,0,0,1,18.64,14.41Z"/><path class="cls-2" d="M18.38,14.29,18,14.18a.19.19,0,0,1-.13-.21h0a.13.13,0,0,1,.18-.09l.34.11-.05.3Z"/><path class="cls-1" d="M18.5,15.16l-.66-.23a.18.18,0,0,1-.13-.2h0a.13.13,0,0,1,.18-.1l.67.23a.19.19,0,0,1,.13.2h0A.13.13,0,0,1,18.5,15.16Z"/><path class="cls-2" d="M18.22,15.05l-.34-.12a.18.18,0,0,1-.13-.2h0a.13.13,0,0,1,.18-.1l.34.12-.05.3Z"/><path class="cls-1" d="M18.36,15.91l-.66-.23a.18.18,0,0,1-.13-.2h0a.13.13,0,0,1,.18-.1l.67.23a.19.19,0,0,1,.13.21h0A.13.13,0,0,1,18.36,15.91Z"/><path class="cls-2" d="M18.06,15.8l-.34-.11a.19.19,0,0,1-.13-.21h0a.13.13,0,0,1,.18-.09l.34.11-.05.3Z"/><path class="cls-1" d="M20.27,13.36l-.66-.22a.21.21,0,0,1-.14-.21h0a.15.15,0,0,1,.19-.1l.67.23a.21.21,0,0,1,.13.21h0A.14.14,0,0,1,20.27,13.36Z"/><path class="cls-2" d="M20,13.25l-.34-.11a.19.19,0,0,1-.13-.21h0a.13.13,0,0,1,.18-.09L20,13l-.05.3Z"/><path class="cls-1" d="M20.13,14.12l-.66-.23a.19.19,0,0,1-.13-.21h0a.13.13,0,0,1,.18-.09l.67.23a.18.18,0,0,1,.13.2h0A.14.14,0,0,1,20.13,14.12Z"/><path class="cls-2" d="M19.82,14l-.34-.12a.19.19,0,0,1-.13-.21h0a.13.13,0,0,1,.18-.09l.34.11-.05.3Z"/><path class="cls-1" d="M20,14.87l-.66-.23a.18.18,0,0,1-.13-.2h0a.13.13,0,0,1,.18-.1l.67.23a.18.18,0,0,1,.13.2h0A.13.13,0,0,1,20,14.87Z"/><path class="cls-2" d="M19.66,14.76l-.34-.12a.18.18,0,0,1-.13-.2h0a.13.13,0,0,1,.18-.1l.34.12-.05.3Z"/><path class="cls-1" d="M19.86,15.62l-.67-.23a.19.19,0,0,1-.13-.2h0a.15.15,0,0,1,.19-.1l.66.23a.19.19,0,0,1,.13.21h0A.13.13,0,0,1,19.86,15.62Z"/><path class="cls-2" d="M19.5,15.51l-.34-.12a.18.18,0,0,1-.13-.2h0a.14.14,0,0,1,.18-.1l.34.12-.05.3Z"/><path class="cls-1" d="M19.72,16.37l-.66-.22a.2.2,0,0,1-.14-.21h0a.14.14,0,0,1,.19-.09l.66.22a.21.21,0,0,1,.14.21h0A.14.14,0,0,1,19.72,16.37Z"/><path class="cls-2" d="M19.34,16.26,19,16.15a.19.19,0,0,1-.13-.21h0a.13.13,0,0,1,.18-.09l.34.11-.05.3Z"/><path class="cls-1" d="M13.84,25l-2.25.88a.21.21,0,0,1-.24-.1l-2.19-4a.15.15,0,0,1,.06-.22l2.26-.87a.2.2,0,0,1,.24.1l2.19,4a.16.16,0,0,1-.07.22Z"/><path class="cls-5" d="M10.54,22a0,0,0,0,0,0,0,.31.31,0,0,1-.14.43.42.42,0,0,1-.48-.19l0,0s0,0,0,0a.31.31,0,0,1,.14-.43.42.42,0,0,1,.48.19Z"/><path class="cls-7" d="M10.48,22a0,0,0,0,1,0,0,.24.24,0,0,1-.12.35A.34.34,0,0,1,10,22.2s0,0,0,0,0,0,0,0a.24.24,0,0,1,.12-.35.35.35,0,0,1,.39.15Z"/><path class="cls-3" d="M10.48,22a0,0,0,0,1,0,0L10,22.2a0,0,0,0,1,0,0s0,0,0,0l.51-.2Z"/><path class="cls-5" d="M11,22.88v0a.31.31,0,0,1-.14.43.43.43,0,0,1-.48-.19v0a0,0,0,0,1,0,0,.3.3,0,0,1,.14-.43.43.43,0,0,1,.48.19Z"/><path class="cls-7" d="M11,22.9a0,0,0,0,0,0,0,.26.26,0,0,1-.12.35.35.35,0,0,1-.4-.15,0,0,0,0,0,0,0s0,0,0,0a.25.25,0,0,1,.12-.35.34.34,0,0,1,.39.16S11,22.89,11,22.9Z"/><path class="cls-3" d="M11,22.9a0,0,0,0,0,0,0l-.52.2v0s0,0,0,0l.51-.19Z"/><path class="cls-5" d="M11.52,23.79l0,0a.3.3,0,0,1-.15.43.41.41,0,0,1-.47-.19l0,0s0,0,0,0a.3.3,0,0,1,.14-.42.4.4,0,0,1,.48.18Z"/><path class="cls-7" d="M11.47,23.81v0a.24.24,0,0,1-.12.35A.32.32,0,0,1,11,24v0a0,0,0,0,1,0,0,.25.25,0,0,1,.12-.36.35.35,0,0,1,.39.16Z"/><path class="cls-3" d="M11.47,23.81v0L11,24v0a0,0,0,0,1,0,0l.51-.2Z"/><path class="cls-5" d="M12,24.7s0,0,0,0a.31.31,0,0,1-.14.43.43.43,0,0,1-.48-.19v0a0,0,0,0,1,0,0,.28.28,0,0,1,.14-.42.42.42,0,0,1,.48.18Z"/><path class="cls-7" d="M12,24.72v0a.24.24,0,0,1-.11.35.34.34,0,0,1-.4-.15s0,0,0,0a0,0,0,0,0,0,0,.26.26,0,0,1,.12-.36.34.34,0,0,1,.39.16S12,24.71,12,24.72Z"/><path class="cls-3" d="M12,24.72v0l-.51.2v0a0,0,0,0,0,0,0l.51-.2Z"/><path class="cls-5" d="M11.67,21.53a0,0,0,0,1,0,0,.31.31,0,0,1-.14.43.42.42,0,0,1-.48-.19v0l0,0a.3.3,0,0,1,.15-.43.41.41,0,0,1,.47.19Z"/><path class="cls-7" d="M11.61,21.55a0,0,0,0,1,0,0,.24.24,0,0,1-.12.35.34.34,0,0,1-.39-.15v0s0,0,0,0a.24.24,0,0,1,.12-.35.34.34,0,0,1,.39.16S11.61,21.54,11.61,21.55Z"/><path class="cls-3" d="M11.61,21.55a0,0,0,0,1,0,0l-.51.2v0s0,0,0,0l.51-.19A0,0,0,0,1,11.61,21.55Z"/><path class="cls-5" d="M12.16,22.44s0,0,0,0a.29.29,0,0,1-.14.43.41.41,0,0,1-.47-.19l0,0s0,0,0,0a.3.3,0,0,1,.14-.42.41.41,0,0,1,.48.18Z"/><path class="cls-7" d="M12.11,22.46a0,0,0,0,1,0,0,.26.26,0,0,1-.12.35.34.34,0,0,1-.4-.15s0,0,0,0,0,0,0,0a.27.27,0,0,1,.12-.36.35.35,0,0,1,.4.16Z"/><path class="cls-3" d="M12.11,22.46a0,0,0,0,1,0,0l-.52.2s0,0,0,0,0,0,0,0l.52-.2Z"/><path class="cls-5" d="M12.66,23.35s0,0,0,0a.31.31,0,0,1-.14.43.42.42,0,0,1-.48-.19v0l0,0a.29.29,0,0,1,.15-.42.4.4,0,0,1,.47.18Z"/><path class="cls-7" d="M12.6,23.37a0,0,0,0,1,0,0,.24.24,0,0,1-.12.35.33.33,0,0,1-.39-.15v0a0,0,0,0,0,0,0,.25.25,0,0,1,.12-.36.35.35,0,0,1,.39.16S12.6,23.36,12.6,23.37Z"/><path class="cls-3" d="M12.6,23.37a0,0,0,0,1,0,0l-.51.2v0a0,0,0,0,0,0,0l.51-.2A0,0,0,0,1,12.6,23.37Z"/><path class="cls-5" d="M13.15,24.26v0a.31.31,0,0,1-.14.43.43.43,0,0,1-.48-.19v0a.3.3,0,0,1,.14-.43.41.41,0,0,1,.48.19Z"/><path class="cls-7" d="M13.1,24.28a0,0,0,0,1,0,0,.25.25,0,0,1-.12.35.34.34,0,0,1-.4-.15s0,0,0,0,0,0,0,0a.27.27,0,0,1,.12-.36.35.35,0,0,1,.4.16Z"/><path class="cls-3" d="M13.1,24.28a0,0,0,0,1,0,0l-.52.2a0,0,0,0,0,0,0s0,0,0,0l.52-.2Z"/><path class="cls-2" d="M19.71,22.6h1.11l-.42-1.55a.28.28,0,0,0-.26-.21h-.38a.18.18,0,0,0-.19.21l.14,1.55Z"/><path class="cls-3" d="M19.74,25.8H22s-.43-1.65-.69-3a6.53,6.53,0,0,0-.21-.93c-.05-.09-.23-.15-.42-.2a2.3,2.3,0,0,0-1.22,0c-.18.05-.33.12-.35.2a7.15,7.15,0,0,0,.13.93c.21,1.3.47,3,.47,3Z"/><path class="cls-2" d="M21.27,24a.57.57,0,0,1-.57.7.87.87,0,0,1-.83-.7.57.57,0,0,1,.57-.7A.87.87,0,0,1,21.27,24Z"/><polygon class="cls-1" points="20.83 24.52 20.48 24.52 20.31 23.56 20.66 23.56 20.83 24.52"/><polygon class="cls-1" points="20.16 24.2 20.1 23.88 20.99 23.88 21.04 24.2 20.16 24.2"/><path class="cls-3" d="M19.26,22.79a3.52,3.52,0,0,1,2.08,0,6.53,6.53,0,0,0-.21-.93.82.82,0,0,0-.42-.2,2.3,2.3,0,0,0-1.22,0c-.18.05-.33.12-.35.2A8.3,8.3,0,0,0,19.26,22.79Z"/><path class="cls-1" d="M13.27,34.77H12a.5.5,0,0,1-.46-.4L11,31.56h2.08l.51,2.81a.33.33,0,0,1-.32.4Z"/><polygon class="cls-1" points="12.31 30.6 11.44 30.6 11.05 31.56 13.05 31.56 12.31 30.6"/><polygon class="cls-1" points="12.27 30.6 11.46 30.6 11.32 29.8 12.13 29.8 12.27 30.6"/><path class="cls-3" d="M12.27,30.44h-.88a.21.21,0,0,1-.2-.17L11,29.33a.14.14,0,0,1,.14-.17H12a.22.22,0,0,1,.21.17l.17.94A.14.14,0,0,1,12.27,30.44Z"/><path class="cls-1" d="M12.87,34.13h-.73a.21.21,0,0,1-.2-.18l-.37-2.05a.14.14,0,0,1,.14-.18h.73a.22.22,0,0,1,.21.18L13,34A.15.15,0,0,1,12.87,34.13Z"/><polygon class="cls-7" points="12.44 33.16 12.22 33.16 12.12 32.69 12.34 32.69 12.44 33.16"/><polygon class="cls-7" points="12.02 33.01 11.98 32.84 12.54 32.84 12.58 33.01 12.02 33.01"/><path class="cls-7" d="M15.49,34.77h-1a.39.39,0,0,1-.37-.32l-.41-2.25h1.67l.4,2.25a.25.25,0,0,1-.25.32Z"/><polygon class="cls-7" points="14.72 31.4 13.99 31.4 13.66 32.2 15.34 32.2 14.72 31.4"/><polygon class="cls-7" points="14.72 31.4 13.99 31.4 13.86 30.6 14.59 30.6 14.72 31.4"/><path class="cls-3" d="M14.7,31.08h-.76a.19.19,0,0,1-.18-.15l-.15-.82a.13.13,0,0,1,.13-.15h.76a.19.19,0,0,1,.18.15l.15.82A.13.13,0,0,1,14.7,31.08Z"/><path class="cls-1" d="M15.16,34.29h-.57a.18.18,0,0,1-.17-.15l-.3-1.63a.12.12,0,0,1,.12-.15h.58a.19.19,0,0,1,.17.15l.29,1.63A.12.12,0,0,1,15.16,34.29Z"/><polygon class="cls-7" points="14.83 33.48 14.64 33.48 14.56 33.01 14.75 33.01 14.83 33.48"/><polygon class="cls-7" points="14.48 33.33 14.45 33.16 14.91 33.16 14.95 33.33 14.48 33.33"/><path class="cls-2" d="M23.68,34.61H21.25a.47.47,0,0,1-.44-.37l-.49-2.7a.76.76,0,0,1,.77-.94H22.4a1.17,1.17,0,0,1,1.1.94l.49,2.7a.31.31,0,0,1-.31.37Z"/><polygon class="cls-2" points="22.22 29.8 21.02 29.8 21.13 30.44 22.34 30.44 22.22 29.8"/><path class="cls-3" d="M22.33,29.8H20.91a.16.16,0,0,1-.16-.13l-.1-.54a.11.11,0,0,1,.11-.13h1.43a.16.16,0,0,1,.15.13l.1.54A.11.11,0,0,1,22.33,29.8Z"/><polygon class="cls-2" points="23.27 33.65 21.34 33.65 21.08 32.2 23.01 32.2 23.27 33.65"/><polygon class="cls-1" points="22.45 33.33 22.07 33.33 21.9 32.37 22.27 32.37 22.45 33.33"/><polygon class="cls-1" points="21.79 33.01 21.73 32.69 22.55 32.69 22.61 33.01 21.79 33.01"/><polygon class="cls-8" points="9.67 6.81 5.79 6.65 2.93 4.3 6.82 4.47 9.67 6.81"/><polygon class="cls-5" points="10.7 4.63 13.55 6.97 9.67 6.81 6.82 4.47 10.7 4.63"/><polygon class="cls-8" points="17.53 7.23 13.54 7.07 13.54 7.07 10.6 4.66 14.59 4.82 14.59 4.82 17.53 7.23"/><polygon class="cls-5" points="21.31 7.3 17.43 7.13 14.58 4.79 18.45 4.96 21.31 7.3"/><polygon class="cls-8" points="25.2 7.46 21.31 7.3 18.45 4.96 22.33 5.12 25.2 7.46"/><path class="cls-2" d="M7.65,8.94h0A1.92,1.92,0,0,1,5.73,7V6.65l3.84.15V7A1.92,1.92,0,0,1,7.65,8.94Z"/><path class="cls-8" d="M11.65,9.11h0A1.92,1.92,0,0,1,9.73,7.18V6.81L13.57,7v.19a1.93,1.93,0,0,1-1.93,2Z"/><path class="cls-2" d="M15.5,9.27h0a1.92,1.92,0,0,1-1.93-1.92V7l3.85.15v.19A1.92,1.92,0,0,1,15.5,9.27Zm7.68.32h0a1.92,1.92,0,0,1-1.92-1.92V7.3l3.84.15v.19a1.91,1.91,0,0,1-1.92,2Z"/><path class="cls-8" d="M19.34,9.43h0a1.92,1.92,0,0,1-1.92-1.92V7.14l3.84.15h0a1.87,1.87,0,0,1-1,1.7Z"/><ellipse class="cls-3" cx="20.77" cy="51.6" rx="5.91" ry="5.37" transform="translate(-33.76 62.58) rotate(-79.45)"/><ellipse class="cls-3" cx="22.09" cy="51.47" rx="5.91" ry="5.37" transform="translate(-32.55 63.77) rotate(-79.45)"/><path class="cls-9" d="M18.33,55.83a6,6,0,0,1-1.51-5.34,5.65,5.65,0,0,1,6.35-4.83"/><ellipse class="cls-1" cx="22.15" cy="51.4" rx="3.3" ry="3.01" transform="translate(-32.44 63.76) rotate(-79.45)"/><ellipse class="cls-5" cx="22.26" cy="51.32" rx="2.3" ry="2.1" transform="translate(-32.26 63.81) rotate(-79.45)"/><ellipse class="cls-1" cx="22.4" cy="51.21" rx="1.12" ry="1.02" transform="translate(-32.05 63.85) rotate(-79.45)"/><path class="cls-9" d="M26.12,52a2.91,2.91,0,0,1,0,.31A3.88,3.88,0,0,1,22,55.7"/><path class="cls-5" d="M22.15,50.62a6.8,6.8,0,0,0,1.14-4.74l1.58.28a9.62,9.62,0,0,1-.62,3.61,3.23,3.23,0,0,1-1.55,1.76s-.69.27-.74-.32a.82.82,0,0,1,.19-.59Z"/><path class="cls-8" d="M39.09,29.86s-2.46.81-5.44,1.6-4.56,1.43-5.32,3.3,8.77,9.48,8.77,9.48l2.26-2.07L35.08,37l10.2-8.19-6.19,1.06Z"/><path class="cls-3" d="M54.57,46.65l-.06.29a2.27,2.27,0,0,1-.18.25c-.51.73-1,1.43-1.63,2.11a25.09,25.09,0,0,1-1.79,1.92,5.14,5.14,0,0,1-1,.28h0a4.94,4.94,0,0,1-1.67,0,5,5,0,0,1-3.13-2,3.52,3.52,0,0,1-.3-.45,4.4,4.4,0,0,1-.38-.75,6,6,0,0,1-.45-3,3.57,3.57,0,0,1,.07-.56s0-.07,0-.1a4.92,4.92,0,0,1,.14-.55,5.88,5.88,0,0,1,3.67-4,4.83,4.83,0,0,1,2.07-.26h0a3.18,3.18,0,0,1,.43.06,4.85,4.85,0,0,1,1.79.72h0l.3.21a3.54,3.54,0,0,1,.58.52,1.17,1.17,0,0,1,.21.23,2.75,2.75,0,0,1,.22.26l.24.34.15.25a5.74,5.74,0,0,1,.66,1.73A6.32,6.32,0,0,1,54.57,46.65Z"/><path class="cls-3" d="M55.87,44.77c-.42.75-.88,1.47-1.36,2.17a2.27,2.27,0,0,1-.18.25c-.51.73-1,1.43-1.63,2.11a25.09,25.09,0,0,1-1.79,1.92,4,4,0,0,1-.3.29,4.33,4.33,0,0,1-.72,0h0a3.32,3.32,0,0,1-.44-.06,5,5,0,0,1-2.81-1.6,2.6,2.6,0,0,1-.3-.36,4.52,4.52,0,0,1-.39-.58,4.66,4.66,0,0,1-.25-.5,1,1,0,0,1-.07-.15,2.44,2.44,0,0,1-.1-.24l-.12-.34a.36.36,0,0,1,0-.1,2.37,2.37,0,0,1-.11-.46.85.85,0,0,1,0-.17,4.46,4.46,0,0,1-.07-.51c0-.12,0-.25,0-.37a4.61,4.61,0,0,1,0-.74,5.25,5.25,0,0,1,.08-.68,6.29,6.29,0,0,1,1.47-3,5.48,5.48,0,0,1,3.21-1.82h0a4.88,4.88,0,0,1,1.66,0,5.06,5.06,0,0,1,1,.28,3,3,0,0,1,.51.25,2.33,2.33,0,0,1,.34.2,4.56,4.56,0,0,1,.65.51,1.45,1.45,0,0,1,.22.21h0a5.66,5.66,0,0,1,1.39,2.46A5.79,5.79,0,0,1,55.87,44.77Z"/><path class="cls-9" d="M46.75,50a6.09,6.09,0,0,1-1.51-5.34,5.67,5.67,0,0,1,6.36-4.83"/><ellipse class="cls-1" cx="50.58" cy="45.55" rx="3.3" ry="3.01" transform="translate(-3.47 86.93) rotate(-79.45)"/><ellipse class="cls-5" cx="50.69" cy="45.47" rx="2.3" ry="2.1" transform="translate(-3.3 86.98) rotate(-79.45)"/><ellipse class="cls-1" cx="50.82" cy="45.37" rx="1.12" ry="1.02" transform="translate(-3.09 87.02) rotate(-79.45)"/><path class="cls-9" d="M50.41,49.86a3.57,3.57,0,0,0,2.29-.56"/><path class="cls-9" d="M54.33,47.19a4.5,4.5,0,0,0,.18-.68c0-.11,0-.21,0-.32"/><path class="cls-5" d="M50.63,45.82a6.8,6.8,0,0,0-4.79.91l-.39-1.55A9.47,9.47,0,0,1,49,44.26a3.22,3.22,0,0,1,2.25.68s.52.52,0,.81A.84.84,0,0,1,50.63,45.82Z"/><path class="cls-3" d="M53.48,38.61l-1.73-1.32h0l-2-1.48-.11-.08L39.52,37.31s.14.32.33.83a11.45,11.45,0,0,1,.81,5.29h0a2.26,2.26,0,0,1-.15.54h0s0,.09,0,.13a.31.31,0,0,1-.05.1.08.08,0,0,1,0,0,3.19,3.19,0,0,1-.32.43s0,0,0,0a2.41,2.41,0,0,1-.37.33h0a5.28,5.28,0,0,1-.84.54l-.26.13h0a12.38,12.38,0,0,1-1.69.64l-.2.06c-.75.22-1.52.4-2.23.54l-.19,0c-.3.06-.59.1-.85.14h0a7.74,7.74,0,0,1-1.84.12c-.86-.16-1.94-4.1-1.61-6.7.1-.79.23-1.66.35-2.49.29-1.94.58-3.68.58-3.68l-.05,0-2,1.18-.14.41-1.28,3.78-.57,1.68.13.43,2.34,8,.52,1.79,1.4-.07h0l6.57-.31,7-2.3.53-.17.38-.46,1.89-2.29.11-.13.24-.29.17-.21.62-.75.38-.47,0,0,.12-.14.52-.64h0l1-1.18.07-.08h0l.3-.35.72-.87.3-.37h0l.4-.48,1.11-1.34ZM56,36.73a1.7,1.7,0,0,0-1-.07,4.2,4.2,0,0,0-.65.13l.57,1,0,0L55.71,39l.34.57.18.3a8.35,8.35,0,0,0,.84-.33,2.68,2.68,0,0,0,.38-.19l0,0q.09-.08.09-.12A8.69,8.69,0,0,0,56,36.73Z"/><path class="cls-10" d="M52.32,34.11s1.93.83,3.87,4.39c1.08,2-7.1,5.66-7.1,5.66l-1.73,1a11.06,11.06,0,0,1-7-1,.61.61,0,0,0,.07-.14c1-2.32-.94-6.81-.94-6.81l12.85-3.12Z"/><polygon class="cls-11" points="39.28 42.46 39.17 42.34 37.31 44.03 37.48 44.26 38.7 44.46 39.82 43.28 39.28 42.46"/><path class="cls-1" d="M36.2,48.06a.9.9,0,0,0,1.39.17,7.72,7.72,0,0,0,1.78-1.67,4.48,4.48,0,0,1,1-1.17c.48-.36,1.1-.58,1.13-1s-.6-.71-.6-.71l-2.46,2.19L36.2,48.06Z"/><path class="cls-6" d="M37.48,44.21a20.14,20.14,0,0,1-.64,2.23c-.27.66-1,1.05-.64,1.58s1.66-.77,2.39-1.55,1-1.58,1.54-1.82.81-.85.72-1a7.15,7.15,0,0,0-1.57-1.21s.16.29-.61,1a3,3,0,0,1-1.19.79Z"/><path class="cls-5" d="M37.42,46,37,45.87s-.06,0-.08,0h0A.08.08,0,0,0,37,46l.37.12a.06.06,0,0,0,.08,0v0A.07.07,0,0,0,37.42,46Zm.08-.36-.36-.12h0a.06.06,0,0,0-.08,0v0a.07.07,0,0,0,0,.08h0l.36.11s.06,0,.08,0h0A.08.08,0,0,0,37.5,45.63Zm.11-.39-.36-.12h0a.06.06,0,0,0-.08,0v0a.07.07,0,0,0,0,.08h0l.36.11a.07.07,0,0,0,.08,0v0A.05.05,0,0,0,37.61,45.24Zm.11-.39-.37-.12a.05.05,0,0,0-.08,0h0a.07.07,0,0,0,.05.09h0l.36.12a.07.07,0,0,0,.08,0v0A.07.07,0,0,0,37.72,44.85Z"/><path class="cls-3" d="M38.93,32.86c-.69.16-2.79,4.17-1.74,5s6.68-.31,9.41-1S53.81,34.2,54,33s-.81-2.33-1.51-2.27-3.88,1.05-7.39,1.5-5.54.52-6.13.66Z"/><polygon class="cls-3" points="29.04 32.99 30.36 29.71 26.77 28.42 25.6 31.39 29.04 32.99"/><path class="cls-8" d="M49.44,15.36s-7.12-.22-7.83,0a13.69,13.69,0,0,0-2,.82l6.94.74,2.89-1.53Z"/><path class="cls-3" d="M44.8,16.16,38.88,16l3.49,16.47s5.81-.59,6.65-.87.54-7.37.54-7.37L46.12,17a1.51,1.51,0,0,0-1.32-.86Z"/><path class="cls-8" d="M49.44,15.36s.52-.09.91,1.25,0,2.23-.28,2.35-1-2.24-1-2.24l.36-1.36Z"/><path class="cls-8" d="M49,31.56a36.18,36.18,0,0,0,3.73-1c.11-.17-3.24-15.28-3.24-15.28l-3.79.81L49,31.56Z"/><rect class="cls-1" x="46.66" y="18.17" width="3.02" height="0.76" rx="0.28" transform="translate(-2.82 10.53) rotate(-12.12)"/><rect class="cls-3" x="47.51" y="22.33" width="3.75" height="0.93" rx="0.23" transform="translate(-3.69 10.88) rotate(-12.12)"/><rect class="cls-12" x="49.18" y="22.06" width="0.88" height="1.44" rx="0.19" transform="translate(-3.68 10.93) rotate(-12.12)"/><rect class="cls-3" x="48.79" y="28.31" width="3.75" height="0.93" rx="0.23" transform="translate(-4.91 11.28) rotate(-12.12)"/><rect class="cls-12" x="50.45" y="28.01" width="0.88" height="1.44" rx="0.19" transform="translate(-4.9 11.33) rotate(-12.12)"/><rect class="cls-7" x="36.52" y="16.38" width="3.92" height="0.55" transform="translate(-2.64 8.45) rotate(-12.12)"/><path class="cls-13" d="M40.33,16l4.67.18a.83.83,0,0,1,.79.66L49,31.62"/><polyline class="cls-13" points="45.73 16.72 49.56 15.9 50.06 18.25"/><path class="cls-14" d="M33.75,22.93,33,25.36a15.92,15.92,0,0,1-6.16.78l0,2.35s6.46.65,8.25-.11c1.33-.56,2-5.5,2-5.5l-2.43-2.4-.88,2.45Z"/><path class="cls-15" d="M34.87,19.41a5.52,5.52,0,0,0-1,2.3c-.17.65-.61,2.6-.61,2.6a6.48,6.48,0,0,0,3.53,1.07l1.46-4.05-3.39-1.92Z"/><polygon class="cls-11" points="38.59 44.96 37.98 40.95 34.59 41.24 35.69 45.41 36.68 46.43 38.53 46.09 38.59 44.96"/><path class="cls-1" d="M31.83,48.09s-.09,1.09,1.19,1.1a9.07,9.07,0,0,0,2.79-.34,4.71,4.71,0,0,1,1.68-.45c.69,0,1.42.21,1.73-.17s-.07-1.07-.07-1.07l-3.78.37-3.54.55Z"/><path class="cls-6" d="M35.67,45.41a25.51,25.51,0,0,1-2.11,1.64c-.7.43-1.68.27-1.68,1s2.07.41,3.28.19,2-.79,2.68-.66,1.34-.24,1.37-.45a8.42,8.42,0,0,0-.64-2.2s0,.37-1.25.52a3.43,3.43,0,0,1-1.65-.07Z"/><path class="cls-5" d="M34.45,47v0l-.25-.35a.08.08,0,0,0-.11,0h0a.07.07,0,0,0,0,.1l.2.28.06.09a.09.09,0,0,0,.11,0v0A.07.07,0,0,0,34.45,47Zm.32-.27-.26-.35v0a.08.08,0,0,0-.1,0l0,0a.07.07,0,0,0,0,.1v0l.25.35a.08.08,0,0,0,.11,0h0A.07.07,0,0,0,34.77,46.71Zm.37-.3-.26-.35h0a.08.08,0,0,0-.1,0h0a.08.08,0,0,0,0,.11v0l.26.35a.07.07,0,0,0,.1,0h0A.08.08,0,0,0,35.14,46.41Zm.37-.29-.26-.36a.09.09,0,0,0-.11,0v0a.07.07,0,0,0,0,.1h0l.25.36a.08.08,0,0,0,.11,0h0S35.53,46.16,35.51,46.12Z"/><path class="cls-8" d="M47.84,33.45a5.67,5.67,0,0,1-4.65,2.19,27.59,27.59,0,0,0-5.56.58l1,7.75a5.65,5.65,0,0,1-3.71.18s-2-8.54-1.23-10.74,7.23-3.77,7.23-3.77l4.12-.26,1.87,2.28.91,1.78Z"/><path class="cls-13" d="M34.88,44.15s-2-8.54-1.23-10.73,7.23-3.78,7.23-3.78"/><path class="cls-15" d="M40.79,17s2.85-.37,4.37,1.24S48,25.66,48,28.47s-.11,5.08-.11,5.08-3.11-3.65-5.44-3.73a23.06,23.06,0,0,0-3.34,0,19.8,19.8,0,0,0-1.9-4.81,32.22,32.22,0,0,1-2.39-5.64l2.28-1.7S38,19,38.87,18.8c.53-.13,1.92-1.82,1.92-1.82Z"/><path class="cls-16" d="M36.91,24.61a23.07,23.07,0,0,1-1.38-3.13"/><path class="cls-3" d="M38.15,26.83c-.16-.69-.47-1.93-.78-3h0c-.13-.44-.26-.84-.38-1.18a15.07,15.07,0,0,1-.53-2.31c-.14-.86-.22-1.62-.25-1.91a1.09,1.09,0,0,1,0-.12l-.53.42a.51.51,0,0,0,0,.09c0,.19.09.64.17,1.18s.24,1.44.36,2.08c.05.19.08.37.12.52a13.57,13.57,0,0,0,.51,1.52c.07.19.14.37.22.55s.09.22.13.33,0,0,0,0c.27.63.5,1.1.5,1.1s.14,1.07.56,1.24C38.27,27.34,38.22,27.14,38.15,26.83Zm10.06,2.48a1.27,1.27,0,0,1-.18-.06,6.73,6.73,0,0,1-2-1h0a8.15,8.15,0,0,1-2.32-2.69c-.07-.12-.13-.25-.19-.38h0a14.08,14.08,0,0,1-1.22-3.58,5.16,5.16,0,0,1,1-4.45l.13-.15-.46-.16a1.26,1.26,0,0,0-.2.2c-1.94,2-1.37,5.59.25,8.69l0,.07a8.61,8.61,0,0,0,2.44,2.79A11.89,11.89,0,0,0,48,30.1l.28.11Z"/><path class="cls-10" d="M48.64,43.49s-.68,3.73-2.48,5.24-4.3,2-6.65,2.6A26.85,26.85,0,0,1,34,52.46a10.94,10.94,0,0,1-2.82-.2A8.78,8.78,0,0,1,30.08,52c-3.66-1.21-3.47-4.52-4.63-6.68-1-1.83-4.44-2.77-5.46-3l-.28-.06a24.44,24.44,0,0,1,1.64-6.82c1.27-2.62,2.92-4.11,3.7-4.32a4.75,4.75,0,0,1,2.12.25s3.6,1,3.64,3-2.51,5-2.14,7.77.1,7.76,4.57,8.43,12.6-1.64,13.85-4.71,1.11-2.52,1.11-2.52l.44.22Z"/><path class="cls-3" d="M34,52.38a10.94,10.94,0,0,1-2.82-.2,9.43,9.43,0,0,1-1.1-.29c-3.65-1.21-3.46-4.52-4.62-6.68-1-1.83-4.44-2.77-5.46-3v-.12s4.68.06,6.59,2.86c1.67,2.43,2,7.15,7.41,7.44Z"/><path class="cls-10" d="M19.76,42.29s-1.91,0-4.29,2.41a5.88,5.88,0,0,0-1.89,4s2.47,1.53,4.55.36,4-3.35,6-2.13a14.21,14.21,0,0,1,3.66,3.77s-.42-4.44-2.25-6.24a8.78,8.78,0,0,0-5.76-2.16Z"/><path class="cls-17" d="M27.77,50.61s-.42-4.43-2.25-6.23a8.74,8.74,0,0,0-5.76-2.16"/><path class="cls-10" d="M58.05,40a.07.07,0,0,1,0,.06s0,0,0,0a25.84,25.84,0,0,1-1.41,3.29c-.28.12-.59.23-.93.35s-.73.26-1.15.39l-1.08.34-.66.18-.1,0-.92.23L51.3,45c-.51.12-1,.23-1.49.32s-.84.17-1.23.23l-.55.1-.1,0-.38.06-.48.07L45.66,46l-.52.06-.63.06a3.46,3.46,0,0,1-.25-.84A5.68,5.68,0,0,1,44.18,44h0a7,7,0,0,1,.58-2.54c1.09-2.6,4.15-4,6.6-4.18l.38,0h.73l.55.05a8.13,8.13,0,0,1,1.93.39,7.65,7.65,0,0,1,1.08.48,6,6,0,0,1,1.46,1.12A5.76,5.76,0,0,1,58.05,40Z"/><path class="cls-17" d="M44.24,45.37a.69.69,0,0,1-.05-.1,2.31,2.31,0,0,1-.15-.69h0a6.82,6.82,0,0,1,.66-3.08c1.1-2.62,4.2-4,6.66-4.18l.38,0h.73l.55.05a7.58,7.58,0,0,1,1.95.43,5.78,5.78,0,0,1,1.09.5,5.65,5.65,0,0,1,1.39,1.09,5.22,5.22,0,0,1,.57.71s0,0,0,0"/><path class="cls-10" d="M26.38,25.62a5.21,5.21,0,0,1,2.91-.42,3.83,3.83,0,0,1,2.34,1.6c.5.44,3.18,1.36,3.5,1.89s.21,2.5-1.51,2.36-2.75-.86-3.87-.85-2.93.32-3.73-.09.36-4.49.36-4.49Z"/><ellipse class="cls-3" cx="33.9" cy="29.58" rx="0.71" ry="0.4" transform="translate(-2.18 56.46) rotate(-77.79)"/><polygon class="cls-3" points="37.63 30.96 33.74 30.28 34.04 28.88 37.87 29.87 37.63 30.96"/><ellipse class="cls-3" cx="37.75" cy="30.41" rx="0.56" ry="0.4" transform="translate(0.04 60.88) rotate(-77.79)"/><polygon class="cls-3" points="23.22 27.43 27.05 28.42 27.35 27.02 23.46 26.34 23.22 27.43"/><path class="cls-11" d="M25.54,26.17s-1.21-.46-1.55.4-.25,1.85.54,2,1-2.41,1-2.41Z"/><ellipse class="cls-3" cx="23.34" cy="26.89" rx="0.56" ry="0.4" transform="translate(-7.87 44.01) rotate(-77.79)"/><circle class="cls-3" cx="30.66" cy="29.17" r="0.51"/><path class="cls-3" d="M27.73,28.15c-.27,1.24-1.12,2.1-1.91,1.93a.7.7,0,0,1-.28-.12,2.28,2.28,0,0,1-.66-2.43c.26-1.2,1.08-2.05,1.85-1.93h.06c.79.16,1.21,1.3.94,2.54Z"/><path class="cls-18" d="M27.38,28c-.26,1.2-1.08,2.06-1.84,1.94a2.27,2.27,0,0,1-.66-2.42c.26-1.21,1.08-2.06,1.85-1.94A2.25,2.25,0,0,1,27.38,28Z"/><path class="cls-11" d="M36.55,31.08c0-.21.16-.41.77-.88a4.61,4.61,0,0,0,.85-1.11l-1-.72a2.58,2.58,0,0,0-1.19.09c-.47.18-1.1.42-1.27.79-.28.61-.54,1.42-.3,1.52s.6-.61.6-.61-.12.42.1.57a.56.56,0,0,0,.52,0c.07.32.48.25.48.25.07.28.44.32.48.14Z"/><polygon class="cls-11" points="39.1 27.45 36.18 28.5 37.31 30.09 40.8 29.3 40.25 27.68 39.1 27.45"/><path class="cls-16" d="M36.07,31a.16.16,0,0,1,0,0,.51.51,0,0,1,.05-.2.13.13,0,0,1,0-.06,1.36,1.36,0,0,1,.23-.39m-.78.43v0h0s0-.05,0-.08a1.56,1.56,0,0,1,.24-.67m-.88.27a1.57,1.57,0,0,1,.29-.56h0l.1-.12"/><path class="cls-19" d="M46.35,45.26s-.62-3.5,1.5-5.21,6.5-2.12,9.7-.23"/><rect class="cls-3" x="49.61" y="40.66" width="4.53" height="0.28" transform="translate(-8.66 14.51) rotate(-14.71)"/><rect class="cls-3" x="49.86" y="41.56" width="4.53" height="0.28" transform="translate(-8.88 14.6) rotate(-14.71)"/><rect class="cls-3" x="50.18" y="42.48" width="4.53" height="0.28" transform="translate(-9.1 14.71) rotate(-14.71)"/><path class="cls-17" d="M16.32,48.38A6.83,6.83,0,0,1,18,46.31c2.05-1.79,4-2.13,5.69-1.35a13,13,0,0,1,2.14,1.24l.1.08a6.85,6.85,0,0,1,1.11,1h0s0,0,0,0l0,.06M28,31.7l-.32.65c-.81,1.6-2.87,5.76-3.81,8-.34.79-2.23.35-2.46-.48s.81-3.43,1.71-5.09,2.33-3.73,2.33-3.73"/><ellipse class="cls-20" cx="26.74" cy="40.87" rx="1.4" ry="0.61" transform="matrix(0.28, -0.96, 0.96, 0.28, -20.02, 55)"/><ellipse class="cls-21" cx="20.36" cy="39.12" rx="1.4" ry="0.35" transform="translate(-22.17 50.77) rotate(-77.82)"/><path class="cls-17" d="M28.69,30a3.14,3.14,0,0,0,.71-2"/><path class="cls-6" d="M40.33,16.35l-.22.79a.51.51,0,0,0,.31.27c.24.07.39.12.37,0s0-.57,0-.62a1.94,1.94,0,0,0,0-.33l-.45-.14Z"/><polygon class="cls-11" points="39.88 14.69 40.66 17.24 38.68 19.19 37.59 18.61 37.04 15.29 39.88 14.69"/><path class="cls-6" d="M38.71,19.29l-.12-.12a5.43,5.43,0,0,1-1.1-1.27c-.23-.49-.35-1,.16-1l0-.1s-.43,0-.58.29l-.16.29a.46.46,0,0,1-.14.14h0a.91.91,0,0,0-.38.37,2.71,2.71,0,0,0,.24,1.23A1.55,1.55,0,0,0,37.2,19l.23-.06.21-.09,0,.3a2.33,2.33,0,0,1,.88.25.5.5,0,0,1,.12.08l.1-.18Z"/><path class="cls-5" d="M36.79,17.48A3.16,3.16,0,0,0,37.24,19l.23-.06a3.08,3.08,0,0,1-.5-1.6.27.27,0,0,1-.13.13l-.05,0Z"/><path class="cls-16" d="M36.42,17.85a1.3,1.3,0,0,0,0,.39c0,.36.15.82.23.84h.12a.32.32,0,0,0,.13,0l.14,0a.65.65,0,0,0,.19,0h0l.22-.06h0l.16-.07,0,0,0,.3h.14a2,2,0,0,1,.74.23h0a.15.15,0,0,1,.07.05l0,0a1.74,1.74,0,0,1,.11-.18M37.54,17.9a2.44,2.44,0,0,1-.1-.24,0,0,0,0,1,0,0v0a1.06,1.06,0,0,1-.07-.44h0a.35.35,0,0,1,.35-.31"/><path class="cls-6" d="M41.24,18.43a1.75,1.75,0,0,1-.58-.12l-.22-.09a.83.83,0,0,1-.21-.1v.31a1.92,1.92,0,0,0-1.07.3,7,7,0,0,0-.8,1.27,2.88,2.88,0,0,1,.73-1.47,6.85,6.85,0,0,0,1.35-1.34c.26-.47.45-.67-.05-.77l0-.11a.47.47,0,0,1,.45.13c.09.12.18.16.22.23a.34.34,0,0,0,.12.14l0,0c.13.06.37.16.41.28a3.09,3.09,0,0,1-.38,1.32Z"/><path class="cls-5" d="M41.22,16.83a3.12,3.12,0,0,1-.55,1.48l-.23-.08a3,3,0,0,0,.61-1.56.28.28,0,0,0,.12.14l0,0Z"/><path class="cls-16" d="M38.36,20a7.23,7.23,0,0,1,.81-1.28,1.92,1.92,0,0,1,1.07-.3v-.31a.83.83,0,0,0,.21.1l.22.09a1.49,1.49,0,0,0,.58.12"/><path class="cls-11" d="M35.77,15.23c.33,1.32.88,2.64,2.16,2.43.9-.16,1.74-1.42,1.92-2.56A9.79,9.79,0,0,0,40,13.6c0-.3,0-.5,0-.5l-.23-.66-.14-.39L39,11.57c-.4-.33-1,.16-1,.14s-1.82-.26-2.38.47h0a.82.82,0,0,0-.12.2.51.51,0,0,0,0,.17c0,.11,0,.28,0,.49a2.64,2.64,0,0,1,0,.29c0,.17,0,.36.06.56a9.77,9.77,0,0,0,.23,1.33Z"/><path class="cls-3" d="M36.37,10.66s-1.34,2.73-.75,2.68a3.23,3.23,0,0,0,1.3-.64s.37.61,1.09-.36c0,0,0,.42.87,1,.47.33.44,1.3.44,1.3l.22,0s-.07-.95.24-1.07.36,1.07.36,1.07.76-3.31-.83-3.1c0,0-1.22-2.12-2.93-.83Z"/><path class="cls-11" d="M39.8,15.07c.52-.24.71-1.57.29-1.72s-.53.35-.53.35l.24,1.37Z"/><path class="cls-22" d="M39.78,14.41s-.09-.67.1-.73.23.19.23.19"/><path class="cls-22" d="M39.77,13.94s.08-.21.23-.09"/><path class="cls-23" d="M37.66,17.62l.27,0a2.46,2.46,0,0,0,1.55-1.44"/><path class="cls-3" d="M33.91,14s.54.26,2.07-1.3l-1,0L34.3,13,34,13.4l-.09.39,0,.25Z"/><path class="cls-6" d="M34.92,12.59a2,2,0,0,0-1,.86.56.56,0,0,0,0,.59,1.09,1.09,0,0,1,1-1.22c1.15-.19,1.81.52,2.57.53s1.68-1,1.68-1a9.83,9.83,0,0,0-.81-1.05c-.06,0-2.89.26-2.91.3s-.32.74-.32.74l-.2.27Z"/><path class="cls-6" d="M34.92,12.51A2.7,2.7,0,0,1,37.4,9.67c2.71-.25,2.94,2.9,2.94,2.9a2.39,2.39,0,0,0-1.18-.32,3.93,3.93,0,0,0-4.24.26Z"/><path class="cls-24" d="M38.89,12.19a3.9,3.9,0,0,0-3.75.24"/><path class="cls-14" d="M43.15,22.68s.51,2.85.27,2.94c-1.46.55-5.66,2.25-5.66,2.25a2.33,2.33,0,0,1,.9,2s5.92.08,8.11-2.22c.68-.73-.07-5.23-.07-5.23l-2.32-.28Z"/><path class="cls-15" d="M43.12,18.6s-.84.43-.46,2.55.46,2.34.46,2.34,2.38-1.3,3.8-.24a15,15,0,0,0-1.1-3.9,1.76,1.76,0,0,0-2.7-.75Z"/><path class="cls-16" d="M43.12,18.6s-.84.43-.46,2.55.46,2.34.46,2.34"/><path class="cls-16" d="M43.42,25.62a1.77,1.77,0,0,1,1.72.41"/><line class="cls-19" x1="25.15" y1="32.47" x2="26.59" y2="32.93"/><line class="cls-19" x1="24.54" y1="33.77" x2="25.98" y2="34.23"/><line class="cls-19" x1="23.73" y1="35.16" x2="25.17" y2="35.62"/><line class="cls-19" x1="22.99" y1="36.72" x2="24.43" y2="37.18"/><line class="cls-19" x1="22.31" y1="38.37" x2="23.75" y2="38.83"/></svg>