<svg id="Layer_1" data-name="Layer 1" xmlns="http://www.w3.org/2000/svg" viewBox="0 0 582.13 529.02"><defs><style>.cls-1,.cls-26{fill:#fff;}.cls-2{fill:#944534;}.cls-3{fill:#f1404c;}.cls-4{fill:#c31e21;}.cls-5{fill:#f1f1f1;}.cls-6{fill:#e5e5e5;}.cls-31,.cls-7{fill:#4b3333;}.cls-8{fill:#6d4e4e;}.cls-9{fill:#8e6b68;}.cls-10,.cls-11{fill:#694043;}.cls-11,.cls-29,.cls-31,.cls-36{opacity:0.5;}.cls-12{fill:#333;}.cls-13{fill:#d5ebf4;}.cls-14{fill:#1a1a1a;}.cls-15{fill:#b4dbe5;}.cls-16{fill:#666;}.cls-17{fill:#d99b2b;}.cls-18{fill:#5ab7af;}.cls-19{fill:#298c80;}.cls-20{fill:#aec0d3;}.cls-21{fill:#91a9bc;}.cls-22{fill:#823500;}.cls-23{fill:#fd5d5d;}.cls-24{fill:#2e2e2e;}.cls-25{fill:#d26a75;}.cls-26{fill-rule:evenodd;}.cls-27{fill:#ed9262;}.cls-28,.cls-29{fill:#373248;}.cls-29,.cls-31,.cls-36{isolation:isolate;}.cls-30,.cls-36{fill:#e28152;}.cls-32{opacity:0.16;}.cls-33{fill:#9f9fe6;}.cls-34{fill:#713535;}.cls-35{fill:#3d54a5;}</style></defs><title>medicine delivery </title><path class="cls-1" d="M78.22,444.22S15,358.07,30.36,306.88s107-59.1,114.45-83.65-57-87.4-11.66-146.08,172.71-10,203.51,4.58,50.77,11.24,58.68,2.5S523.1,77.15,523.1,77.15L497.72,463.36Z"/><path class="cls-1" d="M58.86,429.19c-1-2.93-2.73-5.29-4.36-7.87q-2.61-4.14-5-8.41c-3-5.25-5.73-10.63-8.32-16.08-5.31-11.16-10.11-22.64-14.35-34.25-4-10.83-6.95-22-6.85-33.62a77.84,77.84,0,0,1,6.39-30.07,89.1,89.1,0,0,1,19.82-28.68c1.48-1.43-.53-4.21-2.25-2.92-17.68,13.26-28,34.09-29.94,55.94-1.05,11.85.89,23.58,4.47,34.87a340.37,340.37,0,0,0,14.32,36.23c2.95,6.54,6.09,13,9.53,19.29,1.74,3.19,3.57,6.35,5.48,9.45s3.67,6.52,6.5,8.78C56.22,433.4,59.79,432.05,58.86,429.19ZM362,75.64c-13.26-2.37-25.31-7.5-37.45-13.18-6-2.81-12-5.6-18.26-8a99.71,99.71,0,0,0-19.45-5c-1.45-.24-2.11,1.86-.62,2.26,6.38,1.71,12.55,4.54,18.53,7.31S316.91,65,323,68c11.77,5.88,24.19,12.07,37.36,13.94a3.36,3.36,0,0,0,4-2.27A3.28,3.28,0,0,0,362,75.64Zm8.89,2.44c-3.52,0-3.53,5.47,0,5.47S374.45,78.08,370.92,78.08Z"/><path class="cls-2" d="M84.68,474.06s-46.83-1.13-31.85,13,75,7.57,75,7.57l-23-14.23Zm317,10,2,7.58S532.48,503,534.45,502.33s3-8.1,3-8.1S401.84,483.58,401.71,484.08Z"/><path class="cls-3" d="M394.92,440.05c0,1.25-251.78-11.65-267.18-2.91S69.06,487.5,73.64,490,402,506.22,405.33,502.06,394.92,440.05,394.92,440.05Z"/><path class="cls-4" d="M404.5,501.65l-130.42-3.91c-42.85-1.29-85.73-2.22-128.57-4-11.88-.5-23.75-1.16-35.61-2.06S86,489.25,74,488.13c-1-.09-1.18,1.52-.23,1.7,10.28,1.91,20.79,2.85,31.19,3.78,10.62.95,21.26,1.62,31.91,2.16,21.37,1.09,42.77,1.61,64.17,2.26l129.42,3.88c24.33.73,49.86,1,73.58,1C405.68,502.9,406.1,501.7,404.5,501.65Zm.39-12.56c-.3-2.09-.67-4.34-1.08-6.69-7.64-.55-16.1-1.15-17.21-1.15-2.08,0-10.82,2.5-7.49,4.58s25.52,3.39,25.52,3.39Z"/><path class="cls-4" d="M207.12,435.62s-83.93,5.93-84.92,7.91,31.94,22.26,46.94,22.74c6.51.21,130.2-16.79,129.7-23.23S207.12,435.62,207.12,435.62Z"/><path class="cls-5" d="M167,456.37a1.37,1.37,0,0,0-1-.64,7.26,7.26,0,0,0,.65-1.31,1.38,1.38,0,0,0,.12-.93,1.5,1.5,0,0,0-.77-.74,17.11,17.11,0,0,0-3.25-1.37,27,27,0,0,0-.07-3.12,1.63,1.63,0,0,0-.32-1,1.67,1.67,0,0,0-1.42-.32q-1.8.17-3.6.39a7.69,7.69,0,0,0-3,.83.84.84,0,0,0-.43.5.88.88,0,0,0,.05.39c.2.68.39,1.36.59,2a7.1,7.1,0,0,0-3.8.67,2.5,2.5,0,0,0-1,.75,2.61,2.61,0,0,0-.39,1.45,4.57,4.57,0,0,0,.19,1.61,5.89,5.89,0,0,0,1.31,1.94,8.35,8.35,0,0,0,1.58,1.45,3.39,3.39,0,0,0,1.46.53h-.43a9.61,9.61,0,0,0,3.21.19,3.68,3.68,0,0,0,2.62-.88c.42-.28.86-.54,1.3-.78a1.46,1.46,0,0,1,1-.25,1.57,1.57,0,0,1,.57.33,16.35,16.35,0,0,0,2.59,1.59,10.63,10.63,0,0,0,2-2.07A1.34,1.34,0,0,0,167,456.37Z"/><path class="cls-6" d="M162.92,456.7a3.56,3.56,0,0,0-3.15-.89c-.73.14-1.32.57-2,.77a4.4,4.4,0,0,1-1.69.21c-.89-.11-1.46-.09-.89-1.2,1-1.95,3.87-1.92,5.6-3,.9-.56.62-1.13.28-2.07-.27-.73-1.43-.44-1.2.34.32,1.07-1.44,1.2-2.26,1.53a17.07,17.07,0,0,0-2.35,1.06,3,3,0,0,0-1.75,3.35c.34,1.49,1.58,1.44,2.86,1.36a7.61,7.61,0,0,0,2.08-.27c.71-.24,1.19-.73,2-.74a3.48,3.48,0,0,1,1.73.56A.65.65,0,0,0,162.92,456.7Z"/><path class="cls-7" d="M126.87,419.32c0,1.18-2.35,24.12-1.18,25.3s4.71.59,5.3,0,9.41-24.12,9.41-24.12Zm75.9,3.53s.59,16.47,2.35,17.06,7.06,0,7.06-.59,2.94-19.41,2.94-19.41Z"/><path class="cls-8" d="M274.55,412.26s6.47,28.83,7.65,30,6.47,0,7.06-.58,0-34.13,0-34.13ZM161,427.56s.59,33.53,2.95,34.71,6.47.59,7.06-1.18,5.29-34.71,5.29-34.71Z"/><path class="cls-9" d="M233.66,420.79s-53.54,10-67.67,9.41-40-7.06-44.12-12.35S64.8,268.4,70.09,253.11s17.06-18.24,21.18-15.89,3.53,8.83,3.53,8.83,48.25,5.88,77.67,1.17,38.24-12.35,45.3-11.76,11.77,8.23,9.41,18.82-11.17,51.19-6.47,69.43,17.07,12.94,25.89,10,46.48-11.77,53.54-1.76,0,68.84-4.12,74.72S233.66,420.79,233.66,420.79Z"/><path class="cls-10" d="M165.63,341.32c-4.83-4.47-10.59-5.75-17-5-7.57.9-15.14,2-22.79,1.48-4.14-.28-7.3-1.68-9.62-5.22A60.5,60.5,0,0,1,111,321.91a186.64,186.64,0,0,1-6.85-20.84c-2.24-8.27-4.91-18.6-6.12-27.08-1.31-9.13-1.77-16.47-2.35-25.88-.08-1.25-1-.91-1.07.35-.67,7.74.14,15.71,1,23.41a215.58,215.58,0,0,0,3.61,21.86,207.76,207.76,0,0,0,6.11,22.07c2.19,6.47,4.55,13.58,8.5,19.23,3.77,5.4,9.41,6.17,15.6,6.2a106.53,106.53,0,0,0,10.72-.48c4.11-.39,8.24-1.38,12.37-1.35,17,.14,19.39,21.67,19.71,34.4.44,17.57-1.29,35.6-.08,53.17.15,2.09,1.82,1.6,1.73-.54-.6-15.55,1.54-31,1.79-46.49C175.89,367.29,175.68,350.62,165.63,341.32Z"/><path class="cls-10" d="M148.64,344.6c-8.83-7.06-28.83,2.35-39.42.59-.36-.06-.71-.13-1.06-.21-2.83-.65-6.78-2.4-8.86-4.55-2.94-3-5.19-7.87-6.71-11.77a285.61,285.61,0,0,1-10.06-31.59,314.73,314.73,0,0,1-6.61-32,117.88,117.88,0,0,1-1.42-15,36.14,36.14,0,0,1-.08-5.41,31.49,31.49,0,0,0-4.33,8.43c-5.29,15.29,47.66,159.44,51.78,164.74,3.93,5,27.67,11.17,42.1,12.23,1.75-6.21-4.88-37.79-6.51-51.36C155.7,364,157.46,351.66,148.64,344.6Z"/><path class="cls-10" d="M273.48,372.48q-24.87,5.37-50.1,8.73-12.27,1.62-24.58,2.75-6.3.57-12.61,1.07c-3.83.3-7.74.8-11.57.33-.9-.11-1.09,1.37-.22,1.57,3.74.85,7.43.6,11.22.36q6.31-.39,12.61-1,12.89-1.17,25.72-2.87,25.25-3.33,50.15-8.73C275.56,374.42,274.94,372.16,273.48,372.48Zm-3.73-40.76c-10.13.73-19.92,3.24-29.63,6.09-9.19,2.7-19.35,4-27.3-2.6s-8.56-18.45-6.78-28c1.92-10.32,5.57-20.3,8.83-30.25,1.8-5.51,3.54-11.05,4.91-16.69,1.28-5.27,2.2-10.47,1.13-15.86-.16-.82-1.59-.65-1.48.2.75,5.88-.75,11.63-2.32,17.25-1.5,5.41-3.24,10.75-5,16.08-3.43,10.37-7.34,20.89-8.82,31.77-1.21,8.9-.13,18.78,6.26,25.63,5.66,6.05,14.52,8,22.5,6.85,6.24-.92,12.25-3.27,18.34-4.83A109.82,109.82,0,0,1,269.75,334C271.2,333.88,271.21,331.62,269.75,331.72Z"/><path class="cls-11" d="M280.43,372.25s-1.18-37.66-6.47-38.83-19.61.47-24.07,2.44-26.24,10.21-36.83.79S202.47,314.3,206,301.94s13.54-39.42,14.12-50.6c.57-10.72-1.87-14.47-8.16-15-5.54,1.7-13.47,5.45-28.07,8.7,3.4.25,8.65,2.18,9.46,11.88.34,4.07.35,8.18.4,12.26.09,6.29.11,12.57.14,18.86,0,7.19.08,14.37.19,21.56.1,6.78.24,13.57.55,20.35.2,4.46.81,9,.93,13.4.22,7.57,2.93,14.68,9.85,18.59-2.35-.91-5,0-7.41.58a24.9,24.9,0,0,1-8.3,1c-2.41-.26-4.91.36-7.34.63-2.81.31-5.61.64-8.42,1V387s3.53,0,25.3-2.35S281.61,374.6,280.43,372.25Z"/><path class="cls-10" d="M279.72,370.79c-16.84-5-34.32-7.05-51.77-8.52-9-.76-18.08-1.6-27.13-1.4A146.3,146.3,0,0,0,174.6,364c-1,.2-.77,1.85.23,1.75,8.68-.85,17.25-2.31,26-2.5s17.74.62,26.57,1.36c17.44,1.45,34.88,3.51,51.71,8.48A1.17,1.17,0,0,0,279.72,370.79Z"/><path class="cls-12" d="M393.18,488.32s132.32,14.13,142.17,14.13,22.71-5.38,25.69-13.28c1.83-4.84,1.29-20.55,1.29-20.55l2.57-412s-.86-12-8.57-16.7-18.41-8.57-25.26-8.14S397.46,49.38,394,50.24s-16.7,6.85-17.55,21.84-1.29,386.69-1.29,386.69S373.05,478.47,393.18,488.32Z"/><path class="cls-13" d="M546.87,59.44c-.15,79.4-.62,335-.77,415a20.25,20.25,0,0,1-23.85,19.89L397.33,483.75a21.16,21.16,0,0,1-17.41-20.85l.39-382.59c0-11.53,4.21-21.47,19.41-23.78L523.63,40.46A19.35,19.35,0,0,1,546.87,59.44Z"/><path class="cls-14" d="M536.22,500.7c-.1-.59.26-.72.84-.82a16,16,0,0,0,11.22-9.62c2.82-6.85,3.32-15.4,3.34-15.89,0-5.47,2.12-410.31.86-421.66C551.27,41.83,544,37,543.91,37c-.52-.28-1.43-.64-1.15-1.16s1.06,0,1.58.31,8.94,4.39,10.27,16.36c1.28,11.5-.76,405.18-.85,421.93v.05a64.07,64.07,0,0,1-3.5,16.63c-2.92,7.51-11.25,9.4-12.77,9.65C537.43,500.74,536.31,501.22,536.22,500.7Zm16.47-26.3h0Zm9.66-360.87-.06-8.43c0-5.58.19-11.28-.38-16.84a2,2,0,0,0-4,0c-.57,5.56-.34,11.26-.38,16.84q0,4,0,8a53.89,53.89,0,0,0,.16,8.62c.34,2.23,4.17,2.24,4.51,0A52.16,52.16,0,0,0,562.35,113.53Zm0,39.82-.06-8.42c0-5.59.19-11.29-.38-16.85a2,2,0,0,0-4,0c-.57,5.56-.34,11.26-.38,16.85,0,2.67,0,5.33,0,8a54,54,0,0,0,.16,8.63c.34,2.23,4.17,2.23,4.51,0A52.29,52.29,0,0,0,562.35,153.35Z"/><path class="cls-15" d="M462.19,67.72c0-.59,0-1.17,0-1.75.08-1.4-2.05-1.44-2.16-.06-.05.58-.08,1.17-.09,1.75a4.83,4.83,0,0,0,.12,1.78,1.05,1.05,0,0,0,2,0A6.54,6.54,0,0,0,462.19,67.72ZM467,61.89a1.05,1.05,0,0,0-2.1-.06c-.14,2.42-.25,4.83-.34,7.25a1.2,1.2,0,0,0,2.4.07C467,66.72,467,64.31,467,61.89Zm4.71-3.51a1.11,1.11,0,0,0-2.21-.06c-.11,3.33-.28,6.69-.22,10a1.19,1.19,0,0,0,2.38.06C471.79,65.07,471.71,61.71,471.69,58.38Zm5.71-3.49a1.06,1.06,0,0,0-2.11,0c-.29,4.44-.57,8.9-.59,13.36a1.22,1.22,0,0,0,2.43.06C477.25,63.81,477.25,59.35,477.4,54.89Zm16.85,10.75a1.57,1.57,0,0,0-.75-.69,1.4,1.4,0,0,0-.57-.13,1.45,1.45,0,0,0-.89.34,1,1,0,0,0-.34.69,1.45,1.45,0,0,0-.06.94,1.39,1.39,0,0,0,2,.83A1.48,1.48,0,0,0,494.25,65.64Zm2.52-2.85c-.19-1.67-2.31-2.42-3.76-2.17-1.85.31-3.07,1.74-4,3.24-.49.77.64,1.41,1.17.73a5,5,0,0,1,2.57-2c1.2-.29,1.64.34,2.36,1.11S496.87,63.7,496.77,62.79Z"/><path class="cls-15" d="M499.76,60.25a8,8,0,0,0-7.39-5.47c-3.46-.14-7.12,3.46-8,6.64a1.13,1.13,0,0,0,2.17.66c.95-2.29,3.45-5.19,6.14-5.06a7.27,7.27,0,0,1,5.86,3.7C498.87,61.38,500,61,499.76,60.25Z"/><path class="cls-15" d="M502.93,57.33c-.67-4.71-7.09-7.39-11.26-7a11.89,11.89,0,0,0-10.29,9,.67.67,0,0,0,1.28.39c1.59-3.91,5.11-7.31,9.53-7.34a9.4,9.4,0,0,1,5.33,1.67c1.69,1.15,2.39,2.71,3.58,4.25C501.83,59.28,503.06,58.27,502.93,57.33Zm31.53-3.91a1.16,1.16,0,0,0-1.79-1c-.86,0-1.72.12-2.58.18,0-1.17-.05-2.33-.15-3.5A1.14,1.14,0,0,0,528.56,48c-3.3.53-6.6,1-9.91,1.46s-6.66.65-9.89,1.36a.66.66,0,0,0-.51.8.78.78,0,0,0-.11.28,72,72,0,0,0-1,9.84c0,1.67-.22,4.18,1.89,4.5,3.08.46,6.67-.12,9.76-.41,3.3-.31,6.57-.79,9.83-1.42a1.13,1.13,0,0,0,.85-1.07,15,15,0,0,1,.1-2.09c1.41,0,3.4.53,4.25-.69a5.18,5.18,0,0,0,.4-2.5C534.33,56.51,534.41,55,534.46,53.42ZM531.7,59a23.37,23.37,0,0,1-2.37.06c-2,.15-2.08,1.69-2.1,3.34A103.62,103.62,0,0,1,512.43,64c-.53,0-1.07,0-1.6,0-.75,0-1.2.3-1.5-.14-.53-.79-.17-2.73-.14-3.68.1-2.68.35-5.36.57-8a84.1,84.1,0,0,0,9.51-.79c2.85-.31,5.68-.69,8.52-1.1,0,1.16,0,2.32,0,3.48A1.16,1.16,0,0,0,528.9,55l3.11-.23a11.84,11.84,0,0,0-.1,3.23c-.29.61-.14.93.46,1Z"/><path class="cls-15" d="M511.39,54.35c-.29,2.31-.61,4.62-.8,6.94-.14,1.56,2.25,1.6,2.41.06.25-2.3.38-4.63.54-6.94C513.63,53,511.56,53,511.39,54.35Zm3.26-.15c-.3,2.31-.58,4.63-.76,6.95-.12,1.56,2.34,1.63,2.44.06.15-2.32.3-4.63.52-7C517,52.83,514.83,52.82,514.65,54.2Zm5.56-.31c.14-1.46-2-1.46-2.23-.06a52.72,52.72,0,0,0-.55,6.87,1.22,1.22,0,0,0,2.44.07C519.91,58.47,520,56.18,520.21,53.89Z"/><path class="cls-12" d="M398,63a10.41,10.41,0,0,0-8.63,3.83c-1.8,2.29-2.37,6.89-.59,9.37A8.92,8.92,0,0,0,395,79.62a8.87,8.87,0,0,0,8.4-13.4,6.62,6.62,0,0,0-1.83-2A7,7,0,0,0,398,63Z"/><path class="cls-14" d="M398.46,75.77a4.41,4.41,0,0,0,1.7-1.22,4.85,4.85,0,0,0,1.11-4.11c-.78-3.72-6-4.14-7.93-1.13a5,5,0,0,0,.62,5.33A4.16,4.16,0,0,0,398.46,75.77Z"/><path class="cls-16" d="M394,70.87a2.4,2.4,0,0,0,1.91-1.18,1.84,1.84,0,0,0,.19-1.68,2.43,2.43,0,0,0-3.66-.45A2,2,0,0,0,394,70.87Zm.91,1a.73.73,0,0,0,0,1.46A.73.73,0,0,0,394.86,71.92Z"/><path class="cls-15" d="M518.88,476.42c-.45-2.26-4-1.79-5.74-2s-5.5-1.46-6.45.86a10.12,10.12,0,0,0-.26,3.43c0,1.79,0,3.57.12,5.36a.84.84,0,0,0,.37.68,1.23,1.23,0,0,0,1.15,1.42c2.95.16,5.88.33,8.81.67A1.21,1.21,0,0,0,518,486c.29-1.71.52-3.44.67-5.17A16.45,16.45,0,0,0,518.88,476.42Zm-10.34,0a3.29,3.29,0,0,1,1.84,0c.78.05,1.57.21,2.35.31a13.44,13.44,0,0,0,2.87.37c.56.31.87.26.92-.16,0,.48,0,.95,0,1.43a54.75,54.75,0,0,1-.61,6c-2.52-.28-5-.5-7.57-.55,0-1.94.05-3.88.15-5.82Zm-42.3-1a7.29,7.29,0,0,0-7.38-6,1,1,0,0,0-1,.62.72.72,0,0,0-.59,0,6.7,6.7,0,0,0-3.31,8.26,6.5,6.5,0,0,0,7.74,4.11A6.25,6.25,0,0,0,466.24,475.43Zm-5.52,5a4.41,4.41,0,0,1-5-3.28c-.61-2.22.62-4.38,2.31-5.75a1.14,1.14,0,0,0,.82.38,5.19,5.19,0,0,1,5,3.43A4,4,0,0,1,460.72,480.39Zm-50.84-13.81a1,1,0,0,0-1.57-.66,1.11,1.11,0,0,0-1.32-.19,50.14,50.14,0,0,0-8,5.15,1.12,1.12,0,0,0-.18,1.37c2.46,3.29,6,5,9.92,6.06a1.12,1.12,0,0,0,1.4-1.07C410.17,473.67,410.07,470.14,409.88,466.58Zm-8.52,5.29a45.87,45.87,0,0,1,6.69-4.12c0,2.66,0,5.33-.13,8A15.1,15.1,0,0,1,401.36,471.87Z"/><path class="cls-15" d="M401.17,121.68s-2.08,49.94.83,54.11S526.43,175,527.68,172s.83-60.76-1.25-62.43S401.58,118.35,401.17,121.68Z"/><path class="cls-1" d="M397.84,119.6s-2.08,49.94.83,54.11,124.43-.84,125.68-3.75.84-60.76-1.25-62.43S398.25,116.27,397.84,119.6Z"/><path class="cls-1" d="M386.8,324.13c0,13.08-.07,26.12-.09,38.59,15.72.63,131.24,5.3,151.63,7,0-12.51.1-25.54.14-38.65C522.31,330.41,401.41,325.37,386.8,324.13Zm122.43,36.62a1.85,1.85,0,0,1-3.69,0V336.18a1.85,1.85,0,0,1,3.69,0ZM386.7,370.3c0,14.22,0,27.52,0,39.07,16.11,1,135.81,8.56,151.36,11.1.07-12,.14-25.73.21-40.46Zm121.49,38.18a1.85,1.85,0,0,1-3.69,0V388.1a1.85,1.85,0,0,1,3.69,0ZM387,278.19c-.06,12.76-.11,26.13-.15,39.55,14.45.43,131.67,3.93,151.69,5.42,0-14.07.07-28.12.09-41.57Zm122.78,37.25a1.84,1.84,0,0,1-3.68,0V286.35a1.84,1.84,0,0,1,3.68,0Zm28.86-84.71c-19.57.1-135.35.64-151.41-.21-.06,11.48-.13,24.82-.19,39.15,10,0,134.43.55,151.61,1.59C538.63,256.53,538.63,242.75,538.61,230.73Zm-29,33a1.85,1.85,0,0,1-3.69,0V237a1.85,1.85,0,0,1,3.69,0ZM386.76,416.85c.09,20.61.3,34.07.67,34.44,1.67,1.67,149.82,15.82,150.24,13.32.09-.56.23-14.71.37-36.37ZM507.32,456.4a1.85,1.85,0,0,1-3.69,0V434.62a1.85,1.85,0,0,1,3.69,0Zm30.77-270.63c-1.25-2.49-151.07,1.25-150.66,5,0,0-.08,13-.19,33.27,14.63-.23,134.4-2.11,151.35-1.43C538.52,200.69,538.37,186.34,538.09,185.77Zm-28.51,31.58a1.85,1.85,0,0,1-3.69,0V191.57a1.85,1.85,0,0,1,3.69,0Z"/><path class="cls-13" d="M390.35,192.43s-1.25,28.72,0,29.13,30.38-.41,30.79-1.24.84-29.55-.41-30S390.76,191.6,390.35,192.43Zm-.42,41.62s-.83,32.46.42,32.88,30.38.83,30.79,0,1.25-32.46,0-32.88S390.35,233.22,389.93,234.05Zm-.42,47s-1.24,34.12,0,34.54,31.22,1.25,31.63.42,1.25-33.71,0-34.13S389.93,280.24,389.51,281.08Zm0,46.61s-1.24,32,0,32.46,31.22,1.66,31.63.83.84-32-.41-32.46S389.93,326.86,389.51,327.69Zm0,46.61s-1.24,32,0,32.46,31.22,2.5,31.63,1.66.42-32-.83-32.46S389.93,373.47,389.51,374.3Zm0,45.78s-1.24,29.13,0,29.55,30.38,3.33,30.8,2.49,1.25-30,0-30.38S389.93,419.25,389.51,420.08Zm80.05-225.9c-11.67-.45-23.41-.5-35.08.13-3.09.17-3.14,4.85,0,4.85,11.7,0,23.39,0,35.08.41C473,199.69,473,194.31,469.56,194.18Zm-22.94,10.5a58.64,58.64,0,0,0-12.7.71c-2.52.46-1.61,3.91.56,4.14a57.32,57.32,0,0,0,12.14-.23C449.51,209,449.66,204.81,446.62,204.68Zm41,.38c-10.9.43-21.81.38-32.71.58-2.91.05-2.86,4.29,0,4.48,10.87.74,21.82.62,32.71.38C491.12,210.43,491.12,204.93,487.62,205.06Zm.3,33.79c-9.07-1-18.52-.27-27.62,0-4.54.12-9.07.25-13.61.28-2.2,0-4.4,0-6.59-.05s-4.57-.49-6.49.61a1.45,1.45,0,0,0-.29,2.25c1.62,1.28,3.54,1.29,5.54,1.44,2.33.17,4.67.28,7,.36,4.68.17,9.35.2,14,.18s9.07,0,13.61,0c4.81.06,9.62.44,14.42.47C491.57,244.41,491.37,239.25,487.92,238.85ZM456,252.33a100.55,100.55,0,0,0-20.52-.8c-3.1.14-3.14,4.87,0,4.85,6.65,0,13.21.6,19.83,1.09C458.25,257.68,459,252.8,456,252.33Zm26.69,37.44c-4.12-.39-8.33-.26-12.47-.36s-8.31-.22-12.47-.3l-12.47-.23a110.2,110.2,0,0,0-12.46,0c-2.26.22-3.25,3.93-.59,4.34a108.35,108.35,0,0,0,12.22.77l12.89.51c4.15.16,8.31.29,12.47.43s8.61.53,12.88.37C486.34,295.17,486.23,290.11,482.73,289.77Zm15.4,1a36.3,36.3,0,0,0-6.51,0c-3.22.2-3.29,5.08,0,5.06,2.17,0,4.34.21,6.51.23a2.68,2.68,0,0,0,2.65-2.65A2.71,2.71,0,0,0,498.13,290.79Zm-26.35,11.68q-9.46.19-18.95.17c-6.27,0-12.68-.51-18.94,0-2.17.17-3.05,3.74-.55,4.12,6.25.95,12.77.86,19.08,1s12.91.23,19.36.22C475.33,308,475.33,302.39,471.78,302.47Zm7.14,35.08c-7.64-.69-15.41-.3-23.07-.35s-15.34-.32-23-1.06c-2.61-.25-3.23,4.15-.62,4.6a153.83,153.83,0,0,0,23.19,1.83c7.82.16,15.66.44,23.48.47C482.5,343.05,482.38,337.86,478.92,337.55Zm-26.68,46.2a70.9,70.9,0,0,0-19.68-.53c-3,.31-3.16,4.69,0,4.8,6.11.22,12.16-.14,18.21,1.09C454.28,389.82,455.74,384.37,452.24,383.75Zm43.08,3.07c-5.64-.83-11.43-1.05-17.12-1.43s-11.48-.64-17.23-.83c-3.24-.11-3.19,4.79,0,5,5.61.39,11.22.83,16.82,1.28s11.19,1.25,16.79,1.5C497.68,392.48,498.49,387.29,495.32,386.82Zm-28,11.53c-5.35-.66-10.78-.86-16.15-1.34s-10.75-1.07-16.12-1.58c-2.51-.24-3.13,4.07-.6,4.45,5.42.8,10.87,1.44,16.31,2.05s11,1.41,16.56,1.61C470.76,403.66,470.56,398.75,467.34,398.35Zm14.47,35a31.93,31.93,0,0,0-6.41-.69l-5.72-.4L457,431.37l-12.25-.91a107.27,107.27,0,0,0-12.65-.7c-2.21.1-2.88,3.47-.54,4a95.9,95.9,0,0,0,12,1.47q6.31.61,12.65,1.21,6.12.58,12.25,1.13c2.05.19,4.09.38,6.13.55a31.93,31.93,0,0,0,6.54.34C483.86,438.1,484.86,434.23,481.81,433.34Zm-31,9c-6-.62-12.07-.94-18.07-1.08-3.06-.07-2.85,4.25,0,4.62,6,.79,12.05,1.41,18.07,1.71C454.19,447.79,454.07,442.7,450.77,442.36Zm40.38,4.14c-2.55-.77-5.49-.67-8.14-.89s-5.23-.45-7.85-.64c-5.36-.4-10.74-.7-16.1-1.11-3.13-.24-3.06,4.54,0,4.85,5.23.52,10.46,1.15,15.69,1.69,2.48.26,4.95.48,7.43.71,2.66.25,5.62.91,8.26.6C493.28,451.37,494.2,447.42,491.15,446.5Z"/><path class="cls-13" d="M410.14,346.86a9.47,9.47,0,0,0-2.41.18,2.21,2.21,0,0,0,.14-.64.77.77,0,0,0-.55-.73s0-.09-.05-.13a.79.79,0,0,0-.13-.26c.8-.1.71-1.42-.18-1.53s-2.64-.43-3.19.59a4.49,4.49,0,0,0-.26,1.75,7.65,7.65,0,0,0-.05,1.91c-2.1.43-4.24.83-6.28,1.46-.67.2-.59,1.35.17,1.27,2.9-.3,5.78-1,8.63-1.56,1.66-.34,4.09-1.28,5.53,0s1.27,3.42,1.28,5.13a.79.79,0,0,0,1.58,0C414.65,351.27,413.82,347.16,410.14,346.86Z"/><path class="cls-4" d="M127.76,493.56c29-5.57,36.59-11.48,25-18.55-8.36-5.07-54.1-3.51-65.61-3-8.69,8.89-14.79,16.31-13.66,17.84,8.43,1.06,25.22,2.15,37.91,2.88C116.43,493,121.92,493.27,127.76,493.56Z"/><path class="cls-7" d="M73.35,401.57c.2.62-13.27,73.17-12,74.62s3.53,1.24,5,.41,16.37-73.79,16.37-73.79Zm36.48-.42c.2.63,8.08,69.23,9.32,70.68s3.53,1.25,5,.42-4.77-71.51-4.77-71.51Z"/><path class="cls-8" d="M126,403.64s17,84.78,18.45,85,4.77-.62,5.6-1.65-12-85.82-12-85.82ZM87.86,403s-11.41,91-9.54,92.65,5.8,1.66,6.22,0S98.84,403,98.84,403Z"/><path class="cls-7" d="M157.09,389c0-5.21-23.72-9.43-53-9.43s-53,4.22-53,9.43c0,1.53.62,6.85.62,8.29,0,5.21,23.71,9.43,53,9.43s53-4.22,53-9.43C157.71,395.79,157.09,390.47,157.09,389Z"/><ellipse class="cls-8" cx="104.13" cy="389.03" rx="52.96" ry="9.43"/><path class="cls-1" d="M79.42,385.28a2.75,2.75,0,0,1-.36-1.43c-.32-2.78-.59-5.57-.73-8.37a41.8,41.8,0,0,1,0-4.19,4.65,4.65,0,0,1,.5-2.44c1.41-1.89,7.56-1.89,8,.47a13.14,13.14,0,0,1,.17,2.07c.1,3,0,6,0,8.94,0,1.25-.06,2.49-.1,3.74a5.7,5.7,0,0,1,0,1.24c-.31,1-2.08,1.26-2.94,1.29a9.94,9.94,0,0,1-2.31-.15,4.61,4.61,0,0,1-1.78-.79A1.77,1.77,0,0,1,79.42,385.28Z"/><path class="cls-3" d="M87,372.39c-1.64,0-6.65.08-7,.48s0,9.45.94,9.45c.7,0,4.2-.26,6-.39C87,379.12,87.06,375.19,87,372.39Z"/><path class="cls-4" d="M86.57,374.31a22.22,22.22,0,0,1-3.16,0c-.54,0-.52.77,0,.83a16.67,16.67,0,0,0,3.16.05C87.12,375.15,87.14,374.28,86.57,374.31Zm.44,2.32a43,43,0,0,0-4.83.33c-.48,0-.5.77,0,.76a45.8,45.8,0,0,0,4.82-.14C87,377.26,87,377,87,376.63Z"/><path class="cls-17" d="M86,378.39l-1.37,0a.43.43,0,0,0,0,.85l1.37,0A.45.45,0,0,0,86,378.39Z"/><path class="cls-12" d="M95,361.23a.43.43,0,0,0-.43-.44.37.37,0,0,0-.28-.15,5.71,5.71,0,0,0-2.14.05.8.8,0,0,0-.53.54c-3.34-.18-14.75-.75-15.16.06s-.47.94.48,1.41,4.72-.47,4.72-.47l.35,0V363a2.61,2.61,0,0,0-1.29.63c-.55.54-.32,1.6-.18,2.25s.29,1.94,1.07,2.29a2.26,2.26,0,0,0,.78.16,6.34,6.34,0,0,0,1.79-.13c.54-.11.43-1,.47-1.36a14.53,14.53,0,0,0,.06-1.61,3.77,3.77,0,0,0-.21-1.6,1.65,1.65,0,0,0-1.34-.69c0-.22,0-.45,0-.67,2.26.08,6.52.22,8.43.11a.71.71,0,0,0,.7.57c.77.08,1.55.11,2.33.15a.47.47,0,0,0,.47-.47C95,362.18,95,361.71,95,361.23Z"/><path class="cls-18" d="M85.29,391s-1.66-14.57-.41-15.82c.59-.59,37.45-4.58,37.45-4.58s22.45,3.92,22.89,4.58c.83,1.25-.41,16.23-.41,16.23l-33.3,5.41Z"/><path class="cls-19" d="M145.22,375.13c-.43-.64-16,3.48-32,4.78l-.07,0c-9.24-1.9-17-3.8-26.35-4.67-.68-.07-.83,1.05-.17,1.18,8.87,1.75,16.15,3.08,25,4.87-.16,4-.44,12.47-.17,15.7l33.35-5.6S146.05,376.38,145.22,375.13Z"/><path class="cls-19" d="M126.49,373.05c-3.26.91-6.8.53-10.18.87a70.68,70.68,0,0,0-9.38,2c-.88.23-.39.78.54.76,6.31-.2,13.32-.36,19.34-2.41C128.17,373.84,127.91,372.65,126.49,373.05Z"/><path class="cls-1" d="M124,375.11a7.41,7.41,0,0,0-.17-1.19h0c0-.18-.08-.36-.12-.54v0c0-.18-.1-.36-.16-.54v0h0a5.26,5.26,0,0,0-1.39-2.33,24.13,24.13,0,0,1-2.64-1.88c-1.12-1.21-1.21-3-1.89-4.5a7.74,7.74,0,0,0-5.12-4,15.16,15.16,0,0,0-6.67,0c-.66.12-1.45.4-1.52,1.06s.61,1.12,1.18,1.44a16.61,16.61,0,0,1,3.51,2.67,4.38,4.38,0,0,1,1.49,2.64c.07,1.2-.7,2.25-1.23,3.33a5,5,0,0,0,.25,3.49h0v0c.07.18.14.36.22.54h0l.24.51h0l.16.3h0a5.29,5.29,0,0,0,.38.58A68.21,68.21,0,0,0,124,375.11Z"/><path class="cls-5" d="M114.1,371.11c-.52-2.13-.42-3.92-1.44-5.94-.22-.44-1-.13-.81.34,1,2.37.37,5,1.4,7.31a18,18,0,0,0,2.78,3.49l1.81-.17C116.29,374.57,114.41,372.39,114.1,371.11Z"/><path class="cls-20" d="M75.18,391.2c.06.41,3.08,3.36,12.34,2.28s12.56-1.53,15.21-3.58,3.37-3,2.84-3.76-7.59-.2-8.36.32-3.43,4.05-5.37,5.16-7.41-3.38-8.4-4.51S75.13,390.79,75.18,391.2Z"/><path class="cls-21" d="M96.69,386.47a30.2,30.2,0,0,1-4.45,4.45,10.49,10.49,0,0,1-6.73,2,.26.26,0,0,0-.07.52c5.06.93,9-2.77,11.89-6.45C97.65,386.54,97,386.09,96.69,386.47Zm-17.36,3.37c-.39,0-.4.69,0,.7.19,0,.47,0,.51.18s-.24.54-.4.66c-.36.26-1.79.4-1.46-.4.13-.3-.33-.48-.47-.19a1,1,0,0,0,.4,1.28,1.85,1.85,0,0,0,1.82-.06,1.61,1.61,0,0,0,.84-1.51C80.51,389.88,79.84,389.79,79.33,389.84Zm5-.93c-.19-.63-1.12-.73-1.66-.66a.32.32,0,0,0,0,.63,2.8,2.8,0,0,1,.88.15c.33.23-.12.66-.33.8-.47.34-2.09.24-1.63-.68.11-.21-.24-.42-.37-.21a1,1,0,0,0,.38,1.41,1.82,1.82,0,0,0,1.88.06C84,390.13,84.54,389.53,84.36,388.91Zm-1.18,2.83a.31.31,0,0,0,.09.61c.1,0,.91,0,.91,0a.24.24,0,0,0-.27.19.93.93,0,0,1-.38.17,2.44,2.44,0,0,1-.89.09l-.39,0c-.22,0-.33-.08-.33-.35.26-.15.07-.6-.2-.44s-.75.64-.34,1a3,3,0,0,0,2.2.32c.53-.1,1.3-.52,1.26-1.16S83.64,391.61,83.18,391.74Z"/><path class="cls-21" d="M86.28,390.21a.31.31,0,0,0-.07.59c.39.15,1.33.29.47.74a1.37,1.37,0,0,1-.87.1,3.17,3.17,0,0,1-.44-.12c-.15-.06-.82-.35-.35-.67.15-.1,0-.31-.15-.26a.68.68,0,0,0-.15,1.17,2.25,2.25,0,0,0,1.93.48c.53-.13,1.19-.64,1.12-1.27S86.77,390.13,86.28,390.21ZM98.84,387a.31.31,0,0,0,0,.61,2.15,2.15,0,0,1,.66.13c.33.22.2.54,0,.77a2.11,2.11,0,0,1-1.31.71c-.58.09-1.34,0-.8-.77a2.51,2.51,0,0,1,1-.82.18.18,0,0,0-.15-.33A1.84,1.84,0,0,0,97,389c0,.73,1.11.76,1.64.67a2.1,2.1,0,0,0,1.8-1.46C100.57,387.28,99.66,386.83,98.84,387Zm3.2.22a2,2,0,0,0-1.19,1,.21.21,0,0,0,.32.25,5,5,0,0,1,1.1-.72C102.61,387.58,102.38,387.06,102,387.19Z"/><path class="cls-21" d="M104.14,387.39a1,1,0,0,0-1-.34c-.35,0-.37.63,0,.64s.54,0,.23.3a3.14,3.14,0,0,1-.5.38,3.2,3.2,0,0,1-1.37.47c-.27,0-.2.42.06.42a3.34,3.34,0,0,0,2.51-1A.67.67,0,0,0,104.14,387.39Zm-7.52,3.06c-.65.11-2.52.52-2.07,1.56a.21.21,0,0,0,.39-.17c-.17-.49,1-.66,1.3-.71l.37-.07c.23-.07.25,0,.06.08s-.19.15-.26.33a.23.23,0,0,0,.18.31c.43.08.86-.4.86-.82S97,390.39,96.62,390.45Zm2.84-.2c-.49.13-1.53.47-1.23,1.15a.27.27,0,0,0,.5-.22s1.5-.57,1.55-.38.59.37.61,0C100.92,390,100,390.12,99.46,390.25Z"/><path class="cls-1" d="M172.37,476.79A4.12,4.12,0,0,1,171,476c-.45-.53-.37-1.3-.48-2a4.5,4.5,0,0,0-3.27-3.28,11.77,11.77,0,0,0-4.84-.11c-1.21.15-2.57.44-3.19,1.48-1.12,1.83.95,4,.87,6.18a5.13,5.13,0,0,1-3.12-1.22,10.66,10.66,0,0,0-1.3-1.12,1.54,1.54,0,0,0-1.62-.1,2,2,0,0,0-.64,1.53c-.31,3.54,1.37,8.24,5.13,9.37a16.94,16.94,0,0,0,5.08.23c1,0,2.37.16,3.24-.41s1.1-1.35,2.39-1.73a6.79,6.79,0,0,0,4.33-3.19C174.42,480,174,477.66,172.37,476.79Z"/><path class="cls-5" d="M166.63,480.32c-1.87,1.14-3.08,4.47-5.6,3.9a3.72,3.72,0,0,1-2.56-2.3c-.44-.86-1.17-1.26-1.68-2.05a.72.72,0,0,0-1.24.73,6.26,6.26,0,0,0,1,1.09,12.87,12.87,0,0,1,1.2,2.06,5.21,5.21,0,0,0,2.92,1.86c3.33,1.05,4.38-2.63,6.65-4.16C168,481,167.36,479.87,166.63,480.32Zm-3.15-6.22a.71.71,0,0,0-1.37-.37c-.38,1.08.46,1.91.21,2.94a7.16,7.16,0,0,0-.19.8,1.51,1.51,0,0,0,0,.32s0,0-.13,0a5.78,5.78,0,0,1-2-.32c-.83-.17-1.19,1.08-.36,1.28,1.05.25,3.05,1.05,3.69-.25a7.46,7.46,0,0,0,.56-2.23C164,475.46,163.36,474.9,163.48,474.1Z"/><path class="cls-5" d="M113.28,467.64a4.33,4.33,0,0,1-1.35-.79c-.45-.52-.38-1.3-.49-2a4.47,4.47,0,0,0-3.27-3.28,11.6,11.6,0,0,0-4.84-.11c-1.2.15-2.56.43-3.19,1.47-1.11,1.84,1,4,.87,6.19a5.16,5.16,0,0,1-3.11-1.22,11.43,11.43,0,0,0-1.3-1.13A1.53,1.53,0,0,0,95,466.7a2,2,0,0,0-.64,1.52c-.31,3.54,1.38,8.25,5.14,9.38a16.89,16.89,0,0,0,5.07.22c1,0,2.37.17,3.25-.4s1.09-1.35,2.39-1.73a6.81,6.81,0,0,0,4.32-3.2C115.32,470.84,114.91,468.51,113.28,467.64Z"/><path class="cls-6" d="M107.54,471.16c-1.88,1.14-3.09,4.47-5.61,3.91a3.72,3.72,0,0,1-2.56-2.3c-.44-.87-1.16-1.26-1.68-2a.71.71,0,0,0-1.23.72,5,5,0,0,0,1,1.09,14.17,14.17,0,0,1,1.2,2.06,5.15,5.15,0,0,0,2.92,1.87c3.33,1,4.37-2.64,6.65-4.17C108.89,471.83,108.26,470.72,107.54,471.16ZM104.38,465a.71.71,0,0,0-1.36-.38c-.38,1.09.45,1.91.2,2.94-.06.26-.15.53-.19.8a.82.82,0,0,0,0,.32s0,0-.14,0a5.6,5.6,0,0,1-2-.33c-.83-.17-1.19,1.08-.35,1.28,1,.26,3,1.05,3.68-.25a7.34,7.34,0,0,0,.57-2.22C104.89,466.31,104.27,465.74,104.38,465Z"/><path class="cls-1" d="M73.38,387.63c-.16-.38-.61-.53-1-.64a7,7,0,0,0,.65-1.31,1.38,1.38,0,0,0,.12-.93,1.5,1.5,0,0,0-.77-.74,17.78,17.78,0,0,0-3.25-1.37,27.08,27.08,0,0,0-.07-3.12,1.63,1.63,0,0,0-.32-1,1.7,1.7,0,0,0-1.42-.32q-1.8.17-3.6.39a7.49,7.49,0,0,0-3,.84.8.8,0,0,0-.43.49.86.86,0,0,0,0,.39c.19.68.39,1.36.58,2a7.18,7.18,0,0,0-3.79.67,2.5,2.5,0,0,0-1,.75,2.65,2.65,0,0,0-.39,1.46,4.4,4.4,0,0,0,.19,1.61,5.7,5.7,0,0,0,1.31,1.93,8.35,8.35,0,0,0,1.58,1.45,3.39,3.39,0,0,0,1.46.53h-.43A9.58,9.58,0,0,0,63,391a4.55,4.55,0,0,0,1.6-.26,5.86,5.86,0,0,0,1-.61,13.24,13.24,0,0,1,1.3-.79,1.46,1.46,0,0,1,1-.25,1.93,1.93,0,0,1,.57.33A15.65,15.65,0,0,0,71.1,391a10.63,10.63,0,0,0,2-2.07A1.34,1.34,0,0,0,73.38,387.63Z"/><path class="cls-5" d="M68.9,388.38a3.58,3.58,0,0,0-3.15-.9c-.73.14-1.32.58-2,.78a4.6,4.6,0,0,1-1.69.21c-.89-.11-1.46-.09-.88-1.2,1-1.95,3.86-1.92,5.59-3,.91-.56.63-1.13.28-2.07-.27-.74-1.42-.44-1.19.33.32,1.08-1.45,1.21-2.26,1.53a17.93,17.93,0,0,0-2.36,1.07,3,3,0,0,0-1.74,3.35c.33,1.49,1.58,1.43,2.86,1.36a8.08,8.08,0,0,0,2.08-.27c.7-.24,1.18-.73,2-.75a3.56,3.56,0,0,1,1.73.57A.65.65,0,0,0,68.9,388.38Z"/><path class="cls-1" d="M40.05,457.2a1.42,1.42,0,0,0-1-.64,7,7,0,0,0,.65-1.31,1.38,1.38,0,0,0,.12-.93,1.54,1.54,0,0,0-.77-.74,17.78,17.78,0,0,0-3.25-1.37,29.54,29.54,0,0,0-.07-3.12,1.63,1.63,0,0,0-.32-1,1.72,1.72,0,0,0-1.43-.32c-1.2.11-2.39.24-3.59.39a7.49,7.49,0,0,0-3,.84.77.77,0,0,0-.43.49.86.86,0,0,0,0,.39c.19.68.39,1.36.58,2a7.18,7.18,0,0,0-3.79.67,2.59,2.59,0,0,0-1,.75,2.65,2.65,0,0,0-.39,1.46,4.4,4.4,0,0,0,.19,1.61,5.7,5.7,0,0,0,1.31,1.93,8.35,8.35,0,0,0,1.58,1.45,3.35,3.35,0,0,0,1.46.53h-.43a9.58,9.58,0,0,0,3.21.19,4.55,4.55,0,0,0,1.6-.26,5.86,5.86,0,0,0,1-.61,13.24,13.24,0,0,1,1.3-.79,1.11,1.11,0,0,1,1.56.08,15.74,15.74,0,0,0,2.6,1.59,10.63,10.63,0,0,0,1.95-2.07A1.39,1.39,0,0,0,40.05,457.2Z"/><path class="cls-5" d="M35.57,458a3.59,3.59,0,0,0-3.15-.9c-.73.14-1.32.58-2,.78a4.6,4.6,0,0,1-1.69.21c-.89-.11-1.46-.09-.89-1.2,1-1.95,3.87-1.92,5.6-3,.91-.56.62-1.13.28-2.07-.27-.74-1.43-.44-1.19.33.32,1.08-1.45,1.21-2.27,1.53a18.42,18.42,0,0,0-2.35,1.07,3,3,0,0,0-1.74,3.35c.33,1.49,1.57,1.43,2.86,1.36a8.08,8.08,0,0,0,2.08-.27c.7-.24,1.18-.73,2-.75a3.59,3.59,0,0,1,1.73.57A.65.65,0,0,0,35.57,458Z"/><path class="cls-22" d="M401,94.61l-.2,0V94.1c0-.13,0-.19-.11-.19a.14.14,0,0,0-.12.08.61.61,0,0,0-.05.23v.43h-.2l0-1.26h.2v.26a1.38,1.38,0,0,0,0,.14v.07h0a.27.27,0,0,1,.22-.15.26.26,0,0,1,.2.07A.43.43,0,0,1,401,94l0,.59Z"/><path class="cls-22" d="M401.91,94.56a.28.28,0,0,1-.27-.1.48.48,0,0,1-.1-.33.62.62,0,0,1,.11-.36.34.34,0,0,1,.26-.15.3.3,0,0,1,.24.1.46.46,0,0,1,.08.29v.12l-.47,0a.25.25,0,0,0,0,.16.2.2,0,0,0,.14,0l.12,0,.13-.06v.19l-.11,0a.33.33,0,0,1-.15,0Zm0-.76a.12.12,0,0,0-.1.06.26.26,0,0,0,0,.14l.28,0a.2.2,0,0,0,0-.14A.11.11,0,0,0,401.9,93.8Z"/><path class="cls-22" d="M403.25,94.45l0-.12h0a.36.36,0,0,1-.1.11.23.23,0,0,1-.14,0,.17.17,0,0,1-.17-.06.33.33,0,0,1,0-.42.52.52,0,0,1,.25-.1h.13v0c0-.09,0-.14-.11-.13a.43.43,0,0,0-.21.08l-.06-.16a.48.48,0,0,1,.28-.1.28.28,0,0,1,.23.06.32.32,0,0,1,.07.23v.61h-.15Zm0-.42h-.08a.26.26,0,0,0-.14,0,.18.18,0,0,0,0,.11c0,.07,0,.1.09.1a.17.17,0,0,0,.12-.06.18.18,0,0,0,0-.13V94Z"/><path class="cls-22" d="M404.21,94.38H404l0-1.26h.2Z"/><path class="cls-22" d="M405.15,94.13a.41.41,0,0,0,.12,0v.18a.36.36,0,0,1-.19.06.18.18,0,0,1-.17-.06.34.34,0,0,1-.05-.22v-.44h-.1v-.11l.11-.09.06-.19h.13v.19h.2v.18l-.21,0V94a.15.15,0,0,0,0,.08l.07,0Z"/><path class="cls-22" d="M406.51,94.21h-.2V93.7c0-.13,0-.2-.12-.19a.14.14,0,0,0-.12.08.45.45,0,0,0,0,.23v.42l-.21,0,0-1.26h.2v.25a1,1,0,0,1,0,.14v.08h0a.22.22,0,0,1,.22-.15.19.19,0,0,1,.19.07.33.33,0,0,1,.06.24v.59Z"/><path class="cls-22" d="M407.42,94.16c-.23,0-.34-.13-.33-.44a.64.64,0,0,1,.1-.36.4.4,0,0,1,.27-.14.43.43,0,0,1,.23,0l-.06.2-.09,0h-.08c-.11,0-.16.1-.17.28s0,.27.15.26a.2.2,0,0,0,.11,0,.23.23,0,0,0,.1-.07v.22l-.1.06-.13,0Z"/><path class="cls-22" d="M408.7,94.05l0-.12h0a.63.63,0,0,1-.1.12l-.14,0a.22.22,0,0,1-.17-.06.33.33,0,0,1-.06-.21.37.37,0,0,1,.09-.22.44.44,0,0,1,.25-.09l.13,0v0c0-.09,0-.13-.11-.13a.56.56,0,0,0-.21.08l-.06-.16a.56.56,0,0,1,.28-.1.27.27,0,0,1,.23.06.33.33,0,0,1,.07.24V94Zm-.05-.41h-.08a.27.27,0,0,0-.13,0,.16.16,0,0,0-.05.11c0,.07,0,.11.1.1a.14.14,0,0,0,.11-.06.18.18,0,0,0,0-.13v-.07Z"/><path class="cls-22" d="M409.89,93H410l0,.23h-.06a.22.22,0,0,0-.15.08.29.29,0,0,0-.06.17V94h-.2l0-.9h.16l0,.15h0a.45.45,0,0,1,.1-.13.31.31,0,0,1,.13-.06Z"/><path class="cls-22" d="M410.81,93.91a.31.31,0,0,1-.28-.1.46.46,0,0,1-.09-.33.64.64,0,0,1,.1-.36.3.3,0,0,1,.26-.14.24.24,0,0,1,.24.09.37.37,0,0,1,.08.29v.12l-.48,0a.25.25,0,0,0,.05.16.14.14,0,0,0,.13,0,.5.5,0,0,0,.13,0,.34.34,0,0,0,.12-.06v.19l-.12,0a.32.32,0,0,1-.14,0Zm0-.76a.13.13,0,0,0-.1.06.26.26,0,0,0-.05.14l.28,0a.29.29,0,0,0,0-.14A.13.13,0,0,0,410.8,93.15Z"/><path class="cls-22" d="M412.91,93.74l0-.12h0a.33.33,0,0,1-.11.12.29.29,0,0,1-.14,0,.2.2,0,0,1-.17-.06.28.28,0,0,1-.05-.21.31.31,0,0,1,.08-.22.44.44,0,0,1,.25-.09l.13,0v0c0-.09,0-.13-.11-.12a.43.43,0,0,0-.21.08l-.06-.17a.59.59,0,0,1,.28-.1.3.3,0,0,1,.23.06.29.29,0,0,1,.07.24v.6Zm-.05-.41h-.08a.17.17,0,0,0-.13,0,.13.13,0,0,0,0,.11c0,.07,0,.1.1.09a.16.16,0,0,0,.11,0,.22.22,0,0,0,.05-.14v-.07Z"/><path class="cls-22" d="M414,93.48l.13,0v.18a.48.48,0,0,1-.18.06.21.21,0,0,1-.18-.07.4.4,0,0,1-.05-.22V93h-.09v-.1l.11-.09.07-.2h.12v.2l.21,0v.19h-.21v.44a.08.08,0,0,0,0,.07,0,0,0,0,0,.06,0Z"/><path class="cls-22" d="M415.84,92.81h-.17l0,.72-.2,0,0-.72h-.11v-.12l.11-.08v-.06a.42.42,0,0,1,.07-.23.29.29,0,0,1,.2-.09.4.4,0,0,1,.19,0l-.06.18a.22.22,0,0,0-.11,0,.06.06,0,0,0-.06,0s0,0,0,.08v.06h.18v.18Z"/><path class="cls-22" d="M416.37,92.35c0-.08,0-.12.11-.12s.11,0,.11.11a.12.12,0,0,1,0,.09.19.19,0,0,1-.09,0C416.4,92.47,416.37,92.44,416.37,92.35Zm.18,1.13h-.2l0-.9.2,0Z"/><path class="cls-22" d="M417.85,93.38l-.2,0v-.53a.32.32,0,0,0,0-.15.1.1,0,0,0-.09,0,.17.17,0,0,0-.13.08.63.63,0,0,0,0,.23v.43h-.2l0-.9h.16l0,.11h0a.27.27,0,0,1,.1-.11.28.28,0,0,1,.13,0,.23.23,0,0,1,.2.07.43.43,0,0,1,.06.24l0,.59Z"/><path class="cls-22" d="M419.13,92.39v.12l-.12,0a.25.25,0,0,1,0,.13.3.3,0,0,1-.09.23.33.33,0,0,1-.23.1h-.07a.09.09,0,0,0,0,.07s0,0,.11,0h.13a.24.24,0,0,1,.18,0,.25.25,0,0,1,.06.19.3.3,0,0,1-.12.25.52.52,0,0,1-.31.11.32.32,0,0,1-.23,0,.19.19,0,0,1-.08-.18.33.33,0,0,1,0-.14.24.24,0,0,1,.13-.08.12.12,0,0,1,0,0,.13.13,0,0,1,0-.08.32.32,0,0,1,0-.09.46.46,0,0,1,.07-.07.38.38,0,0,1-.09-.09.41.41,0,0,1,0-.16.37.37,0,0,1,.09-.24.32.32,0,0,1,.23-.09h.12Zm-.59,1.07a.08.08,0,0,0,0,.08l.11,0a.43.43,0,0,0,.18,0,.12.12,0,0,0,.06-.1s0-.06,0-.07a.18.18,0,0,0-.11,0h-.1l-.1,0a.25.25,0,0,0,0,.09Zm.09-.74s0,.09,0,.11a.09.09,0,0,0,.08,0,.11.11,0,0,0,.09-.05.21.21,0,0,0,0-.12c0-.11,0-.16-.11-.15S418.63,92.61,418.63,92.72Z"/><path class="cls-22" d="M420,93.24a.28.28,0,0,1-.27-.1.45.45,0,0,1-.1-.33.64.64,0,0,1,.11-.36.33.33,0,0,1,.26-.14.25.25,0,0,1,.24.09.51.51,0,0,1,.08.3v.11l-.47,0a.25.25,0,0,0,0,.16.17.17,0,0,0,.14,0l.12,0,.13-.06v.19l-.11.06-.15,0Zm0-.76a.21.21,0,0,0-.1.06.3.3,0,0,0,0,.15l.28,0a.17.17,0,0,0,0-.13A.11.11,0,0,0,420,92.48Z"/><path class="cls-22" d="M421.28,92.21h.07l0,.23h-.06a.19.19,0,0,0-.15.08.24.24,0,0,0-.06.17v.46h-.21l0-.9H421l0,.15h0a.3.3,0,0,1,.09-.13.22.22,0,0,1,.13-.06Z"/><path class="cls-22" d="M422.18,92.89l.13,0V93a.6.6,0,0,1-.19.06A.21.21,0,0,1,422,93a.29.29,0,0,1-.05-.22v-.44h-.1v-.11l.12-.09L422,92h.13v.19l.21,0v.19h-.2v.44s0,.06,0,.08l.06,0Z"/><path class="cls-22" d="M422.88,91.88a.12.12,0,0,1,.11-.13c.08,0,.11,0,.11.11a.17.17,0,0,1,0,.1.11.11,0,0,1-.08,0C422.91,92,422.88,92,422.88,91.88Zm.18,1.12-.2,0,0-.91h.21Z"/><path class="cls-22" d="M424.09,92.94a.18.18,0,0,1-.2-.1h0v.5l-.2,0,0-1.31h.17l0,.12h0a.23.23,0,0,1,.22-.15.2.2,0,0,1,.2.11.53.53,0,0,1,.06.33.71.71,0,0,1,0,.26.4.4,0,0,1-.1.17.2.2,0,0,1-.15.06Zm0-.73a.11.11,0,0,0-.11.06.32.32,0,0,0,0,.19v0a.49.49,0,0,0,0,.2.13.13,0,0,0,.12.06c.09,0,.13-.1.14-.29a.47.47,0,0,0,0-.19.08.08,0,0,0-.1-.06Z"/><path class="cls-22" d="M425.47,92.56a.29.29,0,0,1-.09.22.37.37,0,0,1-.23.09H425a.23.23,0,0,1-.11,0v-.2a.42.42,0,0,0,.12,0l.13,0c.07,0,.11,0,.11-.09s0,0,0,0l-.05,0-.1,0L425,92.4a.21.21,0,0,1-.06-.08.41.41,0,0,1,0-.12A.24.24,0,0,1,425,92a.29.29,0,0,1,.22-.08.43.43,0,0,1,.25,0l-.06.18-.1,0h-.1c-.06,0-.09,0-.09.06a.08.08,0,0,0,0,.06l.13.06.12.07a.21.21,0,0,1,.06.08.43.43,0,0,1,0,.12Z"/><path class="cls-23" d="M428.07,99.81a.52.52,0,0,0,.41-.52.4.4,0,0,0-.39-.46.49.49,0,0,0-.41.52A.41.41,0,0,0,428.07,99.81Z"/><path class="cls-23" d="M428.12,97.77a1.27,1.27,0,0,1,1.22,1.45l.41,0a1.68,1.68,0,0,0-1.62-1.92Z"/><path class="cls-23" d="M428.1,98.56c.34,0,.6.29.59.71l.41,0a1,1,0,0,0-1-1.18Z"/><path class="cls-24" d="M428.21,95.63c-1.63.11-3,1.83-3,3.83a3.12,3.12,0,0,0,2.28,3.37,7.93,7.93,0,0,1-3.6,4.22c-4.28,2.39-7.11,1.24-12.25-.85a73.35,73.35,0,0,0-13.91-4.42,11.29,11.29,0,0,0-3.94-.21l.06-2.73.68-.25a3.29,3.29,0,0,0,.78-.42,4,4,0,0,0,1.14-1.44l1.92-4.1a.32.32,0,0,0-.09-.42l0,0-.41-.25a.2.2,0,0,0-.13,0,.3.3,0,0,0-.22.18l-1.93,4.1a2.3,2.3,0,0,1-1.25,1.21l-.43.16-.52.19-.51-.12-.43-.09a1.75,1.75,0,0,1-1.19-1l-1.73-3.83a.22.22,0,0,0-.35-.09l-.42.32,0,0a.4.4,0,0,0-.11.44l1.73,3.82a3,3,0,0,0,1.07,1.28,2.41,2.41,0,0,0,.76.32l.67.14-.07,2.89a5.44,5.44,0,0,0-2.5,1.59,5.33,5.33,0,0,0-.52,6.26l.09.13a1.77,1.77,0,0,0,2.34.57,3,3,0,0,0,1.46-2.57l.12-5a10.5,10.5,0,0,1,3.72.19,72.87,72.87,0,0,1,13.77,4.37c3.41,1.39,5.94,2.42,8.59,2.23a10.43,10.43,0,0,0,4.42-1.44,9.17,9.17,0,0,0,4.33-5.4A3.93,3.93,0,0,0,431.07,99c.05-2-1.24-3.52-2.87-3.4Zm-35.65,12.23a1.53,1.53,0,0,1-.77,1.34.92.92,0,0,1-1.22-.3l-.07-.1a3.85,3.85,0,0,1,.37-4.52,4.31,4.31,0,0,1,1.81-1.19Zm36.25-6.49a1.7,1.7,0,0,1-.75.24,1.48,1.48,0,0,1-.3,0,2,2,0,0,1-1.58-2.21,2.47,2.47,0,0,1,2-2.51,2,2,0,0,1,1.88,2.22,2.74,2.74,0,0,1-1.24,2.27Z"/><path class="cls-23" d="M392.21,83.51a.84.84,0,0,1-.34.66.52.52,0,0,1-.34.09l-.18,0-.89-.08a.2.2,0,0,1-.16-.14,7.36,7.36,0,0,0-2.09,1.1,3,3,0,0,0-.85,3.37l1.74,4.17-.42.32-1.75-4.19A3.64,3.64,0,0,1,388,84.64a7.49,7.49,0,0,1,2.31-1.2v0a.27.27,0,0,1,.19-.27l1.08-.26h.08a.58.58,0,0,1,.56.66Z"/><path class="cls-23" d="M400.16,87.82l-2,4.47-.41-.26,1.95-4.45a2.63,2.63,0,0,0-.69-3.25,5.64,5.64,0,0,0-2-.79.31.31,0,0,1-.17.15l-.89.22-.19,0-.08,0a.51.51,0,0,1-.25-.06.65.65,0,0,1-.31-.61.71.71,0,0,1,.68-.75l1.07.11a.22.22,0,0,1,.18.24v0a6,6,0,0,1,2.26.87,3.25,3.25,0,0,1,.86,4Z"/><path class="cls-23" d="M403.22,90.21a2.24,2.24,0,0,1-.41,1.36,1.39,1.39,0,0,1-1.06.55,1.1,1.1,0,0,1-1-.41,1.89,1.89,0,0,1-.35-1.29,2.28,2.28,0,0,1,.4-1.35,1.4,1.4,0,0,1,1.07-.55,1.18,1.18,0,0,1,.73.16,1.24,1.24,0,0,1,.48.59,2.27,2.27,0,0,1,.15.94Zm-1.84.13a1.77,1.77,0,0,0,.08.68.3.3,0,0,0,.32.21.36.36,0,0,0,.33-.26,1.77,1.77,0,0,0,.11-.69,1.88,1.88,0,0,0-.07-.66.31.31,0,0,0-.33-.21.36.36,0,0,0-.32.25,1.89,1.89,0,0,0-.12.68Z"/><path class="cls-23" d="M405.69,88.24a.75.75,0,0,1,.73.42,2.62,2.62,0,0,1,.24,1.3,3,3,0,0,1-.31,1.35,1,1,0,0,1-.78.53.84.84,0,0,1-.28,0,.51.51,0,0,1-.21-.1.81.81,0,0,1-.22-.23h-.06l-.17.35-.76.05.12-4.77,1-.07,0,1.08c0,.13,0,.35-.05.67h0a1.3,1.3,0,0,1,.34-.41.83.83,0,0,1,.43-.15Zm-.38,1a.35.35,0,0,0-.31.2,1.25,1.25,0,0,0-.1.55v.17a1.3,1.3,0,0,0,.08.6.29.29,0,0,0,.31.17q.17,0,.27-.24a2,2,0,0,0,.11-.64C405.67,89.46,405.56,89.19,405.31,89.21Z"/><path class="cls-23" d="M407.39,87.31a.63.63,0,0,1,.13-.41.64.64,0,0,1,.4-.16.42.42,0,0,1,.51.5.51.51,0,0,1-.54.56C407.54,87.83,407.38,87.67,407.39,87.31Zm.9,4.27-1,.07.08-3.47,1-.07Z"/><path class="cls-24" d="M409.79,91.47l.12-4.48,1-.08-.09,3.51,1.41-.1,0,1-2.41.17Z"/><path class="cls-24" d="M414.71,91.11l-.18-.44h0a1.26,1.26,0,0,1-.41.44,1.33,1.33,0,0,1-.53.15.68.68,0,0,1-.63-.25,1.19,1.19,0,0,1-.21-.81,1.14,1.14,0,0,1,.34-.85A1.59,1.59,0,0,1,414,89l.47-.06v0c0-.29-.11-.43-.34-.41a2,2,0,0,0-.8.32l-.26-.77a2.48,2.48,0,0,1,1.26-.41,1,1,0,0,1,.84.27,1.22,1.22,0,0,1,.28.91l-.06,2.28-.68.05Zm-.71-.73a.45.45,0,0,0,.31-.16.58.58,0,0,0,.14-.37v-.27l-.22,0c-.33,0-.49.2-.5.47s.09.31.27.3Z"/><path class="cls-24" d="M418,87.34a.75.75,0,0,1,.73.42,2.53,2.53,0,0,1,.23,1.3,2.87,2.87,0,0,1-.3,1.35,1,1,0,0,1-.78.53.84.84,0,0,1-.28,0,.62.62,0,0,1-.22-.1,1,1,0,0,1-.21-.23h-.06L417,91l-.76.06.11-4.78,1-.07,0,1.08c0,.13,0,.35-.05.67h0a1.14,1.14,0,0,1,.34-.42.83.83,0,0,1,.43-.15Zm-.38,1a.37.37,0,0,0-.31.2,1.39,1.39,0,0,0-.11.55v.17a1.35,1.35,0,0,0,.08.61.29.29,0,0,0,.31.16q.16,0,.27-.24a1.9,1.9,0,0,0,.11-.64C418,88.56,417.87,88.29,417.63,88.31Z"/><path class="cls-24" d="M422.1,90.58l-2.67.19,0-.8.93-1.17.52-.71a2,2,0,0,0,.17-.32.86.86,0,0,0,.05-.27.37.37,0,0,0-.09-.27.29.29,0,0,0-.25-.08.68.68,0,0,0-.36.14,3.47,3.47,0,0,0-.41.39l-.52-.74a3.53,3.53,0,0,1,.49-.48,1.72,1.72,0,0,1,.42-.23,1.65,1.65,0,0,1,.51-.11,1.22,1.22,0,0,1,.64.11,1,1,0,0,1,.42.4,1.27,1.27,0,0,1,.14.63,2.52,2.52,0,0,1-.07.49,2.75,2.75,0,0,1-.17.45,3.63,3.63,0,0,1-.32.48c-.12.17-.4.49-.81,1v0l1.39-.1,0,1Z"/><path class="cls-24" d="M424.78,90.38l-.11-.42h-.06a.89.89,0,0,1-.35.39,1.11,1.11,0,0,1-.52.17.8.8,0,0,1-.72-.28,1.38,1.38,0,0,1-.24-.92l.06-2.27,1-.07-.05,1.9a1.32,1.32,0,0,0,.07.51.24.24,0,0,0,.26.15.4.4,0,0,0,.36-.27,2.18,2.18,0,0,0,.13-.83l0-1.52,1-.07-.09,3.48-.74,0Z"/><path class="cls-25" d="M396.07,83.84l-2.51,5.91-2.22-5.57.19,0a.56.56,0,0,0,.35-.09l1.71,4.31,1.94-4.58a.47.47,0,0,0,.26,0h.09Z"/><path class="cls-1" d="M405.58,328.79h-8.1a.58.58,0,0,0-.37.15.56.56,0,0,0-.15.37l-.07,3h-4.95a.58.58,0,0,0-.38.15.55.55,0,0,0-.16.38l-.13,5.59a.51.51,0,0,0,.52.52h1l-.45,20.36a.5.5,0,0,0,.14.36.48.48,0,0,0,.36.15h15.77a.53.53,0,0,0,.53-.51l.45-20.36h1.11a.48.48,0,0,0,.2,0,.48.48,0,0,0,.28-.28.48.48,0,0,0,0-.2l.13-5.59a.55.55,0,0,0-.14-.37.52.52,0,0,0-.36-.16H406l.06-3a.5.5,0,0,0-.14-.37A.51.51,0,0,0,405.58,328.79Zm-7.61,1H405l-.05,2.52h-7.07Zm-4.13,12.74h10l-.26,11.63h-10Zm14.36,16.25H393.48l.08-3.58h10.52a.53.53,0,0,0,.36-.15.52.52,0,0,0,.16-.37l.28-12.66a.46.46,0,0,0-.14-.36.48.48,0,0,0-.36-.15H393.87l.05-2.54h14.72l-.44,19.83ZM410.3,338h-18l.1-4.56h18l-.1,4.56Z"/><path class="cls-1" d="M401.08,349.21h-5.91a.55.55,0,0,0-.38.16.52.52,0,0,0-.16.37.55.55,0,0,0,.14.37.51.51,0,0,0,.37.15h5.91a.54.54,0,0,0,.38-.15.52.52,0,0,0,.16-.37.51.51,0,0,0-.15-.37A.5.5,0,0,0,401.08,349.21Z"/><path class="cls-1" d="M399.27,351.54h-4.16a.53.53,0,0,0-.37.15.54.54,0,0,0,0,.75.56.56,0,0,0,.37.15h4.16a.58.58,0,0,0,.37-.15.55.55,0,0,0,.16-.38.5.5,0,0,0-.14-.37A.51.51,0,0,0,399.27,351.54Z"/><path class="cls-1" d="M405.14,389.62c-.06-.31-.12-.62-.21-.93-.77-3.16-1.76-4.52-2.19-5l0-1.46a1,1,0,0,0,.72-.24,1,1,0,0,0,.32-.7l.08-3.25a1.08,1.08,0,0,0-1-1.09l-8-.56a.94.94,0,0,0-1,.94l-.09,3.25a1.12,1.12,0,0,0,.28.74,1.05,1.05,0,0,0,.71.35l0,1.46a7.67,7.67,0,0,0-1.72,2.59.51.51,0,0,0,0,.4.52.52,0,0,0,.28.3.45.45,0,0,0,.39,0,.47.47,0,0,0,.29-.26,7.05,7.05,0,0,1,1.41-2.22l6.54.46a11.44,11.44,0,0,1,2,4.73l-8.73-.62a.57.57,0,0,0-.28.17.52.52,0,0,0-.11.32.54.54,0,0,0,.09.32.58.58,0,0,0,.28.21l8.93.63c.66,2.86.31,8.88.36,11.86L392,401.18c.24-3.55.13-9.69,1.27-12.93a.55.55,0,0,0,0-.4.57.57,0,0,0-.32-.27.51.51,0,0,0-.4,0,.52.52,0,0,0-.25.31c-1.21,3.43-1.1,10.35-1.38,14.09a4.21,4.21,0,0,0,4,4.1l6.47.46a3.77,3.77,0,0,0,4.16-3.56v-.35C405.46,399.27,405.88,392.86,405.14,389.62Zm-7.55-12,2.62.19-.09,3.25-2.66-.19Zm-2.7,3.07.08-3.25,1.59.11-.09,3.25Zm6.82,2.68-5.94-.42,0-1.15,5.89.42Zm-.54-2.24.08-3.25,1.58.11-.09,3.25Zm2.57,23.56a3.09,3.09,0,0,1-2.39.85l-6.42-.45a3.09,3.09,0,0,1-2-.87,3,3,0,0,1-1-2l12.52.88A2.57,2.57,0,0,1,403.74,404.65Z"/><path class="cls-1" d="M401.22,398.2a.45.45,0,0,0-.3.16.51.51,0,0,0-.13.32.57.57,0,0,0,.11.33.53.53,0,0,0,.29.2l1,.07a1,1,0,0,0,1-.94l.12-4.58A1,1,0,0,0,403,393a1.1,1.1,0,0,0-.71-.35l-7.71-.54a1,1,0,0,0-1,.94l-.12,4.58a1,1,0,0,0,.28.74,1.08,1.08,0,0,0,.71.35l4.62.32a.47.47,0,0,0,.31-.16.45.45,0,0,0,.12-.31.47.47,0,0,0-.11-.34.5.5,0,0,0-.29-.2l-4.62-.33.11-4.57,7.71.54-.12,4.58Z"/><path class="cls-1" d="M417.41,386.77c-.75-4.33-3.17-6.12-4.54-6.81-2.32-1.1-5.9,1.62-6.86,6a7,7,0,0,0,.33,4.33,7.38,7.38,0,0,0,2.82,3.4l.1.06L409,396a.69.69,0,0,0,0,.2.51.51,0,0,0,.09.18.7.7,0,0,0,.16.14.66.66,0,0,0,.2.06.5.5,0,0,0,.37-.1.53.53,0,0,0,.19-.33l.26-2.55c.06-.4-.36-.58-.64-.74-5.23-3.38-2.19-10.95,1.58-12a1.26,1.26,0,0,1,.58-.08,1.43,1.43,0,0,1,.58.16c3.71,1.6,6.34,9.54,1,12.18-.3.13-.74.24-.7.66,0,0,.53,10.43.53,10.48a2,2,0,0,1-.08.88,1.8,1.8,0,0,1-.45.75,1.77,1.77,0,0,1-.73.47,2,2,0,0,1-.88.11,2.43,2.43,0,0,1-.86-.29,2.09,2.09,0,0,1-.66-.63,2.17,2.17,0,0,1-.35-.83,2,2,0,0,1,0-.89l.57-5.54a.71.71,0,0,0,0-.2.64.64,0,0,0-.1-.18.65.65,0,0,0-.16-.13.49.49,0,0,0-.19-.07.44.44,0,0,0-.2,0,.38.38,0,0,0-.18.09.58.58,0,0,0-.13.14.41.41,0,0,0-.05.19l-.59,5.53a3.22,3.22,0,0,0,2.73,3.48,2.93,2.93,0,0,0,2.24-.57,2.88,2.88,0,0,0,1.11-2,3.69,3.69,0,0,0,0-.47l-.51-10,.1,0a6.49,6.49,0,0,0,3-3A6.83,6.83,0,0,0,417.41,386.77Z"/><path class="cls-1" d="M411.6,382.9a.41.41,0,0,1,.22,0,.44.44,0,0,1,.22.07,5,5,0,0,1,2.11,2.91.54.54,0,0,0,.26.33.56.56,0,0,0,.4.06.54.54,0,0,0,.32-.25.51.51,0,0,0,0-.4c-.71-2.3-2.6-4.26-4-3.64-1,.46-3.36,2-3.32,6.72-.13,1.48,1.62,3.44,3.76,3.53s4-1.49,3.92-3a11.61,11.61,0,0,0,.05-1.67.66.66,0,0,0-.06-.2.51.51,0,0,0-.13-.16.54.54,0,0,0-.18-.11.64.64,0,0,0-.2,0,.5.5,0,0,0-.47.54,11.91,11.91,0,0,1,0,1.58,2,2,0,0,1-1,1.51,3.07,3.07,0,0,1-1.9.49,3.36,3.36,0,0,1-1.88-.76,2.24,2.24,0,0,1-.63-.74,2.12,2.12,0,0,1-.24-.94C408.82,384.6,410.77,383.28,411.6,382.9Z"/><path class="cls-1" d="M416,288.1l.12-2.78a2.87,2.87,0,0,0-.16-1.13,2.82,2.82,0,0,0-.58-1,2.85,2.85,0,0,0-.92-.65,3,3,0,0,0-1.12-.24,3.24,3.24,0,0,0-1.14.21,3,3,0,0,0-1,.62,3.25,3.25,0,0,0-.7.95,3,3,0,0,0-.29,1.13l-.13,2.86a7.43,7.43,0,0,1-.36,2h-1.28a1.29,1.29,0,0,0-.86.35,1.32,1.32,0,0,0-.39.85l-.15,3.58a.45.45,0,0,0,.14.36.48.48,0,0,0,.36.15h3.08l-.55,12.43.46,3.1a.51.51,0,0,0,.15.31.5.5,0,0,0,.33.12h2.06a.54.54,0,0,0,.34-.12.63.63,0,0,0,.19-.31l.65-3.08.55-12.43h3.1a.53.53,0,0,0,.37-.15.48.48,0,0,0,.16-.36l.16-3.58a1.13,1.13,0,0,0-1.14-1.19h-1.22A7.14,7.14,0,0,1,416,288.1Zm-1.69,6.22.14-3.21h1l-.14,3.21Zm-2.06,0,.15-3.21h1l-.14,3.21Zm-2,0,.14-3.21h1.08l-.15,3.21Zm.92-6.22.12-2.78a2,2,0,0,1,.63-1.36,2,2,0,0,1,1.38-.56,1.81,1.81,0,0,1,1.84,1.92L415,288.1a8.19,8.19,0,0,0,.15,2h-4.33A7.39,7.39,0,0,0,411.15,288.1Zm-2.84,3.14a.09.09,0,0,1,0-.05.05.05,0,0,1,0,0l0,0h.95l-.14,3.21h-1Zm4.92,16.4-.54,2.62h-1.2l-.32-2.62.54-12.29h2.06Zm4.32-16.4-.14,3.08h-1l.15-3.21h1a.09.09,0,0,1,.06,0,.09.09,0,0,1,0,.07.17.17,0,0,1,0,.07Z"/><path class="cls-1" d="M403.54,294.24a.56.56,0,0,0,.37-.15.58.58,0,0,0,.17-.37l.16-3.58a1.14,1.14,0,0,0-1.15-1.19h-1.7a5.82,5.82,0,0,1-.15-1.56l.1-2.32a2.3,2.3,0,0,0-.15-1,2.45,2.45,0,0,0-.51-.83,2.6,2.6,0,0,0-.8-.55,2.47,2.47,0,0,0-1-.19,2.55,2.55,0,0,0-1,.19,2.7,2.7,0,0,0-1.44,1.38,2.77,2.77,0,0,0-.24,1l-.1,2.32a7,7,0,0,1-.27,1.56h-1.75a1.29,1.29,0,0,0-.86.35,1.24,1.24,0,0,0-.38.84l-.16,3.58a.5.5,0,0,0,.13.37.51.51,0,0,0,.36.15h1.54l0,.73a4.48,4.48,0,0,0-1.57,1.52,4.31,4.31,0,0,0-.65,2.06L392,310.13a3,3,0,0,0,.16,1.19,2.75,2.75,0,0,0,.62,1,2.89,2.89,0,0,0,1,.68,3.16,3.16,0,0,0,1.18.25h5.15a3.27,3.27,0,0,0,3.22-3.1l.51-11.57a4,4,0,0,0-1.89-3.59l0-.72ZM396,290h1l-.14,3.21h-1Zm2.06,0h1l-.14,3.21h-1Zm2.06,0h1l-.14,3.21h-1Zm3.08.13-.14,3.08h-1l.14-3.21h1a.1.1,0,0,1,.06.05.12.12,0,0,1,0,.08Zm-6-2.72.1-2.31a1.64,1.64,0,0,1,.49-1.08,1.61,1.61,0,0,1,1.1-.44,1.46,1.46,0,0,1,1.05.44,1.51,1.51,0,0,1,.4,1.08l-.11,2.31a7.36,7.36,0,0,0,.11,1.56h-3.33a6.85,6.85,0,0,0,.24-1.56Zm-3.23,2.72a.15.15,0,0,1,0-.09.13.13,0,0,1,.1,0h.89l-.14,3.21h-1Zm8.51,17H393.2l.36-8.24h9.26Zm-2.29,5.15H395a2.09,2.09,0,0,1-.78-.16,2.05,2.05,0,0,1-.65-.45,1.92,1.92,0,0,1-.41-.67,2.11,2.11,0,0,1-.12-.79l.09-2.05h9.26l-.09,2.05a2.17,2.17,0,0,1-.64,1.45,2.2,2.2,0,0,1-1.46.62Zm1-16.51a3,3,0,0,1,1.08.86,3,3,0,0,1,.57,1.25H393.7a3.33,3.33,0,0,1,.67-1.24,3.38,3.38,0,0,1,1.11-.87.61.61,0,0,0,.19-.2.6.6,0,0,0,.06-.27l0-1h5.15l0,1a.48.48,0,0,0,.3.47Z"/><path class="cls-1" d="M395.71,304.6a2.17,2.17,0,0,0,.83,1.1,2.24,2.24,0,0,0,1.33.42,2.43,2.43,0,0,0,1.37-.42,2.55,2.55,0,0,0,.93-1.1v-.09a2.23,2.23,0,0,0,.14-1.05,2.31,2.31,0,0,0-.32-1l-1.46-2.39a.56.56,0,0,0-.3-.12.59.59,0,0,0-.32.09l-.14.14-1.67,2.39a2.63,2.63,0,0,0-.42,1,2.52,2.52,0,0,0,.05,1.06Zm1.17-1.57,1.2-1.69,1.06,1.69a1.21,1.21,0,0,1,.19.58,1.32,1.32,0,0,1-.09.62v.09a1.42,1.42,0,0,1-.51.65,1.37,1.37,0,0,1-.78.25,1.28,1.28,0,0,1-.76-.25,1.19,1.19,0,0,1-.45-.65v-.09a1.34,1.34,0,0,1,.21-1.2Z"/><path class="cls-26" d="M408.81,235.49l9.81,8.19a.72.72,0,0,1,.24.47.74.74,0,0,1-.15.5L417.57,246a.74.74,0,0,1-.47.22.77.77,0,0,1-.51-.13l-14.28,14.59a3.11,3.11,0,0,1-1.78.88,3.15,3.15,0,0,1-1.95-.37l-2.84,2.65a.68.68,0,0,1-.49.2.74.74,0,0,1-.49-.18l-1.65-1.37a.75.75,0,0,1-.14-1l2.11-3.25a3,3,0,0,1-.71-1.85,3.11,3.11,0,0,1,.56-1.91L406.78,238a.75.75,0,0,1-.19-1l1.15-1.38a.72.72,0,0,1,.5-.26.78.78,0,0,1,.53.17ZM393.6,262l1.64,1.37L398,260.8l-2.32-2Zm6.76-1.08a2.39,2.39,0,0,0,1.44-.69l4.53-4.61-7-5.88-3.77,5.23a2.39,2.39,0,0,0,.27,3l3.06,2.55a2.42,2.42,0,0,0,1.55.38Zm-.63-11.77,7.08,5.94,6.51-6.64-8.19-6.86Zm7.57-10.64-1.74,2.5,8.3,6.93,2.15-2.15Zm-.1-1.07L417,245.6l1.14-1.37-9.83-8.2-1.13,1.37Zm.86,11,.82.68a1.52,1.52,0,0,1,.34.41,1.21,1.21,0,0,1,.15.5,1.31,1.31,0,0,1,0,.52,1.4,1.4,0,0,1-.24.47,1.45,1.45,0,0,1-.4.34,1.52,1.52,0,0,1-.51.16,1.32,1.32,0,0,1-.52-.05,1.4,1.4,0,0,1-.47-.24l-.81-.69-.64.77a1.36,1.36,0,0,1-.41.34,1.46,1.46,0,0,1-.5.16,1.35,1.35,0,0,1-.53-.05,1.42,1.42,0,0,1-.47-.25,1.36,1.36,0,0,1-.34-.41,1.46,1.46,0,0,1-.16-.5,1.57,1.57,0,0,1,.05-.53,1.42,1.42,0,0,1,.25-.47l.64-.75-.76-.64a1.3,1.3,0,0,1-.47-.78,1.34,1.34,0,0,1,.82-1.5,1.35,1.35,0,0,1,.91,0,1.58,1.58,0,0,1,.46.25l.77.64.68-.82a1.35,1.35,0,0,1,.91-.5,1.38,1.38,0,0,1,1,.3,1.35,1.35,0,0,1,.5.91,1.37,1.37,0,0,1-.29,1Zm0,2.32a.58.58,0,0,0,.33-.14.66.66,0,0,0,.2-.29.63.63,0,0,0,0-.36.62.62,0,0,0-.18-.3l-1.06-.88a.41.41,0,0,1-.13-.25.43.43,0,0,1,.08-.27l.89-1.05a.66.66,0,0,0,.12-.45.64.64,0,0,0-.22-.4.6.6,0,0,0-.43-.14.58.58,0,0,0-.41.2l-.89,1.06-.08.07a.43.43,0,0,1-.22.06.4.4,0,0,1-.21-.09l-1.06-.88a.45.45,0,0,0-.21-.12.58.58,0,0,0-.39,0,.57.57,0,0,0-.29.26.59.59,0,0,0-.08.39.62.62,0,0,0,.18.35l1.06.88a.39.39,0,0,1,.12.25.35.35,0,0,1-.08.26l-.88,1.06a.57.57,0,0,0-.13.21.67.67,0,0,0,0,.24.61.61,0,0,0,.07.24.7.7,0,0,0,.15.19.53.53,0,0,0,.22.12.69.69,0,0,0,.25,0,.57.57,0,0,0,.42-.24l.88-1a.36.36,0,0,1,.16-.11.31.31,0,0,1,.19,0,.46.46,0,0,1,.16.07l1.05.89a.68.68,0,0,0,.46.14Z"/><path class="cls-1" d="M400.52,215a.32.32,0,0,0-.2.08.3.3,0,0,0-.1.19l-.23,2.52a1.27,1.27,0,0,0,.32,1,1.23,1.23,0,0,0,1,.4l6.55-.11a1.64,1.64,0,0,0,1.55-1.45l.89-9.54h.54l.1,0,.1-.06a.36.36,0,0,0,.07-.1.36.36,0,0,0,0-.1l.15-1.55a1.09,1.09,0,0,0-.05-.44,1,1,0,0,0-.21-.38,1,1,0,0,0-.36-.25,1.32,1.32,0,0,0-.44-.08l-5.46.1a.32.32,0,0,0-.17.09.29.29,0,0,0-.08.18.23.23,0,0,0,0,.18.27.27,0,0,0,.15.1l5.46-.1a.59.59,0,0,1,.23,0,.45.45,0,0,1,.19.14.37.37,0,0,1,.12.2.58.58,0,0,1,0,.23l-.12,1.28-7,.12a.17.17,0,0,0-.12,0l-.11.05a.43.43,0,0,0-.09.1.27.27,0,0,0,0,.12.25.25,0,0,0,0,.12.31.31,0,0,0,.07.09.21.21,0,0,0,.1.06.24.24,0,0,0,.12,0l6.2-.11-.14,1.49-5.57.1a1.26,1.26,0,0,0-.87.36,1.3,1.3,0,0,0-.43.84l-.43,4.57a1.14,1.14,0,0,0,.05.45,1.11,1.11,0,0,0,.22.38,1.08,1.08,0,0,0,.36.24,1.12,1.12,0,0,0,.45.08l5.52-.1-.1,1.13a1,1,0,0,1-.32.62,1,1,0,0,1-.64.27l-6.55.12a.86.86,0,0,1-.58-.27.82.82,0,0,1-.21-.59l.24-2.56a.29.29,0,0,0-.06-.19.27.27,0,0,0-.19-.08Zm2.36.49.43-4.61a.67.67,0,0,1,.07-.24.65.65,0,0,1,.16-.21.64.64,0,0,1,.22-.14.53.53,0,0,1,.25-.05l5.52-.1L409,216l-5.52.09a.57.57,0,0,1-.43-.18.61.61,0,0,1-.14-.44Z"/><path class="cls-1" d="M392.11,217.27s5.19,2,5.23,2a.25.25,0,0,0,.16,0,.35.35,0,0,0,.11-.13l.44-.94a.9.9,0,0,0,.09-.32.72.72,0,0,0,0-.33.74.74,0,0,0-.16-.27.56.56,0,0,0-.26-.17l-1.1-.44.75-1.57,1.36.54a.81.81,0,0,0,.27,0,.67.67,0,0,0,.28-.06,1,1,0,0,0,.25-.16.81.81,0,0,0,.17-.24l.31-.65a.73.73,0,0,0,.06-.5.57.57,0,0,0-.3-.36l4.73-9.7a.89.89,0,0,0,.06-.64.81.81,0,0,0-.38-.47l.59-1.2a.77.77,0,0,0,.07-.26.71.71,0,0,0,0-.25.67.67,0,0,0-.13-.21.46.46,0,0,0-.2-.13l.26-.51a.59.59,0,0,0,0-.45.54.54,0,0,0-.3-.31l-.29-.11,2.39-4.89a.23.23,0,0,0,0-.2.24.24,0,0,0-.13-.15l-.11,0a.38.38,0,0,0-.1,0,.21.21,0,0,0-.1.06.28.28,0,0,0-.06.09l-2.39,4.89-.29-.09a.85.85,0,0,0-.22,0,.6.6,0,0,0-.23.06.57.57,0,0,0-.21.13.67.67,0,0,0-.14.19l-.24.51a.65.65,0,0,0-.51,0,.78.78,0,0,0-.38.36l-.59,1.2a1,1,0,0,0-.64.08,1.11,1.11,0,0,0-.49.47L395,211.84a.73.73,0,0,0-.5.06.87.87,0,0,0-.38.38l-.32.64a1,1,0,0,0-.08.28.8.8,0,0,0,0,.27.59.59,0,0,0,.14.23.57.57,0,0,0,.23.15l1.36.53-.78,1.58-1.12-.45a.87.87,0,0,0-.32-.06,1,1,0,0,0-.34.08.81.81,0,0,0-.29.19.86.86,0,0,0-.21.29l-.44.93a.23.23,0,0,0,0,.11.34.34,0,0,0,0,.1.41.41,0,0,0,.05.09.26.26,0,0,0,.09,0Zm11-17.59,1.06.43v0l-.24.5-1.14-.45.24-.5h.06Zm-1.2.95a.12.12,0,0,1,.07-.07.18.18,0,0,1,.1,0l2.08.82a.12.12,0,0,1,.06.06.17.17,0,0,1,0,.1l-.59,1.2-2.23-.92Zm-1.69,1.72a.48.48,0,0,1,.09-.11.25.25,0,0,1,.12-.08.31.31,0,0,1,.13,0,.28.28,0,0,1,.13,0l3.15,1.23a.29.29,0,0,1,.17.17.36.36,0,0,1,0,.25l-.62,1.25-.62-.25h-.11a.18.18,0,0,0-.1,0,.21.21,0,0,0-.1.06.24.24,0,0,0-.06.09.23.23,0,0,0,0,.21.24.24,0,0,0,.13.15l.63.24-.53,1.05-.63-.25-.1,0-.11,0-.09.06a.23.23,0,0,0-.07.1.19.19,0,0,0,0,.1.2.2,0,0,0,0,.11.22.22,0,0,0,.05.08.24.24,0,0,0,.09.06l.63.25-.52,1.06-1.21-.48a.3.3,0,0,0-.21,0,.35.35,0,0,0-.16.16.19.19,0,0,0,0,.1.21.21,0,0,0,0,.11.22.22,0,0,0,0,.08.16.16,0,0,0,.08.06l1.22.47-.52,1.07-.63-.25-.11,0-.1,0-.1.06-.07.09,0,.11a.43.43,0,0,0,0,.11.16.16,0,0,0,.06.08.24.24,0,0,0,.08.06l.63.24-.52,1.07-.63-.25a.31.31,0,0,0-.21,0,.29.29,0,0,0-.16.15.31.31,0,0,0,0,.21.32.32,0,0,0,.14.14l.63.25-.79,1.62L395.47,212Zm-5.92,10.77.32-.66,0-.05.05,0h.11l4.62,1.78,0,0,0,0s0,0,0,.06,0,0,0,.06l-.29.69,0,.05-.05,0-.06,0H399l-4.62-1.78a.16.16,0,0,1-.08-.08.14.14,0,0,1,0-.11Zm1.67,1.44.9.35-.77,1.58-.9-.36Zm-3,1.64a.35.35,0,0,1,.19-.17.27.27,0,0,1,.23,0l4.08,1.6a.26.26,0,0,1,.15.16.29.29,0,0,1,0,.24l-.32.64-4.64-1.78Z"/><path class="cls-1" d="M408.16,212.1h-.81l.08-.81a.26.26,0,0,0-.07-.19.25.25,0,0,0-.19-.07l-1.46,0a.27.27,0,0,0-.19.08.32.32,0,0,0-.1.2l-.08.81h-.81a.32.32,0,0,0-.2.08.3.3,0,0,0-.1.19l-.13,1.46a.22.22,0,0,0,.06.19.23.23,0,0,0,.18.08h.81l-.07.81a.22.22,0,0,0,.06.19.24.24,0,0,0,.18.07l1.46,0a.29.29,0,0,0,.21-.09.35.35,0,0,0,.1-.19l.07-.81H408a.27.27,0,0,0,.2-.09.26.26,0,0,0,.1-.2l.14-1.41a.24.24,0,0,0,0-.12.31.31,0,0,0-.05-.1.27.27,0,0,0-.2-.08Zm-.42,1.49-.82,0a.32.32,0,0,0-.2.08.28.28,0,0,0-.09.19l-.08.81-.93,0,.07-.81a.2.2,0,0,0,0-.11.41.41,0,0,0-.05-.09l-.09,0a.18.18,0,0,0-.1,0l-.81,0,.09-.94h.8l.11,0a.33.33,0,0,0,.1-.06l.07-.09a.26.26,0,0,0,0-.11l.08-.8.93,0-.08.8a.41.41,0,0,0,0,.11.41.41,0,0,0,.05.09l.09.06a.16.16,0,0,0,.1,0h.81Z"/><path class="cls-1" d="M416.24,215.87l-4,.07a1.74,1.74,0,0,0-.64.09,1.87,1.87,0,0,0-1,.86,1.77,1.77,0,0,0-.19.63,1.62,1.62,0,0,0,.07.62,1.42,1.42,0,0,0,.32.51,1.46,1.46,0,0,0,.52.32,1.65,1.65,0,0,0,.63.07l4-.07a1.77,1.77,0,0,0,.64-.09,1.88,1.88,0,0,0,.58-.34,2,2,0,0,0,.42-.53,1.94,1.94,0,0,0,.19-.62,1.44,1.44,0,0,0-.08-.62,1.23,1.23,0,0,0-.32-.51,1.27,1.27,0,0,0-.52-.32A1.43,1.43,0,0,0,416.24,215.87Zm-5.14,1.63a1.18,1.18,0,0,1,1.11-1l1.72,0-.2,2.06-1.73,0a1,1,0,0,1-.38-.08.79.79,0,0,1-.31-.23.72.72,0,0,1-.18-.33A.9.9,0,0,1,411.1,217.5Zm4.9,1-1.72,0,.19-2.06,1.72,0a.88.88,0,0,1,.68.28.87.87,0,0,1,.23.71,1.09,1.09,0,0,1-.36.71,1.17,1.17,0,0,1-.74.31Z"/><path class="cls-1" d="M412.22,212.39a2.61,2.61,0,0,0,.36.55,2.37,2.37,0,0,0,1.46.76,2.87,2.87,0,0,0,1.73-.33,3.16,3.16,0,0,0,1.28-1.28,2.8,2.8,0,0,0,.32-1.71,2.33,2.33,0,0,0-.55-1.2,2.41,2.41,0,0,0-1.81-.78,3.07,3.07,0,0,0-2.81,2,2.64,2.64,0,0,0-.16,1.38A2.76,2.76,0,0,0,412.22,212.39Zm3.33.52a2.26,2.26,0,0,1-1.19.27,2,2,0,0,1-1.08-.38l3.57-1.92a2.38,2.38,0,0,1-.38,1.16,2.42,2.42,0,0,1-.91.86Zm-2.65-.5a3,3,0,0,1-.28-.61l3.92-2.09a2.8,2.8,0,0,1,.28.61Zm.94-3.2a2.42,2.42,0,0,1,1.19-.28,2,2,0,0,1,1.09.39l-3.56,1.92a2.29,2.29,0,0,1,.36-1.17A2.62,2.62,0,0,1,413.84,209.21Z"/><path class="cls-1" d="M398,429.49a1.79,1.79,0,0,0,1.12-.21,1.69,1.69,0,0,0,.74-.82,1.91,1.91,0,0,0,.12-1.16,2.28,2.28,0,0,0-.55-1.11,2.34,2.34,0,0,0-1-.67,2,2,0,0,0-1.16,0,1.77,1.77,0,0,0-.91.65,1.86,1.86,0,0,0-.34,1.09,2.29,2.29,0,0,0,.59,1.5A2.24,2.24,0,0,0,398,429.49Zm0-2.92a1,1,0,0,1,.53.22,1.2,1.2,0,0,1,.36.48,1,1,0,0,1,.05.57.81.81,0,0,1-.26.47.83.83,0,0,1-.5.21.94.94,0,0,1-.56-.12,1,1,0,0,1-.43-.41.94.94,0,0,1-.16-.56.82.82,0,0,1,.06-.38.79.79,0,0,1,.2-.31.94.94,0,0,1,.32-.19,1,1,0,0,1,.39,0Z"/><path class="cls-1" d="M398,433.61a1.89,1.89,0,0,0-1.12.22,1.69,1.69,0,0,0-.74.82,2,2,0,0,0-.12,1.16,2.34,2.34,0,0,0,.55,1.1,2.25,2.25,0,0,0,1,.67,1.92,1.92,0,0,0,1.16,0,1.7,1.7,0,0,0,.91-.64,1.88,1.88,0,0,0,.34-1.09,2.19,2.19,0,0,0-.58-1.5A2.25,2.25,0,0,0,398,433.61Zm0,2.93a1,1,0,0,1-.54-.23,1.15,1.15,0,0,1-.36-.48,1,1,0,0,1-.05-.57.86.86,0,0,1,.27-.47.84.84,0,0,1,.49-.21,1.09,1.09,0,0,1,.56.12,1.24,1.24,0,0,1,.44.41,1.13,1.13,0,0,1,.16.56,1,1,0,0,1-.07.38.79.79,0,0,1-.2.31.92.92,0,0,1-.32.18,1,1,0,0,1-.38,0Z"/><path class="cls-1" d="M398,441.79a1.86,1.86,0,0,0-1.12.22,1.69,1.69,0,0,0-.74.82A1.91,1.91,0,0,0,396,444a2.28,2.28,0,0,0,.55,1.11,2.34,2.34,0,0,0,1,.67,2,2,0,0,0,1.16,0,1.77,1.77,0,0,0,.91-.65,1.86,1.86,0,0,0,.34-1.09,2.31,2.31,0,0,0-2-2.26Zm0,2.93a1,1,0,0,1-.53-.23,1.1,1.1,0,0,1-.36-.47,1,1,0,0,1,0-.57.81.81,0,0,1,.26-.47.83.83,0,0,1,.5-.21.94.94,0,0,1,.56.12,1,1,0,0,1,.43.41.94.94,0,0,1,.16.56.76.76,0,0,1-.06.37.85.85,0,0,1-.21.31.94.94,0,0,1-.32.19,1.2,1.2,0,0,1-.38,0Z"/><path class="cls-1" d="M405.72,430.37a1.86,1.86,0,0,0,1.12-.21,1.68,1.68,0,0,0,.75-.83,2,2,0,0,0,.12-1.15,2.38,2.38,0,0,0-.55-1.11,2.34,2.34,0,0,0-1-.67,2,2,0,0,0-1.17,0,1.73,1.73,0,0,0-.9.65,1.83,1.83,0,0,0-.35,1.08,2.36,2.36,0,0,0,.59,1.5A2.25,2.25,0,0,0,405.72,430.37Zm0-2.92a1.11,1.11,0,0,1,.54.22,1.29,1.29,0,0,1,.36.48,1,1,0,0,1,.05.57.83.83,0,0,1-.27.47.81.81,0,0,1-.49.21.92.92,0,0,1-.56-.12,1.08,1.08,0,0,1-.44-.41,1.1,1.1,0,0,1-.16-.56.82.82,0,0,1,.06-.38.86.86,0,0,1,.53-.5,1,1,0,0,1,.38,0Z"/><path class="cls-1" d="M405.71,435.58a1.13,1.13,0,0,1,1,1.09.61.61,0,0,0,.16.4.61.61,0,0,0,.38.21.52.52,0,0,0,.39-.12.49.49,0,0,0,.16-.37,2.22,2.22,0,0,0-.3-1.1,2.5,2.5,0,0,0-.81-.84,2.27,2.27,0,0,0-1.08-.33,1.82,1.82,0,0,0-1,.29,1.75,1.75,0,0,0-.67.8,1.93,1.93,0,0,0-.11,1.09,2.29,2.29,0,0,0,.48,1.05,2.4,2.4,0,0,0,.94.7l.14,0a.51.51,0,0,0,.53-.33.61.61,0,0,0-.05-.42.62.62,0,0,0-.32-.3A1.11,1.11,0,0,1,405,437a1.08,1.08,0,0,1-.1-.61.83.83,0,0,1,.27-.51.8.8,0,0,1,.54-.22Z"/><path class="cls-1" d="M418.78,449.87l-5.17-.59a4.94,4.94,0,0,0,.84-.6,5.33,5.33,0,0,0,1.68-2.94,6.29,6.29,0,0,0-.34-3.57,7.13,7.13,0,0,0-2.23-3,6.66,6.66,0,0,0-3.37-1.41,5.58,5.58,0,0,0-3.38.64,5.29,5.29,0,0,0-2.25,2.49,6,6,0,0,0-.35,3.5,7.08,7.08,0,0,0,2.49,4.11l-4.33-.5,0-7.12.66.08a.51.51,0,0,0,.38-.12.49.49,0,0,0,.16-.37.61.61,0,0,0-.16-.4.61.61,0,0,0-.38-.21l-.66-.07,0-7.32,6.59.76V436a.61.61,0,0,0,.16.4.61.61,0,0,0,.38.21.52.52,0,0,0,.39-.12.49.49,0,0,0,.16-.37l0-9.6a2.8,2.8,0,0,0-2.41-2.71l-11.63-1.33a2.18,2.18,0,0,0-1.71.52,2,2,0,0,0-.52.73,2.27,2.27,0,0,0-.19.9l-.06,21A2.63,2.63,0,0,0,394,447l-1.59-.18a.48.48,0,0,0-.55.48.62.62,0,0,0,.16.41.59.59,0,0,0,.38.2l26.39,3a.44.44,0,0,0,.38-.12.48.48,0,0,0,.16-.36.59.59,0,0,0-.16-.41.62.62,0,0,0-.38-.2Zm-12.12-10a4.44,4.44,0,0,1,3.25-1.09,5.55,5.55,0,0,1,3.39,1.48l-7,6.26a5.49,5.49,0,0,1-1.08-3.54A4.42,4.42,0,0,1,406.66,439.91Zm.37,7.51,7.09-6.25a5.55,5.55,0,0,1,1.08,3.54,4.38,4.38,0,0,1-4.73,4.2,5.52,5.52,0,0,1-3.39-1.48Zm-12.27-15.81,6.59.75,0,7.32-6.58-.76Zm14.28-5.2,0,5.78-6.61-.76,0-7.14,5.26.6a1.59,1.59,0,0,1,.93.5,1.51,1.51,0,0,1,.39,1Zm-13-2.85,5.26.61,0,7.11-6.57-.75,0-5.78a1.2,1.2,0,0,1,.38-.89A1.24,1.24,0,0,1,396.09,423.56Zm-1.37,22.22V440l6.59.75,0,7.1-5.28-.6a1.56,1.56,0,0,1-.92-.5A1.48,1.48,0,0,1,394.72,445.78Z"/><path class="cls-3" d="M419.73,136.32a2.82,2.82,0,0,1-.81.46,4.14,4.14,0,0,1-1.09.21,3.89,3.89,0,0,1-1.39-.13,1,1,0,0,1-.68-.68c-.4-1.34-.72-2.42-1-3.24s-.45-1.57-.59-2.2h-.12c-.07.92-.13,1.77-.19,2.53s-.07,1.48-.11,2.19,0,1.44-.11,2.17-.09,1.54-.16,2.43a3.54,3.54,0,0,1-.8.23,4.66,4.66,0,0,1-1,.16,3.18,3.18,0,0,1-1.59-.23,1.16,1.16,0,0,1-.53-1.16l1-11.92a2.43,2.43,0,0,1,.84-.7,3.91,3.91,0,0,1,1.78-.46,3.71,3.71,0,0,1,1.92.28,2,2,0,0,1,1,1.17c.13.37.27.79.41,1.26s.3,1,.44,1.46.31,1,.45,1.51.26.93.38,1.33h.11q.62-2,1.23-3.84c.41-1.25.78-2.3,1.11-3.14a3.83,3.83,0,0,1,.9-.36,5.63,5.63,0,0,1,1.23-.21,4.29,4.29,0,0,1,1.86.24,1.18,1.18,0,0,1,.81.9c.05.31.1.79.14,1.44s.12,1.35.17,2.15.11,1.65.16,2.55.09,1.76.13,2.6.09,1.57.12,2.27,0,1.21.05,1.58a3.08,3.08,0,0,1-.85.38,4.74,4.74,0,0,1-1.1.18,3.19,3.19,0,0,1-1.48-.22,1.14,1.14,0,0,1-.61-1.14q-.07-2.54-.06-4.56c0-1.35,0-2.48,0-3.4h-.12c-.17.61-.42,1.39-.74,2.32S420.19,134.86,419.73,136.32Zm9-9A2.24,2.24,0,0,1,431,125l7.68-.46a2.59,2.59,0,0,1,.26.66,2.8,2.8,0,0,1,.11.88,1.81,1.81,0,0,1-.43,1.28,1.49,1.49,0,0,1-1,.43l-4.92.3-.06,2.16,5.24-.31a2.32,2.32,0,0,1,.26.66,2.57,2.57,0,0,1,.11.85,1.86,1.86,0,0,1-.41,1.28,1.46,1.46,0,0,1-1,.44l-4.28.25-.07,2.45,6-.36a2.59,2.59,0,0,1,.26.66,2.8,2.8,0,0,1,.11.88,1.86,1.86,0,0,1-.43,1.3,1.48,1.48,0,0,1-1,.44l-6.8.4a1.82,1.82,0,0,1-2.1-2Zm16.54,7.92.62.05c.25,0,.48,0,.7,0a4.46,4.46,0,0,0,1.45-.31,3.26,3.26,0,0,0,1.16-.8,3.37,3.37,0,0,0,.78-1.3,5.91,5.91,0,0,0,.34-1.9,4.16,4.16,0,0,0-.89-3.09,3.08,3.08,0,0,0-2.57-.92l-.68.07c-.22,0-.44.06-.68.11Zm1.2,3.32c-.26,0-.56,0-.91,0a9.58,9.58,0,0,1-1.06,0,10.37,10.37,0,0,1-1.09-.12,4.23,4.23,0,0,1-1-.22,1.53,1.53,0,0,1-1.23-1.62l.31-10.88a1.11,1.11,0,0,1,.28-.77,2.11,2.11,0,0,1,.76-.48,9.79,9.79,0,0,1,2.13-.55,18.64,18.64,0,0,1,2-.23,11,11,0,0,1,3.27.24,6.1,6.1,0,0,1,2.5,1.22,5.36,5.36,0,0,1,1.58,2.21,8.37,8.37,0,0,1,.49,3.28,9.21,9.21,0,0,1-.66,3.29,7,7,0,0,1-1.67,2.43,7.53,7.53,0,0,1-2.51,1.55A11,11,0,0,1,446.51,138.55Zm14.23-1.31a6.61,6.61,0,0,1-.81.18,8,8,0,0,1-1.08.14,4.14,4.14,0,0,1-1,0,1.38,1.38,0,0,1-.66-.24,1.09,1.09,0,0,1-.41-.56,2.9,2.9,0,0,1-.11-1l.36-12.3c.17,0,.44-.1.82-.16a6,6,0,0,1,1.07-.16,3.88,3.88,0,0,1,.93,0,1.41,1.41,0,0,1,.69.23,1.11,1.11,0,0,1,.4.56,2.69,2.69,0,0,1,.11,1Zm10.54-11.8a3.76,3.76,0,0,0-2.78,1.26,4.93,4.93,0,0,0-1,3.16,4,4,0,0,0,1,3.06,3.56,3.56,0,0,0,2.83.92,4.86,4.86,0,0,0,1.62-.35,13,13,0,0,0,1.29-.66,2,2,0,0,1,.59.75,2.22,2.22,0,0,1,.2,1,2.14,2.14,0,0,1-1.12,1.69,6.59,6.59,0,0,1-3.23.85,9.28,9.28,0,0,1-2.92-.27,5.89,5.89,0,0,1-2.36-1.21,6,6,0,0,1-1.56-2.23,8.48,8.48,0,0,1-.48-3.34,8.72,8.72,0,0,1,.65-3.23,7.83,7.83,0,0,1,1.63-2.45,7.51,7.51,0,0,1,2.37-1.58,8.48,8.48,0,0,1,2.85-.66,6.08,6.08,0,0,1,3.28.5,1.84,1.84,0,0,1,1.14,1.72,1.87,1.87,0,0,1-.34,1.07,2.65,2.65,0,0,1-.71.74,6.91,6.91,0,0,0-1.29-.6A3.86,3.86,0,0,0,471.28,125.44ZM481.13,136a6.88,6.88,0,0,1-.82.18,7.84,7.84,0,0,1-1.07.14,4.08,4.08,0,0,1-.95,0,1.38,1.38,0,0,1-.67-.24,1.09,1.09,0,0,1-.4-.55,2.72,2.72,0,0,1-.11-1l.36-12.31c.17,0,.44-.1.81-.16a6.13,6.13,0,0,1,1.08-.16,3.82,3.82,0,0,1,.92,0,1.52,1.52,0,0,1,.69.23,1.13,1.13,0,0,1,.41.56,2.94,2.94,0,0,1,.11,1Zm15.8-1.34a2.2,2.2,0,0,1-1,.54,5.41,5.41,0,0,1-1.47.28,5.11,5.11,0,0,1-1.63-.16,2,2,0,0,1-1.22-1.16l-2.16-4.57c-.22-.47-.42-.91-.59-1.32s-.36-.91-.56-1.45l-.15,0c0,.84.05,1.69,0,2.56s0,1.72,0,2.56l-.1,3.61a6.89,6.89,0,0,1-.8.19,7.11,7.11,0,0,1-1,.13,4.44,4.44,0,0,1-.91,0,1.23,1.23,0,0,1-.64-.24,1.1,1.1,0,0,1-.38-.53,2.43,2.43,0,0,1-.11-.95l.33-11.65a2.23,2.23,0,0,1,1-.76,4.58,4.58,0,0,1,1.45-.32,4.81,4.81,0,0,1,1.62.18,1.92,1.92,0,0,1,1.22,1.14l2.19,4.57c.22.47.41.91.59,1.34s.36.88.56,1.43l.12,0c0-.84-.06-1.68-.05-2.51s0-1.68.05-2.52l.11-3.77a6.6,6.6,0,0,1,.77-.19,7.92,7.92,0,0,1,1.05-.13,2.55,2.55,0,0,1,1.55.28c.35.21.52.7.49,1.46ZM500.29,123a2.22,2.22,0,0,1,2.22-2.3l7.68-.46a2.27,2.27,0,0,1,.26.66,2.57,2.57,0,0,1,.12.88,1.81,1.81,0,0,1-.43,1.28,1.49,1.49,0,0,1-1,.43l-4.91.3-.06,2.17,5.24-.32a3.18,3.18,0,0,1,.37,1.51,1.89,1.89,0,0,1-.41,1.29,1.49,1.49,0,0,1-1,.43l-4.28.25L504,131.6l6-.36a2.59,2.59,0,0,1,.26.66,2.83,2.83,0,0,1,.11.88,1.93,1.93,0,0,1-.43,1.31,1.51,1.51,0,0,1-1,.43l-6.8.4a1.81,1.81,0,0,1-2.1-2Zm-84,35.89.63.05c.24,0,.48,0,.69,0a4.46,4.46,0,0,0,1.45-.31,3.17,3.17,0,0,0,1.16-.8,3.52,3.52,0,0,0,.79-1.3,5.92,5.92,0,0,0,.33-1.9,4.12,4.12,0,0,0-.89-3.09,3.08,3.08,0,0,0-2.57-.92l-.68.07c-.21,0-.44.06-.67.11Zm1.2,3.32q-.39,0-.9,0a9.76,9.76,0,0,1-1.07,0,10.37,10.37,0,0,1-1.09-.12,4.46,4.46,0,0,1-1-.22,1.55,1.55,0,0,1-1.23-1.62l.32-10.88a1.11,1.11,0,0,1,.27-.77,2.2,2.2,0,0,1,.76-.48,9.79,9.79,0,0,1,2.13-.55,19.23,19.23,0,0,1,2-.23,11,11,0,0,1,3.27.24,6,6,0,0,1,2.5,1.22A5.38,5.38,0,0,1,425,151a8.2,8.2,0,0,1,.48,3.28,9.21,9.21,0,0,1-.65,3.29,7.15,7.15,0,0,1-1.68,2.43,7.49,7.49,0,0,1-2.5,1.55A11.09,11.09,0,0,1,417.46,162.24ZM428,149.31a2.24,2.24,0,0,1,2.23-2.3l7.68-.46a2.59,2.59,0,0,1,.26.66,2.8,2.8,0,0,1,.11.88,1.81,1.81,0,0,1-.43,1.28,1.47,1.47,0,0,1-1,.43l-4.91.3-.07,2.16,5.24-.31a2.32,2.32,0,0,1,.26.66,2.57,2.57,0,0,1,.11.85,1.81,1.81,0,0,1-.41,1.28,1.46,1.46,0,0,1-1,.44l-4.28.25-.07,2.45,6-.36a2.59,2.59,0,0,1,.26.66,2.83,2.83,0,0,1,.11.88,1.86,1.86,0,0,1-.43,1.3,1.46,1.46,0,0,1-1,.44l-6.8.4a1.82,1.82,0,0,1-2.1-2Zm14.56,11.13a1.82,1.82,0,0,1-2.1-2l.35-12.05.82-.16a6,6,0,0,1,1.07-.16,3.88,3.88,0,0,1,.93,0,1.42,1.42,0,0,1,.69.24,1.07,1.07,0,0,1,.4.56,2.64,2.64,0,0,1,.12,1l-.27,9.2,5.33-.32a3.25,3.25,0,0,1,.28.68,2.83,2.83,0,0,1,.11.88,2,2,0,0,1-.43,1.35,1.6,1.6,0,0,1-1.06.44Zm13.85-1a6.47,6.47,0,0,1-.82.19,8,8,0,0,1-1.07.13,4.78,4.78,0,0,1-.95,0,1.61,1.61,0,0,1-.67-.24,1.11,1.11,0,0,1-.4-.56,2.49,2.49,0,0,1-.11-1l.35-12.31.82-.16a6.17,6.17,0,0,1,1.07-.16,3.88,3.88,0,0,1,.93,0,1.42,1.42,0,0,1,.69.24,1.09,1.09,0,0,1,.4.55,2.7,2.7,0,0,1,.12,1Zm11.47-1.06a3.12,3.12,0,0,1-1,.55,5.12,5.12,0,0,1-1.5.3,4.31,4.31,0,0,1-1.67-.18,1.58,1.58,0,0,1-.93-.76c-.16-.35-.35-.79-.59-1.34s-.47-1.18-.73-1.86l-.77-2.16c-.26-.78-.51-1.56-.75-2.35s-.46-1.57-.68-2.34-.39-1.48-.54-2.15a3.85,3.85,0,0,1,2.29-1,2.25,2.25,0,0,1,1.38.29,1.87,1.87,0,0,1,.78,1.28c.37,1.5.75,2.93,1.13,4.31s.8,2.77,1.22,4.25h.14q.69-2.22,1.42-4.85c.5-1.75,1-3.5,1.43-5.23a6.51,6.51,0,0,1,.89-.4,4.57,4.57,0,0,1,1.1-.21,2.53,2.53,0,0,1,1.46.31,1.24,1.24,0,0,1,.56,1.22,6.64,6.64,0,0,1-.3,1.51q-.26,1-.69,2.25c-.27.83-.58,1.69-.93,2.59s-.68,1.77-1,2.58-.65,1.5-.95,2.12A8.27,8.27,0,0,1,467.85,158.39Zm6.64-11.87a2.32,2.32,0,0,1,.63-1.61,2.29,2.29,0,0,1,1.6-.68l7.68-.46a2.32,2.32,0,0,1,.26.66,2.76,2.76,0,0,1,.11.88,1.83,1.83,0,0,1-.43,1.28,1.51,1.51,0,0,1-1,.43l-4.91.29-.07,2.17,5.24-.31a2.32,2.32,0,0,1,.26.66,2.57,2.57,0,0,1,.11.85,1.81,1.81,0,0,1-.41,1.28,1.45,1.45,0,0,1-1,.43l-4.28.26-.07,2.45,6-.36a2.32,2.32,0,0,1,.26.66,2.76,2.76,0,0,1,.11.88,1.86,1.86,0,0,1-.43,1.3,1.45,1.45,0,0,1-1,.43l-6.8.41a1.82,1.82,0,0,1-2.1-2Zm16.58,6.39-.13,4.47a6.07,6.07,0,0,1-.82.19,7.63,7.63,0,0,1-1.07.13,4.17,4.17,0,0,1-.95,0,1.45,1.45,0,0,1-.67-.24,1.2,1.2,0,0,1-.37-.56,2.67,2.67,0,0,1-.12-1l.32-11a1.13,1.13,0,0,1,.28-.76,2.06,2.06,0,0,1,.76-.48,8.67,8.67,0,0,1,1.85-.51,15.43,15.43,0,0,1,2.24-.27,6.94,6.94,0,0,1,4.8,1.06,4.08,4.08,0,0,1,1.52,3.56,4.38,4.38,0,0,1-.82,2.51,5.91,5.91,0,0,1-1.81,1.69c.54.73,1.07,1.41,1.59,2.05a12.37,12.37,0,0,1,1.23,1.74,2.51,2.51,0,0,1-.9,1.31,2.55,2.55,0,0,1-1.39.5,3,3,0,0,1-.88-.06,2.09,2.09,0,0,1-.64-.29,2.51,2.51,0,0,1-.5-.48,4.93,4.93,0,0,1-.42-.63l-1.86-3Zm1.56-3.19a2.24,2.24,0,0,0,1.41-.53,1.9,1.9,0,0,0,.55-1.38,1.41,1.41,0,0,0-.54-1.29,2.62,2.62,0,0,0-1.78-.36,3.54,3.54,0,0,0-.56.06l-.47.09-.1,3.5Zm15.23,6.65a6.62,6.62,0,0,1-.79.19,10,10,0,0,1-1.05.13,2.87,2.87,0,0,1-1.6-.25c-.35-.23-.51-.73-.49-1.51l.09-3.15q-.56-.83-1.2-1.83t-1.26-2.07c-.42-.7-.8-1.39-1.15-2.07a17.39,17.39,0,0,1-.85-1.9,3.65,3.65,0,0,1,.84-.82,2.52,2.52,0,0,1,1.31-.43,2.45,2.45,0,0,1,1.45.29,2.94,2.94,0,0,1,1.06,1.33l1.82,3.78h.14c.23-.5.43-.94.59-1.34l.53-1.22c.16-.41.34-.83.52-1.26l.62-1.53a5.09,5.09,0,0,1,.95-.38,4,4,0,0,1,1-.17,1.93,1.93,0,0,1,1.36.36,1.32,1.32,0,0,1,.54,1.24,2.28,2.28,0,0,1-.14.69,8,8,0,0,1-.57,1.24c-.29.54-.72,1.29-1.29,2.24s-1.31,2.19-2.27,3.72Z"/><path class="cls-4" d="M251,495.44s73.43.22,74-4.32-9.85-5.8-9.85-5.8-87,2.5-88.22,5-1.46,6.59,6.34,6.21S251,495.44,251,495.44Z"/><path class="cls-27" d="M252.75,463.82a72.21,72.21,0,0,0-.46,12.76c.46,5.93-.45,8.66-.45,8.66l-13.68-2.73s-.91-9.12-.46-12.77,2.74-11.85,2.74-11.85Z"/><path class="cls-7" d="M231.45,490s-2.91,1.46,0,4.85,14.06,4.85,20.85,2.91,8.4-5.3,4.93-7S231.45,490,231.45,490Z"/><path class="cls-8" d="M245.75,496.07s-13.09,0-14.55-5.33,2.43-8.24,3.4-11.64,13.58-6.79,18.43-3.39,2.42,6.79,3.39,11.15S260.79,495.59,245.75,496.07Z"/><path class="cls-7" d="M282.83,485.7s-3.64,0-3.19,2.28,8.66,3.19,12.77,3.64,18.23,5,29.63,5.47,12.3-2.73,10-5S282.83,485.7,282.83,485.7Z"/><path class="cls-27" d="M285.57,455.61s.91,10.94,0,14.13-4.56,10-4.1,13.68,5.25,4.61,12.2,5,17.43-12.34,17.43-12.34-7.3-4.1-8.66-8.2,5-30.54,5-30.54Z"/><path class="cls-8" d="M292.86,488.43s10.49-14.13,16-15.5,10,6.84,14.13,10,8.66,5,9.12,7.75,0,4.1-9.58,4.1S297,489.8,292.86,488.43Z"/><path class="cls-28" d="M316.11,305.18c-3.65-39.66-10.94-62.91-10.94-62.91s-59.72-5.92-61.54,10.49-5.7,67.69-6.15,96.41S229,457,230.41,460.17s9.57,9.12,16.87,10,14.13-4.56,15-5.93.46-10,.46-18.23,5.35-45.17,7.5-68.75c1.83-20.23,8.52-62.64,9.43-62.18s2.57,37.31,3.86,57.89c1.2,19.19-1.65,84.89-1.19,86.26s4.1,3.64,12.76,4.56,18.69-.46,20.06-2.74,1.82-51.51,2.28-63.82S319.76,344.84,316.11,305.18Z"/><path class="cls-28" d="M286,283.91a1,1,0,0,0-2.07,0c-.1,4.78-1.51,12.58-2.23,17.29q-.54,3.42-1.3,6.8a41.6,41.6,0,0,0-1.35,6.3,1.41,1.41,0,0,0,2.6.71c2-3.91,2.41-9.09,3-13.41C285.21,296.71,286.11,288.84,286,283.91Zm5.39-39.61c-.44-1.88-3.22-1.07-2.87.79.81,4.22,1.87,8.36,2.34,12.63a15.38,15.38,0,0,1,.07,5.24c-.51,2.06-2.61,2.89-4.45,3.64A57.63,57.63,0,0,0,283.5,249a1,1,0,0,0-1.95.54,86.11,86.11,0,0,1,2.88,23.21c0,1.17,1.7,1.14,1.8,0,.12-1.36.18-2.74.21-4.11l.15,0c4.13-1,6.45-4,6.75-8.25C293.71,255.09,292.56,249.42,291.35,244.3ZM257,260.91c-2,8.57-6.33,16.07-11.19,23.29-1,1.43,1.3,3.22,2.41,1.86,5.75-7.08,8.93-15.79,10.8-24.6C259.3,260.15,257.31,259.59,257,260.91Z"/><path class="cls-29" d="M291.82,392.79c-.07-18-.72-36.14-1.86-54.12-.63-10.05-1.52-20.12-3.07-30.08-.1-.61-1.17-.47-1.1.15,2.06,18,3.1,36.05,3.71,54.16.3,8.92.64,17.85.67,26.78,0,9.13-.5,31-1.1,40.09-.66,10.16-1.19,20.35-.31,30.52.09,1.06,1.75,1.07,1.66,0C288.84,442.05,292,427.8,291.82,392.79Z"/><path class="cls-30" d="M408.37,134.46c-1.88-2.23-5.29-2.94-8.17-2.88-.12-.26.32-.92,0-.92-4.73,0-13.05,8.26-8.72,13a4.28,4.28,0,0,0,3.31,1.32,13.58,13.58,0,0,1,6.27,1.25,3.73,3.73,0,0,0,1.66.53,1.64,1.64,0,0,0,1.24-.67,1.62,1.62,0,0,0,.24-1.38c-.22-.77-1-1.28-1.27-2,.95.17,1.91.3,2.88.38a4.3,4.3,0,0,0,2-.13,1.82,1.82,0,0,0,1-1.22,13.89,13.89,0,0,0,0-1.77C410.67,138.46,409.92,136.32,408.37,134.46Z"/><path class="cls-27" d="M324.73,194.61s15.44,4.29,28.31-.43,27.44-27,30.44-32.16,4.59-8.52,5.88-9.38a26.27,26.27,0,0,0,4.84-3.48c1.72-1.72.86-3.43,3-3.86s7.72-.86,8.58-3.43.43-3.43-1.72-3.43-6.43,3.43-8.57,2.14-.86-3.43,1.28-5.57,11.8-10.45,11.8-12.22-.86-2.57-2.58-1.72-3.43,3.43-8.57,7.29-6.86,4.72-8.58,8.15-5.57,8.58-7.72,11.58-10.72,10.29-16.72,14.58S343.82,174.25,343,175.53s-11.09-2.3-10.91-2S324.73,194.61,324.73,194.61Z"/><path class="cls-30" d="M347.65,184.48c-.69-3-2.08-6.32-5.3-7.28a.62.62,0,0,0-.7.9,15.63,15.63,0,0,1,1.76,5.23c.1.63,1,.36,1-.26a19.13,19.13,0,0,0-.87-3.64,9.91,9.91,0,0,1,2.65,5.47C346.36,185.87,347.86,185.46,347.65,184.48Zm51.58-46.61a10.14,10.14,0,0,1-6,2.09.47.47,0,0,0-.12.93,8.23,8.23,0,0,0,7.22-1.87C401.19,138.33,400,137.25,399.23,137.87Z"/><path class="cls-23" d="M222.94,203.1A80.42,80.42,0,0,0,224.39,192c0-3.86.43-19.3,4.29-25.3s21-10.29,25.73-12.43,31.73,3,31.73,3,11.15,3,15.87,3.86,14.15,8.14,18.44,9,14.15,3.43,14.58,4.29-1.29,9-5.15,16.72-7.29,12.44-8.15,12.44-2.36-2.36-5.36-2.36-10.29-2.57-10.72-1.71-2.14,18.43-1.28,24.87,5.14,16.29,4.71,18-4.71,5.57-11.15,6.43-26.58.43-29.16,1.71-13.72,5.58-19.29,6-7.72.85-8.58-1.72,1.72-14.15,2.15-20.58-3.43-26.16-3.43-26.16l-9.44-7.72S222.78,204,222.94,203.1Z"/><path class="cls-23" d="M246.5,176.29c-.46-1.15-2.29-.7-1.9.53a69.14,69.14,0,0,1,3.08,20c0,2,3.19,2,3.12,0A61.38,61.38,0,0,0,246.5,176.29Zm61.1,5.46a81.7,81.7,0,0,0-3.16,17c-.12,1.56,2.52,1.94,2.75.38q1.21-8.55,2.14-17.14C309.45,181,307.87,180.82,307.6,181.75Z"/><path class="cls-31" d="M314.44,168.67c-.33-1-1.95-.6-1.63.44,1,3.3.09,7.67-.57,11a87.91,87.91,0,0,1-3,9.89.52.52,0,0,0,.94.4,37.31,37.31,0,0,0,3.77-11C314.63,176.05,315.49,172,314.44,168.67Zm-68.7,14.26a31.62,31.62,0,0,0-8-12.47c-2.57-2.42-7.08-4.37-9.76-1-.24.3.06.82.44.57,7.06-4.57,13.87,8.31,15.7,13.37C244.49,184.38,246.1,184,245.74,182.93Z"/><path class="cls-23" d="M243.05,234.28c-.07,1-.19,2.11-.34,3.29,3.13-1.32,6.88-3.52,8.7-6.94,3.43-6.43,7.29-22.72,7.29-22.72l-17.45,9.39C242.24,223.35,243.28,230.78,243.05,234.28Z"/><path class="cls-32" d="M246.5,176.29c-.46-1.15-2.29-.7-1.9.53a69.14,69.14,0,0,1,3.08,20c0,2,3.19,2,3.12,0A61.38,61.38,0,0,0,246.5,176.29Zm61.1,5.46a81.7,81.7,0,0,0-3.16,17c-.12,1.56,2.52,1.94,2.75.38q1.21-8.55,2.14-17.14C309.45,181,307.87,180.82,307.6,181.75Z"/><path class="cls-32" d="M243.05,234.28c-.07,1-.19,2.11-.34,3.29,3.13-1.32,6.88-3.52,8.7-6.94,3.43-6.43,7.29-22.72,7.29-22.72l-17.45,9.39C242.24,223.35,243.28,230.78,243.05,234.28Z"/><path class="cls-33" d="M287.86,155.59a10.47,10.47,0,0,1,3,7.72c0,5.15-6,9-6,9S290,183.47,289.14,195s-3.43,10.72-2.14,22.73,3,21,3,21-18,2.15-21.87,2.15-5.57-22.3-3.43-32.17,3-12.86,2.57-18.43-4.71-18.87-4.71-18.87l12.32-14.67Z"/><path class="cls-33" d="M262,145.17c.09.13-2.91-.3-5.06,1s-.43,1.29-2.57,3-4.72,2.57-4.29,8.15a20.6,20.6,0,0,0,11.58,17.15c8.15,3.86,13.29-1.72,13.29-1.72l.43-15Z"/><path class="cls-14" d="M261.27,147.44s-6.86-.42-3,5.15a8.67,8.67,0,0,0,9.86,3.43l-1.71-8.15Z"/><path class="cls-27" d="M263.19,158a22.61,22.61,0,0,0,3.39,1.66,35.11,35.11,0,0,0,3.6.71,15.29,15.29,0,0,0,7.12-.5c-.32-1.16-.87-2.34-1.25-3.75a1.89,1.89,0,0,1-.06-.66c-.19-.32-.37-.64-.56-1l-3.67-3.48-11.3-14.47s3.71,11.42-2.39,15.83A14.5,14.5,0,0,0,263.19,158Z"/><path class="cls-34" d="M293,131s5.67-8.31,5.16-11.86-2.16-4.45-2.16-4.45,4.53-4.78-1.62-9.08-14.45-1.46-17.92-.14c0,0,.38-2.81-3.22-2s-11,6.72-12.64,13.74c0,0-1.09-1-1.91,1.41s1.28,10.59,1.28,10.59l15.12,10Z"/><path class="cls-27" d="M261,140.49s.89,4.28.23,7c1,.89,1.48-.14,2.49.52a63.25,63.25,0,0,0,6,3.34c1.71.87,3.44,1.66,5.2,2.39l-11.22-22.88s-.42-5.11-3.66-4.79-5,4.41-4.26,8.26S261,140.49,261,140.49Z"/><path class="cls-34" d="M290.74,145.22s.45,7.7-.76,9.53-2.21,1.61-2.21,1.61a11.52,11.52,0,0,1-10.25,5.58c-7.06-.29-9.38-4-9.38-4s-2.61,1-4.84-4.27-.58-19.41.11-22.42,2.14-8.22,2.14-8.22Z"/><path class="cls-27" d="M290.52,146a10,10,0,0,1-4.78-.43,25.77,25.77,0,0,0-8.71-1.19c-3.18.06-5.13-.65-7.31-3.79s-3.33-9.73-3-11.23,5-3.6,4.86-6.28-3-5.44-2.13-6.83,2.12,0,5.26,1.2,11.12,3.34,13.92,2.65,4.43.22,5,1.15a6.63,6.63,0,0,1,1.12,3.16c0,1.06-2,6.81-2.39,9.88S291.66,145.11,290.52,146Z"/><path class="cls-30" d="M282.24,143.15a.76.76,0,0,1,.83-.66l1.2.14a.75.75,0,0,1-.17,1.49l-1.19-.14A.77.77,0,0,1,282.24,143.15Z"/><path class="cls-35" d="M285.53,171.35a13.44,13.44,0,0,0-6.84-7.89l-.06,0-.2-.11a.82.82,0,0,0-.82,1.42,20,20,0,0,1,6.39,6.46l.33.64A.66.66,0,0,0,285.53,171.35Zm7.31,72.71c-.88-1.91-2-3.64-2.75-5.64a.85.85,0,0,0-1-.53.74.74,0,0,0-.86-.17.91.91,0,0,0-1.18.09.83.83,0,0,0-.81.26c0-.07,0-.15,0-.22a.81.81,0,0,0-1.61,0c0,.08,0,.16,0,.24a.76.76,0,0,0-.78.5.85.85,0,0,0-.82.14.8.8,0,0,0-1.42.48v.12A.76.76,0,0,0,281,239a.78.78,0,0,0-.21,0,1.42,1.42,0,0,1,0-.2c-.17-1-1.51-.65-1.57.22a.85.85,0,0,0-1.41,0c-.4-.6-1.53-.47-1.49.41l.06,1c-.1-.59-.22-1.18-.34-1.77-.22-1-1.74-.57-1.54.43,0,.13.05.26.07.38a.88.88,0,0,0-.79.14l-.06-.16a.89.89,0,0,0-1.38-.32c-.47-.3-1.35,0-1.27.64l.09.75c-.14-.6-.29-1.19-.44-1.79a.76.76,0,0,0-1.46,0,.74.74,0,0,0-1.3.16c-.36-.49-1.3-.39-1.22.34,0,.11,0,.23.05.35a.75.75,0,0,0-.46.64,32.42,32.42,0,0,0,0,6.68.75.75,0,0,0,1.49,0c0-.43,0-.85,0-1.28.11.46.21.92.33,1.37a.77.77,0,0,0,1.49-.15,12.17,12.17,0,0,1,2.5-.32c.38.68,1.6.23,1.44-.67-.22-1.35-.45-2.69-.66-4,.53,1.38,1.06,2.76,1.64,4.12a.65.65,0,0,0,.67.4c0,.15,0,.31,0,.46a.82.82,0,0,0,1.63,0c0-.7,0-1.4,0-2.11a13.88,13.88,0,0,0,.41,1.6c.25.79,1.66.71,1.54-.21a.59.59,0,0,0,0-.13c.06.24.11.48.17.72.25,1,1.88.6,1.61-.45q-.65-2.53-1-5.11a44.27,44.27,0,0,0,1.55,5.66.87.87,0,0,0,1.66-.1.73.73,0,0,0,.78-.76c0-.42,0-.85,0-1.28.11.63.23,1.25.36,1.87.23,1,1.77.59,1.59-.44-.24-1.29-.46-2.57-.64-3.86l.2-.05a22.53,22.53,0,0,0,1,3.88.81.81,0,0,0,1.56-.43c-.06-.23-.11-.46-.17-.69a.82.82,0,0,0,.83-1l-.09-.44a13.34,13.34,0,0,0,1.15,2.26.8.8,0,0,0,1.39-.81c-.44-1-.85-1.87-1.19-2.81a.88.88,0,0,0,.19-.27,14,14,0,0,0,1.9,3.2C292.21,245.76,293.18,244.82,292.84,244.06Z"/><path class="cls-35" d="M287.15,219.19a2.84,2.84,0,0,0-1.54-.09c-2.16.47-4.05,3.14-5.29,4.79a36.94,36.94,0,0,0-2.25,3.44c-1.27-1.58-2.54-3.16-3.91-4.64s-3.3-2.7-5.4-1.72c-1.94.89-3.24,3.41-4.31,5.14l-.43.73c.17,2.23.41,4.37.73,6.28.55-1.07,1.13-2.13,1.76-3.15.54-.87,1.11-1.72,1.71-2.54.38-.53,1.14-1.88,1.76-2.19.17-.08.23-.18.17-.32a8,8,0,0,1,1,1.17c.55.71,1.1,1.43,1.66,2.14,1.31,1.68,2.64,3.35,3.95,5,1,1.22,3.07.73,3.75-.49,1.39-2.47,3.08-6.26,5.53-8.26a29.89,29.89,0,0,1,2,3.49l.34.59C288,225.84,287.54,222.66,287.15,219.19Z"/><path class="cls-35" d="M268.69,207.56a7.82,7.82,0,0,0-4.34,3.16,59.08,59.08,0,0,0-.56,7.38,35.3,35.3,0,0,1,2.28-2.89c.72-.84,2.3-3.3,3.57-3.25,1.44.06,2.88,3.32,3.55,4.32.84,1.26,1.7,3.13,3.18,3.76,3,1.27,4.74-3.62,6.27-5.31a8.3,8.3,0,0,1,1.66-1.53c1-.61,1.06-.39,1.78.44.22.25.43.51.64.77a30.27,30.27,0,0,1,.19-6.23,4.31,4.31,0,0,0-2.41-.27,9.6,9.6,0,0,0-5,3.19,24,24,0,0,0-2,2.51l-.35.53C274.94,211,273.32,206.62,268.69,207.56Z"/><path class="cls-14" d="M229.45,198.46s-6.56,2.37-6.56,4.94,9.53-.59,9.53-.59Z"/><path class="cls-27" d="M227.39,199.33s0,5.58-.42,9.86-1.72,12.44,2.57,19.73,16.29,1.71,21.87-5.58S269,179.61,272,177.46s10.72-8.57,12-11.15a11.65,11.65,0,0,0,1.28-4.71,10.46,10.46,0,0,0,2.58-4.29c.43-2.15-.43-2.15,0-3s1.28-3.86-1.29-4.29c0,0-.94-2.49-3-1.46s-10.85,6.66-10.85,6.66.6-3.49-1.12-5.2-2.94-1-3.4.59-.25,4.1-2,6.15-2.57,2.48-3.43,4.62-.86,8.15-1.29,10.29-4.28,7.29-9,13.3a73,73,0,0,1-10.72,10.72S236.18,194.4,227.39,199.33Z"/><path class="cls-30" d="M271.54,154.34a5.61,5.61,0,0,0-2.85,1.55,20.75,20.75,0,0,0-2.39,2.39.9.9,0,0,0,1.27,1.27c.76-.63,1.51-1.28,2.31-1.86a22,22,0,0,0,2.42-1.52A1.08,1.08,0,0,0,271.54,154.34Zm13.83-3.5c-1,2.44-3.45,3.56-5.54,4.88a46.85,46.85,0,0,0-4.78,3.5c-.6.48.19,1.5.82,1.06,2.25-1.55,4.48-3,6.83-4.38a9.46,9.46,0,0,0,4.31-4.61C287.42,150.28,285.78,149.84,285.37,150.84Z"/><path class="cls-36" d="M279.26,168.58c-.42-.25-.85-1.06-1.26-1.42a16.19,16.19,0,0,1-1.73-2.19,9.78,9.78,0,0,1-1.56-2.79c-.1-.35-.08-.7-.18-1.05a7.34,7.34,0,0,0-.51-.6,2.91,2.91,0,0,1-.76-2.48c.05-.75-1.18-.93-1.32-.18-.32,1.72.32,2.32,1,3.76.29.63.24,1.25.54,1.86a18.82,18.82,0,0,0,.87,1.74c.39.63,1,1,1.37,1.68a5.28,5.28,0,0,0,.69,1.2c.4.41.88.7,1.27,1.1a2.24,2.24,0,0,0,1,.78C279.5,170.32,280,169,279.26,168.58Z"/><path class="cls-30" d="M240.17,195.19c-7.13,3.8-11.24,11.22-12.89,18.9-.12.57.72,1,1,.42,3.2-6.61,6.36-13.55,13.17-17.14C242.89,196.61,241.61,194.42,240.17,195.19Z"/></svg>