<svg width="563" height="318" viewBox="0 0 563 318" fill="none" xmlns="http://www.w3.org/2000/svg">
<path d="M202.001 147.763H200.161V143.449C200.161 142.386 199.798 141.849 199.077 141.849C198.562 141.849 198.19 142.039 197.963 142.423C197.735 142.806 197.621 143.426 197.621 144.286V147.759H195.781V137.484H197.621V139.579C197.621 139.741 197.608 140.125 197.579 140.73L197.536 141.327H197.634C198.043 140.605 198.693 140.245 199.587 140.245C200.38 140.245 200.979 140.476 201.389 140.943C201.798 141.41 202.005 142.08 202.005 142.95V147.763H202.001Z" fill="white"/>
<path d="M210.646 147.899C209.562 147.899 208.714 147.571 208.102 146.914C207.49 146.258 207.187 145.328 207.187 144.126C207.187 142.924 207.469 141.934 208.035 141.255C208.6 140.575 209.381 140.242 210.376 140.242C211.372 140.242 212.068 140.538 212.6 141.135C213.132 141.731 213.397 142.549 213.397 143.599V144.575H209.051C209.073 145.148 209.224 145.592 209.516 145.916C209.807 146.239 210.212 146.397 210.731 146.397C211.136 146.397 211.52 146.35 211.883 146.258C212.245 146.165 212.621 146.017 213.013 145.814V147.372C212.693 147.548 212.347 147.677 211.984 147.765C211.621 147.853 211.174 147.895 210.646 147.895V147.899ZM210.389 141.68C210.001 141.68 209.693 141.814 209.473 142.087C209.254 142.36 209.127 142.744 209.094 143.238H211.672C211.663 142.739 211.545 142.355 211.317 142.087C211.089 141.819 210.777 141.68 210.389 141.68Z" fill="white"/>
<path d="M222.87 147.767L222.515 146.763H222.469C222.161 147.189 221.84 147.485 221.515 147.651C221.19 147.817 220.76 147.901 220.237 147.901C219.591 147.901 219.081 147.697 218.709 147.295C218.338 146.893 218.152 146.315 218.152 145.566C218.152 144.817 218.401 144.206 218.903 143.832C219.405 143.457 220.157 143.254 221.165 143.212L222.334 143.17V142.847C222.334 142.098 221.983 141.723 221.283 141.723C220.743 141.723 220.11 141.904 219.384 142.26L218.777 140.9C219.553 140.456 220.414 140.234 221.355 140.234C222.296 140.234 222.95 140.452 223.435 140.882C223.92 141.312 224.156 141.968 224.156 142.851V147.771H222.874L222.87 147.767ZM222.325 144.345L221.612 144.373C221.076 144.391 220.68 144.498 220.418 144.692C220.157 144.886 220.026 145.182 220.026 145.575C220.026 146.144 220.321 146.426 220.916 146.426C221.342 146.426 221.684 146.292 221.937 146.023C222.19 145.755 222.321 145.399 222.321 144.955V144.35L222.325 144.345Z" fill="white"/>
<path d="M231.587 147.766H229.747V137.492H231.587V147.766Z" fill="white"/>
<path d="M240.054 146.295C240.375 146.295 240.763 146.216 241.21 146.064V147.562C240.751 147.788 240.189 147.898 239.523 147.898C238.789 147.898 238.253 147.695 237.915 147.288C237.582 146.881 237.413 146.272 237.413 145.458V141.898H236.531V141.047L237.544 140.372L238.076 138.812H239.248V140.385H241.135V141.898H239.248V145.458C239.248 145.745 239.32 145.957 239.468 146.092C239.616 146.226 239.81 146.295 240.05 146.295H240.054Z" fill="white"/>
<path d="M252.493 147.763H250.653V143.449C250.653 142.386 250.29 141.849 249.569 141.849C249.054 141.849 248.683 142.039 248.455 142.423C248.227 142.806 248.113 143.426 248.113 144.286V147.759H246.273V137.484H248.113V139.579C248.113 139.741 248.1 140.125 248.071 140.73L248.029 141.327H248.126C248.535 140.605 249.185 140.245 250.079 140.245C250.872 140.245 251.472 140.476 251.881 140.943C252.29 141.41 252.497 142.08 252.497 142.95V147.763H252.493Z" fill="white"/>
<path d="M260.822 147.895C258.725 147.895 257.675 146.632 257.675 144.112C257.675 142.859 257.962 141.897 258.531 141.236C259.101 140.575 259.919 140.242 260.983 140.242C261.763 140.242 262.459 140.409 263.08 140.746L262.535 142.304C262.244 142.175 261.979 142.073 261.73 141.99C261.481 141.907 261.232 141.87 260.983 141.87C260.025 141.87 259.548 142.614 259.548 144.103C259.548 145.592 260.025 146.267 260.983 146.267C261.337 146.267 261.662 146.216 261.966 146.11C262.27 146.003 262.569 145.846 262.869 145.624V147.349C262.573 147.557 262.27 147.7 261.966 147.779C261.662 147.858 261.278 147.899 260.818 147.899L260.822 147.895Z" fill="white"/>
<path d="M272.413 147.767L272.058 146.763H272.012C271.704 147.189 271.383 147.485 271.058 147.651C270.733 147.817 270.303 147.901 269.78 147.901C269.134 147.901 268.624 147.697 268.252 147.295C267.881 146.893 267.695 146.315 267.695 145.566C267.695 144.817 267.944 144.206 268.446 143.832C268.948 143.457 269.699 143.254 270.708 143.212L271.877 143.17V142.847C271.877 142.098 271.526 141.723 270.826 141.723C270.286 141.723 269.657 141.904 268.927 142.26L268.32 140.9C269.096 140.456 269.953 140.234 270.898 140.234C271.843 140.234 272.493 140.452 272.978 140.882C273.463 141.312 273.699 141.968 273.699 142.851V147.771H272.417L272.413 147.767ZM271.872 144.345L271.159 144.373C270.624 144.391 270.227 144.498 269.965 144.692C269.704 144.886 269.573 145.182 269.573 145.575C269.573 146.144 269.868 146.426 270.463 146.426C270.889 146.426 271.231 146.292 271.484 146.023C271.737 145.755 271.868 145.399 271.868 144.955V144.35L271.872 144.345Z" fill="white"/>
<path d="M283.054 140.242C283.303 140.242 283.509 140.261 283.674 140.302L283.535 142.189C283.387 142.147 283.206 142.124 282.99 142.124C282.404 142.124 281.948 142.29 281.619 142.619C281.29 142.947 281.13 143.409 281.13 144.006V147.765H279.29V140.381H280.682L280.952 141.62H281.041C281.252 141.208 281.53 140.871 281.889 140.621C282.248 140.372 282.632 140.242 283.049 140.242H283.054Z" fill="white"/>
<path d="M291.647 147.899C290.563 147.899 289.715 147.571 289.103 146.914C288.491 146.258 288.188 145.328 288.188 144.126C288.188 142.924 288.47 141.934 289.036 141.255C289.601 140.575 290.382 140.242 291.377 140.242C292.373 140.242 293.069 140.538 293.601 141.135C294.132 141.731 294.398 142.549 294.398 143.599V144.575H290.052C290.074 145.148 290.225 145.592 290.517 145.916C290.808 146.239 291.213 146.397 291.732 146.397C292.137 146.397 292.521 146.35 292.884 146.258C293.246 146.165 293.622 146.017 294.014 145.814V147.372C293.694 147.548 293.348 147.677 292.985 147.765C292.622 147.853 292.175 147.895 291.647 147.895V147.899ZM291.39 141.68C291.002 141.68 290.694 141.814 290.474 142.087C290.255 142.36 290.128 142.744 290.095 143.238H292.673C292.664 142.739 292.546 142.355 292.318 142.087C292.09 141.819 291.778 141.68 291.39 141.68Z" fill="white"/>
<path d="M310.779 147.767L310.424 146.763H310.378C310.07 147.189 309.749 147.485 309.424 147.651C309.099 147.817 308.669 147.901 308.146 147.901C307.5 147.901 306.99 147.697 306.618 147.295C306.247 146.893 306.062 146.315 306.062 145.566C306.062 144.817 306.31 144.206 306.813 143.832C307.315 143.462 308.066 143.254 309.074 143.212L310.243 143.17V142.847C310.243 142.098 309.893 141.723 309.192 141.723C308.652 141.723 308.023 141.904 307.294 142.26L306.686 140.9C307.462 140.456 308.319 140.234 309.264 140.234C310.209 140.234 310.859 140.452 311.344 140.882C311.829 141.312 312.066 141.968 312.066 142.851V147.771H310.783L310.779 147.767ZM310.239 144.345L309.526 144.373C308.99 144.391 308.593 144.498 308.331 144.692C308.07 144.886 307.939 145.182 307.939 145.575C307.939 146.144 308.234 146.426 308.829 146.426C309.256 146.426 309.597 146.292 309.85 146.023C310.104 145.755 310.234 145.399 310.234 144.955V144.35L310.239 144.345Z" fill="white"/>
<path d="M320.496 146.295C320.816 146.295 321.205 146.216 321.652 146.064V147.562C321.192 147.788 320.631 147.898 319.964 147.898C319.23 147.898 318.694 147.695 318.357 147.288C318.019 146.881 317.854 146.272 317.854 145.458V141.898H316.973V141.047L317.985 140.372L318.517 138.812H319.69V140.385H321.576V141.898H319.69V145.458C319.69 145.745 319.762 145.957 319.909 146.092C320.057 146.226 320.251 146.295 320.492 146.295H320.496Z" fill="white"/>
<path d="M337.347 141.898H335.757V147.77H333.917V141.898H332.904V140.927L333.917 140.386V139.845C333.917 139.003 334.107 138.388 334.482 138.004C334.858 137.621 335.465 137.422 336.297 137.422C336.929 137.422 337.495 137.524 337.989 137.732L337.52 139.211C337.149 139.082 336.807 139.022 336.495 139.022C336.233 139.022 336.043 139.105 335.93 139.276C335.816 139.447 335.757 139.664 335.757 139.928V140.39H337.347V141.902V141.898Z" fill="white"/>
<path d="M342.026 138.469C342.026 137.813 342.36 137.484 343.026 137.484C343.693 137.484 344.026 137.813 344.026 138.469C344.026 138.784 343.942 139.024 343.777 139.2C343.613 139.375 343.36 139.459 343.026 139.459C342.36 139.459 342.026 139.13 342.026 138.469ZM343.942 147.763H342.102V140.379H343.942V147.763Z" fill="white"/>
<path d="M355.793 147.765H353.954V143.451C353.954 142.919 353.869 142.517 353.696 142.253C353.523 141.99 353.249 141.856 352.869 141.856C352.355 141.856 351.983 142.045 351.756 142.42C351.528 142.794 351.414 143.419 351.414 144.293V147.765H349.574V140.381H350.979L351.228 141.324H351.329C351.536 140.968 351.815 140.7 352.178 140.515C352.54 140.33 352.945 140.242 353.405 140.242C354.19 140.242 354.785 140.473 355.19 140.94C355.595 141.407 355.798 142.073 355.798 142.952V147.765H355.793Z" fill="white"/>
<path d="M367.248 140.381V141.403L366.193 141.699C366.387 142.027 366.484 142.397 366.484 142.808C366.484 143.599 366.231 144.219 365.729 144.663C365.227 145.106 364.527 145.328 363.628 145.328L363.295 145.31L363.025 145.278C362.835 145.435 362.742 145.61 362.742 145.805C362.742 146.096 363.079 146.239 363.755 146.239H364.898C365.636 146.239 366.202 146.415 366.59 146.762C366.978 147.109 367.172 147.622 367.172 148.292C367.172 149.157 366.843 149.823 366.185 150.299C365.527 150.775 364.586 151.011 363.354 151.011C362.413 151.011 361.696 150.831 361.198 150.475C360.7 150.119 360.455 149.615 360.455 148.967C360.455 148.523 360.582 148.149 360.835 147.853C361.088 147.557 361.459 147.34 361.949 147.21C361.759 147.122 361.594 146.979 361.455 146.776C361.316 146.572 361.244 146.364 361.244 146.138C361.244 145.855 361.32 145.62 361.468 145.435C361.615 145.25 361.831 145.065 362.113 144.884C361.759 144.718 361.48 144.45 361.274 144.08C361.067 143.71 360.961 143.275 360.961 142.771C360.961 141.967 361.202 141.343 361.679 140.903C362.155 140.464 362.839 140.242 363.729 140.242C363.919 140.242 364.143 140.261 364.4 140.298C364.657 140.335 364.826 140.362 364.898 140.381H367.248ZM362.05 148.806C362.05 149.083 362.172 149.3 362.413 149.458C362.653 149.615 362.995 149.693 363.434 149.693C364.092 149.693 364.607 149.596 364.982 149.397C365.358 149.199 365.544 148.93 365.544 148.584C365.544 148.306 365.434 148.117 365.21 148.01C364.987 147.904 364.649 147.853 364.185 147.853H363.231C362.894 147.853 362.611 147.941 362.383 148.112C362.155 148.283 362.042 148.514 362.042 148.801L362.05 148.806ZM362.717 142.799C362.717 143.201 362.801 143.516 362.966 143.752C363.13 143.987 363.387 144.103 363.729 144.103C364.071 144.103 364.328 143.987 364.489 143.752C364.649 143.516 364.729 143.201 364.729 142.799C364.729 141.911 364.396 141.467 363.729 141.467C363.063 141.467 362.717 141.911 362.717 142.799Z" fill="white"/>
<path d="M375.11 147.899C374.026 147.899 373.178 147.571 372.566 146.914C371.954 146.258 371.65 145.328 371.65 144.126C371.65 142.924 371.933 141.934 372.498 141.255C373.064 140.58 373.844 140.242 374.84 140.242C375.836 140.242 376.532 140.538 377.064 141.135C377.595 141.731 377.861 142.549 377.861 143.599V144.575H373.515C373.536 145.148 373.688 145.592 373.979 145.916C374.271 146.239 374.676 146.397 375.195 146.397C375.6 146.397 375.984 146.35 376.346 146.258C376.709 146.165 377.085 146.017 377.477 145.814V147.372C377.157 147.548 376.811 147.677 376.448 147.765C376.085 147.853 375.638 147.895 375.11 147.895V147.899ZM374.853 141.68C374.465 141.68 374.157 141.814 373.937 142.087C373.718 142.36 373.591 142.744 373.558 143.238H376.136C376.127 142.739 376.009 142.355 375.781 142.087C375.553 141.819 375.241 141.68 374.853 141.68Z" fill="white"/>
<path d="M386.814 140.242C387.063 140.242 387.27 140.261 387.435 140.302L387.295 142.189C387.148 142.147 386.966 142.124 386.751 142.124C386.165 142.124 385.709 142.29 385.38 142.619C385.051 142.947 384.89 143.409 384.89 144.006V147.765H383.051V140.381H384.443L384.713 141.62H384.802C385.013 141.208 385.291 140.871 385.65 140.621C386.004 140.367 386.392 140.242 386.81 140.242H386.814Z" fill="white"/>
<path d="M395.198 146.295C395.519 146.295 395.907 146.216 396.354 146.064V147.562C395.894 147.788 395.333 147.898 394.666 147.898C393.932 147.898 393.396 147.695 393.059 147.288C392.721 146.881 392.557 146.272 392.557 145.458V141.898H391.675V141.047L392.687 140.372L393.219 138.812H394.392V140.385H396.278V141.898H394.392V145.458C394.392 145.745 394.464 145.957 394.611 146.092C394.759 146.226 394.953 146.295 395.194 146.295H395.198Z" fill="white"/>
<path d="M401.342 138.469C401.342 137.813 401.675 137.484 402.342 137.484C403.008 137.484 403.342 137.813 403.342 138.469C403.342 138.784 403.257 139.024 403.093 139.2C402.928 139.375 402.675 139.459 402.342 139.459C401.675 139.459 401.342 139.13 401.342 138.469ZM403.257 147.763H401.418V140.379H403.257V147.763Z" fill="white"/>
<path d="M412.59 147.895C411.797 147.895 411.176 147.58 410.729 146.951H410.632C410.696 147.566 410.729 147.922 410.729 148.019V151.011H408.89V140.381H410.383L410.641 141.338H410.725C411.155 140.607 411.793 140.242 412.636 140.242C413.434 140.242 414.054 140.58 414.506 141.255C414.957 141.93 415.181 142.864 415.181 144.061C415.181 144.847 415.075 145.532 414.864 146.114C414.653 146.697 414.354 147.136 413.961 147.441C413.569 147.747 413.113 147.899 412.586 147.899L412.59 147.895ZM412.046 141.851C411.59 141.851 411.261 142.004 411.05 142.309C410.839 142.614 410.733 143.118 410.725 143.826V144.043C410.725 144.834 410.831 145.402 411.046 145.745C411.261 146.087 411.603 146.258 412.067 146.258C412.89 146.258 413.303 145.513 413.303 144.024C413.303 143.298 413.202 142.753 412.999 142.392C412.797 142.032 412.476 141.847 412.046 141.847V141.851Z" fill="white"/>
<path d="M425.099 145.569C425.099 146.327 424.859 146.901 424.378 147.298C423.897 147.696 423.18 147.895 422.222 147.895C421.732 147.895 421.315 147.858 420.969 147.784C420.623 147.71 420.298 147.603 419.998 147.465V145.8C420.34 145.976 420.724 146.124 421.15 146.244C421.576 146.364 421.956 146.424 422.281 146.424C422.948 146.424 423.281 146.212 423.281 145.791C423.281 145.634 423.239 145.504 423.15 145.402C423.062 145.301 422.91 145.19 422.69 145.065C422.471 144.94 422.184 144.792 421.821 144.626C421.302 144.39 420.922 144.168 420.678 143.964C420.433 143.761 420.256 143.53 420.146 143.266C420.036 143.003 419.981 142.684 419.981 142.3C419.981 141.643 420.214 141.135 420.678 140.778C421.142 140.422 421.8 140.242 422.652 140.242C423.505 140.242 424.251 140.436 425.019 140.825L424.467 142.277C424.129 142.119 423.813 141.99 423.521 141.888C423.23 141.786 422.931 141.736 422.623 141.736C422.078 141.736 421.808 141.897 421.808 142.217C421.808 142.397 421.897 142.554 422.07 142.684C422.243 142.813 422.627 143.012 423.218 143.271C423.745 143.502 424.129 143.724 424.374 143.923C424.618 144.122 424.8 144.357 424.918 144.621C425.036 144.884 425.091 145.199 425.091 145.564L425.099 145.569Z" fill="white"/>
<path d="M476.965 197.709C479.281 197.709 481.158 195.716 481.158 193.257C481.158 190.798 479.281 188.805 476.965 188.805C474.65 188.805 472.772 190.798 472.772 193.257C472.772 195.716 474.65 197.709 476.965 197.709Z" fill="white"/>
<path d="M476.965 179.198C484.263 179.198 490.198 185.505 490.198 193.25H494.483C494.483 182.99 486.621 174.648 476.965 174.648V179.198Z" fill="white"/>
<path d="M476.965 186.402C480.522 186.402 483.414 189.473 483.414 193.25H487.699C487.699 186.964 482.885 181.852 476.965 181.852V186.402Z" fill="white"/>
<path d="M450.726 173.307C435.868 173.307 423.775 186.473 423.775 202.66C423.775 216.835 433.048 228.692 445.323 231.424C441.5 241.37 432.891 254.664 413.466 263.509C374.879 280.452 348.756 269.415 301.339 249.376C269.733 236.021 230.392 219.405 173.234 205.263C159.614 201.845 147.576 200.495 137.175 201.195V179.056L143.293 177.462C145.771 176.817 148.122 175.795 150.299 174.445C154.468 171.856 157.986 168.065 160.38 163.44L177.043 131.313C177.686 130.074 177.284 128.498 176.147 127.803L175.936 127.674L172.139 125.334C171.771 125.108 171.373 125.002 170.976 125.002C170.147 125.002 169.352 125.472 168.917 126.31L152.253 158.437C149.876 163.011 145.817 166.342 141.128 167.567L137.175 168.599L132.506 169.811L127.838 168.599L123.885 167.567C119.187 166.342 115.136 163.011 112.76 158.437L96.0963 126.31C95.4536 125.071 94.0117 124.633 92.8743 125.334L89.0773 127.674L88.8659 127.803C87.7284 128.503 87.331 130.074 87.9695 131.313L104.633 163.44C107.031 168.065 110.545 171.851 114.714 174.445C116.891 175.795 119.242 176.817 121.72 177.462L127.838 179.056V202.471C118.811 204.388 111.318 208.216 105.399 213.928C91.9991 226.891 90.5276 249.086 102.05 264.476C102.325 264.84 102.599 265.2 102.883 265.559C108.249 272.326 116.697 274.685 124.409 271.552C132.164 268.415 137.17 260.57 137.17 251.573V211.454C146.811 210.703 158.215 211.933 171.145 215.181C227.661 229.153 266.638 245.626 297.965 258.861C329.432 272.156 352.718 282 376.883 282C389.576 282 402.519 279.282 417.005 272.92C441.805 261.625 451.487 243.848 455.268 231.594C467.969 229.236 477.665 217.162 477.665 202.66C477.665 186.473 465.576 173.307 450.722 173.307H450.726ZM127.843 251.578C127.843 257.286 124.388 260.717 121.158 262.03C117.961 263.325 113.335 263.182 109.953 258.916C109.728 258.631 109.513 258.34 109.289 258.05C100.942 246.907 101.957 230.867 111.602 221.538C115.809 217.471 121.259 214.596 127.843 212.942V251.578ZM457.572 220.336C455.471 221.312 453.153 221.847 450.726 221.847C449.792 221.847 448.883 221.764 447.986 221.607C439.568 220.175 433.107 212.224 433.107 202.66C433.107 192.079 441.01 183.474 450.722 183.474C460.435 183.474 468.333 192.079 468.333 202.66C468.333 210.598 463.889 217.42 457.568 220.336H457.572Z" fill="white"/>
<path d="M119.656 51.7877C119.656 54.095 118.433 56.0463 116.699 56.9803C115.791 57.4704 114.741 57.6831 113.648 57.5121L111.965 57.2531L103.842 56.0139C103.184 55.9122 102.648 55.4544 102.37 54.8441C95.5937 56.3838 89.2943 58.9686 83.5434 62.5891C74.9487 67.999 71.8644 79.8454 76.5141 89.5695L93.3406 124.753L89.5517 127.102L72.6619 91.7843C66.9236 79.7853 70.7505 65.1507 81.3747 58.46C87.7205 54.4649 94.6824 51.6536 102.159 50.0352V49.6884C102.159 48.6203 102.88 47.7094 103.842 47.5661L113.648 46.0633C113.897 46.0217 114.146 46.0078 114.386 46.0078C117.243 46.0078 119.652 48.5509 119.652 51.7923L119.656 51.7877Z" fill="white"/>
<path d="M193.123 91.7822L176.233 127.099L172.444 124.751L189.271 89.5673C193.921 79.8433 190.836 67.9969 182.242 62.5869C176.486 58.9664 170.187 56.3817 163.415 54.8419C163.137 55.4523 162.597 55.91 161.938 56.0118L153.825 57.251L152.141 57.5099C151.892 57.5515 151.643 57.5654 151.394 57.5654C150.576 57.5654 149.791 57.3527 149.091 56.9781C147.356 56.0441 146.133 54.0928 146.133 51.7855C146.133 48.276 148.964 45.571 152.137 46.0565L161.934 47.5593C162.905 47.7026 163.622 48.6135 163.622 49.6816V50.0284C171.098 51.6468 178.06 54.4581 184.406 58.4532C195.03 65.1439 198.857 79.7786 193.119 91.7776L193.123 91.7822Z" fill="white"/>
<path d="M221.624 113.097C221.624 117.74 220.485 121.356 218.207 123.954C215.928 126.548 212.743 127.848 208.646 127.848C204.549 127.848 201.591 126.52 199.266 123.866C196.942 121.212 195.781 117.624 195.781 113.097C195.781 108.571 196.92 104.881 199.199 102.319C201.477 99.7574 204.671 98.4766 208.785 98.4766C211.329 98.4766 213.574 99.0684 215.528 100.252C217.481 101.436 218.983 103.137 220.042 105.348C221.101 107.558 221.629 110.143 221.629 113.097H221.624ZM204.853 113.097C204.853 115.534 205.148 117.393 205.743 118.669C206.338 119.945 207.334 120.583 208.734 120.583C210.135 120.583 211.097 119.945 211.671 118.669C212.245 117.393 212.528 115.534 212.528 113.097C212.528 110.661 212.237 108.848 211.658 107.613C211.08 106.379 210.089 105.759 208.688 105.759C207.287 105.759 206.334 106.374 205.739 107.599C205.144 108.825 204.849 110.661 204.849 113.097H204.853Z" fill="white"/>
<path d="M243.704 98.4722C246.522 98.4722 248.759 99.7668 250.408 102.351C252.062 104.941 252.889 108.52 252.889 113.093C252.889 117.666 252.054 121.309 250.387 123.922C248.721 126.534 246.4 127.843 243.43 127.843C242.472 127.843 241.615 127.732 240.869 127.505C240.122 127.279 239.455 126.969 238.869 126.567C238.282 126.165 237.599 125.499 236.822 124.565H236.274L234.856 127.344H227.886V88.3828H236.818V97.196C236.818 98.2456 236.712 100.058 236.497 102.629H236.818C237.687 101.159 238.687 100.1 239.822 99.4478C240.957 98.7958 242.248 98.4722 243.695 98.4722H243.704ZM240.434 106.157C239.185 106.157 238.269 106.633 237.691 107.586C237.113 108.538 236.822 110.032 236.822 112.066V113.444C236.822 115.765 237.113 117.43 237.691 118.438C238.269 119.446 239.215 119.955 240.527 119.955C241.577 119.955 242.383 119.367 242.949 118.188C243.514 117.009 243.792 115.28 243.792 112.991C243.792 108.432 242.674 106.157 240.434 106.157Z" fill="white"/>
<path d="M258.97 91.9182C258.97 90.4478 259.341 89.3566 260.088 88.6399C260.835 87.9232 262.037 87.5625 263.7 87.5625C265.362 87.5625 266.569 87.9278 267.332 88.663C268.096 89.3982 268.476 90.4848 268.476 91.9182C268.476 94.7896 266.885 96.223 263.7 96.223C260.514 96.223 258.97 94.7896 258.97 91.9182ZM268.134 127.351H259.202V98.9789H268.134V127.351Z" fill="white"/>
<path d="M281.863 127.35V90.7422H290.888V119.364H303.753V127.354H281.863V127.35Z" fill="white"/>
<path d="M326.631 127.355L324.917 123.6H324.736C323.534 125.237 322.306 126.356 321.057 126.957C319.808 127.558 318.192 127.859 316.213 127.859C313.774 127.859 311.859 127.059 310.454 125.454C309.053 123.85 308.353 121.598 308.353 118.694C308.353 115.79 309.31 113.423 311.23 111.948C313.15 110.468 315.93 109.64 319.572 109.456L323.892 109.308V108.905C323.892 106.57 322.842 105.4 320.74 105.4C318.85 105.4 316.454 106.103 313.542 107.504L310.96 101.045C313.977 99.343 317.783 98.4922 322.386 98.4922C325.706 98.4922 328.276 99.3938 330.099 101.197C331.917 103.001 332.829 105.521 332.829 108.757V127.364H326.635L326.631 127.355ZM320.006 120.941C321.086 120.941 322.015 120.567 322.783 119.813C323.55 119.064 323.934 118.084 323.934 116.881V114.676L321.88 114.778C318.939 114.893 317.47 116.082 317.47 118.333C317.47 120.072 318.314 120.937 320.006 120.937V120.941Z" fill="white"/>
<path d="M355.883 98.4722C358.701 98.4722 360.937 99.7668 362.587 102.351C364.237 104.936 365.068 108.52 365.068 113.093C365.068 117.666 364.233 121.309 362.566 123.922C360.899 126.534 358.579 127.843 355.608 127.843C354.651 127.843 353.794 127.732 353.047 127.505C352.3 127.279 351.634 126.969 351.047 126.567C350.461 126.165 349.777 125.499 349.001 124.565H348.452L347.035 127.344H340.064V88.3828H348.997V97.196C348.997 98.2456 348.891 100.058 348.676 102.629H348.997C349.866 101.159 350.866 100.1 352.001 99.4478C353.136 98.7958 354.427 98.4722 355.874 98.4722H355.883ZM352.617 106.157C351.368 106.157 350.452 106.633 349.874 107.586C349.296 108.538 349.005 110.032 349.005 112.066V113.444C349.005 115.765 349.296 117.43 349.874 118.438C350.452 119.446 351.397 119.955 352.71 119.955C353.76 119.955 354.566 119.367 355.132 118.188C355.697 117.009 355.975 115.28 355.975 112.991C355.975 108.432 354.857 106.157 352.617 106.157Z" fill="white"/>
<path d="M393.885 127.342H369.641V120.832L377.797 111.792C380.126 109.119 381.649 107.298 382.367 106.322C383.084 105.346 383.582 104.505 383.864 103.807C384.147 103.104 384.286 102.368 384.286 101.601C384.286 100.648 384.004 99.8994 383.442 99.3492C382.881 98.7989 382.088 98.5215 381.067 98.5215C380.046 98.5215 378.953 98.8498 377.881 99.511C376.806 100.172 375.595 101.143 374.236 102.429L369.278 96.0662C371 94.3785 372.447 93.1763 373.62 92.4457C374.793 91.7151 376.067 91.1649 377.447 90.7811C378.827 90.3973 380.375 90.2031 382.097 90.2031C384.261 90.2031 386.189 90.6193 387.89 91.4562C389.59 92.2931 390.906 93.4815 391.843 95.0258C392.78 96.5702 393.248 98.3042 393.248 100.223C393.248 101.661 393.084 102.988 392.759 104.204C392.43 105.425 391.923 106.622 391.24 107.797C390.556 108.976 389.645 110.215 388.51 111.515C387.375 112.818 384.957 115.288 381.257 118.927V119.176H393.894V127.338L393.885 127.342Z" fill="white"/>
<path d="M418.362 127.353L417.244 123.821H416.716C415.969 125.125 414.931 126.119 413.598 126.812C412.265 127.506 410.699 127.853 408.902 127.853C406.054 127.853 403.839 126.947 402.252 125.134C400.666 123.321 399.877 120.764 399.877 117.458V98.9766H408.809V114.476C408.809 116.33 409.05 117.731 409.531 118.684C410.012 119.636 410.801 120.112 411.893 120.112C413.434 120.112 414.531 119.447 415.185 118.12C415.839 116.793 416.168 114.55 416.168 111.396V98.9766H425.1V127.349H418.357L418.362 127.353Z" fill="white"/>
<path d="M153.665 57.2598L132.665 101L111.665 57.2598L113.354 57.5064C114.451 57.6693 115.505 57.4667 116.415 57L132.665 90.8465L148.915 57C149.617 57.3566 150.405 57.5592 151.226 57.5592C151.476 57.5592 151.726 57.546 151.976 57.5064L153.665 57.2598Z" fill="white"/>
</svg>
