<svg id="Layer_1" data-name="Layer 1" xmlns="http://www.w3.org/2000/svg" viewBox="0 0 60 60"><defs><style>.cls-1{fill:#fff;}.cls-2{opacity:0.4;}.cls-3{fill:#d7d7f7;}.cls-4{fill:#d3d3f4;}.cls-11,.cls-12,.cls-15,.cls-16,.cls-5{fill:none;}.cls-11,.cls-16,.cls-5{stroke:#323042;}.cls-11,.cls-15,.cls-5{stroke-miterlimit:10;}.cls-5{stroke-width:0.28px;}.cls-6{fill:#f94b4b;}.cls-7{fill:#141414;opacity:0.08;}.cls-8{fill:#fba190;}.cls-9{fill:#323042;}.cls-10{fill:#8686e0;}.cls-11,.cls-15{stroke-width:0.06px;}.cls-12{stroke:#a05839;stroke-width:0.08px;}.cls-12,.cls-16{stroke-linecap:round;stroke-linejoin:round;}.cls-13{fill:#f9968a;}.cls-14{fill:#e2825d;}.cls-15{stroke:#f9e8de;}.cls-16{stroke-width:0.16px;}</style></defs><title>Physiotherapy &amp;amp; Rehabilitation-</title><path class="cls-1" d="M59.77,30a29.54,29.54,0,0,1-.67,6.28c-.09.44-.19.87-.31,1.29s-.25,1-.41,1.42a27.85,27.85,0,0,1-1.73,4.27c-.2.41-.4.82-.63,1.21a0,0,0,0,1,0,0,27.56,27.56,0,0,1-1.76,2.77c-.3.44-.63.87-1,1.29s-.81,1-1.23,1.46a28.23,28.23,0,0,1-3.77,3.48,29.73,29.73,0,0,1-36.6,0,29.18,29.18,0,0,1-5-4.94l-.36-.45-.25-.33c-.12-.17-.25-.34-.36-.51A29.76,29.76,0,0,1,11.19,6.93C11.76,6.46,12.35,6,13,5.6A29.78,29.78,0,0,1,59.77,30Z"/><g class="cls-2"><polygon class="cls-3" points="21.36 7.07 12.66 15.77 12.66 13.52 19.1 7.07 21.36 7.07"/></g><g class="cls-2"><polygon class="cls-3" points="25.95 7.07 12.66 20.37 12.66 17.07 22.66 7.07 25.95 7.07"/></g><g id="a"><path class="cls-4" d="M24,26.44a.57.57,0,0,1,.08.13.4.4,0,0,1,.09.2h0a.66.66,0,0,1,.06.2.55.55,0,0,1,0,.18h0a2,2,0,0,1,.1-.33,1.46,1.46,0,0,1,.07-.19,1,1,0,0,1,.09-.21Zm0,0a.57.57,0,0,1,.08.13.4.4,0,0,1,.09.2h0s0,0,0,0a.66.66,0,0,1,.06.2.55.55,0,0,1,0,.18h0a2,2,0,0,1,.1-.33,1.46,1.46,0,0,1,.07-.19,1,1,0,0,1,.09-.21ZM13,5.6c-.61.41-1.2.86-1.77,1.33V27.85H27.53V5.6ZM26.12,26.44H12.6V7H26.12Zm-2.13,0a.57.57,0,0,1,.08.13.4.4,0,0,1,.09.2h0s0,0,0,0a.66.66,0,0,1,.06.2.55.55,0,0,1,0,.18h0a2,2,0,0,1,.1-.33,1.46,1.46,0,0,1,.07-.19,1,1,0,0,1,.09-.21Zm0,0a.57.57,0,0,1,.08.13.4.4,0,0,1,.09.2h0s0,0,0,0a.66.66,0,0,1,.06.2.55.55,0,0,1,0,.18h0a2,2,0,0,1,.1-.33,1.46,1.46,0,0,1,.07-.19,1,1,0,0,1,.09-.21Zm0,0a.57.57,0,0,1,.08.13.4.4,0,0,1,.09.2h0a.66.66,0,0,1,.06.2.55.55,0,0,1,0,.18h0a2,2,0,0,1,.1-.33,1.46,1.46,0,0,1,.07-.19,1,1,0,0,1,.09-.21Z"/></g><rect class="cls-4" x="18.45" y="5.55" width="1.82" height="22.37"/><path class="cls-5" d="M.85,47.3h53.4"/><path class="cls-6" d="M53.28,48.59c-.39.5-.8,1-1.22,1.46a27.75,27.75,0,0,1-3.71,3.48H0l3.85-2.8h0l1.68-1.21,1.2-.88h0l0,0Z"/><path class="cls-7" d="M53.28,48.59c-.39.5-.8,1-1.22,1.46a27.75,27.75,0,0,1-3.71,3.48H0l3.85-2.8h0l1.68-1.21,1.2-.88h0l0,0Z"/><path class="cls-8" d="M5.24,47.55l-2.38,1.7L1.61,50.81l.39.61s2.29-1.65,3.23-1.21l1.09-2.07Z"/><path class="cls-9" d="M2.29,51.24s-1,.77-1.36.57-.18-.65.24-1.3l.59-.82a4.6,4.6,0,0,1,.85-1c.87-.78.71-1.27.71-1.27l.49-.74s1.36.15,1.61,1c0,.1-.9.7-2.2,1.81C2.72,49.92,1.67,50.67,2.29,51.24Z"/><path class="cls-10" d="M12.66,35.46S11,36.39,10,39.4s.11,8.05.11,8.05l-4.31.39s-1.45,2.08-1.1,3c0,0,8.16,1.33,9.78-.51,1.11-1.25,1.24-9.24,1.24-9.24l.56-3Z"/><path class="cls-11" d="M10.06,47.45a6.75,6.75,0,0,1,2.49.12"/><path class="cls-8" d="M22.47,48.08l2.64,1.25,2,.34.35-.64s-2.55-1.2-2.62-2.24l-2.34.06S22.47,48.08,22.47,48.08Z"/><path class="cls-9" d="M27.12,48.87s1.16.5,1.17.92-.49.46-1.26.42l-1-.12a5.08,5.08,0,0,1-1.29-.25c-1.1-.39-1.45,0-1.45,0l-.89-.07s-.53-1.27.1-1.9c.07-.08,1,.45,2.66,1C25.76,49.13,26.92,49.69,27.12,48.87Z"/><path class="cls-10" d="M18.41,38s6.21-1.76,7.1-.74-.34,7.16-.44,10c0,0-2.76.26-2.76-.39,0-.19-.63-5.25-.63-5.25s-6.19,2.21-7.24.93c-.68-.83,1.79-4.52,1.79-4.52Z"/><line class="cls-11" x1="15.62" y1="42.76" x2="15.72" y2="40.24"/><path class="cls-8" d="M26.27,34.92s-1.92,4.1-1.94,4.2-.62,3.93-.62,3.93-1.69.5-1.71.23a45.4,45.4,0,0,1,.26-4.82,31.16,31.16,0,0,1,1.5-4.1l2.3,0Z"/><path class="cls-8" d="M23.32,42.59a3.5,3.5,0,0,1,.65.79c.07.24.13.56.18.84s.21.47,0,.51-.49-.62-.49-.62a2.63,2.63,0,0,0,.09.92c.13.52.34,1.11.17,1.14a.38.38,0,0,1-.23,0s0,.24-.14.27-.26-.16-.26-.16-.19.09-.28,0a3.76,3.76,0,0,1-.7-1.34,6,6,0,0,1,.14,1c-.07,0-.31-.17-.47-.94a6.86,6.86,0,0,1,.05-2Z"/><path class="cls-12" d="M23.11,44.4s0,.05,0,.08c.21.73.5,1.58.54,1.7h0m-1.05-1.7s.17.57.31,1a6.33,6.33,0,0,0,.35.82"/><path class="cls-10" d="M26.6,31.83a5,5,0,0,1-.33,3.09s-2.7.95-2.7-.32a11,11,0,0,1,.76-1.6Z"/><circle class="cls-9" cx="24.27" cy="25.82" r="1.36"/><circle class="cls-9" cx="22.9" cy="27.25" r="1.36"/><circle class="cls-9" cx="27.58" cy="27.96" r="1.36"/><circle class="cls-9" cx="26.34" cy="29.46" r="1.36"/><circle class="cls-9" cx="28.76" cy="25.17" r="0.96"/><path class="cls-8" d="M25.58,29.8S25.08,31.74,25,32s-2.65-.71-2.92-1.15.36-2.61.36-2.61,1.62-.26,2-.95S25.58,29.8,25.58,29.8Z"/><path class="cls-8" d="M25.14,30.12c-.94-.43-1.09-1.8-.87-2.88s1.86-4.43,3.84-3.34.84,3.25.28,4.19S26.4,30.69,25.14,30.12Z"/><path class="cls-12" d="M25.14,30.12a1.91,1.91,0,0,1-.94-1.26"/><path class="cls-9" d="M24.91,26.5c.21-.12.53-.75,1.27-.51,1.37.43,1.85-.25,1.85-.25s.81.39.67,1.82c0,0,2.11-2.36.17-3.3A3.36,3.36,0,0,0,27.22,23c-2.2-.74-3.16,2.16-2.81,3.15C24.47,26.29,24.91,26.5,24.91,26.5Z"/><path class="cls-13" d="M24.76,26.43s-.49-.54-.81,0,.24,1.4.24,1.4Z"/><path class="cls-9" d="M24.42,26.62s-.38-.15-.24.47Z"/><path class="cls-10" d="M26.6,31.83A9.15,9.15,0,0,0,24.33,34c-.62,1.09-.94,1.91-2,2.18a4.69,4.69,0,0,0-2.89,2.09c-.57.79-1,.39-1,.39a12.38,12.38,0,0,1-5-1.28l.25-1-.81.67c-.7-.44-1-.93-.68-1.36.77-.9,2-1.82,3.4-3.2s2.19-3.05,3.3-4.1S20.75,27,21.54,27.1a5.06,5.06,0,0,1,1.94.88,4.68,4.68,0,0,0-.54,2.35,5.09,5.09,0,0,0,1.19,1.26c.92.59,1.29-1.32,1.29-1.32Z"/><path class="cls-11" d="M25.2,33l-.24.25-.18.2a1.56,1.56,0,0,0-.16.2,1.3,1.3,0,0,0-.15.2,2.39,2.39,0,0,0-.13.21c-.07.11-.13.22-.19.33l-.27.48m-11.68.88-.07.09,0,0a.11.11,0,0,0,0,0h0l0,.08a.34.34,0,0,0,0,.1c0,.33.32.67.83,1l.8-.67-.24,1,.28.13.61.26,1,.34.07,0,.59.17.09,0,.12,0a10.25,10.25,0,0,0,1.51.28,3,3,0,0,0,.78,0"/><rect class="cls-1" x="20.86" y="31.25" width="0.31" height="1.57" transform="translate(-17.29 31.28) rotate(-55.61)"/><path class="cls-8" d="M19.1,28.61a56.69,56.69,0,0,0-2.3,6.17c-.25,2.53,3.34,9.41,3.34,9.41l.94-1.32L19.54,35l2.25-5.58Z"/><path class="cls-10" d="M19.11,28.32l-.73,1.89s2.15-.2,2.69,1.36L22.13,29l-2-.74Z"/><line class="cls-11" x1="21.01" y1="31.39" x2="21.59" y2="30.08"/><path class="cls-14" d="M51.07,32.31l.17-.91.5-.77s-1.05.54-1.44.2-.41-1.57-.44-1.61-.29.16-.37.1.15-1.09.15-1.64S49.23,25.54,51,25.3s3.21-.35,3.57.73-.16,2.22-.07,3,.42,3.06.42,3.06l-1.81,1.19Z"/><path class="cls-9" d="M54.53,29.12c.08.24-.89.2-1-.2s-.35-1.72-.86-2-.75.15-.74.53a3.53,3.53,0,0,0,.25,1l-.26.07s-.26-.77-.75-.79c-.24,0-.21-.16-.27-.32a4.42,4.42,0,0,0-.59-1.26c-.18-.08-.67.27-.67.27s-.65-.8-.64-1.21,1.26-1.37,2.78-1.32,2.38.57,2.61,1.46A2.53,2.53,0,0,1,54.84,27C54.74,27.88,54.28,28.33,54.53,29.12Z"/><circle class="cls-9" cx="49.69" cy="25.37" r="1.08"/><ellipse class="cls-9" cx="50.96" cy="26.31" rx="0.74" ry="0.93" transform="translate(-6.37 27.74) rotate(-28.74)"/><circle class="cls-9" cx="50.5" cy="24.19" r="1.08"/><circle class="cls-9" cx="51.79" cy="24.26" r="1.08"/><circle class="cls-9" cx="53.35" cy="24.45" r="1.08"/><circle class="cls-9" cx="54.09" cy="25.64" r="1.08"/><ellipse class="cls-9" cx="54.35" cy="27.02" rx="0.75" ry="1.08" transform="matrix(1, -0.04, 0.04, 1, -0.94, 1.97)"/><path class="cls-9" d="M52.24,27.31s.35-.28.44,0-.31.73-.31.73Z"/><path class="cls-12" d="M51.77,30.63a6.72,6.72,0,0,0,1-.64"/><path class="cls-9" d="M39.46,41.43s-.26-.2.76-1.12S41.57,42,41.57,42l-1.25.28Z"/><path class="cls-14" d="M47.07,42.35s-4.89-7.17-6.45-7.63c-2.1-.61-3.27.33-4.21,3.13a94.43,94.43,0,0,1-3.75,9.75l2.44.8s1.95-3.56,2.56-4.7a18.6,18.6,0,0,0,1.9-4.45s.94,6.54,2.72,7.37,5.47-1.31,5.47-1.31Z"/><path class="cls-14" d="M33.64,46.5a6.74,6.74,0,0,1-1.1,1.71,8,8,0,0,1-2.42,1.39c-.58,0-.85.2-.95.6s1.43.46,2.2.41,1.77-.35,2.14-.3A2.51,2.51,0,0,0,35.16,50c.34-.36.08-.92,0-1.3a3.78,3.78,0,0,1,.11-1Z"/><path class="cls-9" d="M43.51,37.33c-.38,2.47-4,4.1-4,4.1A30,30,0,0,0,40.79,45c.21.09,5.69,0,5.69,0l2-1.8Z"/><path class="cls-14" d="M46.45,42.83s-1.85.64-2.86,1-8.64.94-9.34,1a7.74,7.74,0,0,0-2.15.07c-1.1.26-12.4-.75-12.4-.75l-.51,1.74s2.53.72,4.42,1.32a24.79,24.79,0,0,0,9.53,1,35.88,35.88,0,0,0,10.93,2.3c5.75.19,7.68-1.17,7.68-1.17l-1.11-4Z"/><path class="cls-12" d="M33.87,44.88h.06l1.35-.08.28,0,.62-.05.34,0,.36,0h.19m-2,4.32-.81-.26h0L34,48.63l-.11,0-.09,0-.3-.11h0a1.47,1.47,0,0,0-.3-.12.06.06,0,0,0-.05,0h0l-.65,0"/><path class="cls-9" d="M52.68,48.26c-.54,1.39-2.22,2.43-5.31,2.88s-10.24-.45-10.24-.45a9.49,9.49,0,0,1,.1-1.27l1.45-.15s-.9-.43-1.33-.57a16,16,0,0,0,.52-2.55c0-1.24-.23-1.47-.23-1.47l5.45-.76a11.17,11.17,0,0,0,1.43-.47c.84-.33,1.93-.62,1.93-.62l1.23.1,1.83.82S53.21,46.87,52.68,48.26Z"/><path class="cls-15" d="M40.71,44.25l2.38-.33s1.56-.46,2.4-.8"/><path class="cls-6" d="M58,36.48c-.1,1-.23,1.86-.38,2.7a22.35,22.35,0,0,1-1,3.78h0c-.18.51-.38,1-.61,1.54a0,0,0,0,1,0,0,27.56,27.56,0,0,1-1.76,2.77c-.3.44-.63.87-1,1.29s-.81,1-1.23,1.46l-.51-.36-.11-.08a8.91,8.91,0,0,1-1.18-1,3.94,3.94,0,0,1-.43-.52c-.15-.21-.31-.48-.49-.77-.56-.92-1.23-2.12-1.8-3l-.1-.15a3.52,3.52,0,0,0-.74-.87.68.68,0,0,1-.32-.44h0a.84.84,0,0,1,.3-.64.76.76,0,0,0,.23-.12.83.83,0,0,0,.33-.34,1.19,1.19,0,0,0,.15-.64c0-.9,1-1.39,1-1.39s.55-2.31.9-4.4.36-3.31,1.25-3.93c.19-.13,1-.61,1.16-.69h0c-.09.14-.81,1.29,0,1.37s2.63-1.68,2.91-1.95l0,0a4.69,4.69,0,0,1,1.83.85s0,0,0,0l0,0,0,.05a.35.35,0,0,1,.07.09A8.35,8.35,0,0,1,58,36.48Z"/><path class="cls-14" d="M20.31,44.24l-.06,0h0l-.07,0-.06,0a4.24,4.24,0,0,1-1.1-.85c-.11-.15-.27-.4-.45-.68a4.83,4.83,0,0,1-.85-1.78c0-.58-.17-.86-.57-1s-.51,1.42-.49,2.19a7.28,7.28,0,0,0,.1.9,7.26,7.26,0,0,1,.13,1.24,2.45,2.45,0,0,0,.26,1.66c.34.35.91.12,1.29.09a3.78,3.78,0,0,1,1,.14l0-.06h0l1-1.28.22-.28Zm38.48-6.63a20.91,20.91,0,0,0-.32-2.9,8.2,8.2,0,0,0-1.85-3.6.35.35,0,0,0-.07-.09l0-.05,0,0s0,0,0,0l-2.24,3.34s.7,2.1,1.31,4l.05.15.29.93c.27.82.48,1.49.56,1.77s.11,1,.18,1.84h0c0,.11,0,.22,0,.33A27.85,27.85,0,0,0,58.38,39a3,3,0,0,0,.45-.14C58.83,38.5,58.81,38.06,58.79,37.61Z"/><path class="cls-1" d="M18.2,50.21c-.44-.36-1-4.33,2.26-4.33s3,3.59,2.45,4.33c-.37.54-1.29.43-2.61.43S18.61,50.55,18.2,50.21Z"/><path class="cls-16" d="M18.77,49.81a2.52,2.52,0,0,1-.18-1.41,1.86,1.86,0,0,1,3.45-1,2.84,2.84,0,0,1,.33,1,2,2,0,0,1,0,.73,1,1,0,0,1-.35.62,1.82,1.82,0,0,1-1.24.27,3.61,3.61,0,0,1-.73-.07,1.16,1.16,0,0,1-.63-.35,1.35,1.35,0,0,1-.18-1.19c.13-.54.49-1.18,1.11-1.24.85-.1,1.45.92,1.39,1.67s-1.14.72-1.53.39.05-1.15.05-1.15"/><path class="cls-6" d="M58.79,37.61c0,.45,0,.89,0,1.28a3,3,0,0,1-.45.14c-.23.06-.49.11-.74.15a16.55,16.55,0,0,1-1.75.17h0l0-.06-1.94-5.4s2-3.41,2.58-3c0,0,0,0,0,0a7.43,7.43,0,0,1,2,2.9,15.54,15.54,0,0,1,.59,2.47C59,36.76,58.91,37.19,58.79,37.61Z"/><line class="cls-11" x1="55.83" y1="39.29" x2="54.98" y2="36.23"/><path class="cls-12" d="M33.14,48.29a2.89,2.89,0,0,1,.19-.63"/><path class="cls-8" d="M21.08,42.87a5.87,5.87,0,0,1,.82.47c.28.21.55.47.58.46s1-.07,1.1-.09,0,.34-.36.47-.66.18-.66.18.17,1,.2,1.34.19,1-.3.95c0,0,0,.27-.21.32a.24.24,0,0,1-.27-.09s0,.07-.18.11-.18-.14-.22-.22-.12-.27-.12-.27,0,.2-.22.21-.23-.7-.36-1-.29-.68-.43-1-.29-.73-.29-.73Z"/><line class="cls-12" x1="22.48" y1="46.77" x2="22.03" y2="44.88"/><path class="cls-12" d="M21,45.26c0,.16.14.43.23.69l.21.63a0,0,0,0,1,0,0h0m.05-1.6s0,.09.15.53c0,.14.09.36.14.58s.1.43.13.59,0,.14.05.19h0A.66.66,0,0,0,22,47"/></svg>