<svg id="Layer_1" data-name="Layer 1" xmlns="http://www.w3.org/2000/svg" viewBox="0 0 144 144"><defs><style>.cls-1{fill:#9f9fe6;}.cls-2{fill:#f29b81;}.cls-3{fill:#e2c3aa;}.cls-4{fill:#70829b;}.cls-5{fill:#191919;}.cls-6{fill:#303649;}.cls-7{fill:#e2ab87;}.cls-8{fill:#3b546c;}.cls-9{fill:#e0c2a8;}.cls-10{fill:#f1404c;}.cls-11{opacity:0.93;}.cls-12{fill:#232323;}.cls-13{opacity:0.31;}.cls-14{fill:#c4e6e4;}.cls-15,.cls-22{opacity:0.2;}.cls-16{fill:#d39572;}.cls-17{fill:#fff;opacity:0.49;}.cls-18{opacity:0.17;}.cls-19{fill:#ac7350;}.cls-20{fill:#ef8467;}.cls-21{fill:#77bbb6;}.cls-22{fill:#050505;}.cls-23{fill:none;}</style></defs><title>physiotherapy-rehabilitation</title><path class="cls-1" d="M117.75,60.24a16.14,16.14,0,0,0-.33,5.83c.52,2.31,1.34,13.55,1.34,15.11s.25,3.92-.18,4-1.47-1-1.47-1l-1.59-8.88,1-7.65.58-6.58Z"/><path class="cls-2" d="M67.91,84.46a.46.46,0,0,0-.07.07c-.62.74-5.66,6.69-6.81,7.94S53.5,100,52,101.23s-3.64,3.58-4.74,3.58c-.88,0-2.72-1.23-4.57-1.23-.49,0-.94,0-1.28,0-1.65.12-4.65.67-4.65.67l.89-1.05s0,0,0,0l.59-.69,0,0c.16-.12.74-.51,1.6-1.09l.16-.12c3.82-2.6,12.59-8.59,15.53-10.71.36-.26.64-.46.8-.6l3.95-3,0,0,.2-.15.38-.29,2.31-1.75.85-.65h0l.16-.12a3.33,3.33,0,0,1,.32-.24c.86-.65,1.47-1.12,1.61-1.21l0,0Z"/><path class="cls-3" d="M115.68,87.45l-.57,0a1.1,1.1,0,0,1,.36,1v2.64H116c0-1,0-1.88,0-2.81A1.32,1.32,0,0,0,115.68,87.45Zm-.05,7.18c0-.38.26-.68.21-1.08a11.59,11.59,0,0,1,0-1.32.56.56,0,0,0-.07-.17l-.3,0c.15.48-.23.85-.17,1.33a2.09,2.09,0,0,1-.16,1.35c.1.78-.29,1.53-.19,2.32,0,.11.06.28,0,.34-.28.3,0,.69-.18,1a2.44,2.44,0,0,0-.16,1c0,.11,0,.29,0,.33-.29.28-.17.62-.14.92s-.28.55-.22.9c.12.57-.28,1.11-.16,1.7a.9.9,0,0,0-.16.9c.06.34-.29.56-.19.9s-.15.59-.17.9a1.46,1.46,0,0,1-.22.85c.17.17.32.1.48.12a7.25,7.25,0,0,0,.41-1.93,5.06,5.06,0,0,0,.21-1.78,22.32,22.32,0,0,0,.51-2.71,18.78,18.78,0,0,0,.33-2.5,7,7,0,0,0,.22-2c0-.09,0-.22,0-.26C115.81,95.39,115.63,95,115.63,94.63Zm17.2,16.45a6.17,6.17,0,0,0-.69-2.64,1,1,0,0,1-.2-.79c-.81,0-1.6,0-2.41.13-1.14.18-2.31,0-3.47.2-.84.15-1.71,0-2.58.16s-1.78,0-2.68.2a16.14,16.14,0,0,0-2,.16,3.51,3.51,0,0,1-1.41,0c-.47-.06-.87.29-1.34.18-.09.42.26.75.19,1.17a6.31,6.31,0,0,0,0,1.15,5.45,5.45,0,0,1-.4,1.76h-.4a.25.25,0,0,1-.08-.32,5.33,5.33,0,0,0,.3-2.85,16.59,16.59,0,0,1-2.09,4c-.2-.35-.23-.53,0-.74a21.89,21.89,0,0,0,1.1-2,.37.37,0,0,0,0-.41c-.69.47-1,1.24-1.63,1.76-.15,0-.31,0-.42-.07s0-.18,0-.25c.44-.44.91-.86,1.31-1.32a7.06,7.06,0,0,0,1.38-1.91h.27c0-.14-.06-.32,0-.43a.46.46,0,0,0,.07-.16,2.86,2.86,0,0,0,.09-.83,1.72,1.72,0,0,1,0-.39L118,86.39a8,8,0,0,1-2.33.36c-.68.37-1.44.08-2.16.32a6.79,6.79,0,0,1-1.92,0,6.79,6.79,0,0,0,.89,1.88,7.81,7.81,0,0,0,1.41,1.67c.52.43,1.29.49,1.63,1.16a3.51,3.51,0,0,1-1.71-.65c-1.46-1.14-1.6-1.53-2.54-3.36-.06-.14-.27-.24-.17-.51-.6,0-1.19,0-1.77,0a5.79,5.79,0,0,1-1.79-.15c-.55-.19-1.17,0-1.78-.17a6.46,6.46,0,0,0-1.34-.17c-.4,0-.74-.3-1.16-.21a10.88,10.88,0,0,0-2-.67c-.44-.19-.9-.39-1.36-.55a3.76,3.76,0,0,1-1.29-.55c-.05,0-.16,0-.26,0a1.22,1.22,0,0,1-.43.88c-.23.23-.45.46-.72.72l.64.41a5.67,5.67,0,0,1-.35,2.68c-.12.24,0,.51.29.81.18.06.22-.17.39-.18.35.13.64.44,1.08.35.08-.57-.36-1.1-.14-1.74.08-.09.23,0,.4,0,.09.34.42.51.6.79.53.87,1,1.79,1.55,2.63a1.49,1.49,0,0,1,.22,1c-.09,1.29.3,2.54.19,3.82a.65.65,0,0,1,0,.24.1.1,0,0,1,0,0h-.12a7.15,7.15,0,0,0,0,1.67,12.5,12.5,0,0,1,.15,2.58c-.08.28.24.44.2.73a7.06,7.06,0,0,0,0,.8c-.05,1.22.31,2.42.18,3.63a9.45,9.45,0,0,1,.2,2c.13.6.06,1.21.18,1.78a5.58,5.58,0,0,1,.12,1l.17,1.16h0a.81.81,0,0,1,0,.27c0,.06,0,.11,0,.15l.07.44c0,.09.13.19.07.32a7.55,7.55,0,0,0,.27,1.37,4.13,4.13,0,0,1,.09.75c.2.36.29.76.47,1.12a8.07,8.07,0,0,0,1,1.54c.14,0,.18.18.27.17.65-.1,1.24.3,1.88.18.39-.07.68.25,1.08.2a1.28,1.28,0,0,1,1,.14c.13.1.4,0,.6,0a9.93,9.93,0,0,0,2,.18c.31.33.73.08,1.07.18a2.41,2.41,0,0,0,1,.17s0-.14.07-.15c.82-.13,1.67-.21,2.48-.39s1.77-.42,2.64-.63,2-.65,3-.8a7.77,7.77,0,0,0,.91-.33,24.92,24.92,0,0,0,3.47-1.19c.18-.08.35,0,.51,0,.12-.34.55-.07.68-.36.28.12.46-.15.71-.2.42-.09.79-.43,1.27-.33,0-.25.19-.13.31-.18a18.88,18.88,0,0,0,2.7-1.15s0-.06,0-.09A18.19,18.19,0,0,0,132.83,111.08Z"/><path class="cls-4" d="M142.45,128.68c-1.18-1-2.08-2.34-3.23-3.4-1.32-1.23-2.4-2.7-3.73-3.91,0,0,0-.05,0-.08a2.91,2.91,0,0,0-.35-.18s0,.14-.06.14c-.77,0-1.51.28-2.29.22s-1.52.29-2.3.17c-.12,0-.3.06-.31-.18a11.9,11.9,0,0,1-2.52,1.06,2.43,2.43,0,0,0-1,.53.81.81,0,0,0,.68.37,2.34,2.34,0,0,1,1.33.66,3,3,0,0,1-2.3,1.26c-.29,0-.5.24-.81.21a1.42,1.42,0,0,0-.82.13c-.16.08-.57.24-.74-.14h-.71v.33a10.43,10.43,0,0,0-1.75.2,9.86,9.86,0,0,1-1.17.19,1.58,1.58,0,0,0-1.16.16.11.11,0,0,1-.08,0c-1.14-.13-2.26.26-3.38.17s-2.13.22-3.2.19a18.86,18.86,0,0,0-3.19,0,43.51,43.51,0,0,1-5.23.15,44.75,44.75,0,0,1-5.31,0c-1.7-.17-3.37-.09-5.06-.13s-3.37,0-5,0a24.47,24.47,0,0,1-2.58.18c-.6.32-1.26,0-1.87.18-1.27.29-2.57,0-3.82.2a24.85,24.85,0,0,1-3.55.13c-1.18,0-2.36,0-3.55,0h-.53a12.49,12.49,0,0,0-2,0,34.14,34.14,0,0,1-5.15.16c-1.74,0-3.49,0-5.22,0-1.25,0-2.48-.26-3.73-.2a23,23,0,0,1-3.8,0c-1.08-.13-2.16,0-3.2-.18s-2,0-3-.17-1.91,0-2.84-.17-1.63,0-2.4-.18a19.45,19.45,0,0,1-2-.19c-.7-.24-1.44.09-2.08-.31a6.54,6.54,0,0,1-1.87-.2,24.19,24.19,0,0,1-3-.59,2.05,2.05,0,0,0-.48-.1,9.75,9.75,0,0,0-1.95,0,22.25,22.25,0,0,1-3.91.15c-1.3,0-2.59,0-3.9,0a12.34,12.34,0,0,1-1.24-.22c-.43,0-.89.18-1.26-.16a4.89,4.89,0,0,1-1.61-.18,14.43,14.43,0,0,1-3.15-.93,1.79,1.79,0,0,1-.51-.3.52.52,0,0,1-.17-.13l-.24-.22c-.07-.1-.15-.19-.22-.31v-1c.34-.21.51-.64,1-.79s.76-.43,1.16-.61c.17-.07.33-.18.5-.27a.93.93,0,0,1,.61-.17h0a12.69,12.69,0,0,1,.73,1.83,4.08,4.08,0,0,0,.45.73,1.73,1.73,0,0,0,.21.25,3,3,0,0,0,.37.34l0,0a4.43,4.43,0,0,0,.42.29h0a3.58,3.58,0,0,0,.48.24,5.15,5.15,0,0,0,.52.2,5,5,0,0,0,2.33.34,6.19,6.19,0,0,0,3.79-1.71c.22-.24.46-.46.69-.7a.09.09,0,0,1,.06,0l.07,0h.19a5.74,5.74,0,0,1,0-1.5,9.17,9.17,0,0,0,.15-2.33,2.35,2.35,0,0,0-.42-1.32,4.45,4.45,0,0,0-.83-1.16,7,7,0,0,0-2.92-1.51,30.88,30.88,0,0,1-3.44-.86,1.09,1.09,0,0,0-.36,0c0,.17-.18.21-.26.36H16.54c-5,4.82-9.59,9.9-14.52,14.69a2.21,2.21,0,0,0-.62.89h141a.13.13,0,0,0,.14-.17A.44.44,0,0,0,142.45,128.68ZM20.63,120.76a5.7,5.7,0,0,0,.54.55,4.41,4.41,0,0,0,2.18.34V122c-1.17.07-2.31.13-3.13-1a3.09,3.09,0,0,1-.22-1.55,2.1,2.1,0,0,1,1.24-1.18,1.86,1.86,0,0,1,2.11.88.87.87,0,0,1,0,.49l-.17,0s-.13-.07-.13-.09c.07-.43-.2-.64-.53-.79a1.21,1.21,0,0,0-1.34,0,2.63,2.63,0,0,0-.5.5A1,1,0,0,0,20.63,120.76Zm-3.1-2.92a4.52,4.52,0,0,1,2.87-2.14c.59-.12,1.21-.53,1.87-.1.21.13.6,0,.85.07a4.66,4.66,0,0,1,2.8,2.39,3.74,3.74,0,0,1,.26,1.81c-.33-.12-.29-.44-.49-.61a3,3,0,0,0-1.83-2.78,5,5,0,0,0-3.14-.47,3.35,3.35,0,0,0-1.6.79,7.39,7.39,0,0,0-1.7,2C17.16,118.44,17.39,118.09,17.53,117.84Z"/><path class="cls-5" d="M27.44,122a5.29,5.29,0,0,1,0-1.49,9.14,9.14,0,0,0,.15-2.33,2.33,2.33,0,0,0-.42-1.33,4.75,4.75,0,0,0-.83-1.15,6.87,6.87,0,0,0-2.92-1.51,31.62,31.62,0,0,1-3.45-.86,1,1,0,0,0-.35,0c-.29-.29-.71-.33-1.06-.52a10.28,10.28,0,0,1-2.36-1.56,4,4,0,0,1-1-1.37,5.74,5.74,0,0,1-.6-1.53,11,11,0,0,1,0-3.13,4.84,4.84,0,0,0,.2-1.69c.33-.31.08-.73.19-1.07a2.42,2.42,0,0,0,.16-1,.89.89,0,0,0,.15-.06A2.79,2.79,0,0,1,16,99.8a2.83,2.83,0,0,1,1.53-1.45,4.11,4.11,0,0,0,1.28-.8,6.9,6.9,0,0,1,2.79-.71,6.93,6.93,0,0,1,2.48.6,1.48,1.48,0,0,0,.57.11.45.45,0,0,0,.33.35c.67.25,1.09.84,1.68,1.21.15.1.12.25.12.39a.7.7,0,0,1-.39-.11c-.21-.11-.4-.31-.68-.25,0,0,0-.12-.06-.14a5.78,5.78,0,0,0-1.06-.24,6.92,6.92,0,0,0-3.41.22c-.26.32-.83.23-1,.71a9.89,9.89,0,0,1,1.44,2.7,5.4,5.4,0,0,1,.51,2.09,2.26,2.26,0,0,1,.14,1.69,11.53,11.53,0,0,0-.14,1.38c.68.68.68.68.86,1.27-.5.15-1.05.2-1.39.7v1a2.11,2.11,0,0,0,3.6-.23,3.27,3.27,0,0,1,.94,0,8.38,8.38,0,0,1,1.5.67A17.38,17.38,0,0,1,31.07,113c.47,0,.42.47.62.71a1.23,1.23,0,0,1,0,.43,16.49,16.49,0,0,0-.52,1.69c0,.11,0,.23-.06.33a3.5,3.5,0,0,0-.81,2.23,3.86,3.86,0,0,0,1.47,3.09c.35,0,.43.5.81.38.25.52.86.48,1.24.8v.26a5.86,5.86,0,0,1-4.57,1.4A2.36,2.36,0,0,1,27.44,122Z"/><path class="cls-6" d="M1.4,129.26h141a.13.13,0,0,0,.14-.17c.18,0,.22.18.33.24v.8H1.24C1.16,129.81,1.51,129.56,1.4,129.26Z"/><path class="cls-6" d="M132.65,113.84a18.06,18.06,0,0,0,.18-2.75,6.31,6.31,0,0,0-.68-2.65,1,1,0,0,1-.21-.79c.55,0,1-.37,1.52-.37.14-.29.46-.2.68-.29,1.54-.65,2.62.22,3.12,1.57a9.08,9.08,0,0,1,.33,1.44,33.75,33.75,0,0,0,1,4.08c.29.94.6,1.87.9,2.81a5.4,5.4,0,0,1,.06,1.21,1.75,1.75,0,0,1-1.43,1.61,8.44,8.44,0,0,1-1.87.34h-2v-.17c-.08-.2-.26-.38-.15-.61a7,7,0,0,1,1.27-1.49c.06,0,.15-.1.12-.21a1.17,1.17,0,0,0-.31-.75c-.39-.55-.8-1.09-1.22-1.62A8.31,8.31,0,0,0,132.65,113.84Z"/><path class="cls-7" d="M116,108.71c-.09.41.26.74.19,1.17a6.19,6.19,0,0,0,0,1.14,5.45,5.45,0,0,1-.4,1.76h-.4a.25.25,0,0,1-.08-.32,5.42,5.42,0,0,0,.29-2.85,15.89,15.89,0,0,1-2.08,4c-.19-.35-.23-.52-.05-.74a19.83,19.83,0,0,0,1.11-2,.37.37,0,0,0,0-.41c-.69.47-1,1.25-1.63,1.77-.15,0-.31,0-.43-.08s0-.17.05-.25c.44-.44.9-.85,1.31-1.32a7.17,7.17,0,0,0,1.38-1.9h.8Z"/><path class="cls-1" d="M118.14,54.63a2.52,2.52,0,0,0-.37-1.18.61.61,0,0,1,0-.19c-.14-.42-.53-.74-.53-1.23-.41-.09-.36-.55-.65-.75a6.23,6.23,0,0,1-.69-.67,11.37,11.37,0,0,0-3.8-2.32c-.69-.27-1.38-.53-2.08-.74a4.11,4.11,0,0,0-1.46-.31c0,.07,0,.15,0,.18-.62.76-1,1.66-1.61,2.44S106,51.3,105.55,52s-.75,1.21-1.17,1.87a10.77,10.77,0,0,0-2.14-1.58c-.11.94,0,1.81-.06,2.66s.25,1.71.2,2.59a6.35,6.35,0,0,0,.19,2.59h-1.74a1.2,1.2,0,0,1,0-.75c.1-1.25-.26-2.47-.2-3.73s0-2.52,0-3.82c-.82.52-1.2,1.36-1.92,2-.64-1.66-1.14-3.33-1.65-5l-.1,0h0c-.13,0-.19.09-.29.16l-.38.25-.26.16-1.32.83c-.06,0-.17,0-.26,0a.46.46,0,0,1-.12.24.26.26,0,0,1-.1.07l-.14,0-.17.16-.62.56a1.17,1.17,0,0,0-.16.15l0,0a1.59,1.59,0,0,1-.63.45,13.54,13.54,0,0,1-1.21,1.53l-.81,1.32v0a2.43,2.43,0,0,1-.29.49h0c-.23.39-.44.77-.65,1.14-.11.19-.2.37-.3.55s-.12.24-.18.34-.12.23-.18.37c-.92,1.91-2.35,6.11-2.44,6.39a1.83,1.83,0,0,1,.07.32c.17.07.45-.16.53.17,1.09.78,2.14,1.63,3.3,2.31a5,5,0,0,0,1.66.89.55.55,0,0,0,.33-.51c-.07-.62.28-1.17.21-1.79-.09-.83.3-1.64.16-2.48.27-.36.09-.8.21-1.15A3.89,3.89,0,0,0,93,60.61c0-.41,0-.82,0-1.24.15-.15.32-.08.54,0,0,.22,0,.45,0,.68a4,4,0,0,0,.18,1.24,6.12,6.12,0,0,0,.14,1.18A5.39,5.39,0,0,1,94,63.85a13.63,13.63,0,0,1,.38,2.68,2,2,0,0,1,.18,1.15c-.07.14-.2.09-.3.14s0,.22,0,.32c.33.13.06.55.35.69-.09.49.28.93.17,1.43-.06.28.26.44.18.72-.13.5.2.93.18,1.42l0,1.41a3.82,3.82,0,0,0,1.4-.16,20.31,20.31,0,0,1,2.14-.54c.81-.19,1.57-.51,2.38-.68.34-.08.72-.33,1.06-.42a1.84,1.84,0,0,0,.62-.33,1.52,1.52,0,0,0,.38-.86,4.68,4.68,0,0,1,.32-.76c.52-1.3,1.15-2.58,1.67-3.9a3.87,3.87,0,0,1,.77-1.38c.11,0,.26,0,.33,0,1,.74,2.11,1.21,3.14,1.84a7.81,7.81,0,0,0,1.41.64c.85.3,1.64.73,2.48,1.06.34-.09.62.25,1,.17a29.73,29.73,0,0,0,3.11-8.08c.16-.11.34,0,.51-.06.12-.72.27-1.43.39-2.15s.08-1.55.15-2.32C118.35,55.44,118.12,55,118.14,54.63Zm-4.37,12.11a17.16,17.16,0,0,1-2.91-1c-.5-.22-1-.45-1.48-.7a13,13,0,0,1-1.52-.8,1.55,1.55,0,0,0-1.25-.44,2.46,2.46,0,0,0,.46.49,10.55,10.55,0,0,0,1.45.76c.52.2,1,.53,1.45.77,1.17.59,2.41,1,3.63,1.47.13.05.34.13.45-.1A.36.36,0,0,0,113.77,66.74ZM109,54.86c-.28,0-.36.17-.45.36-.55,1-.94,2.09-1.39,3.14-.26.64-.53,1.3-.74,2s-.57,1.3-.78,2c-.13.38-.47.78-.2,1.24.16,0,.23,0,.29-.18.49-1.15.91-2.33,1.37-3.49.29-.7.53-1.44.82-2.13a14.3,14.3,0,0,1,1-2.15C109,55.4,109.25,55.17,109,54.86Z"/><path class="cls-8" d="M83.05,64.8c.13,1-.25,1.93-.16,2.9,0,.42-.25.75-.2,1.16a1.5,1.5,0,0,1-.16,1.07c-.07.13,0,.34,0,.52a1,1,0,0,0-.19.63c0,.23.11.54,0,.68-.3.38,0,.82-.17,1.16A3,3,0,0,0,82,74.16h-.18c-.47.08-.91-.39-1.41-.09v.43c.24.66,1,.7,1.26,1.3a1.65,1.65,0,0,1-1.43.67c-1.17,0-2.34,0-3.44,0-.28.21-.36.4-.27.62,1.12.64,2.35.36,3.65.48a12.4,12.4,0,0,1-3.76.34.54.54,0,0,0-.22.68c.06.19.4.11.53.4a.5.5,0,0,0-.22.58c.2.21.41.41.63.62h.79v.62c.23.2.38.54.79.44.34.33.76.12,1.16.19a5.09,5.09,0,0,1-.63,1.76,6.61,6.61,0,0,0-.61,1.42c-.17.32-.41.57-.56.91a12.27,12.27,0,0,0-.92,2.59,9.83,9.83,0,0,0-.29,1.19,1.66,1.66,0,0,1,0,.22h0a2.42,2.42,0,0,0-.16.39c-.18.63-.4,1.78-.4,1.78L73.75,111a6.94,6.94,0,0,1-2.87-.51,16.1,16.1,0,0,0-1.84-.67.83.83,0,0,0-.75,0,.78.78,0,0,0,.61.4c.24,0,.39.23.62.22.08.33.55,0,.6.33s-.28.57-.6.72a3.62,3.62,0,0,0-.86.49.78.78,0,0,1-.78.18c-.18-.19-.34-.43-.67-.3a1.16,1.16,0,0,1-.38.51c-.19,0-.4-.07-.62.09.19.22-.18.23-.16.43a.93.93,0,0,1,0,1.09,2.38,2.38,0,0,0-.51,1c0,.57-.41.54-.73.63,0,.38-.46.46-.43.84-.25-.08-.41.31-.63.15-.44-.29-.76-.06-1.13.15a.71.71,0,0,1-.65,0c.06-.65-.28-1.24-.2-1.88,0-.24.23-.39.2-.63s0-.48,0-.71-.27-.56-.13-.91c.08-.15.33-.21.31-.45s-.65-.26-.68-.66.59-.62.5-1.14a1.38,1.38,0,0,0-.52-.47c-.45.16-.49.65-.8.89h-.44c0-.31-.25-.55-.19-.88s-.26-.57-.17-.89h.53v-.7a.36.36,0,0,1,.14-.21.83.83,0,0,1,.27-.17.31.31,0,0,0,.13-.06,1.74,1.74,0,0,0,.88-.81c.33-.28.32-.72.44-1.07a8.73,8.73,0,0,0,.63-2.19c.05-.14.11-.3.16-.46h.18c-.06-.25.13-.46.16-.68.08-.48.41-.87.37-1.37,0,0,0,0,0,0s0,0,0,0h0s.11,0,.12-.06c.19-.73.49-1.43.7-2.15A9.86,9.86,0,0,0,65,98q.12-.28.21-.57a1.06,1.06,0,0,0,.21-.54v0a2.77,2.77,0,0,0,.1-.26,0,0,0,0,0,0,0,20.06,20.06,0,0,0,.9-2.26c.38-1.11.86-2.18,1.32-3.25.24-.58.51-1.16.76-1.73.34-.77.64-1.56.94-2.36s.69-1.54,1-2.34c.16-.47.54-.87.46-1.41A30.42,30.42,0,0,0,73.14,81c0-.17.06-.33-.1-.44h-.79v-.71A14.84,14.84,0,0,0,73.6,77h1.05c.23-.23.46-.4.52-.7a1.33,1.33,0,0,0,1.15-.44v-.79h.45c.09-.26.32-.46.26-.77a1.71,1.71,0,0,0-.73-.61c.29,0,.42-.15.55-.32v-.51c-.48-.34-1.14-.37-1.41-1a8.24,8.24,0,0,0,.73-1.72,28.88,28.88,0,0,1,1.11-3.41,14.64,14.64,0,0,0,.79-2.31,6.13,6.13,0,0,0,.39-1.26.39.39,0,0,1,.34-.33c.42.29.91.2,1.37.33a9.82,9.82,0,0,1,2.16.73,1,1,0,0,0,.72.18c0,.15.14.18.17.25C83.34,64.56,83,64.6,83.05,64.8Z"/><path class="cls-2" d="M110.69,67.26a7.81,7.81,0,0,1-1.41-.64c-1-.63-2.16-1.1-3.14-1.84-.07,0-.22,0-.33,0a3.87,3.87,0,0,0-.77,1.38c-.52,1.32-1.15,2.6-1.67,3.9a4.68,4.68,0,0,0-.32.76,1.37,1.37,0,0,1-.49.76.42.42,0,0,1-.17.16c-.52.22-2,.6-2.86.87-.5.15-2.71.74-4.46,1.2l-2.23.58L91,74.86a.27.27,0,0,1-.16,0l-.7.18-.46.11c-.31.07-.62.13-.92.21h-.08l-.26-.08s2.63-3.45,3.53-4.69c-.29,0-.23-.3-.31-.45a6.37,6.37,0,0,0-.65-1c-1.37-1.38-2.55-2.9-4-4.15V64.6c-.08-.33-.36-.1-.53-.17-.3.64-.63,1.27-.87,1.93-.38,1-.81,2-1.27,2.9a1.7,1.7,0,0,1-1.76,1.19,1,1,0,0,0-.19.63c0,.23.11.54,0,.68-.3.38,0,.82-.17,1.16A3,3,0,0,0,82,74.16a9.91,9.91,0,0,1,2.26.94c.3.13.56.36.86.47a1.21,1.21,0,0,0,.81.19,13.4,13.4,0,0,0,1.63-.32.85.85,0,0,1,.59,0,1.33,1.33,0,0,1-.29.25l-.08,0a.28.28,0,0,1-.18,0h-.1l-.25.06c-.15.08-.28.19-.47.15a1.46,1.46,0,0,0-.73.15,2.2,2.2,0,0,1-.72,0,29.28,29.28,0,0,0-3.51-1.65v-.31c-.47.08-.91-.39-1.41-.09v.43c.24.66,1,.7,1.26,1.3a1.65,1.65,0,0,1-1.43.67c-1.17,0-2.34,0-3.44,0-.28.21-.36.4-.27.62,1.12.64,2.35.36,3.65.48a12.4,12.4,0,0,1-3.76.34.54.54,0,0,0-.22.68c.06.19.4.11.53.4a.5.5,0,0,0-.22.58c.2.21.41.41.63.62h.61c0-.09,0-.16.11-.14s.05.09.07.14a13.65,13.65,0,0,1,1.57,0c.49.05.91-.3,1.38-.18.15.25-.05.34-.2.51a13.12,13.12,0,0,1-1.77,0,5.4,5.4,0,0,0-1-.15v.44c.23.2.38.54.79.44.34.33.76.12,1.16.19.84.12,1.65-.25,2.48-.19.49-.28,1.08-.19,1.59-.42s1.06-.31,1.55-.53a8,8,0,0,0,.78-.27c.18-.09.46,0,.69,0h3.89c0-.18.11-.19.22-.19H93a9.52,9.52,0,0,1,1.31,0c.43.06.75-.29,1.15-.19,1,.13,2.07-.29,3.11-.18.46-.24,1-.07,1.43-.2s.91-.06,1.34-.17a21,21,0,0,0,2.36-.49,4.2,4.2,0,0,1,1.07-.18,4.93,4.93,0,0,0,2.45-.93A12.39,12.39,0,0,0,108.73,76c0-.38.38-.48.55-.74.71-1.18,1.47-2.33,2.16-3.53.55-1,1-2,1.61-2.87a1.21,1.21,0,0,0,.12-.58C112.33,68,111.54,67.56,110.69,67.26ZM80.48,78.78c-.55.31-1.17.09-1.75.18s-1.22-.22-1.85-.18v.28a13.55,13.55,0,0,0,3.64.26C80.58,79.09,80.64,78.92,80.48,78.78Z"/><path class="cls-2" d="M77,74.29c.06.31-.17.51-.26.77h-.45c-.53-.15-1.07-.27-1.58-.44s-1-.43-1.56-.65c0,.14-.06.19-.05.24.09.29.39.31.6.44a10.69,10.69,0,0,0,2.59.76v.44a1.33,1.33,0,0,1-1.15.44c-.06.3-.29.47-.52.7H73.6a14.84,14.84,0,0,1-1.35,2.84,7,7,0,0,0-1.06,1v.45a.14.14,0,0,0-.17.11.09.09,0,0,0,.06.06.14.14,0,0,0,.11-.17.49.49,0,0,0,.38-.1,2.21,2.21,0,0,1,.68-.61H73c.16.11.08.27.1.44a30.42,30.42,0,0,1-2.31,2.22,7.4,7.4,0,0,1-2.92,1.26.46.46,0,0,0-.07.07A37.91,37.91,0,0,0,65,87.7a25.37,25.37,0,0,1-2.2,2.44c-.49.45-.8,1-1.31,1.48-.05,0,0,.17,0,.26s-.13,0-.16,0a5.72,5.72,0,0,0-1.43,1.43s0,.1,0,.16c-.24-.06-.37.1-.52.25-.81,1-1.84,1.68-2.72,2.55-.07.07-.12.16-.19.19a3,3,0,0,0-1.17,1.09,16.65,16.65,0,0,0-2.06,1.78,1.9,1.9,0,0,1-.49.49,4.21,4.21,0,0,0-1.35,1.27.56.56,0,0,0-.4.12,2.72,2.72,0,0,1-.82.58,17.68,17.68,0,0,1-2.78.7,8.56,8.56,0,0,1-1.68,0c-.57,0-1.1.25-1.68.19a11.78,11.78,0,0,0-1.68,0,1.85,1.85,0,0,0-1.1.5c.6,0,.91.28,1.32.21a.13.13,0,0,1,.14.17h0c-.2.21-.5.16-.75.28a13,13,0,0,1-1.85.62c-.74.23-1.51.43-2.26.66a5.15,5.15,0,0,1-1.86.38c0-.11,0-.21.06-.33a6.5,6.5,0,0,1,.93-1.29c.22-.23.47-.44.69-.66,0,0,0,0,0,0a3.53,3.53,0,0,0,.59-.69l0,0a6.47,6.47,0,0,0,1.6-1.09l.13-.12h0c.09,0,.2,0,.22,0a4.51,4.51,0,0,1,1.34-.86c1.23-.71,2.4-1.55,3.67-2.23.26-.13.67-.22.76-.62.08,0,.2,0,.26,0,1.1-.89,2.4-1.52,3.45-2.47a4.52,4.52,0,0,0,1.6-1.24,2,2,0,0,0,1.06-.63c.47-.43,1-.83,1.45-1.22l1.72-1.42c.37-.32.73-.62,1.11-.91s.67-.51,1-.78,1.19-1,1.29-1.07.9-.57,1.36-.84l0,0a.93.93,0,0,1,.2-.1v0l.38-.29a1.48,1.48,0,0,0,.36-.23c.65-.49,1.3-1,2-1.52l.85-.65h0c.09,0,.15,0,.16-.12s.12-.1.12-.12l.2-.12a9.42,9.42,0,0,0,1.61-1.21l0,0c.67-.47,1.15-1.16,1.77-1.68.85-.69,1.6-1.49,2.47-2.15a17.09,17.09,0,0,0,1.3-1.12c.25-.24.61-.33.86-.66-.59-.73.25-1.49,0-2.25l.35-.35V73.4c.34-.36.78-.68.74-1.27l.42-.41c.48-.16.89.19,1.35.14.27.62.93.65,1.41,1v.51c-.13.17-.26.35-.55.32A1.71,1.71,0,0,1,77,74.29Z"/><path class="cls-6" d="M106.26,32.37v2.12a15.71,15.71,0,0,1-.19,2.47c0,.12-.11.24-.17.37h-.08a2.24,2.24,0,0,0-.91-1.41c-1.29-.12-1.5.31-1.73,1.21h-.59a5.37,5.37,0,0,1-.93-2.55,4.48,4.48,0,0,0-.35-1.09,1.29,1.29,0,0,0-1.2-.78,4,4,0,0,0-2.14.6,8.42,8.42,0,0,1-3.93,1c-.69,0-1.34-.37-2.07-.15,0,.08-.23.13-.25.37a2.44,2.44,0,0,1,.19,1.36,1,1,0,0,1-.71-.18c-.34-.31-.68-.63-1-.93-.12-.11-.19-.3-.39-.31a10.48,10.48,0,0,1-.92-1.65,13.33,13.33,0,0,1-.14-2c0-.13.09-.21.11-.31a2.66,2.66,0,0,1,1.73-1.92c.08,0,.13-.11.22-.19.42.16.8-.17,1.23-.16a4.4,4.4,0,0,0,1.31,0,1.92,1.92,0,0,0,.84-.33,7,7,0,0,1,1.12-.7c.32-.28.75-.4,1.06-.71a2.18,2.18,0,0,0,.5-.05,2.69,2.69,0,0,1,1.61-.28,3.14,3.14,0,0,0,.9.15c.67.52,1.45.88,2.06,1.42a5.23,5.23,0,0,1,2.55.34,3.45,3.45,0,0,1,1.07.81c.14.17.26.4.52.45v.17a3.17,3.17,0,0,0,.2.51c.08.24,0,.57.33.73C106,31.32,106.39,31.81,106.26,32.37Z"/><path class="cls-8" d="M79.69,59.29a3.27,3.27,0,0,1,.07-1.21,3,3,0,0,0,.1-1.19,5,5,0,0,1,0-1.23,15.43,15.43,0,0,0,.17-2.23,16,16,0,0,0,.16-2.93V47.6a1.82,1.82,0,0,1,.63-.88.71.71,0,0,1,.71.22A8.06,8.06,0,0,1,83,48.37a5.52,5.52,0,0,1,.59,1.43,2.89,2.89,0,0,1,.2.89,6.89,6.89,0,0,1,.16,1.43,3.8,3.8,0,0,0,.21,1.34,4.48,4.48,0,0,0,1.11,2.09,6.69,6.69,0,0,1,1.16,2.08c.1.45-.16.83-.21,1.25a8,8,0,0,1-1.84,1.52c-.32.16-.53.55-.78.84-.4-.21-.62-.59-1-.86a5.12,5.12,0,0,0-.52-.4A6.52,6.52,0,0,0,79.69,59.29Z"/><path class="cls-2" d="M79.69,59.29a6.52,6.52,0,0,1,2.42.69,5.12,5.12,0,0,1,.52.4c.34.27.56.65,1,.86.09.32-.18.56-.19.87a1.38,1.38,0,0,1-.13.81c-.14.24,0,.62,0,.93,0,.12,0,.23-.18.22a1.15,1.15,0,0,1-.72-.17,8.81,8.81,0,0,0-2.17-.73c-.45-.14-1-.06-1.36-.34,0-.27,0-.52.15-.81a4.22,4.22,0,0,0,.27-1.1,3.45,3.45,0,0,0,.3-1.1C79.51,59.63,79.78,59.52,79.69,59.29Z"/><path class="cls-8" d="M60.2,110.83h.45c.31-.24.35-.72.8-.88.23.07.36.29.52.46.09.52-.51.69-.5,1.14s.57.3.69.66-.24.3-.33.45c-.13.35.1.61.14.91s0,.47,0,.7-.17.4-.2.64c-.08.64.26,1.23.2,1.88a.71.71,0,0,0,.65,0c.37-.21.69-.45,1.13-.14.22.15.38-.24.63-.16,0-.38.45-.46.43-.84.33-.09.7-.06.73-.62a2.55,2.55,0,0,1,.5-1,.92.92,0,0,0,0-1.08c0-.2.35-.21.16-.43.22-.16.43-.06.62-.09a1,1,0,0,0,.37-.52c.34-.11.5.13.68.31a.8.8,0,0,0,.79-.18,3.25,3.25,0,0,1,.85-.49c.32-.15.63-.29.6-.72.11,0,.21,0,.33.06.6.32,1.2.63,1.81.93a3.06,3.06,0,0,0,1.41.43c.14,0,.17.17.28.17a8.59,8.59,0,0,1,1.88.38c.66.19,1.34.29,2,.47a8.5,8.5,0,0,0,2.58.42c1.35-.08,2.71,0,4.06,0a.45.45,0,0,1,.36.35c-.06.3-.42.38-.51.65.13.11.21.27.43.24a2.32,2.32,0,0,1,.73.15c.8.17,1.61.4,2.42.52A7.7,7.7,0,0,0,90,116c.25.3.67,0,.88.2s.67.08,1,.15a1.41,1.41,0,0,0,.37.18c1,.12,1.89.42,2.86.57a24.87,24.87,0,0,1,2.51.52,6.35,6.35,0,0,1,1.23.19c.36.18.71,0,1,.16a2.37,2.37,0,0,0,1.08.16c.11,0,.27,0,.34,0,.43.3.93.05,1.34.19a4.1,4.1,0,0,0,1.34.16,1,1,0,0,1,.65.16c.06,0,.36.14.39-.16.14,0,.18.18.28.17.64-.1,1.23.29,1.87.18.39-.07.68.25,1.08.2a1.25,1.25,0,0,1,1,.14c.14.1.41,0,.61,0a9.93,9.93,0,0,0,2,.18c.31.33.73.08,1.07.18a2.61,2.61,0,0,0,1,.17c.38-.09.69.26,1.07.18.63-.14,1.22.24,1.85.18.09,0,.13.2.27.17a19.61,19.61,0,0,0,0,2c.07.7-.21,1.36-.19,2a5.18,5.18,0,0,1-1.45.33,4,4,0,0,1-1.61.2,1,1,0,0,1-.9.16c-.36,0-.65.15-1,.2a5.41,5.41,0,0,0-1.54.13c-.47.2-1.08,0-1.59.22-1.14-.14-2.24.25-3.38.18a8.31,8.31,0,0,0-1.32,0,29.43,29.43,0,0,1-4.09-.22,8.47,8.47,0,0,1-1.42-.17,1.72,1.72,0,0,0-.73-.14c-.32.07-.52-.23-.81-.18-.56.08-1-.32-1.61-.18-.33-.25-.75-.07-1.07-.2-.54-.24-1.12,0-1.6-.19a4.17,4.17,0,0,0-1.71-.13,15.72,15.72,0,0,0-3.21.13c-.85.2-1.76,0-2.66.18s-1.89,0-2.85.18-2.13-.06-3.2.18A10.7,10.7,0,0,1,77,125a11.71,11.71,0,0,1-2.13.18,2.21,2.21,0,0,1-1.08-.37,4.63,4.63,0,0,0-2.19-.65,17.78,17.78,0,0,0-2.92-.23c-.59,0-1.18,0-1.77,0a11.45,11.45,0,0,1-2.67-.36,3.53,3.53,0,0,0-1.32-.53,7.34,7.34,0,0,1-2.76-1.49V121c0-.77,0-1.54,0-2.3s.21-1.54.19-2.32,0-1.83,0-2.74A23.12,23.12,0,0,0,60.2,110.83Z"/><path class="cls-9" d="M91.2,113.67h0Zm8.34-20.1c.08-.92-.31-1.81-.2-2.74,0-.11-.11-.24-.16-.37-.44.09-.73-.22-1.08-.35-.17,0-.21.24-.39.18-.27-.3-.41-.57-.29-.81a5.67,5.67,0,0,0,.35-2.68l-.64-.41c.27-.26.49-.49.72-.72a1.22,1.22,0,0,0,.43-.88A8.45,8.45,0,0,0,97,84a5.33,5.33,0,0,1-1.16-.83.94.94,0,0,0-.49-.32.4.4,0,0,1-.25-.5v-.18c-.65,0-1.31,0-1.94,0s-1.42.25-2.14.19H89.6c-.86-.06-1.69.31-2.57.17-.42.25-.91.09-1.34.2s-.91.07-1.34.17c-.75.21-1.52.33-2.27.48a24.49,24.49,0,0,0-2.43.76,1.25,1.25,0,0,0-.69.45c-.09.14-.22,0-.33.07-.17.32-.41.57-.56.91a12.27,12.27,0,0,0-.92,2.59,9.83,9.83,0,0,0-.29,1.19,1.66,1.66,0,0,1,0,.22h0a2.56,2.56,0,0,0-.16,1.1c.24.76.31,1.56.52,2.33.32,1.16.63,2.32,1,3.48.11.36.2.73.31,1.1A6.43,6.43,0,0,1,78.94,99c.29.79.5,1.61.75,2.41.37.33.35.84.5,1.25.35.89.68,1.78,1,2.68.25.67.55,1.32.75,2,.27.92.69,1.78,1,2.7s.85,2,1.22,3a5.45,5.45,0,0,0,.31.58.45.45,0,0,1,.36.35c.91,0,1.82,0,2.73,0a18.3,18.3,0,0,1,2.22-.19c.44-.3,1-.13,1.42-.17,0,0-1.4-10.73-1.5-11.44s-1.16-6.9-1.22-7.13-.1-.3,0-.39a1.34,1.34,0,0,1-.21,0c-.14-.45-.15-1-.77-1.15-.11-.22.17-.25.19-.49l-.23.11s0,0,0,.08l0-.07-.13,0a.73.73,0,0,1-.67-.27s-.1-.1-.16-.14a6.36,6.36,0,0,0-1.73-1,.33.33,0,0,1-.24-.41.44.44,0,0,1,.48,0,4.74,4.74,0,0,1,.61.33,3.26,3.26,0,0,1,.34.22,2.62,2.62,0,0,1,.34.24,10,10,0,0,1,.84.7h0l.07.06.11.12.13.13h0a6.34,6.34,0,0,0-1.13-2,1.09,1.09,0,0,0-.22-.26,5.37,5.37,0,0,0-.73-.59s0-.12,0-.21,0-.1.05-.19l.32,0a7.22,7.22,0,0,1,2.81,4.72l0,0a.5.5,0,0,1,.16-.05c.26,0,7.46,1,10.69,1.42a7.36,7.36,0,0,1,0-1.41C99.43,94.29,99.51,93.93,99.54,93.57Zm-2.91-5.32c.11-.45.21-.65.59-.61C97.24,88,97,88.1,96.63,88.25Z"/><path class="cls-4" d="M117.06,120.22c-.14,0-.18-.18-.27-.17-.63.06-1.22-.32-1.85-.18-.38.08-.69-.27-1.07-.18,0,0,0-.14.07-.14.82-.14,1.66-.22,2.48-.4l2.64-.63c1-.24,2-.65,3-.8.29,0,.6-.23.91-.32a26.34,26.34,0,0,0,3.47-1.2c.18-.08.35,0,.51,0,0,.23.18.17.31.17h1.91c.21.3.53.16.8.16s.55.28.88.19q0,.18.18.18a.47.47,0,0,1-.34.35l-1.72.53c-1.26.38-2.5.8-3.75,1.22a22.45,22.45,0,0,1-2.7.75,10.25,10.25,0,0,1-2,.34.13.13,0,0,0-.14.17Z"/><path class="cls-7" d="M118,85.33v1.06a8.38,8.38,0,0,1-2.33.35c-.68.39-1.44.09-2.17.32a6.66,6.66,0,0,1-1.91,0,7.22,7.22,0,0,0,.89,1.88,8.06,8.06,0,0,0,1.41,1.67c.51.43,1.28.48,1.63,1.16a3.74,3.74,0,0,1-1.71-.66c-1.47-1.14-1.59-1.53-2.53-3.36-.08-.14-.28-.23-.18-.51-.6,0-1.19,0-1.76,0a6.47,6.47,0,0,1-1.8-.14c-.55-.2-1.17,0-1.78-.18a6.38,6.38,0,0,0-1.34-.17c-.39,0-.75-.3-1.16-.21a10.64,10.64,0,0,0-2-.67c-.44-.19-.9-.38-1.36-.55a3.55,3.55,0,0,1-1.28-.55s-.17,0-.26,0A7.08,7.08,0,0,0,97,84a5.93,5.93,0,0,1-1.16-.82,1,1,0,0,0-.49-.34.39.39,0,0,1-.25-.49.88.88,0,0,1,.79.2c.89.74,2,.94,3,1.54.45,0,.78.27,1.16.41.9.34,1.83.56,2.75.81a7.78,7.78,0,0,0,1.78.4c.58,0,1.11.31,1.7.18a1.44,1.44,0,0,0,1.16.16,5.72,5.72,0,0,1,1.25.2c1.69.12,3.37-.22,5-.18.06,0,.15,0,.18,0a1,1,0,0,1,.9-.16c.36,0,.65-.19,1-.18A11.23,11.23,0,0,0,118,85.33Z"/><path class="cls-4" d="M91.38,113.67h11.87a7,7,0,0,0,.26,1.38,3.93,3.93,0,0,1,.09.74h-2.92c-1,0-2-.05-3,0s-1.9-.22-2.85-.2-2.06,0-3.1,0a4.49,4.49,0,0,0-.47-1.45c-.12-.16,0-.34-.06-.5Z"/><path class="cls-4" d="M91.73,115.62c1,0,2.07,0,3.1,0s1.88.26,2.85.2,2,0,3,0h2.92c.2.36.29.76.47,1.12a8.07,8.07,0,0,0,1,1.54c0,.3-.33.21-.39.16a1,1,0,0,0-.65-.16,4.1,4.1,0,0,1-1.34-.16c-.41-.14-.91.11-1.34-.19-.07,0-.23,0-.34,0a2.37,2.37,0,0,1-1.08-.16c-.29-.16-.64,0-1-.16a6.35,6.35,0,0,0-1.23-.19,24.87,24.87,0,0,0-2.51-.52c-1-.15-1.9-.45-2.86-.57a1.41,1.41,0,0,1-.37-.18c0-.1.06-.24-.06-.32S91.73,115.76,91.73,115.62Z"/><path class="cls-7" d="M101.83,97.19h-.18v-.68c-.14-.35-.32-.4-.53-.38H99.35v-.08a7.36,7.36,0,0,1,0-1.41c.06-.35.14-.71.17-1.07.08-.92-.31-1.81-.2-2.74,0-.11-.11-.24-.16-.37.08-.57-.36-1.1-.14-1.74.08-.09.23,0,.4,0,.09.34.42.51.6.79.53.87,1,1.79,1.55,2.63a1.49,1.49,0,0,1,.22,1c-.09,1.29.3,2.54.19,3.82C102,97,102.07,97.19,101.83,97.19Z"/><path class="cls-7" d="M113.79,106.94c-.16,0-.32,0-.48-.11a1.58,1.58,0,0,0,.22-.86c0-.3.25-.58.16-.9s.26-.56.2-.91a.91.91,0,0,1,.16-.89c-.13-.59.28-1.13.17-1.7-.07-.34.23-.56.2-.9s-.14-.64.15-.91c.06-.06,0-.23,0-.35a2.45,2.45,0,0,1,.16-1c.14-.29-.11-.69.19-1,.06-.06,0-.23,0-.35-.1-.78.3-1.53.18-2.31a2.08,2.08,0,0,0,.17-1.34c-.06-.48.31-.86.17-1.34l.3,0a.56.56,0,0,1,.07.17,8.3,8.3,0,0,0,0,1.32c0,.4-.21.7-.21,1.08s.17.76-.16,1.08c0,.05,0,.18,0,.26a7.45,7.45,0,0,1-.22,2,19.38,19.38,0,0,1-.33,2.51,22.53,22.53,0,0,1-.51,2.7,5.09,5.09,0,0,1-.21,1.78A7.17,7.17,0,0,1,113.79,106.94Z"/><path class="cls-4" d="M129.64,115.26c.3.57.93.85,1.24,1.42-.33.09-.57-.18-.88-.19s-.59.14-.8-.16h-1.91c-.13,0-.31.06-.31-.17s.54-.07.68-.36c.28.12.47-.15.71-.2C128.8,115.5,129.16,115.16,129.64,115.26Z"/><path class="cls-7" d="M115.11,87.48l.58,0a1.4,1.4,0,0,1,.32.9c0,.93,0,1.86,0,2.81h-.53V88.53A1.09,1.09,0,0,0,115.11,87.48Z"/><path class="cls-2" d="M64.28,123.59A11.45,11.45,0,0,0,67,124c.59,0,1.18,0,1.77,0a17.78,17.78,0,0,1,2.92.23,4.63,4.63,0,0,1,2.19.65,2.21,2.21,0,0,0,1.08.37.25.25,0,0,0,.19.27c.4.14.61.49.88.71a.43.43,0,0,1-.33.43l-.73.15a1.51,1.51,0,0,1-1.32-.16c-.27-.22-.54-.12-1-.21-.14,0-.09,0-.08,0s.27.1.24-.08-.21-.14-.16,0c.37.32.79.38.88.78l-.18.33h-.53a4.81,4.81,0,0,0-2.41-.88,4.88,4.88,0,0,0-1.26.15,4.63,4.63,0,0,1-2.51-.32,3.68,3.68,0,0,0-1.25-.2c-1-.08-2,.24-3,.19,0-.17-.11-.18-.23-.18H59v.35h-.35c0-.18-.11-.17-.23-.18a46.16,46.16,0,0,1-5.51-.16,24.42,24.42,0,0,1-2.94-.18c-.51-.14-1.06,0-1.61-.16a12.89,12.89,0,0,0-1.69-.17,4.1,4.1,0,0,0-1.43-.21c-.31-.29-.73-.09-1.06-.22-1.07-.43-2.21-.66-3.29-1-.75-.26-1.53-.44-2.29-.68a16,16,0,0,0-2.35-.72c-.42-.38-1-.3-1.47-.51a7.69,7.69,0,0,0-2.17-.55c-.38.12-.46-.42-.81-.38a3.86,3.86,0,0,1-1.47-3.09,3.5,3.5,0,0,1,.81-2.23c.1-.1,0-.22.06-.33a.76.76,0,0,0,.26,0,9.62,9.62,0,0,1,2.59-.54c.28,0,.43.2.71.21a7.41,7.41,0,0,1,3.07.83c.31.15.59.43,1,.39a.4.4,0,0,0,.32.34.49.49,0,0,1,.39.37,1.33,1.33,0,0,1-.89-.18c-.32-.26-.68-.17-1.15-.16.19.16.28.29.39.33.8.26,1.55.65,2.35.91a1.8,1.8,0,0,0,.72.16c.48.12.92.37,1.38.51,1.83.54,3.59,1.3,5.4,1.91a10.66,10.66,0,0,0,1.42.44,5.17,5.17,0,0,0,1.44.32c.54-.07,1,.23,1.52.18.88-.08,1.71.29,2.58.18.06,0,.14,0,.17,0,.27.29.61.15.91.15s.56.24.9.2c.51-.07,1,.28,1.52.16.23.26.53.19.81.18s.57.27.9.18c.38.08.77.13,1.14.21a5.59,5.59,0,0,1,1.23.18c.36.18.71,0,1,.16A2.33,2.33,0,0,0,64.28,123.59Z"/><path class="cls-10" d="M73.31,127.48l.18-.33c-.09-.4-.51-.46-.71-.73.28,0,.55-.06.82.16a1.51,1.51,0,0,0,1.32.16l.73-.15a.43.43,0,0,0,.33-.43c-.27-.22-.48-.57-.88-.71a.25.25,0,0,1-.19-.27A11.71,11.71,0,0,0,77,125a10.7,10.7,0,0,0,2.12,0c1.07-.24,2.15,0,3.2-.18s1.92,0,2.85-.18,1.81,0,2.66-.18a15.72,15.72,0,0,1,3.21-.13,4.17,4.17,0,0,1,1.71.13c.48.2,1.06,0,1.6.19.32.13.74,0,1.07.2.56-.14,1.05.26,1.61.18.29-.05.49.25.81.18a1.72,1.72,0,0,1,.73.14,8.47,8.47,0,0,0,1.42.17,29.43,29.43,0,0,0,4.09.22,8.31,8.31,0,0,1,1.32,0c1.14.07,2.24-.32,3.38-.18.51-.27,1.12,0,1.59-.22a5.41,5.41,0,0,1,1.54-.13c.33,0,.62-.25,1-.2a1,1,0,0,0,.9-.16,4,4,0,0,0,1.61-.2,5.18,5.18,0,0,0,1.45-.33,2.84,2.84,0,0,0,1.07-.16,2.15,2.15,0,0,1,1,0c.39.05.69-.28,1.07-.19,0,0,0,.13.07.15a17,17,0,0,1,1.63.87,2.27,2.27,0,0,0,1.49.58v.33a9.5,9.5,0,0,0-1.75.21,10.42,10.42,0,0,1-1.16.18,1.6,1.6,0,0,0-1.17.16s-.06,0-.09,0c-1.13-.13-2.24.26-3.37.17s-2.13.22-3.2.19a18.86,18.86,0,0,0-3.19,0,41.69,41.69,0,0,1-5.24.14,40.73,40.73,0,0,1-5.3,0c-1.7-.17-3.38-.09-5.06-.13s-3.37,0-5,0a18.53,18.53,0,0,1-2.58.17c-.6.34-1.26.06-1.87.19-1.27.28-2.57,0-3.82.2a28.26,28.26,0,0,1-3.56.14C75.67,127.51,74.49,127.48,73.31,127.48Z"/><path class="cls-11" d="M73.31,127.48l.18-.33c-.09-.4-.51-.46-.71-.73.28,0,.55-.06.82.16a1.51,1.51,0,0,0,1.32.16l.73-.15a.43.43,0,0,0,.33-.43c-.27-.22-.48-.57-.88-.71a.25.25,0,0,1-.19-.27A11.71,11.71,0,0,0,77,125a10.7,10.7,0,0,0,2.12,0c1.07-.24,2.15,0,3.2-.18s1.92,0,2.85-.18,1.81,0,2.66-.18a15.72,15.72,0,0,1,3.21-.13,4.17,4.17,0,0,1,1.71.13c.48.2,1.06,0,1.6.19.32.13.74,0,1.07.2.56-.14,1.05.26,1.61.18.29-.05.49.25.81.18a1.72,1.72,0,0,1,.73.14,8.47,8.47,0,0,0,1.42.17,29.43,29.43,0,0,0,4.09.22,8.31,8.31,0,0,1,1.32,0c1.14.07,2.24-.32,3.38-.18.51-.27,1.12,0,1.59-.22a5.41,5.41,0,0,1,1.54-.13c.33,0,.62-.25,1-.2a1,1,0,0,0,.9-.16,4,4,0,0,0,1.61-.2,5.18,5.18,0,0,0,1.45-.33,2.84,2.84,0,0,0,1.07-.16,2.15,2.15,0,0,1,1,0c.39.05.69-.28,1.07-.19,0,0,0,.13.07.15a17,17,0,0,1,1.63.87,2.27,2.27,0,0,0,1.49.58v.33a9.5,9.5,0,0,0-1.75.21,10.42,10.42,0,0,1-1.16.18,1.6,1.6,0,0,0-1.17.16s-.06,0-.09,0c-1.13-.13-2.24.26-3.37.17s-2.13.22-3.2.19a18.86,18.86,0,0,0-3.19,0,41.69,41.69,0,0,1-5.24.14,40.73,40.73,0,0,1-5.3,0c-1.7-.17-3.38-.09-5.06-.13s-3.37,0-5,0a18.53,18.53,0,0,1-2.58.17c-.6.34-1.26.06-1.87.19-1.27.28-2.57,0-3.82.2a28.26,28.26,0,0,1-3.56.14C75.67,127.51,74.49,127.48,73.31,127.48Z"/><path class="cls-12" d="M72.78,127.48a12.49,12.49,0,0,0-2,0,34.14,34.14,0,0,1-5.15.16c-1.74,0-3.49,0-5.22,0-1.25,0-2.48-.26-3.73-.2a23,23,0,0,1-3.8,0c-1.08-.13-2.16,0-3.2-.18s-2,0-3-.17-1.91,0-2.84-.17-1.63,0-2.4-.18a19.45,19.45,0,0,1-2-.19c-.7-.24-1.44.09-2.08-.31a6.54,6.54,0,0,1-1.87-.2,24.19,24.19,0,0,1-3-.59,2.05,2.05,0,0,0-.48-.1,9.75,9.75,0,0,0-1.95,0,22.25,22.25,0,0,1-3.91.15c-1.3,0-2.59,0-3.9,0a12.34,12.34,0,0,1-1.24-.22c-.43,0-.89.18-1.26-.16a4.89,4.89,0,0,1-1.61-.18,14.43,14.43,0,0,1-3.15-.93,1.79,1.79,0,0,1-.51-.3l-.17-.13-.24-.22c-.07-.1-.15-.19-.22-.31v-1c.34-.21.51-.64,1-.79s.76-.43,1.16-.61c.17-.07.33-.18.5-.27a.91.91,0,0,1,.61-.17h0a12.69,12.69,0,0,1,.73,1.83,4.08,4.08,0,0,0,.45.73,1.73,1.73,0,0,0,.21.25,2.61,2.61,0,0,0,.31.27l.06.07,0,0a4.43,4.43,0,0,0,.42.29h0a3.58,3.58,0,0,0,.48.24,5.15,5.15,0,0,0,.52.2,5,5,0,0,0,2.33.34,6.19,6.19,0,0,0,3.79-1.71c.22-.24.46-.46.69-.7a.09.09,0,0,1,.06,0l.07,0h.19a2.46,2.46,0,0,0,.48,1.41,0,0,0,0,0,0,0l.19.21,0,0,.13.1a.62.62,0,0,0,.2.15,2,2,0,0,0,.29.17,3.71,3.71,0,0,0,.46.19,5.88,5.88,0,0,0,4.58-1.4,1.71,1.71,0,0,0,.32,0,.51.51,0,0,1,.36.06,7.82,7.82,0,0,0,1.77.65l.45.16.32.09h0l.05,0,.2,0a2.6,2.6,0,0,1,.4.1l.37.1h.08l.08,0h0a10,10,0,0,0,2.17.64,23.14,23.14,0,0,0,2.33.54c.62.13,1.26.25,1.88.39l.1,0,.89.19L46,126c1,.19,1.94.27,2.9.53h0l.08,0a1.61,1.61,0,0,0,.49.06s0,0,0,0a3.44,3.44,0,0,0,.63-.06c.42-.07.75.2,1.16.2H55a16.34,16.34,0,0,0,3.63-.17H59a31.52,31.52,0,0,0,3.36-.18c1,.06,2-.28,3-.19a3.62,3.62,0,0,1,1.24.2,4.64,4.64,0,0,0,2.52.32,5.19,5.19,0,0,1,1.24-.15l1,.19a4.26,4.26,0,0,1,.85.29l.27.15.26.2Z"/><path class="cls-13" d="M72.72,127.43h0a10.36,10.36,0,0,0-2,0,35.45,35.45,0,0,1-5.15.14c-1.74,0-3.48,0-5.22,0-1.25,0-2.48-.25-3.73-.19a23.08,23.08,0,0,1-3.81,0c-1.07-.14-2.15,0-3.19-.17s-2.05,0-3-.18-1.92,0-2.85-.18-1.63,0-2.41-.18a17.43,17.43,0,0,1-2-.17c-.69-.24-1.44.07-2.07-.33a5.9,5.9,0,0,1-1.87-.2,22.48,22.48,0,0,1-3-.58,2,2,0,0,0-.49-.1,9.67,9.67,0,0,0-1.94,0,22.25,22.25,0,0,1-3.91.15c-1.29,0-2.6,0-3.89,0a12.73,12.73,0,0,1-1.26-.2c-.41,0-.87.17-1.25-.17a4.86,4.86,0,0,1-1.61-.18,14.29,14.29,0,0,1-3.15-.94,2.62,2.62,0,0,1-.62-.36l-.24-.22a2.75,2.75,0,0,1-.28-.37v-1c.34-.22.5-.65,1-.8s.77-.43,1.17-.6.68-.5,1.14-.44l0,0h0a15.66,15.66,0,0,1,.69,1.76,3.22,3.22,0,0,0,.51.8,1.73,1.73,0,0,0,.21.25,2.61,2.61,0,0,0,.31.27,4.49,4.49,0,0,0,1.46.75,5,5,0,0,0,2.33.35,6.25,6.25,0,0,0,3.8-1.71c.22-.24.46-.46.69-.7s.22,0,.32-.06a.17.17,0,0,0,0,.07,2.38,2.38,0,0,0,.53,1.41,0,0,0,0,0,0,0l.19.21,0,0a3,3,0,0,0,1,.55,5.88,5.88,0,0,0,4.57-1.41h.06a.74.74,0,0,0,.21,0,.66.66,0,0,1,.41.06,7.37,7.37,0,0,0,1.77.65c.28.09.55.2.83.31h0l.05,0a3.76,3.76,0,0,0,.6.15,1.75,1.75,0,0,0,.4,0,1,1,0,0,0,.23.12h-.07a10,10,0,0,0,2.17.64,23.14,23.14,0,0,0,2.33.54c.62.13,1.26.25,1.88.39l-1.94-.45c.93.18,1.86.37,2.77.58,1.14.26,2.3.34,3.43.65a2.74,2.74,0,0,0,1.14,0c.43-.07.77.21,1.17.2,1.24,0,2.47,0,3.7,0h0a15.74,15.74,0,0,0,3.63-.18H59c1.11.13,2.19-.19,3.3-.17h0c1,0,2-.28,3-.19a3.68,3.68,0,0,1,1.25.2,4.82,4.82,0,0,0,2.51.33,4.45,4.45,0,0,1,1.26-.16,5.68,5.68,0,0,1,2.11.68h0l0,0A1.19,1.19,0,0,1,72.72,127.43Z"/><path class="cls-8" d="M123.26,125.54a2.27,2.27,0,0,1-1.49-.58,17,17,0,0,0-1.63-.87s0-.1-.07-.15a1.81,1.81,0,0,1,.15-.63,5.31,5.31,0,0,0,.4-1.59c0-.53-.29-1-.19-1.5a.13.13,0,0,1,.14-.17,10.25,10.25,0,0,0,2-.34,22.45,22.45,0,0,0,2.7-.75c1.25-.42,2.49-.84,3.75-1.22l1.72-.53a.47.47,0,0,0,.34-.35c.43-.08.79.31,1.24.17v1.24c0,.17,0,.33-.06.5a6.53,6.53,0,0,1-2.07,2.69,11.37,11.37,0,0,1-2.52,1.05,2.59,2.59,0,0,0-1,.55c-.47,0-.72.35-.86.63a6.41,6.41,0,0,1-1.39,1.67c-.14.07-.39-.13-.41.18Z"/><path class="cls-4" d="M130.17,121.46a6.53,6.53,0,0,0,2.07-2.69c.09-.17,0-.33.06-.5.3.12.46.42.7.62a7.11,7.11,0,0,0,1.07,1c0,.12.05.18.17.17h.18a.48.48,0,0,0,.11.39,2.18,2.18,0,0,1,.6.68s0,.14-.06.14c-.77,0-1.51.28-2.29.22s-1.52.29-2.3.17C130.36,121.62,130.17,121.7,130.17,121.46Z"/><path class="cls-4" d="M124,125.54c0-.31.27-.11.41-.18a6.41,6.41,0,0,0,1.39-1.67c.14-.28.39-.68.86-.63a.82.82,0,0,0,.68.36,2.4,2.4,0,0,1,1.33.66,3,3,0,0,1-2.3,1.25c-.29,0-.5.26-.81.22a1.34,1.34,0,0,0-.82.13C124.55,125.76,124.15,125.92,124,125.54Z"/><path class="cls-8" d="M17.42,118.79c-.26-.35,0-.69.11-.94a4.51,4.51,0,0,1,2.87-2.16c.59-.11,1.21-.52,1.87-.09.21.13.6,0,.86.06a4.65,4.65,0,0,1,2.78,2.4,3.63,3.63,0,0,1,.27,1.81c-.33-.12-.3-.45-.5-.6a3,3,0,0,0-1.82-2.79,5,5,0,0,0-3.15-.47,3.62,3.62,0,0,0-1.6.78A7.4,7.4,0,0,0,17.42,118.79Z"/><path class="cls-8" d="M20.22,121a3,3,0,0,1-.22-1.54,2.13,2.13,0,0,1,1.24-1.2,1.87,1.87,0,0,1,2.11.89c0,.09.07.3,0,.49l-.17,0s-.13-.07-.13-.09a.72.72,0,0,0-.53-.79,1.23,1.23,0,0,0-1.34,0,3,3,0,0,0-.5.5,1,1,0,0,0,0,1.44,5.7,5.7,0,0,0,.54.55,4.42,4.42,0,0,0,2.17.34V122C22.19,122,21.05,122.11,20.22,121Z"/><path class="cls-10" d="M38.77,116.68c-.39,0-.67-.24-1-.39a7.41,7.41,0,0,0-3.07-.83c-.28,0-.43-.23-.71-.21a9.62,9.62,0,0,0-2.59.54.76.76,0,0,1-.26,0,16.49,16.49,0,0,1,.52-1.69,1.23,1.23,0,0,0,0-.43,20.18,20.18,0,0,0,1.95-.64,21.19,21.19,0,0,0,2.41-.79,6.1,6.1,0,0,0,3.67-3.36,1.81,1.81,0,0,0,.25-1.19c-.16-.57-.17-.56-.82-.93H37.2a1.73,1.73,0,0,0-.51,0,15.25,15.25,0,0,1-1.64.3,3.27,3.27,0,0,1,.89-1.59,5,5,0,0,0,1.86-.39c.75-.22,1.51-.41,2.26-.65a13,13,0,0,0,1.85-.62c.25-.12.56-.06.76-.29.3.09.49-.29.81-.18s.6-.14.9-.16a4.22,4.22,0,0,1,3.17.87c.05,0,.17,0,.26,0,0,.32.37.3.54.47a6.36,6.36,0,0,1,1.21,1.61c.1.18.16.34.37.4a.16.16,0,0,1,.18.18h-.18c-.27,0-.51.09-.52.33,0,.56-.42.85-.73,1.19,0,.16,0,.32.1.43h.27c.37,0,0,.41.26.54a.49.49,0,0,1,.26.6c-.15.23-.44.35-.53.63.07.42.63.3.74.78.06.22-.2.35-.37.54a1.86,1.86,0,0,0,.18,1.21c-.24.47-.24.47,0,1.13a.69.69,0,0,1-.87-.2l0-.49c-.13-.26-.29-.35-.52-.31V111h-.53v1.23a3.32,3.32,0,0,1,0,1.14,5.62,5.62,0,0,1-1.22,2.16,8.18,8.18,0,0,1-1.41.86c0,.14-.06.3.12.46.27-.24.65-.27,1-.47s.7-.77,1.18-1c.36.09.64-.25.79-.22.6.22.38.62.51,1,.44.13.79.53,1.31.51.12.3-.05.61.13.86h.38a2.91,2.91,0,0,1,.24,1.35c.22.18.43.32.36.6-.3.1-.53-.13-.8-.18-.68-.14-1.38-.17-2.07-.33-.86-.19-1.73-.39-2.6-.51-1.13-.15-2.19-.58-3.3-.8-.94-.2-1.85-.62-2.81-.86A2.71,2.71,0,0,0,38.77,116.68Z"/><path class="cls-2" d="M40,107.7c-.16-.58-.18-.57-.82-.94H37.2a2,2,0,0,0-.5,0,13.89,13.89,0,0,1-1.64.31c-.22,0-.3.26-.45.35-.56.11-1-.32-1.51-.35v.62a8.75,8.75,0,0,1-5.28,2.6c.81-.71,1.71-.87,2.4-1.43a10,10,0,0,0,1.91-2h.27a4.09,4.09,0,0,1,.15-1,3.08,3.08,0,0,0-.51-2.06,5.42,5.42,0,0,0-1.94-2.2v-.25c-.37.14-.5-.23-.72-.37a22.15,22.15,0,0,1-2.29-1.39c-.14,0-.35.08-.36-.18a.7.7,0,0,1-.39-.11l-.27-.16-.14-.07a.31.31,0,0,0-.19,0h0v0a9.36,9.36,0,0,1-.54.88,3,3,0,0,0-.45.9l-.25,0v-.81l.25-.28.16-.18.18-.18.21-.16.25-.11.16-.05h0s0,0-.05-.05l0,0,0,0a5.17,5.17,0,0,0-1.06-.23,6.79,6.79,0,0,0-3.41.21c-.26.31-.83.23-1,.71a9.89,9.89,0,0,1,1.44,2.7,5.58,5.58,0,0,1,.51,2.08,2.27,2.27,0,0,1,.14,1.69c-.08.49-.1,1-.14,1.39.68.68.68.68.86,1.27a2.07,2.07,0,0,0-1.39.71v1a2.1,2.1,0,0,0,3.6-.24,3.34,3.34,0,0,1,.95,0,9,9,0,0,1,1.48.67A17.53,17.53,0,0,1,31.08,113c.46,0,.41.47.61.71.68-.1,1.28-.48,1.95-.64a21.19,21.19,0,0,0,2.41-.79,6.18,6.18,0,0,0,3.68-3.35A2,2,0,0,0,40,107.7Zm-10.21-3.53a.45.45,0,0,1,.5,0,2.4,2.4,0,0,1-1,1.68.86.86,0,0,1-.94.14l0-.23A1.48,1.48,0,0,0,29.76,104.17Zm-3.69-3.58h.78l.4.41a1.19,1.19,0,0,1,0,.59c-.73,0-.77,0-1.43-.67C25.9,100.79,26,100.7,26.07,100.59Zm-3.53,4.74A2.87,2.87,0,0,1,23.1,103h.35a.21.21,0,0,1,.09.23,7.11,7.11,0,0,1-.56,1.24v.82Zm.29,5.42c.12-.14.24-.14.35,0A.22.22,0,0,1,22.83,110.75Zm1.3-.63H22.75c-.15.12,0,.5-.4.32-.13-.11,0-.27,0-.35.16-.35.51-.24.57-.49h.94l.4.44S24.16,110.12,24.13,110.12Zm1.35-5-.25.26a1.32,1.32,0,0,1-.94-.37c-.07-.33-.13-.66.24-.87a1.16,1.16,0,0,1,.91.38.74.74,0,0,1,0,.18C25.49,104.8,25.48,104.94,25.48,105.08Zm-.43-2.68c.75-.24,1.28.24,1.87.33a3.15,3.15,0,0,1,1.75.42v.69c-.22.07-.09.4-.51.47.07,0,0-.07,0-.15a.65.65,0,0,1,.23-.6l-.32-.35A5.76,5.76,0,0,1,25.05,102.4Z"/><path class="cls-2" d="M58.61,126.6a16.34,16.34,0,0,1-3.63.17H51.27c-.41,0-.74-.27-1.16-.2a3.44,3.44,0,0,1-.63.06s0,0,0,0a1.61,1.61,0,0,1-.49-.06l-.08,0h0c-1-.26-1.94-.34-2.9-.53l-.33-.07-.89-.19-.1,0-1.94-.45h0a22.54,22.54,0,0,1-2.3-.53,12.55,12.55,0,0,1-2-.57h-.1l-.08,0h-.08l-.37-.1a2.6,2.6,0,0,0-.4-.1l-.2,0-.05,0h0l-.32-.09-.45-.16a7.82,7.82,0,0,1-1.77-.65.51.51,0,0,0-.36-.06,1.71,1.71,0,0,1-.32,0v-.26a2.72,2.72,0,0,0-.66-.33h0a1,1,0,0,1-.45-.29,0,0,0,0,1,0,0,1,1,0,0,1-.11-.17,7.87,7.87,0,0,1,2.16.54c.49.22,1.07.14,1.48.52a15.27,15.27,0,0,1,2.36.72c.75.24,1.52.42,2.28.68,1.08.37,2.22.6,3.29,1,.34.13.75-.07,1.06.22a3.84,3.84,0,0,1,1.42.22,10.32,10.32,0,0,1,1.7.16c.55.17,1.1,0,1.61.16a24.45,24.45,0,0,0,3,.18,17.45,17.45,0,0,0,2.88.16h0c.88,0,1.74,0,2.61,0,.09,0,.17,0,.19.06a.05.05,0,0,1,0,0A.15.15,0,0,1,58.61,126.6Z"/><path class="cls-14" d="M134.07,119.87h.17V120C134.12,120.05,134.06,120,134.07,119.87Z"/><path class="cls-1" d="M108.56,47.24c0-.1,0-.13-.14-.17-.77-.34-1.6-.48-2.35-.88-.08,0-.23,0-.34,0v.44c-.82.81-1.59,1.68-2.46,2.42s-1.5,1.37-2.27,2.12L98.64,48a.5.5,0,0,0-.27,0h0l-.11,0a4.3,4.3,0,0,0-.56.32,7.93,7.93,0,0,1-.77.52l.1,0c.51,1.64,1,3.31,1.65,5,.72-.64,1.1-1.48,1.92-2,0,1.3,0,2.57,0,3.82s.3,2.48.2,3.73a1.2,1.2,0,0,0,0,.75h1.74a6.35,6.35,0,0,1-.19-2.59c.05-.88-.28-1.71-.2-2.59s-.05-1.72.06-2.66a10.77,10.77,0,0,1,2.14,1.58c.42-.66.78-1.28,1.17-1.87s.9-1.48,1.4-2.16,1-1.68,1.61-2.44C108.58,47.39,108.56,47.31,108.56,47.24Zm-7.43,7.51c.14-.14.3,0,.42-.08.17.22.09.45.08.66s-.29,0-.5.13Zm.7,3.21c0,.23-.14.34-.35.47a.54.54,0,0,1-.35-.67,1,1,0,0,1,.63,0C101.87,57.78,101.82,57.88,101.83,58Z"/><path class="cls-15" d="M108.56,47.24c0-.1,0-.13-.14-.17-.77-.34-1.6-.48-2.35-.88-.08,0-.23,0-.34,0v.44c-.82.81-1.59,1.68-2.46,2.42s-1.5,1.37-2.27,2.12L98.64,48a.5.5,0,0,0-.27,0h0l-.11,0a4.3,4.3,0,0,0-.56.32,7.93,7.93,0,0,1-.77.52l.1,0c.51,1.64,1,3.31,1.65,5,.72-.64,1.1-1.48,1.92-2,0,1.3,0,2.57,0,3.82s.3,2.48.2,3.73a1.2,1.2,0,0,0,0,.75h1.74a6.35,6.35,0,0,1-.19-2.59c.05-.88-.28-1.71-.2-2.59s-.05-1.72.06-2.66a10.77,10.77,0,0,1,2.14,1.58c.42-.66.78-1.28,1.17-1.87s.9-1.48,1.4-2.16,1-1.68,1.61-2.44C108.58,47.39,108.56,47.31,108.56,47.24Zm-7.43,7.51c.14-.14.3,0,.42-.08.17.22.09.45.08.66s-.29,0-.5.13Zm.7,3.21c0,.23-.14.34-.35.47a.54.54,0,0,1-.35-.67,1,1,0,0,1,.63,0C101.87,57.78,101.82,57.88,101.83,58Z"/><path class="cls-1" d="M117.77,60.35c.09.3-.16.52-.18.8a1.24,1.24,0,0,1-.14.74,1.63,1.63,0,0,0-.2.6,6.32,6.32,0,0,0,0,.87c-.11,0-.23,0-.33.06s-.1.34.07.48h.26v1.94H117A11.52,11.52,0,0,1,115.43,69a2.2,2.2,0,0,1-.71.84,3.05,3.05,0,0,0-1.28,1.5c-.5,1-1,1.91-1.51,2.82-.32.52-.62,1.06-1,1.54a13.83,13.83,0,0,1-2.48,2.86,6.09,6.09,0,0,1-1.29.74,9.38,9.38,0,0,1-1.37.51,19.72,19.72,0,0,1-2.51.55c-.45.06-.91.14-1.33.23a5.92,5.92,0,0,0-1.25.16,4,4,0,0,1-1.36.15c-.14,0-.34-.06-.43,0a1.43,1.43,0,0,1-1.17.15c-.42,0-.76.21-1.16.2-.24,0-.48,0-.71,0s-.38.27-.63.18c0-.29,0-.59,0-.88s.27-.56.18-.89c1,.12,2.07-.29,3.11-.18.46-.24,1-.07,1.43-.2s.92-.06,1.34-.17a19,19,0,0,0,2.36-.49,4.69,4.69,0,0,1,1.07-.18,4.93,4.93,0,0,0,2.45-.93A12.39,12.39,0,0,0,108.73,76c0-.38.38-.48.54-.75.72-1.18,1.48-2.32,2.17-3.52.55-1,1-2,1.61-2.87a1.21,1.21,0,0,0,.12-.58c.35-.09.63.25,1,.17a30,30,0,0,0,3.12-8.08C117.42,60.3,117.6,60.38,117.77,60.35Z"/><path class="cls-15" d="M117.77,60.35c.09.3-.16.52-.18.8a1.24,1.24,0,0,1-.14.74,1.63,1.63,0,0,0-.2.6,6.32,6.32,0,0,0,0,.87c-.11,0-.23,0-.33.06s-.1.34.07.48h.26v1.94H117A11.52,11.52,0,0,1,115.43,69a2.2,2.2,0,0,1-.71.84,3.05,3.05,0,0,0-1.28,1.5c-.5,1-1,1.91-1.51,2.82-.32.52-.62,1.06-1,1.54a13.83,13.83,0,0,1-2.48,2.86,6.09,6.09,0,0,1-1.29.74,9.38,9.38,0,0,1-1.37.51,19.72,19.72,0,0,1-2.51.55c-.45.06-.91.14-1.33.23a5.92,5.92,0,0,0-1.25.16,4,4,0,0,1-1.36.15c-.14,0-.34-.06-.43,0a1.43,1.43,0,0,1-1.17.15c-.42,0-.76.21-1.16.2-.24,0-.48,0-.71,0s-.38.27-.63.18c0-.29,0-.59,0-.88s.27-.56.18-.89c1,.12,2.07-.29,3.11-.18.46-.24,1-.07,1.43-.2s.92-.06,1.34-.17a19,19,0,0,0,2.36-.49,4.69,4.69,0,0,1,1.07-.18,4.93,4.93,0,0,0,2.45-.93A12.39,12.39,0,0,0,108.73,76c0-.38.38-.48.54-.75.72-1.18,1.48-2.32,2.17-3.52.55-1,1-2,1.61-2.87a1.21,1.21,0,0,0,.12-.58c.35-.09.63.25,1,.17a30,30,0,0,0,3.12-8.08C117.42,60.3,117.6,60.38,117.77,60.35Z"/><path class="cls-1" d="M94.57,67.68c-.07.14-.2.09-.3.14s0,.22,0,.32c-.43.06-.29.66-.74.72l-.33-.18h0c-.32-.41-.87-.5-1.23-.87a.55.55,0,0,0,.33-.51c-.07-.62.28-1.17.21-1.79-.09-.83.3-1.64.16-2.48.27-.36.09-.8.21-1.15A3.89,3.89,0,0,0,93,60.61c0-.41,0-.82,0-1.24.15-.15.32-.08.54,0,0,.22,0,.45,0,.68a4,4,0,0,0,.18,1.24,6.12,6.12,0,0,0,.14,1.18A5.39,5.39,0,0,1,94,63.85a13.63,13.63,0,0,1,.38,2.68A2,2,0,0,1,94.57,67.68Z"/><path class="cls-16" d="M93.15,68.68A13.55,13.55,0,0,1,92,70.52l-.08.11c-.29,0-.23-.3-.31-.45a6.37,6.37,0,0,0-.65-1c-1.37-1.38-2.55-2.9-4-4.15V64.6c1.09.78,2.14,1.63,3.3,2.31a5,5,0,0,0,1.66.89c.36.37.91.46,1.23.87Z"/><path class="cls-1" d="M109,54.86c.24.32,0,.54-.11.73a14.87,14.87,0,0,0-1,2.16c-.29.7-.54,1.43-.82,2.13-.46,1.16-.87,2.35-1.37,3.49a.26.26,0,0,1-.29.17c-.27-.45.07-.84.2-1.23.21-.67.56-1.3.77-2s.48-1.34.75-2c.45-1,.84-2.13,1.38-3.14C108.66,55,108.73,54.86,109,54.86Z"/><path class="cls-1" d="M106.61,63.75a1.53,1.53,0,0,1,1.24.44,15.93,15.93,0,0,0,1.53.8c.49.25,1,.47,1.48.69a15.92,15.92,0,0,0,2.92,1.06.37.37,0,0,1,.27.41c-.11.22-.33.14-.45.09-1.21-.49-2.46-.88-3.64-1.46a12.5,12.5,0,0,0-1.44-.77,11.16,11.16,0,0,1-1.45-.77C106.9,64.15,106.79,64,106.61,63.75Z"/><path class="cls-15" d="M94.57,67.68c-.07.14-.2.09-.3.14s0,.22,0,.32c-.43.06-.29.66-.74.72l-.33-.18h0c-.32-.41-.87-.5-1.23-.87a.55.55,0,0,0,.33-.51c-.07-.62.28-1.17.21-1.79-.09-.83.3-1.64.16-2.48.27-.36.09-.8.21-1.15A3.89,3.89,0,0,0,93,60.61c0-.41,0-.82,0-1.24.15-.15.32-.08.54,0,0,.22,0,.45,0,.68a4,4,0,0,0,.18,1.24,6.12,6.12,0,0,0,.14,1.18A5.39,5.39,0,0,1,94,63.85a13.63,13.63,0,0,1,.38,2.68A2,2,0,0,1,94.57,67.68Z"/><path class="cls-15" d="M109,54.86c.24.32,0,.54-.11.73a14.87,14.87,0,0,0-1,2.16c-.29.7-.54,1.43-.82,2.13-.46,1.16-.87,2.35-1.37,3.49a.26.26,0,0,1-.29.17c-.27-.45.07-.84.2-1.23.21-.67.56-1.3.77-2s.48-1.34.75-2c.45-1,.84-2.13,1.38-3.14C108.66,55,108.73,54.86,109,54.86Z"/><path class="cls-15" d="M106.61,63.75a1.53,1.53,0,0,1,1.24.44,15.93,15.93,0,0,0,1.53.8c.49.25,1,.47,1.48.69a15.92,15.92,0,0,0,2.92,1.06.37.37,0,0,1,.27.41c-.11.22-.33.14-.45.09-1.21-.49-2.46-.88-3.64-1.46a12.5,12.5,0,0,0-1.44-.77,11.16,11.16,0,0,1-1.45-.77C106.9,64.15,106.79,64,106.61,63.75Z"/><path class="cls-1" d="M118.49,80.63c.06-.64-.29-1.23-.19-1.85v-.54c.08-.43-.27-.79-.19-1.25a7.1,7.1,0,0,0,0-1.22c-.16,0-.18-.1-.18-.21v-.5c.12-1-.25-1.88-.18-2.84,0-.2,0-.41,0-.62s-.27-.37-.18-.62c.08-1.64-.31-3.27-.17-4.91,0-.06,0-.13,0-.16s-.09,0-.14-.07H117A11,11,0,0,1,115.42,69a2,2,0,0,1-.71.84,3,3,0,0,0-1.27,1.5c-.5.94-1,1.91-1.51,2.82-.31.52-.62,1.06-1,1.54a13.79,13.79,0,0,1-2.47,2.87,7.4,7.4,0,0,1-1.29.73,8.35,8.35,0,0,1-1.37.51,20.1,20.1,0,0,1-2.51.55c-.45.07-.9.14-1.33.23s-.9,0-1.25.15a3.73,3.73,0,0,1-1.35.16c-.15,0-.35-.06-.44,0a1.47,1.47,0,0,1-1.17.15c-.43,0-.76.21-1.17.19-.23,0-.47,0-.7,0s-.38.28-.64.2-.17.08-.17.2v.68a.88.88,0,0,1,.79.2c.89.74,2,.94,3,1.54.45,0,.78.26,1.16.41.9.34,1.83.56,2.75.81a7.84,7.84,0,0,0,1.79.39c.56,0,1.1.32,1.68.19a1.47,1.47,0,0,0,1.17.16,5.72,5.72,0,0,1,1.25.2c1.7.12,3.37-.22,5.06-.18.05,0,.14,0,.17,0a1,1,0,0,1,.9-.16c.36,0,.65-.2,1-.18a11.77,11.77,0,0,0,2.15-.36c.24.07.37-.1.53-.27v-2.6C118.48,81.85,118.44,81.23,118.49,80.63Zm-9.23,3.58A24.88,24.88,0,0,1,98,82.26v-.41c.06,0,.12-.08.16-.06,1.08.39,2.15.78,3.22,1.19.26.1.6-.09.79.22a4.15,4.15,0,0,1,1.63.35,2.35,2.35,0,0,0,.7,0c.21,0,.32.19.55.2,1.3,0,2.6.25,3.91.16.11,0,.23,0,.35.08Zm6-6.21c-.61.61-1.23,1.32-2,1.92a11.48,11.48,0,0,1-2.82,1.69,17.39,17.39,0,0,1-1.72.73,3,3,0,0,1-1.26.13,2.27,2.27,0,0,1,0-.24c3.06-.85,5.79-2.19,7.61-5,0,.06.1.11.15.17Z"/><path class="cls-8" d="M64.28,123.59a2.33,2.33,0,0,1-1.07-.16c-.28-.16-.64,0-1-.16a5.13,5.13,0,0,0-1.23-.18c-.37-.08-.76-.13-1.14-.21,0-.42.12-.86-.17-1.24v0l.53,0h0A7.42,7.42,0,0,0,63,123.06,3.7,3.7,0,0,1,64.28,123.59Z"/><path class="cls-10" d="M60.39,116.33c0,.79-.26,1.52-.19,2.32s0,1.53,0,2.3v.63l-.53,0c-.14-1.15.21-2.27.18-3.41q-.06-2.34,0-4.68a12.74,12.74,0,0,0-.38-3.64,4.18,4.18,0,0,1-.16-1.17c0-.26.22-.14.36-.17.06.17-.17.45.17.53-.09.32.23.58.17.89s.21.57.19.88c0,.92.24,1.83.19,2.77S60.37,115.42,60.39,116.33Z"/><path class="cls-8" d="M73.66,111.64c0,.2,0,.41,0,.61a3.14,3.14,0,0,1-1.4-.43c-.6-.3-1.21-.6-1.8-.93-.13-.07-.23,0-.34-.06-.05-.37-.52,0-.6-.33-.23,0-.38-.2-.62-.22a.78.78,0,0,1-.61-.4.83.83,0,0,1,.75,0,16.1,16.1,0,0,1,1.84.67,6.94,6.94,0,0,0,2.87.51h.09C73.93,111.26,73.63,111.4,73.66,111.64Z"/><path class="cls-2" d="M82,74.17a8.93,8.93,0,0,1,2.26.94c.3.12.56.34.86.47a1.27,1.27,0,0,0,.81.18,13.4,13.4,0,0,0,1.63-.32.92.92,0,0,1,.59,0c-.16.16-.34.36-.55.31s-.51.26-.82.19a1.43,1.43,0,0,0-.72.16,2.26,2.26,0,0,1-.73,0,30,30,0,0,0-3.51-1.65v-.3Z"/><path class="cls-16" d="M76.32,75.41a10.9,10.9,0,0,1-2.6-.76c-.2-.13-.5-.14-.58-.44a1,1,0,0,1,0-.23c.53.21,1,.45,1.56.63s1.05.3,1.58.44Z"/><path class="cls-2" d="M77.92,80.19c.52,0,1.06,0,1.58,0s.91-.29,1.37-.18c.15.27-.05.35-.2.53a13.18,13.18,0,0,1-1.77,0,4.55,4.55,0,0,0-1-.15Z"/><path class="cls-8" d="M59.85,109.06c-.34-.08-.11-.35-.18-.53s.09-.18.21-.18h.5v.71Z"/><path class="cls-17" d="M60.39,116.33c0,.79-.26,1.52-.19,2.32s0,1.53,0,2.3v.63l-.53,0c-.14-1.15.21-2.27.18-3.41q-.06-2.34,0-4.68a12.74,12.74,0,0,0-.38-3.64,4.18,4.18,0,0,1-.16-1.17c0-.26.22-.14.36-.17.06.17-.17.45.17.53-.09.32.23.58.17.89s.21.57.19.88c0,.92.24,1.83.19,2.77S60.37,115.42,60.39,116.33Z"/><path class="cls-16" d="M77.74,80.19c0-.09,0-.16.12-.14s0,.09.06.14Z"/><path class="cls-2" d="M76.87,79.06v-.28c.64,0,1.23.26,1.85.18s1.2.12,1.77-.19c.15.15.08.32,0,.55A13.65,13.65,0,0,1,76.87,79.06Z"/><path class="cls-18" d="M82,74.17a8.93,8.93,0,0,1,2.26.94c.3.12.56.34.86.47a1.27,1.27,0,0,0,.81.18,13.4,13.4,0,0,0,1.63-.32.92.92,0,0,1,.59,0c-.16.16-.34.36-.55.31s-.51.26-.82.19a1.43,1.43,0,0,0-.72.16,2.26,2.26,0,0,1-.73,0,30,30,0,0,0-3.51-1.65v-.3Z"/><path class="cls-18" d="M77.92,80.19c.52,0,1.06,0,1.58,0s.91-.29,1.37-.18c.15.27-.05.35-.2.53a13.18,13.18,0,0,1-1.77,0,4.55,4.55,0,0,0-1-.15Z"/><path class="cls-18" d="M76.87,79.06v-.28c.64,0,1.23.26,1.85.18s1.2.12,1.77-.19c.15.15.08.32,0,.55A13.65,13.65,0,0,1,76.87,79.06Z"/><path class="cls-2" d="M71.19,81.25a.13.13,0,0,1-.11.16.12.12,0,0,1,0,0A.13.13,0,0,1,71.19,81.25Z"/><path class="cls-2" d="M104.91,43.5a7.83,7.83,0,0,1-.42-2.45,1,1,0,0,1-.34-1,1.2,1.2,0,0,1,.87-.43c.18,0,.27-.15.32-.25a4.54,4.54,0,0,0,.56-2.06h-.08a2.34,2.34,0,0,0-.91-1.41c-1.28-.11-1.5.32-1.73,1.22h-.59a5.52,5.52,0,0,1-.93-2.55,4.23,4.23,0,0,0-.36-1.09,1.26,1.26,0,0,0-1.18-.78,3.9,3.9,0,0,0-2.15.6,8.54,8.54,0,0,1-3.93,1c-.7,0-1.34-.37-2.07-.15-.06.08-.23.12-.25.36a2.48,2.48,0,0,1,.19,1.36c.23.77.32,1.57.5,2.35a13.91,13.91,0,0,0,.42,1.6c.17.49.13,1,.49,1.47.07.09,0,.29,0,.44.38,0,.07.42.3.59a.7.7,0,0,1,.24.64.45.45,0,0,1,.36.54c.26,0,.14.21.17.34.22.25.42.5.65.74s.56.52.8.82.58.25.78.49a5,5,0,0,0,2.76,0l.24-.06.35-.13.62-.28h0a6.57,6.57,0,0,0,1.41-1,6.49,6.49,0,0,0,1.16-1.36c.25.61-.18,1-.39,1.32a8.76,8.76,0,0,1-1.68,1.87,8.34,8.34,0,0,1-1.84,1.11c-.15.1-.4,0-.61,0V48L101,51.17c.77-.75,1.5-1.45,2.27-2.12s1.64-1.61,2.46-2.42v-.44c-.28-.22-.27-.57-.35-.87C105.21,44.72,105,44.11,104.91,43.5ZM94.55,39.37a.53.53,0,0,1-.62.25,1.29,1.29,0,0,1-.42-1.15c.2-.21.34-.36.72-.15l.32.39Zm0-2.39a3.68,3.68,0,0,0-2,.54c-.17-.17,0-.32-.11-.44.27-.33.66-.32.78-.61h1.34Zm1.13,4.75c-.1-.12-.25-.26-.4-.42-.12-1,.35-2,.16-2.89l.34-.55V41.1l.27.27a.22.22,0,0,0,.3-.07.19.19,0,0,1,.29,0c.17.23-.07.29-.15.46Zm.71,1.62c0-.1,0-.16,0-.2s0-.06,0-.16c.45.1.83-.25,1.3-.17a6.8,6.8,0,0,0,1-1.06c.31,0,.16.23.2.39A2.67,2.67,0,0,1,96.39,43.35Zm1.47-5.84h.5a1.59,1.59,0,0,1,.25,1.19c-.09.07-.16.18-.26.22a1.82,1.82,0,0,1-.33,0A.93.93,0,0,1,97.86,37.51Zm1.58-1a3.77,3.77,0,0,0-2.48,0c-.15-.2-.33-.26-.25-.48.24-.11.51-.25.84-.42a3.41,3.41,0,0,1,1.59.16C99.48,35.86,99.51,35.92,99.44,36.46Z"/><path class="cls-19" d="M27.08,99.67c-.13,0-.34.09-.35-.17C26.86,99.52,27.07,99.41,27.08,99.67Z"/><path class="cls-2" d="M120.43,120.22c-.1.52.24,1,.19,1.5a5.31,5.31,0,0,1-.4,1.59,1.81,1.81,0,0,0-.15.63c-.38-.09-.68.24-1.07.19a2.15,2.15,0,0,0-1,0,2.84,2.84,0,0,1-1.07.16c0-.69.26-1.35.19-2a19.61,19.61,0,0,1,0-2Z"/><path class="cls-6" d="M91.73,115.62c0,.14,0,.28.12.38s0,.22.06.32c-.33-.07-.66.11-1-.15s-.63.1-.88-.2a7.7,7.7,0,0,1-2.13-.39c-.81-.12-1.62-.35-2.42-.52a2.32,2.32,0,0,0-.73-.15c-.22,0-.3-.13-.43-.24.09-.27.45-.35.51-.65.91,0,1.82,0,2.73,0a16.49,16.49,0,0,1,2.22-.19c.44-.3.94-.13,1.42-.17,0,.16-.06.34.06.5A4.49,4.49,0,0,1,91.73,115.62Z"/><path class="cls-7" d="M88.53,94.64l0,0,0,0a1.34,1.34,0,0,1-.21,0c-.14-.45-.15-1-.77-1.15-.11-.22-.19,0-.17-.29-.46-.72-.56-1.7-1.22-2.34a5.37,5.37,0,0,0-.73-.59s0-.12,0-.21,0-.1.05-.19l.32,0A7.22,7.22,0,0,1,88.53,94.64Z"/><path class="cls-7" d="M87.46,93.27c-.48.24-.73-.23-1-.44a6,6,0,0,0-1.72-1,.35.35,0,0,1-.24-.42.41.41,0,0,1,.48,0A8.16,8.16,0,0,1,87.46,93.27Z"/><path class="cls-3" d="M96.63,88.25c.11-.45.21-.65.59-.61C97.24,88,97,88.1,96.63,88.25Z"/><path class="cls-10" d="M59.67,121.64c.3.38.14.82.18,1.24-.33.09-.58-.19-.9-.18s-.58.08-.81-.18c-.53.12-1-.23-1.52-.16-.34,0-.57-.21-.9-.2s-.64.14-.91-.15c0,0-.11,0-.17,0-.87.11-1.7-.26-2.58-.18-.51,0-1-.25-1.52-.18a5.17,5.17,0,0,1-1.44-.32,10.66,10.66,0,0,1-1.42-.44c-1.81-.61-3.57-1.37-5.4-1.91-.46-.14-.9-.39-1.38-.51a1.09,1.09,0,0,0-.56-.61c-.32-.11-.46-.54-.86-.45a.49.49,0,0,0-.39-.37.4.4,0,0,1-.32-.34,2.71,2.71,0,0,1,.64.15c1,.24,1.87.66,2.81.86,1.11.22,2.17.65,3.3.8.87.12,1.74.32,2.6.51.69.16,1.39.19,2.07.33.27,0,.5.28.8.18a11.3,11.3,0,0,1,2.3.46c.72.14,1.43.41,2.14.58,1.16.26,2.27.68,3.43.91C59.08,121.76,59.4,121.6,59.67,121.64Z"/><path class="cls-13" d="M59.67,121.64c.3.38.14.82.18,1.24-.33.09-.58-.19-.9-.18s-.58.08-.81-.18c-.53.12-1-.23-1.52-.16-.34,0-.57-.21-.9-.2s-.64.14-.91-.15c0,0-.11,0-.17,0-.87.11-1.7-.26-2.58-.18-.51,0-1-.25-1.52-.18a5.17,5.17,0,0,1-1.44-.32,10.66,10.66,0,0,1-1.42-.44c-1.81-.61-3.57-1.37-5.4-1.91-.46-.14-.9-.39-1.38-.51a1.09,1.09,0,0,0-.56-.61c-.32-.11-.46-.54-.86-.45a.49.49,0,0,0-.39-.37.4.4,0,0,1-.32-.34,2.71,2.71,0,0,1,.64.15c1,.24,1.87.66,2.81.86,1.11.22,2.17.65,3.3.8.87.12,1.74.32,2.6.51.69.16,1.39.19,2.07.33.27,0,.5.28.8.18a11.3,11.3,0,0,1,2.3.46c.72.14,1.43.41,2.14.58,1.16.26,2.27.68,3.43.91C59.08,121.76,59.4,121.6,59.67,121.64Z"/><path class="cls-20" d="M39.48,117.39c.4-.09.54.34.86.45a1.09,1.09,0,0,1,.56.61,1.8,1.8,0,0,1-.72-.16c-.8-.26-1.55-.65-2.35-.91-.11,0-.2-.17-.39-.33.47,0,.83-.1,1.15.16A1.33,1.33,0,0,0,39.48,117.39Z"/><path class="cls-2" d="M62.33,126.42a31.56,31.56,0,0,1-3.37.18v-.35H62.1C62.22,126.24,62.34,126.25,62.33,126.42Z"/><path class="cls-21" d="M72.44,126.32c.12-.12.3-.12.33,0s-.16,0-.24.08A1.11,1.11,0,0,1,72.44,126.32Z"/><path class="cls-10" d="M59.67,121.64c-.27,0-.59.12-.81-.18-1.16-.23-2.27-.65-3.43-.91-.71-.17-1.42-.44-2.14-.58a11.3,11.3,0,0,0-2.3-.46c.07-.28-.14-.42-.36-.6a2.91,2.91,0,0,0-.24-1.35H50c-.18-.25,0-.56-.13-.86-.52,0-.87-.38-1.31-.51-.13-.35.09-.75-.51-1-.15,0-.43.31-.79.22,0-.09,0-.21,0-.25a4.63,4.63,0,0,0,.88-2c.23,0,.39,0,.52.31l0,.49a.69.69,0,0,0,.87.2c-.23-.66-.23-.66,0-1.13a1.86,1.86,0,0,1-.18-1.21c.17-.19.43-.32.37-.54-.11-.48-.67-.36-.74-.78.09-.28.38-.4.53-.63a.49.49,0,0,0-.26-.6c-.23-.13.11-.5-.26-.54,0-.2.2-.26.3-.39a2.14,2.14,0,0,0,.58-1.56h.18c.43.14.75.53,1.24.53.43.43,1,.53,1.53.89.45-.08.73.33,1.17.38a2,2,0,0,1,1.1.32h2.92c.38-.28.83-.16,1.25-.18a4.63,4.63,0,0,0,.16,1.16,12.74,12.74,0,0,1,.38,3.64q-.06,2.34,0,4.68C59.89,119.34,59.54,120.48,59.67,121.64Z"/><path class="cls-10" d="M48.16,113.14a4.63,4.63,0,0,1-.88,2s0,.16,0,.25c-.48.2-.72.7-1.18,1s-.73.23-1,.47c-.18-.16-.09-.32-.12-.46a8.18,8.18,0,0,0,1.41-.86,5.62,5.62,0,0,0,1.22-2.16,3.32,3.32,0,0,0,0-1.14V111h.53Z"/><path class="cls-10" d="M49.93,106.76a2.14,2.14,0,0,1-.58,1.56c-.1.13-.29.19-.3.39h-.27c-.15-.11-.06-.27-.1-.43.31-.34.71-.63.73-1.19C49.42,106.85,49.66,106.72,49.93,106.76Z"/><path class="cls-22" d="M48.16,113.14a4.63,4.63,0,0,1-.88,2s0,.16,0,.25c-.48.2-.72.7-1.18,1s-.73.23-1,.47c-.18-.16-.09-.32-.12-.46a8.18,8.18,0,0,0,1.41-.86,5.62,5.62,0,0,0,1.22-2.16,3.32,3.32,0,0,0,0-1.14V111h.53Z"/><path class="cls-22" d="M49.93,106.76a2.14,2.14,0,0,1-.58,1.56c-.1.13-.29.19-.3.39h-.27c-.15-.11-.06-.27-.1-.43.31-.34.71-.63.73-1.19C49.42,106.85,49.66,106.72,49.93,106.76Z"/><path class="cls-20" d="M32.4,106.94a1,1,0,0,1,.7.17v.62a8.82,8.82,0,0,1-5.28,2.61c.81-.71,1.72-.88,2.4-1.44a10.6,10.6,0,0,0,1.91-2Z"/><path class="cls-16" d="M28.67,103.15v.69c-.22.07-.09.4-.51.47.07,0,0-.07,0-.16a.67.67,0,0,1,.23-.59l-.32-.35a5.75,5.75,0,0,1-3-.8c.76-.25,1.28.23,1.87.32A3.23,3.23,0,0,1,28.67,103.15Z"/><path class="cls-19" d="M23.1,103h.35a.22.22,0,0,1,.09.22,6.56,6.56,0,0,1-.56,1.25v.82h-.44A2.9,2.9,0,0,1,23.1,103Z"/><path class="cls-6" d="M25.44,104.48c0,.07,0,.13,0,.18v.42l-.27.26a1.36,1.36,0,0,1-.93-.37c-.07-.33-.13-.66.25-.87A1.17,1.17,0,0,1,25.44,104.48Z"/><path class="cls-6" d="M25.78,100.92l.28-.33h.79l.4.41a1.27,1.27,0,0,1,0,.58C26.48,101.61,26.44,101.59,25.78,100.92Z"/><path class="cls-16" d="M28.35,106l0-.23a1.48,1.48,0,0,0,1.45-1.59.45.45,0,0,1,.5,0,2.49,2.49,0,0,1-1,1.68A.9.9,0,0,1,28.35,106Z"/><path class="cls-20" d="M22.31,110.09c.16-.35.51-.24.58-.49h.93l.4.43s-.06.09-.09.09H22.75c-.15.11,0,.49-.4.31C22.22,110.33,22.35,110.17,22.31,110.09Z"/><path class="cls-19" d="M25.75,99.11a9.33,9.33,0,0,0-1,1.81l-.25,0v-.8C24.79,99.74,25.06,99.24,25.75,99.11Z"/><path class="cls-16" d="M23.19,110.75a.22.22,0,0,1-.36,0A.21.21,0,0,1,23.19,110.75Z"/><path class="cls-6" d="M104.49,41.05a1,1,0,0,1-.34-1,1.23,1.23,0,0,1,.87-.42C105.09,40.2,104.65,40.57,104.49,41.05Z"/><path class="cls-1" d="M117.24,63.9H117c-.17-.14-.08-.31-.07-.48s.22,0,.33-.06Z"/><path class="cls-15" d="M117.24,63.9H117c-.17-.14-.08-.31-.07-.48s.22,0,.33-.06Z"/><path class="cls-1" d="M101.48,58.43a.53.53,0,0,1-.35-.66c.2-.14.42-.06.62-.06s.07.17.08.25C101.85,58.2,101.69,58.3,101.48,58.43Z"/><path class="cls-1" d="M101.14,55.46v-.7c.13-.15.29,0,.42-.1.16.23.08.45.07.67S101.34,55.34,101.14,55.46Z"/><path class="cls-14" d="M94.21,43.53c.27,0,.15.22.18.35C94.13,43.86,94.24,43.66,94.21,43.53Z"/><path class="cls-1" d="M109.25,84v.23A24.88,24.88,0,0,1,98,82.26v-.41c.06,0,.12-.07.16-.06,1.07.39,2.15.78,3.22,1.19.26.1.6-.09.79.22a4.36,4.36,0,0,1,1.63.34,2,2,0,0,0,.7,0c.21,0,.32.18.55.19,1.3,0,2.6.25,3.91.16C109,83.91,109.14,83.86,109.25,84Z"/><path class="cls-1" d="M115.27,77.41V78c-.61.61-1.23,1.32-2,1.92a11.48,11.48,0,0,1-2.82,1.69,16.61,16.61,0,0,1-1.73.73,2.94,2.94,0,0,1-1.25.13v-.23c3.06-.86,5.8-2.2,7.6-5Z"/><path class="cls-15" d="M109.25,84v.23A24.88,24.88,0,0,1,98,82.26v-.41c.06,0,.12-.07.16-.06,1.07.39,2.15.78,3.22,1.19.26.1.6-.09.79.22a4.36,4.36,0,0,1,1.63.34,2,2,0,0,0,.7,0c.21,0,.32.18.55.19,1.3,0,2.6.25,3.91.16C109,83.91,109.14,83.86,109.25,84Z"/><path class="cls-15" d="M115.27,77.41V78c-.61.61-1.23,1.32-2,1.92a11.48,11.48,0,0,1-2.82,1.69,16.61,16.61,0,0,1-1.73.73,2.94,2.94,0,0,1-1.25.13v-.23c3.06-.86,5.8-2.2,7.6-5Z"/><path class="cls-20" d="M102.77,44.42a8.76,8.76,0,0,1-1.68,1.87,8.34,8.34,0,0,1-1.84,1.11c-.15.1-.4,0-.61,0l0-1.41c.33-.09.69,0,1-.13l.35-.13.62-.28h0a6.57,6.57,0,0,0,1.41-1,6.49,6.49,0,0,0,1.16-1.36C103.41,43.71,103,44.06,102.77,44.42Z"/><path class="cls-16" d="M95.78,41.11l.27.26a.22.22,0,0,0,.3-.07.21.21,0,0,1,.3,0c.16.23-.08.3-.16.46h-.8l-.41-.41c-.12-1,.35-2,.16-2.9l.34-.54Z"/><path class="cls-6" d="M97,36.47c-.15-.2-.33-.26-.25-.48l.84-.42a3.41,3.41,0,0,1,1.59.16c.34.13.37.19.3.73A3.77,3.77,0,0,0,97,36.47Z"/><path class="cls-6" d="M92.43,37.09c.27-.34.66-.33.78-.62h1.34V37a3.87,3.87,0,0,0-2,.53C92.37,37.36,92.5,37.19,92.43,37.09Z"/><path class="cls-6" d="M93.51,38.48c.2-.22.34-.37.72-.16l.32.4v.64a.52.52,0,0,1-.62.26A1.29,1.29,0,0,1,93.51,38.48Z"/><path class="cls-6" d="M97.86,37.51h.5a1.59,1.59,0,0,1,.25,1.19,1.26,1.26,0,0,1-.26.21.92.92,0,0,1-.33,0A.94.94,0,0,1,97.86,37.51Z"/><path class="cls-16" d="M97.67,42.82a6.06,6.06,0,0,0,1-1.07c.3,0,.17.24.2.4a2.7,2.7,0,0,1-2.43,1.2c0-.1,0-.15,0-.21s0,0,0-.15C96.81,43.09,97.2,42.75,97.67,42.82Z"/><line class="cls-23" x1="60.51" y1="121.57" x2="60.21" y2="121.58"/><line class="cls-23" x1="59.68" y1="121.6" x2="59.23" y2="121.62"/><path class="cls-23" d="M98.52,47.81l-.15.14h0l-.11,0a4.3,4.3,0,0,0-.56.32,7.93,7.93,0,0,1-.77.52l0,0c-.07,0-.31.18-.65.39l-.26.16c-.53.33-1.19.76-1.7,1.07a.26.26,0,0,1-.1.07l-.31.21-.35.22"/><path class="cls-2" d="M26.55,99.41l2.55,1.34s.15.13.7.5a9.32,9.32,0,0,1,2.31,2.7c.39.88-1.47,3-1.47,3l-4.85.86-3-1.82-.31-.75-.1-2.53,2-3.55h1.32Z"/><path class="cls-23" d="M88.79,75.34l-.12,0h0l-.26-.08s2.63-3.45,3.53-4.69l.08-.11a17.79,17.79,0,0,0,1.15-1.85l.16-.3"/><path class="cls-23" d="M59.88,108.36a2.29,2.29,0,0,0,.64-.21,1.44,1.44,0,0,0,.4-.23,4.19,4.19,0,0,0,1.52-2.65c.06-.27.21-.77.43-1.42.05-.14.11-.3.16-.46.21-.59.45-1.29.71-2,0,0,0,0,0,0l0,0c.38-1,.79-2.16,1.2-3.29q.12-.28.21-.57c.07-.19.14-.36.21-.54v0a2.77,2.77,0,0,0,.1-.26,0,0,0,0,0,0,0c1.24-3.36,2.39-6.37,2.39-6.37"/><path class="cls-2" d="M102.77,41.17,102,44.46v0a6.29,6.29,0,0,1-1.4,1h0l-.62.28-.35.13a5.07,5.07,0,0,1-3,0l-.57-.22c-3.23-1.44-4.14-9.8-4.14-9.8l2.55-.76,2.63-.73,3,.34s1,3,1,3Z"/><path class="cls-23" d="M103.7,68.7a12.78,12.78,0,0,1-1.14,2.88.42.42,0,0,1-.17.16c-.52.22-2,.6-2.86.87s-6.69,1.78-6.69,1.78L91,74.86l-.16,0-.7.18-.46.11-1.7.44-.44.11h0l-.25.06"/><polyline class="cls-23" points="115.52 108.38 115.55 108.11 115.64 107.28 115.68 106.89 117.95 86.39"/><path class="cls-23" d="M100.88,96.25s-.42,0-1-.12l-.53-.08c-3.23-.43-10.43-1.44-10.69-1.42a.5.5,0,0,0-.16.05l0,0c-.07.09,0,.24,0,.39s1.12,6.41,1.22,7.13,1.5,11.44,1.5,11.44h.36"/><path class="cls-3" d="M104,106s-.55,5.31-.55,5.41-.21,2.41-.21,2.41l0-.11a2.52,2.52,0,0,1-.07-.32l-.07-.44s0-.09,0-.15,0-.17,0-.27h0c0-.33-.1-.73-.17-1.16-.39-2.7-.93-6.95-1-8.19-.1-1.69-.13-5.32-.13-5.94v-.08l.29,0,1.63-.19Z"/><path class="cls-23" d="M77.16,89a1.6,1.6,0,0,0-.33.49h0a2.42,2.42,0,0,0-.16.39c-.18.63-.4,1.78-.4,1.78L73.75,111l0,.34"/><path class="cls-1" d="M96.9,48.85a1.41,1.41,0,0,1-.33.28c-.36.2-2.33,1.53-3.49,2.35l0,0-.63.45a7.54,7.54,0,0,0-1.21,1.53l-.4.64c-.13.22-.28.45-.41.68v0a4.85,4.85,0,0,0-.29.49h0c-.23.39-.44.77-.65,1.14-.11.19-.2.37-.3.55s-.12.24-.18.34-.12.23-.18.37c-.92,1.91-2.35,6.11-2.44,6.39v0"/><path class="cls-8" d="M82,74.13s1-6.94,1.23-7.86a5.51,5.51,0,0,0,0-2.06L82.72,64l-2,8.4Z"/><path class="cls-10" d="M36.6,105.45c2.27-.65,6.13-2,6.82-2.18a6.7,6.7,0,0,1,4.16.61c1.35.84,1.64,2.06,2.06,2.43a23.6,23.6,0,0,0,2.68,1.41,6.37,6.37,0,0,0,2.59.88,17.21,17.21,0,0,0,4.37,0l0,1.2-2.92-.55-4.33-.76-1.25-.69-.42-.64-.4-.49-.89-.4-3.94-1.78-5,.83-2.91.45Z"/><path class="cls-1" d="M95.06,73.84s-.42-4.48-.63-5.09.66-.83.66-.83l1.19-.3,0,3.61Z"/><path class="cls-16" d="M72.91,75.34l1.08.49.54.23.24.13a1.64,1.64,0,0,1,.28.07v0a.83.83,0,0,1-.62,0A3.35,3.35,0,0,1,73.9,76c-.34-.2-.67-.41-1-.64Z"/><polygon class="cls-7" points="115.45 92.09 115.53 90.58 115.96 90.72 115.8 93.27 115.45 92.09"/><path class="cls-2" d="M55.87,126.51s0,.11-.95.2h0c-.24,0-.53,0-.89.06-.6,0-1.37,0-2.4,0a17.22,17.22,0,0,1-2.14-.18s0,0,0,0c-.18,0-.38,0-.57-.09h0c-.9-.13-1.88-.32-2.9-.53l-.33-.07-.89-.19-.1,0-1.94-.45h0c-1.57-.37-3.09-.76-4.34-1.1h-.1l-.16,0-.37-.1a2.6,2.6,0,0,0-.4-.1l-.25-.07h0l-.32-.09-1.47-.4a5.55,5.55,0,0,1-1.11-.47l-.11-.06-.21-.12c-.23-.13-.45-.27-.66-.41h0l-.45-.29a0,0,0,0,1,0,0,1.46,1.46,0,0,1-.24-.17l-.39-.25-.1-.08h0l-.21-.15,2.08-.35,9.88,1.08,10.24,2.59,1.83,1.77h0Z"/><path class="cls-8" d="M14.26,121.49s2.39-4.16,3.36-5.69a10,10,0,0,1,2.31-2.48Z"/><polygon class="cls-8" points="59.98 108.77 60.24 111.17 61.66 118.55 70.4 116.57 73.75 113.32 73.66 111.64 73.88 110.16 72.22 107.22 66.8 107.13 59.98 108.77"/><path class="cls-2" d="M49.36,121.36s6.45.81,8.62,1.13,6,1,7,1.23a15.08,15.08,0,0,0,3.17.22s-.62,1-.68,1-16.7-.41-16.7-.41Z"/><path class="cls-2" d="M31.76,121.44a11.93,11.93,0,0,0,6.64,2.88c4.43.59,2.51-1,2.51-1l-3.4-2.47-3.57-.17Z"/></svg>