<svg id="Layer_1" data-name="Layer 1" xmlns="http://www.w3.org/2000/svg" viewBox="0 0 60 60"><defs><style>.cls-1,.cls-16{fill:#fff;}.cls-2{fill:#2e2c41;}.cls-3{fill:#f2f2f2;}.cls-4{fill:#f94b4b;}.cls-5{fill:#fba190;}.cls-20,.cls-6{fill:#9f9fe6;}.cls-10,.cls-13,.cls-15,.cls-18,.cls-7,.cls-8,.cls-9{fill:none;}.cls-10,.cls-15,.cls-16,.cls-7,.cls-8,.cls-9{stroke:#2e2c41;}.cls-13,.cls-16,.cls-20,.cls-7,.cls-8,.cls-9{stroke-miterlimit:10;}.cls-7{stroke-width:0.1px;}.cls-8{stroke-width:0.09px;}.cls-9{stroke-width:0.08px;}.cls-10,.cls-15,.cls-18{stroke-linecap:round;stroke-linejoin:round;}.cls-10{stroke-width:0.04px;}.cls-11{fill:#424159;}.cls-12{fill:#fd5d5d;}.cls-13,.cls-18,.cls-20{stroke:#fff;}.cls-13{stroke-width:0.06px;}.cls-14{fill:#5c56ce;}.cls-15,.cls-16{stroke-width:0.14px;}.cls-17{fill:#f26f55;}.cls-18{stroke-width:0.11px;}.cls-19{fill:#d3d3f4;}.cls-20{stroke-width:0.14px;}</style></defs><title>Talk to Doctor-</title><circle class="cls-1" cx="30.06" cy="30.04" r="29.79"/><path class="cls-1" d="M59.85,30a29.73,29.73,0,0,1-.67,6.3,29.3,29.3,0,0,1-2.74,7.54c-.3.57-.62,1.13-.95,1.68-.2.32-.4.63-.61.94a26.35,26.35,0,0,1-1.61,2.2A28.08,28.08,0,0,1,50.15,52l0,0a0,0,0,0,0,0,0l0,0c-.49.44-1,.86-1.49,1.26l-.66.51h0a28.78,28.78,0,0,1-3.43,2.23q-.36.21-.72.39a29.8,29.8,0,0,1-27,.21c-.68-.33-1.34-.7-2-1.08a29.73,29.73,0,0,1-2.87-2h0c-.36-.27-.71-.56-1.06-.86s-.68-.58-1-.89C9.18,51.3,8.57,50.69,8,50.05H8a29.73,29.73,0,0,1-6-30H2a23.11,23.11,0,0,1,1-2.37H3c.18-.42.38-.84.6-1.25.12-.25.25-.49.38-.73a29.11,29.11,0,0,1,3.6-5.14c.11-.15.24-.29.37-.44.34-.37.68-.73,1-1.08a29.78,29.78,0,0,1,50.9,21Z"/><path class="cls-2" d="M27.93,12.57l8.35,41.75a1.87,1.87,0,0,1-1.88,2.36H11.69a3,3,0,0,1-2.84-2.37L.48,12.47a1.87,1.87,0,0,1,1.89-2.36h6l10.68.15h6a3,3,0,0,1,2.78,2.31Z"/><polygon class="cls-2" points="37.09 54.96 35.76 56.25 35.66 54.87 37.09 54.96"/><path class="cls-2" d="M2.3,9.33.81,10.78a9.43,9.43,0,0,0,.83.62A17.75,17.75,0,0,0,2.77,9.82L2.3,9.33Z"/><path class="cls-3" d="M29.15,11.34l8.38,41.9a1.88,1.88,0,0,1-1.89,2.36H12.92a3,3,0,0,1-2.84-2.37L1.71,11.39A1.87,1.87,0,0,1,3.6,9H26.34a3,3,0,0,1,2.78,2.31Z"/><path class="cls-4" d="M28.51,11.65l7.93,40.48a1.31,1.31,0,0,1-1.35,1.62H12.55a2.09,2.09,0,0,1-2-1.62L2.65,11.72A1.31,1.31,0,0,1,4,10.11h6a.35.35,0,0,1,.33.26l.13.66h10l-.13-.73c0-.14.23-.35.23-.35h5.93a2.19,2.19,0,0,1,2.07,1.7Z"/><path class="cls-2" d="M39.41,31.44s.86-.16-.42-1.77-2.59,1.72-2.59,1.72l1.31.47,1.7-.42Z"/><path class="cls-5" d="M28.87,21.52s1.95.73,2.48,4.79c.45,3.42,1,5.72,1,5.72l6.23-5.66,2,1.64S33.27,39.9,30.7,39s-3.24-6.72-3.24-6.72L27.82,23l1.05-1.46Z"/><path class="cls-6" d="M36.39,28.42l1-.89s.14,2.21,2.11,2.29l-1.34,2.12L36.67,30.2l-.58-.56.3-1.22Z"/><path class="cls-1" d="M29.29,21.66a4.84,4.84,0,0,1,1.83,2.89c.47,2,1.32,6.87,1.46,6.87s3.74-3,3.74-3a3.48,3.48,0,0,0,3.09,3s-6.54,7.81-8.36,7.91S27.82,35,27.82,35l.78-7.61.69-5.7Z"/><path class="cls-2" d="M6.72,32.31s-.14-.73,1.54-.82,2,2,2,2L8.45,34.6,7.24,33.52l-.43-.76-.09-.45Z"/><path class="cls-5" d="M12.69,20.49s-2,0-2.68,3.1-3.46,7.8-3,10.67c.32,2.23,2.82,3.88,4.89-.56a12.34,12.34,0,0,0,1.09-5l.82-6.35-1.08-1.86Z"/><path class="cls-1" d="M12.17,20.31s-1.42.57-2.13,3-1.48,8.52-1.48,8.52l2,4.24A17.59,17.59,0,0,0,12.67,33c.54-1.28,0-10.87,0-10.87l-.5-1.79Z"/><path class="cls-5" d="M18.19,19.38,16,19.65s-.07,2,.21,2.15S25.57,24,25.57,24l-.67-3.67a7.12,7.12,0,0,1-1.79-.56c-.21-.25-4.92-.33-4.92-.33Z"/><path class="cls-2" d="M25.72,12.54a17.29,17.29,0,0,0-.29-2.25h0c0-.12-.05-.22-.07-.33-.08-.34-.17-.65-.26-.92C24,5.68,21.76,6.64,21.31,6.87h0l-.07,0s0,.11,0,.31c0,.36.05,1,.09,1.8,0,.29,0,.6.05.92,0,.1,0,.2,0,.31s0,.38,0,.57h0c.11,2.16.21,4.43.16,4.57s-.26,1-.37,1.53c0,.31-.08.53,0,.54a17.8,17.8,0,0,0,1.75.49L23,18c1.55.33,3.54.47,3.8-.92C27.25,14.79,25.86,14.46,25.72,12.54Zm-5.35-1L20.24,11l-.18-.77L19.78,9l-.1-.44-1.23-.53-1.66-.71,0,0A3.16,3.16,0,0,0,15.53,9a5,5,0,0,0-.26,1.18,6.81,6.81,0,0,0,0,.82c0,.24,0,.49,0,.76.18,2-2,3.46-.61,5.41.83,1.14,2.29,1.14,3.54.86a8.62,8.62,0,0,0,.89-.26l.09,0a10.13,10.13,0,0,0,1.28-.54l0-.6.19-3.77Z"/><path class="cls-5" d="M22.79,17.66S24,20.52,24.28,21,23,28.61,22.05,28.47s-4.16-7.63-4.16-7.63.6-3.32.1-4.54,4.8,1.36,4.8,1.36Z"/><path class="cls-5" d="M21.52,18.8c-1.72.2-3.15-1.64-3.78-3.4s-1.19-8.06,2.64-8.22,4.06,4,4.08,5.83S23.86,18.53,21.52,18.8Z"/><path class="cls-7" d="M22.28,18.57a2.11,2.11,0,0,1-.76.23,3.21,3.21,0,0,1-2.45-1"/><path class="cls-2" d="M18,13.77c.21-.36.11-1.55,1.4-1.87,2.35-.57,2.46-2,2.46-2s1.52-.16,2.57,2c0,0,1-5.27-2.66-4.93a5.61,5.61,0,0,0-3.51-.41c-3.84.85-2.69,5.9-1.31,7,.23.19,1.05.12,1.05.12Z"/><path class="cls-5" d="M17.74,13.79s-1.19-.34-1.21.66,1.58,1.8,1.58,1.8Z"/><path class="cls-2" d="M17.42,14.37s-.69.11,0,.89Z"/><path class="cls-6" d="M28.37,29a21.26,21.26,0,0,1-.31,5.64,66.06,66.06,0,0,0-.58,7.4,2.57,2.57,0,0,1-.33.19H12.24c.12-1.74.54-7,.2-9.28a27.79,27.79,0,0,1-.06-7.29,25.34,25.34,0,0,0-.07-5.29c.93-.23,2.42-.46,3.66-.63A22.92,22.92,0,0,0,18.5,21.3a7.69,7.69,0,0,0,2.87,1.06h.2a3.58,3.58,0,0,0,2.27-.88,5.4,5.4,0,0,0,1-1.17l3.94,1.27s-.49,4.85-.44,7.36Z"/><path class="cls-1" d="M29.3,21.79h0a.23.23,0,0,1,0-.07h0a27.2,27.2,0,0,0-3.82-1.54l-.05,0a3.32,3.32,0,0,0-2.07-1.2h0c0,.2.12.57.21,1s.26,1.09.36,1.54a0,0,0,0,1,0,0,10,10,0,0,1,.19,1.38h0c0,.23,0,.47.06.74h0c0,.27,0,.55,0,.87.1,3,0,10.25.07,15.18,0,.77,0,1.62,0,2.5h4.47a48.37,48.37,0,0,1-.6-6.31c0-.17,0-.32,0-.47h0a5.74,5.74,0,0,1,.25-1.74,12.11,12.11,0,0,0,.54-5A34.45,34.45,0,0,1,29.29,24,6,6,0,0,0,29.3,21.79ZM21,33.73c0-2.12-1.67-8-2.22-11v0c0-.12,0-.25-.06-.36-.05-.29-.08-.53-.1-.73s0-.22,0-.33v0a15.94,15.94,0,0,0-.25-1.91,3.54,3.54,0,0,0-.16-.63h0v0a7.14,7.14,0,0,0-2.1.84,13.09,13.09,0,0,0-3.86.75l0,0s0,.1,0,.28h0c0,.78-.14,3-.19,5.37h0a2,2,0,0,0,0,.24c0,1.84-.05,3.74,0,5.09,0,.06,0,.12,0,.17,0,.22,0,.43.05.61a9.1,9.1,0,0,1,0,1.22c0,.26,0,.55,0,.85-.13,2-.47,5-.85,8H20.5C20.79,38.35,21,34.77,21,33.73Z"/><path class="cls-8" d="M24.52,40.89s.55-3.34,1.35-7.33a17.52,17.52,0,0,1,1.74-5.45L25.39,25.5l1.73-.66a15.63,15.63,0,0,0-1.44-4.26l-.22-.42,0-.06M20.35,41.28a27.32,27.32,0,0,0-4-12.27l2-3.51-2.5-1.33c-.06-.83.15-3.29.23-4.19a.13.13,0,0,1,0-.06c0-.08,0-.14,0-.19a.45.45,0,0,0,0-.08"/><path class="cls-5" d="M5.91,29.07l.66-.74S5.29,27.38,6,26.71a4.83,4.83,0,0,1,1.5.56c.62.4,1.63,1,1.63,1L7.8,29l-1.89.05Z"/><path class="cls-2" d="M4,24.31l6.11,6.9a.13.13,0,0,0,.09,0l6.36.35a.13.13,0,0,0,.1-.21l-6.25-7a.55.55,0,0,0-.43-.2l-5.88-.05a.13.13,0,0,0-.1.22Z"/><path class="cls-2" d="M3.94,24.46l6.11,6.9a.13.13,0,0,0,.09.05l6.36.35a.13.13,0,0,0,.1-.22l-6.25-7a.58.58,0,0,0-.43-.2L4,24.25A.12.12,0,0,0,3.94,24.46Z"/><ellipse class="cls-1" cx="9.86" cy="24.91" rx="0.16" ry="0.22" transform="translate(-12.99 10.93) rotate(-36.94)"/><path class="cls-5" d="M7.31,32.54l.36-2.08,2.19,0s.81,2.37.77,2.48a9.64,9.64,0,0,1-1.46,1.53c-.13,0-1.36-.56-1.36-.56l-.5-1.39Z"/><path class="cls-6" d="M7.22,31.49a2.75,2.75,0,0,0,2.91-.26l.31,1.09-.71,1.46-1.92.14A5.41,5.41,0,0,1,6.89,33c0-.1.21-1.11.33-1.51Z"/><path class="cls-1" d="M10.35,32l.76,2.6-.53,1.53s-1.64,1.23-2.69.29-1.44-2-1.17-4.11c0,0,.81,1.6,2.2,1.3A1.75,1.75,0,0,0,10.35,32Z"/><path class="cls-5" d="M6.47,27.73s-.83.55-.68,1a1.21,1.21,0,0,0,.57.65.63.63,0,0,0,.48.88.85.85,0,0,0,1,.62s.44.41.79.31a6.4,6.4,0,0,0,1.92-1,.17.17,0,0,0,0-.21s.39-.21.36-.52-.46-.14-.46-.14.39-.57.25-.8S9,28.89,9,28.89s1-.82.47-.88-1.22.24-1.93.15a2.36,2.36,0,0,1-1.1-.42Z"/><path class="cls-9" d="M9.34,30.54h0a4.08,4.08,0,0,1-.61.17c-.46.1-.9.15-.9.15m-.74-.68.59,0c.31,0,.7-.06,1-.11l.16,0h0l.17,0a11.59,11.59,0,0,0,1.43-.62M6.5,29.25s.7-.07,1.33-.1l.21,0h0l.2,0A3.58,3.58,0,0,0,9,28.89"/><path class="cls-5" d="M38,27.06a6.08,6.08,0,0,1,.46-1.78c.29-.37.69-.8,1-1.18s.47-.81.78-.52S39.87,25,39.87,25a5,5,0,0,0,1.26-1.12c.6-.76,1.24-1.69,1.47-1.49a.79.79,0,0,1,.27.34s.35-.25.54-.1,0,.56,0,.56.34.18.36.37A7.06,7.06,0,0,1,42.62,26s1.28-1.4,1.36-1.32.09.63-.87,1.69a12.25,12.25,0,0,1-2.89,2L38,27.06Z"/><path class="cls-9" d="M40.88,25.43c.91-1.2,2-2.73,2-2.73m-1.34,3.35s.65-.86,1.1-1.51a10.86,10.86,0,0,0,.82-1.38"/><path class="cls-9" d="M10.2,31.44a9.81,9.81,0,0,1,.55,2.67"/><path class="cls-2" d="M51.42,22.55a1.55,1.55,0,0,0-1.5,1.19,2.49,2.49,0,0,0,.46,1.56s1.6-2.83,1-2.75Z"/><path class="cls-5" d="M54.64,27.69a5.74,5.74,0,0,1-.48-1.4c-.12-.72.29-3.55-1.11-3.62a2.52,2.52,0,0,0-2.68,1.41,3.86,3.86,0,0,0,.13,1.73,8.56,8.56,0,0,0,.72,2.28A1.23,1.23,0,0,0,52.31,28l.18.86,2.15-1.21Z"/><path class="cls-2" d="M50.33,24.27s-.27.49.17.56.57.87.7.9.43-.7.8-.48.62,1.46,1.17,1.58a2.17,2.17,0,0,0,1.16,0,3.47,3.47,0,0,0,.42-2.63c-.21-1.34-.79-2-2.19-1.94a2.19,2.19,0,0,0-2.24,2Z"/><path class="cls-5" d="M51.35,25.62s.11-.5.46-.35.27.86.08,1.27Z"/><path class="cls-10" d="M51.33,25.62s.13-.5.48-.35.27.86.09,1.27"/><path class="cls-2" d="M51.51,25.7s.06-.23.25-.15,0,.57-.09.79Z"/><path class="cls-5" d="M56.47,40.41s0,0,0,.06,0,.29-.07.43a4.73,4.73,0,0,1-1.55,3l-.12.09a4.83,4.83,0,0,1-.45.26h0A15.66,15.66,0,0,1,50,45.5h0l-.88.12,1.1,6.4v0l0,0a0,0,0,0,0,0,0l0,0v0c-.49.44-1,.86-1.49,1.26h-.2l-.19-.54h0c-.38-1.08-1.22-3.57-1.72-5.64a13.34,13.34,0,0,1-.37-2.27,1.28,1.28,0,0,1,.12-.61,2.75,2.75,0,0,1,.93-1.08h0A17.28,17.28,0,0,1,52.63,41L54,40.17l1.82-1.12.79-.49A10.78,10.78,0,0,1,56.47,40.41Z"/><path class="cls-5" d="M50.12,52l0,.09c-.49.44-1,.86-1.49,1.26l-.66.51c.12-.3.22-.56.26-.68a1.2,1.2,0,0,0,0-.36h0l0-.27Z"/><path class="cls-11" d="M50.13,52.05a0,0,0,0,0,0,0h0Z"/><path class="cls-12" d="M50.42,35.31c0,.4.29,2.87.29,3.71,0,0,5.52,2,5.75,1.89,0-.13.61-4.65.61-4.79A37.37,37.37,0,0,0,57.21,30a3.92,3.92,0,0,0-2.14-2.46,8.5,8.5,0,0,0-1.45.19,6.25,6.25,0,0,0-1.24.73l-1.52.8A21.81,21.81,0,0,0,50,32.51a14.91,14.91,0,0,0,.38,2.8Z"/><path class="cls-5" d="M47.94,33l-2.11-3-1,.76s1.39,2.78,1.62,3.19,1.46-1,1.46-1Z"/><path class="cls-5" d="M46.11,30.53s-.29-.53-.48-.83-.62-.7-.68-1-.11-.39-.11-.39-.38.15-.11.59c0,0-.34-.16-.6-.25s-.82-.05-.88.06a.17.17,0,0,0,0,.2s-.53,0-.31.33c0,0-.17.16,0,.27a.49.49,0,0,0,.24.14s-.16.19.12.34.9.36,1.14.54a2.85,2.85,0,0,0,1,.5l.72-.54Z"/><path class="cls-10" d="M44.61,29.34A3.41,3.41,0,0,0,43.28,29m-.31.33a6.48,6.48,0,0,1,1.43.42m-.15.4a5.57,5.57,0,0,0-1.09-.41"/><path class="cls-10" d="M44.73,28.94a1.72,1.72,0,0,1,.33.24"/><path class="cls-12" d="M50.85,29.23a8.26,8.26,0,0,0-1.65,2C48.51,32.36,48.15,33,48.15,33l-.65-.77A2.09,2.09,0,0,0,46,33.67c-.06.29,1.82,2.4,2.4,2.33,1.14-.14,3.59-3.91,3.59-3.91s.19-2.74-1.14-2.86Z"/><path class="cls-10" d="M50.29,34.46A28,28,0,0,0,52,32.15m-3.84.92s0,.53,0,1.18"/><path class="cls-2" d="M54.25,23.53A1.66,1.66,0,0,1,56,24c.61.81.22,1.89.1,3s-.22,1.91.62,2.13a.91.91,0,0,1-.65-.1,2.52,2.52,0,0,0,.56.55.91.91,0,0,1-1,0c-.42-.32-.75-.85-.92-.93a1.31,1.31,0,0,1-.43-1.14c.06-.56.6-2.88.11-3.33s-.15-.67-.15-.67Z"/><path class="cls-13" d="M54.57,24.38c.32.3.12,1.34-.07,2.18m.07-2.18a1.34,1.34,0,0,1,0-.91"/><path class="cls-5" d="M50.61,38.48s0,.88-.24,1.06-5.17,1.19-6,2.88c-.37.72-1.93,11.41-1.93,11.41s2.07.34,2.17-.12c1.2-5.94,2.21-5.43,2.29-9.27,0,0,4.29.05,6.64-.09s2.75-1.79,2.9-3.1a23,23,0,0,0,.15-2.35l-3,.61-2.9-1Z"/><path class="cls-10" d="M46.55,47a10.93,10.93,0,0,0,.31-2.55s4.28,0,6.63-.08"/><path class="cls-5" d="M40.71,55.76v.59l1.36.18L43.6,55l.9-1.47-2-.17a2.26,2.26,0,0,1-.2.6c-.25.3-1.59,1.79-1.59,1.79Z"/><path class="cls-11" d="M44.83,54.33c0,.4-.23,1.1-.32,1.76q-.36.21-.72.39V55.35l-1.36,1.33-.34.16H39.37a.55.55,0,0,1,0-.54c.15-.24,1.19-.52,1.36-.56h0s.08.34.71.35c.47,0,1.95-1.42,2.67-2.15.17-.17.3-.31.37-.37s0,0,0,0a.07.07,0,0,0,0,0h0l.05.05A1.32,1.32,0,0,1,44.83,54.33Z"/><path class="cls-14" d="M50.58,38.41a6.76,6.76,0,0,1-.4,1.08,25.19,25.19,0,0,0-4.67,1.87,4.1,4.1,0,0,0,1.79,3.86c2.12,1.26,8-1.25,8-1.25l1.56-2.81V38.43a26.22,26.22,0,0,1-2.81.48,10.86,10.86,0,0,1-3.51-.5Z"/><polyline class="cls-15" points="53.27 48.7 53.27 46.5 53.27 45.78 53.27 45.19"/><path class="cls-2" d="M56.44,43.88c-.3.57-.62,1.13-.95,1.68-.2.32-.4.63-.61.94H51.11a1.15,1.15,0,0,1-1.06-.69A1.09,1.09,0,0,1,50,45.5a.76.76,0,0,1,0-.15V43.88Z"/><path class="cls-6" d="M59.18,36.34a29.3,29.3,0,0,1-2.74,7.54c-.3.57-.62,1.13-.95,1.68a8.31,8.31,0,0,1-1.05.08s-.47.08-1.17.14a16.25,16.25,0,0,1-3.22,0,6.12,6.12,0,0,1-1-.18,1.34,1.34,0,0,1-.27-.07,2.37,2.37,0,0,1-1.57-1.1,0,0,0,0,1,0,0,1.53,1.53,0,0,1-.17-.72.92.92,0,0,1,.15-.52c.47-.81,2.17-1.4,4.85-2.18a2.84,2.84,0,0,0,1.43-1,4.63,4.63,0,0,0,.37-.54c.1-.17.19-.35.28-.54,1.1-2.31,1.33-5.59,2.89-5.59h.24C58.3,33.43,59,34.24,59.18,36.34Z"/><path d="M26.36,48.56a2.74,2.74,0,0,1-3,2.84,3.53,3.53,0,0,1-3.19-3.35,2.75,2.75,0,0,1,3-2.84A3.53,3.53,0,0,1,26.36,48.56Z"/><path class="cls-1" d="M24.75,47.14a.06.06,0,0,1,0,0,1.89,1.89,0,0,1-.07.7A3.3,3.3,0,0,1,24,49.21a3.11,3.11,0,0,1-.89.69,1.17,1.17,0,0,1-.54.14.57.57,0,0,1-.35-.12l-.33-.26h0a.35.35,0,0,1-.13-.2.25.25,0,0,1,.05-.22h0l.12-.17,0,0,0,0,.17-.24a.28.28,0,0,1,.44,0l0,0,.06,0,.24.19h0s0,0,.05,0h0a1.65,1.65,0,0,0,.35-.28h0a2.57,2.57,0,0,0,.49-.74.16.16,0,0,0,0-.09l0-.1h0v0l0,0-.33-.26a.34.34,0,0,1-.13-.21.26.26,0,0,1,0-.22l.36-.48a.3.3,0,0,1,.44,0l.1.08h0a1.24,1.24,0,0,0,.18.14h0a.62.62,0,0,1,.24.39Z"/><path class="cls-16" d="M35.2,7.71h11a1.48,1.48,0,0,1,1.48,1.48v5.22a1.48,1.48,0,0,1-1.48,1.48H39.11L36.46,18V15.89H35.17a1.48,1.48,0,0,1-1.48-1.48V9.19a1.49,1.49,0,0,1,1.48-1.48Z"/><path class="cls-17" d="M37.09,13.63,35.37,12.1a1.18,1.18,0,1,1,1.57-1.76l.21.18.26-.21a1.18,1.18,0,1,1,1.5,1.82l-1.82,1.5Z"/><polyline class="cls-18" points="35.08 11.72 36.24 11.72 36.59 10.81 37.14 12.7 37.64 10.78 38.02 12.22 38.24 11.88 39.24 11.88"/><rect class="cls-19" x="40.86" y="9.64" width="5.71" height="0.46"/><rect class="cls-19" x="40.86" y="11.03" width="5.71" height="0.31"/><rect class="cls-19" x="40.86" y="11.96" width="5.71" height="0.31"/><rect class="cls-19" x="40.86" y="13.04" width="5.71" height="0.31"/><path class="cls-20" d="M7.17,9.48a1,1,0,0,1,0-.18A21.2,21.2,0,0,1,4.77,8.15,22.32,22.32,0,0,1,2.1,8.5a1.09,1.09,0,0,1,0,.18,1.19,1.19,0,0,1-1.33,1,7.27,7.27,0,0,0,2.8,6.17,7.32,7.32,0,0,0,4.57-5,1.18,1.18,0,0,1-1-1.35Z"/><rect class="cls-1" x="3.05" y="11.44" width="2.24" height="0.92" transform="translate(-8.26 14.02) rotate(-80.38)"/><rect class="cls-1" x="3.7" y="10.78" width="0.92" height="2.24" transform="translate(-8.26 14.02) rotate(-80.38)"/></svg>