<?xml version="1.0" encoding="UTF-8"?>
<svg id="Layer_1" data-name="Layer 1" xmlns="http://www.w3.org/2000/svg" viewBox="0 0 1400 1000">
  <defs>
    <style>
      .cls-1 {
        fill: #d26a75;
      }

      .cls-1, .cls-2, .cls-3, .cls-4 {
        stroke-width: 0px;
      }

      .cls-2 {
        fill: #fd5d5d;
      }

      .cls-3 {
        fill: #823500;
      }

      .cls-4 {
        fill: #2e2e2e;
      }
    </style>
  </defs>
  <g>
    <path class="cls-3" d="M530.15,464.89h-4.36v-9.33c0-2.3-.86-3.46-2.57-3.46-1.22,0-2.1.41-2.64,1.24s-.81,2.17-.81,4.03v7.51h-4.36v-22.22h4.36v4.53c0,.35-.03,1.18-.1,2.49l-.1,1.29h.23c.97-1.56,2.51-2.34,4.63-2.34,1.88,0,3.3.5,4.27,1.51s1.46,2.46,1.46,4.34v10.41Z"/>
    <path class="cls-3" d="M550.64,465.17c-2.57,0-4.58-.71-6.03-2.13s-2.17-3.43-2.17-6.03.67-4.74,2.01-6.21,3.19-2.19,5.55-2.19,4.01.64,5.27,1.93,1.89,3.06,1.89,5.33v2.11h-10.3c.05,1.24.41,2.2,1.1,2.9.69.7,1.65,1.04,2.88,1.04.96,0,1.87-.1,2.73-.3s1.75-.52,2.68-.96v3.37c-.76.38-1.58.66-2.44.85s-1.92.28-3.17.28ZM550.03,451.72c-.92,0-1.65.29-2.17.88s-.82,1.42-.9,2.49h6.11c-.02-1.08-.3-1.91-.84-2.49s-1.28-.88-2.2-.88Z"/>
    <path class="cls-3" d="M579.61,464.89l-.84-2.17h-.11c-.73.92-1.49,1.56-2.26,1.92s-1.79.54-3.03.54c-1.53,0-2.74-.44-3.62-1.31s-1.32-2.12-1.32-3.74.59-2.94,1.78-3.75,2.97-1.25,5.36-1.34l2.77-.09v-.7c0-1.62-.83-2.43-2.49-2.43-1.28,0-2.78.39-4.5,1.16l-1.44-2.94c1.84-.96,3.88-1.44,6.11-1.44s3.78.47,4.93,1.4,1.71,2.35,1.71,4.26v10.64h-3.04ZM578.32,457.49l-1.69.06c-1.27.04-2.21.27-2.83.69s-.93,1.06-.93,1.91c0,1.23.7,1.84,2.11,1.84,1.01,0,1.82-.29,2.42-.87s.91-1.35.91-2.31v-1.31Z"/>
    <path class="cls-3" d="M600.27,464.89h-4.36v-22.22h4.36v22.22Z"/>
    <path class="cls-3" d="M620.34,461.7c.76,0,1.68-.17,2.74-.5v3.24c-1.09.49-2.42.73-4,.73-1.74,0-3.01-.44-3.81-1.32-.79-.88-1.19-2.2-1.19-3.96v-7.7h-2.09v-1.84l2.4-1.46,1.26-3.37h2.78v3.4h4.47v3.27h-4.47v7.7c0,.62.17,1.08.52,1.37s.81.44,1.38.44Z"/>
    <path class="cls-3" d="M649.82,464.89h-4.36v-9.33c0-2.3-.86-3.46-2.57-3.46-1.22,0-2.1.41-2.64,1.24s-.81,2.17-.81,4.03v7.51h-4.36v-22.22h4.36v4.53c0,.35-.03,1.18-.1,2.49l-.1,1.29h.23c.97-1.56,2.51-2.34,4.63-2.34,1.88,0,3.3.5,4.27,1.51s1.46,2.46,1.46,4.34v10.41Z"/>
    <path class="cls-3" d="M669.56,465.17c-4.97,0-7.46-2.73-7.46-8.18,0-2.71.68-4.79,2.03-6.22s3.29-2.15,5.81-2.15c1.85,0,3.5.36,4.97,1.09l-1.29,3.37c-.69-.28-1.32-.5-1.91-.68s-1.18-.26-1.77-.26c-2.27,0-3.4,1.61-3.4,4.83s1.13,4.68,3.4,4.68c.84,0,1.61-.11,2.33-.34s1.43-.57,2.14-1.05v3.73c-.7.45-1.42.76-2.14.93s-1.63.26-2.72.26Z"/>
    <path class="cls-3" d="M697.03,464.89l-.84-2.17h-.11c-.73.92-1.49,1.56-2.26,1.92s-1.79.54-3.03.54c-1.53,0-2.74-.44-3.62-1.31s-1.32-2.12-1.32-3.74.59-2.94,1.78-3.75,2.97-1.25,5.36-1.34l2.77-.09v-.7c0-1.62-.83-2.43-2.49-2.43-1.28,0-2.77.39-4.5,1.16l-1.44-2.94c1.84-.96,3.87-1.44,6.11-1.44s3.78.47,4.93,1.4,1.71,2.35,1.71,4.26v10.64h-3.04ZM695.75,457.49l-1.69.06c-1.27.04-2.21.27-2.83.69s-.93,1.06-.93,1.91c0,1.23.7,1.84,2.11,1.84,1.01,0,1.82-.29,2.42-.87s.91-1.35.91-2.31v-1.31Z"/>
    <path class="cls-3" d="M722.25,448.62c.59,0,1.08.04,1.47.13l-.33,4.08c-.35-.09-.78-.14-1.29-.14-1.39,0-2.47.36-3.25,1.07s-1.16,1.71-1.16,3v8.13h-4.36v-15.97h3.3l.64,2.68h.21c.5-.89,1.16-1.62,2.01-2.16s1.76-.82,2.75-.82Z"/>
    <path class="cls-3" d="M742.62,465.17c-2.57,0-4.58-.71-6.03-2.13s-2.17-3.43-2.17-6.03.67-4.74,2.01-6.21,3.19-2.19,5.55-2.19,4.01.64,5.27,1.93,1.89,3.06,1.89,5.33v2.11h-10.3c.05,1.24.41,2.2,1.1,2.9.69.7,1.65,1.04,2.88,1.04.96,0,1.87-.1,2.73-.3s1.75-.52,2.68-.96v3.37c-.76.38-1.58.66-2.44.85s-1.92.28-3.17.28ZM742.01,451.72c-.92,0-1.65.29-2.17.88s-.82,1.42-.9,2.49h6.11c-.02-1.08-.3-1.91-.84-2.49s-1.28-.88-2.2-.88Z"/>
    <path class="cls-3" d="M787.96,464.89l-.84-2.17h-.11c-.73.92-1.49,1.56-2.26,1.92s-1.79.54-3.03.54c-1.53,0-2.74-.44-3.62-1.31s-1.32-2.12-1.32-3.74.59-2.94,1.78-3.75c1.19-.8,2.97-1.25,5.36-1.34l2.77-.09v-.7c0-1.62-.83-2.43-2.49-2.43-1.28,0-2.77.39-4.5,1.16l-1.44-2.94c1.84-.96,3.87-1.44,6.11-1.44s3.78.47,4.93,1.4,1.71,2.35,1.71,4.26v10.64h-3.04ZM786.68,457.49l-1.69.06c-1.27.04-2.21.27-2.83.69s-.93,1.06-.93,1.91c0,1.23.7,1.84,2.11,1.84,1.01,0,1.82-.29,2.42-.87s.91-1.35.91-2.31v-1.31Z"/>
    <path class="cls-3" d="M810.99,461.7c.76,0,1.68-.17,2.74-.5v3.24c-1.09.49-2.42.73-4,.73-1.74,0-3.01-.44-3.81-1.32s-1.19-2.2-1.19-3.96v-7.7h-2.09v-1.84l2.4-1.46,1.26-3.37h2.78v3.4h4.47v3.27h-4.47v7.7c0,.62.17,1.08.52,1.37s.81.44,1.38.44Z"/>
    <path class="cls-3" d="M850.93,452.19h-3.77v12.7h-4.36v-12.7h-2.4v-2.1l2.4-1.17v-1.17c0-1.82.45-3.15,1.34-3.98s2.33-1.26,4.3-1.26c1.5,0,2.84.22,4.01.67l-1.11,3.2c-.88-.28-1.69-.41-2.43-.41-.62,0-1.07.18-1.34.55s-.41.84-.41,1.41v1h3.77v3.27Z"/>
    <path class="cls-3" d="M862.02,444.79c0-1.42.79-2.13,2.37-2.13s2.37.71,2.37,2.13c0,.68-.2,1.2-.59,1.58s-.99.56-1.78.56c-1.58,0-2.37-.71-2.37-2.14ZM866.56,464.89h-4.36v-15.97h4.36v15.97Z"/>
    <path class="cls-3" d="M894.65,464.89h-4.36v-9.33c0-1.15-.2-2.02-.61-2.59s-1.06-.86-1.96-.86c-1.22,0-2.1.41-2.64,1.22s-.81,2.16-.81,4.05v7.51h-4.36v-15.97h3.33l.59,2.04h.24c.49-.77,1.15-1.35,2.01-1.75s1.82-.59,2.91-.59c1.86,0,3.27.5,4.23,1.51s1.44,2.45,1.44,4.35v10.41Z"/>
    <path class="cls-3" d="M921.8,448.92v2.21l-2.5.64c.46.71.69,1.51.69,2.4,0,1.71-.6,3.05-1.79,4.01s-2.85,1.44-4.98,1.44l-.79-.04-.64-.07c-.45.34-.67.72-.67,1.14,0,.63.8.94,2.4.94h2.71c1.75,0,3.09.38,4.01,1.13s1.38,1.86,1.38,3.31c0,1.87-.78,3.31-2.34,4.34-1.56,1.03-3.79,1.54-6.71,1.54-2.23,0-3.93-.39-5.11-1.16s-1.76-1.86-1.76-3.26c0-.96.3-1.77.9-2.41s1.48-1.11,2.64-1.39c-.45-.19-.84-.5-1.17-.94s-.5-.89-.5-1.38c0-.61.18-1.12.53-1.52.35-.4.86-.8,1.53-1.19-.84-.36-1.5-.94-1.99-1.74s-.74-1.74-.74-2.83c0-1.74.57-3.09,1.7-4.04,1.13-.95,2.75-1.43,4.86-1.43.45,0,.98.04,1.59.12s1.01.14,1.18.18h5.57ZM909.48,467.14c0,.6.29,1.07.86,1.41s1.38.51,2.42.51c1.56,0,2.78-.21,3.67-.64s1.33-1.01,1.33-1.76c0-.6-.26-1.01-.79-1.24s-1.33-.34-2.43-.34h-2.26c-.8,0-1.47.19-2.01.56s-.81.87-.81,1.49ZM911.06,454.15c0,.87.2,1.55.59,2.06s1,.76,1.81.76,1.42-.25,1.8-.76.57-1.19.57-2.06c0-1.92-.79-2.88-2.37-2.88s-2.4.96-2.4,2.88Z"/>
    <path class="cls-3" d="M940.43,465.17c-2.57,0-4.58-.71-6.03-2.13s-2.17-3.43-2.17-6.03.67-4.74,2.01-6.21c1.34-1.46,3.19-2.19,5.55-2.19s4.01.64,5.27,1.93,1.89,3.06,1.89,5.33v2.11h-10.3c.05,1.24.41,2.2,1.1,2.9.69.7,1.65,1.04,2.88,1.04.96,0,1.87-.1,2.73-.3s1.75-.52,2.68-.96v3.37c-.76.38-1.58.66-2.44.85s-1.92.28-3.17.28ZM939.82,451.72c-.92,0-1.65.29-2.17.88s-.82,1.42-.9,2.49h6.11c-.02-1.08-.3-1.91-.84-2.49s-1.28-.88-2.2-.88Z"/>
    <path class="cls-3" d="M968.17,448.62c.59,0,1.08.04,1.47.13l-.33,4.08c-.35-.09-.78-.14-1.29-.14-1.39,0-2.47.36-3.25,1.07s-1.16,1.71-1.16,3v8.13h-4.36v-15.97h3.3l.64,2.68h.21c.5-.89,1.16-1.62,2.01-2.16.84-.55,1.76-.82,2.75-.82Z"/>
    <path class="cls-3" d="M988.04,461.7c.76,0,1.68-.17,2.74-.5v3.24c-1.09.49-2.42.73-4,.73-1.74,0-3.01-.44-3.81-1.32s-1.19-2.2-1.19-3.96v-7.7h-2.09v-1.84l2.4-1.46,1.26-3.37h2.78v3.4h4.47v3.27h-4.47v7.7c0,.62.17,1.08.52,1.37s.81.44,1.38.44Z"/>
    <path class="cls-3" d="M1002.6,444.79c0-1.42.79-2.13,2.37-2.13s2.37.71,2.37,2.13c0,.68-.2,1.2-.59,1.58s-.99.56-1.78.56c-1.58,0-2.37-.71-2.37-2.14ZM1007.14,464.89h-4.36v-15.97h4.36v15.97Z"/>
    <path class="cls-3" d="M1029.26,465.17c-1.88,0-3.35-.68-4.41-2.04h-.23c.15,1.33.23,2.1.23,2.31v6.47h-4.36v-22.99h3.54l.61,2.07h.2c1.02-1.58,2.53-2.37,4.53-2.37,1.89,0,3.36.73,4.43,2.19,1.07,1.46,1.6,3.48,1.6,6.07,0,1.7-.25,3.18-.75,4.44s-1.21,2.21-2.14,2.87-2.01.99-3.26.99ZM1027.97,452.1c-1.08,0-1.86.33-2.36.99s-.75,1.75-.77,3.28v.47c0,1.71.25,2.94.76,3.68.51.74,1.32,1.11,2.42,1.11,1.95,0,2.93-1.61,2.93-4.83,0-1.57-.24-2.75-.72-3.53s-1.24-1.18-2.26-1.18Z"/>
    <path class="cls-3" d="M1058.91,460.14c0,1.64-.57,2.88-1.71,3.74s-2.84,1.29-5.11,1.29c-1.16,0-2.15-.08-2.97-.24s-1.59-.39-2.3-.69v-3.6c.81.38,1.72.7,2.73.96s1.91.39,2.68.39c1.58,0,2.37-.46,2.37-1.37,0-.34-.1-.62-.31-.84s-.57-.46-1.09-.73-1.2-.59-2.06-.95c-1.23-.51-2.13-.99-2.71-1.43s-1-.94-1.26-1.51-.39-1.26-.39-2.09c0-1.42.55-2.52,1.65-3.29s2.66-1.16,4.68-1.16,3.79.42,5.61,1.26l-1.31,3.14c-.8-.34-1.55-.62-2.24-.84s-1.4-.33-2.13-.33c-1.29,0-1.93.35-1.93,1.04,0,.39.21.73.62,1.01s1.32.71,2.72,1.27c1.25.5,2.16.98,2.74,1.41s1.01.94,1.29,1.51.41,1.25.41,2.04Z"/>
  </g>
  <g>
    <circle class="cls-2" cx="1118.95" cy="582.97" r="8.64"/>
    <path class="cls-2" d="M1118.95,555.69c15.04,0,27.27,12.24,27.27,27.27h8.83c0-19.91-16.2-36.1-36.1-36.1h0v8.83h0Z"/>
    <path class="cls-2" d="M1118.95,569.67c7.33,0,13.29,5.96,13.29,13.29h8.83c0-12.2-9.92-22.12-22.12-22.12h0v8.83h0Z"/>
  </g>
  <path class="cls-4" d="M1118.95,519.24c-35.14,0-63.74,28.58-63.74,63.72,0,30.77,21.93,56.51,50.96,62.44-9.04,21.59-29.4,50.45-75.34,69.65-91.26,36.78-153.04,12.82-265.18-30.68-74.75-28.99-167.79-65.06-302.97-95.76-32.21-7.42-60.68-10.35-85.28-8.83v-48.06l14.47-3.46c5.86-1.4,11.42-3.62,16.57-6.55,9.86-5.62,18.18-13.85,23.84-23.89l39.41-69.74c1.52-2.69.57-6.11-2.12-7.62l-.5-.28-8.98-5.08c-.87-.49-1.81-.72-2.75-.72-1.96,0-3.84,1.02-4.87,2.84l-39.41,69.74c-5.62,9.93-15.22,17.16-26.31,19.82l-9.35,2.24-11.04,2.63-11.04-2.63-9.35-2.24c-11.11-2.66-20.69-9.89-26.31-19.82l-39.41-69.74c-1.52-2.69-4.93-3.64-7.62-2.12l-8.98,5.08-.5.28c-2.69,1.52-3.63,4.93-2.12,7.62l39.41,69.74c5.67,10.04,13.98,18.26,23.84,23.89,5.15,2.93,10.71,5.15,16.57,6.55l14.47,3.46v50.83c-21.35,4.16-39.07,12.47-53.07,24.87-31.69,28.14-35.17,76.32-7.92,109.73.65.79,1.3,1.57,1.97,2.35,12.69,14.69,32.67,19.81,50.91,13.01,18.34-6.81,30.18-23.84,30.18-43.37v-87.09c22.8-1.63,49.77,1.04,80.35,8.09,133.66,30.33,225.84,66.09,299.93,94.82,74.42,28.86,129.49,50.23,186.64,50.23,30.02,0,60.63-5.9,94.89-19.71,58.65-24.52,81.55-63.11,90.49-89.71,30.04-5.12,52.97-31.33,52.97-62.81,0-35.14-28.59-63.72-63.72-63.72ZM355.33,689.15c0,12.39-8.17,19.84-15.81,22.69-7.56,2.81-18.5,2.5-26.5-6.76-.53-.62-1.04-1.25-1.57-1.88-19.74-24.19-17.34-59.01,5.47-79.26,9.95-8.83,22.84-15.07,38.41-18.66v83.87ZM1135.14,621.33c-4.97,2.12-10.45,3.28-16.19,3.28-2.21,0-4.36-.18-6.48-.52-19.91-3.11-35.19-20.37-35.19-41.13,0-22.97,18.69-41.65,41.66-41.65s41.65,18.68,41.65,41.65c0,17.23-10.51,32.04-25.46,38.37Z"/>
  <g>
    <path class="cls-2" d="M334.99,257.32c0,4.99-2.9,9.21-7.01,11.23-2.15,1.06-4.64,1.52-7.23,1.15l-3.99-.56-19.25-2.68c-1.56-.22-2.83-1.21-3.49-2.53-16.06,3.33-30.99,8.92-44.62,16.75-20.37,11.7-27.68,37.32-16.66,58.35l39.88,76.09-8.98,5.08-40.03-76.38c-13.6-25.95-4.53-57.6,20.65-72.07,15.04-8.64,31.54-14.72,49.26-18.22v-.75c0-2.31,1.71-4.28,3.99-4.59l23.24-3.25c.59-.09,1.18-.12,1.75-.12,6.77,0,12.48,5.5,12.48,12.51Z"/>
    <path class="cls-2" d="M509.11,343.81l-40.03,76.38-8.98-5.08,39.88-76.09c11.02-21.03,3.71-46.65-16.66-58.35-13.64-7.83-28.57-13.42-44.62-16.75-.66,1.32-1.94,2.31-3.5,2.53l-19.23,2.68-3.99.56c-.59.09-1.18.12-1.77.12-1.94,0-3.8-.46-5.46-1.27-4.11-2.02-7.01-6.24-7.01-11.23,0-7.59,6.71-13.44,14.23-12.39l23.22,3.25c2.3.31,4,2.28,4,4.59v.75c17.72,3.5,34.22,9.58,49.26,18.22,25.18,14.47,34.25,46.12,20.65,72.07Z"/>
  </g>
  <g>
    <g>
      <path class="cls-2" d="M576.66,389.91c0,10.04-2.7,17.86-8.1,23.48-5.4,5.61-12.95,8.42-22.66,8.42s-16.72-2.87-22.23-8.61c-5.51-5.74-8.26-13.5-8.26-23.29s2.7-17.77,8.1-23.31,12.97-8.31,22.72-8.31c6.03,0,11.35,1.28,15.98,3.84s8.19,6.24,10.7,11.02c2.51,4.78,3.76,10.37,3.76,16.76ZM536.91,389.91c0,5.27.7,9.29,2.11,12.05,1.41,2.76,3.77,4.14,7.09,4.14s5.6-1.38,6.96-4.14,2.03-6.78,2.03-12.05-.69-9.19-2.06-11.86c-1.37-2.67-3.72-4.01-7.04-4.01s-5.58,1.33-6.99,3.98-2.11,6.62-2.11,11.89Z"/>
      <path class="cls-2" d="M628.99,358.29c6.68,0,11.98,2.8,15.89,8.39,3.92,5.6,5.88,13.34,5.88,23.23s-1.98,17.77-5.93,23.42c-3.95,5.65-9.45,8.48-16.49,8.48-2.27,0-4.3-.24-6.07-.73-1.77-.49-3.35-1.16-4.74-2.03s-3.01-2.31-4.85-4.33h-1.3l-3.36,6.01h-16.52v-84.26h21.17v19.06c0,2.27-.25,6.19-.76,11.75h.76c2.06-3.18,4.43-5.47,7.12-6.88,2.69-1.41,5.75-2.11,9.18-2.11ZM621.24,374.91c-2.96,0-5.13,1.03-6.5,3.09s-2.06,5.29-2.06,9.69v2.98c0,5.02.69,8.62,2.06,10.8s3.61,3.28,6.72,3.28c2.49,0,4.4-1.27,5.74-3.82,1.34-2.55,2-6.29,2-11.24,0-9.86-2.65-14.78-7.96-14.78Z"/>
      <path class="cls-2" d="M665.17,344.1c0-3.18.88-5.54,2.65-7.09,1.77-1.55,4.62-2.33,8.56-2.33s6.8.79,8.61,2.38c1.81,1.59,2.71,3.94,2.71,7.04,0,6.21-3.77,9.31-11.32,9.31s-11.21-3.1-11.21-9.31ZM686.89,420.73h-21.17v-61.36h21.17v61.36Z"/>
    </g>
    <g>
      <path class="cls-4" d="M719.43,420.73v-79.17h21.39v61.9h30.49v17.28h-51.88Z"/>
      <path class="cls-4" d="M825.53,420.73l-4.06-8.12h-.43c-2.85,3.54-5.76,5.96-8.72,7.26s-6.79,1.95-11.48,1.95c-5.78,0-10.32-1.73-13.65-5.2-3.32-3.47-4.98-8.34-4.98-14.62s2.27-11.4,6.82-14.59c4.55-3.2,11.14-4.99,19.77-5.39l10.24-.32v-.87c0-5.05-2.49-7.58-7.47-7.58-4.48,0-10.16,1.52-17.06,4.55l-6.12-13.97c7.15-3.68,16.17-5.52,27.08-5.52,7.87,0,13.96,1.95,18.28,5.85,4.31,3.9,6.47,9.35,6.47,16.35v40.24h-14.68ZM809.83,406.86c2.56,0,4.76-.81,6.58-2.44,1.82-1.62,2.73-3.74,2.73-6.34v-4.77l-4.87.22c-6.97.25-10.45,2.82-10.45,7.69,0,3.76,2,5.63,6.01,5.63Z"/>
      <path class="cls-4" d="M894.86,358.29c6.68,0,11.98,2.8,15.89,8.39s5.88,13.34,5.88,23.23-1.98,17.77-5.93,23.42c-3.95,5.65-9.45,8.48-16.49,8.48-2.27,0-4.3-.24-6.07-.73s-3.35-1.16-4.74-2.03c-1.39-.87-3.01-2.31-4.85-4.33h-1.3l-3.36,6.01h-16.52v-84.26h21.17v19.06c0,2.27-.25,6.19-.76,11.75h.76c2.06-3.18,4.43-5.47,7.12-6.88s5.75-2.11,9.18-2.11ZM887.12,374.91c-2.96,0-5.13,1.03-6.5,3.09s-2.06,5.29-2.06,9.69v2.98c0,5.02.69,8.62,2.06,10.8s3.61,3.28,6.72,3.28c2.49,0,4.4-1.27,5.74-3.82,1.34-2.55,2-6.29,2-11.24,0-9.86-2.65-14.78-7.96-14.78Z"/>
      <path class="cls-4" d="M984.93,420.73h-57.46v-14.08l19.33-19.55c5.52-5.78,9.13-9.72,10.83-11.83s2.88-3.93,3.55-5.44c.67-1.52,1-3.11,1-4.77,0-2.06-.67-3.68-2-4.87s-3.21-1.79-5.63-1.79-5.01.71-7.55,2.14c-2.55,1.43-5.42,3.53-8.64,6.31l-11.75-13.76c4.08-3.65,7.51-6.25,10.29-7.83s5.8-2.77,9.07-3.6c3.27-.83,6.94-1.25,11.02-1.25,5.13,0,9.7.9,13.73,2.71,4.03,1.81,7.15,4.38,9.37,7.72s3.33,7.09,3.33,11.24c0,3.11-.39,5.98-1.16,8.61-.78,2.64-1.98,5.23-3.6,7.77-1.62,2.55-3.78,5.23-6.47,8.04-2.69,2.82-8.42,8.16-17.19,16.03v.54h29.95v17.65Z"/>
      <path class="cls-4" d="M1042.94,420.73l-2.65-7.64h-1.25c-1.77,2.82-4.23,4.97-7.39,6.47-3.16,1.5-6.87,2.25-11.13,2.25-6.75,0-12-1.96-15.76-5.88-3.76-3.92-5.63-9.45-5.63-16.6v-39.97h21.17v33.52c0,4.01.57,7.04,1.71,9.1s3.01,3.09,5.6,3.09c3.65,0,6.25-1.44,7.8-4.31,1.55-2.87,2.33-7.72,2.33-14.54v-26.86h21.17v61.36h-15.98Z"/>
    </g>
  </g>
  <path class="cls-1" d="M415.96,269.13l-49.6,99.34-49.6-99.34,3.99.56c2.59.37,5.08-.09,7.23-1.15l38.38,76.87,38.38-76.87c1.66.81,3.52,1.27,5.46,1.27.59,0,1.18-.03,1.77-.12l3.99-.56Z"/>
</svg>