<?xml version="1.0" encoding="UTF-8"?>
<svg id="Layer_1" data-name="Layer 1" xmlns="http://www.w3.org/2000/svg" viewBox="0 0 717.83 740.19">
  <defs>
    <style>
      .cls-1 {
        fill: #d26a75;
      }

      .cls-1, .cls-2, .cls-3 {
        stroke-width: 0px;
      }

      .cls-2 {
        fill: #fd5d5d;
      }

      .cls-3 {
        fill: #2e2e2e;
      }
    </style>
  </defs>
  <g>
    <circle class="cls-2" cx="582.36" cy="420.45" r="11.8"/>
    <path class="cls-2" d="M602.94,389.4c17.12,11.34,21.82,34.5,10.48,51.62l10.05,6.66c15.01-22.67,8.79-53.32-13.87-68.33h0s-6.66,10.05-6.66,10.05h0Z"/>
    <path class="cls-2" d="M592.39,405.32c8.34,5.53,10.63,16.81,5.11,25.16l10.05,6.66c9.2-13.89,5.39-32.67-8.5-41.87h0s-6.66,10.05-6.66,10.05h0Z"/>
  </g>
  <path class="cls-3" d="M286.83,422.16c8-1.91,15.6-4.94,22.63-8.94,13.47-7.68,24.82-18.91,32.56-32.62l53.82-95.24c2.07-3.68.78-8.34-2.89-10.41l-.68-.38-12.26-6.93c-1.19-.66-2.47-.98-3.76-.98-2.67,0-5.25,1.39-6.65,3.88l-53.82,95.24c-7.68,13.57-20.78,23.43-35.93,27.07l-12.76,3.06-15.07,3.6-15.07-3.6-12.76-3.06c-15.17-3.64-28.26-13.51-35.93-27.07l-53.82-95.24c-2.07-3.68-6.73-4.96-10.41-2.89l-12.26,6.93-.68.38c-3.68,2.07-4.96,6.73-2.89,10.41l53.82,95.24c7.74,13.71,19.09,24.94,32.56,32.62,7.03,4,14.63,7.03,22.63,8.94l19.76,4.72v69.42c-29.16,5.69-53.36,17.02-72.47,33.97-43.27,38.43-48.03,104.23-10.81,149.85.88,1.09,1.77,2.15,2.69,3.22,17.32,20.06,44.62,27.05,69.52,17.77,25.04-9.31,41.22-32.56,41.22-59.23v-118.94c31.13-2.23,67.97,1.43,109.73,11.05l6.73-29.4c-43.99-10.13-82.86-14.13-116.47-12.06v-65.64l19.76-4.72ZM236.93,641.87c0,16.92-11.15,27.09-21.59,30.99-10.33,3.84-25.26,3.42-36.2-9.22-.72-.84-1.43-1.71-2.15-2.57-26.95-33.04-23.68-80.59,7.48-108.25,13.59-12.06,31.19-20.58,52.46-25.48v114.54Z"/>
  <path class="cls-3" d="M630.43,347.91c-40.01-26.51-94.12-15.54-120.63,24.47-23.21,35.03-17.66,80.88,10.93,109.53-26.57,17.76-71.53,35.26-138.3,22.48l-5.87,29.57c85.26,16.32,140.43-10.34,170.69-33.88,38.06,16.82,83.93,4.28,107.67-31.56,26.51-40.01,15.51-94.11-24.49-120.61ZM571.87,476.35c-7.26-1.34-14.37-4.14-20.91-8.47-2.51-1.66-4.83-3.49-6.98-5.47-20.33-18.55-24.7-49.73-9.04-73.37,17.33-26.15,52.69-33.32,78.84-15.99,26.14,17.32,33.33,52.67,16,78.83-13,19.62-36.13,28.55-57.92,24.48Z"/>
  <g>
    <path class="cls-2" d="M209.15,52.14c0,6.81-3.96,12.58-9.57,15.33-2.93,1.45-6.33,2.07-9.87,1.57l-5.45-.76-26.29-3.66c-2.13-.3-3.86-1.65-4.76-3.46-21.93,4.54-42.33,12.18-60.94,22.87-27.82,15.98-37.8,50.97-22.75,79.69l54.46,103.91-12.26,6.93-54.67-104.31c-18.57-35.43-6.19-78.66,28.2-98.42,20.54-11.8,43.07-20.1,67.27-24.88v-1.02c0-3.16,2.33-5.85,5.45-6.27l31.73-4.44c.8-.12,1.61-.16,2.39-.16,9.24,0,17.04,7.52,17.04,17.08Z"/>
    <path class="cls-2" d="M446.93,170.25l-54.67,104.31-12.26-6.93,54.46-103.91c15.05-28.72,5.06-63.71-22.75-79.69-18.63-10.69-39.01-18.33-60.94-22.87-.9,1.81-2.65,3.16-4.78,3.46l-26.27,3.66-5.45.76c-.8.12-1.61.16-2.41.16-2.65,0-5.19-.62-7.46-1.73-5.61-2.75-9.57-8.52-9.57-15.33,0-10.37,9.16-18.35,19.43-16.92l31.71,4.44c3.14.42,5.47,3.12,5.47,6.27v1.02c24.2,4.78,46.73,13.08,67.27,24.88,34.39,19.76,46.77,62.99,28.2,98.42Z"/>
  </g>
  <path class="cls-1" d="M319.73,68.28l-67.73,135.66-67.73-135.66,5.45.76c3.54.5,6.93-.12,9.87-1.57l52.42,104.97,52.42-104.97c2.27,1.11,4.8,1.73,7.46,1.73.8,0,1.61-.04,2.41-.16l5.45-.76Z"/>
</svg>