<?xml version="1.0" encoding="UTF-8"?>
<svg id="Layer_1" data-name="Layer 1" xmlns="http://www.w3.org/2000/svg" viewBox="0 0 1400 1000">
  <defs>
    <style>
      .cls-1 {
        fill: #d26a75;
      }

      .cls-1, .cls-2, .cls-3 {
        stroke-width: 0px;
      }

      .cls-2 {
        fill: #fd5d5d;
      }

      .cls-3 {
        fill: #2e2e2e;
      }
    </style>
  </defs>
  <g>
    <circle class="cls-2" cx="1267.12" cy="612.31" r="11.69"/>
    <path class="cls-2" d="M1267.12,575.39c20.36,0,36.92,16.56,36.92,36.92h11.95c0-26.95-21.92-48.87-48.87-48.87h0v11.95h0Z"/>
    <path class="cls-2" d="M1267.12,594.32c9.92,0,17.99,8.07,17.99,17.99h11.95c0-16.51-13.43-29.95-29.95-29.95h0v11.95h0Z"/>
  </g>
  <path class="cls-3" d="M1267.13,526.05c-47.57,0-86.28,38.69-86.28,86.26,0,41.66,29.68,76.5,68.99,84.53-12.23,29.23-39.8,68.29-101.98,94.29-123.53,49.78-207.17,17.35-358.97-41.54-101.18-39.25-227.13-88.07-410.13-129.63-43.61-10.04-82.14-14-115.45-11.95v-65.06l19.58-4.68c7.93-1.89,15.46-4.9,22.43-8.87,13.35-7.61,24.6-18.75,32.27-32.33l53.35-94.41c2.05-3.65.78-8.27-2.87-10.32l-.68-.38-12.15-6.87c-1.18-.66-2.45-.98-3.73-.98-2.65,0-5.2,1.37-6.59,3.84l-53.35,94.41c-7.61,13.45-20.6,23.23-35.62,26.83l-12.65,3.03-14.94,3.57-14.94-3.57-12.65-3.03c-15.04-3.61-28.01-13.39-35.62-26.83l-53.35-94.41c-2.05-3.65-6.67-4.92-10.32-2.87l-12.15,6.87-.68.38c-3.65,2.05-4.92,6.67-2.87,10.32l53.35,94.41c7.67,13.59,18.93,24.72,32.27,32.33,6.97,3.96,14.5,6.97,22.43,8.87l19.58,4.68v68.81c-28.91,5.64-52.89,16.87-71.84,33.67-42.89,38.09-47.61,103.31-10.72,148.54.88,1.08,1.75,2.13,2.67,3.19,17.17,19.88,44.23,26.81,68.91,17.61,24.82-9.22,40.86-32.27,40.86-58.71v-117.9c30.86-2.21,67.38,1.41,108.77,10.96,180.93,41.06,305.72,89.47,406,128.36,100.74,39.07,175.29,67.99,252.65,67.99,40.64,0,82.08-7.99,128.45-26.68,79.39-33.19,110.39-85.42,122.5-121.44,40.66-6.93,71.7-42.41,71.7-85.03,0-47.57-38.71-86.26-86.26-86.26ZM233.43,756.05c0,16.77-11.06,26.85-21.4,30.72-10.24,3.8-25.04,3.39-35.88-9.14-.72-.84-1.41-1.69-2.13-2.55-26.71-32.75-23.47-79.89,7.41-107.3,13.47-11.95,30.92-20.4,52-25.26v113.53ZM1289.04,664.25c-6.73,2.87-14.14,4.44-21.91,4.44-2.99,0-5.9-.24-8.77-.7-26.95-4.2-47.63-27.57-47.63-55.68,0-31.1,25.3-56.38,56.4-56.38s56.38,25.28,56.38,56.38c0,23.33-14.22,43.37-34.46,51.94Z"/>
  <g>
    <path class="cls-2" d="M205.9,171.48c0,6.75-3.92,12.47-9.48,15.2-2.91,1.43-6.28,2.05-9.78,1.55l-5.4-.76-26.06-3.63c-2.11-.3-3.82-1.63-4.72-3.43-21.73,4.5-41.95,12.07-60.4,22.67-27.57,15.84-37.47,50.52-22.55,78.99l53.99,102.99-12.15,6.87-54.19-103.39c-18.41-35.12-6.14-77.97,27.95-97.56,20.36-11.69,42.69-19.92,66.68-24.66v-1.02c0-3.13,2.31-5.8,5.4-6.22l31.46-4.4c.8-.12,1.59-.16,2.37-.16,9.16,0,16.89,7.45,16.89,16.93Z"/>
    <path class="cls-2" d="M441.59,288.56l-54.19,103.39-12.15-6.87,53.99-102.99c14.92-28.47,5.02-63.15-22.55-78.99-18.47-10.6-38.67-18.17-60.4-22.67-.9,1.79-2.63,3.13-4.74,3.43l-26.04,3.63-5.4.76c-.8.12-1.59.16-2.39.16-2.63,0-5.14-.62-7.39-1.71-5.56-2.73-9.48-8.45-9.48-15.2,0-10.28,9.08-18.19,19.26-16.77l31.44,4.4c3.11.42,5.42,3.09,5.42,6.22v1.02c23.99,4.74,46.32,12.97,66.68,24.66,34.09,19.58,46.36,62.43,27.95,97.56Z"/>
  </g>
  <path class="cls-1" d="M315.51,187.48l-67.14,134.47-67.14-134.47,5.4.76c3.51.5,6.87-.12,9.78-1.55l51.96,104.05,51.96-104.05c2.25,1.1,4.76,1.71,7.39,1.71.8,0,1.59-.04,2.39-.16l5.4-.76Z"/>
</svg>