<?xml version="1.0" encoding="UTF-8"?>
<svg id="Layer_1" data-name="Layer 1" xmlns="http://www.w3.org/2000/svg" viewBox="0 0 717.83 740.19">
  <defs>
    <style>
      .cls-1 {
        fill: #fd5d5d;
      }

      .cls-1, .cls-2 {
        stroke-width: 0px;
      }

      .cls-2 {
        fill: #fff;
      }
    </style>
  </defs>
  <circle class="cls-1" cx="358.91" cy="370.1" r="334.45"/>
  <g>
    <g>
      <circle class="cls-2" cx="555.12" cy="426.78" r="9.25"/>
      <path class="cls-2" d="M571.26,402.42c13.43,8.9,17.12,27.07,8.22,40.5l7.89,5.22c11.78-17.78,6.9-41.83-10.88-53.61h0s-5.22,7.89-5.22,7.89h0Z"/>
      <path class="cls-2" d="M562.99,414.91c6.55,4.34,8.34,13.19,4.01,19.74l7.89,5.22c7.22-10.9,4.23-25.63-6.67-32.85h0s-5.22,7.89-5.22,7.89h0Z"/>
    </g>
    <path class="cls-2" d="M323.26,428.12c6.28-1.5,12.24-3.88,17.75-7.02,10.56-6.02,19.47-14.84,25.54-25.59l42.23-74.72c1.62-2.89.61-6.54-2.27-8.17l-.54-.3-9.62-5.44c-.93-.52-1.94-.77-2.95-.77-2.1,0-4.12,1.09-5.22,3.04l-42.23,74.72c-6.02,10.64-16.3,18.38-28.19,21.24l-10.01,2.4-11.83,2.82-11.83-2.82-10.01-2.4c-11.9-2.85-22.17-10.6-28.19-21.24l-42.23-74.72c-1.62-2.89-5.28-3.89-8.17-2.27l-9.62,5.44-.54.3c-2.89,1.62-3.89,5.28-2.27,8.17l42.23,74.72c6.07,10.75,14.98,19.57,25.54,25.59,5.52,3.14,11.48,5.52,17.75,7.02l15.5,3.71v54.46c-22.88,4.46-41.86,13.36-56.86,26.65-33.95,30.15-37.68,81.77-8.48,117.56.69.85,1.39,1.69,2.11,2.52,13.59,15.74,35,21.22,54.54,13.94,19.65-7.3,32.34-25.54,32.34-46.47v-93.31c24.42-1.75,53.33,1.12,86.09,8.67l5.28-23.07c-34.52-7.95-65.01-11.08-91.37-9.46v-51.5l15.5-3.71ZM284.11,600.49c0,13.28-8.75,21.25-16.93,24.31-8.1,3.01-19.82,2.68-28.4-7.24-.57-.66-1.12-1.34-1.69-2.02-21.14-25.92-18.57-63.23,5.87-84.92,10.66-9.46,24.47-16.15,41.15-19.99v89.86Z"/>
    <path class="cls-2" d="M592.84,369.87c-31.39-20.8-73.84-12.19-94.64,19.2-18.21,27.49-13.85,63.45,8.57,85.93-20.85,13.94-56.11,27.66-108.5,17.64l-4.61,23.2c66.89,12.8,110.17-8.11,133.91-26.58,29.86,13.2,65.85,3.36,84.47-24.76,20.79-31.39,12.17-73.84-19.21-94.62ZM546.89,470.64c-5.7-1.05-11.27-3.25-16.4-6.65-1.97-1.31-3.79-2.74-5.48-4.29-15.95-14.56-19.38-39.01-7.09-57.56,13.59-20.52,41.34-26.14,61.86-12.55,20.51,13.58,26.15,41.32,12.56,61.84-10.2,15.39-28.34,22.4-45.44,19.2Z"/>
    <g>
      <path class="cls-2" d="M262.32,137.83c0,5.35-3.11,9.87-7.51,12.03-2.3,1.14-4.97,1.62-7.74,1.23l-4.27-.6-20.62-2.87c-1.67-.24-3.03-1.29-3.74-2.71-17.2,3.56-33.21,9.56-47.81,17.94-21.82,12.54-29.66,39.99-17.85,62.52l42.73,81.52-9.62,5.44-42.89-81.83c-14.57-27.8-4.86-61.71,22.12-77.21,16.11-9.26,33.79-15.77,52.77-19.52v-.8c0-2.48,1.83-4.59,4.27-4.92l24.9-3.48c.63-.09,1.26-.13,1.88-.13,7.25,0,13.37,5.9,13.37,13.4Z"/>
      <path class="cls-2" d="M448.87,230.49l-42.89,81.83-9.62-5.44,42.73-81.52c11.81-22.53,3.97-49.98-17.85-62.52-14.62-8.39-30.6-14.38-47.81-17.94-.71,1.42-2.08,2.48-3.75,2.71l-20.61,2.87-4.27.6c-.63.09-1.26.13-1.89.13-2.08,0-4.07-.49-5.85-1.36-4.4-2.16-7.51-6.69-7.51-12.03,0-8.14,7.19-14.4,15.25-13.28l24.88,3.48c2.46.33,4.29,2.44,4.29,4.92v.8c18.98,3.75,36.66,10.26,52.77,19.52,26.98,15.5,36.69,49.42,22.12,77.21Z"/>
    </g>
    <path class="cls-2" d="M349.08,150.49l-53.14,106.43-53.14-106.43,4.27.6c2.78.39,5.44-.09,7.74-1.23l41.12,82.35,41.12-82.35c1.78.87,3.77,1.36,5.85,1.36.63,0,1.26-.03,1.89-.13l4.27-.6Z"/>
  </g>
</svg>