<?xml version="1.0" encoding="iso-8859-1"?>
<!-- Generator: Adobe Illustrator 27.5.0, SVG Export Plug-In . SVG Version: 6.00 Build 0)  -->
<svg version="1.1" xmlns="http://www.w3.org/2000/svg" xmlns:xlink="http://www.w3.org/1999/xlink" x="0px" y="0px" width="3000px"
	 height="2000px" viewBox="0 0 3000 2000" enable-background="new 0 0 3000 2000" xml:space="preserve">
<g id="Illustration">
	<g>
		<g>
			<g>
				<circle fill="#FE8A71" cx="2249.926" cy="1357.886" r="17.691"/>
			</g>
			<g>
				<path fill="#FE8A71" d="M2249.318,1361.7c-2.106-0.336-3.542-2.316-3.206-4.422l25.989-163.057
					c0.336-2.106,2.316-3.542,4.422-3.206c2.106,0.336,3.542,2.316,3.206,4.422l-25.989,163.057
					C2253.404,1360.6,2251.424,1362.036,2249.318,1361.7z"/>
			</g>
			<g>
				<path fill="#9497CA" d="M2242.238,1406.125c-27.951-4.455-47.067-30.819-42.613-58.771
					c2.528-15.863,12.388-29.646,26.515-37.203l30.73-192.809l61.232,9.759l-30.73,192.809
					c11.078,11.574,16.164,27.739,13.636,43.602C2296.553,1391.465,2270.188,1410.58,2242.238,1406.125z M2262.482,1125.082
					l-30.212,189.555l-1.572,0.772c-13.001,6.387-22.122,18.728-24.398,33.009c-3.868,24.271,12.731,47.164,37.002,51.032
					c24.27,3.868,47.163-12.73,51.031-37.001c2.276-14.282-2.556-28.846-12.927-38.958l-1.254-1.222l30.212-189.555
					L2262.482,1125.082z"/>
			</g>
		</g>
		<path fill="#3A4483" d="M2106.967,1402.355H855.415c-25.831,0-46.772-20.94-46.772-46.772V491.109
			c0-25.831,20.94-46.772,46.772-46.772h1251.552c25.832,0,46.772,20.94,46.772,46.772v864.474
			C2153.739,1381.414,2132.799,1402.355,2106.967,1402.355z"/>
		<path fill="#B5B8DB" d="M2088.071,537.884v770.928c0,25.829-20.936,46.765-46.777,46.765H921.084
			c-25.828,0-46.777-20.936-46.777-46.765V537.884c0-25.841,20.949-46.777,46.777-46.777h1120.209
			C2067.134,491.107,2088.071,512.043,2088.071,537.884z"/>
		<g opacity="0.49">
			<path fill="#FFFFFF" d="M1794.714,1178.037c-16.551,52.941-48.507,115.021-97.583,175.1h-114.88
				c12.439-60.952,34.887-144.909,72.693-211.846c20.12-35.612,44.582-66.406,74.202-86.366
				C1800.873,1006.6,1826.951,1075.006,1794.714,1178.037z"/>
			<g>
				
					<rect x="1546.16" y="1213.346" transform="matrix(0.4402 -0.8979 0.8979 0.4402 -139.0194 2206.7188)" fill="#B5B8DB" width="308.018" height="3"/>
			</g>
			<path fill="#DDE0F2" d="M1654.944,1141.291c-2.308,61.965-17.417,135.993-51.043,211.846h-84.836
				c-15.699-92.505-31.486-255.904,31.056-343.498C1606.175,931.129,1659.901,1008.546,1654.944,1141.291z"/>
			<g>
				
					<rect x="1408.279" y="1183.226" transform="matrix(0.0976 -0.9952 0.9952 0.0976 244.4163 2639.0195)" fill="#B5B8DB" width="338.444" height="3.001"/>
			</g>
			<path fill="#DDE0F2" d="M1934.088,1190.63c-0.805,4.455-1.952,9.198-3.462,14.237c-16.592,55.316-64.253,106.178-117.644,148.271
				h-175.771c46.742-79.845,104.95-139.066,157.502-175.1c69.694-47.795,129.458-54.82,139.375-15.095
				C1935.974,1170.476,1936.067,1179.688,1934.088,1190.63z"/>
			<g>
				
					<rect x="1673.585" y="1262.189" transform="matrix(0.7267 -0.687 0.687 0.7267 -375.1105 1584.5391)" fill="#B5B8DB" width="260.447" height="2.999"/>
			</g>
		</g>
		<g opacity="0.49">
			<path fill="#DDE0F2" d="M1098.735,1105.923c23.598,75.483,69.16,163.993,139.132,249.654h163.793
				c-17.735-86.904-49.741-206.608-103.644-302.045c-28.687-50.775-63.564-94.681-105.796-123.139
				C1089.953,861.492,1052.772,959.024,1098.735,1105.923z"/>
			<g>
				
					<rect x="1232.034" y="938.823" transform="matrix(0.8979 -0.4401 0.4401 0.8979 -383.9395 661.1243)" fill="#B5B8DB" width="3" height="439.165"/>
			</g>
			<path fill="#DDE0F2" d="M1298.016,1053.532c3.291,88.348,24.833,193.896,72.776,302.045h120.958
				c22.384-131.891,44.892-364.863-44.279-489.752C1367.549,753.888,1290.947,864.266,1298.016,1053.532z"/>
			<g>
				
					<rect x="1406.932" y="874.188" transform="matrix(0.9952 -0.0978 0.0978 0.9952 -102.3093 143.0442)" fill="#B5B8DB" width="3" height="482.546"/>
			</g>
			<path fill="#FFFFFF" d="M900.018,1123.878c1.148,6.352,2.784,13.115,4.936,20.298c23.656,78.869,91.61,151.386,167.734,211.401
				h250.61c-66.644-113.841-149.635-198.277-224.563-249.654c-99.368-68.146-184.579-78.161-198.717-21.523
				C897.33,1095.143,897.196,1108.277,900.018,1123.878z"/>
			<g>
				
					<rect x="1084.269" y="1042.374" transform="matrix(0.6869 -0.7268 0.7268 0.6869 -552.5296 1173.6115)" fill="#B5B8DB" width="2.999" height="371.339"/>
			</g>
		</g>
		<path fill="#9497CA" d="M2221.375,1604.764H733.84c-19.932,0-32.85-19.05-23.836-35.152l86.211-153.999
			c4.553-8.134,13.767-13.259,23.836-13.259h1315.113c10.069,0,19.282,5.125,23.836,13.259l86.211,153.999
			C2254.224,1585.714,2241.307,1604.764,2221.375,1604.764z"/>
		<path fill="#3A4483" d="M728.54,1604.764l18.561,22.808c1.959,2.407,4.897,3.804,8,3.804H2209.81c3.218,0,6.225-1.597,8.027-4.262
			l17.515-25.903L728.54,1604.764z"/>
		<g>
			<polygon fill="none" points="1356.539,1428.16 1352.504,1463.423 1360.584,1463.423 1364.825,1428.16 			"/>
			<polygon fill="none" points="1669.652,1428.16 1673.893,1463.423 1681.669,1463.423 1677.634,1428.16 			"/>
			<polygon fill="none" points="1278.699,1428.16 1274.663,1463.423 1282.744,1463.423 1286.984,1428.16 			"/>
			<polygon fill="none" points="1592.116,1428.16 1596.356,1463.423 1604.133,1463.423 1600.098,1428.16 			"/>
			<polygon fill="none" points="1747.189,1428.16 1751.429,1463.423 1759.206,1463.423 1755.171,1428.16 			"/>
			<polygon fill="none" points="1434.379,1428.16 1430.344,1463.423 1437.17,1463.423 1441.411,1428.16 			"/>
			<polygon fill="none" points="1513.804,1428.16 1518.045,1463.423 1526.596,1463.423 1522.561,1428.16 			"/>
			<polygon fill="none" points="1200.858,1428.16 1196.823,1463.423 1204.903,1463.423 1209.144,1428.16 			"/>
			<polygon fill="none" points="967.337,1428.16 963.302,1463.423 971.382,1463.423 975.623,1428.16 			"/>
			<polygon fill="none" points="1045.177,1428.16 1041.142,1463.423 1049.223,1463.423 1053.463,1428.16 			"/>
			<polygon fill="none" points="1902.262,1428.16 1906.502,1463.423 1914.279,1463.423 1910.244,1428.16 			"/>
			<polygon fill="none" points="1979.798,1428.16 1984.039,1463.423 1992.119,1463.423 1988.084,1428.16 			"/>
			<polygon fill="none" points="1824.725,1428.16 1828.966,1463.423 1836.742,1463.423 1832.707,1428.16 			"/>
			<polygon fill="none" points="1123.018,1428.16 1118.983,1463.423 1127.063,1463.423 1131.304,1428.16 			"/>
			<polygon fill="#B5B8DB" points="1441.411,1428.16 1437.17,1463.423 1518.045,1463.423 1513.804,1428.16 			"/>
			<polygon fill="#B5B8DB" points="1522.561,1428.16 1526.596,1463.423 1596.356,1463.423 1592.116,1428.16 			"/>
			<polygon fill="#B5B8DB" points="1600.098,1428.16 1604.133,1463.423 1673.893,1463.423 1669.652,1428.16 			"/>
			<polygon fill="#B5B8DB" points="1677.634,1428.16 1681.669,1463.423 1751.429,1463.423 1747.189,1428.16 			"/>
			<polygon fill="#B5B8DB" points="1755.171,1428.16 1759.206,1463.423 1828.966,1463.423 1824.725,1428.16 			"/>
			<polygon fill="#B5B8DB" points="1832.707,1428.16 1836.742,1463.423 1906.502,1463.423 1902.262,1428.16 			"/>
			<polygon fill="#B5B8DB" points="1910.244,1428.16 1914.279,1463.423 1984.039,1463.423 1979.798,1428.16 			"/>
			<polygon fill="#B5B8DB" points="1988.084,1428.16 1992.119,1463.423 2059.703,1463.423 2046.807,1428.16 			"/>
			<polygon fill="#B5B8DB" points="1364.825,1428.16 1360.584,1463.423 1430.344,1463.423 1434.379,1428.16 			"/>
			<polygon fill="#B5B8DB" points="1286.984,1428.16 1282.744,1463.423 1352.504,1463.423 1356.539,1428.16 			"/>
			<polygon fill="#B5B8DB" points="1209.144,1428.16 1204.903,1463.423 1274.663,1463.423 1278.699,1428.16 			"/>
			<polygon fill="#B5B8DB" points="1131.304,1428.16 1127.063,1463.423 1196.823,1463.423 1200.858,1428.16 			"/>
			<polygon fill="#B5B8DB" points="1053.463,1428.16 1049.223,1463.423 1118.983,1463.423 1123.018,1428.16 			"/>
			<polygon fill="#B5B8DB" points="975.623,1428.16 971.382,1463.423 1041.142,1463.423 1045.177,1428.16 			"/>
			<polygon fill="#B5B8DB" points="908.408,1428.16 895.512,1463.423 963.302,1463.423 967.337,1428.16 			"/>
		</g>
		<g>
			<polygon fill="none" points="1353.617,1470.44 1349.484,1505.703 1357.759,1505.703 1362.102,1470.44 			"/>
			<polygon fill="none" points="1674.288,1470.44 1678.631,1505.703 1686.595,1505.703 1682.462,1470.44 			"/>
			<polygon fill="none" points="1273.898,1470.44 1269.765,1505.703 1278.04,1505.703 1282.383,1470.44 			"/>
			<polygon fill="none" points="1594.88,1470.44 1599.223,1505.703 1607.187,1505.703 1603.054,1470.44 			"/>
			<polygon fill="none" points="1753.695,1470.44 1758.039,1505.703 1766.003,1505.703 1761.87,1470.44 			"/>
			<polygon fill="none" points="1433.336,1470.44 1429.203,1505.703 1436.194,1505.703 1440.537,1470.44 			"/>
			<polygon fill="none" points="1514.678,1470.44 1519.021,1505.703 1527.779,1505.703 1523.646,1470.44 			"/>
			<polygon fill="none" points="1194.178,1470.44 1190.046,1505.703 1198.321,1505.703 1202.664,1470.44 			"/>
			<polygon fill="none" points="955.021,1470.44 950.888,1505.703 959.163,1505.703 963.506,1470.44 			"/>
			<polygon fill="none" points="1034.74,1470.44 1030.607,1505.703 1038.883,1505.703 1043.226,1470.44 			"/>
			<polygon fill="none" points="1912.511,1470.44 1916.854,1505.703 1924.819,1505.703 1920.686,1470.44 			"/>
			<polygon fill="none" points="1991.92,1470.44 1996.263,1505.703 2004.538,1505.703 2000.405,1470.44 			"/>
			<polygon fill="none" points="1833.104,1470.44 1837.447,1505.703 1845.411,1505.703 1841.278,1470.44 			"/>
			<polygon fill="none" points="1114.459,1470.44 1110.327,1505.703 1118.602,1505.703 1122.945,1470.44 			"/>
			<polygon fill="#B5B8DB" points="1440.537,1470.44 1436.194,1505.703 1519.021,1505.703 1514.678,1470.44 			"/>
			<polygon fill="#B5B8DB" points="1523.646,1470.44 1527.779,1505.703 1599.223,1505.703 1594.88,1470.44 			"/>
			<polygon fill="#B5B8DB" points="1603.054,1470.44 1607.187,1505.703 1678.631,1505.703 1674.288,1470.44 			"/>
			<polygon fill="#B5B8DB" points="1682.462,1470.44 1686.595,1505.703 1758.039,1505.703 1753.695,1470.44 			"/>
			<polygon fill="#B5B8DB" points="1761.87,1470.44 1766.003,1505.703 1837.447,1505.703 1833.104,1470.44 			"/>
			<polygon fill="#B5B8DB" points="1841.278,1470.44 1845.411,1505.703 1916.854,1505.703 1912.511,1470.44 			"/>
			<polygon fill="#B5B8DB" points="1920.686,1470.44 1924.819,1505.703 1996.263,1505.703 1991.92,1470.44 			"/>
			<polygon fill="#B5B8DB" points="2000.405,1470.44 2004.538,1505.703 2073.753,1505.703 2060.546,1470.44 			"/>
			<polygon fill="#B5B8DB" points="1362.102,1470.44 1357.759,1505.703 1429.203,1505.703 1433.336,1470.44 			"/>
			<polygon fill="#B5B8DB" points="1282.383,1470.44 1278.04,1505.703 1349.484,1505.703 1353.617,1470.44 			"/>
			<polygon fill="#B5B8DB" points="1202.664,1470.44 1198.321,1505.703 1269.765,1505.703 1273.898,1470.44 			"/>
			<polygon fill="#B5B8DB" points="1122.945,1470.44 1118.602,1505.703 1190.046,1505.703 1194.178,1470.44 			"/>
			<polygon fill="#B5B8DB" points="1043.226,1470.44 1038.883,1505.703 1110.327,1505.703 1114.459,1470.44 			"/>
			<polygon fill="#B5B8DB" points="963.506,1470.44 959.163,1505.703 1030.607,1505.703 1034.74,1470.44 			"/>
			<polygon fill="#B5B8DB" points="894.669,1470.44 881.462,1505.703 950.888,1505.703 955.021,1470.44 			"/>
		</g>
		<g>
			<polygon fill="none" points="1350.654,1512.72 1346.423,1547.983 1354.896,1547.983 1359.342,1512.72 			"/>
			<polygon fill="none" points="1678.987,1512.72 1683.434,1547.983 1691.588,1547.983 1687.357,1512.72 			"/>
			<polygon fill="none" points="1269.03,1512.72 1264.799,1547.983 1273.272,1547.983 1277.719,1512.72 			"/>
			<polygon fill="none" points="1597.682,1512.72 1602.129,1547.983 1610.283,1547.983 1606.052,1512.72 			"/>
			<polygon fill="none" points="1760.292,1512.72 1764.739,1547.983 1772.894,1547.983 1768.662,1512.72 			"/>
			<polygon fill="none" points="1432.278,1512.72 1428.047,1547.983 1435.204,1547.983 1439.651,1512.72 			"/>
			<polygon fill="none" points="1515.564,1512.72 1520.01,1547.983 1528.978,1547.983 1524.746,1512.72 			"/>
			<polygon fill="none" points="1187.406,1512.72 1183.175,1547.983 1191.648,1547.983 1196.094,1512.72 			"/>
			<polygon fill="none" points="942.534,1512.72 938.303,1547.983 946.776,1547.983 951.222,1512.72 			"/>
			<polygon fill="none" points="1024.158,1512.72 1019.927,1547.983 1028.4,1547.983 1032.846,1512.72 			"/>
			<polygon fill="none" points="1922.903,1512.72 1927.35,1547.983 1935.505,1547.983 1931.273,1512.72 			"/>
			<polygon fill="none" points="2004.209,1512.72 2008.656,1547.983 2017.129,1547.983 2012.897,1512.72 			"/>
			<polygon fill="none" points="1841.598,1512.72 1846.045,1547.983 1854.199,1547.983 1849.968,1512.72 			"/>
			<polygon fill="none" points="1105.782,1512.72 1101.551,1547.983 1110.024,1547.983 1114.47,1512.72 			"/>
			<polygon fill="#B5B8DB" points="1439.651,1512.72 1435.204,1547.983 1520.01,1547.983 1515.564,1512.72 			"/>
			<polygon fill="#B5B8DB" points="1524.746,1512.72 1528.978,1547.983 1602.129,1547.983 1597.682,1512.72 			"/>
			<polygon fill="#B5B8DB" points="1606.052,1512.72 1610.283,1547.983 1683.434,1547.983 1678.987,1512.72 			"/>
			<polygon fill="#B5B8DB" points="1687.357,1512.72 1691.588,1547.983 1764.739,1547.983 1760.292,1512.72 			"/>
			<polygon fill="#B5B8DB" points="1768.662,1512.72 1772.894,1547.983 1846.045,1547.983 1841.598,1512.72 			"/>
			<polygon fill="#B5B8DB" points="1849.968,1512.72 1854.199,1547.983 1927.35,1547.983 1922.903,1512.72 			"/>
			<polygon fill="#B5B8DB" points="1931.273,1512.72 1935.505,1547.983 2008.656,1547.983 2004.209,1512.72 			"/>
			<polygon fill="#B5B8DB" points="2012.897,1512.72 2017.129,1547.983 2087.997,1547.983 2074.475,1512.72 			"/>
			<polygon fill="#B5B8DB" points="1359.342,1512.72 1354.896,1547.983 1428.047,1547.983 1432.278,1512.72 			"/>
			<polygon fill="#B5B8DB" points="1277.719,1512.72 1273.272,1547.983 1346.423,1547.983 1350.654,1512.72 			"/>
			<polygon fill="#B5B8DB" points="1196.094,1512.72 1191.648,1547.983 1264.799,1547.983 1269.03,1512.72 			"/>
			<polygon fill="#B5B8DB" points="1114.47,1512.72 1110.024,1547.983 1183.175,1547.983 1187.406,1512.72 			"/>
			<polygon fill="#B5B8DB" points="1032.846,1512.72 1028.4,1547.983 1101.551,1547.983 1105.782,1512.72 			"/>
			<polygon fill="#B5B8DB" points="951.222,1512.72 946.776,1547.983 1019.927,1547.983 1024.158,1512.72 			"/>
			<polygon fill="#B5B8DB" points="880.74,1512.72 867.217,1547.983 938.303,1547.983 942.534,1512.72 			"/>
		</g>
		<g>
			<path fill="#E5E7FF" d="M929.473,1321.845H573.017c-8.444,0-15.29-6.845-15.29-15.29V1204.62c0-8.444,6.845-15.29,15.29-15.29
				h356.456c8.444,0,15.29,6.845,15.29,15.29v101.936C944.762,1315,937.917,1321.845,929.473,1321.845z"/>
			<g>
				<path fill="#B5B8DB" d="M918.855,1235.759H697.523c-0.829,0-1.5-0.672-1.5-1.5s0.671-1.5,1.5-1.5h221.332
					c0.829,0,1.5,0.672,1.5,1.5S919.683,1235.759,918.855,1235.759z"/>
			</g>
			<g>
				<path fill="#B5B8DB" d="M882.755,1286.654H697.523c-0.829,0-1.5-0.672-1.5-1.5s0.671-1.5,1.5-1.5h185.232
					c0.829,0,1.5,0.672,1.5,1.5S883.584,1286.654,882.755,1286.654z"/>
			</g>
			<g>
				<path fill="#B5B8DB" d="M918.855,1261.206H697.523c-0.829,0-1.5-0.672-1.5-1.5s0.671-1.5,1.5-1.5h221.332
					c0.829,0,1.5,0.672,1.5,1.5S919.683,1261.206,918.855,1261.206z"/>
			</g>
			<g>
				<path fill="#FE8A71" d="M672.856,1255.588c0,15.745-7.781,29.677-19.706,38.152c-7.64,5.43-16.984,8.624-27.07,8.624
					s-19.43-3.193-27.07-8.624c-11.925-8.475-19.706-22.407-19.706-38.152c0-25.83,20.945-46.776,46.776-46.776
					C651.91,1208.812,672.856,1229.758,672.856,1255.588z"/>
				<circle fill="#FFFFFF" cx="626.08" cy="1250.076" r="17.255"/>
				<path fill="#FFFFFF" d="M653.15,1289.374v4.366c-7.64,5.43-16.984,8.624-27.07,8.624s-19.43-3.193-27.07-8.624v-4.366
					c0-11.723,9.499-21.222,21.222-21.222h11.695C643.65,1268.152,653.15,1277.651,653.15,1289.374z"/>
			</g>
		</g>
		<g>
			<path fill="#E5E7FF" d="M2592.639,761.487h-496.815c-8.444,0-15.29-6.845-15.29-15.29V596.204c0-8.444,6.845-15.29,15.29-15.29
				h496.815c8.444,0,15.29,6.845,15.29,15.29v149.993C2607.929,754.641,2601.083,761.487,2592.639,761.487z"/>
			<g>
				<path fill="#B5B8DB" d="M2572.626,643.638h-301.599c-0.828,0-1.5-0.671-1.5-1.5s0.672-1.5,1.5-1.5h301.599
					c0.828,0,1.5,0.671,1.5,1.5S2573.454,643.638,2572.626,643.638z"/>
			</g>
			<g>
				<path fill="#B5B8DB" d="M2523.434,712.989h-252.407c-0.828,0-1.5-0.671-1.5-1.5s0.672-1.5,1.5-1.5h252.407
					c0.828,0,1.5,0.671,1.5,1.5S2524.262,712.989,2523.434,712.989z"/>
			</g>
			<g>
				<path fill="#B5B8DB" d="M2572.626,678.313h-301.599c-0.828,0-1.5-0.671-1.5-1.5s0.672-1.5,1.5-1.5h301.599
					c0.828,0,1.5,0.671,1.5,1.5S2573.454,678.313,2572.626,678.313z"/>
			</g>
			<g>
				<path fill="#3A4483" d="M2237.414,671.201c0,21.454-10.603,40.439-26.852,51.988c-10.41,7.399-23.144,11.751-36.886,11.751
					c-13.743,0-26.476-4.352-36.886-11.751c-16.249-11.549-26.852-30.534-26.852-51.988c0-35.197,28.541-63.739,63.739-63.739
					C2208.873,607.462,2237.414,636.003,2237.414,671.201z"/>
				<circle fill="#FFFFFF" cx="2173.676" cy="663.691" r="23.512"/>
				<path fill="#FFFFFF" d="M2210.562,717.24v5.949c-10.41,7.399-23.144,11.751-36.886,11.751c-13.743,0-26.476-4.352-36.886-11.751
					v-5.949c0-15.974,12.944-28.918,28.918-28.918h15.937C2197.618,688.322,2210.562,701.266,2210.562,717.24z"/>
			</g>
		</g>
		<g>
			
				<rect x="1948.432" y="1115.46" transform="matrix(-1.836970e-16 1 -1 -1.836970e-16 3118.0764 -801.2657)" fill="#FFFFFD" width="22.477" height="85.89"/>
			<rect x="1948.432" y="1115.46" fill="#FFFFFD" width="22.477" height="85.89"/>
		</g>
		<g>
			<g>
				<polygon fill="#FE8A71" points="741.802,622.192 726.802,622.192 726.802,574.081 618.909,574.081 618.909,622.192 
					603.909,622.192 603.909,559.081 741.802,559.081 				"/>
			</g>
			<rect x="550.485" y="602.86" fill="#FE8A71" width="244.741" height="173.407"/>
			<g>
				
					<rect x="659.708" y="639.324" transform="matrix(-1.836970e-16 1 -1 -1.836970e-16 1362.4194 16.7082)" fill="#FFFFFF" width="26.296" height="100.48"/>
				<rect x="659.708" y="639.324" fill="#FFFFFF" width="26.296" height="100.48"/>
			</g>
		</g>
		<g>
			<path fill="#FFFFFF" d="M978.512,672.925h-30.011c-0.829,0-1.5-0.671-1.5-1.5v-40.833h-40.833c-0.829,0-1.5-0.671-1.5-1.5v-30.01
				c0-0.829,0.671-1.5,1.5-1.5h40.833v-40.833c0-0.829,0.671-1.5,1.5-1.5h30.011c0.829,0,1.5,0.671,1.5,1.5v40.833h40.833
				c0.829,0,1.5,0.671,1.5,1.5v30.01c0,0.829-0.671,1.5-1.5,1.5h-40.833v40.833C980.012,672.253,979.341,672.925,978.512,672.925z
				 M950.001,669.925h27.011v-40.833c0-0.829,0.671-1.5,1.5-1.5h40.833v-27.01h-40.833c-0.829,0-1.5-0.671-1.5-1.5v-40.833h-27.011
				v40.833c0,0.829-0.671,1.5-1.5,1.5h-40.833v27.01h40.833c0.829,0,1.5,0.671,1.5,1.5V669.925z"/>
		</g>
		<g>
			
				<rect x="1854.599" y="676.813" transform="matrix(-1.836970e-16 1 -1 -1.836970e-16 2603.7559 -1135.4535)" fill="#E5E7FF" width="30.011" height="114.676"/>
			<rect x="1854.599" y="676.813" fill="#E5E7FF" width="30.011" height="114.676"/>
		</g>
		<g>
			<g>
				<path fill="#DDE0F2" d="M988.062,895.214c-2.565,0-5.168-0.337-7.759-1.042c-7.616-2.075-13.966-6.99-17.882-13.84
					c-3.919-6.848-4.935-14.815-2.86-22.433l22.959-84.251c2.075-7.615,6.991-13.966,13.843-17.883
					c6.852-3.918,14.821-4.931,22.435-2.857l0,0c7.612,2.075,13.962,6.992,17.881,13.844c3.914,6.856,4.927,14.821,2.854,22.432
					l-22.958,84.252C1012.996,886.562,1001.056,895.214,988.062,895.214z M1010.99,756.853c-4.22,0-8.385,1.098-12.148,3.249
					c-5.694,3.255-9.779,8.533-11.503,14.86l-22.959,84.251c-1.725,6.329-0.881,12.948,2.376,18.638
					c3.254,5.692,8.531,9.776,14.86,11.5c13.052,3.557,26.577-4.171,30.137-17.23l22.958-84.252
					c1.723-6.323,0.881-12.943-2.372-18.639c-3.255-5.693-8.532-9.779-14.857-11.503
					C1015.337,757.142,1013.156,756.853,1010.99,756.853z"/>
			</g>
			<g>
				<path fill="#DDE0F2" d="M988.062,895.214c-2.565,0-5.168-0.337-7.759-1.042c-7.616-2.075-13.966-6.99-17.882-13.84
					c-3.919-6.848-4.935-14.815-2.86-22.433l12.137-44.536l57.012,15.536l-12.136,44.536
					C1012.996,886.562,1001.056,895.214,988.062,895.214z M975.204,819.497l-10.823,39.716c-1.725,6.329-0.881,12.948,2.376,18.638
					c3.254,5.692,8.531,9.776,14.86,11.5c13.052,3.557,26.577-4.171,30.137-17.23l10.822-39.716L975.204,819.497z"/>
			</g>
			<g>
				<path fill="#DDE0F2" d="M974.257,849.217c-0.159,0-0.32-0.015-0.481-0.047c-1.354-0.265-2.237-1.577-1.973-2.93
					c0.477-2.443,11.804-59.999,21.326-74.731c3.187-4.931,7.182-7.84,11.873-8.645c7.691-1.326,14.271,3.665,14.547,3.878
					c1.092,0.842,1.295,2.411,0.453,3.504c-0.84,1.092-2.407,1.294-3.498,0.457c-0.105-0.08-5.214-3.866-10.69-2.909
					c-3.243,0.568-6.099,2.73-8.489,6.428c-9.006,13.931-20.504,72.388-20.619,72.976
					C976.472,848.389,975.428,849.217,974.257,849.217z"/>
			</g>
		</g>
		<g>
			<path fill="#3A4483" d="M629.51,913.057c8.493-3.841,17.736-3.878,25.83-0.825c8.079,3.052,15.003,9.179,18.847,17.678
				l44.924,99.319c7.686,16.991,0.139,36.991-16.847,44.674c-8.499,3.844-17.742,3.88-25.827,0.832
				c-8.091-3.046-15.009-9.177-18.853-17.676l-44.924-99.319C604.975,940.748,612.519,920.742,629.51,913.057z"/>
			<path fill="#9497CA" d="M635.122,1007.398l61.526-27.83l22.462,49.66c7.686,16.991,0.139,36.991-16.847,44.674
				c-8.499,3.844-17.742,3.88-25.827,0.832c-8.091-3.046-15.009-9.177-18.853-17.676L635.122,1007.398z"/>
			<g>
				<path fill="#FFFFFF" d="M659.988,1037.9c-0.709,0-1.396-0.378-1.759-1.045c-1.479-2.723-36.262-66.922-38.793-88.458
					c-0.817-6.956,0.624-12.643,4.283-16.901c6.037-7.024,15.856-7.437,16.271-7.451c1.123-0.023,2.029,0.828,2.067,1.931
					c0.037,1.103-0.825,2.027-1.927,2.066l0,0c-0.085,0.003-8.524,0.39-13.396,6.083c-2.887,3.374-4.006,8.018-3.326,13.805
					c2.441,20.775,37.977,86.354,38.335,87.015c0.527,0.971,0.168,2.185-0.802,2.712C660.638,1037.822,660.31,1037.9,659.988,1037.9
					z"/>
			</g>
		</g>
		<g>
			<path fill="#FE8A71" d="M2322.781,872.056c4.975,7.883,6.284,17.033,4.376,25.47c-1.91,8.422-7.025,16.124-14.913,21.102
				l-92.184,58.177c-15.771,9.953-36.619,5.233-46.568-10.532c-4.978-7.888-6.288-17.038-4.381-25.466
				c1.903-8.433,7.022-16.13,14.91-21.108l92.184-58.177C2291.975,851.569,2312.829,856.286,2322.781,872.056z"/>
			<path fill="#9497CA" d="M2230.112,890.611l36.04,57.106l-46.092,29.089c-15.771,9.953-36.619,5.233-46.568-10.532
				c-4.978-7.888-6.288-17.038-4.381-25.466c1.903-8.433,7.022-16.13,14.91-21.108L2230.112,890.611z"/>
			<g>
				<path fill="#FFFFFF" d="M2205.309,921.163c-0.613,0-1.219-0.281-1.611-0.812c-0.655-0.889-0.467-2.141,0.422-2.797
					c2.492-1.84,61.288-45.135,82.271-50.608c6.779-1.769,12.608-1.124,17.33,1.914c7.79,5.012,9.551,14.68,9.622,15.089
					c0.189,1.088-0.54,2.124-1.628,2.313c-1.095,0.193-2.121-0.538-2.312-1.624l0,0c-0.015-0.083-1.56-8.389-7.87-12.431
					c-3.738-2.394-8.491-2.862-14.132-1.392c-20.243,5.281-80.301,49.51-80.905,49.956
					C2206.137,921.036,2205.721,921.163,2205.309,921.163z"/>
			</g>
		</g>
		<circle fill="#FFFFFF" cx="1085.769" cy="825.991" r="6.106"/>
		<g>
			<g>
				<path fill="#FFFFFF" d="M776.178,692.872c-0.007,0-0.014,0-0.021,0l-8.5-0.088c-1.104-0.012-1.991-0.916-1.979-2.021
					c0.011-1.105,0.963-2.008,2.021-1.979l8.5,0.088c1.104,0.012,1.991,0.916,1.979,2.021
					C778.166,691.991,777.273,692.872,776.178,692.872z"/>
			</g>
			<g>
				<path fill="#FFFFFF" d="M1059.558,695.792c-0.007,0-0.014,0-0.021,0l-17.711-0.183c-1.104-0.012-1.991-0.916-1.979-2.021
					c0.011-1.098,0.905-1.979,2-1.979c0.007,0,0.014,0,0.021,0l17.711,0.183c1.104,0.012,1.991,0.916,1.979,2.021
					C1061.547,694.91,1060.653,695.792,1059.558,695.792z M1024.135,695.427c-0.007,0-0.014,0-0.021,0l-17.711-0.183
					c-1.104-0.012-1.991-0.916-1.979-2.021c0.011-1.098,0.905-1.979,2-1.979c0.007,0,0.014,0,0.021,0l17.711,0.183
					c1.104,0.012,1.991,0.916,1.979,2.021C1026.124,694.545,1025.23,695.427,1024.135,695.427z M988.713,695.062
					c-0.007,0-0.014,0-0.021,0l-17.711-0.182c-1.104-0.011-1.991-0.916-1.979-2.021c0.012-1.104,0.909-1.956,2.021-1.979
					l17.711,0.182c1.104,0.011,1.991,0.916,1.979,2.021C990.701,694.18,989.808,695.062,988.713,695.062z M953.291,694.697
					c-0.007,0-0.014,0-0.021,0l-17.711-0.183c-1.104-0.012-1.991-0.916-1.979-2.021c0.011-1.098,0.905-1.979,2-1.979
					c0.007,0,0.014,0,0.021,0l17.711,0.183c1.104,0.012,1.991,0.916,1.979,2.021C955.279,693.815,954.385,694.697,953.291,694.697z
					 M917.868,694.332c-0.007,0-0.014,0-0.021,0l-17.711-0.183c-1.104-0.012-1.991-0.916-1.979-2.021
					c0.011-1.098,0.905-1.979,2-1.979c0.007,0,0.014,0,0.021,0l17.711,0.183c1.104,0.012,1.991,0.916,1.979,2.021
					C919.857,693.451,918.963,694.332,917.868,694.332z M882.446,693.967c-0.007,0-0.014,0-0.021,0l-17.711-0.182
					c-1.104-0.011-1.991-0.916-1.979-2.021s0.954-1.962,2.021-1.979l17.711,0.182c1.104,0.011,1.991,0.916,1.979,2.021
					C884.434,693.085,883.54,693.967,882.446,693.967z M847.023,693.602c-0.007,0-0.014,0-0.021,0l-17.711-0.183
					c-1.104-0.012-1.991-0.916-1.979-2.021c0.011-1.098,0.905-1.979,2-1.979c0.007,0,0.014,0,0.021,0l17.711,0.183
					c1.104,0.012,1.991,0.916,1.979,2.021C849.011,692.721,848.118,693.602,847.023,693.602z M811.601,693.238
					c-0.007,0-0.014,0-0.021,0l-17.711-0.183c-1.104-0.012-1.991-0.916-1.979-2.021c0.011-1.098,0.905-1.979,2-1.979
					c0.007,0,0.014,0,0.021,0l17.711,0.183c1.104,0.012,1.991,0.916,1.979,2.021C813.589,692.356,812.696,693.238,811.601,693.238z"
					/>
			</g>
			<g>
				<path fill="#FFFFFF" d="M1085.769,704.562c-1.104,0-2-0.896-2-2v-6.521l-6.52-0.067c-1.104-0.011-1.991-0.916-1.979-2.021
					s0.941-1.949,2.021-1.979l8.5,0.087c1.097,0.011,1.979,0.903,1.979,2v8.5C1087.769,703.666,1086.873,704.562,1085.769,704.562z"
					/>
			</g>
			<g>
				<path fill="#FFFFFF" d="M1085.769,798.736c-1.104,0-2-0.896-2-2V781.04c0-1.104,0.896-2,2-2s2,0.896,2,2v15.696
					C1087.769,797.84,1086.873,798.736,1085.769,798.736z M1085.769,767.345c-1.104,0-2-0.896-2-2v-15.696c0-1.104,0.896-2,2-2
					s2,0.896,2,2v15.696C1087.769,766.449,1086.873,767.345,1085.769,767.345z M1085.769,735.953c-1.104,0-2-0.896-2-2v-15.696
					c0-1.104,0.896-2,2-2s2,0.896,2,2v15.696C1087.769,735.058,1086.873,735.953,1085.769,735.953z"/>
			</g>
			<g>
				<path fill="#FFFFFF" d="M1085.769,822.932c-1.104,0-2-0.896-2-2v-8.5c0-1.104,0.896-2,2-2s2,0.896,2,2v8.5
					C1087.769,822.036,1086.873,822.932,1085.769,822.932z"/>
			</g>
		</g>
		<circle fill="#FFFFFF" cx="2157.099" cy="941.59" r="6.048"/>
		<g>
			<path fill="#FFFFFF" d="M2149.064,943.59h-17c-1.104,0-2-0.896-2-2s0.896-2,2-2h17c1.104,0,2,0.896,2,2
				S2150.169,943.59,2149.064,943.59z M2115.064,943.59c-1.104,0-2.032-0.896-2.032-2v-16.968c0-1.104,0.896-2,2-2s2,0.896,2,2
				v16.715c0.011,0.083,0.016,0.167,0.016,0.253C2117.048,942.694,2116.169,943.59,2115.064,943.59z M2115.032,909.622
				c-1.104,0-2-0.896-2-2v-17c0-1.104,0.896-2,2-2s2,0.896,2,2v17C2117.032,908.726,2116.136,909.622,2115.032,909.622z
				 M2115.032,875.622c-1.104,0-2-0.896-2-2v-17c0-1.104,0.896-2,2-2s2,0.896,2,2v17
				C2117.032,874.726,2116.136,875.622,2115.032,875.622z M2115.032,841.622c-1.104,0-2-0.896-2-2v-11.631h-1.369
				c-1.104,0-2-0.896-2-2s0.896-2,2-2h3.369c1.104,0,2,0.896,2,2v13.631C2117.032,840.726,2116.136,841.622,2115.032,841.622z
				 M2094.663,827.991h-17c-1.104,0-2-0.896-2-2s0.896-2,2-2h17c1.104,0,2,0.896,2,2S2095.767,827.991,2094.663,827.991z
				 M2060.663,827.991h-17c-1.104,0-2-0.896-2-2s0.896-2,2-2h17c1.104,0,2,0.896,2,2S2061.767,827.991,2060.663,827.991z
				 M2026.663,827.991h-17c-1.104,0-2-0.896-2-2s0.896-2,2-2h17c1.104,0,2,0.896,2,2S2027.767,827.991,2026.663,827.991z
				 M1992.663,827.991h-17c-1.104,0-2-0.896-2-2s0.896-2,2-2h17c1.104,0,2,0.896,2,2S1993.767,827.991,1992.663,827.991z
				 M1958.663,827.991h-17c-1.104,0-2-0.896-2-2s0.896-2,2-2h17c1.104,0,2,0.896,2,2S1959.767,827.991,1958.663,827.991z
				 M1924.663,827.991h-17c-1.104,0-2-0.896-2-2s0.896-2,2-2h17c1.104,0,2,0.896,2,2S1925.767,827.991,1924.663,827.991z
				 M1890.663,827.991h-17c-1.104,0-2-0.896-2-2s0.896-2,2-2h17c1.104,0,2,0.896,2,2S1891.767,827.991,1890.663,827.991z
				 M1856.663,827.991h-17c-1.104,0-2-0.896-2-2s0.896-2,2-2h17c1.104,0,2,0.896,2,2S1857.767,827.991,1856.663,827.991z
				 M1822.663,827.991h-17c-1.104,0-2-0.896-2-2s0.896-2,2-2h17c1.104,0,2,0.896,2,2S1823.767,827.991,1822.663,827.991z
				 M1788.663,827.991h-17c-1.104,0-2-0.896-2-2s0.896-2,2-2h17c1.104,0,2,0.896,2,2S1789.767,827.991,1788.663,827.991z
				 M1754.663,827.991h-17c-1.104,0-2-0.896-2-2s0.896-2,2-2h17c1.104,0,2,0.896,2,2S1755.767,827.991,1754.663,827.991z"/>
		</g>
		<g>
			<path fill="#FE8A71" d="M1813.286,395.9h-123.713c-40.839,0-73.945,33.107-73.945,73.945v0c0,13.458,3.613,26.065,9.896,36.935
				l-9.896,42.419l40.329-13.499c10.088,5.16,21.507,8.09,33.616,8.09h123.713c40.839,0,73.946-33.107,73.946-73.946v0
				C1887.231,429.007,1854.125,395.9,1813.286,395.9z"/>
			<circle fill="#FFFFFF" cx="1681.654" cy="472.551" r="18.029"/>
			<circle fill="#FFFFFF" cx="1751.429" cy="472.551" r="18.029"/>
			<circle fill="#FFFFFF" cx="1821.205" cy="472.551" r="18.029"/>
		</g>
		<g>
			<g>
				<path fill="#312764" d="M1519.211,677.304l-1.742-0.982c31.516-55.923,31.762-119.526,26.419-163.035
					c-5.797-47.203-19.24-81.604-19.375-81.946l1.859-0.735c0.136,0.344,13.66,34.94,19.494,82.384
					C1551.254,556.812,1551.003,620.891,1519.211,677.304z"/>
			</g>
			<g>
				<path fill="#312764" d="M1465.648,389.501c0,0-46.67-44.353-118.052-3.763c-21.112,12.005-35.615,33.257-43.498,56.418
					c-2.89,8.491-4.681,17.313-5.652,26.221c-1.874,17.176-0.042,33.555-9.322,49.259c-8.463,14.322-20.779,26.007-32.751,37.362
					c-18.948,17.971-39.948,33.744-61.714,48.124c-6.451,4.262-12.986,8.399-19.589,12.423
					c-77.416,47.175-50.797,206.414,98.585,217.731s244.993-115.168,257.358-187.335
					C1542.155,580.915,1569.675,394.339,1465.648,389.501z"/>
			</g>
			<g>
				<path fill="#FECCB4" d="M1511.344,508.043c0,0,8.064-21.773,28.224-5.645c20.16,16.128-8.87,76.609-32.256,56.449
					C1483.926,538.687,1511.344,508.043,1511.344,508.043z"/>
			</g>
			<g>
				<path fill="#FECCB4" d="M1334.121,508.043c0,0-8.064-21.773-28.224-5.645c-20.16,16.128,8.87,76.609,32.256,56.449
					C1361.54,538.687,1334.121,508.043,1334.121,508.043z"/>
			</g>
			<g>
				<path fill="#FECCB4" d="M1423.028,754.585c-12.657,1.568-82.616,8.656-60.262-29.316c14.614-24.837,14.539-57.753,12.093-80.295
					c-0.552-5.068-1.217-9.621-1.869-13.422c-1.317-7.702-2.546-12.406-2.546-12.406l50.653-4.704v-0.351l1.932,0.176l1.944-0.176
					v0.351l50.653,4.704c0,0-1.204,4.591-2.496,12.13c-0.74,4.227-1.493,9.396-2.082,15.191
					c-2.296,22.479-2.057,54.505,12.243,78.803C1505.644,763.241,1435.685,756.153,1423.028,754.585z"/>
			</g>
			<g>
				<path fill="#DDA792" d="M1487.028,620.437c-4.278,4.039-8.919,7.664-13.899,10.838c-0.74,4.227-1.493,9.396-2.082,15.191
					c-10.863,4.215-26.682,7.878-48.207,7.138c-25.001-0.866-39.677-4.955-47.982-8.63c-0.552-5.068-1.217-9.621-1.869-13.422
					c-6.41-4.039-12.293-8.831-17.524-14.263l27.748-16.031l101.809,9.195L1487.028,620.437z"/>
			</g>
			<g>
				<path fill="#FECCB4" d="M1516.381,448.632v103.766c0,26.807-11.277,50.98-29.353,68.04c-4.278,4.039-8.919,7.664-13.899,10.838
					c-14.526,9.283-31.774,14.664-50.289,14.664c-18.327,0-35.425-5.269-49.851-14.388c-6.41-4.039-12.293-8.831-17.524-14.263
					c-16.195-16.822-26.167-39.69-26.167-64.891V448.632H1516.381z"/>
			</g>
			<g>
				<path fill="#FFFFFD" d="M1624.636,1033.693c3.926,12.607,1.029,26.355-7.652,36.303l-14.2,21.739l-44.532,68.19
					c6.398,35.964,50.014,68.391,62.27,76.883c2.032,1.392,3.199,2.145,3.199,2.145l117.113-136.581
					c10.851-10.976,15.003-26.92,10.888-41.797l-73.471-265.673c-6.724-24.298-24.9-43.779-48.684-52.159l-150.054-52.911
					c-0.125,0.188-1.505,2.133-4.378,4.779c-0.727,0.677-1.543,1.392-2.471,2.133c-0.088,0.063-0.176,0.138-0.263,0.201l0.251,0.414
					l95.411,155.021l8.969,28.751L1624.636,1033.693z"/>
			</g>
			<g>
				<path fill="#FFFFFD" d="M1222.871,1355.577h412.177l-14.526-118.768l-17.738-145.074l-25.753-210.604l-19.289-157.743
					l-82.608-28.777c-0.727,0.677-1.543,1.392-2.471,2.133c-0.088,0.063-0.176,0.138-0.263,0.201
					c-7.326,5.833-20.723,13.197-42.036,13.912c-24.549,0.828-42.575-2.91-55.207-10.123c-0.64-0.364-1.267-0.74-1.882-1.116
					c-4.88-3.048-8.894-6.648-12.118-10.725l-86.63,26.406L1222.871,1355.577z"/>
			</g>
			<g>
				<path fill="#FECCB4" d="M1531.772,1195.915c7.1,28.764,59.221,59.673,59.221,59.673c4.24-13.284,17.223-26.443,18.038-27.259
					c-1.543-1.229-3.186-2.584-4.955-4.064c-11.014-9.258-34.095-29.316-42.926-53.476
					C1545.495,1191.374,1531.772,1195.915,1531.772,1195.915z"/>
			</g>
			<g>
				<path fill="#B5B8DB" d="M1373.276,699.604v0.013l5.883,655.961h86.191l7.301-658.219l0.013-0.615
					c-0.088,0.063-0.176,0.138-0.263,0.201c-7.326,5.833-20.723,13.197-42.036,13.912
					C1405.815,711.684,1385.908,706.817,1373.276,699.604z"/>
			</g>
			<g>
				<path fill="#E2E2E2" d="M1604.082,1264.614c-0.167,0-0.338-0.027-0.505-0.087c-7.266-2.595-12.69-7.058-13.481-7.729
					c-3.206-2.021-52.263-33.337-59.768-60.485c-0.311-0.881-3.28-9.529-3.28-13.303c0-0.828,0.672-1.5,1.5-1.5s1.5,0.672,1.5,1.5
					c0,2.77,2.269,9.897,3.143,12.41c7.313,26.443,58.083,58.575,58.595,58.896c0.064,0.041,0.127,0.087,0.186,0.138
					c0.054,0.047,5.463,4.692,12.616,7.246c0.779,0.279,1.187,1.138,0.908,1.918
					C1605.275,1264.232,1604.698,1264.614,1604.082,1264.614z"/>
			</g>
			<g>
				<path fill="#312764" d="M1516.381,516.107c0,0-56.98-37.583-71.523-63.877c-0.469-0.849-1.701-0.744-2.012,0.175
					c-2.231,6.583-10.294,23.441-35.638,30.114c-1.041,0.274-1.934-0.789-1.462-1.756c1.666-3.41,4.418-9.808,4.532-15.066
					c0.016-0.752-0.942-1.083-1.375-0.467c-6.108,8.675-34.485,46.01-76.886,55.927c-1.197,0.28-2.272-0.783-1.961-1.973
					c1.132-4.324,2.772-13.115-0.761-18.502c-5.358-8.17-23.183-76.775,9.476-76.775c32.66,0,152.412-0.403,162.895,4.032
					s16.542,6.586,16.666,15.859C1518.457,453.073,1516.381,516.107,1516.381,516.107z"/>
			</g>
			<g>
				<path fill="#FFFFFD" d="M1361.158,688.891c0,0,7.645-3.595,13.999-3.785c0,0-0.366,11.907-2.785,17.014
					C1369.953,707.227,1361.158,688.891,1361.158,688.891z"/>
			</g>
			<g>
				<path fill="#FFFFFD" d="M1479.512,689.832c0,0-3.815-2.655-8.571-4.726l1.458,11.838
					C1472.4,696.944,1481.012,702.005,1479.512,689.832z"/>
			</g>
			<g>
				<path fill="#E2E2E2" d="M1473.452,1282.086c-0.08,0-0.16-0.006-0.242-0.02c-0.818-0.132-1.374-0.902-1.241-1.72l50.6-312.681
					c0.336-2.075,0.192-4.235-0.413-6.248l-21.693-72.101c-1.089-3.621-0.779-7.488,0.871-10.888l19.662-40.505
					c1.269-2.612,1.428-5.674,0.437-8.404l-50.183-141.549c-0.277-0.781,0.131-1.639,0.912-1.915
					c0.781-0.278,1.638,0.131,1.915,0.913l50.18,141.538c1.262,3.477,1.059,7.391-0.562,10.727l-19.662,40.505
					c-1.321,2.721-1.569,5.815-0.697,8.713l21.693,72.101c0.735,2.445,0.909,5.07,0.501,7.592l-50.599,312.68
					C1474.812,1281.563,1474.175,1282.086,1473.452,1282.086z"/>
			</g>
			<g>
				<path fill="#E2E2E2" d="M1371.585,1281.886c-0.723,0-1.359-0.523-1.479-1.261l-50.6-312.681
					c-0.408-2.522-0.235-5.147,0.501-7.592l21.693-72.101c0.872-2.896,0.625-5.991-0.697-8.713l-19.663-40.505
					c-1.62-3.337-1.822-7.251-0.557-10.737l51.081-141.336c0.282-0.779,1.143-1.183,1.92-0.901c0.779,0.282,1.183,1.142,0.901,1.92
					l-51.082,141.338c-0.991,2.73-0.832,5.793,0.436,8.406l19.663,40.505c1.65,3.401,1.96,7.268,0.871,10.887l-21.693,72.101
					c-0.605,2.012-0.748,4.172-0.412,6.248l50.599,312.682c0.132,0.817-0.424,1.588-1.241,1.72
					C1371.745,1281.88,1371.664,1281.886,1371.585,1281.886z"/>
			</g>
			<g>
				<g>
					<path fill="#9497CA" d="M1498.22,1048.57c-0.907,0-1.728-0.621-1.945-1.542c-0.253-1.075,0.414-2.151,1.488-2.405
						c5.036-1.187,13.62-4.477,15.213-8.25c5.868-13.902,5.53-45.213-1.033-95.723c-0.143-1.095,0.63-2.099,1.726-2.241
						c1.097-0.141,2.099,0.63,2.241,1.726c6.75,51.943,6.989,83.018,0.752,97.793c-2.898,6.869-16.448,10.229-17.983,10.59
						C1498.525,1048.553,1498.371,1048.57,1498.22,1048.57z"/>
				</g>
				<g>
					<path fill="#3A4483" d="M1490.985,1054.117l12.008-4.532c1.788-0.675,2.691-2.672,2.016-4.46l-1.542-4.087
						c-0.675-1.788-2.672-2.691-4.46-2.016l-12.009,4.532c-1.788,0.675-2.691,2.672-2.016,4.46l1.542,4.087
						C1487.2,1053.89,1489.196,1054.792,1490.985,1054.117z"/>
				</g>
				<g>
					<path fill="#9497CA" d="M1466.427,1049.768c-0.265,0-0.534-0.054-0.792-0.165c-1.768-0.764-17.338-7.665-19.578-14.666
						c-6.927-21.649-5.114-35.189,0.27-75.385c0.742-5.537,1.551-11.58,2.414-18.22c0.142-1.095,1.143-1.867,2.241-1.726
						c1.095,0.143,1.868,1.146,1.726,2.241c-0.864,6.646-1.674,12.693-2.416,18.235c-5.293,39.528-7.077,52.844-0.424,73.636
						c1.275,3.985,11.322,9.606,17.355,12.213c1.014,0.438,1.48,1.615,1.042,2.629
						C1467.938,1049.316,1467.201,1049.768,1466.427,1049.768z"/>
				</g>
				<g>
					<path fill="#9497CA" d="M1494.36,815.314c0,0,22.023-113.732-23.942-135.825l1.11,9.916c0,0,35.266,25.979,10.536,125.91
						H1494.36z"/>
				</g>
				<g>
					<path fill="#9497CA" d="M1350.777,818.273c0,0-22.343-124.211,24.381-136.851l-0.319,8.593c0,0-36.495,28.327-11.766,128.258
						H1350.777z"/>
				</g>
				<g>
					<path fill="#3A4483" d="M1514.325,943.557c-0.095,0-0.19-0.002-0.286-0.006c-3.31-0.155-5.867-2.964-5.712-6.274
						c1.886-40.226-1.572-62.743-10.882-70.863c-4.388-3.827-10.808-4.801-20.203-3.06c-17.361,3.215-21.707,47.037-20.367,73.903
						c0.165,3.309-2.383,6.126-5.692,6.292c-3.32,0.149-6.126-2.381-6.292-5.69c-0.413-8.186-3.068-80.15,30.167-86.305
						c13.101-2.426,23.006-0.524,30.275,5.816c12.628,11.015,17.108,35.08,14.98,80.468
						C1520.163,941.053,1517.51,943.557,1514.325,943.557z"/>
				</g>
				<g>
					<path fill="#3A4483" d="M1483.505,862.2c-0.269,0-0.541-0.018-0.815-0.055c-3.283-0.446-5.583-3.47-5.137-6.753l6.989-51.431
						c0.446-3.283,3.47-5.578,6.753-5.137c3.283,0.446,5.583,3.47,5.137,6.753l-6.989,51.431
						C1489.034,860.017,1486.46,862.2,1483.505,862.2z"/>
				</g>
				<g>
					<path fill="#3A4483" d="M1473.665,1055.315l-12.009-4.532c-1.788-0.675-2.691-2.672-2.016-4.46l1.542-4.087
						c0.675-1.788,2.672-2.691,4.46-2.016l12.009,4.532c1.788,0.675,2.691,2.672,2.016,4.46l-1.542,4.087
						C1477.45,1055.087,1475.453,1055.99,1473.665,1055.315z"/>
				</g>
				<g>
					<circle fill="#FFFFFF" cx="1357.918" cy="831.425" r="16.623"/>
					<path fill="#3A4483" d="M1357.918,851.547c-11.096,0-20.123-9.027-20.123-20.123s9.027-20.123,20.123-20.123
						s20.123,9.027,20.123,20.123S1369.013,851.547,1357.918,851.547z M1357.918,818.302c-7.236,0-13.123,5.887-13.123,13.123
						s5.887,13.123,13.123,13.123s13.123-5.887,13.123-13.123S1365.154,818.302,1357.918,818.302z"/>
				</g>
			</g>
			<g>
				<polygon fill="#3A4483" points="1541.176,1205.662 1409.224,1355.577 1306.725,1355.577 1224.711,1283.197 1289.753,1205.335 
					1401.722,1083.306 				"/>
			</g>
			<g>
				<path fill="#FECCB4" d="M1230.275,1160.196c0,0,20.729,8.158,32.265,8.57s30.336,5.176,43.457,20.127l-18.792,20.479
					c0,0,0.024,6.065,31.883,19.669c31.859,13.604,44.015,26.454,32.771,33.643c0,0-1.047,12.102-11.484,13.557
					c0,0-0.444,9.969-14.215,10.754c0,0-0.712,10.435-16.579,7.85s-52.783-26.83-59.54-37.207
					c-6.757-10.376-31.338-33.442-42.232-40.922l-21.241-14.647l36.146-48.685L1230.275,1160.196z"/>
			</g>
			<g>
				<path fill="#E0A38C" d="M1349.602,1263.092c-0.083,0-0.167-0.007-0.252-0.021c-0.654-0.11-16.346-2.921-44.162-20.729
					c-0.698-0.447-0.901-1.375-0.455-2.072c0.446-0.698,1.374-0.901,2.072-0.455c27.219,17.428,42.893,20.273,43.047,20.3
					c0.816,0.141,1.365,0.915,1.225,1.73C1350.953,1262.576,1350.32,1263.092,1349.602,1263.092z"/>
			</g>
			<g>
				<path fill="#E0A38C" d="M1338.118,1276.65c-0.109,0-0.22-0.012-0.331-0.036c-1.01-0.228-24.956-5.765-43.789-23.398
					c-0.604-0.566-0.636-1.516-0.069-2.12c0.565-0.604,1.514-0.637,2.12-0.069c18.219,17.059,42.157,22.606,42.397,22.661
					c0.808,0.182,1.315,0.984,1.133,1.792C1339.423,1276.176,1338.804,1276.65,1338.118,1276.65z"/>
			</g>
			<g>
				<path fill="#E0A38C" d="M1323.902,1287.404c-0.148,0-0.299-0.021-0.448-0.068c-1.247-0.39-30.704-9.726-45.299-26.201
					c-0.549-0.62-0.492-1.568,0.128-2.118s1.568-0.491,2.118,0.128c14.036,15.846,43.65,25.235,43.948,25.328
					c0.791,0.247,1.231,1.088,0.984,1.879C1325.133,1286.993,1324.541,1287.404,1323.902,1287.404z"/>
			</g>
			<g>
				<path fill="#FFFFFD" d="M1069.011,955.292l156.253-215.423c6.754-7.179,15.105-12.664,24.376-16.011l24.782-8.946
					c33.21,53.637,14.169,148.739,14.169,148.739s-47.55,85.901-111.044,156.105c13.532,15.733,71.66,121.441,74.242,131.4
					c0,0-17.386,61.506-54.199,76.783c0,0-37.949-40.844-119.593-139.944l-6.798-7.908c-26.624-30.97-27.541-91.525-2.185-123.542
					V955.292z"/>
			</g>
			<g>
				<path fill="#312764" d="M1238.18,575.438l-1.515-1.307c2.37-2.748,4.758-5.489,7.15-8.233
					c11.051-12.685,22.479-25.802,32.238-39.805c9.744-13.981,12.566-31.253,15.295-47.957c0.557-3.411,1.133-6.938,1.756-10.334
					c4.376-23.875,12.174-40.29,24.539-51.66l1.354,1.473c-12.029,11.061-19.631,27.123-23.926,50.548
					c-0.619,3.377-1.194,6.895-1.75,10.296c-2.765,16.923-5.625,34.423-15.628,48.777c-9.82,14.092-21.284,27.25-32.371,39.976
					C1242.934,569.954,1240.548,572.693,1238.18,575.438z"/>
			</g>
			<g>
				<path fill="#312764" d="M1164.089,780.335c-29.861-28.197-43.819-57.033-41.485-85.708c3.555-43.68,44.482-71.816,44.896-72.095
					l1.12,1.657c-0.405,0.274-40.555,27.898-44.023,70.615c-2.276,28.035,11.473,56.323,40.866,84.077L1164.089,780.335z"/>
			</g>
			<g>
				<path fill="#E2E2E2" d="M1561.15,1172.288c-0.595,0-1.158-0.356-1.393-0.943c-1.5-3.753-2.916-10.828-2.976-11.127
					c-0.077-0.385,0-0.784,0.215-1.113l44.531-68.189c0.454-0.693,1.384-0.887,2.076-0.436c0.693,0.453,0.889,1.383,0.436,2.076
					l-44.193,67.672c0.373,1.779,1.538,7.106,2.696,10.004c0.308,0.77-0.066,1.643-0.836,1.949
					C1561.524,1172.254,1561.336,1172.288,1561.15,1172.288z"/>
			</g>
			<g>
				<path fill="#E2E2E2" d="M1622.467,1239.2c-0.165,0-0.332-0.027-0.497-0.085c-0.356-0.125-8.786-3.131-12.887-8.635
					c-0.495-0.665-0.357-1.604,0.307-2.1c0.665-0.493,1.604-0.356,2.1,0.307c3.548,4.764,11.396,7.57,11.476,7.598
					c0.78,0.275,1.191,1.132,0.917,1.912C1623.664,1238.814,1623.085,1239.2,1622.467,1239.2z"/>
			</g>
			<g>
				<path fill="#E2E2E2" d="M1259.404,904.28c-0.055,0-0.11-0.003-0.167-0.009c-0.823-0.09-1.417-0.832-1.326-1.655l12.135-110.073
					c0.09-0.824,0.831-1.423,1.655-1.326c0.823,0.09,1.417,0.832,1.326,1.655l-12.135,110.073
					C1260.808,903.712,1260.158,904.28,1259.404,904.28z"/>
			</g>
			<g>
				<path fill="#E2E2E2" d="M1577.031,882.631c-0.64,0-1.231-0.412-1.432-1.054l-18.778-60.199
					c-0.247-0.791,0.194-1.632,0.985-1.879c0.792-0.248,1.631,0.195,1.878,0.985l18.778,60.199c0.247,0.791-0.194,1.632-0.985,1.879
					C1577.329,882.609,1577.178,882.631,1577.031,882.631z"/>
			</g>
			<g>
				<path fill="#E2E2E2" d="M1247.817,1164.324c-0.16,0-0.323-0.025-0.483-0.08c-0.784-0.267-1.204-1.119-0.937-1.903l3.764-11.062
					l-10.454-20.213c-0.38-0.736-0.092-1.642,0.644-2.021c0.735-0.381,1.641-0.093,2.021,0.643l10.748,20.781
					c0.188,0.363,0.219,0.786,0.087,1.173l-3.97,11.666C1249.025,1163.931,1248.442,1164.324,1247.817,1164.324z"/>
			</g>
			<g>
				<path fill="#DDA792" d="M1525.434,537.763c-2.94,0-5.42-1.366-6.715-2.531c-0.331-0.298-0.512-0.728-0.495-1.172
					c0.018-0.445,0.231-0.86,0.584-1.131c6.433-4.949,8.007-12.173,8.022-12.246c0.169-0.809,0.963-1.329,1.772-1.163
					c0.81,0.167,1.332,0.958,1.166,1.768c-0.064,0.313-1.532,7.183-7.542,12.684c1.709,0.847,4.67,1.575,7.835-1.015
					c0.643-0.525,1.586-0.431,2.111,0.211c0.524,0.641,0.43,1.586-0.211,2.111C1529.726,537.108,1527.469,537.763,1525.434,537.763z
					"/>
			</g>
			<g>
				<path fill="#DDA792" d="M1321.187,537.763c-2.036,0-4.292-0.655-6.528-2.484c-0.641-0.525-0.736-1.47-0.211-2.111
					c0.525-0.642,1.47-0.736,2.111-0.211c3.164,2.589,6.125,1.862,7.835,1.015c-6.01-5.501-7.477-12.37-7.542-12.683
					c-0.166-0.812,0.357-1.604,1.169-1.771c0.812-0.163,1.602,0.356,1.77,1.166l0,0c0.015,0.073,1.589,7.297,8.022,12.246
					c0.353,0.271,0.567,0.686,0.584,1.131c0.017,0.445-0.165,0.875-0.496,1.172C1326.607,536.397,1324.127,537.763,1321.187,537.763
					z"/>
			</g>
			<g>
				<path fill="#312764" d="M1344.224,514.143l-0.247-1.984c0.407-0.051,40.979-5.563,66.747-46.581l1.693,1.063
					C1386.127,508.493,1344.64,514.092,1344.224,514.143z"/>
			</g>
		</g>
	</g>
	<g>
	</g>
	<g>
	</g>
	<g>
	</g>
	<g>
	</g>
	<g>
	</g>
	<g>
	</g>
</g>
</svg>
