<svg id="Layer_1" data-name="Layer 1" xmlns="http://www.w3.org/2000/svg" viewBox="0 0 160 160"><defs><style>.cls-1{fill:#fff;}.cls-2{fill:#f5b9af;}.cls-3{fill:#d38c81;}.cls-4{fill:#ae6e63;}.cls-5{fill:#ec887f;}.cls-6{fill:#efefef;}.cls-7{fill:#79787a;}.cls-8{fill:#fdfefe;}.cls-9{fill:#a5c090;}.cls-10{fill:#3f4550;}.cls-11{fill:#eca499;}.cls-12{fill:#f6a891;}.cls-13{fill:#83504a;}.cls-14{fill:#f9d2c8;}.cls-15{fill:#9e5e54;}.cls-16{fill:#f9e4de;}.cls-17{fill:#fd5d5d;}.cls-18{fill:#7695c1;}.cls-19{opacity:0.09;}.cls-20{fill:#6b86ae;}</style></defs><title>Consult a Doctor</title><rect class="cls-1" x="-3.57" y="-2.81" width="166.47" height="166.47"/><path class="cls-2" d="M9.7,128.67a1.55,1.55,0,0,0,1.29.11,7.65,7.65,0,0,1,1.58-.12l13,0-.63,4.05-1.2,7.95c-.95.17-1.91.32-2.86.51-.45.09-1,.13-1.17.72a2.64,2.64,0,0,0,1.06.46c1.18.2,2.36.38,3.55.54,1.43.19,2.88.27,4.31.45s3.06.23,4.59.33c2.15.13,4.3.2,6.44.35,1.57.11,3.13.05,4.7.14,2.63.16,5.28.18,7.91.17,10.7,0,21.41.26,32.12-.13,2.46-.08,4.93,0,7.4-.12,2.7-.16,5.42-.19,8.13-.36,1.87-.11,3.73-.24,5.6-.33,2.09-.12,4.17-.3,6.25-.52a30.9,30.9,0,0,0,3.94-.68.87.87,0,0,0,.67-.55c-2-.87-4-.85-6.06-1.15-.17-1.21-.25-2.43-.37-3.65-.08-.81-.1-1.62-.18-2.42-.17-1.86-.43-3.7-.47-5.57,1.33-.22,2.69.07,4-.19.07.21,0,.46.16.65h34.18a1.11,1.11,0,0,0,.11-.62,4,4,0,0,1,3.17,2,11.68,11.68,0,0,1,2.36,5.67,11.48,11.48,0,0,1-.68,5.62,12,12,0,0,1-6.15,6.71,11.58,11.58,0,0,1-5.12,1.14H15.37A11.36,11.36,0,0,1,9,147.83a12,12,0,0,1-5.23-7.45,11.2,11.2,0,0,1,2.1-9.82A4.36,4.36,0,0,1,7.72,129,7.72,7.72,0,0,1,9.7,128.67Z"/><path class="cls-3" d="M147.74,128.67a1.11,1.11,0,0,1-.11.62H113.45c-.2-.19-.09-.44-.16-.65V98.14q0-10.12,0-20.24c0-.3.13-.62-.12-.89a1.69,1.69,0,0,1,.23-.87,3.8,3.8,0,0,0,.34-2.53c-.11-.65-.57-1.16-.6-1.82.28-3.26.14-6.53.12-9.79l0-.52a18.27,18.27,0,0,1,2.22,0v8.16a1.89,1.89,0,0,0,.84.11h2.34c.07-1.91,0-3.66.15-5.42.14-2.19,0-4.38,0-6.57v-.25c0-.91,0-.91,1-.92l2.08,0,0,2.91V68.9c0,.26-.09.55.15.86h5.09c.23,0,.5.09.67-.17h.5c.51.34,1.06.11,1.58.14l.22-.48h13.71c0,.15,0,.34.19.52a5.48,5.48,0,0,0,1.21-.05.91.91,0,0,0,.12-.62V54.41a.46.46,0,0,0-.53-.51H116.34a1.31,1.31,0,0,0-.73.08c-.14.18-.08.38-.09.57a16.61,16.61,0,0,1-2.34,0,13.29,13.29,0,0,1,.13-2.18c0-.84-.11-1.67-.14-2.51,0-1.15.18-2.29.13-3.44-.18-3.93-.11-7.85-.12-11.78,0-1,0-1,1-1h14.24a25.93,25.93,0,0,0,5.5.07.47.47,0,0,0,.15-.06c4.51,0,9,0,13.54.1.25.28.14.64.14,1q0,20.84,0,41.66,0,24.41,0,48.82l0,.93ZM118.89,76.51h-.51l0-.33c.4-.52.1-1.13.19-1.69.67,0,1.35,0,2,0,.35,0,.54.09.52.47V87.48h5.79a7.48,7.48,0,0,1,1.7.16.47.47,0,0,0,.59-.14h14.19a3.63,3.63,0,0,0,2,.09V71.85H115.56V87.39a1,1,0,0,0,.21.08h2.44a1.23,1.23,0,0,0,.34-1V79.39c0-.24.1-.52-.17-.69V78h.49c0,.21-.06.46.2.67.31,0,.67,0,1,0,.81,0,.89-.14.62-1h-1.83c-.21,0-.36-.1-.36-.35s.11-.34.34-.35c.57.35,1.17.1,1.77.13a1.11,1.11,0,0,0,0-1h-1.34C119,76.17,118.9,76.27,118.89,76.51Zm20.43-32.92v8.27h2.34a5.38,5.38,0,0,0,2.87,0c.26,0,.56.09.79-.14V35.89H115.55V51.76a.71.71,0,0,0,.82,0V50.17h2.41c.21.59,0,1.15.21,1.7h1.6a4.16,4.16,0,0,1,1.57.14.34.34,0,0,0,.44-.14h5.1c.3.06.53-.18.82-.17,0,.18.17.32.36.29a35.43,35.43,0,0,1,4.25-.12c.21,0,.46.1.6-.17l.7.16a9.57,9.57,0,0,0,2.19-.08c0-.63,0-1.24,0-1.85,0-.26-.13-.56.16-.76h2.27c.1-.45-.09-.5-.34-.5H136.8v-.54c2.11,0,2.11,0,2.35-.49h-2.35c-.29-.21-.16-.51-.17-.77-.06-1.27.25-2.52.17-3.79h2.27c.12-.46-.09-.5-.34-.5h-1.93v-.53a17.26,17.26,0,0,0,2.28,0c0-.48-.22-.44-.43-.44h-1.86l-.18-.18v-.67c0-.42,0-.84,0-1.26s.13-.58.53-.58c.58,0,1.17,0,1.75,0,.36,0,.43.19.41.48C139.31,40.77,139.32,42.18,139.32,43.59Zm2.32,61.93h2.91c.26,0,.56.1.77-.12V89.71H115.58v15.81h15a1.29,1.29,0,0,0,.72-.15h3.27c-.31-.24-.77-.19-.66-.76q.54-2.75,1.06-5.49c.24-1.31.6-2.6.78-3.92.1-.76.3-1.51.45-2.27a18.11,18.11,0,0,0,2.21.26v.54c-.15,0-.27,0-.3.22-.34,2-.67,3.93-1,5.9a28.3,28.3,0,0,1-1,4.81.82.82,0,0,0,.1.83c.47,0,1,.2,1.42-.15,1,0,1.91.28,2.88.18Zm3.51,21.25V108.46h-29.4v18.31ZM120.84,66.82V59.51a1.83,1.83,0,0,0-1,0,2.38,2.38,0,0,0-.08.78c-.1.84.2,1.66.17,2.5,0,1.12,0,2.25,0,3.37,0,.21-.06.45.13.64A1.5,1.5,0,0,0,120.84,66.82Zm14.4,34.48c.25.22.45.41.87.27.49-2.14.86-4.34,1.23-6.62-.35,0-.53-.2-.89-.12C136.05,96.94,135.65,99.09,135.24,101.3Zm-13.8-33.23a19.57,19.57,0,0,0-2.31.06.81.81,0,0,0,.08.79,18,18,0,0,0,2.31-.07A.85.85,0,0,0,121.44,68.07ZM119.11,58c0,.27-.11.46.14.64a16,16,0,0,0,2.28-.06c0-.23.11-.42-.12-.58Z"/><path class="cls-4" d="M17.15,16.41c-.93-.23-1.84-.48-2.68.32a1.53,1.53,0,0,1-2.29-.3,4.32,4.32,0,0,1-.32-.69c.12-1.23.47-1.6,1.72-1.81a2.33,2.33,0,0,1,1.16.79c0,.1.12.21.24.21.77,0,1.61.33,2.22-.3a6.49,6.49,0,0,0,4.41,0c.23.55.79.42,1.3.42l2.26,0c.41.39.23.81,0,1.23H22.38c-.19,0-.41,0-.52.18h-.65a8.05,8.05,0,0,0-3.59,0Z"/><path class="cls-5" d="M72.94,50c0,2.53-.09,5.09-.33,7.62l-2.16.7a7.69,7.69,0,0,0,0-1.18A21.08,21.08,0,0,1,70.14,54c-.06-1.15-.18-2.28-.24-3.43a16.38,16.38,0,0,0-.16-2.33,23.54,23.54,0,0,1-.27-3c-.06-1.13-.19-2.28-.24-3.42a19.41,19.41,0,0,0-.15-2.42c-.28-1.66-.33-3.33-.45-5-.12-1.93-.42-3.84-.39-5.77A9.16,9.16,0,0,0,68,27a26,26,0,0,0,0,3.85c.17,1.67.06,3.36.16,5,.08,1.51.2,3,.25,4.52,0,.89,0,1.79.14,2.67a35.87,35.87,0,0,1,.33,4.51,2.9,2.9,0,0,0,0,.51,20.75,20.75,0,0,1,.31,3.15c0,.83.13,1.67.22,2.5.18,1.54.22,3.1.47,4.64a7.37,7.37,0,0,1-2,.39,1,1,0,0,0,0-.25,57.29,57.29,0,0,1-3.1-9.09c-.42-1.67-.82-3.34-1.09-5-.21-1.34-.4-2.69-.58-4-.16-1.16-.36-2.31-.41-3.47,0-.9-.17-1.78-.23-2.67-.08-1.36-.29-2.71-.31-4.08,0-.83-.24-1.65-.2-2.49a.35.35,0,0,0-.12.22c.09,2.43-.09,4.86.13,7.31.15,1.74.17,3.5.36,5.25s.38,3.42.67,5.12A46,46,0,0,0,66.69,57,6.32,6.32,0,0,1,67.42,59a4,4,0,0,1-1.82.15C65,58,64.25,57,63.68,55.85,61,50.78,60,45.28,59.31,39.68A18.45,18.45,0,0,0,59,37c.1-.63-.21-1.23-.16-1.87-.1-1.55-.26-3.11-.29-4.67-.06-2.32-.26-4.64-.22-7,0-1.18,0-2.36,0-3.53,0-.68,0-1.37,0-2A1.36,1.36,0,0,1,59,16.6l.69,0,.25.22c1.13,1,1.58,1,2.63-.07l.27-.31a1.05,1.05,0,0,0,.69.17c.25.22.49.45.75.66a1.34,1.34,0,0,0,2-.23,2.73,2.73,0,0,1,.66-.61h.76c.09.11.17.22.26.32a1.53,1.53,0,0,0,2.34.32l.78-.47h.63a2.76,2.76,0,0,1,.91,2.31c0,3,.1,6,.2,8.92C73.13,35.19,73,42.58,72.94,50Z"/><path class="cls-4" d="M98.76,85.1l9.67,0c.31,0,.62,0,.93,0a1.15,1.15,0,0,1,1.24,1.27c0,.45,0,.9,0,1.34,0,1-.42,1.36-1.4,1.38-1.26,0-2.52,0-3.79,0h-2.89c-.17,0-.33,0-.5,0H75.4c-.23,0-.45,0-.67,0h-6.9a1.28,1.28,0,0,1-1.42-1.4c0-.36,0-.73,0-1.09,0-1.14.47-1.55,1.62-1.55l5.65,0H98.76Z"/><path class="cls-6" d="M82.44,73.47H83a4.57,4.57,0,0,0,.66,1l1.47,2.11a37.17,37.17,0,0,1,2.65-4.23,3.48,3.48,0,0,1,2.64-1.6,3.93,3.93,0,0,0-.6,1.1,1.45,1.45,0,0,1-.8,1,1.62,1.62,0,0,0-.91,1.5c.45-.12.45-.52.63-.78.62-.85,1.4-.83,1.94.06a1.76,1.76,0,0,1,.27.7c0,.18.09.33.3.35A31.09,31.09,0,0,0,91.56,78c0,.18-.09.39.17.47.21-.1.14-.29.17-.44v0c.33,0,.48-.26.68-.45.67-.63,1.27-1.34,2-1.92.06.35.09.72.54.82.93,0,1.07-.12,1-1a.16.16,0,0,0-.15-.18c-.12-.4.09-.78.08-1.18a5.57,5.57,0,0,0-.13-3.54,7.46,7.46,0,0,1,2.89,1.25c.23.15.36.44.68.45a3.35,3.35,0,0,1,0,1c-.34,2.78-1,5.52-1.29,8.31a1.18,1.18,0,0,1-.29.8c-5.1,0-10.22,0-15.39,0a5.69,5.69,0,0,1,.1-1,1.88,1.88,0,0,0-.59-2.11,22,22,0,0,0-1.41-3.13,1.17,1.17,0,0,1,.06-1.42A9.42,9.42,0,0,0,82.44,73.47Zm7.67,4c.1-.18.32-.32.2-.63-.27.07-.71-.09-.54.5-.38.16-.23.38-.06.59a1.36,1.36,0,0,1,.44.9,5.76,5.76,0,0,1-2.27-.62c-.32-.17-.66-.38-1,0,0,.19.38.14.32.43-.34-.07-.67-.08-.69.39.07.18.34.2.33.42s-.31,0-.32.26c.13.38.53.4.84.56-.41.39,0,.47.23.54a17.8,17.8,0,0,0,3,.7,12.15,12.15,0,0,0,.69-1.47,1.1,1.1,0,0,0-.3-1.48A4.77,4.77,0,0,1,90.11,77.48Zm6.33,2.71c-.84,0-1.49-.52-2.26-.39a10.35,10.35,0,0,0,2.6.74V76.13A19.59,19.59,0,0,0,96.44,80.19ZM88,75a1.34,1.34,0,0,0,0,1.71Zm.84,2.14c-.21-.11-.37-.52-.69-.12C88.32,77.25,88.53,77.34,88.83,77.09Zm5,2.53c-.29-.16-.52-.35-.89-.15C93.25,79.63,93.48,79.82,93.85,79.62Zm3-4.24c.15-.15.09-.29,0-.48C96.76,75.1,96.75,75.24,96.86,75.38Zm.51,5.26s0,0-.05,0l-.12,0s0,0,0,0Zm-4.77-1.4-.12.05s0,0,0,0l.12,0Z"/><path class="cls-4" d="M109.26,128.83c0,1.87.3,3.71.47,5.57.08.8.1,1.61.18,2.42.12,1.22.2,2.44.37,3.65a4.54,4.54,0,0,1-.08,1.32l-.61,0c-.75,0-.78,0-.82-.81,0-.24.06-.5-.11-.72-.09-1-.17-2.07-.28-3.09-.2-1.75-.42-3.5-.64-5.24-.14-1.1-.29-2.2-.44-3.3-.2-1.76-.38-3.52-.59-5.27-.31-2.47-.65-5-1-7.42s-.59-5.13-.9-7.69-.65-5.23-1-7.84c-.21-1.7-.43-3.39-.63-5.09-.18-1.45-.33-2.89-.49-4.34,1,0,1.87.28,2.82.17a8.27,8.27,0,0,1,.26,2.15c.25,2.09.38,4.19.57,6.29.19,1.95.41,3.9.6,5.86.14,1.5.26,3,.41,4.52.2,2,.42,4,.62,6,.14,1.37.25,2.74.38,4.11.21,2.23.42,4.47.64,6.7A7.13,7.13,0,0,0,109.26,128.83Z"/><path class="cls-3" d="M83.67,45V23.41h18.57c.22.27.12.62.12.94V42.14a14.59,14.59,0,0,0,.1,2.65c-.17.22-.38.17-.57.17-4.27-.08-8.53.2-12.8.13-1.52,0-3,0-4.55,0A1.58,1.58,0,0,1,83.67,45ZM85,43.57h16V24.73H85Z"/><path class="cls-7" d="M81.93,79.23a1.88,1.88,0,0,1,.59,2.11,5.69,5.69,0,0,0-.1,1c5.17.1,10.29,0,15.39,0a1.18,1.18,0,0,0,.29-.8c.32-2.79,1-5.53,1.29-8.31a3.35,3.35,0,0,0,0-1,24.5,24.5,0,0,0,.54-3.06c.35-2.12.66-4.25,1-6.38.24-1.58.48-3.16.7-4.74.14-1.1,0-1.2-1-1.2H87.43c-.8,0-1,.12-1.16.91-.12.51-.21,1-.29,1.57-.3,2-.57,4-.91,6-.36,2.16-.65,4.32-1,6.48a10.54,10.54,0,0,1-.48,2.61,4.57,4.57,0,0,1-.66-1l1.53-9.87c.33-2.07.66-4.14,1-6.21.16-1,.55-1.29,1.54-1.3h14.65a1.15,1.15,0,0,1,.81.14,8.48,8.48,0,0,1-.13,2.51c-.14,1-.23,2.1-.38,3.15-.19,1.29-.44,2.57-.63,3.87s-.33,2.71-.57,4c-.42,2.41-.65,4.85-1.12,7.25-.26,1.32-.4,2.64-.58,4a21.75,21.75,0,0,1-.77,4.08H81.62a1.8,1.8,0,0,1-.33-1.74C81.49,82,81.72,80.61,81.93,79.23Zm8.27,4.53a.73.73,0,0,0-.67-.79,1,1,0,0,0-.84,1,.66.66,0,0,0,.71.65C89.91,84.62,90.19,84.32,90.2,83.76Z"/><path class="cls-7" d="M73.18,67.87c.9,0,1.8,0,2.7,0a.91.91,0,0,1,1,.59c-.54,1.19-1.1,2.44-1.65,3.69s-1.18,2.66-1.76,4a16.8,16.8,0,0,0-1.17,2.32c-.51,1.19-1,2.36-1.56,3.54-.14.32-.31.57-.73.56-2.1,0-4.19.32-6.29.34a4.17,4.17,0,0,1-.5,0c-.43,0-.61-.28-.48-.69s.28-.67.43-1a4.69,4.69,0,0,1,2.5-.8,15.06,15.06,0,0,0,5.19-1.72,4.58,4.58,0,0,0,.91-.59c.25-.24.64-.53.22-1,0,0,0-.08,0-.11A3.9,3.9,0,0,0,73.47,74c-.86,0-1.23.85-2,1,.19-.66,1.05-.85,1-1.6-.42-.15-.66.12-.93.29a12.63,12.63,0,0,1-2.58,1.4,4.78,4.78,0,0,1-2.71.37c.21-1,.83-1.83,1-2.79a2.06,2.06,0,0,0,.44-.79c.47-1,.91-2,1.37-3.06.13-.27.22-.58.53-.73.18,0,.37.06.51-.12Z"/><path class="cls-5" d="M71.63,90.18A8.67,8.67,0,0,1,68.08,90a16.63,16.63,0,0,0-3.58-.33,13,13,0,0,1-2.25-.13c-1-.18-1.1-.24-1.09-1.29a55.21,55.21,0,0,1,.51-6.16,4.46,4.46,0,0,1,1.49-.86,8.65,8.65,0,0,0-.42,1c-.14.4,0,.64.46.69.17,0,.34,0,.51,0,2.11,0,4.19-.39,6.28-.33.44,0,.6-.25.75-.57.52-1.18,1-2.36,1.55-3.54a17.38,17.38,0,0,1,1.17-2.32c.24,3,.2,6,.22,9H68c-1.15,0-1.58.41-1.62,1.55,0,.36,0,.73,0,1.09a1.28,1.28,0,0,0,1.43,1.4c1.31,0,2.63,0,4,0C71.75,89.5,71.92,89.88,71.63,90.18Z"/><path class="cls-4" d="M71.74,16.57l-.62,0c0-.3-.15-.38-.42-.38l-2.69,0a.3.3,0,0,0-.27.18H67c-.13-.19-.33-.18-.53-.18H63.53c-.09-.33.24-.82-.4-1l-.28,1a21.24,21.24,0,0,0-3.19,0c-.2-.29-.43-.29-.68-.05l-8.58,0H30c.09-.39-.47-.8,0-1.17q14.16,0,28.31,0c.49,0,.74-.29,1.12-.54a1.26,1.26,0,0,0,1.31.52,4.82,4.82,0,0,1,.93,0,1.9,1.9,0,0,0,1.63-.47c.39.61,1,.46,1.58.47.36,0,.73,0,1.09,0a1.85,1.85,0,0,0,1.42-.47,5.09,5.09,0,0,0,4.12,0c.43.55,1.06.41,1.66.43a1,1,0,0,0,.92-.43,1.57,1.57,0,0,1,2.19-.13,1.54,1.54,0,0,1,.17,2.12,1.53,1.53,0,0,1-2.19.15c-.7-.73-1.51-.38-2.28-.43C71.81,16.24,71.78,16.44,71.74,16.57Z"/><path class="cls-8" d="M115.52,61.49a18.27,18.27,0,0,0-2.22,0l-.31,0a2.54,2.54,0,0,0-2.65,1,1,1,0,0,1-.82.43,1.28,1.28,0,0,1,0-1c.14-.37,0-.58-.36-.68-.94-.23-1.18-1-1.23-1.79-.08-1.22.19-2.43.18-3.67,0-.73.79-1.26,1.7-1.28,1.12,0,2.24,0,3.36,0a16.61,16.61,0,0,0,2.34,0l.42,0c1.33,0,1.91.65,1.93,2,0,.39,0,.78,0,1.17a16.39,16.39,0,0,1-.19,2.71l-.51.67-.85.27Zm-1.72-4.75a22.29,22.29,0,0,1-.72,2.36c-.37-1.18-.21-2.4-.76-3.61-.47,1-.4,1.92-.74,2.73-1.26-.16-1.57-.12-2,.3h2.32c.15-.33.1-.79.49-1.15.29,1.09.3,2.17.65,3.32.52-1,.47-2,.87-2.86.3.18.23.6.6.76.48-.3,1.12,0,1.82-.32-.69-.24-1.27,0-1.77-.19C114.2,57.7,114.3,57.12,113.8,56.74Z"/><path class="cls-9" d="M128.36,23.83a15.69,15.69,0,0,1-.36-4.16c0-.3,0-.63.33-.9,1.17.76,1.36,2.07,1.75,3.29.29-.22.25-.53.28-.81a11.28,11.28,0,0,1,.57-2.36c.09-.25.18-.54.51-.61.67.47.74.69,1.4,4.37.61-.84,1-1.88,2.14-2.17.34,1.08-.15,2.06-.24,3.15.34-.1.59-.47,1-.18a5.45,5.45,0,0,1-1.15,3.44,1.1,1.1,0,0,1-.31.12c-.81,0-1.63-.1-2.44-.11-1.28,0-2.56,0-3.84,0a8.71,8.71,0,0,1-1.69-4.29,1.44,1.44,0,0,1,1.23.52l.79.74c0,.05,0,.18.13.06Z"/><path class="cls-9" d="M81.56,55.2v1.19a2.26,2.26,0,0,1-1.06-.63A2,2,0,0,0,79,55.21c-1,.08-2-.16-3-.14a1.47,1.47,0,0,1-1.44-1.47c0-.92,0-1.85,0-2.77A1.49,1.49,0,0,1,76,49.35c1.74,0,3.48,0,5.22,0a1.49,1.49,0,0,1,1.53,1.55c0,.84,0,1.69,0,2.53A1.65,1.65,0,0,1,81.56,55.2Zm-1.6-3a.58.58,0,0,0,.68.54c.19,0,.27-.17.28-.35a.5.5,0,0,0-.24-.56C80.3,51.62,80.13,51.89,80,52.16Zm-2.65.05c-.12-.3-.3-.55-.67-.45a.42.42,0,0,0-.29.45c0,.22.09.4.29.45C77,52.76,77.2,52.54,77.31,52.21Zm1.33.49a.46.46,0,0,0,.44-.49c0-.29-.16-.49-.45-.49a.47.47,0,0,0-.5.53A.51.51,0,0,0,78.64,52.7Z"/><path class="cls-8" d="M113.14,71.79c0,.66.49,1.17.6,1.82a3.8,3.8,0,0,1-.34,2.53,1.69,1.69,0,0,0-.23.87.9.9,0,0,0-.69.24,3.79,3.79,0,0,1-4.51.39,3.91,3.91,0,0,1,.58-7,3.78,3.78,0,0,1,3.91.7C112.67,71.52,112.81,71.8,113.14,71.79Zm-4.79,2.69a.39.39,0,0,0,.44.36,2.39,2.39,0,0,0,1-.07c.62.07.67.66,1,1-.49.56-.49.56-.55,1,.46,0,.48-.52.83-.61s.5.54.91.57c.22-.49-.32-.66-.41-1,.15-.29.47-.5.37-.85-.42-.21-.52.38-.92.21a1.88,1.88,0,0,0-.92-1.11c0-.19.13-.2.2-.27.58-.58.67-1,.31-1.55a1.55,1.55,0,0,0-1.66-.5c-.53.2-.75.75-.6,1.48,0,.17.09.33.13.49C108.14,73.89,108.23,74.18,108.35,74.48Z"/><path class="cls-5" d="M134,33.66a.47.47,0,0,1-.15.06,25.93,25.93,0,0,1-5.5-.07,10.47,10.47,0,0,1-.71-3.07c-.11-.6-.16-1.22-.23-1.82H135A29.21,29.21,0,0,1,134,33.66Z"/><path class="cls-9" d="M105.11,51a17.83,17.83,0,0,0-.75-2.56,3.41,3.41,0,0,1,.3-3.86,3.7,3.7,0,0,1,6.53,1.14,3.59,3.59,0,0,1-2.51,4.41c-.08,0-.17,0-.25.05a6.44,6.44,0,0,1-1.75.14C106.12,50.42,105.77,51,105.11,51Zm4.16-5.91c-1.16,0-2.33,0-3.56,0,.12,1.24-.18,2.38.21,3.53a2.29,2.29,0,0,1,1.07-.2h1.86c.27,0,.57,0,.57-.36a9.81,9.81,0,0,0-.15-3c.32-.08.63.47,1,0,.06-.15,0-.27-.07-.4s-.21-.47-.52-.42-.38.28-.35.56A1.06,1.06,0,0,1,109.27,45.12Z"/><path class="cls-10" d="M98.31,85.1A21.75,21.75,0,0,0,99.08,81c.18-1.33.32-2.65.58-4,.47-2.4.7-4.84,1.12-7.25.24-1.34.37-2.7.57-4s.44-2.58.63-3.87c.15-1.05.24-2.11.38-3.15a8.48,8.48,0,0,0,.13-2.51c.73.26.91.46.84,1.22-.09,1-.24,1.9-.38,2.84q-1.24,8.32-2.49,16.66c-.36,2.36-.77,4.71-1.14,7.07a1.75,1.75,0,0,1-.56,1.09Z"/><path class="cls-5" d="M73.18,67.87l-3.06.06c-.06-.51.16-1,.14-1.49-.07-1.82.21-3.63.19-5.44a15.92,15.92,0,0,1,2.22-.71,15.66,15.66,0,0,1,.27,2.82C73.12,64.69,73.11,66.28,73.18,67.87Z"/><path class="cls-2" d="M72.67,60.28a16.41,16.41,0,0,0-2.22.71c-.24,0-.44.17-.67.17a10.73,10.73,0,0,0-1.36.32l-.67,0a7,7,0,0,1-1.84.14,6.15,6.15,0,0,1-.31-2.56A4,4,0,0,0,67.42,59c.18,0,.38.06.51-.13a7.37,7.37,0,0,0,2-.39c.19,0,.34-.08.5-.14l2.16-.7c.06.07.16.12.17.17A7.36,7.36,0,0,1,72.67,60.28Z"/><path class="cls-11" d="M135,28.76h-7.52l-.65-.05a.79.79,0,0,1-.29-.52c-.09-.87,0-1.4,1.07-1.29.14,0,.28,0,.42,0,1.28,0,2.56,0,3.84,0,.81,0,1.63.08,2.44.11a1.1,1.1,0,0,0,.31-.12h.25c1,0,1.23.42.95,1.37C135.65,28.76,135.32,28.74,135,28.76Z"/><path class="cls-12" d="M82.44,73.47a9.42,9.42,0,0,1-1.86,1.21.77.77,0,0,0-.43-.5,11.94,11.94,0,0,1-2.33-2.05c-.32-.3-.44-.59,0-.81,0-.34-.29-.55-.3-.81s.25-.21.37-.26c.11-.21-.15-.4.09-.64s.44.2.71.14c0,.09,0,.21.11.24.07-.13,0-.19-.11-.23s0-.34.19-.54c.92.42,1.24,1.56,2.19,2,.39-.26-.17-1,.58-1.16.19.89.41,1.74.56,2.59A2.35,2.35,0,0,0,82.44,73.47Zm-4.27-3,0,0v0Z"/><path class="cls-3" d="M30,15c-.5.37.06.78,0,1.17l-.05.39h-.75c0-.17-.08-.35-.29-.35H26.18c-.22,0-.26.16-.26.34h-.69v-.34c.18-.42.36-.84,0-1.23.06-.37.29-.66.6-.36a1.24,1.24,0,0,0,1,.27h1.76c.19,0,.4.05.55-.12C29.52,14.32,29.78,14.57,30,15Z"/><path class="cls-13" d="M105.57,91.18c-.95.11-1.87-.21-2.82-.17l-.23-1.84h2.89A11.35,11.35,0,0,1,105.57,91.18Z"/><path class="cls-14" d="M113,61.5l.31,0,0,.52C112.94,62,113,61.72,113,61.5Z"/><path class="cls-5" d="M30.62,20c0,2.8-.17,5.6-.19,8.39,0,.36,0,.74,0,1.1-.13,1.94-.27,3.89-.39,5.84a16,16,0,0,0-.09,1.7,4.33,4.33,0,0,0-.27,1.63,62.26,62.26,0,0,1-1.4,8.59,33.92,33.92,0,0,1-5.06,11.9,15.27,15.27,0,0,1-6.94-1.7A7.41,7.41,0,0,1,16.11,56c-.15-2.1-.12-4.21-.2-6.3-.29-6.79-.14-13.58-.08-20.37,0-2,0-4.09.15-6.13.12-1.54.08-3.08.16-4.62A2,2,0,0,1,17,16.71c.08-.05.09-.2.13-.3h.47a2.7,2.7,0,0,0,1.92,1c.77.11,1.07-.47,1.52-.85.05-.05.1-.14.15-.2h.66a2.28,2.28,0,0,1,.6.67,1.35,1.35,0,0,0,1.88.26,3.2,3.2,0,0,0,.88-.76h.69a2.42,2.42,0,0,1,.61.54,1.3,1.3,0,0,0,1.92,0c.21-.22.48-.35.7-.56h.75c.61.25.56.82.64,1.33C30.56,18.61,30.59,19.29,30.62,20Z"/><path class="cls-4" d="M23.7,140.64l1.2-7.95.63-4.05q.57-3.69,1.13-7.39c.38-2.46.74-4.93,1.11-7.39.14-.94.3-1.88.45-2.87a4.34,4.34,0,0,1-3.3-3.74c-.05-.27-.12-.55-.18-.82q-1.33-6.84-2.66-13.69c-.18-.93-.3-1.88-.55-2.8-.23-1.26-.46-2.52-.7-3.77-.39-2-.71-4.12-1.2-6.14A20.86,20.86,0,0,1,19,74.48c.31-.12.36-.43.5-.67a3.14,3.14,0,0,1,2.63-1,6.26,6.26,0,0,0,.75,0h.51l.33,0c0,.29-.2.45-.38.62a1.27,1.27,0,0,0-.44.79A9.76,9.76,0,0,0,23,76.56c.38,1.76.73,3.53,1.08,5.31l1.62,8c.47,2.32.94,4.63,1.43,6.94.44,2.09.87,4.19,1.36,6.27a4.11,4.11,0,0,0,3.64,3.32,27.52,27.52,0,0,0,3.27.14c.94.23,1.88.5,2.84.67a68.18,68.18,0,0,0,8.66.81c2.27.1,4.53.27,6.81.23,1.42,0,2.84.23,4.27.17a.38.38,0,0,1,.37.16,4.79,4.79,0,0,1-.73,1.85,3.73,3.73,0,0,1-2.31.67H52.41c.06.42.11.69.14,1q.5,3.45,1,6.9c.3,2.22.58,4.44.91,6.66a21.22,21.22,0,0,0,.47,3c.08,1.37.34,2.71.51,4.07.27,2.12.49,4.26.87,6.37a19.24,19.24,0,0,1,.28,2.83l-.43,0c-.75,0-.75,0-.89-.74s-.24-1.3-.35-1.95c-.39-2.31-.77-4.62-1.16-6.92-.22-1.24-.45-2.47-.68-3.7a1.94,1.94,0,0,0,0-.42c-.83-4.71-1.66-9.42-2.52-14.13a21.79,21.79,0,0,0-.59-3H37.07a17.66,17.66,0,0,0-2.52,0H30.72a3.65,3.65,0,0,0-.4,1.5c-.74,3.92-1.48,7.84-2.17,11.77-.26,1.43-.61,2.84-.75,4.29a4.42,4.42,0,0,0-.15.48c-.44,2.3-.92,4.59-1.3,6.9a36.9,36.9,0,0,0-.75,4.45,1.89,1.89,0,0,0-.24.87c-.1.48-.34.67-.81.62-.19,0-.4,0-.55-.11C23.4,141.43,23.76,141.05,23.7,140.64Z"/><path class="cls-5" d="M19,74.48A20.86,20.86,0,0,0,19.63,80c.49,2,.81,4.09,1.2,6.14.24,1.25.47,2.51.7,3.77a28.91,28.91,0,0,1-3.83.4,7.41,7.41,0,0,1-1.88-.4.81.81,0,0,1-.58-.82,58.35,58.35,0,0,1-.09-7.48c.1-2.1,0-4.21.14-6.31.15-2.6.23-5.2.35-7.8.1-2.4.34-4.8.51-7.2a9.6,9.6,0,0,1,2.16.65,10.21,10.21,0,0,0,.16,2c.07,1.54.06,3.07.12,4.61.08,2.06.29,4.13.23,6.2C18.81,74,18.71,74.3,19,74.48Z"/><path class="cls-2" d="M23.32,60c-.11.56-.23,1.12-.35,1.69l-2,0a1.17,1.17,0,0,0-.68-.17A5.69,5.69,0,0,0,19,61.14a1.16,1.16,0,0,0-.67-.17,8.94,8.94,0,0,0-2.16-.63A6.43,6.43,0,0,1,16,57.58c0-.11.15-.12.26-.16a15.27,15.27,0,0,0,6.94,1.7A1.05,1.05,0,0,1,23.32,60Z"/><path class="cls-11" d="M23.7,140.64c.06.41-.3.79-.1,1.23.15.15.36.08.55.11.47.05.71-.14.81-.62a1.89,1.89,0,0,1,.24-.87c.58,0,1.17,0,1.75-.06a22.31,22.31,0,0,1,3.37-.28,5.84,5.84,0,0,1-.16,1.44c1.28.15,1.27.15,1.51-1,0-.21.1-.43.15-.64a29.33,29.33,0,0,0,3.1-.13c1.15-.16,2.34-.05,3.51-.18a40.13,40.13,0,0,1,4.1-.15c3.76,0,7.51-.33,11.27-.21.37,0,.73,0,1.1,0,.11.65.23,1.3.35,1.95s.14.75.89.74l.43,0a19.24,19.24,0,0,0-.28-2.83h1.13c0,.22,0,.44,0,.67a1.18,1.18,0,0,0,1,1.35,4.81,4.81,0,0,0,.65.18c2.51.59,5.06,1,7.6,1.45a5,5,0,0,0,1.84.13c.71-.14.89-.55.51-1.15a6.39,6.39,0,0,0-.47-.59c0-.69.19-1.36.23-2H73l.06.67c.13,1.36.49,1.7,1.85,1.71a72,72,0,0,0,9-.53c.47-.05,1-.08,1.21-.6s-.29-.74-.52-1.07a53.5,53.5,0,0,1,5.37.15c1.34.08,2.68,0,4,.14s2.91.1,4.36.16a49.85,49.85,0,0,0,5,.22h.17a30.94,30.94,0,0,0,5.09.32c.17.22.1.48.11.72,0,.77.07.81.82.81l.61,0a4.54,4.54,0,0,0,.08-1.32c2,.3,4.1.28,6.06,1.15a.87.87,0,0,1-.67.55,30.9,30.9,0,0,1-3.94.68c-2.08.22-4.16.4-6.25.52-1.87.09-3.73.22-5.6.33-2.71.17-5.43.2-8.13.36-2.47.15-4.94,0-7.4.12-10.71.39-21.42.12-32.12.13-2.63,0-5.28,0-7.91-.17-1.57-.09-3.13,0-4.7-.14-2.14-.15-4.29-.22-6.44-.35-1.53-.1-3.07-.14-4.59-.33s-2.88-.26-4.31-.45c-1.19-.16-2.37-.34-3.55-.54a2.64,2.64,0,0,1-1.06-.46c.21-.59.72-.63,1.17-.72C21.79,141,22.75,140.81,23.7,140.64Z"/><path class="cls-15" d="M138.45,93.2a18.11,18.11,0,0,1-2.21-.26c-.15.76-.35,1.51-.45,2.27-.18,1.32-.54,2.61-.78,3.92q-.52,2.75-1.06,5.49c-.11.57.35.52.66.76h-3.27c.13-.42-.18-.55-.47-.69l.07-2c.22,0,.43,0,.43-.34s-.27-.33-.5-.35a1.4,1.4,0,0,0-.07-.57l-.57-.27,0-2.36c.39,0,.86,0,.55-.61a.83.83,0,0,0-.18-.05h-11a1.3,1.3,0,0,0-1.29.89,2.84,2.84,0,0,0,.45,3,1.72,1.72,0,0,0-1.23,1.93c0,.59.39,1,.41,1.6h-2.33V89.71h29.74v15.7c-.21.22-.51.08-.77.12V92.18h-3c-.07-.2.06-.45-.24-.66-.86.14-1.78-.3-2.83-.06Z"/><path class="cls-15" d="M116.36,87.48h-.59a1,1,0,0,1-.21-.08V71.85h29.77V87.57a3.63,3.63,0,0,1-2-.09l-.05-.54V84.29a3.55,3.55,0,0,0,.53-2.4c0-.75-.07-.81-.82-.81H130.85c-.76,0-.8.06-.83.81a8.24,8.24,0,0,1-.05,1.65c-.39.14-.81.1-1.09.37,0,.4.21.37.44.37.1.9,0,1.81.19,2.7-.35,0-.34.26-.33.51a.47.47,0,0,1-.59.14,7.48,7.48,0,0,0-1.7-.16l1-.45a.74.74,0,0,0,0-.51c-.26-1-.51-2.06-.77-3.08-.43-1.64-.73-3.31-1.3-4.92,0-.21.06-.46-.15-.64a6.49,6.49,0,0,0-.49-2c-.6,0-1.11.39-1.65.24-.2-.38,0-.77-.26-1.19h-2.19c0-.38-.17-.48-.52-.47-.67,0-1.35,0-2,0,0-.32,0-.66-.44-.65a5,5,0,0,0-1.72.08v4.76C116.3,81.61,116.37,84.54,116.36,87.48Z"/><path class="cls-15" d="M117.9,57.76c0-.39,0-.78,0-1.17,0-1.35-.6-2-1.93-2l-.42,0c0-.19,0-.39.09-.57a1.31,1.31,0,0,1,.73-.08h28.51a.46.46,0,0,1,.53.51V69.09a.91.91,0,0,1-.12.62,5.48,5.48,0,0,1-1.21.05c-.22-.18-.15-.37-.19-.52V67.91c.07-.22-.14-.36-.15-.56a7.42,7.42,0,0,0,.44-.7,1.25,1.25,0,0,0-1.18-2q-5.57,0-11.13,0c-.2,0-.46-.11-.59.17.05.25.25.29.43.35v1.47c-.42,0-.42.44-.54.62-.3.15-.49-.09-.7,0s-.54.11-.26.46l0,1.52-.22.48c-.52,0-1.07.2-1.58-.14a3.38,3.38,0,0,0,1.39-.53L126.4,57.14c-.69-.14-1.24.53-1.88.22-.14-.32.07-.85-.38-.88a4.4,4.4,0,0,0-2.22.1l-2.08,0c-.92,0-.92,0-1,.92v.25Z"/><path class="cls-15" d="M139.31,39.36c0-.29-.05-.49-.41-.48-.58,0-1.17,0-1.75,0-.4,0-.54.21-.53.58s0,.84,0,1.26l-2.2-.5c.11.51-.18.89-.16,1.34l0,.5a13.34,13.34,0,0,0-.56,2.58c-.37,1.76-.76,3.52-1,5.29-.08.49-.41,1-.12,1.56.44,0,.81.21,1.24.2-.14.27-.39.16-.6.17a35.43,35.43,0,0,0-4.25.12c-.19,0-.31-.11-.36-.29a1.91,1.91,0,0,0,1-.29,1.65,1.65,0,0,0-.06-.71c-.37-1.44-.72-2.9-1.1-4.34a14.06,14.06,0,0,0-.77-2.79l-.08-.48c.06-.32-.15-.57-.2-.86s-.07-.33-.14-.49a3.08,3.08,0,0,0-.3-1.35,11.43,11.43,0,0,1-1.8.43c-.2-.45.06-1-.21-1.44h-2.41c0-.24-.12-.34-.36-.34s-.66,0-1,0c-.51,0-.71.2-.67.69h-1.52c0-.26.09-.56-.13-.79h-2.42v2.14a1.14,1.14,0,0,0-.11,1,8.35,8.35,0,0,1,.12,1.93c0,1.82,0,3.64,0,5.47v2.21a.71.71,0,0,1-.82,0V35.89h29.78V51.74c-.23.23-.53.1-.79.14l0-1v-.48c0-2.93,0-5.87,0-8.8v-.65a7,7,0,0,0,0-1.7c-.56,0-1.09,0-1.6,0s-.83-.17-1.19.15Z"/><path class="cls-4" d="M145.15,126.77h-29.4V108.46h29.4Zm-15-.5V109h-14v17.31Zm.59,0h14.1V109h-14.1Z"/><path class="cls-5" d="M121.92,56.58a4.4,4.4,0,0,1,2.22-.1c.45,0,.24.56.38.88.64.31,1.19-.36,1.88-.22l3.34,11.92a3.38,3.38,0,0,1-1.39.53h-.5L124.58,58l-.16,0v1.42h-2.48Z"/><path class="cls-2" d="M138.45,93.2V91.46c1.05-.24,2,.2,2.83.06.3.21.17.46.24.66s-.22.6-.14.92c-.07,1.53-.26,3.06-.34,4.59-.06,1.31-.2,2.61-.23,3.92s-.18,2.61-.27,3.92c-1,.1-1.91-.21-2.88-.18.05-.58.1-1.17.16-1.75.1-.89.11-1.78.17-2.67.14-2.4.3-4.79.45-7.19Zm1.56,10a13.73,13.73,0,0,1,.13-2.21c0-1.38.29-2.73.19-4.1a.91.91,0,0,1,0-.33c.26-.86,0-1.78.27-2.65.13-.43-.15-.65-.62-.66-.67,0-.85.07-.87.6s0,1,0,1.42c-.2,1.64-.27,3.27-.35,4.92,0,.83-.14,1.66-.15,2.49,0,.51.19.74.69.7A1,1,0,0,0,140,103.16Z"/><path class="cls-2" d="M116.34,41.07v-.53a19.94,19.94,0,0,0,2.45,0,2,2,0,0,0,.1-.78h1.52c.32.23.16.57.16.86,0,3.76,0,7.52,0,11.28H119c-.23-.55,0-1.11-.21-1.7h-2.41v-.66h2.47V41.07Z"/><path class="cls-5" d="M141.38,93.1c-.08-.32.18-.6.14-.92h3v13.35h-2.91c.12-4-.09-8.08-.16-12.12A.37.37,0,0,0,141.38,93.1Zm.83.5c0,1.71,0,3.36,0,5a.58.58,0,0,0,.35.51c.38-.07.83.11,1.23-.11V93.6Zm0,6.25c0,1.38,0,2.69,0,4a.45.45,0,0,0,.52.51c.37,0,.77.11,1.11-.12v-4.4A6.44,6.44,0,0,0,142.18,99.85Z"/><path class="cls-15" d="M124.42,59.48V58.06l.16,0,3.27,11.55c-.17.26-.44.17-.67.17h-2.72l0-.86v-.82c0-2.65,0-5.3,0-8Z"/><path class="cls-5" d="M133.73,51.7c-.43,0-.8-.24-1.24-.2-.29-.56,0-1.07.12-1.56.28-1.77.67-3.53,1-5.29a13.34,13.34,0,0,1,.56-2.58l2.07.52c-.2,1.06-.38,2.12-.59,3.18-.41,2-.84,4.06-1.26,6.09Z"/><path class="cls-9" d="M130.87,102c.23,0,.5,0,.5.35s-.21.32-.43.34H119.31a1,1,0,0,0-1.09,1c0,.72.3,1,1.1,1l11.55,0c.29.14.6.27.47.69a1.29,1.29,0,0,1-.72.15H117.91c0-.56-.4-1-.41-1.6a1.72,1.72,0,0,1,1.23-1.93,1.63,1.63,0,0,0,.89.16H130A1.56,1.56,0,0,0,130.87,102Z"/><path class="cls-5" d="M116.36,87.48c0-2.94-.06-5.87,0-8.8l2,0c.27.17.17.45.17.69v7.08a1.23,1.23,0,0,1-.34,1Z"/><path class="cls-5" d="M117.9,57.76h1c0,2.19.1,4.38,0,6.57-.1,1.76-.08,3.51-.15,5.42h-2.34c0-2.78,0-5.57,0-8.35l.85-.27V68a.94.94,0,0,0,.85-.08c0-.78,0-1.62,0-2.46a26,26,0,0,1,.13-3.94c.06-.38.25-1-.48-1.05A16.39,16.39,0,0,0,117.9,57.76Z"/><path class="cls-14" d="M125.83,78.5c.57,1.61.87,3.28,1.3,4.92.26,1,.51,2,.77,3.08a.74.74,0,0,1,0,.51l-1,.45h-.67c-.16-.67-.33-1.35-.49-2-.53-2.19-1.14-4.35-1.59-6.56A7,7,0,0,0,125.83,78.5Z"/><path class="cls-15" d="M127.7,51.87H125l0-2.36v-.67c0-1.85,0-3.71,0-5.57V41.74c0-.18,0-.37.06-.55.37.19.15.66.43.9l0,.49.26.86c.09.23,0,.51.2.7a14.31,14.31,0,0,0,.63,2.68C126.92,48.51,127.44,50.16,127.7,51.87Z"/><path class="cls-14" d="M130.15,69.25l0-1.52c4.56.07,9.12-.13,13.68.18v1.33Zm2.57-1.16a7,7,0,0,0,2.8.32c.92,0,1.85,0,2.78,0a5.48,5.48,0,0,0,2.74-.31Zm8.16.53h-8.7v.17C135.08,68.48,138,69.28,140.88,68.62Z"/><path class="cls-15" d="M124.14,78.89c.45,2.21,1.06,4.37,1.59,6.56.16.67.33,1.35.49,2h-2.79V76.82l.15,0L124,78.2A1.07,1.07,0,0,0,124.14,78.89Z"/><path class="cls-5" d="M127.7,51.87c-.26-1.71-.78-3.36-1.13-5a14.31,14.31,0,0,1-.63-2.68,11.65,11.65,0,0,0,1.63-.57,14.06,14.06,0,0,1,.77,2.79c.38,1.44.73,2.9,1.1,4.34a1.65,1.65,0,0,1,.06.71,1.91,1.91,0,0,1-1,.29C128.23,51.69,128,51.93,127.7,51.87Z"/><path class="cls-4" d="M120.59,51.87c0-3.76,0-7.52,0-11.28,0-.29.16-.63-.16-.86,0-.49.16-.72.67-.69.33,0,.66,0,1,0s.35.1.36.34a16.87,16.87,0,0,1,.16,2.35v1.54l0,4.55v4a.34.34,0,0,1-.44.14A4.16,4.16,0,0,0,120.59,51.87ZM121,41.12a1.75,1.75,0,0,0-.08.8c0,2.55,0,5.1,0,7.66V50c0,.34.17.5.52.51.52,0,.66-.11.66-.79,0-2.69,0-5.39,0-8.08,0-.19,0-.4-.15-.55A2,2,0,0,0,121,41.12Z"/><path class="cls-2" d="M124,78.2l-.38-1.41-.15,0V79.2h-2.33V75h2.19c.27.42.06.81.26,1.19.54.15,1-.2,1.65-.24a6.49,6.49,0,0,1,.49,2A9.13,9.13,0,0,1,124,78.2Z"/><path class="cls-5" d="M124.43,60.12c0,2.66,0,5.31,0,8h-2.51V60.12Zm-.82,7c0-1.25,0-2.52,0-3.79a2.89,2.89,0,0,1,.27-1.62c.3-.48,0-.85-.58-.89h-.5c-.44,0-.61.23-.45.67a13.79,13.79,0,0,1,.42,3.13,8.56,8.56,0,0,1-.15,1.75C122.55,67.15,122.7,67.26,123.61,67.11Z"/><path class="cls-14" d="M141.67,51.86h-2.34V46.33l2.33,0,0,4v1.52Z"/><path class="cls-14" d="M123.42,81.93v5.55H121.1V81.93Z"/><path class="cls-15" d="M134.43,51.86c.42-2,.85-4.06,1.26-6.09.21-1.06.39-2.12.59-3.18l.08-.67.25-.52.18.18v1.51c.08,1.27-.23,2.52-.17,3.79,0,.26-.12.56.17.77v1.52c-.29.2-.15.5-.16.76,0,.61,0,1.22,0,1.85A9.57,9.57,0,0,1,134.43,51.86Z"/><path class="cls-15" d="M138.44,93.74c-.15,2.4-.31,4.79-.45,7.19-.06.89-.07,1.78-.17,2.67-.06.58-.11,1.17-.16,1.75-.45.35-.95.12-1.42.15a.82.82,0,0,1-.1-.83,28.3,28.3,0,0,0,1-4.81c.35-2,.68-3.93,1-5.9C138.17,93.78,138.29,93.74,138.44,93.74Z"/><path class="cls-2" d="M139.31,39.36h2.37v.18c0,1.35,0,2.7,0,4.05h-2.35C139.32,42.18,139.31,40.77,139.31,39.36Z"/><path class="cls-15" d="M141.38,93.1a.37.37,0,0,1,.1.3c.07,4,.28,8.08.16,12.12h-1.1c.09-1.31.23-2.61.27-3.92S141,99,141,97.69C141.12,96.16,141.31,94.63,141.38,93.1Z"/><path class="cls-2" d="M120.84,66.82a1.5,1.5,0,0,1-.81,0c-.19-.19-.12-.43-.13-.64,0-1.12,0-2.25,0-3.37,0-.84-.27-1.66-.17-2.5a2.38,2.38,0,0,1,.08-.78,1.83,1.83,0,0,1,1,0Z"/><path class="cls-5" d="M143.32,86.94l.05.54H129.18c0-.25,0-.49.33-.51H139C140.46,87,141.89,87,143.32,86.94Z"/><path class="cls-15" d="M116.35,61.41c0,2.78,0,5.57,0,8.35a1.89,1.89,0,0,1-.84-.11V61.49Z"/><path class="cls-2" d="M135.24,101.3c.41-2.21.81-4.36,1.21-6.47.36-.08.54.14.89.12-.37,2.28-.74,4.48-1.23,6.62C135.69,101.71,135.49,101.52,135.24,101.3Z"/><path class="cls-5" d="M139.32,43.59h2.35v2.71l-2.33,0Z"/><path class="cls-5" d="M123.42,81.93H121.1V79.21h2.33Z"/><path class="cls-5" d="M122.6,51.87V49.5H125l0,2.36Z"/><path class="cls-5" d="M116.39,76.19V73.92a5,5,0,0,1,1.72-.08c.43,0,.44.33.44.65-.09.56.21,1.17-.19,1.69Z"/><path class="cls-5" d="M141.67,51.86V51a27.09,27.09,0,0,1,2.85-.19l0,1A5.38,5.38,0,0,1,141.67,51.86Z"/><path class="cls-5" d="M136.61,41.4l-.25.52a9.4,9.4,0,0,0-2.11-.35c0-.45.27-.83.16-1.34l2.2.5Z"/><path class="cls-5" d="M124.44,68.9l0,.86h-2.37c-.24-.31-.13-.6-.15-.86Z"/><path class="cls-11" d="M121.44,68.07a.85.85,0,0,1,.08.78,18,18,0,0,1-2.31.07.81.81,0,0,1-.08-.79A19.57,19.57,0,0,1,121.44,68.07Z"/><path class="cls-2" d="M124.44,68.9h-2.5v-.83h2.51Z"/><path class="cls-2" d="M118.38,78.7l-2,0v-1l1.55,0c.25,0,.43,0,.45.34Z"/><path class="cls-2" d="M116.39,76.19h2l0,.33c0,.21.07.45-.18.65h-1.8Z"/><path class="cls-2" d="M118.91,77.71h1.83c.27.84.19,1-.62,1-.37,0-.73,0-1,0-.26-.21-.16-.46-.2-.67Z"/><path class="cls-2" d="M118.89,76.51c0-.24.14-.34.38-.33h1.34a1.11,1.11,0,0,1,0,1c-.6,0-1.2.22-1.77-.13Z"/><path class="cls-2" d="M124.43,60.12h-2.49v-.63h2.48Z"/><path class="cls-2" d="M119.11,58h2.3c.23.16.15.35.12.58a16,16,0,0,1-2.28.06C119,58.43,119.09,58.24,119.11,58Z"/><path class="cls-5" d="M118.89,76.51V77c-.23,0-.34.11-.34.35s.15.32.36.35l0,.31h-.49c0-.29-.2-.35-.45-.34l-1.55,0v-.55h1.8c.25-.2.15-.44.18-.65Z"/><path class="cls-2" d="M136.8,42.06v-.48h1.86c.21,0,.48,0,.43.44A17.26,17.26,0,0,1,136.8,42.06Z"/><path class="cls-11" d="M136.79,43.09v-.5h1.93c.25,0,.46,0,.34.5Z"/><path class="cls-2" d="M136.79,48.14v-.49h2.35C138.9,48.18,138.9,48.18,136.79,48.14Z"/><path class="cls-2" d="M136.79,49.17v-.49h1.92c.25,0,.44,0,.34.5Z"/><path class="cls-16" d="M25.23,16.59a3.2,3.2,0,0,1-.88.76,1.33,1.33,0,0,1-1.87-.26c-.2-.23-.33-.52-.62-.67.11-.23.33-.18.52-.18h2.84Z"/><path class="cls-16" d="M21.21,16.41a1.49,1.49,0,0,1-.15.2c-.45.39-.75,1-1.52.85a2.7,2.7,0,0,1-1.92-1A8.05,8.05,0,0,1,21.21,16.41Z"/><path class="cls-17" d="M53.35,68.88s0-.1,0-.16a3.54,3.54,0,0,1,.38.68s0,0,0,0a3.37,3.37,0,0,0,.75.56L53,65.12v0c-.16-.11-.18-.3-.23-.48h0l0,0a5.89,5.89,0,0,0-3.68-3.69l-.87-.32c-.28.26-.12.56-.08.86A1.57,1.57,0,0,1,47.59,63a1.52,1.52,0,0,1-1.29.17A6.62,6.62,0,0,1,42,60.28c0-.05,0-.16,0-.24a12.63,12.63,0,0,0-3.72,1,6.64,6.64,0,0,0-3.67,4.22l-.06.2a1.31,1.31,0,0,1-.08.21v0c-.15.66-.33,1.57-.58,2.72a18,18,0,0,0-.38,3.17h.22V74a42.48,42.48,0,0,1-.2,5.17,32,32,0,0,1-1,6c-.2.84-.42,1.67-.63,2.5,0,.15-.07.26-.23.31a2.13,2.13,0,0,1-.09,1.06,26.38,26.38,0,0,0-.5,2.77.82.82,0,0,0,.47.89,35.43,35.43,0,0,0,8.46,1.73h.33c.84,0,1.68,0,2.52,0a19.07,19.07,0,0,0,5.72-.77,2.48,2.48,0,0,1,.65-.12c.95-.43,1.95-.76,2.86-1.28a2,2,0,0,1,.57-.11,29.68,29.68,0,0,1,.22-4.9h-.09a1.19,1.19,0,0,0-.74.22,13.53,13.53,0,0,1-6,1.37,4.79,4.79,0,0,1-3.87-2,40.79,40.79,0,0,1-3-4.79,2.05,2.05,0,0,0-.9-1A2.33,2.33,0,0,1,37,79.69a44.68,44.68,0,0,1-1.86-7.1,1.78,1.78,0,0,1,.08-.32c.94,2.07,1.54,4.15,2.51,6a6.62,6.62,0,0,0,1.4,0,4.17,4.17,0,0,1,1.34-.41c1-.28,1.94-.77,2.93-1.14l2.46-1.7c1,1.69,1.67,3.5,2.76,5.16a27.21,27.21,0,0,0,4.4-.88c.15-1.26.66-2.41.93-3.64a4.5,4.5,0,0,1,.44-1.59c-.3-.36-.2-.82-.25-1.21C54,71.57,53.62,70.24,53.35,68.88Zm-7.21,5.48c-.42-1-.73-2-1.18-3-.6-1.27-1.16-2.54-1.74-3.81a.49.49,0,0,1,0-.47,29.85,29.85,0,0,1,3.44,7.4C46.36,74.72,46.25,74.64,46.14,74.36Z"/><path class="cls-1" d="M65.91,61.66a52,52,0,0,0-2.14,6.42c-.33,1.18-.49,2.39-.9,3.55H54.6a22.07,22.07,0,0,1-.9-2.2,3.37,3.37,0,0,0,.75.56L53,65.12h0a.86.86,0,0,0,.49-.35,5.44,5.44,0,0,0,1.32-4.38c-.14-1.37-.57-2.69-.84-4-.49-2.44-.55-4.83.8-7.1a5.9,5.9,0,0,0,.6-4.26,4.55,4.55,0,0,0-3.62-4,1.8,1.8,0,0,1-.82-.4,7.22,7.22,0,0,0-5.64-1.72V37H59a18.45,18.45,0,0,1,.35,2.66c.71,5.6,1.71,11.1,4.37,16.17C64.25,57,65,58,65.6,59.1A6.15,6.15,0,0,0,65.91,61.66Z"/><path class="cls-1" d="M43.47,37v2.4a21.67,21.67,0,0,0-3.72,2.2,2.65,2.65,0,0,0-1,.89,4.36,4.36,0,0,0-1,1.56,9.11,9.11,0,0,0-.61,2.36A6.38,6.38,0,0,1,35,50.7c-.61.5-1.19,1-1.75,1.57a5.93,5.93,0,0,0-1.69,5.25c0,.17,0,.39.24.45a.58.58,0,0,0,0-.1c0-.11,0-.22,0-.33a6.27,6.27,0,0,1,2.62-5.95c.35-.28.68-.59,1-.89a6.08,6.08,0,0,0,2-3.7,10.56,10.56,0,0,1,.84-3.16c.14-.27.18-.69.65-.64a8.13,8.13,0,0,0-1,3.1,8.52,8.52,0,0,1-3,6l-.24.25a5.73,5.73,0,0,0-1.94,4.81,6.77,6.77,0,0,1-.37,2.56,5.23,5.23,0,0,0-.18,2.66,5.41,5.41,0,0,0,2.08,3.37c.1-.1.12-.11.13-.14l0-.08c-.15.66-.33,1.57-.58,2.72a18,18,0,0,0-.38,3.17H25.9a1.82,1.82,0,0,1-.14-.39A49.15,49.15,0,0,0,23,61.69c.12-.57.24-1.13.35-1.69a1.05,1.05,0,0,0-.13-.88,33.92,33.92,0,0,0,5.06-11.9,62.26,62.26,0,0,0,1.4-8.59A4.33,4.33,0,0,1,29.92,37Z"/><path class="cls-8" d="M58.27,20c0,1.17,0,2.35,0,3.52,0,2.33.17,4.65.22,7,0,1.56.19,3.12.29,4.68-.42,0-.8.17-1.24.17-3.85,0-7.7,0-11.55,0-.22,0-.45.06-.66-.14V20Z"/><path class="cls-14" d="M59,37H45.31v1.9l-1.84.48V37H29.92A16,16,0,0,1,30,35.3H43.39V20H30.62c0-.68-.06-1.36-.08-2H58.28c0,.68,0,1.37,0,2H45.35V35.18c.2.2.45.13.66.13,3.85,0,7.7,0,11.55,0,.44,0,.82-.18,1.24-.18C58.75,35.79,59.06,36.39,59,37Z"/><path class="cls-16" d="M58.28,17.94H30.54c-.08-.51,0-1.07-.64-1.33l.05-.39H50.4l8.58,0v.35A1.39,1.39,0,0,0,58.28,17.94Z"/><path class="cls-3" d="M67.93,58.82c-.13.19-.33.12-.51.13A5.87,5.87,0,0,0,66.68,57,46.43,46.43,0,0,1,63,45.59c-.29-1.7-.49-3.41-.67-5.12S62.13,37,62,35.21c-.22-2.44,0-4.87-.13-7.3a.31.31,0,0,1,.12-.22c0,.85.19,1.66.2,2.49,0,1.37.23,2.72.31,4.08.06.89.2,1.77.23,2.66,0,1.17.25,2.32.41,3.48.18,1.35.37,2.69.58,4,.27,1.71.67,3.38,1.09,5a57.29,57.29,0,0,0,3.1,9.09A.93.93,0,0,1,67.93,58.82Z"/><path class="cls-3" d="M70.45,58.28a.9.9,0,0,1-.5.16c-.25-1.54-.28-3.1-.47-4.65-.1-.82-.18-1.66-.22-2.5a22.38,22.38,0,0,0-.3-3.16,2.07,2.07,0,0,1,0-.5,35.57,35.57,0,0,0-.32-4.5c-.11-.89-.12-1.79-.15-2.68,0-1.51-.17-3-.25-4.52-.1-1.68,0-3.37-.17-5A27.63,27.63,0,0,1,68,27a9.3,9.3,0,0,1,.22,1.56c0,1.93.26,3.84.4,5.76a49.17,49.17,0,0,0,.44,5,21.54,21.54,0,0,1,.14,2.42c.06,1.14.19,2.28.25,3.43a23.39,23.39,0,0,0,.27,3,18,18,0,0,1,.16,2.33c.06,1.14.18,2.28.24,3.43a20.83,20.83,0,0,0,.28,3.15A7.72,7.72,0,0,1,70.45,58.28Z"/><path class="cls-16" d="M63.53,16.24h2.92c.2,0,.4,0,.53.18a2.54,2.54,0,0,0-.66.61,1.34,1.34,0,0,1-2,.22c-.26-.21-.5-.43-.75-.65Z"/><path class="cls-16" d="M59.66,16.29a21.24,21.24,0,0,1,3.19,0,.76.76,0,0,0,0,.15c-.09.1-.18.21-.28.31-1,1.1-1.49,1.11-2.62.07l-.25-.22Z"/><path class="cls-16" d="M67.74,16.42a.3.3,0,0,1,.27-.18l2.69,0c.27,0,.43.08.42.38-.25.15-.52.3-.77.46A1.53,1.53,0,0,1,68,16.74C67.91,16.64,67.83,16.53,67.74,16.42Z"/><path class="cls-3" d="M62.84,16.42a.76.76,0,0,1,0-.15l.28-1c.64.18.31.67.4,1v.35A1.1,1.1,0,0,1,62.84,16.42Z"/><path class="cls-3" d="M59.66,16.29l0,.29H59v-.35C59.23,16,59.46,16,59.66,16.29Z"/><path class="cls-13" d="M74.73,89.18a6.25,6.25,0,0,1-.22,1.5,15.75,15.75,0,0,0-2.89.5c0-.33,0-.67,0-1,.29-.3.12-.68.17-1Z"/><path class="cls-14" d="M83.61,74.49a10.54,10.54,0,0,0,.48-2.61c.33-2.16.62-4.32,1-6.48.34-2,.61-4,.91-6,.08-.53.17-1.06.29-1.57.2-.79.36-.91,1.16-.91h13.24c1,0,1.13.1,1,1.2-.22,1.58-.46,3.16-.7,4.74-.32,2.13-.63,4.26-1,6.38a24.5,24.5,0,0,1-.54,3.06c-.32,0-.45-.3-.68-.45a7.46,7.46,0,0,0-2.89-1.25c-.23-.16-.42-.42-.76-.28,0-.56,0-1.12,0-1.67,0-.85.17-1.63,1.17-2a1,1,0,0,0,.62-1.37,2.23,2.23,0,0,1-.12-.57,3.3,3.3,0,0,0,.69-2A1.43,1.43,0,0,0,96.63,61a1.87,1.87,0,0,0-2-2.05,4,4,0,0,0-.84.06,1.93,1.93,0,0,1-1.67-.35,2.29,2.29,0,0,0-.51-.28,1.09,1.09,0,0,0-1.62.51c-.1.16-.12.31-.38.39a1.17,1.17,0,0,0-.78,1.75,4.54,4.54,0,0,0,.66.87,2.61,2.61,0,0,0,.2,2.18c0,.92,0,1.84,0,2.76a2.21,2.21,0,0,0,1.87,2.38l-.06,1-.14.19h-.2c-.33,0-.54.2-.79.33a3.48,3.48,0,0,0-2.64,1.6,37.17,37.17,0,0,0-2.65,4.23Z"/><path class="cls-18" d="M91.56,78a31.09,31.09,0,0,1-.36-3.33v-.8c0-.73,0-1.46,0-2.19,0-.27-.11-.57.16-.78.19.66.67.85,1.33.89a4,4,0,0,0,2.2-.88,1,1,0,0,1-.11.56c-.53,1.11-1.09,2.2-1.56,3.33A17.05,17.05,0,0,0,91.9,78v0Z"/><path class="cls-12" d="M90.11,77.48A4.77,4.77,0,0,0,91,78.59a1.1,1.1,0,0,1,.3,1.48,12.15,12.15,0,0,1-.69,1.47,17.8,17.8,0,0,1-3-.7c-.2-.07-.64-.15-.23-.54-.31-.16-.71-.18-.84-.56,0-.23.21-.17.32-.26s-.26-.24-.33-.42c0-.47.35-.46.69-.39.06-.29-.27-.24-.32-.43.31-.4.65-.19,1,0a5.76,5.76,0,0,0,2.27.62,1.36,1.36,0,0,0-.44-.9c-.17-.21-.32-.43.06-.59Zm-2.27,1.39c0,.12.1.2.24,0l-.25,0c-.06-.12-.14-.2-.27-.07A.32.32,0,0,0,87.84,78.87Z"/><path class="cls-16" d="M91.9,78a17.05,17.05,0,0,1,1.35-3.21c.47-1.13,1-2.22,1.56-3.33a1,1,0,0,0,.11-.56h0c.11,0,.14-.1.13-.2l.06-.37a2.68,2.68,0,0,1,.75,2.6,4.33,4.33,0,0,1-1.27,1.29,2,2,0,0,1,.17,1.08l-.19.32c-.72.58-1.32,1.29-2,1.92C92.38,77.77,92.23,78,91.9,78Z"/><path class="cls-7" d="M91.21,73.89v.8c-.21,0-.28-.17-.3-.35a1.76,1.76,0,0,0-.27-.7c-.54-.89-1.32-.91-1.94-.06-.18.26-.18.66-.63.78a1.62,1.62,0,0,1,.91-1.5,1.45,1.45,0,0,0,.8-1,3.93,3.93,0,0,1,.6-1.1c.25-.13.46-.38.79-.33-.48.66-1.24,1.15-1.28,2.13C90.55,72.77,90.8,73.41,91.21,73.89Z"/><path class="cls-16" d="M96.44,80.19a19.59,19.59,0,0,1,.34-4.06v4.41a10.35,10.35,0,0,1-2.6-.74C95,79.67,95.6,80.17,96.44,80.19Z"/><path class="cls-7" d="M95.86,73a2.68,2.68,0,0,0-.75-2.6v0c.34-.14.53.12.76.28A5.57,5.57,0,0,1,96,74.15h-.21Z"/><path class="cls-7" d="M94.57,75.66l.19-.32c.18,0,.3-.22.51-.16.18.24.43.11.65.15a.16.16,0,0,1,.15.18,1.35,1.35,0,0,1-1,1C94.66,76.38,94.63,76,94.57,75.66Z"/><path class="cls-14" d="M88,75v1.71A1.34,1.34,0,0,1,88,75Z"/><path class="cls-10" d="M95.11,76.48a1.35,1.35,0,0,0,1-1C96.18,76.36,96,76.5,95.11,76.48Z"/><path class="cls-10" d="M90.11,77.48l-.34-.13c-.17-.59.27-.43.54-.5C90.43,77.16,90.21,77.3,90.11,77.48Z"/><path class="cls-10" d="M88.83,77.09c-.3.25-.51.16-.69-.12C88.46,76.57,88.62,77,88.83,77.09Z"/><path class="cls-10" d="M95.92,75.33c-.22,0-.47.09-.65-.15.5-.18.39-.66.52-1H96C96,74.55,95.8,74.93,95.92,75.33Z"/><path class="cls-16" d="M93.85,79.62c-.37.2-.6,0-.89-.15C93.33,79.27,93.56,79.46,93.85,79.62Z"/><path class="cls-16" d="M91.56,78l.34,0c0,.15,0,.34-.17.44C91.47,78.41,91.57,78.2,91.56,78Z"/><path class="cls-16" d="M96.86,75.38c-.11-.14-.1-.28,0-.48C97,75.09,97,75.23,96.86,75.38Z"/><path class="cls-16" d="M97.37,80.64l-.12,0s0,0,0,0l.12,0S97.35,80.62,97.37,80.64Z"/><path class="cls-16" d="M92.6,79.24l.05.05-.12,0s0,0,0,0Z"/><path class="cls-2" d="M77.21,128.66H107.3c.15,1.1.3,2.2.44,3.3.22,1.74.44,3.49.64,5.24.11,1,.19,2.06.28,3.09a30.94,30.94,0,0,1-5.09-.32h-.17a49.85,49.85,0,0,1-5-.22c-1.45-.06-2.92,0-4.36-.16s-2.69-.06-4-.14a53.5,53.5,0,0,0-5.37-.15,23,23,0,0,0-3.91-1.53,14.31,14.31,0,0,0-2.63-.82,17.26,17.26,0,0,0-.52-2.87.4.4,0,0,0,.36-.47c0-.36,0-.72-.1-1.08C77.58,131.24,77.4,130,77.21,128.66Z"/><path class="cls-8" d="M85,43.57V24.73h16V43.57ZM99,26.79H87.05c-.29,4.93.31,9.8,0,14.79,3.94,0,7.9,0,11.88,0Z"/><path class="cls-10" d="M90.2,83.76c0,.56-.29.86-.8.84a.66.66,0,0,1-.71-.65,1,1,0,0,1,.84-1A.73.73,0,0,1,90.2,83.76Z"/><path class="cls-12" d="M72,77c1.09-.72,1.3-1.84,1.47-3.07-.85,0-1.23.85-2,1,.19-.66,1.05-.84,1-1.61-.42-.14-.66.13-.94.3A11.81,11.81,0,0,1,68.94,75a4.79,4.79,0,0,1-2.71.39c.2-1,.83-1.84,1-2.8-.34,0-.49.22-.69.4s-.36.45-.68.45a.52.52,0,0,1-.33.5,8.34,8.34,0,0,0-1.7,2.26c-.37.92-1.22,1.1-2,1.25-1.93.35-3.83.86-5.76,1.28a12.38,12.38,0,0,1-3,.61,27.21,27.21,0,0,1-4.4.88c-1.09-1.66-1.76-3.47-2.76-5.16l-2.46,1.7c0,.35-.18.5-.46.61a13.27,13.27,0,0,0-2.06,1.27c-.44.28-.59.79-1,1.06a22,22,0,0,0,4.38,6.6,3.81,3.81,0,0,0,3.38,1,25.2,25.2,0,0,0,5.22-1.43l.11,0c1.08-.4,2.16-.86,3.23-1.33,1.39-.6,2.74-1.26,4.12-1.89.45-.2.79-.67,1.35-.59a4.46,4.46,0,0,1,1.49-.86,4.72,4.72,0,0,1,2.5-.8,15.15,15.15,0,0,0,5.18-1.72,4,4,0,0,0,.92-.59c.25-.24.64-.53.22-1a.2.2,0,0,1-.25.16C71.73,77.11,71.84,77.06,72,77Zm-.87-1.88c0,.11-.07.15-.17.16h0c0,.1-.09.17-.21.1,0-.13.12-.09.21-.1h0c0-.1.06-.15.17-.16a.51.51,0,0,1,.09-.13C71.32,75.17,71.18,75.14,71.13,75.16Z"/><path class="cls-5" d="M67.27,72.63c-.33,0-.49.23-.69.41s-.36.44-.67.44a7.77,7.77,0,0,1,.14-1.73c.24-1.76.6-3.49,1-5.23s.93-3.36,1.42-5a10.17,10.17,0,0,1,1.35-.31c.12,2.3-.26,4.58-.17,6.88-.31.15-.4.46-.53.73-.46,1-.9,2-1.37,3.06A2.06,2.06,0,0,1,67.27,72.63Z"/><path class="cls-3" d="M69.61,68.05c-.09-2.3.29-4.58.17-6.88.24,0,.42-.21.67-.17,0,1.81-.26,3.62-.19,5.44,0,.48-.2,1-.14,1.49C70,68.11,69.79,68.05,69.61,68.05Z"/><path class="cls-3" d="M72,77.15a.2.2,0,0,1-.26.15c0-.18.12-.24.28-.26C72,77.07,72,77.11,72,77.15Z"/><path class="cls-16" d="M71.63,90.18c0,.33,0,.67,0,1a1.51,1.51,0,0,0-.12.31c-.25,2.77-.5,5.55-.74,8.31-.45-.29-.67-.8-1.11-1.13A20.34,20.34,0,0,0,65,96.26a103.09,103.09,0,0,0-12.41-4.12,29.68,29.68,0,0,1,.22-4.9h0L53,85.89c1.08-.4,2.16-.86,3.23-1.33,1.39-.6,2.74-1.26,4.12-1.89.45-.2.79-.67,1.35-.59a55.21,55.21,0,0,0-.51,6.16c0,1.05.08,1.11,1.09,1.29a13,13,0,0,0,2.25.13,16.63,16.63,0,0,1,3.58.33A8.67,8.67,0,0,0,71.63,90.18Z"/><path class="cls-17" d="M53,85.89l-.22,1.35h-.06a1.19,1.19,0,0,0-.74.22,13.53,13.53,0,0,1-6,1.37,4.79,4.79,0,0,1-3.87-2,40.79,40.79,0,0,1-3-4.79,2.05,2.05,0,0,0-.9-1A2.33,2.33,0,0,1,37,79.69a44.68,44.68,0,0,1-1.86-7.1,1.78,1.78,0,0,1,.08-.32c.94,2.07,1.54,4.15,2.51,6a6.62,6.62,0,0,0,1.4,0,3,3,0,0,0,.71,1.39,22,22,0,0,0,4.38,6.6,3.81,3.81,0,0,0,3.38,1,25.2,25.2,0,0,0,5.22-1.43Z"/><path class="cls-19" d="M53,85.89l-.22,1.35h-.06a1.19,1.19,0,0,0-.74.22,13.53,13.53,0,0,1-6,1.37,4.79,4.79,0,0,1-3.87-2,40.79,40.79,0,0,1-3-4.79,2.05,2.05,0,0,0-.9-1A2.33,2.33,0,0,1,37,79.69a44.68,44.68,0,0,1-1.86-7.1,1.78,1.78,0,0,1,.08-.32c.94,2.07,1.54,4.15,2.51,6a6.62,6.62,0,0,0,1.4,0,3,3,0,0,0,.71,1.39,22,22,0,0,0,4.38,6.6,3.81,3.81,0,0,0,3.38,1,25.2,25.2,0,0,0,5.22-1.43Z"/><path class="cls-2" d="M117.71,60.47c.73.09.54.67.48,1.05a26,26,0,0,0-.13,3.94c0,.84,0,1.68,0,2.46a.94.94,0,0,1-.85.08V61.14Z"/><path class="cls-3" d="M113.8,56.74c.5.38.4,1,.74,1.34.5.16,1.08,0,1.77.19-.7.36-1.34,0-1.82.32-.37-.16-.3-.58-.6-.76-.4.86-.35,1.86-.87,2.86-.35-1.15-.36-2.23-.65-3.32-.39.36-.34.82-.49,1.15h-2.32c.45-.42.76-.46,2-.3.34-.81.27-1.75.74-2.73.55,1.21.39,2.43.76,3.61A22.29,22.29,0,0,0,113.8,56.74Z"/><path class="cls-16" d="M128.36,23.83l.1.09c-.1.12-.1,0-.13-.06Z"/><path class="cls-8" d="M80,52.16c.17-.27.34-.54.72-.37a.5.5,0,0,1,.24.56c0,.18-.09.33-.28.35A.58.58,0,0,1,80,52.16Z"/><path class="cls-8" d="M77.31,52.21c-.11.33-.3.55-.67.45-.2,0-.28-.23-.29-.45a.42.42,0,0,1,.29-.45C77,51.66,77.19,51.91,77.31,52.21Z"/><path class="cls-8" d="M78.64,52.7a.51.51,0,0,1-.51-.45.47.47,0,0,1,.5-.53c.29,0,.44.2.45.49A.46.46,0,0,1,78.64,52.7Z"/><path class="cls-11" d="M108.43,73.64c0-.16-.1-.32-.13-.49-.15-.73.07-1.28.6-1.48a1.55,1.55,0,0,1,1.66.5c.36.52.27,1-.31,1.55-.07.07-.2.08-.2.27A1.88,1.88,0,0,1,111,75.1c.4.17.5-.42.92-.21.1.35-.22.56-.37.85.09.34.63.51.41,1-.41,0-.42-.71-.91-.57s-.37.64-.83.61c.06-.47.06-.47.55-1-.32-.32-.37-.91-1-1a.29.29,0,0,0-.15-.31C109.49,73.79,109.38,73.71,108.43,73.64Zm1-1.54c-.45,0-.66.2-.63.58a1,1,0,0,0,.85.77.69.69,0,0,0,.67-.7C110.27,72.35,109.91,72.09,109.39,72.1Z"/><path class="cls-16" d="M108.43,73.64c.95.07,1.06.15,1.17.82l-1.25,0C108.23,74.18,108.14,73.89,108.43,73.64Z"/><path class="cls-4" d="M108.35,74.48l1.25,0a.29.29,0,0,1,.15.31,2.39,2.39,0,0,1-1,.07A.39.39,0,0,1,108.35,74.48Z"/><path class="cls-16" d="M109.27,45.11a9.81,9.81,0,0,1,.15,3c0,.31-.3.36-.57.36H107a2.29,2.29,0,0,0-1.07.2c-.39-1.15-.09-2.29-.21-3.53,1.23-.07,2.4,0,3.56,0Zm-.19.34a29.62,29.62,0,0,0-3,0c0,.92-.07,1.75,0,2.58h3Z"/><path class="cls-16" d="M109.27,45.12a1.06,1.06,0,0,0,0-.25c0-.28,0-.51.35-.56s.45.15.52.42.13.25.07.4c-.33.45-.64-.1-1,0Z"/><path class="cls-5" d="M67.75,61.52a5.61,5.61,0,0,1-.43,1.84,50.44,50.44,0,0,0-1.45,5.72c-.22,1.13-.27,2.25-.45,3.38A1.85,1.85,0,0,0,65.57,74a8.34,8.34,0,0,0-1.7,2.26c-.37.92-1.22,1.1-2,1.25-1.93.35-3.83.86-5.76,1.28a12.38,12.38,0,0,1-3,.61c.15-1.26.66-2.41.93-3.64a4.5,4.5,0,0,1,.44-1.59l.5-.19A.2.2,0,0,0,55,74a23.68,23.68,0,0,0,1,3.82,26.88,26.88,0,0,0,6.08-2.12c.11-.56.21-1.14.32-1.7a11.19,11.19,0,0,0,.39-2.36c.41-1.16.57-2.37.9-3.55a52,52,0,0,1,2.14-6.42A7,7,0,0,0,67.75,61.52Z"/><path class="cls-3" d="M65.57,74a1.85,1.85,0,0,1-.15-1.52c.19-1.12.22-2.26.45-3.37a50.41,50.41,0,0,1,1.45-5.72,5.67,5.67,0,0,0,.43-1.86l.68,0c-.49,1.68-1.07,3.33-1.42,5s-.72,3.47-1,5.23a7.77,7.77,0,0,0-.14,1.73A.54.54,0,0,1,65.57,74Z"/><path class="cls-16" d="M78.72,69.76c.1,0,.18.1.11.23-.15,0-.09-.15-.11-.24Z"/><polygon class="cls-16" points="78.17 70.51 78.12 70.53 78.13 70.49 78.17 70.51"/><path class="cls-16" d="M29.15,16.6a7.57,7.57,0,0,0-.7.57,1.3,1.3,0,0,1-1.91,0,2.65,2.65,0,0,0-.62-.54c0-.18,0-.34.26-.34h2.68C29.07,16.25,29.11,16.43,29.15,16.6Z"/><path class="cls-8" d="M30.62,20H43.39V35.3H30l.39-5.85c0-.36,0-.72,0-1.09C30.46,25.56,30.66,22.77,30.62,20Z"/><path class="cls-18" d="M31.46,92.72a35.25,35.25,0,0,0,8.45,1.73,5.87,5.87,0,0,1-2.84,4.81c-1.13-1.41-1.07-3.08-1-4.88a1.22,1.22,0,0,0-.35.92c0,.45,0,.9,0,1.35a4.9,4.9,0,0,0,1.8,3.82,9.92,9.92,0,0,0,3.43,1.89,39,39,0,0,0,5.67,1.36c2.22.37,4.45.66,6.68,1,1.82.23,3.65.38,5.46.69,2.05.36,2.68,1.62,2.56,3.39-.08,1.35-.24,2.71-.43,4.07-.27,1.92-.43,3.87-.51,5.82-.09,2.18-.29,4.35-.33,6.53,0,2.58-.32,5.15-.2,7.73a3.34,3.34,0,0,1-.17,1.33c-.35.05-.65-.22-1-.18-.27-.17-.54-.29-.52-.73.05-1.31-.24-2.62-.18-3.93a1.35,1.35,0,0,0-.14-.74,55,55,0,0,0-.19-5.59,76.74,76.74,0,0,1,.37-10.5c.37-1.22.32-2.51.6-3.74,0-.17-.12-.23-.27-.24a.38.38,0,0,0-.37-.16c-1.43.06-2.85-.19-4.27-.17-2.28,0-4.54-.13-6.81-.23a68.18,68.18,0,0,1-8.66-.81c-1-.17-1.9-.44-2.84-.67-.09-.13-.23-.14-.36-.19a6.46,6.46,0,0,1-3.37-2.89,10.56,10.56,0,0,1-1.13-5.75A18.15,18.15,0,0,1,31.46,92.72Z"/><path class="cls-2" d="M33.87,128.81c6.4-.22,12.8-.12,19.19-.15.23,1.23.46,2.46.68,3.7.39,2.3.77,4.61,1.16,6.92-.37,0-.73,0-1.1,0-3.76-.12-7.51.18-11.27.21a40.13,40.13,0,0,0-4.1.15c-1.17.13-2.36,0-3.51.18a29.33,29.33,0,0,1-3.1.13c.34-1.89.67-3.77,1-5.66S33.53,130.64,33.87,128.81Z"/><path class="cls-3" d="M31.46,92.72a18.15,18.15,0,0,0-1,5,10.56,10.56,0,0,0,1.13,5.75A6.46,6.46,0,0,0,35,106.35c.13.05.27.06.36.19a27.52,27.52,0,0,1-3.27-.14,4.11,4.11,0,0,1-3.64-3.32c-.49-2.08-.92-4.18-1.36-6.27-.49-2.31-1-4.62-1.43-6.94l-1.62-8c-.35-1.78-.7-3.55-1.08-5.31a9.76,9.76,0,0,1-.08-2.35,1.27,1.27,0,0,1,.44-.79c.18-.17.4-.33.38-.62h2.36a1.68,1.68,0,0,1,.78.2,5.57,5.57,0,0,1,1.58,1.15A17.13,17.13,0,0,1,29,75.82c.23,1.34.52,2.68.8,4,.46,2.21.91,4.43,1.4,6.64A3.68,3.68,0,0,0,31.57,88a2,2,0,0,1-.09,1.06A20.08,20.08,0,0,0,31,91.83.81.81,0,0,0,31.46,92.72Z"/><path class="cls-15" d="M32,128.83a13.21,13.21,0,0,0,.45-2.72c.64-4.19,1.24-8.4,1.84-12.6a17.77,17.77,0,0,0,.27-2.41,17.66,17.66,0,0,1,2.52,0l-1.14,6.37q-1,5.67-2.06,11.33c-.34,1.83-.7,3.66-1,5.49s-.67,3.77-1,5.66c-.05.21-.11.43-.15.64-.24,1.14-.23,1.14-1.51,1a5.84,5.84,0,0,0,.16-1.44,6.18,6.18,0,0,0,.3-1.54c.27-1.82.56-3.64.79-5.47C31.59,131.7,32,130.29,32,128.83Z"/><path class="cls-2" d="M32,128.83c0,1.46-.4,2.87-.58,4.31-.23,1.83-.52,3.65-.79,5.47a6.18,6.18,0,0,1-.3,1.54,22.31,22.31,0,0,0-3.37.28c-.58.07-1.17,0-1.75.06A36.9,36.9,0,0,1,26,136c.38-2.31.86-4.6,1.3-6.9a4.42,4.42,0,0,1,.15-.48C28.94,128.56,30.46,128.9,32,128.83Z"/><path class="cls-5" d="M19,61.14a5.37,5.37,0,0,1,1.35.35,11.76,11.76,0,0,0,.49,1.41c.54,2,1.12,3.93,1.48,5.95a26,26,0,0,1,.56,3.94,6.26,6.26,0,0,1-.75,0,3.14,3.14,0,0,0-2.63,1c-.21-.13-.16-.34-.16-.53-.06-1.64-.07-3.29-.12-4.93C19.11,66,18.86,63.55,19,61.14Z"/><path class="cls-2" d="M54.91,128.67l2.89,0a1.35,1.35,0,0,1,.14.74c-.06,1.31.23,2.62.18,3.93,0,.44.25.56.52.73a8.83,8.83,0,0,0-.17,2.51c-.34.12-.43.42-.54.71a8.88,8.88,0,0,0-.51,1.85H56.29c-.38-2.11-.6-4.25-.87-6.37C55.25,131.38,55,130,54.91,128.67Z"/><path class="cls-5" d="M26.05,72.8H23.71l-.34,0A13.94,13.94,0,0,0,23,69.63a36.89,36.89,0,0,0-1.49-6.14A5.82,5.82,0,0,1,21,61.65l2,0a49.15,49.15,0,0,1,2.79,9.53,1.82,1.82,0,0,0,.14.39A3.67,3.67,0,0,0,26.05,72.8Z"/><path class="cls-15" d="M57.61,123.06a27.41,27.41,0,0,1-.81-3.91c-.53-2.68-1-5.36-1.53-8.05a3.73,3.73,0,0,0,2.31-.67c.17.71.18,1.44.4,2.13A76.74,76.74,0,0,0,57.61,123.06Z"/><path class="cls-3" d="M19,61.14c-.12,2.41.13,4.81.22,7.21.05,1.64.06,3.29.12,4.93,0,.19-.05.4.16.53-.14.24-.19.55-.5.67-.27-.18-.17-.46-.16-.7.06-2.07-.15-4.14-.23-6.2-.06-1.54-.05-3.07-.12-4.61a10.21,10.21,0,0,1-.16-2A1.13,1.13,0,0,1,19,61.14Z"/><path class="cls-3" d="M21,61.65a5.83,5.83,0,0,0,.54,1.84A34.12,34.12,0,0,1,23,69.63a13.35,13.35,0,0,1,.35,3.15h-.51a26,26,0,0,0-.56-3.94c-.36-2-.94-4-1.48-5.95a11.76,11.76,0,0,1-.49-1.41A1,1,0,0,1,21,61.65Z"/><path class="cls-16" d="M58,112.56c-.22-.69-.23-1.42-.4-2.13a4.79,4.79,0,0,0,.73-1.85c.15,0,.31.07.27.24C58.3,110.05,58.35,111.34,58,112.56Z"/><path class="cls-10" d="M78.06,137a14.31,14.31,0,0,1,2.63.82,23,23,0,0,1,3.91,1.53c.23.33.71.59.52,1.07s-.74.55-1.21.6a72,72,0,0,1-9,.53c-1.36,0-1.72-.35-1.85-1.71l-.06-.67c.12-.75-.11-1.55.37-2.24.35.1.69.21,1,.3A4.51,4.51,0,0,0,78.06,137Z"/><path class="cls-10" d="M57.42,139.12a8.88,8.88,0,0,1,.51-1.85c.11-.29.2-.59.54-.71.23.15.46.31.71.44a5.29,5.29,0,0,0,4,.63L67.07,140c.41.5,1.05.72,1.49,1.19a6.39,6.39,0,0,1,.47.59c.38.6.2,1-.51,1.15a5,5,0,0,1-1.84-.13c-2.54-.43-5.09-.86-7.6-1.45a4.81,4.81,0,0,1-.65-.18,1.18,1.18,0,0,1-1-1.35C57.42,139.56,57.42,139.34,57.42,139.12Z"/><path class="cls-2" d="M73.32,136.88c-.48.69-.25,1.49-.37,2.24H68.79c.21-1.68.43-3.37.64-5.05s.39-3.37.7-5c.19.11.22.31.29.49.57,1.44,1.15,2.89,1.68,4.35a.7.7,0,0,0,.71.56A8.7,8.7,0,0,0,73.32,136.88Z"/><path class="cls-4" d="M70.13,129c-.31,1.67-.49,3.36-.7,5s-.43,3.37-.64,5.05c0,.69-.25,1.36-.23,2-.44-.47-1.08-.69-1.49-1.19.19-1.77.42-3.55.58-5.33.07-.77.06-1.56.19-2.33.2-1.21.26-2.44.38-3.67s.13-2.49.37-3.72A25.94,25.94,0,0,1,70.13,129Z"/><path class="cls-14" d="M130.2,98.79l0,2.36c-.21.29-.51.17-.78.18-.84,0-1.68,0-2.52,0a61.74,61.74,0,0,1-6.38.05c-.27,0-.55-.12-.83-.1a.84.84,0,0,1-.82-.47,1.31,1.31,0,0,1,1.2-2.07C123.47,98.78,126.83,98.79,130.2,98.79Z"/><path class="cls-14" d="M130.87,104.69l-11.55,0c-.8,0-1.1-.3-1.1-1a1,1,0,0,1,1.09-1h11.63Z"/><path class="cls-5" d="M130.2,98.79c-3.37,0-6.73,0-10.1,0a1.31,1.31,0,0,0-1.2,2.07.84.84,0,0,0,.82.47c.28,0,.56.1.83.1a61.74,61.74,0,0,0,6.38-.05c.84-.07,1.68,0,2.52,0,.27,0,.57.11.78-.18l.57.27a1.4,1.4,0,0,1,.07.57,1.56,1.56,0,0,1-.9.16H119.62a1.63,1.63,0,0,1-.89-.16,2.84,2.84,0,0,1-.45-3,1.3,1.3,0,0,1,1.29-.89h11a.83.83,0,0,1,.18.05C131.06,98.82,130.59,98.77,130.2,98.79Z"/><path class="cls-14" d="M143.32,86.94c-1.43,0-2.86,0-4.3,0h-9.51c-.17-.89-.09-1.8-.19-2.7h6c2.69,0,5.37,0,8.06,0Zm-1.62-.84,0-.08h-11v.08Zm-1.16-.86v-.08h-9.21v.08Z"/><path class="cls-5" d="M143.33,84.29c-2.69,0-5.37,0-8.06,0h-6c-.23,0-.48,0-.44-.37.28-.27.7-.23,1.09-.37a8.24,8.24,0,0,0,.05-1.65c0-.75.07-.8.83-.81H143c.75,0,.79.06.82.81A3.55,3.55,0,0,1,143.33,84.29Zm-6.92-2.83H130.7a5.48,5.48,0,0,0,.11,1.74h5.59A7.24,7.24,0,0,0,136.41,81.46Z"/><path class="cls-3" d="M124,78.2a9.13,9.13,0,0,0,1.73-.34c.21.18.1.43.15.64a7,7,0,0,1-1.69.39A1.07,1.07,0,0,1,124,78.2Z"/><path class="cls-14" d="M131.68,66.69V65.22c.21-.28.51-.17.78-.18a18.23,18.23,0,0,0,2.76.14,29.75,29.75,0,0,1,3.26-.15c1.4-.14,2.77.36,4.18,0a1,1,0,0,1,1,.7,1,1,0,0,1-.54,1,1.35,1.35,0,0,1-.66.07h-10C132.19,66.88,131.88,67,131.68,66.69Z"/><path class="cls-11" d="M131.68,66.69c.2.29.51.19.77.19h10a1.35,1.35,0,0,0,.66-.07,1,1,0,0,0,.54-1,1,1,0,0,0-1-.7c-1.41.33-2.78-.17-4.18,0a29.75,29.75,0,0,0-3.26.15,18.23,18.23,0,0,1-2.76-.14c-.27,0-.57-.1-.78.18-.18-.06-.38-.1-.43-.35.13-.28.39-.17.59-.17q5.57,0,11.13,0a1.25,1.25,0,0,1,1.18,2,7.42,7.42,0,0,1-.44.7c0,.2.22.34.15.56-4.56-.31-9.12-.11-13.68-.18-.28-.35,0-.4.26-.46s.4.19.7,0C131.26,67.13,131.26,66.72,131.68,66.69Z"/><path class="cls-3" d="M116.34,41.07h2.49v8.44h-2.47c0-1.83,0-3.65,0-5.47a8.35,8.35,0,0,0-.12-1.93A1.14,1.14,0,0,1,116.34,41.07Z"/><path class="cls-5" d="M141.68,50.34l0-4v0c.29-.21.16-.51.16-.78,0-1.32,0-2.64,0-4h2.66c.06,2.93.05,5.87,0,8.8-.64,0-1.27,0-1.9,0C142.3,50.35,142,50.09,141.68,50.34Zm1.95-.9V42.27c-.34,0-.61-.09-.88.07v7.1A1.47,1.47,0,0,0,143.63,49.44Z"/><path class="cls-5" d="M122.59,41.73a16.87,16.87,0,0,0-.16-2.35h2.41c.27.48,0,1,.21,1.44a11.43,11.43,0,0,0,1.8-.43,3.08,3.08,0,0,1,.3,1.35c-.59,0-1.11.34-1.7.35-.28-.24-.06-.71-.43-.9-.1.18,0,.37-.06.55Z"/><path class="cls-5" d="M141.69,39.55v-.18c.36-.32.79-.13,1.19-.15s1,0,1.6,0a7,7,0,0,1,0,1.7h-2.65C141.75,40.47,142,40,141.69,39.55Z"/><path class="cls-3" d="M118.89,39.72a2,2,0,0,1-.1.78,19.94,19.94,0,0,1-2.45,0V38.93h2.42C119,39.16,118.85,39.46,118.89,39.72Z"/><path class="cls-2" d="M141.86,40.92h2.65v.65h-2.66Z"/><path class="cls-2" d="M141.68,50.34c.31-.25.62,0,.94,0,.63,0,1.26,0,1.9,0v.48a27.09,27.09,0,0,0-2.85.19Z"/><path class="cls-5" d="M125.74,43.44l-.26-.86c.65.14,1.2-.3,1.81-.35,0,.29.26.54.2.86A8.62,8.62,0,0,0,125.74,43.44Z"/><path class="cls-11" d="M134.25,41.57a9.4,9.4,0,0,1,2.11.35l-.08.67-2.07-.52Z"/><path class="cls-2" d="M125.74,43.44a8.62,8.62,0,0,1,1.75-.35l.08.48a11.65,11.65,0,0,1-1.63.57C125.73,44,125.83,43.67,125.74,43.44Z"/><path class="cls-2" d="M127.29,42.23c-.61.05-1.16.49-1.81.35l0-.49c.59,0,1.11-.36,1.7-.35C127.22,41.9,127.33,42,127.29,42.23Z"/><path class="cls-3" d="M130.13,126.27h-14V109h14Zm-2.65-7.17c.89.13,1,.08,1-.5,0-1.4,0-2.8,0-4.2,0-.32-.1-.55-.45-.59a.62.62,0,0,0-.66.42,2.35,2.35,0,0,0-.07.66C127.22,116.29,127.6,117.66,127.48,119.1Z"/><path class="cls-3" d="M130.72,126.22V109h14.1v17.24Zm2.41-7.06a1.22,1.22,0,0,0,.27-.76c0-1.26,0-2.52,0-3.78,0-.52-.26-.81-.65-.81-.54,0-.52.4-.52.78,0,1.29,0,2.58,0,3.87C132.23,119.16,132.29,119.2,133.13,119.16Z"/><path class="cls-14" d="M140,103.16a1,1,0,0,1-.69.18c-.5,0-.7-.19-.69-.7,0-.83.11-1.66.15-2.49.08-1.65.15-3.28.35-4.92.06-.47,0-1,0-1.42s.2-.61.87-.6c.47,0,.75.23.62.66-.26.87,0,1.79-.27,2.65a.91.91,0,0,0,0,.33c.1,1.37-.24,2.72-.19,4.1A13.73,13.73,0,0,0,140,103.16Z"/><path class="cls-14" d="M142.21,93.6h1.59V99c-.4.22-.85,0-1.23.11a.58.58,0,0,1-.35-.51C142.2,97,142.21,95.31,142.21,93.6Z"/><path class="cls-2" d="M142.18,99.85a6.44,6.44,0,0,1,1.64,0v4.4c-.34.23-.74.1-1.11.12a.45.45,0,0,1-.52-.51C142.18,102.54,142.18,101.23,142.18,99.85Z"/><path class="cls-5" d="M122.61,48.83v-.35c.53,0,1.07,0,1.6,0s.64-.13.5-.66h-2.1l0-4.55H125c0,1.86,0,3.72,0,5.57Z"/><path class="cls-11" d="M122.61,48.83H125v.67h-2.35Z"/><path class="cls-11" d="M125,43.26h-2.38v-.52H125Z"/><path class="cls-5" d="M125,42.76h-2.37v-.5H125Z"/><path class="cls-11" d="M125,42.24h-2.37v-.52H125Z"/><path class="cls-2" d="M132.72,68.09H141a5.48,5.48,0,0,1-2.74.31c-.93,0-1.86,0-2.78,0A7,7,0,0,1,132.72,68.09Z"/><path class="cls-2" d="M140.88,68.62c-2.9.66-5.8-.14-8.7.17v-.17Z"/><path class="cls-2" d="M121,41.12a2,2,0,0,1,.94,0c.2.15.15.36.15.55,0,2.69,0,5.39,0,8.08,0,.68-.14.81-.66.79-.35,0-.52-.17-.52-.51v-.42c0-2.56,0-5.11,0-7.66A1.75,1.75,0,0,1,121,41.12Z"/><path class="cls-2" d="M122.61,47.82h2.1c.14.53-.12.66-.5.66s-1.07,0-1.6,0Z"/><path class="cls-2" d="M123.61,67.11c-.91.15-1.06,0-1-.74a8.56,8.56,0,0,0,.15-1.75,13.79,13.79,0,0,0-.42-3.13c-.16-.44,0-.65.45-.67h.5c.58,0,.88.41.58.89a2.89,2.89,0,0,0-.27,1.62C123.6,64.59,123.61,65.86,123.61,67.11Z"/><path class="cls-3" d="M141.86,40.92v.63c0,1.32,0,2.64,0,4,0,.27.13.57-.16.78V43.6c0-1.35,0-2.7,0-4.05C142,40,141.75,40.47,141.86,40.92Z"/><path class="cls-18" d="M40.24,94.46c.84,0,1.68,0,2.52,0a19.41,19.41,0,0,0,5.72-.78,2.48,2.48,0,0,1,.66-.12,14.66,14.66,0,0,0,1.59.5q3.95.89,7.79,2.16a42.43,42.43,0,0,1,6.41,2.43,6,6,0,0,1,2.79,2.67,12.14,12.14,0,0,1,.67,5.94c-.08,1.22-.32,2.42-.47,3.63-.12,1-.23,2-.39,3-.33,2-.61,4-1,5.91s-.7,3.79-1,5.69a21.62,21.62,0,0,0-.54,3.38.46.46,0,0,0-.15.29c-.22,1.75-.72,3.44-1,5.18,0,.33-.12.61-.53.62s-.7-.13-1-.17a8.74,8.74,0,0,1-2.33-.45c.25-1,0-2.08.21-3.09a37.16,37.16,0,0,0,.25-4.59c.09-2.23.24-4.47.26-6.71a14.87,14.87,0,0,1,.17-2.5c.19-1,.14-2.11.27-3.16.1-.74.17-1.5.24-2.25a27.46,27.46,0,0,0,.3-3.74A3.25,3.25,0,0,0,59.1,105c-1.29-.23-2.58-.45-3.87-.6-2-.23-3.92-.44-5.88-.69-1.71-.22-3.4-.5-5.09-.86a20.34,20.34,0,0,1-4.82-1.59,4.35,4.35,0,0,1-2.06-1.64C39.07,98.26,40.41,96.78,40.24,94.46Z"/><path class="cls-13" d="M54.83,60.4a5.44,5.44,0,0,1-1.32,4.38.86.86,0,0,1-.49.35h0v0c-.16-.11-.18-.3-.23-.48h0l0,0a5.89,5.89,0,0,0-3.68-3.69l-.87-.32c-.35-.37-.08-.85-.21-1.25,0-.34,0-.67,0-1a3.78,3.78,0,0,1,.67,0,3.13,3.13,0,0,0,2.6-1.13,6.47,6.47,0,0,0,1.26-2.26,32.62,32.62,0,0,0,.92-5,6.4,6.4,0,0,0-1-4.39c-.11-.19-.17-.48-.48-.5-.28.33-.26.88-.8,1-.06-.09,0-.26-.15-.22s-.21.21-.2.38h0c-.06,0-.09,0-.11,0s0,.07,0,.12a.15.15,0,0,0-.17.17.77.77,0,0,0-.73.46,2.71,2.71,0,0,0-1.29.7l.51,0h0c-.22.24-.53.23-.82.32a25.75,25.75,0,0,1-3.37.67,1.29,1.29,0,0,0-1,.76,2.61,2.61,0,0,1-.5.91c-.23-.12-.2-.32-.29-.46a1.16,1.16,0,0,0-1.22-.55,1.09,1.09,0,0,0-1,.8,2.31,2.31,0,0,0,1.39,3c.23.07.49.07.66.26a7.18,7.18,0,0,1-.1,2.45A16.76,16.76,0,0,1,41.92,60a12.63,12.63,0,0,0-3.72,1,6.64,6.64,0,0,0-3.67,4.22l-.06.2a1.31,1.31,0,0,1-.08.21v0l0,.08s0,0-.13.14a5.41,5.41,0,0,1-2.08-3.37,5.23,5.23,0,0,1,.18-2.66,6.77,6.77,0,0,0,.37-2.56,5.73,5.73,0,0,1,1.94-4.81l.24-.25a8.52,8.52,0,0,0,3-6,8.13,8.13,0,0,1,1-3.1h0a1.24,1.24,0,0,1,.17-.23.58.58,0,0,0,.18-.53c.16,0,.18,0,.17-.17a.18.18,0,0,0,.16-.06l.1-.12c.4-.1.17-.3.08-.48a21.67,21.67,0,0,1,3.72-2.2l1.84-.48A7.22,7.22,0,0,1,51,40.64a1.8,1.8,0,0,0,.82.4,4.55,4.55,0,0,1,3.62,4,5.9,5.9,0,0,1-.6,4.26c-1.35,2.27-1.29,4.66-.8,7.1C54.26,57.71,54.69,59,54.83,60.4Z"/><path class="cls-20" d="M77.9,133.6a.4.4,0,0,1-.36.48,22.74,22.74,0,0,1-4.73.34.7.7,0,0,1-.71-.56c-.52-1.46-1.11-2.9-1.68-4.35-.07-.18-.1-.38-.29-.5a26.2,26.2,0,0,0-1.54-4.09,6.31,6.31,0,0,0-.67-1.88,27.65,27.65,0,0,0-1.34-3.29c.34-2,.63-4,1-5.92.16-1,.26-2,.39-3,.15-1.21.39-2.42.47-3.63a12.08,12.08,0,0,0-.67-5.93,5.92,5.92,0,0,0-2.8-2.68,41.52,41.52,0,0,0-6.4-2.43Q54.68,94.92,50.73,94c-.54-.12-1.06-.33-1.6-.5.95-.43,1.95-.76,2.86-1.28a2,2,0,0,1,.57-.11A103.09,103.09,0,0,1,65,96.26a20.34,20.34,0,0,1,4.68,2.41c.44.33.66.84,1.11,1.13.3.76.62,1.5.86,2.26.4,1.3.74,2.63,1.1,4,.57,2.59,1.15,5.19,1.68,7.8.83,4.09,1.65,8.18,2.31,12.3.14.85.33,1.7.5,2.55.19,1.29.37,2.58.59,3.87C77.86,132.89,77.86,133.25,77.9,133.6Z"/><path class="cls-12" d="M48,59.3c.13.41-.14.89.21,1.26-.28.27-.12.56-.07.86A1.61,1.61,0,0,1,47.59,63a1.57,1.57,0,0,1-1.3.16A6.65,6.65,0,0,1,42,60.29c0-.06,0-.17,0-.25a16.75,16.75,0,0,0,.84-4.27,7.37,7.37,0,0,0,.11-2.44c-.18-.19-.44-.19-.68-.26a2.31,2.31,0,0,1-1.37-3,1.09,1.09,0,0,1,1-.81,1.19,1.19,0,0,1,1.22.56c.09.14.06.34.3.46a2.91,2.91,0,0,0,.49-.9,1.29,1.29,0,0,1,1-.77A25.75,25.75,0,0,0,48.2,48c.29-.09.61-.07.83-.33h0c.15,0,.3,0,.34-.17h0c.16,0,.3,0,.34-.18h0c.11,0,.19,0,.17-.18h0c.17.05.3,0,.35-.17h0c.12,0,.19,0,.18-.17h0c.13,0,.2,0,.18-.17h0c.14,0,.2,0,.17-.17h0c.14,0,.2,0,.17-.17h0c.14,0,.2,0,.17-.17h0c.14,0,.19,0,.17-.17h0c.55-.09.53-.65.82-1,.3,0,.35.31.47.5a6.36,6.36,0,0,1,1,4.39,31.48,31.48,0,0,1-.93,5,6.16,6.16,0,0,1-1.25,2.25,3,3,0,0,1-2.6,1.13c-.22,0-.44,0-.67,0,0,0-.06-.11-.1-.12a8,8,0,0,1-4-2.1l0-.07h-.06l.08.09a.93.93,0,0,0,.09.49,7.54,7.54,0,0,0,3.36,2.65A1.85,1.85,0,0,0,48,59.3Zm.38-5c.33,1.08.8,1.49,1.64,1.47s1.11-.33,1.32-1.19A11.54,11.54,0,0,0,48.36,54.27ZM47.23,49c.73-.35,1.49,0,2.29,0C49,48.06,48,48.08,47.23,49ZM42,51.73a.78.78,0,0,0,.61.18c.08-.66.16-1.32-.57-1.68a.47.47,0,0,0-.71.31c.22.26.6,0,.73.23C42.22,51.15,41.88,51.42,42,51.73Zm6.57-1.85a.82.82,0,0,0-.49,1,.33.33,0,0,0,.32.33.38.38,0,0,0,.38-.27A.92.92,0,0,0,48.53,49.88ZM51,51.49l-.16,0v1.24c-.13.37-.48.16-.57.45.4.28.74.22,1-.14C51.6,52.49,51.22,52,51,51.49Zm.59-2.2c.56-.24,1.08,0,1.66.16-.35-.67-.72-.88-1.27-.77C51.71,48.73,51.45,48.82,51.6,49.29Zm1,1.62c0-.26-.06-.55-.36-.56s-.49.3-.48.64.12.53.41.52S52.56,51.22,52.56,50.91Zm-2-.79.21,1C50.86,50.75,51,50.43,50.55,50.12Z"/><path class="cls-16" d="M31.57,88a3.68,3.68,0,0,1-.42-1.52c-.49-2.21-.94-4.43-1.4-6.64-.28-1.34-.57-2.68-.8-4a17.13,17.13,0,0,0-.53-1.67A33.84,33.84,0,0,0,33.65,74a44.86,44.86,0,0,1-.2,5.18,31.13,31.13,0,0,1-1,6c-.2.84-.42,1.66-.62,2.5C31.77,87.84,31.73,88,31.57,88Z"/><path class="cls-20" d="M40.24,94.46c.17,2.32-1.17,3.8-2.86,5.14a4.35,4.35,0,0,0,2.06,1.64,20.34,20.34,0,0,0,4.82,1.59c1.69.36,3.38.64,5.09.86,2,.25,3.92.46,5.88.69,1.29.15,2.58.37,3.87.6a3.25,3.25,0,0,1,2.58,3.26,27.46,27.46,0,0,1-.3,3.74c-.07.75-.14,1.51-.24,2.25-.13,1-.08,2.11-.27,3.16a14.87,14.87,0,0,0-.17,2.5c0,2.24-.17,4.48-.26,6.71a37.16,37.16,0,0,1-.25,4.59c-.17,1,0,2.07-.21,3.09l-.33-.05a3.34,3.34,0,0,0,.17-1.33c-.12-2.58.16-5.15.2-7.73,0-2.18.24-4.35.33-6.53.08-2,.24-3.9.51-5.82.19-1.36.35-2.72.43-4.07.12-1.77-.51-3-2.56-3.39-1.81-.31-3.64-.46-5.46-.69-2.23-.29-4.46-.58-6.68-1a39,39,0,0,1-5.67-1.36,9.92,9.92,0,0,1-3.43-1.89,4.9,4.9,0,0,1-1.8-3.82c0-.45,0-.9,0-1.35a1.22,1.22,0,0,1,.35-.92c0,1.8-.09,3.47,1,4.88a5.87,5.87,0,0,0,2.84-4.81Z"/><path class="cls-14" d="M62.87,71.63A11.19,11.19,0,0,1,62.48,74H55a.2.2,0,0,1-.11,0,2.58,2.58,0,0,0-.19-1.29,2.1,2.1,0,0,1-.14-1Z"/><path class="cls-14" d="M33.65,71.61V74a35.17,35.17,0,0,1-5.24.18A6,6,0,0,0,26.84,73a1.91,1.91,0,0,0-.79-.19,3.67,3.67,0,0,1-.15-1.19Z"/><path class="cls-4" d="M38.89,43.19h0c-.47-.05-.51.37-.65.64A10.56,10.56,0,0,0,37.4,47a6.08,6.08,0,0,1-2,3.7c-.33.3-.66.61-1,.89a6.27,6.27,0,0,0-2.62,5.95c0,.11,0,.22,0,.33a.58.58,0,0,1,0,.1c-.25-.06-.23-.28-.24-.45a5.93,5.93,0,0,1,1.69-5.25c.56-.54,1.14-1.07,1.75-1.57a6.38,6.38,0,0,0,2.25-4.29,9.11,9.11,0,0,1,.61-2.36,4.36,4.36,0,0,1,1-1.56l.12.11C38.89,42.79,38.72,43,38.89,43.19Z"/><path class="cls-5" d="M39.88,79.73a2.86,2.86,0,0,1-.71-1.38,4.11,4.11,0,0,1,1.33-.41c1-.28,2-.77,2.94-1.14,0,.35-.19.49-.46.61a14,14,0,0,0-2.06,1.26C40.48,79,40.32,79.48,39.88,79.73Z"/><path class="cls-17" d="M43.18,67.13a29.46,29.46,0,0,1,3.43,7.4c-.24.19-.36.11-.47-.17-.42-1-.72-2-1.18-3-.6-1.26-1.16-2.54-1.74-3.81A.5.5,0,0,1,43.18,67.13Z"/><path class="cls-19" d="M43.18,67.13a29.46,29.46,0,0,1,3.43,7.4c-.24.19-.36.11-.47-.17-.42-1-.72-2-1.18-3-.6-1.26-1.16-2.54-1.74-3.81A.5.5,0,0,1,43.18,67.13Z"/><path class="cls-16" d="M54.93,74l-.5.19c-.3-.36-.2-.82-.25-1.21-.2-1.37-.56-2.7-.83-4.06,0,0,0-.1,0-.16h0a3.61,3.61,0,0,1,.38.69s0,0,0,0a22.07,22.07,0,0,0,.9,2.2,2.1,2.1,0,0,0,.14,1A2.58,2.58,0,0,1,54.93,74Z"/><polygon class="cls-4" points="39.24 42.43 39.23 42.43 39.24 42.42 39.24 42.43"/><path class="cls-4" d="M39.67,42.08c-.13,0-.24,0-.26.17h0c-.12,0-.17,0-.17.18a2.48,2.48,0,0,0-.32.17l-.12-.11a2.65,2.65,0,0,1,1-.89C39.84,41.78,40.07,42,39.67,42.08Z"/><path class="cls-4" d="M74.51,90.68a29.5,29.5,0,0,1-.39,3.5c-.18,1.75-.43,3.5-.64,5.25-.26,2.19-.5,4.38-.76,6.58-.36-1.32-.7-2.65-1.1-4-.24-.76-.56-1.5-.86-2.26.24-2.76.49-5.54.74-8.31a1.51,1.51,0,0,1,.12-.31A15.75,15.75,0,0,1,74.51,90.68Z"/><path class="cls-12" d="M95.11,70.33v0l-.06.37-.13.2h0a4,4,0,0,1-2.2.88c-.66,0-1.14-.23-1.33-.89l0-.48.14-.19c1.32-.3,2.49-.94,2.66-1.57a3.89,3.89,0,0,1-2.6.57,2.21,2.21,0,0,1-1.87-2.38c0-.92,0-1.84,0-2.76a1.84,1.84,0,0,0,.17-1A1.49,1.49,0,0,1,90.27,62a4.61,4.61,0,0,0,2.44.3l1.41-.23c.66-.1.93.15,1,.8a8.51,8.51,0,0,1,.08,2.57s.09.13.14.2c.73-1.13.73-1.13,1.46-.89a2.23,2.23,0,0,0,.12.57,1,1,0,0,1-.62,1.37c-1,.34-1.12,1.12-1.17,2C95.07,69.21,95.11,69.77,95.11,70.33ZM90.75,67c.27.69.61,1,1.07.92a.9.9,0,0,0,.81-1,2.17,2.17,0,0,1-.9.13Zm1.77-3.12a3.79,3.79,0,0,0,1.27.27C93.29,63.44,93.05,63.39,92.52,63.85Zm-1.34-.08c-.37-.58-.66-.57-1.08,0A2.1,2.1,0,0,1,91.18,63.77Zm1.71,1.56c.23-.3.46-.53.08-.88C92.69,64.71,92.51,65,92.89,65.33Zm-2.19-1c-.33.41-.33.41,0,.69C90.94,64.79,90.94,64.58,90.7,64.3Zm.74,1.18c.31-.18.31-.41.22-.72C91.49,65,91.34,65.15,91.44,65.48Zm-.27.88c.29-.15.22-.34.14-.59C91,65.94,91,66.11,91.17,66.36Z"/><path class="cls-10" d="M96.78,64.75c-.73-.24-.73-.24-1.46.89,0-.07-.15-.15-.14-.2a8.51,8.51,0,0,0-.08-2.57c0-.65-.32-.9-1-.8l-1.41.23a4.61,4.61,0,0,1-2.44-.3,1.49,1.49,0,0,0-.41,1.13,1.84,1.84,0,0,1-.17,1,2.61,2.61,0,0,1-.2-2.18,4.54,4.54,0,0,1-.66-.87,1.17,1.17,0,0,1,.78-1.75c.26-.08.28-.23.38-.39a1.09,1.09,0,0,1,1.62-.51,2.29,2.29,0,0,1,.51.28,1.93,1.93,0,0,0,1.67.35,4,4,0,0,1,.84-.06,1.87,1.87,0,0,1,2,2.05,1.43,1.43,0,0,1,.84,1.69A3.3,3.3,0,0,1,96.78,64.75Z"/><path class="cls-16" d="M91.36,70.44l0,.48c-.27.21-.16.51-.16.78,0,.73,0,1.46,0,2.19-.41-.48-.66-1.12-1.33-1.32,0-1,.8-1.47,1.28-2.13Z"/><path class="cls-5" d="M91.56,69.25a3.89,3.89,0,0,0,2.6-.57c-.17.63-1.34,1.27-2.66,1.57Z"/><path class="cls-8" d="M87.84,78.87a.32.32,0,0,1-.28-.07c.13-.13.21,0,.27.07Z"/><path class="cls-8" d="M87.83,78.87l.25,0c-.14.16-.19.08-.24,0Z"/><path class="cls-8" d="M95.79,74.15c-.13.37,0,.85-.52,1-.21-.06-.33.13-.51.16a2,2,0,0,0-.17-1.08A4.33,4.33,0,0,0,95.86,73Z"/><path class="cls-18" d="M94.92,70.94l.13-.2C95.06,70.84,95,70.92,94.92,70.94Z"/><path class="cls-12" d="M72.81,134.42a22.74,22.74,0,0,0,4.73-.34,17.26,17.26,0,0,1,.52,2.87,4.51,4.51,0,0,1-3.7.23c-.35-.09-.69-.2-1-.3A8.7,8.7,0,0,1,72.81,134.42Z"/><path class="cls-14" d="M99,26.79V41.57c-4,0-7.94,0-11.88,0,.29-5-.31-9.86,0-14.79Zm-1.67,6.12a3.11,3.11,0,0,0-.5-1.95,1.81,1.81,0,0,0-1.52-1,2.07,2.07,0,0,0-2,1.94,3.34,3.34,0,0,0,1.15,2.84,1.62,1.62,0,0,0,2.72-.61A2.5,2.5,0,0,0,97.28,32.91Zm-4.89,4.41c-.1-1.43-.47-2.71-1.91-3.36a1.33,1.33,0,0,0-2,.92,4.31,4.31,0,0,0,1.36,3.89,1.61,1.61,0,0,0,1.79.29c.66-.34.7-1,.72-1.57A1,1,0,0,0,92.39,37.32Zm4.39.52a1.77,1.77,0,0,0-3.26-1.19,2.74,2.74,0,0,0,0,3,1.09,1.09,0,0,0,1,.55A2.41,2.41,0,0,0,96.78,37.84ZM89,29.44a2.34,2.34,0,0,0,.28,1.24A1.07,1.07,0,0,0,91,31a2.35,2.35,0,0,0,.44-2.61,1.22,1.22,0,0,0-2.18,0A1.58,1.58,0,0,0,89,29.44Zm3.7,3.1a1,1,0,0,0-1-.93,1.14,1.14,0,0,0-1,.91,1.11,1.11,0,0,0,.91.94C92,33.46,92.71,32.87,92.72,32.54Z"/><path class="cls-7" d="M71,75.32c0,.1-.09.18-.22.1,0-.13.15-.08.23-.09Z"/><path class="cls-7" d="M71,75.33c0-.11.07-.16.17-.18h0c0,.11-.08.15-.18.16Z"/><path class="cls-7" d="M71.13,75.15l.08-.11c.11.13,0,.1-.08.12Z"/><path class="cls-8" d="M109.39,72.1c.52,0,.88.25.89.65a.69.69,0,0,1-.67.7,1,1,0,0,1-.85-.77C108.73,72.3,108.94,72.12,109.39,72.1Z"/><path class="cls-9" d="M109.08,45.45v2.62h-3c-.09-.83,0-1.66,0-2.58A29.62,29.62,0,0,1,109.08,45.45Zm-1.45,1.47c-.16-.91-.32-1-1-.77.11.28.51,0,.62.36s-.47.37-.45.89c.47-.4,1,.11,1.4-.21C108.16,46.75,107.86,47,107.63,46.92Zm.31-.34c.61-.12.71-.3.42-.75A1.16,1.16,0,0,0,107.94,46.58Z"/><path class="cls-16" d="M55,74h7.44l-.32,1.7a26.54,26.54,0,0,1-6.08,2.12A23.68,23.68,0,0,1,55,74Z"/><path class="cls-12" d="M59.65,134.23l.33.05a8.74,8.74,0,0,0,2.33.45c.35,0,.7.1,1,.17a12.45,12.45,0,0,0-.16,2.73,5.29,5.29,0,0,1-4-.63c-.25-.13-.48-.29-.71-.44a8.83,8.83,0,0,1,.17-2.51C59,134,59.3,134.28,59.65,134.23Z"/><path class="cls-2" d="M63.2,137.63a12.45,12.45,0,0,1,.16-2.73c.41,0,.48-.29.53-.62.29-1.74.79-3.43,1-5.18a.46.46,0,0,1,.15-.29,25.9,25.9,0,0,1,3.17-.17c-.12,1.23-.18,2.46-.38,3.67-.13.77-.12,1.56-.19,2.33-.16,1.78-.39,3.56-.58,5.33Z"/><path class="cls-11" d="M141.7,86.1h-11V86h11Z"/><ellipse class="cls-2" cx="135.93" cy="85.2" rx="6.51" ry="0.06"/><path class="cls-2" d="M136.41,81.46a7.24,7.24,0,0,1,0,1.74h-5.59a5.48,5.48,0,0,1-.11-1.74Z"/><path class="cls-2" d="M143.63,49.44a1.47,1.47,0,0,1-.88,0v-7.1c.27-.16.54-.07.88-.07Z"/><path class="cls-4" d="M127.48,119.1c.12-1.44-.26-2.81-.15-4.21a2.35,2.35,0,0,1,.07-.66.62.62,0,0,1,.66-.42c.35,0,.45.27.45.59,0,1.4,0,2.8,0,4.2C128.49,119.18,128.37,119.23,127.48,119.1Z"/><path class="cls-4" d="M133.13,119.16c-.84,0-.9,0-.91-.7,0-1.29,0-2.58,0-3.87,0-.38,0-.77.52-.78.39,0,.65.29.65.81,0,1.26,0,2.52,0,3.78A1.22,1.22,0,0,1,133.13,119.16Z"/><path class="cls-5" d="M44,56.08a8,8,0,0,0,4,2.1s.07.08.1.12l0,1a1.85,1.85,0,0,1-.58-.07A7.54,7.54,0,0,1,44,56.58a.93.93,0,0,1-.09-.49Z"/><path class="cls-3" d="M49,47.65l-.51,0a2.73,2.73,0,0,1,1.29-.69l.07.06a1,1,0,0,0,0,.16h0c-.1,0-.17.06-.17.18h0c-.15,0-.29,0-.34.18h0c-.14,0-.29,0-.34.17Z"/><path class="cls-3" d="M49.81,46.93a.74.74,0,0,1,.73-.46h0v.17h0a.18.18,0,0,0-.18.17h0a.17.17,0,0,0-.18.17h-.32Z"/><path class="cls-16" d="M38.91,42.6l.33-.18c.1.35-.21.52-.34.76C38.72,43,38.89,42.8,38.91,42.6Z"/><path class="cls-3" d="M50.88,46.13c0-.17,0-.34.2-.38s.1.14.14.22h0c-.12,0-.17.06-.17.17h-.17Z"/><path class="cls-16" d="M39.23,42.43c0-.12.06-.19.18-.18S39.4,42.48,39.23,42.43Z"/><path class="cls-3" d="M50.54,46.47a.15.15,0,0,1,.17-.17h0v.17h-.17Z"/><path class="cls-3" d="M50.71,46.3c0-.11.06-.16.17-.17h0v.18h-.17Z"/><path class="cls-16" d="M39.4,42.26c0-.15.13-.18.26-.18C39.59,42.17,39.54,42.28,39.4,42.26Z"/><path class="cls-8" d="M48.36,54.27a11.54,11.54,0,0,1,3,.28c-.21.86-.59,1.18-1.32,1.19S48.69,55.35,48.36,54.27Z"/><path class="cls-13" d="M47.23,49c.75-.92,1.72-.94,2.29,0C48.72,49,48,48.65,47.23,49Z"/><path class="cls-5" d="M42,51.73c-.08-.31.26-.58.06-1-.13-.21-.51,0-.73-.23a.47.47,0,0,1,.71-.31c.73.36.65,1,.57,1.68A.78.78,0,0,1,42,51.73Z"/><path class="cls-10" d="M48.53,49.88a.92.92,0,0,1,.21,1.06.38.38,0,0,1-.38.27.33.33,0,0,1-.32-.33A.82.82,0,0,1,48.53,49.88Z"/><path class="cls-5" d="M51,51.49c.21.51.59,1,.23,1.59-.22.36-.56.42-1,.14.09-.29.44-.08.57-.45V51.53Z"/><path class="cls-13" d="M51.6,49.29c-.15-.47.11-.56.39-.61.55-.11.92.1,1.27.77C52.68,49.31,52.16,49.05,51.6,49.29Z"/><path class="cls-13" d="M52.56,50.91c0,.31-.08.59-.43.6s-.4-.25-.41-.52.09-.65.48-.64S52.56,50.65,52.56,50.91Z"/><path class="cls-5" d="M50.55,50.12c.42.31.31.63.21,1Z"/><path class="cls-13" d="M49.36,47.49c0-.18.19-.19.34-.18C49.66,47.51,49.52,47.52,49.36,47.49Z"/><path class="cls-13" d="M49.88,47h.33c-.05.19-.18.22-.35.17A1,1,0,0,1,49.88,47Z"/><path class="cls-13" d="M49,47.65c0-.18.2-.17.34-.17C49.32,47.69,49.17,47.67,49,47.65Z"/><path class="cls-5" d="M44,56.09,43.87,56h.06l0,.07Z"/><path class="cls-13" d="M50.2,47a.17.17,0,0,1,.18-.17C50.39,46.94,50.32,47,50.2,47Z"/><path class="cls-13" d="M50.37,46.81a.18.18,0,0,1,.18-.17C50.57,46.78,50.5,46.82,50.37,46.81Z"/><path class="cls-13" d="M50.54,46.47h.17c0,.14,0,.19-.17.17Z"/><path class="cls-13" d="M50.7,46.3h.18c0,.14,0,.2-.17.17Z"/><path class="cls-13" d="M50.88,46.3v-.18h.18C51.08,46.27,51,46.33,50.88,46.3Z"/><path class="cls-13" d="M51.05,46.14c0-.11.05-.18.17-.17S51.19,46.16,51.05,46.14Z"/><path class="cls-13" d="M49.7,47.32c0-.12.07-.16.17-.18C49.89,47.28,49.81,47.32,49.7,47.32Z"/><path class="cls-8" d="M90.75,67l1,.08a2.17,2.17,0,0,0,.9-.13.9.9,0,0,1-.81,1C91.36,67.94,91,67.66,90.75,67Z"/><path class="cls-10" d="M92.52,63.85c.53-.46.77-.41,1.27.27A3.79,3.79,0,0,1,92.52,63.85Z"/><path class="cls-10" d="M91.18,63.77a2.1,2.1,0,0,0-1.08,0C90.52,63.2,90.81,63.19,91.18,63.77Z"/><path class="cls-10" d="M92.89,65.33c-.38-.38-.2-.62.08-.88C93.35,64.8,93.12,65,92.89,65.33Z"/><path class="cls-10" d="M90.7,64.3c.24.28.24.49,0,.69C90.37,64.71,90.37,64.71,90.7,64.3Z"/><path class="cls-3" d="M91.44,65.48c-.1-.33,0-.5.22-.72C91.75,65.07,91.75,65.3,91.44,65.48Z"/><path class="cls-3" d="M91.17,66.36c-.19-.25-.13-.42.14-.59C91.39,66,91.46,66.21,91.17,66.36Z"/><path class="cls-12" d="M97.28,32.91a2.5,2.5,0,0,1-.17,1.19,1.62,1.62,0,0,1-2.72.61,3.34,3.34,0,0,1-1.15-2.84,2.07,2.07,0,0,1,2-1.94,1.81,1.81,0,0,1,1.52,1A3.11,3.11,0,0,1,97.28,32.91Z"/><path class="cls-2" d="M92.39,37.32a1,1,0,0,1,0,.17c0,.62-.06,1.23-.72,1.57a1.61,1.61,0,0,1-1.79-.29,4.31,4.31,0,0,1-1.36-3.89,1.33,1.33,0,0,1,2-.92C91.92,34.61,92.29,35.89,92.39,37.32Z"/><path class="cls-2" d="M96.78,37.84a2.41,2.41,0,0,1-2.33,2.37,1.09,1.09,0,0,1-1-.55,2.74,2.74,0,0,1,0-3,1.77,1.77,0,0,1,3.26,1.19Z"/><path class="cls-12" d="M89,29.44a1.58,1.58,0,0,1,.24-1.07,1.22,1.22,0,0,1,2.18,0A2.35,2.35,0,0,1,91,31a1.07,1.07,0,0,1-1.7-.34A2.34,2.34,0,0,1,89,29.44Z"/><path class="cls-2" d="M92.72,32.54c0,.33-.71.92-1.09.92a1.11,1.11,0,0,1-.91-.94,1.14,1.14,0,0,1,1-.91A1,1,0,0,1,92.72,32.54Z"/><path class="cls-16" d="M107.63,46.92c.23.08.53-.17.57.27-.44.32-.93-.19-1.4.21,0-.52.61-.52.45-.89s-.51-.08-.62-.36C107.31,45.89,107.47,46,107.63,46.92Z"/><path class="cls-16" d="M107.94,46.58a1.16,1.16,0,0,1,.42-.75C108.65,46.28,108.55,46.46,107.94,46.58Z"/><path class="cls-12" d="M47,48.47s-.46,3.87-.46,4.21a22.92,22.92,0,0,0,.61,4l2.73,0L51.44,56l.83-2.34.57-2.88.49-1.52-.26-.83-1.37-.11L50,48.13l-1.48,0Z"/><path class="cls-12" d="M90.41,63.07l-.36.36.13,4s1.42,1,1.5,1,2.57-.21,2.59-.28.59-3.5.59-3.5l-.57-1.84Z"/><path class="cls-1" d="M34.64,64.52l-.11.77-.88,6.47-.2,1.48c0-.3,0-.83,0-1.63a18,18,0,0,1,.38-3.17c.25-1.15.43-2.06.58-2.72v0C34.52,65.06,34.61,64.67,34.64,64.52Z"/><path class="cls-1" d="M54.45,70a3.37,3.37,0,0,1-.75-.56,1.71,1.71,0,0,1-.33-.48s0,0,0-.06,0-.1,0-.16h0c-.19-.83-.45-3.1-.55-4.09h0c0-.29-.06-.47-.06-.47l.29,1v0Z"/><path class="cls-16" d="M53.26,84.27,53,85.89l-.22,1.35-.13.71s0-.29.07-.72.11-.84.17-1.3A7.53,7.53,0,0,1,53.26,84.27Z"/></svg>