<svg id="Layer_1" data-name="Layer 1" xmlns="http://www.w3.org/2000/svg" viewBox="0 0 160 160"><defs><style>.cls-1,.cls-12{fill:#fff;}.cls-2,.cls-5{fill:#fd5d5d;}.cls-2{opacity:0.16;}.cls-3{fill:#f1f1f1;}.cls-4{fill:#3f3d56;}.cls-6{fill:#fba190;}.cls-7{fill:#2f2e41;}.cls-8{fill:#cbcbcb;}.cls-9{font-size:4.07px;font-family:Poppins-Medium, Poppins;font-weight:500;}.cls-10{fill:#e2e2e2;stroke:#0a0a0a;stroke-miterlimit:10;stroke-width:0.26px;opacity:0.56;}.cls-11{font-size:3.15px;font-family:Poppins-Regular, Poppins;}.cls-12{font-size:3.83px;font-family:Poppins-SemiBold, Poppins;font-weight:600;}.cls-13{fill:#823500;}.cls-14{fill:#2e2e2e;}.cls-15{fill:#d26a75;}.cls-16{fill:#4bae4f;fill-rule:evenodd;}</style></defs><title>Download &amp;amp; Register</title><rect class="cls-1" x="-2.04" y="-2.81" width="166.47" height="166.47"/><path class="cls-2" d="M19.45,71.24C24,60.13,25.82,53.76,46.18,39.71,60.89,25.23,66.55,19.24,77.76,16.3s34.85-.22,46.18,28.75,15.24,36.48,16.33,40.18-2.94,34.2-36.15,46.94-51.95,8.93-67.3-5.34S15.91,100.8,17,88.17,19.45,71.24,19.45,71.24Z"/><path class="cls-3" d="M146.91,151.92V137.38S152.57,147.69,146.91,151.92Z"/><path class="cls-3" d="M147.26,151.92l-10.71-9.83S148,144.88,147.26,151.92Z"/><path class="cls-4" d="M63.56,41.62H63V25.23a9.49,9.49,0,0,0-9.49-9.49H18.74a9.48,9.48,0,0,0-9.48,9.49h0v89.93a9.47,9.47,0,0,0,9.48,9.48H53.47A9.48,9.48,0,0,0,63,115.16V53.29h.6Z"/><path class="cls-1" d="M53.86,18.21H49.32a3.37,3.37,0,0,1-1.84,4.39,3.3,3.3,0,0,1-1.27.25H26.31a3.37,3.37,0,0,1-3.37-3.37,3.5,3.5,0,0,1,.25-1.27H19a7.08,7.08,0,0,0-7.08,7.09h0v89.79A7.09,7.09,0,0,0,19,122.18h34.9a7.09,7.09,0,0,0,7.08-7.09h0V25.3a7.08,7.08,0,0,0-7.08-7.09Z"/><circle id="b5dcbba4-f290-467d-a612-e64d8f6895fb" class="cls-5" cx="36.41" cy="68.24" r="16.97"/><path class="cls-1" d="M41.44,69.4l-4.22,4.35a1,1,0,0,1-.71.28h0a1,1,0,0,1-.71-.28L31.58,69.4l0,0a.93.93,0,0,1,0-1.32A1,1,0,0,1,33,68l2.5,2.61V63.92a1,1,0,0,1,2,0v6.73L40,68a1,1,0,0,1,1.43,0l0,0A.94.94,0,0,1,41.44,69.4Z"/><polygon class="cls-6" points="136.45 149.17 133.99 149.17 132.81 139.66 136.45 139.66 136.45 149.17"/><path class="cls-7" d="M137.08,151.56h-7.94v-.11a3.09,3.09,0,0,1,3.09-3.09h4.85Z"/><polygon class="cls-6" points="117.73 149.09 115.35 148.45 116.68 138.97 120.19 139.91 117.73 149.09"/><path class="cls-7" d="M117.72,151.56l-7.67-2.06,0-.09a3.09,3.09,0,0,1,3.78-2.19h0l4.69,1.25Z"/><polygon class="cls-7" points="137.87 95.91 139.93 98.31 137.26 147.03 131.56 147.03 128.69 109.54 119.78 148.03 113.85 146.58 119.24 97.69 137.87 95.91"/><path class="cls-5" d="M120.62,64.46l5.67-2.85,8.73.16,7.51,3.84L138.26,87l1.85,11.13h0a45.58,45.58,0,0,1-21.78.18h0s4.24-15.06,2.43-19.65Z"/><path class="cls-6" d="M137,53.08a6.44,6.44,0,1,0,0,.05Z"/><path class="cls-7" d="M127.73,49.41a1.86,1.86,0,0,1,1.23-.5,2.9,2.9,0,0,1,2.15.78,2.63,2.63,0,0,1,.37,1.64V52.9a3.14,3.14,0,0,0,.22,1.37,1,1,0,0,0,1.14.59c.53-.17.76-.87,1.3-1a1,1,0,0,1,1,.57,2.57,2.57,0,0,1,.14,1.23c-.05.82-1.23,1.15-1.4,2-.1.46-.44,1.4,0,1.2,2-.2,2.89-1.37,3.81-2.48l2.07-2.49a2.5,2.5,0,0,0,.54-.86,2.3,2.3,0,0,0,0-.69c0-.62,0-1.24,0-1.86s-.15-1.22-.68-1.34c-.28,0-.64,0-.79-.19a.58.58,0,0,1,0-.39,3.81,3.81,0,0,0,.11-1.86c-.31-.9-1.37-1.26-2.3-1.43a4,4,0,0,1-2.57-1.06,5.88,5.88,0,0,0-.51-.72,2,2,0,0,0-.95-.48,5.19,5.19,0,0,0-3.47.31,3.2,3.2,0,0,1-1.4.45c-.52,0-1-.4-1.47-.49a2.1,2.1,0,0,0-2,1.21,2.52,2.52,0,0,0,.16,2.88c.36.38.88.64,1,1.13.06.2,0,.42.1.62a1.14,1.14,0,0,0,.9.78A1.62,1.62,0,0,0,127.73,49.41Z"/><path class="cls-6" d="M119.83,80a2.3,2.3,0,0,0,3,1.31,2.53,2.53,0,0,0,.37-.18l11.52,6.09.38-2.8-11.2-6.61a2.32,2.32,0,0,0-4,2.19Z"/><path class="cls-6" d="M135.19,80.51a2.31,2.31,0,0,1-3.2.62,2.42,2.42,0,0,1-.31-.25L119.1,84.3l.11-3.56,12.51-3.25a2.32,2.32,0,0,1,3.47,3Z"/><path class="cls-5" d="M140.08,65.76l2.45-.15s2.87,3.79,1.28,7.9c0,0,.28,14.77-6.08,14.16s-8.37-.6-8.37-.6l1.91-5.33,4.27-1.32s-1.32-5.8,1.17-8.22Z"/><path class="cls-5" d="M122.37,65.63,122,63.86s-5.11-.12-6.12,7.62c0,0-4.6,11.6-.09,13.09a17.83,17.83,0,0,0,9.46,0l-.37-5.11-5-1s2.56-3.31,1.17-6.18Z"/><path class="cls-8" d="M157.18,152.07H80.62a.2.2,0,0,1,0-.4h76.56a.2.2,0,1,1,0,.4Z"/><text class="cls-9" transform="translate(17.2 93.42)">Downloading App....</text><rect class="cls-10" x="54.76" y="57.19" width="54.88" height="62.74" rx="4.68"/><rect class="cls-1" x="58.78" y="67.78" width="45.58" height="7.69" rx="2.19"/><rect class="cls-1" x="58.78" y="78.17" width="45.58" height="7.69" rx="2.19"/><rect class="cls-1" x="58.78" y="88.56" width="45.58" height="7.69" rx="2.19"/><rect class="cls-5" x="62" y="103.44" width="39.15" height="7.69" rx="2.19"/><text class="cls-11" transform="translate(61.57 72.58)">Name</text><text class="cls-11" transform="translate(61.57 83.1)">Email</text><text class="cls-11" transform="translate(61.57 93.43)">Password</text><text class="cls-12" transform="translate(66.29 108.49)">Create Account</text><path class="cls-13" d="M32,39.7h-.14v-.3c0-.08,0-.12-.08-.12a.13.13,0,0,0-.09,0,.23.23,0,0,0,0,.13v.25H31.5V39h.14v.27h0a.19.19,0,0,1,.16-.07.17.17,0,0,1,.14,0,.2.2,0,0,1,0,.14v.34Z"/><path class="cls-13" d="M32.66,39.71a.24.24,0,0,1-.27-.27.32.32,0,0,1,.06-.2.25.25,0,0,1,.19-.07.24.24,0,0,1,.17.06.24.24,0,0,1,.06.18v.06h-.34a.13.13,0,0,0,0,.1.12.12,0,0,0,.09,0h.09l.09,0v.11a.11.11,0,0,1-.08,0Zm0-.44a.11.11,0,0,0-.08,0,.15.15,0,0,0,0,.08h.2a.1.1,0,0,0,0-.08A.09.09,0,0,0,32.64,39.27Z"/><path class="cls-13" d="M33.61,39.7l0-.07h0a.21.21,0,0,1-.08.06.15.15,0,0,1-.1,0,.14.14,0,0,1-.16-.16.15.15,0,0,1,.06-.13.39.39,0,0,1,.17,0h.1v0c0-.05,0-.08-.09-.08a.43.43,0,0,0-.14,0l-.05-.1a.45.45,0,0,1,.2,0,.25.25,0,0,1,.16,0,.17.17,0,0,1,.06.14v.35Zm0-.24h-.05l-.09,0a.09.09,0,0,0,0,.07.05.05,0,0,0,.06.06.1.1,0,0,0,.08,0,.11.11,0,0,0,0-.08v0Z"/><path class="cls-13" d="M34.28,39.7h-.14V39h.14Z"/><path class="cls-13" d="M34.94,39.6l.09,0v.11l-.13,0c-.06,0-.1,0-.12,0a.17.17,0,0,1,0-.13v-.26h-.07v-.06l.08,0,0-.11h.09v.11H35v.1h-.15v.26a.05.05,0,0,0,0,0l0,0Z"/><path class="cls-13" d="M35.91,39.7h-.14v-.3q0-.12-.09-.12a.09.09,0,0,0-.08,0,.23.23,0,0,0,0,.13v.25h-.14V39h.14v.27h0a.16.16,0,0,1,.15-.07.16.16,0,0,1,.14,0,.2.2,0,0,1,0,.14v.34Z"/><path class="cls-13" d="M36.56,39.71c-.16,0-.25-.09-.25-.27a.3.3,0,0,1,.07-.2.24.24,0,0,1,.19-.07.38.38,0,0,1,.16,0l0,.11-.06,0h-.06c-.07,0-.11.06-.11.16s0,.16.11.16l.08,0,.07,0v.12l-.07,0Z"/><path class="cls-13" d="M37.46,39.7l0-.07h0a.21.21,0,0,1-.08.06s-.05,0-.09,0a.15.15,0,0,1-.12,0,.17.17,0,0,1,0-.12.15.15,0,0,1,.06-.13.4.4,0,0,1,.18,0h.09v0a.07.07,0,0,0-.08-.08.48.48,0,0,0-.15,0l0-.1a.45.45,0,0,1,.2,0,.22.22,0,0,1,.16,0,.17.17,0,0,1,.06.14v.35Zm0-.24h-.06l-.09,0a.09.09,0,0,0,0,.07s0,.06.07.06a.1.1,0,0,0,.11-.11v0Z"/><path class="cls-13" d="M38.29,39.17h.05l0,.14h0a.12.12,0,0,0-.1,0,.1.1,0,0,0,0,.09v.27H38v-.52h.11l0,.09h0a.27.27,0,0,1,.07-.08l.09,0Z"/><path class="cls-13" d="M39,39.71a.24.24,0,0,1-.27-.27.32.32,0,0,1,.06-.2.24.24,0,0,1,.18-.07.21.21,0,0,1,.24.24v.06h-.34a.13.13,0,0,0,0,.1.12.12,0,0,0,.09,0h.09l.09,0v.11a.11.11,0,0,1-.08,0Zm0-.44a.11.11,0,0,0-.08,0,.15.15,0,0,0,0,.08H39s0-.06,0-.08A.09.09,0,0,0,38.94,39.27Z"/><path class="cls-13" d="M40.44,39.7l0-.07h0a.19.19,0,0,1-.07.06.16.16,0,0,1-.1,0,.14.14,0,0,1-.16-.16.15.15,0,0,1,.06-.13.32.32,0,0,1,.17,0h.09v0a.07.07,0,0,0-.08-.08.56.56,0,0,0-.15,0l0-.1a.42.42,0,0,1,.2,0,.25.25,0,0,1,.16,0,.16.16,0,0,1,0,.14v.35Zm0-.24h0l-.1,0a.09.09,0,0,0,0,.07s0,.06.07.06a.1.1,0,0,0,.08,0,.11.11,0,0,0,0-.08v0Z"/><path class="cls-13" d="M41.2,39.6l.09,0v.11l-.13,0a.17.17,0,0,1-.13,0,.22.22,0,0,1,0-.13v-.26h-.06v-.06l.07,0,0-.11h.09v.11h.14v.1h-.14v.26s0,0,0,0l.05,0Z"/><path class="cls-13" d="M42.51,39.28h-.12v.42h-.15v-.42h-.08v-.06l.08,0v0a.17.17,0,0,1,0-.13.18.18,0,0,1,.14,0,.27.27,0,0,1,.13,0l0,.1h-.08l0,0a.07.07,0,0,0,0,0v0h.12v.11Z"/><path class="cls-13" d="M42.87,39A.08.08,0,0,1,43,39a.08.08,0,0,1,0,.05s0,0-.06,0S42.87,39.09,42.87,39Zm.15.66h-.14v-.52H43Z"/><path class="cls-13" d="M43.94,39.7H43.8v-.3s0-.07,0-.09a.06.06,0,0,0-.06,0,.13.13,0,0,0-.09,0,.24.24,0,0,0,0,.14v.24h-.14v-.52h.11l0,.06h0a.15.15,0,0,1,.06-.05.16.16,0,0,1,.1,0,.16.16,0,0,1,.14,0,.2.2,0,0,1,.05.14v.34Z"/><path class="cls-13" d="M44.84,39.18v.07l-.09,0a.11.11,0,0,1,0,.08.15.15,0,0,1-.06.13.29.29,0,0,1-.17.05h0s0,0,0,0,0,0,.07,0h.09a.22.22,0,0,1,.13,0,.13.13,0,0,1,0,.11.16.16,0,0,1-.08.14.34.34,0,0,1-.22,0,.24.24,0,0,1-.16,0,.11.11,0,0,1-.06-.1.11.11,0,0,1,0-.08l.08-.05s0,0,0,0a0,0,0,0,1,0,0s0,0,0-.05a.07.07,0,0,1,0,0,.13.13,0,0,1-.07-.06.15.15,0,0,1,0-.09.22.22,0,0,1,0-.14.25.25,0,0,1,.16,0h.28Zm-.41.6s0,0,0,0a.15.15,0,0,0,.08,0l.12,0a.07.07,0,0,0,0-.06.05.05,0,0,0,0,0h-.16s-.05,0-.06,0a0,0,0,0,0,0,.05Zm0-.43a.14.14,0,0,0,0,.07l.06,0,.06,0a.14.14,0,0,0,0-.07c0-.06,0-.1-.08-.1S44.48,39.29,44.48,39.35Z"/><path class="cls-13" d="M45.45,39.71a.24.24,0,0,1-.27-.27.32.32,0,0,1,.06-.2.25.25,0,0,1,.19-.07.24.24,0,0,1,.17.06.24.24,0,0,1,.06.18v.06h-.34a.13.13,0,0,0,0,.1.12.12,0,0,0,.09,0h.09l.09,0v.11a.11.11,0,0,1-.08,0Zm0-.44a.08.08,0,0,0-.07,0,.1.1,0,0,0,0,.08h.2a.1.1,0,0,0,0-.08A.09.09,0,0,0,45.43,39.27Z"/><path class="cls-13" d="M46.36,39.17h0l0,.14h0a.12.12,0,0,0-.1,0,.1.1,0,0,0,0,.09v.27h-.15v-.52h.11l0,.09h0a.27.27,0,0,1,.07-.08l.09,0Z"/><path class="cls-13" d="M47,39.6l.09,0v.11l-.13,0a.17.17,0,0,1-.13,0,.22.22,0,0,1,0-.13v-.26h-.06v-.06l.07,0,0-.11H47v.11h.14v.1H47v.26s0,0,0,0l0,0Z"/><path class="cls-13" d="M47.49,39a.06.06,0,0,1,.07-.07c.06,0,.08,0,.08.07s0,0,0,.05,0,0-.06,0S47.49,39.09,47.49,39Zm.15.66h-.15v-.52h.15Z"/><path class="cls-13" d="M48.36,39.71a.15.15,0,0,1-.14-.07h0a.38.38,0,0,0,0,.08v.21h-.15v-.75h.12l0,.07h0a.15.15,0,0,1,.15-.08.15.15,0,0,1,.14.07.3.3,0,0,1,.05.2.32.32,0,0,1,0,.14.2.2,0,0,1-.07.1.2.2,0,0,1-.11,0Zm0-.43a.1.1,0,0,0-.08,0,.31.31,0,0,0,0,.11v0a.37.37,0,0,0,0,.12.11.11,0,0,0,.08,0c.07,0,.1-.05.1-.15a.19.19,0,0,0,0-.12.07.07,0,0,0-.07,0Z"/><path class="cls-13" d="M49.33,39.55a.13.13,0,0,1,0,.12.27.27,0,0,1-.17,0H49l-.07,0v-.12a.19.19,0,0,0,.09,0l.09,0c.05,0,.07,0,.07,0a0,0,0,0,0,0,0l0,0-.07,0-.09,0a.1.1,0,0,1,0,0,.15.15,0,0,1,0-.07.1.1,0,0,1,.05-.1.24.24,0,0,1,.15,0,.41.41,0,0,1,.19,0l0,.1-.08,0h-.07s-.06,0-.06,0l0,0,.09,0,.09,0a.1.1,0,0,1,0,0,.15.15,0,0,1,0,.07Z"/><path class="cls-5" d="M51.31,43.86a.29.29,0,0,0,0-.57.29.29,0,1,0,0,.57Z"/><path class="cls-5" d="M51.31,42.68a.89.89,0,0,1,.89.9h.29a1.18,1.18,0,0,0-1.18-1.19Z"/><path class="cls-5" d="M51.31,43.14a.44.44,0,0,1,.43.44H52a.73.73,0,0,0-.72-.73Z"/><path class="cls-14" d="M51.33,41.44a2.1,2.1,0,0,0-.42,4.15,4.35,4.35,0,0,1-2.47,2.29c-3,1.21-5,.42-8.71-1a66,66,0,0,0-9.95-3.15,10,10,0,0,0-2.8-.29V41.85l.47-.11a2,2,0,0,0,.55-.22,2.09,2.09,0,0,0,.78-.78l1.29-2.3a.18.18,0,0,0-.07-.25h0l-.3-.17-.09,0a.19.19,0,0,0-.16.09l-1.29,2.3a1.37,1.37,0,0,1-.86.65L27,41.1l-.36.09-.37-.09L26,41a1.37,1.37,0,0,1-.87-.65l-1.29-2.3a.19.19,0,0,0-.25-.07l-.3.17h0a.18.18,0,0,0-.07.25l1.29,2.3a2.09,2.09,0,0,0,.78.78,2.18,2.18,0,0,0,.55.22l.47.11v1.67a3.62,3.62,0,0,0-1.74.82A2.62,2.62,0,0,0,24.25,48l.06.08A1.52,1.52,0,0,0,27,47V44.16a9.3,9.3,0,0,1,2.64.27,65.8,65.8,0,0,1,9.85,3.12c2.44,1,4.25,1.65,6.13,1.65a8,8,0,0,0,3.11-.65,4.87,4.87,0,0,0,3-2.95,2.1,2.1,0,0,0-.35-4.16ZM26.25,47a.79.79,0,0,1-1.39.52l-.05-.06A1.89,1.89,0,0,1,25,44.88a2.86,2.86,0,0,1,1.26-.61ZM51.86,44.8a1.32,1.32,0,0,1-.53.11l-.21,0a1.37,1.37,0,1,1,1.58-1.35,1.38,1.38,0,0,1-.84,1.26Z"/><path class="cls-5" d="M25.58,32.89a.43.43,0,0,1-.23.37.47.47,0,0,1-.24,0l-.13,0-.63-.09a.15.15,0,0,1-.11-.08,4.9,4.9,0,0,0-1.47.55,1.43,1.43,0,0,0-.55,1.91l1.31,2.5-.29.17-1.32-2.51a1.79,1.79,0,0,1,.68-2.37,5.33,5.33,0,0,1,1.62-.59v0a.15.15,0,0,1,.13-.15l.76-.11h.06a.41.41,0,0,1,.41.41Z"/><path class="cls-5" d="M31.29,35.73,30,38.23l-.3-.16L31,35.57a1.41,1.41,0,0,0-.54-1.91A4.9,4.9,0,0,0,29,33.11a.15.15,0,0,1-.11.08l-.63.09-.13,0h-.06a.48.48,0,0,1-.18,0,.41.41,0,0,1-.23-.37.42.42,0,0,1,.47-.41l.76.11a.15.15,0,0,1,.13.15v0a5.33,5.33,0,0,1,1.62.59,1.78,1.78,0,0,1,.67,2.37Z"/><path class="cls-5" d="M33.51,37.24a1,1,0,0,1-.27.77.94.94,0,0,1-.74.28,1,1,0,0,1-.73-.28,1.08,1.08,0,0,1-.27-.77,1,1,0,0,1,.27-.76.94.94,0,0,1,.74-.28,1.15,1.15,0,0,1,.53.13.87.87,0,0,1,.35.36,1.2,1.2,0,0,1,.12.55Zm-1.3,0a1.05,1.05,0,0,0,.06.4.25.25,0,0,0,.24.13.24.24,0,0,0,.23-.13,1.05,1.05,0,0,0,.06-.4.82.82,0,0,0-.07-.39.23.23,0,0,0-.23-.13.24.24,0,0,0-.23.13,1,1,0,0,0-.06.39Z"/><path class="cls-5" d="M35.23,36.2a.62.62,0,0,1,.52.28,1.3,1.3,0,0,1,.19.76,1.33,1.33,0,0,1-.19.77.61.61,0,0,1-.54.28.56.56,0,0,1-.2,0,.44.44,0,0,1-.16-.06l-.16-.14h0l-.11.19H34V35.49h.69v.62c0,.08,0,.21,0,.39h0a.65.65,0,0,1,.24-.23.66.66,0,0,1,.3-.07Zm-.26.55a.23.23,0,0,0-.21.1.54.54,0,0,0-.07.32v.1a.63.63,0,0,0,.07.35.24.24,0,0,0,.22.11.21.21,0,0,0,.19-.13.86.86,0,0,0,.06-.37C35.23,36.91,35.15,36.75,35,36.75Z"/><path class="cls-5" d="M36.41,35.74a.27.27,0,0,1,.09-.23.38.38,0,0,1,.28-.08.36.36,0,0,1,.28.08.29.29,0,0,1,.09.23c0,.2-.12.3-.37.3S36.41,35.94,36.41,35.74Zm.72,2.51h-.7v-2h.7Z"/><path class="cls-14" d="M38.19,38.25v-2.6h.71v2h1v.56Z"/><path class="cls-14" d="M41.68,38.25,41.54,38h0a.76.76,0,0,1-.29.23.79.79,0,0,1-.37.07.61.61,0,0,1-.45-.17.69.69,0,0,1-.17-.48.55.55,0,0,1,.23-.48,1.23,1.23,0,0,1,.65-.18h.33v0a.22.22,0,0,0-.24-.25,1.46,1.46,0,0,0-.56.15l-.2-.45a1.81,1.81,0,0,1,.89-.19.89.89,0,0,1,.6.2.66.66,0,0,1,.21.53v1.32Zm-.52-.45a.33.33,0,0,0,.22-.08.29.29,0,0,0,.09-.21v-.16h-.16c-.23,0-.35.09-.35.25s.07.19.2.19Z"/><path class="cls-14" d="M44,36.2a.62.62,0,0,1,.52.28,1.29,1.29,0,0,1,.2.76,1.33,1.33,0,0,1-.2.77.61.61,0,0,1-.54.28.64.64,0,0,1-.2,0,.34.34,0,0,1-.15-.06.94.94,0,0,1-.16-.14h-.05l-.11.19h-.54V35.49h.7v.62q0,.12,0,.39h0a.56.56,0,0,1,.23-.23.73.73,0,0,1,.3-.07Zm-.25.55a.25.25,0,0,0-.22.1.65.65,0,0,0-.06.32v.1a.76.76,0,0,0,.06.35.25.25,0,0,0,.22.11.19.19,0,0,0,.19-.13.71.71,0,0,0,.07-.37C44,36.91,43.87,36.75,43.7,36.75Z"/><path class="cls-14" d="M46.91,38.25H45v-.46l.64-.64a5.17,5.17,0,0,0,.35-.39.69.69,0,0,0,.12-.18.4.4,0,0,0,0-.15.2.2,0,0,0-.06-.16.29.29,0,0,0-.19-.06.5.5,0,0,0-.25.07,1.35,1.35,0,0,0-.28.2L45,36a2.18,2.18,0,0,1,.34-.25.79.79,0,0,1,.3-.12,1.37,1.37,0,0,1,.36,0,1.06,1.06,0,0,1,.45.09.64.64,0,0,1,.31.25.67.67,0,0,1,.11.37,1.26,1.26,0,0,1,0,.28,1.26,1.26,0,0,1-.33.52l-.56.53h1v.58Z"/><path class="cls-14" d="M48.81,38.25,48.72,38h0a.61.61,0,0,1-.24.21.83.83,0,0,1-.36.08.67.67,0,0,1-.52-.2.71.71,0,0,1-.19-.54V36.24h.7v1.1a.78.78,0,0,0,0,.3.21.21,0,0,0,.19.1.26.26,0,0,0,.25-.14,1.12,1.12,0,0,0,.08-.48v-.88h.69v2Z"/><path class="cls-15" d="M28.32,33.24l-1.67,3.33L25,33.24l.14,0a.38.38,0,0,0,.24,0l1.3,2.58,1.29-2.58a.41.41,0,0,0,.19,0h.06Z"/><path class="cls-5" d="M83.44,40a5.08,5.08,0,1,0,5.07,5.08A5.09,5.09,0,0,0,83.44,40Zm0,2.54A1.52,1.52,0,1,1,81.92,44,1.49,1.49,0,0,1,83.44,42.52Zm0,6.59a4,4,0,0,1-2.94-1.26,3.52,3.52,0,0,1,4.92-.92,4,4,0,0,1,.91.92A3.84,3.84,0,0,1,83.44,49.11Z"/><g id="Layer_2" data-name="Layer 2"><g id="download"><path class="cls-5" d="M11.25,2.94a6.12,6.12,0,1,0,6.11,6.11A6.12,6.12,0,0,0,11.25,2.94ZM9.45,8.56h0a.43.43,0,0,1,.6,0h0l.76.77V6.24a.42.42,0,0,1,.43-.42h0a.42.42,0,0,1,.42.42h0V9.32l.77-.77a.42.42,0,0,1,.59,0h0a.42.42,0,0,1,0,.59h0l-1.49,1.5a.43.43,0,0,1-.6,0h0l-1.5-1.5a.42.42,0,0,1,0-.59Zm5.09,3a.74.74,0,0,1-.72.72H8.67A.74.74,0,0,1,8,11.57V10.45A.42.42,0,0,1,8.37,10h0a.42.42,0,0,1,.42.42h0v1H13.7v-1a.42.42,0,1,1,.84,0h0Z"/></g></g><path class="cls-16" d="M37.87,101.62a7.41,7.41,0,1,0,7.41,7.4A7.41,7.41,0,0,0,37.87,101.62Z"/><path class="cls-1" d="M36.45,112.41l-2.84-2.85a.28.28,0,0,1,0-.38l1.09-1.09a.28.28,0,0,1,.38,0l1.56,1.56,4-4a.27.27,0,0,1,.39,0l1.09,1.09a.26.26,0,0,1,0,.38l-5.3,5.3a.26.26,0,0,1-.38,0Z"/><polygon class="cls-6" points="128.23 58.79 128.01 61.82 133.66 61.76 132.64 58.24 128.23 58.79"/></svg>