<svg id="Layer_1" data-name="Layer 1" xmlns="http://www.w3.org/2000/svg" viewBox="0 0 160 160"><defs><style>.cls-1{fill:#eddddf;}.cls-2{fill:#fff;}.cls-3{fill:#b1c2d5;}.cls-4{fill:#4e5874;}.cls-5{fill:#fcf0ed;}.cls-6{fill:#333c4f;}.cls-7{fill:#db5c55;}.cls-8{fill:#f94b4b;}.cls-9{fill:#e6effc;}.cls-10{fill:#fbb29e;}.cls-11{fill:#d49f7c;}.cls-12{fill:#bc8765;}.cls-13{fill:#eb6b63;}.cls-14{fill:#6286c0;}.cls-15{fill:#7096d5;}.cls-16{fill:#454d62;}.cls-17{fill:#fdfdfd;}.cls-18{fill:#dae3f0;}.cls-19{fill:#aacbf9;}.cls-20{fill:#d3e1f7;}</style></defs><title>Follow-Up Care</title><rect class="cls-1" x="13.07" y="14.14" width="46.74" height="56.75"/><path class="cls-2" d="M-4.68-2.46V164H161.79V-2.46Zm51.42,139.8h0a1.06,1.06,0,0,0,.62,0,11.74,11.74,0,0,0,1.23-2.13,1.88,1.88,0,0,0,1-.63,1.07,1.07,0,0,1,.88-.48c1.69.09,3.35-.26,5.05-.2,2,.07,3.95,0,5.93,0a1.24,1.24,0,0,0,.54,0,6.7,6.7,0,0,0,1.09,2.29l.07.16a1.89,1.89,0,0,1-.34-.35c-.19-.25-.54-.18-.81-.11-.8.21-1.62.2-2.42.34a29.94,29.94,0,0,0-4.79,1c-.39.13-.9.18-1,.73H46.57C46.52,137.7,46.69,137.54,46.74,137.34Z"/><path class="cls-3" d="M153.84,143.09c.12.35.49.4.72.61a1.72,1.72,0,0,1,.1,2.74,8.66,8.66,0,0,1-3.56,2A64.57,64.57,0,0,1,140,151.23c-2.2.35-4.39.83-6.6,1.11-1.81.24-3.62.45-5.43.65-2.22.26-4.45.44-6.67.7-1.07.13-2.17.19-3.25.28-1.28.11-2.56.09-3.83.31a21,21,0,0,1-3,.18c-1.8.06-3.59.22-5.39.29s-3.35,0-5,.19-3.54,0-5.3.17c-4.32.34-8.64,0-12.95.23a57.08,57.08,0,0,1-6.27.1c-4-.24-8,0-12-.2-1.94-.1-3.87,0-5.79-.18-1.57-.16-3.15-.05-4.71-.18-2.31-.18-4.62-.24-6.92-.39-1.85-.12-3.71-.22-5.56-.4-2.41-.25-4.83-.42-7.25-.68-1.49-.17-3-.32-4.48-.47-1.81-.19-3.61-.44-5.42-.68-2-.27-3.92-.53-5.87-.88a74.57,74.57,0,0,1-7.95-1.73,27.24,27.24,0,0,1-5.66-2.14,3.81,3.81,0,0,1-1.74-1.46A1.53,1.53,0,0,1,3.32,144a9.45,9.45,0,0,1,3.45-2.05c.65-.27,1.32-.51,2-.76.37.06.68-.16,1-.23,1.6-.36,3.13-1,4.81-.93-.09,2-.58,3.91-.71,5.86,1.06.5,1.29.38,1.47-.67.33-1.93.66-3.85,1-5.78,5-.94,10.08-1.58,15.21-2.1a7.89,7.89,0,0,1,.07,1.59c0,.29,0,.51.4.52.21,2.11.41,4.23.62,6.35.1,1.06.51,1.24,1.47.6l-.42-8.48c.24,0,.51,0,.76-.14s0-.55.21-.78a3.06,3.06,0,0,1,1-.08c.08.9.16,1.8.23,2.7.11,1.35.19,2.7.3,4,0,.46.08.93.69,1,.13,1.08-.36,2.15-.18,3.22A1.15,1.15,0,0,0,37,148c1,.26,1.25.1,1.43-.89.26-1.42.48-2.84.73-4.26.38-2.12.68-4.25,1.17-6.34,1.81,0,3.6-.33,5.41-.2a32,32,0,0,1,.79,3.46c.18.8.52,1.28,1.39,1.26v1.29a8.28,8.28,0,0,0-.64,3.58c0,1,.28,1.22,1.22,1.47a21.12,21.12,0,0,0,2.85.45,56.7,56.7,0,0,0,6.62.69,4,4,0,0,0,1.24-.13c.87-.3,1-.8.44-1.53A5.25,5.25,0,0,0,58,145.67c-1.21-.67-2.43-1.32-3.65-2a1.24,1.24,0,0,1-.71-1c-.06-.61-.22-1.2-.34-1.8a1.22,1.22,0,0,0,.17-.83,37.6,37.6,0,0,1,.23-4.11c.4.07.72-.22,1.12-.19,2.22.15,4.41-.25,6.63-.2a23.9,23.9,0,0,1,1.16,3.4c.19.62.47,1,1.16,1l.39,1.83a6.36,6.36,0,0,0-.43,3.11c0,1.35.31,1.67,1.62,1.75,2.83.19,5.66.19,8.49.12a5.82,5.82,0,0,0,2-.34c.77-.3.89-.81.29-1.4a4.47,4.47,0,0,0-1.37-.88l-3.39-1.39a5.47,5.47,0,0,1-2-1.23c.11-.68-.28-1.32-.15-2a2.42,2.42,0,0,0,.23-1.1c0-1-.27-2-.2-3h11c0,1,0,2.06,0,3.09a7.18,7.18,0,0,0,6,7.08,22.92,22.92,0,0,0,4.06.05c.33.47.23,1.05.35,1.57.2.92.49,1.17,1.41,1,.39-.08.59-.28.48-.67a15.42,15.42,0,0,1-.18-1.91l1.74,0H134.4c.22,0,.45,0,.67,0a9.67,9.67,0,0,0,2.52-.05.28.28,0,0,0,.38-.05,6.07,6.07,0,0,0,3.36-1.57,7.83,7.83,0,0,0,2.41-4.31.69.69,0,0,0,.57.45A32.37,32.37,0,0,1,153.84,143.09Z"/><path class="cls-4" d="M135.07,145.52c-.22,0-.45,0-.67,0H94.11l-1.74,0-.31-1.78c1.58,0,3.16.06,4.74.06,11.78,0,23.57,0,35.35,0A6.65,6.65,0,0,0,139,137c-.11-4.1,0-8.2,0-12.3q0-51.57,0-103.13a6.68,6.68,0,0,0-6.78-6.79c-2,.06-3.93,0-5.9,0-.28,0-.58-.1-.88.2,0,.27,0,.59,0,.91-.1,2.26-1.17,3.29-3.41,3.29H99.29c-.32,0-.64,0-1,0a2.74,2.74,0,0,1-2.62-2.42c-.1-.62-.14-1.26-.22-1.93-2.53,0-5,0-7.48,0a4.7,4.7,0,0,0-1.33.27A6.39,6.39,0,0,0,82,21.52c0,6.75,0,13.5,0,20.24,0,2.2,0,4.39,0,6.59a6.45,6.45,0,0,1-.76-1.82,7,7,0,0,0-1-2.05c0-2.13,0-4.26,0-6.39,0-5.91,0-11.81,0-17.72a7,7,0,0,1,3.13-6,7.37,7.37,0,0,1,4.3-1.24h44.45c.32,0,.64,0,1,0l2.33.08c0,.32.25.28.47.36a7.1,7.1,0,0,1,4.2,3.84,10.75,10.75,0,0,1,.71,4.71c-.08,22.38.26,44.77-.15,67.16-.06,3.55,0,7.1,0,10.65s0,7.09,0,10.64c0,4.51-.19,9,.14,13.53.24,3.37-.26,6.75-.17,10.14,0,1.45,0,2.9,0,4.35a6.93,6.93,0,0,1-5.4,6.71C135.13,145.26,135.1,145.39,135.07,145.52Z"/><path class="cls-5" d="M37,37.47V33.71H57.5V68.9H46c-.41-.79-.8-1.6-1.24-2.37a12.68,12.68,0,0,0-3.05-3.88A2.21,2.21,0,0,0,41,62,16.48,16.48,0,0,0,37,60.19V57.6a6.05,6.05,0,0,0,2.25-3.67,21,21,0,0,0,.27-2.37,18.56,18.56,0,0,1,.08-2.69,7.06,7.06,0,0,0,.85-3.6,1.74,1.74,0,0,1,.44-1.21,4.81,4.81,0,0,0,1.29-3.14c0-1.4-.77-2-2.1-1.62-.15,0-.29.15-.45.07C39.27,37.69,38.75,37.31,37,37.47ZM57.24,53.74a3.93,3.93,0,0,0-1.9-1.64,3.12,3.12,0,0,0-2.6-.28c-.7-1.59-1.66-2.76-3.53-2.69S46.5,50.52,45.86,52a3,3,0,0,0-3.5,1.75Z"/><path class="cls-6" d="M135.07,145.52c0-.13.06-.26.21-.29a6.93,6.93,0,0,0,5.4-6.71c0-1.45,0-2.9,0-4.35-.09-3.39.41-6.77.17-10.14-.33-4.51-.14-9-.14-13.53,0-3.55-.07-7.09,0-10.64s0-7.1,0-10.65c.41-22.39.07-44.78.15-67.16a10.75,10.75,0,0,0-.71-4.71,7.1,7.1,0,0,0-4.2-3.84c-.22-.08-.46,0-.47-.36a9.07,9.07,0,0,1,3.24.24,7.43,7.43,0,0,1,5.08,6.7c0,1,0,1.93.06,2.89,0,.35-.05.7-.05,1.06V66.18c0,.45,0,.9,0,1.35-.14.07-.14.13,0,.2v.77c-.14.06-.14.13,0,.19,0,2.49,0,5,0,7.45q0,30.6,0,61.18c0,.74,0,1.48,0,2.22a7.83,7.83,0,0,1-2.41,4.31,6.07,6.07,0,0,1-3.36,1.57.43.43,0,0,0-.38.05A9.67,9.67,0,0,1,135.07,145.52Z"/><path class="cls-5" d="M17.56,68.9H15V33.68h4.51a2.52,2.52,0,0,1-.39,1.26,4.11,4.11,0,0,0-4,1.8H30.23a4.23,4.23,0,0,0-4.13-1.82l-.51-1.22h9.83c.12,1.1,0,2.19.06,3.28,0,.33-.15.72.23,1a4.59,4.59,0,0,1-3.14.66,3.61,3.61,0,0,0-4.11,1.78,3.81,3.81,0,0,0-1.26,0c-.37.11-.77.29-.78.64a4.75,4.75,0,0,1-1.19,2.51,2.51,2.51,0,0,0-.24.73,7.32,7.32,0,0,0,.21,3.63,10.35,10.35,0,0,0,1.95,4.34v0a5.2,5.2,0,0,0,1.92,2.13,3.54,3.54,0,0,1,.23,1.41A25.46,25.46,0,0,1,28.68,60a15.92,15.92,0,0,0-6.58,2.47,7.55,7.55,0,0,0-3.25,3A13,13,0,0,0,17.56,68.9Z"/><path class="cls-5" d="M15,16.25H35.41V32.08c-3.41,0-6.82.1-10.22,0s-6.74.2-10.1,0C14.9,31.27,14.82,18.65,15,16.25Z"/><path class="cls-5" d="M37.06,32V16.27H57.5V32Zm8-6.35c-1.79-.28-3.48.48-3.86,1.7H56.63c-1.43-1.35-2.84-2.23-4.81-1.89-.7-1.73-1.84-2.94-3.91-2.66C46.33,23,45.5,24.11,45.07,25.65Z"/><path class="cls-7" d="M17.56,68.9a13,13,0,0,1,1.29-3.39,7.55,7.55,0,0,1,3.25-3c.11.22.31.2.5.21a2.5,2.5,0,0,1,1.38.62,6.62,6.62,0,0,1,2.19,3.56c.67,2.33.55,4.75.76,7.14.13,1.57,0,3.16,0,4.74a1.06,1.06,0,0,1-.4,1,5.46,5.46,0,0,0-1.14.07,15.65,15.65,0,0,1-2.36.27,24,24,0,0,1-5.2-.53c-.64-.1-.78-.52-.79-1.11A34,34,0,0,0,17,74.81l.12-3.21Z"/><path class="cls-6" d="M27.15,52.24A10.35,10.35,0,0,1,25.2,47.9,7.32,7.32,0,0,1,25,44.27a2.51,2.51,0,0,1,.24-.73A4.75,4.75,0,0,0,26.42,41c0-.35.41-.53.78-.64a3.81,3.81,0,0,1,1.26,0,3.61,3.61,0,0,1,4.11-1.78A4.59,4.59,0,0,0,35.71,38L37,37.47c1.73-.16,2.25.22,2.63,1.9.16.08.3,0,.45-.07,1.33-.39,2.15.22,2.1,1.62a4.81,4.81,0,0,1-1.29,3.14,1.74,1.74,0,0,0-.44,1.21,7.06,7.06,0,0,1-.85,3.6c-.11-1.42.09-2.89-.6-4.25a3.32,3.32,0,0,0-.53.08,8.53,8.53,0,0,1-4.2.11c-.51-.09-1-.19-1.52-.25A2.59,2.59,0,0,0,30.13,46a4,4,0,0,0-.46,1.77,9.81,9.81,0,0,0,.14,2c.07.42.08.86-.53.87a1.38,1.38,0,0,1-.49-.84c-.13-.39-.27-.72-.76-.73a1.11,1.11,0,0,0-1.12.61,2.07,2.07,0,0,0,0,1.77C27,51.71,27.29,51.9,27.15,52.24Z"/><path class="cls-8" d="M158.29,97.75c-.64,1.29-1.31,2.57-1.89,3.88-.43,1-.9,1.92-1.38,2.86a1.29,1.29,0,0,1-1.78.7c-1.19-.48-2.35-1-3.51-1.56-.85-.39-1.65-.86-2.53-1.18a2.53,2.53,0,0,1-.91-.53,1.38,1.38,0,0,1-.4-1.81c.74-1.64,1.5-3.26,2.25-4.9.17-.37.36-.74.51-1.14a1.51,1.51,0,0,1,2.21-1,39.87,39.87,0,0,1,3.78,1.68,7.53,7.53,0,0,0,1.92.86,7.64,7.64,0,0,1,1,.56A1.63,1.63,0,0,1,158.29,97.75Zm-7.74,1.87-.77,1.7a2.88,2.88,0,0,0,1.73.7c.45-.4.59-1,.93-1.35.73-.13,1.17.58,1.91.54a7.21,7.21,0,0,0,.66-1.53c-.37-.6-1.19-.54-1.54-1.11,0-.67.69-1.11.53-1.89-.52-.19-1-.66-1.58-.65-.52.43-.5,1.17-1,1.54a13.89,13.89,0,0,1-1.76-.58,7.44,7.44,0,0,0-.78,1.69Z"/><path class="cls-7" d="M41.69,62.65a12.68,12.68,0,0,1,3.05,3.88c.44.77.83,1.58,1.24,2.37l1.12,2.51c0,.11,0,.2.15.23l0,0c.51,1.47,1.16,2.89,1.57,4.4-.08.34-.44.44-.61.71-.15.1-.32.19-.47.3a11.15,11.15,0,0,1-3.9,1.9,63.78,63.78,0,0,0-.58-9.76,29.92,29.92,0,0,0-1.2-5.4C41.9,63.44,41.6,63.1,41.69,62.65Z"/><path class="cls-9" d="M47.25,71.64c-.12,0-.15-.12-.15-.23A.19.19,0,0,1,47.25,71.64Z"/><path class="cls-10" d="M43.82,79a11.15,11.15,0,0,0,3.9-1.9c.15-.11.32-.2.47-.3q.64,2.35,1.46,4.68a2.48,2.48,0,0,0,2,1.8c2.41.5,4.85.84,7.27,1.3,2.2.41,4.4.78,6.61,1.15a10.2,10.2,0,0,0,3.35-.23,4.46,4.46,0,0,1,2.69.41,6.24,6.24,0,0,1,2.62,2.21,1.36,1.36,0,0,1,.25.71H73a3.41,3.41,0,0,0-3.1-.68,2.89,2.89,0,0,1,1.59.72c0,.44-.36.37-.64.37a20.36,20.36,0,0,1-4.2-.43,8.62,8.62,0,0,0-1.33-.16c-2.26-.12-4.5.27-6.75.2s-4.5.32-6.75.21a.21.21,0,0,0-.23.2c0,.32.41.43.51.74s.47.45.55.78a2.1,2.1,0,0,1-3,.68,3.87,3.87,0,0,0-3.21-.6,5.7,5.7,0,0,1-2,.09,9.46,9.46,0,0,0-3.05,0c-1.51.21-3.06.22-4.58.43-2.13.3-4.27.35-6.4.58a16.31,16.31,0,0,0-2.88.15,18.43,18.43,0,0,1-4.13-.2,4,4,0,0,1-3.25-2.28c-.47-.88-.66-1.86-1.15-2.73a18.09,18.09,0,0,0-.49-2.52,23,23,0,0,1-.66-4.82,24,24,0,0,0,5.2.53,15.65,15.65,0,0,0,2.36-.27,5.46,5.46,0,0,1,1.14-.07,28.2,28.2,0,0,0,.41,4.3,1,1,0,0,0,.94.92l1.81.23,5,.74c1.54.22,3.09.44,4.63.69s3.13.55,4.76.84a14.94,14.94,0,0,0-.09-3C43.92,82.65,44.06,80.81,43.82,79ZM50.2,90.78a.25.25,0,0,0,.19.19.26.26,0,0,0,.2.2s0,.06,0,.08l.06,0-.09-.1a.26.26,0,0,0-.19-.2.27.27,0,0,0-.2-.19.2.2,0,0,0,0-.08l-.06,0Z"/><path class="cls-11" d="M73,88.82h1.42c1.94,0,3.87.29,5.82.21A5,5,0,0,0,82,89.2c1.75.06,3.5.18,5.24.38.88.1,1.77.12,2.66.18l4.49.57a7.75,7.75,0,0,0,1.52.23c.86.21,1.73.37,2.56.65.49.16,1.06.39.88,1.13a32,32,0,0,1-7.68,1.51c-1.11.12-2.25.14-3.35.27-2.13.25-4.28.25-6.4.51-1.24.15-2.5.07-3.75.17-2.11.17-4.24.17-6.36.2-6.34.09-12.69.1-19-.13a43.08,43.08,0,0,0-5.2-.22h-.1c-2.18-.35-4.4-.29-6.59-.54-1.52-.17-3.06-.31-4.58-.47a24.7,24.7,0,0,1-5.87-1.32l0-.36c2.13-.23,4.27-.28,6.4-.58,1.52-.21,3.07-.22,4.58-.43a9.46,9.46,0,0,1,3.05,0,5.7,5.7,0,0,0,2-.09,3.87,3.87,0,0,1,3.21.6,2.1,2.1,0,0,0,3-.68c-.08-.33-.44-.47-.55-.78s-.5-.42-.51-.74a.21.21,0,0,1,.23-.2c2.25.11,4.5-.27,6.75-.21s4.49-.32,6.75-.2a8.62,8.62,0,0,1,1.33.16,20.36,20.36,0,0,0,4.2.43c.28,0,.61.07.64-.37Z"/><path class="cls-8" d="M80.23,44.48a7,7,0,0,1,1,2.05A6.45,6.45,0,0,0,82,48.35c.43,1.18.89,2.36,1.28,3.56a1.36,1.36,0,0,1-.78,1.82L82,54a5.87,5.87,0,0,0-1.72.76c-1.51.52-3,1-4.53,1.55a1.51,1.51,0,0,1-2-.9q-1.22-3.28-2.37-6.59a1.44,1.44,0,0,1,.78-1.89c.73-.33,1.49-.57,2.24-.85l4-1.53A2.25,2.25,0,0,1,80.23,44.48Zm-4.84,3.4a7.78,7.78,0,0,0,.53,1.93c-.56.34-1.21.38-1.68.83-.08.62.37,1,.51,1.56.7.11,1.2-.46,1.83-.34.49.46.46,1.19.92,1.72.5-.33,1.12-.33,1.51-.69.24-.72-.37-1.26-.29-1.9a8.37,8.37,0,0,0,1.67-.82,4.08,4.08,0,0,0-.7-1.61c-.63,0-1.18.55-1.86.32l-.63-1.46C76.49,47.25,76,47.73,75.39,47.88Z"/><path class="cls-8" d="M74.61,69.55a1.32,1.32,0,0,1-.78,1.38c-.47.22-1,.36-1.44.53-1.79.63-3.56,1.28-5.35,1.9a1.41,1.41,0,0,1-1.91-.76,11,11,0,0,1-.55-1.33c-.52-1.62-1.1-3.22-1.72-4.8a1.75,1.75,0,0,1,1.21-2.62c1.87-.68,3.74-1.38,5.6-2.07A1.76,1.76,0,0,1,72.29,63c.68,1.86,1.39,3.72,2.06,5.59A2.23,2.23,0,0,1,74.61,69.55Zm-4.83-.7L67,67a10.54,10.54,0,0,0-1.29,2,1.67,1.67,0,0,0,2.87,1.65C69,70.08,69.35,69.51,69.78,68.85Zm-2.39-2.31a26.23,26.23,0,0,0,2.66,1.78,7.58,7.58,0,0,0,1.33-1.93,1.68,1.68,0,0,0-2.79-1.81A8.33,8.33,0,0,0,67.39,66.54Z"/><path class="cls-4" d="M80.23,54.74A5.87,5.87,0,0,1,82,54c0,.25,0,.51,0,.77Q82,72,82,89.2A5,5,0,0,1,80.27,89q0-16.27,0-32.55C80.25,55.9,80.24,55.32,80.23,54.74Z"/><path class="cls-12" d="M67.52,21.62a5.55,5.55,0,0,0-.62-1.3,5,5,0,0,1-.37-2.83A.61.61,0,0,1,67,16.9c.28-.07.47.11.66.3a6.66,6.66,0,0,1,.9,1.75c.23-.93-.21-2,1.06-2.27a6.1,6.1,0,0,1,.2-1.81,3.41,3.41,0,0,1,.24-.63c.43-.73,1.19-.76,1.45,0a6.65,6.65,0,0,1,.65,3.26,8.47,8.47,0,0,0-.05.94c.41-.21.46-.58.65-.84a4.86,4.86,0,0,1,.74-.89.53.53,0,0,1,.63-.09.52.52,0,0,1,.27.57c-.09.44-.23.87-.36,1.3.72.83.74,1,.18,2-.22.39-.49.75-.74,1.12Z"/><path class="cls-1" d="M72.86,26.46h5.9A5.43,5.43,0,0,1,78.88,28c-.4.31-.87.07-1.26.26-.23.48,0,1-.18,1.56a4,4,0,0,1-1.53.07c-.26-.56,0-1.1-.24-1.64h-10c-.33.45,0,1-.25,1.6a6,6,0,0,1-1.47.06c-.32-.55,0-1.13-.25-1.66-.5-.17-1,0-1.56-.14a4.43,4.43,0,0,1,0-1.64l6-.07A36,36,0,0,0,72.86,26.46Z"/><path class="cls-13" d="M72.86,26.46a36,36,0,0,1-4.76,0L67.45,23h6A34.3,34.3,0,0,1,72.86,26.46Z"/><path class="cls-10" d="M73.49,23h-6c-1,0-.44-.75-.59-1.13.2-.27.44-.2.66-.22h5.92c.43,0,.76.08.77.61S74.05,23,73.49,23Z"/><path class="cls-12" d="M30.44,92.32a24.7,24.7,0,0,0,5.87,1.32c1.52.16,3.06.3,4.58.47,2.19.25,4.41.19,6.59.54h.1a43.08,43.08,0,0,1,5.2.22c6.34.23,12.69.22,19,.13,2.12,0,4.25,0,6.36-.2,1.25-.1,2.51,0,3.75-.17,2.12-.26,4.27-.26,6.4-.51,1.1-.13,2.24-.15,3.35-.27a32,32,0,0,0,7.68-1.51l.05.37-.06,1.73a5.72,5.72,0,0,1-1.85.79,8.38,8.38,0,0,0-1.57.39,6.16,6.16,0,0,0-1.54.22l-4.47.59a23.7,23.7,0,0,0-3.72.38c0,.48,0,.86.1,1.24.24,1.81.46,3.63.74,5.43.25,1.59.34,3.19.71,4.75a.29.29,0,0,0,0,.16c0,.51.09,1,.13,1.53.12,1.37.51,2.7.5,4.08.12.92.25,1.84.36,2.75.16,1.27.31,2.54.46,3.81s.38,2.59.5,3.89.32,2.46.52,3.68c.08.83.15,1.66.26,2.48.28,2.32.6,4.63.88,6.95.25,2.07.46,4.14.69,6.2l.31,1.78a15.42,15.42,0,0,0,.18,1.91c.11.39-.09.59-.48.67-.92.18-1.21-.07-1.41-1-.12-.52,0-1.1-.35-1.57a5.06,5.06,0,0,0-.21-1.77c-.26-1.61-.5-3.24-.77-4.85-.73-4.38-1.48-8.75-2.22-13.12q-.92-5.38-1.84-10.75t-1.85-10.94c-.36-2.12-.71-4.24-1.07-6.37,0-.3.18-.71-.36-.79-.57.07-1.17-.13-1.72.14-3.87.06-7.73.32-11.6.26a.48.48,0,0,0-.49.21,15.76,15.76,0,0,1-.12,1.75c-.09,8,0,16-.17,24l-.07.57a.36.36,0,0,1-.16-.33,25.85,25.85,0,0,0-.45-3.82c-.45-3.07-.87-6.15-1.52-9.19a42,42,0,0,0-1.55-6.25V97.59a.7.7,0,0,0-.59-.21c-4,.05-7.92,0-11.87-.2A16.32,16.32,0,0,1,49.47,97l-.84,0c-.55.08-1.13-.16-1.67.12-.2,1.21-.4,2.38-.6,3.56-.27,1.64-.54,3.28-.82,4.92-.41,2.43-.83,4.85-1.25,7.28s-.83,4.78-1.24,7.17c-.14.72-.28,1.44-.41,2.17-.55,3.31-1.13,6.62-1.65,9.94-.23,1.45-.58,2.88-.67,4.36-.49,2.09-.79,4.22-1.17,6.34-.25,1.42-.47,2.84-.73,4.26-.18,1-.46,1.15-1.43.89a1.15,1.15,0,0,1-.31-.14c-.18-1.07.31-2.14.18-3.22a.5.5,0,0,0,.15-.34c.16-1.35.31-2.69.47-4a6.51,6.51,0,0,0,.29-2.19c.25-1.27.34-2.55.49-3.83.29-2.36.6-4.72.89-7.07.24-1.92.52-3.83.71-5.74.21-2.08.61-4.14.68-6.24.37-.68.08-1.41.18-2.11.05-.08.15-.15.16-.23.21-1.43.4-2.85.6-4.28.24-1.72.54-3.42.71-5.14.13-1.37.45-2.73.45-4.11a4.15,4.15,0,0,0,.2-1.85c0-.27.35-.51,0-.89a12.46,12.46,0,0,1-1.83,0c-1.86-.26-3.74-.36-5.58-.75a18.68,18.68,0,0,1-3.9-.89C30.19,94.33,29.91,93.77,30.44,92.32Z"/><path class="cls-14" d="M68,125.24c.09,1.83.47,3.62.69,5.43.19,1.55.29,3.11.55,4.66-.07,1,.24,2,.2,3a2.42,2.42,0,0,1-.23,1.1c-1.81.05-3.58.46-5.4.43-.69,0-1-.36-1.16-1a23.9,23.9,0,0,0-1.16-3.4,3.59,3.59,0,0,0-.26-1.12c-1.51-4.82-2.87-9.67-4.27-14.52-.68-2.35-1.29-4.71-2.11-7,0-.61-.22-1.1-.94-1.14.06-.43-.24-.8-.21-1.23a14.61,14.61,0,0,0-.4-3.9A6.1,6.1,0,0,0,49.84,102a26.7,26.7,0,0,0-3.48-1.36L47,97.1c.54-.28,1.12,0,1.67-.12.15.22.38.18.59.18a.6.6,0,0,0,.33.18,57.2,57.2,0,0,1,9.61,2.72c2.16.83,4,2,5,4.24a42,42,0,0,1,1.55,6.25c.65,3,1.07,6.12,1.52,9.19a25.85,25.85,0,0,1,.45,3.82.36.36,0,0,0,.16.33C67.88,124.34,67.73,124.81,68,125.24Z"/><path class="cls-15" d="M46.36,100.66A26.7,26.7,0,0,1,49.84,102a6.1,6.1,0,0,1,3.44,4.58,14.61,14.61,0,0,1,.4,3.9c0,.43.27.8.21,1.23a5.35,5.35,0,0,0,.17,1.91v13.81a8.43,8.43,0,0,1,0,.87c-.22,2.52-.15,5.06-.31,7.59a37.6,37.6,0,0,0-.23,4.11,1.22,1.22,0,0,1-.17.83.48.48,0,0,0-.62.13,3.07,3.07,0,0,0-.68,0,12.33,12.33,0,0,1-4.11,0c-.87,0-1.21-.46-1.39-1.26a32,32,0,0,0-.79-3.46c-.08-.54-.14-1.08-.24-1.61-.77-3.93-1.35-7.89-1.9-11.85a12.25,12.25,0,0,0-.54-2.81c.41-2.39.83-4.78,1.24-7.17s.84-4.85,1.25-7.28C45.82,103.94,46.09,102.3,46.36,100.66Z"/><path class="cls-4" d="M80.25,135.34c0-.65,0-1.29,0-1.93q0-18.15,0-36.3c.55-.27,1.15-.07,1.72-.14l.05.76c0,.26,0,.52,0,.77q0,17.66,0,35.3c0,1.26,0,2.51,0,3.77a6.24,6.24,0,0,0,4.09,5.79,9.21,9.21,0,0,0,4,.43,5.06,5.06,0,0,1,.21,1.77,22.92,22.92,0,0,1-4.06-.05,7.18,7.18,0,0,1-6-7.08C80.26,137.4,80.26,136.37,80.25,135.34Z"/><path class="cls-16" d="M20.38,114.64q-.91,5.72-1.85,11.43-1.09,6.68-2.21,13.33c-.34,1.93-.67,3.85-1,5.78-.18,1-.41,1.17-1.47.67.13-1.95.62-3.89.71-5.86.37-1.74.54-3.5.78-5.26q.82-6.27,1.64-12.55c.35-2.65.72-5.3,1.08-8Z"/><path class="cls-16" d="M32,139.41c-.07-2.87-.45-5.72-.67-8.58-.27-3.6-.6-7.19-.9-10.79l-.36-4.43h2.31c.24,1.75.23,3.53.33,5.3.25,4.5.54,9,.69,13.5a22.41,22.41,0,0,0,.27,3.46l.42,8.48c-1,.64-1.37.46-1.47-.6C32.41,143.64,32.21,141.52,32,139.41Z"/><path class="cls-6" d="M52.7,141a.48.48,0,0,1,.62-.13c.12.6.28,1.19.34,1.8a1.24,1.24,0,0,0,.71,1c1.22.65,2.44,1.3,3.65,2a5.25,5.25,0,0,1,1.63,1.17c.58.73.43,1.23-.44,1.53a4,4,0,0,1-1.24.13,56.7,56.7,0,0,1-6.62-.69,21.12,21.12,0,0,1-2.85-.45c-.94-.25-1.18-.52-1.22-1.47a8.28,8.28,0,0,1,.64-3.58,12.36,12.36,0,0,0,1.49.67,2.2,2.2,0,0,0,1.86-.08,3.87,3.87,0,0,1,1.43-.53Z"/><path class="cls-16" d="M37.48,140.25c-.16,1.35-.31,2.69-.47,4a.5.5,0,0,1-.15.34c-.61-.08-.65-.55-.69-1-.11-1.34-.19-2.69-.3-4-.07-.9-.15-1.8-.23-2.7,0-2.25-.26-4.49-.43-6.74-.37-4.84-.66-9.69-1-14.53l2.18,0c.2,4.6.41,9.19.6,13.79.13,2.89.19,5.79.4,8.68A13.48,13.48,0,0,0,37.48,140.25Z"/><path class="cls-6" d="M69.34,141.47a5.47,5.47,0,0,0,2,1.23l3.39,1.39a4.47,4.47,0,0,1,1.37.88c.6.59.48,1.1-.29,1.4a5.82,5.82,0,0,1-2,.34c-2.83.07-5.66.07-8.49-.12-1.31-.08-1.59-.4-1.62-1.75a6.36,6.36,0,0,1,.43-3.11,1.36,1.36,0,0,1,.29,0,3.2,3.2,0,0,0,3.53-.22A1,1,0,0,1,69.34,141.47Z"/><path class="cls-10" d="M69.34,141.47a1,1,0,0,0-1.34.07,3.2,3.2,0,0,1-3.53.22,1.36,1.36,0,0,0-.29,0l-.39-1.83c1.82,0,3.59-.38,5.4-.43C69.06,140.15,69.45,140.79,69.34,141.47Z"/><path class="cls-10" d="M52.7,141v1.39a3.87,3.87,0,0,0-1.43.53,2.2,2.2,0,0,1-1.86.08,12.36,12.36,0,0,1-1.49-.67V141A12.33,12.33,0,0,0,52,141,3.07,3.07,0,0,1,52.7,141Z"/><path class="cls-4" d="M137.59,145.47a.43.43,0,0,1,.38-.05A.28.28,0,0,1,137.59,145.47Z"/><path class="cls-11" d="M34.24,115.61H30.42c0-.55,0-1.1,0-1.65A1.75,1.75,0,0,0,29,112.23c-1.66-.38-3.36-.38-5-.71a33.43,33.43,0,0,1-4.84-1.16A4.77,4.77,0,0,1,15.81,107c-.69-2.59-1.32-5.21-1.8-7.84-.59-3.23-1.36-6.43-1.9-9.67-.31-1.82-.82-3.61-1.08-5.44-.19-1.36-.45-2.71-.61-4.07-.22-1.78-.43-3.53,1-5,.27-.26.61-.16.92-.17,1.54,0,3.09-.06,4.63-.09a34,34,0,0,1,.07,3.64c0,.59.15,1,.79,1.11a23,23,0,0,0,.66,4.82A18.09,18.09,0,0,1,19,86.9c-.05,1.34,0,2.68-.16,4A43.42,43.42,0,0,0,19,97.17a1.8,1.8,0,0,0,.37,1.07,4.61,4.61,0,0,0-.26,1.61,12.19,12.19,0,0,0,.91,6.77c1,2.31,3,3.44,5.31,4.09a34.67,34.67,0,0,0,4.52.87c2.66.39,5.32.79,8,1.14a11.47,11.47,0,0,1,2.85.35c-.1.7.19,1.43-.18,2.11l-4.12.4Z"/><path class="cls-12" d="M11.45,75.07c-1.46,1.42-1.25,3.17-1,5,.16,1.36.42,2.71.61,4.07.26,1.83.77,3.62,1.08,5.44.54,3.24,1.31,6.44,1.9,9.67.48,2.63,1.11,5.25,1.8,7.84a4.77,4.77,0,0,0,3.31,3.32A33.43,33.43,0,0,0,24,111.52c1.66.33,3.36.33,5,.71A1.75,1.75,0,0,1,30.44,114c0,.55,0,1.1,0,1.65h-.35a61.79,61.79,0,0,1-9.69-1l-2.32-.41c-3-.59-4.56-2.42-5.1-5.41-.61-3.41-1.26-6.81-1.87-10.23s-1.15-6.7-1.68-10.07c-.44-2.79-.82-5.59-1.2-8.39a7.13,7.13,0,0,1,.19-2.68A3.24,3.24,0,0,1,11.45,75.07Z"/><path class="cls-16" d="M143.75,67.73c-.14-.07-.14-.13,0-.2Z"/><path class="cls-16" d="M143.75,68.69c-.14-.06-.14-.13,0-.19Z"/><path class="cls-17" d="M94.38,95.84a6.16,6.16,0,0,1,1.54-.22v2.13c0,.89.07,1,.92,1s1.61,0,2.42,0,1.07-.25,1.11-1.1,0-1.42,0-2.13c0-1,0-1-1-1l.06-1.73c.45,0,1,.08,1-.6q0-1.55,0-3.09c0-.39-.25-.57-.62-.57H96.56c-.44,0-.64.21-.64.65s0,1,0,1.45a7.75,7.75,0,0,1-1.52-.23c-.1-.61.18-1.3-.41-1.88h-3.4c-.43,0-.66.19-.66.64,0,.22,0,.44,0,.67-.89-.06-1.78-.08-2.66-.18-1.74-.2-3.49-.32-5.24-.38Q82,72,82,54.75c0-.26,0-.52,0-.77l.52-.25a1.36,1.36,0,0,0,.78-1.82c-.39-1.2-.85-2.38-1.28-3.56,0-2.2,0-4.39,0-6.59,0-6.74,0-13.49,0-20.24a6.39,6.39,0,0,1,4.67-6.38A4.7,4.7,0,0,1,88,14.87c2.47,0,4.95,0,7.48,0,.08.67.12,1.31.22,1.93a2.74,2.74,0,0,0,2.62,2.42c.32,0,.64,0,1,0h22.76c2.24,0,3.31-1,3.41-3.29,0-.32,0-.64,0-.91.3-.3.6-.2.88-.2,2,0,3.94,0,5.9,0A6.68,6.68,0,0,1,139,21.6q-.08,51.57,0,103.13c0,4.1-.09,8.2,0,12.3a6.65,6.65,0,0,1-6.85,6.81c-11.78,0-23.57,0-35.35,0-1.58,0-3.16,0-4.74-.06-.23-2.06-.44-4.13-.69-6.2-.28-2.32-.6-4.63-.88-6.95-.11-.82-.18-1.65-.26-2.48h40.86c1.6,0,2.34-.75,2.35-2.4,0-3.06,0-6.13,0-9.19a5.13,5.13,0,0,0-.1-1,1.92,1.92,0,0,0-1.43-1.54,4,4,0,0,0-1.34-.14c-3.87,0-7.74,0-11.61,0-10.19,0-20.39-.15-30.58.09,0-1.38-.38-2.71-.5-4.08,0-.51-.11-1-.13-1.53.3.16.25.51.38.76a1.35,1.35,0,0,0,1,.77c.7.06,1.38.24,2.09.24q20.58,0,41.15,0a5.81,5.81,0,0,0,.59,0c1.69-.12,2.31-.57,2.58-1.91a5.25,5.25,0,0,0,0-1q0-16.89,0-33.79a38.5,38.5,0,0,0-.16-5.78c-.17-1.21-.62-1.77-1.86-1.91A2.27,2.27,0,0,0,131,63.67H127.5c0-.48,0-1,0-1.44a1.18,1.18,0,0,0-1.2-1.22,1.12,1.12,0,0,0-1.1,1.2c0,.48,0,1,0,1.44l-30.33,0c0-.48,0-1,0-1.43a1.11,1.11,0,0,0-1.15-1.15,1.09,1.09,0,0,0-1.15,1.14c0,.47,0,1,0,1.43H88.84a2,2,0,0,0-2.27,2.26c0,2,0,4,0,6,0,.13,0,.25.25.45H133.5a1.79,1.79,0,0,1,.2,1c-.12,10.9.23,21.79-.18,32.68a2.14,2.14,0,0,1-.73,1.61,2.52,2.52,0,0,1-1.89.53H92.58l-4.84,0c-.37-1.56-.46-3.16-.71-4.75-.28-1.8-.5-3.62-.74-5.43-.05-.38-.06-.76-.1-1.24a23.7,23.7,0,0,1,3.72-.38c0,.52,0,1,0,1.54s.22.76.75.76c.93,0,1.86,0,2.79,0,.66,0,.9-.28.92-1S94.37,96.48,94.38,95.84Zm9.82-42.08a1.34,1.34,0,0,1-.53-1.25c0-.67,0-1.34,0-2,.07-.41.12-.82.23-1.22A1.52,1.52,0,0,1,105.28,48a1.59,1.59,0,0,1,1.55,1.2c.12.36.22.73.33,1.1a11.94,11.94,0,0,1-.22,3.37c-.65,0-.65,0-.74.46a.67.67,0,0,0,.78-.34c.51-.08.51-.48.57-.86a4.35,4.35,0,0,0,0-2.15c.39.09.47.35.64.53A5.92,5.92,0,0,0,110,53a.16.16,0,0,1,0,.15c0,.2.11.21.2,0l.14-.19a18.15,18.15,0,0,0,3.16-3.4c-.09-.17-.13-.26-.18-.34-.59-.92-.61-.95.41-1.41a.8.8,0,0,0,.47-1.1,3.27,3.27,0,0,1-.11-1.24c1.33,1.68,1.27,3.55.82,5.48a6.28,6.28,0,0,0-.76.31,1.2,1.2,0,1,0,1.23,2.06,1.16,1.16,0,0,0,.31-1.69,1.25,1.25,0,0,1-.25-1.14,6.55,6.55,0,0,0-.94-5.35c-.12-.16-.25-.32,0-.49A12.47,12.47,0,0,1,118,46.27a19.17,19.17,0,0,1,2,4.63,7,7,0,0,0,.62,1.69c3.64-2.86,5.92-9.72,3.93-15.51a15.29,15.29,0,0,0-16-10.4A14.94,14.94,0,0,0,95.25,38.5c-1.29,5.61,1,11.59,4.59,14.23.1,0,.12-.12.14-.22a15.41,15.41,0,0,1,2.32-5.87,1.39,1.39,0,0,0,.25-.72c.14.13.27.25.47.07a8.22,8.22,0,0,1,2.61-1.27c0,.09.14.21.11.25a4.78,4.78,0,0,0-.76,2.6,2.66,2.66,0,0,0-1.67,2.87l0,3c-.73.83-.68,1.59.14,1.8a5.77,5.77,0,0,1-.14-1.8c.37.08.36.71.87.59.24.4.46.27.71,0C104.7,53.64,104.45,53.7,104.2,53.76ZM98.07,87.42h0c.42,0,.84,0,1.26,0A1.26,1.26,0,0,0,100.72,86c0-.9,0-1.8,0-2.7a1.12,1.12,0,0,0-1.08-1.15c-1,.1-1.93-.1-2.89,0a1.26,1.26,0,0,0-1.34,1.43c0,.81,0,1.61,0,2.42s.47,1.39,1.44,1.42C97.24,87.43,97.65,87.42,98.07,87.42Zm6-.52h1.45a.78.78,0,0,0,.85-.84c0-.93,0-1.87,0-2.81a.74.74,0,0,0-.79-.79c-.94,0-1.87,0-2.81,0a.78.78,0,0,0-.85.84c0,.94,0,1.87,0,2.81a.76.76,0,0,0,.79.8C103.17,86.92,103.63,86.9,104.08,86.9ZM118,88.45c-1.09,0-2.19,0-3.28,0-.58,0-.81.22-.8.8,0,.87,0,1.74,0,2.6a.8.8,0,0,0,.71,1,8.94,8.94,0,0,0,3.42-.14c.34,0,.33-.43.33-.73,0-.83,0-1.67,0-2.51A1.28,1.28,0,0,0,118,88.45Zm-2-1.55h1.35c.69,0,1-.26,1-.91,0-.87,0-1.74,0-2.61a.66.66,0,0,0-.56-.77,1.87,1.87,0,0,0-1.12-.09,2.9,2.9,0,0,1-1.7,0c-.67-.17-1,.14-1.07.85,0,.48,0,1,0,1.45C114,87.23,113.63,86.87,116.06,86.9ZM106,88.45h-3.3c-.45,0-.76.12-.76.64v3a.57.57,0,0,0,.65.64,11,11,0,0,0,3.14,0c.46-.13.67-.28.66-.74,0-.9,0-1.8,0-2.7A1.15,1.15,0,0,0,106,88.45Zm14-5.78c0,1.26,0,2.41,0,3.56,0,.49.25.68.72.68.93,0,1.86,0,2.79,0,.68,0,.92-.26.94-.94s0-1.67,0-2.5-.28-1.11-1.06-1A32.23,32.23,0,0,1,119.94,82.67ZM104.22,94.46c-.52,0-1,0-1.55,0s-.76.22-.75.75c0,.93,0,1.86,0,2.8,0,.46.18.73.68.72,1,0,2.05,0,3.08,0,.48,0,.71-.21.7-.69,0-1,0-1.93,0-2.9,0-.49-.25-.69-.72-.68Zm7.78,5.81c-1.1,0-2.2,0-3.29,0-.51,0-.79.17-.78.72,0,.94,0,1.87,0,2.8,0,.54.23.76.75.75q1.45,0,2.91,0c.57,0,.82-.21.8-.79,0-.84,0-1.68,0-2.52A1.28,1.28,0,0,0,112,100.27Zm-6,0c-1.12,0-2.24,0-3.37,0-.47,0-.73.18-.72.68,0,1,0,1.93,0,2.9,0,.49.23.69.71.69,1,0,2,0,3,0,.53,0,.76-.22.75-.75q0-1.31,0-2.61A1.32,1.32,0,0,0,106,100.27Zm4.18-5.81h-1.54c-.47,0-.73.17-.73.68,0,1,0,1.92,0,2.89,0,.47.2.71.69.7,1,0,1.93,0,2.89,0a.77.77,0,0,0,.87-.82c0-.93,0-1.86,0-2.79a.56.56,0,0,0-.64-.65Zm0-11.82h0c-.52,0-1,0-1.55,0s-.7.21-.7.69c0,1,0,1.93,0,2.89,0,.5.24.69.72.68h2.89a.77.77,0,0,0,.84-.84c0-.9,0-1.8,0-2.7,0-.54-.25-.75-.77-.73S110.66,82.64,110.18,82.64Zm-10,17.63c-1.29,0-2.42,0-3.54,0-.54,0-.74.24-.73.76,0,.93,0,1.87,0,2.8,0,.47.2.71.69.71,1.15,0,2.3,0,3.55,0A10.24,10.24,0,0,0,100.19,100.27ZM112,88.45c-1.12,0-2.21,0-3.3,0-.58,0-.82.22-.8.8,0,.93,0,1.86,0,2.79,0,.43.18.67.62.67h3.5A6.57,6.57,0,0,0,112,88.45Zm10.06,0h-1.55a.54.54,0,0,0-.6.6c0,1,0,2.06,0,3.09,0,.29.14.54.44.54,1,0,1.92.16,2.87.19s1.13-.28,1.14-1.26a16.65,16.65,0,0,0-.15-1.86c-.11-1.31-.16-1.31-1.48-1.31ZM94.16,100.27c-1.22,0-2.25,0-3.27,0-.69,0-1,.25-1,.91,0,.89,0,1.79,0,2.69,0,.44.2.66.64.65h3.58A9,9,0,0,0,94.16,100.27Zm30,0c-1.27,0-2.39,0-3.52,0-.47,0-.72.18-.72.68,0,1,0,1.93,0,2.9,0,.43.17.68.62.68,1.18,0,2.37,0,3.72,0C124.24,103.08,124.61,101.73,124.18,100.27ZM118,94.46c-1.12,0-2.21,0-3.3,0-.52,0-.78.2-.77.74q0,1.4,0,2.79c0,.54.24.75.76.75.9,0,1.8,0,2.7,0,.74,0,1-.25,1-1s-.31-1.75,0-2.65C118.42,94.9,118.23,94.68,118,94.46Zm.13,10.08a21.74,21.74,0,0,0,.24-3.46c0-.53-.32-.81-.86-.81-.94,0-1.87,0-2.81,0-.52,0-.77.2-.77.74,0,.93,0,1.87,0,2.8,0,.55.27.74.78.73C115.81,104.52,116.9,104.54,118.13,104.54ZM126,82.8c0,1.13,0,2.26,0,3.38,0,.55.27.74.78.73q1.35,0,2.7,0c.58,0,.81-.23.8-.81,0-.9,0-1.8,0-2.7s-.16-1.09-1-.92a27,27,0,0,1-3,.18A2.2,2.2,0,0,0,126,82.8Zm-1.8,11.66h-3.57c-.44,0-.64.22-.64.66,0,1,0,2,0,3a.55.55,0,0,0,.61.6c1.18,0,2.37.06,3.6-.06Zm6.06.06H126v3.62c0,.4.24.58.63.58h3c.44,0,.63-.23.63-.66Zm0-1.8V89.11c0-.43-.2-.66-.64-.66h-3c-.44,0-.64.23-.64.66v3a.53.53,0,0,0,.58.61Zm-39.78-16c.22.93.39,1.71.57,2.49.09.42.31.52.73.32l.39-1.39c.6.29,0,1.59,1.21,1.46l.63-3c-1.06.31-.67,1.24-1,1.72-.42-.46-.11-1.28-.76-1.67-.56.33-.31,1-.7,1.41C91,77.7,91.51,76.76,90.43,76.67Zm10.72,0v1.72c-.7-.5-.74-1.52-1.73-1.67a12.45,12.45,0,0,0,0,2.58c0,.36.19.44.59.25V78c.74.42.75,1.52,1.73,1.57C102,77.81,101.85,77,101.15,76.62Zm-4.5,2.94c.81,0,1.64.21,2.13-.63a1.43,1.43,0,0,0-.11-1.64c-.51-.72-1.24-.63-2-.55Zm-.52-1.4c-.27-.54-.8-.15-1.13-.41a.36.36,0,0,1,0-.47c.38-.25,1,.21,1.29-.5a4.25,4.25,0,0,0-2,0v2.79c.69-.06,1.35.19,2-.24-.43-.48-1-.09-1.42-.43,0-.16-.09-.35.11-.5S95.81,78.52,96.13,78.16Zm8.26-1.46a7.28,7.28,0,0,0-2.11.08c.07.94-.08,1.86,0,2.81a5.6,5.6,0,0,0,2-.13c-.29-.7-1-.15-1.38-.59,0-.13-.09-.31.1-.47.35-.13.76.08,1.15-.19-.23-.67-.89-.18-1.22-.49a.4.4,0,0,1,0-.49C103.39,77,103.92,77.39,104.39,76.7Zm2.32.77c-.06-.54-.41-.7-.79-.8a1,1,0,0,0-1.28.58c-.13.46.1.84.71,1.1.25.11.56.12.72.42-.48,1-1-.42-1.48,0a1,1,0,0,0,1.26.8.85.85,0,0,0,.87-.75c.06-.45-.22-.7-.61-.86s-.72-.12-.87-.54a.87.87,0,0,1,.17-.21C105.89,76.91,106.16,77.7,106.71,77.47Zm12.24.67a1.29,1.29,0,1,0-2.55,0c0,1,.52,1.53,1.36,1.49A1.27,1.27,0,0,0,119,78.14Zm2.74-.58c-.47-.82-.91-1-1.55-.86a1.47,1.47,0,0,0-.92,1.63,1.29,1.29,0,0,0,1.1,1.28c.69.11,1.05-.13,1.32-.88a1.28,1.28,0,0,0-.28-.07c-.17,0-.27.13-.41.21-.59.37-1,.2-1-.49a2.26,2.26,0,0,1,0-.58c.13-.61.53-.77,1-.36C121.18,77.62,121.35,77.77,121.69,77.56Zm-14.51,2c.85,0,1.68.23,2.13-.67a1.49,1.49,0,0,0-.11-1.63c-.53-.69-1.26-.61-2-.5Zm22.08-2.63c-.24-.39-.55-.28-.84-.14a1.83,1.83,0,0,0-.38,2.6,1,1,0,0,0,1.46-.1,1,1,0,0,0-.23-1.51c-.24-.18-.56-.06-.77-.23C128.56,77.08,129.08,77.31,129.26,76.91Zm-19.61,2.51c.28.17.44.16.63,0,.54-.57.82-.57,1.31,0a.4.4,0,0,0,.62,0l-.84-2.33a.46.46,0,0,0-.39-.37c-.28,0-.41.15-.49.38Zm16.78-.54c.26-.34.52-.67.74-1a.7.7,0,0,0-.16-1,1,1,0,0,0-1.17-.15c-.32.16-.59.38-.4.8.49.23.7-.74,1.25-.14-.07.88-1.21,1.17-1.32,2.13a4.46,4.46,0,0,0,2-.14C127.13,79,126.67,79.27,126.43,78.88Zm-3.72-1.44V79.5c.51.23.62,0,.61-.4,0-.6,0-1.2,0-1.69.27-.34.77,0,.82-.51a2.47,2.47,0,0,0-2.22.1C122.05,77.35,122.47,77.08,122.71,77.44ZM113,79.53c.58-.16.63-.16.61-.41a2.9,2.9,0,0,1,.48-1.43c.15-.3.46-.53.42-.93-.84-.22-.68.75-1.11.9-.49-.18-.32-1.13-1.2-.87C112.5,77.71,113.26,78.45,113,79.53Zm4.17-24.38c.61-.27.48-.61.33-1s.16-.81-.4-1.1A12.13,12.13,0,0,0,117.12,55.15Zm-2.74,25.09c.71-.35.81-.66.42-1.22C114.4,79.33,114.53,79.82,114.38,80.24Z"/><path class="cls-13" d="M43.82,79c.24,1.82.1,3.66.22,5.48a14.94,14.94,0,0,1,.09,3c-1.63-.29-3.19-.59-4.76-.84s-3.09-.47-4.63-.69l-5-.74L27.91,85a1,1,0,0,1-.94-.92,28.2,28.2,0,0,1-.41-4.3,1.06,1.06,0,0,0,.4-1c0-1.58.1-3.17,0-4.74-.21-2.39-.09-4.81-.76-7.14A6.62,6.62,0,0,0,24,63.31a2.5,2.5,0,0,0-1.38-.62c-.19,0-.39,0-.5-.21A15.92,15.92,0,0,1,28.68,60c-.05.4.21.64.46.89A7.38,7.38,0,0,0,30.7,62a5.82,5.82,0,0,0,3.71.66,1.49,1.49,0,0,0,1.07-.73A3.39,3.39,0,0,0,35.87,60a6.38,6.38,0,0,0,1.16.19A16.48,16.48,0,0,1,41,62a2.21,2.21,0,0,1,.72.61c-.09.45.21.79.35,1.18a29.92,29.92,0,0,1,1.2,5.4A63.78,63.78,0,0,1,43.82,79Z"/><path class="cls-10" d="M35.87,60a3.39,3.39,0,0,1-.39,1.94,1.49,1.49,0,0,1-1.07.73A5.82,5.82,0,0,1,30.7,62a7.38,7.38,0,0,1-1.56-1.11c-.25-.25-.51-.49-.46-.89a25.46,25.46,0,0,0,.61-4.25,3.54,3.54,0,0,0-.23-1.41,7,7,0,0,0-.41-1.71c-.57.1-.95-.46-1.51-.42v0c.14-.34-.16-.53-.26-.79a2.07,2.07,0,0,1,0-1.77A1.11,1.11,0,0,1,28,49.07c.49,0,.63.34.76.73a1.38,1.38,0,0,0,.49.84c.61,0,.6-.45.53-.87a9.81,9.81,0,0,1-.14-2A4,4,0,0,1,30.13,46a2.59,2.59,0,0,1,2.64-1.42c.51.06,1,.16,1.52.25a8.53,8.53,0,0,0,4.2-.11,3.32,3.32,0,0,1,.53-.08c.69,1.36.49,2.83.6,4.25a18.56,18.56,0,0,0-.08,2.69,21,21,0,0,1-.27,2.37A6.05,6.05,0,0,1,37,57.6a13,13,0,0,1-1.52.25,9.66,9.66,0,0,1-4.61-1.06,1.92,1.92,0,0,0,.67.85,5,5,0,0,0,4,1.16C35.78,59.17,35.57,59.65,35.87,60Zm-1.49-6.24a1.38,1.38,0,0,0,1.21,1.35c.64.09,1.14-.26,1.53-1.06A7.46,7.46,0,0,0,34.38,53.76Zm1.31-1c1.36,0,1.7-.33,1.3-1.25a16.9,16.9,0,0,1-.86-2.38,11.33,11.33,0,0,0,0,1.31C36.19,51.13,37,52,35.69,52.71Zm-1.21-5c.11-.58-.23-.57-.56-.6a1.7,1.7,0,0,0-1.89,1A5.94,5.94,0,0,1,34.48,47.76Zm4.77.16c-.87-1.11-1.73-1.22-2.42-.39C37.58,47.94,38.38,47.53,39.25,47.92ZM33.67,50.3c.65-.59.62-.94-.12-1.37C33.06,49.65,33.07,49.73,33.67,50.3Zm4.4,0c.58-.66.57-.81,0-1.4C37.47,49.48,37.46,49.63,38.07,50.32Z"/><path class="cls-17" d="M57.24,53.74H42.36A3,3,0,0,1,45.86,52c.64-1.47,1.48-2.79,3.35-2.86s2.83,1.1,3.53,2.69a3.12,3.12,0,0,1,2.6.28A3.93,3.93,0,0,1,57.24,53.74Z"/><path class="cls-17" d="M35.5,57.85A13,13,0,0,0,37,57.6v2.59A6.38,6.38,0,0,1,35.87,60c-.3-.35-.09-.83-.29-1.2Z"/><path class="cls-6" d="M27.14,52.22c.56,0,.94.52,1.51.42a7,7,0,0,1,.41,1.71A5.2,5.2,0,0,1,27.14,52.22Z"/><path class="cls-17" d="M45.07,25.65c.43-1.54,1.26-2.64,2.84-2.85,2.07-.28,3.21.93,3.91,2.66,2-.34,3.38.54,4.81,1.89H41.21C41.59,26.13,43.28,25.37,45.07,25.65Z"/><path class="cls-17" d="M150.55,99.62l-1.72-.94a7.44,7.44,0,0,1,.78-1.69,13.89,13.89,0,0,0,1.76.58c.55-.37.53-1.11,1-1.54.62,0,1.06.46,1.58.65.16.78-.54,1.22-.53,1.89.35.57,1.17.51,1.54,1.11a7.21,7.21,0,0,1-.66,1.53c-.74,0-1.18-.67-1.91-.54-.34.39-.48,1-.93,1.35a2.88,2.88,0,0,1-1.73-.7Z"/><path class="cls-13" d="M19.4,98.24A1.8,1.8,0,0,1,19,97.17a43.42,43.42,0,0,1-.18-6.24c.16-1.35.11-2.69.16-4,.49.87.68,1.85,1.15,2.73a4,4,0,0,0,3.25,2.28,18.43,18.43,0,0,0,4.13.2A16.31,16.31,0,0,1,30.42,92l0,.36c-.53,1.45-.25,2,1.07,2.6a18.68,18.68,0,0,0,3.9.89c1.84.39,3.72.49,5.58.75a12.46,12.46,0,0,0,1.83,0c.37.38,0,.62,0,.89l-3.71,1.06a2.38,2.38,0,0,0-.38,0,40.47,40.47,0,0,1-8.92.8c-1.45,0-2.89,0-4.34-.13C23.43,99,21.43,98.57,19.4,98.24Z"/><path class="cls-18" d="M73,88.82l-1.51,0a2.89,2.89,0,0,0-1.59-.72A3.41,3.41,0,0,1,73,88.82Z"/><path class="cls-11" d="M50.59,91.17l.09.1-.06,0s0-.06,0-.08Z"/><path class="cls-11" d="M50.59,91.17a.26.26,0,0,1-.2-.2h0a.26.26,0,0,1,.19.2Z"/><path class="cls-11" d="M50.2,90.78l-.1-.1.06,0a.2.2,0,0,1,0,.08Z"/><path class="cls-11" d="M50.2,90.78a.27.27,0,0,1,.2.19h0a.25.25,0,0,1-.19-.19Z"/><path class="cls-18" d="M95.91,90.56c0-.49,0-1,0-1.45s.2-.65.64-.65h3.19c.37,0,.62.18.62.57q0,1.55,0,3.09c0,.68-.52.61-1,.6l-.05-.37c.18-.74-.39-1-.88-1.13C97.64,90.93,96.77,90.77,95.91,90.56Z"/><path class="cls-18" d="M89.9,89.76c0-.23,0-.45,0-.67,0-.45.23-.64.66-.64H94c.59.58.31,1.27.41,1.88Z"/><path class="cls-17" d="M75.39,47.88c.62-.15,1.1-.63,1.81-.46l.63,1.46c.68.23,1.23-.33,1.86-.32a4.08,4.08,0,0,1,.7,1.61,8.37,8.37,0,0,1-1.67.82c-.08.64.53,1.18.29,1.9-.39.36-1,.36-1.51.69-.46-.53-.43-1.26-.92-1.72-.63-.12-1.13.45-1.83.34-.14-.51-.59-.94-.51-1.56.47-.45,1.12-.49,1.68-.83A7.78,7.78,0,0,1,75.39,47.88Z"/><path class="cls-17" d="M69.78,68.85c-.43.66-.79,1.23-1.17,1.78A1.67,1.67,0,0,1,65.74,69,10.54,10.54,0,0,1,67,67Z"/><path class="cls-17" d="M67.39,66.54a8.33,8.33,0,0,1,1.2-2,1.68,1.68,0,0,1,2.79,1.81,7.58,7.58,0,0,1-1.33,1.93A26.23,26.23,0,0,1,67.39,66.54Z"/><path class="cls-13" d="M88.39,114c10.19-.24,20.39,0,30.58-.09,3.87,0,7.74,0,11.61,0a4,4,0,0,1,1.34.14,1.92,1.92,0,0,1,1.43,1.54,5.13,5.13,0,0,1,.1,1c0,3.06,0,6.13,0,9.19,0,1.65-.75,2.4-2.35,2.4H90.23c-.2-1.22-.41-2.44-.52-3.68s-.33-2.6-.5-3.89-.3-2.54-.46-3.81C88.64,115.84,88.51,114.92,88.39,114Zm20.32,9.32a6.2,6.2,0,0,1,1,1.3c.22.31.44.55.89.3v-2.51c0-.36-.08-.67-.59-.51-.19.54,0,1.15-.15,1.71-.71-.54-.76-1.63-1.88-1.84,0,1,0,2,0,2.91,0,.42.29.42.62.28.15-.54,0-1.1.13-1.63Zm6.78,1.78a11.06,11.06,0,0,0,.9-1.71c.17.57,0,1.09.14,1.57a.54.54,0,0,0,.63,0,21.36,21.36,0,0,0,0-3c-.59-.26-.89-.12-1.1.43a5.44,5.44,0,0,1-.64,1.48c-1.09-2.4-.74-2.09-1.58-1.94v3c.37.16.61.14.64-.29a2.21,2.21,0,0,1,.14-1c.14.32.22.52.32.72S115,124.91,115.49,125.1ZM112,118.66c-.49-1.79-.49-1.79-1.07-1.7.23.94.38,1.88.69,2.79.09.26.23.39.49.36s.28-.2.34-.4a4.56,4.56,0,0,1,.42-1.39l.38,1.44c0,.21.16.36.39.36a.36.36,0,0,0,.37-.25,11.75,11.75,0,0,0,.54-3c-.88.32-.5,1.23-1,1.7l-.3-1c-.09-.28,0-.68-.5-.73C112.12,117.27,112.4,118.09,112,118.66Zm8.43,3.13v3.13a.43.43,0,0,0,.57.06c.24-.5,0-1.07.19-1.62.72.41.64,1.67,1.78,1.71a19.78,19.78,0,0,0,.08-2.75c0-.25-.08-.47-.38-.45s-.32.26-.33.5a5.32,5.32,0,0,1-.06,1.25C121.53,123.13,121.53,122,120.38,121.79Zm-14.2,1.69a1.53,1.53,0,0,0-1.36-1.69,1.56,1.56,0,0,0-1.54,1.62,1.5,1.5,0,0,0,1.37,1.66A1.47,1.47,0,0,0,106.18,123.48Zm4.46-5a1.47,1.47,0,0,0-1.41-1.65,1.69,1.69,0,0,0,.08,3.36A1.5,1.5,0,0,0,110.64,118.46Zm6.13-1.45a8.25,8.25,0,0,0,0,2,1.24,1.24,0,0,0,1.31,1.16,1.27,1.27,0,0,0,1.28-1.2c0-.54,0-1.1,0-1.64,0-.26-.06-.47-.35-.47s-.38.19-.38.45c0,.48,0,1,0,1.45s-.12.82-.6.82-.61-.38-.6-.83,0-1.15,0-1.72A.57.57,0,0,0,116.77,117Zm-14.26,1.46a1.42,1.42,0,0,0-1.44-1.57c-.93,0-1.48.65-1.46,1.75a1.45,1.45,0,0,0,1.47,1.55A1.55,1.55,0,0,0,102.51,118.47Zm16,5.27c1.13-.1,1.13-.1,1.09-.62H119a.8.8,0,0,1-.59-.14c0-.17-.12-.39.12-.56,1.2-.08,1.2-.08,1.29-.57a11.87,11.87,0,0,0-2.15,0,23.64,23.64,0,0,0,0,3.15c2,.14,2.07.12,2.15-.45-.45-.2-1,.09-1.4-.18A.79.79,0,0,1,118.5,123.74Zm-20.18.36c.26,0,.51-.09.75-.16.73-.22,1-.54.92-1.14a1.09,1.09,0,0,0-1.11-1,3.23,3.23,0,0,0-1.4.09v2.69c0,.44.22.56.62.41C98.31,124.76,98.14,124.44,98.32,124.1Zm2.13-2.28a27.69,27.69,0,0,0,0,3.16c.25.07.46.16.66-.1,0-.13,0-.28,0-.44s0-.33.18-.48l.51,0c.69-.06,1.12-.42,1.16-.93a1.21,1.21,0,0,0-1.09-1.16A13.75,13.75,0,0,0,100.45,121.82Zm-3.27,3.12L96,121.88c-.62,0-.65,0-.78.37-.34.89-.66,1.79-1,2.68.73.37.73-.36,1-.59h.88C96.42,124.59,96.38,125.24,97.18,124.94Zm23.53-5.87a6.48,6.48,0,0,0,.76-.06,1,1,0,0,0-.14-2.08,4.54,4.54,0,0,0-1.37,0,24.36,24.36,0,0,0,0,3.08C120.8,120.07,120.4,119.41,120.71,119.07Zm4.27,5.81v-2.25c.38-.23,1,0,.88-.7-1.46-.27-2.18-.17-2.51.32.16.39.61.12.86.41.13.74-.06,1.55.11,2.3A.51.51,0,0,0,125,124.88Zm-21.35-8c-.45-.17-.65,0-.66.35a19.79,19.79,0,0,0,0,2.88,6.85,6.85,0,0,0,2.07-.1c-.12-1-1-.25-1.42-.83Zm8.22,5.6V125c.28.07.49.16.68-.11.1-.79,0-1.62.08-2.37.29-.24.65,0,.84-.29-.34-.43-.71-.5-2-.39-.3,0-.59,0-.57.41C111.14,122.63,111.48,122.3,111.85,122.51Zm-5.68-3.2v-2c0-.24-.06-.46-.35-.47s-.39.18-.38.44c0,.92,0,1.84.07,2.74a3.26,3.26,0,0,0,2-.06C107.41,119.11,106.61,119.78,106.17,119.31Zm-8.2-1.8c1.12-.08,1.12-.08,1.28-.54h-2c0,.93,0,1.83,0,2.72,0,.36.22.41.5.3.25-.35-.05-.79.18-1,.41-.27,1,.12,1.24-.49-.4-.31-.87,0-1.28-.27A.82.82,0,0,1,98,117.51Zm9.35,7.46a25.82,25.82,0,0,0,0-3c-.28-.14-.48-.16-.7.07v2.56C106.6,125,106.8,125.14,107.32,125Zm7.53-6.37c.54.59,1,.57,1.4-.06A2.92,2.92,0,0,0,114.85,118.6Z"/><path class="cls-15" d="M19.4,98.24c2,.33,4,.78,6.09,1,1.45.12,2.89.1,4.34.13a40.47,40.47,0,0,0,8.92-.8,2.38,2.38,0,0,1,.38,0,14.06,14.06,0,0,0,3.51.79c0,1.38-.32,2.74-.45,4.11-.17,1.72-.47,3.42-.71,5.14-.2,1.43-.39,2.85-.6,4.28,0,.08-.11.15-.16.23a11.47,11.47,0,0,0-2.85-.35c-2.67-.35-5.33-.75-8-1.14a34.67,34.67,0,0,1-4.52-.87c-2.3-.65-4.28-1.78-5.31-4.09a12.19,12.19,0,0,1-.91-6.77A4.61,4.61,0,0,1,19.4,98.24Z"/><path class="cls-17" d="M90.1,143.79a9.21,9.21,0,0,1-4-.43A6.24,6.24,0,0,1,82,137.57c0-1.26,0-2.51,0-3.77q0-17.66,0-35.3c0-.25,0-.51,0-.77l.31,0c.36,2.13.71,4.25,1.07,6.37q.93,5.48,1.85,10.94t1.84,10.75c.74,4.37,1.49,8.74,2.22,13.12C89.6,140.55,89.84,142.18,90.1,143.79Z"/><path class="cls-18" d="M133.6,65.78c1.24.14,1.69.7,1.86,1.91a38.5,38.5,0,0,1,.16,5.78q0,16.89,0,33.79a5.25,5.25,0,0,1,0,1c-.27,1.34-.89,1.79-2.58,1.91a5.81,5.81,0,0,1-.59,0q-20.57,0-41.15,0c-.71,0-1.39-.18-2.09-.24a1.35,1.35,0,0,1-1-.77c-.13-.25-.08-.6-.38-.76a.29.29,0,0,1,0-.16l4.84,0H130.9a2.52,2.52,0,0,0,1.89-.53,2.14,2.14,0,0,0,.73-1.61c.41-10.89.06-21.78.18-32.68a1.79,1.79,0,0,0-.2-1c0-.38,0-.77,0-1.15C133.58,69.41,133.46,67.59,133.6,65.78Z"/><path class="cls-18" d="M99.34,94.44c1,.07,1,.07,1,1,0,.71,0,1.42,0,2.13s-.29,1.09-1.11,1.1-1.62,0-2.42,0-.91-.08-.92-1V95.62a8.38,8.38,0,0,1,1.57-.39A5.72,5.72,0,0,0,99.34,94.44Z"/><path class="cls-18" d="M94.38,95.84c0,.64,0,1.28,0,1.92s-.26.94-.92,1c-.93,0-1.86,0-2.79,0-.53,0-.76-.23-.75-.76s0-1,0-1.54Z"/><path class="cls-14" d="M42.64,99.31a14.06,14.06,0,0,1-3.51-.79l3.71-1.06A4.15,4.15,0,0,1,42.64,99.31Z"/><path class="cls-19" d="M37.42,138.05h.35a6.51,6.51,0,0,1-.29,2.19A13.48,13.48,0,0,1,37.42,138.05Z"/><path class="cls-10" d="M68,125.24c-.25-.43-.1-.9-.16-1.35l.07-.57A4.78,4.78,0,0,1,68,125.24Z"/><path class="cls-11" d="M82.35,97.76l-.31,0L82,97C82.53,97.05,82.32,97.46,82.35,97.76Z"/><path class="cls-11" d="M49.47,97l-.25.15c-.21,0-.44,0-.59-.18Z"/><path class="cls-13" d="M133.6,65.78c-.14,1.81,0,3.63-.06,5.44,0,.38,0,.77,0,1.15H86.82c-.24-.2-.25-.32-.25-.45,0-2,0-4,0-6a2,2,0,0,1,2.27-2.26h3.58c0,.93,0,1.86,0,2.79s.49,1.32,1.22,1.3,1.07-.44,1.09-1.29,0-1.86,0-2.79l30.33,0c0,1,0,2,0,3a1.12,1.12,0,0,0,2.23.21,3.24,3.24,0,0,0,0-.76c0-.8,0-1.6,0-2.4H131A2.27,2.27,0,0,1,133.6,65.78Z"/><path class="cls-18" d="M102.55,45.92a1.39,1.39,0,0,1-.25.72A15.41,15.41,0,0,0,100,52.51c0,.1,0,.18-.14.22C96.29,50.09,94,44.11,95.25,38.5a14.94,14.94,0,0,1,13.33-11.82,15.29,15.29,0,0,1,16,10.4c2,5.79-.29,12.65-3.93,15.51a7,7,0,0,1-.62-1.69,19.17,19.17,0,0,0-2-4.63A5.06,5.06,0,0,0,117,41.74c-.1-.12-.18-.26-.28-.39a4.43,4.43,0,0,1-.86-3.28c.06-.48.1-1,.14-1.44a8.43,8.43,0,0,0-.39-3.63,4.78,4.78,0,0,0-6-3.24,2.42,2.42,0,0,1-.47.06,4.26,4.26,0,0,0-4.14,3,8.74,8.74,0,0,0-.46,4.66,4.73,4.73,0,0,1-1,3.88A4.61,4.61,0,0,0,102.55,45.92Z"/><path class="cls-6" d="M102.55,45.92a4.61,4.61,0,0,1,1-4.52,4.73,4.73,0,0,0,1-3.88,8.74,8.74,0,0,1,.46-4.66,4.26,4.26,0,0,1,4.14-3,2.42,2.42,0,0,0,.47-.06,4.78,4.78,0,0,1,6,3.24,8.43,8.43,0,0,1,.39,3.63c0,.48-.08,1-.14,1.44a4.43,4.43,0,0,0,.86,3.28c.1.13.18.27.28.39A5.06,5.06,0,0,1,118,46.27a12.47,12.47,0,0,0-3.46-1.58c-.39-.37-.6,0-.85.21l-.72-.37c-.59-1.11-1-2.21,0-3.35a3.7,3.7,0,0,0,.63-1.29.8.8,0,0,1,.6-.64,1.42,1.42,0,0,0,.91-1.53,1,1,0,0,0-.37-.75c-.34-.26-.52.14-.76.28-.37-1.2-.37-1.2-1.5-1.3h-.08a5.25,5.25,0,0,1-2.76-2.64,5.41,5.41,0,0,1-2.56,2.81,1.32,1.32,0,0,0-.78.92s-.1.06-.15.09c-.22-.07-.23-.41-.52-.36A1.44,1.44,0,0,0,106,39.2c.26.14.53.19.61.52a6.36,6.36,0,0,0,1.56,2.63l-.1.7c-.15.56-.11,1.24-.86,1.45-.32,0-.5.26-.77.37-.24-.08-.45-.35-.76-.15A8.22,8.22,0,0,0,103,46C102.82,46.17,102.69,46.05,102.55,45.92Z"/><path class="cls-13" d="M98.07,87.42c-.42,0-.83,0-1.25,0-1,0-1.42-.46-1.44-1.42s0-1.61,0-2.42a1.26,1.26,0,0,1,1.34-1.43c1-.07,1.92.13,2.89,0a1.12,1.12,0,0,1,1.08,1.15c0,.9,0,1.8,0,2.7a1.26,1.26,0,0,1-1.39,1.38c-.42,0-.84,0-1.26,0Z"/><path class="cls-18" d="M104.08,86.9c-.45,0-.91,0-1.36,0a.76.76,0,0,1-.79-.8c0-.94,0-1.87,0-2.81a.78.78,0,0,1,.85-.84c.94,0,1.87,0,2.81,0a.74.74,0,0,1,.79.79c0,.94,0,1.88,0,2.81a.78.78,0,0,1-.85.84Z"/><path class="cls-18" d="M118,88.45a1.28,1.28,0,0,1,.38,1c0,.84,0,1.68,0,2.51,0,.3,0,.68-.33.73a8.94,8.94,0,0,1-3.42.14.8.8,0,0,1-.71-1c0-.86,0-1.73,0-2.6,0-.58.22-.81.8-.8C115.82,88.47,116.92,88.45,118,88.45Z"/><path class="cls-18" d="M116.06,86.9c-2.43,0-2.1.33-2.12-2.09,0-.48,0-1,0-1.45,0-.71.4-1,1.07-.85a2.9,2.9,0,0,0,1.7,0,1.87,1.87,0,0,1,1.12.09.66.66,0,0,1,.56.77c0,.87,0,1.74,0,2.61,0,.65-.29.88-1,.91h-1.35Z"/><path class="cls-18" d="M106,88.45a1.15,1.15,0,0,1,.39.85c0,.9,0,1.8,0,2.7,0,.46-.2.61-.66.74a11,11,0,0,1-3.14,0,.57.57,0,0,1-.65-.64v-3c0-.52.31-.64.76-.64Z"/><path class="cls-18" d="M119.94,82.67a32.23,32.23,0,0,0,3.39-.2c.78-.12,1,.21,1.06,1s0,1.67,0,2.5-.26.92-.94.94c-.93,0-1.86,0-2.79,0-.47,0-.72-.19-.72-.68C120,85.08,119.94,83.93,119.94,82.67Z"/><path class="cls-18" d="M104.22,94.46h1.44c.47,0,.73.19.72.68,0,1,0,1.93,0,2.9,0,.48-.22.7-.7.69-1,0-2.06,0-3.08,0-.5,0-.68-.26-.68-.72,0-.94,0-1.87,0-2.8,0-.53.22-.76.75-.75S103.7,94.46,104.22,94.46Z"/><path class="cls-18" d="M112,100.27a1.28,1.28,0,0,1,.39,1c0,.84,0,1.68,0,2.52,0,.58-.23.81-.8.79q-1.45,0-2.91,0c-.52,0-.76-.21-.75-.75,0-.93,0-1.86,0-2.8,0-.55.27-.73.78-.72C109.8,100.28,110.9,100.27,112,100.27Z"/><path class="cls-18" d="M106,100.27a1.32,1.32,0,0,1,.36.91q0,1.3,0,2.61c0,.53-.22.76-.75.75-1,0-2,0-3,0-.48,0-.71-.2-.71-.69,0-1,0-1.94,0-2.9,0-.5.25-.68.72-.68C103.78,100.28,104.9,100.27,106,100.27Z"/><path class="cls-18" d="M110.2,94.46h1.54a.56.56,0,0,1,.64.65c0,.93,0,1.86,0,2.79a.77.77,0,0,1-.87.82c-1,0-1.93,0-2.89,0-.49,0-.69-.23-.69-.7,0-1,0-1.93,0-2.89,0-.51.26-.68.73-.68Z"/><path class="cls-18" d="M110.18,82.64c.48,0,1,0,1.44,0s.78.19.77.73c0,.9,0,1.8,0,2.7a.77.77,0,0,1-.84.84h-2.89c-.48,0-.72-.18-.72-.68,0-1,0-1.92,0-2.89,0-.48.22-.7.7-.69s1,0,1.55,0Z"/><path class="cls-18" d="M100.19,100.27a10.24,10.24,0,0,1,0,4.27c-1.25,0-2.4,0-3.55,0-.49,0-.7-.24-.69-.71,0-.93,0-1.87,0-2.8,0-.52.19-.77.73-.76C97.77,100.28,98.9,100.27,100.19,100.27Z"/><path class="cls-18" d="M112,88.45a6.57,6.57,0,0,1,0,4.27h-3.5c-.44,0-.62-.24-.62-.67,0-.93,0-1.86,0-2.79,0-.58.22-.81.8-.8C109.82,88.47,110.91,88.45,112,88.45Z"/><path class="cls-18" d="M122.09,88.45h.68c1.32,0,1.37,0,1.48,1.31a16.65,16.65,0,0,1,.15,1.86c0,1-.18,1.28-1.14,1.26s-1.91-.17-2.87-.19c-.3,0-.44-.25-.44-.54,0-1,0-2.06,0-3.09a.54.54,0,0,1,.6-.6Z"/><path class="cls-18" d="M94.16,100.27a9,9,0,0,1,0,4.26H90.56c-.44,0-.64-.21-.64-.65,0-.9,0-1.8,0-2.69,0-.66.28-.9,1-.91C91.91,100.26,92.94,100.27,94.16,100.27Z"/><path class="cls-18" d="M124.18,100.27c.43,1.46.06,2.81.1,4.26-1.35,0-2.54,0-3.72,0-.45,0-.62-.25-.62-.68,0-1,0-1.93,0-2.9,0-.5.25-.68.72-.68C121.79,100.28,122.91,100.27,124.18,100.27Z"/><path class="cls-18" d="M118,94.46c.23.22.42.44.36.63-.27.9.11,1.77,0,2.65s-.27,1-1,1c-.9,0-1.8,0-2.7,0-.52,0-.76-.21-.76-.75q0-1.4,0-2.79c0-.54.25-.75.77-.74C115.79,94.47,116.88,94.46,118,94.46Z"/><path class="cls-18" d="M118.13,104.54c-1.23,0-2.32,0-3.42,0-.51,0-.78-.18-.78-.73,0-.93,0-1.87,0-2.8,0-.54.25-.75.77-.74.94,0,1.87,0,2.81,0,.54,0,.9.28.86.81A21.74,21.74,0,0,1,118.13,104.54Z"/><path class="cls-18" d="M126,82.8a2.2,2.2,0,0,1,.28-.14,27,27,0,0,0,3-.18c.85-.17,1,0,1,.92s0,1.8,0,2.7c0,.58-.22.82-.8.81q-1.35,0-2.7,0c-.51,0-.78-.18-.78-.73C126,85.06,126,83.93,126,82.8Z"/><path class="cls-18" d="M124.15,94.46v4.2c-1.23.12-2.42,0-3.6.06a.55.55,0,0,1-.61-.6c0-1,0-2,0-3,0-.44.2-.66.64-.66Z"/><path class="cls-18" d="M130.21,94.52v3.54c0,.43-.19.66-.63.66h-3c-.39,0-.63-.18-.63-.58V94.52Z"/><path class="cls-18" d="M130.21,92.72h-3.68a.53.53,0,0,1-.58-.61v-3c0-.43.2-.66.64-.66h3c.44,0,.64.23.64.66Z"/><path class="cls-13" d="M110.41,53l-.14.19-.2,0a.16.16,0,0,0,0-.15c-.28-1.19-.8-2.29-1.18-3.44a17,17,0,0,1-1.12-3.74,5.19,5.19,0,0,0,3,.78c.69-.07,1.23-.53,1.9-.6-.56,1.62-1.13,3.24-1.69,4.87A8.09,8.09,0,0,0,110.41,53Z"/><path class="cls-16" d="M127.5,63.66c0,.8,0,1.6,0,2.4a3.24,3.24,0,0,1,0,.76,1.12,1.12,0,0,1-2.23-.21c0-1,0-2,0-3,0-.48,0-1,0-1.44a1.12,1.12,0,0,1,1.1-1.2,1.18,1.18,0,0,1,1.2,1.22C127.5,62.7,127.49,63.18,127.5,63.66Z"/><path class="cls-16" d="M94.81,63.66c0,.93,0,1.86,0,2.79s-.38,1.26-1.09,1.29-1.18-.45-1.22-1.3,0-1.86,0-2.79c0-.48,0-1,0-1.43a1.09,1.09,0,0,1,1.15-1.14,1.11,1.11,0,0,1,1.15,1.15C94.8,62.7,94.8,63.18,94.81,63.66Z"/><path class="cls-18" d="M107.73,45.84a17,17,0,0,0,1.12,3.74c.38,1.15.9,2.25,1.18,3.44a5.92,5.92,0,0,1-1.87-1.72c-.17-.18-.25-.44-.64-.53a4.35,4.35,0,0,1,0,2.15c-.06.38-.06.78-.57.86-.06,0-.07-.07,0-.12a11.94,11.94,0,0,0,.22-3.37c.32-.14.25-.4.21-.65a2.67,2.67,0,0,0-1.43-2,.48.48,0,0,0,.25-.47,4,4,0,0,1,.17-1.6c.06-.13-.06-.23-.17-.3l.2-.38c.27-.11.45-.39.77-.37.13.38.07.82.38,1.14,0,.11,0,.22.2.2Z"/><path class="cls-18" d="M110.41,53a8.09,8.09,0,0,1,.54-2.11c.56-1.63,1.13-3.25,1.69-4.87.42-.43.33-1,.34-1.49l.72.37.46.61a3.27,3.27,0,0,0,.11,1.24.8.8,0,0,1-.47,1.1c-1,.46-1,.49-.41,1.41,0,.08.09.17.18.34A18.15,18.15,0,0,1,110.41,53Z"/><path class="cls-4" d="M90.43,76.67c1.08.09.55,1,1,1.39.39-.37.14-1.08.7-1.41.65.39.34,1.21.76,1.67.36-.48,0-1.41,1-1.72l-.63,3c-1.21.13-.61-1.17-1.21-1.46l-.39,1.39c-.42.2-.64.1-.73-.32C90.82,78.38,90.65,77.6,90.43,76.67Z"/><path class="cls-4" d="M114.16,45.51l-.46-.61c.25-.21.46-.58.85-.21-.23.17-.1.33,0,.49a6.55,6.55,0,0,1,.94,5.35,1.25,1.25,0,0,0,.25,1.14,1.16,1.16,0,0,1-.31,1.69,1.2,1.2,0,1,1-1.23-2.06A6.28,6.28,0,0,1,115,51C115.43,49.06,115.49,47.19,114.16,45.51Zm.67,6a1,1,0,0,0-.8.82.77.77,0,0,0,.7.76.89.89,0,0,0,.86-.74A.93.93,0,0,0,114.83,51.52Z"/><path class="cls-4" d="M101.15,76.62c.7.34.82,1.19.55,3-1,0-1-1.15-1.73-1.57V79.5c-.4.19-.58.11-.59-.25a12.45,12.45,0,0,1,0-2.58c1,.15,1,1.17,1.73,1.67Z"/><path class="cls-16" d="M96.65,79.56V76.74c.78-.08,1.51-.17,2,.55a1.43,1.43,0,0,1,.11,1.64C98.29,79.77,97.46,79.56,96.65,79.56Zm.66-.46c.87-.16,1.07-.39,1-1.11s-.4-.81-1-.72A5.9,5.9,0,0,0,97.31,79.1Z"/><path class="cls-4" d="M106.39,44.87l-.2.38a2.94,2.94,0,0,0-.74,1.63c-.07.37,0,.72.49.74a2.67,2.67,0,0,1,1.43,2c0,.25.11.51-.21.65-.11-.37-.21-.74-.33-1.1a1.59,1.59,0,0,0-1.55-1.2,1.52,1.52,0,0,0-1.37,1.29c-.11.4-.16.81-.23,1.22l-.37-.06A2.66,2.66,0,0,1,105,47.57a4.78,4.78,0,0,1,.76-2.6s-.07-.16-.11-.25C105.94,44.52,106.15,44.79,106.39,44.87Z"/><path class="cls-4" d="M96.13,78.16c-.32.36-.75.11-1.08.25s-.1.34-.11.5c.41.34,1,0,1.42.43-.68.43-1.34.18-2,.24V76.79a4.25,4.25,0,0,1,2,0c-.3.71-.91.25-1.29.5a.36.36,0,0,0,0,.47C95.33,78,95.86,77.62,96.13,78.16Z"/><path class="cls-4" d="M104.39,76.7c-.47.69-1,.32-1.41.53a.4.4,0,0,0,0,.49c.33.31,1-.18,1.22.49-.39.27-.8.06-1.15.19-.19.16-.09.34-.1.47.38.44,1.09-.11,1.38.59a5.6,5.6,0,0,1-2,.13c-.13-1,0-1.87,0-2.81A7.28,7.28,0,0,1,104.39,76.7Z"/><path class="cls-4" d="M106.71,77.47c-.55.23-.82-.56-1.3-.22a.87.87,0,0,0-.17.21c.15.42.55.41.87.54s.67.41.61.86a.85.85,0,0,1-.87.75,1,1,0,0,1-1.26-.8c.47-.46,1,1,1.48,0-.16-.3-.47-.31-.72-.42-.61-.26-.84-.64-.71-1.1a1,1,0,0,1,1.28-.58C106.3,76.77,106.65,76.93,106.71,77.47Z"/><path class="cls-16" d="M119,78.14a1.27,1.27,0,0,1-1.19,1.46c-.84,0-1.37-.54-1.36-1.49a1.29,1.29,0,1,1,2.55,0Zm-.6,0c0-.61-.3-1-.72-.94s-.63.4-.61,1c0,.46.14.84.66.9S118.36,78.7,118.35,78.13Z"/><path class="cls-4" d="M121.69,77.56c-.34.21-.51.06-.73-.12-.5-.41-.9-.25-1,.36a2.26,2.26,0,0,0,0,.58c.07.69.45.86,1,.49.14-.08.24-.22.41-.21a1.28,1.28,0,0,1,.28.07c-.27.75-.63,1-1.32.88a1.29,1.29,0,0,1-1.1-1.28,1.47,1.47,0,0,1,.92-1.63C120.78,76.51,121.22,76.74,121.69,77.56Z"/><path class="cls-4" d="M107.18,79.54v-2.8c.76-.11,1.49-.19,2,.5a1.49,1.49,0,0,1,.11,1.63C108.86,79.77,108,79.52,107.18,79.54Zm.62-.48c.82-.08,1.1-.35,1.06-1s-.25-.76-1-.76A5.83,5.83,0,0,0,107.8,79.06Z"/><path class="cls-4" d="M129.26,76.91c-.18.4-.7.17-.76.62.21.17.53,0,.77.23a1,1,0,0,1,.23,1.51,1,1,0,0,1-1.46.1,1.83,1.83,0,0,1,.38-2.6C128.71,76.63,129,76.52,129.26,76.91Zm-.14,1.72c0-.3-.14-.5-.46-.49a.37.37,0,0,0-.4.42.48.48,0,0,0,.41.54C129,79.14,129.08,78.88,129.12,78.63Z"/><path class="cls-16" d="M109.65,79.42l.84-2.32c.08-.23.21-.4.49-.38a.46.46,0,0,1,.39.37l.84,2.33a.4.4,0,0,1-.62,0c-.49-.57-.77-.57-1.31,0C110.09,79.58,109.93,79.59,109.65,79.42Zm1-.91c.2-.09.39.11.53-.17a1.37,1.37,0,0,0-.27-.74A1.06,1.06,0,0,0,110.68,78.51Z"/><path class="cls-4" d="M126.43,78.88c.24.39.7.08.9.52a4.46,4.46,0,0,1-2,.14c.11-1,1.25-1.25,1.32-2.13-.55-.6-.76.37-1.25.14-.19-.42.08-.64.4-.8a1,1,0,0,1,1.17.15.7.7,0,0,1,.16,1C127,78.21,126.69,78.54,126.43,78.88Z"/><path class="cls-4" d="M122.71,77.44c-.24-.36-.66-.09-.79-.44a2.47,2.47,0,0,1,2.22-.1c0,.5-.55.17-.82.51,0,.49,0,1.09,0,1.69,0,.4-.1.63-.61.4Z"/><path class="cls-4" d="M113,79.53c.31-1.08-.45-1.82-.8-2.74.88-.26.71.69,1.2.87.43-.15.27-1.12,1.11-.9,0,.4-.27.63-.42.93a2.9,2.9,0,0,0-.48,1.43C113.58,79.37,113.53,79.37,113,79.53Z"/><path class="cls-20" d="M103.31,50.44l.37.06c0,.67,0,1.34,0,2a1.34,1.34,0,0,0,.53,1.25l0,.22c-.51.12-.5-.51-.87-.59h0Z"/><path class="cls-18" d="M117.12,55.15a12.13,12.13,0,0,1-.07-2.08c.56.29.27.77.4,1.1S117.73,54.88,117.12,55.15Z"/><path class="cls-20" d="M103.28,53.39a5.77,5.77,0,0,0,.14,1.8c-.82-.21-.87-1-.14-1.8Z"/><path class="cls-4" d="M114.38,80.24c.15-.42,0-.91.42-1.22C115.19,79.58,115.09,79.89,114.38,80.24Z"/><path class="cls-4" d="M106.94,53.66c0,.05,0,.09,0,.12a.67.67,0,0,1-.78.34C106.29,53.61,106.29,53.61,106.94,53.66Z"/><path class="cls-6" d="M104.15,54l0-.22c.25-.06.5-.12.66.25C104.61,54.25,104.39,54.38,104.15,54Z"/><path class="cls-18" d="M110.07,53.17l.2,0C110.18,53.38,110.11,53.37,110.07,53.17Z"/><path class="cls-11" d="M35.5,57.85l.08.95a5,5,0,0,1-4-1.16,1.92,1.92,0,0,1-.67-.85A9.66,9.66,0,0,0,35.5,57.85Z"/><path class="cls-17" d="M34.38,53.76a7.46,7.46,0,0,1,2.74.29c-.39.8-.89,1.15-1.53,1.06A1.38,1.38,0,0,1,34.38,53.76Z"/><path class="cls-11" d="M35.69,52.71c1.31-.71.5-1.58.48-2.32a11.33,11.33,0,0,1,0-1.31A16.9,16.9,0,0,0,37,51.46C37.39,52.38,37.05,52.76,35.69,52.71Z"/><path class="cls-6" d="M34.48,47.76a5.94,5.94,0,0,0-2.45.41,1.7,1.7,0,0,1,1.89-1C34.25,47.19,34.59,47.18,34.48,47.76Z"/><path class="cls-16" d="M39.25,47.92c-.87-.39-1.67,0-2.42-.39C37.52,46.7,38.38,46.81,39.25,47.92Z"/><path class="cls-6" d="M33.67,50.3c-.6-.57-.61-.65-.12-1.37C34.29,49.36,34.32,49.71,33.67,50.3Z"/><path class="cls-6" d="M38.07,50.32c-.61-.69-.6-.84,0-1.4C38.64,49.51,38.65,49.66,38.07,50.32Z"/><path class="cls-9" d="M115.49,125.1c-.45-.19-.46-.47-.58-.69s-.18-.4-.32-.72a2.21,2.21,0,0,0-.14,1c0,.43-.27.45-.64.29v-3c.84-.15.49-.46,1.58,1.94a5.44,5.44,0,0,0,.64-1.48c.21-.55.51-.69,1.1-.43a21.36,21.36,0,0,1,0,3,.54.54,0,0,1-.63,0c-.18-.48,0-1-.14-1.57A11.06,11.06,0,0,1,115.49,125.1Z"/><path class="cls-17" d="M112,118.66c.45-.57.17-1.39.74-1.82.49,0,.41.45.5.73l.3,1c.51-.47.13-1.38,1-1.7a11.75,11.75,0,0,1-.54,3,.36.36,0,0,1-.37.25c-.23,0-.34-.15-.39-.36l-.38-1.44a4.56,4.56,0,0,0-.42,1.39c-.06.2-.12.37-.34.4s-.4-.1-.49-.36c-.31-.91-.46-1.85-.69-2.79C111.46,116.87,111.46,116.87,112,118.66Z"/><path class="cls-9" d="M108.7,123.33c-.17.53,0,1.09-.13,1.63-.33.14-.61.14-.62-.28,0-.93,0-1.86,0-2.91,1.12.21,1.17,1.3,1.88,1.84.19-.56,0-1.17.15-1.71.51-.16.58.15.59.51v2.51c-.45.25-.67,0-.89-.3a6.2,6.2,0,0,0-1-1.3s0-.22-.13-.06S108.62,123.36,108.7,123.33Z"/><path class="cls-18" d="M120.38,121.79c1.15.2,1.15,1.34,1.85,1.83a5.32,5.32,0,0,0,.06-1.25c0-.24,0-.48.33-.5s.38.2.38.45a19.78,19.78,0,0,1-.08,2.75c-1.14,0-1.06-1.3-1.78-1.71-.23.55,0,1.12-.19,1.62a.43.43,0,0,1-.57-.06Z"/><path class="cls-9" d="M106.18,123.48a1.47,1.47,0,0,1-1.53,1.59,1.5,1.5,0,0,1-1.37-1.66,1.56,1.56,0,0,1,1.54-1.62A1.53,1.53,0,0,1,106.18,123.48Zm-2.16.07a1.93,1.93,0,0,0,.11.52.59.59,0,0,0,.69.39.84.84,0,0,0,.61-.87c0-.47,0-.91-.49-1.15-.32-.16-.54,0-.74.25S104,123.16,104,123.55Z"/><path class="cls-17" d="M110.64,118.46a1.5,1.5,0,0,1-1.33,1.71,1.69,1.69,0,0,1-.08-3.36A1.47,1.47,0,0,1,110.64,118.46Zm-.75.22c0-.31,0-.4,0-.5,0-.43-.23-.78-.66-.8s-.73.36-.75.83a3.21,3.21,0,0,0,0,.76.7.7,0,0,0,.74.62.68.68,0,0,0,.61-.64A2.44,2.44,0,0,0,109.89,118.68Z"/><path class="cls-9" d="M116.77,117a.57.57,0,0,1,.64,0c0,.57,0,1.15,0,1.72s.13.82.6.83.62-.38.6-.82,0-1,0-1.45c0-.26.08-.46.38-.45s.35.21.35.47c0,.54,0,1.1,0,1.64a1.27,1.27,0,0,1-1.28,1.2,1.24,1.24,0,0,1-1.31-1.16A8.25,8.25,0,0,1,116.77,117Z"/><path class="cls-17" d="M102.51,118.47a1.55,1.55,0,0,1-1.43,1.73,1.45,1.45,0,0,1-1.47-1.55c0-1.1.53-1.76,1.46-1.75A1.42,1.42,0,0,1,102.51,118.47Zm-.73,0c0-.65-.28-1.07-.71-1.09s-.82.5-.83,1.12a1,1,0,0,0,.76,1.09C101.47,119.64,101.78,119.19,101.78,118.49Z"/><path class="cls-18" d="M118.5,123.74a.79.79,0,0,0-.06.63c.44.27,1,0,1.4.18-.08.57-.16.59-2.15.45a23.64,23.64,0,0,1,0-3.15,11.87,11.87,0,0,1,2.15,0c-.09.49-.09.49-1.29.57-.24.17-.14.39-.12.56a.8.8,0,0,0,.59.14h.57C119.63,123.64,119.63,123.64,118.5,123.74Z"/><path class="cls-9" d="M98.32,124.1c-.18.34,0,.66-.22.91-.4.15-.62,0-.62-.41v-2.69a3.23,3.23,0,0,1,1.4-.09,1.09,1.09,0,0,1,1.11,1c.06.6-.19.92-.92,1.14C98.83,124,98.58,124.05,98.32,124.1Zm0-.77c.42,0,.88.17,1-.39.07-.37-.32-.52-1-.42A1,1,0,0,0,98.33,123.33Z"/><path class="cls-18" d="M100.45,121.82a13.75,13.75,0,0,1,1.45,0A1.21,1.21,0,0,1,103,123c0,.51-.47.87-1.16.93l-.51,0c-.2.15-.17.32-.18.48s0,.31,0,.44c-.2.26-.41.17-.66.1A27.69,27.69,0,0,1,100.45,121.82Zm.79,1.48c.34.07.68.15.94-.18a.37.37,0,0,0,0-.52c-.27-.32-.6-.24-.94-.16A1,1,0,0,0,101.24,123.3Z"/><path class="cls-9" d="M97.18,124.94c-.8.3-.76-.35-1-.6h-.88c-.29.23-.29,1-1,.59.33-.89.65-1.79,1-2.68.13-.34.16-.34.78-.37Zm-1.78-1.26c.56.12.59-.11.47-.45,0-.11-.09-.23-.28-.19Z"/><path class="cls-17" d="M120.71,119.07c-.31.34.09,1-.76,1a24.36,24.36,0,0,1,0-3.08,4.54,4.54,0,0,1,1.37,0,1,1,0,0,1,.14,2.08A6.48,6.48,0,0,1,120.71,119.07Zm-.12-.64c.46,0,.87.18,1-.32a.41.41,0,0,0-.23-.56.8.8,0,0,0-.84.06c0,.12,0,.25,0,.37S120.57,118.23,120.59,118.43Z"/><path class="cls-18" d="M125,124.88a.51.51,0,0,1-.66.08c-.17-.75,0-1.56-.11-2.3-.25-.29-.7,0-.86-.41.33-.49,1.05-.59,2.51-.32.14.7-.5.47-.88.7Z"/><path class="cls-9" d="M103.63,116.91v2.3c.4.58,1.3-.14,1.42.83a6.85,6.85,0,0,1-2.07.1,19.79,19.79,0,0,1,0-2.88C103,116.89,103.18,116.74,103.63,116.91Z"/><path class="cls-18" d="M111.85,122.51c-.37-.21-.71.12-.93-.28,0-.37.27-.38.57-.41,1.25-.11,1.62,0,2,.39-.19.31-.55.05-.84.29-.13.75,0,1.58-.08,2.37-.19.27-.4.18-.68.11Z"/><path class="cls-18" d="M106.17,119.31c.44.47,1.24-.2,1.38.66a3.26,3.26,0,0,1-2,.06c-.12-.9,0-1.82-.07-2.74,0-.26.09-.46.38-.44s.35.23.35.47Z"/><path class="cls-17" d="M98,117.51a.82.82,0,0,0-.07.67c.41.23.88,0,1.28.27-.26.61-.83.22-1.24.49-.23.26.07.7-.18,1-.28.11-.5.06-.5-.3,0-.89,0-1.79,0-2.72h2C99.09,117.43,99.09,117.43,98,117.51Z"/><path class="cls-18" d="M107.32,125c-.52.17-.72,0-.71-.42V122c.22-.23.42-.21.7-.07A25.82,25.82,0,0,1,107.32,125Z"/><path class="cls-18" d="M114.85,118.6a2.92,2.92,0,0,1,1.4-.06C115.88,119.17,115.39,119.19,114.85,118.6Z"/><path class="cls-10" d="M113,44.53c0,.52.08,1.06-.34,1.49-.67.07-1.21.53-1.9.6a5.19,5.19,0,0,1-3-.78h0a.29.29,0,0,0-.2-.2c-.31-.32-.25-.76-.38-1.14.75-.21.71-.89.86-1.45l.89.35a2.13,2.13,0,0,0,2.54-.81s-.06,0-.08,0a2.12,2.12,0,0,0-.36.1,2.27,2.27,0,0,1-2.45-.16.89.89,0,0,0-.44-.15,6.36,6.36,0,0,1-1.56-2.63c-.08-.33-.35-.38-.61-.52a1.44,1.44,0,0,1-.33-2.43c.29-.05.3.29.52.36,0,0,.14-.05.15-.09a1.32,1.32,0,0,1,.78-.92,5.41,5.41,0,0,0,2.56-2.81A5.25,5.25,0,0,0,112.39,36c-.42.2-1.1-.28-1.4.64a5.11,5.11,0,0,1,1.53-.08c.12-.28-.19-.36-.14-.57h.09c1.13.1,1.13.1,1.5,1.3.24-.14.42-.54.76-.28a1,1,0,0,1,.37.75,1.42,1.42,0,0,1-.91,1.53.8.8,0,0,0-.6.64,3.7,3.7,0,0,1-.63,1.29C112,42.32,112.39,43.42,113,44.53Zm-4-4.05c.43.85.81,1.09,1.49.88.4-.13.87-.28.73-.94A12.62,12.62,0,0,0,108.94,40.48Zm1.31-2.59c-.49.46-.31,1.16-.77,1.63.47.45.7.24.75-.2A11.35,11.35,0,0,0,110.25,37.89Zm-2.78-1.33,1.63-.11C108.67,35.77,108.24,35.78,107.47,36.56Zm4.35.61c-.51.56-.51.56,0,.9A.62.62,0,0,0,111.82,37.17Zm-3.41,0c-.35.28-.41.56-.16.84a.24.24,0,0,0,.4,0C108.86,37.68,108.76,37.42,108.41,37.19Z"/><path class="cls-11" d="M108.12,42.35a.89.89,0,0,1,.44.15,2.27,2.27,0,0,0,2.45.16,2.12,2.12,0,0,1,.36-.1s.06,0,.08,0a2.13,2.13,0,0,1-2.54.81l-.89-.35Z"/><path class="cls-9" d="M105.94,47.62c-.52,0-.56-.37-.49-.74a2.94,2.94,0,0,1,.74-1.63c.11.07.23.17.17.3a4,4,0,0,0-.17,1.6A.48.48,0,0,1,105.94,47.62Z"/><path class="cls-13" d="M107.54,45.64a.29.29,0,0,1,.2.2C107.58,45.86,107.56,45.75,107.54,45.64Z"/><path class="cls-19" d="M114.83,51.52a.93.93,0,0,1,.76.84.89.89,0,0,1-.86.74.77.77,0,0,1-.7-.76A1,1,0,0,1,114.83,51.52Z"/><path class="cls-9" d="M97.31,79.1a5.9,5.9,0,0,1,0-1.83c.63-.09,1,.11,1,.72S98.18,78.94,97.31,79.1Z"/><path class="cls-9" d="M118.35,78.13c0,.57-.28,1-.67,1s-.65-.44-.66-.9c0-.63.19-1,.61-1S118.33,77.52,118.35,78.13Z"/><path class="cls-9" d="M107.8,79.06a5.83,5.83,0,0,1,0-1.77c.79,0,1,.17,1,.76S108.62,79,107.8,79.06Z"/><path class="cls-18" d="M129.12,78.63c0,.25-.12.51-.45.47a.48.48,0,0,1-.41-.54.37.37,0,0,1,.4-.42C129,78.13,129.1,78.33,129.12,78.63Z"/><path class="cls-18" d="M110.68,78.51a1.06,1.06,0,0,1,.26-.91,1.37,1.37,0,0,1,.27.74C111.07,78.62,110.88,78.42,110.68,78.51Z"/><path class="cls-13" d="M108.7,123.33c-.08,0-.15,0-.12-.07s.1,0,.13.06Z"/><path class="cls-13" d="M104,123.55c0-.39,0-.65.18-.86s.42-.41.74-.25c.49.24.51.68.49,1.15a.84.84,0,0,1-.61.87.59.59,0,0,1-.69-.39A1.93,1.93,0,0,1,104,123.55Z"/><path class="cls-13" d="M109.89,118.68a2.44,2.44,0,0,1,0,.27.68.68,0,0,1-.61.64.7.7,0,0,1-.74-.62,3.21,3.21,0,0,1,0-.76c0-.47.26-.84.75-.83s.64.37.66.8C109.89,118.28,109.89,118.37,109.89,118.68Z"/><path class="cls-13" d="M101.78,118.49c0,.7-.31,1.15-.78,1.12a1,1,0,0,1-.76-1.09c0-.62.39-1.14.83-1.12S101.77,117.84,101.78,118.49Z"/><path class="cls-13" d="M98.33,123.33a1,1,0,0,1,0-.81c.7-.1,1.09,0,1,.42C99.21,123.5,98.75,123.31,98.33,123.33Z"/><path class="cls-13" d="M101.24,123.3a1,1,0,0,1,0-.86c.34-.08.67-.16.94.16a.37.37,0,0,1,0,.52C101.92,123.45,101.58,123.37,101.24,123.3Z"/><path class="cls-13" d="M95.4,123.68l.19-.64c.19,0,.24.08.28.19C96,123.57,96,123.8,95.4,123.68Z"/><path class="cls-13" d="M120.59,118.43c0-.2,0-.32,0-.45s0-.25,0-.37a.8.8,0,0,1,.84-.06.41.41,0,0,1,.23.56C121.46,118.61,121.05,118.48,120.59,118.43Z"/><path class="cls-17" d="M108.94,40.48a12.62,12.62,0,0,1,2.22-.06c.14.66-.33.81-.73.94C109.75,41.57,109.37,41.33,108.94,40.48Z"/><path class="cls-11" d="M110.25,37.89a11.35,11.35,0,0,1,0,1.43c0,.44-.28.65-.75.2C109.94,39.05,109.76,38.35,110.25,37.89Z"/><path class="cls-16" d="M107.47,36.56c.77-.78,1.2-.79,1.63-.11Z"/><path class="cls-16" d="M112.38,35.94c0,.21.26.29.14.57a5.11,5.11,0,0,0-1.53.08c.3-.92,1-.44,1.4-.64Z"/><path class="cls-6" d="M111.82,37.17a.62.62,0,0,1,0,.9C111.31,37.73,111.31,37.73,111.82,37.17Z"/><path class="cls-6" d="M108.41,37.19c.35.23.45.49.24.81a.24.24,0,0,1-.4,0C108,37.75,108.06,37.47,108.41,37.19Z"/><rect class="cls-10" x="31.52" y="46" width="7.25" height="9.77" transform="translate(7.12 -4.24) rotate(7.69)"/><path class="cls-10" d="M107.31,36.31l1.06-.87h2.71l1.51.54.29.82-.4,1.81s-.37,2-.37,2-.25,1.22-.49,1.24-2-.22-2-.22l-1.12-.9-2-2.83Z"/></svg>