<svg id="Layer_1" data-name="Layer 1" xmlns="http://www.w3.org/2000/svg" viewBox="0 0 160 160"><defs><style>.cls-1,.cls-23{fill:#fff;}.cls-2{fill:#b1c2d5;}.cls-3{fill:#fcf0ed;}.cls-4{fill:#eddddf;}.cls-5{fill:#e2535e;}.cls-6{fill:#f6f0f0;}.cls-7{fill:#6b86ae;}.cls-8{fill:#cdd1d1;}.cls-9{fill:#f3a499;}.cls-10{fill:#e05763;}.cls-11{fill:#ec8286;}.cls-12{fill:#36354a;}.cls-13{fill:#26273a;}.cls-14{opacity:0.26;}.cls-15{fill:#e46168;}.cls-16{fill:#c73b48;}.cls-17{fill:#ecdadc;}.cls-18{fill:#fdfdfd;}.cls-19{fill:#52526e;}.cls-20{fill:#fcfcfc;}.cls-21{fill:#7cbf9b;}.cls-22{fill:#f94b4b;}.cls-23{font-size:3.43px;font-family:Poppins-SemiBold, Poppins;font-weight:600;}</style></defs><title>Get Results</title><path class="cls-1" d="M-2.64-2.46V164H163.83V-2.46Zm51.42,139.8h0a1.06,1.06,0,0,0,.62,0,11.74,11.74,0,0,0,1.23-2.13,1.88,1.88,0,0,0,1-.63,1.07,1.07,0,0,1,.88-.48c1.69.09,3.35-.26,5.05-.2,2,.07,3.95,0,5.93,0a1.24,1.24,0,0,0,.54,0,6.7,6.7,0,0,0,1.09,2.29l.07.16a1.89,1.89,0,0,1-.34-.35c-.19-.25-.54-.18-.81-.11-.8.21-1.62.2-2.42.34a29.94,29.94,0,0,0-4.79,1c-.39.13-.9.18-1,.73H48.61C48.56,137.7,48.73,137.54,48.78,137.34Z"/><polygon class="cls-2" points="155.49 155.66 7.06 155.66 18.51 141.7 148 143.75 155.49 155.66"/><rect class="cls-3" x="52.34" y="76.47" width="16.09" height="27.83"/><path class="cls-3" d="M69.42,90.13a.66.66,0,0,0-.26.57,8.31,8.31,0,0,0-2.37,6.53,4.42,4.42,0,0,0,1.49,3.21v0l0,.06.11.09v.08l0,.22c-.72,1-.74,2.3-1.1,3.46a2.24,2.24,0,0,0-1.32.24,2.27,2.27,0,0,1-.1-1.1s.07,0,.06-.06a.61.61,0,0,0-.07-.17,21.87,21.87,0,0,0-.48-4.56l-.06-.61A12.65,12.65,0,0,0,65,96.12l.1-.2c.57-.19.78-.72,1-1.17,1.94-3.32,1.13-7.85-1.09-10.61a1.44,1.44,0,0,0-.32-.18L62.41,85c-.08-.93-.15-1.86-.25-2.79a1.2,1.2,0,0,0-.54-1,12.26,12.26,0,0,0-4-1.85,1.37,1.37,0,0,0-1.23.09.77.77,0,0,0-.69.44,2.45,2.45,0,0,0-.21,2.26,8,8,0,0,0,1.67,2.61A4.13,4.13,0,0,1,58,88.6a3.15,3.15,0,0,0-.17,1.9,4.23,4.23,0,0,0,.24,1.57c.88,2.44,4,4.69,6.54,4.23l0,0A12,12,0,0,0,65,98.09l.09,1c0,.39,0,.77,0,1.16.1,1.34.2,2.68.31,4h-1.7a6.85,6.85,0,0,0,0-3.51,6.61,6.61,0,0,0-2.32-3.63c-1.68-2.6-4.32-3.9-7-5.13a9.91,9.91,0,0,0-2.45-.8,4.08,4.08,0,0,0-.85-.08,1.42,1.42,0,0,0-1.55,1.89,13.06,13.06,0,0,0,1.91,3.59c.18.32.57.24.89.25a7.21,7.21,0,0,1,2.54.37,16.38,16.38,0,0,1-1.45,1.44,2.09,2.09,0,0,0-.54,2.63,7.8,7.8,0,0,0,1.71,2.58,3.36,3.36,0,0,1,.31.43c-2.45,0-4.91-.17-7.34,0-1.38.11-2.68-.21-4-.09a2.33,2.33,0,0,1-.16-1.33q0-27.14,0-54.25c0-1-.07-2-.13-3a.91.91,0,0,1,.32-.76H69.06a17,17,0,0,1,.32,2.43c0,2.38.05,4.76,0,7.14,0,1.13.06,2.26,0,3.39-.27,8.28-.19,16.55-.2,24.83A52.59,52.59,0,0,0,69.42,90.13Z"/><path class="cls-3" d="M15.88,104.27a2.88,2.88,0,0,1-.11-1.17V45.83c0-.84.11-.94.94-.94H41.13a4.11,4.11,0,0,1,.5.06v59.32Z"/><path class="cls-4" d="M68.39,125.51c0,1.53,0,1.65-2,2.26a28.6,28.6,0,0,1-5.12,1,35.76,35.76,0,0,1-6.24.43c.29,1.31.54,2.52.84,3.72q1.59,6.36,3.21,12.73a2.05,2.05,0,0,0,.42,1.06,8.84,8.84,0,0,0,.87,3.46c0,.38-.28.47-.53.59a2.06,2.06,0,0,0-1.18,1.44c-.11.54-.63.87-.67,1.43a11.16,11.16,0,0,0-4.32-1.09c-.08-.57.29-.78.74-.84a8.72,8.72,0,0,0,2.15-.92.59.59,0,0,0,.35-.61,12.27,12.27,0,0,0,2.39-.12c-.47-1.13-.57-2.3-1.09-3.34-.47-2.45-1.25-4.82-1.89-7.22s-1.24-4.68-1.84-7a11.16,11.16,0,0,0-.91-3H48.72v20.67h2.59c0,.69-.29,1.07-1,1.08a2.57,2.57,0,0,0-.82.14.72.72,0,0,1-1-.51c-.14-.44-.33-.8-.88-.72,0-1.15,0-2.3,0-3.44a23,23,0,0,0-.22-3.21c0-4.27,0-8.55,0-12.83a2.08,2.08,0,0,0-.18-1.26H42.9c-.44,0-.57.26-.68.67-1.19,4.43-2.44,8.85-3.58,13.29a11.42,11.42,0,0,0-.74,3.32c-.61.6-.42,1.51-.85,2.17l-.87.22c-.06-.83.43-1.56.43-2.38a30.7,30.7,0,0,0,1-3.87c1-4.18,2-8.36,3.17-12.52a2,2,0,0,0,.06-1,4.85,4.85,0,0,0-1.78-.14,40.74,40.74,0,0,1-9.86-1.63c-1.47-.5-1.49-.53-1.49-2a20,20,0,0,0,2.06.9,51.65,51.65,0,0,0,10.57,1.46c2.68.21,5.38-.14,8.07.22a12.71,12.71,0,0,0,2.88-.17c1.64-.15,3.29,0,4.94-.19s3.34-.28,5-.46A22.1,22.1,0,0,0,68.39,125.51Z"/><path class="cls-5" d="M138.2,153.5c-.7,1.7-3.19,2.77-4.68.95a3.68,3.68,0,0,1-.32-2.27,11.29,11.29,0,0,0,.06-2c.09-.71.17-1.42.26-2.13a1.92,1.92,0,0,1,.95.05c1.6.56,1.67.53,2.62-.88.08-.12.13-.25.28-.31a.51.51,0,0,0,.16.09,18.39,18.39,0,0,1,1,3.17A6,6,0,0,1,138.2,153.5Z"/><path class="cls-6" d="M133.51,154.45c1.5,1.83,4,.76,4.69-.95a6,6,0,0,0,.29-3.34h.8a11.93,11.93,0,0,1-.82,4.15A2.9,2.9,0,0,1,134,155.7C133.61,155.43,133,155.11,133.51,154.45Z"/><path class="cls-7" d="M136,139.31c-.27-2.42-.68-4.82-1-7.23s-.82-4.86-1.22-7.3a55.63,55.63,0,0,1-.78-6.17c-.19-3.23-.34-6.45-.46-9.68q0-1.55-.18-3.12c-.3-.32-.83-.23-1.09-.61a.37.37,0,0,1-.19-.43h0c-.18,0-.35,0-.42-.2v0a.56.56,0,0,1-.64-.63v0c-.21-.06-.23-.23-.2-.41l0,0a.19.19,0,0,1-.2-.2v0c-.3-.13-.22-.39-.21-.63v0c-.31-.13-.21-.39-.2-.63h0c-.32-.13-.2-.41-.21-.64h0c-.21-.08-.15-.16,0-.23a2.81,2.81,0,0,1,0-.29,6.12,6.12,0,0,0-1.71,0,86.81,86.81,0,0,1-10.81-.58,9.46,9.46,0,0,1-.65,1.7,4.4,4.4,0,0,1-3.73,2.15,29.91,29.91,0,0,0-3.41.25c-.08,1.86,0,3.72-.17,5.59-.23,2.78,0,5.59-.22,8.39a40.78,40.78,0,0,0,.12,6.34c.22,2.42.09,4.86.23,7.3a40,40,0,0,1,.26,5.58.81.81,0,0,0,0,.22c.31,1.62.24,3.27.41,4.9.05.46.05.91.14,1.38a20.28,20.28,0,0,1,.23,2.42c0,.08,0,.16,0,.25h-.12c.3.4.9,1.23,1,1.31a11.43,11.43,0,0,0,4.25.07h0l.1-.11s1-1.14,1.33-1.73c0,0,0,0,0,0a1.58,1.58,0,0,1,.06-.48c.07-.26.19-.51.26-.76.72-3,1.27-6.06,1.86-9.09a47.16,47.16,0,0,0,.6-10.06,23.89,23.89,0,0,1,.7-5.72c.41-1.84.68-3.71,1-5.56,0-.26.06-.5.55-.47a153.69,153.69,0,0,0,11.27,32.24s0,.11.08.16a3.19,3.19,0,0,0,.69.14l.1,0a2.29,2.29,0,0,1,1-.06,4.55,4.55,0,0,0,1.26-.25,1.2,1.2,0,0,0,.85-1.3C136.52,143.07,136.2,141.19,136,139.31Zm-15.07-25.74c-.33-.11-.19-.39-.22-.6-.27-1.83-.77-3.6-1.2-5.39a22.77,22.77,0,0,0-.76-3,.84.84,0,0,1,.67.79c.43,1.8.88,3.58,1.27,5.39a4.3,4.3,0,0,1,.23,2.22C120.93,113.17,121.28,113.36,120.93,113.57Z"/><path class="cls-4" d="M71.82,87A2.62,2.62,0,0,0,72,85.68Q72,52,72,18.36a1.7,1.7,0,0,0-.13-1.06H13.24v89.47a1.14,1.14,0,0,0,.8.15H57.48c.3,0,.66.14.88-.22A16.45,16.45,0,0,1,55,104.4l-.06-.05H53.82l-2.27,0h-2c-.31,0-.63,0-.94,0l-.67,0-.31,0h-.05a8.9,8.9,0,0,1-1.55,0l-.87-.06c-.37,0-.73,0-1.09,0,0,0,0,0,0,0l-.41,0a.82.82,0,0,1-.09-.19.7.7,0,0,1-.06-.19.59.59,0,0,1,0-.13,4,4,0,0,1,0-.6.9.9,0,0,0,0-.23V91.16c0-1.28,0-2.56,0-3.85h0V81.67q0-16.47,0-32.95c0-1-.07-2-.13-3a.9.9,0,0,1,.33-.75H69.06a16.69,16.69,0,0,1,.33,2.43c0,2.38,0,4.76,0,7.13,0,1.14.06,2.27,0,3.4-.27,8.27-.19,16.55-.2,24.82a54,54,0,0,0,.25,7.42c.92-.83,1.63-1.85,2.6-2.63A.37.37,0,0,1,71.82,87Zm-56-67.08H41.63V43.34H15.86Zm25.77,84.4H15.89a2.89,2.89,0,0,1-.11-1.17V46.26c0-.15,0-.29,0-.44,0-.83.1-.93.94-.93H41.14a4.08,4.08,0,0,1,.49.07Zm1.85-61V19.9H69c.22.22.14.52.14.8,0,1.8,0,3.6,0,5.4a7.07,7.07,0,0,0,.17,2.24c.18.56-.16,1.13-.16,1.69,0,1.43-.07,2.86.07,4.3a5.34,5.34,0,0,1,0,.8v0c0,.28-.05.56-.07.85s0,.29,0,.44,0,.23,0,.34c0,.59,0,1.18,0,1.77,0,1.18,0,2.36,0,3.57h0a2.62,2.62,0,0,0,0,.28h0v.85Z"/><path class="cls-5" d="M141.5,77.22a37.52,37.52,0,0,0-2-10.33c-1.3-3.62-3.07-6.92-6.61-8.88-.06,0-.08-.12-.13-.19,0-.24,0-.49,0-.74a3.89,3.89,0,0,0-3-4.12,9.17,9.17,0,0,0-3.08-.46c0,.82,0,1.65,0,2.47a1.31,1.31,0,0,1-.5,1.13,9.82,9.82,0,0,1-3.93,2.11,1.94,1.94,0,0,1-2.26-1.75c0-.53,0-1.07,0-1.61s.26-.87.19-1.33A2.37,2.37,0,0,0,119,53.1a4,4,0,0,0-3.08,3.43c-.82.32-1.66.37-2.41.74.13,3.15.38,6.29.66,9.44.11,1.25.15,2.5.23,3.76.16,2.93.54,5.86.52,8.8a6.38,6.38,0,0,0,.15,1c.23.59.77.92,1.17,1.36a1.66,1.66,0,0,1,.43,1.93,5.74,5.74,0,0,0-.5,2.59c0,.51.36.76.69,1a14.83,14.83,0,0,0,4.48,2.45,46.55,46.55,0,0,0,7.59,2.15,28.15,28.15,0,0,0,5.88.26,4.12,4.12,0,0,0,.82-.21,6,6,0,0,0,4.18-3.29,11.88,11.88,0,0,0,.79-2A26.15,26.15,0,0,0,141.5,77.22Zm-18.72-16c.1-.32.1-.32.5-.71.28.13.18.33.11.54a13.6,13.6,0,0,0-.18,7.84c.16.7.14.7-.42,1.22a18.75,18.75,0,0,0-.38-2.72A12.31,12.31,0,0,1,122.78,61.18Zm-3.56-.71a.79.79,0,0,1,.19-.26,1,1,0,0,1,.25-.1c.3.33.1.59,0,.84a10.85,10.85,0,0,0-.73,6.74c.09.5.14,1,.21,1.5a.63.63,0,0,1-.36.71.5.5,0,0,1-.4-.65,8.47,8.47,0,0,0-.14-2.46A12.47,12.47,0,0,1,119.22,60.47Zm-2.08,21.7s0,0,0-.07,0,0,.08,0A.94.94,0,0,1,117.14,82.17Zm13.41-.29a14.6,14.6,0,0,1-1.48.19c-2.16.13-4.3-.17-6.45-.23-1.79,0-3.57.17-5.35.22h0a4.81,4.81,0,0,1,2.94-.62c2.87-.17,5.73.34,8.61.19h.64c1.24,0,1.49-.2,1.38-1.47-.12-1.45-.24-2.91-.5-4.35-.28-1.61-.51-3.23-.75-4.85,0-.08.08-.18.17-.38a4.15,4.15,0,0,1,.42,1.77c.25,1.73.68,3.43.84,5.16a23,23,0,0,1,.29,3.42C131.28,81.47,131.17,81.79,130.55,81.88Z"/><path class="cls-4" d="M68.39,125.51a22.11,22.11,0,0,1-7.11,1.77c-1.67.17-3.34.29-5,.45s-3.3,0-4.94.2a12.7,12.7,0,0,1-2.88.16c-2.69-.36-5.39,0-8.07-.22a50.3,50.3,0,0,1-10.57-1.46,20,20,0,0,1-2.06-.89c-.05-.69.38-1,.93-1.29a14.41,14.41,0,0,1,4.12-1.08,45.22,45.22,0,0,1,4.76-.61,45.72,45.72,0,0,1,5.36-.28l.43,2c0,.52.32.77.74.94a4.29,4.29,0,0,0,1.57.33H50.3a7.93,7.93,0,0,0,1-.14,1.45,1.45,0,0,0,1.35-1.43c.06-.57.19-1.13.29-1.69,1.75.09,3.5.13,5.24.29,2,.17,4,.37,5.93.73a14.86,14.86,0,0,1,3.57,1A1.08,1.08,0,0,1,68.39,125.51Z"/><path class="cls-5" d="M128.9,100.78a6.05,6.05,0,0,0-1.7,0,84.83,84.83,0,0,1-10.81-.57l0-2c.63.39,1.33.15,2,.24a48.82,48.82,0,0,0,5.66.42,68.57,68.57,0,0,0,7.31-.22,2.79,2.79,0,0,0,1.6-.51,13.6,13.6,0,0,1-2.55.08c-.32,0-.65,0-1,0a38,38,0,0,1-7.31.14c-1.92-.06-3.83-.45-5.77-.37-.24-.32-.13-.69-.16-1,0-.75-.05-1.51-.1-2.26-.17-2.58-.35-5.15-.53-7.73.21,0,.43,0,.58.17,1.23,1.69,3.07,2.57,4.83,3.49a32,32,0,0,0,10.27,3.21,7.16,7.16,0,0,0,2.87.21,6.32,6.32,0,0,1,1.49-.18,5.28,5.28,0,0,1-1.07,4c-.3.35-.21.74-.21,1.12s0,.94-.45,1.25l-1.44.14a.4.4,0,0,0-.48.13A20.64,20.64,0,0,0,128.9,100.78Z"/><path class="cls-8" d="M89.42,22.69c-.71-2.39-1.3-4.82-2-7.19a29.34,29.34,0,0,0-1.46-4.39L74.7,14.47c.43,2.11,1.12,4.06,1.69,6,.85,2.91,1.71,5.81,2.54,8.72.17.62.38.77,1.06.6,2.08-.51,4.09-1.24,6.15-1.79.37-.1.81-.14.85-.67a5.12,5.12,0,0,0-.32-2.09c-.21-.6,0-.84.56-1s1.42-.41,2.13-.61A1.12,1.12,0,0,0,89.42,22.69ZM81,14.7c.81-.28,1.64-.49,2.45-.71.36.25.31.58.3,1-1.57.64-3.25,1-4.92,1.59-.32-.32-.25-.67-.43-1A15.21,15.21,0,0,1,81,14.7ZM81.61,17c1.35-.5,2.77-.79,4.16-1.17,0,.13,0,.27.08.4a42.86,42.86,0,0,1-8.29,2.33C78.73,17.61,80.26,17.53,81.61,17Zm-3.17,2.33a62.83,62.83,0,0,1,7.79-2.05,13.59,13.59,0,0,1-4,1.51A31.46,31.46,0,0,1,78,20C78,19.52,78.19,19.44,78.44,19.37Zm0,1.4c2.68-.7,5.34-1.82,8.17-2.34l.12.44c-2.69.92-5.44,1.65-8.19,2.39C78.42,21.29,78.32,21.09,78.43,20.77Zm.4,1.71c-.21-.65.43-.56.7-.65,1.93-.63,3.88-1.21,5.83-1.81a6.21,6.21,0,0,1,1.52-.35c.25.52-.16.63-.43.71-2.5.74-5,1.45-7.5,2.17C78.92,22.55,78.89,22.52,78.83,22.48Zm.55.76c1.56-.48,3.12-1,4.69-1.48.92-.28,1.85-.53,2.77-.81a.45.45,0,0,1,.51.09c0,.09,0,.23-.08.28a73.51,73.51,0,0,1-8.15,2.52C78.9,23.51,79,23.35,79.38,23.24Zm.11,2.84c1.42-.93,2.94-1,4.47-1.58A6.37,6.37,0,0,1,79.49,26.08ZM79,24.84a20.34,20.34,0,0,1,4.44-1.49,14.37,14.37,0,0,1,4.28-1.06C86.93,23,80.16,25,79,24.84Z"/><path class="cls-9" d="M129.1,47.17c0-.14-.06-.28-.09-.41a1.75,1.75,0,0,0-2.31.7,3.93,3.93,0,0,1-.49-2.76c.35-2-.29-2.68-2.37-2.48-1.71.16-3.45.38-5.09-.37-.43-.2-.55.24-.84.29-.06,1.36-.4,2.67-.52,4-.21,2.4-.27,4.71,1.54,6.62.06.07,0,.21,0,.31a2.37,2.37,0,0,1,1.31.42,7.57,7.57,0,0,0,5-1.52c-.34,1.36-2.9,2.72-5.24,2.85,0,.54-.07,1.08,0,1.61a1.94,1.94,0,0,0,2.26,1.75,9.82,9.82,0,0,0,3.93-2.11,1.31,1.31,0,0,0,.5-1.13c0-.82,0-1.65,0-2.47a6.09,6.09,0,0,1,.35-2.81C128.81,49.46,129.29,48.84,129.1,47.17ZM120,46.6c0-.27,0-.57.33-.76.23.4,0,.61-.3.78,0,.18,0,.35-.22.44l-.12.1.1-.12C119.83,46.86,119.85,46.69,120,46.6ZM120,48.46l-.07.06-.15-.08s0-.06.06-.06Zm-1-4.75c.38,0,.87,0,.89.82a5.43,5.43,0,0,0-1.92-.06C118,43.73,118.59,43.73,119,43.71Zm.11,4.38c-.15-.46.15-.49.41-.62C119.69,48,119.55,48.14,119.09,48.09Zm-.31-1.5c-.79-.56-.25-.91,0-1.41C119.27,45.85,119.27,45.85,118.78,46.59Zm1.74,4.57c-.74,0-1.21-.49-1.47-1.51a16.86,16.86,0,0,0,3.07.24A1.59,1.59,0,0,1,120.52,51.16Zm1.75-4.22c-.42-.61-.22-.94.28-1.22C123,46.23,122.84,46.58,122.27,46.94Zm-.39-2.27c.77-.68,1.35-.51,2.14.64Z"/><path class="cls-10" d="M40.5,107.35A16.25,16.25,0,0,1,37.09,105c-.11-.14-.19-.3-.31-.43A7.68,7.68,0,0,1,35.06,102a2.09,2.09,0,0,1,.55-2.62,19.83,19.83,0,0,0,1.45-1.45,7.24,7.24,0,0,0-2.55-.37c-.32,0-.71.07-.89-.25a13.18,13.18,0,0,1-1.91-3.59,1.43,1.43,0,0,1,1.55-1.89,6.11,6.11,0,0,1,.86.08,10,10,0,0,1,2.45.8c2.68,1.23,5.31,2.53,7,5.13-.42,0-.61.3-.87.55-.47.45-.85,1-1.57,1.19a2.34,2.34,0,0,1-.86-.79c-1-1.48-2.5-2.44-3.72-3.69-.14-.14-.3-.35-.54-.11.05.41.4.58.64.83.75.77,1.65,1.36,2.37,2.17a10.77,10.77,0,0,0,2.13,2.24h0a2.54,2.54,0,0,0,1.08,1.52h0c.67,1.33,1.33,2.67,2,4a2.34,2.34,0,0,1,.39,1.2c-1,.94-2.21.75-3.4.58C41,107.49,40.74,107.41,40.5,107.35Z"/><path class="cls-11" d="M65.18,97.16a1.68,1.68,0,0,0-.42-.26l0,0a4.45,4.45,0,0,0-2.32-.24,9.42,9.42,0,0,0-1.2.23,19,19,0,0,0-2.58.93,7.52,7.52,0,0,1-4.6,3.8,4.4,4.4,0,0,1-1,.11l-.34,0-.18,0c-.21.8-.85,1.37-1.08,2.17l-.09.34-.12.47c0,.16-.07.31-.1.47a3.65,3.65,0,0,0-.07.46,3.85,3.85,0,0,0,0,1.22,2.25,2.25,0,0,0,.13.42,3,3,0,0,0,.2.45c.43,0,.57-.29.79-.58l.21-.29a9.26,9.26,0,0,1,.91-1.31.85.85,0,0,1,.17-.16,1.75,1.75,0,0,1,.33-.28,2.39,2.39,0,0,1,.13-.28,1.74,1.74,0,0,1,.11-.18l.12-.17a1.54,1.54,0,0,1,.17-.19h0a1.7,1.7,0,0,1,.31-.29.1.1,0,0,1,.05,0l.31-.22c.14-.09.29-.17.44-.25a4.49,4.49,0,0,1-.52.85,2.26,2.26,0,0,1-.25.28,2.69,2.69,0,0,1-.5.39,3.18,3.18,0,0,1-.32.16c0,.4-.25.64-.44.94s-.35.5-.53.75a2.43,2.43,0,0,1-.14.2l-.15.23-.18.31-.15.31h0c0,.11-.08.23-.11.34a2.2,2.2,0,0,0-.07.37c1.29,1.46,2.88,1.25,4.45.72a9.14,9.14,0,0,0,4.14-3,2.48,2.48,0,0,0,.4-2.89,3,3,0,0,1-.48-1.5c.82-.24,1.75-.08,2.39-.62.23-.2.46-.4.67-.61A7.3,7.3,0,0,0,65.07,99a3.82,3.82,0,0,0,.21-.46,1.08,1.08,0,0,0,.08-.19A1,1,0,0,0,65.18,97.16Zm-8.49,5.2a.66.66,0,0,1,.66-.65l.11-.12c.13.12,0,.12-.07.17a.67.67,0,0,1-.66.65l-.11.12C56.49,102.41,56.64,102.41,56.69,102.36Zm-.91.77,0,.06,0-.06Zm2.06-1.6c0-.47.2-.57.49-.63C58.47,101.34,58.22,101.41,57.84,101.53Zm2.78-1.94c-.17.37-.56.45-.88.63a2.42,2.42,0,0,1-1,.64c.17-.59.17-.59,1-.86.16-.39.49-.45.85-.45.19-.27.36-.58.85-.56C61.38,99.56,61,99.58,60.62,99.59Z"/><path class="cls-12" d="M113.49,57.27c.12,3.15.38,6.3.66,9.44.11,1.25.15,2.51.22,3.76.17,2.94.54,5.86.53,8.81a6.22,6.22,0,0,0,.14,1,3.05,3.05,0,0,1-1.28-1.59,24.8,24.8,0,0,0,0-3.34c-.33-2.41-.38-4.85-.57-7.26-.17-2.18-.29-4.36-.43-6.53-.16-2.46-.3-4.93-.45-7.39-.09-1.54-.23-3.08-.3-4.62,0-1.06,0-2.15-.19-3.21a37.1,37.1,0,0,1-.39-4.47A3.56,3.56,0,0,0,107.5,38c-1.18,0-2.34.28-3.54.23a31.78,31.78,0,0,0-3.64.24c-2,.15-4,.39-6,.39a5.24,5.24,0,0,0-1,0,60.5,60.5,0,0,1-6.72.57c-1.75.12-3.51.24-5.26.32a3.74,3.74,0,0,0-3.71,2.57,8,8,0,0,0-.14,3.74c.35,2.45.4,4.92.53,7.37a56.16,56.16,0,0,1,.28,5.8c0,.11,0,.22,0,.33a33,33,0,0,1,.38,6.2l-.52.06c0-.68-.08-1.36-.13-2s.11-1.37-.7-1.75c-.23-.1-.19-.45-.21-.7-.11-1.33-.21-2.66-.31-4a1.12,1.12,0,0,1,.42-1.14c.41-.31.49-.73-.14-1-.44-.15-.46-.53-.49-.87-.12-1.36-.18-2.73-.29-4.1a.91.91,0,0,1,.73-1.09c-.12-1.95-.25-3.78-.34-5.61a4.14,4.14,0,0,1,2.4-4.22A4,4,0,0,1,80.62,39q9.66-.63,19.3-1.26c2.56-.17,5.12-.26,7.65-.57A4.3,4.3,0,0,1,112.34,41c.16,2.66.38,5.32.55,8s.31,5.11.47,7.66A3.53,3.53,0,0,0,113.49,57.27Z"/><path class="cls-13" d="M129,46.76a1.74,1.74,0,0,0-2.3.7,3.93,3.93,0,0,1-.5-2.76c.36-2-.29-2.67-2.36-2.48-1.72.16-3.45.38-5.1-.37-.43-.19-.54.25-.84.3-.16-.34-.5-.51-.75-.76a3.83,3.83,0,0,1-1.29-3.18c.16-1.81,1.26-2.61,3.21-2.31,1-.85,1.23-.91,2.12,0A3.33,3.33,0,0,0,124.68,37a3.47,3.47,0,0,1,1.91.1,2.93,2.93,0,0,1,2.11,2.68c2,.66,2.47,1.65,1.93,3.64A13,13,0,0,1,129,46.76Z"/><path class="cls-5" d="M133.74,14.66c-3.2.44-3.66.38-6.68-.89-.46.82-.91,1.59-1.32,2.39a10.34,10.34,0,0,0,.2,10.2c.21.41.41.77,1,.82a10.67,10.67,0,0,0,10.63-7.43A7.29,7.29,0,0,1,133.74,14.66Zm-3.85,10.12a3.62,3.62,0,0,1-3.62-4,3.62,3.62,0,0,1,3.78-3.68,3.81,3.81,0,0,1,3.77,3.91A3.76,3.76,0,0,1,129.89,24.78Z"/><path class="cls-8" d="M142.88,39.41a5.15,5.15,0,0,0-5.31,5.37,5.55,5.55,0,0,0,5.56,5.7,5.19,5.19,0,0,0,5.41-5.4C148.53,41.57,146.27,39.51,142.88,39.41Zm2,4.87c0,.62-.59.85-.89,1.27a21.52,21.52,0,0,1-1.86,2.19,1.23,1.23,0,0,1-1.8,0,1.19,1.19,0,0,1,0-1.7A18.87,18.87,0,0,1,142,44.24c.22-.18.39-.42.72-.41a.28.28,0,0,1,.21-.21.27.27,0,0,1,.22-.21c0-.46.09-.82.64-.87,0-.18,0-.35,0-.53s0-.58.36-.69a.78.78,0,0,1,.87.21c.54.51,1.1,1,1.6,1.46C146.37,44,145.28,43.61,144.92,44.28Z"/><path class="cls-12" d="M116.36,98.27l0,2a10.52,10.52,0,0,1-.65,1.69,4.35,4.35,0,0,1-3.73,2.15,28,28,0,0,0-3.42.26c-2.84,0-5.67.31-8.51.48-4.88.28-9.77.63-14.65.93a4.12,4.12,0,0,1-4.68-4.1c-.61-8.51-1.19-17-1.79-25.54-.1-1.47-.24-2.94-.37-4.41a.65.65,0,0,1,.61-.23,5,5,0,0,1,.22,1.8c0,1.47.18,2.93.27,4.39s.33,3.13.35,4.69.23,3.36.3,5a24.88,24.88,0,0,0,.19,3,33.16,33.16,0,0,1,.4,5.45A6.62,6.62,0,0,0,81,97a18.76,18.76,0,0,1,.36,3.94,3.92,3.92,0,0,0,4.6,4c2.12-.33,4.26-.41,6.39-.57s4.21-.35,6.33-.29a29.88,29.88,0,0,0,3.53-.23c1.89-.18,3.77-.32,5.66-.37,1.29,0,2.56-.33,3.86-.27a2.79,2.79,0,0,0,1-.23c1.45-.48,2.76-2,2.57-3.46s-.16-3.08-.28-4.6c-.09-1.18-.07-2.37-.21-3.54-.2-1.77-.31-3.55-.37-5.33a1.19,1.19,0,0,1,1,.12l.06.87c.18,2.58.36,5.15.53,7.73,0,.75.06,1.51.1,2.26,0,.35-.08.72.16,1A.58.58,0,0,0,116.36,98.27Z"/><path class="cls-7" d="M132.42,100.5l1.44-.14c0,1.89.18,3.79.3,5.68s0,3.52.19,5.25.11,3.65.2,5.47a45.57,45.57,0,0,0,1.57,9.35,38.77,38.77,0,0,1,.81,5c.25,2.24.28,4.49.47,6.73s.08,4.44.16,6.66c0,.37.13.84-.49.89-.26-.32-.12-.69-.16-1-.1-1.11-.15-2.22-.29-3.32-.23-1.92-.5-3.84-.78-5.75-.38-2.58-.74-5.17-1.18-7.75s-.95-4.92-1.17-7.42c-.23-2.68-.38-5.37-.43-8.06-.05-2.23-.3-4.45-.28-6.68,0-.21-.09-.42-.09-.63A38.6,38.6,0,0,1,132.42,100.5Z"/><path class="cls-14" d="M132.42,100.5l1.44-.14c0,1.89.18,3.79.3,5.68s0,3.52.19,5.25.11,3.65.2,5.47a45.57,45.57,0,0,0,1.57,9.35,38.77,38.77,0,0,1,.81,5c.25,2.24.28,4.49.47,6.73s.08,4.44.16,6.66c0,.37.13.84-.49.89-.26-.32-.12-.69-.16-1-.1-1.11-.15-2.22-.29-3.32-.23-1.92-.5-3.84-.78-5.75-.38-2.58-.74-5.17-1.18-7.75s-.95-4.92-1.17-7.42c-.23-2.68-.38-5.37-.43-8.06-.05-2.23-.3-4.45-.28-6.68,0-.21-.09-.42-.09-.63A38.6,38.6,0,0,1,132.42,100.5Z"/><path class="cls-15" d="M52.9,122.22c-.1.56-.23,1.12-.29,1.69a1.45,1.45,0,0,1-1.35,1.43,7.93,7.93,0,0,1-1,.14H45.66a4.29,4.29,0,0,1-1.57-.33c-.42-.17-.76-.42-.74-.94a8.43,8.43,0,0,0,2.16-1.68,20.62,20.62,0,0,0,3.62-4.07,13.24,13.24,0,0,0,2-2.88l2.68,0C53.68,117.79,53.06,120,52.9,122.22Z"/><path class="cls-8" d="M106.06,25.89a4.75,4.75,0,0,0-2.69-.88A4.33,4.33,0,0,0,99,29.66a3.78,3.78,0,0,0,1,3.07,4.87,4.87,0,0,0,3.42,1.56,4.57,4.57,0,0,0,4.68-4.42A4.7,4.7,0,0,0,106.06,25.89Zm0,6h0a1.36,1.36,0,0,1-.85.85.86.86,0,0,1-.57,0,1.27,1.27,0,0,1-.23-.12A8.94,8.94,0,0,1,103,31a13.27,13.27,0,0,1-1.18-1.65,2.12,2.12,0,0,0-1-.89c-.58-.23-.64-.51-.25-1a11.15,11.15,0,0,1,1.14-1.14c.48-.42,1-.28,1,.33a1.76,1.76,0,0,0,.69,1.27,17.69,17.69,0,0,1,2.25,2.71,7.72,7.72,0,0,1,.47.89h0l0,.09A1.33,1.33,0,0,1,106.06,31.86Z"/><path class="cls-15" d="M58,85.67a5.4,5.4,0,0,1,3.44-1,1.5,1.5,0,0,1,1.48,2,4,4,0,0,1-1,1.74,10.56,10.56,0,0,0-1.41,1.73,5.12,5.12,0,0,0-.81,2.64c0,.78-.11,1.57-.14,2.35,0,.43-.2.69-.62.74a22.78,22.78,0,0,1-3.08.41c-.09-1-.9-1.35-1.51-1.89v-.65h0c.31,0,.44-.15.44-.44h0c.6-.73,1.4-1.34,1.51-2.38h0c.59,0,.65-.52.87-.87h0c.45-.35,1-.65,1.08-1.3h0A6.9,6.9,0,0,0,60,86.88c-.62,0-.77.49-1.12.6A2,2,0,0,1,58,85.67Z"/><path class="cls-5" d="M51.1,115.59a13.24,13.24,0,0,1-2,2.88,20.62,20.62,0,0,1-3.62,4.07,8.43,8.43,0,0,1-2.16,1.68l-.43-2c-.11-1.75-.54-3.45-.78-5.18-.07-.5-.13-1-.16-1.49Z"/><path class="cls-16" d="M51.1,115.59H42l-.79-.2L41,113.21c1.49,0,2.91,0,4.33,0,.37,0,.79.15,1.11-.19l.25,0c.23.4.6.2.91.23a.52.52,0,0,0,.86,0l1.23,0,.48,0h4.43a5.23,5.23,0,0,1-.12,2.17l-.74.18Z"/><path class="cls-16" d="M115.55,87.05l-.06-.87.65-.07c0,.51.37.77.7,1a14.85,14.85,0,0,0,4.48,2.46,47.75,47.75,0,0,0,7.58,2.15,28.2,28.2,0,0,0,5.88.25,4.18,4.18,0,0,0,.83-.2l0,2.15a6.32,6.32,0,0,0-1.49.18,7.16,7.16,0,0,1-2.87-.21A32,32,0,0,1,121,90.71c-1.76-.92-3.6-1.8-4.83-3.49C116,87,115.76,87.05,115.55,87.05Z"/><path class="cls-5" d="M54.33,94.39c.61.54,1.42.93,1.51,1.89l-.73.17c1.26.56,2.45.8,3.51,1.36a7.61,7.61,0,0,1-4.6,3.8c-.5.13-1,.06-1.47.19a5.3,5.3,0,0,1-1.82-.24l-.29,0,.05-.21c.46,0,.38-.36.39-.65.52-.21.42-.66.43-1.08A1.48,1.48,0,0,0,52,98.07c.45-.19.49-.66.71-1A13.86,13.86,0,0,1,54.33,94.39Z"/><path class="cls-10" d="M58,85.67a2,2,0,0,0,.9,1.81c-.21.44-.81.67-.66,1.29h0a1.22,1.22,0,0,0-1.08,1.3h0a.88.88,0,0,0-.87.87h0c-.67.69-1.47,1.3-1.51,2.38h0c-.3,0-.44.14-.44.44h0l-.43.22c-.66-.47-1.33-.93-2-1.38a1.21,1.21,0,0,1-.61-1.23.72.72,0,0,1,.26-.57c.92-.83,1.64-1.86,2.6-2.64A29.3,29.3,0,0,1,57.21,86,2.7,2.7,0,0,1,58,85.67Z"/><path class="cls-7" d="M137.37,146.89c-.15.06-.2.19-.28.31-1,1.41-1,1.44-2.62.88a1.92,1.92,0,0,0-.95-.05c-.07-.45-.15-.9-.23-1.39l.1,0a2.29,2.29,0,0,1,1-.06,4.55,4.55,0,0,0,1.26-.25,1.2,1.2,0,0,0,.85-1.3c0-1.91-.34-3.79-.54-5.67-.27-2.42-.68-4.82-1-7.23s-.82-4.86-1.22-7.3a55.63,55.63,0,0,1-.78-6.17c-.19-3.23-.34-6.45-.46-9.68q0-1.55-.18-3.12c-.3-.32-.83-.23-1.09-.61a2.45,2.45,0,0,1,0-.27c.35,0,.61.37,1.13.33-.16-1.55-.32-3.09-.47-4.63a.39.39,0,0,1,.47-.14c-.11,1.45.24,2.86.27,4.29,0,.21.09.43.09.64,0,2.23.24,4.45.28,6.68q.08,4,.44,8.06c.22,2.49.74,5,1.16,7.42s.8,5.16,1.18,7.75c.28,1.91.55,3.82.79,5.74.13,1.1.19,2.22.29,3.32,0,.35-.11.73.16,1S137.28,146.4,137.37,146.89Z"/><path class="cls-14" d="M137.37,146.89c-.15.06-.2.19-.28.31-1,1.41-1,1.44-2.62.88a1.92,1.92,0,0,0-.95-.05c-.07-.45-.15-.9-.23-1.39l.1,0a2.29,2.29,0,0,1,1-.06,4.55,4.55,0,0,0,1.26-.25,1.2,1.2,0,0,0,.85-1.3c0-1.91-.34-3.79-.54-5.67-.27-2.42-.68-4.82-1-7.23s-.82-4.86-1.22-7.3a55.63,55.63,0,0,1-.78-6.17c-.19-3.23-.34-6.45-.46-9.68q0-1.55-.18-3.12c-.3-.32-.83-.23-1.09-.61a2.45,2.45,0,0,1,0-.27c.35,0,.61.37,1.13.33-.16-1.55-.32-3.09-.47-4.63a.39.39,0,0,1,.47-.14c-.11,1.45.24,2.86.27,4.29,0,.21.09.43.09.64,0,2.23.24,4.45.28,6.68q.08,4,.44,8.06c.22,2.49.74,5,1.16,7.42s.8,5.16,1.18,7.75c.28,1.91.55,3.82.79,5.74.13,1.1.19,2.22.29,3.32,0,.35-.11.73.16,1S137.28,146.4,137.37,146.89Z"/><path class="cls-9" d="M79.2,71.47a.65.65,0,0,0-.61.23,1.05,1.05,0,0,1-1.13-.88A9.3,9.3,0,0,1,76.81,68a2,2,0,0,1,1.41-2.14l.52-.06c.36.09.76,0,1.08.3A5.8,5.8,0,0,1,80.21,70c-.16,0-.32-.14-.47,0C79.9,70.82,79.9,70.82,79.2,71.47Z"/><path class="cls-17" d="M87,27.37a4.88,4.88,0,0,0-.31-2.08c-.22-.61,0-.84.55-1,.72-.17,1.43-.4,2.14-.61a34,34,0,0,1-1.94,3.43A.45.45,0,0,1,87,27.37Z"/><path class="cls-16" d="M44.62,107a2.34,2.34,0,0,0-.39-1.2c-.67-1.34-1.33-2.68-2-4,.24,0,.37.14.49.34a15.13,15.13,0,0,1,1.5,2.7,2.71,2.71,0,0,0,.91,1.51c-.17.71.36,1.27.42,1.93h-.27C45.07,107.79,45,107.29,44.62,107Z"/><path class="cls-15" d="M45.28,108.22h.27A16.44,16.44,0,0,1,46.73,113l-.25,0Z"/><path class="cls-15" d="M50.21,113.2l-.48,0a13.07,13.07,0,0,1,1.77-4.54l.2.25a25,25,0,0,0-1.35,3.31A2.14,2.14,0,0,0,50.21,113.2Z"/><path class="cls-5" d="M51.7,108.86l-.2-.25a1.43,1.43,0,0,0,0-.82c.43,0,.57-.28.78-.57a7.89,7.89,0,0,1,1.62-2l.06.06c0,.4-.24.64-.44,1a5.94,5.94,0,0,0-1.32,2.52A.37.37,0,0,0,51.7,108.86Z"/><path class="cls-18" d="M55.79,147.24a18.78,18.78,0,0,1,7.2,1.83c.18,1-.46,1.39-1.24,1.69a23.75,23.75,0,0,1-5.2,1.18c-2.84.44-5.72.21-8.57.42a73.52,73.52,0,0,1-8-.13,35.41,35.41,0,0,1-7.9-1.17,10.75,10.75,0,0,1-1.34-.49c-.47-.18-.89-.43-.87-1s.49-.79.94-1A12.48,12.48,0,0,1,32.5,148a37.46,37.46,0,0,1,8.82-1.11c1.37,0,2.68-.7,4.11-.23C45.9,147.14,53.08,146.67,55.79,147.24Z"/><path class="cls-5" d="M115.28,153.3a10.56,10.56,0,0,1-3.4.43,59.12,59.12,0,0,1-7.41.35,3,3,0,0,1-1.74-.45c.08-.62.58-.85,1-1.12,1-.58,2.12-1,3.18-1.49a3.47,3.47,0,0,0,1-.56c.89-.29,1.45-1.14,2.36-1.39a1.11,1.11,0,0,1,.19.09c1.36,1,2.77,1.4,4.31.38.12.23.25.46.38.68A17.62,17.62,0,0,1,115.28,153.3Z"/><path class="cls-6" d="M102.73,153.64a3.13,3.13,0,0,0,1.74.45,59.22,59.22,0,0,0,7.41-.36,10.63,10.63,0,0,0,3.4-.43c0,1.22-.17,1.29-1.34,1.42-3.11.35-6.22.12-9.34.21a3.64,3.64,0,0,1-1.94-.51C102.19,154.16,102.31,153.86,102.73,153.64Z"/><path class="cls-7" d="M131.94,100.63c.16,1.54.32,3.09.47,4.64-.51,0-.78-.28-1.13-.34a.19.19,0,0,0-.2-.15h0c-.07-.21-.24-.23-.42-.21h0a.55.55,0,0,0-.63-.64h0c0-.19,0-.35-.21-.42h0a.2.2,0,0,0-.2-.21h0c0-.24.11-.5-.2-.63v0c0-.23.09-.5-.21-.63v0c0-.23.1-.5-.21-.63h0v-.53A20.64,20.64,0,0,1,131.94,100.63Z"/><path class="cls-9" d="M114.82,149.54c-1.54,1-2.95.64-4.31-.38a1.11,1.11,0,0,0-.19-.09,2.94,2.94,0,0,1,.17-1.06,11.43,11.43,0,0,0,4.25.07h0C115,148.58,114.81,149.06,114.82,149.54Z"/><path class="cls-7" d="M120.71,113c-.27-1.83-.77-3.61-1.2-5.4a22.35,22.35,0,0,0-.77-3c.55.13.6.47.68.79.43,1.79.88,3.58,1.27,5.38a4.41,4.41,0,0,1,.23,2.22Z"/><path class="cls-14" d="M120.71,113c-.27-1.83-.77-3.61-1.2-5.4a22.35,22.35,0,0,0-.77-3c.55.13.6.47.68.79.43,1.79.88,3.58,1.27,5.38a4.41,4.41,0,0,1,.23,2.22Z"/><path class="cls-7" d="M130,103.91a.55.55,0,0,1,.63.64A.56.56,0,0,1,130,103.91Z"/><path class="cls-7" d="M120.71,113h.21c0,.2.36.39,0,.59C120.6,113.46,120.74,113.19,120.71,113Z"/><path class="cls-14" d="M120.71,113h.21c0,.2.36.39,0,.59C120.6,113.46,120.74,113.19,120.71,113Z"/><path class="cls-7" d="M128.91,101.32c.31.13.21.4.21.63C128.81,101.82,128.92,101.55,128.91,101.32Z"/><path class="cls-7" d="M129.13,102c.3.13.21.4.21.63C129,102.47,129.13,102.2,129.13,102Z"/><path class="cls-7" d="M129.35,102.62c.31.13.21.39.2.63C129.26,103.11,129.34,102.85,129.35,102.62Z"/><path class="cls-7" d="M130.65,104.56c.18,0,.35,0,.42.21C130.88,104.79,130.71,104.78,130.65,104.56Z"/><path class="cls-7" d="M131.08,104.78a.19.19,0,0,1,.2.15l0,.28A.36.36,0,0,1,131.08,104.78Z"/><path class="cls-7" d="M129.78,103.48c.22.07.23.23.21.42C129.77,103.83,129.76,103.66,129.78,103.48Z"/><path class="cls-7" d="M128.91,101.07v.24C128.69,101.22,128.75,101.15,128.91,101.07Z"/><path class="cls-7" d="M129.57,103.26a.2.2,0,0,1,.2.21A.2.2,0,0,1,129.57,103.26Z"/><path class="cls-14" d="M131.94,100.63c.16,1.54.32,3.09.47,4.64-.51,0-.78-.28-1.13-.34a.19.19,0,0,0-.2-.15h0c-.07-.21-.24-.23-.42-.21h0a.55.55,0,0,0-.63-.64h0c0-.19,0-.35-.21-.42h0a.2.2,0,0,0-.2-.21h0c0-.24.11-.5-.2-.63v0c0-.23.09-.5-.21-.63v0c0-.23.1-.5-.21-.63h0v-.53A20.64,20.64,0,0,1,131.94,100.63Z"/><path class="cls-14" d="M130,103.91a.55.55,0,0,1,.63.64A.56.56,0,0,1,130,103.91Z"/><path class="cls-14" d="M128.91,101.32c.31.13.21.4.21.63C128.81,101.82,128.92,101.55,128.91,101.32Z"/><path class="cls-14" d="M129.13,102c.3.13.21.4.21.63C129,102.47,129.13,102.2,129.13,102Z"/><path class="cls-14" d="M129.35,102.62c.31.13.21.39.2.63C129.26,103.11,129.34,102.85,129.35,102.62Z"/><path class="cls-14" d="M130.65,104.56c.18,0,.35,0,.42.21C130.88,104.79,130.71,104.78,130.65,104.56Z"/><path class="cls-14" d="M131.08,104.78a.19.19,0,0,1,.2.15l0,.28A.36.36,0,0,1,131.08,104.78Z"/><path class="cls-14" d="M129.78,103.48c.22.07.23.23.21.42C129.77,103.83,129.76,103.66,129.78,103.48Z"/><path class="cls-14" d="M128.91,101.07v.24C128.69,101.22,128.75,101.15,128.91,101.07Z"/><path class="cls-14" d="M129.57,103.26a.2.2,0,0,1,.2.21A.2.2,0,0,1,129.57,103.26Z"/><path class="cls-3" d="M41.62,43.34H15.86V19.88H41.62Z"/><path class="cls-3" d="M43.47,43.28V19.9H69c.22.22.13.52.13.8,0,1.8,0,3.6,0,5.4a7.36,7.36,0,0,0,.18,2.24c.18.56-.16,1.13-.16,1.69,0,1.44-.07,2.87.06,4.31.08.79-.12,1.63-.08,2.45.12,2.13,0,4.27,0,6.49Z"/><path class="cls-9" d="M116.14,86.11l-.65.07a1.19,1.19,0,0,0-1-.12l-1-.08a11.6,11.6,0,0,0-3.22.15c-.42.11-.88.06-1-.57.38-.56,1.13-.41,1.62-.86-1.11-.14-2.31.14-3.14-.73a.61.61,0,0,1,.34-.45c.53-.3,1.14,0,1.79-.26A4.59,4.59,0,0,1,107.05,82c1-.78,2.12-.14,3.34-.21-.61-.32-1-.52-1.44-.75s-1-.34-.7-1a2.58,2.58,0,0,1,1.8.21,15.44,15.44,0,0,0,3,1c.64-.26.35-.66.15-1-.43-.54-.17-1.16-.2-1.74l.81.24A3.05,3.05,0,0,0,115,80.23c.23.6.77.93,1.18,1.36a1.68,1.68,0,0,1,.43,1.93A5.88,5.88,0,0,0,116.14,86.11Z"/><path class="cls-16" d="M117.24,82.07a5,5,0,0,1,3-.63c2.87-.16,5.74.35,8.61.2.22,0,.43,0,.65,0,1.24,0,1.48-.19,1.38-1.46-.12-1.46-.25-2.91-.5-4.35-.29-1.61-.51-3.24-.75-4.85,0-.08.07-.18.17-.38a4.26,4.26,0,0,1,.42,1.76c.25,1.73.67,3.43.83,5.16a21.85,21.85,0,0,1,.29,3.43c0,.53-.13.85-.75,1s-1,.16-1.49.19c-2.16.12-4.3-.18-6.45-.24-1.8,0-3.58.17-5.37.23Z"/><path class="cls-4" d="M119.66,60.11c.3.34.1.6,0,.84a10.81,10.81,0,0,0-.73,6.75c.08.49.14,1,.2,1.49a.63.63,0,0,1-.36.72.5.5,0,0,1-.39-.65,8.88,8.88,0,0,0-.14-2.47,12.31,12.31,0,0,1,1-6.31.68.68,0,0,1,.18-.26S119.53,60.16,119.66,60.11Z"/><path class="cls-4" d="M122.79,70.08a18.56,18.56,0,0,0-.38-2.72,12.41,12.41,0,0,1,.36-6.17c.1-.32.11-.32.5-.72.28.13.19.34.12.54a13.72,13.72,0,0,0-.19,7.85C123.37,69.55,123.35,69.55,122.79,70.08Z"/><path class="cls-11" d="M120.29,53.52a7.54,7.54,0,0,0,5-1.52c-.33,1.36-2.9,2.72-5.23,2.85C120.08,54.4,120.35,54,120.29,53.52Z"/><path class="cls-16" d="M117.24,82.07l-.1.11s0-.06,0-.07l.09,0Z"/><path class="cls-16" d="M116.36,98.27a.58.58,0,0,1,0-.19c1.94-.08,3.85.31,5.77.37a38,38,0,0,0,7.31-.14c.31,0,.64,0,1,0a13.6,13.6,0,0,0,2.55-.08,2.79,2.79,0,0,1-1.6.51,68.57,68.57,0,0,1-7.31.22,48.82,48.82,0,0,1-5.66-.42C117.69,98.42,117,98.66,116.36,98.27Z"/><path class="cls-5" d="M78.8,16.55c-.32-.32-.25-.67-.43-1A16,16,0,0,1,81,14.7c.82-.27,1.65-.48,2.45-.71.36.25.32.58.31,1C82.14,15.6,80.47,16,78.8,16.55Z"/><path class="cls-1" d="M85.85,16.27a43.08,43.08,0,0,1-8.29,2.34c1.17-1,2.69-1.07,4-1.57s2.76-.78,4.15-1.16Z"/><path class="cls-1" d="M86.72,18.87c-2.7.92-5.45,1.66-8.2,2.4-.1,0-.21-.17-.09-.49,2.67-.71,5.34-1.83,8.17-2.34Z"/><path class="cls-1" d="M87.35,21.05c0,.08,0,.22-.08.27a73.51,73.51,0,0,1-8.16,2.53c-.22-.34-.09-.49.26-.6l4.7-1.49c.92-.28,1.84-.53,2.77-.8A.43.43,0,0,1,87.35,21.05Z"/><path class="cls-1" d="M78.83,22.48c-.21-.65.43-.56.69-.64,1.94-.64,3.89-1.22,5.84-1.82a6.6,6.6,0,0,1,1.51-.34c.25.51-.15.62-.42.7-2.5.74-5,1.46-7.51,2.17C78.92,22.56,78.89,22.52,78.83,22.48Z"/><path class="cls-1" d="M87.73,22.3C86.92,23,80.15,25,79,24.84a20.22,20.22,0,0,1,4.43-1.48A14.08,14.08,0,0,1,87.73,22.3Z"/><path class="cls-1" d="M78,20c0-.51.22-.58.47-.66a66.92,66.92,0,0,1,7.78-2.05,13.59,13.59,0,0,1-4,1.51A30.92,30.92,0,0,1,78,20Z"/><path class="cls-1" d="M79.48,26.08c1.43-.93,3-1,4.48-1.57A6.37,6.37,0,0,1,79.48,26.08Z"/><path class="cls-6" d="M119.05,49.66a16.78,16.78,0,0,0,3.07.23,1.59,1.59,0,0,1-1.6,1.27C119.78,51.13,119.31,50.67,119.05,49.66Z"/><path class="cls-12" d="M119.87,44.53a5.69,5.69,0,0,0-1.92-.06c.08-.74.63-.73,1-.76S119.85,43.76,119.87,44.53Z"/><path class="cls-12" d="M121.88,44.67c.76-.67,1.35-.5,2.14.64Z"/><path class="cls-12" d="M118.77,46.59c-.78-.55-.24-.91,0-1.4C119.26,45.85,119.26,45.85,118.77,46.59Z"/><path class="cls-12" d="M122.27,46.94c-.42-.61-.23-.93.28-1.22C123,46.24,122.83,46.59,122.27,46.94Z"/><path class="cls-11" d="M119.5,47.48c.19.52,0,.67-.41.61C118.94,47.64,119.23,47.61,119.5,47.48Z"/><path class="cls-11" d="M120,46.61c0-.27,0-.57.32-.76.23.4,0,.6-.3.78Z"/><path class="cls-11" d="M119.82,47c0-.18,0-.35.22-.43l0,0c0,.17,0,.35-.22.43Z"/><path class="cls-11" d="M119.88,48.53l-.16-.08s0-.07.07-.06a.77.77,0,0,1,.16.07Z"/><path class="cls-11" d="M119.84,47.06l-.12.1.1-.12Z"/><path class="cls-15" d="M43.57,97.84a6.61,6.61,0,0,1,2.32,3.63,6.85,6.85,0,0,1,0,3.51c-.34.39-.28,1-.75,1.31a2.71,2.71,0,0,1-.91-1.51,15.13,15.13,0,0,0-1.5-2.7c-.12-.2-.25-.35-.49-.34h0a1.56,1.56,0,0,0-1.08-1.52h0l0-.65c.72-.14,1.1-.74,1.57-1.19C43,98.14,43.15,97.83,43.57,97.84Z"/><path class="cls-16" d="M41.13,99.58l0,.65A10.77,10.77,0,0,1,39,98c-.72-.81-1.62-1.4-2.37-2.17-.24-.25-.59-.42-.64-.83.24-.24.4,0,.54.11,1.22,1.25,2.72,2.21,3.72,3.69A2.34,2.34,0,0,0,41.13,99.58Z"/><path class="cls-16" d="M41.15,100.22a1.56,1.56,0,0,1,1.08,1.52A2.54,2.54,0,0,1,41.15,100.22Z"/><path class="cls-6" d="M51.47,107.79a1.43,1.43,0,0,1,0,.82,13.07,13.07,0,0,0-1.77,4.54l-1.23,0a7.29,7.29,0,0,1,.2-1.92,50.45,50.45,0,0,1,2-9.72,5.3,5.3,0,0,0,1.82.24c-.21.79-.86,1.36-1.08,2.17C51.11,105.25,50.77,106.52,51.47,107.79Z"/><path class="cls-5" d="M53.87,105.17a3.26,3.26,0,0,1,1.65-1.62,3.11,3.11,0,0,1-1.59,1.68Z"/><path class="cls-5" d="M59.74,100.23a2.49,2.49,0,0,1-1,.64c.17-.59.17-.59,1-.87Z"/><path class="cls-10" d="M60.58,99.56c.2-.28.37-.59.85-.57-.06.57-.43.59-.81.61Z"/><path class="cls-10" d="M59.74,100.23V100c.16-.38.48-.44.84-.44l0,0C60.44,100,60.05,100.05,59.74,100.23Z"/><path class="cls-5" d="M57.39,101.76a.66.66,0,0,1-.66.65l0,0a.65.65,0,0,1,.65-.65Z"/><path class="cls-5" d="M57.83,101.53c0-.47.21-.56.5-.62C58.46,101.35,58.21,101.42,57.83,101.53Z"/><path class="cls-5" d="M57.34,101.72l.12-.13c.13.12,0,.13-.07.17Z"/><path class="cls-5" d="M56.73,102.41l-.11.13c-.13-.12,0-.13.07-.17Z"/><polygon class="cls-5" points="55.74 103.19 55.72 103.13 55.77 103.14 55.74 103.19"/><path class="cls-19" d="M113.74,75.29c-.33-2.41-.37-4.84-.56-7.26-.18-2.17-.3-4.35-.44-6.53-.16-2.46-.3-4.92-.44-7.39-.09-1.54-.23-3.07-.3-4.61,0-1.06,0-2.15-.19-3.21a37.46,37.46,0,0,1-.4-4.48A3.55,3.55,0,0,0,107.5,38c-1.18,0-2.34.28-3.53.24a29.53,29.53,0,0,0-3.64.24c-2,.15-4,.38-6,.39a5.33,5.33,0,0,0-1,0,60.5,60.5,0,0,1-6.72.57c-1.74.12-3.5.23-5.26.31a3.76,3.76,0,0,0-3.71,2.58,8,8,0,0,0-.14,3.74c.35,2.45.4,4.91.54,7.37a56.16,56.16,0,0,1,.27,5.8,1.66,1.66,0,0,0,0,.32,34,34,0,0,1,.38,6.21c.36.08.76,0,1.07.29q-.36-5.7-.74-11.41c-.23-3.34-.52-6.67-.71-10A3.68,3.68,0,0,1,82,40.55c1.36-.08,2.72-.26,4.07-.21.08.07.16.11.18.16.62,1.83.67,1.9,2.61,1.8,3.88-.21,7.76-.45,11.64-.68a1.56,1.56,0,0,0,1.67-1.49c0-.25.07-.5.11-.84a27.88,27.88,0,0,1,5.55-.27,3.11,3.11,0,0,1,2.66,3.09c.16,2.15.3,4.3.44,6.46q.69,10.6,1.38,21.22c.19,2.87.41,5.74.63,8.61l.8.24A23.39,23.39,0,0,0,113.74,75.29ZM97.17,40.78c-.36,0-.72.14-1,.14-1.72,0-3.41.36-5.13.29-.27,0-.27,0-.56-.58,2.42-.47,4.76-.18,7-.57C97.61,40.59,97.5,40.76,97.17,40.78Zm2,0a.52.52,0,0,1,.07-1,.5.5,0,0,1,.51.56C99.66,40.59,99.48,40.8,99.14,40.75Z"/><path class="cls-6" d="M130.05,17.14a3.62,3.62,0,0,0-3.78,3.68,3.62,3.62,0,0,0,3.62,4,3.76,3.76,0,0,0,3.93-3.73A3.81,3.81,0,0,0,130.05,17.14Zm1.8,5.73c-.62-.1-.95-.56-1.5-.68-.54.22-.59.92-1.13,1.33a4.83,4.83,0,0,1-1.17-.65c.12-.61.61-1,.8-1.6a7,7,0,0,0-1.4-.94,2.92,2.92,0,0,1,.66-1.3c.6.1,1,.65,1.63.62.54-.28.57-1,1-1.34a2,2,0,0,1,1.17.76c-.07.6-.62.95-.77,1.52.3.42.84.53,1.24.89C132.5,22.06,132.1,22.43,131.85,22.87Z"/><path class="cls-17" d="M144.92,44.24c0,.62-.6.86-.9,1.29a21.23,21.23,0,0,1-1.85,2.19,1.23,1.23,0,0,1-1.8,0,1.2,1.2,0,0,1,0-1.71A20.19,20.19,0,0,1,142,44.21c.22-.18.39-.43.72-.41h0v.44c-.86.46-1.2,1.4-1.89,2a.66.66,0,0,0,0,1.11.8.8,0,0,0,1.15-.19c.51-.61,1-1.22,1.5-1.83.16-.19.39-.34.28-.64.46,0,.67-.53,1.14-.48Z"/><path class="cls-17" d="M143.82,42.5c0-.18,0-.36,0-.54a.64.64,0,0,1,.37-.7.81.81,0,0,1,.87.22c.54.51,1.09,1,1.6,1.46-.3,1.05-1.4.63-1.75,1.3h0c-.1-.41.2-.7.4-1.06-.53-.25-.66-1.15-1.47-.66Z"/><path class="cls-17" d="M143.18,43.37c0-.47.09-.83.64-.87l0,0a1,1,0,0,1-.65.86Z"/><path class="cls-17" d="M142.74,43.8a.29.29,0,0,1,.22-.22h0a.28.28,0,0,1-.21.22Z"/><path class="cls-17" d="M143,43.58a.28.28,0,0,1,.22-.21h0a.28.28,0,0,1-.22.21Z"/><path class="cls-19" d="M113.43,86l1,.08c.06,1.78.17,3.56.37,5.33.14,1.17.12,2.36.21,3.54.12,1.52.07,3.07.28,4.6s-1.12,3-2.57,3.46a2.79,2.79,0,0,1-1,.23c-1.3-.06-2.57.25-3.86.27-1.89.05-3.77.19-5.66.37a29.88,29.88,0,0,1-3.53.23c-2.12-.06-4.23.14-6.33.29s-4.27.24-6.39.57a3.92,3.92,0,0,1-4.6-4A18.76,18.76,0,0,0,81,97a6.62,6.62,0,0,1,0-1.18,33.16,33.16,0,0,0-.4-5.45,24.88,24.88,0,0,1-.19-3c-.07-1.68-.28-3.35-.3-5s-.25-3.13-.35-4.69-.3-2.92-.27-4.39a5,5,0,0,0-.22-1.8c.7-.65.7-.65.54-1.47.15-.17.31-.06.47,0,0,3.07.37,6.11.56,9.17.38,6.07.82,12.14,1.24,18.21.06.86.13,1.72.18,2.59.13,2.8,1.67,4.12,4.5,3.93,7.9-.51,15.81-1,23.72-1.48,2.47-.14,4.11-1.66,3.87-4.24C113.91,94.1,113.7,90,113.43,86Z"/><path class="cls-6" d="M106,31.5h0a7.72,7.72,0,0,0-.47-.89,17.69,17.69,0,0,0-2.25-2.71,1.76,1.76,0,0,1-.69-1.27c0-.61-.49-.75-1-.33a11.15,11.15,0,0,0-1.14,1.14c-.39.45-.33.73.25,1a2.12,2.12,0,0,1,1,.89A13.27,13.27,0,0,0,103,30.93a8.94,8.94,0,0,0,1.41,1.6,1.27,1.27,0,0,0,.23.12.86.86,0,0,0,.57,0,1.36,1.36,0,0,0,.85-.85h0a1.33,1.33,0,0,0,0-.19Zm-.72.5a.67.67,0,0,1-1-.1,10.74,10.74,0,0,1-1.6-2.09,1.75,1.75,0,0,1,.84-.77,9.29,9.29,0,0,1,1.77,2.08A.62.62,0,0,1,105.31,32Z"/><path class="cls-16" d="M53.91,94l.43-.22v.65a13.86,13.86,0,0,0-1.66,2.67c-.22.35-.26.82-.71,1h0a2.26,2.26,0,0,1,.34-1.1C52.72,95.9,53.47,95,53.91,94Z"/><path class="cls-16" d="M58.23,88.77c-.15-.62.45-.85.66-1.29.35-.11.5-.6,1.12-.6A6.9,6.9,0,0,1,58.23,88.77Z"/><path class="cls-16" d="M54.77,93.31c0-1.08.84-1.69,1.51-2.38C56.17,92,55.37,92.58,54.77,93.31Z"/><path class="cls-16" d="M57.15,90.07a1.22,1.22,0,0,1,1.08-1.3C58.13,89.42,57.6,89.72,57.15,90.07Z"/><path class="cls-16" d="M56.28,90.94a.88.88,0,0,1,.87-.87C56.93,90.42,56.87,91,56.28,90.94Z"/><path class="cls-16" d="M54.33,93.75c0-.3.14-.45.44-.44C54.77,93.6,54.64,93.76,54.33,93.75Z"/><path class="cls-4" d="M45.13,106.29c.47-.3.41-.92.75-1.31h1.7q.14,4.13.06,8.25c-.31,0-.68.17-.91-.23a16.44,16.44,0,0,0-1.18-4.77C45.49,107.56,45,107,45.13,106.29Z"/><path class="cls-15" d="M47.64,113.22q.07-4.12-.06-8.25c-.1-1.34-.21-2.68-.31-4,0-.38,0-.77-.05-1.16.2-.1.19-.29.22-.46a21.89,21.89,0,0,1,.48,4.57v.23a2.24,2.24,0,0,0,.11,1.09V112a5.35,5.35,0,0,0,.38-1.58c.21-1.82.64-3.6.94-5.4.36-1.16.38-2.42,1.09-3.46l.29,0a50.45,50.45,0,0,0-2,9.72,7.29,7.29,0,0,0-.2,1.92A.52.52,0,0,1,47.64,113.22Z"/><path class="cls-16" d="M52,98.07a1.48,1.48,0,0,1-.65,1.51h0A2.23,2.23,0,0,1,52,98.06Z"/><path class="cls-16" d="M51.31,99.58c0,.42.09.87-.43,1.08h0a1.21,1.21,0,0,1,.43-1.08Z"/><path class="cls-16" d="M50.88,100.66c0,.29.07.63-.39.65v-.09a.26.26,0,0,0-.07-.15l0,0,.45-.43Z"/><path class="cls-5" d="M50.88,100.66l-.45.43a4.43,4.43,0,0,1-1.5-3.21,8.33,8.33,0,0,1,2.37-6.53,1.21,1.21,0,0,0,.61,1.23c.67.45,1.34.91,2,1.38-.44,1.05-1.19,1.94-1.62,3a2.26,2.26,0,0,0-.34,1.1,2.23,2.23,0,0,0-.64,1.52A1.21,1.21,0,0,0,50.88,100.66Z"/><path class="cls-20" d="M114.29,98.15c-.37-4.05-.58-8.11-.86-12.17a12,12,0,0,0-3.22.14c-.41.12-.87.06-1-.56.39-.56,1.13-.41,1.62-.86-1.11-.15-2.3.14-3.13-.74a.53.53,0,0,1,.34-.44c.52-.31,1.13,0,1.78-.27A4.63,4.63,0,0,1,107.05,82c1-.78,2.12-.14,3.35-.22-.62-.32-1-.51-1.44-.74s-1-.34-.7-1a2.59,2.59,0,0,1,1.8.21,15.68,15.68,0,0,0,3,1l.15-1c-.44-.54-.18-1.16-.2-1.74-.22-2.87-.44-5.74-.63-8.61q-.7-10.62-1.38-21.22c-.14-2.16-.28-4.31-.44-6.46A3.11,3.11,0,0,0,107.85,39a27.88,27.88,0,0,0-5.55.27c0,.34-.06.59-.11.84a1.56,1.56,0,0,1-1.67,1.49c-3.88.23-7.76.47-11.64.68-1.94.1-2,0-2.61-1.8,0,0-.1-.09-.18-.16-1.35-.05-2.71.13-4.07.21a3.68,3.68,0,0,0-3.65,4.08c.19,3.34.48,6.67.71,10q.39,5.7.74,11.41a5.89,5.89,0,0,1,.4,3.92c0,3.06.36,6.11.55,9.16.38,6.08.82,12.14,1.24,18.22.06.86.14,1.72.18,2.58.14,2.81,1.67,4.12,4.5,3.94,7.91-.51,15.81-1,23.72-1.48C112.89,102.25,114.52,100.73,114.29,98.15ZM81.81,60.26a50,50,0,0,0-.28-5.48c-.13-2.1-.39-4.19-.39-6.31,0-1.11.31-1.43,1.39-1.65.89-.19,1.8-.07,2.66-.24,1.71-.34,3.45.06,5.13-.38a.75.75,0,0,1,.21,0c1.66.15,3.29-.26,4.94-.23a31.15,31.15,0,0,0,5-.4.81.81,0,0,1,.22,0c1.69.14,3.36-.25,5-.22H106c1.69-.11,2.43.13,2.47,2.27,0,1.92.26,3.85.41,5.77s.4,3.69.4,5.55c0,1.37-.61,1.91-2,2-2.78.16-5.57.33-8.36.46-2,.1-4,.3-6,.42-2.32.14-4.63.39-7,.44-.66,0-1.33.2-2,.19A1.94,1.94,0,0,1,81.81,60.26ZM105,74.51a8.49,8.49,0,0,1-8.41,8.58,8.49,8.49,0,0,1-.24-17A8.65,8.65,0,0,1,105,74.51Zm-2.73,25.62a1.17,1.17,0,0,1-.52.09c-1.76-.12-3.5.36-5.26.21-.52,0-1,.25-1.48.23s-.87-.06-.82-.73a6.13,6.13,0,0,1,2.39-.36,33.63,33.63,0,0,0,5-.41,1.49,1.49,0,0,1,.63,0,.46.46,0,0,1,.33.5A.43.43,0,0,1,102.24,100.13Zm1.94-2.07c-2-.06-4,.18-6,.28-2.21.1-4.43.22-6.64.37-.37,0-.81.11-1-.37,0-.44.36-.51.7-.49a32.11,32.11,0,0,0,5.37-.27c1.81-.17,3.64,0,5.46-.34a22,22,0,0,1,3.45,0c.16,0,.24.12.31.41A2.3,2.3,0,0,1,104.18,98.06Zm6-3.27c-1,.07-1.93.07-2.89.1-1.43.23-2.88.2-4.32.31-3.47.34-7,.46-10.44.68-2.12.14-4.24.3-6.36.42-1.56.09-1.91-.26-2-1.79s-.2-2.87-.3-4.3c-.06-1,.37-1.57,1.31-1.62,4.28-.23,8.54-.6,12.83-.69a19.08,19.08,0,0,1,3-.2,61.26,61.26,0,0,1,6.48-.41,13.17,13.17,0,0,1,2.25-.21,1.29,1.29,0,0,1,1.43,1.28,6.55,6.55,0,0,1,.13,1.71c.17,1.06.1,2.13.23,3.19S111.14,94.73,110.18,94.79Z"/><path class="cls-10" d="M44.56,85.66l2.33-1a1.59,1.59,0,0,1,.31.18c2.22,2.76,3,7.29,1.1,10.61-.26.46-.47,1-1,1.17-.08-.07-.21-.13-.22-.21a26.73,26.73,0,0,0-1.56-5.7A4.73,4.73,0,0,0,44.61,89h0a.28.28,0,0,0-.22-.22h0a1.79,1.79,0,0,0-.31-1.07,1.94,1.94,0,0,1-.35-1.06C43.84,86.17,44.26,86,44.56,85.66Z"/><path class="cls-10" d="M40,91.15a3.11,3.11,0,0,1,.16-1.89,4.14,4.14,0,0,0-.83-3.83,7.88,7.88,0,0,1-1.67-2.61,2.45,2.45,0,0,1,.2-2.26.81.81,0,0,1,.69-.44c0,.46.38.65.62.94s.7.52.68,1c0,.29.14.43.44.42h0c0,.18,0,.36.22.43h0a.28.28,0,0,0,.22.22h0c0,.3.13.45.43.43h0a.25.25,0,0,0,.22.22h0A1,1,0,0,0,42,84.88h0a1,1,0,0,0,.64.86h0a.62.62,0,0,0,.44.65h0a5.3,5.3,0,0,0,1.3,2.38h0a.29.29,0,0,0,.22.22h0c-.16.66.37,1.14.43,1.74a4.8,4.8,0,0,1-2.88.4A6.26,6.26,0,0,0,40,91.15Z"/><path class="cls-5" d="M40,91.15a6.26,6.26,0,0,1,2.16,0,4.8,4.8,0,0,0,2.88-.4A22.14,22.14,0,0,1,46.78,97c-2.54.46-5.66-1.79-6.54-4.23A4,4,0,0,1,40,91.15Z"/><path class="cls-15" d="M39.85,82.08c0-.5-.42-.7-.68-1s-.64-.48-.62-.94A1.39,1.39,0,0,1,39.79,80a12.36,12.36,0,0,1,4,1.85,1.2,1.2,0,0,1,.54,1c.09.93.17,1.86.25,2.79-.3.3-.72.51-.83,1-.2-.11-.38-.28-.64-.25h0c0-.31,0-.65-.44-.65h0c0-.46-.07-.84-.64-.86h0a1,1,0,0,0-.64-1.08h0a.28.28,0,0,0-.22-.22h0c0-.29-.14-.44-.43-.43h0a.28.28,0,0,0-.22-.22h0a.38.38,0,0,0-.22-.43h0A.64.64,0,0,0,39.85,82.08Z"/><path class="cls-4" d="M49.35,105c-.3,1.8-.73,3.58-.94,5.4A5.35,5.35,0,0,1,48,112v-6.74A2.24,2.24,0,0,1,49.35,105Z"/><path class="cls-16" d="M46.78,97A22.14,22.14,0,0,0,45,90.72c-.06-.6-.59-1.08-.43-1.74a4.73,4.73,0,0,1,.87,1.68A26.73,26.73,0,0,1,47,96.36c0,.08.14.14.22.21l-.1.2-.37.2Z"/><path class="cls-10" d="M46.79,97l.37-.2a12.79,12.79,0,0,1,.22,2l-.25,0A15,15,0,0,1,46.79,97Z"/><path class="cls-5" d="M47.13,98.74l.25,0,.06.61c0,.17,0,.36-.22.46Z"/><path class="cls-15" d="M50.41,101.07a.26.26,0,0,1,.07.15.48.48,0,0,1-.11-.09Z"/><path class="cls-17" d="M47.92,104.13v-.23s0,.1.07.16Z"/><path class="cls-19" d="M113,81.18l.15-1C113.35,80.52,113.64,80.92,113,81.18Z"/><path class="cls-12" d="M90.42,40.64c2.43-.48,4.77-.19,7-.58.17.53.06.71-.27.72s-.72.14-1,.15c-1.72,0-3.41.35-5.13.29C90.71,41.21,90.71,41.19,90.42,40.64Z"/><path class="cls-13" d="M99.72,40.28c-.06.32-.24.52-.58.47a.52.52,0,0,1,.06-1A.52.52,0,0,1,99.72,40.28Z"/><path class="cls-10" d="M129.21,23.52a4.59,4.59,0,0,1-1.16-.65c.11-.61.61-1,.8-1.59a7.39,7.39,0,0,0-1.41-1A2.94,2.94,0,0,1,128.1,19c.61.1,1,.65,1.63.61.55-.27.58-1,1-1.33a1.94,1.94,0,0,1,1.17.75c-.07.6-.63,1-.78,1.52.31.43.85.53,1.25.89.11.59-.3.95-.55,1.39-.61-.09-.94-.56-1.49-.68C129.8,22.41,129.75,23.11,129.21,23.52Z"/><path class="cls-15" d="M143.77,44.72c.11.3-.12.45-.28.64-.5.61-1,1.22-1.5,1.83a.8.8,0,0,1-1.15.19.66.66,0,0,1,0-1.11c.69-.62,1-1.56,1.89-2Z"/><path class="cls-20" d="M143.77,44.72l-1-.47v-.44a6.54,6.54,0,0,1,.43-.43,1,1,0,0,0,.65-.86c.81-.49.94.41,1.47.66-.2.36-.5.65-.4,1.06C144.44,44.19,144.23,44.75,143.77,44.72Z"/><path class="cls-15" d="M102.75,29.81a1.64,1.64,0,0,1,.83-.77,9.34,9.34,0,0,1,1.78,2.08.61.61,0,0,1,0,.87.67.67,0,0,1-1-.09A11,11,0,0,1,102.75,29.81Z"/><path class="cls-6" d="M108.84,53.35c-.15-1.92-.37-3.85-.41-5.77,0-2.14-.78-2.38-2.47-2.27h-.21c-1.69,0-3.36.36-5,.22a.81.81,0,0,0-.22,0,31.15,31.15,0,0,1-5,.4c-1.65,0-3.28.38-4.94.23a.75.75,0,0,0-.21,0c-1.68.44-3.42,0-5.13.38-.86.17-1.77.05-2.66.24-1.08.22-1.38.54-1.39,1.65,0,2.12.26,4.21.39,6.31a50,50,0,0,1,.28,5.48A1.94,1.94,0,0,0,84,62.4c.69,0,1.36-.18,2-.19,2.33-.05,4.64-.3,7-.44,2-.12,4-.32,6-.42,2.79-.13,5.58-.3,8.36-.46,1.36-.08,2-.62,2-2C109.24,57,109,55.2,108.84,53.35ZM83.3,57c0-.14,0-.3,0-.4.46-.72,1-1.44,1.42-2.15a.83.83,0,0,1,.45-1.22c.54-.23.84.15,1.1.55l2.81,0,.8-1.48c-1.9-.2-3.78.33-5.69.19a2.72,2.72,0,0,1-1-.1c-.08-.27-.08-.52.22-.52.72,0,1.39-.31,2.12-.25,1.65.14,3.28-.36,4.94-.21.25-.48.81-.84.6-1.51-2.37-.09-4.73.38-7.1.21-.34,0-.85.19-.82-.53a8.17,8.17,0,0,1,2.53-.26c1.83,0,3.65-.37,5.48-.26a1.54,1.54,0,0,1,.58-.27c.39,0,.74.07.84.5s0,.91-.46,1c-.75.08-.87.63-1.09,1.15a4.65,4.65,0,0,1,2.37-.11c.13.58-.17.75-.63.76-.71,0-1.42,0-2.13,0a8.45,8.45,0,0,0-.87,1.48c.25.4.65.31,1,.2a7.23,7.23,0,0,1,2.22-.15c.33,0,.58.07.44.53a12.69,12.69,0,0,1-4.08.29c-.24.19-.28.55-.58.68l0,.64c.27.32,0,.58-.12.85a13.07,13.07,0,0,0,3.42-.16.91.91,0,0,1,1.18.39,1.74,1.74,0,0,1-1.35.44c-1.87-.15-3.71.27-5.57.24-.67,0-1.33.23-2,.22a1.33,1.33,0,0,1-1-.47C83.13,57.1,83.07,57,83.3,57Zm9.53,2.15c-1.33-.09-2.63.26-4,.23-1.55,0-3.07.37-4.61.23-.33,0-.77.1-.69-.58a18.36,18.36,0,0,1,2.53-.25c1.79,0,3.57-.3,5.36-.26.61,0,1.18-.33,1.8-.22.24,0,.52-.05.64.44A1.66,1.66,0,0,1,92.83,59.13Zm4.38-.3c-.36-2.79-.41-5.58-.7-8.37A2,2,0,0,1,98,50.4c.21,2.74.43,5.46.64,8.24Zm2.66-.25c-.1-1.49-.35-3-.34-4.54a3.85,3.85,0,0,1,1.5-.22c.35,1.54.14,3.11.47,4.57A2.24,2.24,0,0,1,99.87,58.58Zm2.77-.17c-.15-2.24-.3-4.45-.44-6.67-.11-.79-.21-1.58-.32-2.37a3.69,3.69,0,0,1,1.67-.14c.09.87.16,1.67.23,2.46,0,2.19.24,4.36.4,6.55A2.19,2.19,0,0,1,102.64,58.41Zm3.09-.15a19.2,19.2,0,0,1-.54-6.13,2.22,2.22,0,0,1,1.38-.05c.16,2,.32,4.06.47,6.1A4.67,4.67,0,0,1,105.73,58.26Z"/><path class="cls-5" d="M102.32,94.1a1.25,1.25,0,0,1-.71-1.16l-.3,0c-.23.58-.54.13-.82.07s-.39-.35-.48-.6l-1.09,0a.92.92,0,0,1-1,.76.61.61,0,0,1-.53-.84c.34-.12.43.46.86.3.39-.35.13-.6-.24-.83s-.91-.49-.84-1.12l-.28,0c-.4,0-.41.28-.41.59,0,.64,0,1.27,0,2-.66-.49-.34-1.1-.42-1.62s.15-1.06-.78-1.09a3.36,3.36,0,0,1,1.67-.32c.17-.27.43-.18.67-.14l0,0c-.25-.54.25-.72.55-1A3.16,3.16,0,0,1,98,87.9c-4.29.09-8.55.46-12.83.69-.94,0-1.37.63-1.31,1.62.1,1.43.21,2.87.3,4.3s.44,1.88,2,1.79c2.12-.12,4.24-.28,6.36-.42,3.48-.22,7-.34,10.44-.68A1,1,0,0,0,102.32,94.1Zm-14.2-.38c-.69-.07-.27-1.1-1-1.08-.3.3,0,.72-.39,1.18-.34-1-.15-2-.45-3,1.59-.18,1.84,0,1.61,1.36C87.8,92.74,88.35,93.16,88.12,93.72Zm.36,0V90.8a3.49,3.49,0,0,1,1.25-.09c-.08.58-.58.28-.78.53-.32.72.29.7.8.85-.43.29-1.14.35-.73,1.09.22.25.62,0,.89.27C89.55,93.91,89.08,93.69,88.48,93.71Zm3.08-.34a.77.77,0,0,1-.88.22c-.33-.17-.56-.42-.41-.8.47-.18.43.56.86.33s.25-.41.06-.6-.52-.38-.75-.6-.46-.46-.27-.84a.85.85,0,0,1,.85-.54.69.69,0,0,1,.62.74c-.49.21-.48-.38-.84-.29-.27.31-.15.57.16.77s.58.31.71.62A.8.8,0,0,1,91.56,93.37Zm2-.33a.71.71,0,0,1-.78.45.59.59,0,0,1-.62-.5,6.29,6.29,0,0,1-.07-2.41c.45.75.25,1.67.71,2.72.79-1,.13-1.94.59-3A5,5,0,0,1,93.61,93Zm.66.2a6.24,6.24,0,0,1,0-2.72c.4.73.17,1.53.34,2.21.28.32.69,0,1,.39A1.6,1.6,0,0,1,94.27,93.24Z"/><path class="cls-21" d="M96.32,66.12a8.49,8.49,0,0,0,.24,17A8.49,8.49,0,0,0,105,74.51,8.65,8.65,0,0,0,96.32,66.12Zm0,15.67a7.19,7.19,0,0,1,.23-14.37,7.19,7.19,0,0,1,7.09,7.31A7.08,7.08,0,0,1,96.32,81.79Z"/><path class="cls-5" d="M111.32,90.08c.16,1,.1,2.12.22,3.19s-.4,1.46-1.37,1.53-1.92.06-2.88.09a2.07,2.07,0,0,0-.47-2.33c.63-.46.55-1.13.48-1.77-.1-1-.66-1.26-1.69-.86,0,.35,0,.7,0,1.06s.19.67-.16,1c-.5-.66-.5-1.51-1-2.14-.44,0-.47.45-.67.67-.27,0-.46-.17-.7-.24.06-.24,0-.41-.27-.39s-.61,0-.92.07a1.91,1.91,0,0,0-.43-1.13c-.21-.33-.59-.62-.47-1.1a60.94,60.94,0,0,1,6.48-.42,6.54,6.54,0,0,0,.22,2.33c-.11,0-.22.13-.19.22a24.92,24.92,0,0,1,.94,2.7c.26-.62,0-1.18.34-1.61a1.89,1.89,0,0,0,1.37-.4A1.57,1.57,0,0,1,111.32,90.08Z"/><path class="cls-15" d="M103.12,90.26c.24.07.43.27.7.24.22.75-.27,1.51,0,2.51.4-1.85,1-.78,1.36-.37.38,0,.32-.24.51-.36.24.59.7.37,1.13.28a2.07,2.07,0,0,1,.47,2.33c-1.43.24-2.88.2-4.32.31a1,1,0,0,0-.65-1.09,1.29,1.29,0,0,1-.72-1.17c.12-.75-.57-1.44-.13-2.26.13-.25-.18-.6-.56-.63a1.17,1.17,0,0,0-.9.13v2.26H98.92c.12-1-1.18-.83-1.29-1.57.34-.58.71.22,1.09-.14a.91.91,0,0,0-1.08-.61c-.25-.54.24-.71.54-1A3.37,3.37,0,0,1,98,87.9a18.07,18.07,0,0,1,3-.19c-.12.48.26.77.47,1.1a1.91,1.91,0,0,1,.43,1.13,18.68,18.68,0,0,0,.11,2.89,1.8,1.8,0,0,0,1.46-.18c-.51-.27-1.28-.14-1.07-.94.16-.26.59,0,.74-.5-.54,0-1.1-.14-.69-.89Z"/><path class="cls-17" d="M105.78,97.63a2.32,2.32,0,0,1-1.6.44c-2-.06-4,.18-6,.27-2.21.11-4.43.22-6.64.37-.38,0-.81.12-1-.36.05-.45.37-.52.71-.49a33,33,0,0,0,5.36-.28c1.82-.16,3.65,0,5.46-.33a20.9,20.9,0,0,1,3.45,0C105.63,97.22,105.72,97.34,105.78,97.63Z"/><path class="cls-15" d="M111.32,90.08a1.57,1.57,0,0,0-1.13.45,1.89,1.89,0,0,1-1.37.4c0-.48.41-.89.28-1.41-.58.1-.33.78-.77,1l-.6-.88a6.54,6.54,0,0,1-.22-2.33,13.08,13.08,0,0,1,2.25-.21,1.28,1.28,0,0,1,1.42,1.29A6.56,6.56,0,0,1,111.32,90.08Z"/><path class="cls-4" d="M94.16,99.93a6.11,6.11,0,0,1,2.39-.36,32.34,32.34,0,0,0,5-.4,1.5,1.5,0,0,1,.63,0,.5.5,0,0,1,0,.92,1.37,1.37,0,0,1-.53.08c-1.76-.12-3.49.37-5.25.22-.52,0-1,.24-1.48.22S94.1,100.6,94.16,99.93Z"/><path class="cls-16" d="M43.09,86.39c.26,0,.44.14.64.25a1.94,1.94,0,0,0,.35,1.06,1.79,1.79,0,0,1,.31,1.07A5.3,5.3,0,0,1,43.09,86.39Z"/><path class="cls-16" d="M44.61,89a.29.29,0,0,1-.22-.22A.28.28,0,0,1,44.61,89Z"/><path class="cls-16" d="M41.37,83.8A1,1,0,0,1,42,84.88,1,1,0,0,1,41.37,83.8Z"/><path class="cls-16" d="M42,84.88c.57,0,.66.4.64.86A1,1,0,0,1,42,84.88Z"/><path class="cls-16" d="M42.66,85.74c.47,0,.44.34.44.65A.62.62,0,0,1,42.66,85.74Z"/><path class="cls-16" d="M40.72,83.15c.29,0,.43.14.43.43C40.85,83.6,40.71,83.45,40.72,83.15Z"/><path class="cls-16" d="M39.85,82.08a.64.64,0,0,1,.44.42C40,82.51,39.85,82.37,39.85,82.08Z"/><path class="cls-16" d="M40.28,82.5a.38.38,0,0,1,.22.43C40.3,82.86,40.28,82.68,40.28,82.5Z"/><path class="cls-16" d="M40.5,82.93a.28.28,0,0,1,.22.22A.28.28,0,0,1,40.5,82.93Z"/><path class="cls-16" d="M41.15,83.58a.28.28,0,0,1,.22.22A.25.25,0,0,1,41.15,83.58Z"/><path class="cls-5" d="M98,50.41c.21,2.74.42,5.45.64,8.23l-1.45.2c-.36-2.79-.41-5.58-.7-8.38A2,2,0,0,1,98,50.41Z"/><path class="cls-15" d="M103.78,51.7c0,2.18.23,4.35.4,6.54a2.19,2.19,0,0,1-1.54.17c-.15-2.24-.3-4.45-.45-6.66C102.72,51.69,103.24,51.42,103.78,51.7Z"/><path class="cls-9" d="M105.73,58.26a18.82,18.82,0,0,1-.54-6.12,2.09,2.09,0,0,1,1.38,0c.16,2,.31,4,.47,6.09A4.32,4.32,0,0,1,105.73,58.26Z"/><path class="cls-5" d="M99.53,54.05a3.66,3.66,0,0,1,1.49-.23c.36,1.54.15,3.11.48,4.57a2.27,2.27,0,0,1-1.64.2C99.77,57.1,99.52,55.6,99.53,54.05Z"/><path class="cls-17" d="M88.63,56.53a12.67,12.67,0,0,0,3.42-.15.9.9,0,0,1,1.18.39,1.79,1.79,0,0,1-1.35.43c-1.87-.14-3.71.28-5.58.24-.67,0-1.32.23-2,.22a1.32,1.32,0,0,1-1-.47,1.49,1.49,0,0,0,0-.21h0l.39-.23c1.29.17,2.55-.26,3.83-.22A1.55,1.55,0,0,0,88.63,56.53Z"/><path class="cls-17" d="M93.9,58.73a1.56,1.56,0,0,1-1.07.4c-1.33-.08-2.64.26-4,.23-1.54,0-3.06.37-4.61.23-.33,0-.77.1-.68-.57a16.8,16.8,0,0,1,2.52-.25c1.8,0,3.57-.31,5.36-.26.62,0,1.18-.33,1.81-.22C93.5,58.33,93.79,58.24,93.9,58.73Z"/><path class="cls-4" d="M91.05,49.86c-2.37-.09-4.72.39-7.1.21-.33,0-.85.2-.82-.52a8.53,8.53,0,0,1,2.54-.27c1.83,0,3.64-.37,5.47-.26Z"/><path class="cls-4" d="M89.9,52.26c-1.91-.2-3.79.34-5.69.19a2.7,2.7,0,0,1-1-.09c-.09-.28-.08-.53.21-.52.72,0,1.4-.32,2.13-.26,1.65.14,3.28-.36,4.93-.2A2.26,2.26,0,0,1,89.9,52.26Z"/><path class="cls-15" d="M89.9,52.26a2.26,2.26,0,0,0,.55-.88c.26-.48.82-.85.6-1.52l.09-.84a1.39,1.39,0,0,1,.58-.26c.4,0,.75.07.84.5s0,.9-.45,1c-.75.09-.88.63-1.09,1.15a1.55,1.55,0,0,0-.39.65,7.87,7.87,0,0,0-.87,1.48,1.84,1.84,0,0,0-.47.88c-.24.19-.28.55-.59.68-.16-.52.32-.85.4-1.31Z"/><path class="cls-17" d="M103.78,51.7c-.54-.28-1.06,0-1.59,0l-.31-2.38a3.83,3.83,0,0,1,1.67-.14Z"/><path class="cls-10" d="M84.74,54.43a.82.82,0,0,1,.44-1.21c.54-.23.84.15,1.11.54,0,.4.06.77.53.93a.52.52,0,0,1,.37.57l0,0a2.54,2.54,0,0,0-1.85-.47,1.34,1.34,0,0,1-.51-.07A.29.29,0,0,0,84.74,54.43Z"/><path class="cls-4" d="M87.19,55.26a.52.52,0,0,0-.37-.57c-.47-.16-.51-.53-.53-.93l2.81,0c-.08.46-.56.79-.4,1.31h0c-.38,0-.78-.14-1.1.19Z"/><path class="cls-4" d="M89.29,54.37a1.84,1.84,0,0,1,.47-.88.71.71,0,0,0,1,.2,7.21,7.21,0,0,1,2.22-.15c.33,0,.57.08.44.53A12.46,12.46,0,0,1,89.29,54.37Z"/><path class="cls-17" d="M90.63,52a1.55,1.55,0,0,1,.39-.65,4.54,4.54,0,0,1,2.37-.1c.12.57-.17.75-.63.75Q91.7,52,90.63,52Z"/><path class="cls-10" d="M87.19,55.26l.43,0c.21.56.69.45,1.13.44.26.33,0,.58-.12.85a1.55,1.55,0,0,1-1.12,0,3.42,3.42,0,0,1-.34-1.25Z"/><path class="cls-11" d="M84.74,54.43a.29.29,0,0,1,.07.32c-.06.85-.9,1.26-1.13,2l-.39.23c0-.13,0-.3,0-.4C83.78,55.86,84.26,55.15,84.74,54.43Z"/><path class="cls-15" d="M88.75,55.68c-.44,0-.92.12-1.13-.44.32-.33.72-.21,1.1-.19Z"/><path class="cls-11" d="M83.3,57a1.49,1.49,0,0,1,0,.21C83.13,57.1,83.06,57,83.3,57Z"/><path class="cls-4" d="M87.9,92.2c.23-1.32,0-1.54-1.61-1.36.3,1,.11,2,.45,3,.4-.46.09-.88.39-1.18.72,0,.3,1,1,1.08C88.35,93.16,87.8,92.74,87.9,92.2Zm-.85-.11a.8.8,0,0,1,0-.88c.37,0,.54.17.5.51S87.33,92.1,87.05,92.09Z"/><path class="cls-6" d="M101.47,90.68c.14-.26-.17-.6-.56-.63s-.64-.1-.9.13v2.25c.09.25,0,.62.48.6,0-.4.07-.8.12-1.29.55.33.54.82.7,1.22l.3,0C101.72,92.18,101,91.49,101.47,90.68Zm-.9.63a1.38,1.38,0,0,1,0-1,.53.53,0,0,1,.62.56C101.17,91.26,100.9,91.39,100.57,91.31Z"/><path class="cls-4" d="M91.64,91.28c-.49.21-.48-.38-.85-.28-.27.3-.14.56.16.76s.58.31.72.62a.81.81,0,0,1-.11,1,.77.77,0,0,1-.88.21c-.34-.16-.56-.41-.41-.8.46-.17.42.56.86.34s.24-.41.06-.6-.52-.39-.76-.6-.45-.47-.26-.84a.84.84,0,0,1,.84-.54A.69.69,0,0,1,91.64,91.28Z"/><path class="cls-4" d="M97.64,90.13a.91.91,0,0,1,1.08.61c-.38.36-.75-.44-1.09.14.11.74,1.41.61,1.29,1.57a.92.92,0,0,1-1,.76.61.61,0,0,1-.53-.83c.35-.13.44.46.86.29.39-.34.14-.59-.24-.83s-.9-.49-.83-1.12l.44-.61Z"/><path class="cls-4" d="M92.84,93.3c.8-1,.14-1.94.59-3A4.85,4.85,0,0,1,93.6,93a.71.71,0,0,1-.78.46.59.59,0,0,1-.61-.5,6.16,6.16,0,0,1-.08-2.42C92.58,91.34,92.38,92.25,92.84,93.3Z"/><path class="cls-4" d="M88.47,93.72V90.8a4.06,4.06,0,0,1,1.25-.09c-.07.58-.57.29-.77.53-.32.72.28.71.79.85-.43.29-1.13.36-.73,1.1.23.24.63,0,.9.26C89.55,93.91,89.07,93.69,88.47,93.72Z"/><path class="cls-17" d="M96.88,90.7c-.41,0-.42.28-.41.58,0,.64,0,1.28,0,2-.66-.49-.35-1.11-.42-1.63s.15-1-.78-1.08a3.34,3.34,0,0,1,1.66-.33Z"/><path class="cls-17" d="M94.3,90.53c.4.72.16,1.52.33,2.2.29.32.7,0,1,.4a1.64,1.64,0,0,1-1.34.11A6.19,6.19,0,0,1,94.3,90.53Z"/><path class="cls-15" d="M100.48,93l.12-1.28c.56.32.55.81.71,1.21C101.08,93.55,100.76,93.1,100.48,93Z"/><path class="cls-15" d="M96.88,90.7l.05-.45c.18-.27.43-.17.67-.14l-.44.61Z"/><path class="cls-20" d="M96.55,67.42a7.19,7.19,0,1,0,7.09,7.31A7.19,7.19,0,0,0,96.55,67.42Zm-.1,13.16a6,6,0,1,1,6-5.89A5.82,5.82,0,0,1,96.45,80.58Z"/><path class="cls-4" d="M107.31,90.79c-.11-1-.67-1.26-1.7-.86,0,.34,0,.7,0,1.06s.2.66-.15,1c-.5-.65-.5-1.51-1-2.14-.44.06-.46.45-.67.67.22.76-.27,1.52,0,2.51.41-1.84,1-.78,1.36-.37.39.05.32-.24.51-.35.25.59.7.37,1.13.28C107.45,92.1,107.38,91.42,107.31,90.79Zm-2.8,1c-.4-.43-.19-.78-.2-1.14C104.64,91.14,104.64,91.14,104.51,91.81Zm1.87.47a3.18,3.18,0,0,1-.32-2.18c.67-.1.76.37.8.78S107.06,92,106.38,92.28Z"/><path class="cls-4" d="M103.12,90.26l-.64.06c-.41.75.15.86.69.89-.15.48-.58.24-.74.5-.21.8.56.67,1.07.94a1.8,1.8,0,0,1-1.46.18,18.68,18.68,0,0,1-.11-2.89c.31,0,.61-.06.92-.07S103.18,90,103.12,90.26Z"/><path class="cls-4" d="M107.73,89.62l.6.88c.44-.2.19-.88.77-1,.13.52-.3.93-.28,1.41-.34.43-.08,1-.34,1.61a24.92,24.92,0,0,0-.94-2.7C107.51,89.75,107.62,89.66,107.73,89.62Z"/><path class="cls-6" d="M83.68,56.76c.23-.75,1.07-1.16,1.13-2a1.34,1.34,0,0,0,.51.07,2.54,2.54,0,0,1,1.85.47,3.42,3.42,0,0,0,.34,1.25C86.23,56.5,85,56.93,83.68,56.76Z"/><path class="cls-15" d="M87.05,92.09a.8.8,0,0,1,0-.88c.36,0,.53.18.5.51S87.33,92.11,87.05,92.09Z"/><path class="cls-11" d="M100.54,90.35a.54.54,0,0,1,.62.57c0,.35-.26.47-.6.4A1.35,1.35,0,0,1,100.54,90.35Z"/><path class="cls-21" d="M96.49,68.62a6,6,0,1,0,0,12,5.82,5.82,0,0,0,6-5.89A5.89,5.89,0,0,0,96.49,68.62Zm-.76,9.21A18.09,18.09,0,0,1,93,75.57a.55.55,0,0,1,0-.86.57.57,0,0,1,.86-.06A6.87,6.87,0,0,0,95.58,76L98,73c.23-.28.46-.55.7-.81.65-.69.67-.68,1.52.1C98.88,74.2,97.33,76,95.73,77.83Z"/><path class="cls-10" d="M106.37,92.28a3.17,3.17,0,0,1-.31-2.18c.67-.1.75.38.79.79S107.05,92,106.37,92.28Z"/><path class="cls-15" d="M104.51,91.81c-.4-.42-.19-.78-.2-1.13C104.64,91.15,104.64,91.15,104.51,91.81Z"/><path class="cls-20" d="M95.57,76,98,73c.22-.28.45-.56.7-.82.65-.68.66-.68,1.52.1-1.35,1.92-2.9,3.7-4.5,5.56A18.75,18.75,0,0,1,93,75.57c-.3-.24-.24-.58,0-.86a.58.58,0,0,1,.87,0A6.57,6.57,0,0,0,95.57,76Z"/><rect class="cls-4" x="69.23" y="86.68" width="2.68" height="18.21"/><rect class="cls-4" x="48.58" y="104.33" width="23.16" height="2.52"/><path class="cls-7" d="M116.38,145.75a.23.23,0,0,0-.07.18.84.84,0,0,1-.13.31s0,0,0,0c-.38.59-1.33,1.73-1.33,1.73l-.1.11-.4.44-3.48.14a5.17,5.17,0,0,0-.38-.66c-.08-.08-.68-.91-1-1.31-.09-.13.09-.41.09-.41h.29l6.35-.54Z"/><path d="M134.52,146.92l-.78-.23A3.84,3.84,0,0,1,134.52,146.92Z"/><rect class="cls-22" x="83.76" y="87.31" width="28.14" height="8.69" rx="1.77" transform="translate(-6.82 7.87) rotate(-4.45)"/><text class="cls-23" transform="matrix(1, -0.08, 0.08, 1, 88.61, 93.48)">Get Results</text><path class="cls-9" d="M118.34,42.72l-.37.8-.22,1.82.43,3.2s.34,2.67.4,2.67l2.31.35s1.54-.29,1.63-.34a18.21,18.21,0,0,0,.61-2.06l2.31-3.33-.62-2-3-.5-1.95-.27Z"/></svg>