<svg id="Layer_1" data-name="Layer 1" xmlns="http://www.w3.org/2000/svg" viewBox="0 0 96 96"><defs><style>.cls-1{fill:#f2e5dc;}.cls-2{fill:#88ab7e;}.cls-3{fill:#ead7ce;}.cls-4{fill:#f3a18b;}.cls-5{fill:#c78c6b;}.cls-6{fill:#98c6ea;}.cls-7{fill:#413d5a;}.cls-8{fill:#f1fafb;}.cls-9{fill:#cfd4e3;}.cls-10{fill:#fd5d5d;}.cls-11{fill:#9f9fe6;}.cls-12{fill:#bfc5d8;}.cls-13{fill:#e1e6f1;}.cls-14{fill:#628dc4;}.cls-15{fill:#c8d9a6;}.cls-16{fill:#86bdb4;}.cls-17{fill:#e8f7fa;}.cls-18{fill:#5c56ce;opacity:0.3;}.cls-19{fill:#7eb4e1;}.cls-20{opacity:0.16;}</style></defs><title>Home Blood Sample Collection</title><path class="cls-1" d="M10,76.35A1.49,1.49,0,0,1,9.1,76c-.19-.3-.55-.44-.75-.74a4.15,4.15,0,0,1-.64-2.13c0-.55-.08-1.1-.14-1.65-.11-1-.17-2-.3-3-.07-.49-.06-1-.14-1.49S7,65.86,7,65.26s-.08-1-.15-1.49c-.13-1-.17-2-.27-3-.06-.58-.09-1.18-.16-1.76s-.07-1.06-.16-1.59a5.4,5.4,0,0,1,0-1.88,3.22,3.22,0,0,1,3.08-2.57c.11,0,.27.06.29-.16-1.12-.24-2.27-.37-3.39-.64a6.55,6.55,0,0,0-.12-.71c0-1-.19-2-.24-3,0-.56,0-1.14-.11-1.7-.11-.82-.13-1.64-.18-2.45a8.35,8.35,0,0,1,.08-1.93,4.23,4.23,0,0,1,1.55-2.89c.15-.12.41-.18.41-.45.17-.29.54-.1.75-.31.36-.05.74.11,1.08-.11H10c1.65-.14,3.3-.21,5-.22h5.71a11.87,11.87,0,0,0-.25,1.69,12.4,12.4,0,0,0,0,2.51c.07,1.09.27,2.16.3,3.24a5.07,5.07,0,0,0-.76.22c-.39.11-.78.23-1.18.32a46.45,46.45,0,0,0-4.65,1.16,8.52,8.52,0,0,1-1.82.37,9.49,9.49,0,0,0-2,.38c-.68.22-.82.41-.83,1.12a11.39,11.39,0,0,0,.76,3,1.43,1.43,0,0,0,.73.85,3,3,0,0,1,1.73,2.54c0,1,.14,1.92.14,2.89a4.13,4.13,0,0,0,.66,2.44,1.61,1.61,0,0,0,1.81.69c1.45-.34,2.9-.69,4.35-1,.93-.22,1.86-.46,2.76-.76a1.78,1.78,0,0,1,.35.65c-.42.38-.46.64-.12,1a2.11,2.11,0,0,0,.45.39,9.12,9.12,0,0,0,2.56,1.06c.13,0,.28,0,.36.2l-.17,0c-3.2,0-6.39,0-9.59,0a6.9,6.9,0,0,1-2.11-.26,1.83,1.83,0,0,0-.94-.21.73.73,0,0,0-.06.4,8.79,8.79,0,0,0,.1,1.54c0,.64,0,1.28.09,1.93.08.85.11,1.71.11,2.57,0,1.27.2,2.53.13,3.81v0c.17,1.08.1,2.17.21,3.25,0,.07-.1.12-.17.09a4.1,4.1,0,0,0-1.26-.09c-.21,0-.42,0-.64,0A5.67,5.67,0,0,1,10,76.35ZM20.22,43.83a.89.89,0,0,0-.8-.8.84.84,0,0,0-.81.82.82.82,0,0,0,.85.79A.84.84,0,0,0,20.22,43.83Z"/><path class="cls-2" d="M79.48,52.5c0-.67-.33-1.28-.42-1.93a2.15,2.15,0,0,1,0-.43.63.63,0,0,1,.86-.61,2.11,2.11,0,0,1,1.36,1.06,1.94,1.94,0,0,0,1.22,1c1.43.38,2,1.54,2.31,2.8a9.88,9.88,0,0,1,.37,2.76A6.52,6.52,0,0,1,85,58.58a1.34,1.34,0,0,0,0,.84,35.75,35.75,0,0,1,1.92,7c.15-.15.07-.3.08-.43,0-1,0-2,0-3a43.55,43.55,0,0,1,.39-4.71.94.94,0,0,0,0-.44,5,5,0,0,1-1.81-3.35,8.4,8.4,0,0,1,0-3.16A4.74,4.74,0,0,1,87,48.85a6.28,6.28,0,0,0,1.66-2.66,2.56,2.56,0,0,1,1.67-1.7c.23-.07.47,0,.69-.12a1.52,1.52,0,0,1,1.29,2.08c-.11.36-.24.72-.38,1.06a1.39,1.39,0,0,0,.1,1.34,2.21,2.21,0,0,1-.09,2.66,1.66,1.66,0,0,0-.26,1.63,2.6,2.6,0,0,1-.59,2.79l-.08.13a7.93,7.93,0,0,1-3.2,1.79,46.37,46.37,0,0,0-.43,4.82,43,43,0,0,0,0,4.4v.33l.15,2.78c-.13.26.07.47.13.7V70.2c0-.47.08-.93.11-1.4A16.85,16.85,0,0,1,88.4,65a1,1,0,0,0-.06-.82,4.9,4.9,0,0,1-.56-2.54,4.39,4.39,0,0,1,1.28-2.88A13,13,0,0,1,91,57.05c.72-.4,1.39-.89,2.07-1.36a3.76,3.76,0,0,1,1.28-.64c.82-.19,1.47.36,1.25,1.16a6.45,6.45,0,0,0,0,2.66,1.46,1.46,0,0,1-.69,1.53,3.09,3.09,0,0,0-1.64,2.3,2.41,2.41,0,0,1-1.91,1.78c-.46.13-.94.21-1.41.32H88.74a15.3,15.3,0,0,0-.56,2.82A20.61,20.61,0,0,0,87.87,71c-.25.22-.08.52-.14.78h-.52c-.06-.26.11-.55-.14-.78a14.56,14.56,0,0,0-.23-2.87,18.12,18.12,0,0,0-.44-2.6,2.11,2.11,0,0,1-.17.48,1.85,1.85,0,0,0,0,2,1,1,0,0,1,0,.16l.09.52L86.76,71c0,.14,0,.3-.1.45-.16-.13-.06-.38-.24-.45a10.53,10.53,0,0,0-.2-1.48,11,11,0,0,0-.66-2.6,2.73,2.73,0,0,1-2.23-.23c.11-1.24.19-2.48.35-3.71a3.84,3.84,0,0,1,.17-1.26,14,14,0,0,1,2,1.59,25.64,25.64,0,0,0-1.28-4l-.51,0c0-.05-.07-.1-.06-.15.11-.79.13-1.59.24-2.39A3.06,3.06,0,0,0,82,53.05a11.26,11.26,0,0,0-1.73-.34C80.05,52.53,79.72,52.7,79.48,52.5Z"/><path class="cls-3" d="M7.6,39c0,.27-.26.33-.41.45a4.23,4.23,0,0,0-1.55,2.89,8.35,8.35,0,0,0-.08,1.93c.05.81.07,1.63.18,2.45.08.56.07,1.14.11,1.7.05,1,.21,2,.24,3a6.55,6.55,0,0,1,.12.71c1.12.27,2.27.4,3.39.64,0,.22-.18.16-.29.16a3.22,3.22,0,0,0-3.08,2.57,5.4,5.4,0,0,0,0,1.88c.09.53.09,1.07.16,1.59s.1,1.18.16,1.76c.1,1,.14,2,.27,3,.07.49.1,1,.15,1.49s.09,1.2.17,1.8.07,1,.14,1.49c.13,1,.19,2,.3,3,.06.55.13,1.1.14,1.65a4.15,4.15,0,0,0,.64,2.13c.2.3.56.44.75.74a15.38,15.38,0,0,1-2.36-.83c-.81-.28-1.58-.68-2.39-.95A2.69,2.69,0,0,1,2.55,72c-.15-.76-.17-1.55-.25-2.33a4.2,4.2,0,0,0-.12-1.17c-.11-.91-.15-1.83-.27-2.75-.1-.76-.16-1.52-.26-2.28s-.18-1.69-.28-2.54-.18-1.62-.26-2.44A15.48,15.48,0,0,0,.8,56c0-.27,0-.54,0-.8a3.2,3.2,0,0,1,2.09-2.9c.43-.15.9-.16,1.34-.36a1.16,1.16,0,0,0,0-.32C4.06,50.4,4.08,49.21,4,48c-.11-1-.16-2-.23-2.92a7.4,7.4,0,0,1,.85-4.35,5.24,5.24,0,0,1,.91-.85c.28-.17.55-.36.82-.54A6.38,6.38,0,0,1,7.6,39Z"/><path class="cls-1" d="M83.85,61.76A3.84,3.84,0,0,0,83.68,63c-.16,1.23-.24,2.47-.35,3.71-.06,1-.25,2-.23,2.93a.19.19,0,0,0-.1.18,10,10,0,0,1-.13,2,8.3,8.3,0,0,1-.45,2.66,3,3,0,0,1-3,2H76.74c-.09-1.62.14-3.22.1-4.84a1.09,1.09,0,0,1,0-.26,21,21,0,0,0,.26-2.22c.13-1.26.2-2.53.23-3.79s.16-2.44.13-3.65c0-.86.18-1.71.11-2.58v0a15.12,15.12,0,0,0,.19-2.77A3.49,3.49,0,0,1,80.28,53v-.26a11.26,11.26,0,0,1,1.73.34,3.06,3.06,0,0,1,2.24,3.69c-.11.8-.13,1.6-.24,2.39,0,0,0,.1.06.15A23.09,23.09,0,0,0,83.85,61.76Z"/><path class="cls-4" d="M87.21,71.81h1.17A12.3,12.3,0,0,0,92,71.49a2.1,2.1,0,0,1,0,1.14c0,.28-.27.24-.42.33-.2,1.67-.4,3.35-.69,5a1.74,1.74,0,0,1-1.67.74c-1,0-2.09,0-3.13,0A1.72,1.72,0,0,1,84.48,78,23.78,23.78,0,0,1,84,74.81c-.08-.52-.15-1-.23-1.58a.5.5,0,0,0-.14-.28,1.38,1.38,0,0,1-.27-1.55.26.26,0,0,0,.19.18c.56.08,1.11.2,1.67.23S86.53,71.81,87.21,71.81Z"/><path class="cls-2" d="M88.38,71.82h-.1c-.08-.25.13-.5,0-.75a14.28,14.28,0,0,1,.51-1.69,3.32,3.32,0,0,1,.3-.63,4.49,4.49,0,0,0,.79-1.94,2,2,0,0,1,2-1.66,7.89,7.89,0,0,0,1.37-.26,3.92,3.92,0,0,1,1.23-.06.58.58,0,0,1,.51.92,1.63,1.63,0,0,1-.92.79,1.69,1.69,0,0,0-.89.73c-.5.91-1,1.14-2.33.95A7.22,7.22,0,0,1,90,68,6.69,6.69,0,0,0,88.61,71C88.43,71.27,88.56,71.59,88.38,71.82Z"/><path class="cls-5" d="M77.06,76.46h2.37a12.06,12.06,0,0,1,.18,1.8c.06.55.11,1.09.16,1.64L80,82.28c0,.14,0,.28,0,.42,0,.39-.17.55-.55.56a.67.67,0,0,1-.74-.49c-.09-.27-.15-.54-.23-.81l-.63-2.37c-.11-.44-.24-.89-.35-1.33A11.16,11.16,0,0,1,77.06,76.46Z"/><path class="cls-5" d="M9.43,82.28c.08-.79.18-1.58.21-2.38s.16-1.84.23-2.76a4.29,4.29,0,0,1,.11-.79,5.67,5.67,0,0,0,1.69.11c.22,0,.43,0,.64,0a1.49,1.49,0,0,1,0,.21c-.23,1-.47,1.94-.7,2.91A17.65,17.65,0,0,0,11,81.83c-.17.34-.15.76-.35,1.1a.65.65,0,0,1-.77.31.59.59,0,0,1-.46-.59C9.44,82.53,9.43,82.41,9.43,82.28Z"/><path class="cls-5" d="M87.21,71.81c-.68,0-1.36,0-2,0s-1.11-.15-1.67-.23a.26.26,0,0,1-.19-.18,6,6,0,0,1,1.82-.32c.42,0,.85,0,1.28,0,.18.07.08.32.24.45.14-.15.08-.31.1-.45h.31C87.32,71.26,87.15,71.55,87.21,71.81Z"/><path class="cls-5" d="M88.38,71.82c.18-.23.05-.55.23-.78a19,19,0,0,1,2.61.15c.26,0,.58,0,.74.3A12.3,12.3,0,0,1,88.38,71.82Z"/><path class="cls-5" d="M88.28,71.06c.13.25-.08.5,0,.75h-.55c.06-.26-.11-.56.14-.78Z"/><path class="cls-6" d="M55.82,38.5c.43-.86.84-1.73,1.28-2.59a6,6,0,0,1,2.73-2.77c.3-.14.63-.25.94-.37-.13.37-.27.74-.38,1.11s-.15.55.06.77c.58.58,1,1.28,1.58,1.89l.51-.2L66.38,35c.16,0,.37,0,.42-.27a21.08,21.08,0,0,0,.66-2,11.71,11.71,0,0,1,3.25,1.45,4.37,4.37,0,0,1,1.71,2.44,11.8,11.8,0,0,1,.33,3.55c0,.77-.1,1.52-.13,2.29a16.48,16.48,0,0,1-.25,2.1c-.13.77-.16.77-1,.79-.46,0-.93-.1-1.38-.17a14.59,14.59,0,0,1-2.76-.66c-.12-.05-.28-.13-.36.07-.16.57-.23,1.16-.4,1.73a.67.67,0,0,1-.59.52c-.46.08-.91.16-1.37.22L59,47.65a.37.37,0,0,0-.5-.16.79.79,0,0,1-.64,0l0-.48a10.94,10.94,0,0,0-.31-3.07c0-.21-.1-.39-.31-.46a21.2,21.2,0,0,1-2.28-1c-.09-.18-.3-.24-.45-.43.18-.48.37-1,.55-1.48A18.57,18.57,0,0,0,55.82,38.5Zm10.12,1.92a1.66,1.66,0,0,0,0-.71A17.59,17.59,0,0,0,63,39.6a.65.65,0,0,0,0,.62A19.28,19.28,0,0,0,65.94,40.42Z"/><path class="cls-3" d="M80.29,52.71V53a3.49,3.49,0,0,0-2.49,3.33,15.12,15.12,0,0,1-.19,2.77v0c.07.87-.13,1.72-.11,2.58,0,1.21-.1,2.43-.13,3.65s-.1,2.53-.23,3.79a21,21,0,0,1-.26,2.22,1.09,1.09,0,0,0,0,.26c0,1.62-.19,3.22-.1,4.84a2.72,2.72,0,0,1-.85.11H71.54c-.75,0-1.49,0-2.24,0h-.88a1.71,1.71,0,0,1-.09-.3c-.16-1.31-.33-2.62-.53-3.93a4.2,4.2,0,0,1-.09-1.54,2.48,2.48,0,0,1,.58-.15,19.37,19.37,0,0,0,3.91-.86c1-.35,1-.35,1-1.41a.63.63,0,0,0-.36-.71,4,4,0,0,0-.59-.27A17.2,17.2,0,0,0,69,66.66a20.38,20.38,0,0,0-3-.34c-.14-.11-.07-.27-.09-.41a.59.59,0,0,0-.34-.56c-.36-.13-.75-.18-1-.57-.05-.1-.2-.06-.3-.08a1.76,1.76,0,0,0-1,.31,1,1,0,0,0-.72.89c-.21-.1-.44.25-.64,0A7.54,7.54,0,0,1,62,63.61c.39,0,.71,0,1,0,1.35-.13,2.71-.21,4-.44A10,10,0,0,0,70.5,62.1,4.1,4.1,0,0,0,72.34,60a8.36,8.36,0,0,0,.44-3,.46.46,0,0,0,.41-.13A6.85,6.85,0,0,1,73,55.55l-.48-2.5a2.09,2.09,0,0,0,.67-.4A3.64,3.64,0,0,1,75,52a20.16,20.16,0,0,1,2.79.3c.56.07,1.11.2,1.68.23C79.72,52.7,80.05,52.53,80.29,52.71ZM69.36,63.36a.46.46,0,0,0,.32,0c2.1,0,4.19.08,6.29-.11a3.42,3.42,0,0,0,.88-.21c.37-.13.43-.35.17-.63a2.88,2.88,0,0,0-.79-.55,17.23,17.23,0,0,0-2.43-1,4.64,4.64,0,0,0-1.35-.36c0,.07,0,.12,0,.14.57.53.53,1-.11,1.45a6.44,6.44,0,0,1-1.49.73A10.75,10.75,0,0,0,69.36,63.36Z"/><path class="cls-1" d="M40.17,38.38H48.8c.1.17.21.33.3.5a5.89,5.89,0,0,1,.47,1.9,27.57,27.57,0,0,1,.31,4,10.11,10.11,0,0,0-1.74.11.62.62,0,0,0-.35-.1,1.81,1.81,0,0,1-1.33-.41,5.27,5.27,0,0,0-3.07-.86.35.35,0,0,0-.31.19H43s-.08-.09-.12-.1c-.47-.07-.69.07-.94.59a.93.93,0,0,0,.2,1.24c0,.2-.16.36-.23.54-.23-.21-.33-.6-.74-.54a1,1,0,0,0-.26-.52,16.72,16.72,0,0,1-1-1.42A.54.54,0,0,0,40,43c-.19-.7-.77-1.18-1.08-1.81,0,0,0,0,0,0a2.82,2.82,0,0,1-1-1c-.39-.6-.88-1.15-1.22-1.79Z"/><path class="cls-6" d="M59.15,20.9a2.54,2.54,0,0,1,1.14-2,5,5,0,0,1,3.37-1.18A5.49,5.49,0,0,1,67.2,19a4.11,4.11,0,0,1,1.11,1.5,11.94,11.94,0,0,1,1,2.59,4,4,0,0,1-.23,2.67,1.27,1.27,0,0,0-.13.46c-.25-.06-.33.17-.46.28a1.72,1.72,0,0,1-1.38.56c0-.26,0-.52.05-.79a1,1,0,0,0-.43-1A6.41,6.41,0,0,0,62.91,21,4.56,4.56,0,0,0,59.15,20.9Z"/><path class="cls-1" d="M75,52a3.64,3.64,0,0,0-1.8.68,2.09,2.09,0,0,1-.67.4c-.09-.33-.2-.65-.28-1-.33-1.42-.75-2.81-1-4.26a3.24,3.24,0,0,0-.17-1.24v-.22a4.34,4.34,0,0,0,.29-1.07c.79,0,.82,0,1-.79a16.48,16.48,0,0,0,.25-2.1c0-.77.17-1.52.13-2.29a2.66,2.66,0,0,1,1.18,1.19,6.7,6.7,0,0,1,.77,2.81c.1.76,0,1.53.18,2.28a4.34,4.34,0,0,1,0,1C74.86,48.93,75.09,50.45,75,52Z"/><path class="cls-1" d="M55.82,38.5a18.57,18.57,0,0,1-.77,2c-.18.5-.37,1-.55,1.48.15.19.36.25.45.43-.29.69-.48,1.41-.84,2.1a11.73,11.73,0,0,0-1.19,0,19.12,19.12,0,0,1-2.72.18,16.6,16.6,0,0,0-.12-2.82c-.06-.4-.1-.81-.15-1.21-.12-.78-.3-1.55-.48-2.33h5.82C55.46,38.39,55.67,38.3,55.82,38.5Z"/><path class="cls-4" d="M66.72,25.31a1,1,0,0,1,.43,1c0,.27,0,.53-.05.79a2.54,2.54,0,0,1-1.31.92A13.59,13.59,0,0,0,66,30.29a5.75,5.75,0,0,0,.44,2.05c0,.07,0,.15-.08.2-.86.8-1.71,1.62-2.61,2.39a10,10,0,0,1-1.6,1.35,1.4,1.4,0,0,1-.14-.39,11.63,11.63,0,0,1-.18-1.16,7.27,7.27,0,0,1-.05-2.28c.19-.18.05-.47.22-.65a3.6,3.6,0,0,0,3-2,.54.54,0,0,0,.08-.46,2.05,2.05,0,0,1,.25-.46,1.39,1.39,0,0,0,.32-.78c.07,0,.14-.09,0-.17l0,.16c-.26.15-.34.44-.52.66a1,1,0,0,1-.53.43c0-.69-.18-1.31-.11-2a14.1,14.1,0,0,0,1.25-1.31.4.4,0,0,0,.14-.34A1.06,1.06,0,0,1,66.72,25.31Zm-.55,1,.62-.19c-.31-.18-.52-.13-.63.18a.78.78,0,0,0-.14.88A4.81,4.81,0,0,0,66.17,26.31Z"/><path class="cls-7" d="M66.72,25.31a1.06,1.06,0,0,0-.88.29l-.2.06c-.06-.23-.1-.46-.37-.54a15.74,15.74,0,0,0-1.89-.56c-.05-.1-.14-.1-.23-.1a7.79,7.79,0,0,0-1-.6,6.66,6.66,0,0,1-2.08-2.11,3.63,3.63,0,0,0-1,2.93c.88-.35,1.24-.3,1.35.16-.18.12-.34-.05-.51-.05-.33,0-.69-.05-.86.36a3.29,3.29,0,0,1,.1-4.25,4.56,4.56,0,0,1,3.76.08A6.41,6.41,0,0,1,66.72,25.31Z"/><path class="cls-4" d="M63.38,24.56a15.74,15.74,0,0,1,1.89.56c.27.08.31.31.37.54-.54.58-1,1.31-1.85,1.4a9.66,9.66,0,0,1-1.33-.14,12.06,12.06,0,0,1-1.59-.16c0-.34.22-.67.07-1.06a3.5,3.5,0,0,0-.29,1.06,4.45,4.45,0,0,1-1.5.19,7.23,7.23,0,0,0-.1-1.8c.17-.41.53-.35.86-.36.17,0,.33.17.51.05-.11-.46-.47-.51-1.35-.16a3.63,3.63,0,0,1,1-2.93,6.66,6.66,0,0,0,2.08,2.11,7.79,7.79,0,0,1,1,.6v0c-.39,0-.84-.18-1.15.32.54.07,1.11-.15,1.6.23a.53.53,0,0,0,0-.19,3.07,3.07,0,0,0-.26-.25Zm-.84,1c-.36.34-.34.5.06.81C62.9,26,62.9,25.84,62.54,25.55Zm-2.67.74c.42-.35.41-.51,0-.81C59.55,25.83,59.55,25.85,59.87,26.29Z"/><path class="cls-8" d="M60.87,26.76a12.06,12.06,0,0,0,1.59.16,9.66,9.66,0,0,0,1.33.14v1.83a1.67,1.67,0,0,1-1.16,1.73c-.15.06-.33.08-.35.29L62,31a2.6,2.6,0,0,1-2.5-2,5.28,5.28,0,0,1-.34-2,4.45,4.45,0,0,0,1.5-.19Z"/><path class="cls-9" d="M61.73,32.45a7.27,7.27,0,0,0,.05,2.28A11.63,11.63,0,0,0,62,35.89a1.4,1.4,0,0,0,.14.39,10,10,0,0,0,1.6-1.35c.9-.77,1.75-1.59,2.61-2.39,0,0,0-.13.08-.2a5.76,5.76,0,0,1,1.07.33,21.08,21.08,0,0,1-.66,2c0,.22-.26.22-.42.27l-3.84,1.36-.51.2c-.55-.61-1-1.31-1.58-1.89-.21-.22-.13-.51-.06-.77s.25-.74.38-1.11A2.23,2.23,0,0,1,61.73,32.45Z"/><path class="cls-7" d="M66,30.29A13.59,13.59,0,0,1,65.79,28a2.54,2.54,0,0,0,1.31-.92,1.72,1.72,0,0,0,1.38-.56c.13-.11.21-.34.46-.28a2.75,2.75,0,0,1,0,2.71,2.63,2.63,0,0,1-2.53,1.39Z"/><path class="cls-5" d="M62,31l.29-.05A4.29,4.29,0,0,0,64,30.26c.4-.24.66-.64,1.06-.88a.54.54,0,0,1-.08.46,3.6,3.6,0,0,1-3,2Z"/><path class="cls-3" d="M49.45,38.38c.18.78.36,1.55.48,2.33,0,.4.09.81.15,1.21a16.6,16.6,0,0,1,.12,2.82h-.32a27.57,27.57,0,0,0-.31-4,5.89,5.89,0,0,0-.47-1.9c-.09-.17-.2-.33-.3-.5Z"/><path class="cls-3" d="M13.74,76.46c-.11-1.08,0-2.17-.21-3.25v0c.07-1.28-.13-2.54-.13-3.81,0-.86,0-1.72-.11-2.57-.07-.65,0-1.29-.09-1.93a8.79,8.79,0,0,1-.1-1.54.73.73,0,0,1,.06-.4,1.83,1.83,0,0,1,.94.21,6.9,6.9,0,0,0,2.11.26c3.2,0,6.39,0,9.59,0l.17,0c-.08-.16-.23-.16-.36-.2a9.12,9.12,0,0,1-2.56-1.06,2.11,2.11,0,0,1-.45-.39c-.34-.39-.3-.65.12-1A4.93,4.93,0,0,0,25,62.35a16.9,16.9,0,0,0,4.43.93,44.87,44.87,0,0,0,4.78.24h.43c.42,0,.46,0,.46.47,0,.66,0,1.32,0,2a3.22,3.22,0,0,0-.86.23h-.11a14.38,14.38,0,0,0-2.07.21,35.71,35.71,0,0,0-4.35.78,3.39,3.39,0,0,0-1.22.52c-.23.16-.44.33-.25.65,0,1.07,0,1.09,1,1.45a20.1,20.1,0,0,0,3.07.71,9,9,0,0,1,1.66.29l-.7,5.76H18.87a16.82,16.82,0,0,0-2.13,0H15.29A5,5,0,0,1,13.74,76.46Z"/><path class="cls-10" d="M36.71,38.39c.34.64.83,1.19,1.22,1.79a2.82,2.82,0,0,0,1,1s0,0,0,0c.31.63.89,1.11,1.08,1.81a.54.54,0,0,1-.07.45,2.06,2.06,0,0,0-1.08.4,8.7,8.7,0,0,0-2,2c-.14.17-.37.31-.3.59-.49.39-.75-.24-1.19-.29a8.66,8.66,0,0,1-.1,1.46c0,.36.13.7.1,1.06a4.62,4.62,0,0,0,.17,1.38,15.89,15.89,0,0,0,.69,2.12,2.14,2.14,0,0,1-1.28.14,23.7,23.7,0,0,1-2.59-.84c-1.56-.55-3.11-1.12-4.67-1.69a1,1,0,0,1-.68-.7c-.13-.46-.27-.92-.39-1.38a2.55,2.55,0,0,0-.29-.91,12.9,12.9,0,0,1-4.23.85,1.42,1.42,0,0,0-.37,0c-.34.15-.51,0-.6-.3s-.08-.31-.12-.46a2.57,2.57,0,0,0-.31-1.11c0-1.08-.23-2.15-.3-3.24a12.4,12.4,0,0,1,0-2.51,11.87,11.87,0,0,1,.25-1.69,3.92,3.92,0,0,1,1.42-2,.44.44,0,0,0,.14-.28c.18.11.3,0,.44-.09a13.18,13.18,0,0,1,3.49-1.33c0,.44.45.53.69.77a4.43,4.43,0,0,0,2.35,1.2,1.23,1.23,0,0,0,1.52-.86,2.39,2.39,0,0,0,0-1.16c.48.06.93.24,1.4.34a12.62,12.62,0,0,0,1.47.48.4.4,0,0,0,.21.23,5.45,5.45,0,0,1,1.42,1.11C35.73,37.28,36.15,37.9,36.71,38.39Z"/><path class="cls-11" d="M35.1,66c0-.67,0-1.33,0-2,0-.43,0-.46-.46-.47H34.2a44.87,44.87,0,0,1-4.78-.24A16.9,16.9,0,0,1,25,62.35a4.93,4.93,0,0,1-2.27-1.64,1.78,1.78,0,0,0-.35-.65,9.14,9.14,0,0,1-.53-3.77c.85,0,1.69.12,2.56,0a33.1,33.1,0,0,0,3.84-.65c1.18-.26,2.34-.58,3.53-.82a4.75,4.75,0,0,0,1.28-.29,8.67,8.67,0,0,1,1.76.1,4.46,4.46,0,0,0,.73.13,4.73,4.73,0,0,0,1.93-.4,1.68,1.68,0,0,1,1.3,0l.79.31a.65.65,0,0,0,.52.06,2.4,2.4,0,0,1,.74-.1c.15,0,.22,0,.22-.2l.11-.26a15.37,15.37,0,0,1,4.68,2.08,3.89,3.89,0,0,1,1.59,2.58,16.49,16.49,0,0,1,.18,1.86c0,.6,0,1.22,0,1.83h-.54c-.21-.11,0-.39-.24-.55h-.76c-.87,0-.86-.07-.84.85,0,.15.09.25.12.37a20.34,20.34,0,0,1,.09,2.34H44.37c0-.78,0-1.57,0-2.35.49-.34.2-.78.25-1.22H43.11a.42.42,0,0,0-.44.24,1,1,0,0,0,.31,1l0,2.38H41.77c0-.15,0-.31-.08-.42s-.06-.32-.06-.46-.19-.11-.23-.25c-.1-.39.3-.94.27-1.33.14-.09.35-.11.33-.35s.07-.56-.1-.85h-1c-1,0-.88,0-.88.86a.31.31,0,0,0,.22.33V65l0,.76c-1.22.08-2.45.08-3.67.23Z"/><path class="cls-9" d="M9.43,49.39c0-.71.15-.9.83-1.12a9.49,9.49,0,0,1,2-.38,8.52,8.52,0,0,0,1.82-.37,46.45,46.45,0,0,1,4.65-1.16c.4-.09.79-.21,1.18-.32a1.22,1.22,0,0,1-.09.42A6,6,0,0,0,19.56,48a9.35,9.35,0,0,0,.38,2.69,14.15,14.15,0,0,1,.49,2,12,12,0,0,1-.26,2.93,5.47,5.47,0,0,0,0,1.76c.08.47.17.93.26,1.41a1.32,1.32,0,0,1-.24.15,9.2,9.2,0,0,1-3.6.7A3,3,0,0,1,13.9,58a4.8,4.8,0,0,1-.48-1.31,10.73,10.73,0,0,0-1.84-4.29,25.49,25.49,0,0,1-1.93-2.89A.23.23,0,0,0,9.43,49.39Z"/><path class="cls-12" d="M9.43,49.39a.23.23,0,0,1,.22.12,25.49,25.49,0,0,0,1.93,2.89,10.73,10.73,0,0,1,1.84,4.29A4.8,4.8,0,0,0,13.9,58a3,3,0,0,0,2.69,1.64,9.2,9.2,0,0,0,3.6-.7,1.32,1.32,0,0,0,.24-.15c-.09-.48-.18-.94-.26-1.41a5.47,5.47,0,0,1,0-1.76,12,12,0,0,0,.26-2.93,14.15,14.15,0,0,0-.49-2A9.35,9.35,0,0,1,19.56,48a6,6,0,0,1,.24-1.52,1.22,1.22,0,0,0,.09-.42,5.07,5.07,0,0,1,.76-.22A2.57,2.57,0,0,1,21,46.93c0,.15.07.31.12.46s.26.45.6.3a1.42,1.42,0,0,1,.37,0,3.8,3.8,0,0,0,.06.58c.07.43.34.81.37,1.25-.19.34-.05.71-.12,1-.25,1.15-.45,2.29-.7,3.43a7.74,7.74,0,0,0-.25,2.14l.43.18a9.14,9.14,0,0,0,.53,3.77c-.9.3-1.83.54-2.76.76-1.45.33-2.9.68-4.35,1a1.61,1.61,0,0,1-1.81-.69,4.13,4.13,0,0,1-.66-2.44c0-1-.1-1.93-.14-2.89a3,3,0,0,0-1.73-2.54,1.43,1.43,0,0,1-.73-.85A11.39,11.39,0,0,1,9.43,49.39Z"/><path class="cls-3" d="M20.22,43.83a.84.84,0,0,1-.76.81.82.82,0,0,1-.85-.79.84.84,0,0,1,.81-.82A.89.89,0,0,1,20.22,43.83Z"/><path class="cls-12" d="M87.48,70.18l.13,0v.68C87.55,70.65,87.35,70.44,87.48,70.18Z"/><path class="cls-9" d="M87.33,67.07c.13,0,.29,0,.36.16s-.22.16-.36.17Z"/><path class="cls-4" d="M71.13,46.36v.22a2.52,2.52,0,0,0-.12.29,18.91,18.91,0,0,1-.79,2.45,2.32,2.32,0,0,1-1.73,1.53,5.61,5.61,0,0,1-.9.14A33.91,33.91,0,0,1,63,50.87c-1.35-.14-2.7-.3-4-.53A6.59,6.59,0,0,0,59,47.65L64.56,47c.46-.06.91-.14,1.37-.22a.67.67,0,0,0,.59-.52c.17-.57.24-1.16.4-1.73a16.36,16.36,0,0,0,1.91,1C69.58,45.84,70.4,46,71.13,46.36Z"/><path class="cls-4" d="M49.88,44.74h.32a19.12,19.12,0,0,0,2.72-.18,11.73,11.73,0,0,1,1.19,0c.36-.69.55-1.41.84-2.1a21.2,21.2,0,0,0,2.28,1c.21.07.26.25.31.46A10.94,10.94,0,0,1,57.85,47c-.19.13-.16.44-.44.53l-.23-.1a5.71,5.71,0,0,0-2.3-.81,6.15,6.15,0,0,1-1.28-.11c-.26-.08-.36.13-.27.49a.21.21,0,0,1-.28.1l-2-.65a.31.31,0,0,1-.2-.43c0-.16.18-.32,0-.5a.36.36,0,0,0-.22.2.79.79,0,0,1-.2.31h-.55a1,1,0,0,0-.49-.28c-.39-.14-.79-.25-1.19-.37l-.06-.54A10.11,10.11,0,0,1,49.88,44.74Z"/><path class="cls-8" d="M53.33,47c-.09-.36,0-.57.27-.49a6.15,6.15,0,0,0,1.28.11,5.71,5.71,0,0,1,2.3.81l.23.1c.28-.09.25-.4.44-.53l0,.48a.79.79,0,0,0,.64,0,.37.37,0,0,1,.5.16,6.59,6.59,0,0,1-.08,2.69.36.36,0,0,1-.53.14,1.45,1.45,0,0,0-.77-.14c-.13-.15-.28-.08-.43,0a10.82,10.82,0,0,1-2.71.39,5.77,5.77,0,0,1-1.38-.23c0-.17-.22-.32,0-.51.24,0,.49.17.74,0,0-.18-.18-.14-.27-.14a2.92,2.92,0,0,1-1.13-.3c-.2-.07-.35-.19-.23-.43,1.2.18,1.2.18,1.42,0a2.05,2.05,0,0,0-.54,0,2.86,2.86,0,0,1-1.28-.33c-.17-.11-.38-.23-.24-.52a5.36,5.36,0,0,0,1.91.15,11.84,11.84,0,0,1-2-.39c.24-.6.29-.63.94-.64a6.62,6.62,0,0,1,1.66.2c.2,0,.41.07.61-.07a.63.63,0,0,0-.62-.23Z"/><path class="cls-5" d="M71.13,46.36c-.73-.37-1.55-.52-2.3-.85a16.36,16.36,0,0,1-1.91-1c.08-.2.24-.12.36-.07a14.59,14.59,0,0,0,2.76.66c.45.07.92.12,1.38.17A4.34,4.34,0,0,1,71.13,46.36Z"/><path class="cls-13" d="M65.94,40.42a19.28,19.28,0,0,1-2.91-.2.65.65,0,0,1,0-.62,17.59,17.59,0,0,1,2.9.11A1.66,1.66,0,0,1,65.94,40.42Z"/><path class="cls-7" d="M33.25,23.74a3.89,3.89,0,0,1,.44,4.14,2.15,2.15,0,0,1-.65.9,10.2,10.2,0,0,0,0-2.14,3.1,3.1,0,0,0-1.27-2,7.18,7.18,0,0,1-2.46,2.47c.43.12.91-.1,1,.51a2,2,0,0,0-1.42,0c-.13-.1.07-.25-.16-.3-.57.32-1.33.37-1.79,1-.05-.06-.08-.08-.09-.11-.3-.47-.55-.6-.9-.51a.92.92,0,0,0-.64,1,1.43,1.43,0,0,0,1.31,1.6,1.15,1.15,0,0,1,.12.57,13.66,13.66,0,0,1-.16,2.31,2.54,2.54,0,0,1-.51,1.5A13.18,13.18,0,0,0,22.64,36c-.14.08-.26.2-.44.09l-.2-.52-.13-.64,0-.63a5.29,5.29,0,0,1,1-2.2,3.93,3.93,0,0,0,.59-1,.62.62,0,0,0,.19-.57s.07,0,.08,0a.09.09,0,0,0,0-.05l0,.08a1.15,1.15,0,0,0-.34.42l-.74.84A4,4,0,0,0,21.74,34a.24.24,0,0,0-.07-.18,3.46,3.46,0,0,1,1.11-2.58,3.38,3.38,0,0,0,.64-.86,3.1,3.1,0,0,0,.67-2,12.48,12.48,0,0,1,.3-2.51,5.29,5.29,0,0,1,1.88-3,.65.65,0,0,0,.31-.23,6.71,6.71,0,0,1,1.51-.57,4.62,4.62,0,0,1,2.9.48.59.59,0,0,0,.46.23A3.14,3.14,0,0,1,33.25,23.74Zm-4.43,3.19a.17.17,0,0,0-.19.13s-.14,0,0,.08.05,0,0-.08a.18.18,0,0,0,.22-.1.14.14,0,0,0,.12-.1.85.85,0,0,0,.52-.56c.1,0,.11-.12.11-.22l0,0s0,0,0,0a.18.18,0,0,0-.11.21c-.3.05-.43.28-.57.51Z"/><path class="cls-14" d="M72.78,56.94a8.36,8.36,0,0,1-.44,3A4.1,4.1,0,0,1,70.5,62.1a10,10,0,0,1-3.42,1.07c-1.34.23-2.7.31-4,.44-.32,0-.64,0-1,0a7.54,7.54,0,0,0-.16,2.27l-.84,0V62c0-.75-.26-1.06-1-1.2-.16,0-.32,0-.39-.21s.17-.11.16-.2c0-.57.06-1.2-.6-1.48a1.67,1.67,0,0,1,0-.67c.35,0,.5-.18.34-.56a11.85,11.85,0,0,0-1.46,0,5.54,5.54,0,0,0-1.22.11c-.23,0-.36.15-.21.41a2.62,2.62,0,0,1,1.77.08v.56c-.68.6-.81,1-.54,1.74,0,.15-.11.19-.25.22-.91.19-1.16.51-1.16,1.43v3.32l-1,0c0-.18.18-.26.26-.39s.15-.3-.08-.38a.62.62,0,0,0-.39-.14,15.63,15.63,0,0,1-2.46-.23,1,1,0,0,0-1.06.43c-.17.23-.38.43-.57.64l-1.62,0c-.06-.44-.07-.89-.17-1.32s0-.64-.15-.93c0-.79-.13-1.56-.19-2.34a6,6,0,0,1,.27-2.53,5.1,5.1,0,0,1,1-1.39.92.92,0,0,0,.33-.29c.52-.27,1-.64,1.52-.9a43.06,43.06,0,0,1,4.49-1.89,2.11,2.11,0,0,1,.54.22,6.56,6.56,0,0,0,1.48.6,10.67,10.67,0,0,0,3.27.44,16.69,16.69,0,0,1,2.91.29,31,31,0,0,1,3,.83c.58.16,1.16.34,1.75.48A13.18,13.18,0,0,0,72.78,56.94Z"/><path class="cls-4" d="M49.56,65.44l1.62,0a14,14,0,0,0-1,1.18c-.14.09-.26.2-.14.4l3.6.44c.4-.55.93-1,1.39-1.58a1,1,0,0,1,.44-.37l1,0a1.34,1.34,0,0,1,0,.84,3.17,3.17,0,0,0,.06,1.53c.06.34.32.42.59.42,1.08,0,2.15,0,3.22,0,.45,0,.61-.19.61-.63,0-.63,0-1.25,0-1.88l.84,0c.2.27.43-.08.64,0l.06.31c0,.24-.25.39-.35.6A.87.87,0,0,0,63,68.14c.7.61,1,.62,1.72.09a3.16,3.16,0,0,0,.32,0,1,1,0,0,0,.86-1.51v-.43a20.38,20.38,0,0,1,3,.34,17.2,17.2,0,0,1,3.27.73,4,4,0,0,1,.59.27.63.63,0,0,1,.36.71,8.46,8.46,0,0,1-2.36.81,41,41,0,0,1-4.26.68c-.92.1-1.85.16-2.76.26-1.19.14-2.39.14-3.57.28-.78.1-1.57,0-2.36.1-1.17.11-2.36.1-3.54.1-3,0-6,.15-8.93-.06-1.22-.09-2.43,0-3.65-.1-1.41-.09-2.82-.14-4.23-.22-1.19-.06-2.38-.23-3.58-.25a8.54,8.54,0,0,1-1.22-.12c-.9-.11-1.79-.26-2.69-.4a11.15,11.15,0,0,1-3.78-1.08c-.19-.32,0-.49.25-.65a3.39,3.39,0,0,1,1.22-.52,35.71,35.71,0,0,1,4.35-.78,14.38,14.38,0,0,1,2.07-.21c-.06.13-.07.29-.13.4-.16.34.07.66,0,1s0,.71.47.85a4.25,4.25,0,0,0,2.32,0,.45.45,0,0,0,.39-.5c0-.47,0-.93,0-1.4a.3.3,0,0,0-.2-.38c-.11-.05-.25,0-.34-.14,1.22-.15,2.45-.15,3.67-.23v.87c-.24,0-.53-.07-.67.2a2.15,2.15,0,0,0-.41,1c0,.46,0,.53.52.53H49a.72.72,0,0,0,.21,0c.21-.06.35-.17.21-.41A4.68,4.68,0,0,0,49,66.73h-.76a.29.29,0,0,0,0-.09l0-1.18Z"/><path class="cls-5" d="M26.24,68.37A11.15,11.15,0,0,0,30,69.45c.9.14,1.79.29,2.69.4a8.54,8.54,0,0,0,1.22.12c1.2,0,2.39.19,3.58.25,1.41.08,2.82.13,4.23.22,1.22.09,2.43,0,3.65.1,3,.21,6,.08,8.93.06,1.18,0,2.37,0,3.54-.1.79-.07,1.58,0,2.36-.1,1.18-.14,2.38-.14,3.57-.28.91-.1,1.84-.16,2.76-.26a41,41,0,0,0,4.26-.68,8.46,8.46,0,0,0,2.36-.81c0,1.06,0,1.06-1,1.41a19.37,19.37,0,0,1-3.91.86,2.48,2.48,0,0,0-.58.15,4.2,4.2,0,0,0,.09,1.54c.2,1.31.37,2.62.53,3.93a1.71,1.71,0,0,0,.09.3,14.32,14.32,0,0,0,.24,2.26,5.39,5.39,0,0,0,.15,1.44,2.51,2.51,0,0,0,.16,1c.08.71.14,1.42.26,2.13a10.56,10.56,0,0,0,.15,1.11.49.49,0,0,1-.33.64.49.49,0,0,1-.63-.43c-.19-.8-.35-1.6-.52-2.41-.09-.38-.16-.76-.24-1.15l-.55-2.6-.43-2-1.19-5.51H65c-1.06.09-2.12.24-3.2.24,0,0-.06,0-.09.06-.64,0-1.29.07-1.93.1-1.31,0-2.61.17-3.92.14-.79,0-1.59,0-2.38,0-.51,0-1,.08-1.57.12-.12,2.23-.27,4.45-.25,6.67A6.2,6.2,0,0,0,51.6,80c-.08,1-.12,2-.1,3v.61c0,.75-.16,1.49-.11,2.25a.49.49,0,0,1-.39.56c-.28.06-.49-.09-.62-.4a1.14,1.14,0,0,1-.06-.48l0-1.83c0-.19.05-.4-.09-.58a8.92,8.92,0,0,0-.1-2c0-1-.16-2.06-.13-3.09a.53.53,0,0,0,0-.16l-.07-1.37c.07-.76-.14-1.5-.09-2.25s-.13-1.71-.13-2.61H47.09c-.4,0-.79-.09-1.18-.09-1.52,0-3,0-4.56-.11-1.09,0-2.18-.17-3.27-.14h-.16a16.6,16.6,0,0,0-2.72-.2,1.92,1.92,0,0,0-1-.08.5.5,0,0,0-.15.31c-.2.81-.32,1.64-.49,2.46a17.56,17.56,0,0,0-.5,2.68,7.33,7.33,0,0,0-.33,1.53,3.21,3.21,0,0,0-.24,1A23.9,23.9,0,0,0,32,81.42l-.54,2.45c-.07.31-.14.63-.22.94a.46.46,0,0,1-.56.38.43.43,0,0,1-.39-.54c.08-.67.17-1.34.25-2,.06-.44.11-.89.17-1.33.19-1,.3-2.09.4-3.14l.21-1.59.7-5.76a9,9,0,0,0-1.66-.29,20.1,20.1,0,0,1-3.07-.71C26.24,69.46,26.24,69.44,26.24,68.37Z"/><path class="cls-6" d="M72.78,56.94a13.18,13.18,0,0,1-3.14-.23c-.59-.14-1.17-.32-1.75-.48a31,31,0,0,0-3-.83,16.69,16.69,0,0,0-2.91-.29,10.67,10.67,0,0,1-3.27-.44,6.56,6.56,0,0,1-1.48-.6,2.11,2.11,0,0,0-.54-.22,3.28,3.28,0,0,1,.51-1.45,4.09,4.09,0,0,0,.48-2.06,1.45,1.45,0,0,1,.77.14.36.36,0,0,0,.53-.14c1.34.23,2.69.39,4,.53A33.91,33.91,0,0,0,67.6,51a5.61,5.61,0,0,0,.9-.14,2.32,2.32,0,0,0,1.73-1.53A18.91,18.91,0,0,0,71,46.87a2.52,2.52,0,0,1,.12-.29,3.24,3.24,0,0,1,.17,1.24c.2,1.45.62,2.84,1,4.26.08.32.19.64.28,1l.48,2.5a6.85,6.85,0,0,0,.17,1.26A.46.46,0,0,1,72.78,56.94Z"/><path class="cls-1" d="M69.36,63.36a10.75,10.75,0,0,1,1.52-.49,6.44,6.44,0,0,0,1.49-.73c.64-.44.68-.92.11-1.45,0,0,0-.07,0-.14a4.64,4.64,0,0,1,1.35.36,17.23,17.23,0,0,1,2.43,1,2.88,2.88,0,0,1,.79.55c.26.28.2.5-.17.63a3.42,3.42,0,0,1-.88.21c-2.1.19-4.19.08-6.29.11A.46.46,0,0,1,69.36,63.36Z"/><path class="cls-5" d="M71.78,79a14.84,14.84,0,0,0,.1,1.76.92.92,0,0,1-.13.61.9.9,0,0,1-1.07-.09,7,7,0,0,1-.33-.91,13,13,0,0,0-.47-1.58c-.13-.77-.38-1.51-.58-2.26.75,0,1.49,0,2.24,0A22.93,22.93,0,0,0,71.78,79Z"/><path class="cls-8" d="M65.93,66.32v.43c-.11,0-.23,0-.16.19a.78.78,0,0,1,.06.37.43.43,0,0,1-.37.4.31.31,0,0,1-.39-.27c0-.24-.25-.32-.44-.43a.67.67,0,0,1-.35-.93c0-.08.17-.17,0-.27s-.18.16-.24.26c-.25.44-.32.43-.86.38a3.64,3.64,0,0,1-.68-.24l-.06-.31A1,1,0,0,1,63.2,65a1.76,1.76,0,0,1,1-.31c.1,0,.25,0,.3.08.21.39.6.44,1,.57a.59.59,0,0,1,.34.56C65.86,66.05,65.79,66.21,65.93,66.32Z"/><path class="cls-4" d="M53.12,50.46a5.77,5.77,0,0,0,1.38.23c0,.42.41.44.52.71.45-.26.66-.2.68.17a1.88,1.88,0,0,1-1.21,1.71,16.89,16.89,0,0,1-1.73.45,1.56,1.56,0,0,1-.57,0,7.65,7.65,0,0,0-1.55-.39c0-.22-.19-.18-.33-.2a7,7,0,0,0-1.89-.86c-2.18-.59-4.37-1.17-6.52-1.91a9.66,9.66,0,0,1-4.17-2.64,9.83,9.83,0,0,0-1.22-1.28c-.07-.28.16-.42.3-.59a8.7,8.7,0,0,1,2-2,2.06,2.06,0,0,1,1.08-.4,16.72,16.72,0,0,0,1,1.42,1,1,0,0,1,.26.52,5.61,5.61,0,0,0-1,.66c.2.31.28.68.57.9a9.09,9.09,0,0,1,1.3-.53.57.57,0,0,1,0,.82c-.38.52-.84.16-1.32,0a1,1,0,0,0,1,.49A.8.8,0,0,0,42.3,47a3.87,3.87,0,0,0,0-.48l.27,0c.07.16.23.21.37.28,2.25,1.09,4.43,2.3,6.64,3.47a1.34,1.34,0,0,0,.76.23h2.81Zm.43,1c0,.07-.11.14-.09.19a2.7,2.7,0,0,1,0,1.13,3,3,0,0,0,.14-1.31c-.23-.23-.47-.16-.7,0C53.15,51.48,53.35,51.39,53.55,51.45Zm-2.38,0a.76.76,0,0,0-.9-.27,2.84,2.84,0,0,0,.9.27.41.41,0,0,0,.21.36,2.34,2.34,0,0,1,.93,1c0,.06.12,0,.2-.06A2.6,2.6,0,0,0,51.17,51.43ZM54,53.27c.45-.56.49-2.22.18-2.31l-.42.25C54.29,51.36,54.32,51.61,54,53.27Z"/><path class="cls-8" d="M42,46.43a9.09,9.09,0,0,0-1.3.53c-.29-.22-.37-.59-.57-.9a5.61,5.61,0,0,1,1-.66c.41-.06.51.33.74.54,0,.05.1.1.12.07.41-.48,1-.87,1-1.59.46.24.61.88,1.24.93.1,0,.28.26.27.48A.53.53,0,0,0,44,46c.22.07.39,0,.48-.17.28-.06.56.26.87,0a1.72,1.72,0,0,1-.11-.64l.63.11c.25.17.24.45.27.68a10.38,10.38,0,0,0,1.46.59.84.84,0,0,1,.47.23l-.23.44A15,15,0,0,0,45.25,47a3.5,3.5,0,0,1-1.82-.51.72.72,0,0,0-.46-.12l-.18-.17c0-.21.22-.34.11-.61-.35.12-.58.28-.58.67a.25.25,0,0,0-.12.16Z"/><path class="cls-8" d="M48.14,44.85l.06.54h-.38a1.48,1.48,0,0,0-1-.32c-.18-.18-.35-.11-.51,0s-.2.21-.36.18a11.36,11.36,0,0,0-2.59-1c-.17,0-.33,0-.42-.22a.85.85,0,0,0,.09-.43.35.35,0,0,1,.31-.19,5.27,5.27,0,0,1,3.07.86,1.81,1.81,0,0,0,1.33.41A.62.62,0,0,1,48.14,44.85Z"/><path class="cls-13" d="M43.08,43.67a.85.85,0,0,1-.09.43c.09.22.25.21.42.22,0,.26.23.23.37.29.48.2,1,.33,1.46.57a1.72,1.72,0,0,0,.11.64c-.31.27-.59,0-.87,0h0c0-.22-.17-.47-.27-.48-.63-.05-.78-.69-1.24-.93h-.1a.67.67,0,0,1,.11-.76Z"/><path class="cls-8" d="M43,43.67a.67.67,0,0,0-.11.76,2.05,2.05,0,0,1-.75,1,.93.93,0,0,1-.2-1.24c.25-.52.47-.66.94-.59C42.9,43.58,42.94,43.63,43,43.67Z"/><path class="cls-9" d="M42.12,45.4a2.05,2.05,0,0,0,.75-1H43c0,.72-.55,1.11-1,1.59,0,0-.09,0-.12-.07S42.11,45.6,42.12,45.4Z"/><path class="cls-13" d="M65.06,29.38c-.4.24-.66.64-1.06.88a4.29,4.29,0,0,1-1.72.65c0-.21.2-.23.35-.29a1.67,1.67,0,0,0,1.16-1.73V27.06c.9-.09,1.31-.82,1.85-1.4l.2-.06a.4.4,0,0,1-.14.34,14.1,14.1,0,0,1-1.25,1.31c-.07.66.14,1.28.11,2a1,1,0,0,0,.53-.43c.18-.22.26-.51.52-.66h0a1.39,1.39,0,0,1-.32.78A2.05,2.05,0,0,0,65.06,29.38Z"/><path class="cls-5" d="M66.16,26.3c.11-.31.32-.36.63-.18l-.62.19Z"/><path class="cls-5" d="M66.17,26.31a4.81,4.81,0,0,1-.15.87.78.78,0,0,1,.14-.88Z"/><path class="cls-13" d="M65.61,28.13l0-.16c.12.08,0,.13,0,.17Z"/><path class="cls-4" d="M63.15,24.46c.09,0,.18,0,.23.1l0,0c-.09,0-.18,0-.21-.11Z"/><path class="cls-7" d="M63.14,24.48c0,.1.12.1.21.11a3.07,3.07,0,0,1,.26.25.53.53,0,0,1,0,.19c-.49-.38-1.06-.16-1.6-.23C62.3,24.3,62.75,24.52,63.14,24.48Z"/><path class="cls-7" d="M62.54,25.55c.36.29.36.4.06.81C62.2,26.05,62.18,25.89,62.54,25.55Z"/><path class="cls-7" d="M59.87,26.29c-.32-.44-.32-.46,0-.81C60.28,25.78,60.29,25.94,59.87,26.29Z"/><path class="cls-5" d="M60.87,26.76h-.22a3.5,3.5,0,0,1,.29-1.06C61.09,26.09,60.89,26.42,60.87,26.76Z"/><path class="cls-5" d="M18.87,76.57c-.09.81-.45,1.55-.57,2.35-.16.53-.31,1.06-.47,1.59a2.07,2.07,0,0,1-.46,1c-.28,0-.56.08-.82-.1s-.24-.73-.19-1.1a11,11,0,0,0,.09-1.27c.15-.52.08-1.06.19-1.59a8.65,8.65,0,0,0,.1-.89A16.82,16.82,0,0,1,18.87,76.57Z"/><path class="cls-13" d="M37.14,66.53c0,.47,0,.93,0,1.4a.45.45,0,0,1-.39.5,4.25,4.25,0,0,1-2.32,0c-.48-.14-.61-.36-.47-.85s-.14-.66,0-1c.06-.11.07-.27.13-.4h.11c0,.22,0,.44.26.49a4.17,4.17,0,0,0,1,.13A15,15,0,0,0,37.14,66.53Z"/><path class="cls-8" d="M37.14,66.53a15,15,0,0,1-1.6.31,4.17,4.17,0,0,1-1-.13c-.28,0-.28-.27-.26-.49A3.22,3.22,0,0,1,35.1,66l1.5,0c.09.12.23.09.34.14A.3.3,0,0,1,37.14,66.53Z"/><path class="cls-1" d="M36.51,46.46a9.83,9.83,0,0,1,1.22,1.28,9.66,9.66,0,0,0,4.17,2.64c2.15.74,4.34,1.32,6.52,1.91a7,7,0,0,1,1.89.86v3.78a5.1,5.1,0,0,0-1,1.39,6,6,0,0,0-.27,2.53c.06.78.19,1.55.19,2.34h-.83c-.08-.19.05-.42-.15-.63h-.64c0-.61,0-1.23,0-1.83a16.49,16.49,0,0,0-.18-1.86,3.89,3.89,0,0,0-1.59-2.58,15.37,15.37,0,0,0-4.68-2.08,3,3,0,0,0-.76-1.08,2.8,2.8,0,0,0-2.73-1.06,6.13,6.13,0,0,1-1.48.13,15.89,15.89,0,0,1-.69-2.12,4.62,4.62,0,0,1-.17-1.38c0-.36-.15-.7-.1-1.06a8.66,8.66,0,0,0,.1-1.46C35.76,46.22,36,46.85,36.51,46.46Z"/><path class="cls-4" d="M36.18,52.19a6.13,6.13,0,0,0,1.48-.13,2.8,2.8,0,0,1,2.73,1.06,3,3,0,0,1,.76,1.08l-.11.26c-.15,0-.22,0-.22.2a2.4,2.4,0,0,0-.74.1.65.65,0,0,1-.52-.06l-.79-.31a1.68,1.68,0,0,0-1.3,0,4.73,4.73,0,0,1-1.93.4,4.46,4.46,0,0,1-.73-.13,8.67,8.67,0,0,0-1.76-.1,4.31,4.31,0,0,0-.79-.12c-.5,0-1-.06-1.49-.12-.89-.11-1.78-.27-2.68-.4a17.11,17.11,0,0,1-3.25-.78,2.3,2.3,0,0,1-1.41-1.23c-.15-.33-.26-.67-.42-1s-.25-1-.53-1.44c0-.44-.3-.82-.37-1.25a3.8,3.8,0,0,1-.06-.58,12.9,12.9,0,0,0,4.23-.85,2.55,2.55,0,0,1,.29.91c.12.46.26.92.39,1.38a1,1,0,0,0,.68.7c1.56.57,3.11,1.14,4.67,1.69a23.7,23.7,0,0,0,2.59.84A2.14,2.14,0,0,0,36.18,52.19Zm4.42,1.94c0-.05,0-.13-.08-.15a.12.12,0,0,0,.08.15c0,.08,0,.18.14.17l0,0C40.78,54.14,40.69,54.14,40.6,54.13ZM39.74,54a.08.08,0,0,0,0,0h0l0-.06a1.07,1.07,0,0,0-1.13-.47A4.16,4.16,0,0,0,39.74,54Zm.32-.43s0,0,0,0h0l-.06,0c-.25-.52-.77-.49-1.23-.59A7.73,7.73,0,0,0,40.06,53.59Z"/><path class="cls-4" d="M26.13,34.66a2.54,2.54,0,0,0,.51-1.5,13.66,13.66,0,0,0,.16-2.31,1.15,1.15,0,0,0-.12-.57,1.43,1.43,0,0,1-1.31-1.6.92.92,0,0,1,.64-1c.35-.09.6,0,.9.51,0,0,0,.05.09.11.46-.61,1.22-.66,1.79-1,.23.05,0,.2.16.3a2,2,0,0,1,1.42,0c-.13-.61-.61-.39-1-.51a7.18,7.18,0,0,0,2.46-2.47,3.1,3.1,0,0,1,1.27,2,10.2,10.2,0,0,1,0,2.14c-.16.5-.09,1-.22,1.53a.78.78,0,0,0-.2.38A10.51,10.51,0,0,1,32,32.1a1.79,1.79,0,0,1-1.58,1,4.66,4.66,0,0,1-1-.21,7.63,7.63,0,0,1-1-.47c-.3-.15-.43-.55-.85-.61A3.48,3.48,0,0,0,28.48,33a2.9,2.9,0,0,0,2,.86c.07.25,0,.55.24.75a2.39,2.39,0,0,1,0,1.16,1.23,1.23,0,0,1-1.52.86,4.43,4.43,0,0,1-2.35-1.2C26.58,35.19,26.16,35.1,26.13,34.66Zm5.05-6.23a1.88,1.88,0,0,0,0,1,.45.45,0,0,1-.3.68c.53.14.67.09.67-.25A4.57,4.57,0,0,0,31.18,28.43Zm-4.6,1.18c-.23-.3.08-.59-.08-.88a.5.5,0,0,0-.74-.25c.49.18.49.18.5.71a1.74,1.74,0,0,0,0,.32C26.29,29.62,26.38,29.64,26.58,29.61Zm3.27,1.07a.94.94,0,0,0,1,.59c.21,0,.46.06.56-.34A1.59,1.59,0,0,1,29.85,30.68Zm1.84-3.05c.46.13.87-.11,1.3.23C32.61,27.24,32.25,27.18,31.69,27.63Zm.65.7c-.36.1-.39.3-.29.55a.18.18,0,0,0,.26.11C32.58,28.81,32.44,28.59,32.34,28.33ZM29.73,29a.51.51,0,0,0,.07-.77C29.42,28.49,29.41,28.59,29.73,29Z"/><path class="cls-7" d="M30.4,33.13a1.79,1.79,0,0,0,1.58-1,10.51,10.51,0,0,0,.64-1.41.78.78,0,0,1,.2-.38,7.34,7.34,0,0,0,.49,2.74,4.7,4.7,0,0,1,.24,2.38A12.62,12.62,0,0,1,32.08,35c-.47-.1-.92-.28-1.4-.34-.22-.2-.17-.5-.24-.75S30.31,33.38,30.4,33.13Z"/><path class="cls-10" d="M22.48,49.49c.28.44.28,1,.53,1.44s.27.65.42,1a2.3,2.3,0,0,0,1.41,1.23,17.11,17.11,0,0,0,3.25.78c.9.13,1.79.29,2.68.4.49.06,1,.07,1.49.12a4.31,4.31,0,0,1,.79.12,4.75,4.75,0,0,1-1.28.29c-1.19.24-2.35.56-3.53.82a33.1,33.1,0,0,1-3.84.65c-.87.09-1.71,0-2.56,0l-.43-.18A7.74,7.74,0,0,1,21.66,54c.25-1.14.45-2.28.7-3.43C22.43,50.2,22.29,49.83,22.48,49.49Z"/><path class="cls-13" d="M45.45,65.57a20.34,20.34,0,0,0-.09-2.34,10.31,10.31,0,0,1,1.47,0l0,.09v2.36c0,.33-.14.66,0,1-.08.25.14.59-.22.76V63.91a1.27,1.27,0,0,0-.55-.07c-.3,0-.42.11-.42.41,0,.92,0,1.83,0,2.74a.46.46,0,0,0,.61.47,1.51,1.51,0,0,1,.36-.06c-.22.37-.56.23-.86.16s-.35-.32-.32-.6c0-.11,0-.21,0-.32Z"/><path class="cls-5" d="M43,63.28a1,1,0,0,1-.31-1,.42.42,0,0,1,.44-.24h1.47c0,.44.24.88-.25,1.22h-.16c-.36-.08-.72.09-1.09,0A.12.12,0,0,0,43,63.28Z"/><path class="cls-15" d="M40.06,62.86c0-.9-.08-.86.88-.86h1c.17.29.07.58.1.85Z"/><path class="cls-13" d="M40.29,67.34V63.19l1.39,0c0,.88,0,1.76.08,2.64a1.92,1.92,0,0,1-.07,1h-.11a4.3,4.3,0,0,0-.11-1.25h-.64c-.1-.24-.22-.39-.37-.37C40.27,65.91,40.52,66.72,40.29,67.34Z"/><path class="cls-6" d="M45.24,62.86c0-.92,0-.86.84-.85h.76c.21.16,0,.44.24.55l-.21.31Z"/><path class="cls-4" d="M41.77,65.66H43v1H41.78A1.22,1.22,0,0,1,41.77,65.66Z"/><path class="cls-4" d="M45.45,65.57v1.07H44.38V65.58Z"/><path class="cls-4" d="M46.87,62.87l.21-.31h1.18c.2.21.07.44.15.63l0,.11H46.86l0-.09Z"/><path class="cls-13" d="M44.37,65.58v1.07c-.05.31.13.7-.32.87l0,0a2.27,2.27,0,0,0,.12-.78c0-1.16,0-2.31,0-3.47h.16C44.41,64,44.33,64.8,44.37,65.58Z"/><path class="cls-1" d="M40.29,65c.23-.28,0-.63.16-.93a.47.47,0,0,1,.37.16c-.1,0-.22,0-.33.14v2.32c0,.56,0,.62.65.8v.11c-.72,0-.84-.11-.86-.81a.86.86,0,0,0,0-.16v-.87Z"/><path class="cls-13" d="M43,66.65v-1l0-2.38a.12.12,0,0,1,.1,0c-.06,1.21.15,2.42.11,3.64a.43.43,0,0,0,0,.16.44.44,0,0,0,.42.41,3.09,3.09,0,0,0,.43,0l0,0c-.78.27-1.08.08-1.09-.72C43,66.75,43,66.7,43,66.65Z"/><path class="cls-2" d="M41.67,63.2H40.28a.31.31,0,0,1-.22-.33H42C42,63.09,41.81,63.11,41.67,63.2Z"/><path class="cls-14" d="M46.87,62.87l0,.33a10.31,10.31,0,0,0-1.47,0c0-.12-.14-.22-.12-.37Z"/><path class="cls-13" d="M41.77,65.66a1.22,1.22,0,0,0,0,1c0,.28.1.63-.31.75a13,13,0,0,0,.09-2.16h.13C41.82,65.35,41.75,65.51,41.77,65.66Z"/><path class="cls-1" d="M41.69,65.24h-.13a.28.28,0,0,1,0-.43h.11Z"/><path class="cls-5" d="M40.82,54.66c0-.15.07-.21.22-.2S41,54.68,40.82,54.66Z"/><path class="cls-8" d="M44.48,83v.53a3.08,3.08,0,0,1-2,.39,15.55,15.55,0,0,1-6.5-2l0-.27a4.69,4.69,0,0,1,.21-1.44c0-.12.09-.18.21-.18a6.21,6.21,0,0,0,2,1.28,5.12,5.12,0,0,0,1.6.54,1.15,1.15,0,0,1,.66-1.29,1.19,1.19,0,0,1,.86.33l1.45,1h0l0,0h0A18.2,18.2,0,0,0,44.48,83Z"/><path class="cls-8" d="M61.74,81.09v.85a7.67,7.67,0,0,1-.84.46,17.77,17.77,0,0,1-4.58,1.36,4.94,4.94,0,0,1-3.1-.29v-.12a5.52,5.52,0,0,1,.66-.85H54c.58-.49,1.28-.81,1.86-1.29.21-.17.56-.19.62-.53.23,0,.41-.15.64-.12a1.18,1.18,0,0,1,.62.5c.13.25,0,.51,0,.8A7.81,7.81,0,0,0,59.93,81a3.68,3.68,0,0,0,1.37-1c.14,0,.2.09.23.24S61.67,80.81,61.74,81.09Z"/><path class="cls-7" d="M36,81.91a15.55,15.55,0,0,0,6.5,2,3.08,3.08,0,0,0,2-.39c.3.11.13.28,0,.4a1.37,1.37,0,0,1-.84.43,6.36,6.36,0,0,1-2,.08,18.13,18.13,0,0,1-4.9-1.31C36.05,82.8,36,82.65,36,81.91Z"/><path class="cls-7" d="M53.22,83.47a4.94,4.94,0,0,0,3.1.29A17.77,17.77,0,0,0,60.9,82.4a7.67,7.67,0,0,0,.84-.46,1,1,0,0,1-.61,1.12A17.33,17.33,0,0,1,55,84.42a3.2,3.2,0,0,1-1.36-.29A.58.58,0,0,1,53.22,83.47Z"/><path class="cls-7" d="M44.48,83A18.2,18.2,0,0,1,43,81.85a1.56,1.56,0,0,1,.53.1,16.32,16.32,0,0,0,4.37.83.55.55,0,0,1,.31.07,2.91,2.91,0,0,0,2,.35c.14.18.08.39.09.58a3.92,3.92,0,0,1-1.94-.31,2.73,2.73,0,0,0-1.07-.09A14.62,14.62,0,0,1,44.74,83,.39.39,0,0,0,44.48,83Z"/><path class="cls-7" d="M53.87,82.5a5.52,5.52,0,0,0-.66.85,16.64,16.64,0,0,1-1.71.33v-.61A21,21,0,0,0,53.87,82.5Z"/><path class="cls-6" d="M47.82,45.38h.38c.4.12.8.23,1.19.37a1,1,0,0,1,.49.28.36.36,0,0,0-.46.27c-.06.23-.22.45-.18.71-.41,0-.76-.25-1.17-.23a.84.84,0,0,0-.47-.23A10.38,10.38,0,0,1,46.14,46c0-.23,0-.51-.27-.68H46c.16,0,.26-.08.36-.18s.33-.22.51,0a1.1,1.1,0,0,0,.08.66Z"/><path class="cls-13" d="M53.33,47l.76.22v.3a6.62,6.62,0,0,0-1.66-.2c-.65,0-.7,0-.94.64h-.09c-.13-.14-.11-.33-.19-.52-.27,0-.52-.18-.82-.12a.9.9,0,0,0-.22.42c-.1,0-.18,0-.21-.13s-.1-.24-.11-.38c.21-.14.21-.37.28-.58s.12-.47-.14-.63h.43a.79.79,0,0,0,.2-.31.36.36,0,0,1,.22-.2c.19.18.06.34,0,.5a.31.31,0,0,0,.2.43l2,.65A.21.21,0,0,0,53.33,47Z"/><path class="cls-2" d="M50,46c.26.16.24.37.14.63s-.07.44-.28.58a1.72,1.72,0,0,1-.62-.23c0-.26.12-.48.18-.71a.36.36,0,0,1,.46-.27Z"/><path class="cls-1" d="M50.64,53.35a7.65,7.65,0,0,1,1.55.39,1.56,1.56,0,0,0,.57,0,16.89,16.89,0,0,0,1.73-.45,1.88,1.88,0,0,0,1.21-1.71c0-.37-.23-.43-.68-.17-.11-.27-.57-.29-.52-.71a10.82,10.82,0,0,0,2.71-.39c.15,0,.3-.11.43,0a4.09,4.09,0,0,1-.48,2.06,3.28,3.28,0,0,0-.51,1.45,43.06,43.06,0,0,0-4.49,1.89c-.54.26-1,.63-1.52.9Z"/><path class="cls-1" d="M51.41,48h.09a11.84,11.84,0,0,0,2,.39,5.36,5.36,0,0,1-1.91-.15c-.14.29.07.41.24.52a2.86,2.86,0,0,0,1.28.33,2.05,2.05,0,0,1,.54,0c-.22.16-.22.16-1.42,0-.12.24,0,.36.23.43a2.92,2.92,0,0,0,1.13.3c.09,0,.22,0,.27.14-.25.16-.5,0-.74,0-.19.19.06.34,0,.51H50.63c.07-.86-.16-1.7-.1-2.56C50.83,47.87,51.1,48.17,51.41,48Z"/><path class="cls-12" d="M54.1,47.53v-.3a.63.63,0,0,1,.62.23C54.51,47.6,54.3,47.53,54.1,47.53Z"/><path class="cls-5" d="M29.49,26.3a.85.85,0,0,1-.52.56l0-.05c.14-.23.27-.46.57-.51Z"/><path class="cls-5" d="M29.6,26.08c0,.1,0,.18-.11.22h0a.18.18,0,0,1,.11-.21Z"/><path class="cls-5" d="M28.63,27.06a.17.17,0,0,1,.19-.13l0,0a.18.18,0,0,1-.22.1Z"/><path class="cls-12" d="M23.67,30.51l0-.08a.09.09,0,0,1,0,.05s0,0-.08,0Z"/><path class="cls-5" d="M28.63,27.06s0,.1,0,.08,0-.06,0-.08Z"/><path class="cls-5" d="M29.6,26.09s0,0,0,0l0,0Z"/><path class="cls-5" d="M29,26.86a.14.14,0,0,1-.12.1l0,0,.1-.12Z"/><path class="cls-9" d="M56.57,67.94a3.17,3.17,0,0,1-.06-1.53,1.34,1.34,0,0,0,0-.84V62.25c0-.92.25-1.24,1.16-1.43.14,0,.24-.07.25-.22a1.46,1.46,0,0,1,.63.08c-.06.65.12,1.3.11,2H57V65.7h2.78a1.9,1.9,0,0,1-1.22,1.88A4.27,4.27,0,0,1,56.57,67.94Z"/><path class="cls-8" d="M50.19,66.64a14,14,0,0,1,1-1.18c.19-.21.4-.41.57-.64a1,1,0,0,1,1.06-.43,15.63,15.63,0,0,0,2.46.23.62.62,0,0,1,.39.14l-2.07,2.32a3.5,3.5,0,0,0-.52-.11c-.89,0-1.76-.24-2.65-.22A.25.25,0,0,1,50.19,66.64Zm2.53-.3a1.25,1.25,0,0,0,1-.38.5.5,0,0,0-.14-.87,1.3,1.3,0,0,0-1.49.52.43.43,0,0,0,.28.69A2.33,2.33,0,0,0,52.72,66.34Z"/><path class="cls-6" d="M56.57,67.94a4.27,4.27,0,0,0,2-.36,1.9,1.9,0,0,0,1.22-1.88c.2-.06.43.06.65-.14V64.27c.19,0,.34-.1.53-.11v1.7c0,.63,0,1.25,0,1.88,0,.44-.16.62-.61.63-1.07,0-2.14,0-3.22,0C56.89,68.36,56.63,68.28,56.57,67.94Z"/><path class="cls-13" d="M58.61,62.65c0-.67-.17-1.32-.11-2a1.46,1.46,0,0,0-.63-.08c-.27-.74-.14-1.14.54-1.74V58.3a2.62,2.62,0,0,0-1.77-.08c-.15-.26,0-.37.21-.41a5.54,5.54,0,0,1,1.22-.11,11.85,11.85,0,0,1,1.46,0c.16.38,0,.55-.34.56a1.67,1.67,0,0,0,0,.67c.66.28.55.91.6,1.48,0,.09-.08.15-.16.2s-.43-.07-.65.09v1.95Z"/><path class="cls-9" d="M58.94,62.65V60.7c.22-.16.44-.08.65-.09.07.17.23.18.39.21.75.14,1,.45,1,1.2v2.14c-.19,0-.34.15-.53.11a12.94,12.94,0,0,0-.07-1.62Z"/><path class="cls-3" d="M48.37,63.29l0-.11h.83c.18.29.08.62.15.93s.11.88.17,1.32l-1.29,0,0-1.79A.41.41,0,0,0,48.37,63.29Z"/><path class="cls-9" d="M50.19,66.64a.25.25,0,0,0,.23.11c.89,0,1.76.17,2.65.22a3.5,3.5,0,0,1,.52.11l2.07-2.32c.23.08.19.23.08.38s-.25.21-.26.39a1,1,0,0,0-.44.37c-.46.55-1,1-1.39,1.58L50.05,67C49.93,66.84,50.05,66.73,50.19,66.64Z"/><path class="cls-3" d="M50.64,53.35v3.29a.92.92,0,0,1-.33.29V53.15C50.45,53.17,50.62,53.13,50.64,53.35Z"/><path class="cls-16" d="M41.47,67.4c.41-.12.27-.47.31-.75H43s0,.1,0,.15c0,.8.31,1,1.09.72.45-.17.27-.56.32-.87h1.07c0,.11,0,.21,0,.32,0,.28,0,.52.32.6s.64.21.86-.16h0c.36-.17.14-.51.22-.76H47l0,.42c0,.2,0,.38.23.45a1.08,1.08,0,0,0,.71.1A.13.13,0,0,0,48,67.5h0c.37-.17.16-.51.23-.77H49a4.68,4.68,0,0,1,.41,1.21q-1.42,0-2.85-.09c-1.65-.08-3.3,0-5,0-.3,0-.57.18-.85.1a8.6,8.6,0,0,0-1.6-.1,2.15,2.15,0,0,1,.41-1c.14-.27.43-.19.67-.2a.86.86,0,0,1,0,.16c0,.7.14.81.86.81.09,0,.19,0,.22-.12h0c.07,0,.12,0,.12-.11Z"/><path class="cls-14" d="M39.19,67.82a8.6,8.6,0,0,1,1.6.1c.28.08.55-.1.85-.1,1.65,0,3.3,0,5,0q1.42.06,2.85.09c.14.24,0,.35-.21.41a.72.72,0,0,1-.21,0H39.71C39.23,68.35,39.17,68.28,39.19,67.82Z"/><path class="cls-17" d="M47,67.06l0-.42v-1l0-1.91,1.27-.07,0,1.79,0,1.18-.22,0a2.38,2.38,0,0,0-.84,0l-.07.37Z"/><path class="cls-13" d="M62.54,66.21a3.64,3.64,0,0,0,.68.24c.54,0,.61.06.86-.38.06-.1.09-.24.24-.26s0,.19,0,.27a.67.67,0,0,0,.35.93c.19.11.39.19.44.43a.31.31,0,0,0,.39.27.43.43,0,0,0,.37-.4.78.78,0,0,0-.06-.37c-.07-.15,0-.18.16-.19a1,1,0,0,1-.86,1.51,3.16,3.16,0,0,1-.32,0c-.05-.22.1-.41.1-.61-.22-.45-.73-.57-1-1-.57.14-.57.14-1.09.69a3.06,3.06,0,0,1,.22.8.87.87,0,0,1-.85-1.33C62.29,66.6,62.5,66.45,62.54,66.21Z"/><path class="cls-8" d="M63,68.14a3.06,3.06,0,0,0-.22-.8c.52-.55.52-.55,1.09-.69.22.4.73.52,1,1,0,.2-.15.39-.1.61C64.07,68.76,63.74,68.75,63,68.14Z"/><path class="cls-12" d="M48,66.66l.22,0a.29.29,0,0,1,0,.09c-.07.26.14.6-.23.77Z"/><path class="cls-11" d="M36.51,78.84l-.7-.27c-.12-.15,0-.35-.1-.51a15,15,0,0,0-.17-1.5c0-.41-.07-.82-.1-1.23-.11-1.38-.17-2.77-.24-4.16a16.6,16.6,0,0,1,2.72.2h.16c1.09,0,2.18.1,3.27.14,1.52.06,3,.07,4.56.11.39,0,.78.08,1.18.09-.05.65-.09,1.32-.16,2-.09,1-.25,1.91-.28,2.88a11,11,0,0,0-.21,1.28c0,.26-.21.34-.4.42s-.29,0-.38.13a6.29,6.29,0,0,0-1.37.11,21.5,21.5,0,0,1-2.27-.2c-.18-.22-.52-.13-.7-.36l0-1.38a10.68,10.68,0,0,0,.09-2.4,15,15,0,0,0-.38,2.4c-.13.45-.12.93-.22,1.39s-.12.89-.67,1a4.76,4.76,0,0,0-1.06.1A17.29,17.29,0,0,1,36.51,78.84Z"/><path class="cls-14" d="M61.69,78.38c0,.34-.26.43-.51.52a15.23,15.23,0,0,1-3.63.24c-.06,0-.11-.1-.17-.11-.39,0-.51-.31-.56-.66-.09-.54-.2-1.07-.32-1.72a17.63,17.63,0,0,0,0,1.87c-.12.17-.31.17-.42.28l-.42.08a10.87,10.87,0,0,1-2.12.26,10.35,10.35,0,0,0-1.12-.09c-.31-.12-.64-.23-.68-.64,0-2.22.13-4.44.25-6.67.55,0,1.06-.1,1.57-.12.79,0,1.59,0,2.38,0,1.31,0,2.61-.1,3.92-.14.64,0,1.29-.08,1.93-.1l0,5.2Z"/><path class="cls-3" d="M61.76,76.57c0-1.74,0-3.47,0-5.2,0,0,.06-.06.09-.06,1.08,0,2.14-.15,3.2-.24h.46l1.19,5.51Z"/><path class="cls-13" d="M50.2,83.2a2.91,2.91,0,0,1-2-.35.55.55,0,0,0-.31-.07A16.32,16.32,0,0,1,43.5,82a1.56,1.56,0,0,0-.53-.1h0s0,0-.07,0l-1.45-1a3,3,0,0,0,.23-.94c0-.21,0-.5.32-.57A8.43,8.43,0,0,0,45.71,81a1.18,1.18,0,0,1,.43-1.31.89.89,0,0,1,.54.19c.89.57,1.84,1,2.71,1.67.26-.12.4-.43.71-.36A8.92,8.92,0,0,1,50.2,83.2Z"/><path class="cls-3" d="M46.65,76.57c0-1,.19-1.92.28-2.88.07-.65.11-1.32.16-2h2.55c0,.9.17,1.75.13,2.61s.16,1.49.09,2.25a11.62,11.62,0,0,0-2-.13C47.48,76.44,47.07,76.61,46.65,76.57Z"/><path class="cls-3" d="M35.2,71.17c.07,1.39.13,2.78.24,4.16,0,.41.1.82.1,1.23l-2.51,0a17.56,17.56,0,0,1,.5-2.68c.17-.82.29-1.65.49-2.46a.5.5,0,0,1,.15-.31A1.92,1.92,0,0,1,35.2,71.17Z"/><path class="cls-13" d="M53.87,82.5a21,21,0,0,1-2.37.57c0-1,0-2,.1-3h.33c.43.3.74.66.55,1.23a7.63,7.63,0,0,0,3.66-1.67,1.32,1.32,0,0,1,.32,1.09c-.06.34-.41.36-.62.53-.58.48-1.28.8-1.86,1.29Z"/><path class="cls-1" d="M50,47.63c0,.11.11.13.21.13a.22.22,0,0,1,0,.1c-.09.87.11,1.73.1,2.6a1.34,1.34,0,0,1-.76-.23c-2.21-1.17-4.39-2.38-6.64-3.47-.14-.07-.3-.12-.37-.28h0a.57.57,0,0,0,.42-.11.72.72,0,0,1,.46.12,3.5,3.5,0,0,0,1.82.51,15,15,0,0,1,2.59.24,7.64,7.64,0,0,0,1.25.32A1.65,1.65,0,0,0,50,47.63Z"/><path class="cls-3" d="M50.31,50.46c0-.87-.19-1.73-.1-2.6l.32,0c-.06.86.17,1.7.1,2.56Z"/><path class="cls-7" d="M42,46.43l.16,0c0,.05,0,.08.07.11a3.87,3.87,0,0,1,0,.48.8.8,0,0,1-.56.71,1,1,0,0,1-1-.49c.48.19.94.55,1.32,0A.57.57,0,0,0,42,46.43Z"/><path class="cls-5" d="M54,53.27c.34-1.66.31-1.91-.24-2.06l.42-.25C54.47,51.05,54.43,52.71,54,53.27Z"/><path class="cls-5" d="M51.17,51.43a2.6,2.6,0,0,1,1.34,1.29c-.08.08-.18.12-.2.06a2.34,2.34,0,0,0-.93-1,.41.41,0,0,1-.21-.36Z"/><path class="cls-5" d="M53.65,51.46a3,3,0,0,1-.14,1.31,2.7,2.7,0,0,0,0-1.13s.06-.12.09-.19h.1Z"/><path class="cls-5" d="M51.17,51.43a2.84,2.84,0,0,1-.9-.27.76.76,0,0,1,.9.27Z"/><path class="cls-3" d="M53.65,51.46h-.1c-.2-.06-.4,0-.6,0C53.18,51.3,53.42,51.23,53.65,51.46Z"/><path class="cls-1" d="M42.27,46.52s-.08-.06-.07-.11a.25.25,0,0,1,.12-.16.2.2,0,0,1,.23.22h0Z"/><path class="cls-4" d="M50,47.63a1.65,1.65,0,0,1-.88-.08,7.64,7.64,0,0,1-1.25-.32l.23-.44c.41,0,.76.28,1.17.23a1.72,1.72,0,0,0,.62.23C49.87,47.39,50,47.49,50,47.63Z"/><path class="cls-12" d="M46,45.28h-.13l-.63-.11c-.47-.24-1-.37-1.46-.57-.14-.06-.38,0-.37-.29A11.36,11.36,0,0,1,46,45.28Z"/><path class="cls-13" d="M42.55,46.47a.2.2,0,0,0-.23-.22c0-.39.23-.55.58-.67.11.27-.15.4-.11.61l.18.17A.57.57,0,0,1,42.55,46.47Z"/><path class="cls-13" d="M44.48,45.83c-.09.22-.26.24-.48.17a.53.53,0,0,1,.48-.17Z"/><path class="cls-9" d="M47.82,45.38l-.87.34a1.1,1.1,0,0,1-.08-.66A1.48,1.48,0,0,1,47.82,45.38Z"/><path class="cls-5" d="M40.06,53.59A7.73,7.73,0,0,1,38.83,53c.46.1,1,.07,1.23.59Z"/><path class="cls-5" d="M39.74,54a4.16,4.16,0,0,1-1.13-.47,1.07,1.07,0,0,1,1.13.47Z"/><path class="cls-5" d="M40.6,54.13c.09,0,.18,0,.17.14l0,0c-.13,0-.13-.09-.14-.17Z"/><path class="cls-5" d="M40.6,54.13a.12.12,0,0,1-.08-.15c.11,0,.07.1.08.15Z"/><path class="cls-5" d="M40.06,53.59l.06,0h0s0,0,0,0Z"/><path class="cls-5" d="M39.74,54l0,.06h0a.08.08,0,0,1,0,0Z"/><path class="cls-5" d="M30.4,33.13c-.09.25.1.48,0,.73a2.9,2.9,0,0,1-2-.86,3.48,3.48,0,0,1-.93-1.16c.42.06.55.46.85.61a7.63,7.63,0,0,0,1,.47A4.66,4.66,0,0,0,30.4,33.13Z"/><path class="cls-5" d="M31.18,28.43a4.57,4.57,0,0,1,.35,1.4c0,.34-.14.39-.67.25a.45.45,0,0,0,.3-.68A1.88,1.88,0,0,1,31.18,28.43Z"/><path class="cls-5" d="M26.58,29.61c-.2,0-.29,0-.31-.1a1.74,1.74,0,0,1,0-.32c0-.53,0-.53-.5-.71a.5.5,0,0,1,.74.25C26.66,29,26.35,29.31,26.58,29.61Z"/><path class="cls-5" d="M29.85,30.68a1.59,1.59,0,0,0,1.58.25c-.1.4-.35.32-.56.34A.94.94,0,0,1,29.85,30.68Z"/><path class="cls-7" d="M31.69,27.63c.56-.45.92-.39,1.3.23C32.56,27.52,32.15,27.76,31.69,27.63Z"/><path class="cls-7" d="M32.34,28.33c.1.26.24.48,0,.66a.18.18,0,0,1-.26-.11C32,28.63,32,28.43,32.34,28.33Z"/><path class="cls-7" d="M29.73,29c-.32-.39-.31-.49.07-.77A.51.51,0,0,1,29.73,29Z"/><path class="cls-6" d="M46.64,67.4a1.51,1.51,0,0,0-.36.06.46.46,0,0,1-.61-.47c0-.91,0-1.82,0-2.74,0-.3.12-.43.42-.41a1.27,1.27,0,0,1,.55.07V67.4Z"/><path class="cls-5" d="M48.25,63.67,47,63.74l-.13-.11v-.34h1.51A.41.41,0,0,1,48.25,63.67Z"/><path class="cls-14" d="M46.85,63.63l.13.11,0,1.91h-.1Z"/><path class="cls-15" d="M46.86,65.65H47v1h-.1C46.72,66.31,46.89,66,46.86,65.65Z"/><path class="cls-6" d="M44,67.49a3.09,3.09,0,0,1-.43,0,.44.44,0,0,1-.42-.41.43.43,0,0,1,0-.16c0-1.22-.17-2.43-.11-3.64.37,0,.73-.13,1.09,0,0,1.16,0,2.31,0,3.47A2.27,2.27,0,0,1,44,67.49Z"/><path class="cls-4" d="M41.57,64.81a.28.28,0,0,0,0,.43,13,13,0,0,1-.09,2.16h0c-.08,0-.11,0-.12.11h-.21c-.6-.18-.65-.24-.65-.8V64.39c.11-.15.23-.1.33-.14h.64C41.62,64.46,41.54,64.64,41.57,64.81Z"/><path class="cls-13" d="M41.14,67.51h.22c0,.12-.13.12-.22.12Z"/><path class="cls-4" d="M36.51,78.84a17.29,17.29,0,0,0,2.59.21,4.76,4.76,0,0,1,1.06-.1,2.59,2.59,0,0,0,.44,1.6,1.15,1.15,0,0,0-.66,1.29,5.12,5.12,0,0,1-1.6-.54,6.21,6.21,0,0,1-2-1.28Z"/><path class="cls-7" d="M42.91,81.83s.05,0,.07,0l0,0Z"/><path class="cls-4" d="M57.55,79.14a15.23,15.23,0,0,0,3.63-.24c0,.38.14.73.12,1.1a3.68,3.68,0,0,1-1.37,1,7.81,7.81,0,0,1-2.24.84c0-.29.16-.55,0-.8a1.18,1.18,0,0,0-.62-.5A2.39,2.39,0,0,0,57.55,79.14Z"/><path class="cls-4" d="M50.53,47.89l-.32,0a.22.22,0,0,0,0-.1.9.9,0,0,1,.22-.42c.3-.06.55.12.82.12.08.19.06.38.19.52C51.1,48.17,50.83,47.87,50.53,47.89Z"/><path class="cls-8" d="M58.94,62.65h1.45a12.94,12.94,0,0,1,.07,1.62v1.29c-.22.2-.45.08-.65.14H57V62.65h1.91Zm1.27,1.19c0-.45-.27-.46-.49-.41a15.12,15.12,0,0,1-2.13.09c-.11,0-.25-.05-.32.08a.14.14,0,0,0,.08.18C58.29,63.89,59.23,63.8,60.21,63.84Zm-2.92,1a6.15,6.15,0,0,0,2.81.08.14.14,0,0,0-.07-.18A12.14,12.14,0,0,0,57.29,64.83Z"/><path class="cls-6" d="M52.72,66.34a2.33,2.33,0,0,1-.38,0,.43.43,0,0,1-.28-.69,1.3,1.3,0,0,1,1.49-.52.5.5,0,0,1,.14.87A1.25,1.25,0,0,1,52.72,66.34Zm.61-.45a.31.31,0,0,0,.16-.48c-.13-.22-.5-.22-.85,0,.2.14.45,0,.64.11s0,.25,0,.37l-.68.07c-.23,0-.1-.32-.31-.35-.06.33,0,.38.08.46A1,1,0,0,0,53.33,65.89Z"/><path class="cls-5" d="M48,66.66v.84h0a.15.15,0,0,0-.12.11,1.08,1.08,0,0,1-.71-.1l-.09-.45.07-.37A2.38,2.38,0,0,1,48,66.66Z"/><path class="cls-12" d="M47.12,67.06l.09.45c-.25-.07-.26-.25-.23-.45Z"/><path class="cls-13" d="M41.35,67.51c0-.08,0-.11.12-.11S41.42,67.5,41.35,67.51Z"/><path class="cls-12" d="M47.92,67.61A.15.15,0,0,1,48,67.5.13.13,0,0,1,47.92,67.61Z"/><path class="cls-4" d="M42,79.37V78.31a21.5,21.5,0,0,0,2.27.2,6.29,6.29,0,0,1,1.37-.11,1.61,1.61,0,0,0,.48,1.3A1.18,1.18,0,0,0,45.71,81,8.43,8.43,0,0,1,42,79.37Z"/><path class="cls-3" d="M41.05,76.57a15,15,0,0,1,.38-2.4,10.68,10.68,0,0,1-.09,2.4Z"/><path class="cls-4" d="M56,78.8a1.74,1.74,0,0,1,.11.78,7.63,7.63,0,0,1-3.66,1.67c.19-.57-.12-.93-.55-1.23a1.22,1.22,0,0,0,.44-1,10.35,10.35,0,0,1,1.12.09,10.87,10.87,0,0,0,2.12-.26Z"/><path class="cls-6" d="M60.21,63.84c-1,0-1.92,0-2.86-.06a.14.14,0,0,1-.08-.18c.07-.13.21-.08.32-.08a15.12,15.12,0,0,0,2.13-.09C59.94,63.38,60.2,63.39,60.21,63.84Z"/><path class="cls-9" d="M57.29,64.83a12.14,12.14,0,0,1,2.74-.1.14.14,0,0,1,.07.18A6.15,6.15,0,0,1,57.29,64.83Z"/><path class="cls-13" d="M53.32,65.88c0-.12,0-.25,0-.37s-.44,0-.64-.11c.35-.21.72-.21.85,0a.31.31,0,0,1-.16.48Z"/><path class="cls-13" d="M53.33,65.89a1,1,0,0,1-.92.17c-.13-.08-.14-.13-.08-.46.21,0,.08.31.31.35l.68-.07Z"/><path class="cls-18" d="M24.2,57.45a5,5,0,0,0,1.6.87c.57.23,1.16.43,1.75.62,1.18.38,2.37.74,3.57,1a27.18,27.18,0,0,0,3.62.7,11.83,11.83,0,0,1,1.89.28,3.74,3.74,0,0,1,1,.38,1.41,1.41,0,0,1,.47.45.78.78,0,0,1,0,.88l.07-.21a33.38,33.38,0,0,1-.45,3.44h-.08a33.66,33.66,0,0,1-.22-3.46l.07-.21c0,.09,0,0-.29-.15a4,4,0,0,0-.78-.25c-.57-.13-1.14-.21-1.79-.32a31.68,31.68,0,0,1-3.66-1c-1.2-.38-2.38-.78-3.54-1.26-.58-.23-1.15-.48-1.72-.76a5.06,5.06,0,0,1-1.57-1Z"/><polygon class="cls-18" points="37.02 71.16 37.02 78.58 37.3 71.29 37.16 71.26 37.04 71.25 37.02 71.25 37.02 71.16"/><path class="cls-19" d="M59.32,42.73a8.51,8.51,0,0,1,2.83.13,6.44,6.44,0,0,1,2.19,1.31c.19.2-2.78-.86-4.05-1.15S59.32,42.73,59.32,42.73Z"/><path class="cls-19" d="M57.33,43.48a27.09,27.09,0,0,1,1-4.75c.44-.76.39-.61.39-.61Z"/><path class="cls-19" d="M63.53,47c1.39-.54,2.2-.64,2.42-.84a22.93,22.93,0,0,0,.94-3.24l1.27-3.34L66.94,44.4s-.44,1.87-.42,2-.26.33-.59.38l-3.51.46Z"/><path class="cls-4" d="M28.57,27.53l.22-.17.83-.4,1.09-.66L32,26.12,33,27.17v.77l-.44,2.35-.82,1.12s-1.1.57-1.15.62a18.28,18.28,0,0,1-3.14-.5A41,41,0,0,0,28.57,27.53Z"/><path class="cls-4" d="M59.05,25.15s0-.31,0-.58,2.47-.29,2.47-.29h1l.67.22.57.21s.28.65.28.71a7.19,7.19,0,0,1-.58.7l-.74.72-1.82-.08a1.48,1.48,0,0,0-.47,0c-.28,0-.69.06-.7.06s-.32-.65-.32-.65Z"/><path class="cls-20" d="M28.58,46.57s2.62-1.51,3.93-1.42a13,13,0,0,1,1.81.22Z"/><path class="cls-20" d="M22.34,46.76s2.63-.65,2.89-.69-2.06.65-2.06.65Z"/><path class="cls-20" d="M26.24,46.62s-.88-5.23-.86-5.91l0-.67Z"/><polygon class="cls-20" points="35.36 46.03 33.8 40.65 35.53 45.94 35.4 46.12 35.36 46.03"/></svg>