<svg id="Layer_1" data-name="Layer 1" xmlns="http://www.w3.org/2000/svg" viewBox="0 0 96 96"><defs><style>.cls-1{fill:#d4eef4;}.cls-2{fill:#663f37;}.cls-3{fill:#6da8c3;}.cls-4{fill:#4f9bc6;}.cls-5{fill:#cc9b6f;}.cls-6{fill:#fcfcfc;}.cls-7{fill:#f4ab8d;}.cls-8{fill:#98c6ea;}.cls-9{fill:#212f3f;}.cls-10{fill:#354357;}.cls-11{fill:#90c9e6;}.cls-12{fill:#59a8d6;}.cls-13{fill:#a56023;}.cls-14{opacity:0.17;}.cls-15{fill:#9f9fe6;}.cls-16{fill:#5c56ce;opacity:0.3;}.cls-17{fill:#d5eef4;}.cls-18{fill:#dcb487;}.cls-19{fill:#5dabd8;}.cls-20{fill:#9dcc7e;}.cls-21{fill:#e6f6fa;}.cls-22{fill:#fd5d5d;}.cls-23{fill:#ea4d4a;}.cls-24{opacity:0.11;}.cls-25{fill:#4fa8c6;}.cls-26{fill:none;}</style></defs><title>Medicine Delivery</title><rect class="cls-1" x="74.02" y="22.66" width="4.42" height="10"/><path class="cls-1" d="M48.15,11.64a15.9,15.9,0,0,1,2,.08c.15,0,.24.1.37.15h28V24.48a4.41,4.41,0,0,1-1.62.07,2.66,2.66,0,0,0,0-.28V13.91a.51.51,0,0,0-.08-.38.31.31,0,0,0-.26-.09c-.83,0-1.66-.07-2.49-.06l-7.14,0c-5.61.05-11.22,0-16.83,0a1,1,0,0,0-.66.1V33.4a5.4,5.4,0,0,1-1.65-.18c0-.22,0-.45,0-.67q0-10,0-19.95a2.08,2.08,0,0,1,0-.66C47.92,11.81,48.22,11.92,48.15,11.64Z"/><path class="cls-2" d="M49.17,36.49v.45h0a1.41,1.41,0,0,0-.81-.08l-.45.06c-1.67.08-3.34.14-5,.26-.7.06-1.41.1-2.09.13-.1.18,0,.3,0,.44h0c-.24.13-.12.36-.13.55,0,1.73,0,3.47,0,5.21s0,3.21-.06,4.82a.68.68,0,0,0,.09.51c2.71-.39,5.46-.58,8.22-1-.06-.64.07-1.16,0-1.77a9.87,9.87,0,0,1-1.71.65,2.79,2.79,0,0,1-1.16.15c-.29,0-.33-.39-.53-.41a1.53,1.53,0,0,1-1.11-.81,18.7,18.7,0,0,0,2.36-.06,13.52,13.52,0,0,1-2,.39,4,4,0,0,0,2.37.12c-.36.41-.94.09-1.25.53a2.13,2.13,0,0,0,.94,0,9,9,0,0,0,2.25-.86V48a6.73,6.73,0,0,0-1.29.24l-.2,0-.1-.05a.14.14,0,0,0-.23,0l-.78.07a.17.17,0,0,0-.24,0l-4.1.44a11.16,11.16,0,0,1-2.24.16c-1-.08-2.07-.11-3.1-.16H36.7l-.16,0c-.4-.09-.81,0-1.22-.08-.18-.14-.37-.08-.57-.06-.48,0-1,0-1.46-.06a.34.34,0,0,0-.36,0l-2.18-.12c-.18,0-.4,0-.44-.26,0-.79,0-1.59,0-2.39a.29.29,0,0,0-.11-.24.28.28,0,0,1,0-.09l1,.25c.16.14.35.06.53.08-.41.29-.81-.07-1.2,0v2.48l9.82.6V37.68l-.19.06c-.05-.12.07-.26-.13-.46-1.34,0-2.75,0-4.17-.12a.25.25,0,0,0-.37,0h-.18a.17.17,0,0,0-.28,0,4.27,4.27,0,0,0-1.07-.1,8.18,8.18,0,0,1-1.85-.11.15.15,0,0,0,.11-.12.2.2,0,0,0,0-.11h.1a.22.22,0,0,0,.22.11c1,0,1.91.15,2.86.1.12,0,.11-.05.11-.13s.18.21.33.07-.22-.45-.18-.71c.32.14.14-.13.19-.23.2.23.14.52.19.78s.13.29.34.22a1.22,1.22,0,0,0,.86.09,7.58,7.58,0,0,0,1.65,0l.22.11c.12,0,.26.06.34,0a1,1,0,0,1,1.11,0c.1.07.25,0,.38,0a1.52,1.52,0,0,0,.94-.07h1c.14-.69.26-1.31.38-1.93a3.66,3.66,0,0,0,.27-1,3.89,3.89,0,0,0,.18-1.59c.21.22.39.53.78.32l0,0a1,1,0,0,1-.25.44v0c0-.34-.2-.26-.43-.21,0,.4-.14.77-.14,1.14a1.21,1.21,0,0,0,0,.19c-.09,0-.13.09,0,.18a1.68,1.68,0,0,0,0-.18c.29-.19.18-.6.45-.78A5.09,5.09,0,0,1,43.68,35,18.43,18.43,0,0,0,43,37c1.21,0,2.36-.16,3.52-.13.32,0,.66.12.95-.09a.46.46,0,0,1,.12-.12.3.3,0,0,0,.12,0,2.66,2.66,0,0,0,1.45-.09h0Z"/><path class="cls-3" d="M78.46,32.41h.18c0,.4,0,.8,0,1.19V79.49c.15.16.31.11.45.11h3.52c.15,0,.4-.12.43.2l-.73,0H70.72c-.19,0-.42-.1-.57.11-.14-.1-.21-.3-.43-.23a.43.43,0,0,1,0-.11h8.74v-46C78.44,33.2,78.45,32.81,78.46,32.41Z"/><path class="cls-3" d="M78.67,32.64l-.23,0V11.87h-28c0-.14.06-.22.19-.22H78a2.11,2.11,0,0,1,.72.06Z"/><path class="cls-4" d="M48.15,11.64c.07.28-.23.17-.33.3a2.08,2.08,0,0,0,0,.66q0,10,0,19.95c0,.22,0,.45,0,.67h-.13l0,0q0-7.35,0-14.71V12.24a1.21,1.21,0,0,1,0-.5C47.77,11.58,48,11.68,48.15,11.64Z"/><path class="cls-2" d="M38.62,33.3c.21.14.33.45.67.34a2.66,2.66,0,0,0,.3,1.21c0-.32.19-.49.18-.73s-.09-.41.09-.58h0a5.3,5.3,0,0,1-.25,1.68l-.18-.12c-.08-.31-.16-.61-.23-.92a.48.48,0,0,0-.59-.44c-.77.07-1.52.21-2.28.32-.61.1-.62.13-.59.76,0,.38.22.72.15,1.1h0c-.12-.07-.08-.2-.12-.3s-.17-.22-.32-.07c-.12,0-.11-.16-.15-.24a.16.16,0,0,0,0-.09c.11,0,.21.07.31,0s0-.08,0-.11c-.19-.9,0-1.12.88-1.2.59-.05,1.18-.15,1.77-.24.18,0,.33-.11.31-.33Z"/><path class="cls-2" d="M36.58,32.44h.11c.35.18.68,0,1,0s.42,0,.49.31l0,0a.64.64,0,0,0-.59-.15c-1.07.16-2.15.26-3.22.39-.2,0-.41,0-.55.22h0c-.26,0-.27-.18-.24-.38a6,6,0,0,0,1.74-.14A3,3,0,0,0,36.58,32.44Z"/><path class="cls-3" d="M40,32.64c0-.8.33-1,1.08-.88l2,.4a.69.69,0,0,1,.5.21v0h0a15,15,0,0,1-2.21-.35c-.93-.17-.93-.19-1.28.58Z"/><path class="cls-3" d="M44.5,32.84a.77.77,0,0,1,.21-.62,18.21,18.21,0,0,1,1.84.66,3.66,3.66,0,0,0,1,.3l0,0a.18.18,0,0,1-.2.1,1.49,1.49,0,0,1-.75-.19l-1.81-.69c-.18.12-.15.35-.32.43Z"/><path class="cls-5" d="M39.86,33.54c-.18.17-.1.39-.09.58s-.14.41-.18.73a2.66,2.66,0,0,1-.3-1.21h0a.13.13,0,0,0,.12-.12h0a.12.12,0,0,0,.12-.12h0a.18.18,0,0,0,.13-.15c0-.05,0-.08.07-.08S39.88,33.39,39.86,33.54Z"/><path class="cls-2" d="M39.86,33.54c0-.15,0-.29-.15-.34a2.1,2.1,0,0,0,.28-.56h.09a3.27,3.27,0,0,1-.22.91Z"/><path class="cls-2" d="M38.2,32.7a.64.64,0,0,1,.23.33l0,0a.34.34,0,0,1-.23-.34Z"/><path class="cls-2" d="M38.43,33a.44.44,0,0,1,.19.27h0c-.16,0-.21-.09-.22-.23Z"/><path class="cls-2" d="M39.41,33.53a.13.13,0,0,1-.12.12C39.28,33.57,39.34,33.54,39.41,33.53Z"/><path class="cls-2" d="M39.52,33.42a.12.12,0,0,1-.12.12A.13.13,0,0,1,39.52,33.42Z"/><path class="cls-2" d="M43.62,32.37c.06,0,.12.06.1.15h0a.16.16,0,0,1-.15-.11h0Z"/><path class="cls-2" d="M39.64,33.28a.18.18,0,0,1-.13.15Z"/><path class="cls-6" d="M15.35,24.13a9.59,9.59,0,0,1,2.81-1.25,2.58,2.58,0,0,1,1.26-.23c.88,1,1.73,2,2.67,2.93a6.12,6.12,0,0,1,2-1.58h.12c.07.49.15,1,.2,1.45.23,2.32.46,4.64.48,7a.64.64,0,0,0,.07.43v2.79l-6.35.05c-.19-.45,0-.93-.13-1.39.14-.08.3-.13.27-.36a3.91,3.91,0,0,0-.07-.76.14.14,0,0,0,0-.11,39.74,39.74,0,0,0-.37-5.23,4.83,4.83,0,0,0-1.49-2.91A5.66,5.66,0,0,0,15.35,24.13Z"/><path class="cls-7" d="M18.49,34.31c.11.46-.06.94.13,1.39a11.31,11.31,0,0,0,.12,1.74.6.6,0,0,0,.42.54c.6.21,1.19.45,1.79.68l4,1.58a.26.26,0,0,0,.23.1l2.16.9a5.07,5.07,0,0,0-.64,2.41l-1.5-.16a.24.24,0,0,0-.24-.06c-1.31-.23-2.63-.45-3.93-.7a27,27,0,0,1-5.38-1.4,3.57,3.57,0,0,1-1.45-2.5,21.15,21.15,0,0,1-.59-3.53,3.38,3.38,0,0,1-.11-.83Z"/><path class="cls-8" d="M15.69,41.33a27,27,0,0,0,5.38,1.4c1.3.25,2.62.47,3.93.7v5.41c-.13.21-.34.12-.51.13-1.5.06-3-.06-4.47-.13l-.22,0c-.72-.17-1.45-.26-2.18-.37l-.21,0L15.8,48l-.46-.2c0-.86,0-1.74.08-2.62.1-1.07.12-2.14.17-3.21C15.6,41.73,15.54,41.51,15.69,41.33Z"/><path class="cls-6" d="M28.9,34.73l-.34-.44-.45-.53c.85-.2,1.66-.2,2.45-.36,0-.3-.2-.58-.09-.88,0-1.39,0-2.78,0-4.18a11.43,11.43,0,0,0-.8-4.33,4.46,4.46,0,0,0-1.11-.61,7.41,7.41,0,0,0-2.07-.64c-.09.74-.18,1.48-.27,2.27a17.47,17.47,0,0,0-1.71-1h0a2.21,2.21,0,0,0,.11,1c.21,1.59.35,3.17.46,4.77.07,1,.11,2.07.09,3.1,0,.73,0,1.46,0,2.21a.87.87,0,0,0,.09.59c1.41-.09,2.82-.06,4.22-.11-.06-.12-.13-.24-.2-.36S29,34.89,28.9,34.73Zm-2.3-6.12a1.19,1.19,0,0,1,1.22-1.22,1.25,1.25,0,0,1,1.11,1.21,1.2,1.2,0,0,1-1.16,1.09A1.22,1.22,0,0,1,26.6,28.61Z"/><path class="cls-9" d="M19.09,15.19a8.75,8.75,0,0,1-.54-3.54,2,2,0,0,1,1.32-1.91,2.9,2.9,0,0,1,2.48-2.37,4.6,4.6,0,0,1,2.3.13,3.31,3.31,0,0,0,2.38,0,1.8,1.8,0,0,1,.22-.06c1.24-.35,1.86,0,2.06,1.33a1.33,1.33,0,0,1,.85,1.85,2.58,2.58,0,0,1-.88,1.23.89.89,0,0,0-.35.72,9.72,9.72,0,0,1-.67,3c-.21-.45.17-.92,0-1.37A2.07,2.07,0,0,0,26.81,14c-.15,0-.28,0-.33-.13s.08-.27.23-.32a1.75,1.75,0,0,1,.33-.05,1.92,1.92,0,0,1,1.24.42,9,9,0,0,0-.16-2.09,7,7,0,0,1-3.59,0c-.41-.09-.82-.15-1.23-.2-.91-.12-1.73.33-1.77,1.09a24.13,24.13,0,0,0-.18,2.82,3.46,3.46,0,0,1-.83-.65.64.64,0,0,0-.85-.14C19.39,14.76,19.29,15,19.09,15.19Z"/><path class="cls-8" d="M15.35,24.13a5.66,5.66,0,0,1,1.46.81,4.83,4.83,0,0,1,1.49,2.91,39.74,39.74,0,0,1,.37,5.23c-1.93-.07-3.86.18-5.79.12A40.69,40.69,0,0,1,13,27.79a4.63,4.63,0,0,1,1.53-3.23C14.76,24.36,15,24.1,15.35,24.13Z"/><path class="cls-10" d="M15.8,48l1.6.46-.25,2.69c-.1.19-.34.06-.39.24s.3,0,.38.26a1,1,0,0,0-.09.51c.09,3.72-.14,7.44-.11,11.16v1.93a2.54,2.54,0,0,1,0,.39c-.18,1.11-.4,2.21-.59,3.31-.21,1.34-.26,2.68-.41,4-.09.82,0,1.65-.1,2.48-.12,1.22,0,2.45-.12,3.67s0,2.53,0,3.8H15.5a.82.82,0,0,1-.6-.93c0-.7,0-1.39-.05-2.09a.39.39,0,0,0,0-.26c0-1.44,0-2.88-.06-4.31a44,44,0,0,1,.83-9.3,10.48,10.48,0,0,0,.18-2.09c0-3.86-.08-7.71-.13-11.57A39.61,39.61,0,0,1,15.8,48Z"/><path class="cls-7" d="M28.24,14.14a2.11,2.11,0,0,0-1.43-.2c-.15.05-.28,0-.34-.12s.1-.27.24-.32a1.2,1.2,0,0,1,.33-.05,2,2,0,0,1,1.25.42,9.62,9.62,0,0,0-.17-2.09,6.94,6.94,0,0,1-3.59,0,8.75,8.75,0,0,0-1.23-.2c-.91-.11-1.73.33-1.76,1.09a20.54,20.54,0,0,0-.18,2.82c.16.32.49.51.68.82A15.06,15.06,0,0,0,25,16.08,9.47,9.47,0,0,1,26,16c0-.38-.23-.75-.05-1.22a12.11,12.11,0,0,1,.37,1.24,7.78,7.78,0,0,0,1.71.49c.07-.35.13-.7.2-1C28.06,15.05,28.43,14.58,28.24,14.14Zm-3.91,1.1c0,.19-.07.4-.31.4s-.27-.18-.3-.36a.6.6,0,0,1,.3-.69C24.35,14.74,24.35,15,24.33,15.24Zm.2-1.25A2.8,2.8,0,0,0,23,14c.14-.61,1.09-.78,1.89-.38C24.83,13.88,24.74,14.05,24.53,14Zm2.73,1.71c-.43-.36-.44-.57-.07-1C27.66,15,27.68,15.25,27.26,15.7Z"/><path class="cls-11" d="M26.35,16.05a7.12,7.12,0,0,0,1.71.48,5.14,5.14,0,0,1-.84,3.28,2.25,2.25,0,0,1-2,1.16c-.2,0-.41,0-.61-.09a7.87,7.87,0,0,1-2.08-1l-.14-.11h0c0-.11-.12-.13-.23-.12h0c-.12-.41-.6-.58-.7-1,.09,0,.18,0,.24-.1s.1-.14.12-.23a11.24,11.24,0,0,0,.11-1.83.19.19,0,0,0,.1-.22A14.9,14.9,0,0,0,25,16.08,9.58,9.58,0,0,1,26,16Z"/><path class="cls-8" d="M30.47,32.52c0-1.39,0-2.78,0-4.17A11.28,11.28,0,0,0,29.65,24,3.06,3.06,0,0,1,31,25.69a26.38,26.38,0,0,1,1.13,3.12c.29.89.56,1.79.84,2.69l-.1.23h0c-.09,0-.18,0-.21.1h0a.2.2,0,0,0-.23.1.08.08,0,0,1-.07,0c-.1,0-.21,0-.25.1h0c-.1,0-.19,0-.22.1h0c-.12,0-.26,0-.33.11h0c-.09,0-.18,0-.22.1h0C31,32.33,30.73,32.53,30.47,32.52Z"/><path class="cls-7" d="M21.47,18.68c.1.42.58.59.7,1l-.21.07c.34.94,1.72,1.77,3.27,2l0,0h0a5.45,5.45,0,0,1-.3,1.12c-.16.39-.34.77-.5,1.16H24.1a1.79,1.79,0,0,0-.47-.48c-.66-.5-1.33-1-2-1.49-.31-.24-.68-.43-.79-.85a11.69,11.69,0,0,0,0-3.07h.23c0,.08,0,.12.11.12h0c0,.08,0,.12.12.11h0A.3.3,0,0,0,21.47,18.68Z"/><path class="cls-8" d="M20.87,21.18c.11.42.48.61.79.85.64.51,1.31,1,2,1.49a1.79,1.79,0,0,1,.47.48,6.12,6.12,0,0,0-2,1.58c-.94-1-1.79-2-2.67-2.93A5.08,5.08,0,0,1,20.87,21.18Z"/><path class="cls-12" d="M33.52,32.82c0,.2,0,.37.24.38.08.17.24.09.37.12l.16.06a.41.41,0,0,0,.24.27h0a.15.15,0,0,0,.11.12h0a.24.24,0,0,0,.12.24h0c0,.09,0,.19.12.23h0a.93.93,0,0,0,.23.6l.13.23c0,.09,0,.2.07.27s0,.2.15.24c.06.21.23.37.25.6s.28.43.18.71-.2-.11-.33-.07a.09.09,0,0,1,0-.07c0-.1,0-.2-.12-.23h0c0-.1,0-.19-.11-.22h0a1,1,0,0,0-.45-.9h0c0-.1,0-.2-.11-.23h0c0-.1,0-.19-.12-.22h0c0-.09,0-.19-.11-.22h0c0-.29-.14-.3-.33-.11h0c-.1,0-.19,0-.22.11h0c-.09,0-.2,0-.27,0-.63.33-1.29.6-1.94.87,0,.16,0,.29.17.34h0c0,.09,0,.19.11.22h0c0,.12-.06.27.11.33h0c0,.07,0,.11.11.11h0a.41.41,0,0,0,0,.11.2.2,0,0,1,0,.11h-.35c-.11-.15-.15-.35-.33-.44a.44.44,0,0,0-.23-.46,1.56,1.56,0,0,0-.17-.64c-.06-.21-.13-.44,0-.6a.87.87,0,0,0,.14-.93c.11-.25.4-.22.47-.44.1,0,.2,0,.23-.12h0c.22,0,.45,0,.57-.23h0c.1,0,.21,0,.24-.12h0c.13,0,.27,0,.35-.12h.34A.06.06,0,0,1,33.52,32.82Z"/><path class="cls-8" d="M18.49,34.31l-4.95.16c-.19,0-.41,0-.63-.07a2.92,2.92,0,0,1,0-1c1.33.09,2.64-.17,4-.11a6,6,0,0,0,1.84-.12,3.91,3.91,0,0,1,.07.76C18.79,34.18,18.63,34.23,18.49,34.31Z"/><path class="cls-7" d="M21.22,15.94a.74.74,0,0,1-.55-.62c-.3-.27-.49-.7-1-.63-.28.07-.38.33-.57.5-.22,1.3.41,2.19,1.56,2.15a.76.76,0,0,1,.25.53.27.27,0,0,1,.16.08.35.35,0,0,1,.07.15.13.13,0,0,1,.12.12.1.1,0,0,1,.11.11c.15,0,.21.19.35.25s.08-.14.1-.23a9.33,9.33,0,0,0,.12-1.82C21.67,16.37,21.52,16.06,21.22,15.94Zm-1.32.55a1.33,1.33,0,0,0,.21-1L20,15.4h0c-.12,0-.26,0-.38-.08a.3.3,0,0,1,.41,0l.11.11h0l.08.06a.31.31,0,0,1,.14.29c0,.29.16.53.19.85C20.3,16.68,20.23,16.29,19.9,16.49Z"/><path class="cls-8" d="M24.49,24c.16-.39.34-.77.5-1.16a5.45,5.45,0,0,0,.3-1.12c.55.17.82.65,1.18,1L26.2,25C25.57,24.72,25.1,24.23,24.49,24Z"/><path class="cls-5" d="M25.23,21.73c-1.55-.21-2.93-1-3.27-2l.21-.07h0c0,.12.13.12.23.12h0a.15.15,0,0,0,.14.11,7.87,7.87,0,0,0,2.08,1c.2,0,.41.06.61.09l0,.17v.17Z"/><path class="cls-4" d="M18.69,33.19a6,6,0,0,1-1.84.12c-1.33-.06-2.64.2-4,.11V33.2c1.93.06,3.86-.19,5.79-.12A.14.14,0,0,1,18.69,33.19Z"/><path class="cls-3" d="M32.84,31.73l.1-.23a.42.42,0,0,1,.55.37c0,.21.17.41.12.64l-.11,0c0-.13-.08-.27-.11-.41A.41.41,0,0,0,32.84,31.73Z"/><path class="cls-10" d="M33.5,32.49l.11,0c0,.11-.09.15-.1.24h-.35l.05-.2s0,0,.07-.06Z"/><path class="cls-7" d="M20.91,18.11a.28.28,0,0,1-.21-.23c.07-.13.14,0,.21,0h0v.22Z"/><path class="cls-7" d="M25.25,21.31v-.17C25.31,21.2,25.31,21.26,25.25,21.31Z"/><path class="cls-10" d="M30,50.33c0-.72.08-1.42.11-2.15a6.18,6.18,0,0,0-1.21.33c-.1.42.24.74.23,1.14.12.06.24.12.18.28-.25,0-.15-.16-.18-.28-.41-.26-.35-.72-.45-1.12a26.28,26.28,0,0,1-3,.34,1.18,1.18,0,0,1-.56,0H25c-.13.21-.34.11-.51.13-1.49.06-3-.06-4.47-.14a1.16,1.16,0,0,1-.46.94c0,.2-.13.31-.32.42,0-.29.08-.41.31-.43,0-.34.3-.59.24-.95-.71-.17-1.44-.27-2.17-.37-.05.48-.09,1-.17,1.44a3.57,3.57,0,0,0,0,1.22c.42,0,.69-.37,1.07-.32,0-.18.1-.25.28-.18,0,.17-.15.18-.27.19a1.43,1.43,0,0,1-.81.47.55.55,0,0,0-.45.61c.1,1.91-.14,3.81-.11,5.72,0,2.12,0,4.26,0,6.4a15.62,15.62,0,0,1-.39,3.4,25.68,25.68,0,0,0-.41,2.77c-.11,1.17-.16,2.32-.24,3.49-.07.92,0,1.85-.1,2.76-.15,1.92-.09,3.84-.09,5.76,0,.26-.16.47-.12.72a4,4,0,0,0,2,.11c.12,0,.25,0,.38-.06a2.15,2.15,0,0,0,.58-.3c.16-.91.32-1.85.48-2.8a.24.24,0,0,1,.07-.24c.15-1.34.42-2.68.65-4q.8-4.92,1.65-9.82c.42-2.47.86-4.92,1.29-7.37,0-.21.07-.44.12-.71a5.91,5.91,0,0,1,.21,1.64c.15,1.68.27,3.35.41,5a23.37,23.37,0,0,1-.27,4,27,27,0,0,0,0,5.09q.25,3.09.52,6.15a1.55,1.55,0,0,0,0,.22c.17.9.15,1.82.35,2.7.13.13.28.13.43.19a7.81,7.81,0,0,0,2.81,0l.35-.18c.08-.9.16-1.78.25-2.66,0-.08,0-.16,0-.25l.69-9.14c.3-4,.58-8.06.79-12.09q.18-3.13.32-6.28a7.4,7.4,0,0,0,.06-1.41c-.13,0-.27-.06-.26-.23S29.86,50.36,30,50.33Zm-6.76,7-.15,0c.26-1.41.48-2.83.81-4.22l.17,0C23.75,54.5,23.47,55.91,23.19,57.31Zm1-4.31a1.57,1.57,0,0,1,.77-.48C24.77,52.88,24.74,52.89,24.2,53Zm1.37-.73a.31.31,0,0,1-.41.18c.07-.22.24-.18.4-.19l.06,0A.16.16,0,0,0,25.57,52.27Zm.36-.16c-.05,0-.09,0-.11-.07s0-.07.05-.07S26,52,26,52,26,52.11,25.93,52.11Z"/><path class="cls-13" d="M55.46,81.89a.83.83,0,0,0-.51-.13c-1.36,0-2.72,0-4.07,0a3.49,3.49,0,0,0-2.06.34.89.89,0,0,1,.93-.55h5a1.38,1.38,0,0,0,.59-.06C55.38,81.56,55.42,81.73,55.46,81.89Z"/><path class="cls-14" d="M55.46,81.89a.83.83,0,0,0-.51-.13c-1.36,0-2.72,0-4.07,0a3.49,3.49,0,0,0-2.06.34.89.89,0,0,1,.93-.55h5a1.38,1.38,0,0,0,.59-.06C55.38,81.56,55.42,81.73,55.46,81.89Z"/><path class="cls-15" d="M65.5,78c-2.2,0-4.43.12-6.64.08-.26.5-.08,1-.26,1.47a2.09,2.09,0,0,1,0,.26,8.51,8.51,0,0,0-.1,1.66h0a.52.52,0,0,1,0,.22s0,0,0,0h0a.63.63,0,0,0,0,.09.14.14,0,0,1-.06.07l0,0a.37.37,0,0,1-.21.16H55.64a.48.48,0,0,0-.09-.14.15.15,0,0,0-.09-.07h0c0-.16-.08-.33-.09-.4-.11-.54,0-1.11-.19-1.65v-.25c0-.48-.11-1-.16-1.44l-.62-.07c0-.06,0-.12,0-.18.18,0,.38.06.6-.11-.13-1.39-.27-2.82-.42-4.24-.45-.13-.87,0-1.29-.12v-.29h.18c.28.42.67.11,1,.17a.72.72,0,0,0,.06-.53c-.07-.74-.16-1.5-.21-2.24-.11-1.41-.29-2.81-.4-4.22-.13-1.77-.24-3.53-.31-5.3,0-.39,0-.79,0-1.17s-.05-.42-.32-.45c0-2.62,0-5.25,0-7.88a9.45,9.45,0,0,1,0-1.41c1,.27,2,.51,3,.68a12,12,0,0,0-.12,1.68c.06.63.06,1.24.79,1.58a1.35,1.35,0,0,1,.9,1.18A5.85,5.85,0,0,0,58,56c.24,1.65.44,3.32.71,5s.5,3,.77,4.52c0,.12,0,.22-.1.31-.09-.46-.19-.92-.31-1.42a18.83,18.83,0,0,0-.25,2.29A13.85,13.85,0,0,0,59,69.51c.08,1,.08,1.95.13,2.94a3.2,3.2,0,0,0,0,.82.92.92,0,0,0,.56.06c1,0,2,0,3,0,0,.06.07.12.11.17l-3.84,0c0,1.5-.2,2.93-.24,4.39h6.67A.61.61,0,0,1,65.5,78Z"/><path class="cls-16" d="M65.5,78c-2.2,0-4.43.12-6.64.08-.26.5-.08,1-.26,1.47a2.09,2.09,0,0,1,0,.26,8.51,8.51,0,0,0-.1,1.66h0a.52.52,0,0,1,0,.22s0,0,0,0h0a.63.63,0,0,0,0,.09.14.14,0,0,1-.06.07l0,0a.37.37,0,0,1-.21.16H55.64a.48.48,0,0,0-.09-.14.15.15,0,0,0-.09-.07h0c0-.16-.08-.33-.09-.4-.11-.54,0-1.11-.19-1.65v-.25c0-.48-.11-1-.16-1.44l-.62-.07c0-.06,0-.12,0-.18.18,0,.38.06.6-.11-.13-1.39-.27-2.82-.42-4.24-.45-.13-.87,0-1.29-.12v-.29h.18c.28.42.67.11,1,.17a.72.72,0,0,0,.06-.53c-.07-.74-.16-1.5-.21-2.24-.11-1.41-.29-2.81-.4-4.22-.13-1.77-.24-3.53-.31-5.3,0-.39,0-.79,0-1.17s-.05-.42-.32-.45c0-2.62,0-5.25,0-7.88a9.45,9.45,0,0,1,0-1.41c1,.27,2,.51,3,.68a12,12,0,0,0-.12,1.68c.06.63.06,1.24.79,1.58a1.35,1.35,0,0,1,.9,1.18A5.85,5.85,0,0,0,58,56c.24,1.65.44,3.32.71,5s.5,3,.77,4.52c0,.12,0,.22-.1.31-.09-.46-.19-.92-.31-1.42a18.83,18.83,0,0,0-.25,2.29A13.85,13.85,0,0,0,59,69.51c.08,1,.08,1.95.13,2.94a3.2,3.2,0,0,0,0,.82.92.92,0,0,0,.56.06c1,0,2,0,3,0,0,.06.07.12.11.17l-3.84,0c0,1.5-.2,2.93-.24,4.39h6.67A.61.61,0,0,1,65.5,78Z"/><path class="cls-13" d="M74.36,87.27h0a18.51,18.51,0,0,1-2,0c-.21,0-.43-.06-.6.12a3.22,3.22,0,0,1-1.07.1.23.23,0,0,0-.24-.13c-.94,0-1.87-.08-2.81-.08-8.2,0-16.41,0-24.61,0h-.52a2.36,2.36,0,0,0,0-.35c.26,0,.44,0,.45-.34.11,0,.2,0,.23-.12.22,0,.35-.1.34-.34.11,0,.19,0,.23-.1.22,0,.34-.11.34-.35a.46.46,0,0,0,.41-.12.27.27,0,0,0,.1-.13.8.8,0,0,0,.06-.2.46.46,0,0,0,.56-.45c.36,0,.52-.22.69-.46.21,0,.35-.11.33-.34a.47.47,0,0,0,.57-.45c.11,0,.2,0,.23-.12.23,0,.35-.1.35-.34a.14.14,0,0,0,.21-.12c.23,0,.36-.09.35-.33.11,0,.19,0,.23-.11.21,0,.35-.11.33-.35.11,0,.2,0,.23-.11a3.49,3.49,0,0,1,2.06-.34c1.35,0,2.71,0,4.07,0a.83.83,0,0,1,.51.13h0a.15.15,0,0,1,.09.07.48.48,0,0,1,.09.14c0,.16.06.33-.08.46-1.62,0-3.24,0-4.85,0a1.5,1.5,0,0,0-1.45.92.63.63,0,0,0-.11.12l-.11.1c-.06,0-.16,0-.15.11s.14,0,.17-.08l.12-.11.11-.11c.29,0,.42-.31.61-.48a.73.73,0,0,1,.5-.23c1.61,0,3.2,0,4.8,0A1.21,1.21,0,0,1,55,83c-.64.38-1.3.75-2,1.12a3.69,3.69,0,0,0-1.52.69c-.46.32-.44.74.06,1A1.46,1.46,0,0,0,52,86a5.81,5.81,0,0,0,2.08,0c.92-.12,1.83-.38,2.78-.42a5.65,5.65,0,0,0,1.06-.2.64.64,0,0,0,.54-.58,2.65,2.65,0,0,0-.3-1.74V82.8h8.64c0,.38-.39.62-.47,1a5.81,5.81,0,0,0-.81,1.15c-.14.22-.3.47-.11.74a.7.7,0,0,0,.76.22,4.09,4.09,0,0,0,2.16-1.06,13.07,13.07,0,0,0,1.29-1.58,1.1,1.1,0,0,1,.53-.49c.75.11,1.52-.06,2.28.08a3.2,3.2,0,0,1,0,.44c-.13.79-.29,1.58-.42,2.37-.09.54-.07.54-.61.56-6.62,0-13.25-.1-19.87.08-.67,0-1.34,0-2,0-1,0-1.94-.13-2.93-.1,0-.07,0-.13,0-.19l.11-.12a.22.22,0,0,0,.21-.12.57.57,0,0,0,.23-.23l.11-.1.12-.12.11-.11a1.87,1.87,0,0,0,.91-.91l.11-.11s.11,0,0-.1,0,.05-.06.06a.34.34,0,0,1-.12.12,2,2,0,0,0-.91.89l-.23.23a1.35,1.35,0,0,0-.12.12.23.23,0,0,0-.23.21.3.3,0,0,0-.21.12.65.65,0,0,1-.11.12c-.13.14-.4.15-.41.45H72.07a36.8,36.8,0,0,0,.59-3.83H70.89c-.17,0-.39.07-.52-.12l.55-.71,3.53.06C74.49,83.65,74.46,85.45,74.36,87.27Z"/><path class="cls-10" d="M24.2,84.83a2.51,2.51,0,0,1,.45-1.64,2.44,2.44,0,0,0,2.75.07l.1-.05a1.16,1.16,0,0,1,.56.26,12.57,12.57,0,0,0,3.62,1.82c.46.15,1,.28,1.09.87a2.67,2.67,0,0,1-1.3.48,13.29,13.29,0,0,1-3.72-.31,6.38,6.38,0,0,0-1.43-.24,8.08,8.08,0,0,1-1.64-.33.41.41,0,0,1-.37-.47C24.32,85.13,24.39,85,24.2,84.83Z"/><path class="cls-10" d="M18.17,83.61a14.47,14.47,0,0,1,.91,3.49.47.47,0,0,0-.38.22,2.48,2.48,0,0,1-2.33.66,2,2,0,0,1-1.82-1.45,24,24,0,0,1,.81-3,.35.35,0,0,0,.49,0,1.88,1.88,0,0,1,1.44-.27A3.52,3.52,0,0,1,18.17,83.61Z"/><path class="cls-3" d="M41.93,72.49c-.47,2.38-.93,4.71-1.39,7.09h.08l-.06.26h-.05v0c-.25.95-.31,1.92-.61,2.81h-.13c.38-2.1.77-4.21,1.16-6.31.24-1.21.49-2.42.73-3.65-.54-.13-1.08,0-1.58-.11a.86.86,0,0,1,0-.16l0,0,0,0A13,13,0,0,1,41.93,72.49Z"/><path class="cls-3" d="M55.18,79.59v.25H47.56V79c0-1.21,0-2.42,0-3.62V48.28l.2,0c0,.2,0,.4,0,.61q0,15,0,30a2.35,2.35,0,0,0,.05.74Z"/><path class="cls-10" d="M70.92,81.73l-.55.71a.71.71,0,0,0-.26.31,1.32,1.32,0,0,0-.53.49,12.11,12.11,0,0,1-1.28,1.58,4.09,4.09,0,0,1-2.15,1.06.71.71,0,0,1-.77-.22c-.18-.26,0-.52.11-.74a5.69,5.69,0,0,1,.81-1.15,1.33,1.33,0,0,0,1.64-.47,7.77,7.77,0,0,0,1.78-3.58c.22-.07.29.13.43.23A2.25,2.25,0,0,1,71,81.54C71,81.58,71,81.66,70.92,81.73Z"/><path class="cls-13" d="M42.58,87l0,.35h.52q12.3,0,24.6,0c.94,0,1.88.1,2.82.09a.24.24,0,0,1,.24.12H42A1.09,1.09,0,0,1,42.58,87Z"/><path class="cls-9" d="M24.2,84.83c.19.12.12.3.11.46a.41.41,0,0,0,.37.47,8.08,8.08,0,0,0,1.64.33,6.38,6.38,0,0,1,1.43.24,13.29,13.29,0,0,0,3.72.31,2.67,2.67,0,0,0,1.3-.48c0,.49-.06.61-.54.77a5.8,5.8,0,0,1-2.52.22A12.72,12.72,0,0,1,28,86.87a5.43,5.43,0,0,0-1.67-.19,4.28,4.28,0,0,1-1.61-.26.64.64,0,0,1-.53-.64A2.34,2.34,0,0,1,24.2,84.83Z"/><path class="cls-3" d="M32.31,82.87l-.19,0a16.16,16.16,0,0,1-.53-2.41,2.18,2.18,0,0,0-.15-.54l-.07-.37h.05c-.42-2.39-.9-4.73-1.41-7.1.62,0,1.17-.09,1.73-.14h.17c0,.07,0,.16,0,.23-.51.19-1.06,0-1.58.14a2.24,2.24,0,0,0,0,.26c.48,2.34.94,4.67,1.38,7A28.08,28.08,0,0,0,32.31,82.87Z"/><path class="cls-9" d="M14.55,86.53A2,2,0,0,0,16.37,88a2.48,2.48,0,0,0,2.33-.66.47.47,0,0,1,.38-.22,1,1,0,0,1-.34.74,3,3,0,0,1-4-.21A1,1,0,0,1,14.55,86.53Z"/><path class="cls-7" d="M27.5,83.21l-.1.05a2.44,2.44,0,0,1-2.75-.07v-.48a7.59,7.59,0,0,0,2.81,0Z"/><path class="cls-13" d="M70.92,81.73c0-.07,0-.15.12-.19h3.51a2.52,2.52,0,0,1,.1,1.35c-.09,1.3,0,2.6-.06,3.89,0,.19.09.44-.23.48.11-1.8.12-3.61.09-5.48Z"/><path class="cls-7" d="M18.17,83.61a3.52,3.52,0,0,0-.88-.35,1.88,1.88,0,0,0-1.44.27.35.35,0,0,1-.49,0c.16-.2.09-.45.14-.67h.19l.06,0h.05a4.15,4.15,0,0,0,2,.1l.39-.06Z"/><path class="cls-4" d="M32.11,82.91l.19,0h6.39a1.8,1.8,0,0,0,1.07-.18h.14c0,.26-.12.35-.39.35-.71,0-1.42,0-2.14,0H32.69C32.5,83,32.28,83.1,32.11,82.91Z"/><path class="cls-13" d="M71.8,87.44c.17-.17.39-.1.59-.11a16.37,16.37,0,0,0,2-.06c.26.24.06.27-.13.28-.52,0-1,0-1.57,0C72.38,87.54,72.07,87.65,71.8,87.44Z"/><path class="cls-13" d="M46,84.37c-.16.24-.31.51-.68.45C45.49,84.6,45.64,84.34,46,84.37Z"/><path class="cls-13" d="M45.3,84.82a.47.47,0,0,1-.56.46A1,1,0,0,1,45.3,84.82Z"/><path class="cls-13" d="M44.74,85.28a.47.47,0,0,1-.57.45A.89.89,0,0,1,44.74,85.28Z"/><path class="cls-13" d="M46.89,83.58a.47.47,0,0,1-.57.45A.92.92,0,0,1,46.89,83.58Z"/><path class="cls-13" d="M43,86.64c0,.3-.19.37-.45.34A.6.6,0,0,1,43,86.64Z"/><path class="cls-13" d="M48,82.67c0,.24-.12.33-.34.34C47.68,82.78,47.84,82.71,48,82.67Z"/><path class="cls-13" d="M47.46,83.12c0,.24-.12.34-.34.34C47.11,83.23,47.27,83.16,47.46,83.12Z"/><path class="cls-13" d="M46.33,84c0,.24-.12.34-.35.34C46,84.13,46.13,84.06,46.33,84Z"/><path class="cls-13" d="M44.17,85.73c0,.24-.12.34-.34.34C43.82,85.83,44,85.77,44.17,85.73Z"/><path class="cls-13" d="M43.6,86.18c0,.24-.12.34-.34.35C43.25,86.29,43.41,86.22,43.6,86.18Z"/><path class="cls-13" d="M48.6,82.21c0,.24-.13.34-.35.34C48.25,82.32,48.41,82.25,48.6,82.21Z"/><path class="cls-13" d="M48.82,82.1c0,.13-.12.13-.23.11A.17.17,0,0,1,48.82,82.1Z"/><path class="cls-13" d="M48.25,82.55c0,.13-.12.14-.22.12A.15.15,0,0,1,48.25,82.55Z"/><path class="cls-13" d="M47.69,83c0,.12-.13.13-.23.11A.16.16,0,0,1,47.69,83Z"/><path class="cls-13" d="M47.12,83.46c0,.13-.12.14-.23.12A.16.16,0,0,1,47.12,83.46Z"/><path class="cls-13" d="M43.83,86.07c0,.13-.12.14-.23.12A.16.16,0,0,1,43.83,86.07Z"/><path class="cls-13" d="M43.26,86.52c0,.13-.12.14-.23.12A.16.16,0,0,1,43.26,86.52Z"/><path class="cls-4" d="M49.39,33.4V13.55a1,1,0,0,1,.66-.1c5.61,0,11.22,0,16.83,0l7.14,0c.83,0,1.66,0,2.49.06a.31.31,0,0,1,.26.09l-.13.15-.34,0H50.05c-.14,0-.3-.05-.45.14V33.42h-.11A.38.38,0,0,1,49.39,33.4Z"/><path class="cls-3" d="M76.64,13.68l.13-.15a.51.51,0,0,1,.08.38V24.27a2.66,2.66,0,0,1,0,.28.18.18,0,0,1-.2-.09c0-.49,0-1,0-1.47C76.63,19.89,76.63,16.78,76.64,13.68Z"/><path class="cls-10" d="M49.39,33.4a.38.38,0,0,0,.1,0,.1.1,0,0,1,0,.09l-.46,0h-.72c.27.18.49.27.38.53s-.09.48-.33.61c0-.26.19-.47.21-.72a1.14,1.14,0,0,0-.44-.31c-.07-.11-.2-.09-.31-.11s-.33-.06-.42-.23a.18.18,0,0,0,.2-.1h.13A5.4,5.4,0,0,0,49.39,33.4Z"/><path class="cls-1" d="M76.64,13.68c0,3.1,0,6.21,0,9.31,0,.49,0,1,0,1.47a1.91,1.91,0,0,0-1.92,1.11,1.49,1.49,0,0,0-.12.66c0,1.5,0,3,0,4.52a1.62,1.62,0,0,0,1.68,1.65l.39,0c0,.24,0,.49,0,.73V77.27c0,.21,0,.42,0,.63l-7,0a.42.42,0,0,1-.47-.37c-.22-.85-.52-1.68-.73-2.54A4.77,4.77,0,0,1,68,73.49h4.49V51.7H66c-.24,0-.3-.14-.34-.36-.1-.5-.23-1-.35-1.48a.64.64,0,0,0,.18-.59c-.18-1.15-.52-2.26-.8-3.38A9.33,9.33,0,0,1,64.14,43l8.37,0c0-.24,0-.39,0-.54V18.72c0-.58,0-.59-.61-.59h-8a5,5,0,0,0-5.56-1.54c-.63.23-1.23.55-1.88.77a5.16,5.16,0,0,0-1.26.92,11.69,11.69,0,0,0-1.87-.05c-.21.16-.11.39-.11.58V31.08c0,.67,0,1.35,0,2a1.35,1.35,0,0,1-.23.75c-.57,1.18-1.22,2.33-1.7,3.56l.25.31a13.07,13.07,0,0,1-.6,1.38.22.22,0,0,0-.11,0h0c0-.13-.06-.26-.24-.24h0c.05-.12,0-.19-.12-.23h0c0-.07,0-.13-.12-.12h0c0-.09,0-.16-.12-.12h0A.41.41,0,0,0,50,38h0a.42.42,0,0,0-.35-.46h0c.08-.15-.09-.22-.11-.33V36c0-.24.28-.4.23-.67h0a.58.58,0,0,0,.34-.57h0a.57.57,0,0,0,.34-.57h0a.9.9,0,0,0,.42-.65L50,33.51c-.1-.11-.25-.07-.37-.09V13.8c.15-.19.31-.14.45-.14H76.3Z"/><path class="cls-17" d="M78.46,32.41c0,.4,0,.79,0,1.19v46H69.7c-.18-.13-.24-.39-.47-.46.18-.23.34-.44.16-.76s0-.27.21-.32a1.26,1.26,0,0,0,.27,0L76.74,78c.22-.2.11-.46.11-.69q0-21.63,0-43.27c0-.55,0-1.1,0-1.65Z"/><path class="cls-3" d="M76.84,32.41c0,.55,0,1.1,0,1.65q0,21.63,0,43.27c0,.23.11.49-.11.69a.18.18,0,0,0-.13-.12c0-.21,0-.42,0-.63V33.15c0-.24,0-.49,0-.73Z"/><path class="cls-1" d="M55.17,79.59H47.85a2.35,2.35,0,0,1-.05-.74q0-15,0-30c0-.2,0-.41,0-.62A7.64,7.64,0,0,1,49.06,48V45.79h0l.35.05V78.13h1.42c1.19,0,2.38,0,3.57,0l.62.07Z"/><path class="cls-18" d="M40.2,37.74l.19-.06V48.85l-9.82-.6v-2.5c.39,0,.79.33,1.2,0,.12,0,.15-.12.15-.23h0a1,1,0,0,1,.62-.12c.24,0,.48,0,.63-.23h0l.2,0a2.45,2.45,0,0,0,3,1.42,2.55,2.55,0,0,0,1.89-2.35,2.7,2.7,0,0,0-1.46-2.62,2.54,2.54,0,0,0-3.64,1.52,1.18,1.18,0,0,1-.64-.06,3.54,3.54,0,0,0-1.06-.28h0a1,1,0,0,0-.69-.35h0c0-.29.23-.21.39-.23s.62,0,.74-.34h0c.22-.12.25-.23,0-.35h0c-.4-.34-.91-.23-1.37-.34a7.12,7.12,0,0,1-.05-1.15c1,0,2,.08,3,.14l4.62.29c.13,0,.3.06.37-.07.25-.41.64-.74.68-1.26h0c.23,0,.25-.17.23-.35h0c.26,0,.3-.25.35-.46h0a.37.37,0,0,0,.23-.35h0a.41.41,0,0,0,.24-.35Z"/><path class="cls-5" d="M47.2,46.74a2.79,2.79,0,0,1-1.16.15c-.29,0-.33-.39-.53-.41a1.53,1.53,0,0,1-1.11-.81c-.27-.2-.3-.33-.08-.51s.3-.09.31-.28c-.32-.09-.3-.25-.05-.39a1.23,1.23,0,0,1,.39-.08c.68-.06,1.35-.19,2-.32,0-.18-.13-.25-.27-.3s-.25-.1-.37-.15-.31-.22-.26-.44.25-.24.44-.24a7.7,7.7,0,0,1,2.38.34A22.22,22.22,0,0,0,48.81,40a10.52,10.52,0,0,0-1.37.1c-.71.13-1.42.07-2.14.17s-1.68.15-2.52.21c-.26,0-.35-.15-.31-.41-.25,0-.25-.15-.23-.33-.18,0-.2-.1-.23-.23a.41.41,0,0,1-.23-.35.32.32,0,0,1-.21-.32.34.34,0,0,1-.23-.35c-.13,0-.13-.12-.12-.23s-.11,0-.11-.11S41,38.07,41,38c-.17,0-.21-.09-.23-.21-.24.13-.12.36-.13.55,0,1.73,0,3.47,0,5.21s0,3.21-.06,4.82a.68.68,0,0,0,.09.51c2.71-.39,5.46-.58,8.22-1-.06-.64.07-1.16,0-1.77A9.87,9.87,0,0,1,47.2,46.74Zm-3.27.94a17.76,17.76,0,0,1-2.64.28,6.45,6.45,0,0,1,0-1.46,22.89,22.89,0,0,1,2.69-.27A8.77,8.77,0,0,1,43.93,47.68ZM47,44.09h0Z"/><path class="cls-7" d="M49.06,45.79a8.94,8.94,0,0,1-2.26.86,2,2,0,0,1-.93,0c.31-.44.89-.13,1.25-.53A3.94,3.94,0,0,1,44.75,46a13.18,13.18,0,0,0,2-.38,16.77,16.77,0,0,1-2.35.05h0c0-.13-.09-.26.05-.42.64-.29,1.43.13,2.21-.28a9,9,0,0,1-2-.1h0c0-.38.28-.33.51-.34A3.43,3.43,0,0,0,47,44.09h0c.11-.06.2-.12.16-.25-.24-.3-.79-.16-.93-.66a6.14,6.14,0,0,1,2.7.32.8.8,0,0,0,.59.08c2.74-.78,5.47-1.54,8.26-2.13.14,0,.31-.05.29-.27.39-.64.65-1.35,1.11-2a16.75,16.75,0,0,0,3.52,2,22,22,0,0,1-1.83,2.7,2.73,2.73,0,0,1-1.54.88,45.79,45.79,0,0,1-6.08.68l-3.66.23a.55.55,0,0,0-.54.22Z"/><path class="cls-18" d="M35.9,37.16c1.42.08,2.84.12,4.17.12.2.2.08.34.13.46h0c-.23,0-.27.16-.24.35h0c-.23,0-.26.17-.23.35h0c-.26.05-.29.27-.35.46h0a.37.37,0,0,0-.23.35h0c-.19.08-.26.27-.34.43a1.07,1.07,0,0,1-1.28.65c-1.89-.16-3.79-.2-5.68-.3-.66,0-1.32-.06-2-.11l-1.38-.12v-.32h0c.17,0,.21-.09.22-.23h0a.36.36,0,0,0,.23-.35h0a.17.17,0,0,0,.12-.23h0c.18,0,.21-.1.23-.24h0a.19.19,0,0,0,.12-.23h0a.11.11,0,0,0,.12-.12h0a.71.71,0,0,0,.35-.46h0a.18.18,0,0,0,.12-.24h0c.16,0,.19-.11.23-.22a.19.19,0,0,0,.12-.24h0a4.93,4.93,0,0,1,.55,0,4,4,0,0,0,1,0h.23a8.81,8.81,0,0,0,1.85.11,4.27,4.27,0,0,1,1.07.1h.83Z"/><path class="cls-18" d="M40.77,37.74c0-.13-.06-.26,0-.44l2.09-.12c1.67-.13,3.34-.19,5-.28.15,0,.3,0,.45,0a1.36,1.36,0,0,1,.82.09h0c0,.07,0,.12.12.12h0a.53.53,0,0,0,.35.46h0A.58.58,0,0,0,50,38h0a.61.61,0,0,0,.35.46h0c0,.08,0,.13.12.12h0c0,.09,0,.15.12.12h0c0,.12,0,.2.12.23h0c0,.15.06.26.24.24h0c0,.2.06.29.23.35h0c0,.27-.19.22-.35.23-.62.05-1.25.08-1.86.15-2,.22-3.92.27-5.86.52-.25,0-.38-.11-.55-.21h0a.4.4,0,0,0-.23-.35h0c0-.13-.06-.26-.23-.23h0c0-.18,0-.32-.23-.34h0c0-.18,0-.32-.23-.34h0c0-.18,0-.32-.23-.34h0a.17.17,0,0,0-.12-.23h0c0-.07,0-.12-.12-.11h0A.19.19,0,0,0,41,38h0c0-.12-.06-.25-.23-.23Z"/><path class="cls-8" d="M30.34,45.79c0,.8,0,1.6,0,2.39h-.25a6.18,6.18,0,0,0-1.21.33l-.22,0a26.28,26.28,0,0,1-3,.34,1.18,1.18,0,0,1-.56,0c.2-1.77.08-3.56.12-5.35.51,0,1,.11,1.51.15.08.15,0,.35.25.45h1c0,.11.12.13.23.12,0,.16.09.2.24.23a.18.18,0,0,0,.21.11c0,.21.17.24.35.22,0,.23.17.24.35.23.18.39.56.42.91.55A.29.29,0,0,1,30.34,45.79Z"/><path class="cls-19" d="M31.24,45.72l-1-.26a3.25,3.25,0,0,0-.91-.46h0a.42.42,0,0,0-.35-.23h0a.46.46,0,0,0-.35-.23h0a.18.18,0,0,0-.23-.12h0c0-.17-.09-.22-.23-.24h0a.19.19,0,0,0-.24-.12h0c0-.25-.22-.21-.38-.2s-.32.15-.49,0a2.78,2.78,0,0,1,.73-2.75,1,1,0,0,0,1.4.19l1.12,0a10.71,10.71,0,0,0,1.59.24h0v.35h0c-.4.23-.91.09-1.3.35,0,.14.06.21.17.22h0a.81.81,0,0,0,.69.35h0a5.82,5.82,0,0,0,2.16.57h0s0,.06,0,.09,0,.23-.13.35a6.66,6.66,0,0,1-2.21-.17,3.38,3.38,0,0,0,2,.41c.15.14.45.14.39.46h0l-.11.12h0a8.68,8.68,0,0,1-2.77-.31,8.29,8.29,0,0,0,2.38.54c.08.16,0,.24-.07.34h0a2.34,2.34,0,0,1-1.26,0A4.81,4.81,0,0,0,30.67,45s0-.11-.08,0l.08,0a1.72,1.72,0,0,0,1,.33c.16,0,.3,0,.27.24h0C31.73,45.77,31.47,45.69,31.24,45.72Z"/><path class="cls-6" d="M47.83,33.54c-.1-.15-.33-.07-.41-.22a1.43,1.43,0,0,1-.76-.21c-.61-.21-1.22-.45-1.81-.68-.18.13-.15.35-.31.43a1,1,0,0,1-.25.44c0,.14,0,.28-.12.36A5.09,5.09,0,0,1,43.68,35,18.43,18.43,0,0,0,43,37c1.21,0,2.36-.16,3.52-.13l.12-.14c0-.09,0-.18.13-.19s0-.22.12-.23a1.58,1.58,0,0,1,.23-.9A16.73,16.73,0,0,0,47.83,33.54Zm-3.51,1.19a8.43,8.43,0,0,1,2.32.86A7.14,7.14,0,0,1,44.32,34.73Zm.11-.53a7,7,0,0,1,2.31.86A5.12,5.12,0,0,1,44.43,34.2Zm.23-.48a7.07,7.07,0,0,1,2.29.86A7.94,7.94,0,0,1,44.66,33.72Z"/><path class="cls-17" d="M43.72,32.52h0a.17.17,0,0,1-.15-.11A15.55,15.55,0,0,1,41.35,32c-.92-.15-.91-.18-1.27.59a1.85,1.85,0,0,1,0,.23s0,.08,0,.12a1,1,0,0,1,0,.18,1.16,1.16,0,0,1,0,.18l-.06.13h0v0a0,0,0,0,1,0,0v0a4.73,4.73,0,0,1-.24,1.67,5.71,5.71,0,0,1-.34,1.5,2.9,2.9,0,0,0-.12.42c.12,0,.26.06.34,0a1,1,0,0,1,1.11,0c.1.07.25,0,.38,0,.35-1.46.54-3,.92-4.44a.35.35,0,0,1,.14,0c-.17.91-.33,1.82-.48,2.75h.57c-.18-.23-.33-.46-.05-.71,0-.09.05-.18.14-.22a.36.36,0,0,1,.63,0,.63.63,0,0,1,.11.12.28.28,0,0,1,0,.41.22.22,0,0,0,0,.08h.3a3.66,3.66,0,0,0,.27-1A3.89,3.89,0,0,0,43.72,32.52Zm-3,3.79-.12.12c-.16.28-.39.22-.63.09a.69.69,0,0,1-.13-.11.32.32,0,0,1,.12-.54l.1-.1.14-.11a.42.42,0,0,1,.64.06C41,35.93,40.88,36.14,40.7,36.31Zm.41-1.58s0,.05-.06.06a.22.22,0,0,1-.27.11h0c-.1.25-.28.28-.49.13a.37.37,0,0,1-.15-.49,1,1,0,0,1,.19-.26s0-.06.06-.06a.44.44,0,0,1,.68-.1A.37.37,0,0,1,41.11,34.73Zm.23-1.47a.06.06,0,0,1-.06.06.24.24,0,0,1-.28.1h0c-.11.17-.21.21-.33,0l0,0c-.31-.24-.31-.46,0-.82a.41.41,0,0,1,.13-.1.36.36,0,0,1,.51,0C41.63,32.85,41.63,32.87,41.34,33.26Zm1.83.4a.46.46,0,0,1-.74,0c-.32-.27-.17-.53,0-.77a.44.44,0,0,1,.72,0C43.43,33.22,43.42,33.42,43.17,33.66Z"/><path class="cls-1" d="M39.2,34.18a.48.48,0,0,0-.59-.44c-.76.08-1.52.2-2.28.32-.61.1-.62.13-.6.76a4.12,4.12,0,0,1,.16,1.1c.2.23.14.52.19.78s.13.29.34.22c-.12-.19-.18-.37,0-.55a.1.1,0,0,1,.11-.11h0c.41-.31.45-.3.69,0l0,0c.32.26.32.28,0,.68a7.58,7.58,0,0,0,1.65,0c-.11-.13-.27-.11-.4-.18-.43-.24-.48-.42-.18-.87l.12-.1a.28.28,0,0,1,.41,0,.43.43,0,0,1,.23.12c.25,0,.24-.19.27-.33a3.41,3.41,0,0,0,0-.55C39.35,34.79,39.26,34.48,39.2,34.18Zm-2,1.12a.66.66,0,0,1-.92.18c-.3-.18-.3-.3,0-.72a.41.41,0,0,1,.62-.12C37.26,34.88,37.34,35,37.16,35.3Zm1.57-.17c-.31.26-.58.11-.81-.1s-.06-.36.08-.51a.31.31,0,0,1,.23-.24c.23-.24.43-.16.62,0C39.14,34.67,39.14,34.73,38.73,35.13Z"/><path class="cls-6" d="M35.44,36.92c-.95,0-1.9-.08-2.85-.09a.25.25,0,0,1-.24-.12.11.11,0,0,0-.08-.11h0c0-.06,0-.13-.11-.11h0a.26.26,0,0,0-.11-.33h0c0-.09,0-.18-.11-.22h0c0-.15.08-.23.21-.29a6,6,0,0,0,.73-.32c.37-.2.82-.25,1.1-.62h0c.1,0,.2,0,.22-.11h0l.33.11h0c0,.1,0,.18.11.22h0a.18.18,0,0,0,.12.22h0c0,.1,0,.19.11.23h0a1.61,1.61,0,0,0,.45.9h0c0,.1,0,.19.11.22h0l0,.21Z"/><path class="cls-18" d="M48.37,34.68c.24-.13.23-.4.33-.61s-.11-.35-.38-.53H49c.47.23,1,0,1.46.27,0,.15-.14.26-.08.42h0a.62.62,0,0,0-.34.57h0a.65.65,0,0,0-.34.57h0a.74.74,0,0,0-.35.68h0c-.15,0-.13.13-.11.24h0c-.15,0-.12.13-.12.23h0a2.64,2.64,0,0,1-1.47.12v-.12h0a6.58,6.58,0,0,0,.69-1.82Z"/><path class="cls-19" d="M48.14,33.65a1.14,1.14,0,0,1,.44.31c0,.25-.23.46-.21.72h0a5.23,5.23,0,0,0-.69,1.82h0c-.07,0-.1.06-.11.13l-.11.11-.68,0,0-.22h0c.13,0,.13-.12.12-.22h0a.3.3,0,0,0,.17-.21c.22-.68.58-1.3.78-2C47.89,33.91,47.86,33.65,48.14,33.65Z"/><path class="cls-1" d="M43,35.13l-.12,0-.12.12-.13.1c-.13.15-.3.08-.47.08h-.57c-.12.5-.23,1-.35,1.51.26.13.5,0,.71.08h1c.14-.69.26-1.31.38-1.93Zm-.34,1.39a.27.27,0,0,1-.23.24,1.31,1.31,0,0,0-.12.11.38.38,0,0,1-.52,0c-.3-.21-.18-.42,0-.63l.12-.1c.24-.21.49-.34.73,0A.23.23,0,0,1,42.63,36.52Z"/><path class="cls-3" d="M41.55,35.46,41.21,37c.27.13.5,0,.71.09a1.8,1.8,0,0,1-1,.07c.36-1.48.55-3,.93-4.45l.13,0Z"/><path class="cls-3" d="M38.92,37c-.1-.13-.26-.11-.39-.18-.44-.24-.48-.42-.18-.86l.07.06c.09.4.16.43.71.36.09-.15,0-.25-.09-.35L39.1,36c.26,0,.25-.19.28-.33a5.07,5.07,0,0,0,0-.56l.18.12a5.52,5.52,0,0,1-.34,1.51,2,2,0,0,0-.11.42Z"/><path class="cls-3" d="M37.29,36.33c.31.26.31.27,0,.69a1.34,1.34,0,0,1-.86-.1c-.12-.19-.18-.38,0-.55,0,.12-.05.27.13.36C36.84,36.66,37.2,36.75,37.29,36.33Z"/><path class="cls-5" d="M44.18,33.65c-.28.19-.18.61-.46.79h0a8.81,8.81,0,0,1,.13-1.34c.23,0,.43-.13.44.21h0c-.14.08-.09.23-.12.35Z"/><path class="cls-10" d="M29.31,45a3.25,3.25,0,0,1,.91.46.28.28,0,0,0,0,.09C29.88,45.43,29.49,45.39,29.31,45Z"/><path class="cls-5" d="M35.7,36.15c0-.23-.19-.39-.25-.6.15-.15.26-.12.32.07s0,.23.12.3C35.84,36,36,36.29,35.7,36.15Z"/><path class="cls-11" d="M49.17,36.94v-.46h0c.11,0,.12-.13.12-.23h.09V37h-.1c0-.08,0-.13-.12-.12Z"/><path class="cls-10" d="M46.79,36.7l.68,0c-.3.23-.63.07-.95.1l.12-.14Z"/><path class="cls-10" d="M31.24,45.72c.23,0,.49.05.68-.16,0,.11,0,.2-.15.23S31.4,45.86,31.24,45.72Z"/><path class="cls-2" d="M35.32,48.72a.76.76,0,0,1-.57-.06C35,48.64,35.14,48.58,35.32,48.72Z"/><path class="cls-10" d="M32.15,36.94h-.23v-.12h.35A.14.14,0,0,1,32.15,36.94Z"/><path class="cls-2" d="M33.29,48.6a.38.38,0,0,1-.36,0A.34.34,0,0,1,33.29,48.6Z"/><path class="cls-5" d="M35.9,37.16h-.37A.25.25,0,0,1,35.9,37.16Z"/><path class="cls-5" d="M43.72,34.44l0,.18c-.12-.09-.07-.14,0-.17Z"/><path class="cls-20" d="M47.47,48.23a.24.24,0,0,1-.23,0A.14.14,0,0,1,47.47,48.23Z"/><path class="cls-20" d="M46.46,48.34a.24.24,0,0,1-.24,0A.17.17,0,0,1,46.46,48.34Z"/><path class="cls-5" d="M35.34,37.15h-.27A.16.16,0,0,1,35.34,37.15Z"/><path class="cls-18" d="M35.44,36.92V36.7l.1,0a.09.09,0,0,0,0,.07C35.56,36.87,35.56,36.94,35.44,36.92Z"/><path class="cls-2" d="M36.7,48.83l0,0h-.11a.07.07,0,0,1,0-.06Z"/><path class="cls-4" d="M32.27,36.6a.11.11,0,0,1,.08.11h-.09A.41.41,0,0,1,32.27,36.6Z"/><path class="cls-10" d="M47.58,36.61c0-.07,0-.12.11-.13v.12Z"/><path class="cls-7" d="M69.72,79.72a7.67,7.67,0,0,1-1.78,3.58,1.34,1.34,0,0,1-1.64.47c.08-.36.42-.6.47-1a.23.23,0,0,0,.09-.23,2.11,2.11,0,0,0,.34-.8c0-.07,0-.13,0-.2.35-.4.21-.85.18-1.31a2.19,2.19,0,0,1,.58-.32c.28-.18.62-.24.83-.53a1.31,1.31,0,0,1,.12-.11l.3-.14c.23.07.29.33.47.47A.36.36,0,0,0,69.72,79.72Z"/><path class="cls-5" d="M35.23,35l-.13-.23a.84.84,0,0,0-.23-.6h0c0-.09,0-.2-.12-.23h0c0-.1,0-.2-.12-.24h0c0-.07,0-.12-.11-.12h0c0-.16-.12-.21-.24-.27l-.16-.06a.4.4,0,0,0-.33-.12c.14-.2.35-.2.55-.22,1.07-.13,2.15-.23,3.22-.39a.64.64,0,0,1,.59.15.34.34,0,0,0,.23.34c0,.14.06.25.22.23,0,.22-.13.3-.31.33-.59.09-1.18.19-1.77.24-.89.08-1.07.3-.88,1.2,0,0,0,.07,0,.11s-.2.06-.31,0S35.32,35.06,35.23,35Z"/><path class="cls-20" d="M35.23,35c.09,0,.08.11.1.18a.16.16,0,0,1,0,.09C35.19,35.24,35.23,35.13,35.23,35Z"/><path class="cls-10" d="M33.8,33.2a.4.4,0,0,1,.33.12c-.13,0-.29,0-.37-.12Z"/><path class="cls-8" d="M25,40.24l-4-1.58c-.6-.23-1.19-.47-1.79-.68a.6.6,0,0,1-.42-.54,11.31,11.31,0,0,1-.12-1.74L25,35.65Z"/><path class="cls-3" d="M24.22,24h.24c-.11.34.06.66.1,1,.21,1.59.35,3.18.46,4.77.07,1,.11,2.06.09,3.1H25a.64.64,0,0,1-.07-.43c0-2.33-.25-4.65-.48-7C24.37,25,24.29,24.5,24.22,24Z"/><path class="cls-4" d="M25,32.86h.14c0,.73,0,1.47,0,2.2,0,.21-.05.42.1.6l0,4.68a.26.26,0,0,1-.23-.1l0-4.59Z"/><path class="cls-8" d="M25.22,40.34l0-4.68c1.4-.09,2.81-.06,4.21-.11l.3.27.1.13a.23.23,0,0,0,.13.21.31.31,0,0,0,.19.26c0,.19.22.32.16.53h0a.16.16,0,0,0-.12.13.36.36,0,0,0-.23.33h0a.19.19,0,0,0-.12.24h0c-.25.05-.32.24-.35.46h0c-.09,0-.12,0-.12.12h0c-.13,0-.16.11-.12.23h0c-.18,0-.22.09-.23.24h0c-.13,0-.16.11-.12.23h0c-.22,0-.27.16-.23.35h0c-.18,0-.21.1-.22.23h0a.55.55,0,0,0-.31.58h1.87a.1.1,0,0,0,.13,0c.25.33.06.72.14,1.08l-.14.12a4.18,4.18,0,0,0-1,0c-.45,0-.91.19-1.32-.19-.19-.18-.38,0-.51.16Z"/><path class="cls-10" d="M27.38,41.24c.13-.18.32-.34.51-.16.41.38.87.23,1.32.19a.21.21,0,0,0,0,.11,1,1,0,0,1-1.4-.19,2.78,2.78,0,0,0-.73,2.75c.17.1.32,0,.49,0s.35,0,.38.2H27c-.21-.1-.17-.3-.25-.44A5.07,5.07,0,0,1,27.38,41.24Z"/><path class="cls-4" d="M25.24,43.49c0,1.78.07,3.58-.13,5.36H25V43.43A.24.24,0,0,1,25.24,43.49Z"/><path class="cls-9" d="M15.8,82.9h-.05l-.06,0c0-1.27-.07-2.54,0-3.8s0-2.45.12-3.67c.08-.83,0-1.66.1-2.48.15-1.34.2-2.68.41-4,.19-1.1.41-2.2.59-3.31a2.54,2.54,0,0,0,0-.39V63.28c0-3.72.2-7.44.11-11.16a1,1,0,0,1,.09-.51c-.08-.21-.32-.07-.38-.26s.29-.05.39-.24l.25-2.69.21,0c-.05.48-.09,1-.17,1.44a3.57,3.57,0,0,0,0,1.22c.42,0,.68-.37,1.08-.32h0a1.36,1.36,0,0,1-.81.46.56.56,0,0,0-.45.62c.09,1.91-.15,3.81-.11,5.71,0,2.14,0,4.28,0,6.41a17.64,17.64,0,0,1-.4,3.4c-.18.91-.32,1.84-.41,2.77-.11,1.16-.15,2.33-.24,3.48-.08.93,0,1.85-.09,2.77-.16,1.92-.1,3.84-.11,5.77C15.92,82.43,15.77,82.65,15.8,82.9Z"/><path class="cls-9" d="M19.55,49.76c-.05-.34.29-.6.24-.95l.22,0a1.22,1.22,0,0,1-.46.93Z"/><path class="cls-12" d="M27.82,27.39a1.19,1.19,0,0,0-1.22,1.22,1.22,1.22,0,0,0,1.17,1.08,1.2,1.2,0,0,0,1.16-1.09A1.25,1.25,0,0,0,27.82,27.39Zm.26,1.48c-.06.17,0,.52-.36.45-.17-.11-.07-.3-.18-.42l-.44-.17c-.1-.42.25-.35.4-.41s0-.37.17-.53c.48-.1.31.33.41.55s.46,0,.41.32S28.2,28.73,28.08,28.87Z"/><path class="cls-2" d="M28.56,34.29l-.45-.53c.85-.21,1.66-.2,2.44-.36l.12,0v.11c-.69.21-1.42.19-2.12.38l.1.29Z"/><path class="cls-4" d="M30.67,33.42l-.12,0c0-.29-.18-.58-.08-.88.26,0,.49-.19.76-.11l-.44.31v.56Z"/><path class="cls-2" d="M29.75,35.82l-.3-.27-.2-.36a.46.46,0,0,1,.07-.07,2.1,2.1,0,0,1,.49.65Z"/><path class="cls-2" d="M29.25,35.19l-.35-.46.09-.07a.78.78,0,0,1,.33.46A.46.46,0,0,0,29.25,35.19Z"/><path class="cls-2" d="M28.9,34.73l-.34-.44.09-.09a.93.93,0,0,1,.34.46Z"/><path class="cls-17" d="M21.94,16.52c-.27-.15-.42-.46-.72-.58,0-.33-.31-.46-.55-.62s-.49-.7-1-.63a.64.64,0,0,1,.85.14,3.46,3.46,0,0,0,.83.65c.17.32.5.51.69.82A.19.19,0,0,1,21.94,16.52Z"/><path class="cls-9" d="M24.85,13.66c0,.23-.11.39-.32.34a2.68,2.68,0,0,0-1.56.05C23.1,13.43,24.05,13.25,24.85,13.66Z"/><path class="cls-9" d="M24,14.6c.33.14.32.39.31.64s-.07.39-.3.39-.29-.17-.31-.35A.58.58,0,0,1,24,14.6Z"/><path class="cls-9" d="M27.26,15.7c-.43-.36-.44-.57-.06-1C27.66,15,27.69,15.26,27.26,15.7Z"/><path class="cls-5" d="M26.35,16.05,26,16c.06-.39-.22-.75,0-1.23A11.3,11.3,0,0,1,26.35,16.05Z"/><path class="cls-21" d="M21.36,18.33c.16,0,.23.18.35.25-.06.1-.15.09-.24.1A.3.3,0,0,1,21.36,18.33Z"/><path class="cls-7" d="M22.39,19.81c-.1,0-.19,0-.23-.12S22.35,19.7,22.39,19.81Z"/><path class="cls-7" d="M22.53,19.92a.15.15,0,0,1-.14-.11Z"/><path class="cls-11" d="M33.19,32.27a.27.27,0,0,1,.09.23h.23a2.44,2.44,0,0,1-.12-.42.41.41,0,0,0-.55-.35h0c0,.11-.14.11-.22.11h0c-.05.11-.15.11-.24.11l-.08,0a.27.27,0,0,1-.24.1h0c0,.1-.13.1-.21.1l0,0c-.08.13-.21.1-.33.1h0c0,.11-.12.11-.22.11h0c-.16.1-.3.21-.44.31v.58a.12.12,0,0,1,.08.12c.07.14.16.17.31.1l.5-.22a1.67,1.67,0,0,1,0-.32c-.13-.08-.1-.22-.12-.34l0-.07a.12.12,0,0,0,.07,0h.09c0-.09.09-.11.14,0s.21.12.16.3c-.15,0-.16-.16-.19-.28H31.7c0,.11,0,.22,0,.33l.11.14a.6.6,0,0,1,.08.08l.13,0A.78.78,0,0,1,32.6,33c0-.12.14-.1.23-.12h0a.26.26,0,0,1,.33-.12c0-.07,0-.12.05-.19l-.06-.26C33,32.22,33,32.1,33,32,33.23,32,33.14,32.17,33.19,32.27Zm-1,.52c-.1,0-.07-.1-.09-.15s-.11-.09-.06-.18.07.1.09.16S32.26,32.7,32.22,32.79Zm.94,0h0Z"/><path class="cls-4" d="M31.8,32.18c-.08.14-.21.11-.33.11C31.54,32.13,31.68,32.18,31.8,32.18Z"/><path class="cls-4" d="M32.82,31.73c0,.11-.13.1-.21.1S32.73,31.72,32.82,31.73Z"/><path class="cls-4" d="M32.59,31.84c0,.11-.14.11-.23.1A.2.2,0,0,1,32.59,31.84Z"/><path class="cls-4" d="M32.29,32a.24.24,0,0,1-.25.1C32.08,31.93,32.19,32,32.29,32Z"/><path class="cls-4" d="M32,32.07c0,.11-.13.1-.22.1S31.93,32.06,32,32.07Z"/><path class="cls-4" d="M31.46,32.3c0,.11-.13.1-.22.1S31.37,32.29,31.46,32.3Z"/><path class="cls-21" d="M20.91,18.1v-.22a.24.24,0,0,1,.23.23Z"/><path class="cls-21" d="M21.14,18.1a.11.11,0,0,1,.11.12C21.17,18.22,21.14,18.18,21.14,18.1Z"/><path class="cls-21" d="M21.25,18.22a.11.11,0,0,1,.12.11C21.29,18.34,21.25,18.3,21.25,18.22Z"/><path class="cls-10" d="M30.89,33.43a.2.2,0,0,0,.31.09,5.16,5.16,0,0,1,.49-.21h.11c-.07.22-.36.19-.47.44a.87.87,0,0,1-.14.93c-.14.16-.07.39,0,.6a1.56,1.56,0,0,1,.17.64h0a1.26,1.26,0,0,1-.05-1.76,2,2,0,0,0-.63-.63v-.11l.12-.14,0,0C30.79,33.37,30.83,33.4,30.89,33.43Z"/><path class="cls-2" d="M30.33,37c.06-.21-.14-.34-.16-.53l.07-.06c.14.08.19.27.4.34a2.71,2.71,0,0,1,.77-.1c.13,0,.14-.09.15-.18l0,0c.18.09.22.29.33.44v.12a4,4,0,0,1-1,0A4.93,4.93,0,0,0,30.33,37Z"/><path class="cls-4" d="M34,34.68c-.28.37-.73.42-1.1.62a6,6,0,0,1-.73.32c-.13.06-.22.14-.21.29-.14,0-.16-.18-.17-.34.65-.27,1.31-.54,1.94-.87C33.76,34.66,33.87,34.69,34,34.68Z"/><path class="cls-4" d="M35.31,36.26a1.61,1.61,0,0,1-.45-.9A1,1,0,0,1,35.31,36.26Z"/><path class="cls-10" d="M32,33.2A.77.77,0,0,1,32.6,33C32.48,33.21,32.25,33.2,32,33.2Z"/><path class="cls-10" d="M34.87,34.21a.84.84,0,0,1,.23.6A.93.93,0,0,1,34.87,34.21Z"/><path class="cls-10" d="M31.35,35.92a.44.44,0,0,1,.23.46l0,0a.59.59,0,0,1-.21-.5Z"/><path class="cls-4" d="M34.52,34.68l-.33-.11C34.38,34.38,34.49,34.39,34.52,34.68Z"/><path class="cls-10" d="M32.82,32.86a.29.29,0,0,1,.35-.12C33.09,32.88,33,32.86,32.82,32.86Z"/><path class="cls-10" d="M34.29,33.38c.12.06.25.11.24.27A.41.41,0,0,1,34.29,33.38Z"/><path class="cls-4" d="M32,36.15a.26.26,0,0,1,.11.33C32,36.42,32,36.27,32,36.15Z"/><path class="cls-4" d="M35.55,36.72l-.1,0,0-.21C35.55,36.52,35.55,36.62,35.55,36.72Z"/><path class="cls-10" d="M34.75,34c.12,0,.12.14.12.23S34.76,34.08,34.75,34Z"/><path class="cls-10" d="M34.64,33.76c.12,0,.12.14.12.24A.24.24,0,0,1,34.64,33.76Z"/><path class="cls-10" d="M31.91,33.19H32c0,.14-.13.12-.23.12h0a.31.31,0,0,0,0-.1Z"/><path class="cls-4" d="M35.43,36.49c-.12,0-.13-.12-.11-.22S35.44,36.39,35.43,36.49Z"/><path class="cls-4" d="M31.93,35.92c.1,0,.11.13.11.22S31.92,36,31.93,35.92Z"/><path class="cls-4" d="M34.86,35.36c-.11,0-.12-.13-.11-.23S34.87,35.26,34.86,35.36Z"/><path class="cls-4" d="M34.75,35.13a.18.18,0,0,1-.12-.22C34.76,34.94,34.75,35,34.75,35.13Z"/><path class="cls-4" d="M34.63,34.9c-.11,0-.12-.12-.11-.22S34.64,34.81,34.63,34.9Z"/><path class="cls-4" d="M34.19,34.57c0,.14-.12.14-.22.11S34.09,34.56,34.19,34.57Z"/><path class="cls-10" d="M32.59,33c0-.13.15-.1.24-.12C32.8,33,32.69,33,32.59,33Z"/><path class="cls-4" d="M32.15,36.48c.1,0,.11.05.11.11S32.16,36.55,32.15,36.48Z"/><path class="cls-10" d="M34.53,33.65c.07,0,.1.05.11.12A.15.15,0,0,1,34.53,33.65Z"/><path class="cls-5" d="M20.13,15.49a.38.38,0,0,1,.22.36c0,.28.16.53.19.85-.24,0-.32-.42-.64-.21a1.34,1.34,0,0,0,.21-1Z"/><path class="cls-10" d="M20.67,15.32c.24.16.5.29.55.62A.71.71,0,0,1,20.67,15.32Z"/><path class="cls-5" d="M20,15.4c-.12,0-.26,0-.37-.08a.29.29,0,0,1,.4,0Z"/><path class="cls-5" d="M20,15.37l.11.12h0L20,15.39Z"/><path class="cls-3" d="M33.18,32.28a.23.23,0,0,1,.1.21s-.05,0-.07.06l-.06-.25Z"/><path class="cls-9" d="M23,57.28c.26-1.41.47-2.83.82-4.22l.16,0-.83,4.21Z"/><path class="cls-9" d="M28.63,48.53l.22,0c-.1.41.23.74.23,1.14h0C28.68,49.38,28.73,48.93,28.63,48.53Z"/><path class="cls-9" d="M24.2,53a1.68,1.68,0,0,1,.77-.48C24.76,52.88,24.75,52.89,24.2,53Z"/><path class="cls-9" d="M29.94,50.67c-.13,0-.27-.06-.26-.23s.18-.08.27-.11A.5.5,0,0,1,29.94,50.67Z"/><path class="cls-9" d="M19.55,49.77c0,.2-.12.31-.32.42,0-.29.08-.41.32-.43Z"/><path class="cls-9" d="M25.57,52.26c-.08.16-.19.27-.41.19.08-.22.25-.19.4-.19Z"/><path class="cls-9" d="M18.53,50.78c0-.18.09-.26.27-.19,0,.18-.15.19-.27.2Z"/><path class="cls-9" d="M29.08,49.65c.11.06.23.12.18.28-.26,0-.15-.17-.18-.28Z"/><path class="cls-9" d="M25.82,52s0-.07.05-.08A.09.09,0,0,1,26,52s0,.08-.05.08S25.84,52.1,25.82,52Z"/><path class="cls-9" d="M25.56,52.26l.06-.06-.05.06Z"/><path class="cls-22" d="M64.71,39.31a1.56,1.56,0,0,1,.09-.61c.31-1.17.67-2.32.87-3.51A3.78,3.78,0,0,0,65,31.77a3,3,0,0,0-.51-.45,6.47,6.47,0,0,0-2.81-1.1,3,3,0,0,1-2.29,1.61,2.13,2.13,0,0,1-1.27-.11.94.94,0,0,1-.59-1.27,1.92,1.92,0,0,0,0-.22,8.56,8.56,0,0,0-2.93,1.14,16.59,16.59,0,0,0-1.14,1.57c0,.12-.12.15-.21.17a1.34,1.34,0,0,1-.24.75c-.57,1.19-1.22,2.33-1.7,3.56l.26.32c.38.13.67.48,1.11.48A7.31,7.31,0,0,1,54,34.05c.1.23,0,.39-.13.57-.24.57-.52,1.13-.75,1.7A3.79,3.79,0,0,0,53,38.65a2.23,2.23,0,0,0,0,.23c.09,0,.09.13.1.22a1.34,1.34,0,0,1,.32.64,15.21,15.21,0,0,1,.13,2.52c1.44-.34,2.89-.69,4.33-1a.5.5,0,0,1,.17,0c.39-.64.65-1.35,1.11-2a17.48,17.48,0,0,0,3.52,2,21.27,21.27,0,0,1-1.83,2.7,2.7,2.7,0,0,1-1.54.88,45.83,45.83,0,0,1-6.07.68A8,8,0,0,1,53,47v.24a3.46,3.46,0,0,1,0,.46.2.2,0,0,1-.09.23,3.56,3.56,0,0,1-.12,1.21c0,.08,0,.16,0,.24s.08.29.07.44A.83.83,0,0,1,53,50a.36.36,0,0,1,.28.12c1,.27,2,.51,3,.68a23.61,23.61,0,0,0,2.92.12,20.5,20.5,0,0,0,3.49-.4,5.82,5.82,0,0,1,.73-.08l.1,0a8.83,8.83,0,0,1,1.7-.54.62.62,0,0,0,.18-.6c-.18-1.16-.51-2.26-.79-3.38A9.34,9.34,0,0,1,64.14,43c-.1,0-.1-.14-.09-.24a17,17,0,0,1,.54-3.24A.34.34,0,0,1,64.71,39.31Zm-5.39-1.19c-.19.19-.23.48-.43.67.71-1.71,1.55-3.36,2.44-5.08.1.25,0,.36-.08.48-.55,1.13-1.16,2.24-1.67,3.39-.09.22-.16.41,0,.61Zm.29.07a.2.2,0,0,1,.2.16C59.66,38.4,59.62,38.3,59.61,38.19Zm.48.41a.1.1,0,0,1-.11-.08s0-.05.05-.06.09,0,.11.09A.12.12,0,0,1,60.09,38.6Zm.18.08a.62.62,0,0,1,.44.18C60.66,39,60.65,39,60.27,38.68Zm.61.38a.83.83,0,0,1,.6.3A1,1,0,0,1,60.88,39.06Zm.6-5.42c-.06-.08,0-.14.05-.17s0,0,0,0S61.54,33.6,61.48,33.64Zm.22,5.87,0,0,0,0,0,0S61.71,39.53,61.7,39.51Zm.23.12s0,0,0,0l0,0,0,0Zm1.57.81-1.37-.64,0-.11a7.19,7.19,0,0,1,1.38.64S63.51,40.4,63.5,40.44Z"/><path class="cls-15" d="M65.85,71.14a1.18,1.18,0,0,1-.12-.6v0c-.12,0-.12-.12-.1-.21h0c-.21-.06-.24-.28-.32-.44-.28-.51-.53-1-.79-1.56-.1-.2-.16-.42-.4-.53s-.17-.26-.19-.43,0-.31-.36-.48c-.06-.14.14-.19.12-.34a17.24,17.24,0,0,1-.07-3.66c.08-1.76.13-3.53.24-5.3.06-1.1,0-2.21.07-3.32,0-.65.13-.59-.57-.83L63,53.25s0-.06-.06-.13c.35,0,.6.28,1,.22-.12-.75-.22-1.5-.37-2.25a3.61,3.61,0,0,1-.08-.66,5.82,5.82,0,0,0-.73.08,20.5,20.5,0,0,1-3.49.4,23.61,23.61,0,0,1-2.92-.12,12,12,0,0,0-.12,1.68c.06.63.06,1.24.79,1.58a1.35,1.35,0,0,1,.9,1.18A5.85,5.85,0,0,0,58,56c.24,1.65.44,3.32.71,5s.5,3,.77,4.52c0,.12,0,.22-.1.31a8.46,8.46,0,0,0,1.11,3.34c.73,1.22,1.41,2.47,2.12,3.72a.73.73,0,0,1,.17.47c0,.06.07.12.11.17.3.2.37.56.54.84.7,1.19,1.37,2.39,2,3.58a.61.61,0,0,1,0,.14,6.3,6.3,0,0,1,1,1.56v.22a.31.31,0,0,1,.25.19.51.51,0,0,0,.62.25,2.19,2.19,0,0,1,.58-.32c.28-.18.62-.24.83-.53C67.92,76.6,67,73.84,65.85,71.14Zm-3.42-18.3a1,1,0,0,1-.68-.68,1.7,1.7,0,0,1-.6-1.09,2,2,0,0,1,.62,1.07,1,1,0,0,1,.68.68l.22,0s.08.06.07.16S62.51,53,62.43,52.84Z"/><path class="cls-1" d="M53,50a.35.35,0,0,1,.27.13,8.31,8.31,0,0,0,0,1.41q0,3.94,0,7.89c0,.15,0,.3,0,.45V69c0,1.37,0,2.75,0,4.12v.29c.41.15.84,0,1.3.12.14,1.42.28,2.84.42,4.23-.23.17-.43.09-.61.12H49.6V45.58l3.66-.23A6.8,6.8,0,0,1,53,47l-.41-.17a1.17,1.17,0,0,0-1.41.52c-.09,0-.13,0-.11.12h0c-.22,0-.27.14-.33.29a1.74,1.74,0,0,0,.32,1.88A1.5,1.5,0,0,0,53,50Z"/><path class="cls-1" d="M62.89,73.47c.31.2.38.56.55.84.7,1.19,1.37,2.38,2.06,3.57H58.81c.06-1.45.27-2.87.25-4.37Z"/><path class="cls-1" d="M59.39,65.76A8.41,8.41,0,0,0,60.5,69.1c.73,1.23,1.42,2.48,2.12,3.73a.77.77,0,0,1,.17.47l-3,0a1,1,0,0,1-.57-.07,3.82,3.82,0,0,1,0-.83c0-1,0-2-.14-2.93a15.21,15.21,0,0,1-.17-2.86,17.24,17.24,0,0,1,.26-2.3Z"/><path class="cls-17" d="M65.51,78a6,6,0,0,1,1,1.57H62.28l-3.68,0c.18-.45,0-1,.26-1.46C61.07,78.15,63.29,78,65.51,78Z"/><path class="cls-3" d="M49.6,45.58V77.9h4.78l0,.18c-1.19.09-2.38,0-3.57,0H49.41V45.85l-.35-.05A.55.55,0,0,1,49.6,45.58Z"/><path class="cls-7" d="M58.13,82.8v.26a5.24,5.24,0,0,1-1.44.89,6.67,6.67,0,0,1-2.84.68c-.36,0-.72-.06-.84-.5L55,83a1.78,1.78,0,0,0,.26-.22.52.52,0,0,0,.35-.23c.15-.13.07-.3.09-.46h2.46v.68Z"/><path class="cls-13" d="M67.2,81.76a2.11,2.11,0,0,1-.34.8H58.12c0-.15,0-.29,0-.44a.37.37,0,0,0,.21-.16l0,0a.14.14,0,0,0,.06-.07.63.63,0,0,1,0-.09Z"/><path class="cls-1" d="M53.58,61c.08,1.77.18,3.53.32,5.3.1,1.41.28,2.81.38,4.21.06.75.15,1.5.22,2.25a.77.77,0,0,1-.06.53c-.32-.06-.7.25-1-.16,0-.21,0-.42,0-.62V61.88C53.47,61.6,53.38,61.29,53.58,61Z"/><path class="cls-3" d="M53.58,61c-.2.27-.11.58-.11.86V72.53c0,.2,0,.41,0,.62h-.17c0-1.37,0-2.75,0-4.12V59.86c0-.15,0-.3,0-.45.27,0,.33.2.32.43C53.58,60.23,53.58,60.63,53.58,61Z"/><path class="cls-3" d="M58.6,79.58l3.68,0h4.24v.21l-3.35,0-4.59,0Z"/><path class="cls-10" d="M53,84.13c.12.44.48.48.84.5A6.67,6.67,0,0,0,56.69,84a5.24,5.24,0,0,0,1.44-.89,2.65,2.65,0,0,1,.3,1.74.64.64,0,0,1-.55.58,5.27,5.27,0,0,1-1.05.2c-.94,0-1.85.31-2.79.43A5.82,5.82,0,0,1,52,86a1.6,1.6,0,0,1-.42-.14c-.49-.26-.52-.68-.07-1A3.89,3.89,0,0,1,53,84.13Z"/><path class="cls-13" d="M70.11,82.75a.71.71,0,0,1,.26-.31c.14.19.34.11.52.11h1.78c-.1,1.32-.38,2.55-.6,3.83H46.13c0-.3.27-.32.41-.45l0,0,0,.2,0,0s0,0,0,0c1,0,2,.11,2.94.09.67,0,1.34,0,2,0,6.62-.17,13.24,0,19.87-.09.54,0,.52,0,.61-.55.13-.79.28-1.58.42-2.37a3.07,3.07,0,0,0,0-.43C71.64,82.69,70.87,82.86,70.11,82.75Z"/><path class="cls-13" d="M58.12,82.54l8.74,0a.24.24,0,0,1-.1.23H58.13Z"/><path class="cls-13" d="M55.56,82.57a.52.52,0,0,1-.35.23l-4.81,0a.72.72,0,0,0-.5.22c-.19.18-.32.43-.61.48l0,0a1.48,1.48,0,0,1,1.45-.91C52.32,82.59,53.94,82.56,55.56,82.57Z"/><path class="cls-13" d="M48.39,84.28a2,2,0,0,1-.91.91l0,0a2,2,0,0,1,.92-.89Z"/><path class="cls-13" d="M46.87,85.7a.23.23,0,0,1,.23-.22l0,0a.54.54,0,0,1-.23.22Z"/><path class="cls-13" d="M49.06,83.7c0,.07-.08.13-.17.08s.09-.09.15-.1Z"/><path class="cls-13" d="M46.91,85.75a.24.24,0,0,1-.21.13l-.05,0a.29.29,0,0,1,.22-.13Z"/><path class="cls-13" d="M49.29,83.48l-.11.11,0,0,.11-.11Z"/><path class="cls-13" d="M49,83.68l.11-.12,0,0-.12.11Z"/><path class="cls-4" d="M48.47,84.14l.07-.07c.07.06,0,.07,0,.09Z"/><path class="cls-13" d="M48.5,84.16l-.11.12,0,0,.11-.11Z"/><path class="cls-14" d="M48,82.67c0,.24-.12.33-.34.34C47.68,82.78,47.84,82.71,48,82.67Z"/><path class="cls-14" d="M48.6,82.21c0,.24-.13.34-.35.34C48.25,82.32,48.41,82.25,48.6,82.21Z"/><path class="cls-14" d="M48.82,82.1c0,.13-.12.13-.23.11A.17.17,0,0,1,48.82,82.1Z"/><path class="cls-14" d="M48.25,82.55c0,.13-.12.14-.22.12A.15.15,0,0,1,48.25,82.55Z"/><path class="cls-14" d="M47.69,83c0,.12-.13.13-.23.11A.16.16,0,0,1,47.69,83Z"/><path class="cls-14" d="M49.06,83.7c0,.07-.08.13-.17.08s.09-.09.15-.1Z"/><path class="cls-14" d="M49.29,83.48l-.11.11,0,0,.11-.11Z"/><path class="cls-14" d="M49,83.68l.11-.12,0,0-.12.11Z"/><path class="cls-14" d="M48.5,84.16l-.11.12,0,0,.11-.11Z"/><path class="cls-13" d="M47.48,85.19l-.11.11s0,0,0,0l.11-.12Z"/><path class="cls-13" d="M47.21,85.37l.12-.11s0,0,0,0l-.12.11S47.23,85.38,47.21,85.37Z"/><path class="cls-13" d="M47.1,85.48l.11-.11s0,0,0,0l-.11.12Z"/><path class="cls-13" d="M46.7,85.88l-.12.11,0,0,.11-.11Z"/><path class="cls-6" d="M39.76,82.68a1.8,1.8,0,0,1-1.07.18H32.3C32,81.93,31.9,81,31.72,80q-.66-3.51-1.38-7a2.07,2.07,0,0,1,0-.25c.51-.2,1.07,0,1.58-.15l8.16,0c.5.15,1,0,1.59.11-.25,1.23-.5,2.44-.73,3.65Q40.34,79.52,39.76,82.68Z"/><path class="cls-4" d="M40.08,72.61l-8.16,0v-.23a8.36,8.36,0,0,0,2.06.09H35.7c.22,0,.19-.18.19-.32l0-1.38H36v1.63a1.8,1.8,0,0,0,.67.06h1.7a5.69,5.69,0,0,0,1.7-.11.12.12,0,0,1,0,.1Z"/><path class="cls-10" d="M40.07,72.35a.22.22,0,0,1,.23-.11,1.14,1.14,0,0,0-.12.22l0,0,0,0A.11.11,0,0,0,40.07,72.35Z"/><path class="cls-10" d="M40.32,72.24h0Z"/><path class="cls-20" d="M35.2,72.12c-.09-.06-.14-.12-.1-.23-.28,0-.35-.21-.35-.45-.32-.11-.22-.39-.17-.56a2.7,2.7,0,0,0-.16-1.59L34,68.83h0c-.22-.1-.5-.1-.66-.34-.08,0-.2,0-.24-.12s-.19,0-.22-.12a.11.11,0,0,1-.11-.1.15.15,0,0,1-.11-.12c-.11,0-.12-.14-.12-.23a.34.34,0,0,1-.22-.3.71.71,0,0,1,0-.15c-.07,0-.1,0-.11-.11h0A.2.2,0,0,1,32,67v0a.11.11,0,0,1-.12-.1h-.09a1.32,1.32,0,0,0-1.6.1v0a3.39,3.39,0,0,0,.11,1.58c.15,0,.21.1.23.23h0a.3.3,0,0,1,.22.33c.24,0,.23.18.23.34.29.14.22.39.22.62a4.35,4.35,0,0,0,.12,1.53.4.4,0,0,1,.21.34h0a.12.12,0,0,1,.1.11h0c.07,0,.09.05,0,.11a.49.49,0,0,1,0,.11h.17a9.49,9.49,0,0,0,2.07.1,1.77,1.77,0,0,1,0-.22c.15,0,.19.12.25.22h1A.57.57,0,0,0,35.2,72.12Zm-3.56-3.65s0,0,0,0,0,0,0,0a.08.08,0,0,1,0,0Zm.09.18s0,0,0,0h0s0,0,0,0a.06.06,0,0,1,0,0h0Zm.07.07c.08,0,.11,0,.11.11S31.82,68.78,31.8,68.72Zm.12.12h0s0,0,0,0A.09.09,0,0,1,32,69a.25.25,0,0,1,0,.09C31.92,69,31.91,68.94,31.92,68.84Zm.23.35h0a.1.1,0,0,0,0,0c-.06,0-.07,0-.09-.08h0s0,0,0,0a.07.07,0,0,1,.05.07s0,0,0,0v0a.15.15,0,0,1,.1.19A.16.16,0,0,1,32.15,69.19Zm.11.22c.07,0,.1,0,.1.09A.11.11,0,0,1,32.26,69.41Zm.23.33h0v0a.17.17,0,0,1-.08-.06.2.2,0,0,1,0-.13s0,0,0,0h0v0a.16.16,0,0,1,.1.19,0,0,0,0,0,0,0Zm.21.33c-.09,0-.1-.12-.1-.22s-.08,0-.08,0,0,0,0-.07.08.05.1.11.1.1.1.17Zm.16.32a.64.64,0,0,1,0-.2.1.1,0,0,1-.11-.1c.07,0,.09,0,.11.1s.1.09.15.14a.37.37,0,0,1,0,.15C32.91,70.54,32.89,70.45,32.86,70.39Zm.23.3c.25.13.3.36.38.59C33.22,71.15,33.17,70.91,33.09,70.69Zm.74,1.11a.6.6,0,0,1,.12.42,1.26,1.26,0,0,1-.38-.74A1.92,1.92,0,0,1,33.83,71.8Zm-3.06-2.63a0,0,0,0,0,0,0h0Z"/><path class="cls-3" d="M49.6,33.42c.12,0,.27,0,.37.09H49.5a.1.1,0,0,0,0-.09Z"/><path class="cls-4" d="M48.14,33.65c-.28,0-.25.26-.3.41-.2.69-.56,1.31-.78,2a.3.3,0,0,1-.17.21,1.56,1.56,0,0,1,.23-.9,19.06,19.06,0,0,0,.71-1.82C47.94,33.56,48.07,33.54,48.14,33.65Z"/><path class="cls-2" d="M49.5,33.52H50l.87.07a.9.9,0,0,1-.42.65c-.06-.16.13-.27.08-.42-.45-.29-1,0-1.46-.27Z"/><path class="cls-2" d="M57.56,30.22a8.67,8.67,0,0,0-2.94,1.15,6.29,6.29,0,0,1,.06-2,10.14,10.14,0,0,0,.16-3.6c-.13-.7-.27-1.4-.41-2.11a6.67,6.67,0,0,1,.74-5.28.15.15,0,0,0,.06-.09,5.16,5.16,0,0,1,1.26-.92c.65-.22,1.25-.54,1.88-.77a5,5,0,0,1,5.56,1.54l.31.45A7.24,7.24,0,0,1,65,22a10.52,10.52,0,0,0,0,1.86,3.43,3.43,0,0,0,1.32,2.38,2.65,2.65,0,0,0,.21.26,2.71,2.71,0,0,1,.7,2.72,3.13,3.13,0,0,0-.2,1.22,1.47,1.47,0,0,0,.35,1.13c.22.3.45.6.68.89a3.81,3.81,0,0,1-.1,5,5,5,0,0,1-3.33,1.83,1.41,1.41,0,0,1,.08-.61c.31-1.17.66-2.32.88-3.5A3.83,3.83,0,0,0,65,31.77a2.7,2.7,0,0,0-.51-.45,6.52,6.52,0,0,0-2.81-1.1c-.25-.28-.14-.62-.17-.93a3.32,3.32,0,0,1,.57-3,.47.47,0,0,0,.08-.14.51.51,0,0,1,.46-.34,1.54,1.54,0,0,0,1.3-1.65.93.93,0,0,0-.52-.82.69.69,0,0,0-.82.21,1.57,1.57,0,0,1-.25.16c-.18-.6-.73-.72-1.16-1s-1-.24-1.52-.44a.88.88,0,0,0-.66,0c-.18.07-.28,0-.27-.23s.41-.12.63-.24a5.67,5.67,0,0,1-2.23-2.55c-1.28.95-1.82,1.92-1.65,2.88.75-.5,1.49-.45,1.62.19a2.32,2.32,0,0,0-1.72.05.53.53,0,0,0,0,.19c0,.85,0,1.71,0,2.55a4.21,4.21,0,0,0,1.26,2.95,1.83,1.83,0,0,0,1.29.62,3,3,0,0,1,0,.9C57.77,29.81,57.8,30.07,57.56,30.22Z"/><path class="cls-15" d="M63.56,50.4a11.32,11.32,0,0,1,1.71-.54c.12.5.25,1,.35,1.48,0,.22.1.36.34.36v.19c-.33,0-.25.31-.2.48a3.47,3.47,0,0,1,.08,1c0,.66,0,1.31-.09,2-.07.94-.19,1.87-.28,2.81-.14,1.57-.31,3.14-.44,4.72,0,.63,0,1.28-.13,1.91A3.47,3.47,0,0,0,65.25,67a30.46,30.46,0,0,1,2.64,6.29.2.2,0,0,0,.13.22A4.77,4.77,0,0,0,68.39,75c.21.86.51,1.69.73,2.54a.42.42,0,0,0,.47.37v.15c-.16.05-.31.14-.21.32s0,.53-.16.76l-.3.14a2.28,2.28,0,0,0-.19-.81c-.71-2.23-1.51-4.42-2.35-6.6a4,4,0,0,0-.65-1.34h0c0-.1,0-.18-.11-.22h0a.82.82,0,0,0-.15-.53c-.24-.48-.47-1-.72-1.42-.11-.23-.21-.44,0-.68-.68-.2-.68-.37-.39-.92-.14-.14-.32.14-.46,0a4.88,4.88,0,0,1-.17-1.43c0-.28.11-.51.12-.78a29.37,29.37,0,0,1,.09-3.11c.11-.8,0-1.61.11-2.42.11-1.1,0-2.22.12-3.33a15.93,15.93,0,0,0-.23-3.71A5.83,5.83,0,0,0,63.56,50.4Z"/><path class="cls-7" d="M53.44,39.74a14.26,14.26,0,0,1,.13,2.53l-4,1.12a.44.44,0,0,1-.49-.1v-2.8c.43,0,.83-.19,1.25-.26.19,0,.31-.13.32-.33.22-.07.47,0,.66-.19,0-.15-.08-.25-.21-.28h0c0-.14-.1-.21-.12-.33a13.07,13.07,0,0,0,.6-1.38c.39.13.68.49,1.12.49.08.14.08.32.23.42a.19.19,0,0,0,.09.24h0c0,.09,0,.2.12.23h0A.73.73,0,0,0,53.44,39.74Z"/><path class="cls-3" d="M64.24,18.56l-.31-.45h8c.6,0,.61,0,.61.59v23.7c0,.15,0,.3,0,.54l-8.37,0c-.1-.06-.1-.15-.09-.25h8.17a1,1,0,0,0,.09-.6v-14c0-.15,0-.31,0-.46a11.85,11.85,0,0,0,0-1.46l0-4.89V18.37a4.57,4.57,0,0,0-1,0c-2-.07-4.07,0-6.1,0C64.89,18.38,64.51,18.29,64.24,18.56Z"/><path class="cls-3" d="M68,73.49a.2.2,0,0,1-.13-.22h4.39V52a2.2,2.2,0,0,0-.71-.05l-5.61,0V51.7h6.55V73.49Z"/><path class="cls-3" d="M53.49,32.94c0,.12-.13.15-.23.17,0-.68,0-1.36,0-2V18.79c0-.19-.1-.42.11-.58a.23.23,0,0,0,.15.15c0,.19,0,.37,0,.56v5.82Q53.48,28.85,53.49,32.94Z"/><path class="cls-4" d="M69.6,78.07v-.15l7,0a.18.18,0,0,1,.13.12l-6.87.09A1.26,1.26,0,0,1,69.6,78.07Z"/><path class="cls-4" d="M53.51,18.36a.23.23,0,0,1-.15-.15,11.69,11.69,0,0,1,1.87.05.15.15,0,0,1-.06.09Z"/><path class="cls-2" d="M49.39,36a.74.74,0,0,1,.35-.68c0,.27-.22.43-.23.67Z"/><path class="cls-4" d="M49.39,36h.12v1.16L49.38,37v-.77l0-.24Z"/><path class="cls-2" d="M50.08,34.79a.62.62,0,0,1,.34-.57A.57.57,0,0,1,50.08,34.79Z"/><path class="cls-2" d="M49.74,35.36a.65.65,0,0,1,.34-.57A.58.58,0,0,1,49.74,35.36Z"/><path class="cls-2" d="M50.31,38.42A.61.61,0,0,1,50,38,.41.41,0,0,1,50.31,38.42Z"/><path class="cls-2" d="M50,38a.58.58,0,0,1-.35-.46A.42.42,0,0,1,50,38Z"/><path class="cls-2" d="M49.38,37l.14.14c0,.11.19.18.11.33a.53.53,0,0,1-.35-.46Z"/><path class="cls-10" d="M51,39.11c0,.12.15.19.12.33-.17-.06-.28-.15-.23-.35A.22.22,0,0,1,51,39.11Z"/><path class="cls-10" d="M50.88,39.1c-.18,0-.23-.09-.24-.24C50.82,38.84,50.84,39,50.88,39.1Z"/><path class="cls-10" d="M50.65,38.87c-.13,0-.16-.11-.12-.23C50.63,38.68,50.7,38.75,50.65,38.87Z"/><path class="cls-2" d="M50.42,38.53c-.09,0-.12,0-.12-.12S50.43,38.44,50.42,38.53Z"/><path class="cls-10" d="M50.54,38.64c-.12,0-.13,0-.12-.12S50.53,38.57,50.54,38.64Z"/><path class="cls-10" d="M42.29,67.09a2.32,2.32,0,0,1-.47,1,2.17,2.17,0,0,0-.47,2,1.94,1.94,0,0,1-.29,1.46c-.06.11-.12.24-.27.27v0a2.38,2.38,0,0,0,.42-1.92,1.76,1.76,0,0,1,.33-1.58,5.41,5.41,0,0,0,.48-.76,1.44,1.44,0,0,0,0-1.31.91.91,0,0,0-1.11-.5c-.21.06-.37.19-.59.17a1.16,1.16,0,0,1,1.44-.18A1.34,1.34,0,0,1,42.29,67.09Z"/><path class="cls-10" d="M37.7,64.73a.77.77,0,0,1-.32-.7,7.85,7.85,0,0,1,0-1A2.94,2.94,0,0,0,36.91,61L37,61a1.93,1.93,0,0,1,.6,1.52,3.38,3.38,0,0,1-.06.78A2.85,2.85,0,0,0,37.7,64.73Z"/><path class="cls-10" d="M38.64,67.45c0,.12,0,.26,0,.4s0,0,0,.07-.13-.09-.12-.18a3.29,3.29,0,0,0-.55-2.47v-.19A2.44,2.44,0,0,1,38.64,67.45Z"/><path class="cls-10" d="M36.69,60.54s0,.06,0,.1l-.15.11a2.29,2.29,0,0,0-1.44,0l0,0a1.42,1.42,0,0,1,1.49-.21Z"/><path class="cls-10" d="M39.86,66.56c-.13.28-.09.65-.45.79a3.38,3.38,0,0,1,.41-.83A.08.08,0,0,0,39.86,66.56Z"/><path class="cls-10" d="M40.08,66.12a.45.45,0,0,1-.22.44.08.08,0,0,1,0,0A.57.57,0,0,1,40.08,66.12Z"/><path class="cls-10" d="M37.94,65.08v.13a.46.46,0,0,1-.23-.45A.73.73,0,0,1,37.94,65.08Z"/><path class="cls-10" d="M39.18,67.58c0,.22-.18.22-.34.23A.76.76,0,0,1,39.18,67.58Z"/><polygon class="cls-10" points="40.31 72.23 40.32 72.23 40.32 72.24 40.31 72.23"/><path class="cls-10" d="M40.55,72c0,.15-.11.19-.23.22A.22.22,0,0,1,40.55,72Z"/><path class="cls-10" d="M40.31,65.89a.19.19,0,0,1-.22.21A.25.25,0,0,1,40.31,65.89Z"/><path class="cls-10" d="M39.41,67.35a.21.21,0,0,1-.23.23A.51.51,0,0,1,39.41,67.35Z"/><path class="cls-10" d="M38.84,67.81c0,.12-.14.1-.23.11s0,0,0-.07Z"/><path class="cls-10" d="M37,61l-.05,0a.13.13,0,0,1-.11-.12l0,0Z"/><path class="cls-10" d="M36.84,60.86l0,0a.12.12,0,0,1-.11-.11l0,0A.17.17,0,0,1,36.84,60.86Z"/><path class="cls-10" d="M36.73,60.74l0,0-.15,0,.15-.11A.13.13,0,0,1,36.73,60.74Z"/><path class="cls-10" d="M40.79,71.8c0,.07,0,.1-.12.1h0a.17.17,0,0,1,.12-.11Z"/><path class="cls-10" d="M40.67,71.9c0,.09-.05.11-.12.11s.05-.09.11-.12Z"/><path class="cls-10" d="M35.1,60.77c0,.07,0,.17-.08.22a1.81,1.81,0,0,0-.5,1.49c0,.39,0,.79,0,1.17a1.89,1.89,0,0,1-.67,1.43l-.05,0a3.77,3.77,0,0,0,.5-2.52,1.92,1.92,0,0,1,.76-1.77Z"/><path class="cls-10" d="M34,68.83h0c-.22-.1-.5-.1-.66-.34h0l.28,0c-.11-.35-.22-.66-.3-1a2.39,2.39,0,0,1,.36-2.22.78.78,0,0,1,0,.22,2.63,2.63,0,0,0-.1,2.29A4.94,4.94,0,0,0,34,68.83Z"/><path class="cls-10" d="M31.35,71.66v0a1.05,1.05,0,0,1-.25-1A3,3,0,0,0,31,69.5h0c.29.14.22.39.22.62A4.35,4.35,0,0,0,31.35,71.66Z"/><polygon class="cls-10" points="30.21 67.02 30.22 67 30.22 67.02 30.21 67.02"/><path class="cls-10" d="M31.91,66.9h-.09a1.32,1.32,0,0,0-1.6.1C30.68,66.4,31.2,66.37,31.91,66.9Z"/><path class="cls-10" d="M30.33,68.6A1.27,1.27,0,0,1,30.21,67h0A3.39,3.39,0,0,0,30.33,68.6Z"/><path class="cls-10" d="M32.49,67.8a.34.34,0,0,1-.22-.3.17.17,0,0,1,.1,0A.29.29,0,0,1,32.49,67.8Z"/><path class="cls-10" d="M31.58,72h0a.25.25,0,0,1-.21-.33v0a.4.4,0,0,1,.21.34Z"/><path class="cls-10" d="M31,69.51h0a.6.6,0,0,1-.22-.32,0,0,0,0,1,0,0h0C31,69.19,31,69.35,31,69.51Z"/><path class="cls-10" d="M30.78,69.17h0a0,0,0,0,1,0,0c-.12-.08-.24-.16-.23-.33h0A.3.3,0,0,1,30.78,69.17Z"/><path class="cls-10" d="M30.56,68.83h0c-.14,0-.18-.12-.21-.24C30.48,68.6,30.54,68.7,30.56,68.83Z"/><path class="cls-10" d="M33.29,68.49c-.08,0-.2,0-.24-.12h0l.21.11Z"/><path class="cls-10" d="M33.05,68.37c-.08,0-.19,0-.22-.12h0A.38.38,0,0,1,33.05,68.37Z"/><path class="cls-10" d="M32.15,67.23h0A.2.2,0,0,1,32,67h0A.17.17,0,0,1,32.15,67.23Z"/><path class="cls-10" d="M32.61,68c-.11,0-.12-.14-.12-.23S32.63,67.92,32.61,68Z"/><path class="cls-10" d="M32.84,68.25h0a.11.11,0,0,1-.11-.1C32.8,68.13,32.84,68.18,32.84,68.25Z"/><path class="cls-10" d="M31.7,72.13h0q-.12,0-.12-.12h0a.12.12,0,0,1,.1.11Z"/><path class="cls-10" d="M31.7,72.24s0,0,0-.08,0,0,0,0h0C31.77,72.14,31.79,72.18,31.7,72.24Z"/><path class="cls-10" d="M33.79,65.17c0,.06-.08.14-.17.14a1.51,1.51,0,0,0,.09-.18S33.75,65.18,33.79,65.17Z"/><path class="cls-10" d="M32.26,67.34h0c-.07,0-.1,0-.11-.11h0C32.24,67.22,32.26,67.28,32.26,67.34Z"/><path class="cls-10" d="M32.37,67.47a.17.17,0,0,0-.1,0,.71.71,0,0,1,0-.15h0A.16.16,0,0,1,32.37,67.47Z"/><path class="cls-3" d="M33.85,65.08a.7.7,0,0,1-.06.09s-.06,0-.08,0l.09-.1Z"/><path class="cls-10" d="M32.72,68.15a.15.15,0,0,1-.11-.12C32.7,68,32.72,68.06,32.72,68.15Z"/><path class="cls-23" d="M33.16,43.18a2.54,2.54,0,0,1,3.64-1.52,2.7,2.7,0,0,1,1.46,2.62,2.55,2.55,0,0,1-1.89,2.35,2.45,2.45,0,0,1-3-1.42c0-.26.28-.32.26-.55h0c.06,0,.09-.06.11-.12h0l.14,0a6.81,6.81,0,0,1,1.23.12v1.21a3.07,3.07,0,0,0,1-.05c.08-.39,0-.78.11-1.18h1.16a4.86,4.86,0,0,0,0-1c-.42-.12-.83,0-1.19-.12-.09-.43,0-.85-.08-1.27a3.12,3.12,0,0,0-1,0v1.29H33.74a.11.11,0,0,0-.12-.11h0C33.52,43.24,33.33,43.23,33.16,43.18Z"/><path class="cls-2" d="M29.21,41.38a.21.21,0,0,1,0-.11,4.18,4.18,0,0,1,1,0c.06,0,.21.07.14-.12-.08-.36.11-.75-.14-1.08l-.13,0H28.21a.55.55,0,0,1,.31-.58v.32l1.38.12c.66,0,1.32.08,2,.11,1.89.1,3.79.14,5.68.3a1.07,1.07,0,0,0,1.28-.65c.08-.16.15-.35.34-.43,0,.52-.43.85-.68,1.26-.07.13-.24.08-.37.07l-4.62-.29c-1-.06-2-.09-3-.14a7.12,7.12,0,0,0,.05,1.15c0,.1-.13.1-.22.1Z"/><path class="cls-10" d="M33.62,44.66c0,.23-.31.29-.26.55l-.2,0c0-.1.15-.18.07-.34a8.29,8.29,0,0,1-2.38-.54A8.68,8.68,0,0,0,33.62,44.66Z"/><path class="cls-10" d="M30.67,45a4.81,4.81,0,0,1,1.24.26,2.34,2.34,0,0,0,1.26,0c-.15.24-.39.23-.63.23a1,1,0,0,0-.62.12c0-.21-.11-.23-.27-.24a1.72,1.72,0,0,1-1-.33Z"/><path class="cls-2" d="M33.16,43.18c.17,0,.36.06.46.23a5.82,5.82,0,0,1-2.16-.57,3.54,3.54,0,0,1,1.06.28A1.18,1.18,0,0,0,33.16,43.18Z"/><path class="cls-10" d="M30.79,42.5c-.11,0-.16-.08-.17-.22.39-.26.9-.12,1.3-.35-.12.38-.46.29-.74.34S30.79,42.21,30.79,42.5Z"/><path class="cls-10" d="M30.33,41.36c.09,0,.18,0,.22-.1.46.11,1,0,1.37.34A10.71,10.71,0,0,1,30.33,41.36Z"/><path class="cls-10" d="M31.47,42.85a.81.81,0,0,1-.69-.35A1,1,0,0,1,31.47,42.85Z"/><path class="cls-2" d="M39.4,38.87c.06-.19.09-.41.35-.46C39.7,38.62,39.66,38.83,39.4,38.87Z"/><path class="cls-2" d="M39.75,38.42c0-.18,0-.33.23-.35A.37.37,0,0,1,39.75,38.42Z"/><path class="cls-10" d="M31.92,41.94v-.35C32.17,41.71,32.14,41.82,31.92,41.94Z"/><path class="cls-2" d="M40,38.08c0-.19,0-.33.24-.35A.41.41,0,0,1,40,38.08Z"/><path class="cls-2" d="M39.18,39.22a.37.37,0,0,1,.23-.35C39.43,39.05,39.41,39.2,39.18,39.22Z"/><path class="cls-2" d="M51.09,39.43c.13,0,.17.13.21.28-.19.16-.44.12-.66.19a4.78,4.78,0,0,0-1.56.11,1,1,0,0,0,0,.48v2.8a.44.44,0,0,0,.49.1l4-1.12,4.35-1.06.16,0c0,.22-.15.24-.29.27-2.79.59-5.52,1.35-8.26,2.13a.8.8,0,0,1-.59-.08,6.14,6.14,0,0,0-2.7-.32c.14.5.69.36.93.66,0,.13-.05.19-.16.25,0-.19-.13-.26-.27-.32l-.36-.14c-.19-.09-.32-.22-.28-.44s.26-.24.45-.24a8.23,8.23,0,0,1,2.38.33A22.08,22.08,0,0,0,48.81,40a10.52,10.52,0,0,0-1.37.1c-.7.13-1.42.07-2.13.17s-1.68.15-2.53.21c-.27,0-.35-.16-.31-.4.17.1.3.25.55.21,1.94-.25,3.91-.3,5.86-.52.61-.07,1.24-.1,1.86-.15C50.9,39.65,51.1,39.7,51.09,39.43Z"/><path class="cls-2" d="M43.93,46.23a22.89,22.89,0,0,0-2.69.27,6.45,6.45,0,0,0,0,1.46,17.76,17.76,0,0,0,2.64-.28A8.77,8.77,0,0,0,43.93,46.23Zm-.13,1.34a22.71,22.71,0,0,0-2.3.24,4.46,4.46,0,0,1,0-1.16c.41-.12.79,0,1.17-.14s.75,0,1.14-.15A5.41,5.41,0,0,1,43.8,47.57Z"/><path class="cls-2" d="M44.63,44.88a9,9,0,0,0,2,.1c-.78.41-1.57,0-2.21.28-.14.16,0,.29-.05.42-.28-.21-.3-.34-.09-.53S44.62,45.07,44.63,44.88Z"/><path class="cls-2" d="M47,44.09a3.43,3.43,0,0,1-1.88.46c-.23,0-.51,0-.51.34-.32-.1-.29-.26,0-.41a.92.92,0,0,1,.38-.06C45.66,44.35,46.34,44.22,47,44.09Z"/><path class="cls-2" d="M41.79,39.21c.22,0,.26.16.23.34A.36.36,0,0,1,41.79,39.21Z"/><path class="cls-2" d="M42.25,39.77a.4.4,0,0,1,.23.35C42.22,40.13,42.22,40,42.25,39.77Z"/><path class="cls-2" d="M41.56,38.87c.22,0,.26.16.23.34A.36.36,0,0,1,41.56,38.87Z"/><path class="cls-2" d="M41.34,38.53c.21,0,.25.16.23.34A.32.32,0,0,1,41.34,38.53Z"/><path class="cls-2" d="M42,39.55c.17,0,.21.1.23.23C42.06,39.81,42,39.69,42,39.55Z"/><path class="cls-2" d="M40.77,37.73c.17,0,.2.11.23.23C40.83,38,40.78,37.87,40.77,37.73Z"/><path class="cls-2" d="M41,38a.19.19,0,0,1,.11.23C41,38.16,41,38.07,41,38Z"/><path class="cls-2" d="M41.22,38.3a.17.17,0,0,1,.12.23C41.21,38.5,41.2,38.41,41.22,38.3Z"/><path class="cls-2" d="M41.11,38.19c.08,0,.11,0,.12.11S41.11,38.26,41.11,38.19Z"/><path class="cls-10" d="M29.53,38.08c0-.22.1-.41.35-.46A.71.71,0,0,1,29.53,38.08Z"/><path class="cls-10" d="M30,37.4a.36.36,0,0,1,.23-.33v.11C30.18,37.29,30.15,37.41,30,37.4Z"/><path class="cls-2" d="M28.74,39.22c0-.19,0-.33.23-.35A.36.36,0,0,1,28.74,39.22Z"/><path class="cls-2" d="M28.52,39.44c0-.13,0-.26.22-.23C28.73,39.35,28.69,39.46,28.52,39.44Z"/><path class="cls-2" d="M29.08,38.65c0-.15.05-.26.23-.24C29.29,38.55,29.26,38.67,29.08,38.65Z"/><path class="cls-10" d="M29.87,37.63a.19.19,0,0,1,.12-.24A.18.18,0,0,1,29.87,37.63Z"/><path class="cls-2" d="M30.22,37.18v-.11a.16.16,0,0,1,.12-.13A.19.19,0,0,1,30.22,37.18Z"/><path class="cls-2" d="M29.31,38.42c0-.12,0-.2.12-.23A.19.19,0,0,1,29.31,38.42Z"/><path class="cls-2" d="M29,38.88c0-.12,0-.2.12-.23A.17.17,0,0,1,29,38.88Z"/><path class="cls-2" d="M29.42,38.2c0-.08,0-.13.12-.12A.11.11,0,0,1,29.42,38.2Z"/><path class="cls-2" d="M49.16,36.94c.09,0,.12,0,.12.12S49.17,37,49.16,36.94Z"/><path class="cls-10" d="M28.62,44.54a.46.46,0,0,1,.35.23C28.79,44.79,28.64,44.77,28.62,44.54Z"/><path class="cls-10" d="M29,44.77a.42.42,0,0,1,.35.23C29.13,45,29,45,29,44.77Z"/><path class="cls-10" d="M28.17,44.2c.14,0,.24.07.23.24C28.27,44.42,28.16,44.37,28.17,44.2Z"/><path class="cls-10" d="M27.94,44.09a.19.19,0,0,1,.24.12A.2.2,0,0,1,27.94,44.09Z"/><path class="cls-10" d="M28.4,44.43a.18.18,0,0,1,.23.12A.19.19,0,0,1,28.4,44.43Z"/><path class="cls-4" d="M33.34,44.09a3.38,3.38,0,0,1-2-.41,6.66,6.66,0,0,0,2.21.17c.13-.12.1-.25.13-.35l.1,0h0C33.82,43.86,33.58,44,33.34,44.09Z"/><path class="cls-2" d="M33.34,44.09c.24-.11.48-.23.4-.57h.13a2.54,2.54,0,0,0,0,1l-.14,0C33.79,44.23,33.49,44.23,33.34,44.09Z"/><path class="cls-2" d="M33.74,43.52l-.1,0s0-.06,0-.09A.11.11,0,0,1,33.74,43.52Z"/><path class="cls-10" d="M30.67,45l-.08,0c.08-.06.07,0,.08,0Z"/><path class="cls-10" d="M33.73,44.54c0,.06,0,.11-.11.12Z"/><path class="cls-3" d="M46.74,35.06a5.22,5.22,0,0,1-2.31-.85A6.85,6.85,0,0,1,46.74,35.06Z"/><path class="cls-3" d="M47,34.58a7.83,7.83,0,0,1-2.29-.86A7.07,7.07,0,0,1,47,34.58Z"/><path class="cls-19" d="M44.32,34.74a7.93,7.93,0,0,1,2.31.85A7.39,7.39,0,0,1,44.32,34.74Z"/><path class="cls-2" d="M44.17,33.66c0-.12,0-.27.12-.35C44.29,33.44,44.31,33.58,44.17,33.66Z"/><path class="cls-4" d="M46.89,36.26c0,.1,0,.19-.12.22S46.73,36.27,46.89,36.26Z"/><path class="cls-4" d="M46.79,36.7l-.15,0c0-.08,0-.19.13-.2Z"/><path class="cls-11" d="M40.31,34.28a.09.09,0,0,1,.06-.07c.19,0,.4-.05.58.07s0,.34.16.45a.06.06,0,0,1-.06.06c-.11,0-.23,0-.28.11h0c-.14,0-.3,0-.42-.09S40.35,34.46,40.31,34.28Z"/><path class="cls-3" d="M43.19,32.94a.46.46,0,0,1,0,.73.48.48,0,0,1-.74,0,.6.6,0,0,0,.08-.08c.55,0,.62,0,.61-.61Z"/><path class="cls-3" d="M42.43,33.69c-.32-.27-.17-.54,0-.77a.43.43,0,0,1,.72,0l-.07.06c-.56,0-.63,0-.61.61A.6.6,0,0,1,42.43,33.69Z"/><path class="cls-11" d="M41.34,33.25a.07.07,0,0,1-.06.07c-.11,0-.23,0-.28.11h-.35v-.34a.8.8,0,0,0,.52-.12C41.32,33,41.33,33.13,41.34,33.25Z"/><path class="cls-3" d="M41.11,34.73c-.15-.11-.06-.31-.16-.45s-.39,0-.58-.07a.45.45,0,0,1,.68-.09A.37.37,0,0,1,41.11,34.73Z"/><path class="cls-3" d="M40.31,34.28c0,.18,0,.36,0,.54s.28,0,.42.09a.3.3,0,0,1-.5.13.4.4,0,0,1-.16-.5A1,1,0,0,1,40.31,34.28Z"/><path class="cls-3" d="M42.61,35.39c-.14.15-.31.08-.48.07-.18-.22-.33-.45,0-.71l.08.07c-.11.38.09.46.42.42Z"/><path class="cls-3" d="M40.17,35.66a.44.44,0,0,1,.65.06c.18.21.06.42-.12.58l-.09-.08c.07-.45,0-.48-.36-.46Z"/><path class="cls-3" d="M40.66,33.09v.34c-.31-.25-.32-.47,0-.84a.23.23,0,0,0,.07.07A.78.78,0,0,0,40.66,33.09Z"/><path class="cls-3" d="M41.34,33.25c0-.12,0-.24-.16-.28a.49.49,0,0,0,0-.41.27.27,0,0,1,.07-.08C41.63,32.85,41.63,32.87,41.34,33.25Z"/><path class="cls-3" d="M42.22,34.54c.2-.27.41-.25.63,0l-.08.09a.61.61,0,0,0-.46,0Z"/><path class="cls-3" d="M40.58,36.42c-.17.3-.4.24-.64.1l.08-.09c.19.09.33,0,.49-.1Z"/><path class="cls-3" d="M39.82,36.41c-.14-.21-.14-.4.11-.53L40,36c0,.12-.16.22-.1.37Z"/><path class="cls-3" d="M40.75,32.5a.37.37,0,0,1,.51,0,.27.27,0,0,0-.07.08.7.7,0,0,0-.38,0Z"/><path class="cls-3" d="M43,34.64a.28.28,0,0,1,0,.4.16.16,0,0,1-.08-.06v-.27Z"/><path class="cls-3" d="M40.66,33.43H41C40.88,33.6,40.77,33.62,40.66,33.43Z"/><path class="cls-3" d="M41,33.43c0-.14.17-.12.28-.11A.26.26,0,0,1,41,33.43Z"/><path class="cls-3" d="M40.77,34.9c0-.14.17-.12.28-.11A.23.23,0,0,1,40.77,34.9Z"/><path class="cls-3" d="M42.09,34.75c0-.08,0-.17.13-.21l.09.09-.14.19Z"/><path class="cls-3" d="M39.94,36.52l-.12-.11.09-.08.11.1Z"/><path class="cls-3" d="M40.7,36.3l-.12.12-.07-.09.1-.11Z"/><path class="cls-3" d="M39.93,35.88l.12-.11.08.08L40,36Z"/><path class="cls-3" d="M40.05,35.77l.12-.11.08.1-.12.09Z"/><path class="cls-4" d="M43,35.13l-.12,0-.06-.06.1-.13A.16.16,0,0,0,43,35,.14.14,0,0,0,43,35.13Z"/><path class="cls-3" d="M42.85,34.52l.12.12-.09.07-.11-.1Z"/><path class="cls-3" d="M40.62,32.59l.13-.09.06.06-.12.1A.23.23,0,0,1,40.62,32.59Z"/><path class="cls-3" d="M36.83,34.64c.42.23.51.39.34.65a.66.66,0,0,1-.94.19c-.29-.18-.3-.31,0-.72l.08.07c0,.13-.1.25,0,.37.55,0,.65-.11.49-.5Z"/><path class="cls-3" d="M38.85,34.32c.3.35.29.42-.12.81-.17-.26-.17-.26-.38,0,.12.07.26,0,.38,0-.3.26-.58.1-.81-.09s-.07-.37.08-.52l.1.08,0,.22a2.44,2.44,0,0,0,.68-.19c.12,0,.08-.14,0-.23Z"/><path class="cls-18" d="M37.29,36.33c-.09.42-.45.33-.71.4-.18-.09-.1-.24-.13-.36h0a.11.11,0,0,0,.12-.11h0a2.29,2.29,0,0,1,.69,0Z"/><path class="cls-3" d="M37.26,36.29a2.29,2.29,0,0,0-.69,0C37,36,37,36,37.26,36.29Z"/><path class="cls-3" d="M38.23,34.28c.22-.25.43-.16.62,0l-.08.08a.73.73,0,0,0-.46,0Z"/><path class="cls-3" d="M36.2,34.76a.42.42,0,0,1,.63-.12l-.06.06c-.18,0-.32.1-.49.13Z"/><path class="cls-3" d="M38,34.52a.3.3,0,0,1,.23-.24l.08.09-.21.23Z"/><path class="cls-3" d="M38.47,35.89a.28.28,0,0,1,.41,0l-.06.08-.28,0Z"/><path class="cls-3" d="M38.88,35.87c.08,0,.17,0,.22.12l-.06.08L38.82,36Z"/><path class="cls-3" d="M36.57,36.26a.11.11,0,0,1-.12.11C36.45,36.3,36.49,36.26,36.57,36.26Z"/><path class="cls-3" d="M38.35,36l.12-.11.07.09-.12.08Z"/><path class="cls-10" d="M47.69,36.49a5.23,5.23,0,0,1,.69-1.82A6.58,6.58,0,0,1,47.69,36.49Z"/><path class="cls-2" d="M49.28,36.26c0,.1,0,.19-.12.23S49.13,36.28,49.28,36.26Z"/><path class="cls-2" d="M49.39,36l0,.24h-.09C49.26,36.16,49.24,36.06,49.39,36Z"/><path class="cls-3" d="M41.88,36.12c.24-.2.49-.33.73,0l-.1.11a.59.59,0,0,0-.56,0Z"/><path class="cls-3" d="M41.76,36.86c-.3-.21-.18-.42,0-.62l.09.07a.59.59,0,0,0,0,.47Z"/><path class="cls-3" d="M42.28,36.87a.37.37,0,0,1-.52,0l.07-.08a.59.59,0,0,0,.37,0Z"/><path class="cls-3" d="M42.63,36.53a.27.27,0,0,1-.23.23l-.07-.08.21-.23Z"/><path class="cls-3" d="M42.61,36.12a.25.25,0,0,1,0,.41l-.09-.08a.25.25,0,0,0,0-.22Z"/><path class="cls-3" d="M41.76,36.24l.12-.12.07.09-.1.1Z"/><path class="cls-4" d="M42.61,35.39l0-.15.09,0,0,.06Z"/><path class="cls-4" d="M42.85,35.17l-.12.11,0-.06.11-.11Z"/><path class="cls-3" d="M42.4,36.76l-.12.11-.08-.09.13-.1Z"/><path class="cls-17" d="M38.42,36.06l.12-.08.28,0,.22.12c.08.1.18.2.09.35C38.58,36.49,38.51,36.46,38.42,36.06Z"/><path class="cls-15" d="M65.74,70.54a4,4,0,0,1,.65,1.34c.84,2.18,1.64,4.37,2.35,6.6a2.28,2.28,0,0,1,.19.81l-.13.1c-.88-2.78-1.82-5.55-3-8.26A1,1,0,0,1,65.74,70.54Z"/><path class="cls-2" d="M30.17,36.42a.31.31,0,0,1-.19-.26l.07-.07a.48.48,0,0,1,.19.27Z"/><path class="cls-10" d="M30.35,41.14c.07.19-.08.09-.14.12Z"/><path class="cls-2" d="M30,36.16a.23.23,0,0,1-.13-.21.12.12,0,0,1,0-.05l.15.19Z"/><path class="cls-10" d="M30.08,40l.13,0A.1.1,0,0,1,30.08,40Z"/><path class="cls-2" d="M29.85,36l-.1-.13.06,0,.09.13A.12.12,0,0,0,29.85,36Z"/><path class="cls-21" d="M28.08,28.34c.16.12.46,0,.41.32s-.28.07-.4.21,0,.51-.37.44c-.17-.1-.07-.29-.18-.42l-.44-.16c-.1-.42.24-.35.41-.41s0-.37.16-.53C28.15,27.69,28,28.12,28.08,28.34Z"/><path class="cls-18" d="M29.9,35.9l-.09-.13a2.1,2.1,0,0,0-.49-.65.78.78,0,0,0-.33-.46.93.93,0,0,0-.34-.46l-.1-.29c.7-.19,1.43-.17,2.12-.38a2,2,0,0,1,.63.63,1.26,1.26,0,0,0,.05,1.76.59.59,0,0,0,.21.5c0,.09,0,.19-.15.18a2.71,2.71,0,0,0-.77.1c-.21-.07-.26-.26-.4-.34a.48.48,0,0,0-.19-.27Z"/><path class="cls-3" d="M33.15,32.3C33,32.23,33,32.1,33,32c.25,0,.16.2.2.31Z"/><path class="cls-3" d="M31.81,32.62c.11.06.22.12.18.3-.16,0-.18-.16-.19-.28Z"/><path class="cls-3" d="M31.82,33.21a.31.31,0,0,1,0,.1h-.12V33l0,0,.11.14Z"/><path class="cls-3" d="M31.68,33c-.13-.08-.1-.22-.11-.34v0h.11l0,.33Z"/><path class="cls-3" d="M32.13,32.64c-.06,0-.11-.09-.06-.18s.07.1.09.16Z"/><path class="cls-3" d="M32.16,32.62c.07,0,.1.09.06.17s-.06-.09-.09-.15Z"/><path class="cls-3" d="M31.57,32.64l-.05-.07.06,0Z"/><path class="cls-4" d="M30.89,33.43c-.06,0-.1-.06-.08-.13A.12.12,0,0,1,30.89,33.43Z"/><path class="cls-3" d="M31.8,32.64h-.11c0-.1.08-.1.12,0Z"/><path class="cls-12" d="M31.82,33.21V33.1l.09.09Z"/><path class="cls-1" d="M72.29,27.63c0,.15,0,.31,0,.46v14a1,1,0,0,1-.09.6H64.05a16.87,16.87,0,0,1,.54-3.24.3.3,0,0,1,.13-.18,5,5,0,0,0,3.33-1.83,3.81,3.81,0,0,0,.1-5c-.23-.29-.46-.59-.68-.89a15.22,15.22,0,0,0,2.38-1.93c.57-.51,1.16-1,1.71-1.55A1.65,1.65,0,0,1,72.29,27.63Z"/><path class="cls-7" d="M63.39,23.36a.71.71,0,0,0-.83.22l-.24.15c-.18-.6-.73-.72-1.16-1s-1-.24-1.52-.44a.88.88,0,0,0-.66,0c-.18.07-.27,0-.27-.23s.41-.12.63-.24a5.67,5.67,0,0,1-2.23-2.55c-1.27.95-1.83,1.92-1.65,2.87.75-.49,1.49-.44,1.63.21a2.25,2.25,0,0,0-1.73,0,.53.53,0,0,0,0,.2c0,.85-.05,1.7,0,2.54a4.31,4.31,0,0,0,1.26,3,1.86,1.86,0,0,0,1.29.61A5,5,0,0,0,60.41,28c.15.13,0,.21,0,.28a3.33,3.33,0,0,1-1.7,1c-.3.07-.56.19-.85.26-.06.23,0,.49-.28.65a1.92,1.92,0,0,1,0,.22.94.94,0,0,0,.59,1.27,2.13,2.13,0,0,0,1.27.11,3,3,0,0,0,2.29-1.61c-.25-.28-.14-.62-.18-.93a3.37,3.37,0,0,1,.58-3,.23.23,0,0,0,.07-.14.53.53,0,0,1,.47-.34,1.53,1.53,0,0,0,1.3-1.65A.94.94,0,0,0,63.39,23.36Zm-5.94,0c.15.6-.33,1.07-.34,1.63.12.18.34.11.38.33-.31.11-.51-.06-.72-.27A7.76,7.76,0,0,1,57.45,23.37Zm-1.29.48c-.2-.13-.19-.35-.18-.55a.55.55,0,0,1,.23-.41c.26,0,.35.16.41.34a.52.52,0,0,1-.16.56A.24.24,0,0,1,56.16,23.85Zm1.41,3.06a1.08,1.08,0,0,1-1-.78,3.75,3.75,0,0,1,2.15,0A1,1,0,0,1,57.57,26.91ZM59.2,24c-.38-.41-.37-.6,0-1C59.66,23.28,59.68,23.58,59.2,24Zm3.7.13A2.82,2.82,0,0,0,63,25c-.44-.23-.46-.45-.12-.85.18-.3.39-.27.68-.08A2.14,2.14,0,0,1,62.9,24.13Z"/><path class="cls-1" d="M53.51,18.36h1.66a6.67,6.67,0,0,0-.74,5.28c.14.71.28,1.41.41,2.11a10.14,10.14,0,0,1-.16,3.6,6.29,6.29,0,0,0-.06,2,14.52,14.52,0,0,0-1.13,1.57q0-4.09,0-8.2V18.92C53.48,18.73,53.5,18.55,53.51,18.36Z"/><path class="cls-15" d="M63.56,50.4a5.83,5.83,0,0,1,.34,1.53,15.93,15.93,0,0,1,.23,3.71c-.1,1.11,0,2.23-.12,3.33-.08.81,0,1.62-.11,2.42a29.37,29.37,0,0,0-.09,3.11c0,.27-.13.5-.12.78a4.88,4.88,0,0,0,.17,1.43c.14.18.32-.1.46,0-.29.55-.29.72.39.92-.17.24-.07.45,0,.68.25.47.48.94.72,1.42a.82.82,0,0,1,.15.53c-.22-.06-.25-.28-.33-.44-.27-.51-.53-1-.79-1.56-.1-.2-.17-.42-.41-.52s-.16-.27-.18-.44,0-.31-.36-.47c-.06-.15.14-.2.11-.35a17.93,17.93,0,0,1-.06-3.66c.08-1.77.13-3.53.23-5.29.07-1.11.05-2.22.08-3.33,0-.65.12-.59-.57-.83L63,53.25s0-.06-.06-.13c.35,0,.6.28,1,.22-.12-.75-.22-1.5-.37-2.24a5.31,5.31,0,0,1-.08-.67A.19.19,0,0,0,63.56,50.4Z"/><path class="cls-1" d="M52.81,49.41c.14.12.09.29.08.44a.47.47,0,0,0-.17,0c-.83.43-1.92-.44-1.88-1.44a5.75,5.75,0,0,1,.25-1h0c.07,0,.11,0,.11-.12a1,1,0,0,0,.2-.06,1.4,1.4,0,0,1,1.62,0v.46l-.25-.11a1,1,0,0,0-1.46,1.26C51.53,49.46,52.06,49.65,52.81,49.41Z"/><path class="cls-1" d="M52.92,48a3.51,3.51,0,0,1-.12,1.21,2.11,2.11,0,0,1-.49.14.87.87,0,0,1-.82-.58.84.84,0,0,1,.38-.92A1,1,0,0,1,52.92,48Z"/><path class="cls-22" d="M59.61,38.19l-.29-.06c-.19.18-.23.48-.44.67.71-1.72,1.55-3.37,2.44-5.08.11.24,0,.35-.07.47-.55,1.13-1.16,2.23-1.67,3.39-.09.22-.16.41,0,.61Z"/><path class="cls-22" d="M52.93,38.64c-.15-.1-.15-.28-.23-.42A7.36,7.36,0,0,1,54,34.05c.1.22,0,.39-.13.57-.25.57-.51,1.13-.75,1.7A3.79,3.79,0,0,0,53,38.65Z"/><path class="cls-3" d="M51.09,47.5a5.75,5.75,0,0,0-.25,1c0,1,1,1.87,1.88,1.44a.47.47,0,0,1,.17,0L53,50a1.5,1.5,0,0,1-1.94-.31,1.74,1.74,0,0,1-.32-1.88C50.82,47.64,50.87,47.46,51.09,47.5Z"/><path class="cls-3" d="M52.92,48a1,1,0,0,0-1.05-.15.84.84,0,0,0-.38.92.87.87,0,0,0,.82.58,2.11,2.11,0,0,0,.49-.14v.24c-.75.24-1.28.05-1.5-.53a1,1,0,0,1,1.46-1.26l.25.11A.23.23,0,0,1,52.92,48Z"/><path class="cls-3" d="M53,47.27a1.4,1.4,0,0,0-1.62,0,1,1,0,0,1-.2.06,1.17,1.17,0,0,1,1.41-.52L53,47Z"/><path class="cls-22" d="M62.17,39.69a6.92,6.92,0,0,1,1.38.64l0,.11-1.36-.64Z"/><path class="cls-22" d="M61.48,39.36a.94.94,0,0,1-.6-.3A.83.83,0,0,1,61.48,39.36Z"/><path class="cls-22" d="M53.44,39.74a.73.73,0,0,1-.31-.64A1.11,1.11,0,0,1,53.44,39.74Z"/><path class="cls-22" d="M60.27,38.69a.62.62,0,0,1,.44.17C60.67,39,60.65,39,60.27,38.69Z"/><path class="cls-22" d="M60,38.45a.12.12,0,0,1,.11.1.1.1,0,0,1-.06.05s-.09,0-.1-.09Z"/><path class="cls-22" d="M59.6,38.19a.2.2,0,0,1,.21.16c-.16,0-.19-.05-.2-.16Z"/><path class="cls-22" d="M61.48,33.64c0-.08,0-.14.05-.17s0,0,0,0S61.55,33.6,61.48,33.64Z"/><path class="cls-22" d="M52.93,38.64H53l0,.23A.19.19,0,0,1,52.93,38.64Z"/><path class="cls-22" d="M53.14,39.1c-.13,0-.1-.14-.12-.23S53.12,39,53.14,39.1Z"/><path class="cls-22" d="M61.71,39.47l0,0,0,0s0,0,0,0Z"/><path class="cls-22" d="M61.93,39.58l0,0,0,0,0,0Z"/><path class="cls-24" d="M59.61,38.19l-.29-.06c-.19.18-.23.48-.44.67.71-1.72,1.55-3.37,2.44-5.08.11.24,0,.35-.07.47-.55,1.13-1.16,2.23-1.67,3.39-.09.22-.16.41,0,.61Z"/><path class="cls-24" d="M52.93,38.64c-.15-.1-.15-.28-.23-.42A7.36,7.36,0,0,1,54,34.05c.1.22,0,.39-.13.57-.25.57-.51,1.13-.75,1.7A3.79,3.79,0,0,0,53,38.65Z"/><path class="cls-24" d="M62.17,39.69a6.92,6.92,0,0,1,1.38.64l0,.11-1.36-.64Z"/><path class="cls-24" d="M61.48,39.36a.94.94,0,0,1-.6-.3A.83.83,0,0,1,61.48,39.36Z"/><path class="cls-24" d="M53.44,39.74a.73.73,0,0,1-.31-.64A1.11,1.11,0,0,1,53.44,39.74Z"/><path class="cls-24" d="M60.27,38.69a.62.62,0,0,1,.44.17C60.67,39,60.65,39,60.27,38.69Z"/><path class="cls-24" d="M60,38.45a.12.12,0,0,1,.11.1.1.1,0,0,1-.06.05s-.09,0-.1-.09Z"/><path class="cls-24" d="M59.6,38.19a.2.2,0,0,1,.21.16c-.16,0-.19-.05-.2-.16Z"/><path class="cls-24" d="M61.48,33.64c0-.08,0-.14.05-.17s0,0,0,0S61.55,33.6,61.48,33.64Z"/><path class="cls-24" d="M52.93,38.64H53l0,.23A.19.19,0,0,1,52.93,38.64Z"/><path class="cls-24" d="M53.14,39.1c-.13,0-.1-.14-.12-.23S53.12,39,53.14,39.1Z"/><path class="cls-24" d="M61.71,39.47l0,0,0,0s0,0,0,0Z"/><path class="cls-24" d="M61.93,39.58l0,0,0,0,0,0Z"/><path class="cls-15" d="M61.75,52.16a1.7,1.7,0,0,1-.6-1.09,2,2,0,0,1,.62,1.06Z"/><path class="cls-15" d="M61.77,52.13a1,1,0,0,1,.68.69l0,0a1,1,0,0,1-.68-.68Z"/><path class="cls-15" d="M62.45,52.82l.22,0s.08.06.07.16c-.16.08-.23,0-.31-.16Z"/><path class="cls-15" d="M65.62,70.31c.11,0,.12.12.11.22S65.62,70.4,65.62,70.31Z"/><path class="cls-16" d="M65.74,70.54a4,4,0,0,1,.65,1.34c.84,2.18,1.64,4.37,2.35,6.6a2.28,2.28,0,0,1,.19.81l-.13.1c-.88-2.78-1.82-5.55-3-8.26A1,1,0,0,1,65.74,70.54Z"/><path class="cls-16" d="M63.56,50.4a5.83,5.83,0,0,1,.34,1.53,15.93,15.93,0,0,1,.23,3.71c-.1,1.11,0,2.23-.12,3.33-.08.81,0,1.62-.11,2.42a29.37,29.37,0,0,0-.09,3.11c0,.27-.13.5-.12.78a4.88,4.88,0,0,0,.17,1.43c.14.18.32-.1.46,0-.29.55-.29.72.39.92-.17.24-.07.45,0,.68.25.47.48.94.72,1.42a.82.82,0,0,1,.15.53c-.22-.06-.25-.28-.33-.44-.27-.51-.53-1-.79-1.56-.1-.2-.17-.42-.41-.52s-.16-.27-.18-.44,0-.31-.36-.47c-.06-.15.14-.2.11-.35a17.93,17.93,0,0,1-.06-3.66c.08-1.77.13-3.53.23-5.29.07-1.11.05-2.22.08-3.33,0-.65.12-.59-.57-.83L63,53.25s0-.06-.06-.13c.35,0,.6.28,1,.22-.12-.75-.22-1.5-.37-2.24a5.31,5.31,0,0,1-.08-.67A.19.19,0,0,0,63.56,50.4Z"/><path class="cls-16" d="M61.75,52.16a1.7,1.7,0,0,1-.6-1.09,2,2,0,0,1,.62,1.06Z"/><path class="cls-16" d="M61.77,52.13a1,1,0,0,1,.68.69l0,0a1,1,0,0,1-.68-.68Z"/><path class="cls-16" d="M62.45,52.82l.22,0s.08.06.07.16c-.16.08-.23,0-.31-.16Z"/><path class="cls-16" d="M65.62,70.31c.11,0,.12.12.11.22S65.62,70.4,65.62,70.31Z"/><path class="cls-3" d="M51.21,47.38c0,.08,0,.11-.11.12S51.12,47.37,51.21,47.38Z"/><path class="cls-13" d="M46.55,86.19s0,0,0,0l0,0Z"/><path class="cls-14" d="M42.58,87l0,.35h.52q12.3,0,24.6,0c.94,0,1.88.1,2.82.09a.24.24,0,0,1,.24.12H42A1.09,1.09,0,0,1,42.58,87Z"/><path class="cls-14" d="M70.92,81.73c0-.07,0-.15.12-.19h3.51a2.52,2.52,0,0,1,.1,1.35c-.09,1.3,0,2.6-.06,3.89,0,.19.09.44-.23.48.11-1.8.12-3.61.09-5.48Z"/><path class="cls-14" d="M71.8,87.44c.17-.17.39-.1.59-.11a16.37,16.37,0,0,0,2-.06c.26.24.06.27-.13.28-.52,0-1,0-1.57,0C72.38,87.54,72.07,87.65,71.8,87.44Z"/><path class="cls-14" d="M46,84.37c-.16.24-.31.51-.68.45C45.49,84.6,45.64,84.34,46,84.37Z"/><path class="cls-14" d="M45.3,84.82a.47.47,0,0,1-.56.46A1,1,0,0,1,45.3,84.82Z"/><path class="cls-14" d="M44.74,85.28a.47.47,0,0,1-.57.45A.89.89,0,0,1,44.74,85.28Z"/><path class="cls-14" d="M46.89,83.58a.47.47,0,0,1-.57.45A.92.92,0,0,1,46.89,83.58Z"/><path class="cls-14" d="M43,86.64c0,.3-.19.37-.45.34A.6.6,0,0,1,43,86.64Z"/><path class="cls-14" d="M47.46,83.12c0,.24-.12.34-.34.34C47.11,83.23,47.27,83.16,47.46,83.12Z"/><path class="cls-14" d="M46.33,84c0,.24-.12.34-.35.34C46,84.13,46.13,84.06,46.33,84Z"/><path class="cls-14" d="M44.17,85.73c0,.24-.12.34-.34.34C43.82,85.83,44,85.77,44.17,85.73Z"/><path class="cls-14" d="M43.6,86.18c0,.24-.12.34-.34.35C43.25,86.29,43.41,86.22,43.6,86.18Z"/><path class="cls-14" d="M47.12,83.46c0,.13-.12.14-.23.12A.16.16,0,0,1,47.12,83.46Z"/><path class="cls-14" d="M43.83,86.07c0,.13-.12.14-.23.12A.16.16,0,0,1,43.83,86.07Z"/><path class="cls-14" d="M43.26,86.52c0,.13-.12.14-.23.12A.16.16,0,0,1,43.26,86.52Z"/><path class="cls-14" d="M70.11,82.75a.71.71,0,0,1,.26-.31c.14.19.34.11.52.11h1.78c-.1,1.32-.38,2.55-.6,3.83H46.13c0-.3.27-.32.41-.45l0,0,0,.2,0,0s0,0,0,0c1,0,2,.11,2.94.09.67,0,1.34,0,2,0,6.62-.17,13.24,0,19.87-.09.54,0,.52,0,.61-.55.13-.79.28-1.58.42-2.37a3.07,3.07,0,0,0,0-.43C71.64,82.69,70.87,82.86,70.11,82.75Z"/><path class="cls-14" d="M58.12,82.54l8.74,0a.24.24,0,0,1-.1.23H58.13Z"/><path class="cls-14" d="M55.56,82.57a.52.52,0,0,1-.35.23l-4.81,0a.72.72,0,0,0-.5.22c-.19.18-.32.43-.61.48l0,0a1.48,1.48,0,0,1,1.45-.91C52.32,82.59,53.94,82.56,55.56,82.57Z"/><path class="cls-14" d="M48.39,84.28a2,2,0,0,1-.91.91l0,0a2,2,0,0,1,.92-.89Z"/><path class="cls-14" d="M46.87,85.7a.23.23,0,0,1,.23-.22l0,0a.54.54,0,0,1-.23.22Z"/><path class="cls-14" d="M46.91,85.75a.24.24,0,0,1-.21.13l-.05,0a.29.29,0,0,1,.22-.13Z"/><path class="cls-14" d="M47.48,85.19l-.11.11s0,0,0,0l.11-.12Z"/><path class="cls-14" d="M47.21,85.37l.12-.11s0,0,0,0l-.12.11S47.23,85.38,47.21,85.37Z"/><path class="cls-14" d="M47.1,85.48l.11-.11s0,0,0,0l-.11.12Z"/><path class="cls-14" d="M46.7,85.88l-.12.11,0,0,.11-.11Z"/><path class="cls-14" d="M46.55,86.19s0,0,0,0l0,0Z"/><path class="cls-20" d="M37.26,71.45h0s0,0,0,0Z"/><path class="cls-20" d="M38.49,67.74a1.33,1.33,0,0,1-.26.27,1.89,1.89,0,0,0-.85,1.85,5.55,5.55,0,0,1,0,1.35h0a.34.34,0,0,0-.13.23.25.25,0,0,0-.1.21.14.14,0,0,0-.11.11h0a1,1,0,0,0-.35.68,1.83,1.83,0,0,1-.67-.08V70.76c.14-.09.1-.22.1-.36V64.06c0-.11,0-.23-.1-.29s-.1.24-.1.35c0,.48,0,.95,0,1.42,0,1.74,0,3.47,0,5.21,0,.46,0,.91,0,1.38,0,.15,0,.3-.19.33a.62.62,0,0,0-.48-.34.2.2,0,0,0-.12-.23.83.83,0,0,0-.34-.45c-.07-.47,0-.94,0-1.41,0-.28,0-.6-.33-.74,0-.32-.15-.46-.45-.46a4.94,4.94,0,0,1-.48-1,2.63,2.63,0,0,1,.1-2.29.78.78,0,0,0,0-.22c.09,0,.12-.08.17-.14a.7.7,0,0,0,.06-.09,1.89,1.89,0,0,0,.67-1.43c0-.38,0-.78,0-1.17A1.81,1.81,0,0,1,35,61c0-.05,0-.15.08-.22a2.29,2.29,0,0,1,1.44,0l.15,0a.12.12,0,0,0,.11.11.13.13,0,0,0,.11.12,2.94,2.94,0,0,1,.47,2.06,7.85,7.85,0,0,0,0,1,.77.77,0,0,0,.32.7v0h0a.46.46,0,0,0,.23.45v.06A3.29,3.29,0,0,1,38.49,67.74Z"/><path class="cls-20" d="M42,66.21a.91.91,0,0,0-1.11-.5c-.21.06-.37.19-.59.17h0a.19.19,0,0,1-.22.21h0v0a.45.45,0,0,1-.22.44c-.13.28-.09.65-.45.79a.21.21,0,0,1-.23.23c0,.22-.18.22-.34.23s-.14.1-.23.11a2,2,0,0,0-1,1.7c0,.36,0,.71,0,1.07s0,.42-.21.53a1,1,0,0,1,0,.18l-.06,0h0a.24.24,0,0,1,0,.09.15.15,0,0,1,0,.08l-.06,0c0,.06,0,.1-.11.11h0c0,.26-.22.42-.21.68h1.33a14.64,14.64,0,0,1,1.45-3.29.34.34,0,0,1,.24-.21,2.66,2.66,0,0,1-.4.85,15.76,15.76,0,0,0-1,2.31c0,.11,0,.23-.05.34a6.06,6.06,0,0,0,1.7-.11.22.22,0,0,1,.23-.11h0a.22.22,0,0,1,.23-.22c0-.06.05-.09.11-.12a.17.17,0,0,1,.12-.11,2.38,2.38,0,0,0,.42-1.92,1.76,1.76,0,0,1,.33-1.58,5.41,5.41,0,0,0,.48-.76A1.44,1.44,0,0,0,42,66.21Zm-2.16,2.63a.55.55,0,0,0,0-.17.75.75,0,0,0,.06-.13.31.31,0,0,1,.23-.17A.62.62,0,0,1,39.86,68.84Zm.35-.48a.26.26,0,0,1,.16-.32A.25.25,0,0,1,40.21,68.36Zm.3-.45s0,0,0-.08a.1.1,0,0,1,.11-.1s0,0,0,.07A.14.14,0,0,1,40.51,67.91Z"/><path class="cls-10" d="M35.92,70.75c0-1.74,0-3.47,0-5.21q0-.71,0-1.41c0-.12-.06-.27.09-.35s.12.18.12.28V70.4c0,.13,0,.27-.11.36Z"/><path class="cls-10" d="M38.14,72.46a14.93,14.93,0,0,1,1.46-3.29c0-.08.08-.18.24-.21a2.9,2.9,0,0,1-.4.85,15,15,0,0,0-1,2.32,1.75,1.75,0,0,0-.05.33Z"/><path class="cls-10" d="M35.2,72.12a.58.58,0,0,1,.5.33h-.46A.53.53,0,0,0,35.2,72.12Z"/><path class="cls-10" d="M37,71.77c0,.26-.22.44-.21.69h-.15A1,1,0,0,1,37,71.77Z"/><path class="cls-10" d="M34,72.45v-.22h0c.16,0,.19.12.26.21Z"/><path class="cls-10" d="M34.41,69.28c.35.14.3.48.33.76,0,.46-.05.93,0,1.4-.33-.1-.23-.38-.18-.56A2.66,2.66,0,0,0,34.41,69.28Z"/><path class="cls-10" d="M34,72.23a1.25,1.25,0,0,1-.39-.75,1,1,0,0,1,.39.76Z"/><path class="cls-10" d="M33.47,71.28c-.25-.13-.29-.37-.38-.59C33.34,70.82,33.39,71.06,33.47,71.28Z"/><path class="cls-10" d="M34,68.83a.41.41,0,0,1,.46.46Z"/><path class="cls-10" d="M34.75,71.43a.94.94,0,0,1,.35.46C34.82,71.87,34.74,71.68,34.75,71.43Z"/><path class="cls-10" d="M32.82,70.19l.16.14a.74.74,0,0,1,0,.14c-.11.07-.14,0-.16-.07a.76.76,0,0,1,0-.21Z"/><path class="cls-10" d="M31.91,68.83c.12,0,.12.13.12.23h0c-.11,0-.11-.13-.11-.23Z"/><path class="cls-10" d="M32.14,69.17c.11,0,.12.13.11.23h0c-.11,0-.12-.13-.11-.22Z"/><path class="cls-10" d="M32.49,69.73a.17.17,0,0,1-.11-.22h0c.11,0,.12.13.11.23Z"/><path class="cls-10" d="M32.71,70.07c-.11,0-.12-.13-.11-.22h0c.11,0,.12.13.11.23Z"/><path class="cls-10" d="M35.09,71.89a.18.18,0,0,1,.12.23A.18.18,0,0,1,35.09,71.89Z"/><path class="cls-10" d="M31.64,68.4l0,0s0,0,0,0,0,0,0,0Z"/><path class="cls-10" d="M31.81,68.71l-.08,0c.1-.07.06,0,.07.06Z"/><path class="cls-10" d="M31.92,68.82c-.08,0-.1,0-.11-.11h0a.1.1,0,0,1,.11.11Z"/><path class="cls-10" d="M32,69.06c.07,0,.1,0,.11.11h0c-.08,0-.1,0-.12-.12Z"/><path class="cls-10" d="M32.38,69.51c-.08,0-.11-.05-.12-.12h0a.11.11,0,0,1,.12.11Z"/><path class="cls-10" d="M32.6,69.85c-.08,0-.1,0-.11-.12h0a.11.11,0,0,1,.12.11Z"/><path class="cls-10" d="M32.83,70.19c-.08,0-.11,0-.12-.12h0a.1.1,0,0,1,.11.11Z"/><path class="cls-1" d="M72.28,21.28l0,4.89c-.08,0-.17,0-.21.06-.67.66-1.4,1.24-2.1,1.86s-1.24,1.14-1.91,1.64c-.33.24-.53.64-1,.75a3.13,3.13,0,0,1,.2-1.22,2.71,2.71,0,0,0-.7-2.72,2.65,2.65,0,0,1-.21-.26c.89-.78,1.76-1.58,2.63-2.37S71,22.3,71.88,21.43A.52.52,0,0,1,72.28,21.28Z"/><path class="cls-21" d="M72.28,21.28a.52.52,0,0,0-.4.15C71,22.3,70,23.07,69,23.91s-1.74,1.59-2.63,2.37a3.43,3.43,0,0,1-1.32-2.38A10.23,10.23,0,0,0,67,22.36c1.33-1.25,2.74-2.4,4.1-3.62.11-.1.24-.19.25-.36a4.57,4.57,0,0,1,1,0Z"/><path class="cls-1" d="M71.3,18.38c0,.17-.14.26-.25.36C69.69,20,68.28,21.11,67,22.36a10.23,10.23,0,0,1-1.86,1.54A10.52,10.52,0,0,1,65,22a7.24,7.24,0,0,0-.8-3.48c.27-.27.65-.18,1-.18C67.23,18.35,69.26,18.31,71.3,18.38Z"/><path class="cls-21" d="M67.12,30.48c.43-.11.63-.51,1-.75.67-.5,1.28-1.09,1.91-1.64s1.43-1.2,2.1-1.86c0,0,.13,0,.21-.06a11.85,11.85,0,0,1,0,1.46,1.65,1.65,0,0,0-.73.5c-.55.54-1.14,1-1.71,1.55a15.22,15.22,0,0,1-2.38,1.93A1.47,1.47,0,0,1,67.12,30.48Z"/><path class="cls-5" d="M57.87,28.68A5,5,0,0,0,60.41,28c.15.13,0,.21,0,.28a3.23,3.23,0,0,1-1.69,1c-.29.07-.57.18-.85.26A3,3,0,0,0,57.87,28.68Z"/><path class="cls-17" d="M66,51.89l5.61,0a2.2,2.2,0,0,1,.71.05V73.27H67.89A30.46,30.46,0,0,0,65.25,67a3.47,3.47,0,0,1-.35-2.24c.1-.63.08-1.28.13-1.91.13-1.58.3-3.15.44-4.72.09-.94.21-1.87.28-2.81,0-.66.1-1.31.09-2a3.47,3.47,0,0,0-.08-1C65.71,52.2,65.63,51.94,66,51.89Z"/><path class="cls-17" d="M49.07,40.49a1,1,0,0,1,0-.48,4.78,4.78,0,0,1,1.56-.11c0,.2-.13.29-.32.33C49.9,40.3,49.5,40.46,49.07,40.49Z"/><path class="cls-10" d="M38.61,67.92a2,2,0,0,0-1,1.71c0,.35,0,.71,0,1.06s0,.42-.22.53a5.16,5.16,0,0,0,0-1.36A1.88,1.88,0,0,1,38.23,68a2.23,2.23,0,0,0,.26-.27C38.49,67.83,38.51,67.9,38.61,67.92Z"/><path class="cls-6" d="M33.87,44.52a2.54,2.54,0,0,1,0-1h1.22V42.24a3.12,3.12,0,0,1,1,0c.12.42,0,.84.08,1.27.36.16.77,0,1.19.12a4.86,4.86,0,0,1,0,1H36.18c-.16.4,0,.79-.11,1.18a3.07,3.07,0,0,1-1,.05V44.64A6.81,6.81,0,0,0,33.87,44.52Z"/><path class="cls-5" d="M41.46,46.65c.41-.12.8,0,1.17-.14s.75,0,1.13-.15a4.07,4.07,0,0,1,0,1.21,20,20,0,0,0-2.3.25A4.56,4.56,0,0,1,41.46,46.65Z"/><path class="cls-1" d="M42.51,33.61c0-.56.05-.63.61-.61C43.13,33.56,43.06,33.64,42.51,33.61Z"/><path class="cls-1" d="M40.69,32.66l.12-.1a.7.7,0,0,1,.38,0,.49.49,0,0,1,0,.41.8.8,0,0,1-.52.12A.78.78,0,0,1,40.69,32.66Z"/><path class="cls-1" d="M42.79,35.11l-.11.11-.09,0c-.33,0-.53,0-.42-.42l.14-.19a.61.61,0,0,1,.46,0l.11.1V35Z"/><path class="cls-1" d="M40.13,35.85l.12-.09c.4,0,.43,0,.36.46l-.1.11c-.16.06-.3.19-.49.1l-.11-.1c-.06-.15.08-.25.1-.37Z"/><path class="cls-17" d="M36.28,34.83c.17,0,.31-.14.49-.13.16.39.06.49-.49.5C36.18,35.08,36.24,35,36.28,34.83Z"/><path class="cls-1" d="M38.1,34.6l.21-.23a.73.73,0,0,1,.46,0c0,.09.09.2,0,.23a2.44,2.44,0,0,1-.68.19Z"/><path class="cls-20" d="M38.73,35.13c-.12,0-.26,0-.38,0,.21-.22.21-.22.38,0Z"/><path class="cls-17" d="M42.33,36.68l-.13.1a.59.59,0,0,1-.37,0,.59.59,0,0,1,0-.47l.1-.1a.59.59,0,0,1,.56,0,.25.25,0,0,1,0,.22Z"/><path class="cls-6" d="M58.69,26.09a1.12,1.12,0,0,1-2.15,0A3.75,3.75,0,0,1,58.69,26.09Z"/><path class="cls-5" d="M57.11,25c.12.17.34.1.39.31-.31.11-.52-.05-.73-.26a8.5,8.5,0,0,1,.67-1.69C57.6,24,57.12,24.44,57.11,25Z"/><path class="cls-2" d="M56.21,22.89c.26,0,.35.16.4.34a.51.51,0,0,1-.14.56.25.25,0,0,1-.31.06c-.2-.13-.19-.34-.18-.55A.56.56,0,0,1,56.21,22.89Z"/><path class="cls-9" d="M59.2,24c-.38-.42-.38-.61,0-1C59.66,23.27,59.67,23.57,59.2,24Z"/><path class="cls-5" d="M62.9,24.13A3.11,3.11,0,0,0,63,25c-.43-.23-.45-.45-.11-.86Z"/><path class="cls-5" d="M62.89,24.11c.18-.29.39-.26.68-.07-.26.13-.47.05-.67.09Z"/><path class="cls-10" d="M37.37,71.21c0,.09,0,.2-.12.23A.29.29,0,0,1,37.37,71.21Z"/><path class="cls-10" d="M37.25,71.43c0,.1,0,.19-.12.24A.29.29,0,0,1,37.25,71.43Z"/><path class="cls-10" d="M37.14,71.66c0,.06,0,.12-.12.12S37.07,71.67,37.14,71.66Z"/><path class="cls-10" d="M40.2,68.37a.59.59,0,0,1-.34.47c.09-.23.09-.43.35-.46Z"/><path class="cls-10" d="M40.21,68.38a.26.26,0,0,1,.16-.34c.05.18,0,.26-.17.33Z"/><path class="cls-10" d="M40.51,67.9s0-.05,0-.07a.11.11,0,0,1,.11-.1s0,0,0,.07A.09.09,0,0,1,40.51,67.9Z"/><rect class="cls-25" x="76.62" y="24.38" width="0.2" height="9.05"/><path class="cls-26" d="M55.21,81.27l.15.19a0,0,0,0,0,0,0"/><path class="cls-26" d="M55.46,81.89h0s0,0,0,.07"/><path class="cls-13" d="M67.22,81.56c0,.07,0,.13,0,.2H58.47s0,0,0,0a.52.52,0,0,0,0-.22,1.65,1.65,0,0,0,.69,0Z"/><path class="cls-14" d="M67.22,81.56c0,.07,0,.13,0,.2H58.47s0,0,0,0a.52.52,0,0,0,0-.22,1.65,1.65,0,0,0,.69,0Z"/><path class="cls-26" d="M58.51,81.36a.76.76,0,0,1,0,.14"/><path class="cls-26" d="M58.47,81.76a.55.55,0,0,1-.12.16l0,0"/><polygon class="cls-3" points="40.67 79.33 40.62 79.58 40.56 79.84 40.4 80.66 40.51 79.87 40.51 79.84 40.55 79.58 40.55 79.56 40.67 79.33"/><path class="cls-7" d="M24.27,15.91l-1-.31A24.74,24.74,0,0,1,22,13.47c.1,0,.59-.68,1-.62s1.91.17,1.91.17l2.9,0,.47.49a13,13,0,0,1,0,1.86,1.22,1.22,0,0,1-.3.74L26.62,16l-.27.05-.41,0-2.32,0Z"/><path class="cls-7" d="M55.33,22.45a4.59,4.59,0,0,1,.15-1.1c.11-.22.67-.39.67-.39l1,.36.13,0,1,.09,1.09.39s.53.62.81.67a1,1,0,0,1,.5.39l-.36,2.9L60,27.42l-3.21.32L55.91,26Z"/><polyline class="cls-26" points="31.52 80.37 31.44 79.96 31.37 79.59 31.36 79.51 31.24 79.12"/></svg>