<svg id="Layer_1" data-name="Layer 1" xmlns="http://www.w3.org/2000/svg" viewBox="0 0 160 160"><defs><style>.cls-1{fill:#fff;}.cls-2{fill:#b1c2d5;}.cls-3{fill:#bfc5cf;}.cls-4{fill:#cfd2db;}.cls-5{fill:#fdfefe;}.cls-6{fill:#dc5e5c;}.cls-7{fill:#7fb387;}.cls-8{fill:#96aabe;}.cls-9{fill:#cb5050;}.cls-10{fill:#a8b1be;}.cls-11{fill:#8599af;}.cls-12{fill:#e1e6f1;}.cls-13{fill:#e9a090;}.cls-14{fill:#3f4054;}.cls-15{fill:#e4837c;}.cls-16{fill:#cfe1ef;}.cls-17{fill:#e4eff9;}.cls-18{fill:#f7aa66;}.cls-19{fill:#ef7216;}.cls-20{fill:#363648;}</style></defs><title>Order Medicines</title><path class="cls-1" d="M-2.64-2.46V164H163.83V-2.46Zm51.42,139.8h0a1.06,1.06,0,0,0,.62,0,11.74,11.74,0,0,0,1.23-2.13,1.88,1.88,0,0,0,1-.63,1.07,1.07,0,0,1,.88-.48c1.69.09,3.35-.26,5.05-.2,2,.07,3.95,0,5.93,0a1.24,1.24,0,0,0,.54,0,6.7,6.7,0,0,0,1.09,2.29l.07.16a1.89,1.89,0,0,1-.34-.35c-.19-.25-.54-.18-.81-.11-.8.21-1.62.2-2.42.34a29.94,29.94,0,0,0-4.79,1c-.39.13-.9.18-1,.73H48.61C48.56,137.7,48.73,137.54,48.78,137.34Z"/><path class="cls-2" d="M6.7,132.34h7.76a9.83,9.83,0,0,0,2.48-.16,8.84,8.84,0,0,0,1,3.47,1.85,1.85,0,0,1-.65.18,2.1,2.1,0,0,0-1.44.71,2.3,2.3,0,0,0,1.33.79,26.27,26.27,0,0,0,4.67.58,43,43,0,0,0,5.68-.19,15.81,15.81,0,0,0,3.18-.68c.28-.11.43-.26.41-.56a.48.48,0,0,0-.41-.48,5.59,5.59,0,0,0-1.67-.35,1,1,0,0,1,.17-.66,5.68,5.68,0,0,0,.76-2.69,37,37,0,0,1,3.94-.11.32.32,0,0,0,.37.15,9.15,9.15,0,0,1,2.56-.16H44l-.52,1.4c-2.07,0-4.15-.09-6.23.13a.75.75,0,0,0-.73.47c-.17.43-.36.85-.56,1.27-1.18,2.56-2.38,5.13-3.57,7.69a.88.88,0,0,0-.11.78,1,1,0,0,0,.31.06c2.13-.08,4.26,0,6.4-.13,2.36-.17,4.73,0,7.1-.19,1.9-.14,3.81,0,5.71-.16s3.92,0,5.89-.18,4.21,0,6.31-.17,4.33,0,6.5-.18c1.69-.15,3.4,0,5.1-.16,1.92-.17,3.86,0,5.8-.19,2.12-.16,4.26,0,6.4-.16,2.36-.13,4.73-.08,7.1-.21.23,0,.47,0,.89,0-.34-.25-.49-.38-.66-.48-3-1.79-6-3.56-9-5.38-1.55-.94-3.18-1.75-4.65-2.82a3.49,3.49,0,0,1,1,.12c1.12.33,2.26.62,3.39.9,3.27.79,6.55,1.55,9.82,2.35,2.38.58,4.74,1.24,7.15,1.66.81-.09,1.67.24,2.43-.3v-5.95l8.6,0c.19,1.07-.07,2.18.32,3.28l.6.24,0,.67c-.84.17-1,1-1.6,1.47,1.25.71,1.33.81,1.32,1.5-1.61-1.37-1.61-1.37-2.2-.9.53.32,1.18.55,1.2,1.53-.68-.58-1-1.45-2.08-1.18.36.52,1.16.71.92,1.51-.28,0-.29-.21-.39-.35a1.34,1.34,0,0,0-1.91-.57l-2.39,1c-.1-.25-.29-.22-.5-.14a8.57,8.57,0,0,1-1.16.3,9.56,9.56,0,0,0-2.83,1c-1,.57-1,1.35,0,1.91a7.83,7.83,0,0,0,1.17.55,30.17,30.17,0,0,0,6.36,1.36c1.85.22,3.71.34,5.57.5,1.51.14,3,.11,4.57.17a49.44,49.44,0,0,0,6-.1c1.8-.15,3.61-.21,5.41-.36a53,53,0,0,0,5.62-.73,15.16,15.16,0,0,0,4.57-1.46c.91-.51,1-1.25.09-1.76a8.43,8.43,0,0,0-3.23-1.13c0-.46.2-1-.17-1.38a25.75,25.75,0,0,0-1-2.7c-.16-.29-.26-.66-.71-.64l0-1a1,1,0,0,0,.57-1,7,7,0,0,1,0-1.59h17.86a13.91,13.91,0,0,1-1,3.29,23.44,23.44,0,0,1-3.19,5.72,17.23,17.23,0,0,1-6.82,5.27,36.72,36.72,0,0,1-8.48,2.24q-2.81.46-5.62.79a55.78,55.78,0,0,1-6.47.42q-46.64,0-93.28,0c-.87,0-1.74,0-2.6,0a16.86,16.86,0,0,1-6.73-1.31,21.63,21.63,0,0,1-6.81-4.35,31.33,31.33,0,0,1-6.65-8.85C7.63,134.5,7.14,133.43,6.7,132.34Z"/><path class="cls-3" d="M154.05,56.3c-.84.08-.94.1-.84.83a3,3,0,0,1-.85,2.35c-.94,1.23-1.86,2.48-2.79,3.72-.46.62-.74.74-1.37.32-1.1-.73-2.18-1.5-3.21-2.33-.63-.5-.59-.86-.09-1.54.91-1.26,1.87-2.48,2.72-3.78a2.73,2.73,0,0,1,2.79-1.46c-.11.39-.51.42-.77.44-.8,0-1.19.54-1.61,1.12-.69,1-1.36,2-2.14,2.92a4.56,4.56,0,0,0-1.06,1.64,21.51,21.51,0,0,0,3.56,2.65c.41.25.73,0,1-.36.9-1.26,1.8-2.52,2.8-3.7a2,2,0,0,0,.55-2.14c-.08-.22,0-.39.14-.56a.82.82,0,0,0,.08-.71c-.54-.4-1.14-.8-1.69-1.26a.64.64,0,0,0-.85-.05,1.76,1.76,0,0,1,.65-2.06,8,8,0,0,1,1.74,1.08,7.1,7.1,0,0,0,1.59,1c.48.69.48.83,0,1.48Zm-2.88-3.52c-.46.47-.53.83,0,1.17l2.67,1.86a.79.79,0,0,0,.6-.83C153.32,54.31,152.34,53.43,151.17,52.78Z"/><path class="cls-4" d="M36.88,132.17a9.15,9.15,0,0,0-2.56.16.32.32,0,0,1-.37-.15V25.24H47a1.23,1.23,0,0,0,1.35.82c.51,0,1.1-.14,1.24-.82H78.4v2.3a1,1,0,0,0,.76.11c.87-.16,1.76-.23,2.64-.34s2-.24,3.07-.39c1.3-.19,2.61-.31,3.92-.47,2.17-.29,4.35-.58,6.52-.85,1.62-.19,3.24-.34,4.85-.54.9-.11,1.8-.3,2.71-.32,0,.14,0,.29,0,.43V61.73c0,.2,0,.41,0,.61-.29,0-.58,0-.87,0-1.35,0-2.7-.1-4.05-.13-3.67-.08-7.35,0-11,0a1.43,1.43,0,0,0-.86.1,2.1,2.1,0,0,0-.06.75v.7c0,2.09,0,4.18,0,6.27a3.24,3.24,0,0,1-2.74,0c-.47-.18-1-.26-1.49-.4l-6.5-1.89V28.23H37c-.39.38-.29.86-.29,1.31.1,25.88-.2,51.76.14,77.64,0,1.75-.2,3.51-.14,5.27a7,7,0,0,1,.13,2.14,5.28,5.28,0,0,0-.1,2.23,23.54,23.54,0,0,1,.12,3c0,.87,0,1.74,0,2.61ZM79.5,36.29V57c6.06,0,12.06-.09,18.08.23V34.69a2.48,2.48,0,0,0-1.17,0,45,45,0,0,1-4.61.46c-1.66.12-3.31.36-5,.43a19.92,19.92,0,0,0-2.31.16c-1.23.18-2.46.22-3.68.31A2.75,2.75,0,0,0,79.5,36.29Z"/><path class="cls-5" d="M46.77,25.24H34V132.18a37,37,0,0,0-3.94.11c0-.25.09-.5.13-.76.35-2.19.51-4.42.91-6.61.25,0,.52,0,.8-.13a19,19,0,0,0,0-2.72H30.36c.1-.35.46-.41.71-.59a6.24,6.24,0,0,0,1.91-2,2.21,2.21,0,0,0,.27-1.74,1.43,1.43,0,0,0-1.17-1,6.47,6.47,0,0,1,.68-1.08,5.56,5.56,0,0,0,1-3,2.06,2.06,0,0,0-2.67-2A5.36,5.36,0,0,0,28.2,113a6.78,6.78,0,0,1-.83,1.13,11.79,11.79,0,0,1,.06-1.38,13.44,13.44,0,0,0-.78-6.28,2.24,2.24,0,0,0-2.08-1.68V74.53c.42,0,.88,0,1.07-.48.73,0,.87-.63,1-1.11s.25-1.19-.44-1.55a.39.39,0,0,0-.19-.34,2.31,2.31,0,0,0-1.21-1.23l-.17-.17-.17-.18v-.31c.28-.26.15-.6.15-.9,0-4.79,0-9.58,0-14.37,0-.29-.14-.64.17-.88l.3.05.18.17a.36.36,0,0,0,.19.33.35.35,0,0,0,.32.34c.49.6,1,1.21,1.48,1.8a1.74,1.74,0,0,0,2.39.29,1.71,1.71,0,0,0,.12-2.4c-.54-.63-1.1-1.24-1.66-1.87a.35.35,0,0,0-.34-.3l-.17-.18c0-.59-.56-.83-.87-1.22a1.77,1.77,0,0,0-2.12-.66V21.07H43.49c.1.39.18.79.66.91a.35.35,0,0,0,.2.32A.87.87,0,0,0,45,23a.91.91,0,0,0,.1.1c.11-.09,0-.11-.05-.15a.87.87,0,0,0-.69-.7.36.36,0,0,0-.18-.34c-.1-.24-.21-.47-.3-.71a1.58,1.58,0,0,1,.41-1.5,1.44,1.44,0,0,1,1.47,0,6.53,6.53,0,0,1,1.71,2.09,27.44,27.44,0,0,0-2.11,1.77l.15.17C45.84,24.3,46.45,24.65,46.77,25.24ZM32.93,29.91a.39.39,0,0,0-.35-.18c-.13-.42-.37-.79.17-1.2.34-.25.19-.83.09-1.24S32.33,27,32,27c-1,0-2.08,0-3.12,0-.63,0-.78.22-.85.84A1.1,1.1,0,0,0,28.71,29a1.07,1.07,0,0,1-.54.79.9.9,0,0,0-.48.86c0,1.91,0,3.82,0,5.72,0,.35.06.64.47.71.1.4.43.32.7.32,1.18,0,2.36,0,3.54,0,.8,0,1-.22,1-1,0-1.81,0-3.62,0-5.44,0-.32,0-.64-.32-.83Z"/><path class="cls-6" d="M115.53,54.76a11.88,11.88,0,0,1,3.06-2.21c.5,0,.94-.37,1.46-.36a2.94,2.94,0,0,1-.21,1,9.76,9.76,0,0,0-.28,3.2c.54-.22.72-.82,1.33-.94.56,1.16.45,2.51,1.12,3.79.94-1.14,1.26-2.54,2.31-3.52.54.55.79,1.33,1.47,1.62.32,0,.45-.23.62-.37A29.61,29.61,0,0,0,129,54.12a3.23,3.23,0,0,0,1.08-2A15.21,15.21,0,0,1,134,53.47a6.24,6.24,0,0,1,3.74,5.92,21.06,21.06,0,0,1-.63,5.3A47.89,47.89,0,0,1,135.44,70c-.4,0-.75-.27-1.16-.18-.08-.14-.22-.15-.36-.18a11.22,11.22,0,0,1-3-1,3.62,3.62,0,0,0-1.17-.52,12,12,0,0,0-2-1.22,1.76,1.76,0,0,0-.54.81c-.39.83-.79,1.66-1.16,2.51a1,1,0,0,1-1.07.68,11.59,11.59,0,0,0-2,.23c-1.76.27-3.53.36-5.28.64l-3.57.51,0-4c.47,0,.31-.42.31-.67a51.48,51.48,0,0,1,.31-5.41,6.37,6.37,0,0,0,.15-2.26,6.5,6.5,0,0,0-.27.84c-.33,2.06-.78,4.09-1.23,6.13A3.63,3.63,0,0,1,112,66a3.09,3.09,0,0,0-1.17-.78c0-.33-.35-.52-.5-.9C112,61.14,113.34,57.73,115.53,54.76Zm12,9.5c.36.14.23.37.16.63a2.76,2.76,0,0,0-.24,1.61,43.48,43.48,0,0,0,1.91-5.71,1.37,1.37,0,0,0-.51.79l-.54,1.62c-.1.31-.2.62-.62.57l-.07-1.21c.18-.08.11-.13,0-.18-.27-.23-.63-.05-.91-.2s0-.59-.28-.78h-1.58c-.23.2-.06.5-.28.64s-.59-.07-.89.21a8.19,8.19,0,0,0,.05,1.78c.31.15.63,0,.87.2s0,.52.11.8a6.63,6.63,0,0,0,1.71.08c.26-.26,0-.59.3-.8Z"/><path class="cls-7" d="M24.57,104.74a2.24,2.24,0,0,1,2.08,1.68,13.44,13.44,0,0,1,.78,6.28,11.79,11.79,0,0,0-.06,1.38A6.78,6.78,0,0,0,28.2,113a5.36,5.36,0,0,1,2.91-2.19,2.06,2.06,0,0,1,2.67,2,5.56,5.56,0,0,1-1,3,6.47,6.47,0,0,0-.68,1.08,1.43,1.43,0,0,1,1.17,1,2.21,2.21,0,0,1-.27,1.74,6.24,6.24,0,0,1-1.91,2c-.25.18-.61.24-.71.59H17.6a14.52,14.52,0,0,0-1.81-1.7,14.13,14.13,0,0,1-2.09-2.54,3.2,3.2,0,0,1-.58-2.12,1.58,1.58,0,0,1,2.44-1.34c.28.14.55.31.82.46,0,0,.11.11.12.1s0-.13,0-.19A23.69,23.69,0,0,1,15.29,111a5,5,0,0,1,.26-3.13,2.12,2.12,0,0,1,3.62-.61,8.23,8.23,0,0,1,1.72,3,5.07,5.07,0,0,0,.44.91,17.5,17.5,0,0,1,1-3.81,7.08,7.08,0,0,1,.81-1.51A2.53,2.53,0,0,1,24.57,104.74Z"/><path class="cls-5" d="M88.79,26.45c-1.31.16-2.62.28-3.92.47-1,.15-2.05.25-3.07.39s-1.77.18-2.64.34a1,1,0,0,1-.76-.11v-2.3H49.72A2.42,2.42,0,0,0,49.08,23c-.44-.44-.82-.93-1.23-1.4l-.21-.49H88.79Z"/><path class="cls-8" d="M31.05,124.92c-.4,2.19-.56,4.42-.91,6.61,0,.26-.08.51-.13.76a5.68,5.68,0,0,1-.76,2.69,1,1,0,0,0-.17.66c-.38,0-.55.29-.76.51a1.83,1.83,0,0,1-1.18.66c-.69,0-1.36.24-2.05.22-1,0-2,0-3,0a5,5,0,0,1-4.08-1.4,8.84,8.84,0,0,1-1-3.47c-.13-1.2-.22-2.4-.39-3.59a31.82,31.82,0,0,1-.34-3.51,20.84,20.84,0,0,1,3.95-.19h7.78Z"/><path class="cls-5" d="M95.59,22.05a2.79,2.79,0,0,1,2-1.48c.37-.07.49-.24.64-.57a4.47,4.47,0,0,1,.92-1.73,3.54,3.54,0,0,1,3.38-.73,6.43,6.43,0,0,1,1.06.38c.27-.33.24-.76.38-1.12a8.19,8.19,0,0,1,4-4.41,5.52,5.52,0,0,1,1.94-.63c2.14-.2,4.17.84,4.24,3.38a5.23,5.23,0,0,1-.24,2.12,3.44,3.44,0,0,1,2.3.16c.79.45.64,1.35,1,2.11a4.45,4.45,0,0,1,4.38.92,2.47,2.47,0,0,1,.87,1.6Z"/><path class="cls-9" d="M135.44,70a44.81,44.81,0,0,0,0,7.77c.16,1.81.28,3.63.41,5.44a2,2,0,0,0,.14.84v2.61c-.22.32-.58.27-.76.51-1.92.41-3.84.81-5.77,1.12.15,1.28,2.57,3.33,3.77,3.26a7.82,7.82,0,0,1-.2-1.52c-.12-1-.15-1,0-1.51.16.07.17.21.2.35a29.3,29.3,0,0,1,.49,5.91c.22,4-.11,8-.14,11.93a2.08,2.08,0,0,1,0,.43,15,15,0,0,0,.16,5.3c.38,2.09,1.18,4.06,1.54,6.16.28,1.66.55,3.32.74,5,.15,1.31.28,2.62.41,3.93a38.5,38.5,0,0,1,.31,4.29c0,1,.25,1.93.19,2.91,0,.06.11.13.16.19-.11.23-.34.18-.53.21,0-1.21-.16-2.41-.22-3.61,0-.83-.06-1.67-.15-2.49-.16-1.43-.39-2.84-.48-4.27-.07-1.23-.24-2.45-.41-3.67a41.36,41.36,0,0,0-1.46-6.69,16.65,16.65,0,0,1-.76-5.86c0-.8.1-1.6.15-2.4.14-2.13,0-4.26.18-6.4.23-2.39-.22-4.78-.15-7.17a2.17,2.17,0,0,0,0-.26.46.46,0,0,0-.38-.42,5.79,5.79,0,0,1-3.94-3.62,40.39,40.39,0,0,1-7,.14A32.24,32.24,0,0,1,115,87.27c.19-.22.3-.23.42-.2a23.43,23.43,0,0,0,3.53.69,30.29,30.29,0,0,0,6.17.19,30.53,30.53,0,0,0,4.79-1A4.18,4.18,0,0,0,133,84.14a10.38,10.38,0,0,0,.18-4.92,4.51,4.51,0,0,0-.44-1.39c-.28-.53-.5-.59-1-.33s-.83.41-1.24.62A7.83,7.83,0,0,1,127,79a46.45,46.45,0,0,1-5.53-.12,30.84,30.84,0,0,0-5.18-.21c-.31,0-.62.09-.93.12-.65.06-1.13.55-1.77.58a14.26,14.26,0,0,1,.14-2.77,26.74,26.74,0,0,1,2.83.21c2.61.25,5.22.32,7.83.47.87.06,1.72-.19,2.58-.16a6.77,6.77,0,0,0,1.78-.3A4.28,4.28,0,0,0,131.12,75a19.64,19.64,0,0,0,3-5l.15-.18C134.69,69.76,135,70,135.44,70Z"/><path class="cls-6" d="M137.06,134.94c-.05-.06-.16-.13-.16-.19.06-1-.2-1.94-.19-2.91a38.5,38.5,0,0,0-.31-4.29c-.13-1.31-.26-2.62-.41-3.93-.19-1.67-.46-3.33-.74-5-.36-2.1-1.16-4.07-1.54-6.16a15,15,0,0,1-.16-5.3,2.08,2.08,0,0,0,0-.43c0-4,.36-8,.14-11.93a29.3,29.3,0,0,0-.49-5.91c0-.14,0-.28-.2-.35-.15.47-.12.47,0,1.51a7.82,7.82,0,0,0,.2,1.52c-1.2.07-3.62-2-3.77-3.26,1.93-.31,3.85-.71,5.77-1.12.05.54.14,1.09.16,1.63a67.8,67.8,0,0,1,.17,7.27c0,.72-.06,1.44-.05,2.16,0,2.83-.12,5.66-.21,8.49a30.42,30.42,0,0,0,.78,7.37,76.74,76.74,0,0,1,1.34,9.31c.25,3,.4,5.93.55,8.9a7,7,0,0,0,0,1.59,1,1,0,0,1-.57,1Z"/><path class="cls-10" d="M105.15,42.77c0,1.44,0,2.88,0,4.32q0,7.57,0,15.14a6.6,6.6,0,0,1-2.26.11c0-.2,0-.41,0-.61V25.17c0-.14,0-.29,0-.43a4.52,4.52,0,0,1,2.19.24,2.63,2.63,0,0,1,.07,1V41.81C105.13,42.13,105.14,42.45,105.15,42.77Z"/><path class="cls-11" d="M31.05,124.92l-3.11,0H20.16a20.84,20.84,0,0,0-3.95.19c-.27-.22-.62-.1-1-.23l-.17-2.76H31.85a19,19,0,0,1,0,2.72C31.57,125,31.3,124.88,31.05,124.92Z"/><path class="cls-12" d="M119.17,48.85a15.15,15.15,0,0,1-.78-2.62,2.13,2.13,0,0,1,.11-1.73,5.89,5.89,0,0,0,2-.46l.19,0a16.76,16.76,0,0,0,5,.41l.45,0a1.65,1.65,0,0,0-.26,1c0,.65,0,1.3,0,1.95-.07.23.1.38.18.56a6.41,6.41,0,0,1-4,2.25A3.28,3.28,0,0,1,119.17,48.85Z"/><path class="cls-6" d="M118.33,37.05a6,6,0,0,1,.81-2,4.49,4.49,0,0,1,3.27-2c.88-.18,1.78-.07,2.66-.17,0,.19.1.28.3.35a2.58,2.58,0,0,1,1.58,1.7,6.68,6.68,0,0,1-.12,3.81c-.18.64-.28.64-.89.31a18.59,18.59,0,0,0-4.11-1.74A13.31,13.31,0,0,0,118.33,37.05Z"/><path class="cls-13" d="M125.76,44.49a16.76,16.76,0,0,1-5-.41c0-.47.35-.91.16-1.41a3.85,3.85,0,0,0-.35,1.37,5.89,5.89,0,0,1-2,.46l-.07-1,0-1.64a3.3,3.3,0,0,1,1.87-.13c.05-.51-.2-.62-.54-.68a2,2,0,0,0-1.41.48,1.31,1.31,0,0,1-.1-.65c.25-.33.07-.77.26-1.17a7.07,7.07,0,0,0,2-.42,3.33,3.33,0,0,1,1.15.56,4.41,4.41,0,0,0,3.94.65,2,2,0,0,1,.75-.13,14.55,14.55,0,0,0,.46,2.92C126.57,43.76,126.07,44,125.76,44.49Zm-3.09-2.94a6.59,6.59,0,0,1,2,.27C123.9,40.9,123.07,40.78,122.67,41.55Zm-3.21,2.09a.36.36,0,0,0,.3-.16.72.72,0,0,0-.06-.94.3.3,0,0,0-.46,0,.71.71,0,0,0-.08.87A.39.39,0,0,0,119.46,43.64Zm3.9-1.14c-.69.5-.69.68-.1,1.27C123.64,43.4,123.61,43,123.36,42.5Z"/><path class="cls-9" d="M118.33,37.05a13.31,13.31,0,0,1,3.5.27,18.59,18.59,0,0,1,4.11,1.74c.61.33.71.33.89-.31a6.68,6.68,0,0,0,.12-3.81,2.58,2.58,0,0,0-1.58-1.7c-.2-.07-.29-.16-.3-.35.24-.49.63-.34.8,0a1.1,1.1,0,0,0,.74.52,5.35,5.35,0,0,1,4,5.24,11.94,11.94,0,0,1-.16,1.68c-.07.25-.1.5-.35.64-.6-.07-1.15-.35-1.74-.47s-1.21-.55-1.91-.43a.68.68,0,0,0-.26-.32,14.43,14.43,0,0,0-8-2.51A.3.3,0,0,1,118.33,37.05Z"/><path class="cls-3" d="M24.42,69.16v.31l0,0c-1.16.34-1.7,1.42-2.66,2,.31.39.65.61.62,1l-.06.05c-1.09-1-2-2.16-3-3.22a2,2,0,0,1,.06-2.75,2.12,2.12,0,0,1,3,.19C23.07,67.59,23.73,68.39,24.42,69.16Z"/><path class="cls-6" d="M118.26,37.2a14.43,14.43,0,0,1,8,2.51.68.68,0,0,1,.26.32l-.1.32a2,2,0,0,0-.75.13,4.41,4.41,0,0,1-3.94-.65,3.33,3.33,0,0,0-1.15-.56c0-.12,0-.24-.16-.28a7.74,7.74,0,0,0-2.59-.89c-.15-.26-.4-.17-.61-.19a11,11,0,0,0-2.36.17A7.64,7.64,0,0,1,118.26,37.2Z"/><path class="cls-3" d="M128.45,19.13a4.9,4.9,0,0,0,4.39-1.48,4.78,4.78,0,0,0,3.94,2.26c.26,3.58-1.14,6.69-4.31,8.14a1.22,1.22,0,0,1-1.36-.13,6.81,6.81,0,0,1-2.74-4.33A11.8,11.8,0,0,1,128.45,19.13Zm.38.58a3.24,3.24,0,0,0-.14,1,6.8,6.8,0,0,0,2.58,6.8.92.92,0,0,0,1.18.11,9.8,9.8,0,0,0,2-1.41c1.66-1.63,1.91-3.76,2.1-6a5.15,5.15,0,0,1-3.79-2A5.24,5.24,0,0,1,128.83,19.71Z"/><path class="cls-9" d="M114.82,38.08a11,11,0,0,1,2.36-.17c.21,0,.46-.07.61.19-.4.64-.05,1.28,0,1.91a4,4,0,0,1-3-.19c-.35-.15-.67-.36-.69-.79A.88.88,0,0,1,114.82,38.08Z"/><path class="cls-14" d="M117.8,40c-.06-.63-.41-1.27,0-1.91a7.74,7.74,0,0,1,2.59.89c.12,0,.15.16.16.28a7.07,7.07,0,0,1-2,.42c-.19.4,0,.84-.26,1.17l-.15,0A2.32,2.32,0,0,0,117.8,40Z"/><path class="cls-3" d="M24.57,49.36a1.77,1.77,0,0,1,2.12.66c.31.39.85.63.87,1.22l-.06.06c-.45-.44-.88-.9-1.35-1.31a1.2,1.2,0,0,0-1.92.17A1.29,1.29,0,0,0,24.3,52c.17.22.43.38.49.69l-.08.06C23.19,51.81,23.13,50.52,24.57,49.36Z"/><path class="cls-3" d="M47.64,21.08l.21.49-.35.19a6.53,6.53,0,0,0-1.71-2.09,1.44,1.44,0,0,0-1.47,0,1.58,1.58,0,0,0-.41,1.5c.09.24.2.47.3.71l-.06.05c-.48-.12-.56-.52-.66-.91a2.74,2.74,0,0,1,.09-.85,1.61,1.61,0,0,1,2.66-.66C46.78,20,47,20.7,47.64,21.08Z"/><path class="cls-3" d="M25.64,74.05c-.19.52-.65.46-1.07.48a3.49,3.49,0,0,1-2.28-1.88l.06-.05c.54.14.8.63,1.16,1a1.24,1.24,0,0,0,1.06.44l1,0Z"/><path class="cls-3" d="M25.05,53.06l-.3-.05,0-.31.08-.06.33.35Z"/><path class="cls-4" d="M102.86,138.59c-2.41-.42-4.77-1.08-7.15-1.66-3.27-.8-6.55-1.56-9.82-2.35-1.13-.28-2.27-.57-3.39-.9a3.49,3.49,0,0,0-1-.12,5.11,5.11,0,0,0-2.35-.38c-2.35,0-4.71,0-7.07,0H69.83c-.23,0-.48,0-.46.33a10.31,10.31,0,0,0-1,.51c-.3.21-.32.75-.92.74.14-.85.84-1.11,1.41-1.5l-.49-.56a1.31,1.31,0,0,1-.37-.56h7.25V121.49q0-23.89,0-47.79a4.88,4.88,0,0,0,.84.13c2.27,0,4.52.29,6.79.18h.26a2.64,2.64,0,0,1,2.23.63.78.78,0,0,0,.63.24c0,.29,0,.58,0,.86,0,.66.1.7.79.59a6.11,6.11,0,0,1,.86,0c4.22,0,8.45-.07,12.67.16.28,0,.65,0,.72.3.14.64.69.72,1.14.89a2.2,2.2,0,0,1,.83.55C102.72,98.32,102.91,118.45,102.86,138.59ZM98.17,83.74a1,1,0,0,1,.76.31,1.18,1.18,0,0,0,1.5-.09,3.68,3.68,0,0,0,0-4.85,1,1,0,0,0-1.61.13c-.1.14-.17.3-.28.43-.26.34-.17.58.17.77a4,4,0,0,1,0,2.44c-.24.24-.52.46-.53.85-.08,0-.2,0-.23.12C98.07,83.92,98.12,83.84,98.17,83.74ZM79.46,90.05v34.29l18.26,4.18a2.92,2.92,0,0,0,.1-1.14V94.23c0-.35,0-.7,0-1,0-.67-.08-.7-.74-.77-1.25-.13-2.5-.26-3.74-.48-.9-.16-1.82-.26-2.72-.38l-3.23-.44c-1.39-.2-2.77-.41-4.16-.6C82,90.35,80.79,90.21,79.46,90.05Z"/><path class="cls-6" d="M113.63,79.4c.64,0,1.12-.52,1.77-.58.31,0,.62-.1.93-.12a30.84,30.84,0,0,1,5.18.21A46.45,46.45,0,0,0,127,79a7.83,7.83,0,0,0,3.38-.91c.41-.21.82-.43,1.24-.62s.76-.2,1,.33a4.51,4.51,0,0,1,.44,1.39,10.38,10.38,0,0,1-.18,4.92A4.18,4.18,0,0,1,129.88,87a30.53,30.53,0,0,1-4.79,1,30.29,30.29,0,0,1-6.17-.19,23.43,23.43,0,0,1-3.53-.69c-.12,0-.23,0-.42.2a32.24,32.24,0,0,0,6.89,1.16,40.39,40.39,0,0,0,7-.14,5.79,5.79,0,0,0,3.94,3.62.46.46,0,0,1,.38.42,2.17,2.17,0,0,1,0,.26c-.07,2.39.38,4.78.15,7.17-.2,2.14,0,4.27-.18,6.4,0,.8-.11,1.6-.15,2.4a16.65,16.65,0,0,0,.76,5.86,41.36,41.36,0,0,1,1.46,6.69c.17,1.22.34,2.44.41,3.67.09,1.43.32,2.84.48,4.27.09.82.11,1.66.15,2.49.06,1.2.22,2.4.22,3.61a2.6,2.6,0,0,1-1.15.48,11.2,11.2,0,0,1-2.52.22c-1.19-.11-1.19-.11-1.57-1.27l-.72-2.27a1.07,1.07,0,0,0,0-.25c-1.38-4.85-2.69-9.73-3.85-14.64-.61-2.58-1.26-5.15-1.67-7.77-.24-1.54-.54-3.06-.81-4.59-.15-1-.29-2.1-.46-3.14s-.42-2.07-.58-3.11c-.25-1.67-.53-3.33-.9-5a4.71,4.71,0,0,0-2.54-3,.31.31,0,0,0,0,.32A8.4,8.4,0,0,1,121,94a25,25,0,0,1,.92,6.27c0,1.24,0,2.48,0,3.72,0,1-.22,1.88-.3,2.82-.12,1.31-.38,2.6-.59,3.89-.13.75,0,1.5-.19,2.23-.37,1.84.17,3.66.1,5.49,0,0,0,0,0,.08a45.94,45.94,0,0,1,0,6.74,15.39,15.39,0,0,1-.1,1.8c-.2,1-.3,2-.45,3-.2,1.27-.39,2.54-.65,3.8a12.55,12.55,0,0,0-.42,2.36,15.08,15.08,0,0,1-4.54-.3l-.6-.24c-.39-1.1-.13-2.21-.32-3.28a3.26,3.26,0,0,0-.07-1c-.09-3.66-.36-7.32-.4-11,0-.34,0-.69,0-1-.22-3.25-.23-6.52-.21-9.77,0-2.65,0-5.31.22-8,.15-2.16.11-4.33.27-6.49.1-1.41.11-2.82.23-4.23s.12-2.59.22-3.8c-.22-.35-.59-.27-.81-.56-.11-.76,0-1.56,0-2.37C113.54,82.53,113.36,81,113.63,79.4Z"/><path class="cls-15" d="M69.37,133.54c0-.36.23-.33.46-.33h2.24c2.36,0,4.72,0,7.07,0a5.11,5.11,0,0,1,2.35.38c1.47,1.07,3.1,1.88,4.65,2.82,3,1.82,6,3.59,9,5.38.17.1.32.23.66.48-.42,0-.66,0-.89,0-2.37.13-4.74.08-7.1.21-2.14.13-4.28,0-6.4.16-1.94.15-3.88,0-5.8.19-1.7.14-3.41,0-5.1.16-2.17.19-4.34,0-6.5.18s-4.21,0-6.31.17-3.93,0-5.89.18-3.81,0-5.71.16c-2.37.17-4.74,0-7.1.19-2.14.16-4.27,0-6.4.13a1,1,0,0,1-.31-.06.88.88,0,0,1,.11-.78c1.19-2.56,2.39-5.13,3.57-7.69.2-.42.39-.84.56-1.27a.75.75,0,0,1,.73-.47c2.08-.22,4.16-.1,6.23-.13l-.23,1-2.52,0a1.23,1.23,0,0,0-1.27.89c-.75,1.8-1.33,3.68-2.15,5.46a1,1,0,0,0-.15.85,2.28,2.28,0,0,0,.83.07c2.05.09,4.09-.2,6.14-.19s4.09.05,6.14-.12c2.47-.19,5,0,7.44-.18s4.78,0,7.18-.16c3.42-.2,6.87-.09,10.3-.17,4.16-.09,8.31-.32,12.47-.23a5.67,5.67,0,0,0,1.7-.31c-.27-.2-.44-.36-.63-.48-2.82-1.89-5.74-3.62-8.61-5.43a2.87,2.87,0,0,0-1.68-.56c-2.17.06-4.34,0-6.51,0-.3,0-.65-.13-.88.2l-.3,0a.59.59,0,0,0-.5-.2c-.07-.17-.23-.17-.37-.22A.64.64,0,0,0,69.37,133.54Z"/><path class="cls-8" d="M139.29,140.65a8.43,8.43,0,0,1,3.23,1.13c.89.51.82,1.25-.09,1.76a15.16,15.16,0,0,1-4.57,1.46,53,53,0,0,1-5.62.73c-1.8.15-3.61.21-5.41.36a49.44,49.44,0,0,1-6,.1c-1.53-.06-3.06,0-4.57-.17-1.86-.16-3.72-.28-5.57-.5a30.17,30.17,0,0,1-6.36-1.36,7.83,7.83,0,0,1-1.17-.55c-1-.56-.94-1.34,0-1.91a9.56,9.56,0,0,1,2.83-1,8.57,8.57,0,0,0,1.16-.3c.21-.08.4-.11.5.14-.33.26-.66.51-.68,1-.43.48-.43.69,0,1.08a4.31,4.31,0,0,0,2.76.83,31.43,31.43,0,0,0,3.36-.11c1.89-.15,3.76-.47,5.65-.59a2.76,2.76,0,0,0,1.06-.35c.51-.26.56-.55.29-1.21l0-1.89c3.36,0,6.72-.07,10.08.18.26,0,.61-.12.66.33-.12.1-.24.21-.22.38-.15.13-.43.1-.46.39a26.38,26.38,0,0,0-2.12,2.11,1,1,0,0,0-.3.93c-.44.41-.17.72.17,1a3.29,3.29,0,0,0,2.12.53,9.33,9.33,0,0,0,4.07-1.21A46.15,46.15,0,0,0,139.29,140.65Z"/><path class="cls-10" d="M105.28,84.08c0,5.12-.25,10.23-.15,15.35,0,1,0,2,0,3v28.78a1.9,1.9,0,0,0,.16,1.1v5.95c-.76.54-1.62.21-2.43.3,0-20.14-.14-40.27.17-60.41a6.81,6.81,0,0,0,2.24.35Z"/><path class="cls-11" d="M36.88,132.17q0-4.86,0-9.72h7.41a25.17,25.17,0,0,0-.12,3,26.84,26.84,0,0,1-.07,3.36c-.12.83,0,1.34.78,1.66a2,2,0,0,0-.18,1c-.48,0-.51.47-.73.74Z"/><path class="cls-14" d="M107,141.52c0-.47.35-.72.68-1l2.39-1a1.34,1.34,0,0,1,1.91.57c.1.14.11.34.39.35.24-.8-.56-1-.92-1.51,1-.27,1.4.6,2.08,1.18,0-1-.67-1.21-1.2-1.53.59-.47.59-.47,2.2.9,0-.69-.07-.79-1.32-1.5.61-.43.76-1.3,1.6-1.47a1.74,1.74,0,0,1,1.48,1,.76.76,0,0,0,.71.39,3.13,3.13,0,0,0,2.48-.7c.37.15.44.49.51.82s.14.84.21,1.26l0,1.89a1.87,1.87,0,0,1-1,.39c-1.54.21-3.07.46-4.61.64a22.8,22.8,0,0,1-4,.34A5.31,5.31,0,0,1,107,141.52Z"/><path class="cls-14" d="M127.88,143.6a1,1,0,0,1,.3-.93,26.38,26.38,0,0,1,2.12-2.11,3,3,0,0,1,2.11.69c.23-.36.06-.48-.11-.59a3.11,3.11,0,0,0-1.54-.49c0-.17.1-.28.22-.38.4,0,.8,0,1.2.1s.68.51,1.16.47c-.18-.56-.18-.56-1.88-1.05.41-.46.89-.26,1.35-.22s.81.49,1.43.55c-.45-1-1.33-.92-2.08-1.14a5.47,5.47,0,0,1,.72-1.64c.61-.17,1.27-.39,1.79.13a1.36,1.36,0,0,0,1.67.14,2.06,2.06,0,0,0,1.06-1.2c.45,0,.55.35.71.64a25.75,25.75,0,0,1,1,2.7c0,.46-.36.62-.67.83L135.58,142a15,15,0,0,1-2.39,1.39A6,6,0,0,1,127.88,143.6Z"/><path class="cls-14" d="M44,132.17c.22-.27.25-.72.73-.74a11.28,11.28,0,0,0,.8.89,1.16,1.16,0,0,0,1.47.21,2.15,2.15,0,0,1,1.88-.3l.19.1.72,1.24.14.46c-1.15,0-1.75.29-2,1.08a3.1,3.1,0,0,1,2.3-.75l.36.26a.14.14,0,0,0,0,.09c-.76.11-1.53.18-1.85,1.07a3.39,3.39,0,0,1,2.18-.7l.37.38c-1.32.19-1.57.35-1.66,1.07a3.35,3.35,0,0,1,2-.74c.64.56,1.28,1.11,1.91,1.68a1.33,1.33,0,0,1,.55,1.1,3.87,3.87,0,0,1-3.16.42c-2.9-.66-5.27-2.39-7.68-4l0-.41.23-1Z"/><path class="cls-10" d="M18,135.64a5,5,0,0,0,4.08,1.4c1,0,2,0,3,0,.69,0,1.36-.19,2.05-.22a1.83,1.83,0,0,0,1.18-.66c.21-.22.38-.53.76-.51a5.59,5.59,0,0,1,1.67.35.48.48,0,0,1,.41.48c0,.3-.13.45-.41.56a15.81,15.81,0,0,1-3.18.68,43,43,0,0,1-5.68.19,26.27,26.27,0,0,1-4.67-.58,2.3,2.3,0,0,1-1.33-.79,2.1,2.1,0,0,1,1.44-.71A1.85,1.85,0,0,0,18,135.64Z"/><path class="cls-16" d="M127.88,143.6a6,6,0,0,0,5.31-.2,15,15,0,0,0,2.39-1.39l2.87-1.91c.31-.21.67-.37.67-.83.37.42.12.92.17,1.38a46.15,46.15,0,0,1-5,3.25,9.33,9.33,0,0,1-4.07,1.21,3.29,3.29,0,0,1-2.12-.53C127.71,144.32,127.44,144,127.88,143.6Z"/><path class="cls-13" d="M119.52,137.2a3.13,3.13,0,0,1-2.48.7.76.76,0,0,1-.71-.39,1.74,1.74,0,0,0-1.48-1l0-.67a15.08,15.08,0,0,0,4.54.3l.34,0Z"/><path class="cls-13" d="M137.4,135.93a2.06,2.06,0,0,1-1.06,1.2,1.36,1.36,0,0,1-1.67-.14c-.52-.52-1.18-.3-1.79-.13l0-1a11.2,11.2,0,0,0,2.52-.22,2.6,2.6,0,0,0,1.15-.48c.19,0,.42,0,.53-.21h.32Z"/><path class="cls-17" d="M150.42,54.4a.64.64,0,0,1,.85.05c.55.46,1.15.86,1.69,1.26a.82.82,0,0,1-.08.71c-.09.17-.22.34-.14.56a2,2,0,0,1-.55,2.14c-1,1.18-1.9,2.44-2.8,3.7-.27.39-.59.61-1,.36a21.51,21.51,0,0,1-3.56-2.65,4.56,4.56,0,0,1,1.06-1.64C146.67,58,147.34,57,148,56c.42-.58.81-1.09,1.61-1.12.26,0,.66-.05.77-.44ZM151.66,59l-3.53-2.54a22.89,22.89,0,0,0-1.73,2.59c1.12.87,2.22,1.68,3.38,2.45Z"/><path class="cls-17" d="M151.17,52.78c1.17.65,2.15,1.53,3.22,2.2a.79.79,0,0,1-.6.83L151.12,54C150.64,53.61,150.71,53.25,151.17,52.78Z"/><path class="cls-8" d="M44.31,122.44H36.9c0-.87,0-1.74,0-2.61a23.54,23.54,0,0,0-.12-3,5.28,5.28,0,0,1,.1-2.23,7,7,0,0,0-.13-2.14c-.06-1.76.17-3.52.14-5.27-.34-25.88,0-51.76-.14-77.64,0-.45-.1-.93.29-1.31H75.27V67.78a4.61,4.61,0,0,1-1.09-.23A1.46,1.46,0,0,1,73,66.47c-.27-.78-.54-1.57-.74-2.37.06-.37.48-.5.6-.92a97.82,97.82,0,0,0-4.08-9.08,8.87,8.87,0,0,0-7.54-4.76l-.2-.13-.17-.54V47.46a2.31,2.31,0,0,0,2.06-1,7.78,7.78,0,0,0,1.1-3.3c.14-1.12.08-2.23.17-3.35a.48.48,0,0,0,.3-.29A10.74,10.74,0,0,1,66,36.64a1.72,1.72,0,0,0-.09-2.38,2.38,2.38,0,0,1-.73-1.57,1.71,1.71,0,0,0-1.57-1.58,3.28,3.28,0,0,0-2.24.4,1.82,1.82,0,0,1-1.71.06,2.62,2.62,0,0,0-3.24.62,1,1,0,0,1-.83.34c-1.23,0-1.69.4-1.93,1.62,0,.25-.09.51-.15.79a2.48,2.48,0,0,0-1.48,2.74A19.79,19.79,0,0,0,53,41.55c.09.26.11.58.43.71l0,0c0,.12,0,.22.19.19h0c-.1.25,0,.43.18.61a4.92,4.92,0,0,0,1.53,1.45c0,1.09-.18,2.17-.2,3.25a2.41,2.41,0,0,1-.31,1.32,27.29,27.29,0,0,0-4.47.84,9.16,9.16,0,0,0-5.88,4.57c-.7,1.26-1.36,2.54-1.93,3.86C41.7,60.14,41,62,40.4,63.87a4.32,4.32,0,0,1,.87.76l-.06.7a14.07,14.07,0,0,0-.61,8.6A109.57,109.57,0,0,0,43.78,85,3.64,3.64,0,0,1,44,86.45a19.61,19.61,0,0,0,0,3.34,7.53,7.53,0,0,0,.82,3c.14.23.24.52.5.57.63.13.87.62,1.13,1.1,0,3.2,0,6.41,0,9.61a32.57,32.57,0,0,1-.62,5.66c-.32,2-.7,3.9-.93,5.87C44.65,117.9,44.5,120.17,44.31,122.44Z"/><path class="cls-18" d="M100.34,76.44c-4.22-.23-8.45-.15-12.67-.16a6.11,6.11,0,0,0-.86,0c-.69.11-.76.07-.79-.59,0-.28,0-.57,0-.86,0-1.61,0-3.22,0-4.83,0-2.09,0-4.18,0-6.27h21.91V68.5c0,1,0,2,0,3-1.2-.14-2.42,0-3.63-.19a.67.67,0,0,0-.87.5,1.1,1.1,0,0,0,.8.72c.36.1.71.23,1.08.32s.47.1.52.37-.22.43-.45.55a3.75,3.75,0,0,1-1,.32,18.09,18.09,0,0,1-3,.14,3.94,3.94,0,0,0-.77.06.43.43,0,0,0-.32.37.37.37,0,0,0,.27.4c.24.1.49.17.73.25v.27c-.31.06-.63,0-.91.15A1,1,0,0,0,100.34,76.44Zm-2.16-5.3c.9-.11,1.71,0,2.52-.11a15.43,15.43,0,0,0,0-2.46c-.85-.18-1.67.06-2.44-.17-.14-.84.06-1.65-.12-2.42H95.56v2.43c-.9.18-1.74-.06-2.56.15V71a22.17,22.17,0,0,1,2.49.16c.14.84-.07,1.65.12,2.41h2.57Zm-7,4.24c-.06-.62.12-1.15-.11-1.65h-4a3.81,3.81,0,0,0,.07,1.65Z"/><path class="cls-17" d="M79.5,36.29A2.75,2.75,0,0,1,80.83,36c1.22-.09,2.45-.13,3.68-.31a19.92,19.92,0,0,1,2.31-.16c1.67-.07,3.32-.31,5-.43a45,45,0,0,0,4.61-.46,2.48,2.48,0,0,1,1.17,0V57.23c-6-.32-12-.2-18.08-.23Zm2.68,1-1.31.23v18h15V36.36a4.9,4.9,0,0,0-1.1,0c-1.36.34-2.76,0-4.11.33-1.51,0-3,.22-4.51.31C84.86,37.08,83.53,37.3,82.18,37.24Z"/><path class="cls-13" d="M86,70.05c0,1.61,0,3.22,0,4.83a.78.78,0,0,1-.63-.24A2.64,2.64,0,0,0,83.16,74H82.9c-2.27.11-4.52-.21-6.79-.18a4.88,4.88,0,0,1-.84-.13,32.88,32.88,0,0,1-4.43-.54,3.4,3.4,0,0,1-2-1.26,9.49,9.49,0,0,0-1.22-1.54,29.68,29.68,0,0,0-.17-4.11A3.76,3.76,0,0,0,69,65.84a25.83,25.83,0,0,0,3.24-1.74c.2.8.47,1.59.74,2.37a1.46,1.46,0,0,0,1.2,1.08,4.61,4.61,0,0,0,1.09.23l6.5,1.89c.5.14,1,.22,1.49.4A3.24,3.24,0,0,0,86,70.05Z"/><path class="cls-19" d="M102.88,62.34a6.6,6.6,0,0,0,2.26-.11,14.49,14.49,0,0,0,2.6.19c.18.2.15.37.05.66H86a2.1,2.1,0,0,1,.06-.75,1.43,1.43,0,0,1,.86-.1c3.67,0,7.35-.06,11,0,1.35,0,2.7.14,4.05.13C102.3,62.38,102.59,62.35,102.88,62.34Z"/><path class="cls-13" d="M47.5,21.76l.35-.19c.41.47.79,1,1.23,1.4a2.42,2.42,0,0,1,.64,2.27H46.77c-.32-.59-.93-.94-1.23-1.54a.15.15,0,0,0-.15-.17A27.44,27.44,0,0,1,47.5,21.76Z"/><path class="cls-15" d="M47,25.24h2.59c-.14.68-.73.79-1.24.82A1.23,1.23,0,0,1,47,25.24Z"/><path class="cls-15" d="M28.07,51.72c.56.63,1.12,1.24,1.66,1.87a1.71,1.71,0,0,1-.12,2.4,1.74,1.74,0,0,1-2.39-.29c-.51-.59-1-1.2-1.48-1.8l0-.36L27.7,52Z"/><path class="cls-3" d="M28.18,37.08c-.41-.07-.47-.36-.47-.71,0-1.9,0-3.81,0-5.72a.9.9,0,0,1,.48-.86,1.07,1.07,0,0,0,.54-.79,1.1,1.1,0,0,1-.66-1.16c.07-.62.22-.83.85-.84,1,0,2.08,0,3.12,0,.31,0,.72-.09.82.3s.25,1-.09,1.24c-.54.41-.3.78-.17,1.2l0,0c-.64-.06-.42-.65-.58-1H29.08c.06.49,0,.89-.44,1.1A1.13,1.13,0,0,0,28,31.09c0,1.61,0,3.23,0,4.84a3.06,3.06,0,0,0,.2,1.09Zm4.32-8.75c0-.42.22-.92-.38-1a23.41,23.41,0,0,0-3,0c-.57,0-.68.28-.57,1Z"/><path class="cls-3" d="M33.1,30.08c.34.19.32.51.32.83,0,1.82,0,3.63,0,5.44,0,.82-.21,1-1,1-1.18,0-2.36,0-3.54,0-.27,0-.6.08-.7-.32l.06-.06,4.14,0c.51,0,.72-.2.72-.72,0-2.06,0-4.13-.06-6.2Z"/><path class="cls-3" d="M26.17,71.39c.69.36.55,1,.44,1.55s-.24,1.1-1,1.11l0,0a2.11,2.11,0,0,0,.51-2.57Z"/><path class="cls-3" d="M24.77,69.82A2.31,2.31,0,0,1,26,71.05l-.05,0c-.55-.19-.83-.68-1.2-1.07v-.16Z"/><path class="cls-3" d="M45,23a.87.87,0,0,1-.68-.72l0,0a.87.87,0,0,1,.69.7Z"/><path class="cls-3" d="M28.07,51.72,27.7,52l0-.48.07-.06A.35.35,0,0,1,28.07,51.72Z"/><path class="cls-3" d="M25.78,53.54l0,.36a.35.35,0,0,1-.32-.34.23.23,0,0,1,.07-.07Z"/><path class="cls-3" d="M32.58,29.73a.39.39,0,0,1,.35.18l0,.06c-.14,0-.27-.06-.33-.2Z"/><path class="cls-3" d="M44.35,22.3a.35.35,0,0,1-.2-.32l.06-.05a.36.36,0,0,1,.18.34Z"/><path class="cls-3" d="M26,71.05a.39.39,0,0,1,.19.34l-.06,0a.39.39,0,0,1-.18-.33Z"/><path class="cls-3" d="M25.42,53.56a.36.36,0,0,1-.19-.33l.06-.06a.46.46,0,0,1,.2.32A.23.23,0,0,0,25.42,53.56Z"/><path class="cls-3" d="M27.56,51.24l.17.18-.07.06-.16-.18Z"/><path class="cls-3" d="M25.23,53.23l-.18-.17.07-.07.17.18Z"/><path class="cls-3" d="M24.43,69.47l.17.18,0,0-.17-.17Z"/><path class="cls-3" d="M24.6,69.65l.17.17,0,.05-.17-.18Z"/><path class="cls-3" d="M32.93,29.91l.17.17-.06.05L32.88,30Z"/><path class="cls-3" d="M45.08,23c.05,0,.16.06.05.15A.91.91,0,0,1,45,23Z"/><path class="cls-3" d="M45.39,23.53a.15.15,0,0,1,.15.17Z"/><path class="cls-13" d="M107.92,71.45c0-1,0-2,0-3a1,1,0,0,1,.16,0c1.24,0,1.71-.88,2.07-1.89a1.86,1.86,0,0,1,.5-.88.62.62,0,0,1,.46.19c.58.6,1.18,1.18,1.76,1.78a1.45,1.45,0,0,1,.4,1.09,10.62,10.62,0,0,1-.49,3.65c.5.17.92-.21,1.36-.12l3.57-.51c1.75-.28,3.52-.37,5.28-.64a11.59,11.59,0,0,1,2-.23,1,1,0,0,0,1.07-.68c.37-.85.77-1.68,1.16-2.51a1.76,1.76,0,0,1,.54-.81,12,12,0,0,1,2,1.22c-.07.48.21.73.6.91a10.41,10.41,0,0,0,2.13.82c.53.12,1.05.46,1.63.19a19.64,19.64,0,0,1-3,5,4.28,4.28,0,0,1-2.33,1.81,6.77,6.77,0,0,1-1.78.3c-.86,0-1.71.22-2.58.16-2.61-.15-5.22-.22-7.83-.47a26.74,26.74,0,0,0-2.83-.21l-1.36,0c0-1.44.17-2.92-.45-4.27a1,1,0,0,0-.65,0,2,2,0,0,1-1.74-.19A14,14,0,0,0,107.92,71.45Z"/><path class="cls-9" d="M120.05,52.19a6.28,6.28,0,0,1,1.9-1.45l0,.38a7.16,7.16,0,0,0,.14,4.89c1.44-1.13,2.85-2.17,4.18-3.31.72-.62,1.58-1.2,1.72-2.29a6.81,6.81,0,0,1,2.1,1.71,3.23,3.23,0,0,1-1.08,2A29.61,29.61,0,0,1,126.41,57c-.17.14-.3.36-.62.37-.68-.29-.93-1.07-1.47-1.62-1,1-1.37,2.38-2.31,3.52-.67-1.28-.56-2.63-1.12-3.79-.61.12-.79.72-1.33.94a9.76,9.76,0,0,1,.28-3.2A2.94,2.94,0,0,0,120.05,52.19Z"/><path class="cls-17" d="M127.67,62.56l.07,1.21-.16.49-.83,0c-.26.21,0,.54-.3.8a6.63,6.63,0,0,1-1.71-.08c-.13-.28.06-.55-.11-.8s-.56,0-.87-.2a8.19,8.19,0,0,1-.05-1.78c.3-.28.62-.11.89-.21s.05-.44.28-.64h1.58c.3.19.05.57.28.78s.64,0,.91.2Zm-3.22.21c-.08.32-.13.56,0,.77s.48,0,.67.15,0,.53.18.74a.56.56,0,0,0,.57,0c.15-.18,0-.47.22-.62s.52.06.78-.21a1.11,1.11,0,0,0,0-.74c-.24-.19-.55,0-.68-.13s0-.56-.24-.74a.53.53,0,0,0-.58,0c-.22.22-.06.5-.26.72Z"/><path class="cls-15" d="M114.15,72.27c-.44-.09-.86.29-1.36.12a10.62,10.62,0,0,0,.49-3.65,1.45,1.45,0,0,0-.4-1.09c-.58-.6-1.18-1.18-1.76-1.78a.62.62,0,0,0-.46-.19.66.66,0,0,1,.15-.42A3.09,3.09,0,0,1,112,66a3.63,3.63,0,0,0,1.46.87c.18.28.55.25.78.44a2.44,2.44,0,0,0,0,.93Z"/><path class="cls-9" d="M114.17,68.28a2.44,2.44,0,0,1,0-.93c-.23-.19-.6-.16-.78-.44.45-2,.9-4.07,1.23-6.13a6.5,6.5,0,0,1,.27-.84,6.37,6.37,0,0,1-.15,2.26,51.48,51.48,0,0,0-.31,5.41C114.48,67.86,114.64,68.23,114.17,68.28Z"/><path class="cls-15" d="M134.13,70c-.58.27-1.1-.07-1.63-.19a10.41,10.41,0,0,1-2.13-.82c-.39-.18-.67-.43-.6-.91a3.62,3.62,0,0,1,1.17.52,11.22,11.22,0,0,0,3,1c.14,0,.28,0,.36.18Z"/><path class="cls-9" d="M127.58,64.26l.16-.49c.42,0,.52-.26.62-.57l.54-1.62a1.37,1.37,0,0,1,.51-.79,43.48,43.48,0,0,1-1.91,5.71,2.76,2.76,0,0,1,.24-1.61C127.81,64.63,127.94,64.4,127.58,64.26Z"/><path class="cls-9" d="M127.67,62.56l0-.18C127.78,62.43,127.85,62.48,127.67,62.56Z"/><path class="cls-13" d="M128,50.41c-.14,1.09-1,1.67-1.72,2.29-1.33,1.14-2.74,2.18-4.18,3.31a7.16,7.16,0,0,1-.14-4.89,4.74,4.74,0,0,0,1.44-.18,4.94,4.94,0,0,0,3.08-2.69c.07-.16.2-.31,0-.44.46-.46.67-1.14,1.33-1.42l0,.6c0,.89,0,1.78,0,2.68A1.58,1.58,0,0,0,128,50.41Z"/><path class="cls-14" d="M127.85,47l0-.6.09-.64a.35.35,0,0,0,.14-.06.32.32,0,0,0,.34-.13.28.28,0,0,0,.16-.05.55.55,0,0,0,.38-.3,1.71,1.71,0,0,0,.64-1.24,1.32,1.32,0,0,0-1.18-1.68c-.77-.13-.91.55-1.25,1l-.28,0a14.55,14.55,0,0,1-.46-2.92l.1-.32c.7-.12,1.27.31,1.91.43s1.14.4,1.74.47a6.13,6.13,0,0,1-1.61,5.55C128.33,46.69,128.16,46.94,127.85,47Z"/><path class="cls-17" d="M16.48,114.75c.06.06.14.12,0,.19s-.08-.06-.12-.1Z"/><path class="cls-13" d="M128,45.69a.35.35,0,0,1-.14.06c-.57.13-.75.68-1.09,1s-.37.66-.83.64c0-.65,0-1.3,0-1.95a1.65,1.65,0,0,1,.26-1,2.53,2.53,0,0,0,1-.88c.23,0,.35-.1.32-.34h0a.22.22,0,0,0,.16-.21l.7-.79A1.32,1.32,0,0,1,129.55,44a1.71,1.71,0,0,1-.64,1.24c-.2-.09-.19-.25-.16-.43a2.05,2.05,0,0,0-.27-1.49c-.27.14-.57.11-.79.36,0,.49-.14,1,.26,1.46C128.06,45.24,128,45.5,128,45.69Z"/><path class="cls-15" d="M126.47,47.81c.23.13.1.28,0,.44a4.94,4.94,0,0,1-3.08,2.69,4.74,4.74,0,0,1-1.44.18l0-.38c0-.19.11-.33.18-.49a6.41,6.41,0,0,0,4-2.25Z"/><path class="cls-4" d="M126.47,47.81l-.32.19c-.08-.18-.25-.33-.18-.56.46,0,.59-.38.83-.64s.52-.92,1.09-1l-.09.64C127.14,46.67,126.93,47.35,126.47,47.81Z"/><path class="cls-4" d="M127.17,43.64a2.53,2.53,0,0,1-1,.88l-.45,0c.31-.45.81-.73,1.08-1.22l.28,0,.1.1Z"/><path class="cls-15" d="M120.53,44a3.85,3.85,0,0,1,.35-1.37c.19.5-.13.94-.16,1.41Z"/><path class="cls-14" d="M118.48,41.84l-.08-.33a2,2,0,0,1,1.41-.48c.34.06.59.17.54.68A3.3,3.3,0,0,0,118.48,41.84Z"/><path class="cls-20" d="M122.67,41.55c.4-.77,1.23-.65,2,.27A6.59,6.59,0,0,0,122.67,41.55Z"/><path class="cls-20" d="M119.46,43.64a.39.39,0,0,1-.3-.26.71.71,0,0,1,.08-.87.3.3,0,0,1,.46,0,.72.72,0,0,1,.06.94A.36.36,0,0,1,119.46,43.64Z"/><path class="cls-14" d="M123.36,42.5c.25.51.28.9-.1,1.27C122.67,43.18,122.67,43,123.36,42.5Z"/><path class="cls-17" d="M24.56,69.69l.17.18V70c-.26.19-.15.48-.15.72,0,1.09,0,2.18,0,3.28a1.24,1.24,0,0,1-1.06-.44c-.36-.36-.62-.85-1.16-1,0-.43-.31-.65-.62-1,1-.62,1.5-1.7,2.66-2Z"/><path class="cls-17" d="M128.83,19.71a5.24,5.24,0,0,0,3.88-1.47,5.15,5.15,0,0,0,3.79,2c-.19,2.22-.44,4.35-2.1,6a9.8,9.8,0,0,1-2,1.41.92.92,0,0,1-1.18-.11,6.8,6.8,0,0,1-2.58-6.8A3.24,3.24,0,0,1,128.83,19.71ZM134.52,24a2.45,2.45,0,0,0,.2-1.68c-.46-.11-.94-.07-1.28-.37-.1-.4,0-.78-.1-1.18a2.26,2.26,0,0,0-1.76-.16c-.18.43,0,.86-.18,1.23-.45.22-1-.08-1.47.22,0,.25,0,.51,0,.76s-.08.52.1.76a1.55,1.55,0,0,0,.23.07c1.08.07,1.09.08.93,1.13-.06.36.07.57.42.59a4.61,4.61,0,0,0,1.34,0c.21-.44,0-.91.26-1.33Z"/><path class="cls-5" d="M25.29,53.17,25.12,53l-.33-.35c-.06-.31-.32-.47-.49-.69a1.29,1.29,0,0,1-.07-1.79A1.2,1.2,0,0,1,26.15,50c.47.41.9.87,1.35,1.31l.16.18,0,.48-1.92,1.58-.29,0A.46.46,0,0,0,25.29,53.17Z"/><path class="cls-5" d="M24.57,74c0-1.1,0-2.19,0-3.28,0-.24-.11-.53.15-.72.37.39.65.88,1.2,1.07a.39.39,0,0,0,.18.33A2.11,2.11,0,0,1,25.6,74Z"/><path class="cls-8" d="M67.63,70.36a9.49,9.49,0,0,1,1.22,1.54,3.4,3.4,0,0,0,2,1.26,32.88,32.88,0,0,0,4.43.54q0,23.89,0,47.79v1H68c0-3.72,0-7.44.1-11.16.08-2.13,0-4.26-.06-6.4-.13-3,0-5.94-.18-8.91-.14-2.18,0-4.38-.18-6.57-.12-1.92,0-3.86-.19-5.79a1.4,1.4,0,0,0,.65-.39c0-1.45.1-2.9,0-4.33C67.86,76.05,67.79,73.2,67.63,70.36Z"/><path class="cls-3" d="M79.46,90.05c1.33.16,2.55.3,3.77.46,1.39.19,2.77.4,4.16.6l3.23.44c.9.12,1.82.22,2.72.38,1.24.22,2.49.35,3.74.48.66.07.72.1.74.77,0,.35,0,.7,0,1v33.15a2.92,2.92,0,0,1-.1,1.14l-18.26-4.18Zm1.87,2.4v29c0,.15,0,.29,0,.43,0,.45.13.66.62.74,1.22.19,2.42.45,3.62.72,2.7.6,5.39,1.26,8.11,1.82a5.92,5.92,0,0,0,1.88.32c.1-10.34-.39-20.63-.1-30.94Z"/><path class="cls-11" d="M68,122.44h7.28v9.73H68l-.76-.27c0-.39.14-.81-.16-1.17.54-.15.72-.48.7-1.07C67.71,127.26,67.93,124.85,68,122.44Z"/><path class="cls-8" d="M112.41,76.59a.85.85,0,0,1-1.12.33,2.16,2.16,0,0,0-1.82.2,9.88,9.88,0,0,1-3.88,1.28,1,1,0,0,0-.32.13,6.81,6.81,0,0,1-2.24-.35,2.2,2.2,0,0,0-.83-.55c-.45-.17-1-.25-1.14-.89-.07-.34-.44-.3-.72-.3a1,1,0,0,1,0-.76c.28-.18.6-.09.91-.15.88,0,1.78.5,2.74-.1a13.59,13.59,0,0,1-2.74-.17c-.24-.08-.49-.15-.73-.25a.37.37,0,0,1-.27-.4.43.43,0,0,1,.32-.37,3.94,3.94,0,0,1,.77-.06,18.09,18.09,0,0,0,3-.14,3.75,3.75,0,0,0,1-.32c.23-.12.5-.22.45-.55s-.29-.31-.52-.37-.72-.22-1.08-.32a1.1,1.1,0,0,1-.8-.72.67.67,0,0,1,.87-.5c1.21.24,2.43,0,3.63.19a14,14,0,0,1,1.65.68,2,2,0,0,0,1.74.19,1,1,0,0,1,.65,0C112.58,73.67,112.38,75.15,112.41,76.59Z"/><path class="cls-14" d="M67.25,131.9l.76.27a1.31,1.31,0,0,0,.37.56l.49.56c-.57.39-1.27.65-1.41,1.5.6,0,.62-.53.92-.74a10.31,10.31,0,0,1,1-.51.64.64,0,0,1,.5.3c-1,.48-1.27.75-1.16,1.42a4,4,0,0,1,1.53-1.2.59.59,0,0,1,.5.2,3.76,3.76,0,0,0-1.07.87c-.12.16-.23.34.08.53a5.4,5.4,0,0,1,1.39-1.22l.82.31,1.78.84a1.71,1.71,0,0,1,1,1,5.94,5.94,0,0,1-4.07.84c-1.84-.1-3.66-.44-5.5-.67a9.33,9.33,0,0,1-3-.64l0-1v-.69a2.49,2.49,0,0,0,.16-1c.18-.35.14-.83.56-1.05a3.32,3.32,0,0,0,2.83.65C66.23,132.11,66.29,132.06,67.25,131.9Z"/><path class="cls-2" d="M98.67,80.44c-.34-.19-.43-.43-.17-.77.11-.13.18-.29.28-.43a1,1,0,0,1,1.61-.13,3.68,3.68,0,0,1,0,4.85,1.18,1.18,0,0,1-1.5.09,1,1,0,0,0-.76-.31h0c0-.39.29-.61.53-.85.39,0,.82.11,1.18-.11s.52-1.18.24-1.75S99.42,80.18,98.67,80.44Z"/><path class="cls-8" d="M98.67,80.44c.75-.26,1.09-.12,1.44.58s.17,1.52-.24,1.75-.79.06-1.18.11A4,4,0,0,0,98.67,80.44Z"/><path class="cls-2" d="M98.17,83.74c0,.1-.1.18-.24.11,0-.15.15-.09.23-.12Z"/><path class="cls-2" d="M121.66,132.32h8.91l.72,2.27c.38,1.16.38,1.16,1.57,1.27l0,1a5.47,5.47,0,0,0-.72,1.64c.75.22,1.63.13,2.08,1.14-.62-.06-.94-.52-1.43-.55s-.94-.24-1.35.22c1.7.49,1.7.49,1.88,1.05-.48,0-.75-.39-1.16-.47s-.8-.06-1.2-.1c0-.45-.4-.31-.66-.33-3.36-.25-6.72-.15-10.08-.18-.07-.42-.12-.84-.21-1.26s-.14-.67-.51-.82l.17-1a5,5,0,0,0,1.38-.28Z"/><path class="cls-9" d="M121.66,132.32l-.59,3.56a5,5,0,0,1-1.38.28l-.34,0a12.55,12.55,0,0,1,.42-2.36c.26-1.26.45-2.53.65-3.8.15-1,.25-2,.45-3a15.39,15.39,0,0,0,.1-1.8,45.94,45.94,0,0,0,0-6.74s0,0,0-.08c.07-1.83-.47-3.65-.1-5.49.15-.73.06-1.48.19-2.23.21-1.29.47-2.58.59-3.89.08-.94.3-1.87.3-2.82,0-1.24,0-2.48,0-3.72A25,25,0,0,0,121,94a8.4,8.4,0,0,0-1.26-2.82.31.31,0,0,1,0-.32,4.71,4.71,0,0,1,2.54,3c.37,1.65.65,3.31.9,5,.16,1,.4,2.07.58,3.11s.31,2.09.46,3.14c-.4,1.35-.58,2.75-.87,4.13a31.11,31.11,0,0,0-.48,5.86c0,3.38-.17,6.76-.43,10.13C122.25,127.56,121.92,129.94,121.66,132.32Z"/><path class="cls-9" d="M72,134.75l-.82-.31-.1-.15c.23-.33.58-.2.88-.2,2.17,0,4.34,0,6.51,0a2.87,2.87,0,0,1,1.68.56c2.87,1.81,5.79,3.54,8.61,5.43.19.12.36.28.63.48a5.67,5.67,0,0,1-1.7.31c-4.16-.09-8.31.14-12.47.23-3.43.08-6.88,0-10.3.17-2.4.15-4.8,0-7.18.16s-5,0-7.44.18c-2,.17-4.1.14-6.14.12S40,142,38,141.88a2.28,2.28,0,0,1-.83-.07,1,1,0,0,1,.15-.85c.82-1.78,1.4-3.66,2.15-5.46a1.23,1.23,0,0,1,1.27-.89l2.52,0,0,.41-.08,0c-.12,0-.18,0-.17.14v0a15.31,15.31,0,0,1-2.86-.25c-.83,2.13-1.63,4.23-2.44,6.31a1.82,1.82,0,0,0,1.06.15c2.65,0,5.31,0,8-.15,2.16-.17,4.32,0,6.49-.16,2.52-.19,5.07,0,7.61-.18s5.36,0,8-.16c3.22-.2,6.46-.09,9.69-.17s6.29-.28,9.44-.22c0,0,.09,0,.14-.06-.06-.19-.24-.26-.37-.34-2.55-1.61-5.1-3.23-7.68-4.81a3.19,3.19,0,0,0-1.63-.72c-2.08,0-4.15.12-6.22.19A.36.36,0,0,0,72,134.75Z"/><path class="cls-3" d="M71,134.29l.1.15a5.4,5.4,0,0,0-1.39,1.22c-.31-.19-.2-.37-.08-.53a3.76,3.76,0,0,1,1.07-.87Z"/><path class="cls-3" d="M70.24,134.06a4,4,0,0,0-1.53,1.2c-.11-.67.13-.94,1.16-1.42C70,133.89,70.17,133.89,70.24,134.06Z"/><path class="cls-16" d="M107,141.52a5.31,5.31,0,0,0,3.48,1,22.8,22.8,0,0,0,4-.34c1.54-.18,3.07-.43,4.61-.64a1.87,1.87,0,0,0,1-.39c.27.66.22,1-.29,1.21a2.76,2.76,0,0,1-1.06.35c-1.89.12-3.76.44-5.65.59a31.43,31.43,0,0,1-3.36.11,4.31,4.31,0,0,1-2.76-.83C106.61,142.21,106.61,142,107,141.52Z"/><path class="cls-3" d="M130.76,140.17a3.11,3.11,0,0,1,1.54.49c.17.11.34.23.11.59a3,3,0,0,0-2.11-.69C130.33,140.27,130.61,140.3,130.76,140.17Z"/><path class="cls-14" d="M44.31,122.44c.19-2.27.34-4.54.61-6.79.23-2,.61-3.92.93-5.87a32.57,32.57,0,0,0,.62-5.66c0-3.2,0-6.41,0-9.61l.54-.19c.58.65.58.65,1,.18.34,0,.36.29.27.51a4.23,4.23,0,0,0-.14,1.62V107a8.67,8.67,0,0,1-.31,2.21c-.32,1.27-.73,2.52-1.06,3.8a47.5,47.5,0,0,0-1.05,7c-.21,2-.4,4-.51,6a44.76,44.76,0,0,1-.2,4.48H44.9c-.76-.32-.9-.83-.78-1.66a26.84,26.84,0,0,0,.07-3.36A25.17,25.17,0,0,1,44.31,122.44Z"/><path class="cls-13" d="M44.9,130.47h.15a.34.34,0,0,0,.35.14A6.79,6.79,0,0,0,49,131a3.56,3.56,0,0,0-.15,1.21,2.15,2.15,0,0,0-1.88.3,1.16,1.16,0,0,1-1.47-.21,11.28,11.28,0,0,1-.8-.89A2,2,0,0,1,44.9,130.47Z"/><path class="cls-11" d="M48.87,132.23A3.56,3.56,0,0,1,49,131c.74,0,.92-.47,1.08-1.07.68-2.51,1.4-5,2.1-7.51h8.29c.49,2.75.82,5.53,1.41,8.26l.88.27,0,1.2H50c-.3,0-.64-.14-.89.15Z"/><path class="cls-6" d="M62.05,135.11l0,1c0,1,.09,1.21,1.07,1.38.42.07.84.16,1.27.2,1.88.19,3.76.44,5.64.62a8,8,0,0,0,4.07-.43c.54-.23.87-.55.7-1.19.25-.42.56-.13.84-.07a3,3,0,0,1,2,1,2,2,0,0,1-1.15.89,31.33,31.33,0,0,1-6.22,1.18c-1.89.27-3.81.42-5.72.52-1.55.08-3.11.12-4.66.16a37,37,0,0,1-6-.11c-1.13-.15-2.29-.06-3.44-.16-1.45-.13-2.9-.33-4.33-.57a20.07,20.07,0,0,1-3.76-.85,4.07,4.07,0,0,1-1-.5c-.41-.32-.39-.57,0-.89a4.23,4.23,0,0,1,1.31-.65c.27-.07.58-.11.64-.47l2.23,1.32a16.67,16.67,0,0,0,5.27,2.31,4.74,4.74,0,0,0,2.88-.26c.57-.25.61-.4.39-1.06a1.33,1.33,0,0,0-.55-1.1c-.63-.57-1.27-1.12-1.91-1.68a.77.77,0,0,0,0-.15,10.58,10.58,0,0,1,1.58-.34c2.23,0,4.46-.3,6.69-.19C60.61,135.15,61.33,135.11,62.05,135.11Z"/><path class="cls-2" d="M49.06,132.33c.25-.29.59-.15.89-.15H62.76c0,.05,0,.1,0,.15-.42.22-.38.7-.56,1.05-4.15,0-8.3.07-12.44.2Z"/><path class="cls-15" d="M49.78,133.57c4.14-.13,8.29-.23,12.44-.2a2.49,2.49,0,0,1-.16,1H51.61a1.43,1.43,0,0,0-1,.19l-.36-.26c0-.23-.15-.29-.34-.33Z"/><path class="cls-4" d="M54.1,138.57c.22.66.18.81-.39,1.06a4.74,4.74,0,0,1-2.88.26,16.67,16.67,0,0,1-5.27-2.31l-2.23-1.32a1.46,1.46,0,0,1-.32-1.1v0l.17-.14.08,0c2.41,1.62,4.78,3.35,7.68,4A3.87,3.87,0,0,0,54.1,138.57Z"/><path class="cls-15" d="M62.05,135.11c-.72,0-1.44,0-2.16,0-2.23-.11-4.46.23-6.69.19a10.58,10.58,0,0,0-1.58.34l-.3-.18-.37-.38-.16-.29c3.75,0,7.51.07,11.26-.19Z"/><path class="cls-9" d="M62.05,134.6c-3.75.26-7.51.14-11.26.19l-.17-.08a.14.14,0,0,1,0-.09,1.43,1.43,0,0,1,1-.19H62.06Z"/><path class="cls-3" d="M49.92,134c.19,0,.34.1.34.33a3.1,3.1,0,0,0-2.3.75C48.17,134.32,48.77,134,49.92,134Z"/><path class="cls-4" d="M51.32,135.46l.3.18a.77.77,0,0,1,0,.15,3.35,3.35,0,0,0-2,.74C49.75,135.81,50,135.65,51.32,135.46Z"/><path class="cls-4" d="M50.62,134.71l.17.08.16.29a3.39,3.39,0,0,0-2.18.7C49.09,134.89,49.86,134.82,50.62,134.71Z"/><path class="cls-13" d="M151.66,59l-1.88,2.5c-1.16-.77-2.26-1.58-3.38-2.45a22.89,22.89,0,0,1,1.73-2.59Z"/><path class="cls-6" d="M67.63,70.36c.16,2.84.23,5.69.47,8.53.12,1.43,0,2.88,0,4.33a1.4,1.4,0,0,1-.65.39,25.84,25.84,0,0,1-10.78,1.64c0-.21-.16-.25-.35-.31-.68-.22-1.35-.47-2-.73A8.9,8.9,0,0,1,51.51,82a7.55,7.55,0,0,1-2.26-5.16,38.91,38.91,0,0,1,.18-6.91c.08-.72,0-1.44.18-2.14.43-2.07.9-4.13,1.36-6.19a4.81,4.81,0,0,0,.27-2c-.32.82-.57,1.45-.8,2.09-.6,1.59-1.24,3.15-2,4.69-.17.36-.35.67-.82.59a9,9,0,0,1-2.52-.47,17.25,17.25,0,0,1-3.87-1.8,4.32,4.32,0,0,0-.87-.76c.64-1.88,1.3-3.73,2.08-5.55.57-1.32,1.23-2.6,1.93-3.86a9.16,9.16,0,0,1,5.88-4.57,27.29,27.29,0,0,1,4.47-.84,2,2,0,0,0,1,1.51,7.24,7.24,0,0,0,2.83,1.15A1.9,1.9,0,0,0,61,50c0-.2,0-.4,0-.6l.19,0a8.87,8.87,0,0,1,7.54,4.76,97.82,97.82,0,0,1,4.08,9.08c-.12.42-.54.55-.6.92A25.83,25.83,0,0,1,69,65.84c0-.38-.31-.62-.37-1-.29-2-.64-4-1-6-.09-.41,0-.89-.36-1.25.1,1.62.27,3.23.22,4.85,0,1.27,0,2.54,0,3.81A29.68,29.68,0,0,1,67.63,70.36Z"/><path class="cls-13" d="M48.05,94.5c-.47.47-.47.47-1-.18l-.54.19c-.26-.48-.5-1-1.13-1.1-.26,0-.36-.34-.5-.57a7.53,7.53,0,0,1-.82-3,19.61,19.61,0,0,1,0-3.34A3.64,3.64,0,0,0,43.78,85,109.57,109.57,0,0,1,40.6,73.93a14.07,14.07,0,0,1,.61-8.6c.56.24.78.92,1.42,1.08a14.36,14.36,0,0,0,4.86.84c0,.66-.53,1.16-.6,1.8a4.74,4.74,0,0,0-.8,2c-.08,1.21.22,2.39.21,3.59,0,.07.1.14.15.2,0,.61.1,1.21.14,1.8.12,2.3.34,4.59.56,6.87a3.23,3.23,0,0,0,.53,2.28,16.16,16.16,0,0,1,1.4,2.24.81.81,0,0,0,.17.52,15,15,0,0,1,.58,2,.66.66,0,0,1-.93-.23c-.2-.24-.25-.58-.55-.73,0,0,0-.06,0-.08l0,0c0,.06,0,.09.08.08a8.79,8.79,0,0,0,.4,3.1,1.62,1.62,0,0,1-.06,1.47L48.34,94l-.15-.37c0-.18,0-.37-.28-.41-.14.15-.08.29,0,.43L48,94Zm-.46-2.19A2,2,0,0,0,47.33,91C47.33,91.47,47.19,91.94,47.59,92.31Zm.21.5,0-.13s-.06,0-.06,0,0,.09.05.13Z"/><path class="cls-13" d="M61,49.37c0,.2,0,.4,0,.6a1.9,1.9,0,0,1-2.42,1.74,7.24,7.24,0,0,1-2.83-1.15,2,2,0,0,1-1-1.51,2.41,2.41,0,0,0,.31-1.32c0-1.08.21-2.16.2-3.25a3.15,3.15,0,0,0-.22-1.34,3.82,3.82,0,0,1-1.49-.72h0c0-.11,0-.21-.19-.19l0,0c.05-.47-.25-.88-.18-1.36a1.19,1.19,0,0,1,.92-1.11c.53-.08.86.12,1.15.7.08.16.12.33.2.48a.42.42,0,0,0,.59.21A1.35,1.35,0,0,0,56.27,40a9.4,9.4,0,0,1-.13-1.29,1.83,1.83,0,0,1,1-1.84,2.41,2.41,0,0,1,1.92-.23,6.64,6.64,0,0,0,4.36-.08,1.39,1.39,0,0,1,.69,1.29c0,.67,0,1.33,0,2-.09,1.12,0,2.23-.17,3.35a7.78,7.78,0,0,1-1.1,3.3,2.31,2.31,0,0,1-2.06,1A7.14,7.14,0,0,1,56.57,46a4,4,0,0,0,1,1.3,6.88,6.88,0,0,0,3.28,1.35l.17.54A.86.86,0,0,0,61,49.37ZM62.75,44c-1,.14-2-.33-3-.07.42.94.92,1.33,1.63,1.29A1.36,1.36,0,0,0,62.75,44Zm-1-3.91c-.26.28-.1.57-.12.85,0,.67.73,1.42-.24,2,.51.24.76,0,1-.31A24,24,0,0,1,61.75,40.07ZM54.17,42.2c.87.09.8-.49.92-.83s-.14-.67-.5-.83C54,41,54.7,41.66,54.17,42.2Zm6-3.19a1.27,1.27,0,0,0-2.08.37Zm-.75,2.36c.5-.69.48-.93-.11-1.32C58.85,40.7,58.85,40.74,59.43,41.37ZM64,39.28c-.42-.83-1.2-.94-1.68-.23Zm-.94,2c.58-.56.57-.69,0-1.25A.81.81,0,0,0,63,41.28Z"/><path class="cls-20" d="M64.18,39.79c0-.66,0-1.32,0-2a1.39,1.39,0,0,0-.69-1.29,6.64,6.64,0,0,1-4.36.08,2.41,2.41,0,0,0-1.92.23,1.83,1.83,0,0,0-1,1.84A9.4,9.4,0,0,0,56.27,40a1.35,1.35,0,0,1-.19,1.23.42.42,0,0,1-.59-.21c-.08-.15-.12-.32-.2-.48-.29-.58-.62-.78-1.15-.7a1.19,1.19,0,0,0-.92,1.11c-.07.48.23.89.18,1.36-.32-.13-.34-.45-.43-.71a19.79,19.79,0,0,1-.91-3.87,2.48,2.48,0,0,1,1.48-2.74c.06-.28.1-.54.15-.79.24-1.22.7-1.62,1.93-1.62a1,1,0,0,0,.83-.34,2.62,2.62,0,0,1,3.24-.62,1.82,1.82,0,0,0,1.71-.06,3.28,3.28,0,0,1,2.24-.4,1.71,1.71,0,0,1,1.57,1.58,2.38,2.38,0,0,0,.73,1.57A1.72,1.72,0,0,1,66,36.64a10.74,10.74,0,0,0-1.55,2.86A.48.48,0,0,1,64.18,39.79Z"/><path class="cls-15" d="M47.49,67.25a14.36,14.36,0,0,1-4.86-.84c-.64-.16-.86-.84-1.42-1.08l.06-.7a17.25,17.25,0,0,0,3.87,1.8,9,9,0,0,0,2.52.47C47.66,67,47.65,67.18,47.49,67.25Z"/><path class="cls-15" d="M60.85,48.67a6.88,6.88,0,0,1-3.28-1.35,4,4,0,0,1-1-1.3,7.14,7.14,0,0,0,4.28,1.44Z"/><path class="cls-20" d="M53.56,42.42a3.82,3.82,0,0,0,1.49.72,3.15,3.15,0,0,1,.22,1.34A4.92,4.92,0,0,1,53.74,43C53.61,42.85,53.46,42.67,53.56,42.42Z"/><path class="cls-15" d="M61,49.37a.86.86,0,0,1,0-.16l.2.13Z"/><path class="cls-20" d="M53.38,42.24c.15,0,.17.08.19.19C53.41,42.46,53.39,42.36,53.38,42.24Z"/><path class="cls-6" d="M98.18,71.14V73.6H95.61c-.19-.76,0-1.57-.12-2.41A22.17,22.17,0,0,0,93,71V68.56c.82-.21,1.66,0,2.56-.15V66H98.1c.18.77,0,1.58.12,2.42.77.23,1.59,0,2.44.17a15.43,15.43,0,0,1,0,2.46C99.89,71.19,99.08,71,98.18,71.14Z"/><path class="cls-16" d="M91.23,75.38h-4a3.81,3.81,0,0,1-.07-1.65h4C91.35,74.23,91.17,74.76,91.23,75.38Z"/><path class="cls-16" d="M101.27,75.26a13.59,13.59,0,0,0,2.74.17c-1,.6-1.86.09-2.74.1Z"/><path class="cls-16" d="M90.71,36.7c1.35-.37,2.75,0,4.11-.33a4.9,4.9,0,0,1,1.1,0V39a.59.59,0,0,0-.4.15c-.66.63-1.34,1.26-2,1.87-1.58,1.42-3,3-4.59,4.45-2,1.89-4,3.71-5.93,5.69-.21.22-.39.53-.76.51q0-3.37,0-6.76c.3,0,.45-.22.63-.39l3.87-3.87a7,7,0,0,1,.56-.53A29.52,29.52,0,0,0,90.71,36.7Z"/><path class="cls-16" d="M95.91,40v5.38a1.15,1.15,0,0,0-.28.19c-1.21,1.35-2.58,2.53-3.87,3.79s-2.3,2.25-3.45,3.37a30.93,30.93,0,0,0-2.65,2.72H82.21V53.19c.4,0,.58-.35.82-.58l9.74-9.74a4.68,4.68,0,0,1,.56-.53,9.45,9.45,0,0,0,2.08-2.06A.57.57,0,0,1,95.91,40Z"/><path class="cls-4" d="M85.67,55.45a30.93,30.93,0,0,1,2.65-2.72c1.15-1.12,2.29-2.26,3.45-3.37s2.66-2.44,3.87-3.79a1.15,1.15,0,0,1,.28-.19v4.17a1.15,1.15,0,0,0-.28.19c-1.63,1.7-3.49,3.17-5.08,4.91-.24.27-.68.35-.72.79Z"/><path class="cls-4" d="M90.71,36.7a29.52,29.52,0,0,1-3.43,3.37,7,7,0,0,0-.56.53l-3.87,3.87c-.18.17-.33.4-.63.39l0-7.62c1.35.06,2.68-.16,4-.23C87.7,36.92,89.2,36.75,90.71,36.7Z"/><path class="cls-10" d="M82.18,37.24l0,7.62q0,3.39,0,6.76v3.83H80.87v-18Z"/><path class="cls-16" d="M89.84,55.44c0-.44.48-.52.72-.79,1.59-1.74,3.45-3.21,5.08-4.91a1.15,1.15,0,0,1,.28-.19v5.89Z"/><path class="cls-4" d="M82.22,53.19V51.62c.37,0,.55-.29.76-.51,1.89-2,3.94-3.8,5.93-5.69,1.54-1.47,3-3,4.59-4.45.69-.61,1.37-1.24,2-1.87a.59.59,0,0,1,.4-.15v1a.57.57,0,0,0-.49.28,9.45,9.45,0,0,1-2.08,2.06,4.68,4.68,0,0,0-.56.53L83,52.61C82.8,52.84,82.62,53.18,82.22,53.19Z"/><path class="cls-9" d="M67.46,66.25c0-1.27,0-2.54,0-3.81,0-1.62-.12-3.23-.22-4.85.36.36.27.84.36,1.25.4,2,.75,4,1,6,.06.4.39.64.37,1A3.76,3.76,0,0,1,67.46,66.25Z"/><path class="cls-5" d="M32.88,30l.16.16c0,2.07,0,4.14.06,6.2,0,.52-.21.73-.72.72l-4.14,0a3.06,3.06,0,0,1-.2-1.09c0-1.61,0-3.23,0-4.84a1.13,1.13,0,0,1,.61-1.21c.42-.21.5-.61.44-1.1H32c.16.34-.06.93.58,1C32.61,29.91,32.74,29.94,32.88,30Zm-.36,2.09h-4v2.83h4.24A10.23,10.23,0,0,0,32.52,32.06Z"/><path class="cls-5" d="M32.5,28.33h-4c-.11-.68,0-.93.57-1a23.41,23.41,0,0,1,3,0C32.72,27.41,32.53,27.91,32.5,28.33Z"/><path class="cls-6" d="M124.45,62.77l.69-.06c.2-.22,0-.5.26-.72a.53.53,0,0,1,.58,0c.24.18,0,.45.24.74s.44-.06.68.13a1.11,1.11,0,0,1,0,.74c-.26.27-.56.06-.78.21s-.07.44-.22.62a.56.56,0,0,1-.57,0c-.19-.21,0-.51-.18-.74s-.45,0-.67-.15S124.37,63.09,124.45,62.77Z"/><path class="cls-15" d="M128,45.69c0-.19,0-.45-.08-.58-.4-.45-.25-1-.26-1.46.22-.25.52-.22.79-.36a2.05,2.05,0,0,1,.27,1.49c0,.18,0,.34.16.43a.55.55,0,0,1-.38.3c-.1-.14-.13,0-.16.05A.32.32,0,0,1,128,45.69Z"/><path class="cls-4" d="M128.37,42.29l-.7.79-.16.21h0l-.27.05-.1-.1C127.46,42.84,127.6,42.16,128.37,42.29Z"/><path class="cls-13" d="M128.37,45.56c0-.1.06-.19.16-.05A.28.28,0,0,1,128.37,45.56Z"/><path class="cls-15" d="M127.22,43.35l.27-.05c0,.24-.09.35-.32.34Z"/><path class="cls-15" d="M127.51,43.29l.16-.21A.22.22,0,0,1,127.51,43.29Z"/><path class="cls-3" d="M134.52,24h-1.3c-.3.42-.05.89-.26,1.33a4.61,4.61,0,0,1-1.34,0c-.35,0-.48-.23-.42-.59.16-1,.15-1.06-.93-1.13a1.55,1.55,0,0,1-.23-.07c-.18-.24-.09-.51-.1-.76s0-.51,0-.76c.49-.3,1,0,1.47-.22.21-.37,0-.8.18-1.23a2.26,2.26,0,0,1,1.76.16c.14.4,0,.78.1,1.18.34.3.82.26,1.28.37A2.45,2.45,0,0,1,134.52,24Zm-4.11-1.7a1,1,0,0,0,0,1,2.94,2.94,0,0,1,1.25.33c.16.44-.05.92.16,1.41.28,0,.58.13.86-.05a1,1,0,0,0,.09-.52c0-.74.07-.76.81-.79.28,0,.57.09.83-.08.14-1,.14-1-1.26-1.23a3.34,3.34,0,0,0-.11-1.15c-.23-.51-.7-.3-1.08-.21-.16.43.05.86-.18,1.23C131.3,22.38,130.86,22.22,130.41,22.33Z"/><path class="cls-14" d="M48.7,94.2a1.62,1.62,0,0,0,.06-1.47,8.79,8.79,0,0,1-.4-3.1v0c.3.15.35.49.55.73a.66.66,0,0,0,.93.23,15,15,0,0,0-.58-2,3.52,3.52,0,0,0,2.21-1.34A6.45,6.45,0,0,0,52.69,85c.38,0,.74.06,1.11.09a21.49,21.49,0,0,0,2.89.21,25.84,25.84,0,0,0,10.78-1.64c.2,1.93.07,3.87.19,5.79.15,2.19,0,4.39.18,6.57.18,3,0,5.94.18,8.91.1,2.14.14,4.27.06,6.4C68,115,68,118.72,68,122.44c0,2.41-.27,4.82-.19,7.22,0,.59-.16.92-.7,1.07a12.51,12.51,0,0,1-3.81.23,13.58,13.58,0,0,0-.16-1.71,33.71,33.71,0,0,0-.78-5.6,50.8,50.8,0,0,1-.76-7.25c-.1-1.69,0-3.4-.23-5.09a20.69,20.69,0,0,0-.43-3.31,31.08,31.08,0,0,1-.91-6.79,42.78,42.78,0,0,1,.3-7.75,11.9,11.9,0,0,1,1.88-5.54s0-.09-.1-.18a13.33,13.33,0,0,0-2,1.57,2.73,2.73,0,0,0-1,1.56c-.45,1.57-.65,3.19-1,4.78a12.15,12.15,0,0,0-.55,3,3.25,3.25,0,0,0-.32,1.22c-1,5.08-2,10.14-3.25,15.16l-1.77,7.37c-.7,2.5-1.42,5-2.1,7.51-.16.6-.34,1.09-1.08,1.07a6.79,6.79,0,0,1-3.62-.42,9.21,9.21,0,0,1,.05-1.9,25.14,25.14,0,0,0,.26-3c.15-1.54.28-3.09.35-4.63a48,48,0,0,1,.55-5,27.47,27.47,0,0,1,1-4.59,13.08,13.08,0,0,0,.87-3.93C48.63,103.14,48.35,98.66,48.7,94.2Z"/><path class="cls-4" d="M81.33,92.45l14.13,2.11c-.29,10.31.2,20.6.1,30.94a5.92,5.92,0,0,1-1.88-.32c-2.72-.56-5.41-1.22-8.11-1.82-1.2-.27-2.4-.53-3.62-.72-.49-.08-.65-.29-.62-.74,0-.14,0-.28,0-.43v-29Z"/><path class="cls-13" d="M63.28,131a12.51,12.51,0,0,0,3.81-.23c.3.36.14.78.16,1.17-1,.16-1,.21-1.64,1.07a3.32,3.32,0,0,1-2.83-.65s0-.1,0-.15l0-1.2Z"/><path class="cls-15" d="M43,135.16a1.46,1.46,0,0,0,.32,1.1c-.06.36-.37.4-.64.47a4.23,4.23,0,0,0-1.31.65c-.4.32-.42.57,0,.89a4.07,4.07,0,0,0,1,.5,20.07,20.07,0,0,0,3.76.85c1.43.24,2.88.44,4.33.57,1.15.1,2.31,0,3.44.16a37,37,0,0,0,6,.11c1.55,0,3.11-.08,4.66-.16,1.91-.1,3.83-.25,5.72-.52a31.33,31.33,0,0,0,6.22-1.18,2,2,0,0,0,1.15-.89,3,3,0,0,0-2-1c-.28-.06-.59-.35-.84.07l-.15-.11a1.71,1.71,0,0,0-1-1L72,134.75a.36.36,0,0,1,.29-.16c2.07-.07,4.14-.23,6.22-.19a3.19,3.19,0,0,1,1.63.72c2.58,1.58,5.13,3.2,7.68,4.81.13.08.31.15.37.34-.05,0-.1.06-.14.06-3.15-.06-6.29.14-9.44.22s-6.47,0-9.69.17c-2.69.16-5.37,0-8,.16s-5.09,0-7.61.18c-2.17.17-4.33,0-6.49.16-2.65.2-5.31.12-8,.15a1.82,1.82,0,0,1-1.06-.15c.81-2.08,1.61-4.18,2.44-6.31A15.31,15.31,0,0,0,43,135.16Z"/><path class="cls-4" d="M74.69,136.63l.15.11c.17.64-.16,1-.7,1.19a8,8,0,0,1-4.07.43c-1.88-.18-3.76-.43-5.64-.62-.43,0-.85-.13-1.27-.2-1-.17-1.1-.35-1.07-1.38a9.33,9.33,0,0,0,3,.64c1.84.23,3.66.57,5.5.67A5.94,5.94,0,0,0,74.69,136.63Z"/><path class="cls-15" d="M43.18,135l-.17.14C43,135,43.06,135,43.18,135Z"/><path class="cls-20" d="M48.7,94.2c-.35,4.46-.07,8.94-.19,13.41a13.08,13.08,0,0,1-.87,3.93,27.47,27.47,0,0,0-1,4.59,48,48,0,0,0-.55,5c-.07,1.54-.2,3.09-.35,4.63a25.14,25.14,0,0,1-.26,3,9.21,9.21,0,0,0-.05,1.9.34.34,0,0,1-.35-.14,44.76,44.76,0,0,0,.2-4.48c.11-2,.3-4,.51-6a47.5,47.5,0,0,1,1.05-7c.33-1.28.74-2.53,1.06-3.8a8.67,8.67,0,0,0,.31-2.21V96.63A4.23,4.23,0,0,1,48.32,95c.09-.22.07-.47-.27-.51V94h.3Z"/><path class="cls-8" d="M52.2,122.44,54,115.07c1.22-5,2.27-10.08,3.25-15.16a3.25,3.25,0,0,1,.32-1.22c.19,1.39.36,2.8.58,4.19.43,2.73.7,5.49,1,8.24.24,2.17.52,4.35.78,6.52.2,1.6.39,3.2.59,4.8Z"/><path class="cls-20" d="M60.49,122.44c-.2-1.6-.39-3.2-.59-4.8-.26-2.17-.54-4.35-.78-6.52-.3-2.75-.57-5.51-1-8.24-.22-1.39-.39-2.8-.58-4.19a12.15,12.15,0,0,1,.55-3c.34-1.59.54-3.21,1-4.78a2.73,2.73,0,0,1,1-1.56,13.33,13.33,0,0,1,2-1.57c0,.09.11.16.1.18a11.9,11.9,0,0,0-1.88,5.54,42.78,42.78,0,0,0-.3,7.75,31.08,31.08,0,0,0,.91,6.79,20.69,20.69,0,0,1,.43,3.31c.19,1.69.13,3.4.23,5.09a50.8,50.8,0,0,0,.76,7.25,33.71,33.71,0,0,1,.78,5.6,13.58,13.58,0,0,1,.16,1.71h-.5l-.88-.27C61.31,128,61,125.19,60.49,122.44Z"/><path class="cls-9" d="M56.69,85.25A21.49,21.49,0,0,1,53.8,85c-.37,0-.73-.08-1.11-.09l-.33,0-5.21-1.34c-.22-2.28-.44-4.57-.56-6.87,0-.59-.14-1.19-.14-1.8,0-.07.12-.14.13-.21.1-1.88.21-3.75.31-5.63.07-.64.58-1.14.6-1.8.16-.07.17-.21.17-.35.47.08.65-.23.82-.59.72-1.54,1.36-3.1,2-4.69.23-.64.48-1.27.8-2.09a4.81,4.81,0,0,1-.27,2c-.46,2.06-.93,4.12-1.36,6.19-.15.7-.1,1.42-.18,2.14a38.91,38.91,0,0,0-.18,6.91A7.55,7.55,0,0,0,51.51,82a8.9,8.9,0,0,0,2.81,2.26c.67.26,1.34.51,2,.73C56.53,85,56.66,85,56.69,85.25Z"/><path class="cls-14" d="M47.15,83.56l5.21,1.34a6.49,6.49,0,0,1-1.5,2.32,2.35,2.35,0,0,1-1.78.86,16.16,16.16,0,0,0-1.4-2.24A3.23,3.23,0,0,1,47.15,83.56Z"/><path class="cls-10" d="M46.89,69.05c-.1,1.88-.21,3.75-.31,5.63,0,.07-.09.14-.13.21s-.15-.13-.15-.2c0-1.2-.29-2.38-.21-3.59A4.74,4.74,0,0,1,46.89,69.05Z"/><path class="cls-20" d="M49.08,88.08a2.35,2.35,0,0,0,1.78-.86,6.49,6.49,0,0,0,1.5-2.32l.33,0a6.45,6.45,0,0,1-1.23,2.31,3.52,3.52,0,0,1-2.21,1.34A.81.81,0,0,1,49.08,88.08Z"/><path class="cls-15" d="M47.59,92.31c-.4-.37-.26-.84-.26-1.35A2,2,0,0,1,47.59,92.31Z"/><path class="cls-15" d="M47.92,93.63c-.09-.14-.15-.28,0-.43.24,0,.26.23.28.41Z"/><path class="cls-14" d="M47.92,93.63l.27,0,.15.37H48Z"/><path class="cls-15" d="M47.8,92.81l-.06,0s0-.08-.05-.13,0,0,.06,0Z"/><path class="cls-14" d="M48.36,89.63c-.07,0-.1,0-.08-.08l0,0s0,.05,0,.08Z"/><path class="cls-5" d="M62.75,44a1.36,1.36,0,0,1-1.32,1.22c-.71,0-1.21-.35-1.63-1.29C60.79,43.65,61.71,44.12,62.75,44Z"/><path class="cls-15" d="M61.75,40.07a24,24,0,0,0,.67,2.56c-.27.3-.52.55-1,.31,1-.6.21-1.35.24-2C61.65,40.64,61.49,40.35,61.75,40.07Z"/><path class="cls-15" d="M54.17,42.2c.53-.54-.16-1.18.42-1.66.36.16.65.41.5.83S55,42.29,54.17,42.2Z"/><path class="cls-20" d="M60.18,39l-2.08.37A1.27,1.27,0,0,1,60.18,39Z"/><path class="cls-14" d="M59.43,41.37c-.58-.63-.58-.67-.11-1.32C59.91,40.44,59.93,40.68,59.43,41.37Z"/><path class="cls-20" d="M64,39.28l-1.68-.23C62.76,38.34,63.54,38.45,64,39.28Z"/><path class="cls-20" d="M63,41.28A.81.81,0,0,1,63,40C63.59,40.59,63.6,40.72,63,41.28Z"/><path class="cls-13" d="M32.52,32.06a10.23,10.23,0,0,1,.2,2.83H28.48V32.06Z"/><path class="cls-17" d="M130.41,22.33c.45-.11.89.05,1.32-.1.23-.37,0-.8.18-1.23.38-.09.85-.3,1.08.21a3.34,3.34,0,0,1,.11,1.15c1.4.26,1.4.26,1.26,1.23-.26.17-.55.08-.83.08-.74,0-.77,0-.81.79a1,1,0,0,1-.09.52c-.28.18-.58.06-.86.05-.21-.49,0-1-.16-1.41a2.94,2.94,0,0,0-1.25-.33A1,1,0,0,1,130.41,22.33Z"/><line class="cls-16" x1="107.74" y1="62.42" x2="107.88" y2="64.13"/><path class="cls-13" d="M63.79,37.38l.39,2.41L63.3,44.6l-1.19,1.51s-3.92-1-3.85-1-.19-4.32-.19-4.32v-2a12.67,12.67,0,0,1,1.38-1C59.58,37.81,63.79,37.38,63.79,37.38Z"/><path class="cls-13" d="M119,44.16s1.35-.12,1.56-.11l.61.05,1.89-.32,1.16,0,.65-1.06.12-1.13L123.78,41l-1.33-.17-2-.14h-1.74l-.3.76,0,.11Z"/></svg>