<svg id="Layer_1" data-name="Layer 1" xmlns="http://www.w3.org/2000/svg" viewBox="0 0 96 96"><defs><style>.cls-1{fill:#f2e5dc;}.cls-2{fill:#86a97b;}.cls-3{fill:#e3cec4;}.cls-4{fill:#f1a28c;}.cls-5{fill:#c78c6b;}.cls-6{fill:#42405c;}.cls-7{fill:#ebd8ce;}.cls-8{fill:#9f9fe6;}.cls-9{fill:#fd5d5d;}.cls-10{fill:#d5eae2;}.cls-11{fill:#bbd7c5;}.cls-12{fill:#86bdb4;}.cls-13{fill:#ffc2c2;}.cls-14{fill:#fdffff;}.cls-15{fill:#fdfefe;}.cls-16{fill:#f1fbfc;}.cls-17{fill:#deefe9;}.cls-18{fill:#99c9ea;}.cls-19{fill:#c4c4c4;}.cls-20{opacity:0.16;}.cls-21{fill:#5c56ce;opacity:0.3;}</style></defs><title>Teleconsultation with Doctors</title><path class="cls-1" d="M10.67,73.9a3.56,3.56,0,0,0-.79-.22c-.12,0-.19-.08-.2-.2a.53.53,0,0,0-.22-.29,2.67,2.67,0,0,1-.92-1.73c-.15-1.08-.27-2.16-.33-3.24,0-.57-.11-1.12-.15-1.68A8.77,8.77,0,0,0,8,65.39a9.56,9.56,0,0,1-.17-1.67c0-.53-.09-1.06-.15-1.58-.12-.94-.18-1.88-.27-2.82-.06-.61-.12-1.22-.16-1.84a8.26,8.26,0,0,0-.1-1.31c-.14-.64,0-1.3-.18-1.93a3.89,3.89,0,0,1,.2-1.51,3.89,3.89,0,0,1,1.39-1.54,4.32,4.32,0,0,1,2.06-.41c-.12-.11-.14-.15-.17-.16l-3.15-.54c-.18,0-.31-.08-.33-.27a17.44,17.44,0,0,1-.21-1.88c0-.78-.12-1.55-.15-2.32,0-.51,0-1-.09-1.53a15.25,15.25,0,0,1,0-4.16,3.5,3.5,0,0,1,1.74-2.63c.12-.06.28-.1.26-.29a9.53,9.53,0,0,1,2.75-.4c1.25,0,2.49-.19,3.74-.14.6,0,1.21,0,1.81,0h4.36c-.09.58-.16,1.17-.25,1.75A13.81,13.81,0,0,0,21,41.37c.05.81.19,1.62.29,2.43a1.79,1.79,0,0,0-.85.22c-.58.14-1.15.3-1.73.42a25.52,25.52,0,0,0-3.76.94,11,11,0,0,1-2.2.45,7.94,7.94,0,0,0-1.75.32c-.43.17-.81.39-.77,1a4.88,4.88,0,0,0,.2,1.61c.16.54.36,1.07.51,1.61a1.08,1.08,0,0,0,.65.76,3,3,0,0,1,1.72,2.27,27.84,27.84,0,0,1,.19,3.53A3.78,3.78,0,0,0,14.21,59a1.31,1.31,0,0,0,1.21.64,5.31,5.31,0,0,0,.87-.16c1.17-.27,2.32-.56,3.49-.81s2.06-.55,3.09-.84a1.3,1.3,0,0,1,.32.54c-.43.63-.43.75.15,1.28a5,5,0,0,0,1.86,1,5.59,5.59,0,0,1,1.19.44.83.83,0,0,1-.51.09c-2.94,0-5.88,0-8.82,0A12.5,12.5,0,0,1,15.34,61c-.54-.08-1-.32-1.55-.43-.19.35.05.64,0,.95-.05,1.28.12,2.54.13,3.81,0,.72.07,1.44.08,2.16a.23.23,0,0,0,.11.18v1.27c-.06.29.11.55.1.83-.07,1.43.14,2.85.11,4.27H13A13.75,13.75,0,0,1,10.67,73.9Zm8.58-32.05a.81.81,0,0,0,.76.78.84.84,0,0,0,.73-.83.8.8,0,0,0-.73-.75C19.53,41.1,19.23,41.23,19.25,41.85Z"/><path class="cls-2" d="M79.23,50.38A6.49,6.49,0,0,0,78.88,49a2.88,2.88,0,0,1-.09-1.05c0-.33.17-.46.51-.48a1.46,1.46,0,0,1,1.42.77,2.9,2.9,0,0,0,1.83,1.47,2.74,2.74,0,0,1,1.62,1.91,9.84,9.84,0,0,1,.55,4.17.44.44,0,0,1,0,.16A2.53,2.53,0,0,0,84.9,58a40.36,40.36,0,0,1,1.5,5.29c0,.18,0,.39.14.63A72.36,72.36,0,0,1,87,55.56a5.33,5.33,0,0,1-1.89-3.88,6.34,6.34,0,0,1,.66-4,3.08,3.08,0,0,1,.66-.89A6.25,6.25,0,0,0,88.24,44a2.43,2.43,0,0,1,2.34-1.69,1.53,1.53,0,0,1,1.21,2.07,7.48,7.48,0,0,1-.33.9,1.58,1.58,0,0,0,.07,1.52l.11.19a1.83,1.83,0,0,1-.08,2.13,2.62,2.62,0,0,0-.43.85,1.59,1.59,0,0,0,0,.94,2.54,2.54,0,0,1-.49,2.68s-.07.11-.11.17a7.65,7.65,0,0,1-3.25,1.85A59.32,59.32,0,0,0,87,65.49c-.07,1,.14,2,.17,3l.23-3A21.39,21.39,0,0,1,88,62.76a1.28,1.28,0,0,0-.07-1,5,5,0,0,1-.39-3.24,4.8,4.8,0,0,1,1.15-2.05,11.65,11.65,0,0,1,1.94-1.71c.78-.45,1.5-1,2.25-1.5a2.11,2.11,0,0,1,1.37-.47.83.83,0,0,1,.86.87,1.54,1.54,0,0,1,0,.53,3.9,3.9,0,0,0,0,2.09,1.74,1.74,0,0,1-.83,2c-.14.08-.27.18-.4.26a1.54,1.54,0,0,0-.82,1.17,2.9,2.9,0,0,1-2.61,2.59l-.89.15a5.07,5.07,0,0,0-1.1,0,13.4,13.4,0,0,0-.57,2.83,16.49,16.49,0,0,0-.28,3.29c-.17.21,0,.48-.14.71a.45.45,0,0,1-.47-.05c0-.12,0-.24,0-.36s0-.25-.12-.32a20.57,20.57,0,0,0-.2-2.22A20.23,20.23,0,0,0,86,63.29a3.54,3.54,0,0,1-.49,1,.34.34,0,0,0,0,.31L86,66.34l.33,2.23v.67c-.21-.27-.18-.51-.33-.66A12.07,12.07,0,0,0,85.8,67a10.77,10.77,0,0,0-.58-2.35c-.4,0-.76.18-1.13.11a4.25,4.25,0,0,1-1-.32c0-.37,0-.74,0-1.1.13-1.29.27-2.58.4-3.87a22.78,22.78,0,0,1,2,1.45,21.73,21.73,0,0,0-1.2-3.84c-.21-.11-.39,0-.56-.09.08-.95.15-1.9.24-2.85a2.5,2.5,0,0,0,0-.47,3,3,0,0,0-1.72-2.55,8,8,0,0,0-2.4-.55Zm6.31,10.7,0,0v0Z"/><path class="cls-1" d="M83.46,59.45c-.13,1.29-.27,2.58-.4,3.87,0,.36,0,.73,0,1.1-.16.09-.11.25-.11.38a5.62,5.62,0,0,1,0,.58c-.12.63-.14,1.28-.2,1.92-.12,1-.15,1.91-.29,2.86-.07.47-.09.93-.18,1.4A3.26,3.26,0,0,1,79.18,74H76.55a4.27,4.27,0,0,1,0-1.13c0-1.33.11-2.65.13-4V67.62c0-.23.2-.35.22-.58.1-1.08.13-2.16.18-3.24s.19-2.27.13-3.41c-.06-.66.14-1.29.12-2,0-.93.17-1.86.1-2.79v-.11c.17-.93.08-1.88.31-2.81a.31.31,0,0,0,.2-.17,2.92,2.92,0,0,1,1.76-1.63c.21-.08.16-.23.18-.38a8,8,0,0,1,2.4.55A3,3,0,0,1,84,53.65a2.5,2.5,0,0,1,0,.47c-.09,1-.16,1.9-.24,2.85a5.31,5.31,0,0,1,0,.89C83.54,58.38,83.55,58.92,83.46,59.45Z"/><path class="cls-3" d="M7.13,52.73a3.89,3.89,0,0,0-.2,1.51c.14.63,0,1.29.18,1.93a8.26,8.26,0,0,1,.1,1.31c0,.62.1,1.23.16,1.84.09.94.15,1.88.27,2.82.06.52.12,1,.15,1.58A9.56,9.56,0,0,0,8,65.39a8.77,8.77,0,0,1,.1,1.15c0,.56.12,1.11.15,1.68.06,1.08.18,2.16.33,3.24a2.67,2.67,0,0,0,.92,1.73.53.53,0,0,1,.22.29,4.23,4.23,0,0,1-1.25-.39c-1-.38-2.06-.83-3.11-1.2a2.92,2.92,0,0,1-2-2.87,10.93,10.93,0,0,0-.22-1.72,10.43,10.43,0,0,0-.19-1.93c-.07-.43-.06-.87-.11-1.31-.14-1.28-.3-2.57-.42-3.85-.08-.84-.16-1.68-.26-2.51-.14-1.23-.18-2.48-.4-3.7a1.48,1.48,0,0,1,0-.21c0-.21,0-.42,0-.62A2.73,2.73,0,0,1,2,51.56c1.31.44,2.67.7,4,1A2.67,2.67,0,0,0,7.13,52.73Z"/><path class="cls-4" d="M86.72,68.56c.13.07.12.19.12.32s0,.24,0,.36a.45.45,0,0,0,.47.05c.15-.23,0-.5.14-.71h.43c.08.23-.26.5,0,.74.21-.23.14-.52.28-.74a11.61,11.61,0,0,1,3.3.36c0,.44,0,.84,0,1.24s-.28.26-.47.35a41.72,41.72,0,0,1-.67,5c-.4.69-1.11.69-1.76.72-.93.06-1.86,0-2.79,0a2,2,0,0,1-1.72-.73c-.3-1.45-.47-2.92-.66-4.39,0-.26,0-.58-.39-.66,0,0-.09-.1-.11-.16a.44.44,0,0,1,0-.16c0-.37-.26-.77,0-1.08s.68-.22,1-.28A11.74,11.74,0,0,1,86,68.58c.15.15.12.39.33.66v-.67Z"/><path class="cls-2" d="M88.22,68.58c-.14.22-.07.51-.28.74-.3-.24,0-.51,0-.74a6.61,6.61,0,0,1,1.2-2.91,1.29,1.29,0,0,0,.23-.68,2.06,2.06,0,0,1,1.32-2,15.13,15.13,0,0,1,3-.56,1.27,1.27,0,0,1,.47.09.55.55,0,0,1,.37.79,1.36,1.36,0,0,1-.81.8,1.89,1.89,0,0,0-1.15,1,1.81,1.81,0,0,1-2.14.72c-.27-.06-.54-.16-.86-.26A6.45,6.45,0,0,0,88.22,68.58Z"/><path class="cls-4" d="M79.53,77.38a11.27,11.27,0,0,0,.19,2.25c0,.15,0,.29,0,.43a.56.56,0,0,1-.42.6.62.62,0,0,1-.71-.2c-.27-.31-.25-.72-.45-1a13.69,13.69,0,0,0-.62-2.34c-.07-.65-.36-1.26-.45-1.92a11.55,11.55,0,0,0,2.2-.11C79.38,75.82,79.38,76.6,79.53,77.38Z"/><path class="cls-4" d="M10.2,79.73c0-.79.19-1.57.12-2.36a.8.8,0,0,0,.1-.5c0-.62.1-1.22.14-1.83.72.09,1.44,0,2.16,0L12.3,77a15.43,15.43,0,0,0-.61,2.43,4.25,4.25,0,0,0-.24.79.67.67,0,0,1-.72.48.63.63,0,0,1-.51-.64C10.21,79.94,10.21,79.83,10.2,79.73Z"/><path class="cls-5" d="M79.28,75a11.55,11.55,0,0,1-2.2.11L76.78,74h2.4Z"/><path class="cls-5" d="M12.72,75.09c-.72-.08-1.44,0-2.16,0l.11-1.14A13.75,13.75,0,0,0,13,74,5.77,5.77,0,0,1,12.72,75.09Z"/><path class="cls-1" d="M49.65,36.47h4.67c-.14,1.87-.44,3.73-.65,5.59-.29,2.58-.63,5.16-.93,7.75a2.1,2.1,0,0,0,2,2.46c.63.09,1.27.15,1.9.22l10.87,1.27a2.1,2.1,0,0,0,2.45-1.86c.27-2.09.51-4.18.77-6.27l.66-5.33a1.76,1.76,0,0,0,1.36-1.92s0-.07,0-.11a1.08,1.08,0,0,1,.64.52,5.56,5.56,0,0,1,1,2.83c.13,1.16.14,2.32.24,3.47.13,1.6,0,3.18.08,4.77a3.53,3.53,0,0,0-1.82.71c-.32.23-.69.43-.73.89a.84.84,0,0,0-.42.52,8.19,8.19,0,0,0-.55,2.23c-.08.57,0,1.14-.12,1.68A14.71,14.71,0,0,0,71,57.74a1.31,1.31,0,0,0,.42.22,35.44,35.44,0,0,1,3.68,1.26A4.56,4.56,0,0,1,77,60.39c0,.3-.26.34-.47.42a7.69,7.69,0,0,1-2.33.3c-1.58.11-3.17.06-4.76.1-5.07.14-10.14-.1-15.21.13a2.6,2.6,0,0,0-.83.11c-.11-.12-.06-.33-.21-.43a.67.67,0,0,0-.18-.43,9.08,9.08,0,0,0-1.18-1.14,19.29,19.29,0,0,0-3.32-1.93,1.79,1.79,0,0,0-.81-.22,4.33,4.33,0,0,0-1.41-3,6.86,6.86,0,0,0-1.42-.91,35.84,35.84,0,0,0-4.59-1.75,2.38,2.38,0,0,0-1.12-.27c-.07-.14-.2-.09-.32-.1a9.56,9.56,0,0,0-2.22-.64,1.52,1.52,0,0,0-.07-.52,9.23,9.23,0,0,1-.83-2.92,20.73,20.73,0,0,1,0-2.84s0,0,.07-.08c.41.53.88,1,1.32,1.51A7.4,7.4,0,0,0,38.44,47a1.86,1.86,0,0,0,2.08.12,6.36,6.36,0,0,0,1.94-1.78,42.14,42.14,0,0,0,3.47-5.18,3.4,3.4,0,0,1,1.19-1.31,2.6,2.6,0,0,0,.88-.74,8,8,0,0,1,1.21-1.26c.17.07.19.21.24.38a28.56,28.56,0,0,1,.61,5.05c.11,1.12.16,2.24.21,3.37s.18,2.14.13,3.22c0,.81,0,1.63,0,2.44,0,.39.21.77.09,1.15a3.84,3.84,0,0,0-.09.89A17.26,17.26,0,0,1,50.3,56a1.52,1.52,0,0,0,.05.87c.28.09.38,0,.36-.28-.07-1.08.14-2.15.11-3.23s0-2.28-.08-3.43c-.11-1.37,0-2.75-.12-4.13a15.68,15.68,0,0,1-.12-2.37.41.41,0,0,0,0-.11c-.17-1.06-.16-2.13-.3-3.19-.11-.89-.18-1.78-.37-2.65A4.68,4.68,0,0,1,49.65,36.47Z"/><path class="cls-6" d="M71.36,40.3l-.66,5.33c-.26,2.09-.5,4.18-.77,6.27a2.1,2.1,0,0,1-2.45,1.86L56.61,52.49c-.63-.07-1.27-.13-1.9-.22a2.1,2.1,0,0,1-2-2.46c.3-2.59.64-5.17.93-7.75.21-1.86.51-3.72.65-5.59.18-1.31.37-2.61.48-3.92.19-1.49.38-3,.58-4.45.33-2.76.66-5.51,1-8.27.06-.47.11-.95.2-1.42a2.07,2.07,0,0,1,2.27-1.71c2.27.21,4.54.46,6.8.7l5.44.59c.28,0,.56.07.84.12a2,2,0,0,1,1.73,2.09c0,.79-.16,1.58-.25,2.37q-.41,3.48-.82,7c0,.4-.11.8-.16,1.21A13.41,13.41,0,0,1,71,31c0-1,.19-2,.31-3.06.2-1.67.41-3.33.6-5,.1-.81.21-1.62.26-2.43a1.56,1.56,0,0,0-1-1.59,9.93,9.93,0,0,0-2.59-.36c-.22.91-.37,1-1.21.95l-.22,0-2.84-.31c-.81-.08-1.62-.15-2.43-.26-.55-.08-.71-.28-.76-.84a.45.45,0,0,0-.11-.31,14.93,14.93,0,0,0-2.53-.18A1.72,1.72,0,0,0,57.09,19c-.13.84-.22,1.69-.33,2.53-.17,1.38-.32,2.77-.49,4.16-.22,1.81-.45,3.61-.67,5.42S55.12,35,54.89,37c-.16,1.32-.31,2.64-.46,4-.09.69-.2,1.37-.27,2-.13,1.2-.32,2.39-.39,3.59a.91.91,0,0,0-.1.46c-.08.76-.15,1.51-.24,2.27a1.71,1.71,0,0,0,1.57,2c1.62.2,3.23.37,4.85.55s3.44.42,5.16.61a12.72,12.72,0,0,0,1.95.16,1.72,1.72,0,0,0,1.61-1.37,4.48,4.48,0,0,0,.11-1.21c.16-1.25.32-2.49.47-3.73q.43-3.51.85-7a3,3,0,0,1,1.41.23A2.28,2.28,0,0,0,71.36,40.3ZM62.81,18.47c1.14.09,2.2.32,3.28.34,0-.15,0-.25,0-.26-1-.14-2.1-.25-3.16-.3A2.17,2.17,0,0,0,62.81,18.47Zm4.38.29a.14.14,0,0,0-.17-.14.13.13,0,0,0-.13.13.14.14,0,0,0,.14.17A.15.15,0,0,0,67.19,18.76Z"/><path class="cls-6" d="M33.6,22a4,4,0,0,1,.68,3.51c-.11.48-.21,1-.3,1.45a4.83,4.83,0,0,0,.54,3.39c.2.33.39.67.57,1a3.48,3.48,0,0,1,.19,3.17.34.34,0,0,1-.23-.1,7.87,7.87,0,0,0-4-1.7,3.13,3.13,0,0,1-.24-1.47,2.25,2.25,0,0,0,1.61-1.12,5.52,5.52,0,0,0,.75-1.91,19.73,19.73,0,0,0,.29-2.42,3.22,3.22,0,0,0-1.3-2.93,7.12,7.12,0,0,1-.92,1.24,15,15,0,0,1-1.39,1.14l-.18.08a.17.17,0,0,0,.24,0c.29.11.72-.08.89.5a2,2,0,0,0-1.41,0c-.18-.05-.09-.23-.25-.27s-.59.24-.91.35a1.39,1.39,0,0,0-.8.55.7.7,0,0,1-.13-.15.76.76,0,0,0-.89-.41.9.9,0,0,0-.59.86,1.46,1.46,0,0,0,1.31,1.64,1.15,1.15,0,0,1,.1.66A13.71,13.71,0,0,1,27,31.76a1.83,1.83,0,0,1-.43,1A13.12,13.12,0,0,0,23,34.19c-.05,0-.13,0-.2.05a3.18,3.18,0,0,1-.3-2,4.54,4.54,0,0,1,.75-1.75,4.63,4.63,0,0,0,.69-1.18c.13-.1.15-.26.22-.39l.05-.17c.09-.06.08-.15.07-.25l0,0s0,0,0,0-.11.11-.13.19-.11.14-.22.1,0-.19.05-.29.12-.12.17-.19a3.34,3.34,0,0,0,.44-1.72,11.61,11.61,0,0,1,.27-2.36,5.36,5.36,0,0,1,2.29-3.37,7.52,7.52,0,0,1,1.38-.48,4.83,4.83,0,0,1,2.73.38.92.92,0,0,0,.53.3A3,3,0,0,1,33.6,22ZM29.13,25.2s.12,0,.07-.07l-.06.07a.15.15,0,0,0-.12.11c-.06,0-.1,0-.1.1l-.15,0c.08.09.12,0,.16,0a.1.1,0,0,0,.09-.11C29.09,25.3,29.14,25.27,29.13,25.2Zm.32-.21a.12.12,0,0,0,.11-.11.1.1,0,0,0,.1-.11c.11,0,.13-.11.11-.21s.1,0,.11-.11l0,0,0,0-.1.11a.16.16,0,0,0-.11.21c-.08,0-.12,0-.1.11s-.12,0-.11.1h-.08l0,.06Z"/><path class="cls-4" d="M49.21,36.88A8,8,0,0,0,48,38.14a2.6,2.6,0,0,1-.88.74,3.4,3.4,0,0,0-1.19,1.31,42.14,42.14,0,0,1-3.47,5.18,6.36,6.36,0,0,1-1.94,1.78A1.86,1.86,0,0,1,38.44,47,7.4,7.4,0,0,1,37,45.75c-.44-.5-.91-1-1.32-1.51a9.4,9.4,0,0,1,1.08-1.35,24.38,24.38,0,0,0,1.71-1.81.91.91,0,0,1,.62-.37L40,42.09a.59.59,0,0,0,.15,0c1.32-1.19,2.58-2.45,3.81-3.73.21-.22.53-.43.54-.76s.13-.72.11-1.09l.51-2.4c.58.14.58.14.69,1.59a1.72,1.72,0,0,0,.68-.48,10.08,10.08,0,0,1,1.36-1.25,1.88,1.88,0,0,1,.6-.3c.28.09.17.32.2.5a.12.12,0,0,0-.1.11h-.05a.08.08,0,0,1,0,0l.06,0a.17.17,0,0,0,.11-.11l.19-.09c.19-.09.39-.21.57,0s0,.39-.08.6c.19.07.52,0,.45.35a3.09,3.09,0,0,1-.29.66c.41.26.1.55,0,.84A.57.57,0,0,0,49.21,36.88Z"/><path class="cls-4" d="M71.36,40.3a2.28,2.28,0,0,1,0-.72A3,3,0,0,0,70,39.35a.4.4,0,0,0-.23-.12.81.81,0,0,1-.76-.69.77.77,0,0,1,.58-.86c-1.27-.53-1.44-1.17-.5-1.94a1.26,1.26,0,0,1-.56-1,1,1,0,0,1,.78-.94,5,5,0,0,1,1.38-.25,3.24,3.24,0,0,0,1.44-.33,2.85,2.85,0,0,0-1.45.12,2.62,2.62,0,0,1-.88-.1.92.92,0,0,1-.45-1.47,1.32,1.32,0,0,1,.72-.5c.32-.08.64-.18,1-.27a13.41,13.41,0,0,0,1.4-.3,1.35,1.35,0,0,1,1.22.49A1.27,1.27,0,0,1,73.33,33l-.61.41a1.3,1.3,0,0,1,.87,1.16,1.76,1.76,0,0,1-.6,1.36,1.28,1.28,0,0,1,.06,1.46,1.44,1.44,0,0,1-.27.33.33.33,0,0,0,0,.54s0,.07,0,.11A1.76,1.76,0,0,1,71.36,40.3Z"/><path class="cls-1" d="M44.65,36.47c0,.37-.1.72-.11,1.09s-.33.54-.54.76c-1.23,1.28-2.49,2.54-3.81,3.73a.59.59,0,0,1-.15,0l-.91-1.38a.8.8,0,0,0-.13-.83c-.75-1.12-1.47-2.27-2.2-3.41h7.85Z"/><path class="cls-7" d="M72.19,51.46c0-.46.41-.66.73-.89a3.53,3.53,0,0,1,1.82-.71,19.39,19.39,0,0,1,3,.29c.52.06,1,.2,1.54.23l.62.17c0,.15,0,.3-.18.38a2.92,2.92,0,0,0-1.76,1.63.31.31,0,0,1-.2.17,3.5,3.5,0,0,1-.78-.08c-.72-.18-1.47-.28-2.2-.46A13,13,0,0,1,72.19,51.46Z"/><path class="cls-4" d="M55.38,28.1l-.58,4.45A6.08,6.08,0,0,1,53,29a1.24,1.24,0,0,1,2-1.13C55.07,27.93,55.19,28.09,55.38,28.1Z"/><path class="cls-7" d="M49.21,36.88a.57.57,0,0,1,.33-.41h.11a4.68,4.68,0,0,0,.17,1c.19.87.26,1.76.37,2.65.14,1.06.13,2.13.3,3.19a.41.41,0,0,1,0,.11,15.68,15.68,0,0,0,.12,2.37c.1,1.38,0,2.76.12,4.13.09,1.15,0,2.29.08,3.43s-.18,2.15-.11,3.23c0,.25-.08.37-.36.28A1.52,1.52,0,0,1,50.3,56a17.26,17.26,0,0,0,.09-2.59,3.84,3.84,0,0,1,.09-.89c.12-.38-.09-.76-.09-1.15,0-.81,0-1.63,0-2.44.05-1.08-.09-2.15-.13-3.22s-.1-2.25-.21-3.37a28.56,28.56,0,0,0-.61-5.05C49.4,37.09,49.38,37,49.21,36.88Z"/><path class="cls-8" d="M39.13,51.34a2.38,2.38,0,0,1,1.12.27,35.84,35.84,0,0,1,4.59,1.75,6.86,6.86,0,0,1,1.42.91,4.33,4.33,0,0,1,1.41,3c0,.12-.06.23.06.32l0,3.4c0,1.08-.15,2.15-.12,3.22a1.55,1.55,0,0,1,0,.22,29.56,29.56,0,0,0-.2,3.26,3.3,3.3,0,0,0-.1,1.17c0,.34-.1.66-.12,1-.05.63-.09,1.26-.18,1.88s-.14,1.5-.21,2.25l-.22,1.35c-.08.45-.48.37-.78.46a9.42,9.42,0,0,1-2.19.12,9.55,9.55,0,0,0-1.31-.15l-.75-.31V74.1a.23.23,0,0,0,.09-.18,17.09,17.09,0,0,1,.1-2.26c0-.06,0-.14-.13-.16-.11.25,0,.53-.09.79a12.35,12.35,0,0,0-.27,1.81l-.21,1.36c0,.5-.13.87-.66,1a7.71,7.71,0,0,0-1.36.1c-.76,0-1.5-.17-2.25-.21-.39-.13-.79-.24-.84-.74a5,5,0,0,0-.11-1.6c0-.44-.06-.87-.09-1.31-.12-1.26-.17-2.52-.25-3.79a3.08,3.08,0,0,0-.09-1.17l0-1.92c0-1.37,0-2.75,0-4.13,0-.29-.1-.44-.4-.42-1.15,0-2.28-.18-3.43-.11l-.94,0L30.52,61a5.88,5.88,0,0,1-.94-.1,17,17,0,0,1-3.81-.74,5,5,0,0,1-2.58-1.83,1.3,1.3,0,0,0-.32-.54,8,8,0,0,1-.43-3.72c.73-.05,1.45.1,2.2,0a27,27,0,0,0,3.48-.52c1.23-.26,2.43-.68,3.67-.9a13.44,13.44,0,0,1,3.16.57,4.6,4.6,0,0,0,2.14.14,2.38,2.38,0,0,1,1.84.41,2,2,0,0,0,1.24.46,1.65,1.65,0,0,0,.89-.26,9.51,9.51,0,0,0-.56-1.49,3.6,3.6,0,0,0-1.37-1.2Z"/><path class="cls-9" d="M36.8,36.47c.73,1.14,1.45,2.29,2.2,3.41a.8.8,0,0,1,.13.83.91.91,0,0,0-.62.37,24.38,24.38,0,0,1-1.71,1.81,9.4,9.4,0,0,0-1.08,1.35s-.07,0-.07.08a20.73,20.73,0,0,0,0,2.84,9.23,9.23,0,0,0,.83,2.92,1.52,1.52,0,0,1,.07.52,2.05,2.05,0,0,0-.54.52,2.5,2.5,0,0,1-1.25-.34l-3.64-1.57C30.1,48.75,29,48.27,28,47.79a1.13,1.13,0,0,1-.66-.83,22.14,22.14,0,0,0-.58-2.19,13.24,13.24,0,0,1-4.19.84h-.78a2.76,2.76,0,0,1-.29-.8,5.85,5.85,0,0,0-.21-1c-.1-.81-.24-1.62-.29-2.43a13.81,13.81,0,0,1-.06-3.15c.09-.58.16-1.17.25-1.75l.45-.95a4.36,4.36,0,0,1,1.14-1.28c.07,0,.15,0,.2-.05a13.12,13.12,0,0,1,3.62-1.42c0,.18.14.27.25.38a5.09,5.09,0,0,0,2.79,1.55A1.27,1.27,0,0,0,31,34a2,2,0,0,0,0-1.23,7.87,7.87,0,0,1,4,1.7.34.34,0,0,0,.23.1.56.56,0,0,0,.17.32A14.94,14.94,0,0,1,36.8,36.47Z"/><path class="cls-7" d="M35.39,65.8l0,1.92H15a2.56,2.56,0,0,1-.83-.1.23.23,0,0,1-.11-.18C14,66.72,14,66,14,65.28c0-1.27-.18-2.53-.13-3.81,0-.31-.23-.6,0-.95.52.11,1,.35,1.55.43a12.5,12.5,0,0,0,1.72.16c2.94,0,5.88,0,8.82,0a.83.83,0,0,0,.51-.09,5.59,5.59,0,0,0-1.19-.44,5,5,0,0,1-1.86-1c-.58-.53-.58-.65-.15-1.28a5,5,0,0,0,2.58,1.83,17,17,0,0,0,3.81.74,5.88,5.88,0,0,0,.94.1.12.12,0,0,0,.12.08l.94,0a1.64,1.64,0,0,1-1.13.07,22,22,0,0,0-3-.05,1.17,1.17,0,0,0,.54.19,9.27,9.27,0,0,1,1,.14,26.28,26.28,0,0,0,3.07.39,11,11,0,0,1,1.71.23,1.22,1.22,0,0,1,1,.9c.13.53.22,1.06.32,1.59S35.09,65.45,35.39,65.8Z"/><path class="cls-7" d="M35.5,68.89c.08,1.27.13,2.53.25,3.79,0,.44.09.87.09,1.31H14.36c0-1.42-.18-2.84-.11-4.27,0-.28-.16-.54-.1-.83Z"/><path class="cls-10" d="M10.21,47.1c0-.56.34-.78.77-1a7.94,7.94,0,0,1,1.75-.32,11,11,0,0,0,2.2-.45,25.52,25.52,0,0,1,3.76-.94c.58-.12,1.15-.28,1.73-.42-.09.66-.29,1.3-.32,2a8.72,8.72,0,0,0,.47,2.78,8.39,8.39,0,0,1,.2,4.22,4.08,4.08,0,0,0-.12,1.52,9,9,0,0,0,.29,1.7.46.46,0,0,1-.06.43,10.08,10.08,0,0,1-3,.76,3.85,3.85,0,0,1-1,0,3.19,3.19,0,0,1-2.75-2.69A12.46,12.46,0,0,0,12,49.86,14,14,0,0,1,10.21,47.1Z"/><path class="cls-11" d="M10.21,47.1A14,14,0,0,0,12,49.86a12.46,12.46,0,0,1,2.13,4.84,3.19,3.19,0,0,0,2.75,2.69,3.85,3.85,0,0,0,1,0,10.08,10.08,0,0,0,3-.76.46.46,0,0,0,.06-.43,9,9,0,0,1-.29-1.7A4.08,4.08,0,0,1,20.77,53a8.39,8.39,0,0,0-.2-4.22A8.72,8.72,0,0,1,20.1,46c0-.67.23-1.31.32-2a1.79,1.79,0,0,1,.85-.22,5.85,5.85,0,0,1,.21,1,2.76,2.76,0,0,0,.29.8h.78a2.87,2.87,0,0,0,.05.31c.12.5.25,1,.37,1.5-.1.38-.06.77-.13,1.14-.26,1.57-.66,3.11-.84,4.68-.08.66-.11.65.44.86a8,8,0,0,0,.43,3.72c-1,.29-2.05.61-3.09.84s-2.32.54-3.49.81a5.31,5.31,0,0,1-.87.16A1.31,1.31,0,0,1,14.21,59a3.78,3.78,0,0,1-.73-2.11,27.84,27.84,0,0,0-.19-3.53,3,3,0,0,0-1.72-2.27,1.08,1.08,0,0,1-.65-.76c-.15-.54-.35-1.07-.51-1.61A4.88,4.88,0,0,1,10.21,47.1Z"/><path class="cls-7" d="M7,37.43A6.43,6.43,0,0,1,8.51,37c0,.19-.14.23-.26.29a3.5,3.5,0,0,0-1.74,2.63,15.25,15.25,0,0,0,0,4.16c.06.51.08,1,.09,1.53,0,.77.14,1.54.15,2.32a17.44,17.44,0,0,0,.21,1.88c0,.19.15.24.33.27l3.15.54s.05.05.17.16a4.32,4.32,0,0,0-2.06.41,3.89,3.89,0,0,0-1.39,1.54A2.67,2.67,0,0,1,6,52.59c-1.34-.33-2.7-.59-4-1A3.35,3.35,0,0,1,5,49.85a3.74,3.74,0,0,0,0-1.33c-.1-.74-.09-1.48-.19-2.21s0-1.33-.2-2a.76.76,0,0,1,0-.15c0-.59-.07-1.17-.08-1.74a5.92,5.92,0,0,1,.9-3.68s0-.1,0-.15A9.12,9.12,0,0,1,7,37.43Z"/><path class="cls-3" d="M35.5,68.89H14.15V67.62a2.56,2.56,0,0,0,.83.1H35.41A3.08,3.08,0,0,1,35.5,68.89Z"/><path class="cls-3" d="M19.25,41.85c0-.62.28-.75.76-.8a.8.8,0,0,1,.73.75.84.84,0,0,1-.73.83A.81.81,0,0,1,19.25,41.85Z"/><polygon class="cls-10" points="85.54 61.08 85.52 61.09 85.52 61.06 85.54 61.08"/><path class="cls-7" d="M53.37,61.45a2.6,2.6,0,0,1,.83-.11c5.07-.23,10.14,0,15.21-.13,1.59,0,3.18,0,4.76-.1a7.69,7.69,0,0,0,2.33-.3c.21-.08.47-.12.47-.42h.21c.06,1.14-.08,2.27-.13,3.41S77,66,76.87,67c0,.23-.24.35-.22.58a7.44,7.44,0,0,0-1.25.1c-3.66.06-7.32,0-11,.08-3,.1-6,.11-9.05-.08a5.63,5.63,0,0,1-1-.09,1,1,0,0,1-.89-1c0-1.15,0-2.3,0-3.45A6.31,6.31,0,0,0,53.37,61.45Z"/><path class="cls-7" d="M46.81,74c.07-.75.11-1.5.21-2.25s.13-1.25.18-1.88c0-.33.12-.65.12-1H76.65c0,1.32-.13,2.64-.13,4a4.27,4.27,0,0,0,0,1.13H46.81Z"/><path class="cls-3" d="M77.18,60.39H77a4.56,4.56,0,0,0-1.85-1.17A35.44,35.44,0,0,0,71.44,58a1.31,1.31,0,0,1-.42-.22,14.71,14.71,0,0,1,.08-1.85c.1-.54,0-1.11.12-1.68A8.19,8.19,0,0,1,71.77,52a.84.84,0,0,1,.42-.52,13,13,0,0,0,2.54.73c.73.18,1.48.28,2.2.46a3.5,3.5,0,0,0,.78.08c-.23.93-.14,1.88-.31,2.81v.11c.07.93-.14,1.86-.1,2.79C77.32,59.1,77.12,59.73,77.18,60.39Z"/><path class="cls-3" d="M76.65,68.89H47.32a3.3,3.3,0,0,1,.1-1.17h4.51c.47,0,.82-.21.87-.6a6.21,6.21,0,0,0,.15-1c0-.64,0-1.28,0-1.91,0-.39,0-.77-.06-1.16,0-.6-.16-1.21-.14-1.8a.72.72,0,0,1,.42-.19c.15.1.1.31.21.43a6.31,6.31,0,0,1,.11,1.68c0,1.15,0,2.3,0,3.45a1,1,0,0,0,.89,1,5.63,5.63,0,0,0,1,.09c3,.19,6,.18,9.05.08,3.66-.12,7.32,0,11-.08a7.44,7.44,0,0,1,1.25-.1Z"/><path class="cls-7" d="M53.16,61a.72.72,0,0,0-.42.19c0,.59.1,1.2.14,1.8,0,.39.06.77.06,1.16,0,.63,0,1.27,0,1.91a6.21,6.21,0,0,1-.15,1c0,.39-.4.6-.87.6H47.42a29.56,29.56,0,0,1,.2-3.26,1.55,1.55,0,0,0,0-.22c0-1.07.14-2.14.12-3.22l4.74,0a.5.5,0,0,0-.15-.35,10.13,10.13,0,0,0-1.11-1.06,16.64,16.64,0,0,0-3.5-2c-.12-.09-.09-.2-.06-.32a1.79,1.79,0,0,1,.81.22,19.29,19.29,0,0,1,3.32,1.93A9.08,9.08,0,0,1,53,60.59.67.67,0,0,1,53.16,61Z"/><path class="cls-12" d="M36.05,51.12a2.05,2.05,0,0,1,.54-.52,9.56,9.56,0,0,1,2.22.64h0C37.89,51.18,37,51.11,36.05,51.12Z"/><path class="cls-12" d="M38.81,51.24c.12,0,.25,0,.32.1h0c-.12,0-.25,0-.32-.1Z"/><path class="cls-13" d="M71,31c-.32.09-.64.19-1,.27a1.32,1.32,0,0,0-.72.5.92.92,0,0,0,.45,1.47,2.62,2.62,0,0,0,.88.1v.21a5,5,0,0,0-1.38.25,1,1,0,0,0-.78.94c-.5-.06-.87-.48-1.35-.51-.28.13-.08.5-.36.61a3,3,0,0,0-.7-1.31.92.92,0,0,0-.72-.36c0-.42,0-.84,0-1.26A2.06,2.06,0,0,1,66,30.1a1.36,1.36,0,0,0,1.31-.87,1.14,1.14,0,0,0-.3-1.38c.16-.45.32-.9.47-1.35a3.91,3.91,0,0,0,.22-1.56A1.17,1.17,0,0,0,67,23.85c-.13-.05-.29,0-.39-.12a2.17,2.17,0,0,0-2.24-1.59,4.33,4.33,0,0,0-.95.11A1.37,1.37,0,0,1,62.23,22c-.71-.46-1.18-.3-1.49.49l-.08.24c-.54,0-.76.22-.81.75a2,2,0,0,0,.12,1,.74.74,0,0,1,.09.46,3.62,3.62,0,0,0,.44,2.23c0,.72,0,1.45,0,2.17.08,1.18.29,2.33,1.57,2.83a2.14,2.14,0,0,1-.09.92,2.28,2.28,0,0,0-1.37.75c-.07-.15-.18-.12-.31-.08a4.62,4.62,0,0,0-3,2.49c-.64,1.39-1.21,2.81-1.74,4.25a2.67,2.67,0,0,1-.44,1c-.27-.14-.39-.42-.64-.53.15-1.31.3-2.63.46-4q.34-2.91.71-5.84c.22-1.81.45-3.61.67-5.42.17-1.39.32-2.78.49-4.16.11-.84.2-1.69.33-2.53a1.72,1.72,0,0,1,1.41-1.4,14.93,14.93,0,0,1,2.53.18.45.45,0,0,1,.11.31c0,.56.21.76.76.84.81.11,1.62.18,2.43.26l2.84.31.22,0c.84.07,1,0,1.21-.95a9.93,9.93,0,0,1,2.59.36,1.56,1.56,0,0,1,1,1.59c0,.81-.16,1.62-.26,2.43-.19,1.67-.4,3.33-.6,5C71.22,29,71.05,30,71,31Z"/><path class="cls-14" d="M66.82,34.88c.28-.11.08-.48.36-.61.48,0,.85.45,1.35.51a1.26,1.26,0,0,0,.56,1c-.94.77-.77,1.41.5,1.94a.77.77,0,0,0-.58.86.81.81,0,0,0,.76.69.4.4,0,0,1,.23.12q-.42,3.49-.85,7c-.15,1.24-.31,2.48-.47,3.73-.16,0-.35.06-.45,0-.06-1.12.19-2.16.06-3.25s-.19-2.42-.23-3.63c0-1-.19-1.93-.13-2.91,0-.09,0-.23-.14-.22a.4.4,0,0,0-.06.3,11.51,11.51,0,0,0,.08,1.31c.08.68.06,1.37.1,2.06A38.74,38.74,0,0,1,68,48.14,17.56,17.56,0,0,0,67.92,50a5.07,5.07,0,0,1-1,0,16.53,16.53,0,0,0-2-.27c-.8-.07-1.59-.22-2.4-.26a1.47,1.47,0,0,1-1-.2,2.19,2.19,0,0,1,.18-1,.62.62,0,0,1,.27,0c.43.16.91,0,1.35.18.15,0,.41.11.42-.26-.29,0-.54-.12-.83-.14-.75-.08-1.49-.22-2.24-.29s-1.33-.14-2-.23c-.19,0-.44-.08-.53.24,1.07.32,2.19.25,3.22.51.15.39,0,.71,0,1a5.93,5.93,0,0,1-1.46-.14c-.82-.1-1.63-.23-2.45-.27a3.68,3.68,0,0,1-1-.18c-.09-.28.14-.51.08-.78a1.72,1.72,0,0,0,.75-.64c.35-.59.26-1.11-.33-1.79.3-2.33.62-4.65,1.05-7a8.45,8.45,0,0,0-.61,2.32c-.16.84-.28,1.69-.4,2.53a16.48,16.48,0,0,0-.25,2l-.16,0a1.3,1.3,0,0,0-1.77,1.39,2,2,0,0,0,.23.76c-.27,0-.4-.17-.57-.31s-.36-.52-.73-.54c.07-1.2.26-2.39.39-3.59.07-.68.18-1.36.27-2,.25.11.37.39.64.53a2.67,2.67,0,0,0,.44-1c.53-1.44,1.1-2.86,1.74-4.25a4.62,4.62,0,0,1,3-2.49c.13,0,.24-.07.31.08a4.25,4.25,0,0,0-1,2.13.56.56,0,0,1-.43.56,1.47,1.47,0,0,0-.84,1.53,3,3,0,0,0,0,2.33,1.05,1.05,0,0,1,.52.43c.14.08.29.1.36-.06s-.06-.28-.22-.32-.17,0-.24.08c-.31-.2-.31-.52-.32-.83A9.19,9.19,0,0,1,58.55,38a2.74,2.74,0,0,1,.27-.79c.18-.3.4-.58.82-.52-.1.64-.1.64.32.82a.32.32,0,0,0,.32.22c0,.09.12.1.21.1a.59.59,0,0,1-.17.78.53.53,0,0,0-.11.78c.08.12.1.27.19.37a.59.59,0,0,1,.09.77l.53.07a1.35,1.35,0,0,0,.59,1,2.33,2.33,0,0,0-.58-1,1.4,1.4,0,0,1-.09-.83A5,5,0,0,0,61,38.1c-.07-.75-.25-1.44-1.12-1.7a5.31,5.31,0,0,1,.64-2,1.68,1.68,0,0,1,.72-.75,4.57,4.57,0,0,0,.1,1.38,16.62,16.62,0,0,0,0,2.34,6.79,6.79,0,0,0,.29,1.84A21.91,21.91,0,0,0,62.09,42l.1.08a4.23,4.23,0,0,0-.24.71c-.1.44,0,.87-.09,1.3a11.54,11.54,0,0,0-.2,2,22.87,22.87,0,0,1-2.46-.28,3.1,3.1,0,0,0-.68,0c-.14,0-.23.08-.19.27.81.19,1.65.23,2.48.34s1.51.14,2.26.25a3.92,3.92,0,0,0,.68.07c.13,0,.23-.08.19-.3a11.6,11.6,0,0,0-2.06-.23c0-1.05.2-2.09.23-3.14a1.26,1.26,0,0,1,.46-.91c.47-.41.9-.88,1.35-1.34.07-.07.22-.14.13-.3s-.24.11-.34.2l-1.08,1.08c-.13.12-.22.29-.43.27V42c.35-.73.69-1.47,1-2.19a1.58,1.58,0,0,0,.14-.67c.22,0,.3-.24.37-.42.35-1,.86-1.88,1.26-2.84a13.63,13.63,0,0,0,.9-2.12,2.06,2.06,0,0,1,.61,1.52c-.17,0-.17.12-.19.25-.11.66-.24,1.31-.35,1.92-.45.3-.94.42-1.34.75l.4,1.24c-.15.31-.52.43-.61.81.4,0,.46-.49.82-.5a1.17,1.17,0,0,0,0,.2.7.7,0,0,0,.67.52.77.77,0,0,0,.62-1.27L66.4,39A9.6,9.6,0,0,0,66.82,34.88Zm-5,7,0,0h0l.05,0s0,.13.07.15S61.83,41.92,61.77,41.89Zm4.48-.64c-.06-.21.09-.46-.13-.64-.32,0-.22.38-.39.51s-.65-.06-1,.12a3,3,0,0,0,1,.27c-.06.8-.06.8.17,1,.26-.26.08-.65.29-.93a2.74,2.74,0,0,0,.81,0c0-.22-.12-.27-.26-.27ZM66.07,49a1.4,1.4,0,0,0,1.44-1.43,1.38,1.38,0,0,0-2.76.06A1.33,1.33,0,0,0,66.07,49Zm-7.79-2.2c1.83.37,3.69.55,5.57.76.06-.24,0-.36-.25-.37-.56,0-1.11-.14-1.67-.21-.92-.12-1.85-.23-2.77-.31A1.11,1.11,0,0,0,58.28,46.83Zm2.14-6.12c-.15-.27-.32-.39-.57-.21a.2.2,0,0,0,0,.32C60,41,60.22,40.91,60.42,40.71Zm1.9,3.3c.06.18.18.26.35.18a.22.22,0,0,0,.1-.35C62.58,43.77,62.42,43.78,62.32,44Zm-6.09-1a.53.53,0,0,0-.31-.55A.74.74,0,0,0,56.23,43Zm-.54-1c0-.19-.1-.28-.27-.22C55.43,42,55.49,42.09,55.69,42.06Zm.12.18a.08.08,0,0,0-.07.1.11.11,0,0,0,.08,0,.07.07,0,0,0,.06-.1S55.83,42.25,55.81,42.24Z"/><path class="cls-13" d="M56.56,47.85c.06.27-.17.5-.08.78a3.68,3.68,0,0,0,1,.18c.82,0,1.63.17,2.45.27a5.93,5.93,0,0,0,1.46.14h.18a1.47,1.47,0,0,0,1,.2c.81,0,1.6.19,2.4.26a16.53,16.53,0,0,1,2,.27,5.07,5.07,0,0,0,1,0A17.56,17.56,0,0,1,68,48.14a38.74,38.74,0,0,0-.13-4.44c0-.69,0-1.38-.1-2.06a11.51,11.51,0,0,1-.08-1.31.4.4,0,0,1,.06-.3c.17,0,.15.13.14.22-.06,1,.1,1.94.13,2.91,0,1.21.08,2.43.23,3.63s-.12,2.13-.06,3.25c.1.1.29,0,.45,0a4.48,4.48,0,0,1-.11,1.21A1.72,1.72,0,0,1,67,52.66,12.72,12.72,0,0,1,65,52.5c-1.72-.19-3.44-.41-5.16-.61s-3.23-.35-4.85-.55a1.71,1.71,0,0,1-1.57-2c.09-.76.16-1.51.24-2.27a.91.91,0,0,1,.1-.46c.37,0,.49.36.73.54s.3.36.57.31A1.34,1.34,0,0,0,56.56,47.85Zm3.12,2.23c-.31,0-.55,0-.56.28s.22.33.43.35a6,6,0,0,1,.74,0c.72.15,1.46.13,2.19.26a.29.29,0,0,0,.35-.24c0-.18-.09-.25-.22-.32a1.14,1.14,0,0,0-.37,0l-.62,0C60.94,50.26,60.26,50.18,59.68,50.08Z"/><path class="cls-15" d="M62.81,18.47a2.17,2.17,0,0,1,.08-.22c1.06.05,2.11.16,3.16.3.08,0,.07.11,0,.26C65,18.79,64,18.56,62.81,18.47Z"/><path class="cls-15" d="M67.19,18.76a.15.15,0,0,1-.16.16.14.14,0,0,1-.14-.17.13.13,0,0,1,.13-.13A.14.14,0,0,1,67.19,18.76Z"/><path class="cls-4" d="M31.05,32.74A2,2,0,0,1,31,34a1.27,1.27,0,0,1-1.41.73,5.09,5.09,0,0,1-2.79-1.55c-.11-.11-.25-.2-.25-.38a1.83,1.83,0,0,0,.43-1,13.71,13.71,0,0,0,.22-2.64,1.15,1.15,0,0,0-.1-.66,1.46,1.46,0,0,1-1.31-1.64.9.9,0,0,1,.59-.86.76.76,0,0,1,.89.41.7.7,0,0,0,.13.15,1.39,1.39,0,0,1,.8-.55c.32-.11.62-.24.91-.35s.07.22.25.27a2,2,0,0,1,1.41,0c-.17-.58-.6-.39-.89-.5l-.06-.08a15,15,0,0,0,1.39-1.14,7.12,7.12,0,0,0,.92-1.24,3.22,3.22,0,0,1,1.3,2.93,19.73,19.73,0,0,1-.29,2.42,5.52,5.52,0,0,1-.75,1.91,2.25,2.25,0,0,1-1.61,1.12A3.13,3.13,0,0,0,31.05,32.74ZM30.34,29c.15.51.49.81.87.8s.54-.25.68-.7C31.36,29.09,30.87,28.87,30.34,29Zm2.89-3c-.4-.51-.8-.53-1.13,0A3.85,3.85,0,0,1,33.23,25.92Zm-3.08.45c-.35.42-.35.47,0,.75C30.45,26.78,30.45,26.78,30.15,26.37Zm2.69.53c0-.16-.05-.34-.25-.33s-.25.17-.24.34.06.29.22.3S32.83,27.07,32.84,26.9Z"/><path class="cls-4" d="M29.91,25.35a.17.17,0,0,1-.24,0l.18-.08Z"/><path class="cls-2" d="M28.93,25.42c0,.06-.08.12-.16,0l.15,0Z"/><path class="cls-4" d="M29.77,24.56c0,.1,0,.18-.11.21h0a.16.16,0,0,1,.11-.21Z"/><path class="cls-2" d="M29,25.31a.1.1,0,0,1-.09.11h0c0-.06,0-.09.1-.1Z"/><path class="cls-12" d="M24.25,28.5s0,0,0,0l0,0Z"/><path class="cls-4" d="M29.66,24.77a.1.1,0,0,1-.1.11h0c0-.09,0-.12.1-.11Z"/><path class="cls-4" d="M29.88,24.46l0,0,0,0Z"/><path class="cls-4" d="M29.78,24.57l.1-.11h0c0,.07,0,.12-.11.11Z"/><path class="cls-4" d="M29.56,24.88a.12.12,0,0,1-.11.11h0c0-.08,0-.12.11-.1Z"/><path class="cls-4" d="M29.45,25l-.05.07,0-.06h.07Z"/><path class="cls-4" d="M29.14,25.2l.06-.07c.05.1,0,.06-.07.07Z"/><path class="cls-4" d="M29.13,25.2c0,.07,0,.1-.11.11h0a.15.15,0,0,1,.12-.11Z"/><path class="cls-10" d="M48.59,34.24l-.06,0a.08.08,0,0,0,0,0Z"/><path class="cls-10" d="M48.59,34.24a.12.12,0,0,1,.1-.11h0a.17.17,0,0,1-.11.11Z"/><path class="cls-6" d="M70.69,33.59v-.21a2.85,2.85,0,0,1,1.45-.12A3.24,3.24,0,0,1,70.69,33.59Z"/><path class="cls-16" d="M36.25,79a7.28,7.28,0,0,1,.14-1,.53.53,0,0,1,.29-.47,9.08,9.08,0,0,0,3.51,1.83,1.13,1.13,0,0,1,.56-1.27.36.36,0,0,0,.1-.11,5.25,5.25,0,0,1,.94.41c.29.26.69.38,1,.69a.45.45,0,0,0,.36.18l.13.09h0l1.44,1.08c0,.16.14.3.1.47a3.06,3.06,0,0,1-2,.41,14.67,14.67,0,0,1-6.51-1.94Z"/><path class="cls-17" d="M43.21,79.31h0l-.13-.09a.45.45,0,0,1-.36-.18c-.26-.31-.66-.43-1-.69a.7.7,0,0,1,0-.25c.15-.42,0-1,.44-1.26a8.87,8.87,0,0,0,3.65,1.63,1.06,1.06,0,0,1,.48-1.29.62.62,0,0,1,.39.12c.79.47,1.58.92,2.37,1.37.26.26.6.4.84.68s.26.28.23.5a2,2,0,0,1-1,.32A13.92,13.92,0,0,1,44,79.48,1.84,1.84,0,0,0,43.21,79.31Z"/><path class="cls-5" d="M70.49,78.77a15.69,15.69,0,0,1-.65-2.15c0-.1-.07-.19-.1-.29a2.18,2.18,0,0,0-.15-.66A7.35,7.35,0,0,1,69.21,74h2.12l.25,2.53a14.49,14.49,0,0,1,.09,1.74,1,1,0,0,1-.13.61A1,1,0,0,1,70.49,78.77Z"/><path class="cls-5" d="M18.91,76.44c-.34.74-.45,1.56-.73,2.33a.83.83,0,0,1-.95.12,1,1,0,0,1-.24-1c.07-.46.06-.94.1-1.41L17.36,74h2.11a1.8,1.8,0,0,1-.11.56A13.53,13.53,0,0,0,18.91,76.44Z"/><path class="cls-6" d="M36.26,79.33a14.67,14.67,0,0,0,6.51,1.94,3.06,3.06,0,0,0,2-.41c0,.39,0,.55-.42.71a3.77,3.77,0,0,1-1.34.27,11.89,11.89,0,0,1-3.79-.57A21.82,21.82,0,0,1,37,80.51,1.05,1.05,0,0,1,36.26,79.33Z"/><path class="cls-6" d="M43.21,79.31a1.84,1.84,0,0,1,.77.17,13.92,13.92,0,0,0,5.16.69,2,2,0,0,0,1-.32c.23.33,0,.51-.25.66a2.24,2.24,0,0,1-1,.27,11.2,11.2,0,0,1-3.51-.27,1.69,1.69,0,0,0-.77-.12Z"/><path class="cls-6" d="M23,30s0,.07,0,.1a3.56,3.56,0,0,0-.66,2.09l-.11-.28a2.89,2.89,0,0,1,.51-1.75C22.76,30.06,22.79,29.89,23,30Z"/><path class="cls-6" d="M23.82,28.92c.08.11,0,.17-.07.26s-.11.2-.26.16C23.46,29.1,23.59,29,23.82,28.92Z"/><path class="cls-6" d="M23.28,29.55c0,.24-.13.35-.32.43C22.92,29.73,23,29.6,23.28,29.55Z"/><path class="cls-6" d="M23.92,28.81l0,.12a.08.08,0,0,1-.12,0C23.78,28.81,23.81,28.78,23.92,28.81Z"/><path class="cls-6" d="M23.5,29.34c0,.09,0,.14-.11.11S23.39,29.3,23.5,29.34Z"/><path class="cls-6" d="M23.39,29.45c0,.09,0,.15-.11.11S23.28,29.41,23.39,29.45Z"/><path class="cls-4" d="M38.81,51.25c.07.13.2.1.32.1a3.6,3.6,0,0,1,1.37,1.2A9.51,9.51,0,0,1,41.06,54a1.65,1.65,0,0,1-.89.26,2,2,0,0,1-1.24-.46,2.38,2.38,0,0,0-1.84-.41A4.6,4.6,0,0,1,35,53.29a13.44,13.44,0,0,0-3.16-.57,5.38,5.38,0,0,0-1.32-.3,41,41,0,0,1-5-1.28,2.71,2.71,0,0,1-1.7-1.62c-.28-.69-.53-1.4-.81-2.1-.12-.5-.25-1-.37-1.5a2.87,2.87,0,0,1-.05-.31,13.24,13.24,0,0,0,4.19-.84A22.14,22.14,0,0,1,27.32,47a1.13,1.13,0,0,0,.66.83c1.06.48,2.12,1,3.18,1.42l3.64,1.57a2.5,2.5,0,0,0,1.25.34C37,51.11,37.89,51.18,38.81,51.25Z"/><path class="cls-9" d="M23,47.42c.28.7.53,1.41.81,2.1a2.71,2.71,0,0,0,1.7,1.62,41,41,0,0,0,5,1.28,5.38,5.38,0,0,1,1.32.3c-1.24.22-2.44.64-3.67.9a27,27,0,0,1-3.48.52c-.75.06-1.47-.09-2.2,0-.55-.21-.52-.2-.44-.86.18-1.57.58-3.11.84-4.68C22.91,48.19,22.87,47.8,23,47.42Z"/><path class="cls-1" d="M47.73,57.62a16.64,16.64,0,0,1,3.5,2,10.13,10.13,0,0,1,1.11,1.06.5.5,0,0,1,.15.35l-4.74,0Z"/><path class="cls-4" d="M40.85,77.94a.36.36,0,0,1-.1.11,1.13,1.13,0,0,0-.56,1.27,9.08,9.08,0,0,1-3.51-1.83,8.93,8.93,0,0,1,.11-1.16c.75,0,1.49.24,2.25.21a7.71,7.71,0,0,1,1.36-.1A2,2,0,0,0,40.85,77.94Z"/><path class="cls-4" d="M46.36,77.18a1.06,1.06,0,0,0-.48,1.29,8.87,8.87,0,0,1-3.65-1.63,2.49,2.49,0,0,1,.08-1,9.55,9.55,0,0,1,1.31.15,9.42,9.42,0,0,0,2.19-.12A1.87,1.87,0,0,0,46.36,77.18Z"/><path class="cls-3" d="M35.39,65.8c-.3-.35-.22-.79-.29-1.2s-.19-1.06-.32-1.59a1.22,1.22,0,0,0-1-.9,11,11,0,0,0-1.71-.23A26.28,26.28,0,0,1,29,61.49a9.27,9.27,0,0,0-1-.14,1.17,1.17,0,0,1-.54-.19,22,22,0,0,1,3,.05,1.64,1.64,0,0,0,1.13-.07c1.15-.07,2.28.16,3.43.11.3,0,.4.13.4.42C35.39,63.05,35.39,64.43,35.39,65.8Z"/><path class="cls-3" d="M41.27,74.1a12.35,12.35,0,0,1,.27-1.81c.06-.26,0-.54.09-.79.15,0,.14.1.13.16a17.09,17.09,0,0,0-.1,2.26.23.23,0,0,1-.09.18Z"/><path class="cls-11" d="M30.64,61.11a.12.12,0,0,1-.12-.08Z"/><path class="cls-4" d="M62,33.08a2.14,2.14,0,0,0,.09-.92c-1.28-.5-1.49-1.65-1.57-2.83,0-.72,0-1.45,0-2.17a3.87,3.87,0,0,1,.7-2.35l.3.08a6.46,6.46,0,0,0,3.17.35,1.93,1.93,0,0,1,.48,0c.59,0,.8.24.76.83,0,.83.09,1.65.08,2.52a1.13,1.13,0,0,1,1.06-.74,1.14,1.14,0,0,1,.3,1.38A1.36,1.36,0,0,1,66,30.1,2.06,2.06,0,0,0,65.38,32c0,.42,0,.84,0,1.26v.14a1.39,1.39,0,0,1-.52.5c-.56.38-1.21.59-1.74,1l-.14,0c-.13-.14-.27-.28-.39-.43-.25-.34-.6-.61-.65-1.07Zm1.5-3H61.8a.77.77,0,0,0,.71.71A.89.89,0,0,0,63.48,30.12Zm.23-3.24c0,.09,0,.2,0,.23.41.13.84.07,1.26.2A1,1,0,0,0,63.71,26.88Zm-1.49.05a.76.76,0,0,0-1.3,0C61.37,26.77,61.78,27.09,62.22,26.93Zm-.76.62c-.19.32-.22.39-.19.5a.28.28,0,0,0,.24.23.22.22,0,0,0,.22-.11C61.85,28,61.75,27.72,61.46,27.55Zm2.4.95c.48-.16.51-.34.17-.73C63.69,27.93,63.77,28.19,63.86,28.5Z"/><path class="cls-6" d="M67.05,27.85a1.13,1.13,0,0,0-1.06.74c0-.87-.12-1.69-.08-2.52,0-.59-.17-.79-.76-.83a1.93,1.93,0,0,0-.48,0,6.46,6.46,0,0,1-3.17-.35l-.3-.08a3.87,3.87,0,0,0-.7,2.35,3.62,3.62,0,0,1-.44-2.23.74.74,0,0,0-.09-.46,2,2,0,0,1-.12-1c0-.53.27-.73.81-.75l.08-.24c.31-.79.78-.95,1.49-.49a1.37,1.37,0,0,0,1.14.25,4.33,4.33,0,0,1,.95-.11,2.17,2.17,0,0,1,2.24,1.59c.1.12.26.07.39.12a1.17,1.17,0,0,1,.79,1.09,3.91,3.91,0,0,1-.22,1.56C67.37,27,67.21,27.4,67.05,27.85Z"/><path class="cls-6" d="M65.41,33.35v-.14a.92.92,0,0,1,.72.36,3,3,0,0,1,.7,1.31A9.6,9.6,0,0,1,66.4,39l.2.23A.77.77,0,0,1,66,40.49a.7.7,0,0,1-.67-.52,1.17,1.17,0,0,1,0-.2,1.49,1.49,0,0,0,0-.47,1.58,1.58,0,0,1,.87-.42,7.52,7.52,0,0,0,.43-2.76,2.06,2.06,0,0,0-.06-.82,2.06,2.06,0,0,0-.61-1.52A1.18,1.18,0,0,0,65.41,33.35Zm1.14,6.37a.53.53,0,0,0-.51-.51.45.45,0,0,0-.47.45.45.45,0,0,0,.42.51A.55.55,0,0,0,66.55,39.72Z"/><path class="cls-6" d="M62,33.08v.24a1.39,1.39,0,0,0-.74.36,1.68,1.68,0,0,0-.72.75,5.31,5.31,0,0,0-.64,2c.87.26,1.05,1,1.12,1.7-.28.13-.23-.14-.31-.25,0-.5-.18-.92-.72-1.08a.29.29,0,0,0-.32-.06c-.42-.06-.64.22-.82.52a2.74,2.74,0,0,0-.27.79l-.16,0a1.47,1.47,0,0,1,.84-1.53.56.56,0,0,0,.43-.56,4.25,4.25,0,0,1,1-2.13A2.28,2.28,0,0,1,62,33.08Z"/><path class="cls-9" d="M63,34.82l.14,0a2.55,2.55,0,0,1,.53,1c-.1.24-.32.42-.32.71,0,.88,0,1.76,0,2.64a1.58,1.58,0,0,1-.14.67c-.36.72-.7,1.46-1,2.19h-.11a21.91,21.91,0,0,1-.45-2.79.25.25,0,0,0,.13-.2,22.29,22.29,0,0,1,.57-2.17,1.4,1.4,0,0,0-.08-1.28A2.05,2.05,0,0,1,63,34.82Z"/><path class="cls-18" d="M63.39,39.16c0-.88,0-1.76,0-2.64,0-.29.22-.47.32-.71a2.55,2.55,0,0,0-.53-1c.53-.42,1.18-.63,1.74-1a1.39,1.39,0,0,0,.52-.5,1.18,1.18,0,0,1,.51.43A13.63,13.63,0,0,1,65,35.9c-.4,1-.91,1.87-1.26,2.84C63.69,38.92,63.61,39.11,63.39,39.16Z"/><path class="cls-4" d="M56.56,47.85a1.34,1.34,0,0,1-1.49-.43,2,2,0,0,1-.23-.76,1.3,1.3,0,0,1,1.77-1.39l.16,0a.28.28,0,0,0,.21.12c.59.68.68,1.2.33,1.79A1.72,1.72,0,0,1,56.56,47.85Zm-.07-1.61c-.08-.23.07-.55-.27-.59s-.2.35-.34.48-.37,0-.55.1a.53.53,0,0,0,0,.41c.13.17.37,0,.47.23s-.1.34,0,.5a.7.7,0,0,0,.47,0c.14-.14,0-.36.16-.49s.35.05.51-.09a.49.49,0,0,0,0-.41Z"/><path class="cls-4" d="M66.07,49a1.33,1.33,0,0,1-1.32-1.37A1.38,1.38,0,1,1,66.07,49Zm.85-1a2.17,2.17,0,0,0,0-.77A5,5,0,0,0,65.61,47c-.13,0-.28,0-.29.15,0,.3-.18.6-.06.88C65.78,48.33,66.26,48.62,66.92,48.05Z"/><path class="cls-18" d="M62.26,35.59a1.4,1.4,0,0,1,.08,1.28A22.29,22.29,0,0,0,61.77,39a.25.25,0,0,1-.13.2,6.79,6.79,0,0,1-.29-1.84,16.62,16.62,0,0,1,0-2.34,2.14,2.14,0,0,1,.41.86C62,35.84,62.06,35.63,62.26,35.59Z"/><path class="cls-9" d="M62.26,35.59c-.2,0-.29.25-.52.33a2.14,2.14,0,0,0-.41-.86,4.57,4.57,0,0,1-.1-1.38,1.39,1.39,0,0,1,.74-.36c.05.46.4.73.65,1.07.12.15.26.29.39.43A2.05,2.05,0,0,0,62.26,35.59Z"/><path class="cls-18" d="M61.55,49.21h-.18c0-.33.18-.65,0-1-1-.26-2.15-.19-3.22-.51.09-.32.34-.26.53-.24.66.09,1.32.17,2,.23s1.49.21,2.24.29c.29,0,.54.13.83.14,0,.37-.27.31-.42.26-.44-.14-.92,0-1.35-.18a.62.62,0,0,0-.27,0A2.19,2.19,0,0,0,61.55,49.21Z"/><path class="cls-18" d="M61.88,46.24a11.6,11.6,0,0,1,2.06.23c0,.22-.06.29-.19.3a3.92,3.92,0,0,1-.68-.07c-.75-.11-1.51-.15-2.26-.25s-1.67-.15-2.48-.34c0-.19.05-.27.19-.27a3.1,3.1,0,0,1,.68,0,22.87,22.87,0,0,0,2.46.28C61.71,46.25,61.79,46.25,61.88,46.24Z"/><path class="cls-18" d="M58.28,46.83a1.11,1.11,0,0,1,.88-.13c.92.08,1.85.19,2.77.31.56.07,1.11.19,1.67.21.22,0,.31.13.25.37C62,47.38,60.11,47.2,58.28,46.83Z"/><path class="cls-19" d="M57,45.42a.28.28,0,0,1-.21-.12,16.48,16.48,0,0,1,.25-2c.12-.84.24-1.69.4-2.53A8.45,8.45,0,0,1,58,38.47C57.6,40.77,57.28,43.09,57,45.42Z"/><path class="cls-19" d="M61.88,46.24c-.09,0-.17,0-.22-.09a11.54,11.54,0,0,1,.2-2c.07-.43,0-.86.09-1.3a4.23,4.23,0,0,1,.24-.71h0c.21,0,.3-.15.43-.27l1.08-1.08c.1-.09.16-.25.34-.2s-.06.23-.13.3c-.45.46-.88.93-1.35,1.34a1.26,1.26,0,0,0-.46.91C62.08,44.15,61.91,45.19,61.88,46.24Z"/><path class="cls-19" d="M65.29,39.3a1.49,1.49,0,0,1,0,.47c-.36,0-.42.46-.82.5.09-.38.46-.5.61-.81l-.4-1.24c.4-.33.89-.45,1.34-.75.11-.61.24-1.26.35-1.92,0-.13,0-.25.19-.25a2.06,2.06,0,0,1,.06.82c-.23.25-.19.58-.24.87a1,1,0,0,1-.65.87,2.12,2.12,0,0,0-.72.4C64.88,38.68,65.2,39,65.29,39.3Z"/><path class="cls-6" d="M60.68,37.85c.08.11,0,.38.31.25a5,5,0,0,1-.05,1.68,1.4,1.4,0,0,0,.09.83h0l-.53-.07a.59.59,0,0,0-.09-.77c-.09-.1-.11-.25-.19-.37a.53.53,0,0,1,.11-.78.59.59,0,0,0,.17-.78h.19Zm0,1.92a2.65,2.65,0,0,0,.1-1.24C60.26,38.94,60.26,39,60.69,39.77Z"/><path class="cls-9" d="M66.23,41.56c-.21.28,0,.67-.29.93-.23-.18-.23-.18-.17-1a3,3,0,0,1-1-.27c.35-.18.7,0,1-.12s.07-.47.39-.51c.22.18.07.43.13.64Z"/><path class="cls-6" d="M58.39,38.05l.16,0a9.19,9.19,0,0,0-.08,1.66c0,.31,0,.63.32.83l0,.11a.32.32,0,0,1-.37-.24A3,3,0,0,1,58.39,38.05Z"/><path class="cls-6" d="M60.42,40.71c-.2.2-.38.32-.6.11a.2.2,0,0,1,0-.32C60.1,40.32,60.27,40.44,60.42,40.71Z"/><path class="cls-14" d="M59.64,36.71a.29.29,0,0,1,.32.06v.76h0C59.54,37.35,59.54,37.35,59.64,36.71Z"/><path class="cls-9" d="M66.23,41.56l0-.31h.53c.14,0,.27.05.26.27A2.74,2.74,0,0,1,66.23,41.56Z"/><path class="cls-6" d="M58.74,40.62l0-.11c.07,0,.15-.11.24-.08s.3.13.22.32-.22.14-.36.06A.32.32,0,0,1,58.74,40.62Z"/><path class="cls-19" d="M61,40.61a2.33,2.33,0,0,1,.58,1,1.35,1.35,0,0,1-.59-1Z"/><path class="cls-19" d="M62.32,44c.1-.23.26-.24.45-.17a.22.22,0,0,1-.1.35C62.5,44.27,62.38,44.19,62.32,44Z"/><path class="cls-19" d="M56.23,43a.74.74,0,0,1-.31-.55A.53.53,0,0,1,56.23,43Z"/><path class="cls-19" d="M55.69,42.06c-.2,0-.26-.06-.27-.22C55.59,41.78,55.66,41.87,55.69,42.06Z"/><path class="cls-14" d="M60.28,37.75a.32.32,0,0,1-.32-.22h0c.16,0,.32,0,.32.21Z"/><path class="cls-19" d="M55.81,42.24s.07,0,.07,0a.07.07,0,0,1-.06.1.11.11,0,0,1-.08,0A.08.08,0,0,1,55.81,42.24Z"/><path class="cls-14" d="M60.49,37.85c-.09,0-.17,0-.21-.1h0c.09,0,.18,0,.21.11Z"/><path class="cls-10" d="M61.77,41.89c.06,0,.11.06.07.15s-.06-.1-.07-.15Z"/><path class="cls-10" d="M61.77,41.89l-.05,0h0l0,0Z"/><path class="cls-10" d="M62.09,42h.11v.08h0Z"/><path class="cls-14" d="M59.68,50.08c.58.1,1.26.18,1.94.26l.62,0a1.14,1.14,0,0,1,.37,0c.13.07.25.14.22.32a.29.29,0,0,1-.35.24c-.73-.13-1.47-.11-2.19-.26a6,6,0,0,0-.74,0c-.21,0-.45-.05-.43-.35S59.37,50.07,59.68,50.08Z"/><path class="cls-15" d="M30.34,29c.53-.08,1,.14,1.55.1-.14.45-.4.69-.68.7S30.49,29.46,30.34,29Z"/><path class="cls-6" d="M33.23,25.92a3.85,3.85,0,0,0-1.13,0C32.43,25.39,32.83,25.41,33.23,25.92Z"/><path class="cls-6" d="M30.15,26.37c.3.41.3.41,0,.75C29.8,26.84,29.8,26.79,30.15,26.37Z"/><path class="cls-6" d="M32.84,26.9c0,.17-.07.32-.27.31s-.22-.15-.22-.3.06-.33.24-.34S32.82,26.74,32.84,26.9Z"/><path class="cls-6" d="M43.1,79.22l.13.09Z"/><path class="cls-16" d="M63.48,30.12a.89.89,0,0,1-1,.71.77.77,0,0,1-.71-.71Z"/><path class="cls-6" d="M63.71,26.88a1,1,0,0,1,1.31.43c-.42-.13-.85-.07-1.26-.2C63.67,27.08,63.67,27,63.71,26.88Z"/><path class="cls-6" d="M62.22,26.93c-.44.16-.85-.16-1.3,0A.76.76,0,0,1,62.22,26.93Z"/><path class="cls-6" d="M61.46,27.55c.29.17.39.42.27.62a.22.22,0,0,1-.22.11.28.28,0,0,1-.24-.23C61.24,27.94,61.27,27.87,61.46,27.55Z"/><path class="cls-6" d="M63.86,28.5c-.09-.31-.17-.57.17-.73C64.37,28.16,64.34,28.34,63.86,28.5Z"/><path class="cls-16" d="M65.29,39.3c-.09-.35-.41-.62-.31-1a2.12,2.12,0,0,1,.72-.4,1,1,0,0,0,.65-.87c.05-.29,0-.62.24-.87a7.52,7.52,0,0,1-.43,2.76A1.58,1.58,0,0,0,65.29,39.3Z"/><path class="cls-6" d="M66.55,39.72a.55.55,0,0,1-.56.45.45.45,0,0,1-.42-.51.45.45,0,0,1,.47-.45A.53.53,0,0,1,66.55,39.72Z"/><path class="cls-14" d="M60.49,37.85c0-.1-.12-.11-.21-.11,0-.23-.16-.21-.32-.21v-.76c.54.16.68.58.72,1.08Z"/><path class="cls-16" d="M56.49,46.24l.46.16a.49.49,0,0,1,0,.41c-.16.14-.35,0-.51.09s0,.35-.16.49a.7.7,0,0,1-.47,0c-.1-.16.09-.33,0-.5s-.34-.06-.47-.23a.53.53,0,0,1,0-.41c.18-.12.37,0,.55-.1s0-.51.34-.48S56.41,46,56.49,46.24Z"/><path class="cls-16" d="M66.92,48.05c-.66.57-1.14.28-1.66,0-.12-.28,0-.58.06-.88,0-.14.16-.18.29-.15a5,5,0,0,1,1.36.25A2.17,2.17,0,0,1,66.92,48.05Z"/><path class="cls-15" d="M60.69,39.77c-.43-.74-.43-.83.1-1.24A2.65,2.65,0,0,1,60.69,39.77Z"/><path class="cls-6" d="M22.24,32.14a2.81,2.81,0,0,1,.33-1.81,11.12,11.12,0,0,1,1.57-2c.27-.26.2,0,.2,0s-.09.15-.26.38A17.08,17.08,0,0,0,23,30.12a7.39,7.39,0,0,0-.6,1.53c0,.4,0,.58-.07.6s-.1-.1-.1-.1Z"/><path class="cls-6" d="M28.74,25.6l.08-.08,1.38-1.3H31l.05.09s-2,1.54-2.34,1.75-.63.43-.63.43a2.71,2.71,0,0,1,.38-.56A2.32,2.32,0,0,0,28.74,25.6Z"/><path class="cls-6" d="M28.5,25.34a7.88,7.88,0,0,1,.74-1c.15-.09.93-.75,1.1-.73s.24.36.2.5a7.94,7.94,0,0,1-.68,1L29,25.6Z"/><path class="cls-9" d="M63.15,34.86s.45.69.52.81a.49.49,0,0,1,.06.25l1.94-1.48.06-.06.2-.59a.81.81,0,0,0-.52-.44,16.52,16.52,0,0,1-1.62,1.07Z"/><path class="cls-4" d="M61.24,26l-.55.89L61,29.46s-.41,1.42.27,1.72a7.19,7.19,0,0,0,2.13.43c.28,0,1.23-1.28,1.38-1.49A16.6,16.6,0,0,0,65.3,28l-.19-1.21L63.18,26Z"/><path class="cls-4" d="M28.86,26s.44-.41.44-.41l.43-.29,1.69-.24a8.44,8.44,0,0,1,1-.22,5.19,5.19,0,0,1,.74.41l.18.48-.92,3.68s-1.31.94-1.34.94-3.62-1.85-3.51-2.09S28.86,26,28.86,26Z"/><path class="cls-20" d="M28.68,44.56s2.62-1.51,3.94-1.41a13,13,0,0,1,1.8.22Z"/><path class="cls-20" d="M22.92,44.89s2.63-.66,2.89-.69-2.06.64-2.06.64Z"/><path class="cls-20" d="M26.76,44.77s-.87-5.23-.85-5.91l0-.68Z"/><polygon class="cls-20" points="35.57 44.29 34.01 38.91 35.74 44.21 35.61 44.38 35.57 44.29"/><path class="cls-19" d="M55,41.46s.83,1.08,1.1,1.51.27.39.27.39a8.66,8.66,0,0,0-1.11-1.82C54.93,41.28,55,41.46,55,41.46Z"/><path class="cls-21" d="M39.15,59.34a.22.22,0,0,0,0-.08l-.07.2a.39.39,0,0,0,.06-.11c-.07.95-.19,1.92-.35,2.88h0l-.9,13.41.63-13.57c-.1-.95-.15-1.9-.16-2.85l.07-.21c0,.09,0,0-.28-.14a3.4,3.4,0,0,0-.78-.26c-.58-.13-1.14-.21-1.79-.32A31.68,31.68,0,0,1,32,57.35c-1.2-.37-2.38-.78-3.54-1.25-.58-.24-1.16-.49-1.72-.77a4.82,4.82,0,0,1-1.58-1l.08,0a5.12,5.12,0,0,0,1.59.88c.58.22,1.17.43,1.76.62,1.18.37,2.37.73,3.57,1a26.84,26.84,0,0,0,3.62.69,12,12,0,0,1,1.89.28,3.59,3.59,0,0,1,1,.39,1.41,1.41,0,0,1,.48.44A.78.78,0,0,1,39.15,59.34Z"/><path class="cls-21" d="M39.16,59.26a.22.22,0,0,1,0,.08h0a.39.39,0,0,1-.06.11Z"/></svg>