<svg id="Layer_1" data-name="Layer 1" xmlns="http://www.w3.org/2000/svg" viewBox="0 0 600 400"><defs><style>.cls-1{fill:#f7e2b7;opacity:0.21;}.cls-2{fill:#d44c46;}.cls-3{fill:#161616;}.cls-10,.cls-11,.cls-12,.cls-13,.cls-4,.cls-6,.cls-8,.cls-9{fill:none;stroke-miterlimit:10;}.cls-10,.cls-4,.cls-6,.cls-8,.cls-9{stroke:#161616;}.cls-4{stroke-width:0.59px;}.cls-5{fill:#feffff;}.cls-6{stroke-width:0.71px;}.cls-7{fill:#af3535;}.cls-8{stroke-width:0.65px;}.cls-10,.cls-11,.cls-12,.cls-13,.cls-9{stroke-linecap:round;}.cls-9{stroke-width:0.75px;}.cls-10{stroke-width:0.76px;}.cls-11,.cls-12,.cls-13{stroke:#000;stroke-width:0.53px;}.cls-12{stroke-dasharray:2 2;}.cls-13{stroke-dasharray:2.12;}.cls-14{fill:#445c7a;}.cls-15{fill:#f2c7b3;}.cls-16{fill:#1b1e2a;}.cls-17{fill:#1d202a;}.cls-18{fill:#1f212c;}.cls-19{fill:#f0c4af;}.cls-20{fill:#f0c5b1;}.cls-21{fill:#292c37;}.cls-22{fill:#292f39;}.cls-23{fill:#d7d6ce;}.cls-24{fill:#f4f2ec;}.cls-25{fill:#343339;}.cls-26{fill:#a9b9c4;}.cls-27{fill:#a8b8c4;}</style></defs><title>Customer</title><path class="cls-1" d="M39.06,355.14C27.63,329.22,33,298.92,52,277.88c12.66-14.05,28.3-30.37,39-51.68,17.26-34.52-19.88-46-15.69-100.95s47.6-77.94,77.41-81.6,17.26-.52,40.8-16.74,47.6-8.89,95.2,18.83,92.06,25.11,143.84,2.09S572.15,58.3,524,154s22.49,108.79,35,144.89S500,419.73,418.89,384.17s-187.25-18.83-246.36-8.9S67.39,396.2,46.47,368A66.87,66.87,0,0,1,39.06,355.14Z"/><path class="cls-2" d="M118.88,285.5a17.71,17.71,0,0,0-9.54-3.13c-3.85-.08-9.86,2.57-11.31,4.73s-3.68,5.21-3.12,8.66,3.21,14.35,7.78,18.29,7.46,6.76,7.46,6.76,7.21-6.52,8.82-9.49,5.13-8.9,5.13-12.19S121.45,287.18,118.88,285.5Zm-9.32,4a7.51,7.51,0,1,1-5.29,2.2A7.5,7.5,0,0,1,109.56,289.49Z"/><path class="cls-2" d="M123.07,289.47v0a15.49,15.49,0,0,0-13.49-8h0a15.47,15.47,0,0,0-13.49,8,15.85,15.85,0,0,0-1.8,9A23.14,23.14,0,0,0,97,307c2.8,5.28,7.19,10.1,11.1,14.2l0,0a2.07,2.07,0,0,0,1.44.7h0a2.07,2.07,0,0,0,1.44-.7l0,0c3.91-4.1,8.3-8.92,11.1-14.2a23.14,23.14,0,0,0,2.73-8.54A15.85,15.85,0,0,0,123.07,289.47Zm-2.67,16.61c-2.67,5.06-7,9.75-10.77,13.75a.23.23,0,0,1-.07.07l-.06-.07c-3.81-4-8.1-8.69-10.77-13.75-3.1-5.87-3.4-11-.93-15.7a13.41,13.41,0,0,1,23.53,0C123.8,295.08,123.49,300.21,120.4,306.08Z"/><path class="cls-2" d="M109.56,287.1a9.89,9.89,0,1,0,9.89,9.89A9.89,9.89,0,0,0,109.56,287.1Zm0,17.39a7.5,7.5,0,1,1,7.5-7.5A7.49,7.49,0,0,1,109.56,304.49Z"/><path class="cls-3" d="M125.34,319.2a35.65,35.65,0,0,0-7.4-1.48,1,1,0,1,0-.21,1.95c7,.78,8.89,2.18,9,2.56-.12.28-1.23,1.17-4.94,1.93a64.17,64.17,0,0,1-12.28,1,64.13,64.13,0,0,1-12.27-1c-3.71-.76-4.82-1.65-4.94-1.93.16-.38,2.05-1.78,9.05-2.56a1,1,0,1,0-.22-1.95,35.54,35.54,0,0,0-7.39,1.48c-2.3.8-3.41,1.79-3.41,3,0,1.64,2,2.87,6.1,3.76a64,64,0,0,0,13.08,1.19A64.11,64.11,0,0,0,122.65,326c4.1-.89,6.1-2.12,6.1-3.76C128.75,321,127.63,320,125.34,319.2Z"/><circle class="cls-4" cx="109.56" cy="304.31" r="35.28"/><polygon class="cls-2" points="493.57 70.6 504.46 70.75 523.54 71.02 524.9 72.42 524.74 84.4 523.26 85.17 522.24 85.45 499.59 85.14 487.9 84.98 485.96 83.86 485.73 73.15 486.77 71.39 487.61 70.65 493.57 70.6"/><path class="cls-5" d="M517.61,74.41a.69.69,0,0,0-.69.67l-.08,6.11a.67.67,0,0,0,.66.69.69.69,0,0,0,.69-.67l0-1.79,2.33,2.31a.68.68,0,0,0,1,0,.68.68,0,0,0,0-1L518.74,78l2.6-2.32a.69.69,0,0,0,0-1,.68.68,0,0,0-1-.05l-2.18,2,0-1.56a.67.67,0,0,0-.66-.69Z"/><path class="cls-5" d="M491.57,74.05l-1.77,0a.67.67,0,0,0-.69.66L489,80.81a.63.63,0,0,0,.19.48.67.67,0,0,0,.48.2h0l2.08,0a2.32,2.32,0,0,0,1.45-4.16,2,2,0,0,0,.4-1.19A2.09,2.09,0,0,0,491.57,74.05Zm0,1.36a.73.73,0,0,1,0,1.45h-1.1l0-1.46Zm.24,4.75-1.41,0,0-1.93h1.41a1,1,0,0,1,0,1.94Z"/><path class="cls-5" d="M504.21,78a3.74,3.74,0,1,0-3.79,3.68A3.75,3.75,0,0,0,504.21,78Zm-6.12-.08a2.38,2.38,0,1,1,2.35,2.41A2.38,2.38,0,0,1,498.09,77.88Z"/><path class="cls-5" d="M514.28,78.1a3.73,3.73,0,1,0-3.78,3.68A3.74,3.74,0,0,0,514.28,78.1ZM508.17,78a2.38,2.38,0,1,1,2.35,2.42A2.38,2.38,0,0,1,508.17,78Z"/><path d="M510.64,85.24a.67.67,0,0,0-.67-.68l-21.21-.3a2.51,2.51,0,0,1-2.47-2.54l.11-8a2.51,2.51,0,0,1,2.54-2.48l6.46.09a.68.68,0,1,0,0-1.36L489,69.88A3.87,3.87,0,0,0,485,73.69l-.11,8a3.87,3.87,0,0,0,3.81,3.92l21.21.29A.67.67,0,0,0,510.64,85.24Z"/><path d="M522.06,70.33,498.13,70a.68.68,0,0,0,0,1.36l23.93.33a2.51,2.51,0,0,1,2.48,2.54l-.11,8a2.51,2.51,0,0,1-2.55,2.47l-9.18-.12a.68.68,0,1,0,0,1.35l9.18.13a3.87,3.87,0,0,0,3.92-3.81l.11-8A3.87,3.87,0,0,0,522.06,70.33Z"/><path d="M512,99.75A2.35,2.35,0,0,0,511,100v-.52A2.41,2.41,0,0,0,508.6,97a2.33,2.33,0,0,0-1.17.28,2.41,2.41,0,0,0-2.27-1.72,2.49,2.49,0,0,0-1.06.23l0-2.71a2.41,2.41,0,0,0-4.82-.07l-.09,6.9a2.32,2.32,0,0,0-1.05-.25,2.4,2.4,0,0,0-2.44,2.37l0,1.85,0,2.81v.17a9.33,9.33,0,0,0,18.66.26l.07-5A2.41,2.41,0,0,0,512,99.75Zm1,7.37a8,8,0,1,1-16-.22l.07-4.83a1.06,1.06,0,1,1,2.11,0l0,3a.66.66,0,0,0,.66.68.67.67,0,0,0,.69-.66l0-3,.13-9.07a1.06,1.06,0,1,1,2.11,0l-.14,10a.68.68,0,0,0,1.35,0l.07-5.1a1.06,1.06,0,0,1,2.11,0l-.07,5.1a.68.68,0,1,0,1.35,0l.05-3.7a1.06,1.06,0,1,1,2.11,0l-.05,3.7a.67.67,0,0,0,.67.69.67.67,0,0,0,.68-.67l0-1a1.06,1.06,0,0,1,2.11,0Z"/><path d="M496.6,92.48a.68.68,0,1,0,1.36,0,3.78,3.78,0,1,1,7.56.11.68.68,0,1,0,1.36,0,5.14,5.14,0,0,0-10.28-.15Z"/><circle class="cls-4" cx="505.19" cy="93.22" r="35.28"/><path class="cls-2" d="M458.86,291.4l42.94.22.15-4.08-1.46-3-1.9-1.46-1.16-.29-1,1.49-.37,1.28-1.27.91-1.53-.69-.92-2.63-.62-.36-4.23,0-.07,1.89-1.09,1.17-1.2.18-1.06-.44L483,283.57l-.36-.92-4.09.11h-.33l-.8,2.45-.25.65-1.9.29-1.06-.54a26.16,26.16,0,0,0-.36-2.7,3.18,3.18,0,0,0-.84-.37c-.25-.07-3.79,0-3.79,0s-.36-.47-.33,0a20.68,20.68,0,0,1-.25,2.41l-.92,1-1.09.33-1.27-.07-1.57-2L464,282l-2.33,1.27a10,10,0,0,0-1.53.81c-.08.14-1.79,2.77-1.79,2.77Z"/><path d="M497.7,281.75v-1.08a3.12,3.12,0,0,0-6.24,0v1h-3.19v-1a3.12,3.12,0,1,0-6.24,0v1h-3.19v-1a3.12,3.12,0,1,0-6.23,0v1h-3.19v-1a3.12,3.12,0,0,0-6.24,0v1.08a6.24,6.24,0,0,0-5.49,6.19V316.8a6.26,6.26,0,0,0,6.25,6.25h33a6.27,6.27,0,0,0,6.25-6.25V287.94a6.25,6.25,0,0,0-5.49-6.19Zm-4.54-1.08a1.42,1.42,0,0,1,2.84,0v3.76a1.42,1.42,0,0,1-2.84,0Zm-9.42,0a1.42,1.42,0,0,1,1.41-1.42,1.43,1.43,0,0,1,1.42,1.42v3.76a1.42,1.42,0,0,1-2.83,0h0Zm-9.43,0a1.42,1.42,0,0,1,2.83,0v3.76a1.42,1.42,0,0,1-2.83,0Zm-9.43,0a1.42,1.42,0,1,1,2.83,0v3.76a1.42,1.42,0,0,1-2.83,0Zm-1.7,2.8v1a3.12,3.12,0,0,0,6.24,0v-1h3.19v1a3.12,3.12,0,0,0,6.23,0v-1H482v1a3.12,3.12,0,0,0,6.24,0h0v-1h3.19v1a3.12,3.12,0,0,0,6.24,0v-1a4.54,4.54,0,0,1,3.78,4.47v2.57H459.39v-2.57a4.55,4.55,0,0,1,3.79-4.47Zm33.76,37.88h-33a4.57,4.57,0,0,1-4.55-4.55V292.21h42.09V316.8a4.55,4.55,0,0,1-4.54,4.55Z"/><path d="M469.58,296.47h-3.44a2.26,2.26,0,0,0-2.26,2.26v3.44a2.27,2.27,0,0,0,2.26,2.26h3.44a2.27,2.27,0,0,0,2.26-2.26v-3.44a2.26,2.26,0,0,0-2.26-2.26Zm.55,5.7a.55.55,0,0,1-.55.55h-3.44a.55.55,0,0,1-.55-.55v-3.44a.56.56,0,0,1,.55-.56h3.44a.56.56,0,0,1,.55.56Z"/><path d="M482.16,296.47h-3.44a2.26,2.26,0,0,0-2.26,2.26v3.44a2.27,2.27,0,0,0,2.26,2.26h3.44a2.28,2.28,0,0,0,2.26-2.26v-3.44a2.27,2.27,0,0,0-2.26-2.26Zm.55,5.7a.55.55,0,0,1-.55.55h-3.44a.56.56,0,0,1-.56-.55v-3.44a.57.57,0,0,1,.56-.56h3.44a.56.56,0,0,1,.55.56Z"/><path d="M495.84,297.64,492,301.45l-1.83-1.82a.85.85,0,0,0-1.2,1.2l2.43,2.43a.85.85,0,0,0,1.2,0h0l4.42-4.42a.85.85,0,0,0-1.2-1.21Z"/><path d="M469.58,308.2h-3.44a2.26,2.26,0,0,0-2.26,2.26v3.44a2.27,2.27,0,0,0,2.26,2.26h3.44a2.27,2.27,0,0,0,2.26-2.26v-3.44A2.26,2.26,0,0,0,469.58,308.2Zm.55,5.7a.55.55,0,0,1-.55.55h-3.44a.55.55,0,0,1-.55-.55v-3.44a.54.54,0,0,1,.55-.55h3.44a.54.54,0,0,1,.55.55Z"/><path d="M482.16,308.2h-3.44a2.26,2.26,0,0,0-2.26,2.26v3.44a2.27,2.27,0,0,0,2.26,2.26h3.44a2.28,2.28,0,0,0,2.26-2.26v-3.44A2.27,2.27,0,0,0,482.16,308.2Zm.55,5.7a.55.55,0,0,1-.55.55h-3.44a.56.56,0,0,1-.56-.55v-3.44a.55.55,0,0,1,.56-.55h3.44a.55.55,0,0,1,.55.55Z"/><path d="M494.74,308.2H491.3a2.26,2.26,0,0,0-2.26,2.26v3.44a2.27,2.27,0,0,0,2.26,2.26h3.44A2.27,2.27,0,0,0,497,313.9v-3.44A2.26,2.26,0,0,0,494.74,308.2Zm.55,5.7a.55.55,0,0,1-.55.55H491.3a.56.56,0,0,1-.56-.55v-3.44a.55.55,0,0,1,.56-.55h3.44a.55.55,0,0,1,.55.55Z"/><circle class="cls-6" cx="480.44" cy="300.3" r="42.24"/><path class="cls-2" d="M133.8,103.36c0-1.2,0-4,.44-4.44a4.26,4.26,0,0,1,3.7-.62c1.71.41,2.09-1,2.39.9s0,3.73.68,3.92,4-.47,4.41.76.66,5.33-.1,5.85-2.94.11-3.84.76.38,4.36-1.06,4.49-5.69,1.47-6.16-.13a33.08,33.08,0,0,0-1-3.82c-.32-.51-2.06-.26-3.18-.59s-.9.16-1.09-2.61-.19-3.9.65-4.11A38.62,38.62,0,0,1,133.8,103.36Z"/><path class="cls-7" d="M140.15,115.87c-1.49,0-3,0-4.5-.12a2.49,2.49,0,0,1-1.3-.36,2.58,2.58,0,0,1-.92-2.18c0-.47-.07-1.24-.15-2.18-1.21,0-2.6-.06-3.69-.16a1.35,1.35,0,0,1-1.05-.45,1.43,1.43,0,0,1-.29-1c0-1.51,0-3,.12-4.5a2.15,2.15,0,0,1,2.52-2.23l1.37-.08,1-.07c0-.39,0-.77,0-1.12,0-1.73.07-3.53,1.82-3.79a18.34,18.34,0,0,1,4.91.08,1.77,1.77,0,0,1,.9.38,2,2,0,0,1,.68,1.66c0,.77.06,1.72.08,2.75l1.14,0c1.67,0,3.4.07,3.65,1.79a19.27,19.27,0,0,1-.07,4.92h0a1.78,1.78,0,0,1-2.08,1.55c-.71,0-1.6.07-2.56.1,0,1.45-.06,2.65-.14,3.58a1.45,1.45,0,0,1-.52,1.08A1.32,1.32,0,0,1,140.15,115.87ZM134,109.46a.79.79,0,0,1,.78.73c.11,1.3.19,2.37.21,3s.09.85.23.94a1.29,1.29,0,0,0,.51.09c1.42.08,2.85.12,4.28.12.08-1,.13-2.41.13-4.11a.79.79,0,0,1,.78-.79l3.32-.12a1.13,1.13,0,0,0,.52-.07s0-.15,0-.21a17.49,17.49,0,0,0,.05-4.4c-.05-.35-.57-.42-2.12-.45-.58,0-1.2,0-1.87-.08a.86.86,0,0,1-.79-.77c0-1.3-.06-2.49-.1-3.43a1.5,1.5,0,0,0-.08-.51l-.23-.06a17.34,17.34,0,0,0-4.38-.07c-.38,0-.45.62-.48,2.27,0,.59,0,1.23-.09,1.89a.78.78,0,0,1-.73.72l-1.63.11c-.59,0-1.09.08-1.42.09s-.79,0-.91.22a1.28,1.28,0,0,0-.1.53c-.08,1.39-.12,2.83-.12,4.26,1.21.1,2.79.13,4,.14Zm11.58-.31h0Z"/><path d="M128.28,120.34a.79.79,0,0,1,0-1.57h18.24a.79.79,0,1,1,0,1.57Z"/><path d="M124.55,134.2a3.58,3.58,0,0,1-2-.48c-1.25-.85-1.27-2.55-1.27-3.37l-.34-41.88a6.77,6.77,0,0,1,.42-2.91c1.17-2.61,4.47-2.91,6.85-2.92,2.84,0,5.67,0,8.51,0l4.24,0h0c.67,0,1.46-.07,2.29-.13,3.13-.26,7-.58,9,2.19a7.91,7.91,0,0,1,1.05,4.4l.77,28.16a52.84,52.84,0,0,1-.62,12.15,6,6,0,0,1-1.65,3.4c-1.32,1.17-3.22,1.18-4.47,1.19l-22.56.17Zm3.63-50c-3.1,0-4.82.64-5.43,2a5.56,5.56,0,0,0-.28,2.26l.34,41.88c0,.83.08,1.74.58,2.07a2.44,2.44,0,0,0,1.35.22l22.55-.17a5.25,5.25,0,0,0,3.45-.8,4.62,4.62,0,0,0,1.15-2.54,51.7,51.7,0,0,0,.59-11.79l-.77-28.15a6.65,6.65,0,0,0-.76-3.55c-1.44-2-4.71-1.76-7.6-1.53a24.27,24.27,0,0,1-2.43.14l-4.25,0C133.84,84.21,131,84.2,128.18,84.21Zm0-.78h0Z"/><path d="M121.65,92.78a.79.79,0,0,1,0-1.57c10.12-.48,20.39-.69,30.54-.61a.79.79,0,0,1,0,1.57h0c-10.11-.08-20.36.13-30.45.61Z"/><path d="M140,130.73h0c-1.81-.07-3.91-.13-6,0a.79.79,0,1,1-.08-1.57c2.15-.11,4.29,0,6.13,0a.79.79,0,0,1,0,1.57Z"/><path d="M122,127.47a.79.79,0,0,1,0-1.57c10.23-.49,20.11-.69,30.2-.62a.79.79,0,0,1,0,1.57h0c-10-.07-19.9.13-30.11.62Z"/><circle class="cls-8" cx="137.91" cy="107.26" r="38.95"/><path class="cls-9" d="M529.2,306A39.2,39.2,0,0,1,522.8,323"/><path class="cls-8" d="M509.65,51.81a38.88,38.88,0,0,1,31,17.69"/><path class="cls-10" d="M135.06,150.27a45.53,45.53,0,0,1-16-4.19"/><line class="cls-11" x1="166.98" y1="136.85" x2="167.73" y2="137.6"/><line class="cls-12" x1="169.14" y1="139.01" x2="191.05" y2="160.93"/><line class="cls-11" x1="191.76" y1="161.63" x2="192.51" y2="162.38"/><line class="cls-13" x1="388.87" y1="199.74" x2="484.33" y2="121.88"/><line class="cls-13" x1="396.51" y1="232.09" x2="446.22" y2="269.43"/><line class="cls-13" x1="143.23" y1="288.85" x2="177.19" y2="267.91"/><ellipse class="cls-1" cx="61.79" cy="210.21" rx="25.28" ry="34.2"/><ellipse class="cls-1" cx="540.75" cy="214.44" rx="27.37" ry="40.99" transform="translate(-31.69 110.98) rotate(-11.39)"/><path class="cls-14" d="M211.8,400c-.1-3-.24-6-.29-9A329.37,329.37,0,0,1,213,355.31c1-11,2.22-21.92,4.08-32.78.25-1.43.19-2.95.94-4.27a226,226,0,0,0,24,7,267.91,267.91,0,0,0,30.72,5c6,.63,12,.88,18,1.13a208.66,208.66,0,0,0,27-.83c3-.27,6-.7,8.92-1.12,4.75-.69,9.49-1.44,14.22-2.15,3.14,8.66,8.25,14.15,12.53,14.44.21-.86-.36-1.16-1-1.44a14.86,14.86,0,0,1-5.71-4.69,28.59,28.59,0,0,1-4.35-8.69l12-3c.85,2.37.89,4.88,1.18,7.33,1.38,11.3,2.41,22.63,3.3,34s1.45,22.42,1.55,33.66a8.1,8.1,0,0,0,.13,1.09h-71.1c0-.8-.06-1.61-.15-2.41q-1.63-13.83-3.3-27.67c.69-2.34.65-2.67-1.21-3.78-4.51-2.7-9.07-5.32-13.63-7.95-.4-.22-.82-.69-1.42-.26-.23.48,0,.79.4,1.05,1.19.73,2.35,1.49,3.54,2.19,3.52,2.09,7.15,4,10.53,6.3.69.47,1.38.87,1.29,1.85-.44,6.34-1.22,12.65-2,19-.47,3.91-.77,7.85-1.59,11.72Zm18.48-75.77c-1.47,1.94-1.57,4.41-2.58,6.53a34,34,0,0,1-3.82,6.13c-1.44,1.87-3.83,2.66-5.65,4.58C223.55,341.74,231.63,330,230.28,324.24Z"/><path class="cls-2" d="M358.94,290.67c.1-3.91-.79-7.74-.49-11.63l-.16-.18a15.91,15.91,0,0,1-5.74-2.68A59.91,59.91,0,0,1,337,261.61a292.86,292.86,0,0,1-16.51-24.48c-3-4.93-5.36-10.15-4.95-16.17a3.75,3.75,0,0,0-1.19-2.52c-.87-1.18-1.82-2.31-2.67-3.51a6,6,0,0,1-1.19-5.45c-1.71-1.62-3.69-3-4.72-5.17-.5-1.06-1.09-2.08-1.56-3.16a2.52,2.52,0,0,0-2.73-1.67c-5.44.1-10.88.06-16.32,0-.88,0-2,.33-2.36-1l-1.1,0c-.45,1.2-1.52,1-2.43,1a17.75,17.75,0,0,0-5,.65,14.32,14.32,0,0,0-7.32,4.61,25.13,25.13,0,0,1-5.54,4.79c.58,2.1-.26,3.85-1.46,5.5a18.38,18.38,0,0,1-1.41,2,8.3,8.3,0,0,0-2.28,6.38c.11,3-1,5.92-2.22,8.69a56.12,56.12,0,0,1-4,7.33c-5.26,8.23-10.47,16.51-16.7,24.07a57.93,57.93,0,0,1-17.5,14.59,4.61,4.61,0,0,1-2.23.87l-.14.14c.49,2.29-.16,4.55-.48,6.75a24.14,24.14,0,0,0,2.57,15.72,10.07,10.07,0,0,1,.89,6.37c-.38,3.11-1.18,6.47,1.58,9.11a3.42,3.42,0,0,1,2.35.27,245.28,245.28,0,0,0,35.6,7.26,235.67,235.67,0,0,0,38.74,2.06c17.08-.53,34-2.31,50.65-6.48,2.28-.57,4.52-1.28,6.78-1.94.56-.15,1.09-.5,1.69-.15a5.24,5.24,0,0,0,2.26-4.95,46,46,0,0,0-.44-5.67,9.18,9.18,0,0,1,1-5.9A28.91,28.91,0,0,0,358.94,290.67Zm-14.57,15.58c-.79.83-1.91.7-2.87.9-19.77,4-39.55,7.83-59.89,7.08-18.05-.67-35.56-4.5-53-8.56a1.89,1.89,0,0,1-1.2-.48c-.09-.1-.08-.27-.14-.49.56-.64,1.06-.26,1.52-.16,8,1.67,15.91,3.61,23.93,5.12,17.6,3.32,35.3,4.53,53.14,2.41,11.55-1.38,23-3.6,34.35-5.88,1.37-.27,2.75-.95,4.17-.49a1.86,1.86,0,0,1,.1.36A.26.26,0,0,1,344.37,306.25Z"/><path class="cls-2" d="M396.72,237.43A202.92,202.92,0,0,0,392,215.37c-.81-3.08-1.22-6.31-2.58-9.25a42.37,42.37,0,0,0-1.89-7.87c-.5-1.66-.45-3.51-1.62-4.94a52,52,0,0,0-2.74-10.14,33.4,33.4,0,0,0-2.17-6.63c0-.48.06-1-.45-1.33a6.61,6.61,0,0,0-1.3-3.57,50.61,50.61,0,0,0-4-11c.13-.91-.47-1.52-.88-2.2a4.54,4.54,0,0,0-.9-2.21,1.48,1.48,0,0,0-.79-1.36c-.37-2.37-1.68-4.35-2.69-6.45a53.53,53.53,0,0,0-14.9-18.65c-1.11-.9-2.15-2-3.67-2.31a8.69,8.69,0,0,0-3.13-2.12c-2.32-1.71-5-2.67-7.55-4a9.6,9.6,0,0,0-3.92-1.35c-1.29-1-3-1.19-4.45-2.13a9.25,9.25,0,0,0-2.09-9.72,11.74,11.74,0,0,1-2.64-5.9,27.44,27.44,0,0,0-1-3.58,16,16,0,0,0-7.42-9.11A45,45,0,0,0,310.27,86c-1.36.84-1.32,2.38-1.81,3.65l2.63,1a15.69,15.69,0,0,1,5.09,3,5.64,5.64,0,0,1,1.21,7.38,14.41,14.41,0,0,1-2.2,3,52.81,52.81,0,0,1-11.54,9.07c-.71,1.27-2.08,1.77-3.15,2.59-3.34,2.55-6.79,5-10.23,7.4-1.18.83-1.88,2.27-3.4,2.66a1.34,1.34,0,0,1-1.32.87c-1.77-.4-2.68-2-3.92-3-3.78-3.23-8-5.89-11.92-8.88a4.86,4.86,0,0,1-1.54-1.52A53.58,53.58,0,0,1,257.44,105a16.66,16.66,0,0,1-2.64-3.22c-2.19-3.53-1.7-6.26,1.6-8.78a23.86,23.86,0,0,1,6.68-3.23c.08-1.49-.88-2.6-1.38-3.87a19.94,19.94,0,0,0-4.62,1.42,24.48,24.48,0,0,0-7.09,4,16.79,16.79,0,0,0-5.49,9.31,20,20,0,0,1-3.78,8.52c-2,2.47-2.69,5.34-1.15,8.42.05.09-.06.27-.09.42-.82.86-2,.77-3,1.16a86.53,86.53,0,0,0-16.1,8.06,52.34,52.34,0,0,0-12,10.92c-4.23,5.14-6.88,11.22-9.6,17.25a250.07,250.07,0,0,0-12,34c-3.58,12.52-7,25.1-9.75,37.83a88.69,88.69,0,0,0-2.22,13.18c-.41,6.45-.34,12.92,1.75,19.17A39.89,39.89,0,0,0,184,273.42c6.23,7.14,14.36,8.16,23.13,7.06,2.18-.27,4.14-1.51,6.39-1.39l.14-.14a.84.84,0,0,1,.43-1.26c12-5.87,19.88-16,27.07-26.76,3.35-5,6.77-10,9.75-15.19,2.62-4.58,4.66-9.33,4.3-14.78a4.74,4.74,0,0,1,1.39-3.15,31.6,31.6,0,0,0,3.75-5.75c-1-.44-2.27-.35-2.79-1.52-2.54-.64-4.24-2.53-5.94-4.27-3.54-3.61-5.25-8.17-6.13-13.08a9.73,9.73,0,0,1,0-1.53,3.14,3.14,0,0,0-2.2.88,32.29,32.29,0,0,0-3.88,2.89,6,6,0,0,1-4.93,1.78,11.61,11.61,0,0,0-6.69,1.89,62.89,62.89,0,0,0-9.82,7.1c-5.63,4.73-11.64,9-17.12,13.92a85,85,0,0,0-8.29,8.25c-.5.59-.51.59-2,.8,3-4.36,6.86-7.43,10.52-11-2-.22-3.48.58-5,1.08s-2.76,1.6-4.21,2.21c-.77-.76-.16-1.11.3-1.45a16.37,16.37,0,0,1,8.56-3.23,8.35,8.35,0,0,0,4.89-2.12c5.91-4.74,11.69-9.65,17.82-14.11a2.76,2.76,0,0,0,1.13-2.82c-.47-8.75-.92-17.49-2.12-26.17a2.71,2.71,0,0,1-.06-1.52c0-.12.2-.19.38-.37.92.37.81,1.28.88,2,.5,4.6,1,9.21,1.37,13.83.32,3.89.49,7.78.73,11.68,0,.43.12.86.18,1.32a5.08,5.08,0,0,0,2.25-.91,12.87,12.87,0,0,1,6.8-1.53,4.27,4.27,0,0,0,3.39-1.18,40.66,40.66,0,0,1,4.94-3.72,3.19,3.19,0,0,1,2.44-.77c.92-.05,1.14-.83,1.44-1.47,1.91-4,3.71-8.1,5.33-12.25.57-1.5,1.16-3,1.74-4.48-.61-1.93,1.11-2.53,2-3.58a42.42,42.42,0,0,1,6.45-5.6c.69-.54,1.36-1.11,2.12-1.73,0-2.67,0-5.37,0-8.08,0-5.57,0-11.15-.13-16.71a8.37,8.37,0,0,1,1.94-6.29c-2.39-.36-4.53-1.49-6.76-2.34a7.09,7.09,0,0,0-2-.77c-1.35,1.84-1.1,3.77-.39,5.77s2.46,3.15,4.17,4.12c-.45,1.57-1.25,1-1.91.61a8.9,8.9,0,0,1-4.07-9.85c.11-.49.2-1,.3-1.49-5.29-2.53-10.86-4.47-16.34-7.37,1.26-.92,1.92-.22,2.56,0,4.45,1.89,8.89,3.83,13.33,5.75.33.14.69.22,1,.34l3.32-3.46c.2-.81-.34-1.4-.53-2.09-.6-.46-1.41-.3-2-.85a2.35,2.35,0,0,1-.76-2.76,2.37,2.37,0,0,1,2.54-1.27,2.08,2.08,0,0,1,1.66,2.47,3.38,3.38,0,0,0,.75,3.28,4,4,0,0,0,2.55,0c4.4-1,8.32,1.93,10,4.52.38.6.79,1.29.2,2.08-1.14,0-1.33-1-1.76-1.68-3-4.73-10.32-4.45-13.52-.47a1.48,1.48,0,0,0-.34,1c2.09,1.33,4.52,1.88,6.76,2.87.73.32,1.55.5,1.6,1.52a8.36,8.36,0,0,1,4.24-.89c9.9,0,19.8-.13,29.7.12a15,15,0,0,0,7.26-1.45c1.71-.83,3.58-1.32,5.23-2.28-.64-1.86-2.28-2.7-3.89-3.3-3.79-1.44-8.48-.84-10.7,3.74a1.74,1.74,0,0,1-.79.85c-1-.16-1-.73-.59-1.55a9.57,9.57,0,0,1,10.46-5.09c.64.15,1.28.28,2,.43a2.77,2.77,0,0,0,1-3.41,2.1,2.1,0,0,1,1.7-2.83,2.18,2.18,0,0,1,2.45,1,2.36,2.36,0,0,1-1.2,3.13c-1.34.72-1.34.72-2.15,2.94,1.48.77,2.31,2.29,3.62,3.33,5.57-2,10.86-4.69,16.45-6.65-.43,1.61-2,1.58-2.92,2.34l-9.7,4.22a8.83,8.83,0,0,0-3.07,1.28c-.11,1.53.66,3,.45,4.5a9.2,9.2,0,0,1-5.34,7.46c-.75-.94-.34-1.36.33-1.89,1.74-1.39,3.27-2.89,3.42-5.37a9.78,9.78,0,0,0-.7-4.23c-2.78,1.48-5.79,2.4-8.8,3.82,1.82,1.89,1.85,4.22,1.83,6.58a17.8,17.8,0,0,0,.07,3.72,71.52,71.52,0,0,0-.15,8A33.39,33.39,0,0,0,307,154c0,.22-.07.43-.11.65-.47,2.53.2,4.44,2.85,5.3l1.7,1.62a19.79,19.79,0,0,0,2.49,3.13,37.79,37.79,0,0,0,3.66,4.61c.54,1.58,1.9,2.83,1.9,4.63a6.46,6.46,0,0,0,.32,2.34c1.08,2.88,1.83,5.88,3.23,8.64A16.05,16.05,0,0,0,326,190.7a1.8,1.8,0,0,1,2,.16c.67.45,1.38.81,2.06,1.22,1.21,1,2.44,1.88,3.61,2.87a3.1,3.1,0,0,0,3.06.76c3.28.13,6.25,1.33,9.48,3.19v-7.31l1.65-19.21c.54-.61.26-1.42.52-2.09s.7-.94,1.29-.29l.06.13.14,0c0,.56,1.14,1.33-.32,1.58a124.92,124.92,0,0,0-1.79,17.67c-.32,2.87-.41,5.76-.53,8.65a2.3,2.3,0,0,0,1.53,2.54l7.24,5.66a110.31,110.31,0,0,0,8.73,7.13l.45.46c2,2.1,4.34,3.53,7.42,3.14,2.89.82,5.81,1.61,7.71,4.3-2.81-.92-5.25-2.91-8.61-2.84.58,1.77,2.08,2.43,3.07,3.51s2.28,2.29,3.39,3.46,2.08,2.25,3.15,3.41c-.8,1.06-1.31.47-1.77-.12a58.68,58.68,0,0,0-9.61-9.36c-7.81-6.34-15.33-13-23.59-18.8-3.18-2.22-6.62-3.82-10.67-3.4a3.09,3.09,0,0,1-2.17-.92c-1.58-1.19-3.16-2.38-4.78-3.54a4.41,4.41,0,0,0-2.6-1.07,20.28,20.28,0,0,1-6.12,14.73c-1.6,1.63-3,3.58-5.4,4.27-.68,1.13-1.92,1.14-3.08,1.45a11.9,11.9,0,0,0,2.84,4.73,8.15,8.15,0,0,1,2.38,6.13,17.72,17.72,0,0,0,1.76,7.9,46.7,46.7,0,0,0,3.56,6.84c5,7.86,10,15.76,15.74,23.15,5.37,6.94,11.57,12.92,19.5,16.9.49.24,1.22.35.93,1.2l.16.18a3.11,3.11,0,0,1,1.73.18c3.54,1.47,7.25,1.63,11,1.59,8.06-.1,14.27-3.7,18.75-10.17C396.89,260.58,398.45,249.29,396.72,237.43Zm-161.3-31.78c1.17,1.85,1.48,4.08,2.7,5.89a26.76,26.76,0,0,0,4.42,5.14c1.58,1.4,3.65,2.15,5.13,3.67C242.45,220.38,233.91,210,235.42,205.65Zm25.44-52.43c-1.57,1.45-5.89,3.32-7.41,2.95a28.1,28.1,0,0,1,7.27-4.44C261.39,152.36,261.3,152.81,260.86,153.22ZM247.56,143a1.78,1.78,0,0,1,2.85-.35c1.28,1.31,2.74,1.16,4.25,1.16s3.23,0,4.84,0c.56,0,1.24-.08,1.21,1.36-2.14,0-4.24,0-6.34,0-1.36,0-2.67-.2-3.73,1.2-.73,1-2.36.63-3.14-.28A2.88,2.88,0,0,1,247.56,143ZM318,156.61c-2.75-.37-4.71-2.57-7.24-3.47.2-1.43.2-1.43,2.16-.87a7.25,7.25,0,0,0,3.12,1.79c.4-.62.89-.57,1.39-.15s.42.68,0,1C317.58,155.38,318.45,155.54,318,156.61Zm6.49-10.52c-1.22.95-2.44,1.25-3.61-.05a1.84,1.84,0,0,0-1.6-.45c-1.51,0-3,0-4.54,0-1-.69-2.33,0-3.56-.75.68-1.67,2.15-.65,3.12-1,1.32,0,2.64,0,4,0a3.13,3.13,0,0,0,2.91-1.07c1-1.19,2.24-.71,3.3.19A3,3,0,0,1,324.45,146.09Zm12.3,61.78a20,20,0,0,1-4.27,7.36,24.07,24.07,0,0,1-6.64,5c-.56.31-1.29,1-1.93-.39a21.06,21.06,0,0,0,12.32-14.05C337.53,206.48,336.94,207.26,336.75,207.87Z"/><path class="cls-15" d="M319.79,57.47c-2.85.11-2.84.12-3.85,3.09-.35,1-.8,2-1.2,3.07a1.25,1.25,0,0,1-1.14.93c-.92-.59-.93-1.59-1.07-2.5q-.45-2.85-.84-5.68a2.36,2.36,0,0,0-2.49-2.26,28.45,28.45,0,0,1-13.11-4.8,54,54,0,0,1-7.45-5.87,48.35,48.35,0,0,0-8.17-6.35c-4.73-2.81-8-2.52-12.45,1.74a17,17,0,0,0-3.29,5.2c-1.28,2.65-2.56,5.29-4.81,7.32A3.28,3.28,0,0,0,259,54q0,3.65,0,7.3a7.55,7.55,0,0,1-.64,3.48c-1.78-.38-2-1.89-2.52-3.09s-1-2.59-1.45-3.74c-.91-.65-2.11.29-2.71-.84-.08.64-.55,1-1,1.36a6.64,6.64,0,0,0-2.25,4.38,17.38,17.38,0,0,0,1.85,9.58c1.72,3.39,4.17,6,8.24,6.52.76.1,1.29.37,1.35,1.16.15,2.09,1.23,3.89,1.8,5.84.5,1.27,1.46,2.38,1.38,3.87.83.21,1,1,1.39,1.6a22.11,22.11,0,0,0,3.16,4.2,4.71,4.71,0,0,1,1.59,4.07,125.89,125.89,0,0,1-1.05,13.57,4.86,4.86,0,0,0,1.54,1.52c4,3,8.14,5.65,11.92,8.88,1.24,1,2.15,2.64,3.92,3a5.12,5.12,0,0,1-.45-2.78c0-1.75,0-3.51,0-5.27a2.3,2.3,0,0,0-.72-1.93,2.2,2.2,0,0,1-.05-3.11,2.58,2.58,0,0,1,3.41.09,2.25,2.25,0,0,1-.11,3,2.4,2.4,0,0,0-.77,2.13v7c1.52-.39,2.22-1.83,3.4-2.66,3.44-2.42,6.89-4.85,10.23-7.4,1.07-.82,2.44-1.32,3.15-2.59a62.43,62.43,0,0,1-.91-9.61c-5,3.5-10.24,5.55-16.26,4.73-5.65-.77-10-4-14.16-7.55.93-.43,1.5.13,2.11.49,7.95,4.83,15.78,4.25,23.44-.62a26.49,26.49,0,0,0,9.76-10.54c.23-.46.49-.41.83-.43.49-1.27.45-2.81,1.81-3.65.06-2.23,1.13-4.2,1.68-6.3.25-1,1.23-1.18,2.15-1.17A5.27,5.27,0,0,0,317.66,77,16.37,16.37,0,0,0,321,73.29a17.26,17.26,0,0,0,2.46-7.43A8.79,8.79,0,0,0,319.79,57.47Zm-68,7c1.17-1,1.89-.34,2.47.19,2.19,2,3.72,4.38,3.6,7.55C256.29,69.24,255.28,66,251.79,64.42Zm54.75-3.59c-.45.65-.92.25-1.36.05a13.53,13.53,0,0,0-9.46-.51,6.59,6.59,0,0,1-2.14.48,1.8,1.8,0,0,1-1.68-1.21,1.3,1.3,0,0,1,.72-1.67c3.42-1.9,10.84-1.72,13.91,2.48C306.6,60.54,306.54,60.72,306.54,60.83Zm-11,9.17c0-1.88.95-3.59,2.12-3.69s2.42,1.56,2.49,3.61-.93,3.51-2.23,3.54S295.54,71.89,295.51,70ZM264.9,60.82c-.31-.74.24-1.07.67-1.45,2.92-2.6,9.19-3.38,12.69-1.58.84.43,1.54,1,1.13,2a1.67,1.67,0,0,1-2.32,1,27.49,27.49,0,0,0-3.16-.88,14.37,14.37,0,0,0-7.15.55C266.17,60.73,265.6,61.18,264.9,60.82Zm22.43,20.91a4.84,4.84,0,0,1-5-.07.72.72,0,0,1-.3-.3,1.22,1.22,0,0,1,0-.44c.74-.5,1.4.12,2.1.18,2.62.27,4-.9,3.69-3.53-.38-3.36-1.5-6.58-2.06-9.91-.15-.89-1-1.84-.3-2.8.75,0,.9.39,1,.81.89,3.94,1.82,7.87,2.6,11.84A3.64,3.64,0,0,1,287.33,81.73Zm-11.24-12c.13,1.94-.95,3.77-2.26,3.78s-2.42-1.74-2.35-3.72,1.18-3.54,2.39-3.48S276,67.81,276.09,69.69Zm1.05,17.17a1,1,0,0,1,.95-.43c3.29.16,6.6-.3,9.88.38a6,6,0,0,0,2.84-.12,3.19,3.19,0,0,1,2.55,0c.51,1.51-.68,2.24-1.54,2.87-1.95,1.45-3.67,3.54-6.56,2.93-3.55,0-6.14-1.86-8.42-4.32C276.36,87.71,276,87.08,277.14,86.86Zm36.77-14.54c-.76-2.25.92-5.9,3.34-7.76.64-.5,1.33-1.47,2.56-.31C316.45,66,315.17,69.12,313.91,72.32Z"/><path class="cls-16" d="M319.79,57.47c-2.85.12-2.84.12-3.84,3.09-.36,1-.8,2-1.21,3.08a1.24,1.24,0,0,1-1.13.92c-.93-.59-.94-1.58-1.08-2.51-.29-1.89-.58-3.78-.84-5.67a2.36,2.36,0,0,0-2.48-2.26,28.48,28.48,0,0,1-13.12-4.79,53.94,53.94,0,0,1-7.44-5.87,49.34,49.34,0,0,0-8.17-6.36c-4.74-2.8-8-2.52-12.46,1.75A17,17,0,0,0,264.73,44c-1.28,2.65-2.56,5.3-4.8,7.32A3.28,3.28,0,0,0,259,54c0,2.43,0,4.86,0,7.28a7.68,7.68,0,0,1-.63,3.49c-1.78-.38-2-1.88-2.53-3.09s-1-2.58-1.45-3.74c-.91-.65-2.11.3-2.71-.84a77.24,77.24,0,0,1-2.09-14.36,33.19,33.19,0,0,1,1.5-12.61c2.43-6.95,7.16-11.37,14.54-12.53a5.51,5.51,0,0,0,4.28-2.91c3.35-5.58,8.18-8.95,14.84-9.26a22,22,0,0,1,13,3.57c1.55,1,3,2.11,4.46,3.22,2.87,2.18,5.63,4.51,8.57,6.57,6.63,4.65,9.7,11.21,10.53,19A55.48,55.48,0,0,1,319.79,57.47Z"/><path class="cls-17" d="M218,317a3.48,3.48,0,0,1,2.35.28A243.79,243.79,0,0,0,256,324.57a236.66,236.66,0,0,0,38.73,2.06c17.08-.53,34-2.3,50.66-6.47,2.27-.57,4.52-1.29,6.77-2,.56-.16,1.09-.5,1.69-.15.1,2,.78,3.89.63,5.9l-12,3a28.59,28.59,0,0,0,4.35,8.69,14.86,14.86,0,0,0,5.71,4.69c.63.28,1.2.58,1,1.44-4.28-.29-9.39-5.78-12.53-14.44-4.73.71-9.47,1.46-14.22,2.15-3,.42-5.93.85-8.92,1.12a208.66,208.66,0,0,1-27,.83c-6-.25-12-.5-18-1.13a267.91,267.91,0,0,1-30.72-5,226,226,0,0,1-24-7Z"/><path class="cls-18" d="M230.28,324.24c1.35,5.79-6.73,17.5-12.05,17.24,1.82-1.92,4.21-2.71,5.65-4.58a34,34,0,0,0,3.82-6.13C228.71,328.65,228.81,326.18,230.28,324.24Z"/><path class="cls-18" d="M286.08,369.93c-.16-.21-.06-.63-.5-.6.09-1-.6-1.38-1.29-1.85-3.38-2.31-7-4.21-10.53-6.3-1.19-.7-2.35-1.46-3.54-2.19-.42-.26-.63-.57-.4-1.05.6-.43,1,0,1.42.26,4.56,2.63,9.12,5.25,13.63,7.95C286.73,367.26,286.77,367.59,286.08,369.93Z"/><path class="cls-19" d="M326.18,191.56a20.28,20.28,0,0,1-6.12,14.73c-1.6,1.63-3,3.58-5.4,4.27-.62-.4-1.21-.84-1.85-1.18a15.2,15.2,0,0,1-7.44-8.22,5.82,5.82,0,0,0-4.67-3.84,3.36,3.36,0,0,0-1.41-.58l-11-3.36a8.9,8.9,0,0,1-3.17-1.5,1.58,1.58,0,0,1-.6-1.76c.2-.7.78-.79,1.4-.81a26.64,26.64,0,0,1,5.5.21q4.82.63,9.64,1.15c.56.06,1.32.45,1.77-.66a25.08,25.08,0,0,0-5.06-1.95c-4.25-1.22-8.54-2.22-12.86-3.11a16.85,16.85,0,0,1-4.6-1.49c-1.35-.71-2.2-2.05-1.84-3,.55-1.38,1.8-1.35,3-1.27,2.87.18,5.73.44,8.59.6,4.36.24,8.56,1.37,12.84,2.06.66.11,1.41.63,2-.18,0-.61-.43-.73-.85-.88a103.58,103.58,0,0,0-11.23-3.91c-3.07-.76-6.16-1.42-9.23-2.16a10.48,10.48,0,0,1-4.23-1.81,2.11,2.11,0,0,1,1-3.89,5.1,5.1,0,0,1,1.1-.08,76.83,76.83,0,0,1,16.22,1.63c3.57.82,7.11,1.83,10.68,2.7.69.16,1.49.59,2.21,0-.12-.27-.14-.45-.24-.52a1.14,1.14,0,0,0-.59-.25c-2.18,0-3.14-1.5-4-3.23a11.54,11.54,0,0,0-6.48-6c-1.77-.7-3.51-1.5-5.23-2.33a7.24,7.24,0,0,1-3.07-2.46,2.28,2.28,0,0,1-.24-2.31c.43-.92,1.24-.94,2.06-.89a14.72,14.72,0,0,1,1.75.24,70.74,70.74,0,0,1,10.38,2.9c1.54.85,3.26,1.46,4.46,2.79,3.29,3.65,6.61,7.31,8.84,11.76.27.55.46,1.12,1.25.94a6.46,6.46,0,0,0,.32,2.34c1.08,2.88,1.83,5.88,3.23,8.64A16.05,16.05,0,0,0,326,190.7Z"/><path class="cls-20" d="M287.65,194.42c-1.33,1.49-3.24,1.39-4.54,2.45l-.88.45a.63.63,0,0,0-.9,0l0,0a50.25,50.25,0,0,0-9.07,2.45,11,11,0,0,0-5.21,3.5,25.59,25.59,0,0,1-8.06,6.32,3.62,3.62,0,0,0-1.44,1c-2.54-.64-4.24-2.53-5.94-4.27-3.54-3.61-5.25-8.17-6.13-13.08a9.73,9.73,0,0,1,0-1.53c.58-.33.45-.82.29-1.32.92-.05,1.14-.83,1.44-1.47,1.91-4,3.71-8.1,5.33-12.25.57-1.5,1.16-3,1.74-4.48a1.4,1.4,0,0,0,1.38-.83c.52-.87,1.08-1.71,1.62-2.56a7.51,7.51,0,0,0,2-1.64c5-4.72,10.62-8,17.51-9a54.4,54.4,0,0,1,7.64-.82c1,0,2.09.21,2.51,1.4a2.35,2.35,0,0,1-.78,2.58c-.2.2-.4.41-.59.63a36.24,36.24,0,0,1-7.28,2.51,18.83,18.83,0,0,0-12,8.49c-1,.32-2.16,0-2.95.89.21.71.6.86,1.19.69l2.76-.76a57.36,57.36,0,0,1,9.73-2.22c1.51,3.79,5.21,3.87,8.87,4.94-6.28,2-12.27,3.33-17.47,6.73,3.08.14,6-.6,9.13-.93,2.15,3.49,6.27,3.06,9.81,4.53a13.45,13.45,0,0,1-2.69.87A96.28,96.28,0,0,0,272.79,191c-.65.22-1.47.24-1.6,1.25a3.29,3.29,0,0,0,2.19.19c2.79-.22,5.57-.48,8.36-.71.71-.06,1.44-.31,2.07.34A11.29,11.29,0,0,0,287.65,194.42Z"/><path class="cls-18" d="M317.39,101.08a14.41,14.41,0,0,1-2.2,3,52.81,52.81,0,0,1-11.54,9.07,62.43,62.43,0,0,1-.91-9.61c-5,3.5-10.24,5.55-16.26,4.73-5.65-.77-10-4-14.16-7.55.93-.43,1.5.13,2.11.49,7.95,4.83,15.78,4.25,23.44-.62a26.49,26.49,0,0,0,9.76-10.54c.23-.46.49-.41.83-.43l2.63,1a15.69,15.69,0,0,1,5.09,3A5.64,5.64,0,0,1,317.39,101.08Z"/><path class="cls-21" d="M319.53,174c-.79.18-1-.39-1.25-.94-2.23-4.45-5.55-8.11-8.84-11.76-1.2-1.33-2.92-1.94-4.46-2.79l.15-.81c.41,0,.65-.21.66-.68.09-6.76.27-13.52.27-20.28,0-3.1-1.75-4.76-4.87-4.78q-15.44-.06-30.88,0c-2.63,0-4.43,1.62-4.46,4.18-.1,7.94,0,15.87.26,23.81,0,.06.06.13.09.18s.16,0,.22,0l1.62-.65a48.84,48.84,0,0,1,16.11-3.26c2.13-.11,3.39.73,3.89,2.22s-.17,2.73-1.91,4l-.6-.56c.19-.22.39-.43.59-.63a2.35,2.35,0,0,0,.78-2.58c-.42-1.19-1.47-1.39-2.51-1.4a54.4,54.4,0,0,0-7.64.82c-6.89,1-12.55,4.26-17.51,9a7.51,7.51,0,0,1-2,1.64l-.95-.19a42.42,42.42,0,0,1,6.45-5.6c.69-.54,1.36-1.11,2.12-1.73,0-2.67,0-5.37,0-8.08,0-5.57,0-11.15-.13-16.71a8.37,8.37,0,0,1,1.94-6.29l.33,0a8.36,8.36,0,0,1,4.24-.89c9.9,0,19.8-.13,29.7.12a15,15,0,0,0,7.26-1.45c1.71-.83,3.58-1.32,5.23-2.28a1,1,0,0,1,.8.9c-2.78,1.48-5.79,2.4-8.8,3.82,1.82,1.89,1.85,4.22,1.83,6.58a17.8,17.8,0,0,0,.07,3.72,71.52,71.52,0,0,0-.15,8A33.39,33.39,0,0,0,307,154c0,.22-.07.43-.11.65-.47,2.53.2,4.44,2.85,5.3l1.7,1.62a19.79,19.79,0,0,0,2.49,3.13,37.79,37.79,0,0,0,3.66,4.61C318.17,170.9,319.53,172.15,319.53,174Z"/><path class="cls-17" d="M269.22,99.68a125.89,125.89,0,0,1-1.05,13.57A53.58,53.58,0,0,1,257.44,105a16.66,16.66,0,0,1-2.64-3.22c-2.19-3.53-1.7-6.26,1.6-8.78a23.86,23.86,0,0,1,6.68-3.23c.83.21,1,1,1.39,1.6a22.11,22.11,0,0,0,3.16,4.2A4.71,4.71,0,0,1,269.22,99.68Z"/><path class="cls-21" d="M281.74,198.52c-.45,1.2-1.52,1-2.43,1a17.75,17.75,0,0,0-5,.65,14.32,14.32,0,0,0-7.32,4.61,25.13,25.13,0,0,1-5.54,4.79c.58,2.1-.26,3.85-1.46,5.5a18.38,18.38,0,0,1-1.41,2,8.3,8.3,0,0,0-2.28,6.38c.11,3-1,5.92-2.22,8.69a56.12,56.12,0,0,1-4,7.33c-5.26,8.23-10.47,16.51-16.7,24.07a57.93,57.93,0,0,1-17.5,14.59,4.61,4.61,0,0,1-2.23.87.84.84,0,0,1,.43-1.26c12-5.87,19.88-16,27.07-26.76,3.35-5,6.77-10,9.75-15.19,2.62-4.58,4.66-9.33,4.3-14.78a4.74,4.74,0,0,1,1.39-3.15,31.6,31.6,0,0,0,3.75-5.75c-1-.44-2.27-.35-2.79-1.52a3.62,3.62,0,0,1,1.44-1,25.59,25.59,0,0,0,8.06-6.32,11,11,0,0,1,5.21-3.5,50.25,50.25,0,0,1,9.07-2.45.33.33,0,0,1,0,.06.61.61,0,0,0,0,.14.37.37,0,0,0,0,.11h0v0c0,.09,0,.17,0,.26a.52.52,0,0,0,.08.43.36.36,0,0,0,.14.1A1,1,0,0,0,281.74,198.52Z"/><path class="cls-22" d="M381.37,228.77c-.8,1.06-1.31.47-1.77-.12a58.68,58.68,0,0,0-9.61-9.36c-7.81-6.34-15.33-13-23.59-18.8-3.18-2.22-6.62-3.82-10.67-3.4a3.09,3.09,0,0,1-2.17-.92c-1.58-1.19-3.16-2.38-4.78-3.54a4.41,4.41,0,0,0-2.6-1.07l-.15-.86a1.8,1.8,0,0,1,2,.16c.67.45,1.38.81,2.06,1.22,1.21,1,2.44,1.88,3.61,2.87a3.1,3.1,0,0,0,3.06.76c3.28.13,6.25,1.33,9.48,3.19v-7.31l1.65-19.21c.54-.61.26-1.42.52-2.09s.7-.94,1.29-.29l.06.13.14,0a1.94,1.94,0,0,0-.32,1.58,124.92,124.92,0,0,0-1.79,17.67c-.32,2.87-.41,5.76-.53,8.65a2.3,2.3,0,0,0,1.53,2.54l7.24,5.66a110.31,110.31,0,0,0,8.73,7.13l.45.46c2,2.1,4.34,3.53,7.42,3.14,2.89.82,5.81,1.61,7.71,4.3-2.81-.92-5.25-2.91-8.61-2.84.58,1.77,2.08,2.43,3.07,3.51s2.28,2.29,3.39,3.46S380.3,227.61,381.37,228.77Z"/><path class="cls-22" d="M245.41,191.66a3.14,3.14,0,0,0-2.2.88,32.29,32.29,0,0,0-3.88,2.89,6,6,0,0,1-4.93,1.78,11.61,11.61,0,0,0-6.69,1.89,62.89,62.89,0,0,0-9.82,7.1c-5.63,4.73-11.64,9-17.12,13.92a85,85,0,0,0-8.29,8.25c-.5.59-.51.59-2,.8,3-4.36,6.86-7.43,10.52-11-2-.22-3.48.58-5,1.08s-2.76,1.6-4.21,2.21c-.77-.76-.16-1.11.3-1.45a16.37,16.37,0,0,1,8.56-3.23,8.35,8.35,0,0,0,4.89-2.12c5.91-4.74,11.69-9.65,17.82-14.11a2.76,2.76,0,0,0,1.13-2.82c-.47-8.75-.92-17.49-2.12-26.17a2.71,2.71,0,0,1-.06-1.52c0-.12.2-.19.38-.37.92.37.81,1.28.88,2,.5,4.6,1,9.21,1.37,13.83.32,3.89.49,7.78.73,11.68,0,.43.12.86.18,1.32a5.08,5.08,0,0,0,2.25-.91,12.87,12.87,0,0,1,6.8-1.53,4.27,4.27,0,0,0,3.39-1.18,40.66,40.66,0,0,1,4.94-3.72,3.19,3.19,0,0,1,2.44-.77C245.86,190.84,246,191.33,245.41,191.66Z"/><path class="cls-2" d="M274.23,126.92c-1.14,0-1.33-1-1.76-1.68-3-4.73-10.32-4.45-13.52-.47a1.48,1.48,0,0,0-.34,1c-1.12-.1-.9.59-.75,1.25-1.35,1.84-1.1,3.77-.39,5.77s2.46,3.15,4.17,4.12c-.45,1.57-1.25,1-1.91.61a8.9,8.9,0,0,1-4.07-9.85c.11-.49.2-1,.3-1.49a1,1,0,0,0,.58-1.23l3.32-3.46c.2-.81-.34-1.4-.53-2.09-.6-.46-1.41-.3-2-.85a2.35,2.35,0,0,1-.76-2.76,2.37,2.37,0,0,1,2.54-1.27,2.08,2.08,0,0,1,1.66,2.47,3.38,3.38,0,0,0,.75,3.28,4,4,0,0,0,2.55,0c4.4-1,8.32,1.93,10,4.52C274.41,125.44,274.82,126.13,274.23,126.92Z"/><path class="cls-2" d="M316.49,130.61a9.2,9.2,0,0,1-5.34,7.46c-.75-.94-.34-1.36.33-1.89,1.74-1.39,3.27-2.89,3.42-5.37a9.78,9.78,0,0,0-.7-4.23,1,1,0,0,0-.8-.9c-.64-1.86-2.28-2.7-3.89-3.3-3.79-1.44-8.48-.84-10.7,3.74a1.74,1.74,0,0,1-.79.85c-1-.16-1-.73-.59-1.55a9.57,9.57,0,0,1,10.46-5.09c.64.15,1.28.28,2,.43a2.77,2.77,0,0,0,1-3.41,2.1,2.1,0,0,1,1.7-2.83,2.18,2.18,0,0,1,2.45,1,2.36,2.36,0,0,1-1.2,3.13c-1.34.72-1.34.72-2.15,2.94,1.48.77,2.31,2.29,3.62,3.33a.93.93,0,0,0,.76,1.19C315.93,127.64,316.7,129.08,316.49,130.61Z"/><path class="cls-15" d="M287.64,116.66a2.4,2.4,0,0,0-.77,2.13v7a1.34,1.34,0,0,1-1.32.87,5.12,5.12,0,0,1-.45-2.78c0-1.75,0-3.51,0-5.27a2.3,2.3,0,0,0-.72-1.93,2.2,2.2,0,0,1-.05-3.11,2.58,2.58,0,0,1,3.41.09A2.25,2.25,0,0,1,287.64,116.66Z"/><path class="cls-2" d="M324.45,146.09c-1.22.95-2.44,1.25-3.61-.05a1.84,1.84,0,0,0-1.6-.45c-1.51,0-3,0-4.54,0-1-.69-2.33,0-3.56-.75.68-1.67,2.15-.65,3.12-1,1.32,0,2.64,0,4,0a3.13,3.13,0,0,0,2.91-1.07c1-1.19,2.24-.71,3.3.19A3,3,0,0,1,324.45,146.09Z"/><path class="cls-2" d="M260.71,145.21c-2.14,0-4.24,0-6.34,0-1.36,0-2.67-.2-3.73,1.2-.73,1-2.36.63-3.14-.28a2.88,2.88,0,0,1,.06-3.09,1.78,1.78,0,0,1,2.85-.35c1.28,1.31,2.74,1.16,4.25,1.16s3.23,0,4.84,0C260.06,143.86,260.74,143.77,260.71,145.21Z"/><path class="cls-22" d="M247.67,220.35c-5.22,0-13.76-10.31-12.25-14.7,1.17,1.85,1.48,4.08,2.7,5.89a26.76,26.76,0,0,0,4.42,5.14C244.12,218.08,246.19,218.83,247.67,220.35Z"/><path class="cls-22" d="M331.73,118.27c-.43,1.61-2,1.58-2.92,2.34l-9.7,4.22a8.83,8.83,0,0,0-3.07,1.28.93.93,0,0,1-.76-1.19C320.85,122.94,326.14,120.23,331.73,118.27Z"/><path class="cls-22" d="M256,126.2c-5.29-2.53-10.86-4.47-16.34-7.37,1.26-.92,1.92-.22,2.56,0,4.45,1.89,8.89,3.83,13.33,5.75.33.14.69.22,1,.34A1,1,0,0,1,256,126.2Z"/><path class="cls-22" d="M267,130.18l-.33,0c-2.39-.36-4.53-1.49-6.76-2.34a7.09,7.09,0,0,0-2-.77c-.15-.66-.37-1.35.75-1.25,2.09,1.33,4.52,1.88,6.76,2.87C266.1,129,266.92,129.16,267,130.18Z"/><path class="cls-2" d="M260.86,153.22c-1.57,1.45-5.89,3.32-7.41,2.95a28.1,28.1,0,0,1,7.27-4.44C261.39,152.36,261.3,152.81,260.86,153.22Z"/><path class="cls-2" d="M318,156.61c-2.75-.37-4.71-2.57-7.24-3.47.2-1.43.2-1.43,2.16-.87a7.25,7.25,0,0,0,3.12,1.79,3.12,3.12,0,0,0,1.35.84C317.58,155.38,318.45,155.54,318,156.61Z"/><path class="cls-16" d="M257.21,168.75c-.54.85-1.1,1.69-1.62,2.56a1.4,1.4,0,0,1-1.38.83c-.61-1.93,1.11-2.53,2-3.58Z"/><path class="cls-2" d="M317.35,154.9a3.12,3.12,0,0,1-1.35-.84c.4-.62.89-.57,1.39-.15S317.81,154.59,317.35,154.9Z"/><path class="cls-2" d="M349.61,171.68a1.94,1.94,0,0,1,.32-1.58C350,170.66,351.07,171.43,349.61,171.68Z"/><path class="cls-22" d="M227.23,304.7c.56-.65,1.06-.25,1.52-.16,8,1.68,15.91,3.61,23.93,5.13,17.6,3.32,35.3,4.52,53.14,2.4,11.55-1.37,23-3.6,34.36-5.87,1.37-.27,2.75-1,4.17-.5a1.89,1.89,0,0,1,.09.36.34.34,0,0,1-.06.2c-.79.82-1.91.7-2.88.89-19.77,4-39.54,7.84-59.89,7.08-18-.67-35.55-4.49-53-8.55-.42-.1-.9-.11-1.2-.49A1.54,1.54,0,0,1,227.23,304.7Z"/><path class="cls-21" d="M358.29,278.86a15.91,15.91,0,0,1-5.74-2.68A59.91,59.91,0,0,1,337,261.61a292.86,292.86,0,0,1-16.51-24.48c-3-4.93-5.36-10.15-4.95-16.17a3.75,3.75,0,0,0-1.19-2.52c-.87-1.18-1.82-2.31-2.67-3.51a6,6,0,0,1-1.19-5.45c-1.71-1.62-3.69-3-4.72-5.17-.5-1.06-1.09-2.08-1.56-3.16a2.52,2.52,0,0,0-2.73-1.67c-5.44.1-10.88.06-16.32,0-.88,0-2,.33-2.36-1l17.66-.16c.07-.34.13-.68.2-1a5.82,5.82,0,0,1,4.67,3.84,15.2,15.2,0,0,0,7.44,8.22c.64.34,1.23.78,1.85,1.18-.68,1.13-1.92,1.14-3.08,1.45a11.9,11.9,0,0,0,2.84,4.73,8.15,8.15,0,0,1,2.38,6.13,17.72,17.72,0,0,0,1.76,7.9,46.7,46.7,0,0,0,3.56,6.84c5,7.86,10,15.76,15.74,23.15,5.37,6.94,11.57,12.92,19.5,16.9C357.85,277.9,358.58,278,358.29,278.86Z"/><path class="cls-23" d="M300.5,198.34l-17.65.17h-1.11c-.84-.15-.22-.84-.44-1.22h0c0,.27,0,.55.34.6s.57-.2.56-.58l.88-.45c-.09.69.32.7.8.58a14.55,14.55,0,0,0,4.39-1.9,2.17,2.17,0,0,1,2-.4C293.7,196.25,297.19,197,300.5,198.34Z"/><path class="cls-22" d="M336.75,207.87a20,20,0,0,1-4.27,7.36,24.07,24.07,0,0,1-6.64,5c-.56.31-1.29,1-1.93-.39a21.06,21.06,0,0,0,12.32-14.05C337.53,206.48,336.94,207.26,336.75,207.87Z"/><path class="cls-24" d="M277.14,86.86a1,1,0,0,1,.95-.43c3.29.17,6.6-.29,9.88.38a5.83,5.83,0,0,0,2.84-.12,3.21,3.21,0,0,1,2.56,0c.5,1.52-.69,2.24-1.54,2.88-2,1.43-3.67,3.54-6.56,2.93.25-.89-.48-1-1-1.08A12.69,12.69,0,0,1,277.14,86.86Z"/><path class="cls-18" d="M264.91,60.83c-.32-.74.24-1.08.66-1.46,2.92-2.6,9.19-3.38,12.69-1.58.85.43,1.54,1,1.14,2.05a1.68,1.68,0,0,1-2.33,1,26.94,26.94,0,0,0-3.16-.88,14.21,14.21,0,0,0-7.14.56C266.17,60.73,265.6,61.18,264.91,60.83Z"/><path class="cls-21" d="M306.54,60.84c-.45.65-.91.24-1.36,0a13.53,13.53,0,0,0-9.46-.5,6.79,6.79,0,0,1-2.14.48,1.81,1.81,0,0,1-1.68-1.22,1.32,1.32,0,0,1,.72-1.67c3.43-1.89,10.84-1.72,13.92,2.49C306.6,60.54,306.54,60.72,306.54,60.84Z"/><path class="cls-21" d="M282,80.92c.74-.5,1.4.11,2.09.18,2.63.28,4-.89,3.7-3.52-.38-3.36-1.51-6.58-2.07-9.91-.15-.89-1-1.84-.29-2.81.75-.06.89.39,1,.81.88,4,1.81,7.88,2.59,11.84a3.66,3.66,0,0,1-1.64,4.23,4.86,4.86,0,0,1-5-.07.81.81,0,0,1-.3-.31A1.5,1.5,0,0,1,282,80.92Z"/><path class="cls-18" d="M300.13,69.93c.07,1.93-.93,3.51-2.24,3.54s-2.34-1.58-2.38-3.46.95-3.6,2.13-3.7S300.06,67.87,300.13,69.93Z"/><path class="cls-21" d="M271.48,69.76c.07-1.92,1.19-3.54,2.39-3.49s2.09,1.53,2.22,3.42-.95,3.77-2.25,3.79S271.41,71.74,271.48,69.76Z"/><path class="cls-25" d="M313.91,72.32c-.76-2.24.92-5.89,3.34-7.76.65-.5,1.34-1.46,2.57-.31C316.45,66,315.17,69.12,313.91,72.32Z"/><path class="cls-21" d="M277.14,86.86a12.69,12.69,0,0,0,7.15,4.61c.5.1,1.23.19,1,1.08-3.55,0-6.15-1.87-8.42-4.33C276.37,87.71,276,87.09,277.14,86.86Z"/><path class="cls-21" d="M257.86,72.17c-1.57-2.93-2.57-6.18-6.07-7.75,1.17-1,1.9-.33,2.47.19C256.46,66.62,258,69,257.86,72.17Z"/><path class="cls-25" d="M300.5,198.34c-3.31-1.34-6.8-2.09-10.19-3.19a2.17,2.17,0,0,0-2,.4,14.55,14.55,0,0,1-4.39,1.9c-.48.12-.89.11-.8-.58,1.31-1.06,3.22-1,4.55-2.45a11.31,11.31,0,0,1-3.85-2.34c-.63-.65-1.36-.41-2.07-.35-2.78.24-5.57.5-8.35.72a3.42,3.42,0,0,1-2.19-.19c.12-1,.95-1,1.59-1.26a97.71,97.71,0,0,1,11.87-3.34,13.38,13.38,0,0,0,2.68-.87c-3.54-1.46-7.66-1-9.81-4.53-3.09.33-6,1.07-9.13.94,5.2-3.41,11.2-4.68,17.48-6.74-3.66-1.07-7.36-1.15-8.88-4.93a57.57,57.57,0,0,0-9.73,2.21l-2.76.77c-.58.16-1,0-1.19-.71.79-.86,1.92-.55,2.95-.88a18.88,18.88,0,0,1,12-8.49,35.15,35.15,0,0,0,7.27-2.51l.61.56a7.44,7.44,0,0,1-3.29,1.71c-2,.65-4.08,1.21-6.12,1.83a13.37,13.37,0,0,0-8.13,6.13l8-1.75a1.42,1.42,0,0,0,1.08-.63c1.06-1.75,2.81-2,4.62-2,3.6.14,7.2.37,10.79.57a4.77,4.77,0,0,1,1.31.19c3.54,1.24,7.24,1.86,10.84,2.87.17.14.36.24.51,0,0,0-.13-.21-.2-.32a11.58,11.58,0,0,0-6.87-7c-1.86-.68-3.64-1.56-5.42-2.41a7.65,7.65,0,0,1-3.17-2.66,3.23,3.23,0,0,1-.16-3.54,2.69,2.69,0,0,1,3-1.35,40.13,40.13,0,0,1,12.21,3.46l-.16.81a72,72,0,0,0-10.37-2.92c-.58-.09-1.17-.19-1.75-.23-.82,0-1.64,0-2.06.9a2.24,2.24,0,0,0,.24,2.3A7.21,7.21,0,0,0,294.1,161c1.72.82,3.46,1.63,5.24,2.34a11.52,11.52,0,0,1,6.48,6c.81,1.73,1.77,3.2,3.95,3.23a1.25,1.25,0,0,1,.59.26c.1.07.12.24.24.51-.72.61-1.52.18-2.2,0-3.57-.87-7.11-1.87-10.69-2.7A76.74,76.74,0,0,0,281.5,169a5,5,0,0,0-1.1.09,2.11,2.11,0,0,0-1,3.89,10.58,10.58,0,0,0,4.22,1.81c3.07.74,6.17,1.4,9.23,2.16a104.44,104.44,0,0,1,11.24,3.9c.41.16.85.28.84.89-.57.8-1.33.28-2,.18-4.27-.69-8.48-1.83-12.83-2.07-2.87-.16-5.73-.42-8.59-.6-1.19-.07-2.45-.1-3,1.27-.36.91.49,2.25,1.84,3A16.72,16.72,0,0,0,285,185c4.32.9,8.61,1.9,12.85,3.11a25.4,25.4,0,0,1,5.07,1.95c-.46,1.12-1.21.73-1.78.67-3.21-.35-6.43-.74-9.63-1.16a28.25,28.25,0,0,0-5.51-.22c-.61,0-1.19.12-1.39.83a1.57,1.57,0,0,0,.59,1.76,9.34,9.34,0,0,0,3.17,1.5l11,3.36a3.14,3.14,0,0,1,1.41.58ZM278,190.66c3.9.29,5,0,5.61-1.7-1.94.55-3.89.69-5.58,1.74l-.85.1c.12.06.23.16.34.16S278,190.93,278,190.66Zm6-12.11,11.19.54C291.7,177.78,288.21,175.62,284,178.55Zm3.27,9.44c2.24.23,4.06.84,5.93.26C291.43,187.49,289.62,186.79,287.31,188Z"/><path class="cls-21" d="M282.23,197.32c0,.38-.13.64-.56.58s-.35-.33-.34-.6A.61.61,0,0,1,282.23,197.32Z"/><path class="cls-23" d="M305.24,171.45c-3.6-1-7.3-1.63-10.84-2.87a4.77,4.77,0,0,0-1.31-.19c-3.59-.2-7.19-.43-10.79-.57-1.81-.07-3.56.2-4.62,2a1.42,1.42,0,0,1-1.08.63l-8,1.75a13.37,13.37,0,0,1,8.13-6.13c2-.62,4.1-1.18,6.12-1.83a7.44,7.44,0,0,0,3.29-1.71c1.73-1.3,2.36-2.63,1.9-4s-1.76-2.33-3.89-2.23A49.2,49.2,0,0,0,268,159.49c-.54.22-1.07.44-1.62.65a.52.52,0,0,1-.21,0c0-.06-.1-.13-.1-.19-.23-7.93-.35-15.87-.26-23.8,0-2.56,1.84-4.17,4.47-4.18,10.29,0,20.58-.08,30.87,0,3.13,0,4.87,1.68,4.87,4.77,0,6.76-.17,13.53-.26,20.29,0,.47-.25.64-.66.68a40.13,40.13,0,0,0-12.21-3.46,2.69,2.69,0,0,0-3,1.35,3.23,3.23,0,0,0,.16,3.54,7.65,7.65,0,0,0,3.17,2.66c1.78.85,3.56,1.73,5.42,2.41a11.58,11.58,0,0,1,6.87,7Zm-32.68-30.36a2.65,2.65,0,0,0,2.8-2.47,2.85,2.85,0,0,0-2.66-2.68,2.67,2.67,0,0,0-2.77,2.51A2.62,2.62,0,0,0,272.56,141.09Zm.12,6.74a2.77,2.77,0,0,0,2.73-2.6,2.74,2.74,0,0,0-2.6-2.5,2.68,2.68,0,0,0-2.8,2.5A2.56,2.56,0,0,0,272.68,147.83Zm8-7.5a1.57,1.57,0,0,0-1.79-1.41c-1,0-1.39.74-1.34,1.63a1.46,1.46,0,0,0,1.65,1.4A1.42,1.42,0,0,0,280.66,140.33Z"/><path class="cls-26" d="M284,178.55c4.17-2.93,7.66-.77,11.19.54Z"/><path class="cls-19" d="M278.07,190.7c1.69-1,3.64-1.19,5.58-1.74-.6,1.68-1.71,2-5.61,1.7Z"/><path class="cls-27" d="M287.31,188c2.31-1.2,4.12-.5,5.93.26C291.37,188.83,289.55,188.22,287.31,188Z"/><path class="cls-19" d="M278,190.66c-.05.27-.27.31-.48.3s-.22-.1-.34-.16l.85-.1Z"/><path class="cls-23" d="M305.55,171.13c.07.11.23.27.2.32-.15.24-.34.14-.51,0Z"/><path class="cls-21" d="M272.56,141.09a2.62,2.62,0,0,1-2.63-2.64,2.67,2.67,0,0,1,2.77-2.51,2.85,2.85,0,0,1,2.66,2.68A2.65,2.65,0,0,1,272.56,141.09Z"/><path class="cls-18" d="M272.68,147.83a2.56,2.56,0,0,1-2.67-2.6,2.68,2.68,0,0,1,2.8-2.5,2.74,2.74,0,0,1,2.6,2.5A2.77,2.77,0,0,1,272.68,147.83Z"/><path class="cls-21" d="M280.66,140.33a1.42,1.42,0,0,1-1.48,1.62,1.46,1.46,0,0,1-1.65-1.4c0-.89.34-1.61,1.34-1.63A1.57,1.57,0,0,1,280.66,140.33Z"/><path class="cls-15" d="M272.53,52.48c-1-.12-10.54.36-10.3,3.39s2.3,15.26,4.61,18.89,10.29,18.53,10.29,18.53,5.09,1.58,5.45,1.58,11.14-.12,11.75-.36S300.14,84.94,301,84s7.27-9.45,7.27-9.45L310,60.59l-5.2-4.6L287.3,50.66Z"/></svg>