<svg id="Layer_1" data-name="Layer 1" xmlns="http://www.w3.org/2000/svg" viewBox="0 0 600 400"><defs><style>.cls-1{fill:#f7e2b7;opacity:0.21;}.cls-10,.cls-11,.cls-2,.cls-3,.cls-35,.cls-5,.cls-6,.cls-7,.cls-8,.cls-9{fill:none;}.cls-10,.cls-11,.cls-2,.cls-3,.cls-8,.cls-9{stroke:#161616;}.cls-10,.cls-11,.cls-12,.cls-2,.cls-3,.cls-5,.cls-6,.cls-8,.cls-9{stroke-miterlimit:10;}.cls-2{stroke-width:0.6px;}.cls-11,.cls-3,.cls-35,.cls-5,.cls-6,.cls-8{stroke-linecap:round;}.cls-3{stroke-width:0.63px;}.cls-4{fill:#d44c46;}.cls-12,.cls-5,.cls-6{stroke:#000;}.cls-5{stroke-width:0.89px;stroke-dasharray:3.58;}.cls-6{stroke-width:0.85px;stroke-dasharray:3.38;}.cls-8{stroke-width:0.87px;}.cls-9{stroke-width:0.67px;}.cls-10{stroke-width:0.71px;}.cls-11{stroke-width:0.75px;}.cls-12,.cls-25{fill:#fff;}.cls-12{stroke-width:0.78px;}.cls-13{fill:#f7f7f7;}.cls-14{fill:#c3c3c3;}.cls-15{fill:#353535;}.cls-16{fill:#f8d1cd;}.cls-17{fill:#f5a48c;}.cls-18{fill:#d8d9d9;}.cls-19{fill:#3e3d3e;}.cls-20{fill:#f6a188;}.cls-21{fill:#e87965;}.cls-22{fill:#c0c1c2;}.cls-23{fill:#fcfcfc;}.cls-24{fill:#fdfdfc;}.cls-26{fill:#070707;}.cls-27{fill:#e05554;}.cls-28{fill:#fdfefd;}.cls-29{fill:#2b2b2b;}.cls-30{fill:#f9f6f5;}.cls-31{fill:#08051a;}.cls-32{fill:#e87578;}.cls-33{fill:#454658;}.cls-34{fill:#bfc9e2;}.cls-35{stroke:#08051a;stroke-linejoin:round;stroke-width:0.24px;}.cls-36{fill:#3d3d3d;}</style></defs><title>GP Partner</title><path class="cls-1" d="M35.55,356.8c-11.43-25.92-6-56.22,12.92-77.26,12.66-14.05,28.3-30.37,39-51.68,17.26-34.52-19.88-46-15.69-101s47.6-77.94,77.41-81.6,17.26-.52,40.8-16.74,47.6-8.89,95.2,18.83S377.2,72.51,429,49.49,568.64,60,520.52,155.68s22.49,108.79,35,144.89-59.1,120.82-140.18,85.26S228.12,367,169,376.93,63.88,397.86,43,369.61A66.87,66.87,0,0,1,35.55,356.8Z"/><ellipse class="cls-1" cx="56.87" cy="210.21" rx="25.28" ry="34.2"/><ellipse class="cls-1" cx="535.84" cy="214.44" rx="27.37" ry="40.99" transform="translate(-31.79 110.01) rotate(-11.39)"/><circle class="cls-2" cx="79.57" cy="322.74" r="35.63"/><path class="cls-3" d="M120.7,327.57a33,33,0,0,1-5.4,14.3"/><path d="M78.7,344.87a1,1,0,0,1-.61-.19c-.09-.06-2.26-1.55-5.17-4l-1.09-.93a61.05,61.05,0,0,1-8.93-9.61,1,1,0,0,1,.28-1.39,1.07,1.07,0,0,1,1.45.26,57.69,57.69,0,0,0,8.62,9.27l1.06.9c1.93,1.65,3.55,2.87,4.39,3.47a75.77,75.77,0,0,0,6.45-5.28,63,63,0,0,0,5.37-5.5c.9-1.07,1.62-2,2.25-2.86a1.07,1.07,0,0,1,1.45-.26,1,1,0,0,1,.27,1.39c-.66.92-1.41,1.87-2.35,3a64.41,64.41,0,0,1-5.55,5.69,72.34,72.34,0,0,1-7.28,5.89,1,1,0,0,1-.61.19Z"/><path d="M97.69,322.55a1.24,1.24,0,0,1-.27,0,1,1,0,0,1-.74-1.22,10.88,10.88,0,0,0-1.58-9.82c-2.45-3.39-6.83-3.71-10.12-2.88l-.2.06h0a12.42,12.42,0,0,0-5.29,2.95,1.08,1.08,0,0,1-1.48,0,12.65,12.65,0,0,0-9.57-3.36,8.16,8.16,0,0,0-6.09,3.22,10.85,10.85,0,0,0-1.58,9.82,1,1,0,0,1-.75,1.22,1.06,1.06,0,0,1-1.28-.71,12.86,12.86,0,0,1,1.89-11.46,10.28,10.28,0,0,1,7.62-4.08,15,15,0,0,1,10.5,3.28,14.88,14.88,0,0,1,5.53-2.82l.09,0,.13,0c5.06-1.28,9.8.12,12.37,3.68a12.85,12.85,0,0,1,1.88,11.46,1,1,0,0,1-1,.74Z"/><path class="cls-4" d="M78.48,334.54a1,1,0,0,1-1-.82l-2.22-11.56-1.89,6.89a1,1,0,0,1-.92.75,1.07,1.07,0,0,1-1-.59l-2.12-4.49L68.67,326a1,1,0,0,1-1,.59H57.77a1,1,0,1,1,0-2H67l1.26-2.67a1.12,1.12,0,0,1,1.91,0l1.86,3.93,2.32-8.5a1,1,0,0,1,1.06-.75,1,1,0,0,1,1,.82l2,10.63.51-2.64a1,1,0,0,1,1-.82h2.31l1.31-4a1.06,1.06,0,0,1,2,0l2.16,6.63,2-5.21a1,1,0,0,1,1-.65,1,1,0,0,1,1,.58L93,324.55h6.63a1,1,0,1,1,0,2H92.32a1,1,0,0,1-.95-.59l-.49-1-2.19,5.68a1,1,0,0,1-1,.66h0a1,1,0,0,1-1-.7l-2.08-6.38-.54,1.66a1,1,0,0,1-1,.7H80.89l-1.38,7.17a1,1,0,0,1-1,.82Z"/><path class="cls-5" d="M121.81,118.49l72.56,58.57"/><path class="cls-5" d="M111,294.78,167.49,250"/><path class="cls-6" d="M432.15,168.65l62-56"/><path d="M532.44,91.84a.7.7,0,0,0-.75-.74h-2.23a.74.74,0,0,0,0,1.48h2.23A.7.7,0,0,0,532.44,91.84Z"/><path d="M526.49,94.81a.71.71,0,0,0,.74.75h4.46a.75.75,0,1,0,0-1.49h-4.46A.7.7,0,0,0,526.49,94.81Z"/><circle class="cls-4" cx="540.62" cy="82.91" r="0.74"/><circle class="cls-4" cx="537.65" cy="82.91" r="0.74"/><circle class="cls-4" cx="534.67" cy="82.91" r="0.74"/><circle class="cls-4" cx="503.43" cy="68.78" r="0.74"/><circle class="cls-4" cx="509.38" cy="68.78" r="0.74"/><circle class="cls-4" cx="506.4" cy="68.78" r="0.74"/><path class="cls-4" d="M531,81.42v3a2.19,2.19,0,0,0,2.23,2.23h8.93a2.19,2.19,0,0,0,2.23-2.23v-3a2.19,2.19,0,0,0-2.23-2.23h-8.93A2.19,2.19,0,0,0,531,81.42Zm1.49,0a.7.7,0,0,1,.74-.74h8.93a.7.7,0,0,1,.74.74v3a.7.7,0,0,1-.74.74h-8.93a.69.69,0,0,1-.74-.74Z"/><path d="M510.12,75.23l-1.49-.88V100a3.69,3.69,0,0,0,3.72,3.72H531.7a3.68,3.68,0,0,0,3.71-3.72V86.63h-1.49v2.68a18,18,0,0,0-5.28-2.46c-.59-.22-1.26-.44-1.85-.67a3.06,3.06,0,0,1-.83-.59c3-2.31,5-6.84,5-10.94a8.93,8.93,0,0,0-17.85,0c0,4.1,2,8.71,5,10.94a2,2,0,0,1-.82.59,11.67,11.67,0,0,1-1.86.67,18.13,18.13,0,0,0-5.28,2.46Zm19.12,1.66c-5.06-.15-6.4-5.14-6.47-5.36A.76.76,0,0,0,522,71a.73.73,0,0,0-.75.6c-.08.22-1.41,5.2-6.47,5.35a11.17,11.17,0,0,1-.22-2.23,7.44,7.44,0,1,1,14.87,0A10,10,0,0,1,529.24,76.89ZM522,85.66c-3.06,0-5.73-3.42-6.85-7.21A8.19,8.19,0,0,0,522,73.69a8.17,8.17,0,0,0,6.83,4.76C527.83,82.17,525.07,85.66,522,85.66Zm4.23,2a4.61,4.61,0,0,1-4.16,2,4.94,4.94,0,0,1-4.24-2l.08-.07a3.41,3.41,0,0,0,1.41-1.12,5.69,5.69,0,0,0,5.35,0,4.81,4.81,0,0,0,1.49,1.19ZM510.12,99.28h23.8V100a2.18,2.18,0,0,1-2.22,2.23H512.35a2.19,2.19,0,0,1-2.23-2.23Zm0-8c1.41-1.63,3.79-2.46,5.73-3l.52-.15a6.1,6.1,0,0,0,5.66,3,6,6,0,0,0,5.65-3l.52.15c1.93.67,4.31,1.42,5.72,3v6.47h-23.8Zm-1.49-30V65h1.49V63.57h23.8V79.19h1.49V61.34a3.68,3.68,0,0,0-3.71-3.72H512.35A3.69,3.69,0,0,0,508.63,61.34Zm1.49,0a2.19,2.19,0,0,1,2.23-2.23H531.7a2.19,2.19,0,0,1,2.22,2.23v.74h-23.8Z"/><path class="cls-4" d="M499.71,67.29v3a2.19,2.19,0,0,0,2.23,2.24h4.24l2.45,1.85,1.49.88V72.5h.74a2.2,2.2,0,0,0,2.24-2.24v-3a2.2,2.2,0,0,0-2.24-2.23h-.74v0h-1.49v0h-6.69A2.19,2.19,0,0,0,499.71,67.29Zm1.48,0a.7.7,0,0,1,.75-.74h8.92a.7.7,0,0,1,.75.74v3a.71.71,0,0,1-.75.75h-1.49a.7.7,0,0,0-.74.74v.75l0,0-1.76-1.32a1,1,0,0,0-.44-.15h-4.47a.71.71,0,0,1-.75-.75Z"/><line class="cls-7" x1="533.92" y1="79.19" x2="533.51" y2="79.19"/><line class="cls-7" x1="535.55" y1="79.19" x2="535.41" y2="79.19"/><line class="cls-7" x1="535.67" y1="86.63" x2="535.41" y2="86.63"/><polyline class="cls-7" points="510.12 75.23 510.2 75.28 510.2 73.48 510.12 73.43 508.63 72.49 508.61 72.48 508.54 71.68"/><line class="cls-7" x1="508.63" y1="65.04" x2="507.8" y2="65.04"/><line class="cls-7" x1="510.5" y1="65.04" x2="510.12" y2="65.04"/><path class="cls-8" d="M551.32,46.15a51.62,51.62,0,0,1,12.3,14.18"/><circle class="cls-9" cx="522.51" cy="80.94" r="40.06"/><circle class="cls-10" cx="86.24" cy="84.35" r="42.24"/><path class="cls-11" d="M135,90.08A39.09,39.09,0,0,1,128.6,107"/><path class="cls-4" d="M90.06,99.44c0-.2-.08-.42-.13-.62h0a7.66,7.66,0,0,0-.8-2.24h-.11a14.24,14.24,0,0,0-1.13-1.79l0-.05a12.21,12.21,0,0,0-9.75-4.85h-.56a1.51,1.51,0,0,0-.3,0h-.17a.68.68,0,0,1-.2,0l-.2,0-.16,0-.24,0-.13,0-.23,0H75.8l-.25.05-.1,0-.27,0h0l3.32-5.76a8.27,8.27,0,0,0,1.11-4.15,8.36,8.36,0,0,0-4.15-7.21L75.11,73l-.1,0a.84.84,0,0,0-.21-.11l-.12,0-.21-.1-.42-.15s0,0,0,0A8.52,8.52,0,0,0,71.66,72h-.43a8.34,8.34,0,0,0-7.18,4.15l-4.43,7.69-4.44,7.69a8.18,8.18,0,0,0-.91,2.32c-.05.27-.1.53-.13.8a2.69,2.69,0,0,0,0,.4,5.49,5.49,0,0,0,0,.81,3.28,3.28,0,0,0,0,.43,7.69,7.69,0,0,0,.49,2.3c.09.21.17.41.27.63a.58.58,0,0,1,.05.11,8.3,8.3,0,0,0,3.32,3.56l.12.06a.52.52,0,0,1,.11.07l.09,0a.8.8,0,0,1,.16.08l.05,0,.2.1h0a8.24,8.24,0,0,0,3.4.73,8.56,8.56,0,0,0,3.49-.76l0,0h0A12.24,12.24,0,0,0,78,114.38h.1a12.24,12.24,0,0,0,11.79-8.95h0c.14-.65.34-2,.39-2.24h0v0c0-.15,0-.32,0-.47v-.08a3.77,3.77,0,0,0,0-.48A12,12,0,0,0,90.06,99.44ZM66,77.3a6.12,6.12,0,0,1,5.28-3,5.66,5.66,0,0,1,1.35.16,6.09,6.09,0,0,1,3.89,9l-3.87,6.71L62.13,84Zm2,17.93a.74.74,0,0,0-.09.12s0,.07-.06.1a.22.22,0,0,0,0,.08.29.29,0,0,0-.07.12l0,.07-.07.11a.27.27,0,0,0-.06.12.13.13,0,0,0,0,.07l-.07.11a.88.88,0,0,1-.07.12.08.08,0,0,1,0,0,0,0,0,0,1,0,0,.45.45,0,0,1-.06.12,1.5,1.5,0,0,0-.09.18.53.53,0,0,0-.06.14,1.74,1.74,0,0,0-.1.19l0,.12a0,0,0,0,1,0,0s0,0,0,0a.38.38,0,0,1-.06.13.41.41,0,0,1,0,.12.17.17,0,0,0,0,.06l-.07.15a.23.23,0,0,1,0,.09.41.41,0,0,0,0,.08l-.05.15s0,0,0,.08a.38.38,0,0,1,0,.1s0,.1,0,.17,0,0,0,0a.29.29,0,0,0,0,.1l-.08.23s0,.07,0,.1a.86.86,0,0,0-.06.23.1.1,0,0,0,0,.07c0,.16-.08.31-.12.48a.17.17,0,0,0,0,.07,1.89,1.89,0,0,0-.05.23s0,.08,0,.11a0,0,0,0,1,0,0,.69.69,0,0,1,0,.2.27.27,0,0,1,0,.12v0a.84.84,0,0,1,0,.18v0a.1.1,0,0,1,0,.07.59.59,0,0,1-.18.13s0,0,0,0l-.15.1s0,0-.07,0a.41.41,0,0,1-.13.08s0,0-.08,0a.88.88,0,0,0-.12.07l-.08,0-.12.07-.11,0-.09,0-.13,0s0,0-.07,0l-.14,0a.06.06,0,0,1,0,0,6.12,6.12,0,0,1-4,0l-.19-.08h0a1,1,0,0,0-.17-.07s0,0,0,0a.4.4,0,0,1-.13-.07s0,0-.06,0a.42.42,0,0,0-.14-.06.07.07,0,0,0-.06,0l-.19-.1a6.1,6.1,0,0,1-2.22-8.3L61,86l10.33,6-.1.07a.45.45,0,0,0-.13.1l0,0-.1.07-.13.09-.07,0-.1.08-.1.08-.06.05-.12.09a.6.6,0,0,1-.08.08.28.28,0,0,0-.09.07l-.09.08a.55.55,0,0,1-.09.07s0,0-.08.08l-.1.1-.07,0s0,0-.08.08l-.12.1-.25.25s0,0,0,0a.86.86,0,0,0-.13.14.9.9,0,0,0-.09.1h0L69,94s0,.06-.08.09l0,0a.75.75,0,0,1-.11.13,1.25,1.25,0,0,0-.09.12.6.6,0,0,0-.08.08s0,0,0,.07a.4.4,0,0,0-.1.12l0,0a.62.62,0,0,1-.08.12.52.52,0,0,0-.08.11s0,0,0,0a.74.74,0,0,0-.09.12l-.08.1A.17.17,0,0,1,68,95.23Zm8.9,16.83a10.06,10.06,0,0,1-8.79-9.93c0-.29,0-.57,0-.85,0-.1,0-.2,0-.3s0-.38.08-.56v0c0-.06,0-.15,0-.21a.18.18,0,0,1,0-.09,1.35,1.35,0,0,1,0-.18.29.29,0,0,0,0-.1c0-.06,0-.11,0-.16a.7.7,0,0,1,0-.14l0-.15a1.11,1.11,0,0,0,0-.13l0-.15.05-.13,0-.13,0-.15a1.21,1.21,0,0,0,0-.14l0-.15.05-.11a1,1,0,0,0,.07-.17A.73.73,0,0,0,69,98s0-.1.08-.14a.43.43,0,0,0,.05-.12,1.09,1.09,0,0,0,.08-.15l0-.1a1.31,1.31,0,0,1,.09-.17.37.37,0,0,1,.06-.1.6.6,0,0,1,.09-.15.37.37,0,0,1,.06-.1c0-.06,0-.11.09-.16a.27.27,0,0,0,.06-.1l.1-.15.07-.1a.73.73,0,0,0,.1-.13l.08-.1a1.3,1.3,0,0,0,.1-.15s0-.07.08-.08l.1-.15a.9.9,0,0,1,.09-.1,1.1,1.1,0,0,1,.11-.14l.09-.08a.63.63,0,0,1,.11-.13.28.28,0,0,1,.09-.1l.11-.12.09-.08.13-.13s.06,0,.08-.09.08-.08.13-.11l.1-.09a.49.49,0,0,1,.14-.11.28.28,0,0,1,.1-.09l.11-.11a.27.27,0,0,0,.12-.09l.13-.1.1-.08a.45.45,0,0,0,.13-.1.67.67,0,0,0,.12-.06l.15-.1s.07,0,.12-.09a.74.74,0,0,1,.13-.08,1.25,1.25,0,0,1,.12-.08l.14-.07s0,0,0,0a2.82,2.82,0,0,1,.38-.21l.1-.05L74,93h0a9.63,9.63,0,0,1,2.89-.8Zm2.24,0V92.18h0a2.76,2.76,0,0,1,.43.07h0c.15,0,.28,0,.42.06l0,0a2.48,2.48,0,0,1,.41.08.06.06,0,0,0,0,0,.7.7,0,0,1,.12,0,1.6,1.6,0,0,1,.26.08s0,0,.07,0a2.11,2.11,0,0,1,.38.12h.07l.36.15s.05,0,.07,0a3,3,0,0,1,.37.17h0c.11.07.24.12.36.19h0a3.84,3.84,0,0,1,.35.18l0,0,.34.2s0,0,0,0a1.81,1.81,0,0,1,.32.22l.07,0,.31.23,0,0,.3.23,0,0,.3.25.05,0a2.4,2.4,0,0,0,.28.27s0,0,0,.05.18.18.28.28,0,0,0,0,.17.21.27.31a.07.07,0,0,1,0,0l.25.31s0,0,0,0l.23.32,0,.07.2.31a.21.21,0,0,0,0,.07,2.11,2.11,0,0,1,.18.33s0,0,0,.07.13.21.2.33,0,0,0,.07a3,3,0,0,1,.18.36,0,0,0,0,0,0,0,2.83,2.83,0,0,0,.17.4l.15.4v0a3.7,3.7,0,0,1,.13.4s0,0,0,0l.1.4a.56.56,0,0,1,0,.07,2.11,2.11,0,0,1,.09.38s0,0,0,.07,0,.26.07.41a.06.06,0,0,0,0,0c0,.15,0,.28,0,.42v.06c0,.14,0,.29,0,.44v1s0,.06,0,.09,0,.25,0,.39,0,.1,0,.15a1.93,1.93,0,0,1,0,.33,1.52,1.52,0,0,0,0,.21l0,.25a9.67,9.67,0,0,1-1.62,3.79A9.93,9.93,0,0,1,79.15,112.07Z"/><path d="M93.07,97.71A1.12,1.12,0,0,1,92,98.82H90a7.66,7.66,0,0,0-.8-2.24H92A1.12,1.12,0,0,1,93.07,97.71Z"/><path d="M103.55,56.82H76.41a4.63,4.63,0,0,0-4.63,4.63V72h-.12a8.52,8.52,0,0,1,2.36.45v-11a2.4,2.4,0,0,1,2.39-2.39h27.14a2.39,2.39,0,0,1,2.37,2.39V91.23a5.4,5.4,0,0,1-.2,1.51H99.89a4.08,4.08,0,0,0-4.07,4.06v6.12a4.71,4.71,0,0,1-1.62.27H90.34c0,.25-.25,1.59-.39,2.24H94.2a7.6,7.6,0,0,0,3.15-.68s.05,0,.09,0l.41-.22.33-.18s0,0,0,0a2,2,0,0,0,.28-.2h0c.09-.07.18-.12.26-.19s0,0,0,0l.25-.2,0,0,.22-.2a.1.1,0,0,0,.06,0l.25-.25s0,0,0,0L106,96.55a1.29,1.29,0,0,1,.15-.17.16.16,0,0,1,.08-.08l.15-.2.07-.07.16-.23a0,0,0,0,0,0,0,7.67,7.67,0,0,0,1.49-4.54V61.45A4.64,4.64,0,0,0,103.55,56.82Zm-5,44.18-.5.53V96.8A1.8,1.8,0,0,1,99.89,95h4.52Z"/><path d="M81,69.12H98.86a1.13,1.13,0,1,0,0-2.25H81a1.13,1.13,0,1,0,0,2.25Z"/><path d="M99.14,76.77h0a1.13,1.13,0,1,0,1.13,1.13A1.13,1.13,0,0,0,99.13,76.77Z"/><path d="M95.48,77.9a1.13,1.13,0,0,0-1.12-1.13H81A1.13,1.13,0,1,0,81,79H94.36A1.12,1.12,0,0,0,95.48,77.9Z"/><path d="M100,87.8a1.12,1.12,0,0,0-1.13-1.12H86.48a1.12,1.12,0,1,0,0,2.24H98.86A1.12,1.12,0,0,0,100,87.8Z"/><path class="cls-7" d="M75.5,73.06s-.17-.08-1-.41l-.42-.15s0,0,0,0"/><path class="cls-7" d="M71.59,72h-.36a11.21,11.21,0,0,0-1.16,0"/><path class="cls-7" d="M89.71,106.25a3.6,3.6,0,0,1,.17-.59c0-.06,0-.13.07-.23"/><path class="cls-4" d="M79.15,93V108.3a7.11,7.11,0,0,1-2.24-1.61V94.6A6.75,6.75,0,0,1,79.15,93Z"/><path class="cls-4" d="M90.16,100.65a8.46,8.46,0,0,1-3.84,7.19,9.67,9.67,0,0,0,1.62-3.79l0-.25a1.52,1.52,0,0,1,0-.21,1.93,1.93,0,0,0,0-.33c0-.05,0-.1,0-.15s0-.27,0-.39,0-.06,0-.09v-1c0-.15,0-.3,0-.44v-.06c0-.14,0-.27,0-.42a.06.06,0,0,1,0,0c0-.15,0-.28-.07-.41s0,0,0-.07a2.11,2.11,0,0,0-.09-.38.56.56,0,0,0,0-.07l-.1-.4s0,0,0,0a3.7,3.7,0,0,0-.13-.4v0l-.15-.4a2.83,2.83,0,0,1-.17-.4,0,0,0,0,1,0,0,3,3,0,0,0-.18-.36s0,0,0-.07-.14-.22-.2-.33,0,0,0-.07a2.11,2.11,0,0,0-.18-.33.21.21,0,0,1,0-.07l-.2-.31,0-.07-.23-.32s0,0,0,0l-.25-.31a.07.07,0,0,0,0,0c-.1-.1-.18-.21-.27-.31s0,0,0,0-.19-.2-.28-.28,0,0,0-.05a2.4,2.4,0,0,1-.28-.27l-.05,0-.3-.25,0,0-.3-.23,0,0-.31-.23-.07,0a1.81,1.81,0,0,0-.32-.22s0,0,0,0l-.34-.2,0,0a3.84,3.84,0,0,0-.35-.18h0c-.12-.07-.25-.12-.36-.19h0a3,3,0,0,0-.37-.17s0,0-.07,0l-.36-.15h-.07a2.11,2.11,0,0,0-.38-.12s0,0-.07,0a1.6,1.6,0,0,0-.26-.08,7.43,7.43,0,0,1,1.64-.18,7.5,7.5,0,0,1,5.55,2.46l0,.05a8,8,0,0,1,1.24,1.79,7.66,7.66,0,0,1,.8,2.24,4,4,0,0,1,.1.62A6.89,6.89,0,0,1,90.16,100.65Z"/><path class="cls-12" d="M456.29,174.73a36.37,36.37,0,0,0-28.2,64.05c-.16.65-4.52,12.37-4.52,12.37l12.51-7.34a37.18,37.18,0,0,0,4,1.58c.8.26,1.6.49,2.43.69a37.18,37.18,0,0,0,3.7.7l.69.09c.73.09,1.46.16,2.18.2s1.65.07,2.46.06a35,35,0,0,0,7.48-.84,5.23,5.23,0,0,0,.54-.12c.44-.1.88-.21,1.31-.33a36.38,36.38,0,0,0-4.62-71.11Z"/><path class="cls-13" d="M412.85,312.61A66.4,66.4,0,0,0,409.63,296c-2.43-7.53-4.59-15.16-6.88-22.74-.06-.19-.32-.32-.49-.48-1.66,3.33-3.6,6.53-4.57,10.17a4.42,4.42,0,0,0,1.8,2.12c4.74,3.74,5.08,5.14,2.9,11l.07.08-.19.1c0,.28,0,.56,0,.85,1.12,4-1.21,6.66-3.61,9.29l-.15.73a3.48,3.48,0,0,1-.28,2.06,24.54,24.54,0,0,1-6.15,14.74c-3.18,3.66-8.87,4.78-12.61.89-2.25.06-4.5.18-6.75.19l-56.94.09c0,6.54-.46,13.12,0,19.63,1.23,16.63.23,33.28.61,49.92a2.53,2.53,0,0,1-.13,1.13l30.7-1.52,30.91.31c-2.14-17.16-3.36-38.17-5.46-55,1.5-.15,2.3.81,3.31,1.39,6,3.52,12.29,5.56,19.27,2.71a26.92,26.92,0,0,0,12.07-10.2A32.83,32.83,0,0,0,412.85,312.61Zm-45.4,67.94c-6.79-2.47-13.6-4.89-19.79-8.75-1.4-.88-2.94-1.55-4.43-2.3-.73-.37-1.58-.62-1.54-2.58,9.48,4.77,18.36,9.85,28.54,12.85A2.11,2.11,0,0,1,367.45,380.55ZM315,394.6c-.06-.94,0-1.9,0-2.85-.05-22.23-1.12-44.45-.78-66.7-1.74,0-3.47,0-5.2,0-1,0-1.83-.23-1.87-1.47-1.43-1.4-.62-2.78-.05-4.22,1.46-3.61,2.87-7.24,4.29-10.87h0c-1.12-.25-2,.51-3,.64-2.19.27-4.47.69-6.22-1.3l-1.39-.13a6.46,6.46,0,0,1-5.76.68,2.09,2.09,0,0,1-1.36-.43c.18.63-.24.86-.77,1-2.75,2.08-5.69,3.75-9.23,4.07a43.73,43.73,0,0,1-3.38,15.09,8.35,8.35,0,0,1-6.59,5.31c-7.28,1.33-14.6,2.53-21.9,3.75-7.07,1.18-14.14,2.45-21.23,3.42q-6,.81-11.92,1.47c-4.33.49-8.68,1.25-13.08.84a170.91,170.91,0,0,0-3.54,16.91c-1.54,8.22-2.87,16.47-4.22,24.71a38.08,38.08,0,0,0-.23,4.3c-.45.34-1.08,8.71-1.56,8.81l106.65-1.19,12.52-.62C314.89,395.48,315,395,315,394.6Zm-82-8.4c-.71-1.28.06-1.59,1.11-1.89a108.18,108.18,0,0,0,12.4-4.18,110.76,110.76,0,0,0,19-9.55,13.45,13.45,0,0,1,4.39-2C267,373.39,244.63,383.85,233,386.2Zm74.08-36.9c-1.62.12-2.77-.42-2.87-2.28-.1-1.61,1.13-3.25,2.49-3.3s3.13,1.62,3.08,2.91A2.63,2.63,0,0,1,307.1,349.3ZM300.63,25.18h0Z"/><path class="cls-14" d="M414.44,242c1.1.76.57,1.61.17,2.5q-4.19,9.41-8.32,18.85c-1.38,3.14-2.69,6.3-4,9.45-1.66,3.33-3.6,6.53-4.57,10.17-4.17-1.59-8.29-3.39-12.74-4.12-4-.66-8.08-2.36-11.95.5-.4-2.1-1.82-3-3.72-3.84-3.68-1.54-9.8.92-12.25,5.44-2.58,4.77-1.71,7.92,3.09,10.51-2.34,3.29-2.08,4.82,1.18,7.12l.93,1.37c-.34,3.28,1.66,5.39,4,7a63.33,63.33,0,0,0,15,7.89c1,.35,2.09.49,2.53,1.66-.09.46-.17.91-.25,1.37a30.37,30.37,0,0,0-4,7c-2.25.06-4.5.18-6.75.19q-28.47.06-56.94.08h-1.6c-1.73,0-3.46-.05-5.19,0-1,0-1.83-.24-1.88-1.47,1.41-.54,1.66-1.95,2.22-3.09,6.76-13.84,12.78-28,19.42-41.93,2.65-5.53,5.15-11.17,7.55-16.83s5.09-11.22,7.62-16.84a4.33,4.33,0,0,1,4.34-2.94c16-.21,32.07.59,48.1-.58A80.1,80.1,0,0,1,414.44,242Z"/><path class="cls-15" d="M350.79,102.26h0c-.5-5-3.25-8.93-6.19-12.68A33.32,33.32,0,0,1,337,68.75,46.28,46.28,0,0,0,332.36,50c-.7-1.49-1.8-2.83-1.77-4.6-2.36-1.14-3.2-3.64-4.83-5.44-4.1-4.49-9.12-7.66-14.43-10.47v0h-.68l-8.52-3.57c-.6,0-1.26,0-1.51-.72-2.8-.34-5.62-.67-8.42-1-8.38-1-16.09.08-21.82,7.15a2.58,2.58,0,0,1-2.48,1.08c-2.07-.31-4,.42-6,.7-7.28,1-11.83,6.09-16.23,11.3a.92.92,0,0,0-.14.26,7.79,7.79,0,0,0-.14,1.12l.14.14c.61.25.59.49,0,.71h0a.65.65,0,0,0,0,.2c0,.11,0,.23,0,.34s0,.06,0,.09a.28.28,0,0,1-.12.2.54.54,0,0,1-.32.08c-.08,0-.16-.59-.24-.91l-.13-.14c-1.69.29-1.47,2.32-2.72,3-.35,1-.73,1.92-1.12,2.87a2.33,2.33,0,0,0-.11.28c-.53,1.29-1.05,2.57-1.52,3.87l-.06.17A29.5,29.5,0,0,0,238,61.15c-.81,4.51-2.69,8.76-3.18,13.35h0l.06,0a12.23,12.23,0,0,0,1.63-3,31.89,31.89,0,0,0,1.27-4.52c.2-.87.41-1.75.66-2.61.15-.52.3-1,.43-1.55.38-1.45.73-2.9,1.15-4.32a27.52,27.52,0,0,1,1.3-3.63,18.34,18.34,0,0,1,1.3-2.43,1.3,1.3,0,0,0,.1-.15,5.78,5.78,0,0,1-.13,2c0,.2-.1.39-.15.59-.25.83-.58,1.63-.84,2.45a2.25,2.25,0,0,0-.08.24c-.08.26-.15.52-.21.79-1,4.45-1.86,8.93-2.91,13.36a22.78,22.78,0,0,1-7,11.32,1.54,1.54,0,0,1-.84-1.44l-.05,0a1.25,1.25,0,0,0-1.41,1.43c0,.46,0,.93,0,1.39a1.56,1.56,0,0,1,.25.17l.1.1a.74.74,0,0,1,0,1.11c-.82.94-1.7,1.82-2.49,2.65-.41-.11-.57-.3-.63-.51a1.05,1.05,0,0,1-.06-.24c0-.12,0-.23,0-.34a1.89,1.89,0,0,0-.27.2c-1.43,1.16-1.14,3.07-1.71,4.58-2.71,7.17-2.74,14.25,2.23,20.52a8.46,8.46,0,0,1,1.91,6.19,12.59,12.59,0,0,0,2.47,8c2.11,3.09,4.95,5.45,7.61,8a6.33,6.33,0,0,0,3.47,1.7,8.12,8.12,0,0,1,3.81,1.75,19.78,19.78,0,0,0,17,2.75c-.08-1.11.56-2.08.65-3.12.28-3.44.25-6.68-2.18-9.71a27,27,0,0,1-5.62-11.78,3.07,3.07,0,0,0-2-2.29h0a4.87,4.87,0,0,1-4.36-.39,23.31,23.31,0,0,1-.4,3.62c0,.17-.09.35-.14.52a7.55,7.55,0,0,0-.26,1.12c-.31,2.17.37,4.33.92,6.43a11.82,11.82,0,0,1,.56,3.42l.35.37c-.08,0-.19,0-.23-.06a.39.39,0,0,1-.08-.14c0-.06,0-.11,0-.16-.32-.49-.61-1-.87-1.49a16.37,16.37,0,0,1-1-2.51c-.05-.15-.09-.29-.13-.43a20.08,20.08,0,0,1-.44-8.37c.14-1.05.27-2.11.38-3.16-3.09-1.23-5.05-3.68-6.83-6.31h0a.91.91,0,0,0-.56.17l-.14.12c-.35.33-.53.89-.94,1.22a1.39,1.39,0,0,1-.36.2,1.34,1.34,0,0,1-.48.08c.07-1.46.19-2.74,2-3.1-.18-.61-.35-1.22-.5-1.83a21.55,21.55,0,0,1-.75-6.2c0-.24,0-.48,0-.73a16.24,16.24,0,0,1,.93-4.32,13.87,13.87,0,0,1,.69-1.52s0,0,0,0A12.33,12.33,0,0,1,242.74,88a14.83,14.83,0,0,1,3.5-2.71c-.06-1.71-.8-2.78-3-2.61.22-.22.42-.43.61-.64s.35-.44.51-.66a8.24,8.24,0,0,0,.59-1c.11-.23.2-.46.29-.69,1-2.71.42-5.66,1-8.35.38-1.8-.26-3.79.82-5.52a42,42,0,0,1,22.1-29.28,44.44,44.44,0,0,1,4.4-1.94,44,44,0,0,1,7.94-2.15A53.91,53.91,0,0,1,297.8,32c.83.11,1.65.24,2.46.4a41.09,41.09,0,0,1,7.12,2q1.72.66,3.39,1.47c1.11.54,2.21,1.13,3.28,1.78s2.12,1.35,3.15,2.1c.69.5,1.37,1,2,1.58,1,.83,2,1.71,3,2.64a55.07,55.07,0,0,1,4.65,5.13,33.29,33.29,0,0,1,7.39,16.73c1.2,3.33.7,6.8.76,10.21q0,1.82,0,3.63c0,1.76-.06,3.52-.07,5.28a18.57,18.57,0,0,1,1.43,1.35c.25.26.49.52.71.79s.42.5.6.75c.05.08.11.15.17.23s.25.36.36.54a2.33,2.33,0,0,1,.17.26,6.08,6.08,0,0,1,.35.59l.12.21c.11.2.22.4.31.6a2.56,2.56,0,0,1,.11.24,7.83,7.83,0,0,1,.34.79,6.32,6.32,0,0,1,.22.61c.05.12.09.25.13.37s.17.55.24.83a7.78,7.78,0,0,1,.17.81c.06.27.1.55.14.83a22.81,22.81,0,0,1-.49,8.19c0,.12-.06.24-.1.36a2.6,2.6,0,0,1-.13.36c-.13.35-.29.7-.41,1.06,0,.12-.08.24-.11.36a2.29,2.29,0,0,0-.07.36,2.43,2.43,0,0,0,0,.38,2.21,2.21,0,0,0,0,.51c1,4.32,3,8.56,1.62,13.06a10,10,0,0,1-.41,1.11v0c-.05-.18-.09-.37-.13-.56A18.85,18.85,0,0,1,340,117c0-.58,0-1.17,0-1.76q0-.58-.06-1.17a11.37,11.37,0,0,0-.57-2.9,6.1,6.1,0,0,0-.72-1.67l-.07-.08a2,2,0,0,0-1-.61,3,3,0,0,0-.68.59,2.86,2.86,0,0,0-.28.4.86.86,0,0,0-.1.16,1.4,1.4,0,0,0-.15.3,2.56,2.56,0,0,0-.11.24c-.07.16-.13.32-.19.49-.12.34-.23.7-.35,1a2.72,2.72,0,0,1-.19.47s0,0,0,0a1.45,1.45,0,0,1-.09.22c-1.09,2.21-2.24,4.39-3.37,6.58,1.21,4.34,1.17,8.54-1.36,12.47,0,.6-.06,1.17-.72,1.43a2,2,0,0,1-.39.69,1.09,1.09,0,0,1-.77.34.83.83,0,0,1,.07-.73.59.59,0,0,1,.29-.19,4,4,0,0,1,.79-.11h0c0-.59.06-1.16.72-1.42.4-3.75,1.34-7.46.39-11.25l-.63.62c-.42.41-.85.81-1.29,1.19s-.72.61-1.09.9-.62.48-.94.71a26.19,26.19,0,0,1-2.71,1.7c-.36.2-.72.39-1.08.56s-.72.34-1.09.49c-.53.23-1.07.43-1.62.62s-.85.28-1.29.4a16,16,0,0,1-5.72,8.26c-1.54,1.11-2.72,2.64-4.46,3.52a2.09,2.09,0,0,0-1.26,2.34c5,1.53,10,2.16,14.6-1a10,10,0,0,1,5.94-1.9c3.92,0,9.91-3,11.07-8.44a10.51,10.51,0,0,1,3.43-5.58,15.16,15.16,0,0,0,2.8-3l.08-.13a2.06,2.06,0,0,1-1.42-1.33A35.32,35.32,0,0,0,348.88,110a13.94,13.94,0,0,0,.22-1.42c0-.46.08-.93.11-1.4s0-.92.05-1.39h0c0-.46,0-.93,0-1.4a4.66,4.66,0,0,1,.05-.56,1.79,1.79,0,0,1,.23-.77.87.87,0,0,1,.19-.23,1.42,1.42,0,0,1,1-.32C350.8,102.4,350.8,102.33,350.79,102.26ZM255.92,135.1a2,2,0,0,1-1,.15.68.68,0,0,1-.2-.07.57.57,0,0,1-.16-.11,1.56,1.56,0,0,1-.39-1.14h0C254.93,134,255.64,134.13,255.92,135.1Zm-2.51-1.89v0l.68.68a.88.88,0,0,1-.68-.68l0,0Zm0,0a.89.89,0,0,1-.68-.68Zm-2.26-2.44h0a.61.61,0,0,1,.07.14.75.75,0,0,0,0,.16h0a1,1,0,0,1,.71.72l.69.7h0v0h0l0,0a.83.83,0,0,1-.44-.24.93.93,0,0,1-.25-.46.92.92,0,0,1-.72-.71h0l-.35-.36C251,130.72,251.09,130.71,251.13,130.76ZM240.19,132l0,.05a.38.38,0,0,1,.1.13l.13.31a.85.85,0,0,1,0,.17v0a1.27,1.27,0,0,1,0,.28.17.17,0,0,1,0,.1v.12h0v0l.34.33c-.07,0-.18,0-.22-.06a.66.66,0,0,1-.12-.27l0,0a1,1,0,0,1-.64-.73,1.06,1.06,0,0,1,0-.19c0-.13,0-.26,0-.4v-.11A1,1,0,0,1,240.19,132Zm-.51-.53a.77.77,0,0,1,.12.28l-.34-.34C239.54,131.44,239.64,131.43,239.68,131.48Zm3-79.14h0c.06-.26-.06-.6.14-.8a.38.38,0,0,1,.17-.11.34.34,0,0,1,.12,0,.51.51,0,0,1,.07.15.34.34,0,0,1,0,.15.4.4,0,0,1-.16.43,1.7,1.7,0,0,1-.28.18Zm-5,74.56c-2.84-4-2.53-12.79.57-16.86C236.81,115.62,236.19,121.22,237.65,126.9Zm3.62-42.33A1,1,0,0,1,241,85a1,1,0,0,1-.46.25h0a2.21,2.21,0,0,1-.14.78,2.87,2.87,0,0,1-.38.68c-.1.14-.22.28-.34.42l-1.86,2.14c-2.81,3.25-4.25,5-5.39,7.26-.23.45-.45.91-.66,1.4-.14.33-.29.67-.43,1-.21.54-.43,1.12-.66,1.77-.46,1.28-1,2.79-1.58,4.65a19.69,19.69,0,0,1,1.82-9c.22-.49.46-1,.71-1.44.39-.71.8-1.4,1.24-2.07.14-.23.29-.45.44-.67l1.42-2.1c1.46-2.08,3.13-4.05,5.76-4.94a1,1,0,0,1,.11-.25.93.93,0,0,1,.61-.46c.21-.41.45-.77,1-.44C242.15,84.72,241.63,84.48,241.27,84.57Z"/><path class="cls-16" d="M300.61,25.17h0Z"/><path class="cls-17" d="M322.32,285c2.22-2.42,3-5.51,4-8.5-4,.06-8-.67-12-1l-1.59-.08c-5.55,0-9.78,3.37-14.33,5.85-6.54,3.59-12.7,7.94-19.91,10.24a1.44,1.44,0,0,1-1.45.62c-.75,1.86-1.61,3.69-1.38,5.78.73.46.67,1.19.63,1.89a20.72,20.72,0,0,0,3.74,13.2l3.54.07c3.54-.32,6.48-2,9.23-4.07a1.07,1.07,0,0,1,.73-1.1l0,0,0,0a27.24,27.24,0,0,1,6.48-8.1l5.38,3.27c-.56,1.67-2.21.83-3,1.66-.48,1-.18,2.1-.28,3.14,1.75,2,4,1.57,6.22,1.3,1-.13,1.93-.89,3-.64,0-.47.36-.65.73-.79.65-1.26,1.66-2.38,1.48-3.95.22-1.16-.51-2.19-.54-3.3,1.26-.78,1.12.88,1.86.94,2-2,2.26-4.85,3.61-7.16a2.19,2.19,0,0,1-1.62-.62,80.8,80.8,0,0,0-7.38-6.79c2.23-.42,3.16.59,4.18,1.48,1.69,1.48,2.94,3.46,5,4.54a8.43,8.43,0,0,0,2.77-5.63c-.73-1.65-2.46-2.09-3.76-3a21,21,0,0,1-3.58-3.49c2.59.06,3.89,1.44,5.27,2.59C320.25,284,321,285,322.32,285Zm-17,7.5a2.08,2.08,0,0,1-.23-.53c0-.05.14-.14.21-.22a3.26,3.26,0,0,1,.25.54C305.55,292.3,305.39,292.39,305.31,292.46Zm7.33,6.82c-2.75-1.27-4.13-3.55-6.22-5.4C309,294,311.24,295.9,312.64,299.28Z"/><path class="cls-17" d="M361.3,298.53c-3.26-2.3-3.52-3.83-1.18-7.12l.64,0c0,1.45,1.17,1.78,2.13,2,6.8,1.6,13.22,4.43,20,6.1,2.26.55,4.42,1.93,6.93,1.58,0-1.14-.74-1.06-1.25-1.22l-8.45-2.68c-6.42-2-12.75-4.36-19.34-5.8-1.53-4.21-.53-5.59,3.81-5.79,2.61-.13,5,1.1,7.61.8,5.44,2.21,11.24,3.16,16.81,4.91a1.4,1.4,0,0,0,1.83-.66c1.09.54,1.23,3.13,3.44,1.6a3,3,0,0,0-3.51-2.28l0,0a.91.91,0,0,0-.89-.73c-5.59-2.34-11.64-3.46-16.95-6.52,0-1.14,0-2.28.05-3.42,3.87-2.86,7.94-1.16,11.95-.5,4.45.73,8.57,2.53,12.74,4.12a4.42,4.42,0,0,0,1.8,2.12c4.74,3.74,5.08,5.14,2.9,11l-.12.18,0,.85q-2.14,4.65-4.28,9.3c-1.32,1.46-2.58,3-2.88,5v0c-.65.28-.74.84-.72,1.45h0a.91.91,0,0,0-.72.72h0A1.2,1.2,0,0,0,393,315h0c-3.07.59-6,2-9.23,1.47-.44-1.17-1.51-1.31-2.53-1.66a63.33,63.33,0,0,1-15-7.89c-2.34-1.6-4.34-3.71-4-7,3.53,1.06,6.58,3.18,10,4.42,4.6,1.65,9.1,3.6,14,4.78.08-2.09-1.46-1.9-2.45-2.24a159.09,159.09,0,0,1-16.52-6.38C365.45,299.61,363.58,298.28,361.3,298.53Z"/><path class="cls-18" d="M312.07,307.68c.65-1.26,1.66-2.38,1.48-3.95a2.53,2.53,0,0,0,1.32-2.36c2-2,2.26-4.85,3.61-7.16l.17-1.39a8.41,8.41,0,0,0,2.77-5.63c.91-.5.8-1.41.9-2.23,2.22-2.42,3-5.51,4-8.5,3.61-6.41,6.26-13.26,9.38-19.89,2.12-4.5,4-9.12,6-13.69a5.68,5.68,0,0,1,6.1-3.83c4.64.24,9.3.09,14,0,1.5,0,3.07.37,4.64-.45-.82-5.81-2.59-11.36-3.89-17,3.21,5.41,3.7,11.74,5.77,17.48H391.5c6.28,0,12.55,0,18.82,0,2.11,0,3.78.41,4.12,2.85a80.1,80.1,0,0,0-18.1-.6c-16,1.17-32.07.37-48.1.58a4.33,4.33,0,0,0-4.34,2.94c-2.53,5.62-5.21,11.17-7.62,16.84s-4.9,11.3-7.55,16.83c-6.64,13.9-12.66,28.09-19.42,41.93-.56,1.14-.81,2.55-2.22,3.09-1.42-1.39-.61-2.79,0-4.21,1.45-3.62,2.86-7.25,4.29-10.88v0A.94.94,0,0,0,312.07,307.68Z"/><path class="cls-19" d="M280,312.94l3.54.07a43.34,43.34,0,0,1-3.39,15.1,8.32,8.32,0,0,1-6.58,5.3c-7.28,1.33-14.59,2.53-21.9,3.75-7.07,1.18-14.13,2.45-21.24,3.42-4,.54-7.94,1-11.91,1.47-4.33.49-8.68,1.25-13.08.84,0-.23,0-.47,0-.7,2.37-1,4.91-.58,7.36-.9q7.53-1,15.06-2c4.55-.62,9.1-1.19,13.64-1.91,7.67-1.22,15.34-2.45,23-3.86,3.68-.68,7.46-1,11.08-2.55a63.9,63.9,0,0,1-2-16.15A12.46,12.46,0,0,0,280,312.94Z"/><path class="cls-20" d="M379.45,324.8a30.37,30.37,0,0,1,4-7l4.24.05A5.38,5.38,0,0,0,393,315h0c.7-.25.76-.82.72-1.43h0a.79.79,0,0,0,.72-.72h0c.74-.23.74-.83.72-1.45v0c1.68.16,1.59-2.16,3.12-2.23a24.51,24.51,0,0,1-6.15,14.74C388.87,327.58,383.19,328.69,379.45,324.8Z"/><path class="cls-19" d="M316.39,394.63a2.53,2.53,0,0,1-.13,1.13,1.11,1.11,0,0,1-.41.43.85.85,0,0,1-.77-.38c-.19-.33-.08-.82-.11-1.21-.06-.94,0-1.9,0-2.85-.05-22.23-1.12-44.45-.78-66.7l1.59,0c0,6.54-.46,13.12,0,19.63C317,361.34,316,378,316.39,394.63Z"/><path class="cls-18" d="M269.92,368.57c-3,4.83-25.29,15.28-36.89,17.63-.72-1.28.05-1.59,1.11-1.89a120.86,120.86,0,0,0,31.38-13.73A13.61,13.61,0,0,1,269.92,368.57Z"/><path class="cls-18" d="M341.69,366.92c9.48,4.77,18.36,9.85,28.54,12.85a2.1,2.1,0,0,1-2.78.78c-6.79-2.47-13.6-4.89-19.79-8.75-1.4-.88-2.94-1.55-4.42-2.3C342.51,369.13,341.65,368.88,341.69,366.92Z"/><path class="cls-21" d="M293.5,307.88a27.33,27.33,0,0,1,6.51-8.13l5.37,3.26c-.55,1.67-2.21.83-3,1.65-.48,1-.18,2.11-.28,3.15l-1.39-.13c-.3-1.76.35-3.66-.86-5.54-1.28,2.45-4.1,3.48-4.89,6.22A2,2,0,0,1,293.5,307.88Z"/><path class="cls-19" d="M306.73,343.72c1.24,0,3.12,1.62,3.07,2.91a2.63,2.63,0,0,1-2.7,2.67c-1.62.12-2.77-.42-2.88-2.28C304.14,345.42,305.36,343.77,306.73,343.72Z"/><path class="cls-20" d="M294.93,308.36c.79-2.74,3.61-3.77,4.89-6.22,1.21,1.88.56,3.78.86,5.54A6.44,6.44,0,0,1,294.93,308.36Z"/><path class="cls-21" d="M398,306.39q2.13-4.65,4.28-9.3c1.11,4-1.21,6.66-3.61,9.29H398Z"/><path class="cls-21" d="M398.21,309.17c-1.53.07-1.44,2.39-3.12,2.23.3-2,1.56-3.55,2.88-5h0l.52.73A3.32,3.32,0,0,1,398.21,309.17Z"/><polygon class="cls-21" points="402.27 296.24 402.39 296.06 402.46 296.14 402.27 296.24"/><path class="cls-20" d="M398.48,307.11l-.52-.73h.68Z"/><path class="cls-21" d="M292.79,308.94a1.07,1.07,0,0,1,.74-1.1C293.78,308.54,293.35,308.78,292.79,308.94Z"/><path class="cls-22" d="M245.54,45.91c0,.24,0,.47,0,.71-.23,0-.46,0-.7,0l-.13-.14.7-.72Z"/><rect class="cls-22" x="245.53" y="46.62" width="0.01" height="0.01"/><path class="cls-23" d="M391.5,239.1c-.1-.46-.17-.93-.31-1.38-2.54-7.76-5.71-15.3-8.63-22.92-4.29-11.2-9-22.21-15.47-32.35a22.26,22.26,0,0,0-7.39-7.56,180.62,180.62,0,0,0-24-11.68c-2.38-1-4.6-2.61-7.42-1.86,11.39,16.76,15.36,35.68,16,55.53,0,.71.09,1.42.14,2.13,5.36.6,7.94,3.76,7.72,9.51a9.05,9.05,0,0,1-8.44,8.5c-7.06.49-11.19-4.05-10.14-11.54.37-2.66,2.2-4.42,4.43-5.72a33.54,33.54,0,0,1,3.23-1.46c-.9-14.86-3-29.46-9.15-43.2a34.42,34.42,0,0,0-4.11-7.44c-.53,1.71.05,3.31.6,4.87,2,5.69,3.25,11.61,4.88,17.41a7.07,7.07,0,0,1,0,1.54L322.65,197c3.83,3.87,7.38,7.47,11.09,11.24a355.67,355.67,0,0,1-18.95,46.25c-.44-2.37.83-4.25,1.68-6.17,5.11-11.49,9.64-23.2,14-35,1.29-3.52,1-6-2-8.42s-5.27-5.46-8.52-8a56.54,56.54,0,0,1,9.45-4.94c2.77-1.27,3-1.63,2-4.54-2.55-7.5-3.85-15.39-7.05-22.7-.22-.48,0-1.17.06-1.75-2.37-3.48-5.7-6-8.57-9-.63-.67-1.64-1-1.7-2.16-2.34-.43-4.2-1.91-6.3-2.86a9.34,9.34,0,0,0,1.32,6.41c2.74,4.88,2.89,10.33,2.92,15.76,1,12.85.73,25.71.55,38.57-.18,12.38-1,24.74-2.17,37.06-.12,1.3-.44,2.58-.67,3.9-1-.33-1.12-1.21-1.44-1.92-10.34-23.31-23.1-45.37-34.87-67.95a82.3,82.3,0,0,1-4.44-8.92c-2.52-4.93-5.07-9.83-7.55-14.77a5.87,5.87,0,0,1-.38-4.75,11.71,11.71,0,0,0,.87-5.54c-1.61-.12-2.8.83-4.15,1.53-1.62.86-2.59,2.78-4.66,2.86.1,2.17-1.68,3.19-2.85,4.54-1.78,2.05-3.64,4-4.2,6.8a3.09,3.09,0,0,1,1.48,2.67c1.09,9.28,3.36,18.31,5.64,27.35a4.63,4.63,0,0,1,0,1l2.07,1.3c5.55,1,11.1,2,16.64,3.11a1.75,1.75,0,0,1,1.45,1.44c-1.24,2.82-2.63,6-4,9.07-.57,1.3-1.08,2.64-1.73,3.9-1.1,2.13-.58,3.71,1.15,5.34,4.49,4.28,8.83,8.71,13.18,13.12.79.8,2,1.35,2,3-1.34.32-1.89-.8-2.56-1.45-4.67-4.6-9.29-9.26-14-13.86a8.65,8.65,0,0,0-2.68-2.32c1.64,7.47,2.54,15.05,3.48,22.62a33.69,33.69,0,0,1,0,8.86c-.37,2.62-1.17,5.46-4.67,5.81-.05,1.61-1.06,2.29-2.48,2.5s-3.06.8-4.48-.13a2.44,2.44,0,0,1-1-2.51,1.88,1.88,0,0,1,2-1.69c1.63-.09,3.26-.74,4.92-.2,3.78-.65,3.72-4,3.59-6.39-.2-3.88-.46-7.78-.81-11.66-.55-6-2.42-11.79-2.63-17.82-1.79-.4-1.86-1.91-2.21-3.29-1.18-4.63-2.64-9.14-6-12.73-5.22-5.55-13.32-5.36-17.75.43a15.17,15.17,0,0,0-2.64,6.16,34,34,0,0,0-.5,10.65c.12,1.18.47,2.36-.47,3.37a205.83,205.83,0,0,0,4.54,25.35,31.58,31.58,0,0,0,2.38,6.28,4.64,4.64,0,0,0,4,3c1.8-2.25,4.31-1.44,6.59-1.43.91,0,1.25,1,1.38,1.85a2,2,0,0,1-.92,2.15c-1.46,1-5.29.76-6.93-.41-4.1-.19-5.86-3.09-7.2-6.35-2.16-5.26-3.19-10.84-4.14-16.39-.77-4.5-1.94-9-1.62-13.65a2.06,2.06,0,0,1-1.4-1.86,45.15,45.15,0,0,1,.3-12.77c1.26-6.34,4.43-11.21,11.17-13.42-1.54-11-2.52-21.92,1.7-32.55-1.5-.79-2.83.14-4.09.59a217.65,217.65,0,0,0-29.81,13.49c-4.67,2.54-9.2,5.51-12,10.33A168.16,168.16,0,0,0,183.91,212a397,397,0,0,0-12.8,44.23c-1.85,8-3.68,16.08-5.09,24.21-1.13,6.52-2.29,13-3,19.58-1,9.79-1,19.41,2.5,28.72,2.36,6.17,6.4,10.83,13.09,12.47a49.87,49.87,0,0,0,11.91,1.66c5,0,10,.18,14.9-.68,2.38-1,4.92-.58,7.38-.9,5-.65,10-1.31,15.05-2,4.55-.62,9.1-1.19,13.63-1.92,7.68-1.21,15.35-2.44,23-3.85,3.68-.68,7.46-1,11.08-2.54a64,64,0,0,1-2-16.16,50.77,50.77,0,0,1,2.07-17c-.23-2.09.63-3.92,1.38-5.78a9,9,0,0,0-.38-3.46c-3.46,0-7-.44-10.5.29a8.4,8.4,0,0,1-2.1.27c-6.91-.42-13.77.58-20.64.88-8.4.36-16.79,1-25.18,1.42a52,52,0,0,0-28.9,10.66,1.73,1.73,0,0,1-1.85.28c1.76-2.46,4.22-3.6,6.47-5a34.11,34.11,0,0,1,7.34-3.57c2.67-.91,5.36-1.8,8.38-2.82-7.41-3.12-14.59-2.94-21.84-.7,9.28-5.28,18.47-2,28,.88,4.17-13.74,7.13-27.33,11.79-40.39-2.42,13.07-6.66,25.7-9.44,39.11a80.77,80.77,0,0,0,9-.06c6.36-.77,12.77-.72,19.12-1.38,6.84-.7,13.72-.34,20.56-1.25,3.38-.45,6.87-.08,10.13-.08,1.55,1.27-.06,3.32,1.51,4.34,7.21-2.3,13.37-6.65,19.91-10.24,4.55-2.48,8.78-5.81,14.33-5.85.46-4.51-.23-9-.61-13.43a20.58,20.58,0,0,1,.18-4.28c1.64,2.89,1.5,6.15,1.86,9.25.32,2.82.12,5.69.16,8.54,4,.35,8,1.08,12,1,3.61-6.41,6.26-13.26,9.38-19.89,2.13-4.5,4-9.12,6-13.69a5.69,5.69,0,0,1,6.11-3.83c4.63.23,9.29.1,13.94,0,1.5,0,3.07.37,4.65-.45-.83-5.81-2.6-11.37-3.9-17,3.22,5.41,3.7,11.74,5.77,17.49Zm-163.07,1.36a8.82,8.82,0,0,1-1.47-5.11,88,88,0,0,0-8-32.1c-2.35-4.89-5.16-9.63-9.32-13.34a18.43,18.43,0,0,1-1.69-1.84c-.13-.15-.11-.44-.3-1.39a17.77,17.77,0,0,1,6.58,5.91,74.75,74.75,0,0,1,12,27.46c1.38,6,1.86,12.1,2.78,18.16A2.36,2.36,0,0,1,228.43,240.46Zm79.49,16.83a1.57,1.57,0,0,1-.12-.26v0h0c-1.09.08-1.71-.68-2.38-1.35q-9.62-9.6-19.22-19.18c-.54-.54-1.34-1-1.09-2,1.19-.54,1.62.41,2.14.94q9.63,9.56,19.22,19.17c.67.67,1.44,1.29,1.33,2.39h0v0l.34.32C308.06,257.34,308,257.34,307.92,257.29Z"/><path class="cls-20" d="M324.71,99.33c-1.36.11-1.49,1.4-2.07,2.22-5.55,7.83-17.93,7-22.24-1.6a15.65,15.65,0,0,1-1.92-6.07c0-.22,0-.44-.05-.66l0-.19a2.56,2.56,0,0,0-.14-.52,1.56,1.56,0,0,0-.25-.43.63.63,0,0,0-.11-.12l-.13-.12s0,0,0,0l-.31-.18-.2-.08c-1.38,1-1,2.3-.61,3.53,1.21,4.18,2.52,8.34,3.72,12.53,1,3.51-1,6.19-4.63,6.25h-.39l-.08,0-.13,0-.05,0-.14-.1-.21-.19a.68.68,0,0,1-.12-.12l-.46-.49-.2-.22-.22-.24c.14-.18.26-.47.42-.5,4.35-.69,5-1.92,3.86-6.22-1.29-4.76-3-9.43-3.17-14.45a.8.8,0,0,0-.15,0,3.42,3.42,0,0,0-2,.2,8.56,8.56,0,0,0-1.33.65c-.52,2.7-1,5.49-2.39,8A12.71,12.71,0,0,1,277,107c-5.6-.1-9.75-2.71-11.84-8.08-.9-2.31-1.91-4.62-1.67-7.21-.29-2.35-2.68-1-3.67-2.06l-3.45.11a97.56,97.56,0,0,1,.64,17.59c0,.23,0,.46,0,.69a17.72,17.72,0,0,1-.26,1.84,7.85,7.85,0,0,1-.26.95,4.27,4.27,0,0,1-.27.67,3.18,3.18,0,0,1-.16.32,3.35,3.35,0,0,1-.21.36,2.33,2.33,0,0,1-.17.26l-.14.18a2.11,2.11,0,0,1-.19.23,5.21,5.21,0,0,1-.53.52,2.61,2.61,0,0,1-.27.22,7,7,0,0,1-1,.61,3.07,3.07,0,0,1,2,2.29,27,27,0,0,0,5.62,11.78c2.43,3,2.46,6.27,2.18,9.71-.09,1-.73,2-.65,3.12-.07,1.91.43,3.9-.68,5.71a11.71,11.71,0,0,1-.87,5.54,5.87,5.87,0,0,0,.38,4.75c2.48,4.94,5,9.84,7.55,14.77a5.2,5.2,0,0,1,3.05.78,46.39,46.39,0,0,0,28.71,3.45c3.41-.64,6.43-2.36,9.37-4.15.37-.22.7-.48,1.08-.66h0a.75.75,0,0,1,.24-.08,1.57,1.57,0,0,1,.58-.08c0-5.43-.18-10.88-2.92-15.76a9.34,9.34,0,0,1-1.32-6.41,1.46,1.46,0,0,1-.42,0,4.83,4.83,0,0,0-1.4.21c-10.69,5.47-20.15,2.45-29.11-4.16a24,24,0,0,1-5.68-5.31,3.39,3.39,0,0,1,.54-.4l.17-.08.33-.11.31,0a1.69,1.69,0,0,1,.33,0l.22.06.26.1.31.16c.2.11.39.24.58.35l.28.16c1,.54,2.07,1,3.12,1.51s2.11.9,3.19,1.3a59.74,59.74,0,0,0,6.18,1.92l.42.12c.47.12.94.22,1.4.3s1,.16,1.47.22a23.28,23.28,0,0,0,4.79.06l.78-.08c.44-.06.87-.12,1.31-.2a30.88,30.88,0,0,0,6.83-2.1l.78-.38A9.44,9.44,0,0,1,306,142a3.39,3.39,0,0,1,.83-.22,2.94,2.94,0,0,1,.89,0l.15.05a2.09,2.09,0,0,1,1.26-2.34c1.74-.88,2.92-2.41,4.46-3.52a16,16,0,0,0,5.72-8.26l-.87.18-1.79.38-.78.16-.17,0c-.47,2.37-2.22,3.11-4.4,3.32-1.42.14-2.82.46-4.24.61a2.93,2.93,0,0,1-3.59-2.61c-.22-1.35-.07-2.58.91-3.29a3.3,3.3,0,0,1,.45-.26,4.47,4.47,0,0,1,.85-.27c3.1-.63,6.13-1.39,9.39-.23l.08,0a4.81,4.81,0,0,0,2.57.14,5.2,5.2,0,0,0,.68-.17c.23-.07.46-.15.68-.24s.45-.19.67-.3.44-.21.66-.33.43-.23.65-.36.64-.36,1-.55c.07-.35.15-.69.21-1l.18-1.06c.13-.8.23-1.6.36-2.4.05-.33.11-.65.17-1s.11-.59.18-.88a.24.24,0,0,1,0-.08c.07-.32.15-.64.24-1,0-.16.09-.31.15-.47a9.18,9.18,0,0,1,.31-.88,10.26,10.26,0,0,1,.82-1.62,7.49,7.49,0,0,1,.41-.63C323.69,108.47,324.27,103.9,324.71,99.33Zm-30.95,23c.53,0,1.07,0,1.61-.1l1.62-.15c2.71-.3,5.49-.77,8.38-1.19a10.66,10.66,0,0,1-1.74,2.29l-.3.28-.3.26a8.76,8.76,0,0,1-1.9,1.18,9.43,9.43,0,0,1-1.51.55l-.51.13-.17,0-.47.1c-.36.07-.72.13-1.07.17a15.9,15.9,0,0,1-14.38-5.2c.38.15.75.29,1.13.42s.75.25,1.13.36a20.64,20.64,0,0,0,3.43.69c.37.05.75.09,1.13.12.78.06,1.57.09,2.36.09C292.72,122.34,293.24,122.33,293.76,122.3Zm-17.39-.51a.11.11,0,0,1,0-.05.16.16,0,0,1,0-.09.3.3,0,0,1,.06-.11s0-.06.06-.09l.11-.12a.55.55,0,0,1,.11-.1l.13-.1.14-.1a.91.91,0,0,1,.71-.71l.36-.36c0,.08,0,.19,0,.23l-.14.08-.16.06h0a1.17,1.17,0,0,1-.1.26,1,1,0,0,1-.15.2s-.05.06-.08.07a.9.9,0,0,1-.38.18v1.81l-.31-.27A.91.91,0,0,1,276.37,121.79Zm4.94-5.76h0l.18-.19.18-.18c0,.08,0,.2-.05.24a1.05,1.05,0,0,1-.3.15,1.25,1.25,0,0,1-1.44,1.42.91.91,0,0,1-.72.71,1,1,0,0,1,.71-.72,2,2,0,0,1,.09-.64,1,1,0,0,1,.1-.24,1.11,1.11,0,0,1,.85-.53A2.42,2.42,0,0,1,281.31,116Zm-2.15,2.16-.34.36c0-.08,0-.19.05-.23A1,1,0,0,1,279.16,118.19Zm-1.56,6.57c0,.06-.14.14-.22.21l-.06-.13a2,2,0,0,1-.11-.26.5.5,0,0,1,0-.13h0s.13-.14.21-.21A4.77,4.77,0,0,1,277.6,124.76Z"/><path class="cls-19" d="M253.25,193.6l2.06,1.3a7.44,7.44,0,0,0,2.17,2c3.59,4.46,5.67,9.63,7.18,15.08,0,1.09.58,2.33-.73,3.12l-1.25.44c-1.79-.4-1.86-1.91-2.21-3.29-1.18-4.63-2.64-9.14-6-12.73-5.21-5.55-13.31-5.36-17.75.43a15.1,15.1,0,0,0-2.64,6.17,33.6,33.6,0,0,0-.5,10.63c.12,1.19.47,2.37-.47,3.39l-1.91.42a2.09,2.09,0,0,1-1.4-1.87,45.9,45.9,0,0,1,.29-12.77c1.27-6.34,4.43-11.21,11.18-13.43-1.54-10.95-2.52-21.91,1.7-32.54l-.18-.16c.56,0,.57-.43.58-.83,2.41-3.71,5.1-7.07,9.85-7.82.1,2.17-1.69,3.2-2.85,4.54-1.79,2.05-3.64,4-4.2,6.8-.64.3-.66.86-.63,1.44a12.64,12.64,0,0,0-.68,1.62c-1.7,6.26-1.68,12.62-1,19,.24,2.41.16,4.93,1.39,7.21a25.93,25.93,0,0,1,6.08.84A3.9,3.9,0,0,0,253.25,193.6Z"/><path class="cls-22" d="M230.48,81.66a4.36,4.36,0,0,1,2.86-4.3l.06,0a5.62,5.62,0,0,1-2.87,4.29Z"/><path class="cls-14" d="M226.22,87.42a2.06,2.06,0,0,1,1.42-2.16h0a2,2,0,0,1-1.44,2.14Z"/><path class="cls-14" d="M229.07,83.09c0,.46,0,.93,0,1.39l-.71.07h0A1.32,1.32,0,0,1,229.07,83.09Z"/><path class="cls-22" d="M233.34,77.36c0-.59.07-1.16.72-1.43l.05,0c0,.59-.06,1.16-.71,1.43Z"/><path class="cls-22" d="M234.06,75.93c0-.59.06-1.15.71-1.43l.06,0c0,.59-.06,1.16-.72,1.43Z"/><path class="cls-24" d="M243.35,159c0,.4,0,.8-.58.83A.79.79,0,0,1,243.35,159Z"/><path class="cls-14" d="M227.64,85.26a.93.93,0,0,1,.72-.72h0a1,1,0,0,1-.72.72Z"/><path class="cls-19" d="M346.1,222.33c-1.36-.89-2.29-1.61-1.63-3.32-.05-.71-.12-1.42-.14-2.13-.67-19.85-4.64-38.77-16-55.53l.19-.1c-.56,0-.73-.38-.88-.79-.92-.91-1.81-1.85-2.76-2.74-3.05-2.87-6.39-5.26-10.68-5.91.06,1.12,1.07,1.49,1.7,2.16,2.87,3,6.2,5.53,8.57,9a13.44,13.44,0,0,1,3.57,4.68,34.42,34.42,0,0,1,4.11,7.44c6.16,13.74,8.25,28.34,9.15,43.2.52,1.93,0,3.23-1.8,4.42a5.11,5.11,0,0,0-2,6,5.49,5.49,0,0,0,4.5,4,5.4,5.4,0,0,0,6.23-2.92A5.81,5.81,0,0,0,346.1,222.33ZM343.29,231a4.1,4.1,0,0,1-3.93-3.86,3.76,3.76,0,0,1,3.5-3.78,3.59,3.59,0,0,1,3.77,3.8A3.5,3.5,0,0,1,343.29,231Z"/><path class="cls-21" d="M307.45,148.91a4.51,4.51,0,0,0-1.4.22c-10.69,5.46-20.15,2.44-29.11-4.17a23.65,23.65,0,0,1-5.68-5.32c1.42-1.28,2.43-.22,3.33.25a57.77,57.77,0,0,0,12.91,4.85c5.78,1.43,11.24.49,16.58-1.8,1.18-.51,2.26-1.35,3.67-1.14C307.63,144.17,308.14,146.57,307.45,148.91Z"/><path class="cls-16" d="M345.82,121.73a2.06,2.06,0,0,1-1.42-1.33A35.37,35.37,0,0,0,348.88,110a34.66,34.66,0,0,0,.43-5.62c.05-1.07.19-1.9,1.5-1.89.61.27.63.82.64,1.37-.21.26-.64.54-.62.78.32,4.82-1.38,9.18-3,13.57h0c-1.42.53-1.52,1.7-1.44,3Z"/><path class="cls-22" d="M347.86,118.19c1.59-4.39,3.29-8.75,3-13.57,0-.24.41-.52.62-.78-.06,4,.44,8.1-1.44,11.9C349.51,116.76,349.48,118.16,347.86,118.19Z"/><path class="cls-22" d="M346.43,121.14c-.08-1.26,0-2.43,1.44-3A2.61,2.61,0,0,1,346.43,121.14Z"/><path class="cls-24" d="M328.49,161.24c-.56,0-.73-.36-.89-.78C328.07,160.53,328.42,160.73,328.49,161.24Z"/><path class="cls-18" d="M373,279.3c0,1.14,0,2.28-.05,3.42.21,1.31-.72,2.4-.76,3.66-2.59.3-5-.93-7.61-.8-4.34.2-5.34,1.58-3.81,5.79h0l-.64,0c-4.8-2.59-5.67-5.74-3.09-10.51,2.45-4.52,8.57-7,12.25-5.44C371.18,276.26,372.6,277.2,373,279.3Z"/><path class="cls-21" d="M361.3,298.53c2.28-.25,4.15,1.08,6,2a159.09,159.09,0,0,0,16.52,6.38c1,.34,2.53.15,2.45,2.24-4.88-1.18-9.38-3.13-14-4.78-3.47-1.24-6.52-3.36-10-4.42Z"/><path class="cls-21" d="M393,315a5.38,5.38,0,0,1-5.24,2.89l-4.24-.05c.08-.46.16-.91.25-1.37C387,317,389.88,315.56,393,315Z"/><path class="cls-25" d="M247,65.82a42.09,42.09,0,0,1,34.44-33.37c18.2-3.15,33.64,1.94,45.4,16.63a33.29,33.29,0,0,1,7.39,16.73l-3.53.32a15.09,15.09,0,0,1-.59-1.67,32.57,32.57,0,0,0-8.55-16.17C310,36.52,296.05,32.49,280.12,36.55c-14.06,3.58-24.07,12-28.51,26.27-.35,1.12-.21,2.41-1.09,3.35Z"/><path class="cls-26" d="M315.9,128.44l-.17,0c-.47,2.37-2.22,3.11-4.4,3.32-1.42.14-2.82.46-4.24.61a2.93,2.93,0,0,1-3.59-2.61c-.22-1.35-.07-2.58.91-3.29a4.83,4.83,0,0,1,.45-.26,4.47,4.47,0,0,1,.85-.27c3.1-.63,6.13-1.39,9.39-.23l.08,0a1,1,0,0,1,.36.62C315.65,126.91,315.81,127.88,315.9,128.44Z"/><path class="cls-27" d="M335.53,112.49s0,0,0,0a1.45,1.45,0,0,1-.09.22c-1.09,2.21-2.24,4.39-3.37,6.58a2,2,0,0,0-1,1.21h0l-.63.62c-.42.41-.85.81-1.29,1.19s-.72.61-1.09.9-.62.48-.94.71a26.19,26.19,0,0,1-2.71,1.7c-.35.2-.72.39-1.08.56s-.72.34-1.09.49c-.53.23-1.07.43-1.62.62s-.85.28-1.29.4l-.87.18-1.79.38-.78.16c-.09-.56-.25-1.53-.36-2a1,1,0,0,0-.36-.62,4.81,4.81,0,0,0,2.57.14,5.2,5.2,0,0,0,.68-.17c.23-.07.46-.15.68-.24s.45-.19.67-.3.44-.21.66-.33.43-.23.65-.36.64-.36,1-.55h0c4.85-2,7.85-5.8,10.17-10.29a1.85,1.85,0,0,0,.27-.78.32.32,0,0,0,0-.14.18.18,0,0,0-.06-.09s0,0-.07,0l1.06-.32,2.09.17Z"/><path class="cls-27" d="M340,102.91a2.26,2.26,0,0,1-.11.37,2.6,2.6,0,0,1-.13.36c-.13.35-.28.7-.41,1.06,0,.12-.08.24-.11.36a2.29,2.29,0,0,0-.07.36,2.34,2.34,0,0,0,0,.38,2.21,2.21,0,0,0,0,.51,4.71,4.71,0,0,0-1.63,2.49,3,3,0,0,0-.68.59,2.86,2.86,0,0,0-.28.4.86.86,0,0,0-.1.16,1.4,1.4,0,0,0-.15.3,2.56,2.56,0,0,0-.11.24c-.07.16-.13.32-.19.49-.12.34-.23.7-.35,1-.06.16-.12.32-.19.47l0,0-2.09-.17-1.06.32a.28.28,0,0,0-.12,0,1.61,1.61,0,0,0-.72.06,7.19,7.19,0,0,1-.83-4.1c0-5,.14-10,0-15a16.57,16.57,0,0,1,2.25-9.15l2,.5h0c.51.44,1,.89,1.43,1.35.25.26.48.52.71.79s.41.5.6.75c.05.08.11.15.17.23s.25.36.36.54a2.33,2.33,0,0,1,.17.26c.13.19.24.39.35.59l.12.21c.11.2.21.4.31.6a2.56,2.56,0,0,1,.11.24,7.83,7.83,0,0,1,.34.79,6.32,6.32,0,0,1,.22.61c.05.12.09.25.13.37s.17.55.24.83a7.78,7.78,0,0,1,.17.81c.06.27.1.55.14.83A23,23,0,0,1,340,102.91Z"/><path class="cls-27" d="M247.74,113c-3.09-1.23-5.05-3.68-6.83-6.31-.18-.44-.35-.88-.52-1.32a24.08,24.08,0,0,1-1.21-8.76,13.39,13.39,0,0,1,7.06-11.25l1.37-.08c2.26,1.58,2.95,3.87,2.94,6.48,0,5.12-.07,10.25,0,15.37a10.67,10.67,0,0,1-1.5,6.12Z"/><path class="cls-25" d="M249.1,113.21a10.67,10.67,0,0,0,1.5-6.12c-.12-5.12,0-10.25,0-15.37,0-2.61-.68-4.9-2.94-6.48.26-1.33,1.36-1.9,2.35-2.56,2.64-.1,4.69.78,5.66,3.43a1.86,1.86,0,0,0,.62,1.59l.12,2a97.56,97.56,0,0,1,.64,17.59c-.14,2.78-.64,5.42-3.48,6.85a4.87,4.87,0,0,1-4.36-.39A5.61,5.61,0,0,1,249.1,113.21Z"/><path class="cls-18" d="M250,82.68c-1,.66-2.09,1.23-2.35,2.56l-1.37.08c-.06-1.71-.8-2.78-3-2.61,3.58-3.37,2.19-7.63,3-11.37.38-1.8-.26-3.79.82-5.52l3.51.35C249.36,71.64,249.88,77.16,250,82.68Z"/><path class="cls-18" d="M334.92,84.93l-2-.5-1.48-1.36c-.06-5.65.19-11.32-.71-16.94l3.53-.32c1.2,3.33.7,6.8.76,10.21C335.05,79,335,82,334.92,84.93Z"/><path class="cls-16" d="M234.11,76c.66-.27.7-.84.72-1.43,2.26-3,2.56-6.68,3.56-10.11,1.21-4.11,1.85-8.42,4.29-12.09h0c.27,2.22-1,4.09-1.41,6.13-1,4.45-1.86,8.93-2.91,13.36a22.78,22.78,0,0,1-7,11.32,1.54,1.54,0,0,1-.84-1.45,5.62,5.62,0,0,0,2.87-4.29C234.05,77.14,234.1,76.57,234.11,76Z"/><path class="cls-18" d="M240.56,85.29a2.8,2.8,0,0,1-.87,1.88c-7.28,8.33-7.27,8.34-10.58,18.26a21.28,21.28,0,0,1,4.22-13.15c1.87-2.75,3.66-5.86,7.18-7Z"/><path class="cls-18" d="M249.1,113.21a5.61,5.61,0,0,0,.06.59,18.39,18.39,0,0,1-.55,4.14c-.8,2.54,0,5.1.67,7.55a11.82,11.82,0,0,1,.56,3.42h0a18.13,18.13,0,0,1-2.46-12.8c.14-1.05.27-2.11.38-3.16Z"/><path class="cls-18" d="M238.22,110c-1.41,5.58-2,11.18-.57,16.86C234.81,122.93,235.12,114.11,238.22,110Z"/><path class="cls-18" d="M337.58,108.8a4.71,4.71,0,0,1,1.63-2.49c1.12,4.67,3.37,9.25,1.2,14.17-.75-3.06,0-6.26-1.05-9.32C339,110.09,338.79,109.14,337.58,108.8Z"/><path class="cls-18" d="M330.7,131.78h0c.4-3.75,1.34-7.46.39-11.25h0a2,2,0,0,1,1-1.21C333.27,123.65,333.23,127.85,330.7,131.78Z"/><path class="cls-16" d="M227.65,85.27a1,1,0,0,0,.72-.72l.71-.07c.59.34.82.83.34,1.38-.82.94-1.7,1.82-2.49,2.65-.76-.19-.66-.69-.72-1.1A2,2,0,0,0,227.65,85.27Z"/><path class="cls-18" d="M240.39,105.33c.17.44.34.88.52,1.32-1.22,0-1,1.79-2.48,1.78C238.5,107,238.62,105.69,240.39,105.33Z"/><path class="cls-18" d="M254.12,133.93c.81,0,1.52.2,1.81,1.18-1.25.45-1.76,0-1.8-1.19Z"/><path class="cls-18" d="M330,133.21c-.2.53-.45,1-1.16,1-.24-1.06.54-1,1.15-1Z"/><path class="cls-18" d="M244.83,46.63c.24,0,.48,0,.71,0-.1.34.2.92-.47.92C245,47.54,244.91,47,244.83,46.63Z"/><path class="cls-16" d="M242.68,52.35c.09-.34-.16-.84.43-1,.32.55,0,.77-.44,1Z"/><path class="cls-18" d="M240.53,133.21c-.67-.26-.72-.83-.72-1.43h0c.67.26.72.83.72,1.43Z"/><path class="cls-18" d="M330,133.2c0-.59.06-1.16.72-1.42h0c0,.6-.06,1.17-.72,1.43Z"/><path class="cls-28" d="M302.13,25.9c-.6,0-1.26,0-1.51-.72h0A1.38,1.38,0,0,1,302.13,25.9Z"/><path class="cls-18" d="M241.22,84.53c.21-.41.45-.77,1-.44-.08.64-.61.39-1,.48Z"/><path class="cls-18" d="M253.41,133.21l.71.72h0a.91.91,0,0,1-.72-.71Z"/><path class="cls-18" d="M240.53,133.21l.35.35c-.07,0-.18,0-.22-.06a1,1,0,0,1-.13-.29Z"/><path class="cls-18" d="M251.26,131.07l-.35-.37c.08,0,.18,0,.22.06a1.38,1.38,0,0,1,.14.3Z"/><path class="cls-18" d="M241.26,84.57a.92.92,0,0,1-.7.72l-.05-.05a1,1,0,0,1,.71-.71Z"/><path class="cls-18" d="M252.69,132.5l.72.71h0a.91.91,0,0,1-.71-.72Z"/><path class="cls-18" d="M252.7,132.49a.9.9,0,0,1-.72-.71l.71.72Z"/><path class="cls-18" d="M251.27,131.06a1,1,0,0,1,.71.72.92.92,0,0,1-.72-.71Z"/><path class="cls-18" d="M239.81,131.78l-.35-.36c.08,0,.18,0,.22.06a1,1,0,0,1,.13.3Z"/><path class="cls-18" d="M245.53,46.63c0-.24,0-.48,0-.72C246.15,46.16,246.13,46.4,245.53,46.63Z"/><path class="cls-18" d="M310.65,29.46c.23-.53.45-.67.68,0h-.68Z"/><path class="cls-18" d="M249.84,128.91l.35.37c-.08,0-.19,0-.23-.06a1.38,1.38,0,0,1-.14-.3Z"/><path class="cls-19" d="M277,292.07a9.48,9.48,0,0,0-.39-3.46c-3.46,0-7-.44-10.5.29a8.48,8.48,0,0,1-2.11.27c-6.9-.42-13.76.58-20.63.87-8.4.36-16.79,1-25.19,1.43a51.91,51.91,0,0,0-28.89,10.67,1.73,1.73,0,0,1-1.85.27c1.77-2.46,4.22-3.61,6.47-5.05a34.55,34.55,0,0,1,7.34-3.56c2.68-.91,5.36-1.8,8.38-2.81-7.41-3.14-14.58-2.95-21.84-.71,9.29-5.29,18.47-2,28,.89,4.17-13.76,7.13-27.33,11.79-40.4-2.42,13.07-6.65,25.7-9.44,39.1a80.93,80.93,0,0,0,9-.05c6.36-.77,12.77-.72,19.12-1.37,6.84-.71,13.72-.35,20.56-1.26,3.38-.45,6.87-.08,10.13-.08,1.55,1.27-.07,3.31,1.51,4.34A1.43,1.43,0,0,1,277,292.07Z"/><path class="cls-21" d="M273.58,314.83a50.8,50.8,0,0,1,2.07-17c.73.45.66,1.19.63,1.88A20.72,20.72,0,0,0,280,312.94,12.46,12.46,0,0,1,273.58,314.83Z"/><path class="cls-19" d="M312.72,275.37c.46-4.51-.24-9-.6-13.44a19.9,19.9,0,0,1,.17-4.28c1.64,2.88,1.51,6.15,1.86,9.25a81,81,0,0,1,.16,8.54Z"/><path class="cls-21" d="M318.65,292.82l-.17,1.39a2.17,2.17,0,0,1-1.61-.62,82.34,82.34,0,0,0-7.39-6.79c2.23-.42,3.16.59,4.18,1.48C315.35,289.76,316.6,291.73,318.65,292.82Z"/><path class="cls-21" d="M322.32,285c-.1.82,0,1.73-.9,2.23-.73-1.65-2.46-2.09-3.76-3a20.76,20.76,0,0,1-3.58-3.5c2.59.07,3.88,1.45,5.27,2.61C320.25,284,321,285,322.32,285Z"/><path class="cls-21" d="M312.64,299.28c-2.75-1.27-4.14-3.55-6.22-5.4C309,294,311.24,295.9,312.64,299.28Z"/><path class="cls-21" d="M314.87,301.37a2.53,2.53,0,0,1-1.32,2.36c.21-1.16-.51-2.19-.54-3.3C314.27,299.65,314.13,301.31,314.87,301.37Z"/><path class="cls-21" d="M305.31,292.46a2.43,2.43,0,0,1-.23-.53c0-.05.14-.14.22-.22.08.18.18.36.24.54S305.39,292.39,305.31,292.46Z"/><path class="cls-28" d="M312.07,307.68a.94.94,0,0,1-.73.84C311.32,308,311.68,307.83,312.07,307.68Z"/><path class="cls-22" d="M372.19,286.38c0-1.26,1-2.35.76-3.66,5.31,3.06,11.36,4.18,16.95,6.52l.89.73,0,0a1.72,1.72,0,0,0,.07.68,1.4,1.4,0,0,1-1.83.66C383.43,289.54,377.63,288.59,372.19,286.38Z"/><path class="cls-21" d="M360.77,291.37c6.59,1.44,12.92,3.78,19.34,5.8l8.45,2.68c.51.16,1.24.08,1.25,1.22-2.51.35-4.67-1-6.93-1.58-6.77-1.67-13.19-4.5-20-6.1-1-.23-2.16-.56-2.13-2Z"/><path class="cls-21" d="M390.83,290.63a1.72,1.72,0,0,1-.07-.68,3,3,0,0,1,3.51,2.28C392.06,293.76,391.92,291.17,390.83,290.63Z"/><path class="cls-21" d="M395.1,311.38c0,.62,0,1.22-.72,1.45C394.36,312.22,394.45,311.66,395.1,311.38Z"/><path class="cls-21" d="M393.67,313.54c0,.61,0,1.18-.72,1.43A1.2,1.2,0,0,1,393.67,313.54Z"/><path class="cls-21" d="M390.79,290l-.89-.73A.91.91,0,0,1,390.79,290Z"/><path class="cls-21" d="M394.38,312.82a.79.79,0,0,1-.72.72A.91.91,0,0,1,394.38,312.82Z"/><path class="cls-27" d="M269.07,171.86a5.2,5.2,0,0,1,3.05.78,46.39,46.39,0,0,0,28.71,3.45c3.41-.64,6.43-2.36,9.37-4.15a3.42,3.42,0,0,1,1.91-.82c1,12.84.73,25.71.55,38.57-.18,12.38-1,24.74-2.17,37.07-.12,1.29-.44,2.57-.67,3.89-1-.33-1.12-1.21-1.44-1.92-10.33-23.31-23.1-45.37-34.87-67.95A82.3,82.3,0,0,1,269.07,171.86Z"/><path class="cls-22" d="M341.27,218.3c.52,1.93,0,3.22-1.8,4.42a5.11,5.11,0,0,0-2,6,5.51,5.51,0,0,0,4.49,4.06,5.42,5.42,0,0,0,6.24-2.94,5.8,5.8,0,0,0-2.11-7.5c-1.37-.89-2.29-1.61-1.64-3.32,5.37.6,8,3.76,7.73,9.51a9.05,9.05,0,0,1-8.44,8.5c-7.05.49-11.18-4.05-10.14-11.54.37-2.66,2.2-4.42,4.43-5.72A32.47,32.47,0,0,1,341.27,218.3Z"/><path class="cls-19" d="M324.44,163a13.44,13.44,0,0,1,3.57,4.69c-.53,1.72.05,3.31.6,4.87,2,5.69,3.25,11.61,4.87,17.41a5.94,5.94,0,0,1,0,1.54L322.65,197l11.09,11.24a355.67,355.67,0,0,1-18.95,46.25c-.44-2.37.83-4.25,1.68-6.17,5.11-11.49,9.64-23.2,14-35,1.29-3.52,1-6-2-8.42s-5.27-5.47-8.52-8A57,57,0,0,1,329.4,192c2.76-1.26,3-1.62,2-4.53-2.56-7.5-3.87-15.39-7.06-22.7C324.16,164.25,324.41,163.56,324.44,163Z"/><path class="cls-19" d="M263.93,215.15c1.31-.79.69-2,.73-3.12,1.56,0,1.79-1.29,2.35-2.27,1.84-3.25,2.67-7,5.33-10.52-5.37-.44-9.89-2.55-14.86-2.29a7.44,7.44,0,0,1-2.17-2c5.56,1,11.11,2,16.65,3.1a1.76,1.76,0,0,1,1.45,1.45l-4,9.07c-.58,1.3-1.08,2.64-1.73,3.9-1.1,2.13-.58,3.7,1.15,5.35,4.48,4.27,8.83,8.7,13.18,13.11.79.79,2,1.35,2,3-1.34.32-1.89-.79-2.56-1.46-4.67-4.6-9.3-9.25-14-13.86a8.59,8.59,0,0,0-2.68-2.3A1.65,1.65,0,0,1,263.93,215.15Z"/><path class="cls-14" d="M263.93,215.15a1.65,1.65,0,0,0,.87,1.06c1.64,7.46,2.55,15,3.48,22.61a33.69,33.69,0,0,1,0,8.86c-.37,2.62-1.17,5.46-4.67,5.81l-1.08-2c3.78-.65,3.72-4,3.59-6.39-.2-3.87-.46-7.78-.81-11.66-.55-6-2.42-11.79-2.63-17.82Z"/><path class="cls-14" d="M231.18,220.61l1.91-.42a205.34,205.34,0,0,0,4.54,25.34,31.31,31.31,0,0,0,2.37,6.28,4.66,4.66,0,0,0,4,3l.12,2.16c-4.1-.19-5.86-3.09-7.2-6.35-2.16-5.26-3.19-10.84-4.14-16.39C232,229.75,230.86,225.25,231.18,220.61Z"/><path class="cls-19" d="M207.62,186.68a17.69,17.69,0,0,1,6.58,5.91,74.75,74.75,0,0,1,12,27.46c1.38,6,1.86,12.1,2.78,18.16a2.34,2.34,0,0,1-.59,2.24,8.75,8.75,0,0,1-1.47-5.1,88,88,0,0,0-8-32.1c-2.35-4.89-5.16-9.63-9.32-13.35a18.41,18.41,0,0,1-1.69-1.83C207.79,187.92,207.81,187.63,207.62,186.68Z"/><path class="cls-19" d="M307.8,257c-1.1.08-1.72-.68-2.39-1.35q-9.62-9.58-19.22-19.18c-.54-.54-1.34-1-1.09-2,1.19-.54,1.62.42,2.14.94q9.63,9.56,19.22,19.17c.67.67,1.44,1.29,1.33,2.39Z"/><path class="cls-19" d="M245.52,164c0-.58,0-1.14.63-1.44a3.09,3.09,0,0,1,1.48,2.67c1.09,9.28,3.36,18.31,5.64,27.34a4.2,4.2,0,0,1,0,1.06,3.9,3.9,0,0,1-2-.95,33.13,33.13,0,0,0-.39-3.83c-.9-5.54-2.51-10.92-3.34-16.48C247.13,169.55,247,166.57,245.52,164Z"/><path class="cls-19" d="M244.14,257l-.12-2.16c1.8-2.25,4.31-1.44,6.59-1.43.91,0,1.25,1,1.38,1.85a2,2,0,0,1-.92,2.15C249.61,258.37,245.78,258.16,244.14,257Z"/><path class="cls-19" d="M262.53,251.46l1.08,2c-.05,1.61-1.06,2.29-2.48,2.5s-3.06.8-4.48-.13a2.43,2.43,0,0,1-1-2.51,1.89,1.89,0,0,1,2-1.69C259.24,251.57,260.87,250.92,262.53,251.46Z"/><path class="cls-18" d="M307.79,257l.35.34c-.08,0-.18,0-.22-.06a1.18,1.18,0,0,1-.12-.28Z"/><path class="cls-19" d="M325.5,87.13l-9.11-2.6c-1.43,0-2.85,0-4.27,0-5.08-.19-9.67.91-13.27,5.1a8.2,8.2,0,0,0-6.19-.25c-1.49.6-2.38-.39-3.45-1.18-6.43-4.77-18.22-5.16-24.53-.89l2.08.31c5.79-1.81,11.61-2.42,17.49-.35,4.89,1.73,6.16,4.18,4.67,9.06a12.35,12.35,0,0,1-14,8.93c-5.1-.81-7.62-4.48-9.11-9a39.78,39.78,0,0,1-.93-4.52h-1.37c-.24,2.59.77,4.9,1.67,7.21,2.09,5.37,6.24,8,11.84,8.09a12.74,12.74,0,0,0,12-6.94c1.42-2.53,1.87-5.32,2.39-8a4.53,4.53,0,0,1,3.48-.82c.85-.16,1.7-.4,2.41.34,1.13.39,1.19,1.37,1.24,2.33A15.66,15.66,0,0,0,300.4,100c4.31,8.58,16.69,9.43,22.24,1.6.58-.82.71-2.11,2.07-2.22C324.91,95.26,326.2,91.26,325.5,87.13ZM308,104.65c-4.63-1.53-8.33-7.12-7.88-12a6.08,6.08,0,0,1,3.54-5,12.7,12.7,0,0,1,1.79-.77,4,4,0,0,1,.45-.15c.46-.14.92-.27,1.39-.37l.29,0a19,19,0,0,1,4.14-.32l.61,0a21,21,0,0,1,2.63.06c.29,0,.58,0,.86.08l.86.13c.29,0,.58.09.86.15a22.4,22.4,0,0,1,2.53.66c2.92,1,3.77,2.27,3.73,5.3C323.63,101.59,316.16,107.38,308,104.65Z"/><path class="cls-25" d="M324.71,99.33c.2-4.07,1.49-8.07.79-12.2.08-.78.15-1.56.23-2.34a5.69,5.69,0,0,1,5.69-1.72l1.48,1.36a16.57,16.57,0,0,0-2.25,9.15c.16,5,.05,10,0,15a7.19,7.19,0,0,0,.83,4.1c-2.38,2.36-2.78,2.38-6.4.35C323.69,108.47,324.27,103.9,324.71,99.33Z"/><path class="cls-27" d="M283,120.65c7.17,3,14.36,1.36,22.36.21-2.11,3.7-5.15,4.64-8,5A15.9,15.9,0,0,1,283,120.65Z"/><path class="cls-15" d="M332.5,112.9a1.85,1.85,0,0,1-.27.78c-2.32,4.49-5.32,8.31-10.17,10.29.08-.35.15-.7.2-1s.13-.7.18-1.06c.13-.8.23-1.6.36-2.4.05-.33.11-.65.17-1s.11-.59.18-.88a.24.24,0,0,1,0-.08c.07-.32.15-.64.24-1,0-.16.09-.31.15-.47a9.18,9.18,0,0,1,.31-.88,10.26,10.26,0,0,1,.82-1.62,6.16,6.16,0,0,1,.41-.63c3.62,2,4,2,6.4-.35a1.61,1.61,0,0,1,.72-.06.28.28,0,0,1,.12,0,.27.27,0,0,1,.13.14A.32.32,0,0,1,332.5,112.9Z"/><path class="cls-21" d="M294.83,91.22c.84-.16,1.7-.41,2.41.34-1.38,1-1,2.3-.61,3.53,1.21,4.18,2.52,8.34,3.72,12.53,1,3.51-1,6.19-4.63,6.25-.64,0-.64,0-2-1.48.14-.17.26-.47.42-.5,4.35-.68,5-1.92,3.86-6.22C296.71,100.91,295,96.24,294.83,91.22Z"/><path class="cls-29" d="M264.68,87.29l2.08.31a5.64,5.64,0,0,0-1.91,4.11h-1.37c-.29-2.35-2.68-1-3.67-2.06,0-.62,0-1.24.05-1.87Z"/><path class="cls-19" d="M259.86,87.77c0,.63,0,1.25-.05,1.87l-3.45.11-.12-2A8.83,8.83,0,0,1,259.86,87.77Z"/><path class="cls-21" d="M279.88,117.46a1.25,1.25,0,0,1,1.43-1.44l0,0a1.25,1.25,0,0,1-1.44,1.42Z"/><path class="cls-21" d="M277,121.05v1.81c-1-.84-.73-1.36,0-1.82Z"/><path class="cls-21" d="M277.38,125a3.33,3.33,0,0,1-.21-.52s.13-.14.21-.21a4.77,4.77,0,0,1,.22.52S277.46,124.9,277.38,125Z"/><path class="cls-21" d="M281.31,116l.37-.36c0,.08,0,.2-.05.24a1.4,1.4,0,0,1-.3.15Z"/><path class="cls-21" d="M279.89,117.47a.9.9,0,0,1-.72.71h0a1,1,0,0,1,.71-.72Z"/><path class="cls-21" d="M279.17,118.18l-.35.37c0-.08,0-.19.05-.23a1.38,1.38,0,0,1,.3-.14Z"/><path class="cls-21" d="M277.73,120.32l.36-.36c0,.08,0,.19,0,.23a.94.94,0,0,1-.3.15Z"/><path class="cls-21" d="M277.74,120.34a.9.9,0,0,1-.71.71h0a.91.91,0,0,1,.71-.72Z"/><path class="cls-30" d="M245.52,164c1.44,2.6,1.61,5.58,2,8.37.83,5.56,2.44,10.94,3.34,16.48a33.13,33.13,0,0,1,.39,3.83,25.93,25.93,0,0,0-6.08-.84c-1.23-2.28-1.15-4.8-1.39-7.21-.64-6.39-.66-12.75,1-19A12.64,12.64,0,0,1,245.52,164Z"/><path class="cls-30" d="M257.48,197c5-.26,9.49,1.85,14.86,2.29-2.66,3.55-3.49,7.27-5.33,10.52-.56,1-.79,2.31-2.35,2.27C263.15,206.58,261.07,201.41,257.48,197Z"/><path class="cls-22" d="M346.63,227.2a3.5,3.5,0,0,1-3.34,3.84,4.11,4.11,0,0,1-3.93-3.86,3.77,3.77,0,0,1,3.49-3.77A3.57,3.57,0,0,1,346.63,227.2Z"/><path class="cls-15" d="M330.71,66.13a14.4,14.4,0,0,1-.59-1.67,32.65,32.65,0,0,0-8.55-16.17C310,36.51,296.05,32.49,280.13,36.55c-14.07,3.59-24.08,12-28.52,26.27-.35,1.12-.21,2.41-1.1,3.35-1.16,5.47-.63,11-.55,16.51,2.64-.09,4.69.78,5.66,3.43.95-.09,2-.08,2.5-1.07,2-3.84,5.25-6.68,7.84-10,3.85-5,6.37-10.8,8.91-16.55.71-1.62,1.26-3.31,2-4.93,1.05-2.28,1.93-2.53,3.67-.8,4.13,4.1,8.46,8,12.3,12.38a1.79,1.79,0,0,1,1.39.82c2,1.62,4.33,2.78,5.83,5a2.53,2.53,0,0,1,2.1,1.46c3.39.79,6.07,3.06,9.23,4.34,1.31-.12,2.48,1.46,4.1.21-3.34-2.46-7.8-2.74-10.54-5.93-.6,0-1.16-.06-1.42-.7.59,0,1.16,0,1.42.7a26.08,26.08,0,0,1,5.67,1.27A18.23,18.23,0,0,1,315.73,75a14.1,14.1,0,0,0,3.52,2.38c3.58,1.32,5.42,4,6.47,7.41a5.75,5.75,0,0,1,5.7-1.71C331.36,77.42,331.61,71.75,330.71,66.13Zm-78,1.25c-.13.11-.24.24-.36.35,0-.07,0-.18.06-.22a.87.87,0,0,1,.29-.14.81.81,0,0,1,1-.56C253.55,67.55,253.05,67.29,252.7,67.38Zm2.14,9.3-.36.35c0-.08,0-.18.06-.23a2.08,2.08,0,0,1,.3-.13c.37-.7.72-1.45,1.76-1.11C256.8,77.19,255.55,76.5,254.84,76.68Zm1.73-12.3a1.38,1.38,0,0,1-.3.14l-.71.71-.37.35c0-.08,0-.19.06-.23a.79.79,0,0,1,.3-.12.91.91,0,0,1,.72-.72l.35-.37C256.6,64.22,256.62,64.34,256.57,64.38Zm2.09-3.22c.13,0,.19.34.28.52a.53.53,0,0,1-.71.44c-.13,0-.27-.35-.26-.52A.5.5,0,0,1,258.66,61.16Zm1.91,12c-.27.65-.83.72-1.43.72-.07.57-.06,1.21-.93,1.14a.38.38,0,0,1-.24-.24c-.07-.87.59-.85,1.16-.92.26-.66.83-.72,1.42-.72.08-.58.08-1.22.93-1.15a.36.36,0,0,1,.25.24C261.8,73.05,261.15,73,260.57,73.11Zm3.88-22.33a1,1,0,0,1-.29.15c-.44,3.55-2.55,6.25-4.57,9,1.15-3.2,1.9-6.59,4.54-9l.37-.35C264.49,50.63,264.5,50.74,264.45,50.78Zm2.14,16.46a1,1,0,0,1-.3.14.94.94,0,0,1-.71.71l-.36.36c0-.08,0-.18,0-.23a1,1,0,0,1,.29-.14,1,1,0,0,1,.73-.71l.35-.36C266.63,67.09,266.64,67.2,266.59,67.24Zm45.06-24.13c.13.22.07.5-.2.51-.61,0-1-.31-1.18-1.14A1.33,1.33,0,0,1,311.65,43.11Zm-29-3.83c7.9-1.73,15.72-2.05,23.33,1.23A56.67,56.67,0,0,0,282.62,39.28ZM298.86,52.7c-.09,0-.19,0-.24-.06a.86.86,0,0,1-.13-.29c-.25-.23-.48-.47-.72-.71l-.72-.72a1,1,0,0,1-.72-.72l-.35-.36c.08,0,.2,0,.24,0a2.09,2.09,0,0,1,.14.3,1,1,0,0,1,.71.72,1,1,0,0,1,.72.71.92.92,0,0,1,.7.72Zm-3.27,11.69c2.63.81,5,.9,5.75,3.68C299,67.67,299,67.65,295.59,64.39Zm5.77,3.72a2.25,2.25,0,0,1,1.4,1.39C301.8,69.53,301.33,69.08,301.36,68.11Zm1.45,1.43a.88.88,0,0,1,.67.68A.87.87,0,0,1,302.81,69.54Zm2.83-11.46a1,1,0,0,1-.71-.71c-.6,0-1.17-.07-1.43-.72a1.24,1.24,0,0,1-1.44-1.43l-.36-.36c.09,0,.19,0,.24,0a.87.87,0,0,1,.14.29,1.24,1.24,0,0,1,1.43,1.43c.6,0,1.17.06,1.43.72a1,1,0,0,1,.72.71c.71.12,1.67-.31,2,1C306.52,59.62,306.06,58.9,305.64,58.08Zm4.28,2.16-1-.18c.57-.83.79-.23,1.05.14a31.19,31.19,0,0,1,11,4.76C317.22,63.48,312.93,63.35,309.92,60.24Zm12.73,7s-.13-.15-.18-.23a2.55,2.55,0,0,1,.53-.18c.05,0,.12.15.18.23A3.68,3.68,0,0,1,322.65,67.22Z"/><path class="cls-20" d="M316.38,81.72c-2.31-1.27-4.75-1-7.16-.44a8.57,8.57,0,0,1-5,.09c1.14-3.34,4.19-2.52,6.38-3.31.25-.47.48-.93.73-1.39-3.16-1.28-5.84-3.55-9.23-4.34a47.93,47.93,0,0,0-16.51-.07c-2.88.49-5.87-.44-8.76,1.06.08-1.79,1.13-1.49,1.94-1.66,5.51-1.15,11.07-.62,16.61-.71l4.62-.08c-1.5-2.17-3.87-3.33-5.83-5a9.91,9.91,0,0,1-5.64,1.43c-2.94,0-5.89,0-9.45,0,3.51-1.77,6.67-1.3,9.76-1.47,1.33-.06,2.88.69,3.94-.79-3.84-4.38-8.17-8.28-12.3-12.38-1.74-1.73-2.62-1.48-3.67.8-.73,1.62-1.28,3.31-2,4.93C272.33,64.2,269.81,70,266,75c-2.59,3.36-5.84,6.2-7.84,10-.51,1-1.55,1-2.5,1.07a1.89,1.89,0,0,0,.62,1.59,8.83,8.83,0,0,1,3.62.07l4.82-.48c6.31-4.27,18.1-3.88,24.53.89,1.07.79,2,1.78,3.45,1.18a8.2,8.2,0,0,1,6.19.25c3.6-4.19,8.19-5.29,13.27-5.1,1.42,0,2.84,0,4.27,0C316.39,83.59,316.39,82.66,316.38,81.72Zm-40-.81c-2.74.27-4.71,2.67-7.58,2.6.54-3.28,5.49-5.83,10.22-5.39,4.32.4,5.64,1.32,5.58,4.23C281.83,81.75,279.22,80.63,276.35,80.91Z"/><path class="cls-20" d="M284.25,87.25c-5.88-2.07-11.7-1.46-17.49.35a5.64,5.64,0,0,0-1.91,4.11,39.78,39.78,0,0,0,.93,4.52c1.49,4.53,4,8.2,9.11,9a12.35,12.35,0,0,0,14-8.93C290.41,91.43,289.14,89,284.25,87.25Zm-4.66,3.61c.17.69.54,1.34.65,2,.28,1.91-1,4.1-2.35,4.3s-2.83-1.38-3-3.64c-.07-1,.74-2.42-1.08-2.79,2.84-2.52,3.49-2.64,6.62-1.06C280.21,90.29,279.45,90.27,279.59,90.86Z"/><path class="cls-20" d="M320,87.1a22.4,22.4,0,0,0-2.53-.66c-.28-.06-.57-.11-.86-.15l-.86-.13c-.28,0-.57-.07-.86-.08a21.06,21.06,0,0,0-2.64-.07l-.6,0a19,19,0,0,0-4.14.32l-.29,0c-.47.1-.93.23-1.39.37a4,4,0,0,0-.45.15,12.7,12.7,0,0,0-1.79.77,6.08,6.08,0,0,0-3.54,5c-.45,4.85,3.25,10.44,7.88,12,8.2,2.73,15.67-3.06,15.8-12.25C323.8,89.37,323,88.06,320,87.1Zm-8.71,2.72c1.62,3.76,1.26,5.41-1.67,7.51-3.3-1.78-3.51-2.44-2.17-6.85l-1.31-.88c1.72-1.29,3.45-1,5.18-.62a1.56,1.56,0,0,1,2,.86C312.56,90.39,312,89.76,311.32,89.82Zm3.92,1.5c-.2,0-.29-.07-.26-.29h-.05l-.05-.08-.52-.09.26-.36c.09.15.18.3.26.45l.1,0V91a.79.79,0,0,1,.23.09S315.25,91.32,315.24,91.32Z"/><path class="cls-17" d="M316.39,84.54V81.72c1.14.18,1.78,2.09,3.32,1,.1-1.56-.8-2.34-2-2.94a14.16,14.16,0,0,0-7-1.72c.24-.47.49-.93.73-1.39,1.31-.12,2.48,1.46,4.1.21-3.34-2.46-7.79-2.74-10.55-5.93h0a21.11,21.11,0,0,1,10.8,4,14.42,14.42,0,0,0,3.52,2.37c3.58,1.31,5.42,4,6.48,7.42-.08.78-.15,1.56-.23,2.34Z"/><path class="cls-18" d="M306,40.51a56.67,56.67,0,0,0-23.33-1.23C290.52,37.55,298.34,37.23,306,40.51Z"/><path class="cls-21" d="M302.15,72.33a48.18,48.18,0,0,0-16.51-.07c-2.88.48-5.88-.44-8.76,1.06.08-1.79,1.13-1.49,1.94-1.66,5.5-1.15,11.07-.61,16.61-.71l4.62-.08A2.54,2.54,0,0,1,302.15,72.33Z"/><path class="cls-21" d="M294.21,65.92a9.85,9.85,0,0,1-5.62,1.43c-2.95,0-5.9,0-9.46,0,3.51-1.77,6.67-1.31,9.76-1.47,1.32-.07,2.88.69,3.94-.79A1.78,1.78,0,0,1,294.21,65.92Z"/><path class="cls-15" d="M309.17,59.86A35.94,35.94,0,0,1,321.7,65.3c-4.23-1.69-9.13-1.84-12.56-5.4Z"/><path class="cls-18" d="M264.16,50.93c-.44,3.55-2.55,6.25-4.57,9,1.15-3.19,1.9-6.58,4.54-9Z"/><path class="cls-17" d="M301.37,68.08c-2.37-.42-2.37-.42-5.78-3.69,2.65.81,5,.9,5.75,3.71Z"/><path class="cls-18" d="M254.83,76.67c.38-.71.73-1.45,1.77-1.11.2,1.63-1.05,1-1.76,1.12Z"/><path class="cls-15" d="M305.66,58.06c.71.12,1.66-.31,2,1-1.13.55-1.59-.17-2-1Z"/><path class="cls-18" d="M259.14,73.82c-.07.58-.06,1.23-.92,1.15a.38.38,0,0,1-.25-.24c-.07-.86.59-.85,1.16-.92Z"/><path class="cls-18" d="M258.94,61.68a.54.54,0,0,1-.71.44.63.63,0,0,1-.26-.52.5.5,0,0,1,.69-.44C258.79,61.2,258.85,61.5,258.94,61.68Z"/><path class="cls-18" d="M310.28,42.48a1.31,1.31,0,0,1,1.37.63c.14.22.07.49-.2.51C310.84,43.65,310.45,43.31,310.28,42.48Z"/><path class="cls-15" d="M302.08,55.2a1.24,1.24,0,0,1,1.43,1.43l0,0a1.24,1.24,0,0,1-1.43-1.43Z"/><path class="cls-18" d="M260.55,73.09c.08-.58.08-1.22.94-1.15a.36.36,0,0,1,.24.24c.07.87-.58.85-1.16.93Z"/><path class="cls-17" d="M302.8,69.51c-1,0-1.49-.43-1.43-1.43l0,0a2.28,2.28,0,0,1,1.43,1.43Z"/><path class="cls-18" d="M260.57,73.11c-.27.65-.83.71-1.43.71h0c.26-.66.83-.72,1.42-.72Z"/><path class="cls-17" d="M304.93,71c-.59,0-1.16-.06-1.42-.72l0,0c.6,0,1.18,0,1.44.7Z"/><path class="cls-15" d="M323.18,67a3.31,3.31,0,0,1-.53.18s-.12-.15-.19-.23a2.63,2.63,0,0,1,.54-.18C323.05,66.8,323.12,67,323.18,67Z"/><path class="cls-18" d="M252.69,67.37a.83.83,0,0,1,1-.57c-.14.75-.64.49-1,.58Z"/><path class="cls-15" d="M304.93,57.36c-.6,0-1.17,0-1.44-.71l0,0c.6,0,1.16.06,1.43.72Z"/><path class="cls-15" d="M309.92,60.24l-1-.18c.57-.83.79-.23,1.05.14Z"/><path class="cls-17" d="M303.51,70.23a.9.9,0,0,1-.71-.72l0,0a.89.89,0,0,1,.72.72Z"/><path class="cls-15" d="M302.06,55.22l-.36-.37c.08,0,.19,0,.24,0a1.38,1.38,0,0,1,.14.3Z"/><path class="cls-18" d="M265.58,68.1l-.36.36c0-.09,0-.2,0-.24a1,1,0,0,1,.3-.14Z"/><path class="cls-15" d="M298.5,52.34l.36.36c-.08,0-.19,0-.24-.05a1,1,0,0,1-.13-.3Z"/><path class="cls-15" d="M297.78,51.62a1,1,0,0,1,.72.72h0l-.72-.71Z"/><path class="cls-18" d="M252.69,67.38l-.35.35c0-.07,0-.18.06-.22a1.3,1.3,0,0,1,.29-.14Z"/><path class="cls-15" d="M297.07,50.91a.92.92,0,0,1,.71.71v0l-.72-.72Z"/><path class="cls-15" d="M297.05,50.92a1,1,0,0,1-.71-.71v0a1,1,0,0,1,.72.72Z"/><path class="cls-18" d="M266.28,67.37l.36-.36c0,.08,0,.19-.05.23a1,1,0,0,1-.3.14Z"/><path class="cls-18" d="M264.13,50.9l.37-.35c0,.08,0,.19-.05.24a1.12,1.12,0,0,1-.29.14Z"/><path class="cls-15" d="M296.34,50.21l-.36-.37c.08,0,.19,0,.24,0a1,1,0,0,1,.13.3Z"/><path class="cls-18" d="M255.56,65.23l-.37.35c0-.08,0-.19.06-.23a1,1,0,0,1,.3-.13Z"/><path class="cls-18" d="M255.55,65.22a.92.92,0,0,1,.72-.71h0l-.72.71Z"/><path class="cls-18" d="M256.27,64.51l.35-.36c0,.08,0,.18-.05.23a1.3,1.3,0,0,1-.29.14Z"/><path class="cls-18" d="M254.84,76.68l-.36.35c0-.08,0-.18.06-.22a1,1,0,0,1,.29-.14Z"/><path class="cls-15" d="M304.94,57.35a1,1,0,0,1,.72.71l0,0a1,1,0,0,1-.71-.72Z"/><path class="cls-18" d="M265.57,68.08a1,1,0,0,1,.71-.71h0a1,1,0,0,1-.71.72Z"/><path class="cls-15" d="M268.77,83.51c.55-3.28,5.49-5.82,10.22-5.39,4.32.4,5.65,1.32,5.58,4.23-2.74-.6-5.35-1.72-8.22-1.44S271.63,83.58,268.77,83.51Z"/><path class="cls-15" d="M310.65,78.06a14.16,14.16,0,0,1,7,1.72c1.22.6,2.12,1.38,2,2.94-1.54,1.09-2.18-.82-3.32-1-2.32-1.27-4.76-1-7.16-.43a8.57,8.57,0,0,1-5,.08C305.41,78,308.46,78.85,310.65,78.06Z"/><path class="cls-29" d="M280.43,89.69c-.22.59-1,.58-.84,1.17s.55,1.33.65,2c.28,1.91-1,4.1-2.35,4.3s-2.83-1.38-3-3.64c-.08-1,.74-2.42-1.07-2.79C276.64,88.23,277.3,88.11,280.43,89.69Z"/><path class="cls-29" d="M311.32,89.82c1.62,3.76,1.26,5.41-1.67,7.51-3.3-1.79-3.5-2.43-2.16-6.85l-1.33-.88c1.73-1.29,3.45-1,5.19-.62Z"/><path class="cls-19" d="M311.32,89.82l0-.84a1.56,1.56,0,0,1,2,.86C312.56,90.38,312,89.76,311.32,89.82Z"/><path class="cls-19" d="M314.93,91a1.33,1.33,0,0,1,.28.1s0,.2,0,.2c-.22,0-.31-.09-.26-.36Z"/><path class="cls-19" d="M315,91l-.62-.11.26-.36.31.53Z"/><path class="cls-20" d="M306.21,123.22,295.07,129l-18.82-3-3.66-9.19,3.84-3.54,12.06,2,2.31-4.38,2.38-14.19.47-5.2a3.66,3.66,0,0,0,.48-.16,2.64,2.64,0,0,1,.55-.12,1.91,1.91,0,0,1,.61-.13c.3,0,1.73-.6,2.13.5s-.37,1.44-.37,1.44l2.49,9.23,10.39,15.15Z"/><path class="cls-20" d="M287.09,96l-8.41,3-8.95-5s-1.58-4.39.24-4.87,4.39-1.34,4.39-1.34a8.13,8.13,0,0,1,2.5-.12c1,.18,3,.48,3,.48s3.35.43,3.65.92,1.65,2.68,2.26,3.71A23.48,23.48,0,0,1,287.09,96Z"/><path class="cls-20" d="M310.32,99.26a5.43,5.43,0,0,1-2.92-1,61.73,61.73,0,0,1-6.67-7.49,16.72,16.72,0,0,1,1.74-2.28s5-.46,5.29-.46,4.66-.73,5.39-.64,3.66,0,4.39,1.19,1.92.46,1.28,2.92S310.32,99.26,310.32,99.26Z"/><path class="cls-31" d="M442,187.14v.11c0,1.34.36,3.05-.42,4.25-.57.89-1.52.85-2.37,1.32-2.32,1.29-3,5.07-2,7.35s3.13,3.46,5.33,4.23a19.24,19.24,0,0,0,14.45-.73c1.67-.79,3.4-2,3.82-4s-.93-3.66-1.41-5.52.31-3.09.22-4.75c-.07-1.22-.95-1.71-1.9-2.26-1.95-1.12-1.45-3.61-2.36-5.39a6.24,6.24,0,0,0-4.86-3.28,7.45,7.45,0,0,0-6.16,2.44A9.35,9.35,0,0,0,442,187.14Z"/><path class="cls-32" d="M462.83,202.29l13,20a3.36,3.36,0,0,1-5.39,3.86h0l-.17-.18-.14-.18L454.8,208.29c-2.81-3.25-.36-6.8,1.67-7.79A5,5,0,0,1,462.83,202.29Z"/><path class="cls-32" d="M463.76,244.3a35.15,35.15,0,0,1-7.12,2c.58-1.17,1.16-2.32,1.75-3.49.23-.46.79-2,1.44-3.15.13-.23.25-.43.38-.63l.05-.09c.42-.62.86-1,1.26-.86,0,0,.05,0,.08,0a1.74,1.74,0,0,1,.29.25,2.41,2.41,0,0,1,.42.75s0,.07.05.1c.22.53.42,1.07.59,1.61a5.24,5.24,0,0,1,.2.64A18.91,18.91,0,0,1,463.76,244.3Z"/><path class="cls-33" d="M464.26,244.1l-.5.2a35.15,35.15,0,0,1-7.12,2c-.78.13-1.58.24-2.39.31.06-.09.11-.19.16-.27,1.86-3,3.25-5.08,4.25-6.57.26-.39.5-.72.71-1l.39-.53c.7-1,1.09-1.39,1.25-1.42h0s0,0,0,0a3.77,3.77,0,0,1,.31.5c.09.16.2.35.37.6l.13.18s0,0,0,0a1.11,1.11,0,0,0,.12.16c.29.42.54.68.57.76l0,.1a25.06,25.06,0,0,1,.91,2.34c0,.07.05.13.07.2h0A23,23,0,0,1,464.26,244.1Z"/><path class="cls-32" d="M443.24,242.48c.69,1.27,1.38,2.56,2,3.85a35.77,35.77,0,0,1-7.39-2,19.9,19.9,0,0,1,1.31-5.41.14.14,0,0,1,0-.06,2,2,0,0,1,.68-1,.18.18,0,0,1,.08-.05c.54-.23,1.21.62,1.81,1.66l.22.43C442.57,241,443,242.09,443.24,242.48Z"/><path class="cls-33" d="M447.73,246.62c-.83-.07-1.64-.17-2.45-.29a35.77,35.77,0,0,1-7.39-2,.11.11,0,0,1-.07,0l-.21-.08a20.36,20.36,0,0,1,.41-2.48,0,0,0,0,1,0,0,19.52,19.52,0,0,1,.93-3,.91.91,0,0,1,.12-.17c.14-.19.4-.52.68-1l.35-.6a3.06,3.06,0,0,1,.29-.51c.13-.08.64.43,1.74,1.91.32.43.7.95,1.12,1.56,1,1.42,2.33,3.35,4,5.92C447.44,246.13,447.59,246.38,447.73,246.62Z"/><path class="cls-32" d="M437.14,203.92,436,227.69a3.37,3.37,0,0,0,6.6.64h0a1.05,1.05,0,0,0,.06-.24,1.81,1.81,0,0,0,0-.23l4.43-22.78c.8-4.21-3.11-6-5.36-5.89A5,5,0,0,0,437.14,203.92Z"/><path class="cls-34" d="M437.22,203.16a4.15,4.15,0,0,1,2.45-3.35,26.35,26.35,0,0,1,6.52-1.77c3-.44,2.34,6.19.49,9.13-2.95,3.91.17,8.6-2.78,12.51a21.21,21.21,0,0,1-9-1.77Z"/><path class="cls-34" d="M452.86,197.73a15.48,15.48,0,0,1,9.81,2.78c1.08,1,.15,2.11,1.15,2.09s2.39.78,1,2.7-3.17,9-4.49,10Z"/><path class="cls-34" d="M461.34,214.16a14.6,14.6,0,0,0,.91-2.88c.67-3.86-3-5.1-4.14-8.22a29.07,29.07,0,0,0-.9-3.1c-1.16-2.22-4.64-2.31-6.81-2.4-2.68-.1-6.12.43-7.3,3.19-.55,1.26-.69,2.66-1.17,3.95-.83,2.23-2.65,4.14-2.77,6.52s1.36,4.3,2.23,6.42c2,4.94,0,10.2-1.32,15.07-.4,1.51-1.95,5.43-.5,6.73,1.23,1.11,21.9.73,23.09-.42,1.45-1.4.23-3.93-.26-5.42a53.77,53.77,0,0,1-2.22-6.9,22.28,22.28,0,0,1,.62-11.15C461,215.08,461.15,214.62,461.34,214.16Z"/><path class="cls-33" d="M465.48,243.58c-.4.18-.81.36-1.22.52l-.5.2a35.15,35.15,0,0,1-7.12,2c-.78.13-1.58.24-2.39.31s-1.42.12-2.14.14l-.68,0c-1.25,0-2.48,0-3.7-.12-.83-.07-1.64-.17-2.45-.29a35.77,35.77,0,0,1-7.39-2,.11.11,0,0,1-.07,0c0-.9.1-1.75.2-2.56a0,0,0,0,1,0,0,32.09,32.09,0,0,1,1-5v0c.19-.66.37-1.25.56-1.78,3.56,2,8.33,2.3,12.6,1.87l.63-.07h0a30.27,30.27,0,0,0,8-2c1-.43,1.56-.85,1.56-1.13v0a22.16,22.16,0,0,1,1,2c.19.4.38.84.58,1.31h0c0,.1.07.19.11.29s0,.09.06.15h0a19.87,19.87,0,0,1,.76,2.49,16.52,16.52,0,0,1,.34,1.83h0A16.3,16.3,0,0,1,465.48,243.58Z"/><path class="cls-35" d="M452.19,245.66c0,.35,0,.7-.08,1.05"/><path class="cls-35" d="M452.18,236.79s1,7.64.14,7.65l-1.51,0-.16-7.54"/><path class="cls-35" d="M442.3,236.63s.28,4.42-2.85,4.22"/><path class="cls-35" d="M460.68,235.78c.52,2,1.94,3.43,3.41,2.8"/><path class="cls-32" d="M446.87,199.37a3.31,3.31,0,0,0,6.15-.29c0-.56-1.43-.94-3.12-.86S446.85,198.81,446.87,199.37Z"/><rect class="cls-32" x="447.83" y="193.85" width="4.06" height="6.82" transform="translate(-8.8 21.43) rotate(-2.7)"/><path class="cls-31" d="M447.73,195.21l-.09-1.91,4.06-.19.14,2.95A10.54,10.54,0,0,1,447.73,195.21Z"/><path class="cls-32" d="M449.41,179.54c4.28-.2,6,3.28,6.16,7.52.19,4-2.27,7.48-5.45,7.63-3.34.16-5.95-3.08-6.14-7.08C443.78,183.36,445.13,179.74,449.41,179.54Z"/><path class="cls-31" d="M443.17,188.7c.42.05.07-3.2,2.36-5.46s5.58-1.77,5.72-3c.09-.82-1.37-1.86-2.73-2-2.66-.25-4.53,3-4.86,3.66C442,185.07,442.73,188.66,443.17,188.7Z"/><path class="cls-31" d="M455.56,187.56c-.23,0,.13-1.67-.64-3.86a4.87,4.87,0,0,0-1-1.92c-.71-.77-1.31-.81-2.64-1.5-.93-.47-2.87-1.61-2.73-2s2.92-.33,5.09,1.2a6.74,6.74,0,0,1,2.81,4.4C456.67,185.86,455.8,187.59,455.56,187.56Z"/><path class="cls-32" d="M445.08,188.73c.55.85.78.49.14.91a1.9,1.9,0,0,1-2-3.06C443.87,186.16,444.53,187.89,445.08,188.73Z"/><path class="cls-32" d="M454.42,188.29c-.47.89-.28.54.4.89a1.89,1.89,0,0,0,1.69-3.23C455.84,185.6,454.89,187.4,454.42,188.29Z"/><path class="cls-31" d="M443,186.29a3.74,3.74,0,0,1,2,2.75c.08-.61,0-1.2,0-1.81s.09-1.18.1-1.77l0-2.55Z"/><path class="cls-31" d="M456,185.49a10.33,10.33,0,0,1-.42,1.22c-.12.29-.2.61-.3.91a2.91,2.91,0,0,0-.28.83c-.15-1.07-.29-2.14-.44-3.2a21.85,21.85,0,0,0-.4-2.81c-.07-.27-.19-1.05-.41-1.22a5.34,5.34,0,0,1,2,3.12Z"/><path class="cls-35" d="M443.61,188a.51.51,0,0,1,.42.45.17.17,0,0,0-.13.32"/><path class="cls-35" d="M456.11,187.31a1.06,1.06,0,0,0-.46.58.19.19,0,0,1,.24.13.19.19,0,0,1-.14.23"/><path class="cls-31" d="M448.81,191.76a2.75,2.75,0,0,1,2.09-.09,1.72,1.72,0,0,0-.63-1,1.06,1.06,0,0,0-1-.08A1.27,1.27,0,0,0,448.81,191.76Z"/><path class="cls-35" d="M449.85,187.58v1l.5-.27a.27.27,0,0,1,.19-.06c.13,0,.16.2.13.33a.88.88,0,0,1-.66.65"/><path class="cls-31" d="M453.7,186.26c0,.06-.2,0-.54-.06-.68-.16-1.62-.52-1.58-.75s.4-.19.45-.19C452.93,185.15,453.79,186.09,453.7,186.26Z"/><path class="cls-31" d="M446,186.09s.21,0,.54-.11c.66-.22,1.56-.66,1.5-.9s-.42-.14-.47-.14C446.63,184.92,445.87,185.93,446,186.09Z"/><path class="cls-32" d="M449.47,226.88h0l-.37,0a2.08,2.08,0,0,1,.17-4.1h0l22.31-2.29h.26a3.51,3.51,0,0,1,.85.06,3.36,3.36,0,0,1-.63,6.65H472Z"/><path class="cls-32" d="M459.85,238.85v0a2.33,2.33,0,0,0,.36.08,2.08,2.08,0,0,0,1.08-4h0L440.66,226l-.16-.07-.07,0h0a3.63,3.63,0,0,0-.82-.19,3.36,3.36,0,0,0-1.41,6.53h.06Z"/><path class="cls-35" d="M442.61,203a18.36,18.36,0,0,1-2.24,4.89,6.13,6.13,0,0,0-1.11,4.64,17.31,17.31,0,0,0,1.78,4,12.88,12.88,0,0,1,1.28,6.55"/><path class="cls-35" d="M459.89,221.05q.45-3.72.88-7.43a11.39,11.39,0,0,0-.06-4.47c-.7-2.49-3.07-4.5-2.92-7.09"/><path class="cls-32" d="M460.85,235.31a.83.83,0,0,1,.52-.11,8.86,8.86,0,0,1,1.76.32c1.16.22,2.14.2,2,.87-.08.41-.5.7-1.06.82a19.57,19.57,0,0,1,2.26,3.09c0,.29-.38.5-.49.62s.16.27-.13.55a2.67,2.67,0,0,1-.62.28.5.5,0,0,1-.39-.17c-.06-.11-.34.29-.67.29h0c-.3,0-.45-.45-.56-.55s-.34.32-.94.07a5.9,5.9,0,0,1-2-1.94C458.52,236.46,459.49,236.22,460.85,235.31Z"/><path class="cls-35" d="M462.36,240l1.31,1.74"/><path class="cls-35" d="M463.44,239.55l1.57,2.16"/><path class="cls-35" d="M464.17,238.86l1.62,2"/><path class="cls-35" d="M462.78,236.09a4.39,4.39,0,0,1,2,1.67"/><path class="cls-32" d="M450.45,223.78a.81.81,0,0,0-.32-.43,9.61,9.61,0,0,0-1.53-.92c-1-.59-1.75-1.25-2.09-.65a1.2,1.2,0,0,0,.26,1.3,20.21,20.21,0,0,0-3.74.85c-.2.21,0,.62,0,.79s-.3.09-.26.5a2.57,2.57,0,0,0,.28.61.46.46,0,0,0,.41.13c.12,0,.07.45.3.66l0,0c.26.17.64,0,.79,0s0,.47.66.67a5.81,5.81,0,0,0,2.8-.14C451.44,226.17,450.88,225.35,450.45,223.78Z"/><path class="cls-35" d="M446.23,226.31l-2.13.45"/><path class="cls-35" d="M445.71,225.27l-2.61.59"/><path class="cls-35" d="M445.61,224.27l-2.56.47"/><path class="cls-35" d="M446.69,187.62a.69.69,0,0,1,.52-.7.68.68,0,0,1,.76.42"/><path class="cls-35" d="M451.72,187.32a.53.53,0,1,1,1,.13"/><path class="cls-36" d="M225,89.57a55.73,55.73,0,0,1,6.13-10.34c2.36-3.38,5.61-13,6.19-16.34s1.47-5.17,3.19-9.63,2.11-5.6,2.51-6.15a29.59,29.59,0,0,1,2.38-2.39c.09,0,.9-.44,1-.44s1.92-.83,1.7,1.34-4.4,15.32-4.4,15.32-3.15,14-3.4,14.21-10.47,11.32-11.15,11.66a36.79,36.79,0,0,0-3.49,3.06Z"/><path class="cls-36" d="M350.38,102.09c.32.38.34-.09.64.44s.66.87.58,1.21a4,4,0,0,0-.28.88c0,.29-.17,5.57-.17,5.57s-.49,3.6-.58,3.68-2.31,4.15-2.31,4.15-.71.49-.73.64-.7,1.62-.7,1.62a3.77,3.77,0,0,1-.42,1,4.22,4.22,0,0,1-1.31.86c-.09,0-1.88-.08-1.88-.08l2.87-10.24-1.32-9.19,4-2.17Z"/><path class="cls-18" d="M250.94,78.21c.63-.21,0,.81,3-1.53s2.89-2,8-6.3,6.3-6,7.19-7.7-1,3.36-2.17,6.09-7.87,8.55-11.36,10.12S250.94,78.21,250.94,78.21Z"/><path class="cls-18" d="M252,68.38a21.11,21.11,0,0,0,6.77-5.66c2.68-3.23,4.76-6.17,5.87-9.44s1-3.58,2.77-4.9-3.15-.34-4.05.81-2.55,6.9-4.25,9.53-3.24,3.58-4.55,5.19-4.17,4.13-4,5.15,1.28,1.15,1.32.6S252,68.38,252,68.38Z"/><path class="cls-15" d="M289.66,60.72c3.45,4.85,1.82,3.58,4.85,6.35s14.77,8.93,18.34,10,3.62.12,3.62.12-.3.34-5.11-2.46-17-11.11-17-11.11l7.88,4.94,4,2.51,6.68.59L296,60Z"/><circle class="cls-10" cx="527.58" cy="352.48" r="42.24"/><path class="cls-4" d="M507.31,335.93h1.47a.87.87,0,0,0,0-1.73h-1.47a.87.87,0,0,0,0,1.73Z"/><path class="cls-4" d="M514.47,335.93h1.47a.87.87,0,0,0,0-1.73h-1.47a.81.81,0,0,0-.86.86A.87.87,0,0,0,514.47,335.93Z"/><path class="cls-4" d="M521.71,335.93h1.47a.87.87,0,0,0,0-1.73h-1.47a.87.87,0,0,0,0,1.73Z"/><path class="cls-4" d="M515.94,355.85a5.61,5.61,0,1,0-5.61-5.61A5.59,5.59,0,0,0,515.94,355.85Zm0-9.49a3.88,3.88,0,1,1-3.88,3.88A3.87,3.87,0,0,1,515.94,346.36Z"/><path class="cls-4" d="M509.3,360h13.28a.87.87,0,0,0,0-1.73H509.3a.82.82,0,0,0-.87.86A.87.87,0,0,0,509.3,360Z"/><path class="cls-4" d="M519,362.14H509.3a.87.87,0,1,0,0,1.73H519a.82.82,0,0,0,.87-.87A.87.87,0,0,0,519,362.14Z"/><path d="M544.65,330.32H506.19a4.41,4.41,0,0,0-4.4,4.4V365a4.41,4.41,0,0,0,4.4,4.39h13l-2.67,4a.81.81,0,0,0,0,.87.91.91,0,0,0,.77.42H533a.93.93,0,0,0,.78-.42.81.81,0,0,0,0-.87L531,369.47h8.44c-.18-.14-1.52-1.4-1.86-1.72H506.28a2.71,2.71,0,0,1-2.76-2.67V340.32h43.72v10.23c.42.15,1.59.43,1.81.47v-16.3A4.42,4.42,0,0,0,544.65,330.32ZM529,369.47l2.41,3.62h-12.5l2.41-3.62Zm18.28-31H503.52v-3.8a2.69,2.69,0,0,1,2.67-2.68h38.37a2.69,2.69,0,0,1,2.68,2.68Z"/><path class="cls-4" d="M553.36,352a.79.79,0,0,0-.86-.77,15.19,15.19,0,0,1-3.43-.17h0c-.22,0-1.39-.32-1.81-.47v0a10.71,10.71,0,0,1-3.79-2.33.93.93,0,0,0-.61-.26.75.75,0,0,0-.6.26,9.75,9.75,0,0,1-8.89,2.93.82.82,0,0,0-.94.77c-.35,7.85,2.49,12.85,5.26,15.79h-.06c.34.32,1.68,1.58,1.86,1.72h0a15.28,15.28,0,0,0,3.1,2c.18.09.35,0,.52,0C553.71,369,553.36,352,553.36,352Zm-10.43,17.77c-1.38-.69-9.06-5.26-8.89-16.73h1a11.12,11.12,0,0,0,7.76-3,12.57,12.57,0,0,0,8.8,2.94C552,365.59,544.31,369.21,542.93,369.73Z"/><path class="cls-4" d="M546.81,358l-4.49,4.48a.82.82,0,0,1-1.2,0L539,360.33a.83.83,0,0,1,0-1.21.85.85,0,0,1,1.21,0l1.55,1.56,3.88-3.88a.83.83,0,0,1,1.21,0A.82.82,0,0,1,546.81,358Z"/><path class="cls-7" d="M549.07,351c.15,0,.8-.08.8-.08"/><path class="cls-7" d="M547.24,350.55l-.13-.05"/><path class="cls-7" d="M539.47,369.47v0c.14.1.22.5.22.5"/><path class="cls-7" d="M537.61,367.75l-.08-.08"/><line class="cls-6" x1="421.11" y1="279.15" x2="490.89" y2="329.87"/><path class="cls-15" d="M280.28,40.74l1.91-3.19L301,37.17l7,2.17s3.83,2.43,4,2.62,7.53,19.34,7.53,19.34L326,65.89l-2.68,3.71L305.17,68,293.62,54.66l-10.47-7.47Z"/><path class="cls-15" d="M251.91,71l-1.1-.51-.63-2,2-3.54,8.68-13.28s2.24-4.34,2.88-4.79,2.74-2.71,4.08-2.2,3.93,3.7,3.77,4.09-1.44,9.57-1.15,10.31a17.43,17.43,0,0,1,.67,4.62c-.19.32-1.12.71-1.12.71l-2,3.19-3.16,5.61s-3.83,3.71-4,3.8-4.69,3-4.69,3l-3.89.38L250.79,79l-.42-1.92,1.85-4.24Z"/><line class="cls-7" x1="336.51" y1="113.02" x2="335.53" y2="112.49"/><line class="cls-7" x1="332.34" y1="112.62" x2="331.57" y2="112.85"/><path class="cls-7" d="M315.9,128.44c0,.25.06.42.06.42l.09.86"/><path class="cls-7" d="M315.18,125.78a.73.73,0,0,0-.34-.17"/><path class="cls-15" d="M336.7,110.26c.7-1.41,1.93-4,2.56-5.2a1.81,1.81,0,0,1,2.13-.93c.07.16,1.73,8.3,1.73,8.46s-1.57-5.24-1.57-5.24l1.25,8.81-1.15,3.8-1.41,3.35s-3.76,2.2-3.79,2.3-5.21,9.48-5.21,9.48l-4.78.76.73-7s2.59-7.13,3.15-7.66,5.09-5.36,5.92-7.08A7.17,7.17,0,0,0,336.7,110.26Z"/><path class="cls-15" d="M246.24,85.32s-.58-5.19-.54-8.34-1-3-1.32-2.85-11.7,12-11.7,12-8.34,15.14-8,17,3.62,9.37,3.62,9.37,4.59,9.44,4.81,10.29a57.62,57.62,0,0,0,3.4,7c.64.94,1.4.94,2,2.09a5.07,5.07,0,0,0,2.09,2c.21.08,5.66,1.7,5.78,1.7s7.36,1.62,7.62,1.62a36.33,36.33,0,0,0,3.23-2.94s.73-3.49-.72-4.77-4.68-8.38-4.68-8.38l-2.77-5,.6-1.83-1.79-.43-6.42,1.58-1.15,2.89-3-.47.83-4,.15-.7a17.08,17.08,0,0,1,.47,6.6c-.47,3.66.76-14.72.76-14.72l-1.32-3.88.56-2.46-.39-2.77-.85-2.34.26-1.83a22.74,22.74,0,0,0,1.61-1.87c.3-.47,3.62-4.39,3.62-4.39l.85-1Z"/><path class="cls-15" d="M240.27,105.19l.12.14.77,1.88s-1.07,1.23-1.16,1.28-2.17.22-2.17.19.65-4.34.68-4.35S240.27,105.19,240.27,105.19Z"/></svg>