<svg width="512" height="512" viewBox="0 0 512 512" fill="none" xmlns="http://www.w3.org/2000/svg">
<path d="M42.6667 494.933H290.133V469.333H17.0667C17.0667 476.123 19.7638 482.634 24.5647 487.435C29.3656 492.236 35.8771 494.933 42.6667 494.933Z" fill="black"/>
<path d="M298.667 290.133H324.267C326.53 290.133 328.7 291.032 330.301 292.633C331.901 294.233 332.8 296.403 332.8 298.667V331.264C332.784 331.552 332.858 331.837 333.011 332.082C333.163 332.326 333.388 332.517 333.653 332.629C333.891 332.762 334.164 332.818 334.434 332.788C334.705 332.759 334.96 332.647 335.164 332.467L387.319 291.934C388.808 290.768 390.643 290.134 392.533 290.133H452.267C454.53 290.133 456.7 289.234 458.301 287.634C459.901 286.034 460.8 283.863 460.8 281.6V145.067C460.8 142.803 459.901 140.633 458.301 139.033C456.7 137.432 454.53 136.533 452.267 136.533H298.667C296.403 136.533 294.233 137.432 292.633 139.033C291.032 140.633 290.133 142.803 290.133 145.067V281.6C290.133 283.863 291.032 286.034 292.633 287.634C294.233 289.234 296.403 290.133 298.667 290.133ZM358.4 170.667H366.933V162.133C366.933 159.87 367.832 157.7 369.433 156.099C371.033 154.499 373.203 153.6 375.467 153.6C377.73 153.6 379.9 154.499 381.501 156.099C383.101 157.7 384 159.87 384 162.133V170.667H392.533C394.797 170.667 396.967 171.566 398.567 173.166C400.168 174.766 401.067 176.937 401.067 179.2C401.067 181.463 400.168 183.634 398.567 185.234C396.967 186.834 394.797 187.733 392.533 187.733H384V196.267C384 198.53 383.101 200.7 381.501 202.301C379.9 203.901 377.73 204.8 375.467 204.8C373.203 204.8 371.033 203.901 369.433 202.301C367.832 200.7 366.933 198.53 366.933 196.267V187.733H358.4C356.137 187.733 353.966 186.834 352.366 185.234C350.766 183.634 349.867 181.463 349.867 179.2C349.867 176.937 350.766 174.766 352.366 173.166C353.966 171.566 356.137 170.667 358.4 170.667ZM315.733 221.867H435.2C437.463 221.867 439.634 222.766 441.234 224.366C442.834 225.966 443.733 228.137 443.733 230.4C443.733 232.663 442.834 234.834 441.234 236.434C439.634 238.034 437.463 238.933 435.2 238.933H315.733C313.47 238.933 311.3 238.034 309.699 236.434C308.099 234.834 307.2 232.663 307.2 230.4C307.2 228.137 308.099 225.966 309.699 224.366C311.3 222.766 313.47 221.867 315.733 221.867ZM315.733 256H418.133C420.397 256 422.567 256.899 424.167 258.499C425.768 260.1 426.667 262.27 426.667 264.533C426.667 266.796 425.768 268.967 424.167 270.567C422.567 272.168 420.397 273.067 418.133 273.067H315.733C313.47 273.067 311.3 272.168 309.699 270.567C308.099 268.967 307.2 266.796 307.2 264.533C307.2 262.27 308.099 260.1 309.699 258.499C311.3 256.899 313.47 256 315.733 256Z" fill="black"/>
<path d="M110.933 256C110.933 269.579 116.328 282.602 125.929 292.204C135.531 301.806 148.554 307.2 162.133 307.2C175.712 307.2 188.735 301.806 198.337 292.204C207.939 282.602 213.333 269.579 213.333 256V238.217C206.46 237.096 199.891 234.569 194.039 230.794C188.186 227.019 183.175 222.077 179.319 216.277C178.978 216.61 178.628 216.943 178.261 217.267C161.963 231.859 127.855 232.021 110.933 231.091V256Z" fill="black"/>
<path d="M213.333 384C222.759 384 230.4 376.359 230.4 366.933C230.4 357.508 222.759 349.867 213.333 349.867C203.908 349.867 196.267 357.508 196.267 366.933C196.267 376.359 203.908 384 213.333 384Z" fill="black"/>
<path d="M307.209 435.2H17.0667V452.267H307.209V435.2Z" fill="#DC2626"/>
<path d="M17.0667 418.133H42.6667V392.533C42.6667 355.84 49.5957 340.48 57.0965 329.344C62.9953 320.745 70.7348 313.567 79.7533 308.332C88.7717 303.096 98.8427 299.935 109.235 299.076C102.987 291.398 98.4909 282.449 96.0597 272.853C88.711 272.386 81.7976 269.206 76.66 263.931C71.5225 258.656 68.5267 251.661 68.2536 244.302C67.9804 236.944 70.4494 229.746 75.1818 224.104C79.9142 218.463 86.5728 214.779 93.8667 213.768V213.333C93.8667 195.228 101.059 177.864 113.861 165.061C126.664 152.259 144.028 145.067 162.133 145.067C180.239 145.067 197.603 152.259 210.405 165.061C223.208 177.864 230.4 195.228 230.4 213.333V213.768C237.694 214.779 244.352 218.463 249.085 224.104C253.817 229.746 256.286 236.944 256.013 244.302C255.74 251.661 252.744 258.656 247.607 263.931C242.469 269.206 235.556 272.386 228.207 272.853C225.778 282.448 221.285 291.397 215.04 299.076C225.433 299.935 235.504 303.096 244.522 308.332C253.54 313.567 261.28 320.745 267.179 329.344C274.662 340.48 281.6 355.84 281.6 392.533V418.133H307.2C311.726 418.133 316.067 419.931 319.268 423.132C322.469 426.333 324.267 430.674 324.267 435.2V452.267C324.267 456.793 322.469 461.134 319.268 464.335C316.067 467.535 311.726 469.333 307.2 469.333V494.933H469.333C476.123 494.933 482.634 492.236 487.435 487.435C492.236 482.634 494.933 476.123 494.933 469.333V85.3333H17.0667V418.133ZM273.067 145.067C273.067 138.277 275.764 131.766 280.565 126.965C285.366 122.164 291.877 119.467 298.667 119.467H452.267C459.056 119.467 465.568 122.164 470.369 126.965C475.17 131.766 477.867 138.277 477.867 145.067V281.6C477.867 288.389 475.17 294.901 470.369 299.702C465.568 304.503 459.056 307.2 452.267 307.2H395.46L345.6 345.933C342.86 348.058 339.578 349.371 336.129 349.723C332.679 350.075 329.2 349.451 326.087 347.922C322.975 346.393 320.354 344.021 318.524 341.076C316.693 338.131 315.726 334.732 315.733 331.264V307.2H298.667C291.877 307.2 285.366 304.503 280.565 299.702C275.764 294.901 273.067 288.389 273.067 281.6V145.067Z" fill="#DC2626"/>
<path d="M102.4 334.012V317.44C89.7151 320.483 78.6141 328.132 71.2533 338.901C65.2629 347.759 59.7333 360.397 59.7333 392.533V418.133H264.533V392.533C264.533 360.397 259.004 347.759 253.013 338.876C245.648 328.116 234.548 320.476 221.867 317.44V334.037C229.911 336.114 236.921 341.054 241.584 347.93C246.247 354.806 248.241 363.146 247.195 371.388C246.148 379.629 242.131 387.206 235.897 392.698C229.664 398.19 221.641 401.22 213.333 401.22C205.026 401.22 197.003 398.19 190.769 392.698C184.536 387.206 180.519 379.629 179.472 371.388C178.425 363.146 180.42 354.806 185.083 347.93C189.746 341.054 196.756 336.114 204.8 334.037V315.733H195.106C185.018 321.33 173.67 324.267 162.133 324.267C150.596 324.267 139.249 321.33 129.161 315.733H119.467V334.012C126.772 335.898 133.247 340.152 137.879 346.108C142.511 352.065 145.038 359.388 145.067 366.933V387.123C145.064 390.821 143.595 394.366 140.98 396.98C138.366 399.595 134.821 401.064 131.123 401.067H128C125.737 401.067 123.566 400.168 121.966 398.567C120.366 396.967 119.467 394.797 119.467 392.533C119.467 390.27 120.366 388.1 121.966 386.499C123.566 384.899 125.737 384 128 384V366.933C128 362.407 126.202 358.066 123.001 354.865C119.801 351.665 115.46 349.867 110.933 349.867C106.407 349.867 102.066 351.665 98.8654 354.865C95.6648 358.066 93.8667 362.407 93.8667 366.933V384C96.1299 384 98.3003 384.899 99.9006 386.499C101.501 388.1 102.4 390.27 102.4 392.533C102.4 394.797 101.501 396.967 99.9006 398.567C98.3003 400.168 96.1299 401.067 93.8667 401.067H90.7435C87.0461 401.064 83.5009 399.595 80.8864 396.98C78.272 394.366 76.8023 390.821 76.8 387.123V366.933C76.8283 359.388 79.3559 352.065 83.9876 346.108C88.6194 340.152 95.0942 335.898 102.4 334.012Z" fill="black"/>
<path d="M162.133 162.133C148.558 162.147 135.543 167.545 125.944 177.144C116.345 186.743 110.947 199.758 110.933 213.333V214.016C129.886 215.117 156.851 213.53 166.886 204.544C168.104 203.543 169.078 202.277 169.733 200.842C170.388 199.408 170.707 197.843 170.667 196.267C170.669 194.185 171.432 192.176 172.812 190.618C174.192 189.06 176.094 188.06 178.16 187.806C180.225 187.553 182.313 188.063 184.029 189.24C185.745 190.418 186.971 192.183 187.477 194.202C189.19 200.464 192.459 206.191 196.98 210.85C201.5 215.509 207.126 218.95 213.333 220.851V213.333C213.32 199.758 207.921 186.743 198.322 177.144C188.723 167.545 175.708 162.147 162.133 162.133Z" fill="#DC2626"/>
<path d="M469.333 17.0667H42.6667C35.8771 17.0667 29.3656 19.7638 24.5647 24.5647C19.7638 29.3656 17.0667 35.8771 17.0667 42.6667V68.2667H494.933V42.6667C494.933 35.8771 492.236 29.3656 487.435 24.5647C482.634 19.7638 476.123 17.0667 469.333 17.0667ZM42.6667 51.2C40.9789 51.2 39.3291 50.6995 37.9258 49.7619C36.5225 48.8242 35.4287 47.4915 34.7829 45.9322C34.137 44.373 33.968 42.6572 34.2973 41.0019C34.6265 39.3466 35.4393 37.8261 36.6327 36.6327C37.8261 35.4393 39.3466 34.6265 41.0019 34.2973C42.6572 33.968 44.373 34.137 45.9322 34.7829C47.4915 35.4287 48.8242 36.5225 49.7619 37.9258C50.6995 39.3291 51.2 40.9789 51.2 42.6667C51.2 44.9298 50.3009 47.1003 48.7006 48.7006C47.1003 50.3009 44.9298 51.2 42.6667 51.2ZM76.8 51.2C75.1123 51.2 73.4624 50.6995 72.0591 49.7619C70.6558 48.8242 69.5621 47.4915 68.9162 45.9322C68.2703 44.373 68.1014 42.6572 68.4306 41.0019C68.7599 39.3466 69.5726 37.8261 70.766 36.6327C71.9594 35.4393 73.4799 34.6265 75.1352 34.2973C76.7905 33.968 78.5063 34.137 80.0656 34.7829C81.6248 35.4287 82.9575 36.5225 83.8952 37.9258C84.8328 39.3291 85.3333 40.9789 85.3333 42.6667C85.3333 44.9298 84.4343 47.1003 82.834 48.7006C81.2337 50.3009 79.0632 51.2 76.8 51.2ZM110.933 51.2C109.246 51.2 107.596 50.6995 106.192 49.7619C104.789 48.8242 103.695 47.4915 103.05 45.9322C102.404 44.373 102.235 42.6572 102.564 41.0019C102.893 39.3466 103.706 37.8261 104.899 36.6327C106.093 35.4393 107.613 34.6265 109.269 34.2973C110.924 33.968 112.64 34.137 114.199 34.7829C115.758 35.4287 117.091 36.5225 118.029 37.9258C118.966 39.3291 119.467 40.9789 119.467 42.6667C119.467 44.9298 118.568 47.1003 116.967 48.7006C115.367 50.3009 113.197 51.2 110.933 51.2ZM298.667 51.2H230.4C228.137 51.2 225.966 50.3009 224.366 48.7006C222.766 47.1003 221.867 44.9298 221.867 42.6667C221.867 40.4035 222.766 38.233 224.366 36.6327C225.966 35.0324 228.137 34.1333 230.4 34.1333H298.667C300.93 34.1333 303.1 35.0324 304.701 36.6327C306.301 38.233 307.2 40.4035 307.2 42.6667C307.2 44.9298 306.301 47.1003 304.701 48.7006C303.1 50.3009 300.93 51.2 298.667 51.2Z" fill="black"/>
<path d="M230.4 231.134V255.266C232.894 254.383 235.054 252.749 236.581 250.588C238.108 248.427 238.928 245.846 238.928 243.2C238.928 240.554 238.108 237.973 236.581 235.812C235.054 233.651 232.894 232.017 230.4 231.134Z" fill="black"/>
<path d="M93.8667 255.266V231.134C91.3723 232.017 89.213 233.651 87.6857 235.812C86.1585 237.973 85.3385 240.554 85.3385 243.2C85.3385 245.846 86.1585 248.427 87.6857 250.588C89.213 252.749 91.3723 254.383 93.8667 255.266Z" fill="black"/>
</svg>
