<?xml version="1.0"?>
<svg xmlns="http://www.w3.org/2000/svg" viewBox="0 0 512 512" width="512" height="512"><g id="Out_line" data-name="Out line"><path d="M192,104a88,88,0,0,0-176,0V256a7.99977,7.99977,0,0,0,8,8V416a80,80,0,0,0,160,0V264a7.99977,7.99977,0,0,0,8-8ZM32,104a72,72,0,0,1,144,0V248H32ZM168,416a64,64,0,0,1-128,0V264H168Z"/><path d="M288,48a206.56169,206.56169,0,0,0-83.20312,17.31055l6.40624,14.66211A190.64926,190.64926,0,0,1,288,64c105.86914,0,192,86.13086,192,192S393.86914,448,288,448a190.11877,190.11877,0,0,1-84.47559-19.53223l-7.04882,14.36328A205.97708,205.97708,0,0,0,288,464c114.69141,0,208-93.30859,208-208S402.69141,48,288,48Z"/><path d="M464,256c0-97.04688-78.95312-176-176-176a176.25722,176.25722,0,0,0-83.81494,21.20215l7.62988,14.06347A160.21412,160.21412,0,0,1,288,96c88.22412,0,160,71.77588,160,160S376.22412,416,288,416a159.635,159.635,0,0,1-83.80371-23.6748l-8.39258,13.62207A175.62411,175.62411,0,0,0,288,432C385.04688,432,464,353.04688,464,256Z"/><path d="M208,168v16h16.67938a47.73177,47.73177,0,0,0,8.21924,19.7879l-11.81024,11.81024,11.31348,11.31348,11.81024-11.81024A47.73177,47.73177,0,0,0,264,223.32062V240h16V223.32062a47.73177,47.73177,0,0,0,19.7879-8.21924l11.81024,11.81024,11.31348-11.31348L311.10138,203.7879A47.73177,47.73177,0,0,0,319.32062,184H336V168H319.32062a47.73177,47.73177,0,0,0-8.21924-19.7879l11.81024-11.81024-11.31348-11.31348L299.7879,136.89862A47.73177,47.73177,0,0,0,280,128.67938V112H264v16.67938a47.73177,47.73177,0,0,0-19.7879,8.21924l-11.81024-11.81024-11.31348,11.31348,11.81024,11.81024A47.73177,47.73177,0,0,0,224.67938,168Zm36.4444-8.24213,4.92816,4.92817L260.686,153.37256l-4.92817-4.92816A31.80545,31.80545,0,0,1,264,145.01257V152h16v-6.98743a31.80545,31.80545,0,0,1,8.24213,3.43183l-4.92817,4.92816L294.62744,164.686l4.92816-4.92817A31.80545,31.80545,0,0,1,302.98743,168H296v16h6.98743a31.80545,31.80545,0,0,1-3.43183,8.24213l-4.92816-4.92817L283.314,198.62744l4.92817,4.92816A31.80545,31.80545,0,0,1,280,206.98743V200H264v6.98743a31.80545,31.80545,0,0,1-8.24213-3.43183l4.92817-4.92816L249.37256,187.314l-4.92816,4.92817A31.80545,31.80545,0,0,1,241.01257,184H248V168h-6.98743A31.80545,31.80545,0,0,1,244.4444,159.75787Z"/><path d="M368,200v16.67938a47.73177,47.73177,0,0,0-19.7879,8.21924l-11.81024-11.81024-11.31348,11.31348,11.81024,11.81024A47.73177,47.73177,0,0,0,328.67938,256H312v16h16.67938a47.73177,47.73177,0,0,0,8.21924,19.7879l-11.81024,11.81024,11.31348,11.31348,11.81024-11.81024A47.73177,47.73177,0,0,0,368,311.32062V328h16V311.32062a47.73177,47.73177,0,0,0,19.7879-8.21924l11.81024,11.81024,11.31348-11.31348L415.10138,291.7879A47.73177,47.73177,0,0,0,423.32062,272H440V256H423.32062a47.73177,47.73177,0,0,0-8.21924-19.7879l11.81024-11.81024-11.31348-11.31348L403.7879,224.89862A47.73177,47.73177,0,0,0,384,216.67938V200Zm24.24213,36.4444-4.92817,4.92816L398.62744,252.686l4.92816-4.92817A31.80545,31.80545,0,0,1,406.98743,256H400v16h6.98743a31.80545,31.80545,0,0,1-3.43183,8.24213l-4.92816-4.92817L387.314,286.62744l4.92817,4.92816A31.80545,31.80545,0,0,1,384,294.98743V288H368v6.98743a31.80545,31.80545,0,0,1-8.24213-3.43183l4.92817-4.92816L353.37256,275.314l-4.92816,4.92817A31.80545,31.80545,0,0,1,345.01257,272H352V256h-6.98743a31.80545,31.80545,0,0,1,3.43183-8.24213l4.92816,4.92817L364.686,241.37256l-4.92817-4.92816A31.80545,31.80545,0,0,1,368,233.01257V240h16v-6.98743A31.80545,31.80545,0,0,1,392.24213,236.4444Z"/><path d="M216.89862,347.7879l-11.81024,11.81024,11.31348,11.31348,11.81024-11.81024A47.73177,47.73177,0,0,0,248,367.32062V384h16V367.32062a47.73177,47.73177,0,0,0,19.7879-8.21924l11.81024,11.81024,11.31348-11.31348L295.10138,347.7879A47.73177,47.73177,0,0,0,303.32062,328H320V312H303.32062a47.73177,47.73177,0,0,0-8.21924-19.7879l11.81024-11.81024-11.31348-11.31348L283.7879,280.89862A47.73177,47.73177,0,0,0,264,272.67938V256H248v16.67938a47.73177,47.73177,0,0,0-19.7879,8.21924l-11.81024-11.81024-11.31348,11.31348,11.81024,11.81024A47.73177,47.73177,0,0,0,208.67938,312H192v16h16.67938A47.73177,47.73177,0,0,0,216.89862,347.7879Zm11.54578-44.03,4.92816,4.92817L244.686,297.37256l-4.92817-4.92816A31.80545,31.80545,0,0,1,248,289.01257V296h16v-6.98743a31.80545,31.80545,0,0,1,8.24213,3.43183l-4.92817,4.92816L278.62744,308.686l4.92816-4.92817A31.80545,31.80545,0,0,1,286.98743,312H280v16h6.98743a31.80545,31.80545,0,0,1-3.43183,8.24213l-4.92816-4.92817L267.314,342.62744l4.92817,4.92816A31.80545,31.80545,0,0,1,264,350.98743V344H248v6.98743a31.80545,31.80545,0,0,1-8.24213-3.43183l4.92817-4.92816L233.37256,331.314l-4.92816,4.92817A31.80545,31.80545,0,0,1,225.01257,328H232V312h-6.98743A31.80545,31.80545,0,0,1,228.4444,303.75787Z"/><path d="M48,104v64H64V104A39.92627,39.92627,0,0,1,74.18359,77.335L62.26172,66.66406A55.90513,55.90513,0,0,0,48,104Z"/><path d="M90.6665,66.27393A39.90083,39.90083,0,0,1,104,64V48a55.85254,55.85254,0,0,0-18.6665,3.189Z"/></g></svg>
