<svg width="512" height="512" viewBox="0 0 512 512" fill="none" xmlns="http://www.w3.org/2000/svg">
<g clip-path="url(#clip0_216_136)">
<path d="M462 44H414.333V30C414.333 13.458 400.875 0 384.333 0C367.791 0 354.333 13.458 354.333 30V44H186.333V30C186.333 13.458 172.875 0 156.333 0C139.791 0 126.333 13.458 126.333 30V44.37C125.483 44.135 124.592 44 123.667 44H83.823C56.253 44 33.823 66.43 33.823 94V264.333C33.823 269.856 38.301 274.333 43.823 274.333C49.345 274.333 53.823 269.856 53.823 264.333V147H414.333C419.855 147 424.333 142.523 424.333 137C424.333 131.477 419.855 127 414.333 127H53.823V94C53.823 77.458 67.281 64 83.823 64H123.667C124.592 64 125.483 63.864 126.333 63.63V76.5C126.333 93.042 139.791 106.5 156.333 106.5C172.875 106.5 186.333 93.042 186.333 76.5V64H354.333V76.5C354.333 93.042 367.791 106.5 384.333 106.5C400.875 106.5 414.333 93.042 414.333 76.5V64H462C478.542 64 492 77.458 492 94V473.994C492 483.922 483.923 492 473.994 492C464.065 492 455.988 483.922 455.988 473.994V448.125C455.988 442.602 451.51 438.125 445.988 438.125H329.667C324.145 438.125 319.667 442.602 319.667 448.125C319.667 453.648 324.145 458.125 329.667 458.125H435.988V473.994C435.988 480.505 437.636 486.637 440.533 492H38C28.075 492 20 483.925 20 474V458.125H243.825C249.347 458.125 253.825 453.648 253.825 448.125C253.825 442.602 249.347 438.125 243.825 438.125H143.909C161.383 423.076 172.479 400.816 172.479 376C172.479 330.785 135.694 294 90.479 294C45.264 294 8.479 330.785 8.479 376C8.479 400.816 19.575 423.076 37.049 438.125H10C4.478 438.125 0 442.602 0 448.125V474C0 494.953 17.047 512 38 512H473.994C494.95 512 512 494.951 512 473.994V94C512 66.43 489.57 44 462 44ZM166.333 76.5C166.333 82.014 161.847 86.5 156.333 86.5C150.819 86.5 146.333 82.014 146.333 76.5V30C146.333 24.486 150.819 20 156.333 20C161.847 20 166.333 24.486 166.333 30V76.5ZM394.333 76.5C394.333 82.014 389.847 86.5 384.333 86.5C378.819 86.5 374.333 82.014 374.333 76.5V30C374.333 24.486 378.819 20 384.333 20C389.847 20 394.333 24.486 394.333 30V76.5ZM28.479 376C28.479 341.813 56.292 314 90.479 314C124.666 314 152.479 341.813 152.479 376C152.479 410.187 124.666 438 90.479 438C56.292 438 28.479 410.187 28.479 376Z" fill="black"/>
<path d="M468.307 129.93C466.448 128.07 463.868 127 461.238 127C458.607 127 456.028 128.07 454.168 129.93C452.308 131.79 451.238 134.37 451.238 137C451.238 139.63 452.307 142.21 454.168 144.07C456.029 145.93 458.607 147 461.238 147C463.868 147 466.448 145.93 468.307 144.07C470.167 142.21 471.238 139.63 471.238 137C471.238 134.37 470.168 131.79 468.307 129.93Z" fill="black"/>
<path d="M298.647 441.049C296.788 439.189 294.208 438.129 291.578 438.129C288.948 438.129 286.368 439.189 284.508 441.049C282.648 442.919 281.578 445.489 281.578 448.119C281.578 450.759 282.647 453.329 284.508 455.199C286.368 457.059 288.948 458.119 291.578 458.119C294.208 458.119 296.788 457.059 298.647 455.199C300.507 453.329 301.578 450.749 301.578 448.119C301.578 445.489 300.508 442.919 298.647 441.049Z" fill="black"/>
<path d="M226.246 304C205.293 304 188.246 321.047 188.246 342C188.246 362.953 205.293 380 226.246 380C247.199 380 264.246 362.953 264.246 342C264.246 321.047 247.199 304 226.246 304ZM226.246 360C216.321 360 208.246 351.925 208.246 342C208.246 332.075 216.321 324 226.246 324C236.171 324 244.246 332.075 244.246 342C244.246 351.925 236.171 360 226.246 360Z" fill="#DC2626"/>
<path d="M319.578 304C298.625 304 281.578 321.047 281.578 342C281.578 362.953 298.625 380 319.578 380C340.531 380 357.578 362.953 357.578 342C357.578 321.047 340.531 304 319.578 304ZM319.578 360C309.653 360 301.578 351.925 301.578 342C301.578 332.075 309.653 324 319.578 324C329.503 324 337.578 332.075 337.578 342C337.578 351.925 329.503 360 319.578 360Z" fill="#DC2626"/>
<path d="M412.91 304C391.957 304 374.91 321.047 374.91 342C374.91 362.953 391.957 380 412.91 380C433.863 380 450.91 362.953 450.91 342C450.91 321.047 433.863 304 412.91 304ZM412.91 360C402.985 360 394.91 351.925 394.91 342C394.91 332.075 402.985 324 412.91 324C422.835 324 430.91 332.075 430.91 342C430.91 351.925 422.835 360 412.91 360Z" fill="#DC2626"/>
<path d="M132.91 200C111.957 200 94.9102 217.047 94.9102 238C94.9102 258.953 111.957 276 132.91 276C153.863 276 170.91 258.953 170.91 238C170.91 217.047 153.863 200 132.91 200ZM132.91 256C122.985 256 114.91 247.925 114.91 238C114.91 228.075 122.985 220 132.91 220C142.835 220 150.91 228.075 150.91 238C150.91 247.925 142.835 256 132.91 256Z" fill="#DC2626"/>
<path d="M319.578 200C298.625 200 281.578 217.047 281.578 238C281.578 258.953 298.625 276 319.578 276C340.531 276 357.578 258.953 357.578 238C357.578 217.047 340.531 200 319.578 200ZM319.578 256C309.653 256 301.578 247.925 301.578 238C301.578 228.075 309.653 220 319.578 220C329.503 220 337.578 228.075 337.578 238C337.578 247.925 329.503 256 319.578 256Z" fill="#DC2626"/>
<path d="M412.91 200C391.957 200 374.91 217.047 374.91 238C374.91 258.953 391.957 276 412.91 276C433.863 276 450.91 258.953 450.91 238C450.91 217.047 433.863 200 412.91 200ZM412.91 256C402.985 256 394.91 247.925 394.91 238C394.91 228.075 402.985 220 412.91 220C422.835 220 430.91 228.075 430.91 238C430.91 247.925 422.835 256 412.91 256Z" fill="#DC2626"/>
<path d="M226.246 200C205.293 200 188.246 217.047 188.246 238C188.246 258.953 205.293 276 226.246 276C247.199 276 264.246 258.953 264.246 238C264.246 217.047 247.199 200 226.246 200ZM226.246 256C216.321 256 208.246 247.925 208.246 238C208.246 228.075 216.321 220 226.246 220C236.171 220 244.246 228.075 244.246 238C244.246 247.925 236.171 256 226.246 256Z" fill="#DC2626"/>
<path d="M126.105 351.628C122.199 347.723 115.869 347.723 111.962 351.628L79.3961 384.195L68.2671 373.066C64.3611 369.161 58.0311 369.161 54.1241 373.066C50.2191 376.971 50.2191 383.303 54.1241 387.209L72.3251 405.408C74.2011 407.283 76.7441 408.337 79.3961 408.337C82.0481 408.337 84.5911 407.283 86.4671 405.408L126.105 365.77C130.01 361.865 130.01 355.533 126.105 351.628Z" fill="black"/>
</g>
<defs>
<clipPath id="clip0_216_136">
<rect width="512" height="512" fill="white"/>
</clipPath>
</defs>
</svg>
