<svg id="SvgjsSvg1036" width="288" height="288" xmlns="http://www.w3.org/2000/svg" version="1.1" xmlns:xlink="http://www.w3.org/1999/xlink" xmlns:svgjs="http://svgjs.com/svgjs"><defs id="SvgjsDefs1037"></defs><g id="SvgjsG1038"><svg xmlns="http://www.w3.org/2000/svg" enable-background="new 0 0 75 75" viewBox="0 0 75 75" width="288" height="288"><path d="M61.0080452 64.6401367V48.355957c0-.4140625-.3359375-.75-.75-.75s-.75.3359375-.75.75v16.2841797c0 2.1669922-1.7626953 3.9296875-3.9291992 3.9296875H28.681385c-2.1645508 0-3.925293-1.7607422-3.925293-3.9257813v-5.8056641c0-.4140625-.3359375-.75-.75-.75s-.75.3359375-.75.75v5.8056641c0 2.9921875 2.4335938 5.4257813 5.425293 5.4257813H55.578846C58.5724983 70.0698242 61.0080452 67.6342773 61.0080452 64.6401367zM60.2580452 29.2915039c.4140625 0 .75-.3359375.75-.75V10.3549805c0-2.9912109-2.4335938-5.4248047-5.425293-5.4248047H28.681385c-2.9916992 0-5.425293 2.4335938-5.425293 5.4248047v3.5322266c0 .4140625.3359375.75.75.75s.75-.3359375.75-.75v-3.5322266c0-2.1640625 1.7607422-3.9248047 3.925293-3.9248047h26.9013672c2.1645508 0 3.925293 1.7607422 3.925293 3.9248047v18.1865234C59.5080452 28.9555664 59.8439827 29.2915039 60.2580452 29.2915039z" fill="#000000" class="svgShape color000000-0 selectable"></path><path d="M49.1877327 12.1118164c0-1.4755859-1.2006836-2.6767578-2.6811523-2.6767578l-7.2543945.0478516c-1.4755859 0-2.6757813 1.2001953-2.6757813 2.6757813s1.2001953 2.6767578 2.6806641 2.6767578l7.2543945-.0478516C47.9870491 14.7875977 49.1877327 13.5874023 49.1877327 12.1118164zM39.2521858 13.3354492c-.6484375 0-1.1757813-.5283203-1.1757813-1.1767578s.5273438-1.1757813 1.1806641-1.1757813l7.2543945-.0478516c.6484375 0 1.1762695.5283203 1.1762695 1.1767578s-.527832 1.1757813-1.1811523 1.1757813L39.2521858 13.3354492zM11.0905657 56.090332h18.5537109c.4140625 0 .75-.3359375.75-.75s-.3359375-.75-.75-.75H11.0905657c-1.112793 0-2.0185547-.9052734-2.0185547-2.0175781V31.1264648h31.7739258v18.6337891c0 .4140625.3359375.75.75.75s.75-.3359375.75-.75V24.6743164c0-1.9404297-1.578125-3.5185547-3.5180664-3.5185547h-.8574219c-.4140625 0-.75.3359375-.75.75s.3359375.75.75.75h.8574219c1.112793 0 2.0180664.9052734 2.0180664 2.0185547v4.9521484H9.072011v-4.9521484c0-1.1132813.9057617-2.0185547 2.0185547-2.0185547.4140625 0 .75-.3359375.75-.75s-.3359375-.75-.75-.75c-1.9399414 0-3.5185547 1.578125-3.5185547 3.5185547v27.8984375C7.572011 54.512207 9.1506243 56.090332 11.0905657 56.090332z" fill="#000000" class="svgShape color000000-1 selectable"></path><path d="M21.5925179 22.6557617h6.8652344c.4140625 0 .75-.3359375.75-.75s-.3359375-.75-.75-.75h-6.8652344c-.4140625 0-.75.3359375-.75.75S21.1784554 22.6557617 21.5925179 22.6557617zM16.2394905 16.7348633h-.2280273c-1.4370108 0-2.6064444 1.1689453-2.6064444 2.6064453v4.1816406c0 1.4375 1.1694336 2.6064453 2.6064444 2.6064453h.2280273c1.4370117 0 2.6064453-1.1689453 2.6064453-2.6064453v-4.1816406C18.8459358 17.9038086 17.6765022 16.7348633 16.2394905 16.7348633zM17.3459358 23.5229492c0 .6103516-.496582 1.1064453-1.1064453 1.1064453h-.2280273c-.6098623 0-1.1064444-.4960938-1.1064444-1.1064453v-4.1816406c0-.6103516.496582-1.1064453 1.1064444-1.1064453h.2280273c.6098633 0 1.1064453.4960938 1.1064453 1.1064453V23.5229492zM33.5178108 16.7348633c-1.4370117 0-2.6064453 1.1689453-2.6064453 2.6064453v4.1816406c0 1.4375 1.1694336 2.6064453 2.6064453 2.6064453h.2280273c1.4370117 0 2.6064453-1.1689453 2.6064453-2.6064453v-4.1816406c0-1.4375-1.1694336-2.6064453-2.6064453-2.6064453H33.5178108zM34.8522835 19.3413086v4.1816406c0 .6103516-.496582 1.1064453-1.1064453 1.1064453h-.2280273c-.6098633 0-1.1064453-.4960938-1.1064453-1.1064453v-4.1816406C32.4113655 17.8610516 34.8522835 17.8594284 34.8522835 19.3413086zM21.235096 36.3745117c0-.9648438-.7851563-1.75-1.75-1.75h-3.2211914c-.9648428 0-1.749999.7851563-1.749999 1.75v3.2207031c0 .9648438.7851563 1.75 1.749999 1.75h3.2211914c.9648438 0 1.75-.7851563 1.75-1.75V36.3745117zM19.735096 39.5952148c0 .1376953-.1123047.25-.25.25h-3.2211914c-.1376953 0-.25-.1123047-.25-.25v-3.2207031c0-.1376953.1123047-.25.25-.25h3.2211914c.1376953 0 .25.1123047.25.25V39.5952148zM30.4333382 41.3452148h3.2207031c.9648438 0 1.75-.7851563 1.75-1.75v-3.2207031c0-.9648438-.7851563-1.75-1.75-1.75h-3.2207031c-.9648438 0-1.75.7851563-1.75 1.75v3.2207031C28.6833382 40.5600586 29.4684944 41.3452148 30.4333382 41.3452148zM30.1833382 36.3745117c0-.1376953.1123047-.25.25-.25h3.2207031c.1376953 0 .25.1123047.25.25v3.2207031c0 .1376953-.1123047.25-.25.25h-3.2207031c-.1376953 0-.25-.1123047-.25-.25V36.3745117zM19.485096 44.2456055h-3.2211914c-.9648428 0-1.749999.7851563-1.749999 1.75v3.2207031c0 .9648438.7851563 1.75 1.749999 1.75h3.2211914c.9648438 0 1.75-.7851563 1.75-1.75v-3.2207031C21.235096 45.0307617 20.4499397 44.2456055 19.485096 44.2456055zM19.735096 49.2163086c0 .1376953-.1123047.25-.25.25h-3.2211914c-.1376953 0-.25-.1123047-.25-.25v-3.2207031c0-.1376953.1123047-.25.25-.25h3.2211914c.1376953 0 .25.1123047.25.25V49.2163086zM30.4333382 45.7456055h3.2207031c.1376953 0 .25.1123047.25.25v1.6103516c0 .4140625.3359375.75.75.75s.75-.3359375.75-.75v-1.6103516c0-.9648438-.7851563-1.75-1.75-1.75h-3.2207031c-.9648438 0-1.75.7851563-1.75 1.75v3.2207031c0 1.7986259 2.5 2.3458748 2.5 1 0-.4140625-.3359375-.75-.75-.75-.1376953 0-.25-.1123047-.25-.25v-3.2207031C30.1833382 45.8579102 30.2956429 45.7456055 30.4333382 45.7456055z" fill="#dc2626" class="svgShape color000000-2 selectable"></path><path d="M34.5417366 58.5239258l1.2011719-.765625 2.4301758 3.7333984c.3574295.5488548 1.0779648.7188835 1.6469727.3808594l2.2421875-1.3427734c.6264992-.3704872.7740059-1.1991348.3696289-1.7519531l-2.5932617-3.7109375.9648438-.6337891c.8028641-.5295944.7024651-1.7283211-.1601563-2.125l-6.9194336-3.1845703c-.8498116-.3943291-1.8100624.2848816-1.7236328 1.21875l.6743164 7.2675781C32.7597389 58.5157623 33.7721214 59.0126381 34.5417366 58.5239258zM39.5549202 53.4584961l-.7836914.515625c-.5832329.3847084-.717865 1.1844521-.3217773 1.7236328l2.5854492 3.6992188-1.7524414 1.0488281-2.4345703-3.7402344c-.2329102-.3564453-.625-.5507813-1.0244141-.5507813-.5657196 0-.7961578.3321419-1.6982422.8554688l-.5864258-6.3203125L39.5549202 53.4584961zM67.4279709 38.6547852c.0093231-3.9492111-3.0895462-7.0605469-7.0400429-7.0605469-3.8530273 0-7.0102539 3.1074219-7.0493164 6.9521484-.0389977 3.851841 3.0448074 7.1054688 7.0249023 7.1054688C64.2922745 45.6518555 67.4188919 42.5566521 67.4279709 38.6547852zM60.3049202 44.1518555c-3.0632401-.0283813-5.497509-2.5381279-5.4663086-5.5898438.0297928-2.9290047 2.4038391-5.4677734 5.5917969-5.4677734 3.090332.0234375 5.5048866 2.4638672 5.4975624 5.5566406C65.9211197 41.6282196 63.583477 44.1518555 60.3049202 44.1518555z" fill="#000000" class="svgShape color000000-3 selectable"></path><path d="M62.7224007,36.1694336l-3.5053711,3.3974609l-1.1586914-1.1875
		c-0.2890625-0.296875-0.7636719-0.3007813-1.0605469-0.0136719c-0.2963867,0.2890625-0.3022461,0.7646484-0.0126953,1.0605469
		l1.6806641,1.7226563c0.2887001,0.2973289,0.7628288,0.3014641,1.0585938,0.015625l4.0419922-3.9169922
		c0.2973671-0.2890625,0.3046913-0.7636719,0.0166016-1.0605469C63.4943733,35.887207,63.0187874,35.8823242,62.7224007,36.1694336z
		" fill="#dc2626" class="svgShape color000000-4 selectable"></path></svg></g></svg>