<svg width="510" height="510" viewBox="0 0 510 510" fill="none" xmlns="http://www.w3.org/2000/svg">
<path fill-rule="evenodd" clip-rule="evenodd" d="M348.069 121.761C362.129 121.761 373.543 133.176 373.543 147.235C373.543 161.295 362.129 172.709 348.069 172.709C334.01 172.709 322.595 161.295 322.595 147.235C322.595 133.176 334.01 121.761 348.069 121.761ZM428.407 229.526C442.467 229.526 453.881 240.941 453.881 255C453.881 269.059 442.467 280.474 428.407 280.474C414.348 280.474 402.933 269.059 402.933 255C402.933 240.941 414.348 229.526 428.407 229.526ZM348.069 332.565C362.129 332.565 373.543 343.98 373.543 358.039C373.543 372.099 362.129 383.513 348.069 383.513C334.01 383.513 322.595 372.099 322.595 358.039C322.595 343.98 334.01 332.565 348.069 332.565ZM341.195 444.052C355.254 444.052 366.669 455.467 366.669 469.526C366.669 483.585 355.254 495 341.195 495C327.135 495 315.721 483.585 315.721 469.526C315.721 455.467 327.135 444.052 341.195 444.052ZM453.881 96.287C467.941 96.287 479.355 107.702 479.355 121.761C479.355 135.821 467.941 147.235 453.881 147.235C439.822 147.235 428.407 135.821 428.407 121.761C428.407 107.702 439.822 96.287 453.881 96.287ZM453.881 358.039C467.941 358.039 479.355 369.454 479.355 383.513C479.355 397.573 467.941 408.987 453.881 408.987C439.822 408.987 428.407 397.573 428.407 383.513C428.407 369.454 439.822 358.039 453.881 358.039ZM341.195 15C355.254 15 366.669 26.415 366.669 40.474C366.669 54.533 355.254 65.948 341.195 65.948C327.135 65.948 315.721 54.533 315.721 40.474C315.721 26.415 327.135 15 341.195 15ZM333.195 428.824V412.166H250.257V437.412C250.257 441.828 246.672 445.412 242.257 445.412C237.842 445.412 234.257 441.828 234.257 437.412V72.588C234.257 68.172 237.842 64.588 242.257 64.588C246.672 64.588 250.257 68.172 250.257 72.588V89.023H333.195V81.176C335.783 81.682 338.458 81.948 341.195 81.948C343.931 81.948 346.606 81.682 349.195 81.176V97.023C349.195 101.442 345.613 105.023 341.195 105.023H250.257V139.235H307.367C306.861 141.824 306.595 144.499 306.595 147.235C306.595 149.972 306.861 152.647 307.367 155.235H250.257V189.498H377.009L420.348 146.159C423.515 150.503 427.505 154.209 432.088 157.047L385.98 203.155C384.479 204.655 382.444 205.498 380.323 205.498H250.257V246.128H387.886C387.262 248.987 386.933 251.955 386.933 255C386.933 257.43 387.143 259.812 387.544 262.128H250.257V302.757H380.323C382.444 302.757 384.479 303.6 385.98 305.101L430.287 349.408C425.869 352.472 422.073 356.372 419.131 360.879L377.009 318.757H361.399C357.215 317.336 352.731 316.565 348.069 316.565C343.407 316.565 338.923 317.336 334.739 318.757H250.257V349.462H307.485C306.902 352.23 306.595 355.099 306.595 358.039C306.595 360.573 306.823 363.053 307.259 365.462H250.257V396.166H331.732C336.64 398.275 342.036 399.462 347.702 399.512C348.641 400.823 349.195 402.43 349.195 404.166V428.824C346.606 428.318 343.931 428.052 341.195 428.052C338.458 428.052 335.783 428.318 333.195 428.824ZM46.1735 247.012C36.7455 239.838 30.6445 228.507 30.6445 215.8V215.657C30.6445 201.26 39.0545 188.719 51.1955 182.701C52.2325 194.91 58.2165 205.746 67.1195 213.215C70.5025 216.052 75.5525 215.61 78.3905 212.227C81.2285 208.845 80.7855 203.794 77.4025 200.957C71.2715 195.813 67.2685 188.198 67.0445 179.663C66.9405 175.688 63.9475 172.462 60.1285 171.945C64.1355 155.937 78.6785 144.065 95.8075 144.065C98.8075 144.065 101.713 144.422 104.498 145.113C107.49 132.408 117.106 122.193 129.455 118.357C128.781 121.447 128.425 124.656 128.425 127.947C128.425 139.252 132.654 149.603 139.582 157.488C142.496 160.805 147.555 161.132 150.872 158.217C154.189 155.303 154.516 150.244 151.601 146.927C147.149 141.86 144.425 135.212 144.425 127.947C144.425 112.055 157.318 99.163 173.209 99.163C177.33 99.163 180.727 96.041 181.162 92.036C197.588 95.697 209.969 110.441 209.969 127.947V210.252C205.554 210.252 201.969 213.837 201.969 218.252C201.969 234.122 189.098 247.012 173.209 247.012C162.201 247.012 152.626 240.829 147.801 231.739C145.731 227.839 140.884 226.353 136.984 228.423C133.084 230.493 131.598 235.339 133.668 239.239C135.143 242.018 136.902 244.621 138.907 247.012H46.1735ZM172.424 187.659C161.496 177.31 145.638 172.706 130.014 176.909C112.754 181.514 100.572 195.653 97.5565 212.147C96.7625 216.49 99.6445 220.661 103.988 221.455C108.332 222.249 112.503 219.367 113.296 215.024C115.234 204.424 123.051 195.326 134.154 192.364L134.17 192.36C144.211 189.659 154.4 192.626 161.423 199.276C164.629 202.312 169.697 202.174 172.733 198.968C175.769 195.762 175.63 190.694 172.424 187.659ZM138.907 263.012C136.902 265.403 135.143 268.006 133.668 270.784C131.598 274.684 133.084 279.531 136.984 281.601C140.884 283.671 145.731 282.185 147.801 278.285C152.626 269.195 162.201 263.012 173.209 263.012C189.098 263.012 201.969 275.883 201.969 291.772C201.969 296.187 205.554 299.772 209.969 299.772V382.077C209.969 399.562 197.588 414.303 181.162 417.964C180.727 413.959 177.33 410.837 173.209 410.837C157.319 410.837 144.425 397.967 144.425 382.077C144.425 374.792 147.148 368.141 151.601 363.073C154.516 359.756 154.189 354.697 150.872 351.783C147.555 348.868 142.496 349.195 139.582 352.512C132.655 360.396 128.425 370.744 128.425 382.077C128.425 385.365 128.78 388.569 129.453 391.655C117.105 387.807 107.49 377.595 104.498 364.911C101.713 365.578 98.8075 365.959 95.8075 365.959C78.6805 365.959 64.1395 354.073 60.1305 338.078C63.9485 337.561 66.9415 334.335 67.0445 330.36C67.2685 321.811 71.2645 314.198 77.3915 309.076C80.7795 306.245 81.2315 301.195 78.3995 297.807C75.5675 294.42 70.5185 293.968 67.1305 296.8C58.2235 304.246 52.2315 315.084 51.1955 327.323C39.0545 321.304 30.6445 308.76 30.6445 294.343V294.224C30.6445 281.516 36.7455 270.186 46.1735 263.012H138.907ZM161.423 311.914C154.4 318.565 144.211 321.532 134.17 318.831L134.154 318.826C123.051 315.864 115.234 306.767 113.296 296.167C112.503 291.823 108.332 288.942 103.988 289.735C99.6445 290.529 96.7625 294.7 97.5565 299.043C100.572 315.537 112.754 329.677 130.03 334.286C145.638 338.485 161.496 333.881 172.424 323.532C175.63 320.496 175.769 315.428 172.733 312.222C169.697 309.016 164.629 308.878 161.423 311.914Z" fill="url(#paint0_linear_877_2)"/>
<defs>
<linearGradient id="paint0_linear_877_2" x1="479.355" y1="255" x2="30.6445" y2="255" gradientUnits="userSpaceOnUse">
<stop offset="0.384615" stop-color="#DC2626"/>
<stop offset="0.985577" stop-color="white"/>
</linearGradient>
</defs>
</svg>
