<svg width="56" height="56" viewBox="0 0 56 56" fill="none" xmlns="http://www.w3.org/2000/svg">
<rect x="27.5742" width="39" height="39" rx="7.69" transform="rotate(45 27.5742 0)" fill="#FFD7D7"/>
<path d="M32.1619 13.1173C32.1619 9.19353 28.9683 6 25.0445 6C21.1208 6 17.9272 9.19353 17.9272 13.1173C17.9272 13.3161 17.9341 13.5172 17.9469 13.7208C17.9817 14.5256 19.1951 14.4509 19.1308 13.6478C19.1196 13.4671 19.1123 13.2898 19.1123 13.1172C19.1123 9.83459 21.7607 7.1861 25.0434 7.1861C28.3261 7.1861 30.9745 9.83454 30.9745 13.1172C30.9745 13.8515 30.8741 14.6515 30.6849 15.4816C30.5855 15.4928 30.4779 15.51 30.3802 15.536V14.8966C30.3814 14.5689 30.1171 14.3023 29.7894 14.3011H28.6032C27.2619 14.3011 26.7903 12.9307 26.7903 12.9307C26.7071 12.6777 26.4656 12.5117 26.1995 12.5241C25.9544 12.5353 25.7421 12.6976 25.6655 12.9307C25.6655 12.9307 25.1919 14.3011 23.8572 14.3011H20.2974C19.9697 14.3023 19.7053 14.5689 19.7065 14.8966V15.5314C18.5205 15.2429 17.3341 16.0756 17.3341 17.2598C17.3341 18.9943 18.5549 20.0794 20.0048 20.2183C20.3052 21.0806 20.821 21.8381 21.4859 22.4332V25.5737C21.4858 25.6374 21.496 25.7008 21.516 25.7614C22.0685 27.1245 23.3674 27.9461 25.0457 27.9461C26.724 27.9461 28.0293 27.1192 28.5743 25.7614C28.5947 25.7008 28.6053 25.6374 28.6055 25.5737V22.4356C29.2704 21.8413 29.7877 21.0838 30.0871 20.2218C31.4576 20.0826 32.755 19.0346 32.755 17.2591C32.7325 16.5744 32.3516 16.0422 31.8444 15.7445C32.0484 14.8485 32.1619 13.9582 32.1619 13.1173ZM36.9056 8.96669V9.55749H36.3148C35.3393 9.55749 34.5331 10.3648 34.5331 11.3403V15.4898C34.5331 18.8941 37.1392 21.6846 40.4654 21.9839V30.3198C40.4654 31.3158 39.6844 32.0969 38.6884 32.0969H38.0628C37.7595 28.1141 34.4436 24.9795 30.3825 24.9795C29.5808 24.9683 29.5808 26.1767 30.3825 26.1657C33.8069 26.1657 36.5801 28.7546 36.8766 32.0969H30.8899C30.6244 31.0793 29.7034 30.3198 28.6055 30.3198C27.3023 30.3198 26.2319 31.3844 26.2319 32.6876C26.2319 33.9909 27.3023 35.0612 28.6055 35.0612C29.7024 35.0612 30.6223 34.3002 30.8888 33.2831H38.6884C40.321 33.2831 41.6528 31.9524 41.6528 30.3198V21.9839C44.9771 21.6824 47.585 18.8925 47.585 15.4898V11.3403C47.585 10.3648 46.7777 9.55749 45.8022 9.55749H45.2114V8.96669C45.2114 8.15958 44.0252 8.16359 44.0252 8.96669V11.3403C44.0423 12.1138 45.1943 12.1138 45.2114 11.3403V10.7449H45.8022C46.1411 10.7449 46.3988 11.0015 46.3988 11.3403V15.4898C46.3988 18.4573 44.0237 20.8277 41.0562 20.8277C38.0887 20.8277 35.7194 18.4573 35.7194 15.4898V11.3403C35.7194 11.0015 35.9759 10.7449 36.3148 10.7449H36.9056V11.3403C36.9056 12.1318 38.093 12.1318 38.093 11.3403V8.96669C38.093 8.18125 36.9056 8.15243 36.9056 8.96669ZM26.2319 14.3082C26.6089 14.8155 27.3696 15.4875 28.6043 15.4875H29.1951V18.4565C29.1951 20.7668 27.3549 22.6071 25.0445 22.6071C22.7342 22.6071 20.8939 20.7668 20.8939 18.4565V15.4875H23.8583C25.095 15.4875 25.8061 14.8423 26.2319 14.3082ZM30.357 18.9615C30.4042 18.2745 30.3814 17.5774 30.3814 16.8636C30.8225 16.4082 31.5664 16.7993 31.5641 17.283C31.5598 18.1758 31.0202 18.7667 30.357 18.9615ZM19.7332 18.9615C19.07 18.7667 18.5261 18.1726 18.5261 17.283C18.5261 16.6975 19.3538 16.4672 19.7077 16.8613C19.7035 17.5462 19.6974 18.3111 19.7332 18.9615ZM22.6721 23.2395C23.3865 23.5936 24.192 23.7933 25.0445 23.7933C25.8978 23.7933 26.7028 23.5933 27.4181 23.2395V25.4289C27.4181 25.4289 26.9251 26.76 25.0457 26.76C23.1662 26.76 22.6721 25.4289 22.6721 25.4289V23.2395ZM19.7065 24.9795C15.4452 24.9795 11.9961 28.4287 11.9961 32.69V40.9935C11.9961 41.3211 12.2617 41.5866 12.5892 41.5866H16.7595H33.3666H37.4998C37.8274 41.5866 38.0929 41.3211 38.093 40.9935V35.0624C38.1042 34.2603 36.8954 34.2603 36.9067 35.0624V36.8428H33.9423V35.0612C33.9423 34.2217 32.7561 34.2887 32.7561 35.0612V40.4004H17.3352V35.0612C17.3352 34.261 16.149 34.2592 16.149 35.0612V36.8428H13.1823V32.69C13.1823 29.0653 16.0819 26.1657 19.7065 26.1657C20.5083 26.1769 20.5083 24.9685 19.7065 24.9795ZM28.6055 31.5014C29.2677 31.5014 29.7917 32.0255 29.7917 32.6876C29.7917 33.3498 29.2677 33.875 28.6055 33.875C27.9433 33.875 27.4181 33.3498 27.4181 32.6876C27.4181 32.0255 27.9433 31.5014 28.6055 31.5014ZM13.1823 38.0302H16.149V40.4004H13.1823V38.0302ZM33.9423 38.0302H36.9067V40.4004H33.9423V38.0302Z" fill="black"/>
<mask id="mask0_2053_347" style="mask-type:alpha" maskUnits="userSpaceOnUse" x="11" y="6" width="37" height="36">
<path d="M32.1619 13.1173C32.1619 9.19353 28.9683 6 25.0445 6C21.1208 6 17.9272 9.19353 17.9272 13.1173C17.9272 13.3161 17.9341 13.5172 17.9469 13.7208C17.9817 14.5256 19.1951 14.4509 19.1308 13.6478C19.1196 13.4671 19.1123 13.2898 19.1123 13.1172C19.1123 9.83459 21.7607 7.1861 25.0434 7.1861C28.3261 7.1861 30.9745 9.83454 30.9745 13.1172C30.9745 13.8515 30.8741 14.6515 30.6849 15.4816C30.5855 15.4928 30.4779 15.51 30.3802 15.536V14.8966C30.3814 14.5689 30.1171 14.3023 29.7894 14.3011H28.6032C27.2619 14.3011 26.7903 12.9307 26.7903 12.9307C26.7071 12.6777 26.4656 12.5117 26.1995 12.5241C25.9544 12.5353 25.7421 12.6976 25.6655 12.9307C25.6655 12.9307 25.1919 14.3011 23.8572 14.3011H20.2974C19.9697 14.3023 19.7053 14.5689 19.7065 14.8966V15.5314C18.5205 15.2429 17.3341 16.0756 17.3341 17.2598C17.3341 18.9943 18.5549 20.0794 20.0048 20.2183C20.3052 21.0806 20.821 21.8381 21.4859 22.4332V25.5737C21.4858 25.6374 21.496 25.7008 21.516 25.7614C22.0685 27.1245 23.3674 27.9461 25.0457 27.9461C26.724 27.9461 28.0293 27.1192 28.5743 25.7614C28.5947 25.7008 28.6053 25.6374 28.6055 25.5737V22.4356C29.2704 21.8413 29.7877 21.0838 30.0871 20.2218C31.4576 20.0826 32.755 19.0346 32.755 17.2591C32.7325 16.5744 32.3516 16.0422 31.8444 15.7445C32.0484 14.8485 32.1619 13.9582 32.1619 13.1173ZM36.9056 8.96669V9.55749H36.3148C35.3393 9.55749 34.5331 10.3648 34.5331 11.3403V15.4898C34.5331 18.8941 37.1392 21.6846 40.4654 21.9839V30.3198C40.4654 31.3158 39.6844 32.0969 38.6884 32.0969H38.0628C37.7595 28.1141 34.4436 24.9795 30.3825 24.9795C29.5808 24.9683 29.5808 26.1767 30.3825 26.1657C33.8069 26.1657 36.5801 28.7546 36.8766 32.0969H30.8899C30.6244 31.0793 29.7034 30.3198 28.6055 30.3198C27.3023 30.3198 26.2319 31.3844 26.2319 32.6876C26.2319 33.9909 27.3023 35.0612 28.6055 35.0612C29.7024 35.0612 30.6223 34.3002 30.8888 33.2831H38.6884C40.321 33.2831 41.6528 31.9524 41.6528 30.3198V21.9839C44.9771 21.6824 47.585 18.8925 47.585 15.4898V11.3403C47.585 10.3648 46.7777 9.55749 45.8022 9.55749H45.2114V8.96669C45.2114 8.15958 44.0252 8.16359 44.0252 8.96669V11.3403C44.0423 12.1138 45.1943 12.1138 45.2114 11.3403V10.7449H45.8022C46.1411 10.7449 46.3988 11.0015 46.3988 11.3403V15.4898C46.3988 18.4573 44.0237 20.8277 41.0562 20.8277C38.0887 20.8277 35.7194 18.4573 35.7194 15.4898V11.3403C35.7194 11.0015 35.9759 10.7449 36.3148 10.7449H36.9056V11.3403C36.9056 12.1318 38.093 12.1318 38.093 11.3403V8.96669C38.093 8.18125 36.9056 8.15243 36.9056 8.96669ZM26.2319 14.3082C26.6089 14.8155 27.3696 15.4875 28.6043 15.4875H29.1951V18.4565C29.1951 20.7668 27.3549 22.6071 25.0445 22.6071C22.7342 22.6071 20.8939 20.7668 20.8939 18.4565V15.4875H23.8583C25.095 15.4875 25.8061 14.8423 26.2319 14.3082ZM30.357 18.9615C30.4042 18.2745 30.3814 17.5774 30.3814 16.8636C30.8225 16.4082 31.5664 16.7993 31.5641 17.283C31.5598 18.1758 31.0202 18.7667 30.357 18.9615ZM19.7332 18.9615C19.07 18.7667 18.5261 18.1726 18.5261 17.283C18.5261 16.6975 19.3538 16.4672 19.7077 16.8613C19.7035 17.5462 19.6974 18.3111 19.7332 18.9615ZM22.6721 23.2395C23.3865 23.5936 24.192 23.7933 25.0445 23.7933C25.8978 23.7933 26.7028 23.5933 27.4181 23.2395V25.4289C27.4181 25.4289 26.9251 26.76 25.0457 26.76C23.1662 26.76 22.6721 25.4289 22.6721 25.4289V23.2395ZM19.7065 24.9795C15.4452 24.9795 11.9961 28.4287 11.9961 32.69V40.9935C11.9961 41.3211 12.2617 41.5866 12.5892 41.5866H16.7595H33.3666H37.4998C37.8274 41.5866 38.0929 41.3211 38.093 40.9935V35.0624C38.1042 34.2603 36.8954 34.2603 36.9067 35.0624V36.8428H33.9423V35.0612C33.9423 34.2217 32.7561 34.2887 32.7561 35.0612V40.4004H17.3352V35.0612C17.3352 34.261 16.149 34.2592 16.149 35.0612V36.8428H13.1823V32.69C13.1823 29.0653 16.0819 26.1657 19.7065 26.1657C20.5083 26.1769 20.5083 24.9685 19.7065 24.9795ZM28.6055 31.5014C29.2677 31.5014 29.7917 32.0255 29.7917 32.6876C29.7917 33.3498 29.2677 33.875 28.6055 33.875C27.9433 33.875 27.4181 33.3498 27.4181 32.6876C27.4181 32.0255 27.9433 31.5014 28.6055 31.5014ZM13.1823 38.0302H16.149V40.4004H13.1823V38.0302ZM33.9423 38.0302H36.9067V40.4004H33.9423V38.0302Z" fill="#DC2626"/>
</mask>
<g mask="url(#mask0_2053_347)">
<path d="M38.0784 32.0825H34.9839L34.5419 31.1984L32.3315 30.3143L30.5633 29.4301H27.0267L25.2585 32.0825L24.8164 35.177L28.3529 37.3873L31.4474 34.2929L35.426 33.8508L39.4046 34.2929L42.499 32.5246L43.8252 31.1984L46.4776 24.1254L50.0141 17.0523L47.8038 6.44273L41.6149 5.55859L36.7522 6.44273L32.7736 9.97925L34.0998 20.5888L38.0784 28.1039V32.0825Z" fill="#DC2626"/>
</g>
</svg>
