<svg id="SvgjsSvg1051" width="288" height="288" xmlns="http://www.w3.org/2000/svg" version="1.1" xmlns:xlink="http://www.w3.org/1999/xlink" xmlns:svgjs="http://svgjs.com/svgjs"><defs id="SvgjsDefs1052"></defs><g id="SvgjsG1053"><svg xmlns="http://www.w3.org/2000/svg" enable-background="new 0 0 64 64" viewBox="0 0 64 64" width="288" height="288"><path d="M9.29,49.51C4.17,49.51,0,45.34,0,40.22c0-5.12,4.17-9.29,9.29-9.29s9.29,4.17,9.29,9.29
			C18.58,45.34,14.41,49.51,9.29,49.51z M9.29,31.91c-4.58,0-8.31,3.73-8.31,8.31c0,4.58,3.73,8.31,8.31,8.31s8.31-3.73,8.31-8.31
			C17.6,35.64,13.87,31.91,9.29,31.91z" fill="#000000" class="svgShape color000000-0 selectable"></path><path d="M7.5 44.69c-.38 0-.73-.15-1-.41l-2.53-2.53c-.27-.27-.41-.62-.41-1 0-.38.15-.73.41-1 .53-.53 1.46-.53 2 0l1.53 1.53 5.13-5.13c.53-.53 1.46-.54 2 0 .27.27.41.62.41 1 0 .38-.15.73-.41 1l-6.13 6.13C8.23 44.54 7.87 44.69 7.5 44.69zM4.96 40.32c-.11 0-.22.04-.3.12-.08.08-.13.19-.13.3 0 .12.04.22.13.3l2.53 2.53c.16.16.44.16.6 0l6.13-6.13c.08-.08.13-.19.13-.3 0-.12-.04-.22-.13-.3-.16-.16-.44-.16-.6 0l-5.47 5.47c-.19.19-.5.19-.7 0l-1.88-1.88C5.18 40.37 5.08 40.32 4.96 40.32zM55.73 24.05c-.4 0-.8-.15-1.11-.46l0 0L42.1 11.07c-.61-.61-.61-1.61 0-2.22l6.7-6.7c.61-.61 1.61-.61 2.22 0l12.52 12.52c.61.61.61 1.61 0 2.22l-6.7 6.7C56.53 23.9 56.13 24.05 55.73 24.05zM55.31 22.89c.23.23.6.23.83 0l6.7-6.7c.23-.23.23-.6 0-.83L50.33 2.84c-.23-.23-.6-.23-.83 0l-6.7 6.7c-.23.23-.23.6 0 .83L55.31 22.89z" fill="#dc2626" class="svgShape color000000-1 selectable"></path><path d="M17.38 37.22c-.13 0-.25-.05-.35-.14-.19-.19-.19-.5 0-.7l25.54-25.53c.19-.19.5-.19.7 0 .19.19.19.5 0 .7L17.72 37.07C17.63 37.17 17.5 37.22 17.38 37.22zM12.06 62.31c-2.32 0-4.5-.9-6.14-2.55-1.64-1.64-2.55-3.83-2.55-6.14 0-2.06.74-4.06 2.08-5.63.18-.21.49-.23.69-.06.21.18.23.49.06.69-1.19 1.4-1.85 3.17-1.85 4.99 0 2.05.8 3.99 2.26 5.45 1.46 1.46 3.39 2.26 5.45 2.26 2.06 0 3.99-.8 5.45-2.26l36.64-36.65c.19-.19.5-.19.7 0 .19.19.19.5 0 .7L18.2 59.77C16.56 61.41 14.38 62.31 12.06 62.31z" fill="#000000" class="svgShape color000000-2 selectable"></path><path d="M26.74,51.03c-0.13,0-0.25-0.05-0.35-0.14l-6.75-6.75c-0.09-0.09-0.14-0.22-0.14-0.35c0-0.13,0.05-0.26,0.14-0.35
					l13.88-13.88c0.19-0.19,0.5-0.19,0.7,0l6.75,6.75c0.19,0.19,0.19,0.5,0,0.7s-0.5,0.19-0.7,0l-6.4-6.4L20.68,43.78l6.41,6.41
					c0.19,0.19,0.19,0.5,0,0.7C26.99,50.98,26.86,51.03,26.74,51.03z" fill="#000000" class="svgShape color000000-3 selectable"></path><path d="M38.08 39.68c-.13 0-.25-.05-.35-.14l-4.22-4.22c-.19-.19-.19-.5 0-.7.19-.19.5-.19.7 0l4.22 4.22c.19.19.19.5 0 .7C38.34 39.63 38.21 39.68 38.08 39.68zM34.99 42.77c-.13 0-.25-.05-.35-.14l-4.22-4.22c-.19-.19-.19-.5 0-.7.19-.19.5-.19.7 0l4.22 4.22c.19.19.19.5 0 .7C35.24 42.73 35.11 42.77 34.99 42.77zM31.89 45.87c-.13 0-.25-.05-.35-.14l-4.22-4.22c-.19-.19-.19-.5 0-.7.19-.19.5-.19.7 0l4.22 4.22c.19.19.19.5 0 .7C32.15 45.82 32.02 45.87 31.89 45.87zM57.51 22.72c-.13 0-.25-.05-.35-.14L43.12 8.53c-.19-.19-.19-.5 0-.7.19-.19.5-.19.7 0l14.04 14.04c.19.19.19.5 0 .7C57.76 22.67 57.63 22.72 57.51 22.72zM57.27 18.66c-.13 0-.25-.05-.35-.14-.19-.19-.19-.5 0-.7l2.63-2.63c.19-.19.5-.19.7 0 .19.19.19.5 0 .7l-2.63 2.63C57.53 18.61 57.4 18.66 57.27 18.66zM54.83 16.22c-.13 0-.25-.05-.35-.14-.19-.19-.19-.5 0-.7l2.63-2.63c.19-.19.5-.19.7 0s.19.5 0 .7l-2.63 2.63C55.09 16.17 54.96 16.22 54.83 16.22zM52.4 13.78c-.13 0-.25-.05-.35-.14-.19-.19-.19-.5 0-.7l2.63-2.63c.19-.19.5-.19.7 0 .19.19.19.5 0 .7l-2.63 2.63C52.65 13.73 52.52 13.78 52.4 13.78zM49.96 11.34c-.13 0-.25-.05-.35-.14-.19-.19-.19-.5 0-.7l2.63-2.63c.19-.19.5-.19.7 0s.19.5 0 .7l-2.63 2.63C50.21 11.3 50.08 11.34 49.96 11.34zM47.52 8.91c-.13 0-.25-.05-.35-.14-.19-.19-.19-.5 0-.7l2.63-2.63c.19-.19.5-.19.7 0 .19.19.19.5 0 .7l-2.63 2.63C47.77 8.86 47.65 8.91 47.52 8.91zM47.52 30.24c-.11 0-.22-.04-.31-.11-2.34-1.9-4.04-2.34-6.01-2.85-2.4-.62-5.12-1.33-9.43-4.88-.21-.17-.24-.48-.07-.69.17-.21.48-.24.69-.07 4.15 3.41 6.64 4.06 9.05 4.68 2 .52 3.88 1.01 6.38 3.04.21.17.24.48.07.69C47.8 30.18 47.66 30.24 47.52 30.24z" fill="#dc2626" class="svgShape color000000-4 selectable"></path></svg></g></svg>