<svg xmlns="http://www.w3.org/2000/svg" viewBox="0 0 24 24" id="blood-bank">
  <g fill-rule="evenodd">
    <path d="M12.388 1.685 12 2l-.388-.315a.5.5 0 0 1 .776 0ZM12 2.805a68.698 68.698 0 0 0-3.083 4.271c-.869 1.312-1.73 2.733-2.373 4.058C5.892 12.477 5.5 13.654 5.5 14.5a6.5 6.5 0 1 0 13 0c0-.846-.392-2.023-1.044-3.366-.642-1.325-1.504-2.746-2.373-4.058A68.757 68.757 0 0 0 12 2.806ZM12 2l-.388-.315-.006.007-.016.02-.06.074-.224.284a69.701 69.701 0 0 0-3.223 4.454c-.881 1.33-1.77 2.793-2.44 4.174C4.984 12.06 4.5 13.413 4.5 14.5a7.5 7.5 0 0 0 15 0c0-1.087-.483-2.439-1.144-3.802-.67-1.381-1.558-2.844-2.44-4.174a69.642 69.642 0 0 0-3.447-4.738l-.06-.075-.015-.019-.006-.007L12 2Z"></path>
    <path d="M10.45 11a.5.5 0 0 1 .5-.5h2.1a.5.5 0 0 1 .5.5v1.95h1.95a.5.5 0 0 1 .5.5v2.1a.5.5 0 0 1-.5.5h-1.95V18a.5.5 0 0 1-.5.5h-2.1a.5.5 0 0 1-.5-.5v-1.95H8.5a.5.5 0 0 1-.5-.5v-2.1a.5.5 0 0 1 .5-.5h1.95V11Zm1 .5v1.95a.5.5 0 0 1-.5.5H9v1.1h1.95a.5.5 0 0 1 .5.5v1.95h1.1v-1.95a.5.5 0 0 1 .5-.5H15v-1.1h-1.95a.5.5 0 0 1-.5-.5V11.5h-1.1Z"></path>
  </g>
</svg>
