<svg xmlns="http://www.w3.org/2000/svg" viewBox="0 0 32 32" id="shield">
  <path d="M28.05,7.84a4.09,4.09,0,0,0-2.44-2.46L17.72,2.32a4.75,4.75,0,0,0-3.44,0L6.39,5.38A4.09,4.09,0,0,0,4,7.84a17.08,17.08,0,0,0,1.8,15,19.83,19.83,0,0,0,7.52,6.53,6.06,6.06,0,0,0,5.46,0,19.83,19.83,0,0,0,7.52-6.53A17.08,17.08,0,0,0,28.05,7.84ZM24.59,21.71a17.9,17.9,0,0,1-6.77,5.86,4,4,0,0,1-3.64,0,17.9,17.9,0,0,1-6.77-5.86A15.08,15.08,0,0,1,5.85,8.47,2.08,2.08,0,0,1,7.12,7.25L15,4.18A2.85,2.85,0,0,1,16,4a2.65,2.65,0,0,1,1,.19l7.88,3.06a2.08,2.08,0,0,1,1.27,1.22A15.08,15.08,0,0,1,24.59,21.71Z"></path>
  <path d="M19.27,11a25.61,25.61,0,0,0-2.6-2.71,1,1,0,0,0-1.34,0A24.78,24.78,0,0,0,12.73,11,25.34,25.34,0,0,0,11,13.35a6.43,6.43,0,0,0-.21,6.52,5.9,5.9,0,0,0,10.42,0A6.43,6.43,0,0,0,21,13.35,26.87,26.87,0,0,0,19.27,11Zm.18,8a3.89,3.89,0,0,1-6.9,0,4.41,4.41,0,0,1,.14-4.49,23.91,23.91,0,0,1,1.59-2.19A21.64,21.64,0,0,1,16,10.36a21.64,21.64,0,0,1,1.72,1.87,23.91,23.91,0,0,1,1.59,2.19A4.41,4.41,0,0,1,19.45,18.91Z"></path>
</svg>
