<svg xmlns="http://www.w3.org/2000/svg" viewBox="0 0 128 128" id="blood">
  <path d="M46.133 79.1a2 2 0 0 0-2.525 1.275c-2.901 8.817-1.871 16.615 2.9 21.957a2.054 2.054 0 0 0 2.824.16 2 2 0 0 0 .16-2.824c-5.1-5.71-3.495-13.755-2.084-18.043a2 2 0 0 0-1.275-2.525zM54 39.13C54 25.912 33.396 1.69 32.519.666a2.065 2.065 0 0 0-3.038 0C28.604 1.691 8 25.912 8 39.13 8 52.843 18.318 64 31 64s23-11.157 23-24.87zM31 59.998c-10.477 0-19-9.361-19-20.868 0-8.974 12.554-26.166 19-34.043 6.447 7.875 19 25.063 19 34.043 0 11.507-8.523 20.868-19 20.868zm26.636-19.219a316.536 316.536 0 0 1 9.926-13.599c4.588 5.926 18.356 24.3 26.123 40.923.832-.08 1.673-.124 2.525-.124.602 0 1.198.028 1.79.068-9.247-20.799-27.864-44.054-28.907-45.348a2.026 2.026 0 0 0-3.061 0c-.447.554-4.121 5.143-8.9 11.839a21.453 21.453 0 0 1 .552 4.574c0 .56-.018 1.115-.048 1.667z"></path>
  <path d="M67.562 123.999c-17.43 0-31.61-16.54-31.61-36.87 0-6.13 2.931-14.087 7.05-22.243a25.245 25.245 0 0 1-5.447 2.211C34.234 74.373 32 81.395 32 87.13 32 109.665 47.953 128 67.562 128a32.302 32.302 0 0 0 20.32-7.358 26.35 26.35 0 0 1-4.197-1.816 28.117 28.117 0 0 1-16.123 5.173Z"></path>
  <path d="M97 72a23 23 0 1 0 23 23 23.026 23.026 0 0 0-23-23Zm0 42a19 19 0 1 1 19-19 19.022 19.022 0 0 1-19 19Z"></path>
  <path d="M108 89h-5v-5a4.005 4.005 0 0 0-4-4h-4a4.005 4.005 0 0 0-4 4v5h-5a4.005 4.005 0 0 0-4 4v4a4.005 4.005 0 0 0 4 4h5v5a4.005 4.005 0 0 0 4 4h4a4.005 4.005 0 0 0 4-4v-5h5a4.005 4.005 0 0 0 4-4v-4a4.005 4.005 0 0 0-4-4zm0 8h-7a2 2 0 0 0-2 2v7h-4v-7a2 2 0 0 0-2-2h-7v-4h7a2 2 0 0 0 2-2v-7h4v7a2 2 0 0 0 2 2h7zM20.947 30.238a1.999 1.999 0 0 0-2.709.815c-3.515 6.54-2.267 11.432-.394 15.744a2.024 2.024 0 0 0 2.631 1.037 2 2 0 0 0 1.038-2.63c-1.795-4.132-2.329-7.462.249-12.257a2 2 0 0 0-.815-2.709z"></path>
</svg>
