<svg xmlns="http://www.w3.org/2000/svg" viewBox="0 0 60 60" id="blood-care">
  <path d="M12.435 18.462a3.362 3.362 0 0 0-3.122.914 3.377 3.377 0 0 0-.978 2.371v14.556c0 1.2.467 2.32 1.309 3.151l1.85 1.85c2.273 2.275 3.728 3.97 3.992 6.97h-.898a1 1 0 0 0-1 1v3.71a1 1 0 0 0 1 1h11.64a1 1 0 0 0 1-1v-3.71a1 1 0 0 0-1-1H25.6v-6.57a6.37 6.37 0 0 0-1.875-4.536h-.001l-4.842-4.834c-1.024-1.023-2.554-1.35-3.804-.818v-9.633c0-1.65-1.113-3.088-2.644-3.42zm12.793 33.522h-9.64v-1.71h.938c.006 0 .01.004.015.004h8.06c.005 0 .009-.003.014-.003h.613v1.709zM15.856 33.36c.512-.22 1.16-.064 1.614.39l4.842 4.833a4.383 4.383 0 0 1 1.289 3.12v6.572h-6.096c-.27-3.769-2.097-5.885-4.597-8.384l-1.855-1.856a2.414 2.414 0 0 1-.718-1.732V21.747c0-.358.144-.703.4-.964a1.347 1.347 0 0 1 1.272-.367c.62.135 1.072.752 1.072 1.467v12.21c0 .035.015.065.019.1.003.035-.007.069 0 .105.01.045.033.086.044.131.005.014.008.027.014.04.111.411.286.801.548 1.15.095.126.195.244.24.282l3.685 4.497a.997.997 0 0 0 1.407.14 1 1 0 0 0 .14-1.408l-3.751-4.57a1.405 1.405 0 0 1-.297-.46c.132-.329.384-.595.728-.74zm34.5 6.094a4.487 4.487 0 0 0 1.309-3.151V21.747c0-.883-.347-1.725-.984-2.378a3.361 3.361 0 0 0-3.112-.908c-1.535.334-2.648 1.773-2.648 3.422v9.633c-1.272-.536-2.762-.219-3.813.818l-4.834 4.834a6.37 6.37 0 0 0-1.875 4.535v6.572h-.628a1 1 0 0 0-1 1v3.709a1 1 0 0 0 1 1h11.64a1 1 0 0 0 1-1v-3.71a1 1 0 0 0-1-1h-.897c.264-3 1.719-4.695 3.992-6.97l1.85-1.85zm-5.946 12.53h-9.64v-1.71h.615c.005 0 .01.004.014.004h8.06l.015-.003h.936v1.709zm-1.915-3.71h-6.096v-6.57c0-1.182.458-2.29 1.29-3.122l4.829-4.829c.46-.455 1.113-.613 1.63-.392.34.144.59.408.723.736a1.426 1.426 0 0 1-.184.33 2.117 2.117 0 0 1-.18.206l-3.685 4.497a1 1 0 1 0 1.547 1.268l3.618-4.424a3.358 3.358 0 0 0 .853-1.497c.008-.02.013-.041.02-.062.01-.04.03-.076.04-.117.006-.032-.003-.063 0-.095.005-.038.02-.071.02-.11v-12.21c0-.715.452-1.332 1.077-1.468.468-.107.93.03 1.262.36.262.268.406.614.406.972v14.556c0 .645-.264 1.278-.723 1.737l-1.85 1.85c-2.5 2.5-4.326 4.616-4.597 8.385zM29.145 6.467C28.35 7.78 21.39 19.42 21.39 23.776c0 4.749 3.862 8.611 8.61 8.611s8.61-3.862 8.61-8.61c0-4.357-6.96-15.997-7.755-17.31-.36-.6-1.35-.6-1.71 0zm7.465 17.31c0 3.645-2.965 6.611-6.61 6.611s-6.61-2.966-6.61-6.61c0-2.84 4.196-10.666 6.61-14.828 2.414 4.162 6.61 11.987 6.61 14.828z"></path>
  <path d="M26.983 23.777a1 1 0 1 0-2 0A5.022 5.022 0 0 0 30 28.793a1 1 0 1 0 0-2 3.02 3.02 0 0 1-3.017-3.016z"></path>
</svg>
