<svg xmlns="http://www.w3.org/2000/svg" viewBox="0 0 512 512" id="booking">
  <g>
    <path d="M442 451.63H70a65 65 0 0 1-65-65V240.46a6 6 0 0 1 12 0v146.2a53 53 0 0 0 53 53h372a53 53 0 0 0 53-53V152.73H17v40.93a6 6 0 0 1-12 0v-46.93a6 6 0 0 1 6-6h490a6 6 0 0 1 6 6v239.93a65.05 65.05 0 0 1-65 64.97Z"></path>
    <path d="M11 227.56a6 6 0 0 1-6-6v-9a6 6 0 0 1 12 0v9a6 6 0 0 1-6 6zm490-74.83H11a6 6 0 0 1-6-6v-14.11c0-39.84 29.15-72.25 65-72.25h372c35.83 0 65 32.41 65 72.25v14.11a6 6 0 0 1-6 6zm-484-12h478v-8.11c0-33.22-23.77-60.25-53-60.25H70c-29.21 0-53 27-53 60.25z"></path>
    <path d="M82.05 132.64A22.66 22.66 0 1 1 104.71 110a22.69 22.69 0 0 1-22.66 22.64zm0-33.32A10.66 10.66 0 1 0 92.71 110a10.67 10.67 0 0 0-10.66-10.68zm49 33.32A22.66 22.66 0 1 1 153.71 110a22.69 22.69 0 0 1-22.66 22.64zm0-33.32A10.66 10.66 0 1 0 141.71 110a10.67 10.67 0 0 0-10.66-10.68zm49 33.32A22.66 22.66 0 1 1 202.71 110a22.69 22.69 0 0 1-22.66 22.64zm0-33.32A10.66 10.66 0 1 0 190.71 110a10.67 10.67 0 0 0-10.66-10.68zm252.35 30.87H264.82a20.21 20.21 0 1 1 0-40.42H432.4a20.21 20.21 0 1 1 0 40.42zm-167.58-28.42a8.21 8.21 0 1 0 0 16.42H432.4a8.21 8.21 0 1 0 0-16.42zM93.47 291.2a20.74 20.74 0 0 0-14.73-35.36H61a11.52 11.52 0 0 0-11.5 11.52V325A11.53 11.53 0 0 0 61 336.53h16.21a25.58 25.58 0 0 0 16.26-45.33zm-32-23.36h17.27a8.76 8.76 0 1 1 0 17.51H61.5zm15.71 56.69H61.5v-27.18h15.71a13.59 13.59 0 1 1 0 27.18zm384.16-19.61a6 6 0 0 0-4.83-2.46h-18.18a6 6 0 0 0 0 12h8.73c-4.19 6.23-10.41 10.07-17 10.07-12.3 0-22.31-12.72-22.31-28.35s10-28.34 22.31-28.34c6.76 0 13.09 3.86 17.37 10.61a6 6 0 1 0 10.13-6.45c-6.53-10.29-16.55-16.18-27.5-16.18-18.92 0-34.31 18.09-34.31 40.34s15.39 40.35 34.31 40.35c14.29 0 27.21-10.56 32.17-26.26a6 6 0 0 0-.89-5.33zm-139.97-49.08a6 6 0 0 0-6 6v68.69a6 6 0 0 0 12 0v-68.69a6 6 0 0 0-6-6zM282.76 296l25.61-28.54a6 6 0 1 0-8.93-8l-26.64 29.62v-27.24a6 6 0 0 0-12 0v68.69a6 6 0 0 0 12 0v-23.48l1.89-2.12 26.05 29a6 6 0 0 0 8.93-8zm101.18-40.16a6 6 0 0 0-6 6v48.65l-29.46-50.94a7.44 7.44 0 0 0-13.88 3.72v67.26a6 6 0 0 0 12 0v-50.25L377.07 333a6.9 6.9 0 0 0 12.87-3.46v-67.7a6 6 0 0 0-6-6zm-241.27 0c-20 0-36.32 18.09-36.32 40.34s16.29 40.35 36.32 40.35S179 318.43 179 296.18s-16.3-40.34-36.33-40.34zm0 68.69c-13.41 0-24.32-12.72-24.32-28.35s10.91-28.34 24.32-28.34S167 280.55 167 296.18s-10.92 28.35-24.33 28.35zm77.63-68.69c-20 0-36.32 18.09-36.32 40.34s16.29 40.35 36.32 40.35 36.33-18.1 36.33-40.35-16.3-40.34-36.33-40.34zm0 68.69c-13.41 0-24.32-12.72-24.32-28.35s10.91-28.34 24.32-28.34 24.33 12.71 24.33 28.34-10.91 28.35-24.33 28.35z"></path>
  </g>
</svg>
