<svg xmlns="http://www.w3.org/2000/svg" viewBox="0 0 64 64" id="booking">
  <path d="M26,56a3,3,0,1,0-3-3A3,3,0,0,0,26,56Zm0-4a1,1,0,1,1-1,1A1,1,0,0,1,26,52Z"></path>
  <path d="M53,18H50.816a2.982,2.982,0,0,0-5.632,0H45V7a6.006,6.006,0,0,0-6-6H13A6.006,6.006,0,0,0,7,7V57a6.006,6.006,0,0,0,6,6H39a6.006,6.006,0,0,0,6-6V48h8a4,4,0,0,0,4-4V22A4,4,0,0,0,53,18Zm2,4v4H21V22a2,2,0,0,1,2-2h2v1a3,3,0,0,0,6,0V20h4v1a3,3,0,0,0,6,0V20h4v1a3,3,0,0,0,6,0V20h2A2,2,0,0,1,55,22ZM27,21V19a1,1,0,0,1,2,0v2a1,1,0,0,1-2,0Zm10,0V19a1,1,0,0,1,2,0v2a1,1,0,0,1-2,0Zm10-2a1,1,0,0,1,2,0v2a1,1,0,0,1-2,0ZM43,57a4,4,0,0,1-4,4H13a4,4,0,0,1-4-4V7a4,4,0,0,1,4-4H39a4,4,0,0,1,4,4V18H40.816a2.982,2.982,0,0,0-5.632,0H30.816a2.982,2.982,0,0,0-5.632,0H23a4,4,0,0,0-4,4V44a4,4,0,0,0,4,4H39v8a1,1,0,0,1-1,1H14a1,1,0,0,1-1-1V7h4.7l2.748,1.832A1.006,1.006,0,0,0,21,9H31a1.006,1.006,0,0,0,.555-.168L34.3,7H39v8h2V7a2,2,0,0,0-2-2H34a1.006,1.006,0,0,0-.555.168L30.7,7H21.3L18.555,5.168A1.006,1.006,0,0,0,18,5H13a2,2,0,0,0-2,2V56a3,3,0,0,0,3,3H38a3,3,0,0,0,3-3V48h2ZM53,46H23a2,2,0,0,1-2-2V28H55V44A2,2,0,0,1,53,46Z"></path>
  <path d="M28 30H24a1 1 0 00-1 1v4a1 1 0 001 1h4a1 1 0 001-1V31A1 1 0 0028 30zm-1 4H25V32h2zM36 30H32a1 1 0 00-1 1v4a1 1 0 001 1h4a1 1 0 001-1V31A1 1 0 0036 30zm-1 4H33V32h2zM44 30H40a1 1 0 00-1 1v4a1 1 0 001 1h4a1 1 0 001-1V31A1 1 0 0044 30zm-1 4H41V32h2zM28 38H24a1 1 0 00-1 1v4a1 1 0 001 1h4a1 1 0 001-1V39A1 1 0 0028 38zm-1 4H25V40h2zM36 38H32a1 1 0 00-1 1v4a1 1 0 001 1h4a1 1 0 001-1V39A1 1 0 0036 38zm-1 4H33V40h2zM44 38H40a1 1 0 00-1 1v4a1 1 0 001 1h4a1 1 0 001-1V39A1 1 0 0044 38zm-1 4H41V40h2zM52 30H48a1 1 0 00-1 1v4a1 1 0 001 1h4a1 1 0 001-1V31A1 1 0 0052 30zm-1 4H49V32h2zM52 38H48a1 1 0 00-1 1v4a1 1 0 001 1h4a1 1 0 001-1V39A1 1 0 0052 38zm-1 4H49V40h2z"></path>
</svg>
