<svg xmlns="http://www.w3.org/2000/svg" viewBox="0 0 64 64" id="cancer">
  <path d="M57.51 51.35A103.75 103.75 0 0 1 38 40.86c8.64-4.86 12.87-11.35 12.56-19.4a19 19 0 0 0-13.48-17.7 18.41 18.41 0 0 0-11.51.41l-.19.07a18.81 18.81 0 0 0-12.11 17.3c-.11 5.14 1.71 10.28 5.4 15.3A90.91 90.91 0 0 1 6.8 38.55a1 1 0 0 0-.94 1.06l.44 8.28a1 1 0 0 0 1.06.94 92.55 92.55 0 0 0 19.54-3.44c10.7 8.93 24.2 14.5 26.83 15.53a1 1 0 0 0 .37.07.92.92 0 0 0 .4-.08 1 1 0 0 0 .53-.55l3-7.71a1 1 0 0 0-.52-1.3ZM36.44 5.65c.72.57 4 3.55 4.31 10.84a10.17 10.17 0 0 0-17.68-.09c.25-6.25 2.66-9.64 3.28-10.42a16.39 16.39 0 0 1 10.09-.33Zm-7 28c-4-4.18-5.93-8.18-5.85-11.89a8.46 8.46 0 0 1 8.36-8.47 8.6 8.6 0 0 1 8.36 8.55 8.53 8.53 0 0 1-.11 1.68.51.51 0 0 1 0 .13c-.75 4-4.35 7.35-10.79 10.01ZM15.27 21.58A16.94 16.94 0 0 1 23 7.59c-1.5 3.19-3 8.84-1.16 17.22v.06a21.85 21.85 0 0 0 5.52 9.57 64.73 64.73 0 0 1-6.6 1.92c-3.71-4.89-5.59-9.86-5.49-14.78ZM7.91 40.47a98.38 98.38 0 0 0 12.72-2 61.15 61.15 0 0 0 8.9-2.69C37 32.84 41.15 29 42.08 24.25a.77.77 0 0 0 0-.15 2 2 0 0 0 0-.24c1.51-8.22 0-13.41-1.75-16.42a17.22 17.22 0 0 1 8.15 14.12c.29 7.64-4.05 13.81-12.91 18.31a74.62 74.62 0 0 1-8.82 3.48 92.13 92.13 0 0 1-18.5 3.41Zm45.63 18.22c-3.84-1.58-15-6.54-24.38-14A70.34 70.34 0 0 0 36 41.9a107.11 107.11 0 0 0 19.85 10.94Z"></path>
</svg>
