<svg xmlns="http://www.w3.org/2000/svg" id="woman" viewBox="0 0 64 64">
  <path d="M42.42272,44.30659h-6.547V42.408a.99957.99957,0,1,0-1.99913,0v2.89816a.999.999,0,0,0,.99957.99957h6.547V49.9848h-6.547a.999.999,0,0,0-.99957.99956v7.0165h-3.7191v-7.0165a.999.999,0,0,0-.99957-.99956H22.611V46.30572h6.547a.999.999,0,0,0,.99957-.99957V34.82045a.99989.99989,0,0,0-.81508-.982C12.62123,30.217,14.89994,6.472,32.01722,6.02333A14.17807,14.17807,0,0,1,38.361,7.49925.99982.99982,0,0,0,39.24729,5.707C28.83112.33739,15.6575,8.32432,15.85429,20.05754A16.05615,16.05615,0,0,0,28.15838,35.62772v8.67887h-6.547a.999.999,0,0,0-.99957.99956v5.67821a.999.999,0,0,0,.99957.99957h6.547v7.0165A.999.999,0,0,0,29.15794,60h5.71824a.999.999,0,0,0,.99956-.99957v-7.0165h6.547a.999.999,0,0,0,.99957-.99957V45.30615A.999.999,0,0,0,42.42272,44.30659Z"></path>
  <path d="M42.76339,8.09274a.99955.99955,0,0,0-1.32164,1.4994c8.74309,7.56772,4.62392,22.21528-6.75029,24.24624a1,1,0,0,0-.81485.98207v3.64881a.99976.99976,0,0,0,1.99913-.00007V35.62772C48.36284,32.702,52.48122,16.546,42.76339,8.09274Z"></path>
  <path d="M24.08592,26.7546a.9995.9995,0,0,0,.03514,1.41345,11.4062,11.4062,0,0,0,7.896,3.15391c15.09666-.6191,15.1068-21.90126-.00008-22.51959C23.99455,8.635,18.20773,17.37054,21.60082,24.58771a.99952.99952,0,0,0,1.82132-.824,8.91619,8.91619,0,0,1-.79067-3.7064,9.3865,9.3865,0,0,1,18.77118,0c.04892,8.11736-10.08591,12.31585-15.90334,6.662A1.00322,1.00322,0,0,0,24.08592,26.7546Z"></path>
  <path d="M27.722,26.31826a.99809.99809,0,0,0,1.36074.38265,18.52027,18.52027,0,0,0,2.93428-2.02256,18.51494,18.51494,0,0,0,2.93428,2.02256.99951.99951,0,0,0,.97809-1.74339,16.7194,16.7194,0,0,1-2.46616-1.67713c2.67-2.99832,4.1503-6.84667.86051-9.31437a4.20512,4.20512,0,0,0-6.47184,3.202c-.01911,2.404.78676,3.75653,2.71844,6.11238a16.7285,16.7285,0,0,1-2.46569,1.67713A.99905.99905,0,0,0,27.722,26.31826Zm2.12115-8.97659a2.17857,2.17857,0,0,1,4.34675-.00089c-.04123,1.75258-.69058,2.73553-2.17274,4.56441C30.53877,20.08294,29.88392,19.09149,29.84319,17.34167Z"></path>
</svg>
