<?xml version="1.0"?>
<svg xmlns="http://www.w3.org/2000/svg" id="Layer_1" data-name="Layer 1" viewBox="0 0 128 128"><title/><path d="M88,26a16,16,0,1,0,16-16A16.01833,16.01833,0,0,0,88,26Zm28,0a12,12,0,1,1-12-12A12.01375,12.01375,0,0,1,116,26Z"/><path d="M101.2998,19.3999a2.00075,2.00075,0,0,0-.3999,2.80029L103.5,25.6665V31a2,2,0,0,0,4,0V25a2,2,0,0,0-.3999-1.2002l-3-4A2.00112,2.00112,0,0,0,101.2998,19.3999Z"/><path d="M52.75,73h22a2,2,0,0,0,0-4h-22a2,2,0,0,0,0,4Z"/><path d="M77,35V33a8,8,0,0,0-16,0v2a8,8,0,0,0,16,0Zm-4,0a4,4,0,0,1-8,0V33a4,4,0,0,1,8,0Z"/><path d="M69.00977,49A2.00513,2.00513,0,1,0,69.02,49Z"/><path d="M114,84.28143V82a6.00656,6.00656,0,0,0-6-6h-1.33246A7.98549,7.98549,0,0,0,99.75,64h-4a7.98549,7.98549,0,0,0-6.91754,12H83.22821a8.979,8.979,0,0,0-3.64069-13.12872L86.834,56.88184a5.97676,5.97676,0,0,0,1.55664-7.28223L84.31055,41.3418A5.958,5.958,0,0,0,80.548,38.2215,11.94276,11.94276,0,0,1,78.72675,42h.2049a1.9884,1.9884,0,0,1,1.793,1.11377l4.08008,8.25781a1.99257,1.99257,0,0,1-.51855,2.42725l-8.63623,7.1377a1.26988,1.26988,0,0,1-1.79541-1.77881l5.28271-6.51562a2.00026,2.00026,0,0,0-3.10742-2.51953l-5.28223,6.51563A5.22633,5.22633,0,0,0,69.98871,62H68.01129a5.22721,5.22721,0,0,0-.75836-5.36182l-5.28271-6.51562a2.00026,2.00026,0,1,0-3.10742,2.51953l5.2832,6.51563a1.2703,1.2703,0,0,1-1.79639,1.77881l-8.63574-7.1377a1.99312,1.99312,0,0,1-.51855-2.42773l4.08008-8.25684A1.988,1.988,0,0,1,59.06836,42h.2049A11.94276,11.94276,0,0,1,57.452,38.2215a5.95766,5.95766,0,0,0-3.76257,3.12079l-4.08008,8.25684a5.9778,5.9778,0,0,0,1.55615,7.28271L57.35791,62H55.91553c-4.81689,0-7.06982.78809-11.15967,2.21826l-.769.269a40.68117,40.68117,0,0,1-11.34033,2.21387L15.81543,67.89355A5.94444,5.94444,0,0,0,10.25,73.94434,6.22914,6.22914,0,0,0,10.60278,76H6a6.00656,6.00656,0,0,0-6,6v3a1.983,1.983,0,0,0,.07074.5A1.983,1.983,0,0,0,0,86v15a17.019,17.019,0,0,0,17,17H30.5a7.5,7.5,0,0,0,0-15H25a2,2,0,0,0,0,4h5.5a3.5,3.5,0,0,1,0,7H17A13.01474,13.01474,0,0,1,4,101V88H111a13.01474,13.01474,0,0,1,13,13v13H49.5a3.5,3.5,0,0,1,0-7h64.50049a2,2,0,0,0,0-4H49.5a7.5,7.5,0,0,0,0,15H126a2.0001,2.0001,0,0,0,2-2V101A17.01594,17.01594,0,0,0,114,84.28143ZM95.75,68h4a4,4,0,0,1,0,8h-4a4,4,0,0,1,0-8ZM16.04834,71.88672l16.84033-1.19336a44.59035,44.59035,0,0,0,12.41309-2.42871l.7749-.27051C49.99121,66.625,51.77832,66,55.91553,66H75.75a5,5,0,0,1,0,10H16.07227a2.07344,2.07344,0,0,1-.02393-4.11328ZM110,84H4V82a2.00229,2.00229,0,0,1,2-2H108a2.00229,2.00229,0,0,1,2,2Z"/><path d="M9,15a2.0001,2.0001,0,0,0-2,2V41a8.00917,8.00917,0,0,0,8,8H39a2.0001,2.0001,0,0,0,2-2V23a8.00917,8.00917,0,0,0-8-8ZM22,45H15a4.00458,4.00458,0,0,1-4-4V34H22Zm0-15H11V19H22ZM37,45H26V34H37Zm0-22v7H26V19h7A4.00458,4.00458,0,0,1,37,23Z"/></svg>
