<svg width="56" height="56" viewBox="0 0 56 56" fill="none" xmlns="http://www.w3.org/2000/svg">
<rect x="27.5762" width="39" height="39" rx="7.69" transform="rotate(45 27.5762 0)" fill="#FFD7D7"/>
<path d="M42.3547 30.4516L40.5332 32.2732L39.5329 27.2713L38.8134 23.193C38.4873 21.3457 37.5637 19.7405 36.2674 18.5472L38.4989 15.8694C38.7778 15.5348 38.931 15.1113 38.931 14.6761C38.931 13.9657 38.5363 13.3271 37.9008 13.009L37.6942 12.906C37.3957 12.7565 37.0611 12.6774 36.7264 12.6774C35.9756 12.6774 35.2898 13.0574 34.8914 13.6942L33.2623 16.3009L34.52 12.5285C34.6003 12.2858 34.6407 12.0339 34.6407 11.7795C34.6407 10.9852 34.246 10.2479 33.5853 9.80719L32.7977 9.28194C32.5213 9.09745 32.1989 9 31.8661 9C31.0418 9 30.3455 9.58961 30.2101 10.4029L29.5101 14.6038L29.2025 10.6058C29.1332 9.70545 28.3714 9 27.4686 9C27.2804 9 27.0959 9.03003 26.9188 9.08948L26.2967 9.29665C25.4221 9.58777 24.8343 10.4035 24.8343 11.3254C24.8343 11.443 24.8441 11.5607 24.8631 11.6772L25.8959 17.8742C25.4423 18.1935 25.0219 18.5613 24.6382 18.9701L23.4571 17.789C23.147 17.4789 22.9576 17.067 22.9239 16.63L22.4636 10.645C22.3931 9.72261 21.6129 9 20.688 9C20.5416 9 20.3957 9.01777 20.2559 9.05332L18.9713 9.37448C18.0924 9.5939 17.4795 10.379 17.4795 11.2849C17.4795 11.4467 17.4991 11.6073 17.5383 11.7624L18.5361 15.7524C18.5766 15.9135 18.5006 16.0784 18.3517 16.1526C18.2321 16.2126 18.0912 16.1998 17.9833 16.1195L16.3849 14.9206C16.0367 14.6595 15.6052 14.5161 15.1701 14.5161C14.4922 14.5161 13.8622 14.8532 13.4858 15.4177L12.9023 16.2929C12.6891 16.6129 12.5763 16.9861 12.5763 17.371C12.5763 18.112 12.9882 18.7783 13.6507 19.1098L16.1734 20.3712C16.7299 20.6495 17.143 21.1312 17.3434 21.7055C14.5682 22.7321 12.5763 25.4362 12.5763 28.6105C12.5616 32.3081 13.9645 35.8648 16.527 38.6247C19.3139 41.6261 22.7976 44.0195 26.6007 45.545L29.6719 46.7763C30.044 46.9246 30.4362 47 30.8383 47C31.4549 47 32.058 46.7843 32.5348 46.3945L32.8388 46.1468C36.6786 43.0045 39.4655 38.6375 40.7054 33.8348L42.8622 31.6774H50.5762V30.4516H42.3547ZM35.9309 14.3445C36.1797 13.9455 36.7258 13.7923 37.1457 14.0025L37.3528 14.1061C37.5704 14.2146 37.7052 14.4328 37.7052 14.6761C37.7052 14.825 37.6531 14.9697 37.5575 15.0843L35.3088 17.7829C34.9515 17.5408 34.5776 17.3226 34.1847 17.1381L35.9309 14.3445ZM31.4193 10.6046C31.4702 10.2969 31.8582 10.1296 32.1174 10.3018L32.905 10.8271C33.2243 11.0397 33.4149 11.3958 33.4149 11.7795C33.4149 11.9027 33.3953 12.0247 33.3561 12.1411L31.9176 16.4566C31.507 16.3941 31.0896 16.3548 30.663 16.3548C30.5944 16.3548 30.5276 16.3659 30.4589 16.3671L31.4193 10.6046ZM26.0724 11.4761C26.0644 11.4259 26.0601 11.3756 26.0601 11.3254C26.0601 10.9319 26.3108 10.5844 26.6847 10.4593L27.3074 10.2515C27.6108 10.1523 27.9564 10.379 27.981 10.6996L28.44 16.6711C27.9528 16.8072 27.4802 16.9861 27.0279 17.2074L26.0724 11.4761ZM30.663 17.5806C32.5985 17.5806 34.3717 18.3627 35.6563 19.6504L35.0134 19.7577C33.7992 19.9599 32.6494 20.4729 31.6872 21.2427C30.6863 22.0432 29.4298 22.4839 28.1483 22.4839H28.0471C26.7361 22.4839 25.4883 22.0352 24.4813 21.217C24.6088 21.0037 24.743 20.7935 24.8864 20.5888C26.2048 18.7047 28.364 17.5806 30.663 17.5806ZM16.722 19.2747L14.1986 18.0134C13.9541 17.8908 13.8021 17.6444 13.8021 17.371C13.8021 17.2288 13.8438 17.0909 13.9228 16.9726L14.5063 16.098C14.7496 15.7321 15.2982 15.6396 15.65 15.9019L17.2478 17.1007C17.7296 17.4624 18.3621 17.5194 18.9002 17.2503C19.5664 16.9169 19.906 16.1795 19.7258 15.4563L18.728 11.4657C18.7127 11.4063 18.7053 11.3456 18.7053 11.2849C18.7053 10.9429 18.9364 10.6469 19.2679 10.5641L20.5544 10.243C20.8713 10.1608 21.2164 10.4066 21.2415 10.7394L21.7018 16.7244C21.7575 17.4532 22.0732 18.1396 22.5905 18.6563L23.858 19.9238C23.4639 20.4913 23.1292 21.0889 22.8442 21.7067L21.3126 21.4003C20.8431 21.3059 20.3614 21.2581 19.8815 21.2581H19.8012C19.3648 21.2581 18.94 21.304 18.5245 21.38C18.2315 20.4729 17.5923 19.7099 16.722 19.2747ZM19.8012 22.4839H19.8815C20.2805 22.4839 20.6813 22.5237 21.0723 22.6015L22.3827 22.8639C21.9819 24.0547 21.7698 25.3075 21.7698 26.5885V26.9207C21.7698 28.901 20.2455 30.4516 18.2989 30.4516C16.7489 30.4516 15.2908 29.8479 14.1943 28.752L13.8143 28.3708C13.94 25.104 16.5736 22.4839 19.8012 22.4839ZM32.0629 45.1975L31.7589 45.4457C31.309 45.8128 30.6612 45.8508 30.1273 45.6375L27.0573 44.4074C23.421 42.9487 20.0905 40.6601 17.4256 37.7905C15.4269 35.6386 14.2072 32.959 13.8922 30.1225C15.1376 31.1283 16.676 31.6774 18.2989 31.6774C20.8891 31.6774 22.9956 29.5439 22.9956 26.9207V26.5885C22.9956 25.1022 23.3131 23.6576 23.9107 22.3233C25.0991 23.2187 26.5388 23.7097 28.0478 23.7097H28.1489C29.7075 23.7097 31.2361 23.1734 32.4533 22.1995C33.2519 21.5608 34.2068 21.1343 35.215 20.9663L36.542 20.7451C37.0605 21.5308 37.4337 22.4275 37.606 23.4057L38.3028 27.3546L36.5371 33.5357L34.0107 22.7995L32.3105 30.4516H30.9014C30.6164 29.0548 29.379 28 27.8988 28C26.2091 28 24.8343 29.3747 24.8343 31.0645C24.8343 32.7543 26.2091 34.129 27.8988 34.129C29.3784 34.129 30.6164 33.0742 30.9014 31.6774H33.2936L34.045 28.2966L36.4218 38.3991L38.8256 29.9858L39.5274 33.4947C38.3568 38.0602 35.7109 42.212 32.0629 45.1975ZM29.7375 31.0645C29.7375 32.0783 28.9126 32.9032 27.8988 32.9032C26.8851 32.9032 26.0601 32.0783 26.0601 31.0645C26.0601 30.0508 26.8851 29.2258 27.8988 29.2258C28.9126 29.2258 29.7375 30.0508 29.7375 31.0645Z" fill="black"/>
<mask id="mask0_2060_365" style="mask-type:alpha" maskUnits="userSpaceOnUse" x="12" y="9" width="39" height="38">
<path d="M42.3547 30.4516L40.5332 32.2732L39.5329 27.2713L38.8134 23.193C38.4873 21.3457 37.5637 19.7405 36.2674 18.5472L38.4989 15.8694C38.7778 15.5348 38.931 15.1113 38.931 14.6761C38.931 13.9657 38.5363 13.3271 37.9008 13.009L37.6942 12.906C37.3957 12.7565 37.0611 12.6774 36.7264 12.6774C35.9756 12.6774 35.2898 13.0574 34.8914 13.6942L33.2623 16.3009L34.52 12.5285C34.6003 12.2858 34.6407 12.0339 34.6407 11.7795C34.6407 10.9852 34.246 10.2479 33.5853 9.80719L32.7977 9.28194C32.5213 9.09745 32.1989 9 31.8661 9C31.0418 9 30.3455 9.58961 30.2101 10.4029L29.5101 14.6038L29.2025 10.6058C29.1332 9.70545 28.3714 9 27.4686 9C27.2804 9 27.0959 9.03003 26.9188 9.08948L26.2967 9.29665C25.4221 9.58777 24.8343 10.4035 24.8343 11.3254C24.8343 11.443 24.8441 11.5607 24.8631 11.6772L25.8959 17.8742C25.4423 18.1935 25.0219 18.5613 24.6382 18.9701L23.4571 17.789C23.147 17.4789 22.9576 17.067 22.9239 16.63L22.4636 10.645C22.3931 9.72261 21.6129 9 20.688 9C20.5416 9 20.3957 9.01777 20.2559 9.05332L18.9713 9.37448C18.0924 9.5939 17.4795 10.379 17.4795 11.2849C17.4795 11.4467 17.4991 11.6073 17.5383 11.7624L18.5361 15.7524C18.5766 15.9135 18.5006 16.0784 18.3517 16.1526C18.2321 16.2126 18.0912 16.1998 17.9833 16.1195L16.3849 14.9206C16.0367 14.6595 15.6052 14.5161 15.1701 14.5161C14.4922 14.5161 13.8622 14.8532 13.4858 15.4177L12.9023 16.2929C12.6891 16.6129 12.5763 16.9861 12.5763 17.371C12.5763 18.112 12.9882 18.7783 13.6507 19.1098L16.1734 20.3712C16.7299 20.6495 17.143 21.1312 17.3434 21.7055C14.5682 22.7321 12.5763 25.4362 12.5763 28.6105C12.5616 32.3081 13.9645 35.8648 16.527 38.6247C19.3139 41.6261 22.7976 44.0195 26.6007 45.545L29.6719 46.7763C30.044 46.9246 30.4362 47 30.8383 47C31.4549 47 32.058 46.7843 32.5348 46.3945L32.8388 46.1468C36.6786 43.0045 39.4655 38.6375 40.7054 33.8348L42.8622 31.6774H50.5762V30.4516H42.3547ZM35.9309 14.3445C36.1797 13.9455 36.7258 13.7923 37.1457 14.0025L37.3528 14.1061C37.5704 14.2146 37.7052 14.4328 37.7052 14.6761C37.7052 14.825 37.6531 14.9697 37.5575 15.0843L35.3088 17.7829C34.9515 17.5408 34.5776 17.3226 34.1847 17.1381L35.9309 14.3445ZM31.4193 10.6046C31.4702 10.2969 31.8582 10.1296 32.1174 10.3018L32.905 10.8271C33.2243 11.0397 33.4149 11.3958 33.4149 11.7795C33.4149 11.9027 33.3953 12.0247 33.3561 12.1411L31.9176 16.4566C31.507 16.3941 31.0896 16.3548 30.663 16.3548C30.5944 16.3548 30.5276 16.3659 30.4589 16.3671L31.4193 10.6046ZM26.0724 11.4761C26.0644 11.4259 26.0601 11.3756 26.0601 11.3254C26.0601 10.9319 26.3108 10.5844 26.6847 10.4593L27.3074 10.2515C27.6108 10.1523 27.9564 10.379 27.981 10.6996L28.44 16.6711C27.9528 16.8072 27.4802 16.9861 27.0279 17.2074L26.0724 11.4761ZM30.663 17.5806C32.5985 17.5806 34.3717 18.3627 35.6563 19.6504L35.0134 19.7577C33.7992 19.9599 32.6494 20.4729 31.6872 21.2427C30.6863 22.0432 29.4298 22.4839 28.1483 22.4839H28.0471C26.7361 22.4839 25.4883 22.0352 24.4813 21.217C24.6088 21.0037 24.743 20.7935 24.8864 20.5888C26.2048 18.7047 28.364 17.5806 30.663 17.5806ZM16.722 19.2747L14.1986 18.0134C13.9541 17.8908 13.8021 17.6444 13.8021 17.371C13.8021 17.2288 13.8438 17.0909 13.9228 16.9726L14.5063 16.098C14.7496 15.7321 15.2982 15.6396 15.65 15.9019L17.2478 17.1007C17.7296 17.4624 18.3621 17.5194 18.9002 17.2503C19.5664 16.9169 19.906 16.1795 19.7258 15.4563L18.728 11.4657C18.7127 11.4063 18.7053 11.3456 18.7053 11.2849C18.7053 10.9429 18.9364 10.6469 19.2679 10.5641L20.5544 10.243C20.8713 10.1608 21.2164 10.4066 21.2415 10.7394L21.7018 16.7244C21.7575 17.4532 22.0732 18.1396 22.5905 18.6563L23.858 19.9238C23.4639 20.4913 23.1292 21.0889 22.8442 21.7067L21.3126 21.4003C20.8431 21.3059 20.3614 21.2581 19.8815 21.2581H19.8012C19.3648 21.2581 18.94 21.304 18.5245 21.38C18.2315 20.4729 17.5923 19.7099 16.722 19.2747ZM19.8012 22.4839H19.8815C20.2805 22.4839 20.6813 22.5237 21.0723 22.6015L22.3827 22.8639C21.9819 24.0547 21.7698 25.3075 21.7698 26.5885V26.9207C21.7698 28.901 20.2455 30.4516 18.2989 30.4516C16.7489 30.4516 15.2908 29.8479 14.1943 28.752L13.8143 28.3708C13.94 25.104 16.5736 22.4839 19.8012 22.4839ZM32.0629 45.1975L31.7589 45.4457C31.309 45.8128 30.6612 45.8508 30.1273 45.6375L27.0573 44.4074C23.421 42.9487 20.0905 40.6601 17.4256 37.7905C15.4269 35.6386 14.2072 32.959 13.8922 30.1225C15.1376 31.1283 16.676 31.6774 18.2989 31.6774C20.8891 31.6774 22.9956 29.5439 22.9956 26.9207V26.5885C22.9956 25.1022 23.3131 23.6576 23.9107 22.3233C25.0991 23.2187 26.5388 23.7097 28.0478 23.7097H28.1489C29.7075 23.7097 31.2361 23.1734 32.4533 22.1995C33.2519 21.5608 34.2068 21.1343 35.215 20.9663L36.542 20.7451C37.0605 21.5308 37.4337 22.4275 37.606 23.4057L38.3028 27.3546L36.5371 33.5357L34.0107 22.7995L32.3105 30.4516H30.9014C30.6164 29.0548 29.379 28 27.8988 28C26.2091 28 24.8343 29.3747 24.8343 31.0645C24.8343 32.7543 26.2091 34.129 27.8988 34.129C29.3784 34.129 30.6164 33.0742 30.9014 31.6774H33.2936L34.045 28.2966L36.4218 38.3991L38.8256 29.9858L39.5274 33.4947C38.3568 38.0602 35.7109 42.212 32.0629 45.1975ZM29.7375 31.0645C29.7375 32.0783 28.9126 32.9032 27.8988 32.9032C26.8851 32.9032 26.0601 32.0783 26.0601 31.0645C26.0601 30.0508 26.8851 29.2258 27.8988 29.2258C28.9126 29.2258 29.7375 30.0508 29.7375 31.0645Z" fill="#DC2626"/>
</mask>
<g mask="url(#mask0_2060_365)">
<path d="M22.5762 34.5L24.5762 27.5L26.0762 26.5H30.0762C30.2428 26.1667 30.5762 25.4 30.5762 25C30.5762 24.6 31.9095 23.1667 32.5762 22.5L34.5762 22L35.5762 23L36.5762 26.5L38.0762 27L38.5762 26.5L40.0762 27.5L41.0762 31L41.5762 29.5H42.5762L47.0762 29H50.0762L51.5762 30V30.5L50.0762 33H46.5762L42.5762 32.5L42.0762 33L40.0762 35L39.0762 33.5L38.5762 34L36.5762 39C35.9095 39.3333 34.4762 39.9 34.0762 39.5C33.5762 39 30.0762 38.5 29.5762 38C29.0762 37.5 25.0762 36 24.0762 36C23.2762 36 22.7428 35 22.5762 34.5Z" fill="#DC2626"/>
</g>
</svg>
