<svg width="512" height="512" viewBox="0 0 512 512" fill="none" xmlns="http://www.w3.org/2000/svg">
<g clip-path="url(#clip0_217_290)">
<path d="M323.131 265.301C340.161 243.981 339.83 211.821 320.64 191.841C300.46 170.841 267.881 169.331 245.921 187.311C243.531 189.261 240.071 189.261 237.681 187.311C215.721 169.331 183.131 170.841 162.961 191.841C142.351 213.301 143.48 248.811 164.52 269.851L237.11 342.441C239.7 345.031 243.901 345.031 246.491 342.441L270.67 318.261" stroke="#DC2626" stroke-width="14.9999" stroke-miterlimit="10" stroke-linecap="round" stroke-linejoin="round"/>
<path d="M272.309 405.701L360.029 376.621C362.579 375.771 365.169 375.371 367.709 375.371C378.189 375.371 387.899 382.181 391.079 392.781C392.239 396.651 392.389 400.581 391.679 404.301" stroke="black" stroke-width="14.9999" stroke-miterlimit="10" stroke-linecap="round" stroke-linejoin="round"/>
<path d="M199.359 422.51L265.309 457.41C277.209 463.71 291.979 459.17 298.279 447.26L298.369 447.1C300.769 442.55 301.599 437.59 301.039 432.85C300.129 425.16 295.579 418.02 288.219 414.12L204.629 369.88C199.589 367.21 193.969 365.82 188.259 365.82H111.609" stroke="black" stroke-width="14.9999" stroke-miterlimit="10" stroke-linecap="round" stroke-linejoin="round"/>
<path d="M111.609 460.31H132.399C137.249 460.31 142.029 461.48 146.319 463.73L214.299 499.36C225.179 505.06 237.919 506.07 249.559 502.14L398.888 451.82C409.038 448.4 415.498 438.92 415.498 428.7C415.498 426.39 415.168 424.03 414.468 421.7C410.518 408.53 396.468 401.21 383.418 405.54L301.039 432.85" stroke="black" stroke-width="14.9999" stroke-miterlimit="10" stroke-linecap="round" stroke-linejoin="round"/>
<path d="M7.5 462.55V474.05C7.5 477.37 10.19 480.05 13.5 480.05H105.61C108.92 480.05 111.61 477.37 111.61 474.05V352.07C111.61 348.75 108.92 346.07 105.61 346.07H13.5C10.19 346.07 7.5 348.75 7.5 352.07V427.55" stroke="black" stroke-width="14.9999" stroke-miterlimit="10" stroke-linecap="round" stroke-linejoin="round"/>
<path d="M120.32 107.701C119.61 111.421 119.76 115.351 120.92 119.221C124.1 129.821 133.81 136.631 144.29 136.631C146.83 136.631 149.42 136.231 151.97 135.381L239.69 106.301" stroke="black" stroke-width="14.9999" stroke-miterlimit="10" stroke-linecap="round" stroke-linejoin="round"/>
<path d="M400.387 146.18H378.188" stroke="black" stroke-width="14.9999" stroke-miterlimit="10" stroke-linecap="round" stroke-linejoin="round"/>
<path d="M312.641 89.4917L246.691 54.5917C234.791 48.2917 220.021 52.8317 213.721 64.7417L213.631 64.9017C211.231 69.4517 210.401 74.4117 210.961 79.1517C211.871 86.8417 216.421 93.9817 223.781 97.8817L307.371 142.122C312.411 144.792 318.031 146.182 323.741 146.182H343.191" stroke="black" stroke-width="14.9999" stroke-miterlimit="10" stroke-linecap="round" stroke-linejoin="round"/>
<path d="M400.389 51.6907H379.599C374.749 51.6907 369.969 50.5207 365.679 48.2707L297.699 12.6408C286.819 6.94085 274.079 5.93086 262.439 9.86084L113.11 60.1806C102.96 63.6006 96.5 73.0806 96.5 83.3006C96.5 85.6105 96.83 87.9705 97.53 90.3005C101.48 103.47 115.53 110.79 128.58 106.46L210.96 79.1506" stroke="black" stroke-width="14.9999" stroke-miterlimit="10" stroke-linecap="round" stroke-linejoin="round"/>
<path d="M504.5 37.9453V159.932C504.5 163.246 501.814 165.932 498.5 165.932H406.391C403.077 165.932 400.391 163.246 400.391 159.932V37.9453C400.391 34.6313 403.077 31.9453 406.391 31.9453H498.5C501.814 31.9453 504.5 34.6323 504.5 37.9453Z" stroke="black" stroke-width="14.9999" stroke-miterlimit="10" stroke-linecap="round" stroke-linejoin="round"/>
<path d="M263.125 285.254H284.125C287.439 285.254 290.125 282.568 290.125 279.254V258.254C290.125 254.94 292.811 252.254 296.125 252.254H317.125C320.439 252.254 323.125 254.94 323.125 258.254V279.254C323.125 282.568 325.811 285.254 329.125 285.254H350.125C353.439 285.254 356.125 287.94 356.125 291.254V312.254C356.125 315.568 353.439 318.254 350.125 318.254H329.125C325.811 318.254 323.125 320.94 323.125 324.254V345.254C323.125 348.568 320.439 351.254 317.125 351.254H296.125C292.811 351.254 290.125 348.568 290.125 345.254V324.254C290.125 320.94 287.439 318.254 284.125 318.254H263.125C259.811 318.254 257.125 315.568 257.125 312.254V291.254C257.125 287.94 259.812 285.254 263.125 285.254Z" stroke="#DC2626" stroke-width="14.9999" stroke-miterlimit="10" stroke-linecap="round" stroke-linejoin="round"/>
</g>
<defs>
<clipPath id="clip0_217_290">
<rect width="512" height="512" fill="white"/>
</clipPath>
</defs>
</svg>
