<?xml version="1.0" encoding="UTF-8" standalone="no"?>
<!-- Created with Inkscape (http://www.inkscape.org/) -->

<svg
   version="1.1"
   id="svg5145"
   xml:space="preserve"
   width="682.66669"
   height="682.66669"
   viewBox="0 0 682.66669 682.66669"
   xmlns="http://www.w3.org/2000/svg"
   xmlns:svg="http://www.w3.org/2000/svg"><defs
     id="defs5149"><clipPath
       clipPathUnits="userSpaceOnUse"
       id="clipPath5163"><path
         d="M 0,512 H 512 V 0 H 0 Z"
         id="path5161" /></clipPath></defs><g
     id="g5151"
     transform="matrix(1.3333333,0,0,-1.3333333,0,682.66667)"><g
       id="g5153"
       transform="translate(445.1621,361.7158)"><path
         d="M 0,0 V -42.22 M 0,83.153 V 35.699 m -68.767,-9.151 v 56.605"
         style="fill:none;stroke:#000000;stroke-width:15;stroke-linecap:round;stroke-linejoin:round;stroke-miterlimit:10;stroke-dasharray:none;stroke-opacity:1"
         id="path5155" /></g><g
       id="g5157"><g
         id="g5159"
         clip-path="url(#clipPath5163)"><g
           id="g5165"
           transform="translate(443.2031,248.0664)"><path
             d="m 0,0 c 10.087,-10.087 26.606,-10.087 36.692,0 10.087,10.088 10.087,26.607 0,36.694 l -216.795,216.801 c -3.887,3.918 -10.291,3.918 -14.209,0 -55.112,-55.114 -161.653,-161.657 -216.765,-216.801 -10.116,-10.087 -10.116,-26.606 0,-36.694 10.087,-10.087 26.577,-10.087 36.692,0 l 183.874,183.908 c 1.813,1.813 4.795,1.813 6.637,0 z"
             style="fill:none;stroke:#000000;stroke-width:15;stroke-linecap:round;stroke-linejoin:round;stroke-miterlimit:10;stroke-dasharray:none;stroke-opacity:1"
             id="path5167" /></g><g
           id="g5169"
           transform="translate(239.0684,338.4707)"><path
             d="M 0,0 H 33.886"
             style="fill:none;stroke:#000000;stroke-width:15;stroke-linecap:round;stroke-linejoin:round;stroke-miterlimit:10;stroke-dasharray:none;stroke-opacity:1"
             id="path5171" /></g><g
           id="g5173"
           transform="translate(214.6543,308.21)"><path
             d="M 0,0 H 82.684"
             style="fill:none;stroke:#000000;stroke-width:15;stroke-linecap:round;stroke-linejoin:round;stroke-miterlimit:10;stroke-dasharray:none;stroke-opacity:1"
             id="path5175" /></g><g
           id="g5177"
           transform="translate(198.4863,238.4766)"><path
             d="m 0,0 c 59.819,31.753 134.054,9.006 165.834,-50.815 31.752,-59.792 9.006,-134.058 -50.814,-165.81 C 55.2,-248.378 -19.033,-225.66 -50.785,-165.839 -82.566,-106.018 -59.819,-31.781 0,0 Z"
             style="fill:none;stroke:#000000;stroke-width:15;stroke-linecap:round;stroke-linejoin:round;stroke-miterlimit:10;stroke-dasharray:none;stroke-opacity:1"
             id="path5179" /></g><g
           id="g5181"
           transform="translate(310.0273,153.1309)"><path
             d="m 0,0 h -31.051 v 31.051 c 0,7.309 -5.993,13.274 -13.303,13.274 h -19.355 c -7.309,0 -13.273,-5.965 -13.273,-13.274 V 0 h -31.05 c -7.31,0 -13.275,-5.994 -13.275,-13.304 v -19.355 c 0,-7.28 5.965,-13.275 13.275,-13.275 h 31.05 v -31.05 c 0,-7.31 5.964,-13.275 13.273,-13.275 h 19.355 c 7.31,0 13.303,5.965 13.303,13.275 v 31.05 H 0 c 7.309,0 13.273,5.995 13.273,13.275 v 19.355 C 13.273,-5.994 7.309,0 0,0 Z"
             style="fill:none;stroke:#000000;stroke-width:15;stroke-linecap:round;stroke-linejoin:round;stroke-miterlimit:10;stroke-dasharray:none;stroke-opacity:1"
             id="path5183" /></g><g
           id="g5185"
           transform="translate(365.958,75.8252)"><path
             d="m 0,0 h 91.659 c 11.725,0 21.343,-9.591 21.343,-21.314 0,-11.754 -9.618,-21.345 -21.343,-21.345 H -34.88 C -19.853,-31.051 -8.099,-16.374 0,0 Z m -311.582,0 h 91.687 c 0.527,-1.053 1.083,-2.135 1.638,-3.188 8.42,-15.875 19.853,-29.15 33.214,-39.471 h -126.539 c -11.725,0 -21.314,9.591 -21.314,21.345 0,11.723 9.589,21.314 21.314,21.314 z"
             style="fill:none;stroke:#000000;stroke-width:15;stroke-linecap:round;stroke-linejoin:round;stroke-miterlimit:10;stroke-dasharray:none;stroke-opacity:1"
             id="path5187" /></g><g
           id="g5189"
           transform="translate(73.1748,169.2988)"><path
             d="M 0,0 V 83.153 M 0,-93.474 v 57.745 M 365.672,83.153 V -93.474"
             style="fill:none;stroke:#000000;stroke-width:15;stroke-linecap:round;stroke-linejoin:round;stroke-miterlimit:10;stroke-dasharray:none;stroke-opacity:1"
             id="path5191" /></g><g
           id="g5193"
           transform="translate(368.1797,444.8691)"><path
             d="m 0,0 h 85.198 c 3.099,0 5.614,2.543 5.614,5.613 v 36.372 c 0,3.071 -2.515,5.615 -5.614,5.615 H 0 c -3.099,0 -5.613,-2.544 -5.613,-5.615 V 5.613 C -5.613,2.543 -3.099,0 0,0 Z"
             style="fill:none;stroke:#000000;stroke-width:15;stroke-linecap:round;stroke-linejoin:round;stroke-miterlimit:10;stroke-dasharray:none;stroke-opacity:1"
             id="path5195" /></g></g></g></g></svg>
