<svg width="512" height="512" viewBox="0 0 512 512" fill="none" xmlns="http://www.w3.org/2000/svg">
<path d="M82.15 125.518H251.808C256.075 125.518 259.488 122.105 259.488 117.838V60.1995C259.488 55.9329 256.075 52.5195 251.808 52.5195H82.15C77.8834 52.5195 74.47 55.9329 74.47 60.1995V117.761C74.3924 122.027 77.8834 125.518 82.15 125.518ZM89.83 67.9571H244.128V110.158H89.83V67.9571Z" fill="black"/>
<path d="M142.817 162.52H66.7152C62.4485 162.52 59.0352 165.933 59.0352 170.2V235.984C59.0352 240.25 62.4485 243.664 66.7152 243.664H142.817C147.084 243.664 150.497 240.25 150.497 235.984V170.2C150.497 166.01 147.084 162.52 142.817 162.52ZM135.059 228.381H74.3952V177.957H135.059V228.381Z" fill="black"/>
<path d="M168.34 185.095C168.34 189.362 171.753 192.775 176.02 192.775H353.901C358.168 192.775 361.581 189.362 361.581 185.095C361.581 180.829 358.168 177.415 353.901 177.415H176.02C171.753 177.338 168.34 180.829 168.34 185.095Z" fill="black"/>
<path d="M176.02 228.926H306.27C310.536 228.926 313.95 225.513 313.95 221.246C313.95 216.98 310.536 213.566 306.27 213.566H176.02C171.753 213.566 168.34 216.98 168.34 221.246C168.34 225.513 171.753 228.926 176.02 228.926Z" fill="black"/>
<path d="M317.518 281.211H176.02C171.753 281.211 168.34 284.624 168.34 288.891C168.34 293.158 171.753 296.571 176.02 296.571H317.518C321.785 296.571 325.198 293.158 325.198 288.891C325.198 284.624 321.785 281.211 317.518 281.211Z" fill="black"/>
<path d="M176.02 317.441C171.753 317.441 168.34 320.855 168.34 325.121C168.34 329.388 171.753 332.801 176.02 332.801H263.913C268.18 332.801 271.593 329.388 271.593 325.121C271.593 320.855 268.18 317.441 263.913 317.441H176.02Z" fill="black"/>
<path d="M279.118 385.086H176.02C171.753 385.086 168.34 388.499 168.34 392.766C168.34 397.033 171.753 400.446 176.02 400.446H279.118C283.385 400.446 286.798 397.033 286.798 392.766C286.798 388.499 283.385 385.086 279.118 385.086Z" fill="black"/>
<path d="M237.382 421.312H176.02C171.753 421.312 168.34 424.726 168.34 428.992C168.34 433.259 171.753 436.672 176.02 436.672H237.382C241.649 436.672 245.062 433.259 245.062 428.992C245.062 424.726 241.649 421.312 237.382 421.312Z" fill="black"/>
<path d="M142.817 266.395H66.7152C62.4485 266.395 59.0352 269.808 59.0352 274.075V339.859C59.0352 344.125 62.4485 347.539 66.7152 347.539H142.817C147.084 347.539 150.497 344.125 150.497 339.859V274.075C150.497 269.885 147.084 266.395 142.817 266.395ZM135.059 332.256H74.3952V281.832H135.059V332.256Z" fill="black"/>
<path d="M142.817 370.27H66.7152C62.4485 370.27 59.0352 373.683 59.0352 377.95V443.734C59.0352 448 62.4485 451.414 66.7152 451.414H142.817C147.084 451.414 150.497 448 150.497 443.734V377.95C150.497 373.76 147.084 370.27 142.817 370.27ZM135.059 436.131H74.3952V385.707H135.059V436.131Z" fill="black"/>
<path d="M94.0204 213.878C95.4943 215.352 97.4337 216.128 99.4507 216.128C101.468 216.128 103.485 215.352 104.881 213.878L120.551 198.208C123.577 195.182 123.577 190.295 120.551 187.347C117.526 184.322 112.639 184.322 109.691 187.347L99.4507 197.587L98.4422 196.579C95.4167 193.553 90.5295 193.553 87.5816 196.579C84.5561 199.604 84.5561 204.491 87.5816 207.439L94.0204 213.878Z" fill="black"/>
<path d="M94.0204 320.312C95.4943 321.786 97.4337 322.561 99.4507 322.561C101.468 322.561 103.485 321.786 104.881 320.312L120.551 304.641C123.577 301.616 123.577 296.729 120.551 293.781C117.526 290.755 112.639 290.755 109.691 293.781L99.4507 304.021L98.4422 303.012C95.4167 299.987 90.5295 299.987 87.5816 303.012C84.5561 306.038 84.5561 310.925 87.5816 313.873L94.0204 320.312Z" fill="black"/>
<path d="M482.52 139.016L441.793 122.027C436.75 119.932 431.165 119.932 426.122 121.949C421.08 124.044 417.123 127.923 415.029 132.965L403.005 161.668L398.117 173.382V113.261C398.117 113.106 398.04 113.028 398.04 112.951C398.04 112.175 397.885 111.477 397.574 110.778C397.497 110.546 397.419 110.313 397.342 110.08C396.954 109.304 396.566 108.606 395.945 107.986C395.868 107.908 395.868 107.831 395.79 107.831L298.045 10.0075C297.967 9.92993 297.734 9.85236 297.657 9.77478C297.114 9.30933 296.493 8.84387 295.873 8.53357C295.562 8.37842 295.33 8.30084 295.019 8.22327C294.399 7.99054 293.778 7.91296 293.157 7.83539C293.002 7.83539 292.77 7.75781 292.614 7.75781H54.2241C33.6665 7.75781 16.9102 24.5142 16.9102 45.0718V466.929C16.9102 487.564 33.6665 504.32 54.3017 504.32H360.726C381.361 504.32 398.117 487.564 398.117 466.929V394.318L481.589 194.56L493.613 165.857C497.88 155.384 492.915 143.36 482.52 139.016ZM429.225 138.938C429.768 137.697 430.699 136.689 431.94 136.223C433.182 135.758 434.578 135.68 435.819 136.223L476.547 153.212C479.107 154.298 480.348 157.246 479.262 159.884L470.263 181.528L420.149 160.582L429.225 138.938ZM414.253 174.778L432.173 182.303L345.599 389.508L327.679 381.983L414.253 174.778ZM346.762 406.73L367.63 415.418L328.687 449.94L325.894 398.041L346.762 406.73ZM377.715 402.929L359.795 395.404L446.37 188.121L464.29 195.646L377.715 402.929ZM371.819 105.658H311.776C305.492 105.658 300.372 100.538 300.372 94.2548V34.056L371.819 105.658ZM360.726 488.805H54.2241C42.1223 488.805 32.2702 478.953 32.2702 466.851V45.0718C32.2702 33.0475 42.1223 23.1954 54.2241 23.1954H284.857V94.2548C284.857 109.072 296.881 121.096 311.698 121.096H382.602V210.386L310.457 383.225C310.379 383.302 310.457 383.457 310.379 383.535C310.069 384.311 309.914 385.086 309.914 385.94V386.328V386.638L314.258 466.774C314.413 469.721 316.275 472.359 318.99 473.445C319.921 473.833 320.93 474.066 321.938 474.066C323.8 474.066 325.584 473.368 327.058 472.126L382.757 422.711V466.929C382.68 479.031 372.828 488.805 360.726 488.805Z" fill="#DC2626"/>
</svg>
