<svg xmlns="http://www.w3.org/2000/svg" enable-background="new 0 0 100 100" viewBox="0 0 100 100" id="children-care">
  <path d="M78.14,22.985h-1.458c-0.728-1.592-1.728-3.084-3.005-4.398c-2.886-2.971-6.727-4.607-10.814-4.607
		c-0.001,0-0.002,0-0.003,0c-4.086,0.001-7.923,1.637-10.807,4.607l-1.104,1.137c-0.306-0.074-0.624-0.115-0.949-0.115
		s-0.643,0.041-0.949,0.115l-1.104-1.137c-2.886-2.97-6.725-4.606-10.812-4.606c-4.087,0-7.927,1.636-10.813,4.607
		c-1.276,1.314-2.276,2.806-3.004,4.397h-1.459c-4.344,0-7.879,3.535-7.879,7.879v29.267c0,4.344,3.535,7.879,7.879,7.879h23.172
		L50,72.979l4.969-4.969H78.14c4.345,0,7.88-3.535,7.88-7.879V30.864C86.02,26.52,82.485,22.985,78.14,22.985z M83.768,60.131
		c0,3.103-2.524,5.628-5.628,5.628H54.036L50,69.795l-4.036-4.036H21.859c-3.103,0-5.628-2.525-5.628-5.628V30.864
		c0-3.102,2.525-5.628,5.628-5.628h0.628c-1.247,4.376-0.605,9.205,1.923,13.115c-0.381,0.479-0.669,0.882-0.812,1.159
		c-3.789,7.355-3.53,15.039,0.66,19.575c1.904,2.061,4.374,3.131,7.024,3.131c1.392,0,2.832-0.294,4.266-0.895l7.647-3.201
		L50,65.122l6.557-6.747l7.038,2.946c1.433,0.601,2.874,0.895,4.265,0.895c2.65,0,5.12-1.07,7.024-3.131
		c4.191-4.538,4.45-12.222,0.66-19.575c-0.077-0.15-0.206-0.344-0.36-0.56c2.864-4.008,3.64-9.111,2.33-13.714h0.627
		c3.104,0,5.628,2.525,5.628,5.628V60.131z M25.851,22.985c0.562-1.01,1.248-1.967,2.085-2.829c2.458-2.531,5.726-3.924,9.199-3.924
		c3.473,0,6.739,1.394,9.197,3.924l0.699,0.719c-0.57,0.565-1.011,1.288-1.271,2.11c-0.113,0.359-0.195,0.734-0.233,1.125
		c-0.018,0.185-0.029,0.372-0.029,0.563c0,0.191,0.011,0.378,0.029,0.563c0.057,0.578,0.204,1.125,0.42,1.628l-0.074,0.03
		c-2.398,0.93-4.877,1.892-4.877,5.036v4.049v0.705l-1.484,0.538l-1.331,0.483l-5.35,2.249l2.905-3.529
		c0.81-1.061,2.706-3.671,2.825-4.971c0.107-1.166-0.263-2.142-1.043-2.747c-0.469-0.364-1.715-1.333-7.153,3.139l-0.091,0.084
		c-0.594,0.609-2.629,2.713-4.315,4.608c-1.986-3.441-2.353-7.593-1.101-11.301c0.129-0.381,0.274-0.756,0.437-1.126
		C25.461,23.728,25.647,23.353,25.851,22.985z M53.668,20.156c2.456-2.529,5.721-3.923,9.192-3.924c0.001,0,0.002,0,0.003,0
		c3.472,0,6.74,1.394,9.199,3.925c0.837,0.862,1.523,1.818,2.085,2.829c0.205,0.368,0.391,0.743,0.559,1.125
		c0.163,0.37,0.308,0.745,0.437,1.126c1.324,3.919,0.852,8.341-1.442,11.887c-0.208,0.322-0.433,0.635-0.672,0.941
		c-0.231,0.297-0.482,0.583-0.742,0.863c-0.077,0.084-0.145,0.174-0.226,0.257l-16.051,16.52l-0.843,0.867l-0.843,0.868L50,61.893
		l-4.574-4.707l4.145-1.736l1.459-0.611l1.457-0.61l1.76-0.737c0.328-0.138,0.62-0.327,0.875-0.552
		c0.58-0.514,0.954-1.224,1.07-1.993c0.09-0.591,0.03-1.215-0.213-1.81c-0.135-0.332-0.319-0.631-0.54-0.897
		c-0.017-0.02-0.029-0.043-0.045-0.062l0.603-0.253l0.736-0.308l0.043-0.018l-0.001-0.003c1.609-0.711,2.362-2.636,1.676-4.327
		c-0.099-0.243-0.23-0.464-0.376-0.673c-0.068-0.097-0.132-0.197-0.208-0.286l0.232-0.097l0.121-0.051c0,0,0.001,0,0.002-0.001
		l0.035-0.014l0.39-0.163l-0.015-0.035c0.787-0.476,1.317-1.266,1.497-2.151c0.079-0.385,0.089-0.787,0.029-1.188
		c-0.04-0.264-0.107-0.528-0.212-0.786c-0.086-0.213-0.192-0.415-0.315-0.602c-0.173-0.265-0.391-0.489-0.627-0.693v-4.597
		c0-3.117-2.544-4.134-4.788-5.032l-0.152-0.061c0.21-0.496,0.352-1.034,0.409-1.601c0.018-0.185,0.029-0.372,0.029-0.563
		c0-0.19-0.011-0.378-0.029-0.563c-0.039-0.391-0.12-0.767-0.233-1.125c-0.26-0.822-0.701-1.545-1.271-2.11L53.668,20.156z
		 M48.599,22.489c0.288-0.289,0.629-0.495,1.007-0.579c0.129-0.029,0.259-0.05,0.394-0.05c0.135,0,0.266,0.021,0.394,0.05
		c0.378,0.084,0.719,0.29,1.007,0.579c0.146,0.146,0.276,0.311,0.389,0.497c0.199,0.328,0.348,0.707,0.416,1.125
		c0.03,0.182,0.046,0.37,0.046,0.563c0,0.193-0.016,0.381-0.046,0.563c-0.045,0.273-0.13,0.526-0.233,0.764
		c-0.162,0.375-0.386,0.7-0.66,0.949c-0.371,0.335-0.822,0.538-1.313,0.538c-0.477,0-0.917-0.189-1.282-0.506
		c-0.28-0.244-0.507-0.569-0.675-0.944c-0.111-0.249-0.202-0.514-0.249-0.801c-0.029-0.182-0.045-0.37-0.045-0.563
		c0-0.192,0.016-0.381,0.045-0.563c0.068-0.419,0.217-0.797,0.416-1.125C48.322,22.799,48.453,22.635,48.599,22.489z M25.818,40.207
		c0.169-0.235,0.412-0.54,0.713-0.899c0.223-0.265,0.475-0.558,0.751-0.871c1.318-1.496,3.141-3.436,4.558-4.892
		c1.706-1.396,3.633-2.647,4.421-2.886c0.077,0.184,0.071,0.428,0.058,0.579c-0.075,0.475-1.184,2.26-2.348,3.788l-2.973,3.613
		l-0.08,0.109c-0.535,0.838-0.46,1.916,0.187,2.685c0.632,0.752,1.618,0.997,2.507,0.626l5.387-2.257l0.015-0.006l1.081-0.392
		l1.11-0.403l0.711-0.258l1.277-0.464l0.053-0.019l1.035-0.375l0.474-0.172l0.211-0.076l0.053-0.019l1.298-0.471l0.001,0l3.253-1.18
		l1.651-0.599l1.075-0.39c0.227-0.096,0.481-0.092,0.717,0.004c0.272,0.113,0.486,0.336,0.603,0.625
		c0.089,0.218,0.108,0.445,0.072,0.656c-0.057,0.33-0.254,0.619-0.556,0.757l-0.188,0.078l-0.118,0.049l-0.169,0.071l0,0l-0.955,0.4
		l-2.13,0.892l-1.457,0.61l-1.457,0.611l-2.856,1.196H43.8l-1.458,0.611l0,0l-1.455,0.609l-0.002,0.001l-0.006,0.002l0.188,0.448
		l0.58,1.386l0.102,0.243l1.378-0.577l0.523-0.219l0.15-0.063l1.457-0.61l0,0l1.457-0.61l0.001,0l2.856-1.196l1.457-0.61
		l1.458-0.611l1.039-0.435v0l0.448-0.187c0.017-0.007,0.032-0.014,0.048-0.021l1.93-0.808l0.583-0.244
		c0.071-0.03,0.145-0.047,0.22-0.058c0.165-0.024,0.336-0.005,0.5,0.062c0.272,0.114,0.489,0.337,0.607,0.629
		c0.01,0.025,0.014,0.049,0.023,0.075c0.029,0.085,0.047,0.171,0.056,0.257c0.048,0.464-0.174,0.912-0.587,1.084l-2.01,0.841
		l-1.458,0.61l-1.457,0.611l-1.075,0.45l-0.03,0.012l0.001,0.001l-1.752,0.734l-1.457,0.61l-1.04,0.435l-0.417,0.175h-0.001
		l-2.856,1.196l0,0l-0.805,0.337l-0.568,0.238l-0.474,0.198l0.43,1.025l0.025,0.059v0l0.415,0.991l0.878-0.367l0.098-0.041
		l1.456-0.61l1.458-0.61v-0.001l2.856-1.196l1.457-0.61l1.368-0.573l0.089-0.037l2.566-1.074c0.139-0.058,0.288-0.076,0.436-0.062
		c0.093,0.009,0.186,0.028,0.276,0.066c0.092,0.038,0.174,0.093,0.252,0.155c0.15,0.12,0.272,0.277,0.349,0.467
		c0.232,0.573,0.001,1.214-0.515,1.43l-0.509,0.213l-1.457,0.611l-1.457,0.61l-2.373,0.994v0l-0.483,0.202l-0.688,0.288
		l-0.769,0.322l-1.456,0.61l-0.001,0.001l-1.407,0.589l-1.209,0.507l-1.088,0.455l-0.904,0.378l0.87,2.076l1.103-0.462l1.246-0.521
		l1.448-0.606l2.857-1.197l1.352-0.566l0,0l0.106-0.044l1.457-0.611l0.094-0.039c0.225-0.092,0.478-0.092,0.711,0.004
		c0.27,0.113,0.485,0.334,0.601,0.623v0.001c0.168,0.411,0.092,0.857-0.153,1.156c-0.096,0.117-0.216,0.213-0.361,0.274
		l-0.949,0.397l-2.857,1.196l-1.457,0.61l-1.459,0.611L43.74,55.45l-1.115,0.467l-1.115,0.468l-6.83,2.859
		c-3.304,1.384-6.499,0.769-8.766-1.686c-2.689-2.911-4.384-9.113-0.312-17.017C25.644,40.458,25.722,40.341,25.818,40.207z
		 M43.246,35.476v-3.545c0-1.393,0.775-1.904,3.446-2.939l0.636-0.251c0.749,0.624,1.671,0.998,2.672,0.998
		c1.014,0,1.947-0.383,2.701-1.022l0.681,0.272c2.741,1.096,3.372,1.647,3.372,2.941v3.797c-0.271,0.011-0.541,0.046-0.804,0.128
		c-0.021-0.366-0.102-0.736-0.247-1.095c-0.345-0.851-0.994-1.51-1.826-1.857c-0.794-0.329-1.665-0.33-2.398-0.023l-1.908,0.692
		l-1.649,0.598l-3.516,1.276l-1.159,0.421V35.476z M73.658,40.773c3.919,7.791,2.235,13.902-0.427,16.784
		c-2.268,2.456-5.462,3.07-8.768,1.686l-6.221-2.604L73.658,40.773z"></path>
  <path d="M77.855,78.677l-0.152-0.06c0.278-0.657,0.437-1.389,0.437-2.164c0-2.793-2.019-5.065-4.502-5.065
		c-2.483,0-4.502,2.272-4.502,5.065c0,0.786,0.164,1.527,0.449,2.191l-0.075,0.029c-1.395,0.541-2.814,1.096-3.76,2.082
		c-0.948-0.991-2.35-1.556-3.654-2.078l-0.152-0.06c0.277-0.657,0.437-1.389,0.437-2.164c0-2.793-2.019-5.065-4.502-5.065
		c-2.483,0-4.502,2.272-4.502,5.065c0,0.786,0.164,1.527,0.449,2.191l-0.074,0.029c-1.395,0.541-2.814,1.096-3.76,2.082
		c-0.948-0.991-2.35-1.556-3.655-2.078l-0.152-0.06c0.278-0.657,0.438-1.389,0.438-2.164c0-2.793-2.02-5.065-4.502-5.065
		s-4.503,2.272-4.503,5.065c0,0.786,0.164,1.527,0.449,2.191l-0.074,0.029c-1.395,0.541-2.814,1.096-3.76,2.082
		c-0.949-0.991-2.35-1.556-3.655-2.078l-0.152-0.06c0.278-0.657,0.438-1.389,0.438-2.164c0-2.793-2.02-5.065-4.502-5.065
		s-4.503,2.272-4.503,5.065c0,0.786,0.165,1.527,0.449,2.191l-0.074,0.029c-2.398,0.93-4.877,1.892-4.877,5.037v2.311h2.251v-1.125
		v-1.185c0-1.393,0.775-1.904,3.446-2.939l0.636-0.251c0.749,0.624,1.671,0.998,2.672,0.998c1.014,0,1.947-0.383,2.7-1.022
		l0.68,0.272c2.742,1.096,3.373,1.646,3.373,2.941v1.185v1.125h2.251v-1.125v-1.185c0-1.393,0.775-1.904,3.446-2.939l0.636-0.251
		c0.749,0.624,1.671,0.998,2.672,0.998c1.014,0,1.947-0.383,2.701-1.022l0.681,0.272c2.742,1.096,3.372,1.646,3.372,2.941v1.185
		v1.125h2.251v-1.125v-1.185c0-1.393,0.775-1.904,3.446-2.939l0.635-0.251c0.748,0.624,1.671,0.998,2.672,0.998
		c1.014,0,1.947-0.383,2.701-1.022l0.681,0.272c2.741,1.096,3.372,1.647,3.372,2.941v1.185v1.125h2.252v-1.125v-1.185
		c0-1.393,0.775-1.904,3.446-2.939l0.635-0.251c0.748,0.624,1.671,0.998,2.672,0.998c1.014,0,1.948-0.383,2.701-1.022l0.681,0.272
		c2.741,1.096,3.373,1.647,3.373,2.941v1.185v1.125h2.251v-2.311C82.643,80.592,80.099,79.575,77.855,78.677z M73.638,79.266
		c-0.476,0-0.917-0.189-1.282-0.506c-0.281-0.244-0.507-0.57-0.675-0.944c-0.182-0.406-0.295-0.867-0.295-1.364
		c0-1.552,1.01-2.814,2.251-2.814c1.241,0,2.251,1.262,2.251,2.814c0,0.483-0.107,0.931-0.278,1.328
		c-0.162,0.375-0.386,0.7-0.66,0.949C74.58,79.063,74.129,79.266,73.638,79.266z M57.879,79.266c-0.476,0-0.917-0.189-1.281-0.506
		c-0.281-0.244-0.508-0.57-0.675-0.944c-0.182-0.406-0.294-0.867-0.294-1.364c0-1.552,1.01-2.814,2.251-2.814
		s2.251,1.262,2.251,2.814c0,0.483-0.107,0.931-0.278,1.328c-0.162,0.375-0.386,0.7-0.66,0.949
		C58.821,79.063,58.37,79.266,57.879,79.266z M42.121,79.266c-0.477,0-0.917-0.189-1.282-0.506c-0.28-0.244-0.507-0.57-0.675-0.944
		c-0.182-0.406-0.294-0.867-0.294-1.364c0-1.552,1.009-2.814,2.251-2.814c1.241,0,2.251,1.262,2.251,2.814
		c0,0.483-0.107,0.931-0.278,1.328c-0.162,0.375-0.385,0.7-0.66,0.949C43.063,79.063,42.612,79.266,42.121,79.266z M26.362,79.266
		c-0.477,0-0.917-0.189-1.282-0.506c-0.28-0.244-0.507-0.57-0.675-0.944c-0.182-0.406-0.294-0.867-0.294-1.364
		c0-1.552,1.009-2.814,2.251-2.814c1.241,0,2.251,1.262,2.251,2.814c0,0.483-0.107,0.931-0.279,1.328
		c-0.162,0.375-0.385,0.7-0.66,0.949C27.304,79.063,26.853,79.266,26.362,79.266z"></path>
</svg>
