<svg xmlns="http://www.w3.org/2000/svg" enable-background="new 0 0 64 64" viewBox="0 0 64 64" id="chronic">
  <path d="M21,36c0,4.202,1.994,7.9,5,10.045v3.136l-9.373,1.875C13.367,51.707,11,54.594,11,57.919V63h2v-5.081
	c0-2.375,1.69-4.438,4.02-4.903l10.177-2.035C27.664,50.887,28,50.477,28,50v-2.833C29.242,47.698,30.588,48,32,48
	s2.758-0.302,4-0.833V50c0,0.477,0.336,0.887,0.804,0.98l10.177,2.035C49.31,53.481,51,55.544,51,57.919V63h2v-5.081
	c0-3.325-2.367-6.212-5.627-6.864L38,49.18v-3.136C41.006,43.9,43,40.202,43,36c0-6.617-4.935-12-11-12S21,29.383,21,36z M32,26
	c4.962,0,9,4.486,9,10s-4.038,10-9,10s-9-4.486-9-10S27.038,26,32,26z"></path>
  <path d="M36 36c1.654 0 3-1.346 3-3h-2c0 .551-.449 1-1 1s-1-.449-1-1h-2C33 34.654 34.346 36 36 36zM28 36c1.654 0 3-1.346 3-3h-2c0 .551-.449 1-1 1s-1-.449-1-1h-2C25 34.654 26.346 36 28 36zM29.147 43h.002c.416 0 .822-.237.953-.632C30.367 41.574 31.118 41 32 41c.882 0 1.633.574 1.898 1.368C34.029 42.763 34.435 43 34.851 43h.002c.655 0 1.15-.638.944-1.26C35.268 40.15 33.766 39 32 39c-1.766 0-3.268 1.15-3.797 2.74C27.996 42.362 28.492 43 29.147 43zM54.293 38.293l-4 4c-.212.212-.317.507-.288.806.029.298.191.567.44.733l1.985 1.323-3.137 3.138 1.414 1.414 4-4c.212-.212.317-.507.288-.806-.029-.298-.191-.567-.44-.733l-1.985-1.323 3.137-3.138L54.293 38.293zM60.293 44.293l-4 4c-.212.212-.317.507-.288.806.029.298.191.567.44.733l1.985 1.323-3.137 3.138 1.414 1.414 4-4c.212-.212.317-.507.288-.806-.029-.298-.191-.567-.44-.733l-1.985-1.323 3.137-3.138L60.293 44.293zM8.005 43.901c-.029.298.076.594.288.806l4 4 1.414-1.414-3.137-3.138 1.985-1.323c.25-.166.411-.436.44-.733.029-.298-.076-.594-.288-.806l-4-4-1.414 1.414 3.137 3.138-1.985 1.323C8.196 43.334 8.034 43.604 8.005 43.901zM2.005 49.901c-.029.298.076.594.288.806l4 4 1.414-1.414L4.57 50.155l1.985-1.323c.25-.166.411-.436.44-.733.029-.298-.076-.594-.288-.806l-4-4-1.414 1.414 3.137 3.138-1.985 1.323C2.196 49.334 2.034 49.604 2.005 49.901zM32 2c-7.168 0-13 5.832-13 13 0 3.693 1.58 7.225 4.333 9.689l1.334-1.49c-2.08-1.862-3.361-4.444-3.614-7.199H24v-2h-2.949C21.528 8.732 25.732 4.528 31 4.051V7h2V4.051c5.268.478 9.472 4.681 9.949 9.949H40v2h2.946c-.255 2.783-1.556 5.383-3.671 7.25l1.323 1.499C43.396 22.281 45 18.728 45 15 45 7.832 39.168 2 32 2z"></path>
  <rect width="15" height="2" x="6" y="25"></rect>
  <path d="M42 27h16.149l-2.774 2.219 1.249 1.562 5-4C61.862 26.591 62 26.304 62 26s-.138-.591-.375-.781l-5-4-1.249 1.562L58.149 25H42V27zM32.707 15.707l6-6-1.414-1.414L32 13.586l-3.293-3.293-1.414 1.414 4 4C31.488 15.902 31.744 16 32 16S32.512 15.902 32.707 15.707z"></path>
  <rect width="2" height="2" x="2" y="25"></rect>
</svg>
