<svg id="Capa_1" enable-background="new 0 0 512 512" height="512" viewBox="0 0 512 512" width="512" xmlns="http://www.w3.org/2000/svg"><g><g><path d="m72.124 212.62c0 4.143 3.357 7.5 7.5 7.5s7.5-3.357 7.5-7.5c0-85.983 69.952-155.936 155.936-155.936 36.553 0 72.094 12.913 100.078 36.359 3.176 2.661 7.906 2.243 10.565-.933 2.66-3.175 2.243-7.905-.933-10.565-30.679-25.705-69.642-39.861-109.711-39.861-94.254.001-170.935 76.682-170.935 170.936z"/><path d="m51.968 137.535c.977.426 1.994.628 2.996.628 2.892 0 5.647-1.683 6.878-4.502 1.966-4.505 4.126-8.988 6.422-13.326 1.938-3.661.54-8.199-3.121-10.137-3.662-1.938-8.2-.54-10.137 3.121-2.471 4.669-4.797 9.494-6.912 14.342-1.656 3.797.079 8.217 3.874 9.874z"/><path d="m73.522 96.881c1.341.99 2.902 1.468 4.451 1.468 2.298 0 4.567-1.053 6.038-3.043 2.914-3.945 6.021-7.836 9.231-11.565 2.702-3.139 2.349-7.875-.79-10.577-3.138-2.702-7.873-2.35-10.577.79-3.453 4.011-6.794 8.195-9.929 12.438-2.46 3.332-1.755 8.027 1.576 10.489z"/><path d="m40.072 181.983c.467.087.932.129 1.391.129 3.538 0 6.688-2.515 7.363-6.119.904-4.829 2.004-9.682 3.269-14.424 1.066-4.002-1.312-8.111-5.315-9.179-4.004-1.071-8.111 1.312-9.179 5.315-1.36 5.104-2.544 10.326-3.519 15.523-.763 4.073 1.919 7.992 5.99 8.755z"/><path d="m190.008 21.927c.641 0 1.291-.083 1.939-.256 4.739-1.265 9.592-2.366 14.421-3.272 4.071-.764 6.753-4.684 5.988-8.754-.764-4.072-4.691-6.755-8.754-5.988-5.199.976-10.422 2.16-15.524 3.522-4.002 1.068-6.38 5.179-5.312 9.181.897 3.353 3.928 5.567 7.242 5.567z"/><path d="m147.233 38.72c1.183 0 2.384-.281 3.502-.873 4.346-2.301 8.827-4.462 13.321-6.424 3.796-1.657 5.53-6.078 3.872-9.874-1.657-3.796-6.078-5.528-9.874-3.872-4.837 2.111-9.66 4.438-14.337 6.912-3.661 1.938-5.058 6.477-3.12 10.138 1.346 2.542 3.946 3.993 6.636 3.993z"/><path d="m109.26 64.645c1.733 0 3.476-.598 4.892-1.817 3.727-3.21 7.617-6.316 11.562-9.231 3.331-2.462 4.036-7.158 1.575-10.489-2.464-3.331-7.158-4.034-10.489-1.575-4.245 3.137-8.43 6.479-12.438 9.931-3.139 2.704-3.491 7.439-.788 10.577 1.484 1.721 3.579 2.604 5.686 2.604z"/><path d="m398.556 353.893c2.107 0 4.203-.884 5.687-2.606 3.453-4.011 6.794-8.195 9.929-12.438 2.461-3.332 1.756-8.027-1.575-10.489-3.33-2.46-8.027-1.757-10.489 1.575-2.914 3.945-6.021 7.836-9.231 11.565-2.702 3.139-2.349 7.875.79 10.577 1.415 1.219 3.156 1.816 4.889 1.816z"/><path d="m434.15 287.705c-3.797-1.656-8.218.077-9.874 3.874-1.966 4.505-4.126 8.988-6.422 13.326-1.938 3.661-.54 8.199 3.121 10.137 1.118.592 2.318.873 3.501.873 2.689 0 5.29-1.451 6.636-3.994 2.471-4.669 4.797-9.494 6.912-14.342 1.656-3.797-.078-8.217-3.874-9.874z"/><path d="m231.079 273.355c1.478 1.583 3.479 2.383 5.485 2.383 1.832 0 3.67-.668 5.115-2.017 3.028-2.826 3.192-7.572.366-10.601l-9.169-9.824 9.476-11.507c2.633-3.197 2.175-7.924-1.022-10.558-3.195-2.63-7.922-2.175-10.558 1.022l-11.957 14.521c-3.352 4.069-3.167 10.044.43 13.9z"/><path d="m236.562 281.749c-11.66 0-21.928 8.265-24.414 19.651-.884 4.047 1.681 8.043 5.728 8.927 4.05.887 8.043-1.682 8.927-5.728.993-4.549 5.098-7.851 9.76-7.851s8.767 3.302 9.761 7.852c.767 3.508 3.871 5.901 7.32 5.901.53 0 1.068-.057 1.607-.175 4.047-.884 6.61-4.881 5.727-8.928-2.488-11.385-12.757-19.649-24.416-19.649z"/><path d="m200.836 223.5c-4.143 0-7.5 3.357-7.5 7.5v17.296c0 4.143 3.357 7.5 7.5 7.5s7.5-3.357 7.5-7.5v-17.296c0-4.143-3.358-7.5-7.5-7.5z"/><path d="m272.289 223.5c-4.143 0-7.5 3.357-7.5 7.5v17.296c0 4.143 3.357 7.5 7.5 7.5s7.5-3.357 7.5-7.5v-17.296c0-4.143-3.358-7.5-7.5-7.5z"/><path d="m480.77 177.168c-1.232-2.979-3.725-5.166-6.841-6.002l-23.693-6.348c-21.748-94.295-106.371-164.818-207.177-164.818-2.589 0-5.203.047-7.771.14-4.14.149-7.374 3.626-7.225 7.766.146 4.048 3.473 7.229 7.49 7.229.091 0 .184-.002.275-.005 2.388-.086 4.82-.13 7.229-.13 90.889 0 167.636 61.679 190.603 145.377l-5.696-1.526c-4.488-1.205-9.244.768-11.569 4.792l-6.543 11.332c-5.419-24.245-16.103-46.987-31.689-67.069-2.541-3.272-7.251-3.864-10.523-1.326-3.272 2.539-3.866 7.251-1.326 10.523 17.833 22.977 28.643 49.77 31.741 78.305l-18.934 32.796v.001c-1.611 2.791-1.828 6.099-.596 9.076 1.233 2.979 3.726 5.165 6.841 6.001l13.423 3.597-29.037 55.393c-2.226 4.245-1.252 9.403 2.368 12.545 1.934 1.679 4.331 2.528 6.738 2.528 2.098 0 4.203-.646 6.014-1.95l80.771-58.164c3.255-2.346 4.827-6.255 4.104-10.201s-3.581-7.042-7.454-8.079l-10.868-2.913 28.747-49.792c1.614-2.791 1.832-6.1.598-9.078zm-45.405 56.689c-1.613 2.792-1.83 6.102-.596 9.08 1.233 2.979 3.728 5.165 6.84 5.998l7.204 1.931-56.507 40.692 22.505-42.935c1.458-2.781 1.571-6.026.311-8.903s-3.725-4.993-6.758-5.806l-13.179-3.531 32.394-56.108 36.533 9.789z"/><path d="m417.925 367.156-38.329-10.271c-4.284-1.14-8.827.736-11.044 4.578l-2.566 4.444c-4.68-3.127-9.79-5.714-15.278-7.62l-25.4-8.822c15.551-7.813 26.254-23.908 26.254-42.464v-25.567c5.724-7.064 9.162-16.052 9.162-25.831s-3.438-18.767-9.162-25.831v-29.421c0-63.411-51.589-115-115-115-26.797 0-52.888 9.421-73.467 26.528-3.186 2.647-3.621 7.377-.974 10.562 2.648 3.187 7.378 3.621 10.562.974 17.892-14.873 40.578-23.063 63.879-23.063 55.141 0 100 44.859 100 100v17.818c-5.17-2.349-10.902-3.668-16.94-3.668h-2.921v-10.502c0-17.921-14.579-32.5-32.5-32.5h-22.059c-8.856 0-16.78 5.282-20.187 13.458-2.668 6.404-8.875 10.542-15.812 10.542h-37.219c-13.105 0-24.416 7.801-29.552 19h-5.868c-6.039 0-11.771 1.32-16.941 3.669v-17.818c0-18.503 5.095-36.575 14.733-52.265 2.168-3.529 1.064-8.148-2.465-10.316-3.528-2.166-8.147-1.064-10.316 2.465-11.09 18.052-16.952 38.84-16.952 60.116v29.423c-5.723 7.064-9.161 16.051-9.161 25.829s3.438 18.766 9.161 25.829v25.568c0 18.557 10.703 34.652 26.254 42.465l-19.378 6.73-25.722-44.55c-2.321-4.024-7.071-5.998-11.57-4.794l-18.891 5.062c-17.038-29.194-26.816-63.121-26.816-99.292 0-2.384.044-4.817.13-7.232.147-4.14-3.088-7.615-7.228-7.763-4.123-.129-7.615 3.088-7.763 7.228-.093 2.593-.14 5.206-.14 7.768 0 37.469 9.748 72.703 26.833 103.306l-12.091 3.24c-3.113.836-5.605 3.023-6.838 6.002s-1.016 6.287.596 9.076l28.748 49.793-10.866 2.912c-3.876 1.038-6.733 4.135-7.457 8.081-.724 3.947.85 7.855 4.106 10.201l23.592 16.989v18.778c0 4.143 3.357 7.5 7.5 7.5s7.5-3.357 7.5-7.5v-7.978l42.177 30.372c1.812 1.305 3.917 1.95 6.015 1.95 2.407 0 4.805-.85 6.738-2.528 3.62-3.142 4.594-8.3 2.368-12.544l-29.037-55.394 13.426-3.597c3.111-.836 5.604-3.021 6.837-5.998 1.232-2.977 1.017-6.285-.593-9.076-.001-.002-.001-.003-.002-.004l-3.916-6.782 42.963-14.922h21.024v2.491c0 20.126 16.374 36.5 36.5 36.5s36.5-16.374 36.5-36.5v-2.49h21.024l51.701 17.956c4.583 1.592 8.831 3.789 12.685 6.467l-21 36.373-.001.001c-1.538 2.666-1.745 5.826-.567 8.67 1.179 2.844 3.56 4.932 6.533 5.729l9.688 2.596-23.489 44.811c-2.125 4.055-1.194 8.98 2.263 11.979 1.848 1.603 4.136 2.413 6.435 2.413 2.003 0 4.014-.616 5.742-1.862l36.988-26.636v26.503c0 4.136-3.364 7.5-7.5 7.5h-274c-4.136 0-7.5-3.364-7.5-7.5v-13.5c0-4.143-3.357-7.5-7.5-7.5s-7.5 3.357-7.5 7.5v13.5c0 12.406 10.094 22.5 22.5 22.5h274c12.406 0 22.5-10.094 22.5-22.5v-37.305l15.358-11.06c3.11-2.239 4.613-5.972 3.923-9.74-.689-3.77-3.418-6.728-7.119-7.719l-7.493-2.009 23.158-40.111c1.54-2.667 1.747-5.828.567-8.673s-3.562-4.933-6.533-5.727zm-307.175 14.759c-3.033.812-5.497 2.929-6.758 5.806s-1.147 6.122.311 8.904l22.505 42.934-56.508-40.693 7.202-1.93c3.114-.834 5.608-3.021 6.842-5.999 1.234-2.979 1.018-6.288-.595-9.079l-28.748-49.794 36.532-9.789 32.395 56.108zm205.951-120.247v-32.168h2.921c14.393 0 26.103 11.71 26.103 26.103s-11.71 26.103-26.103 26.103h-5.465c1.657-6.407 2.544-13.12 2.544-20.038zm-189.3-6.065c0-14.393 11.71-26.103 26.103-26.103h2.92v32.168c0 6.918.887 13.631 2.544 20.037h-5.464c-14.393 0-26.103-11.71-26.103-26.102zm72.661 83.897h-31c-17.921 0-32.5-14.579-32.5-32.5v-13.964c5.17 2.349 10.903 3.669 16.941 3.669h11.003c7.616 15.585 20.145 28.349 35.556 36.27zm58 17.491c0 11.855-9.645 21.5-21.5 21.5s-21.5-9.645-21.5-21.5v-18.138c6.847 1.91 14.052 2.953 21.5 2.953s14.653-1.043 21.5-2.953zm-21.5-30.184c-35.918 0-65.139-29.221-65.139-65.139v-33.668c0-9.649 7.851-17.5 17.5-17.5h37.219c13.013 0 24.654-7.762 29.658-19.772 1.07-2.568 3.56-4.228 6.342-4.228h22.059c9.649 0 17.5 7.851 17.5 17.5v57.668c0 35.918-29.221 65.139-65.139 65.139zm36.5 12.693v-6.525c15.411-7.921 27.939-20.685 35.556-36.27h11.004c6.038 0 11.771-1.32 16.94-3.668v13.963c0 17.921-14.579 32.5-32.5 32.5zm111.306 80.51c-1.541 2.667-1.748 5.828-.568 8.673 1.179 2.845 3.561 4.933 6.531 5.727l3.469.93-40.702 29.311 16.316-31.127c1.393-2.657 1.499-5.757.294-8.504-1.204-2.746-3.558-4.767-6.452-5.541l-9.42-2.524 25.721-44.55 27.969 7.495z"/></g></g></svg>