<svg xmlns="http://www.w3.org/2000/svg" xml:space="preserve" id="chronic-obstructive" x="0" y="0" style="enable-background:new 0 0 100 100" version="1.1" viewBox="0 0 100 100">
  <g>
    <g>
      <path d="M54.468,49.103c-0.018-0.927-0.034-1.782-0.034-2.535c0-4.027-1.726-6.756-3.113-8.95
			c-0.915-1.448-1.709-2.704-1.753-3.941c0.898-4.341,0.766-6.936-0.425-8.402c-0.439-0.542-1.256-1.187-2.65-1.187
			c-15.602,0-23.514,12.862-23.514,38.228l0.047,0.322c0.018,0.061,0.038,0.121,0.057,0.183c-0.066,0.157-0.107,0.327-0.107,0.505
			c-0.003,1.954-0.004,6.084-0.004,8.775c0,0.986,0,1.783,0,2.202c0,1.32,0.817,2.593,2.131,3.32
			c0.651,0.36,1.348,0.541,2.032,0.541c0.587,0,1.161-0.14,1.691-0.406c0.108-0.054,0.217-0.106,0.321-0.171
			c1.653-1.036,4.285-2.005,6.27-2.231c0.781,0.184,1.607,0.325,2.481,0.415c0.084,0.002,0.167,0.002,0.25,0.002
			c0.462,0,0.919-0.028,1.374-0.079c1.054,0.189,3.295,0.533,5.674,0.533c2.571,0,5.301-0.402,6.862-1.835
			c2.394-2.2,1.454-5.347,0.144-7.502C54.713,61.947,54.57,54.409,54.468,49.103z M50.53,72.732
			c-1.07,0.983-3.436,1.275-5.883,1.223c1.749-0.988,3.562-2.4,5.542-4.288c0.21-0.2,0.406-0.415,0.597-0.636
			C51.343,70.244,51.634,71.718,50.53,72.732z M27.948,75.677c-0.57,0.356-1.148,0.235-1.511,0.09
			c-0.099-0.04-0.185-0.081-0.246-0.115c-0.434-0.241-0.762-0.606-0.899-0.979c-0.046-0.124-0.07-0.249-0.07-0.37
			c0-0.954,0-3.835,0.001-6.543c1.436,2.429,3.487,4.69,6.416,6.208C30.19,74.472,28.856,75.109,27.948,75.677z M50.657,64.87
			c-0.229,0.573-0.492,1.11-0.79,1.602c-0.357,0.59-0.764,1.117-1.232,1.564c-2.899,2.763-5.274,4.368-7.59,5.067
			c-0.809,0.244-1.61,0.379-2.424,0.412c-0.187,0.008-0.374,0.01-0.562,0.007c-0.009,0-0.018,0.001-0.028,0.001
			c-0.894-0.092-1.723-0.256-2.506-0.465c-4.079-1.093-6.7-3.657-8.38-6.498c-0.786-1.33-1.366-2.715-1.795-4.039
			c-0.04-0.124-0.084-0.249-0.122-0.371c0.032-24.094,6.988-35.809,21.261-35.809c0.545,0,0.767,0.189,0.901,0.353
			c0.397,0.489,0.918,2.003-0.056,6.645l-0.024,0.231c0,1.925,1.022,3.542,2.105,5.252c1.295,2.049,2.764,4.371,2.764,7.745
			c0,0.766,0.016,1.635,0.035,2.578C52.307,53.857,52.433,60.441,50.657,64.87z"></path>
      <polygon points="15.746 43.221 15.506 43.614 15.659 43.708 19.311 45.938 20.486 44.016 16.681 41.691"></polygon>
      <polygon points="18.118 48.887 15.112 48.849 13.971 48.835 13.943 51.088 15.111 51.102 18.09 51.14"></polygon>
      <polygon points="15.641 56.186 15.362 56.347 15.813 57.127 16.49 58.298 20.349 56.067 19.221 54.117"></polygon>
      <path d="M43.752 50.32c-.404-1.117-.92-2.301-1.992-3.168-.263-.213-.553-.397-.844-.579-.066-.042-.131-.083-.195-.123 1.339-1.388 3.111-2.441 5.02-2.977.122.316.224.637.3.963l.256 1.097 2.194-.511-.256-1.097c-.432-1.853-1.452-3.609-2.873-4.942-1.189-1.114-3.021-3.438-1.948-6.483l.374-1.063-2.125-.749-.375 1.062c-1.554 4.412 1.252 7.678 2.531 8.877.28.262.538.545.776.845-.838.274-1.648.631-2.417 1.06l-.167-.095c-1.008-.568-2.114-.977-3.26-1.22.126-1.488-.12-2.988-.725-4.369l-.452-1.032L35.51 36.72l.452 1.032c.445 1.016.632 2.116.551 3.208-1.22-.029-2.442.121-3.605.466l-1.08.321.642 2.16 1.08-.321c2.124-.63 4.496-.475 6.518.399-.394.332-.772.68-1.119 1.052-.55.59-1.154 1.247-1.697 1.962l-.25-.079c-2.501-.794-5.446-.145-7.329 1.614l-.823.77 1.539 1.646.823-.769c1.225-1.146 3.19-1.604 4.861-1.172-.138.342-.256.689-.324 1.051-.03.159-.052.321-.078.481-1.672.295-2.946 1.742-2.946 3.483 0 .798.271 1.533.723 2.126-.11.127-.22.256-.328.387l-.613.004c-.006 0-.011 0-.017 0-.849 0-1.719-.407-2.222-1.04l-.701-.882-1.764 1.401.7.882c.788.993 2.008 1.659 3.297 1.839-.164.443-.282.9-.352 1.364-1.296.212-2.499.831-3.394 1.755l-.784.809 1.618 1.568.784-.809c.476-.491 1.122-.844 1.811-1.02.139.757.405 1.495.8 2.175l.566.974 1.949-1.132-.566-.974c-.846-1.455-.798-3.385.118-4.802.261-.404.597-.791.953-1.201.006-.007.012-.014.018-.021.311.088.639.139.978.139.593 0 1.152-.146 1.645-.401.044.267.079.543.112.832.056.494.119 1.005.245 1.527l-2.38 1.513 1.208 1.902 2.08-1.322c.289.439.628.85 1.019 1.218.227.215.494.467.762.743-1.16.664-2.346 1.356-3.368 2.201-1.329 1.098-2.153 2.28-2.449 3.512l-.263 1.095 2.19.527.263-1.095c.178-.737.763-1.532 1.695-2.302.926-.765 2.096-1.436 3.229-2.084.078.237.112.471.078.695l-.165 1.114 2.228.332.167-1.114c.34-2.282-1.639-4.148-2.82-5.262-.614-.58-1.065-1.335-1.269-2.128-.105-.408-.156-.854-.209-1.324-.068-.596-.138-1.212-.325-1.845-.071-.241-.168-.491-.289-.739.122-.356.191-.737.191-1.134 0-1.381-.804-2.577-1.97-3.16.021-.128.038-.258.062-.385.147-.778.649-1.575 1.247-2.329.174.12.348.233.513.335.212.132.426.262.618.418.738.597 1.074 1.555 1.462 2.663.27.772.549 1.569.999 2.321.464.776 1.063 1.424 1.643 2.052.739.799 1.436 1.554 1.671 2.404l.3 1.086 2.172-.601-.3-1.086c-.382-1.378-1.3-2.372-2.188-3.333-.525-.567-1.02-1.104-1.363-1.679-.059-.099-.112-.205-.166-.31.965-.409 2.07-.566 3.121-.44l1.119.135.269-2.237-1.119-.134C46.525 49.567 45.075 49.772 43.752 50.32zM36.896 55.164c-.069.035-.142.063-.218.085-.121.036-.247.061-.38.061-.211 0-.407-.053-.584-.139-.085-.042-.164-.092-.238-.149-.301-.236-.498-.594-.498-1 0-.049.009-.095.015-.142.019-.17.072-.329.153-.473.112-.2.275-.366.475-.484.009-.006.019-.01.028-.015.193-.107.412-.174.65-.174.321 0 .611.117.84.303.134.109.244.241.325.392.096.178.156.378.156.593C37.619 54.522 37.323 54.951 36.896 55.164zM80.868 27.559l-4.95-2.121v-.756c.86-1.517 1.131-3.51.592-5.509-.972-3.597-4.194-5.869-7.2-5.058-1.498.405-2.701 1.491-3.385 3.06-.209.48-.355.988-.45 1.513-.199 1.099-.152 2.271.157 3.42.412 1.527 1.241 2.86 2.352 3.809-1.225.524-2.565 1.104-3.79 1.648-4.174 1.855-4.712 3.605-4.904 5.239-.013.113-.025.219-.054.392l-.386 3.356-.031.001-.086 1.026-.141 1.228h.038l-.306 3.625c-.11.958.009 2.988 1.247 3.824.571.387 1.229.581 1.89.581.552 0 1.107-.136 1.614-.411l.452-.245v6.072 2.253h.001l.002 3.463 1.681 22.392c-.06.415-.202.844-.376 1.259-.167.398-.36.782-.535 1.125-.495.977-.922 1.82-.437 2.611.16.259.549.693 1.374.693h6.19 2.253 6.189c.824 0 1.211-.437 1.368-.697.482-.796.037-1.643-.477-2.624-.375-.714-.838-1.599-.959-2.414l1.093-14.018.408-5.232c.427.192.893.296 1.374.296.019 0 .036-.001.055-.001.103-.002.205-.01.305-.021 1.69-.184 3.02-1.644 3.02-3.437V40.987 36.48v-1.127C86.057 31.418 85.337 29.466 80.868 27.559zM83.804 40.987v.189 16.779c0 .625-.497 1.141-1.108 1.151-.339.026-.584-.11-.8-.322-.223-.219-.345-.513-.345-.829v-.07-3.38-2.253V40.987 39.86v-1.127h1.511.741v1.127V40.987zM71.427 83.796h-5.133c.005-.011.011-.021.016-.032.307-.606.696-1.374.944-2.221h4.158.015V83.796zM73.68 81.543h4.097c.261.849.667 1.623.988 2.233.003.007.007.014.01.02H73.68V81.543zM77.621 79.29H73.68h-.015v-3.608V57.885h-2.253v19.699 1.706h-2.396-1.631l-1.606-21.405v-3.38h13.51.009v2.253 1.081l-.985 12.605L77.621 79.29zM60.843 44.399c-.17-.162-.364-.993-.279-1.743l.328-3.865 2.634-.02v2.282l1.126-.612 1.126-.611 9.657-5.242c.263-.143.568-.176.856-.09.288.086.526.278.671.543v.001c.144.264.176.569.09.858-.086.288-.279.525-.544.669l-10.73 5.825-1.126.612-1.126.612-1.527.829C61.628 44.647 61.179 44.624 60.843 44.399zM65.779 44.957l11.804-6.408c.794-.43 1.373-1.143 1.629-2.009.036-.122.064-.245.086-.367v.307 2.253 2.253 11.266H65.779V44.957zM83.804 36.48h-1.588-.665V35v-.773h-.388-1.866v.756c-.063-.351-.18-.694-.355-1.016-.43-.794-1.144-1.372-2.01-1.629-.867-.257-1.782-.161-2.571.27l-8.583 4.657v-.764-2.274h-2.253v2.29l-2.406.018.344-3.011c.025-.143.044-.295.064-.455.102-.871.231-1.956 3.582-3.445 1.328-.591 2.795-1.224 4.1-1.782.137.957.573 1.841 1.269 2.538l2.059 2.06 2.06-2.06c.691-.691 1.124-1.568 1.266-2.516l1.742.746 2.375 1.018.001.001c3.372 1.438 3.822 2.453 3.822 5.723V36.48zM69.898 16.289c.222-.06.447-.089.671-.089 1.597 0 3.197 1.456 3.765 3.559.452 1.674.131 3.319-.715 4.328-.029.035-.059.066-.089.099-.051.055-.102.109-.155.161-.322.303-.701.528-1.13.643-.564.152-1.165.099-1.752-.14-.269-.11-.537-.255-.795-.444-.132-.097-.259-.206-.382-.319-.701-.647-1.23-1.541-1.507-2.568-.152-.564-.216-1.131-.199-1.68.02-.624.145-1.225.381-1.765C68.395 17.146 69.073 16.512 69.898 16.289zM71.573 27.333c.421 0 .844-.055 1.258-.167.261-.07.508-.169.748-.279.029-.013.057-.027.085-.041v.077.271c0 .601-.234 1.167-.66 1.594l-.466.466-.466-.466c-.394-.394-.615-.91-.647-1.461C71.474 27.329 71.524 27.333 71.573 27.333z"></path>
    </g>
  </g>
</svg>
