<svg xmlns="http://www.w3.org/2000/svg" id="closed-eye" viewBox="0 0 128 128">
  <path d="M24.845,70.1a1.99411,1.99411,0,0,0,1.21875-.41455,12.8986,12.8986,0,0,1,7.93646-2.68311,2,2,0,0,0,0-4,16.86759,16.86759,0,0,0-10.37592,3.51221A2.00041,2.00041,0,0,0,24.845,70.1Z"></path>
  <path d="M4.97009 79.3139A14.03438 14.03438 0 0 0 7.392 80.99719a7.0007 7.0007 0 0 0-.66119.45978 1.99583 1.99583 0 0 0 1.2793 3.53223 2.01626 2.01626 0 0 0 1.24023-.42529 9.70137 9.70137 0 0 1 4.67914-1.538 9.18079 9.18079 0 0 0-.68207 1.01453 1.99948 1.99948 0 1 0 3.5058 1.92383 6.226 6.226 0 0 1 4.4043-2.96826 1.98223 1.98223 0 0 0 .84363-.26959c10.23041-.976 17.817-1.54468 28.40613 3.4566a6.01074 6.01074 0 0 0 8.57513-5.21387 25.89592 25.89592 0 0 0-.09277-3.34766 25.00473 25.00473 0 0 0-48.09729-6.93018 2.00037 2.00037 0 0 0 3.71283 1.49023 21.00461 21.00461 0 0 1 40.4021 5.80908 21.6968 21.6968 0 0 1 .07715 2.82666 2.009 2.009 0 0 1-2.86816 1.749c-11.86511-5.604-20.44708-4.78418-31.31909-3.74365l-1.9834.18848c-4.85156.45117-8.60541-.4458-11.17084-2.67334a11.54308 11.54308 0 0 1-3.64349-7.41016 2.00042 2.00042 0 0 0-3.998.14941A15.46864 15.46864 0 0 0 4.97009 79.3139ZM93.99982 63.00238a2 2 0 0 0 0 4 12.8986 12.8986 0 0 1 7.93646 2.68311 2.00033 2.00033 0 0 0 2.43939-3.1709A16.86729 16.86729 0 0 0 93.99982 63.00238Z"></path>
  <path d="M71.90814 85.88861a5.99249 5.99249 0 0 0 5.68451.29492c10.58643-5.00128 18.17468-4.43262 28.40625-3.45709a1.982 1.982 0 0 0 .84357.26959c2.792.2207 4.36719 2.90625 4.40918 2.979a1.99994 1.99994 0 0 0 3.50092-1.93457 9.18292 9.18292 0 0 0-.68225-1.01471 9.74 9.74 0 0 1 4.67737 1.53571 1.99976 1.99976 0 0 0 2.52148-3.10449 7.01317 7.01317 0 0 0-.66132-.4599 14.01634 14.01634 0 0 0 2.422-1.68317 15.46853 15.46853 0 0 0 4.96875-10.23682 2.00014 2.00014 0 0 0-3.99707-.15918 11.54852 11.54852 0 0 1-3.64447 7.41992c-2.56543 2.22705-6.32715 3.127-11.17084 2.67334l-1.9834-.18848c-10.86908-1.04053-19.454-1.86133-31.31909 3.74414a2.00951 2.00951 0 0 1-2.86816-1.748 21.71222 21.71222 0 0 1 .07715-2.82812 21.00457 21.00457 0 0 1 40.402-5.80908 2.0004 2.0004 0 0 0 3.71289-1.49023 25.00477 25.00477 0 0 0-48.09735 6.93018 25.73738 25.73738 0 0 0-.0918 3.34912A6.00286 6.00286 0 0 0 71.90814 85.88861ZM10.389 54.90668a1.99819 1.99819 0 0 0 2.51563-1.293 13.70045 13.70045 0 0 1 6.45892-7.32178c3.57806-1.76953 8.04974-1.71875 13.29578.14941 17.10345 6.08984 21.3739 8.272 21.41 8.291a2.00021 2.00021 0 1 0 1.86133-3.541c-.1709-.08984-4.38965-2.27344-21.92957-8.51855-6.30463-2.24463-11.82507-2.23389-16.41.0332a17.76885 17.76885 0 0 0-8.49506 9.68506A1.99966 1.99966 0 0 0 10.389 54.90668Z"></path>
  <path d="M73.9306,54.73236c.03906-.021,4.13666-2.14111,21.41-8.291,5.22266-1.85986,9.68158-1.917,13.25189-.17139a13.89282,13.89282,0,0,1,6.50482,7.35059,2.00014,2.00014,0,0,0,3.80664-1.22949,17.76885,17.76885,0,0,0-8.49506-9.68506c-4.585-2.26758-10.10638-2.27832-16.41-.0332-17.53992,6.24512-21.75867,8.42871-21.92957,8.51855a2.00021,2.00021,0,0,0,1.86133,3.541Z"></path>
</svg>
