<svg id="SvgjsSvg1067" width="288" height="288" xmlns="http://www.w3.org/2000/svg" version="1.1" xmlns:xlink="http://www.w3.org/1999/xlink" xmlns:svgjs="http://svgjs.com/svgjs"><defs id="SvgjsDefs1068"></defs><g id="SvgjsG1069"><svg xmlns="http://www.w3.org/2000/svg" viewBox="0 0 1024 1024" width="288" height="288"><path d="m772.9 649.9-14.5-13.7c17-17.9 58.7-62.2 79.7-85.7 5.8-6.5 7.9-15.4 5.6-23.9l-.2-.7c-1.3-4.6-3.8-8.7-7.3-12-3.6-3.4-8.1-5.6-13-6.5l3.4-19.7c8.7 1.5 16.7 5.5 23.2 11.5 6.2 5.8 10.7 13.2 12.9 21.4l.2.7c4.1 15 .4 30.9-10 42.5-21.1 23.7-63 68.1-80 86.1z" fill="#000000" class="svgShape color000000-0 selectable"></path><path d="m801.4 783.3-20-1.3 3.3-52.6c1-15 7.3-29.1 17.9-39.8l72.7-73.4c22-22.3 34.6-53 34.3-84.3l-.6-81.8v-1.2l-13.3-111.6v-.4c-.4-4.5-2.4-8.7-5.7-11.8-3.3-3.1-7.7-4.8-12.3-4.8-11.3 0-16.1 1.8-22.1 8.3-1.8 1.9-3.4 4-4.7 6.3-5.9 10.1-5.5 20.7-4.9 34.1.1 1.3.1 2.6.2 3.9l3.8 56.3v.3c.1 3.2-.2 6.3-.9 9.5l-14.2 60.9c-1.2 5.2-6.2 8.5-11.5 7.6-8.6-1.5-17.2 1.4-23.2 7.8l-52.5 56.4c-7.6 8.2-16.3 15.3-25.9 21.1-.3.2-.5.3-.8.4l-62.7 30.7c-28.9 14.1-49.6 39.9-56.7 70.6-1.3 5.4-2 10.5-2.1 15v1.7l2.8 71.5-20 .8-2.8-71.7v-.4c0-.8 0-1.6.1-2.5.2-5.9 1.1-12.2 2.6-18.9 8.5-36.6 33-67.2 67.4-84l62.3-30.5c7.8-4.8 15-10.6 21.2-17.3l52.5-56.4c8.4-9 19.8-14.1 31.7-14.5l12.3-52.6c.3-1.3.4-2.7.4-4.1l-3.8-56.3v-.3c0-1.4-.1-2.7-.2-4-.6-14.7-1.2-29.9 7.7-45 2.1-3.5 4.5-6.8 7.3-9.8 11.3-12.2 22.5-14.6 36.8-14.6 9.6 0 18.8 3.6 25.9 10.2 6.9 6.4 11.2 15.2 12 24.6L929 447v.3c.1 1 .1 2 .1 3l.6 81.7c.3 36.6-14.3 72.5-40.1 98.6L816.9 704a41.61 41.61 0 0 0-12.1 27l-3.4 52.3z" fill="#000000" class="svgShape color000000-1 selectable"></path><path d="M564.9 911.4c-6.8 0-13.1-2.6-17.9-7.4-4.8-4.8-7.4-11.1-7.4-17.9l-.1-87.8c0-6.8 2.6-13.1 7.4-17.9 4.8-4.8 11.1-7.4 17.9-7.4l258.4-.3c6.8 0 13.1 2.6 17.9 7.4 4.8 4.8 7.4 11.1 7.4 17.9l.1 87.8c0 14-11.3 25.4-25.3 25.4l-258.4.2c.1 0 .1 0 0 0zm258.4-118.8-258.5.4c-1.4 0-2.8.6-3.8 1.6s-1.6 2.4-1.6 3.8l.1 87.8c0 1.4.6 2.8 1.6 3.8s2.3 1.6 3.8 1.6l258.4-.3c2.9 0 5.3-2.4 5.3-5.3l-.1-87.8c.1-3.2-2.3-5.6-5.2-5.6z" fill="#000000" class="svgShape color000000-2 selectable"></path><path d="M785.8 860.7c-4.3 0-8.5-1.6-11.7-4.6-3.3-3.1-5.3-7.3-5.4-11.9-.2-4.6 1.5-8.9 4.6-12.3 6.4-6.9 17.3-7.3 24.2-.9 3.3 3.1 5.3 7.3 5.5 11.9s-1.5 8.9-4.6 12.3c-3.1 3.3-7.3 5.3-11.9 5.5h-.7zm0-20h-.1c-.8 0-1.5.4-2 .9-.5.6-.8 1.3-.8 2.1s.4 1.5.9 2c1.2 1.1 3 1 4.1-.1.5-.6.8-1.3.8-2.1s-.4-1.5-.9-2c-.6-.5-1.3-.8-2-.8zM512 538.1c-2.7 0-5.2-1.1-7.1-2.9L304.4 334.7c-24.5-24.5-38-57.2-38-92.1 0-34.9 13.5-67.6 38-92.1s57.2-38 92.1-38 67.6 13.5 92.1 38L512 174l23.5-23.5c50.8-50.8 133.4-50.8 184.1 0 24.5 24.5 38 57.2 38 92.1 0 34.9-13.5 67.6-38 92.1L519.1 535.2c-1.9 1.9-4.4 2.9-7.1 2.9zM396.5 132.6c-29.5 0-57.2 11.4-77.9 32.1-43 43-43 112.9 0 155.8L512 514l193.5-193.5c43-43 43-112.9 0-155.8-43-43-112.9-43-155.8 0l-30.6 30.6c-1.9 1.9-4.4 2.9-7.1 2.9s-5.2-1.1-7.1-2.9l-30.6-30.6c-20.7-20.7-48.3-32.1-77.8-32.1z" fill="#dc2626" class="svgShape color000000-3 selectable"></path><path d="M499.3 381.5h-.3c-4-.1-7.5-2.6-9-6.4l-41.6-106.7-39.1 79.5c-1.7 3.4-5.2 5.6-9 5.6H327v-20h67.1l46.4-94.3c1.8-3.6 5.4-5.8 9.4-5.6 4 .2 7.5 2.7 8.9 6.4l41.3 106 29.3-62.9c1.6-3.5 5.2-5.8 9-5.8 3.9 0 7.4 2.2 9.1 5.8l23.6 50.3h54.4v20h-60.8c-3.9 0-7.4-2.2-9.1-5.8l-17.2-36.7-30.1 64.7c-1.6 3.6-5.1 5.9-9 5.9zM251.1 649.9c-17-18-58.9-62.4-80-86.1-10.4-11.6-14.1-27.5-10-42.5l.2-.7c2.2-8.2 6.7-15.6 12.9-21.4 6.5-6 14.5-10 23.2-11.5l3.4 19.7c-4.9.9-9.4 3.1-13 6.5-3.5 3.2-6 7.4-7.3 12l-.2.7c-2.3 8.4-.2 17.4 5.6 23.9 21 23.4 62.7 67.7 79.7 85.7l-14.5 13.7z" fill="#000000" class="svgShape color000000-4 selectable"></path><path d="m222.6 783.3-3.3-52.6c-.6-10.2-5-19.8-12.1-27l-72.7-73.4c-25.8-26-40.4-61.9-40.1-98.6L95 450c0-.9 0-2 .1-2.9v-.3l13.3-111.6c.8-9.4 5.1-18.2 12-24.6 7.1-6.6 16.3-10.2 25.9-10.2 14.3 0 25.4 2.5 36.8 14.6 2.8 3 5.2 6.3 7.3 9.8 8.9 15.2 8.3 30.3 7.7 45-.1 1.3-.1 2.7-.2 4v.3l-3.8 56.3c0 1.4.1 2.7.4 4.1l12.3 52.6c12 .4 23.4 5.5 31.7 14.5L291 558c6.3 6.7 13.4 12.6 21.2 17.3l62.3 30.5c34.3 16.8 58.9 47.4 67.4 84 1.5 6.7 2.4 13 2.6 18.8 0 .9 0 1.7.1 2.5v.4l-2.8 71.7-20-.8 2.8-71.5v-1.8c-.2-4.5-.9-9.5-2.1-15-7.1-30.7-27.8-56.4-56.7-70.6l-62.7-30.7c-.3-.1-.5-.3-.8-.4-9.6-5.8-18.3-12.9-25.9-21.1L224 515.2c-5.9-6.4-14.6-9.3-23.2-7.8-5.2.9-10.3-2.4-11.5-7.6L175.1 439c-.7-3.1-1-6.3-.9-9.5v-.3l3.8-56.3c0-1.3.1-2.6.2-3.9.5-13.4 1-24-4.9-34.1-1.3-2.3-2.9-4.4-4.7-6.3-6-6.5-10.8-8.3-22.1-8.3-4.6 0-8.9 1.7-12.3 4.8-3.3 3.1-5.3 7.3-5.7 11.8v.4L115.1 449v1.2l-.6 81.8c-.2 31.3 12.3 62.1 34.3 84.3l72.7 73.4c10.6 10.7 16.9 24.8 17.9 39.8l3.3 52.6-20.1 1.2z" fill="#000000" class="svgShape color000000-5 selectable"></path><path d="M459.1 911.4c-.1 0-.1 0 0 0l-258.5-.3c-14 0-25.3-11.4-25.3-25.4l.1-87.8c0-14 11.4-25.3 25.3-25.3l258.4.3c6.8 0 13.1 2.7 17.9 7.4 4.8 4.8 7.4 11.2 7.4 17.9l-.1 87.8c.1 14.1-11.3 25.4-25.2 25.4zM195.4 798l-.1 87.8c0 2.9 2.4 5.3 5.3 5.3l258.4.3c2.9 0 5.3-2.4 5.3-5.3l.1-87.8c0-1.4-.6-2.8-1.6-3.8s-2.3-1.6-3.8-1.6l-258.4-.3c-2.8 0-5.2 2.4-5.2 5.4z" fill="#000000" class="svgShape color000000-6 selectable"></path><path d="M238.3 860.7h-.6c-4.6-.2-8.8-2.1-11.9-5.5-3.1-3.3-4.7-7.7-4.6-12.3.2-4.6 2.1-8.8 5.5-11.9 6.9-6.4 17.8-6 24.2.9 6.4 6.9 6 17.8-.9 24.2-3.3 3-7.4 4.6-11.7 4.6zm-.1-20c-.7 0-1.4.3-2 .8-1.2 1.1-1.2 2.9-.1 4.1 1.1 1.2 2.9 1.2 4.1.1.6-.5.9-1.2.9-2s-.3-1.5-.8-2.1c-.5-.6-1.2-.9-2-.9h-.1z" fill="#dc2626" class="svgShape color000000-7 selectable"></path></svg></g></svg>