<svg width="56" height="56" viewBox="0 0 56 56" fill="none" xmlns="http://www.w3.org/2000/svg">
<rect x="27.5762" width="39" height="39" rx="7.69" transform="rotate(45 27.5762 0)" fill="#FFD7D7"/>
<path d="M40.748 13H15.248C14.1213 13.0013 13.041 13.4494 12.2442 14.2462C11.4475 15.0429 10.9993 16.1232 10.998 17.25V36.375C10.9995 37.4097 11.3778 38.4084 12.0622 39.1843C12.7467 39.9602 13.6904 40.4601 14.7168 40.5906V45.9375H13.6543C12.9519 45.9375 12.951 47 13.6543 47H42.3418C43.0442 47 43.0451 45.9375 42.3418 45.9375H41.2793V40.5906C42.3057 40.4601 43.2494 39.9602 43.9339 39.1843C44.6183 38.4084 44.9966 37.4097 44.998 36.375V17.25C44.9968 16.1232 44.5486 15.0429 43.7519 14.2462C42.9551 13.4494 41.8748 13.0013 40.748 13ZM43.9355 36.375C43.9346 37.2201 43.5984 38.0303 43.0009 38.6278C42.4033 39.2254 41.5931 39.5615 40.748 39.5625H38.0918C37.3894 39.5625 37.3885 40.625 38.0918 40.625H40.2168V45.9375H15.7793V40.625H33.8418C34.5442 40.625 34.5451 39.5625 33.8418 39.5625H15.248C14.403 39.5615 13.5928 39.2254 12.9952 38.6278C12.3976 38.0303 12.0615 37.2201 12.0605 36.375V17.25C12.0615 16.4049 12.3976 15.5947 12.9952 14.9972C13.5928 14.3996 14.403 14.0635 15.248 14.0625H40.748C41.5931 14.0635 42.4033 14.3996 43.0009 14.9972C43.5984 15.5947 43.9346 16.4049 43.9355 17.25V36.375Z" fill="black"/>
<path d="M40.748 15.125H21.623C20.9206 15.125 20.9197 16.1875 21.623 16.1875H40.748C41.0297 16.1878 41.2998 16.2999 41.499 16.4991C41.6982 16.6983 41.8102 16.9683 41.8105 17.25V36.375C41.8102 36.6567 41.6982 36.9267 41.499 37.1259C41.2998 37.3251 41.0297 37.4372 40.748 37.4375H15.248C14.9664 37.4372 14.6963 37.3251 14.4971 37.1259C14.2979 36.9267 14.1859 36.6567 14.1855 36.375V17.25C14.1859 16.9683 14.2979 16.6983 14.4971 16.4991C14.6963 16.2999 14.9664 16.1878 15.248 16.1875H17.373C18.0755 16.1875 18.0764 15.125 17.373 15.125H15.248C14.6847 15.1256 14.1445 15.3497 13.7461 15.7481C13.3478 16.1465 13.1237 16.6866 13.123 17.25V36.375C13.1237 36.9384 13.3478 37.4785 13.7461 37.8769C14.1445 38.2753 14.6847 38.4994 15.248 38.5H40.748C41.3114 38.4994 41.8516 38.2753 42.2499 37.8769C42.6483 37.4785 42.8724 36.9384 42.873 36.375V17.25C42.8724 16.6866 42.6483 16.1465 42.2499 15.7481C41.8516 15.3497 41.3114 15.1256 40.748 15.125Z" fill="black"/>
<path d="M18.4355 41.6875C18.1203 41.6875 17.8122 41.781 17.5501 41.9561C17.288 42.1312 17.0837 42.3801 16.9631 42.6713C16.8425 42.9626 16.8109 43.283 16.8724 43.5922C16.9339 43.9013 17.0857 44.1853 17.3086 44.4082C17.5315 44.6311 17.8155 44.7829 18.1246 44.8444C18.4338 44.9059 18.7542 44.8743 19.0454 44.7537C19.3367 44.6331 19.5856 44.4288 19.7607 44.1667C19.9358 43.9046 20.0293 43.5965 20.0293 43.2813C20.0288 42.8587 19.8607 42.4536 19.562 42.1548C19.2632 41.8561 18.8581 41.688 18.4355 41.6875ZM17.9043 43.2813C17.9043 43.1404 17.9603 43.0052 18.0599 42.9056C18.1595 42.806 18.2947 42.75 18.4355 42.75C18.5764 42.75 18.7116 42.806 18.8112 42.9056C18.9108 43.0052 18.9668 43.1404 18.9668 43.2813C18.9668 43.9844 17.9043 43.9835 17.9043 43.2813Z" fill="black"/>
<path d="M22.6855 41.6875C22.3703 41.6875 22.0622 41.781 21.8001 41.9561C21.538 42.1312 21.3337 42.3801 21.2131 42.6713C21.0925 42.9626 21.0609 43.283 21.1224 43.5922C21.1839 43.9013 21.3357 44.1853 21.5586 44.4082C21.7815 44.6311 22.0655 44.7829 22.3746 44.8444C22.6838 44.9059 23.0042 44.8743 23.2954 44.7537C23.5867 44.6331 23.8356 44.4288 24.0107 44.1667C24.1858 43.9046 24.2793 43.5965 24.2793 43.2813C24.2788 42.8587 24.1107 42.4536 23.812 42.1548C23.5132 41.8561 23.1081 41.688 22.6855 41.6875ZM22.1543 43.2813C22.1543 43.1404 22.2103 43.0052 22.3099 42.9056C22.4095 42.806 22.5447 42.75 22.6855 42.75C22.8264 42.75 22.9616 42.806 23.0612 42.9056C23.1608 43.0052 23.2168 43.1404 23.2168 43.2813C23.2168 43.9844 22.1543 43.9835 22.1543 43.2813Z" fill="black"/>
<path d="M26.9355 41.6875C26.6203 41.6875 26.3122 41.781 26.0501 41.9561C25.788 42.1312 25.5837 42.3801 25.4631 42.6713C25.3425 42.9626 25.3109 43.283 25.3724 43.5922C25.4339 43.9013 25.5857 44.1853 25.8086 44.4082C26.0315 44.6311 26.3155 44.7829 26.6246 44.8444C26.9338 44.9059 27.2542 44.8743 27.5454 44.7537C27.8367 44.6331 28.0856 44.4288 28.2607 44.1667C28.4358 43.9046 28.5293 43.5965 28.5293 43.2813C28.5288 42.8587 28.3607 42.4536 28.062 42.1548C27.7632 41.8561 27.3581 41.688 26.9355 41.6875ZM26.4043 43.2813C26.4043 43.1404 26.4603 43.0052 26.5599 42.9056C26.6595 42.806 26.7947 42.75 26.9355 42.75C27.0764 42.75 27.2116 42.806 27.3112 42.9056C27.4108 43.0052 27.4668 43.1404 27.4668 43.2813C27.4668 43.9844 26.4043 43.9835 26.4043 43.2813Z" fill="black"/>
<path d="M30.6561 43.8125H38.0936C38.796 43.8125 38.7969 42.75 38.0936 42.75H30.6561C29.9536 42.75 29.9528 43.8125 30.6561 43.8125Z" fill="black"/>
<path d="M17.9045 19.375C17.7636 19.375 17.6285 19.431 17.5288 19.5306C17.4292 19.6302 17.3732 19.7654 17.3732 19.9062V29.4695C15.3315 31.0054 16.4335 34.25 18.967 34.25C21.5021 34.25 22.6016 31.0047 20.5607 29.4695V19.9062C20.5607 19.7654 20.5048 19.6302 20.4051 19.5306C20.3055 19.431 20.1704 19.375 20.0295 19.375H17.9045ZM18.967 33.1875C17.3496 33.1875 16.7575 31.0312 18.1706 30.2136C18.6749 29.9214 18.3366 29.9163 18.4357 20.4375H19.4982C19.5969 29.8907 19.2595 29.922 19.7634 30.2136C21.1745 31.03 20.5873 33.1875 18.967 33.1875Z" fill="#DC2626"/>
<path d="M16.3105 22.032C16.3105 21.3297 15.248 21.3287 15.248 22.032C15.248 22.7354 16.3105 22.7354 16.3105 22.032Z" fill="black"/>
<path d="M16.3105 24.157C16.3105 23.4547 15.248 23.4537 15.248 24.157C15.248 24.8594 16.3105 24.8604 16.3105 24.157Z" fill="black"/>
<path d="M16.3105 26.282C16.3105 25.5797 15.248 25.5787 15.248 26.282C15.248 26.9844 16.3105 26.9854 16.3105 26.282Z" fill="black"/>
<path d="M16.3105 28.407C16.3105 27.7047 15.248 27.7037 15.248 28.407C15.248 29.1094 16.3105 29.1104 16.3105 28.407Z" fill="black"/>
<path d="M18.4355 31.5949C18.4355 32.2973 19.498 32.2983 19.498 31.5949C19.498 30.8915 18.4355 30.8915 18.4355 31.5949Z" fill="#DC2626"/>
<path d="M19.4998 16.1875C20.2022 16.1875 20.2032 15.125 19.4998 15.125C18.7974 15.125 18.7964 16.1875 19.4998 16.1875Z" fill="black"/>
<path d="M35.9686 39.5625C35.2662 39.5625 35.2652 40.625 35.9686 40.625C36.6719 40.625 36.6719 39.5625 35.9686 39.5625Z" fill="black"/>
<path d="M25.2244 29.483C24.502 29.6417 23.856 30.0433 23.3939 30.6208C22.9319 31.1983 22.6819 31.9167 22.6856 32.6562V35.8438C22.6856 36.5462 23.7481 36.5471 23.7481 35.8438V32.6562C23.7481 31.7012 24.3511 30.7885 25.4758 30.5154L29.1436 29.5973C29.8236 32.2474 33.6089 32.252 34.2901 29.5973C38.8334 30.7344 37.8204 30.4845 37.9716 30.5186C38.459 30.6246 38.8952 30.8947 39.2072 31.2839C39.5192 31.673 39.6881 32.1575 39.6856 32.6562V35.8438C39.6856 36.5462 40.7481 36.5471 40.7481 35.8438V32.6562C40.7518 31.9167 40.5018 31.1983 40.0397 30.6208C39.5777 30.0433 38.9316 29.6417 38.2093 29.483L34.3731 28.5229V27.0992C34.7743 26.7097 35.0888 26.2399 35.2961 25.7206C36.3615 25.455 36.479 24.616 36.4893 24.6007C36.6614 24.025 36.7952 23.4494 36.4002 22.9953C37.004 20.0844 34.7936 17.25 31.7168 17.25C28.6356 17.25 26.4304 20.0877 27.0337 22.9953C26.5407 23.5621 26.9009 24.3551 26.9419 24.5625L26.9448 24.6007C26.9492 24.6073 27.0946 25.4605 28.1379 25.7205C28.3452 26.2389 28.6596 26.7076 29.0606 27.0961V28.5229L25.2244 29.483ZM35.3103 21.0702C34.0535 20.5626 33.2141 22.0204 31.7013 22.0204C30.2085 22.0204 29.3744 20.5701 28.1227 21.0723C29.1076 17.4012 34.3233 17.402 35.3103 21.0702ZM28.9194 24.708C27.9981 25.2187 27.4668 23.625 28.254 23.4503C28.1743 23.1463 28.0814 22.9152 28.0276 22.4916C28.2601 22.1945 28.4647 22.04 28.6378 22.0337C29.4446 22.0052 30.8416 24.1105 33.9503 22.3734C34.6836 21.9638 34.8925 21.8336 35.4062 22.4915C35.3515 22.9212 35.2568 23.157 35.1798 23.4503C35.9668 23.625 35.4356 25.2187 34.5143 24.708C34.488 24.7427 34.0326 27.0948 31.726 27.0948C29.4106 27.0948 28.9424 24.7433 28.9194 24.708ZM33.3106 27.8206V28.9375C33.3106 29.3602 33.1427 29.7656 32.8438 30.0645C32.5449 30.3633 32.1395 30.5312 31.7168 30.5312C31.2941 30.5312 30.8888 30.3633 30.5899 30.0645C30.291 29.7656 30.1231 29.3602 30.1231 28.9375V27.8167C30.6244 28.0408 31.1673 28.1569 31.7164 28.1576C32.2656 28.1583 32.8087 28.0435 33.3106 27.8206Z" fill="#DC2626"/>
<path d="M36.498 33.6971V35.8434C36.498 36.5458 37.5605 36.5467 37.5605 35.8434V33.6971C37.5605 32.9946 36.498 32.9938 36.498 33.6971Z" fill="#DC2626"/>
<path d="M25.873 33.6963V35.8425C25.873 36.545 26.9355 36.5458 26.9355 35.8425V33.6963C26.9355 33.5554 26.8796 33.4203 26.7799 33.3206C26.6803 33.221 26.5452 33.165 26.4043 33.165C26.2634 33.165 26.1283 33.221 26.0286 33.3206C25.929 33.4203 25.873 33.5554 25.873 33.6963Z" fill="#DC2626"/>
</svg>
