<svg xmlns="http://www.w3.org/2000/svg" enable-background="new 0 0 100 100" viewBox="0 0 100 100" id="comprehensive">
  <path d="M88.312,17.934c-2.893-1.909-7.447-1.489-13.925,1.282c-5.618,2.403-10.84-1.181-13.403-3.469c-0.538-0.656-1.148-1.269-1.834-1.834c-0.042-0.035-0.087-0.067-0.13-0.102c-1.271-1.023-2.776-1.894-4.517-2.582c-2.878-1.138-6.126-1.138-9.004,0c-1.742,0.689-3.249,1.56-4.52,2.585c-0.04,0.032-0.083,0.064-0.123,0.097c-0.686,0.565-1.297,1.179-1.836,1.835c-2.564,2.289-7.79,5.874-13.405,3.47c-6.477-2.771-11.033-3.192-13.925-1.282c-3.315,2.187-3.315,6.825-3.315,8.349c0,6.832,4.923,11.79,11.707,11.79c5.283,0,8.391-2.131,9.556-3.125c-1.764,3.403-2.768,7.259-2.768,11.348c0,3.27,0.648,6.467,1.871,9.425l-2.154,2.151c-1.211,1.208-1.877,2.815-1.877,4.524c0,1.16,0.313,2.269,0.889,3.243L9.781,81.43c-0.909,0.906-1.409,2.112-1.409,3.395c0,1.282,0.5,2.488,1.409,3.394c0.909,0.906,2.114,1.405,3.395,1.405c1.282,0,2.488-0.499,3.397-1.405l15.822-15.794c0.975,0.576,2.087,0.891,3.249,0.891c1.461,0,2.845-0.489,3.971-1.383c1.728,7.872,6.042,14.188,9.919,14.188h0.933c4.2,0,8.916-7.412,10.297-16.185c0.031-0.199,0.051-0.405,0.061-0.617c3.431-1.36,6.554-3.473,9.09-6.232c0.149-0.163,0.31-0.339,0.45-0.515c3.749-4.244,5.924-9.71,6.124-15.395c0.03-0.884-0.662-1.627-1.546-1.658c-0.021-0.001-0.041,0.003-0.062,0.003c-0.891-0.011-1.566,0.679-1.596,1.542c-0.174,4.959-2.074,9.723-5.35,13.417c-0.023,0.026-0.045,0.052-0.067,0.08c-0.095,0.122-0.209,0.244-0.317,0.362c-2.007,2.182-4.436,3.903-7.106,5.087c-0.495,0.219-0.999,0.416-1.51,0.598c-0.507,0.18-1.019,0.345-1.538,0.487c-1.845,0.507-3.764,0.774-5.71,0.774c-3.078,0-6.091-0.665-8.848-1.903c-0.501-0.225-0.993-0.471-1.476-0.734c-0.492-0.268-0.974-0.553-1.445-0.859c-0.027-0.018-0.054-0.037-0.083-0.056c-1.466-0.962-2.824-2.103-4.03-3.414c-0.1-0.109-0.209-0.223-0.299-0.34c-0.022-0.029-0.046-0.057-0.07-0.085c-0.664-0.749-1.271-1.54-1.818-2.367c-2.301-3.474-3.545-7.576-3.545-11.817c0-6.723,3.098-12.736,7.944-16.695c0.416-0.34,0.847-0.662,1.289-0.971c0.437-0.306,0.885-0.598,1.345-0.872c3.232-1.924,7.005-3.033,11.035-3.033c2.957,0,5.793,0.596,8.385,1.68c0.493,0.207,0.978,0.43,1.453,0.672c0.477,0.242,0.945,0.5,1.401,0.777c2.209,1.339,4.164,3.067,5.767,5.106c0.347,0.441,0.676,0.898,0.989,1.367c1.358,2.039,2.388,4.336,2.999,6.829c0.205,0.839,1.038,1.353,1.875,1.184c0.021-0.004,0.042-0.004,0.063-0.009c0.86-0.211,1.386-1.079,1.175-1.938c-0.258-1.054-0.582-2.077-0.965-3.067c1.394,0.437,3.082,0.749,5.09,0.749c6.784,0,11.707-4.958,11.707-11.79C91.627,24.759,91.627,20.122,88.312,17.934z M39.428,23.785c0-2.418,0.749-4.299,1.868-5.761c0.505-0.66,1.086-1.233,1.707-1.732c1.159-0.932,2.458-1.605,3.672-2.085c1.063-0.421,2.182-0.634,3.325-0.634c1.143,0,2.262,0.213,3.325,0.634c1.214,0.48,2.513,1.154,3.673,2.086c0.62,0.499,1.201,1.071,1.706,1.73c1.017,1.328,1.719,3.009,1.84,5.118c-2.765-1.049-5.753-1.623-8.857-1.623c-4.435,0-8.597,1.173-12.203,3.215C39.451,24.444,39.428,24.137,39.428,23.785z M20.082,34.87c-5.008,0-8.505-3.532-8.505-8.588c0-2.985,0.613-4.842,1.877-5.677c1.306-0.859,4.253-1.29,10.902,1.554c4.579,1.959,8.794,0.983,12.07-0.703c-0.128,0.75-0.199,1.525-0.199,2.328c0,1.144,0.157,2.06,0.389,2.845c-1.85,1.417-3.497,3.086-4.885,4.958c0.035-0.232,0.058-0.468,0.058-0.71c0-2.646-2.154-4.798-4.803-4.798c-2.649,0-4.803,2.152-4.803,4.798c0,1.395,0.603,2.649,1.558,3.527C22.721,34.679,21.509,34.87,20.082,34.87z M26.986,32.473c-0.883,0-1.601-0.716-1.601-1.596c0-0.879,0.718-1.595,1.601-1.595c0.882,0,1.601,0.716,1.601,1.595C28.587,31.757,27.868,32.473,26.986,32.473z M57.427,70.39c-1.483,7.814-5.488,12.528-6.96,12.528h-0.933c-1.531,0-5.813-5.093-7.134-13.482c-0.009-0.056-0.01-0.123-0.015-0.185c2.928,1.185,6.084,1.822,9.303,1.822C53.636,71.074,55.561,70.835,57.427,70.39z M39.036,68.048l-1.127,1.125c-0.865,0.864-2.186,1.099-3.313,0.728c-0.449-0.148-0.871-0.383-1.216-0.728l-4.529-4.52c-0.345-0.345-0.59-0.759-0.746-1.206c-0.117-0.335-0.19-0.686-0.19-1.051c0-0.852,0.332-1.653,0.936-2.256l1.132-1.129l1.167,1.164c0.569,0.832,1.186,1.633,1.859,2.395c0.136,0.172,0.294,0.345,0.455,0.521c1.3,1.414,2.758,2.653,4.328,3.715L39.036,68.048z M12.045,85.95c-0.301-0.301-0.467-0.7-0.467-1.125c0-0.426,0.166-0.826,0.467-1.126l15.674-15.648l2.26,2.256L14.309,85.95C13.705,86.553,12.651,86.555,12.045,85.95z M71.415,30.878c0-0.879,0.718-1.595,1.601-1.595c0.882,0,1.601,0.716,1.601,1.595c0,0.879-0.719,1.596-1.601,1.596c-0.338,0-0.651-0.106-0.909-0.285c-0.2-0.289-0.405-0.574-0.617-0.853C71.446,31.19,71.415,31.038,71.415,30.878z M79.92,34.87c-1.434,0-2.647-0.189-3.665-0.46c0.959-0.878,1.564-2.134,1.564-3.532c0-2.646-2.154-4.798-4.803-4.798c-1.75,0-3.279,0.942-4.118,2.341c-1.546-1.482-3.276-2.762-5.155-3.801c0.019-0.267,0.033-0.541,0.033-0.836c0-0.803-0.071-1.577-0.199-2.328c3.276,1.687,7.491,2.662,12.07,0.703c6.647-2.843,9.595-2.414,10.902-1.554c1.263,0.834,1.877,2.691,1.877,5.677C88.426,31.339,84.928,34.87,79.92,34.87z M61.415,30.696c-0.454-0.283-0.922-0.546-1.401-0.79c-0.474-0.241-0.96-0.462-1.457-0.663c-2.124-0.856-4.441-1.332-6.868-1.332c-3.555,0-6.877,1.014-9.694,2.764c-0.479,0.297-0.943,0.614-1.391,0.952c-0.483,0.365-0.947,0.753-1.39,1.163c-3.648,3.361-5.938,8.171-5.938,13.506c0,4.462,1.614,8.745,4.547,12.068c0.099,0.124,0.213,0.252,0.343,0.393c0.76,0.827,1.595,1.571,2.483,2.237c0.466,0.349,0.947,0.676,1.443,0.979c0.477,0.292,0.966,0.564,1.469,0.81c2.504,1.232,5.284,1.898,8.128,1.898c1.711,0,3.397-0.245,5.016-0.705c0.517-0.146,1.027-0.311,1.528-0.502c0.508-0.194,1.007-0.413,1.496-0.651c2.051-0.996,3.921-2.369,5.492-4.078c0.112-0.122,0.229-0.252,0.333-0.382c2.933-3.323,4.547-7.607,4.547-12.068C70.101,39.723,66.625,33.947,61.415,30.696z M63.052,56.36c-0.057,0.074-0.127,0.147-0.201,0.228c-1.086,1.181-2.347,2.169-3.727,2.941c-0.49,0.274-0.996,0.52-1.514,0.739c-0.501,0.212-1.014,0.397-1.535,0.554c-1.411,0.426-2.888,0.653-4.387,0.653c-2.68,0-5.291-0.714-7.576-2.028c-0.525-0.302-1.032-0.638-1.519-1.002c-0.545-0.407-1.066-0.848-1.555-1.329c-0.181-0.178-0.359-0.36-0.531-0.548c-0.061-0.067-0.128-0.136-0.183-0.207c-0.023-0.03-0.047-0.059-0.071-0.087c-2.432-2.741-3.772-6.284-3.772-9.977c0-3.07,0.92-5.928,2.496-8.319c0.584-0.885,1.256-1.707,2.006-2.451c0.496-0.491,1.025-0.949,1.585-1.368c2.543-1.908,5.701-3.04,9.121-3.04c2.105,0,4.112,0.43,5.937,1.205c0.518,0.22,1.02,0.471,1.506,0.745c0.524,0.295,1.03,0.619,1.514,0.973c3.786,2.763,6.251,7.227,6.251,12.256c0,3.693-1.34,7.236-3.772,9.977C63.099,56.301,63.075,56.33,63.052,56.36z M57.971,39.076c-0.724-2.74-3.219-4.769-6.187-4.769c-3.531,0-6.404,2.869-6.404,6.396c0,2.973,2.046,5.472,4.803,6.185v3.402h-1.601c-0.884,0-1.601,0.717-1.601,1.601c0,0.884,0.717,1.601,1.601,1.601h1.601v3.193c0,0.884,0.717,1.601,1.601,1.601c0.885,0,1.601-0.717,1.601-1.601v-3.193h1.601c0.884,0,1.601-0.717,1.601-1.601c0-0.884-0.717-1.601-1.601-1.601h-1.601v-3.402c2.758-0.713,4.803-3.211,4.803-6.185c0-0.145-0.012-0.288-0.022-0.43C58.139,39.861,58.073,39.462,57.971,39.076z M51.785,37.509c1.766,0,3.202,1.433,3.202,3.194c0,1.76-1.436,3.193-3.202,3.193c-1.766,0-3.202-1.433-3.202-3.193C48.583,38.941,50.019,37.509,51.785,37.509z"></path>
</svg>
