<svg width="56" height="56" viewBox="0 0 56 56" fill="none" xmlns="http://www.w3.org/2000/svg">
<rect x="27.5762" width="39" height="39" rx="7.69" transform="rotate(45 27.5762 0)" fill="#FFD7D7"/>
<path d="M31.4492 17.9355C33.2937 18.0219 34.5796 18.7192 35.3477 20.0742C36.0372 21.2904 36.1861 22.8003 36.3291 24.2334C36.402 24.9624 36.4716 25.6631 36.6104 26.2549C36.7496 26.8486 36.9549 27.3137 37.2822 27.5889L37.5693 27.8301L37.6562 27.9033L37.5732 27.9805L37.2979 28.2354C37.249 28.2804 36.8868 28.593 35.9375 28.8926C35.6032 28.9973 35.2384 29.0871 34.8457 29.1641C34.9717 29.2178 35.11 29.2735 35.2617 29.3311V29.332C35.6031 29.4624 35.8341 29.6306 36.4346 29.8184L36.7168 29.9004L36.7188 29.9014L36.7754 29.917L36.7783 29.918V29.9189C37.5666 30.1786 38.0976 30.9095 38.0977 31.7354V34.0107H24.0488V31.7354C24.0488 30.9095 24.58 30.1786 25.3682 29.9189L25.3711 29.918L25.4268 29.9014L25.4297 29.9004C26.248 29.6801 26.4938 29.481 26.8838 29.332L26.8848 29.3311C27.0361 29.2736 27.1739 29.2176 27.2998 29.1641C26.9073 29.0871 26.5431 28.9972 26.209 28.8926C25.2599 28.5931 24.8974 28.2799 24.8486 28.2344L24.5732 27.9805L24.4902 27.9033L24.5771 27.8301L24.8643 27.5889C25.1916 27.3137 25.3958 26.8485 25.5352 26.2549C25.674 25.6631 25.7437 24.9624 25.8164 24.2334C25.9594 22.8003 26.1093 21.2904 26.7988 20.0742C27.6186 18.6291 29.0269 17.9322 31.0723 17.9268L31.4492 17.9355ZM32.8047 28.7051C32.2119 29.1237 31.5995 29.3779 31.0732 29.3779C30.5464 29.3779 29.9338 29.124 29.3408 28.7051C29.335 28.7182 29.3281 28.7355 29.3184 28.7549L29.3174 28.7559C29.1478 29.0856 28.7936 29.3606 28.4033 29.585C28.1082 29.7546 27.7831 29.9004 27.4824 30.0225L27.1914 30.1367C27.1066 30.1688 27.019 30.2105 26.9111 30.2617C26.6339 30.3947 26.2869 30.5606 25.6602 30.7295L25.6279 30.7383L25.6289 30.7393C25.1981 30.8865 24.9102 31.2862 24.9102 31.7354V33.1484H37.2354V31.7354C37.2354 31.2863 36.948 30.8866 36.5176 30.7393V30.7383L36.4854 30.7305V30.7295C36.0159 30.6029 35.703 30.4787 35.459 30.3682L35.2344 30.2627C35.1265 30.2115 35.0391 30.1689 34.9551 30.1367C34.583 29.9952 34.136 29.8114 33.7422 29.585C33.3516 29.3603 32.9975 29.0847 32.8281 28.7549L32.8271 28.7539C32.8177 28.735 32.8101 28.7177 32.8047 28.7051ZM31.627 21.7559L31.626 21.7549C30.8508 22.4568 30.0536 23.0198 29.2539 23.4248C28.6928 23.7089 28.1291 23.9144 27.5693 24.043C27.5957 25.0797 28.0751 26.2093 28.9033 27.1533L29.1914 27.459C29.4862 27.75 29.7991 27.9964 30.1104 28.1807C30.4828 28.4023 30.8247 28.5166 31.0732 28.5166C31.3218 28.5166 31.6637 28.4023 32.0361 28.1807C32.4512 27.9348 32.8689 27.5791 33.2432 27.1533L33.3984 26.9688C34.1534 26.0362 34.5791 24.9481 34.5791 23.9531C34.5791 23.5831 34.5386 23.2293 34.4619 22.8945C33.2999 22.5809 32.3413 21.9695 31.8145 21.5811C31.753 21.6388 31.6912 21.6978 31.627 21.7559ZM26.6885 24.1797C26.6838 24.2261 26.6794 24.2729 26.6748 24.3193C26.6054 25.0155 26.5368 25.7019 26.4043 26.3174C26.2818 26.8865 26.1003 27.4021 25.8086 27.8154C25.9838 27.8984 26.2262 27.997 26.5508 28.0947C27.1403 28.2731 27.8026 28.3924 28.4688 28.4707C28.5097 28.4261 28.5345 28.3908 28.5488 28.3643L28.5508 28.0371C27.5843 27.068 26.7867 25.667 26.7129 24.1777C26.7047 24.1784 26.6966 24.179 26.6885 24.1797ZM35.4385 24.002C35.4216 25.5565 34.5987 27.0291 33.5947 28.0361L33.5967 28.3643C33.611 28.3908 33.6359 28.4261 33.6768 28.4707C34.3431 28.3924 35.0054 28.2731 35.5957 28.0947L35.8691 28.0068C36.0608 27.9399 36.2141 27.873 36.3359 27.8154C36.0446 27.4022 35.8645 26.8862 35.7422 26.3174C35.6098 25.7019 35.5411 25.0154 35.4717 24.3193C35.4611 24.2136 35.4493 24.1078 35.4385 24.002ZM30.7305 18.7969C29.9499 18.8348 29.2937 18.9979 28.7744 19.2783C28.2572 19.5576 27.8562 19.9555 27.5479 20.499C27.1003 21.2887 26.9098 22.2748 26.7842 23.3037C27.462 23.2265 28.1567 23.0126 28.8564 22.6592C29.584 22.2918 30.3183 21.7769 31.0381 21.127C31.9588 20.2949 32.6171 19.4508 32.8975 19.0703C32.3849 18.8869 31.7745 18.7899 31.0723 18.7881L30.7305 18.7969ZM33.6758 19.4678C33.5004 19.7142 33.0696 20.2904 32.4346 20.9619C33.0087 21.3677 34.0246 21.9742 35.1797 22.1689C35.0701 21.642 34.9238 21.1448 34.7051 20.7021L34.5977 20.499C34.353 20.0672 34.0486 19.729 33.6758 19.4678Z" fill="#DC2626" stroke="#DC2626" stroke-width="0.2"/>
<path d="M40.748 12H15.248C14.1213 12.0013 13.041 12.4494 12.2442 13.2462C11.4475 14.0429 10.9993 15.1232 10.998 16.25V35.375C10.9995 36.4097 11.3778 37.4084 12.0622 38.1843C12.7467 38.9602 13.6904 39.4601 14.7168 39.5906V44.9375H13.6543C12.9519 44.9375 12.951 46 13.6543 46H42.3418C43.0442 46 43.0451 44.9375 42.3418 44.9375H41.2793V39.5906C42.3057 39.4601 43.2494 38.9602 43.9339 38.1843C44.6183 37.4084 44.9966 36.4097 44.998 35.375V16.25C44.9968 15.1232 44.5486 14.0429 43.7519 13.2462C42.9551 12.4494 41.8748 12.0013 40.748 12ZM43.9355 35.375C43.9346 36.2201 43.5984 37.0303 43.0009 37.6278C42.4033 38.2254 41.5931 38.5615 40.748 38.5625H38.0918C37.3894 38.5625 37.3885 39.625 38.0918 39.625H40.2168V44.9375H15.7793V39.625H33.8418C34.5442 39.625 34.5451 38.5625 33.8418 38.5625H15.248C14.403 38.5615 13.5928 38.2254 12.9952 37.6278C12.3976 37.0303 12.0615 36.2201 12.0605 35.375V16.25C12.0615 15.4049 12.3976 14.5947 12.9952 13.9972C13.5928 13.3996 14.403 13.0635 15.248 13.0625H40.748C41.5931 13.0635 42.4033 13.3996 43.0009 13.9972C43.5984 14.5947 43.9346 15.4049 43.9355 16.25V35.375Z" fill="black"/>
<path d="M40.748 14.125H21.623C20.9206 14.125 20.9197 15.1875 21.623 15.1875H40.748C41.0297 15.1878 41.2998 15.2999 41.499 15.4991C41.6982 15.6983 41.8102 15.9683 41.8105 16.25V35.375C41.8102 35.6567 41.6982 35.9267 41.499 36.1259C41.2998 36.3251 41.0297 36.4372 40.748 36.4375H15.248C14.9664 36.4372 14.6963 36.3251 14.4971 36.1259C14.2979 35.9267 14.1859 35.6567 14.1855 35.375V16.25C14.1859 15.9683 14.2979 15.6983 14.4971 15.4991C14.6963 15.2999 14.9664 15.1878 15.248 15.1875H17.373C18.0755 15.1875 18.0764 14.125 17.373 14.125H15.248C14.6847 14.1256 14.1445 14.3497 13.7461 14.7481C13.3478 15.1465 13.1237 15.6866 13.123 16.25V35.375C13.1237 35.9384 13.3478 36.4785 13.7461 36.8769C14.1445 37.2753 14.6847 37.4994 15.248 37.5H40.748C41.3114 37.4994 41.8516 37.2753 42.2499 36.8769C42.6483 36.4785 42.8724 35.9384 42.873 35.375V16.25C42.8724 15.6866 42.6483 15.1465 42.2499 14.7481C41.8516 14.3497 41.3114 14.1256 40.748 14.125Z" fill="black"/>
<path d="M18.4355 40.6875C18.1203 40.6875 17.8122 40.781 17.5501 40.9561C17.288 41.1312 17.0837 41.3801 16.9631 41.6713C16.8425 41.9626 16.8109 42.283 16.8724 42.5922C16.9339 42.9013 17.0857 43.1853 17.3086 43.4082C17.5315 43.6311 17.8155 43.7829 18.1246 43.8444C18.4338 43.9059 18.7542 43.8743 19.0454 43.7537C19.3367 43.6331 19.5856 43.4288 19.7607 43.1667C19.9358 42.9046 20.0293 42.5965 20.0293 42.2813C20.0288 41.8587 19.8607 41.4536 19.562 41.1548C19.2632 40.8561 18.8581 40.688 18.4355 40.6875ZM17.9043 42.2813C17.9043 42.1404 17.9603 42.0052 18.0599 41.9056C18.1595 41.806 18.2947 41.75 18.4355 41.75C18.5764 41.75 18.7116 41.806 18.8112 41.9056C18.9108 42.0052 18.9668 42.1404 18.9668 42.2813C18.9668 42.9844 17.9043 42.9835 17.9043 42.2813Z" fill="black"/>
<path d="M22.6855 40.6875C22.3703 40.6875 22.0622 40.781 21.8001 40.9561C21.538 41.1312 21.3337 41.3801 21.2131 41.6713C21.0925 41.9626 21.0609 42.283 21.1224 42.5922C21.1839 42.9013 21.3357 43.1853 21.5586 43.4082C21.7815 43.6311 22.0655 43.7829 22.3746 43.8444C22.6838 43.9059 23.0042 43.8743 23.2954 43.7537C23.5867 43.6331 23.8356 43.4288 24.0107 43.1667C24.1858 42.9046 24.2793 42.5965 24.2793 42.2813C24.2788 41.8587 24.1107 41.4536 23.812 41.1548C23.5132 40.8561 23.1081 40.688 22.6855 40.6875ZM22.1543 42.2813C22.1543 42.1404 22.2103 42.0052 22.3099 41.9056C22.4095 41.806 22.5447 41.75 22.6855 41.75C22.8264 41.75 22.9616 41.806 23.0612 41.9056C23.1608 42.0052 23.2168 42.1404 23.2168 42.2813C23.2168 42.9844 22.1543 42.9835 22.1543 42.2813Z" fill="black"/>
<path d="M26.9355 40.6875C26.6203 40.6875 26.3122 40.781 26.0501 40.9561C25.788 41.1312 25.5837 41.3801 25.4631 41.6713C25.3425 41.9626 25.3109 42.283 25.3724 42.5922C25.4339 42.9013 25.5857 43.1853 25.8086 43.4082C26.0315 43.6311 26.3155 43.7829 26.6246 43.8444C26.9338 43.9059 27.2542 43.8743 27.5454 43.7537C27.8367 43.6331 28.0856 43.4288 28.2607 43.1667C28.4358 42.9046 28.5293 42.5965 28.5293 42.2813C28.5288 41.8587 28.3607 41.4536 28.062 41.1548C27.7632 40.8561 27.3581 40.688 26.9355 40.6875ZM26.4043 42.2813C26.4043 42.1404 26.4603 42.0052 26.5599 41.9056C26.6595 41.806 26.7947 41.75 26.9355 41.75C27.0764 41.75 27.2116 41.806 27.3112 41.9056C27.4108 42.0052 27.4668 42.1404 27.4668 42.2813C27.4668 42.9844 26.4043 42.9835 26.4043 42.2813Z" fill="black"/>
<path d="M30.6561 42.8125H38.0936C38.796 42.8125 38.7969 41.75 38.0936 41.75H30.6561C29.9536 41.75 29.9528 42.8125 30.6561 42.8125Z" fill="black"/>
<path d="M17.9045 18.375C17.7636 18.375 17.6285 18.431 17.5288 18.5306C17.4292 18.6302 17.3732 18.7654 17.3732 18.9062V28.4695C15.3315 30.0054 16.4335 33.25 18.967 33.25C21.5021 33.25 22.6016 30.0047 20.5607 28.4695V18.9062C20.5607 18.7654 20.5048 18.6302 20.4051 18.5306C20.3055 18.431 20.1704 18.375 20.0295 18.375H17.9045ZM18.967 32.1875C17.3496 32.1875 16.7575 30.0312 18.1706 29.2136C18.6749 28.9214 18.3366 28.9163 18.4357 19.4375H19.4982C19.5969 28.8907 19.2595 28.922 19.7634 29.2136C21.1745 30.03 20.5873 32.1875 18.967 32.1875Z" fill="#DC2626"/>
<path d="M16.3105 21.0311C16.3105 20.3287 15.248 20.3277 15.248 21.0311C15.248 21.7344 16.3105 21.7344 16.3105 21.0311Z" fill="black"/>
<path d="M16.3105 23.1561C16.3105 22.4537 15.248 22.4527 15.248 23.1561C15.248 23.8584 16.3105 23.8594 16.3105 23.1561Z" fill="black"/>
<path d="M16.3105 25.2811C16.3105 24.5787 15.248 24.5777 15.248 25.2811C15.248 25.9834 16.3105 25.9844 16.3105 25.2811Z" fill="black"/>
<path d="M16.3105 27.4061C16.3105 26.7037 15.248 26.7027 15.248 27.4061C15.248 28.1084 16.3105 28.1094 16.3105 27.4061Z" fill="black"/>
<path d="M18.4355 30.5939C18.4355 31.2963 19.498 31.2973 19.498 30.5939C19.498 29.8906 18.4355 29.8906 18.4355 30.5939Z" fill="#DC2626"/>
<path d="M19.4998 15.1875C20.2022 15.1875 20.2032 14.125 19.4998 14.125C18.7974 14.125 18.7964 15.1875 19.4998 15.1875Z" fill="black"/>
<path d="M35.9686 38.5625C35.2662 38.5625 35.2652 39.625 35.9686 39.625C36.6719 39.625 36.6719 38.5625 35.9686 38.5625Z" fill="black"/>
</svg>
