<svg width="512" height="512" viewBox="0 0 512 512" fill="none" xmlns="http://www.w3.org/2000/svg">
<path d="M332.5 374.7V391C332.5 406.4 319.9 419 304.5 419H88C72.6 419 60 406.4 60 391V58C60 42.6 72.6 30 88 30H304.5C319.9 30 332.5 42.6 332.5 58V74.8C337.1 74.4 341.8 74.1 346.5 74.1C351.8 74.1 357.2 74.4 362.5 74.9V58C362.5 26 336.5 0 304.5 0H88C56 0 30 26 30 58V454C30 486 56 512 88 512H304.5C336.5 512 362.5 486 362.5 454V374.5C357.2 375.1 351.8 375.4 346.5 375.4C341.7 375.4 337.1 375.1 332.5 374.7ZM219.4 482H173C163.8 481.8 156.6 474.2 156.8 465C157 456.2 164.1 449 173 448.8H219.5C228.7 448.6 236.3 455.8 236.5 465C236.7 474.2 229.5 481.8 220.3 482C220 482 219.7 482 219.4 482Z" fill="#DC2626"/>
<path d="M346.5 89.2002C271.6 89.2002 210.9 149.9 210.9 224.8C210.9 299.7 271.6 360.4 346.5 360.4C421.4 360.4 482 299.6 482 224.8C482 149.9 421.3 89.2002 346.5 89.2002ZM423.5 205.8L343.3 286C333.7 295.6 318.2 295.6 308.7 286L264.5 241.8C255.1 232.1 255.3 216.6 265 207.2C274.5 197.9 289.7 197.9 299.2 207.2L326 234L388.8 171.1C398.4 161.5 413.9 161.5 423.5 171.1C433 180.7 433 196.2 423.5 205.8Z" fill="black"/>
</svg>
