<svg xmlns="http://www.w3.org/2000/svg" viewBox="0 0 24 24" id="HealthCare">
  <g fill-rule="evenodd" fill="#000000" class="color000000 svgShape">
    <path d="M15.823 17.655a.5.5 0 0 1 .558-.226l5.456 1.455a.5.5 0 0 1 .37.483v2.183a.5.5 0 0 1-.5.5H15.16a.5.5 0 0 1-.5-.5c0-1.28.348-2.537 1.007-3.636l.156-.259zm.664.838a6.066 6.066 0 0 0-.806 2.557h5.527V19.75l-4.72-1.258zm-7.85-.838a.5.5 0 0 0-.558-.226l-5.456 1.455a.5.5 0 0 0-.371.483v2.183a.5.5 0 0 0 .5.5h6.547a.5.5 0 0 0 .5-.5c0-1.28-.348-2.537-1.007-3.636l-.155-.259zm-.665.838c.457.783.732 1.657.806 2.557H3.252V19.75l4.72-1.258z" fill="#000000" class="color000000 svgShape"></path>
    <path d="M4.484 6.507a.5.5 0 0 1 .44.14l.124.123-.309.31.309-.31c.95.95 1.263 2.363.804 3.625-.117.32-.215.647-.296.977a1.595 1.595 0 0 1 1.61 1.348l.808 5.114a.5.5 0 0 1-.988.156l-.807-5.114a.596.596 0 0 0-.816-.458 9.352 9.352 0 0 0-.002 2.333l.07.553a.5.5 0 0 1-.993.124l-.07-.553a10.352 10.352 0 0 1 .544-4.822c.261-.717.17-1.503-.221-2.134L3.024 11.46a5.5 5.5 0 0 0-.36 3.676l.936 3.745a.5.5 0 0 1-.97.243l-.936-3.745a6.5 6.5 0 0 1 .425-4.344l.449.211-.45-.211 2-4.249a.5.5 0 0 1 .366-.28zm15.491 0a.5.5 0 0 1 .367.28l1.999 4.249a6.5 6.5 0 0 1 .424 4.344l-.936 3.745a.5.5 0 0 1-.97-.243l.936-3.745a5.5 5.5 0 0 0-.36-3.676L19.77 7.92a2.456 2.456 0 0 0-.222 2.134c.56 1.542.747 3.194.544 4.822l-.07.553a.5.5 0 1 1-.992-.124l.07-.553a9.347 9.347 0 0 0-.002-2.333.596.596 0 0 0-.816.458l-.808 5.114a.5.5 0 0 1-.988-.156l.808-5.114a1.595 1.595 0 0 1 1.61-1.348c-.08-.33-.179-.656-.295-.977a3.456 3.456 0 0 1 .804-3.625l.309.31-.31-.31.125-.124a.5.5 0 0 1 .439-.139zM10.3 3a.5.5 0 0 1 .5-.5h2.4a.5.5 0 0 1 .5.5v2.3H16a.5.5 0 0 1 .5.5v2.4a.5.5 0 0 1-.5.5h-2.3V11a.5.5 0 0 1-.5.5h-2.4a.5.5 0 0 1-.5-.5V8.7H8a.5.5 0 0 1-.5-.5V5.8a.5.5 0 0 1 .5-.5h2.3V3zm1 .5v2.3a.5.5 0 0 1-.5.5H8.5v1.4h2.3a.5.5 0 0 1 .5.5v2.3h1.4V8.2a.5.5 0 0 1 .5-.5h2.3V6.3h-2.3a.5.5 0 0 1-.5-.5V3.5h-1.4z" fill="#000000" class="color000000 svgShape"></path>
  </g>
</svg>
