<svg width="164" height="164" viewBox="0 0 164 164" fill="none" xmlns="http://www.w3.org/2000/svg">
<g clip-path="url(#clip0_219_366)">
<path fill-rule="evenodd" clip-rule="evenodd" d="M151.649 124.103H12.0936C5.4709 124.103 0 118.632 0 111.913V23.7068C0 17.0842 5.4709 11.6133 12.0936 11.6133H151.649C158.368 11.6133 163.839 17.0842 163.839 23.7068V111.913C163.839 118.632 158.368 124.103 151.649 124.103ZM12.0936 16.1244C7.87042 16.1244 4.51109 19.4837 4.51109 23.7068V111.913C4.51109 116.136 7.87042 119.592 12.0936 119.592H151.649C155.873 119.592 159.328 116.136 159.328 111.913V23.7068C159.328 19.4837 155.873 16.1244 151.649 16.1244H12.0936Z" fill="#000002"/>
<path fill-rule="evenodd" clip-rule="evenodd" d="M151.649 124.102H12.0936C5.4709 124.102 0 118.631 0 111.912V101.258C0 100.011 1.05579 99.0508 2.20756 99.0508H161.535C162.783 99.0508 163.839 100.011 163.839 101.258V111.912C163.839 118.631 158.368 124.102 151.649 124.102ZM4.51109 103.562V111.912C4.51109 116.135 7.87042 119.591 12.0936 119.591H151.649C155.873 119.591 159.328 116.135 159.328 111.912V103.562H4.51109Z" fill="#000002"/>
<path fill-rule="evenodd" clip-rule="evenodd" d="M104.137 138.502H59.6981C58.4503 138.502 57.3945 137.542 57.3945 136.294V121.801C57.3945 120.554 58.4503 119.594 59.6981 119.594H104.137C105.385 119.594 106.345 120.554 106.345 121.801V136.294C106.345 137.542 105.385 138.502 104.137 138.502ZM61.9056 134.087H101.93V124.105H61.9056V134.087Z" fill="#000002"/>
<path fill-rule="evenodd" clip-rule="evenodd" d="M115.944 152.225H47.8936C46.6458 152.225 45.59 151.169 45.59 149.921V143.106C45.59 138.115 49.7172 134.084 54.7082 134.084H109.129C114.12 134.084 118.151 138.115 118.151 143.106V149.921C118.151 151.169 117.192 152.225 115.944 152.225ZM50.1011 147.714H113.736V143.106C113.736 140.611 111.625 138.499 109.129 138.499H54.7082C52.2127 138.499 50.1011 140.611 50.1011 143.106V147.714ZM125.446 57.5877H110.089C109.417 57.5877 108.745 57.2997 108.361 56.8198C107.881 56.2439 107.786 55.5721 107.881 54.9962C107.881 54.8042 107.881 54.6123 107.881 54.4203C107.786 53.6525 107.306 53.1726 106.634 52.9806L87.5336 47.8936C86.6698 47.6057 85.71 48.1816 85.422 49.0454L83.5984 55.956C83.3104 56.9158 82.4466 57.5877 81.4868 57.5877H38.3915C29.2733 57.5877 21.8828 50.1972 21.8828 41.079C21.8828 31.9608 29.2733 24.5703 38.3915 24.5703H125.446C134.564 24.5703 141.955 31.9608 141.955 41.079C141.955 50.1972 134.564 57.5877 125.446 57.5877ZM112.201 53.0766H125.446C132.069 53.0766 137.444 47.7017 137.444 41.079C137.444 34.4563 132.069 29.0814 125.446 29.0814H38.3915C31.7688 29.0814 26.3939 34.4563 26.3939 41.079C26.3939 47.7017 31.7688 53.0766 38.3915 53.0766H79.7592L81.1029 47.8936C81.8707 45.2062 84.2702 43.3825 87.1497 43.3825C87.6296 43.3825 88.2055 43.3825 88.6854 43.5745L107.786 48.6615C109.993 49.2373 111.625 50.965 112.201 53.0766Z" fill="#DC2626"/>
<path fill-rule="evenodd" clip-rule="evenodd" d="M105.964 90.6053C102.988 90.6053 100.109 88.9736 98.6691 86.3822L89.9348 71.2172L85.0398 74.0006C82.9282 75.2484 80.2408 75.0564 78.2252 73.5207C76.2096 71.9851 75.3458 69.4896 76.0176 66.9941L81.1046 47.8939C81.8724 45.2064 84.272 43.3828 87.0554 43.3828C87.6313 43.3828 88.2072 43.3828 88.6871 43.5748L107.787 48.6617C110.187 49.3336 112.01 51.3492 112.298 53.8447C112.586 56.3402 111.434 58.7397 109.227 59.9875L104.428 62.7709L113.258 77.9359C114.314 79.8555 114.602 82.159 114.026 84.3666C113.45 86.4781 112.106 88.3018 110.187 89.4535C108.843 90.2214 107.403 90.6053 105.964 90.6053ZM90.7027 65.8423C90.8946 65.8423 91.0866 65.9383 91.2785 65.9383C91.8544 66.1302 92.3343 66.5142 92.6223 66.9941L102.508 84.0786C103.276 85.3264 104.524 86.0942 105.964 86.0942C106.635 86.0942 107.307 85.9022 107.883 85.5183C108.843 85.0384 109.419 84.1746 109.707 83.2148C109.995 82.159 109.899 81.1032 109.323 80.2394L99.4369 63.0588C99.149 62.5789 99.053 61.9071 99.2449 61.3312C99.3409 60.7553 99.7248 60.2754 100.301 59.9875L107.019 56.1482C107.691 55.7643 107.979 55.0925 107.883 54.4206C107.787 53.6527 107.307 53.1728 106.635 52.9809L87.5353 47.8939C86.6715 47.606 85.7117 48.1818 85.4237 49.0457L80.3367 68.1458C80.1448 68.8177 80.3367 69.4896 80.9126 69.9695C81.4885 70.3534 82.2564 70.4494 82.8322 70.0654L89.5509 66.2262C89.9348 65.9383 90.3187 65.8423 90.7027 65.8423Z" fill="#DC2626"/>
<path fill-rule="evenodd" clip-rule="evenodd" d="M94.4443 113.831H69.3934C68.1456 113.831 67.0898 112.776 67.0898 111.528C67.0898 110.28 68.1456 109.32 69.3934 109.32H94.4443C95.6921 109.32 96.6519 110.28 96.6519 111.528C96.6519 112.776 95.6921 113.831 94.4443 113.831Z" fill="#DC2626"/>
</g>
<defs>
<clipPath id="clip0_219_366">
<rect width="163.839" height="163.839" fill="white"/>
</clipPath>
</defs>
</svg>
