<?xml version="1.0" encoding="UTF-8"?>
<svg xmlns="http://www.w3.org/2000/svg" xmlns:xlink="http://www.w3.org/1999/xlink" version="1.1" id="Capa_1" x="0px" y="0px" viewBox="0 0 512 512" style="enable-background:new 0 0 512 512;" xml:space="preserve" width="512" height="512">
<g>
	<g>
		
			<circle style="fill-rule:evenodd;clip-rule:evenodd;fill:none;stroke:#000000;stroke-width:20;stroke-linecap:round;stroke-linejoin:round;stroke-miterlimit:22.9256;" cx="60" cy="278.688" r="49.5"/>
		
			<path style="fill-rule:evenodd;clip-rule:evenodd;fill:none;stroke:#000000;stroke-width:20;stroke-linecap:round;stroke-linejoin:round;stroke-miterlimit:22.9256;" d="&#10;&#9;&#9;&#9;M60,381.447V406c0,13.75,11.25,25,25,25H427c13.75,0,25-11.25,25-25v-24.553 M155.17,430.999&#10;&#9;&#9;&#9;c13.672-0.092,24.829-11.306,24.829-24.999c0-13.75-11.252-25-25-25h-45v-1.813c0-27.498-22.5-50-50-50c-27.5,0-50,22.502-50,50&#10;&#9;&#9;&#9;v106.812c164,0,328,0,492,0V379.187c0-27.5-22.5-50-50-50c-27.5,0-50,22.504-50,50V381h-45c-13.761,0-25,11.263-25,25&#10;&#9;&#9;&#9;c0,13.635,11.062,24.811,24.655,24.998"/>
		
			<ellipse transform="matrix(0.0566 -0.9984 0.9984 0.0566 148.1901 714.199)" style="fill-rule:evenodd;clip-rule:evenodd;fill:none;stroke:#000000;stroke-width:20;stroke-linecap:round;stroke-linejoin:round;stroke-miterlimit:22.9256;" cx="452" cy="278.687" rx="49.5" ry="49.5"/>
		
			<path style="fill-rule:evenodd;clip-rule:evenodd;fill:none;stroke:#000000;stroke-width:20;stroke-linecap:round;stroke-linejoin:round;stroke-miterlimit:22.9256;" d="&#10;&#9;&#9;&#9;M239.905,26.992c5.01-0.652,10.117-0.991,15.305-0.991c64.893,0,117.5,52.606,117.5,117.5c0,25.751-8.289,49.564-22.339,68.925&#10;&#9;&#9;&#9;l9.222,35.675l-34.984-9.785C305.162,252.574,281.172,261,255.21,261c-26.574,0-51.084-8.826-70.768-23.7l-38.615,10.8&#10;&#9;&#9;&#9;l10.591-40.97c-11.837-18.337-18.707-40.181-18.707-63.63c0-26.904,9.048-51.691,24.26-71.497"/>
		
			<path style="fill-rule:evenodd;clip-rule:evenodd;fill:none;stroke:#000000;stroke-width:20;stroke-linecap:round;stroke-linejoin:round;stroke-miterlimit:2.6131;" d="&#10;&#9;&#9;&#9;M402,435.999v45 M110,480.999v-45"/>
		
			<polygon style="fill-rule:evenodd;clip-rule:evenodd;fill:none;stroke:#000000;stroke-width:20;stroke-linecap:round;stroke-linejoin:round;stroke-miterlimit:2.6131;" points="&#10;&#9;&#9;&#9;235.21,73.501 275.21,73.501 275.21,123.5 325.21,123.5 325.21,163.5 275.21,163.5 275.21,213.5 235.21,213.5 235.21,163.5 &#10;&#9;&#9;&#9;185.21,163.5 185.21,123.5 235.21,123.5 &#9;&#9;"/>
		
			<line style="fill-rule:evenodd;clip-rule:evenodd;fill:none;stroke:#000000;stroke-width:20;stroke-linecap:round;stroke-linejoin:round;stroke-miterlimit:2.6131;" x1="196.46" y1="41.743" x2="196.464" y2="41.749"/>
	</g>
</g>















</svg>
