<svg width="64" height="64" viewBox="0 0 64 64" fill="none" xmlns="http://www.w3.org/2000/svg">
<path d="M53.9998 26H51.9998V24C51.9998 22.897 51.1028 22 49.9998 22H47.9998C46.8968 22 45.9998 22.897 45.9998 24V26H43.9998C42.8968 26 41.9998 26.897 41.9998 28V30C41.9998 31.1026 42.8968 32 43.9998 32H45.9998V34C45.9998 35.1026 46.8968 36 47.9998 36H49.9998C51.1028 36 51.9998 35.1026 51.9998 34V32H53.9998C55.1028 32 55.9998 31.1026 55.9998 30V28C55.9998 26.897 55.1028 26 53.9998 26ZM53.9998 30C49.3878 30.0303 50.034 29.4022 49.9998 34H47.9998C47.9696 29.388 48.5974 30.0342 43.9998 30V28C48.6115 27.9698 47.9657 28.5974 47.9998 24H49.9998C50.03 28.6118 49.4024 27.9659 53.9998 28V30ZM9.60427 11.7964C10.2913 11.2754 11.1194 11 11.9998 11H51.9998C54.2054 11 55.9998 12.7945 55.9998 15V16C56.0121 17.3085 57.9828 17.3165 57.9998 16C58.3886 12.3467 55.7742 8.99038 51.9997 9.00002C51.9998 9.00002 11.9998 9.00002 11.9998 9.00002C10.679 9.00002 9.43289 9.41604 8.39529 10.2036C7.37216 10.9972 8.54519 12.5844 9.60427 11.7964ZM42.1599 42C42.1599 41.4473 41.7122 41 41.1599 41H7.99978C7.97769 39.686 6.02187 39.6852 5.99978 41V43C5.99978 44.5376 6.58596 45.9372 7.54025 47H5.99978C0.726282 47.1623 0.703522 54.83 5.9999 55C5.99978 55 57.9998 55 57.9998 55C63.268 54.8401 63.3007 47.1714 57.9998 47H56.4593C57.4136 45.9372 57.9998 44.5376 57.9998 43V42C57.9998 41.4473 57.552 41 56.9998 41C56.4475 41 55.9998 41.4473 55.9998 42V43C55.9998 45.2061 54.2054 47 51.9998 47H11.9998C9.79421 47 7.99978 45.2061 7.99978 43H41.1599C41.7122 43 42.1599 42.5528 42.1599 42ZM38.7312 49C38.385 49.5977 37.7386 50 36.9998 50H26.9998C26.261 50 25.6145 49.5977 25.2683 49H38.7312ZM23.1418 49C23.589 50.7205 25.1414 52 26.9998 52H36.9998C38.8581 52 40.4106 50.7205 40.8578 49H57.9998C60.6357 49.0685 60.6375 52.9311 57.9998 53H5.99978C3.37612 52.9359 3.35153 49.0713 5.99984 49C5.99978 49 23.1418 49 23.1418 49Z" fill="black"/>
<path d="M58 18H41C38.7944 18 37 19.7944 37 22V36C37 38.2061 38.7944 40 41 40H44.4404C44.4297 40.8613 44.0483 41.7109 43.4209 42.1563C43.082 42.3975 42.9272 42.8223 43.0327 43.2246C43.1932 43.9132 43.9327 44.0299 44.5362 43.9999C47.0797 44.0239 49.4626 42.3673 50.4546 40H58C60.2056 40 62 38.2061 62 36V22C62 19.7944 60.2056 18 58 18ZM60 36C60 37.1025 59.103 38 58 38H49.7637C49.3276 38 48.9424 38.2822 48.8106 38.6973C48.3757 40.0601 47.4252 41.1725 46.1289 41.6895C46.4703 40.6792 46.9024 38.1254 45.32 38C45.3198 38 41 38 41 38C39.897 38 39 37.1025 39 36V22C39 20.897 39.897 20 41 20H58C59.103 20 60 20.897 60 22V36ZM6 39H28C30.2056 39 32 37.2061 32 35V29C32 26.7944 30.2056 25 28 25H6C3.79443 25 2 26.7944 2 29V35C2 37.2061 3.79443 39 6 39ZM4 29C4 27.897 4.89697 27 6 27H28C29.103 27 30 27.897 30 29V35C30 36.1025 29.103 37 28 37H6C4.89697 37 4 36.1025 4 35V29Z" fill="#DC2626"/>
<path d="M7 31H27C28.3095 30.9795 28.3184 29.0226 26.9999 29H7C5.69196 29.0203 5.68054 30.9775 7 31ZM7 35H17C18.3115 34.9789 18.3168 33.0221 17 33H7C5.6886 33.0211 5.68323 34.9778 7 35ZM6 23H20C22.2056 23 24 21.2056 24 19V17C24 14.7944 22.2056 13 20 13H6C3.79443 13 2 14.7944 2 17V19C2 21.2056 3.79443 23 6 23ZM4 17C4 15.897 4.89697 15 6 15H20C21.103 15 22 15.897 22 17V19C22 20.103 21.103 21 20 21H6C4.89697 21 4 20.103 4 19V17Z" fill="black"/>
<path d="M7.00021 19H15.0002C16.3122 18.9784 16.3164 17.0224 15.0002 17H7.00021C5.68826 17.0216 5.68399 18.9775 7.00021 19Z" fill="#DC2626"/>
</svg>
