<svg xmlns="http://www.w3.org/2000/svg" viewBox="0 0 64 64" id="vaccine-delivery">
  <g>
    <path d="M12 31h1v1a1 1 0 002 0V31h1a1 1 0 000-2H15V28a1 1 0 00-2 0v1H12a1 1 0 000 2zM28 31h1v1a1 1 0 002 0V31h1a1 1 0 000-2H31V28a1 1 0 00-2 0v1H28a1 1 0 000 2z"></path>
    <path d="M61.16,32.44l-4.14-6.21A4.987,4.987,0,0,0,52.86,24H42V9a1,1,0,0,0-1-1H3A1,1,0,0,0,2,9V55a3.009,3.009,0,0,0,3,3h7.69a6.977,6.977,0,0,0,12.62,0H44.69a6.977,6.977,0,0,0,12.62,0H59a3.009,3.009,0,0,0,3-3V35.21A4.959,4.959,0,0,0,61.16,32.44ZM4,10H40V44H4Zm8.08,46H5a1,1,0,0,1-1-1V54h8.08a6.29,6.29,0,0,0,0,2ZM19,60a5,5,0,1,1,5-5A5,5,0,0,1,19,60Zm0-12a7,7,0,0,0-6.31,4H4V46H40v6H25.31A7,7,0,0,0,19,48Zm25.08,8H25.92a6.29,6.29,0,0,0,0-2H44.08a6.29,6.29,0,0,0,0,2ZM51,60a5,5,0,1,1,5-5A5,5,0,0,1,51,60Zm9-5a1,1,0,0,1-1,1H57.92a6.29,6.29,0,0,0,0-2H60Zm0-7H59a1,1,0,0,1,0-2h1Zm0-4H59a3,3,0,0,0,0,6h1v2H57.31a6.977,6.977,0,0,0-12.62,0H42V26h2V36a3.009,3.009,0,0,0,3,3H60Zm0-7H47a1,1,0,0,1-1-1V26h6.86a3,3,0,0,1,2.49,1.33l4.15,6.22a2.97,2.97,0,0,1,.5,1.66Z"></path>
    <path d="M17 19.1V18h1a1 1 0 001-1V14a1 1 0 00-1-1H10a1 1 0 00-1 1v3a1 1 0 001 1h1v1.1A5.009 5.009 0 007 24V38a3.009 3.009 0 003 3h8a3.009 3.009 0 003-3V24A5.009 5.009 0 0017 19.1zM11 15h6v1H11zm1 6a1 1 0 001-1V18h2v2a1 1 0 001 1 3.014 3.014 0 012.83 2H9.17A3.014 3.014 0 0112 21zm7 17a1 1 0 01-1 1H10a1 1 0 01-1-1V37H19zm0-3H9V25H19zM33 19.1V18h1a1 1 0 001-1V14a1 1 0 00-1-1H26a1 1 0 00-1 1v3a1 1 0 001 1h1v1.1A5.009 5.009 0 0023 24V38a3.009 3.009 0 003 3h8a3.009 3.009 0 003-3V24A5.009 5.009 0 0033 19.1zM27 15h6v1H27zm1 6a1 1 0 001-1V18h2v2a1 1 0 001 1 3.014 3.014 0 012.83 2H25.17A3.014 3.014 0 0128 21zm7 17a1 1 0 01-1 1H26a1 1 0 01-1-1V37H35zm0-3H25V25H35zM46 42h2a1 1 0 000-2H46a1 1 0 000 2zM51 52a3 3 0 103 3A3 3 0 0051 52zm0 4a1 1 0 111-1A1 1 0 0151 56zM19 52a3 3 0 103 3A3 3 0 0019 52zm0 4a1 1 0 111-1A1 1 0 0119 56z"></path>
  </g>
</svg>
