<svg xmlns="http://www.w3.org/2000/svg" viewBox="0 0 48 48" id="counselling">
  <path fill-rule="evenodd" d="M37.51,38.88l-.5,4c-.07,.55,.32,1.05,.87,1.12,.55,.07,1.05-.32,1.12-.87l.5-4c.07-.55-.32-1.05-.87-1.12-.55-.07-1.05,.32-1.12,.87h0Zm-29,.25l.5,4c.07,.55,.57,.94,1.12,.87,.55-.07,.94-.57,.87-1.12l-.5-4c-.07-.55-.57-.94-1.12-.87-.55,.07-.94,.57-.87,1.12h0Zm22.62-15.63c-.35,1.38-.95,4.26-.41,6.23,.16,.57,.61,1.16,1.21,1.65,.74,.61,1.72,1.1,2.27,1.36,0,0,.35,1.06,.61,1.82-1.99,1.38-3.89,4.29-3.8,8.47,.01,.55,.47,.99,1.02,.98,.55-.01,.99-.47,.98-1.02-.08-3.47,1.47-5.88,3.12-6.9,1.76,.48,3.31,.21,4.68-.68,.5,.82,1.2,2.35,1.2,4.6,0,1.52-.71,2.29-.71,2.29-.39,.39-.39,1.02,0,1.42,.39,.39,1.02,.39,1.42,0,0,0,1.29-1.22,1.29-3.71,0-3.48-1.38-5.6-2-6.37v-4.11c.75-.63,2-2.18,2-5.52,0-2.36-1.28-7-6-7-2.61,0-4.83,.43-6.19,1.21-1.19,.69-1.81,1.64-1.81,2.79,0,1.21,.4,1.92,.93,2.36,.06,.05,.12,.1,.19,.14h0ZM6,31.82v1.81c-.62,.77-2,2.89-2,6.37,0,2.48,1.29,3.71,1.29,3.71,.39,.39,1.02,.39,1.42,0,.39-.39,.39-1.02,0-1.42,0,0-.71-.77-.71-2.29,0-2.25,.7-3.78,1.2-4.6,1.41,.91,3,1.17,4.81,.64,.41,.13,1.25,.45,1.95,1.03,.55,.45,1.04,1.07,1.04,1.93,0,.31-.26,.65-.51,.98-.52,.7-1.16,1.28-1.16,1.28-.21,.19-.33,.46-.33,.74v1c0,.55,.45,1,1,1s1-.45,1-1v-.57c.37-.37,.99-1.03,1.42-1.72,.36-.58,.58-1.19,.58-1.71,0-1.54-.79-2.68-1.78-3.48-.65-.53-1.39-.9-1.96-1.14l.55-1.65c.55-.26,1.52-.75,2.27-1.36,.61-.5,1.06-1.08,1.21-1.65,.54-1.97-.06-4.84-.41-6.23,.07-.04,.13-.09,.19-.14,.53-.44,.93-1.15,.93-2.36,0-1.14-.62-2.1-1.81-2.79-1.36-.78-3.57-1.21-6.19-1.21-4.72,0-6,4.64-6,7,0,2.54,.03,4.69,.49,6.02,.32,.92,.81,1.52,1.51,1.81h0Zm34-2.67c-.23-.73-1.33-4.07-2.71-5.44-.1-.1-.24-.13-.4-.15-.31-.04-.66-.02-1.02,.03-.93,.11-1.95,.34-2.81,.37-.32,1.15-.88,3.58-.42,5.25,.1,.35,.52,.64,.93,.91,.84,.57,1.81,.96,1.81,.96,.27,.11,.48,.33,.57,.61l.83,2.5c1.21,.28,2.28,.03,3.22-.66v-4.37h0Zm-25.06-5.2c-.87-.02-1.88-.26-2.81-.37-.37-.04-.71-.07-1.02-.03-.15,.02-.3,.05-.4,.15-.08,.08-.11,.19-.13,.32-.05,.26-.06,.56-.05,.89,.03,.82,.18,1.77,.22,2.66,.07,1.39-.16,2.65-.97,3.46-.41,.41-.98,.73-1.78,.88v1.61c.94,.69,2,.94,3.22,.66l.83-2.5c.09-.28,.3-.5,.57-.61,0,0,.96-.39,1.81-.96,.41-.28,.83-.56,.93-.91,.46-1.66-.1-4.1-.42-5.25h0Zm4.61,8.44l1,.5c.49,.25,1.1,.05,1.34-.45,.25-.49,.05-1.1-.45-1.34l-1-.5c-.49-.25-1.1-.05-1.34,.45-.25,.49-.05,1.1,.45,1.34h0Zm.45-2.39h2c.55,0,1-.45,1-1s-.45-1-1-1h-2c-.55,0-1,.45-1,1s.45,1,1,1h0Zm-4-9c0,.4-.03,.67-.2,.81-.12,.1-.28,.12-.46,.13-.33,.03-.7,0-1.08-.06-.98-.13-2.03-.36-2.91-.35-.84,.02-1.55,.25-2.06,.76-.49,.49-.74,1.24-.76,2.15-.03,.95,.17,2.13,.22,3.23,.03,.77,.06,1.5-.39,1.95-.27,.27-.71,.38-1.36,.38-.27,0-.43-.18-.54-.43-.1-.22-.17-.47-.23-.76-.24-1.2-.23-2.88-.23-4.8,0-1.64,.72-5,4-5,1.85,0,3.47,.22,4.63,.68,.79,.32,1.37,.69,1.37,1.32h0Zm4.45,6.39l1-.5c.49-.25,.69-.85,.45-1.34-.25-.49-.85-.69-1.34-.45l-1,.5c-.49,.25-.69,.85-.45,1.34,.25,.49,.85,.69,1.34,.45h0Zm11.55-6.39c0-.63,.58-1.01,1.37-1.32,1.16-.46,2.78-.68,4.63-.68,3.28,0,4,3.36,4,5,0,1.47-.3,2.45-.63,3.09-.59-1.51-1.57-3.69-2.67-4.79-.51-.5-1.22-.74-2.06-.76-.88-.02-1.93,.22-2.91,.35-.39,.05-.75,.09-1.08,.06-.18-.02-.34-.04-.46-.13-.18-.14-.2-.41-.2-.81h0Zm0-14c0-.8-.32-1.56-.88-2.12-.56-.56-1.33-.88-2.12-.88h-10c-.8,0-1.56,.32-2.12,.88-.56,.56-.88,1.33-.88,2.12V16c0,1.66,1.34,3,3,3h2.58l1.71,1.71c.39,.39,1.02,.39,1.42,0l1.71-1.71h2.58c1.66,0,3-1.34,3-3V7h0Zm-2,0V16c0,.55-.45,1-1,1h-3c-.27,0-.52,.11-.71,.29l-1.29,1.29-1.29-1.29c-.19-.19-.44-.29-.71-.29h-3c-.55,0-1-.45-1-1V7c0-.27,.11-.52,.29-.71,.19-.19,.44-.29,.71-.29h10c.27,0,.52,.11,.71,.29,.19,.19,.29,.44,.29,.71h0Zm-7,6v1c-.55,0-1,.45-1,1s.45,1,1,1h2c.55,0,1-.45,1-1s-.45-1-1-1v-1h0c.79,0,1.55-.32,2.12-.88,.56-.56,.88-1.32,.88-2.12v-1.01c.55,0,1-.45,1-1s-.45-1-1-1h-1c-.55,0-1,.45-1,1v2.01c0,.26-.1,.52-.29,.7s-.44,.29-.7,.29h0v-2c0-.55-.45-1-1-1s-1,.45-1,1v2h0c-.26,0-.52-.1-.7-.29-.19-.19-.29-.44-.29-.7v-2.01c0-.55-.45-1-1-1h-1c-.55,0-1,.45-1,1s.45,1,1,1v1.01c0,.79,.32,1.55,.88,2.12,.56,.56,1.32,.88,2.12,.88h0Z"></path>
</svg>
