<svg xmlns="http://www.w3.org/2000/svg" id="coverage" viewBox="0 0 64 64">
  <path d="M27 23c-.55 0-1 .45-1 1s.45 1 1 1h14c.55 0 1-.45 1-1s-.45-1-1-1h-14ZM41 29h-14c-.55 0-1 .45-1 1s.45 1 1 1h14c.55 0 1-.45 1-1s-.45-1-1-1ZM17 18h22c1.1 0 2-.9 2-2v-2c0-1.1-.9-2-2-2h-22c-1.1 0-2 .9-2 2v2c0 1.1.9 2 2 2Zm0-4h22v2s-22 0-22 0v-2Z"></path>
  <path d="m57.84,38.99c-4.35-1.35-7.45-3.32-8.91-4.37-.29-.21-.6-.36-.93-.46V9c0-1.65-1.35-3-3-3h-1v-1c0-1.65-1.35-3-3-3H7c-1.65,0-3,1.35-3,3v46c0,1.65,1.35,3,3,3h1v1c0,1.65,1.35,3,3,3h29.51c1.79,1.61,3.57,2.8,4.78,3.53.52.31,1.12.47,1.71.47s1.19-.16,1.71-.47c3.39-2.04,11.29-7.7,11.29-16.17v-3.53c0-1.3-.87-2.44-2.16-2.84ZM8,9v43h-1c-.55,0-1-.45-1-1V5c0-.55.45-1,1-1h34c.55,0,1,.45,1,1v1H11c-1.65,0-3,1.35-3,3Zm3,47c-.55,0-1-.45-1-1V9c0-.55.45-1,1-1h34c.55,0,1,.45,1,1v25.16c-.33.1-.64.26-.93.46-1.46,1.05-4.56,3.02-8.91,4.37-1.29.4-2.16,1.54-2.16,2.84v3.53c0,4.31,2.05,7.89,4.5,10.64H11Zm47-10.64c0,7.45-7.21,12.59-10.31,14.45-.42.25-.95.25-1.37,0-1.18-.71-2.94-1.88-4.68-3.48-.03-.03-.05-.05-.08-.08-2.82-2.61-5.55-6.31-5.55-10.9v-3.53c0-.41.3-.79.76-.93,4.39-1.36,7.58-3.29,9.49-4.66.22-.16.49-.24.75-.24,0,0,0,0,0,0s0,0,0,0c.27,0,.53.08.75.24,1.9,1.38,5.1,3.3,9.49,4.66.45.14.76.51.76.93v3.53Z"></path>
  <path d="m51.29 44.3-5.29 5.29-1.79-1.79c-.39-.39-1.02-.39-1.41 0s-.39 1.02 0 1.41l2.5 2.5c.2.2.45.29.71.29s.51-.1.71-.29l6-6c.39-.39.39-1.02 0-1.41s-1.02-.39-1.41 0ZM15 32h8c.55 0 1-.45 1-1v-3c0-.55-.45-1-1-1s-1 .45-1 1v2h-6v-6h3c.55 0 1-.45 1-1s-.45-1-1-1h-4c-.55 0-1 .45-1 1v8c0 .55.45 1 1 1Z"></path>
  <path d="m22.21 22.39-2.8 3.61-.7-.7c-.39-.39-1.02-.39-1.41 0s-.39 1.02 0 1.41l1.5 1.5c.19.19.44.29.71.29.02 0 .04 0 .06 0 .29-.02.55-.16.73-.38l3.5-4.5c.34-.44.26-1.06-.18-1.4-.44-.34-1.06-.26-1.4.18ZM31 37h-4c-.55 0-1 .45-1 1s.45 1 1 1h4c.55 0 1-.45 1-1s-.45-1-1-1ZM31 43h-4c-.55 0-1 .45-1 1s.45 1 1 1h4c.55 0 1-.45 1-1s-.45-1-1-1ZM31 50H15c-.55 0-1 .45-1 1s.45 1 1 1h16c.55 0 1-.45 1-1s-.45-1-1-1ZM15 46h8c.55 0 1-.45 1-1v-3c0-.55-.45-1-1-1s-1 .45-1 1v2h-6v-6h3c.55 0 1-.45 1-1s-.45-1-1-1h-4c-.55 0-1 .45-1 1v8c0 .55.45 1 1 1Z"></path>
  <path d="m22.21,36.39l-2.8,3.61-.7-.7c-.39-.39-1.02-.39-1.41,0s-.39,1.02,0,1.41l1.5,1.5c.19.19.44.29.71.29.02,0,.04,0,.06,0,.29-.02.55-.16.73-.38l3.5-4.5c.34-.44.26-1.06-.18-1.4-.44-.34-1.06-.26-1.4.18Z"></path>
</svg>
