<svg width="64" height="64" viewBox="0 0 64 64" fill="none" xmlns="http://www.w3.org/2000/svg">
<path d="M33 52H7C6.20462 51.9991 5.44206 51.6828 4.87964 51.1204C4.31722 50.5579 4.00087 49.7954 4 49V22H56V32C56 32.2652 56.1054 32.5196 56.2929 32.7071C56.4804 32.8946 56.7348 33 57 33C57.2652 33 57.5196 32.8946 57.7071 32.7071C57.8946 32.5196 58 32.2652 58 32V15C57.9984 13.6744 57.4712 12.4035 56.5338 11.4662C55.5965 10.5288 54.3256 10.0016 53 10H49V8C49 6.93913 48.5786 5.92172 47.8284 5.17157C47.0783 4.42143 46.0609 4 45 4C43.9391 4 42.9217 4.42143 42.1716 5.17157C41.4214 5.92172 41 6.93913 41 8V10H34V8C34 6.93913 33.5786 5.92172 32.8284 5.17157C32.0783 4.42143 31.0609 4 30 4C28.9391 4 27.9217 4.42143 27.1716 5.17157C26.4214 5.92172 26 6.93913 26 8V10H19V8C19 6.93913 18.5786 5.92172 17.8284 5.17157C17.0783 4.42143 16.0609 4 15 4C13.9391 4 12.9217 4.42143 12.1716 5.17157C11.4214 5.92172 11 6.93913 11 8V10H7C5.6744 10.0016 4.40353 10.5288 3.46619 11.4662C2.52885 12.4035 2.00156 13.6744 2 15V49C2.00156 50.3256 2.52885 51.5965 3.46619 52.5338C4.40353 53.4712 5.6744 53.9984 7 54H33C33.2652 54 33.5196 53.8946 33.7071 53.7071C33.8946 53.5196 34 53.2652 34 53C34 52.7348 33.8946 52.4804 33.7071 52.2929C33.5196 52.1054 33.2652 52 33 52ZM43 8C43 7.46957 43.2107 6.96086 43.5858 6.58579C43.9609 6.21071 44.4696 6 45 6C45.5304 6 46.0391 6.21071 46.4142 6.58579C46.7893 6.96086 47 7.46957 47 8V10H43V8ZM28 8C28 7.46957 28.2107 6.96086 28.5858 6.58579C28.9609 6.21071 29.4696 6 30 6C30.5304 6 31.0391 6.21071 31.4142 6.58579C31.7893 6.96086 32 7.46957 32 8V10H28V8ZM13 8C13 7.46957 13.2107 6.96086 13.5858 6.58579C13.9609 6.21071 14.4696 6 15 6C15.5304 6 16.0391 6.21071 16.4142 6.58579C16.7893 6.96086 17 7.46957 17 8V10H13V8ZM7 12H11V14C11 15.0609 11.4214 16.0783 12.1716 16.8284C12.9217 17.5786 13.9391 18 15 18C16.0609 18 17.0783 17.5786 17.8284 16.8284C18.5786 16.0783 19 15.0609 19 14H17C17 14.5304 16.7893 15.0391 16.4142 15.4142C16.0391 15.7893 15.5304 16 15 16C14.4696 16 13.9609 15.7893 13.5858 15.4142C13.2107 15.0391 13 14.5304 13 14V12H26V14C26 15.0609 26.4214 16.0783 27.1716 16.8284C27.9217 17.5786 28.9391 18 30 18C31.0609 18 32.0783 17.5786 32.8284 16.8284C33.5786 16.0783 34 15.0609 34 14H32C32 14.5304 31.7893 15.0391 31.4142 15.4142C31.0391 15.7893 30.5304 16 30 16C29.4696 16 28.9609 15.7893 28.5858 15.4142C28.2107 15.0391 28 14.5304 28 14V12H41V14C41 15.0609 41.4214 16.0783 42.1716 16.8284C42.9217 17.5786 43.9391 18 45 18C46.0609 18 47.0783 17.5786 47.8284 16.8284C48.5786 16.0783 49 15.0609 49 14H47C47 14.5304 46.7893 15.0391 46.4142 15.4142C46.0391 15.7893 45.5304 16 45 16C44.4696 16 43.9609 15.7893 43.5858 15.4142C43.2107 15.0391 43 14.5304 43 14V12H53C53.7954 12.0009 54.5579 12.3172 55.1204 12.8796C55.6828 13.4421 55.9991 14.2046 56 15V20H4V15C4.00087 14.2046 4.31722 13.4421 4.87964 12.8796C5.44206 12.3172 6.20462 12.0009 7 12Z" fill="#DC2626"/>
<path d="M32 35H28V39H32V35Z" fill="black"/>
<path d="M32 27H28V31H32V27Z" fill="black"/>
<path d="M23 35H19V39H23V35Z" fill="black"/>
<path d="M23 43H19V47H23V43Z" fill="black"/>
<path d="M23 27H19V31H23V27Z" fill="black"/>
<path d="M14 35H10V39H14V35Z" fill="black"/>
<path d="M14 43H10V47H14V43Z" fill="black"/>
<path d="M14 27H10V31H14V27Z" fill="black"/>
<path d="M41 27H37V31H41V27Z" fill="black"/>
<path d="M50 27H46V31H50V27Z" fill="black"/>
<path d="M48 32C45.2311 32 42.5243 32.8211 40.222 34.3594C37.9197 35.8978 36.1253 38.0843 35.0657 40.6424C34.0061 43.2006 33.7288 46.0155 34.269 48.7313C34.8092 51.447 36.1426 53.9416 38.1005 55.8995C40.0584 57.8574 42.553 59.1908 45.2687 59.731C47.9845 60.2712 50.7994 59.9939 53.3576 58.9343C55.9157 57.8747 58.1022 56.0803 59.6406 53.778C61.1789 51.4757 62 48.7689 62 46C61.9958 42.2883 60.5195 38.7297 57.8949 36.1051C55.2703 33.4805 51.7118 32.0042 48 32ZM48 58C45.6266 58 43.3066 57.2962 41.3332 55.9776C39.3598 54.6591 37.8217 52.7849 36.9135 50.5922C36.0052 48.3995 35.7676 45.9867 36.2306 43.6589C36.6936 41.3311 37.8365 39.1929 39.5147 37.5147C41.193 35.8365 43.3312 34.6936 45.6589 34.2306C47.9867 33.7676 50.3995 34.0052 52.5922 34.9134C54.7849 35.8217 56.6591 37.3598 57.9776 39.3332C59.2962 41.3065 60 43.6266 60 46C59.9964 49.1815 58.7309 52.2316 56.4813 54.4813C54.2316 56.7309 51.1815 57.9964 48 58Z" fill="#DC2626"/>
<path d="M48 35C45.8244 35 43.6977 35.6451 41.8887 36.8538C40.0798 38.0625 38.6699 39.7805 37.8373 41.7905C37.0048 43.8005 36.7869 46.0122 37.2114 48.146C37.6358 50.2798 38.6835 52.2398 40.2218 53.7782C41.7602 55.3166 43.7202 56.3642 45.854 56.7886C47.9878 57.2131 50.1995 56.9952 52.2095 56.1627C54.2195 55.3301 55.9375 53.9202 57.1462 52.1113C58.3549 50.3023 59 48.1756 59 46C58.9967 43.0836 57.8367 40.2877 55.7745 38.2255C53.7123 36.1633 50.9164 35.0033 48 35ZM48 55C46.22 55 44.4799 54.4722 42.9999 53.4832C41.5198 52.4943 40.3663 51.0887 39.6851 49.4441C39.0039 47.7996 38.8257 45.99 39.1729 44.2442C39.5202 42.4984 40.3774 40.8947 41.636 39.636C42.8947 38.3774 44.4984 37.5202 46.2442 37.1729C47.99 36.8257 49.7996 37.0039 51.4442 37.6851C53.0887 38.3663 54.4943 39.5198 55.4832 40.9999C56.4722 42.4799 57 44.22 57 46C56.9974 48.3861 56.0483 50.6738 54.361 52.361C52.6738 54.0483 50.3861 54.9974 48 55Z" fill="#DC2626"/>
<path d="M49 40H47V46.414L51.293 50.707L52.707 49.293L49 45.586V40Z" fill="#DC2626"/>
</svg>
