<svg id="SvgjsSvg1192" width="288" height="288" xmlns="http://www.w3.org/2000/svg" version="1.1" xmlns:xlink="http://www.w3.org/1999/xlink" xmlns:svgjs="http://svgjs.com/svgjs"><defs id="SvgjsDefs1193"></defs><g id="SvgjsG1194"><svg xmlns="http://www.w3.org/2000/svg" viewBox="0 0 64 64" width="288" height="288"><path d="M16 20h-6a1 1 0 0 0-1 1v6a1 1 0 0 0 1 1h6a1 1 0 0 0 1-1v-6a1 1 0 0 0-1-1zm-1 6h-4v-4h4zm11-6h-6a1 1 0 0 0-1 1v6a1 1 0 0 0 1 1h6a1 1 0 0 0 1-1v-6a1 1 0 0 0-1-1zm-1 6h-4v-4h4zm5 2h6a1 1 0 0 0 1-1v-6a1 1 0 0 0-1-1h-6a1 1 0 0 0-1 1v6a1 1 0 0 0 1 1zm1-6h4v4h-4zm9 6h6a1 1 0 0 0 1-1v-6a1 1 0 0 0-1-1h-6a1 1 0 0 0-1 1v6a1 1 0 0 0 1 1zm1-6h4v4h-4zm-25 8h-6a1 1 0 0 0-1 1v6a1 1 0 0 0 1 1h6a1 1 0 0 0 1-1v-6a1 1 0 0 0-1-1zm-1 6h-4v-4h4zm11-6h-6a1 1 0 0 0-1 1v6a1 1 0 0 0 1 1h6a1 1 0 0 0 1-1v-6a1 1 0 0 0-1-1zm-1 6h-4v-4h4zm9.006 1a1 1 0 0 0-1-1H31v-4h4v1.965a1 1 0 0 0 2 0V31a1 1 0 0 0-1-1h-6a1 1 0 0 0-1 1v6a1 1 0 0 0 1 1h3.006a1 1 0 0 0 1-1zM16 40h-6a1 1 0 0 0-1 1v6a1 1 0 0 0 1 1h6a1 1 0 0 0 1-1v-6a1 1 0 0 0-1-1zm-1 6h-4v-4h4zm11-6h-6a1 1 0 0 0-1 1v6a1 1 0 0 0 1 1h6a1 1 0 0 0 1-1v-6a1 1 0 0 0-1-1zm-1 6h-4v-4h4z" fill="#dc2626" class="svgShape color000000-0 selectable"></path><path d="M54 33.74V9a3.009 3.009 0 0 0-3-3h-5V5a3 3 0 0 0-6 0v1H16V5a3 3 0 0 0-6 0v1H5a3.009 3.009 0 0 0-3 3v42a3.009 3.009 0 0 0 3 3h28.74A15 15 0 1 0 54 33.74ZM42 5a1 1 0 0 1 2 0v4a1 1 0 0 1-2 0ZM12 5a1 1 0 0 1 2 0v4a1 1 0 0 1-2 0ZM4 9a1 1 0 0 1 1-1h5v1a3 3 0 0 0 6 0V8h24v1a3 3 0 0 0 6 0V8h5a1 1 0 0 1 1 1v5H4Zm28.88 43H5a1 1 0 0 1-1-1V16h48v16.88a14.807 14.807 0 0 0-5-.88 15.018 15.018 0 0 0-15 15 14.807 14.807 0 0 0 .88 5Zm25.83.61-.82-.48a1 1 0 0 0-1 1.74l.83.47a13.244 13.244 0 0 1-3.38 3.38l-.47-.83a1 1 0 0 0-1.74 1l.48.82A13.022 13.022 0 0 1 48 59.95V59a1 1 0 0 0-2 0v.95a13.022 13.022 0 0 1-4.61-1.24l.48-.82a1 1 0 0 0-1.74-1l-.47.83a13.244 13.244 0 0 1-3.38-3.38l.83-.47a1 1 0 0 0-1-1.74l-.82.48A13.022 13.022 0 0 1 34.05 48H35a1 1 0 0 0 0-2h-.95a13.022 13.022 0 0 1 1.24-4.61l.82.48a1.009 1.009 0 0 0 .5.13 1 1 0 0 0 .5-1.87l-.83-.47a13.244 13.244 0 0 1 3.38-3.38l.47.83a.993.993 0 0 0 1.37.36 1 1 0 0 0 .37-1.36l-.48-.82A13.022 13.022 0 0 1 46 34.05V35a1 1 0 0 0 2 0v-.95a13.022 13.022 0 0 1 4.61 1.24l-.48.82a1 1 0 0 0 .37 1.36.993.993 0 0 0 1.37-.36l.47-.83a13.244 13.244 0 0 1 3.38 3.38l-.83.47a1 1 0 0 0 .5 1.87 1.009 1.009 0 0 0 .5-.13l.82-.48A13.022 13.022 0 0 1 59.95 46H59a1 1 0 0 0 0 2h.95a13.022 13.022 0 0 1-1.24 4.61Z" fill="#000000" class="svgShape color000000-1 selectable"></path><path d="M48 44.184V39a1 1 0 0 0-2 0v5.184A3 3 0 0 0 44.184 46H41a1 1 0 0 0 0 2h3.184A2.993 2.993 0 1 0 48 44.184ZM47 48a1 1 0 1 1 1-1 1 1 0 0 1-1 1Z" fill="#000000" class="svgShape color000000-2 selectable"></path></svg></g></svg>