<svg id="SvgjsSvg1025" width="288" height="288" xmlns="http://www.w3.org/2000/svg" version="1.1" xmlns:xlink="http://www.w3.org/1999/xlink" xmlns:svgjs="http://svgjs.com/svgjs"><defs id="SvgjsDefs1026"></defs><g id="SvgjsG1027"><svg xmlns="http://www.w3.org/2000/svg" fill-rule="evenodd" clip-rule="evenodd" image-rendering="optimizeQuality" shape-rendering="geometricPrecision" text-rendering="geometricPrecision" viewBox="0 0 512 512" width="288" height="288"><path d="M361 365l-171 0c-4,0 -7,-3 -7,-7 0,-4 3,-7 7,-7l164 0 0 -238 -314 0 0 238 52 0c4,0 7,3 7,7 0,4 -3,7 -7,7l-59 0c-4,0 -7,-3 -7,-7l0 -252c0,-4 3,-7 7,-7l328 0c4,0 7,3 7,7l0 252c0,4 -3,7 -7,7z" fill="#000000" class="svgShape color000000-0 selectable"></path><path d="M491 365l-29 0c-3,0 -7,-3 -7,-7 0,-4 4,-7 7,-7l22 0 0 -64c0,-17 -13,-31 -31,-31l-85 0 0 95 17 0c3,0 7,3 7,7 0,4 -4,7 -7,7l-24 0c-4,0 -7,-3 -7,-7l0 -109c0,-4 3,-7 7,-7l92 0c25,0 45,20 45,45l0 71c0,4 -3,7 -7,7z" fill="#000000" class="svgShape color000000-1 selectable"></path><path d="M450 256c-3,0 -6,-3 -7,-6l-6 -60 -32 0c-4,0 -7,-3 -7,-7 0,-4 3,-7 7,-7l38 0c3,0 6,3 7,6l7 66c1,4 -2,8 -6,8 0,0 0,0 -1,0zm-89 0c-4,0 -7,-3 -7,-7l0 -66c0,-4 3,-7 7,-7 4,0 7,3 7,7l0 66c0,4 -3,7 -7,7z" fill="#000000" class="svgShape color000000-2 selectable"></path><path d="M463 190l-102 0c-4 0-7-3-7-7l0-33c0-4 3-7 7-7l86 0c12 0 23 11 23 24l0 16c0 4-3 7-7 7zm-95-14l88 0 0-9c0-6-4-10-9-10l-79 0 0 19 0 0zM141 413c-31 0-56-25-56-55 0-31 25-56 56-56 31 0 56 25 56 56 0 30-25 55-56 55zm0-97c-23 0-42 19-42 42 0 23 19 41 42 41 23 0 42-18 42-41 0-23-19-42-42-42zM423 404c-25 0-45-21-45-46 0-26 20-46 45-46 26 0 46 20 46 46 0 25-20 46-46 46zm0-78c-17 0-31 14-31 32 0 17 14 32 31 32 18 0 32-15 32-32 0-18-14-32-32-32zM361 306l-66 0c-4 0-7-3-7-7 0-4 3-7 7-7l66 0c4 0 7 3 7 7 0 4-3 7-7 7z" fill="#000000" class="svgShape color000000-3 selectable"></path><path d="M141 387c-16 0-30-13-30-29 0-17 14-30 30-30 16 0 29 13 29 30 0 16-13 29-29 29zm0-45c-9 0-16 7-16 16 0 8 7 15 16 15 8 0 15-7 15-15 0-9-7-16-15-16zM491 324l-27 0c-4 0-7-3-7-7l0-27c0-4 3-7 7-7l27 0c4 0 7 3 7 7 0 4-3 7-7 7l-20 0 0 13 20 0c4 0 7 3 7 7 0 4-3 7-7 7zM72 324l-39 0c-4 0-7-3-7-7 0-4 3-7 7-7l32 0 0-36-32 0c-4 0-7-3-7-7 0-4 3-7 7-7l39 0c4 0 7 3 7 7l0 50c0 4-3 7-7 7zM361 335l-66 0c-4 0-7-3-7-7 0-4 3-7 7-7l66 0c4 0 7 3 7 7 0 4-3 7-7 7zM505 413c0 0 0 0-1 0-11 0-330 0-497 0 0 0 0 0 0 0-4 0-7-3-7-7 0-3 3-7 7-7 20 0 483-1 498 0 4 1 7 4 7 8 0 4-3 6-7 6zM423 381c-12 0-22-11-22-23 0-13 10-23 22-23 13 0 23 10 23 23 0 12-10 23-23 23zm0-32c-4 0-8 4-8 9 0 5 4 9 8 9 5 0 9-4 9-9 0-5-4-9-9-9zM189 266c-6 0-12-1-17-4-16-9-21-30-12-45l45-79c6-10 17-16 29-16 6 0 12 1 17 4 7 4 13 12 15 20 3 9 1 18-3 25l-45 79c-6 10-17 16-29 16zm45-130c-7 0-13 3-17 9l-45 79c-5 9-2 21 7 26 3 2 6 2 10 2 7 0 13-3 17-9l45-79c5-9 2-21-7-26-3-2-6-2-10-2z" fill="#dc2626" class="svgShape color000000-4 selectable"></path><path d="M234 214c-1 0-2 0-3-1l-46-26c-3-2-4-6-2-10 2-3 6-4 9-2l46 26c3 2 4 6 2 10-1 2-3 3-6 3zM261 298c-18 0-33-15-33-33 0-19 15-34 33-34 19 0 34 15 34 34 0 18-15 33-34 33zm0-53c-10 0-19 9-19 20 0 11 9 19 19 19 11 0 20-8 20-19 0-11-9-20-20-20z" fill="#000000" class="svgShape color000000-5 selectable"></path><path d="M249 295c-1 0-2 0-4-1-3-2-4-6-2-9l27-46c1-4 6-5 9-3 3 2 5 6 3 10l-27 46c-1 2-4 3-6 3zM300 235c-19 0-34-15-34-33 0-19 15-34 34-34 19 0 34 15 34 34 0 18-15 33-34 33zm0-53c-11 0-20 9-20 20 0 10 9 19 20 19 11 0 20-9 20-19 0-11-9-20-20-20z" fill="#000000" class="svgShape color000000-6 selectable"></path><path d="M288 232c-2 0-3 0-4-1-3-2-4-6-3-9l27-46c2-4 6-5 10-3 3 2 4 6 2 10l-26 46c-2 2-4 3-6 3zM110 223c-27 0-50-22-50-50 0-28 23-50 50-50 28 0 50 22 50 50 0 28-22 50-50 50zm0-86c-20 0-36 16-36 36 0 20 16 36 36 36 20 0 36-16 36-36 0-20-16-36-36-36z" fill="#000000" class="svgShape color000000-7 selectable"></path><path d="M110 198c-4,0 -7,-4 -7,-7l0 -35c0,-4 3,-7 7,-7 4,0 7,3 7,7l0 35c0,3 -3,7 -7,7z" fill="#dc2626" class="svgShape color000000-8 selectable"></path><path d="M128 180l-35 0c-4,0 -7,-3 -7,-7 0,-4 3,-7 7,-7l35 0c4,0 7,3 7,7 0,4 -3,7 -7,7z" fill="#dc2626" class="svgShape color000000-9 selectable"></path></svg></g></svg>