<svg width="56" height="56" viewBox="0 0 56 56" fill="none" xmlns="http://www.w3.org/2000/svg">
<rect x="27.5742" width="39" height="39" rx="7.69" transform="rotate(45 27.5742 0)" fill="#FFD7D7"/>
<path d="M32.0557 24.1931C32.0557 23.7526 31.927 23.3418 31.7059 22.9954C32.8843 22.8738 33.8064 21.8758 33.8064 20.6666C33.8064 19.9358 33.4695 19.2823 32.9428 18.8526C33.4695 18.423 33.8064 17.7695 33.8064 17.0387C33.8064 16.5637 33.6637 16.1217 33.4196 15.7522H35.0816C35.3729 15.7522 35.609 15.5161 35.609 15.2249C35.609 14.9336 35.3729 14.6975 35.0816 14.6975C33.0463 14.6976 28.7138 14.6973 26.6535 14.6974L24.8488 12.1241H38.7083C39.4185 12.1241 39.9964 12.7013 39.9964 13.4108C39.9964 13.7542 39.8624 14.0773 39.6197 14.32C39.3757 14.5634 39.052 14.6975 38.7083 14.6975H37.5425C37.2513 14.6975 37.0152 14.9336 37.0152 15.2248C37.0152 15.516 37.2513 15.7521 37.5425 15.7521H38.7083C39.3333 15.7521 39.9216 15.5087 40.365 15.0661C40.8074 14.6237 41.051 14.0358 41.051 13.4108C41.051 12.1198 40.0001 11.0694 38.7083 11.0694H24.0868C23.499 10.3951 22.6434 10 21.7384 10H19.6264C18.4015 10 17.2295 10.4553 16.3262 11.2818C15.4481 12.0852 14.3089 12.5277 13.1182 12.5277H10.1016C9.81032 12.5277 9.57422 12.7638 9.57422 13.055C9.57422 13.3462 9.81032 13.5823 10.1016 13.5823H13.1182C14.573 13.5823 15.9652 13.0417 17.0381 12.0598C17.7465 11.4116 18.6657 11.0547 19.6264 11.0547H21.7384C22.4098 11.0547 23.0406 11.3826 23.4258 11.9319L26.3245 16.065C26.6451 16.5221 26.8145 17.0587 26.8145 17.6169V22.4059C26.8145 22.5975 26.6583 22.7534 26.4662 22.7534C25.4079 22.7534 24.527 21.9605 24.4171 20.909L24.1163 18.028C24.101 17.881 24.0246 17.7472 23.9059 17.6592L21.7431 16.0554C21.5093 15.8821 21.179 15.9309 21.0054 16.1649C20.832 16.3988 20.881 16.729 21.1149 16.9026L21.6229 17.2793C20.0697 18.3873 18.0863 18.7582 16.1995 18.2686L15.9955 18.2157C15.7139 18.1426 15.4258 18.3117 15.3526 18.5936C15.2794 18.8755 15.4486 19.1633 15.7305 19.2365L15.9345 19.2895C16.5706 19.4546 17.2161 19.5354 17.8564 19.5354C19.5333 19.5354 21.1727 18.9803 22.5064 17.9345L23.0913 18.3683L23.368 21.0186C23.4419 21.7259 23.7468 22.3555 24.203 22.837C23.9088 23.2227 23.7426 23.6991 23.7426 24.1933C23.7426 24.6262 23.8668 25.0304 24.0808 25.373H23.166C22.8748 25.373 22.6387 25.6091 22.6387 25.9003C22.6387 26.1916 22.8748 26.4277 23.166 26.4277C24.764 26.4277 28.2004 26.4278 29.8199 26.4277C31.0528 26.4276 32.0557 25.4252 32.0557 24.1931ZM32.7517 20.6666C32.7517 21.376 32.1738 21.9532 31.4618 21.9532C30.5783 21.9578 28.759 21.9598 27.8692 21.9588V19.38H31.4636C32.1738 19.38 32.7517 19.9572 32.7517 20.6666ZM32.7517 17.0386C32.7517 17.7481 32.1738 18.3252 31.4636 18.3252H27.8691V17.6168C27.8691 16.9569 27.6982 16.319 27.3732 15.752H31.4607C31.4616 15.752 31.4625 15.7521 31.4634 15.7521H31.4663C32.1753 15.7536 32.7517 16.3301 32.7517 17.0386ZM29.8199 25.3729C29.819 25.3729 25.978 25.3731 25.9766 25.3729C25.3263 25.3717 24.7975 24.843 24.7975 24.1932C24.7975 23.9286 24.8879 23.6737 25.0476 23.4685C25.474 23.6859 25.9564 23.8081 26.4663 23.8081C27.0219 23.8081 27.5017 23.4828 27.7287 23.0134H29.82C30.4713 23.0134 31.0011 23.5427 31.0011 24.1932C31.0011 24.8437 30.4712 25.3729 29.8199 25.3729Z" fill="black"/>
<path d="M20.7125 25.3711C19.3615 25.3448 18.0328 24.9665 16.8702 24.277C15.499 23.4633 13.9312 23.0332 12.336 23.0332L10.1004 23.0381C9.80906 23.0388 9.57352 23.2754 9.57422 23.5667C9.57485 23.8575 9.81082 24.0928 10.1016 24.0928C10.1431 24.0928 12.295 24.0877 12.336 24.0879C13.7419 24.0879 15.1237 24.4669 16.3321 25.1841C17.6514 25.9664 19.1591 26.3958 20.6921 26.4256C20.6956 26.4256 20.699 26.4256 20.7025 26.4256C20.989 26.4256 21.224 26.1963 21.2296 25.9086C21.2352 25.6175 21.0038 25.3768 20.7125 25.3711Z" fill="black"/>
<path d="M39.2589 17.8313L39.0754 17.5613C38.9678 17.4029 38.8698 17.2357 38.7841 17.0645C38.6238 16.744 38.301 16.5449 37.9416 16.5449C37.5822 16.5449 37.2593 16.744 37.099 17.0646C37.0134 17.2358 36.9154 17.4029 36.8078 17.5613L36.2057 18.4473L36.1987 18.4574C35.9742 18.7873 35.8555 19.1712 35.8555 19.5665C35.8545 20.0145 36.0101 20.4547 36.2925 20.8046C36.6909 21.3018 37.292 21.587 37.9416 21.587C39.0919 21.587 40.0277 20.6811 40.0277 19.5676C40.0277 19.1711 39.909 18.7872 39.6845 18.4574C39.6841 18.4567 39.6835 18.4559 39.6831 18.4552C39.6669 18.4317 39.4321 18.0861 39.2589 17.8313ZM37.9416 20.5323C37.6137 20.5323 37.3127 20.3911 37.1143 20.1436C36.9841 19.9823 36.9096 19.7727 36.9101 19.5676C36.9101 19.3837 36.9656 19.205 37.0689 19.0533L37.6801 18.1541C37.7735 18.0166 37.861 17.8739 37.9416 17.7278C38.0222 17.8739 38.1098 18.0167 38.2034 18.1546L38.3866 18.4241C38.5581 18.6765 38.7895 19.0171 38.813 19.0514C38.9177 19.2053 38.9731 19.3839 38.9731 19.5675C38.9731 20.0995 38.5103 20.5323 37.9416 20.5323Z" fill="black"/>
<path d="M45.0472 33.9069C45.3384 33.9069 45.5745 33.6708 45.5745 33.3796V30.6656C45.5745 29.3136 44.4746 28.2138 43.1228 28.2138H39.7463V23.6196C39.7463 23.1422 39.3578 22.7539 38.8803 22.7539H37.003C36.5255 22.7539 36.1371 23.1422 36.1371 23.6196V28.2138H32.761C31.4087 28.2138 30.3086 29.3137 30.3086 30.6656V38.3815C30.3086 42.5822 33.7264 45.9997 37.9275 45.9997H37.9563C42.157 45.9997 45.5745 42.5822 45.5745 38.3815V35.844C45.5745 35.5527 45.3384 35.3166 45.0472 35.3166C44.7559 35.3166 44.5198 35.5527 44.5198 35.844V38.3815C44.5198 42.0007 41.5755 44.945 37.9563 44.945H37.9275C34.3079 44.945 31.3633 42.0007 31.3633 38.3815V30.6656C31.3633 29.9346 31.9281 29.334 32.6443 29.2744V34.977C32.6443 36.1813 33.0599 37.3599 33.8144 38.2956C33.9186 38.4247 34.0713 38.4919 34.2253 38.4919C34.3414 38.4919 34.4584 38.4536 34.5559 38.375C34.7826 38.1922 34.8182 37.8602 34.6354 37.6335C34.0228 36.8738 33.699 35.9552 33.699 34.977V29.2685H42.1848V34.977C42.1848 37.3145 40.2813 39.2161 37.9416 39.2161C37.4108 39.2161 36.8941 39.1198 36.4059 38.9299C36.1345 38.8245 35.8288 38.9588 35.7233 39.2302C35.6178 39.5016 35.7522 39.8073 36.0236 39.9128C36.6342 40.1503 37.2795 40.2707 37.9416 40.2707C40.8629 40.2707 43.2395 37.8959 43.2395 34.977V29.2743C43.9554 29.334 44.5199 29.9346 44.5199 30.6655V33.3795C44.5198 33.6708 44.7559 33.9069 45.0472 33.9069ZM38.6916 23.8085V24.701H37.1917V23.8085H38.6916ZM37.1917 25.7558H38.6916V28.2138H37.1917V25.7558Z" fill="#DC2626"/>
<path d="M39.8452 36.1762C40.3846 36.1762 40.8235 35.7373 40.8235 35.1978V33.3622C40.8235 32.8227 40.3846 32.3838 39.8452 32.3838H36.037C35.4975 32.3838 35.0586 32.8227 35.0586 33.3622V35.1978C35.0586 35.7373 35.4975 36.1762 36.037 36.1762H39.8452ZM36.1133 33.4385H39.7688V35.1215H36.1133V33.4385Z" fill="#DC2626"/>
<path d="M35.916 42.6075C35.916 43.4931 36.8053 44.1868 37.9405 44.1868C39.0758 44.1868 39.9651 43.4931 39.9651 42.6075C39.9651 41.7219 39.0758 41.0283 37.9405 41.0283C36.8053 41.0283 35.916 41.722 35.916 42.6075ZM38.9105 42.6075C38.9105 42.8501 38.4868 43.1321 37.9406 43.1321C37.3944 43.1321 36.9708 42.8501 36.9708 42.6075C36.9708 42.3649 37.3944 42.083 37.9406 42.083C38.4868 42.083 38.9105 42.3649 38.9105 42.6075Z" fill="#DC2626"/>
</svg>
