<svg xmlns="http://www.w3.org/2000/svg" fill-rule="evenodd" stroke-linejoin="round" stroke-miterlimit="2" clip-rule="evenodd" viewBox="0 0 64 64" id="diabetes">
  <path d="M26,47.972C19.034,45.499 14.039,38.848 14.039,31.039L14.039,4C14.039,3.448 14.487,3 15.039,3L48.962,3C49.515,3 49.962,3.448 49.962,4L49.962,31.039C49.962,38.848 44.967,45.5 38,47.972L38,55.002C38,56.593 37.368,58.118 36.243,59.243C35.118,60.368 33.593,61 32.001,61L31.998,61C30.407,61 28.882,60.368 27.757,59.243C26.632,58.118 26,56.593 26,55.002L26,47.972ZM38,45.833C43.84,43.459 47.962,37.727 47.962,31.039L47.962,5L16.039,5L16.039,31.039C16.039,37.726 20.161,43.458 26,45.832L26,40C26,39.448 26.448,39 27,39L37,39C37.552,39 38,39.448 38,40L38,45.833ZM28,41L28,55.002C28,56.063 28.421,57.079 29.171,57.829C29.921,58.579 30.938,59 31.998,59L32.001,59C33.062,59 34.079,58.579 34.829,57.829C35.579,57.079 36,56.063 36,55.002L36,41L28,41ZM44,36L20,36C19.448,36 19,35.552 19,35L19,9C19,8.448 19.448,8 20,8L44,8C44.552,8 45,8.448 45,9L45,18C45,18.552 44.552,19 44,19C43.448,19 43,18.552 43,18L43,10L21,10L21,24L43,24L43,22C43,21.448 43.448,21 44,21C44.552,21 45,21.448 45,22L45,35C45,35.552 44.552,36 44,36ZM21,26L21,34L31.001,34L31.001,26L21,26ZM43,26L33.001,26L33.001,34L43,34L43,26ZM38.001,28C39.104,28 40.001,28.896 40.001,30C40.001,31.104 39.104,32 38.001,32C36.897,32 36.001,31.104 36.001,30C36.001,28.896 36.897,28 38.001,28ZM26,28C27.104,28 28,28.896 28,30C28,31.104 27.104,32 26,32C24.896,32 24,31.104 24,30C24,28.896 24.896,28 26,28ZM32.904,12.57C32.904,12.57 35.001,17.075 35.001,19C35.001,20.656 33.657,22 32.001,22C30.345,22 29.001,20.656 29.001,19C29.001,17.075 31.098,12.57 31.098,12.57C31.264,12.222 31.615,12 32.001,12C32.387,12 32.737,12.222 32.904,12.57ZM32.001,15.466C31.509,16.674 31.001,18.134 31.001,19C31.001,19.552 31.449,20 32.001,20C32.553,20 33.001,19.552 33.001,19C33.001,18.134 32.492,16.674 32.001,15.466ZM32,53C33.104,53 34,53.896 34,55C34,56.104 33.104,57 32,57C30.896,57 30,56.104 30,55C30,53.896 30.896,53 32,53Z"></path>
</svg>
