<svg id="Capa_1" enable-background="new 0 0 511.144 511.144" height="512" viewBox="0 0 511.144 511.144" width="512" xmlns="http://www.w3.org/2000/svg"><g id="Outline_00000181068390729942605230000012661642313387065990_"><path d="m206.572 496.144c-61.905-.001-117.166-30.738-147.82-82.224l-12.889 7.674c33.386 56.072 93.464 89.549 160.709 89.55 45.189 0 86.832-14.708 120.426-42.532l-9.568-11.553c-30.871 25.569-69.205 39.085-110.858 39.085z"/><path d="m206.572 27.287 98.734 150.049 12.531-8.246-111.265-169.09-71.67 108.915 12.531 8.246z"/><path d="m36.072 332.674c0-30.274 9.167-60.207 26.511-86.563l76.605-116.418-12.531-8.246-76.606 116.417c-18.958 28.812-28.979 61.597-28.979 94.81 0 25.607 6.01 51.591 17.381 75.142l13.508-6.521c-10.395-21.53-15.889-45.259-15.889-68.621z"/><path d="m328.084 447.436 10.521 10.691c9.351-9.203 17.711-19.429 24.849-30.392l-12.57-8.184c-6.548 10.058-14.219 19.439-22.8 27.885z"/><path d="m310.072 255.017v72.077l62.5 36.03 62.5-36.03v-72.077l-62.5-36.03zm55 86.469-40-23.058v-46.097l40 23.059zm55-23.058-40 23.058v-46.096l40-23.059zm-47.5-36.03-39.983-23.049 39.983-23.048 39.983 23.048z"/><path d="m450.149 202.458-9.914 11.258c22.141 19.498 34.838 47.537 34.837 76.928 0 56.519-45.981 102.5-102.5 102.5s-102.5-45.981-102.5-102.5 45.981-102.5 102.5-102.5c20.213 0 39.776 5.902 56.576 17.067l8.303-12.492c-19.268-12.807-41.703-19.575-64.879-19.575-64.79 0-117.5 52.71-117.5 117.5s52.71 117.5 117.5 117.5 117.5-52.71 117.5-117.5c.001-33.699-14.551-65.84-39.923-88.186z"/><path d="m162.261 345.494 13.586 6.359c.217-.463.425-.931.623-1.398 2.39-5.607 3.602-11.586 3.602-17.768 0-22.589-16.284-44.704-40.521-55.028-9.169-3.907-18.678-5.888-28.261-5.888-22.927 0-42.015 11.376-49.815 29.689-2.391 5.609-3.603 11.587-3.603 17.768 0 22.588 16.284 44.702 40.522 55.028 9.169 3.907 18.678 5.888 28.261 5.888 15.032 0 28.741-4.953 38.602-13.947l-10.107-11.082c-7.092 6.468-17.211 10.029-28.494 10.029-7.445 0-15.185-1.621-22.382-4.687-18.782-8.003-31.401-24.571-31.401-41.229 0-4.148.808-8.148 2.402-11.889 5.404-12.688 19.205-20.568 36.016-20.568 7.445 0 15.185 1.621 22.382 4.688 18.781 8.001 31.4 24.569 31.4 41.229 0 4.149-.808 8.149-2.403 11.895-.132.307-.268.61-.409.911z"/><path d="m213.706 160.119c4.633 0 9.452-.984 14.094-3.062 7.244-3.241 13.06-8.671 16.373-15.288 3.516-7.019 3.829-14.849.861-21.481-5.973-13.348-23.424-18.577-38.901-11.649h-.001c-15.477 6.926-23.208 23.421-17.234 36.771 4.182 9.346 13.989 14.709 24.808 14.709zm-1.448-37.789c7.794-3.487 16.532-1.615 19.084 4.085 1.537 3.436.295 6.887-.582 8.638-1.742 3.479-5.055 6.509-9.088 8.313-7.794 3.487-16.532 1.617-19.084-4.084-2.55-5.701 1.877-13.465 9.67-16.952z"/><path d="m117.132 396.639c-15.478 6.926-23.209 23.421-17.235 36.771 4.183 9.347 13.99 14.71 24.809 14.71 4.633 0 9.452-.984 14.094-3.062 7.244-3.241 13.06-8.671 16.373-15.288 3.516-7.019 3.829-14.849.861-21.481-5.972-13.349-23.425-18.578-38.902-11.65zm24.628 26.414c-1.742 3.479-5.055 6.509-9.088 8.313-7.793 3.487-16.532 1.617-19.084-4.084-2.551-5.701 1.877-13.465 9.67-16.952 7.794-3.487 16.531-1.615 19.084 4.085 1.537 3.436.295 6.887-.582 8.638z"/><path d="m116.032 332.858c-6.217-2.649-11.439-7.306-15.522-13.841l-12.721 7.947c5.741 9.19 13.266 15.816 22.364 19.692 5.788 2.467 11.936 3.702 18.374 3.702 3.684 0 7.463-.404 11.322-1.215l-3.082-14.68c-7.539 1.586-14.516 1.045-20.735-1.605z"/><path d="m212.354 463.821c2.947.666 5.919.994 8.89.994 9.821 0 19.609-3.596 28.259-10.504 10.774-8.606 18.535-21.433 21.85-36.114 3.316-14.683 1.82-29.599-4.211-42-6.306-12.967-16.767-21.686-29.457-24.551-25.553-5.774-52.016 14.7-58.998 45.625-3.315 14.683-1.819 29.599 4.212 42 6.305 12.967 16.767 21.686 29.455 24.55zm-19.037-63.245c4.617-20.448 19.844-34.916 35.517-34.916 1.849 0 3.703.201 5.547.617 8.155 1.842 14.999 7.694 19.271 16.479 4.548 9.351 5.638 20.764 3.069 32.136-2.568 11.373-8.456 21.21-16.58 27.698-7.634 6.098-16.327 8.438-24.483 6.6-8.154-1.842-14.998-7.694-19.271-16.479-4.548-9.351-5.637-20.763-3.07-32.135z"/><path d="m242.089 411.589c1.988-8.805.728-17.946-3.746-27.171l-13.496 6.545c2.953 6.09 3.831 11.917 2.611 17.322-1.221 5.403-4.518 10.289-9.802 14.52l9.377 11.709c8.004-6.41 13.069-14.122 15.056-22.925z"/><path d="m154.057 253.558c10.098 22.564 30.549 36.557 50.404 36.557 5.608 0 11.173-1.118 16.439-3.475 23.907-10.698 32.82-42.946 19.87-71.887-12.95-28.938-42.931-43.781-66.844-33.082-23.906 10.698-32.819 42.946-19.869 71.887zm36.508-60.408c14.008 0 28.903 10.722 36.515 27.729 9.572 21.391 4.052 44.748-12.306 52.068-16.36 7.32-37.453-4.128-47.025-25.518-9.572-21.391-4.052-44.748 12.306-52.068 3.351-1.499 6.901-2.211 10.51-2.211z"/><path d="m200.726 260.806 6.881-13.33c-6.015-3.104-10.212-7.242-12.475-12.299-2.264-5.059-2.553-10.945-.859-17.496l-14.523-3.754c-2.564 9.927-1.996 19.138 1.691 27.377 3.685 8.237 10.174 14.799 19.285 19.502z"/><path d="m254.072 176.144h15v15h-15z"/><path d="m146.572 148.144h15v15h-15z"/><path d="m107.572 227.144h15v15h-15z"/><path d="m206.572 313.144h15v15h-15z"/><path d="m292.572 415.144h15v15h-15z"/><path d="m71.572 389.144h15v15h-15z"/></g></svg>