<svg id="SvgjsSvg1001" width="288" height="288" xmlns="http://www.w3.org/2000/svg" version="1.1" xmlns:xlink="http://www.w3.org/1999/xlink" xmlns:svgjs="http://svgjs.com/svgjs"><defs id="SvgjsDefs1002"></defs><g id="SvgjsG1008"><svg xmlns="http://www.w3.org/2000/svg" enable-background="new 0 0 66 66" viewBox="0 0 66 66" width="288" height="288"><path d="M50.58 16.44c-2.25 0-4.36 1.02-5.77 2.72-1.41-1.7-3.52-2.72-5.77-2.72-4.14 0-7.5 3.37-7.5 7.5 0 6.73 12.24 15.41 12.76 15.77.15.11.33.16.5.16s.35-.05.5-.16c.37-.26 6.66-4.72 10.27-9.69.02-.02.03-.04.04-.05 1.45-2.01 2.46-4.1 2.46-6.02C58.07 19.81 54.71 16.44 50.58 16.44zM44.81 37.92c-2.14-1.56-5.74-4.53-8.35-7.65h3.58c.18 0 .36-.06.5-.16l1 2.87c.12.35.46.59.83.59.02 0 .05 0 .07 0 .4-.03.72-.33.79-.72l.72-4.2.5 1.89c.09.34.38.6.73.64.35.05.7-.12.87-.43l.91-1.58.37.66c.15.28.45.45.76.45h5.06C50.55 33.39 46.95 36.36 44.81 37.92zM54.5 28.52h-5.89l-.87-1.56c-.15-.28-.44-.45-.76-.45 0 0 0 0-.01 0-.31 0-.6.17-.76.44l-.62 1.08-.99-3.73c-.11-.4-.47-.68-.89-.65-.41.02-.75.32-.82.73l-.82 4.81-.39-1.13c-.1-.3-.37-.52-.68-.58-.32-.05-.64.07-.83.32l-.56.71h-4.49c-1.1-1.61-1.83-3.19-1.83-4.58 0-3.17 2.58-5.75 5.75-5.75 2.07 0 3.99 1.12 5 2.93.15.28.45.45.76.45 0 0 0 0 0 0 .32 0 .61-.17.76-.45 1.02-1.81 2.94-2.93 5.01-2.93 3.17 0 5.74 2.58 5.74 5.75C56.32 25.33 55.6 26.92 54.5 28.52zM16.43 39.82c-.34.34-.34.9 0 1.24.54.54 1.26.81 1.97.81s1.43-.27 1.97-.81c.34-.34.34-.9 0-1.24s-.9-.34-1.24 0c-.4.41-1.06.41-1.47 0C17.32 39.48 16.77 39.48 16.43 39.82z" fill="#000000" class="svgShape color000000-0 selectable"></path><circle cx="16.04" cy="36.83" r="1.01" fill="#000000" class="svgShape color000000-1 selectable"></circle><circle cx="20.76" cy="36.83" r="1.01" fill="#000000" class="svgShape color000000-2 selectable"></circle><path d="M44.81 9.13c1.31 0 2.38-1.07 2.38-2.38s-1.07-2.38-2.38-2.38-2.38 1.07-2.38 2.38S43.5 9.13 44.81 9.13zM44.81 6.13c.34 0 .63.28.63.63s-.28.63-.63.63-.63-.28-.63-.63S44.46 6.13 44.81 6.13zM56.6 42.67H33.02c-.48 0-.88.39-.88.88s.39.88.88.88H56.6c.48 0 .88-.39.88-.88S57.08 42.67 56.6 42.67zM56.6 47.85H33.02c-.48 0-.88.39-.88.88s.39.88.88.88H56.6c.48 0 .88-.39.88-.88S57.08 47.85 56.6 47.85zM56.6 53.03H42.79c-.48 0-.88.39-.88.88s.39.88.88.88H56.6c.48 0 .88-.39.88-.88S57.08 53.03 56.6 53.03z" fill="#000000" class="svgShape color000000-3 selectable"></path><path d="M61.86,8.77h-7.35c-0.01-1.59-1.3-2.89-2.9-2.89h-1.24c-0.42-2.69-2.76-4.76-5.56-4.76s-5.14,2.07-5.56,4.76h-1.24
		c-1.59,0-2.89,1.29-2.9,2.89h-7.35c-1.59,0-2.88,1.29-2.88,2.88v11.3c-2.03-1.48-4.04-2.07-6-1.75c-2.76,0.45-4.52,2.58-5.15,3.46
		c-1.04,0.14-3.59,0.67-4.87,2.67c-0.94,1.46-0.97,3.34-0.13,5.57c-0.03,0.23-0.06,0.47-0.09,0.69c-0.18,0-0.37,0.03-0.55,0.08
		c-0.74,0.21-1.32,0.84-1.59,1.72c-0.23,0.76-0.21,1.66,0.04,2.53c0.25,0.88,0.71,1.64,1.31,2.17c0.6,0.53,1.31,0.77,1.97,0.68
		c0.87,1.86,2.17,3.66,3.78,4.93v1.81c-0.93,0.27-1.84,0.62-2.7,1.04c-5.42,2.64-9.11,7.99-9.63,13.96
		c-0.05,0.61,0.15,1.22,0.57,1.67c0.41,0.44,0.98,0.7,1.58,0.7h29.96c0.6,0,1.18-0.25,1.58-0.7c0.41-0.45,0.62-1.06,0.57-1.67
		c-0.05-0.63-0.15-1.26-0.28-1.87h26.61c1.59,0,2.88-1.29,2.88-2.88V11.64C64.74,10.06,63.45,8.77,61.86,8.77z M36.86,8.78
		c0-0.63,0.52-1.15,1.15-1.15h2.05c0.48,0,0.88-0.39,0.88-0.88c0-2.14,1.74-3.88,3.88-3.88s3.88,1.74,3.88,3.88
		c0,0.48,0.39,0.88,0.88,0.88h2.05c0.63,0,1.15,0.52,1.15,1.15v3.66h-15.9V8.78z M10.33,28.27c1.11-1.74,3.92-1.92,3.95-1.92
		c0.29-0.02,0.56-0.18,0.71-0.43c0.02-0.03,1.55-2.58,4.18-3.01c1.73-0.28,3.59,0.43,5.53,2.11c2.83,2.45,2.64,5.84,2.18,7.89
		c-0.98-1.11-2.61-2.13-5.12-2.13c-0.06,0-0.13,0-0.19,0c-3.96,0-6.37-2.59-6.4-2.61c-0.19-0.21-0.48-0.32-0.76-0.28
		c-0.28,0.04-0.53,0.21-0.67,0.47c-1.36,2.62-2.82,3.32-3.52,3.51C9.72,30.36,9.76,29.16,10.33,28.27z M11.09,39.31
		c-0.1-0.26-0.32-0.46-0.59-0.53c-0.07-0.02-0.15-0.03-0.22-0.03c-0.2,0-0.39,0.07-0.55,0.2c-0.08,0.06-0.11,0.07-0.11,0.07
		C9.46,39.07,9.23,38.97,9,38.77c-0.34-0.3-0.62-0.79-0.78-1.34c-0.16-0.55-0.17-1.11-0.04-1.55c0.09-0.29,0.23-0.5,0.39-0.54
		c0.13-0.04,0.29,0.03,0.4,0.09c0.26,0.15,0.58,0.16,0.85,0.02c0.27-0.14,0.44-0.41,0.46-0.72c0.02-0.25,0.06-0.67,0.11-1.14
		c1.03-0.2,2.75-0.94,4.33-3.46c1.2,0.96,3.57,2.42,6.94,2.4c3.7-0.04,4.57,2.63,4.6,2.74c0,0.02,0.02,0.03,0.02,0.05
		c0.01,0.03,0.02,0.05,0.04,0.08c0.03,0.07,0.07,0.13,0.12,0.19c0.02,0.03,0.04,0.05,0.07,0.07c0.06,0.06,0.13,0.11,0.2,0.15
		c0.02,0.01,0.03,0.02,0.04,0.03c0,0,0.01,0,0.01,0c0.09,0.04,0.18,0.06,0.27,0.07c0.01,0,0.03,0,0.04,0c0.01,0,0.02,0.01,0.03,0.01
		c0.03,0,0.06-0.01,0.09-0.01c0.04,0,0.08-0.01,0.11-0.02c0.04-0.01,0.08-0.02,0.11-0.04c0.04-0.01,0.07-0.03,0.11-0.05
		c0.04-0.02,0.07-0.04,0.1-0.07c0.03-0.02,0.06-0.05,0.09-0.08c0.03-0.03,0.05-0.06,0.08-0.09c0.01-0.02,0.03-0.03,0.04-0.05
		c0.02-0.01,0.03-0.02,0.05-0.03c0.06-0.04,0.11-0.08,0.15-0.13c0.06-0.01,0.12-0.02,0.18,0c0.16,0.04,0.3,0.25,0.39,0.54
		c0.13,0.43,0.11,1-0.04,1.55c-0.16,0.55-0.44,1.04-0.78,1.34c-0.23,0.2-0.46,0.3-0.62,0.25c0,0-0.03-0.01-0.11-0.07
		c-0.22-0.18-0.5-0.24-0.77-0.17c-0.27,0.07-0.49,0.27-0.59,0.53c-1.26,3.21-4.01,6.46-7.3,6.46S12.36,42.52,11.09,39.31z
		 M24.88,48.1c-0.55-0.22-1.11-0.43-1.68-0.6V45.7c0.61-0.48,1.17-1.03,1.68-1.64V48.1z M14.69,49.02c0.39-0.1,0.66-0.45,0.66-0.85
		v-1.38c0.95,0.45,1.97,0.72,3.05,0.72c1.08,0,2.1-0.27,3.05-0.72v1.38c0,0.4,0.27,0.75,0.66,0.85c0.78,0.2,1.53,0.47,2.26,0.77
		c-1.11,2.26-3.41,3.74-5.97,3.74s-4.86-1.48-5.97-3.74C13.16,49.49,13.91,49.22,14.69,49.02z M33.67,63
		c-0.05,0.06-0.15,0.13-0.29,0.13H3.42c-0.14,0-0.24-0.07-0.29-0.13C3.08,62.94,3,62.83,3.01,62.66c0.44-5.05,3.41-9.61,7.83-12.1
		c1.4,2.87,4.32,4.73,7.56,4.73s6.17-1.87,7.56-4.73c4.42,2.49,7.39,7.05,7.83,12.1C33.8,62.83,33.72,62.94,33.67,63z M62.99,57.76
		c0,0.62-0.5,1.13-1.13,1.13H34.8c-1.32-4.2-4.24-7.8-8.17-9.95v-7.46c0.12-0.23,0.24-0.47,0.35-0.71c0.66,0.08,1.37-0.15,1.97-0.68
		c0.59-0.52,1.06-1.29,1.31-2.17c0.25-0.88,0.26-1.77,0.04-2.53c-0.26-0.88-0.84-1.51-1.59-1.72c-0.08-0.02-0.15-0.03-0.23-0.04
		c0.54-2.22,0.9-6.09-1.84-9.13V11.64c0-0.62,0.5-1.13,1.13-1.13h7.35v2.8c0,0.48,0.39,0.88,0.88,0.88h17.65
		c0.48,0,0.88-0.39,0.88-0.88v-2.8h7.35c0.62,0,1.13,0.5,1.13,1.13V57.76z" fill="#000000" class="svgShape color000000-4 selectable"></path></svg></g></svg>