<?xml version="1.0" encoding="UTF-8"?>
<svg xmlns="http://www.w3.org/2000/svg" id="Layer_1" data-name="Layer 1" viewBox="0 0 64 64" width="512" height="512"><ellipse cx="36" cy="27.46" rx="1" ry="1.46"/><ellipse cx="46" cy="27.46" rx="1" ry="1.46"/><path d="M41,34.746c2.1,0,3.75-1.206,3.75-2.746a.75.75,0,0,0-1.5,0c0,.589-.924,1.246-2.25,1.246S38.75,32.589,38.75,32a.75.75,0,0,0-1.5,0C37.25,33.54,38.9,34.746,41,34.746Z"/><path d="M3.483,44.423,9.15,47.662l3.888,13.609A1,1,0,0,0,14,62H61a1,1,0,0,0,.979-1.2L59.8,50.242A13.382,13.382,0,0,0,62,44a6.989,6.989,0,0,0-2.479-5.341,3.977,3.977,0,0,0-.711-7.576,32.409,32.409,0,0,1-.81-7.2V19.447A17.208,17.208,0,0,0,41.82,2.015c-.291-.014-1.349-.014-1.64,0A17.208,17.208,0,0,0,24,19.447v4.434a32.409,32.409,0,0,1-.81,7.2A4.02,4.02,0,0,0,21.1,32.242a3.96,3.96,0,0,0,1.38,6.413A6.989,6.989,0,0,0,20,44a14.492,14.492,0,0,0,1.786,5.9l-.959,4.517-3.779-7.558.707-3.536a2.506,2.506,0,0,0-4.23-2.263l-.766.766L6.037,39.134a2.944,2.944,0,0,0-2.554,5.289Zm32.833,5.628-2.428-.809-.758-4.55,2.36-.551L40,52.259v3.123l-3.777-1.888.725-2.178A1,1,0,0,0,36.316,50.051ZM32,23h6.319a5.6,5.6,0,0,0,5.44-4.222l.928-3.26,1.105,3.927A4.673,4.673,0,0,0,50,22.971v4.91a9,9,0,0,1-9.559,8.983A9.217,9.217,0,0,1,32,27.49ZM45.052,51.316l.725,2.178L42,55.382V52.259l4.506-8.111,2.359.572-.753,4.518-2.429.814A1,1,0,0,0,45.052,51.316ZM41,49.941l-2.937-5.286a13.98,13.98,0,0,0,5.874,0ZM40.322,38.86c.23.015.459.021.687.021A10.964,10.964,0,0,0,45,38.134v4.155a12.371,12.371,0,0,1-8,0V38.1A10.556,10.556,0,0,0,40.322,38.86ZM55,60V56a1,1,0,0,0-2,0v4H42V57.618L47.447,54.9a1,1,0,0,0,.5-1.211l-.683-2.053,2.052-.687a1,1,0,0,0,.669-.784l.828-4.966,5.669,1.376a1.052,1.052,0,0,1,.723.951L59.773,60ZM27,39a1,1,0,1,0,0-2H24.17A2.119,2.119,0,0,1,22,35.1,2,2,0,0,1,24,33a1,1,0,0,0,.97-.758A34.473,34.473,0,0,0,26,23.881V19.447A15.212,15.212,0,0,1,40.273,4.013C40.5,4,41.5,4,41.727,4.013A15.212,15.212,0,0,1,56,19.447v4.434a34.473,34.473,0,0,0,1.03,8.357A1,1,0,0,0,58,33,2,2,0,0,1,60,35.1,2.119,2.119,0,0,1,57.83,37H55a1,1,0,0,0,0,2,5.006,5.006,0,0,1,5,5,8.742,8.742,0,0,1-.83,3.165,3.01,3.01,0,0,0-2.162-2.52L47,42.209V37.1a11.192,11.192,0,0,0,1.54-1.208A11.05,11.05,0,0,0,52,27.881V23h1a1,1,0,0,0,0-2H50.345a2.694,2.694,0,0,1-2.619-2.068l-2.071-7.357a1,1,0,0,0-.961-.729h0a1,1,0,0,0-.962.726l-1.9,6.689A3.611,3.611,0,0,1,38.319,21H29a1,1,0,0,0,0,2h1v4.49a11.5,11.5,0,0,0,5,9.544V42.2L24.484,44.655a2.988,2.988,0,0,0-1.96,1.875A8.04,8.04,0,0,1,22,44,5.006,5.006,0,0,1,27,39Zm-2.665,8.531a.9.9,0,0,0,.016-.1A.988.988,0,0,1,25,46.587l6.18-1.441.836,5.018a1,1,0,0,0,.67.785l2.051.683-.683,2.052a1,1,0,0,0,.5,1.211L40,57.618V60H29V56a1,1,0,0,0-2,0v4H23.618l-1.356-2.713ZM4.415,41.085a.923.923,0,0,1,.88-.094l7.334,2.933a1,1,0,0,0,1.078-.221l1.232-1.233a.507.507,0,0,1,.855.457L15.02,46.8a1,1,0,0,0,.085.644L21.382,60H14.754L10.962,46.721a1,1,0,0,0-.466-.594l-6.02-3.44A.948.948,0,0,1,4,41.867.932.932,0,0,1,4.415,41.085Z"/><path d="M13.448,23.772l.965.349a5.1,5.1,0,0,0,6.527-3.066,1,1,0,0,0-.6-1.28l-.965-.349a5.1,5.1,0,0,0-6.188,2.36,8.025,8.025,0,0,0-.69-2.351,1,1,0,1,0-1.81.851,5.955,5.955,0,0,1,.345,4.156,5.974,5.974,0,0,0-1.8-1.049c-3.139-1.133-5.4-.074-6.529,3.065a8.019,8.019,0,0,0,.01,5.013,5.667,5.667,0,0,0,3.324,3.791,5.027,5.027,0,0,0,2.071.3,5.006,5.006,0,0,0,1.786,1.091,4.57,4.57,0,0,0,1.564.268,7.74,7.74,0,0,0,6.623-4.914,5.192,5.192,0,0,0,.082-3.983,5.153,5.153,0,0,0-3.147-2.545h0a5.976,5.976,0,0,0-2.1-.344,7.967,7.967,0,0,0,.3-1.507A.957.957,0,0,0,13.448,23.772Zm5.114-2.509a3.105,3.105,0,0,1-3.336,1.022A3.1,3.1,0,0,1,18.562,21.263Zm-4.228,6.1a3.285,3.285,0,0,1,2.008,1.5,3.328,3.328,0,0,1-.145,2.47c-.771,2.134-3.571,4.189-5.628,3.444a2.9,2.9,0,0,1-1.306-.9,1,1,0,0,0-.776-.369.989.989,0,0,0-.194.019,2.883,2.883,0,0,1-1.579-.141,3.782,3.782,0,0,1-2.1-2.527,6.04,6.04,0,0,1-.032-3.717c.758-2.1,1.867-2.62,3.969-1.863a4.074,4.074,0,0,1,2.037,1.634,1,1,0,0,0,1.134.409A4.082,4.082,0,0,1,14.334,27.361Z"/></svg>
