<svg id="SvgjsSvg1066" width="288" height="288" xmlns="http://www.w3.org/2000/svg" version="1.1" xmlns:xlink="http://www.w3.org/1999/xlink" xmlns:svgjs="http://svgjs.com/svgjs"><defs id="SvgjsDefs1067"></defs><g id="SvgjsG1068"><svg xmlns="http://www.w3.org/2000/svg" viewBox="0 0 64 64" width="288" height="288"><path d="m56,10c-.55,0-1,.45-1,1s.45,1,1,1c1.65,0,3,1.35,3,3v27h-7V3c0-.55-.45-1-1-1H13c-.55,0-1,.45-1,1v39h-7V15c0-1.65,1.35-3,3-3,.55,0,1-.45,1-1s-.45-1-1-1c-2.76,0-5,2.24-5,5v30c0,2.76,2.24,5,5,5h17v6h-1c-2.76,0-5,2.24-5,5,0,.55.45,1,1,1h24c.55,0,1-.45,1-1,0-2.76-2.24-5-5-5h-1v-6h17c2.76,0,5-2.24,5-5V15c0-2.76-2.24-5-5-5ZM14,4h36v38H14V4Zm26,54c1.3,0,2.42.84,2.83,2h-21.66c.41-1.16,1.53-2,2.83-2h16Zm-13-2v-6h10v6h-10Zm32-11c0,1.65-1.35,3-3,3H8c-1.65,0-3-1.35-3-3v-1h54v1Z" fill="#000000" class="svgShape color000000-0 selectable"></path><path d="M29 20c0 .55.45 1 1 1h4c.55 0 1-.45 1-1v-3h3c.55 0 1-.45 1-1v-4c0-.55-.45-1-1-1h-3v-3c0-.55-.45-1-1-1h-4c-.55 0-1 .45-1 1v3h-3c-.55 0-1 .45-1 1v4c0 .55.45 1 1 1h3v3Zm-2-5v-2h3c.55 0 1-.45 1-1v-3h2v3c0 .55.45 1 1 1h3v2h-3c-.55 0-1 .45-1 1v3h-2v-3c0-.55-.45-1-1-1h-3ZM23.2 23.4l-2.31 3.08-1.18-1.18c-.39-.39-1.02-.39-1.41 0s-.39 1.02 0 1.41l2 2c.19.19.44.29.71.29.02 0 .05 0 .07 0 .29-.02.55-.17.73-.4l3-4c.33-.44.24-1.07-.2-1.4-.44-.33-1.07-.24-1.4.2ZM45 25h-17c-.55 0-1 .45-1 1s.45 1 1 1h17c.55 0 1-.45 1-1s-.45-1-1-1ZM23.2 32.43l-2.31 3.08-1.18-1.18c-.39-.39-1.02-.39-1.41 0s-.39 1.02 0 1.41l2 2c.19.19.44.29.71.29.02 0 .05 0 .07 0 .29-.02.55-.17.73-.4l3-4c.33-.44.24-1.07-.2-1.4-.44-.33-1.07-.24-1.4.2ZM45 34.03h-17c-.55 0-1 .45-1 1s.45 1 1 1h17c.55 0 1-.45 1-1s-.45-1-1-1Z" fill="#dc2626" class="svgShape color000000-1 selectable"></path></svg></g></svg>