<svg width="64" height="64" viewBox="0 0 64 64" fill="none" xmlns="http://www.w3.org/2000/svg">
<path fill-rule="evenodd" clip-rule="evenodd" d="M12 9H16C16.552 9 17 8.552 17 8C17 7.448 16.552 7 16 7H12C11.448 7 11 7.448 11 8C11 8.552 11.448 9 12 9ZM20 9H28C28.552 9 29 8.552 29 8C29 7.448 28.552 7 28 7H20C19.448 7 19 7.448 19 8C19 8.552 19.448 9 20 9ZM12 12.99H28C28.552 12.99 29 12.542 29 11.99C29 11.438 28.552 10.99 28 10.99H12C11.448 10.99 11 11.438 11 11.99C11 12.542 11.448 12.99 12 12.99Z" fill="#A5D827"/>
<path fill-rule="evenodd" clip-rule="evenodd" d="M55.057 37.8309C55.669 37.4229 56.037 36.7359 56.037 35.9999C56.037 35.2639 55.669 34.5769 55.057 34.1689L52.42 32.4119C51.745 31.9619 50.877 31.9199 50.162 32.3029C49.447 32.6849 49 33.4309 49 34.2419C49 35.3409 49 36.6589 49 37.7579C49 38.5689 49.447 39.3149 50.162 39.6969C50.877 40.0799 51.745 40.0379 52.42 39.5879L55.057 37.8309ZM53.948 36.1659L51.311 37.9239C51.25 37.9649 51.171 37.9689 51.106 37.9339C51.041 37.8989 51 37.8319 51 37.7579V34.2419C51 34.1679 51.041 34.1009 51.106 34.0659C51.171 34.0309 51.25 34.0349 51.311 34.0759L53.948 35.8339C54.003 35.8709 54.037 35.9329 54.037 35.9999C54.037 36.0669 54.003 36.1289 53.948 36.1659Z" fill="#A5D827"/>
<path fill-rule="evenodd" clip-rule="evenodd" d="M10 31C8.344 31 7 32.344 7 34C7 35.656 8.344 37 10 37C11.656 37 13 35.656 13 34C13 32.344 11.656 31 10 31ZM10 33C10.552 33 11 33.448 11 34C11 34.552 10.552 35 10 35C9.448 35 9 34.552 9 34C9 33.448 9.448 33 10 33Z" fill="#A5D827"/>
<path fill-rule="evenodd" clip-rule="evenodd" d="M7 11.1V6C7 5.204 7.316 4.441 7.879 3.879C8.441 3.316 9.204 3 10 3C14.52 3 25.48 3 30 3C30.796 3 31.559 3.316 32.121 3.879C32.684 4.441 33 5.204 33 6V11H35V10C35 9.204 35.316 8.441 35.879 7.879C36.441 7.316 37.205 7 38 7C41.832 7 50.168 7 54 7C54.796 7 55.559 7.316 56.121 7.879C56.684 8.441 57 9.204 57 10V11.1C59.282 11.563 61 13.581 61 16V48C61 50.761 58.761 53 56 53H37.172C37.319 53.418 37.559 53.802 37.879 54.121C38.441 54.684 39.204 55 40 55H42C42.796 55 43.559 55.316 44.121 55.879C44.684 56.441 45 57.204 45 58C45 58.796 44.684 59.559 44.121 60.121C43.559 60.684 42.796 61 42 61C37.48 61 26.52 61 22 61C21.204 61 20.441 60.684 19.879 60.121C19.316 59.559 19 58.796 19 58C19 57.204 19.316 56.441 19.879 55.879C20.441 55.316 21.204 55 22 55H24C24.796 55 25.559 54.684 26.121 54.121C26.441 53.802 26.681 53.418 26.828 53H8C5.239 53 3 50.761 3 48V16C3 13.581 4.718 11.563 7 11.1ZM43 58C43 57.735 42.895 57.48 42.707 57.293C42.52 57.105 42.265 57 42 57H22C21.735 57 21.48 57.105 21.293 57.293C21.105 57.48 21 57.735 21 58C21 58.265 21.105 58.52 21.293 58.707C21.48 58.895 21.735 59 22 59H42C42.265 59 42.52 58.895 42.707 58.707C42.895 58.52 43 58.265 43 58ZM36 55C35.555 54.407 35.249 53.724 35.101 53H28.899C28.751 53.724 28.445 54.407 28 55H36ZM59 41.655C58.43 42.359 57.755 42.977 57 43.483V46C57 46.796 56.684 47.559 56.121 48.121C55.559 48.684 54.796 49 54 49H10C9.204 49 8.441 48.684 7.879 48.121C7.316 47.559 7 46.796 7 46V44.9C6.261 44.75 5.581 44.437 5 44V48C5 49.657 6.343 51 8 51H56C57.657 51 59 49.657 59 48V41.655ZM15.502 17H10C9.735 17 9.48 17.105 9.293 17.293C9.105 17.48 9 17.735 9 18V27H16C18.761 27 21 29.239 21 32V40C21 42.761 18.761 45 16 45H9V46C9 46.265 9.105 46.52 9.293 46.707C9.48 46.895 9.735 47 10 47H54C54.265 47 54.52 46.895 54.707 46.707C54.895 46.52 55 46.265 55 46V44.487C54.061 44.819 53.052 45 52 45C47.033 45 43 40.967 43 36C43 31.033 47.033 27 52 27C53.052 27 54.061 27.181 55 27.513V24.828C54.682 24.941 54.344 25 54 25C50.168 25 41.832 25 38 25C37.205 25 36.441 24.684 35.879 24.121C35.316 23.559 35 22.796 35 22V17H24.498L22.395 19.787C21.828 20.538 20.941 20.98 20 20.98C19.059 20.98 18.172 20.538 17.605 19.787L15.502 17ZM59 36C59 39.863 55.863 43 52 43C48.137 43 45 39.863 45 36C45 32.137 48.137 29 52 29C55.863 29 59 32.137 59 36ZM18.975 40.389L16.707 38.121C16.52 37.934 16.265 37.828 16 37.828C15.735 37.828 15.48 37.934 15.293 38.121L10.414 43H16C17.525 43 18.784 41.862 18.975 40.389ZM19 37.586V32C19 30.343 17.657 29 16 29H8C6.343 29 5 30.343 5 32V40C5 41.525 6.13799 42.784 7.61099 42.975L13.879 36.707C14.441 36.145 15.204 35.828 16 35.828C16.796 35.828 17.559 36.145 18.121 36.707L19 37.586ZM57 13.171V28.517C57.755 29.023 58.43 29.64 59 30.345V16C59 14.694 58.165 13.583 57 13.171ZM7 13.171C5.835 13.582 5 14.694 5 16V28C5.581 27.563 6.261 27.25 7 27.1V18C7 17.26 7.27301 16.548 7.76401 16C7.27301 15.452 7 14.74 7 14V13.171ZM55 21.984C54.995 21.681 54.852 21.389 54.6 21.2L49.334 17.25L47.8 18.4C46.734 19.2 45.267 19.2 44.2 18.4L42.667 17.25L37.4 21.2C37.146 21.391 37.002 21.687 37 21.993V22C37 22.265 37.106 22.52 37.293 22.707C37.481 22.895 37.735 23 38 23H54C54.265 23 54.52 22.895 54.707 22.707C54.891 22.523 54.996 22.275 55 22.015V21.984ZM37 19L41 16L37 13V19ZM55 19V13L51 16L55 19ZM30 15H24C23.686 15 23.391 15.147 23.202 15.398C23.202 15.398 21.913 17.106 20.798 18.582C20.609 18.833 20.314 18.98 20 18.98C19.686 18.98 19.391 18.833 19.202 18.582L16.798 15.398C16.609 15.147 16.314 15 16 15H10C9.735 15 9.48 14.895 9.293 14.707C9.105 14.52 9 14.265 9 14V6C9 5.735 9.105 5.48 9.293 5.293C9.48 5.105 9.735 5 10 5H30C30.265 5 30.52 5.105 30.707 5.293C30.895 5.48 31 5.735 31 6V14C31 14.265 30.895 14.52 30.707 14.707C30.52 14.895 30.265 15 30 15ZM55 10.007V10C55 9.735 54.895 9.48 54.707 9.293C54.52 9.105 54.265 9 54 9H38C37.735 9 37.481 9.105 37.293 9.293C37.106 9.48 37 9.735 37 10V10.007C37.002 10.313 37.146 10.609 37.4 10.8L45.4 16.8C45.756 17.067 46.245 17.067 46.6 16.8L54.6 10.8C54.855 10.609 54.998 10.313 55 10.007ZM32.828 15H35V13H33V14C33 14.344 32.941 14.682 32.828 15Z" fill="black"/>
<path fill-rule="evenodd" clip-rule="evenodd" d="M27 41V42C27 42.796 27.316 43.559 27.879 44.121C28.441 44.684 29.204 45 30 45C31.657 45 33 43.657 33 42V41.011C33.834 41.086 34.583 41.557 35.013 42.277C35.153 43.804 36.437 45 38 45C39.657 45 41 43.657 41 42V30C41 28.343 39.657 27 38 27C36.437 27 35.153 28.196 35.013 29.723C34.543 30.511 33.691 31 32.764 31H26C25.204 31 24.441 31.316 23.879 31.879C23.316 32.441 23 33.204 23 34V38C23 38.796 23.316 39.559 23.879 40.121C24.441 40.684 25.204 41 26 41H27ZM29 41V42C29 42.265 29.105 42.52 29.293 42.707C29.48 42.895 29.735 43 30 43C30.552 43 31 42.552 31 42V41H29ZM38 29C37.448 29 37 29.448 37 30V42C37 42.552 37.448 43 38 43C38.552 43 39 42.552 39 42V30C39 29.448 38.552 29 38 29ZM29 39H32.764C33.562 39 34.328 39.205 35 39.577V32.423C34.328 32.795 33.562 33 32.764 33H29V39ZM27 33H26C25.735 33 25.48 33.105 25.293 33.293C25.105 33.48 25 33.735 25 34V38C25 38.265 25.105 38.52 25.293 38.707C25.48 38.895 25.735 39 26 39H27V33Z" fill="#A5D827"/>
</svg>
