<svg xmlns="http://www.w3.org/2000/svg" viewBox="0 0 64 64" id="doctor">
  <g>
    <g id="Outline">
      <g>
        <path d="M53.89001 37.25c.69-.72003 1.10999-1.67999 1.10999-2.75 0-2.21002-1.78998-4-4-4s-4 1.78998-4 4c0 1.07001.41998 2.02997 1.10999 2.75-1.84998 1.01996-3.10999 2.98999-3.10999 5.25h-3c-1.65002 0-3 1.34998-3 3 0 .34998.07001.69.17999 1h-5.17999c-.54999 0-1 .45001-1 1s.45001 1 1 1h11v4h-26v-4h11c.54999 0 1-.45001 1-1s-.45001-1-1-1h-5.17999c.10999-.31.17999-.65002.17999-1 0-1.65002-1.34998-3-3-3h-3c0-2.26001-1.26001-4.23004-3.10999-5.25.69-.72003 1.10999-1.67999 1.10999-2.75 0-2.21002-1.78998-4-4-4s-4 1.78998-4 4c0 1.07001.41998 2.02997 1.10999 2.75-1.84998 1.01996-3.10999 2.98999-3.10999 5.25v11c0 .54999.45001 1 1 1h48c.54999 0 1-.45001 1-1v-11c0-2.26001-1.26001-4.23004-3.10999-5.25ZM13 32.5c1.09998 0 2 .89996 2 2 0 1.09998-.90002 2-2 2s-2-.90002-2-2c0-1.10004.90002-2 2-2ZM17 52.5h-8v-10c0-2.21002 1.78998-4 4-4s4 1.78998 4 4v1c0 .54999.45001 1 1 1h4c.54999 0 1 .45001 1 1s-.45001 1-1 1h-7c-1.09998 0-2-.90002-2-2 0-.54999-.45001-1-1-1s-1 .45001-1 1c0 2.20996 1.78998 4 4 4h2v4ZM51 32.5c1.09998 0 2 .89996 2 2 0 1.09998-.90002 2-2 2s-2-.90002-2-2c0-1.10004.90002-2 2-2ZM55 52.5h-8v-4h2c2.21002 0 4-1.79004 4-4 0-.54999-.45001-1-1-1s-1 .45001-1 1c0 1.09998-.90002 2-2 2h-7c-.54999 0-1-.45001-1-1s.45001-1 1-1h4c.54999 0 1-.45001 1-1v-1c0-2.21002 1.78998-4 4-4s4 1.78998 4 4v10ZM25 22.5v2c0 .55225.44727 1 1 1h4c.55273 0 1-.44775 1-1v-2h2c.55273 0 1-.44775 1-1v-4c0-.55225-.44727-1-1-1h-2v-2c0-.55225-.44727-1-1-1h-4c-.55273 0-1 .44775-1 1v2h-2c-.55273 0-1 .44775-1 1v4c0 .55225.44727 1 1 1h2ZM24 18.5h2c.55273 0 1-.44775 1-1v-2h2v2c0 .55225.44727 1 1 1h2v2h-2c-.55273 0-1 .44775-1 1v2h-2v-2c0-.55225-.44727-1-1-1h-2v-2Z"></path>
        <path d="M18.62217,33.41183c.34944.14502.77598.10408,1.08486-.2048l3.70703-3.70703h17.17188l3.70701,3.70701c.61633.61633,1.70705.16016,1.70706-.70701v-8c0-.55225-.44727-1-1-1s-1,.44775-1,1v5.58594l-2.29297-2.29297c-.1875-.1875-.44141-.29297-.70703-.29297h-5.58594l2.29297-2.29297c.1875-.1875.29297-.44189.29297-.70703v-9h2.58594l3.41406,3.41406v1.58594c0,.55225.44727,1,1,1s1-.44775,1-1v-2c0-.26514-.10547-.51953-.29297-.70703l-4-4c-.1875-.1875-.44141-.29297-.70703-.29297h-3.58594l-3.70703-3.70703c-.1875-.1875-.44141-.29297-.70703-.29297h-10c-.26562,0-.51953.10547-.70703.29297l-4,4c-.1875.1875-.29297.44189-.29297.70703v17.99988c0,.43545.27247.76682.62217.91194ZM20,14.91406l3.41406-3.41406h9.17188l3.41406,3.41406v9.17188l-3.41406,3.41406h-9.58594c-.26562,0-.51953.10547-.70703.29297l-2.29297,2.29297v-15.17188Z"></path>
      </g>
    </g>
  </g>
</svg>
