<svg id="SvgjsSvg1001" width="288" height="288" xmlns="http://www.w3.org/2000/svg" version="1.1" xmlns:xlink="http://www.w3.org/1999/xlink" xmlns:svgjs="http://svgjs.com/svgjs"><defs id="SvgjsDefs1002"></defs><g id="SvgjsG1008"><svg xmlns="http://www.w3.org/2000/svg" viewBox="0 0 64 64" width="288" height="288"><path d="M61,18H58V16a1,1,0,0,0-2,0v2H54V5a5.006,5.006,0,0,0-5-5H5A5.006,5.006,0,0,0,0,5V59a5.006,5.006,0,0,0,5,5H49a5.006,5.006,0,0,0,5-5V46h7a3,3,0,0,0,3-3V21A3,3,0,0,0,61,18ZM52,50H13a1,1,0,0,0,0,2H52v7a3,3,0,0,1-3,3H5a3,3,0,0,1-3-3V52H9a1,1,0,0,0,0-2H2V5A3,3,0,0,1,5,2H49a3,3,0,0,1,3,3V18H42V16a1,1,0,0,0-2,0v2H37a3,3,0,0,0-3,3V43a3,3,0,0,0,3,3H52Zm9-6H37a1,1,0,0,1-1-1V26H55a1,1,0,0,0,0-2H36V21a1,1,0,0,1,1-1h3v2a1,1,0,0,0,2,0V20H56v2a1,1,0,0,0,2,0V20h3a1,1,0,0,1,1,1v3H59a1,1,0,0,0,0,2h3V43A1,1,0,0,1,61,44Z" fill="#000000" class="svgShape color000000-0 selectable"></path><path d="M43 28H39a1 1 0 00-1 1v4a1 1 0 001 1h4a1 1 0 001-1V29A1 1 0 0043 28zm-1 4H40V30h2zM51 28H47a1 1 0 00-1 1v4a1 1 0 001 1h4a1 1 0 001-1V29A1 1 0 0051 28zm-1 4H48V30h2zM59 28H55a1 1 0 00-1 1v4a1 1 0 001 1h4a1 1 0 001-1V29A1 1 0 0059 28zm-1 4H56V30h2zM43 36H39a1 1 0 00-1 1v4a1 1 0 001 1h4a1 1 0 001-1V37A1 1 0 0043 36zm-1 4H40V38h2zM51 36H47a1 1 0 00-1 1v4a1 1 0 001 1h4a1 1 0 001-1V37A1 1 0 0051 36zm-1 4H48V38h2zM59.707 36.293a1 1 0 00-1.414 0L57 37.586l-1.293-1.293a1 1 0 00-1.414 1.414L55.586 39l-1.293 1.293a1 1 0 101.414 1.414L57 40.414l1.293 1.293a1 1 0 001.414-1.414L58.414 39l1.293-1.293A1 1 0 0059.707 36.293zM27 18H22V13a1 1 0 00-1-1H15a1 1 0 00-1 1v5H9a1 1 0 00-1 1v6a1 1 0 001 1h5v5a1 1 0 001 1h6a1 1 0 001-1V26h5a1 1 0 001-1V19A1 1 0 0027 18zm-1 6H21a1 1 0 00-1 1v5H16V25a1 1 0 00-1-1H10V20h5a1 1 0 001-1V14h4v5a1 1 0 001 1h5zM27 60a3 3 0 10-3-3A3 3 0 0027 60zm0-4a1 1 0 11-1 1A1 1 0 0127 56z" fill="#dc2626" class="svgShape color000000-1 selectable"></path><path d="M27 8H9a5.006 5.006 0 00-5 5V31a5.006 5.006 0 005 5h7.861l13.865 3.961A.955.955 0 0031 40a1 1 0 00.707-1.707L28.994 35.58A5 5 0 0032 31V13A5.006 5.006 0 0027 8zm3 23a3 3 0 01-3 3 1.01 1.01 0 00-.382.077 1 1 0 00-.324 1.631l1.27 1.271-10.29-2.94a.907.907 0 00-.138-.012A1.022 1.022 0 0017 34H9a3 3 0 01-3-3V13a3 3 0 013-3H27a3 3 0 013 3zM29 6h6a1 1 0 000-2H29a1 1 0 000 2zM23 6h2a1 1 0 000-2H23a1 1 0 000 2zM25 40H15a1 1 0 000 2H25a1 1 0 000-2zM25 44H9a1 1 0 000 2H25a1 1 0 000-2z" fill="#000000" class="svgShape color000000-2 selectable"></path></svg></g></svg>