<svg id="SvgjsSvg1019" width="288" height="288" xmlns="http://www.w3.org/2000/svg" version="1.1" xmlns:xlink="http://www.w3.org/1999/xlink" xmlns:svgjs="http://svgjs.com/svgjs"><defs id="SvgjsDefs1020"></defs><g id="SvgjsG1021"><svg xmlns="http://www.w3.org/2000/svg" viewBox="0 0 128 128" width="288" height="288"><path d="M63.97 69.045a6.8 6.8 0 0 1-4.435-1.845 1.4 1.4 0 1 1 1.82-2.116c1.833 1.577 3.4 1.577 5.229 0A1.4 1.4 0 1 1 68.4 67.2a6.8 6.8 0 0 1-4.43 1.845zM53.511 54.431a4.378 4.378 0 0 0-2.474-1.465 12.415 12.415 0 0 0-3.183-.192 25.412 25.412 0 0 0-3.27.556c-1.077.264-2.225.617-3.105.888l-.259.08a.613.613 0 0 1-.729-.857A4.227 4.227 0 0 1 42 51.813a10.382 10.382 0 0 1 1.778-.92 11.6 11.6 0 0 1 7.983-.422 6.144 6.144 0 0 1 1.987 1.087 6.392 6.392 0 0 1 1.347 1.67l.017.03a1 1 0 0 1-1.6 1.173z" fill="#000000" class="svgShape color000000-0 selectable"></path><path d="M120.011 125.517c-.065-.4-.781-4.077-5.814-8.788-3.474-3.252-10.571-5.423-17.435-7.522-4.665-1.427-9.073-2.775-11.458-4.232-6.531-3.992-6.638-9.71-6.617-12.929a50.326 50.326 0 0 0 6.374-5.337c3.252-3.151 5.826-7.742 7.642-13.44 5.178-.047 9.873-5.161 10.7-10.144.559-3.369-.042-6.14-1.737-8.015a6.521 6.521 0 0 0-.929-.838 3.165 3.165 0 0 0 .917-2.148c.027-.821.094-1.96.174-3.337.585-9.977 1.8-30.737-5.291-37.392-5.33-5-19.3-10.4-32.568-10.4S36.731 6.393 31.4 11.4c-7.089 6.654-5.875 27.413-5.291 37.389.081 1.378.148 2.518.174 3.34a3.162 3.162 0 0 0 .918 2.148 6.638 6.638 0 0 0-.929.838c-1.7 1.875-2.3 4.646-1.737 8.015.827 4.982 5.519 10.094 10.7 10.144 1.816 5.7 4.393 10.288 7.645 13.44a50.156 50.156 0 0 0 6.435 5.38c.02 3.227-.115 8.911-6.617 12.886-2.385 1.457-6.793 2.805-11.458 4.232-6.864 2.1-13.961 4.27-17.435 7.522-5.033 4.711-5.749 8.385-5.814 8.788a1.5 1.5 0 0 0 1.481 1.73 1.511 1.511 0 0 0 1.477-1.234c.006-.03.618-3.079 4.906-7.094 2.966-2.776 10.03-4.937 16.262-6.843 4.853-1.484 9.436-2.886 12.145-4.542a16 16 0 0 0 8.018-13.6 35.3 35.3 0 0 0 9.22 3.555 10.876 10.876 0 0 0 4.947 0 35.279 35.279 0 0 0 9.277-3.6 16.01 16.01 0 0 0 8.02 13.637c2.709 1.656 7.292 3.058 12.145 4.542 6.232 1.906 13.3 4.067 16.262 6.843 4.288 4.015 4.9 7.064 4.9 7.076a1.5 1.5 0 1 0 2.962-.478Zm-19.567-62.884c-.555 3.348-3.592 6.924-6.861 7.532a68.073 68.073 0 0 0 1.51-8.031 3.046 3.046 0 0 1 2.462-.929 1.5 1.5 0 0 0 .289-2.987 5.335 5.335 0 0 0-2.362.347c.082-.961.152-1.936.2-2.927a5.217 5.217 0 0 1 3.756 1.485c1.343 1.477 1.288 3.814 1.006 5.51Zm-66.99-49.05c4.913-4.612 17.977-9.589 30.516-9.589s25.6 4.977 30.515 9.589c6.067 5.693 4.864 26.25 4.349 35.028-.082 1.41-.15 2.577-.177 3.417 0 .156-.22.281-.4.359a3.248 3.248 0 0 1-2.916-.315c-5.642-4.965-17.221-13.3-31.372-13.3s-25.73 8.33-31.373 13.3a3.253 3.253 0 0 1-2.915.315c-.18-.078-.394-.2-.4-.359-.026-.84-.094-2.008-.177-3.42-.513-8.777-1.715-29.332 4.35-35.025ZM27.5 62.633c-.283-1.7-.337-4.03 1-5.51a5.218 5.218 0 0 1 3.754-1.485c.052.985.135 1.939.217 2.894a5.529 5.529 0 0 0-2.373-.314 1.5 1.5 0 0 0 .289 2.987 3.017 3.017 0 0 1 2.476.951 68.809 68.809 0 0 0 1.5 8.014c-3.272-.613-6.312-4.189-6.863-7.537Zm38.26 31.941a7.84 7.84 0 0 1-3.573 0C54.205 92.7 49.193 88.65 44.966 84.555c-5.759-5.58-9.266-16.833-9.778-30.755C40.7 49.078 51.275 41.777 63.97 41.777S87.239 49.08 92.754 53.8c-.511 13.921-4.022 25.172-9.781 30.752-4.227 4.098-9.238 8.148-17.217 10.022Z" fill="#000000" class="svgShape color000000-1 selectable"></path><path d="M57.492 44.945a32.274 32.274 0 0 0-4.969-1.32 29.164 29.164 0 0 0-4.743-.47c-2.265 1.492-4.591 2.917-6.905 4.345a21.113 21.113 0 0 1 2.039-.66l1.1-.269c.376-.074.756-.148 1.07-.19a13.13 13.13 0 0 1 2.207-.054 36.25 36.25 0 0 1 4.662.524c1.563.257 3.119.6 4.669.966l.025.006a1.5 1.5 0 0 0 .84-2.878zm15.414 8.283a6.392 6.392 0 0 1 1.347-1.67 6.144 6.144 0 0 1 1.987-1.087 11.6 11.6 0 0 1 7.982.422 10.354 10.354 0 0 1 1.779.92 4.227 4.227 0 0 1 1.511 1.628.612.612 0 0 1-.727.857l-.261-.08c-.881-.271-2.028-.624-3.105-.888a25.4 25.4 0 0 0-3.271-.556 12.41 12.41 0 0 0-3.182.192 4.378 4.378 0 0 0-2.474 1.465 1 1 0 0 1-1.6-1.173zm12.513-6.484a17.44 17.44 0 0 1-3.931-3.562c-.274-.014-.55-.033-.821-.037a28.677 28.677 0 0 0-5.187.48 32.317 32.317 0 0 0-4.97 1.32 1.5 1.5 0 0 0 .848 2.876h.018c1.55-.37 3.106-.709 4.669-.966a36.25 36.25 0 0 1 4.662-.524 13.13 13.13 0 0 1 2.207.054c.314.042.694.116 1.07.19l1.105.269c.3.079.594.17.891.264-.187-.124-.38-.238-.561-.364z" fill="#000000" class="svgShape color000000-2 selectable"></path><path d="M90.352 53.347a5.83 5.83 0 0 0-3.968-3.005c-2.86-.693-11.855-.374-12.814-.336-2.507 0-4.368.716-5.529 2.126a5.893 5.893 0 0 0-1.233 3.125 11.145 11.145 0 0 0-5.615-.021 5.89 5.89 0 0 0-1.231-3.1c-1.16-1.409-3.019-2.125-5.467-2.125-1.017-.038-10.011-.357-12.872.335a5.831 5.831 0 0 0-3.967 3.005c-1.063 2.067-.99 4.946.2 7.9 1.545 3.834 4.537 4.453 11.1 4.453C58.733 65.7 60 63.939 60.9 59.279l.058-.3c.031-.158.071-.364.111-.6a8.9 8.9 0 0 1 5.864.018c.039.231.077.431.107.585l.059.3c.9 4.66 2.168 6.422 11.953 6.422 6.56 0 9.551-.619 11.1-4.453 1.19-2.958 1.263-5.837.2-7.904zM58.016 58.4l-.059.307c-.595 3.066-.774 3.992-9.008 3.992-6.65 0-7.561-.706-8.315-2.575-.839-2.082-.96-4.153-.315-5.406a2.845 2.845 0 0 1 2-1.461 38.04 38.04 0 0 1 6.462-.355c2.219 0 4.414.057 5.647.1 1.568 0 2.649.348 3.213 1.033.671.813.792 2.239.375 4.365zm29.353 1.724c-.754 1.87-1.669 2.576-8.315 2.576-8.234 0-8.413-.926-9.008-3.992l-.059-.306c-.417-2.128-.3-3.554.37-4.363.564-.685 1.645-1.033 3.27-1.034 1.206-.046 3.382-.1 5.591-.1a37.966 37.966 0 0 1 6.46.355 2.845 2.845 0 0 1 2.006 1.461c.645 1.251.524 3.322-.315 5.404zM64 82.822c-3.562 0-7.017-1.769-8.4-4.3a11.627 11.627 0 0 1-.733-1.659 3.758 3.758 0 0 1 .465-3.423 3.43 3.43 0 0 1 2.825-1.49h11.686a3.43 3.43 0 0 1 2.825 1.49 3.757 3.757 0 0 1 .465 3.423 11.7 11.7 0 0 1-.733 1.659c-1.383 2.531-4.837 4.3-8.4 4.3zm-5.843-7.875a.464.464 0 0 0-.374.22.755.755 0 0 0-.089.688 8.433 8.433 0 0 0 .539 1.226c.725 1.329 2.993 2.741 5.767 2.741s5.042-1.412 5.767-2.741a8.683 8.683 0 0 0 .54-1.227.754.754 0 0 0-.09-.687.466.466 0 0 0-.374-.22zm-.612 36.239a29.164 29.164 0 0 1-14.788-3.658 1.5 1.5 0 0 1 1.505-2.6c5.157 2.989 16.64 6.587 35.779-2.7l.879-.425a1.5 1.5 0 0 1 1.28 2.714l-.929.449c-9.629 4.662-17.502 6.22-23.726 6.22z" fill="#dc2626" class="svgShape color000000-3 selectable"></path><path d="M42.477 107.9a8.415 8.415 0 0 1-6.727-4.37 5.025 5.025 0 0 1 2.361-6.674 4.491 4.491 0 0 1 3.786.182 5.554 5.554 0 0 1 2.608 2.862c2.3 5.544.544 7.245-.709 7.765a3.413 3.413 0 0 1-1.319.235Zm-2.7-8.375a1.34 1.34 0 0 0-.516.1 2.079 2.079 0 0 0-.742 2.753c.468 1.127 2.578 2.334 3.653 2.517a.4.4 0 0 0 .46-.407 9.8 9.8 0 0 0-.9-3.446 2.557 2.557 0 0 0-1.183-1.324 1.767 1.767 0 0 0-.771-.19Z" fill="#000000" class="svgShape color000000-4 selectable"></path><path d="M38.712 108.853a16.268 16.268 0 0 1-5.819-1.137 1.5 1.5 0 1 1 1.07-2.8c5.357 2.046 8.589.148 8.724.067a1.5 1.5 0 0 1 1.595 2.541 10.961 10.961 0 0 1-5.57 1.329zm72.793-3.947a4.646 4.646 0 0 1-2.176-.541l-3.438-1.807a1.672 1.672 0 0 0-1.553 0l-3.437 1.807a4.668 4.668 0 0 1-6.773-4.92l.657-3.828a1.672 1.672 0 0 0-.48-1.477l-2.781-2.711a4.667 4.667 0 0 1 2.586-7.962l3.844-.558A1.667 1.667 0 0 0 99.21 82l1.719-3.483a4.668 4.668 0 0 1 8.372 0L111.02 82a1.666 1.666 0 0 0 1.255.912l3.844.558a4.668 4.668 0 0 1 2.587 7.962l-2.782 2.711a1.668 1.668 0 0 0-.479 1.477l.657 3.828a4.676 4.676 0 0 1-4.6 5.461zm-6.39-5.54a4.674 4.674 0 0 1 2.172.536l3.438 1.808a1.668 1.668 0 0 0 2.42-1.758l-.657-3.828a4.668 4.668 0 0 1 1.342-4.132l2.782-2.711a1.668 1.668 0 0 0-.924-2.845l-3.844-.559a4.664 4.664 0 0 1-3.515-2.553l-1.719-3.483a1.667 1.667 0 0 0-2.991 0l-1.719 3.483a4.664 4.664 0 0 1-3.514 2.553l-3.844.559a1.668 1.668 0 0 0-.924 2.845l2.782 2.711a4.671 4.671 0 0 1 1.343 4.131l-.657 3.829a1.668 1.668 0 0 0 2.414 1.758l3.438-1.808a4.678 4.678 0 0 1 2.177-.536z" fill="#dc2626" class="svgShape color000000-5 selectable"></path><path d="M103.128 95.553a3.449 3.449 0 0 1-2.444-1.009l-.953-.953a1.5 1.5 0 1 1 2.121-2.121l.953.953a.431.431 0 0 0 .608 0l6.074-5.488a1.5 1.5 0 1 1 2.013 2.225l-6.021 5.44a3.313 3.313 0 0 1-2.351.953zM78.856 52.037a2.85 2.85 0 1 0 2.85 2.85 2.85 2.85 0 0 0-2.85-2.85zm-29.712 0a2.85 2.85 0 1 0 2.85 2.85 2.849 2.849 0 0 0-2.85-2.85z" fill="#dc2626" class="svgShape color000000-6 selectable"></path></svg></g></svg>