<svg xmlns="http://www.w3.org/2000/svg" viewBox="0 0 128 128" id="drugstore">
  <path d="M60,105h50a2.0001,2.0001,0,0,0,2-2V61a2.0001,2.0001,0,0,0-2-2H60a2.0001,2.0001,0,0,0-2,2v42A2.0001,2.0001,0,0,0,60,105Zm30-4H80V96a5,5,0,0,1,10,0ZM87,63h21V78H87ZM62,63H83V78H62Zm0,19h46v19H94V96a9,9,0,0,0-18,0v5H62Z"></path>
  <path d="M126,27H115V19a2.0001,2.0001,0,0,0-2-2H89.50165a25.83164,25.83164,0,0,1,.45215,4H111v6H89.51263a25.76909,25.76909,0,0,1-1.1203,4H124v4h-7a2,2,0,0,0,0,4h7v4H110a2,2,0,0,0,0,4h14v4H4V47H17a2,2,0,0,0,0-4H4V39h6a2,2,0,0,0,0-4H4V31H39.60767a25.76909,25.76909,0,0,1-1.1203-4H17V21H38.03278a25.90925,25.90925,0,0,1,.45648-4H15a2.0001,2.0001,0,0,0-2,2v8H2a2.0001,2.0001,0,0,0-2,2V53a2.0001,2.0001,0,0,0,2,2H6v61H2a2.0001,2.0001,0,0,0-2,2v8a2.0001,2.0001,0,0,0,2,2H126a2.0001,2.0001,0,0,0,2-2v-8a2.0001,2.0001,0,0,0-2-2h-4V55h4a2.0001,2.0001,0,0,0,2-2V29A2.0001,2.0001,0,0,0,126,27ZM10,55H118v61H50V61a2.0001,2.0001,0,0,0-2-2H20a2.0001,2.0001,0,0,0-2,2v55H10ZM38.5,88.333H36V63H46v53H36V92.333h2.5a2,2,0,0,0,0-4ZM32,63v53H22V63Zm92,57v4H4v-4Z"></path>
  <path d="M64,0A22,22,0,1,0,86,22,22.02489,22.02489,0,0,0,64,0Zm0,40A18,18,0,1,1,82,22,18.02062,18.02062,0,0,1,64,40Z"></path>
  <path d="M70,16V12a4.00427,4.00427,0,0,0-4-4H62a4.00427,4.00427,0,0,0-4,4v4H54a4.00427,4.00427,0,0,0-4,4v4a4.00427,4.00427,0,0,0,4,4h4v4a4.00427,4.00427,0,0,0,4,4h4a4.00427,4.00427,0,0,0,4-4V28h4a4.00427,4.00427,0,0,0,4-4V20a4.00427,4.00427,0,0,0-4-4Zm4,8H68a2.0001,2.0001,0,0,0-2,2v6H62V26a2.0001,2.0001,0,0,0-2-2H54V20h6a2.0001,2.0001,0,0,0,2-2V12h4v6a2.0001,2.0001,0,0,0,2,2h6Z"></path>
</svg>
