<svg xmlns="http://www.w3.org/2000/svg" viewBox="0 0 64 64" id="e-pharmacy">
  <g>
    <g id="Outline_x5C_">
      <g>
        <path d="M38 30c-2.75684 0-5 2.24316-5 5s2.24316 5 5 5h4c2.75684 0 5-2.24316 5-5s-2.24316-5-5-5h-4ZM35 35c0-1.6543 1.3457-3 3-3h1v6h-1c-1.6543 0-3-1.3457-3-3ZM45 35c0 1.6543-1.3457 3-3 3h-1v-6h1c1.6543 0 3 1.3457 3 3ZM51.53564 29.19238c1.94922-1.94922 1.94922-5.12207 0-7.07129 0 0-5.64807-5.6471-5.65722-5.65624-1.88336-1.88303-5.19561-1.87512-7.07072-.0001-1.91605 1.91596-1.90743 5.16306-.00009 7.0704 0 0 2.82812 2.82837 2.82935 2.82959l2.82739 2.82764c1.91708 1.91724 5.15859 1.9127 7.07129 0ZM39.34326 20c0-.8017.31197-1.55458.87829-2.12097 1.15318-1.15332 3.09326-1.14867 4.2428-.00013l2.12158 2.12115-4.24255 4.24292-2.1217-2.12189c-.56641-.56641-.87842-1.31934-.87842-2.12109ZM43.75739 25.6571l4.24268-4.2431 2.12152 2.12115c1.16895 1.16992 1.16943 3.07324 0 4.24316-1.16992 1.16895-3.07324 1.16992-4.24316 0l-2.12103-2.12122Z"></path>
        <path d="M56,34c.54999,0,1-.45001,1-1V13c0-1.65002-1.34998-3-3-3H10c-1.65002,0-3,1.34998-3,3v32c0,1.64996,1.34998,3,3,3h13v4h-1c-.54999,0-1,.45001-1,1s.45001,1,1,1h20c.54999,0,1-.45001,1-1s-.45001-1-1-1h-1v-4h13c1.65002,0,3-1.35004,3-3v-8c0-.54999-.45001-1-1-1s-1,.45001-1,1v5H19c-.54999,0-1,.45001-1,1s.45001,1,1,1h36v1c0,.54999-.45001,1-1,1H10c-.54999,0-1-.45001-1-1v-1h6c.54999,0,1-.45001,1-1s-.45001-1-1-1h-6V13c0-.54999.45001-1,1-1h44c.54999,0,1,.45001,1,1v20c0,.54999.45001,1,1,1ZM25,48h14v4h-14v-4Z"></path>
        <path d="M11,25v14c0,.55273.44775,1,1,1h18c.55225,0,1-.44727,1-1v-14c0-.17188-.04443-.34082-.12842-.49023l-1.89868-3.37549c.00641-.0459.0271-.08661.0271-.13428v-6c0-.55273-.44775-1-1-1h-14c-.55225,0-1,.44727-1,1v6c0,.04767.02069.08838.0271.13428l-1.89868,3.37549c-.08398.14941-.12842.31836-.12842.49023ZM15,16h12v4h-12v-4ZM13,25.26172l1.83496-3.26172h12.33008l1.83496,3.26172v12.73828H13v-12.73828Z"></path>
        <path d="M26,27h-2v-2c0-.55273-.44775-1-1-1h-4c-.55225,0-1,.44727-1,1v2h-2c-.55225,0-1,.44727-1,1v4c0,.55273.44775,1,1,1h2v2c0,.55273.44775,1,1,1h4c.55225,0,1-.44727,1-1v-2h2c.55225,0,1-.44727,1-1v-4c0-.55273-.44775-1-1-1ZM25,31h-2c-.55225,0-1,.44727-1,1v2h-2v-2c0-.55273-.44775-1-1-1h-2v-2h2c.55225,0,1-.44727,1-1v-2h2v2c0,.55273.44775,1,1,1h2v2Z"></path>
      </g>
    </g>
  </g>
</svg>
