<svg width="48" height="48" viewBox="0 0 48 48" fill="none" xmlns="http://www.w3.org/2000/svg">
<path d="M1.99996 17.91C2.33996 18.04 2.44996 18 4.49996 18C4.89778 18 5.27931 17.842 5.56062 17.5607C5.84192 17.2794 5.99996 16.8978 5.99996 16.5C5.99996 16.1022 5.84192 15.7206 5.56062 15.4393C5.27931 15.158 4.89778 15 4.49996 15C2.39996 15 2.32996 15 1.99996 15.09C1.71038 15.1951 1.46019 15.3868 1.28338 15.6391C1.10657 15.8914 1.01172 16.1919 1.01172 16.5C1.01172 16.8081 1.10657 17.1086 1.28338 17.3609C1.46019 17.6132 1.71038 17.8049 1.99996 17.91ZM13.92 4.61C14.0934 5.01816 14.3831 5.36627 14.7529 5.61097C15.1228 5.85567 15.5565 5.98615 16 5.98615C16.4434 5.98615 16.8771 5.85567 17.247 5.61097C17.6168 5.36627 17.9065 5.01816 18.08 4.61C18.44 3.77 18.39 4 27 4C27 3.20435 26.6839 2.44129 26.1213 1.87868C25.5587 1.31607 24.7956 1 24 1H7.99996C7.20431 1 6.44125 1.31607 5.87864 1.87868C5.31603 2.44129 4.99996 3.20435 4.99996 4C13.36 4 13.56 3.78 13.92 4.61ZM15.08 3.61C15.1364 3.47321 15.2225 3.35065 15.3321 3.25116C15.4416 3.15167 15.5719 3.07774 15.7134 3.03469C15.855 2.99164 16.0044 2.98055 16.1508 3.00222C16.2972 3.02389 16.4369 3.07778 16.56 3.16C16.7174 3.26521 16.8417 3.41297 16.9185 3.58609C16.9953 3.7592 17.0213 3.95055 16.9936 4.13788C16.9658 4.3252 16.8855 4.50081 16.7619 4.64426C16.6382 4.78771 16.4764 4.89311 16.2953 4.9482C16.1141 5.00328 15.921 5.0058 15.7384 4.95544C15.5559 4.90508 15.3914 4.80393 15.2641 4.66374C15.1368 4.52355 15.0519 4.3501 15.0193 4.16356C14.9867 3.97701 15.0077 3.78505 15.08 3.61ZM27 36V35H4.99996V36C4.99996 36.7956 5.31603 37.5587 5.87864 38.1213C6.44125 38.6839 7.20431 39 7.99996 39H24C24.7956 39 25.5587 38.6839 26.1213 38.1213C26.6839 37.5587 27 36.7956 27 36Z" fill="#DC2626"/>
<path d="M6.94 19C7.27507 19.3245 7.5415 19.713 7.72346 20.1424C7.90541 20.5719 7.99917 21.0336 7.99917 21.5C7.99917 21.9664 7.90541 22.4281 7.72346 22.8576C7.5415 23.287 7.27507 23.6755 6.94 24C7.27507 24.3245 7.5415 24.713 7.72346 25.1424C7.90541 25.5719 7.99917 26.0336 7.99917 26.5C7.99917 26.9664 7.90541 27.4281 7.72346 27.8576C7.5415 28.287 7.27507 28.6755 6.94 29C7.46632 29.5059 7.81861 30.1656 7.94619 30.8844C8.07377 31.6032 7.97007 32.3439 7.65 33H27V6H19.6C19.2158 6.60723 18.6843 7.10741 18.0549 7.45401C17.4254 7.80061 16.7186 7.98237 16 7.98237C15.2814 7.98237 14.5746 7.80061 13.9451 7.45401C13.3157 7.10741 12.7842 6.60723 12.4 6H5V13C5.6547 13.0859 6.27161 13.3557 6.77908 13.7782C7.28656 14.2006 7.66377 14.7584 7.86691 15.3867C8.07006 16.0149 8.0908 16.688 7.92672 17.3276C7.76265 17.9672 7.4205 18.5471 6.94 19ZM11 11H19C19.2652 11 19.5196 11.1054 19.7071 11.2929C19.8946 11.4804 20 11.7348 20 12C20 12.2652 19.8946 12.5196 19.7071 12.7071C19.5196 12.8946 19.2652 13 19 13H11C10.7348 13 10.4804 12.8946 10.2929 12.7071C10.1054 12.5196 10 12.2652 10 12C10 11.7348 10.1054 11.4804 10.2929 11.2929C10.4804 11.1054 10.7348 11 11 11ZM11 15H23C23.2652 15 23.5196 15.1054 23.7071 15.2929C23.8946 15.4804 24 15.7348 24 16C24 16.2652 23.8946 16.5196 23.7071 16.7071C23.5196 16.8946 23.2652 17 23 17H11C10.7348 17 10.4804 16.8946 10.2929 16.7071C10.1054 16.5196 10 16.2652 10 16C10 15.7348 10.1054 15.4804 10.2929 15.2929C10.4804 15.1054 10.7348 15 11 15ZM11 19C22.92 19 23 19 23.08 19C23.3452 19.0106 23.5954 19.1261 23.7754 19.3212C23.9554 19.5162 24.0506 19.7748 24.04 20.04C24.0294 20.3052 23.9139 20.5554 23.7188 20.7354C23.5238 20.9154 23.2652 21.0106 23 21H11C10.7348 21 10.4804 20.8946 10.2929 20.7071C10.1054 20.5196 10 20.2652 10 20C10 19.7348 10.1054 19.4804 10.2929 19.2929C10.4804 19.1054 10.7348 19 11 19ZM11 23H23C23.2652 23 23.5196 23.1054 23.7071 23.2929C23.8946 23.4804 24 23.7348 24 24C24 24.2652 23.8946 24.5196 23.7071 24.7071C23.5196 24.8946 23.2652 25 23 25H11C10.7348 25 10.4804 24.8946 10.2929 24.7071C10.1054 24.5196 10 24.2652 10 24C10 23.7348 10.1054 23.4804 10.2929 23.2929C10.4804 23.1054 10.7348 23 11 23ZM11 27H23C23.2652 27 23.5196 27.1054 23.7071 27.2929C23.8946 27.4804 24 27.7348 24 28C24 28.2652 23.8946 28.5196 23.7071 28.7071C23.5196 28.8946 23.2652 29 23 29H11C10.7348 29 10.4804 28.8946 10.2929 28.7071C10.1054 28.5196 10 28.2652 10 28C10 27.7348 10.1054 27.4804 10.2929 27.2929C10.4804 27.1054 10.7348 27 11 27Z" fill="black"/>
<path d="M39.93 36.9297C38.07 35.0697 40.07 32.5597 37.5 27.4097C34.25 20.8997 30.41 19.2097 32.28 9.71973C32.3689 9.30784 32.3254 8.8784 32.1558 8.49269C31.9861 8.10698 31.699 7.78469 31.3354 7.57182C30.9717 7.35896 30.5501 7.26638 30.1307 7.30731C29.7114 7.34824 29.3156 7.52057 29 7.79973V35.9997C29 36.6563 28.8707 37.3065 28.6194 37.9131C28.3681 38.5198 27.9998 39.071 27.5355 39.5353C27.0712 39.9996 26.52 40.3679 25.9134 40.6191C25.3068 40.8704 24.6566 40.9997 24 40.9997H16.5C18.3357 42.6 20.5913 43.641 23 43.9997C29 44.9997 30 46.9997 30 46.9997H47V43.9997L39.93 36.9297ZM2 27.9097C2.34 28.0397 2.45 27.9997 4.5 27.9997C4.89782 27.9997 5.27936 27.8417 5.56066 27.5604C5.84196 27.2791 6 26.8976 6 26.4997C6 26.1019 5.84196 25.7204 5.56066 25.4391C5.27936 25.1578 4.89782 24.9997 4.5 24.9997C2.4 24.9997 2.33 24.9997 2 25.0897C1.71042 25.1948 1.46023 25.3865 1.28342 25.6388C1.10661 25.8911 1.01176 26.1917 1.01176 26.4997C1.01176 26.8078 1.10661 27.1084 1.28342 27.3606C1.46023 27.6129 1.71042 27.8046 2 27.9097ZM4.5 29.9997H2.5C2.10218 29.9997 1.72064 30.1578 1.43934 30.4391C1.15804 30.7204 1 31.1019 1 31.4997C1 31.8976 1.15804 32.2791 1.43934 32.5604C1.72064 32.8417 2.10218 32.9997 2.5 32.9997H4.5C4.89782 32.9997 5.27936 32.8417 5.56066 32.5604C5.84196 32.2791 6 31.8976 6 31.4997C6 31.1019 5.84196 30.7204 5.56066 30.4391C5.27936 30.1578 4.89782 29.9997 4.5 29.9997ZM2 22.9097C2.34 23.0397 2.45 22.9997 4.5 22.9997C4.89782 22.9997 5.27936 22.8417 5.56066 22.5604C5.84196 22.2791 6 21.8976 6 21.4997C6 21.1019 5.84196 20.7204 5.56066 20.4391C5.27936 20.1578 4.89782 19.9997 4.5 19.9997C2.4 19.9997 2.33 19.9997 2 20.0897C1.71042 20.1948 1.46023 20.3865 1.28342 20.6388C1.10661 20.8911 1.01176 21.1917 1.01176 21.4997C1.01176 21.8078 1.10661 22.1084 1.28342 22.3606C1.46023 22.6129 1.71042 22.8046 2 22.9097Z" fill="#DC2626"/>
</svg>
