<svg id="SvgjsSvg1023" width="288" height="288" xmlns="http://www.w3.org/2000/svg" version="1.1" xmlns:xlink="http://www.w3.org/1999/xlink" xmlns:svgjs="http://svgjs.com/svgjs"><defs id="SvgjsDefs1024"></defs><g id="SvgjsG1025"><svg xmlns="http://www.w3.org/2000/svg" viewBox="0 0 66 66" width="288" height="288"><path d="m41.8 43.6-.5 4.5H43c-.2-1.9.1-2.7-.6-3.7l-.6-.8zm-8.3-1.8L37 47l.1 2 1.2-10.4-.3-.6c-.8 1.9-2.5 3.3-4.5 3.8zM40.8 52l-1.3 10.7c0 .2-.1.3-.1.5.6.4 1.3.5 1.7.4 1.6-.1 2.8-1.5 2.7-3.1l-.6-8.5h-2.4zm-6.5-40.2c3.6 1.4 7.8-1.3 7.6-5.4-.1-3.1-2.7-5.5-5.8-5.4-3.1.1-5.5 2.7-5.4 5.8.1 2.3 1.6 4.2 3.6 5z" fill="#000000" class="svgShape color000000-0 selectable"></path><path d="m32.9 42-.1-1h.1c2-.4 3.7-1.9 4.4-3.9.3-.9.2-1.4.6-4.2-6.3-5-7.4-13.1-7.4-13.5-.2-1.6 1-3 2.6-3.2 1.6-.2 3 1 3.2 2.6 0 .2.5 3.6 2.6 6.7l.8-6.1c.4-3.2-1.9-6.1-5-6.5-3.2-.4-6.1 1.8-6.5 5-1.7 16.1-3.1 17.3-1.4 20.3v.2C28.7 58 28 51.3 28.2 52.7l-1.4 9c-.2 1.6.8 3.1 2.4 3.3 1.7.2 3.1-1 3.3-2.5l1.4-9.4v-.7l-1-10.4zm-8.4-21.3c-2.3 0-4.6-.7-6.5-2.1 0 .6 0 .6-.5 4.2 2.2 1.1 4.5 1.7 7 1.8 1.1 0 1.9-.9 1.9-1.9.1-1.1-.8-2-1.9-2zM15.3 38c-.8 1.9-2.5 3.3-4.5 3.8l3.5 5.1-.4 13.7c-.1 1.6 1.2 3 2.8 3 .1 0 2.9 0 3-2.8l.5-14.7c0-.6-.2-1.2-.5-1.7L15.3 38zm-3.7-26.2c3.5 1.4 7.8-1.2 7.6-5.4-.1-3.1-2.7-5.5-5.8-5.4-3.1.1-5.5 2.7-5.4 5.8.1 2.3 1.6 4.2 3.6 5z" fill="#000000" class="svgShape color000000-1 selectable"></path><path d="m10.2 42-.1-1h.1c5.3-1.1 4.7-7.1 5-8.1-6.3-5-7.4-13.1-7.4-13.5-.2-1.6 1-3 2.6-3.2 1.6-.2 3 .9 3.2 2.6 0 .1.1.7.4 1.7.4 1.3 1 3.2 2.2 5 0-.1.8-6.3.8-6.1.4-3-1.7-6.1-5-6.5-3.2-.4-6.1 1.8-6.5 5C3.7 34 2.4 35.2 4 38.1c.3 3.4.8 8.5 1.4 14.5l-1.4 9c-.2 1.6.9 3.1 2.4 3.3 1.7.2 3.1-.9 3.3-2.5l1.4-9.4v-.7L10.2 42z" fill="#000000" class="svgShape color000000-2 selectable"></path><path d="M22.5 31.2c-6.1-1.7-8.4-6.5-9.9-12.4-.1-1.1-1.1-1.8-2.1-1.7-1.1.1-1.8 1.1-1.7 2.2.8 6.7 5.3 13.5 12.7 15.7 1 .3 2.1-.3 2.4-1.3.3-1.1-.3-2.2-1.4-2.5zm37.2 6c-.3-1.9-1.8-3.4-3.7-3.4h-8.5c-.3.9-1 1.6-1.8 1.9H56c.9 0 1.6.7 1.8 1.7.1 1.2-.5-4.3 1.4 11.6h-19c0 .4.6-5.3 1.4-11.6.3-1.9 2.1-1.7 2.2-1.7-1-.3-1.9-.7-2.8-1.1-.7.6-1.2 1.5-1.4 2.5l-.3 2.7c-.3 2.3 1-8.3-2.7 22.5-.1.5.3 1 .9 1.1.5.1 1-.3 1.1-.8 0 .3.6-4.9 1.4-11.6h19.5c1.9 15.9 1.2 10.4 1.4 11.6.1.6.7.9 1.1.8.5-.1.9-.5.9-1.1-4-32.3 1.1 10.4-3.2-25.1z" fill="#dc2626" class="svgShape color000000-3 selectable"></path><path d="M35.4 18.8c-.1-1.1-1.1-1.8-2.2-1.7-1.1.1-1.8 1.1-1.7 2.2.9 6.8 5.4 13.6 12.7 15.7.9.3 1.9-.2 2.3-1.1.5-1.1-.1-2.3-1.2-2.7-5.6-1.6-9.3-7-9.9-12.4z" fill="#000000" class="svgShape color000000-4 selectable"></path></svg></g></svg>