<svg width="64" height="64" viewBox="0 0 64 64" fill="none" xmlns="http://www.w3.org/2000/svg">
<path d="M37.9401 38.8499C37.9401 37.6751 37.5917 36.5266 36.939 35.5498C36.2863 34.573 35.3586 33.8116 34.2732 33.362C33.1878 32.9125 31.9935 32.7948 30.8412 33.024C29.689 33.2532 28.6306 33.8189 27.7999 34.6497C26.9691 35.4804 26.4034 36.5388 26.1742 37.691C25.945 38.8433 26.0626 40.0376 26.5122 41.123C26.9618 42.2084 27.7232 43.1361 28.7 43.7888C29.6768 44.4415 30.8252 44.7899 32.0001 44.7899C33.5746 44.7872 35.084 44.1606 36.1974 43.0472C37.3108 41.9338 37.9374 40.4245 37.9401 38.8499ZM19.4901 56.6199C19.46 56.7479 19.4556 56.8807 19.4771 57.0105C19.4986 57.1402 19.5455 57.2645 19.6153 57.376C19.685 57.4876 19.7761 57.5842 19.8833 57.6604C19.9905 57.7366 20.1118 57.7908 20.2401 57.8199C20.2401 57.8199 43.4701 57.8399 43.5401 57.8399C43.6138 57.8382 43.6873 57.8315 43.7601 57.8199C43.8883 57.7908 44.0096 57.7366 44.1168 57.6604C44.2241 57.5842 44.3152 57.4876 44.3849 57.376C44.4546 57.2645 44.5015 57.1402 44.523 57.0105C44.5445 56.8807 44.5401 56.7479 44.5101 56.6199C43.8562 53.7919 42.2635 51.2688 39.9916 49.4623C37.7197 47.6557 34.9027 46.6722 32.0001 46.6722C29.0974 46.6722 26.2805 47.6557 24.0086 49.4623C21.7367 51.2688 20.1439 53.7919 19.4901 56.6199ZM50.9301 36.0099C50.9281 35.0946 50.6549 34.2004 50.1449 33.4403C49.635 32.6802 48.9112 32.0884 48.065 31.7395C47.2188 31.3906 46.2882 31.3003 45.3907 31.4801C44.4932 31.6598 43.6692 32.1016 43.0226 32.7495C42.3761 33.3974 41.9362 34.2224 41.7583 35.1203C41.5805 36.0181 41.6727 36.9486 42.0235 37.794C42.3742 38.6394 42.9676 39.362 43.7288 39.8703C44.49 40.3786 45.3848 40.6499 46.3001 40.6499C46.9088 40.6495 47.5115 40.5291 48.0737 40.2957C48.6359 40.0622 49.1466 39.7203 49.5766 39.2894C50.0066 38.8585 50.3475 38.347 50.5797 37.7843C50.8119 37.2216 50.931 36.6186 50.9301 36.0099ZM55.7501 49.0099C55.3339 47.1922 54.4016 45.5334 53.0652 44.2329C51.7288 42.9324 50.0452 42.0455 48.2168 41.679C46.3885 41.3125 44.4931 41.4819 42.7587 42.1668C41.0243 42.8517 39.5247 44.023 38.4401 45.5399C39.0459 45.8285 39.6307 46.1593 40.1901 46.5299C40.9484 47.0289 41.6582 47.5981 42.3101 48.2299C42.9443 48.8445 43.5232 49.5138 44.0401 50.2299H54.7801C54.9303 50.2292 55.0784 50.1947 55.2134 50.1289C55.3485 50.0631 55.4669 49.9677 55.5601 49.8499C55.6539 49.7337 55.7198 49.5976 55.7527 49.452C55.7857 49.3063 55.7848 49.1551 55.7501 49.0099ZM13.0701 36.0099C13.0701 36.9256 13.3416 37.8208 13.8504 38.5822C14.3591 39.3436 15.0822 39.937 15.9282 40.2874C16.7743 40.6379 17.7052 40.7296 18.6033 40.5509C19.5015 40.3723 20.3265 39.9313 20.974 39.2838C21.6215 38.6363 22.0625 37.8113 22.2411 36.9132C22.4198 36.015 22.3281 35.0841 21.9776 34.2381C21.6272 33.392 21.0338 32.6689 20.2724 32.1602C19.511 31.6514 18.6158 31.3799 17.7001 31.3799C16.4725 31.3812 15.2956 31.8694 14.4276 32.7374C13.5596 33.6054 13.0714 34.7823 13.0701 36.0099Z" fill="#231F20"/>
<path d="M8.25007 49.0101C8.21538 49.1553 8.21447 49.3065 8.24741 49.4522C8.28035 49.5978 8.34626 49.7339 8.44007 49.8501C8.5332 49.9679 8.65168 50.0633 8.78671 50.1291C8.92175 50.1949 9.06987 50.2294 9.22007 50.2301H19.9601C20.477 49.514 21.0559 48.8447 21.6901 48.2301C22.3419 47.5983 23.0517 47.0291 23.8101 46.5301C24.3695 46.1595 24.9543 45.8287 25.5601 45.5401C24.4755 44.0232 22.9758 42.8519 21.2414 42.167C19.507 41.4821 17.6117 41.3127 15.7833 41.6792C13.9549 42.0457 12.2714 42.9325 10.935 44.233C9.59855 45.5335 8.66623 47.1924 8.25007 49.0101ZM5.62007 26.5601L29.9731 7.30608C30.5493 6.84789 31.2638 6.59846 32.0001 6.59846C32.7363 6.59846 33.4508 6.84789 34.0271 7.30608L58.3801 26.5601C58.5883 26.7245 58.8533 26.7995 59.1167 26.7686C59.3802 26.7376 59.6206 26.6033 59.7851 26.3951C59.9495 26.1869 60.0245 25.9219 59.9936 25.6584C59.9626 25.3949 59.8283 25.1545 59.6201 24.9901L35.2681 5.73908C34.3391 5.00002 33.1871 4.59766 32.0001 4.59766C30.813 4.59766 29.661 5.00002 28.7321 5.73908L4.38007 24.9901C4.17188 25.1545 4.03753 25.3949 4.00659 25.6584C3.97564 25.9219 4.05064 26.1869 4.21507 26.3951C4.37951 26.6033 4.61991 26.7376 4.8834 26.7686C5.14689 26.7995 5.41188 26.7245 5.62007 26.5601Z" fill="#DC2626"/>
<path d="M31.2099 8.88011L11.4399 24.5101V33.8501C11.9499 32.3671 12.9693 31.113 14.317 30.3111C15.6647 29.5091 17.2532 29.2112 18.7998 29.4704C20.3465 29.7295 21.7511 30.529 22.7637 31.7265C23.7763 32.924 24.3313 34.4419 24.3299 36.0101C24.3316 36.0902 24.3283 36.1704 24.3199 36.2501C24.7639 34.5514 25.7586 33.0478 27.1483 31.9747C28.5379 30.9016 30.2442 30.3195 31.9999 30.3195C33.7557 30.3195 35.462 30.9016 36.8516 31.9747C38.2413 33.0478 39.2359 34.5514 39.6799 36.2501C39.6716 36.1704 39.6683 36.0902 39.6699 36.0101C39.6686 34.4419 40.2235 32.924 41.2362 31.7265C42.2488 30.529 43.6534 29.7295 45.2 29.4704C46.7467 29.2112 48.3352 29.5091 49.6829 30.3111C51.0305 31.113 52.05 32.3671 52.5599 33.8501V24.5101L32.7899 8.88011C32.5658 8.70045 32.2872 8.60254 31.9999 8.60254C31.7127 8.60254 31.4341 8.70045 31.2099 8.88011Z" fill="#DC2626"/>
</svg>
