<?xml version="1.0"?>
<svg xmlns="http://www.w3.org/2000/svg" id="Layer_1" data-name="Layer 1" viewBox="0 0 64 64"><path d="M61,7.06H3a1,1,0,0,0-1,1V43.47a1,1,0,0,0,1,1H6.85V55.94a1,1,0,0,0,1,1H32.71a1,1,0,0,0,1-1V44.47H61a1,1,0,0,0,1-1V8.06A1,1,0,0,0,61,7.06ZM31.71,54.94H8.85V43.48h0V36.3A2.2,2.2,0,0,1,11,34.11h4.69l.46,5H14.36a1,1,0,0,0-1,1v12a1,1,0,0,0,1,1H26.2a1,1,0,0,0,1-1v-12a1,1,0,0,0-1-1H24.37l.46-5h4.69a2.2,2.2,0,0,1,2.19,2.19ZM22.82,34.11l-.46,5H18.2l-.46-5Zm-5.54,7H25.2v10H15.36v-10Zm3-9a8,8,0,1,1,8-8A8,8,0,0,1,20.28,32.11ZM60,42.47H33.71V36.3a4.2,4.2,0,0,0-4.19-4.19H26.26a10,10,0,1,0-12,0H11A4.2,4.2,0,0,0,6.85,36.3v6.17H4V9.06H60Z"/><path d="M36.29,23.42H54.61a1,1,0,0,0,1-1V14.74a1,1,0,0,0-1-1H36.29a1,1,0,0,0-1,1v7.68A1,1,0,0,0,36.29,23.42Zm1-7.68H53.61v5.68H37.29Z"/><path d="M36.29,28.32H48.74a1,1,0,0,0,0-2H36.29a1,1,0,0,0,0,2Z"/><path d="M36.29,33H56a1,1,0,0,0,0-2H36.29a1,1,0,1,0,0,2Z"/><path d="M36.29,37.68H44a1,1,0,0,0,0-2H36.29a1,1,0,0,0,0,2Z"/></svg>
