<svg width="512" height="512" viewBox="0 0 512 512" fill="none" xmlns="http://www.w3.org/2000/svg">
<g clip-path="url(#clip0_897_52)">
<path d="M446.836 0H65.1636C47.8812 0 31.3065 6.86543 19.086 19.086C6.86543 31.3065 0 47.8812 0 65.1636V446.836C0 464.119 6.86543 480.693 19.086 492.914C31.3065 505.135 47.8812 512 65.1636 512H252.125V298.966H209.519V213.753H251.773V175.244C251.773 140.39 268.375 85.9392 341.441 85.9392L407.262 86.2033V159.211H359.462C351.69 159.211 340.631 163.081 340.631 179.682V213.759H408.349L400.576 298.972H337.338V512H446.836C455.394 512 463.867 510.314 471.773 507.04C479.679 503.765 486.863 498.965 492.914 492.914C498.965 486.863 503.765 479.679 507.04 471.773C510.314 463.867 512 455.394 512 446.836V65.1636C512 56.6062 510.314 48.1326 507.04 40.2266C503.765 32.3206 498.965 25.137 492.914 19.086C486.863 13.035 479.679 8.23506 471.773 4.96028C463.867 1.68551 455.394 0 446.836 0Z" fill="black"/>
</g>
<defs>
<clipPath id="clip0_897_52">
<rect width="512" height="512" fill="white"/>
</clipPath>
</defs>
</svg>
