<svg xmlns="http://www.w3.org/2000/svg" xml:space="preserve" id="family-health-care" x="0" y="0" style="enable-background:new 0 0 64 64" version="1.1" viewBox="0 0 64 64">
  <g>
    <path d="M50.2517967,30.9389648c0.6415405-0.8375244,1.0380859-1.8717041,1.0380859-3.0059204
		c0-2.7421875-2.2304688-4.9726563-4.9726563-4.9726563s-4.9726563,2.2304688-4.9726563,4.9726563
		c0,1.1320801,0.3948975,2.1646118,1.0343018,3.0013428c-1.633606,0.1212769-3.124939,0.9061279-4.1397705,2.2095947
		l-0.9020386,1.1571045c0.0551147-0.2705078,0.0846558-0.5502319,0.0846558-0.836792
		c0-2.3076172-1.8779297-4.1855469-4.1855469-4.1855469s-4.1855469,1.8779297-4.1855469,4.1855469
		c0,0.8290405,0.2496338,1.5979614,0.6672363,2.2489624c-0.5601196,0.0842896-1.0812988,0.2754517-1.5472412,0.557373
		l-1.961792-2.2213745c-1.0288696-1.1694336-2.4039307-1.9590454-3.9060669-2.274353
		c0.6009521-0.7845459,0.9724731-1.7532349,0.9724731-2.8154907c0-2.5683594-2.0898438-4.6572266-4.6582031-4.6572266
		s-4.6582041,2.0888672-4.6582041,4.6572266c0,1.1048584,0.402771,2.1075439,1.0479736,2.9069824
		c-2.2525635,0.6089478-4.0704346,2.3679199-4.6651611,4.717041l-1.1962891,4.7285156
		c-0.3779297,1.4951172,0.4326172,3.0146484,1.8857422,3.5341797c0.3242188,0.1152344,0.6621094,0.1728516,1,0.171875
		c0.1356201,0,0.2681885-0.0323486,0.4024048-0.0507202l-1.131897,5.281189
		c-0.0634766,0.2958984,0.0097656,0.6035156,0.1992188,0.8378906c0.1894531,0.2353516,0.4755859,0.3720703,0.7773438,0.3720703
		l1.9287109,0.0023804v2.2407837c0,1.4921875,1.2138672,2.7060547,2.7060556,2.7060547
		c0.6494751,0,1.2383423-0.2396851,1.7052002-0.6229248c0.46698,0.3832397,1.0560303,0.6229248,1.7059326,0.6229248
		c1.4912109,0,2.7050781-1.2138672,2.7050781-2.7060547v-2.2392578l1.890625-0.0029297
		c0.2949219,0,0.5742188-0.1308594,0.7636719-0.3564453c0.1894531-0.2265625,0.2705078-0.5244141,0.2197266-0.8144531
		L24.0896873,39.840271l2.0273438,1.3944702v4.5137329c0,1.3642578,1.109375,2.4736328,2.4736328,2.4736328
		c0.1621704,0,0.3200684-0.0180054,0.4736328-0.0479126v5.8789673c0,1.4257813,1.1601563,2.5859375,2.5878906,2.5859375
		c0.5996704-0.0007935,1.1452026-0.21521,1.5841064-0.5596313c0.4390869,0.3444214,0.9848022,0.5588379,1.5848389,0.5596313
		c1.4267578,0,2.5869141-1.1601563,2.5869141-2.5859375v-5.8789673c0.1535645,0.0299072,0.3114624,0.0479126,0.4736328,0.0479126
		c1.3632813,0,2.4726563-1.109375,2.4726563-2.4736328v-5.8720703c0-0.0041504-0.0012207-0.0079346-0.0012207-0.012085
		l1.005127-1.0845947v14.8300781c0,0.796875,0.3105469,1.5458984,0.8720703,2.1054688
		c0.5537109,0.5556641,1.3222656,0.8740234,2.1074219,0.8740234c0.7633057,0,1.453186-0.2967529,1.9810181-0.7702026
		c0.5267334,0.4710083,1.2139893,0.7662964,1.9740601,0.7662964c0.0009766,0,0.0019531,0,0.0029297,0
		c0.7949219,0,1.5419922-0.3095703,2.1044922-0.8710938c0.5625-0.5625,0.8720703-1.3105469,0.8720703-2.1064453v-7.6583862
		c0.2666016,0.0831909,0.5443115,0.1408081,0.8378906,0.1408081c1.5644531,0,2.8369141-1.2734375,2.8369141-2.8378906v-7.3232422
		C54.9471092,33.2722778,52.8666039,31.1121216,50.2517967,30.9389648z M46.3172264,24.9603882
		c1.6386719,0,2.9726563,1.3339844,2.9726563,2.9726563s-1.3339844,2.9726563-2.9726563,2.9726563
		s-2.9726563-1.3339844-2.9726563-2.9726563S44.6785545,24.9603882,46.3172264,24.9603882z M33.2361717,31.2787476
		c1.2050781,0,2.1855469,0.9804688,2.1855469,2.1855469s-0.9804688,2.1855469-2.1855469,2.1855469
		s-2.1855469-0.9804688-2.1855469-2.1855469S32.0310936,31.2787476,33.2361717,31.2787476z M18.6170311,26.3021851
		c1.4658203,0,2.6582031,1.1923828,2.6582031,2.6572266c0,1.4658203-1.1923828,2.6582031-2.6582031,2.6582031
		s-2.6582041-1.1923828-2.6582041-2.6582031C15.958827,27.4945679,17.1512108,26.3021851,18.6170311,26.3021851z
		 M16.9129295,54.4076538c-0.3896484,0-0.7060547-0.3164063-0.7060547-0.7060547v-2.2353516h1.4111328v2.2353516
		C17.6180077,54.0912476,17.3016014,54.4076538,16.9129295,54.4076538z M21.0291405,51.4662476v2.2353516
		c0,0.3896484-0.3164063,0.7060547-0.7050781,0.7060547c-0.3896484,0-0.7060547-0.3164063-0.7060547-0.7060547v-2.2339478
		l0.8919067-0.0014038H21.0291405z M21.7127342,37.840271l2.0166016,11.6210938l-3.2196045,0.0048828h-1.8907471
		l-5.1035166-0.0058594l2.4208984-11.2949219c0.1162119-0.5400391-0.2275391-1.0722656-0.7675781-1.1875
		c-0.5449219-0.1201172-1.0722656,0.2285156-1.1875,0.7675781l-0.5150146,2.4030151
		c-0.0082397,0.0266113-0.0267334,0.046814-0.0328369,0.0745239l-0.4482422,2.0292969
		c-0.0615234,0.2773438-0.2324219,0.5058594-0.4804688,0.6435547c-0.2490234,0.1367188-0.5351563,0.1591797-0.8017578,0.0664063
		c-0.4765625-0.1708984-0.7421875-0.6689453-0.6181641-1.1601563l1.1962891-4.7285156
		c0.5146484-2.0351563,2.3408203-3.4560547,4.4394541-3.4560547h1.8876953
		c0.003418,0.000061,0.0063477,0.0019531,0.0097656,0.0019531h2.2099609c1.4863281,0,2.9003906,0.6376953,3.8798828,1.7519531
		l2.0411377,2.3110352c-0.2275391,0.3712769-0.4005737,0.7770996-0.5050049,1.2119141l-2.9794922-2.0493164
		c-0.3310547-0.2285156-0.7675781-0.234375-1.1064453-0.0175781S21.6443748,37.4437866,21.7127342,37.840271z
		 M38.3543358,45.7484741c0,0.2607422-0.2119141,0.4736328-0.4726563,0.4736328s-0.4736328-0.2128906-0.4736328-0.4736328v-3.8125
		v-1.0097656c0-0.5527344-0.4472656-1-1-1s-1,0.4472656-1,1v1.0097656v3.8125v8.3046875
		c0,0.3232422-0.2636719,0.5859375-0.5859375,0.5859375c-0.3232422,0-0.5859375-0.2636719-0.5859375-0.5859375v-7.2539063
		c0-0.5527344-0.4472656-1-1-1s-1,0.4472656-1,1v7.2539063c0,0.3222656-0.2626953,0.5859375-0.5849609,0.5859375
		c-0.3232422,0-0.5869141-0.2626953-0.5869141-0.5859375v-8.3046875v-3.8125v-1.0097656c0-0.5527344-0.4472656-1-1-1
		s-1,0.4472656-1,1v1.0097656v3.8125c0,0.2607422-0.2128906,0.4736328-0.4736328,0.4736328
		s-0.4736328-0.2128906-0.4736328-0.4736328v-5.8720703c0-1.2275391,0.9990234-2.2265625,2.2275391-2.2265625h2.8916016h2.8916016
		c1.2275391,0,2.2265625,0.9990234,2.2265625,2.2265625V45.7484741z M52.9471092,43.2523804
		c0,0.4619141-0.375,0.8378906-0.8369141,0.8378906s-0.8378906-0.3759766-0.8378906-0.8378906v-6.0136719v-1.0117188
		c0-0.5527344-0.4472656-1-1-1s-1,0.4472656-1,1v1.0117188v6.0136719v10.3554688
		c0,0.2617188-0.1015625,0.5068359-0.2861328,0.6914063s-0.4296875,0.2861328-0.6914063,0.2861328h-0.0009766
		c-0.5365601,0-0.9720459-0.4348755-0.9761353-0.970459c0-0.00177,0.0005493-0.0033569,0.0005493-0.005127v-9.0498047
		c0-0.5527344-0.4472656-1-1-1c-0.4145508,0-0.7697144,0.2515869-0.9214478,0.6105957
		c-0.0514526,0.1205444-0.0805054,0.2528687-0.0805054,0.392334v9.0449219c0,0.0026245,0.0007935,0.005127,0.0007935,0.0077515
		c-0.0032959,0.5371094-0.4403687,0.9736938-0.9793091,0.9736938c-0.2578125,0-0.5097656-0.1044922-0.6933594-0.2880859
		c-0.1308594-0.1298828-0.2861328-0.3554688-0.2861328-0.6914063V36.2299194c0-0.4111328-0.2519531-0.78125-0.6347656-0.9306641
		c-0.3837891-0.1513672-0.8183594-0.0517578-1.0986328,0.2509766l-1.9297485,2.0820923
		c-0.3466187-0.5488281-0.814209-1.0070801-1.3674927-1.34729l1.489624-1.9115601
		c0.7236328-0.9306641,1.8173828-1.4638672,3.0009766-1.4638672h3.5c0.006897,0,0.0125122-0.0037842,0.0193481-0.0039063h3.585144
		c1.6679688,0,3.0244141,1.3564453,3.0244141,3.0234375V43.2523804z"></path>
    <path d="M30.5232811,27.0443726h2.9892578c0.5527344,0,1-0.4472656,1-1v-1.2138672h1.2138672c0.5527344,0,1-0.4472656,1-1
		v-2.9892578c0-0.5527344-0.4472656-1-1-1h-1.2138672v-1.2138672c0-0.5527344-0.4472656-1-1-1h-2.9892578
		c-0.5527344,0-1,0.4472656-1,1v1.2138672h-1.2138672c-0.5527344,0-1,0.4472656-1,1v2.9892578c0,0.5527344,0.4472656,1,1,1
		h1.2138672v1.2138672C29.5232811,26.5971069,29.9705467,27.0443726,30.5232811,27.0443726z M29.3094139,22.8305054v-0.9892578
		h1.2138672c0.5527344,0,1-0.4472656,1-1v-1.2138672h0.9892578v1.2138672c0,0.5527344,0.4472656,1,1,1h1.2138672v0.9892578
		h-1.2138672c-0.5527344,0-1,0.4472656-1,1v1.2138672h-0.9892578v-1.2138672c0-0.5527344-0.4472656-1-1-1H29.3094139z"></path>
    <path d="M16.405117,21.5326538c0.3066406,0.1806641,0.6855469,0.1845703,0.9941406,0.0097656l14.6210938-8.1855469
		l14.6123047,8.1855469c0.1513672,0.0859375,0.3203125,0.1279297,0.4882813,0.1279297
		c0.1748047,0,0.3496094-0.0458984,0.5058594-0.1376953c0.3056641-0.1787109,0.4941406-0.5078125,0.4941406-0.8623047v-3.8496094
		c0-0.3623047-0.1953125-0.6953125-0.5117188-0.8720703L32.5086327,7.4887085c-0.3017578-0.1699219-0.6728516-0.1708984-0.9765625,0
		l-15.109375,8.4599609c-0.3164063,0.1767578-0.5117197,0.5097656-0.5117197,0.8720703v3.8496094
		C15.9109755,21.0248413,16.099453,21.3539429,16.405117,21.5326538z M17.9109764,17.4066772l14.109375-7.8994141
		l14.1005859,7.8994141v1.5576172l-13.6123047-7.6259766c-0.3017578-0.1699219-0.6728516-0.1708984-0.9765625,0
		l-13.6210938,7.6259766V17.4066772z"></path>
  </g>
</svg>
