<svg id="SvgjsSvg1013" width="288" height="288" xmlns="http://www.w3.org/2000/svg" version="1.1" xmlns:xlink="http://www.w3.org/1999/xlink" xmlns:svgjs="http://svgjs.com/svgjs"><defs id="SvgjsDefs1014"></defs><g id="SvgjsG1015"><svg xmlns="http://www.w3.org/2000/svg" viewBox="0 0 66 66" width="288" height="288"><circle cx="33.3" cy="6.6" r="5.6" fill="#000000" class="svgShape color000000-0 selectable"></circle><circle cx="11.7" cy="32" r="3.1" fill="#000000" class="svgShape color000000-1 selectable"></circle><path d="M59.8 37.9c-3-2.3-6.2-2.2-9.4 0-1.3.2-2.3-.2-2.9-1.4-.8.8-2 1-2.9.6 1 2.6 3.2 3.9 5.7 3.7l.9 11.9L50 62.8c-.1 1.2.8 2.2 1.9 2.2 1 0 1.8-.7 1.9-1.7L55 53.2h.1l1.2 10.1c.1 1 1.1 1.8 2.2 1.7 1.1-.1 1.8-1.1 1.7-2.2L59 52.7l.7-9.7c.8 1.7 1.6 4.1 1.5 6.9 0 .8.6 1.5 1.4 1.5.8 0 1.5-.6 1.5-1.4.2-6.1-3.1-11.5-4.3-12.1z" fill="#000000" class="svgShape color000000-2 selectable"></path><circle cx="55.1" cy="32.5" r="3.2" fill="#000000" class="svgShape color000000-3 selectable"></circle><path d="m19.7 37.6-1.1 1.5c-.5-.2-4.5-5.7-10.8-2.4 0 0-.6.4-2.1 1.3l-1.5-.9c.1 1.8.8 3.4.8 3.8 1.4.6 1.6-.2 2.6-.7v2.9l-2 10.1c.6.4 1.3.7 1.9.9l-1 8.7c0 1.2.9 2.2 2 2.2 1 0 1.8-.7 1.9-1.7l1-8.4h.6l1 8.4c.1 1.1 1.1 1.8 2.2 1.7 1.1-.1 1.8-1.1 1.7-2.2l-1-8.7c.7-.3 1.3-.5 1.9-.9l-2-10.1v-2.5l2.1 1.8c.6.5 1.6.5 2.1-.3l2.2-3.1c.2-.3.3-.7.3-1-.8.3-1.9.2-2.8-.4zm-16.9-.7c-.3.1-.5.3-.7.6-.9 1.5 1.1 2.3 1.2 2.4-.3-1-.5-1.9-.5-3z" fill="#000000" class="svgShape color000000-4 selectable"></path><path d="M5.7 26.1h-.5c-.2 5-3.5 5.8-1.4 14.1.6 2.1.8 4.1.6 6.3 0 .1.1.3.2.3s.2-.1.2-.2c.4-1.8.2-3.7-.2-5.6-2.3-10.7 1-9 1.1-14.9zm-.5-.9c1.8 0 3.5-1.8 3.5-4.3 0-2.4-1.6-4.3-3.5-4.3s-3.5 1.9-3.5 4.3c.1 2.6 1.8 4.3 3.5 4.3zm-2.6-4.6c.2-1.5 1-2.6 2.1-3.2v.7c-.7.5-1.3 1.4-1.6 2.5h-.5zm44.8 14c.6-6.1-1.9-13.5-4.6-18-2.7-4.2-16.5-5.2-19.1.2-2.5 4.9-4.6 12.5-4.1 18.6.1 1 1 1.8 1.9 1.8 1.1 0 2-1 1.9-2.1-.3-3.4.3-7 1.3-10.2l1.4 18.6c0 .3.3.5.5.6l-2.1 17.8c-.2 1.6 1 3 2.5 3.2h.3c1.5 0 2.7-1.1 2.9-2.6L32.5 44h1.6l2.2 18.4c.2 1.5 1.4 2.6 2.9 2.6h.3c1.6-.2 2.7-1.6 2.5-3.2L39.9 44c.3 0 .5-.3.5-.6L42 24c1.2 3.2 1.9 6.8 1.6 10.2-.1 1.1.7 2 1.7 2.1 1 .2 2-.6 2.1-1.7zM35.6 15.5c0 .1-.7 2.2-.9 3H32c0-.1-1-3.2-.9-3 1.5-.7 3-.7 4.5 0zm-4.5 14c.1-1.1-.3 3.9.8-10.4h2.9l.7 10.4-2.3 2.8-2.1-2.8z" fill="#dc2626" class="svgShape color000000-5 selectable"></path></svg></g></svg>