<svg xmlns="http://www.w3.org/2000/svg" enable-background="new 0 0 512 512" viewBox="0 0 512 512" id="5">
  <g>
    <g>
      <path d="M409.655,333.32c0,95.198-76.815,172.669-171.255,172.669c-46.816,0-90.602-18.737-123.177-52.776
			c-17.524-18.231-17.07-47.473,0.96-65.199c19.04-18.686,47.877-16.515,64.694,1.01c15.201,15.908,35.655,24.645,57.523,24.645
			c44.038,0,79.896-36.059,79.896-80.35s-35.857-80.35-79.896-80.35c-21.868,0-42.321,8.737-57.523,24.645
			c-13.03,13.585-32.675,17.777-50.048,10.656c-17.272-7.071-28.484-23.888-28.484-42.776V52.17c0-25.453,20.504-46.16,45.705-46.16
			h214.334c25.201,0,45.655,20.706,45.655,46.16S387.585,98.28,362.384,98.28h-168.68v68.28c14.494-3.939,29.494-5.909,44.695-5.909
			C332.84,160.65,409.655,238.122,409.655,333.32z"></path>
    </g>
  </g>
</svg>
