<svg id="SvgjsSvg1134" width="288" height="288" xmlns="http://www.w3.org/2000/svg" version="1.1" xmlns:xlink="http://www.w3.org/1999/xlink" xmlns:svgjs="http://svgjs.com/svgjs"><defs id="SvgjsDefs1135"></defs><g id="SvgjsG1136"><svg xmlns="http://www.w3.org/2000/svg" viewBox="0 0 64 64" width="288" height="288"><path d="m38.19,58.25l-1.92,1.34-10.43-15.64s0,0,0,0L5.87,14h10.61l17.09,24.16c.32.45.94.56,1.39.24.45-.32.56-.94.24-1.39l-2.06-2.92,13.69-20.53s0-.02.02-.03c0-.01.02-.02.02-.03.02-.03.03-.07.04-.1.02-.04.04-.08.05-.12.01-.05.02-.09.03-.14,0-.04.01-.08.01-.12,0-.05,0-.09-.01-.14,0-.04,0-.08-.02-.12-.01-.05-.03-.09-.05-.13-.01-.03-.02-.06-.04-.09,0,0-.01-.01-.01-.02,0,0,0-.02,0-.02l-6-10c-.18-.3-.51-.49-.86-.49H10c-.35,0-.68.18-.86.49L3.14,12.49s0,.02,0,.02c0,0-.01.01-.01.02-.02.03-.02.06-.04.1-.02.04-.04.09-.05.13,0,.04-.01.08-.02.12,0,.05-.01.09-.01.14,0,.04,0,.08.01.12,0,.05.01.09.03.14.01.04.03.08.05.12.01.03.02.07.04.1,0,.01.02.02.02.03,0,.01,0,.02.02.03l13.69,20.54L3.18,53.42c-.15.22-.21.49-.17.75s.19.5.41.65l10,7c.17.12.37.18.57.18.06,0,.12,0,.18-.02.26-.05.5-.2.65-.43l10.17-15.25,10.17,15.25c.15.22.38.38.65.43.06.01.12.02.19.02.2,0,.4-.06.57-.18l2.76-1.93c.45-.32.56-.94.25-1.39s-.94-.56-1.39-.25ZM18.93,14h12.14l-6.07,8.58-6.07-8.58Zm12.97,18.34l-5.68-8.03,7.29-10.31h10.61l-12.23,18.34ZM10.57,4h28.87l4.8,8H5.77l4.8-8Zm3.17,55.59l-8.34-5.84,12.65-17.88,5.75,8.63-10.06,15.09Z" fill="#000000" class="svgShape color000000-0 selectable"></path><path d="m48,33c-7.17,0-13,5.83-13,13s5.83,13,13,13,13-5.83,13-13-5.83-13-13-13Zm0,24c-6.07,0-11-4.93-11-11s4.93-11,11-11,11,4.93,11,11-4.93,11-11,11Z" fill="#dc2626" class="svgShape color000000-1 selectable"></path><path d="m55,43h-4v-4c0-.55-.45-1-1-1h-4c-.55,0-1,.45-1,1v4h-4c-.55,0-1,.45-1,1v4c0,.55.45,1,1,1h4v4c0,.55.45,1,1,1h4c.55,0,1-.45,1-1v-4h4c.55,0,1-.45,1-1v-4c0-.55-.45-1-1-1Zm-1,4h-4c-.55,0-1,.45-1,1v4h-2v-4c0-.55-.45-1-1-1h-4v-2h4c.55,0,1-.45,1-1v-4h2v4c0,.55.45,1,1,1h4v2Z" fill="#dc2626" class="svgShape color000000-2 selectable"></path></svg></g></svg>