<svg width="512" height="512" viewBox="0 0 512 512" fill="none" xmlns="http://www.w3.org/2000/svg">
<path d="M156.748 468.993H111.493C109.32 468.993 107.236 468.13 105.7 466.594C104.164 465.057 103.301 462.974 103.301 460.801V329.985C103.301 327.812 104.164 325.729 105.7 324.192C107.236 322.656 109.32 321.793 111.493 321.793H156.748C158.921 321.793 161.005 322.656 162.541 324.192C164.077 325.729 164.94 327.812 164.94 329.985V460.801C164.94 462.974 164.077 465.057 162.541 466.594C161.005 468.13 158.921 468.993 156.748 468.993ZM119.685 452.609H148.556V338.177H119.685V452.609Z" fill="black"/>
<path d="M238.002 468.993H192.747C190.574 468.993 188.49 468.13 186.954 466.594C185.418 465.057 184.555 462.974 184.555 460.801V280.255C184.555 278.082 185.418 275.998 186.954 274.462C188.49 272.926 190.574 272.062 192.747 272.062H238.002C240.175 272.062 242.259 272.926 243.795 274.462C245.331 275.998 246.194 278.082 246.194 280.255V460.801C246.194 462.974 245.331 465.057 243.795 466.594C242.259 468.13 240.175 468.993 238.002 468.993ZM200.939 452.609H229.81V288.447H200.939V452.609Z" fill="black"/>
<path d="M319.251 468.991H274.001C271.828 468.991 269.744 468.128 268.208 466.592C266.672 465.056 265.809 462.972 265.809 460.799V304.235C265.809 302.062 266.672 299.979 268.208 298.442C269.744 296.906 271.828 296.043 274.001 296.043H319.251C321.424 296.043 323.507 296.906 325.044 298.442C326.58 299.979 327.443 302.062 327.443 304.235V460.799C327.443 462.972 326.58 465.056 325.044 466.592C323.507 468.128 321.424 468.991 319.251 468.991ZM282.193 452.607H311.059V312.427H282.193V452.607Z" fill="black"/>
<path d="M400.505 468.993H355.255C353.082 468.993 350.998 468.13 349.462 466.594C347.926 465.057 347.062 462.974 347.062 460.801V230.442C347.062 228.269 347.926 226.186 349.462 224.649C350.998 223.113 353.082 222.25 355.255 222.25H400.505C402.678 222.25 404.761 223.113 406.298 224.649C407.834 226.186 408.697 228.269 408.697 230.442V460.801C408.697 462.974 407.834 465.057 406.298 466.594C404.761 468.13 402.678 468.993 400.505 468.993ZM363.447 452.609H392.313V238.634H363.447V452.609Z" fill="black"/>
<path d="M112.128 295.019C104.382 294.993 96.9543 291.929 91.4437 286.484C85.2289 280.263 81.6309 271.899 81.3881 263.109C81.1453 254.32 84.2762 245.77 90.1381 239.216L183.184 137.645C184.546 136.109 193.393 126.617 205.241 126.612C209.961 126.612 216.93 128.148 223.376 135.592L224.789 137.231C226.397 139.089 227.917 140.85 229.484 142.56L261.74 177.755C264.606 180.835 267.285 184.083 269.763 187.483L270.111 187.089L270.157 187.033C270.982 186.07 271.837 185.077 272.748 184.079L345.933 104.207L327.639 84.2385C326.705 83.2198 326.043 81.9811 325.716 80.6377C325.389 79.2943 325.407 77.89 325.769 76.5556C326.13 75.2211 326.824 74 327.785 73.0059C328.746 72.0118 329.943 71.2771 331.264 70.8702L420.015 43.3758C421.343 42.9636 422.755 42.8964 424.116 43.1806C425.478 43.4648 426.744 44.0911 427.797 45.0003C428.85 45.9095 429.654 47.0717 430.133 48.3775C430.612 49.6833 430.751 51.0895 430.536 52.4638L413.958 158.484C413.719 160.008 413.055 161.434 412.042 162.597C411.029 163.761 409.707 164.615 408.23 165.06C406.753 165.506 405.18 165.525 403.693 165.116C402.205 164.707 400.863 163.887 399.821 162.749L384.297 145.801L283.311 256.05C279.537 260.146 269.999 265.876 258.182 261.145C254.3 259.554 250.83 257.103 248.034 253.977L206.086 208.183C205.998 208.073 205.89 207.981 205.767 207.912C205.644 207.843 205.509 207.8 205.369 207.784C205.228 207.8 205.092 207.843 204.968 207.912C204.844 207.98 204.735 208.073 204.647 208.183L134.144 285.142C131.465 288.128 128.21 290.541 124.574 292.236C120.939 293.932 116.998 294.875 112.989 295.008C112.712 295.019 112.425 295.019 112.128 295.019ZM102.851 274.723C104.116 275.99 105.623 276.99 107.284 277.661C108.944 278.332 110.722 278.662 112.512 278.63C114.331 278.554 116.115 278.112 117.758 277.329C119.401 276.546 120.868 275.438 122.071 274.073L192.564 197.119C194.176 195.32 196.149 193.881 198.354 192.896C200.56 191.911 202.948 191.402 205.364 191.402C207.779 191.402 210.167 191.911 212.373 192.896C214.578 193.881 216.552 195.32 218.164 197.119L260.096 242.912C261.242 244.215 262.662 245.246 264.254 245.933C268.585 247.669 271.186 245.012 271.212 244.981L378.22 128.143C378.987 127.304 379.921 126.635 380.961 126.177C382.001 125.719 383.125 125.483 384.262 125.483C385.398 125.483 386.522 125.719 387.562 126.177C388.602 126.635 389.536 127.304 390.303 128.143L400.384 139.125L412.294 62.9137L348.447 82.6974L363.08 98.6667C364.465 100.177 365.233 102.152 365.233 104.201C365.233 106.251 364.465 108.225 363.08 109.736L284.826 195.163C284.099 195.957 283.367 196.812 282.599 197.723L282.548 197.785C278.016 203.069 273.209 205.593 268.253 205.296C264.034 205.045 260.26 202.736 257.618 198.758C255.224 195.246 252.56 191.925 249.652 188.825L217.396 153.63C215.665 151.741 214.001 149.805 212.388 147.942L210.996 146.334C208.113 143.011 205.973 142.996 205.272 142.996H205.236C201.237 142.996 196.706 147.092 195.431 148.51C195.359 148.597 195.385 148.561 195.313 148.643L102.226 250.28C96.0824 257.003 96.364 268.425 102.856 274.723H102.851Z" fill="#DC2626"/>
</svg>
