<svg xmlns="http://www.w3.org/2000/svg" enable-background="new 0 0 512 512" viewBox="0 0 512 512" id="4">
  <g>
    <g>
      <path d="M427.031,264.848h-31.767V55.362c0-19.949-11.818-37.776-30.1-45.503c-18.333-7.727-39.342-3.636-53.483,10.353
			L50.531,279.04c-14.242,14.141-18.534,35.251-10.959,53.887s25.403,30.655,45.453,30.655h212.011v93.027
			c0,27.221,22.07,49.392,49.14,49.392s49.089-22.171,49.089-49.392v-93.027h31.767c27.069,0,49.089-22.12,49.089-49.341
			C476.119,286.969,454.1,264.848,427.031,264.848z M297.036,173.388v91.461h-92.269L297.036,173.388z"></path>
    </g>
  </g>
</svg>
