<svg xmlns="http://www.w3.org/2000/svg" enable-background="new 0 0 100 100" viewBox="0 0 100 100" id="gastrointestinal">
  <path d="M24.422,66.473c0.245,0,0.499-0.013,0.76-0.034c-0.094,0.488-0.153,1.018-0.166,1.6c-0.04,1.843,1.243,3.443,2.982,3.725
	c0.199,0.032,0.399,0.047,0.595,0.047c0.86,0,1.691-0.299,2.347-0.857c0.789-0.672,1.242-1.647,1.242-2.675c0-0.002,0-0.004,0-0.006
	c0.721-0.071,1.955-0.071,2.56-0.071c5.872,0,8.5-6.003,8.5-11.953c0-4.223-1.342-7.072-1.611-7.602
	c-0.755-1.479-2.427-2.241-4.07-1.839c-0.045,0.011-4.575,1.097-8.962,1.097c-1.225,0-2.365-0.087-3.37-0.209
	c0.042-1.063,0.564-1.835,1.159-2.369c0.343,0.119,0.708,0.187,1.089,0.188l6.513,0.008h0.002c2.9-0.004,8.385-1.915,8.385-9.111
	v-4.006c0-1.587-0.675-3.096-1.853-4.141c-1.15-1.02-2.685-1.501-4.217-1.319c-2.072,0.249-3.753,1.711-4.432,3.661h-1.007
	c-0.52-0.013-1.141-0.228-1.141-1.17v-3.655h-2.253v3.655c0,0.439,0.065,0.826,0.174,1.17h-6.171c-0.18,0-0.358,0.01-0.533,0.03
	c-2.655,0.298-4.734,2.8-4.734,5.832v4.708v0.481c0,1.087,0.598,2.065,1.525,2.489c0.317,0.146,0.65,0.217,0.982,0.217
	c0.558,0,1.109-0.2,1.561-0.588l2.996-2.57h0.937c-0.074,0.281-0.117,0.574-0.117,0.878c0,0.669,0.194,1.293,0.523,1.822
	c-0.805,0.799-1.492,1.917-1.618,3.433c-1.125-0.227-1.82-0.44-1.877-0.457c-0.905-0.292-1.871-0.226-2.719,0.19
	c-0.296,0.145-2.085,1.117-3.302,3.645c-0.653,1.358-1.145,3.156-1.145,5.533c0,2.156,0.426,5.273,1.139,6.757
	c0.444,0.927,1.264,1.585,2.24,1.846l0.003,1.482l1.799-0.003l0.454-0.001l-0.003-1.362C20.487,65.624,22.102,66.473,24.422,66.473z
	 M26.344,42.084c0-0.35,0.15-0.662,0.384-0.878c0.201-0.186,0.463-0.302,0.752-0.302h2.497l0.116-0.006
	c0.985-0.103,1.854-0.55,2.504-1.214c0.416-0.425,0.741-0.937,0.946-1.509c0.162-0.451,0.253-0.935,0.253-1.441v-3.87V32.86v-0.325
	c0-0.27,0.041-0.531,0.099-0.785c0.089-0.386,0.236-0.746,0.438-1.071c0.016-0.025,0.034-0.047,0.05-0.072
	c0.504-0.766,1.285-1.315,2.188-1.423c0.905-0.108,1.775,0.164,2.454,0.767c0.696,0.618,1.096,1.514,1.096,2.456v4.006
	c0,6.6-5.502,6.851-6.139,6.858l-5.018-0.006l-1.487-0.002c-0.452-0.001-0.84-0.279-1.022-0.678
	C26.387,42.433,26.344,42.264,26.344,42.084z M18.672,42.102c-0.079-0.036-0.212-0.171-0.212-0.443v-5.189
	c0-1.99,1.352-3.609,3.014-3.609h9.377h0.693v3.875c0,0.979-0.697,1.793-1.631,1.916h-2.432c-0.493,0-0.961,0.11-1.384,0.302h-3.66
	l-3.63,3.113C18.735,42.129,18.705,42.114,18.672,42.102z M16.378,58.799c-0.042-0.339-0.078-0.684-0.106-1.026
	c-0.042-0.522-0.066-1.04-0.066-1.522c0-3.713,1.375-5.632,2.319-6.515c0.462-0.432,0.823-0.62,0.866-0.641
	c0.083-0.041,0.17-0.071,0.26-0.093c0.211-0.053,0.437-0.049,0.658,0c0.043,0.01,0.086,0.015,0.129,0.029
	c0.183,0.057,1.106,0.336,2.527,0.602c0.129,0.024,0.267,0.048,0.404,0.072c1.084,0.188,2.414,0.357,3.903,0.424
	c0.431,0.02,0.871,0.032,1.325,0.032c0.448,0,0.895-0.013,1.34-0.032c4.125-0.177,7.957-1.081,8.142-1.126
	c0.004-0.001,0.018-0.004,0.018-0.004c0.229-0.053,0.458-0.049,0.672,0.004c0.364,0.091,0.679,0.327,0.854,0.671
	c0.14,0.274,1.365,2.791,1.365,6.579c0,0.237-0.008,0.474-0.018,0.711c-0.001,0.029-0.001,0.057-0.002,0.086
	c-0.038,0.859-0.141,1.709-0.306,2.526c-0.71,3.512-2.613,6.377-5.921,6.377c-2.62,0-3.655,0.079-4.246,0.526l-0.863,0.652
	l0.336,0.485c-0.026,0.202-0.04,0.425-0.04,0.667c0,0.366-0.164,0.715-0.45,0.959c-0.307,0.263-0.71,0.37-1.12,0.301h-0.001
	c-0.725-0.117-1.102-0.837-1.089-1.452c0.019-0.858,0.162-1.555,0.405-2.13c0.253-0.595,0.619-1.05,1.078-1.403
	c0.355-0.273,0.762-0.489,1.222-0.65c0.27-0.094,0.559-0.168,0.86-0.231c1.126-0.237,2.456-0.283,3.908-0.283
	c0.948,0,1.696-0.552,2.26-1.424c0.164-0.255,0.314-0.534,0.448-0.838c0.202-0.461,0.366-0.975,0.497-1.517
	c0.255-1.054,0.381-2.221,0.381-3.362c0-1.188-0.142-2.363-0.423-3.493l-0.255-1.028l-1.042,0.191
	c-1.493,0.274-3.564,0.587-5.795,0.725c-0.359,0.023-0.722,0.04-1.088,0.053c-0.374,0.012-0.75,0.019-1.127,0.019
	c-0.282,0-0.556-0.008-0.83-0.015c-0.344-0.009-0.68-0.023-1.011-0.042c-2.399-0.136-4.417-0.508-5.783-0.833l-0.651-0.155
	l-0.151-0.036l-0.425,0.707c-0.582,0.97-0.878,2.284-0.878,3.907c0,0.143,0.003,0.3,0.008,0.464
	c0.001,0.036,0.002,0.069,0.003,0.106c0.009,0.262,0.026,0.546,0.047,0.837l0.097,1.027c0.01,0.09,0.021,0.179,0.033,0.268
	c0.027,0.206,0.056,0.409,0.089,0.603c0.101,0.609,0.228,1.139,0.38,1.461c0.137,0.292,0.118,0.664-0.052,0.998
	c-0.084,0.164-0.205,0.293-0.34,0.404c-0.212,0.174-0.474,0.279-0.768,0.298l-0.192,0c-0.05-0.003-0.097-0.012-0.145-0.02
	c-0.276-0.049-0.521-0.17-0.701-0.365c-0.081-0.087-0.151-0.187-0.204-0.298c-0.19-0.396-0.371-1.048-0.521-1.817
	C16.516,59.774,16.44,59.294,16.378,58.799z M26.999,58.432c0.81-1.175,1.023-2.499,1.043-3.47c0.185,0.003,0.367,0.009,0.556,0.009
	c0.396,0,0.79-0.009,1.182-0.022c0.188,2.159,0.905,3.881,2.148,5.12c0.468,0.466,0.966,0.817,1.454,1.082
	c-1.082,0.029-2.298,0.125-3.462,0.428C29.134,60.206,28.112,59.185,26.999,58.432z M21.122,56.25c0-0.909,0.114-1.565,0.252-2.025
	c1.195,0.248,2.701,0.491,4.418,0.629c-0.005,0.685-0.138,1.663-0.745,2.442l-0.059,0.076c-1.362-0.535-2.727-0.761-3.862-0.796
	C21.123,56.467,21.122,56.358,21.122,56.25z M35.594,59.623c-1.157-0.259-3.233-1.225-3.57-4.809
	c1.431-0.123,2.768-0.303,3.899-0.487c0.1,0.63,0.15,1.275,0.15,1.924C36.073,57.647,35.86,58.791,35.594,59.623z M21.271,63.388
	c0.075-0.113,0.147-0.228,0.21-0.35c0.491-0.965,0.52-2.051,0.083-2.979c-0.067-0.155-0.162-0.61-0.247-1.209
	c1.662,0.103,4.719,0.713,6.504,3.599c-0.638,0.392-1.209,0.901-1.666,1.564C23.78,64.51,22.164,63.923,21.271,63.388z
	 M85.983,36.482c-0.345-1.371-2.209-2.77-4.92-4.667c-0.612-0.428-1.412-0.988-1.775-1.297v-3.047h1.126v-4.506v-2.253v-3.379
	c0-1.863-1.516-3.379-3.38-3.379H54.506c-1.025,0-1.943,0.46-2.563,1.183c-0.508,0.591-0.816,1.358-0.816,2.196v3.379v2.253v4.506
	h1.126v2.253v0.794c-0.363,0.309-1.164,0.869-1.775,1.297c-3.011,2.107-4.983,3.6-4.983,5.122v7.431V65.77v2.253v4.506v6.758v2.253
	c0,1.268,0.528,2.413,1.373,3.232c0.811,0.786,1.915,1.274,3.132,1.274h31.54c2.485,0,4.506-2.021,4.506-4.506v-2.253v-6.758v-4.506
	V65.77V44.368v-5.632v-1.799v-0.454H85.983z M83.793,41.178v3.19H73.655v1.126v1.126h10.138v12.202v6.948h-2.64h-5.245v2.253h4.005
	h3.881v4.506h-7.122H47.747v-4.506h7.885V65.77h-7.885V46.62h10.138v-1.126v-1.126H47.738l-0.002-7.339
	c0.234-0.71,2.8-2.505,4.033-3.368c1.095-0.766,1.799-1.259,2.219-1.684h20.794v-2.253H54.506v-2.253h22.165h0.363v0.429v2.994
	c0,0.851,0.69,1.334,2.737,2.767c0.453,0.317,1.085,0.759,1.715,1.223c0.767,0.564,1.529,1.159,1.962,1.598h-1.244H51.126v2.253
	h31.925h0.741V41.178z M83.793,81.54c0,1.242-1.011,2.253-2.253,2.253H58.822H50c-1.242,0-2.253-1.011-2.253-2.253l-0.001-2.253
	h21.26h14.786V81.54z M47.747,77.034v-2.253h26.85h9.195v2.253H72.099H47.747z M53.379,17.333c0-0.622,0.505-1.126,1.126-1.126
	h4.316h18.212c0.622,0,1.127,0.505,1.127,1.126v3.379h-9.155H53.379V17.333z M53.379,22.966h18.72h6.062v2.253h-3.563H53.379V22.966
	z M27.716,23.116l-0.704-0.905l0.89-0.692c5.597-4.349,12.288-6.928,19.346-7.462l1.123-0.085l0.086,1.147l0.083,1.099l-1.123,0.085
	c-6.616,0.499-12.886,2.918-18.133,6.996l-0.889,0.691L27.716,23.116z M42.367,82.927l1.098,0.253l-0.248,1.075l-0.259,1.121
	l-1.098-0.253c-8.566-1.977-16.108-7.031-21.237-14.23l-0.653-0.917l0.936-0.667l0.899-0.64l0.653,0.918
	C27.267,76.337,34.339,81.075,42.367,82.927z M69.915,62.456h-2.816h-2.253H62.03c-2.174,0-3.943,1.769-3.943,3.942
	s1.769,3.943,3.943,3.943h2.816h2.253h2.816c2.174,0,3.942-1.769,3.942-3.943S72.089,62.456,69.915,62.456z M69.915,68.088h-2.816
	v-3.379h2.816c0.932,0,1.69,0.758,1.69,1.69C71.604,67.33,70.847,68.088,69.915,68.088z M60.34,66.398c0-0.932,0.758-1.69,1.69-1.69
	h2.816v3.379H62.03C61.098,68.088,60.34,67.33,60.34,66.398z M65.77,60.138c4.347,0,7.885-3.538,7.885-7.885
	c0-2.869-1.547-5.379-3.845-6.758c-1.183-0.71-2.562-1.126-4.04-1.126c-1.478,0-2.857,0.416-4.04,1.126
	c-2.298,1.379-3.845,3.889-3.845,6.758C57.885,56.6,61.423,60.138,65.77,60.138z M65.77,46.62c3.105,0,5.632,2.527,5.632,5.632
	c0,3.106-2.527,5.633-5.632,5.633c-3.105,0-5.633-2.527-5.633-5.633C60.138,49.147,62.665,46.62,65.77,46.62z M64.644,53.38h-2.253
	v-2.253h2.253v-2.253h2.253v2.253h2.253v2.253h-2.253v2.253h-2.253V53.38z"></path>
</svg>
