<svg id="Layer_1" enable-background="new 0 0 512 512" viewBox="0 0 512 512" xmlns="http://www.w3.org/2000/svg"><path d="m480.67 257.57c-13.98-6.25-30.45.04-36.7 14.02l-22.83 51.06c-7.57-7.73-19.45-10.37-29.9-5.72l-40.16 17.85c-7.49.22-15.11 1.13-22.68 2.69-33.47 6.9-60.62 25.33-72.4 47.65-11.78-22.32-38.93-40.75-72.4-47.65-7.57-1.56-15.19-2.46-22.68-2.69l-40.16-17.85c-6.49-2.88-13.73-3.06-20.4-.5-3.64 1.4-6.86 3.52-9.5 6.22l-22.83-51.06c-6.25-13.98-22.71-20.27-36.7-14.02-13.91 6.22-20.09 22.28-14.08 36.58l43.28 102.81c4.61 10.96 13.01 18.75 24.28 22.54l83.74 28.15c3.24 1.09 5.25 3.89 5.25 7.3v19.38c0 14.88 22.18 22.67 44.1 22.67 14.96 0 30.04-3.63 38.1-10.67 8.08 7.04 23.17 10.67 38.09 10.67 10.99 0 21.41-1.91 29.34-5.39 12.84-5.62 14.75-13.24 14.75-17.29v-19.38c0-3.42 2.01-6.22 5.25-7.3l83.74-28.15c11.27-3.79 19.67-11.58 24.28-22.54l43.28-102.81c6.03-14.29-.15-30.35-14.06-36.57zm-230.67 216.76c0 3.76-12.19 10.67-32.1 10.67s-32.1-6.91-32.1-10.67v-19.38c0-8.61-5.27-15.94-13.43-18.68l-83.74-28.15c-8.02-2.7-13.76-8.02-17.04-15.82l-43.28-102.81c-3.46-8.22.01-17.43 7.91-20.97 2.04-.91 4.21-1.37 6.38-1.37 1.91 0 3.83.35 5.68 1.06 3.95 1.51 7.07 4.45 8.78 8.27l26.68 59.67c-2.35 11.94 3.76 24.37 15.34 29.52l55.87 24.83c3.03 1.35 6.57-.02 7.92-3.05s-.02-6.57-3.05-7.92l-55.87-24.83c-7.39-3.29-10.74-11.97-7.45-19.37 1.58-3.56 4.48-6.3 8.15-7.71s7.66-1.32 11.22.26l41.25 18.33c.73.32 1.52.5 2.32.52 7.15.14 14.46.98 21.73 2.47 36.55 7.53 65.41 30.76 68.82 55.32v69.81zm233.69-184.84-43.28 102.81c-3.28 7.8-9.02 13.12-17.04 15.82l-83.74 28.15c-8.16 2.74-13.43 10.07-13.43 18.68v19.38c0 1.44-2.37 4.02-7.56 6.29-6.36 2.78-15.3 4.38-24.53 4.38-19.83 0-32.05-6.9-32.1-10.65v-.01-.01-69.73c3.37-24.59 32.24-47.85 68.82-55.39 7.26-1.5 14.57-2.33 21.73-2.47.8-.02 1.59-.19 2.32-.52l41.25-18.33c7.39-3.28 16.08.06 19.37 7.45s-.06 16.08-7.45 19.37l-55.87 24.83c-3.03 1.35-4.39 4.89-3.05 7.92 1.35 3.03 4.89 4.39 7.92 3.05l55.87-24.83c11.58-5.15 17.69-17.58 15.34-29.52l26.68-59.67c1.71-3.83 4.83-6.76 8.78-8.27s8.23-1.4 12.06.31c7.89 3.53 11.37 12.74 7.91 20.96zm-309.41 10.65 34.96-34.45c2.61-2.58 4.77-5.43 6.44-8.49v30.65c0 12.82 10.43 23.25 23.25 23.25s23.25-10.43 23.25-23.25v-49.95c0-12.49-4.38-23.26-13.01-32.06 1.07-1.94 1.67-4.14 1.67-6.41v-20.17c3.62 2.57 7.42 5.01 11.48 7.35l25.99 15.01-17.8 100.54c-.58 3.26 1.6 6.38 4.86 6.95.35.06.71.09 1.05.09 2.86 0 5.39-2.05 5.9-4.95l11.52-65.04h49.53l3.95 31.65c-7.6 3.3-12.94 10.87-12.94 19.68 0 11.82 9.62 21.44 21.44 21.44s21.44-9.62 21.44-21.44c0-10.66-7.83-19.51-18.04-21.15l-6.08-48.65c-2.2-17.65-13.96-32.18-29.45-37.23.62-8.61-3.6-17.25-11.56-21.84l-36.72-21.2c-4.14-2.39-7.08-5.28-9.54-9.37l-5.15-8.56c2.84-4.28 4.33-8.97 4.33-13.75 0-8.54-4.86-16.53-13.68-22.48-.29-.19-.58-.37-.87-.55 4.75 2.22 10.05 3.46 15.63 3.46 20.46 0 37.11-16.65 37.11-37.11s-16.62-37.11-37.09-37.11-37.12 16.65-37.12 37.11c0 13.07 6.8 24.58 17.04 31.19-10.28-4.84-21.76-4.69-32.3.62-29.78 15.01-50.89 52.68-51.32 91.61-.15 13.22 2.05 26.42 6.54 39.23l5.05 16.64c.56 1.86.13 3.56-1.25 4.92l-31.15 30.69c-4.41 4.35-6.87 10.17-6.91 16.39-.05 6.22 2.32 12.08 6.67 16.49 8.99 9.14 23.74 9.25 32.88.25zm91.87-273.14c13.85 0 25.11 11.27 25.11 25.11s-11.26 25.12-25.11 25.12-25.12-11.27-25.12-25.11 11.28-25.12 25.12-25.12zm99.13 263.56c0 5.21-4.24 9.44-9.44 9.44-5.21 0-9.44-4.24-9.44-9.44 0-2.51.99-4.78 2.59-6.47l.9 7.22c.38 3.04 2.96 5.26 5.95 5.26.25 0 .5-.02.75-.05 3.29-.41 5.62-3.41 5.21-6.7l-.9-7.22c2.62 1.67 4.38 4.61 4.38 7.96zm-24.03-68.31.62 4.98h-45.9l3.93-22.17c.18 0 .37.02.55.02 2.03 0 4.07-.27 6.09-.81 5.46-1.46 10.09-4.78 13.21-9.4 11.12 3.57 19.9 14.49 21.5 27.38zm-71.82-71.37 36.72 21.2c5.37 3.1 7.22 10 4.12 15.37-1.49 2.59-3.92 4.44-6.84 5.22s-5.95.39-8.53-1.1l-26.58-15.34c-16.74-9.66-29.02-21.11-39.84-37.12l-7.67-11.34c-1.9-2.82-2.51-5.81-1.86-9.15s2.33-5.88 5.15-7.78l.46-.31c2.09-1.41 4.28-2.11 6.61-2.11.92 0 1.86.11 2.83.32 3.43.76 5.98 2.6 7.8 5.61l13.8 22.95c3.53 5.85 7.92 10.16 13.83 13.58zm-119.37 124.68 31.15-30.69c4.56-4.49 6.17-10.83 4.31-16.95l-5.09-16.76c-.02-.08-.05-.17-.08-.25-4.05-11.52-6.04-23.38-5.9-35.24.39-34.63 18.78-67.95 44.72-81.02 8.41-4.24 17.71-3.64 25.51 1.62 3.83 2.58 8.39 6.86 8.39 12.54 0 .31-.02.62-.05.92l-.94-1.56c-3.5-5.82-8.85-9.67-15.48-11.14s-13.11-.25-18.74 3.54l-.46.31c-5.44 3.66-8.98 9-10.24 15.44-1.25 6.44.03 12.72 3.7 18.15l7.67 11.34c6.18 9.14 12.8 16.92 20.31 23.79v29.83c0 .6-.41 1-.75 1.17-1.78.85-3.03 2.53-3.34 4.48s.36 3.93 1.8 5.29l3.05 2.89c7.03 6.67 10.59 14.97 10.59 24.65v49.95c0 6.21-5.05 11.25-11.25 11.25s-11.25-5.05-11.25-11.25v-52.83c0-1.59-.63-3.12-1.76-4.24l-9.21-9.21c-1.79-1.79-4.51-2.27-6.8-1.19s-3.66 3.47-3.42 5.99c.23 2.43.55 5.09.88 7.91l.37 3.14c.88 7.56-1.52 14.37-6.94 19.71l-34.96 34.45c-4.42 4.35-11.56 4.3-15.92-.12-2.1-2.13-3.24-4.96-3.22-7.98.04-3.01 1.22-5.83 3.35-7.93z"/></svg>