<svg xmlns="http://www.w3.org/2000/svg" id="geriatric-orthopedics" viewBox="0 0 64 64">
  <path d="M12.838 53.868c0 1.345 1.095 2.439 2.439 2.439s2.45-1.095 2.45-2.439v-9.065h3.205v9.065c0 1.345 1.1 2.439 2.451 2.439 1.345 0 2.439-1.095 2.439-2.439v-9.065h3.208c.158 0 .307-.074.401-.201.094-.127.123-.29.078-.441l-1.831-6.138c.044.004.086.016.131.016.92 0 1.669-.748 1.669-1.668v-2.243c0-.347.147-.671.392-.905.17.097.349.18.541.233.449.124.917.105 1.355-.03.147.205.251.439.251.702v23.293c0 .92.748 1.668 1.668 1.668s1.668-.748 1.668-1.668v-23.293c0-1.534-.759-2.938-2.03-3.802-.039-.114-.071-.231-.129-.34l-5.664-10.721c-.487-.894-1.328-1.499-2.273-1.673.011-.165.025-.329.025-.497 0-2.388-1.174-4.502-2.969-5.812.04-.227.067-.455.067-.692 0-2.371-1.93-4.3-4.301-4.3s-4.3 1.929-4.3 4.3c0 .239.028.469.068.697-1.791 1.311-2.962 3.422-2.962 5.806 0 .161.014.319.024.478-1.337.182-2.449 1.188-2.722 2.534l-3.095 14.867c-.16.753.011 1.54.469 2.159.459.622 1.164 1.019 1.979 1.089h.195c.386 0 .753-.09 1.09-.239l-1.67 6.191c-.041.149-.009.311.086.434.094.124.241.196.396.196h5.198v9.065ZM16.728 53.868c0 .794-.65 1.439-1.45 1.439-.794 0-1.439-.646-1.439-1.439v-9.065h2.89v9.065ZM24.823 53.868c0 .794-.646 1.439-1.439 1.439-.8 0-1.451-.646-1.451-1.439v-9.065h2.891v9.065ZM25.515 30.765c-.169-.582-.254-1.167-.254-1.741v-3.967l2.741 5.39c-.908.677-1.53 1.669-1.757 2.768l-.731-2.449ZM28.479 34.127v2.243c0 .368-.3.668-.669.668-.185 0-.367-.088-.493-.231l-.175-.586v-2.095c0-1.078.496-2.098 1.32-2.776l.434.854c.063.126.142.24.225.351-.403.415-.642.977-.642 1.57ZM34.354 34.127v23.293c0 .368-.3.668-.668.668s-.668-.3-.668-.668v-23.293c0-.438-.135-.854-.367-1.211.366-.331.631-.752.745-1.229.61.658.958 1.52.958 2.439ZM14.78 10.59c0-1.82 1.48-3.3 3.3-3.3s3.301 1.48 3.301 3.3c0 .036-.013.07-.014.105-.985-.508-2.099-.8-3.282-.8s-2.303.293-3.29.804c-.001-.037-.014-.072-.014-.109ZM18.085 10.896c3.418 0 6.198 2.781 6.198 6.198 0 .299-.029.591-.07.879-.003.021-.012.039-.012.061 0 .003.002.005.002.008-.459 2.968-3.023 5.25-6.118 5.25-3.418 0-6.198-2.781-6.198-6.198s2.78-6.198 6.198-6.198ZM7.737 37.221l-.15.002c-.486-.043-.931-.293-1.221-.685-.292-.396-.396-.877-.294-1.36l3.096-14.87c.188-.927.952-1.619 1.87-1.747.679 3.268 3.581 5.732 7.047 5.732s6.346-2.447 7.038-5.698c.631.132 1.196.536 1.526 1.142l5.662 10.717c.108.203.156.409.156.666 0 .48-.251.943-.648 1.204-.344.217-.748.278-1.14.168-.189-.053-.358-.144-.505-.262-.011-.009-.02-.018-.031-.026-.143-.122-.266-.271-.354-.448l-4.583-9.011c-.104-.206-.34-.314-.562-.26-.226.054-.384.255-.384.486v6.053c0 .668.099 1.347.294 2.023l1.624 5.442c.003.007.003.015.006.021l1.253 4.199H9.126l1.209-4.481s0-.002.001-.003l2.82-10.401c.072-.267-.085-.541-.352-.613-.268-.075-.541.086-.613.352l-2.82 10.402h0s-.001.005-.001.005c-.192.737-.863 1.252-1.633 1.252ZM8.856 41.71h18.88l.624 2.093h-3.032s-.003 0-.005 0-.003 0-.005 0h-3.881s-.003 0-.005 0-.003 0-.005 0h-4.195s-.003 0-.005 0-.003 0-.005 0h-3.88s-.003 0-.005 0-.003 0-.005 0h-5.041l.564-2.093ZM48.728 5.299c-1.51-.387-3.185-.48-4.765-.287-.525.064-1.039.159-1.532.285-6.018 1.445-10.221 6.788-10.221 12.993s4.203 11.548 10.214 12.992c1.001.257 2.065.387 3.164.387 1.082 0 2.139-.13 3.133-.385 6.032-1.449 10.245-6.792 10.245-12.994s-4.213-11.544-10.238-12.991ZM48.104 26.991v3.391c-.249.054-.5.103-.756.14-.125.018-.246.045-.372.059-.925.105-1.88.103-2.803-.002-.136-.016-.267-.044-.402-.064-.245-.037-.485-.083-.723-.134v-3.391c0-.249-.184-.46-.43-.495-1.557-.219-2.686-1.508-2.686-3.064 0-1.007.478-1.924 1.286-2.506.03-.017.063-.031.088-.054.398-.237.997-.5 1.736-.5.823 0 1.602.326 2.192.917.095.095.201.153.358.146.134-.001.262-.057.355-.153.982-1.021 2.744-1.198 3.955-.354.835.571 1.314 1.484 1.314 2.504 0 1.556-1.129 2.845-2.685 3.064-.246.035-.43.246-.43.495ZM45.583 20.261c-1.178-.936-2.802-1.143-4.268-.513-.042-.256-.068-.518-.068-.789 0-.684.154-1.358.435-1.977.42.145.887.226 1.36.226.931 0 1.817-.312 2.541-.889.709.576 1.599.889 2.551.889.476 0 .92-.102 1.335-.249.284.624.441 1.306.441 2 0 .271-.027.536-.069.795-1.388-.617-3.111-.425-4.257.506ZM49.483 15.895c-.39.205-.856.313-1.35.313-.845 0-1.621-.323-2.186-.909-.094-.097-.222-.152-.355-.153h-.005c-.133 0-.26.053-.354.146-.591.591-1.369.916-2.192.916-.503 0-.99-.111-1.391-.322-1.061-.508-1.719-1.557-1.719-2.737 0-1.556 1.129-2.845 2.686-3.064.246-.035.43-.246.43-.495v-3.392c.224-.049.452-.092.684-.128.155-.024.305-.056.462-.073.384-.044.775-.063 1.167-.071.19-.003.378.002.568.007.344.01.687.024 1.023.062.168.019.328.053.493.079.222.035.441.076.658.124v3.392c0 .249.184.46.43.495 1.556.219 2.685 1.508 2.685 3.064 0 1.181-.658 2.23-1.734 2.746ZM33.21 18.29c0-5.522 3.602-10.297 8.838-11.844v2.733c-1.804.454-3.115 2.09-3.115 3.97 0 1.405.706 2.666 1.853 3.394-.347.756-.539 1.579-.539 2.416 0 .462.067.904.169 1.331-.944.785-1.484 1.91-1.484 3.141 0 1.88 1.312 3.516 3.115 3.97v2.733c-5.233-1.544-8.838-6.32-8.838-11.845ZM49.104 30.135v-2.733c1.803-.454 3.114-2.09 3.114-3.97 0-1.222-.552-2.363-1.482-3.121.105-.437.173-.887.173-1.352 0-.84-.19-1.665-.536-2.422 1.148-.736 1.845-1.992 1.845-3.389 0-1.88-1.312-3.516-3.114-3.97v-2.733c5.247 1.547 8.862 6.323 8.862 11.844s-3.612 10.294-8.862 11.845Z" style="stroke-width:0"></path>
</svg>
