<svg width="1048" height="1048" viewBox="0 0 1048 1048" fill="none" xmlns="http://www.w3.org/2000/svg">
<g clip-path="url(#clip0_14_147)">
<path d="M559.359 623.057V550.893H487.194V623.057C487.194 633.023 479.119 641.098 469.153 641.098H396.989V713.263H469.153C479.119 713.263 487.194 721.344 487.194 731.304V803.469H559.359V731.304C559.359 721.344 567.44 713.263 577.4 713.263H649.565V641.098H577.4C567.44 641.098 559.359 633.023 559.359 623.057Z" fill="black"/>
<path d="M310.396 117.921C297.13 138.779 274.137 151.431 249.421 151.478C244.443 151.468 239.476 150.926 234.623 149.853V470.075L395.728 214.614L367.04 201.629C341.392 189.851 324.975 164.182 325.006 135.952C324.991 129.865 325.777 123.804 327.36 117.921H310.396Z" fill="black"/>
<path d="M631.518 406.569H444.437L352.253 552.517C350.087 555.766 348.28 558.291 346.478 560.822L345.031 562.806C340.86 568.267 336.409 573.505 331.686 578.493C326.349 584.189 320.627 589.49 314.551 594.379C305.908 601.809 296.39 608.171 286.227 613.321C285.139 614.039 282.431 615.299 279.729 616.752C279.547 616.752 275.944 618.366 273.418 619.626C272.148 620.35 270.883 621.079 269.805 621.615L265.65 623.057C259.699 625.223 253.024 627.207 246.526 629.019C242.564 630.097 238.596 630.997 234.623 631.721V875.633H722.625C722.989 872.921 723.171 870.218 723.713 867.516C731.835 813.049 764.299 765.252 811.93 737.62V117.921H519.673C520.569 118.645 521.298 119.363 522.194 120.082C527.65 125.314 532.602 131.063 536.986 137.222C559.916 170.946 562.144 214.64 542.76 250.514C542.401 251.243 542.047 252.139 541.677 252.862L538.798 257.371L524.359 280.286H595.441C605.401 280.286 613.487 288.356 613.487 298.322C613.487 308.287 605.401 316.363 595.441 316.363H501.445L467.352 370.492H631.518C641.484 370.492 649.564 378.562 649.564 388.528C649.564 398.493 641.484 406.569 631.518 406.569ZM667.606 280.286H685.647C695.607 280.286 703.683 288.356 703.683 298.322C703.683 308.287 695.607 316.363 685.647 316.363H667.606C657.645 316.363 649.564 308.287 649.564 298.322C649.564 288.356 657.645 280.286 667.606 280.286ZM685.647 641.098V713.263C685.59 733.168 669.464 749.283 649.564 749.34H595.441V803.469C595.384 823.374 579.259 839.489 559.359 839.546H487.194C467.294 839.489 451.169 823.374 451.112 803.469V749.34H396.988C377.089 749.283 360.963 733.168 360.906 713.263V641.098C360.963 621.193 377.089 605.079 396.988 605.021H451.112V550.893C451.169 530.988 467.294 514.873 487.194 514.816H559.359C579.259 514.873 595.384 530.988 595.441 550.893V605.021H649.564C669.464 605.079 685.59 621.193 685.647 641.098Z" fill="#DC2626"/>
<path d="M18.1297 498.758C20.3009 502.548 22.6439 506.516 25.1743 510.129C27.6996 513.737 30.4018 517.34 33.2967 520.766C33.4686 520.766 33.4686 520.766 33.4686 520.949C35.4523 523.115 37.4413 525.458 39.6072 527.624C48.1358 536.465 57.789 544.16 68.2856 550.543C73.0029 553.407 77.8867 555.995 82.9008 558.291L133.593 581.57L142.793 585.715C155.05 591.364 168.051 595.191 181.406 597.081C185.519 597.836 189.679 598.315 193.85 598.523C207.559 599.32 221.315 598.023 234.623 594.67C235.483 594.571 236.326 594.389 237.154 594.123C242.584 592.707 247.937 591.031 253.201 589.068L255.19 588.344C255.757 587.974 256.361 587.678 256.997 587.448C258.621 586.719 264.026 584.199 264.026 584.199C265.546 583.356 267.316 582.523 268.738 581.674C269.081 581.492 269.461 581.331 269.805 581.133C272.814 579.586 275.735 577.759 278.63 575.895C279.37 575.437 280.192 575.041 280.937 574.551C282.577 573.427 284.129 572.136 285.737 570.938C287.7 569.475 289.72 568.085 291.631 566.518C296.484 562.56 301.066 558.286 305.351 553.714L305.471 553.569L305.705 553.35C305.939 553.095 306.137 552.829 306.366 552.574C309.98 548.664 313.223 544.858 316.347 540.895C318.154 538.37 319.956 535.85 321.762 533.148L376.787 446.191L508.125 238.356V238.226L509.744 235.654C509.874 235.18 510.119 234.743 510.473 234.384C511.587 232.155 512.598 229.859 513.483 227.516C514.128 226.016 514.889 224.595 515.43 223.075C516.617 219.602 517.549 216.035 518.21 212.417C518.445 211.167 518.84 209.949 519.023 208.678C519.543 204.685 519.726 200.649 519.58 196.614C519.58 195.641 519.705 194.683 519.58 193.73C519.262 188.627 518.424 183.577 517.086 178.646C513.733 166.259 506.933 155.075 497.477 146.411L497.3 146.245C491.781 141.023 485.45 136.753 478.541 133.613L466.263 128.021L462.119 136.857L435.419 194.953C437.153 196.88 438.449 199.155 439.209 201.628C440.756 206.674 440.032 212.135 437.22 216.603L262.401 493.525C261.964 494.197 261.505 494.79 261.073 495.332C260.084 496.758 259.048 498.107 257.986 499.409C257.382 500.179 256.846 500.903 256.096 501.752L255.966 501.897C254.372 503.787 252.649 505.553 250.811 507.203C250.306 507.666 249.744 508.031 249.239 508.505C246.562 510.853 243.73 513.014 240.736 514.956C239.393 515.831 238.034 516.674 236.644 517.471C224.543 524.401 210.626 527.473 196.74 526.291C195.953 526.327 195.162 526.265 194.397 526.109C191.892 525.958 189.403 525.525 186.993 524.843C184.608 524.354 182.249 523.693 179.964 522.86C177.558 522.11 175.205 521.214 172.919 520.157L113.032 492.807C80.8077 478.04 64.4014 441.776 74.6013 407.834L162.464 101.322L165.166 91.7622C165.88 89.2109 167.671 87.1074 170.066 86.0036C172.456 84.8945 175.22 84.8841 177.615 85.988L179.599 86.8939L209.725 21.3939L198.182 15.9894L198 15.8123C186.368 10.7514 173.632 8.76769 161.017 10.0329C155.857 10.5744 150.759 11.7251 145.86 13.4589C143.402 14.2659 140.992 15.2344 138.643 16.3434C119.65 25.2416 105.394 41.8613 99.5049 61.9956L6.05019 388.35C4.97241 392.5 3.87901 396.473 3.16569 400.617C-3.04588 430.988 0.682106 462.556 13.8029 490.641L18.1297 498.758Z" fill="black"/>
<path d="M317.071 54.2324C320.377 63.0473 321.846 72.4349 321.403 81.8382H349.54C362.708 70.2481 379.635 63.8387 397.165 63.7918C407.365 63.8179 417.445 65.9682 426.765 70.1179L452.195 81.8382H811.929V63.7918C811.888 50.2961 806.806 37.295 797.679 27.3607C797.32 26.9962 796.955 26.4547 796.419 25.908L795.331 24.8302C794.201 23.6692 792.998 22.581 791.728 21.5813C790.973 20.868 790.114 20.2588 789.197 19.7798C787.125 18.3011 784.959 16.9682 782.699 15.8123C781.866 15.2656 780.96 14.8438 779.997 14.5471C776.93 13.2818 775.306 12.5633 773.869 12.0166C768.672 10.3869 763.252 9.58509 757.806 9.6736H288.747C284.056 9.61112 279.375 10.2255 274.855 11.4855L278.104 12.9226C296.182 20.8003 310.256 35.7278 317.071 54.2324Z" fill="#DC2626"/>
<path d="M234.623 911.71V965.839C234.649 977.548 238.44 988.93 245.448 998.307C251.082 1006 258.777 1011.95 267.639 1015.44C268.81 1016.18 270.086 1016.73 271.429 1017.07C272.71 1017.35 273.975 1017.71 275.215 1018.16C275.918 1018.42 276.641 1018.6 277.381 1018.69C278.776 1019.18 280.239 1019.43 281.707 1019.42C284.05 1019.74 286.393 1019.93 288.747 1019.96H757.806C759.795 1019.96 761.951 1019.78 763.757 1019.59C765.46 1019.54 767.157 1019.3 768.813 1018.87C769.672 1018.69 770.516 1018.44 771.344 1018.16H771.698C743.92 989.149 726.644 951.676 722.625 911.71H234.623ZM559.359 983.88H487.194C477.234 983.88 469.153 975.799 469.153 965.839C469.153 955.868 477.234 947.797 487.194 947.797H559.359C569.319 947.797 577.4 955.868 577.4 965.839C577.4 975.799 569.319 983.88 559.359 983.88Z" fill="#DC2626"/>
<path d="M234.441 112.146C239.153 114.25 244.256 115.354 249.421 115.395C263.547 115.395 276.386 107.143 282.254 94.2874C284.842 88.5653 285.868 82.2548 285.232 76.012C285.232 75.2102 285.232 74.4552 285.087 73.6638C284.904 72.5652 284.54 71.4978 284.253 70.394C284.024 69.1496 283.717 67.9052 283.332 66.6868C282.577 64.7499 281.655 62.8703 280.572 61.0896C280.468 60.8866 280.359 60.6731 280.27 60.4596C279.859 59.8088 279.328 59.2309 278.88 58.6529C275.282 53.4046 270.336 49.2132 264.572 46.5161L262.948 45.7612L242.564 36.3735H242.376L237.154 47.7449V47.9063L212.438 101.863L232.999 111.423L234.441 112.146Z" fill="#DC2626"/>
<path d="M412.145 103.129C407.438 101.01 402.33 99.8901 397.165 99.8745C384.409 99.9526 372.658 106.836 366.326 117.921H365.962C365.415 118.816 364.884 119.905 364.337 120.982C356.048 139.065 363.947 160.459 382.019 168.795L403.304 178.537L431.269 117.921L433.435 113.047L431.634 116.656L433.435 112.813L412.145 103.129Z" fill="#DC2626"/>
<path d="M180.495 749.34H108.335C97.0734 749.351 86.4518 744.102 79.6206 735.152C72.7894 726.191 70.5349 714.565 73.5236 703.709L109.601 630.42C111.746 626.072 112.063 621.058 110.465 616.476C108.872 611.91 105.503 608.171 101.129 606.099C91.0909 601.434 78.371 595.493 68.4314 590.786C59.5228 586.595 48.9116 590.323 44.564 599.159L7.49247 674.478C6.81039 675.947 6.21162 677.446 5.69095 678.982C-6.07614 713.601 0.656097 751.829 23.5499 780.335C45.4231 806.926 78.2148 822.083 112.636 821.51H180.495C190.466 821.51 198.541 813.434 198.541 803.469V767.386C198.541 757.426 190.466 749.34 180.495 749.34Z" fill="black"/>
<path d="M967.797 419.924C974.451 427.89 977.226 438.392 975.372 448.607L909.534 713.627C933.833 714.372 957.685 720.271 979.527 730.939L1045.74 464.665C1052.36 432.784 1044.28 399.633 1023.74 374.365C1003.2 349.108 972.399 334.435 939.842 334.409H848.012V406.569H939.842C950.693 406.563 960.981 411.478 967.797 419.924Z" fill="black"/>
<path d="M1046.1 883.745C1046.12 883.141 1046.06 882.537 1045.92 881.949V881.402C1045.74 878.7 1045.38 876.169 1045.02 873.467C1044.66 870.374 1044.11 867.292 1043.39 864.267C1043.35 863.595 1043.23 862.929 1043.03 862.278C1042.49 859.747 1041.95 857.41 1041.23 855.067C1041.08 854.265 1040.83 853.473 1040.5 852.718C1039.78 850.016 1038.88 847.486 1037.98 844.966C1037.83 844.466 1037.64 843.992 1037.44 843.518C1036.54 840.998 1035.45 838.285 1034.37 835.942C1033.84 834.302 1033.11 832.725 1032.2 831.251C1031.65 829.819 1031 828.429 1030.22 827.096L1027.52 822.223C1024.65 817.063 1021.4 812.117 1017.77 807.441L1014.52 803.114C1014.18 802.797 1013.87 802.432 1013.63 802.021C1011.82 800.037 1010.02 797.871 1008.22 795.893C1006.05 793.539 1003.88 791.384 1001.54 789.212C1000.79 788.291 999.943 787.442 999.011 786.692C997.709 785.443 996.329 784.303 994.866 783.261C994.32 782.715 993.778 782.366 993.419 781.996C991.253 780.194 989.092 778.57 986.926 776.946C984.765 775.321 982.053 773.52 979.35 771.713H978.991C978.621 771.359 978.09 771.166 977.726 770.812C975.372 769.37 973.217 768.292 970.869 766.839H970.686C967.797 765.215 964.917 763.778 961.846 762.336C960.221 761.612 958.597 760.888 956.795 760.17C956.077 759.993 955.353 759.633 954.811 759.446C953.312 758.691 951.745 758.087 950.12 757.639C949.766 757.462 949.402 757.462 949.042 757.28C948.891 757.145 948.699 757.082 948.496 757.108C947.928 756.79 947.329 756.546 946.689 756.384H946.517C946.153 756.384 945.97 756.202 945.611 756.202C942.669 755.104 939.655 754.208 936.593 753.495C933.891 752.766 930.996 752.235 928.111 751.688C925.222 751.157 922.691 750.792 919.989 750.433H919.27C916.74 750.063 914.038 749.886 911.336 749.704H910.971C910.789 749.704 910.789 749.532 910.612 749.532C910.518 749.626 910.388 749.689 910.258 749.704H910.07C908.701 749.465 907.306 749.402 905.915 749.532C904.666 749.376 903.401 749.314 902.135 749.34H897.809C895.82 749.34 893.836 749.532 891.852 749.704C886.468 750.089 881.111 750.756 875.79 751.688C874.53 751.87 873.087 752.235 871.827 752.417C871.432 752.615 870.999 752.734 870.562 752.766C870.203 752.766 869.838 752.953 869.479 752.953C868.443 753.187 867.422 753.5 866.412 753.859C865.912 753.89 865.428 754.015 864.965 754.213C862.757 754.708 860.586 755.379 858.483 756.202C857.29 756.426 856.14 756.79 855.051 757.28C852.281 758.144 849.574 759.165 846.929 760.357C846.205 760.529 845.487 760.888 844.95 761.07C844.664 761.242 844.367 761.362 844.039 761.435C842.956 761.966 842.061 762.336 841.155 762.877C840.254 763.419 839.53 763.59 838.629 763.96C838.353 764.179 838.057 764.361 837.734 764.496C836.854 764.845 836.01 765.267 835.203 765.762C834.303 766.308 833.397 766.668 832.501 767.209C832.22 767.428 831.918 767.61 831.6 767.745C829.976 768.646 828.159 769.557 826.55 770.635C826.363 770.812 826.003 770.994 825.821 771.166C824.197 772.26 822.395 773.337 820.771 774.415C820.583 774.608 820.224 774.79 820.052 774.962C818.428 776.04 816.803 777.31 815.179 778.388C815.002 778.57 815.002 778.57 814.819 778.57C813.736 779.471 812.83 780.194 811.93 780.918V781.095C809.337 783.053 806.874 785.167 804.536 787.416L799.663 792.29C798.033 793.914 796.601 795.539 794.977 797.163V797.335C794.607 797.335 794.607 797.517 794.43 797.694C793.009 799.168 791.686 800.74 790.457 802.385V802.568C790.103 802.568 790.103 802.745 789.921 802.927L788.296 805.088L786.131 807.8C784.246 810.221 782.496 812.752 780.898 815.376C779.997 816.641 779.273 817.896 778.373 819.344C775.993 823.259 773.822 827.284 771.875 831.423C769.755 835.765 767.892 840.222 766.293 844.778C765.028 848.392 763.94 851.818 763.044 855.421C761.456 860.934 760.248 866.532 759.431 872.202C759.248 873.28 759.071 874.368 758.889 875.633C758.702 876.898 758.702 877.794 758.53 879.054C758.014 883.912 757.775 888.79 757.806 893.674C757.806 896.199 757.806 898.725 757.988 901.073C758.171 902.869 758.171 904.676 758.348 906.477C758.53 908.284 758.702 909.908 758.889 911.71C759.962 920.155 761.779 928.486 764.299 936.608C764.507 936.942 764.622 937.306 764.669 937.686C765.923 941.841 767.548 945.809 769.172 949.953C769.355 950.135 769.355 950.5 769.526 950.859C770.255 952.666 771.151 954.29 772.057 956.092V956.279C772.244 956.633 772.421 956.81 772.421 957.175C773.27 958.981 774.238 960.731 775.306 962.407C776.389 964.386 777.477 966.375 778.732 968.359V968.541C778.919 968.905 779.096 969.088 779.273 969.442C779.82 970.165 780.356 971.061 780.898 971.79C781.2 972.373 781.559 972.915 781.981 973.414C782.163 973.586 782.345 973.951 782.522 974.133C782.882 974.857 783.428 975.575 783.787 976.304C784.693 977.559 785.594 978.637 786.495 979.907V980.089C786.714 980.287 786.896 980.542 787.026 980.808C788.192 982.401 789.452 983.901 790.822 985.317V985.499C791.004 985.681 791.181 986.041 791.363 986.212C792.805 987.837 794.071 989.107 795.331 990.555V990.732C797.32 992.893 799.48 995.241 801.646 997.412C802.703 998.521 803.849 999.547 805.072 1000.47C805.072 1000.65 805.072 1000.65 805.255 1000.65L805.619 1001.01C807.098 1002.43 808.665 1003.76 810.305 1004.99L810.67 1005.35L810.852 1005.52L813.007 1007.14L815.725 1009.31C819.474 1012.12 823.384 1014.71 827.445 1017.07C829.429 1018.16 831.236 1019.42 833.214 1020.5C834.667 1021.33 836.177 1022.05 837.734 1022.66C844.659 1026.27 851.896 1029.23 859.378 1031.51C860.279 1031.86 861.357 1032.05 862.44 1032.41C870.697 1034.78 879.153 1036.4 887.702 1037.27L894.742 1037.82C897.085 1038 899.605 1038 902.135 1038C904.661 1038 907.181 1038 909.534 1037.82C911.336 1037.64 913.137 1037.64 914.944 1037.46C925.175 1036.59 935.276 1034.59 945.064 1031.51C945.403 1031.3 945.767 1031.18 946.153 1031.14C950.297 1029.88 954.27 1028.26 958.42 1026.63C958.597 1026.45 958.966 1026.45 959.325 1026.27C961.122 1025.55 962.746 1024.64 964.553 1023.74H964.735C965.094 1023.57 965.277 1023.38 965.641 1023.38C967.437 1022.53 969.187 1021.57 970.869 1020.5C972.852 1019.42 974.841 1018.33 976.82 1017.07H976.997C977.367 1016.89 977.544 1016.71 977.903 1016.54C978.621 1015.99 979.527 1015.44 980.246 1014.91C981.1 1014.47 981.891 1013.93 982.594 1013.29H982.776C983.391 1012.8 984.057 1012.38 984.765 1012.02C986.025 1011.12 987.103 1010.21 988.368 1009.31H988.545C988.754 1009.1 988.998 1008.9 989.274 1008.77C989.972 1008.29 990.638 1007.74 991.253 1007.14C991.435 1007.14 991.435 1006.96 991.617 1006.96C992.341 1006.24 993.06 1005.71 993.778 1004.99H993.966C994.148 1004.81 994.502 1004.62 994.679 1004.44C996.121 1003.18 997.569 1001.92 999.011 1000.47H999.193C1002.62 997.23 1005.69 994.163 1008.93 990.732H1009.12L1009.3 990.367L1009.48 990.19C1010.9 988.712 1012.21 987.144 1013.44 985.499L1013.8 985.135L1013.99 984.963L1015.61 982.792L1017.77 980.089C1020.59 976.335 1023.17 972.42 1025.53 968.359L1025.89 967.999C1026.54 967.036 1027.08 966.01 1027.52 964.933C1028.11 964.152 1028.59 963.308 1028.95 962.407C1029.83 961.043 1030.55 959.591 1031.13 958.075C1034.73 951.151 1037.7 943.898 1039.97 936.426C1040.33 935.531 1040.5 934.442 1040.87 933.359C1044.56 920.452 1046.45 907.097 1046.45 893.674V892.227C1046.49 891.258 1046.43 890.295 1046.28 889.342C1046.28 887.541 1046.28 885.729 1046.1 883.745ZM903.036 983.88C859.716 984.286 822.228 953.837 813.736 911.351C812.58 905.826 811.982 900.214 811.93 894.575C811.898 888.16 812.502 881.751 813.736 875.451C823.301 829.106 867.042 798.027 913.96 804.255C960.872 810.492 994.991 851.911 992.112 899.151C989.248 946.386 950.354 983.375 903.036 983.88Z" fill="black"/>
<path d="M901.589 839.545C871.702 839.847 847.72 864.324 848.017 894.21C848.319 924.102 872.791 948.089 902.682 947.792C932.563 947.485 956.556 923.019 956.264 893.132C955.873 863.277 931.454 839.337 901.589 839.545Z" fill="black"/>
</g>
<defs>
<clipPath id="clip0_14_147">
<rect width="1048" height="1048" fill="white"/>
</clipPath>
</defs>
</svg>
