<svg xmlns="http://www.w3.org/2000/svg" viewBox="0 0 64 64" id="health-advise">
  <path d="M12 22c3.86 0 7-3.14 7-7s-3.14-7-7-7-7 3.14-7 7 3.14 7 7 7zm0-12c2.76 0 5 2.24 5 5s-2.24 5-5 5-5-2.24-5-5 2.24-5 5-5zm44 21c3.31 0 6-2.69 6-6s-2.69-6-6-6-6 2.69-6 6 2.69 6 6 6zm0-10c2.21 0 4 1.79 4 4s-1.79 4-4 4-4-1.79-4-4 1.79-4 4-4z"></path>
  <path d="M56 32c-3.86 0-7 3.14-7 7v2h-7c-1.65 0-3 1.35-3 3 0 .35.07.69.18 1H20c.55 0 1-.45 1-1v-5.55l10.83-8.43c.53-.41.9-.99 1.07-1.64 1.32.4 2.69.61 4.1.61 7.72 0 14-6.28 14-14S44.72 1 37 1 23 7.28 23 15v.3l-4.79 6.08c-.26.33-.29.79-.07 1.14.22.36.64.54 1.05.46l5.61-1.13c.78 1.38 1.78 2.62 2.96 3.66l-6.77 4.83V30c0-3.86-3.14-7-7-7h-4c-3.86 0-7 3.14-7 7v14c0 .55.45 1 1 1v16H1v2h62v-2h-5v-6.29c2.89-.86 5-3.54 5-6.71v-9c0-3.86-3.14-7-7-7ZM42 47h.59l-.54.54c-.95.94-2.2 1.46-3.54 1.46H25.48a5.01 5.01 0 0 1-3.54-1.46L21.4 47h20.59ZM26.24 20.28a1 1 0 0 0-1.1-.54l-3.67.74 3.34-4.24a.96.96 0 0 0 .21-.67v-.21c-.02-.12-.03-.24-.03-.36 0-6.62 5.38-12 12-12s12 5.38 12 12-5.38 12-12 12c-1.54 0-3.01-.29-4.41-.85-.13-.23-.28-.45-.48-.65-.61-.61-1.42-.9-2.23-.88-1.54-1.14-2.8-2.63-3.65-4.35Zm-5.36 12.61 8.51-6.08c.41-.29.96-.25 1.31.11.21.21.32.49.3.79s-.16.56-.39.74L20.26 36.5l-5.43-3.62c-.36-.24-.58-.62-.62-1.04s.11-.84.41-1.14a1.41 1.41 0 0 1 1.83-.15l3.28 2.34c.35.25.81.25 1.16 0ZM10.24 61.01 12 52.78l1.76 8.23h-3.53Zm7.76 0h-2.19L12.98 47.8c-.1-.46-.51-.79-.98-.79s-.88.33-.98.79L8.19 61.01H6v-16h12v16Zm1-18H5v-13c0-2.76 2.24-5 5-5h4c2.73 0 4.94 2.19 4.99 4.91l-1.39-1a3.43 3.43 0 0 0-4.41.36c-.73.73-1.09 1.73-.98 2.75.1 1.02.65 1.94 1.51 2.51l5.29 3.52V43Zm8.1 18H20V48.42l.54.54a6.96 6.96 0 0 0 4.95 2.05H31v6.1a5.01 5.01 0 0 0-3.9 3.9Zm2.08 0c.41-1.16 1.51-2 2.82-2s2.4.84 2.82 2h-5.63Zm7.71 0a5.01 5.01 0 0 0-3.9-3.9v-6.1h5.51c1.87 0 3.63-.73 4.95-2.05l1.95-1.95h3.35l-.89.45a6.95 6.95 0 0 0-3.87 6.26v6.29c0 .35.07.69.18 1h-7.29Zm19.1 0h-6.18c.11-.31.18-.65.18-1v-4c0-.55.45-1 1-1h5v6Zm5-13c0 2.76-2.24 5-5 5h-5c-1.65 0-3 1.35-3 3v4c0 .55-.45 1-1 1s-1-.45-1-1v-6.29c0-1.91 1.06-3.62 2.76-4.47l4.47-2.24h.76c.55 0 1-.45 1-1v-8h-2v7h-11c-.55 0-1-.45-1-1s.45-1 1-1h8c.55 0 1-.45 1-1v-3c0-2.76 2.24-5 5-5s5 2.24 5 5v9Z"></path>
  <path d="m29.42 16.57 6.86 7.12a.992.992 0 0 0 1.44 0L44.17 17H48v-2h-2.4c.75-1.83.42-4.03-1.02-5.51a4.76 4.76 0 0 0-6.92 0l-.65.68-.65-.68a4.76 4.76 0 0 0-6.92 0c-1.18 1.22-1.62 2.93-1.32 4.51h-2.1v2h2.97c.14.2.28.39.45.57ZM37 21.56 31.64 16h1.82l1.7 2.55c.19.28.5.45.83.45h.06c.36-.02.67-.23.83-.55l1.38-2.76 1.02 1.02c.19.19.44.29.71.29h1.39l-4.39 4.56Zm-6.14-10.69a2.8 2.8 0 0 1 2.03-.87c.76 0 1.48.31 2.02.87l1.37 1.42c.38.39 1.06.39 1.44 0l1.37-1.42c.54-.56 1.26-.87 2.02-.87s1.48.31 2.03.87c1.09 1.13 1.13 2.93.14 4.13h-2.87l-1.71-1.71a.993.993 0 0 0-.87-.28c-.32.05-.59.25-.73.54l-1.23 2.46-1.04-1.57c-.19-.28-.5-.45-.83-.45h-3.84c-.34-1.06-.12-2.28.69-3.13Z"></path>
</svg>
