<svg id="SvgjsSvg1013" width="288" height="288" xmlns="http://www.w3.org/2000/svg" version="1.1" xmlns:xlink="http://www.w3.org/1999/xlink" xmlns:svgjs="http://svgjs.com/svgjs"><defs id="SvgjsDefs1014"></defs><g id="SvgjsG1015"><svg xmlns="http://www.w3.org/2000/svg" enable-background="new 0 0 66 66" viewBox="0 0 66 66" width="288" height="288"><path fill="none" stroke="#000" stroke-linecap="round" stroke-linejoin="round" stroke-miterlimit="10" stroke-width="1.5" d="
		M33.94,64.25H8.18c-1.71,0-3.09-1.38-3.09-3.09V12.61c0-1.71,1.38-3.09,3.09-3.09h7.56c0.04,0.5,0.26,0.96,0.6,1.3
		c0.37,0.37,0.89,0.6,1.46,0.6h15.98c1.08,0,1.98-0.83,2.06-1.9h7.56c1.71,0,3.09,1.38,3.09,3.09v27.13" class="svgStroke colorStroke000000-0 selectable"></path><path fill="none" stroke="#000" stroke-linecap="round" stroke-linejoin="round" stroke-miterlimit="10" stroke-width="1.5" d="
		M35.85,9.35c0,0.06,0,0.11-0.01,0.17c-0.08,1.07-0.98,1.9-2.06,1.9H17.8c-0.57,0-1.09-0.23-1.46-0.6c-0.34-0.34-0.56-0.8-0.6-1.3
		c-0.01-0.06-0.01-0.11-0.01-0.17c0-1.14,0.93-2.07,2.07-2.07h4.28c-0.19-0.47-0.3-0.98-0.3-1.52c0-2.47,2.23-4.42,4.79-3.94
		c1.49,0.28,2.71,1.44,3.09,2.9c0.24,0.92,0.15,1.8-0.16,2.56h4.28c0.57,0,1.09,0.23,1.46,0.61C35.62,8.26,35.85,8.78,35.85,9.35z" class="svgStroke colorStroke000000-1 selectable"></path><circle cx="26.86" cy="23.58" r="7.08" fill="none" stroke="#000" stroke-linecap="round" stroke-linejoin="round" stroke-miterlimit="10" stroke-width="1.5" class="svgStroke colorStroke000000-2 selectable"></circle><polygon fill="none" stroke="#dc2626" stroke-linecap="round" stroke-linejoin="round" stroke-miterlimit="10" stroke-width="1.5" points="31.04 22.17 28.26 22.17 28.26 19.4 25.46 19.4 25.46 22.17 22.68 22.17 22.68 24.98 25.46 24.98 25.46 27.75 28.26 27.75 28.26 24.98 31.04 24.98" class="svgStroke colorStroke000000-3 selectable"></polygon><path fill="none" stroke="#dc2626" stroke-linecap="round" stroke-linejoin="round" stroke-miterlimit="10" stroke-width="1.5" d="
		M17.55,36.17c0,1.97-1.6,3.57-3.57,3.57s-3.57-1.6-3.57-3.57c0-1.97,1.6-3.57,3.57-3.57S17.55,34.2,17.55,36.17z" class="svgStroke colorStroke000000-4 selectable"></path><line x1="20.71" x2="41.17" y1="34.34" y2="34.34" fill="none" stroke="#000" stroke-linecap="round" stroke-linejoin="round" stroke-miterlimit="10" stroke-width="1.5" class="svgStroke colorStroke000000-5 selectable"></line><line x1="20.71" x2="30.48" y1="38" y2="38" fill="none" stroke="#000" stroke-linecap="round" stroke-linejoin="round" stroke-miterlimit="10" stroke-width="1.5" class="svgStroke colorStroke000000-6 selectable"></line><path fill="none" stroke="#dc2626" stroke-linecap="round" stroke-linejoin="round" stroke-miterlimit="10" stroke-width="1.5" d="
		M17.55,45.7c0,1.97-1.6,3.57-3.57,3.57s-3.57-1.6-3.57-3.57s1.6-3.57,3.57-3.57S17.55,43.73,17.55,45.7z" class="svgStroke colorStroke000000-7 selectable"></path><line x1="20.71" x2="28.66" y1="43.87" y2="43.87" fill="none" stroke="#000" stroke-linecap="round" stroke-linejoin="round" stroke-miterlimit="10" stroke-width="1.5" class="svgStroke colorStroke000000-8 selectable"></line><line x1="20.71" x2="26.48" y1="47.53" y2="47.53" fill="none" stroke="#000" stroke-linecap="round" stroke-linejoin="round" stroke-miterlimit="10" stroke-width="1.5" class="svgStroke colorStroke000000-9 selectable"></line><path fill="none" stroke="#000" stroke-linecap="round" stroke-linejoin="round" stroke-miterlimit="10" stroke-width="1.5" d="
		M59.23,64.25H33.53c-0.92,0-1.67-0.75-1.67-1.67V47.02c0-0.92,0.75-1.67,1.67-1.67h25.71c0.92,0,1.67,0.75,1.67,1.67v15.56
		C60.91,63.5,60.16,64.25,59.23,64.25z" class="svgStroke colorStroke000000-10 selectable"></path><circle cx="46.38" cy="54.8" r="6.5" fill="none" stroke="#000" stroke-linecap="round" stroke-linejoin="round" stroke-miterlimit="10" stroke-width="1.5" class="svgStroke colorStroke000000-11 selectable"></circle><path fill="none" stroke="#000" stroke-linecap="round" stroke-linejoin="round" stroke-miterlimit="10" stroke-width="1.5" d="
		M50.75,45.34h-8.75v-3.1c0-1.29,1.04-2.33,2.33-2.33h4.08c1.29,0,2.33,1.04,2.33,2.33V45.34z" class="svgStroke colorStroke000000-12 selectable"></path><rect width="5.01" height="2.92" x="53.47" y="42.43" fill="none" stroke="#000" stroke-linecap="round" stroke-linejoin="round" stroke-miterlimit="10" stroke-width="1.5" class="svgStroke colorStroke000000-13 selectable"></rect><rect width="5.01" height="2.92" x="34.28" y="42.43" fill="none" stroke="#000" stroke-linecap="round" stroke-linejoin="round" stroke-miterlimit="10" stroke-width="1.5" class="svgStroke colorStroke000000-14 selectable"></rect><polygon fill="none" stroke="#dc2626" stroke-linecap="round" stroke-linejoin="round" stroke-miterlimit="10" stroke-width="1.5" points="49.89 53.5 47.68 53.5 47.68 51.29 45.08 51.29 45.08 53.5 42.87 53.5 42.87 56.09 45.08 56.09 45.08 58.3 47.68 58.3 47.68 56.09 49.89 56.09" class="svgStroke colorStroke000000-15 selectable"></polygon><path fill="none" stroke="#dc2626" stroke-linecap="round" stroke-linejoin="round" stroke-miterlimit="10" stroke-width="1.5" d="
				M17.55,55.23c0,1.97-1.6,3.57-3.57,3.57s-3.57-1.6-3.57-3.57c0-1.97,1.6-3.57,3.57-3.57S17.55,53.26,17.55,55.23z" class="svgStroke colorStroke000000-16 selectable"></path><line x1="20.71" x2="28.25" y1="53.4" y2="53.4" fill="none" stroke="#000" stroke-linecap="round" stroke-linejoin="round" stroke-miterlimit="10" stroke-width="1.5" class="svgStroke colorStroke000000-17 selectable"></line><line x1="20.71" x2="26.48" y1="57.06" y2="57.06" fill="none" stroke="#000" stroke-linecap="round" stroke-linejoin="round" stroke-miterlimit="10" stroke-width="1.5" class="svgStroke colorStroke000000-18 selectable"></line></svg></g></svg>