<svg width="48" height="48" viewBox="0 0 48 48" fill="none" xmlns="http://www.w3.org/2000/svg">
<path d="M46 37H2C0.895 37 0 37.895 0 39C0 41.209 1.791 43 4 43H44C46.209 43 48 41.209 48 39C48 37.895 47.105 37 46 37Z" fill="#DC2626"/>
<path d="M40 24V30C40 30.552 39.552 31 39 31H26V30C26 26.686 23.314 24 20 24H18C14.686 24 12 26.686 12 30V31H9C8.448 31 8 30.552 8 30V13C8 12.448 8.448 12 9 12H27V8H9C6.239 8 4 10.239 4 13V35H44V24H40Z" fill="#DC2626"/>
<path d="M19 24C21.4853 24 23.5 21.9853 23.5 19.5C23.5 17.0147 21.4853 15 19 15C16.5147 15 14.5 17.0147 14.5 19.5C14.5 21.9853 16.5147 24 19 24Z" fill="black"/>
<path d="M44 5H31C29.895 5 29 5.895 29 7V17.333C29 17.766 28.86 18.187 28.6 18.533L27.2 20.4C26.706 21.059 27.176 22 28 22H44C45.105 22 46 21.105 46 20V7C46 5.895 45.105 5 44 5ZM42 14C42 14.552 41.552 15 41 15H39V17C39 17.552 38.552 18 38 18H37C36.448 18 36 17.552 36 17V15H34C33.448 15 33 14.552 33 14V13C33 12.448 33.448 12 34 12H36V10C36 9.448 36.448 9 37 9H38C38.552 9 39 9.448 39 10V12H41C41.552 12 42 12.448 42 13V14Z" fill="black"/>
</svg>
