<svg id="SvgjsSvg1015" width="288" height="288" xmlns="http://www.w3.org/2000/svg" version="1.1" xmlns:xlink="http://www.w3.org/1999/xlink" xmlns:svgjs="http://svgjs.com/svgjs"><defs id="SvgjsDefs1016"></defs><g id="SvgjsG1017"><svg xmlns="http://www.w3.org/2000/svg" viewBox="0 0 64 64" width="288" height="288"><g><path d="M38.386 38.649a49.557 49.557 0 0 0 6.218-4.43 1 1 0 0 0-1.292-1.529 47.2 47.2 0 0 1-5.965 4.25 1 1 0 0 0 1.039 1.709zM11.5 9.5a13.278 13.278 0 0 1 3.484-5.787A1 1 0 1 0 13.59 2.28a15.263 15.263 0 0 0-4.01 6.661 1 1 0 1 0 1.92.559z" fill="#080808" class="svgShape color000000-1 selectable"></path><circle cx="47" cy="31" r="1" fill="#171616" class="svgShape color000000-2 selectable"></circle><circle cx="10" cy="13" r="1" fill="#212020" class="svgShape color000000-3 selectable"></circle><path d="M10 50.99v2.03a2.169 2.169 0 0 0-2 2.16v4.64A2.185 2.185 0 0 0 10.18 62h14.64A2.185 2.185 0 0 0 27 59.82v-4.64a2.169 2.169 0 0 0-2-2.16v-4.4a4.97 4.97 0 0 0-1.46-3.53L12.35 33.9A3.5 3.5 0 0 0 9 32.98v-7.34a3.627 3.627 0 0 0-3.14-3.62A3.534 3.534 0 0 0 2 25.5v15.42a4.994 4.994 0 0 0 1.46 3.54zM4 25.5a1.512 1.512 0 0 1 1.66-1.49A1.6 1.6 0 0 1 7 25.64v8.77a3.408 3.408 0 0 0 .39 4.43l4.15 4.15a1 1 0 0 0 1.41 0 1.008 1.008 0 0 0 0-1.42l-4.12-4.12a1.422 1.422 0 0 1 0-2.12 1.47 1.47 0 0 1 2.11-.01L22.12 46.5a3.015 3.015 0 0 1 .88 2.12V53H12v-2.42a1.033 1.033 0 0 0-.29-.71l-6.83-6.83A3 3 0 0 1 4 40.92zm56.54 18.96A4.994 4.994 0 0 0 62 40.92V25.5a3.534 3.534 0 0 0-3.86-3.48A3.627 3.627 0 0 0 55 25.64v7.34a3.5 3.5 0 0 0-3.35.92L40.46 45.09A4.97 4.97 0 0 0 39 48.62v4.4a2.169 2.169 0 0 0-2 2.16v4.64A2.185 2.185 0 0 0 39.18 62h14.64A2.185 2.185 0 0 0 56 59.82v-4.64a2.169 2.169 0 0 0-2-2.16v-2.03zm-8.25 5.41a1.033 1.033 0 0 0-.29.71V53H41v-4.38a3.015 3.015 0 0 1 .88-2.12l11.18-11.18a1.47 1.47 0 0 1 2.11.01 1.422 1.422 0 0 1 0 2.12l-4.12 4.12a1.008 1.008 0 0 0 0 1.42 1 1 0 0 0 1.41 0l4.15-4.15a3.408 3.408 0 0 0 .39-4.43v-8.77a1.6 1.6 0 0 1 1.34-1.63A1.512 1.512 0 0 1 60 25.5v15.42a3 3 0 0 1-.88 2.12zM29.75 36.42a4.654 4.654 0 0 0 4.5 0c11.39-6.3 17.03-14.12 16.78-23.2A11.184 11.184 0 0 0 39.9 2 11.026 11.026 0 0 0 32 5.32 11.026 11.026 0 0 0 24.1 2a11.177 11.177 0 0 0-11.13 11.19c-.25 9.11 5.39 16.93 16.78 23.23zM26 17.8a1.2 1.2 0 0 1 1.2-1.2h2.4v-2.4a1.2 1.2 0 0 1 1.2-1.2h2.4a1.2 1.2 0 0 1 1.2 1.2v2.4h2.4a1.2 1.2 0 0 1 1.2 1.2v2.4a1.2 1.2 0 0 1-1.2 1.2h-2.4v2.4a1.2 1.2 0 0 1-1.2 1.2h-2.4a1.2 1.2 0 0 1-1.2-1.2v-2.4h-2.4a1.2 1.2 0 0 1-1.2-1.2z" fill="#e32626" class="svgShape color000000-4 selectable"></path></g></svg></g></svg>