<svg id="SvgjsSvg1036" width="288" height="288" xmlns="http://www.w3.org/2000/svg" version="1.1" xmlns:xlink="http://www.w3.org/1999/xlink" xmlns:svgjs="http://svgjs.com/svgjs"><defs id="SvgjsDefs1037"></defs><g id="SvgjsG1038"><svg xmlns="http://www.w3.org/2000/svg" viewBox="0 0 64 64" width="288" height="288"><path d="M47.08123,42.93477a84.25523,84.25523,0,0,1-15.0786,9.251c-2.7497-1.18556-18.435-9.2023-24.0255-19.0055h6.23693a.99991.99991,0,0,0,.93546-.64789l1.994-5.30128,1.99494,5.30128a.9999.9999,0,0,0,.93546.64789H22.311l2.68628,7.14145a.99929.99929,0,0,0,1.87093,0l4.92241-13.08623,1.98517,5.29591a1.00043,1.00043,0,0,0,.93644.64887h4.28966a.99991.99991,0,0,0,0-1.99982H35.40552L32.729,24.04a1.00009,1.00009,0,0,0-.93546-.64886h-.001a.99989.99989,0,0,0-.93546.64789L25.93273,37.12914l-1.994-5.3008a.9999.9999,0,0,0-.93546-.64789H20.7662L18.07894,24.039a.99928.99928,0,0,0-1.87092,0l-2.68629,7.14145H7.00181a12.13571,12.13571,0,0,1-.9971-5.15963C6.31242,12.74191,22.00816,7.1259,31.37951,16.174a1.00094,1.00094,0,0,0,1.246,0l1.56914-1.24922c8.17859-6.77436,21.4902-2.1541,23.496,8.23779a1.0001,1.0001,0,0,0,1.95881-.40322A16.29781,16.29781,0,0,0,49.07422,10.73214,16.84629,16.84629,0,0,0,32.0025,14.11362l-.94809-.75415C20.4082,4.70119,3.79732,12.46594,4.005,26.29051a13.19528,13.19528,0,0,0,.85984,4.9182.98752.98752,0,0,0-.85978.97165.99964.99964,0,0,0,.99991.99991h.71582c5.83205,11.49073,24.644,20.8544,26.28176,21.108.86077-.15612,8.53763-3.75815,16.31886-9.78429a1,1,0,0,0-1.24013-1.56919Z" fill="#000000" class="svgShape color000000-0 selectable"></path><path d="M51.0008,23.1797A8.9992,8.9992,0,1,0,60,32.17889,9.00935,9.00935,0,0,0,51.0008,23.1797Zm0,15.99857a6.99938,6.99938,0,1,1,6.99938-6.99938A7.00755,7.00755,0,0,1,51.0008,39.17827Z" fill="#dc2626" class="svgShape color000000-1 selectable"></path><path d="M53.79352,29.1401l-3.9596,3.95912-1.62583-1.62583a.99981.99981,0,0,0-1.41394,1.41394l2.3328,2.3328a.99954.99954,0,0,0,1.41393,0L55.20746,30.554a.99981.99981,0,0,0-1.41394-1.41394Z" fill="#dc2626" class="svgShape color000000-2 selectable"></path></svg></g></svg>