<svg width="100" height="100" viewBox="0 0 100 100" fill="none" xmlns="http://www.w3.org/2000/svg">
<path d="M10.2339 23.3967L9.9989 22.3708L11.0248 22.1355C11.4143 22.0466 11.6616 21.6521 11.5713 21.2576C11.4822 20.8684 11.0878 20.6208 10.6982 20.7097L9.67236 20.9451L9.4375 19.9192C9.34827 19.5295 8.95386 19.282 8.55933 19.3728C8.17004 19.4617 7.92261 19.8562 8.01172 20.2453L8.24658 21.2712L7.2207 21.5066C6.82617 21.5969 6.58398 21.99 6.6731 22.3791C6.76343 22.7737 7.15259 23.0227 7.54724 22.9324L8.57312 22.697L8.80811 23.7234C8.89844 24.1179 9.29175 24.3601 9.68115 24.2707C10.0757 24.1804 10.3242 23.7912 10.2339 23.3967ZM14.1516 58.5168L13.1228 58.2947L13.3452 57.2659C13.4296 56.8752 13.1774 56.4841 12.7817 56.3982C12.3914 56.3142 11.9999 56.5661 11.9155 56.9568L11.6931 57.9856L10.6646 57.7634C10.2688 57.6775 9.88269 57.9309 9.79834 58.3215C9.71289 58.717 9.95984 59.1072 10.3555 59.1926L11.3843 59.4153L11.1619 60.4441C11.0764 60.8396 11.3298 61.2258 11.7202 61.3103C12.116 61.3952 12.5061 61.1487 12.5916 60.7527L12.814 59.7243L13.8427 59.9465C14.2332 60.031 14.6245 59.7785 14.71 59.383C14.7943 58.9924 14.5421 58.6013 14.1516 58.5168ZM62.4036 80.4578L61.3748 80.2351L61.5972 79.2063C61.6815 78.8162 61.4293 78.4245 61.0337 78.3391C60.6433 78.2546 60.2518 78.5071 60.1675 78.8977L59.9451 79.9265L58.9165 79.7038C58.5208 79.6184 58.1346 79.8718 58.0503 80.2624C57.9648 80.6579 58.2118 81.0481 58.6074 81.1335L59.6362 81.3562L59.4138 82.3845C59.3284 82.7805 59.5818 83.1662 59.9722 83.2507C60.3679 83.3362 60.7581 83.0891 60.8435 82.6936L61.0659 81.6648L62.0945 81.8874C62.4851 81.9714 62.8763 81.7195 62.9619 81.3235C63.0463 80.9333 62.7941 80.5417 62.4036 80.4578ZM84.8491 27.8674L85.875 27.6326L86.1099 28.6584C86.2003 29.053 86.5936 29.2952 86.9829 29.2058C87.3774 29.1155 87.6261 28.7263 87.5356 28.3318L87.3008 27.3059L88.3267 27.071C88.7161 26.9817 88.9635 26.5876 88.873 26.1926C88.7839 25.8035 88.3896 25.5559 88.0001 25.6453L86.9742 25.8801L86.7393 24.8542C86.6501 24.4651 86.2559 24.2175 85.8612 24.3078C85.4719 24.3972 85.2244 24.7912 85.3135 25.1809L85.5485 26.2068L84.5226 26.4416C84.1279 26.532 83.8857 26.925 83.9749 27.3147C84.0653 27.7092 84.4546 27.9578 84.8491 27.8674ZM8.0957 74.6189L5.00098 74.6169C4.44922 74.6169 4 75.0642 4 75.616C4 76.1687 4.44727 76.6169 4.99902 76.6169L8.09375 76.6189C8.64551 76.6189 9.09473 76.1716 9.09473 75.6199C9.09473 75.0671 8.64746 74.6189 8.0957 74.6189ZM95.001 74.6863L83.4766 74.6775C82.9248 74.6775 82.4756 75.1247 82.4756 75.6765C82.4756 76.2292 82.9229 76.6775 83.4746 76.6775L94.999 76.6863C95.5508 76.6863 96 76.239 96 75.6872C96 75.1345 95.5527 74.6863 95.001 74.6863ZM50.5684 42.8923C51.1685 42.5325 51.8484 42.3523 52.5383 42.3523C52.7084 42.3523 52.8784 42.3625 53.0483 42.3826C52.6885 42.0325 52.1885 41.8225 51.6484 41.8225H43.7384C42.6184 41.8225 41.7084 42.7322 41.7084 43.8625V49.5622C41.7084 50.6824 42.6184 51.6023 43.7384 51.6023H51.2683L49.2883 48.3723C48.7284 47.4822 48.5383 46.3523 48.7983 45.2922C49.0483 44.2722 49.6785 43.4123 50.5684 42.8923ZM43.7384 63.7424H51.6484C52.3083 63.7424 52.8884 63.4324 53.2484 62.9524C52.5183 62.6526 51.9084 62.1423 51.4884 61.4724C50.9385 60.6023 50.7584 59.5622 50.9884 58.5622C51.2184 57.5622 51.8184 56.7126 52.6785 56.1623C52.9984 55.9626 53.3284 55.8122 53.6685 55.7224C53.6584 55.6125 53.6284 55.5022 53.5984 55.4026L53.5884 55.3723C53.4884 55.0725 53.3284 54.8122 53.1084 54.6023C52.7484 54.2126 52.2284 53.9724 51.6484 53.9724H43.7384C42.6184 53.9724 41.7084 54.8826 41.7084 56.0022V61.7024C41.7084 62.8323 42.6184 63.7424 43.7384 63.7424ZM38.0693 31.719C38.0693 30.593 37.1569 29.6809 36.0312 29.6809H28.124C26.9984 29.6809 26.0859 30.593 26.0859 31.719V37.4158C26.0859 38.5412 26.9984 39.4538 28.124 39.4538H36.0312C37.1569 39.4538 38.0693 38.5412 38.0693 37.4158V31.719ZM53.6885 37.4158V31.719C53.6885 30.593 52.7761 29.6809 51.6504 29.6809H43.7432C42.6177 29.6809 41.7051 30.593 41.7051 31.719V37.4158C41.7051 38.5412 42.6177 39.4538 43.7432 39.4538H51.6504C52.7761 39.4538 53.6885 38.5412 53.6885 37.4158ZM38.0693 43.8625C38.0693 42.737 37.1569 41.8244 36.0312 41.8244H28.124C26.9984 41.8244 26.0859 42.737 26.0859 43.8625V49.5593C26.0859 50.6848 26.9984 51.5974 28.124 51.5974H36.0312C37.1569 51.5974 38.0693 50.6848 38.0693 49.5593V43.8625ZM36.0312 53.968H28.124C26.9984 53.968 26.0859 54.8806 26.0859 56.0061V61.7029C26.0859 62.8284 26.9984 63.741 28.124 63.741H36.0312C37.1569 63.741 38.0693 62.8284 38.0693 61.7029V56.0061C38.0693 54.8806 37.1569 53.968 36.0312 53.968Z" fill="#DC2626"/>
<path d="M76.2484 59.8525C75.9285 59.3428 75.2584 59.1924 74.7584 59.5127L64.2883 66.1025C63.7883 66.4126 63.6284 67.0825 63.9485 67.5928L68.6382 74.6665L60.6479 74.6606C61.0997 73.9658 61.3684 73.1421 61.3684 72.2524V64.7427C61.3384 64.7227 61.2883 64.7129 61.2484 64.7026L57.5483 63.9326V67.4727H22.2084V25.9424H57.5483V46.9927C58.1384 46.6626 58.7983 46.4927 59.4684 46.4927C59.7584 46.4927 60.0583 46.5225 60.3484 46.5928C60.3984 46.6025 60.4485 46.6128 60.4984 46.6226C60.7084 46.4126 60.9485 46.2129 61.2184 46.0425C61.2683 46.0127 61.3184 45.9824 61.3684 45.9629V21.1626C61.3684 18.7227 59.3784 16.7324 56.9385 16.7324H22.8184C20.3784 16.7324 18.3884 18.7227 18.3884 21.1626V72.2524C18.3884 73.1274 18.6477 73.9419 19.0869 74.6284L16.1016 74.626C15.5498 74.626 15.1006 75.0732 15.1006 75.625C15.1006 76.1777 15.5479 76.626 16.0996 76.626C15.7293 76.6284 24.0274 76.679 76.5996 76.6729C77.1514 76.6729 77.6006 76.2256 77.6006 75.6738C77.6006 75.1211 77.1533 74.6729 76.6016 74.6729L70.8042 74.6685L79.7484 68.6426C80.6384 68.0425 80.8784 66.8325 80.2783 65.9326L76.2484 59.8525ZM39.3984 20.3428H45.4684C46.0183 20.3428 46.4684 20.7925 46.4684 21.3428C46.4684 21.8926 46.0183 22.3428 45.4684 22.3428H39.3984C38.8384 22.3428 38.3984 21.8926 38.3984 21.3428C38.3984 20.7925 38.8384 20.3428 39.3984 20.3428ZM34.2883 20.3428H35.4884C36.0383 20.3428 36.4884 20.7925 36.4884 21.3428C36.4884 21.8926 36.0383 22.3428 35.4884 22.3428H34.2883C33.7384 22.3428 33.2883 21.8926 33.2883 21.3428C33.2883 20.7925 33.7384 20.3428 34.2883 20.3428ZM39.8784 70.4126C40.7983 70.4126 41.5483 71.1528 41.5483 72.0728C41.5483 73.0024 40.7983 73.7427 39.8784 73.7427C38.9584 73.7427 38.2084 73.0024 38.2084 72.0728C38.2084 71.1528 38.9584 70.4126 39.8784 70.4126ZM74.7184 66.5225C73.8284 66.5225 73.0984 65.7925 73.0984 64.9028C73.0984 64.0024 73.8284 63.2725 74.7184 63.2725C75.6184 63.2725 76.3484 64.0024 76.3484 64.9028C76.3484 65.7925 75.6184 66.5225 74.7184 66.5225Z" fill="black"/>
<path d="M61.0783 49.3724C60.7983 48.9325 60.3684 48.6424 59.8884 48.5423C59.4184 48.4325 58.8984 48.5023 58.4583 48.7826C57.5783 49.3426 57.3083 50.5023 57.8684 51.3924L54.1484 45.2323C53.8784 44.7923 53.4384 44.5023 52.9684 44.3924C52.5084 44.2923 52.0183 44.3524 51.5883 44.6127C50.6584 45.1527 50.4184 46.4227 50.9884 47.3324L57.6584 58.1727L55.1584 57.6127C54.6584 57.4925 54.1584 57.5926 53.7584 57.8426C53.3584 58.1024 53.0583 58.5023 52.9384 59.0023C52.7083 60.0023 53.3383 61.0023 54.3383 61.2225L61.6584 62.7425C62.3484 62.8924 62.9384 63.3026 63.3183 63.8924L63.5283 64.2225L73.3984 58.0023L73.2284 57.7425C72.8283 57.1127 72.7284 56.3524 72.9384 55.6424C73.1484 54.9325 73.0483 54.1727 72.6484 53.5423L68.7184 47.2826C68.4384 46.8426 68.0084 46.5526 67.5283 46.4525C67.0583 46.3426 66.5383 46.4125 66.0984 46.6922C65.2184 47.2523 64.9485 48.4227 65.5084 49.3026L64.8984 48.3324C64.6184 47.8924 64.1884 47.6024 63.7083 47.4925C63.2384 47.3827 62.7184 47.4628 62.2783 47.7323C61.3984 48.2923 61.1284 49.4628 61.6884 50.3524L61.0783 49.3724Z" fill="#DC2626"/>
</svg>
