<svg width="66" height="66" viewBox="0 0 66 66" fill="none" xmlns="http://www.w3.org/2000/svg">
<path d="M41.3 39.1001V43.8001C41.3 43.7001 41.4001 43.6001 41.4001 43.6001V39.3001C41.4001 39.2001 41.4 39.2001 41.3 39.1001Z" fill="black"/>
<path d="M45.3 17.1H45.8V5.7C45.8 3.1 43.7 1 41.2 1H11.2C8.69998 1 6.59998 3.1 6.59998 5.7V11.8C5.99998 12 5.59998 12.6 5.59998 13.3V18.3C5.59998 19 5.99998 19.6 6.59998 19.8V22.8C5.99998 23 5.59998 23.6 5.59998 24.3V29.3C5.59998 30 5.99998 30.6 6.59998 30.8V59.9C6.59998 62.5 8.69998 64.5 11.3 64.5H41.3C43.9 64.5 45.9 62.4 45.9 59.9V48.4H45.4C44.4 48.4 43.4 48.3 42.4 48.1V56.3H10.1V7.8H42.3V17.5C43.3 17.2 44.3 17.1 45.3 17.1ZM26.2 58.6C27 58.6 27.7 59.3 27.7 60.1C27.7 60.9 27 61.6 26.2 61.6C25.4 61.6 24.7 60.9 24.7 60.1C24.7 59.3 25.4 58.6 26.2 58.6ZM29.6 5.1H22.8C22.5 5.1 22.3 4.9 22.3 4.6C22.3 4.3 22.5 4.1 22.8 4.1H29.6C29.9 4.1 30.1 4.3 30.1 4.6C30.1 4.9 29.9 5.1 29.6 5.1ZM32.8 5.1H32.5C32.2 5.1 32 4.9 32 4.6C32 4.3 32.2 4.1 32.5 4.1H32.8C33.1 4.1 33.3 4.3 33.3 4.6C33.3 4.9 33.1 5.1 32.8 5.1Z" fill="black"/>
<path d="M34.8 55.2001V44.2001C33.2 42.7001 31.8 40.9 31 38.8H22.4V28.7001H30.3C30.8 26.9001 31.6 25.2 32.7 23.7H22.4V8.80005H17.4V38.9001H11.1V43.9001H29.8V55.2001H34.8ZM45.3 32.8C43.3 32.8 41.7 31.2001 41.7 29.2001C41.7 27.2001 43.3 25.6 45.3 25.6C47.3 25.6 48.9 27.2001 48.9 29.2001C48.9 31.2001 47.3 32.8 45.3 32.8Z" fill="#DC2626"/>
<path d="M45.2999 18.1001C37.1999 18.1001 30.7 24.7001 30.7 32.7001C30.7 40.8001 37.2999 47.3001 45.2999 47.3001C53.4 47.3001 59.9 40.8001 59.9 32.7001C60 24.7001 53.4 18.1001 45.2999 18.1001ZM45.2999 43.6001C45.2999 43.6001 38 34.6001 38 29.3001C38 25.2001 41.2999 21.9001 45.2999 21.9001C49.3999 21.9001 52.7 25.2001 52.7 29.3001C52.7 34.5001 45.2999 43.6001 45.2999 43.6001Z" fill="#DC2626"/>
</svg>
