<svg xmlns="http://www.w3.org/2000/svg" viewBox="0 0 64 64" id="HealthcareProfessional">
  <path d="m57.917,49.854c-.32-3.464-2.531-6.397-5.769-7.652l-7.808-3.04c1.56-.896,2.756-2.377,3.238-4.179l1.364-5.048c.635-2.216.956-4.49.956-6.758,0-8.015-3.935-15.527-10.578-20.128-5.543-3.336-12.61-2.535-17.186,1.947-3.849,3.777-8.154,10.723-6.802,22.39l.929,6.732c.312,2.29,1.749,4.197,3.723,5.201l-.007.003c-.203-.064-.424-.078-.638.002-.225.086-.39.251-.498.447l-6.821,2.699c-3.021,1.2-5.189,3.946-5.659,7.17-.621,4.293-1.376,12.213-1.383,12.292-.026.274.065.546.25.75s.448.32.723.32h52.097c.275,0,.537-.115.722-.318s.276-.474.251-.748l-1.104-12.08Zm-21.443-16.098s0,.001-.001.001c-.275.239-.549.453-.818.64-.62.436-1.3.752-2.026.94-.621.167-1.257.235-1.892.206s-1.268-.155-1.882-.376c-.4-.145-.789-.331-1.154-.551-.25-.152-.491-.313-.722-.481-2.854-2.086-4.849-5.83-5.473-10.274l-.741-5.23,1.981-.128c5.08-.351,9.786-2.584,13.252-6.287l.743-.791c.823,2.844,2.381,5.377,4.544,7.385l-.789,5.13c-.355,1.663-.814,3.167-1.375,4.507-.936,2.233-2.155,4.01-3.646,5.308Zm-10.511,5.251c.03-.017.055-.041.084-.059.064-.04.123-.086.185-.13.123-.088.24-.182.352-.284.06-.055.117-.111.173-.169.106-.112.203-.231.294-.355.043-.058.088-.113.128-.173.123-.189.232-.386.319-.595l.356-.856c.124.071.253.133.381.197.077.039.151.082.229.119.238.112.481.215.727.304.367.133.741.231,1.116.311.055.012.109.026.164.036.358.069.718.111,1.079.131.07.004.139.007.209.009.087.003.174.011.261.011.192,0,.383-.024.575-.038.129-.009.258-.01.386-.025.385-.046.767-.113,1.145-.214.404-.105.796-.247,1.178-.412.041-.018.082-.032.123-.05.361-.163.708-.357,1.045-.573.031-.02.066-.033.097-.053l.177.621c.072.248.176.481.297.705.037.07.081.133.123.2.095.152.199.297.315.433.055.065.11.129.169.19.135.138.28.263.435.379.049.037.093.079.145.114.012.008.022.019.034.027-.006.054-.007.11-.015.164,0,.001,0,.002,0,.004-.289,2.13-1.2,4.098-2.632,5.692l-2.334,2.599c-.393.437-.946.668-1.534.631-.578-.035-1.101-.327-1.436-.804l-3.197-4.537c-.716-1.011-1.124-2.244-1.149-3.471,0-.023,0-.052-.002-.08Zm-7.766-5.155l-.926-6.712c-1.01-8.719,1.087-15.7,6.231-20.748,2.32-2.272,5.384-3.444,8.477-3.444,2.161,0,4.336.572,6.28,1.741,6.064,4.202,9.684,11.114,9.684,18.488,0,2.086-.296,4.179-.885,6.234l-1.369,5.065c-.513,1.92-2.149,3.346-4.111,3.611l-1.888-.735-.045-.018c-.494-.19-.876-.607-1.034-1.154l-.391-1.373c.093-.09.178-.192.27-.285.142-.145.283-.291.42-.444.164-.183.323-.374.481-.569.13-.161.26-.321.384-.49.153-.206.299-.423.445-.641.117-.175.235-.349.347-.532.142-.232.276-.475.411-.719.103-.188.209-.372.308-.567.132-.261.256-.536.38-.81.088-.196.18-.386.265-.588.125-.299.239-.614.354-.927.072-.195.148-.383.216-.583.122-.359.232-.735.342-1.112.05-.172.106-.336.154-.512.153-.561.294-1.138.421-1.736l.88-5.708c.051-.332-.072-.667-.325-.887-2.24-1.946-3.8-4.505-4.51-7.401l-.264-1.075c-.085-.348-.355-.621-.701-.712s-.715.015-.961.276l-1.965,2.092c-3.128,3.342-7.376,5.357-11.957,5.674l-3.029.195c-.272.018-.523.147-.695.359-.172.211-.248.484-.209.753l.889,6.273c.085.601.194,1.191.324,1.768.043.192.101.375.149.565.096.379.192.759.308,1.125.069.22.153.43.229.645.114.323.226.646.355.957.092.221.195.432.294.647.133.289.265.578.41.855.112.213.233.415.352.62.152.262.304.522.467.771.13.198.267.387.404.577.17.236.343.469.524.692.146.18.297.351.45.522.189.211.382.417.581.613.161.159.325.311.492.459.102.091.197.194.301.281l-.523,1.265c-.175.426-.52.767-.95.938l-1.751.691c-2.415-.056-4.464-1.874-4.791-4.276Zm-11.169,27.194c.228-2.31.789-7.819,1.268-11.127.369-2.532,2.073-4.692,4.445-5.634l6.465-2.559,2.646,6.97c-.898.662-1.488,1.718-1.488,2.917,0,2.004,1.63,3.634,3.634,3.634s3.634-1.63,3.634-3.634-1.63-3.634-3.634-3.634c-.108,0-.209.023-.315.032l-2.659-7.004,2.799-1.108.23-.091c.012.11.039.217.055.326.022.149.045.296.075.443.047.23.106.456.173.681.041.138.078.276.126.411.085.241.188.474.296.707.051.111.094.224.151.333.174.336.368.664.59.977l3.195,4.534c.678.965,1.742,1.558,2.917,1.63.079.005.157.007.236.007.121,0,.237-.026.357-.037.121-.011.242-.015.36-.038.163-.031.318-.084.475-.135.106-.035.214-.059.317-.103.172-.073.331-.171.491-.269.077-.047.161-.083.235-.136.228-.163.442-.349.634-.563l2.335-2.6c.207-.23.403-.467.591-.709.065-.084.123-.172.186-.257.119-.162.239-.323.349-.489.069-.104.132-.213.198-.319.095-.153.191-.305.28-.461.065-.116.124-.235.185-.353.08-.152.16-.303.233-.459.058-.124.111-.25.165-.376.067-.154.133-.307.194-.464.05-.13.094-.261.14-.393.055-.157.109-.314.158-.474.041-.134.076-.27.113-.406.043-.16.085-.321.122-.483.031-.138.058-.278.085-.418.019-.098.043-.193.059-.292l.026.01.924.363c.005.002.011,0,.016.003l4.624,1.799-.351.978c-2.475-.342-4.92,1.118-5.73,3.571l-2.853,8.645c-.081.246-.061.514.055.746.116.231.321.407.566.488l2.227.735c.513.168,1.065-.11,1.234-.622.169-.512-.109-1.066-.622-1.234l-1.299-.429,2.546-7.717c.574-1.74,2.457-2.687,4.196-2.114,1.74.574,2.688,2.457,2.114,4.196l-2.546,7.717-1.299-.429c-.515-.168-1.066.109-1.234.622-.169.513.109,1.066.622,1.234l2.227.735c.102.033.205.05.306.05.41,0,.793-.261.928-.671l2.853-8.645c.804-2.438-.276-5.05-2.439-6.259l.319-.889,3.9,1.517c2.543.986,4.279,3.289,4.53,6.009l1.007,11.013H7.028Zm16.97-11.112c.926,0,1.679.753,1.679,1.679s-.753,1.679-1.679,1.679-1.679-.753-1.679-1.679.753-1.679,1.679-1.679Z" fill="#000000" class="color000000 svgShape"></path>
</svg>
