<svg width="512" height="512" viewBox="0 0 512 512" fill="none" xmlns="http://www.w3.org/2000/svg">
<path d="M255.6 403.84C241.28 411.52 225.44 418.16 208 423.6C62.64 378.16 32 250.96 32 152V76.48L91.92 40H324.08L384 76.48V152C384 172.4 382.72 194.08 379.28 216H384C388 216 391.84 216.96 395.2 218.8C398.4 197.84 400 175.52 400 152V72C400 69.2 398.56 66.64 396.16 65.2L330.48 25.2C329.2 24.4 327.76 24 326.32 24H89.68C88.24 24 86.8 24.4 85.52 25.2L19.84 65.2C17.44 66.64 16 69.2 16 72V152C16 302.4 81.6 401.92 205.68 439.68C206.4 439.92 207.2 440 208 440C208.8 440 209.6 439.92 210.32 439.68C224.16 435.44 237.28 430.48 249.6 424.72C249.76 424.08 250.08 423.44 250.4 422.8L257.92 407.68C257.44 406.48 256.96 405.28 256.48 404.16L255.6 403.84Z" fill="black"/>
<path d="M277.52 246.88C282 242.32 288 239.84 294.48 239.84C298.16 239.84 301.84 240.72 305.2 242.32L320.32 249.92C321.52 249.44 322.72 248.96 323.84 248.48L329.2 232.4C332.48 222.64 341.68 216 352 216H355.2C358.4 196.16 360 174.8 360 152V94.48C360 91.68 358.56 89.12 356.16 87.68L319.2 65.2C318 64.4 316.56 64 315.04 64H100.96C99.44 64 98 64.4 96.8 65.2L59.84 87.68C57.44 89.12 56 91.68 56 94.48V152C56 279.68 106.24 362.32 205.36 397.44C206.16 397.76 207.12 397.92 208 397.92C208.88 397.92 209.84 397.76 210.64 397.44C216.88 395.2 222.88 392.8 228.72 390.24C225.68 386.16 224 381.2 224 376V344C224 333.68 230.64 324.48 240.4 321.2L256.48 315.84C256.96 314.72 257.44 313.52 257.92 312.32L250.4 297.2C245.76 287.92 247.52 276.8 254.88 269.52L277.52 246.88ZM232 232V288C232 292.4 228.4 296 224 296H192C187.6 296 184 292.4 184 288V232H128C123.6 232 120 228.4 120 224V192C120 187.6 123.6 184 128 184H184V128C184 123.6 187.6 120 192 120H224C228.4 120 232 123.6 232 128V184H288C292.4 184 296 187.6 296 192V224C296 228.4 292.4 232 288 232H232Z" fill="#DD2A2A"/>
<path d="M490.56 336.398L467.12 328.558C465.36 322.878 463.04 317.358 460.32 312.158L471.36 290.078C472.88 287.038 472.32 283.278 469.84 280.878L447.2 258.238C444.8 255.838 441.04 255.198 438 256.718L415.92 267.758C410.64 265.038 405.2 262.798 399.52 260.958L391.68 237.518C390.56 234.238 387.52 232.078 384.08 232.078H352.08C348.64 232.078 345.6 234.318 344.48 237.518L336.64 260.958C330.96 262.718 325.44 265.038 320.24 267.758L298.16 256.718C295.04 255.198 291.36 255.758 288.96 258.238L266.32 280.878C263.92 283.278 263.28 287.038 264.8 290.078L275.84 312.158C273.12 317.438 270.88 322.878 269.04 328.558L245.6 336.398C242.32 337.518 240.16 340.558 240.16 343.998V375.998C240.16 379.438 242.4 382.478 245.6 383.598L269.04 391.438C270.8 397.118 273.12 402.638 275.84 407.838L264.8 429.918C263.28 432.958 263.84 436.718 266.32 439.118L288.96 461.758C291.44 464.238 295.12 464.798 298.16 463.278L320.24 452.238C325.52 454.958 330.96 457.198 336.64 459.038L344.48 482.478C345.6 485.758 348.64 487.918 352.08 487.918H384.08C387.52 487.918 390.56 485.678 391.68 482.478L399.52 459.038C405.2 457.278 410.72 454.958 415.92 452.238L438 463.278C441.04 464.798 444.8 464.238 447.2 461.758L469.84 439.118C472.24 436.718 472.88 432.958 471.36 429.918L460.32 407.838C463.04 402.558 465.28 397.118 467.12 391.438L490.56 383.598C493.84 382.478 496 379.438 496 375.998V343.998C496 340.558 493.76 337.518 490.56 336.398ZM480 370.238L458 377.598C455.44 378.478 453.52 380.478 452.8 383.118C450.8 390.398 447.92 397.358 444.24 403.758C442.88 406.078 442.8 408.958 444 411.358L454.32 432.078L439.84 446.558L419.12 436.238C416.72 435.038 413.92 435.118 411.52 436.478C405.12 440.158 398.16 443.038 390.88 445.038C388.32 445.758 386.24 447.678 385.36 450.238L378 472.238H357.52L350.16 450.238C349.28 447.678 347.28 445.758 344.64 445.038C337.36 443.038 330.4 440.158 324 436.478C321.68 435.118 318.88 435.038 316.4 436.238L295.68 446.558L281.2 432.078L291.52 411.358C292.72 408.958 292.64 406.158 291.28 403.758C287.6 397.358 284.72 390.398 282.72 383.118C282 380.558 280.08 378.478 277.52 377.598L255.52 370.238V349.758L277.52 342.398C280.08 341.518 282 339.518 282.72 336.878C284.72 329.598 287.6 322.638 291.28 316.238C292.64 313.918 292.72 311.038 291.52 308.638L281.2 287.918L295.68 273.438L316.4 283.758C318.8 284.958 321.6 284.878 324 283.518C330.4 279.838 337.36 276.958 344.64 274.958C347.2 274.238 349.28 272.318 350.16 269.758L357.52 247.758H378L385.36 269.758C386.24 272.318 388.24 274.238 390.88 274.958C398.16 276.958 405.12 279.838 411.52 283.518C413.84 284.878 416.72 284.958 419.12 283.758L439.84 273.438L454.32 287.918L444 308.638C442.8 311.038 442.88 313.838 444.24 316.238C447.92 322.638 450.8 329.598 452.8 336.878C453.52 339.438 455.44 341.518 458 342.398L480 349.758V370.238Z" fill="black"/>
<path d="M368 416C398.928 416 424 390.928 424 360C424 329.072 398.928 304 368 304C337.072 304 312 329.072 312 360C312 390.928 337.072 416 368 416Z" fill="black"/>
</svg>
