<svg xmlns="http://www.w3.org/2000/svg" enable-background="new 0 0 124 124" viewBox="0 0 124 124" id="health-monitoring">
  <path d="M122,49.286c-1.104,0-2-0.896-2-2v-2.737c0-1.104,0.896-2,2-2s2,0.896,2,2v2.737C124,48.391,123.104,49.286,122,49.286z"></path>
  <path d="M122,40.142c1.104,0,2-0.896,2-2V7c0-3.309-2.691-6-6-6H6C2.691,1,0,3.691,0,7v80.571c0,3.309,2.691,6,6,6h46.484
			l-7.724,13.572h-8.682c-7.585,0-13.756,6.216-13.756,13.856c0,1.104,0.896,2,2,2h75.354c1.104,0,2-0.896,2-2
			c0-7.641-6.171-13.856-13.756-13.856h-8.682l-7.724-13.572H118c3.309,0,6-2.691,6-6V53.947c0-1.104-0.896-2-2-2s-2,0.896-2,2
			v33.625c0,1.103-0.897,2-2,2H6c-1.103,0-2-0.897-2-2V7c0-1.103,0.897-2,2-2h112c1.103,0,2,0.897,2,2v31.142
			C120,39.247,120.896,40.142,122,40.142z M76.338,110.133c0.355,0.625,1.02,1.011,1.738,1.011h9.845
			c4.701,0,8.637,3.377,9.554,7.856H26.525c0.917-4.479,4.853-7.856,9.554-7.856h9.845c0.719,0,1.383-0.386,1.738-1.011
			l9.425-16.562h9.826L76.338,110.133z"></path>
  <circle cx="62" cy="85.333" r="2.5"></circle>
  <path d="M109.862,13.338H14.138c-1.104,0-2,0.896-2,2v63.895c0,1.104,0.896,2,2,2h95.725c1.104,0,2-0.896,2-2V15.338
		C111.862,14.234,110.967,13.338,109.862,13.338z M107.862,17.338v27.201H92.117c-0.811,0-1.54,0.489-1.85,1.238l-2.094,5.082
		l-6.488-14.525c-0.696-1.557-2.981-1.541-3.66,0.018l-6.14,14.114l-4.931-13.981c-0.592-1.677-3.011-1.761-3.72-0.133
		l-6.309,14.504l-6.131-14.485c-0.694-1.642-3.136-1.565-3.728,0.114L42.09,50.601l-6.549-14.285c-0.73-1.591-3.105-1.497-3.7,0.155
		l-3.177,8.814H16.138V17.338H107.862z M16.138,77.233V49.286H30.07c0.843,0,1.595-0.529,1.881-1.322l1.993-5.531l6.569,14.329
		c0.735,1.601,3.12,1.49,3.704-0.168l4.906-13.911l5.916,13.979c0.692,1.636,3.007,1.647,3.715,0.018l6.12-14.068L69.773,56.5
		c0.597,1.692,3.006,1.945,3.753,0.227l6.358-14.618l6.536,14.633c0.717,1.606,3.009,1.573,3.679-0.054l3.357-8.148h14.406v28.694
		H16.138z"></path>
</svg>
