<svg id="SvgjsSvg1033" width="288" height="288" xmlns="http://www.w3.org/2000/svg" version="1.1" xmlns:xlink="http://www.w3.org/1999/xlink" xmlns:svgjs="http://svgjs.com/svgjs"><defs id="SvgjsDefs1034"></defs><g id="SvgjsG1035"><svg xmlns="http://www.w3.org/2000/svg" viewBox="0 0 64 64" width="288" height="288"><path d="M35 54h12v6H35zM55.34 38.59l4.35-16.24a1.722 1.722 0 0 0 .07-.52 2 2 0 0 0-1.59-1.95 2.113 2.113 0 0 0-2.38 1.6l-3.09 9.53.06.09a4.007 4.007 0 0 1 .4 3.03 3.948 3.948 0 0 1-1.87 2.43l-5.73 3.31a1 1 0 0 1-1-1.73l5.73-3.31a2 2 0 0 0 .94-1.21 2.06 2.06 0 0 0-.2-1.52 2 2 0 0 0-2.74-.73l-8.83 5.17A7.052 7.052 0 0 0 36 42.58V52h10v-2.2a5.056 5.056 0 0 1 1.67-3.74l6.77-6.01a2.981 2.981 0 0 0 .9-1.46Z" fill="#000000" class="svgShape color000000-0 selectable"></path><path d="m51.08 29.52 2.79-8.61a4.1 4.1 0 0 1 3.89-3.06v-.02a2 2 0 0 0-1.59-1.95 2.113 2.113 0 0 0-2.38 1.6l-4.05 11.66a4.2 4.2 0 0 1 1.34.38zM8.66 38.58a2.965 2.965 0 0 0 .9 1.47l6.76 6.01A5.03 5.03 0 0 1 18 49.8V52h10v-9.42a7.052 7.052 0 0 0-3.46-6.04l-8.84-5.18a2 2 0 0 0-2.73.74 2.06 2.06 0 0 0-.2 1.52 2 2 0 0 0 .94 1.21l5.73 3.31a1 1 0 0 1-1 1.73l-5.73-3.31a3.948 3.948 0 0 1-1.87-2.43 4.007 4.007 0 0 1 .4-3.03l.06-.09-3.07-9.48a2.144 2.144 0 0 0-2.41-1.65 2 2 0 0 0-1.58 1.95 2.121 2.121 0 0 0 .06.52zM17 54h12v6H17z" fill="#000000" class="svgShape color000000-1 selectable"></path><path d="M7.82 15.88a2 2 0 0 0-1.58 1.95v.02a4.149 4.149 0 0 1 3.91 3.11l2.77 8.56a4.2 4.2 0 0 1 1.34-.38l-4.02-11.59a2.161 2.161 0 0 0-2.42-1.67ZM33 15v-4h-2v4h-4v2h4v4h2v-4h4v-2h-4z" fill="#000000" class="svgShape color000000-2 selectable"></path><path d="M39.07 4.2a7.914 7.914 0 0 0-5.651 2.345l-.712.712a1 1 0 0 1-1.414 0l-.71-.71a7.993 7.993 0 0 0-11.316 0 8 8 0 0 0 0 11.306L32 30.586l12.733-12.733A8 8 0 0 0 39.07 4.2ZM39 18a1 1 0 0 1-1 1h-3v3a1 1 0 0 1-1 1h-4a1 1 0 0 1-1-1v-3h-3a1 1 0 0 1-1-1v-4a1 1 0 0 1 1-1h3v-3a1 1 0 0 1 1-1h4a1 1 0 0 1 1 1v3h3a1 1 0 0 1 1 1Z" fill="#dd2a2a" class="svgShape color000000-3 selectable"></path></svg></g></svg>