<svg xmlns="http://www.w3.org/2000/svg" enable-background="new 0 0 70 70" viewBox="0 0 70 70" id="heart">
  <path d="M13.0698013,36.235302c2.9829102,22.9726563,15.7402344,29.823246,23.0791016,31.8623085
		c8.9401855,2.4810791,14.706604-5.9563026,17.4262695-14.8237343c6.8046875-16.1508789-0.84375-27.0332012-3.8520508-30.4565411
		c1.2634277-0.4240112,2.7125854-0.8110962,4.0668945-1.0239258c0.5089111-0.5504761,3.2372437-2.2237549,3.1464844-5.3867188
		c-0.0742798-2.6013193-2.1740723-5.0438852-4.2729492-6.4975595c-0.1939697-0.0097656-2.4337158-0.9938354-7.1146851,0.8669434
		l-0.7007446-1.9245605l1.2944336-3.6137691c0.1728516-0.4819336-0.0463867-1.0166016-0.5078125-1.2382815L42.3554459,2.42085
		c-0.2553711-0.1240234-0.5517578-0.1318359-0.8129883-0.0244141c-0.262207,0.1074219-0.4663086,0.3212891-0.5620117,0.5878906
		l-1.3427734,3.7475588l0.5678711-3.6850588c0.0410156-0.2670898-0.0273438-0.5395508-0.1904297-0.7553711
		s-0.4067383-0.355957-0.675293-0.3891602l-3.4887695-0.4316406c-0.5073242-0.0644531-0.9858398,0.2714844-1.0986328,0.7739258
		l-0.6743164,3.0122073l-0.6044922-2.2236331c-0.0703125-0.2587891-0.2412109-0.4785156-0.4750977-0.609375
		c-0.2338867-0.1313477-0.5097656-0.1630859-0.7675781-0.0888672L28.9487076,3.283643
		c-0.5224609,0.1508789-0.8286133,0.6923828-0.6884766,1.218262l1.8115234,6.7949214
		c-0.4031372,0.5147705-0.7461548,1.0928345-1.0596924,1.6993408c-0.4195557-1.9231567-0.902832-3.838501-1.461792-5.7208247
		c-0.1147461-0.4038086-0.3525391-1.2441406-1.1430664-1.6811523c-0.4428711-0.2402344-1.0546875-0.2666016-1.5605469-0.1958008
		c-2.4785156,0.2890625-4.934082,0.7539063-7.2978516,1.3828125c-0.5083008,0.1352539-0.8251953,0.640625-0.7250977,1.1567383
		c0.8068848,4.1575313,1.8334961,8.4484863,3.1195679,13.0796509c-6.8911133,6.3677979-6.8860474,14.7401714-6.8817749,15.1014996
		L13.0698013,36.235302z M51.3614273,11.6899538c0.1566772,0.0194092,0.3139648,0.0379639,0.4613037,0.0702515
		c0.9677734,0.7080078,3.0561523,2.6533203,3.1147461,4.7036142c0.0305176,1.0647583-0.5001831,2.1003418-1.571228,3.0861816
		C50.2752457,16.8872204,50.9239273,13.1841555,51.3614273,11.6899538z M31.9228287,12.1962404
		c0.2197266-0.2509766,0.300293-0.5947266,0.2143555-0.9169922L30.4452896,4.932569l1.3652344-0.3945313l1.3969727,5.1391597
		c0.1210938,0.4433594,0.5375977,0.7773438,0.9873047,0.7373047c0.4594727-0.0102539,0.8530273-0.3325195,0.9536133-0.78125
		l1.3579102-6.0664063l1.5654297,0.1933594l-0.6450195,4.1865234c-0.043457,0.2817378,0.0351563,0.5683589,0.2163086,0.7880855
		s0.4472656,0.3520508,0.7319336,0.3632813l1.7695313,0.0708008c0.4326172,0.0131836,0.8339844-0.25,0.9814453-0.6616211
		l1.362793-3.8027339l1.4672852,0.7060547l-1.112793,3.1064448c-0.0786133,0.2197266-0.078125,0.4604492,0.0019531,0.6796875
		l0.8710938,2.3925781c-2.0273438,0.9981689-4.3629761,2.4860229-6.0878906,3.8066406
		c-2.4447632-0.2253418-5.2283325-0.0100708-7.6210938,0.4443359
		C30.4345474,14.3837404,31.0766373,13.1615725,31.9228287,12.1962404z M18.970192,8.4823732
		c2.4235229-0.594604,4.3208618-0.8792109,6.4624023-1.1440425c0.324585,0.3083496,1.71521,6.2105708,2.222168,9.043457
		c-0.1009521,0.0297852-0.5565186,0.1645508-0.4555664,0.1347656v0.0003662
		c-1.9765015,0.8273315-3.7296753,1.6958008-5.5771484,3.0802002C20.5556412,15.6913576,19.6830826,12.0341311,18.970192,8.4823732z
		 M27.4709244,18.5616589L27.4906998,18.5688c0.1002197-0.0232544,3.2384644-1.3226929,8.3936768-1.2563477
		c-8.3288574,9.6932373-12.6923828,7.631897-12.8096924,7.5727539c-0.4697266-0.2714844-1.0717773-0.1206055-1.3554688,0.3452148
		c-0.2871094,0.4716797-0.1376953,1.0869141,0.3339844,1.3740234c0.2099609,0.1279297,1.0068359,0.550293,2.3720703,0.550293
		c6.6413574,0,13.9556885-9.8128052,14.2869263-10.0689087c2.7579956-2.1358652,7.0327148-4.7358408,10.5547485-5.3196421
		c-0.5440063,2.3636475-0.4844971,5.8063364,1.9754639,8.5187998c-3.4671021,0.8864136-3.1316528,1.0391235-4.6374512,1.5919189
		l0.0075073,0.0162354c-8.1633301,3.6194458-11.7180786,11.025877-10.7975464,18.4490948
		c0.2319336,1.8603516,0.0756836,4.5366211-1.9868164,6.7216797c-0.3793945,0.4018555-0.3608398,1.034668,0.0405273,1.4135742
		c0.4012451,0.3789063,1.0342407,0.3613892,1.4135742-0.0405273c2.597168-2.7514648,2.8022461-6.0551758,2.5170898-8.3413086
		c-0.8336792-6.7306519,2.4130859-13.2937603,9.9295654-16.5126324c2.1464844,2.1636963,10.953064,12.4196148,3.9742432,28.9921246
		c-2.5032349,7.7538452-7.196167,15.7670937-15.019043,13.5957069c-6.8544922-1.9047852-18.7719727-8.3520546-21.6220703-30.1264687
		C15.1597061,29.332716,19.2652969,22.0630627,27.4709244,18.5616589z"></path>
</svg>
