<svg xmlns="http://www.w3.org/2000/svg" viewBox="0 0 512 512" id="HomeCare">
  <g fill="#000000" class="color000000 svgShape">
    <path d="M438.773 199.78a7 7 0 0 0-11.707 0l-51.08 77.884a7.458 7.458 0 0 0-.305 7.414A7.239 7.239 0 0 0 381.84 289h42.066a179.115 179.115 0 0 1-60.438 109.223c-31.291 26.831-70.582 42.095-107.8 42.095-24.265 0-49.645-6.608-73.4-18.992a182.685 182.685 0 0 1-62.581-53.71 6.993 6.993 0 1 0-11.295 8.248 196.66 196.66 0 0 0 67.4 57.817C201.541 447.1 229.159 454.2 255.668 454.2c40.51 0 83.123-16.369 116.913-45.343A193.417 193.417 0 0 0 438.057 289H484a7.309 7.309 0 0 0 5.854-11.212zM394.8 275l38.118-58.12L471.038 275zM136.319 226.922A7.239 7.239 0 0 0 130.16 223H88.094a179.115 179.115 0 0 1 60.438-109.223c31.291-26.831 70.582-42.095 107.8-42.095 24.265 0 49.645 6.608 73.395 18.992a182.685 182.685 0 0 1 62.581 53.71 6.993 6.993 0 1 0 11.3-8.248 196.66 196.66 0 0 0-67.4-57.817C310.459 64.9 282.841 57.805 256.332 57.805c-40.51 0-83.123 16.369-116.913 45.343A193.417 193.417 0 0 0 73.943 223H28a7.309 7.309 0 0 0-5.854 11.212l51.081 77.946a6.991 6.991 0 0 0 11.707.046l51.08-78A7.213 7.213 0 0 0 136.319 226.922zM79.08 295.12L40.962 237H117.2z" fill="#000000" class="color000000 svgShape"></path>
    <path d="M185.289,362H326.711c3.866,0,7.289-2.887,7.289-6.753V264h22a7.137,7.137,0,0,0,4.95-12.135l-100-100.031a7,7,0,0,0-9.9-.016l-100,99.992a7.2,7.2,0,0,0-1.517,7.749A7.111,7.111,0,0,0,156,264h22v91.247C178,359.113,181.423,362,185.289,362ZM172.9,250,256,166.9,339.1,250h-12.39A6.551,6.551,0,0,0,320,256.753V348H192V256.753A6.551,6.551,0,0,0,185.289,250Z" fill="#000000" class="color000000 svgShape"></path>
    <path d="M216,305h21v21a7,7,0,0,0,7,7h24a7,7,0,0,0,7-7V305h21a7,7,0,0,0,7-7V274a7,7,0,0,0-7-7H275V246a7,7,0,0,0-7-7H244a7,7,0,0,0-7,7v21H216a7,7,0,0,0-7,7v24A7,7,0,0,0,216,305Zm7-24h21a7,7,0,0,0,7-7V253h10v21a7,7,0,0,0,7,7h21v10H268a7,7,0,0,0-7,7v21H251V298a7,7,0,0,0-7-7H223Z" fill="#000000" class="color000000 svgShape"></path>
  </g>
</svg>
