<svg xmlns="http://www.w3.org/2000/svg" viewBox="0 0 64 64" id="fever">
  <g fill="none" stroke="#000" stroke-linejoin="round" stroke-width="2">
    <path d="M14 26V15A14 14 0 0 1 28 1h8a14 14 0 0 1 14 14v11M26 41v5.4a2 2 0 0 1-1.557 1.95L7.114 52.292A4 4 0 0 0 4 56.193V63m56 0v-6.807a4 4 0 0 0-3.114-3.9l-17.329-3.939A2 2 0 0 1 38 46.4V41"></path>
    <path d="M25 48s1 4 7 4 7-4 7-4"></path>
    <path d="M42 48s-.476 7-10 7-10-7-10-7m26.646-19A4 4 0 0 0 50 26v-3a2 2 0 0 0-2-2h-2v-4a34.384 34.384 0 0 1-4 1.332M22 18s-1 3-4 3h-2a2 2 0 0 0-2 2v3a4 4 0 0 0 1.6 3.2L18 31a14.173 14.173 0 0 0 27.818 1"></path>
    <rect width="20" height="10" x="22" y="11" rx="1"></rect>
    <path d="M36 23s0 2 3 2a4.38 4.38 0 0 0 3-1m-20 0a4.38 4.38 0 0 0 3 1c3 0 3-2 3-2m0 15a4.333 4.333 0 0 1 4-2 4.333 4.333 0 0 1 4 2"></path>
    <path d="m33 36.047 12.676-8.674a2.125 2.125 0 0 1 3.283 1.327 2.109 2.109 0 0 1-1.184 2.327L34.916 37M37 24v1c0 1.657.9 3 2 3s2-1.343 2-3v-1m-18 0v1c0 1.657.895 3 2 3s2-1.343 2-3v-1M25 11v7h14v-7M9 24.023V4a3 3 0 0 0-6 0v20.023a5 5 0 1 0 6 0ZM3 10h6M9 14H6M9 18H6M9 22H6"></path>
  </g>
</svg>
