<svg id="SvgjsSvg1001" width="288" height="288" xmlns="http://www.w3.org/2000/svg" version="1.1" xmlns:xlink="http://www.w3.org/1999/xlink" xmlns:svgjs="http://svgjs.com/svgjs"><defs id="SvgjsDefs1002"></defs><g id="SvgjsG1008"><svg xmlns="http://www.w3.org/2000/svg" fill-rule="evenodd" clip-rule="evenodd" image-rendering="optimizeQuality" shape-rendering="geometricPrecision" text-rendering="geometricPrecision" viewBox="0 0 53.704 53.704" width="288" height="288"><path fill-rule="nonzero" d="M15.868 41.97a.413.413 0 0 1 0-.826h33.915c4.289-.786 2.871-5.906 2.867-5.921l-.01-.049-3.278-15.942c-.298-.842-.663-1.526-1.261-1.988-.607-.468-1.481-.73-2.81-.73H19.446a.413.413 0 0 1 0-.826h25.845c1.526 0 2.562.324 3.314.904.754.583 1.195 1.4 1.543 2.393l.015.053 3.284 15.972c.005.017 1.666 6.008-3.527 6.948a.4.4 0 0 1-.099.012zm17.564-21.146a8.135 8.135 0 0 1 8.139 8.139 8.147 8.147 0 0 1-8.139 8.138 8.11 8.11 0 0 1-5.754-2.384 8.113 8.113 0 0 1-2.384-5.754c0-1.1.219-2.151.617-3.111a8.15 8.15 0 0 1 4.41-4.41 8.1 8.1 0 0 1 3.111-.618m2.798 1.379a7.3 7.3 0 0 0-2.798-.553c-.993 0-1.938.197-2.798.553a7.3 7.3 0 0 0-2.372 1.589 7.3 7.3 0 0 0-1.589 2.373 7.3 7.3 0 0 0-.553 2.798c0 .993.197 1.938.553 2.798a7.3 7.3 0 0 0 1.589 2.372 7.3 7.3 0 0 0 2.372 1.589c.86.356 1.805.553 2.798.553s1.938-.197 2.798-.553a7.3 7.3 0 0 0 2.373-1.589 7.3 7.3 0 0 0 1.589-2.372c.356-.86.553-1.805.553-2.798s-.197-1.938-.553-2.798a7.3 7.3 0 0 0-1.589-2.373 7.3 7.3 0 0 0-2.373-1.589m-3.711 1.779h1.827c.18 0 .345.073.464.192l.032.036c.1.116.161.265.161.429v2.753h2.753a.657.657 0 0 1 .657.657v1.827a.65.65 0 0 1-.228.497.66.66 0 0 1-.429.16h-2.753v2.754c0 .18-.075.344-.195.464a.65.65 0 0 1-.462.192h-1.827a.65.65 0 0 1-.496-.228.65.65 0 0 1-.161-.428v-2.754h-2.754a.66.66 0 0 1-.464-.194.65.65 0 0 1-.193-.463v-1.827a.66.66 0 0 1 .229-.496.65.65 0 0 1 .428-.161h2.754v-2.753a.655.655 0 0 1 .657-.657m1.657.826h-1.488v2.998a.413.413 0 0 1-.413.413h-2.997v1.488h2.997c.228 0 .413.185.413.413v2.997h1.488V30.12c0-.228.185-.413.414-.413h2.997v-1.488H34.59a.413.413 0 0 1-.414-.413z" fill="#000000" class="svgShape color000000-0 selectable"></path><path fill-rule="nonzero" d="M29.544 7.301h7.776c.642 0 1.257.135 1.821.38a4.8 4.8 0 0 1 1.545 1.078 5 5 0 0 1 1.03 1.606c.232.583.361 1.219.361 1.881v3.321a.8.8 0 0 1-.226.559.77.77 0 0 1-.559.242h-2.358a.77.77 0 0 1-.56-.242.8.8 0 0 1-.226-.559v-3.321a.89.89 0 0 0-.52-.819.8.8 0 0 0-.308-.063h-7.776a.78.78 0 0 0-.578.254.9.9 0 0 0-.25.628v3.321a.8.8 0 0 1-.226.559.77.77 0 0 1-.559.242h-2.358a.77.77 0 0 1-.56-.242.8.8 0 0 1-.226-.559v-3.321c0-.662.129-1.298.361-1.881a5 5 0 0 1 1.03-1.606 4.8 4.8 0 0 1 1.546-1.078 4.6 4.6 0 0 1 1.82-.38m7.776.826h-7.776c-.531 0-1.036.11-1.494.309-.48.208-.913.514-1.278.894a4.2 4.2 0 0 0-.859 1.339 4.2 4.2 0 0 0-.299 1.577v3.296h2.276v-3.296a1.73 1.73 0 0 1 .482-1.199c.152-.159.334-.287.536-.375.198-.086.413-.134.636-.134h7.776c.223 0 .439.048.637.134.202.088.384.216.536.375a1.74 1.74 0 0 1 .482 1.199v3.296h2.275v-3.296c0-.561-.106-1.094-.299-1.577a4.2 4.2 0 0 0-.859-1.339 4 4 0 0 0-1.277-.894 3.7 3.7 0 0 0-1.495-.309" fill="#000000" class="svgShape color000000-1 selectable"></path><path fill="#ff0303" fill-rule="nonzero" d="M10.475 0c1.231 0 2.344.498 3.15 1.304a4.44 4.44 0 0 1 1.304 3.15c0 1.319-.474 3.042-1.373 4.309-.744 1.047-1.777 1.794-3.081 1.794-1.303 0-2.336-.747-3.08-1.794-.899-1.267-1.374-2.99-1.374-4.309 0-1.23.499-2.344 1.304-3.15A4.44 4.44 0 0 1 10.475 0m2.566 1.888A3.62 3.62 0 0 0 10.475.826 3.62 3.62 0 0 0 7.91 1.888a3.61 3.61 0 0 0-1.062 2.566c0 1.175.42 2.707 1.218 3.831.599.843 1.412 1.445 2.409 1.445.998 0 1.81-.602 2.409-1.445.798-1.124 1.219-2.656 1.219-3.831 0-1.003-.406-1.91-1.062-2.566m.479 9.236 3.508 1.319a4.34 4.34 0 0 1 1.815 1.282c.468.564.785 1.248.918 2.01l1.037 5.822.004.031a9 9 0 0 1 .14 1.967 9.2 9.2 0 0 1-.312 1.979l-2.047 7.578-.011.034a2.4 2.4 0 0 1-.833 1.248 2.33 2.33 0 0 1-1.292.483l-.935 16.584a2.38 2.38 0 0 1-.73 1.587 2.34 2.34 0 0 1-1.622.655H7.79a2.34 2.34 0 0 1-1.623-.655 2.38 2.38 0 0 1-.729-1.596l-.936-16.575a2.33 2.33 0 0 1-1.291-.483c-.4-.31-.699-.751-.843-1.28v-.002h-.001L.315 25.517a9 9 0 0 1-.307-1.962c-.028-.65.02-1.303.145-1.998H.152l1.04-5.837a4.25 4.25 0 0 1 .915-1.995 4.34 4.34 0 0 1 1.815-1.282l3.536-1.33c.241-.095.467-.143.696-.155.221-.012.44.011.673.058l.011.002 1.284.294c.125.031.239.046.352.046s.227-.015.352-.046c.432-.095.863-.204 1.296-.297l-.001-.001c.229-.045.448-.068.674-.056a2.2 2.2 0 0 1 .725.166m3.217 2.09-3.545-1.332a1.4 1.4 0 0 0-.439-.101c-.146-.008-.3.009-.47.043l-1.257.288a2.3 2.3 0 0 1-.552.073c-.179 0-.358-.025-.552-.073l-1.268-.291a1.8 1.8 0 0 0-.458-.04c-.14.007-.281.038-.434.098l-3.549 1.335a3.5 3.5 0 0 0-1.474 1.037 3.43 3.43 0 0 0-.735 1.612L.965 21.699H.964v.002a8.2 8.2 0 0 0-.133 1.822c.025.583.118 1.166.281 1.784l2.052 7.592-.001.001c.096.35.291.641.551.842.257.199.581.313.939.313h.239v.001c.218 0 .4.17.412.39l.957 16.962c.021.411.2.78.477 1.046.274.262.644.423 1.052.423h5.37c.407 0 .778-.161 1.051-.423.276-.265.456-.632.478-1.041.207-5.423 1.014-11.653.956-16.945 0-.228.185-.413.413-.413h.239c.358 0 .681-.114.938-.313.255-.197.447-.479.545-.819l.006-.024 2.047-7.576a8.3 8.3 0 0 0 .286-1.8 8.2 8.2 0 0 0-.127-1.791l-.008-.033-1.036-5.824a3.44 3.44 0 0 0-.738-1.624 3.5 3.5 0 0 0-1.473-1.037m-5.53.529-.019.001a7.4 7.4 0 0 1-1.453-.012l.377.495a.4.4 0 0 1 .083.279l-.77 10.767-.004.031a.73.73 0 0 0 .114.471l.911 1.093.026.036h.005a.4.4 0 0 1 .041-.052l.9-1.08a.7.7 0 0 0 .093-.219l.003-.012a.8.8 0 0 0 .013-.257l-.001-.011-.771-10.767a.4.4 0 0 1 .093-.292zm-.09-.821a7 7 0 0 0 .434-.052c.203-.197.25-.195.455.004.081.036.123.096.169.17a.4.4 0 0 1 .083.165.84.84 0 0 1-.088.603 2 2 0 0 1-.256.364l-.325.426.76 10.613q.024.256-.033.512l-.004.02a1.6 1.6 0 0 1-.219.497q-.011.017-.026.034l-.911 1.093a.8.8 0 0 1-.283.261.84.84 0 0 1-.398.098.84.84 0 0 1-.398-.098.8.8 0 0 1-.283-.261L8.9 26.298a.4.4 0 0 1-.045-.056 1.59 1.59 0 0 1-.254-1.013l.761-10.627-.331-.434h.001l-.002-.003a2 2 0 0 1-.257-.4.85.85 0 0 1-.061-.583.45.45 0 0 1 .255-.333v.001l.002-.001a.6.6 0 0 1 .257-.062v.001q.077 0 .153.03c.094.038.241.068.426.091a7.004 7.004 0 0 0 1.312.013" class="svgShape colorff0303-2 selectable"></path><path fill="none" d="M0 0h53.704v53.704H0z" class="selectable"></path></svg></g></svg>