<svg id="Layer_1" enable-background="new 0 0 511.99 511.99" height="512" viewBox="0 0 511.99 511.99" width="512" xmlns="http://www.w3.org/2000/svg"><g><path d="m504.49 496.916h-33.73c1.345-3.067 2.097-6.451 2.097-10.009v-33.334c0-11.245-18.486-8.405-15 2.332v7.841h-106.497v-125.638h106.496v75.494c0 9.386 15 9.813 15 0v-93.39c0-19.083-13.687-35.03-31.759-38.541v-12.999c24.302-6.854 19.285-43.855-6.058-43.855h-60.863c-25.343 0-30.357 37.002-6.057 43.855v12.999c-9.962 1.935-18.585 7.654-24.324 15.588-5.739-7.935-14.362-13.653-24.324-15.588v-12.999c24.301-6.854 19.286-43.855-6.057-43.855h-5.098l14.453-18.636c23.398 18.387 50.929-18.433 28.142-36.347l-26.82-21.095 43.871-56.508 14.146 11.129c22.994 18.072 51.321-18.126 28.294-36.23l-78.938-62.1c-23.139-18.186-51.206 18.22-28.439 36.116l14.117 11.106-43.874 56.512-26.495-20.84c-23.147-18.191-50.529 17.712-28.322 36.208l-134.812 173.824c-14.963 19.294-13.527 46.303 2.18 63.936l-6.193 7.986c-6.763 8.721-6.394 20.797.184 29.055l-78.246 100.886c-5.803 7.484 5.989 16.753 11.854 9.193l78.182-100.805c9.714 4.458 21.554 1.498 28.095-6.933l6.128-7.901c21.014 11.154 47.707 5.234 62.223-13.481l26.69-34.414v141.429c0 3.558.752 6.942 2.097 10.009h-33.731c-4.143 0-7.5 3.358-7.5 7.5s3.357 7.5 7.5 7.5h321.388c4.143 0 7.5-3.358 7.5-7.5s-3.357-7.5-7.5-7.5zm-137.661-249.751c0-4.052 3.296-7.348 7.348-7.348h60.863c9.193 0 9.614 14.696 0 14.696-19.801-.223-39.616-.027-59.42-.027-4.304 0-8.791-2.302-8.791-7.321zm59.268 22.348v11.439h-42.977v-11.439zm-50.477 26.439h57.977c14.78 0 25.125 12.972 24.26 27.156h-106.497c0-15.192 10.883-27.156 24.26-27.156zm-62.204-56.135c9.192 0 9.612 14.696 0 14.696-20.275-.225-40.588-.225-60.863 0-9.193 0-9.614-14.696 0-14.696zm-8.943 29.696v11.439h-42.978v-11.439zm7.828-240.159c-7.44-5.848 1.845-18.863 9.895-12.534l78.937 62.1c7.58 5.959-1.495 19.139-9.749 12.648zm16.633 32.171 27.242 21.432-43.871 56.508-27.244-21.429zm-98.689 71.879 14.257 11.213c3.257 2.56 7.97 1.998 10.532-1.258 2.561-3.256 1.997-7.971-1.259-10.532l-26.166-20.581c-7.547-5.931 1.938-18.788 9.896-12.533l104.138 81.911c7.447 5.856-1.307 19.284-9.604 12.762l-48.699-38.305c-3.254-2.561-7.971-1.998-10.531 1.258-2.562 3.256-1.998 7.971 1.258 10.532l36.915 29.035-21.646 27.909h-36.783c-8.263 0-15.487 4.51-19.354 11.195l-51.26-40.323zm-122.402 258.676c-7.073 9.117-23.376-3.968-16.364-13.01l5.644-7.277c5.474 4.312 10.948 8.624 16.422 12.936zm106.893-71.869v.79l-38.544 49.698c-11.542 14.883-33.668 17.706-48.551 6.04-8.715-6.865-17.43-13.731-26.145-20.596-15.072-11.85-17.766-33.828-6.004-48.994l77.253-99.606 58.366 45.912c2.16 7.35 8.001 13.136 15.384 15.218v12.999c-18.072 3.509-31.759 19.456-31.759 38.539zm121.496 166.696c0 5.519-4.49 10.009-10.009 10.009h-86.479c-5.519 0-10.009-4.49-10.009-10.009v-8.162h106.496v8.162zm0-23.162h-106.496v-125.637h106.496zm0-140.637h-106.496c-.756-14.181 9.416-27.156 24.259-27.156h57.978c14.853 0 24.972 12.982 24.259 27.156zm121.625 163.799c0 5.519-4.49 10.009-10.009 10.009h-86.479c-5.519 0-10.009-4.49-10.009-10.009v-8.162h106.496v8.162z"/><path d="m426.777 396.932c.037 4.119 3.388 7.432 7.499 7.432h.068c4.143-.037 7.47-3.425 7.433-7.567l-.215-23.786c-.037-4.089-3.343-7.395-7.433-7.432l-23.786-.215c-.022 0-.046 0-.068 0-4.11 0-7.462 3.313-7.499 7.432-.037 4.142 3.29 7.53 7.433 7.567l5.908.053-9.376 9.376c-10.095-5.503-23.028-3.996-31.561 4.537h-.001c-10.374 10.375-10.374 27.255.001 37.631 5.187 5.187 12.001 7.78 18.814 7.78 6.814 0 13.629-2.594 18.816-7.781 8.532-8.533 10.041-21.465 4.537-31.561l9.376-9.376zm-24.572 24.421c-4.526 4.525-11.892 4.527-16.418 0s-4.526-11.891 0-16.417h-.001c4.525-4.526 11.891-4.528 16.418 0 4.527 4.527 4.527 11.891.001 16.417z"/><path d="m275.677 409.172v4.853h-4.708c-4.143 0-7.5 3.358-7.5 7.5s3.357 7.5 7.5 7.5h4.708v5.115c0 4.142 3.357 7.5 7.5 7.5s7.5-3.358 7.5-7.5v-5.115h4.707c4.143 0 7.5-3.358 7.5-7.5s-3.357-7.5-7.5-7.5h-4.707v-4.853c11.031-3.247 19.108-13.457 19.108-25.526 0-14.672-11.937-26.609-26.608-26.609s-26.608 11.937-26.608 26.609c-.001 12.068 8.077 22.279 19.108 25.526zm7.5-37.135c6.401 0 11.608 5.208 11.608 11.609s-5.207 11.609-11.608 11.609-11.608-5.208-11.608-11.609 5.206-11.609 11.608-11.609z"/></g></svg>