<svg width="56" height="56" viewBox="0 0 56 56" fill="none" xmlns="http://www.w3.org/2000/svg">
<rect x="27.5762" width="39" height="39" rx="7.69" transform="rotate(45 27.5762 0)" fill="#FFD7D7"/>
<path d="M25.4453 28.3418L27.9124 25.8747L28.8846 26.847L26.4176 29.314L25.4453 28.3418Z" fill="#DC2626"/>
<path d="M22.9648 25.8594L25.4319 23.3923L26.4042 24.3645L23.9371 26.8316L22.9648 25.8594Z" fill="#DC2626"/>
<path d="M43.3741 40.1557L38.4137 35.1953L37.4413 36.1677L41.9155 40.6419L40.2161 42.3413L35.742 37.8671L34.7695 38.8395L39.7299 43.7999C39.8588 43.9288 40.0337 44.0013 40.2161 44.0013C40.3984 44.0013 40.5733 43.9288 40.7023 43.7999L43.374 41.1281C43.503 40.9991 43.5754 40.8243 43.5754 40.6419C43.5754 40.4596 43.503 40.2846 43.3741 40.1557Z" fill="#DC2626"/>
<path d="M35.3868 18.8725H36.6995V20.1851C36.6995 20.5649 37.0073 20.8727 37.387 20.8727C37.7668 20.8727 38.0746 20.5649 38.0746 20.1851V18.8725H39.3873C39.767 18.8725 40.0749 18.5646 40.0749 18.1849C40.0749 17.8052 39.767 17.4973 39.3873 17.4973H38.0746V16.1847C38.0746 15.8049 37.7668 15.4971 37.387 15.4971C37.0073 15.4971 36.6995 15.8049 36.6995 16.1847V17.4973H35.3868C35.0071 17.4973 34.6992 17.8052 34.6992 18.1849C34.6992 18.5646 35.007 18.8725 35.3868 18.8725Z" fill="#DC2626"/>
<path d="M19.0123 37.8762H17.6996V36.5636C17.6996 36.1838 17.3918 35.876 17.012 35.876C16.6323 35.876 16.3245 36.1838 16.3245 36.5636V37.8762H15.0118C14.6321 37.8762 14.3242 38.1841 14.3242 38.5638C14.3242 38.9435 14.6321 39.2514 15.0118 39.2514H16.3245V40.5641C16.3245 40.9438 16.6323 41.2516 17.012 41.2516C17.3918 41.2516 17.6996 40.9438 17.6996 40.5641V39.2514H19.0123C19.392 39.2514 19.6999 38.9435 19.6999 38.5638C19.6999 38.1841 19.392 37.8762 19.0123 37.8762Z" fill="#DC2626"/>
<path d="M30.1154 27.1002L25.1804 22.1654C24.2321 21.217 22.6889 21.217 21.7406 22.1654C20.7922 23.1137 20.7922 24.6568 21.7406 25.6052L26.6755 30.5401C27.1497 31.0143 27.7725 31.2513 28.3954 31.2513C29.0183 31.2513 29.6412 31.0143 30.1154 30.5401C31.0637 29.5917 31.0637 28.0486 30.1154 27.1002ZM29.1429 29.5677C28.7307 29.9799 28.06 29.9799 27.6479 29.5677L22.713 24.6328C22.3008 24.2206 22.3008 23.55 22.713 23.1378C22.9191 22.9317 23.1898 22.8286 23.4605 22.8286C23.7312 22.8286 24.0019 22.9316 24.208 23.1378L29.1429 28.0726C29.5551 28.4848 29.5551 29.1555 29.1429 29.5677Z" fill="black"/>
<path d="M38.9679 34.7996L35.7728 30.3569C35.9511 29.9977 36.046 29.5997 36.046 29.187C36.046 28.4829 35.7718 27.821 35.2739 27.3231L21.6826 13.7317C19.3737 11.4227 15.6168 11.4228 13.3079 13.7317C10.9989 16.0406 10.9989 19.7975 13.3079 22.1064L26.8993 35.6977C27.3971 36.1956 28.0591 36.4698 28.7632 36.4698C29.176 36.4698 29.574 36.3749 29.9332 36.1966L34.3759 39.3917C34.4966 39.4785 34.6372 39.5211 34.7771 39.5211C34.9543 39.5211 35.1304 39.4528 35.2635 39.3197L38.896 35.6872C39.1341 35.449 39.1646 35.0732 38.9679 34.7996ZM14.2802 14.7041C15.1666 13.8177 16.3308 13.3746 17.4952 13.3746C18.4424 13.3746 19.3896 13.668 20.1872 14.2547L13.8308 20.6111C12.5229 18.8332 12.6727 16.3115 14.2802 14.7041ZM27.8716 34.7254L14.7664 21.6202L21.1963 15.1903L34.3016 28.2955C34.5397 28.5337 34.6709 28.8503 34.6709 29.187C34.6709 29.5237 34.5397 29.8404 34.3016 30.0785L29.6547 34.7254C29.4165 34.9635 29.0999 35.0947 28.7632 35.0947C28.4265 35.0947 28.1097 34.9635 27.8716 34.7254ZM34.7042 37.9341L31.0318 35.2929L34.8691 31.4556L37.5103 35.128L34.7042 37.9341Z" fill="black"/>
</svg>
