<svg xmlns="http://www.w3.org/2000/svg" id="hormone" viewBox="0 0 128 128">
  <path d="M29.28223 60.54533 11.87061 68.4447C10.65576 68.94574 0 73.77928 0 88.95869v22.05224a2 2 0 1 0 4 0V88.95869c0-12.57658 8.43408-16.4188 9.47607-16.85049l19.0116-8.62455A22.68574 22.68574 0 0 1 29.28223 60.54533ZM64.5 45.5037V30.502a18.5 18.5 0 1 0-37 0V45.5037a18.5 18.5 0 1 0 37 0Zm-33 0V30.502a14.5 14.5 0 1 1 29 0V45.5037a14.5 14.5 0 1 1-29 0ZM59.50476 63.48963 70.2406 68.35339 74.46527 65.875 62.71692 60.54631A22.692 22.692 0 0 1 59.50476 63.48963Z"></path>
  <path d="M126.99072,99.5624l-6.938-3.95551a2.00258,2.00258,0,0,0-1.98145,0l-5.70435,3.25243-9.571-5.20962s-.0116-16.10139-.01752-16.18935l8.73639-7.26521a7.97085,7.97085,0,1,0-2.58429-3.05435l-8.38361,6.97184S86.96143,66.14269,86.938,66.131V53.617a8.938,8.938,0,1,0-4,0s0,12.514-.02344,12.52567l-13.8584,8.13078A4.01555,4.01555,0,0,0,67.08008,77.724V93.97059l-7.40967,4.43646-6.27246-3.521a3.02219,3.02219,0,0,0-2.9375,0L43.5332,98.77422A3.00414,3.00414,0,0,0,42,101.3917v7.72937a3.003,3.003,0,0,0,1.53174,2.6165l6.9326,3.892a3.08139,3.08139,0,0,0,2.93312-.00194l6.92725-3.8891a3.00414,3.00414,0,0,0,1.5332-2.61748V101.7596l7.16779-4.29167c.0108.00647.02008.01465.03094.021l13.85791,8.1298a4.03557,4.03557,0,0,0,4.04687,0s14.05511-8.2611,14.15173-8.33008l9.01135,4.905v7.01829a1.99922,1.99922,0,0,0,1.00928,1.7375l6.93753,3.95651a2.00959,2.00959,0,0,0,1.98142,0l6.938-3.95649A1.99922,1.99922,0,0,0,128,109.2119v-7.912A1.99922,1.99922,0,0,0,126.99072,99.5624ZM116.08887,59.78457a3.93356,3.93356,0,1,1-3.94678,3.934A3.9449,3.9449,0,0,1,116.08887,59.78457ZM80,44.92746a4.938,4.938,0,1,1,4.938,4.92242A4.93615,4.93615,0,0,1,80,44.92746Zm-22.14209,63.6076-5.92871,3.32947L46,108.53507V101.9777l5.92871-3.32849,5.9292,3.32849Zm40.938-14.49769L84.938,102.16718,71.08008,94.03835V77.724L84.938,69.59425,98.7959,77.724ZM124,108.04966l-4.938,2.81574-4.9375-2.81574v-5.58753l4.9375-2.81574L124,102.46213Z"></path>
</svg>
