<svg xmlns="http://www.w3.org/2000/svg" enable-background="new 0 0 64 64" viewBox="0 0 64 64" id="hormone-therapy">
  <g>
    <path d="M17.8232422,24.7724609c-3.7211914,0-6.7485352,3.2421875-6.7485352,7.2275391s3.0273438,7.2275391,6.7485352,7.2275391
		c3.7207031,0,6.7480469-3.2421875,6.7480469-7.2275391S21.5439453,24.7724609,17.8232422,24.7724609z M13.074707,32
		c0-0.3341064,0.0349731-0.6587524,0.0896606-0.9755859h9.3173218C22.5363159,31.3412476,22.5712891,31.6658936,22.5712891,32
		s-0.0349731,0.6587524-0.0895996,0.9755859h-9.3173218C13.1096802,32.6587524,13.074707,32.3341064,13.074707,32z
		 M17.8232422,26.7724609c1.6132202,0,3.0366211,0.894165,3.8950806,2.2519531h-7.7904663
		C14.786438,27.666626,16.210022,26.7724609,17.8232422,26.7724609z M17.8232422,37.2275391
		c-1.6132202,0-3.0368042-0.894165-3.8953857-2.2519531h7.7904663
		C20.8598633,36.333374,19.4364624,37.2275391,17.8232422,37.2275391z"></path>
    <path d="M56.6542969,26.5419922c-0.5522461,0-1,0.4472656-1,1v0.7802734h-3.2573242v-1.2529297v-1.8623047
		c0-0.5527344-0.4477539-1-1-1s-1,0.4472656-1,1v0.8623047H37.0395508c-1.3380127,0-2.4877319,0.7720337-3.0621338,1.8867188
		h-1.0135498c-1.2390137,0-2.2490234,0.9526367-2.3656616,2.1621094h-1.3529663
		c-0.1978149-2.7368164-0.9658203-5.3630981-2.2271729-7.5644531c1.4760742-2.2041016,2.2827148-4.90625,2.2827148-7.6835938
		l-0.0014648-0.1972656c-0.0234375-1.6357422-1.387207-2.9658203-3.0410156-2.9658203
		c-0.8388672,0-1.6274414,0.3271484-2.2207031,0.9208984c-0.5927734,0.5927734-0.918457,1.3818359-0.9174805,2.2421875
		c0,1.4394531-0.362793,2.8046875-1.0556641,3.9599609c-0.9145508,1.5722656-2.3242188,2.546875-3.925293,2.6796875
		c-0.1958008,0.0263672-0.3505859,0.0361328-0.6787109-0.0068359c-1.5415039-0.1259766-2.9560547-1.1015625-3.8857422-2.6845703
		c-0.6860352-1.1435547-1.0488281-2.5087891-1.0488281-4.0087891c0.0009766-0.828125-0.3208008-1.6074219-0.90625-2.1933594
		s-1.3642578-0.9091797-2.1928711-0.9091797c-1.6806641,0-3.0625,1.3496094-3.0805664,3.0087891l-0.0004883,0.1542969
		c0,2.765625,0.8071289,5.4677734,2.2841797,7.6835938c-1.4765625,2.5888672-2.2841797,5.7451172-2.2841797,8.9658203
		c0,3.5048828,0.9257813,6.8603516,2.6196289,9.5380859c-1.6943359,2.2988281-2.6196289,5.1660156-2.6196289,8.15625
		l0.0004883,0.1591797c0.0170898,1.6103516,1.3554688,2.9199219,2.984375,2.9199219h0.2158203
		c0.7885742,0,1.5292969-0.3076172,2.0854492-0.8652344c0.5786133-0.5800781,0.8959961-1.359375,0.894043-2.2138672
		c0-1.7177734,0.5166016-3.3339844,1.465332-4.5673828c0.9863281-1.3310547,2.3847656-2.09375,3.8369141-2.09375
		c1.4643555,0,2.828125,0.7451172,3.8422852,2.1005859c0.9350586,1.2392578,1.449707,2.859375,1.449707,4.5791016
		c-0.0019531,0.8359375,0.3154297,1.6152344,0.894043,2.1953125c0.5561523,0.5576172,1.296875,0.8652344,2.0854492,0.8652344
		h0.2158203c1.6289063,0,2.9672852-1.3095703,2.984375-2.9238281l0.0009766-0.1552734
		c0-3.0009766-0.9248047-5.8681641-2.6176758-8.15625c1.5957642-2.5128784,2.4987183-5.6418457,2.5979614-8.9394531h1.3170166
		c0.1160889,1.2098999,1.1264648,2.1621094,2.3657837,2.1621094h1.0130005
		c0.5742188,1.1152344,1.7243042,1.8876953,3.0626831,1.8876953h13.3574219v0.8623047c0,0.5527344,0.4477539,1,1,1s1-0.4472656,1-1
		v-1.8623047v-1.2529297h3.2573242v0.7802734c0,0.5527344,0.4477539,1,1,1s1-0.4472656,1-1v-1.7802734v-3.5927734v-1.7802734
		C57.6542969,26.9892578,57.206543,26.5419922,56.6542969,26.5419922z M24.6323242,40.5234375
		c-0.2636719,0.3710938-0.2436523,0.8730469,0.0483398,1.2226563c1.6894531,2.0166016,2.6201172,4.6689453,2.6201172,7.4677734
		l-0.0009766,0.1376953c-0.0053711,0.5195313-0.4467773,0.9414063-0.984375,0.9414063h-0.2158203
		c-0.324707,0-0.543457-0.1513672-0.6694336-0.2773438c-0.2006836-0.2011719-0.3110352-0.4775391-0.3100586-0.8017578
		c0-2.1328125-0.6582031-4.1806641-1.8505859-5.7617188c-1.378418-1.8427734-3.3618164-2.8994141-5.4414063-2.8994141
		c-2.0922852,0-4.0766602,1.0576172-5.4326172,2.8876953c-1.2055664,1.5673828-1.8696289,3.6171875-1.8696289,5.7978516
		c0.0009766,0.2998047-0.109375,0.5761719-0.3100586,0.7773438c-0.1259766,0.1259766-0.3447266,0.2773438-0.6694336,0.2773438
		H9.3305664c-0.5375977,0-0.9790039-0.421875-0.984375-0.9404297l-0.0004883-0.1386719
		c0-2.7871094,0.9311523-5.4404297,2.621582-7.4707031c0.2895508-0.3476563,0.3095703-0.8466797,0.0478516-1.2167969
		c-1.7211914-2.4355469-2.6694336-5.6337891-2.6694336-9.0068359c0-3.0917969,0.824707-6.1015625,2.3222656-8.4765625
		c0.2207031-0.3496094,0.203125-0.7998047-0.0444336-1.1308594c-1.46875-1.96875-2.277832-4.4697266-2.277832-7.0419922
		l0.0004883-0.1337891c0.0058594-0.5673828,0.4907227-1.0292969,1.0805664-1.0292969
		c0.2939453,0,0.5698242,0.1142578,0.777832,0.3222656c0.2075195,0.2080078,0.3217773,0.484375,0.3212891,0.8408203
		c0,1.8017578,0.4614258,3.5234375,1.3291016,4.9697266c1.2592773,2.1435547,3.2426758,3.4765625,5.3852539,3.6503906
		c0.3989258,0.0576172,0.859375,0.046875,1.1191406,0.0068359c2.2050781-0.1806641,4.1860352-1.5146484,5.4267578-3.6494141
		c0.8725586-1.4541016,1.3339844-3.1757813,1.3339844-5.0009766c-0.0004883-0.3046875,0.1176758-0.5908203,0.3330078-0.8056641
		c0.2148438-0.2158203,0.5009766-0.3339844,0.8051758-0.3339844c0.5664063,0,1.0332031,0.4453125,1.0410156,0.9951172
		l0.0014648,0.1679688c0,2.5859375-0.8085938,5.0849609-2.2763672,7.0390625
		c-0.25,0.3330078-0.2680664,0.7851563-0.0449219,1.1367188c1.2703857,1.9996338,2.0501099,4.4712524,2.2589111,7.0722656
		h-0.5968018c-0.5522461,0-1,0.4472656-1,1s0.4477539,1,1,1h0.6382446
		C27.1745605,35.2815552,26.2508545,38.2481079,24.6323242,40.5234375z M32.5751953,31.8916016v-1.5458984
		c0-0.2148438,0.1743164-0.3896484,0.3886719-0.3896484h0.6186523v2.3242188h-0.6186523
		C32.7495117,32.2802734,32.5751953,32.1054688,32.5751953,31.8916016z M45.3984375,34.1679688v-3.0498047
		c0-0.5527344-0.4477539-1-1-1s-1,0.4472656-1,1v3.0498047h-2.6552734v-3.0498047c0-0.5527344-0.4477539-1-1-1s-1,0.4472656-1,1
		v3.0498047h-1.7036133c-0.8032227,0-1.4570313-0.6533203-1.4570313-1.4570313v-3.1845703
		c0-0.8037109,0.6538086-1.4570313,1.4570313-1.4570313h13.3574219v1.2529297v3.5927734v1.2529297H45.3984375z
		 M52.3969727,31.9150391v-1.5927734h3.2573242v1.5927734H52.3969727z"></path>
  </g>
</svg>
