<svg width="101" height="100" viewBox="0 0 101 100" fill="none" xmlns="http://www.w3.org/2000/svg">
<mask id="mask0_1008_21" style="mask-type:luminance" maskUnits="userSpaceOnUse" x="10" y="13" width="81" height="75">
<path d="M90.5 13H10.5V87.2029H90.5V13Z" fill="white"/>
</mask>
<g mask="url(#mask0_1008_21)">
<g style="mix-blend-mode:multiply">
<path d="M59.3116 14.6237C48.2971 14.2759 37.2826 20.3049 29.0507 28.8846C19.8913 38.5078 20.0072 51.4933 24.1812 62.9715C26.0362 68.073 29.2826 72.9425 34.0362 76.073C38.442 78.8556 43.7754 80.1309 49.1087 80.5947C70.9058 82.3338 90.5 71.8991 89.8044 50.6817C89.4565 40.5947 85.9783 30.1599 78.3261 22.8556C72.413 17.2904 65.8043 14.7396 59.3116 14.6237Z" fill="#DC2626"/>
<path d="M59.3116 14.6237C48.2971 14.2759 37.2826 20.3049 29.0507 28.8846C19.8913 38.5078 20.0072 51.4933 24.1812 62.9715C26.0362 68.073 29.2826 72.9425 34.0362 76.073C38.442 78.8556 43.7754 80.1309 49.1087 80.5947C70.9058 82.3338 90.5 71.8991 89.8044 50.6817C89.4565 40.5947 85.9783 30.1599 78.3261 22.8556C72.413 17.2904 65.8043 14.7396 59.3116 14.6237Z" fill="#DC2626" stroke="#FF8F8F" stroke-width="0.8" stroke-miterlimit="10"/>
</g>
<g style="mix-blend-mode:multiply">
<path d="M41.8041 19.0297C48.2969 17.2905 55.4853 17.6383 61.6302 20.305C64.7607 21.5804 67.5433 23.4354 69.8621 25.7543C72.181 28.305 73.5723 31.2036 74.9636 34.2181C77.6302 40.0152 80.4128 46.392 80.2969 52.7688C80.2969 55.7833 79.4853 58.6818 77.5143 61.0007C75.0795 63.6673 71.4853 65.6383 67.8911 64.8267C63.8331 64.0152 60.5868 60.6528 58.6157 57.1746C56.8766 54.276 54.6737 49.2905 58.152 46.8557C59.3114 45.9282 58.152 43.9572 56.9926 44.8847C53.5143 47.3195 53.6302 51.3775 55.0215 54.9717C56.5288 58.7978 58.9636 62.276 62.3259 64.7108C65.5723 67.1456 69.8621 68.0731 73.6882 66.4499C77.1665 64.9427 80.065 62.1601 81.4563 58.6818C84.2389 51.9572 81.5723 44.0731 78.9056 37.8123C77.5143 34.334 76.2389 30.7398 74.152 27.7253C72.181 24.5949 69.3984 21.9282 66.152 20.0731C58.8476 15.5514 49.4563 14.6239 41.2244 16.8268C39.8331 17.1746 40.4128 19.3775 41.8041 19.0297Z" fill="black"/>
</g>
<g style="mix-blend-mode:multiply">
<path d="M15.6019 48.4773C18.2686 39.086 22.4425 29.8107 30.2106 23.6657C31.3701 22.7382 29.7469 21.115 28.5875 22.0426C20.5875 28.4194 16.1817 38.1585 13.515 47.7817C13.0512 49.2889 15.2541 49.8686 15.6019 48.4773Z" fill="black"/>
</g>
<g style="mix-blend-mode:multiply">
<path d="M20.2388 73.7536C26.0359 80.4782 34.6156 84.0724 43.0794 86.0434C50.7316 87.7826 58.8475 86.2753 65.2243 81.7536C68.8185 79.3188 71.833 75.9565 73.6881 72.0145C72.9925 71.8599 72.2968 71.6666 71.6012 71.4347C71.6012 71.8985 71.4852 72.3623 71.6012 72.826C71.6012 72.942 71.4852 73.1739 71.4852 73.1739C71.6011 73.4058 73.3403 72.942 73.2243 73.1739C73.2243 73.0579 73.2244 72.5942 73.5723 72.2463C72.8766 72.0145 72.2195 71.7439 71.6012 71.4347C71.1374 75.7246 67.6591 79.2029 63.833 80.5942C62.0939 81.1739 60.4707 81.9855 58.7316 82.5652C57.0311 83.1835 55.292 83.6473 53.5142 83.9565C46.4417 85.4637 38.6736 85.3478 32.1809 81.8695C28.4707 79.8985 25.4562 76.884 23.4852 73.1739C22.7896 71.8985 20.8185 73.0579 21.5142 74.3333C25.5722 81.7536 32.7606 85.9275 40.9925 86.855C45.0504 87.4347 49.2243 87.0869 53.2823 86.3913C55.2147 86.0048 57.147 85.5024 59.0794 84.884C60.9345 84.3043 62.7896 83.3768 64.6446 82.6811C69.3983 80.942 73.3403 76.6521 73.804 71.4347C73.92 70.5072 72.5288 69.9275 71.9491 70.6231C71.0215 71.5507 70.3258 73.5217 71.4852 74.5652C72.0649 75.1449 72.9925 75.0289 73.4562 74.3333C73.92 73.5217 73.92 72.3623 73.804 71.4347C73.804 70.3913 72.2968 69.8116 71.7171 70.855C68.5867 77.4637 62.4417 82.1014 55.3693 83.7246C47.833 85.5797 39.7171 83.4927 32.7606 80.2463C28.7026 78.2753 24.8765 75.6087 21.862 72.1304C20.9345 71.0869 19.3113 72.7101 20.2388 73.7536Z" fill="black"/>
</g>
<g style="mix-blend-mode:multiply">
<path d="M29.0507 65.2886C32.529 71.0857 40.1812 71.7813 46.0942 69.5784C53.3985 67.0277 57.1087 60.1871 58.1522 52.8828C58.7319 49.4045 59.0797 44.9987 56.7609 42.1002C56.1812 41.5205 55.0217 41.8683 54.7899 42.6799C54.0942 45.5784 54.2101 48.7089 54.558 51.7234C54.9058 54.506 55.6015 57.6364 57.1087 60.0712C58.6159 62.506 61.0507 64.4769 63.4855 65.8682C65.8043 67.1435 68.3551 67.8393 70.9058 67.2596C79.7174 65.4045 79.7174 53.1147 78.9058 46.2741C78.3261 41.9842 77.2826 38.0422 75.4275 34.1002C72.529 27.9552 68.471 22.39 61.9783 19.6074C55.8333 17.0567 48.6449 16.361 42.2681 18.2161C35.7754 20.0712 30.0942 24.0131 25.2246 28.6508C20.587 33.1725 15.9493 38.39 13.6304 44.5349C11.1957 50.7958 11.4275 57.9842 14.0942 64.1291C14.9058 65.7523 15.7174 67.2596 16.7609 68.7668C17.5725 69.9263 19.5435 68.8828 18.7319 67.6074C15.0217 62.1581 13.3986 56.1291 14.558 49.6363C15.7174 43.4914 19.3116 38.5059 23.2536 33.9841C27.3116 29.3464 32.0652 25.2886 37.6304 22.506C43.1957 19.6074 49.2246 18.7958 55.3696 19.9552C58.3841 20.6509 61.3986 21.5783 64.0652 23.2015C66.7319 24.9406 68.8188 27.2595 70.558 29.9262C72.9928 33.7522 74.9638 38.0422 76.0072 42.5639C76.8188 46.2741 77.1667 50.2161 76.9348 54.1581C76.7029 57.5205 75.8913 61.3465 73.2246 63.6654C69.6304 66.7958 64.8768 64.477 61.7464 61.9263C59.7754 60.1871 58.5 58.216 57.8043 55.7812C56.8768 52.9987 56.529 49.9842 56.529 47.0857C56.529 45.8103 56.6449 44.5349 56.9928 43.2596C56.3744 43.4142 55.756 43.5688 55.1377 43.7234C56.7609 45.8103 56.413 49.4044 56.0652 51.8392C55.7174 54.9696 54.9058 57.9842 53.2826 60.6509C50.2681 65.9842 44.587 68.8828 38.442 68.419C35.4275 68.1871 32.6449 66.7958 30.9058 64.1291C30.2101 62.8538 28.2391 64.0132 29.0507 65.2886Z" fill="black"/>
</g>
<g style="mix-blend-mode:multiply">
<path d="M53.6308 41.7526C44.7033 39.6656 33.9207 43.7236 29.5149 51.9555C28.2395 54.2743 27.5439 56.941 27.5439 59.6076C27.5439 61.1149 29.8627 61.1149 29.8627 59.6076C29.8627 48.3613 42.8482 41.5207 53.0511 43.9555C54.4424 44.3033 55.0221 42.1004 53.6308 41.7526Z" fill="black"/>
</g>
<g style="mix-blend-mode:multiply">
<path d="M57.9208 42.564C56.4135 42.3321 55.0222 41.7524 53.515 41.2886C51.8918 40.8248 50.2686 40.477 48.6454 40.0132C47.486 39.5495 46.4425 39.0857 45.1672 39.2016C43.7759 39.3176 42.2686 39.7813 41.1092 40.3611C38.7904 41.5205 36.4715 43.2596 34.6164 45.1147C33.6889 46.0422 32.916 47.0857 32.2976 48.2451C31.9498 48.8248 31.7179 49.4045 31.3701 49.8683C30.9063 50.564 30.4425 51.1437 30.0947 51.8393C29.1672 54.1582 28.5875 56.5929 28.4715 59.0277C28.3556 60.1871 28.4715 61.3466 28.9353 62.39C29.3991 63.6654 30.3266 64.5929 31.3701 65.6364C32.2976 66.564 33.3411 67.8393 34.5005 68.6509C35.428 69.2306 36.4715 69.6944 37.6309 69.9263C39.9498 70.39 42.6164 70.6219 45.0512 70.1582C47.8338 69.4625 50.5005 67.1437 52.5875 65.1726C53.515 64.2451 54.3266 63.2016 55.1382 62.0422C55.8338 61.2306 56.6454 60.0712 56.5295 58.9118C56.4135 57.5205 54.0947 57.5205 54.3266 58.9118C54.3266 59.7234 53.6309 60.419 53.1672 60.9987C52.5875 61.8103 51.8918 62.6219 51.0802 63.4335C49.457 65.0567 47.3701 66.9118 45.1672 67.7234C43.3121 68.419 40.9933 68.1871 39.0222 67.8393C38.0947 67.7234 37.1672 67.4915 36.2396 67.0277C35.1962 66.448 34.3846 65.5205 33.573 64.5929C32.7614 63.7813 31.602 62.9697 31.1382 61.9263C30.6744 60.9987 30.6744 59.8393 30.7904 58.7958C30.9063 56.7089 31.3701 54.39 32.2976 52.535C32.8773 51.4915 33.573 50.6799 34.0367 49.7524C34.6164 48.5929 35.3121 47.5495 36.2396 46.7379C37.8628 45.1147 39.7179 43.7234 41.6889 42.564C42.8483 41.9842 44.2396 41.4045 45.515 41.4045C46.7904 41.4045 48.1817 42.2161 49.457 42.564C50.8483 43.0277 52.3556 43.2596 53.7469 43.7234C55.1382 44.1871 56.5295 44.6509 57.9208 44.8828C59.428 44.9987 59.428 42.7958 57.9208 42.564Z" fill="black"/>
</g>
<g style="mix-blend-mode:multiply">
<path d="M78.4416 61.5784C79.3692 59.7233 80.6445 57.9842 80.9923 55.8972C81.2242 54.6218 81.1083 53.2305 81.1083 51.9552C81.1083 50.6798 80.8764 49.4045 80.6445 48.0131C80.2967 46.6218 78.0938 47.2016 78.4416 48.7088C78.6735 49.7523 78.7895 50.7958 78.7895 51.9552C78.7895 53.1146 78.9054 54.274 78.7895 55.4334C78.5576 57.2885 77.2822 58.7958 76.4706 60.4189C75.775 61.8103 77.746 62.9697 78.4416 61.5784Z" fill="black"/>
</g>
<g style="mix-blend-mode:multiply">
<path d="M15.9491 59.7258C15.4853 58.6823 15.0215 57.7547 14.2099 56.9432C13.6302 56.4794 12.4708 56.5953 12.3549 57.4069C11.8911 59.6098 11.4273 62.3924 12.9346 64.2475C13.3984 64.9432 14.7897 65.0591 15.0215 64.0156C15.3694 61.8127 14.9056 59.7258 13.7462 57.9866C13.1665 57.175 12.2389 57.175 11.7752 57.9866C10.8476 59.3779 11.3114 61.1171 11.8911 62.6243C12.5868 64.2475 13.1665 65.8707 14.094 67.3779C15.0215 68.7692 16.181 70.1605 17.3404 71.4359C18.3839 72.5953 19.6592 73.9866 21.2824 74.4504C22.6737 74.7982 23.2534 72.5953 21.8621 72.2475C20.7027 71.8997 19.7752 70.7403 18.9636 69.8127C18.036 68.7692 16.9926 67.6098 16.181 66.3345C15.3694 65.175 14.7897 63.7837 14.3259 62.3924C13.9781 61.5808 13.1665 59.9576 13.7462 59.0301C13.0505 59.0301 12.3935 59.0301 11.7752 59.0301C12.5868 60.4214 13.0505 61.8127 12.8186 63.32C13.5143 63.2427 14.2099 63.1654 14.9056 63.0881C13.7462 61.6968 14.094 59.7258 14.4418 58.1026C13.8235 58.2572 13.2051 58.4117 12.5868 58.5663C13.2824 59.146 13.6302 60.0736 13.9781 60.8852C14.6737 62.1605 16.6447 61.0011 15.9491 59.7258Z" fill="black"/>
</g>
<g style="mix-blend-mode:multiply">
<path d="M15.8331 57.2901C15.0215 56.2466 14.2099 55.3191 13.3983 54.3915C13.0505 54.0437 12.4708 53.9278 12.123 54.1597C11.6592 54.2756 11.4273 54.6234 11.4273 55.2031C11.3114 56.1307 11.4273 57.1742 11.6592 58.2176C11.8911 59.4543 12.2003 60.6911 12.5868 61.9278C13.3983 64.0147 14.5578 66.7973 16.7607 67.6089C18.152 68.0727 18.7317 65.8698 17.3404 65.406C17.5723 65.522 17.2244 65.2901 17.3404 65.406C17.2631 65.3287 17.1858 65.2514 17.1085 65.1742C16.8766 65.0582 17.2244 65.2901 16.9926 65.1742C16.9153 65.0969 16.838 65.0196 16.7607 64.9423C16.4128 64.5944 16.2969 64.4785 16.065 63.8988C15.4853 62.9713 15.0215 62.0437 14.6737 61.0002C14.2872 59.8408 14.0167 58.6814 13.8621 57.522C13.7462 56.9423 13.5143 56.0147 13.6302 55.2031C13.0119 55.435 12.3935 55.6669 11.7752 55.8988C12.4708 56.8263 13.2824 57.6379 13.8621 58.4495C14.2099 59.0292 14.9056 59.2611 15.4853 58.9133C15.9491 58.5655 16.181 57.8698 15.8331 57.2901Z" fill="black"/>
</g>
<g style="mix-blend-mode:multiply">
<path d="M14.9055 64.826C16.4127 69.9275 18.0359 76.768 23.2533 79.3188C23.949 79.6666 24.9925 79.3188 24.9925 78.3912C24.8765 76.5362 23.4852 74.797 22.4417 73.4057C21.3982 72.1304 19.891 70.2753 18.2678 69.9275C17.2243 69.6956 16.4127 70.739 16.9925 71.5506C19.3113 75.4927 22.6736 78.739 26.4997 81.0579C27.5432 81.7535 28.8185 80.2463 27.891 79.3188C25.3403 76.884 22.7896 74.6811 20.3548 72.2463C19.3113 71.2028 18.1519 70.1593 17.5722 68.884C16.9925 67.8405 16.5287 66.6811 15.3693 66.1014C14.3258 65.7535 13.2823 66.6811 13.7461 67.7246C15.3693 70.855 17.3403 73.7535 19.6591 76.4202C21.978 78.9709 24.7606 81.2898 28.0069 82.4492C28.8185 82.797 29.7461 81.8695 29.3982 81.0579C28.3548 77.5796 25.2243 75.4927 23.1374 72.826C22.7896 72.2463 22.0939 72.0144 21.5142 72.3622C21.0504 72.5941 20.8185 73.4057 21.1664 73.8695C22.2098 75.2608 23.3693 76.4202 24.5287 77.6956C25.5722 78.855 26.7316 80.1304 27.3113 81.6376C27.7751 81.1738 28.2388 80.7101 28.7026 80.2463C25.6881 79.2028 23.1374 76.884 21.0504 74.5651C18.9635 72.1304 17.1084 69.4637 15.7171 66.5651C15.2533 67.1062 14.7509 67.6086 14.2098 68.0724C15.1374 68.5362 15.3693 69.8115 15.833 70.6231C16.6446 71.8985 17.804 72.9419 18.9635 73.9854C21.2823 76.4202 23.833 78.6231 26.2678 80.9419C26.7316 80.3236 27.1953 79.7439 27.6591 79.2028C24.0649 76.9999 21.0504 73.9854 18.8475 70.3912C18.461 71.0096 18.0359 71.5893 17.5722 72.1304C17.92 72.1304 18.4997 72.5941 18.9635 72.9419C19.5818 73.5603 20.1615 74.1787 20.7026 74.797C21.2437 75.4154 21.7074 76.111 22.0939 76.884C22.2485 77.1159 22.4031 77.3864 22.5577 77.6956C22.5577 77.8502 22.5963 78.0048 22.6736 78.1593C22.7896 78.3912 22.6736 78.2753 22.6736 78.3912C23.292 78.082 23.8717 77.7342 24.4127 77.3477C22.0939 76.1883 20.7026 73.8695 19.6591 71.5506C18.4997 69.2318 17.804 66.6811 17.1084 64.2463C16.7606 62.739 14.5577 63.4347 14.9055 64.826Z" fill="black"/>
</g>
<g style="mix-blend-mode:multiply">
<path d="M32.9932 20.5369C31.9497 21.5804 31.1381 22.8557 30.4424 24.1311C29.9787 25.0586 31.0221 26.334 32.0656 25.7543C33.4569 24.7108 35.0801 23.8992 35.7758 22.1601C36.1236 21.3485 35.0801 20.5369 34.3845 20.7688C30.3265 22.276 27.8917 25.5224 24.5294 27.9572C25.0704 28.421 25.5729 28.9234 26.0366 29.4644C26.4231 28.9234 26.8869 28.4596 27.4279 28.0731C26.8869 27.5321 26.3458 26.991 25.8047 26.45C23.8337 28.421 21.283 29.5804 20.0076 32.0152C19.4279 33.0586 20.4714 34.1022 21.5149 33.5225C22.6743 32.9428 23.8337 31.8992 24.8772 30.9717C26.0366 30.0442 27.4279 29.0007 28.3555 27.7253C29.6308 26.1021 27.8917 24.9427 26.2685 25.5224C24.5294 26.2181 23.1381 27.7253 21.7468 28.8847C20.9352 29.6963 20.1236 30.5079 19.4279 31.4355C18.6163 32.5949 18.0366 33.9862 17.5729 35.3775C17.1091 36.421 18.3845 37.1166 19.196 36.6528C20.7033 35.9572 21.3989 34.334 22.4424 33.1746C23.7178 31.5514 25.4569 30.5079 26.8482 29.1166C27.8917 28.0731 26.3845 26.5659 25.225 27.4934C23.1381 29.2326 20.7033 30.6239 18.9642 32.8268C17.225 35.1456 16.5294 37.9282 15.254 40.4789C15.9497 40.7108 16.6453 40.9814 17.341 41.2905C19.0801 36.305 23.1381 32.4789 26.2685 28.305C27.0801 27.2615 25.341 26.1021 24.5294 26.9137C20.0076 30.7398 16.0656 35.4934 14.7903 41.4065C14.4424 42.7978 16.6453 43.3775 16.9932 41.9862C17.8047 38.9718 19.4279 36.305 20.4714 33.4065C20.8192 32.4789 19.5439 31.5515 18.8482 32.1312C13.5149 35.7254 13.7468 42.5659 11.7758 48.0152C12.4714 48.2471 13.2057 48.4403 13.9787 48.5949C14.4424 45.5804 15.4859 42.7979 16.9932 40.1312C17.5729 39.2037 16.4134 37.8123 15.4859 38.5079C14.9062 39.0876 13.8627 39.5515 13.6308 40.3631C13.3989 41.1747 13.8627 41.8702 14.6743 41.9862C15.9497 42.1021 16.9932 40.7109 17.225 39.5515C17.341 38.3921 15.9497 38.1602 15.254 38.7399C11.8917 41.4066 12.7033 46.392 12.8192 50.1021C12.9352 51.4934 15.1381 51.4934 15.1381 50.1021C14.9062 46.9717 14.0946 42.566 16.8772 40.3631C16.1816 40.0539 15.5246 39.7834 14.9062 39.5515C14.9062 39.3196 14.7903 39.5514 14.6743 39.6673C14.3265 40.2471 14.0946 38.5079 15.4859 40.0152C15.6405 40.3243 15.7564 40.5949 15.8337 40.8268C15.8337 41.2905 15.4859 41.2905 15.9497 41.0586C16.1816 40.9427 16.4134 40.5949 16.6453 40.4789C16.1043 40.0152 15.5632 39.5129 15.0221 38.9718C13.5149 41.7544 12.3555 44.7688 11.7758 48.0152C11.5439 49.5224 13.3989 49.9862 13.9787 48.5949C15.6018 43.9572 15.37 37.1166 19.8917 34.1021C19.3506 33.6384 18.8096 33.2132 18.2685 32.8268C17.225 35.7253 15.6018 38.392 14.7903 41.4065C15.4859 41.6384 16.2202 41.8316 16.9932 41.9862C18.1526 36.4211 21.8627 32.1311 26.0366 28.5369C25.4956 28.0731 24.9159 27.6094 24.2975 27.1456C20.9352 31.5514 16.9932 35.4934 15.1381 40.7108C14.6743 41.8702 16.6453 42.6819 17.225 41.5225C18.3845 39.0877 19.0801 36.421 20.8192 34.2181C22.4424 32.1311 24.7613 30.7398 26.8482 29.1166C26.3072 28.5756 25.7661 28.0345 25.225 27.4934C23.8337 28.7688 22.3265 29.8123 21.0511 31.2036C20.1236 32.363 19.4279 34.1021 18.0366 34.7978C18.5777 35.1842 19.1188 35.6094 19.6598 36.0731C20.1236 34.7978 20.7033 33.5224 21.5149 32.363C22.0946 31.6673 22.7903 31.0876 23.4859 30.5079C24.1816 29.8123 24.8772 29.1166 25.5729 28.5369C26.0366 28.305 26.3845 28.0731 26.7323 27.8413C27.4279 27.4934 27.312 27.8413 26.9642 27.0297C26.6163 26.2181 26.8482 26.1021 26.5004 26.45C26.2685 26.7591 26.0366 27.0297 25.8047 27.2615C25.1091 27.8799 24.4134 28.4596 23.7178 29.0007C22.6743 29.9282 21.6308 30.9717 20.3555 31.6673C20.8965 32.1311 21.3989 32.6335 21.8627 33.1746C23.1381 30.9717 25.6888 29.8123 27.4279 28.0731C28.4714 27.0297 26.8482 25.5224 25.8047 26.45C25.1091 27.0297 24.6453 27.6094 24.0656 28.305C23.4859 29.2326 24.7613 30.5079 25.6888 29.9282C28.8192 27.6094 31.254 24.363 34.9642 22.9717C34.5004 22.5079 34.0366 22.0442 33.5729 21.5804C33.1091 22.5079 31.7178 23.2036 30.9062 23.7833C31.4473 24.2471 31.9497 24.7495 32.4134 25.2905C33.1091 24.1311 33.6888 22.9717 34.6163 22.0442C35.6598 21.1166 34.1526 19.4934 32.9932 20.5369Z" fill="black"/>
</g>
<g style="mix-blend-mode:multiply">
<path d="M29.9779 24.1303C31.0213 24.1303 31.9489 24.0144 32.8764 23.5506C33.9199 22.9709 35.1953 22.5071 36.2387 21.8115C37.2822 21.2318 37.8619 20.9999 38.9054 20.8839C39.717 20.768 40.6445 20.6521 41.2242 20.0723C41.8039 19.4926 41.5721 18.4492 40.7605 18.2173C38.5576 17.5216 36.2387 18.2173 34.2677 19.1448C33.3402 19.7245 32.2967 20.3042 31.3692 20.9999C30.9054 21.3477 29.8619 22.9709 29.0503 22.855C29.4368 23.0868 29.7846 23.2801 30.0938 23.4347C30.0938 23.4347 30.0938 24.3622 29.9779 24.2463C30.0938 24.2463 30.2097 24.1303 30.2097 24.1303C30.3257 24.0144 30.5576 23.8984 30.6735 23.7825C31.1373 23.4733 31.6397 23.1641 32.1808 22.855C33.1856 22.2366 34.2677 21.6955 35.4271 21.2318C36.5866 20.6521 37.8619 20.6521 39.3692 20.3042C40.4126 20.0723 42.0358 20.0723 42.6155 19.0289C43.0793 18.3332 42.7315 17.5216 42.0358 17.2897C40.7605 16.9419 39.4851 17.2897 38.3257 17.7535C37.0503 18.3332 35.775 18.797 34.4996 19.4926C33.1083 20.1883 31.8329 20.8839 30.5576 21.8115C29.0503 22.855 27.4271 23.4347 25.8039 24.3622C26.2677 24.9033 26.7315 25.483 27.1953 26.1013C28.7025 24.826 30.3257 23.7825 32.0648 22.9709C31.6011 22.3525 31.1373 21.7342 30.6735 21.1158C27.4271 24.2463 23.4851 26.5651 20.7025 30.2752C18.1518 33.5216 15.601 36.9999 14.3257 40.9419C13.9779 41.9854 13.5141 42.9129 13.3982 43.9564C13.1663 44.9999 13.1663 46.0434 13.2822 47.0868C13.2822 49.6376 13.2822 52.0723 13.2822 54.5071C13.2822 56.5941 13.0503 58.797 13.5141 60.8839C14.0938 63.2028 15.4851 64.9419 16.7605 66.797C17.3402 67.8405 18.0358 68.768 18.7315 69.6955C19.4271 70.6231 20.1228 71.5506 20.7025 72.5941C21.63 74.4492 22.0938 76.4202 23.717 77.9274C24.8764 78.855 26.3837 77.3477 25.3402 76.3042C23.9489 75.1448 23.601 73.4057 22.9054 71.8984C22.0938 70.1593 20.7025 68.768 19.659 67.1448C18.4996 65.5216 17.1083 63.7825 16.2967 61.8115C15.3692 59.9564 15.4851 57.7535 15.4851 55.6665C15.4851 53.5023 15.4851 51.2994 15.4851 49.0579C15.4851 46.9709 15.2532 44.8839 15.9489 42.9129C16.6445 40.9419 17.3402 39.0868 18.4996 37.3477C19.659 35.6086 20.7025 33.9854 21.8619 32.3622C24.7605 28.4202 28.8184 25.9854 32.2967 22.739C33.3402 21.8115 32.0648 20.4202 30.9054 20.9999C29.0503 21.9274 27.2725 23.0868 25.5721 24.4781C24.5286 25.2897 25.9199 26.797 26.9634 26.2173C28.3547 25.5216 29.746 25.0579 31.0213 24.2463C32.1808 23.4347 33.3402 22.6231 34.6155 21.9274C35.775 21.3477 37.0503 20.768 38.2097 20.3042C39.1373 19.8405 40.4126 19.2608 41.3402 19.4926C41.1083 18.9516 40.9151 18.4105 40.7605 17.8694C40.9924 17.6376 40.9924 17.5989 40.7605 17.7535C40.6059 17.7535 40.4126 17.7922 40.1808 17.8694C39.9489 17.9467 39.6783 17.9854 39.3692 17.9854C38.6735 18.14 37.9779 18.2559 37.2822 18.3332C36.1228 18.5651 35.1953 18.797 34.1518 19.2608C32.2967 20.0723 30.3257 20.9999 28.8184 22.3912C28.1228 22.855 27.659 23.6666 28.1228 24.4781C28.8184 25.8694 30.5576 24.9419 31.3692 24.1303C31.9489 23.6666 32.2967 23.0868 32.9924 22.6231C33.688 22.1593 34.4223 21.6955 35.1953 21.2318C36.5866 20.4202 38.4416 19.8405 40.0648 20.4202C39.9102 19.7245 39.7556 19.0675 39.6011 18.4492C39.717 18.3332 39.6011 18.4492 39.4851 18.4492C39.3692 18.4492 39.1373 18.5651 38.9054 18.5651C38.5189 18.6424 38.1711 18.681 37.8619 18.681C36.9344 18.797 36.2387 19.1448 35.4271 19.6086C34.6155 20.1883 33.5721 20.5361 32.6445 21.1158C31.717 21.5796 31.1373 21.8115 29.9779 21.8115C28.5866 21.8115 28.5866 24.1303 29.9779 24.1303Z" fill="black"/>
</g>
<g style="mix-blend-mode:multiply">
<path d="M28.4709 55.5523C28.4709 58.219 26.8477 62.161 29.7463 63.9002C30.7898 64.4799 31.8332 63.3205 31.2535 62.3929C31.0216 61.8132 30.7898 61.0016 30.5579 60.19C30.326 59.3784 29.8622 58.5668 29.2825 57.8712C28.5869 57.2915 27.5434 57.5234 27.3115 58.4509C26.384 61.4654 28.5869 65.2915 31.4854 66.5668C31.9492 66.7987 32.4129 66.7987 32.7608 66.335C33.1086 65.9871 33.2245 65.4074 32.9927 64.9436C32.7608 64.4799 32.297 64.1321 32.0651 63.5523C31.8332 62.9726 31.8332 62.277 31.6014 61.5813C31.3695 61.0016 30.7898 60.6538 30.21 60.7697C29.6303 61.0016 29.1666 61.5813 29.3985 62.161C29.6303 62.8567 29.6303 63.6683 29.9782 64.3639C30.21 65.0596 30.6738 65.5234 31.0216 66.1031C31.5627 65.6393 32.0651 65.1369 32.5289 64.5958C31.4854 64.1321 30.6738 63.3205 30.0941 62.277C29.7463 61.6973 29.5144 61.2335 29.3985 60.5379C29.2825 60.0741 29.3985 59.4944 29.5144 59.0306C28.896 59.1852 28.2777 59.3398 27.6593 59.4944C28.1231 59.9581 28.239 60.5378 28.4709 61.2335C28.7028 62.0451 28.9347 62.7407 29.3985 63.5523C29.8622 63.0113 30.3646 62.4702 30.9057 61.9292C30.4419 61.6973 30.4419 61.5813 30.326 61.1176C30.326 61.3494 30.326 61.0016 30.326 61.0016C30.326 60.847 30.326 60.6924 30.326 60.5379C30.326 60.2287 30.326 59.9581 30.326 59.7263C30.326 58.335 30.6738 56.9436 30.7898 55.5523C30.7898 54.0451 28.4709 54.0451 28.4709 55.5523Z" fill="black"/>
</g>
<g style="mix-blend-mode:multiply">
<path d="M43.6591 39.8975C43.5045 40.0521 43.3886 40.168 43.3113 40.2453C42.8475 40.941 42.9635 41.9844 43.891 42.2163C45.1664 42.5641 46.5577 42.4482 47.949 42.3323C49.3403 42.2163 50.9635 41.8685 52.1229 42.6801C53.3983 43.4917 53.7461 44.4192 54.2098 45.8105C54.4417 46.5062 54.7896 47.0859 55.0214 47.6656C55.2533 48.4772 55.1374 49.4047 55.1374 50.3323C55.1374 51.7236 57.3403 51.7236 57.4562 50.3323C57.5722 47.4337 56.4127 44.4192 54.3258 42.4482C53.2437 41.4434 52.0069 40.7864 50.6156 40.4772C49.804 40.3612 48.8765 40.2453 48.0649 40.1294C47.1374 40.0134 46.0939 40.2453 45.2823 40.0134C45.5142 40.5545 45.7461 41.0955 45.978 41.6366C46.2098 41.1728 47.1374 41.4047 47.6011 41.5207C48.5287 41.8685 49.1084 42.2163 50.1519 42.2163C51.6591 42.3323 52.5867 43.9554 53.862 44.6511C54.9055 45.1149 56.2968 43.7236 55.2533 42.912C54.4417 42.2163 53.6301 41.8685 52.8185 41.4047C52.0069 40.941 51.1954 40.4772 50.3838 40.0134C48.4127 39.0859 46.6736 39.5496 44.5867 39.6656C43.1953 39.6656 43.1953 41.8685 44.5867 41.8685C47.1374 41.8685 49.92 41.2888 52.4707 41.9844C53.7461 42.4482 56.8765 44.1873 56.4127 45.9265C57.0311 45.7719 57.6495 45.5786 58.2678 45.3467C57.2243 44.4192 56.8765 42.912 55.833 41.8685C55.0214 40.941 53.2823 42.1004 54.0939 43.2598C55.7171 45.6946 55.6011 48.4772 55.3693 51.2598C55.1374 52.767 55.1374 54.2743 54.7896 55.6656C54.6736 56.3612 54.5577 57.8685 53.978 58.2163C54.5963 58.5255 55.176 58.8733 55.7171 59.2598C55.7171 58.5641 56.0649 57.8685 56.2968 57.1728C56.5287 56.3612 56.6446 55.4337 56.7606 54.6221C56.9925 52.883 56.9925 51.2598 56.9925 49.5207C56.9925 48.5931 55.7171 48.0134 55.0214 48.7091C54.4417 49.5207 54.3258 50.4482 54.0939 51.3757C53.9393 52.6897 53.7461 53.9651 53.5142 55.2018C53.1664 56.941 52.4707 58.4482 51.891 60.0714C51.3113 61.4627 51.4272 62.9699 50.3838 64.2453C49.4562 65.4047 48.2968 66.1004 46.9055 66.3323C45.3982 66.6801 43.7751 67.0279 42.2678 67.3757C40.0649 67.8395 37.1664 68.1873 35.3113 66.796C34.0359 65.9844 32.8765 67.9554 34.1519 68.767C36.2388 70.2743 39.2533 70.1583 41.6881 69.6946C43.4272 69.4627 45.0504 68.9989 46.7896 68.6511C48.2968 68.4192 49.5722 67.9554 50.7316 67.0279C51.891 66.1004 52.8185 65.0569 53.2823 63.6656C53.6301 62.854 53.6301 61.9265 53.862 61.1149C54.2098 60.3033 54.5577 59.4917 54.9055 58.6801C55.4852 56.941 55.833 55.0859 56.0649 53.3467C56.1422 52.8057 56.2195 52.2646 56.2968 51.7236C56.4127 51.3757 56.4127 50.5641 56.6446 50.3323C56.0263 50.0231 55.4079 49.7525 54.7896 49.5207C54.6736 51.2598 54.6736 52.9989 54.4417 54.854C54.3258 55.6656 54.2098 56.3612 53.978 57.1728C53.7461 57.8685 53.5142 58.4482 53.5142 59.2598C53.5142 60.0714 54.4417 60.6511 55.1374 60.1873C56.2968 59.4917 56.6446 58.2163 56.8765 56.941C57.2243 55.3178 57.3403 53.6946 57.4562 51.9554C57.92 48.4772 58.0359 45.1149 56.0649 42.1004C55.4466 42.5641 54.8282 43.0279 54.2098 43.4917C55.2533 44.5352 55.6011 45.9265 56.6446 46.9699C57.3403 47.6656 58.3838 47.3178 58.6156 46.5062C59.4272 43.8395 56.6446 41.5207 54.5577 40.4772C51.5432 38.854 47.833 39.5496 44.5867 39.6656C44.5867 40.3612 44.5867 41.0955 44.5867 41.8685C46.3258 41.7525 47.949 41.2888 49.5722 42.2163C50.2678 42.4482 50.8475 42.912 51.5432 43.2598C52.2388 43.6076 53.0504 43.9554 53.6301 44.4192C54.0939 43.8782 54.5577 43.2984 55.0214 42.6801C54.0939 42.2163 53.5142 41.4047 52.7026 40.825C52.2388 40.4772 51.891 40.2453 51.3113 40.1294C50.7316 39.8975 49.92 40.0134 49.3403 39.7815C47.4852 39.0859 45.1664 38.5062 44.0069 40.4772C43.5432 41.1728 44.0069 41.9844 44.7026 42.2163C45.3982 42.3323 45.978 42.3323 46.6736 42.3323C47.3693 42.2163 48.1809 42.3323 48.8765 42.4482C50.1519 42.6801 51.4272 43.0279 52.4707 43.8395C54.3258 45.3467 55.2533 47.8975 55.1374 50.3323C55.9103 50.3323 56.6833 50.3323 57.4562 50.3323C57.4562 49.4047 57.4562 48.3612 57.3403 47.4337C57.1084 46.6221 56.5287 45.8105 56.2968 44.883C55.833 43.4917 55.3693 42.2163 54.0939 41.2888C53.5142 40.825 52.8185 40.3612 52.1229 40.1294C51.3113 39.8975 50.4997 40.0134 49.5722 40.0134C47.949 40.1294 46.0939 40.4772 44.4707 40.0134C44.6253 40.6318 44.7799 41.2501 44.9345 41.8685C45.0118 41.7912 45.0891 41.6753 45.1664 41.5207C46.0939 40.3612 44.4707 38.854 43.6591 39.8975Z" fill="black"/>
</g>
<g style="mix-blend-mode:multiply">
<path d="M55.6016 45.812C55.6016 50.1018 55.6016 54.6236 57.1088 58.6816C57.8044 60.4207 58.2682 62.2758 59.7755 63.3192C61.2827 64.5946 62.79 65.754 64.645 66.5656C67.4276 67.9569 71.1378 68.5366 73.9204 66.9134C75.4276 65.9859 77.0508 65.0584 77.5146 63.2033C77.9784 61.3482 78.3262 59.725 79.4856 58.1018C80.761 56.4787 80.1813 54.2758 80.1813 52.3047C80.1813 51.1453 80.2972 49.9859 80.1813 48.8265C80.0653 47.6671 79.3697 46.6236 79.3697 45.3482C79.4856 43.9569 77.1668 43.9569 77.1668 45.3482C77.0508 46.1598 77.2827 46.9714 77.5146 47.6671C77.8624 48.5946 77.9784 49.4062 77.9784 50.4497C77.9784 52.0729 78.0943 53.812 78.0943 55.4352C78.0943 56.3627 77.7465 56.7105 77.2827 57.4062C76.8189 57.9859 76.5871 58.7975 76.2392 59.4931C75.8914 60.3047 75.6595 61.0004 75.4276 61.812C75.3117 62.7395 75.1958 63.4352 74.3842 64.0149C73.3407 64.8265 72.0653 65.5221 70.674 65.5221C69.2827 65.6381 67.7755 65.4062 66.5001 64.9424C64.9929 64.3627 63.4856 63.4352 62.2102 62.3917C61.6305 62.0439 60.9349 61.5801 60.5871 61.1163C60.0073 60.4207 59.7755 59.2613 59.4276 58.4497C57.8044 54.5076 57.8044 50.1018 57.8044 45.812C57.8044 44.3047 55.6016 44.3047 55.6016 45.812Z" fill="black"/>
</g>
<g style="mix-blend-mode:multiply">
<path d="M15.2537 38.2739C14.2102 39.5493 13.6305 40.9406 13.1668 42.5638C12.5871 44.3029 12.0073 46.0421 11.5436 47.8971C10.5001 51.8392 10.3841 55.7812 11.1957 59.7232C11.5436 61.5783 12.0073 63.4334 12.8189 65.1725C13.5146 66.7957 14.5581 68.187 15.3697 69.6942C16.761 72.245 17.5726 75.1435 19.5436 77.2305C21.0508 78.9696 25.4566 81.5203 27.4276 79.2015C28.3552 78.042 26.8479 76.5348 25.8044 77.5783C25.2247 78.3899 22.9059 76.9986 22.2102 76.5348C20.9349 75.8392 20.2392 74.4478 19.5436 73.1725C18.8479 71.7812 18.2682 70.2739 17.4566 68.8826C16.645 67.2594 15.6015 65.7522 14.79 64.0131C13.0508 60.187 12.4711 55.3174 13.1668 51.1435C13.5146 49.0565 14.0943 46.9696 14.79 44.8826C15.3697 43.2594 15.7175 41.2884 16.8769 39.8971C17.8044 38.7377 16.1813 37.1145 15.2537 38.2739Z" fill="black"/>
</g>
<path d="M32.2974 82.9119C34.0365 82.9119 35.4278 83.8394 37.051 84.3032C38.9061 84.8829 40.7612 84.651 42.6162 84.8829C43.6597 84.9988 44.5873 85.2307 45.6307 85.3466C46.5583 85.4626 47.4858 85.4626 48.4133 85.5785C50.3844 86.0423 52.2394 86.1582 54.2104 86.0423C55.9882 85.8104 57.7274 85.3853 59.4278 84.7669C60.3554 84.5351 61.167 84.0713 61.9786 83.8394C62.7902 83.4916 63.7177 83.3756 64.4133 83.0278C66.1525 82.4481 67.3119 81.1727 68.3554 79.7814C68.9351 78.9698 69.3988 78.2742 70.0945 77.4626C70.6742 76.7669 71.138 76.1872 71.3699 75.2597C71.7177 74.4481 70.5583 73.4046 69.7467 73.9843C67.5438 75.6075 65.6887 77.4626 63.4858 79.0858C61.2829 80.593 58.7322 80.8249 56.2974 81.5206C55.138 81.7524 54.2104 82.3322 53.051 82.9119C52.0075 83.3756 50.9641 83.1437 49.9206 83.1437C48.6452 83.1437 47.4858 83.3756 46.2104 83.7235C44.8191 84.0713 43.196 83.8394 41.8046 83.8394C40.2974 83.8394 40.2974 86.0423 41.8046 86.0423C43.196 86.0423 44.7032 86.2742 46.0945 86.0423C47.4858 85.8104 48.7612 85.3466 50.1525 85.4626C51.3119 85.4626 52.4713 85.5785 53.5148 85.1148C54.6742 84.651 55.7177 83.9553 56.993 83.6075C59.4278 82.9119 61.8626 82.68 64.0655 81.4046C66.5003 79.7814 68.4713 77.5785 70.9061 75.9553C70.365 75.5689 69.7853 75.1437 69.167 74.68C68.9351 75.4916 68.2394 76.0713 67.7757 76.651C67.3119 77.3466 66.7322 78.1582 66.2684 78.8539C65.6887 79.5495 65.109 80.2452 64.2974 80.593C63.6017 81.0568 62.7902 81.1727 62.0945 81.4046C60.4713 81.8684 58.9641 82.68 57.3409 83.1437C55.6404 83.6075 53.9399 83.8394 52.2394 83.8394C50.5003 83.8394 48.9931 83.2597 47.2539 83.1437C45.3988 83.1437 43.6597 82.68 41.8046 82.564C39.9496 82.4481 38.3264 82.4481 36.5873 81.7524C35.196 81.1727 33.9206 80.709 32.2974 80.593C30.7902 80.593 30.7902 82.9119 32.2974 82.9119Z" fill="black"/>
</g>
</svg>
