<svg width="101" height="100" viewBox="0 0 101 100" fill="none" xmlns="http://www.w3.org/2000/svg">
<mask id="mask0_1008_2" style="mask-type:luminance" maskUnits="userSpaceOnUse" x="25" y="10" width="52" height="80">
<path d="M76.5 10H25.5V90H76.5V10Z" fill="white"/>
</mask>
<g mask="url(#mask0_1008_2)">
<g style="mix-blend-mode:multiply">
<path d="M56.3998 88.3827C54.2998 86.0017 52.1998 83.0493 50.4998 80.2874C47.7998 75.6208 45.1998 70.8589 42.8998 65.9065C38.4998 56.7636 34.8998 47.0493 33.7998 36.9541C32.5998 26.4779 40.1998 18.3827 49.5998 14.0969C54.7998 11.8112 60.9998 11.1446 66.1998 13.2398C77.8998 18.0017 76.5998 34.3827 74.3998 44.0969C71.1998 57.9065 64.9998 76.8588 56.3998 88.3827Z" fill="#DC2626"/>
<path d="M56.3998 88.3827C54.2998 86.0017 52.1998 83.0493 50.4998 80.2874C47.7998 75.6208 45.1998 70.8589 42.8998 65.9065C38.4998 56.7636 34.8998 47.0493 33.7998 36.9541C32.5998 26.4779 40.1998 18.3827 49.5998 14.0969C54.7998 11.8112 60.9998 11.1446 66.1998 13.2398C77.8998 18.0017 76.5998 34.3827 74.3998 44.0969C71.1998 57.9065 64.9998 76.8588 56.3998 88.3827Z" stroke="#FFB0B0" stroke-width="0.8" stroke-miterlimit="10"/>
</g>
<path d="M50.5 37.6209C45.5 37.6209 41.5 34.1923 41.5 30.0018C41.5 25.8113 45.5 22.3828 50.5 22.3828C55.5 22.3828 59.5 25.8113 59.5 30.0018C59.5 34.1923 55.5 37.6209 50.5 37.6209Z" fill="#DC2626" stroke="#DC2626" stroke-width="0.8" stroke-miterlimit="10"/>
<g style="mix-blend-mode:multiply">
<path d="M52.3997 87.1429C43.8997 77.619 36.5997 66.8572 31.9997 55.1429C29.8997 49.6191 28.1997 43.9048 28.0997 38.0952C28.0997 32.4762 29.5997 26.8572 32.9997 22.2857C38.7997 14.4762 51.2997 10.0952 60.5997 14.4762C72.2997 20 72.5997 34.8571 69.9997 45.3333C66.6997 58.381 58.8997 69.7143 53.2997 81.8095C52.633 83.2698 51.9664 84.7302 51.2997 86.1905C51.9664 86.381 52.5997 86.5397 53.1997 86.6667C57.4997 73.4286 66.9997 62.381 71.7997 49.2381C74.0997 42.8572 75.2997 35.9048 73.7997 29.2381C72.5997 24 69.3997 19.2381 65.0997 15.8095C60.6997 12.2857 55.0997 10.0952 49.2997 10.1905C43.7997 10.2857 38.3997 12.2857 34.5997 16.0952C26.2997 24.2857 27.5997 36.4762 29.8997 46.7619C31.2997 53.2381 33.6997 59.5238 36.5997 65.6191C38.0664 68.6032 39.6664 71.5556 41.3997 74.4762C42.2997 75.9048 43.1997 77.3333 44.1997 78.5714C44.6997 79.2381 44.9997 79.9048 45.2997 80.7619C45.4997 81.5238 45.6997 82.381 45.9997 83.1429C46.5997 84.5714 47.7997 85.619 48.6997 86.8571C49.1664 86.4762 49.6664 86.0952 50.1997 85.7143C50.0664 85.5873 49.933 85.4286 49.7997 85.2381C48.9997 84.2857 47.5997 85.6191 48.3997 86.5714C48.533 86.7619 48.6664 86.9206 48.7997 87.0476C49.4997 87.9048 50.9997 86.8571 50.3997 85.9048C49.4997 84.6667 48.1997 83.6191 47.6997 82.1905C47.0997 80.6667 46.9997 79.1429 45.9997 77.9048C44.0997 75.4286 42.4997 72.5714 40.9997 69.9048C37.8997 64.1905 35.2997 58.2857 33.3997 52.1905C31.4997 46.1905 30.2997 40 30.0997 33.7143C29.9997 29.1429 30.8997 24.4762 33.4997 20.4762C36.0997 16.4762 40.2997 13.6191 45.1997 12.5714C50.7997 11.3333 56.4997 12.5714 61.2997 15.4286C65.7997 18.1905 69.3997 22.4762 71.1997 27.3333C73.2997 33.3333 72.6997 39.9048 70.8997 45.9048C66.9997 58.6667 58.1997 69.3333 52.9997 81.619C52.3997 83.1429 51.833 84.6667 51.2997 86.1905C50.8997 87.3333 52.7997 87.8095 53.1997 86.6667C58.5997 73.7143 67.0997 61.9048 71.1997 48.381C74.4997 37.3333 75.0997 22.1905 64.2997 14.4762C55.3997 8.19047 42.0997 10.9524 34.4997 17.8095C30.0997 21.7143 27.4997 27.2381 26.5997 32.8572C25.5997 38.7619 26.4997 44.6667 28.2997 50.381C32.0997 62.9524 39.1997 74.4762 47.7997 84.6667C48.8664 85.9365 49.9664 87.2064 51.0997 88.4762C51.8997 89.3333 53.2997 88 52.3997 87.1429Z" fill="black"/>
</g>
<g style="mix-blend-mode:multiply">
<path d="M27.4996 39.9033C28.3996 42.0937 28.9996 44.2842 29.3996 46.5699C29.4996 47.7128 29.5996 48.8556 29.7996 49.9985C29.8996 51.0461 30.2996 51.9985 30.4996 53.0461C30.4996 53.6175 30.8996 53.9985 31.3996 53.9985C31.8996 53.9985 32.4996 53.6175 32.3996 53.0461C32.2996 51.9033 31.7996 50.8556 31.6996 49.7128C31.4996 48.5699 31.4996 47.4271 31.2996 46.2842C30.8996 43.9985 30.3996 41.6175 29.3996 39.4271C29.1996 38.9509 28.7996 38.6652 28.1996 38.7604C27.7996 38.8556 27.2996 39.4271 27.4996 39.9033Z" fill="black"/>
</g>
<g style="mix-blend-mode:multiply">
<path d="M53.5998 20.3827C51.8998 20.2874 50.2998 20.0969 48.6998 20.4779C47.1998 20.8588 45.5998 21.716 44.2998 22.6684C42.0998 24.1922 40.8998 26.7636 40.3998 29.2398C39.3998 34.5731 41.8998 39.9065 47.5998 41.6208C52.9998 43.2398 58.2998 39.5255 60.3998 34.8588C61.4998 32.5731 61.9998 29.9065 61.1998 27.5255C60.2998 24.7636 58.1998 22.5731 55.3998 21.5255C49.5998 19.335 42.2998 22.0969 39.9998 27.716C38.9998 30.0017 39.1998 32.7636 40.6998 34.8588C42.1998 37.1446 44.7998 38.6684 47.4998 39.335C53.2998 40.7636 59.8998 38.1922 62.1998 32.7636C64.4998 27.2398 59.7998 22.0969 54.2998 20.7636C48.5998 19.4303 41.8998 22.0969 39.4998 27.4303C38.8998 28.8588 38.7998 30.4779 38.7998 31.9065C38.7998 33.2398 38.8998 35.5255 40.4998 35.9065C41.3998 36.1922 42.1998 35.716 42.7998 35.2398C43.7998 34.4779 42.3998 33.1446 41.3998 33.9065C41.2998 34.0017 40.9998 34.1922 40.9998 34.0969C40.8998 34.2874 41.0998 34.0017 41.0998 34.1922C41.0998 34.1922 41.0998 34.1922 41.0998 34.0969C40.9998 33.6207 40.7998 33.1446 40.7998 32.5731C40.6998 31.335 40.7998 30.0017 41.0998 28.7636C41.4998 27.1446 42.9998 25.5255 44.3998 24.4779C46.2998 23.0493 48.7998 22.2874 51.2998 22.2874C55.7998 22.2874 61.2998 25.4303 60.8998 30.2874C60.3998 34.9541 55.1998 38.0017 50.5998 37.9065C46.2998 37.716 40.9998 34.9541 41.2998 30.2874C41.5998 25.4303 46.9998 22.3827 51.6998 22.6684C56.9998 22.9541 60.5998 27.4303 59.2998 32.2874C58.2998 36.0017 54.9998 39.9065 50.6998 40.0969C45.8998 40.2874 42.2998 36.4779 42.0998 32.1922C41.9998 30.1922 42.4998 28.0969 43.4998 26.3827C44.0998 25.335 44.7998 24.5731 45.7998 23.9065C46.8998 23.2398 48.1998 22.4779 49.4998 22.1922C50.7998 21.9065 52.1998 22.1922 53.5998 22.2874C54.7998 22.3827 54.7998 20.4779 53.5998 20.3827Z" fill="black"/>
</g>
<g style="mix-blend-mode:multiply">
<path d="M39.7995 72.572C39.7995 73.2387 40.0995 73.7149 40.4995 74.2863C40.8995 74.7625 41.1995 75.3339 41.5995 75.9053C42.3995 77.2387 43.3995 78.572 44.2995 80.0006C45.1995 81.2387 45.8995 82.572 46.6995 83.9053C47.3995 84.953 47.9995 86.1911 49.0995 86.953C49.7995 87.4291 50.5995 86.572 50.4995 85.9053C50.2995 84.8577 49.6995 83.9053 49.1995 82.953C48.6995 82.0006 48.0995 81.1434 47.3995 80.2863C46.6995 79.3339 45.9995 78.572 45.2995 77.5244C45.0995 77.1434 44.7995 76.7625 44.4995 76.2863C44.1995 75.9053 43.7995 75.5244 43.6995 75.0482C43.0995 75.3657 42.5328 75.6831 41.9995 76.0006C44.0995 77.7149 45.0995 80.2863 46.3995 82.4768C47.2995 83.8101 48.0995 85.0482 48.8995 86.3815C49.4995 87.3339 49.7995 88.2863 50.7995 88.953C51.1995 89.1434 51.8995 89.0482 52.0995 88.572C52.9995 86.953 51.3995 85.7149 50.2995 84.6672C49.8995 84.1911 49.5995 83.8101 49.1995 83.3339C48.7995 82.953 48.3995 82.6672 48.0995 82.1911C47.6995 81.2387 47.5995 80.3815 46.7995 79.6196C46.1995 79.1434 45.0995 79.4291 45.0995 80.2863C45.1995 80.953 45.5995 81.5244 45.9995 82.0958C46.4995 82.8577 46.7995 83.7149 47.1995 84.4768C47.6995 85.3339 47.9995 86.2863 48.5995 87.0482C49.1995 87.8101 49.7995 88.4768 50.1995 89.2387C50.7995 88.9212 51.3662 88.6037 51.8995 88.2863C51.6995 88.0323 51.4662 87.8101 51.1995 87.6196C50.2995 86.7625 48.8995 88.0958 49.8995 88.8577C50.0328 88.9847 50.1328 89.1117 50.1995 89.2387C50.9995 90.2863 52.4995 89.4291 51.8995 88.2863C51.5995 87.6196 50.9995 86.953 50.4995 86.2863C49.8995 85.6196 49.5995 84.8577 49.1995 84.0006C48.7995 83.2387 48.3995 82.4768 47.9995 81.7149C47.7995 81.3339 47.0995 80.6672 47.0995 80.2863C46.5662 80.4768 45.9995 80.699 45.3995 80.953C45.9995 81.4291 45.9995 82.2863 46.2995 82.953C46.6995 83.7149 47.3995 84.2863 47.9995 84.953C48.4995 85.4291 48.8995 86.0006 49.3995 86.4768C49.5995 86.6672 50.4995 87.4291 50.3995 87.6196C50.8662 87.4926 51.3328 87.3974 51.7995 87.3339C51.3995 87.0482 51.0995 86.4768 50.8995 86.0006C50.6328 85.4926 50.3662 85.0164 50.0995 84.572C49.2995 83.3339 48.4995 82.0958 47.7995 80.8577C46.4995 78.6672 45.3995 76.3815 43.3995 74.6672C42.6995 74.0006 41.4995 74.572 41.7995 75.5244C42.0995 76.4768 42.7995 77.2387 43.2995 78.0006C43.9995 78.953 44.5995 79.9053 45.2995 80.7625C46.0995 81.6196 46.6995 82.4768 47.1995 83.4291C47.6995 84.3815 48.3995 85.3339 48.5995 86.3815C49.0662 86.0006 49.5662 85.6514 50.0995 85.3339C49.5995 85.0482 49.3995 84.4768 49.0995 84.0006C48.7995 83.5244 48.4995 83.0482 48.1995 82.4768C47.4995 81.3339 46.7995 80.191 45.9995 79.0482C45.1995 77.8418 44.3995 76.6037 43.5995 75.3339C43.1995 74.8577 42.9995 74.2863 42.5995 73.8101C42.3995 73.4291 41.7995 73.0482 41.7995 72.572C41.6995 71.4291 39.6995 71.4291 39.7995 72.572Z" fill="black"/>
</g>
<g style="mix-blend-mode:multiply">
<path d="M40.9999 33.1436C40.4999 33.0483 39.9999 33.0483 39.5999 33.334C38.9999 33.6198 38.9999 34.3817 39.3999 34.7626C39.6666 35.0801 39.9666 35.3658 40.2999 35.6198C40.4332 35.6833 40.5666 35.7785 40.6999 35.9055C40.7666 35.969 40.8332 36.0325 40.8999 36.0959C40.8999 36.0325 40.8999 36.0325 40.8999 36.0959C41.0332 36.1594 41.1332 36.2229 41.1999 36.2864C41.7999 36.7626 42.1999 37.334 42.7999 37.8102C43.1999 38.1912 43.7999 38.1912 44.1999 37.8102C44.5999 37.4293 44.4999 36.9531 44.1999 36.4769C43.7999 36.0959 43.3999 35.715 42.8999 35.4293C42.7666 35.3023 42.6332 35.1753 42.4999 35.0483C42.4999 34.9848 42.4666 34.9531 42.3999 34.9531C42.2999 34.8579 42.4999 35.0483 42.4999 34.9531C42.4332 34.8896 42.3666 34.8261 42.2999 34.7626C41.6999 33.9055 41.0999 33.1436 39.9999 32.9531C39.5999 32.9531 39.0999 33.334 38.9999 33.715C38.7999 34.4769 38.8999 35.334 39.3999 36.0007C39.5999 36.4769 40.0999 36.8579 40.4999 37.2388C41.1999 38.0959 42.1999 39.1436 43.3999 38.9531C43.6999 38.8579 43.9999 38.5721 44.0999 38.2864C44.4999 36.7626 43.3999 35.1436 41.6999 34.8579C41.1999 34.8579 40.6999 35.0483 40.4999 35.5245C40.1999 36.5721 41.1999 37.6198 41.7999 38.2864C42.5999 39.0483 43.5999 39.9055 44.6999 40.0959C45.3999 40.1912 46.1999 40.0007 46.5999 39.334C46.8999 38.8579 46.6999 38.2864 46.2999 38.0007C45.7999 37.8102 45.1999 37.9055 44.8999 38.3817C44.7999 38.5721 45.0999 38.1912 44.9999 38.2864C45.1999 38.1912 44.7999 38.4769 44.9999 38.2864C44.8999 38.3817 45.2999 38.1912 45.0999 38.2864C44.9999 38.2864 45.0999 38.1912 45.1999 38.2864C45.1999 38.1912 45.0999 38.2864 45.0999 38.2864C44.8999 38.2864 45.2999 38.2864 45.1999 38.2864C45.0666 38.2229 44.9332 38.1912 44.7999 38.1912C44.5999 38.0959 44.9999 38.2864 44.8999 38.1912C44.8332 38.1912 44.7666 38.1594 44.6999 38.0959C44.5666 38.0325 44.4332 37.969 44.2999 37.9055C44.1999 37.8102 44.0999 37.715 43.9999 37.6198C44.1999 37.9055 43.9999 37.715 43.9999 37.6198C43.9332 37.6198 43.8666 37.588 43.7999 37.5245C43.5999 37.334 43.3999 37.1436 43.1999 36.9531C43.0666 36.8261 42.9666 36.6991 42.8999 36.5721C42.8332 36.5721 42.7999 36.5404 42.7999 36.4769C42.7332 36.4134 42.7666 36.4452 42.8999 36.5721C42.7999 36.5721 42.7999 36.4769 42.6999 36.4769C42.6332 36.3499 42.5666 36.2229 42.4999 36.0959C42.4999 36.0959 42.4999 36.0642 42.4999 36.0007C42.4332 36.0007 42.3999 35.969 42.3999 35.9055C42.3999 35.842 42.4332 35.8737 42.4999 36.0007L42.3999 35.8102C42.4999 36.0007 42.3999 36.096 42.3999 35.9055C42.3999 35.8102 42.3999 36.1912 42.3999 36.0007C41.9999 36.2547 41.5999 36.4769 41.1999 36.6674C41.3332 36.7309 41.4666 36.7626 41.5999 36.7626C41.5999 36.7626 41.6332 36.7944 41.6999 36.8579C41.7666 36.8579 41.8332 36.8896 41.8999 36.9531C41.7999 36.9531 41.7999 36.8579 41.8999 36.9531C41.8999 37.0166 41.9332 37.0483 41.9999 37.0483C42.0999 37.2388 41.9999 37.1436 41.9999 37.0483C42.0666 37.1753 42.1332 37.2706 42.1999 37.334C42.1999 37.4293 42.0999 37.1436 42.1999 37.334C42.1999 37.3975 42.1999 37.4293 42.1999 37.4293C42.1999 37.5245 42.1999 37.6198 42.1999 37.5245C42.1999 37.4293 42.1999 37.6198 42.1999 37.6198V37.715C42.1999 37.588 42.1999 37.5563 42.1999 37.6198C42.1999 37.6833 42.1999 37.715 42.1999 37.715C42.3999 37.5245 42.6332 37.334 42.8999 37.1436C42.9666 37.0801 43.0332 37.0483 43.0999 37.0483C43.0332 37.0483 43.0332 37.0483 43.0999 37.0483C43.2999 37.1436 43.1999 37.1436 43.0999 37.0483C42.9999 37.0483 43.1999 37.1436 43.1999 37.1436L43.0999 37.0483C43.0332 37.0483 42.9666 37.0166 42.8999 36.9531C43.0999 37.0483 42.7999 36.8579 42.8999 36.9531C42.8999 36.8896 42.8666 36.8579 42.7999 36.8579C42.4666 36.6039 42.1666 36.2864 41.8999 35.9055C41.7666 35.7785 41.6332 35.6515 41.4999 35.5245C41.4332 35.5245 41.3666 35.4928 41.2999 35.4293C41.2999 35.3658 41.2666 35.334 41.1999 35.334C41.1999 35.334 41.0999 35.1436 41.0999 35.2388C41.1999 35.334 40.9999 35.1436 40.9999 35.1436C40.9999 35.0801 40.9999 35.0166 40.9999 34.9531C40.9999 35.1436 40.9999 34.9531 40.9999 34.8579C40.9332 34.7944 40.8999 34.7309 40.8999 34.6674C40.8999 34.7626 40.8999 34.5721 40.8999 34.6674C40.8999 34.6039 40.8999 34.5404 40.8999 34.4769C40.8999 34.4134 40.8999 34.3499 40.8999 34.2864C40.8999 34.4769 40.8999 34.1912 40.8999 34.1912C40.6332 34.4452 40.3332 34.6674 39.9999 34.8579C39.7999 34.8579 39.7666 34.8579 39.8999 34.8579C39.7666 34.7944 39.7332 34.7944 39.7999 34.8579C39.7999 34.8579 39.8332 34.8579 39.8999 34.8579C39.9666 34.9213 39.9332 34.9213 39.7999 34.8579C39.8999 34.8579 40.1999 35.2388 40.1999 35.2388C40.2666 35.2388 40.2999 35.2706 40.2999 35.334C40.2332 35.2706 40.2332 35.2706 40.2999 35.334C40.3666 35.3975 40.3999 35.461 40.3999 35.5245C40.5332 35.6515 40.6666 35.7785 40.7999 35.9055C40.9999 36.2864 41.2999 36.5721 41.5999 36.7626C41.9999 37.1436 42.3999 37.4293 42.7999 37.8102C43.2666 37.3658 43.7332 36.9213 44.1999 36.4769C43.5999 36.0007 43.1999 35.4293 42.5999 34.9531C42.3999 34.8261 42.1999 34.6991 41.9999 34.5721C42.0999 34.5721 41.8999 34.4769 41.8999 34.4769C41.8332 34.4134 41.7332 34.3499 41.5999 34.2864C41.3332 34.0325 41.0666 33.7467 40.7999 33.4293C40.7332 33.9372 40.6666 34.4452 40.5999 34.9531C40.3999 35.0483 40.5999 34.9531 40.4999 34.9531C40.6999 34.9531 40.3999 34.9531 40.4999 34.9531C40.9999 35.0483 41.5999 34.8579 41.6999 34.2864C41.7999 33.8102 41.5999 33.2388 40.9999 33.1436Z" fill="black"/>
</g>
</g>
</svg>
