<svg width="101" height="100" viewBox="0 0 101 100" fill="none" xmlns="http://www.w3.org/2000/svg">
<mask id="mask0_1008_118" style="mask-type:luminance" maskUnits="userSpaceOnUse" x="4" y="21" width="93" height="70">
<path d="M96.5 21H4.5V91H96.5V21Z" fill="white"/>
</mask>
<g mask="url(#mask0_1008_118)">
<g style="mix-blend-mode:multiply">
<path d="M12.9033 24.3234L13.9649 65.0984L44.3072 66.4984C43.1572 72.7984 39.4418 83.9984 39.1764 90.3859C39.2649 89.1609 47.138 81.6359 48.4649 80.5859C51.561 78.1359 53.861 75.5984 56.2495 72.8859C59.4341 69.2109 69.5187 72.2734 74.3841 72.0984C79.279 71.9234 84.1739 71.7484 89.0687 71.5734C95.438 71.3984 95.9687 69.7359 95.438 63.4359C95.261 60.3734 94.0226 23.2734 94.8187 23.2734L12.9033 24.3234Z" fill="#DC2626"/>
<path d="M12.9033 24.3234L13.9649 65.0984L44.3072 66.4984C43.1572 72.7984 39.4418 83.9984 39.1764 90.3859C39.2649 89.1609 47.138 81.6359 48.4649 80.5859C51.561 78.1359 53.861 75.5984 56.2495 72.8859C59.4341 69.2109 69.5187 72.2734 74.3841 72.0984C79.279 71.9234 84.1739 71.7484 89.0687 71.5734C95.438 71.3984 95.9687 69.7359 95.438 63.4359C95.261 60.3734 94.0226 23.2734 94.8187 23.2734L12.9033 24.3234Z" stroke="#FFB2B2" stroke-width="0.8" stroke-miterlimit="10"/>
</g>
<path d="M25.6424 40.1599C25.5834 40.1016 25.495 40.0724 25.377 40.0724C25.377 40.3641 25.377 40.6849 25.377 41.0349C26.3501 40.7724 27.2347 41.1224 28.2078 41.2099C29.0039 41.2099 29.8886 41.2099 30.7732 41.1224C32.4539 41.0349 34.1347 40.7724 35.9039 40.6849C37.7616 40.5974 39.6193 40.5974 41.477 40.5974C43.3347 40.5099 45.1924 40.5974 47.0501 40.6849C50.5001 40.9474 54.0386 40.7724 57.577 40.4224C59.3463 40.2474 61.027 40.0724 62.7963 40.2474C64.5655 40.5099 66.3347 40.1599 68.0155 39.9849C68.7232 39.8974 68.6347 38.8474 67.927 38.9349C66.0693 39.1099 64.3001 39.2849 62.3539 39.1099C60.6732 38.9349 58.9924 39.1974 57.3116 39.3724C53.5963 39.7224 49.8809 39.8974 46.1655 39.5474C44.4847 39.4599 42.8039 39.4599 41.1232 39.4599C39.177 39.5474 37.3193 39.4599 35.4616 39.6349C33.6039 39.8099 31.8347 40.0724 29.977 40.1599C28.2963 40.1599 26.6155 39.5474 25.0232 39.9849C24.4924 40.1599 24.4924 40.7724 24.9347 41.0349C24.9937 41.0349 25.0822 41.0641 25.2001 41.1224C25.8193 41.3849 26.2616 40.4224 25.6424 40.1599Z" fill="#272726"/>
<path d="M26.4381 49.5227C26.4381 49.5227 26.4086 49.4935 26.3496 49.4352C26.2317 49.6102 26.0842 49.756 25.9073 49.8727C26.4381 49.8727 26.9688 50.0477 27.4996 49.9602C28.2073 49.9602 28.8265 49.8727 29.5342 49.8727C31.1265 49.7852 32.6304 49.6102 34.1342 49.6102C35.6381 49.6102 37.0534 49.7852 38.4688 49.7852C40.0611 49.7852 41.565 49.8727 43.1573 49.7852C46.2534 49.6977 49.2611 49.6102 52.3573 49.4352C55.365 49.3477 58.3727 49.7852 61.3804 49.5227C62.9727 49.4352 64.565 49.5227 66.0688 49.4352C66.9534 49.3769 67.8381 49.2894 68.7227 49.1727C69.4304 49.0852 70.1381 49.2602 70.8458 49.2602C71.5534 49.2602 71.465 48.2102 70.7573 48.2102C70.1381 48.2102 69.6073 48.0352 69.0765 48.0352C68.3099 48.1519 67.5727 48.2394 66.865 48.2977C65.3611 48.3852 63.9458 48.2977 62.4419 48.3852C60.9381 48.4727 59.4342 48.5602 57.8419 48.4727C56.4265 48.3852 55.0111 48.2977 53.5073 48.2977C47.4034 48.5602 41.2111 48.9977 35.0188 48.5602C33.4265 48.4727 31.8342 48.7352 30.2419 48.7352C29.4458 48.8227 28.6496 48.8227 27.8534 48.9102C27.1458 48.9102 26.5265 48.8227 25.8188 48.8227C25.5534 48.8227 25.3765 48.9977 25.2881 49.2602C25.2881 49.5227 25.2881 49.6102 25.3765 49.8727C25.6419 50.5727 26.7034 50.1352 26.4381 49.5227Z" fill="#272726"/>
<path d="M27.2342 39.8994C27.2342 39.8411 27.2047 39.7827 27.1458 39.7244C27.0278 40.0161 26.9099 40.3077 26.7919 40.5994C27.3227 40.5994 27.9419 40.7744 28.4727 40.7744C29.1804 40.8619 29.8881 40.6869 30.5958 40.6869C31.9227 40.6869 33.2496 40.9494 34.5765 40.8619C37.4073 40.7744 40.2381 40.6869 43.0688 40.5119C44.4842 40.3369 45.8996 40.5119 47.315 40.4244C48.7304 40.4244 50.2342 40.3369 51.7381 40.2494C54.6573 40.1619 57.5765 39.7244 60.4958 39.5494C61.9111 39.4619 63.3266 39.7244 64.742 39.8119C66.3343 39.8119 67.8381 39.4619 69.3419 39.6369C70.0496 39.7244 70.2266 38.6744 69.5189 38.5869C68.2805 38.4994 67.1305 38.6744 65.892 38.7619C64.5651 38.7619 63.3265 38.5869 61.9996 38.4119C60.5842 38.3244 59.0804 38.5869 57.7534 38.7619C56.2201 38.8786 54.6868 38.9952 53.1534 39.1119C50.3227 39.3744 47.4034 39.3744 44.4842 39.3744C43.0688 39.3744 41.6534 39.5494 40.2381 39.5494C38.7342 39.6369 37.3188 39.6369 35.9034 39.7244C35.0188 39.8119 34.2227 39.8119 33.4265 39.8119C32.6304 39.8119 31.9227 39.6369 31.1265 39.6369C30.4188 39.5494 29.6227 39.7244 28.915 39.7244C28.1188 39.7244 27.4111 39.5494 26.7034 39.5494C26.2611 39.5494 26.0842 40.0744 26.2611 40.3369C26.3201 40.3952 26.3496 40.4536 26.3496 40.5119C26.7919 41.1244 27.6765 40.5119 27.2342 39.8994Z" fill="#272726"/>
<path d="M25.7304 49.6109C26.2611 50.4859 28.0304 50.1359 28.915 50.1359C29.7111 50.0484 30.5073 50.1359 31.3034 50.1359C32.0996 50.2234 32.9842 49.9609 33.8688 49.8734C35.6381 49.7859 37.3188 50.0484 39.0881 50.1359C40.9752 50.1359 42.8329 50.1067 44.6611 50.0484C48.2881 49.8734 51.8265 48.9984 55.5419 49.0859C57.3111 49.0859 59.0804 49.1734 60.9381 49.0859C62.7663 48.9109 64.624 48.7359 66.5111 48.5609C67.5137 48.5026 68.5457 48.4151 69.6073 48.2984C70.0791 48.2401 70.5509 48.2109 71.0227 48.2109C71.465 48.2109 71.9073 48.3859 72.2611 48.3859C72.3496 48.3859 73.0573 48.4734 72.0842 48.2109C71.9073 48.1234 71.465 48.2109 71.1996 48.2109C70.7573 48.2109 70.315 48.1234 69.8727 48.0359C68.9881 47.8609 67.9265 47.8609 67.0419 47.8609C66.3342 47.8609 66.4227 48.9109 67.1304 48.9109C68.1034 48.9984 69.0765 48.9984 70.0496 49.1734C70.6688 49.2609 71.5534 49.4359 72.1727 49.2609C73.0573 49.0859 74.2073 47.9484 72.9688 47.4234C71.6419 46.8984 69.7842 47.1609 68.4573 47.3359C66.4522 47.5109 64.447 47.6859 62.4419 47.8609C60.4957 48.0359 58.5496 48.1234 56.6034 48.0359C54.6573 47.9484 52.7111 48.1234 50.765 48.2984C46.6958 48.6484 42.715 49.2609 38.6457 48.9984C36.6111 48.9109 34.4881 48.6484 32.4534 48.9984C31.4804 49.1734 30.4188 48.9984 29.4458 48.9984C28.915 48.9984 28.3842 48.9984 27.8534 48.9984C27.6765 48.9984 26.7034 49.1734 26.615 48.9984C26.2611 48.3859 25.3765 48.9984 25.7304 49.6109Z" fill="#272726"/>
<path d="M70.1382 38.5859C69.7843 38.6734 69.342 38.7609 68.9882 38.8484C68.4574 38.9359 67.8382 38.9359 67.3074 38.9359C66.1574 39.1109 64.9189 39.0234 63.7689 39.1109C63.0612 39.1984 63.1497 40.2484 63.8574 40.2484C65.0074 40.1609 66.2459 40.1609 67.3959 40.0734C67.9266 39.9859 68.3689 39.9859 68.8997 39.9859C69.342 39.8984 69.7843 39.7234 70.2266 39.7234C70.9343 39.6359 70.8459 38.5859 70.1382 38.5859Z" fill="#272726"/>
<path d="M27.4119 41.0349C27.353 40.9766 27.2645 40.9474 27.1466 40.9474C27.1466 41.2391 27.1466 41.5599 27.1466 41.9099C28.1196 41.6474 29.0042 41.9974 29.9773 42.0849C30.7735 42.0849 31.6581 42.0849 32.5427 41.9974C34.2235 41.9099 35.9042 41.6474 37.6735 41.5599C39.5312 41.4724 41.3889 41.4724 43.2466 41.4724C45.1042 41.3849 46.9619 41.4724 48.8196 41.5599C52.2696 41.8224 55.8081 41.6474 59.3465 41.2974C61.1158 41.1224 62.7966 40.9474 64.5658 41.1224C66.335 41.3849 68.1042 41.0349 69.785 40.8599C70.4927 40.7724 70.4042 39.7224 69.6965 39.8099C67.8389 39.9849 66.0696 40.1599 64.1235 39.9849C62.4427 39.8099 60.7619 40.0724 59.0812 40.2474C55.3658 40.5974 51.6504 40.7724 47.935 40.4224C46.2542 40.3349 44.5735 40.3349 42.8927 40.3349C40.9466 40.4224 39.0889 40.3349 37.2312 40.5099C35.3735 40.6849 33.6042 40.9474 31.7466 41.0349C30.0658 41.0349 28.385 40.4224 26.7927 40.8599C26.2619 41.0349 26.2619 41.6474 26.7042 41.9099C26.7632 41.9099 26.8517 41.9391 26.9696 41.9974C27.5889 42.2599 28.0312 41.2974 27.4119 41.0349Z" fill="#272726"/>
<path d="M28.2076 50.3977C28.2076 50.3977 28.1781 50.3685 28.1191 50.3102C28.0012 50.4852 27.8537 50.631 27.6768 50.7477C28.2076 50.7477 28.7384 50.9227 29.2691 50.8352C29.9768 50.8352 30.5961 50.7477 31.3037 50.7477C32.8961 50.6602 34.3999 50.4852 35.9037 50.4852C37.4076 50.4852 38.823 50.6602 40.2384 50.6602C41.8307 50.6602 43.3345 50.7477 44.9268 50.6602C48.023 50.5727 51.0307 50.4852 54.1268 50.3102C57.1345 50.2227 60.1422 50.6602 63.1499 50.3977C64.7422 50.3102 66.3345 50.3977 67.8384 50.3102C68.723 50.2519 69.6076 50.1644 70.4922 50.0477C71.1999 49.9602 71.9076 50.1352 72.6153 50.1352C73.323 50.1352 73.2345 49.0852 72.5268 49.0852C71.9076 49.0852 71.3768 48.9102 70.8461 48.9102C70.0794 49.0269 69.3422 49.1144 68.6345 49.1727C67.1307 49.2602 65.7153 49.1727 64.2114 49.2602C62.7076 49.3477 61.2037 49.4352 59.6114 49.3477C58.1961 49.2602 56.7807 49.1727 55.2768 49.1727C49.173 49.4352 42.9807 49.8727 36.7884 49.4352C35.1961 49.3477 33.6037 49.6102 32.0114 49.6102C31.2153 49.6977 30.4191 49.6977 29.623 49.7852C28.9153 49.7852 28.2961 49.6977 27.5884 49.6977C27.323 49.6977 27.1461 49.8727 27.0576 50.1352C27.0576 50.3977 27.0576 50.4852 27.1461 50.7477C27.4114 51.4477 28.473 51.0102 28.2076 50.3977Z" fill="#272726"/>
<path d="M29.0037 40.7744C29.0037 40.7161 28.9743 40.6577 28.9153 40.5994C28.7973 40.8911 28.6794 41.1827 28.5614 41.4744C29.0922 41.4744 29.7114 41.6494 30.2422 41.6494C30.9499 41.7369 31.6576 41.5619 32.3653 41.5619C33.6922 41.5619 35.0191 41.8244 36.346 41.7369C39.1768 41.6494 42.0076 41.5619 44.8384 41.3869C46.2537 41.2119 47.6691 41.3869 49.0845 41.2994C50.4999 41.2994 52.0037 41.2119 53.5076 41.1244C56.4268 41.0369 59.3461 40.5994 62.2653 40.4244C63.6807 40.3369 65.096 40.5994 66.5114 40.6869C68.1037 40.6869 69.6076 40.3369 71.1114 40.5119C71.8191 40.5994 71.996 39.5494 71.2884 39.4619C70.0499 39.3744 68.8999 39.5494 67.6614 39.6369C66.3345 39.6369 65.096 39.4619 63.7691 39.2869C62.3537 39.1994 60.8499 39.4619 59.523 39.6369C57.9896 39.7536 56.4563 39.8702 54.923 39.9869C52.0922 40.2494 49.173 40.2494 46.2537 40.2494C44.8384 40.2494 43.423 40.4244 42.0076 40.4244C40.5037 40.5119 39.0884 40.5119 37.673 40.5994C36.7884 40.6869 35.9922 40.6869 35.1961 40.6869C34.3999 40.6869 33.6922 40.5119 32.896 40.5119C32.1884 40.4244 31.3922 40.5994 30.6845 40.5994C29.8884 40.5994 29.1807 40.4244 28.473 40.4244C28.0307 40.4244 27.8537 40.9494 28.0307 41.2119C28.0896 41.2702 28.1191 41.3286 28.1191 41.3869C28.5614 41.9994 29.446 41.3869 29.0037 40.7744Z" fill="#272726"/>
<path d="M27.4999 50.4859C28.0307 51.3609 29.7999 51.0109 30.6845 51.0109C31.4807 50.9234 32.2768 51.0109 33.073 51.0109C33.8691 51.0984 34.7537 50.8359 35.6384 50.7484C37.4076 50.6609 39.0884 50.9234 40.8576 51.0109C42.7448 51.0109 44.6025 50.9817 46.4307 50.9234C50.0576 50.7484 53.5961 49.8734 57.3114 49.9609C59.0807 49.9609 60.8499 50.0484 62.7076 49.9609C64.5358 49.7859 66.3935 49.6109 68.2807 49.4359C69.2832 49.3776 70.3153 49.2901 71.3768 49.1734C71.8486 49.1151 72.3204 49.0859 72.7922 49.0859C73.2345 49.0859 73.6768 49.2609 74.0307 49.2609C74.1191 49.2609 74.8268 49.3484 73.8537 49.0859C73.6768 48.9984 73.2345 49.0859 72.9691 49.0859C72.5268 49.0859 72.0845 48.9984 71.6422 48.9109C70.7576 48.7359 69.696 48.7359 68.8114 48.7359C68.1037 48.7359 68.1922 49.7859 68.8999 49.7859C69.873 49.8734 70.8461 49.8734 71.8191 50.0484C72.4384 50.1359 73.323 50.3109 73.9422 50.1359C74.8268 49.9609 75.9768 48.8234 74.7384 48.2984C73.4114 47.7734 71.5537 48.0359 70.2268 48.2109C68.2217 48.3859 66.2166 48.5609 64.2114 48.7359C62.2653 48.9109 60.3191 48.9984 58.373 48.9109C56.4268 48.8234 54.4807 48.9984 52.5345 49.1734C48.4653 49.5234 44.4845 50.1359 40.4153 49.8734C38.3807 49.7859 36.2576 49.5234 34.223 49.8734C33.2499 50.0484 32.1884 49.8734 31.2153 49.8734C30.6845 49.8734 30.1537 49.8734 29.623 49.8734C29.4461 49.8734 28.473 50.0484 28.3845 49.8734C28.0307 49.2609 27.1461 49.8734 27.4999 50.4859Z" fill="#272726"/>
<path d="M71.9076 39.4609C71.5537 39.5484 71.1114 39.6359 70.7576 39.7234C70.2268 39.8109 69.6076 39.8109 69.0768 39.8109C67.9268 39.9859 66.6884 39.8984 65.5384 39.9859C64.8307 40.0734 64.9191 41.1234 65.6268 41.1234C66.7768 41.0359 68.0153 41.0359 69.1653 40.9484C69.6961 40.8609 70.1384 40.8609 70.6691 40.8609C71.1114 40.7734 71.5537 40.5984 71.9961 40.5984C72.7037 40.5109 72.6153 39.4609 71.9076 39.4609Z" fill="#272726"/>
<g style="mix-blend-mode:multiply">
<path d="M5.47316 25.2008C5.47316 30.4508 5.29624 35.7883 5.47316 41.1258C5.65008 43.6633 5.82701 46.2009 6.00393 48.6509C6.09239 51.3634 6.00393 53.9883 6.00393 56.7008C6.00393 57.9258 6.00393 59.1509 6.09239 60.3759C6.26931 61.6884 6.44624 62.9134 6.44624 64.2259C6.5347 65.6259 6.5347 66.9384 8.12701 67.2009C9.10008 67.4634 10.2501 67.3759 11.2232 67.3759C12.5796 67.3175 13.936 67.2884 15.2924 67.2884C17.8578 67.2884 20.4232 67.1133 22.9886 67.4633C24.227 67.6383 25.4655 67.8134 26.704 67.8134C28.1193 67.8134 29.5347 67.6384 30.8616 67.7259C32.1886 67.7259 33.3386 68.1634 34.6655 68.2509C35.2847 68.3384 35.9924 68.3384 36.7001 68.2509C37.8501 68.2509 37.8501 66.5009 36.7001 66.5009C35.5501 66.5009 35.5501 68.2509 36.7001 68.2509C36.7001 67.6675 36.7001 67.0842 36.7001 66.5009C36.1693 66.5592 35.6091 66.5592 35.0193 66.5009C34.0463 66.5009 33.1616 66.1509 32.1886 66.0634C29.8886 65.8009 27.677 66.1509 25.4655 65.9759C24.3155 65.8884 23.1655 65.7134 22.0155 65.6259C20.8655 65.5384 19.627 65.5384 18.3886 65.5384C16.0001 65.5384 13.6116 65.5384 11.2232 65.5384C10.6334 65.5967 10.0142 65.6259 9.36547 65.6259C9.18854 65.6259 8.48085 65.6259 8.30393 65.4509C8.12701 65.1884 8.21547 64.2259 8.21547 63.8759C8.12701 61.6009 7.77316 59.3259 7.77316 57.0509C7.77316 54.5134 7.86162 51.8884 7.77316 49.3509C7.6847 46.9884 7.50778 44.5384 7.33085 42.1759C6.97701 36.4883 7.24239 30.8008 7.24239 25.2008C7.24239 24.0633 5.47316 24.0633 5.47316 25.2008Z" fill="black"/>
</g>
<g style="mix-blend-mode:multiply">
<path d="M38.0267 68.8634C38.0267 68.7467 38.0267 68.63 38.0267 68.5133C37.437 68.5133 36.8472 68.5133 36.2575 68.5133C36.2575 70.1758 36.4344 71.7508 36.0806 73.3258C35.7267 74.9008 35.196 76.3883 34.9306 77.9633C34.7536 79.4508 34.5767 80.9384 34.3113 82.5134C33.9575 83.9134 33.6036 85.4884 33.869 86.9759C33.869 87.5009 34.5767 88.2009 35.196 87.7634C38.2036 85.4884 40.5921 82.6008 42.9806 79.7133C45.7229 76.5633 48.7306 73.5008 51.7383 70.5258C52.5344 69.6508 51.296 68.4258 50.4113 69.2133C47.4921 72.1883 44.6613 75.1634 41.919 78.3134C39.5306 81.0259 37.2306 84.0009 34.3113 86.1884C34.7242 86.48 35.1665 86.7425 35.6383 86.9759C35.3729 85.4009 35.7267 84.0009 36.0806 82.5134C36.4344 80.9384 36.5229 79.3634 36.7883 77.7884C37.0536 76.3009 37.5844 74.8133 37.8498 73.3258C38.2036 71.7508 38.0267 70.1758 38.0267 68.5133C38.0267 67.3758 36.2575 67.3758 36.2575 68.5133C36.2575 68.63 36.2575 68.7467 36.2575 68.8634C36.2575 70.0009 38.0267 70.0009 38.0267 68.8634Z" fill="black"/>
</g>
<g style="mix-blend-mode:multiply">
<path d="M51.1193 70.2618C54.3924 70.2618 57.6655 69.8243 60.9386 69.6493C64.2116 69.3868 67.5732 69.2993 70.8463 69.1243C74.0309 68.9493 77.127 68.6868 80.3116 68.1618C83.5847 67.7243 86.9463 67.8118 90.3078 67.8118C91.4578 67.8118 91.4578 66.0618 90.3078 66.0618C87.0347 66.0618 83.7616 65.9743 80.4886 66.4118C77.2155 66.8493 74.0309 67.1993 70.8463 67.3743C67.5732 67.5493 64.2116 67.6368 60.9386 67.8993C57.6655 68.0743 54.3924 68.5118 51.1193 68.5118C49.9693 68.5118 49.9693 70.2618 51.1193 70.2618Z" fill="black"/>
</g>
<g style="mix-blend-mode:multiply">
<path d="M89.4229 65.4484C89.4229 65.5651 89.4229 65.6817 89.4229 65.7984C90.0126 65.7984 90.6023 65.7984 91.192 65.7984C91.192 62.2984 91.7228 58.8859 91.8112 55.3859C91.8997 51.8859 91.8112 48.2984 91.7228 44.7984C91.6343 37.6234 91.7228 30.4484 91.7228 23.3609C91.7228 22.2234 89.9535 22.2234 89.9535 23.3609C89.9535 23.7692 89.9535 24.2067 89.9535 24.6734C89.9535 25.8109 91.7228 25.8109 91.7228 24.6734C91.7228 24.2067 91.7228 23.7692 91.7228 23.3609C91.7228 22.2234 89.9535 22.2234 89.9535 23.3609C89.9535 30.4484 89.8651 37.6234 89.9535 44.7984C90.042 48.2984 90.1305 51.8859 90.042 55.3859C89.9535 58.8859 89.4229 62.2984 89.4229 65.7984C89.4229 66.9359 91.192 66.9359 91.192 65.7984C91.192 65.6817 91.192 65.5651 91.192 65.4484C91.192 64.3109 89.4229 64.3109 89.4229 65.4484Z" fill="black"/>
</g>
<g style="mix-blend-mode:multiply">
<path d="M6.35762 24.5853C11.7537 25.0228 17.1499 24.6728 22.5461 24.3228C28.0307 23.8853 33.4268 23.5353 38.823 23.6228C49.9691 23.6228 61.0268 23.6228 72.0845 23.6228C75.0922 23.6228 78.1294 23.6228 81.1961 23.6228C82.6114 23.6228 84.0268 23.6228 85.4422 23.5353C86.5922 23.5353 87.8307 23.2728 88.8922 23.6228C88.7743 23.1561 88.6563 22.6603 88.5384 22.1353C88.4204 22.3103 88.3025 22.4561 88.1845 22.5728C87.4768 23.4478 88.7153 24.6728 89.423 23.7978C89.5409 23.6811 89.6589 23.5645 89.7768 23.4478C90.2191 22.8353 90.0422 22.1353 89.423 21.9603C88.4499 21.6103 87.3884 21.6978 86.4153 21.7853C85.2653 21.8728 84.0268 21.7853 82.8768 21.7853C80.105 21.7853 77.3332 21.7853 74.5614 21.7853C69.0178 21.7853 63.4743 21.8145 57.9307 21.8728C46.873 21.8728 35.7268 21.5228 24.6691 22.3978C18.5653 22.8353 12.4614 23.3603 6.35762 22.8353C5.20762 22.7478 5.20762 24.4978 6.35762 24.5853Z" fill="black"/>
</g>
<g style="mix-blend-mode:multiply">
<path d="M7.59624 67.2863C12.3732 68.1613 17.1501 67.9863 22.0155 67.8988C27.0578 67.7238 32.1001 67.8113 37.1424 67.8113C38.2924 67.8113 38.2924 66.0613 37.1424 66.0613C32.1886 66.0613 27.2347 65.9738 22.2809 66.1488C17.5924 66.2363 12.8155 66.4988 8.12702 65.5363C6.97702 65.3613 6.5347 67.0238 7.59624 67.2863Z" fill="black"/>
</g>
<g style="mix-blend-mode:multiply">
<path d="M38.5573 67.9008C38.5573 67.8425 38.5573 67.755 38.5573 67.6383C37.9675 67.6383 37.3778 67.6383 36.7881 67.6383C36.7881 70.8758 36.0804 74.0258 35.1073 77.0883C34.5765 78.7508 34.2227 80.3258 33.7804 81.9883C33.4265 83.6508 32.7188 85.1383 32.365 86.8008C32.0996 87.9383 33.8688 88.3759 34.0458 87.3259C34.3996 85.5759 35.1073 84.0008 35.5496 82.2508C35.9919 80.5883 36.4342 78.9259 36.8765 77.2634C37.9381 74.1134 38.6458 70.9633 38.5573 67.6383C38.5573 66.5008 36.7881 66.5008 36.7881 67.6383C36.7881 67.755 36.7881 67.8425 36.7881 67.9008C36.7881 69.0383 38.5573 69.0383 38.5573 67.9008Z" fill="black"/>
</g>
<g style="mix-blend-mode:multiply">
<path d="M88.8926 22.2242C88.9811 25.8117 89.5118 29.3992 89.6888 32.9867C89.9541 36.6617 90.0426 40.3367 89.9541 44.0992C89.9541 47.7742 89.9541 51.4492 89.9541 55.2117C89.9541 57.0783 89.9541 58.945 89.9541 60.8117C89.9541 61.5992 89.9541 62.4742 89.9541 63.3492C89.9541 64.0492 90.0426 64.8367 89.8657 65.5367C90.3375 65.42 90.8388 65.3033 91.3695 65.1867C91.2516 65.07 91.1041 64.9533 90.9272 64.8367C90.0426 64.1367 88.8041 65.3617 89.6888 66.0617C89.8067 66.1783 89.9541 66.295 90.1311 66.4117C90.5734 66.7617 91.3695 66.6742 91.5464 65.9742C91.9003 64.9242 91.7234 63.7867 91.7234 62.6492C91.6349 61.1617 91.7234 59.6742 91.7234 58.1867C91.7234 55.27 91.7234 52.3533 91.7234 49.4367C91.8118 43.5742 91.9003 37.7992 91.458 31.9367C91.1926 28.6992 90.7503 25.4617 90.7503 22.2242C90.6618 21.0867 88.8926 21.0867 88.8926 22.2242Z" fill="black"/>
</g>
<g style="mix-blend-mode:multiply">
<path d="M5.03073 24.15C5.03073 37.3625 5.11919 50.4875 5.03073 63.6125C5.03073 64.575 4.58842 65.8875 5.38458 66.5875C6.44612 67.375 7.59612 66.5 8.56919 66.325C9.71919 66.0625 9.27689 64.3125 8.12689 64.575C7.77304 64.6625 7.41919 64.8375 7.06535 65.0125C6.97689 65.0125 6.79996 65.1 6.7115 65.1C6.7115 65.1 6.68201 65.1292 6.62304 65.1875C6.44612 65.1292 6.41663 65.1583 6.53458 65.275C6.88842 65.1 6.53458 65.5375 6.7115 65.275C6.7115 65.1875 6.7115 64.925 6.7115 64.8375C6.77048 63.6708 6.79996 62.5042 6.79996 61.3375C6.79996 58.3042 6.79996 55.2708 6.79996 52.2375C6.79996 46.3458 6.79996 40.425 6.79996 34.475C6.79996 31.0333 6.79996 27.5917 6.79996 24.15C6.79996 23.0125 5.03073 23.0125 5.03073 24.15Z" fill="black"/>
</g>
<g style="mix-blend-mode:multiply">
<path d="M50.0578 69.7359C56.9578 69.7359 63.8283 69.7359 70.6693 69.7359C74.0309 69.7359 77.3924 69.9109 80.7539 69.8234C82.2578 69.7359 83.6732 69.2109 85.177 69.2109C85.8847 69.2984 86.5039 69.3859 87.2116 69.2984C87.9193 69.1234 88.5386 68.7734 89.3347 68.7734C90.4847 68.7734 90.4847 67.0234 89.3347 67.0234C88.5386 67.0234 88.0078 67.2859 87.3001 67.4609C86.5924 67.6359 85.8847 67.5484 85.177 67.4609C83.6732 67.3734 82.3463 67.9859 80.9309 68.0734C79.2501 68.1609 77.4809 67.9859 75.8001 67.9859C74.0898 67.9859 72.3796 67.9859 70.6693 67.9859C63.8283 67.9859 56.9578 67.9859 50.0578 67.9859C48.9078 67.9859 48.9078 69.7359 50.0578 69.7359Z" fill="black"/>
</g>
<g style="mix-blend-mode:multiply">
<path d="M36.7887 86.7126C39.1771 84.0876 40.7694 80.8501 43.0694 78.1376C44.3079 76.8251 45.6348 75.6001 46.9617 74.2876C48.2002 72.8876 49.7925 71.8376 50.854 70.3501C51.5617 69.3876 49.9694 68.5126 49.3502 69.3876C48.8194 70.1751 48.1117 70.7001 47.404 71.3126C46.6964 71.9251 46.0771 72.5376 45.4579 73.2376C44.2194 74.5501 42.804 75.7751 41.654 77.0876C39.4425 79.7126 37.8502 82.8626 35.5502 85.4876C34.8425 86.2751 36.081 87.5876 36.7887 86.7126Z" fill="black"/>
</g>
<g style="mix-blend-mode:multiply">
<path d="M6.88887 25.0227C9.54272 25.1102 12.1966 24.4102 14.8504 24.1477C17.5632 23.7977 20.276 23.6227 22.9889 23.6227C28.6504 23.5352 34.2235 23.6227 39.885 23.6227C45.4876 23.5644 51.0901 23.5644 56.6927 23.6227C59.435 23.6227 62.1773 23.4477 64.9196 23.6227C66.0696 23.7102 67.2196 23.8852 68.3696 24.0602C69.785 24.1477 71.2004 24.0602 72.6158 24.0602C75.6235 24.0602 78.6312 24.1477 81.7273 24.0602C83.9389 23.9727 86.6812 23.3602 88.7158 24.4977C88.8927 23.9144 89.0401 23.3602 89.1581 22.8352C88.8632 22.8352 88.5978 22.8352 88.3619 22.8352C87.2119 22.8352 87.2119 24.5852 88.3619 24.5852C88.5978 24.5852 88.8632 24.5852 89.1581 24.5852C90.0427 24.6727 90.3966 23.3602 89.6004 22.9227C87.6542 21.9602 85.3542 22.0477 83.2312 22.2227C80.7542 22.3977 78.1889 22.3102 75.7119 22.3102C73.0581 22.3102 70.4042 22.4852 67.7504 22.2227C66.5119 22.0477 65.2735 21.8727 63.9466 21.7852C62.4427 21.7852 60.9389 21.8727 59.435 21.8727C48.1119 21.8144 36.7889 21.7852 25.4658 21.7852C22.3696 21.7852 19.2735 21.8727 16.1773 22.2227C13.0812 22.4852 9.98503 23.3602 6.88887 23.2727C5.73887 23.2727 5.73887 25.0227 6.88887 25.0227Z" fill="black"/>
</g>
</g>
</svg>
