<svg id="SvgjsSvg1076" width="288" height="288" xmlns="http://www.w3.org/2000/svg" version="1.1" xmlns:xlink="http://www.w3.org/1999/xlink" xmlns:svgjs="http://svgjs.com/svgjs"><defs id="SvgjsDefs1077"></defs><g id="SvgjsG1078"><svg xmlns="http://www.w3.org/2000/svg" viewBox="0 0 66 66" width="288" height="288"><path d="M41.6 62.1c0 1.6 1.3 2.9 2.9 2.9 1.6 0 2.9-1.3 2.9-2.9V48.6c-2-.2-3.9-.7-5.7-1.4v14.9zm9.9 0c0 1.6 1.3 2.9 2.9 2.9 1.6 0 2.9-1.3 2.9-2.9V47.2c-1.9.7-3.8 1.2-5.7 1.4v13.5zm6.2-45.9c-.5-.7-.7-1.1-1.4-1.3-4-2.1-7.9-2.3-11.8-.9l10.8 12.1c-1 .1-2.3.2-3.8.1h-.1c-.6 0-1.2.2-1.6.5-.1-.1-6.8-12.1-6.8-12-.3.1-.6.3-.9.5-1.2.7-6.3 9-7 19.8-.1 1.1.7 2 1.8 2h.1c1 0 1.8-.8 1.9-1.8.3-4.4 1.3-8.8 3.2-12.7v4l-3.6 18.2c6.9 4.1 14.9 4.2 21.8 0l-2.5-12.9c.5-.4 1-.9 1.1-1.4 1.3-.5 2.2-1.3 2.8-2.4 1.7-3.2-.8-7.4-4-11.8zm-1 5.5c.4.6.7 1.2 1 1.8.7 1.3 1.2 2.6.2 3.2-.1-.1-.5-.4-1.1-.5v-4.5zm-.3 10.1c-1.4.2-3 .3-5 .2-1.5 0-2.7-1.3-2.6-2.7 0-.9.5-1.7 1.3-2.2.4-.3.9-.4 1.5-.4 4.1.1 5.1-.8 6.4.6.4.4.7.9.8 1.5.1 1.4-.9 2.8-2.4 3zm-7-19.5c3.1 0 5.7-2.5 5.7-5.7 0-3.1-2.5-5.7-5.7-5.7-3.1 0-5.7 2.5-5.7 5.7.1 3.2 2.6 5.7 5.7 5.7zm-32.3 1.5c3.2 0 5.9-2.6 5.9-5.9C23 4.6 20.4 2 17.1 2c-3.3 0-5.9 2.6-5.9 5.9 0 3.2 2.6 5.9 5.9 5.9z" fill="#000000" class="svgShape color000000-0 selectable"></path><path d="M35.5 24.9c-.1-1.1-1.1-1.8-2.1-1.7-4.5.5-7-6.8-7.6-7.3v-.1c-1.5-1.1-3-1.9-4.5-2.5-1.2.9-2.6 1.5-4.2 1.5-1.7 0-3.2-.6-4.4-1.6-2.1.8-4.2 2.4-4.6 2.8-3.1 3.6-5.7 9.8-3.6 14.3 3 6.5 15.4 7.1 17 6.7.8-.2 1.4-1 1.4-1.8 0-1.1-.9-1.9-1.9-2-4.1-.1-11.3-.7-13-4.5-1-2-.1-4.7.9-6.7l.6 7.4c1.7 1.9 5.5 2.9 11.6 3 1.3 0 2.4 1 2.7 2.2h.7l.9-12c2.1 2.8 5 4.8 8.5 4.4 1-.1 1.7-1.1 1.6-2.1z" fill="#dc2626" class="svgShape color000000-1 selectable"></path><path d="M23.6 41.7c.4-.3.2-.5.5-4.3h-.3c-1.2.2-.6 1.7-.6 1.9 0 .3 0 .6-.1.8-.2.4-.6.8-1.1.9-.8.1-1.5-.4-1.7-1.1-.1-.7-.3-1.4-.2-1.8-4.1-.1-7.6-.7-10.2-1.8l.4 5c0 .2.2.4.4.5.1.5 1.1 4.2 1.7 6.5l-1.8 13.2c-.2 1.6.9 3 2.5 3.2 1.6.2 3-.9 3.2-2.5l1.9-13.8c.1-.4 0-.8-.1-1.1l-1.5-5.5h1v.1l1.7 6.3-1.8 13.2c-.2 1.6.9 3 2.5 3.2 1.5.2 3-.8 3.2-2.5l1.9-13.8c0-.4 0-.8-.1-1.1l-1.4-5.5z" fill="#000000" class="svgShape color000000-2 selectable"></path><path d="M21.2 38.1c0 .5.1.9.2 1.6 0 .3.3.4.6.4s.4-.3.4-.6c-.1-.7-.3-1.1-.1-1.7-.4.2-.8.3-1.1.3zm4.4-2.1c-.6-.4-1.3-.5-1.8-.5 0 .4-.1.7-.3 1 .2-.1.9-.2 1.6.2 1.2.8.5.6 5.4 26.2.1.2.2.4.6.4.3 0 .4-.3.4-.6-5.1-25.6-4.1-25.5-5.9-26.7z" fill="#000000" class="svgShape color000000-3 selectable"></path></svg></g></svg>