<svg width="682" height="682" viewBox="0 0 682 682" fill="none" xmlns="http://www.w3.org/2000/svg">
<g clip-path="url(#clip0_1020_7)">
<path d="M170.837 361.383H140.282C132.267 361.383 125.031 366.155 121.86 373.505L37.2754 570.458L238.153 467.862C214.106 434.589 190.314 397.889 170.837 361.383Z" fill="black"/>
<path d="M559.468 373.505C556.302 366.155 549.061 361.383 541.051 361.383H510.496C473.714 430.31 420.126 501.541 386.036 540.73C362.062 568.228 319.24 568.197 295.302 540.73C292.854 537.918 280.072 523.118 262.466 500.361L226.25 518.866L363.242 655.594L622.818 521.024L559.468 373.505Z" fill="black"/>
<path d="M12.5639 628.015L1.63735 653.46C-4.01825 666.627 5.67112 681.333 20.0544 681.333H314.213C316.053 679.966 316.074 680.049 325.951 674.929L188.756 538.02L12.5639 628.015Z" fill="black"/>
<path d="M679.695 653.46L638.651 557.887L400.533 681.333H661.278C675.63 681.333 685.361 666.653 679.695 653.46Z" fill="black"/>
<path d="M360.705 180.079C360.705 169.049 351.712 160.082 340.666 160.082C329.615 160.082 320.627 169.049 320.627 180.079C320.627 191.105 329.615 200.077 340.666 200.077C351.712 200.077 360.705 191.105 360.705 180.079Z" fill="#DD2A2A"/>
<path d="M355.789 513.153C362.536 505.407 521.012 322.089 521.012 196.075C521.012 -63.7705 160.322 -66.9414 160.322 196.075C160.322 322.089 318.799 505.407 325.546 513.153C333.535 522.317 347.815 522.307 355.789 513.153ZM280.551 180.08C280.551 146.999 307.519 120.088 340.667 120.088C373.811 120.088 400.779 146.999 400.779 180.08C400.779 213.156 373.811 240.067 340.667 240.067C307.519 240.067 280.551 213.156 280.551 180.08Z" fill="#DD2A2A"/>
</g>
<defs>
<clipPath id="clip0_1020_7">
<rect width="681.333" height="681.333" fill="white"/>
</clipPath>
</defs>
</svg>
