<svg xmlns="http://www.w3.org/2000/svg" viewBox="0 0 2500 2500" id="joint">
  <path d="M1937.22 1180.32c-9.65 0-19.31-3.85-26.44-11.46-13.67-14.61-12.93-37.53 1.67-51.2l300.24-281.17c11.92-11.09 29.72-12.93 43.58-4.53 13.9 8.46 20.47 25.13 16.05 40.78l-36.62 130.18 203.31-190.41c14.57-13.64 37.49-12.96 51.2 1.67 13.7 14.61 12.93 37.53-1.67 51.2l-298.15 279.21c-11.86 11.12-29.66 12.99-43.58 4.53-13.9-8.46-20.47-25.13-16.05-40.78l36.65-130.21-205.43 192.38c-6.99 6.54-15.87 9.79-24.76 9.79zM562.82 1180.32c-8.89 0-17.78-3.22-24.77-9.79l-205.43-192.38 36.65 130.21c4.42 15.65-2.15 32.32-16.04 40.78-13.9 8.44-31.7 6.57-43.59-4.53L11.47 865.39c-14.61-13.67-15.37-36.59-1.67-51.2 13.7-14.63 36.62-15.36 51.2-1.67l203.34 190.41-36.62-130.18c-4.41-15.65 2.15-32.32 16.05-40.78 13.89-8.43 31.7-6.6 43.58 4.53l300.24 281.17c14.61 13.67 15.34 36.59 1.67 51.2-7.13 7.61-16.78 11.46-26.43 11.46zM36.23 1701.95c-9.65 0-19.3-3.85-26.43-11.46-13.7-14.61-12.94-37.53 1.67-51.2l298.17-279.24c11.92-11.09 29.72-12.93 43.59-4.53 13.89 8.46 20.46 25.13 16.04 40.78l-36.65 130.24 205.43-192.39c14.61-13.61 37.5-12.96 51.2 1.67 13.67 14.61 12.94 37.53-1.67 51.2l-300.24 281.17c-11.85 11.12-29.66 12.99-43.58 4.53-13.9-8.46-20.46-25.13-16.05-40.78l36.65-130.21-203.37 190.44c-6.99 6.54-15.88 9.79-24.77 9.79zM2463.77 1701.95c-8.89 0-17.77-3.25-24.76-9.79l-203.31-190.44 36.62 130.21c4.42 15.65-2.15 32.32-16.05 40.78-13.89 8.43-31.69 6.57-43.58-4.53l-300.24-281.17c-14.6-13.67-15.34-36.59-1.67-51.2 13.7-14.63 36.62-15.36 51.2-1.67l205.43 192.39-36.65-130.24c-4.42-15.65 2.15-32.32 16.05-40.78 13.89-8.43 31.69-6.6 43.58 4.53l298.15 279.24c14.6 13.67 15.34 36.59 1.67 51.2-7.13 7.61-16.78 11.46-26.44 11.46zM985.76 1194.1c96.17 9.68 190.6-19.24 264.24-79.98 64.27 53.04 144.47 81.82 227.82 81.82 12.08 0 24.23-.6 36.39-1.81 107.71-10.84 204.36-69.76 265.2-161.65 78.96-119.23 76.98-279.1-4.93-397.82-40.61-58.81-96.47-103.64-161.57-129.61-51.31-20.49-85.8-75.68-85.8-137.32V36.22c0-20.01-16.22-36.22-36.22-36.22h-481.78c-20.01 0-36.22 16.22-36.22 36.22v331.51c0 61.64-34.5 116.82-85.81 137.32-65.06 25.95-120.93 70.77-161.51 129.59-81.93 118.69-83.94 278.56-4.98 397.82 60.82 91.89 157.49 150.81 265.17 161.65zm-200.59-518.32c32.49-47.01 77-82.78 128.74-103.44 78.62-31.38 131.43-113.6 131.43-204.61V72.45h409.33v295.28c0 91.01 52.81 173.23 131.43 204.61 51.76 20.66 96.3 56.43 128.73 103.46 65.29 94.61 66.96 221.85 4.19 316.65-48.79 73.7-126.08 120.93-212.05 129.56-86.03 8.66-170.31-21.37-231.35-82.41-7.08-7.08-16.33-10.61-25.61-10.61s-18.54 3.54-25.61 10.61c-61.04 61.04-145.12 91.36-231.35 82.41-85.98-8.66-163.26-55.87-212.05-129.59-62.77-94.8-61.07-222.07 4.19-316.65zM1779.41 1467.54c-60.85-91.89-157.49-150.81-265.2-161.65-96.02-9.62-190.6 19.28-264.21 80.01-73.58-60.71-167.88-89.8-264.21-80.01-107.68 10.84-204.33 69.77-265.17 161.62-78.96 119.23-76.98 279.13 4.93 397.85 40.58 58.83 96.45 103.64 161.54 129.61 51.31 20.46 85.81 75.65 85.81 137.29v331.51c0 20.01 16.22 36.22 36.22 36.22h481.78c20.01 0 36.22-16.22 36.22-36.22v-331.51c0-61.67 34.5-116.83 85.86-137.29 65.06-25.98 120.9-70.81 161.46-129.59 81.95-118.72 83.97-278.59 4.98-397.85zm-64.61 356.7c-32.4 47-76.92 82.78-128.69 103.44-78.62 31.33-131.45 113.54-131.45 204.58v295.28h-409.33v-295.28c0-91.02-52.81-173.23-131.43-204.58-51.76-20.66-96.28-56.43-128.71-103.47-65.29-94.61-66.99-221.87-4.19-316.68 48.79-73.69 126.08-120.9 212.03-129.56 85.98-8.49 170.31 21.39 231.35 82.44 14.15 14.15 37.08 14.15 51.22 0 61.04-61.05 145.3-90.96 231.35-82.44 85.98 8.66 163.26 55.89 212.05 129.59 62.8 94.81 61.1 222.08-4.21 316.68z"></path>
  <path d="m1418.47,1221.05c-99.28,17.03-237.64,17.03-336.94,0-107.54-18.34-253.8-18.34-361.4,0-19.69,3.37-32.97,22.1-29.6,41.83,3.03,17.63,18.34,30.11,35.66,30.11,2.04,0,4.1-.17,6.17-.51,99.67-17.04,237.43-17.01,336.94,0,53.61,9.17,116.09,14.04,180.7,14.04s127.13-4.87,180.7-14.04c99.56-17.04,237.38-17.04,336.94,0,2.06.34,4.13.51,6.17.51,17.32,0,32.63-12.48,35.66-30.11,3.37-19.73-9.91-38.46-29.61-41.83-107.54-18.34-253.85-18.34-361.39,0Z"></path>
</svg>
