<svg xmlns="http://www.w3.org/2000/svg" enable-background="new 0 0 70 70" viewBox="0 0 70 70" id="kidney">
  <path d="M50.0199623,44.3676758l0.0703125,0.0556641c4.6636963,3.9326782,11.9371338,2.5326538,14.6025352-3.1025391
		c3.8701172-8.1699219,3.8554688-16.5351563-0.0410156-24.8623047c-1.5683556-3.3515625-4.8535118-5.4335938-8.5751915-5.4335938
		c-5.7054443,0-11.1887207,5.5352173-9.1881714,12.1717529c-1.3552246-0.3849487-3.2214355-1.272522-4.2698364-3.3309326
		l-1.78125,0.9082031c1.8158569,3.5662842,5.4241943,4.4355469,6.9269409,4.6463623
		c0.0666504,0.1702881,0.144165,0.3412476,0.201416,0.5108643h-1.0014038c-5.0087891,0-9.0830078,4.0751953-9.0830078,9.0839844
		v21.1816406c0,1.5322266,1.2460938,2.7783203,2.7783203,2.7783203s2.7783203-1.2460938,2.7783203-2.7783203V37.6831055
		c0-2.8860474,1.9418945-5.2956543,4.6133423-5.9868774c-0.1538086,0.4776001-0.3499146,0.9663696-0.5928345,1.4741821
		C45.6488686,36.9643555,46.694767,41.5620117,50.0199623,44.3676758z M56.0766029,13.0249023
		c2.9365234,0,5.5283203,1.640625,6.7636719,4.28125c3.6318321,7.7617188,3.6474571,15.5537109,0.0449219,23.1591797
		c-2.0827637,4.4034424-7.8016968,5.5530396-11.5244141,2.4130859l-0.0703125-0.0556641
		c-2.6113281-2.203125-3.4443359-5.8183594-2.0273438-8.7900391c0.4233398-0.8850098,0.7301025-1.732605,0.9284668-2.5628052
		l0.020752-0.0006714c0.0467529-0.4771729,0.5953979-2.2373047,0.0439453-4.7373047
		c-0.0230713-0.1047363-0.1989746-0.9008179-0.1757813-0.8007813h-0.0440063
		c-0.2069092-0.7424927-0.4653931-1.4904785-0.8251343-2.2373047
		C46.5828896,18.1349487,51.2322426,13.0249023,56.0766029,13.0249023z M41.4379311,37.6831055v18.5136719
		c0,0.4287109-0.3496094,0.7783203-0.7783203,0.7783203s-0.7783203-0.3496094-0.7783203-0.7783203V35.0151367
		c0-3.90625,3.1777344-7.0839844,7.0830078-7.0839844h1.4714355c0.0043335,0.1808472,0.0189209-0.4674072,0.0376587,1.6411133
		C44.4650307,30.1270752,41.4379311,33.5375366,41.4379311,37.6831055z"></path>
  <path d="M54.3119545 42.8637695l.9921875-1.7363281c-.0205078-.0117188-2.1201172-1.2333984-3.7451172-4.0253906l-1.7285156 1.0058594C51.7230873 41.3588867 54.2074623 42.8041992 54.3119545 42.8637695zM61.2308998 32.1801758l1.828125.8085938c2.1337852-4.8222656-.1650391-11.7011719-.2646484-11.9912109l-1.8935547.6435547C60.9232826 21.7055664 63.0463295 28.0756836 61.2308998 32.1801758zM19.8910542 44.4389648l.1074219-.0869141c3.3066406-2.7890625 4.3525391-7.3867188 2.5429688-11.1826172-.2425537-.5064697-.4385376-.9942627-.5925903-1.4730835 2.6713257.6912231 4.6130981 3.1008301 4.6130981 5.9867554v18.5136719c0 1.5322266 1.2460938 2.7783203 2.7783203 2.7783203s2.7792988-1.2460938 2.7792988-2.7783203V35.0151367c0-5.0087891-4.0751972-9.0839844-9.0839863-9.0839844h-1.0012207c.0571289-.1691284.1344604-.3403931.2012329-.5107422 1.5020142-.2106323 5.1107788-1.0795288 6.9269409-4.6464844l-1.78125-.9082031c-1.0482178 2.0581055-2.9135742 2.9457397-4.2684937 3.3307495 1.9923096-6.6047363-3.4468994-12.1715698-9.1895142-12.1715698-3.7207031 0-7.0068359 2.0820313-8.5732422 5.4335938-3.8984375 8.3271484-3.9130859 16.6923828-.0439453 24.8623047 1.5576172 3.2910156 4.8144321 5.3359375 8.4980469 5.3359375C16.0346088 46.6567383 18.2025776 45.862793 19.8910542 44.4389648zM23.0355854 27.9311523c3.90625 0 7.0839844 3.1777344 7.0839844 7.0839844v21.1816406c0 .4287109-.3496094.7783203-.7792969.7783203-.4287109 0-.7783203-.3496094-.7783203-.7783203V37.6831055c0-4.1456909-3.0272217-7.5562134-7.0358276-8.1109009.0007935-.1013184-.0650024-.8228149.038147-1.6410522H23.0355854zM7.1137104 40.465332C3.5121479 32.8588867 3.5277729 25.0678711 7.161562 17.3061523c1.234375-2.640625 3.8251953-4.28125 6.7617188-4.28125 4.8623657 0 9.4863281 5.1299438 6.8691406 10.6621094-.362915.7525024-.6224976 1.5028687-.8293457 2.2441406h-.0437012l-.1728516.7851563c-.5797119 2.6328125-.0366821 3.9599609.0410156 4.7529297l.020874.0007324c.199646.8343506.5061646 1.6791992.9283447 2.5617676 1.4179688 2.9736328.5839844 6.5888672-2.0087891 8.7753906l-.1074429.0869141c-1.3476353 1.1367188-3.0575962 1.7626953-4.8163853 1.7626953C10.9008198 44.6567383 8.3373432 43.050293 7.1137104 40.465332z"></path>
  <path d="M15.6879292 42.8637695c.1044922-.0595703 2.5898438-1.5048828 4.4814453-4.7558594l-1.7285156-1.0058594c-1.6074219 2.7626953-3.7265625 4.0146484-3.7480469 4.0273438l.4990234.8662109L15.6879292 42.8637695zM7.2055073 20.9975586c-.0996094.2900391-2.3984375 7.1689453-.2636719 11.9912109l1.828125-.8085938C6.9535542 28.0756836 9.076601 21.7055664 9.099062 21.6411133L7.2055073 20.9975586z"></path>
</svg>
