<svg id="SvgjsSvg1060" width="288" height="288" xmlns="http://www.w3.org/2000/svg" version="1.1" xmlns:xlink="http://www.w3.org/1999/xlink" xmlns:svgjs="http://svgjs.com/svgjs"><defs id="SvgjsDefs1061"></defs><g id="SvgjsG1062"><svg xmlns="http://www.w3.org/2000/svg" enable-background="new 0 0 66 66" viewBox="0 0 66 66" width="288" height="288"><path d="M56.79,56.38h-3.9l-1.22-2.82c7.55-1.56,13.12-8.26,13.12-16.07c0-5.44-2.68-10.47-7.18-13.55
		c-0.27-1.89-1.5-3.47-3.2-4.19l0.95-3.46c0.47-1.73-0.54-3.52-2.27-3.99l-0.62-0.17l0.69-2.53l1.19,0.33
		c0.18,0.05,0.37,0.07,0.55,0.07c0.35,0,0.7-0.09,1.02-0.27c0.48-0.27,0.82-0.71,0.97-1.25l0.58-2.12c0.3-1.1-0.35-2.23-1.44-2.53
		L46.5,1.2c-1.09-0.3-2.23,0.34-2.53,1.44l-0.58,2.12c-0.15,0.53-0.08,1.09,0.2,1.57s0.71,0.82,1.25,0.97l1.19,0.33l-0.69,2.53
		l-0.62-0.17c-1.73-0.48-3.52,0.54-3.99,2.27l-5.24,19.07c-0.44,1.61,0.42,3.26,1.94,3.87l0.08,4.65c0.01,0.39,0.27,0.73,0.64,0.83
		l4.91,1.35c0.08,0.02,0.15,0.03,0.23,0.03c0.3,0,0.58-0.15,0.74-0.42l2.44-3.94c0.17,0.03,0.35,0.05,0.52,0.05
		c1.43,0,2.74-0.95,3.13-2.39l1.47-5.36c0.24,0.03,0.47,0.07,0.72,0.07c0.84,0,1.62-0.21,2.33-0.55c2.44,1.93,3.9,4.87,3.9,7.98
		c0,5.32-4.18,9.75-9.43,10.14l-0.61-1.41c-0.14-0.32-0.45-0.53-0.8-0.53H36.56c-0.35,0-0.67,0.21-0.8,0.53l-0.63,1.46h-5.77
		c-1.72,0-3.12,1.4-3.12,3.12s1.4,3.12,3.12,3.12h3.08l-1.06,2.46h-3.9c-2.96,0-5.37,2.41-5.37,5.37V64c0,0.48,0.39,0.88,0.88,0.88
		h38.33c0.48,0,0.88-0.39,0.88-0.88v-2.25C62.17,58.79,59.76,56.38,56.79,56.38z M45.1,5.46c-0.02-0.04-0.06-0.13-0.03-0.24
		l0.58-2.12c0.04-0.14,0.16-0.23,0.3-0.23c0.03,0,0.06,0,0.08,0.01l9.53,2.62c0.17,0.05,0.26,0.22,0.22,0.38L55.2,8.01
		c-0.03,0.11-0.1,0.16-0.15,0.19c-0.04,0.02-0.13,0.06-0.24,0.03l-9.53-2.62C45.18,5.58,45.13,5.51,45.1,5.46z M47.01,10.62
		l0.69-2.53l1.61,0.44l2.16,0.59l-0.69,2.53l-1.63-0.45L47.01,10.62z M42.88,40.15l-3.65-1l-0.06-3.44l2.76,0.76l2.76,0.76
		L42.88,40.15z M48.43,34.88c-0.22,0.8-1.05,1.26-1.84,1.05l-0.3-0.08c0,0,0,0,0,0l-4.5-1.24l-3.58-0.98
		c-0.8-0.22-1.27-1.05-1.05-1.84l5.24-19.07c0.22-0.8,1.05-1.27,1.84-1.05l6,1.65l0.92,0.25c0,0,0,0,0,0l1.46,0.4
		c0.8,0.22,1.27,1.05,1.05,1.84l-0.97,3.54c-0.13-0.01-0.25-0.04-0.39-0.04c-2.96,0-5.37,2.41-5.37,5.37c0,2.1,1.22,3.9,2.98,4.79
		L48.43,34.88z M51.22,28.12c-0.01,0-0.01-0.01-0.02-0.01c0,0-0.01,0-0.01,0c-1.45-0.48-2.5-1.82-2.5-3.43c0-2,1.63-3.62,3.62-3.62
		c0.27,0,0.53,0.03,0.78,0.09c0.01,0,0.01,0.01,0.01,0.01c0,0,0.01,0,0.01,0c1.61,0.37,2.81,1.81,2.81,3.52
		c0,1.27-0.66,2.38-1.65,3.03c-0.01,0-0.01,0.01-0.02,0.01c-0.57,0.37-1.24,0.58-1.96,0.58C51.93,28.31,51.56,28.23,51.22,28.12z
		 M60.29,37.48c0-3.47-1.54-6.76-4.16-9.02c0.66-0.67,1.13-1.51,1.37-2.44c3.49,2.78,5.54,6.96,5.54,11.46
		c0,7.1-5.15,13.17-12.08,14.42l-1.12-2.59C55.71,48.58,60.29,43.52,60.29,37.48z M29.35,52.17c-0.76,0-1.37-0.62-1.37-1.37
		s0.62-1.37,1.37-1.37h5.02l-1.19,2.75H29.35z M34.56,53.39C34.56,53.39,34.56,53.39,34.56,53.39l1.94-4.5c0,0,0,0,0,0l0.63-1.45
		h9.98l0.63,1.46c0,0,0,0,0,0l3.23,7.49H33.27L34.56,53.39z M60.42,63.12H23.84v-1.37c0-2,1.63-3.62,3.62-3.62h4.47c0,0,0,0,0.01,0
		h24.86c2,0,3.62,1.63,3.62,3.62V63.12z" fill="#000000" class="svgShape color000000-0 selectable"></path><path d="M52.31 23.69c-.55 0-1 .45-1 1s.45 1 1 1 1-.45 1-1S52.87 23.69 52.31 23.69zM32.36 33.23c.67-1.24.6-2.68-.17-3.85l-4.13-6.27-6.62-10.04V8.02h.79c.91 0 1.64-.74 1.64-1.64V3.72c0-.91-.74-1.64-1.64-1.64H11.8c-.91 0-1.64.74-1.64 1.64v2.65c0 .91.74 1.64 1.64 1.64h.79v5.05L5.04 24.52l-3.2 4.86C1.06 30.55 1 31.99 1.67 33.23c.67 1.24 1.9 1.98 3.31 1.98h24.08C30.46 35.2 31.69 34.46 32.36 33.23zM11.91 3.83h10.21v2.44h-1.44c-.04-.01-.07-.02-.11-.02h-7.1c-.04 0-.07.02-.11.02h-1.44V3.83zM14.2 13.81c.09-.14.14-.31.14-.48V8.02h5.35v5.31c0 .17.05.34.14.48l5.4 8.2c-.72-.13-1.48-.21-2.32-.21-3.25 0-4.89.98-6.47 1.93-1.44.86-2.8 1.68-5.56 1.68-1.67 0-2.82-.29-3.84-.74L14.2 13.81zM3.21 32.4c-.36-.66-.32-1.43.09-2.06l2.77-4.2c1.17.56 2.62 1.01 4.81 1.01 3.25 0 4.88-.98 6.46-1.92 1.44-.86 2.8-1.68 5.57-1.68 1.85 0 3.01.37 3.82.73l3.99 6.06c.41.63.45 1.4.09 2.06-.36.66-1.02 1.06-1.77 1.06H4.97C4.22 33.45 3.56 33.06 3.21 32.4z" fill="#dc2626" class="svgShape color000000-1 selectable"></path></svg></g></svg>