<svg width="650" height="1531" viewBox="0 0 650 1531" fill="none" xmlns="http://www.w3.org/2000/svg">
<g clip-path="url(#clip0_942_59)">
<path d="M104.269 808.727L112.317 1473.68H176.7L208.892 881.876H225.203L257.395 1473.68H321.779L331.544 808.727H104.269Z" fill="#22376C"/>
<path d="M116.934 1473.65C116.934 1473.65 63.2803 1474.81 63.2803 1516.31V1530.57C63.2803 1530.57 118.436 1533.7 129.059 1523.15C129.059 1526.51 129.059 1530.57 129.059 1530.57H176.274V1473.53L116.934 1473.65ZM318.777 1473.65C318.777 1473.65 371.786 1474.81 371.786 1516.31V1530.57C371.786 1530.57 316.524 1533.7 305.9 1523.15C305.9 1526.51 305.9 1530.57 305.9 1530.57H258.685V1473.53L318.777 1473.65Z" fill="black"/>
<path d="M336.267 591.304L352.149 912.187C352.149 912.187 345.925 944.53 239.799 944.53L217.694 888.654L195.267 944.53C89.2478 944.53 83.0241 912.187 83.0241 912.187L94.2912 754.644C96.9847 701.527 96.3753 648.274 92.467 595.245C89.999 579.827 47.1837 426.225 105.558 395.157C126.161 384.144 187.541 381.594 187.541 381.594H247.525C247.525 381.594 309.012 384.144 329.614 395.157C371.786 417.647 421.361 591.42 421.361 591.42L542.832 470.045L579.317 515.604C579.317 515.604 444.969 716.388 403.227 712.678C363.845 709.432 336.267 591.42 336.267 591.42V591.304Z" fill="#DEEBF8"/>
<path d="M187.435 381.594H247.527L259.545 382.289C259.545 382.289 255.682 488.593 217.481 572.756C179.28 488.593 175.417 382.289 175.417 382.289L187.435 381.594Z" fill="#63A2D8"/>
<path d="M196.019 425.982C196.925 419.878 199.426 414.18 203.228 409.559C207.03 404.938 211.975 401.587 217.48 399.898C223.004 401.548 227.969 404.888 231.777 409.516C235.584 414.143 238.072 419.862 238.941 425.982C237.52 428.719 235.565 431.091 233.212 432.932C230.859 434.774 228.164 436.041 225.313 436.647L232.503 533.677C232.503 533.677 219.519 567.759 217.48 572.744L202.779 533.677L210.076 436.647C207.213 436.035 204.506 434.766 202.136 432.926C199.766 431.086 197.79 428.718 196.34 425.982H196.019Z" fill="#22376C"/>
<path d="M259.757 416.957C259.596 416.76 259.398 416.602 259.176 416.493C258.954 416.385 258.713 416.329 258.47 416.329C258.226 416.329 257.985 416.385 257.763 416.493C257.541 416.602 257.343 416.76 257.182 416.957C252.287 421.916 247.01 426.415 241.408 430.405C241.069 423.019 238.615 415.93 234.386 410.116C230.158 404.301 224.362 400.049 217.801 397.945H217.157C210.781 400.025 205.108 404.074 200.837 409.595C196.566 415.116 193.883 421.866 193.12 429.013C184.75 423.913 178.419 419.623 178.419 419.623C178.002 419.351 177.504 419.259 177.026 419.366C176.548 419.474 176.126 419.773 175.844 420.203C175.598 420.636 175.516 421.156 175.616 421.653C175.716 422.15 175.99 422.586 176.38 422.869C176.38 422.869 183.892 427.97 193.442 433.651C193.643 433.793 193.869 433.889 194.107 433.931C194.344 433.974 194.587 433.961 194.819 433.896C195.052 433.83 195.269 433.713 195.457 433.551C195.645 433.388 195.799 433.186 195.91 432.955C195.957 432.726 195.957 432.489 195.91 432.259C196.332 425.466 198.59 418.955 202.406 413.536C206.221 408.116 211.424 404.025 217.371 401.771C223.568 403.942 228.937 408.245 232.657 414.023C236.378 419.8 238.245 426.735 237.974 433.766C237.988 434.025 238.049 434.279 238.153 434.512C238.258 434.746 238.404 434.955 238.584 435.127C238.763 435.299 238.972 435.432 239.199 435.517C239.426 435.601 239.666 435.637 239.906 435.621C240.182 435.738 240.488 435.738 240.764 435.621C247.497 431.051 253.82 425.812 259.65 419.971C259.878 419.809 260.067 419.59 260.201 419.333C260.335 419.076 260.41 418.789 260.421 418.494C260.431 418.199 260.377 417.906 260.261 417.639C260.146 417.372 259.973 417.138 259.757 416.957Z" fill="#DEEBF8"/>
<path d="M296.243 884.242C279.898 883.145 263.764 879.674 248.277 873.925C247.937 873.804 247.64 873.572 247.428 873.26C247.217 872.948 247.101 872.573 247.096 872.186L242.589 806.804C242.585 806.246 242.777 805.708 243.126 805.297C243.36 805.174 243.617 805.11 243.877 805.11C244.137 805.11 244.394 805.174 244.628 805.297C248.598 805.297 252.998 805.297 257.827 805.297C279.65 804.771 301.398 802.328 322.855 797.994C323.324 797.89 323.812 797.99 324.213 798.272C324.615 798.554 324.898 798.995 325.001 799.501L329.186 859.782C329.342 860.23 329.342 860.725 329.186 861.173C320.093 870.858 309.341 878.536 297.53 883.779H296.779L296.243 884.242ZM250.53 870.679C265.187 875.944 280.403 879.178 295.813 880.301C306.726 875.243 316.746 868.184 325.43 859.434L321.46 802.283C300.414 806.395 279.102 808.721 257.72 809.238C253.642 809.238 249.779 809.238 246.238 809.238L250.53 870.679ZM202.779 861.289C204.315 861.289 205.789 861.949 206.876 863.123C207.963 864.297 208.573 865.889 208.573 867.549C208.573 869.209 207.963 870.802 206.876 871.976C205.789 873.15 204.315 873.809 202.779 873.809C201.242 873.809 199.768 873.15 198.681 871.976C197.595 870.802 196.984 869.209 196.984 867.549C196.984 865.889 197.595 864.297 198.681 863.123C199.768 861.949 201.242 861.289 202.779 861.289ZM202.779 774.461C203.925 774.461 205.045 774.828 205.998 775.516C206.951 776.203 207.693 777.181 208.132 778.325C208.571 779.469 208.685 780.727 208.462 781.942C208.238 783.156 207.686 784.272 206.876 785.147C206.066 786.023 205.033 786.619 203.909 786.86C202.785 787.102 201.62 786.978 200.561 786.504C199.502 786.03 198.597 785.228 197.961 784.198C197.324 783.169 196.984 781.959 196.984 780.721C196.984 779.06 197.595 777.468 198.681 776.294C199.768 775.12 201.242 774.461 202.779 774.461ZM202.779 700.152C201.633 700.152 200.512 699.785 199.559 699.097C198.606 698.409 197.864 697.431 197.425 696.288C196.987 695.144 196.872 693.885 197.095 692.671C197.319 691.456 197.871 690.341 198.681 689.465C199.492 688.59 200.524 687.994 201.648 687.752C202.772 687.511 203.937 687.635 204.996 688.108C206.055 688.582 206.96 689.385 207.597 690.414C208.233 691.444 208.573 692.654 208.573 693.892C208.573 695.552 207.963 697.145 206.876 698.319C205.789 699.493 204.315 700.152 202.779 700.152ZM202.779 613.208C201.628 613.207 200.504 612.837 199.548 612.144C198.593 611.451 197.851 610.466 197.416 609.316C196.98 608.165 196.872 606.9 197.104 605.683C197.337 604.466 197.9 603.351 198.721 602.48C199.542 601.609 200.584 601.022 201.715 600.794C202.846 600.566 204.015 600.706 205.071 601.198C206.128 601.69 207.026 602.51 207.649 603.555C208.273 604.599 208.594 605.821 208.573 607.063C208.545 608.704 207.922 610.266 206.838 611.415C205.755 612.564 204.297 613.208 202.779 613.208ZM140.112 884.242H139.36C127.511 879.079 116.745 871.391 107.705 861.637C107.61 861.419 107.56 861.182 107.56 860.941C107.56 860.701 107.61 860.463 107.705 860.246L111.89 799.964C111.903 799.71 111.964 799.461 112.07 799.233C112.176 799.005 112.324 798.804 112.505 798.64C112.686 798.477 112.897 798.356 113.123 798.285C113.35 798.213 113.587 798.193 113.821 798.225C135.278 802.56 157.026 805.003 178.849 805.529C183.571 805.529 188.078 805.529 192.048 805.529C192.515 805.496 192.976 805.658 193.335 805.981C193.695 806.305 193.925 806.765 193.979 807.268L189.473 872.65C189.486 873.041 189.376 873.425 189.162 873.741C188.948 874.056 188.641 874.285 188.292 874.389C172.807 880.149 156.672 883.62 140.326 884.706L140.112 884.242ZM110.924 859.434C119.536 868.227 129.528 875.293 140.433 880.301C155.878 879.169 171.129 875.936 185.824 870.679L190.009 808.775C186.468 808.775 182.605 808.775 178.635 808.775C157.252 808.257 135.941 805.931 114.895 801.819L110.924 859.434Z" fill="#63A2D8"/>
<path d="M76.4772 826.146C76.4772 827.189 16.9221 843.419 16.9221 843.419C3.50875 732.362 0.826088 732.826 -1.96388 646.345C-3.46617 599.974 42.0318 419.13 108.991 394.09C110.708 447.648 96.1143 546.417 96.1143 546.417C96.1143 546.417 66.2831 640.548 65.21 652.721C62.6346 684.253 59.952 695.034 76.4772 826.61V826.146Z" fill="#DEEBF8"/>
<path d="M22.1835 841.929C16.1743 852.71 4.3706 876.707 7.5898 885.401C10.809 894.096 18.3204 894.443 18.3204 894.443C18.3204 894.443 19.0716 908.239 36.9918 906.847C44.8252 914.962 49.5466 921.57 58.9896 916.122C63.1746 925.512 73.2614 932.467 76.4806 926.671C79.6998 920.874 80.5582 898.269 79.3779 872.186C98.8003 900.587 111.57 883.778 111.57 883.778C106.635 873.229 100.778 863.214 94.0789 853.869C85.2797 841.233 80.129 830.684 76.4806 825.699L22.1835 841.929Z" fill="#F9BF82"/>
<path d="M217.481 890.594C217.006 890.566 216.557 890.35 216.22 889.986C215.883 889.622 215.683 889.137 215.657 888.623V593.592C215.657 593.069 215.849 592.568 216.192 592.198C216.534 591.829 216.998 591.621 217.481 591.621C217.965 591.621 218.429 591.829 218.771 592.198C219.113 592.568 219.306 593.069 219.306 593.592V888.623C219.28 889.137 219.079 889.622 218.743 889.986C218.406 890.35 217.957 890.566 217.481 890.594Z" fill="#63A2D8"/>
<path d="M165.97 482.787L152.234 497.509L217.477 597.553L282.826 497.741L269.091 483.018L293.128 475.135L277.247 387.032L259.541 385.872C255.618 440.762 244.787 494.817 227.349 546.546L217.262 572.513C193.934 513.118 179.796 449.987 175.413 385.641L157.707 386.916L141.826 475.02L165.97 482.787Z" fill="white"/>
<path d="M124.553 630.381C124.662 631.622 125.218 632.767 126.101 633.569C126.985 634.371 128.124 634.767 129.275 634.67H132.816C133.39 634.627 133.95 634.459 134.463 634.177C134.976 633.895 135.431 633.504 135.802 633.029C136.172 632.553 136.45 632.001 136.619 631.407C136.788 630.813 136.845 630.188 136.786 629.569C136.677 628.328 136.121 627.183 135.238 626.381C134.355 625.579 133.215 625.183 132.065 625.28H128.523C127.385 625.426 126.341 626.034 125.604 626.981C124.866 627.929 124.491 629.145 124.553 630.381Z" fill="#22376C"/>
<path d="M131.312 529.524C131.247 529.004 131.365 528.477 131.644 528.048C131.922 527.618 132.34 527.317 132.814 527.206C133.291 527.161 133.768 527.299 134.16 527.595C134.553 527.892 134.836 528.329 134.96 528.828C134.96 529.524 144.296 599.891 151.593 612.295C152.367 613.694 153.305 614.98 154.383 616.121C155.16 615.073 155.843 613.947 156.422 612.759C162.86 599.775 167.152 528.828 167.152 528.133C167.179 527.873 167.253 527.622 167.37 527.394C167.487 527.166 167.645 526.965 167.835 526.803C168.025 526.641 168.242 526.522 168.475 526.451C168.708 526.381 168.951 526.362 169.191 526.394C169.656 526.452 170.082 526.702 170.382 527.09C170.681 527.478 170.831 527.976 170.801 528.481C170.801 531.379 166.186 600.819 159.426 614.614C158.704 616.035 157.879 617.391 156.958 618.671C161.869 622.311 167.555 624.544 173.483 625.163C173.718 625.162 173.951 625.214 174.166 625.314C174.382 625.415 174.576 625.562 174.737 625.747C174.898 625.931 175.022 626.15 175.102 626.388C175.181 626.627 175.215 626.881 175.2 627.134C175.173 627.636 174.969 628.108 174.629 628.453C174.29 628.798 173.842 628.989 173.376 628.989C166.562 628.474 160.018 625.904 154.49 621.569C149.154 626.693 142.556 630.036 135.497 631.191C135.021 631.163 134.572 630.947 134.236 630.583C133.899 630.219 133.698 629.734 133.673 629.22C133.67 628.736 133.832 628.266 134.129 627.903C134.426 627.539 134.837 627.307 135.282 627.25C141.451 626.201 147.239 623.356 152.022 619.019C150.73 617.608 149.579 616.053 148.588 614.382C140.969 601.282 131.848 532.306 131.419 529.408L131.312 529.524Z" fill="#63A2D8"/>
<path d="M184.537 627.347C184.482 628.597 183.983 629.777 183.143 630.641C182.304 631.504 181.189 631.985 180.03 631.984H176.489C175.916 631.984 175.349 631.86 174.821 631.62C174.293 631.38 173.815 631.028 173.415 630.585C173.015 630.142 172.701 629.617 172.492 629.041C172.283 628.465 172.182 627.849 172.197 627.231C172.251 626 172.735 624.837 173.551 623.976C174.368 623.116 175.456 622.622 176.596 622.594H180.245C181.393 622.624 182.484 623.138 183.286 624.026C184.088 624.914 184.537 626.106 184.537 627.347Z" fill="#22376C"/>
<path d="M263.405 612.86C263.717 616.747 265.09 620.446 267.35 623.489C269.609 626.532 272.654 628.781 276.098 629.954C279.542 631.126 283.231 631.167 286.697 630.072C290.163 628.978 293.25 626.797 295.568 623.805C297.886 620.814 299.329 617.146 299.716 613.268C300.103 609.389 299.416 605.474 297.741 602.018C296.067 598.561 293.48 595.72 290.309 593.853C287.139 591.986 283.527 591.177 279.93 591.53C275.125 592.001 270.687 594.51 267.59 598.508C264.493 602.506 262.988 607.666 263.405 612.86Z" fill="#63A2D8"/>
<path d="M272.315 612.044C272.471 614.01 273.164 615.882 274.305 617.423C275.447 618.963 276.986 620.103 278.728 620.698C280.47 621.293 282.336 621.316 284.09 620.764C285.844 620.213 287.406 619.111 288.58 617.599C289.754 616.087 290.486 614.232 290.684 612.27C290.881 610.309 290.536 608.327 289.69 606.578C288.845 604.829 287.538 603.39 285.934 602.443C284.331 601.497 282.504 601.086 280.685 601.263C278.254 601.498 276.008 602.765 274.439 604.786C272.87 606.806 272.107 609.416 272.315 612.044Z" fill="#22376C"/>
<path d="M265.125 385.306C259.157 378.476 251.901 373.109 243.848 369.57C235.795 366.03 227.133 364.399 218.446 364.787C208.573 364.183 198.704 366.044 189.604 370.226C180.504 374.407 172.418 380.797 165.973 388.9C151.843 410.274 144.776 436.16 145.907 462.397C145.674 475.583 146.464 488.768 148.268 501.812C143.364 502.172 138.783 504.584 135.498 508.535C131.239 514.722 129.355 522.447 130.24 530.098C130.293 530.51 130.421 530.908 130.617 531.267C130.814 531.625 131.075 531.938 131.385 532.187C131.694 532.435 132.047 532.614 132.422 532.713C132.797 532.812 133.186 532.829 133.567 532.764C134.326 532.648 135.015 532.224 135.494 531.577C135.973 530.931 136.204 530.111 136.142 529.286C135.492 523.435 136.868 517.53 140.005 512.709C141.5 511.052 143.312 509.769 145.313 508.948C147.315 508.127 149.459 507.788 151.594 507.956C153.421 507.839 155.25 508.152 156.954 508.872C158.659 509.593 160.198 510.704 161.467 512.129C164.883 517.401 166.478 523.801 165.973 530.213C165.912 530.637 165.935 531.069 166.041 531.482C166.147 531.895 166.333 532.279 166.587 532.608C166.841 532.937 167.156 533.204 167.513 533.391C167.87 533.577 168.26 533.68 168.656 533.691C169.394 533.671 170.101 533.369 170.651 532.838C171.201 532.307 171.559 531.583 171.661 530.793C172.277 522.538 170.146 514.317 165.652 507.608C162.635 504.002 158.443 501.8 153.955 501.464C152.116 488.501 151.29 475.394 151.487 462.281C151.487 441.298 155.35 412.085 170.266 392.725C176.15 385.348 183.528 379.535 191.828 375.735C200.127 371.936 209.125 370.252 218.124 370.815C225.992 370.345 233.859 371.753 241.166 374.939C248.473 378.124 255.041 383.01 260.403 389.247C292.595 427.155 285.513 516.766 280.362 583.076C279.504 592.698 278.86 601.856 278.216 610.434C278.185 611.288 278.456 612.124 278.974 612.77C279.492 613.416 280.219 613.824 281.006 613.912C281.76 613.888 282.48 613.57 283.033 613.015C283.585 612.461 283.933 611.708 284.011 610.898C284.547 602.435 285.298 593.277 286.049 583.655C291.307 516.65 298.604 424.953 264.588 384.842L265.125 385.306Z" fill="#22376C"/>
<path d="M244.844 350.531C244.844 350.531 246.453 365.718 247.741 381.599C245.077 387.606 240.761 392.578 235.384 395.835C230.006 399.093 223.828 400.478 217.695 399.8C211.549 400.468 205.36 399.081 199.967 395.826C194.574 392.571 190.237 387.605 187.542 381.599C188.508 371.282 189.366 360.849 190.439 350.531H244.844Z" fill="#F5A257"/>
<path d="M219.626 352.604C338.951 352.604 328.113 256.617 328.113 256.617C328.113 256.617 361.485 259.283 361.485 211.058C361.485 162.833 328.113 176.28 328.113 176.28V128.866C328.113 128.866 329.078 82.4961 219.626 82.4961H215.655C106.203 82.4961 107.168 128.866 107.168 128.866V176.512C107.168 176.512 74.0107 162.717 74.0107 211.058C74.0107 259.399 107.383 256.617 107.383 256.617C107.383 256.617 101.589 352.604 215.87 352.604H219.626Z" fill="#F9BF82"/>
<path d="M172.516 211.069C172.594 212.689 172.355 214.309 171.816 215.824C171.277 217.338 170.45 218.714 169.388 219.861C168.326 221.008 167.052 221.902 165.651 222.484C164.249 223.067 162.749 223.324 161.249 223.241C158.251 223.241 155.374 221.963 153.244 219.683C151.114 217.404 149.903 214.308 149.875 211.069V201.447C150.149 198.409 151.46 195.59 153.553 193.538C155.645 191.487 158.37 190.351 161.196 190.351C164.021 190.351 166.746 191.487 168.839 193.538C170.931 195.59 172.242 198.409 172.516 201.447V211.069ZM139.573 162.38C145.668 159.748 152.228 158.612 158.778 159.053C165.329 159.494 171.708 161.501 177.453 164.93C183.462 168.524 186.788 162.032 181.53 158.323C174.887 154.65 167.531 152.734 160.069 152.734C152.606 152.734 145.251 154.65 138.608 158.323C136.676 160.061 138.608 162.96 140.11 162.264L139.573 162.38Z" fill="black"/>
<path d="M97.1876 174.772C100.844 174.294 104.552 174.895 107.918 176.511C137.964 151.355 142.686 104.289 142.686 104.289C142.686 104.289 154.811 110.086 217.8 110.086C280.789 110.086 293.451 104.289 293.451 104.289C293.451 104.289 298.173 151.355 328.218 176.511C331.589 174.912 335.293 174.311 338.949 174.772C338.949 174.772 358.694 108.347 327.36 68.3523C327.36 68.3523 306.543 18.9678 217.693 18.9678C128.843 18.9678 129.916 9.69374 111.03 1.34707C92.1442 -6.99959 102.124 25.5756 124.229 40.4141C68.7514 26.503 56.6257 40.4141 99.1191 75.1919C99.1191 75.1919 53.1919 81.1041 94.6122 99.4204C89.8384 111.4 87.5928 124.377 88.0382 137.41C88.4837 150.443 91.609 163.206 97.1876 174.772Z" fill="#8E453C"/>
<path d="M262.872 211.051C262.799 212.621 263.023 214.191 263.529 215.665C264.036 217.139 264.815 218.487 265.819 219.625C266.822 220.764 268.03 221.67 269.368 222.288C270.706 222.907 272.147 223.225 273.603 223.223C275.103 223.306 276.602 223.048 278.004 222.466C279.406 221.884 280.679 220.99 281.741 219.843C282.803 218.695 283.63 217.32 284.169 215.806C284.708 214.291 284.947 212.671 284.87 211.051V201.429C284.87 198.201 283.683 195.105 281.57 192.822C279.457 190.539 276.591 189.257 273.603 189.257C270.614 189.257 267.748 190.539 265.635 192.822C263.522 195.105 262.335 198.201 262.335 201.429L262.872 211.051ZM295.708 162.362C289.613 159.73 283.053 158.594 276.503 159.035C269.952 159.476 263.574 161.483 257.828 164.912C251.819 168.506 248.493 162.014 253.858 158.304C260.496 154.613 267.854 152.688 275.319 152.688C282.785 152.688 290.143 154.613 296.781 158.304C298.712 160.043 296.781 162.941 295.278 162.246L295.708 162.362Z" fill="black"/>
<path d="M108.241 234.247V200.281C108.241 200.281 89.6765 191.703 89.6765 211.874C89.5172 214.646 89.8749 217.425 90.7284 220.046C91.5818 222.667 92.9137 225.076 94.645 227.13C96.3763 229.184 98.4718 230.842 100.807 232.004C103.143 233.167 105.67 233.812 108.241 233.9V234.247ZM327.36 234.247V200.281C327.36 200.281 345.817 191.703 345.817 211.874C345.976 214.637 345.622 217.407 344.775 220.02C343.929 222.633 342.606 225.037 340.886 227.089C339.166 229.142 337.083 230.802 334.761 231.971C332.438 233.141 329.922 233.797 327.36 233.9V234.247Z" fill="#F5A257"/>
<path d="M248.601 262.985C248.073 262.699 247.463 262.648 246.901 262.843C246.339 263.038 245.871 263.464 245.596 264.028C245.596 264.028 240.231 273.998 219.413 273.998H215.55C194.089 273.998 189.368 264.144 189.368 264.028C189.093 263.464 188.624 263.038 188.063 262.843C187.501 262.648 186.891 262.699 186.363 262.985C185.841 263.281 185.447 263.788 185.266 264.395C185.086 265.002 185.133 265.661 185.397 266.231C185.397 266.231 191.728 278.867 215.55 278.867H219.413C243.235 278.867 249.352 267.274 249.567 266.231C249.831 265.661 249.878 265.002 249.697 264.395C249.517 263.788 249.123 263.281 248.601 262.985Z" fill="#8E453C"/>
<path d="M543.478 470.032C547.662 465.047 584.683 426.676 596.487 414.504C605.411 405.225 615.07 396.808 625.352 389.348C625.352 389.348 644.453 400.94 617.626 428.067L645.741 423.662L613.549 495.072L593.59 497.854L572.128 506.433L543.478 470.032Z" fill="#F5A257"/>
<path d="M354.727 402.082V253.001C357.018 253.001 359.288 252.512 361.404 251.561C363.52 250.61 365.441 249.216 367.057 247.46C368.672 245.704 369.951 243.62 370.818 241.328C371.685 239.036 372.124 236.581 372.11 234.105H633.509C633.509 239.117 635.352 243.923 638.632 247.467C641.912 251.011 646.361 253.001 651 253.001V402.082C646.361 402.082 641.912 404.073 638.632 407.617C635.352 411.16 633.509 415.967 633.509 420.978H372.11C372.139 418.498 371.709 416.036 370.847 413.737C369.985 411.439 368.707 409.348 367.089 407.589C365.47 405.83 363.544 404.437 361.421 403.491C359.298 402.546 357.023 402.067 354.727 402.082Z" fill="#FF9999"/>
<path d="M591.87 263.586H413.634V276.686H591.87V263.586Z" fill="white"/>
<path d="M554.209 305.441H451.517V313.556H554.209V305.441Z" fill="white"/>
<path d="M585.324 330.332H420.608V338.447H585.324V330.332Z" fill="white"/>
<path d="M585.324 355.289H420.608V363.404H585.324V355.289Z" fill="white"/>
<path d="M585.324 380.062H420.608V388.177H585.324V380.062Z" fill="white"/>
<path d="M387.129 414.289L408.054 422.404L388.202 480.367L380.905 467.035L367.385 472.252L387.129 414.289Z" fill="#FF0000"/>
<g opacity="0.2">
<path d="M387.129 414.289L408.054 422.404L388.202 480.367L380.905 467.035L367.385 472.252L387.129 414.289Z" fill="#0C0C0C"/>
</g>
<path d="M424.69 414.289L403.873 422.404L423.617 480.367L431.022 467.035L444.542 472.252L424.69 414.289Z" fill="#FF0000"/>
<g opacity="0.08">
<path d="M424.69 414.289L403.873 422.404L423.617 480.367L431.022 467.035L444.542 472.252L424.69 414.289Z" fill="#0C0C0C"/>
</g>
<path d="M397.647 432.266C394.643 431.687 390.35 435.28 387.775 434.005C385.2 432.73 385.2 426.702 382.839 424.731C380.478 422.76 375.22 424.035 373.396 421.601C371.572 419.167 373.396 413.602 372.645 410.82C371.894 408.038 365.884 406.647 365.241 403.517C364.597 400.387 368.889 396.909 368.889 393.547C368.889 390.185 364.597 386.591 365.241 383.577C365.884 380.563 371.357 379.172 372.645 376.39C373.932 373.608 371.572 368.043 373.396 365.609C375.22 363.174 380.585 364.45 382.839 362.479C385.092 360.508 385.2 354.48 387.775 353.205C390.35 351.93 394.643 355.523 397.647 354.828C400.652 354.132 402.798 348.684 405.91 348.684C409.022 348.684 411.382 354.132 414.172 354.828C416.962 355.523 421.362 351.814 423.937 353.205C426.513 354.596 426.513 360.508 428.873 362.479C431.234 364.45 436.492 363.058 438.316 365.609C440.141 368.159 438.316 373.492 439.175 376.39C440.033 379.288 445.828 380.447 446.472 383.577C447.115 386.707 442.823 390.417 442.823 393.547C442.823 396.677 447.115 400.502 446.472 403.517C445.828 406.531 440.355 407.922 439.175 410.82C437.994 413.718 440.248 419.051 438.316 421.601C436.385 424.151 431.127 422.76 428.873 424.731C426.62 426.702 426.513 432.614 423.937 434.005C421.362 435.396 417.07 431.687 414.172 432.266C411.275 432.846 408.914 438.41 405.91 438.41C402.905 438.41 400.544 433.194 397.647 432.266Z" fill="#FF0000"/>
<path d="M405.907 426.677C422.857 426.677 436.597 411.833 436.597 393.522C436.597 375.211 422.857 360.367 405.907 360.367C388.958 360.367 375.218 375.211 375.218 393.522C375.218 411.833 388.958 426.677 405.907 426.677Z" fill="white"/>
<path d="M605.179 421.233C592.087 426.681 586.507 438.042 596.702 440.245C600.975 440.863 605.305 440.863 609.578 440.245C604.32 441.868 599.384 443.606 595.629 445.113C582.43 450.678 576.957 462.039 587.151 464.125C588.831 464.244 590.515 464.244 592.195 464.125H591.014C578.889 469.226 573.845 479.659 583.181 481.514H585.434C576.528 484.296 572.45 491.02 579.211 493.918C589.832 495.94 600.642 496.563 611.403 495.773C613.445 495.663 615.439 495.058 617.235 494.002C619.032 492.947 620.586 491.468 621.781 489.675C622.977 487.883 623.784 485.822 624.142 483.647C624.5 481.472 624.4 479.237 623.85 477.109C626.138 476.654 628.297 475.631 630.156 474.12C632.015 472.61 633.525 470.654 634.565 468.406C635.605 466.158 636.148 463.68 636.151 461.167C636.154 458.654 635.616 456.174 634.581 453.924C646.921 448.939 645.955 434.101 641.878 432.593H640.483C653.467 427.261 652.394 412.306 644.024 411.031C630.974 412.011 618.133 415.098 605.93 420.189L605.179 421.233Z" fill="#F9BF82"/>
</g>
<defs>
<clipPath id="clip0_942_59">
<rect width="649.049" height="1530.82" fill="white"/>
</clipPath>
</defs>
</svg>
