<svg clip-rule="evenodd" fill-rule="evenodd" height="1.707in" image-rendering="optimizeQuality" shape-rendering="geometricPrecision" text-rendering="geometricPrecision" viewBox="0 0 1707 1707" width="1.707in" xmlns="http://www.w3.org/2000/svg"><g id="Layer_x0020_1"><path d="m1275 1707h-1159c-11 0-20-9-20-20v-1667c0-11 9-20 20-20h1475c11 0 20 9 20 20v1349c0 5-3 10-6 14l-316 318c-4 4-9 6-14 6zm-1139-40h1130l305-306v-1321h-1435z"/><path d="m1274 1557h-878c-11 0-20-9-20-20 0-61-50-110-111-110-11 0-20-9-20-20v-1107c0-11 9-20 20-20 61 0 111-50 111-111 0-11 9-20 20-20h893c11 0 20 9 20 20 0 69 61 121 129 110 12-2 23 7 23 19v1009l-1 64c0 11-9 20-20 20h-146v146c0 11-9 20-20 20zm-859-40h839v-146c0-12 9-20 20-20l147-1v-43-987c-77 1-141-56-151-131h-855c-9 68-62 121-130 130v1069c68 9 121 62 130 129z"/><path d="m1275 1707c-12 0-21-9-21-20v-317c0-11 9-20 20-20h315c18 0 27 22 14 35l-314 316c-4 4-9 6-14 6zm19-317v248l247-248z"/><path d="m1342 873h-731c-26 0-26-40 0-40h731c27 0 27 40 0 40zm-871 0h-107c-26 0-26-40 0-40h107c26 0 26 40 0 40z"/><path d="m1342 1012h-268c-27 0-27-40 0-40h268c27 0 27 40 0 40zm-409 0h-569c-26 0-26-40 0-40h569c27 0 27 40 0 40z"/><path d="m1342 1151h-506c-26 0-26-40 0-40h506c27 0 27 40 0 40zm-646 0h-332c-26 0-26-40 0-40h332c26 0 26 40 0 40z"/><path d="m665 1477c-24 0-25-30-35-62-19 0-39 0-60-1-12 32-14 66-40 58-25-7-10-39-2-61-273-32-86-181 144-181 88 0 104 61 66 141 104-3 66 28 98 38 59 17 127-118 187-25 15 22-19 44-33 21-20-29-27-8-82 25-89 53-122-15-124-17-10-3-40-2-68-1-18 30-32 65-51 65zm-78-102h30l-12-29c-5 5-11 15-18 29zm20-71c32 0 42 41 52 71 12-1 23-1 33-2 34-60 43-103-20-103-124 0-235 54-238 74s6 8 38 16c23 6 48 10 72 12 17-38 38-68 63-68z"/><path d="m853 640c-14 0-55-34-68-39-26-11-76-7-82-31-19-83-6-52-52-124-13-21 26-54 37-80 10-25 6-76 30-81 83-19 53-7 125-52 20-13 53 26 79 37 26 10 76 6 82 30 18 82 6 53 51 124 13 21-25 54-36 80-11 25-7 76-30 81-83 19-53 7-125 52-3 2-7 3-11 3zm-114-91c76 18 48 6 114 47 67-41 38-29 114-47 18-76 6-48 48-114-42-66-30-38-48-114-76-17-47-6-114-47-66 41-38 30-114 47-17 76-6 48-47 114 41 66 30 38 47 114z"/><path d="m966 806c-7 0-14-4-17-10l-101-174c-13-23 24-37 56-57l63-16c5-21 29-21 38-7l95 167c10 16-7 35-25 28l-79-34-10 86c-1 10-10 17-20 17zm-73-187 60 105c11-84 5-81 83-47l-52-91c-60 14-49 6-91 33z"/><path d="m741 806c-10 0-19-7-20-17l-11-86-79 34c-17 7-34-12-25-28l96-167c9-14 32-14 37 7 75 17 48 6 113 46 9 6 12 18 6 27l-100 174c-4 6-10 10-17 10zm-14-152c25 0 22 35 26 70l61-105c-42-27-31-19-91-33l-52 91c10-5 48-23 56-23z"/></g></svg>