<svg height="512" viewBox="0 0 64 64" width="512" xmlns="http://www.w3.org/2000/svg"><g id="Vaccine-Injection-Verification-Syring-Drug"><path d="m41 37v-1.05c.33.02.66.05 1 .05a17.052 17.052 0 1 0 -12.69-5.72.98.98 0 0 0 -.31.72v6a1 1 0 0 0 1 1v1.59l-2.71 2.7a1.033 1.033 0 0 0 -.29.71v18a1 1 0 0 0 1 1h14a1 1 0 0 0 1-1v-18a1.033 1.033 0 0 0 -.29-.71l-2.71-2.7v-1.59a1 1 0 0 0 1-1zm0 23h-12v-2h12zm0-4h-12v-10h12zm0-12.59v.59h-12v-.59l2.71-2.7a1.033 1.033 0 0 0 .29-.71v-2h6v2a1.033 1.033 0 0 0 .29.71zm-10-7.41v-4h.07a16.983 16.983 0 0 0 7.93 3.72v.28zm-4-17a15 15 0 1 1 15 15 15.018 15.018 0 0 1 -15-15z"/><path d="m34 54h2v-2h2v-2h-2v-2h-2v2h-2v2h2z"/><path d="m37.757 26.485a2 2 0 0 0 2.829 0l9.193-9.192a3 3 0 0 0 -4.243-4.242l-6.365 6.363-.707-.707a3.073 3.073 0 0 0 -4.243 0 3 3 0 0 0 0 4.242zm-2.121-6.364a1 1 0 0 1 1.414 0l1.414 1.414a1 1 0 0 0 1.414 0l7.072-7.07a1 1 0 0 1 1.414 0 1 1 0 0 1 0 1.414l-9.193 9.192-3.535-3.536a1 1 0 0 1 0-1.414z"/><path d="m20 52a2.006 2.006 0 0 0 2-2v-2a3 3 0 0 0 0-6v-18a2.006 2.006 0 0 0 -2-2v-2a2.006 2.006 0 0 0 -2-2v-4a2.006 2.006 0 0 0 -2-2v-10h-2v10a2.006 2.006 0 0 0 -2 2v4a2.006 2.006 0 0 0 -2 2v2a2.006 2.006 0 0 0 -2 2v18a3 3 0 0 0 0 6v2a2.006 2.006 0 0 0 2 2h1v4h-1a3 3 0 0 0 0 6h10a3 3 0 0 0 0-6h-1v-4zm-6-38h2v4h-2zm-2 6h6v2h-6zm-2 4h10v2h-3v2h3v2h-5v2h5v2h-10zm0 12h10v2h-5v2h5v2h-10zm-2 10a1 1 0 0 1 0-2h14a1 1 0 0 1 0 2zm12 12a1 1 0 0 1 0 2h-10a1 1 0 0 1 0-2zm-7-2v-4h4v4zm-3-6v-2h10v2z"/></g></svg>