<svg xmlns="http://www.w3.org/2000/svg" viewBox="0 0 20 20" id="licensed">
  <path d="M15.729 6.654a1.122 1.122 0 0 1-.271-.84 2.123 2.123 0 0 0-1.644-2.259 1.122 1.122 0 0 1-.714-.52 2.123 2.123 0 0 0-2.658-.862 1.12 1.12 0 0 1-.884 0 2.121 2.121 0 0 0-2.657.863 1.123 1.123 0 0 1-.717.52 2.124 2.124 0 0 0-1.641 2.26 1.114 1.114 0 0 1-.25.815l-.003.003-.022.024a2.125 2.125 0 0 0 .003 2.795 1.122 1.122 0 0 1 .271.84 2.123 2.123 0 0 0 1.644 2.259 1.114 1.114 0 0 1 .426.203v3.987a1.255 1.255 0 0 0 1.8 1.133l1.477-.709a.253.253 0 0 1 .222 0l1.476.709a1.257 1.257 0 0 0 1.801-1.133v-3.987a1.115 1.115 0 0 1 .428-.203 2.124 2.124 0 0 0 1.641-2.26 1.126 1.126 0 0 1 .275-.843 2.125 2.125 0 0 0-.003-2.795Zm-3.46 10.305a.25.25 0 0 1-.249.014l-1.476-.708a1.251 1.251 0 0 0-1.088 0l-1.476.708a.25.25 0 0 1-.248-.014.253.253 0 0 1-.12-.217v-2.959a2.11 2.11 0 0 0 1.946.152 1.12 1.12 0 0 1 .884 0 2.087 2.087 0 0 0 .833.172 2.125 2.125 0 0 0 1.113-.326v2.96a.253.253 0 0 1-.12.218Zm2.708-8.166a2.13 2.13 0 0 0-.516 1.592 1.12 1.12 0 0 1-.867 1.192 2.126 2.126 0 0 0-1.355.984 1.117 1.117 0 0 1-1.402.455 2.124 2.124 0 0 0-1.675 0 1.118 1.118 0 0 1-1.402-.455 2.128 2.128 0 0 0-1.355-.985 1.12 1.12 0 0 1-.866-1.195 2.128 2.128 0 0 0-.52-1.591 1.12 1.12 0 0 1 0-1.472l.004-.004a2.13 2.13 0 0 0 .516-1.592 1.12 1.12 0 0 1 .867-1.192 2.127 2.127 0 0 0 1.355-.983 1.118 1.118 0 0 1 1.402-.456 2.124 2.124 0 0 0 1.675 0 1.122 1.122 0 0 1 1.402.456 2.128 2.128 0 0 0 1.355.984 1.12 1.12 0 0 1 .866 1.195 2.128 2.128 0 0 0 .52 1.592 1.121 1.121 0 0 1-.004 1.475ZM10 4.09a3.965 3.965 0 1 0 3.965 3.964A3.97 3.97 0 0 0 10 4.09Zm0 6.93a2.965 2.965 0 1 1 2.965-2.966A2.968 2.968 0 0 1 10 11.02Zm1.494-4.184a.5.5 0 0 1 .139.694L10.8 8.777a1.3 1.3 0 0 1-1.074.58h-.01a1.3 1.3 0 0 1-1.071-.565l-.274-.398a.5.5 0 1 1 .823-.568l.274.399a.299.299 0 0 0 .25.131.276.276 0 0 0 .25-.134l.832-1.248a.499.499 0 0 1 .693-.139Z"></path>
</svg>
