<svg width="682" height="682" viewBox="0 0 682 682" fill="none" xmlns="http://www.w3.org/2000/svg">
<g clip-path="url(#clip0_15_160)">
<path d="M380.764 576.639C435.544 591.109 494.615 599.317 559.793 579.302V389.157H511.972C472.062 454.241 428.247 516.85 380.764 576.639Z" fill="#DC2626"/>
<path d="M662.056 525.505L647.57 399.929C646.858 393.797 641.667 389.162 635.493 389.157H584.14V570.548C611.931 558.923 638.114 543.787 662.056 525.505Z" fill="#DC2626"/>
<path d="M507.301 206.544C507.301 121.237 438.145 52.0806 352.832 52.0806C267.526 52.0806 198.369 121.237 198.369 206.544C198.369 291.851 267.526 361.008 352.832 361.008C438.108 360.93 507.218 291.82 507.301 206.544ZM304.138 303.939V255.239H255.443C241.998 255.239 231.096 244.342 231.096 230.892V182.197C231.096 168.751 241.998 157.849 255.443 157.849H304.138V109.155C304.138 95.704 315.04 84.8021 328.485 84.8021H377.185C390.63 84.8021 401.532 95.704 401.532 109.155V157.849H450.227C463.673 157.849 474.575 168.751 474.575 182.197V230.892C474.575 244.342 463.673 255.239 450.227 255.239H401.532V303.939C401.532 317.384 390.63 328.286 377.185 328.286H328.485C315.04 328.286 304.138 317.384 304.138 303.939Z" fill="#DC2626"/>
<path d="M377.185 303.939V255.239C377.185 241.794 388.082 230.892 401.533 230.892H450.227V182.197H401.533C388.082 182.197 377.185 171.295 377.185 157.85V109.155H328.485V157.85C328.485 171.295 317.588 182.197 304.138 182.197H255.443V230.892H304.138C317.588 230.892 328.485 241.794 328.485 255.239V303.939H377.185Z" fill="#DC2626"/>
<path d="M355.272 569.404C400.435 512.673 559.382 305.775 559.382 206.544C559.382 92.4742 466.908 0 352.832 0C238.762 0 146.288 92.4742 146.288 206.544C146.288 304.631 301.594 507.924 348.781 567.433L355.272 569.404ZM174.022 206.544C174.022 107.792 254.08 27.7334 352.832 27.7334C451.59 27.7334 531.649 107.792 531.649 206.544C531.649 305.302 451.59 385.355 352.832 385.355C254.111 385.277 174.105 305.265 174.022 206.544Z" fill="black"/>
<path d="M665.271 553.202C611.713 593.132 546.811 614.941 480.005 615.446C440.75 614.723 401.777 608.601 364.192 597.246C363.282 598.344 362.564 599.233 362.221 599.681C359.906 602.484 356.468 604.102 352.833 604.102C349.202 604.102 345.764 602.484 343.449 599.681C342.513 598.552 339.273 594.594 334.394 588.529L319.783 584.025C279.452 571.484 241.358 559.677 206.712 559.677C182.286 559.672 157.887 561.243 133.665 564.39V681.331H666.389C669.863 681.336 673.171 679.854 675.486 677.258C677.795 674.668 678.893 671.209 678.492 667.761L665.271 553.202Z" fill="#DC2626"/>
<path d="M307.997 554.871C266.865 501.781 228.708 446.46 193.698 389.157H133.701V539.725C157.934 536.734 182.328 535.236 206.748 535.247C241.269 536.838 275.38 543.449 307.997 554.871Z" fill="#DC2626"/>
<path d="M56.6539 399.029L24.645 565.425C52.1028 555.313 80.4708 547.881 109.354 543.231V389.157H68.5962C62.7655 389.162 57.7566 393.303 56.6539 399.029Z" fill="#DC2626"/>
<path d="M5.12952 666.856C4.44295 670.424 5.38439 674.111 7.69897 676.91C10.0136 679.713 13.4568 681.331 17.0874 681.331H109.354V567.994C78.3433 572.993 48.0508 581.736 19.1419 594.022L5.12952 666.856Z" fill="#DC2626"/>
</g>
<defs>
<clipPath id="clip0_15_160">
<rect width="681.333" height="681.333" fill="white"/>
</clipPath>
</defs>
</svg>
