<svg id="SvgjsSvg1122" width="288" height="288" xmlns="http://www.w3.org/2000/svg" version="1.1" xmlns:xlink="http://www.w3.org/1999/xlink" xmlns:svgjs="http://svgjs.com/svgjs"><defs id="SvgjsDefs1123"></defs><g id="SvgjsG1124"><svg xmlns="http://www.w3.org/2000/svg" viewBox="0 0 64 64" width="288" height="288"><g><g><path d="M63,57H35a1,1,0,0,1,0-2H62V5H35V7.08a1,1,0,0,1-2,0V4a1,1,0,0,1,1-1H63a1,1,0,0,1,1,1V56A1,1,0,0,1,63,57Z" fill="#000000" class="svgShape color000000-2 selectable"></path><path d="M57 15H53a3 3 0 010-6h4a3 3 0 010 6zm-4-4a1 1 0 000 2h4a1 1 0 000-2zM44 15H40a3 3 0 010-6h4a3 3 0 010 6zm-4-4a1 1 0 000 2h4a1 1 0 000-2zM57 24H53a3 3 0 010-6h4a3 3 0 010 6zm-4-4a1 1 0 000 2h4a1 1 0 000-2zM44 24H40a3 3 0 010-6h4a3 3 0 010 6zm-4-4a1 1 0 000 2h4a1 1 0 000-2zM57 33H53a3 3 0 010-6h4a3 3 0 010 6zm-4-4a1 1 0 000 2h4a1 1 0 000-2zM44 33H40a3 3 0 010-6h4a3 3 0 010 6zm-4-4a1 1 0 000 2h4a1 1 0 000-2zM57 42H53a3 3 0 010-6h4a3 3 0 010 6zm-4-4a1 1 0 000 2h4a1 1 0 000-2zM44 42H40a3 3 0 010-6h4a3 3 0 010 6zm-4-4a1 1 0 000 2h4a1 1 0 000-2zM57 51H53a3 3 0 010-6h4a3 3 0 010 6zm-4-4a1 1 0 000 2h4a1 1 0 000-2zM44 51H40a3 3 0 010-6h4a3 3 0 010 6zm-4-4a1 1 0 000 2h4a1 1 0 000-2zM32 21H14a3 3 0 01-3-3V12a3 3 0 013-3H32a3 3 0 013 3v6A3 3 0 0132 21zM14 11a1 1 0 00-1 1v6a1 1 0 001 1H32a1 1 0 001-1V12a1 1 0 00-1-1z" fill="#dc2626" class="svgShape color000000-3 selectable"></path><path d="M23 18a1 1 0 01-1-1V13a1 1 0 012 0v4A1 1 0 0123 18zM27 18a1 1 0 01-1-1V13a1 1 0 012 0v4A1 1 0 0127 18zM31 18a1 1 0 01-1-1V13a1 1 0 012 0v4A1 1 0 0131 18zM15 18a1 1 0 01-1-1V13a1 1 0 012 0v4A1 1 0 0115 18zM19 18a1 1 0 01-1-1V13a1 1 0 012 0v4A1 1 0 0119 18zM31 59H20a1 1 0 010-2H31a3 3 0 003-3V31.385a6.92 6.92 0 00-4.372-6.456A1 1 0 0129 24V21H17v3a1 1 0 01-.628.929A6.92 6.92 0 0012 31.385V39a1 1 0 01-2 0V31.385a8.906 8.906 0 015-8.034V20a1 1 0 011-1H30a1 1 0 011 1v3.351a8.906 8.906 0 015 8.034V54A5.006 5.006 0 0131 59z" fill="#000000" class="svgShape color000000-4 selectable"></path><path d="M35,52H20a1,1,0,0,1,0-2H34V34H12V46a1,1,0,0,1-2,0V33a1,1,0,0,1,1-1H35a1,1,0,0,1,1,1V51A1,1,0,0,1,35,52Z" fill="#000000" class="svgShape color000000-5 selectable"></path><path d="M25 49H21a1 1 0 01-1-1V45H17a1 1 0 01-1-1V40a1 1 0 011-1h3V36a1 1 0 011-1h4a1 1 0 011 1v3h3a1 1 0 011 1v4a1 1 0 01-1 1H26v3A1 1 0 0125 49zm-3-2h2V44a1 1 0 011-1h3V41H25a1 1 0 01-1-1V37H22v3a1 1 0 01-1 1H18v2h3a1 1 0 011 1zM15.5 61h-9a6.5 6.5 0 010-13h9a6.5 6.5 0 010 13zm-9-11a4.5 4.5 0 000 9h9a4.5 4.5 0 000-9z" fill="#000000" class="svgShape color000000-6 selectable"></path><path d="M11,61a1,1,0,0,1-1-1V49a1,1,0,0,1,2,0V60A1,1,0,0,1,11,61Z" fill="#000000" class="svgShape color000000-7 selectable"></path></g></g></svg></g></svg>