<svg xmlns="http://www.w3.org/2000/svg" enable-background="new 0 0 32 32" viewBox="0 0 32 32" id="medical-report">
  <g>
    <path d="M25,5.25h-4.25V5c0-0.96484-0.78516-1.75-1.75-1.75h-6c-0.96484,0-1.75,0.78516-1.75,1.75v0.25H7
		C6.03516,5.25,5.25,6.03516,5.25,7v20c0,0.96484,0.78516,1.75,1.75,1.75h18c0.96484,0,1.75-0.78516,1.75-1.75V7
		C26.75,6.03516,25.96484,5.25,25,5.25z M12.75,5c0-0.1377,0.1123-0.25,0.25-0.25h6c0.1377,0,0.25,0.1123,0.25,0.25v2.25h-6.5V5z
		 M25.25,27c0,0.13574-0.11426,0.25-0.25,0.25H7c-0.13574,0-0.25-0.11426-0.25-0.25V7c0-0.13574,0.11426-0.25,0.25-0.25h4.25V8
		c0,0.41406,0.33594,0.75,0.75,0.75h8c0.41406,0,0.75-0.33594,0.75-0.75V6.75H25c0.13574,0,0.25,0.11426,0.25,0.25V27z"></path>
    <path d="M20 10.54688c-1.01465-.38086-2.15381-.14453-2.93311.63672C16.54004 11.70996 16.25 12.41016 16.25 13.15527s.29004 1.44531.81689 1.97168c0 0 2.39837 2.39886 2.40283 2.40331.2896.28966.77152.28903 1.06055.00001l2.40283-2.40332C23.45996 14.60059 23.75 13.9004 23.75 13.15529 23.75001 11.24783 21.78836 9.8743 20 10.54688zM21.87256 14.06641L20 15.93945l-1.87256-1.87305c-.24363-.24314-.37742-.56733-.37744-.91105-.00006-.94873 1.06501-1.5719 1.89502-1.12703.22166.11913.48823.11914.7099.00003.83429-.44829 1.89508.17882 1.89508 1.12692C22.25 13.49902 22.11621 13.82324 21.87256 14.06641zM9 12.75h5c.41406 0 .75-.33594.75-.75s-.33594-.75-.75-.75H9c-.41406 0-.75.33594-.75.75S8.58594 12.75 9 12.75zM9 15.75h5c.41406 0 .75-.33594.75-.75s-.33594-.75-.75-.75H9c-.41406 0-.75.33594-.75.75S8.58594 15.75 9 15.75zM23 22.25h-2.59863c0 0-1.77631-2.66447-1.77734-2.66602-.32942-.49413-1.09964-.41399-1.32031.1377l-1.37988 3.44922-2.25293-4.50586c-.25391-.50977-1.08789-.50977-1.3418 0L10.53662 22.25H9c-.41406 0-.75.33594-.75.75S8.58594 23.75 9 23.75h2c.28418 0 .54395-.16016.6709-.41504L13 20.67676c0 0 2.32589 4.65177 2.3291 4.6582.28409.56817 1.13233.53263 1.36719-.05663l1.4707-3.67578 1.20898 1.81348C19.51514 23.625 19.74902 23.75 20 23.75h3c.41406 0 .75-.33594.75-.75S23.41406 22.25 23 22.25z"></path>
  </g>
</svg>
