<?xml version="1.0" encoding="UTF-8" standalone="no"?>
<!-- Created with Inkscape (http://www.inkscape.org/) -->

<svg
   version="1.1"
   id="svg2139"
   xml:space="preserve"
   width="682.66669"
   height="682.66669"
   viewBox="0 0 682.66669 682.66669"
   xmlns="http://www.w3.org/2000/svg"
   xmlns:svg="http://www.w3.org/2000/svg"><defs
     id="defs2143"><clipPath
       clipPathUnits="userSpaceOnUse"
       id="clipPath2153"><path
         d="M 0,512 H 512 V 0 H 0 Z"
         id="path2151" /></clipPath></defs><g
     id="g2145"
     transform="matrix(1.3333333,0,0,-1.3333333,0,682.66667)"><g
       id="g2147"><g
         id="g2149"
         clip-path="url(#clipPath2153)"><g
           id="g2155"
           transform="translate(368.2256,320.1289)"><path
             d="m 0,0 v 24.049 c 0,61.98 -50.245,112.225 -112.226,112.225 -59.285,0 -107.834,-45.969 -111.944,-104.209"
             style="fill:none;stroke:#000000;stroke-width:15;stroke-linecap:round;stroke-linejoin:round;stroke-miterlimit:10;stroke-dasharray:none;stroke-opacity:1"
             id="path2157" /></g><g
           id="g2159"
           transform="translate(320.1289,392.2744)"><path
             d="m 0,0 c 0,0 -52.428,-37.448 -128.324,-47.189 -4.516,-0.58 -7.95,-4.339 -7.95,-8.892 v -0.032 c 0,-8.855 -7.178,-16.033 -16.033,-16.033 h -12.023 c -11.75,0 -21.138,-10.111 -19.937,-22.106 1.044,-10.432 10.597,-17.975 21.08,-17.975 l 10.882,0.001 c -0.001,-48.699 39.478,-88.177 88.177,-88.177 48.698,0 88.177,39.477 88.177,88.176 v 0.001 h 12.024 c 11.75,0 21.138,10.112 19.936,22.108 -1.045,10.43 -10.598,17.972 -21.081,17.972 H 24.049 c -8.855,0 -16.032,7.178 -16.032,16.033 v 5.291 c 0,19.214 -15.577,34.79 -34.79,34.79 h -0.031"
             style="fill:none;stroke:#000000;stroke-width:15;stroke-linecap:round;stroke-linejoin:round;stroke-miterlimit:10;stroke-dasharray:none;stroke-opacity:1"
             id="path2161" /></g><g
           id="g2163"
           transform="translate(320.1289,440.3711)"><path
             d="M 0,0 C 0,35.417 -28.711,64.129 -64.129,64.129 -99.547,64.129 -128.258,35.417 -128.258,0"
             style="fill:none;stroke:#000000;stroke-width:15;stroke-linecap:round;stroke-linejoin:round;stroke-miterlimit:10;stroke-dasharray:none;stroke-opacity:1"
             id="path2165" /></g><g
           id="g2167"
           transform="translate(215.9189,199.8867)"><path
             d="m 0,0 v -32.268 c 0,-9.622 -5.735,-18.318 -14.58,-22.106 l -73.344,-31.411 c -14.742,-6.314 -24.302,-20.808 -24.302,-36.844 v -69.758"
             style="fill:none;stroke:#000000;stroke-width:15;stroke-linecap:round;stroke-linejoin:round;stroke-miterlimit:10;stroke-dasharray:none;stroke-opacity:1"
             id="path2169" /></g><g
           id="g2171"
           transform="translate(296.0811,199.8867)"><path
             d="m 0,0 v -32.268 c 0,-9.622 5.735,-18.318 14.58,-22.106 l 73.344,-31.411 c 14.742,-6.314 24.302,-20.808 24.302,-36.844 v -69.758"
             style="fill:none;stroke:#000000;stroke-width:15;stroke-linecap:round;stroke-linejoin:round;stroke-miterlimit:10;stroke-dasharray:none;stroke-opacity:1"
             id="path2173" /></g><g
           id="g2175"
           transform="translate(215.9189,304.0967)"><path
             d="M 0,0 V -8.016"
             style="fill:none;stroke:#000000;stroke-width:15;stroke-linecap:round;stroke-linejoin:round;stroke-miterlimit:10;stroke-dasharray:none;stroke-opacity:1"
             id="path2177" /></g><g
           id="g2179"
           transform="translate(296.0811,304.0967)"><path
             d="M 0,0 V -8.016"
             style="fill:none;stroke:#000000;stroke-width:15;stroke-linecap:round;stroke-linejoin:round;stroke-miterlimit:10;stroke-dasharray:none;stroke-opacity:1"
             id="path2181" /></g><g
           id="g2183"
           transform="translate(231.9512,256)"><path
             d="m 0,0 c 5.931,-4.889 14.443,-8.017 24.049,-8.017 9.605,0 18.118,3.128 24.049,8.017"
             style="fill:none;stroke:#000000;stroke-width:15;stroke-linecap:round;stroke-linejoin:round;stroke-miterlimit:10;stroke-dasharray:none;stroke-opacity:1"
             id="path2185" /></g><g
           id="g2187"
           transform="translate(183.8545,135.7578)"><path
             d="m 0,0 63.252,-42.168 c 5.386,-3.59 12.401,-3.59 17.787,0 L 144.291,0"
             style="fill:none;stroke:#000000;stroke-width:15;stroke-linecap:round;stroke-linejoin:round;stroke-miterlimit:10;stroke-dasharray:none;stroke-opacity:1"
             id="path2189" /></g><g
           id="g2191"
           transform="translate(151.79,7.5)"><path
             d="m 0,0 c -8.854,0 -16.032,7.178 -16.032,16.032 v 32.065 c 0,8.854 7.178,16.032 16.032,16.032 h 64.129 c 8.854,0 16.032,-7.178 16.032,-16.032 V 16.032 C 80.161,7.178 72.983,0 64.129,0"
             style="fill:none;stroke:#000000;stroke-width:15;stroke-linecap:round;stroke-linejoin:round;stroke-miterlimit:10;stroke-dasharray:none;stroke-opacity:1"
             id="path2193" /></g><g
           id="g2195"
           transform="translate(183.8545,71.6289)"><path
             d="M 0,0 V 56.113"
             style="fill:none;stroke:#000000;stroke-width:15;stroke-linecap:round;stroke-linejoin:round;stroke-miterlimit:10;stroke-dasharray:none;stroke-opacity:1"
             id="path2197" /></g><g
           id="g2199"
           transform="translate(328.1455,135.7578)"><path
             d="M 0,0 V -80.161"
             style="fill:none;stroke:#000000;stroke-width:15;stroke-linecap:round;stroke-linejoin:round;stroke-miterlimit:10;stroke-dasharray:none;stroke-opacity:1"
             id="path2201" /></g><g
           id="g2203"
           transform="translate(352.1934,31.5488)"><path
             d="m 0,0 c 0,-13.282 -10.767,-24.049 -24.048,-24.049 -13.282,0 -24.049,10.767 -24.049,24.049 0,13.281 10.767,24.048 24.049,24.048 C -10.767,24.048 0,13.281 0,0 Z"
             style="fill:none;stroke:#000000;stroke-width:15;stroke-linecap:round;stroke-linejoin:round;stroke-miterlimit:10;stroke-dasharray:none;stroke-opacity:1"
             id="path2205" /></g><g
           id="g2207"
           transform="translate(432.3545,175.8389)"><path
             d="m 0,0 v 0 c -26.562,0 -48.097,21.533 -48.097,48.097 v 24.048 c 0,17.709 14.357,32.065 32.065,32.065 h 32.064 c 17.709,0 32.065,-14.356 32.065,-32.065 V 48.097 C 48.097,21.533 26.563,0 0,0 Z"
             style="fill:none;stroke:#000000;stroke-width:15;stroke-linecap:round;stroke-linejoin:round;stroke-miterlimit:10;stroke-dasharray:none;stroke-opacity:1"
             id="path2209" /></g><g
           id="g2211"
           transform="translate(504.5,63.6133)"><path
             d="m 0,0 v 60.59 c 0,6.9 -4.416,13.027 -10.963,15.209 L -42.615,86.35 c -3.274,1.091 -5.482,4.154 -5.482,7.605 v 23.841"
             style="fill:none;stroke:#000000;stroke-width:15;stroke-linecap:round;stroke-linejoin:round;stroke-miterlimit:10;stroke-dasharray:none;stroke-opacity:1"
             id="path2213" /></g><g
           id="g2215"
           transform="translate(408.3066,181.4092)"><path
             d="m 0,0 v -23.841 c 0,-3.451 -2.208,-6.513 -5.481,-7.605 l -10.551,-3.517"
             style="fill:none;stroke:#000000;stroke-width:15;stroke-linecap:round;stroke-linejoin:round;stroke-miterlimit:10;stroke-dasharray:none;stroke-opacity:1"
             id="path2217" /></g><g
           id="g2219"
           transform="translate(403.4062,149.4531)"><path
             d="m 0,0 24.139,-18.104 c 2.85,-2.137 6.769,-2.137 9.619,0 L 57.897,0"
             style="fill:none;stroke:#000000;stroke-width:15;stroke-linecap:round;stroke-linejoin:round;stroke-miterlimit:10;stroke-dasharray:none;stroke-opacity:1"
             id="path2221" /></g><g
           id="g2223"
           transform="translate(79.6455,175.8389)"><path
             d="m 0,0 v 0 c 26.562,0 48.097,21.533 48.097,48.097 v 32.064 c 0,13.281 -10.767,24.049 -24.049,24.049 h -48.097 c -13.281,0 -24.048,-10.768 -24.048,-24.049 V 48.097 C -48.097,21.533 -26.563,0 0,0 Z"
             style="fill:none;stroke:#000000;stroke-width:15;stroke-linecap:round;stroke-linejoin:round;stroke-miterlimit:10;stroke-dasharray:none;stroke-opacity:1"
             id="path2225" /></g><g
           id="g2227"
           transform="translate(7.5,63.6133)"><path
             d="m 0,0 v 60.59 c 0,6.9 4.416,13.027 10.963,15.209 L 42.615,86.35 c 3.274,1.091 5.482,4.154 5.482,7.605 v 23.841"
             style="fill:none;stroke:#000000;stroke-width:15;stroke-linecap:round;stroke-linejoin:round;stroke-miterlimit:10;stroke-dasharray:none;stroke-opacity:1"
             id="path2229" /></g><g
           id="g2231"
           transform="translate(103.6934,181.4092)"><path
             d="m 0,0 v -23.841 c 0,-3.451 2.208,-6.513 5.481,-7.605 l 10.551,-3.517"
             style="fill:none;stroke:#000000;stroke-width:15;stroke-linecap:round;stroke-linejoin:round;stroke-miterlimit:10;stroke-dasharray:none;stroke-opacity:1"
             id="path2233" /></g><g
           id="g2235"
           transform="translate(108.5938,149.4531)"><path
             d="m 0,0 -24.139,-18.104 c -2.85,-2.137 -6.769,-2.137 -9.619,0 L -57.897,0"
             style="fill:none;stroke:#000000;stroke-width:15;stroke-linecap:round;stroke-linejoin:round;stroke-miterlimit:10;stroke-dasharray:none;stroke-opacity:1"
             id="path2237" /></g><g
           id="g2239"
           transform="translate(39.5645,63.6133)"><path
             d="m 0,0 c -4.427,0 -8.016,3.589 -8.016,8.016 v 16.032 c 0,4.428 3.589,8.016 8.016,8.016 h 32.064 c 4.428,0 8.017,-3.588 8.017,-8.016 V 8.016 C 40.081,3.589 36.492,0 32.064,0"
             style="fill:none;stroke:#000000;stroke-width:15;stroke-linecap:round;stroke-linejoin:round;stroke-miterlimit:10;stroke-dasharray:none;stroke-opacity:1"
             id="path2241" /></g><g
           id="g2243"
           transform="translate(55.5967,95.6777)"><path
             d="M 0,0 V 48.097"
             style="fill:none;stroke:#000000;stroke-width:15;stroke-linecap:round;stroke-linejoin:round;stroke-miterlimit:10;stroke-dasharray:none;stroke-opacity:1"
             id="path2245" /></g><g
           id="g2247"
           transform="translate(464.4189,95.6777)"><path
             d="M 0,0 V 48.097"
             style="fill:none;stroke:#000000;stroke-width:15;stroke-linecap:round;stroke-linejoin:round;stroke-miterlimit:10;stroke-dasharray:none;stroke-opacity:1"
             id="path2249" /></g><g
           id="g2251"
           transform="translate(480.4512,79.6455)"><path
             d="m 0,0 c 0,8.854 -7.178,16.032 -16.032,16.032 -8.854,0 -16.032,-7.178 -16.032,-16.032 0,-8.854 7.178,-16.032 16.032,-16.032 C -7.178,-16.032 0,-8.854 0,0 Z"
             style="fill:none;stroke:#000000;stroke-width:15;stroke-linecap:round;stroke-linejoin:round;stroke-miterlimit:10;stroke-dasharray:none;stroke-opacity:1"
             id="path2253" /></g><g
           id="g2255"
           transform="translate(127.7422,231.9512)"><path
             d="m 0,0 c -29.837,0 -50.789,13.327 -59.551,20.139 -2.859,2.223 -6.8,2.244 -9.697,0.071 L -96.193,0"
             style="fill:none;stroke:#000000;stroke-width:15;stroke-linecap:round;stroke-linejoin:round;stroke-miterlimit:10;stroke-dasharray:none;stroke-opacity:1"
             id="path2257" /></g></g></g></g></svg>
