<svg id="SvgjsSvg1148" width="288" height="288" xmlns="http://www.w3.org/2000/svg" version="1.1" xmlns:xlink="http://www.w3.org/1999/xlink" xmlns:svgjs="http://svgjs.com/svgjs"><defs id="SvgjsDefs1149"></defs><g id="SvgjsG1150"><svg xmlns="http://www.w3.org/2000/svg" viewBox="0 0 64 64" width="288" height="288"><circle cx="17" cy="44.5" r="1" fill="#000000" class="svgShape color000000-0 selectable"></circle><circle cx="29" cy="44.5" r="1" fill="#000000" class="svgShape color000000-1 selectable"></circle><circle cx="48" cy="44.5" r="1" fill="#000000" class="svgShape color000000-2 selectable"></circle><path d="M56,32.5c.54999,0,1-.45001,1-1v-4c0-.27002-.10999-.52002-.28998-.71002l-8-8c-.19-.17999-.44-.28998-.71002-.28998h-7v-1c0-1.65002-1.34998-3-3-3h-21c-.54999,0-1,.45001-1,1s.45001,1,1,1h21c.54999,0,1,.45001,1,1v18H9v-18c0-.54999.45001-1,1-1h3c.54999,0,1-.45001,1-1s-.45001-1-1-1h-3c-1.65002,0-3,1.34998-3,3v24c0,1.64996,1.34998,3,3,3h2c0,2.76001,2.23999,5,5,5s5-2.23999,5-5h2c0,2.76001,2.23999,5,5,5s5-2.23999,5-5h9c0,2.76001,2.23999,5,5,5s5-2.23999,5-5h1c1.65002,0,3-1.35004,3-3v-6c0-.54999-.45001-1-1-1s-1,.45001-1,1v6c0,.54999-.45001,1-1,1h-1.41998c-.78003-1.76001-2.53003-3-4.58002-3s-3.79999,1.23999-4.58002,3h-2.41998v-22h2v7c0,.54999.45001,1,1,1h11v3c0,.54999.45001,1,1,1ZM17,47.5c-1.65002,0-3-1.35004-3-3s1.34998-3,3-3,3,1.34998,3,3-1.34998,3-3,3ZM29,47.5c-1.65002,0-3-1.35004-3-3s1.34998-3,3-3,3,1.34998,3,3-1.34998,3-3,3ZM39,42.5h-5.41998c-.78003-1.76001-2.53003-3-4.58002-3s-3.79999,1.23999-4.58002,3h-2.83997c-.78003-1.76001-2.53003-3-4.58002-3s-3.79999,1.23999-4.58002,3h-2.41998c-.54999,0-1-.45001-1-1v-4h30v5ZM48,41.5c1.65002,0,3,1.34998,3,3s-1.34998,3-3,3-3-1.35004-3-3,1.34998-3,3-3ZM45,26.5v-6h2.59003l6,6h-8.59003Z" fill="#000000" class="svgShape color000000-3 selectable"></path><path d="M44 30.5c-.55225 0-1 .44775-1 1s.44775 1 1 1h2c.55225 0 1-.44775 1-1s-.44775-1-1-1h-2ZM17 32.5h6c.6767 0 1.30493-.18475 1.86432-.48267.59216.3244 1.24353.48853 1.89496.48853 1.02441 0 2.04639-.39697 2.82764-1.17871l4.24023-4.24023c.75635-.75635 1.17285-1.76025 1.17285-2.82715 0-1.05127-.42725-2.08154-1.16992-2.82373-.75488-.76172-1.75977-1.18115-2.83008-1.18115s-2.0752.41943-2.82715 1.17822l-2.10657 2.10657c-.00482.00464-.01129.00592-.01599.01062s-.00598.01117-.01062.01599l-1.33154 1.33154c-.52002-.2478-1.09479-.39783-1.70813-.39783h-6c-2.20557 0-4 1.79443-4 4s1.79443 4 4 4ZM26.46002 30.46973c.33386-.58398.53998-1.25024.53998-1.96973 0-.86456-.28241-1.66046-.75055-2.31537l.51056-.51056 2.82593 2.82593-1.41309 1.41309c-.45984.45953-1.10474.64673-1.71283.55664ZM32.41309 22.84717c.76939.77532.77265 2.05302 0 2.82568l-1.41309 1.41309-2.82593-2.82593 1.41577-1.41577c.75387-.75973 2.06335-.7627 2.82324.00293ZM25 28.5c0 1.10303-.89697 2-2 2h-2v-4h2c1.10303 0 2 .89697 2 2ZM17 26.5h2v4h-2c-1.10303 0-2-.89697-2-2s.89697-2 2-2Z" fill="#dc2626" class="svgShape color000000-4 selectable"></path></svg></g></svg>