<svg xmlns="http://www.w3.org/2000/svg" enable-background="new 0 0 66 66" viewBox="0 0 66 66" id="medical-cross">
  <path d="M61.71 51.37h-.66c0-1.39.24-4.6 2.02-9.15 1.87-4.76 2.29-9.84 1.24-14.69-1.03-4.75-3.14-11.84-7.32-18.67-.57-.94-1.53-1.62-2.63-1.88-1.84-.43-3.75.44-4.65 2.13-.56 1.04-.65 2.28-.25 3.39l3.77 10.53c-.1-.03-.21-.05-.31-.06-1.22-.2-2.45.14-3.38.93-.93.79-1.46 1.94-1.46 3.16v5.93c0 1.34-.47 2.64-1.35 3.75-2.06 2.59-4.8 7.8-1.09 14.64h-1.07c-1.03 0-1.88.84-1.88 1.88v4.01c0 1.03.84 1.88 1.88 1.88h17.13c1.03 0 1.88-.84 1.88-1.88v-4.01C63.59 52.21 62.75 51.37 61.71 51.37zM48.1 37.82c1.12-1.4 1.74-3.12 1.74-4.84v-5.93c0-.7.31-1.37.84-1.83.54-.46 1.24-.66 1.96-.54.66.11 1.23.53 1.59 1.11.02.05.05.1.08.14.2.38.32.82.32 1.29v10.79c0 .48.39.88.88.88s.88-.39.88-.88V27.23c0-.78-.2-1.52-.55-2.16l-4.72-13.16c-.23-.65-.18-1.37.16-2 .52-.97 1.63-1.47 2.7-1.22.64.15 1.2.55 1.53 1.09 4.05 6.62 6.1 13.51 7.1 18.13.98 4.5.58 9.23-1.16 13.68-1.88 4.79-2.15 8.21-2.15 9.79H47.67C43.75 44.99 46.24 40.16 48.1 37.82zM61.84 57.25c0 .07-.06.13-.13.13H44.58c-.07 0-.13-.06-.13-.13v-4.01c0-.07.06-.13.13-.13h2.61 13.03 1.5c.07 0 .13.06.13.13V57.25zM21.42 51.37h-1.07c3.71-6.84.97-12.05-1.09-14.64-.88-1.11-1.35-2.4-1.35-3.75v-5.93c0-1.22-.53-2.37-1.46-3.16-.93-.79-2.16-1.13-3.38-.93-.11.02-.21.04-.31.06l3.77-10.53c.4-1.11.31-2.35-.26-3.41-.89-1.67-2.8-2.53-4.64-2.1-1.1.26-2.05.94-2.63 1.88-4.18 6.83-6.29 13.92-7.32 18.67-1.05 4.84-.62 9.92 1.24 14.69 1.78 4.55 2.02 7.76 2.02 9.15H4.29c-1.03 0-1.88.84-1.88 1.88v4.01c0 1.03.84 1.88 1.88 1.88h17.13c1.03 0 1.88-.84 1.88-1.88v-4.01C23.3 52.21 22.46 51.37 21.42 51.37zM4.56 41.58c-1.74-4.44-2.14-9.17-1.16-13.68 1-4.62 3.05-11.51 7.1-18.13.33-.54.89-.94 1.53-1.09 1.08-.25 2.18.25 2.71 1.25.32.61.38 1.33.15 1.97l-4.72 13.16c-.35.64-.55 1.38-.55 2.16v10.79c0 .48.39.88.88.88s.88-.39.88-.88V27.23c0-.46.12-.9.32-1.29.03-.04.06-.09.08-.14.36-.58.92-1 1.59-1.11.72-.12 1.42.07 1.96.54.54.46.84 1.12.84 1.83v5.93c0 1.72.62 3.44 1.74 4.84 1.87 2.34 4.36 7.17.44 13.55H6.7C6.7 49.79 6.43 46.38 4.56 41.58zM21.55 57.25c0 .07-.06.13-.13.13H4.29c-.07 0-.13-.06-.13-.13v-4.01c0-.07.06-.13.13-.13h1.5 13.03 2.61c.07 0 .13.06.13.13V57.25z"></path>
  <path d="M47.49,22.23c0-7.99-6.5-14.49-14.49-14.49s-14.49,6.5-14.49,14.49S25.01,36.72,33,36.72S47.49,30.22,47.49,22.23z
		 M33,34.97c-7.03,0-12.74-5.72-12.74-12.74S25.97,9.49,33,9.49s12.74,5.72,12.74,12.74S40.03,34.97,33,34.97z"></path>
  <path d="M40.99,19.35h-5.12v-5.12c0-0.48-0.39-0.88-0.88-0.88h-4c-0.48,0-0.88,0.39-0.88,0.88v5.12h-5.12
		c-0.48,0-0.88,0.39-0.88,0.88v4c0,0.48,0.39,0.88,0.88,0.88h5.12v5.12c0,0.48,0.39,0.88,0.88,0.88h4c0.48,0,0.88-0.39,0.88-0.88
		V25.1h5.12c0.48,0,0.88-0.39,0.88-0.88v-4C41.87,19.75,41.48,19.35,40.99,19.35z M40.12,23.35H35c-0.48,0-0.88,0.39-0.88,0.88v5.12
		h-2.25v-5.12c0-0.48-0.39-0.88-0.88-0.88h-5.12V21.1H31c0.48,0,0.88-0.39,0.88-0.88v-5.12h2.25v5.12c0,0.48,0.39,0.88,0.88,0.88
		h5.12V23.35z"></path>
</svg>
