<svg xmlns="http://www.w3.org/2000/svg" viewBox="0 0 512 512" id="mental-health">
  <path d="M412.3947,364.9778c-6.8984-25.7343-3.3281-53.1562,9.7969-75.2265a171.49,171.49,0,0,0,23.9219-94.7578C442.508,104.681,368.8752,32.2278,278.4767,30.04c-46.496-.8984-90.7695,16.1407-124.1835,48.6485-33.1329,32.2265-51.6016,75.3281-52.0938,122.0547L67.6213,280.1341a22.8836,22.8836,0,0,0,10.1484,29.18l24.4219,13.0547v64.5937a41.57,41.57,0,0,0,41.5234,41.5234h60.41l9.1992,34.3282a25.9069,25.9069,0,0,0,24.9414,19.18,26.2076,26.2076,0,0,0,6.7422-.8907l160.2109-42.93a25.8706,25.8706,0,0,0,18.2969-31.68Zm-1.8555,55.1407a13.754,13.754,0,0,1-8.4257,6.4609l-160.2149,42.93a13.8606,13.8606,0,0,1-16.98-9.8047L214.5275,420.931a5.9987,5.9987,0,0,0-5.7968-4.4454H143.715a29.5543,29.5543,0,0,1-29.5234-29.5234V318.7747a5.9935,5.9935,0,0,0-3.1719-5.2891L83.4221,298.7278a10.8291,10.8291,0,0,1-4.8008-13.8047l35.07-80.5078a9.09,9.09,0,0,0,.5156-2.9453A160.012,160.012,0,0,1,274.1916,41.9935c1.3281,0,2.6641.0156,3.9961.0468,84.0859,2.0313,152.582,69.43,155.9336,153.4375a159.4852,159.4852,0,0,1-22.2422,88.1328c-14.7695,24.8438-18.8086,55.6329-11.0781,84.4766l11.1211,41.5156A13.7475,13.7475,0,0,1,410.5392,420.1185Z"></path>
  <path d="M275.5353,136.9075l-1.9179,1.9141-2.02-2.0156a60.1925,60.1925,0,0,0-85.125,85.125l82.9024,82.9062a5.9979,5.9979,0,0,0,8.4844,0L360.66,222.0325a60.1925,60.1925,0,0,0-85.125-85.125Zm76.6407,76.6406-78.5586,78.5625-78.66-78.664A48.1938,48.1938,0,0,1,263.1135,145.29l6.2617,6.2578a5.9978,5.9978,0,0,0,8.4844,0l6.16-6.1562a48.1937,48.1937,0,0,1,68.1563,68.1562Z"></path>
</svg>
