<svg id="Capa_1" enable-background="new 0 0 511.992 511.992" height="512" viewBox="0 0 511.992 511.992" width="512" xmlns="http://www.w3.org/2000/svg"><g><path d="m489.381 184.465c0-26.646-5.308-51.286-15.775-73.236-9.61-20.154-23.617-38.165-41.629-53.534-3.151-2.689-7.886-2.313-10.573.837-2.688 3.151-2.314 7.885.837 10.574 34.598 29.52 52.141 68.332 52.141 115.358 0 68.099-8.952 96-68.215 149.634-17.039 15.42-15.072 50.546 6.014 107.383 1.27 3.421 1.039 7.082-.647 10.308-1.678 3.21-4.534 5.477-8.043 6.381l-149.07 38.426c-6.108 1.575-12.503-1.64-14.872-7.477-8.895-21.909-29.738-73.214-82.691-66.04-2.686.364-7.616 1.049-12.186 1.693-4.102.576-6.961 4.367-6.386 8.469.576 4.102 4.367 6.964 8.47 6.385 3.231-.453 6.913-.973 12.116-1.683 36.419-4.941 53.614 24.392 66.778 56.818 4.298 10.587 14.641 17.231 25.66 17.231 2.271 0 4.572-.282 6.854-.871l149.07-38.426c7.563-1.949 13.975-7.037 17.593-13.957 3.626-6.937 4.143-15.127 1.417-22.474-17.669-47.627-21.318-80.812-10.013-91.043 62.576-56.633 73.15-89.811 73.15-160.756z"/><path d="m110.601 428.675c-4.275.199-7.626.106-9.954-.274-17.797-2.913-27.566-10.285-30.746-23.2-2.041-8.197.488-14.178 3.967-19.827 3.918-7.006.648-15.286-4.629-18.94-3.518-2.436-7.438-4.021-10.303-4.965-.117-1.776.771-4.172 4.54-6.89 1.646-1.186 2.74-2.987 3.034-4.994.295-2.006-.235-4.046-1.47-5.655-.44-.574-4.553-5.807-13.278-12.764-.618-.493-.934-.849-1.079-1.121 6.214-4.415 18.074-14.412 16.533-25.468-.645-4.625-3.821-10.879-15.295-14.408-12.559-3.863-14.3-8.72-14.311-13.394-.011-4.767 2.819-7.717 9.593-12.932 10.707-8.242 22.94-18.962 32.502-35.983 3.191-5.681 3.572-12.62 1.02-18.562-1.513-3.52-3.614-6.848-5.646-10.067-3.122-4.945-6.351-10.059-5.6-13.284.409-1.756 1.515-4.093 2.795-6.799 3.104-6.559 7.354-15.542 8.244-29.194 6.08-93.224 91.505-134.954 173.469-134.954 51.27 0 102.548 12.661 140.685 34.737 3.588 2.076 8.174.852 10.249-2.733s.851-8.173-2.734-10.249c-40.947-23.702-93.579-36.755-148.2-36.755-48.471 0-93.544 13.234-126.915 37.265-37.23 26.809-58.504 65.439-61.522 111.716-.704 10.798-3.961 17.682-6.835 23.755-1.579 3.339-3.072 6.493-3.845 9.812-2.173 9.333 2.979 17.494 7.525 24.694 1.802 2.853 3.503 5.548 4.549 7.981.721 1.678.603 3.657-.316 5.293-6.641 11.822-14.919 20.932-28.574 31.444-6.161 4.743-15.471 11.911-15.442 24.851.03 13.306 8.408 22.625 24.901 27.697 3.202.985 4.433 1.944 4.813 2.31-.459 2.51-6.238 8.38-12.036 12.163-.818.53-1.524 1.215-2.08 2.015-3.333 4.799-4.964 14.592 4.202 21.9 2.499 1.992 4.543 3.81 6.15 5.339-6.771 8.717-5.024 18.41-1.438 23.667 1.087 1.593 2.745 2.706 4.631 3.108 1.287.274 5.576 1.513 8.71 3.597-3.256 5.707-8.654 15.285-5.128 30.18 4.662 18.943 19.092 30.522 42.888 34.417 2.339.383 5.09.573 8.332.573 1.477 0 3.055-.04 4.742-.118 4.138-.192 7.336-3.703 7.144-7.84s-3.696-7.346-7.842-7.144z"/><path d="m248.616 266.293.001.001-.001-.002z"/><path d="m449.419 177.875c3.762-14.748 1.555-30.077-6.214-43.165-7.017-11.822-17.812-20.536-30.698-24.882-5.01-20.271-20.754-36.308-41.235-41.532-13.791-3.517-28.188-1.761-40.592 4.771-8.98-13.73-22.78-23.676-38.873-27.781-21.074-5.375-43.407.06-59.649 14.204-3.425-1.748-7.036-3.111-10.792-4.068-13.244-3.38-27.056-1.468-38.883 5.379-10.332 5.981-18.154 15.147-22.414 26.138-23.175 3.947-42.145 21.22-48.03 44.295-2.912 11.421-2.438 23.142 1.349 34.165-4.322 5.955-7.394 12.796-8.966 20.027-5.933 27.267 10.409 54.722 37.204 62.505 14.682 4.263 30.5 2.027 43.402-6.135 2.635-1.667 5.603-2.594 8.589-2.739v44.26c0 14.899 11.891 27.442 26.505 27.961 14.063.87 28.849-11.774 28.495-27.482v-17.502c-.072-.016-.144-.032 0-.001.141.032.072.017.001.001 7.783 10.448 19.735 18.103 32.438 21.343 3.466.873 9.476 1.886 14.969 1.766.409 3.21 1.387 6.356 2.936 9.308 3.412 6.505 9.152 11.292 16.165 13.479 12.309 4.269 29.467-2.918 34.074-17.038 3.141 1.1 6.372 1.977 9.673 2.606 4.067.774 8.171 1.157 12.261 1.157 11.963 0 23.808-3.275 34.271-9.597 14.036-8.48 24.381-21.712 29.129-37.257 4.663-15.268 3.751-31.258-2.498-45.669 8.475-7.525 14.559-17.451 17.383-28.517zm-31.082 20.253c-3.134 2.199-4.107 6.406-2.26 9.759 6.748 12.243 8.208 26.375 4.11 39.79-7.524 24.634-33.218 40.16-58.509 35.344-2.726-.519-5.388-1.255-7.968-2.184l41.072-131.683c2.187-7.013 1.513-14.457-1.899-20.962s-9.152-11.292-16.165-13.479c-14.477-4.515-29.926 3.588-34.441 18.064l-20.359 65.276c-1.233 3.954.973 8.159 4.927 9.393 3.96 1.235 8.159-.973 9.394-4.927l20.359-65.275c.994-3.188 3.17-5.797 6.127-7.348 2.955-1.551 6.34-1.856 9.527-.863 3.188.994 5.797 3.17 7.349 6.127 1.551 2.957 1.856 6.34.862 9.528l-45.217 144.972c-1.693 5.275-8.164 10.458-15.654 8.211-3.188-.994-5.797-3.17-7.349-6.127-1.551-2.957-1.856-6.34-.862-9.528l14.422-46.239c1.233-3.954-.973-8.159-4.927-9.393-3.962-1.234-8.16.973-9.394 4.926l-13.349 42.798c-4.468.323-8.95-.077-13.372-1.205-10.127-2.583-18.875-8.802-24.634-17.514-1.107-1.674-4.615-3.189-6.639-3.588 8.909-4.114 17.021-9.893 23.737-16.965 14.756-15.542 22.27-35.906 21.157-57.343-1.972-38.009-32.058-69.372-69.983-72.954-4.123-.388-7.781 2.638-8.172 6.762-.39 4.124 2.638 7.782 6.762 8.172 30.572 2.887 54.824 28.165 56.413 58.797.897 17.288-5.159 33.708-17.055 46.237-6.707 7.063-15.146 12.537-24.408 15.829-4.979 1.77-8.324 6.5-8.324 11.772v31.489c-.04 5.677-4.933 12.687-12.962 12.492-6.638-.236-12.038-6.054-12.038-12.971v-51.542c0-3.401 1.381-6.723 3.788-9.116 1.531-1.523 4.834-3.447 8.714-3.516 10.345 0 19.961-4.132 27.099-11.651 7.13-7.508 10.76-17.356 10.222-27.729-1.01-19.436-17.063-34.967-36.535-35.36-18.9-.427-35.207 13.558-37.801 32.143-.228 1.638-.349 3.309-.359 4.964-.04 5.941-3.823 11.019-9.2 12.348-3.985.985-7.895.191-10.996-2.237-3.054-2.391-4.805-5.981-4.805-9.852 0-2.905.202-5.827.602-8.685 3.017-21.615 16.782-39.743 36.822-48.492 3.796-1.657 5.53-6.078 3.872-9.875-1.656-3.796-6.078-5.528-9.874-3.873-24.857 10.853-41.933 33.344-45.676 60.165-.495 3.542-.746 7.163-.746 10.76 0 8.514 3.848 16.409 10.558 21.662 6.712 5.256 15.402 7.076 23.843 4.988 12.042-2.977 20.513-14 20.601-26.809.007-1.002.079-2.012.216-2.996 1.326-10.453 11.436-19.462 22.632-19.214 11.658.235 21.264 9.521 21.867 21.141.323 6.224-1.85 12.127-6.119 16.623-4.276 4.504-10.032 6.979-16.225 6.979-5.929-.134-13.988 2.57-19.283 7.876-3.358 3.337-5.788 7.508-7.099 12.018-6.17-.055-12.339 1.676-17.723 5.081-9.273 5.867-20.646 7.472-31.2 4.407-19.252-5.592-30.993-25.319-26.73-44.912 1.387-6.379 4.248-12.096 8.505-16.993 1.888-2.172 2.366-5.232 1.231-7.877-3.934-9.168-4.709-19.128-2.241-28.803 4.726-18.528 20.701-32.067 39.752-33.692 3.115-.266 5.739-2.437 6.584-5.447 5.377-19.174 25.45-30.771 44.749-25.846 4.083 1.041 7.924 2.753 11.417 5.088 3.025 2.023 7.068 1.581 9.586-1.049 12.711-13.28 31.654-18.708 49.438-14.174 14.505 3.7 26.601 13.546 33.186 27.013.974 1.992 2.779 3.451 4.932 3.985s4.431.088 6.224-1.218c10.157-7.404 22.959-9.872 35.124-6.769 16.253 4.146 28.457 17.535 31.092 34.111.473 2.974 2.679 5.376 5.602 6.102 10.109 2.304 20.478 9.828 26.049 19.324 5.723 9.643 7.349 20.937 4.577 31.802-2.477 9.694-8.353 18.203-16.55 23.957z"/><path d="m327.235 340.238c-3.412-6.505-9.152-11.292-16.165-13.479-7.014-2.188-14.457-1.513-20.962 1.899s-11.292 9.153-13.479 16.166c-4.514 14.476 3.59 29.926 18.064 34.44 2.703.843 5.469 1.261 8.222 1.261 4.39 0 8.743-1.063 12.74-3.16 6.506-3.412 11.293-9.153 13.479-16.166v.001c2.187-7.013 1.513-14.457-1.899-20.962zm-12.421 16.495c-.994 3.188-3.169 5.797-6.126 7.348s-6.34 1.857-9.528.863c-6.58-2.052-10.263-9.075-8.211-15.655 1.667-5.346 6.614-8.779 11.94-8.779 1.229 0 2.479.183 3.714.568 6.58 2.052 10.264 9.075 8.211 15.655z"/><path d="m221.496 326c-15.163 0-27.5 12.336-27.5 27.5s12.337 27.5 27.5 27.5 27.5-12.336 27.5-27.5-12.337-27.5-27.5-27.5zm0 40c-6.893 0-12.5-5.607-12.5-12.5s5.607-12.5 12.5-12.5 12.5 5.607 12.5 12.5-5.608 12.5-12.5 12.5z"/></g></svg>