<svg height="512" viewBox="0 0 60 60" width="512" xmlns="http://www.w3.org/2000/svg"><g id="032---Improved-Mental-Health" transform="translate(-1)"><path id="Shape" d="m52.2 7.4-5.308 7.078-1.185-1.185c-.3923789-.3789722-1.0160848-.3735524-1.4018186.0121814s-.3911536 1.0094397-.0121814 1.4018186c2.18 2.18 2.168 2.293 2.707 2.293.3147573 0 .6111456-.1481942.8-.4l6-8c.3313708-.4418278.2418278-1.06862915-.2-1.4s-1.0686292-.2418278-1.4.2z"/><path id="Shape" d="m42.057 2.231c-6.878-3.255-12.892-2.416-20.763-.81-4.5.9-7.765 2.481-9.992 4.844-1.76412633 1.88852304-3.12843062 4.1140635-4.011 6.543-.37813658 1.1017488-.68477386 2.2267536-.918 3.368-.522 2.3-1.985 4.038-1.763 5.588.249 1.74 2.264 2.543 2.26 3.287-1.21342803 2.6747907-2.73218833 5.2002415-4.526 7.526-2 2.44-1.619 3.526.117 4.816.706.526 2.17 1.049 2.246 1.453.06547962.6605206-.13134283 1.3203068-.548 1.837-1.021 1.818-.521 2.164.872 3.237-.55542048.7550718-.43839846 1.81001.269 2.425.706.505 1.468.737 1.592 1.232.236.934-.844 2.056.075 4.694.51567129 1.8965911 2.42614715 3.057292 4.347 2.641 2.8506942-.6875883 5.6615737-1.5308522 8.42-2.526 2.189 1.292 3.485 5.042 3.843 6.206.2622872.8297322 1.0378972 1.3890819 1.908 1.376h22.615c.7368102-.0099744 1.4099193-.4197929 1.7570631-1.0697775s.3134079-1.4373149-.0880631-2.0552225c-1.856-2.824-2.613-6.6-3.02-9.951-.3514397-2.9894906.0971775-6.0186917 1.3-8.778 2.125-4.82 7.051-7.314 6.951-15.734 3.8226848-2.2108638 6.1202144-6.3444487 5.9796157-10.7581852-.1405988-4.41373649-2.6965526-8.39271463-6.6521979-10.35580114-3.9556452-1.96308651-8.6702707-1.59231273-12.2704178.96498634zm4.166 35.083c-1.3459172 3.086068-1.848366 6.4741462-1.456 9.818.925 7.619 2.806 9.714 3.333 10.855h-22.613c-.650992-2.3735968-1.856011-4.5588075-3.516-6.376.27-.094 2.047-.717 2.331-.808 4.271-1.354 6.406-3.3 6.347-5.8-.0129787-.5522847-.4712153-.9894787-1.0235-.9765s-.9894787.4712153-.9765 1.0235c.024 1.03-.815 2.532-4.952 3.844-1.727.547-8.969 3.268-12.793 4.056-.93249957.1761712-1.83776144-.4152724-2.051-1.34-.771-2.213.435-2.7-.024-4.526-.294-1.166-1.116-1.617-2.058-2.17.295-.619.666-.777.589-1.366-.074-.561-.382-.627-1.613-1.609.74955557-.9896128 1.08161271-2.2334808.925-3.465-.308-1.639-2.249-2.116-3.078-2.733-.21083485-.1452774-.40949115-.30748-.594-.485 0-.152.162-.521.923-1.452 1.78952618-2.3007756 3.31821413-4.7930266 4.558-7.431.24091312-.4141665.37430172-.882058.388-1.361-.10609677-1.0000942-.63490898-1.9070453-1.453-2.492-1.01-.934-.926-1.052-.669-1.738.59709687-1.2657663 1.10435057-2.5719947 1.518-3.909.23076839-1.1416737.5313325-2.2681212.9-3.373.78947269-2.1764519 2.010957-4.17076061 3.591-5.863 1.905-2.022 4.909-3.454 8.931-4.256 6.946-1.416 12.575-2.321 18.7.282-.8829493.91472894-1.615668 1.96335019-2.171 3.107-12.849-5.581-26.216 3.313-26.216 12.73 0 8.427 9.635 9.5 17.99 9.5 1.6589339-.0011089 3.0055883 1.3410716 3.01 3 .0276142 2.4852814 2.0647186 4.4776142 4.55 4.45s4.4776142-2.0647186 4.45-4.55v-1.47c.0101792-1.5443113.9041363-2.9462691 2.3-3.607 1.4094888-.6254117 2.6226651-1.6218754 3.51-2.883 1.7510955.1766538 3.5195353-.0403012 5.176-.635-.252 6.886-4.586 9.056-6.763 14.009zm-.623-13.814c-.6236765.6311216-1.3565037 1.1440668-2.163 1.514-2.0910124.9951233-3.4269551 3.1002923-3.437 5.416v1.47c.0279517 1.2083175-.7971582 2.2698892-1.975 2.541-.7381439.1612339-1.5095819-.0209832-2.0975694-.495455-.5879874-.4744719-.9290752-1.1899988-.9274306-1.945545-.0060648-2.7628118-2.2471816-4.9994553-5.01-5-7.029 0-15.99-.584-15.99-7.5 0-8.087 11.938-15.935 23.489-10.864-1.854975 6.3433152 1.7728275 12.9915283 8.111 14.864zm3.4-1.5c-5.5228475 0-10-4.4771525-10-10s4.4771525-10 10-10 10 4.4771525 10 10c-.0060624 5.5203344-4.4796656 9.9939376-10 10z"/><path id="Shape" d="m33 14h-2v-2c0-1.1045695-.8954305-2-2-2h-2c-1.1045695 0-2 .8954305-2 2v2h-2c-1.1045695 0-2 .8954305-2 2v2c0 1.1045695.8954305 2 2 2h2v2c0 1.1045695.8954305 2 2 2h2c1.1045695 0 2-.8954305 2-2v-2h2c1.1045695 0 2-.8954305 2-2v-2c0-1.1045695-.8954305-2-2-2zm0 4h-2.5c-.8284271 0-1.5.6715729-1.5 1.5v2.5h-2v-2.5c0-.8284271-.6715729-1.5-1.5-1.5h-2.5v-2h2.5c.8284271 0 1.5-.6715729 1.5-1.5v-2.5h2v2.5c0 .8284271.6715729 1.5 1.5 1.5h2.5z"/></g></svg>