<svg xmlns="http://www.w3.org/2000/svg" viewBox="0 0 68 68" id="mobile-apps">
  <path d="M47.815 2h-27.63c-2.757 0-5 2.243-5 5v44.16a1 1 0 1 0 2 0V7c0-1.654 1.345-3 3-3h27.63c1.655 0 3 1.346 3 3v3.78h-30.63a1 1 0 1 0 0 2h30.63V61c0 1.654-1.345 3-3 3h-27.63c-1.655 0-3-1.346-3-3v-3.78h30.63a1 1 0 1 0 0-2h-31.63a1 1 0 0 0-1 1V61c0 2.757 2.243 5 5 5h27.63c2.757 0 5-2.243 5-5V7c0-2.757-2.243-5-5-5z"></path>
  <path d="M30.638 8.396a1 1 0 1 0 0-2h-.355a1 1 0 1 0 0 2h.355zm7.079 0a1 1 0 1 0 0-2H34.31a1 1 0 1 0 0 2h3.406zm-5.42 51.22a1 1 0 1 0 0 2h3.406a1 1 0 1 0 0-2h-3.406zM19.709 52.54a1 1 0 0 0 1 1h5.76a1 1 0 0 0 1-1v-5.77a1 1 0 0 0-1-1h-5.76a1 1 0 0 0-1 1v5.77zm2-4.77h3.76v3.77h-3.76v-3.77zm8.411 4.77a1 1 0 0 0 1 1h5.76a1 1 0 0 0 1-1v-5.77a1 1 0 0 0-1-1h-5.76a1 1 0 0 0-1 1v5.77zm2-4.77h3.76v3.77h-3.76v-3.77zm8.411 4.77a1 1 0 0 0 1 1h5.76a1 1 0 0 0 1-1v-5.77a1 1 0 0 0-1-1h-5.76a1 1 0 0 0-1 1v5.77zm2-4.77h3.76v3.77h-3.76v-3.77zm-1-4.153h5.76a1 1 0 0 0 1-1v-5.77a1 1 0 0 0-1-1h-5.76a1 1 0 0 0-1 1v5.77a1 1 0 0 0 1 1zm1-5.77h3.76v3.77h-3.76v-3.77zm-11.41 5.77h5.759a1 1 0 0 0 1-1v-5.77a1 1 0 0 0-1-1h-5.76a1 1 0 0 0-1 1v5.77a1 1 0 0 0 1 1zm1-5.77h3.759v3.77h-3.76v-3.77zm-11.412 5.77h5.76a1 1 0 0 0 1-1v-5.77a1 1 0 0 0-1-1h-5.76a1 1 0 0 0-1 1v5.77a1 1 0 0 0 1 1zm1-5.77h3.76v3.77h-3.76v-3.77z"></path>
</svg>
