<svg width="563" height="318" viewBox="0 0 563 318" fill="none" xmlns="http://www.w3.org/2000/svg">
<path d="M202.001 147.767H200.161V143.453C200.161 142.39 199.798 141.853 199.077 141.853C198.562 141.853 198.19 142.043 197.963 142.427C197.735 142.81 197.621 143.43 197.621 144.29V147.763H195.781V137.488H197.621V139.583C197.621 139.745 197.608 140.129 197.579 140.734L197.536 141.331H197.634C198.043 140.609 198.693 140.249 199.587 140.249C200.38 140.249 200.979 140.48 201.389 140.947C201.798 141.414 202.005 142.084 202.005 142.954V147.767H202.001Z" fill="#823500"/>
<path d="M210.646 147.903C209.562 147.903 208.714 147.575 208.102 146.918C207.49 146.262 207.187 145.332 207.187 144.13C207.187 142.928 207.469 141.938 208.035 141.259C208.6 140.579 209.381 140.246 210.376 140.246C211.372 140.246 212.068 140.542 212.6 141.139C213.132 141.735 213.397 142.553 213.397 143.603V144.579H209.051C209.073 145.152 209.224 145.596 209.516 145.92C209.807 146.243 210.212 146.401 210.731 146.401C211.136 146.401 211.52 146.354 211.883 146.262C212.245 146.169 212.621 146.021 213.013 145.818V147.376C212.693 147.552 212.347 147.681 211.984 147.769C211.621 147.857 211.174 147.899 210.646 147.899V147.903ZM210.389 141.684C210.001 141.684 209.693 141.818 209.473 142.091C209.254 142.364 209.127 142.748 209.094 143.242H211.672C211.663 142.743 211.545 142.359 211.317 142.091C211.089 141.823 210.777 141.684 210.389 141.684Z" fill="#823500"/>
<path d="M222.87 147.771L222.515 146.767H222.469C222.161 147.193 221.84 147.489 221.515 147.655C221.19 147.821 220.76 147.905 220.237 147.905C219.591 147.905 219.081 147.701 218.709 147.299C218.338 146.897 218.152 146.319 218.152 145.57C218.152 144.821 218.401 144.21 218.903 143.836C219.405 143.461 220.157 143.258 221.165 143.216L222.334 143.174V142.851C222.334 142.102 221.983 141.727 221.283 141.727C220.743 141.727 220.11 141.908 219.384 142.264L218.777 140.904C219.553 140.46 220.414 140.238 221.355 140.238C222.296 140.238 222.95 140.456 223.435 140.886C223.92 141.316 224.156 141.972 224.156 142.855V147.775H222.874L222.87 147.771ZM222.325 144.349L221.612 144.377C221.076 144.395 220.68 144.502 220.418 144.696C220.157 144.89 220.026 145.186 220.026 145.579C220.026 146.148 220.321 146.43 220.916 146.43C221.342 146.43 221.684 146.296 221.937 146.027C222.19 145.759 222.321 145.403 222.321 144.959V144.354L222.325 144.349Z" fill="#823500"/>
<path d="M231.587 147.766H229.747V137.492H231.587V147.766Z" fill="#823500"/>
<path d="M240.054 146.294C240.375 146.294 240.763 146.215 241.21 146.063V147.561C240.751 147.787 240.189 147.898 239.523 147.898C238.789 147.898 238.253 147.695 237.915 147.288C237.582 146.881 237.413 146.271 237.413 145.457V141.897H236.531V141.046L237.544 140.371L238.076 138.812H239.248V140.385H241.135V141.897H239.248V145.457C239.248 145.744 239.32 145.956 239.468 146.091C239.616 146.225 239.81 146.294 240.05 146.294H240.054Z" fill="#823500"/>
<path d="M252.493 147.767H250.653V143.453C250.653 142.39 250.29 141.853 249.569 141.853C249.054 141.853 248.683 142.043 248.455 142.427C248.227 142.81 248.113 143.43 248.113 144.29V147.763H246.273V137.488H248.113V139.583C248.113 139.745 248.1 140.129 248.071 140.734L248.029 141.331H248.126C248.535 140.609 249.185 140.249 250.079 140.249C250.872 140.249 251.472 140.48 251.881 140.947C252.29 141.414 252.497 142.084 252.497 142.954V147.767H252.493Z" fill="#823500"/>
<path d="M260.822 147.899C258.725 147.899 257.675 146.636 257.675 144.116C257.675 142.863 257.962 141.901 258.531 141.24C259.101 140.579 259.919 140.246 260.983 140.246C261.763 140.246 262.459 140.413 263.08 140.75L262.535 142.308C262.244 142.179 261.979 142.077 261.73 141.994C261.481 141.911 261.232 141.874 260.983 141.874C260.025 141.874 259.548 142.618 259.548 144.107C259.548 145.596 260.025 146.271 260.983 146.271C261.337 146.271 261.662 146.22 261.966 146.114C262.27 146.007 262.569 145.85 262.869 145.628V147.353C262.573 147.561 262.27 147.704 261.966 147.783C261.662 147.862 261.278 147.903 260.818 147.903L260.822 147.899Z" fill="#823500"/>
<path d="M272.413 147.771L272.058 146.767H272.012C271.704 147.193 271.383 147.489 271.058 147.655C270.733 147.821 270.303 147.905 269.78 147.905C269.134 147.905 268.624 147.701 268.252 147.299C267.881 146.897 267.695 146.319 267.695 145.57C267.695 144.821 267.944 144.21 268.446 143.836C268.948 143.461 269.699 143.258 270.708 143.216L271.877 143.174V142.851C271.877 142.102 271.526 141.727 270.826 141.727C270.286 141.727 269.657 141.908 268.927 142.264L268.32 140.904C269.096 140.46 269.953 140.238 270.898 140.238C271.843 140.238 272.493 140.456 272.978 140.886C273.463 141.316 273.699 141.972 273.699 142.855V147.775H272.417L272.413 147.771ZM271.872 144.349L271.159 144.377C270.624 144.395 270.227 144.502 269.965 144.696C269.704 144.89 269.573 145.186 269.573 145.579C269.573 146.148 269.868 146.43 270.463 146.43C270.889 146.43 271.231 146.296 271.484 146.027C271.737 145.759 271.868 145.403 271.868 144.959V144.354L271.872 144.349Z" fill="#823500"/>
<path d="M283.054 140.246C283.303 140.246 283.509 140.265 283.674 140.306L283.535 142.193C283.387 142.151 283.206 142.128 282.99 142.128C282.404 142.128 281.948 142.294 281.619 142.623C281.29 142.951 281.13 143.413 281.13 144.01V147.769H279.29V140.385H280.682L280.952 141.624H281.041C281.252 141.212 281.53 140.875 281.889 140.625C282.248 140.376 282.632 140.246 283.049 140.246H283.054Z" fill="#823500"/>
<path d="M291.647 147.903C290.563 147.903 289.715 147.575 289.103 146.918C288.491 146.262 288.188 145.332 288.188 144.13C288.188 142.928 288.47 141.938 289.036 141.259C289.601 140.579 290.382 140.246 291.377 140.246C292.373 140.246 293.069 140.542 293.601 141.139C294.132 141.735 294.398 142.553 294.398 143.603V144.579H290.052C290.074 145.152 290.225 145.596 290.517 145.92C290.808 146.243 291.213 146.401 291.732 146.401C292.137 146.401 292.521 146.354 292.884 146.262C293.246 146.169 293.622 146.021 294.014 145.818V147.376C293.694 147.552 293.348 147.681 292.985 147.769C292.622 147.857 292.175 147.899 291.647 147.899V147.903ZM291.39 141.684C291.002 141.684 290.694 141.818 290.474 142.091C290.255 142.364 290.128 142.748 290.095 143.242H292.673C292.664 142.743 292.546 142.359 292.318 142.091C292.09 141.823 291.778 141.684 291.39 141.684Z" fill="#823500"/>
<path d="M310.779 147.771L310.424 146.767H310.378C310.07 147.193 309.749 147.489 309.424 147.655C309.099 147.821 308.669 147.905 308.146 147.905C307.5 147.905 306.99 147.701 306.618 147.299C306.247 146.897 306.062 146.319 306.062 145.57C306.062 144.821 306.31 144.21 306.813 143.836C307.315 143.466 308.066 143.258 309.074 143.216L310.243 143.174V142.851C310.243 142.102 309.893 141.727 309.192 141.727C308.652 141.727 308.023 141.908 307.294 142.264L306.686 140.904C307.462 140.46 308.319 140.238 309.264 140.238C310.209 140.238 310.859 140.456 311.344 140.886C311.829 141.316 312.066 141.972 312.066 142.855V147.775H310.783L310.779 147.771ZM310.239 144.349L309.526 144.377C308.99 144.395 308.593 144.502 308.331 144.696C308.07 144.89 307.939 145.186 307.939 145.579C307.939 146.148 308.234 146.43 308.829 146.43C309.256 146.43 309.597 146.296 309.85 146.027C310.104 145.759 310.234 145.403 310.234 144.959V144.354L310.239 144.349Z" fill="#823500"/>
<path d="M320.496 146.294C320.816 146.294 321.205 146.215 321.652 146.063V147.561C321.192 147.787 320.631 147.898 319.964 147.898C319.23 147.898 318.694 147.695 318.357 147.288C318.019 146.881 317.854 146.271 317.854 145.457V141.897H316.973V141.046L317.985 140.371L318.517 138.812H319.69V140.385H321.576V141.897H319.69V145.457C319.69 145.744 319.762 145.956 319.909 146.091C320.057 146.225 320.251 146.294 320.492 146.294H320.496Z" fill="#823500"/>
<path d="M337.347 141.898H335.757V147.77H333.917V141.898H332.904V140.927L333.917 140.386V139.845C333.917 139.003 334.107 138.388 334.482 138.004C334.858 137.621 335.465 137.422 336.297 137.422C336.929 137.422 337.495 137.524 337.989 137.732L337.52 139.211C337.149 139.082 336.807 139.022 336.495 139.022C336.233 139.022 336.043 139.105 335.93 139.276C335.816 139.447 335.757 139.664 335.757 139.928V140.39H337.347V141.902V141.898Z" fill="#823500"/>
<path d="M342.026 138.473C342.026 137.817 342.36 137.488 343.026 137.488C343.693 137.488 344.026 137.817 344.026 138.473C344.026 138.788 343.942 139.028 343.777 139.204C343.613 139.379 343.36 139.463 343.026 139.463C342.36 139.463 342.026 139.134 342.026 138.473ZM343.942 147.767H342.102V140.383H343.942V147.767Z" fill="#823500"/>
<path d="M355.793 147.769H353.954V143.455C353.954 142.923 353.869 142.521 353.696 142.257C353.523 141.994 353.249 141.86 352.869 141.86C352.355 141.86 351.983 142.049 351.756 142.424C351.528 142.798 351.414 143.423 351.414 144.297V147.769H349.574V140.385H350.979L351.228 141.328H351.329C351.536 140.972 351.815 140.704 352.178 140.519C352.54 140.334 352.945 140.246 353.405 140.246C354.19 140.246 354.785 140.477 355.19 140.944C355.595 141.411 355.798 142.077 355.798 142.956V147.769H355.793Z" fill="#823500"/>
<path d="M367.248 140.385V141.407L366.193 141.703C366.387 142.031 366.484 142.401 366.484 142.812C366.484 143.603 366.231 144.223 365.729 144.667C365.227 145.11 364.527 145.332 363.628 145.332L363.295 145.314L363.025 145.282C362.835 145.439 362.742 145.614 362.742 145.809C362.742 146.1 363.079 146.243 363.755 146.243H364.898C365.636 146.243 366.202 146.419 366.59 146.766C366.978 147.113 367.172 147.626 367.172 148.296C367.172 149.161 366.843 149.827 366.185 150.303C365.527 150.779 364.586 151.015 363.354 151.015C362.413 151.015 361.696 150.835 361.198 150.479C360.7 150.123 360.455 149.619 360.455 148.971C360.455 148.527 360.582 148.153 360.835 147.857C361.088 147.561 361.459 147.344 361.949 147.214C361.759 147.126 361.594 146.983 361.455 146.78C361.316 146.576 361.244 146.368 361.244 146.142C361.244 145.859 361.32 145.624 361.468 145.439C361.615 145.254 361.831 145.069 362.113 144.888C361.759 144.722 361.48 144.454 361.274 144.084C361.067 143.714 360.961 143.279 360.961 142.775C360.961 141.971 361.202 141.347 361.679 140.907C362.155 140.468 362.839 140.246 363.729 140.246C363.919 140.246 364.143 140.265 364.4 140.302C364.657 140.339 364.826 140.366 364.898 140.385H367.248ZM362.05 148.81C362.05 149.087 362.172 149.304 362.413 149.462C362.653 149.619 362.995 149.697 363.434 149.697C364.092 149.697 364.607 149.6 364.982 149.401C365.358 149.203 365.544 148.934 365.544 148.588C365.544 148.31 365.434 148.121 365.21 148.014C364.987 147.908 364.649 147.857 364.185 147.857H363.231C362.894 147.857 362.611 147.945 362.383 148.116C362.155 148.287 362.042 148.518 362.042 148.805L362.05 148.81ZM362.717 142.803C362.717 143.205 362.801 143.52 362.966 143.756C363.13 143.991 363.387 144.107 363.729 144.107C364.071 144.107 364.328 143.991 364.489 143.756C364.649 143.52 364.729 143.205 364.729 142.803C364.729 141.915 364.396 141.471 363.729 141.471C363.063 141.471 362.717 141.915 362.717 142.803Z" fill="#823500"/>
<path d="M375.11 147.903C374.026 147.903 373.178 147.575 372.566 146.918C371.954 146.262 371.65 145.332 371.65 144.13C371.65 142.928 371.933 141.938 372.498 141.259C373.064 140.584 373.844 140.246 374.84 140.246C375.836 140.246 376.532 140.542 377.064 141.139C377.595 141.735 377.861 142.553 377.861 143.603V144.579H373.515C373.536 145.152 373.688 145.596 373.979 145.92C374.271 146.243 374.676 146.401 375.195 146.401C375.6 146.401 375.984 146.354 376.346 146.262C376.709 146.169 377.085 146.021 377.477 145.818V147.376C377.157 147.552 376.811 147.681 376.448 147.769C376.085 147.857 375.638 147.899 375.11 147.899V147.903ZM374.853 141.684C374.465 141.684 374.157 141.818 373.937 142.091C373.718 142.364 373.591 142.748 373.558 143.242H376.136C376.127 142.743 376.009 142.359 375.781 142.091C375.553 141.823 375.241 141.684 374.853 141.684Z" fill="#823500"/>
<path d="M386.814 140.246C387.063 140.246 387.27 140.265 387.435 140.306L387.295 142.193C387.148 142.151 386.966 142.128 386.751 142.128C386.165 142.128 385.709 142.294 385.38 142.623C385.051 142.951 384.89 143.413 384.89 144.01V147.769H383.051V140.385H384.443L384.713 141.624H384.802C385.013 141.212 385.291 140.875 385.65 140.625C386.004 140.371 386.392 140.246 386.81 140.246H386.814Z" fill="#823500"/>
<path d="M395.198 146.294C395.519 146.294 395.907 146.215 396.354 146.063V147.561C395.894 147.787 395.333 147.898 394.666 147.898C393.932 147.898 393.396 147.695 393.059 147.288C392.721 146.881 392.557 146.271 392.557 145.457V141.897H391.675V141.046L392.687 140.371L393.219 138.812H394.392V140.385H396.278V141.897H394.392V145.457C394.392 145.744 394.464 145.956 394.611 146.091C394.759 146.225 394.953 146.294 395.194 146.294H395.198Z" fill="#823500"/>
<path d="M401.342 138.473C401.342 137.817 401.675 137.488 402.342 137.488C403.008 137.488 403.342 137.817 403.342 138.473C403.342 138.788 403.257 139.028 403.093 139.204C402.928 139.379 402.675 139.463 402.342 139.463C401.675 139.463 401.342 139.134 401.342 138.473ZM403.257 147.767H401.418V140.383H403.257V147.767Z" fill="#823500"/>
<path d="M412.59 147.899C411.797 147.899 411.176 147.584 410.729 146.955H410.632C410.696 147.57 410.729 147.926 410.729 148.023V151.015H408.89V140.385H410.383L410.641 141.342H410.725C411.155 140.611 411.793 140.246 412.636 140.246C413.434 140.246 414.054 140.584 414.506 141.259C414.957 141.934 415.181 142.868 415.181 144.065C415.181 144.851 415.075 145.536 414.864 146.118C414.653 146.701 414.354 147.14 413.961 147.445C413.569 147.751 413.113 147.903 412.586 147.903L412.59 147.899ZM412.046 141.855C411.59 141.855 411.261 142.008 411.05 142.313C410.839 142.618 410.733 143.122 410.725 143.83V144.047C410.725 144.838 410.831 145.406 411.046 145.749C411.261 146.091 411.603 146.262 412.067 146.262C412.89 146.262 413.303 145.517 413.303 144.028C413.303 143.302 413.202 142.757 412.999 142.396C412.797 142.036 412.476 141.851 412.046 141.851V141.855Z" fill="#823500"/>
<path d="M425.099 145.573C425.099 146.331 424.859 146.905 424.378 147.302C423.897 147.7 423.18 147.899 422.222 147.899C421.732 147.899 421.315 147.862 420.969 147.788C420.623 147.714 420.298 147.607 419.998 147.469V145.804C420.34 145.98 420.724 146.128 421.15 146.248C421.576 146.368 421.956 146.428 422.281 146.428C422.948 146.428 423.281 146.216 423.281 145.795C423.281 145.638 423.239 145.508 423.15 145.406C423.062 145.305 422.91 145.194 422.69 145.069C422.471 144.944 422.184 144.796 421.821 144.63C421.302 144.394 420.922 144.172 420.678 143.968C420.433 143.765 420.256 143.534 420.146 143.27C420.036 143.007 419.981 142.688 419.981 142.304C419.981 141.647 420.214 141.139 420.678 140.782C421.142 140.426 421.8 140.246 422.652 140.246C423.505 140.246 424.251 140.44 425.019 140.829L424.467 142.281C424.129 142.123 423.813 141.994 423.521 141.892C423.23 141.79 422.931 141.74 422.623 141.74C422.078 141.74 421.808 141.901 421.808 142.221C421.808 142.401 421.897 142.558 422.07 142.688C422.243 142.817 422.627 143.016 423.218 143.275C423.745 143.506 424.129 143.728 424.374 143.927C424.618 144.126 424.8 144.361 424.918 144.625C425.036 144.888 425.091 145.203 425.091 145.568L425.099 145.573Z" fill="#823500"/>
<path d="M476.965 197.705C479.281 197.705 481.158 195.712 481.158 193.253C481.158 190.794 479.281 188.801 476.965 188.801C474.65 188.801 472.772 190.794 472.772 193.253C472.772 195.712 474.65 197.705 476.965 197.705Z" fill="#FD5D5D"/>
<path d="M476.965 179.195C484.263 179.195 490.198 185.502 490.198 193.247H494.483C494.483 182.987 486.621 174.645 476.965 174.645V179.195Z" fill="#FD5D5D"/>
<path d="M476.965 186.398C480.522 186.398 483.414 189.469 483.414 193.246H487.699C487.699 186.96 482.885 181.848 476.965 181.848V186.398Z" fill="#FD5D5D"/>
<path d="M450.726 173.307C435.868 173.307 423.775 186.473 423.775 202.66C423.775 216.835 433.048 228.692 445.323 231.424C441.5 241.37 432.891 254.664 413.466 263.509C374.879 280.452 348.756 269.415 301.339 249.376C269.733 236.021 230.392 219.405 173.234 205.263C159.614 201.845 147.576 200.495 137.175 201.195V179.056L143.293 177.462C145.771 176.817 148.122 175.795 150.299 174.445C154.468 171.856 157.986 168.065 160.38 163.44L177.043 131.313C177.686 130.074 177.284 128.498 176.147 127.803L175.936 127.674L172.139 125.334C171.771 125.108 171.373 125.002 170.976 125.002C170.147 125.002 169.352 125.472 168.917 126.31L152.253 158.437C149.876 163.011 145.817 166.342 141.128 167.567L137.175 168.599L132.506 169.811L127.838 168.599L123.885 167.567C119.187 166.342 115.136 163.011 112.76 158.437L96.0963 126.31C95.4536 125.071 94.0117 124.633 92.8743 125.334L89.0773 127.674L88.8659 127.803C87.7284 128.503 87.331 130.074 87.9695 131.313L104.633 163.44C107.031 168.065 110.545 171.851 114.714 174.445C116.891 175.795 119.242 176.817 121.72 177.462L127.838 179.056V202.471C118.811 204.388 111.318 208.216 105.399 213.928C91.9991 226.891 90.5276 249.086 102.05 264.476C102.325 264.84 102.599 265.2 102.883 265.559C108.249 272.326 116.697 274.685 124.409 271.552C132.164 268.415 137.17 260.57 137.17 251.573V211.454C146.811 210.703 158.215 211.933 171.145 215.181C227.661 229.153 266.638 245.626 297.965 258.861C329.432 272.156 352.718 282 376.883 282C389.576 282 402.519 279.282 417.005 272.92C441.805 261.625 451.487 243.848 455.268 231.594C467.969 229.236 477.665 217.162 477.665 202.66C477.665 186.473 465.576 173.307 450.722 173.307H450.726ZM127.843 251.578C127.843 257.286 124.388 260.717 121.158 262.03C117.961 263.325 113.335 263.182 109.953 258.916C109.728 258.631 109.513 258.34 109.289 258.05C100.942 246.907 101.957 230.867 111.602 221.538C115.809 217.471 121.259 214.596 127.843 212.942V251.578ZM457.572 220.336C455.471 221.312 453.153 221.847 450.726 221.847C449.792 221.847 448.883 221.764 447.986 221.607C439.568 220.175 433.107 212.224 433.107 202.66C433.107 192.079 441.01 183.474 450.722 183.474C460.435 183.474 468.333 192.079 468.333 202.66C468.333 210.598 463.889 217.42 457.568 220.336H457.572Z" fill="white"/>
<path d="M119.656 51.7877C119.656 54.095 118.433 56.0463 116.699 56.9803C115.791 57.4704 114.741 57.6831 113.648 57.5121L111.965 57.2531L103.842 56.0139C103.184 55.9122 102.648 55.4544 102.37 54.8441C95.5937 56.3838 89.2943 58.9686 83.5434 62.5891C74.9487 67.999 71.8644 79.8454 76.5141 89.5695L93.3406 124.753L89.5517 127.102L72.6619 91.7843C66.9236 79.7853 70.7505 65.1507 81.3747 58.46C87.7205 54.4649 94.6824 51.6536 102.159 50.0352V49.6884C102.159 48.6203 102.88 47.7094 103.842 47.5661L113.648 46.0633C113.897 46.0217 114.146 46.0078 114.386 46.0078C117.243 46.0078 119.652 48.5509 119.652 51.7923L119.656 51.7877Z" fill="#FD5D5D"/>
<path d="M193.123 91.7822L176.233 127.099L172.444 124.751L189.271 89.5673C193.921 79.8433 190.836 67.9969 182.242 62.5869C176.486 58.9664 170.187 56.3817 163.415 54.8419C163.137 55.4523 162.597 55.91 161.938 56.0118L153.825 57.251L152.141 57.5099C151.892 57.5515 151.643 57.5654 151.394 57.5654C150.576 57.5654 149.791 57.3527 149.091 56.9781C147.356 56.0441 146.133 54.0928 146.133 51.7855C146.133 48.276 148.964 45.571 152.137 46.0565L161.934 47.5593C162.905 47.7026 163.622 48.6135 163.622 49.6816V50.0284C171.098 51.6468 178.06 54.4581 184.406 58.4532C195.03 65.1439 198.857 79.7786 193.119 91.7776L193.123 91.7822Z" fill="#FD5D5D"/>
<path d="M221.624 113.097C221.624 117.74 220.485 121.356 218.207 123.954C215.928 126.548 212.743 127.848 208.646 127.848C204.549 127.848 201.591 126.52 199.266 123.866C196.942 121.212 195.781 117.624 195.781 113.097C195.781 108.571 196.92 104.881 199.199 102.319C201.477 99.7574 204.671 98.4766 208.785 98.4766C211.329 98.4766 213.574 99.0684 215.528 100.252C217.481 101.436 218.983 103.137 220.042 105.348C221.101 107.558 221.629 110.143 221.629 113.097H221.624ZM204.853 113.097C204.853 115.534 205.148 117.393 205.743 118.669C206.338 119.945 207.334 120.583 208.734 120.583C210.135 120.583 211.097 119.945 211.671 118.669C212.245 117.393 212.528 115.534 212.528 113.097C212.528 110.661 212.237 108.848 211.658 107.613C211.08 106.379 210.089 105.759 208.688 105.759C207.287 105.759 206.334 106.374 205.739 107.599C205.144 108.825 204.849 110.661 204.849 113.097H204.853Z" fill="#FD5D5D"/>
<path d="M243.704 98.4761C246.522 98.4761 248.759 99.7707 250.408 102.355C252.062 104.945 252.889 108.524 252.889 113.097C252.889 117.67 252.054 121.313 250.387 123.926C248.721 126.538 246.4 127.847 243.43 127.847C242.472 127.847 241.615 127.736 240.869 127.509C240.122 127.283 239.455 126.973 238.869 126.571C238.282 126.169 237.599 125.503 236.822 124.569H236.274L234.856 127.348H227.886V88.3867H236.818V97.1999C236.818 98.2495 236.712 100.062 236.497 102.633H236.818C237.687 101.163 238.687 100.104 239.822 99.4517C240.957 98.7997 242.248 98.4761 243.695 98.4761H243.704ZM240.434 106.161C239.185 106.161 238.269 106.637 237.691 107.59C237.113 108.542 236.822 110.036 236.822 112.07V113.448C236.822 115.769 237.113 117.434 237.691 118.442C238.269 119.45 239.215 119.959 240.527 119.959C241.577 119.959 242.383 119.371 242.949 118.192C243.514 117.013 243.792 115.284 243.792 112.995C243.792 108.436 242.674 106.161 240.434 106.161Z" fill="#FD5D5D"/>
<path d="M258.97 91.9143C258.97 90.4439 259.341 89.3527 260.088 88.636C260.835 87.9193 262.037 87.5586 263.7 87.5586C265.362 87.5586 266.569 87.9239 267.332 88.6591C268.096 89.3943 268.476 90.4809 268.476 91.9143C268.476 94.7857 266.885 96.2191 263.7 96.2191C260.514 96.2191 258.97 94.7857 258.97 91.9143ZM268.134 127.347H259.202V98.975H268.134V127.347Z" fill="#FD5D5D"/>
<path d="M281.863 127.35V90.7422H290.888V119.364H303.753V127.354H281.863V127.35Z" fill="white"/>
<path d="M326.631 127.351L324.917 123.596H324.736C323.534 125.233 322.306 126.352 321.057 126.953C319.808 127.554 318.192 127.855 316.213 127.855C313.774 127.855 311.859 127.055 310.454 125.45C309.053 123.846 308.353 121.594 308.353 118.69C308.353 115.786 309.31 113.419 311.23 111.944C313.15 110.464 315.93 109.636 319.572 109.452L323.892 109.304V108.901C323.892 106.566 322.842 105.396 320.74 105.396C318.85 105.396 316.454 106.099 313.542 107.5L310.96 101.041C313.977 99.3391 317.783 98.4883 322.386 98.4883C325.706 98.4883 328.276 99.3899 330.099 101.193C331.917 102.997 332.829 105.517 332.829 108.753V127.36H326.635L326.631 127.351ZM320.006 120.937C321.086 120.937 322.015 120.563 322.783 119.809C323.55 119.06 323.934 118.08 323.934 116.877V114.672L321.88 114.774C318.939 114.889 317.47 116.078 317.47 118.329C317.47 120.068 318.314 120.933 320.006 120.933V120.937Z" fill="white"/>
<path d="M355.883 98.4761C358.701 98.4761 360.937 99.7707 362.587 102.355C364.237 104.94 365.068 108.524 365.068 113.097C365.068 117.67 364.233 121.313 362.566 123.926C360.899 126.538 358.579 127.847 355.608 127.847C354.651 127.847 353.794 127.736 353.047 127.509C352.3 127.283 351.634 126.973 351.047 126.571C350.461 126.169 349.777 125.503 349.001 124.569H348.452L347.035 127.348H340.064V88.3867H348.997V97.1999C348.997 98.2495 348.891 100.062 348.676 102.633H348.997C349.866 101.163 350.866 100.104 352.001 99.4517C353.136 98.7997 354.427 98.4761 355.874 98.4761H355.883ZM352.617 106.161C351.368 106.161 350.452 106.637 349.874 107.59C349.296 108.542 349.005 110.036 349.005 112.07V113.448C349.005 115.769 349.296 117.434 349.874 118.442C350.452 119.45 351.397 119.959 352.71 119.959C353.76 119.959 354.566 119.371 355.132 118.192C355.697 117.013 355.975 115.284 355.975 112.995C355.975 108.436 354.857 106.161 352.617 106.161Z" fill="white"/>
<path d="M393.885 127.346H369.641V120.836L377.797 111.796C380.126 109.123 381.649 107.302 382.367 106.326C383.084 105.35 383.582 104.509 383.864 103.811C384.147 103.108 384.286 102.372 384.286 101.605C384.286 100.652 384.004 99.9033 383.442 99.3531C382.881 98.8028 382.088 98.5254 381.067 98.5254C380.046 98.5254 378.953 98.8537 377.881 99.5149C376.806 100.176 375.595 101.147 374.236 102.433L369.278 96.0701C371 94.3824 372.447 93.1802 373.62 92.4496C374.793 91.719 376.067 91.1688 377.447 90.785C378.827 90.4012 380.375 90.207 382.097 90.207C384.261 90.207 386.189 90.6232 387.89 91.4601C389.59 92.297 390.906 93.4854 391.843 95.0297C392.78 96.5741 393.248 98.3081 393.248 100.227C393.248 101.665 393.084 102.992 392.759 104.208C392.43 105.429 391.923 106.626 391.24 107.801C390.556 108.98 389.645 110.219 388.51 111.519C387.375 112.822 384.957 115.292 381.257 118.931V119.18H393.894V127.342L393.885 127.346Z" fill="white"/>
<path d="M418.362 127.349L417.244 123.817H416.716C415.969 125.121 414.931 126.115 413.598 126.808C412.265 127.502 410.699 127.849 408.902 127.849C406.054 127.849 403.839 126.943 402.252 125.13C400.666 123.317 399.877 120.76 399.877 117.454V98.9727H408.809V114.472C408.809 116.326 409.05 117.727 409.531 118.68C410.012 119.632 410.801 120.108 411.893 120.108C413.434 120.108 414.531 119.443 415.185 118.116C415.839 116.789 416.168 114.546 416.168 111.392V98.9727H425.1V127.345H418.357L418.362 127.349Z" fill="white"/>
<path d="M153.665 57.2598L132.665 101L111.665 57.2598L113.354 57.5064C114.451 57.6693 115.505 57.4667 116.415 57L132.665 90.8465L148.915 57C149.617 57.3566 150.405 57.5592 151.226 57.5592C151.476 57.5592 151.726 57.546 151.976 57.5064L153.665 57.2598Z" fill="#D26A75"/>
</svg>
