<svg width="390" height="230" viewBox="0 0 390 230" fill="none" xmlns="http://www.w3.org/2000/svg">
<path d="M130.557 98.4507H128.847V94.7916C128.847 93.8896 128.51 93.4346 127.839 93.4346C127.361 93.4346 127.016 93.5954 126.804 93.921C126.592 94.2465 126.486 94.772 126.486 95.5015V98.4468H124.776V89.7324H126.486V91.509C126.486 91.6463 126.474 91.9718 126.447 92.4856L126.408 92.9915H126.498C126.878 92.3797 127.482 92.0738 128.314 92.0738C129.051 92.0738 129.608 92.2699 129.988 92.666C130.369 93.0621 130.561 93.6307 130.561 94.3681V98.4507H130.557Z" fill="#823500"/>
<path d="M138.593 98.559C137.585 98.559 136.797 98.2806 136.228 97.7237C135.659 97.1668 135.377 96.3785 135.377 95.3588C135.377 94.3391 135.64 93.4999 136.165 92.9233C136.691 92.3468 137.416 92.0645 138.342 92.0645C139.267 92.0645 139.915 92.3155 140.409 92.8214C140.903 93.3273 141.15 94.0215 141.15 94.9117V95.7392H137.11C137.13 96.2255 137.271 96.602 137.542 96.8766C137.812 97.1511 138.189 97.2844 138.671 97.2844C139.048 97.2844 139.405 97.2452 139.742 97.1668C140.079 97.0883 140.428 96.9629 140.793 96.7903V98.112C140.495 98.261 140.173 98.3708 139.836 98.4453C139.499 98.5198 139.083 98.5551 138.593 98.5551V98.559ZM138.354 93.2842C137.993 93.2842 137.707 93.3979 137.503 93.6293C137.299 93.8607 137.181 94.1862 137.15 94.6058H139.546C139.538 94.1823 139.428 93.8567 139.216 93.6293C139.005 93.4018 138.714 93.2842 138.354 93.2842Z" fill="#823500"/>
<path d="M149.955 98.4492L149.625 97.5982H149.582C149.296 97.959 148.998 98.21 148.696 98.3512C148.394 98.4924 147.994 98.563 147.507 98.563C146.907 98.563 146.433 98.3904 146.088 98.0492C145.743 97.708 145.57 97.2178 145.57 96.5824C145.57 95.9471 145.801 95.4294 146.268 95.1117C146.735 94.7941 147.433 94.6215 148.37 94.5862L149.457 94.5509V94.2764C149.457 93.641 149.131 93.3234 148.48 93.3234C147.978 93.3234 147.39 93.4763 146.715 93.7783L146.15 92.6253C146.872 92.2488 147.672 92.0605 148.547 92.0605C149.421 92.0605 150.029 92.2449 150.48 92.6096C150.931 92.9743 151.151 93.5312 151.151 94.2803V98.4532H149.959L149.955 98.4492ZM149.449 95.5471L148.786 95.5706C148.288 95.5863 147.919 95.6765 147.676 95.8412C147.433 96.0059 147.311 96.2569 147.311 96.5903C147.311 97.0727 147.586 97.3119 148.139 97.3119C148.535 97.3119 148.853 97.1982 149.088 96.9707C149.323 96.7432 149.445 96.4412 149.445 96.0648V95.551L149.449 95.5471Z" fill="#823500"/>
<path d="M158.057 98.4507H156.347V89.7363H158.057V98.4507Z" fill="#823500"/>
<path d="M165.928 97.1991C166.226 97.1991 166.587 97.1324 167.003 97.003V98.2737C166.575 98.4658 166.054 98.56 165.434 98.56C164.752 98.56 164.254 98.3874 163.94 98.0423C163.63 97.6971 163.473 97.1795 163.473 96.4892V93.4694H162.654V92.7478L163.595 92.1752L164.089 90.8535H165.179V92.187H166.932V93.4694H165.179V96.4892C165.179 96.7324 165.246 96.9128 165.383 97.0265C165.52 97.1402 165.701 97.1991 165.924 97.1991H165.928Z" fill="#823500"/>
<path d="M177.49 98.4507H175.78V94.7916C175.78 93.8896 175.443 93.4346 174.772 93.4346C174.293 93.4346 173.948 93.5954 173.737 93.921C173.525 94.2465 173.419 94.772 173.419 95.5015V98.4468H171.709V89.7324H173.419V91.509C173.419 91.6463 173.407 91.9718 173.38 92.4856L173.34 92.9915H173.431C173.811 92.3797 174.415 92.0738 175.246 92.0738C175.984 92.0738 176.541 92.2699 176.921 92.666C177.302 93.0621 177.494 93.6307 177.494 94.3681V98.4507H177.49Z" fill="#823500"/>
<path d="M185.232 98.559C183.282 98.559 182.306 97.4884 182.306 95.3509C182.306 94.2881 182.573 93.4724 183.102 92.9116C183.632 92.3507 184.392 92.0684 185.381 92.0684C186.106 92.0684 186.753 92.2095 187.33 92.4958L186.824 93.8175C186.553 93.7077 186.306 93.6214 186.075 93.5508C185.843 93.4802 185.612 93.4489 185.381 93.4489C184.49 93.4489 184.047 94.0803 184.047 95.3431C184.047 96.6059 184.49 97.1785 185.381 97.1785C185.71 97.1785 186.012 97.1354 186.294 97.0452C186.577 96.955 186.855 96.8216 187.134 96.6334V98.0962C186.859 98.2727 186.577 98.3943 186.294 98.461C186.012 98.5277 185.655 98.5629 185.228 98.5629L185.232 98.559Z" fill="#823500"/>
<path d="M196.005 98.4492L195.676 97.5982H195.632C195.346 97.959 195.048 98.21 194.746 98.3512C194.444 98.4924 194.044 98.563 193.558 98.563C192.958 98.563 192.483 98.3904 192.138 98.0492C191.793 97.708 191.62 97.2178 191.62 96.5824C191.62 95.9471 191.852 95.4294 192.318 95.1117C192.785 94.7941 193.483 94.6215 194.421 94.5862L195.507 94.5509V94.2764C195.507 93.641 195.181 93.3234 194.53 93.3234C194.028 93.3234 193.444 93.4763 192.766 93.7783L192.201 92.6253C192.922 92.2488 193.719 92.0605 194.597 92.0605C195.476 92.0605 196.08 92.2449 196.531 92.6096C196.982 92.9743 197.201 93.5312 197.201 94.2803V98.4532H196.009L196.005 98.4492ZM195.503 95.5471L194.84 95.5706C194.342 95.5863 193.973 95.6765 193.73 95.8412C193.487 96.0059 193.366 96.2569 193.366 96.5903C193.366 97.0727 193.64 97.3119 194.193 97.3119C194.589 97.3119 194.907 97.1982 195.142 96.9707C195.378 96.7432 195.499 96.4412 195.499 96.0648V95.551L195.503 95.5471Z" fill="#823500"/>
<path d="M205.896 92.0684C206.127 92.0684 206.319 92.084 206.472 92.1193L206.343 93.7195C206.206 93.6842 206.037 93.6646 205.837 93.6646C205.292 93.6646 204.868 93.8057 204.562 94.0842C204.256 94.3626 204.107 94.7548 204.107 95.2608V98.4492H202.397V92.186H203.692L203.943 93.2371H204.025C204.221 92.888 204.48 92.6017 204.813 92.39C205.147 92.1782 205.504 92.0684 205.892 92.0684H205.896Z" fill="#823500"/>
<path d="M213.885 98.559C212.877 98.559 212.088 98.2806 211.52 97.7237C210.951 97.1668 210.669 96.3785 210.669 95.3588C210.669 94.3391 210.931 93.4999 211.457 92.9233C211.983 92.3468 212.708 92.0645 213.634 92.0645C214.559 92.0645 215.206 92.3155 215.7 92.8214C216.195 93.3273 216.442 94.0215 216.442 94.9117V95.7392H212.402C212.422 96.2255 212.563 96.602 212.834 96.8766C213.104 97.1511 213.481 97.2844 213.963 97.2844C214.34 97.2844 214.696 97.2452 215.034 97.1668C215.371 97.0883 215.72 96.9629 216.085 96.7903V98.112C215.787 98.261 215.465 98.3708 215.128 98.4453C214.791 98.5198 214.375 98.5551 213.885 98.5551V98.559ZM213.645 93.2842C213.285 93.2842 212.998 93.3979 212.794 93.6293C212.59 93.8607 212.473 94.1862 212.441 94.6058H214.838C214.83 94.1823 214.72 93.8567 214.508 93.6293C214.296 93.4018 214.006 93.2842 213.645 93.2842Z" fill="#823500"/>
<path d="M231.666 98.4492L231.337 97.5982H231.294C231.007 97.959 230.709 98.21 230.407 98.3512C230.105 98.4924 229.705 98.563 229.219 98.563C228.619 98.563 228.144 98.3904 227.799 98.0492C227.454 97.708 227.281 97.2178 227.281 96.5824C227.281 95.9471 227.513 95.4294 227.98 95.1117C228.446 94.798 229.144 94.6215 230.082 94.5862L231.168 94.5509V94.2764C231.168 93.641 230.843 93.3234 230.191 93.3234C229.69 93.3234 229.105 93.4763 228.427 93.7783L227.862 92.6253C228.584 92.2488 229.38 92.0605 230.258 92.0605C231.137 92.0605 231.741 92.2449 232.192 92.6096C232.643 92.9743 232.862 93.5312 232.862 94.2803V98.4532H231.67L231.666 98.4492ZM231.164 95.5471L230.501 95.5706C230.003 95.5863 229.635 95.6765 229.391 95.8412C229.148 96.0059 229.027 96.2569 229.027 96.5903C229.027 97.0727 229.301 97.3119 229.854 97.3119C230.25 97.3119 230.568 97.1982 230.803 96.9707C231.039 96.7432 231.16 96.4412 231.16 96.0648V95.551L231.164 95.5471Z" fill="#823500"/>
<path d="M240.698 97.1991C240.996 97.1991 241.357 97.1324 241.773 97.003V98.2737C241.345 98.4658 240.824 98.56 240.204 98.56C239.522 98.56 239.024 98.3874 238.71 98.0423C238.396 97.6971 238.243 97.1795 238.243 96.4892V93.4694H237.424V92.7478L238.365 92.1752L238.859 90.8535H239.949V92.187H241.702V93.4694H239.949V96.4892C239.949 96.7324 240.016 96.9128 240.153 97.0265C240.29 97.1402 240.471 97.1991 240.694 97.1991H240.698Z" fill="#823500"/>
<path d="M256.362 93.4682H254.883V98.449H253.173V93.4682H252.232V92.6446L253.173 92.1858V91.7269C253.173 91.0131 253.35 90.4915 253.699 90.166C254.048 89.8405 254.613 89.6719 255.385 89.6719C255.974 89.6719 256.499 89.7581 256.958 89.9346L256.523 91.1896C256.178 91.0798 255.86 91.0288 255.57 91.0288C255.326 91.0288 255.15 91.0994 255.044 91.2445C254.938 91.3896 254.883 91.574 254.883 91.7975V92.1897H256.362V93.4721V93.4682Z" fill="#823500"/>
<path d="M260.711 90.5678C260.711 90.0109 261.021 89.7324 261.641 89.7324C262.261 89.7324 262.57 90.0109 262.57 90.5678C262.57 90.8345 262.492 91.0384 262.339 91.1874C262.186 91.3365 261.951 91.407 261.641 91.407C261.021 91.407 260.711 91.1286 260.711 90.5678ZM262.492 98.4507H260.782V92.1875H262.492V98.4507Z" fill="#823500"/>
<path d="M273.509 98.4492H271.799V94.7901C271.799 94.3391 271.72 93.9979 271.559 93.7744C271.399 93.5508 271.144 93.4371 270.791 93.4371C270.312 93.4371 269.967 93.5979 269.755 93.9155C269.544 94.2332 269.438 94.7627 269.438 95.5039V98.4492H267.728V92.186H269.034L269.265 92.9861H269.359C269.551 92.6841 269.81 92.4566 270.148 92.2997C270.485 92.1429 270.861 92.0684 271.289 92.0684C272.018 92.0684 272.571 92.2645 272.948 92.6606C273.324 93.0567 273.513 93.6214 273.513 94.3666V98.4492H273.509Z" fill="#823500"/>
<path d="M284.156 92.186V93.0527L283.176 93.3037C283.356 93.5822 283.446 93.8959 283.446 94.245C283.446 94.9156 283.211 95.4411 282.744 95.8176C282.278 96.1941 281.627 96.3824 280.791 96.3824L280.481 96.3667L280.23 96.3393C280.054 96.4726 279.968 96.6216 279.968 96.7863C279.968 97.0334 280.281 97.155 280.909 97.155H281.972C282.658 97.155 283.184 97.304 283.544 97.5982C283.905 97.8923 284.086 98.3276 284.086 98.8963C284.086 99.6297 283.78 100.194 283.168 100.598C282.556 101.002 281.682 101.202 280.536 101.202C279.662 101.202 278.995 101.049 278.532 100.747C278.07 100.445 277.842 100.018 277.842 99.4689C277.842 99.0924 277.96 98.7747 278.195 98.5237C278.43 98.2727 278.775 98.0884 279.23 97.9786C279.054 97.9041 278.901 97.7825 278.772 97.6099C278.642 97.4374 278.575 97.2609 278.575 97.0687C278.575 96.8295 278.646 96.6295 278.783 96.4726C278.921 96.3157 279.121 96.1589 279.383 96.0059C279.054 95.8647 278.795 95.6372 278.603 95.3235C278.411 95.0098 278.313 94.6411 278.313 94.2136C278.313 93.5312 278.536 93.0018 278.979 92.6292C279.423 92.2566 280.058 92.0684 280.885 92.0684C281.062 92.0684 281.27 92.084 281.509 92.1154C281.748 92.1468 281.905 92.1703 281.972 92.186H284.156ZM279.324 99.3316C279.324 99.5669 279.438 99.7513 279.662 99.8846C279.885 100.018 280.203 100.085 280.611 100.085C281.223 100.085 281.701 100.002 282.05 99.8336C282.399 99.665 282.572 99.4375 282.572 99.1434C282.572 98.9081 282.47 98.7473 282.262 98.6571C282.054 98.5669 281.74 98.5237 281.309 98.5237H280.423C280.109 98.5237 279.846 98.5982 279.634 98.7434C279.423 98.8885 279.317 99.0846 279.317 99.3277L279.324 99.3316ZM279.944 94.2371C279.944 94.5783 280.023 94.845 280.176 95.045C280.328 95.2451 280.568 95.3431 280.885 95.3431C281.203 95.3431 281.442 95.2451 281.591 95.045C281.74 94.845 281.815 94.5783 281.815 94.2371C281.815 93.4841 281.505 93.1076 280.885 93.1076C280.266 93.1076 279.944 93.4841 279.944 94.2371Z" fill="#823500"/>
<path d="M291.463 98.559C290.455 98.559 289.667 98.2806 289.098 97.7237C288.529 97.1668 288.247 96.3785 288.247 95.3588C288.247 94.3391 288.51 93.4999 289.035 92.9233C289.561 92.3507 290.286 92.0645 291.212 92.0645C292.137 92.0645 292.784 92.3155 293.279 92.8214C293.773 93.3273 294.02 94.0215 294.02 94.9117V95.7392H289.98C290 96.2255 290.141 96.602 290.412 96.8766C290.682 97.1511 291.059 97.2844 291.541 97.2844C291.918 97.2844 292.275 97.2452 292.612 97.1668C292.949 97.0883 293.298 96.9629 293.663 96.7903V98.112C293.365 98.261 293.043 98.3708 292.706 98.4453C292.369 98.5198 291.953 98.5551 291.463 98.5551V98.559ZM291.224 93.2842C290.863 93.2842 290.576 93.3979 290.372 93.6293C290.169 93.8607 290.051 94.1862 290.02 94.6058H292.416C292.408 94.1823 292.298 93.8567 292.086 93.6293C291.875 93.4018 291.584 93.2842 291.224 93.2842Z" fill="#823500"/>
<path d="M302.342 92.0684C302.573 92.0684 302.765 92.084 302.918 92.1193L302.789 93.7195C302.652 93.6842 302.483 93.6646 302.283 93.6646C301.738 93.6646 301.314 93.8057 301.008 94.0842C300.702 94.3626 300.553 94.7548 300.553 95.2608V98.4492H298.844V92.186H300.138L300.389 93.2371H300.471C300.667 92.888 300.926 92.6017 301.259 92.39C301.589 92.1743 301.95 92.0684 302.338 92.0684H302.342Z" fill="#823500"/>
<path d="M310.135 97.1991C310.433 97.1991 310.793 97.1324 311.209 97.003V98.2737C310.782 98.4658 310.26 98.56 309.64 98.56C308.958 98.56 308.46 98.3874 308.146 98.0423C307.832 97.6971 307.68 97.1795 307.68 96.4892V93.4694H306.86V92.7478L307.801 92.1752L308.295 90.8535H309.386V92.187H311.139V93.4694H309.386V96.4892C309.386 96.7324 309.452 96.9128 309.589 97.0265C309.727 97.1402 309.907 97.1991 310.131 97.1991H310.135Z" fill="#823500"/>
<path d="M315.845 90.5678C315.845 90.0109 316.155 89.7324 316.774 89.7324C317.394 89.7324 317.704 90.0109 317.704 90.5678C317.704 90.8345 317.625 91.0384 317.473 91.1874C317.32 91.3365 317.084 91.407 316.774 91.407C316.155 91.407 315.845 91.1286 315.845 90.5678ZM317.626 98.4507H315.916V92.1875H317.626V98.4507Z" fill="#823500"/>
<path d="M326.301 98.559C325.563 98.559 324.987 98.2923 324.571 97.759H324.481C324.54 98.2806 324.571 98.5826 324.571 98.6649V101.202H322.861V92.186H324.249L324.489 92.9978H324.567C324.967 92.3782 325.559 92.0684 326.344 92.0684C327.085 92.0684 327.661 92.3547 328.081 92.9272C328.501 93.4998 328.709 94.2921 328.709 95.3078C328.709 95.9745 328.611 96.555 328.414 97.0491C328.218 97.5433 327.94 97.9158 327.575 98.1747C327.21 98.4335 326.787 98.5629 326.297 98.5629L326.301 98.559ZM325.795 93.4332C325.371 93.4332 325.065 93.5626 324.869 93.8214C324.673 94.0803 324.575 94.5077 324.567 95.1078V95.2921C324.567 95.9628 324.665 96.4451 324.865 96.7354C325.065 97.0256 325.383 97.1707 325.814 97.1707C326.579 97.1707 326.963 96.5393 326.963 95.2764C326.963 94.6607 326.869 94.1979 326.681 93.892C326.493 93.5861 326.195 93.4292 325.795 93.4292V93.4332Z" fill="#823500"/>
<path d="M337.929 96.5863C337.929 97.2295 337.705 97.7158 337.258 98.0531C336.811 98.3904 336.144 98.559 335.254 98.559C334.799 98.559 334.411 98.5276 334.089 98.4649C333.767 98.4021 333.465 98.3119 333.187 98.1943V96.7824C333.505 96.9315 333.862 97.057 334.258 97.1589C334.654 97.2609 335.007 97.3119 335.309 97.3119C335.928 97.3119 336.238 97.1315 336.238 96.7746C336.238 96.6412 336.199 96.5314 336.117 96.4451C336.034 96.3589 335.893 96.2647 335.689 96.1588C335.485 96.053 335.219 95.9275 334.881 95.7863C334.399 95.5863 334.046 95.398 333.819 95.2255C333.591 95.0529 333.426 94.8568 333.324 94.6333C333.222 94.4097 333.171 94.1391 333.171 93.8136C333.171 93.2567 333.387 92.8253 333.819 92.5233C334.25 92.2213 334.862 92.0684 335.654 92.0684C336.446 92.0684 337.14 92.2331 337.854 92.5625L337.34 93.794C337.027 93.6606 336.732 93.5508 336.462 93.4645C336.191 93.3783 335.913 93.3351 335.626 93.3351C335.121 93.3351 334.87 93.4724 334.87 93.743C334.87 93.8959 334.952 94.0293 335.113 94.1391C335.273 94.2489 335.63 94.4176 336.179 94.6372C336.67 94.8333 337.027 95.0215 337.254 95.1901C337.481 95.3588 337.65 95.5588 337.76 95.7824C337.87 96.0059 337.921 96.2726 337.921 96.5824L337.929 96.5863Z" fill="#823500"/>
<path d="M361.475 148.148C363.347 148.148 364.864 146.631 364.864 144.76C364.864 142.888 363.347 141.371 361.475 141.371C359.604 141.371 358.087 142.888 358.087 144.76C358.087 146.631 359.604 148.148 361.475 148.148Z" fill="#FD5D5D"/>
<path d="M361.475 134.061C367.374 134.061 372.17 138.861 372.17 144.756H375.633C375.633 136.947 369.28 130.598 361.475 130.598V134.061Z" fill="#FD5D5D"/>
<path d="M361.475 139.543C364.35 139.543 366.687 141.88 366.687 144.755H370.15C370.15 139.971 366.26 136.08 361.475 136.08V139.543Z" fill="#FD5D5D"/>
<path d="M361.774 119.23C347.982 119.23 336.758 130.467 336.758 144.283C336.758 156.381 345.365 166.502 356.758 168.833C353.21 177.322 345.219 188.669 327.189 196.218C291.372 210.679 267.124 201.258 223.112 184.155C193.775 172.757 157.259 158.575 104.204 146.505C91.5622 143.587 80.3884 142.435 70.7335 143.033V124.137L76.4127 122.777C78.7126 122.226 80.8947 121.353 82.916 120.201C86.7858 117.992 90.0512 114.756 92.2726 110.808L107.74 83.3882C108.337 82.3306 107.964 80.9859 106.908 80.3922L106.712 80.2821L103.187 78.2848C102.846 78.0922 102.477 78.0017 102.108 78.0017C101.339 78.0017 100.601 78.4028 100.197 79.1183L84.7292 106.538C82.5235 110.443 78.7557 113.285 74.4032 114.331L70.7335 115.212L66.4006 116.246L62.0677 115.212L58.398 114.331C54.0376 113.285 50.2777 110.443 48.072 106.538L32.6045 79.1183C32.008 78.0607 30.6696 77.6872 29.6139 78.2848L26.0894 80.2821L25.8932 80.3922C24.8374 80.9899 24.4685 82.3306 25.0611 83.3882L40.5286 110.808C42.7539 114.756 46.0154 117.988 49.8852 120.201C51.9065 121.353 54.0886 122.226 56.3886 122.777L62.0677 124.137V144.122C53.6883 145.758 46.7336 149.025 41.239 153.9C28.8014 164.964 27.4356 183.908 38.1306 197.044C38.3857 197.354 38.6408 197.661 38.9037 197.968C43.8843 203.743 51.7259 205.756 58.8847 203.083C66.0827 200.405 70.7296 193.709 70.7296 186.031V151.789C79.6781 151.148 90.2631 152.198 102.265 154.97C154.723 166.895 190.902 180.955 219.98 192.251C249.188 203.598 270.802 212 293.232 212C305.014 212 317.028 209.68 330.474 204.25C353.493 194.61 362.48 179.437 365.989 168.979C377.779 166.966 386.779 156.66 386.779 144.283C386.779 130.467 375.558 119.23 361.77 119.23H361.774ZM62.0716 186.035C62.0716 190.906 58.8651 193.835 55.8666 194.956C52.8994 196.061 48.6057 195.939 45.4659 192.298C45.2579 192.054 45.0578 191.806 44.8498 191.559C37.1023 182.048 38.0442 168.357 46.9966 160.396C50.9017 156.924 55.9607 154.471 62.0716 153.059V186.035ZM368.128 159.369C366.178 160.203 364.027 160.659 361.774 160.659C360.907 160.659 360.063 160.588 359.231 160.455C351.416 159.232 345.419 152.446 345.419 144.283C345.419 135.252 352.755 127.908 361.77 127.908C370.785 127.908 378.117 135.252 378.117 144.283C378.117 151.058 373.992 156.881 368.124 159.369H368.128Z" fill="#2E2E2E"/>
<path d="M54.0183 17.0429C54.0183 18.9999 52.881 20.655 51.2691 21.4472C50.4259 21.8629 49.4494 22.0433 48.4336 21.8982L46.8688 21.6786L39.3192 20.6275C38.7074 20.5412 38.2093 20.153 37.9505 19.6353C31.652 20.9412 25.7967 23.1336 20.4512 26.2044C12.4624 30.7929 9.59553 40.8407 13.9174 49.0884L29.5577 78.9297L26.0359 80.922L10.3368 50.9669C5.00304 40.7897 8.56016 28.3771 18.4354 22.7022C24.3338 19.3137 30.8049 16.9292 37.7544 15.5566V15.2624C37.7544 14.3565 38.425 13.5839 39.3192 13.4623L48.4336 12.1877C48.665 12.1524 48.8964 12.1406 49.1199 12.1406C51.775 12.1406 54.0144 14.2976 54.0144 17.0469L54.0183 17.0429Z" fill="#FD5D5D"/>
<path d="M122.305 50.9639L106.606 80.919L103.084 78.9267L118.725 49.0853C123.047 40.8377 120.18 30.7899 112.191 26.2014C106.842 23.1306 100.986 20.9382 94.6917 19.6323C94.4329 20.1499 93.9309 20.5382 93.3191 20.6245L85.7773 21.6755L84.2125 21.8952C83.9811 21.9305 83.7497 21.9422 83.5184 21.9422C82.7575 21.9422 82.0281 21.7618 81.377 21.4442C79.7651 20.6519 78.6278 18.9969 78.6278 17.0399C78.6278 14.0632 81.2594 11.7689 84.2086 12.1807L93.3151 13.4553C94.2172 13.5769 94.8839 14.3495 94.8839 15.2555V15.5496C101.833 16.9223 108.304 19.3067 114.203 22.6952C124.078 28.3701 127.635 40.7828 122.302 50.96L122.305 50.9639Z" fill="#FD5D5D"/>
<path d="M148.797 69.0435C148.797 72.981 147.739 76.0479 145.621 78.252C143.503 80.4521 140.542 81.5542 136.734 81.5542C132.926 81.5542 130.177 80.4286 128.016 78.1775C125.855 75.9263 124.776 72.883 124.776 69.0435C124.776 65.204 125.835 62.0743 127.953 59.9016C130.071 57.7289 133.039 56.6426 136.863 56.6426C139.228 56.6426 141.315 57.1446 143.13 58.1486C144.946 59.1526 146.342 60.5958 147.327 62.4704C148.311 64.3451 148.801 66.5374 148.801 69.0435H148.797ZM133.208 69.0435C133.208 71.1103 133.483 72.6869 134.036 73.7693C134.589 74.8517 135.514 75.3929 136.816 75.3929C138.118 75.3929 139.012 74.8517 139.546 73.7693C140.079 72.6869 140.342 71.1103 140.342 69.0435C140.342 66.9766 140.071 65.4393 139.534 64.3921C138.997 63.345 138.075 62.8195 136.773 62.8195C135.471 62.8195 134.585 63.3411 134.032 64.3804C133.479 65.4197 133.204 66.9766 133.204 69.0435H133.208Z" fill="#FD5D5D"/>
<path d="M169.32 56.6434C171.94 56.6434 174.019 57.7415 175.552 59.9338C177.09 62.1301 177.858 65.1656 177.858 69.0443C177.858 72.923 177.082 76.0134 175.533 78.2293C173.984 80.4451 171.827 81.555 169.066 81.555C168.175 81.555 167.379 81.4609 166.685 81.2687C165.991 81.0765 165.371 80.8138 164.826 80.4726C164.281 80.1314 163.646 79.5666 162.924 78.7744H162.414L161.096 81.1314H154.617V48.0859H162.92V55.561C162.92 56.4512 162.822 57.9886 162.622 60.1692H162.92C163.728 58.922 164.657 58.0239 165.712 57.4709C166.767 56.9179 167.967 56.6434 169.313 56.6434H169.32ZM166.281 63.1615C165.12 63.1615 164.269 63.5655 163.732 64.3734C163.195 65.1813 162.924 66.448 162.924 68.1736V69.3424C162.924 71.3111 163.195 72.723 163.732 73.578C164.269 74.4329 165.148 74.8643 166.367 74.8643C167.344 74.8643 168.093 74.3662 168.618 73.3662C169.144 72.3661 169.403 70.8993 169.403 68.958C169.403 65.0911 168.364 63.1615 166.281 63.1615Z" fill="#FD5D5D"/>
<path d="M183.51 51.0792C183.51 49.832 183.855 48.9064 184.549 48.2986C185.243 47.6907 186.361 47.3848 187.906 47.3848C189.451 47.3848 190.573 47.6946 191.283 48.3182C191.993 48.9417 192.346 49.8634 192.346 51.0792C192.346 53.5146 190.867 54.7304 187.906 54.7304C184.945 54.7304 183.51 53.5146 183.51 51.0792ZM192.028 81.1323H183.725V57.0678H192.028V81.1323Z" fill="#FD5D5D"/>
<path d="M204.79 81.1294V50.0801H213.179V74.3563H225.136V81.1333H204.79V81.1294Z" fill="#2E2E2E"/>
<path d="M246.401 81.1306L244.808 77.946H244.64C243.522 79.3344 242.381 80.2835 241.22 80.7933C240.059 81.3031 238.557 81.5581 236.718 81.5581C234.451 81.5581 232.67 80.8796 231.364 79.5187C230.062 78.1578 229.411 76.2479 229.411 73.785C229.411 71.322 230.301 69.314 232.086 68.063C233.87 66.808 236.455 66.106 239.839 65.9491L243.855 65.8236V65.4824C243.855 63.5019 242.879 62.5096 240.926 62.5096C239.169 62.5096 236.941 63.1058 234.235 64.2941L231.835 58.8152C234.639 57.372 238.176 56.6504 242.455 56.6504C245.542 56.6504 247.93 57.4152 249.624 58.9447C251.315 60.4742 252.162 62.6116 252.162 65.3569V81.1384H246.404L246.401 81.1306ZM240.243 75.691C241.247 75.691 242.11 75.3733 242.824 74.734C243.538 74.0987 243.895 73.2673 243.895 72.2476V70.3769L241.985 70.4631C239.251 70.5612 237.886 71.5691 237.886 73.479C237.886 74.9537 238.671 75.6871 240.243 75.6871V75.691Z" fill="#2E2E2E"/>
<path d="M273.591 56.6434C276.21 56.6434 278.289 57.7415 279.823 59.9338C281.356 62.1262 282.129 65.1656 282.129 69.0443C282.129 72.923 281.352 76.0134 279.803 78.2293C278.254 80.4451 276.097 81.555 273.336 81.555C272.446 81.555 271.649 81.4609 270.955 81.2687C270.261 81.0765 269.641 80.8138 269.096 80.4726C268.551 80.1314 267.916 79.5666 267.194 78.7744H266.684L265.367 81.1314H258.888V48.0859H267.19V55.561C267.19 56.4512 267.092 57.9886 266.892 60.1692H267.19C267.998 58.922 268.928 58.0239 269.983 57.4709C271.038 56.9179 272.238 56.6434 273.583 56.6434H273.591ZM270.555 63.1615C269.394 63.1615 268.543 63.5655 268.006 64.3734C267.469 65.1813 267.198 66.448 267.198 68.1736V69.3424C267.198 71.3111 267.469 72.723 268.006 73.578C268.543 74.4329 269.422 74.8643 270.641 74.8643C271.618 74.8643 272.367 74.3662 272.893 73.3662C273.418 72.3661 273.677 70.8993 273.677 68.958C273.677 65.0911 272.638 63.1615 270.555 63.1615Z" fill="#2E2E2E"/>
<path d="M308.915 81.1292H286.38V75.6072L293.961 67.94C296.126 65.6732 297.541 64.128 298.208 63.3005C298.875 62.473 299.338 61.7592 299.6 61.167C299.863 60.5709 299.993 59.9473 299.993 59.2963C299.993 58.4884 299.73 57.853 299.208 57.3863C298.687 56.9196 297.949 56.6843 297 56.6843C296.051 56.6843 295.035 56.9628 294.039 57.5236C293.039 58.0844 291.913 58.908 290.651 59.9983L286.042 54.6018C287.643 53.1703 288.988 52.1507 290.078 51.531C291.168 50.9114 292.353 50.4447 293.635 50.1191C294.918 49.7936 296.357 49.6289 297.957 49.6289C299.969 49.6289 301.761 49.9819 303.342 50.6917C304.922 51.4016 306.146 52.4095 307.017 53.7194C307.887 55.0293 308.323 56.5 308.323 58.1275C308.323 59.3472 308.17 60.4728 307.868 61.5043C307.562 62.5396 307.091 63.5554 306.456 64.5515C305.82 65.5516 304.973 66.6027 303.918 67.7047C302.863 68.8107 300.616 70.9049 297.177 73.9914V74.2032H308.923V81.1253L308.915 81.1292Z" fill="#2E2E2E"/>
<path d="M331.665 81.1309L330.626 78.1346H330.136C329.442 79.2406 328.477 80.0838 327.238 80.672C325.998 81.2603 324.543 81.5545 322.873 81.5545C320.225 81.5545 318.167 80.7858 316.692 79.2484C315.217 77.711 314.484 75.5423 314.484 72.7381V57.0625H322.786V70.2085C322.786 71.7812 323.01 72.9695 323.457 73.7774C323.904 74.5853 324.638 74.9893 325.653 74.9893C327.085 74.9893 328.104 74.4245 328.712 73.299C329.32 72.1734 329.626 70.2713 329.626 67.5966V57.0625H337.929V81.127H331.662L331.665 81.1309Z" fill="#2E2E2E"/>
<path d="M86.7786 21.2362L66.7786 61L46.7786 21.2362L48.3874 21.4603C49.4318 21.6084 50.4358 21.4243 51.3028 21L66.7786 51.7695L82.2544 21C82.9237 21.3242 83.6737 21.5084 84.456 21.5084C84.6939 21.5084 84.9318 21.4963 85.1697 21.4603L86.7786 21.2362Z" fill="#D26A75"/>
</svg>
