<svg id="SvgjsSvg1040" width="288" height="288" xmlns="http://www.w3.org/2000/svg" version="1.1" xmlns:xlink="http://www.w3.org/1999/xlink" xmlns:svgjs="http://svgjs.com/svgjs"><defs id="SvgjsDefs1041"></defs><g id="SvgjsG1042"><svg xmlns="http://www.w3.org/2000/svg" viewBox="0 0 128 128" width="288" height="288"><circle cx="115" cy="88" r="2" fill="#dc2626" class="svgShape color000000-0 selectable"></circle><circle cx="107" cy="88" r="2" fill="#dc2626" class="svgShape color000000-1 selectable"></circle><circle cx="99" cy="88" r="2" fill="#dc2626" class="svgShape color000000-2 selectable"></circle><path d="M62.13 0H9.87A9.88 9.88 0 0 0 0 9.87v108.26A9.88 9.88 0 0 0 9.87 128h52.26a10 10 0 0 0 9.87-9.87V9.87A9.88 9.88 0 0 0 62.13 0ZM4 9.87A5.88 5.88 0 0 1 9.87 4h52.26A5.88 5.88 0 0 1 68 9.87v82.8c-4-7.87-13.5-16.52-22.44-18.36A19.21 19.21 0 0 0 55 58V33a10.4 10.4 0 0 0-10-10H27a10.4 10.4 0 0 0-10 10v25a19.21 19.21 0 0 0 9.46 16.32C15.76 77.79 8 84.82 4 93.07ZM21 47h30v11a15.39 15.39 0 0 1-15 15 15.39 15.39 0 0 1-15-15Zm30-4H21V33a6.4 6.4 0 0 1 6-6h18a6.4 6.4 0 0 1 6 6ZM9.87 124A5.88 5.88 0 0 1 4 118.13v-8.46a33.2 33.2 0 0 1 9.89-23.49 32.25 32.25 0 0 1 9.8-6.62c-1 2.69-1.83 5.79-2.29 7.58A8.76 8.76 0 0 0 14 96v13a2 2 0 0 0 2 2h2a2 2 0 0 0 0-4V96a4.83 4.83 0 0 1 5-5 4.83 4.83 0 0 1 5 5v11a2 2 0 0 0 0 4h2a2 2 0 0 0 2-2V96a8.76 8.76 0 0 0-6.51-8.67c.79-3 2.1-7.41 3.23-9.31 0 0 .05-.11.08-.16A30.48 30.48 0 0 1 36 77a42.45 42.45 0 0 1 10.44 1.78c2 3.7 3 9 3.35 11.67a7.39 7.39 0 1 0 4-.07 50.88 50.88 0 0 0-2-9.13A31.93 31.93 0 0 1 68 109v9.56c0 2.73-2.71 5.44-5.84 5.44ZM52 94.13a3.39 3.39 0 1 1-3.39 3.39A3.39 3.39 0 0 1 52 94.13Z" fill="#000000" class="svgShape color000000-3 selectable"></path><path d="M30 12h12a2 2 0 0 0 0-4H30a2 2 0 0 0 0 4zm9 21h-1v-1a2 2 0 0 0-4 0v1h-1a2 2 0 0 0 0 4h1v1a2 2 0 0 0 4 0v-1h1a2 2 0 0 0 0-4zm52.43 2.57a2 2 0 0 0 2-2 3.57 3.57 0 1 1 7.14 0c0 1.29-.67 2.06-1.94 3.42C97.1 38.63 95 40.88 95 45a2 2 0 0 0 4 0c0-2.55 1.13-3.75 2.55-5.28s3-3.22 3-6.15a7.57 7.57 0 1 0-15.14 0 2 2 0 0 0 2.02 2z" fill="#dc2626" class="svgShape color000000-4 selectable"></path><circle cx="97" cy="51.77" r="2.23" fill="#dc2626" class="svgShape color000000-5 selectable"></circle><path d="M122 70H92a6 6 0 0 0-6 6v10.34a18.71 18.71 0 0 1-9 16 2 2 0 0 0 1 3.66h44a6 6 0 0 0 6-6V76a6 6 0 0 0-6-6zm2 30a2 2 0 0 1-2 2H83.68A22.7 22.7 0 0 0 90 86.34V76a2 2 0 0 1 2-2h30a2 2 0 0 1 2 2zM82 62h44a2 2 0 0 0 1-3.71 18.71 18.71 0 0 1-9-15.95V24a6 6 0 0 0-6-6H82a6 6 0 0 0-6 6v32a6 6 0 0 0 6 6zm-2-38a2 2 0 0 1 2-2h30a2 2 0 0 1 2 2v18.34A22.7 22.7 0 0 0 120.32 58H82a2 2 0 0 1-2-2z" fill="#dc2626" class="svgShape color000000-6 selectable"></path></svg></g></svg>