<svg id="Capa_1" enable-background="new 0 0 512 512" height="512" viewBox="0 0 512 512" width="512" xmlns="http://www.w3.org/2000/svg"><g><path d="m242.355 397.9-35.979-6.924c-1.962-.374-3.994.043-5.644 1.17-1.651 1.126-2.784 2.864-3.148 4.828l-11.901 64.206c-.755 4.073 1.935 7.986 6.008 8.741.462.086.921.127 1.375.127 3.544 0 6.697-2.523 7.366-6.134l10.524-56.781 28.563 5.497c4.067.777 8-1.881 8.782-5.948s-1.879-7.998-5.946-8.782z"/><path d="m219.29 261.249v-38.327h51.234c20.897 0 40.02-12.905 46.502-31.384 4.716-13.444 1.68-26.773-8.085-36.397.692-16.316-5.497-31.555-17.664-43.267-9.66-9.298-21.965-14.936-32.653-15.223-6.416-8.641-17.311-15.376-31.241-19.211-16.075-4.425-32.748-4.156-44.18.483-11.476-6.765-28.392-8.432-46.442-4.389-20.895 4.679-38.36 15.747-46.583 29.303-14.817 4.719-29.596 17.256-37.562 32.136-5.71 10.666-7.472 21.413-5.195 31.38-7.384 8.526-10.395 20.932-8.51 35.537.53 4.107 4.291 7.007 8.398 6.479 4.108-.53 7.009-4.29 6.479-8.398-1.039-8.05-.076-15.082 2.641-20.267 14.2 11.934 34.826 16.462 53.752 8.892 3.846-1.539 5.716-5.903 4.178-9.749s-5.901-5.718-9.749-4.179c-16.286 6.517-33.513-.11-42.063-9.865-2.688-8.611.255-17.07 3.294-22.75 6.415-11.984 18.821-22.287 30.391-25.343h3.057c13.591 0 24.648 11.058 24.648 24.648v2.969c0 14.897 12.12 27.018 27.018 27.018h9.94c4.142 0 7.5-3.357 7.5-7.5s-3.358-7.5-7.5-7.5h-9.94c-6.627 0-12.018-5.391-12.018-12.018v-2.969c0-18.367-12.555-33.852-29.532-38.336 7.331-6.656 18.285-12.085 30.635-14.851 13.937-3.12 26.931-2.173 35.035 2.382v18.884c0 17.313 14.084 31.397 31.397 31.397h18.667c4.142 0 7.5-3.357 7.5-7.5s-3.358-7.5-7.5-7.5h-18.669c-9.042 0-16.397-7.355-16.397-16.397v-18.07c8.251-2.86 21.392-2.75 33.329.536 11.934 3.286 20.931 9.131 24.684 16.037 1.503 2.768 4.576 4.306 7.689 3.838 5.752-.851 16.054 2.198 25.099 10.904 5.407 5.205 14.063 16.231 13.027 32.725l-5.062 6.453c-5.445 6.94-13.627 10.921-22.449 10.921h-6.376c-4.142 0-7.5 3.357-7.5 7.5s3.358 7.5 7.5 7.5h6.376c13.459 0 25.943-6.073 34.25-16.662l.987-1.258c3.806 6.319 2.599 12.852 1.245 16.713-3.607 10.282-15.268 21.349-32.348 21.349-9.242 0-64.626 0-72.855 0-4.083 0-7.415 3.266-7.499 7.347-.303 14.846-5.654 25.791-15.905 32.533-15.234 10.019-39.575 9.485-56.977 3.879v-20.412c0-12.927 10.517-23.443 23.443-23.443h16.502c4.142 0 7.5-3.357 7.5-7.5s-3.358-7.5-7.5-7.5h-16.502c-21.197 0-38.443 17.246-38.443 38.443v19.156c-18.967 1.031-31.815-13.959-36.743-20.959-2.386-3.387-7.063-4.2-10.45-1.815s-4.2 7.063-1.815 10.45c14.362 20.398 35.08 30.215 55.819 26.616 7.006 2.611 14.978 4.426 23.043 5.329-1.35 5.86-4.401 11.279-8.83 15.459l-4.79 4.52c-9.585 9.043-15.083 21.794-15.083 34.984v41.57c0 4.143 3.358 7.5 7.5 7.5s7.5-3.357 7.5-7.5v-41.57c0-9.078 3.782-17.853 10.377-24.075l4.79-4.52c7.289-6.879 12.08-16.01 13.703-25.797 29.598-1.233 52.284-16.07 56.979-45.196v35.828c0 12.589-7.617 23.883-19.405 28.773l-23.299 9.669c-17.408 7.222-28.656 23.958-28.656 42.638v24.25c0 4.143 3.358 7.5 7.5 7.5s7.5-3.357 7.5-7.5v-24.25c0-12.595 7.616-23.893 19.405-28.783l23.299-9.669c17.41-7.223 28.658-23.955 28.658-42.629z"/><path d="m488.051 192.82c-10.586 0-19.584 6.906-22.74 16.448h-3.374l-9.403-21.957c4.965-4.391 8.104-10.802 8.104-17.937 0-13.206-10.744-23.949-23.949-23.949s-23.949 10.743-23.949 23.949c0 7.411 3.384 14.045 8.687 18.442l-16.452 42.061c-.393-.02-.788-.03-1.185-.03-2.204 0-4.336.305-6.365.865l-11.914-18.072c-1.388-2.105-3.74-3.372-6.262-3.372h-6.853c1.497-12.249.701-24.716-2.499-36.664-20.601-76.926-90.675-130.654-170.408-130.654h-56.399c-78.901 0-143.09 64.19-143.09 143.089 0 32.271 11.076 63.94 31.187 89.177l25.65 32.187c4.992 6.265 6.896 14.35 5.224 22.184l-28.261 132.395c-.864 4.051 1.718 8.035 5.77 8.9.528.112 1.054.167 1.573.167 3.463-.001 6.575-2.413 7.328-5.937l28.261-132.396c2.613-12.24-.362-24.874-8.163-34.662l-25.65-32.187c-18.004-22.591-27.919-50.94-27.919-79.828 0-70.629 57.46-128.089 128.089-128.089h56.399c72.955 0 137.072 49.154 155.92 119.535 5.761 21.511 2.287 45.056-9.531 64.598l-8.938 14.781c-3.72 6.152-3.653 13.754.172 19.837l23.913 38.044c1.233 1.962 1.582 4.275.98 6.514-.602 2.238-2.062 4.066-4.113 5.146l-25.941 13.663c-5.012 2.639-8.7 7.296-10.12 12.778l-11.207 43.276c-2.269 8.759-11.275 14.166-20.073 12.061-.11-.026-.221-.051-.332-.072l-13.451-2.589c-4.072-.785-8 1.88-8.782 5.948-.783 4.067 1.88 7.999 5.947 8.782l13.296 2.559c16.64 3.887 33.626-6.362 37.917-22.929l11.207-43.276c.363-1.401 1.306-2.592 2.587-3.267l25.941-13.663c5.706-3.005 9.937-8.3 11.61-14.526 1.673-6.228.664-12.93-2.768-18.388l-23.913-38.045c-.789-1.255-.802-2.822-.035-4.092l8.938-14.781c4.682-7.742 8.245-16.025 10.66-24.576h5.838l9.737 14.771c-3.195 4.07-5.108 9.193-5.108 14.757 0 13.206 10.744 23.949 23.949 23.949 13.206 0 23.95-10.743 23.95-23.949 0-7.45-3.42-14.116-8.772-18.512l16.427-41.997c1.114.06 2.11.049 3.355-.059l11.346 26.492c1.182 2.758 3.894 4.547 6.895 4.547h8.32c3.155 9.543 12.154 16.45 22.741 16.45 13.206 0 23.949-10.743 23.949-23.949s-10.743-23.948-23.948-23.948zm-84.261 69.926c-4.935 0-8.949-4.015-8.949-8.949 0-4.913 4.002-8.949 8.949-8.949 4.935 0 8.95 4.015 8.95 8.949s-4.015 8.949-8.95 8.949zm32.899-102.32c4.935 0 8.949 4.015 8.949 8.949s-4.015 8.949-8.949 8.949-8.949-4.015-8.949-8.949 4.014-8.949 8.949-8.949zm51.362 65.293c-4.935 0-8.95-4.015-8.95-8.949s4.015-8.949 8.95-8.949 8.949 4.015 8.949 8.949-4.015 8.949-8.949 8.949z"/></g></svg>