<svg id="Layer_1" height="512" viewBox="0 0 512 512" width="512" xmlns="http://www.w3.org/2000/svg" data-name="Layer 1"><path d="m355.777 334.192-3.241-.665c12.727-6.438 23.069-14.308 30.895-23.537 16.334-19.26 21.546-43.961 15.5-73.4l-.8-3.958c-13.002-64.012-24.279-119.559-56.48-152.632l5.978-33.811a8 8 0 0 0 -3.153-7.848c-21.993-16.107-54.261-25.341-88.529-25.341-34.193 0-66.418 9.235-88.411 25.338a8 8 0 0 0 -3.153 7.848l5.977 33.8c-32.315 33.079-43.594 88.631-56.59 152.649l-.8 3.951c-6 29.454-.747 54.152 15.6 73.406 7.834 9.226 18.179 17.095 30.9 23.532l-3.231.665c-39.37 8.053-63.828 33.018-63.828 65.152v91.659a8 8 0 0 0 8 8h52.249.024.029 206.587.03.023 52.129a8 8 0 0 0 8-8v-91.657c-.001-32.118-24.411-57.083-63.705-65.151zm-99.83-305.192c28.851 0 55.857 7.049 75.031 19.462l-8.343 47.183c-31.565-8.737-101.695-8.736-133.258 0l-8.343-47.183c19.166-12.415 46.132-19.462 74.913-19.462zm-127.3 210.777.8-3.956c11.3-55.646 21.243-104.62 44.509-135.475l1.324 7.491a8 8 0 0 0 11.637 5.668c21.307-11.341 116.865-11.341 138.17 0a8 8 0 0 0 11.637-5.668l1.318-7.451c23.165 30.86 33.107 79.813 44.4 135.431l.808 3.978c8.9 43.285-11 72.844-59.1 87.9l-26.45-5.434v-17.293a83.634 83.634 0 0 0 41.87-68.864h.378a28.629 28.629 0 0 0 -.2-57.257h-2.043c-2.378-11.428-6.864-17.836-13.115-25.924a130.3 130.3 0 0 1 -13.853-21.123 8 8 0 0 0 -8.262-4.2c-38.506 5.721-54.521 19.091-68.652 30.887-13.407 11.193-24 20.034-53.422 20.363h-8.14a28.629 28.629 0 0 0 -.234 57.257h.411a83.649 83.649 0 0 0 41.754 68.831v17.329l-26.357 5.424c-48.075-15.06-68-44.621-59.188-87.915zm183.116 129.623-16.963 6.538a8 8 0 0 0 -5.122 7.649l.331 14.332-26.059 8.5v-2.519l42.592-50.687zm-98.755 6.544-16.883-6.544 6.3-19.684 45.522 54.184v3.829l-30.16-9.813.331-14.327a8 8 0 0 0 -5.11-7.646zm42.939-75.787a67.674 67.674 0 0 1 -67.6-67.6v-29.77q0-4.9.016-8.235c29.567-1.957 42.841-13.04 55.713-23.785 12.4-10.35 25.192-21.032 55.283-26.448a150.8 150.8 0 0 0 12.573 18.388c7.81 10.105 11.73 15.177 11.73 40.08v29.771a67.733 67.733 0 0 1 -67.715 67.598zm-25.755 28.629v-16.707a83.508 83.508 0 0 0 51.511.012v16.694a8 8 0 0 0 6.389 7.836l9.8 2.013-41.942 49.915-41.939-49.912 9.8-2.016a8 8 0 0 0 6.381-7.836zm109.313-133.939h.246a12.629 12.629 0 0 1 .117 25.257h-.2v-17.317c-.005-2.838-.059-5.473-.163-7.94zm-167.157 7.94v17.313h-.238a12.629 12.629 0 0 1 .151-25.257h.1c-.007 2.088-.013 4.689-.013 7.944zm-63.934 196.556c0-28.782 26.363-44.43 51.044-49.478l27.959-5.755-8.828 27.6a8 8 0 0 0 4.732 9.9l18.671 7.23-.339 14.661a8 8 0 0 0 5.522 7.793l40.772 13.266v58.44h-88.782a56.4 56.4 0 0 1 2.1-24.78 8 8 0 1 0 -15.273-4.764 71.537 71.537 0 0 0 -2.971 29.544h-34.607zm295.067 83.657h-34.563a72.452 72.452 0 0 0 -3.012-29.544 8 8 0 1 0 -15.274 4.764 57.385 57.385 0 0 1 2.153 24.78h-88.838v-59.749l36.676-11.965a8 8 0 0 0 5.516-7.79l-.338-14.652 18.777-7.236a8 8 0 0 0 4.736-9.921l-9.194-28.487 32.437 6.664c24.618 5.055 50.924 20.707 50.924 49.478zm-169.247-422.385a8 8 0 0 1 8-8h5.713v-5.83a8 8 0 1 1 16 0v5.83h5.831a8 8 0 1 1 0 16h-5.831v5.713a8 8 0 0 1 -16 0v-5.713h-5.713a8 8 0 0 1 -8-8zm118.674 363.224a8 8 0 0 1 -8 8h-32.7a8 8 0 0 1 0-16h32.7a8 8 0 0 1 8 8z"/></svg>