<svg width="550" height="550" viewBox="0 0 550 550" fill="none" xmlns="http://www.w3.org/2000/svg">
<path d="M475 515.001H75C70.582 515.001 67 511.419 67 507.001V241.621C67 237.203 70.582 233.621 75 233.621C79.418 233.621 83 237.203 83 241.621V499.001H467V241.621C467 237.203 470.582 233.621 475 233.621C479.418 233.621 483 237.203 483 241.621V507.001C483 511.419 479.418 515.001 475 515.001Z" fill="#DC2626"/>
<path d="M42.9999 275C42.5859 275 42.1699 274.968 41.7559 274.903C39.5469 274.555 37.5839 273.299 36.3439 271.438L20.3439 247.438C18.0489 243.996 18.7579 239.371 21.9779 236.773L269.978 36.773C272.909 34.409 277.091 34.409 280.022 36.773L356.132 98.153C359.57 100.926 360.111 105.963 357.337 109.402C354.564 112.841 349.527 113.382 346.087 110.607L275 53.277L37.7089 244.641L44.8359 255.332L270.029 76.732C272.941 74.423 277.061 74.422 279.972 76.732L352.482 134.242C355.943 136.988 356.524 142.02 353.778 145.481C351.032 148.943 345.999 149.521 342.539 146.778L275 93.21L47.9709 273.268C46.5479 274.397 44.7929 275 42.9999 275Z" fill="#DC2626"/>
<path d="M506.999 275.002C505.206 275.002 503.451 274.399 502.027 273.27L440.819 224.716C438.902 223.254 437.664 220.947 437.664 218.352C437.664 213.934 441.241 210.352 445.659 210.352C447.465 210.352 449.226 210.963 450.641 212.085L505.162 255.335L512.29 244.644L473.768 213.58C470.329 210.807 469.789 205.77 472.562 202.33C475.334 198.892 480.372 198.351 483.811 201.124L528.021 236.774C531.243 239.371 531.951 243.996 529.656 247.439L513.656 271.439C512.416 273.3 510.453 274.557 508.244 274.904C507.829 274.97 507.413 275.002 506.999 275.002Z" fill="#DC2626"/>
<path d="M155 514.998C150.582 514.998 147 511.416 147 506.998V459.398C147 443.558 157.194 429.858 172.367 425.305L240.169 404.94L245.647 381.645C246.659 377.343 250.963 374.672 255.266 375.689C259.567 376.7 262.233 381.006 261.222 385.307L254.685 413.103C254.03 415.888 251.938 418.111 249.199 418.934L176.967 440.63C168.743 443.098 163 450.815 163 459.398V506.998C163 511.416 159.418 514.998 155 514.998Z" fill="black"/>
<path d="M395.002 514.997C390.584 514.997 387.002 511.415 387.002 506.997V459.397C387.002 450.814 381.26 443.096 373.037 440.63L300.802 418.934C298.063 418.111 295.971 415.888 295.316 413.103L288.781 385.307C287.769 381.006 290.436 376.7 294.737 375.689C299.033 374.67 303.343 377.343 304.355 381.645L309.834 404.94L377.639 425.306C392.808 429.857 403.002 443.558 403.002 459.397V506.997C403.002 511.415 399.42 514.997 395.002 514.997Z" fill="black"/>
<path d="M275 395.358C244.122 395.358 219 370.237 219 339.358V299.398C219 294.98 222.582 291.398 227 291.398C231.418 291.398 235 294.98 235 299.398V339.358C235 361.414 252.944 379.358 275 379.358C297.056 379.358 315 361.414 315 339.358V299.398C315 294.98 318.582 291.398 323 291.398C327.418 291.398 331 294.98 331 299.398V339.358C331 370.237 305.879 395.358 275 395.358Z" fill="black"/>
<path d="M274.492 432.091C261.452 432.091 248.962 426.54 240.222 416.862C237.261 413.583 237.519 408.524 240.799 405.563C244.079 402.602 249.138 402.861 252.099 406.139C257.893 412.557 265.845 416.091 274.492 416.091C283.138 416.09 291.09 412.556 296.884 406.139C299.845 402.86 304.904 402.601 308.183 405.563C311.462 408.523 311.72 413.583 308.759 416.862C300.021 426.539 287.531 432.09 274.492 432.091Z" fill="black"/>
<path d="M355 434.86C350.582 434.86 347 431.278 347 426.86V299C347 259.299 314.701 227 275 227C235.299 227 203 259.299 203 299V426.86C203 431.278 199.418 434.86 195 434.86C190.582 434.86 187 431.278 187 426.86V299C187 250.477 226.477 211 275 211C323.523 211 363 250.477 363 299V426.86C363 431.278 359.418 434.86 355 434.86Z" fill="black"/>
<path d="M355 307H195C190.582 307 187 303.418 187 299C187 294.582 190.582 291 195 291H355C359.418 291 363 294.582 363 299C363 303.418 359.418 307 355 307Z" fill="black"/>
<path d="M435 227C382.065 227 339 183.935 339 131C339 78.065 382.065 35 435 35C487.935 35 531 78.065 531 131C531 183.935 487.935 227 435 227ZM435 51C390.888 51 355 86.888 355 131C355 175.112 390.888 211 435 211C479.112 211 515 175.112 515 131C515 86.888 479.112 51 435 51Z" fill="#DC2626"/>
<path d="M451 187H419C414.582 187 411 183.418 411 179V155H387C382.582 155 379 151.418 379 147V115C379 110.582 382.582 107 387 107H411V83C411 78.582 414.582 75 419 75H451C455.418 75 459 78.582 459 83V107H483C487.418 107 491 110.582 491 115V147C491 151.418 487.418 155 483 155H459V179C459 183.418 455.418 187 451 187ZM427 171H443V147C443 142.582 446.582 139 451 139H475V123H451C446.582 123 443 119.418 443 115V91H427V115C427 119.418 423.418 123 419 123H395V139H419C423.418 139 427 142.582 427 147V171Z" fill="#DC2626"/>
</svg>
