<svg id="SvgjsSvg1039" width="288" height="288" xmlns="http://www.w3.org/2000/svg" version="1.1" xmlns:xlink="http://www.w3.org/1999/xlink" xmlns:svgjs="http://svgjs.com/svgjs"><defs id="SvgjsDefs1040"></defs><g id="SvgjsG1041"><svg xmlns="http://www.w3.org/2000/svg" viewBox="0 0 72 72" width="288" height="288"><path d="M69.42,17.3l-6.68-3.08C65.06,3.67,51.42-2.51,45,6L36.45,2.09a1,1,0,0,0-.84,0L16,11.14a1,1,0,0,0,.42,1.91A1,1,0,0,0,16.8,13L36,4.1,44,7.76A9.94,9.94,0,0,0,43.2,10L36.45,6.88a1,1,0,0,0-.84,0L4,21.44V18.85l10.19-4.69a1,1,0,0,0,.49-1.33,1,1,0,0,0-1.32-.49l-10.78,5a1,1,0,0,0-.58.91V23a1,1,0,0,0,1.42.91L5,23.18V69a1,1,0,0,0,1,1H66a1,1,0,0,0,1-1V23.18A11,11,0,0,0,69,24a1,1,0,0,0,1-1V18.21A1,1,0,0,0,69.42,17.3ZM53,4a8,8,0,0,1,8,8c-.4,10.6-15.6,10.6-16,0A8,8,0,0,1,53,4ZM65,68H59a14.18,14.18,0,0,0-2.59-9.63,1,1,0,0,0-1.61,1.2A12.28,12.28,0,0,1,57,68H52V63a1,1,0,0,0-2,0v5H22V63a1,1,0,0,0-2,0v5H15c-.51-6,2.76-11.32,8.77-12.59,4.16,11.38,20.29,11.38,24.45,0a11,11,0,0,1,4.83,2.31,1,1,0,0,0,1.28-1.54c-3-2.86-8.63-3.18-12.49-3.89a1,1,0,0,1-.84-1V48.79A11,11,0,0,0,47,39h1a3,3,0,0,0,3-3V34a3,3,0,0,0-2-2.82,11.22,11.22,0,0,0-6-11C41.88,12,30.09,12,29.06,20.19a11.21,11.21,0,0,0-6.06,11A3,3,0,0,0,21,34v2a3,3,0,0,0,3,3h1a11,11,0,0,0,6,9.79v2.52a1,1,0,0,1-.84,1l-6.29,1.05C16.75,54.5,12.37,61,13,68H7V22.26L36,8.89l7,3.21c0,8.36,10.1,13,16.39,7.57L65,22.25ZM30.41,21.75c2-1.05,5.4-.7,7.59-.75a9.15,9.15,0,0,1,9,10H46a1,1,0,0,0-1,1v2.21a9.66,9.66,0,0,0-4.41-2.91c.6-.64,3.63-4.53,1.76-5.24a1,1,0,0,0-1.29.59,7.46,7.46,0,0,1-3.49,4.45,6.64,6.64,0,0,1-3.5.4A7.61,7.61,0,0,0,27,34.15V32a1,1,0,0,0-1-1H25A9.17,9.17,0,0,1,30.41,21.75Zm.89-2.4a5,5,0,0,1,9.4,0A11.11,11.11,0,0,0,38,19C36.23,19,33,18.82,31.3,19.35ZM47,33h1a1,1,0,0,1,1,1v2a1,1,0,0,1-1,1H47ZM24,33h1v4H24a1,1,0,0,1-1-1V34A1,1,0,0,1,24,33Zm3,5.19c1.31-3.54,3.59-5.16,6.94-4.69a8.54,8.54,0,0,0,4.49-.6c3.3.11,6.13,3.34,6.57,5.26C45.34,51.2,26.7,51.21,27,38.19Zm6,13.12V49.57a10.74,10.74,0,0,0,6,0v1.74a3.14,3.14,0,0,0,3.12,3.06c-2.43,4.78-9.81,4.78-12.24,0A3.14,3.14,0,0,0,33,51.31Zm-5.19,3.4c3.06,7,13.32,7,16.38,0l2,.34c-3.63,9.2-16.82,9.19-20.44,0ZM68,21.44l-7.13-3.29a9.92,9.92,0,0,0,1.23-2L68,18.85Z" fill="#000000" class="svgShape color000000-0 selectable"></path><path d="M48,15h2v2a1,1,0,0,0,1,1h4a1,1,0,0,0,1-1V15h2a1,1,0,0,0,1-1V10a1,1,0,0,0-1-1H56V7a1,1,0,0,0-1-1H51a1,1,0,0,0-1,1V9H48a1,1,0,0,0-1,1v4A1,1,0,0,0,48,15Zm1-4h2a1,1,0,0,0,1-1V8h2v2a1,1,0,0,0,1,1h2v2H55a1,1,0,0,0-1,1v2H52V14a1,1,0,0,0-1-1H49Z" fill="#dc2626" class="svgShape color000000-1 selectable"></path></svg></g></svg>