<svg xmlns="http://www.w3.org/2000/svg" viewBox="0 0 64 64" id="old-people">
  <path d="M33.23047 18.27a7.15344 7.15344 0 007.10633-6.51993.99443.99443 0 00-1.05825-1.05821l-.02469.00153a1.0102 1.0102 0 00-.92685.865c-.10983.65641-.54315 1.56009-2.03087 3.22267a4.21994 4.21994 0 01-3.17286 1.48785 5.13457 5.13457 0 113.85528-8.63644A1.00037 1.00037 0 0038.44136 6.268 7.13474 7.13474 0 1033.23047 18.27zM46.62207 34.31836a3.78462 3.78462 0 00-4.66593-2.616 3.36725 3.36725 0 00-2.545-1.86694 11.38271 11.38271 0 01-7.35656-4.71167c.018-.50962.03725-1.52424.03526-2.0477a4.80549 4.80549 0 00-8.64945-2.969c-.47616.58557-1.02656 1.37056-.25232 1.994.81958.614 1.48788-.1822 1.87733-.8287a2.80147 2.80147 0 015.02441 1.79019c.01239.71748-.03669 1.703-.04 2.39742a1.56969 1.56969 0 00.19436.58979 13.32508 13.32508 0 008.88768 5.76612A1.35177 1.35177 0 0138.81733 34.5c-3.33295-.30077-9.27583-1.57519-11.63422-6.73192a1.00006 1.00006 0 00-1.81885.832 12.18063 12.18063 0 005.449 5.68017 64.57339 64.57339 0 003.801 12.96778.71286.71286 0 01-.0752.68115.78388.78388 0 01-.62793.32129l-11.915-.37012a2.14151 2.14151 0 01-2.05809-1.9878A31.96842 31.96842 0 0119.23 39.27 30.71616 30.71616 0 0122.62842 25.2002a1.00033 1.00033 0 00-1.77638-.91988A32.72591 32.72591 0 0017.23 39.27a33.92944 33.92944 0 00.74219 6.9917A4.12712 4.12712 0 0021.939 49.87939l1.47913.046a44.89414 44.89414 0 002.00916 7.8725 3.47847 3.47847 0 006.71432-1.27054l0-6.33108 1.71485.05328c.02246.00049.04394.001.0664.001a2.75054 2.75054 0 002.54193-3.76078 64.27863 64.27863 0 01-3.43072-11.21823 22.492 22.492 0 005.60364 1.22071 3.32934 3.32934 0 003.612-2.80872 1.88 1.88 0 011.26886-.05017 1.83468 1.83468 0 01.93062 2.7588 13.02836 13.02836 0 00-2.50776 7.31933V56.09424a1.00012 1.00012 0 002-.00006V43.71143a11.08035 11.08035 0 012.16211-6.19434A3.87142 3.87142 0 0046.62207 34.31836zM30.1416 56.52734A1.48366 1.48366 0 0128.6577 58a1.46266 1.46266 0 01-1.3662-.92577 41.38506 41.38506 0 01-1.83209-7.08551l4.68219.14545z"></path>
</svg>
