<svg xmlns="http://www.w3.org/2000/svg" viewBox="0 0 64 64" id="online-doctor">
  <path d="M39.75391,4H13.75439a4.00428,4.00428,0,0,0-4,4c-.00966.03321.007,38.9924,0,39.02165l0,8.97835a4.00428,4.00428,0,0,0,4,4H39.75391a4.004,4.004,0,0,0,4-4V39.82031a1.00017,1.00017,0,0,0-2,.00006V46H11.75439V8a2.0023,2.0023,0,0,1,2-2H39.75391a2.0026,2.0026,0,0,1,2,2v4.16992a1.0001,1.0001,0,0,0,2,0V8A4.004,4.004,0,0,0,39.75391,4Zm2,44v8a2.0026,2.0026,0,0,1-2,2H13.75439a2.0023,2.0023,0,0,1-2-2V48Z"></path>
  <path d="M24.75 9.5h4a1.00019 1.00019 0 00-.00006-2H24.75A1.00019 1.00019 0 0024.75 9.5zM24.75 56h4a3.00019 3.00019 0 00-.00009-6H24.75A3.00019 3.00019 0 0024.75 56zm0-4h4a1.0002 1.0002 0 01-.00006 2H24.75A1.0002 1.0002 0 0124.75 52zM43.12305 35.53418H39.44043a6.36977 6.36977 0 01-6.29694-5.48431 8.83358 8.83358 0 007.7569-8.754V18.165a2.56733 2.56733 0 00-2.56445-2.56445h-.56543v-.13477a1.00019 1.00019 0 00-2 .00007v2.31243a1.00619 1.00619 0 102-.17778l.56546.00005a.56473.56473 0 01.56445.56445V21.2959a6.8252 6.8252 0 01-13.65039 0V18.165c.0233-.63645.66829-.57679 1.13039-.56442a1.009 1.009 0 102 .21282l0-2.31344a1.00172 1.00172 0 10-2 .1006h-.56544A2.56744 2.56744 0 0023.25 18.165V21.2959A8.83646 8.83646 0 0031.12537 30.068a8.37624 8.37624 0 008.31506 7.46619h3.68262A8.37509 8.37509 0 0051.48828 29.169V25.41431a3.76176 3.76176 0 10-2 0V29.169A6.37249 6.37249 0 0143.12305 35.53418zm5.60351-13.72949a1.76189 1.76189 0 013.52344.00007A1.76189 1.76189 0 0148.72656 21.80469z"></path>
</svg>
