<svg xmlns="http://www.w3.org/2000/svg" viewBox="0 0 64 64" id="online-pharmacy">
  <g>
    <g id="Outline">
      <g>
        <path d="M46,18c.54999,0,1-.45001,1-1v-7c0-1.65002-1.34998-3-3-3h-24c-1.65002,0-3,1.34998-3,3v44c0,1.64996,1.34998,3,3,3h24c1.65002,0,3-1.35004,3-3V21c0-.54999-.45001-1-1-1s-1,.45001-1,1v30h-17c-.54999,0-1,.45001-1,1s.45001,1,1,1h17v1c0,.54999-.45001,1-1,1h-24c-.54999,0-1-.45001-1-1v-1h5c.54999,0,1-.45001,1-1s-.45001-1-1-1h-5V13h6.59003l1.69995,1.70996c.19.18005.44.29004.71002.29004h8c.27002,0,.52002-.10999.71002-.29004l1.69995-1.70996h6.59003v4c0,.54999.45001,1,1,1ZM38,11c-.27002,0-.52002.10999-.71002.28998l-1.69995,1.71002h-7.18005l-1.69995-1.71002c-.19-.17999-.44-.28998-.71002-.28998h-7v-1c0-.54999.45001-1,1-1h24c.54999,0,1,.45001,1,1v1h-7Z"></path>
        <path d="m36.17285 37.93311-2.13318 2.13318-1.33154 1.33154c-.52002-.2478-1.09479-.39783-1.70813-.39783h-6c-2.20557 0-4 1.79443-4 4s1.79443 4 4 4h6c.6767 0 1.30493-.18475 1.86432-.48267.59216.3244 1.24353.48853 1.89496.48853 1.02441 0 2.04639-.39697 2.82764-1.17871l4.24023-4.24023c1.53492-1.53492 1.53734-4.11749.00294-5.65089-.75488-.76172-1.75977-1.18115-2.83008-1.18115s-2.0752.41943-2.82715 1.17822ZM23 45c0-1.10303.89697-2 2-2h2v4h-2c-1.10303 0-2-.89697-2-2ZM29 47v-4h2c1.10303 0 2 .89697 2 2s-.89697 2-2 2h-2ZM34.4599 46.96997c.33398-.58405.5401-1.25037.5401-1.96997 0-.86456-.28241-1.66046-.75055-2.31537l.51056-.51056 2.82593 2.82593-1.41309 1.41309c-.45966.45996-1.10468.64722-1.71295.55688ZM40.96491 40.75928c.00196.51832-.1776 1.03934-.55182 1.41357l-1.41309 1.41309-2.82593-2.82593 1.41577-1.41577c.75385-.75971 2.06328-.76269 2.82307.00275.36145.36414.55.88683.55199 1.41229ZM36 23h-1v-1c0-.55225-.44775-1-1-1h-4c-.55225 0-1 .44775-1 1v1h-1c-.55225 0-1 .44775-1 1v4c0 .55225.44775 1 1 1h1v1c0 .55225.44775 1 1 1h4c.55225 0 1-.44775 1-1v-1h1c.55225 0 1-.44775 1-1v-4c0-.55225-.44775-1-1-1ZM35 27h-1c-.55225 0-1 .44775-1 1v1h-2v-1c0-.55225-.44775-1-1-1h-1v-2h1c.55225 0 1-.44775 1-1v-1h2v1c0 .55225.44775 1 1 1h1v2Z"></path>
        <path d="M32,17c-6.06543,0-11,4.0376-11,9,0,3.96826,3.19092,7.46533,7.8042,8.60645l2.41504,3.01807c.18945.2373.47705.37549.78076.37549s.59131-.13818.78076-.37549l2.41504-3.01807c4.61328-1.14111,7.8042-4.63818,7.8042-8.60645,0-4.9624-4.93457-9-11-9ZM34.41846,32.73389c-.22412.04883-.4248.17334-.56787.35254l-1.85059,2.31299-1.85059-2.31299c-.14307-.1792-.34375-.30371-.56787-.35254-3.875-.84473-6.58154-3.61377-6.58154-6.73389,0-3.85986,4.0376-7,9-7s9,3.14014,9,7c0,3.12012-2.70654,5.88916-6.58154,6.73389Z"></path>
      </g>
    </g>
  </g>
</svg>
