<svg id="SvgjsSvg1091" width="288" height="288" xmlns="http://www.w3.org/2000/svg" version="1.1" xmlns:xlink="http://www.w3.org/1999/xlink" xmlns:svgjs="http://svgjs.com/svgjs"><defs id="SvgjsDefs1092"></defs><g id="SvgjsG1093"><svg xmlns="http://www.w3.org/2000/svg" viewBox="0 0 64 64" width="288" height="288"><path d="M35.96 54h-17.93c-1.32 0-1.32 2 0 2h17.93c1.32 0 1.32-2 0-2ZM53 14h-2c-.55 0-1-.45-1-1v-2c0-1.65-1.35-3-3-3h-2c-1.65 0-3 1.35-3 3v2c0 .55-.45 1-1 1h-2c-1.65 0-3 1.35-3 3v2c0 1.65 1.35 3 3 3h2c.55 0 1 .45 1 1v2c0 1.65 1.35 3 3 3h2c1.65 0 3-1.35 3-3v-2c0-.55.45-1 1-1h2c1.65 0 3-1.35 3-3v-2c0-1.65-1.35-3-3-3ZM54 19c0 .55-.45 1-1 1h-2c-1.65 0-3 1.35-3 3v2c0 .55-.45 1-1 1h-2c-.55 0-1-.45-1-1v-2c0-1.65-1.35-3-3-3h-2c-.55 0-1-.45-1-1v-2c0-.55.45-1 1-1h2c1.65 0 3-1.35 3-3v-2c0-.55.45-1 1-1h2c.55 0 1 .45 1 1v2c0 1.65 1.35 3 3 3h2c.55 0 1 .45 1 1v2Z" fill="#dc2626" class="svgShape color000000-0 selectable"></path><path d="M55,4h-18c-2.76,0-5,2.24-5,5v7H11c-2.76,0-5,2.24-5,5v29.18c-1.16.41-2,1.51-2,2.82v4c0,1.65,1.35,3,3,3h40c1.65,0,3-1.35,3-3v-4c0-1.3-.84-2.4-2-2.82v-18.18h7c2.76,0,5-2.24,5-5V9c0-2.76-2.24-5-5-5ZM48,57c0,.55-.45,1-1,1H7c-.55,0-1-.45-1-1v-4c0-.55.45-1,1-1h40c.55,0,1,.45,1,1v4ZM20,30v-6c0-.55.45-1,1-1h6c.55,0,1,.45,1,1v6c0,2.21-1.79,4-4,4s-4-1.79-4-4ZM19,42.49c1.1,0,2,.9,2,2s-.9,2-2,2-2-.9-2-2,.9-2,2-2ZM18,40.63c-1.72.45-3,2-3,3.86,0,2.21,1.79,4,4,4s4-1.79,4-4c0-1.86-1.28-3.41-3-3.86v-4.63h8v4c-1.65,0-3,1.35-3,3v4c0,1.32,2,1.32,2,0v-4c0-.55.45-1,1-1h2c.55,0,1,.45,1,1v4c0,1.32,2,1.32,2,0v-4c0-1.65-1.35-3-3-3v-3.9c3.39.54,6,3.47,6,7.02v6.89H12v-6.89c0-3.54,2.61-6.48,6-7.02v4.53ZM46,50h-8v-6.89c0-4.63-3.55-9.11-9.54-9.11,1.98-2.2,1.54-4.17,1.54-10,0-1.65-1.35-3-3-3h-6c-1.65,0-3,1.35-3,3,0,5.82-.44,7.79,1.54,10-5.9,0-9.54,4.4-9.54,9.11v6.89h-2v-29c0-1.65,1.35-3,3-3h21v9c0,2.76,2.24,5,5,5h9v18ZM58,27c0,1.65-1.35,3-3,3h-18c-1.65,0-3-1.35-3-3V9c0-1.65,1.35-3,3-3h18c1.65,0,3,1.35,3,3v18Z" fill="#000000" class="svgShape color000000-1 selectable"></path></svg></g></svg>