<svg width="69" height="69" viewBox="0 0 69 69" fill="none" xmlns="http://www.w3.org/2000/svg">
<path d="M5.097 18.996V52.49H3.25C2.83 52.49 2.5 52.83 2.5 53.24V55.11C2.5 55.17 2.5 55.22 2.51 55.27L3.85 61.37C3.93 61.71 4.23 61.96 4.58 61.96H64.41C64.76 61.96 65.07 61.71 65.14 61.37L66.48 55.27C66.49 55.22 66.5 55.17 66.5 55.11V53.24C66.5 52.83 66.16 52.49 65.75 52.49H63.895V18.996C63.8953 17.9422 63.4776 16.9313 62.7335 16.185C61.9895 15.4387 60.9798 15.018 59.926 15.015H56.39V10.79C56.39 8.72004 54.7 7.04004 52.64 7.04004H16.35C14.29 7.04004 12.6 8.72004 12.6 10.79V15.015H9.066C8.012 15.0177 7.00209 15.4383 6.25782 16.1846C5.51356 16.931 5.09673 17.942 5.097 18.996ZM56.39 16.515H59.926C60.5822 16.5174 61.2106 16.78 61.6735 17.2451C62.1363 17.7102 62.3958 18.3399 62.395 18.996V52.49H56.39V16.515ZM14.1 10.79C14.1 9.55004 15.11 8.54004 16.35 8.54004H52.64C53.88 8.54004 54.89 9.55004 54.89 10.79V52.49H14.1V10.79ZM42.1 53.992L41.36 55.86H27.63L26.89 53.992H42.1ZM24.938 53.992H25.281L26.43 56.89C26.54 57.17 26.82 57.36 27.13 57.36C46.432 57.12 41.163 58.64 43.71 53.992H44.052L65 53.99V55.03L63.8 60.46H5.19L4 55.03V53.99L24.938 53.992ZM6.597 18.996C6.5962 18.3399 6.85569 17.7102 7.31854 17.2451C7.7814 16.78 8.40983 16.5174 9.066 16.515H12.6V52.49H6.597V18.996Z" fill="black"/>
<path d="M8.24707 57.975H9.02907C9.22798 57.975 9.41875 57.896 9.5594 57.7553C9.70005 57.6147 9.77907 57.4239 9.77907 57.225C9.77907 57.0261 9.70005 56.8353 9.5594 56.6947C9.41875 56.554 9.22798 56.475 9.02907 56.475H8.24707C8.04816 56.475 7.85739 56.554 7.71674 56.6947C7.57609 56.8353 7.49707 57.0261 7.49707 57.225C7.49707 57.4239 7.57609 57.6147 7.71674 57.7553C7.85739 57.896 8.04816 57.975 8.24707 57.975ZM11.8871 57.975H12.6701C12.869 57.975 13.0597 57.896 13.2004 57.7553C13.3411 57.6147 13.4201 57.4239 13.4201 57.225C13.4201 57.0261 13.3411 56.8353 13.2004 56.6947C13.0597 56.554 12.869 56.475 12.6701 56.475H11.8881C11.6892 56.475 11.4984 56.554 11.3577 56.6947C11.2171 56.8353 11.1381 57.0261 11.1381 57.225C11.1381 57.4239 11.2171 57.6147 11.3577 57.7553C11.4984 57.896 11.6882 57.975 11.8871 57.975ZM15.5271 57.975H16.3111C16.51 57.975 16.7007 57.896 16.8414 57.7553C16.9821 57.6147 17.0611 57.4239 17.0611 57.225C17.0611 57.0261 16.9821 56.8353 16.8414 56.6947C16.7007 56.554 16.51 56.475 16.3111 56.475H15.5281C15.3292 56.475 15.1384 56.554 14.9977 56.6947C14.8571 56.8353 14.7781 57.0261 14.7781 57.225C14.7781 57.4239 14.8571 57.6147 14.9977 57.7553C15.1384 57.896 15.3282 57.975 15.5271 57.975ZM34.4901 33.86C40.2871 33.86 44.8001 29.132 44.8001 23.56C44.8001 17.87 40.1801 13.25 34.4901 13.25C28.8101 13.25 24.1901 17.87 24.1901 23.56C24.1901 29.201 28.7491 33.86 34.4901 33.86ZM34.4901 33.08C31.2401 33.08 28.1281 31.13 27.3601 29.85C28.1801 28.87 29.4101 28.28 30.7001 28.28H32.2601C32.3124 28.8353 32.5699 29.351 32.9823 29.7265C33.3947 30.1019 33.9324 30.31 34.4901 30.31C35.0494 30.3157 35.5902 30.1096 36.0039 29.7331C36.4175 29.3565 36.6734 28.8374 36.7201 28.28H38.2901C39.5901 28.28 40.8101 28.87 41.6201 29.85C40.8411 31.148 37.5971 33.08 34.4901 33.08ZM31.4701 23.22C31.9181 20.413 32.1721 19.88 34.0601 20.91H34.0701C34.0901 20.92 34.1201 20.94 34.1501 20.94C34.2001 20.96 34.2601 20.96 34.3201 20.94C34.3721 20.958 34.5481 20.87 34.6201 20.69L34.6901 20.46C35.0631 20.754 35.8301 21.234 36.2101 20.95V20.94C36.2701 20.89 36.3201 20.81 36.3401 20.73C36.8551 21.245 37.0601 21.728 37.3001 22.35V22.36L37.3101 22.37C37.6201 23.513 37.4901 23.202 37.5101 23.44C37.3531 25.359 36.1521 27.04 34.4901 27.04C31.4131 27.04 31.4401 22.56 31.4701 23.22ZM31.0501 21.4C31.0228 21.3917 30.9961 21.3816 30.9701 21.37C30.6091 19.083 31.6491 17.28 34.5001 17.28C37.2551 17.28 38.3101 18.905 38.0201 21.36C38.0101 21.36 38.0001 21.37 37.9901 21.38C37.9201 21.4 37.8501 21.43 37.7901 21.47C37.2851 20.459 36.3331 19.56 36.0001 19.56C35.5851 19.56 35.6141 20.03 35.5901 20.13C34.8001 19.734 34.4251 18.734 34.0101 20.01C32.1801 19.09 31.6581 19.78 31.0501 21.4ZM34.4901 29.53C32.6821 29.53 33.0301 27.237 33.0301 27.45C33.7761 27.948 35.2621 27.917 35.9601 27.45V28.08C35.9601 28.855 35.3291 29.53 34.4901 29.53ZM24.9701 23.56C24.9701 18.3 29.2401 14.03 34.4901 14.03C39.7501 14.03 44.0201 18.3 44.0201 23.56C44.0201 25.6 43.3501 27.6 42.1301 29.23C41.6485 28.6868 41.0573 28.2518 40.3954 27.9536C39.7335 27.6554 39.016 27.5008 38.2901 27.5H36.7301V26.91C37.4801 26.22 38.0301 25.19 38.2201 23.99C38.2401 24 38.2601 24 38.2801 24C38.8901 24 39.3601 23.41 39.3601 22.66C39.3601 22.14 39.1301 21.7 38.7901 21.48C39.1901 18.687 37.8441 16.5 34.5001 16.5C31.6101 16.5 30.1501 17.95 30.1501 20.83C30.1501 21.05 30.1601 21.26 30.2001 21.48C28.9731 22.252 29.9781 24.378 30.7701 23.99C30.9601 25.19 31.5001 26.22 32.2501 26.9V27.5C31.4661 27.613 28.8541 26.955 26.8601 29.24C25.6274 27.6035 24.9637 25.6088 24.9701 23.56ZM38.0901 22.27V22.26C38.1001 22.25 38.1001 22.24 38.1201 22.23C38.1901 22.023 38.5801 22.122 38.5801 22.66C38.5801 22.99 38.4201 23.2 38.3001 23.22V23.1C38.2455 22.8197 38.1754 22.5426 38.0901 22.27ZM30.8501 22.2C30.8411 22.227 30.7301 22.842 30.6901 23.22C30.1371 23.128 30.5041 21.68 30.8501 22.2ZM21.4401 41.21H47.5501C48.3201 41.21 48.9401 40.59 48.9401 39.82V38.31C48.9401 37.55 48.3201 36.92 47.5501 36.92H21.4401C20.6701 36.92 20.0501 37.55 20.0501 38.31V39.82C20.0501 40.59 20.6701 41.21 21.4401 41.21ZM20.8301 38.31C20.8301 37.98 21.1001 37.7 21.4401 37.7H47.5501C47.8901 37.7 48.1701 37.98 48.1701 38.31V39.82C48.1701 40.16 47.8901 40.43 47.5501 40.43H21.4401C21.1001 40.43 20.8301 40.16 20.8301 39.82V38.31ZM48.9401 46.39V44.88C48.9401 44.11 48.3201 43.49 47.5501 43.49H21.4401C20.6701 43.49 20.0501 44.11 20.0501 44.88V46.39C20.0501 47.16 20.6701 47.78 21.4401 47.78H47.5501C48.3201 47.78 48.9401 47.16 48.9401 46.39ZM20.8301 46.39V44.88C20.8301 44.54 21.1001 44.27 21.4401 44.27H47.5501C47.8901 44.27 48.1701 44.54 48.1701 44.88V46.39C48.1701 46.73 47.8901 47 47.5501 47H21.4401C21.1001 47 20.8301 46.73 20.8301 46.39Z" fill="#DC2626"/>
</svg>
