<svg id="SvgjsSvg1199" width="288" height="288" xmlns="http://www.w3.org/2000/svg" version="1.1" xmlns:xlink="http://www.w3.org/1999/xlink" xmlns:svgjs="http://svgjs.com/svgjs"><defs id="SvgjsDefs1200"></defs><g id="SvgjsG1201"><svg xmlns="http://www.w3.org/2000/svg" viewBox="0 0 64 64" width="288" height="288"><path d="M57 2H7C4.243 2 2 4.243 2 7v37c0 2.757 2.243 5 5 5h17v7H10a.993.993 0 0 0-.496.132l-7 4A.999.999 0 0 0 3 62h58a.999.999 0 0 0 .496-1.868l-7.002-4a.993.993 0 0 0-.496-.132H40v-7h17c2.757 0 5-2.243 5-5V7c0-2.757-2.243-5-5-5zm.233 58H6.766l3.5-2h43.466l3.501 2zM38 56H26v-7h12v7zm22-12c0 1.654-1.346 3-3 3H7c-1.654 0-3-1.346-3-3V7c0-1.654 1.346-3 3-3h50c1.654 0 3 1.346 3 3v37z" fill="#000000" class="svgShape color000000-0 selectable"></path><path d="M57 6H43a1 1 0 0 0-1 1v12a1 1 0 0 0 1 1h14a1 1 0 0 0 1-1V7a1 1 0 0 0-1-1zm-7 8c-.551 0-1-.449-1-1s.449-1 1-1 1 .449 1 1-.449 1-1 1zm0 2c1.302 0 2.402.839 2.816 2h-5.631A2.994 2.994 0 0 1 50 16zm6 2h-1.101c-.29-1.424-1.198-2.611-2.419-3.315.327-.481.52-1.061.52-1.685 0-1.654-1.346-3-3-3s-3 1.346-3 3c0 .624.193 1.204.52 1.685-1.221.705-2.129 1.892-2.419 3.315H44V8h12v10zM8 22h14v2H8zM8 26h5v2H8zM16 26h4v2h-4zM23 26h13v2H23zM8 30h48v2H8zM8 34h48v2H8zM9 15v2a1 1 0 0 0 1 1h4a1 1 0 0 0 1-1v-2h2a1 1 0 0 0 1-1v-4a1 1 0 0 0-1-1h-2V7a1 1 0 0 0-1-1h-4a1 1 0 0 0-1 1v2H7a1 1 0 0 0-1 1v4a1 1 0 0 0 1 1h2zm-1-4h2a1 1 0 0 0 1-1V8h2v2a1 1 0 0 0 1 1h2v2h-2a1 1 0 0 0-1 1v2h-2v-2a1 1 0 0 0-1-1H8v-2zM26 22h13v2H26zM39 26h6v2h-6zM20 9h11v2H20zM20 13h11v2H20zM16 39h-6c-1.654 0-3 1.346-3 3s1.346 3 3 3h6c1.654 0 3-1.346 3-3s-1.346-3-3-3zm0 4h-6c-.551 0-1-.449-1-1s.449-1 1-1h6c.551 0 1 .449 1 1s-.449 1-1 1zm19-4h-6c-1.654 0-3 1.346-3 3s1.346 3 3 3h6c1.654 0 3-1.346 3-3s-1.346-3-3-3zm0 4h-6c-.551 0-1-.449-1-1s.449-1 1-1h6c.551 0 1 .449 1 1s-.449 1-1 1zm19-4h-6c-1.654 0-3 1.346-3 3s1.346 3 3 3h6c1.654 0 3-1.346 3-3s-1.346-3-3-3zm0 4h-6c-.551 0-1-.449-1-1s.449-1 1-1h6c.551 0 1 .449 1 1s-.449 1-1 1z" fill="#dc2626" class="svgShape color000000-1 selectable"></path></svg></g></svg>