<?xml version="1.0" encoding="UTF-8" standalone="no"?>
<!-- Created with Inkscape (http://www.inkscape.org/) -->

<svg
   version="1.1"
   id="svg1626"
   xml:space="preserve"
   width="682.66669"
   height="682.66669"
   viewBox="0 0 682.66669 682.66669"
   xmlns="http://www.w3.org/2000/svg"
   xmlns:svg="http://www.w3.org/2000/svg"><defs
     id="defs1630"><clipPath
       clipPathUnits="userSpaceOnUse"
       id="clipPath1640"><path
         d="M 0,512 H 512 V 0 H 0 Z"
         id="path1638" /></clipPath></defs><g
     id="g1632"
     transform="matrix(1.3333333,0,0,-1.3333333,0,682.66667)"><g
       id="g1634"><g
         id="g1636"
         clip-path="url(#clipPath1640)"><g
           id="g1642"
           transform="translate(256,271.3159)"><path
             d="m 0,0 c 0,-20.386 -6.297,-36.443 -26.578,-36.16 -14.751,0.204 -27.371,8.139 -32.885,20.979 -0.659,1.535 -2.14,2.516 -3.804,2.512 h -0.107 c -25.24,0 -40.16,13.914 -40.16,39.28 0,2.995 0.288,5.922 0.834,8.755 0.329,1.717 -0.439,3.45 -1.952,4.32 -18.87,10.864 -26.137,24.524 -26.137,47.948 0,23.423 7.267,37.087 26.137,47.948 1.513,0.87 2.281,2.603 1.952,4.322 -0.546,2.834 -0.834,5.758 -0.834,8.753 0,25.366 14.92,39.28 40.16,39.28 h 0.107 c 1.664,-0.004 3.145,0.977 3.804,2.515 5.514,12.837 18.134,20.771 32.885,20.976 C -6.295,211.711 0,195.654 0,175.268"
             style="fill:none;stroke:#000000;stroke-width:20;stroke-linecap:round;stroke-linejoin:round;stroke-miterlimit:10;stroke-dasharray:none;stroke-opacity:1"
             id="path1644" /></g><g
           id="g1646"
           transform="translate(256,446.584)"><path
             d="m 0,0 c 0,20.386 6.297,36.443 26.578,36.16 14.751,-0.204 27.371,-8.139 32.885,-20.979 0.659,-1.535 2.14,-2.516 3.804,-2.512 h 0.107 c 25.24,0 40.16,-13.914 40.16,-39.28 0,-2.995 -0.288,-5.922 -0.834,-8.755 -0.329,-1.717 0.439,-3.45 1.952,-4.32 18.87,-10.864 26.137,-24.525 26.137,-47.948 0,-23.424 -7.267,-37.087 -26.137,-47.948 -1.513,-0.87 -2.281,-2.603 -1.952,-4.322 0.546,-2.834 0.834,-5.758 0.834,-8.753 0,-25.366 -14.92,-39.28 -40.16,-39.28 h -0.107 c -1.664,0.004 -3.145,-0.977 -3.804,-2.515 -5.514,-12.837 -18.134,-20.771 -32.885,-20.976 C 6.295,-211.711 0,-195.654 0,-175.268"
             style="fill:none;stroke:#000000;stroke-width:20;stroke-linecap:round;stroke-linejoin:round;stroke-miterlimit:10;stroke-dasharray:none;stroke-opacity:1"
             id="path1648" /></g><g
           id="g1650"
           transform="translate(316.8467,459.8027)"><path
             d="M 0,0 C -3.714,-13.968 -17.993,-22.266 -31.892,-18.533"
             style="fill:none;stroke:#000000;stroke-width:20;stroke-linecap:round;stroke-linejoin:round;stroke-miterlimit:10;stroke-dasharray:none;stroke-opacity:1"
             id="path1652" /></g><g
           id="g1654"
           transform="translate(317.2314,258.4658)"><path
             d="M 0,0 C -11.337,3.045 -18.071,14.75 -15.042,26.143"
             style="fill:none;stroke:#000000;stroke-width:20;stroke-linecap:round;stroke-linejoin:round;stroke-miterlimit:10;stroke-dasharray:none;stroke-opacity:1"
             id="path1656" /></g><g
           id="g1658"
           transform="translate(195.1533,258.0972)"><path
             d="M 0,0 C 3.714,13.968 17.993,22.266 31.892,18.533"
             style="fill:none;stroke:#000000;stroke-width:20;stroke-linecap:round;stroke-linejoin:round;stroke-miterlimit:10;stroke-dasharray:none;stroke-opacity:1"
             id="path1660" /></g><g
           id="g1662"
           transform="translate(194.7686,459.4341)"><path
             d="M 0,0 C 11.337,-3.045 18.071,-14.75 15.042,-26.143"
             style="fill:none;stroke:#000000;stroke-width:20;stroke-linecap:round;stroke-linejoin:round;stroke-miterlimit:10;stroke-dasharray:none;stroke-opacity:1"
             id="path1664" /></g><g
           id="g1666"
           transform="translate(186.0615,336.2036)"><path
             d="m 0,0 c -0.318,0.318 -0.63,0.641 -0.934,0.967 -11.418,12.25 -2.596,32.246 14.15,32.246"
             style="fill:none;stroke:#000000;stroke-width:20;stroke-linecap:round;stroke-linejoin:round;stroke-miterlimit:10;stroke-dasharray:none;stroke-opacity:1"
             id="path1668" /></g><g
           id="g1670"
           transform="translate(325.9385,336.2036)"><path
             d="m 0,0 c 0.318,0.318 0.63,0.641 0.934,0.967 11.418,12.25 2.596,32.246 -14.15,32.246"
             style="fill:none;stroke:#000000;stroke-width:20;stroke-linecap:round;stroke-linejoin:round;stroke-miterlimit:10;stroke-dasharray:none;stroke-opacity:1"
             id="path1672" /></g><g
           id="g1674"
           transform="translate(256,446.584)"><path
             d="M 0,0 V -176.072"
             style="fill:none;stroke:#000000;stroke-width:20;stroke-linecap:round;stroke-linejoin:round;stroke-miterlimit:10;stroke-dasharray:none;stroke-opacity:1"
             id="path1676" /></g><g
           id="g1678"
           transform="translate(425.0479,290.8604)"><path
             d="m 0,0 v 75.438 c 0,11.212 9.089,20.303 20.303,20.303 0.107,0 0.692,-0.012 0.706,-0.012 4.688,-0.161 8.973,-1.911 12.333,-4.728"
             style="fill:none;stroke:#000000;stroke-width:20;stroke-linecap:round;stroke-linejoin:round;stroke-miterlimit:10;stroke-dasharray:none;stroke-opacity:1"
             id="path1680" /></g><g
           id="g1682"
           transform="translate(86.9521,290.8604)"><path
             d="m 0,0 v 75.438 c 0,11.212 -9.089,20.303 -20.303,20.303 -0.107,0 -0.692,-0.012 -0.706,-0.012 -4.688,-0.161 -8.973,-1.911 -12.333,-4.728"
             style="fill:none;stroke:#000000;stroke-width:20;stroke-linecap:round;stroke-linejoin:round;stroke-miterlimit:10;stroke-dasharray:none;stroke-opacity:1"
             id="path1684" /></g><g
           id="g1686"
           transform="translate(126.2563,182.2866)"><path
             d="m 0,0 -70.48,73.73 c -5.173,5.252 -7.223,12.413 -6.168,19.178 0.7,4.492 2.769,8.81 6.203,12.279 0.067,0.068 1.795,1.629 1.8,1.633 8.85,7.205 21.895,6.627 30.065,-1.667 L 33.391,34.236 C 51.899,15.999 62.321,-8.9 62.321,-34.884 V -153.035 H -7.971 v 84.178 l -81.698,65.899 c -16.32,15 -26.146,35.944 -26.569,58.107 -0.014,0.731 -0.02,1.466 -0.018,2.206 0.094,33.841 0.24,143.966 0.24,167.891 0,9.959 10.546,17.178 20.967,16.688 10.92,-0.514 19.322,-9.921 19.322,-20.854 V 96.841"
             style="fill:none;stroke:#000000;stroke-width:20;stroke-linecap:round;stroke-linejoin:round;stroke-miterlimit:10;stroke-dasharray:none;stroke-opacity:1"
             id="path1688" /></g><g
           id="g1690"
           transform="translate(420.6997,219.0718)"><path
             d="m 0,0 35.524,36.945 c 5.173,5.252 7.223,12.413 6.168,19.178 -0.7,4.492 -2.769,8.81 -6.203,12.278 -0.067,0.069 -1.795,1.63 -1.8,1.634 -8.85,7.205 -21.895,6.627 -30.065,-1.667 L -68.347,-2.549 c -18.508,-18.237 -28.93,-43.136 -28.93,-69.12 V -189.82 h 70.292 v 84.177 l 81.698,65.899 c 16.32,15.001 26.146,35.945 26.569,58.108 0.014,0.731 0.02,1.466 0.018,2.206 -0.094,33.841 -0.24,143.966 -0.24,167.891 0,9.958 -10.546,17.178 -20.967,16.687 -10.92,-0.513 -19.322,-9.92 -19.322,-20.854 V 60.056"
             style="fill:none;stroke:#000000;stroke-width:20;stroke-linecap:round;stroke-linejoin:round;stroke-miterlimit:10;stroke-dasharray:none;stroke-opacity:1"
             id="path1692" /></g><g
           id="g1694"
           transform="translate(389.2988,186.2974)"><path
             d="M 0,0 V 0"
             style="fill:none;stroke:#000000;stroke-width:20;stroke-linecap:round;stroke-linejoin:round;stroke-miterlimit:10;stroke-dasharray:none;stroke-opacity:1"
             id="path1696" /></g></g></g></g></svg>
