<svg xmlns="http://www.w3.org/2000/svg" enable-background="new 0 0 1024 1024" viewBox="0 0 1024 1024" id="pediatrics">
  <g>
    <path d="M320 330c3.31 0 6 2.69 6 6h20c0-14.34-11.66-26-26-26s-26 11.66-26 26h20C314 332.69 316.69 330 320 330zM416 330c3.31 0 6 2.69 6 6h20c0-14.34-11.66-26-26-26s-26 11.66-26 26h20C410 332.69 412.69 330 416 330zM326 416c0 23.16 18.84 42 42 42s42-18.84 42-42-18.84-42-42-42S326 392.84 326 416zM368 394c12.13 0 22 9.87 22 22s-9.87 22-22 22-22-9.87-22-22S355.87 394 368 394z"></path>
    <circle cx="448" cy="672" r="10.38"></circle>
    <path d="M900.33,220.5c-3.34-4.13-8.3-6.5-13.62-6.5H858v-6h-20v32h20v-6h25.63l-32,149.33C844.84,415.01,816.4,438,784,438
		s-60.84-22.99-67.63-54.67l-32-149.33H710v6h20v-32h-20v6h-28.71c-5.31,0-10.28,2.37-13.62,6.5c-3.34,4.13-4.62,9.48-3.5,14.68
		l32.64,152.34c4.26,19.88,15.32,37.88,31.13,50.66c13.21,10.68,29.27,17.33,46.06,19.24V760c0,25.36-20.64,46-46,46
		s-46-20.64-46-46v-32c0-35.75-28.57-64.93-64.08-65.95c0-0.01,0-0.01,0-0.02c0.06-2.01,0.08-4.02,0.08-6.03V368
		c0-66.78-26-129.56-73.22-176.78C497.56,144,434.78,118,368,118s-129.56,26-176.78,73.22C144,238.44,118,301.22,118,368v288
		c0,66.78,26,129.56,73.22,176.78C238.44,880,301.22,906,368,906s129.56-26,176.78-73.22c41.03-41.03,66.04-93.82,71.89-150.76
		C641.73,682.38,662,702.86,662,728v32c0,36.39,29.61,66,66,66s66-29.61,66-66V457.41c16.78-1.91,32.85-8.56,46.06-19.24
		c15.81-12.78,26.87-30.78,31.13-50.66l32.64-152.34C904.94,229.98,903.67,224.63,900.33,220.5z M368,138
		c108.88,0,200.32,76.05,224.03,177.81c-13.73,40.8-45.07,72.2-69.21,91.5c-8.7,6.96-17.82,13.53-27.1,19.87
		C512.62,399.28,522,367.31,522,336c0-41.06-15.81-76.14-45.72-101.46C448.45,210.98,409.99,198,368,198s-80.45,12.98-108.28,36.54
		C229.81,259.86,214,294.94,214,336c0,36.64,12.84,74.2,35.59,105.06c-25.71-13.05-50.78-27.75-71.27-48.11
		c-19.51-19.39-31.6-40.42-36.96-64.21C160.04,220.56,254.57,138,368,138z M370.55,515.77c-3.23-3.5-6.6-6.82-10.07-9.99
		c2.5,0.15,5,0.22,7.51,0.22c4.7,0,9.37-0.27,14.01-0.77C378.2,508.56,374.37,512.07,370.55,515.77z M359.68,218.19
		c6.12,4.31,10.63,9.81,12.83,15.72c2.46,6.62,1.82,14.07-1.68,19.42c-3.65,5.59-10.75,9.13-17.27,8.62
		c-2.87-0.22-5.48-1.28-6.65-2.68c-1.21-1.45-1.21-4.18,0-6.34c1.62-2.9,5.13-5.43,9.62-6.96l-6.45-18.93
		c-9.24,3.15-16.56,8.87-20.63,16.12c-5.3,9.46-4.46,21.09,2.1,28.94c4.66,5.58,12.11,9.15,20.44,9.8c0.96,0.07,1.91,0.11,2.87,0.11
		c12.92,0,25.52-6.75,32.7-17.73c7.01-10.73,8.39-24.68,3.68-37.33c-1.01-2.72-2.29-5.37-3.82-7.92
		C455.79,226.34,502,272.38,502,336c0,70.81-57.31,150-134,150s-134-79.19-134-150C234,268.99,285.26,221.48,359.68,218.19z
		 M368,886c-125.95,0-228.58-101.76-229.98-227.38c0,0,0-0.01,0-0.01c20.89,24.03,50.9,40.43,80.66,55.21
		c33.52,16.65,75.24,37.38,92.24,74.36l18.17-8.35c-19.94-43.4-65.17-65.87-101.51-83.92c-36.97-18.37-74.27-39.21-89.57-73.99
		V373.86c6.89,11.65,15.58,22.7,26.22,33.27c29.7,29.53,66.69,47.35,102.46,64.58l0.15,0.07c30.71,14.8,65.32,31.49,89.86,58.47
		c-21.86,24.63-40.77,55.57-46.56,92.18l19.75,3.13c8.33-52.68,48.33-93.05,80.41-117.65c18.65-14.3,38.99-27.13,58.66-39.54
		c22.22-14.02,45.19-28.51,66.36-45.44c20.09-16.06,44.81-39.94,62.16-70.62c0.36,5.19,0.54,10.41,0.54,15.69v143.36
		c-3.64,30.64-26.27,56.7-44.67,73.19l13.35,14.89c10.31-9.24,21.79-21.22,31.33-35.37V656c0,2.01-0.03,4-0.08,6h-92.79
		c-4.75-27.23-28.56-48-57.13-48c-31.98,0-58,26.02-58,58s26.02,58,58,58c28.57,0,52.38-20.77,57.13-48h91.41
		C583.58,796.63,486.03,886,368,886z M486,672c0,20.95-17.05,38-38,38s-38-17.05-38-38s17.05-38,38-38S486,651.05,486,672z"></path>
  </g>
</svg>
