<svg width="64" height="64" viewBox="0 0 64 64" fill="none" xmlns="http://www.w3.org/2000/svg">
<path d="M46.9409 37.0014C46.9409 34.6145 45.9927 32.3253 44.3049 30.6375C42.6171 28.9496 40.3279 28.0014 37.9409 28.0014C36.7557 28.0016 35.5826 28.2397 34.4909 28.7014C34.1253 27.6211 33.4593 26.6674 32.5711 25.952C31.6828 25.2367 30.6091 24.7893 29.4757 24.6623C28.3423 24.5353 27.1962 24.734 26.1716 25.2351C25.1471 25.7361 24.2866 26.5188 23.6909 27.4914L18.0009 36.8714C17.5583 37.5435 17.2554 38.2977 17.1102 39.0893C16.965 39.8808 16.9805 40.6934 17.1558 41.4789C17.3311 42.2643 17.6627 43.0064 18.1307 43.6611C18.5987 44.3157 19.1936 44.8695 19.88 45.2896C20.5664 45.7096 21.3303 45.9873 22.1262 46.1061C22.9222 46.2248 23.7339 46.1823 24.513 45.9809C25.2921 45.7795 26.0228 45.4235 26.6615 44.934C27.3003 44.4445 27.834 43.8314 28.2309 43.1314L29.7609 40.6414C30.6129 42.4992 32.0719 44.0116 33.8978 44.9299C35.7236 45.8482 37.8077 46.1178 39.8071 45.6941C41.8065 45.2705 43.6022 44.179 44.8988 42.5991C46.1953 41.0192 46.9155 39.0451 46.9409 37.0014ZM26.4809 42.0914C25.9266 42.9971 25.0353 43.6456 24.0029 43.894C22.9705 44.1425 21.8817 43.9707 20.9759 43.4164C20.0702 42.8621 19.4218 41.9707 19.1733 40.9383C18.9248 39.906 19.0966 38.8171 19.6509 37.9114L22.0009 34.0714L28.8309 38.2514L26.4809 42.0914ZM23.0509 32.3714L25.4009 28.5314C25.672 28.082 26.0301 27.6913 26.4543 27.3822C26.8785 27.0731 27.3601 26.8518 27.8709 26.7314C28.1818 26.6554 28.5009 26.6185 28.8209 26.6214C29.5311 26.6233 30.2279 26.8142 30.8399 27.1745C31.4518 27.5348 31.9568 28.0515 32.303 28.6715C32.6491 29.2916 32.824 29.9926 32.8096 30.7026C32.7952 31.4126 32.592 32.1059 32.2209 32.7114L29.8709 36.5414L23.0509 32.3714ZM31.0509 38.3714L33.8909 33.7314C34.4519 32.8302 34.7562 31.7929 34.7709 30.7314C35.7556 30.2425 36.8416 29.9925 37.9409 30.0014C38.3978 30.0024 38.8534 30.0493 39.3009 30.1414L34.6909 43.1414C33.7785 42.6617 32.9824 41.9878 32.3587 41.1671C31.735 40.3464 31.2988 39.3989 31.0809 38.3914L31.0509 38.3714ZM41.1509 30.7814C42.5451 31.5012 43.6571 32.6685 44.3083 34.096C44.9596 35.5235 45.1123 37.1284 44.7421 38.6531C44.3719 40.1779 43.5001 41.534 42.2668 42.5039C41.0334 43.4738 39.51 44.0012 37.9409 44.0014C37.484 44.0009 37.0284 43.954 36.5809 43.8614L41.1509 30.7814Z" fill="#DC2626"/>
<path d="M29 48H27V50H29V48Z" fill="#DC2626"/>
<path d="M33 48H31V50H33V48Z" fill="#DC2626"/>
<path d="M37 48H35V50H37V48Z" fill="#DC2626"/>
<path d="M20.1311 54.2572L31.4011 62.7972C31.5742 62.927 31.7847 62.9972 32.0011 62.9972C32.2175 62.9972 32.428 62.927 32.6011 62.7972L43.8711 54.2572C50.4812 49.2248 56.0653 42.972 60.3211 35.8372C61.7489 33.4348 62.6385 30.7512 62.9286 27.9716C63.2186 25.192 62.9022 22.3826 62.0011 19.7372L60.1011 20.3872C60.9138 22.7554 61.2006 25.2723 60.9416 27.7626C60.6825 30.253 59.8838 32.657 58.6011 34.8072C54.4826 41.722 49.0747 47.7817 42.6711 52.6572L32.0011 60.7472L21.3311 52.6572C14.9275 47.7817 9.51961 41.722 5.4011 34.8072C3.57245 31.7264 2.75761 28.1491 3.07161 24.5802C3.38561 21.0114 4.81259 17.6313 7.1511 14.9172C8.38487 13.5008 9.90546 12.3628 11.6122 11.5784C13.3189 10.794 15.1728 10.3811 17.0511 10.3672C18.9378 10.3741 20.8014 10.7835 22.5173 11.5681C24.2331 12.3528 25.7618 13.4945 27.0011 14.9172L31.3111 19.6972C31.4048 19.8003 31.5191 19.8827 31.6465 19.9391C31.7739 19.9955 31.9118 20.0246 32.0511 20.0246C32.1905 20.0246 32.3283 19.9955 32.4557 19.9391C32.5831 19.8827 32.6974 19.8003 32.7911 19.6972L37.1011 14.9172C37.8558 14.0857 38.7011 13.3411 39.6211 12.6972L38.4811 11.0572C37.4319 11.7817 36.4719 12.6276 35.6211 13.5772L32.0511 17.5772L28.4811 13.5772C27.0556 11.9464 25.2988 10.6382 23.3279 9.73979C21.3569 8.84141 19.2171 8.37347 17.0511 8.36719C14.8933 8.37928 12.7628 8.85006 10.8008 9.7483C8.8388 10.6465 7.09024 11.9517 5.6711 13.5772C3.04781 16.6103 1.44348 20.3908 1.08462 24.385C0.725759 28.3791 1.6305 32.385 3.6711 35.8372C7.92987 42.9729 13.5174 49.2258 20.1311 54.2572Z" fill="black"/>
<path d="M40 1H38V3H36V5H38V7H40V5H42V3H40V1Z" fill="#DC2626"/>
<path d="M62 8H57V3C57 2.73478 56.8946 2.48043 56.7071 2.29289C56.5196 2.10536 56.2652 2 56 2H50C49.7348 2 49.4804 2.10536 49.2929 2.29289C49.1054 2.48043 49 2.73478 49 3V8H44C43.7348 8 43.4804 8.10536 43.2929 8.29289C43.1054 8.48043 43 8.73478 43 9V15C43 15.2652 43.1054 15.5196 43.2929 15.7071C43.4804 15.8946 43.7348 16 44 16H49V21C49 21.2652 49.1054 21.5196 49.2929 21.7071C49.4804 21.8946 49.7348 22 50 22H56C56.2652 22 56.5196 21.8946 56.7071 21.7071C56.8946 21.5196 57 21.2652 57 21V16H62C62.2652 16 62.5196 15.8946 62.7071 15.7071C62.8946 15.5196 63 15.2652 63 15V9C63 8.73478 62.8946 8.48043 62.7071 8.29289C62.5196 8.10536 62.2652 8 62 8ZM61 14H56C55.7348 14 55.4804 14.1054 55.2929 14.2929C55.1054 14.4804 55 14.7348 55 15V20H51V15C51 14.7348 50.8946 14.4804 50.7071 14.2929C50.5196 14.1054 50.2652 14 50 14H45V10H50C50.2652 10 50.5196 9.89464 50.7071 9.70711C50.8946 9.51957 51 9.26522 51 9V4H55V9C55 9.26522 55.1054 9.51957 55.2929 9.70711C55.4804 9.89464 55.7348 10 56 10H61V14Z" fill="#DC2626"/>
</svg>
