<svg xmlns="http://www.w3.org/2000/svg" fill-rule="evenodd" stroke-linejoin="round" stroke-miterlimit="2" clip-rule="evenodd" viewBox="0 0 101 101" id="file">
  <path d="M7.106,29.877c-1.207,0.48 -2.307,1.223 -3.212,2.192c-1.681,1.8 -2.541,4.216 -2.373,6.672l2.909,42.731c0.318,4.664 4.193,8.285 8.868,8.285l74.404,-0c4.675,-0 8.551,-3.621 8.868,-8.285l2.91,-42.731c0.167,-2.456 -0.692,-4.872 -2.373,-6.672c-0.906,-0.969 -2.006,-1.712 -3.213,-2.192l-0,-2.806c-0,-4.909 -3.979,-8.889 -8.889,-8.889l-31.081,-0c-1.424,-0 -2.814,-0.438 -3.981,-1.255c-1.346,-0.942 -2.956,-2.069 -4.302,-3.012c-2.485,-1.739 -5.444,-2.672 -8.477,-2.672l-21.169,-0c-2.358,-0 -4.618,0.937 -6.285,2.604c-1.667,1.667 -2.604,3.928 -2.604,6.285l-0,9.745Zm88.463,8.598c0.093,-1.373 -0.387,-2.724 -1.327,-3.73c-0.939,-1.005 -2.254,-1.576 -3.631,-1.576l-80.222,0c-1.376,0 -2.691,0.571 -3.631,1.576c-0.939,1.006 -1.42,2.357 -1.326,3.73c0.703,10.327 2.244,32.968 2.909,42.731c0.177,2.607 2.344,4.631 4.957,4.631l74.404,-0c2.613,-0 4.78,-2.024 4.957,-4.631c0.665,-9.763 2.207,-32.404 2.91,-42.731Zm-45.069,5.546c-5.371,-4.322 -12.821,-3.523 -16.921,-0.094c-4.795,4.012 -5.651,12.01 -0.879,20.033c2.827,5.017 9.896,10.171 15.891,13.515c1.187,0.662 2.632,0.662 3.819,-0c6.004,-3.349 13.084,-8.514 15.903,-13.537c4.76,-7.995 3.905,-15.997 -0.892,-20.011c-4.099,-3.43 -11.549,-4.228 -16.921,0.094Zm-0,5.926c3.601,-6.026 10.804,-6.026 14.405,-3.013c3.602,3.013 3.602,9.039 -0,15.065c-2.52,4.519 -9.003,9.039 -14.405,12.052c-5.402,-3.013 -11.884,-7.533 -14.405,-12.052c-3.602,-6.026 -3.602,-12.052 -0,-15.065c3.601,-3.013 10.804,-3.013 14.405,3.013Zm-8.811,11.516l3.525,-0c0.695,-0 1.338,-0.368 1.69,-0.968l1.23,-2.094l2.248,7.654c0.22,0.75 0.865,1.297 1.64,1.393c0.776,0.096 1.535,-0.279 1.93,-0.953l2.957,-5.032l2.402,-0c1.082,-0 1.96,-0.878 1.96,-1.96c-0,-1.082 -0.878,-1.96 -1.96,-1.96l-3.524,-0c-0.695,-0 -1.338,0.368 -1.69,0.967l-1.23,2.094l-2.248,-7.654c-0.221,-0.749 -0.865,-1.297 -1.641,-1.392c-0.776,-0.096 -1.534,0.278 -1.93,0.952l-2.956,5.033l-2.403,-0c-1.081,-0 -1.96,0.878 -1.96,1.96c-0,1.082 0.879,1.96 1.96,1.96Zm48.285,-32.214l-0,-2.178c-0,-2.745 -2.224,-4.969 -4.969,-4.969l-31.081,-0c-2.229,-0 -4.403,-0.686 -6.229,-1.964c-1.346,-0.942 -2.956,-2.069 -4.302,-3.011c-1.826,-1.278 -4,-1.964 -6.229,-1.964l-21.169,-0c-1.318,-0 -2.582,0.524 -3.514,1.456c-0.931,0.932 -1.455,2.195 -1.455,3.513l-0,9.117l78.948,-0Z"></path>
</svg>
