<svg width="512" height="512" viewBox="0 0 512 512" fill="none" xmlns="http://www.w3.org/2000/svg">
<path d="M433.848 110.264C430.12 113.208 426.392 116.112 422.712 118.96L420.912 120.36C435.734 131.708 448.92 145.047 460.096 160H376.232C371.904 164.979 368.027 170.334 364.648 176H469.6C475.565 188.543 479.02 202.131 479.768 216H352.328C352.136 218.608 352 221.248 352 224C352 226.752 352.112 229.4 352.288 232H479.728C478.942 245.873 475.458 259.46 469.472 272H364.512C367.904 277.67 371.797 283.025 376.144 288H460.144C450.613 300.985 439.427 312.67 426.872 322.76L437.176 335C466.248 310.512 496 278.176 496 224C496 169.4 467.008 137.6 433.848 110.264Z" fill="black"/>
<path d="M382.152 89.736C385.88 86.792 389.608 83.888 393.288 81.04L395.088 79.64C380.272 68.2976 367.099 54.9575 355.944 40H439.768C444.096 35.0209 447.973 29.6664 451.352 24H346.632C344.096 18.852 341.998 13.4998 340.36 8H323.792C332.648 43.936 356.08 68.256 382.152 89.736Z" fill="black"/>
<path d="M378.848 335L389.152 322.76C361.544 299.528 336 271.496 336 224C336 165.92 373.352 136.976 412.904 106.328C446.528 80.264 481.04 53.424 492.216 8H475.6C464.664 45.864 434.608 69.256 403.096 93.672C362.248 125.336 320 158.08 320 224C320 278.176 349.752 310.512 378.848 335Z" fill="black"/>
<path d="M27.5599 272C31.2463 272.004 34.8511 270.915 37.9194 268.872C40.9877 266.829 43.382 263.923 44.7999 260.52L79.9999 176V479.736C80.0232 486.11 82.5538 492.219 87.0446 496.742C91.5355 501.266 97.626 503.841 104 503.91C110.373 503.979 116.519 501.538 121.107 497.113C125.695 492.688 128.358 486.636 128.52 480.264L132 320H148L151.48 480.264C151.642 486.636 154.305 492.688 158.893 497.113C163.481 501.538 169.626 503.979 176 503.91C182.374 503.841 188.464 501.266 192.955 496.742C197.446 492.219 199.977 486.11 200 479.736V176L235.2 260.52C237.072 265.104 240.689 268.756 245.254 270.674C247.515 271.623 249.94 272.118 252.392 272.13C254.844 272.142 257.274 271.671 259.544 270.744C261.814 269.817 263.879 268.452 265.621 266.727C267.363 265.001 268.748 262.95 269.698 260.689C270.647 258.429 271.142 256.004 271.154 253.552C271.166 251.1 270.695 248.67 269.768 246.4L228.072 142.176C224.509 133.268 218.359 125.632 210.415 120.254C202.471 114.875 193.098 112 183.504 112H96.4959C86.9022 112 77.5286 114.875 69.5845 120.254C61.6404 125.632 55.4904 133.268 51.9279 142.176L10.2319 246.4C9.09828 249.232 8.67608 252.299 9.00229 255.332C9.32849 258.365 10.3932 261.272 12.1031 263.798C13.813 266.324 16.1161 268.393 18.8107 269.823C21.5054 271.252 24.5094 272 27.5599 272Z" fill="#DC2626"/>
<path d="M140 104C166.51 104 188 82.5097 188 56C188 29.4903 166.51 8 140 8C113.49 8 92 29.4903 92 56C92 82.5097 113.49 104 140 104Z" fill="#DC2626"/>
<path d="M313.336 498.112C319.592 501.961 326.791 504.001 334.136 504.008C337.31 504.007 340.474 503.631 343.56 502.888C348.673 501.672 353.493 499.455 357.744 496.364C361.994 493.273 365.588 489.369 368.32 484.88L410.096 416.648C415.635 407.6 417.352 396.722 414.871 386.407C412.389 376.093 405.912 367.187 396.864 361.648C387.816 356.109 376.938 354.391 366.623 356.873C356.309 359.354 347.403 365.832 341.864 374.88L300.096 443.112C294.571 452.164 292.861 463.039 295.344 473.349C297.826 483.66 304.296 492.566 313.336 498.112ZM355.528 383.2C357.167 380.498 359.323 378.146 361.873 376.28C364.423 374.413 367.317 373.069 370.388 372.324C373.459 371.578 376.647 371.447 379.769 371.937C382.891 372.427 385.885 373.528 388.58 375.179C391.275 376.829 393.618 378.995 395.474 381.553C397.329 384.11 398.662 387.01 399.394 390.084C400.127 393.158 400.245 396.346 399.742 399.466C399.239 402.586 398.125 405.576 396.464 408.264L379.744 435.576L338.8 410.56L355.528 383.2Z" fill="#DC2626"/>
<path d="M490.016 479.824L417.304 435.544L390.104 480C396.093 487.508 403.698 493.567 412.354 497.727C421.01 501.887 430.493 504.04 440.097 504.025C449.7 504.011 459.177 501.829 467.82 497.643C476.463 493.457 484.05 487.374 490.016 479.848V479.824Z" fill="#DC2626"/>
<path d="M440 376C436.219 376.018 432.447 376.371 428.728 377.056C431.306 384.333 432.348 392.065 431.789 399.764C431.23 407.464 429.082 414.964 425.48 421.792L498.344 466.168C502.739 456.429 504.622 445.743 503.819 435.089C503.016 424.434 499.554 414.151 493.75 405.181C487.945 396.21 479.984 388.839 470.594 383.741C461.203 378.643 450.685 375.981 440 376Z" fill="#DC2626"/>
</svg>
