<svg width="474" height="474" viewBox="0 0 474 474" fill="none" xmlns="http://www.w3.org/2000/svg">
<g clip-path="url(#clip0_215_51)">
<path d="M374.455 293.506C364.755 283.406 353.055 278.006 340.655 278.006C328.355 278.006 316.555 283.306 306.455 293.406L274.855 324.906C272.255 323.506 269.655 322.206 267.155 320.906C263.555 319.106 260.155 317.406 257.255 315.606C227.655 296.806 200.755 272.306 174.955 240.606C162.455 224.806 154.055 211.506 147.955 198.006C156.155 190.506 163.755 182.706 171.155 175.206C173.955 172.406 176.755 169.506 179.555 166.706C200.555 145.706 200.555 118.506 179.555 97.5062L152.255 70.2063C149.155 67.1063 145.955 63.9063 142.955 60.7063C136.955 54.5063 130.655 48.1062 124.155 42.1062C114.455 32.5062 102.855 27.4062 90.6552 27.4062C78.4552 27.4062 66.6552 32.5062 56.6552 42.1062C56.5552 42.2062 56.5552 42.2062 56.4552 42.3062L22.4552 76.6063C9.65523 89.4063 2.35524 105.006 0.755235 123.106C-1.64476 152.306 6.95524 179.506 13.5552 197.306C29.7552 241.006 53.9552 281.506 90.0552 324.906C133.855 377.206 186.555 418.506 246.755 447.606C269.755 458.506 300.455 471.406 334.755 473.606C336.855 473.706 339.055 473.806 341.055 473.806C364.155 473.806 383.555 465.506 398.755 449.006C398.855 448.806 399.055 448.706 399.155 448.506C404.355 442.206 410.355 436.506 416.655 430.406C420.955 426.306 425.355 422.006 429.655 417.506C439.555 407.206 444.755 395.206 444.755 382.906C444.755 370.506 439.455 358.606 429.355 348.606L374.455 293.506ZM410.255 398.806C410.155 398.906 410.155 398.806 410.255 398.806C406.355 403.006 402.355 406.806 398.055 411.006C391.555 417.206 384.955 423.706 378.755 431.006C368.655 441.806 356.755 446.906 341.155 446.906C339.655 446.906 338.055 446.906 336.555 446.806C306.855 444.906 279.255 433.306 258.555 423.406C201.955 396.006 152.255 357.106 110.955 307.806C76.8552 266.706 54.0552 228.706 38.9552 187.906C29.6552 163.006 26.2552 143.606 27.7552 125.306C28.7552 113.606 33.2552 103.906 41.5552 95.6063L75.6552 61.5062C80.5552 56.9062 85.7552 54.4062 90.8552 54.4062C97.1552 54.4062 102.255 58.2062 105.455 61.4062C105.555 61.5063 105.655 61.6063 105.755 61.7063C111.855 67.4063 117.655 73.3063 123.755 79.6063C126.855 82.8063 130.055 86.0063 133.255 89.3063L160.555 116.606C171.155 127.206 171.155 137.006 160.555 147.606C157.655 150.506 154.855 153.406 151.955 156.206C143.555 164.806 135.555 172.806 126.855 180.606C126.655 180.806 126.455 180.906 126.355 181.106C117.755 189.706 119.355 198.106 121.155 203.806C121.255 204.106 121.355 204.406 121.455 204.706C128.555 221.906 138.555 238.106 153.755 257.406L153.855 257.506C181.455 291.506 210.555 318.006 242.655 338.306C246.755 340.906 250.955 343.006 254.955 345.006C258.555 346.806 261.955 348.506 264.855 350.306C265.255 350.506 265.655 350.806 266.055 351.006C269.455 352.706 272.655 353.506 275.955 353.506C284.255 353.506 289.455 348.306 291.155 346.606L325.355 312.406C328.755 309.006 334.155 304.906 340.455 304.906C346.655 304.906 351.755 308.806 354.855 312.206C354.955 312.306 354.955 312.306 355.055 312.406L410.155 367.506C420.455 377.706 420.455 388.206 410.255 398.806Z" fill="black"/>
<path d="M256.054 112.707C282.254 117.107 306.054 129.507 325.054 148.507C344.054 167.507 356.354 191.307 360.854 217.507C361.954 224.107 367.654 228.707 374.154 228.707C374.954 228.707 375.654 228.607 376.454 228.507C383.854 227.307 388.754 220.307 387.554 212.907C382.154 181.207 367.154 152.307 344.254 129.407C321.354 106.507 292.454 91.5065 260.754 86.1065C253.354 84.9065 246.454 89.8065 245.154 97.1065C243.854 104.407 248.654 111.507 256.054 112.707Z" fill="#DC2626"/>
<path d="M473.254 209.006C464.354 156.806 439.754 109.306 401.954 71.5058C364.154 33.7058 316.654 9.10581 264.454 0.205815C257.154 -1.09419 250.254 3.90582 248.954 11.2058C247.754 18.6058 252.654 25.5058 260.054 26.8058C306.654 34.7058 349.154 56.8058 382.954 90.5058C416.754 124.306 438.754 166.806 446.654 213.406C447.754 220.006 453.454 224.606 459.954 224.606C460.754 224.606 461.454 224.506 462.254 224.406C469.554 223.306 474.554 216.306 473.254 209.006Z" fill="#DC2626"/>
</g>
<defs>
<clipPath id="clip0_215_51">
<rect width="473.806" height="473.806" fill="white"/>
</clipPath>
</defs>
</svg>
