<svg id="Capa_1" enable-background="new 0 0 512 512" height="512" viewBox="0 0 512 512" width="512" xmlns="http://www.w3.org/2000/svg"><g><path d="m504.5 496.67h-52.5v-128.741c14.881-2.161 28.611-9.014 39.421-19.833 13.27-13.259 20.579-30.901 20.579-49.676 0-25.822-14.014-48.42-34.826-60.627 5.35-4.441 8.466-11.051 8.466-18.003 0-12.175-9.505-22.422-21.64-23.33l-51.169-3.828c-4.131-.292-7.729 2.789-8.039 6.92-.309 4.131 2.789 7.729 6.92 8.039l51.169 3.828c4.351.325 7.759 4.002 7.759 8.371 0 4.555-3.845 8.402-8.39 8.38h-160.466c.238-1.188.366-2.414.366-3.67v-25.108l74.609 5.583c4.077.295 7.729-2.764 8.039-6.92.309-4.131-2.789-7.729-6.92-8.039l-7.927-.593 8.303-7.244c5.485 4.235 12.866 5.862 19.835 4.416 6.263-1.299 11.645-4.959 15.154-10.307 1.537-2.341 2.634-4.882 3.272-7.526l32.662-5.062c11.752-1.789 20.006-12.513 18.679-24.324-1.352-12.032-12.469-21.052-24.461-19.694l-75.193 8.104c-2.134.236-4.18.877-6.121 1.923l-28.557 15.614c-4.745-17.457-18.861-31.166-37.239-35.003l-5.696-1.192c9.739-9.199 15.834-22.216 15.834-36.637v-41.699c0-16.797-13.665-30.462-30.462-30.462h-39.924c-16.797 0-30.462 13.665-30.462 30.462v41.699c0 14.422 6.095 27.438 15.833 36.637l-5.694 1.191c-22.584 4.721-38.976 24.892-38.976 47.962v5.099c-7.233.453-14.446 1.113-21.627 1.943-5.769-7.97-15.121-13.166-25.665-13.166h-44.678l-14.743-8.949c-3.784-2.298-8.534-2.375-12.389-.203-3.869 2.178-6.272 6.292-6.272 10.738v53.031c0 8.399 2.856 16.136 7.634 22.302-14.494 2.319-27.853 9.094-38.421 19.67-13.269 13.27-20.577 30.911-20.577 49.674 0 35.254 26.106 64.517 60 69.494v46.762c0 4.143 3.357 7.5 7.5 7.5s7.5-3.357 7.5-7.5v-46.006h362v128h-362v-46.993c0-4.143-3.357-7.5-7.5-7.5s-7.5 3.357-7.5 7.5v46.993h-52.5c-4.143 0-7.5 3.357-7.5 7.5s3.357 7.5 7.5 7.5h497c4.143 0 7.5-3.357 7.5-7.5s-3.357-7.5-7.5-7.5zm-109.457-324.761c-.003.001-.006.001-.009.002-5.022 1.674-10.405-2.277-11.092-7.569l17.896-3.713c1.354 4.977-1.822 9.622-6.795 11.28zm-25.805-29.016c.197-.106.411-.175.596-.195l75.179-8.102c4.176-.483 7.978 2.941 7.978 7.174 0 3.514-2.626 6.569-6.108 7.109l-31.297 4.851c-.933-2.61-2.666-4.844-5.024-6.392-2.867-1.882-6.293-2.531-9.65-1.837l-22.134 4.592c-6.931 1.438-11.398 8.246-9.961 15.176l.586 2.826c.11.53.253 1.044.396 1.558l-20.86 18.198-47.595-3.562c-.367-1.214-.85-2.38-1.446-3.483zm-148.662-112.101c0-8.525 6.937-15.462 15.462-15.462h39.924c8.525 0 15.462 6.937 15.462 15.462v13.686l-34.256 3.933c-3.942.455-7.949-.158-11.581-1.764l-25.011-11.063zm0 41.699v-20.506l18.943 8.38c6.07 2.686 12.765 3.705 19.359 2.947l32.545-3.736v12.915c0 19.532-15.891 35.423-35.424 35.423s-35.423-15.891-35.423-35.423zm43.974 49.683v2.926c0 5.663-4.603 10.271-10.27 10.271-5.658 0-10.261-4.607-10.261-10.271v-3.636c3.843.94 7.852 1.45 11.98 1.45 2.916 0 5.77-.263 8.551-.74zm-72.81 36.107c0-16.008 11.374-30.003 27.046-33.279l10.233-2.141v2.239c0 13.935 11.332 25.271 25.271 25.271 13.929 0 25.26-11.336 25.26-25.271v-2.957l13.667 2.859c13.969 2.917 24.394 14.047 26.605 27.813l-33.558 18.348c-21.863-4.531-44.199-7.308-66.41-8.236-9.347-.393-18.732-.449-28.114-.203zm-30.58 39.385v-13.678c0-1.434-.104-2.844-.288-4.229 19.348-2.036 38.935-2.659 58.355-1.846 21.756.909 43.639 3.65 65.047 8.147 1.667.349 2.877 1.858 2.877 3.59v34.85c0 2.023-1.646 3.67-3.67 3.67h-9.021c-1.606-.57-33.036-8.058-34.839-8.492-1.807-.436-3.477-1.217-4.964-2.32l-26.076-19.358c-5.517-4.097-12.513-5.487-19.19-3.815-6.68 1.671-12.196 6.192-15.134 12.404-3.357 7.095-2.696 15.211 1.184 21.582h-16.2c-2.811 0-5.483-.947-7.633-2.609 5.978-7.711 9.552-17.389 9.552-27.896zm112.503 54.027c-1.374 2.903-4.658 4.481-7.797 3.768l-6.116-1.404 4.244-13.073 5.106 1.231c2.751.663 4.035 2.587 4.555 3.674.518 1.08 1.205 3.272.008 5.804zm-24.295-14.235-4.295 13.231-15.437-3.543c-1.573-.361-3.057-.989-4.407-1.866l-34.631-22.482c-3.233-2.101-4.43-6.311-2.781-9.795 1.01-2.136 2.91-3.69 5.215-4.268 2.279-.571 4.702-.109 6.608 1.308l26.075 19.359c3.115 2.312 6.61 3.946 10.389 4.858zm-119.92-70.301c9.215 0 16.712 7.551 16.712 16.831v13.678c0 14.242-9.75 26.233-22.886 29.578l-.043-5.565c-.068-8.78-6.676-16.193-15.369-17.241l-7.215-.87c-1.058-.127-1.909-.929-2.117-1.995l-6.748-34.415h37.666zm-63.085-8.624 9.582 5.816 7.864 40.108c1.463 7.466 7.508 13.093 15.041 14.002l7.216.87c1.225.147 2.155 1.207 2.165 2.465l.049 6.376h-20.736c-11.686-.042-21.181-9.623-21.181-21.396zm375.387 195.137h-371.5c-30.465 0-55.25-24.785-55.25-55.25 0-14.757 5.747-28.631 16.186-39.069 10.426-10.435 24.299-16.181 39.064-16.181h124.183l22.63 14.692c2.827 1.834 5.928 3.147 9.217 3.902l36.231 8.314c9.791 2.257 20.327-2.705 24.711-11.973 2.236-4.726 2.681-9.996 1.35-14.937h153.178c30.465 0 55.25 24.785 55.25 55.25 0 14.766-5.746 28.639-16.186 39.069-10.425 10.437-24.298 16.183-39.064 16.183z"/></g></svg>