<svg width="512" height="512" viewBox="0 0 512 512" fill="none" xmlns="http://www.w3.org/2000/svg">
<path d="M379.689 185.047V233.71H220.709L192.301 209.379L220.709 185.047H379.689Z" fill="#DC2626"/>
<path d="M379.689 273.855V322.517H220.709L192.301 298.186L220.709 273.855H379.689Z" fill="#DC2626"/>
<path d="M379.689 362.66V411.322H220.709L192.301 386.991L220.709 362.66H379.689Z" fill="#DC2626"/>
<path d="M404.236 1.73828H107.768C91.8656 1.73828 78.9336 14.6733 78.9336 30.5723V481.428C78.9336 497.327 91.8656 510.262 107.768 510.262H404.236C420.138 510.262 433.07 497.327 433.07 481.428V30.5723C433.07 14.6733 420.138 1.73828 404.236 1.73828ZM417.342 481.428C417.342 488.654 411.465 494.534 404.236 494.534H107.768C100.539 494.534 94.6616 488.654 94.6616 481.428V30.5723C94.6616 23.3463 100.539 17.4663 107.768 17.4663H404.236C411.465 17.4663 417.342 23.3463 417.342 30.5723V481.428Z" fill="black"/>
<path d="M167.648 54.3125H148.071C143.73 54.3125 140.207 57.8325 140.207 62.1765V126.068C140.207 130.412 143.729 133.932 148.071 133.932C152.412 133.932 155.935 130.412 155.935 126.068V101.987H167.649C180.791 101.987 191.486 91.2955 191.486 78.1505C191.486 65.0055 180.79 54.3125 167.648 54.3125ZM167.648 86.2585H155.934V70.0395H167.648C172.117 70.0395 175.758 73.6775 175.758 78.1495C175.758 82.6215 172.118 86.2585 167.648 86.2585Z" fill="black"/>
<path d="M256.015 133.931C260.356 133.931 263.879 130.412 263.879 126.068V106.917H283.702V126.068C283.702 130.412 287.224 133.931 291.566 133.931C295.907 133.931 299.43 130.412 299.43 126.068V79.9545C299.43 65.8165 287.926 54.3125 273.791 54.3125C259.656 54.3125 248.152 65.8165 248.152 79.9545V126.068C248.152 130.412 251.674 133.931 256.015 133.931ZM273.791 70.0405C279.259 70.0405 283.703 74.4865 283.703 79.9545V91.1895H263.88V79.9545C263.879 74.4875 268.323 70.0405 273.791 70.0405Z" fill="black"/>
<path d="M363.933 54.3125C359.592 54.3125 356.069 57.8325 356.069 62.1765V100.915L326.114 57.6975C324.158 54.8715 320.58 53.6455 317.308 54.6715C314.026 55.6975 311.789 58.7395 311.789 62.1765V126.068C311.789 130.412 315.311 133.932 319.653 133.932C323.995 133.932 327.517 130.412 327.517 126.068V87.3285L357.472 130.546C359.465 133.426 363.072 134.58 366.278 133.572C369.56 132.546 371.797 129.503 371.797 126.066V62.1755C371.797 57.8315 368.275 54.3125 363.933 54.3125Z" fill="black"/>
<path d="M243.363 126.068C243.363 121.724 239.841 118.204 235.499 118.204H212.005V62.1765C212.005 57.8325 208.483 54.3125 204.141 54.3125C199.799 54.3125 196.277 57.8325 196.277 62.1765V126.068C196.277 130.412 199.799 133.931 204.141 133.931H235.499C239.84 133.931 243.363 130.412 243.363 126.068Z" fill="black"/>
<path d="M160.972 191.074L141.041 211.002L137.877 207.838C134.805 204.766 129.829 204.769 126.757 207.835C123.685 210.907 123.685 215.886 126.757 218.957L135.481 227.683C138.565 230.767 143.543 230.741 146.601 227.683L172.092 202.192C175.164 199.123 175.164 194.141 172.092 191.072C169.02 188.002 164.044 188.002 160.972 191.074Z" fill="#DC2626"/>
<path d="M304.773 201.516H230.216C225.875 201.516 222.352 205.036 222.352 209.38C222.352 213.724 225.874 217.244 230.216 217.244H304.773C309.114 217.244 312.637 213.724 312.637 209.38C312.636 205.036 309.114 201.516 304.773 201.516Z" fill="black"/>
<path d="M160.972 279.882L141.041 299.81L137.877 296.646C134.805 293.574 129.829 293.577 126.757 296.643C123.685 299.715 123.685 304.694 126.757 307.765L135.481 316.491C138.565 319.575 143.543 319.549 146.601 316.491L172.092 291.001C175.164 287.932 175.164 282.95 172.092 279.881C169.02 276.81 164.044 276.81 160.972 279.882Z" fill="#DC2626"/>
<path d="M304.773 290.32H230.216C225.875 290.32 222.352 293.84 222.352 298.184C222.352 302.528 225.874 306.048 230.216 306.048H304.773C309.114 306.048 312.637 302.528 312.637 298.184C312.637 293.84 309.114 290.32 304.773 290.32Z" fill="black"/>
<path d="M160.972 368.687L141.041 388.615L137.877 385.451C134.805 382.379 129.829 382.382 126.757 385.448C123.685 388.52 123.685 393.499 126.757 396.57L135.481 405.296C138.565 408.38 143.543 408.354 146.601 405.296L172.092 379.805C175.164 376.736 175.164 371.754 172.092 368.685C169.02 365.615 164.044 365.615 160.972 368.687Z" fill="#DC2626"/>
<path d="M304.773 379.129H230.216C225.875 379.129 222.352 382.649 222.352 386.993C222.352 391.337 225.874 394.857 230.216 394.857H304.773C309.114 394.857 312.637 391.337 312.637 386.993C312.637 382.649 309.114 379.129 304.773 379.129Z" fill="black"/>
</svg>
