<svg id="Layer_3" enable-background="new 0 0 64 64" height="512" viewBox="0 0 64 64" width="512" xmlns="http://www.w3.org/2000/svg"><g><path d="m24 16c3.309 0 6-2.691 6-6s-2.691-6-6-6-6 2.691-6 6 2.691 6 6 6zm0-10c2.206 0 4 1.794 4 4s-1.794 4-4 4-4-1.794-4-4 1.794-4 4-4z"/><path d="m43 13c3.309 0 6-2.691 6-6s-2.691-6-6-6-6 2.691-6 6 2.691 6 6 6zm0-10c2.206 0 4 1.794 4 4s-1.794 4-4 4-4-1.794-4-4 1.794-4 4-4z"/><path d="m27.819 23.472c-.69.345-1.463.528-2.235.528h-3.168c-.772 0-1.545-.183-2.236-.528l-.733-.366-.893 1.789.732.366c.966.483 2.049.739 3.13.739h3.168c1.081 0 2.164-.256 3.129-.739l.733-.366-.893-1.789z"/><path d="m50 11h-2c-.334 0-.646.167-.832.445l-.812 1.219c-.558.837-1.492 1.336-2.497 1.336h-1.719c-1.005 0-1.938-.499-2.496-1.336l-.812-1.219c-.186-.278-.498-.445-.832-.445h-1.343c-1.336 0-2.592.521-3.536 1.465l-2.448 2.448-1.118-.745c-.461-.307-1.081-.183-1.387.277l-.812 1.219c-.558.837-1.492 1.336-2.497 1.336h-1.719c-1.005 0-1.938-.499-2.496-1.336l-.812-1.219c-.307-.46-.927-.584-1.387-.277l-9 6c-.278.186-.445.498-.445.832v11c0 1.302.839 2.402 2 2.816v26.184h-1v2h4v-2h-1v-26.184c1.161-.414 2-1.514 2-2.816v-7.465l1-.667v38.132c0 .553.447 1 1 1h5c.553 0 1-.447 1-1v-24h2v9c0 1.654 1.346 3 3 3h1c1.654 0 3-1.346 3-3v-23.132l1 .667v7.465c0 1.302.839 2.402 2 2.816v26.184h-1v2h4v-2h-1v-2h4c.553 0 1-.447 1-1v-22h2v26c0 .553.447 1 1 1h5c.553 0 1-.447 1-1v-33c2.206 0 4-1.794 4-4v-9c0-2.757-2.243-5-5-5zm-38 22c-.552 0-1-.448-1-1h2c0 .552-.448 1-1 1zm24 0c-.552 0-1-.448-1-1h2c0 .552-.448 1-1 1zm13 28h-3v-26c0-.553-.447-1-1-1h-4c-.553 0-1 .447-1 1v22h-3v-22.184c1.161-.414 2-1.514 2-2.816v-3h10zm4-36c0 1.103-.897 2-2 2h-14v1 1 1h-2v-6c0-.334-.167-.646-.445-.832l-3-2c-.306-.204-.702-.224-1.026-.05-.326.174-.529.513-.529.882v25c0 .552-.448 1-1 1h-1c-.552 0-1-.448-1-1v-10c0-.553-.447-1-1-1h-4c-.553 0-1 .447-1 1v24h-3v-39c0-.369-.203-.708-.528-.882-.324-.174-.72-.154-1.026.05l-3 2c-.279.186-.446.498-.446.832v6h-2v-8.465l7.723-5.148.258.387c.929 1.394 2.484 2.226 4.16 2.226h1.719c1.676 0 3.23-.832 4.16-2.227l.258-.387 7.722 5.149v1.465 1 1h12c.553 0 1-.447 1-1v-6h-2v5h-9v-2c0-.334-.167-.646-.445-.832l-1.985-1.323 1.138-1.138-1.414-1.414-1.42 1.42-2.503-1.669 2.166-2.166c.565-.566 1.318-.878 2.12-.878h.808l.516.773c.929 1.395 2.484 2.227 4.16 2.227h1.719c1.676 0 3.23-.832 4.16-2.227l.515-.773h1.465c1.654 0 3 1.346 3 3z"/></g></svg>