<svg xmlns="http://www.w3.org/2000/svg" viewBox="0 0 64 64" id="clinic">
  <path d="M56,27c.54999,0,1-.45001,1-1v-4c0-.54999-.45001-1-1-1h-9v-4h2c.54999,0,1-.45001,1-1v-8c0-.54999-.45001-1-1-1h-23c-.54999,0-1,.45001-1,1s.45001,1,1,1h22v6H16v-6h6c.54999,0,1-.45001,1-1s-.45001-1-1-1h-7c-.54999,0-1,.45001-1,1v8c0,.54999.45001,1,1,1h2v4h-9c-.54999,0-1,.45001-1,1v4c0,.54999.45001,1,1,1h1v24h-1c-.54999,0-1,.45001-1,1v4c0,.54999.45001,1,1,1h35c.54999,0,1-.45001,1-1s-.45001-1-1-1H9v-2h46v2h-8c-.54999,0-1,.45001-1,1s.45001,1,1,1h9c.54999,0,1-.45001,1-1v-4c0-.54999-.45001-1-1-1h-1v-24h1ZM17,51h-6v-3h3c.54999,0,1-.45001,1-1v-16c0-.54999-.45001-1-1-1h-3v-3h6v24ZM11,46v-14h2v14h-2ZM17,25h-8v-2h8v2ZM31,51h-6v-10h6v10ZM39,51h-6v-10h6v10ZM45,51h-4v-11c0-.54999-.45001-1-1-1h-16c-.54999,0-1,.45001-1,1v11h-4V17h26v34ZM53,46h-2v-14h2v14ZM53,30h-3c-.54999,0-1,.45001-1,1v16c0,.54999.45001,1,1,1h3v3h-6v-24h6v3ZM47,25v-2h8v2h-8Z"></path>
  <path d="M26 29h3v3c0 .55225.44775 1 1 1h4c.55225 0 1-.44775 1-1v-3h3c.55225 0 1-.44775 1-1v-4c0-.55225-.44775-1-1-1h-3v-3c0-.55225-.44775-1-1-1h-4c-.55225 0-1 .44775-1 1v3h-3c-.55225 0-1 .44775-1 1v4c0 .55225.44775 1 1 1zM27 25h3c.55225 0 1-.44775 1-1v-3h2v3c0 .55225.44775 1 1 1h3v2h-3c-.55225 0-1 .44775-1 1v3h-2v-3c0-.55225-.44775-1-1-1h-3v-2zM22 37h4c.55225 0 1-.44775 1-1s-.44775-1-1-1h-4c-.55225 0-1 .44775-1 1s.44775 1 1 1zM34 35h-4c-.55225 0-1 .44775-1 1s.44775 1 1 1h4c.55225 0 1-.44775 1-1s-.44775-1-1-1zM37 36c0 .55225.44775 1 1 1h4c.55225 0 1-.44775 1-1s-.44775-1-1-1h-4c-.55225 0-1 .44775-1 1z"></path>
</svg>
