<svg height="512" viewBox="0 0 128 128" width="512" xmlns="http://www.w3.org/2000/svg"><g><path d="m77.31 48.307h7.875v7.875a1.751 1.751 0 0 0 1.75 1.75h8.565a1.75 1.75 0 0 0 1.75-1.75v-7.875h7.876a1.75 1.75 0 0 0 1.75-1.75v-8.568a1.749 1.749 0 0 0 -1.75-1.75h-7.873v-7.876a1.75 1.75 0 0 0 -1.75-1.75h-8.568a1.751 1.751 0 0 0 -1.75 1.75v7.876h-7.875a1.75 1.75 0 0 0 -1.75 1.75v8.568a1.751 1.751 0 0 0 1.75 1.75zm1.75-8.568h7.875a1.749 1.749 0 0 0 1.75-1.75v-7.876h5.068v7.876a1.749 1.749 0 0 0 1.75 1.75h7.876v5.068h-7.879a1.749 1.749 0 0 0 -1.75 1.75v7.875h-5.065v-7.875a1.749 1.749 0 0 0 -1.75-1.75h-7.875z"/><path d="m54.875 34.478a14.023 14.023 0 1 0 -14.023-14.024 14.039 14.039 0 0 0 14.023 14.024zm0-24.546a10.523 10.523 0 1 1 -10.523 10.522 10.534 10.534 0 0 1 10.523-10.522z"/><path d="m102.454 66.432h-23.671a7.722 7.722 0 0 0 .225-2.864 7.617 7.617 0 0 0 -2.8-5.154l-21.634-18.961a1.93 1.93 0 0 0 -.187-.143 11.742 11.742 0 0 0 -18.93 5.974l-5.576 21.148h-4.336a6.75 6.75 0 0 0 0 13.5h6.306a26.786 26.786 0 0 1 -.5 6.105l-10.2 34.142a1.75 1.75 0 0 0 1.677 2.251h22.912a1.75 1.75 0 0 0 1.75-1.75 8.7 8.7 0 0 0 -7.067-8.548l2.79-9.061 6.663 18.2a1.753 1.753 0 0 0 1.644 1.148h18.14a1.751 1.751 0 0 0 1.75-1.75 8.681 8.681 0 0 0 -8.69-8.69h-.443l-12.036-31.705.106-.342h31.813v5.248a1.749 1.749 0 0 0 1.75 1.75h.48v12.957h-.844a1.749 1.749 0 0 0 -1.75 1.75v10.319a1.733 1.733 0 0 0 -1.486 1.331l-1.563 7a1.751 1.751 0 0 0 1.708 2.131h18.363a1.751 1.751 0 0 0 1.708-2.132l-1.563-7a1.734 1.734 0 0 0 -1.486-1.33v-10.319a1.749 1.749 0 0 0 -1.75-1.75h-.837v-12.957h.47a1.749 1.749 0 0 0 1.75-1.75v-5.248h5.344a6.75 6.75 0 0 0 0-13.5zm-63.612-20.255a8.239 8.239 0 0 1 13.408-4.086 1.75 1.75 0 0 0 .185.142l21.525 18.867a4.228 4.228 0 0 1 1.076 5.332h-8.189l-11.624-8.372a1.751 1.751 0 0 0 -2.715.973l-1.956 7.4h-17.052zm22.017 20.255h-6.687l1.07-4.045zm-24.167 48.338a1.75 1.75 0 0 0 1.408.71 5.518 5.518 0 0 1 4.363 1.52 5.186 5.186 0 0 1 1.226 1.933h-18.52l9.558-31.979a1.672 1.672 0 0 0 .042-.176 30.39 30.39 0 0 0 .588-6.843h11.329v.008l-5.286 17.122c-.009.03-.018.062-.025.093l-4.944 16.058a1.747 1.747 0 0 0 .261 1.554zm24.378.71c.9.113 3.3-.5 5.318 1.512a5.256 5.256 0 0 1 1.22 1.928h-14.865l-7.829-21.382 3.647-11.825 10.873 28.639a1.75 1.75 0 0 0 1.636 1.128zm32.907-12.093v8.531h-8.677v-8.531zm-11.338 15.531.781-3.5h12.432l.783 3.5zm8.751-19.031h-3.5v-12.957h3.5zm2.22-16.457h-7.95v-3.5h7.95zm8.844-7h-76.909a3.25 3.25 0 0 1 0-6.5h76.909a3.25 3.25 0 0 1 0 6.5z"/></g></svg>