<svg id="SvgjsSvg1251" width="288" height="288" xmlns="http://www.w3.org/2000/svg" version="1.1" xmlns:xlink="http://www.w3.org/1999/xlink" xmlns:svgjs="http://svgjs.com/svgjs"><defs id="SvgjsDefs1252"></defs><g id="SvgjsG1253"><svg xmlns="http://www.w3.org/2000/svg" fill-rule="evenodd" clip-rule="evenodd" image-rendering="optimizeQuality" shape-rendering="geometricPrecision" text-rendering="geometricPrecision" viewBox="0 0 87.654 87.654" width="288" height="288"><path fill-rule="nonzero" d="M83.084 2.258l-36.612 0c-0.692,0 -1.322,0.285 -1.779,0.742 -0.458,0.457 -0.742,1.087 -0.742,1.779l-0.004 0 0.004 37.49 0.004 0c0,0.65 0.248,1.244 0.654,1.691 0.413,0.455 0.985,0.76 1.622,0.822 0.689,0.066 1.293,0.385 1.724,0.86 0.434,0.478 0.696,1.11 0.696,1.798l0 5.431c0,0.144 0.038,0.27 0.106,0.367 0.069,0.1 0.174,0.179 0.304,0.227 0.132,0.048 0.266,0.054 0.387,0.022 0.116,-0.031 0.227,-0.102 0.318,-0.21l6.358 -7.537c0.019,-0.022 0.038,-0.043 0.059,-0.064 0.249,-0.278 0.536,-0.492 0.856,-0.641 0.349,-0.162 0.727,-0.245 1.126,-0.245l24.923 0c0.692,0 1.322,-0.284 1.78,-0.741 0.457,-0.458 0.741,-1.088 0.741,-1.78l0.004 0 -0.004 -37.49c0,-0.689 -0.286,-1.32 -0.745,-1.78 -0.458,-0.457 -1.087,-0.741 -1.78,-0.741zm-36.612 -2.044l36.612 0c1.257,0 2.398,0.513 3.225,1.34 0.825,0.824 1.336,1.966 1.337,3.225l0.003 37.49 0.005 0c0,1.257 -0.514,2.398 -1.341,3.225 -0.827,0.827 -1.969,1.341 -3.225,1.341l-24.923 0c-0.104,0 -0.196,0.018 -0.271,0.053 -0.066,0.031 -0.128,0.075 -0.182,0.132l-0.031 0.038 -6.358 7.537c-0.365,0.433 -0.838,0.727 -1.356,0.865 -0.515,0.137 -1.069,0.116 -1.601,-0.078 -0.533,-0.195 -0.971,-0.539 -1.278,-0.978 -0.309,-0.441 -0.482,-0.97 -0.482,-1.533l0 -5.431c0,-0.165 -0.06,-0.314 -0.16,-0.425 -0.103,-0.113 -0.246,-0.19 -0.407,-0.205 -1.162,-0.112 -2.198,-0.66 -2.939,-1.477 -0.738,-0.812 -1.19,-1.889 -1.19,-3.064l0.004 0 -0.003 -37.49 -0.004 0c0,-1.256 0.513,-2.398 1.34,-3.225 0.827,-0.827 1.969,-1.34 3.225,-1.34zm18.308 6.983c4.307,0 8.208,1.746 11.031,4.569 2.822,2.823 4.569,6.723 4.569,11.03 0,4.308 -1.747,8.208 -4.569,11.031 -2.823,2.823 -6.724,4.569 -11.031,4.569 -4.307,0 -8.208,-1.746 -11.03,-4.569 -2.824,-2.823 -4.57,-6.723 -4.57,-11.031 0,-4.307 1.746,-8.207 4.57,-11.03 2.822,-2.823 6.723,-4.569 11.03,-4.569zm9.585 6.015c-2.453,-2.453 -5.842,-3.971 -9.585,-3.971 -3.743,0 -7.132,1.518 -9.585,3.971 -2.453,2.452 -3.97,5.841 -3.97,9.584 0,3.744 1.517,7.133 3.97,9.585 2.453,2.453 5.842,3.971 9.585,3.971 3.743,0 7.132,-1.518 9.585,-3.971 2.453,-2.452 3.97,-5.841 3.97,-9.585 0,-3.743 -1.517,-7.132 -3.97,-9.584z" fill="#dc2626" class="svgShape color000000-0 selectable"></path><path fill-rule="nonzero" d="m62.92 12.378 3.72 0c.418 0 .798.17 1.073.445.031.031.059.063.085.096.224.265.36.606.36.977l0 5.425 5.424 0c.416 0 .794.17 1.069.445.277.276.45.656.45 1.072l0 3.72c0 .418-.171.799-.446 1.073-.03.031-.062.059-.096.085-.264.224-.606.36-.977.36l-5.424 0 0 5.425c0 .418-.17.798-.445 1.073-.275.274-.655.445-1.073.445l-3.72 0c-.416 0-.796-.173-1.072-.449-.275-.275-.445-.654-.445-1.069l0-5.425-5.425 0c-.418 0-.799-.17-1.073-.445-.275-.274-.445-.654-.445-1.073l0-3.72c0-.416.172-.796.449-1.072.275-.274.653-.445 1.069-.445l5.425 0 0-5.425c0-.415.17-.794.445-1.069.276-.277.656-.449 1.072-.449zm3.194 2.044-2.667 0 0 5.921c0 .565-.457 1.022-1.022 1.022l-5.921 0 0 2.667 5.921 0c.565 0 1.022.458 1.022 1.022l0 5.92 2.667 0 0-5.92c0-.564.457-1.022 1.022-1.022l5.92 0 0-2.667-5.92 0c-.565 0-1.022-.457-1.022-1.022l0-5.921zM44.837 71.902c.444-2.899.596-5.509.453-7.83-.149-2.429-.618-4.534-1.409-6.314-.151-.343.004-.743.346-.895.343-.151.743.004.895.346.858 1.934 1.367 4.195 1.526 6.784.145 2.368-.002 5.016-.442 7.945.226.049.445.117.655.204.452.187.857.456 1.196.787l.03.029c.344.345.623.76.813 1.221.185.447.286.933.286 1.438 0 .506-.101.992-.286 1.438-.19.462-.469.877-.813 1.222l-.003.002c-.345.345-.76.623-1.221.814-.447.184-.933.286-1.438.286-.506 0-.992-.102-1.438-.286-.456-.188-.866-.462-1.208-.8l-.003-.003c-.015-.014-.03-.029-.043-.045-.329-.337-.597-.741-.783-1.191-.185-.446-.287-.932-.287-1.437 0-.505.102-.99.287-1.436.183-.444.449-.844.777-1.183l.038-.041c.344-.344.759-.623 1.223-.815.27-.112.555-.193.849-.24zm2.327 2.056-.042-.038-.001.001c-.223-.224-.487-.403-.776-.522-.28-.116-.591-.18-.92-.18-.33 0-.64.064-.92.18-.289.119-.553.298-.777.522l-.032.03c-.207.215-.375.468-.49.746-.116.28-.18.591-.18.92 0 .33.064.64.18.92.12.29.298.553.522.777.017.016.032.034.047.051.211.199.458.36.728.472.28.115.591.179.922.179.33 0 .641-.064.921-.179.293-.121.557-.299.778-.52.221-.222.399-.486.52-.778.115-.28.179-.591.179-.922 0-.33-.064-.641-.179-.921-.114-.275-.278-.525-.48-.738zM13.365 82.093c-.295.32-.402.327-.359.074-.353-.094-.258-.925.704-2.6-.367-.095-.694-.296-.952-.569-.358-.379-.579-.899-.579-1.47 0-.571.221-1.092.579-1.471.368-.39.879-.632 1.443-.632.222 0 .436.038.637.107.196.068.38.168.548.294l.047.037c.298.255.489.529.607.801.038-.081.07-.163.098-.248.063-.199.099-.41.108-.629.038-.931.101-2.561.144-4.022.028-.99.048-1.914.046-2.516-.002-.41-.084-.888-.262-1.375-.156-.427-.386-.855-.698-1.239-.298-.367-.917-.728-1.655-1.018-.802-.316-1.716-.531-2.509-.575-.762.044-1.64.258-2.412.572-.71.289-1.305.647-1.589 1.01-.302.384-.524.814-.676 1.245-.173.489-.253.969-.255 1.38-.002.602.017 1.526.045 2.517.041 1.461.102 3.09.139 4.021.008.221.044.434.106.637.021.066.044.131.071.194.115-.254.294-.508.562-.747l.028-.023-.001-.001c.168-.134.355-.24.556-.312l.04-.013c.188-.063.386-.097.59-.097.558 0 1.059.245 1.42.64.345.378.558.896.558 1.463 0 .567-.213 1.084-.558 1.462-.252.276-.572.478-.932.575 1.148 2.034 1.274 2.996.883 3.058.041.25-.064.234-.354-.103-.641-.37-1.729-1.701-2.666-3.79-.182-.108-.35-.23-.504-.364-.225-.197-.417-.418-.575-.658-.181-.273-.32-.571-.417-.885-.097-.314-.152-.644-.165-.982-.036-.916-.097-2.534-.139-4.038-.027-.995-.047-1.93-.045-2.557l0-.003c.003-.557.107-1.195.33-1.827.196-.556.488-1.118.888-1.628.441-.561 1.238-1.065 2.149-1.435.696-.284 1.474-.498 2.215-.604-.016-.653.002-1.361.077-2.101.102-1.007.307-2.066.669-3.118.06-.172.123-.343.19-.512l.001 0c.061-.156.132-.323.211-.502.153-.342.555-.496.897-.343.343.152.497.554.344.897-.061.136-.123.284-.186.445l0 .003c-.06.152-.116.304-.168.454-.329.955-.514 1.908-.606 2.809-.069.687-.085 1.347-.069 1.958.783.103 1.613.32 2.353.611.939.369 1.761.87 2.213 1.428.414.51.717 1.073.922 1.633.232.634.339 1.274.342 1.832l0 .003c.002.627-.018 1.562-.047 2.557-.043 1.504-.106 3.122-.143 4.038-.014.34-.071.673-.173.99-.101.315-.244.612-.431.885-.165.242-.363.463-.594.658-.162.136-.337.259-.527.367-.88 1.879-1.901 3.043-2.514 3.352zm1.304-4.043.088-.128c.059-.148.221-.648-.198-1.017-.048-.035-.103-.064-.163-.084-.061-.021-.126-.033-.195-.033-.176 0-.336.077-.453.201-.127.135-.206.325-.206.539 0 .213.079.404.206.539.117.123.277.2.453.2.116 0 .222-.032.313-.087.057-.034.11-.078.155-.13zm-6.668-.125.088.136c.043.049.092.091.145.125.082.051.179.081.282.081.159 0 .305-.074.414-.192.124-.136.201-.33.201-.547 0-.218-.077-.411-.201-.547-.109-.119-.255-.193-.414-.193-.054 0-.105.008-.153.023l-.019.007c-.059.021-.114.052-.163.09-.388.368-.239.861-.18 1.017z" fill="#dc2626" class="svgShape color000000-1 selectable"></path><path fill-rule="nonzero" d="M49.661 58.147l0.514 0.126c2.043,0.498 3.016,0.736 3.793,1.317 0.451,0.336 0.802,0.762 1.14,1.455 0.299,0.616 0.589,1.46 0.945,2.692 0.225,0.776 0.453,4.002 0.697,7.458 0.27,3.812 0.56,7.911 0.847,9.069 0.162,0.645 0.186,1.282 0.076,1.901 -0.111,0.618 -0.355,1.208 -0.731,1.759 -0.376,0.552 -0.836,0.995 -1.371,1.323 -0.53,0.326 -1.132,0.535 -1.796,0.621 -8.297,1.079 -16.595,1.589 -24.895,1.572 -8.311,-0.019 -16.607,-0.564 -24.89,-1.596 -0.664,-0.082 -1.27,-0.29 -1.808,-0.618 -0.536,-0.326 -0.999,-0.769 -1.378,-1.322 -0.378,-0.55 -0.623,-1.142 -0.735,-1.762 -0.112,-0.62 -0.088,-1.26 0.074,-1.908l0.006 -0.022c0.284,-1.181 0.57,-5.245 0.837,-9.027 0.243,-3.452 0.47,-6.675 0.693,-7.447 0.356,-1.231 0.647,-2.075 0.946,-2.69 0.335,-0.69 0.686,-1.115 1.138,-1.454l0.003 -0.002c0.781,-0.581 1.753,-0.819 3.797,-1.319l0.77 -0.186 0 -0.003c0.93,-0.221 3.84,-0.913 4.858,-1.293l0.045 -0.016c0.538,-0.16 1.059,-0.322 1.542,-0.484 0.493,-0.165 0.952,-0.329 1.357,-0.491 0.884,-0.351 1.559,-0.699 2.111,-1.046 0.546,-0.344 0.971,-0.687 1.359,-1.03l0.017 -0.015c0.145,-0.123 0.317,-0.199 0.498,-0.224 0.19,-0.026 0.385,0.004 0.562,0.093l0.051 0.028c0.151,0.086 0.273,0.207 0.358,0.353 0.097,0.164 0.144,0.353 0.133,0.549l0 0.002c-0.085,1.389 -0.165,2.755 -0.213,3.973 -0.05,1.236 -0.07,2.363 -0.037,3.286 0.034,0.97 0.129,1.712 0.328,2.426 0.199,0.715 0.51,1.424 0.978,2.328 0.028,0.055 0.048,0.112 0.061,0.171l2.465 11.491 0.299 -8.918c0.002,-0.065 0.013,-0.127 0.031,-0.185l1.115 -4.076c0.011,-0.039 0.024,-0.077 0.041,-0.112l0.096 -0.223 -0.002 -0.001c0.035,-0.08 -0.06,-0.275 -0.163,-0.484 -0.285,-0.634 -0.612,-1.271 -0.914,-1.899 -0.114,-0.236 -0.228,-0.514 -0.26,-0.799 -0.05,-0.443 0.07,-0.849 0.526,-1.12l0.047 -0.025 0.997 -0.594 -4.062 -3.119c-0.334,-0.263 -0.594,-0.58 -0.771,-0.94 -0.183,-0.371 -0.278,-0.78 -0.278,-1.215l0 -2.591 -0.172 -0.181c-0.46,-0.481 -0.814,-1.002 -1.063,-1.57 -0.25,-0.569 -0.396,-1.182 -0.44,-1.846l-0.103 -1.534c-0.048,-0.019 -0.098,-0.04 -0.147,-0.061 -0.223,-0.098 -0.441,-0.22 -0.635,-0.378 -0.182,-0.148 -0.334,-0.321 -0.474,-0.552 -0.126,-0.206 -0.234,-0.444 -0.34,-0.743l-0.018 -0.056c-0.099,-0.281 -0.195,-0.595 -0.281,-0.913 -0.099,-0.361 -0.195,-0.76 -0.277,-1.147 -0.08,-0.371 -0.143,-0.713 -0.191,-1.028 -0.05,-0.331 -0.086,-0.645 -0.109,-0.942l-0.001 -0.018c-0.021,-0.289 -0.029,-0.563 -0.014,-0.824 0.017,-0.295 0.063,-0.566 0.149,-0.809 0.095,-0.264 0.259,-0.502 0.444,-0.69 0.187,-0.191 0.41,-0.34 0.615,-0.423l-0.258 -3.638c-0.106,-1.092 -0.027,-2.445 0.303,-3.668 0.29,-1.072 0.775,-2.062 1.5,-2.734 0.252,-0.234 0.718,-0.415 1.153,-0.505l0.086 -0.016c0.001,-0.042 0.003,-0.084 0.007,-0.127 0.029,-0.345 0.152,-0.711 0.421,-1.077l0.036 -0.045c0.272,-0.364 0.722,-0.914 1.249,-1.397 0.4,-0.367 0.847,-0.7 1.308,-0.904 0.768,-0.341 1.587,-0.642 2.429,-0.838 0.86,-0.201 1.744,-0.293 2.626,-0.208 0.919,0.088 1.821,0.317 2.686,0.644 0.961,0.363 1.878,0.847 2.723,1.391 0.663,0.427 1.278,0.954 1.82,1.552 0.542,0.598 1.007,1.263 1.369,1.964 0.388,0.753 0.64,1.532 0.814,2.344 0.17,0.796 0.264,1.612 0.338,2.462l0.001 0.018c0.068,0.795 0.075,1.672 0.039,2.561 -0.031,0.761 -0.094,1.522 -0.18,2.238 0.242,0.092 0.478,0.224 0.688,0.416 0.218,0.199 0.398,0.456 0.512,0.786l0.001 0.003 0.002 0c0.096,0.283 0.138,0.616 0.147,0.972l0 0.005c0.007,0.333 -0.011,0.665 -0.039,0.987 -0.002,0.021 -0.005,0.042 -0.009,0.063 -0.028,0.309 -0.065,0.617 -0.112,0.923 -0.052,0.335 -0.117,0.668 -0.197,0.999l-0.007 0.027c-0.077,0.318 -0.166,0.628 -0.257,0.913 -0.106,0.331 -0.216,0.632 -0.318,0.875 -0.109,0.261 -0.215,0.475 -0.337,0.664 -0.137,0.211 -0.285,0.379 -0.462,0.523l-0.043 0.033c-0.16,0.123 -0.34,0.227 -0.539,0.318 -0.132,0.061 -0.267,0.114 -0.405,0.162l-0.093 1.442c-0.042,0.64 -0.179,1.233 -0.414,1.786l-0.017 0.037c-0.198,0.457 -0.464,0.885 -0.797,1.285l0 3.069c0,0.435 -0.095,0.844 -0.278,1.215 -0.181,0.367 -0.449,0.69 -0.798,0.958l-0.001 0.001 0.001 0.001 -4.132 3.172 0.921 0.548c0.463,0.276 0.575,0.681 0.52,1.123 -0.035,0.28 -0.142,0.539 -0.24,0.767l-0.027 0.054c-0.058,0.135 -0.696,1.605 -0.695,1.606l-0.079 0.175c-0.086,0.188 -0.165,0.36 -0.139,0.422l0.173 0.398c0.013,0.03 0.023,0.061 0.031,0.091l1.123 4.104c0.015,0.053 0.022,0.105 0.024,0.157l0.298 8.916 2.465 -11.491c0.015,-0.071 0.041,-0.137 0.075,-0.197 0.46,-0.89 0.767,-1.593 0.964,-2.301 0.199,-0.714 0.294,-1.456 0.329,-2.426 0.032,-0.923 0.012,-2.049 -0.038,-3.285 -0.048,-1.216 -0.128,-2.582 -0.213,-3.971 -0.012,-0.199 0.035,-0.391 0.132,-0.556 0.013,-0.022 0.027,-0.043 0.043,-0.063 0.095,-0.136 0.223,-0.247 0.378,-0.321 0.02,-0.01 0.041,-0.018 0.062,-0.026 0.158,-0.063 0.326,-0.083 0.49,-0.06l0.003 0c0.184,0.025 0.361,0.104 0.511,0.237 0.388,0.343 0.813,0.687 1.359,1.031 0.551,0.347 1.226,0.696 2.109,1.046l0.001 -0.002c0.343,0.136 0.668,0.256 0.975,0.363 0.335,0.116 0.731,0.245 1.172,0.383 0.929,0.291 1.927,0.573 2.934,0.843 1.055,0.282 2.056,0.534 2.983,0.761zm0.195 1.446l-0.515 -0.125c-1.007,-0.247 -2.043,-0.508 -3.014,-0.767 -1.018,-0.273 -2.033,-0.56 -2.988,-0.859 -0.383,-0.119 -0.786,-0.252 -1.209,-0.399 -0.402,-0.14 -0.751,-0.267 -1.033,-0.379l0 -0.002c-0.975,-0.387 -1.722,-0.774 -2.334,-1.159 -0.312,-0.197 -0.589,-0.393 -0.843,-0.59 0.063,1.062 0.12,2.109 0.16,3.115 0.05,1.265 0.071,2.425 0.037,3.387 -0.038,1.081 -0.147,1.918 -0.376,2.74 -0.222,0.798 -0.552,1.563 -1.037,2.507l-3.606 16.808 -0.001 0c-0.063,0.299 -0.324,0.528 -0.643,0.538 -0.375,0.012 -0.689,-0.283 -0.701,-0.658l-0.479 -14.362 -1.089 -3.981 -0.152 -0.353c-0.268,-0.618 -0.068,-1.052 0.149,-1.524l0.069 -0.154 0.001 0 0.694 -1.602 0.02 -0.053c0.042,-0.096 0.086,-0.199 0.113,-0.285l-1.572 -0.935c-0.091,-0.045 -0.173,-0.111 -0.239,-0.197 -0.228,-0.299 -0.17,-0.725 0.128,-0.953l4.928 -3.782 0.001 0.001c0.176,-0.135 0.312,-0.298 0.402,-0.482 0.089,-0.179 0.134,-0.386 0.134,-0.614l0 -3.319 0.004 0c0,-0.164 0.058,-0.328 0.178,-0.458 0.315,-0.345 0.559,-0.715 0.732,-1.113l0.013 -0.033c0.174,-0.41 0.275,-0.855 0.307,-1.339l0.123 -1.893c0.008,-0.298 0.212,-0.566 0.515,-0.641 0.065,-0.017 0.133,-0.034 0.197,-0.055 0.179,-0.054 0.335,-0.109 0.457,-0.165 0.1,-0.046 0.189,-0.096 0.264,-0.153l0.02 -0.017c0.07,-0.057 0.129,-0.125 0.184,-0.21 0.07,-0.107 0.141,-0.253 0.22,-0.444 0.094,-0.223 0.191,-0.488 0.281,-0.769 0.086,-0.267 0.166,-0.546 0.232,-0.817l0.006 -0.028c0.072,-0.299 0.13,-0.595 0.175,-0.887 0.044,-0.28 0.077,-0.56 0.103,-0.838l0.002 -0.057c0.026,-0.302 0.044,-0.595 0.039,-0.839l0 -0.004c-0.005,-0.224 -0.028,-0.421 -0.078,-0.568l0.002 0c-0.034,-0.097 -0.084,-0.17 -0.144,-0.224 -0.066,-0.061 -0.156,-0.109 -0.256,-0.146 -0.047,-0.018 -0.099,-0.033 -0.156,-0.046 -0.05,-0.011 -0.1,-0.018 -0.148,-0.022 -0.02,-0.001 -0.041,-0.002 -0.062,-0.005 -0.372,-0.053 -0.63,-0.398 -0.577,-0.77 0.122,-0.857 0.212,-1.795 0.25,-2.72 0.033,-0.817 0.025,-1.636 -0.039,-2.392l-0.002 -0.016c-0.07,-0.811 -0.158,-1.579 -0.311,-2.297 -0.151,-0.702 -0.365,-1.369 -0.692,-2.003 -0.31,-0.602 -0.706,-1.17 -1.166,-1.677 -0.457,-0.504 -0.981,-0.951 -1.548,-1.317 -0.773,-0.497 -1.605,-0.937 -2.468,-1.264 -0.762,-0.288 -1.547,-0.489 -2.335,-0.564 -0.717,-0.069 -1.457,0.01 -2.189,0.182 -0.749,0.175 -1.49,0.447 -2.19,0.758 -0.317,0.14 -0.642,0.385 -0.94,0.658 -0.453,0.415 -0.841,0.89 -1.076,1.205l-0.028 0.041c-0.104,0.142 -0.151,0.271 -0.161,0.385 -0.011,0.136 0.03,0.264 0.087,0.371 0.128,0.237 0.108,0.538 -0.074,0.758 -0.24,0.29 -0.669,0.33 -0.958,0.091 -0.059,-0.049 -0.052,0.106 -0.229,0.142 -0.228,0.048 -0.441,0.112 -0.503,0.17 -0.52,0.483 -0.882,1.244 -1.111,2.089 -0.287,1.065 -0.357,2.238 -0.266,3.184l0.006 0.057 0.275 3.86c0.036,0.055 0.067,0.125 0.091,0.218l-0.002 0.001c0.102,0.394 0,0.691 -0.457,0.833 -0.022,0.009 -0.046,0.016 -0.07,0.022 -0.113,0.029 -0.2,0.029 -0.301,0.028 -0.038,0 -0.086,0 -0.141,0.017 -0.029,0.009 -0.08,0.048 -0.141,0.111 -0.056,0.056 -0.104,0.124 -0.13,0.195 -0.042,0.119 -0.065,0.262 -0.074,0.426 -0.011,0.189 -0.004,0.41 0.014,0.653l0.001 0.013c0.019,0.256 0.052,0.536 0.098,0.841 0.046,0.303 0.104,0.619 0.175,0.948 0.072,0.339 0.163,0.712 0.261,1.072 0.086,0.318 0.171,0.602 0.246,0.816l0.021 0.052c0.081,0.229 0.151,0.389 0.217,0.499 0.052,0.085 0.107,0.148 0.171,0.2 0.089,0.072 0.2,0.133 0.321,0.186 0.135,0.059 0.293,0.111 0.447,0.157 0.265,0.079 0.465,0.315 0.485,0.607l0.133 1.989c0.033,0.502 0.141,0.962 0.327,1.385 0.187,0.425 0.454,0.817 0.803,1.182l0.327 0.343c0.137,0.125 0.223,0.305 0.223,0.504l0 2.862c0,0.228 0.046,0.435 0.134,0.613 0.087,0.177 0.217,0.335 0.388,0.47l4.847 3.721 -0.001 0.001c0.067,0.051 0.125,0.116 0.171,0.193 0.191,0.322 0.085,0.738 -0.237,0.929l-1.747 1.04c0.025,0.078 0.066,0.168 0.107,0.254 0.301,0.623 0.595,1.284 0.915,1.894 0.244,0.5 0.471,0.965 0.189,1.618 -0.006,-0.002 -0.08,0.18 -0.089,0.2l-1.088 3.981 -0.48 14.324c0.008,0.322 -0.213,0.614 -0.539,0.683 -0.368,0.078 -0.729,-0.157 -0.807,-0.524l-3.605 -16.808c-0.485,-0.944 -0.814,-1.709 -1.037,-2.507 -0.229,-0.823 -0.337,-1.66 -0.376,-2.74 -0.034,-0.963 -0.013,-2.122 0.037,-3.388 0.04,-1.006 0.097,-2.053 0.16,-3.114 -0.254,0.196 -0.531,0.392 -0.843,0.589 -0.613,0.385 -1.36,0.771 -2.335,1.158 -0.442,0.176 -0.922,0.35 -1.426,0.518 -0.51,0.17 -1.042,0.336 -1.579,0.496 -1.155,0.423 -4.051,1.112 -4.983,1.334l-0.001 -0.002c-0.255,0.061 -0.509,0.123 -0.763,0.186 -1.86,0.454 -2.746,0.671 -3.308,1.089 -0.274,0.205 -0.496,0.484 -0.726,0.956 -0.266,0.548 -0.533,1.327 -0.866,2.477 -0.179,0.621 -0.402,3.778 -0.64,7.16 -0.27,3.832 -0.56,7.949 -0.872,9.253l-0.008 0.035c-0.116,0.464 -0.134,0.913 -0.058,1.339 0.077,0.425 0.251,0.839 0.522,1.234 0.268,0.392 0.592,0.703 0.963,0.928 0.368,0.225 0.792,0.368 1.265,0.427 8.256,1.029 16.498,1.572 24.725,1.59 8.239,0.018 16.479,-0.489 24.719,-1.56l0.003 0c0.467,-0.061 0.89,-0.208 1.261,-0.435 0.368,-0.226 0.688,-0.537 0.956,-0.93 0.268,-0.393 0.441,-0.806 0.517,-1.232 0.076,-0.423 0.057,-0.869 -0.059,-1.331l0 -0.002c-0.317,-1.274 -0.611,-5.433 -0.884,-9.301 -0.24,-3.389 -0.464,-6.552 -0.644,-7.176 -0.333,-1.151 -0.599,-1.93 -0.866,-2.479 -0.229,-0.47 -0.453,-0.748 -0.729,-0.955 -0.563,-0.42 -1.446,-0.636 -3.298,-1.088z" fill="#000000" class="svgShape color000000-2 selectable"></path><rect width="87.654" height="87.654" fill="none" class="selectable"></rect></svg></g></svg>