<svg width="512" height="512" viewBox="0 0 512 512" fill="none" xmlns="http://www.w3.org/2000/svg">
<path d="M238.559 152.036H211.987V125.464C211.987 119.941 207.509 115.465 201.988 115.465C196.467 115.465 191.989 119.942 191.989 125.464V152.036H165.417C159.895 152.036 155.418 156.513 155.418 162.035C155.418 167.557 159.895 172.034 165.417 172.034H191.989V198.606C191.989 204.129 196.467 208.605 201.988 208.605C207.509 208.605 211.987 204.128 211.987 198.606V172.034H238.559C244.081 172.034 248.558 167.557 248.558 162.035C248.558 156.513 244.081 152.036 238.559 152.036Z" fill="#DC2626"/>
<path d="M201.987 74.043C153.467 74.043 113.992 113.518 113.992 162.038C113.992 210.558 153.467 250.033 201.987 250.033C250.507 250.033 289.982 210.558 289.982 162.038C289.982 113.518 250.507 74.043 201.987 74.043ZM201.987 230.033C164.494 230.033 133.991 199.53 133.991 162.037C133.991 124.544 164.494 94.041 201.987 94.041C239.48 94.041 269.983 124.544 269.983 162.037C269.983 199.53 239.48 230.033 201.987 230.033Z" fill="#DC2626"/>
<path d="M401.046 91.9396L312.052 2.94462C310.176 1.06962 307.633 0.015625 304.981 0.015625H29.998C13.457 0.015625 0 13.4736 0 30.0146V481.989C0 498.53 13.457 511.987 29.998 511.987H221.007C226.529 511.987 231.006 507.509 231.006 501.988C231.006 496.467 226.528 491.989 221.007 491.989H29.998C24.484 491.989 19.999 487.503 19.999 481.99V30.0146C19.999 24.5006 24.485 20.0156 29.998 20.0156H294.981V79.0116C294.981 95.5526 308.438 109.01 324.979 109.01H383.975V286.999C383.975 292.521 388.453 296.998 393.974 296.998C399.495 296.998 403.973 292.52 403.973 286.999V99.0096C403.975 96.3576 402.921 93.8146 401.046 91.9396ZM324.98 89.0106C319.466 89.0106 314.981 84.5246 314.981 79.0116V34.1566L369.836 89.0106H324.98Z" fill="black"/>
<path d="M329.979 279.996H156.323C150.801 279.996 146.324 284.474 146.324 289.995C146.324 295.516 150.802 299.994 156.323 299.994H329.979C335.501 299.994 339.978 295.517 339.978 289.995C339.979 284.474 335.501 279.996 329.979 279.996Z" fill="black"/>
<path d="M106.577 279.996H73.9951C68.4731 279.996 63.9961 284.474 63.9961 289.995C63.9961 295.516 68.4741 299.994 73.9951 299.994H106.577C112.099 299.994 116.576 295.516 116.576 289.995C116.576 284.474 112.099 279.996 106.577 279.996Z" fill="black"/>
<path d="M255.984 335.992H156.323C150.801 335.992 146.324 340.47 146.324 345.991C146.324 351.512 150.802 355.99 156.323 355.99H255.984C261.506 355.99 265.983 351.513 265.983 345.991C265.983 340.47 261.506 335.992 255.984 335.992Z" fill="black"/>
<path d="M106.577 335.992H73.9951C68.4731 335.992 63.9961 340.47 63.9961 345.991C63.9961 351.512 68.4741 355.99 73.9951 355.99H106.577C112.099 355.99 116.576 351.512 116.576 345.991C116.576 340.47 112.099 335.992 106.577 335.992Z" fill="black"/>
<path d="M163.389 394.922C161.53 393.062 158.959 391.992 156.32 391.992C153.69 391.992 151.12 393.061 149.25 394.922C147.39 396.782 146.32 399.362 146.32 401.992C146.32 404.622 147.389 407.202 149.25 409.061C151.11 410.921 153.69 411.992 156.32 411.992C158.96 411.992 161.53 410.922 163.389 409.061C165.259 407.202 166.32 404.622 166.32 401.992C166.32 399.362 165.259 396.782 163.389 394.922Z" fill="black"/>
<path d="M106.577 391.992H73.9951C68.4731 391.992 63.9961 396.47 63.9961 401.991C63.9961 407.513 68.4741 411.99 73.9951 411.99H106.577C112.099 411.99 116.576 407.512 116.576 401.991C116.577 396.47 112.099 391.992 106.577 391.992Z" fill="black"/>
<path d="M450.002 387.989C447.067 387.989 444.183 388.208 441.357 388.605C447.658 367.471 442.482 343.617 425.826 326.959C414.116 315.25 398.548 308.801 381.988 308.801C365.427 308.801 349.859 315.25 338.15 326.959L258.959 406.149C247.25 417.859 240.801 433.427 240.801 449.987C240.801 466.548 247.25 482.116 258.959 493.825C271.047 505.912 286.919 511.954 302.797 511.954C318.671 511.954 334.55 505.909 346.635 493.825L388.067 452.393C389.338 485.466 416.625 511.983 450.003 511.983C484.189 511.983 512 484.172 512 449.986C512 415.8 484.188 387.989 450.002 387.989ZM332.492 479.684C316.118 496.06 289.474 496.06 273.1 479.684C265.167 471.752 260.799 461.206 260.799 449.988C260.799 438.77 265.167 428.223 273.1 420.292L305.625 387.767L365.017 447.16L332.492 479.684ZM379.157 433.018L319.765 373.625L352.29 341.101C360.223 333.168 370.768 328.8 381.986 328.8C393.204 328.8 403.751 333.168 411.682 341.101C428.057 357.475 428.057 384.119 411.682 400.493L379.157 433.018ZM440.003 490.773C421.659 486.273 408.004 469.698 408.004 449.987C408.004 430.275 421.658 413.7 440.003 409.202V490.773ZM460.001 490.773V409.201C478.346 413.7 492 430.275 492 449.986C492 469.697 478.346 486.273 460.001 490.773Z" fill="#DC2626"/>
</svg>
