<svg id="SvgjsSvg1001" width="288" height="288" xmlns="http://www.w3.org/2000/svg" version="1.1" xmlns:xlink="http://www.w3.org/1999/xlink" xmlns:svgjs="http://svgjs.com/svgjs"><defs id="SvgjsDefs1002"></defs><g id="SvgjsG1008"><svg xmlns="http://www.w3.org/2000/svg" viewBox="0 0 64 64" width="288" height="288"><path d="M52 11a3 3 0 10-3-3A3 3 0 0052 11zm0-4a1 1 0 11-1 1A1 1 0 0152 7zM44 11a3 3 0 10-3-3A3 3 0 0044 11zm0-4a1 1 0 11-1 1A1 1 0 0144 7zM36 11a3 3 0 10-3-3A3 3 0 0036 11zm0-4a1 1 0 11-1 1A1 1 0 0136 7z" fill="#dc2626" class="svgShape color000000-0 selectable"></path><polygon points="26 31 24 31 24 29 22 29 22 31 20 31 20 33 22 33 22 35 24 35 24 33 26 33 26 31" fill="#dc2626" class="svgShape color000000-1 selectable"></polygon><path d="M59,39.1V5a4,4,0,0,0-4-4H5A4,4,0,0,0,1,5V55a4,4,0,0,0,4,4H29.1A5.009,5.009,0,0,0,34,63H58a5.006,5.006,0,0,0,5-5V44A5.009,5.009,0,0,0,59,39.1ZM5,3H55a2,2,0,0,1,2,2v8H3V5A2,2,0,0,1,5,3ZM3,55V15H57V39H40V37a1,1,0,0,0-1-1H35.36l3.731-3.719a3.088,3.088,0,0,0,0-4.376,3.109,3.109,0,0,0-4.382,0L32,30.605V27a1,1,0,0,0-.293-.707L30,24.586V24h1a1,1,0,0,0,1-1V19a1,1,0,0,0-1-1H15a1,1,0,0,0-1,1v4a1,1,0,0,0,1,1h1v.586l-1.707,1.707A1,1,0,0,0,14,27v3.605l-2.709-2.7a3.109,3.109,0,0,0-4.382,0,3.088,3.088,0,0,0,0,4.376L10.64,36H7a1,1,0,0,0-1,1v4a1,1,0,0,0,1,1H8.28l3.772,11.316A1,1,0,0,0,13,54H29v3H5A2,2,0,0,1,3,55ZM13.473,36,8.321,30.865a1.089,1.089,0,0,1,0-1.544,1.109,1.109,0,0,1,1.558,0L16.58,36ZM16,22V20H30v2Zm2,3V24H28v1a1,1,0,0,0,.293.707l.293.293H17.414l.293-.293A1,1,0,0,0,18,25Zm1.413,11L16,32.6V28H30v4.6L26.587,36Zm16.708-6.679a1.109,1.109,0,0,1,1.558,0,1.089,1.089,0,0,1,0,1.544L32.527,36H29.42ZM11.721,46h4.1l.333,2H12.387Zm4.765,4,.334,2h-3.1l-.667-2Zm2.361,2-.333-2H22v2ZM24,50h5v2H24Zm0-2V46h5v2Zm-2,0H18.18l-.333-2H22Zm-4.486-4-.334-2H22v2Zm-2.361-2,.333,2H11.054l-.667-2ZM29,44H24V42h4V40H8V38H38v1H34A5.006,5.006,0,0,0,29,44ZM61,58a3,3,0,0,1-3,3H34a3,3,0,0,1-3-3V44a3,3,0,0,1,3-3H58a3,3,0,0,1,3,3Z" fill="#000000" class="svgShape color000000-2 selectable"></path><path d="M36,53h4a3,3,0,0,0,3-3V46a3,3,0,0,0-3-3H36a3,3,0,0,0-3,3v4A3,3,0,0,0,36,53Zm5-7v4a1,1,0,0,1-1,1H39V50h1V48H39V45h1A1,1,0,0,1,41,46Zm-6,0a1,1,0,0,1,1-1h1v1H36v2h1v3H36a1,1,0,0,1-1-1Z" fill="#dc2626" class="svgShape color000000-3 selectable"></path><rect width="16" height="2" x="33" y="57" fill="#dc2626" class="svgShape color000000-4 selectable"></rect><rect width="4.472" height="2" x="49.764" y="56" transform="rotate(-63.435 52 57)" fill="#dc2626" class="svgShape color000000-5 selectable"></rect><rect width="4" height="2" x="55" y="57" fill="#dc2626" class="svgShape color000000-6 selectable"></rect><rect width="14" height="2" x="45" y="43" fill="#dc2626" class="svgShape color000000-7 selectable"></rect><rect width="14" height="2" x="45" y="47" fill="#dc2626" class="svgShape color000000-8 selectable"></rect><rect width="10" height="2" x="45" y="51" fill="#dc2626" class="svgShape color000000-9 selectable"></rect><rect width="2" height="2" x="57" y="51" fill="#dc2626" class="svgShape color000000-10 selectable"></rect><path d="M44,24h2v4a1,1,0,0,0,1,1h4a1,1,0,0,0,1-1V24h2a1,1,0,0,0,.707-1.707l-5-5a1,1,0,0,0-1.414,0l-5,5A1,1,0,0,0,44,24Zm5-4.586L51.586,22H51a1,1,0,0,0-1,1v4H48V23a1,1,0,0,0-1-1h-.586Z" fill="#dc2626" class="svgShape color000000-11 selectable"></path><rect width="2" height="5" x="46" y="31" fill="#dc2626" class="svgShape color000000-12 selectable"></rect><rect width="2" height="5" x="50" y="33" fill="#dc2626" class="svgShape color000000-13 selectable"></rect></svg></g></svg>