<svg id="Capa_1" enable-background="new 0 0 511.988 511.988" height="512" viewBox="0 0 511.988 511.988" width="512" xmlns="http://www.w3.org/2000/svg"><g><g><path d="m374.009 73.179c1.821.77 3.598 1.552 5.283 2.325 5.917 2.712 12.188 4.299 18.638 4.718.176.012.711.046 1.021.687s.004 1.081-.097 1.227l-5.56 8.021c-6.215 8.965-8.412 20.219-6.028 30.875 3.275 14.651 7.184 36.438 7.195 57.021-.008 13.238-1.623 28.512-4.801 45.396-.766 4.07 1.913 7.991 5.984 8.758.469.088.935.13 1.396.13 3.536 0 6.684-2.512 7.362-6.114 3.348-17.794 5.05-33.997 5.059-48.169-.004-6.999-.426-14.097-1.108-21.021h21.929c14.986 0 27.178 12.191 27.178 27.178v31.738c0 4.143 3.357 7.5 7.5 7.5s7.5-3.357 7.5-7.5v-31.738c0-23.257-18.921-42.178-42.178-42.178h-23.813c-1.375-9.084-3.034-17.429-4.564-24.273-1.472-6.579-.116-13.525 3.718-19.057l5.56-8.021c3.375-4.868 3.852-10.96 1.275-16.295s-7.645-8.749-13.557-9.132c-4.617-.3-9.111-1.438-13.356-3.385-1.818-.834-3.734-1.677-5.693-2.506-3.81-1.612-8.216.172-9.829 3.987-1.615 3.814.171 8.215 3.986 9.828z"/><path d="m213.448 142.507c0-4.143-3.357-7.5-7.5-7.5h-6.286c-4.143 0-7.5 3.357-7.5 7.5s3.357 7.5 7.5 7.5h6.286c4.143 0 7.5-3.357 7.5-7.5z"/><path d="m266.593 150.007h6.285c4.143 0 7.5-3.357 7.5-7.5s-3.357-7.5-7.5-7.5h-6.285c-4.143 0-7.5 3.357-7.5 7.5s3.357 7.5 7.5 7.5z"/><path d="m254.409 199.36c3.144 2.547 7.758 2.139 10.407-.954 2.695-3.145 2.324-7.886-.82-10.581-.079-.067-.159-.134-.241-.198-16.184-12.743-38.79-12.74-55.022.042-.216.173-.429.363-.625.559-2.929 2.93-2.929 7.678 0 10.607 1.465 1.464 3.385 2.196 5.304 2.196 1.676 0 3.353-.559 4.726-1.676 10.693-8.364 25.583-8.363 36.271.005z"/><path d="m431.113 361.538h5.463c9.693 0 17.579-7.887 17.579-17.58v-7.889h7.89c9.693 0 17.579-7.887 17.579-17.58v-5.463c0-9.693-7.886-17.58-17.579-17.58h-7.89v-7.889c0-9.693-7.886-17.58-17.579-17.58h-5.463c-9.693 0-17.58 7.887-17.58 17.58v7.889h-7.889c-9.693 0-17.58 7.887-17.58 17.58v5.463c0 9.693 7.887 17.58 17.58 17.58h7.889v7.889c-.001 9.693 7.886 17.58 17.58 17.58zm-25.469-40.469c-1.423 0-2.58-1.157-2.58-2.58v-5.463c0-1.423 1.157-2.58 2.58-2.58h11.435c6.315 0 11.454-5.139 11.454-11.454v-11.435c0-1.423 1.157-2.58 2.58-2.58h5.463c1.422 0 2.579 1.157 2.579 2.58v11.435c0 6.315 5.139 11.454 11.454 11.454h11.436c1.422 0 2.579 1.157 2.579 2.58v5.463c0 1.423-1.157 2.58-2.579 2.58h-11.436c-6.315 0-11.454 5.139-11.454 11.454v11.435c0 1.423-1.157 2.58-2.579 2.58h-5.463c-1.423 0-2.58-1.157-2.58-2.58v-11.435c0-6.315-5.139-11.454-11.454-11.454z"/><path d="m511.907 315.757c0-20.385-7.81-39.672-21.989-54.311-2.881-2.975-7.629-3.052-10.605-.168-2.975 2.882-3.05 7.63-.168 10.605 11.454 11.824 17.763 27.405 17.763 43.873 0 34.773-28.29 63.064-63.063 63.064s-63.064-28.291-63.064-63.064 28.291-63.063 63.064-63.063c8.517 0 16.774 1.666 24.544 4.952 3.813 1.611 8.215-.17 9.829-3.985s-.171-8.216-3.985-9.829c-9.629-4.073-19.853-6.138-30.388-6.138-43.045 0-78.064 35.02-78.064 78.063 0 1.934.095 3.846.234 5.745h-250.586l.15-.868c2.055-11.896 10.348-21.928 21.644-26.182l44.344-16.701 11.313 9.569c15.471 13.084 34.427 19.626 53.391 19.624 18.958-.001 37.923-6.543 53.39-19.624l11.313-9.569 35.823 13.491c3.876 1.46 8.201-.498 9.662-4.375 1.46-3.877-.499-8.202-4.375-9.662l-66.293-24.723c-2.462-.904-4.116-3.274-4.116-5.897v-11.354c29.626-13.212 50.339-42.924 50.339-77.401v-2.162h4.437c15.55 0 28.2-12.65 28.2-28.2v-9.36c0-13.626-9.716-25.025-22.583-27.636l19.157-19.139c4.045-4.041 5.944-9.61 5.21-15.281s-3.989-10.574-8.931-13.452l-49.886-29.05c-31.263-18.203-70.012-18.054-101.132.39l-6.016 3.565c-.552.328-1.22.412-1.832.232-18.495-5.382-38.015 1.821-48.577 17.926-9.451 14.411-9.511 33.072-.151 47.543l4.376 6.767c-14.71.934-26.395 13.193-26.395 28.135v9.36c0 15.55 12.65 28.2 28.199 28.2h4.438v2.162c0 34.477 20.712 64.189 50.338 77.401v11.355c0 2.623-1.654 4.993-4.116 5.897l-74.813 27.933c-4.487 1.69-8.63 4.033-12.36 6.872-6.909-2.538-12.384-4.868-16.327-6.676-5.92-2.714-12.19-4.302-18.638-4.719-.175-.012-.71-.046-1.02-.687-.31-.642-.005-1.082.096-1.227l5.56-8.021c6.214-8.965 8.412-20.219 6.029-30.876-3.276-14.649-7.185-36.437-7.196-57.024.013-20.6 3.921-42.382 7.196-57.027 2.383-10.657.185-21.911-6.029-30.875l-5.56-8.021c-.101-.145-.405-.585-.096-1.227.31-.641.845-.675 1.021-.687 6.45-.419 12.72-2.006 18.638-4.719 4.172-1.913 11.076-4.869 20.277-8.089 3.91-1.368 5.971-5.646 4.603-9.556-1.367-3.909-5.646-5.972-9.556-4.603-9.748 3.41-17.114 6.566-21.575 8.612-4.247 1.946-8.741 3.085-13.356 3.385-5.912.383-10.98 3.796-13.558 9.131-2.577 5.334-2.101 11.426 1.274 16.296l5.56 8.021c3.834 5.531 5.189 12.478 3.719 19.057-1.531 6.843-3.19 15.188-4.565 24.273h-23.816c-23.257 0-42.178 18.921-42.178 42.178v302.278c0 14.061 11.439 25.5 25.5 25.5h421.38c14.061 0 25.5-11.439 25.5-25.5 0 0-.053-101.456-.145-102.846 23.618-13.434 39.592-38.819 39.592-67.881zm-172.256-197.65v9.36c0 7.278-5.922 13.2-13.2 13.2h-4.437v-35.76h4.437c7.278.001 13.2 5.922 13.2 13.2zm-187.047-74.219c6.923-10.557 19.715-15.284 31.84-11.75 4.584 1.332 9.567.703 13.675-1.73l6.016-3.565c26.441-15.675 59.37-15.8 85.935-.331l49.886 29.049c1.215.708 1.526 1.817 1.604 2.416s.059 1.751-.936 2.744l-23.017 22.996c-3.996 3.992-9.308 6.191-14.955 6.191h-22.623c-16.407 0-32.731-4.084-47.208-11.811l-25.16-13.43c-2.081-1.111-4.352-1.675-6.644-1.675-1.401 0-2.811.211-4.189.637-3.632 1.12-6.604 3.593-8.365 6.961l-6.717 12.84c-2.09 3.995-6.19 6.478-10.699 6.478h-8.937l-9.604-14.85c-6.138-9.487-6.099-21.722.098-31.17zm-6.514 96.779c-7.278 0-13.199-5.922-13.199-13.2v-9.36c0-7.278 5.921-13.199 13.199-13.199h4.438v35.76h-4.438zm19.438 17.163v-52.922h5.518c10.111 0 19.304-5.565 23.99-14.524l6.318-12.078 24.403 13.024c16.642 8.883 35.408 13.578 54.271 13.578h22.623c1.471 0 2.925-.098 4.363-.27v53.192c0 38.443-31.276 69.72-69.72 69.72h-2.047c-38.443-.001-69.719-31.277-69.719-69.72zm36.393 108.733c8.341-3.062 13.944-11.091 13.944-19.978v-6.299c6.229 1.464 12.712 2.263 19.382 2.263h2.047c6.669 0 13.152-.799 19.381-2.263v6.299c0 8.887 5.604 16.915 13.944 19.978l14.191 5.213-4.838 4.092c-25.323 21.419-62.084 21.417-87.405 0l-4.838-4.092zm-186.841-82.354c0-14.986 12.192-27.178 27.178-27.178h21.929c-.681 6.924-1.104 14.023-1.108 21.026.013 21.963 4.117 44.914 7.558 60.299 1.471 6.579.115 13.525-3.719 19.057l-5.56 8.021c-3.375 4.869-3.852 10.962-1.274 16.296 2.577 5.335 7.646 8.748 13.558 9.131 4.613.299 9.107 1.438 13.355 3.385 2.991 1.371 6.829 3.031 11.452 4.851-3.796 5.653-6.461 12.095-7.651 18.985l-.59 3.42h-23.786c-20.674 0-39.166 9.51-51.342 24.38zm442.38 302.279c0 5.79-4.71 10.5-10.5 10.5h-421.38c-5.79 0-10.5-4.71-10.5-10.5v-98.644c0-28.31 23.032-51.342 51.342-51.342h292.178c9.111 33.004 39.382 57.319 75.244 57.319 8.229 0 16.162-1.289 23.616-3.661z"/></g></g></svg>