<svg id="SvgjsSvg1024" width="288" height="288" xmlns="http://www.w3.org/2000/svg" version="1.1" xmlns:xlink="http://www.w3.org/1999/xlink" xmlns:svgjs="http://svgjs.com/svgjs"><defs id="SvgjsDefs1025"></defs><g id="SvgjsG1026"><svg xmlns="http://www.w3.org/2000/svg" viewBox="0 0 64 64" width="288" height="288"><path d="M15,63H57a2,2,0,0,0,2-2V11a1,1,0,0,0-.331-.743l-10-9A1,1,0,0,0,48,1H15a2,2,0,0,0-2,2V24.537a18.944,18.944,0,0,0,0,30.926V61A2,2,0,0,0,15,63ZM49,4.245,55.394,10H49ZM15,3H47v7a2,2,0,0,0,2,2h8V61H15V56.727a19,19,0,1,0,0-33.454ZM7,40A17,17,0,1,1,24,57,17.019,17.019,0,0,1,7,40Z" fill="#000000" class="svgShape color000000-0 selectable"></path><rect width="16" height="2" x="37" y="14" fill="#dc2626" class="svgShape color000000-1 selectable"></rect><rect width="14" height="2" x="39" y="19" fill="#dc2626" class="svgShape color000000-2 selectable"></rect><rect width="12" height="2" x="41" y="24" fill="#dc2626" class="svgShape color000000-3 selectable"></rect><rect width="14" height="2" x="39" y="54" fill="#dc2626" class="svgShape color000000-4 selectable"></rect><rect width="8" height="2" x="45" y="49" fill="#dc2626" class="svgShape color000000-5 selectable"></rect><path d="M34.618 35.051A2.718 2.718 0 0036 32.72a2.666 2.666 0 00-1.071-2.128 2.948 2.948 0 00-2.551-.485c-7.67 2.116-11.646 9.883-12.989 13.09L15.613 39.9a3.428 3.428 0 00-4.624 0 3.068 3.068 0 00.018 4.529l7.332 6.558A3.783 3.783 0 0020.929 52a3.888 3.888 0 001.4-.258 3.724 3.724 0 002.194-2.45C25.6 45.568 28.352 38.769 34.618 35.051zM22.6 48.732a1.72 1.72 0 01-.991 1.141 1.842 1.842 0 01-1.917-.357l-7.332-6.558a1.069 1.069 0 010-1.6 1.365 1.365 0 01.935-.357 1.429 1.429 0 01.979.381l4.882 4.26a1 1 0 001.608-.441c.035-.108 3.658-10.828 12.148-13.17a.93.93 0 01.808.149A.677.677 0 0134 32.72a.74.74 0 01-.4.611C26.74 37.4 23.763 44.726 22.6 48.732zM27 19a2 2 0 002-2V15h2a2 2 0 002-2V11a2 2 0 00-2-2H29V7a2 2 0 00-2-2H25a2 2 0 00-2 2V9H21a2 2 0 00-2 2v2a2 2 0 002 2h2v2a2 2 0 002 2zm-3-6H21V11h3a1 1 0 001-1V7h2v3a1 1 0 001 1h3v2H28a1 1 0 00-1 1v3H25V14A1 1 0 0024 13z" fill="#dc2626" class="svgShape color000000-6 selectable"></path></svg></g></svg>