<svg id="Layer_1" enable-background="new 0 0 512 512" viewBox="0 0 512 512" xmlns="http://www.w3.org/2000/svg"><path d="m496.88 412.28-10.93-54.3c-1.85-9.17-7.58-16.28-16.16-20.01l-34.89-15.2c-.09-.04-.18-.07-.26-.11l-15.83-6.02.02-10.82c10.32-8.72 17.92-21.66 20.9-36.98 6.19-2.79 10.47-9.08 10.47-16.09 0-3.33-.94-6.55-2.69-9.33 4.16-27.99-5.45-56.09-23.84-69.03-15.79-11.12-36.58-10.61-58.78 1.37-11.99-3.68-19.92-.26-24.56 3.43-17.53 13.95-14.81 51.8-13.39 64.11-1.8 2.81-2.77 6.08-2.77 9.46 0 7.01 4.28 13.3 10.47 16.09 2.98 15.35 10.61 28.32 20.97 37.04v10.75l-15.87 6.03c-.09.03-.18.07-.26.11l-33.56 14.62c3.32-6.64 5.8-13.96 7.26-21.8 7.35-3.03 12.49-10.35 12.49-18.54 0-3.93-1.16-7.74-3.3-10.99 5.13-33.48-6.27-67.15-28.18-82.58-13.36-9.4-36.27-16.52-70.09 1.98-14.24-4.52-23.58-.54-28.99 3.77-11.81 9.39-15.8 28.14-16.74 45.23-.94-17.7-7.8-34.18-19.25-46.36l11.82-19.26c.93-1.52 1.14-3.37.57-5.06s-1.86-3.04-3.53-3.67l-49.52-19.05c-1.39-.53-2.92-.53-4.31 0l-49.51 19.03c-1.66.64-2.96 1.99-3.53 3.67-.57 1.69-.36 3.54.57 5.06l11.82 19.27c-11.06 11.77-17.82 27.54-19.11 44.56-.26.67-.4 1.38-.4 2.1-.01 1.39.05 2.76.16 4.1.02 9.03 1.56 17.8 4.57 26.09v34.85c0 5.33 2.63 10.05 6.66 12.96l-25.09 10.93c-8.02 3.5-13.39 10.15-15.12 18.73l-10.03 49.86c-.35 1.76.1 3.59 1.24 4.98s2.84 2.2 4.64 2.2h113.26c-.55 1.55-1.01 3.15-1.35 4.82l-13.19 65.53c-.35 1.76.1 3.59 1.24 4.98s2.84 2.2 4.64 2.2h250.54c1.8 0 3.5-.81 4.64-2.2s1.59-3.22 1.24-4.98l-13.19-65.53c-.34-1.67-.8-3.28-1.35-4.82h123.5c1.8 0 3.5-.81 4.64-2.2s1.6-3.22 1.24-4.98zm-149.06-223.7c.91-.72 3.03-2.41 7.22-2.41 2.18 0 4.92.46 8.33 1.75 1.68.63 3.55.48 5.11-.41 19.09-10.96 35.79-12.11 48.29-3.3 14.43 10.16 22.02 32.64 19.11 55.68-.96.02-1.59-.15-1.91-.4-1.01-.8-2.05-3.95-1.68-10.22.12-1.92-.7-3.78-2.19-5s-3.47-1.65-5.33-1.16c-28.01 7.4-48.62 2-63-16.52-1.54-1.98-4.15-2.8-6.54-2.04-2.39.75-4.06 2.92-4.19 5.42-.78 15.39-4.55 23.83-12.64 27.39-1.68-19.73.45-41.65 9.42-48.78zm-1.91 74.81c-.37-2.61-2.39-4.67-4.99-5.09-2.7-.44-4.73-2.82-4.73-5.55 0-.82.2-1.61.55-2.35 16.31-3.55 22.36-16.14 24.72-26.73 15.21 13.22 34.99 17.5 59.02 12.73.67 5.7 2.68 9.81 6.06 12.49 2.52 1.99 5.58 2.99 9.13 2.99.79 0 1.61-.07 2.45-.17.06.34.1.68.1 1.03 0 2.73-2.03 5.12-4.73 5.55-2.6.42-4.62 2.48-4.99 5.09-2.06 14.59-9.03 26.8-18.65 34.3-.39.23-.76.5-1.09.81-6.32 4.6-13.71 7.23-21.55 7.23-7.81 0-15.17-2.6-21.48-7.18-.33-.31-.69-.58-1.08-.8-9.67-7.49-16.68-19.72-18.74-34.35zm41.29 54.34c6.91 0 13.53-1.51 19.63-4.28l-.01 4.99c-7.06 7.72-13.79 11.63-20.03 11.63-.08 0-.16 0-.23 0-6.08-.1-12.44-3.96-18.93-11.48v-5.12c6.08 2.75 12.68 4.26 19.57 4.26zm-161.19 50.64c7.66 3.77 16.07 5.85 24.87 5.85 8.82 0 17.25-2.09 24.93-5.88l-.02 8.46c-8.99 9.94-17.63 14.89-25.72 14.8-7.8-.12-15.89-5.05-24.06-14.65zm61.95-7.97-.13.66v-.55c.04-.04.09-.08.13-.11zm18.97-55.42c-2.6.42-4.62 2.48-4.99 5.09-2.53 17.96-11.14 32.99-23.03 42.24-.45.25-.86.56-1.23.91-7.85 5.74-17.04 9.01-26.8 9.01-9.73 0-18.88-3.25-26.72-8.95-.37-.35-.78-.66-1.22-.91-11.93-9.24-20.58-24.3-23.12-42.3-.37-2.61-2.39-4.67-4.99-5.09-3.85-.62-6.75-4.03-6.75-7.93 0-1.38.37-2.73 1.04-3.92 19.92-4.01 27.16-18.85 29.88-33.57 18.55 17.08 43.07 22.54 73.14 16.27.61 7.24 2.92 12.37 6.99 15.59 2.82 2.23 6.25 3.34 10.26 3.34 1.23 0 2.51-.11 3.85-.32.29.83.45 1.72.45 2.61-.01 3.9-2.91 7.3-6.76 7.93zm-104.35-86.36c2.68-2.13 5.84-3.19 9.55-3.19 3.09 0 6.55.73 10.43 2.2 1.68.63 3.55.48 5.11-.41 23.49-13.49 44.1-14.85 59.62-3.93 17.99 12.67 27.36 40.78 23.45 69.37-1.6.19-3.2.11-4.18-.67-.74-.58-3.1-3.27-2.49-13.38.12-1.92-.7-3.78-2.19-5s-3.47-1.65-5.33-1.16c-34.34 9.08-59.64 2.41-77.33-20.38-1.54-1.98-4.15-2.8-6.54-2.04-2.39.75-4.07 2.92-4.19 5.42-1.02 20.14-6.22 30.73-17.58 34.77-2.33-24.54.24-52.51 11.67-61.6zm-14.01 96.97c3.49 18.73 12.79 34.52 25.45 44.99v14.42l-3.72 1.41-2.82-13.99c-1.73-8.58-7.1-15.23-15.12-18.73l-25.09-10.93c4.02-2.91 6.66-7.63 6.66-12.96v-34.84c2.22-6.12 3.64-12.51 4.23-19.07.12 8.47.8 15.73 1.3 20.05-2.2 3.28-3.38 7.13-3.38 11.11 0 8.18 5.13 15.5 12.49 18.54zm27.65 116.75c4.72 0 8.56 3.84 8.56 8.56s-3.84 8.56-8.56 8.56-8.56-3.84-8.56-8.56 3.84-8.56 8.56-8.56zm-50.15-171.49c-1.14 7.59-4.97 13.78-11.42 18.46-1.03.75-1.8 1.81-2.19 3.02-5.73 17.85-20.26 29.84-36.15 29.84-15.98 0-30.53-12.08-36.22-30.07-.38-1.21-1.13-2.26-2.15-3.01-6.36-4.71-10.2-10.82-11.49-18.2 26.98 0 49.02-5.1 65.92-24.91 5.68 16.15 18.97 22 33.7 24.87zm-4.15 30.42v28.52c0 2.17-1.83 4-4 4h-12.09l.05-10.65c6.74-5.58 12.31-13.04 16.04-21.87zm-91.21.01c3.75 8.86 9.35 16.35 16.12 21.94v10.57h-12.13c-2.17 0-4-1.83-4-4v-28.51zm28.12 29.28c5.51 2.35 11.41 3.62 17.49 3.62 6.09 0 12.01-1.28 17.53-3.65l-.03 5.51c-6.33 6.88-12.34 10.37-17.89 10.37-.07 0-.14 0-.21 0-5.4-.08-11.08-3.53-16.9-10.24v-5.61zm66.88-72.06c-16.79-3.86-22.93-11.21-24.07-27.25 1.18.31 2.35.65 3.51 1 .58.18 1.17.26 1.76.26 2.05 0 4-1.05 5.11-2.86l.54-.88c6.88 8.26 11.43 18.55 13.15 29.73zm-49.4-75.42 40.63 15.63-10.56 17.21c0 .01-.01.01-.01.02l-2.2 3.58c-7.5-1.95-15.14-3.07-22.89-3.38.65-.96 1.03-2.11 1.03-3.36v-5.19h5.19c3.31 0 6-2.69 6-6s-2.69-6-6-6h-5.19v-5.19c0-3.31-2.69-6-6-6s-6 2.69-6 6v5.19h-5.19c-3.31 0-6 2.69-6 6s2.69 6 6 6h5.19v5.19c0 1.27.4 2.44 1.07 3.41-7.55.37-15.18 1.5-22.89 3.4l-2.24-3.65s-.01-.01-.01-.01l-10.56-17.21zm-35.71 46.58c1.41 2.29 4.16 3.37 6.75 2.63 14.54-4.12 28.8-5.23 42.57-3.37-14.82 24.08-35.33 29.92-63.06 29.96 1.67-11.33 6.26-21.77 13.21-30.11zm-43.69 145.12c.94-4.69 3.76-8.18 8.15-10.09l31.9-13.9 13.14-5h1.25c7.69 8.23 15.8 12.47 24.17 12.6 8.62.12 17.2-4.11 25.55-12.6h1.43l13.15 5 31.9 13.9c4.39 1.91 7.21 5.4 8.15 10.09l3.21 15.95-4.86 1.85c-.09.03-.18.07-.26.11l-42.1 18.34c-3.73 1.62-6.99 3.79-9.73 6.43h-113.63zm96.03 120.22 11.74-58.35c1.37-6.8 5.45-11.85 11.81-14.62l36.54-15.92c-.28 2.32-.42 4.67-.42 7.03 0 9.28 2.2 18.38 6.4 26.57-2.11 3.23-3.34 7.07-3.34 11.2 0 11.34 9.22 20.56 20.56 20.56s20.56-9.22 20.56-20.56-9.22-20.56-20.56-20.56c-2.71 0-5.3.54-7.67 1.5-2.59-5.86-3.95-12.23-3.95-18.71 0-4.21.57-8.36 1.68-12.37l11.9-4.52c10.13 11.35 20.78 17.18 31.7 17.36 11.24.22 22.53-5.67 33.57-17.4l12.02 4.57c.4 1.43.73 2.88.98 4.35-4.04-.98-8.25-.4-11.89 1.68-3.78 2.16-6.49 5.65-7.63 9.84l-10.54 38.69c-2.36 8.65 2.77 17.61 11.42 19.97 3.2.87 6.5-1.01 7.37-4.21s-1.01-6.5-4.21-7.37c-2.27-.62-3.62-2.97-3-5.24l10.54-38.69c.3-1.09 1.01-2 2.01-2.57s2.15-.72 3.23-.42l15.64 4.26c2.27.62 3.62 2.97 3 5.24l-10.54 38.69c-.3 1.09-1.01 2-2.01 2.57s-2.14.72-3.23.42c-3.2-.87-6.5 1.01-7.37 4.21s1.01 6.5 4.21 7.37c1.41.38 2.85.58 4.28.58 2.8 0 5.56-.73 8.06-2.16 3.78-2.16 6.49-5.65 7.63-9.84l10.54-38.69c2.36-8.65-2.77-17.61-11.42-19.97l-3.58-.98c-.06-.8-.14-1.6-.24-2.39l36.54 15.92c6.36 2.77 10.44 7.83 11.81 14.62l11.74 58.34zm226.86-77.54c-2.74-2.64-6-4.81-9.73-6.43l-42.1-18.34c-.09-.04-.18-.07-.26-.11l-11.11-4.22 3.62-18.01c1.06-5.29 4.24-9.22 9.19-11.38l34.76-15.14 15.67-5.96c8.45 9.28 17.36 14.05 26.55 14.2 9.44.12 18.9-4.64 28.1-14.24l15.79 6 34.75 15.14c4.95 2.15 8.12 6.09 9.19 11.38l9.48 47.12h-123.9zm100.45-25.03c0 3.31-2.69 6-6 6h-10.28v10.28c0 3.31-2.69 6-6 6s-6-2.69-6-6v-10.28h-10.28c-3.31 0-6-2.69-6-6s2.69-6 6-6h10.28v-10.28c0-3.31 2.69-6 6-6s6 2.69 6 6v10.28h10.28c3.31 0 6 2.69 6 6zm-204.25-200.31c46.08 0 83.56-37.49 83.56-83.56s-37.48-83.56-83.56-83.56-83.56 37.48-83.56 83.56 37.49 83.56 83.56 83.56zm0-155.12c39.46 0 71.56 32.1 71.56 71.56s-32.1 71.56-71.56 71.56-71.56-32.1-71.56-71.56 32.1-71.56 71.56-71.56zm-40.54 92.5h19.59v19.59c0 3.31 2.69 6 6 6h29.89c3.31 0 6-2.69 6-6v-19.59h19.59c3.31 0 6-2.69 6-6v-29.88c0-3.31-2.69-6-6-6h-19.59v-19.6c0-3.31-2.69-6-6-6h-29.89c-3.31 0-6 2.69-6 6v19.59h-19.59c-3.31 0-6 2.69-6 6v29.89c0 3.32 2.69 6 6 6zm6-29.88h19.59c3.31 0 6-2.69 6-6v-19.6h17.89v19.59c0 3.31 2.69 6 6 6h19.59v17.89h-19.59c-3.31 0-6 2.69-6 6v19.59h-17.89v-19.59c0-3.31-2.69-6-6-6h-19.59z"/></svg>