<svg id="SvgjsSvg1295" width="288" height="288" xmlns="http://www.w3.org/2000/svg" version="1.1" xmlns:xlink="http://www.w3.org/1999/xlink" xmlns:svgjs="http://svgjs.com/svgjs"><defs id="SvgjsDefs1296"></defs><g id="SvgjsG1297"><svg xmlns="http://www.w3.org/2000/svg" enable-background="new 0 0 550 550" viewBox="0 0 550 550" width="288" height="288"><path d="M387,531h-96c-4.418,0-8-3.582-8-8s3.582-8,8-8h88.123c0.607-21.201,3.469-53.301,9.016-72.774l1.899-6.664
									c0.738-2.692,8.208-26.758,43.078-44.02l31.853-17.811c0.066-0.037,0.134-0.073,0.201-0.109
									c1.119-0.595,28.042-15.265,33.928-49.128c0.605-5.487,11.068-100.311,15.822-145.665c0.433-4.132-0.874-8.093-3.68-11.153
									c-2.832-3.089-6.716-4.729-10.942-4.674l-0.563,0.01c-6.572,0.12-12.101,4.925-13.141,11.425l-15.708,101.757
									c-0.674,4.367-4.755,7.354-9.127,6.686c-4.366-0.674-7.359-4.76-6.686-9.127l15.715-101.8
									c2.271-14.207,14.323-24.677,28.661-24.938l0.565-0.01c8.721-0.129,17.13,3.438,23.018,9.858
									c5.861,6.392,8.703,15.006,7.799,23.634c-4.876,46.524-15.749,145.004-15.858,145.994c-0.017,0.156-0.039,0.313-0.065,0.468
									c-7.029,41.197-39.548,59.359-42.206,60.779l-31.955,17.868c-0.121,0.067-0.243,0.132-0.367,0.193
									c-29.249,14.418-34.681,33.15-34.897,33.94c-0.021,0.085-0.021,0.082-0.046,0.166l-1.91,6.703
									C398.189,465.345,395,500.162,395,523C395,527.418,391.418,531,387,531z" fill="#000000" class="svgShape color000000-0 selectable"></path><path d="M291,531c-4.418,0-8-3.582-8-8v-83.447c0-45.583,22.884-87.457,61.233-112.07l85.938-63.112
									c12.395-9.102,29.984-6.497,39.208,5.803c9.258,12.342,6.798,29.982-5.482,39.322l-79.592,60.536
									c-3.518,2.675-8.536,1.991-11.21-1.524c-2.675-3.517-1.992-8.535,1.524-11.21l79.592-60.536
									c5.305-4.035,6.367-11.655,2.368-16.987c-3.984-5.313-11.581-6.439-16.938-2.507l-86.145,63.264
									c-0.14,0.102-0.281,0.199-0.427,0.293C319.214,362.462,299,399.371,299,439.553V523C299,527.418,295.418,531,291,531z" fill="#000000" class="svgShape color000000-1 selectable"></path><path d="M389.26 491h-88.68c-4.418 0-8-3.582-8-8s3.582-8 8-8h88.68c4.418 0 8 3.582 8 8S393.678 491 389.26 491zM259 531h-96c-4.418 0-8-3.582-8-8 0-22.838-3.189-57.655-8.527-76.392l-1.91-6.702c-.024-.084-.046-.168-.067-.252-.194-.704-5.627-19.437-34.876-33.854-.124-.062-.247-.126-.367-.193l-31.954-17.867c-2.651-1.417-35.178-19.578-42.208-60.78-.026-.155-.048-.312-.065-.468-.109-.989-10.981-99.47-15.858-145.994-.904-8.627 1.938-17.242 7.799-23.634 5.887-6.421 14.292-10.007 23.02-9.858l.558.01c14.345.261 26.396 10.731 28.66 24.896l15.722 101.842c.674 4.367-2.319 8.453-6.686 9.127-4.37.674-8.453-2.319-9.127-6.686l-15.716-101.8c-1.033-6.458-6.561-11.263-13.139-11.382l-.554-.009c-4.23-.107-8.113 1.584-10.945 4.673-2.806 3.061-4.113 7.021-3.679 11.153 4.753 45.354 15.216 140.178 15.821 145.665 5.938 34.152 33.648 48.982 33.928 49.128.067.036.135.072.201.109l31.853 17.811c34.888 17.271 42.348 41.352 43.08 44.023l1.897 6.66c5.548 19.474 8.409 51.573 9.016 72.774H259c4.418 0 8 3.582 8 8S263.418 531 259 531z" fill="#000000" class="svgShape color000000-2 selectable"></path><path d="M259,531c-4.418,0-8-3.582-8-8v-83.447c0-40.183-20.213-77.091-54.071-98.729c-0.146-0.094-0.288-0.191-0.427-0.293
									l-86.144-63.264c-5.354-3.932-12.953-2.808-16.938,2.507c-3.999,5.332-2.937,12.952,2.368,16.987l79.592,60.536
									c3.517,2.675,4.199,7.693,1.524,11.21c-2.675,3.516-7.694,4.2-11.21,1.524l-79.592-60.536
									c-12.28-9.339-14.74-26.979-5.482-39.322c9.225-12.3,26.814-14.905,39.208-5.802l85.938,63.112
									C244.117,352.096,267,393.97,267,439.553V523C267,527.418,263.418,531,259,531z" fill="#000000" class="svgShape color000000-3 selectable"></path><g><path d="M249.42,491h-88.68c-4.418,0-8-3.582-8-8s3.582-8,8-8h88.68c4.418,0,8,3.582,8,8S253.838,491,249.42,491z" fill="#000000" class="svgShape color000000-5 selectable"></path></g><g><path d="M355,299H203c-4.418,0-8-3.582-8-8V155h-32c-3.211,0-6.111-1.92-7.365-4.876s-0.619-6.375,1.613-8.684l116-120
						C274.755,19.88,276.831,19,279,19s4.244,0.88,5.752,2.44l116,120c2.231,2.309,2.867,5.728,1.613,8.684S398.211,155,395,155h-32
						v136C363,295.418,359.418,299,355,299z M211,283h136V147c0-4.418,3.582-8,8-8h21.14L279,38.51L181.86,139H203
						c4.418,0,8,3.582,8,8V283z" fill="#dc2626" class="svgShape color000000-7 selectable"></path></g><g><path d="M280.9,195c-2.048,0-4.095-0.781-5.657-2.343l-40.041-40.04c-5.29-5.29-8.203-12.32-8.203-19.797
						c0-7.476,2.913-14.507,8.203-19.796c5.288-5.289,12.319-8.201,19.797-8.201s14.509,2.912,19.797,8.201l6.104,6.103l6.103-6.103
						c5.288-5.289,12.319-8.201,19.797-8.201s14.509,2.912,19.797,8.2c5.29,5.291,8.203,12.321,8.203,19.797
						c0,7.476-2.913,14.507-8.202,19.797l-40.04,40.04C284.995,194.219,282.947,195,280.9,195z M255,120.823
						c-3.204,0-6.217,1.248-8.483,3.514c-2.268,2.268-3.517,5.28-3.517,8.483s1.249,6.215,3.517,8.483l34.384,34.383l34.383-34.383
						c2.268-2.268,3.517-5.281,3.517-8.483s-1.249-6.215-3.517-8.483c-2.266-2.266-5.279-3.514-8.483-3.514
						s-6.217,1.248-8.482,3.514l-11.76,11.76c-3.125,3.124-8.19,3.125-11.314,0l-11.76-11.76
						C261.217,122.071,258.204,120.823,255,120.823z" fill="#dc2626" class="svgShape color000000-9 selectable"></path></g><g><path d="M323,267h-88c-4.418,0-8-3.582-8-8v-32c0-4.418,3.582-8,8-8h88c4.418,0,8,3.582,8,8v32
						C331,263.418,327.418,267,323,267z M243,251h72v-16h-72V251z" fill="#dc2626" class="svgShape color000000-11 selectable"></path></g></svg></g></svg>