<svg xmlns="http://www.w3.org/2000/svg" viewBox="0 0 512 512" id="reproductive-health">
  <path d="m507.162,74.135c-4.529-28.015-24.538-48.484-52.217-53.418-29.967-5.343-47.823,9.351-66.729,24.907-1.529,1.258-3.081,2.535-4.665,3.824-18.729,15.241-27.552,10.391-45.132.729-9.334-5.13-20.952-11.516-36.168-15.139-10.586-2.521-27.422-3.924-46.209-3.828-18.835-.109-35.688,1.306-46.274,3.828-15.217,3.623-26.835,10.008-36.169,15.139-17.579,9.661-26.403,14.512-45.132-.729-1.584-1.289-3.136-2.565-4.665-3.824-18.905-15.556-36.766-30.247-66.729-24.907C29.392,25.651,9.384,46.12,4.855,74.134c-3.032,18.749,2.325,38.099,14.381,52.635-2.411,7.615-2.495,15.024-.229,22.124,3.746,11.737,14.102,21.997,29.16,28.889,13.261,6.069,25.033,8.63,35.024,8.63,16.343,0,27.917-6.853,33.436-16.409,8.891-15.4,3.838-40.907-27.493-63.178-13.498-9.594-27.562-13.432-39.598-10.809-3.606.786-6.985,2.122-10.137,3.972-2.525-5.839-2.718-12.43-.416-18.843,3.274-9.124,10.894-15.966,19.885-17.858,16.369-3.447,23.262,3.264,33.693,13.416,3.803,3.701,8.113,7.896,13.21,11.764,10.224,7.758,22.568,12.51,40.095,15.417,17.633,2.748,25.635,24.797,34.9,50.328,4.121,11.354,8.382,23.096,13.926,34.469,2.238,4.534,4.139,8.248,5.816,11.525q9.466,18.493,9.271,53.184c-.088,15.858,8.124,28.282,15.369,39.244,4.404,6.663,8.566,12.969,10.19,19.046v18.642c0,4.944.049,9.426.148,13.7.089,3.809,3.205,6.836,6.995,6.836.055,0,.11,0,.166-.002,3.865-.09,6.925-3.297,6.835-7.162-.098-4.164-.145-8.539-.145-13.373v-115.575c0-14.221-3.465-26.49-10.903-38.612-2.134-3.478-3.992-7.018-5.848-11.141-3.398-7.55-6.428-15.821-9.635-24.577-6.74-18.399-13.678-37.342-25.065-52.511,7.13-4.086,14.087-7.78,22.155-9.701,7.157-1.704,20.895-2.725,35.99-2.67,15.021-.072,28.78.967,35.938,2.67,8.068,1.921,15.025,5.615,22.156,9.701-11.387,15.168-18.325,34.109-25.064,52.508-3.208,8.757-6.237,17.028-9.637,24.579-1.858,4.129-3.716,7.669-5.846,11.14-7.439,12.122-10.904,24.392-10.904,38.613v115.575c0,4.845-.048,9.219-.146,13.372-.091,3.865,2.968,7.072,6.833,7.163.057,0,.112.002.168.002,3.789,0,6.905-3.026,6.995-6.835.101-4.263.149-8.745.149-13.702v-18.642c1.625-6.077,5.786-12.383,10.19-19.047,7.245-10.961,15.458-23.386,15.37-39.244q-.195-34.69,9.271-53.183c1.678-3.277,3.578-6.992,5.832-11.557,5.528-11.342,9.789-23.083,13.91-34.438,9.266-25.53,17.268-47.58,34.968-50.339,17.459-2.896,29.804-7.647,40.027-15.406,5.097-3.868,9.407-8.062,13.21-11.763,10.433-10.152,17.325-16.86,33.693-13.416,8.991,1.892,16.61,8.735,19.885,17.857,2.302,6.414,2.109,13.005-.416,18.844-3.152-1.851-6.53-3.186-10.137-3.972-12.037-2.621-26.1,1.214-39.598,10.809-31.33,22.271-36.383,47.778-27.492,63.178,5.518,9.558,17.089,16.41,33.435,16.409,9.99,0,21.766-2.562,35.024-8.63,15.059-6.893,25.414-17.152,29.16-28.889,2.267-7.1,2.183-14.509-.229-22.124,12.056-14.535,17.412-33.885,14.381-52.634ZM52.518,109.695c1.519-.331,3.105-.495,4.749-.495,7.17,0,15.423,3.112,23.756,9.036,24.029,17.08,29.016,35.179,23.48,44.767-5.537,9.588-23.705,14.318-50.51,2.049-11.429-5.231-19.117-12.482-21.649-20.417-2.03-6.361-.806-13.491,3.641-21.191h0c4.446-7.702,10.009-12.328,16.532-13.75Zm403.513-60.107c-23.665-4.978-35.194,6.236-46.34,17.083-3.687,3.587-7.498,7.296-11.909,10.644-5.599,4.249-14.507,9.538-33.788,12.736-25.812,4.023-35.571,30.915-45.904,59.385-3.997,11.013-8.13,22.401-13.318,33.048-2.193,4.443-4.07,8.109-5.726,11.344-10.714,20.93-11.017,22.603-10.809,59.641.06,10.746-5.399,19.805-11.561,29.187v-67.908c0-11.683,2.725-21.333,8.837-31.292,2.448-3.991,4.57-8.031,6.679-12.714,3.605-8.01,6.72-16.511,10.017-25.511,7.296-19.918,14.841-40.514,27.751-54.499,1.449-1.57,2.102-3.715,1.772-5.827-.329-2.111-1.604-3.956-3.463-5.01-1.393-.79-2.778-1.592-4.166-2.396-8.708-5.04-17.713-10.251-28.889-12.913-8.285-1.972-22.93-3.11-39.181-3.051-16.271-.047-30.949,1.08-39.232,3.051-11.176,2.661-20.18,7.873-28.887,12.912-1.389.804-2.775,1.606-4.168,2.396-1.858,1.054-3.134,2.899-3.463,5.01-.329,2.111.323,4.257,1.772,5.827,12.911,13.985,20.455,34.582,27.752,54.501,3.296,8.999,6.409,17.499,10.015,25.508,2.105,4.677,4.228,8.717,6.681,12.715,6.028,9.824,8.836,19.767,8.836,31.291v67.908c-6.162-9.382-11.619-18.44-11.56-29.186.208-37.039-.095-38.711-10.809-59.641-1.655-3.235-3.532-6.901-5.71-11.312-5.204-10.678-9.337-22.066-13.334-33.08-10.333-28.47-20.092-55.361-45.837-59.374-19.349-3.21-28.257-8.499-33.855-12.747-4.411-3.349-8.223-7.058-11.909-10.645-11.146-10.847-22.669-22.06-46.34-17.083-13.711,2.885-25.274,13.166-30.179,26.829-4.082,11.373-3.033,23.148,2.754,33.128-.793.989-1.567,2.021-2.313,3.111-6.806-10.66-9.618-23.643-7.573-36.286,3.605-22.3,18.878-37.953,40.854-41.871,23.607-4.209,36.932,6.758,55.378,21.936,1.548,1.274,3.12,2.567,4.724,3.872,26.043,21.192,42.882,11.939,60.711,2.14,9.043-4.971,19.293-10.604,32.669-13.789,9.409-2.241,25.492-3.537,43.031-3.447,17.511-.107,33.557,1.207,42.966,3.447,13.375,3.185,23.625,8.818,32.668,13.789,17.829,9.798,34.669,19.052,60.711-2.139,1.604-1.305,3.176-2.598,4.724-3.872,18.447-15.178,31.772-26.141,55.378-21.936,21.976,3.918,37.248,19.57,40.854,41.871,2.044,12.643-.767,25.626-7.573,36.286-.746-1.09-1.52-2.122-2.313-3.111,5.788-9.981,6.837-21.755,2.755-33.129-4.903-13.663-16.468-23.943-30.179-26.828Zm23.642,95.048c-2.532,7.935-10.221,15.185-21.649,20.417-26.806,12.269-44.974,7.538-50.509-2.049-5.536-9.588-.549-27.687,23.479-44.767,8.334-5.924,16.586-9.036,23.756-9.036,1.644,0,3.231.164,4.749.495,6.523,1.422,12.086,6.048,16.532,13.75h0c4.446,7.701,5.671,14.831,3.641,21.191Zm-38.565,206.806c9.087,10.316,8.56,25.393-1.341,38.41-12.833,16.868-131.695,79.948-132.895,80.583-.05.026-.101.053-.151.078-26.472,13.209-51.645,18.036-81.633,15.656-8.919-.709-17.972-1.767-27.556-2.886-40.489-4.731-86.38-10.093-144.446,8.775-.719.233-1.448.344-2.164.345-2.951,0-5.695-1.88-6.656-4.839-1.194-3.676.817-7.625,4.494-8.82,60.976-19.815,108.483-14.264,150.397-9.366,9.451,1.104,18.379,2.147,27.04,2.835,27.269,2.165,50.161-2.209,74.198-14.189,49.129-26.028,120.98-67.12,128.229-76.647,6.899-9.07,5.546-16.63,1.978-20.681-3.62-4.113-11.575-6.766-22.075-.705-20.984,12.114-70.777,36.24-106.792,49.452-.817,2.761-1.981,5.458-3.493,8.003-8.515,14.327-30.567,17.827-50.07,17.827-2.622,0-5.197-.063-7.688-.172-22.328-.974-47.186-6.184-59.106-12.388-3.43-1.785-4.763-6.012-2.978-9.441,1.784-3.43,6.012-4.763,9.44-2.978,8.76,4.559,31.074,9.853,53.254,10.82,23.605,1.032,40.474-3.015,45.113-10.821,3.464-5.829,3.899-13.386,1.059-18.379-2.401-4.219-6.878-6.358-13.307-6.358-45.806,0-77.454-12.708-102.885-22.918-26.641-10.697-45.89-18.427-69.519-7.772-32.532,14.671-45.438,19.135-64.972,25.891-6.559,2.269-13.992,4.84-23.203,8.156-3.639,1.308-7.647-.578-8.957-4.216-1.31-3.637.578-7.647,4.215-8.957,9.295-3.345,16.772-5.932,23.369-8.213,19.854-6.868,31.839-11.013,63.792-25.422,29.062-13.105,52.896-3.539,80.491,7.542,25.577,10.27,54.567,21.91,97.668,21.91,11.498,0,20.545,4.771,25.475,13.435,1.598,2.808,2.667,5.91,3.238,9.147,34.646-13.264,79.404-35.042,98.856-46.271,16.684-9.634,31.9-5.144,39.581,3.576Z"></path>
</svg>
