<svg id="SvgjsSvg1218" width="288" height="288" xmlns="http://www.w3.org/2000/svg" version="1.1" xmlns:xlink="http://www.w3.org/1999/xlink" xmlns:svgjs="http://svgjs.com/svgjs"><defs id="SvgjsDefs1219"></defs><g id="SvgjsG1220"><svg xmlns="http://www.w3.org/2000/svg" viewBox="0 0 48 48" width="288" height="288"><path d="M32.86328,22.22754c1.18023-1.18039,1.1814-3.15116.00049-4.33008-1.19287-1.19141-3.13525-1.19434-4.33105-.00098l-6.56396,6.56445-2.50195-2.50293c-1.19529-1.19236-3.1381-1.19238-4.32951.0009-1.15279,1.15459-1.17167,3.16299-.00057,4.33114l3.20801,3.20898c.99902.99902,2.31152,1.49805,3.62402,1.49805s2.625-.49902,3.62402-1.49805c0,0,7.26727-7.26824,7.27051-7.27148ZM19.75879,28.08496s-3.2085-3.20996-3.2085-3.20997c-.41126-.41127-.40886-1.09112.00098-1.50097.41406-.41309,1.08789-.41602,1.50195-.00098l3.2085,3.20898c.1875.1875.44189.29297.70703.29297s.51953-.10547.70703-.29297l7.27051-7.27051c.41355-.41501,1.0878-.41504,1.50333.00089.397.39738.41677,1.08287-.0004,1.50106l-7.27051,7.27148c-1.21875,1.21875-3.20117,1.21875-4.41992,0Z" fill="#dc2626" class="svgShape color000000-0 selectable"></path><path d="M24,5C13.52344,5,5,13.52344,5,24s8.52344,19,19,19,19-8.52344,19-19S34.47656,5,24,5ZM24,41c-9.37402,0-17-7.62598-17-17S14.62598,7,24,7s17,7.62598,17,17-7.62598,17-17,17Z" fill="#000000" class="svgShape color000000-1 selectable"></path><path d="M24 9c-6.58838 0-12.50098 4.41406-14.37744 10.73145-.41309 1.37109-.62256 2.80664-.62256 4.26855v.01953c0 .55273.44775.99023 1 .99023s1-.45703 1-1.00977c0-1.26562.18066-2.50781.53857-3.69531 1.62744-5.47852 6.75195-9.30469 12.46143-9.30469 7.16846 0 13 5.83203 13 13 0 5.68848-3.81152 10.81348-9.2666 12.46191-1.19385.35742-2.44336.53809-3.71338.53809-.55225 0-1 .44727-1 1s.44775 1 1 1c1.46436 0 2.90674-.20898 4.28906-.62305 6.29492-1.90137 10.69092-7.81348 10.69092-14.37695 0-8.27148-6.729-15-15-15ZM12.20752 29.46875c-.26172-.56348-.4834-1.14746-.65967-1.73633-.1582-.52832-.71533-.82715-1.24463-.6709-.5293.1582-.82959.71582-.67139 1.24512.20361.67967.45995 1.35445.76121 2.00385.22882.49325.83559.71589 1.32815.48638.50098-.23242.71875-.82715.48633-1.32812ZM13.80713 32.05957c-.34326-.43262-.97217-.50684-1.40527-.16211-.43262.34277-.50488.97168-.16211 1.4043.729.91895 1.56641 1.75391 2.48879 2.47951.42875.3384 1.06644.26211 1.40427-.16603.3418-.43457.26709-1.06348-.16699-1.4043-.80029-.63086-1.52637-1.35449-2.15869-2.15137ZM20.30469 36.46094c-.59375-.17578-1.17773-.39648-1.73682-.6543-.49951-.23242-1.09473-.01367-1.32715.4873-.23193.50195-.01318 1.0957.48828 1.32715.64551.29883 1.32031.55371 2.00636.75781.52388.15122 1.08708-.14884 1.24316-.67383.15723-.5293-.14404-1.08594-.67383-1.24414Z" fill="#dc2626" class="svgShape color000000-2 selectable"></path></svg></g></svg>