<svg id="SvgjsSvg1051" width="288" height="288" xmlns="http://www.w3.org/2000/svg" version="1.1" xmlns:xlink="http://www.w3.org/1999/xlink" xmlns:svgjs="http://svgjs.com/svgjs"><defs id="SvgjsDefs1052"></defs><g id="SvgjsG1053"><svg xmlns="http://www.w3.org/2000/svg" enable-background="new 0 0 75 75" viewBox="0 0 75 75" width="288" height="288"><path d="M48.8344727,17.9077148c0-5.9794922-4.8647461-10.8447266-10.8442383-10.8447266
		c-5.9799805,0-10.8447266,4.8652344-10.8447266,10.8447266c0.0652275,3.3473301-0.1400433,3.410614,0.1763916,3.7999878
		c-1.5621223,1.1744366-1.6389885,3.3855801-0.3468018,4.6755981c1.0634251,1.0634251,2.3500462,0.8819866,2.4700317,0.9023438
		c0.5205078,4.2557983,4.1506958,7.5654297,8.545105,7.5654297s8.0245972-3.3096313,8.545105-7.5654297
		c0.1363525-0.0237064,1.3884239,0.174511,2.4749146-0.9101563c1.3053551-1.3429031,1.1784706-3.5135059-0.3530273-4.6664429
		c0.1054688-0.1292114,0.1772461-0.2876587,0.1772461-0.4673462V17.9077148z M27.5722656,24.1821289
		c0-0.8847656,0.7197266-1.6044922,1.6040039-1.6044922h0.1982422v3.2080078h-0.1982422
		C28.2727451,25.7856445,27.5722656,25.0864544,27.5722656,24.1821289z M47.9423828,25.3227539
		c-0.5621185,0.5602551-1.2364044,0.4466667-1.3364258,0.4628906v-3.2080078h0.1953125
		c0.8842773,0,1.6040039,0.7197266,1.6040039,1.6044922C48.4052734,24.6098633,48.237793,25.0180664,47.9423828,25.3227539z
		 M46.605957,21.0776367v-2.5449219c0-0.4140625-0.3359375-0.75-0.75-0.75s-0.75,0.3359375-0.75,0.75v7.703125
		c0,3.9238281-3.1918945,7.1152344-7.1157227,7.1152344s-7.1157227-3.1914063-7.1157227-7.1152344
		c0-0.1019039,0-7.4943333,0-7.1835938c1.0873413-0.428894,3.0358887-1.3398438,3.5866699-2.4818115
		c3.235157,1.9506779,6.9093208,2.0359097,10.5158691,0.9105225c0.9481392-0.2949772,0.4996758-1.7291431-0.4462891-1.4316406
		c-7.9414063,2.4746094-11.6220703-2.6865234-11.7802734-2.9169922c-0.5629883-0.8186779-1.795969,0.0287256-1.2392578,0.8457031
		c0.015625,0.0227051,0.5888062,0.8400879,1.7324219,1.7504272c-0.043335,0.0562134-0.0883789,0.1115723-0.1152344,0.1812134
		c-0.2016602,0.5253906-1.8461914,1.4150391-3.2548828,1.9160156c-0.2993164,0.1064453-0.4990234,0.3896484-0.4990234,0.7070313
		v2.5449219c-0.1023808,0.0043297-0.3102703-0.0192127-0.7290039,0.0536499v-3.2235718
		c0-5.1523438,4.1918945-9.3447266,9.3447266-9.3447266c5.1523438,0,9.3442383,4.1923828,9.3442383,9.3447266v3.2238159
		C46.892601,21.0543461,46.7628479,21.0842857,46.605957,21.0776367z" fill="#dc2626" class="svgShape color000000-0 selectable"></path><circle cx="41.78" cy="23.137" r="1.085" fill="#dc2626" class="svgShape color000000-1 selectable"></circle><path d="M40.3085938,19.9116211c-0.8608627,0.4845982-0.1367111,1.791111,0.7353516,1.3085938
		c0.012207-0.0078125,1.1967773-0.6601563,1.8564453,0.1328125c0.6293373,0.7576885,1.7938004-0.1877384,1.1542969-0.9570313
		C42.8955078,18.9985352,41.097168,19.4682617,40.3085938,19.9116211z" fill="#dc2626" class="svgShape color000000-2 selectable"></path><circle cx="34.271" cy="23.137" r="1.085" fill="#dc2626" class="svgShape color000000-3 selectable"></circle><path d="M35.0112305 21.2211914c.359375.2001953.8154297.0722656 1.0180664-.2880859.203125-.3613281.074707-.8183594-.2866211-1.0214844-.7890625-.4423828-2.5869141-.9130859-3.7460938.484375-.6399746.7698593.5256844 1.7138462 1.1542969.9570313C33.7958984 20.5776367 34.9526367 21.1889648 35.0112305 21.2211914zM37.4404297 26.7036133h1.2646484c.9920273 0 .9926262-1.5 0-1.5h-.5146484v-1.8017578c0-.9920273-1.5-.9926281-1.5 0v2.5517578C36.6904297 26.3676758 37.0263672 26.7036133 37.4404297 26.7036133zM39.3618164 27.9819336c-.5219727.4599609-1.0249023.6748047-1.5107422.6455078-.6679688-.0429688-1.1313477-.5537109-1.1469727-.5712891-.269043-.3125-.737793-.3515625-1.0527344-.0849609-.3168945.2675781-.3569336.7402344-.0898438 1.0566406.5072098.6051922 1.4278412 1.1025391 2.3862305 1.1025391.8251953 0 1.6333008-.34375 2.4052734-1.0234375.3110352-.2734375.3408203-.7470703.0673828-1.0585938C40.1459961 27.737793 39.6728516 27.7075195 39.3618164 27.9819336zM59.6362305 42.7026367c-3.9370117-6.4355469-12.8818359-7.1650391-13.2607422-7.1933594-.1502686-.0076904-.2841797.0369873-.4052734.1019897-1.3512764-1.9200249-1.3711319-2.3635483-1.9067383-2.4633179-.5704422-.1085243-.4839783.1577072-5.9140625 3.9041138-5.5612183-3.8365555-5.3618584-4.0094223-5.9140625-3.9041138-.53405.0994797-.5611897.5503769-1.8508911 2.3791504-1.2869225-.2291908-11.6640968 1.2726135-14.638855 9.1276855-.3521614.9289589 1.0521412 1.4580765 1.4023438.53125 1.5925293-4.2049561 5.5709229-6.272522 8.6973267-7.2746582l-.5054321 7.1662598c-.0308647.4382744.3172722.8027344.7480469.8027344h2.9545898l-1.7202148 2.671875c-.1845703.2861328-.152832.6601563.0761719.9111328l4.9931641 5.4755859c.6505356.7170944 1.7842598-.2700996 1.1083984-1.0097656l-4.6044922-5.0498047 2.1523438-3.3427734c.3221512-.5006561-.0398445-1.15625-.6303711-1.15625h-3.5249023l.4866943-6.9003906c1.0563354-.2565308 1.8984985-.3822632 2.343689-.4367676l7.3076172 22.5118408c-.2155952.2580986-.5637817.4222412-.5637817.8741455v4.4931641c0 .9920273 1.5.99263 1.5 0v-4.1826172l.8720703-.8720703 9.487793-10.4033203c.2290039-.2519531.2607422-.6259766.0761719-.9121094l-1.7202148-2.671875h2.9550781c.4307823 0 .7789116-.3644753.7480469-.8027344l-.519165-7.3602295c2.7670898.7918701 6.4466553 2.4280396 8.4903564 5.7684326C58.8671875 44.3227234 60.1518059 43.5452461 59.6362305 42.7026367zM43.7280273 34.9438477l.9331055 1.40625-2.7045898 4.6201172-2.7373047-2.8369141L43.7280273 34.9438477zM38.1494141 39.1841431l.5561523.5765381v2.4273071h-1.8979492v-1.6129761L38.1494141 39.1841431zM35.5924072 43.512146l-.6397095 4.7836304-2.4140015-7.4365845 1.008667 1.7233276c.1325874.2258911.3764992.3710938.6474609.3710938.4929428 0 .6578064-.4121704 1.112793-.8237305C35.3607445 42.7043724 35.1496582 43.1533279 35.5924072 43.512146zM37.0818481 43.6879883h1.3493042l1.1218262 8.3491211-1.6599121 5.3168945-1.8704224-5.762085C36.2130775 50.1708641 37.1412926 43.2443962 37.0818481 43.6879883zM40.6107788 48.6487427l-.6901855-5.1364746c.1697388-.1375122.2849731-.3389282.2849731-.5742798v-1.6224365c1.319294 1.2740059 1.4919243 1.88937 2.210144 1.5516357L40.6107788 48.6487427zM32.5708008 34.9438477l4.5087891 3.1894531-2.7373047 2.8369141-2.7045898-4.6201172L32.5708008 34.9438477zM48.8330078 44.3803711h-3.5253906c-.5905914 0-.9524803.6556587-.6303711 1.15625l2.1523438 3.3427734-7.1764526 7.8699341 5.0236206-16.0916138c.1017456-.3256836-.0376587-.6588135-.3079224-.8384399l1.6820679-2.8737793c.0684204.0267944.137085.0541992.2142334.0598755.026123.0018311.8479004.0698242 2.0709229.3286743L48.8330078 44.3803711z" fill="#dc2626" class="svgShape color000000-4 selectable"></path><path d="M42.4277344 62.4998169c0-.8743896-.7088013-1.5831909-1.5831299-1.5831909-.8743896 0-1.5831909.7088013-1.5831909 1.5831909 0 .8743286.7088013 1.5831299 1.5831909 1.5831299C41.7189331 64.0829468 42.4277344 63.3741455 42.4277344 62.4998169zM50.7929688 54.9643555c.9920273 0 .9926262-1.5 0-1.5h-4.0834961c-.9920273 0-.9926262 1.5 0 1.5H50.7929688zM55.1025391 65.5668945V49.5249023c0-.9920273-1.5-.9926262-1.5 0v16.0419922C53.6025391 66.5589218 55.1025391 66.5595245 55.1025391 65.5668945zM67.2006836 51.9985352v-1.0634766h.7416992c.4140625 0 .75-.3359375.75-.75v-3.0898438c0-.4140625-.3359375-.75-.75-.75h-7.105957c-.4140625 0-.75.3359375-.75.75v3.0898438c0 .4140625.3359375.75.75.75h.7416992v1.0634766c-1.800293.5693359-3.0493164 2.2402344-3.0493164 4.1884766v9.0263672c0 .9648438.7851563 1.75 1.75 1.75H68.5c.9648438 0 1.75-.7851563 1.75-1.75v-9.0263672C70.25 54.2387695 69.0009766 52.5678711 67.2006836 51.9985352zM61.5864258 47.8452148h5.605957v1.5898438h-5.605957V47.8452148zM62.4477539 53.3295898c.3632813-.0585938.6303711-.3720703.6303711-.7402344v-1.6542969h2.6225586v1.6542969c0 .3681641.2670898.6816406.6303711.7402344 1.145874.1852417 2.0246582 1.0270386 2.3108521 2.1074219h-8.5050049C60.4230957 54.3566284 61.3018799 53.5148315 62.4477539 53.3295898zM68.5 65.4633789h-8.2211914c-.1376953 0-.25-.1123047-.25-.25v-8.2763672H68.75v8.2763672C68.75 65.3510742 68.6376953 65.4633789 68.5 65.4633789zM5.5 66.9633789h6.730957c.9920273 0 .9926281-1.5 0-1.5H6.25v-2.9580078h6.4682617c.9920273 0 .9926281-1.5 0-1.5H6.25v-5.9414063h.9291992c.9920273 0 .9926281-1.5 0-1.5H6.25v-1.4098511c.3049664.145031-.0571904.0457268 7.9648438.0768433.9920273 0 .9926281-1.5 0-1.5C6.2308483 50.7619286 6.5596161 50.6605568 6.25 50.8078003v-2.0084839h10.2993164c.9920273 0 .9926281-1.5 0-1.5H5.5c-.4140625 0-.75.3359375-.75.75v18.1640625C4.75 66.6274414 5.0859375 66.9633789 5.5 66.9633789zM18.6816406 56.6118164c-1.418457.7763672-2.3100586 2.2587891-2.3100586 3.9033203v6.5195313c0 .4140625.3359375.75.75.75h3.1000977c.4140625 0 .75-.3359375.75-.75s-.3359375-.75-.75-.75H17.871582v-5.7695313c0-1.2060547.7236328-2.2802734 1.8427734-2.7363281.2827148-.1152344.4672852-.3896484.4672852-.6943359-.0226593-3.9078636.0332317-3.1947441-.0309448-3.4931641h1.3817139c-.0641766.29842-.0081921-.4308167-.0309448 3.4931641 0 .4140625.3359375.75.75.75s.75-.3359375.75-.75c-.0226593-3.9078636.0332317-3.1947441-.0309448-3.4931641h.3659058c.4140625 0 .75-.3359375.75-.75v-2.3271484c0-.4140625-.3359375-.75-.75-.75h-5.0761719c-.4140625 0-.75.3359375-.75.75v2.3271484c0 .4140625.3359375.75.75.75h.4523315c-.0109863.0510864-.0309448.098938-.0309448.1533203V56.6118164zM19.0102539 51.2641602h3.5761719v.8271484h-3.5761719V51.2641602zM26.4057617 52.840332c-1.0361328 0-1.8789063.8427734-1.8789063 1.8789063V56.43396c-.2626953.1166992-.4472656.3778687-.4472656.6837158v1.6103516h-.340332c-.4140625 0-.75.3359375-.75.75v6.7089844c0 .9648438.7851563 1.75 1.75 1.75h3.3334961c.9648438 0 1.75-.7851563 1.75-1.75v-6.7089844c0-.4140625-.3359375-.75-.75-.75h-.3408203v-1.6103516c0-.3058472-.1845703-.5670166-.4472656-.6837158v-1.7147217C28.284668 53.6831055 27.4418945 52.840332 26.4057617 52.840332zM26.784668 54.7192383v1.6484375h-.7578125v-1.6484375C26.0268555 54.2177773 26.784668 54.2182426 26.784668 54.7192383zM28.3227539 66.1870117c0 .1376953-.1123047.25-.25.25h-3.3334961c-.1376953 0-.25-.1123047-.25-.25v-5.9589844c.1284122 0 3.9510746 0 3.8334961 0V66.1870117zM25.5795898 58.7280273v-.8603516h1.6523438v.8603516H25.5795898z" fill="#000000" class="svgShape color000000-5 selectable"></path><path d="M14.8984375,53.5639648H9.4628906c-0.9920273,0-0.9926281,1.5,0,1.5h5.4355469
		C15.8904648,55.0639648,15.8910656,53.5639648,14.8984375,53.5639648z" fill="#000000" class="svgShape color000000-6 selectable"></path></svg></g></svg>