<svg xmlns="http://www.w3.org/2000/svg" viewBox="0 0 128 128" id="safe">
  <path d="M36 82a2 2 0 0 0 2-2V50.522A10.534 10.534 0 0 1 48.521 40h22.957A10.534 10.534 0 0 1 82 50.522v25.822l4-1.336V50.522A14.538 14.538 0 0 0 71.479 36H48.522A14.538 14.538 0 0 0 34 50.522V80a2 2 0 0 0 2 2Z"></path>
  <path d="m69.667 80.465 5.88-1.964A18.001 18.001 0 0 0 77 71.404V54.996a2 2 0 0 0-1.51-1.94 54.042 54.042 0 0 1-7.845-2.595 40.976 40.976 0 0 1-6.284-4.93 2.001 2.001 0 0 0-2.678-.04 44.018 44.018 0 0 1-6.455 4.63 48.26 48.26 0 0 1-7.774 2.95A2 2 0 0 0 43 54.997v16.408a17.964 17.964 0 0 0 8.378 15.21 16.982 16.982 0 0 1 2.941-1.02l2.174-.726-2.08-1.11A13.976 13.976 0 0 1 47 71.404V56.48a44.626 44.626 0 0 0 7.147-2.85 42.847 42.847 0 0 0 5.801-3.989 35.15 35.15 0 0 0 5.907 4.4A46.862 46.862 0 0 0 73 56.53v14.874a13.97 13.97 0 0 1-3.333 9.061Z"></path>
  <path d="m12.447 93.856 40.229 32.59a6.613 6.613 0 0 0 6.03 1.313l.134-.042 36.327-12.912.458-.15c.358-.117.71-.23 1.055-.334 1.334-.402 2.557-.633 3.454-.097l.866.47v2.552a6.762 6.762 0 0 0 6.754 6.754h4.492a6.762 6.762 0 0 0 6.754-6.754V80.754A6.762 6.762 0 0 0 112.246 74h-4.492A6.762 6.762 0 0 0 101 80.754v.734l-5.09-2.768-.01-.004a2.003 2.003 0 0 0-.392-.161c-2.375-.685-3.772-.965-5.282-.716a1.97 1.97 0 0 0-.308.077l-34.506 11.53c-4.26.964-8.609 4.456-9.343 8.923L23.73 79.612a8.881 8.881 0 0 0-6.359-2.072c-.115.008-.23.007-.347.019a8.9 8.9 0 0 0-4.894 2.113A9.239 9.239 0 0 0 10.87 81a9.41 9.41 0 0 0 1.578 12.856ZM105 80.754A2.757 2.757 0 0 1 107.754 78h4.492A2.757 2.757 0 0 1 115 80.754v36.492a2.757 2.757 0 0 1-2.754 2.754h-4.492a2.757 2.757 0 0 1-2.754-2.754Zm-57.774 23.81a9.897 9.897 0 0 0 2.116 2.627 9.735 9.735 0 0 0 7.709 2.337 2.03 2.03 0 0 0 .321-.07l21.456-6.571a2 2 0 0 0-1.172-3.824l-21.286 6.519a5.655 5.655 0 0 1-4.393-1.4 5.973 5.973 0 0 1-2.028-4.498c0-2.693 2.94-5.602 6.42-6.353a1.94 1.94 0 0 0 .211-.059l34.433-11.505a5.092 5.092 0 0 1 1.653.173l.045.01c.132.03.273.065.424.103l.178.046c.116.03.234.061.36.096l.277.076.246.07L101 86.04v24.194c-2.293-.792-4.663-.02-6.62.62l-36.804 13.067a2.592 2.592 0 0 1-.617.078 2.688 2.688 0 0 1-1.74-.64L14.993 90.771a5.37 5.37 0 0 1-.968-7.314 4.97 4.97 0 0 1 3.421-1.92 4.898 4.898 0 0 1 3.711 1.14Z"></path>
  <ellipse cx="110.255" cy="114.636" rx="2.248" ry="2.273"></ellipse>
  <path d="M61 32a16 16 0 1 0-16-16 16.018 16.018 0 0 0 16 16zm0-28a12 12 0 1 1-12 12A12.013 12.013 0 0 1 61 4zm-1 72a2 2 0 0 0 2-2v-5h5a2 2 0 0 0 0-4h-5v-5a2 2 0 0 0-4 0v5h-5a2 2 0 0 0 0 4h5v5a2 2 0 0 0 2 2z"></path>
</svg>
