<svg id="SvgjsSvg1074" width="288" height="288" xmlns="http://www.w3.org/2000/svg" version="1.1" xmlns:xlink="http://www.w3.org/1999/xlink" xmlns:svgjs="http://svgjs.com/svgjs"><defs id="SvgjsDefs1075"></defs><g id="SvgjsG1076"><svg xmlns="http://www.w3.org/2000/svg" viewBox="0 0 64 64" width="288" height="288"><path d="M39,35H36V32a1,1,0,0,0-1-1H29a1,1,0,0,0-1,1v3H25a1,1,0,0,0-1,1v6a1,1,0,0,0,1,1h3v3a1,1,0,0,0,1,1h6a1,1,0,0,0,1-1V43h3a1,1,0,0,0,1-1V36A1,1,0,0,0,39,35Zm-1,6H35a1,1,0,0,0-1,1v3H30V42a1,1,0,0,0-1-1H26V37h3a1,1,0,0,0,1-1V33h4v3a1,1,0,0,0,1,1h3Z" fill="#dc2626" class="svgShape color000000-0 selectable"></path><path d="M42,3H22a1,1,0,0,0-1,1V5H19a5,5,0,0,0-5,5v2H6a1,1,0,0,0-1,1v9a1,1,0,0,0,1,1H7V56a1,1,0,0,0,1,1H56a1,1,0,0,0,1-1V23h1a1,1,0,0,0,1-1V13a1,1,0,0,0-1-1H50V10a5,5,0,0,0-5-5H43V4A1,1,0,0,0,42,3ZM23,5H41V7H23ZM55,55H9V23h3v3a1,1,0,0,0,1,1h5a1,1,0,0,0,1-1V23H45v3a1,1,0,0,0,1,1h5a1,1,0,0,0,1-1V23h3ZM14,25V19h3v6Zm33,0V19h3v6Zm10-4H52V18a1,1,0,0,0-1-1H46a1,1,0,0,0-1,1v3H19V18a1,1,0,0,0-1-1H13a1,1,0,0,0-1,1v3H7V14H57ZM45,7a3,3,0,0,1,3,3v2H16V10a3,3,0,0,1,3-3h2V8a1,1,0,0,0,1,1H42a1,1,0,0,0,1-1V7Z" fill="#000000" class="svgShape color000000-1 selectable"></path></svg></g></svg>