<svg width="512" height="512" viewBox="0 0 512 512" fill="none" xmlns="http://www.w3.org/2000/svg">
<path d="M443.36 416.88C441.934 415.788 440.269 415.052 438.502 414.732C436.736 414.412 434.918 414.518 433.2 415.04L322.24 447.68C321.516 447.909 320.759 448.017 320 448H256C254.623 448.016 253.268 447.656 252.08 446.96L180.08 406.96C178.545 406.09 177.34 404.737 176.654 403.111C175.968 401.486 175.838 399.679 176.286 397.972C176.733 396.265 177.732 394.754 179.127 393.674C180.522 392.594 182.236 392.005 184 392H288V379.28L276.08 367.36L159.2 344H113.52L80 357.44V448H104C104.868 448.016 105.729 448.15 106.56 448.4L201.28 480H318.64L440.32 437.04C442.29 436.337 444.033 435.113 445.363 433.498C446.693 431.883 447.56 429.938 447.872 427.87C448.183 425.801 447.929 423.687 447.134 421.751C446.34 419.816 445.035 418.133 443.36 416.88Z" fill="#DC2626"/>
<path d="M32 470.56L64 465.2V334.8L32 329.44V470.56Z" fill="black"/>
<path d="M256 304C317.76 304 368 235.816 368 152V62.1518L256 32.2798L144 62.1518V152C144 235.816 194.24 304 256 304ZM184 184V152C184 147.756 185.686 143.687 188.686 140.686C191.687 137.685 195.757 136 200 136H224V112C224 107.756 225.686 103.687 228.686 100.686C231.687 97.6855 235.757 95.9998 240 95.9998H272C276.243 95.9998 280.313 97.6855 283.314 100.686C286.314 103.687 288 107.756 288 112V136H312C316.243 136 320.313 137.685 323.314 140.686C326.314 143.687 328 147.756 328 152V184C328 188.243 326.314 192.313 323.314 195.313C320.313 198.314 316.243 200 312 200H288V224C288 228.243 286.314 232.313 283.314 235.313C280.313 238.314 276.243 240 272 240H240C235.757 240 231.687 238.314 228.686 235.313C225.686 232.313 224 228.243 224 224V200H200C195.757 200 191.687 198.314 188.686 195.313C185.686 192.313 184 188.243 184 184Z" fill="#DC2626"/>
<path d="M416 64H432V48H448V32H432V16H416V32H400V48H416V64Z" fill="black"/>
<path d="M496 80H480V64H464V80H448V96H464V112H480V96H496V80Z" fill="black"/>
<path d="M368 280V296H384V312H400V296H416V280H400V264H384V280H368Z" fill="black"/>
<path d="M448 216H432V232H416V248H432V264H448V248H464V232H448V216Z" fill="black"/>
<path d="M80 64H96V48H112V32H96V16H80V32H64V48H80V64Z" fill="black"/>
<path d="M32 112H48V96H64V80H48V64H32V80H16V96H32V112Z" fill="black"/>
<path d="M112 264V280H96V296H112V312H128V296H144V280H128V264H112Z" fill="black"/>
<path d="M80 264V248H96V232H80V216H64V232H48V248H64V264H80Z" fill="black"/>
<path d="M240 200V224H272V200C272 195.757 273.686 191.687 276.686 188.686C279.687 185.686 283.757 184 288 184H312V152H288C283.757 152 279.687 150.314 276.686 147.314C273.686 144.313 272 140.243 272 136V112H240V136C240 140.243 238.314 144.313 235.314 147.314C232.313 150.314 228.243 152 224 152H200V184H224C228.243 184 232.313 185.686 235.314 188.686C238.314 191.687 240 195.757 240 200Z" fill="black"/>
</svg>
