<svg id="SvgjsSvg1026" width="288" height="288" xmlns="http://www.w3.org/2000/svg" version="1.1" xmlns:xlink="http://www.w3.org/1999/xlink" xmlns:svgjs="http://svgjs.com/svgjs"><defs id="SvgjsDefs1027"></defs><g id="SvgjsG1028"><svg xmlns="http://www.w3.org/2000/svg" viewBox="0 0 64 64" width="288" height="288"><path fill="#000000" d="M56.1 27c-1.6 3.4-4.3 6.3-7.6 8.3 1.3 1.1 2 2.5 2 3.9 0 1.2-.5 2.2-1.5 2.8-.7.4-1.5.6-2.6.6-.9 0-1.9-.1-3.1-.3-1.5-.2-3.1-.4-4.8-.4-1.7 0-3.4.2-4.8.4-1.2.1-2.2.3-3.1.3-3.8 0-4.1-2.6-4.1-3.4 0-1.5.7-2.8 2-3.9-3.6-2.1-6.3-5.3-7.9-9-.8.5-1.5 1.2-2.2 1.8 0 0-2.5 1.6-4.2.3-.7-.5-1.6-.9-2.5-.8-.8.1-1.5.3-1.6 1.1 0 0 1.6 1.8-.4 3.1-5.1 3.4-2.6 5.8-9.2 6.4 0 0-1.8 4.3 1.2 5.8 0 0 2.3 7.6 13.5 7.9 0 0 9-1.7 5.1 10.5-.1.4.2.8.6.8H25c.2 0 .3-.1.4-.2l2-2.2s.3-.2.5-.6c.3-.5.3-1.1.2-1.7-.1-.5.1-1.6 3-2.5 0 0 12.1 1.7 15.3-.8 0 0 3.9 1.9.5 7-.3.4 0 .9.5.9h4.8c.2 0 .4-.1.5-.3.7-1 3-4.6 2-6.2.2.1 19.8-13.7 1.4-29.6zm-41.5 9.6c-.8 0-1.4-.6-1.4-1.4 0-.8.6-1.4 1.4-1.4.8 0 1.4.6 1.4 1.4 0 .7-.6 1.4-1.4 1.4z" class="svgShape color010101-0 selectable"></path><path fill="#dd2a2a" d="M56.2 18.4C56.2 8.7 48.3.8 38.6.8 28.9.8 21 8.7 21 18.4c0 7.8 5 14.3 12 16.7-2.7.9-4.5 2.4-4.5 4.1 0 2.7 4.5.8 10.1.8s10.1 1.9 10.1-.8c0-1.7-1.8-3.2-4.5-4.1 6.9-2.3 12-8.9 12-16.7zM38.5 33.2c-8.1 0-14.7-6.6-14.7-14.7S30.4 3.8 38.5 3.8s14.7 6.6 14.7 14.7-6.6 14.7-14.7 14.7z" class="svgShape color010101-1 selectable"></path><path fill="#dd2a2a" d="M38.5 7.8c.7 0 1.3-.6 1.3-1.3 0-.7-.6-1.3-1.3-1.3-.7 0-1.3.6-1.3 1.3 0 .7.6 1.3 1.3 1.3zm0 21.3c-.7 0-1.3.6-1.3 1.3 0 .7.6 1.3 1.3 1.3.7 0 1.3-.6 1.3-1.3 0-.8-.6-1.3-1.3-1.3zm11.9-12c-.7 0-1.3.6-1.3 1.3 0 .7.6 1.3 1.3 1.3.7 0 1.3-.6 1.3-1.3 0-.7-.6-1.3-1.3-1.3zm-23.8 0c-.7 0-1.3.6-1.3 1.3 0 .7.6 1.3 1.3 1.3.7 0 1.3-.6 1.3-1.3 0-.7-.6-1.3-1.3-1.3zm21.3-6.2c.5-.5.5-1.3 0-1.8s-1.3-.5-1.8 0-.5 1.3 0 1.8c.4.6 1.3.5 1.8 0zm-18.7 15c-.5.5-.5 1.3 0 1.8s1.3.5 1.8 0 .5-1.3 0-1.8-1.3-.5-1.8 0zm16.8 0c-.5.5-.5 1.3 0 1.8s1.3.5 1.8 0 .5-1.3 0-1.8c-.4-.5-1.3-.5-1.8 0zM29.2 9.1c-.5.5-.5 1.3 0 1.8s1.3.5 1.8 0 .5-1.3 0-1.8-1.3-.5-1.8 0zM46 18.4c0-.4-.3-.7-.7-.7H40c-.2-.4-.5-.7-.8-.8V10c0-.4-.3-.7-.7-.7-.4 0-.7.3-.7.7v6.9c-.6.3-1 .8-1 1.5 0 .9.7 1.6 1.7 1.6.7 0 1.2-.4 1.5-1h5.3c.4.1.7-.2.7-.6z" class="svgShape color010101-2 selectable"></path></svg></g></svg>