<svg width="100" height="100" viewBox="0 0 100 100" fill="none" xmlns="http://www.w3.org/2000/svg">
<path d="M17.5771 50.2188H7.81236C7.39838 50.22 7.0017 50.385 6.70896 50.6777C6.41623 50.9704 6.25123 51.3671 6.25 51.7811V83.0908C6.25122 83.5048 6.41621 83.9015 6.70895 84.1942C7.00168 84.487 7.39837 84.652 7.81236 84.6532H17.5771C18.8129 84.6556 19.9994 84.169 20.8776 83.2996C21.7557 82.4302 22.2542 81.2486 22.2642 80.0129V54.9058C22.2567 53.665 21.7605 52.4772 20.8831 51.5998C20.0057 50.7224 18.8179 50.2262 17.5771 50.2188ZM14.2493 61.1552C13.8403 61.147 13.4509 60.9788 13.1646 60.6867C12.8783 60.3946 12.7179 60.0019 12.7179 59.5928C12.7179 59.1838 12.8783 58.7911 13.1646 58.499C13.451 58.2069 13.8404 58.0387 14.2494 58.0305C14.6583 58.0387 15.0478 58.2069 15.3341 58.499C15.6204 58.7912 15.7808 59.1839 15.7807 59.5929C15.7807 60.002 15.6203 60.3947 15.334 60.6868C15.0477 60.9789 14.6582 61.1471 14.2493 61.1552Z" fill="#DC2626"/>
<path d="M93.3985 67.9989C92.874 66.5187 91.8039 65.2949 90.407 64.5776C89.0101 63.8603 87.3919 63.7037 85.8834 64.1399L72.6503 67.9832C72.5883 70.6148 71.4993 73.1177 69.6163 74.9569C67.7332 76.7962 65.2054 77.8259 62.5731 77.8261H47.9651C47.556 77.8181 47.1663 77.65 46.8799 77.3578C46.5934 77.0657 46.4329 76.6728 46.4329 76.2637C46.4329 75.8545 46.5934 75.4616 46.8799 75.1695C47.1664 74.8774 47.5561 74.7093 47.9652 74.7014H62.5731C71.7679 74.4234 71.7936 61.0438 62.5729 60.7495H51.2773C50.3419 60.7532 49.4252 60.4874 48.6369 59.9838C44.8512 57.5949 39.9877 53.8381 35.2474 54.1722L25.3577 54.1719C25.3733 54.3906 25.3889 54.6407 25.3889 54.9062V80.0133C25.3858 80.5438 25.3282 81.0726 25.217 81.5913C25.7186 81.6243 26.2054 81.7741 26.6387 82.0288L38.7002 89.0594C41.8867 90.9195 45.4788 91.9742 49.1652 92.1322C52.8515 92.2901 56.5206 91.5464 59.8545 89.9656L90.2268 75.5919C91.6023 74.9442 92.6884 73.8089 93.2744 72.4059C93.8604 71.003 93.9046 69.4325 93.3985 67.9989Z" fill="black"/>
<path d="M46.8713 32.783H43.8091C44.1884 38.4427 46.6081 43.7726 50.6191 47.7835C54.6301 51.7945 59.96 54.2142 65.6197 54.5935V51.5313C65.6276 51.1222 65.7958 50.7326 66.0879 50.4461C66.38 50.1596 66.7729 49.9991 67.1821 49.9991C67.5912 49.9991 67.9841 50.1596 68.2762 50.4461C68.5683 50.7326 68.7364 51.1223 68.7444 51.5314V54.5935C74.4041 54.2142 79.734 51.7945 83.745 47.7835C87.756 43.7726 90.1756 38.4427 90.555 32.783H87.4927C87.0783 32.783 86.681 32.6184 86.388 32.3254C86.095 32.0324 85.9303 31.635 85.9303 31.2206C85.9303 30.8062 86.095 30.4089 86.388 30.1159C86.681 29.8229 87.0783 29.6583 87.4927 29.6583H90.555C90.1757 23.9985 87.756 18.6686 83.745 14.6576C79.734 10.6466 74.4041 8.22695 68.7444 7.84766V10.9099C68.7364 11.319 68.5683 11.7086 68.2761 11.9951C67.984 12.2816 67.5911 12.4421 67.182 12.4421C66.7728 12.4421 66.38 12.2816 66.0878 11.9951C65.7957 11.7086 65.6276 11.3189 65.6197 10.9098V7.84766C59.96 8.22695 54.63 10.6466 50.619 14.6576C46.608 18.6686 44.1884 23.9985 43.8091 29.6583H46.8713C47.2804 29.6662 47.6701 29.8343 47.9566 30.1265C48.243 30.4186 48.4035 30.8114 48.4035 31.2206C48.4035 31.6298 48.243 32.0226 47.9566 32.3148C47.6701 32.6069 47.2804 32.775 46.8713 32.783ZM61.6513 34.5328L65.6197 30.5643V20.2841C65.6252 19.8733 65.7922 19.4813 66.0846 19.1928C66.377 18.9043 66.7712 18.7425 67.182 18.7425C67.5928 18.7425 67.987 18.9043 68.2794 19.1928C68.5718 19.4813 68.7389 19.8733 68.7444 20.2841V31.2205C68.7392 31.6343 68.5773 32.0307 68.2913 32.3297L63.8698 36.7513C63.5735 37.035 63.1778 37.1913 62.7677 37.1868C62.3575 37.1823 61.9654 37.0173 61.6753 36.7273C61.3853 36.4372 61.2203 36.0451 61.2158 35.6349C61.2114 35.2248 61.3677 34.8291 61.6513 34.5328Z" fill="#DC2626"/>
</svg>
