<svg width="48" height="48" viewBox="0 0 48 48" fill="none" xmlns="http://www.w3.org/2000/svg">
<g clip-path="url(#clip0_217_187)">
<path d="M36.2305 26.2695H34.7305V27.7695H36.2305V26.2695Z" fill="black"/>
<path d="M36.2305 43.1914H34.7305V44.6914H36.2305V43.1914Z" fill="black"/>
<path d="M44.6914 34.7305H43.1914V36.2305H44.6914V34.7305Z" fill="black"/>
<path d="M27.7695 34.7305H26.2695V36.2305H27.7695V34.7305Z" fill="black"/>
<path d="M36.2305 29.2891H34.7305V35.4791C34.7305 35.8891 35.0705 36.2291 35.4805 36.2291H40.1805V34.7291H36.2305V29.2891Z" fill="black"/>
<path d="M0.5 39.67C0.5 41.77 2.21 43.47 4.3 43.47H26.52C28.72 45.94 31.92 47.5 35.47 47.5C42.1 47.5 47.49 42.11 47.49 35.48C47.49 31.92 45.93 28.73 43.46 26.53V9.42C43.46 7.32 41.75 5.62 39.66 5.62H35.84V3.72C35.84 1.94 34.39 0.5 32.62 0.5C30.84 0.5 29.4 1.95 29.4 3.72V5.62H14.56V3.72C14.56 1.94 13.11 0.5 11.34 0.5C9.56 0.5 8.12 1.95 8.12 3.72V5.62H4.3C2.2 5.62 0.5 7.33 0.5 9.42V39.67ZM46 35.48C46 41.28 41.28 46 35.48 46C29.68 46 24.96 41.28 24.96 35.48C24.96 29.68 29.68 24.96 35.48 24.96C41.28 24.96 46 29.68 46 35.48ZM37.15 23.59C36.6 23.51 36.05 23.46 35.48 23.46C34.36 23.46 33.27 23.63 32.24 23.92V19.87H37.16V23.59H37.15ZM38.65 23.9V19.12C38.65 18.71 38.31 18.37 37.9 18.37H31.48C31.07 18.37 30.73 18.71 30.73 19.12V24.44C27.84 25.69 25.53 28.04 24.34 30.96H18.77C18.36 30.96 18.02 31.3 18.02 31.71V38.13C18.02 38.54 18.36 38.88 18.77 38.88H23.95C24.28 39.99 24.76 41.03 25.37 41.97H4.3C3.03 41.97 2 40.94 2 39.67V15.26H41.97V25.38C40.96 24.73 39.84 24.23 38.65 23.9ZM23.62 37.38H19.52V32.46H23.85C23.6 33.43 23.45 34.44 23.45 35.48C23.46 36.13 23.53 36.76 23.62 37.38ZM30.91 3.72C30.91 2.77 31.68 2 32.63 2C33.58 2 34.35 2.77 34.35 3.72V8.72C34.35 9.67 33.58 10.44 32.63 10.44C31.68 10.44 30.91 9.67 30.91 8.72V3.72ZM9.62 3.72C9.62 2.77 10.39 2 11.34 2C12.29 2 13.06 2.77 13.06 3.72V8.72C13.06 9.67 12.29 10.44 11.34 10.44C10.39 10.44 9.62 9.67 9.62 8.72V3.72ZM4.3 7.12H8.12V8.73C8.12 10.51 9.57 11.95 11.34 11.95C13.12 11.95 14.56 10.5 14.56 8.73V7.12H29.41V8.73C29.41 10.51 30.86 11.95 32.63 11.95C34.41 11.95 35.85 10.5 35.85 8.73V7.12H39.67C40.94 7.12 41.97 8.15 41.97 9.42V13.75H2V9.42C2 8.15 3.03 7.12 4.3 7.12Z" fill="#DC2626"/>
<path d="M12.4803 18.3711H6.07031C5.66031 18.3711 5.32031 18.7111 5.32031 19.1211V25.5411C5.32031 25.9511 5.66031 26.2911 6.07031 26.2911H12.4903C12.9003 26.2911 13.2403 25.9511 13.2403 25.5411V19.1211C13.2303 18.7011 12.9003 18.3711 12.4803 18.3711ZM11.7303 24.7811H6.82031V19.8611H11.7403V24.7811H11.7303ZM12.4803 30.9611H6.07031C5.66031 30.9611 5.32031 31.3011 5.32031 31.7111V38.1311C5.32031 38.5411 5.66031 38.8811 6.07031 38.8811H12.4903C12.9003 38.8811 13.2403 38.5411 13.2403 38.1311V31.7111C13.2303 31.2911 12.9003 30.9611 12.4803 30.9611ZM11.7303 37.3811H6.82031V32.4611H11.7403V37.3811H11.7303ZM25.1903 18.3711H18.7703C18.3603 18.3711 18.0203 18.7111 18.0203 19.1211V25.5411C18.0203 25.9511 18.3603 26.2911 18.7703 26.2911H25.1903C25.6003 26.2911 25.9403 25.9511 25.9403 25.5411V19.1211C25.9403 18.7011 25.6103 18.3711 25.1903 18.3711ZM24.4403 24.7811H19.5203V19.8611H24.4403V24.7811Z" fill="black"/>
</g>
<defs>
<clipPath id="clip0_217_187">
<rect width="48" height="48" fill="white"/>
</clipPath>
</defs>
</svg>
