<?xml version="1.0" encoding="UTF-8"?>
<svg xmlns="http://www.w3.org/2000/svg" id="Layer_1" data-name="Layer 1" viewBox="0 0 64 64" width="512" height="512"><path d="M18,58a5,5,0,1,1,5-5A5.006,5.006,0,0,1,18,58Zm0-8a3,3,0,1,0,3,3A3,3,0,0,0,18,50Z"/><path d="M63,54H57a1,1,0,0,1-1-1,6,6,0,0,0-12,0,1,1,0,0,1-1,1H25a1,1,0,0,1-1-1,6,6,0,0,0-12,0,1,1,0,0,1-1,1H5a1,1,0,0,1-1-1V43a1,1,0,0,1,1-1H37V24a1,1,0,0,1,1-1h4a1,1,0,0,1,0,2H39V43a1,1,0,0,1-1,1H6v8h4.062a8,8,0,0,1,15.876,0H42.062a8,8,0,0,1,15.876,0H62V42.618L56.553,39.9a1,1,0,0,1-.482-.523l-5.5-13.743A.994.994,0,0,0,49.646,25H46a1,1,0,0,1,0-2h3.646a2.987,2.987,0,0,1,2.786,1.886l5.355,13.389,5.66,2.83A1,1,0,0,1,64,42V53A1,1,0,0,1,63,54Z"/><path d="M50,58a5,5,0,1,1,5-5A5.006,5.006,0,0,1,50,58Zm0-8a3,3,0,1,0,3,3A3,3,0,0,0,50,50Z"/><path d="M52,40H42a1,1,0,0,1-1-1V28a1,1,0,0,1,1-1h6a1,1,0,0,1,.94.658l4,11A1,1,0,0,1,52,40Zm-9-2h7.572L47.3,29H43Z"/><path d="M38,44H5a1,1,0,0,1-1-1V33a1,1,0,0,1,2,0v9H37V20H30a1,1,0,0,1,0-2h8a1,1,0,0,1,1,1V43A1,1,0,0,1,38,44Z"/><path d="M14,38a.994.994,0,0,1-.436-.1c-5.77-2.8-9.872-8.737-12.19-17.648a1,1,0,1,1,1.935-.5C5.41,27.833,9.006,33.257,14,35.88c7.734-4.049,10.747-14.072,11.9-22.163a62.734,62.734,0,0,1-11.9-5.57A62.8,62.8,0,0,1,2.107,13.716c.1.715.217,1.42.341,2.106a1,1,0,1,1-1.968.356C.3,15.189.143,14.163.008,13.129a1,1,0,0,1,.723-1.092C4.9,10.874,8.984,8.673,13.5,6.128a1.009,1.009,0,0,1,.982,0c4.516,2.543,8.6,4.743,12.784,5.909a1,1,0,0,1,.724,1.09c-1.14,8.863-4.418,20.354-13.56,24.773A.99.99,0,0,1,14,38Z"/><path d="M13,26a1,1,0,0,1-.707-.293l-3-3a1,1,0,0,1,1.414-1.414L13,23.586l6.293-6.293a1,1,0,0,1,1.414,1.414l-7,7A1,1,0,0,1,13,26Z"/></svg>
