<svg id="SvgjsSvg1179" width="288" height="288" xmlns="http://www.w3.org/2000/svg" version="1.1" xmlns:xlink="http://www.w3.org/1999/xlink" xmlns:svgjs="http://svgjs.com/svgjs"><defs id="SvgjsDefs1180"></defs><g id="SvgjsG1181"><svg xmlns="http://www.w3.org/2000/svg" viewBox="0 0 64 64" width="288" height="288"><circle cx="7" cy="7" r="1" fill="#000000" class="svgShape color000000-0 selectable"></circle><circle cx="11" cy="7" r="1" fill="#000000" class="svgShape color000000-1 selectable"></circle><circle cx="15" cy="7" r="1" fill="#000000" class="svgShape color000000-2 selectable"></circle><path d="M61 23a1 1 0 0 0-1 1v36H4v-5a1 1 0 0 0-2 0v6a1 1 0 0 0 1 1h58a1 1 0 0 0 1-1V24a1 1 0 0 0-1-1zm0-21H3a1 1 0 0 0-1 1v48a1 1 0 0 0 2 0V12h53a1 1 0 0 0 0-2H20V4h40v16a1 1 0 0 0 2 0V3a1 1 0 0 0-1-1zM4 4h14v6H4z" fill="#000000" class="svgShape color000000-3 selectable"></path><path d="M23 6a1 1 0 0 0 0 2h24a1 1 0 0 0 0-2zm29 0a1 1 0 0 0 0 2h5a1 1 0 0 0 0-2zM38 32a6.006 6.006 0 0 0-6 6v11a1 1 0 0 0 1 1h24a1 1 0 0 0 1-1v-4a1 1 0 0 0-2 0v3H46V37.858A4 4 0 0 0 49 34h1v3.184A3 3 0 0 0 48 40v3a1 1 0 0 0 1 1h1a1 1 0 0 0 0-2v-2a1 1 0 0 1 2 0v3a1 1 0 0 0 2 0v-3a3 3 0 0 0-2-2.816V34a4 4 0 0 1 4 4v3a1 1 0 0 0 2 0v-3a6.006 6.006 0 0 0-6-6h-1.726A7.976 7.976 0 0 0 53 26v-6a6.006 6.006 0 0 0-6-6h-4a6.017 6.017 0 0 0-5.88 4.8 1 1 0 1 0 1.959.4 4.006 4.006 0 0 1 3.074-3.1A2.937 2.937 0 0 0 42 17v1a1 1 0 0 0 2 0v-1a1 1 0 0 1 2 0v1a1 1 0 0 0 2 0v-1a2.954 2.954 0 0 0-.155-.906A4 4 0 0 1 51 20v1.708a26.447 26.447 0 0 0-13.274.331A1 1 0 0 0 37 23v3a7.976 7.976 0 0 0 2.726 6zm1 8a1 1 0 1 1-1 1 1 1 0 0 1 1-1zm-5 8V38a4 4 0 0 1 4-4v4.184a3 3 0 1 0 2 0V34h1a4 4 0 0 0 3 3.858V48zm11-12a2 2 0 0 1-2-2v-.263a7.736 7.736 0 0 0 4 0V34a2 2 0 0 1-2 2zm-6-10v-2.234a24.47 24.47 0 0 1 12 0V26a6 6 0 0 1-12 0z" fill="#000000" class="svgShape color000000-4 selectable"></path><circle cx="42" cy="25" r="1" fill="#000000" class="svgShape color000000-5 selectable"></circle><circle cx="48" cy="25" r="1" fill="#000000" class="svgShape color000000-6 selectable"></circle><path d="M42.105 28.553a1 1 0 0 0 .448 1.342 5.5 5.5 0 0 0 4.894 0 1 1 0 1 0-.894-1.79 3.484 3.484 0 0 1-3.106 0 1 1 0 0 0-1.342.448zM8 39a1 1 0 0 0-1 1v9a1 1 0 0 0 1 1h20a1 1 0 0 0 1-1V25a1 1 0 0 0-1-1h-4v-2a1 1 0 0 0-1-1h-2v-1a3 3 0 0 0-6 0v1h-2a1 1 0 0 0-1 1v2H8a1 1 0 0 0-1 1v11a1 1 0 0 0 2 0V26h3v1a1 1 0 0 0 1 1h10a1 1 0 0 0 1-1v-1h3v22H9v-8a1 1 0 0 0-1-1zm9-19a1 1 0 0 1 2 0v1h-2zm5 6h-8v-3h8z" fill="#dc2626" class="svgShape color000000-7 selectable"></path><path d="M20 30h-4a1 1 0 0 0-1 1v2h-2a1 1 0 0 0-1 1v4a1 1 0 0 0 1 1h2v2a1 1 0 0 0 1 1h4a1 1 0 0 0 1-1v-2h2a1 1 0 0 0 1-1v-4a1 1 0 0 0-1-1h-2v-2a1 1 0 0 0-1-1zm2 5v2h-2a1 1 0 0 0-1 1v2h-2v-2a1 1 0 0 0-1-1h-2v-2h2a1 1 0 0 0 1-1v-2h2v2a1 1 0 0 0 1 1zm-8 9a1 1 0 0 0 0 2h8a1 1 0 0 0 0-2zm-2 9a1 1 0 0 0 1 1h44a1 1 0 0 0 0-2H13a1 1 0 0 0-1 1zm-4 4.829h12a1 1 0 1 0 0-2H8a1 1 0 0 0 0 2zM24 56a1 1 0 0 0 0 2h7a1 1 0 0 0 0-2zm11 0a1 1 0 0 0 0 2h15a1 1 0 0 0 0-2z" fill="#dc2626" class="svgShape color000000-8 selectable"></path></svg></g></svg>