<svg xmlns="http://www.w3.org/2000/svg" viewBox="0 0 99 99" id="services">
  <path d="M93.43 53.288c1.02-.11 1.8-.97 1.8-2v-5.2c0-1.04-.78-1.89-1.8-2l-5.29-.57c-.66-3.33-1.95-6.45-3.85-9.28l3.34-4.15c.65-.81.59-1.96-.14-2.69l-3.69-3.68c-.73-.73-1.88-.8-2.68-.15l-4.16 3.35a25.853 25.853 0 0 0-9.26-3.85l-.56-5.23a2.083 2.083 0 0 0-2.08-1.86h-5.08c-1.07 0-1.96.8-2.07 1.86l-.56 5.23c-3.3.66-6.48 1.98-9.27 3.85l-4.15-3.35a2.01 2.01 0 0 0-2.69.15l-3.69 3.68a2.02 2.02 0 0 0-.14 2.69l3.34 4.15c-1.9 2.83-3.19 5.95-3.85 9.28l-5.29.57c-1.02.1-1.79.96-1.79 2v5.2c0 1.03.77 1.89 1.79 2l5.29.57a25.538 25.538 0 0 0 2.954 7.82 20.955 20.955 0 0 1-2.27-1.119c-5.848-3.355-11.737-3.025-11.92-3.048v-2.76c0-1.654-1.346-3-3-3H6.769c-1.654 0-3 1.346-3 3v28.405c0 1.654 1.346 3 3 3h15.895c1.654 0 3-1.346 3-3V81.27l14.384 5.432a32.318 32.318 0 0 0 11.46 2.093 32.613 32.613 0 0 0 14.624-3.485l24.795-12.515a5.942 5.942 0 0 0 2.735-7.761c-1.334-2.969-4.824-4.309-7.784-2.98l-1.254.557a25.455 25.455 0 0 0 3.517-8.754l5.29-.57zM23.665 83.156a1 1 0 0 1-1 1H6.769a1 1 0 0 1-1-1V54.752a1 1 0 0 1 1-1h15.895a1 1 0 0 1 1 1v28.404zm63.029-19.275c1.956-.875 4.263.01 5.145 1.974a3.946 3.946 0 0 1-1.811 5.155L65.232 83.526a30.612 30.612 0 0 1-13.724 3.27 30.33 30.33 0 0 1-10.753-1.964l-15.083-5.697V59.511c.303.038 5.384-.391 10.918 2.783a23.002 23.002 0 0 0 11.428 3.048h11.65c2.214 0 4.017 1.819 4.017 4.054 0 2.24-1.806 4.053-4.017 4.053H42.426a1 1 0 1 0 0 2h17.242c1.239 0 2.391-.379 3.35-1.026L86.692 63.88zm-.382-11.113c-.6 3.57-1.97 6.87-4.08 9.84a.978.978 0 0 0-.027 1.082l-16.78 7.47c.17-.558.261-1.15.261-1.764 0-3.338-2.699-6.054-6.017-6.054h-11.65a20.93 20.93 0 0 1-5.167-.655c-.015-.026-.022-.054-.04-.08a23.85 23.85 0 0 1-4.08-9.84.977.977 0 0 0-.88-.82l-6.03-.66.01-5.22 6.02-.64c.45-.05.81-.39.88-.83a23.81 23.81 0 0 1 4.08-9.83.99.99 0 0 0-.04-1.2l-3.8-4.75 3.7-3.69 4.73 3.821c.35.28.85.29 1.21.03 2.9-2.07 6.3-3.48 9.82-4.07.44-.08.78-.44.83-.88l.63-5.97c.01-.05.05-.08.09-.08h5.08c.05 0 .08.03.09.08l.64 5.97c.04.44.38.8.82.88 3.52.59 6.92 2 9.82 4.07.37.26.86.25 1.21-.03l4.75-3.82 3.69 3.7-3.81 4.74a.99.99 0 0 0-.04 1.2c2.11 2.96 3.48 6.27 4.08 9.83.07.44.43.78.88.83l6.04.66-.01 5.21-6.03.65c-.45.04-.81.38-.88.82z"></path>
  <path d="M52.72 33.923a.751.751 0 0 0-.83-1.25c-5.388 3.58-8.606 9.564-8.606 16.007 0 .132.008.262.016.392l.013.227a.751.751 0 0 0 .75.728h.022a.751.751 0 0 0 .728-.771c-.003-.096-.01-.19-.015-.286a4.06 4.06 0 0 1-.014-.29c0-5.94 2.967-11.456 7.936-14.757zm3.642-1.904a.748.748 0 0 0 .25-.043 17.722 17.722 0 0 1 5.182-.997.75.75 0 0 0-.03-1.499l-.03.001a19.188 19.188 0 0 0-5.622 1.081.75.75 0 0 0 .25 1.457zm22.546 8.693a.75.75 0 0 0-.385.988 17.232 17.232 0 0 1 1.479 6.98c0 2.649-.583 5.194-1.735 7.565a.75.75 0 1 0 1.35.654 18.664 18.664 0 0 0 1.885-8.22c0-2.609-.54-5.16-1.606-7.583a.752.752 0 0 0-.988-.384zM75.3 60.558a17.622 17.622 0 0 1-3.381 2.815.75.75 0 0 0 .808 1.263 19.214 19.214 0 0 0 3.67-3.052.751.751 0 0 0-1.097-1.026zM62.522 34.353c-7.9 0-14.326 6.427-14.326 14.326 0 7.9 6.427 14.328 14.326 14.328s14.326-6.427 14.326-14.328c0-7.899-6.426-14.326-14.326-14.326zm0 26.654c-6.797 0-12.326-5.53-12.326-12.328s5.53-12.326 12.326-12.326 12.326 5.53 12.326 12.326-5.529 12.328-12.326 12.328zM13.875 80.656H9.269v-2.421a.5.5 0 1 0-1 0v2.921a.5.5 0 0 0 .5.5h5.106a.5.5 0 1 0 0-1zm-5.106-5.108a.5.5 0 0 0 .5-.5V71.89a.5.5 0 1 0-1 0v3.157a.5.5 0 0 0 .5.5zm5.496-19.638c-2.15 0-3.898 1.76-3.898 3.922a3.906 3.906 0 0 0 3.898 3.905c2.14 0 3.881-1.752 3.881-3.905 0-2.162-1.741-3.922-3.88-3.922zm0 6.827a2.905 2.905 0 0 1-2.898-2.905c0-1.612 1.3-2.922 2.898-2.922 1.59 0 2.881 1.31 2.881 2.922 0 1.601-1.292 2.905-2.88 2.905zM29.37 26.693a35.77 35.77 0 0 0-5.264 13.921 1 1 0 1 0 1.977.305 33.78 33.78 0 0 1 4.97-13.148 1 1 0 1 0-1.683-1.078zm4.708-5.898a1.003 1.003 0 0 0 .01 1.415 1.002 1.002 0 0 0 1.416-.011c5.374-5.46 12.587-9.143 20.706-10.002a.999.999 0 1 0-.211-1.988c-8.578.906-16.218 4.798-21.921 10.586z"></path>
</svg>
