<svg xmlns="http://www.w3.org/2000/svg" viewBox="0 0 512 512" id="sexual-health">
  <path d="m450.293,132.361c2.19,3.793,6.273,6.016,10.635,5.815,4.37-.207,8.217-2.809,10.042-6.794l35.978-78.638c1.585-3.47,1.402-7.356-.507-10.668-1.91-3.305-5.185-5.408-8.985-5.768l-86.088-8.162c-4.363-.411-8.542,1.616-10.906,5.297-2.364,3.681-2.471,8.325-.28,12.12l11.702,20.268-73.228,42.279c-24.801-27.644-59.905-43.382-97.225-43.382-18.996,0-37.056,4.079-53.356,11.401-28.864-12.963-61.311-14.984-91.747-5.643-31.658,9.715-58.217,30.869-74.785,59.564C4.094,160.272-.541,195.479,8.491,229.186c9.032,33.708,30.649,61.88,60.871,79.328,12.182,7.034,25.23,12.008,38.863,14.823v49.02h-40.113c-6.177,0-11.203,5.025-11.203,11.203v31.013c0,6.177,5.026,11.202,11.203,11.202h40.113v40.113c0,6.177,5.025,11.203,11.203,11.203h31.013c6.177,0,11.202-5.025,11.202-11.203v-40.113h40.112c6.177,0,11.203-5.025,11.203-11.202v-31.013c0-6.177-5.025-11.203-11.203-11.203h-40.112v-49.153c9.172-1.933,18.013-4.815,26.41-8.561,16.815,7.547,34.754,11.375,53.378,11.375,9.593,0,19.069-1.039,28.322-3.086-4.903,13.026-7.593,27.126-7.593,41.845,0,65.688,53.442,119.13,119.13,119.13s119.13-53.441,119.13-119.13-53.441-119.13-119.13-119.13c-6.809,0-13.484.583-19.984,1.685,7.066-16.316,10.77-34.013,10.77-51.958,0-14.066-2.216-27.854-6.595-41.068l73.112-42.212,11.702,20.269Zm-296.785,178.126c-3.383.555-5.866,3.479-5.866,6.907v61.961c0,3.866,3.134,7,7,7h44.315v25.417h-44.315c-3.866,0-7,3.134-7,7v44.316h-25.418v-44.316c0-3.866-3.134-7-7-7h-44.316v-25.417h44.316c3.866,0,7-3.134,7-7v-61.854c0-3.441-2.502-6.373-5.9-6.913-14.076-2.239-27.521-7.016-39.962-14.199-26.983-15.579-46.284-40.732-54.348-70.827-8.064-30.095-3.926-61.529,11.653-88.512,27.909-48.34,86.519-69.636,138.239-52.236-9.569,6.039-18.302,13.285-25.986,21.524-3.727-.467-7.491-.704-11.235-.704-49.482,0-89.739,40.256-89.739,89.738s40.257,89.74,89.739,89.74c49.481,0,89.738-40.257,89.739-89.739,0-23.562-9.206-45.948-25.504-62.648,7.769-5.289,16.572-9.156,26.033-11.264,30.67,37.431,35.102,90.053,10.749,132.234-17.551,30.398-47.509,51.098-82.192,56.792Zm-18.475-190.846c-15.26,21.377-24.247,47.524-24.247,75.731,0,27.279,8.521,53.711,24.2,75.732-.101,0-.201.008-.303.008-41.763,0-75.739-33.977-75.739-75.74s33.977-75.738,75.739-75.738c.116,0,.233.007.35.007Zm30.658,75.731c0-20.972,8.572-39.976,22.391-53.704,14.267,14.18,22.341,33.429,22.341,53.705,0,20.971-8.572,39.975-22.391,53.704-14.267-14.178-22.34-33.427-22.34-53.704Zm75.463-75.732c.093,0,.183-.007.276-.007,41.763,0,75.739,33.976,75.739,75.739s-33.976,75.739-75.739,75.739c-.099,0-.199-.006-.298-.006,2.376-3.347,4.616-6.815,6.692-10.411,25.779-44.651,22.744-99.745-6.67-141.054Zm245.265,245.135c0,57.969-47.161,105.13-105.13,105.13s-105.13-47.161-105.13-105.13,47.161-105.13,105.13-105.13,105.13,47.161,105.13,105.13Zm-132.993-219.678c-2.98,1.721-4.268,5.353-3.037,8.566,5.1,13.311,7.685,27.343,7.685,41.708,0,19.779-5.027,39.22-14.536,56.407-28.13,9.423-51.609,29.075-66.006,54.518-11.621,3.78-23.749,5.719-36.102,5.719-12.812,0-25.256-2.035-37.156-6.043,9.55-6.003,18.299-13.238,26.027-21.554,3.694.459,7.423.693,11.13.693,49.482,0,89.739-40.257,89.739-89.739s-40.257-89.739-89.739-89.739-89.739,40.257-89.739,89.739c0,23.564,9.206,45.949,25.504,62.648-7.759,5.282-16.549,9.145-25.995,11.256-17.058-20.807-26.414-46.89-26.414-73.903,0-64.318,52.326-116.645,116.644-116.645,35.102,0,68.007,15.594,90.279,42.784,2.172,2.652,5.945,3.341,8.915,1.626l84.321-48.684c1.608-.928,2.781-2.457,3.261-4.25.48-1.793.229-3.704-.699-5.312l-12.921-22.379,78.252,7.419-32.702,71.478-12.921-22.38c-.928-1.607-2.457-2.781-4.25-3.261-1.794-.481-3.704-.229-5.312.699l-84.228,48.63Zm-39.224,248.764h38v38c0,3.866,3.134,7,7,7h44.173c3.866,0,7-3.134,7-7v-38h38c3.866,0,7-3.134,7-7v-44.173c0-3.866-3.134-7-7-7h-38v-38c0-3.866-3.134-7-7-7h-44.173c-3.866,0-7,3.134-7,7v38h-38c-3.866,0-7,3.134-7,7v44.173c0,3.866,3.134,7,7,7Zm7-44.173h38c3.866,0,7-3.134,7-7v-38h30.173v38c0,3.866,3.134,7,7,7h38v30.173h-38c-3.866,0-7,3.134-7,7v38h-30.173v-38c0-3.866-3.134-7-7-7h-38v-30.173Z"></path>
</svg>
