<svg xmlns="http://www.w3.org/2000/svg" enable-background="new 0 0 512 512" version="1" viewBox="0 0 512 512" id="hair">
  <path fill="none" stroke="#474747" stroke-linecap="round" stroke-linejoin="round" stroke-miterlimit="10" stroke-width="15" d="
			M375.171,98.692c0,0-151.35,63.726-154.536,211.889c0,0-1.481,37.996,30.018,34.885c30.627-3.025,17.804-42.725,17.804-42.725
			S239.219,197.599,375.171,98.692z"></path>
  <path fill="none" stroke="#474747" stroke-linecap="round" stroke-linejoin="round" stroke-miterlimit="10" stroke-width="15" d="M16.435 282.396H188.84c0 0-21.172 95.001 58.98 95.001s50.077-95.001 50.077-95.001h194.919M16.435 412.713c47.637 0 47.637 21.103 95.274 21.103 47.636 0 47.636-21.103 95.272-21.103 47.638 0 47.638 21.103 95.275 21.103 47.64 0 47.64-21.103 95.28-21.103s47.64 21.103 95.28 21.103M16.435 458.581c47.637 0 47.637 21.103 95.274 21.103 47.636 0 47.636-21.103 95.272-21.103 47.638 0 47.638 21.103 95.275 21.103 47.64 0 47.64-21.103 95.28-21.103s47.64 21.103 95.28 21.103"></path>
  <line x1="112.633" x2="149.599" y1="322.976" y2="322.976" fill="none" stroke="#474747" stroke-linecap="round" stroke-linejoin="round" stroke-miterlimit="10" stroke-width="15"></line>
  <line x1="74.414" x2="80.516" y1="322.976" y2="322.976" fill="none" stroke="#474747" stroke-linecap="round" stroke-linejoin="round" stroke-miterlimit="10" stroke-width="15"></line>
  <line x1="16.435" x2="41.733" y1="322.976" y2="322.976" fill="none" stroke="#474747" stroke-linecap="round" stroke-linejoin="round" stroke-miterlimit="10" stroke-width="15"></line>
  <line x1="449.803" x2="492.816" y1="322.976" y2="322.976" fill="none" stroke="#474747" stroke-linecap="round" stroke-linejoin="round" stroke-miterlimit="10" stroke-width="15"></line>
  <line x1="405.331" x2="412.432" y1="322.976" y2="322.976" fill="none" stroke="#474747" stroke-linecap="round" stroke-linejoin="round" stroke-miterlimit="10" stroke-width="15"></line>
  <line x1="346.005" x2="367.304" y1="322.976" y2="322.976" fill="none" stroke="#474747" stroke-linecap="round" stroke-linejoin="round" stroke-miterlimit="10" stroke-width="15"></line>
  <line x1="396.618" x2="329.527" y1="367.611" y2="367.611" fill="none" stroke="#474747" stroke-linecap="round" stroke-linejoin="round" stroke-miterlimit="10" stroke-width="15"></line>
  <line x1="434.838" x2="428.735" y1="367.611" y2="367.611" fill="none" stroke="#474747" stroke-linecap="round" stroke-linejoin="round" stroke-miterlimit="10" stroke-width="15"></line>
  <line x1="492.816" x2="467.519" y1="367.611" y2="367.611" fill="none" stroke="#474747" stroke-linecap="round" stroke-linejoin="round" stroke-miterlimit="10" stroke-width="15"></line>
  <line x1="59.448" x2="16.435" y1="367.611" y2="367.611" fill="none" stroke="#474747" stroke-linecap="round" stroke-linejoin="round" stroke-miterlimit="10" stroke-width="15"></line>
  <line x1="103.921" x2="96.82" y1="367.611" y2="367.611" fill="none" stroke="#474747" stroke-linecap="round" stroke-linejoin="round" stroke-miterlimit="10" stroke-width="15"></line>
  <line x1="171.384" x2="141.948" y1="367.611" y2="367.611" fill="none" stroke="#474747" stroke-linecap="round" stroke-linejoin="round" stroke-miterlimit="10" stroke-width="15"></line>
  <g>
    <line x1="74.414" x2="74.414" y1="160.78" y2="167.139" fill="none" stroke="#474747" stroke-linecap="round" stroke-linejoin="round" stroke-miterlimit="10" stroke-width="15"></line>
    <line x1="74.414" x2="74.414" y1="207.438" y2="213.797" fill="none" stroke="#474747" stroke-linecap="round" stroke-linejoin="round" stroke-miterlimit="10" stroke-width="15"></line>
    <line x1="47.905" x2="54.264" y1="187.288" y2="187.288" fill="none" stroke="#474747" stroke-linecap="round" stroke-linejoin="round" stroke-miterlimit="10" stroke-width="15"></line>
    <line x1="94.563" x2="100.922" y1="187.288" y2="187.288" fill="none" stroke="#474747" stroke-linecap="round" stroke-linejoin="round" stroke-miterlimit="10" stroke-width="15"></line>
  </g>
  <g>
    <line x1="112.633" x2="112.633" y1="33.04" y2="39.399" fill="none" stroke="#474747" stroke-linecap="round" stroke-linejoin="round" stroke-miterlimit="10" stroke-width="15"></line>
    <line x1="112.633" x2="112.633" y1="79.698" y2="86.057" fill="none" stroke="#474747" stroke-linecap="round" stroke-linejoin="round" stroke-miterlimit="10" stroke-width="15"></line>
    <line x1="86.125" x2="92.484" y1="59.549" y2="59.549" fill="none" stroke="#474747" stroke-linecap="round" stroke-linejoin="round" stroke-miterlimit="10" stroke-width="15"></line>
    <line x1="132.783" x2="139.142" y1="59.549" y2="59.549" fill="none" stroke="#474747" stroke-linecap="round" stroke-linejoin="round" stroke-miterlimit="10" stroke-width="15"></line>
  </g>
  <g>
    <line x1="455.244" x2="455.244" y1="31.722" y2="38.081" fill="none" stroke="#474747" stroke-linecap="round" stroke-linejoin="round" stroke-miterlimit="10" stroke-width="15"></line>
    <line x1="455.244" x2="455.244" y1="78.38" y2="84.739" fill="none" stroke="#474747" stroke-linecap="round" stroke-linejoin="round" stroke-miterlimit="10" stroke-width="15"></line>
    <line x1="428.735" x2="435.094" y1="58.231" y2="58.231" fill="none" stroke="#474747" stroke-linecap="round" stroke-linejoin="round" stroke-miterlimit="10" stroke-width="15"></line>
    <line x1="475.394" x2="481.753" y1="58.231" y2="58.231" fill="none" stroke="#474747" stroke-linecap="round" stroke-linejoin="round" stroke-miterlimit="10" stroke-width="15"></line>
  </g>
  <g>
    <line x1="408.881" x2="408.881" y1="180.929" y2="187.288" fill="none" stroke="#474747" stroke-linecap="round" stroke-linejoin="round" stroke-miterlimit="10" stroke-width="15"></line>
    <line x1="408.881" x2="408.881" y1="227.587" y2="233.947" fill="none" stroke="#474747" stroke-linecap="round" stroke-linejoin="round" stroke-miterlimit="10" stroke-width="15"></line>
    <line x1="382.373" x2="388.732" y1="207.438" y2="207.438" fill="none" stroke="#474747" stroke-linecap="round" stroke-linejoin="round" stroke-miterlimit="10" stroke-width="15"></line>
    <line x1="429.031" x2="435.39" y1="207.438" y2="207.438" fill="none" stroke="#474747" stroke-linecap="round" stroke-linejoin="round" stroke-miterlimit="10" stroke-width="15"></line>
  </g>
  <circle cx="171.384" cy="132.441" r="10.075" fill="#474747"></circle>
  <circle cx="329.527" cy="41.797" r="10.075" fill="#474747"></circle>
</svg>
