<svg id="Capa_1" enable-background="new 0 0 512.002 512.002" height="512" viewBox="0 0 512.002 512.002" width="512" xmlns="http://www.w3.org/2000/svg"><g><path d="m240.939 283.331c-3.883-1.442-8.201.532-9.645 4.414-1.444 3.883.532 8.2 4.414 9.645 6.732 2.505 13.513 3.757 20.292 3.757s13.56-1.252 20.292-3.757c3.882-1.444 5.858-5.762 4.414-9.645s-5.761-5.858-9.645-4.414c-10.133 3.77-19.987 3.77-30.122 0z"/><path d="m346.587 199.361c-18.57-5.783-42.866-10.963-66.108.426-3.72 1.823-5.258 6.315-3.436 10.035 1.823 3.72 6.315 5.256 10.035 3.436 18.384-9.009 38.144-4.841 55.048.426.743.23 1.494.341 2.232.341 3.196 0 6.158-2.06 7.159-5.271 1.232-3.956-.975-8.16-4.93-9.393z"/><path d="m234.634 199.787c-23.241-11.389-47.54-6.208-66.108-.426-3.955 1.232-6.162 5.437-4.931 9.392 1.001 3.212 3.963 5.271 7.159 5.271.738 0 1.49-.11 2.232-.341 16.904-5.267 36.664-9.434 55.048-.426 3.719 1.82 8.212.284 10.035-3.436 1.823-3.718.285-8.211-3.435-10.034z"/><path d="m224.648 235.799c-1.465-3.875-5.796-5.826-9.668-4.363-10.11 3.823-19.938 3.821-30.049 0-3.871-1.464-8.203.488-9.668 4.363-1.465 3.874.488 8.202 4.363 9.668 6.745 2.55 13.535 3.825 20.329 3.825 6.791 0 13.585-1.275 20.329-3.825 3.876-1.465 5.829-5.794 4.364-9.668z"/><path d="m339.849 235.799c-1.465-3.876-5.796-5.826-9.668-4.363-10.109 3.823-19.938 3.823-30.049 0-3.871-1.464-8.203.488-9.668 4.363-1.465 3.874.488 8.203 4.363 9.668 6.745 2.55 13.537 3.825 20.329 3.825 6.793 0 13.585-1.275 20.329-3.825 3.875-1.466 5.828-5.794 4.364-9.668z"/><path d="m275.905 333.298c-12.463-6.35-27.346-6.35-39.809 0-3.691 1.88-5.159 6.396-3.278 10.087 1.881 3.692 6.399 5.159 10.087 3.278 8.201-4.178 17.99-4.178 26.191 0 1.091.556 2.253.819 3.398.819 2.73-.001 5.364-1.497 6.688-4.098 1.882-3.69.415-8.206-3.277-10.086z"/><path d="m509.891 501.518c-9.153-21.123-29.036-35.975-51.89-38.759l-106.448-12.964c-11.429-1.392-20.047-11.123-20.047-22.636v-45.228l22.451-18.522c12.936-10.672 22.618-24.332 28.391-39.575 12.774-2.975 24.322-10.008 32.874-20.133 2.673-3.165 2.274-7.896-.89-10.569-3.165-2.673-7.896-2.273-10.569.89-4.583 5.427-10.303 9.676-16.679 12.492.932-5.362 1.417-10.839 1.417-16.385v-48.329h4.36c12.021 0 21.8 9.78 21.8 21.801-.003 1.392.017.366-.078 3.318-.24 4.135 2.917 7.682 7.052 7.922.148.009.296.013.442.013 3.943 0 7.249-3.078 7.48-7.064.04-.852.095-1.732.104-4.188 0-10.822-4.698-20.566-12.158-27.306v-108.796c0-70.304-57.196-127.5-127.5-127.5h-68.004c-70.304 0-127.5 57.196-127.5 127.5v3.415c0 4.143 3.357 7.5 7.5 7.5s7.5-3.357 7.5-7.5v-3.415c0-62.032 50.468-112.5 112.5-112.5h68.004c62.032 0 112.5 50.468 112.5 112.5v100.59c-3.075-.836-6.306-1.29-9.642-1.29h-7.862c-4.262-6.972-6.498-14.91-6.498-23.16v-56.015c0-37.22-30.28-67.5-67.5-67.5h-48.361c-4.143 0-7.5 3.357-7.5 7.5s3.357 7.5 7.5 7.5h48.361c28.948 0 52.5 23.552 52.5 52.5v56.015c0 11.846 3.448 23.21 10 33.017v53.473c0 9.822-1.784 19.396-5.158 28.326-5.268-4.599-11.969-7.476-19.125-7.977-17.9-1.264-33.438 12.277-34.688 30.153-.728 10.4 3.516 20.197 11.04 26.751l-26.395 21.775c-7.596 6.266-17.201 9.717-27.047 9.717h-32.256c-9.846 0-19.451-3.451-27.047-9.717l-45.236-37.319c-18.486-15.252-29.089-37.744-29.089-61.71v-53.472c6.55-9.803 10-21.169 10-33.018v-56.015c0-28.948 23.552-52.5 52.5-52.5h26.639c4.143 0 7.5-3.357 7.5-7.5s-3.357-7.5-7.5-7.5h-26.639c-37.22 0-67.5 30.28-67.5 67.5v56.015c0 8.252-2.238 16.191-6.498 23.16h-7.862c-3.336 0-6.567.454-9.642 1.29v-62.175c0-4.143-3.357-7.5-7.5-7.5s-7.5 3.357-7.5 7.5v70.379c-7.008 6.132-12.379 17.152-12.158 27.911 0 14.69 5.281 28.897 14.871 40.003 8.501 9.845 19.895 16.7 32.441 19.626 5.774 15.243 15.455 28.903 28.392 39.575l22.451 18.522v45.228c0 11.513-8.618 21.244-20.046 22.636l-106.449 12.965c-22.853 2.784-42.735 17.636-51.889 38.759-1.646 3.801.1 8.217 3.899 9.864.972.421 1.983.62 2.979.62 2.899 0 5.659-1.69 6.886-4.52 7.045-16.26 22.349-27.69 39.938-29.833l82.29-10.021c4.564 11.78 14.783 20.573 27.501 23.129.499.101.996.148 1.486.148 3.499 0 6.629-2.461 7.345-6.022.816-4.062-1.813-8.015-5.874-8.831-6.176-1.242-11.486-5.107-14.711-10.342l8.414-1.025c13.588-1.656 24.778-10.423 30.021-22.29 2.147 3.567 3.318 7.71 3.243 11.992-.075 4.298-1.361 8.451-3.72 12.012-2.288 3.453-1.344 8.107 2.109 10.395 1.275.845 2.713 1.249 4.136 1.249 2.431 0 4.816-1.181 6.259-3.358 3.94-5.947 6.089-12.875 6.214-20.035.211-12.067-5.478-23.484-15.029-30.657v-29.687l7.785 6.423c10.275 8.478 23.271 13.146 36.592 13.146h32.256c13.321 0 26.316-4.669 36.592-13.146l7.785-6.423v32.853c0 19.085 14.287 35.218 33.233 37.526l106.448 12.964c17.591 2.143 32.895 13.573 39.939 29.833 1.227 2.829 3.986 4.52 6.886 4.52.995 0 2.007-.199 2.979-.62 3.799-1.648 5.545-6.064 3.899-9.864zm-412.55-237.313v-.604c0-12.021 9.779-21.801 21.8-21.801h4.36v48.329c0 5.56.487 11.052 1.424 16.427-16.498-7.186-27.584-23.507-27.584-42.351zm232.152 77.474c.326-4.663 2.448-8.92 5.977-11.987 3.526-3.065 8.036-4.578 12.701-4.25 5.242.367 10.026 3.11 13.038 7.328-4.49 7.117-10.127 13.566-16.797 19.069l-6.969 5.75c-5.286-3.409-8.402-9.442-7.95-15.91z"/><path d="m291.342 129.746c-11.579 0-21 9.421-21 21s9.421 21 21 21 21-9.421 21-21-9.421-21-21-21zm0 27c-3.309 0-6-2.691-6-6s2.691-6 6-6 6 2.691 6 6-2.692 6-6 6z"/><path d="m280.001 428c-13.233 0-24 10.767-24 24s10.767 24 24 24 24-10.767 24-24-10.767-24-24-24zm0 33c-4.963 0-9-4.037-9-9s4.037-9 9-9 9 4.037 9 9-4.037 9-9 9z"/><path d="m325.001 470c-11.579 0-21 9.421-21 21s9.421 21 21 21 21-9.421 21-21-9.421-21-21-21zm0 27c-3.309 0-6-2.691-6-6s2.691-6 6-6 6 2.691 6 6-2.691 6-6 6z"/><path d="m354.011 253.357h-.01c-4.142 0-7.495 3.357-7.495 7.5s3.363 7.5 7.505 7.5c4.143 0 7.5-3.357 7.5-7.5s-3.358-7.5-7.5-7.5z"/><path d="m203.503 145.903h-.01c-4.142 0-7.495 3.357-7.495 7.5s3.363 7.5 7.505 7.5c4.143 0 7.5-3.357 7.5-7.5s-3.357-7.5-7.5-7.5z"/><path d="m216.503 138.903c4.143 0 7.5-3.357 7.5-7.5s-3.357-7.5-7.5-7.5h-.01c-4.142 0-7.495 3.357-7.495 7.5s3.364 7.5 7.505 7.5z"/><path d="m328.03 268.357h-.01c-4.142 0-7.495 3.357-7.495 7.5s3.363 7.5 7.505 7.5c4.143 0 7.5-3.357 7.5-7.5s-3.357-7.5-7.5-7.5z"/><path d="m353.021 281.643h-.01c-4.142 0-7.495 3.357-7.495 7.5s3.363 7.5 7.505 7.5c4.143 0 7.5-3.357 7.5-7.5s-3.358-7.5-7.5-7.5z"/><path d="m165.496 300.191c0 12.406 10.094 22.5 22.5 22.5s22.5-10.094 22.5-22.5-10.094-22.5-22.5-22.5-22.5 10.094-22.5 22.5zm30 0c0 4.136-3.364 7.5-7.5 7.5s-7.5-3.364-7.5-7.5 3.364-7.5 7.5-7.5 7.5 3.365 7.5 7.5z"/></g></svg>