<svg fill="none" height="128" viewBox="0 0 128 128" width="128" xmlns="http://www.w3.org/2000/svg"><path clip-rule="evenodd" d="m85.4798 34.7447 4.5981 3.0665.1669 3.3624c.1567 3.1572-2.1568 5.9201-5.2895 6.3202-2.8003.3577-5.5366-1.1838-6.489-3.8897-.1872-.532-.4254-1.0561-.3567-1.6336l.73-6.1309s4.4595-.7065 6.6402-1.0949zm8.7601 6.2306c.1216 2.4499-.6504 4.7548-2.0387 6.5832.9392.0846 1.8686.3022 2.7595.6522l7.5263 2.9566c2.945 1.1569 5.168 3.6393 5.995 6.6934.74 2.7297 1.863 5.2417.893 8.0059l-3.841 10.9377c-.739 2.1026-2.135 3.8459-3.915 5.0248v15.2315c0 .5867-.153 1.105-.41 1.5388.079.5926.082 1.1977.007 1.8016-1.14 9.116-11.0961 13.113-18.1009 9.032 0 0-16.622-.169-24.5704-.73l-27.4852 1.714c-.6063.37-1.3188.583-2.0811.583h-6.9172c-2.2091 0-4-1.791-4-4l-.0002-15.0062c0-2.1358 2.1686-3.5875 4.1433-2.7736l4.5849 1.8898c2.2983.9473 4.1066 2.688 5.1608 4.8278l4.3181-.2646c-.6781-2.1881-.0776-4.693 1.8036-6.3213 3.2858-2.8441 7.9662-3.5096 11.7908-1.2886.34-.9321.9178-1.7947 1.7312-2.492l7.8988-6.7703c-1.2855-.8038-2.2941-2.031-2.8166-3.5217-1.4424-4.1156 1.3022-8.5073 5.6337-9.0145l10.8801-1.274 5.6311-12.4487c.3278-.7246.9182-1.1512 1.3701-1.7633-2.5061-1.0585-4.5422-3.1319-5.4977-5.8467-.3958-1.1245-.6997-2.2231-.5555-3.4345l.7614-6.3955c-3.6492-1.5824-6.1154-5.4922-5.4564-9.8291.2439-1.6049 1.4839-2.8665 3.0806-3.1344l9.6559-1.6198c6.2195-1.0433 11.8752 3.8972 11.7042 10.224l-.0534 1.9739zm3.3788 42.3994c-3.341.5129-6.8433.4181-10.2153.6002l2.8448 1.4357c.9057-.0333 1.816.3426 2.4343 1.0984l4.9362 6.0331zm-15.9707.911-2.6761.1445c-2.9067.1569-5.5677-1.6243-6.5305-4.3714-.384-1.0957-.4594-2.2109-.2796-3.2614-1.8952-.5535-4.0072-.1528-5.5898 1.2037l-12.3751 10.6073c-.9054.776-.9348 2.1669-.0631 2.9806l1.9168 1.7889c.6781.6329 1.7023.7165 2.474.202l10.0723-6.7148c1.333-.8887 3.129-.5732 4.0793.7166l5.1798 7.0299 8.0462-6.6466zm-7.761-11.1311c1.0104-.9916 2.5093-1.6118 4.0585-1.772l15.0104-1.5523.8291-3.391c.269-1.1 1.1344-1.9548 2.2376-2.2102l9.4484-2.1874-.85-3.1354c-.496-1.8324-1.83-3.3218-3.597-4.016l-7.5259-2.9566c-.7644-.3003-1.5762-.4382-2.3849-.4125.1069 1.1163-.1764 2.2952-.3038 3.3997-.5656 4.9059-6.9156 8.9192-11.2195 5.6264zm-10.9316 2.6781 1.0134-.8686c1.6784-1.4387 3.7142-2.2323 5.7867-2.3815l1.5105-3.3392-8.4912.9943c-1.7868.2092-2.919 2.0208-2.324 3.7186.3779 1.0784 1.3757 1.7971 2.5046 1.8764zm-23.6403 23.6613-6.3243.3875-.0123 2.4755v3.932l13.2789-.828zm14.447 5.499 4.7991-.299 5.638.398.4721-8.4314-5.194 1.3007c.1204 1.2631-.3574 2.5707-1.4222 3.4567zm17.4025-12.7196-1.8404-.1347-1.1235 13.3613h10.8113l-3.712-5.235c-.5889-.8304-.6636-1.8785-.2764-2.7543zm18.7255-59.4443c-1.5494-1.0334-3.1366-2.3846-5.1294-2.0297l-5.3872.9595c-3.4032.606-6.4181-2.2849-6.003-5.6964l9.4971-1.5932c3.7317-.626 7.1252 2.3383 7.0225 6.1344zm-6.9119 21.1868-1.1836 2.3673c-.2223.4446.0141.9818.492 1.1183 2.1292.6081 4.2955-.839 4.5492-3.0388l.2113-1.8329zm-53.9997 48.3301-.0232 4.654h-6.8941l-.0001-13.5124 3.2038 1.3206c2.2472.9262 3.7136 3.1166 3.7136 5.5468zm53.586 1.249-3.3552-4.7321 11.0119-9.0455 6.3572 7.7699c.5305.6484.772 1.4861.6681 2.3174-.919 7.3523-10.3963 9.7343-14.682 3.6903zm-32.8498-.436-9.02-7.7538c-.9263-.7962-.9287-2.2295-.0052-3.0289 2.3618-2.0443 5.8299-2.2679 8.212-.0822l6.594 6.0506zm47.8097-35.1718 7.4736-1.7303-3.238 9.222c-.805 2.2917-2.9125 3.8722-5.338 4.0031l-17.6658.954c-1.1305.061-2.1655-.6318-2.5399-1.7002-.544-1.5522.5046-3.2052 2.1407-3.3744l15.7115-1.6248c1.2613-.1304 2.3044-1.0398 2.6056-2.2716zm-35.6985-10.0214c-1.1004-.0963-1.9144-1.0664-1.8181-2.1668l.6101-6.9733c.0962-1.1004 1.0663-1.9144 2.1667-1.8181 1.1003.0963 1.9143 1.0663 1.818 2.1667l-.61 6.9734c-.0963 1.1003-1.0664 1.9143-2.1667 1.8181zm-11.1409 4.6066c.9157.6176 2.1588.376 2.7765-.5397.6176-.9158.376-2.1588-.5397-2.7765l-5.8033-3.9143c-.9157-.6177-2.1588-.3761-2.7764.5396-.6177.9158-.3761 2.1588.5396 2.7765z" fill="rgb(0,0,0)" fill-rule="evenodd"/></svg>