<svg id="SvgjsSvg1084" width="288" height="288" xmlns="http://www.w3.org/2000/svg" version="1.1" xmlns:xlink="http://www.w3.org/1999/xlink" xmlns:svgjs="http://svgjs.com/svgjs"><defs id="SvgjsDefs1085"></defs><g id="SvgjsG1086"><svg xmlns="http://www.w3.org/2000/svg" viewBox="0 0 128 128" width="288" height="288"><path d="M22.5605 60.4844c-.4443.1699-10.8916 4.2656-11.5571 13.4687-.0034.0479-.0054.0967-.0054.1446V110a2 2 0 0 0 4 0V74.1738c.5337-6.6064 8.9097-9.9218 9.0362-9.9717l19.9433-8.1923a20.68906 20.68906 0 0 1-3.3462-2.9493zM75.2466 30.5693c.8696-5.9345 1.855-12.6611-2.6558-18.3584-3.8467-4.8584-8.6494-7.5947-14.2695-8.1308-.709-.0703-3.9136-.0713-4.7471.0127A20.26269 20.26269 0 0 0 39.4063 12.21c-4.5118 5.6963-3.5259 12.4228-2.6563 18.3574.1362.9287.2725 1.8574.3887 2.7793 1.0923 8.7412 4.0835 20.5888 17.3784 22.5322a18.43866 18.43866 0 0 0 3.1289-.0195c13.0093-2.0088 16.0317-13.086 17.2119-22.5108C74.9741 32.4248 75.1104 31.4971 75.2466 30.5693zm-3.958-.58c-.1402.955-.2798 1.9091-.3994 2.8613C69.355 45.1025 65.3413 50.624 57.0322 51.9072a5.39464 5.39464 0 0 1-1.9218.0166c-8.1856-1.1972-12.504-7.0791-14.003-19.0752-.1196-.9502-.2597-1.9062-.3999-2.8613-.8252-5.6318-1.605-10.9512 1.835-15.2939 3.1655-4.001 6.9048-6.1661 11.4326-6.6202.4473-.0459 3.5659-.0507 3.96-.0117 4.5629.4356 8.331 2.6045 11.5195 6.6319C72.8936 19.0371 72.1138 24.3564 71.2886 29.9893zM32.998 96a2.00015 2.00015 0 0 0-2 2v12a2 2 0 0 0 4 0V98A2.00009 2.00009 0 0 0 32.998 96zM78.998 96a2.00015 2.00015 0 0 0-2 2v12a2 2 0 0 0 4 0V98A2.00009 2.00009 0 0 0 78.998 96zM95.998 70.8018V64.54a23.24732 23.24732 0 0 0-6.5209-4.039L71.4053 53.1201a20.48954 20.48954 0 0 1-3.3794 2.9404l19.9878 8.1631C88.0825 64.249 93.6509 66.4072 95.998 70.8018z" fill="#000000" class="svgShape color000000-0 selectable"></path><path d="M116,85.9453V12.7656C116,7.6865,112.6357,4,108,4s-8,3.6865-8,8.7656V85.9443C92.7695,89.4102,88,96.4941,88,103.96a20,20,0,1,0,40,0C128,96.4951,123.23,89.4111,116,85.9453ZM108,120a16.03813,16.03813,0,0,1-16-16.04c0-7.2481,5.4004-12.6866,10.7529-14.8614A1.99915,1.99915,0,0,0,104,87.2461V12.7656C104,10.3936,105.2368,8,108,8s4,2.3936,4,4.7656V16h-2a2,2,0,0,0,0,4h2v4a2,2,0,0,0,0,4v4h-2a2,2,0,0,0,0,4h2v4a2,2,0,0,0,0,4v4h-2a2,2,0,0,0,0,4h2v4a2,2,0,0,0,0,4v4h-2a2,2,0,0,0,0,4h2v4a2,2,0,0,0,0,4V87.2461a1.99914,1.99914,0,0,0,1.2471,1.8525C118.5996,91.2734,124,96.7119,124,103.96A16.03813,16.03813,0,0,1,108,120Z" fill="#dc2626" class="svgShape color000000-1 selectable"></path><path d="M110 95.4375V92.167a2 2 0 0 0-4 0v3.2705a8.75 8.75 0 1 0 4 0zm-2 13.2891a4.76467 4.76467 0 1 1 4.75-4.7666A4.764 4.764 0 0 1 108 108.7266zM21.9985 36a8.57705 8.57705 0 0 0 7.6094-3.9473c1.9009-3.0498 1.8438-7.3027-.1538-11.3769L23.7949 9.1201a2.00017 2.00017 0 0 0-3.5923 0L14.542 20.6758c-1.9971 4.0752-2.0542 8.3291-.1528 11.3779A8.57836 8.57836 0 0 0 21.9985 36zM18.1338 22.4355l3.8647-7.8886 3.8638 7.8886c1.3857 2.8272 1.5171 5.6309.3511 7.501A4.66116 4.66116 0 0 1 21.9985 32a4.65931 4.65931 0 0 1-4.2148-2.0625C16.6177 28.0674 16.7485 25.2627 18.1338 22.4355zM16.6055 58.0527c1.9008-3.0498 1.8437-7.3027-.1538-11.3769L10.7925 35.1201a2.00017 2.00017 0 0 0-3.5923 0L1.53955 46.6758c-1.99707 4.0752-2.0542 8.3291-.15283 11.3779A8.57845 8.57845 0 0 0 8.99609 62 8.57718 8.57718 0 0 0 16.6055 58.0527zm-3.3946-2.1162A4.6611 4.6611 0 0 1 8.99609 58a4.65938 4.65938 0 0 1-4.21484-2.0625c-1.166-1.8701-1.03516-4.6748.3501-7.502l3.86474-7.8886 3.86381 7.8886C14.2456 51.2627 14.377 54.0664 13.2109 55.9365z" fill="#000000" class="svgShape color000000-2 selectable"></path></svg></g></svg>