<svg width="512" height="512" viewBox="0 0 512 512" fill="none" xmlns="http://www.w3.org/2000/svg">
<path d="M377.242 12.332H234.635C214.916 12.332 198.459 26.516 194.905 45.216H134.762C112.453 45.216 94.3086 63.362 94.3086 85.669V148.939C94.3086 169.815 110.204 187.047 130.527 189.171L126.171 219.936C125.737 222.972 127.201 225.968 129.859 227.497C131.025 228.169 132.321 228.5 133.609 228.5C135.259 228.5 136.901 227.957 138.255 226.89L185.895 189.392H277.369C297.072 189.392 313.539 175.205 317.099 156.508H326.112L373.747 194.006C375.101 195.073 376.743 195.615 378.393 195.615H378.475C382.623 195.615 385.991 192.253 385.991 188.103C385.991 187.353 385.881 186.632 385.677 185.947L381.48 156.288C401.801 154.164 417.697 136.932 417.697 116.055V52.785C417.694 30.478 399.55 12.332 377.242 12.332ZM277.367 174.368H183.293C181.605 174.368 179.971 174.934 178.647 175.978L143.67 203.506L146.585 182.931C146.892 180.779 146.247 178.598 144.82 176.952C143.393 175.309 141.323 174.368 139.147 174.368H134.761C120.74 174.368 109.332 162.96 109.332 148.939V85.669C109.332 71.648 120.74 60.239 134.761 60.239H194.183V84.433H142.661C138.787 84.433 135.649 87.572 135.649 91.444C135.649 95.316 138.787 98.454 142.661 98.454H194.183V116.054C194.183 120.896 195.04 125.54 196.607 129.847H142.661C138.787 129.847 135.649 132.986 135.649 136.858C135.649 140.73 138.787 143.868 142.661 143.868H205.303C212.679 151.644 223.096 156.508 234.635 156.508H301.645C298.412 166.842 288.746 174.368 277.367 174.368ZM402.67 116.054C402.67 130.075 391.263 141.484 377.242 141.484H372.856C370.679 141.484 368.609 142.425 367.182 144.068C365.756 145.714 365.112 147.895 365.417 150.047L368.327 170.621L333.356 143.093C332.031 142.05 330.397 141.484 328.71 141.484H234.634C220.614 141.484 209.206 130.076 209.206 116.054V52.784C209.206 38.763 220.614 27.355 234.634 27.355H377.242C391.263 27.355 402.67 38.763 402.67 52.784V116.054Z" fill="#DC2626"/>
<path d="M369.338 65.5718H242.534C238.662 65.5718 235.523 62.4338 235.523 58.5618C235.523 54.6898 238.662 51.5508 242.534 51.5508H369.338C373.21 51.5508 376.349 54.6898 376.349 58.5618C376.349 62.4338 373.21 65.5718 369.338 65.5718Z" fill="#DC2626"/>
<path d="M369.338 110.986H242.534C238.662 110.986 235.523 107.848 235.523 103.976C235.523 100.104 238.662 96.9648 242.534 96.9648H369.338C373.21 96.9648 376.349 100.104 376.349 103.976C376.349 107.848 373.21 110.986 369.338 110.986Z" fill="#DC2626"/>
<path d="M467.816 304.414C444.938 304.414 426.324 285.801 426.324 262.922C426.324 240.046 444.938 221.43 467.816 221.43C490.694 221.43 509.308 240.045 509.308 262.922C509.309 285.801 490.694 304.414 467.816 304.414ZM467.816 235.452C452.67 235.452 440.345 247.777 440.345 262.922C440.345 278.068 452.669 290.395 467.816 290.395C482.963 290.395 495.286 278.069 495.286 262.922C495.286 247.777 482.963 235.452 467.816 235.452Z" fill="black"/>
<path d="M468.572 314.719C450.398 314.719 434.58 327.578 426.33 348.94L408.539 391.483H347.842C333.955 391.483 322.657 402.782 322.657 416.669C322.657 422.877 324.919 428.562 328.657 432.956H183.347C187.083 428.561 189.344 422.877 189.344 416.669C189.344 402.782 178.05 391.483 164.164 391.483H103.463L85.7443 349.12C77.4223 327.579 61.6023 314.72 43.4303 314.72C19.5193 314.72 0.0703125 334.165 0.0703125 358.07V492.656C0.0703125 496.527 3.21031 499.666 7.08131 499.666H79.7703H432.231H504.92C508.793 499.666 511.931 496.527 511.931 492.656V358.068C511.932 334.164 492.481 314.719 468.572 314.719ZM86.7793 446.977H425.222V485.643H86.7793V446.977ZM14.0913 485.643V358.068C14.0913 341.896 27.2523 328.74 43.4303 328.74C60.9483 328.74 69.7103 346.527 72.7353 354.351L92.3283 401.199C93.4203 403.808 95.9673 405.504 98.7963 405.504H164.165C170.319 405.504 175.324 410.514 175.324 416.668C175.324 422.822 170.319 427.828 164.165 427.828H86.7353C85.2533 427.828 83.8133 427.543 82.4563 426.98C82.3253 426.925 82.1903 426.889 82.0583 426.843C81.9253 426.763 81.7933 426.681 81.6533 426.609C81.0913 426.32 80.5623 425.98 80.0713 425.619C78.2593 424.265 76.9183 422.431 76.1843 420.312C76.1353 420.173 76.0813 420.035 76.0253 419.9L53.7543 366.652C52.2593 363.082 48.1623 361.39 44.5793 362.89C41.0093 364.386 39.3203 368.492 40.8163 372.066L63.0103 425.125C64.6813 429.809 67.6723 433.859 71.6883 436.859C72.0373 437.119 72.4003 437.35 72.7593 437.59V485.642L14.0913 485.643ZM497.91 485.643H439.242V437.626C443.69 434.667 447.138 430.331 448.992 425.125L471.185 372.066C472.681 368.492 470.994 364.386 467.423 362.89C463.844 361.382 459.739 363.081 458.247 366.652L435.977 419.9C435.919 420.039 435.867 420.173 435.818 420.312C434.757 423.383 432.354 425.852 429.375 427.041C429.256 427.088 429.135 427.126 429.016 427.169C428.739 427.269 428.457 427.358 428.17 427.435C427.229 427.689 426.26 427.828 425.271 427.828H347.841C341.686 427.828 336.677 422.822 336.677 416.668C336.677 410.514 341.686 405.504 347.841 405.504H413.206C416.034 405.504 418.581 403.809 419.674 401.199L439.34 354.172C442.29 346.527 451.054 328.74 468.571 328.74C484.749 328.74 497.909 341.896 497.909 358.068V485.643H497.91Z" fill="black"/>
<path d="M44.1872 304.414C21.3092 304.414 2.69922 285.801 2.69922 262.922C2.69922 240.046 21.3092 221.43 44.1872 221.43C67.0642 221.43 85.6792 240.045 85.6792 262.922C85.6792 285.801 67.0632 304.414 44.1872 304.414ZM44.1872 235.452C29.0412 235.452 16.7202 247.777 16.7202 262.922C16.7202 278.068 29.0402 290.395 44.1872 290.395C59.3332 290.395 71.6582 278.069 71.6582 262.922C71.6572 247.777 59.3322 235.452 44.1872 235.452Z" fill="black"/>
<path d="M255.85 356.961C240.313 356.961 224.584 346.303 224.584 325.932V317.082H215.731C195.556 317.082 185 301.342 185 285.793C185 277.746 187.718 270.193 192.65 264.525C198.328 257.994 206.312 254.542 215.731 254.542H224.584V245.689C224.584 225.318 240.313 214.66 255.85 214.66C271.391 214.66 287.121 225.318 287.121 245.689V254.542H295.974C316.345 254.542 327.004 270.271 327.004 285.812C327.004 301.353 316.345 317.082 295.974 317.082H287.121V325.932C287.12 346.303 271.391 356.961 255.85 356.961ZM215.731 268.564C210.416 268.564 206.21 270.3 203.23 273.728C200.556 276.8 199.024 281.199 199.024 285.792C199.024 292.202 202.542 303.062 215.731 303.062H231.594C235.465 303.062 238.605 306.199 238.605 310.072V325.931C238.605 337.677 247.265 342.935 255.849 342.935C264.437 342.935 273.098 337.677 273.098 325.931V310.072C273.098 306.199 276.237 303.062 280.109 303.062H295.972C307.717 303.062 312.976 294.396 312.976 285.812C312.976 277.228 307.717 268.564 295.972 268.564H280.109C276.237 268.564 273.098 265.425 273.098 261.552V245.689C273.098 233.943 264.437 228.685 255.849 228.685C247.265 228.685 238.605 233.943 238.605 245.689V261.552C238.605 265.425 235.465 268.564 231.594 268.564H215.731Z" fill="#DC2626"/>
</svg>
