<svg xmlns="http://www.w3.org/2000/svg" enable-background="new 0 0 512 512" viewBox="0 0 512 512" id="3">
  <g>
    <g>
      <path d="M442.532,317.797c0,170.144-210.698,252.919-327.461,128.227c-13.636-14.545-17.171-34.948-9.242-53.281
			c14.797-34.14,58.432-38.433,80.502-14.696c55.806,60.149,158.074,21.161,158.074-60.25c0-31.564-17.575-61.26-45.2-77.219
			l-33.837,39.342c-17.727,20.656-48.735,22.929-69.24,5.05c-20.454-17.827-22.676-49.038-5-69.593l95.047-110.601H118.556
			c-27.07,0-49.089-22.171-49.089-49.392S91.486,5.992,118.556,5.992h274.938c23.383,0,43.634,16.868,48.18,40.049
			c2.879,14.646-1.566,30.605-11.919,42.624l-65.805,76.613C413.341,200.832,442.532,257.244,442.532,317.797z"></path>
    </g>
  </g>
</svg>
