<svg width="96" height="96" viewBox="0 0 96 96" fill="none" xmlns="http://www.w3.org/2000/svg">
<path d="M65.3484 84.6094H30.6484C30.3832 84.6094 30.1289 84.504 29.9413 84.3165C29.7538 84.1289 29.6484 83.8746 29.6484 83.6094C29.6484 83.3442 29.7538 83.0898 29.9413 82.9023C30.1289 82.7147 30.3832 82.6094 30.6484 82.6094H65.3484C65.6137 82.6094 65.868 82.7147 66.0555 82.9023C66.2431 83.0898 66.3484 83.3442 66.3484 83.6094C66.3484 83.8746 66.2431 84.1289 66.0555 84.3165C65.868 84.504 65.6137 84.6094 65.3484 84.6094Z" fill="black"/>
<path d="M89 76.3906H7C5.67392 76.3906 4.40215 75.8638 3.46447 74.9262C2.52678 73.9885 2 72.7167 2 71.3906V16.3906C2 15.0645 2.52678 13.7928 3.46447 12.8551C4.40215 11.9174 5.67392 11.3906 7 11.3906H89C90.3261 11.3906 91.5979 11.9174 92.5355 12.8551C93.4732 13.7928 94 15.0645 94 16.3906V71.3906C94 72.7167 93.4732 73.9885 92.5355 74.9262C91.5979 75.8638 90.3261 76.3906 89 76.3906ZM7 13.3906C6.20435 13.3906 5.44129 13.7067 4.87868 14.2693C4.31607 14.8319 4 15.595 4 16.3906V71.3906C4 72.1863 4.31607 72.9493 4.87868 73.5119C5.44129 74.0746 6.20435 74.3906 7 74.3906H89C89.7956 74.3906 90.5587 74.0746 91.1213 73.5119C91.6839 72.9493 92 72.1863 92 71.3906V16.3906C92 15.595 91.6839 14.8319 91.1213 14.2693C90.5587 13.7067 89.7956 13.3906 89 13.3906H7Z" fill="black"/>
<path d="M59.3202 84.6106H36.6802C36.5073 84.6094 36.3376 84.5633 36.1877 84.4768C36.0379 84.3904 35.9131 84.2665 35.8254 84.1174C35.7378 83.9683 35.6903 83.799 35.6876 83.626C35.685 83.4531 35.7272 83.2824 35.8102 83.1306L40.3802 74.9106C40.4666 74.7528 40.5939 74.6212 40.7488 74.5297C40.9037 74.4382 41.0804 74.3901 41.2602 74.3906H54.7402C54.9201 74.3901 55.0968 74.4382 55.2517 74.5297C55.4066 74.6212 55.5339 74.7528 55.6202 74.9106L60.1902 83.1306C60.2733 83.2824 60.3155 83.4531 60.3129 83.626C60.3102 83.799 60.2627 83.9683 60.1751 84.1174C60.0874 84.2665 59.9626 84.3904 59.8127 84.4768C59.6629 84.5633 59.4932 84.6094 59.3202 84.6106ZM38.3802 82.6106H57.6202L54.1602 76.3906H41.8402L38.3802 82.6106Z" fill="black"/>
<path d="M93 67.2617H3C2.73478 67.2617 2.48043 67.1564 2.29289 66.9688C2.10536 66.7813 2 66.5269 2 66.2617C2 65.9965 2.10536 65.7421 2.29289 65.5546C2.48043 65.3671 2.73478 65.2617 3 65.2617H93C93.2652 65.2617 93.5196 65.3671 93.7071 65.5546C93.8946 65.7421 94 65.9965 94 66.2617C94 66.5269 93.8946 66.7813 93.7071 66.9688C93.5196 67.1564 93.2652 67.2617 93 67.2617Z" fill="black"/>
<path d="M27.9994 59.4492H10.6094C10.3442 59.4492 10.0898 59.3439 9.90227 59.1563C9.71473 58.9688 9.60938 58.7144 9.60938 58.4492C9.60938 58.184 9.71473 57.9296 9.90227 57.7421C10.0898 57.5546 10.3442 57.4492 10.6094 57.4492H27.9994C28.2646 57.4492 28.5189 57.5546 28.7065 57.7421C28.894 57.9296 28.9994 58.184 28.9994 58.4492C28.9994 58.7144 28.894 58.9688 28.7065 59.1563C28.5189 59.3439 28.2646 59.4492 27.9994 59.4492Z" fill="#DC2626"/>
<path d="M19.3194 53.8516H10.6094C10.3442 53.8516 10.0898 53.7462 9.90227 53.5587C9.71473 53.3711 9.60938 53.1168 9.60938 52.8516C9.60938 52.5863 9.71473 52.332 9.90227 52.1445C10.0898 51.9569 10.3442 51.8516 10.6094 51.8516H19.3194C19.5846 51.8516 19.8389 51.9569 20.0265 52.1445C20.214 52.332 20.3194 52.5863 20.3194 52.8516C20.3194 53.1168 20.214 53.3711 20.0265 53.5587C19.8389 53.7462 19.5846 53.8516 19.3194 53.8516Z" fill="#DC2626"/>
<path d="M11.6584 38.311C11.4929 38.3129 11.3296 38.2737 11.183 38.1969C11.0364 38.1201 10.9111 38.0081 10.8184 37.871C9.67115 36.1512 9.0122 34.1523 8.91189 32.0874C8.81158 30.0225 9.27367 27.9691 10.2489 26.1463C11.2241 24.3234 12.6758 22.7994 14.4492 21.737C16.2226 20.6745 18.2511 20.1133 20.3184 20.1133C22.3858 20.1133 24.4143 20.6745 26.1877 21.737C27.9611 22.7994 29.4128 24.3234 30.388 26.1463C31.3632 27.9691 31.8253 30.0225 31.725 32.0874C31.6247 34.1523 30.9657 36.1512 29.8184 37.871C29.7456 37.9806 29.6518 38.0749 29.5425 38.1483C29.4332 38.2217 29.3105 38.2729 29.1814 38.2989C29.0524 38.3249 28.9194 38.3252 28.7902 38.2998C28.661 38.2744 28.5381 38.2239 28.4284 38.151C28.3188 38.0781 28.2246 37.9843 28.1511 37.875C28.0777 37.7657 28.0266 37.643 28.0006 37.514C27.9746 37.3849 27.9742 37.252 27.9996 37.1228C28.025 36.9936 28.0756 36.8706 28.1484 36.761C29.0992 35.3414 29.6465 33.6902 29.7317 31.9838C29.8169 30.2774 29.437 28.5799 28.6324 27.0726C27.8278 25.5654 26.6289 24.3051 25.1636 23.4263C23.6984 22.5475 22.022 22.0833 20.3134 22.0833C18.6049 22.0833 16.9285 22.5475 15.4632 23.4263C13.998 24.3051 12.7991 25.5654 11.9945 27.0726C11.1899 28.5799 10.8099 30.2774 10.8952 31.9838C10.9804 33.6902 11.5277 35.3414 12.4784 36.761C12.6232 36.9814 12.675 37.2502 12.6225 37.5086C12.5701 37.7671 12.4177 37.9944 12.1984 38.141C12.0402 38.2518 11.8516 38.3112 11.6584 38.311Z" fill="#DC2626"/>
<path d="M20.3214 36.7209C19.7518 36.7209 19.195 36.552 18.7214 36.2356C18.2478 35.9191 17.8786 35.4693 17.6606 34.9431C17.4427 34.4168 17.3856 33.8377 17.4967 33.2791C17.6079 32.7204 17.8822 32.2072 18.2849 31.8045C18.6877 31.4017 19.2009 31.1274 19.7595 31.0163C20.3182 30.9052 20.8973 30.9622 21.4235 31.1802C21.9498 31.3981 22.3996 31.7673 22.716 32.2409C23.0325 32.7145 23.2014 33.2713 23.2014 33.8409C23.1988 34.604 22.8945 35.335 22.355 35.8745C21.8154 36.414 21.0844 36.7183 20.3214 36.7209ZM20.3214 32.9609C20.1474 32.9609 19.9772 33.0125 19.8325 33.1092C19.6878 33.2059 19.575 33.3434 19.5084 33.5042C19.4418 33.665 19.4244 33.8419 19.4583 34.0126C19.4923 34.1833 19.5761 34.3401 19.6992 34.4632C19.8222 34.5863 19.979 34.6701 20.1497 34.704C20.3204 34.738 20.4974 34.7206 20.6582 34.654C20.819 34.5873 20.9564 34.4746 21.0531 34.3298C21.1498 34.1851 21.2014 34.015 21.2014 33.8409C21.1911 33.6145 21.0939 33.4009 20.9299 33.2444C20.766 33.0879 20.548 33.0007 20.3214 33.0009V32.9609Z" fill="#DC2626"/>
<path d="M21.6503 33.5119C21.5187 33.5127 21.3883 33.4874 21.2664 33.4377C21.1446 33.3879 21.0338 33.3146 20.9403 33.2219C20.8466 33.1289 20.7722 33.0183 20.7214 32.8965C20.6707 32.7746 20.6445 32.6439 20.6445 32.5119C20.6445 32.3799 20.6707 32.2492 20.7214 32.1273C20.7722 32.0055 20.8466 31.8949 20.9403 31.8019L24.9403 27.8019C25.1286 27.6136 25.384 27.5078 25.6503 27.5078C25.9166 27.5078 26.172 27.6136 26.3603 27.8019C26.5486 27.9902 26.6544 28.2456 26.6544 28.5119C26.6544 28.7782 26.5486 29.0336 26.3603 29.2219L22.3603 33.2219C22.2669 33.3146 22.1561 33.3879 22.0342 33.4377C21.9124 33.4874 21.7819 33.5127 21.6503 33.5119Z" fill="#DC2626"/>
<path d="M86.1 59.4492H52.75C52.4848 59.4492 52.2304 59.3439 52.0429 59.1563C51.8554 58.9688 51.75 58.7144 51.75 58.4492C51.75 58.184 51.8554 57.9296 52.0429 57.7421C52.2304 57.5546 52.4848 57.4492 52.75 57.4492H86.1C86.3652 57.4492 86.6196 57.5546 86.8071 57.7421C86.9946 57.9296 87.1 58.184 87.1 58.4492C87.1 58.7144 86.9946 58.9688 86.8071 59.1563C86.6196 59.3439 86.3652 59.4492 86.1 59.4492Z" fill="#DC2626"/>
<path d="M82.3594 59.4484C82.0942 59.4484 81.8398 59.3431 81.6523 59.1555C81.4647 58.968 81.3594 58.7137 81.3594 58.4484V35.8984C81.3594 35.6332 81.4647 35.3789 81.6523 35.1913C81.8398 35.0038 82.0942 34.8984 82.3594 34.8984C82.6246 34.8984 82.8789 35.0038 83.0665 35.1913C83.254 35.3789 83.3594 35.6332 83.3594 35.8984V58.4484C83.3594 58.7137 83.254 58.968 83.0665 59.1555C82.8789 59.3431 82.6246 59.4484 82.3594 59.4484Z" fill="#DC2626"/>
<path d="M73.8086 59.4491C73.5434 59.4491 73.289 59.3437 73.1015 59.1562C72.9139 58.9686 72.8086 58.7143 72.8086 58.4491V43.7891C72.8086 43.5238 72.9139 43.2695 73.1015 43.082C73.289 42.8944 73.5434 42.7891 73.8086 42.7891C74.0738 42.7891 74.3282 42.8944 74.5157 43.082C74.7032 43.2695 74.8086 43.5238 74.8086 43.7891V58.4491C74.8086 58.7143 74.7032 58.9686 74.5157 59.1562C74.3282 59.3437 74.0738 59.4491 73.8086 59.4491Z" fill="#DC2626"/>
<path d="M65.2695 59.45C65.0043 59.45 64.75 59.3446 64.5624 59.1571C64.3749 58.9696 64.2695 58.7152 64.2695 58.45V39.75C64.2695 39.4848 64.3749 39.2304 64.5624 39.0429C64.75 38.8554 65.0043 38.75 65.2695 38.75C65.5347 38.75 65.7891 38.8554 65.9766 39.0429C66.1642 39.2304 66.2695 39.4848 66.2695 39.75V58.45C66.2695 58.7152 66.1642 58.9696 65.9766 59.1571C65.7891 59.3446 65.5347 59.45 65.2695 59.45Z" fill="#DC2626"/>
<path d="M56.7305 59.4492C56.4653 59.4492 56.2109 59.3439 56.0234 59.1563C55.8358 58.9688 55.7305 58.7144 55.7305 58.4492V48.1992C55.7305 47.934 55.8358 47.6796 56.0234 47.4921C56.2109 47.3046 56.4653 47.1992 56.7305 47.1992C56.9957 47.1992 57.25 47.3046 57.4376 47.4921C57.6251 47.6796 57.7305 47.934 57.7305 48.1992V58.4492C57.7305 58.7144 57.6251 58.9688 57.4376 59.1563C57.25 59.3439 56.9957 59.4492 56.7305 59.4492Z" fill="#DC2626"/>
<path d="M56.7289 40.7508C56.0663 40.7508 55.4187 40.5543 54.8677 40.1862C54.3168 39.8181 53.8875 39.2949 53.6339 38.6828C53.3804 38.0706 53.314 37.3971 53.4433 36.7472C53.5725 36.0974 53.8916 35.5005 54.3601 35.032C54.8286 34.5635 55.4255 34.2444 56.0754 34.1152C56.7252 33.9859 57.3988 34.0522 58.0109 34.3058C58.623 34.5593 59.1462 34.9887 59.5143 35.5396C59.8824 36.0905 60.0789 36.7382 60.0789 37.4008C60.0763 38.2884 59.7225 39.139 59.0948 39.7667C58.4671 40.3944 57.6166 40.7481 56.7289 40.7508ZM56.7289 36.0508C56.4619 36.0508 56.2009 36.13 55.9789 36.2783C55.7569 36.4266 55.5838 36.6375 55.4817 36.8842C55.3795 37.1308 55.3528 37.4023 55.4048 37.6642C55.4569 37.926 55.5855 38.1666 55.7743 38.3554C55.9631 38.5442 56.2037 38.6728 56.4655 38.7248C56.7274 38.7769 56.9989 38.7502 57.2455 38.648C57.4922 38.5458 57.7031 38.3728 57.8514 38.1508C57.9997 37.9288 58.0789 37.6678 58.0789 37.4008C58.0763 37.0436 57.9332 36.7017 57.6806 36.4491C57.428 36.1965 57.0861 36.0534 56.7289 36.0508Z" fill="#DC2626"/>
<path d="M65.2719 31.9383C64.6093 31.9383 63.9616 31.7418 63.4107 31.3737C62.8598 31.0056 62.4304 30.4824 62.1769 29.8703C61.9233 29.2581 61.857 28.5846 61.9862 27.9347C62.1155 27.2849 62.4346 26.688 62.9031 26.2195C63.3716 25.751 63.9685 25.4319 64.6183 25.3027C65.2682 25.1734 65.9417 25.2397 66.5539 25.4933C67.166 25.7468 67.6892 26.1762 68.0573 26.7271C68.4254 27.278 68.6219 27.9257 68.6219 28.5883C68.6219 29.4768 68.2689 30.3288 67.6407 30.9571C67.0124 31.5853 66.1603 31.9383 65.2719 31.9383ZM65.2719 27.2383C65.0049 27.2383 64.7439 27.3175 64.5219 27.4658C64.2999 27.6141 64.1268 27.825 64.0246 28.0717C63.9225 28.3183 63.8957 28.5898 63.9478 28.8517C63.9999 29.1135 64.1285 29.3541 64.3173 29.5429C64.5061 29.7317 64.7466 29.8603 65.0085 29.9123C65.2704 29.9644 65.5418 29.9377 65.7885 29.8355C66.0352 29.7333 66.246 29.5603 66.3944 29.3383C66.5427 29.1163 66.6219 28.8553 66.6219 28.5883C66.6219 28.411 66.587 28.2355 66.5191 28.0717C66.4513 27.9079 66.3518 27.759 66.2265 27.6337C66.1011 27.5083 65.9523 27.4089 65.7885 27.341C65.6247 27.2732 65.4492 27.2383 65.2719 27.2383Z" fill="#DC2626"/>
<path d="M73.8109 39.8602C73.1484 39.8602 72.5007 39.6637 71.9498 39.2956C71.3989 38.9275 70.9695 38.4043 70.7159 37.7921C70.4624 37.18 70.396 36.5064 70.5253 35.8566C70.6546 35.2068 70.9736 34.6099 71.4421 34.1414C71.9106 33.6728 72.5076 33.3538 73.1574 33.2245C73.8072 33.0953 74.4808 33.1616 75.0929 33.4152C75.7051 33.6687 76.2283 34.0981 76.5964 34.649C76.9645 35.1999 77.1609 35.8476 77.1609 36.5102C77.1609 36.9501 77.0743 37.3857 76.9059 37.7921C76.7376 38.1986 76.4908 38.5679 76.1797 38.879C75.8687 39.19 75.4994 39.4368 75.0929 39.6052C74.6865 39.7735 74.2509 39.8602 73.8109 39.8602ZM73.8109 35.1602C73.5439 35.1602 73.2829 35.2393 73.0609 35.3877C72.8389 35.536 72.6659 35.7469 72.5637 35.9935C72.4615 36.2402 72.4348 36.5117 72.4869 36.7735C72.539 37.0354 72.6675 37.276 72.8563 37.4648C73.0451 37.6536 73.2857 37.7821 73.5476 37.8342C73.8094 37.8863 74.0809 37.8596 74.3276 37.7574C74.5742 37.6552 74.7851 37.4822 74.9334 37.2602C75.0818 37.0382 75.1609 36.7772 75.1609 36.5102C75.1609 36.1521 75.0187 35.8087 74.7655 35.5556C74.5124 35.3024 74.169 35.1602 73.8109 35.1602Z" fill="#DC2626"/>
<path d="M82.36 31.489C81.697 31.491 81.0483 31.2962 80.4961 30.9293C79.9439 30.5624 79.513 30.0399 79.2579 29.428C79.0028 28.816 78.935 28.1421 79.0632 27.4916C79.1913 26.8412 79.5095 26.2433 79.9777 25.7738C80.4458 25.3043 81.0427 24.9842 81.6928 24.8542C82.3429 24.7241 83.017 24.7898 83.6297 25.0431C84.2424 25.2964 84.7662 25.7257 85.1347 26.2769C85.5033 26.828 85.7 27.4761 85.7 28.139C85.7 29.0258 85.3484 29.8764 84.7223 30.5043C84.0963 31.1323 83.2467 31.4864 82.36 31.489ZM82.36 26.7891C82.0926 26.7871 81.8306 26.8646 81.6073 27.0117C81.384 27.1588 81.2094 27.369 81.1057 27.6155C81.0019 27.862 80.9738 28.1337 81.0247 28.3962C81.0757 28.6588 81.2035 28.9002 81.3919 29.0901C81.5803 29.2799 81.8208 29.4094 82.0829 29.4623C82.3451 29.5152 82.617 29.4891 82.8643 29.3872C83.1116 29.2853 83.323 29.1123 83.4718 28.8901C83.6206 28.6679 83.7 28.4065 83.7 28.139C83.7 27.7827 83.5592 27.4409 83.3081 27.188C83.0571 26.9351 82.7163 26.7917 82.36 26.7891Z" fill="#DC2626"/>
<path d="M75.4902 35.8681C75.3579 35.8676 75.227 35.8408 75.1051 35.7893C74.9832 35.7378 74.8728 35.6626 74.7802 35.5681C74.6864 35.4752 74.6121 35.3646 74.5613 35.2427C74.5105 35.1209 74.4844 34.9901 74.4844 34.8581C74.4844 34.7261 74.5105 34.5954 74.5613 34.4736C74.6121 34.3517 74.6864 34.2411 74.7802 34.1481L80.0002 29.0681C80.1875 28.8819 80.441 28.7773 80.7052 28.7773C80.9694 28.7773 81.2228 28.8819 81.4102 29.0681C81.5039 29.1611 81.5783 29.2717 81.6291 29.3936C81.6798 29.5154 81.706 29.6461 81.706 29.7781C81.706 29.9101 81.6798 30.0409 81.6291 30.1627C81.5783 30.2846 81.5039 30.3952 81.4102 30.4881L76.2202 35.5681C76.1252 35.6651 76.0115 35.7416 75.886 35.7932C75.7605 35.8448 75.6258 35.8703 75.4902 35.8681Z" fill="#DC2626"/>
<path d="M72.0896 35.9199C71.837 35.919 71.594 35.8226 71.4096 35.6499L66.3096 30.9199C66.1147 30.7396 65.9994 30.4892 65.989 30.2238C65.9787 29.9584 66.0742 29.6998 66.2546 29.5049C66.4349 29.31 66.6853 29.1947 66.9507 29.1844C67.2161 29.174 67.4747 29.2696 67.6696 29.4499L72.7696 34.1799C72.8674 34.2688 72.9465 34.3763 73.0025 34.496C73.0585 34.6157 73.0902 34.7453 73.0958 34.8774C73.1014 35.0094 73.0807 35.1413 73.035 35.2653C72.9893 35.3893 72.9195 35.503 72.8296 35.5999C72.7352 35.7017 72.6207 35.7827 72.4933 35.8378C72.3659 35.8929 72.2284 35.9208 72.0896 35.9199Z" fill="#DC2626"/>
<path d="M58.3708 36.7192C58.1099 36.7208 57.8587 36.6203 57.6708 36.4392C57.5771 36.3463 57.5027 36.2357 57.4519 36.1138C57.4011 35.992 57.375 35.8613 57.375 35.7292C57.375 35.5972 57.4011 35.4665 57.4519 35.3447C57.5027 35.2228 57.5771 35.1122 57.6708 35.0192L62.9408 29.5792C63.1291 29.3909 63.3845 29.2852 63.6508 29.2852C63.9171 29.2852 64.1725 29.3909 64.3608 29.5792C64.5491 29.7676 64.6549 30.0229 64.6549 30.2892C64.6549 30.5556 64.5491 30.8109 64.3608 30.9992L59.0808 36.4392C58.8905 36.6228 58.6352 36.7235 58.3708 36.7192Z" fill="#DC2626"/>
</svg>
