<svg width="683" height="683" viewBox="0 0 683 683" fill="none" xmlns="http://www.w3.org/2000/svg">
<g clip-path="url(#clip0_217_214)">
<path d="M321.332 60H361.333V90H391.332V130H361.333V160H321.332V130H291.332V90H321.332V60Z" stroke="black" stroke-width="20" stroke-miterlimit="22.926"/>
<mask id="mask0_217_214" style="mask-type:luminance" maskUnits="userSpaceOnUse" x="0" y="0" width="683" height="683">
<path d="M0 0.00134277H682.667V682.668H0V0.00134277Z" fill="white"/>
</mask>
<g mask="url(#mask0_217_214)">
<path d="M341.332 9.99999C396.56 9.99999 441.332 54.772 441.332 110C441.332 165.228 396.56 210 341.332 210C286.104 210 241.332 165.228 241.332 110C241.332 54.772 286.104 9.99999 341.332 9.99999Z" stroke="#DC2626" stroke-width="20" stroke-miterlimit="22.926"/>
<path d="M87.1055 672.668V552.363C87.1055 532.395 104.099 521.128 123.411 516.057L188.625 502.031V467.36" stroke="black" stroke-width="20" stroke-miterlimit="22.926"/>
<path d="M504.043 532.029L559.258 548.856C578.57 553.927 595.563 565.193 595.563 585.161V672.668" stroke="black" stroke-width="20" stroke-miterlimit="22.926"/>
<path d="M504.043 497.359V672.668" stroke="black" stroke-width="20" stroke-miterlimit="22.926"/>
<path d="M429.266 672.668V497.359" stroke="black" stroke-width="20" stroke-miterlimit="22.926"/>
<path d="M364.922 552.359L429.269 532.027" stroke="black" stroke-width="20" stroke-miterlimit="22.926"/>
<path d="M263.402 467.359V502.031L328.617 516.056C347.929 521.128 364.922 532.395 364.922 552.361V672.668" stroke="black" stroke-width="20" stroke-miterlimit="22.926"/>
<path d="M144.277 576.465V672.668M307.745 576.465V672.668" stroke="black" stroke-width="20" stroke-miterlimit="22.926"/>
<path d="M263.401 502.03C263.401 522.678 246.661 539.418 226.013 539.418C205.364 539.418 188.625 522.678 188.625 502.03" stroke="black" stroke-width="20" stroke-miterlimit="22.926"/>
<path d="M144.277 624.566L185.144 604.566L226.012 624.566L266.879 604.566L307.745 624.566" stroke="black" stroke-width="20" stroke-miterlimit="22.926"/>
<path d="M504.046 497.359C570.956 490.159 581.434 446.434 581.434 413.435C581.434 350.231 529.862 298.661 466.656 298.661C403.452 298.661 351.879 350.231 351.879 413.435C351.879 446.434 362.356 490.159 429.268 497.359" stroke="black" stroke-width="20" stroke-miterlimit="22.926"/>
<path d="M541.431 432.671C541.431 473.788 507.782 507.445 466.654 507.445C425.528 507.445 391.879 473.796 391.879 432.671V413.435C419.878 351.336 496.631 413.435 541.431 413.435V432.671Z" stroke="black" stroke-width="20" stroke-miterlimit="22.926"/>
<path d="M504.042 562.03C504.042 582.678 487.303 599.418 466.654 599.418C446.006 599.418 429.266 582.678 429.266 562.03" stroke="black" stroke-width="20" stroke-miterlimit="22.926"/>
<path d="M151.238 368.053V402.671C151.238 443.797 184.888 477.445 226.014 477.445C267.141 477.445 300.79 443.797 300.79 402.671V368.053M285.656 304.488C271.014 292.009 248.514 285.799 226.014 285.813C203.514 285.799 181.014 292.009 166.373 304.488" stroke="black" stroke-width="20" stroke-miterlimit="22.926"/>
<path d="M166.38 304.485L181.238 338.051V368.051H151.238C140.24 368.051 131.238 359.051 131.238 348.051C131.238 337.051 144.28 304.485 166.38 304.485ZM285.648 304.485L270.789 338.051V368.051H300.79C311.789 368.051 320.789 359.051 320.789 348.051C320.789 337.051 307.748 304.485 285.648 304.485Z" stroke="black" stroke-width="20" stroke-miterlimit="22.926"/>
<path d="M413.16 311.949C411.896 281.528 436.18 256.157 466.655 256.157C497.13 256.157 521.412 281.528 520.148 311.949" stroke="black" stroke-width="20" stroke-miterlimit="22.926"/>
<path d="M635.563 572.668V240.212M635.563 612.668V592.668M47.1055 240.212V672.668H635.563V632.668" stroke="#DC2626" stroke-width="20" stroke-miterlimit="22.926"/>
<path d="M437.373 137.938L672.667 259.359V214.347L440.109 94.338M117.391 158.929L10 214.347V259.359L245.293 137.938M242.557 94.338L135.167 149.757" stroke="#DC2626" stroke-width="20" stroke-miterlimit="22.926"/>
<path d="M594.453 81.6686V175.031M534.453 143.023V81.6686" stroke="#DC2626" stroke-width="20" stroke-miterlimit="22.926"/>
<path d="M534.453 41.668H594.453C605.453 41.668 614.453 50.668 614.453 61.668C614.453 72.668 605.453 81.668 594.453 81.668H534.453C523.453 81.668 514.453 72.668 514.453 61.668C514.453 50.668 523.453 41.668 534.453 41.668Z" stroke="#DC2626" stroke-width="20" stroke-miterlimit="22.926"/>
<path d="M541.242 236.552L559.016 245.722M576.789 254.894L594.562 264.066" stroke="black" stroke-width="20" stroke-miterlimit="2.613"/>
</g>
</g>
<defs>
<clipPath id="clip0_217_214">
<rect width="682.667" height="682.667" fill="white"/>
</clipPath>
</defs>
</svg>
