<svg id="Layer_1" enable-background="new 0 0 512 512" viewBox="0 0 512 512" xmlns="http://www.w3.org/2000/svg"><path d="m494.07 66.31-48.38-48.38c-3.91-3.91-10.26-3.91-14.17 0l-8.4 8.4c-1.89 1.89-2.93 4.41-2.93 7.08 0 2.68 1.04 5.2 2.93 7.08l5.73 5.73-16.53 16.53-10.97-10.97c-6.26-6.26-16.45-6.26-22.71 0s-6.26 16.45 0 22.71l3.34 3.34-20.95 20.97c-31.12-20.85-67.32-31.85-105.03-31.85-104.24 0-189.05 84.81-189.05 189.05 0 18.96 2.8 37.61 8.3 55.55-35.28 14.27-60.25 48.89-60.25 89.24 0 53.05 43.16 96.21 96.21 96.21 40.35 0 74.97-24.97 89.24-60.26 17.93 5.51 36.59 8.3 55.55 8.3 29.63 0 59.12-7.04 85.37-20.35h98.33c3.31 0 6-2.69 6-6v-100.27c0-3.31-2.69-6-6-6h-3.23c5.69-18.2 8.57-37.14 8.57-56.42 0-37.71-11-73.91-31.85-105.03l20.96-20.96 3.34 3.34c3.13 3.13 7.24 4.7 11.36 4.7 4.11 0 8.23-1.57 11.36-4.7 3.03-3.03 4.69-7.06 4.69-11.36s-1.67-8.33-4.69-11.36l-10.97-10.97 16.53-16.53 5.73 5.73c1.95 1.95 4.52 2.93 7.08 2.93 2.57 0 5.13-.98 7.08-2.93l8.4-8.4c3.92-3.89 3.92-10.25.01-14.15zm-415.12 189.69c0-97.62 79.42-177.05 177.05-177.05 34.52 0 67.68 9.83 96.38 28.5l-25.48 25.48c-21.5-12.39-45.91-18.93-70.9-18.93-78.3 0-142 63.7-142 142 0 17.03 2.95 33.56 8.78 49.27-3.79-.46-7.65-.7-11.57-.7-8.49 0-16.72 1.11-24.57 3.18-5.1-16.7-7.69-34.08-7.69-51.75zm294.2 56.42h-40.76c12.05-16.25 18.57-35.85 18.57-56.42 0-12.42-2.35-24.44-6.99-35.8l26.27-26.27c10.32 18.98 15.76 40.27 15.76 62.07 0 19.82-4.32 38.78-12.85 56.42zm-85.15 69.61c-10.41 2.63-21.15 3.97-32 3.97-18.13 0-35.62-3.65-52.05-10.84-8.99-32.48-34.62-58.12-67.11-67.11-7.19-16.43-10.84-33.92-10.84-52.05 0-71.68 58.32-130 130-130 21.8 0 43.09 5.44 62.07 15.76l-26.27 26.27c-11.36-4.63-23.38-6.99-35.8-6.99-52.36 0-94.95 42.6-94.95 94.95s42.6 94.95 94.95 94.95c11.05 0 21.78-1.86 32-5.53zm3.91-126.03c0 19.8-16.11 35.91-35.91 35.91s-35.91-16.11-35.91-35.91 16.11-35.91 35.91-35.91c3.68 0 7.31.58 10.78 1.67l-.63.63c-4.32 4.32-4.9 11.13-2 16.97l-12.4 12.4c-2.34 2.34-2.34 6.14 0 8.48 1.17 1.17 2.71 1.76 4.24 1.76s3.07-.59 4.24-1.76l12.4-12.4c2.39 1.19 4.94 1.81 7.42 1.81 3.58 0 7-1.25 9.55-3.81l.63-.63c1.1 3.48 1.68 7.11 1.68 10.79zm-10.79-18.64c-.6.6-2.9.48-4.87-1.49l-.12-.12c-1.97-1.97-2.08-4.27-1.49-4.87l15.44-15.44 6.48 6.48zm12.88 75.06c-3.31 0-6 2.69-6 6v14.13c-10.12 4.25-20.87 6.4-32 6.4-45.74 0-82.95-37.21-82.95-82.95s37.21-82.95 82.95-82.95c9.12 0 17.99 1.45 26.48 4.31l-2.91 2.91c-3.42 3.42-5.05 8.37-4.47 13.59.53 4.79 2.84 9.44 6.49 13.1l-5.55 5.55c-6.26-2.88-13.09-4.41-20.04-4.41-26.42 0-47.91 21.49-47.91 47.91s21.49 47.91 47.91 47.91 47.91-21.49 47.91-47.91c0-6.95-1.53-13.78-4.41-20.04l5.56-5.56c3.65 3.65 8.3 5.96 13.1 6.49.7.08 1.39.12 2.07.12 4.44 0 8.56-1.62 11.52-4.58l2.91-2.91c2.86 8.48 4.31 17.36 4.31 26.48 0 21.1-7.87 41.03-22.18 56.42h-22.79zm29.25-88.47c-1.13 1.13-2.85 1.12-3.78 1.02-2.07-.23-4.24-1.35-5.95-3.06l-23.44-23.44c-1.71-1.71-2.83-3.88-3.06-5.95-.1-.92-.11-2.64 1.02-3.78l8.58-8.58 12.73 12.73c1.17 1.17 2.71 1.76 4.24 1.76s3.07-.59 4.24-1.76c2.34-2.34 2.34-6.14 0-8.48l-12.73-12.73 12.42-12.42 12.75 12.74c1.17 1.17 2.71 1.76 4.24 1.76s3.07-.59 4.24-1.76c2.34-2.34 2.34-6.14 0-8.48l-12.73-12.73 12.42-12.42 35.2 35.2zm-212.04 261.05c-46.43 0-84.21-37.78-84.21-84.21s37.78-84.21 84.21-84.21 84.21 37.78 84.21 84.21-37.77 84.21-84.21 84.21zm144.79-51.95c-17.67 0-35.05-2.59-51.76-7.69 2.07-7.85 3.18-16.08 3.18-24.57 0-3.91-.24-7.77-.7-11.57 15.71 5.83 32.24 8.78 49.27 8.78 10.83 0 21.55-1.24 32-3.64v24.34c0 3.31 2.69 6 6 6h15.93c-17.28 5.53-35.32 8.35-53.92 8.35zm177.71-20.35h-133.71v-88.27h133.71zm-.66-156.7c0 19.33-3.09 38.29-9.18 56.42h-37.54c7.65-17.7 11.67-37.02 11.67-56.42 0-24.99-6.54-49.4-18.94-70.89l25.48-25.48c18.67 28.69 28.51 61.85 28.51 96.37zm-50.92-90.93-35.2-35.2 43.54-43.54 35.2 35.2zm69.6-40.2c-1.56 1.55-4.19 1.55-5.74 0l-58.86-58.86c-.76-.76-1.18-1.78-1.18-2.87s.42-2.11 1.18-2.87c.78-.78 1.82-1.17 2.87-1.17s2.09.39 2.87 1.17l58.86 58.86c1.55 1.56 1.55 4.18 0 5.74zm-10.98-33.68-19.94-19.94 16.53-16.53 19.94 19.94zm37.83-12.2-45.58-45.58 5.6-5.6 45.58 45.58zm-312.48 297.5h-30.59v-30.59c0-3.31-2.69-6-6-6h-36.59c-3.31 0-6 2.69-6 6v30.59h-30.59c-3.31 0-6 2.69-6 6v36.59c0 3.31 2.69 6 6 6h30.59v30.59c0 3.31 2.69 6 6 6h36.59c3.31 0 6-2.69 6-6v-30.59h30.59c3.31 0 6-2.69 6-6v-36.59c0-3.31-2.69-6-6-6zm-6 36.59h-30.59c-3.31 0-6 2.69-6 6v30.59h-24.59v-30.59c0-3.31-2.69-6-6-6h-30.59v-24.59h30.59c3.31 0 6-2.69 6-6v-30.59h24.59v30.59c0 3.31 2.69 6 6 6h30.59zm158.93-19.22c-2.44-2.25-2.59-6.04-.35-8.48l24.47-26.57c1.14-1.23 2.74-1.94 4.41-1.94s3.28.7 4.41 1.94l20.09 21.82 34.13-37.06c2.24-2.44 6.04-2.59 8.48-.35s2.59 6.04.35 8.48l-38.54 41.85c-1.14 1.23-2.74 1.94-4.41 1.94s-3.28-.7-4.41-1.94l-20.09-21.82-20.06 21.78c-2.25 2.44-6.04 2.6-8.48.35z"/></svg>