<svg width="512" height="512" viewBox="0 0 512 512" fill="none" xmlns="http://www.w3.org/2000/svg">
<path d="M128.361 32.6502L123.141 41.6902L122.941 42.0302L83.531 110.27L80.641 115.27L54.371 100.1L102.061 17.4702L128.361 32.6502Z" fill="#DC2626"/>
<path d="M352.921 73.3599C352.278 77.2118 350.139 80.6536 346.969 82.9351C343.8 85.2165 339.857 86.1528 336 85.5399L270.72 74.9799C267.975 68.8528 262.95 64.0377 256.711 61.5578C250.472 59.078 243.512 59.1289 237.31 61.6999L176.88 86.7599C175.169 87.4691 173.757 88.7497 172.884 90.3836C172.011 92.0174 171.732 93.9033 172.094 95.7199C172.457 97.5364 173.437 99.1712 174.87 100.345C176.302 101.52 178.098 102.161 179.95 102.16C181 102.162 182.041 101.955 183.01 101.55L243.44 76.4999C244.639 76.0022 245.925 75.7485 247.223 75.7537C248.521 75.7588 249.805 76.0227 251 76.5299C253.206 77.4398 254.993 79.141 256.01 81.2999C256.12 81.7699 256.28 82.5499 256.44 83.4899C256.543 84.0982 256.718 84.6923 256.96 85.2599C257.009 87.241 256.459 89.1909 255.381 90.854C254.304 92.5171 252.749 93.8158 250.92 94.5799L185.26 121.76C165.26 127.46 137.29 123.61 101.99 110.33L133.25 56.1999C162.89 69.2099 174.66 63.8299 190.69 54.2499C200.5 48.3799 211.59 41.7399 233.79 39.1099L340.72 56.4199C344.582 57.052 348.036 59.1907 350.324 62.3666C352.611 65.5425 353.545 69.4961 352.921 73.3599Z" fill="#DC2626"/>
<path d="M203.761 464.17H204.281C204.188 464.178 204.094 464.181 204.001 464.18C203.921 464.182 203.841 464.178 203.761 464.17Z" fill="black"/>
<path d="M194.691 448.16H132.221C128.651 415.98 118.111 408.48 101.791 399.39C91.801 393.83 80.511 387.54 67.131 369.63L28.661 268.36C27.2726 264.703 27.394 260.644 28.9983 257.076C30.6027 253.508 33.5587 250.724 37.216 249.335C40.8734 247.947 44.9325 248.068 48.5003 249.673C52.0682 251.277 54.8526 254.233 56.241 257.89L79.751 319.71C75.893 324.962 74.2062 331.498 75.041 337.96C75.4576 341.36 76.5466 344.644 78.2445 347.619C79.9424 350.594 82.2154 353.202 84.931 355.29L136.831 395.11C137.664 395.764 138.618 396.247 139.638 396.53C140.659 396.812 141.725 396.89 142.776 396.758C143.826 396.626 144.84 396.287 145.759 395.76C146.677 395.233 147.482 394.53 148.127 393.69C148.772 392.85 149.244 391.89 149.515 390.867C149.786 389.843 149.852 388.776 149.708 387.727C149.565 386.678 149.214 385.668 148.677 384.755C148.141 383.843 147.428 383.046 146.581 382.41L94.7 342.6C93.6639 341.801 92.7977 340.802 92.1521 339.664C91.5065 338.526 91.0944 337.27 90.94 335.97C90.622 333.596 91.219 331.19 92.61 329.24C92.91 328.96 93.46 328.46 94.19 327.86C94.6762 327.461 95.1157 327.008 95.5 326.51C95.5 326.508 95.5011 326.505 95.503 326.503C95.5048 326.501 95.5074 326.5 95.51 326.5C97.1962 325.462 99.1574 324.958 101.135 325.057C103.113 325.155 105.015 325.85 106.59 327.05L162.98 370.32C177.911 384.79 188.571 410.95 194.691 448.16Z" fill="#DC2626"/>
<path d="M209.671 464.17V494.53H114.251V464.17H124.711C124.867 464.18 125.024 464.18 125.181 464.17H203.761C203.841 464.178 203.921 464.182 204.001 464.18C204.094 464.181 204.188 464.178 204.281 464.17H209.671Z" fill="#DC2626"/>
<path d="M307.721 464.17H308.241C308.161 464.178 308.081 464.182 308.001 464.18C307.908 464.181 307.814 464.178 307.721 464.17Z" fill="black"/>
<path d="M483.331 268.36L444.871 369.63C431.491 387.54 420.191 393.83 410.211 399.39C393.891 408.48 383.341 415.98 379.781 448.16H317.311C323.431 410.95 334.091 384.79 349.021 370.32L405.411 327.05C406.986 325.849 408.888 325.154 410.866 325.056C412.844 324.958 414.805 325.461 416.491 326.5L416.501 326.51C416.879 327.01 417.316 327.463 417.801 327.86C418.551 328.47 419.111 328.98 419.451 329.3C420.813 331.247 421.394 333.634 421.081 335.99C420.921 337.282 420.507 338.53 419.861 339.661C419.216 340.793 418.352 341.785 417.321 342.58L365.421 382.41C364.574 383.045 363.861 383.842 363.325 384.755C362.788 385.668 362.437 386.678 362.294 387.727C362.15 388.776 362.216 389.843 362.487 390.867C362.759 391.89 363.23 392.849 363.875 393.689C364.52 394.529 365.325 395.233 366.243 395.759C367.162 396.286 368.176 396.625 369.227 396.757C370.277 396.89 371.343 396.812 372.364 396.529C373.384 396.246 374.338 395.764 375.171 395.11L427.081 355.28C429.793 353.202 432.063 350.604 433.759 347.639C435.455 344.674 436.544 341.4 436.961 338.01C437.821 331.527 436.141 324.962 432.271 319.69L455.761 257.89C456.438 256.065 457.469 254.393 458.795 252.968C460.122 251.544 461.717 250.397 463.489 249.592C465.26 248.787 467.174 248.341 469.119 248.279C471.064 248.218 473.002 248.542 474.822 249.233C476.641 249.923 478.306 250.968 479.719 252.305C481.133 253.642 482.268 255.246 483.06 257.024C483.851 258.802 484.282 260.719 484.328 262.665C484.375 264.61 484.036 266.546 483.331 268.36Z" fill="#DC2626"/>
<path d="M397.751 464.17V494.53H302.331V464.17H307.721C307.814 464.178 307.908 464.181 308.001 464.18C308.081 464.182 308.161 464.178 308.241 464.17H386.831C386.988 464.18 387.145 464.18 387.301 464.17H397.751Z" fill="#DC2626"/>
<path d="M374.421 237.11C374.421 256.57 354.491 282.39 330.461 307.2C323.701 292.262 312.617 279.694 298.641 271.12C302.662 263.727 304.693 255.416 304.532 247.001C304.372 238.587 302.026 230.358 297.726 223.124C293.426 215.89 287.319 209.898 280.004 205.736C272.688 201.574 264.417 199.386 256.001 199.386C247.585 199.386 239.314 201.574 231.999 205.736C224.684 209.898 218.576 215.89 214.276 223.124C209.976 230.358 207.63 238.587 207.47 247.001C207.309 255.416 209.34 263.727 213.361 271.12C199.385 279.694 188.301 292.262 181.541 307.2C157.511 282.39 137.581 256.57 137.581 237.11C137.6 219.835 144.472 203.272 156.687 191.056C168.903 178.841 185.465 171.969 202.741 171.95C211.632 171.916 220.435 173.72 228.597 177.247C236.759 180.775 244.103 185.951 250.171 192.45C250.916 193.247 251.818 193.881 252.821 194.31C254.332 194.965 256.008 195.138 257.62 194.805C259.233 194.472 260.703 193.65 261.831 192.45C267.899 185.951 275.244 180.775 283.405 177.247C291.567 173.72 300.37 171.916 309.261 171.95C326.537 171.969 343.099 178.841 355.315 191.056C367.53 203.272 374.402 219.835 374.421 237.11Z" fill="black"/>
<path d="M318.131 319.54C305.231 332.08 291.951 344.02 280.471 354.34C271.591 362.33 263.101 369.96 256.001 376.73C248.901 369.96 240.401 362.33 231.531 354.34C220.051 344.02 206.771 332.08 193.871 319.54C199.049 304.457 209.519 291.763 223.341 283.81C232.265 291.961 243.915 296.48 256.001 296.48C268.087 296.48 279.737 291.961 288.661 283.81C302.481 291.766 312.95 304.459 318.131 319.54Z" fill="black"/>
<path d="M288.531 247.93C288.533 254.364 286.627 260.655 283.054 266.005C279.48 271.356 274.401 275.527 268.457 277.991C262.513 280.455 255.972 281.1 249.661 279.846C243.35 278.592 237.553 275.495 233.003 270.946C228.452 266.397 225.353 260.601 224.097 254.291C222.841 247.98 223.484 241.439 225.946 235.494C228.408 229.55 232.577 224.469 237.926 220.894C243.276 217.319 249.566 215.41 256 215.41C264.623 215.419 272.891 218.847 278.99 224.944C285.088 231.04 288.52 239.307 288.531 247.93Z" fill="#DC2626"/>
</svg>
