<svg xmlns="http://www.w3.org/2000/svg" xml:space="preserve" width="163.839" height="163.839" style="shape-rendering:geometricPrecision;text-rendering:geometricPrecision;image-rendering:optimizeQuality;fill-rule:evenodd;clip-rule:evenodd" viewBox="0 0 1707 1707" id="doctors">
  <g id="Layer_x0020_1">
    <path d="M1214 1205l-295 0c11,23 18,49 22,77l45 347c1,10 -6,18 -16,18 -318,0 -636,0 -953,0 -10,0 -18,-8 -17,-18l45 -347c15,-116 97,-197 200,-198l84 0c6,-20 25,-11 49,-6l0 -61c-68,-48 -85,-104 -89,-122 0,0 -92,-95 -21,-131 0,-19 1,-38 2,-56 -38,-7 -38,-33 -23,-41 77,-38 13,-165 248,-165 205,3 226,110 227,262 72,36 -21,131 -21,131 -4,18 -22,76 -93,125l0 58c24,-5 43,-14 50,6l76 0 32 -245c10,-82 54,-146 115,-177 -25,-46 -3,-110 45,-121 -8,-34 9,-70 40,-80 2,-12 7,-30 15,-45 -25,-39 -28,-77 8,-95 0,-18 0,-37 1,-56 -38,-7 -38,-33 -23,-40 78,-39 14,-166 248,-166 206,3 226,110 227,262 36,18 33,56 8,95 8,15 12,33 15,45 31,10 48,46 39,80 50,12 71,76 45,122 59,32 102,96 112,177l46 346c1,10 -7,19 -17,19l-476 0zm-369 352c-21,0 -49,5 -49,-17 0,-19 21,-17 32,-17 0,-31 5,-51 -17,-67 -10,-7 -80,-18 -80,31l0 36c11,0 32,-2 32,17 0,22 -28,17 -49,17 -9,0 -17,-8 -17,-17 0,-43 -6,-78 24,-105 0,-106 -9,-99 42,-99 0,-75 9,-150 -29,-218l-66 0 29 87c4,13 -8,25 -21,21l-12 -4c4,15 13,36 9,46l-154 346 432 0 -43 -328c-10,-76 -57,-148 -135,-165 31,68 23,142 23,215 52,0 42,-7 42,99 30,27 24,62 24,105 0,9 -8,17 -17,17zm-91 -139l51 0 0 -48 -51 0 0 48zm-351 -424c29,15 30,21 79,38 15,5 13,4 27,0 152,-52 156,-147 164,-157 76,-80 29,-83 24,-85 -12,-7 -4,40 -29,39 -9,-1 -16,-8 -16,-17 0,-165 -166,-32 -272,-118 -13,40 -30,60 -41,68 -1,32 5,66 -17,67 -24,1 -16,-33 -27,-40 -3,4 -56,2 22,86 9,11 5,64 86,119zm9 44l0 48 81 18 82 -18 0 -46c-12,6 -63,29 -80,29 -18,0 -71,-25 -83,-31zm154 -348c48,0 96,10 113,70 3,-2 6,-3 9,-4 -1,-136 -17,-218 -193,-221 -191,0 -149,86 -204,142 8,1 14,9 13,18 -2,19 -2,40 -2,61 1,0 2,1 3,1 0,-8 1,-16 11,-20l0 0c0,0 25,-13 39,-79 3,-14 21,-18 30,-7 42,55 119,39 181,39zm334 482l293 0 -87 -381 6 -37 -79 25c-11,0 -19,-11 -16,-22l27 -82 -72 0c-29,54 -28,92 -28,147 17,0 42,-4 42,17l0 89c14,15 23,35 23,57 0,45 -37,82 -82,82 -45,0 -82,-37 -82,-82 0,-22 9,-42 23,-57l0 -89c0,-21 25,-17 42,-17 0,-54 0,-90 23,-144 -70,15 -123,79 -134,166l-32 242c55,8 102,39 133,86zm-582 -54l-66 0c-29,53 -29,91 -29,147 17,0 43,-4 43,17l0 89c14,14 23,35 23,57 0,45 -37,82 -82,82 -46,0 -83,-37 -83,-82 0,-22 9,-43 24,-58l0 -88c0,-21 25,-17 42,-17 0,-54 -1,-90 23,-144 -70,15 -123,79 -135,165l-42 328 431 0 -154 -346c-4,-10 5,-31 9,-46 -10,3 -19,9 -28,0 -5,-4 -6,-11 -4,-17l28 -87zm43 91l-15 51 130 293 0 -394 -23 20 -92 30zm149 343l130 -292 -14 -51 -99 -34 -17 -16 0 393zm-154 -445l-25 77 108 -36 20 -18 -103 -23zm191 41l108 36 -25 -77 -102 23 19 18zm-366 202c17,-6 35,-6 51,0l0 -52 -51 0 0 52zm26 29c-65,0 -65,98 0,98 64,0 64,-98 0,-98zm806 -975c8,9 27,30 29,38 8,58 74,118 163,148 12,4 11,3 24,-1 153,-52 156,-147 165,-156 18,-20 47,-56 41,-74 -2,-8 -20,-13 -20,-13 -10,3 -3,41 -27,40 -9,0 -15,-8 -15,-17 0,-164 -167,-32 -273,-118 -13,41 -30,60 -41,69 0,32 5,65 -17,66 -23,1 -15,-32 -27,-40 -3,4 -43,1 -2,58zm-9 42c-8,25 -4,47 -23,47 -21,0 -32,35 -15,53 11,13 -1,32 -17,28 -34,-10 -59,41 -36,75 38,-11 98,-7 142,-7 6,-21 23,-13 44,-8l0 -59c-68,-49 -86,-105 -89,-123 -2,-2 -4,-4 -6,-6zm128 149l0 46 82 18 81 -18 0 -44c-11,6 -62,29 -79,29 -19,0 -72,-24 -84,-31zm196 -18l0 57c21,-5 38,-13 44,8 44,0 105,-5 146,8 24,-34 -2,-86 -36,-76 -16,4 -28,-15 -17,-28 17,-18 6,-53 -15,-53 -19,0 -15,-22 -23,-47 -2,2 -4,4 -6,6 -4,18 -22,77 -93,125zm-41 -329c47,0 96,9 113,69 2,-2 6,-3 9,-4 -1,-135 -18,-218 -194,-221 -190,0 -148,87 -204,142 8,2 14,9 14,18 -2,20 -3,41 -3,61 1,1 3,1 4,1 0,-8 1,-15 10,-19 0,0 25,-13 40,-80 3,-14 20,-18 29,-7 43,56 121,40 182,40zm96 427l27 82c4,13 -8,26 -21,21l-74 -24 6 44 -87 374 437 0 -43 -328c-11,-87 -64,-151 -134,-166 30,69 23,143 23,216 51,0 42,-8 42,98 30,27 23,63 23,105 0,22 -27,17 -49,17 -22,0 -22,-33 0,-33l16 0c0,-31 5,-52 -17,-67 -11,-8 -81,-19 -81,30l0 37c11,0 33,-3 33,16 0,22 -28,17 -49,17 -10,0 -17,-7 -17,-17 0,-42 -7,-78 23,-105 0,-106 -9,-98 42,-98 0,-75 9,-151 -28,-219l-72 0zm-456 181l-25 0 0 51c16,-5 34,-5 51,0l0 -51 -26 0zm547 120l52 0 0 -49 -52 0 0 49zm-277 66l0 -327c-24,22 -14,15 -50,27l-8 51 58 249zm83 -300c-36,-12 -26,-5 -50,-27l0 327 58 -249 -8 -51zm-198 -78l-23 72 102 -34 18 -16 -97 -22zm184 38l102 34 -23 -72 -97 22 18 16zm-339 234c-64,0 -64,98 0,98 64,0 64,-98 0,-98z" style="fill:#000"></path>
  </g>
</svg>
