<svg width="512" height="512" viewBox="0 0 512 512" fill="none" xmlns="http://www.w3.org/2000/svg">
<path d="M290.37 393.17L275.72 486.97C273.45 501.47 261.15 512 246.48 512H107.93V368.48L153.68 316.89V253H155.25C178.45 253 197.32 271.87 197.32 295.07V359H261.13C269.79 359 277.99 362.78 283.62 369.36C289.25 375.93 291.71 384.61 290.37 393.17Z" fill="black"/>
<path d="M33.1699 376.859H77.9299V511.999H33.1699V376.859Z" fill="black"/>
<path d="M432.32 48.65C397 48.868 364.561 29.66 345.87 0H318.46C299.718 29.638 267.329 48.878 231.99 48.65H185.48V229.65C210.661 241.332 227.362 266.741 227.32 295.07C227.317 302.076 227.322 322.255 227.32 329C233.569 329.001 254.523 328.999 261.13 329C285.852 328.704 309.262 345.297 317.28 368.61H317.29C320.615 377.905 321.558 387.996 320.02 397.8L319.27 402.57L332.15 408.52L425.91 365.23C458.06 350.38 478.83 317.91 478.83 282.5V48.65H432.32ZM286.11 130.34L313.68 157.91L378.2 93.39L399.41 114.61L313.68 200.34L264.9 151.55L286.11 130.34ZM271.76 292.17V262.17H392.55V292.17H271.76Z" fill="#DD2A2A"/>
</svg>
