<svg xmlns="http://www.w3.org/2000/svg" viewBox="0 0 128 128" id="trusted">
  <path d="M119.95208,20.0063a1.9984,1.9984,0,0,0-1.6835-1.9731c-1.0791-.1733-6.8243-1.0493-8.587-1.3838C97.79388,14.3911,86.05268,9.40869,73.791,1.41846,72.07908.29785,69.27728-.666,67.39158.59912,52.40918,10.6445,37.51168,16.293,21.85058,17.8657a1.99927,1.99927,0,0,0-1.7998,1.9893c0,4.5766.167,49.8818.2373,50.7646a14.19281,14.19281,0,0,0,3.8515-3.5405c-.0244-1.543-.0917-41.4609-.0898-45.4336,15.6123-1.8726,30.4834-7.6431,45.3965-17.60937a4.9436,4.9436,0,0,1,2.1572.7295c12.71,8.28267,24.9209,13.45457,37.332,15.812,1.835.3482,6.5459,1.0664,7.0098,1.1372,0,0-.06828,33.3531.0459,40.7222.2783,17.646-5.9883,32.3052-19.15818,44.814a80.51193,80.51193,0,0,1-24.52152,16.1137c-.9463.3936-2.4531.9561-3.4697.5069a101.18265,101.18265,0,0,1-18.5127-10.4258,9.40989,9.40989,0,0,1-3.8164,2.1689,103.46317,103.46317,0,0,0,20.7119,11.9131c2.06842.9141,4.624.3604,6.624-.4721a84.50408,84.50408,0,0,0,25.7403-16.9068c13.831-13.1362,20.6953-29.2104,20.4023-47.7749C119.877,55.0317,119.95208,20.0063,119.95208,20.0063Z"></path>
  <path d="M49.334 106.5776v-.8466a5.3811 5.3811 0 0 0-.43752-2.1304A5.412 5.412 0 0 0 51.666 98.8853v-.8467a5.39557 5.39557 0 0 0-.43652-2.1299A5.41092 5.41092 0 0 0 54 91.1938v-.8476a5.42342 5.42342 0 0 0-2.77052-4.7251 5.36685 5.36685 0 0 0 .43652-2.1196v-.8477a5.42869 5.42869 0 0 0-5.42192-5.4228h-6.7832c-.5088-1.1656-.2314-3.3999.3399-5.0528a14.876 14.876 0 0 0 .78222-5.7959c-.28422-4.1997-2.57812-7.2973-5.98832-8.0844-2.3974-.5538-4.1953-.3326-5.3535.6542-1.3047 1.1119-1.2197 2.7476-1.0859 4.2969.1904 2.2266.3711 4.3296-.6358 5.9947-1.374 2.269-8.9902 7.4726-9.542 7.9873h-5.5576A4.3788 4.3788 0 0 0 8 81.5581v20.75c0 2.3057 1.89058 4.8848 4.41988 4.8848h6.8428c1.8975 2.2509 5.0781 4.2055 10.0352 4.2055a21.13581 21.13581 0 0 0 2.6064-.1674h2.082a5.37858 5.37858 0 0 0 2.7696.7695h7.1552A5.42892 5.42892 0 0 0 49.334 106.5776zM46.24408 81.231A1.42376 1.42376 0 0 1 47.666 82.6538v.8477a1.4233 1.4233 0 0 1-1.42192 1.4218H34.42188A1.42327 1.42327 0 0 1 33 83.5015v-.8477a1.42374 1.42374 0 0 1 1.42188-1.4228zm-14.8623 26.0288c-8.3076 1.0175-10.0937-4.0157-10.38178-5.1192v-2.1401a2 2 0 0 0-4 0l-.01562 3.1977-4.4795.0074A1.27652 1.27652 0 0 1 12 102.3081v-20.75a.38773.38773 0 0 1 .41988-.3271H17v1.6923a2 2 0 0 0 4 0V79.8877c.33978-.2783 8.10638-5.5425 9.94238-8.5732 1.68062-2.7808 1.4238-5.7701 1.1982-8.4078-.0254-.292-.0508-.583-.0732-.9028a6.05176 6.05176 0 0 1 1.6269.1914c2.4473.565 2.837 3.5542 2.8985 4.4561a10.84534 10.84534 0 0 1-.5733 4.2212 14.23049 14.23049 0 0 0-.6884 6.3584h-.9092A5.42866 5.42866 0 0 0 29 82.6538v.8477a5.38256 5.38256 0 0 0 .43648 2.1196A5.4236 5.4236 0 0 0 26.666 90.3462v.8476a5.41041 5.41041 0 0 0 2.77048 4.7149A5.39731 5.39731 0 0 0 29 98.0386v.8467a5.41259 5.41259 0 0 0 2.77048 4.7158 5.39555 5.39555 0 0 0-.43648 2.1299v.8466A5.42269 5.42269 0 0 0 31.38178 107.2598zM30.666 91.1938v-.8476a1.42468 1.42468 0 0 1 1.42288-1.4229h16.4892A1.42385 1.42385 0 0 1 50 90.3462v.8476a1.42332 1.42332 0 0 1-1.42192 1.4219H32.08888A1.42414 1.42414 0 0 1 30.666 91.1938zm14.668 15.3838a1.4247 1.4247 0 0 1-1.42292 1.4229h-7.1552a1.42382 1.42382 0 0 1-1.42188-1.4229v-.8466a1.42382 1.42382 0 0 1 1.42188-1.4229h7.1552A1.4247 1.4247 0 0 1 45.334 105.731zm2.332-7.6923a1.42383 1.42383 0 0 1-1.42192 1.4228H34.42188A1.4238 1.4238 0 0 1 33 98.8853v-.8467a1.42382 1.42382 0 0 1 1.42188-1.4229h11.8222A1.42385 1.42385 0 0 1 47.666 98.0386zM70 85A21 21 0 1 0 49 64 20.99979 20.99979 0 0 0 70 85zm0-38A17 17 0 1 1 53 64 17.019 17.019 0 0 1 70 47z"></path>
  <path d="M64.43258,69.5869a2.02073,2.02073,0,0,0,2.7598.5952l10.8887-7a1.99956,1.99956,0,1,0-2.1622-3.3642L66.707,65.7397l-2.02832-3.1318a1.99985,1.99985,0,1,0-3.3574,2.1738Z"></path>
  <circle cx="70.073" cy="13.046" r="2"></circle>
  <circle cx="77.114" cy="16.942" r="2"></circle>
  <circle cx="84.35" cy="20.96" r="2"></circle>
  <circle cx="91.945" cy="24.127" r="2"></circle>
  <circle cx="99.854" cy="26.381" r="2"></circle>
  <circle cx="107.915" cy="27.803" r="2"></circle>
  <circle cx="107.96" cy="35.86" r="2"></circle>
  <circle cx="107.96" cy="43.88" r="2"></circle>
  <circle cx="107.96" cy="51.89" r="2"></circle>
  <circle cx="107.915" cy="59.9" r="2"></circle>
  <circle cx="107.915" cy="67.912" r="2"></circle>
  <circle cx="106.649" cy="75.822" r="2"></circle>
  <circle cx="104.22" cy="83.449" r="2"></circle>
  <circle cx="100.564" cy="90.561" r="2"></circle>
  <circle cx="95.835" cy="97.019" r="2"></circle>
  <circle cx="90.25" cy="102.752" r="2"></circle>
  <circle cx="84.03" cy="107.791" r="2"></circle>
  <circle cx="77.239" cy="112.031" r="2"></circle>
  <circle cx="69.854" cy="114.999" r="2"></circle>
  <circle cx="62.572" cy="111.828" r="2"></circle>
  <circle cx="55.748" cy="107.647" r="2"></circle>
  <circle cx="62.907" cy="16.942" r="2"></circle>
  <circle cx="55.678" cy="20.899" r="2"></circle>
  <circle cx="48.077" cy="24.043" r="2"></circle>
  <circle cx="40.178" cy="26.32" r="2"></circle>
  <circle cx="32.04" cy="27.674" r="2"></circle>
  <circle cx="32.04" cy="35.68" r="2"></circle>
  <circle cx="32.04" cy="43.69" r="2"></circle>
  <circle cx="32.04" cy="51.7" r="2"></circle>
</svg>
