<svg xmlns="http://www.w3.org/2000/svg" enable-background="new 0 0 512 512" viewBox="0 0 512 512" id="2">
  <g>
    <g>
      <path d="M446.819,456.615c0,27.221-22.02,49.392-49.089,49.392H114.308c-21.817,0-40.705-14.141-47.018-35.15
			c-6.262-20.959,1.717-43.23,19.848-55.351l221.405-148.024c26.11-17.474,41.463-46.463,39.998-75.704
			c-2.323-46.059-38.13-81.613-81.663-86.411c-57.523-6.313-103.531,38.18-103.531,91.057c0,27.221-22.019,49.392-49.038,49.392
			c-27.069,0-49.089-22.171-49.089-49.392C65.22,84.207,162.741-5.486,277.534,7.19c91.612,10.101,164.488,85.906,169.084,179.74
			c3.081,63.785-28.989,126.156-83.734,162.771l-86.057,57.573H397.73C424.8,407.274,446.819,429.394,446.819,456.615z"></path>
    </g>
  </g>
</svg>
