<svg xmlns="http://www.w3.org/2000/svg" xml:space="preserve" id="deep-vein" x="0" y="0" style="enable-background:new 0 0 100 100" version="1.1" viewBox="0 0 100 100">
  <g>
    <path d="M49.161,80.724c-0.408,0.555-0.899,0.804-7.778,1.919c-0.884,0.143-1.553,0.249-1.742,0.295
		c-1.254,0.334-2.324,0.634-3.268,0.898c-3.868,1.082-5.701,1.595-9.651,1.595c-1.032,0-2.208-0.035-3.601-0.103
		c-1.442-0.072-2.795-0.754-3.711-1.871c-0.918-1.122-1.322-2.587-1.108-4.021c0.978-6.51,1.761-13.463,0.883-20.207
		c-0.228-1.74-0.572-3.52-0.904-5.243c-0.739-3.825-1.504-7.78-1.111-11.784c0.252-2.573,0.976-5.051,1.674-7.448
		c0.429-1.471,0.872-2.991,1.19-4.49c0.296-1.39,0.537-3.006,0.092-4.447c-0.484-1.571-1.834-3.399-3.138-5.167
		c-0.973-1.32-1.981-2.685-2.699-4.025l-0.531-0.993l1.986-1.064l0.532,0.992c0.036,0.067,0.081,0.136,0.119,0.203
		c0.638,1.141,1.532,2.362,2.407,3.549c1.417,1.918,2.881,3.903,3.478,5.84c0.601,1.946,0.294,4.004-0.041,5.58
		c-0.337,1.581-0.792,3.142-1.232,4.652c-0.701,2.403-1.363,4.674-1.595,7.037c-0.361,3.679,0.34,7.301,1.081,11.136
		c0.339,1.756,0.69,3.571,0.925,5.38c0.915,7.019,0.113,14.16-0.888,20.832c-0.123,0.817,0.098,1.619,0.622,2.258
		c0.521,0.636,1.261,1.009,2.08,1.048c6.371,0.313,7.798-0.085,12.534-1.41c0.953-0.266,2.032-0.569,3.301-0.906
		c0.207-0.056,0.674-0.133,1.957-0.341c1.636-0.265,5.297-0.858,6.382-1.199c0.033-0.378-0.373-1.034-0.953-1.474
		c-1.446-1.099-3.286-1.668-5.233-2.269c-0.784-0.242-1.576-0.488-2.35-0.773l0.539,0.545l-1.602,1.584l-0.792-0.801
		c-1.641-1.659-2.954-3.665-3.833-5.827c-1.284-2.504-1.212-5.504-0.967-7.951c0.36-3.612,1.076-7.246,1.769-10.76
		c1.372-6.965,2.669-13.544,1.511-20.185l-0.045-0.263l0.076-0.254c1.479-4.935-0.178-9.016-0.195-9.056l-0.108-0.26l0.025-0.283
		c0.17-1.788,0.135-3.28-0.116-4.99l-0.075-0.509l-0.089-0.606l2.229-0.328l0.164,1.114c0.266,1.814,0.313,3.403,0.153,5.266
		c0.394,1.087,1.63,5.139,0.244,10.041c1.15,6.966-0.23,13.97-1.565,20.747c-0.682,3.462-1.387,7.043-1.737,10.549
		c-0.168,1.675-0.253,3.641,0.223,5.379l0.019-0.007l0.39,1.056c0.048,0.132,0.105,0.261,0.157,0.392
		c0.153,0.284,0.329,0.555,0.532,0.811c1.388,1.754,3.681,2.463,6.107,3.213c2.048,0.634,4.167,1.288,5.931,2.629
		C49.325,77.1,50.309,79.161,49.161,80.724z M28.574,77.788l1.541,1.642l0.822-0.77c1.28-1.202,1.547-3.305,0.605-4.787l-0.604-0.95
		l-1.901,1.208l0.604,0.95c0.367,0.58,0.255,1.466-0.246,1.936L28.574,77.788z M24.201,53.692c0.278,0.629,0.611,1.222,0.932,1.796
		c0.735,1.312,1.37,2.446,1.24,3.661c-0.055,0.51-0.229,1.041-0.413,1.603c-0.088,0.269-0.176,0.539-0.254,0.812
		c-0.385,1.349-0.378,2.46,0.022,3.399l0.442,1.036l2.072-0.884L27.8,64.078c-0.189-0.443-0.166-1.064,0.073-1.896
		c0.069-0.244,0.15-0.487,0.229-0.73c0.211-0.647,0.43-1.316,0.51-2.061c0.207-1.929-0.707-3.562-1.514-5.002
		c-0.309-0.553-0.602-1.076-0.838-1.608c-2.38-5.379-1.92-9.066-0.877-14.499l0.193-0.989c0.472,0.807,0.975,1.618,1.527,2.394
		l-0.047,0.915c-0.115,2.278,0.443,3.71,0.982,5.095c0.602,1.543,1.169,3,0.837,5.885l-0.13,1.119l2.238,0.259l0.129-1.12
		c0.397-3.44-0.332-5.31-0.975-6.961c-0.334-0.856-0.633-1.638-0.767-2.603c0.426,0.377,0.878,0.724,1.364,1.027l0.956,0.597
		l1.194-1.91l-0.955-0.596c-2.251-1.406-3.823-4.184-5.208-6.635l-0.492-0.865c0.762-4.238,1.206-8.541-0.188-12.678l-0.36-1.067
		l-2.134,0.719l0.36,1.067c1.516,4.499,0.525,9.515-0.432,14.367l-0.305,1.556C22.079,43.549,21.561,47.727,24.201,53.692z
		 M86.244,49.387c0,0.355-0.011,0.707-0.027,1.057c-0.002,0.048-0.003,0.097-0.006,0.145c-0.004,0.085-0.014,0.169-0.019,0.254
		c-0.001,0.02-0.003,0.039-0.004,0.058c-0.013,0.188-0.026,0.376-0.043,0.563c-0.01,0.111-0.019,0.223-0.031,0.334
		c-0.007,0.066-0.018,0.13-0.025,0.196c-0.003,0.024-0.007,0.047-0.009,0.07c-0.015,0.125-0.031,0.251-0.048,0.376
		c-0.027,0.195-0.053,0.39-0.085,0.583c-0.004,0.025-0.009,0.049-0.013,0.073c-0.003,0.019-0.007,0.037-0.01,0.056
		c-0.011,0.065-0.023,0.131-0.035,0.196c-0.053,0.297-0.111,0.593-0.176,0.887c-0.002,0.01-0.005,0.02-0.007,0.031
		c-0.007,0.031-0.017,0.061-0.023,0.092c-0.077,0.338-0.163,0.673-0.255,1.006c-0.003,0.014-0.007,0.028-0.01,0.042
		c-0.001,0.004-0.002,0.008-0.003,0.012c-0.229,0.823-0.498,1.628-0.816,2.41c-0.001,0.003-0.002,0.007-0.004,0.009
		c-0.105,0.261-0.217,0.518-0.333,0.774c-0.029,0.064-0.057,0.128-0.086,0.191c-0.1,0.216-0.203,0.431-0.31,0.645
		c-0.014,0.027-0.028,0.053-0.041,0.081l-0.008,0.016h-0.001c-0.04,0.079-0.08,0.158-0.121,0.237
		c-0.09,0.172-0.18,0.343-0.274,0.512c-0.095,0.172-0.194,0.342-0.294,0.511c-0.065,0.111-0.129,0.222-0.196,0.332
		c-0.308,0.503-0.64,0.99-0.987,1.47c-0.018,0.025-0.038,0.049-0.057,0.074c-0.23,0.316-0.462,0.631-0.71,0.935l-0.338,0.415h-0.023
		c-4.134,4.821-10.263,7.885-17.098,7.885c-6.835,0-12.964-3.063-17.099-7.885h-0.023l-0.338-0.415
		c-0.248-0.304-0.48-0.619-0.71-0.935c-0.019-0.025-0.038-0.049-0.057-0.075c-0.346-0.479-0.68-0.967-0.987-1.47
		c-0.067-0.11-0.131-0.222-0.196-0.332c-0.1-0.169-0.198-0.339-0.294-0.511c-0.093-0.169-0.184-0.34-0.273-0.512
		c-0.041-0.079-0.081-0.158-0.122-0.237h0l-0.008-0.016c-0.014-0.027-0.028-0.054-0.042-0.081c-0.106-0.213-0.21-0.429-0.31-0.645
		c-0.029-0.063-0.058-0.127-0.086-0.191c-0.115-0.256-0.227-0.514-0.333-0.774c-0.001-0.003-0.002-0.006-0.004-0.009
		c-0.317-0.782-0.586-1.587-0.815-2.409c-0.001-0.005-0.003-0.009-0.004-0.014c-0.004-0.015-0.007-0.03-0.011-0.045
		c-0.091-0.332-0.178-0.666-0.253-1.003c-0.007-0.031-0.017-0.061-0.023-0.092c-0.002-0.011-0.006-0.021-0.008-0.031
		c-0.065-0.294-0.123-0.59-0.177-0.887c-0.012-0.065-0.024-0.13-0.035-0.196c-0.003-0.019-0.007-0.037-0.01-0.056
		c-0.004-0.024-0.009-0.048-0.013-0.073c-0.031-0.194-0.058-0.388-0.085-0.583c-0.017-0.125-0.033-0.25-0.048-0.376
		c-0.003-0.024-0.006-0.047-0.009-0.07c-0.008-0.065-0.018-0.13-0.025-0.196c-0.012-0.111-0.021-0.223-0.031-0.334
		c-0.017-0.187-0.03-0.375-0.043-0.563c-0.002-0.019-0.003-0.039-0.004-0.058c-0.005-0.085-0.015-0.169-0.02-0.254
		c-0.002-0.048-0.003-0.096-0.006-0.145c-0.017-0.35-0.027-0.702-0.027-1.057c0-0.354,0.01-0.706,0.027-1.057
		c0.002-0.047,0.003-0.095,0.006-0.142c0.004-0.082,0.013-0.163,0.019-0.244c0.002-0.024,0.004-0.047,0.006-0.071
		c0.008-0.12,0.013-0.24,0.023-0.359c-0.012-0.393,0.032-0.78,0.129-1.155c0.001-0.009,0.003-0.017,0.004-0.025
		c0.026-0.191,0.052-0.382,0.083-0.572c0.003-0.02,0.008-0.04,0.011-0.06c0.005-0.026,0.01-0.053,0.014-0.08
		c0.011-0.066,0.024-0.131,0.035-0.196c0.052-0.292,0.109-0.582,0.173-0.871c0.001-0.002,0.001-0.003,0.001-0.004
		c0.009-0.043,0.022-0.085,0.032-0.127c0.069-0.308,0.148-0.611,0.229-0.913c0.01-0.038,0.018-0.076,0.029-0.114
		c0.004-0.014,0.008-0.028,0.012-0.041c0.228-0.823,0.498-1.629,0.816-2.411c0.001-0.003,0.002-0.006,0.003-0.009
		c0.106-0.261,0.218-0.518,0.333-0.775c0.029-0.063,0.057-0.127,0.086-0.19c0.099-0.216,0.203-0.431,0.31-0.645
		c0.009-0.017,0.018-0.035,0.027-0.052l0.003-0.006l0,0c0.047-0.092,0.094-0.184,0.142-0.276c0.089-0.172,0.18-0.342,0.273-0.512
		c0.096-0.172,0.194-0.342,0.294-0.511c0.066-0.111,0.129-0.222,0.196-0.331c0.307-0.503,0.64-0.991,0.987-1.47
		c0.019-0.026,0.04-0.051,0.059-0.078c0.23-0.315,0.461-0.63,0.709-0.933l0.338-0.415h0.023c4.135-4.821,10.264-7.885,17.099-7.885
		c6.835,0,12.964,3.064,17.098,7.885h0.023l0.338,0.415c0.248,0.303,0.479,0.618,0.708,0.933c0.019,0.026,0.04,0.051,0.059,0.078
		c0.346,0.479,0.679,0.966,0.987,1.47c0.067,0.109,0.131,0.221,0.196,0.331c0.1,0.169,0.199,0.339,0.295,0.511
		c0.094,0.169,0.184,0.34,0.273,0.512c0.048,0.092,0.097,0.184,0.144,0.276h0.001l0.016,0.035c0.004,0.007,0.007,0.015,0.011,0.022
		c0.107,0.213,0.21,0.429,0.31,0.645c0.029,0.063,0.057,0.127,0.086,0.19c0.116,0.257,0.228,0.514,0.333,0.775
		c0.001,0.003,0.002,0.006,0.003,0.009c0.317,0.782,0.587,1.588,0.816,2.411c0.004,0.014,0.008,0.028,0.012,0.042
		c0.013,0.047,0.023,0.095,0.036,0.142c0.076,0.28,0.15,0.562,0.215,0.847c0.005,0.022,0.01,0.046,0.015,0.068
		c0.031,0.138,0.056,0.277,0.085,0.416c0.039,0.185,0.08,0.368,0.113,0.554c0.012,0.065,0.024,0.13,0.035,0.196
		c0.005,0.029,0.011,0.058,0.016,0.087c0.003,0.017,0.006,0.034,0.009,0.051c0.031,0.19,0.058,0.382,0.084,0.574
		c0.017,0.125,0.033,0.25,0.048,0.376c0.004,0.032,0.009,0.065,0.013,0.097c0.007,0.059,0.016,0.116,0.022,0.175
		c0.012,0.109,0.02,0.219,0.031,0.328c0.017,0.187,0.03,0.375,0.043,0.563c0.002,0.026,0.004,0.051,0.006,0.077
		c0.006,0.08,0.014,0.158,0.018,0.238c0.003,0.047,0.004,0.095,0.006,0.142C86.233,48.68,86.244,49.032,86.244,49.387z
		 M77.717,64.03H49.714c3.643,3.485,8.575,5.632,14.001,5.632C69.142,69.662,74.074,67.515,77.717,64.03z M49.714,34.744h6.466
		c1.857-2.069,4.542-3.379,7.535-3.379c2.992,0,5.678,1.311,7.534,3.379h6.466c-3.643-3.485-8.575-5.632-14.001-5.632
		C58.289,29.112,53.357,31.259,49.714,34.744z M80.964,60.027c0.042-0.068,0.086-0.136,0.127-0.205
		c0.056-0.092,0.109-0.185,0.163-0.278h-0.003H46.18h-0.003c0.053,0.093,0.107,0.185,0.162,0.277
		c0.042,0.069,0.086,0.138,0.128,0.207c0.13,0.211,0.265,0.421,0.403,0.627c0.027,0.041,0.055,0.081,0.083,0.123
		c0.164,0.242,0.334,0.48,0.509,0.715c0.007,0.009,0.013,0.018,0.02,0.026c0.064,0.086,0.125,0.173,0.19,0.257h0.012h32.063h0.012
		c0.065-0.084,0.126-0.172,0.19-0.257c0.007-0.008,0.013-0.017,0.019-0.026c0.175-0.235,0.345-0.473,0.509-0.715
		c0.028-0.041,0.056-0.082,0.083-0.123C80.7,60.448,80.834,60.238,80.964,60.027z M46.468,38.744
		c-0.043,0.07-0.087,0.139-0.129,0.208c-0.063,0.104-0.124,0.21-0.185,0.316h0.003h7.677c0.18-0.798,0.457-1.558,0.813-2.272h-6.963
		h-0.012c-0.065,0.084-0.126,0.171-0.19,0.256c-0.007,0.009-0.013,0.019-0.02,0.028c-0.175,0.234-0.344,0.472-0.508,0.714
		c-0.028,0.041-0.056,0.083-0.084,0.124C46.732,38.325,46.598,38.534,46.468,38.744z M80.478,37.995
		c-0.164-0.242-0.333-0.48-0.508-0.714c-0.007-0.009-0.013-0.019-0.02-0.028c-0.064-0.085-0.125-0.172-0.19-0.256h-0.012h-6.964
		c0.356,0.715,0.634,1.475,0.813,2.272h7.677h0.003c-0.061-0.106-0.122-0.212-0.185-0.316c-0.042-0.07-0.085-0.138-0.128-0.207
		c-0.13-0.211-0.264-0.42-0.402-0.627C80.534,38.077,80.506,38.036,80.478,37.995z M83.965,50.41c0.002-0.03,0.002-0.061,0.003-0.09
		c0.014-0.31,0.024-0.621,0.024-0.933c0-0.31-0.009-0.62-0.024-0.929c-0.001-0.03-0.001-0.061-0.002-0.091
		c-0.004-0.08-0.013-0.158-0.018-0.238c-0.013-0.199-0.026-0.398-0.045-0.596c-0.012-0.126-0.025-0.253-0.04-0.379
		c-0.021-0.189-0.045-0.378-0.072-0.566c-0.016-0.117-0.032-0.234-0.051-0.351c-0.034-0.21-0.072-0.418-0.112-0.626
		c-0.019-0.099-0.036-0.198-0.057-0.296c-0.071-0.348-0.156-0.693-0.246-1.037c-0.057-0.217-0.12-0.433-0.185-0.648
		c-0.033-0.114-0.069-0.229-0.104-0.343c-0.19-0.594-0.405-1.183-0.651-1.764h-8.533c-0.002,0.864-0.123,1.698-0.328,2.499
		l1.721-0.458c1.035-0.273,2.102-0.129,3.007,0.41c0.888,0.528,1.51,1.373,1.752,2.379c0.5,2.071-0.792,4.209-2.881,4.766
		l-5.456,1.454c-0.341,0.09-0.688,0.135-1.03,0.135c-0.693,0-1.372-0.184-1.978-0.546c-0.52-0.309-0.945-0.729-1.26-1.224
		c-1.144,0.449-2.384,0.704-3.685,0.704c-1.326,0-2.588-0.262-3.75-0.727c-0.868,2.438-3.241,4.066-5.853,4.066
		c-0.42,0-0.846-0.042-1.273-0.13c-1.249-0.255-2.357-0.862-3.215-1.743c-0.417,0.083-0.849,0.136-1.297,0.136
		c-0.931,0-1.913-0.183-2.882-0.569c-0.694-0.276-1.326-0.64-1.879-1.069c0,0-0.001,0-0.001,0c0.001,0.008,0.002,0.016,0.003,0.024
		c0.021,0.191,0.046,0.382,0.073,0.573c0.016,0.116,0.032,0.231,0.051,0.347c0.035,0.217,0.074,0.432,0.116,0.648
		c0.018,0.092,0.034,0.185,0.053,0.277c0.071,0.348,0.156,0.692,0.246,1.035c0.06,0.227,0.125,0.452,0.194,0.676
		c0.031,0.104,0.063,0.209,0.096,0.313c0.194,0.606,0.415,1.205,0.667,1.797h2.689c-0.099-0.095-0.212-0.204-0.359-0.347
		l1.565-1.622l1.623,1.577l-0.381,0.392h17.827c-0.099-0.095-0.212-0.204-0.359-0.347l1.565-1.622l1.622,1.577l-0.381,0.392h11.891
		c0.253-0.592,0.473-1.192,0.667-1.797c0.032-0.104,0.064-0.208,0.095-0.312c0.068-0.225,0.134-0.45,0.194-0.677
		c0.089-0.343,0.174-0.687,0.245-1.034c0.019-0.092,0.036-0.185,0.053-0.277c0.042-0.216,0.081-0.431,0.116-0.648
		c0.008-0.051,0.015-0.102,0.022-0.153c0.009-0.064,0.019-0.129,0.029-0.194c0.027-0.19,0.051-0.381,0.072-0.573
		c0.011-0.091,0.02-0.184,0.029-0.275c0.004-0.035,0.008-0.069,0.011-0.104c0.019-0.199,0.033-0.399,0.045-0.598
		C83.952,50.569,83.961,50.49,83.965,50.41z M57.254,36.997c-0.48,0.686-0.853,1.451-1.097,2.272
		c-0.108,0.365-0.185,0.742-0.24,1.126c-0.051,0.362-0.087,0.73-0.087,1.107c0,0.007,0.001,0.013,0.001,0.02
		c0.001,0.566,0.065,1.117,0.18,1.649c0.104,0.481,0.249,0.948,0.437,1.393c0.558,1.319,1.471,2.451,2.612,3.289
		c0.388,0.285,0.802,0.535,1.24,0.746c1.035,0.5,2.19,0.788,3.414,0.788c1.097,0,2.141-0.226,3.091-0.632
		c0.438-0.187,0.854-0.415,1.247-0.675c0.802-0.531,1.497-1.206,2.058-1.984c0.309-0.43,0.577-0.89,0.796-1.378
		c0.438-0.977,0.689-2.056,0.691-3.195c0-0.007,0.001-0.013,0.001-0.02c0-0.376-0.036-0.744-0.087-1.107
		c-0.054-0.384-0.132-0.761-0.24-1.126c-0.243-0.821-0.617-1.586-1.097-2.272c-0.283-0.405-0.602-0.782-0.954-1.126
		c-0.441-0.432-0.936-0.807-1.467-1.126c-1.184-0.711-2.562-1.126-4.04-1.126c-1.478,0-2.857,0.416-4.04,1.126
		c-0.532,0.319-1.026,0.695-1.467,1.126C57.856,36.215,57.538,36.592,57.254,36.997z M45.047,41.521
		c-0.253,0.596-0.473,1.2-0.667,1.81c1.444-0.493,3.214-0.454,4.942,0.234c0.379,0.151,0.735,0.333,1.075,0.532
		c0.944-0.69,2.083-1.118,3.289-1.2c-0.063-0.451-0.106-0.909-0.107-1.377H45.047z M51.919,52.084
		c0.411,0.264,0.873,0.455,1.372,0.557c2.092,0.425,4.153-0.829,4.654-2.815c-1.654-1.151-2.945-2.781-3.681-4.688
		c-0.052-0.002-0.104-0.008-0.156-0.008c-0.676,0-1.325,0.17-1.896,0.472c-0.335,0.177-0.636,0.407-0.906,0.67
		c-0.278,0.271-0.512,0.583-0.697,0.931c-0.157,0.295-0.289,0.607-0.362,0.948c-0.163,0.75-0.086,1.513,0.21,2.208
		c0.085,0.201,0.186,0.397,0.309,0.584c0.086,0.132,0.181,0.256,0.282,0.375C51.298,51.617,51.592,51.875,51.919,52.084z
		 M43.525,47.585c0.026,0.257,0.097,0.492,0.175,0.68c0.397,0.965,1.362,1.83,2.579,2.315c0.668,0.266,1.356,0.392,2,0.395
		c-0.389-1.049-0.478-2.185-0.235-3.302c0.148-0.68,0.415-1.306,0.766-1.869c-0.107-0.051-0.213-0.101-0.323-0.146
		c-0.678-0.27-1.376-0.397-2.027-0.397c-1.298,0-2.41,0.508-2.803,1.412c-0.018,0.041-0.029,0.082-0.043,0.123
		c-0.001,0.003-0.002,0.006-0.003,0.009c-0.001,0.004-0.002,0.007-0.004,0.01c-0.087,0.264-0.106,0.524-0.083,0.763
		c0.001,0.002,0.001,0.003,0.001,0.004C43.525,47.583,43.525,47.584,43.525,47.585z M69.416,49.879
		c0.112,0.134,0.241,0.254,0.396,0.346c0.382,0.225,0.835,0.285,1.277,0.167l5.455-1.451c0.916-0.245,1.487-1.169,1.272-2.062
		c-0.1-0.41-0.353-0.755-0.715-0.971c-0.382-0.225-0.837-0.285-1.277-0.167l-3.385,0.901C71.678,47.928,70.648,49.038,69.416,49.879
		z M77.807,53.565c1.622,1.565,0,0,1.622,1.565l1.565-1.61l-1.622-1.577L77.807,53.565z M59.784,54.692c1.623,1.565,0,0,1.623,1.565
		l1.565-1.611l-1.623-1.565L59.784,54.692z M64.828,41.521v-1.126v-1.126v-2.272v-1.063h-2.253v1.063v2.272v1.126v1.126v1.17h2.253
		V41.521z M62.578,47.201c2.253,0,0,0,2.253,0v-2.253h-2.253V47.201z M29.684,26.558c-0.062,0.471-0.134,0.943-0.207,1.416
		c-0.311,2.029-0.634,4.128-0.147,6.246l0.252,1.097l2.196-0.503l-0.252-1.098c-0.169-0.739-0.208-1.498-0.179-2.275l0.883,0.506
		l1.12-1.956l-1.748-1.001c0.033-0.224,0.068-0.449,0.102-0.675c0.076-0.49,0.151-0.978,0.213-1.465
		c0.455-3.497-0.063-6.065-1.582-7.852l-0.73-0.857L27.89,19.6l0.729,0.858C29.704,21.732,30.051,23.727,29.684,26.558z"></path>
  </g>
</svg>
