<svg id="Layer_1" enable-background="new 0 0 512 512" height="512" viewBox="0 0 512 512" width="512" xmlns="http://www.w3.org/2000/svg"><path d="m445.73 147.11c-7.72-4.85-15.47-7.27-20.76-8.45v-41.32h5.78c9.15 0 16.59-7.44 16.59-16.59v-45.83c-.01-17.05-13.88-30.92-30.93-30.92h-189.05c-17.05 0-30.92 13.87-30.92 30.92v45.83c0 9.15 7.44 16.59 16.59 16.59h5.77v41.27c-19.8 4.3-46.92 20.38-46.92 59.43v119.15c-13.07-6.7-28.01-8.29-42.38-4.43-15.35 4.11-28.15 13.91-36.05 27.59l-45.43 78.68c-7.9 13.68-9.98 29.67-5.87 45.02s13.91 28.15 27.59 36.05c9.32 5.38 19.51 7.94 29.57 7.94.58 0 1.16-.01 1.74-.03h99.07 255.95c8.73 0 15.82-7.52 15.82-16.77v-293.2c.01-28.51-14.23-43.44-26.16-50.93zm-235.29-66.36v-45.83c0-9.33 7.59-16.92 16.92-16.92h189.05c9.33 0 16.92 7.59 16.92 16.92v45.83c0 1.4-1.19 2.59-2.59 2.59h-217.72c-1.4 0-2.58-1.18-2.58-2.59zm16.01 70.78 6.68-.7-.34-6.49v-47h178.17v47.05l-.28 6.48 6.63.65c4.15.41 40.58 5.2 40.58 46.51v5.97h-272.02v-5.96c0-41.09 36.43-46.08 40.58-46.51zm-25.5 237.8c3.82-11.07 4.26-23.04 1.15-34.66-2.86-10.67-8.47-20.11-16.22-27.53v-109.14h272.02v209.56h-202.32c-8.43-22.09-29.69-37.88-54.63-38.23zm-95.39-41.99c6.03-10.44 15.81-17.92 27.55-21.07 3.94-1.06 7.94-1.58 11.9-1.58 7.84 0 15.56 2.04 22.49 6.05 10.44 6.03 17.92 15.81 21.07 27.55s1.56 23.95-4.47 34.39l-19.21 33.28-78.54-45.34zm-28.82 140.62c-10.44-6.03-17.92-15.81-21.07-27.55s-1.56-23.95 4.47-34.39l19.21-33.28 78.54 45.34-19.21 33.28c-8.13 14.08-22.72 22.14-37.89 22.63h-1.08v.02c-7.81.07-15.73-1.86-22.97-6.05zm60.99 6.04c5.1-4.3 9.55-9.53 13.07-15.63l43.33-75.06h5.98c25 0 45.34 20.34 45.34 45.34s-20.33 45.35-45.33 45.35zm318.34 0h-217.72c12.9-10.89 21.12-27.17 21.12-45.34 0-2.4-.16-4.77-.44-7.09h198.87v49.67c0 1.55-.98 2.76-1.83 2.76zm-174.41-457.84c0 3.87-3.13 7-7 7h-46.06c-3.87 0-7-3.13-7-7s3.13-7 7-7h46.06c3.86 0 7 3.13 7 7zm-49.29 412.5c0 17.78-14.47 32.25-32.25 32.25h-18.99c-3.87 0-7-3.13-7-7s3.13-7 7-7h18.99c9.89 0 18.25-8.36 18.25-18.25 0-3.87 3.13-7 7-7s7 3.13 7 7zm179.82-169.95c-.7-2.11-2.35-3.76-4.45-4.45-25.7-8.48-53.7-3.49-74.76 12.91-.77-.83-1.56-1.65-2.36-2.45-24.73-24.74-60.75-33.29-94-22.32-2.11.7-3.76 2.35-4.45 4.45-10.97 33.25-2.42 69.26 22.31 94 17.61 17.61 40.94 27.01 64.91 27.01 8.92 0 17.93-1.32 26.77-3.99 17.74-2.31 33.82-10.21 46.51-22.9 21.64-21.64 29.12-53.17 19.52-82.26zm-147.82 72.24c-20.13-20.13-27.62-49.08-19.96-76.3 27.23-7.66 56.17-.17 76.3 19.96 18.2 18.2 26.06 43.6 21.75 68.42l-37.61-36.62c-2.77-2.7-7.2-2.64-9.9.13s-2.64 7.2.13 9.9l37.31 36.32c-24.7 4.16-49.92-3.71-68.02-21.81zm91.5 16.5c4.78-24.24-.36-49.1-14.17-69.35 16.45-12.75 38-17.08 58.22-11.58 6.29 23.07-.13 47.51-17.17 64.55-7.65 7.66-16.8 13.2-26.88 16.38z"/></svg>