<svg xmlns="http://www.w3.org/2000/svg" id="wellness-care" viewBox="0 0 64 64">
  <path d="m30.52,56H6c-1.1,0-2-.9-2-2V11c0-1.1.9-2,2-2h7.46c-.28.53-.46,1.12-.46,1.75v4.25c0,.55.45,1,1,1h20c.55,0,1-.45,1-1v-4.25c0-.64-.17-1.23-.46-1.75h7.46c1.1,0,2,.9,2,2v16.02c0,.55.45,1,1,1s1-.45,1-1V11c0-2.21-1.79-4-4-4h-10.75c-.73,0-1.37-.46-1.65-1.17-.9-2.33-3.1-3.83-5.59-3.83s-4.69,1.5-5.59,3.83c-.28.71-.93,1.17-1.65,1.17H6c-2.21,0-4,1.79-4,4v43c0,2.21,1.79,4,4,4h24.52c.55,0,1-.45,1-1s-.45-1-1-1ZM15,10.75c0-.97.79-1.75,1.75-1.75h.25c.05,0,.1-.02.15-.03,1.39-.15,2.59-1.06,3.12-2.42.6-1.55,2.07-2.55,3.73-2.55s3.13,1,3.73,2.55c.53,1.36,1.73,2.27,3.12,2.42.05,0,.1.03.15.03h.25c.97,0,1.75.79,1.75,1.75v3.25H15v-3.25Z"></path>
  <circle cx="24" cy="7" r="1"></circle>
  <path d="M14.62 20.22c-.43-.34-1.06-.27-1.41.16l-3.3 4.13-1.21-1.21c-.39-.39-1.02-.39-1.41 0s-.39 1.02 0 1.41l2 2c.19.19.44.29.71.29.02 0 .04 0 .06 0 .28-.02.55-.15.73-.37l4-5c.34-.43.27-1.06-.16-1.41ZM41 22c0-.55-.45-1-1-1h-21c-.55 0-1 .45-1 1s.45 1 1 1h21c.55 0 1-.45 1-1ZM34 26c0-.55-.45-1-1-1h-14c-.55 0-1 .45-1 1s.45 1 1 1h14c.55 0 1-.45 1-1ZM14.62 32.22c-.43-.34-1.06-.27-1.41.16l-3.3 4.13-1.21-1.21c-.39-.39-1.02-.39-1.41 0s-.39 1.02 0 1.41l2 2c.19.19.44.29.71.29.02 0 .04 0 .06 0 .28-.02.55-.15.73-.37l4-5c.34-.43.27-1.06-.16-1.41ZM32 34c0-.55-.45-1-1-1h-12c-.55 0-1 .45-1 1s.45 1 1 1h12c.55 0 1-.45 1-1ZM27 37h-8c-.55 0-1 .45-1 1s.45 1 1 1h8c.55 0 1-.45 1-1s-.45-1-1-1ZM13.22 44.38l-3.3 4.13-1.21-1.21c-.39-.39-1.02-.39-1.41 0s-.39 1.02 0 1.41l2 2c.19.19.44.29.71.29.02 0 .04 0 .06 0 .28-.02.55-.15.73-.37l4-5c.34-.43.27-1.06-.16-1.41-.43-.35-1.06-.27-1.41.16ZM28 46c0-.55-.45-1-1-1h-8c-.55 0-1 .45-1 1s.45 1 1 1h8c.55 0 1-.45 1-1ZM19 49c-.55 0-1 .45-1 1s.45 1 1 1h4c.55 0 1-.45 1-1s-.45-1-1-1h-4ZM46 30c-8.82 0-16 7.18-16 16s7.18 16 16 16 16-7.18 16-16-7.18-16-16-16Zm0 30c-7.72 0-14-6.28-14-14s6.28-14 14-14 14 6.28 14 14-6.28 14-14 14Z"></path>
  <path d="m58,42.67c-.01-.54-.44-.97-.98-.98-.17,0-3.66-.06-6.75,1.73-.94-3.5-3.44-6-3.57-6.13-.39-.38-1.02-.38-1.4,0-.13.13-2.63,2.64-3.57,6.13-3.08-1.79-6.58-1.73-6.75-1.73-.54.01-.97.45-.98.98,0,.23-.07,5.63,3.21,9.01,3.1,3.19,7.94,3.32,8.71,3.32.04,0,.06,0,.08,0,.02,0,.04,0,.08,0,.77,0,5.61-.13,8.71-3.32,3.28-3.38,3.22-8.78,3.21-9.01Zm-19.35,7.61c-1.92-1.98-2.45-4.97-2.59-6.54,1.28.12,3.52.54,5.34,1.85,0,.14-.02.27-.02.41,0,2.76,1.25,5.18,2.35,6.77-1.56-.3-3.6-.97-5.07-2.48Zm7.35,2.2c-.98-1.22-2.63-3.7-2.63-6.48s1.65-5.26,2.63-6.48c.98,1.22,2.63,3.7,2.63,6.48s-1.65,5.26-2.63,6.48Zm7.35-2.2c-1.47,1.52-3.51,2.19-5.07,2.48,1.09-1.59,2.35-4.01,2.35-6.77,0-.14-.01-.27-.02-.41,1.82-1.31,4.05-1.72,5.34-1.85-.14,1.57-.67,4.56-2.59,6.54Z"></path>
</svg>
