<svg width="513" height="511" viewBox="0 0 513 511" fill="none" xmlns="http://www.w3.org/2000/svg">
<g clip-path="url(#clip0_590_2)">
<path d="M131.002 194.721C149.324 194.721 164.177 209.574 164.177 227.896C164.177 233.32 162.873 238.44 160.564 242.961C160.388 243.305 160.261 243.673 160.196 244.054C159.749 246.716 159.303 249.69 159.084 252.126C158.946 253.664 158.868 255.313 158.837 257.019C158.802 258.99 160.418 260.572 162.39 260.572H238.677C246.152 260.572 252.211 266.632 252.211 274.107V334.805C252.211 337.323 249.69 339.075 247.243 338.482C243.93 337.68 240.47 337.255 236.911 337.255C212.739 337.255 193.145 356.85 193.145 381.021C193.145 405.193 212.739 424.788 236.911 424.788C240.47 424.788 243.93 424.362 247.243 423.56C249.69 422.967 252.211 424.719 252.211 427.237V488.587C252.211 496.062 246.152 502.122 238.677 502.122H23.3203C15.8452 502.122 9.78517 496.062 9.78516 488.587V274.107C9.78533 266.632 15.8453 260.572 23.3203 260.572H99.2636C101.287 260.572 102.921 258.91 102.843 256.888C102.821 256.323 102.797 255.77 102.77 255.232C102.608 252.035 102.286 248.041 101.981 244.609C101.936 244.112 101.787 243.632 101.557 243.19C99.1745 238.614 97.8272 233.412 97.8271 227.896C97.8273 209.574 112.68 194.721 131.002 194.721Z" fill="#FEF1E7" style="fill:#FEF1E7;fill:color(display-p3 0.9961 0.9451 0.9059);fill-opacity:1;"/>
<path d="M237.169 64.4009C242.821 76.2289 237.815 90.3998 225.987 96.0526C224.237 96.8887 222.436 97.4901 220.619 97.872C220.337 97.9312 220.062 98.018 219.799 98.1362C218.827 98.5734 217.884 98.9737 217.033 99.2926C215.782 99.7612 214.463 100.322 213.117 100.941C211.336 101.761 210.619 103.892 211.464 105.661L232.291 149.24C235.514 155.984 232.659 164.065 225.915 167.288L185.099 186.795C182.466 188.053 179.381 185.791 179.169 182.881C178.911 179.333 177.998 175.773 176.372 172.369C169.383 157.745 151.861 151.554 137.236 158.543C122.612 165.533 116.423 183.055 123.412 197.679C125.038 201.083 127.236 204.029 129.835 206.458C131.967 208.451 131.789 212.272 129.156 213.53L92.8194 230.895C86.0749 234.119 77.9942 231.264 74.7709 224.519L10.4792 89.9912C7.25594 83.2466 10.1106 75.1659 16.8552 71.9427L149.951 8.3357C156.695 5.11292 164.776 7.96727 167.999 14.7116L189.183 59.0385C190.053 60.8579 192.248 61.6182 194.035 60.6835C194.509 60.4353 194.971 60.1903 195.417 59.9496C196.21 59.5217 197.072 59.0675 197.961 58.6038C198.319 58.4173 198.642 58.171 198.926 57.8851C200.789 56.0137 202.998 54.4227 205.516 53.2191C217.345 47.5667 231.516 52.5728 237.169 64.4009Z" fill="#ED4040" style="fill:#ED4040;fill:color(display-p3 0.9311 0.2517 0.2517);fill-opacity:1;"/>
<path d="M205.828 380.908C205.828 362.586 220.333 347.733 238.226 347.733C243.511 347.733 248.5 349.032 252.907 351.33C253.256 351.512 253.628 351.644 254.015 351.711C255.059 351.89 256.152 352.069 257.24 352.233C259.358 352.552 261.213 350.887 261.213 348.744L261.213 273.231C261.213 265.756 267.273 259.696 274.748 259.696L339.165 259.696C341.781 259.696 343.546 262.407 342.791 264.912C341.584 268.916 340.935 273.161 340.935 277.559C340.935 301.73 360.53 321.325 384.702 321.325C408.874 321.325 428.469 301.73 428.469 277.559C428.469 273.161 427.819 268.916 426.612 264.912C425.856 262.407 427.621 259.696 430.237 259.696L492.493 259.696C499.968 259.697 506.028 265.756 506.028 273.231L506.028 488.587C506.028 496.062 499.968 502.122 492.493 502.122L274.748 502.122C267.273 502.122 261.213 496.062 261.213 488.587L261.213 413.252C261.213 411.156 259.433 409.5 257.344 409.678C256.405 409.758 255.479 409.84 254.591 409.921C254.085 409.967 253.596 410.123 253.147 410.362C248.681 412.739 243.607 414.083 238.226 414.083C220.333 414.083 205.828 399.23 205.828 380.908Z" fill="#FEF1E7" style="fill:#FEF1E7;fill:color(display-p3 0.9961 0.9451 0.9059);fill-opacity:1;"/>
<path d="M384.814 309.445C366.492 309.445 351.64 295.136 351.64 277.485C351.64 272.464 352.843 267.713 354.985 263.485C355.09 263.277 354.94 263.029 354.707 263.029V263.029C354.511 263.029 354.363 262.848 354.403 262.656C354.661 261.408 355.506 257.235 356.135 253.119C356.46 250.999 354.794 249.141 352.65 249.141L277.141 249.141C269.665 249.141 263.606 243.081 263.605 235.605L263.605 172.423C263.605 169.685 266.563 167.908 269.137 168.843C273.501 170.43 278.219 171.297 283.142 171.297C305.515 171.297 323.652 153.405 323.652 131.335C323.652 109.265 305.515 91.374 283.142 91.374C278.218 91.3741 273.501 92.2414 269.137 93.8285C266.563 94.7642 263.605 92.9873 263.605 90.2493L263.605 21.1758C263.605 13.7006 269.665 7.64065 277.141 7.64065L492.496 7.64063C499.971 7.64063 506.031 13.7006 506.031 21.1758L506.031 235.605C506.031 243.081 499.971 249.141 492.496 249.141L417.168 249.141C415.07 249.141 413.414 250.923 413.594 253.014C414.016 257.909 414.496 262.422 414.555 262.973C414.559 263.006 414.533 263.029 414.5 263.029V263.029C414.458 263.029 414.432 263.074 414.451 263.11C416.714 267.432 417.989 272.315 417.989 277.485C417.989 295.136 403.137 309.445 384.814 309.445Z" fill="#FEF1E7" style="fill:#FEF1E7;fill:color(display-p3 0.9961 0.9451 0.9059);fill-opacity:1;"/>
<path d="M32.4688 89.4352L34.2901 93.2252L38.4217 91.2398L39.008 92.4598L34.8764 94.4452L36.7524 98.3491L41.3719 96.1291L41.9582 97.3491L35.8584 100.28L30.4024 88.9266L36.5022 85.9953L37.0884 87.2153L32.4688 89.4352ZM41.4875 92.0491C41.0498 91.1382 40.8511 90.2526 40.8915 89.3922C40.9267 88.521 41.173 87.7419 41.6304 87.0549C42.0987 86.3627 42.7286 85.8264 43.5202 85.446C44.301 85.0708 45.0595 84.9132 45.7958 84.9731C46.5321 85.0331 47.1637 85.2502 47.6905 85.6244L46.9089 83.9978L48.4053 83.2786L52.6889 92.1925L51.1924 92.9116L50.3951 91.2525C50.3524 91.9137 50.1217 92.5585 49.7029 93.1869C49.2897 93.7992 48.6981 94.2904 47.9282 94.6604C47.1366 95.0408 46.3271 95.1896 45.4997 95.1066C44.6723 95.0237 43.9049 94.7184 43.1974 94.1907C42.49 93.663 41.92 92.9491 41.4875 92.0491ZM49.0428 88.4384C48.7197 87.7661 48.3028 87.2456 47.792 86.8771C47.2811 86.5085 46.7301 86.3062 46.1387 86.27C45.553 86.2178 44.9836 86.3245 44.4305 86.5903C43.8775 86.8561 43.4358 87.2285 43.1054 87.7076C42.775 88.1868 42.5941 88.7409 42.5627 89.37C42.5313 89.9991 42.6772 90.6498 43.0003 91.3221C43.3286 92.0053 43.7507 92.5366 44.2667 92.916C44.7776 93.2845 45.3258 93.4949 45.9116 93.5472C46.4921 93.5886 47.0589 93.4764 47.6119 93.2106C48.165 92.9448 48.6067 92.5724 48.9371 92.0933C49.2731 91.5981 49.4568 91.0359 49.4882 90.4068C49.5143 89.7669 49.3659 89.1107 49.0428 88.4384ZM58.4163 89.6204C57.7331 89.9487 57.0657 90.1292 56.414 90.1621C55.7572 90.184 55.1725 90.0646 54.66 89.8036C54.1423 89.5318 53.7369 89.1326 53.4438 88.6061L54.9728 87.8713C55.2299 88.2951 55.6105 88.5593 56.1147 88.6641C56.6297 88.7636 57.1908 88.6675 57.7981 88.3757C58.362 88.1047 58.7467 87.7664 58.9522 87.3606C59.1576 86.9549 59.1692 86.5622 58.9868 86.1827C58.7992 85.7923 58.4876 85.5883 58.052 85.5707C57.6112 85.5423 56.9832 85.6104 56.168 85.7752C55.4232 85.9196 54.7976 86.0067 54.2913 86.0364C53.7906 86.0501 53.3051 85.9563 52.8347 85.7552C52.37 85.5381 51.9995 85.1422 51.7233 84.5674C51.5044 84.112 51.4394 83.6293 51.5281 83.1195C51.6168 82.6097 51.8584 82.1265 52.253 81.6699C52.6424 81.2025 53.157 80.815 53.7968 80.5075C54.7836 80.0333 55.7005 79.8997 56.5475 80.1067C57.3945 80.3137 58.0481 80.8406 58.5084 81.6873L57.0282 82.3986C56.7716 81.9479 56.402 81.665 55.9195 81.5498C55.4479 81.4294 54.9247 81.5073 54.3499 81.7835C53.8186 82.0388 53.4504 82.3559 53.2453 82.7348C53.0403 83.1136 53.0263 83.4874 53.2035 83.8561C53.3442 84.1489 53.5536 84.3486 53.8318 84.4552C54.1156 84.5457 54.4271 84.5829 54.7664 84.5667C55.1113 84.5344 55.5724 84.4663 56.1498 84.3624C56.873 84.2284 57.4769 84.1518 57.9615 84.1325C58.4409 84.1024 58.9024 84.1876 59.3459 84.3883C59.8002 84.5838 60.1631 84.95 60.4345 85.487C60.669 85.975 60.7445 86.4793 60.661 87C60.5774 87.5206 60.341 88.0147 59.9516 88.4821C59.5678 88.9335 59.0561 89.3129 58.4163 89.6204ZM67.0828 74.3032L68.0152 89.9932L66.4862 90.728L66.1793 85.5895L58.3479 78.5008L59.9907 77.7113L66.2591 83.589L65.5538 75.038L67.0828 74.3032ZM80.0615 71.8505C80.5049 71.7175 80.9598 71.7058 81.4262 71.8154C81.9035 71.9198 82.3361 72.1256 82.7241 72.4331C83.123 72.7353 83.4318 73.1141 83.6507 73.5696C83.9269 74.1443 84.0306 74.7352 83.9619 75.3422C83.888 75.9383 83.6342 76.5074 83.2006 77.0495C82.7726 77.5755 82.1791 78.0209 81.42 78.3857L77.1908 80.4181L71.7426 69.0806L75.8091 67.1264C76.5791 66.7564 77.2977 66.5713 77.9649 66.571C78.627 66.5598 79.1978 66.706 79.6773 67.0095C80.1569 67.313 80.5269 67.7358 80.7875 68.278C81.1106 68.9504 81.1946 69.5974 81.0396 70.2192C80.8902 70.8249 80.5641 71.3687 80.0615 71.8505ZM75.5756 73.2654L78.0644 72.0694C78.7584 71.7359 79.217 71.3153 79.4402 70.8076C79.6634 70.2999 79.6369 69.7586 79.3607 69.1839C79.0845 68.6092 78.6785 68.2503 78.1426 68.1074C77.6068 67.9645 76.981 68.065 76.2653 68.4089L73.8091 69.5892L75.5756 73.2654ZM80.7036 77.2283C81.441 76.8739 81.9324 76.4242 82.1777 75.8792C82.423 75.3342 82.3972 74.7526 82.1001 74.1345C81.7979 73.5055 81.3439 73.1164 80.7382 72.967C80.1272 72.8067 79.4585 72.9011 78.7319 73.2503L76.1619 74.4853L78.0848 78.4868L80.7036 77.2283ZM91.1245 73.9025C90.2895 74.3037 89.4392 74.4787 88.5736 74.4275C87.7189 74.371 86.9296 74.0896 86.2057 73.5832C85.4874 73.0607 84.9068 72.3386 84.4639 71.4168C84.0262 70.5059 83.8357 69.6097 83.8926 68.728C83.9551 67.8304 84.2394 67.033 84.7454 66.336C85.2462 65.6282 85.9195 65.071 86.7653 64.6646C87.6111 64.2581 88.4668 64.0805 89.3324 64.1317C90.1928 64.1721 90.9849 64.4455 91.7088 64.952C92.4435 65.4532 93.0324 66.1646 93.4753 67.0864C93.9183 68.0081 94.1031 68.9205 94.0297 69.8233C93.962 70.7102 93.6723 71.5101 93.1607 72.2232C92.6491 72.9362 91.9703 73.496 91.1245 73.9025ZM90.4991 72.6012C91.0305 72.3458 91.4694 71.9814 91.8158 71.5079C92.1623 71.0344 92.3566 70.4805 92.3989 69.8462C92.4519 69.2067 92.3065 68.5291 91.9626 67.8133C91.6186 67.0976 91.1858 66.5581 90.6642 66.1948C90.1425 65.8314 89.5967 65.6399 89.0266 65.6202C88.4513 65.5897 87.8979 65.7021 87.3666 65.9574C86.8244 66.218 86.3855 66.5824 86.0499 67.0507C85.7199 67.5029 85.5392 68.0436 85.5078 68.6727C85.4764 69.3018 85.6327 69.9742 85.9766 70.6899C86.3258 71.4164 86.7503 71.9666 87.2503 72.3403C87.7611 72.7089 88.2988 72.9111 88.8632 72.9468C89.4225 72.9717 89.9678 72.8565 90.4991 72.6012ZM101.529 68.9025C100.694 69.3038 99.8438 69.4788 98.9782 69.4276C98.1235 69.3711 97.3342 69.0897 96.6103 68.5832C95.892 68.0608 95.3114 67.3387 94.8685 66.4169C94.4308 65.506 94.2403 64.6097 94.2972 63.7281C94.3597 62.8305 94.644 62.0331 95.15 61.3361C95.6507 60.6283 96.3241 60.0711 97.1699 59.6647C98.0157 59.2582 98.8714 59.0806 99.737 59.1318C100.597 59.1722 101.389 59.4456 102.113 59.952C102.848 60.4533 103.437 61.1647 103.88 62.0865C104.323 63.0082 104.508 63.9205 104.434 64.8234C104.367 65.7103 104.077 66.5102 103.565 67.2233C103.054 67.9363 102.375 68.4961 101.529 68.9025ZM100.904 67.6012C101.435 67.3459 101.874 66.9815 102.22 66.508C102.567 66.0345 102.761 65.4806 102.803 64.8463C102.857 64.2068 102.711 63.5291 102.367 62.8134C102.023 62.0977 101.59 61.5582 101.069 61.1949C100.547 60.8315 100.001 60.64 99.4311 60.6203C98.8558 60.5897 98.3025 60.7021 97.7711 60.9575C97.2289 61.218 96.79 61.5825 96.4544 62.0507C96.1245 62.503 95.9438 63.0436 95.9124 63.6727C95.881 64.3018 96.0373 64.9743 96.3812 65.69C96.7304 66.4165 97.1549 66.9667 97.6549 67.3404C98.1657 67.709 98.7034 67.9111 99.2678 67.9469C99.8271 67.9718 100.372 67.8566 100.904 67.6012ZM112.953 63.2325L107.564 60.9767L109.456 64.9131L107.976 65.6244L102.191 53.5875L103.672 52.8762L107.072 59.9519L108.605 54.3499L110.67 53.3572L108.608 59.8146L114.97 62.2632L112.953 63.2325ZM112.132 50.8727C111.85 51.0082 111.565 51.0252 111.276 50.9238C110.987 50.8224 110.775 50.6308 110.639 50.3488C110.504 50.0669 110.487 49.7814 110.588 49.4924C110.689 49.2034 110.881 48.9912 111.163 48.8557C111.434 48.7254 111.709 48.7136 111.987 48.8202C112.276 48.9216 112.488 49.1132 112.624 49.3952C112.759 49.6771 112.776 49.9626 112.675 50.2516C112.584 50.5354 112.403 50.7424 112.132 50.8727ZM113.544 51.9764L117.827 60.8902L116.347 61.6016L112.063 52.6877L113.544 51.9764ZM120.331 48.5144C121.416 47.9933 122.453 47.9019 123.443 48.2403C124.428 48.5679 125.218 49.3498 125.812 50.586L128.337 55.8399L126.873 56.5434L124.45 51.501C124.022 50.6117 123.474 50.0408 122.806 49.7882C122.132 49.5247 121.41 49.5779 120.64 49.9479C119.859 50.3231 119.353 50.8668 119.121 51.5788C118.9 52.2857 119.014 53.1054 119.462 54.038L121.83 58.9666L120.35 59.6779L116.066 50.7641L117.547 50.0528L118.156 51.3215C118.23 50.7254 118.457 50.1828 118.836 49.6936C119.226 49.1993 119.724 48.8062 120.331 48.5144ZM130.077 43.8512C130.847 43.4812 131.6 43.3262 132.336 43.3862C133.083 43.441 133.72 43.6554 134.247 44.0296L133.466 42.403L134.962 41.6839L139.339 50.7929C139.73 51.6062 139.903 52.4107 139.858 53.2064C139.819 54.013 139.56 54.7515 139.081 55.422C138.613 56.0874 137.951 56.6258 137.094 57.0375C135.923 57.6003 134.814 57.7928 133.768 57.615C132.721 57.4371 131.898 56.9049 131.299 56.0184L132.763 55.3149C133.186 55.7789 133.73 56.0511 134.396 56.1315C135.068 56.2228 135.761 56.0964 136.477 55.7525C137.29 55.3617 137.829 54.789 138.094 54.0344C138.369 53.2746 138.286 52.4338 137.843 51.512L136.944 49.6414C136.901 50.3027 136.676 50.9449 136.268 51.5681C135.86 52.1913 135.271 52.6879 134.501 53.0578C133.709 53.4383 132.895 53.5896 132.056 53.5119C131.229 53.4289 130.461 53.1236 129.754 52.596C129.047 52.0683 128.477 51.3544 128.044 50.4543C127.606 49.5434 127.408 48.6578 127.448 47.7974C127.483 46.9263 127.73 46.1472 128.187 45.4602C128.655 44.7679 129.285 44.2316 130.077 43.8512ZM135.599 46.8437C135.276 46.1713 134.859 45.6509 134.349 45.2823C133.838 44.9138 133.287 44.7114 132.695 44.6752C132.11 44.623 131.54 44.7298 130.987 44.9955C130.434 45.2613 129.992 45.6338 129.662 46.1129C129.332 46.592 129.151 47.1461 129.119 47.7752C129.088 48.4043 129.234 49.0551 129.557 49.7274C129.885 50.4106 130.307 50.9418 130.823 51.3212C131.334 51.6898 131.882 51.9002 132.468 51.9524C133.049 51.9938 133.616 51.8816 134.169 51.6159C134.722 51.3501 135.163 50.9776 135.494 50.4985C135.83 50.0033 136.013 49.4412 136.045 48.8121C136.071 48.1721 135.923 47.516 135.599 46.8437Z" fill="white" style="fill:white;fill-opacity:1;"/>
<path d="M34.5221 300.198C34.5221 298.971 34.7988 297.87 35.3523 296.895C35.9057 295.909 36.6576 295.139 37.6081 294.585C38.5706 294.032 39.6354 293.755 40.8024 293.755C42.1739 293.755 43.371 294.086 44.3937 294.748C45.4163 295.409 46.1623 296.348 46.6315 297.563H44.6644C44.3155 296.805 43.8102 296.221 43.1485 295.812C42.4988 295.403 41.7168 295.199 40.8024 295.199C39.9241 295.199 39.1361 295.403 38.4383 295.812C37.7404 296.221 37.193 296.805 36.796 297.563C36.399 298.309 36.2005 299.187 36.2005 300.198C36.2005 301.196 36.399 302.075 36.796 302.833C37.193 303.579 37.7404 304.156 38.4383 304.565C39.1361 304.974 39.9241 305.179 40.8024 305.179C41.7168 305.179 42.4988 304.98 43.1485 304.583C43.8102 304.174 44.3155 303.591 44.6644 302.833H46.6315C46.1623 304.036 45.4163 304.968 44.3937 305.63C43.371 306.28 42.1739 306.604 40.8024 306.604C39.6354 306.604 38.5706 306.334 37.6081 305.792C36.6576 305.239 35.9057 304.475 35.3523 303.5C34.7988 302.526 34.5221 301.425 34.5221 300.198ZM53.3893 306.659C52.4629 306.659 51.6207 306.448 50.8628 306.027C50.1168 305.606 49.5273 305.01 49.0942 304.24C48.6731 303.458 48.4625 302.556 48.4625 301.533C48.4625 300.523 48.6791 299.632 49.1122 298.862C49.5574 298.08 50.1589 297.485 50.9169 297.076C51.6749 296.655 52.5231 296.444 53.4615 296.444C54.3999 296.444 55.2481 296.655 56.0061 297.076C56.7641 297.485 57.3596 298.074 57.7927 298.844C58.2379 299.614 58.4605 300.511 58.4605 301.533C58.4605 302.556 58.2319 303.458 57.7747 304.24C57.3295 305.01 56.722 305.606 55.952 306.027C55.182 306.448 54.3277 306.659 53.3893 306.659ZM53.3893 305.215C53.9788 305.215 54.5323 305.076 55.0496 304.8C55.567 304.523 55.982 304.108 56.2948 303.554C56.6197 303.001 56.7821 302.327 56.7821 301.533C56.7821 300.739 56.6257 300.065 56.3129 299.512C56.0001 298.959 55.591 298.549 55.0857 298.285C54.5804 298.008 54.033 297.87 53.4435 297.87C52.8419 297.87 52.2885 298.008 51.7832 298.285C51.2899 298.549 50.8928 298.959 50.5921 299.512C50.2913 300.065 50.1409 300.739 50.1409 301.533C50.1409 302.339 50.2853 303.019 50.574 303.573C50.8748 304.126 51.2718 304.541 51.7651 304.818C52.2584 305.082 52.7998 305.215 53.3893 305.215ZM65.4382 296.426C66.6413 296.426 67.6159 296.793 68.3618 297.527C69.1077 298.249 69.4807 299.295 69.4807 300.667V306.496H67.8565V300.902C67.8565 299.915 67.6099 299.163 67.1166 298.646C66.6233 298.116 65.9495 297.852 65.0953 297.852C64.2291 297.852 63.5373 298.122 63.02 298.664C62.5146 299.205 62.262 299.993 62.262 301.028V306.496H60.6197V296.606H62.262V298.014C62.5868 297.509 63.026 297.118 63.5794 296.841C64.1449 296.564 64.7645 296.426 65.4382 296.426ZM75.8449 304.98L78.9128 296.606H80.6634L76.7833 306.496H74.8703L70.9903 296.606H72.7589L75.8449 304.98ZM91.3028 301.172C91.3028 301.485 91.2847 301.816 91.2486 302.165H83.3442C83.4043 303.139 83.7352 303.903 84.3367 304.457C84.9503 304.998 85.6902 305.269 86.5565 305.269C87.2663 305.269 87.8559 305.106 88.3251 304.782C88.8063 304.445 89.1432 304 89.3357 303.446H91.1043C90.8396 304.397 90.3102 305.173 89.5162 305.774C88.7221 306.364 87.7355 306.659 86.5565 306.659C85.6181 306.659 84.7759 306.448 84.0299 306.027C83.296 305.606 82.7185 305.01 82.2974 304.24C81.8764 303.458 81.6658 302.556 81.6658 301.533C81.6658 300.511 81.8703 299.614 82.2794 298.844C82.6885 298.074 83.2599 297.485 83.9938 297.076C84.7398 296.655 85.594 296.444 86.5565 296.444C87.4949 296.444 88.3251 296.649 89.0469 297.058C89.7688 297.467 90.3222 298.032 90.7072 298.754C91.1043 299.464 91.3028 300.27 91.3028 301.172ZM89.6064 300.829C89.6064 300.204 89.468 299.668 89.1913 299.223C88.9146 298.766 88.5356 298.423 88.0544 298.195C87.5852 297.954 87.0618 297.834 86.4843 297.834C85.6541 297.834 84.9443 298.098 84.3548 298.628C83.7773 299.157 83.4464 299.891 83.3622 300.829H89.6064ZM98.289 296.426C99.4921 296.426 100.467 296.793 101.213 297.527C101.959 298.249 102.331 299.295 102.331 300.667V306.496H100.707V300.902C100.707 299.915 100.461 299.163 99.9674 298.646C99.4741 298.116 98.8003 297.852 97.9461 297.852C97.0799 297.852 96.3881 298.122 95.8707 298.664C95.3654 299.205 95.1128 299.993 95.1128 301.028V306.496H93.4705V296.606H95.1128V298.014C95.4376 297.509 95.8768 297.118 96.4302 296.841C96.9957 296.564 97.6153 296.426 98.289 296.426ZM105.862 295C105.55 295 105.285 294.892 105.068 294.675C104.852 294.459 104.743 294.194 104.743 293.881C104.743 293.569 104.852 293.304 105.068 293.087C105.285 292.871 105.55 292.762 105.862 292.762C106.163 292.762 106.416 292.871 106.62 293.087C106.837 293.304 106.945 293.569 106.945 293.881C106.945 294.194 106.837 294.459 106.62 294.675C106.416 294.892 106.163 295 105.862 295ZM106.656 296.606V306.496H105.014V296.606H106.656ZM118.479 301.172C118.479 301.485 118.461 301.816 118.425 302.165H110.52C110.58 303.139 110.911 303.903 111.513 304.457C112.126 304.998 112.866 305.269 113.732 305.269C114.442 305.269 115.032 305.106 115.501 304.782C115.982 304.445 116.319 304 116.512 303.446H118.28C118.016 304.397 117.486 305.173 116.692 305.774C115.898 306.364 114.911 306.659 113.732 306.659C112.794 306.659 111.952 306.448 111.206 306.027C110.472 305.606 109.894 305.01 109.473 304.24C109.052 303.458 108.842 302.556 108.842 301.533C108.842 300.511 109.046 299.614 109.455 298.844C109.864 298.074 110.436 297.485 111.17 297.076C111.916 296.655 112.77 296.444 113.732 296.444C114.671 296.444 115.501 296.649 116.223 297.058C116.945 297.467 117.498 298.032 117.883 298.754C118.28 299.464 118.479 300.27 118.479 301.172ZM116.782 300.829C116.782 300.204 116.644 299.668 116.367 299.223C116.091 298.766 115.712 298.423 115.23 298.195C114.761 297.954 114.238 297.834 113.66 297.834C112.83 297.834 112.12 298.098 111.531 298.628C110.953 299.157 110.622 299.891 110.538 300.829H116.782ZM125.465 296.426C126.668 296.426 127.643 296.793 128.389 297.527C129.134 298.249 129.507 299.295 129.507 300.667V306.496H127.883V300.902C127.883 299.915 127.637 299.163 127.143 298.646C126.65 298.116 125.976 297.852 125.122 297.852C124.256 297.852 123.564 298.122 123.047 298.664C122.541 299.205 122.289 299.993 122.289 301.028V306.496H120.646V296.606H122.289V298.014C122.614 297.509 123.053 297.118 123.606 296.841C124.172 296.564 124.791 296.426 125.465 296.426ZM134.193 297.96V303.789C134.193 304.27 134.295 304.613 134.5 304.818C134.705 305.01 135.059 305.106 135.565 305.106H136.774V306.496H135.294C134.38 306.496 133.694 306.286 133.237 305.864C132.78 305.443 132.551 304.752 132.551 303.789V297.96H131.27V296.606H132.551V294.116H134.193V296.606H136.774V297.96H134.193ZM44.7907 325.496L43.1485 323.836C42.5349 324.473 41.8792 324.949 41.1814 325.261C40.4836 325.562 39.6955 325.713 38.8172 325.713C37.951 325.713 37.181 325.556 36.5073 325.243C35.8455 324.931 35.3282 324.485 34.9552 323.908C34.5943 323.33 34.4138 322.657 34.4138 321.887C34.4138 321.008 34.6605 320.238 35.1537 319.577C35.6591 318.903 36.399 318.374 37.3735 317.989C36.9885 317.531 36.7118 317.11 36.5433 316.725C36.3749 316.34 36.2907 315.919 36.2907 315.462C36.2907 314.933 36.423 314.457 36.6877 314.036C36.9644 313.603 37.3555 313.266 37.8608 313.026C38.3661 312.785 38.9496 312.665 39.6113 312.665C40.261 312.665 40.8264 312.791 41.3077 313.044C41.7889 313.296 42.1499 313.651 42.3905 314.109C42.6311 314.554 42.7394 315.053 42.7153 315.606H41.0731C41.0851 315.113 40.9468 314.728 40.658 314.451C40.3693 314.163 39.9963 314.018 39.5391 314.018C39.0579 314.018 38.6669 314.157 38.3661 314.433C38.0773 314.698 37.9329 315.041 37.9329 315.462C37.9329 315.823 38.0292 316.172 38.2217 316.509C38.4262 316.846 38.7631 317.261 39.2323 317.754L42.986 321.526L43.3109 321.02L44.5381 318.963H46.3067L44.8268 321.526C44.6223 321.887 44.3817 322.266 44.1049 322.663L46.9383 325.496H44.7907ZM38.8172 324.305C39.4669 324.305 40.0504 324.179 40.5678 323.926C41.0972 323.673 41.5964 323.282 42.0657 322.753L38.3661 319.035C36.8261 319.625 36.0561 320.557 36.0561 321.833C36.0561 322.542 36.3087 323.132 36.814 323.601C37.3314 324.07 37.9991 324.305 38.8172 324.305ZM57.2766 325.622C56.4464 325.622 55.7005 325.478 55.0388 325.189C54.3891 324.889 53.8778 324.479 53.5048 323.962C53.1318 323.433 52.9393 322.825 52.9273 322.139H54.6778C54.738 322.729 54.9786 323.228 55.3997 323.637C55.8328 324.034 56.4584 324.233 57.2766 324.233C58.0586 324.233 58.6722 324.04 59.1173 323.655C59.5745 323.258 59.8031 322.753 59.8031 322.139C59.8031 321.658 59.6708 321.267 59.4061 320.966C59.1414 320.666 58.8105 320.437 58.4135 320.281C58.0165 320.124 57.4811 319.956 56.8073 319.775C55.9772 319.559 55.3095 319.342 54.8042 319.126C54.3109 318.909 53.8838 318.572 53.5228 318.115C53.1739 317.646 52.9995 317.02 52.9995 316.238C52.9995 315.552 53.1739 314.945 53.5228 314.415C53.8717 313.886 54.359 313.477 54.9846 313.188C55.6223 312.899 56.3502 312.755 57.1683 312.755C58.3473 312.755 59.3098 313.05 60.0558 313.639C60.8137 314.229 61.2408 315.011 61.3371 315.985H59.5324C59.4723 315.504 59.2196 315.083 58.7744 314.722C58.3293 314.349 57.7398 314.163 57.0059 314.163C56.3201 314.163 55.7606 314.343 55.3275 314.704C54.8944 315.053 54.6778 315.546 54.6778 316.184C54.6778 316.641 54.8042 317.014 55.0568 317.303C55.3215 317.592 55.6403 317.814 56.0133 317.971C56.3983 318.115 56.9337 318.283 57.6195 318.476C58.4496 318.704 59.1173 318.933 59.6226 319.162C60.128 319.378 60.5611 319.721 60.922 320.19C61.283 320.648 61.4634 321.273 61.4634 322.067C61.4634 322.681 61.301 323.258 60.9762 323.8C60.6513 324.341 60.1701 324.78 59.5324 325.117C58.8948 325.454 58.1428 325.622 57.2766 325.622ZM63.2665 320.515C63.2665 319.505 63.4711 318.62 63.8801 317.862C64.2892 317.092 64.8486 316.497 65.5585 316.076C66.2804 315.655 67.0804 315.444 67.9587 315.444C68.825 315.444 69.5769 315.631 70.2146 316.003C70.8522 316.376 71.3274 316.846 71.6403 317.411V315.606H73.3006V325.496H71.6403V323.655C71.3154 324.233 70.8282 324.714 70.1785 325.099C69.5408 325.472 68.7949 325.659 67.9407 325.659C67.0624 325.659 66.2683 325.442 65.5585 325.009C64.8486 324.576 64.2892 323.968 63.8801 323.186C63.4711 322.404 63.2665 321.514 63.2665 320.515ZM71.6403 320.533C71.6403 319.787 71.4899 319.138 71.1891 318.584C70.8883 318.031 70.4792 317.61 69.9619 317.321C69.4566 317.02 68.8971 316.87 68.2836 316.87C67.67 316.87 67.1105 317.014 66.6052 317.303C66.0999 317.592 65.6968 318.013 65.3961 318.566C65.0953 319.12 64.9449 319.769 64.9449 320.515C64.9449 321.273 65.0953 321.935 65.3961 322.5C65.6968 323.054 66.0999 323.481 66.6052 323.782C67.1105 324.07 67.67 324.215 68.2836 324.215C68.8971 324.215 69.4566 324.07 69.9619 323.782C70.4792 323.481 70.8883 323.054 71.1891 322.5C71.4899 321.935 71.6403 321.279 71.6403 320.533ZM80.1003 316.96H78.0249V325.496H76.3826V316.96H75.1013V315.606H76.3826V314.903C76.3826 313.796 76.6653 312.99 77.2308 312.484C77.8083 311.967 78.7287 311.708 79.992 311.708V313.08C79.2701 313.08 78.7588 313.224 78.458 313.513C78.1692 313.79 78.0249 314.253 78.0249 314.903V315.606H80.1003V316.96ZM91.0384 320.172C91.0384 320.485 91.0204 320.816 90.9843 321.165H83.0798C83.14 322.139 83.4708 322.903 84.0724 323.457C84.686 323.998 85.4259 324.269 86.2921 324.269C87.002 324.269 87.5915 324.106 88.0607 323.782C88.542 323.445 88.8788 323 89.0713 322.446H90.8399C90.5752 323.397 90.0459 324.173 89.2518 324.774C88.4577 325.364 87.4712 325.659 86.2921 325.659C85.3537 325.659 84.5115 325.448 83.7656 325.027C83.0317 324.606 82.4542 324.01 82.0331 323.24C81.612 322.458 81.4015 321.556 81.4015 320.533C81.4015 319.511 81.606 318.614 82.015 317.844C82.4241 317.074 82.9956 316.485 83.7295 316.076C84.4754 315.655 85.3296 315.444 86.2921 315.444C87.2306 315.444 88.0607 315.649 88.7826 316.058C89.5045 316.467 90.0579 317.032 90.4429 317.754C90.8399 318.464 91.0384 319.27 91.0384 320.172ZM89.342 319.829C89.342 319.204 89.2037 318.668 88.927 318.223C88.6502 317.766 88.2713 317.423 87.79 317.195C87.3208 316.954 86.7974 316.834 86.2199 316.834C85.3898 316.834 84.6799 317.098 84.0904 317.628C83.5129 318.157 83.1821 318.891 83.0978 319.829H89.342Z" fill="#101010" style="fill:#101010;fill:color(display-p3 0.0636 0.0636 0.0636);fill-opacity:1;"/>
<path d="M379.327 46.0488C380.855 44.8216 382.052 43.817 382.918 43.035C383.784 42.2409 384.512 41.4168 385.102 40.5626C385.703 39.6963 386.004 38.8481 386.004 38.018C386.004 37.2359 385.811 36.6224 385.426 36.1772C385.053 35.72 384.446 35.4914 383.604 35.4914C382.786 35.4914 382.148 35.7501 381.691 36.2674C381.246 36.7727 381.005 37.4525 380.969 38.3067H379.381C379.429 36.9592 379.838 35.9185 380.608 35.1846C381.378 34.4507 382.371 34.0838 383.586 34.0838C384.825 34.0838 385.805 34.4267 386.527 35.1124C387.261 35.7982 387.628 36.7427 387.628 37.9458C387.628 38.9444 387.327 39.9189 386.726 40.8694C386.136 41.8078 385.463 42.638 384.705 43.3598C383.947 44.0697 382.978 44.8998 381.799 45.8503H388.007V47.2218H379.327V46.0488ZM389.509 44.4607V43.2155L395.843 34.4447H397.81V43.035H399.615V44.4607H397.81V47.3662H396.186V44.4607H389.509ZM396.258 36.1592L391.403 43.035H396.258V36.1592ZM407.662 30.3661L402.717 50.4342H401.093L406.02 30.3661H407.662ZM417.869 35.5997L412.852 47.3662H411.192L416.281 35.7621H409.315V34.3545H417.869V35.5997ZM428.76 47.4925C427.93 47.4925 427.184 47.3482 426.522 47.0594C425.873 46.7586 425.361 46.3496 424.988 45.8322C424.615 45.3029 424.423 44.6953 424.411 44.0095H426.161C426.222 44.599 426.462 45.0983 426.883 45.5074C427.316 45.9044 427.942 46.1029 428.76 46.1029C429.542 46.1029 430.156 45.9104 430.601 45.5254C431.058 45.1284 431.287 44.6231 431.287 44.0095C431.287 43.5283 431.154 43.1372 430.89 42.8365C430.625 42.5357 430.294 42.3071 429.897 42.1507C429.5 41.9943 428.965 41.8258 428.291 41.6454C427.461 41.4288 426.793 41.2123 426.288 40.9957C425.794 40.7791 425.367 40.4423 425.006 39.9851C424.658 39.5159 424.483 38.8902 424.483 38.1082C424.483 37.4224 424.658 36.8149 425.006 36.2855C425.355 35.7561 425.843 35.3471 426.468 35.0583C427.106 34.7696 427.834 34.6252 428.652 34.6252C429.831 34.6252 430.793 34.9199 431.539 35.5095C432.297 36.099 432.724 36.881 432.821 37.8556H431.016C430.956 37.3743 430.703 36.9532 430.258 36.5923C429.813 36.2193 429.223 36.0328 428.489 36.0328C427.804 36.0328 427.244 36.2133 426.811 36.5742C426.378 36.9231 426.161 37.4164 426.161 38.0541C426.161 38.5113 426.288 38.8842 426.54 39.173C426.805 39.4617 427.124 39.6843 427.497 39.8407C427.882 39.9851 428.417 40.1535 429.103 40.346C429.933 40.5746 430.601 40.8032 431.106 41.0318C431.612 41.2484 432.045 41.5912 432.406 42.0605C432.767 42.5176 432.947 43.1433 432.947 43.9373C432.947 44.5509 432.785 45.1284 432.46 45.6698C432.135 46.2112 431.654 46.6504 431.016 46.9872C430.378 47.3241 429.626 47.4925 428.76 47.4925ZM444.134 37.4766V47.3662H442.492V45.9044C442.179 46.4097 441.74 46.8068 441.175 47.0955C440.621 47.3722 440.008 47.5106 439.334 47.5106C438.564 47.5106 437.872 47.3542 437.259 47.0414C436.645 46.7165 436.158 46.2353 435.797 45.5976C435.448 44.96 435.274 44.184 435.274 43.2696V37.4766H436.898V43.053C436.898 44.0276 437.144 44.7795 437.638 45.3089C438.131 45.8262 438.805 46.0849 439.659 46.0849C440.537 46.0849 441.229 45.8142 441.734 45.2728C442.24 44.7314 442.492 43.9433 442.492 42.9087V37.4766H444.134ZM448.55 39.2993C448.874 38.7338 449.356 38.2646 449.993 37.8916C450.643 37.5066 451.395 37.3142 452.249 37.3142C453.127 37.3142 453.922 37.5247 454.631 37.9458C455.353 38.3669 455.919 38.9624 456.328 39.7324C456.737 40.4904 456.941 41.3747 456.941 42.3853C456.941 43.3839 456.737 44.2742 456.328 45.0562C455.919 45.8382 455.353 46.4458 454.631 46.8789C453.922 47.3121 453.127 47.5286 452.249 47.5286C451.407 47.5286 450.661 47.3421 450.011 46.9692C449.374 46.5842 448.886 46.109 448.55 45.5435V52.0584H446.907V37.4766H448.55V39.2993ZM455.263 42.3853C455.263 41.6394 455.113 40.9897 454.812 40.4362C454.511 39.8828 454.102 39.4617 453.585 39.173C453.079 38.8842 452.52 38.7398 451.906 38.7398C451.305 38.7398 450.745 38.8902 450.228 39.191C449.723 39.4798 449.314 39.9069 449.001 40.4723C448.7 41.0258 448.55 41.6694 448.55 42.4033C448.55 43.1493 448.7 43.805 449.001 44.3704C449.314 44.9239 449.723 45.351 450.228 45.6518C450.745 45.9405 451.305 46.0849 451.906 46.0849C452.52 46.0849 453.079 45.9405 453.585 45.6518C454.102 45.351 454.511 44.9239 454.812 44.3704C455.113 43.805 455.263 43.1433 455.263 42.3853ZM460.745 39.2993C461.07 38.7338 461.551 38.2646 462.189 37.8916C462.839 37.5066 463.591 37.3142 464.445 37.3142C465.323 37.3142 466.117 37.5247 466.827 37.9458C467.549 38.3669 468.114 38.9624 468.523 39.7324C468.932 40.4904 469.137 41.3747 469.137 42.3853C469.137 43.3839 468.932 44.2742 468.523 45.0562C468.114 45.8382 467.549 46.4458 466.827 46.8789C466.117 47.3121 465.323 47.5286 464.445 47.5286C463.603 47.5286 462.857 47.3421 462.207 46.9692C461.569 46.5842 461.082 46.109 460.745 45.5435V52.0584H459.103V37.4766H460.745V39.2993ZM467.459 42.3853C467.459 41.6394 467.308 40.9897 467.008 40.4362C466.707 39.8828 466.298 39.4617 465.78 39.173C465.275 38.8842 464.716 38.7398 464.102 38.7398C463.5 38.7398 462.941 38.8902 462.424 39.191C461.918 39.4798 461.509 39.9069 461.196 40.4723C460.896 41.0258 460.745 41.6694 460.745 42.4033C460.745 43.1493 460.896 43.805 461.196 44.3704C461.509 44.9239 461.918 45.351 462.424 45.6518C462.941 45.9405 463.5 46.0849 464.102 46.0849C464.716 46.0849 465.275 45.9405 465.78 45.6518C466.298 45.351 466.707 44.9239 467.008 44.3704C467.308 43.805 467.459 43.1433 467.459 42.3853ZM475.612 47.5286C474.685 47.5286 473.843 47.3181 473.085 46.897C472.339 46.4759 471.75 45.8804 471.317 45.1104C470.896 44.3283 470.685 43.426 470.685 42.4033C470.685 41.3927 470.902 40.5024 471.335 39.7324C471.78 38.9504 472.381 38.3548 473.139 37.9458C473.897 37.5247 474.746 37.3142 475.684 37.3142C476.622 37.3142 477.471 37.5247 478.229 37.9458C478.987 38.3548 479.582 38.9444 480.015 39.7144C480.46 40.4844 480.683 41.3807 480.683 42.4033C480.683 43.426 480.454 44.3283 479.997 45.1104C479.552 45.8804 478.945 46.4759 478.175 46.897C477.405 47.3181 476.55 47.5286 475.612 47.5286ZM475.612 46.0849C476.201 46.0849 476.755 45.9465 477.272 45.6698C477.79 45.3931 478.205 44.978 478.517 44.4246C478.842 43.8712 479.005 43.1974 479.005 42.4033C479.005 41.6093 478.848 40.9355 478.535 40.3821C478.223 39.8287 477.814 39.4196 477.308 39.1549C476.803 38.8782 476.256 38.7398 475.666 38.7398C475.064 38.7398 474.511 38.8782 474.006 39.1549C473.512 39.4196 473.115 39.8287 472.815 40.3821C472.514 40.9355 472.363 41.6093 472.363 42.4033C472.363 43.2094 472.508 43.8892 472.797 44.4426C473.097 44.9961 473.494 45.4111 473.988 45.6879C474.481 45.9525 475.022 46.0849 475.612 46.0849ZM484.485 39.0827C484.773 38.5173 485.182 38.0781 485.712 37.7653C486.253 37.4525 486.909 37.2961 487.679 37.2961V38.9925H487.246C485.405 38.9925 484.485 39.9911 484.485 41.9883V47.3662H482.842V37.4766H484.485V39.0827ZM491.578 38.8301V44.6592C491.578 45.1404 491.68 45.4833 491.885 45.6879C492.089 45.8804 492.444 45.9766 492.949 45.9766H494.158V47.3662H492.679C491.764 47.3662 491.078 47.1557 490.621 46.7346C490.164 46.3135 489.936 45.6217 489.936 44.6592V38.8301H488.654V37.4766H489.936V34.9861H491.578V37.4766H494.158V38.8301H491.578Z" fill="#101010" style="fill:#101010;fill:color(display-p3 0.0636 0.0636 0.0636);fill-opacity:1;"/>
<path d="M291.87 460.135C290.703 460.135 289.638 459.864 288.675 459.323C287.713 458.77 286.949 458.006 286.384 457.031C285.83 456.045 285.553 454.938 285.553 453.71C285.553 452.483 285.83 451.382 286.384 450.408C286.949 449.421 287.713 448.657 288.675 448.116C289.638 447.563 290.703 447.286 291.87 447.286C293.049 447.286 294.12 447.563 295.082 448.116C296.045 448.657 296.803 449.415 297.356 450.39C297.909 451.364 298.186 452.471 298.186 453.71C298.186 454.95 297.909 456.057 297.356 457.031C296.803 458.006 296.045 458.77 295.082 459.323C294.12 459.864 293.049 460.135 291.87 460.135ZM291.87 458.709C292.748 458.709 293.536 458.505 294.234 458.096C294.944 457.687 295.497 457.103 295.894 456.345C296.303 455.587 296.508 454.709 296.508 453.71C296.508 452.7 296.303 451.822 295.894 451.076C295.497 450.318 294.95 449.734 294.252 449.325C293.554 448.916 292.76 448.712 291.87 448.712C290.979 448.712 290.185 448.916 289.488 449.325C288.79 449.734 288.236 450.318 287.827 451.076C287.43 451.822 287.232 452.7 287.232 453.71C287.232 454.709 287.43 455.587 287.827 456.345C288.236 457.103 288.79 457.687 289.488 458.096C290.197 458.505 290.991 458.709 291.87 458.709ZM305.173 449.939C306.376 449.939 307.35 450.306 308.096 451.04C308.842 451.761 309.215 452.808 309.215 454.18V460.009H307.591V454.414C307.591 453.428 307.344 452.676 306.851 452.158C306.358 451.629 305.684 451.364 304.83 451.364C303.963 451.364 303.272 451.635 302.754 452.176C302.249 452.718 301.996 453.506 301.996 454.541V460.009H300.354V450.119H301.996V451.527C302.321 451.021 302.76 450.63 303.314 450.354C303.879 450.077 304.499 449.939 305.173 449.939ZM313.54 446.654V460.009H311.898V446.654H313.54ZM317.187 448.513C316.874 448.513 316.61 448.405 316.393 448.188C316.176 447.972 316.068 447.707 316.068 447.394C316.068 447.081 316.176 446.817 316.393 446.6C316.61 446.383 316.874 446.275 317.187 446.275C317.488 446.275 317.741 446.383 317.945 446.6C318.162 446.817 318.27 447.081 318.27 447.394C318.27 447.707 318.162 447.972 317.945 448.188C317.741 448.405 317.488 448.513 317.187 448.513ZM317.981 450.119V460.009H316.339V450.119H317.981ZM325.599 449.939C326.802 449.939 327.776 450.306 328.522 451.04C329.268 451.761 329.641 452.808 329.641 454.18V460.009H328.017V454.414C328.017 453.428 327.77 452.676 327.277 452.158C326.784 451.629 326.11 451.364 325.256 451.364C324.389 451.364 323.698 451.635 323.18 452.176C322.675 452.718 322.422 453.506 322.422 454.541V460.009H320.78V450.119H322.422V451.527C322.747 451.021 323.186 450.63 323.74 450.354C324.305 450.077 324.925 449.939 325.599 449.939ZM341.347 454.685C341.347 454.998 341.329 455.329 341.293 455.678H333.388C333.449 456.652 333.779 457.416 334.381 457.97C334.995 458.511 335.735 458.782 336.601 458.782C337.311 458.782 337.9 458.619 338.369 458.294C338.851 457.957 339.188 457.512 339.38 456.959H341.149C340.884 457.909 340.355 458.685 339.56 459.287C338.766 459.876 337.78 460.171 336.601 460.171C335.662 460.171 334.82 459.961 334.074 459.54C333.34 459.118 332.763 458.523 332.342 457.753C331.921 456.971 331.71 456.069 331.71 455.046C331.71 454.023 331.915 453.127 332.324 452.357C332.733 451.587 333.304 450.997 334.038 450.588C334.784 450.167 335.638 449.957 336.601 449.957C337.539 449.957 338.369 450.161 339.091 450.57C339.813 450.979 340.367 451.545 340.752 452.267C341.149 452.977 341.347 453.783 341.347 454.685ZM339.651 454.342C339.651 453.716 339.512 453.181 339.236 452.736C338.959 452.279 338.58 451.936 338.099 451.707C337.629 451.467 337.106 451.346 336.529 451.346C335.698 451.346 334.989 451.611 334.399 452.14C333.822 452.67 333.491 453.404 333.407 454.342H339.651ZM352.242 447.43C353.614 447.43 354.799 447.689 355.798 448.206C356.808 448.712 357.578 449.439 358.107 450.39C358.649 451.34 358.92 452.459 358.92 453.747C358.92 455.034 358.649 456.153 358.107 457.103C357.578 458.042 356.808 458.764 355.798 459.269C354.799 459.762 353.614 460.009 352.242 460.009H348.326V447.43H352.242ZM352.242 458.655C353.867 458.655 355.106 458.228 355.96 457.374C356.814 456.508 357.241 455.299 357.241 453.747C357.241 452.182 356.808 450.961 355.942 450.083C355.088 449.205 353.854 448.766 352.242 448.766H349.968V458.655H352.242ZM365.399 460.171C364.473 460.171 363.63 459.961 362.872 459.54C362.126 459.118 361.537 458.523 361.104 457.753C360.683 456.971 360.472 456.069 360.472 455.046C360.472 454.035 360.689 453.145 361.122 452.375C361.567 451.593 362.169 450.997 362.927 450.588C363.685 450.167 364.533 449.957 365.471 449.957C366.41 449.957 367.258 450.167 368.016 450.588C368.774 450.997 369.369 451.587 369.802 452.357C370.248 453.127 370.47 454.023 370.47 455.046C370.47 456.069 370.242 456.971 369.784 457.753C369.339 458.523 368.732 459.118 367.962 459.54C367.192 459.961 366.337 460.171 365.399 460.171ZM365.399 458.727C365.988 458.727 366.542 458.589 367.059 458.312C367.577 458.036 367.992 457.621 368.304 457.067C368.629 456.514 368.792 455.84 368.792 455.046C368.792 454.252 368.635 453.578 368.323 453.025C368.01 452.471 367.601 452.062 367.095 451.798C366.59 451.521 366.043 451.382 365.453 451.382C364.852 451.382 364.298 451.521 363.793 451.798C363.3 452.062 362.902 452.471 362.602 453.025C362.301 453.578 362.151 454.252 362.151 455.046C362.151 455.852 362.295 456.532 362.584 457.085C362.884 457.639 363.281 458.054 363.775 458.33C364.268 458.595 364.809 458.727 365.399 458.727ZM372.016 455.046C372.016 454.023 372.22 453.133 372.629 452.375C373.038 451.605 373.604 451.009 374.326 450.588C375.06 450.167 375.896 449.957 376.834 449.957C378.049 449.957 379.048 450.251 379.83 450.841C380.624 451.431 381.147 452.249 381.4 453.295H379.632C379.463 452.694 379.132 452.219 378.639 451.87C378.158 451.521 377.556 451.346 376.834 451.346C375.896 451.346 375.138 451.671 374.56 452.321C373.983 452.959 373.694 453.867 373.694 455.046C373.694 456.237 373.983 457.157 374.56 457.807C375.138 458.457 375.896 458.782 376.834 458.782C377.556 458.782 378.158 458.613 378.639 458.276C379.12 457.939 379.451 457.458 379.632 456.833H381.4C381.135 457.843 380.606 458.655 379.812 459.269C379.018 459.87 378.025 460.171 376.834 460.171C375.896 460.171 375.06 459.961 374.326 459.54C373.604 459.118 373.038 458.523 372.629 457.753C372.22 456.983 372.016 456.081 372.016 455.046ZM385.595 451.473V457.302C385.595 457.783 385.697 458.126 385.901 458.33C386.106 458.523 386.461 458.619 386.966 458.619H388.175V460.009H386.695C385.781 460.009 385.095 459.798 384.638 459.377C384.181 458.956 383.952 458.264 383.952 457.302V451.473H382.671V450.119H383.952V447.629H385.595V450.119H388.175V451.473H385.595ZM394.478 460.171C393.552 460.171 392.71 459.961 391.952 459.54C391.206 459.118 390.616 458.523 390.183 457.753C389.762 456.971 389.551 456.069 389.551 455.046C389.551 454.035 389.768 453.145 390.201 452.375C390.646 451.593 391.248 450.997 392.006 450.588C392.764 450.167 393.612 449.957 394.55 449.957C395.489 449.957 396.337 450.167 397.095 450.588C397.853 450.997 398.449 451.587 398.882 452.357C399.327 453.127 399.549 454.023 399.549 455.046C399.549 456.069 399.321 456.971 398.864 457.753C398.418 458.523 397.811 459.118 397.041 459.54C396.271 459.961 395.417 460.171 394.478 460.171ZM394.478 458.727C395.068 458.727 395.621 458.589 396.139 458.312C396.656 458.036 397.071 457.621 397.384 457.067C397.709 456.514 397.871 455.84 397.871 455.046C397.871 454.252 397.715 453.578 397.402 453.025C397.089 452.471 396.68 452.062 396.175 451.798C395.669 451.521 395.122 451.382 394.532 451.382C393.931 451.382 393.377 451.521 392.872 451.798C392.379 452.062 391.982 452.471 391.681 453.025C391.38 453.578 391.23 454.252 391.23 455.046C391.23 455.852 391.374 456.532 391.663 457.085C391.964 457.639 392.361 458.054 392.854 458.33C393.347 458.595 393.889 458.727 394.478 458.727ZM403.351 451.725C403.64 451.16 404.049 450.721 404.578 450.408C405.12 450.095 405.775 449.939 406.545 449.939V451.635H406.112C404.271 451.635 403.351 452.634 403.351 454.631V460.009H401.709V450.119H403.351V451.725ZM285.553 472.71C285.553 471.483 285.83 470.382 286.384 469.408C286.937 468.421 287.689 467.651 288.639 467.098C289.602 466.544 290.667 466.268 291.834 466.268C293.205 466.268 294.402 466.599 295.425 467.26C296.448 467.922 297.194 468.86 297.663 470.076H295.696C295.347 469.318 294.841 468.734 294.18 468.325C293.53 467.916 292.748 467.712 291.834 467.712C290.955 467.712 290.167 467.916 289.47 468.325C288.772 468.734 288.224 469.318 287.827 470.076C287.43 470.822 287.232 471.7 287.232 472.71C287.232 473.709 287.43 474.587 287.827 475.345C288.224 476.091 288.772 476.669 289.47 477.078C290.167 477.487 290.955 477.691 291.834 477.691C292.748 477.691 293.53 477.493 294.18 477.096C294.841 476.687 295.347 476.103 295.696 475.345H297.663C297.194 476.548 296.448 477.481 295.425 478.143C294.402 478.792 293.205 479.117 291.834 479.117C290.667 479.117 289.602 478.846 288.639 478.305C287.689 477.752 286.937 476.988 286.384 476.013C285.83 475.038 285.553 473.938 285.553 472.71ZM304.421 479.171C303.494 479.171 302.652 478.961 301.894 478.54C301.148 478.118 300.559 477.523 300.125 476.753C299.704 475.971 299.494 475.069 299.494 474.046C299.494 473.035 299.71 472.145 300.143 471.375C300.589 470.593 301.19 469.997 301.948 469.588C302.706 469.167 303.554 468.957 304.493 468.957C305.431 468.957 306.279 469.167 307.037 469.588C307.795 469.997 308.391 470.587 308.824 471.357C309.269 472.127 309.492 473.023 309.492 474.046C309.492 475.069 309.263 475.971 308.806 476.753C308.361 477.523 307.753 478.118 306.983 478.54C306.213 478.961 305.359 479.171 304.421 479.171ZM304.421 477.727C305.01 477.727 305.564 477.589 306.081 477.312C306.598 477.036 307.013 476.621 307.326 476.067C307.651 475.514 307.813 474.84 307.813 474.046C307.813 473.252 307.657 472.578 307.344 472.025C307.031 471.471 306.622 471.062 306.117 470.798C305.612 470.521 305.064 470.382 304.475 470.382C303.873 470.382 303.32 470.521 302.814 470.798C302.321 471.062 301.924 471.471 301.623 472.025C301.323 472.578 301.172 473.252 301.172 474.046C301.172 474.852 301.317 475.532 301.605 476.085C301.906 476.639 302.303 477.054 302.796 477.33C303.29 477.595 303.831 477.727 304.421 477.727ZM316.469 468.939C317.673 468.939 318.647 469.306 319.393 470.04C320.139 470.761 320.512 471.808 320.512 473.18V479.009H318.888V473.414C318.888 472.428 318.641 471.676 318.148 471.158C317.655 470.629 316.981 470.364 316.127 470.364C315.26 470.364 314.569 470.635 314.051 471.176C313.546 471.718 313.293 472.506 313.293 473.541V479.009H311.651L311.651 469.119H313.293V470.527C313.618 470.021 314.057 469.63 314.611 469.354C315.176 469.077 315.796 468.939 316.469 468.939ZM326.696 479.171C325.938 479.171 325.258 479.045 324.656 478.792C324.055 478.528 323.58 478.167 323.231 477.709C322.882 477.24 322.689 476.705 322.653 476.103H324.35C324.398 476.597 324.626 477 325.035 477.312C325.456 477.625 326.004 477.782 326.678 477.782C327.303 477.782 327.797 477.643 328.157 477.367C328.518 477.09 328.699 476.741 328.699 476.32C328.699 475.887 328.506 475.568 328.121 475.363C327.736 475.147 327.141 474.936 326.335 474.732C325.601 474.539 324.999 474.347 324.53 474.154C324.073 473.95 323.676 473.655 323.339 473.27C323.014 472.873 322.852 472.356 322.852 471.718C322.852 471.213 323.002 470.749 323.303 470.328C323.604 469.907 324.031 469.576 324.584 469.336C325.138 469.083 325.769 468.957 326.479 468.957C327.574 468.957 328.458 469.233 329.132 469.787C329.806 470.34 330.167 471.098 330.215 472.061H328.573C328.536 471.543 328.326 471.128 327.941 470.816C327.568 470.503 327.063 470.346 326.425 470.346C325.835 470.346 325.366 470.473 325.017 470.725C324.668 470.978 324.494 471.309 324.494 471.718C324.494 472.043 324.596 472.313 324.801 472.53C325.017 472.735 325.282 472.903 325.595 473.035C325.92 473.156 326.365 473.294 326.93 473.45C327.64 473.643 328.218 473.835 328.663 474.028C329.108 474.208 329.487 474.485 329.8 474.858C330.125 475.231 330.293 475.718 330.305 476.32C330.305 476.861 330.155 477.348 329.854 477.782C329.553 478.215 329.126 478.558 328.573 478.81C328.031 479.051 327.405 479.171 326.696 479.171ZM341.394 469.119V479.009H339.752V477.547C339.439 478.052 339 478.449 338.434 478.738C337.881 479.015 337.267 479.153 336.594 479.153C335.824 479.153 335.132 478.997 334.518 478.684C333.905 478.359 333.417 477.878 333.056 477.24C332.708 476.603 332.533 475.827 332.533 474.912V469.119H334.157V474.696C334.157 475.67 334.404 476.422 334.897 476.951C335.39 477.469 336.064 477.727 336.918 477.727C337.797 477.727 338.489 477.457 338.994 476.915C339.499 476.374 339.752 475.586 339.752 474.551V469.119H341.394ZM345.809 465.654V479.009H344.167V465.654H345.809ZM350.611 470.473V476.302C350.611 476.783 350.714 477.126 350.918 477.33C351.123 477.523 351.478 477.619 351.983 477.619H353.192V479.009H351.712C350.798 479.009 350.112 478.798 349.655 478.377C349.198 477.956 348.969 477.264 348.969 476.302V470.473H347.688V469.119H348.969V466.629H350.611V469.119H353.192V470.473H350.611ZM354.568 474.028C354.568 473.017 354.773 472.133 355.182 471.375C355.591 470.605 356.15 470.009 356.86 469.588C357.582 469.167 358.382 468.957 359.26 468.957C360.127 468.957 360.879 469.143 361.516 469.516C362.154 469.889 362.629 470.358 362.942 470.924V469.119H364.602V479.009H362.942V477.168C362.617 477.746 362.13 478.227 361.48 478.612C360.842 478.985 360.097 479.171 359.242 479.171C358.364 479.171 357.57 478.955 356.86 478.522C356.15 478.088 355.591 477.481 355.182 476.699C354.773 475.917 354.568 475.026 354.568 474.028ZM362.942 474.046C362.942 473.3 362.792 472.65 362.491 472.097C362.19 471.543 361.781 471.122 361.264 470.834C360.758 470.533 360.199 470.382 359.585 470.382C358.972 470.382 358.412 470.527 357.907 470.816C357.402 471.104 356.999 471.525 356.698 472.079C356.397 472.632 356.247 473.282 356.247 474.028C356.247 474.786 356.397 475.448 356.698 476.013C356.999 476.566 357.402 476.994 357.907 477.294C358.412 477.583 358.972 477.727 359.585 477.727C360.199 477.727 360.758 477.583 361.264 477.294C361.781 476.994 362.19 476.566 362.491 476.013C362.792 475.448 362.942 474.792 362.942 474.046ZM369.381 470.473V476.302C369.381 476.783 369.483 477.126 369.687 477.33C369.892 477.523 370.247 477.619 370.752 477.619H371.961V479.009H370.482C369.567 479.009 368.881 478.798 368.424 478.377C367.967 477.956 367.738 477.264 367.738 476.302V470.473H366.457V469.119H367.738V466.629H369.381V469.119H371.961V470.473H369.381ZM374.799 467.513C374.487 467.513 374.222 467.405 374.005 467.188C373.789 466.972 373.68 466.707 373.68 466.394C373.68 466.081 373.789 465.817 374.005 465.6C374.222 465.383 374.487 465.275 374.799 465.275C375.1 465.275 375.353 465.383 375.557 465.6C375.774 465.817 375.882 466.081 375.882 466.394C375.882 466.707 375.774 466.972 375.557 467.188C375.353 467.405 375.1 467.513 374.799 467.513ZM375.593 469.119V479.009H373.951V469.119H375.593ZM382.706 479.171C381.779 479.171 380.937 478.961 380.179 478.54C379.433 478.118 378.844 477.523 378.41 476.753C377.989 475.971 377.779 475.069 377.779 474.046C377.779 473.035 377.995 472.145 378.428 471.375C378.874 470.593 379.475 469.997 380.233 469.588C380.991 469.167 381.839 468.957 382.778 468.957C383.716 468.957 384.564 469.167 385.322 469.588C386.08 469.997 386.676 470.587 387.109 471.357C387.554 472.127 387.777 473.023 387.777 474.046C387.777 475.069 387.548 475.971 387.091 476.753C386.646 477.523 386.038 478.118 385.268 478.54C384.498 478.961 383.644 479.171 382.706 479.171ZM382.706 477.727C383.295 477.727 383.849 477.589 384.366 477.312C384.883 477.036 385.298 476.621 385.611 476.067C385.936 475.514 386.098 474.84 386.098 474.046C386.098 473.252 385.942 472.578 385.629 472.025C385.316 471.471 384.907 471.062 384.402 470.798C383.897 470.521 383.349 470.382 382.76 470.382C382.158 470.382 381.605 470.521 381.099 470.798C380.606 471.062 380.209 471.471 379.908 472.025C379.608 472.578 379.457 473.252 379.457 474.046C379.457 474.852 379.601 475.532 379.89 476.085C380.191 476.639 380.588 477.054 381.081 477.33C381.575 477.595 382.116 477.727 382.706 477.727ZM394.754 468.939C395.958 468.939 396.932 469.306 397.678 470.04C398.424 470.761 398.797 471.808 398.797 473.18V479.009H397.173V473.414C397.173 472.428 396.926 471.676 396.433 471.158C395.94 470.629 395.266 470.364 394.412 470.364C393.545 470.364 392.854 470.635 392.336 471.176C391.831 471.718 391.578 472.506 391.578 473.541V479.009H389.936V469.119H391.578V470.527C391.903 470.021 392.342 469.63 392.896 469.354C393.461 469.077 394.081 468.939 394.754 468.939Z" fill="#101010" style="fill:#101010;fill:color(display-p3 0.0636 0.0636 0.0636);fill-opacity:1;"/>
</g>
<defs>
<clipPath id="clip0_590_2">
<rect width="512" height="510" fill="white" style="fill:white;fill-opacity:1;" transform="translate(0.808594 0.900391)"/>
</clipPath>
</defs>
</svg>
