<svg xmlns="http://www.w3.org/2000/svg" id="public-health-campaign" viewBox="0 0 64 64">
  <path d="M54.443,47.574a7.933,7.933,0,1,0-9.613,0,10.207,10.207,0,0,0-3.5,1.723,10.643,10.643,0,0,0-4.37-2.3,8.312,8.312,0,0,0,2.232-10.947l9.766-9.767a12.129,12.129,0,0,0,0-17.175A12.179,12.179,0,0,0,32,8.9,12.139,12.139,0,0,0,11.48,17.7a12.051,12.051,0,0,0,3.553,8.577l9.77,9.77A8.312,8.312,0,0,0,27.039,47a10.693,10.693,0,0,0-4.37,2.3,10.2,10.2,0,0,0-3.5-1.728,7.933,7.933,0,1,0-9.616,0A10.218,10.218,0,0,0,2,57.442a1,1,0,0,0,1,1H61a1,1,0,0,0,1-1A10.245,10.245,0,0,0,54.443,47.574Zm-10.737-6.3a5.933,5.933,0,1,1,5.972,5.932H49.6A5.94,5.94,0,0,1,43.706,41.275ZM16.447,24.866a10.155,10.155,0,0,1,0-14.345,10.174,10.174,0,0,1,14.348,0l.5.5a1.026,1.026,0,0,0,.712.293,1,1,0,0,0,.709-.3l.482-.492A10.15,10.15,0,0,1,50.52,17.7a10.065,10.065,0,0,1-2.977,7.163l-9.576,9.577a8.33,8.33,0,0,0-11.94,0ZM25.64,40.283A6.358,6.358,0,1,1,32,46.642,6.366,6.366,0,0,1,25.64,40.283Zm8.614,8.359a8.712,8.712,0,0,1,6.318,2.68c.187.193.362.394.529.6.053.066.1.135.153.2.11.144.218.289.318.439.054.082.1.165.157.247.088.143.173.287.254.434.047.088.094.176.139.266.075.151.145.3.212.459.037.087.076.173.111.261.068.173.127.349.184.526.023.073.051.145.072.219.073.251.137.505.187.763.008.036.011.074.017.11.036.2.064.394.087.592H21c.022-.2.05-.4.086-.6.007-.035.01-.071.017-.106q.077-.389.188-.768c.019-.065.043-.127.063-.191.06-.188.123-.375.2-.558.03-.077.064-.153.1-.229.073-.17.149-.337.232-.5.038-.074.077-.149.117-.223.09-.165.186-.328.286-.488.041-.066.081-.132.124-.2.116-.175.241-.345.37-.512.035-.045.066-.091.1-.135.171-.212.35-.418.542-.616l.1-.1a8.75,8.75,0,0,1,6.226-2.581ZM8.424,41.275A5.933,5.933,0,1,1,14.4,47.207h-.077A5.938,5.938,0,0,1,8.424,41.275ZM6.408,51.623a8.19,8.19,0,0,1,5.826-2.416h2.084l.038,0,.039,0h2.088a8.192,8.192,0,0,1,4.785,1.54c-.012.014-.02.03-.031.044a11.016,11.016,0,0,0-.747,1.1c-.059.1-.118.2-.174.3a10.683,10.683,0,0,0-.6,1.226c-.011.03-.02.061-.031.091a10.614,10.614,0,0,0-.392,1.227c-.029.111-.056.222-.082.334a11.067,11.067,0,0,0-.225,1.361l0,.018H4.06A8.16,8.16,0,0,1,6.408,51.623Zm38.6,4.819,0-.018a10.7,10.7,0,0,0-.225-1.361c-.025-.112-.053-.223-.082-.334a10.656,10.656,0,0,0-.391-1.226c-.012-.03-.02-.062-.032-.092a10.807,10.807,0,0,0-.6-1.224c-.057-.1-.117-.2-.178-.3a10.97,10.97,0,0,0-.731-1.073c-.016-.02-.027-.043-.043-.063a8.2,8.2,0,0,1,4.791-1.54H49.6l.039,0,.038,0h2.088a8.246,8.246,0,0,1,8.173,7.235Z"></path>
  <path d="M31.059 28.318a1 1 0 0 0 2 0V22.731h5.587a1 1 0 0 0 0-2H33.059V15.145a1 1 0 1 0-2 0v5.586H25.472a1 1 0 0 0 0 2h5.587ZM18.727 12.873a5.734 5.734 0 0 0-1.992 2.347 5.909 5.909 0 0 0-.124 4.441 1 1 0 0 0 1.875-.7 3.953 3.953 0 0 1 .07-2.914 3.727 3.727 0 0 1 1.3-1.524 1 1 0 0 0-1.127-1.652Z"></path>
</svg>
