<svg xmlns="http://www.w3.org/2000/svg" viewBox="0 0 48 48" id="woman-care">
  <g>
    <path d="M39.76 30.4a3.45 3.45 0 0 0-2.59-2.07 3.6 3.6 0 0 0-3.56 1.4l-2.07 2.94a3.42 3.42 0 0 0-2-.67H20a4 4 0 0 0-3.86 3H15a2 2 0 0 0-2-2h-3a2 2 0 0 0-2 2v9a2 2 0 0 0 2 2h3a2 2 0 0 0 2-2h17.18a1 1 0 0 0 .84-.46l6.38-10a3.27 3.27 0 0 0 .36-3.14zM10 44v-9h3v9zm27.74-11.61L31.63 42H15v-5h2a1 1 0 0 0 1-1 2 2 0 0 1 2-2h9.5a1.5 1.5 0 0 1 0 3h-8.75a1 1 0 0 0 0 2h8.75a3.47 3.47 0 0 0 3.3-4.63l2.45-3.48a1.61 1.61 0 0 1 1.55-.6 1.47 1.47 0 0 1 1.1.86 1.25 1.25 0 0 1-.16 1.24zM24 16a5 5 0 1 0-5-5 5 5 0 0 0 5 5zm0-8a3 3 0 1 1-3 3 3 3 0 0 1 3-3z"></path>
    <path d="M21 19.48V21h-3a1 1 0 0 0-1 1v4a1 1 0 0 0 1 1h3v2a1 1 0 0 0 1 1h4a1 1 0 0 0 1-1v-2h3a1 1 0 0 0 1-1v-4a1 1 0 0 0-1-1h-3v-1.52a9 9 0 1 0-6 0ZM24 4a7 7 0 0 1 1.75 13.77 1 1 0 0 0-.75 1V22a1 1 0 0 0 1 1h3v2h-3a1 1 0 0 0-1 1v2h-2v-2a1 1 0 0 0-1-1h-3v-2h3a1 1 0 0 0 1-1v-3.26a1 1 0 0 0-.75-1A7 7 0 0 1 24 4Z"></path>
  </g>
</svg>
