<svg id="SvgjsSvg1056" width="288" height="288" xmlns="http://www.w3.org/2000/svg" version="1.1" xmlns:xlink="http://www.w3.org/1999/xlink" xmlns:svgjs="http://svgjs.com/svgjs"><defs id="SvgjsDefs1057"></defs><g id="SvgjsG1058"><svg xmlns="http://www.w3.org/2000/svg" enable-background="new 0 0 195.524 248.594" viewBox="0 0 195.524 248.594" width="288" height="288"><path d="M76.692 242.756c-.906-1.935-1.322-4.009-1.27-6.083-.431-.028-.865-.052-1.304-.072v-41.153h11.713c.158-1.74.208-3.142.201-4.23.002-4.167-.682-6.324-1.11-7.27H59.224c-.001.003-.003.005-.004.008-.411.887-1.111 3.027-1.107 7.246-.007 1.094.044 2.5.202 4.246h8.305v33.285c.415 1.187.845 2.398 1.3 3.646.491 1.355.752 2.752.803 4.151.013.361.021.723.005 1.083-.079 1.758-.504 3.501-1.273 5.143-1.11 2.373-2.848 4.32-5.01 5.689 6.219.24 13.093.189 19.033-.151C79.421 246.934 77.764 245.044 76.692 242.756zM44.202 245.055c0 .355.3.682.846.982-.298-.333-.575-.686-.841-1.049C44.207 245.011 44.202 245.032 44.202 245.055zM61.327 147.938c-.951.303-1.962.468-3.011.468h-.005l-.042-.002c-5.157-.027-11.448-.61-15.779-1.592v2.574h18.641L61.327 147.938z" fill="#000000" class="svgShape color000000-0 selectable"></path><path d="M86.442,182.539c0.021,0.035,0.041,0.064,0.062,0.102c0.182,0.328,0.376,0.765,0.563,1.307
		c0.509,1.467,0.967,3.768,0.966,7.256c0.008,1.267-0.061,2.691-0.194,4.244c-0.717,8.281-3.557,20.661-9.733,37.615
		c-0.451,1.244-0.663,2.514-0.682,3.766c-0.072,4.796,2.854,9.325,7.616,11.051c0.138,0.05,0.276,0.086,0.415,0.13
		c1.169,0.376,2.357,0.565,3.527,0.565c4.732,0,9.172-2.922,10.877-7.627v-0.002c7.776-21.559,11.263-37.17,11.312-49.742
		c-0.004-5.868-0.811-11.168-2.643-15.922h-11.97H42.514h-6.881c-1.833,4.744-2.657,10.061-2.659,15.922
		c0.049,12.57,3.539,28.184,11.315,49.744c0.234,0.646,0.529,1.253,0.861,1.829c1.174,2.042,2.911,3.625,4.941,4.616
		c2.394,1.168,5.184,1.519,7.914,0.824c0.369-0.094,0.736-0.205,1.102-0.338c4.503-1.631,7.375-5.767,7.614-10.266
		c0.018-0.337,0.016-0.677,0.004-1.018c-0.015-0.404-0.048-0.81-0.105-1.215c-0.111-0.776-0.301-1.553-0.578-2.318
		c-6.177-16.955-9.017-29.334-9.733-37.615c-0.134-1.553-0.202-2.977-0.194-4.244c-0.003-3.482,0.458-5.796,0.965-7.256
		c0.11-0.316,0.221-0.606,0.331-0.844c0.103-0.217,0.198-0.395,0.295-0.564h2.621h23.492H86.442z" fill="#000000" class="svgShape color000000-1 selectable"></path><circle cx="69.537" cy="69.491" r="22.495" transform="rotate(-76.891 69.54 69.494)" fill="#000000" class="svgShape color000000-2 selectable"></circle><path d="M70.789 148.764l-.556-3.158-2.541-3.758c-.312.844-.729 1.635-1.245 2.355l1.619 2.485L70.789 148.764zM156.551 194.939c1.081 18.514 2.157 40.348 2.155 53.008h14c-.007-18.857-2.197-55.162-3.468-74.666h7.797c2.209 0 4-1.791 4-4v-13.894c0-2.209-1.791-4-4-4H96.582 78.214 60.859 42.49 4c-2.209 0-4 1.791-4 4v13.894c0 2.209 1.791 4 4 4h7.795c-1.27 19.504-3.459 55.809-3.466 74.666h13.999c-.004-12.66 1.073-34.494 2.155-53.01.479-8.209.957-15.771 1.342-21.656h8.461 2.193 6.011 54.092 11.1 2.181 45.347C155.594 179.168 156.071 186.73 156.551 194.939z" fill="#dc2626" class="svgShape color000000-3 selectable"></path><path d="M57.131,146.379c0.385,0.008,0.757,0.025,1.149,0.027c0.013,0,0.024,0,0.037,0c1.101,0,2.148-0.223,3.104-0.625
		c0.073-0.03,0.142-0.069,0.213-0.102c1.525-0.697,2.793-1.857,3.623-3.304c0.474-0.825,0.799-1.743,0.952-2.72
		c0.063-0.396,0.106-0.8,0.108-1.213v-0.001c0.01-2.475-1.106-4.69-2.863-6.166c-1-0.839-2.208-1.437-3.536-1.707
		c-0.507-0.102-1.03-0.16-1.567-0.162c-0.362-0.001-0.709-0.009-1.059-0.016c-1.456-0.031-2.855-0.118-4.184-0.251
		c-5.275-0.553-8.501-1.876-10.104-3.04c-0.197-0.141-0.354-0.272-0.514-0.405c-0.309-0.257-0.562-0.501-0.758-0.732
		c-0.252-0.296-0.437-0.575-0.575-0.837c-0.294-0.582-0.436-1.16-0.44-1.926c-0.04-1.301,0.609-3.188,1.773-4.798v6.714
		c1.843,0.843,6.9,2.787,13.451,3.202l-3.539-5.433l1.271-1.547l4.783,7.072c1.954,0.031,3.771,0.625,5.301,1.623l1.752-12.909
		c1.297,0.486,2.661,0.74,4.025,0.739h0.003c0,0,0.002,0,0.006,0c1.362,0,2.725-0.255,4.021-0.741l4.378,32.265h18.64v-22.117
		c4.786,4.283,10.975,8.615,18.65,11.825v1.593h4.259h16.931h29.311v-36.334h-50.5v16.862c-4.016-2.394-7.339-5.134-10.025-7.792
		c-2.865-2.844-4.961-5.565-6.304-7.516c-0.669-0.977-1.151-1.76-1.45-2.266c-0.149-0.252-0.251-0.435-0.308-0.543
		c-0.026-0.047-0.042-0.076-0.051-0.092c-1.536-2.981-4.688-4.583-7.837-4.298c-0.135-0.007-0.268-0.021-0.404-0.021H50.218
		c-0.558,0-1.1,0.063-1.623,0.174c-0.148-0.008-0.295-0.022-0.445-0.022c-6.842,0.047-12.554,3.361-16.605,7.714
		c-4.036,4.404-6.78,10.143-6.829,16.645c-0.005,3.063,0.682,6.285,2.225,9.264c2.299,4.502,6.458,8.162,11.726,10.439
		c0.794,0.347,1.623,0.658,2.47,0.953c0.444,0.154,0.896,0.303,1.354,0.443C46.696,145.584,51.541,146.268,57.131,146.379z
		 M140.483,113.521c2.623,0,4.75,2.127,4.75,4.75c0,2.623-2.127,4.75-4.75,4.75c-2.623,0-4.75-2.127-4.75-4.75
		C135.733,115.648,137.859,113.521,140.483,113.521z M65.737,104.945h3.8h3.8l1.9,7.5l-0.289,0.456
		c-1.566,1.306-3.485,1.96-5.413,1.962c-1.926-0.002-3.839-0.654-5.404-1.955l-0.293-0.463L65.737,104.945z" fill="#000000" class="svgShape color000000-4 selectable"></path><path d="M126.779 142.688h-11.547v5.666h50.5v-5.666H133.54 126.779zM143.672 144.271h20.123v2.332h-20.123V144.271zM119.483 146.604h-2.333v-2.332h2.333V146.604zM123.525 146.604h-2.333v-2.332h2.333V146.604zM127.567 146.604h-2.333v-2.332h2.333V146.604zM166.524 0c-16.015 0-29 12.982-29 29 0 16.016 12.985 29 29 29 16.018 0 29-12.984 29-29C195.524 12.982 182.542 0 166.524 0zM166.524 54.603c-14.114 0-25.607-11.485-25.607-25.603 0-14.119 11.492-25.607 25.607-25.607 14.118 0 25.605 11.487 25.605 25.607C192.129 43.118 180.642 54.603 166.524 54.603z" fill="#000000" class="svgShape color000000-5 selectable"></path><path d="M166.524,5.954c-12.703,0-23.046,10.335-23.046,23.046c0,12.708,10.343,23.045,23.046,23.045
		c12.708,0,23.045-10.337,23.045-23.045C189.568,16.289,179.232,5.954,166.524,5.954z M165.243,8.515h2.56v8.779h-2.56V8.515z
		 M154.82,30.28h-8.781v-2.561h8.781V30.28z M167.803,49.484h-2.56v-8.78h2.56V49.484z M167.796,30.333
		c-0.606,0.617-1.597,0.626-2.214,0.021l-9.859-9.674c-0.617-0.606-0.626-1.597-0.021-2.213c0.605-0.617,1.597-0.626,2.214-0.021
		l9.128,8.958l12.778-10.225c0.316-0.253,0.829-0.138,1.146,0.258c0.317,0.396,0.317,0.921,0,1.174l-12.781,10.228
		C168.321,29.354,168.196,29.925,167.796,30.333z M178.231,30.28v-2.561h8.777v2.561H178.231z" fill="#dc2626" class="svgShape color000000-6 selectable"></path></svg></g></svg>