<svg xmlns="http://www.w3.org/2000/svg" width="267" height="267" fill-rule="evenodd" stroke-linejoin="round" stroke-miterlimit="2" clip-rule="evenodd" id="wound-care">
  <path d="M202.483 131.864v43.418a24.901 24.901 0 0 1-24.901 24.901H73.998a24.902 24.902 0 0 1-24.901-24.901v-48.901l36.498.294c8.482-.104 16.72-2.317 25.288-4.015l12.443 19.037a4.166 4.166 0 0 0 6.792.258l14.473-18.84c5.949 1.324 11.278 2.837 16.516 3.525.19.025.382.037.573.035l16.514-.12a4.169 4.169 0 0 0 4.136-4.197 4.169 4.169 0 0 0-4.197-4.136l-16.22.118c-5.702-.782-11.521-2.571-18.191-3.932a4.166 4.166 0 0 0-4.137 1.545l-12.497 16.268-10.755-16.454a4.167 4.167 0 0 0-4.228-1.821c-9.06 1.637-17.655 4.274-26.546 4.396l-40.595-.327a4.168 4.168 0 0 0-4.2 4.166v53.101a33.232 33.232 0 0 0 33.234 33.234h103.584a33.233 33.233 0 0 0 33.234-33.234v-43.418c0-2.3-1.867-4.167-4.166-4.167a4.169 4.169 0 0 0-4.167 4.167Z"></path>
  <path d="M45.664 159.453c1.563.037 4.106.07 15.043.07 6.119 0 10.417-1.795 14.697-3.661 3.319-1.447 6.62-2.966 11.366-2.966 1.136 0 2.02.716 2.951 1.595 1.627 1.536 3.164 3.667 4.876 5.976 6.258 8.437 14.354 18.762 31.259 18.935 16.472.169 24.631-10.431 30.985-19.193 1.738-2.397 3.308-4.614 4.963-6.215.942-.911 1.823-1.668 2.957-1.668 4.723 0 8.063 1.607 11.425 3.153 4.352 2 8.725 3.946 14.839 4.043 7.032.112 11.12-1.366 15.254-1.562a4.168 4.168 0 0 0-.395-8.324c-3.992.189-7.935 1.662-14.726 1.554-4.751-.076-8.11-1.728-11.491-3.283-4.371-2.009-8.764-3.914-14.906-3.914-2.673 0-5.09.976-7.356 2.782-2.457 1.956-4.782 5.055-7.31 8.542-5.027 6.932-11.122 15.886-24.153 15.752-13.486-.138-19.66-8.835-24.651-15.566-2.508-3.382-4.8-6.375-7.236-8.264-2.233-1.732-4.619-2.676-7.285-2.676-6.119 0-10.417 1.794-14.697 3.66-3.319 1.448-6.62 2.966-11.366 2.966-10.795 0-13.305-.031-14.848-.067a4.169 4.169 0 0 0-4.263 4.068 4.168 4.168 0 0 0 4.068 4.263zm18.708 19.951h7.322c2.3 0 4.167-1.867 4.167-4.167a4.169 4.169 0 0 0-4.167-4.166h-7.322a4.168 4.168 0 0 0-4.166 4.166c0 2.3 1.867 4.167 4.166 4.167zm28.611 16.191h7.321c2.3 0 4.167-1.867 4.167-4.167a4.169 4.169 0 0 0-4.167-4.166h-7.321a4.169 4.169 0 0 0-4.167 4.166c0 2.3 1.867 4.167 4.167 4.167zm54.157-4.475h7.321c2.3 0 4.167-1.867 4.167-4.167s-1.867-4.167-4.167-4.167h-7.321a4.169 4.169 0 0 0-4.167 4.167c0 2.3 1.867 4.167 4.167 4.167zm35.325-14.087h7.322a4.168 4.168 0 0 0 4.166-4.166c0-2.3-1.867-4.167-4.166-4.167h-7.322a4.169 4.169 0 0 0-4.167 4.167 4.169 4.169 0 0 0 4.167 4.166zm15.12-37.909s11.483.362 22.681-14.139c8.579-11.109 9.735-26.738 9.735-51.308a4.167 4.167 0 0 0-3.909-4.159c-17.267-1.071-25.384-9.958-25.384-9.958a4.168 4.168 0 0 0-6.249 0s-8.115 8.887-25.381 9.958a4.167 4.167 0 0 0-3.909 4.159c0 24.569 1.155 40.199 9.735 51.308 11.199 14.501 22.68 14.139 22.68 14.139h.001zm0-8.333h-.008c-.015-.001-7.948-.372-16.078-10.9-7.254-9.393-7.937-22.506-7.992-42.423 12.184-1.546 20.082-6.39 24.078-9.544 3.995 3.154 11.894 7.998 24.078 9.544-.055 19.918-.738 33.03-7.992 42.423h-.001c-8.14 10.542-16.085 10.9-16.085 10.9z"></path>
  <path d="M206.919 94.471h-18.668a4.168 4.168 0 0 0-4.166 4.166c0 2.3 1.867 4.167 4.166 4.167h18.668c2.3 0 4.167-1.867 4.167-4.167a4.169 4.169 0 0 0-4.167-4.166Z"></path>
  <path d="M193.419 89.303v18.668c0 2.3 1.867 4.167 4.166 4.167 2.3 0 4.167-1.867 4.167-4.167V89.303a4.169 4.169 0 0 0-4.167-4.166 4.168 4.168 0 0 0-4.166 4.166Z"></path>
</svg>
